<svg xmlns:ns0="http://www.w3.org/2000/svg" xmlns="http://www.w3.org/2000/svg"><g transform="translate(0, 0)"><ns0:svg width="233" viewBox="0 0 233 81" style="fill-opacity:1; color-rendering:auto; color-interpolation:auto; text-rendering:auto; stroke:black; stroke-linecap:square; stroke-miterlimit:10; shape-rendering:auto; stroke-opacity:1; fill:black; stroke-dasharray:none; font-weight:normal; stroke-width:1; font-family:'Open Sans'; font-style:normal; stroke-linejoin:miter; font-size:12; stroke-dashoffset:0; image-rendering:auto;" height="81" class="cas-substance-image"><ns0:svg class="cas-substance-single-component"><ns0:rect y="0" x="0" width="233" stroke="none" ry="7" rx="7" height="81" fill="white" class="cas-substance-group" /><ns0:svg y="0" x="0" width="233" viewBox="0 0 233 81" style="fill:black;" height="81" class="cas-substance-single-component-image"><ns0:svg><ns0:g><ns0:g transform="translate(116,43)" style="text-rendering:geometricPrecision; color-rendering:optimizeQuality; color-interpolation:linearRGB; stroke-linecap:butt; image-rendering:optimizeQuality;"><ns0:line y2="-24.51" y1="-12.0797" x2="-42.453" x1="-63.9822" style="fill:none;" /><ns0:line y2="2.264" y1="-6.9403" x2="-88.8255" x1="-72.8838" style="fill:none;" /><ns0:line y2="-29.8543" y1="-15.6483" x2="-80.1791" x1="-71.977" style="fill:none;" /><ns0:line y2="11.6174" y1="-5.4768" x2="-58.2555" x1="-68.1251" style="fill:none;" /><ns0:line y2="9.8674" y1="-7.2269" x2="-55.2244" x1="-65.094" style="fill:none;" /><ns0:line y2="-9.51" y1="-24.51" x2="-16.47" x1="-42.453" style="fill:none;" /><ns0:line y2="35.49" y1="11.8416" x2="-94.413" x1="-94.413" style="fill:none;" /><ns0:line y2="-35.49" y1="-35.49" x2="-113.433" x1="-89.3705" style="fill:none;" /><ns0:line y2="-24.51" y1="-9.51" x2="9.51" x1="-16.47" style="fill:none;" /><ns0:line y2="14.0134" y1="-10.5203" x2="-18.22" x1="-18.22" style="fill:none;" /><ns0:line y2="14.0134" y1="-10.5204" x2="-14.72" x1="-14.72" style="fill:none;" /><ns0:line y2="-9.51" y1="-24.51" x2="35.49" x1="9.51" style="fill:none;" /><ns0:line y2="-24.51" y1="-9.51" x2="61.47" x1="35.49" style="fill:none;" /><ns0:line y2="-9.51" y1="-24.51" x2="87.453" x1="61.47" style="fill:none;" /><ns0:line y2="-24.51" y1="-9.51" x2="113.433" x1="87.453" style="fill:none;" /></ns0:g><ns0:g transform="translate(116,43)" style="fill:rgb(111,5,255); text-rendering:geometricPrecision; color-rendering:optimizeQuality; image-rendering:optimizeQuality; font-family:'Open Sans'; stroke:rgb(111,5,255); color-interpolation:linearRGB;"><ns0:path style="stroke:none;" d="M-65.7142 -11.4319 Q-65.7142 -10.1194 -66.6049 -9.4241 Q-67.4955 -8.7288 -69.1361 -8.7288 L-70.1517 -8.7288 L-70.1517 -5.3538 L-71.1517 -5.3538 L-71.1517 -13.9163 L-68.9174 -13.9163 Q-65.7142 -13.9163 -65.7142 -11.4319 ZM-70.1517 -9.5725 L-69.2455 -9.5725 Q-67.933 -9.5725 -67.3392 -10.0022 Q-66.7455 -10.4319 -66.7455 -11.385 Q-66.7455 -12.2288 -67.3002 -12.6428 Q-67.8549 -13.0569 -69.0424 -13.0569 L-70.1517 -13.0569 L-70.1517 -9.5725 Z" /></ns0:g><ns0:g transform="translate(116,43)" style="stroke-linecap:butt; text-rendering:geometricPrecision; color-rendering:optimizeQuality; image-rendering:optimizeQuality; font-family:'Open Sans'; color-interpolation:linearRGB; stroke-miterlimit:5;"><ns0:path style="fill:none;" d="M-42.886 -24.26 L-42.453 -24.51 L-42.02 -24.26" /><ns0:path style="fill:rgb(230,0,0); stroke:none;" d="M-90.4755 5.4197 Q-90.4755 7.4822 -91.5146 8.6619 Q-92.5536 9.8416 -94.3974 9.8416 Q-96.288 9.8416 -97.3193 8.6775 Q-98.3505 7.5134 -98.3505 5.4041 Q-98.3505 3.3103 -97.3193 2.1619 Q-96.288 1.0134 -94.3974 1.0134 Q-92.538 1.0134 -91.5068 2.1853 Q-90.4755 3.3572 -90.4755 5.4197 ZM-97.3036 5.4197 Q-97.3036 7.1541 -96.5614 8.0603 Q-95.8193 8.9666 -94.3974 8.9666 Q-92.9755 8.9666 -92.2489 8.0681 Q-91.5224 7.1697 -91.5224 5.4197 Q-91.5224 3.6853 -92.2489 2.7947 Q-92.9755 1.9041 -94.3974 1.9041 Q-95.8193 1.9041 -96.5614 2.8025 Q-97.3036 3.7009 -97.3036 5.4197 Z" /><ns0:path style="fill:rgb(230,0,0); stroke:none;" d="M-79.4955 -35.5603 Q-79.4955 -33.4978 -80.5346 -32.3181 Q-81.5736 -31.1384 -83.4174 -31.1384 Q-85.308 -31.1384 -86.3392 -32.3025 Q-87.3705 -33.4666 -87.3705 -35.5759 Q-87.3705 -37.6697 -86.3392 -38.8181 Q-85.308 -39.9666 -83.4174 -39.9666 Q-81.558 -39.9666 -80.5267 -38.7947 Q-79.4955 -37.6228 -79.4955 -35.5603 ZM-86.3236 -35.5603 Q-86.3236 -33.8259 -85.5814 -32.9197 Q-84.8392 -32.0134 -83.4174 -32.0134 Q-81.9955 -32.0134 -81.2689 -32.9119 Q-80.5424 -33.8103 -80.5424 -35.5603 Q-80.5424 -37.2947 -81.2689 -38.1853 Q-81.9955 -39.0759 -83.4174 -39.0759 Q-84.8392 -39.0759 -85.5814 -38.1775 Q-86.3236 -37.2791 -86.3236 -35.5603 Z" /><ns0:path style="fill:rgb(230,0,0); stroke:none;" d="M-49.4955 16.3997 Q-49.4955 18.4622 -50.5346 19.6419 Q-51.5736 20.8216 -53.4174 20.8216 Q-55.308 20.8216 -56.3393 19.6575 Q-57.3705 18.4934 -57.3705 16.3841 Q-57.3705 14.2903 -56.3393 13.1419 Q-55.308 11.9934 -53.4174 11.9934 Q-51.558 11.9934 -50.5268 13.1653 Q-49.4955 14.3372 -49.4955 16.3997 ZM-56.3236 16.3997 Q-56.3236 18.1341 -55.5814 19.0403 Q-54.8393 19.9466 -53.4174 19.9466 Q-51.9955 19.9466 -51.2689 19.0481 Q-50.5424 18.1497 -50.5424 16.3997 Q-50.5424 14.6653 -51.2689 13.7747 Q-51.9955 12.8841 -53.4174 12.8841 Q-54.8393 12.8841 -55.5814 13.7825 Q-56.3236 14.6809 -56.3236 16.3997 Z" /><ns0:path style="fill:none;" d="M-16.903 -9.76 L-16.47 -9.51 L-16.037 -9.76" /><ns0:path style="fill:none;" d="M9.077 -24.26 L9.51 -24.51 L9.943 -24.26" /><ns0:path style="fill:rgb(230,0,0); stroke:none;" d="M-12.5325 20.4197 Q-12.5325 22.4822 -13.5716 23.6619 Q-14.6106 24.8416 -16.4544 24.8416 Q-18.345 24.8416 -19.3763 23.6775 Q-20.4075 22.5134 -20.4075 20.4041 Q-20.4075 18.3103 -19.3763 17.1619 Q-18.345 16.0134 -16.4544 16.0134 Q-14.595 16.0134 -13.5638 17.1853 Q-12.5325 18.3572 -12.5325 20.4197 ZM-19.3606 20.4197 Q-19.3606 22.1541 -18.6184 23.0603 Q-17.8763 23.9666 -16.4544 23.9666 Q-15.0325 23.9666 -14.3059 23.0681 Q-13.5794 22.1697 -13.5794 20.4197 Q-13.5794 18.6853 -14.3059 17.7947 Q-15.0325 16.9041 -16.4544 16.9041 Q-17.8763 16.9041 -18.6184 17.8025 Q-19.3606 18.7009 -19.3606 20.4197 Z" /><ns0:path style="fill:none;" d="M35.057 -9.76 L35.49 -9.51 L35.923 -9.76" /><ns0:path style="fill:none;" d="M61.037 -24.26 L61.47 -24.51 L61.903 -24.26" /><ns0:path style="fill:none;" d="M87.02 -9.76 L87.453 -9.51 L87.886 -9.76" /></ns0:g></ns0:g></ns0:svg></ns0:svg></ns0:svg></ns0:svg></g></svg>