<svg width="195" viewBox="0 0 195 111" style="fill-opacity:1; color-rendering:auto; color-interpolation:auto; text-rendering:auto; stroke:black; stroke-linecap:square; stroke-miterlimit:10; shape-rendering:auto; stroke-opacity:1; fill:black; stroke-dasharray:none; font-weight:normal; stroke-width:1; font-family:'Open Sans'; font-style:normal; stroke-linejoin:miter; font-size:12; stroke-dashoffset:0; image-rendering:auto;" height="111" class="cas-substance-image" xmlns:xlink="http://www.w3.org/1999/xlink" xmlns="http://www.w3.org/2000/svg"><svg class="cas-substance-single-component"><rect y="0" x="0" width="195" stroke="none" ry="7" rx="7" height="111" fill="white" class="cas-substance-group"/><svg y="0" x="0" width="195" viewBox="0 0 195 111" style="fill:black;" height="111" class="cas-substance-single-component-image"><svg><g><g transform="translate(90,58)" style="text-rendering:geometricPrecision; color-rendering:optimizeQuality; color-interpolation:linearRGB; stroke-linecap:butt; image-rendering:optimizeQuality;"><line y2="9.27" y1="31.6358" x2="-6.069" x1="1.1973" style="fill:none;"/><line y2="15" y1="38.6138" x2="-60.582" x1="-60.582" style="fill:none;"/><line y2="-35.0917" y1="-15" x2="53.1623" x1="41.562" style="fill:none;"/><line y2="6.1274" y1="-15" x2="51.7395" x1="39.5413" style="fill:none;"/><line y2="4.3774" y1="-16.75" x2="54.7706" x1="42.5724" style="fill:none;"/><line y2="-15" y1="-15" x2="11.562" x1="41.562" style="fill:none;"/><line y2="-40.98" y1="-40.98" x2="81.2104" x1="61.9136" style="fill:none;"/><line y2="0" y1="-30" x2="-34.602" x1="-34.602" style="fill:none;"/><line y2="-37.7883" y1="-30" x2="-10.6295" x1="-34.602" style="fill:none;"/><line y2="-45" y1="-30" x2="-60.582" x1="-34.602" style="fill:none;"/><line y2="-40.9585" y1="-27.9793" x2="-60.582" x1="-38.102" style="fill:none;"/><line y2="9.27" y1="0" x2="-6.069" x1="-34.602" style="fill:none;"/><line y2="15" y1="0" x2="-60.582" x1="-34.602" style="fill:none;"/><line y2="10.9585" y1="-2.0207" x2="-60.582" x1="-38.102" style="fill:none;"/><line y2="-15" y1="-34.3549" x2="11.562" x1="-2.4984" style="fill:none;"/><line y2="-30" y1="-45" x2="-86.562" x1="-60.582" style="fill:none;"/><line y2="-15" y1="9.27" x2="11.562" x1="-6.069" style="fill:none;"/><line y2="-15.4222" y1="5.578" x2="7.5427" x1="-7.713" style="fill:none;"/><line y2="0" y1="15" x2="-86.562" x1="-60.582" style="fill:none;"/><line y2="0" y1="-30" x2="-86.562" x1="-86.562" style="fill:none;"/><line y2="-2.0207" y1="-27.9793" x2="-83.062" x1="-83.062" style="fill:none;"/></g><g transform="translate(90,58)" style="fill:rgb(0,138,0); text-rendering:geometricPrecision; color-rendering:optimizeQuality; image-rendering:optimizeQuality; font-family:'Open Sans'; stroke:rgb(0,138,0); color-interpolation:linearRGB;"><path style="stroke:none;" d="M2.8924 34.4436 Q1.4862 34.4436 0.6658 35.3811 Q-0.1545 36.3186 -0.1545 37.9593 Q-0.1545 39.6311 0.6346 40.553 Q1.4237 41.4749 2.8768 41.4749 Q3.783 41.4749 4.9237 41.1468 L4.9237 42.0218 Q4.033 42.3655 2.7362 42.3655 Q0.8455 42.3655 -0.1857 41.2093 Q-1.217 40.053 -1.217 37.9436 Q-1.217 36.6155 -0.7248 35.6233 Q-0.2326 34.6311 0.7049 34.0921 Q1.6424 33.553 2.908 33.553 Q4.2518 33.553 5.2674 34.0374 L4.8455 34.8968 Q3.8612 34.4436 2.8924 34.4436 ZM7.619 42.2405 L6.6502 42.2405 L6.6502 33.1155 L7.619 33.1155 L7.619 42.2405 Z"/><path style="stroke:none;" d="M-60.8906 41.6406 Q-62.2968 41.6406 -63.1172 42.5781 Q-63.9375 43.5156 -63.9375 45.1562 Q-63.9375 46.8281 -63.1484 47.75 Q-62.3593 48.6719 -60.9062 48.6719 Q-60 48.6719 -58.8593 48.3438 L-58.8593 49.2188 Q-59.75 49.5625 -61.0468 49.5625 Q-62.9375 49.5625 -63.9687 48.4062 Q-65 47.25 -65 45.1406 Q-65 43.8125 -64.5078 42.8203 Q-64.0156 41.8281 -63.0781 41.2891 Q-62.1406 40.75 -60.875 40.75 Q-59.5312 40.75 -58.5156 41.2344 L-58.9375 42.0938 Q-59.9218 41.6406 -60.8906 41.6406 ZM-56.164 49.4375 L-57.1328 49.4375 L-57.1328 40.3125 L-56.164 40.3125 L-56.164 49.4375 Z"/></g><g transform="translate(90,58)" style="stroke-linecap:butt; text-rendering:geometricPrecision; color-rendering:optimizeQuality; image-rendering:optimizeQuality; font-family:'Open Sans'; color-interpolation:linearRGB; stroke-miterlimit:5;"><path style="fill:none;" d="M41.812 -15.433 L41.562 -15 L41.062 -15"/><path style="fill:rgb(0,5,255); stroke:none;" d="M59.9136 -36.8238 L58.7729 -36.8238 L54.0854 -44.0113 L54.0386 -44.0113 Q54.1323 -42.7456 54.1323 -41.6988 L54.1323 -36.8238 L53.2104 -36.8238 L53.2104 -45.3863 L54.3354 -45.3863 L59.0073 -38.23 L59.0542 -38.23 Q59.0542 -38.3863 59.0073 -39.2456 Q58.9604 -40.105 58.9761 -40.48 L58.9761 -45.3863 L59.9136 -45.3863 L59.9136 -36.8238 Z"/><path style="fill:rgb(0,5,255); stroke:none;" d="M59.8198 -46.3863 L58.8198 -46.3863 L58.8198 -50.4175 L54.3042 -50.4175 L54.3042 -46.3863 L53.3042 -46.3863 L53.3042 -54.9488 L54.3042 -54.9488 L54.3042 -51.3081 L58.8198 -51.3081 L58.8198 -54.9488 L59.8198 -54.9488 L59.8198 -46.3863 Z"/><path style="fill:rgb(230,0,0); stroke:none;" d="M60.4995 10.9097 Q60.4995 12.9722 59.4604 14.1519 Q58.4214 15.3316 56.5776 15.3316 Q54.687 15.3316 53.6558 14.1675 Q52.6245 13.0034 52.6245 10.8941 Q52.6245 8.8003 53.6558 7.6519 Q54.687 6.5034 56.5776 6.5034 Q58.437 6.5034 59.4683 7.6753 Q60.4995 8.8472 60.4995 10.9097 ZM53.6714 10.9097 Q53.6714 12.6441 54.4136 13.5503 Q55.1558 14.4566 56.5776 14.4566 Q57.9995 14.4566 58.7261 13.5581 Q59.4526 12.6597 59.4526 10.9097 Q59.4526 9.1753 58.7261 8.2847 Q57.9995 7.3941 56.5776 7.3941 Q55.1558 7.3941 54.4136 8.2925 Q53.6714 9.1909 53.6714 10.9097 Z"/><path style="fill:rgb(0,5,255); stroke:none;" d="M89.9136 -36.8238 L88.7729 -36.8238 L84.0854 -44.0113 L84.0386 -44.0113 Q84.1323 -42.7456 84.1323 -41.6988 L84.1323 -36.8238 L83.2104 -36.8238 L83.2104 -45.3863 L84.3354 -45.3863 L89.0073 -38.23 L89.0542 -38.23 Q89.0542 -38.3863 89.0073 -39.2456 Q88.9604 -40.105 88.9761 -40.48 L88.9761 -45.3863 L89.9136 -45.3863 L89.9136 -36.8238 Z"/><path style="fill:rgb(0,5,255); stroke:none;" d="M97.4292 -36.8238 L96.4292 -36.8238 L96.4292 -40.855 L91.9136 -40.855 L91.9136 -36.8238 L90.9136 -36.8238 L90.9136 -45.3863 L91.9136 -45.3863 L91.9136 -41.7456 L96.4292 -41.7456 L96.4292 -45.3863 L97.4292 -45.3863 L97.4292 -36.8238 Z"/><path style="fill:rgb(0,5,255); stroke:none;" d="M102.1792 -35.0144 L98.4292 -35.0144 L98.4292 -35.5769 L99.9292 -37.0925 Q100.6167 -37.78 100.8354 -38.0769 Q101.0542 -38.3738 101.1636 -38.655 Q101.2729 -38.9363 101.2729 -39.2644 Q101.2729 -39.7175 100.9995 -39.9831 Q100.7261 -40.2488 100.2261 -40.2488 Q99.8823 -40.2488 99.562 -40.1316 Q99.2417 -40.0144 98.8511 -39.7175 L98.5073 -40.155 Q99.2886 -40.8113 100.2261 -40.8113 Q101.0229 -40.8113 101.4839 -40.3972 Q101.9448 -39.9831 101.9448 -39.2956 Q101.9448 -38.7488 101.6401 -38.2175 Q101.3354 -37.6863 100.4917 -36.8738 L99.2417 -35.655 L99.2417 -35.6238 L102.1792 -35.6238 L102.1792 -35.0144 Z"/><path style="fill:none;" d="M-35.035 -30.25 L-34.602 -30 L-34.602 -29.5"/><path style="fill:none;" d="M-35.035 0.25 L-34.602 0 L-34.1265 0.1545"/><path style="fill:rgb(148,108,0); stroke:none;" d="M-3.3737 -37.3325 Q-3.3737 -36.2075 -4.194 -35.5669 Q-5.0143 -34.9263 -6.4206 -34.9263 Q-7.9518 -34.9263 -8.7643 -35.3325 L-8.7643 -36.2856 Q-8.2331 -36.0669 -7.6159 -35.9341 Q-6.9987 -35.8013 -6.3893 -35.8013 Q-5.3893 -35.8013 -4.8893 -36.1841 Q-4.3893 -36.5669 -4.3893 -37.2388 Q-4.3893 -37.6763 -4.569 -37.9653 Q-4.7487 -38.2544 -5.1628 -38.4966 Q-5.5768 -38.7388 -6.4362 -39.0356 Q-7.6237 -39.4575 -8.1393 -40.0434 Q-8.6549 -40.6294 -8.6549 -41.5825 Q-8.6549 -42.5669 -7.9128 -43.1528 Q-7.1706 -43.7388 -5.9362 -43.7388 Q-4.6706 -43.7388 -3.5924 -43.27 L-3.9049 -42.4106 Q-4.9674 -42.8481 -5.9674 -42.8481 Q-6.7643 -42.8481 -7.2096 -42.5122 Q-7.6549 -42.1763 -7.6549 -41.5669 Q-7.6549 -41.1294 -7.4909 -40.8403 Q-7.3268 -40.5513 -6.9362 -40.3169 Q-6.5456 -40.0825 -5.7331 -39.7856 Q-4.3893 -39.3169 -3.8815 -38.7622 Q-3.3737 -38.2075 -3.3737 -37.3325 Z"/><path style="fill:none;" d="M-60.149 -44.75 L-60.582 -45 L-61.015 -44.75"/><path style="fill:none;" d="M-5.7751 8.8655 L-6.069 9.27 L-6.5445 9.1155"/><path style="fill:none;" d="M-60.149 14.75 L-60.582 15 L-61.015 14.75"/><path style="fill:none;" d="M11.2681 -14.5955 L11.562 -15 L11.2681 -15.4045"/><path style="fill:none;" d="M-86.129 -30.25 L-86.562 -30 L-86.562 -29.5"/><path style="fill:none;" d="M-86.129 0.25 L-86.562 0 L-86.562 -0.5"/></g></g></svg></svg></svg></svg>