<svg width="427" viewBox="0 0 427 223" style="fill-opacity:1; color-rendering:auto; color-interpolation:auto; text-rendering:auto; stroke:black; stroke-linecap:square; stroke-miterlimit:10; shape-rendering:auto; stroke-opacity:1; fill:black; stroke-dasharray:none; font-weight:normal; stroke-width:1; font-family:'Open Sans'; font-style:normal; stroke-linejoin:miter; font-size:12; stroke-dashoffset:0; image-rendering:auto;" height="223" class="cas-substance-image" xmlns:xlink="http://www.w3.org/1999/xlink" xmlns="http://www.w3.org/2000/svg"><svg class="cas-substance-single-component"><rect y="0" x="0" width="427" stroke="none" ry="7" rx="7" height="223" fill="white" class="cas-substance-group"/><svg y="0" x="0" width="427" viewBox="0 0 427 223" style="fill:black;" height="223" class="cas-substance-single-component-image"><svg><g><g transform="translate(214,111)" style="text-rendering:geometricPrecision; color-rendering:optimizeQuality; color-interpolation:linearRGB; stroke-linecap:butt; image-rendering:optimizeQuality;"><line y2="-25.98" y1="0" x2="-120" x1="-105" style="fill:none;"/><line y2="-22.48" y1="0.0001" x2="-122.0207" x1="-109.0415" style="fill:none;"/><line y2="0" y1="0" x2="-75" x1="-105" style="fill:none;"/><line y2="-25.98" y1="-25.98" x2="-150" x1="-120" style="fill:none;"/><line y2="25.98" y1="0" x2="120" x1="105" style="fill:none;"/><line y2="22.48" y1="-0.0001" x2="122.0207" x1="109.0415" style="fill:none;"/><line y2="0" y1="0" x2="75" x1="105" style="fill:none;"/><line y2="25.98" y1="25.98" x2="150" x1="120" style="fill:none;"/><line y2="-64.6689" y1="-73.8713" x2="-130.5091" x1="-146.4477" style="fill:none;"/><line y2="-67.6999" y1="-76.9023" x2="-128.7591" x1="-144.6976" style="fill:none;"/><line y2="-91.2799" y1="-81.9695" x2="-169.5996" x1="-153.4741" style="fill:none;"/><line y2="-88.2489" y1="-78.9385" x2="-171.3497" x1="-155.2241" style="fill:none;"/><line y2="-98.275" y1="-83.1197" x2="-138.261" x1="-147.0112" style="fill:none;"/><line y2="-51.963" y1="-72.3992" x2="-165" x1="-153.2008" style="fill:none;"/><line y2="64.6061" y1="73.9165" x2="130.4004" x1="146.5259" style="fill:none;"/><line y2="67.6371" y1="76.9475" x2="128.6503" x1="144.7759" style="fill:none;"/><line y2="91.2171" y1="82.0147" x2="169.4909" x1="153.5523" style="fill:none;"/><line y2="88.1861" y1="78.9837" x2="171.2409" x1="155.3024" style="fill:none;"/><line y2="98.2013" y1="83.4868" x2="138.3035" x1="146.7992" style="fill:none;"/><line y2="51.96" y1="72.7661" x2="165" x1="152.9886" style="fill:none;"/><line y2="-25.98" y1="0" x2="-30" x1="-15" style="fill:none;"/><line y2="-22.48" y1="0.0001" x2="-32.0207" x1="-19.0415" style="fill:none;"/><line y2="25.98" y1="0" x2="-30" x1="-15" style="fill:none;"/><line y2="0" y1="0" x2="15" x1="-15" style="fill:none;"/><line y2="-25.98" y1="-25.98" x2="-60" x1="-30" style="fill:none;"/><line y2="25.98" y1="25.98" x2="-60" x1="-30" style="fill:none;"/><line y2="22.48" y1="22.48" x2="-57.9793" x1="-32.0207" style="fill:none;"/><line y2="0" y1="-25.98" x2="-75" x1="-60" style="fill:none;"/><line y2="0.0001" y1="-22.48" x2="-70.9585" x1="-57.9793" style="fill:none;"/><line y2="0" y1="25.98" x2="-75" x1="-60" style="fill:none;"/><line y2="-25.98" y1="0" x2="30" x1="15" style="fill:none;"/><line y2="-22.48" y1="0.0001" x2="32.0207" x1="19.0415" style="fill:none;"/><line y2="25.98" y1="0" x2="30" x1="15" style="fill:none;"/><line y2="-25.98" y1="-25.98" x2="60" x1="30" style="fill:none;"/><line y2="25.98" y1="25.98" x2="60" x1="30" style="fill:none;"/><line y2="22.48" y1="22.48" x2="57.9793" x1="32.0207" style="fill:none;"/><line y2="0" y1="-25.98" x2="75" x1="60" style="fill:none;"/><line y2="0.0001" y1="-22.48" x2="70.9585" x1="57.9793" style="fill:none;"/><line y2="0" y1="25.98" x2="75" x1="60" style="fill:none;"/><line y2="-51.963" y1="-25.98" x2="-165" x1="-150" style="fill:none;"/><line y2="-48.4631" y1="-25.9802" x2="-167.0209" x1="-154.0415" style="fill:none;"/><line y2="0" y1="-25.98" x2="-165" x1="-150" style="fill:none;"/><line y2="-51.963" y1="-51.963" x2="-195" x1="-165" style="fill:none;"/><line y2="0" y1="0" x2="-195" x1="-165" style="fill:none;"/><line y2="-3.5" y1="-3.5" x2="-192.9793" x1="-167.0207" style="fill:none;"/><line y2="-25.98" y1="-51.963" x2="-210" x1="-195" style="fill:none;"/><line y2="-25.9802" y1="-48.4631" x2="-205.9585" x1="-192.9791" style="fill:none;"/><line y2="-25.98" y1="0" x2="-210" x1="-195" style="fill:none;"/><line y2="51.96" y1="25.98" x2="165" x1="150" style="fill:none;"/><line y2="48.46" y1="25.9799" x2="167.0207" x1="154.0415" style="fill:none;"/><line y2="0" y1="25.98" x2="165" x1="150" style="fill:none;"/><line y2="51.96" y1="51.96" x2="195" x1="165" style="fill:none;"/><line y2="0" y1="0" x2="195" x1="165" style="fill:none;"/><line y2="3.5" y1="3.5" x2="192.9793" x1="167.0207" style="fill:none;"/><line y2="25.98" y1="51.96" x2="210" x1="195" style="fill:none;"/><line y2="25.9799" y1="48.46" x2="205.9585" x1="192.9793" style="fill:none;"/><line y2="25.98" y1="0" x2="210" x1="195" style="fill:none;"/><path style="fill:none; stroke-miterlimit:5;" d="M-105.25 -0.433 L-105 0 L-104.5 0"/><path style="fill:none; stroke-miterlimit:5;" d="M-119.75 -25.547 L-120 -25.98 L-120.5 -25.98"/><path style="fill:none; stroke-miterlimit:5;" d="M105.25 0.433 L105 0 L104.5 -0"/><path style="fill:none; stroke-miterlimit:5;" d="M119.75 25.547 L120 25.98 L120.5 25.98"/></g><g transform="translate(214,111)" style="stroke-linecap:butt; fill:rgb(148,108,0); text-rendering:geometricPrecision; color-rendering:optimizeQuality; image-rendering:optimizeQuality; font-family:'Open Sans'; stroke:rgb(148,108,0); color-interpolation:linearRGB; stroke-miterlimit:5;"><path style="stroke:none;" d="M-147.3047 -76.0055 Q-147.3047 -74.8805 -148.125 -74.2399 Q-148.9453 -73.5993 -150.3516 -73.5993 Q-151.8828 -73.5993 -152.6953 -74.0055 L-152.6953 -74.9586 Q-152.1641 -74.7399 -151.5469 -74.6071 Q-150.9297 -74.4743 -150.3203 -74.4743 Q-149.3203 -74.4743 -148.8203 -74.8571 Q-148.3203 -75.2399 -148.3203 -75.9118 Q-148.3203 -76.3493 -148.5 -76.6383 Q-148.6797 -76.9274 -149.0938 -77.1696 Q-149.5078 -77.4118 -150.3672 -77.7086 Q-151.5547 -78.1305 -152.0703 -78.7164 Q-152.5859 -79.3024 -152.5859 -80.2555 Q-152.5859 -81.2399 -151.8438 -81.8258 Q-151.1016 -82.4118 -149.8672 -82.4118 Q-148.6016 -82.4118 -147.5234 -81.943 L-147.8359 -81.0836 Q-148.8984 -81.5211 -149.8984 -81.5211 Q-150.6953 -81.5211 -151.1406 -81.1852 Q-151.5859 -80.8493 -151.5859 -80.2399 Q-151.5859 -79.8024 -151.4219 -79.5133 Q-151.2578 -79.2243 -150.8672 -78.9899 Q-150.4766 -78.7555 -149.6641 -78.4586 Q-148.3203 -77.9899 -147.8125 -77.4352 Q-147.3047 -76.8805 -147.3047 -76.0055 Z"/><path style="fill:rgb(230,0,0); stroke:none;" d="M-120.0825 -63.0133 Q-120.0825 -60.9508 -121.1216 -59.7711 Q-122.1606 -58.5914 -124.0044 -58.5914 Q-125.895 -58.5914 -126.9262 -59.7555 Q-127.9575 -60.9196 -127.9575 -63.0289 Q-127.9575 -65.1227 -126.9262 -66.2711 Q-125.895 -67.4196 -124.0044 -67.4196 Q-122.145 -67.4196 -121.1137 -66.2477 Q-120.0825 -65.0758 -120.0825 -63.0133 ZM-126.9106 -63.0133 Q-126.9106 -61.2789 -126.1684 -60.3727 Q-125.4262 -59.4664 -124.0044 -59.4664 Q-122.5825 -59.4664 -121.8559 -60.3649 Q-121.1294 -61.2633 -121.1294 -63.0133 Q-121.1294 -64.7477 -121.8559 -65.6383 Q-122.5825 -66.5289 -124.0044 -66.5289 Q-125.4262 -66.5289 -126.1684 -65.6305 Q-126.9106 -64.7321 -126.9106 -63.0133 Z"/><path style="fill:rgb(230,0,0); stroke:none;" d="M-172.0425 -93.0133 Q-172.0425 -90.9508 -173.0816 -89.7711 Q-174.1206 -88.5914 -175.9644 -88.5914 Q-177.855 -88.5914 -178.8863 -89.7555 Q-179.9175 -90.9196 -179.9175 -93.0289 Q-179.9175 -95.1227 -178.8863 -96.2711 Q-177.855 -97.4196 -175.9644 -97.4196 Q-174.105 -97.4196 -173.0738 -96.2477 Q-172.0425 -95.0758 -172.0425 -93.0133 ZM-178.8706 -93.0133 Q-178.8706 -91.2789 -178.1284 -90.3727 Q-177.3863 -89.4664 -175.9644 -89.4664 Q-174.5425 -89.4664 -173.8159 -90.3649 Q-173.0894 -91.2633 -173.0894 -93.0133 Q-173.0894 -94.7477 -173.8159 -95.6383 Q-174.5425 -96.5289 -175.9644 -96.5289 Q-177.3863 -96.5289 -178.1284 -95.6305 Q-178.8706 -94.7321 -178.8706 -93.0133 Z"/><path style="fill:rgb(230,0,0); stroke:none;" d="M-131.0625 -103.9933 Q-131.0625 -101.9308 -132.1016 -100.7511 Q-133.1406 -99.5714 -134.9844 -99.5714 Q-136.875 -99.5714 -137.9062 -100.7355 Q-138.9375 -101.8996 -138.9375 -104.0089 Q-138.9375 -106.1027 -137.9062 -107.2511 Q-136.875 -108.3996 -134.9844 -108.3996 Q-133.125 -108.3996 -132.0938 -107.2277 Q-131.0625 -106.0558 -131.0625 -103.9933 ZM-137.8906 -103.9933 Q-137.8906 -102.2589 -137.1484 -101.3527 Q-136.4062 -100.4464 -134.9844 -100.4464 Q-133.5625 -100.4464 -132.8359 -101.3449 Q-132.1094 -102.2433 -132.1094 -103.9933 Q-132.1094 -105.7277 -132.8359 -106.6183 Q-133.5625 -107.5089 -134.9844 -107.5089 Q-136.4062 -107.5089 -137.1484 -106.6105 Q-137.8906 -105.7121 -137.8906 -103.9933 Z"/><path style="fill:rgb(230,0,0); stroke:none;" d="M-123.5469 -99.6964 L-124.5469 -99.6964 L-124.5469 -103.7277 L-129.0625 -103.7277 L-129.0625 -99.6964 L-130.0625 -99.6964 L-130.0625 -108.2589 L-129.0625 -108.2589 L-129.0625 -104.6183 L-124.5469 -104.6183 L-124.5469 -108.2589 L-123.5469 -108.2589 L-123.5469 -99.6964 Z"/><path style="stroke:none;" d="M152.6953 79.8805 Q152.6953 81.0055 151.875 81.6461 Q151.0547 82.2868 149.6484 82.2868 Q148.1172 82.2868 147.3047 81.8805 L147.3047 80.9274 Q147.8359 81.1461 148.4531 81.2789 Q149.0703 81.4118 149.6797 81.4118 Q150.6797 81.4118 151.1797 81.0289 Q151.6797 80.6461 151.6797 79.9743 Q151.6797 79.5368 151.5 79.2477 Q151.3203 78.9586 150.9062 78.7164 Q150.4922 78.4743 149.6328 78.1774 Q148.4453 77.7555 147.9297 77.1696 Q147.4141 76.5836 147.4141 75.6305 Q147.4141 74.6461 148.1562 74.0602 Q148.8984 73.4743 150.1328 73.4743 Q151.3984 73.4743 152.4766 73.943 L152.1641 74.8024 Q151.1016 74.3649 150.1016 74.3649 Q149.3047 74.3649 148.8594 74.7008 Q148.4141 75.0368 148.4141 75.6461 Q148.4141 76.0836 148.5781 76.3727 Q148.7422 76.6618 149.1328 76.8961 Q149.5234 77.1305 150.3359 77.4274 Q151.6797 77.8961 152.1875 78.4508 Q152.6953 79.0055 152.6953 79.8805 Z"/><path style="fill:rgb(230,0,0); stroke:none;" d="M127.9575 62.8727 Q127.9575 64.9352 126.9184 66.1149 Q125.8794 67.2946 124.0356 67.2946 Q122.145 67.2946 121.1137 66.1305 Q120.0825 64.9664 120.0825 62.8571 Q120.0825 60.7633 121.1137 59.6149 Q122.145 58.4664 124.0356 58.4664 Q125.895 58.4664 126.9262 59.6383 Q127.9575 60.8102 127.9575 62.8727 ZM121.1294 62.8727 Q121.1294 64.6071 121.8716 65.5133 Q122.6137 66.4196 124.0356 66.4196 Q125.4575 66.4196 126.1841 65.5211 Q126.9106 64.6227 126.9106 62.8727 Q126.9106 61.1383 126.1841 60.2477 Q125.4575 59.3571 124.0356 59.3571 Q122.6137 59.3571 121.8716 60.2555 Q121.1294 61.1539 121.1294 62.8727 Z"/><path style="fill:rgb(230,0,0); stroke:none;" d="M179.9175 92.8727 Q179.9175 94.9352 178.8784 96.1149 Q177.8394 97.2946 175.9956 97.2946 Q174.105 97.2946 173.0738 96.1305 Q172.0425 94.9664 172.0425 92.8571 Q172.0425 90.7633 173.0738 89.6149 Q174.105 88.4664 175.9956 88.4664 Q177.855 88.4664 178.8863 89.6383 Q179.9175 90.8102 179.9175 92.8727 ZM173.0894 92.8727 Q173.0894 94.6071 173.8316 95.5133 Q174.5738 96.4196 175.9956 96.4196 Q177.4175 96.4196 178.1441 95.5211 Q178.8706 94.6227 178.8706 92.8727 Q178.8706 91.1383 178.1441 90.2477 Q177.4175 89.3571 175.9956 89.3571 Q174.5738 89.3571 173.8316 90.2555 Q173.0894 91.1539 173.0894 92.8727 Z"/><path style="fill:rgb(230,0,0); stroke:none;" d="M138.9375 103.8527 Q138.9375 105.9152 137.8984 107.0949 Q136.8594 108.2746 135.0156 108.2746 Q133.125 108.2746 132.0938 107.1105 Q131.0625 105.9464 131.0625 103.8371 Q131.0625 101.7433 132.0938 100.5949 Q133.125 99.4464 135.0156 99.4464 Q136.875 99.4464 137.9062 100.6183 Q138.9375 101.7902 138.9375 103.8527 ZM132.1094 103.8527 Q132.1094 105.5871 132.8516 106.4933 Q133.5938 107.3996 135.0156 107.3996 Q136.4375 107.3996 137.1641 106.5011 Q137.8906 105.6027 137.8906 103.8527 Q137.8906 102.1183 137.1641 101.2277 Q136.4375 100.3371 135.0156 100.3371 Q133.5938 100.3371 132.8516 101.2355 Q132.1094 102.1339 132.1094 103.8527 Z"/><path style="fill:rgb(230,0,0); stroke:none;" d="M130.0625 108.1496 L129.0625 108.1496 L129.0625 104.1183 L124.5469 104.1183 L124.5469 108.1496 L123.5469 108.1496 L123.5469 99.5871 L124.5469 99.5871 L124.5469 103.2277 L129.0625 103.2277 L129.0625 99.5871 L130.0625 99.5871 L130.0625 108.1496 Z"/><path style="fill:none; stroke:black;" d="M-15.25 -0.433 L-15 0 L-15.25 0.433"/><path style="fill:none; stroke:black;" d="M-29.75 -25.547 L-30 -25.98 L-30.5 -25.98"/><path style="fill:none; stroke:black;" d="M-29.75 25.547 L-30 25.98 L-30.5 25.98"/><path style="fill:none; stroke:black;" d="M-59.5 -25.98 L-60 -25.98 L-60.25 -25.547"/><path style="fill:none; stroke:black;" d="M-59.5 25.98 L-60 25.98 L-60.25 25.547"/><path style="fill:none; stroke:black;" d="M-74.75 -0.433 L-75 0 L-75.5 -0"/><path style="fill:none; stroke:black;" d="M15.25 -0.433 L15 0 L14.5 -0"/><path style="fill:none; stroke:black;" d="M29.75 -25.547 L30 -25.98 L30.5 -25.98"/><path style="fill:none; stroke:black;" d="M29.75 25.547 L30 25.98 L30.5 25.98"/><path style="fill:none; stroke:black;" d="M59.5 -25.98 L60 -25.98 L60.25 -25.547"/><path style="fill:none; stroke:black;" d="M59.5 25.98 L60 25.98 L60.25 25.547"/><path style="fill:none; stroke:black;" d="M74.75 -0.433 L75 0 L75.5 0"/><path style="fill:none; stroke:black;" d="M-150.25 -26.413 L-150 -25.98 L-149.5 -25.98"/><path style="fill:none; stroke:black;" d="M-164.75 -51.53 L-165 -51.963 L-164.75 -52.396"/><path style="fill:none; stroke:black;" d="M-164.75 -0.433 L-165 0 L-165.5 -0"/><path style="fill:none; stroke:black;" d="M-194.5 -51.963 L-195 -51.963 L-195.25 -51.53"/><path style="fill:none; stroke:black;" d="M-194.5 0 L-195 0 L-195.25 -0.433"/><path style="fill:none; stroke:black;" d="M-209.75 -26.413 L-210 -25.98 L-209.75 -25.547"/><path style="fill:none; stroke:black;" d="M150.25 26.413 L150 25.98 L149.5 25.98"/><path style="fill:none; stroke:black;" d="M164.75 51.527 L165 51.96 L164.75 52.393"/><path style="fill:none; stroke:black;" d="M164.75 0.433 L165 0 L165.5 0"/><path style="fill:none; stroke:black;" d="M194.5 51.96 L195 51.96 L195.25 51.527"/><path style="fill:none; stroke:black;" d="M194.5 -0 L195 0 L195.25 0.433"/><path style="fill:none; stroke:black;" d="M209.75 26.413 L210 25.98 L209.75 25.547"/></g></g></svg></svg></svg></svg>