<svg width="216" viewBox="0 0 216 146" style="fill-opacity:1; color-rendering:auto; color-interpolation:auto; text-rendering:auto; stroke:black; stroke-linecap:square; stroke-miterlimit:10; shape-rendering:auto; stroke-opacity:1; fill:black; stroke-dasharray:none; font-weight:normal; stroke-width:1; font-family:'Open Sans'; font-style:normal; stroke-linejoin:miter; font-size:12; stroke-dashoffset:0; image-rendering:auto;" height="146" class="cas-substance-image" xmlns:xlink="http://www.w3.org/1999/xlink" xmlns="http://www.w3.org/2000/svg"><svg class="cas-substance-single-component"><rect y="0" x="0" width="216" stroke="none" ry="7" rx="7" height="146" fill="white" class="cas-substance-group"/><svg y="0" x="0" width="216" viewBox="0 0 216 146" style="fill:black;" height="146" class="cas-substance-single-component-image"><svg><g><g transform="translate(108,72)" style="text-rendering:geometricPrecision; color-rendering:optimizeQuality; color-interpolation:linearRGB; stroke-linecap:butt; image-rendering:optimizeQuality;"><path style="stroke:none;" d="M-29.9841 -12.99 L-29.9841 -12.99 L-30.0945 -12.7527 L-25.1708 -9.9134 L-24.6024 -10.7403 L-24.6024 -10.7403 L-28.5036 -12.99 ZM-30.9415 -10.9318 L-31.3651 -10.0213 L-26.8761 -7.4327 L-26.8761 -7.4327 L-26.3077 -8.2596 L-30.9415 -10.9318 ZM-32.2121 -8.2004 L-32.6357 -7.2899 L-28.5814 -4.9519 L-28.013 -5.7789 L-28.013 -5.7789 L-32.2121 -8.2004 ZM-33.4827 -5.4689 L-33.9062 -4.5585 L-30.2867 -2.4712 L-29.7183 -3.2981 L-33.4827 -5.4689 ZM-34.7533 -2.7375 L-35.1768 -1.827 L-31.992 0.0095 L-31.4236 -0.8174 L-34.7533 -2.7375 ZM-36.0239 -0.0061 L-36.4474 0.9044 L-33.6973 2.4902 L-33.6973 2.4902 L-33.1289 1.6633 L-36.0239 -0.0061 ZM-37.2945 2.7253 L-37.718 3.6358 L-35.4027 4.971 L-34.8342 4.1441 L-37.2945 2.7253 ZM-38.565 5.4567 L-38.9886 6.3672 L-37.108 7.4517 L-36.5395 6.6248 L-36.5395 6.6248 L-38.565 5.4567 ZM-39.8356 8.1882 L-40.2591 9.0986 L-38.8133 9.9324 L-38.2448 9.1055 L-38.2448 9.1055 L-39.8356 8.1882 ZM-41.1062 10.9196 L-41.5297 11.8301 L-40.5186 12.4132 L-39.9502 11.5862 L-41.1062 10.9196 Z"/><line y2="-12.99" y1="-12.99" x2="3.48" x1="-26.52" style="fill:none;"/><path style="stroke:none;" d="M-41.27 12.557 L-41.77 13.423 L-70.7499 -0.7109 L-64.7501 -4.1751 Z"/><line y2="32.8317" y1="12.99" x2="-52.976" x1="-41.52" style="fill:none;"/><line y2="27.99" y1="12.99" x2="-15.537" x1="-41.52" style="fill:none;"/><line y2="9.764" y1="-2.01" x2="-87.8925" x1="-67.5" style="fill:none;"/><line y2="-25.6584" y1="-2.01" x2="-65.75" x1="-65.75" style="fill:none;"/><line y2="-25.6584" y1="-0.9996" x2="-69.25" x1="-69.25" style="fill:none;"/><line y2="58.8147" y1="44.8583" x2="-45.0637" x1="-53.1207" style="fill:none;"/><line y2="-38.97" y1="-59.0647" x2="18.48" x1="6.8793" style="fill:none;"/><line y2="12.99" y1="33.2424" x2="48.48" x1="60.1731" style="fill:none;"/><line y2="-12.99" y1="-12.99" x2="63.48" x1="87.5425" style="fill:none;"/><line y2="-38.97" y1="-12.99" x2="18.48" x1="3.48" style="fill:none;"/><line y2="-35.47" y1="-12.9899" x2="20.5007" x1="7.5215" style="fill:none;"/><line y2="12.99" y1="-12.99" x2="18.48" x1="3.48" style="fill:none;"/><line y2="-38.97" y1="-38.97" x2="48.48" x1="18.48" style="fill:none;"/><line y2="12.99" y1="12.99" x2="48.48" x1="18.48" style="fill:none;"/><line y2="9.49" y1="9.49" x2="46.4593" x1="20.5007" style="fill:none;"/><line y2="-12.99" y1="-38.97" x2="63.48" x1="48.48" style="fill:none;"/><line y2="-12.9899" y1="-35.47" x2="59.4385" x1="46.4593" style="fill:none;"/><line y2="-12.99" y1="12.99" x2="63.48" x1="48.48" style="fill:none;"/></g><g transform="translate(108,72)" style="font-size:8.4px; fill:gray; text-rendering:geometricPrecision; image-rendering:optimizeQuality; color-rendering:optimizeQuality; font-family:'Open Sans'; font-style:italic; stroke:gray; color-interpolation:linearRGB;"><path style="stroke:none;" d="M-48.2163 4.5338 Q-48.2163 3.2056 -47.7476 2.0806 Q-47.2788 0.9556 -46.2476 -0.1225 L-45.6382 -0.1225 Q-46.607 0.94 -47.0913 2.1119 Q-47.5757 3.2838 -47.5757 4.5181 Q-47.5757 5.8463 -47.1382 6.8619 L-47.6538 6.8619 Q-48.2163 5.8306 -48.2163 4.5338 ZM-42.5938 3.94 Q-42.5938 4.7681 -43.1407 5.2213 Q-43.6875 5.6744 -44.6875 5.6744 Q-45.0938 5.6744 -45.4063 5.6197 Q-45.7188 5.565 -46 5.4244 L-46 4.7681 Q-45.375 5.0963 -44.6719 5.0963 Q-44.0469 5.0963 -43.6719 4.7994 Q-43.2969 4.5025 -43.2969 3.9869 Q-43.2969 3.6744 -43.5 3.4478 Q-43.7032 3.2213 -44.2657 2.8931 Q-44.8594 2.565 -45.086 2.2369 Q-45.3125 1.9088 -45.3125 1.4556 Q-45.3125 0.7213 -44.7969 0.2603 Q-44.2813 -0.2006 -43.4375 -0.2006 Q-43.0625 -0.2006 -42.7266 -0.1225 Q-42.3907 -0.0444 -42.0157 0.1275 L-42.2813 0.7213 Q-42.5313 0.565 -42.8516 0.4791 Q-43.1719 0.3931 -43.4375 0.3931 Q-43.9688 0.3931 -44.2891 0.6666 Q-44.6094 0.94 -44.6094 1.4088 Q-44.6094 1.6119 -44.5391 1.7603 Q-44.4688 1.9088 -44.3282 2.0416 Q-44.1875 2.1744 -43.7657 2.4244 Q-43.2032 2.7681 -43 2.9635 Q-42.7969 3.1588 -42.6954 3.3931 Q-42.5938 3.6275 -42.5938 3.94 ZM-39.9993 2.2213 Q-39.9993 3.5494 -40.4759 4.6822 Q-40.9524 5.815 -41.9681 6.8619 L-42.5774 6.8619 Q-40.6399 4.7056 -40.6399 2.2213 Q-40.6399 0.8931 -41.0774 -0.1225 L-40.5618 -0.1225 Q-39.9993 0.94 -39.9993 2.2213 Z"/></g><g transform="translate(108,72)" style="fill:rgb(0,5,255); text-rendering:geometricPrecision; color-rendering:optimizeQuality; image-rendering:optimizeQuality; font-family:'Open Sans'; stroke:rgb(0,5,255); color-interpolation:linearRGB;"><path style="stroke:none;" d="M-53.1684 43.1263 L-54.3091 43.1263 L-58.9966 35.9388 L-59.0434 35.9388 Q-58.9497 37.2044 -58.9497 38.2513 L-58.9497 43.1263 L-59.8716 43.1263 L-59.8716 34.5638 L-58.7466 34.5638 L-54.0747 41.72 L-54.0278 41.72 Q-54.0278 41.5638 -54.0747 40.7044 Q-54.1216 39.845 -54.1059 39.47 L-54.1059 34.5638 L-53.1684 34.5638 L-53.1684 43.1263 Z"/><path style="stroke:none;" d="M-60.8716 43.1263 L-61.8716 43.1263 L-61.8716 39.095 L-66.3872 39.095 L-66.3872 43.1263 L-67.3872 43.1263 L-67.3872 34.5638 L-66.3872 34.5638 L-66.3872 38.2044 L-61.8716 38.2044 L-61.8716 34.5638 L-60.8716 34.5638 L-60.8716 43.1263 Z"/><path style="fill:rgb(230,0,0); stroke:none;" d="M-89.5425 12.9197 Q-89.5425 14.9822 -90.5816 16.1619 Q-91.6206 17.3416 -93.4644 17.3416 Q-95.355 17.3416 -96.3862 16.1775 Q-97.4175 15.0134 -97.4175 12.9041 Q-97.4175 10.8103 -96.3862 9.6619 Q-95.355 8.5134 -93.4644 8.5134 Q-91.605 8.5134 -90.5737 9.6853 Q-89.5425 10.8572 -89.5425 12.9197 ZM-96.3706 12.9197 Q-96.3706 14.6541 -95.6284 15.5603 Q-94.8862 16.4666 -93.4644 16.4666 Q-92.0425 16.4666 -91.3159 15.5681 Q-90.5894 14.6697 -90.5894 12.9197 Q-90.5894 11.1853 -91.3159 10.2947 Q-92.0425 9.4041 -93.4644 9.4041 Q-94.8862 9.4041 -95.6284 10.3025 Q-96.3706 11.2009 -96.3706 12.9197 Z"/><path style="fill:rgb(230,0,0); stroke:none;" d="M-98.4175 17.2166 L-99.4175 17.2166 L-99.4175 13.1853 L-103.9331 13.1853 L-103.9331 17.2166 L-104.9331 17.2166 L-104.9331 8.6541 L-103.9331 8.6541 L-103.9331 12.2947 L-99.4175 12.2947 L-99.4175 8.6541 L-98.4175 8.6541 L-98.4175 17.2166 Z"/><path style="fill:rgb(230,0,0); stroke:none;" d="M-63.5625 -32.0803 Q-63.5625 -30.0178 -64.6016 -28.8381 Q-65.6406 -27.6584 -67.4844 -27.6584 Q-69.375 -27.6584 -70.4062 -28.8225 Q-71.4375 -29.9866 -71.4375 -32.0959 Q-71.4375 -34.1897 -70.4062 -35.3381 Q-69.375 -36.4866 -67.4844 -36.4866 Q-65.625 -36.4866 -64.5938 -35.3147 Q-63.5625 -34.1428 -63.5625 -32.0803 ZM-70.3906 -32.0803 Q-70.3906 -30.3459 -69.6484 -29.4397 Q-68.9062 -28.5334 -67.4844 -28.5334 Q-66.0625 -28.5334 -65.3359 -29.4319 Q-64.6094 -30.3303 -64.6094 -32.0803 Q-64.6094 -33.8147 -65.3359 -34.7053 Q-66.0625 -35.5959 -67.4844 -35.5959 Q-68.9062 -35.5959 -69.6484 -34.6975 Q-70.3906 -33.7991 -70.3906 -32.0803 Z"/><path style="stroke:none;" d="M-38.1684 69.1093 L-39.3091 69.1093 L-43.9966 61.9218 L-44.0434 61.9218 Q-43.9497 63.1874 -43.9497 64.2343 L-43.9497 69.1093 L-44.8716 69.1093 L-44.8716 60.5468 L-43.7466 60.5468 L-39.0747 67.703 L-39.0278 67.703 Q-39.0278 67.5468 -39.0747 66.6874 Q-39.1216 65.828 -39.1059 65.453 L-39.1059 60.5468 L-38.1684 60.5468 L-38.1684 69.1093 Z"/><path style="stroke:none;" d="M-30.6528 69.1093 L-31.6528 69.1093 L-31.6528 65.078 L-36.1684 65.078 L-36.1684 69.1093 L-37.1684 69.1093 L-37.1684 60.5468 L-36.1684 60.5468 L-36.1684 64.1874 L-31.6528 64.1874 L-31.6528 60.5468 L-30.6528 60.5468 L-30.6528 69.1093 Z"/><path style="stroke:none;" d="M-25.9028 70.9186 L-29.6528 70.9186 L-29.6528 70.3561 L-28.1528 68.8405 Q-27.4653 68.153 -27.2466 67.8561 Q-27.0278 67.5592 -26.9184 67.278 Q-26.8091 66.9967 -26.8091 66.6686 Q-26.8091 66.2155 -27.0825 65.9499 Q-27.3559 65.6842 -27.8559 65.6842 Q-28.1997 65.6842 -28.52 65.8014 Q-28.8403 65.9186 -29.2309 66.2155 L-29.5747 65.778 Q-28.7934 65.1217 -27.8559 65.1217 Q-27.0591 65.1217 -26.5981 65.5358 Q-26.1372 65.9499 -26.1372 66.6374 Q-26.1372 67.1842 -26.4419 67.7155 Q-26.7466 68.2467 -27.5903 69.0592 L-28.8403 70.278 L-28.8403 70.3092 L-25.9028 70.3092 L-25.9028 70.9186 Z"/><path style="fill:rgb(0,138,0); stroke:none;" d="M-2.1889 -69.3593 L0.2329 -69.3593 Q1.9361 -69.3593 2.7017 -68.8514 Q3.4673 -68.3436 3.4673 -67.2499 Q3.4673 -66.4843 3.0454 -65.9843 Q2.6236 -65.4843 1.7954 -65.3436 L1.7954 -65.2811 Q3.7486 -64.953 3.7486 -63.2343 Q3.7486 -62.0936 2.9751 -61.4452 Q2.2017 -60.7968 0.8111 -60.7968 L-2.1889 -60.7968 L-2.1889 -69.3593 ZM-1.1889 -65.703 L0.4517 -65.703 Q1.5142 -65.703 1.9751 -66.0311 Q2.4361 -66.3593 2.4361 -67.1405 Q2.4361 -67.8593 1.9204 -68.1796 Q1.4048 -68.4999 0.2798 -68.4999 L-1.1889 -68.4999 L-1.1889 -65.703 ZM-1.1889 -64.8593 L-1.1889 -61.6405 L0.6079 -61.6405 Q1.6392 -61.6405 2.1626 -62.0468 Q2.6861 -62.453 2.6861 -63.3124 Q2.6861 -64.1093 2.147 -64.4843 Q1.6079 -64.8593 0.5142 -64.8593 L-1.1889 -64.8593 ZM8.3833 -67.3436 Q8.8052 -67.3436 9.1489 -67.2655 L9.0083 -66.3593 Q8.6177 -66.453 8.3052 -66.453 Q7.5239 -66.453 6.9693 -65.8202 Q6.4146 -65.1874 6.4146 -64.2499 L6.4146 -60.7968 L5.4458 -60.7968 L5.4458 -67.2186 L6.2427 -67.2186 L6.3677 -66.0311 L6.4146 -66.0311 Q6.7583 -66.6561 7.2661 -66.9999 Q7.7739 -67.3436 8.3833 -67.3436 Z"/><path style="fill:rgb(230,0,0); stroke:none;" d="M67.4175 38.8997 Q67.4175 40.9622 66.3784 42.1419 Q65.3394 43.3216 63.4956 43.3216 Q61.605 43.3216 60.5737 42.1575 Q59.5425 40.9934 59.5425 38.8841 Q59.5425 36.7903 60.5737 35.6419 Q61.605 34.4934 63.4956 34.4934 Q65.355 34.4934 66.3862 35.6653 Q67.4175 36.8372 67.4175 38.8997 ZM60.5894 38.8997 Q60.5894 40.6341 61.3316 41.5403 Q62.0737 42.4466 63.4956 42.4466 Q64.9175 42.4466 65.6441 41.5481 Q66.3706 40.6497 66.3706 38.8997 Q66.3706 37.1653 65.6441 36.2747 Q64.9175 35.3841 63.4956 35.3841 Q62.0737 35.3841 61.3316 36.2825 Q60.5894 37.1809 60.5894 38.8997 Z"/><path style="fill:rgb(230,0,0); stroke:none;" d="M74.9331 43.1966 L73.9331 43.1966 L73.9331 39.1653 L69.4175 39.1653 L69.4175 43.1966 L68.4175 43.1966 L68.4175 34.6341 L69.4175 34.6341 L69.4175 38.2747 L73.9331 38.2747 L73.9331 34.6341 L74.9331 34.6341 L74.9331 43.1966 Z"/><path style="fill:rgb(230,0,0); stroke:none;" d="M97.4175 -13.0603 Q97.4175 -10.9978 96.3784 -9.8181 Q95.3394 -8.6384 93.4956 -8.6384 Q91.605 -8.6384 90.5737 -9.8025 Q89.5425 -10.9666 89.5425 -13.0759 Q89.5425 -15.1697 90.5737 -16.3181 Q91.605 -17.4666 93.4956 -17.4666 Q95.355 -17.4666 96.3862 -16.2947 Q97.4175 -15.1228 97.4175 -13.0603 ZM90.5894 -13.0603 Q90.5894 -11.3259 91.3316 -10.4197 Q92.0737 -9.5134 93.4956 -9.5134 Q94.9175 -9.5134 95.6441 -10.4119 Q96.3706 -11.3103 96.3706 -13.0603 Q96.3706 -14.7947 95.6441 -15.6853 Q94.9175 -16.5759 93.4956 -16.5759 Q92.0737 -16.5759 91.3316 -15.6775 Q90.5894 -14.7791 90.5894 -13.0603 Z"/><path style="fill:rgb(230,0,0); stroke:none;" d="M104.9331 -8.7634 L103.9331 -8.7634 L103.9331 -12.7947 L99.4175 -12.7947 L99.4175 -8.7634 L98.4175 -8.7634 L98.4175 -17.3259 L99.4175 -17.3259 L99.4175 -13.6853 L103.9331 -13.6853 L103.9331 -17.3259 L104.9331 -17.3259 L104.9331 -8.7634 Z"/></g><g transform="translate(108,72)" style="stroke-linecap:butt; text-rendering:geometricPrecision; color-rendering:optimizeQuality; image-rendering:optimizeQuality; font-family:'Open Sans'; color-interpolation:linearRGB; stroke-miterlimit:5;"><path style="fill:none;" d="M3.73 -13.423 L3.48 -12.99 L2.98 -12.99"/><path style="fill:none;" d="M18.23 -38.537 L18.48 -38.97 L18.23 -39.403"/><path style="fill:none;" d="M18.23 12.557 L18.48 12.99 L18.98 12.99"/><path style="fill:none;" d="M47.98 -38.97 L48.48 -38.97 L48.73 -38.537"/><path style="fill:none;" d="M47.98 12.99 L48.48 12.99 L48.73 13.423"/><path style="fill:none;" d="M63.23 -13.423 L63.48 -12.99 L63.98 -12.99"/></g></g></svg></svg></svg></svg>