<svg width="302" viewBox="0 0 302 142" style="fill-opacity:1; color-rendering:auto; color-interpolation:auto; text-rendering:auto; stroke:black; stroke-linecap:square; stroke-miterlimit:10; shape-rendering:auto; stroke-opacity:1; fill:black; stroke-dasharray:none; font-weight:normal; stroke-width:1; font-family:'Open Sans'; font-style:normal; stroke-linejoin:miter; font-size:12; stroke-dashoffset:0; image-rendering:auto;" height="142" class="cas-substance-image" xmlns:xlink="http://www.w3.org/1999/xlink" xmlns="http://www.w3.org/2000/svg"><svg class="cas-substance-single-component"><rect y="0" x="0" width="302" stroke="none" ry="7" rx="7" height="142" fill="white" class="cas-substance-group"/><svg y="0" x="0" width="302" viewBox="0 0 302 142" style="fill:black;" height="142" class="cas-substance-single-component-image"><svg><g><g transform="translate(146,69)" style="text-rendering:geometricPrecision; color-rendering:optimizeQuality; color-interpolation:linearRGB; stroke-linecap:butt; image-rendering:optimizeQuality;"><path style="stroke:none;" d="M7.077 -35.5804 L6.111 -35.3216 L-4.0678 -63.6547 L1.7278 -65.2074 Z"/><path style="stroke:none;" d="M51.0959 -9.5146 L52.0921 -9.4274 L51.9696 20.6763 L45.9924 20.1537 Z"/><line y2="14.759" y1="35.8892" x2="7.6044" x1="19.8029" style="fill:none;"/><line y2="16.509" y1="37.6391" x2="4.5733" x1="16.7717" style="fill:none;"/><path style="stroke:none;" d="M-23.7828 -64.5951 L-23.7869 -63.5916 L-23.7869 -63.5916 L-18.142 -63.0968 L-17.9718 -64.0857 L-17.9718 -64.0857 L-23.7828 -64.5951 ZM-23.7953 -61.5847 L-23.7995 -60.5812 L-23.7995 -60.5812 L-18.6526 -60.13 L-18.6526 -60.13 L-18.4824 -61.1189 L-18.4824 -61.1189 L-23.7953 -61.5847 ZM-23.8079 -58.5743 L-23.812 -57.5709 L-19.1633 -57.1633 L-19.1633 -57.1633 L-18.993 -58.1522 L-18.993 -58.1522 L-23.8079 -58.5743 ZM-23.8204 -55.5639 L-23.8246 -54.5605 L-23.8246 -54.5605 L-19.6739 -54.1966 L-19.6739 -54.1966 L-19.5037 -55.1855 L-19.5037 -55.1855 L-23.8204 -55.5639 ZM-23.833 -52.5536 L-23.8372 -51.5501 L-23.8372 -51.5501 L-20.1845 -51.2299 L-20.1845 -51.2299 L-20.0143 -52.2188 L-20.0143 -52.2188 L-23.833 -52.5536 ZM-23.8455 -49.5432 L-23.8497 -48.5397 L-23.8497 -48.5397 L-20.6952 -48.2632 L-20.6952 -48.2632 L-20.5249 -49.2521 L-20.5249 -49.2521 L-23.8455 -49.5432 ZM-23.8581 -46.5328 L-23.8623 -45.5294 L-23.8623 -45.5294 L-21.2058 -45.2965 L-21.2058 -45.2965 L-21.0356 -46.2854 L-21.0356 -46.2854 L-23.8581 -46.5328 ZM-23.8706 -43.5225 L-23.8748 -42.519 L-23.8748 -42.519 L-21.7164 -42.3298 L-21.7164 -42.3298 L-21.5462 -43.3187 L-23.8706 -43.5225 ZM-23.8832 -40.5121 L-23.8874 -39.5086 L-23.8874 -39.5086 L-22.2271 -39.3631 L-22.2271 -39.3631 L-22.0568 -40.352 L-22.0568 -40.352 L-23.8832 -40.5121 ZM-23.8957 -37.5017 L-23.8999 -36.4983 L-23.8999 -36.4983 L-22.7377 -36.3964 L-22.7377 -36.3964 L-22.5675 -37.3853 L-22.5675 -37.3853 L-23.8957 -37.5017 Z"/><line y2="-35.451" y1="-64.995" x2="96.594" x1="91.386" style="fill:none;"/><line y2="-35.451" y1="-45.711" x2="96.594" x1="124.785" style="fill:none;"/><path style="stroke:none;" d="M111.594 -8.971 L111.594 -9.971 L135.6565 -12.471 L135.6565 -6.471 Z"/><path style="stroke:none;" d="M-82.973 -35.701 L-83.839 -35.201 L-101.0041 -59.9341 L-95.8079 -62.9339 Z"/><line y2="61.2447" y1="46.053" x2="-126.2984" x1="-108.195" style="fill:none;"/><line y2="55.8428" y1="47.3519" x2="-86.4195" x1="-109.7428" style="fill:none;"/><line y2="52.5539" y1="44.4086" x2="-85.2222" x1="-107.5963" style="fill:none;"/><path style="stroke:none;" d="M-113.8984 16.5958 L-112.9136 16.4222 L-105.22 44.2092 L-110.5271 48.6628 Z"/><path style="stroke:none;" d="M-114.544 16.3025 L-115.512 16.5662 L-115.0552 17.8186 L-115.0552 17.8186 L-114.1443 17.3983 L-114.1443 17.3983 L-114.544 16.3025 ZM-117.448 17.0935 L-118.416 17.3572 L-118.416 17.3572 L-117.7879 19.0792 L-116.877 18.659 L-117.448 17.0935 ZM-120.3521 17.8845 L-121.3201 18.1482 L-120.5207 20.3399 L-119.6098 19.9197 L-120.3521 17.8845 ZM-123.2561 18.6756 L-124.2241 18.9392 L-123.2534 21.6005 L-123.2534 21.6005 L-122.3425 21.1803 L-123.2561 18.6756 ZM-126.1601 19.4666 L-127.1281 19.7302 L-127.1281 19.7302 L-125.9861 22.8612 L-125.9861 22.8612 L-125.0752 22.441 L-126.1601 19.4666 ZM-129.0642 20.2576 L-130.0322 20.5212 L-128.7189 24.1219 L-128.7189 24.1219 L-127.808 23.7016 L-129.0642 20.2576 ZM-131.9682 21.0486 L-132.9362 21.3122 L-131.4516 25.3825 L-130.5407 24.9623 L-131.9682 21.0486 ZM-134.8722 21.8396 L-135.8402 22.1032 L-134.1843 26.6432 L-133.2734 26.223 L-134.8722 21.8396 ZM-137.7763 22.6306 L-138.7443 22.8942 L-136.9171 27.9039 L-136.0061 27.4836 L-137.7763 22.6306 ZM-140.6803 23.4216 L-141.6483 23.6852 L-139.6498 29.1645 L-138.7389 28.7443 L-140.6803 23.4216 Z"/><line y2="-35.451" y1="-9.471" x2="6.594" x1="21.594" style="fill:none;"/><line y2="-9.471" y1="-9.471" x2="51.594" x1="21.594" style="fill:none;"/><line y2="16.509" y1="-9.471" x2="6.594" x1="21.594" style="fill:none;"/><line y2="-35.451" y1="-35.451" x2="-23.406" x1="6.594" style="fill:none;"/><line y2="-61.434" y1="-35.451" x2="21.594" x1="6.594" style="fill:none;"/><line y2="-35.451" y1="-9.471" x2="66.594" x1="51.594" style="fill:none;"/><line y2="16.509" y1="-9.471" x2="66.594" x1="51.594" style="fill:none;"/><line y2="16.509" y1="16.509" x2="-23.406" x1="6.594" style="fill:none;"/><line y2="-9.471" y1="-35.451" x2="-38.406" x1="-23.406" style="fill:none;"/><line y2="-61.434" y1="-35.451" x2="-38.406" x1="-23.406" style="fill:none;"/><line y2="-61.434" y1="-61.434" x2="51.594" x1="21.594" style="fill:none;"/><line y2="-61.434" y1="-35.451" x2="51.594" x1="66.594" style="fill:none;"/><line y2="-35.451" y1="-35.451" x2="96.594" x1="66.594" style="fill:none;"/><line y2="16.509" y1="16.509" x2="96.594" x1="66.594" style="fill:none;"/><line y2="-9.471" y1="16.509" x2="-38.406" x1="-23.406" style="fill:none;"/><line y2="-9.4711" y1="13.009" x2="-34.3645" x1="-21.3853" style="fill:none;"/><line y2="-9.471" y1="-9.471" x2="-68.406" x1="-38.406" style="fill:none;"/><line y2="-61.434" y1="-61.434" x2="-68.406" x1="-38.406" style="fill:none;"/><line y2="-9.471" y1="-35.451" x2="111.594" x1="96.594" style="fill:none;"/><line y2="-9.471" y1="16.509" x2="111.594" x1="96.594" style="fill:none;"/><line y2="-35.451" y1="-9.471" x2="-83.406" x1="-68.406" style="fill:none;"/><line y2="16.509" y1="-9.471" x2="-83.406" x1="-68.406" style="fill:none;"/><line y2="-35.451" y1="-61.434" x2="-83.406" x1="-68.406" style="fill:none;"/><line y2="-35.451" y1="-35.451" x2="-113.406" x1="-83.406" style="fill:none;"/><line y2="16.509" y1="16.509" x2="-113.406" x1="-83.406" style="fill:none;"/><line y2="-9.471" y1="-35.451" x2="-128.406" x1="-113.406" style="fill:none;"/><line y2="-9.471" y1="16.509" x2="-128.406" x1="-113.406" style="fill:none;"/><path style="stroke:none;" d="M22.3375 -8.925 L21.2231 -8.6276 L21.379 -7.6339 L21.379 -7.6339 L22.6996 -7.9863 L22.6996 -7.9863 L22.3375 -8.925 ZM23.4237 -6.1089 L21.6908 -5.6465 L21.8467 -4.6528 L21.8467 -4.6528 L23.7858 -5.1703 L23.7858 -5.1703 L23.4237 -6.1089 ZM24.51 -3.2929 L22.1585 -2.6654 L22.1585 -2.6654 L22.3144 -1.6717 L22.3144 -1.6717 L24.8721 -2.3542 L24.8721 -2.3542 L24.51 -3.2929 ZM25.5962 -0.4769 L22.6262 0.3157 L22.7821 1.3094 L25.9583 0.4618 L25.5962 -0.4769 ZM26.6824 2.3391 L23.0939 3.2968 L23.0939 3.2968 L23.2498 4.2905 L27.0445 3.2778 L26.6824 2.3391 ZM27.7687 5.1552 L23.5616 6.2779 L23.5616 6.2779 L23.7175 7.2716 L28.1308 6.0939 L28.1308 6.0939 L27.7687 5.1552 ZM28.8549 7.9712 L24.0293 9.2589 L24.0293 9.2589 L24.1852 10.2526 L24.1852 10.2526 L29.217 8.9099 L28.8549 7.9712 ZM29.9411 10.7872 L24.497 12.24 L24.497 12.24 L24.6529 13.2337 L24.6529 13.2337 L30.3032 11.7259 L30.3032 11.7259 L29.9411 10.7872 Z"/><path style="stroke:none;" d="M75.3539 -56.4967 L74.9472 -55.5766 L79.847 -52.751 L80.4405 -53.5635 L75.3539 -56.4967 ZM74.1337 -53.7364 L73.7269 -52.8163 L78.0666 -50.3137 L78.6601 -51.1261 L78.6601 -51.1261 L74.1337 -53.7364 ZM72.9134 -50.976 L72.5067 -50.0559 L72.5067 -50.0559 L76.2862 -47.8764 L76.2862 -47.8764 L76.8797 -48.6888 L72.9134 -50.976 ZM71.6932 -48.2157 L71.2865 -47.2956 L74.5058 -45.4391 L74.5058 -45.4391 L75.0992 -46.2515 L71.6932 -48.2157 ZM70.473 -45.4553 L70.0662 -44.5352 L70.0662 -44.5352 L72.7253 -43.0018 L72.7253 -43.0018 L73.3188 -43.8142 L73.3188 -43.8142 L70.473 -45.4553 ZM69.2527 -42.695 L68.846 -41.7748 L68.846 -41.7748 L70.9449 -40.5644 L70.9449 -40.5644 L71.5384 -41.3769 L71.5384 -41.3769 L69.2527 -42.695 ZM68.0325 -39.9346 L67.6257 -39.0145 L67.6257 -39.0145 L69.1645 -38.1271 L69.758 -38.9396 L68.0325 -39.9346 ZM66.8122 -37.1743 L66.4055 -36.2541 L67.3841 -35.6898 L67.9776 -36.5023 L67.9776 -36.5023 L66.8122 -37.1743 Z"/><path style="stroke:none;" d="M-66.8097 -8.1332 L-68.0459 -7.4204 L-67.6402 -6.4996 L-66.215 -7.3215 L-66.8097 -8.1332 ZM-65.0256 -5.698 L-66.829 -4.658 L-66.4234 -3.7372 L-64.4308 -4.8862 L-65.0256 -5.698 ZM-63.2414 -3.2627 L-65.6122 -1.8956 L-65.2066 -0.9748 L-62.6467 -2.451 L-63.2414 -3.2627 ZM-61.4572 -0.8275 L-64.3953 0.8668 L-63.9897 1.7876 L-60.8625 -0.0157 L-60.8625 -0.0157 L-61.4572 -0.8275 ZM-59.6731 1.6078 L-63.1785 3.6292 L-62.7729 4.55 L-59.0784 2.4195 L-59.6731 1.6078 ZM-57.8889 4.043 L-61.9616 6.3916 L-61.556 7.3124 L-61.556 7.3124 L-57.2942 4.8548 L-57.8889 4.043 ZM-56.1048 6.4783 L-60.7448 9.1541 L-60.3392 10.0749 L-55.51 7.29 L-55.51 7.29 L-56.1048 6.4783 Z"/></g><g transform="translate(146,69)" style="fill:rgb(230,0,0); text-rendering:geometricPrecision; color-rendering:optimizeQuality; image-rendering:optimizeQuality; font-family:'Open Sans'; stroke:rgb(230,0,0); color-interpolation:linearRGB;"><path style="stroke:none;" d="M25.5315 42.4217 Q25.5315 44.4842 24.4924 45.6639 Q23.4534 46.8436 21.6096 46.8436 Q19.719 46.8436 18.6877 45.6795 Q17.6565 44.5154 17.6565 42.4061 Q17.6565 40.3123 18.6877 39.1639 Q19.719 38.0154 21.6096 38.0154 Q23.469 38.0154 24.5002 39.1873 Q25.5315 40.3592 25.5315 42.4217 ZM18.7034 42.4217 Q18.7034 44.1561 19.4456 45.0623 Q20.1877 45.9686 21.6096 45.9686 Q23.0315 45.9686 23.7581 45.0701 Q24.4846 44.1717 24.4846 42.4217 Q24.4846 40.6873 23.7581 39.7967 Q23.0315 38.9061 21.6096 38.9061 Q20.1877 38.9061 19.4456 39.8045 Q18.7034 40.7029 18.7034 42.4217 Z"/><path style="stroke:none;" d="M145.5315 -9.5413 Q145.5315 -7.4788 144.4924 -6.2991 Q143.4534 -5.1194 141.6096 -5.1194 Q139.719 -5.1194 138.6877 -6.2835 Q137.6565 -7.4476 137.6565 -9.5569 Q137.6565 -11.6507 138.6877 -12.7991 Q139.719 -13.9476 141.6096 -13.9476 Q143.469 -13.9476 144.5002 -12.7757 Q145.5315 -11.6038 145.5315 -9.5413 ZM138.7034 -9.5413 Q138.7034 -7.8069 139.4456 -6.9007 Q140.1877 -5.9944 141.6096 -5.9944 Q143.0315 -5.9944 143.7581 -6.8929 Q144.4846 -7.7913 144.4846 -9.5413 Q144.4846 -11.2757 143.7581 -12.1663 Q143.0315 -13.0569 141.6096 -13.0569 Q140.1877 -13.0569 139.4456 -12.1585 Q138.7034 -11.2601 138.7034 -9.5413 Z"/><path style="stroke:none;" d="M153.0471 -5.2444 L152.0471 -5.2444 L152.0471 -9.2757 L147.5315 -9.2757 L147.5315 -5.2444 L146.5315 -5.2444 L146.5315 -13.8069 L147.5315 -13.8069 L147.5315 -10.1663 L152.0471 -10.1663 L152.0471 -13.8069 L153.0471 -13.8069 L153.0471 -5.2444 Z"/><path style="stroke:none;" d="M-127.2375 65.2667 Q-127.2375 67.3292 -128.2766 68.5089 Q-129.3156 69.6886 -131.1594 69.6886 Q-133.05 69.6886 -134.0813 68.5245 Q-135.1125 67.3604 -135.1125 65.2511 Q-135.1125 63.1573 -134.0813 62.0089 Q-133.05 60.8604 -131.1594 60.8604 Q-129.3 60.8604 -128.2688 62.0323 Q-127.2375 63.2042 -127.2375 65.2667 ZM-134.0656 65.2667 Q-134.0656 67.0011 -133.3234 67.9073 Q-132.5813 68.8136 -131.1594 68.8136 Q-129.7375 68.8136 -129.0109 67.9151 Q-128.2844 67.0167 -128.2844 65.2667 Q-128.2844 63.5323 -129.0109 62.6417 Q-129.7375 61.7511 -131.1594 61.7511 Q-132.5813 61.7511 -133.3234 62.6495 Q-134.0656 63.5479 -134.0656 65.2667 Z"/><path style="stroke:none;" d="M-136.1125 69.5636 L-137.1125 69.5636 L-137.1125 65.5323 L-141.6281 65.5323 L-141.6281 69.5636 L-142.6281 69.5636 L-142.6281 61.0011 L-141.6281 61.0011 L-141.6281 64.6417 L-137.1125 64.6417 L-137.1125 61.0011 L-136.1125 61.0011 L-136.1125 69.5636 Z"/><path style="stroke:none;" d="M-76.0665 56.2457 Q-76.0665 58.3082 -77.1056 59.4879 Q-78.1446 60.6676 -79.9884 60.6676 Q-81.879 60.6676 -82.9102 59.5035 Q-83.9415 58.3394 -83.9415 56.2301 Q-83.9415 54.1363 -82.9102 52.9879 Q-81.879 51.8394 -79.9884 51.8394 Q-78.129 51.8394 -77.0977 53.0113 Q-76.0665 54.1832 -76.0665 56.2457 ZM-82.8946 56.2457 Q-82.8946 57.9801 -82.1524 58.8863 Q-81.4102 59.7926 -79.9884 59.7926 Q-78.5665 59.7926 -77.8399 58.8941 Q-77.1134 57.9957 -77.1134 56.2457 Q-77.1134 54.5113 -77.8399 53.6207 Q-78.5665 52.7301 -79.9884 52.7301 Q-81.4102 52.7301 -82.1524 53.6285 Q-82.8946 54.5269 -82.8946 56.2457 Z"/></g><g transform="translate(146,69)" style="font-size:8.4px; fill:gray; text-rendering:geometricPrecision; image-rendering:optimizeQuality; color-rendering:optimizeQuality; font-family:'Open Sans'; font-style:italic; stroke:gray; color-interpolation:linearRGB;"><path style="stroke:none;" d="M7.2054 -8.3069 Q7.2054 -9.6351 7.6741 -10.7601 Q8.1429 -11.8851 9.1741 -12.9632 L9.7835 -12.9632 Q8.8147 -11.9007 8.3304 -10.7288 Q7.846 -9.5569 7.846 -8.3226 Q7.846 -6.9944 8.2835 -5.9788 L7.7679 -5.9788 Q7.2054 -7.0101 7.2054 -8.3069 ZM10.7654 -9.6194 L10.2654 -7.2444 L9.6092 -7.2444 L10.8123 -12.9632 L12.0623 -12.9632 Q13.7967 -12.9632 13.7967 -11.5257 Q13.7967 -10.1663 12.3592 -9.7757 L13.2967 -7.2444 L12.5779 -7.2444 L11.7498 -9.6194 L10.7654 -9.6194 ZM11.3435 -12.3694 Q10.9529 -10.4476 10.8904 -10.1976 L11.5467 -10.1976 Q12.2967 -10.1976 12.7029 -10.5257 Q13.1092 -10.8538 13.1092 -11.4788 Q13.1092 -11.9476 12.8514 -12.1585 Q12.5935 -12.3694 11.9998 -12.3694 L11.3435 -12.3694 ZM15.9826 -10.6194 Q15.9826 -9.2913 15.5061 -8.1585 Q15.0295 -7.0257 14.0139 -5.9788 L13.4045 -5.9788 Q15.342 -8.1351 15.342 -10.6194 Q15.342 -11.9476 14.9045 -12.9632 L15.4201 -12.9632 Q15.9826 -11.9007 15.9826 -10.6194 Z"/><path style="stroke:none;" d="M12.2054 -34.2872 Q12.2054 -35.6153 12.6741 -36.7403 Q13.1429 -37.8653 14.1741 -38.9434 L14.7835 -38.9434 Q13.8147 -37.8809 13.3304 -36.7091 Q12.846 -35.5372 12.846 -34.3028 Q12.846 -32.9747 13.2835 -31.9591 L12.7679 -31.9591 Q12.2054 -32.9903 12.2054 -34.2872 ZM15.7654 -35.5997 L15.2654 -33.2247 L14.6092 -33.2247 L15.8123 -38.9434 L17.0623 -38.9434 Q18.7967 -38.9434 18.7967 -37.5059 Q18.7967 -36.1466 17.3592 -35.7559 L18.2967 -33.2247 L17.5779 -33.2247 L16.7498 -35.5997 L15.7654 -35.5997 ZM16.3435 -38.3497 Q15.9529 -36.4278 15.8904 -36.1778 L16.5467 -36.1778 Q17.2967 -36.1778 17.7029 -36.5059 Q18.1092 -36.8341 18.1092 -37.4591 Q18.1092 -37.9278 17.8514 -38.1388 Q17.5935 -38.3497 16.9998 -38.3497 L16.3435 -38.3497 ZM20.9826 -36.5997 Q20.9826 -35.2716 20.5061 -34.1388 Q20.0295 -33.0059 19.0139 -31.9591 L18.4045 -31.9591 Q20.342 -34.1153 20.342 -36.5997 Q20.342 -37.9278 19.9045 -38.9434 L20.4201 -38.9434 Q20.9826 -37.8809 20.9826 -36.5997 Z"/><path style="stroke:none;" d="M57.4855 -8.2679 Q57.4855 -9.596 57.9542 -10.721 Q58.423 -11.846 59.4542 -12.9241 L60.0636 -12.9241 Q59.0949 -11.8616 58.6105 -10.6897 Q58.1261 -9.5179 58.1261 -8.2835 Q58.1261 -6.9554 58.5636 -5.9397 L58.048 -5.9397 Q57.4855 -6.971 57.4855 -8.2679 ZM63.108 -8.8616 Q63.108 -8.0335 62.5612 -7.5804 Q62.0143 -7.1272 61.0143 -7.1272 Q60.608 -7.1272 60.2955 -7.1819 Q59.983 -7.2366 59.7018 -7.3772 L59.7018 -8.0335 Q60.3268 -7.7054 61.0299 -7.7054 Q61.6549 -7.7054 62.0299 -8.0022 Q62.4049 -8.2991 62.4049 -8.8147 Q62.4049 -9.1272 62.2018 -9.3538 Q61.9987 -9.5804 61.4362 -9.9085 Q60.8424 -10.2366 60.6159 -10.5647 Q60.3893 -10.8929 60.3893 -11.346 Q60.3893 -12.0804 60.9049 -12.5413 Q61.4205 -13.0022 62.2643 -13.0022 Q62.6393 -13.0022 62.9752 -12.9241 Q63.3112 -12.846 63.6862 -12.6741 L63.4205 -12.0804 Q63.1705 -12.2366 62.8502 -12.3226 Q62.5299 -12.4085 62.2643 -12.4085 Q61.733 -12.4085 61.4127 -12.1351 Q61.0924 -11.8616 61.0924 -11.3929 Q61.0924 -11.1897 61.1627 -11.0413 Q61.233 -10.8929 61.3737 -10.7601 Q61.5143 -10.6272 61.9362 -10.3772 Q62.4987 -10.0335 62.7018 -9.8382 Q62.9049 -9.6429 63.0065 -9.4085 Q63.108 -9.1741 63.108 -8.8616 ZM65.7025 -10.5804 Q65.7025 -9.2522 65.226 -8.1194 Q64.7494 -6.9866 63.7338 -5.9397 L63.1244 -5.9397 Q65.0619 -8.096 65.0619 -10.5804 Q65.0619 -11.9085 64.6244 -12.9241 L65.14 -12.9241 Q65.7025 -11.8616 65.7025 -10.5804 Z"/></g><g transform="translate(146,69)" style="stroke-linecap:butt; font-size:8.4px; text-rendering:geometricPrecision; image-rendering:optimizeQuality; color-rendering:optimizeQuality; font-family:'Open Sans'; font-style:italic; color-interpolation:linearRGB; stroke-miterlimit:5;"><path style="fill:none;" d="M6.844 16.076 L6.594 16.509 L6.094 16.509"/><path style="fill:gray; stroke:none;" d="M-37.5145 -34.2481 Q-37.5145 -35.5763 -37.0458 -36.7013 Q-36.577 -37.8263 -35.5458 -38.9044 L-34.9364 -38.9044 Q-35.9051 -37.8419 -36.3895 -36.67 Q-36.8739 -35.4981 -36.8739 -34.2638 Q-36.8739 -32.9356 -36.4364 -31.92 L-36.952 -31.92 Q-37.5145 -32.9513 -37.5145 -34.2481 ZM-31.892 -34.8419 Q-31.892 -34.0138 -32.4388 -33.5606 Q-32.9857 -33.1075 -33.9857 -33.1075 Q-34.392 -33.1075 -34.7045 -33.1622 Q-35.017 -33.2169 -35.2982 -33.3575 L-35.2982 -34.0138 Q-34.6732 -33.6856 -33.9701 -33.6856 Q-33.3451 -33.6856 -32.9701 -33.9825 Q-32.5951 -34.2794 -32.5951 -34.795 Q-32.5951 -35.1075 -32.7982 -35.3341 Q-33.0013 -35.5606 -33.5638 -35.8888 Q-34.1576 -36.2169 -34.3841 -36.545 Q-34.6107 -36.8731 -34.6107 -37.3263 Q-34.6107 -38.0606 -34.0951 -38.5216 Q-33.5795 -38.9825 -32.7357 -38.9825 Q-32.3607 -38.9825 -32.0248 -38.9044 Q-31.6888 -38.8263 -31.3138 -38.6544 L-31.5795 -38.0606 Q-31.8295 -38.2169 -32.1498 -38.3028 Q-32.4701 -38.3888 -32.7357 -38.3888 Q-33.267 -38.3888 -33.5873 -38.1153 Q-33.9076 -37.8419 -33.9076 -37.3731 Q-33.9076 -37.17 -33.8373 -37.0216 Q-33.767 -36.8731 -33.6263 -36.7403 Q-33.4857 -36.6075 -33.0638 -36.3575 Q-32.5013 -36.0138 -32.2982 -35.8184 Q-32.0951 -35.6231 -31.9935 -35.3888 Q-31.892 -35.1544 -31.892 -34.8419 ZM-29.2975 -36.5606 Q-29.2975 -35.2325 -29.774 -34.0997 Q-30.2506 -32.9669 -31.2662 -31.92 L-31.8756 -31.92 Q-29.9381 -34.0763 -29.9381 -36.5606 Q-29.9381 -37.8888 -30.3756 -38.9044 L-29.86 -38.9044 Q-29.2975 -37.8419 -29.2975 -36.5606 Z"/><path style="fill:none;" d="M21.344 -61.001 L21.594 -61.434 L22.094 -61.434"/><path style="fill:gray; stroke:none;" d="M52.2054 -34.2872 Q52.2054 -35.6153 52.6741 -36.7403 Q53.1429 -37.8653 54.1741 -38.9434 L54.7835 -38.9434 Q53.8147 -37.8809 53.3304 -36.7091 Q52.846 -35.5372 52.846 -34.3028 Q52.846 -32.9747 53.2835 -31.9591 L52.7679 -31.9591 Q52.2054 -32.9903 52.2054 -34.2872 ZM55.7654 -35.5997 L55.2654 -33.2247 L54.6092 -33.2247 L55.8123 -38.9434 L57.0623 -38.9434 Q58.7967 -38.9434 58.7967 -37.5059 Q58.7967 -36.1466 57.3592 -35.7559 L58.2967 -33.2247 L57.5779 -33.2247 L56.7498 -35.5997 L55.7654 -35.5997 ZM56.3435 -38.3497 Q55.9529 -36.4278 55.8904 -36.1778 L56.5467 -36.1778 Q57.2967 -36.1778 57.7029 -36.5059 Q58.1092 -36.8341 58.1092 -37.4591 Q58.1092 -37.9278 57.8514 -38.1388 Q57.5935 -38.3497 56.9998 -38.3497 L56.3435 -38.3497 ZM60.9826 -36.5997 Q60.9826 -35.2716 60.5061 -34.1388 Q60.0295 -33.0059 59.0139 -31.9591 L58.4045 -31.9591 Q60.342 -34.1153 60.342 -36.5997 Q60.342 -37.9278 59.9045 -38.9434 L60.4201 -38.9434 Q60.9826 -37.8809 60.9826 -36.5997 Z"/><path style="fill:none;" d="M66.344 16.076 L66.594 16.509 L67.094 16.509"/><path style="fill:none;" d="M-22.906 16.509 L-23.406 16.509 L-23.656 16.076"/><path style="fill:none;" d="M-38.156 -9.038 L-38.406 -9.471 L-38.156 -9.904"/><path style="fill:none;" d="M-38.156 -61.001 L-38.406 -61.434 L-38.906 -61.434"/><path style="fill:none;" d="M51.094 -61.434 L51.594 -61.434 L51.844 -61.001"/><path style="fill:none;" d="M96.094 16.509 L96.594 16.509 L96.844 16.076"/><path style="fill:gray; stroke:none;" d="M-82.5145 -8.2679 Q-82.5145 -9.596 -82.0458 -10.721 Q-81.577 -11.846 -80.5458 -12.9241 L-79.9364 -12.9241 Q-80.9051 -11.8616 -81.3895 -10.6897 Q-81.8739 -9.5179 -81.8739 -8.2835 Q-81.8739 -6.9554 -81.4364 -5.9397 L-81.952 -5.9397 Q-82.5145 -6.971 -82.5145 -8.2679 ZM-76.892 -8.8616 Q-76.892 -8.0335 -77.4388 -7.5804 Q-77.9857 -7.1272 -78.9857 -7.1272 Q-79.392 -7.1272 -79.7045 -7.1819 Q-80.017 -7.2366 -80.2982 -7.3772 L-80.2982 -8.0335 Q-79.6732 -7.7054 -78.9701 -7.7054 Q-78.3451 -7.7054 -77.9701 -8.0022 Q-77.5951 -8.2991 -77.5951 -8.8147 Q-77.5951 -9.1272 -77.7982 -9.3538 Q-78.0013 -9.5804 -78.5638 -9.9085 Q-79.1576 -10.2366 -79.3841 -10.5647 Q-79.6107 -10.8929 -79.6107 -11.346 Q-79.6107 -12.0804 -79.0951 -12.5413 Q-78.5795 -13.0022 -77.7357 -13.0022 Q-77.3607 -13.0022 -77.0248 -12.9241 Q-76.6888 -12.846 -76.3138 -12.6741 L-76.5795 -12.0804 Q-76.8295 -12.2366 -77.1498 -12.3226 Q-77.4701 -12.4085 -77.7357 -12.4085 Q-78.267 -12.4085 -78.5873 -12.1351 Q-78.9076 -11.8616 -78.9076 -11.3929 Q-78.9076 -11.1897 -78.8373 -11.0413 Q-78.767 -10.8929 -78.6263 -10.7601 Q-78.4857 -10.6272 -78.0638 -10.3772 Q-77.5013 -10.0335 -77.2982 -9.8382 Q-77.0951 -9.6429 -76.9935 -9.4085 Q-76.892 -9.1741 -76.892 -8.8616 ZM-74.2975 -10.5804 Q-74.2975 -9.2522 -74.774 -8.1194 Q-75.2506 -6.9866 -76.2662 -5.9397 L-76.8756 -5.9397 Q-74.9381 -8.096 -74.9381 -10.5804 Q-74.9381 -11.9085 -75.3756 -12.9241 L-74.86 -12.9241 Q-74.2975 -11.8616 -74.2975 -10.5804 Z"/><path style="fill:none;" d="M-67.906 -61.434 L-68.406 -61.434 L-68.656 -61.001"/><path style="fill:gray; stroke:none;" d="M112.4856 -16.9281 Q112.4856 -18.2562 112.9543 -19.3812 Q113.4231 -20.5062 114.4543 -21.5843 L115.0637 -21.5843 Q114.095 -20.5218 113.6106 -19.3499 Q113.1262 -18.1781 113.1262 -16.9437 Q113.1262 -15.6156 113.5637 -14.5999 L113.0481 -14.5999 Q112.4856 -15.6312 112.4856 -16.9281 ZM118.1081 -17.5218 Q118.1081 -16.6937 117.5613 -16.2406 Q117.0144 -15.7874 116.0144 -15.7874 Q115.6081 -15.7874 115.2956 -15.8421 Q114.9831 -15.8968 114.7019 -16.0374 L114.7019 -16.6937 Q115.3269 -16.3656 116.03 -16.3656 Q116.655 -16.3656 117.03 -16.6624 Q117.405 -16.9593 117.405 -17.4749 Q117.405 -17.7874 117.2019 -18.014 Q116.9988 -18.2406 116.4363 -18.5687 Q115.8425 -18.8968 115.616 -19.2249 Q115.3894 -19.5531 115.3894 -20.0062 Q115.3894 -20.7406 115.905 -21.2015 Q116.4206 -21.6624 117.2644 -21.6624 Q117.6394 -21.6624 117.9753 -21.5843 Q118.3113 -21.5062 118.6863 -21.3343 L118.4206 -20.7406 Q118.1706 -20.8968 117.8503 -20.9828 Q117.53 -21.0687 117.2644 -21.0687 Q116.7331 -21.0687 116.4128 -20.7953 Q116.0925 -20.5218 116.0925 -20.0531 Q116.0925 -19.8499 116.1628 -19.7015 Q116.2331 -19.5531 116.3738 -19.4203 Q116.5144 -19.2874 116.9363 -19.0374 Q117.4988 -18.6937 117.7019 -18.4984 Q117.905 -18.3031 118.0066 -18.0687 Q118.1081 -17.8343 118.1081 -17.5218 ZM120.7026 -19.2406 Q120.7026 -17.9124 120.2261 -16.7796 Q119.7495 -15.6468 118.7339 -14.5999 L118.1245 -14.5999 Q120.062 -16.7562 120.062 -19.2406 Q120.062 -20.5687 119.6245 -21.5843 L120.1401 -21.5843 Q120.7026 -20.5218 120.7026 -19.2406 Z"/><path style="fill:gray; stroke:none;" d="M-77.5145 -34.2481 Q-77.5145 -35.5763 -77.0458 -36.7013 Q-76.577 -37.8263 -75.5458 -38.9044 L-74.9364 -38.9044 Q-75.9051 -37.8419 -76.3895 -36.67 Q-76.8739 -35.4981 -76.8739 -34.2638 Q-76.8739 -32.9356 -76.4364 -31.92 L-76.952 -31.92 Q-77.5145 -32.9513 -77.5145 -34.2481 ZM-71.892 -34.8419 Q-71.892 -34.0138 -72.4388 -33.5606 Q-72.9857 -33.1075 -73.9857 -33.1075 Q-74.392 -33.1075 -74.7045 -33.1622 Q-75.017 -33.2169 -75.2982 -33.3575 L-75.2982 -34.0138 Q-74.6732 -33.6856 -73.9701 -33.6856 Q-73.3451 -33.6856 -72.9701 -33.9825 Q-72.5951 -34.2794 -72.5951 -34.795 Q-72.5951 -35.1075 -72.7982 -35.3341 Q-73.0013 -35.5606 -73.5638 -35.8888 Q-74.1576 -36.2169 -74.3841 -36.545 Q-74.6107 -36.8731 -74.6107 -37.3263 Q-74.6107 -38.0606 -74.0951 -38.5216 Q-73.5795 -38.9825 -72.7357 -38.9825 Q-72.3607 -38.9825 -72.0248 -38.9044 Q-71.6888 -38.8263 -71.3138 -38.6544 L-71.5795 -38.0606 Q-71.8295 -38.2169 -72.1498 -38.3028 Q-72.4701 -38.3888 -72.7357 -38.3888 Q-73.267 -38.3888 -73.5873 -38.1153 Q-73.9076 -37.8419 -73.9076 -37.3731 Q-73.9076 -37.17 -73.8373 -37.0216 Q-73.767 -36.8731 -73.6263 -36.7403 Q-73.4857 -36.6075 -73.0638 -36.3575 Q-72.5013 -36.0138 -72.2982 -35.8184 Q-72.0951 -35.6231 -71.9935 -35.3888 Q-71.892 -35.1544 -71.892 -34.8419 ZM-69.2975 -36.5606 Q-69.2975 -35.2325 -69.774 -34.0997 Q-70.2506 -32.9669 -71.2662 -31.92 L-71.8756 -31.92 Q-69.9381 -34.0763 -69.9381 -36.5606 Q-69.9381 -37.8888 -70.3756 -38.9044 L-69.86 -38.9044 Q-69.2975 -37.8419 -69.2975 -36.5606 Z"/><path style="fill:none;" d="M-83.156 16.076 L-83.406 16.509 L-83.906 16.509"/><path style="fill:none;" d="M-112.906 -35.451 L-113.406 -35.451 L-113.656 -35.018"/><path style="fill:gray; stroke:none;" d="M-112.5146 9.0518 Q-112.5146 7.7237 -112.0458 6.5987 Q-111.5771 5.4737 -110.5458 4.3956 L-109.9364 4.3956 Q-110.9052 5.4581 -111.3896 6.63 Q-111.8739 7.8018 -111.8739 9.0362 Q-111.8739 10.3643 -111.4364 11.38 L-111.9521 11.38 Q-112.5146 10.3487 -112.5146 9.0518 ZM-106.892 8.4581 Q-106.892 9.2862 -107.4389 9.7393 Q-107.9858 10.1925 -108.9858 10.1925 Q-109.392 10.1925 -109.7045 10.1378 Q-110.017 10.0831 -110.2983 9.9425 L-110.2983 9.2862 Q-109.6733 9.6143 -108.9701 9.6143 Q-108.3451 9.6143 -107.9701 9.3175 Q-107.5951 9.0206 -107.5951 8.505 Q-107.5951 8.1925 -107.7983 7.9659 Q-108.0014 7.7393 -108.5639 7.4112 Q-109.1576 7.0831 -109.3842 6.755 Q-109.6108 6.4268 -109.6108 5.9737 Q-109.6108 5.2393 -109.0951 4.7784 Q-108.5795 4.3175 -107.7358 4.3175 Q-107.3608 4.3175 -107.0248 4.3956 Q-106.6889 4.4737 -106.3139 4.6456 L-106.5795 5.2393 Q-106.8295 5.0831 -107.1498 4.9972 Q-107.4701 4.9112 -107.7358 4.9112 Q-108.267 4.9112 -108.5873 5.1847 Q-108.9076 5.4581 -108.9076 5.9268 Q-108.9076 6.13 -108.8373 6.2784 Q-108.767 6.4268 -108.6264 6.5597 Q-108.4858 6.6925 -108.0639 6.9425 Q-107.5014 7.2862 -107.2983 7.4815 Q-107.0951 7.6768 -106.9936 7.9112 Q-106.892 8.1456 -106.892 8.4581 ZM-104.2975 6.7393 Q-104.2975 8.0675 -104.7741 9.2003 Q-105.2507 10.3331 -106.2663 11.38 L-106.8757 11.38 Q-104.9382 9.2237 -104.9382 6.7393 Q-104.9382 5.4112 -105.3757 4.3956 L-104.86 4.3956 Q-104.2975 5.4581 -104.2975 6.7393 Z"/><path style="fill:none;" d="M-128.156 -9.904 L-128.406 -9.471 L-128.156 -9.038"/><path style="stroke:none;" d="M32.6188 23.6623 L31.6188 23.6623 L31.6188 19.631 L27.1032 19.631 L27.1032 23.6623 L26.1032 23.6623 L26.1032 15.0998 L27.1032 15.0998 L27.1032 18.7404 L31.6188 18.7404 L31.6188 15.0998 L32.6188 15.0998 L32.6188 23.6623 Z"/><path style="stroke:none;" d="M84.8518 -57.2778 L83.8518 -57.2778 L83.8518 -61.309 L79.3362 -61.309 L79.3362 -57.2778 L78.3362 -57.2778 L78.3362 -65.8403 L79.3362 -65.8403 L79.3362 -62.1996 L83.8518 -62.1996 L83.8518 -65.8403 L84.8518 -65.8403 L84.8518 -57.2778 Z"/><path style="stroke:none;" d="M-50.1482 20.6653 L-51.1482 20.6653 L-51.1482 16.634 L-55.6638 16.634 L-55.6638 20.6653 L-56.6638 20.6653 L-56.6638 12.1028 L-55.6638 12.1028 L-55.6638 15.7434 L-51.1482 15.7434 L-51.1482 12.1028 L-50.1482 12.1028 L-50.1482 20.6653 Z"/></g></g></svg></svg></svg></svg>