<svg xmlns:ns0="http://www.w3.org/2000/svg" xmlns="http://www.w3.org/2000/svg"><g transform="translate(0, 0)"><ns0:svg width="480" viewBox="0 0 480 120" style="fill-opacity:1; color-rendering:auto; color-interpolation:auto; text-rendering:auto; stroke:black; stroke-linecap:square; stroke-miterlimit:10; shape-rendering:auto; stroke-opacity:1; fill:black; stroke-dasharray:none; font-weight:normal; stroke-width:1; font-family:'Open Sans'; font-style:normal; stroke-linejoin:miter; font-size:12; stroke-dashoffset:0; image-rendering:auto;" height="120" class="cas-substance-image"><ns0:svg class="cas-substance-single-component"><ns0:rect y="0" x="0" width="480" stroke="none" ry="7" rx="7" height="120" fill="white" class="cas-substance-group" /><ns0:svg y="0" x="0" width="480" viewBox="0 0 480 120" style="fill:black;" height="120" class="cas-substance-single-component-image"><ns0:svg><ns0:g><ns0:g transform="translate(245,60)" style="text-rendering:geometricPrecision; color-rendering:optimizeQuality; color-interpolation:linearRGB; stroke-linecap:butt; image-rendering:optimizeQuality;"><ns0:line y2="-10.965" y1="-25.965" x2="-132.144" x1="-158.124" style="fill:none;" /><ns0:line y2="-13.8998" y1="-25.965" x2="-179.0233" x1="-158.124" style="fill:none;" /><ns0:line y2="-25.965" y1="-10.965" x2="-106.164" x1="-132.144" style="fill:none;" /><ns0:line y2="-10.965" y1="-25.965" x2="-80.184" x1="-106.164" style="fill:none;" /><ns0:line y2="-25.965" y1="-10.965" x2="-54.201" x1="-80.184" style="fill:none;" /><ns0:line y2="-10.965" y1="-25.965" x2="-28.221" x1="-54.201" style="fill:none;" /><ns0:line y2="-25.965" y1="-10.965" x2="-2.241" x1="-28.221" style="fill:none;" /><ns0:line y2="-10.965" y1="-25.965" x2="23.739" x1="-2.241" style="fill:none;" /><ns0:line y2="-25.965" y1="-10.965" x2="49.722" x1="23.739" style="fill:none;" /><ns0:line y2="-10.965" y1="-25.965" x2="75.702" x1="49.722" style="fill:none;" /><ns0:line y2="-25.965" y1="-10.965" x2="101.682" x1="75.702" style="fill:none;" /><ns0:line y2="-10.965" y1="-25.965" x2="127.662" x1="101.682" style="fill:none;" /><ns0:line y2="-25.965" y1="-10.965" x2="153.645" x1="127.662" style="fill:none;" /><ns0:line y2="-10.965" y1="-25.965" x2="179.625" x1="153.645" style="fill:none;" /><ns0:line y2="-25.965" y1="-10.965" x2="205.605" x1="179.625" style="fill:none;" /><ns0:line y2="-10.965" y1="-25.965" x2="231.585" x1="205.605" style="fill:none;" /><ns0:line y2="-21.5613" y1="-45.8403" x2="-212.9594" x1="-218.12" style="fill:none;" /><ns0:line y2="-22.289" y1="-46.568" x2="-209.5358" x1="-214.6965" style="fill:none;" /><ns0:line y2="24.6572" y1="47.0097" x2="-214.469" x1="-224.423" style="fill:none;" /><ns0:line y2="23.2338" y1="45.5859" x2="-217.6665" x1="-227.6203" style="fill:none;" /><ns0:line y2="18.87" y1="-4.8197" x2="-187.242" x1="-184.7527" style="fill:none;" /><ns0:line y2="-23.169" y1="-13.2711" x2="-211.512" x1="-189.2856" style="fill:none;" /><ns0:line y2="25.107" y1="18.87" x2="-216.585" x1="-187.242" style="fill:none;" /><ns0:line y2="-6.0821" y1="-23.169" x2="-226.8953" x1="-211.512" style="fill:none;" /><ns0:line y2="5.0153" y1="25.107" x2="-228.1853" x1="-216.585" style="fill:none;" /><ns0:path style="fill:none; stroke-miterlimit:5;" d="M-157.691 -25.715 L-158.124 -25.965 L-158.557 -25.715" /><ns0:path style="fill:none; stroke-miterlimit:5;" d="M-132.577 -11.215 L-132.144 -10.965 L-131.711 -11.215" /><ns0:path style="fill:none; stroke-miterlimit:5;" d="M-106.597 -25.715 L-106.164 -25.965 L-105.731 -25.715" /><ns0:path style="fill:none; stroke-miterlimit:5;" d="M-80.617 -11.215 L-80.184 -10.965 L-79.751 -11.215" /><ns0:path style="fill:none; stroke-miterlimit:5;" d="M-54.634 -25.715 L-54.201 -25.965 L-53.768 -25.715" /><ns0:path style="fill:none; stroke-miterlimit:5;" d="M-28.654 -11.215 L-28.221 -10.965 L-27.788 -11.215" /><ns0:path style="fill:none; stroke-miterlimit:5;" d="M-2.674 -25.715 L-2.241 -25.965 L-1.808 -25.715" /><ns0:path style="fill:none; stroke-miterlimit:5;" d="M23.306 -11.215 L23.739 -10.965 L24.172 -11.215" /><ns0:path style="fill:none; stroke-miterlimit:5;" d="M49.289 -25.715 L49.722 -25.965 L50.155 -25.715" /><ns0:path style="fill:none; stroke-miterlimit:5;" d="M75.269 -11.215 L75.702 -10.965 L76.135 -11.215" /><ns0:path style="fill:none; stroke-miterlimit:5;" d="M101.249 -25.715 L101.682 -25.965 L102.115 -25.715" /><ns0:path style="fill:none; stroke-miterlimit:5;" d="M127.229 -11.215 L127.662 -10.965 L128.095 -11.215" /><ns0:path style="fill:none; stroke-miterlimit:5;" d="M153.212 -25.715 L153.645 -25.965 L154.078 -25.715" /><ns0:path style="fill:none; stroke-miterlimit:5;" d="M179.192 -11.215 L179.625 -10.965 L180.058 -11.215" /><ns0:path style="fill:none; stroke-miterlimit:5;" d="M205.172 -25.715 L205.605 -25.965 L206.038 -25.715" /></ns0:g><ns0:g transform="translate(245,60)" style="stroke-linecap:butt; fill:rgb(230,0,0); text-rendering:geometricPrecision; color-rendering:optimizeQuality; image-rendering:optimizeQuality; font-family:'Open Sans'; stroke:rgb(230,0,0); color-interpolation:linearRGB; stroke-miterlimit:5;"><ns0:path style="stroke:none;" d="M-213.8115 -52.5823 Q-213.8115 -50.5198 -214.8506 -49.3401 Q-215.8896 -48.1604 -217.7334 -48.1604 Q-219.624 -48.1604 -220.6552 -49.3245 Q-221.6865 -50.4886 -221.6865 -52.5979 Q-221.6865 -54.6917 -220.6552 -55.8401 Q-219.624 -56.9886 -217.7334 -56.9886 Q-215.874 -56.9886 -214.8427 -55.8167 Q-213.8115 -54.6448 -213.8115 -52.5823 ZM-220.6396 -52.5823 Q-220.6396 -50.8479 -219.8974 -49.9417 Q-219.1552 -49.0354 -217.7334 -49.0354 Q-216.3115 -49.0354 -215.5849 -49.9339 Q-214.8584 -50.8323 -214.8584 -52.5823 Q-214.8584 -54.3167 -215.5849 -55.2073 Q-216.3115 -56.0979 -217.7334 -56.0979 Q-219.1552 -56.0979 -219.8974 -55.1995 Q-220.6396 -54.3011 -220.6396 -52.5823 Z" /><ns0:path style="stroke:none;" d="M-224.8515 52.4417 Q-224.8515 54.5042 -225.8906 55.6839 Q-226.9296 56.8636 -228.7734 56.8636 Q-230.664 56.8636 -231.6953 55.6995 Q-232.7265 54.5354 -232.7265 52.4261 Q-232.7265 50.3323 -231.6953 49.1839 Q-230.664 48.0354 -228.7734 48.0354 Q-226.914 48.0354 -225.8828 49.2073 Q-224.8515 50.3792 -224.8515 52.4417 ZM-231.6796 52.4417 Q-231.6796 54.1761 -230.9374 55.0823 Q-230.1953 55.9886 -228.7734 55.9886 Q-227.3515 55.9886 -226.6249 55.0901 Q-225.8984 54.1917 -225.8984 52.4417 Q-225.8984 50.7073 -226.6249 49.8167 Q-227.3515 48.9261 -228.7734 48.9261 Q-230.1953 48.9261 -230.9374 49.8245 Q-231.6796 50.7229 -231.6796 52.4417 Z" /><ns0:path style="fill:rgb(0,5,255); stroke:none;" d="M-180.7554 -6.8088 L-181.8961 -6.8088 L-186.5836 -13.9963 L-186.6304 -13.9963 Q-186.5367 -12.7306 -186.5367 -11.6838 L-186.5367 -6.8088 L-187.4586 -6.8088 L-187.4586 -15.3713 L-186.3336 -15.3713 L-181.6617 -8.215 L-181.6148 -8.215 Q-181.6148 -8.3713 -181.6617 -9.2306 Q-181.7086 -10.09 -181.6929 -10.465 L-181.6929 -15.3713 L-180.7554 -15.3713 L-180.7554 -6.8088 Z" /><ns0:path style="fill:none; stroke:black;" d="M-187.1897 18.3727 L-187.242 18.87 L-187.7311 18.974" /><ns0:path style="fill:none; stroke:black;" d="M-211.0552 -22.9656 L-211.512 -23.169 L-211.8465 -22.7974" /><ns0:path style="fill:none; stroke:black;" d="M-216.0959 25.003 L-216.585 25.107 L-216.835 24.674" /><ns0:path style="fill:rgb(0,5,255); stroke:none;" d="M-228.2334 3.2832 L-229.3741 3.2832 L-234.0616 -3.9043 L-234.1084 -3.9043 Q-234.0147 -2.6386 -234.0147 -1.5918 L-234.0147 3.2832 L-234.9366 3.2832 L-234.9366 -5.2793 L-233.8116 -5.2793 L-229.1397 1.877 L-229.0928 1.877 Q-229.0928 1.7207 -229.1397 0.8614 Q-229.1866 0.002 -229.1709 -0.373 L-229.1709 -5.2793 L-228.2334 -5.2793 L-228.2334 3.2832 Z" /><ns0:path style="fill:rgb(0,5,255); stroke:none;" d="M-235.9366 3.2832 L-236.9366 3.2832 L-236.9366 -0.748 L-241.4522 -0.748 L-241.4522 3.2832 L-242.4522 3.2832 L-242.4522 -5.2793 L-241.4522 -5.2793 L-241.4522 -1.6386 L-236.9366 -1.6386 L-236.9366 -5.2793 L-235.9366 -5.2793 L-235.9366 3.2832 Z" /></ns0:g></ns0:g></ns0:svg></ns0:svg></ns0:svg></ns0:svg></g></svg>