<svg width="100" viewBox="0 0 100 60" style="fill-opacity:1; color-rendering:auto; color-interpolation:auto; text-rendering:auto; stroke:black; stroke-linecap:square; stroke-miterlimit:10; shape-rendering:auto; stroke-opacity:1; fill:black; stroke-dasharray:none; font-weight:normal; stroke-width:1; font-family:'Open Sans'; font-style:normal; stroke-linejoin:miter; font-size:12; stroke-dashoffset:0; image-rendering:auto;" height="60" class="cas-substance-image" xmlns:xlink="http://www.w3.org/1999/xlink" xmlns="http://www.w3.org/2000/svg"><svg class="cas-substance-single-component"><rect y="0" x="0" width="100" stroke="none" ry="7" rx="7" height="60" fill="white" class="cas-substance-group"/><svg y="0" x="20" width="59" viewBox="0 0 59 60" style="fill:black;" height="60" class="cas-substance-single-component-image"><svg><g><g transform="translate(29,30)" style="text-rendering:geometricPrecision; color-rendering:optimizeQuality; color-interpolation:linearRGB; stroke-linecap:butt; image-rendering:optimizeQuality;"><line y2="-21.2113" y1="-12.6002" x2="-23.748" x1="-8.8336" style="fill:none;"/><line y2="-21.2113" y1="-12.6002" x2="23.748" x1="8.8336" style="fill:none;"/><line y2="16.0938" y1="-0.9733" x2="0" x1="0" style="fill:none;"/><path style="stroke-linecap:square; stroke:none;" d="M-0.3984 -3.0625 L-1.5391 -3.0625 L-6.2266 -10.25 L-6.2734 -10.25 Q-6.1797 -8.9844 -6.1797 -7.9375 L-6.1797 -3.0625 L-7.1016 -3.0625 L-7.1016 -11.625 L-5.9766 -11.625 L-1.3047 -4.4688 L-1.2578 -4.4688 Q-1.2578 -4.625 -1.3047 -5.4844 Q-1.3516 -6.3438 -1.3359 -6.7188 L-1.3359 -11.625 L-0.3984 -11.625 L-0.3984 -3.0625 ZM6.1797 -3.9219 L6.1172 -3.9219 Q5.4453 -2.9375 4.1016 -2.9375 Q2.8516 -2.9375 2.1484 -3.8047 Q1.4453 -4.6719 1.4453 -6.25 Q1.4453 -7.8438 2.1484 -8.7266 Q2.8516 -9.6094 4.1016 -9.6094 Q5.4141 -9.6094 6.1172 -8.6562 L6.1953 -8.6562 L6.1484 -9.1094 L6.1172 -9.5625 L6.1172 -12.1875 L7.1016 -12.1875 L7.1016 -3.0625 L6.3047 -3.0625 L6.1797 -3.9219 ZM4.2266 -3.7656 Q5.2266 -3.7656 5.6719 -4.3047 Q6.1172 -4.8438 6.1172 -6.0469 L6.1172 -6.25 Q6.1172 -7.625 5.6641 -8.2031 Q5.2109 -8.7812 4.2266 -8.7812 Q3.3672 -8.7812 2.9141 -8.1172 Q2.4609 -7.4531 2.4609 -6.25 Q2.4609 -5.0156 2.9062 -4.3906 Q3.3516 -3.7656 4.2266 -3.7656 Z"/></g><g transform="translate(29,30)" style="fill:rgb(0,138,0); text-rendering:geometricPrecision; color-rendering:optimizeQuality; image-rendering:optimizeQuality; font-family:'Open Sans'; stroke:rgb(0,138,0); color-interpolation:linearRGB;"><path style="stroke:none;" d="M-26.48 -18.3438 L-26.48 -26.9062 L-25.48 -26.9062 L-25.48 -18.3438 L-26.48 -18.3438 Z"/><path style="stroke:none;" d="M25.48 -18.3438 L25.48 -26.9062 L26.48 -26.9062 L26.48 -18.3438 L25.48 -18.3438 Z"/><path style="stroke:none;" d="M-0.5 26.6562 L-0.5 18.0938 L0.5 18.0938 L0.5 26.6562 L-0.5 26.6562 Z"/></g></g></svg></svg></svg></svg>