<svg width="203" viewBox="0 0 203 171" style="fill-opacity:1; color-rendering:auto; color-interpolation:auto; text-rendering:auto; stroke:black; stroke-linecap:square; stroke-miterlimit:10; shape-rendering:auto; stroke-opacity:1; fill:black; stroke-dasharray:none; font-weight:normal; stroke-width:1; font-family:'Open Sans'; font-style:normal; stroke-linejoin:miter; font-size:12; stroke-dashoffset:0; image-rendering:auto;" height="171" class="cas-substance-image" xmlns:xlink="http://www.w3.org/1999/xlink" xmlns="http://www.w3.org/2000/svg"><svg class="cas-substance-single-component"><rect y="0" x="0" width="203" stroke="none" ry="7" rx="7" height="171" fill="white" class="cas-substance-group"/><svg y="0" x="0" width="203" viewBox="0 0 203 171" style="fill:black;" height="171" class="cas-substance-single-component-image"><svg><g><g transform="translate(100,85)" style="text-rendering:geometricPrecision; color-rendering:optimizeQuality; color-interpolation:linearRGB; stroke-linecap:butt; image-rendering:optimizeQuality;"><line y2="25.98" y1="5.8883" x2="-67.5" x1="-55.8997" style="fill:none;"/><line y2="-25.98" y1="-6.1383" x2="-67.5" x1="-56.044" style="fill:none;"/><line y2="0" y1="0" x2="-22.5" x1="-47.1484" style="fill:none;"/><line y2="25.98" y1="25.98" x2="-97.5" x1="-67.5" style="fill:none;"/><line y2="-25.98" y1="-25.98" x2="-97.5" x1="-67.5" style="fill:none;"/><line y2="-71.42" y1="-57.2263" x2="-9.2454" x1="-17.4404" style="fill:none;"/><line y2="-73.1701" y1="-58.9763" x2="-12.2765" x1="-20.4715" style="fill:none;"/><line y2="-53.713" y1="-53.713" x2="-46.5625" x1="-27.8516" style="fill:none;"/><line y2="-50.213" y1="-50.213" x2="-46.5625" x1="-27.8516" style="fill:none;"/><line y2="-25.98" y1="-46.0747" x2="-7.5" x1="-19.1007" style="fill:none;"/><line y2="73.0904" y1="58.7263" x2="-12.3225" x1="-20.6158" style="fill:none;"/><line y2="71.3404" y1="56.9763" x2="-9.2914" x1="-17.5848" style="fill:none;"/><line y2="50.213" y1="50.213" x2="-46.5625" x1="-27.8516" style="fill:none;"/><line y2="53.713" y1="53.713" x2="-46.5625" x1="-27.8516" style="fill:none;"/><line y2="25.98" y1="45.8247" x2="-7.5" x1="-18.9563" style="fill:none;"/><line y2="-25.98" y1="-46.0747" x2="22.5" x1="34.1007" style="fill:none;"/><line y2="-25.2773" y1="0" x2="67.5" x1="67.5" style="fill:none;"/><line y2="0" y1="0" x2="93.1094" x1="67.5" style="fill:none;"/><line y2="23.5938" y1="0" x2="67.5" x1="67.5" style="fill:none;"/><line y2="0" y1="0" x2="37.5" x1="67.5" style="fill:none;"/><line y2="-25.98" y1="0" x2="-7.5" x1="-22.5" style="fill:none;"/><line y2="-22.48" y1="0.0001" x2="-5.4793" x1="-18.4585" style="fill:none;"/><line y2="25.98" y1="0" x2="-7.5" x1="-22.5" style="fill:none;"/><line y2="-25.98" y1="-25.98" x2="22.5" x1="-7.5" style="fill:none;"/><line y2="25.98" y1="25.98" x2="22.5" x1="-7.5" style="fill:none;"/><line y2="22.48" y1="22.48" x2="20.4793" x1="-5.4793" style="fill:none;"/><line y2="0" y1="-25.98" x2="37.5" x1="22.5" style="fill:none;"/><line y2="0.0001" y1="-22.48" x2="33.4585" x1="20.4793" style="fill:none;"/><line y2="0" y1="25.98" x2="37.5" x1="22.5" style="fill:none;"/></g><g transform="translate(100,85)" style="fill:rgb(0,5,255); text-rendering:geometricPrecision; color-rendering:optimizeQuality; image-rendering:optimizeQuality; font-family:'Open Sans'; stroke:rgb(0,5,255); color-interpolation:linearRGB;"><path style="stroke:none;" d="M-49.1484 4.1562 L-50.2891 4.1562 L-54.9766 -3.0312 L-55.0234 -3.0312 Q-54.9297 -1.7656 -54.9297 -0.7188 L-54.9297 4.1562 L-55.8516 4.1562 L-55.8516 -4.4062 L-54.7266 -4.4062 L-50.0547 2.75 L-50.0078 2.75 Q-50.0078 2.5938 -50.0547 1.7344 Q-50.1016 0.875 -50.0859 0.5 L-50.0859 -4.4062 L-49.1484 -4.4062 L-49.1484 4.1562 Z"/></g><g transform="translate(100,85)" style="stroke-linecap:butt; text-rendering:geometricPrecision; color-rendering:optimizeQuality; image-rendering:optimizeQuality; font-family:'Open Sans'; color-interpolation:linearRGB; stroke-miterlimit:5;"><path style="fill:none;" d="M-67.25 25.547 L-67.5 25.98 L-68 25.98"/><path style="fill:none;" d="M-67.25 -25.547 L-67.5 -25.98 L-68 -25.98"/><path style="fill:rgb(0,5,255); stroke:none;" d="M-19.1484 -47.8068 L-20.2891 -47.8068 L-24.9766 -54.9943 L-25.0234 -54.9943 Q-24.9297 -53.7286 -24.9297 -52.6818 L-24.9297 -47.8068 L-25.8516 -47.8068 L-25.8516 -56.3693 L-24.7266 -56.3693 L-20.0547 -49.213 L-20.0078 -49.213 Q-20.0078 -49.3693 -20.0547 -50.2286 Q-20.1016 -51.088 -20.0859 -51.463 L-20.0859 -56.3693 L-19.1484 -56.3693 L-19.1484 -47.8068 Z"/><path style="fill:rgb(230,0,0); stroke:none;" d="M-3.5625 -78.0133 Q-3.5625 -75.9508 -4.6016 -74.7711 Q-5.6406 -73.5914 -7.4844 -73.5914 Q-9.375 -73.5914 -10.4062 -74.7555 Q-11.4375 -75.9196 -11.4375 -78.0289 Q-11.4375 -80.1227 -10.4062 -81.2711 Q-9.375 -82.4196 -7.4844 -82.4196 Q-5.625 -82.4196 -4.5938 -81.2477 Q-3.5625 -80.0758 -3.5625 -78.0133 ZM-10.3906 -78.0133 Q-10.3906 -76.2789 -9.6484 -75.3727 Q-8.9062 -74.4664 -7.4844 -74.4664 Q-6.0625 -74.4664 -5.3359 -75.3649 Q-4.6094 -76.2633 -4.6094 -78.0133 Q-4.6094 -79.7477 -5.3359 -80.6383 Q-6.0625 -81.5289 -7.4844 -81.5289 Q-8.9062 -81.5289 -9.6484 -80.6305 Q-10.3906 -79.7321 -10.3906 -78.0133 Z"/><path style="fill:rgb(230,0,0); stroke:none;" d="M-48.5625 -52.0333 Q-48.5625 -49.9708 -49.6016 -48.7911 Q-50.6406 -47.6114 -52.4844 -47.6114 Q-54.375 -47.6114 -55.4062 -48.7755 Q-56.4375 -49.9396 -56.4375 -52.0489 Q-56.4375 -54.1427 -55.4062 -55.2911 Q-54.375 -56.4396 -52.4844 -56.4396 Q-50.625 -56.4396 -49.5938 -55.2677 Q-48.5625 -54.0958 -48.5625 -52.0333 ZM-55.3906 -52.0333 Q-55.3906 -50.2989 -54.6484 -49.3927 Q-53.9062 -48.4864 -52.4844 -48.4864 Q-51.0625 -48.4864 -50.3359 -49.3849 Q-49.6094 -50.2833 -49.6094 -52.0333 Q-49.6094 -53.7677 -50.3359 -54.6583 Q-51.0625 -55.5489 -52.4844 -55.5489 Q-53.9062 -55.5489 -54.6484 -54.6505 Q-55.3906 -53.7521 -55.3906 -52.0333 Z"/><path style="fill:rgb(0,5,255); stroke:none;" d="M-19.1484 56.1193 L-20.2891 56.1193 L-24.9766 48.9318 L-25.0234 48.9318 Q-24.9297 50.1974 -24.9297 51.2443 L-24.9297 56.1193 L-25.8516 56.1193 L-25.8516 47.5568 L-24.7266 47.5568 L-20.0547 54.713 L-20.0078 54.713 Q-20.0078 54.5568 -20.0547 53.6974 Q-20.1016 52.838 -20.0859 52.463 L-20.0859 47.5568 L-19.1484 47.5568 L-19.1484 56.1193 Z"/><path style="fill:rgb(230,0,0); stroke:none;" d="M-3.5625 77.8727 Q-3.5625 79.9352 -4.6016 81.1149 Q-5.6406 82.2946 -7.4844 82.2946 Q-9.375 82.2946 -10.4062 81.1305 Q-11.4375 79.9664 -11.4375 77.8571 Q-11.4375 75.7633 -10.4062 74.6149 Q-9.375 73.4664 -7.4844 73.4664 Q-5.625 73.4664 -4.5938 74.6383 Q-3.5625 75.8102 -3.5625 77.8727 ZM-10.3906 77.8727 Q-10.3906 79.6071 -9.6484 80.5133 Q-8.9062 81.4196 -7.4844 81.4196 Q-6.0625 81.4196 -5.3359 80.5211 Q-4.6094 79.6227 -4.6094 77.8727 Q-4.6094 76.1383 -5.3359 75.2477 Q-6.0625 74.3571 -7.4844 74.3571 Q-8.9062 74.3571 -9.6484 75.2555 Q-10.3906 76.1539 -10.3906 77.8727 Z"/><path style="fill:rgb(230,0,0); stroke:none;" d="M-48.5625 51.8927 Q-48.5625 53.9552 -49.6016 55.1349 Q-50.6406 56.3146 -52.4844 56.3146 Q-54.375 56.3146 -55.4062 55.1505 Q-56.4375 53.9864 -56.4375 51.8771 Q-56.4375 49.7833 -55.4062 48.6349 Q-54.375 47.4864 -52.4844 47.4864 Q-50.625 47.4864 -49.5938 48.6583 Q-48.5625 49.8302 -48.5625 51.8927 ZM-55.3906 51.8927 Q-55.3906 53.6271 -54.6484 54.5333 Q-53.9062 55.4396 -52.4844 55.4396 Q-51.0625 55.4396 -50.3359 54.5411 Q-49.6094 53.6427 -49.6094 51.8927 Q-49.6094 50.1583 -50.3359 49.2677 Q-51.0625 48.3771 -52.4844 48.3771 Q-53.9062 48.3771 -54.6484 49.2755 Q-55.3906 50.1739 -55.3906 51.8927 Z"/><path style="fill:rgb(0,5,255); stroke:none;" d="M40.8516 -47.8068 L39.7109 -47.8068 L35.0234 -54.9943 L34.9766 -54.9943 Q35.0703 -53.7286 35.0703 -52.6818 L35.0703 -47.8068 L34.1484 -47.8068 L34.1484 -56.3693 L35.2734 -56.3693 L39.9453 -49.213 L39.9922 -49.213 Q39.9922 -49.3693 39.9453 -50.2286 Q39.8984 -51.088 39.9141 -51.463 L39.9141 -56.3693 L40.8516 -56.3693 L40.8516 -47.8068 Z"/><path style="fill:rgb(0,5,255); stroke:none;" d="M48.3672 -47.8068 L47.3672 -47.8068 L47.3672 -51.838 L42.8516 -51.838 L42.8516 -47.8068 L41.8516 -47.8068 L41.8516 -56.3693 L42.8516 -56.3693 L42.8516 -52.7286 L47.3672 -52.7286 L47.3672 -56.3693 L48.3672 -56.3693 L48.3672 -47.8068 Z"/><path style="fill:rgb(0,5,255); stroke:none;" d="M53.1172 -45.9974 L49.3672 -45.9974 L49.3672 -46.5599 L50.8672 -48.0755 Q51.5547 -48.763 51.7734 -49.0599 Q51.9922 -49.3568 52.1016 -49.638 Q52.2109 -49.9193 52.2109 -50.2474 Q52.2109 -50.7005 51.9375 -50.9661 Q51.6641 -51.2318 51.1641 -51.2318 Q50.8203 -51.2318 50.5 -51.1146 Q50.1797 -50.9974 49.7891 -50.7005 L49.4453 -51.138 Q50.2266 -51.7943 51.1641 -51.7943 Q51.9609 -51.7943 52.4219 -51.3802 Q52.8828 -50.9661 52.8828 -50.2786 Q52.8828 -49.7318 52.5781 -49.2005 Q52.2734 -48.6693 51.4297 -47.8568 L50.1797 -46.638 L50.1797 -46.6068 L53.1172 -46.6068 L53.1172 -45.9974 Z"/><path style="fill:rgb(0,138,0); stroke:none;" d="M66.1094 -25.8438 L65.1094 -25.8438 L65.1094 -34.4062 L69.8906 -34.4062 L69.8906 -33.5312 L66.1094 -33.5312 L66.1094 -30.3906 L69.6562 -30.3906 L69.6562 -29.5 L66.1094 -29.5 L66.1094 -25.8438 Z"/><path style="fill:rgb(0,138,0); stroke:none;" d="M96.1094 4.1562 L95.1094 4.1562 L95.1094 -4.4062 L99.8906 -4.4062 L99.8906 -3.5312 L96.1094 -3.5312 L96.1094 -0.3906 L99.6562 -0.3906 L99.6562 0.5 L96.1094 0.5 L96.1094 4.1562 Z"/><path style="fill:rgb(0,138,0); stroke:none;" d="M66.1094 34.1562 L65.1094 34.1562 L65.1094 25.5938 L69.8906 25.5938 L69.8906 26.4688 L66.1094 26.4688 L66.1094 29.6094 L69.6562 29.6094 L69.6562 30.5 L66.1094 30.5 L66.1094 34.1562 Z"/><path style="fill:none;" d="M-22.25 -0.433 L-22.5 0 L-23 -0"/><path style="fill:none;" d="M-7.75 -25.547 L-7.5 -25.98 L-7.75 -26.413"/><path style="fill:none;" d="M-7 25.98 L-7.5 25.98 L-7.75 26.413"/><path style="fill:none;" d="M22.75 -25.547 L22.5 -25.98 L22.75 -26.413"/><path style="fill:none;" d="M22 25.98 L22.5 25.98 L22.75 25.547"/><path style="fill:none;" d="M37.25 -0.433 L37.5 0 L38 0"/></g></g></svg></svg></svg></svg>