<svg xmlns:ns0="http://www.w3.org/2000/svg" xmlns="http://www.w3.org/2000/svg"><g transform="translate(0, 0)"><ns0:svg width="197" viewBox="0 0 197 89" style="fill-opacity:1; color-rendering:auto; color-interpolation:auto; text-rendering:auto; stroke:black; stroke-linecap:square; stroke-miterlimit:10; shape-rendering:auto; stroke-opacity:1; fill:black; stroke-dasharray:none; font-weight:normal; stroke-width:1; font-family:'Open Sans'; font-style:normal; stroke-linejoin:miter; font-size:12; stroke-dashoffset:0; image-rendering:auto;" height="89" class="cas-substance-image"><ns0:svg class="cas-substance-single-component"><ns0:rect y="0" x="0" width="197" stroke="none" ry="7" rx="7" height="89" fill="white" class="cas-substance-group" /><ns0:svg y="0" x="0" width="197" viewBox="0 0 197 89" style="fill:black;" height="89" class="cas-substance-single-component-image"><ns0:svg><ns0:g><ns0:g transform="translate(99,44)" style="text-rendering:geometricPrecision; color-rendering:optimizeQuality; color-interpolation:linearRGB; stroke-linecap:butt; image-rendering:optimizeQuality;"><ns0:line y2="15" y1="-10.98" x2="-69.51" x1="-54.51" style="fill:none;" /><ns0:line y2="-32.202" y1="-10.98" x2="-64.7408" x1="-52.4893" style="fill:none;" /><ns0:line y2="-30.4521" y1="-9.23" x2="-67.7719" x1="-55.5204" style="fill:none;" /><ns0:line y2="-10.98" y1="-10.98" x2="-24.51" x1="-54.51" style="fill:none;" /><ns0:line y2="0" y1="15" x2="-95.49" x1="-69.51" style="fill:none;" /><ns0:line y2="40.98" y1="15" x2="-84.51" x1="-69.51" style="fill:none;" /><ns0:line y2="26.7586" y1="15" x2="-49.1441" x1="-69.51" style="fill:none;" /><ns0:line y2="19.02" y1="-10.98" x2="65.49" x1="65.49" style="fill:none;" /><ns0:line y2="-10.98" y1="-10.98" x2="95.49" x1="65.49" style="fill:none;" /><ns0:line y2="-40.98" y1="-10.98" x2="65.49" x1="65.49" style="fill:none;" /><ns0:line y2="-10.98" y1="-10.98" x2="35.49" x1="65.49" style="fill:none;" /><ns0:line y2="15" y1="-10.98" x2="-9.51" x1="-24.51" style="fill:none;" /><ns0:line y2="11.5" y1="-10.9801" x2="-7.4893" x1="-20.4685" style="fill:none;" /><ns0:line y2="-36.963" y1="-10.98" x2="-9.51" x1="-24.51" style="fill:none;" /><ns0:line y2="15" y1="15" x2="20.49" x1="-9.51" style="fill:none;" /><ns0:line y2="-36.963" y1="-36.963" x2="20.49" x1="-9.51" style="fill:none;" /><ns0:line y2="-33.463" y1="-33.463" x2="18.4693" x1="-7.4893" style="fill:none;" /><ns0:line y2="-10.98" y1="15" x2="35.49" x1="20.49" style="fill:none;" /><ns0:line y2="-10.9801" y1="11.5" x2="31.4485" x1="18.4693" style="fill:none;" /><ns0:line y2="-10.98" y1="-36.963" x2="35.49" x1="20.49" style="fill:none;" /><ns0:path style="fill:none; stroke-miterlimit:5;" d="M-54.76 -10.547 L-54.51 -10.98 L-54.01 -10.98" /></ns0:g><ns0:g transform="translate(99,44)" style="stroke-linecap:butt; fill:rgb(230,0,0); text-rendering:geometricPrecision; color-rendering:optimizeQuality; image-rendering:optimizeQuality; font-family:'Open Sans'; stroke:rgb(230,0,0); color-interpolation:linearRGB; stroke-miterlimit:5;"><ns0:path style="stroke:none;" d="M-65.5725 -37.0333 Q-65.5725 -34.9708 -66.6116 -33.7911 Q-67.6506 -32.6114 -69.4944 -32.6114 Q-71.385 -32.6114 -72.4162 -33.7755 Q-73.4475 -34.9396 -73.4475 -37.0489 Q-73.4475 -39.1427 -72.4162 -40.2911 Q-71.385 -41.4396 -69.4944 -41.4396 Q-67.635 -41.4396 -66.6037 -40.2677 Q-65.5725 -39.0958 -65.5725 -37.0333 ZM-72.4006 -37.0333 Q-72.4006 -35.2989 -71.6584 -34.3927 Q-70.9162 -33.4864 -69.4944 -33.4864 Q-68.0725 -33.4864 -67.3459 -34.3849 Q-66.6194 -35.2833 -66.6194 -37.0333 Q-66.6194 -38.7677 -67.3459 -39.6583 Q-68.0725 -40.5489 -69.4944 -40.5489 Q-70.9162 -40.5489 -71.6584 -39.6505 Q-72.4006 -38.7521 -72.4006 -37.0333 Z" /><ns0:path style="stroke:none;" d="M-39.5925 29.9297 Q-39.5925 31.9922 -40.6316 33.1719 Q-41.6706 34.3516 -43.5144 34.3516 Q-45.405 34.3516 -46.4362 33.1875 Q-47.4675 32.0234 -47.4675 29.9141 Q-47.4675 27.8203 -46.4362 26.6719 Q-45.405 25.5234 -43.5144 25.5234 Q-41.655 25.5234 -40.6237 26.6953 Q-39.5925 27.8672 -39.5925 29.9297 ZM-46.4206 29.9297 Q-46.4206 31.6641 -45.6784 32.5703 Q-44.9362 33.4766 -43.5144 33.4766 Q-42.0925 33.4766 -41.3659 32.5781 Q-40.6394 31.6797 -40.6394 29.9297 Q-40.6394 28.1953 -41.3659 27.3047 Q-42.0925 26.4141 -43.5144 26.4141 Q-44.9362 26.4141 -45.6784 27.3125 Q-46.4206 28.2109 -46.4206 29.9297 Z" /><ns0:path style="stroke:none;" d="M-32.0769 34.2266 L-33.0769 34.2266 L-33.0769 30.1953 L-37.5925 30.1953 L-37.5925 34.2266 L-38.5925 34.2266 L-38.5925 25.6641 L-37.5925 25.6641 L-37.5925 29.3047 L-33.0769 29.3047 L-33.0769 25.6641 L-32.0769 25.6641 L-32.0769 34.2266 Z" /><ns0:path style="fill:none; stroke:black;" d="M-24.26 -10.547 L-24.51 -10.98 L-25.01 -10.98" /><ns0:path style="fill:none; stroke:black;" d="M-9.76 14.567 L-9.51 15 L-9.01 15" /><ns0:path style="fill:none; stroke:black;" d="M-9.76 -36.53 L-9.51 -36.963 L-9.01 -36.963" /><ns0:path style="fill:none; stroke:black;" d="M19.99 15 L20.49 15 L20.74 14.567" /><ns0:path style="fill:none; stroke:black;" d="M19.99 -36.963 L20.49 -36.963 L20.74 -36.53" /><ns0:path style="fill:none; stroke:black;" d="M35.24 -10.547 L35.49 -10.98 L35.99 -10.98" /></ns0:g></ns0:g></ns0:svg></ns0:svg></ns0:svg></ns0:svg></g></svg>