<svg width="147" viewBox="0 0 147 89" style="fill-opacity:1; color-rendering:auto; color-interpolation:auto; text-rendering:auto; stroke:black; stroke-linecap:square; stroke-miterlimit:10; shape-rendering:auto; stroke-opacity:1; fill:black; stroke-dasharray:none; font-weight:normal; stroke-width:1; font-family:'Open Sans'; font-style:normal; stroke-linejoin:miter; font-size:12; stroke-dashoffset:0; image-rendering:auto;" height="89" class="cas-substance-image" xmlns:xlink="http://www.w3.org/1999/xlink" xmlns="http://www.w3.org/2000/svg"><svg class="cas-substance-single-component"><rect y="0" x="0" width="147" stroke="none" ry="7" rx="7" height="89" fill="white" class="cas-substance-group"/><svg y="0" x="0" width="147" viewBox="0 0 147 89" style="fill:black;" height="89" class="cas-substance-single-component-image"><svg><g><g transform="translate(71,42)" style="text-rendering:geometricPrecision; color-rendering:optimizeQuality; color-interpolation:linearRGB; stroke-linecap:butt; image-rendering:optimizeQuality;"><line y2="-38.97" y1="-18.7176" x2="-67.5" x1="-55.8069" style="fill:none;"/><line y2="-12.99" y1="-12.99" x2="-22.5" x1="-46.5625" style="fill:none;"/><line y2="12.99" y1="33.8575" x2="-7.5" x1="-19.5482" style="fill:none;"/><line y2="-12.99" y1="-12.99" x2="37.5" x1="59.8311" style="fill:none;"/><line y2="12.99" y1="-12.99" x2="-7.5" x1="-22.5" style="fill:none;"/><line y2="9.49" y1="-12.9901" x2="-5.4793" x1="-18.4585" style="fill:none;"/><line y2="-38.97" y1="-12.99" x2="-7.5" x1="-22.5" style="fill:none;"/><line y2="12.99" y1="12.99" x2="17.1484" x1="-7.5" style="fill:none;"/><line y2="-38.97" y1="-38.97" x2="22.5" x1="-7.5" style="fill:none;"/><line y2="-35.47" y1="-35.47" x2="20.4793" x1="-5.4793" style="fill:none;"/><line y2="-12.99" y1="6.8517" x2="37.5" x1="26.044" style="fill:none;"/><line y2="-12.9901" y1="5.1017" x2="33.4585" x1="23.013" style="fill:none;"/><line y2="-12.99" y1="-38.97" x2="37.5" x1="22.5" style="fill:none;"/></g><g transform="translate(71,42)" style="fill:rgb(230,0,0); text-rendering:geometricPrecision; color-rendering:optimizeQuality; image-rendering:optimizeQuality; font-family:'Open Sans'; stroke:rgb(230,0,0); color-interpolation:linearRGB;"><path style="stroke:none;" d="M-48.5625 -13.0603 Q-48.5625 -10.9978 -49.6016 -9.8181 Q-50.6406 -8.6384 -52.4844 -8.6384 Q-54.375 -8.6384 -55.4062 -9.8025 Q-56.4375 -10.9666 -56.4375 -13.0759 Q-56.4375 -15.1697 -55.4062 -16.3181 Q-54.375 -17.4666 -52.4844 -17.4666 Q-50.625 -17.4666 -49.5938 -16.2947 Q-48.5625 -15.1228 -48.5625 -13.0603 ZM-55.3906 -13.0603 Q-55.3906 -11.3259 -54.6484 -10.4197 Q-53.9062 -9.5134 -52.4844 -9.5134 Q-51.0625 -9.5134 -50.3359 -10.4119 Q-49.6094 -11.3103 -49.6094 -13.0603 Q-49.6094 -14.7947 -50.3359 -15.6853 Q-51.0625 -16.5759 -52.4844 -16.5759 Q-53.9062 -16.5759 -54.6484 -15.6775 Q-55.3906 -14.7791 -55.3906 -13.0603 Z"/><path style="fill:rgb(0,138,0); stroke:none;" d="M-28.1689 34.5638 L-25.7471 34.5638 Q-24.0439 34.5638 -23.2783 35.0716 Q-22.5127 35.5794 -22.5127 36.6731 Q-22.5127 37.4388 -22.9346 37.9388 Q-23.3564 38.4388 -24.1846 38.5794 L-24.1846 38.6419 Q-22.2314 38.97 -22.2314 40.6888 Q-22.2314 41.8294 -23.0049 42.4778 Q-23.7783 43.1263 -25.1689 43.1263 L-28.1689 43.1263 L-28.1689 34.5638 ZM-27.1689 38.22 L-25.5283 38.22 Q-24.4658 38.22 -24.0049 37.8919 Q-23.5439 37.5638 -23.5439 36.7825 Q-23.5439 36.0638 -24.0596 35.7434 Q-24.5752 35.4231 -25.7002 35.4231 L-27.1689 35.4231 L-27.1689 38.22 ZM-27.1689 39.0638 L-27.1689 42.2825 L-25.3721 42.2825 Q-24.3408 42.2825 -23.8174 41.8763 Q-23.2939 41.47 -23.2939 40.6106 Q-23.2939 39.8138 -23.833 39.4388 Q-24.3721 39.0638 -25.4658 39.0638 L-27.1689 39.0638 ZM-17.5967 36.5794 Q-17.1748 36.5794 -16.8311 36.6575 L-16.9717 37.5638 Q-17.3623 37.47 -17.6748 37.47 Q-18.4561 37.47 -19.0107 38.1028 Q-19.5654 38.7356 -19.5654 39.6731 L-19.5654 43.1263 L-20.5342 43.1263 L-20.5342 36.7044 L-19.7373 36.7044 L-19.6123 37.8919 L-19.5654 37.8919 Q-19.2217 37.2669 -18.7139 36.9231 Q-18.2061 36.5794 -17.5967 36.5794 Z"/><path style="fill:rgb(0,138,0); stroke:none;" d="M61.8311 -17.3962 L64.2529 -17.3962 Q65.9561 -17.3962 66.7217 -16.8884 Q67.4873 -16.3806 67.4873 -15.2869 Q67.4873 -14.5212 67.0654 -14.0212 Q66.6436 -13.5212 65.8154 -13.3806 L65.8154 -13.3181 Q67.7686 -12.99 67.7686 -11.2712 Q67.7686 -10.1306 66.9951 -9.4822 Q66.2217 -8.8337 64.8311 -8.8337 L61.8311 -8.8337 L61.8311 -17.3962 ZM62.8311 -13.74 L64.4717 -13.74 Q65.5342 -13.74 65.9951 -14.0681 Q66.4561 -14.3962 66.4561 -15.1775 Q66.4561 -15.8962 65.9404 -16.2166 Q65.4248 -16.5369 64.2998 -16.5369 L62.8311 -16.5369 L62.8311 -13.74 ZM62.8311 -12.8962 L62.8311 -9.6775 L64.6279 -9.6775 Q65.6592 -9.6775 66.1826 -10.0837 Q66.7061 -10.49 66.7061 -11.3494 Q66.7061 -12.1462 66.167 -12.5212 Q65.6279 -12.8962 64.5342 -12.8962 L62.8311 -12.8962 ZM72.4033 -15.3806 Q72.8252 -15.3806 73.1689 -15.3025 L73.0283 -14.3962 Q72.6377 -14.49 72.3252 -14.49 Q71.5439 -14.49 70.9893 -13.8572 Q70.4346 -13.2244 70.4346 -12.2869 L70.4346 -8.8337 L69.4658 -8.8337 L69.4658 -15.2556 L70.2627 -15.2556 L70.3877 -14.0681 L70.4346 -14.0681 Q70.7783 -14.6931 71.2861 -15.0369 Q71.7939 -15.3806 72.4033 -15.3806 Z"/></g><g transform="translate(71,42)" style="stroke-linecap:butt; text-rendering:geometricPrecision; color-rendering:optimizeQuality; image-rendering:optimizeQuality; font-family:'Open Sans'; color-interpolation:linearRGB; stroke-miterlimit:5;"><path style="fill:none;" d="M-22.25 -12.557 L-22.5 -12.99 L-23 -12.99"/><path style="fill:none;" d="M-7.75 12.557 L-7.5 12.99 L-7.75 13.423"/><path style="fill:none;" d="M-7.75 -38.537 L-7.5 -38.97 L-7 -38.97"/><path style="fill:rgb(0,5,255); stroke:none;" d="M25.8516 17.1462 L24.7109 17.1462 L20.0234 9.9587 L19.9766 9.9587 Q20.0703 11.2244 20.0703 12.2712 L20.0703 17.1462 L19.1484 17.1462 L19.1484 8.5837 L20.2734 8.5837 L24.9453 15.74 L24.9922 15.74 Q24.9922 15.5837 24.9453 14.7244 Q24.8984 13.865 24.9141 13.49 L24.9141 8.5837 L25.8516 8.5837 L25.8516 17.1462 Z"/><path style="fill:none;" d="M22 -38.97 L22.5 -38.97 L22.75 -38.537"/><path style="fill:none;" d="M37.25 -12.557 L37.5 -12.99 L38 -12.99"/></g></g></svg></svg></svg></svg>