<svg width="427" viewBox="0 0 427 375" style="fill-opacity:1; color-rendering:auto; color-interpolation:auto; text-rendering:auto; stroke:black; stroke-linecap:square; stroke-miterlimit:10; shape-rendering:auto; stroke-opacity:1; fill:black; stroke-dasharray:none; font-weight:normal; stroke-width:1; font-family:'Open Sans'; font-style:normal; stroke-linejoin:miter; font-size:12; stroke-dashoffset:0; image-rendering:auto;" height="375" class="cas-substance-image" xmlns:xlink="http://www.w3.org/1999/xlink" xmlns="http://www.w3.org/2000/svg"><svg class="cas-substance-single-component"><rect y="0" x="0" width="427" stroke="none" ry="7" rx="7" height="375" fill="white" class="cas-substance-group"/><svg y="0" x="0" width="427" viewBox="0 0 427 375" style="fill:black;" height="375" class="cas-substance-single-component-image"><svg><g><g transform="translate(214,185)" style="text-rendering:geometricPrecision; color-rendering:optimizeQuality; color-interpolation:linearRGB; stroke-linecap:butt; image-rendering:optimizeQuality;"><line y2="25.98" y1="46.2352" x2="15" x1="26.6933" style="fill:none;"/><line y2="77.943" y1="57.611" x2="15" x1="26.739" style="fill:none;"/><line y2="0" y1="25.98" x2="30" x1="15" style="fill:none;"/><line y2="24.23" y1="24.23" x2="-9.0625" x1="16.0104" style="fill:none;"/><line y2="27.73" y1="27.73" x2="-9.0625" x1="16.0103" style="fill:none;"/><path style="stroke:none;" d="M32.3242 -0.7357 L31.3242 -0.6343 L31.3242 -0.6343 L31.3242 0.6343 L32.3242 0.7357 L32.3242 -0.7357 ZM35.3242 -1.04 L34.3242 -0.9386 L34.3242 0.9386 L35.3242 1.04 L35.3242 -1.04 ZM38.3242 -1.3443 L37.3242 -1.2429 L37.3242 1.2429 L38.3242 1.3443 L38.3242 -1.3443 ZM41.3242 -1.6486 L40.3242 -1.5471 L40.3242 1.5471 L41.3242 1.6486 L41.3242 -1.6486 ZM44.3242 -1.9529 L43.3242 -1.8514 L43.3242 1.8514 L44.3242 1.9529 L44.3242 -1.9529 ZM47.3242 -2.2571 L46.3242 -2.1557 L46.3242 2.1557 L47.3242 2.2571 L47.3242 -2.2571 ZM50.3242 -2.5614 L49.3242 -2.46 L49.3242 2.46 L50.3242 2.5614 L50.3242 -2.5614 ZM53.3242 -2.8657 L52.3242 -2.7643 L52.3242 2.7643 L53.3242 2.8657 L53.3242 -2.8657 Z"/><line y2="-25.98" y1="0" x2="15" x1="30" style="fill:none;"/><line y2="-25.98" y1="-6.1383" x2="75" x1="63.544" style="fill:none;"/><line y2="-25.98" y1="-25.98" x2="-15" x1="15" style="fill:none;"/><line y2="-25.98" y1="-25.98" x2="99.0625" x1="75" style="fill:none;"/><line y2="-47.202" y1="-25.98" x2="64.7692" x1="77.0207" style="fill:none;"/><line y2="-45.4521" y1="-24.23" x2="61.7381" x1="73.9896" style="fill:none;"/><line y2="-51.963" y1="-25.98" x2="-30" x1="-15" style="fill:none;"/><line y2="-51.963" y1="-31.7019" x2="120" x1="108.3033" style="fill:none;"/><line y2="-51.963" y1="-51.963" x2="-60" x1="-30" style="fill:none;"/><line y2="-51.963" y1="-51.963" x2="150" x1="120" style="fill:none;"/><line y2="-72.0547" y1="-51.963" x2="-71.6003" x1="-60" style="fill:none;"/><line y2="-77.943" y1="-77.943" x2="-105" x1="-80.3516" style="fill:none;"/><line y2="-98.2873" y1="-77.943" x2="-116.7461" x1="-105" style="fill:none;"/><line y2="-58.5597" y1="-79.693" x2="-118.212" x1="-106.0104" style="fill:none;"/><line y2="-56.8097" y1="-77.943" x2="-115.181" x1="-102.9793" style="fill:none;"/><line y2="-103.923" y1="-103.923" x2="-150" x1="-125.9375" style="fill:none;"/><line y2="-129.903" y1="-103.923" x2="-165" x1="-150" style="fill:none;"/><line y2="177.0134" y1="162.6493" x2="-19.8225" x1="-28.1158" style="fill:none;"/><line y2="175.2634" y1="160.8993" x2="-16.7914" x1="-25.0848" style="fill:none;"/><line y2="154.136" y1="154.136" x2="-54.0625" x1="-35.3516" style="fill:none;"/><line y2="157.636" y1="157.636" x2="-54.0625" x1="-35.3516" style="fill:none;"/><line y2="129.903" y1="149.7477" x2="-15" x1="-26.4563" style="fill:none;"/><line y2="77.943" y1="77.943" x2="-15" x1="15" style="fill:none;"/><line y2="81.443" y1="81.443" x2="-12.9793" x1="12.9793" style="fill:none;"/><line y2="103.923" y1="77.943" x2="30" x1="15" style="fill:none;"/><line y2="103.923" y1="77.943" x2="-30" x1="-15" style="fill:none;"/><line y2="129.903" y1="103.923" x2="15" x1="30" style="fill:none;"/><line y2="126.403" y1="103.9229" x2="12.9793" x1="25.9585" style="fill:none;"/><line y2="129.903" y1="103.923" x2="-15" x1="-30" style="fill:none;"/><line y2="126.403" y1="103.9229" x2="-12.9793" x1="-25.9585" style="fill:none;"/><line y2="129.903" y1="129.903" x2="-15" x1="15" style="fill:none;"/><line y2="-77.943" y1="-51.963" x2="165" x1="150" style="fill:none;"/><line y2="-74.443" y1="-51.963" x2="167.0207" x1="154.0415" style="fill:none;"/><line y2="-25.98" y1="-51.963" x2="165" x1="150" style="fill:none;"/><line y2="-77.943" y1="-77.943" x2="195" x1="165" style="fill:none;"/><line y2="-25.98" y1="-25.98" x2="195" x1="165" style="fill:none;"/><line y2="-29.48" y1="-29.48" x2="192.9793" x1="167.0207" style="fill:none;"/><line y2="-51.963" y1="-77.943" x2="210" x1="195" style="fill:none;"/><line y2="-51.963" y1="-74.443" x2="205.9585" x1="192.9793" style="fill:none;"/><line y2="-51.963" y1="-25.98" x2="210" x1="195" style="fill:none;"/><line y2="-129.903" y1="-129.903" x2="-195" x1="-165" style="fill:none;"/><line y2="-133.403" y1="-133.403" x2="-192.9793" x1="-167.0207" style="fill:none;"/><line y2="-155.886" y1="-129.903" x2="-150" x1="-165" style="fill:none;"/><line y2="-155.886" y1="-129.903" x2="-210" x1="-195" style="fill:none;"/><line y2="-181.866" y1="-155.886" x2="-165" x1="-150" style="fill:none;"/><line y2="-178.366" y1="-155.8859" x2="-167.0207" x1="-154.0415" style="fill:none;"/><line y2="-181.866" y1="-155.886" x2="-195" x1="-210" style="fill:none;"/><line y2="-178.366" y1="-155.8859" x2="-192.9793" x1="-205.9585" style="fill:none;"/><line y2="-181.866" y1="-181.866" x2="-195" x1="-165" style="fill:none;"/></g><g transform="translate(214,185)" style="fill:rgb(230,0,0); text-rendering:geometricPrecision; color-rendering:optimizeQuality; image-rendering:optimizeQuality; font-family:'Open Sans'; stroke:rgb(230,0,0); color-interpolation:linearRGB;"><path style="stroke:none;" d="M33.9375 51.8927 Q33.9375 53.9552 32.8984 55.1349 Q31.8594 56.3146 30.0156 56.3146 Q28.125 56.3146 27.0938 55.1505 Q26.0625 53.9864 26.0625 51.8771 Q26.0625 49.7833 27.0938 48.6349 Q28.125 47.4864 30.0156 47.4864 Q31.875 47.4864 32.9062 48.6583 Q33.9375 49.8302 33.9375 51.8927 ZM27.1094 51.8927 Q27.1094 53.6271 27.8516 54.5333 Q28.5938 55.4396 30.0156 55.4396 Q31.4375 55.4396 32.1641 54.5411 Q32.8906 53.6427 32.8906 51.8927 Q32.8906 50.1583 32.1641 49.2677 Q31.4375 48.3771 30.0156 48.3771 Q28.5938 48.3771 27.8516 49.2755 Q27.1094 50.1739 27.1094 51.8927 Z"/></g><g transform="translate(214,185)" style="stroke-linecap:butt; text-rendering:geometricPrecision; color-rendering:optimizeQuality; image-rendering:optimizeQuality; font-family:'Open Sans'; color-interpolation:linearRGB; stroke-miterlimit:5;"><path style="fill:none;" d="M15.25 26.413 L15 25.98 L15.25 25.547"/><path style="fill:none;" d="M29.75 0.433 L30 0 L29.75 -0.433"/></g><g transform="translate(214,185)" style="stroke-linecap:butt; font-size:8.4px; fill:gray; text-rendering:geometricPrecision; image-rendering:optimizeQuality; color-rendering:optimizeQuality; font-family:'Open Sans'; font-style:italic; stroke:gray; color-interpolation:linearRGB; stroke-miterlimit:5;"><path style="stroke:none;" d="M30.8916 -7.4571 Q30.8916 -8.7852 31.3603 -9.9102 Q31.8291 -11.0352 32.8603 -12.1133 L33.4697 -12.1133 Q32.501 -11.0508 32.0166 -9.8789 Q31.5322 -8.7071 31.5322 -7.4727 Q31.5322 -6.1446 31.9697 -5.1289 L31.4541 -5.1289 Q30.8916 -6.1602 30.8916 -7.4571 ZM36.5141 -8.0508 Q36.5141 -7.2227 35.9673 -6.7696 Q35.4204 -6.3164 34.4204 -6.3164 Q34.0141 -6.3164 33.7016 -6.3711 Q33.3891 -6.4258 33.1079 -6.5664 L33.1079 -7.2227 Q33.7329 -6.8946 34.436 -6.8946 Q35.061 -6.8946 35.436 -7.1914 Q35.811 -7.4883 35.811 -8.0039 Q35.811 -8.3164 35.6079 -8.543 Q35.4048 -8.7696 34.8423 -9.0977 Q34.2485 -9.4258 34.022 -9.7539 Q33.7954 -10.0821 33.7954 -10.5352 Q33.7954 -11.2696 34.311 -11.7305 Q34.8266 -12.1914 35.6704 -12.1914 Q36.0454 -12.1914 36.3813 -12.1133 Q36.7173 -12.0352 37.0923 -11.8633 L36.8266 -11.2696 Q36.5766 -11.4258 36.2563 -11.5118 Q35.936 -11.5977 35.6704 -11.5977 Q35.1391 -11.5977 34.8188 -11.3243 Q34.4985 -11.0508 34.4985 -10.5821 Q34.4985 -10.3789 34.5688 -10.2305 Q34.6391 -10.0821 34.7798 -9.9493 Q34.9204 -9.8164 35.3423 -9.5664 Q35.9048 -9.2227 36.1079 -9.0274 Q36.311 -8.8321 36.4126 -8.5977 Q36.5141 -8.3633 36.5141 -8.0508 ZM39.1086 -9.7696 Q39.1086 -8.4414 38.6321 -7.3086 Q38.1555 -6.1758 37.1399 -5.1289 L36.5305 -5.1289 Q38.468 -7.2852 38.468 -9.7696 Q38.468 -11.0977 38.0305 -12.1133 L38.5461 -12.1133 Q39.1086 -11.0508 39.1086 -9.7696 Z"/></g><g transform="translate(214,185)" style="stroke-linecap:butt; fill:rgb(230,0,0); text-rendering:geometricPrecision; color-rendering:optimizeQuality; image-rendering:optimizeQuality; font-family:'Open Sans'; stroke:rgb(230,0,0); color-interpolation:linearRGB; stroke-miterlimit:5;"><path style="stroke:none;" d="M-11.0625 25.9097 Q-11.0625 27.9722 -12.1016 29.1519 Q-13.1406 30.3316 -14.9844 30.3316 Q-16.875 30.3316 -17.9062 29.1675 Q-18.9375 28.0034 -18.9375 25.8941 Q-18.9375 23.8003 -17.9062 22.6519 Q-16.875 21.5034 -14.9844 21.5034 Q-13.125 21.5034 -12.0938 22.6753 Q-11.0625 23.8472 -11.0625 25.9097 ZM-17.8906 25.9097 Q-17.8906 27.6441 -17.1484 28.5503 Q-16.4062 29.4566 -14.9844 29.4566 Q-13.5625 29.4566 -12.8359 28.5581 Q-12.1094 27.6597 -12.1094 25.9097 Q-12.1094 24.1753 -12.8359 23.2847 Q-13.5625 22.3941 -14.9844 22.3941 Q-16.4062 22.3941 -17.1484 23.2925 Q-17.8906 24.1909 -17.8906 25.9097 Z"/><path style="fill:rgb(0,5,255); stroke:none;" d="M63.3516 4.1562 L62.2109 4.1562 L57.5234 -3.0312 L57.4766 -3.0312 Q57.5703 -1.7656 57.5703 -0.7188 L57.5703 4.1562 L56.6484 4.1562 L56.6484 -4.4062 L57.7734 -4.4062 L62.4453 2.75 L62.4922 2.75 Q62.4922 2.5938 62.4453 1.7344 Q62.3984 0.875 62.4141 0.5 L62.4141 -4.4062 L63.3516 -4.4062 L63.3516 4.1562 Z"/><path style="fill:rgb(0,5,255); stroke:none;" d="M63.2578 13.7188 L62.2578 13.7188 L62.2578 9.6875 L57.7422 9.6875 L57.7422 13.7188 L56.7422 13.7188 L56.7422 5.1562 L57.7422 5.1562 L57.7422 8.7969 L62.2578 8.7969 L62.2578 5.1562 L63.2578 5.1562 L63.2578 13.7188 Z"/><path style="fill:none; stroke:black;" d="M15.25 -25.547 L15 -25.98 L14.5 -25.98"/><path style="fill:none; stroke:black;" d="M74.75 -25.547 L75 -25.98 L75.5 -25.98"/><path style="fill:none; stroke:black;" d="M-14.5 -25.98 L-15 -25.98 L-15.25 -26.413"/><path style="stroke:none;" d="M108.9375 -26.0503 Q108.9375 -23.9878 107.8984 -22.8081 Q106.8594 -21.6284 105.0156 -21.6284 Q103.125 -21.6284 102.0938 -22.7925 Q101.0625 -23.9566 101.0625 -26.0659 Q101.0625 -28.1597 102.0938 -29.3081 Q103.125 -30.4566 105.0156 -30.4566 Q106.875 -30.4566 107.9062 -29.2847 Q108.9375 -28.1128 108.9375 -26.0503 ZM102.1094 -26.0503 Q102.1094 -24.3159 102.8516 -23.4097 Q103.5938 -22.5034 105.0156 -22.5034 Q106.4375 -22.5034 107.1641 -23.4019 Q107.8906 -24.3003 107.8906 -26.0503 Q107.8906 -27.7847 107.1641 -28.6753 Q106.4375 -29.5659 105.0156 -29.5659 Q103.5938 -29.5659 102.8516 -28.6675 Q102.1094 -27.7691 102.1094 -26.0503 Z"/><path style="stroke:none;" d="M63.9375 -52.0333 Q63.9375 -49.9708 62.8984 -48.7911 Q61.8594 -47.6114 60.0156 -47.6114 Q58.125 -47.6114 57.0938 -48.7755 Q56.0625 -49.9396 56.0625 -52.0489 Q56.0625 -54.1427 57.0938 -55.2911 Q58.125 -56.4396 60.0156 -56.4396 Q61.875 -56.4396 62.9062 -55.2677 Q63.9375 -54.0958 63.9375 -52.0333 ZM57.1094 -52.0333 Q57.1094 -50.2989 57.8516 -49.3927 Q58.5938 -48.4864 60.0156 -48.4864 Q61.4375 -48.4864 62.1641 -49.3849 Q62.8906 -50.2833 62.8906 -52.0333 Q62.8906 -53.7677 62.1641 -54.6583 Q61.4375 -55.5489 60.0156 -55.5489 Q58.5938 -55.5489 57.8516 -54.6505 Q57.1094 -53.7521 57.1094 -52.0333 Z"/><path style="fill:none; stroke:black;" d="M-29.75 -51.53 L-30 -51.963 L-30.5 -51.963"/><path style="fill:none; stroke:black;" d="M119.75 -51.53 L120 -51.963 L120.5 -51.963"/><path style="fill:none; stroke:black;" d="M-59.5 -51.963 L-60 -51.963 L-60.25 -52.396"/><path style="fill:rgb(0,5,255); stroke:none;" d="M-71.6484 -73.7868 L-72.7891 -73.7868 L-77.4766 -80.9743 L-77.5234 -80.9743 Q-77.4297 -79.7086 -77.4297 -78.6618 L-77.4297 -73.7868 L-78.3516 -73.7868 L-78.3516 -82.3493 L-77.2266 -82.3493 L-72.5547 -75.193 L-72.5078 -75.193 Q-72.5078 -75.3493 -72.5547 -76.2086 Q-72.6016 -77.068 -72.5859 -77.443 L-72.5859 -82.3493 L-71.6484 -82.3493 L-71.6484 -73.7868 Z"/><path style="fill:rgb(0,5,255); stroke:none;" d="M-71.7422 -83.3493 L-72.7422 -83.3493 L-72.7422 -87.3805 L-77.2578 -87.3805 L-77.2578 -83.3493 L-78.2578 -83.3493 L-78.2578 -91.9118 L-77.2578 -91.9118 L-77.2578 -88.2711 L-72.7422 -88.2711 L-72.7422 -91.9118 L-71.7422 -91.9118 L-71.7422 -83.3493 Z"/><path style="fill:none; stroke:black;" d="M-104.5 -77.943 L-105 -77.943 L-105.25 -78.376"/><path style="stroke:none;" d="M-116.0625 -103.9933 Q-116.0625 -101.9308 -117.1016 -100.7511 Q-118.1406 -99.5714 -119.9844 -99.5714 Q-121.875 -99.5714 -122.9062 -100.7355 Q-123.9375 -101.8996 -123.9375 -104.0089 Q-123.9375 -106.1027 -122.9062 -107.2511 Q-121.875 -108.3996 -119.9844 -108.3996 Q-118.125 -108.3996 -117.0938 -107.2277 Q-116.0625 -106.0558 -116.0625 -103.9933 ZM-122.8906 -103.9933 Q-122.8906 -102.2589 -122.1484 -101.3527 Q-121.4062 -100.4464 -119.9844 -100.4464 Q-118.5625 -100.4464 -117.8359 -101.3449 Q-117.1094 -102.2433 -117.1094 -103.9933 Q-117.1094 -105.7277 -117.8359 -106.6183 Q-118.5625 -107.5089 -119.9844 -107.5089 Q-121.4062 -107.5089 -122.1484 -106.6105 Q-122.8906 -105.7121 -122.8906 -103.9933 Z"/><path style="stroke:none;" d="M-116.0625 -52.0333 Q-116.0625 -49.9708 -117.1016 -48.7911 Q-118.1406 -47.6114 -119.9844 -47.6114 Q-121.875 -47.6114 -122.9062 -48.7755 Q-123.9375 -49.9396 -123.9375 -52.0489 Q-123.9375 -54.1427 -122.9062 -55.2911 Q-121.875 -56.4396 -119.9844 -56.4396 Q-118.125 -56.4396 -117.0938 -55.2677 Q-116.0625 -54.0958 -116.0625 -52.0333 ZM-122.8906 -52.0333 Q-122.8906 -50.2989 -122.1484 -49.3927 Q-121.4062 -48.4864 -119.9844 -48.4864 Q-118.5625 -48.4864 -117.8359 -49.3849 Q-117.1094 -50.2833 -117.1094 -52.0333 Q-117.1094 -53.7677 -117.8359 -54.6583 Q-118.5625 -55.5489 -119.9844 -55.5489 Q-121.4062 -55.5489 -122.1484 -54.6505 Q-122.8906 -53.7521 -122.8906 -52.0333 Z"/><path style="fill:none; stroke:black;" d="M-149.5 -103.923 L-150 -103.923 L-150.25 -104.356"/><path style="fill:rgb(0,5,255); stroke:none;" d="M-26.6484 160.0423 L-27.7891 160.0423 L-32.4766 152.8548 L-32.5234 152.8548 Q-32.4297 154.1204 -32.4297 155.1673 L-32.4297 160.0423 L-33.3516 160.0423 L-33.3516 151.4798 L-32.2266 151.4798 L-27.5547 158.636 L-27.5078 158.636 Q-27.5078 158.4798 -27.5547 157.6204 Q-27.6016 156.761 -27.5859 156.386 L-27.5859 151.4798 L-26.6484 151.4798 L-26.6484 160.0423 Z"/><path style="stroke:none;" d="M-11.0625 181.7957 Q-11.0625 183.8582 -12.1016 185.0379 Q-13.1406 186.2176 -14.9844 186.2176 Q-16.875 186.2176 -17.9062 185.0535 Q-18.9375 183.8894 -18.9375 181.7801 Q-18.9375 179.6863 -17.9062 178.5379 Q-16.875 177.3894 -14.9844 177.3894 Q-13.125 177.3894 -12.0938 178.5613 Q-11.0625 179.7332 -11.0625 181.7957 ZM-17.8906 181.7957 Q-17.8906 183.5301 -17.1484 184.4363 Q-16.4062 185.3426 -14.9844 185.3426 Q-13.5625 185.3426 -12.8359 184.4441 Q-12.1094 183.5457 -12.1094 181.7957 Q-12.1094 180.0613 -12.8359 179.1707 Q-13.5625 178.2801 -14.9844 178.2801 Q-16.4062 178.2801 -17.1484 179.1785 Q-17.8906 180.0769 -17.8906 181.7957 Z"/><path style="stroke:none;" d="M-56.0625 155.8157 Q-56.0625 157.8782 -57.1016 159.0579 Q-58.1406 160.2376 -59.9844 160.2376 Q-61.875 160.2376 -62.9062 159.0735 Q-63.9375 157.9094 -63.9375 155.8001 Q-63.9375 153.7063 -62.9062 152.5579 Q-61.875 151.4094 -59.9844 151.4094 Q-58.125 151.4094 -57.0938 152.5813 Q-56.0625 153.7532 -56.0625 155.8157 ZM-62.8906 155.8157 Q-62.8906 157.5501 -62.1484 158.4563 Q-61.4062 159.3626 -59.9844 159.3626 Q-58.5625 159.3626 -57.8359 158.4641 Q-57.1094 157.5657 -57.1094 155.8157 Q-57.1094 154.0813 -57.8359 153.1907 Q-58.5625 152.3001 -59.9844 152.3001 Q-61.4062 152.3001 -62.1484 153.1985 Q-62.8906 154.0969 -62.8906 155.8157 Z"/><path style="fill:none; stroke:black;" d="M14.5 77.943 L15 77.943 L15.25 77.51"/><path style="fill:none; stroke:black;" d="M-14.5 77.943 L-15 77.943 L-15.25 78.376"/><path style="fill:none; stroke:black;" d="M29.75 103.49 L30 103.923 L29.75 104.356"/><path style="fill:none; stroke:black;" d="M-29.75 103.49 L-30 103.923 L-29.75 104.356"/><path style="fill:none; stroke:black;" d="M15.25 129.47 L15 129.903 L14.5 129.903"/><path style="fill:none; stroke:black;" d="M-15.25 129.47 L-15 129.903 L-15.25 130.336"/><path style="fill:none; stroke:black;" d="M150.25 -52.396 L150 -51.963 L149.5 -51.963"/><path style="fill:none; stroke:black;" d="M164.75 -77.51 L165 -77.943 L165.5 -77.943"/><path style="fill:none; stroke:black;" d="M164.75 -26.413 L165 -25.98 L165.5 -25.98"/><path style="fill:none; stroke:black;" d="M194.5 -77.943 L195 -77.943 L195.25 -77.51"/><path style="fill:none; stroke:black;" d="M194.5 -25.98 L195 -25.98 L195.25 -26.413"/><path style="fill:none; stroke:black;" d="M209.75 -52.396 L210 -51.963 L209.75 -51.53"/><path style="fill:none; stroke:black;" d="M-165.5 -129.903 L-165 -129.903 L-164.75 -129.47"/><path style="fill:none; stroke:black;" d="M-194.5 -129.903 L-195 -129.903 L-195.25 -130.336"/><path style="fill:none; stroke:black;" d="M-150.25 -155.453 L-150 -155.886 L-150.25 -156.319"/><path style="fill:none; stroke:black;" d="M-209.75 -155.453 L-210 -155.886 L-209.75 -156.319"/><path style="fill:none; stroke:black;" d="M-164.75 -181.433 L-165 -181.866 L-165.5 -181.866"/><path style="fill:none; stroke:black;" d="M-195.25 -181.433 L-195 -181.866 L-194.5 -181.866"/></g></g></svg></svg></svg></svg>