<svg width="386" viewBox="0 0 386 115" style="fill-opacity:1; color-rendering:auto; color-interpolation:auto; text-rendering:auto; stroke:black; stroke-linecap:square; stroke-miterlimit:10; shape-rendering:auto; stroke-opacity:1; fill:black; stroke-dasharray:none; font-weight:normal; stroke-width:1; font-family:'Open Sans'; font-style:normal; stroke-linejoin:miter; font-size:12; stroke-dashoffset:0; image-rendering:auto;" height="115" class="cas-substance-image" xmlns:xlink="http://www.w3.org/1999/xlink" xmlns="http://www.w3.org/2000/svg"><svg class="cas-substance-single-component"><rect y="0" x="0" width="386" stroke="none" ry="7" rx="7" height="115" fill="white" class="cas-substance-group"/><svg y="0" x="0" width="386" viewBox="0 0 386 115" style="fill:black;" height="115" class="cas-substance-single-component-image"><svg><g><g transform="translate(195,60)" style="text-rendering:geometricPrecision; color-rendering:optimizeQuality; color-interpolation:linearRGB; stroke-linecap:butt; image-rendering:optimizeQuality;"><line y2="-23.1815" y1="-46.6703" x2="-11.9243" x1="-4.2907" style="fill:none;"/><line y2="-22.1001" y1="-45.5885" x2="-8.5956" x1="-0.9621" style="fill:none;"/><line y2="-14.58" y1="-32.214" x2="-38.397" x1="-62.667" style="fill:none;"/><line y2="-12.9363" y1="-28.1947" x2="-42.0891" x1="-63.0895" style="fill:none;"/><line y2="-20.01" y1="-32.214" x2="-90.075" x1="-62.667" style="fill:none;"/><line y2="16.0884" y1="30.7172" x2="-36.3398" x1="-56.4737" style="fill:none;"/><line y2="13.2568" y1="27.8857" x2="-38.397" x1="-58.531" style="fill:none;"/><line y2="20.6724" y1="0.42" x2="139.4601" x1="127.767" style="fill:none;"/><line y2="-19.037" y1="2.17" x2="141.0216" x1="128.7774" style="fill:none;"/><line y2="-20.7871" y1="0.42" x2="137.9905" x1="125.7463" style="fill:none;"/><line y2="0.42" y1="0.42" x2="97.767" x1="127.767" style="fill:none;"/><line y2="26.4" y1="26.4" x2="172.767" x1="148.7045" style="fill:none;"/><line y2="52.383" y1="26.4" x2="187.767" x1="172.767" style="fill:none;"/><line y2="-43.994" y1="-28.0231" x2="-173.2679" x1="-168.0791" style="fill:none;"/><line y2="-42.9126" y1="-26.9417" x2="-176.5966" x1="-171.4079" style="fill:none;"/><line y2="-4.804" y1="-17.1365" x2="-184.7887" x1="-173.6843" style="fill:none;"/><line y2="-2.462" y1="-14.7945" x2="-182.1877" x1="-171.0833" style="fill:none;"/><line y2="-14.937" y1="-20.0459" x2="-138.348" x1="-162.3861" style="fill:none;"/><line y2="-23.85" y1="-5.6043" x2="-9.867" x1="3.3899" style="fill:none;"/><line y2="18.6657" y1="6.1943" x2="-5.4899" x1="3.5716" style="fill:none;"/><line y2="0.42" y1="0.42" x2="37.767" x1="13.1186" style="fill:none;"/><line y2="-14.58" y1="-23.85" x2="-38.397" x1="-9.867" style="fill:none;"/><line y2="15.42" y1="22.983" x2="-38.397" x1="-15.1207" style="fill:none;"/><line y2="15.42" y1="-14.58" x2="-38.397" x1="-38.397" style="fill:none;"/><line y2="26.4" y1="0.42" x2="52.767" x1="37.767" style="fill:none;"/><line y2="22.9" y1="0.4199" x2="54.7877" x1="41.8085" style="fill:none;"/><line y2="-25.56" y1="0.42" x2="52.767" x1="37.767" style="fill:none;"/><line y2="26.4" y1="26.4" x2="82.767" x1="52.767" style="fill:none;"/><line y2="-25.56" y1="-25.56" x2="82.767" x1="52.767" style="fill:none;"/><line y2="-22.06" y1="-22.06" x2="80.7463" x1="54.7877" style="fill:none;"/><line y2="0.42" y1="26.4" x2="97.767" x1="82.767" style="fill:none;"/><line y2="0.4199" y1="22.9" x2="93.7255" x1="80.7463" style="fill:none;"/><line y2="0.42" y1="-25.56" x2="97.767" x1="82.767" style="fill:none;"/><line y2="-31.8314" y1="-20.01" x2="-110.5496" x1="-90.075" style="fill:none;"/><line y2="9.333" y1="-20.01" x2="-96.312" x1="-90.075" style="fill:none;"/><line y2="6.6287" y1="-18.7611" x2="-99.3154" x1="-93.9186" style="fill:none;"/><line y2="-14.937" y1="-30.8017" x2="-138.348" x1="-120.7288" style="fill:none;"/><line y2="12.468" y1="9.333" x2="-126.147" x1="-96.312" style="fill:none;"/><line y2="12.468" y1="-14.937" x2="-126.147" x1="-138.348" style="fill:none;"/><line y2="9.1984" y1="-14.5145" x2="-123.7714" x1="-134.3287" style="fill:none;"/></g><g transform="translate(195,60)" style="fill:rgb(230,0,0); text-rendering:geometricPrecision; color-rendering:optimizeQuality; image-rendering:optimizeQuality; font-family:'Open Sans'; stroke:rgb(230,0,0); color-interpolation:linearRGB;"><path style="stroke:none;" d="M3.3435 -52.4533 Q3.3435 -50.3908 2.3044 -49.2111 Q1.2654 -48.0314 -0.5784 -48.0314 Q-2.469 -48.0314 -3.5002 -49.1955 Q-4.5315 -50.3596 -4.5315 -52.4689 Q-4.5315 -54.5627 -3.5002 -55.7111 Q-2.469 -56.8596 -0.5784 -56.8596 Q1.281 -56.8596 2.3123 -55.6877 Q3.3435 -54.5158 3.3435 -52.4533 ZM-3.4846 -52.4533 Q-3.4846 -50.7189 -2.7424 -49.8127 Q-2.0002 -48.9064 -0.5784 -48.9064 Q0.8435 -48.9064 1.5701 -49.8049 Q2.2966 -50.7033 2.2966 -52.4533 Q2.2966 -54.1877 1.5701 -55.0783 Q0.8435 -55.9689 -0.5784 -55.9689 Q-2.0002 -55.9689 -2.7424 -55.0705 Q-3.4846 -54.1721 -3.4846 -52.4533 Z"/></g><g transform="translate(195,60)" style="stroke-linecap:butt; text-rendering:geometricPrecision; color-rendering:optimizeQuality; image-rendering:optimizeQuality; font-family:'Open Sans'; color-interpolation:linearRGB; stroke-miterlimit:5;"><path style="fill:none;" d="M-62.2625 -31.9201 L-62.667 -32.214 L-63.1238 -32.0106"/><path style="fill:rgb(230,0,0); stroke:none;" d="M-58.7295 32.9837 Q-58.7295 35.0462 -59.7686 36.2259 Q-60.8076 37.4056 -62.6514 37.4056 Q-64.542 37.4056 -65.5733 36.2415 Q-66.6045 35.0774 -66.6045 32.9681 Q-66.6045 30.8743 -65.5733 29.7259 Q-64.542 28.5774 -62.6514 28.5774 Q-60.792 28.5774 -59.7608 29.7493 Q-58.7295 30.9212 -58.7295 32.9837 ZM-65.5576 32.9837 Q-65.5576 34.7181 -64.8154 35.6243 Q-64.0733 36.5306 -62.6514 36.5306 Q-61.2295 36.5306 -60.5029 35.6321 Q-59.7764 34.7337 -59.7764 32.9837 Q-59.7764 31.2493 -60.5029 30.3587 Q-61.2295 29.4681 -62.6514 29.4681 Q-64.0733 29.4681 -64.8154 30.3665 Q-65.5576 31.2649 -65.5576 32.9837 Z"/><path style="fill:none;" d="M128.017 0.853 L127.767 0.42 L127.267 0.42"/><path style="fill:rgb(230,0,0); stroke:none;" d="M146.7045 26.3297 Q146.7045 28.3922 145.6654 29.5719 Q144.6264 30.7516 142.7826 30.7516 Q140.892 30.7516 139.8607 29.5875 Q138.8295 28.4234 138.8295 26.3141 Q138.8295 24.2203 139.8607 23.0719 Q140.892 21.9234 142.7826 21.9234 Q144.642 21.9234 145.6732 23.0953 Q146.7045 24.2672 146.7045 26.3297 ZM139.8764 26.3297 Q139.8764 28.0641 140.6186 28.9703 Q141.3607 29.8766 142.7826 29.8766 Q144.2045 29.8766 144.9311 28.9781 Q145.6576 28.0797 145.6576 26.3297 Q145.6576 24.5953 144.9311 23.7047 Q144.2045 22.8141 142.7826 22.8141 Q141.3607 22.8141 140.6186 23.7125 Q139.8764 24.6109 139.8764 26.3297 Z"/><path style="fill:rgb(230,0,0); stroke:none;" d="M146.7045 -25.6303 Q146.7045 -23.5678 145.6654 -22.3881 Q144.6264 -21.2084 142.7826 -21.2084 Q140.892 -21.2084 139.8607 -22.3725 Q138.8295 -23.5366 138.8295 -25.6459 Q138.8295 -27.7397 139.8607 -28.8881 Q140.892 -30.0366 142.7826 -30.0366 Q144.642 -30.0366 145.6732 -28.8647 Q146.7045 -27.6928 146.7045 -25.6303 ZM139.8764 -25.6303 Q139.8764 -23.8959 140.6186 -22.9897 Q141.3607 -22.0834 142.7826 -22.0834 Q144.2045 -22.0834 144.9311 -22.9819 Q145.6576 -23.8803 145.6576 -25.6303 Q145.6576 -27.3647 144.9311 -28.2553 Q144.2045 -29.1459 142.7826 -29.1459 Q141.3607 -29.1459 140.6186 -28.2475 Q139.8764 -27.3491 139.8764 -25.6303 Z"/><path style="fill:none;" d="M172.267 26.4 L172.767 26.4 L173.017 26.833"/><path style="fill:rgb(0,5,255); stroke:none;" d="M-164.3424 -17.0177 L-165.4831 -17.0177 L-170.1706 -24.2052 L-170.2174 -24.2052 Q-170.1237 -22.9396 -170.1237 -21.8927 L-170.1237 -17.0177 L-171.0456 -17.0177 L-171.0456 -25.5802 L-169.9206 -25.5802 L-165.2487 -18.424 L-165.2018 -18.424 Q-165.2018 -18.5802 -165.2487 -19.4396 Q-165.2956 -20.299 -165.2799 -20.674 L-165.2799 -25.5802 L-164.3424 -25.5802 L-164.3424 -17.0177 Z"/><path style="fill:rgb(230,0,0); stroke:none;" d="M-173.0265 -49.7773 Q-173.0265 -47.7148 -174.0656 -46.5351 Q-175.1046 -45.3554 -176.9484 -45.3554 Q-178.839 -45.3554 -179.8702 -46.5195 Q-180.9015 -47.6836 -180.9015 -49.7929 Q-180.9015 -51.8867 -179.8702 -53.0351 Q-178.839 -54.1836 -176.9484 -54.1836 Q-175.089 -54.1836 -174.0577 -53.0117 Q-173.0265 -51.8398 -173.0265 -49.7773 ZM-179.8546 -49.7773 Q-179.8546 -48.0429 -179.1124 -47.1367 Q-178.3702 -46.2304 -176.9484 -46.2304 Q-175.5265 -46.2304 -174.7999 -47.1289 Q-174.0734 -48.0273 -174.0734 -49.7773 Q-174.0734 -51.5117 -174.7999 -52.4023 Q-175.5265 -53.2929 -176.9484 -53.2929 Q-178.3702 -53.2929 -179.1124 -52.3945 Q-179.8546 -51.4961 -179.8546 -49.7773 Z"/><path style="fill:rgb(230,0,0); stroke:none;" d="M-183.8295 1.0487 Q-183.8295 3.1112 -184.8686 4.2909 Q-185.9076 5.4706 -187.7514 5.4706 Q-189.642 5.4706 -190.6732 4.3065 Q-191.7045 3.1424 -191.7045 1.0331 Q-191.7045 -1.0607 -190.6732 -2.2091 Q-189.642 -3.3576 -187.7514 -3.3576 Q-185.892 -3.3576 -184.8607 -2.1857 Q-183.8295 -1.0138 -183.8295 1.0487 ZM-190.6576 1.0487 Q-190.6576 2.7831 -189.9154 3.6893 Q-189.1732 4.5956 -187.7514 4.5956 Q-186.3295 4.5956 -185.6029 3.6971 Q-184.8764 2.7987 -184.8764 1.0487 Q-184.8764 -0.6857 -185.6029 -1.5763 Q-186.3295 -2.4669 -187.7514 -2.4669 Q-189.1732 -2.4669 -189.9154 -1.5685 Q-190.6576 -0.6701 -190.6576 1.0487 Z"/><path style="fill:rgb(0,5,255); stroke:none;" d="M11.1186 4.5763 L9.9779 4.5763 L5.2904 -2.6112 L5.2436 -2.6112 Q5.3373 -1.3456 5.3373 -0.2987 L5.3373 4.5763 L4.4154 4.5763 L4.4154 -3.9862 L5.5404 -3.9862 L10.2123 3.17 L10.2592 3.17 Q10.2592 3.0138 10.2123 2.1544 Q10.1654 1.295 10.1811 0.92 L10.1811 -3.9862 L11.1186 -3.9862 L11.1186 4.5763 Z"/><path style="fill:none;" d="M-9.5731 -23.4455 L-9.867 -23.85 L-10.3425 -23.6955"/><path style="fill:rgb(0,5,255); stroke:none;" d="M-6.5154 28.8463 L-7.6561 28.8463 L-12.3436 21.6588 L-12.3904 21.6588 Q-12.2967 22.9244 -12.2967 23.9713 L-12.2967 28.8463 L-13.2186 28.8463 L-13.2186 20.2838 L-12.0936 20.2838 L-7.4217 27.44 L-7.3748 27.44 Q-7.3748 27.2838 -7.4217 26.4244 Q-7.4686 25.565 -7.4529 25.19 L-7.4529 20.2838 L-6.5154 20.2838 L-6.5154 28.8463 Z"/><path style="fill:rgb(0,5,255); stroke:none;" d="M-6.6092 38.4088 L-7.6092 38.4088 L-7.6092 34.3775 L-12.1248 34.3775 L-12.1248 38.4088 L-13.1248 38.4088 L-13.1248 29.8463 L-12.1248 29.8463 L-12.1248 33.4869 L-7.6092 33.4869 L-7.6092 29.8463 L-6.6092 29.8463 L-6.6092 38.4088 Z"/><path style="fill:none;" d="M-38.8015 -14.8739 L-38.397 -14.58 L-37.9215 -14.7345"/><path style="fill:none;" d="M-37.9215 15.5745 L-38.397 15.42 L-38.397 14.92"/><path style="fill:none;" d="M38.017 0.853 L37.767 0.42 L37.267 0.42"/><path style="fill:none;" d="M52.517 25.967 L52.767 26.4 L53.267 26.4"/><path style="fill:none;" d="M52.517 -25.127 L52.767 -25.56 L53.267 -25.56"/><path style="fill:none;" d="M82.267 26.4 L82.767 26.4 L83.017 25.967"/><path style="fill:none;" d="M82.267 -25.56 L82.767 -25.56 L83.017 -25.127"/><path style="fill:none;" d="M97.517 0.853 L97.767 0.42 L98.267 0.42"/><path style="fill:none;" d="M-90.179 -19.5209 L-90.075 -20.01 L-89.6182 -20.2134"/><path style="fill:rgb(230,0,0); stroke:none;" d="M-112.1175 -35.0803 Q-112.1175 -33.0178 -113.1566 -31.8381 Q-114.1956 -30.6584 -116.0394 -30.6584 Q-117.93 -30.6584 -118.9613 -31.8225 Q-119.9925 -32.9866 -119.9925 -35.0959 Q-119.9925 -37.1897 -118.9613 -38.3381 Q-117.93 -39.4866 -116.0394 -39.4866 Q-114.18 -39.4866 -113.1488 -38.3147 Q-112.1175 -37.1428 -112.1175 -35.0803 ZM-118.9456 -35.0803 Q-118.9456 -33.3459 -118.2034 -32.4397 Q-117.4613 -31.5334 -116.0394 -31.5334 Q-114.6175 -31.5334 -113.8909 -32.4319 Q-113.1644 -33.3303 -113.1644 -35.0803 Q-113.1644 -36.8147 -113.8909 -37.7053 Q-114.6175 -38.5959 -116.0394 -38.5959 Q-117.4613 -38.5959 -118.2034 -37.6975 Q-118.9456 -36.7991 -118.9456 -35.0803 Z"/><path style="fill:none;" d="M-96.208 8.8439 L-96.312 9.333 L-96.8093 9.3853"/><path style="fill:none;" d="M-138.1446 -14.4802 L-138.348 -14.937 L-138.8371 -15.0409"/><path style="fill:none;" d="M-125.6497 12.4157 L-126.147 12.468 L-126.3504 12.0112"/></g></g></svg></svg></svg></svg>