<svg width="225" viewBox="0 0 225 93" style="fill-opacity:1; color-rendering:auto; color-interpolation:auto; text-rendering:auto; stroke:black; stroke-linecap:square; stroke-miterlimit:10; shape-rendering:auto; stroke-opacity:1; fill:black; stroke-dasharray:none; font-weight:normal; stroke-width:1; font-family:'Open Sans'; font-style:normal; stroke-linejoin:miter; font-size:12; stroke-dashoffset:0; image-rendering:auto;" height="93" class="cas-substance-image" xmlns:xlink="http://www.w3.org/1999/xlink" xmlns="http://www.w3.org/2000/svg"><svg class="cas-substance-single-component"><rect y="0" x="0" width="225" stroke="none" ry="7" rx="7" height="93" fill="white" class="cas-substance-group"/><svg y="0" x="0" width="225" viewBox="0 0 225 93" style="fill:black;" height="93" class="cas-substance-single-component-image"><svg><g><g transform="translate(112,46)" style="text-rendering:geometricPrecision; color-rendering:optimizeQuality; color-interpolation:linearRGB; stroke-linecap:butt; image-rendering:optimizeQuality;"><line y2="12.99" y1="-12.99" x2="30" x1="15" style="fill:none;"/><line y2="-32.447" y1="-11.24" x2="28.2546" x1="16.0104" style="fill:none;"/><line y2="-34.1971" y1="-12.99" x2="25.2235" x1="12.9793" style="fill:none;"/><line y2="-12.99" y1="-12.99" x2="-15" x1="15" style="fill:none;"/><line y2="12.99" y1="12.99" x2="60" x1="30" style="fill:none;"/><line y2="38.97" y1="12.99" x2="75" x1="60" style="fill:none;"/><line y2="38.97" y1="38.97" x2="98.582" x1="75" style="fill:none;"/><line y2="-12.99" y1="-12.99" x2="-75" x1="-98.582" style="fill:none;"/><line y2="-38.97" y1="-12.99" x2="-30" x1="-15" style="fill:none;"/><line y2="-35.47" y1="-12.9899" x2="-32.0207" x1="-19.0415" style="fill:none;"/><line y2="12.99" y1="-12.99" x2="-30" x1="-15" style="fill:none;"/><line y2="-38.97" y1="-38.97" x2="-60" x1="-30" style="fill:none;"/><line y2="12.99" y1="12.99" x2="-60" x1="-30" style="fill:none;"/><line y2="9.49" y1="9.49" x2="-57.9793" x1="-32.0207" style="fill:none;"/><line y2="-12.99" y1="-38.97" x2="-75" x1="-60" style="fill:none;"/><line y2="-12.9899" y1="-35.47" x2="-70.9585" x1="-57.9793" style="fill:none;"/><line y2="-12.99" y1="12.99" x2="-75" x1="-60" style="fill:none;"/><path style="fill:none; stroke-miterlimit:5;" d="M15.25 -12.557 L15 -12.99 L14.5 -12.99"/><path style="fill:none; stroke-miterlimit:5;" d="M29.75 12.557 L30 12.99 L30.5 12.99"/></g><g transform="translate(112,46)" style="stroke-linecap:butt; fill:rgb(230,0,0); text-rendering:geometricPrecision; color-rendering:optimizeQuality; image-rendering:optimizeQuality; font-family:'Open Sans'; stroke:rgb(230,0,0); color-interpolation:linearRGB; stroke-miterlimit:5;"><path style="stroke:none;" d="M33.9375 -39.0403 Q33.9375 -36.9778 32.8984 -35.7981 Q31.8594 -34.6184 30.0156 -34.6184 Q28.125 -34.6184 27.0938 -35.7825 Q26.0625 -36.9466 26.0625 -39.0559 Q26.0625 -41.1497 27.0938 -42.2981 Q28.125 -43.4466 30.0156 -43.4466 Q31.875 -43.4466 32.9062 -42.2747 Q33.9375 -41.1028 33.9375 -39.0403 ZM27.1094 -39.0403 Q27.1094 -37.3059 27.8516 -36.3997 Q28.5938 -35.4934 30.0156 -35.4934 Q31.4375 -35.4934 32.1641 -36.3919 Q32.8906 -37.2903 32.8906 -39.0403 Q32.8906 -40.7747 32.1641 -41.6653 Q31.4375 -42.5559 30.0156 -42.5559 Q28.5938 -42.5559 27.8516 -41.6575 Q27.1094 -40.7591 27.1094 -39.0403 Z"/><path style="fill:none; stroke:black;" d="M59.5 12.99 L60 12.99 L60.25 13.423"/><path style="fill:none; stroke:black;" d="M74.75 38.537 L75 38.97 L75.5 38.97"/><path style="fill:rgb(0,138,0); stroke:none;" d="M104.6914 35.6106 Q103.2852 35.6106 102.4648 36.5481 Q101.6445 37.4856 101.6445 39.1263 Q101.6445 40.7981 102.4336 41.72 Q103.2227 42.6419 104.6758 42.6419 Q105.582 42.6419 106.7227 42.3138 L106.7227 43.1888 Q105.832 43.5325 104.5352 43.5325 Q102.6445 43.5325 101.6133 42.3763 Q100.582 41.22 100.582 39.1106 Q100.582 37.7825 101.0742 36.7903 Q101.5664 35.7981 102.5039 35.2591 Q103.4414 34.72 104.707 34.72 Q106.0508 34.72 107.0664 35.2044 L106.6445 36.0638 Q105.6602 35.6106 104.6914 35.6106 ZM109.418 43.4075 L108.4492 43.4075 L108.4492 34.2825 L109.418 34.2825 L109.418 43.4075 Z"/><path style="fill:rgb(0,138,0); stroke:none;" d="M-105.3086 -16.3494 Q-106.7148 -16.3494 -107.5352 -15.4119 Q-108.3555 -14.4744 -108.3555 -12.8337 Q-108.3555 -11.1619 -107.5664 -10.24 Q-106.7773 -9.3181 -105.3242 -9.3181 Q-104.418 -9.3181 -103.2773 -9.6462 L-103.2773 -8.7712 Q-104.168 -8.4275 -105.4648 -8.4275 Q-107.3555 -8.4275 -108.3867 -9.5837 Q-109.418 -10.74 -109.418 -12.8494 Q-109.418 -14.1775 -108.9258 -15.1697 Q-108.4336 -16.1619 -107.4961 -16.7009 Q-106.5586 -17.24 -105.293 -17.24 Q-103.9492 -17.24 -102.9336 -16.7556 L-103.3555 -15.8962 Q-104.3398 -16.3494 -105.3086 -16.3494 ZM-100.582 -8.5525 L-101.5508 -8.5525 L-101.5508 -17.6775 L-100.582 -17.6775 L-100.582 -8.5525 Z"/><path style="fill:none; stroke:black;" d="M-15.25 -13.423 L-15 -12.99 L-14.5 -12.99"/><path style="fill:none; stroke:black;" d="M-29.75 -38.537 L-30 -38.97 L-30.5 -38.97"/><path style="fill:none; stroke:black;" d="M-29.75 12.557 L-30 12.99 L-30.5 12.99"/><path style="fill:none; stroke:black;" d="M-59.5 -38.97 L-60 -38.97 L-60.25 -38.537"/><path style="fill:none; stroke:black;" d="M-59.5 12.99 L-60 12.99 L-60.25 12.557"/><path style="fill:none; stroke:black;" d="M-74.75 -13.423 L-75 -12.99 L-75.5 -12.99"/></g></g></svg></svg></svg></svg>