<svg width="188" viewBox="0 0 188 97" style="fill-opacity:1; color-rendering:auto; color-interpolation:auto; text-rendering:auto; stroke:black; stroke-linecap:square; stroke-miterlimit:10; shape-rendering:auto; stroke-opacity:1; fill:black; stroke-dasharray:none; font-weight:normal; stroke-width:1; font-family:'Open Sans'; font-style:normal; stroke-linejoin:miter; font-size:12; stroke-dashoffset:0; image-rendering:auto;" height="97" class="cas-substance-image" xmlns:xlink="http://www.w3.org/1999/xlink" xmlns="http://www.w3.org/2000/svg"><svg class="cas-substance-single-component"><rect y="0" x="0" width="188" stroke="none" ry="7" rx="7" height="97" fill="white" class="cas-substance-group"/><svg y="0" x="0" width="188" viewBox="0 0 188 97" style="fill:black;" height="97" class="cas-substance-single-component-image"><svg><g><g transform="translate(94,49)" style="text-rendering:geometricPrecision; color-rendering:optimizeQuality; color-interpolation:linearRGB; stroke-linecap:butt; image-rendering:optimizeQuality;"><line y2="0" y1="12.0652" x2="-64.953" x1="-44.0536" style="fill:none;"/><line y2="0" y1="12.0649" x2="-12.99" x1="-33.8864" style="fill:none;"/><line y2="15" y1="0" x2="-90.933" x1="-64.953" style="fill:none;"/><line y2="-23.6484" y1="1.0103" x2="-63.203" x1="-63.203" style="fill:none;"/><line y2="-23.6484" y1="1.0104" x2="-66.703" x1="-66.703" style="fill:none;"/><line y2="15" y1="45" x2="12.99" x1="12.99" style="fill:none;"/><line y2="0" y1="11.774" x2="90.933" x1="70.5405" style="fill:none;"/><line y2="0" y1="11.7588" x2="38.97" x1="59.3387" style="fill:none;"/><line y2="15" y1="0" x2="12.99" x1="-12.99" style="fill:none;"/><line y2="10.9585" y1="-2.0207" x2="12.9901" x1="-9.49" style="fill:none;"/><line y2="-30" y1="0" x2="-12.99" x1="-12.99" style="fill:none;"/><line y2="0" y1="15" x2="38.97" x1="12.99" style="fill:none;"/><line y2="-45" y1="-30" x2="12.99" x1="-12.99" style="fill:none;"/><line y2="-40.9585" y1="-27.9793" x2="12.9901" x1="-9.49" style="fill:none;"/><line y2="-30" y1="0" x2="38.97" x1="38.97" style="fill:none;"/><line y2="-27.9793" y1="-2.0207" x2="35.47" x1="35.47" style="fill:none;"/><line y2="-30" y1="-45" x2="38.97" x1="12.99" style="fill:none;"/></g><g transform="translate(94,49)" style="fill:rgb(0,5,255); text-rendering:geometricPrecision; color-rendering:optimizeQuality; image-rendering:optimizeQuality; font-family:'Open Sans'; stroke:rgb(0,5,255); color-interpolation:linearRGB;"><path style="stroke:none;" d="M-35.6184 19.1562 L-36.7591 19.1562 L-41.4466 11.9688 L-41.4934 11.9688 Q-41.3997 13.2344 -41.3997 14.2812 L-41.3997 19.1562 L-42.3216 19.1562 L-42.3216 10.5938 L-41.1966 10.5938 L-36.5247 17.75 L-36.4778 17.75 Q-36.4778 17.5938 -36.5247 16.7344 Q-36.5716 15.875 -36.5559 15.5 L-36.5559 10.5938 L-35.6184 10.5938 L-35.6184 19.1562 Z"/><path style="stroke:none;" d="M-35.7122 28.7188 L-36.7122 28.7188 L-36.7122 24.6875 L-41.2278 24.6875 L-41.2278 28.7188 L-42.2278 28.7188 L-42.2278 20.1562 L-41.2278 20.1562 L-41.2278 23.7969 L-36.7122 23.7969 L-36.7122 20.1562 L-35.7122 20.1562 L-35.7122 28.7188 Z"/></g><g transform="translate(94,49)" style="stroke-linecap:butt; text-rendering:geometricPrecision; color-rendering:optimizeQuality; image-rendering:optimizeQuality; font-family:'Open Sans'; color-interpolation:linearRGB; stroke-miterlimit:5;"><path style="fill:none;" d="M-64.52 0.25 L-64.953 0 L-65.386 0.25"/><path style="fill:rgb(230,0,0); stroke:none;" d="M-61.0155 -30.0703 Q-61.0155 -28.0078 -62.0546 -26.8281 Q-63.0936 -25.6484 -64.9374 -25.6484 Q-66.828 -25.6484 -67.8593 -26.8125 Q-68.8905 -27.9766 -68.8905 -30.0859 Q-68.8905 -32.1797 -67.8593 -33.3281 Q-66.828 -34.4766 -64.9374 -34.4766 Q-63.078 -34.4766 -62.0468 -33.3047 Q-61.0155 -32.1328 -61.0155 -30.0703 ZM-67.8436 -30.0703 Q-67.8436 -28.3359 -67.1014 -27.4297 Q-66.3593 -26.5234 -64.9374 -26.5234 Q-63.5155 -26.5234 -62.7889 -27.4219 Q-62.0624 -28.3203 -62.0624 -30.0703 Q-62.0624 -31.8047 -62.7889 -32.6953 Q-63.5155 -33.5859 -64.9374 -33.5859 Q-66.3593 -33.5859 -67.1014 -32.6875 Q-67.8436 -31.7891 -67.8436 -30.0703 Z"/><path style="fill:rgb(230,0,0); stroke:none;" d="M68.8905 14.9297 Q68.8905 16.9922 67.8514 18.1719 Q66.8124 19.3516 64.9686 19.3516 Q63.078 19.3516 62.0468 18.1875 Q61.0155 17.0234 61.0155 14.9141 Q61.0155 12.8203 62.0468 11.6719 Q63.078 10.5234 64.9686 10.5234 Q66.828 10.5234 67.8593 11.6953 Q68.8905 12.8672 68.8905 14.9297 ZM62.0624 14.9297 Q62.0624 16.6641 62.8046 17.5703 Q63.5468 18.4766 64.9686 18.4766 Q66.3905 18.4766 67.1171 17.5781 Q67.8436 16.6797 67.8436 14.9297 Q67.8436 13.1953 67.1171 12.3047 Q66.3905 11.4141 64.9686 11.4141 Q63.5468 11.4141 62.8046 12.3125 Q62.0624 13.2109 62.0624 14.9297 Z"/><path style="fill:none;" d="M-12.557 0.25 L-12.99 0 L-13.423 0.25"/><path style="fill:none;" d="M12.557 14.75 L12.99 15 L13.423 14.75"/><path style="fill:none;" d="M-12.99 -29.5 L-12.99 -30 L-12.557 -30.25"/><path style="fill:none;" d="M38.97 -0.5 L38.97 0 L39.403 0.25"/><path style="fill:none;" d="M12.557 -44.75 L12.99 -45 L13.423 -44.75"/><path style="fill:none;" d="M38.97 -29.5 L38.97 -30 L38.537 -30.25"/></g></g></svg></svg></svg></svg>