<svg width="114" viewBox="0 0 114 75" style="fill-opacity:1; color-rendering:auto; color-interpolation:auto; text-rendering:auto; stroke:black; stroke-linecap:square; stroke-miterlimit:10; shape-rendering:auto; stroke-opacity:1; fill:black; stroke-dasharray:none; font-weight:normal; stroke-width:1; font-family:'Open Sans'; font-style:normal; stroke-linejoin:miter; font-size:12; stroke-dashoffset:0; image-rendering:auto;" height="75" class="cas-substance-image" xmlns:xlink="http://www.w3.org/1999/xlink" xmlns="http://www.w3.org/2000/svg"><svg class="cas-substance-single-component"><rect y="0" x="0" width="114" stroke="none" ry="7" rx="7" height="75" fill="white" class="cas-substance-group"/><svg y="0" x="0" width="114" viewBox="0 0 114 75" style="fill:black;" height="75" class="cas-substance-single-component-image"><svg><g><g transform="translate(50,37)" style="text-rendering:geometricPrecision; color-rendering:optimizeQuality; color-interpolation:linearRGB; stroke-linecap:butt; image-rendering:optimizeQuality;"><line y2="0" y1="0" x2="10.3567" x1="-15" style="fill:none;"/><line y2="-22.5411" y1="0" x2="-28.0145" x1="-15" style="fill:none;"/><line y2="0" y1="0" x2="-40.8147" x1="-15" style="fill:none;"/><line y2="20.1074" y1="0" x2="-26.6094" x1="-15" style="fill:none;"/><line y2="0" y1="0" x2="39.6484" x1="19.561" style="fill:none;"/><line y2="-23.6484" y1="-6.4688" x2="16.75" x1="16.75" style="fill:none;"/><line y2="-23.6484" y1="-6.4688" x2="13.25" x1="13.25" style="fill:none;"/><line y2="23.5234" y1="6.3438" x2="13.25" x1="13.25" style="fill:none;"/><line y2="23.5234" y1="6.3438" x2="16.75" x1="16.75" style="fill:none;"/></g><g transform="translate(50,37)" style="fill:rgb(148,108,0); text-rendering:geometricPrecision; color-rendering:optimizeQuality; image-rendering:optimizeQuality; font-family:'Open Sans'; stroke:rgb(148,108,0); color-interpolation:linearRGB;"><path style="stroke:none;" d="M17.6953 1.9375 Q17.6953 3.0625 16.875 3.7031 Q16.0547 4.3438 14.6484 4.3438 Q13.1172 4.3438 12.3047 3.9375 L12.3047 2.9844 Q12.8359 3.2031 13.4531 3.3359 Q14.0703 3.4688 14.6797 3.4688 Q15.6797 3.4688 16.1797 3.0859 Q16.6797 2.7031 16.6797 2.0312 Q16.6797 1.5938 16.5 1.3047 Q16.3203 1.0156 15.9062 0.7734 Q15.4922 0.5312 14.6328 0.2344 Q13.4453 -0.1875 12.9297 -0.7734 Q12.4141 -1.3594 12.4141 -2.3125 Q12.4141 -3.2969 13.1562 -3.8828 Q13.8984 -4.4688 15.1328 -4.4688 Q16.3984 -4.4688 17.4766 -4 L17.1641 -3.1406 Q16.1016 -3.5781 15.1016 -3.5781 Q14.3047 -3.5781 13.8594 -3.2422 Q13.4141 -2.9062 13.4141 -2.2969 Q13.4141 -1.8594 13.5781 -1.5703 Q13.7422 -1.2812 14.1328 -1.0469 Q14.5234 -0.8125 15.3359 -0.5156 Q16.6797 -0.0469 17.1875 0.5078 Q17.6953 1.0625 17.6953 1.9375 Z"/><path style="fill:rgb(0,138,0); stroke:none;" d="M-31.3906 -21.8237 L-32.3906 -21.8237 L-32.3906 -30.3862 L-27.6094 -30.3862 L-27.6094 -29.5112 L-31.3906 -29.5112 L-31.3906 -26.3706 L-27.8438 -26.3706 L-27.8438 -25.48 L-31.3906 -25.48 L-31.3906 -21.8237 Z"/><path style="fill:rgb(0,138,0); stroke:none;" d="M-46.3906 4.1562 L-47.3906 4.1562 L-47.3906 -4.4062 L-42.6094 -4.4062 L-42.6094 -3.5312 L-46.3906 -3.5312 L-46.3906 -0.3906 L-42.8438 -0.3906 L-42.8438 0.5 L-46.3906 0.5 L-46.3906 4.1562 Z"/><path style="fill:rgb(0,138,0); stroke:none;" d="M-31.3906 30.1362 L-32.3906 30.1362 L-32.3906 21.5737 L-27.6094 21.5737 L-27.6094 22.4487 L-31.3906 22.4487 L-31.3906 25.5894 L-27.8438 25.5894 L-27.8438 26.48 L-31.3906 26.48 L-31.3906 30.1362 Z"/><path style="fill:rgb(0,5,255); stroke:none;" d="M48.3516 4.1562 L47.2109 4.1562 L42.5234 -3.0312 L42.4766 -3.0312 Q42.5703 -1.7656 42.5703 -0.7188 L42.5703 4.1562 L41.6484 4.1562 L41.6484 -4.4062 L42.7734 -4.4062 L47.4453 2.75 L47.4922 2.75 Q47.4922 2.5938 47.4453 1.7344 Q47.3984 0.875 47.4141 0.5 L47.4141 -4.4062 L48.3516 -4.4062 L48.3516 4.1562 Z"/><path style="fill:rgb(0,5,255); stroke:none;" d="M55.8672 4.1562 L54.8672 4.1562 L54.8672 0.125 L50.3516 0.125 L50.3516 4.1562 L49.3516 4.1562 L49.3516 -4.4062 L50.3516 -4.4062 L50.3516 -0.7656 L54.8672 -0.7656 L54.8672 -4.4062 L55.8672 -4.4062 L55.8672 4.1562 Z"/><path style="fill:rgb(0,5,255); stroke:none;" d="M60.6172 5.9656 L56.8672 5.9656 L56.8672 5.4031 L58.3672 3.8875 Q59.0547 3.2 59.2734 2.9031 Q59.4922 2.6062 59.6016 2.325 Q59.7109 2.0437 59.7109 1.7156 Q59.7109 1.2625 59.4375 0.9969 Q59.1641 0.7312 58.6641 0.7312 Q58.3203 0.7312 58 0.8484 Q57.6797 0.9656 57.2891 1.2625 L56.9453 0.825 Q57.7266 0.1687 58.6641 0.1687 Q59.4609 0.1687 59.9219 0.5828 Q60.3828 0.9969 60.3828 1.6844 Q60.3828 2.2312 60.0781 2.7625 Q59.7734 3.2937 58.9297 4.1062 L57.6797 5.325 L57.6797 5.3562 L60.6172 5.3562 L60.6172 5.9656 Z"/><path style="fill:rgb(230,0,0); stroke:none;" d="M18.9375 -30.0703 Q18.9375 -28.0078 17.8984 -26.8281 Q16.8594 -25.6484 15.0156 -25.6484 Q13.125 -25.6484 12.0938 -26.8125 Q11.0625 -27.9766 11.0625 -30.0859 Q11.0625 -32.1797 12.0938 -33.3281 Q13.125 -34.4766 15.0156 -34.4766 Q16.875 -34.4766 17.9062 -33.3047 Q18.9375 -32.1328 18.9375 -30.0703 ZM12.1094 -30.0703 Q12.1094 -28.3359 12.8516 -27.4297 Q13.5938 -26.5234 15.0156 -26.5234 Q16.4375 -26.5234 17.1641 -27.4219 Q17.8906 -28.3203 17.8906 -30.0703 Q17.8906 -31.8047 17.1641 -32.6953 Q16.4375 -33.5859 15.0156 -33.5859 Q13.5938 -33.5859 12.8516 -32.6875 Q12.1094 -31.7891 12.1094 -30.0703 Z"/><path style="fill:rgb(230,0,0); stroke:none;" d="M18.9375 29.9297 Q18.9375 31.9922 17.8984 33.1719 Q16.8594 34.3516 15.0156 34.3516 Q13.125 34.3516 12.0938 33.1875 Q11.0625 32.0234 11.0625 29.9141 Q11.0625 27.8203 12.0938 26.6719 Q13.125 25.5234 15.0156 25.5234 Q16.875 25.5234 17.9062 26.6953 Q18.9375 27.8672 18.9375 29.9297 ZM12.1094 29.9297 Q12.1094 31.6641 12.8516 32.5703 Q13.5938 33.4766 15.0156 33.4766 Q16.4375 33.4766 17.1641 32.5781 Q17.8906 31.6797 17.8906 29.9297 Q17.8906 28.1953 17.1641 27.3047 Q16.4375 26.4141 15.0156 26.4141 Q13.5938 26.4141 12.8516 27.3125 Q12.1094 28.2109 12.1094 29.9297 Z"/></g></g></svg></svg></svg></svg>