<svg xmlns:ns0="http://www.w3.org/2000/svg" xmlns="http://www.w3.org/2000/svg"><g transform="translate(0, 0)"><ns0:svg width="100" viewBox="0 0 100 86" style="fill-opacity:1; color-rendering:auto; color-interpolation:auto; text-rendering:auto; stroke:black; stroke-linecap:square; stroke-miterlimit:10; shape-rendering:auto; stroke-opacity:1; fill:black; stroke-dasharray:none; font-weight:normal; stroke-width:1; font-family:'Open Sans'; font-style:normal; stroke-linejoin:miter; font-size:12; stroke-dashoffset:0; image-rendering:auto;" height="86" class="cas-substance-image"><ns0:svg class="cas-substance-single-component"><ns0:rect y="0" x="0" width="100" stroke="none" ry="7" rx="7" height="86" fill="white" class="cas-substance-group" /><ns0:svg y="0" x="5" width="89" viewBox="0 0 89 86" style="fill:black;" height="86" class="cas-substance-single-component-image"><ns0:svg><ns0:g><ns0:g transform="translate(44,43)" style="text-rendering:geometricPrecision; color-rendering:optimizeQuality; color-interpolation:linearRGB; stroke-linecap:butt; image-rendering:optimizeQuality;"><ns0:line y2="5.49" y1="-9.51" x2="12.99" x1="-12.99" style="fill:none;" /><ns0:line y2="-29.3852" y1="-9.51" x2="-1.5147" x1="-12.99" style="fill:none;" /><ns0:line y2="-22.5325" y1="-9.51" x2="-35.5449" x1="-12.99" style="fill:none;" /><ns0:line y2="10.5974" y1="-9.51" x2="-24.5994" x1="-12.99" style="fill:none;" /><ns0:line y2="-7.1297" y1="5.49" x2="34.8473" x1="12.99" style="fill:none;" /><ns0:line y2="29.0837" y1="5.49" x2="12.99" x1="12.99" style="fill:none;" /></ns0:g><ns0:g transform="translate(44,43)" style="fill:rgb(0,138,0); text-rendering:geometricPrecision; color-rendering:optimizeQuality; image-rendering:optimizeQuality; font-family:'Open Sans'; stroke:rgb(0,138,0); color-interpolation:linearRGB;"><ns0:path style="stroke:none;" d="M1.7014 -38.8494 Q0.2952 -38.8494 -0.5252 -37.9119 Q-1.3455 -36.9744 -1.3455 -35.3337 Q-1.3455 -33.6619 -0.5564 -32.74 Q0.2327 -31.8181 1.6858 -31.8181 Q2.592 -31.8181 3.7327 -32.1462 L3.7327 -31.2712 Q2.842 -30.9275 1.5452 -30.9275 Q-0.3455 -30.9275 -1.3767 -32.0837 Q-2.408 -33.24 -2.408 -35.3494 Q-2.408 -36.6775 -1.9158 -37.6697 Q-1.4236 -38.6619 -0.4861 -39.2009 Q0.4514 -39.74 1.717 -39.74 Q3.0608 -39.74 4.0764 -39.2556 L3.6545 -38.3962 Q2.6702 -38.8494 1.7014 -38.8494 ZM6.428 -31.0525 L5.4592 -31.0525 L5.4592 -40.1775 L6.428 -40.1775 L6.428 -31.0525 Z" /><ns0:path style="stroke:none;" d="M-40.3606 -20.3537 L-41.3606 -20.3537 L-41.3606 -28.9162 L-36.5794 -28.9162 L-36.5794 -28.0412 L-40.3606 -28.0412 L-40.3606 -24.9006 L-36.8138 -24.9006 L-36.8138 -24.01 L-40.3606 -24.01 L-40.3606 -20.3537 Z" /><ns0:path style="stroke:none;" d="M-29.3806 20.6263 L-30.3806 20.6263 L-30.3806 12.0638 L-25.5994 12.0638 L-25.5994 12.9388 L-29.3806 12.9388 L-29.3806 16.0794 L-25.8338 16.0794 L-25.8338 16.97 L-29.3806 16.97 L-29.3806 20.6263 Z" /><ns0:path style="stroke:none;" d="M37.5794 -5.3538 L36.5794 -5.3538 L36.5794 -13.9163 L41.3606 -13.9163 L41.3606 -13.0413 L37.5794 -13.0413 L37.5794 -9.9006 L41.1263 -9.9006 L41.1263 -9.01 L37.5794 -9.01 L37.5794 -5.3538 Z" /><ns0:path style="stroke:none;" d="M11.5994 39.6462 L10.5994 39.6462 L10.5994 31.0837 L15.3806 31.0837 L15.3806 31.9587 L11.5994 31.9587 L11.5994 35.0994 L15.1462 35.0994 L15.1462 35.99 L11.5994 35.99 L11.5994 39.6462 Z" /></ns0:g></ns0:g></ns0:svg></ns0:svg></ns0:svg></ns0:svg></g></svg>