<svg width="166" viewBox="0 0 166 98" style="fill-opacity:1; color-rendering:auto; color-interpolation:auto; text-rendering:auto; stroke:black; stroke-linecap:square; stroke-miterlimit:10; shape-rendering:auto; stroke-opacity:1; fill:black; stroke-dasharray:none; font-weight:normal; stroke-width:1; font-family:'Open Sans'; font-style:normal; stroke-linejoin:miter; font-size:12; stroke-dashoffset:0; image-rendering:auto;" height="98" class="cas-substance-image" xmlns:xlink="http://www.w3.org/1999/xlink" xmlns="http://www.w3.org/2000/svg"><svg class="cas-substance-single-component"><rect y="0" x="0" width="166" stroke="none" ry="7" rx="7" height="98" fill="white" class="cas-substance-group"/><svg y="0" x="0" width="166" viewBox="0 0 166 98" style="fill:black;" height="98" class="cas-substance-single-component-image"><svg><g><g transform="translate(80,48)" style="text-rendering:geometricPrecision; color-rendering:optimizeQuality; color-interpolation:linearRGB; stroke-linecap:butt; image-rendering:optimizeQuality;"><line y2="43.2672" y1="38.283" x2="-62.1402" x1="-38.691" style="fill:none;"/><line y2="39.8437" y1="35.2796" x2="-62.8679" x1="-41.3953" style="fill:none;"/><line y2="9.75" y1="38.283" x2="-29.421" x1="-38.691" style="fill:none;"/><line y2="-14.52" y1="-14.52" x2="-52.4066" x1="-77.055" style="fill:none;"/><line y2="0.48" y1="11.2074" x2="51.072" x1="69.654" style="fill:none;"/><line y2="-29.52" y1="0.48" x2="-0.888" x1="-0.888" style="fill:none;"/><line y2="9.75" y1="0.48" x2="-29.421" x1="-0.888" style="fill:none;"/><line y2="5.7969" y1="-2.2243" x2="-28.5806" x1="-3.8913" style="fill:none;"/><line y2="15.48" y1="0.48" x2="25.092" x1="-0.888" style="fill:none;"/><line y2="-37.0831" y1="-29.52" x2="-24.1673" x1="-0.888" style="fill:none;"/><line y2="-33.7544" y1="-26.8157" x2="-25.2488" x1="-3.8913" style="fill:none;"/><line y2="-44.52" y1="-29.52" x2="25.092" x1="-0.888" style="fill:none;"/><line y2="-8.7457" y1="9.75" x2="-42.8596" x1="-29.421" style="fill:none;"/><line y2="0.48" y1="15.48" x2="51.072" x1="25.092" style="fill:none;"/><line y2="-1.5407" y1="11.4385" x2="47.572" x1="25.0919" style="fill:none;"/><line y2="-20.5443" y1="-33.0157" x2="-42.6779" x1="-33.6164" style="fill:none;"/><line y2="-29.52" y1="-44.52" x2="51.072" x1="25.092" style="fill:none;"/><line y2="-27.4993" y1="-40.4785" x2="47.572" x1="25.0919" style="fill:none;"/><line y2="-29.52" y1="0.48" x2="51.072" x1="51.072" style="fill:none;"/><path style="fill:none; stroke-miterlimit:5;" d="M-39.1801 38.387 L-38.691 38.283 L-38.5365 37.8075"/></g><g transform="translate(79.6362,46.2882)" style="stroke-linecap:butt; fill:rgb(230,0,0); text-rendering:geometricPrecision; color-rendering:optimizeQuality; image-rendering:optimizeQuality; font-family:'Open Sans'; stroke:rgb(230,0,0); color-interpolation:linearRGB; stroke-miterlimit:5;"><path style="stroke:none;" d="M-64.0965 44.4497 Q-64.0965 46.5122 -65.1356 47.6919 Q-66.1746 48.8716 -68.0184 48.8716 Q-69.909 48.8716 -70.9403 47.7075 Q-71.9715 46.5434 -71.9715 44.4341 Q-71.9715 42.3403 -70.9403 41.1919 Q-69.909 40.0434 -68.0184 40.0434 Q-66.159 40.0434 -65.1278 41.2153 Q-64.0965 42.3872 -64.0965 44.4497 ZM-70.9246 44.4497 Q-70.9246 46.1841 -70.1824 47.0903 Q-69.4403 47.9966 -68.0184 47.9966 Q-66.5965 47.9966 -65.8699 47.0981 Q-65.1434 46.1997 -65.1434 44.4497 Q-65.1434 42.7153 -65.8699 41.8247 Q-66.5965 40.9341 -68.0184 40.9341 Q-69.4403 40.9341 -70.1824 41.8325 Q-70.9246 42.7309 -70.9246 44.4497 Z"/></g><g transform="matrix(1,0,0,1,80,48)" style="stroke-linecap:butt; fill:rgb(0,138,0); text-rendering:geometricPrecision; color-rendering:optimizeQuality; image-rendering:optimizeQuality; font-family:'Open Sans'; stroke:rgb(0,138,0); color-interpolation:linearRGB; stroke-miterlimit:5;"><path style="stroke:none;" d="M71.3861 11.0737 L73.8079 11.0737 Q75.5111 11.0737 76.2767 11.5816 Q77.0423 12.0894 77.0423 13.1831 Q77.0423 13.9487 76.6204 14.4487 Q76.1986 14.9487 75.3704 15.0894 L75.3704 15.1519 Q77.3236 15.48 77.3236 17.1987 Q77.3236 18.3394 76.5501 18.9878 Q75.7767 19.6362 74.3861 19.6362 L71.3861 19.6362 L71.3861 11.0737 ZM72.3861 14.73 L74.0267 14.73 Q75.0892 14.73 75.5501 14.4019 Q76.0111 14.0737 76.0111 13.2925 Q76.0111 12.5737 75.4954 12.2534 Q74.9798 11.9331 73.8548 11.9331 L72.3861 11.9331 L72.3861 14.73 ZM72.3861 15.5737 L72.3861 18.7925 L74.1829 18.7925 Q75.2142 18.7925 75.7376 18.3862 Q76.2611 17.98 76.2611 17.1206 Q76.2611 16.3237 75.722 15.9487 Q75.1829 15.5737 74.0892 15.5737 L72.3861 15.5737 ZM81.9583 13.0894 Q82.3802 13.0894 82.7239 13.1675 L82.5833 14.0737 Q82.1927 13.98 81.8802 13.98 Q81.0989 13.98 80.5443 14.6128 Q79.9896 15.2456 79.9896 16.1831 L79.9896 19.6362 L79.0208 19.6362 L79.0208 13.2144 L79.8177 13.2144 L79.9427 14.4019 L79.9896 14.4019 Q80.3333 13.7769 80.8411 13.4331 Q81.3489 13.0894 81.9583 13.0894 Z"/><path style="fill:none; stroke:black;" d="M-1.3635 0.6345 L-0.888 0.48 L-0.888 -0.02"/><path style="fill:none; stroke:black;" d="M-1.3635 -29.6745 L-0.888 -29.52 L-0.455 -29.77"/><path style="fill:none; stroke:black;" d="M-28.9455 9.5955 L-29.421 9.75 L-29.5755 10.2255"/><path style="fill:none; stroke:black;" d="M24.659 15.23 L25.092 15.48 L25.525 15.23"/><path style="fill:rgb(0,5,255); stroke:none;" d="M-26.0694 -34.6338 L-27.2101 -34.6338 L-31.8976 -41.8213 L-31.9444 -41.8213 Q-31.8507 -40.5556 -31.8507 -39.5088 L-31.8507 -34.6338 L-32.7726 -34.6338 L-32.7726 -43.1963 L-31.6476 -43.1963 L-26.9757 -36.04 L-26.9288 -36.04 Q-26.9288 -36.1963 -26.9757 -37.0556 Q-27.0226 -37.915 -27.0069 -38.29 L-27.0069 -43.1963 L-26.0694 -43.1963 L-26.0694 -34.6338 Z"/><path style="fill:none; stroke:black;" d="M24.659 -44.27 L25.092 -44.52 L25.525 -44.27"/><path style="fill:rgb(0,5,255); stroke:none;" d="M-43.7034 -10.3637 L-44.8441 -10.3637 L-49.5316 -17.5513 L-49.5784 -17.5513 Q-49.4847 -16.2856 -49.4847 -15.2387 L-49.4847 -10.3637 L-50.4066 -10.3637 L-50.4066 -18.9263 L-49.2816 -18.9263 L-44.6097 -11.77 L-44.5628 -11.77 Q-44.5628 -11.9262 -44.6097 -12.7856 Q-44.6566 -13.645 -44.6409 -14.02 L-44.6409 -18.9263 L-43.7034 -18.9263 L-43.7034 -10.3637 Z"/><path style="fill:none; stroke:black;" d="M50.639 0.73 L51.072 0.48 L51.072 -0.02"/><path style="fill:none; stroke:black;" d="M50.639 -29.77 L51.072 -29.52 L51.072 -29.02"/></g></g></svg></svg></svg></svg>