<svg width="345" viewBox="0 0 345 112" style="fill-opacity:1; color-rendering:auto; color-interpolation:auto; text-rendering:auto; stroke:black; stroke-linecap:square; stroke-miterlimit:10; shape-rendering:auto; stroke-opacity:1; fill:black; stroke-dasharray:none; font-weight:normal; stroke-width:1; font-family:'Open Sans'; font-style:normal; stroke-linejoin:miter; font-size:12; stroke-dashoffset:0; image-rendering:auto;" height="112" class="cas-substance-image" xmlns:xlink="http://www.w3.org/1999/xlink" xmlns="http://www.w3.org/2000/svg"><svg class="cas-substance-single-component"><rect y="0" x="0" width="345" stroke="none" ry="7" rx="7" height="112" fill="white" class="cas-substance-group"/><svg y="0" x="0" width="345" viewBox="0 0 345 112" style="fill:black;" height="112" class="cas-substance-single-component-image"><svg><g><g transform="translate(172,56)" style="text-rendering:geometricPrecision; color-rendering:optimizeQuality; color-interpolation:linearRGB; stroke-linecap:butt; image-rendering:optimizeQuality;"><line y2="-4.3112" y1="7.5" x2="-70.476" x1="-90.933" style="fill:none;"/><line y2="-7.5" y1="7.5" x2="-116.913" x1="-90.933" style="fill:none;"/><line y2="7.5" y1="-4.3216" x2="-38.97" x1="-59.4475" style="fill:none;"/><line y2="-7.5" y1="7.5" x2="-12.99" x1="-38.97" style="fill:none;"/><line y2="31.0234" y1="6.4897" x2="-40.72" x1="-40.72" style="fill:none;"/><line y2="31.0234" y1="6.4896" x2="-37.22" x1="-37.22" style="fill:none;"/><line y2="7.5" y1="-7.5" x2="12.99" x1="-12.99" style="fill:none;"/><path style="stroke:none;" d="M-12.49 -7.5 L-13.49 -7.5 L-15.99 -31.3438 L-9.99 -31.3438 Z"/><line y2="-7.5" y1="7.5" x2="38.97" x1="12.99" style="fill:none;"/><line y2="4.2588" y1="-7.5" x2="59.3387" x1="38.97" style="fill:none;"/><line y2="-31.1484" y1="-6.4897" x2="40.72" x1="40.72" style="fill:none;"/><line y2="-31.1484" y1="-6.4896" x2="37.22" x1="37.22" style="fill:none;"/><line y2="-7.5" y1="4.274" x2="90.933" x1="70.5405" style="fill:none;"/><line y2="7.5" y1="-7.5" x2="116.913" x1="90.933" style="fill:none;"/><line y2="-37.5" y1="-7.5" x2="-116.913" x1="-116.913" style="fill:none;"/><line y2="-35.4793" y1="-9.5207" x2="-120.413" x1="-120.413" style="fill:none;"/><line y2="7.5" y1="-7.5" x2="-142.893" x1="-116.913" style="fill:none;"/><line y2="-52.5" y1="-37.5" x2="-142.893" x1="-116.913" style="fill:none;"/><line y2="-7.5" y1="7.5" x2="-168.876" x1="-142.893" style="fill:none;"/><line y2="-9.5209" y1="3.4585" x2="-165.3761" x1="-142.8931" style="fill:none;"/><line y2="-37.5" y1="-52.5" x2="-168.876" x1="-142.893" style="fill:none;"/><line y2="-35.4791" y1="-48.4585" x2="-165.3761" x1="-142.8931" style="fill:none;"/><line y2="-37.5" y1="-7.5" x2="-168.876" x1="-168.876" style="fill:none;"/><line y2="-7.5" y1="7.5" x2="142.893" x1="116.913" style="fill:none;"/><line y2="-3.4585" y1="9.5207" x2="142.8931" x1="120.413" style="fill:none;"/><line y2="37.5" y1="7.5" x2="116.913" x1="116.913" style="fill:none;"/><line y2="7.5" y1="-7.5" x2="168.876" x1="142.893" style="fill:none;"/><line y2="52.5" y1="37.5" x2="142.893" x1="116.913" style="fill:none;"/><line y2="48.4585" y1="35.4793" x2="142.8931" x1="120.413" style="fill:none;"/><line y2="37.5" y1="7.5" x2="168.876" x1="168.876" style="fill:none;"/><line y2="35.4793" y1="9.5207" x2="165.376" x1="165.376" style="fill:none;"/><line y2="37.5" y1="52.5" x2="168.876" x1="142.893" style="fill:none;"/><path style="fill:none; stroke-miterlimit:5;" d="M-90.5 7.25 L-90.933 7.5 L-91.366 7.25"/></g><g transform="translate(172,56)" style="stroke-linecap:butt; fill:rgb(230,0,0); text-rendering:geometricPrecision; color-rendering:optimizeQuality; image-rendering:optimizeQuality; font-family:'Open Sans'; stroke:rgb(230,0,0); color-interpolation:linearRGB; stroke-miterlimit:5;"><path style="stroke:none;" d="M-61.0155 -7.5703 Q-61.0155 -5.5078 -62.0546 -4.3281 Q-63.0936 -3.1484 -64.9374 -3.1484 Q-66.828 -3.1484 -67.8593 -4.3125 Q-68.8905 -5.4766 -68.8905 -7.5859 Q-68.8905 -9.6797 -67.8593 -10.8281 Q-66.828 -11.9766 -64.9374 -11.9766 Q-63.078 -11.9766 -62.0468 -10.8047 Q-61.0155 -9.6328 -61.0155 -7.5703 ZM-67.8436 -7.5703 Q-67.8436 -5.8359 -67.1014 -4.9297 Q-66.3593 -4.0234 -64.9374 -4.0234 Q-63.5155 -4.0234 -62.7889 -4.9219 Q-62.0624 -5.8203 -62.0624 -7.5703 Q-62.0624 -9.3047 -62.7889 -10.1953 Q-63.5155 -11.0859 -64.9374 -11.0859 Q-66.3593 -11.0859 -67.1014 -10.1875 Q-67.8436 -9.2891 -67.8436 -7.5703 Z"/><path style="fill:none; stroke:black;" d="M-39.403 7.25 L-38.97 7.5 L-38.537 7.25"/></g><g transform="translate(172,56)" style="stroke-linecap:butt; font-size:8.4px; fill:gray; text-rendering:geometricPrecision; image-rendering:optimizeQuality; color-rendering:optimizeQuality; font-family:'Open Sans'; font-style:italic; stroke:gray; color-interpolation:linearRGB; stroke-miterlimit:5;"><path style="stroke:none;" d="M-25.7587 -11.297 Q-25.7587 -12.6251 -25.29 -13.7501 Q-24.8212 -14.8751 -23.79 -15.9532 L-23.1806 -15.9532 Q-24.1493 -14.8907 -24.6337 -13.7189 Q-25.1181 -12.547 -25.1181 -11.3126 Q-25.1181 -9.9845 -24.6806 -8.9689 L-25.1962 -8.9689 Q-25.7587 -10.0001 -25.7587 -11.297 ZM-20.1362 -11.8907 Q-20.1362 -11.0626 -20.683 -10.6095 Q-21.2299 -10.1564 -22.2299 -10.1564 Q-22.6362 -10.1564 -22.9487 -10.211 Q-23.2612 -10.2657 -23.5424 -10.4064 L-23.5424 -11.0626 Q-22.9174 -10.7345 -22.2143 -10.7345 Q-21.5893 -10.7345 -21.2143 -11.0314 Q-20.8393 -11.3282 -20.8393 -11.8439 Q-20.8393 -12.1564 -21.0424 -12.3829 Q-21.2455 -12.6095 -21.808 -12.9376 Q-22.4018 -13.2657 -22.6283 -13.5939 Q-22.8549 -13.922 -22.8549 -14.3751 Q-22.8549 -15.1095 -22.3393 -15.5704 Q-21.8237 -16.0314 -20.9799 -16.0314 Q-20.6049 -16.0314 -20.269 -15.9532 Q-19.933 -15.8751 -19.558 -15.7032 L-19.8237 -15.1095 Q-20.0737 -15.2657 -20.394 -15.3517 Q-20.7143 -15.4376 -20.9799 -15.4376 Q-21.5112 -15.4376 -21.8315 -15.1642 Q-22.1518 -14.8907 -22.1518 -14.422 Q-22.1518 -14.2189 -22.0815 -14.0704 Q-22.0112 -13.922 -21.8705 -13.7892 Q-21.7299 -13.6564 -21.308 -13.4064 Q-20.7455 -13.0626 -20.5424 -12.8673 Q-20.3393 -12.672 -20.2377 -12.4376 Q-20.1362 -12.2032 -20.1362 -11.8907 ZM-17.5417 -13.6095 Q-17.5417 -12.2814 -18.0182 -11.1485 Q-18.4948 -10.0157 -19.5104 -8.9689 L-20.1198 -8.9689 Q-18.1823 -11.1251 -18.1823 -13.6095 Q-18.1823 -14.9376 -18.6198 -15.9532 L-18.1042 -15.9532 Q-17.5417 -14.8907 -17.5417 -13.6095 Z"/></g><g transform="translate(172,56)" style="stroke-linecap:butt; fill:rgb(230,0,0); text-rendering:geometricPrecision; color-rendering:optimizeQuality; image-rendering:optimizeQuality; font-family:'Open Sans'; stroke:rgb(230,0,0); color-interpolation:linearRGB; stroke-miterlimit:5;"><path style="stroke:none;" d="M-35.0325 37.4297 Q-35.0325 39.4922 -36.0716 40.6719 Q-37.1106 41.8516 -38.9544 41.8516 Q-40.845 41.8516 -41.8763 40.6875 Q-42.9075 39.5234 -42.9075 37.4141 Q-42.9075 35.3203 -41.8763 34.1719 Q-40.845 33.0234 -38.9544 33.0234 Q-37.095 33.0234 -36.0638 34.1953 Q-35.0325 35.3672 -35.0325 37.4297 ZM-41.8606 37.4297 Q-41.8606 39.1641 -41.1184 40.0703 Q-40.3763 40.9766 -38.9544 40.9766 Q-37.5325 40.9766 -36.8059 40.0781 Q-36.0794 39.1797 -36.0794 37.4297 Q-36.0794 35.6953 -36.8059 34.8047 Q-37.5325 33.9141 -38.9544 33.9141 Q-40.3763 33.9141 -41.1184 34.8125 Q-41.8606 35.7109 -41.8606 37.4297 Z"/><path style="fill:none; stroke:black;" d="M12.557 7.25 L12.99 7.5 L13.423 7.25"/><path style="fill:rgb(0,5,255); stroke:none;" d="M-9.6384 -33.3438 L-10.7791 -33.3438 L-15.4666 -40.5312 L-15.5134 -40.5312 Q-15.4197 -39.2656 -15.4197 -38.2188 L-15.4197 -33.3438 L-16.3416 -33.3438 L-16.3416 -41.9062 L-15.2166 -41.9062 L-10.5447 -34.75 L-10.4978 -34.75 Q-10.4978 -34.9062 -10.5447 -35.7656 Q-10.5916 -36.625 -10.5759 -37 L-10.5759 -41.9062 L-9.6384 -41.9062 L-9.6384 -33.3438 Z"/><path style="fill:rgb(0,5,255); stroke:none;" d="M-2.1228 -33.3438 L-3.1228 -33.3438 L-3.1228 -37.375 L-7.6384 -37.375 L-7.6384 -33.3438 L-8.6384 -33.3438 L-8.6384 -41.9062 L-7.6384 -41.9062 L-7.6384 -38.2656 L-3.1228 -38.2656 L-3.1228 -41.9062 L-2.1228 -41.9062 L-2.1228 -33.3438 Z"/><path style="fill:rgb(0,5,255); stroke:none;" d="M2.6272 -31.5344 L-1.1228 -31.5344 L-1.1228 -32.0969 L0.3772 -33.6125 Q1.0647 -34.3 1.2834 -34.5969 Q1.5022 -34.8937 1.6116 -35.175 Q1.7209 -35.4562 1.7209 -35.7844 Q1.7209 -36.2375 1.4475 -36.5031 Q1.1741 -36.7687 0.6741 -36.7687 Q0.3303 -36.7687 0.01 -36.6516 Q-0.3103 -36.5344 -0.7009 -36.2375 L-1.0447 -36.675 Q-0.2634 -37.3312 0.6741 -37.3312 Q1.4709 -37.3312 1.9319 -36.9172 Q2.3928 -36.5031 2.3928 -35.8156 Q2.3928 -35.2687 2.0881 -34.7375 Q1.7834 -34.2062 0.9397 -33.3937 L-0.3103 -32.175 L-0.3103 -32.1437 L2.6272 -32.1437 L2.6272 -31.5344 Z"/><path style="fill:none; stroke:black;" d="M38.537 -7.25 L38.97 -7.5 L39.403 -7.25"/><path style="stroke:none;" d="M68.8905 7.4297 Q68.8905 9.4922 67.8514 10.6719 Q66.8124 11.8516 64.9686 11.8516 Q63.078 11.8516 62.0468 10.6875 Q61.0155 9.5234 61.0155 7.4141 Q61.0155 5.3203 62.0468 4.1719 Q63.078 3.0234 64.9686 3.0234 Q66.828 3.0234 67.8593 4.1953 Q68.8905 5.3672 68.8905 7.4297 ZM62.0624 7.4297 Q62.0624 9.1641 62.8046 10.0703 Q63.5468 10.9766 64.9686 10.9766 Q66.3905 10.9766 67.1171 10.0781 Q67.8436 9.1797 67.8436 7.4297 Q67.8436 5.6953 67.1171 4.8047 Q66.3905 3.9141 64.9686 3.9141 Q63.5468 3.9141 62.8046 4.8125 Q62.0624 5.7109 62.0624 7.4297 Z"/><path style="stroke:none;" d="M42.9075 -37.5703 Q42.9075 -35.5078 41.8684 -34.3281 Q40.8294 -33.1484 38.9856 -33.1484 Q37.095 -33.1484 36.0638 -34.3125 Q35.0325 -35.4766 35.0325 -37.5859 Q35.0325 -39.6797 36.0638 -40.8281 Q37.095 -41.9766 38.9856 -41.9766 Q40.845 -41.9766 41.8763 -40.8047 Q42.9075 -39.6328 42.9075 -37.5703 ZM36.0794 -37.5703 Q36.0794 -35.8359 36.8216 -34.9297 Q37.5638 -34.0234 38.9856 -34.0234 Q40.4075 -34.0234 41.1341 -34.9219 Q41.8606 -35.8203 41.8606 -37.5703 Q41.8606 -39.3047 41.1341 -40.1953 Q40.4075 -41.0859 38.9856 -41.0859 Q37.5638 -41.0859 36.8216 -40.1875 Q36.0794 -39.2891 36.0794 -37.5703 Z"/><path style="fill:none; stroke:black;" d="M90.5 -7.25 L90.933 -7.5 L91.366 -7.25"/><path style="fill:none; stroke:black;" d="M-116.913 -8 L-116.913 -7.5 L-116.48 -7.25"/><path style="fill:none; stroke:black;" d="M-116.913 -37 L-116.913 -37.5 L-117.346 -37.75"/><path style="fill:none; stroke:black;" d="M-142.46 7.25 L-142.893 7.5 L-143.326 7.25"/><path style="fill:none; stroke:black;" d="M-142.46 -52.25 L-142.893 -52.5 L-143.326 -52.25"/><path style="fill:none; stroke:black;" d="M-168.443 -7.25 L-168.876 -7.5 L-168.876 -8"/><path style="fill:none; stroke:black;" d="M-168.443 -37.75 L-168.876 -37.5 L-168.876 -37"/><path style="fill:none; stroke:black;" d="M117.346 7.25 L116.913 7.5 L116.913 8"/><path style="fill:none; stroke:black;" d="M142.46 -7.25 L142.893 -7.5 L143.326 -7.25"/><path style="fill:none; stroke:black;" d="M116.913 37 L116.913 37.5 L117.346 37.75"/><path style="fill:none; stroke:black;" d="M168.443 7.25 L168.876 7.5 L168.876 8"/><path style="fill:none; stroke:black;" d="M142.46 52.25 L142.893 52.5 L143.326 52.25"/><path style="fill:none; stroke:black;" d="M168.876 37 L168.876 37.5 L168.443 37.75"/></g></g></svg></svg></svg></svg>