<svg width="226" viewBox="0 0 226 150" style="fill-opacity:1; color-rendering:auto; color-interpolation:auto; text-rendering:auto; stroke:black; stroke-linecap:square; stroke-miterlimit:10; shape-rendering:auto; stroke-opacity:1; fill:black; stroke-dasharray:none; font-weight:normal; stroke-width:1; font-family:'Open Sans'; font-style:normal; stroke-linejoin:miter; font-size:12; stroke-dashoffset:0; image-rendering:auto;" height="150" class="cas-substance-image" xmlns:xlink="http://www.w3.org/1999/xlink" xmlns="http://www.w3.org/2000/svg"><svg class="cas-substance-single-component"><rect y="0" x="0" width="226" stroke="none" ry="7" rx="7" height="150" fill="white" class="cas-substance-group"/><svg y="0" x="0" width="226" viewBox="0 0 226 150" style="fill:black;" height="150" class="cas-substance-single-component-image"><svg><g><g transform="translate(118,75)" style="text-rendering:geometricPrecision; color-rendering:optimizeQuality; color-interpolation:linearRGB; stroke-linecap:butt; image-rendering:optimizeQuality;"><line y2="-7.5" y1="-22.5" x2="25.98" x1="0" style="fill:none;"/><line y2="-7.5" y1="-22.5" x2="-25.98" x1="0" style="fill:none;"/><line y2="-22.5" y1="-7.5" x2="51.963" x1="25.98" style="fill:none;"/><line y2="-7.5" y1="-22.5" x2="77.943" x1="51.963" style="fill:none;"/><line y2="-22.5" y1="-7.5" x2="103.923" x1="77.943" style="fill:none;"/><line y2="-64.3214" y1="-52.5" x2="-72.4376" x1="-51.963" style="fill:none;"/><line y2="-62.7959" y1="-50.4793" x2="-30.6283" x1="-51.963" style="fill:none;"/><line y2="-65.827" y1="-53.5104" x2="-32.3782" x1="-53.713" style="fill:none;"/><line y2="-22.5" y1="-52.5" x2="-51.963" x1="-51.963" style="fill:none;"/><line y2="-7.5" y1="-19.3214" x2="-77.943" x1="-98.4176" style="fill:none;"/><line y2="37.5" y1="61.0234" x2="-51.963" x1="-51.963" style="fill:none;"/><line y2="-22.5" y1="-7.5" x2="-51.963" x1="-25.98" style="fill:none;"/><line y2="-18.4585" y1="-5.4791" x2="-51.9628" x1="-29.4799" style="fill:none;"/><line y2="22.5" y1="-7.5" x2="-25.98" x1="-25.98" style="fill:none;"/><line y2="-7.5" y1="-22.5" x2="-77.943" x1="-51.963" style="fill:none;"/><line y2="37.5" y1="22.5" x2="-51.963" x1="-25.98" style="fill:none;"/><line y2="33.4585" y1="20.4791" x2="-51.9628" x1="-29.4799" style="fill:none;"/><line y2="22.5" y1="-7.5" x2="-77.943" x1="-77.943" style="fill:none;"/><line y2="20.4793" y1="-5.4793" x2="-74.443" x1="-74.443" style="fill:none;"/><line y2="22.5" y1="37.5" x2="-77.943" x1="-51.963" style="fill:none;"/><path style="fill:none; stroke-miterlimit:5;" d="M0.433 -22.25 L0 -22.5 L-0.433 -22.25"/><path style="fill:none; stroke-miterlimit:5;" d="M25.547 -7.75 L25.98 -7.5 L26.413 -7.75"/><path style="fill:none; stroke-miterlimit:5;" d="M51.53 -22.25 L51.963 -22.5 L52.396 -22.25"/><path style="fill:none; stroke-miterlimit:5;" d="M77.51 -7.75 L77.943 -7.5 L78.376 -7.75"/><path style="fill:none; stroke-miterlimit:5;" d="M-52.396 -52.75 L-51.963 -52.5 L-51.963 -52"/></g><g transform="translate(118,75)" style="stroke-linecap:butt; fill:rgb(230,0,0); text-rendering:geometricPrecision; color-rendering:optimizeQuality; image-rendering:optimizeQuality; font-family:'Open Sans'; stroke:rgb(230,0,0); color-interpolation:linearRGB; stroke-miterlimit:5;"><path style="stroke:none;" d="M-74.0055 -67.5703 Q-74.0055 -65.5078 -75.0446 -64.3281 Q-76.0836 -63.1484 -77.9274 -63.1484 Q-79.818 -63.1484 -80.8493 -64.3125 Q-81.8805 -65.4766 -81.8805 -67.5859 Q-81.8805 -69.6797 -80.8493 -70.8281 Q-79.818 -71.9766 -77.9274 -71.9766 Q-76.068 -71.9766 -75.0368 -70.8047 Q-74.0055 -69.6328 -74.0055 -67.5703 ZM-80.8336 -67.5703 Q-80.8336 -65.8359 -80.0914 -64.9297 Q-79.3493 -64.0234 -77.9274 -64.0234 Q-76.5055 -64.0234 -75.7789 -64.9219 Q-75.0524 -65.8203 -75.0524 -67.5703 Q-75.0524 -69.3047 -75.7789 -70.1953 Q-76.5055 -71.0859 -77.9274 -71.0859 Q-79.3493 -71.0859 -80.0914 -70.1875 Q-80.8336 -69.2891 -80.8336 -67.5703 Z"/><path style="stroke:none;" d="M-82.8805 -63.2734 L-83.8805 -63.2734 L-83.8805 -67.3047 L-88.3961 -67.3047 L-88.3961 -63.2734 L-89.3961 -63.2734 L-89.3961 -71.8359 L-88.3961 -71.8359 L-88.3961 -68.1953 L-83.8805 -68.1953 L-83.8805 -71.8359 L-82.8805 -71.8359 L-82.8805 -63.2734 Z"/><path style="stroke:none;" d="M-22.0425 -67.5703 Q-22.0425 -65.5078 -23.0816 -64.3281 Q-24.1206 -63.1484 -25.9644 -63.1484 Q-27.855 -63.1484 -28.8862 -64.3125 Q-29.9175 -65.4766 -29.9175 -67.5859 Q-29.9175 -69.6797 -28.8862 -70.8281 Q-27.855 -71.9766 -25.9644 -71.9766 Q-24.105 -71.9766 -23.0737 -70.8047 Q-22.0425 -69.6328 -22.0425 -67.5703 ZM-28.8706 -67.5703 Q-28.8706 -65.8359 -28.1284 -64.9297 Q-27.3862 -64.0234 -25.9644 -64.0234 Q-24.5425 -64.0234 -23.8159 -64.9219 Q-23.0894 -65.8203 -23.0894 -67.5703 Q-23.0894 -69.3047 -23.8159 -70.1953 Q-24.5425 -71.0859 -25.9644 -71.0859 Q-27.3862 -71.0859 -28.1284 -70.1875 Q-28.8706 -69.2891 -28.8706 -67.5703 Z"/><path style="stroke:none;" d="M-99.9855 -22.5703 Q-99.9855 -20.5078 -101.0246 -19.3281 Q-102.0636 -18.1484 -103.9074 -18.1484 Q-105.798 -18.1484 -106.8292 -19.3125 Q-107.8605 -20.4766 -107.8605 -22.5859 Q-107.8605 -24.6797 -106.8292 -25.8281 Q-105.798 -26.9766 -103.9074 -26.9766 Q-102.048 -26.9766 -101.0167 -25.8047 Q-99.9855 -24.6328 -99.9855 -22.5703 ZM-106.8136 -22.5703 Q-106.8136 -20.8359 -106.0714 -19.9297 Q-105.3292 -19.0234 -103.9074 -19.0234 Q-102.4855 -19.0234 -101.7589 -19.9219 Q-101.0324 -20.8203 -101.0324 -22.5703 Q-101.0324 -24.3047 -101.7589 -25.1953 Q-102.4855 -26.0859 -103.9074 -26.0859 Q-105.3292 -26.0859 -106.0714 -25.1875 Q-106.8136 -24.2891 -106.8136 -22.5703 Z"/><path style="stroke:none;" d="M-108.8605 -18.2734 L-109.8605 -18.2734 L-109.8605 -22.3047 L-114.3761 -22.3047 L-114.3761 -18.2734 L-115.3761 -18.2734 L-115.3761 -26.8359 L-114.3761 -26.8359 L-114.3761 -23.1953 L-109.8605 -23.1953 L-109.8605 -26.8359 L-108.8605 -26.8359 L-108.8605 -18.2734 Z"/><path style="stroke:none;" d="M-48.0255 67.4297 Q-48.0255 69.4922 -49.0646 70.6719 Q-50.1036 71.8516 -51.9474 71.8516 Q-53.838 71.8516 -54.8693 70.6875 Q-55.9005 69.5234 -55.9005 67.4141 Q-55.9005 65.3203 -54.8693 64.1719 Q-53.838 63.0234 -51.9474 63.0234 Q-50.088 63.0234 -49.0568 64.1953 Q-48.0255 65.3672 -48.0255 67.4297 ZM-54.8536 67.4297 Q-54.8536 69.1641 -54.1114 70.0703 Q-53.3693 70.9766 -51.9474 70.9766 Q-50.5255 70.9766 -49.7989 70.0781 Q-49.0724 69.1797 -49.0724 67.4297 Q-49.0724 65.6953 -49.7989 64.8047 Q-50.5255 63.9141 -51.9474 63.9141 Q-53.3693 63.9141 -54.1114 64.8125 Q-54.8536 65.7109 -54.8536 67.4297 Z"/><path style="stroke:none;" d="M-40.5099 71.7266 L-41.5099 71.7266 L-41.5099 67.6953 L-46.0255 67.6953 L-46.0255 71.7266 L-47.0255 71.7266 L-47.0255 63.1641 L-46.0255 63.1641 L-46.0255 66.8047 L-41.5099 66.8047 L-41.5099 63.1641 L-40.5099 63.1641 L-40.5099 71.7266 Z"/><path style="fill:none; stroke:black;" d="M-26.413 -7.75 L-25.98 -7.5 L-25.547 -7.75"/><path style="fill:none; stroke:black;" d="M-51.53 -22.25 L-51.963 -22.5 L-52.396 -22.25"/><path style="fill:none; stroke:black;" d="M-25.98 22 L-25.98 22.5 L-26.413 22.75"/><path style="fill:none; stroke:black;" d="M-77.943 -7 L-77.943 -7.5 L-78.376 -7.75"/><path style="fill:none; stroke:black;" d="M-51.53 37.25 L-51.963 37.5 L-51.963 38"/><path style="fill:none; stroke:black;" d="M-77.943 22 L-77.943 22.5 L-77.51 22.75"/></g></g></svg></svg></svg></svg>