<svg width="189" viewBox="0 0 189 151" style="fill-opacity:1; color-rendering:auto; color-interpolation:auto; text-rendering:auto; stroke:black; stroke-linecap:square; stroke-miterlimit:10; shape-rendering:auto; stroke-opacity:1; fill:black; stroke-dasharray:none; font-weight:normal; stroke-width:1; font-family:'Open Sans'; font-style:normal; stroke-linejoin:miter; font-size:12; stroke-dashoffset:0; image-rendering:auto;" height="151" class="cas-substance-image" xmlns:xlink="http://www.w3.org/1999/xlink" xmlns="http://www.w3.org/2000/svg"><svg class="cas-substance-single-component"><rect y="0" x="0" width="189" stroke="none" ry="7" rx="7" height="151" fill="white" class="cas-substance-group"/><svg y="0" x="0" width="189" viewBox="0 0 189 151" style="fill:black;" height="151" class="cas-substance-single-component-image"><svg><g><g transform="translate(100,74)" style="text-rendering:geometricPrecision; color-rendering:optimizeQuality; color-interpolation:linearRGB; stroke-linecap:butt; image-rendering:optimizeQuality;"><line y2="-14.544" y1="-14.544" x2="10.587" x1="-14.0614" style="fill:none;"/><line y2="11.436" y1="-8.6557" x2="-34.413" x1="-22.8127" style="fill:none;"/><line y2="-34.876" y1="-14.544" x2="22.326" x1="10.587" style="fill:none;"/><line y2="6.5834" y1="-14.544" x2="20.7645" x1="8.5663" style="fill:none;"/><line y2="4.8334" y1="-16.294" x2="23.7956" x1="11.5974" style="fill:none;"/><line y2="-40.524" y1="-40.524" x2="55.587" x1="31.5245" style="fill:none;"/><line y2="-10.524" y1="-40.524" x2="55.587" x1="55.587" style="fill:none;"/><line y2="-40.524" y1="-40.524" x2="85.587" x1="55.587" style="fill:none;"/><line y2="-70.524" y1="-40.524" x2="55.587" x1="55.587" style="fill:none;"/><line y2="0.2974" y1="-7.848" x2="-79.7702" x1="-57.396" style="fill:none;"/><line y2="-30.7669" y1="-6.5492" x2="-51.5765" x1="-55.8481" style="fill:none;"/><line y2="-31.3748" y1="-7.1567" x2="-55.0233" x1="-59.2949" style="fill:none;"/><line y2="11.436" y1="-7.848" x2="-34.413" x1="-57.396" style="fill:none;"/><line y2="21.696" y1="11.436" x2="-6.222" x1="-34.413" style="fill:none;"/><line y2="30.72" y1="11.436" x2="-57.396" x1="-34.413" style="fill:none;"/><line y2="51.24" y1="21.696" x2="-1.014" x1="-6.222" style="fill:none;"/><line y2="60.264" y1="30.72" x2="-52.185" x1="-57.396" style="fill:none;"/><line y2="66.4317" y1="51.24" x2="-19.1174" x1="-1.014" style="fill:none;"/><line y2="68.407" y1="60.264" x2="-29.8109" x1="-52.185" style="fill:none;"/></g><g transform="translate(100,74)" style="fill:rgb(0,5,255); text-rendering:geometricPrecision; color-rendering:optimizeQuality; image-rendering:optimizeQuality; font-family:'Open Sans'; stroke:rgb(0,5,255); color-interpolation:linearRGB;"><path style="stroke:none;" d="M-16.0614 -10.3878 L-17.2021 -10.3878 L-21.8896 -17.5753 L-21.9364 -17.5753 Q-21.8427 -16.3096 -21.8427 -15.2628 L-21.8427 -10.3878 L-22.7646 -10.3878 L-22.7646 -18.9503 L-21.6396 -18.9503 L-16.9677 -11.794 L-16.9208 -11.794 Q-16.9208 -11.9503 -16.9677 -12.8096 Q-17.0146 -13.669 -16.9989 -14.044 L-16.9989 -18.9503 L-16.0614 -18.9503 L-16.0614 -10.3878 Z"/><path style="stroke:none;" d="M-16.1552 -19.9503 L-17.1552 -19.9503 L-17.1552 -23.9815 L-21.6708 -23.9815 L-21.6708 -19.9503 L-22.6708 -19.9503 L-22.6708 -28.5128 L-21.6708 -28.5128 L-21.6708 -24.8721 L-17.1552 -24.8721 L-17.1552 -28.5128 L-16.1552 -28.5128 L-16.1552 -19.9503 Z"/></g><g transform="translate(100,74)" style="stroke-linecap:butt; text-rendering:geometricPrecision; color-rendering:optimizeQuality; image-rendering:optimizeQuality; font-family:'Open Sans'; color-interpolation:linearRGB; stroke-miterlimit:5;"><path style="fill:none;" d="M10.087 -14.544 L10.587 -14.544 L10.837 -14.977"/><path style="fill:rgb(230,0,0); stroke:none;" d="M29.5245 -40.5943 Q29.5245 -38.5318 28.4854 -37.3521 Q27.4464 -36.1724 25.6026 -36.1724 Q23.712 -36.1724 22.6808 -37.3365 Q21.6495 -38.5006 21.6495 -40.6099 Q21.6495 -42.7037 22.6808 -43.8521 Q23.712 -45.0006 25.6026 -45.0006 Q27.462 -45.0006 28.4933 -43.8287 Q29.5245 -42.6568 29.5245 -40.5943 ZM22.6964 -40.5943 Q22.6964 -38.8599 23.4386 -37.9537 Q24.1808 -37.0474 25.6026 -37.0474 Q27.0245 -37.0474 27.7511 -37.9459 Q28.4776 -38.8443 28.4776 -40.5943 Q28.4776 -42.3287 27.7511 -43.2193 Q27.0245 -44.1099 25.6026 -44.1099 Q24.1808 -44.1099 23.4386 -43.2115 Q22.6964 -42.3131 22.6964 -40.5943 Z"/><path style="fill:rgb(230,0,0); stroke:none;" d="M29.5245 11.3657 Q29.5245 13.4282 28.4854 14.6079 Q27.4464 15.7876 25.6026 15.7876 Q23.712 15.7876 22.6808 14.6235 Q21.6495 13.4594 21.6495 11.3501 Q21.6495 9.2563 22.6808 8.1079 Q23.712 6.9594 25.6026 6.9594 Q27.462 6.9594 28.4933 8.1313 Q29.5245 9.3032 29.5245 11.3657 ZM22.6964 11.3657 Q22.6964 13.1001 23.4386 14.0063 Q24.1808 14.9126 25.6026 14.9126 Q27.0245 14.9126 27.7511 14.0141 Q28.4776 13.1157 28.4776 11.3657 Q28.4776 9.6313 27.7511 8.7407 Q27.0245 7.8501 25.6026 7.8501 Q24.1808 7.8501 23.4386 8.7485 Q22.6964 9.6469 22.6964 11.3657 Z"/><path style="fill:none;" d="M-57.8658 -7.677 L-57.396 -7.848 L-57.013 -7.5266"/><path style="fill:rgb(230,0,0); stroke:none;" d="M-81.6495 2.3447 Q-81.6495 4.4072 -82.6886 5.5869 Q-83.7276 6.7666 -85.5714 6.7666 Q-87.462 6.7666 -88.4932 5.6025 Q-89.5245 4.4384 -89.5245 2.3291 Q-89.5245 0.2353 -88.4932 -0.9131 Q-87.462 -2.0616 -85.5714 -2.0616 Q-83.712 -2.0616 -82.6807 -0.8897 Q-81.6495 0.2822 -81.6495 2.3447 ZM-88.4776 2.3447 Q-88.4776 4.0791 -87.7354 4.9853 Q-86.9932 5.8916 -85.5714 5.8916 Q-84.1495 5.8916 -83.4229 4.9931 Q-82.6964 4.0947 -82.6964 2.3447 Q-82.6964 0.6103 -83.4229 -0.2803 Q-84.1495 -1.1709 -85.5714 -1.1709 Q-86.9932 -1.1709 -87.7354 -0.2725 Q-88.4776 0.6259 -88.4776 2.3447 Z"/><path style="fill:rgb(230,0,0); stroke:none;" d="M-90.5245 6.6416 L-91.5245 6.6416 L-91.5245 2.6103 L-96.0401 2.6103 L-96.0401 6.6416 L-97.0401 6.6416 L-97.0401 -1.9209 L-96.0401 -1.9209 L-96.0401 1.7197 L-91.5245 1.7197 L-91.5245 -1.9209 L-90.5245 -1.9209 L-90.5245 6.6416 Z"/><path style="fill:rgb(230,0,0); stroke:none;" d="M-48.2475 -37.4623 Q-48.2475 -35.3998 -49.2866 -34.2201 Q-50.3256 -33.0404 -52.1694 -33.0404 Q-54.06 -33.0404 -55.0913 -34.2045 Q-56.1225 -35.3686 -56.1225 -37.4779 Q-56.1225 -39.5717 -55.0913 -40.7201 Q-54.06 -41.8686 -52.1694 -41.8686 Q-50.31 -41.8686 -49.2788 -40.6967 Q-48.2475 -39.5248 -48.2475 -37.4623 ZM-55.0756 -37.4623 Q-55.0756 -35.7279 -54.3334 -34.8217 Q-53.5913 -33.9154 -52.1694 -33.9154 Q-50.7475 -33.9154 -50.0209 -34.8139 Q-49.2944 -35.7123 -49.2944 -37.4623 Q-49.2944 -39.1967 -50.0209 -40.0873 Q-50.7475 -40.9779 -52.1694 -40.9779 Q-53.5913 -40.9779 -54.3334 -40.0795 Q-55.0756 -39.1811 -55.0756 -37.4623 Z"/><path style="fill:none;" d="M-6.6918 21.525 L-6.222 21.696 L-6.1352 22.1884"/><path style="fill:none;" d="M-57.013 30.3986 L-57.396 30.72 L-57.3092 31.2124"/><path style="fill:none;" d="M-1.1008 50.7476 L-1.014 51.24 L-1.397 51.5614"/><path style="fill:none;" d="M-52.2719 59.7716 L-52.185 60.264 L-51.7152 60.435"/><path style="fill:rgb(230,0,0); stroke:none;" d="M-20.0565 70.4537 Q-20.0565 72.5162 -21.0956 73.6959 Q-22.1346 74.8756 -23.9784 74.8756 Q-25.869 74.8756 -26.9002 73.7115 Q-27.9315 72.5474 -27.9315 70.4381 Q-27.9315 68.3443 -26.9002 67.1959 Q-25.869 66.0474 -23.9784 66.0474 Q-22.119 66.0474 -21.0877 67.2193 Q-20.0565 68.3912 -20.0565 70.4537 ZM-26.8846 70.4537 Q-26.8846 72.1881 -26.1424 73.0943 Q-25.4002 74.0006 -23.9784 74.0006 Q-22.5565 74.0006 -21.8299 73.1021 Q-21.1034 72.2037 -21.1034 70.4537 Q-21.1034 68.7193 -21.8299 67.8287 Q-22.5565 66.9381 -23.9784 66.9381 Q-25.4002 66.9381 -26.1424 67.8365 Q-26.8846 68.7349 -26.8846 70.4537 Z"/></g></g></svg></svg></svg></svg>