<svg width="100" viewBox="0 0 100 67" style="fill-opacity:1; color-rendering:auto; color-interpolation:auto; text-rendering:auto; stroke:black; stroke-linecap:square; stroke-miterlimit:10; shape-rendering:auto; stroke-opacity:1; fill:black; stroke-dasharray:none; font-weight:normal; stroke-width:1; font-family:'Open Sans'; font-style:normal; stroke-linejoin:miter; font-size:12; stroke-dashoffset:0; image-rendering:auto;" height="67" class="cas-substance-image" xmlns:xlink="http://www.w3.org/1999/xlink" xmlns="http://www.w3.org/2000/svg"><svg class="cas-substance-single-component"><rect y="0" x="0" width="100" stroke="none" ry="7" rx="7" height="67" fill="white" class="cas-substance-group"/><svg y="0" x="3" width="93" viewBox="0 0 93 67" style="fill:black;" height="67" class="cas-substance-single-component-image"><svg><g><g transform="translate(46,34)" style="text-rendering:geometricPrecision; color-rendering:optimizeQuality; color-interpolation:linearRGB; stroke-linecap:butt; image-rendering:optimizeQuality;"><line y2="15" y1="1.8078" x2="12.99" x1="-9.8588" style="fill:none;"/><line y2="-11.4492" y1="-2.5697" x2="-32.82" x1="-17.4408" style="fill:none;"/><line y2="-19.8752" y1="-6.1383" x2="-1.5147" x1="-9.446" style="fill:none;"/><line y2="19.3833" y1="5.0133" x2="-26.202" x1="-17.9052" style="fill:none;"/><line y2="21.1333" y1="6.7633" x2="-23.171" x1="-14.8742" style="fill:none;"/><line y2="3.4486" y1="15" x2="32.9971" x1="12.99" style="fill:none;"/></g><g transform="translate(46,34)" style="fill:rgb(111,5,255); text-rendering:geometricPrecision; color-rendering:optimizeQuality; image-rendering:optimizeQuality; font-family:'Open Sans'; stroke:rgb(111,5,255); color-interpolation:linearRGB;"><path style="stroke:none;" d="M-10.2712 -1.9219 Q-10.2712 -0.6094 -11.1619 0.0859 Q-12.0525 0.7812 -13.6931 0.7812 L-14.7087 0.7812 L-14.7087 4.1562 L-15.7087 4.1562 L-15.7087 -4.4062 L-13.4744 -4.4062 Q-10.2712 -4.4062 -10.2712 -1.9219 ZM-14.7087 -0.0625 L-13.8025 -0.0625 Q-12.49 -0.0625 -11.8962 -0.4922 Q-11.3025 -0.9219 -11.3025 -1.875 Q-11.3025 -2.7188 -11.8572 -3.1328 Q-12.4119 -3.5469 -13.5994 -3.5469 L-14.7087 -3.5469 L-14.7087 -0.0625 Z"/></g><g transform="translate(46,34)" style="stroke-linecap:butt; text-rendering:geometricPrecision; color-rendering:optimizeQuality; image-rendering:optimizeQuality; font-family:'Open Sans'; color-interpolation:linearRGB; stroke-miterlimit:5;"><path style="fill:none;" d="M12.557 14.75 L12.99 15 L13.423 14.75"/><path style="fill:rgb(0,138,0); stroke:none;" d="M-39.2786 -18.3594 Q-40.6848 -18.3594 -41.5052 -17.4219 Q-42.3255 -16.4844 -42.3255 -14.8438 Q-42.3255 -13.1719 -41.5364 -12.25 Q-40.7473 -11.3281 -39.2942 -11.3281 Q-38.388 -11.3281 -37.2473 -11.6562 L-37.2473 -10.7812 Q-38.138 -10.4375 -39.4348 -10.4375 Q-41.3255 -10.4375 -42.3567 -11.5938 Q-43.388 -12.75 -43.388 -14.8594 Q-43.388 -16.1875 -42.8958 -17.1797 Q-42.4036 -18.1719 -41.4661 -18.7109 Q-40.5286 -19.25 -39.263 -19.25 Q-37.9192 -19.25 -36.9036 -18.7656 L-37.3255 -17.9062 Q-38.3098 -18.3594 -39.2786 -18.3594 ZM-34.552 -10.5625 L-35.5208 -10.5625 L-35.5208 -19.6875 L-34.552 -19.6875 L-34.552 -10.5625 Z"/><path style="fill:rgb(0,138,0); stroke:none;" d="M1.7014 -29.3394 Q0.2952 -29.3394 -0.5252 -28.4019 Q-1.3455 -27.4644 -1.3455 -25.8237 Q-1.3455 -24.1519 -0.5564 -23.23 Q0.2327 -22.3081 1.6858 -22.3081 Q2.592 -22.3081 3.7327 -22.6362 L3.7327 -21.7612 Q2.842 -21.4175 1.5452 -21.4175 Q-0.3455 -21.4175 -1.3767 -22.5737 Q-2.408 -23.73 -2.408 -25.8394 Q-2.408 -27.1675 -1.9158 -28.1597 Q-1.4236 -29.1519 -0.4861 -29.6909 Q0.4514 -30.23 1.717 -30.23 Q3.0608 -30.23 4.0764 -29.7456 L3.6545 -28.8862 Q2.6702 -29.3394 1.7014 -29.3394 ZM6.428 -21.5425 L5.4592 -21.5425 L5.4592 -30.6675 L6.428 -30.6675 L6.428 -21.5425 Z"/><path style="fill:rgb(230,0,0); stroke:none;" d="M-24.0525 25.9097 Q-24.0525 27.9722 -25.0916 29.1519 Q-26.1306 30.3316 -27.9744 30.3316 Q-29.865 30.3316 -30.8963 29.1675 Q-31.9275 28.0034 -31.9275 25.8941 Q-31.9275 23.8003 -30.8963 22.6519 Q-29.865 21.5034 -27.9744 21.5034 Q-26.115 21.5034 -25.0838 22.6753 Q-24.0525 23.8472 -24.0525 25.9097 ZM-30.8806 25.9097 Q-30.8806 27.6441 -30.1384 28.5503 Q-29.3963 29.4566 -27.9744 29.4566 Q-26.5525 29.4566 -25.8259 28.5581 Q-25.0994 27.6597 -25.0994 25.9097 Q-25.0994 24.1753 -25.8259 23.2847 Q-26.5525 22.3941 -27.9744 22.3941 Q-29.3963 22.3941 -30.1384 23.2925 Q-30.8806 24.1909 -30.8806 25.9097 Z"/><path style="fill:rgb(0,138,0); stroke:none;" d="M38.6614 -3.3594 Q37.2552 -3.3594 36.4348 -2.4219 Q35.6145 -1.4844 35.6145 0.1562 Q35.6145 1.8281 36.4036 2.75 Q37.1927 3.6719 38.6458 3.6719 Q39.552 3.6719 40.6927 3.3438 L40.6927 4.2188 Q39.802 4.5625 38.5052 4.5625 Q36.6145 4.5625 35.5833 3.4062 Q34.552 2.25 34.552 0.1406 Q34.552 -1.1875 35.0442 -2.1797 Q35.5364 -3.1719 36.4739 -3.7109 Q37.4114 -4.25 38.677 -4.25 Q40.0208 -4.25 41.0364 -3.7656 L40.6145 -2.9062 Q39.6302 -3.3594 38.6614 -3.3594 ZM43.388 4.4375 L42.4192 4.4375 L42.4192 -4.6875 L43.388 -4.6875 L43.388 4.4375 Z"/></g></g></svg></svg></svg></svg>