<svg width="133" viewBox="0 0 133 94" style="fill-opacity:1; color-rendering:auto; color-interpolation:auto; text-rendering:auto; stroke:black; stroke-linecap:square; stroke-miterlimit:10; shape-rendering:auto; stroke-opacity:1; fill:black; stroke-dasharray:none; font-weight:normal; stroke-width:1; font-family:'Open Sans'; font-style:normal; stroke-linejoin:miter; font-size:12; stroke-dashoffset:0; image-rendering:auto;" height="94" class="cas-substance-image" xmlns:xlink="http://www.w3.org/1999/xlink" xmlns="http://www.w3.org/2000/svg"><svg class="cas-substance-single-component"><rect y="0" x="0" width="133" stroke="none" ry="7" rx="7" height="94" fill="white" class="cas-substance-group"/><svg y="0" x="0" width="133" viewBox="0 0 133 94" style="fill:black;" height="94" class="cas-substance-single-component-image"><svg><g><g transform="translate(65,46)" style="text-rendering:geometricPrecision; color-rendering:optimizeQuality; color-interpolation:linearRGB; stroke-linecap:butt; image-rendering:optimizeQuality;"><line y2="12.99" y1="32.8317" x2="-15" x1="-26.456" style="fill:none;"/><line y2="-12.99" y1="-12.99" x2="-30" x1="-55.8147" style="fill:none;"/><line y2="-12.99" y1="-12.99" x2="30" x1="53.582" style="fill:none;"/><line y2="-12.99" y1="12.99" x2="-30" x1="-15" style="fill:none;"/><line y2="12.99" y1="12.99" x2="9.6484" x1="-15" style="fill:none;"/><line y2="9.49" y1="9.49" x2="9.6484" x1="-12.9793" style="fill:none;"/><line y2="-38.97" y1="-12.99" x2="-15" x1="-30" style="fill:none;"/><line y2="-35.47" y1="-12.9899" x2="-12.9793" x1="-25.9585" style="fill:none;"/><line y2="-12.99" y1="6.8517" x2="30" x1="18.544" style="fill:none;"/><line y2="-38.97" y1="-38.97" x2="9.6484" x1="-15" style="fill:none;"/><line y2="-33.0817" y1="-12.99" x2="18.3997" x1="30" style="fill:none;"/><line y2="-31.3317" y1="-12.9899" x2="15.3686" x1="25.9585" style="fill:none;"/></g><g transform="translate(65,46)" style="fill:rgb(0,5,255); text-rendering:geometricPrecision; color-rendering:optimizeQuality; image-rendering:optimizeQuality; font-family:'Open Sans'; stroke:rgb(0,5,255); color-interpolation:linearRGB;"><path style="stroke:none;" d="M-26.6484 43.1263 L-27.7891 43.1263 L-32.4766 35.9388 L-32.5234 35.9388 Q-32.4297 37.2044 -32.4297 38.2513 L-32.4297 43.1263 L-33.3516 43.1263 L-33.3516 34.5638 L-32.2266 34.5638 L-27.5547 41.72 L-27.5078 41.72 Q-27.5078 41.5638 -27.5547 40.7044 Q-27.6016 39.845 -27.5859 39.47 L-27.5859 34.5638 L-26.6484 34.5638 L-26.6484 43.1263 Z"/><path style="stroke:none;" d="M-39.1016 43.1263 L-40.1016 43.1263 L-40.1016 39.095 L-44.6172 39.095 L-44.6172 43.1263 L-45.6172 43.1263 L-45.6172 34.5638 L-44.6172 34.5638 L-44.6172 38.2044 L-40.1016 38.2044 L-40.1016 34.5638 L-39.1016 34.5638 L-39.1016 43.1263 Z"/><path style="stroke:none;" d="M-34.3516 44.9356 L-38.1016 44.9356 L-38.1016 44.3731 L-36.6016 42.8575 Q-35.9141 42.17 -35.6953 41.8731 Q-35.4766 41.5763 -35.3672 41.295 Q-35.2578 41.0138 -35.2578 40.6856 Q-35.2578 40.2325 -35.5312 39.9669 Q-35.8047 39.7013 -36.3047 39.7013 Q-36.6484 39.7013 -36.9688 39.8184 Q-37.2891 39.9356 -37.6797 40.2325 L-38.0234 39.795 Q-37.2422 39.1388 -36.3047 39.1388 Q-35.5078 39.1388 -35.0469 39.5528 Q-34.5859 39.9669 -34.5859 40.6544 Q-34.5859 41.2013 -34.8906 41.7325 Q-35.1953 42.2638 -36.0391 43.0763 L-37.2891 44.295 L-37.2891 44.3263 L-34.3516 44.3263 L-34.3516 44.9356 Z"/><path style="fill:rgb(0,138,0); stroke:none;" d="M-61.3906 -8.8337 L-62.3906 -8.8337 L-62.3906 -17.3962 L-57.6094 -17.3962 L-57.6094 -16.5212 L-61.3906 -16.5212 L-61.3906 -13.3806 L-57.8438 -13.3806 L-57.8438 -12.49 L-61.3906 -12.49 L-61.3906 -8.8337 Z"/><path style="fill:rgb(0,138,0); stroke:none;" d="M59.6914 -16.3494 Q58.2852 -16.3494 57.4648 -15.4119 Q56.6445 -14.4744 56.6445 -12.8337 Q56.6445 -11.1619 57.4336 -10.24 Q58.2227 -9.3181 59.6758 -9.3181 Q60.582 -9.3181 61.7227 -9.6462 L61.7227 -8.7712 Q60.832 -8.4275 59.5352 -8.4275 Q57.6445 -8.4275 56.6133 -9.5837 Q55.582 -10.74 55.582 -12.8494 Q55.582 -14.1775 56.0742 -15.1697 Q56.5664 -16.1619 57.5039 -16.7009 Q58.4414 -17.24 59.707 -17.24 Q61.0508 -17.24 62.0664 -16.7556 L61.6445 -15.8962 Q60.6602 -16.3494 59.6914 -16.3494 ZM64.418 -8.5525 L63.4492 -8.5525 L63.4492 -17.6775 L64.418 -17.6775 L64.418 -8.5525 Z"/></g><g transform="translate(65,46)" style="stroke-linecap:butt; text-rendering:geometricPrecision; color-rendering:optimizeQuality; image-rendering:optimizeQuality; font-family:'Open Sans'; color-interpolation:linearRGB; stroke-miterlimit:5;"><path style="fill:none;" d="M-14.5 12.99 L-15 12.99 L-15.25 12.557"/><path style="fill:none;" d="M-29.75 -13.423 L-30 -12.99 L-30.5 -12.99"/><path style="fill:rgb(0,5,255); stroke:none;" d="M18.3516 17.1462 L17.2109 17.1462 L12.5234 9.9587 L12.4766 9.9587 Q12.5703 11.2244 12.5703 12.2712 L12.5703 17.1462 L11.6484 17.1462 L11.6484 8.5837 L12.7734 8.5837 L17.4453 15.74 L17.4922 15.74 Q17.4922 15.5837 17.4453 14.7244 Q17.3984 13.865 17.4141 13.49 L17.4141 8.5837 L18.3516 8.5837 L18.3516 17.1462 Z"/><path style="fill:none;" d="M-15.25 -38.537 L-15 -38.97 L-14.5 -38.97"/><path style="fill:none;" d="M29.75 -13.423 L30 -12.99 L30.5 -12.99"/><path style="fill:rgb(0,5,255); stroke:none;" d="M18.3516 -34.8138 L17.2109 -34.8138 L12.5234 -42.0013 L12.4766 -42.0013 Q12.5703 -40.7356 12.5703 -39.6888 L12.5703 -34.8138 L11.6484 -34.8138 L11.6484 -43.3763 L12.7734 -43.3763 L17.4453 -36.22 L17.4922 -36.22 Q17.4922 -36.3763 17.4453 -37.2356 Q17.3984 -38.095 17.4141 -38.47 L17.4141 -43.3763 L18.3516 -43.3763 L18.3516 -34.8138 Z"/></g></g></svg></svg></svg></svg>