<svg width="215" viewBox="0 0 215 75" style="fill-opacity:1; color-rendering:auto; color-interpolation:auto; text-rendering:auto; stroke:black; stroke-linecap:square; stroke-miterlimit:10; shape-rendering:auto; stroke-opacity:1; fill:black; stroke-dasharray:none; font-weight:normal; stroke-width:1; font-family:'Open Sans'; font-style:normal; stroke-linejoin:miter; font-size:12; stroke-dashoffset:0; image-rendering:auto;" height="75" class="cas-substance-image" xmlns:xlink="http://www.w3.org/1999/xlink" xmlns="http://www.w3.org/2000/svg"><svg class="cas-substance-single-component"><rect y="0" x="0" width="215" stroke="none" ry="7" rx="7" height="75" fill="white" class="cas-substance-group"/><svg y="0" x="0" width="215" viewBox="0 0 215 75" style="fill:black;" height="75" class="cas-substance-single-component-image"><svg><g><g transform="translate(103,37)" style="text-rendering:geometricPrecision; color-rendering:optimizeQuality; color-interpolation:linearRGB; stroke-linecap:butt; image-rendering:optimizeQuality;"><line y2="0" y1="0" x2="-37.5" x1="-7.5" style="fill:none;"/><line y2="0" y1="0" x2="22.5" x1="-7.5" style="fill:none;"/><line y2="23.5938" y1="0" x2="-7.5" x1="-7.5" style="fill:none;"/><line y2="-25.2773" y1="0" x2="-7.5" x1="-7.5" style="fill:none;"/><line y2="0" y1="0" x2="-67.5" x1="-37.5" style="fill:none;"/><line y2="23.5938" y1="0" x2="-37.5" x1="-37.5" style="fill:none;"/><line y2="-25.2773" y1="0" x2="-37.5" x1="-37.5" style="fill:none;"/><line y2="0" y1="0" x2="52.5" x1="22.5" style="fill:none;"/><line y2="23.5938" y1="0" x2="22.5" x1="22.5" style="fill:none;"/><line y2="-25.2773" y1="0" x2="22.5" x1="22.5" style="fill:none;"/><line y2="0" y1="0" x2="-93.3147" x1="-67.5" style="fill:none;"/><line y2="23.5938" y1="0" x2="-67.5" x1="-67.5" style="fill:none;"/><line y2="-25.2773" y1="0" x2="-67.5" x1="-67.5" style="fill:none;"/><line y2="-25.98" y1="0" x2="67.5" x1="52.5" style="fill:none;"/><line y2="-25.98" y1="-25.98" x2="91.5625" x1="67.5" style="fill:none;"/></g><g transform="translate(103,37)" style="fill:rgb(0,138,0); text-rendering:geometricPrecision; color-rendering:optimizeQuality; image-rendering:optimizeQuality; font-family:'Open Sans'; stroke:rgb(0,138,0); color-interpolation:linearRGB;"><path style="stroke:none;" d="M-8.8906 34.1562 L-9.8906 34.1562 L-9.8906 25.5938 L-5.1094 25.5938 L-5.1094 26.4688 L-8.8906 26.4688 L-8.8906 29.6094 L-5.3438 29.6094 L-5.3438 30.5 L-8.8906 30.5 L-8.8906 34.1562 Z"/><path style="stroke:none;" d="M-8.8906 -25.8438 L-9.8906 -25.8438 L-9.8906 -34.4062 L-5.1094 -34.4062 L-5.1094 -33.5312 L-8.8906 -33.5312 L-8.8906 -30.3906 L-5.3438 -30.3906 L-5.3438 -29.5 L-8.8906 -29.5 L-8.8906 -25.8438 Z"/><path style="stroke:none;" d="M-38.8906 34.1562 L-39.8906 34.1562 L-39.8906 25.5938 L-35.1094 25.5938 L-35.1094 26.4688 L-38.8906 26.4688 L-38.8906 29.6094 L-35.3438 29.6094 L-35.3438 30.5 L-38.8906 30.5 L-38.8906 34.1562 Z"/><path style="stroke:none;" d="M-38.8906 -25.8438 L-39.8906 -25.8438 L-39.8906 -34.4062 L-35.1094 -34.4062 L-35.1094 -33.5312 L-38.8906 -33.5312 L-38.8906 -30.3906 L-35.3438 -30.3906 L-35.3438 -29.5 L-38.8906 -29.5 L-38.8906 -25.8438 Z"/></g><g transform="translate(103,37)" style="stroke-linecap:butt; text-rendering:geometricPrecision; color-rendering:optimizeQuality; image-rendering:optimizeQuality; font-family:'Open Sans'; color-interpolation:linearRGB; stroke-miterlimit:5;"><path style="fill:none;" d="M52 -0 L52.5 0 L52.75 -0.433"/><path style="fill:rgb(0,138,0); stroke:none;" d="M21.1094 34.1562 L20.1094 34.1562 L20.1094 25.5938 L24.8906 25.5938 L24.8906 26.4688 L21.1094 26.4688 L21.1094 29.6094 L24.6562 29.6094 L24.6562 30.5 L21.1094 30.5 L21.1094 34.1562 Z"/><path style="fill:rgb(0,138,0); stroke:none;" d="M21.1094 -25.8438 L20.1094 -25.8438 L20.1094 -34.4062 L24.8906 -34.4062 L24.8906 -33.5312 L21.1094 -33.5312 L21.1094 -30.3906 L24.6562 -30.3906 L24.6562 -29.5 L21.1094 -29.5 L21.1094 -25.8438 Z"/><path style="fill:rgb(0,138,0); stroke:none;" d="M-98.8906 4.1562 L-99.8906 4.1562 L-99.8906 -4.4062 L-95.1094 -4.4062 L-95.1094 -3.5312 L-98.8906 -3.5312 L-98.8906 -0.3906 L-95.3438 -0.3906 L-95.3438 0.5 L-98.8906 0.5 L-98.8906 4.1562 Z"/><path style="fill:rgb(0,138,0); stroke:none;" d="M-68.8906 34.1562 L-69.8906 34.1562 L-69.8906 25.5938 L-65.1094 25.5938 L-65.1094 26.4688 L-68.8906 26.4688 L-68.8906 29.6094 L-65.3438 29.6094 L-65.3438 30.5 L-68.8906 30.5 L-68.8906 34.1562 Z"/><path style="fill:rgb(0,138,0); stroke:none;" d="M-68.8906 -25.8438 L-69.8906 -25.8438 L-69.8906 -34.4062 L-65.1094 -34.4062 L-65.1094 -33.5312 L-68.8906 -33.5312 L-68.8906 -30.3906 L-65.3438 -30.3906 L-65.3438 -29.5 L-68.8906 -29.5 L-68.8906 -25.8438 Z"/><path style="fill:none;" d="M67.25 -25.547 L67.5 -25.98 L68 -25.98"/><path style="fill:rgb(230,0,0); stroke:none;" d="M101.4375 -26.0503 Q101.4375 -23.9878 100.3984 -22.8081 Q99.3594 -21.6284 97.5156 -21.6284 Q95.625 -21.6284 94.5938 -22.7925 Q93.5625 -23.9566 93.5625 -26.0659 Q93.5625 -28.1597 94.5938 -29.3081 Q95.625 -30.4566 97.5156 -30.4566 Q99.375 -30.4566 100.4062 -29.2847 Q101.4375 -28.1128 101.4375 -26.0503 ZM94.6094 -26.0503 Q94.6094 -24.3159 95.3516 -23.4097 Q96.0938 -22.5034 97.5156 -22.5034 Q98.9375 -22.5034 99.6641 -23.4019 Q100.3906 -24.3003 100.3906 -26.0503 Q100.3906 -27.7847 99.6641 -28.6753 Q98.9375 -29.5659 97.5156 -29.5659 Q96.0938 -29.5659 95.3516 -28.6675 Q94.6094 -27.7691 94.6094 -26.0503 Z"/><path style="fill:rgb(230,0,0); stroke:none;" d="M108.9531 -21.7534 L107.9531 -21.7534 L107.9531 -25.7847 L103.4375 -25.7847 L103.4375 -21.7534 L102.4375 -21.7534 L102.4375 -30.3159 L103.4375 -30.3159 L103.4375 -26.6753 L107.9531 -26.6753 L107.9531 -30.3159 L108.9531 -30.3159 L108.9531 -21.7534 Z"/></g></g></svg></svg></svg></svg>