<svg width="227" viewBox="0 0 227 138" style="fill-opacity:1; color-rendering:auto; color-interpolation:auto; text-rendering:auto; stroke:black; stroke-linecap:square; stroke-miterlimit:10; shape-rendering:auto; stroke-opacity:1; fill:black; stroke-dasharray:none; font-weight:normal; stroke-width:1; font-family:'Open Sans'; font-style:normal; stroke-linejoin:miter; font-size:12; stroke-dashoffset:0; image-rendering:auto;" height="138" class="cas-substance-image" xmlns:xlink="http://www.w3.org/1999/xlink" xmlns="http://www.w3.org/2000/svg"><svg class="cas-substance-single-component"><rect y="0" x="0" width="227" stroke="none" ry="7" rx="7" height="138" fill="white" class="cas-substance-group"/><svg y="0" x="0" width="227" viewBox="0 0 227 138" style="fill:black;" height="138" class="cas-substance-single-component-image"><svg><g><g transform="translate(111,69)" style="text-rendering:geometricPrecision; color-rendering:optimizeQuality; color-interpolation:linearRGB; stroke-linecap:butt; image-rendering:optimizeQuality;"><path style="stroke:none;" d="M-10.6726 28.4665 L-10.0034 27.7235 L9.2172 41.6683 L5.2021 46.1268 Z"/><line y2="-44.7193" y1="-57.0459" x2="18.777" x1="-2.5727" style="fill:none;"/><line y2="-47.7503" y1="-60.0769" x2="20.5271" x1="-0.8226" style="fill:none;"/><line y2="-16.071" y1="5.217" x2="-93.9956" x1="-84.519" style="fill:none;"/><path style="stroke:none;" d="M-54.6318 7.8547 L-54.7363 8.8493 L-83.5671 8.5849 L-86.3845 2.2558 Z"/><path style="stroke:none;" d="M-40.4435 34.6498 L-40.9486 35.5195 L-40.9486 35.5195 L-39.7201 36.0663 L-39.7201 36.0663 L-39.4119 35.1089 L-39.4119 35.1089 L-40.4435 34.6498 ZM-41.9589 37.2591 L-42.4641 38.1288 L-42.4641 38.1288 L-40.6448 38.9386 L-40.6448 38.9386 L-40.3366 37.9812 L-40.3366 37.9812 L-41.9589 37.2591 ZM-43.4744 39.8684 L-43.9795 40.7381 L-43.9795 40.7381 L-41.5696 41.8108 L-41.5696 41.8108 L-41.2613 40.8534 L-43.4744 39.8684 ZM-44.9898 42.4777 L-45.495 43.3474 L-45.495 43.3474 L-42.4943 44.683 L-42.4943 44.683 L-42.186 43.7256 L-42.186 43.7256 L-44.9898 42.4777 ZM-46.5053 45.0869 L-47.0104 45.9567 L-47.0104 45.9567 L-43.419 47.5553 L-43.419 47.5553 L-43.1107 46.5979 L-46.5053 45.0869 ZM-48.0207 47.6962 L-48.5259 48.566 L-48.5259 48.566 L-44.3437 50.4275 L-44.0355 49.4701 L-44.0355 49.4701 L-48.0207 47.6962 ZM-49.5362 50.3055 L-50.0413 51.1753 L-50.0413 51.1753 L-45.2684 53.2997 L-45.2684 53.2997 L-44.9602 52.3423 L-49.5362 50.3055 ZM-51.0516 52.9148 L-51.5568 53.7846 L-46.1931 56.172 L-46.1931 56.172 L-45.8849 55.2146 L-45.8849 55.2146 L-51.0516 52.9148 Z"/><line y2="-46.74" y1="-58.8049" x2="70.74" x1="91.6364" style="fill:none;"/><line y2="-11.3745" y1="-1.74" x2="-28.8434" x1="-7.203" style="fill:none;"/><line y2="28.095" y1="-1.74" x2="-10.338" x1="-7.203" style="fill:none;"/><path style="stroke:none;" d="M-6.953 -1.307 L-7.453 -2.173 L12.1934 -16.403 L15.1934 -11.2068 Z"/><line y2="8.352" y1="-9.2473" x2="-54.684" x1="-38.8349" style="fill:none;"/><line y2="34.332" y1="28.095" x2="-39.684" x1="-10.338" style="fill:none;"/><line y2="34.332" y1="8.352" x2="-39.684" x1="-54.684" style="fill:none;"/><line y2="-46.74" y1="-23.1463" x2="18.777" x1="18.777" style="fill:none;"/><line y2="-1.74" y1="-13.8052" x2="44.76" x1="23.8606" style="fill:none;"/><line y2="-58.8052" y1="-46.74" x2="39.6763" x1="18.777" style="fill:none;"/><line y2="-16.74" y1="-1.74" x2="70.74" x1="44.76" style="fill:none;"/><line y2="-18.7607" y1="-5.7815" x2="67.24" x1="44.7599" style="fill:none;"/><line y2="-46.74" y1="-58.8049" x2="70.74" x1="49.8436" style="fill:none;"/><line y2="-44.7193" y1="-55.7738" x2="67.24" x1="48.0936" style="fill:none;"/><line y2="-46.74" y1="-16.74" x2="70.74" x1="70.74" style="fill:none;"/></g><g transform="translate(111,69)" style="fill:rgb(230,0,0); text-rendering:geometricPrecision; color-rendering:optimizeQuality; image-rendering:optimizeQuality; font-family:'Open Sans'; stroke:rgb(230,0,0); color-interpolation:linearRGB;"><path style="stroke:none;" d="M15.8925 48.1007 Q15.8925 50.1632 14.8534 51.3429 Q13.8144 52.5226 11.9706 52.5226 Q10.08 52.5226 9.0487 51.3585 Q8.0175 50.1944 8.0175 48.0851 Q8.0175 45.9913 9.0487 44.8429 Q10.08 43.6944 11.9706 43.6944 Q13.83 43.6944 14.8612 44.8663 Q15.8925 46.0382 15.8925 48.1007 ZM9.0644 48.1007 Q9.0644 49.8351 9.8066 50.7413 Q10.5487 51.6476 11.9706 51.6476 Q13.3925 51.6476 14.1191 50.7491 Q14.8456 49.8507 14.8456 48.1007 Q14.8456 46.3663 14.1191 45.4757 Q13.3925 44.5851 11.9706 44.5851 Q10.5487 44.5851 9.8066 45.4835 Q9.0644 46.3819 9.0644 48.1007 Z"/><path style="stroke:none;" d="M23.4081 52.3976 L22.4081 52.3976 L22.4081 48.3663 L17.8925 48.3663 L17.8925 52.3976 L16.8925 52.3976 L16.8925 43.8351 L17.8925 43.8351 L17.8925 47.4757 L22.4081 47.4757 L22.4081 43.8351 L23.4081 43.8351 L23.4081 52.3976 Z"/><path style="stroke:none;" d="M-3.2655 -61.8103 Q-3.2655 -59.7478 -4.3046 -58.5681 Q-5.3436 -57.3884 -7.1874 -57.3884 Q-9.078 -57.3884 -10.1093 -58.5525 Q-11.1405 -59.7166 -11.1405 -61.8259 Q-11.1405 -63.9197 -10.1093 -65.0681 Q-9.078 -66.2166 -7.1874 -66.2166 Q-5.328 -66.2166 -4.2968 -65.0447 Q-3.2655 -63.8728 -3.2655 -61.8103 ZM-10.0936 -61.8103 Q-10.0936 -60.0759 -9.3514 -59.1697 Q-8.6093 -58.2634 -7.1874 -58.2634 Q-5.7655 -58.2634 -5.0389 -59.1619 Q-4.3124 -60.0603 -4.3124 -61.8103 Q-4.3124 -63.5447 -5.0389 -64.4353 Q-5.7655 -65.3259 -7.1874 -65.3259 Q-8.6093 -65.3259 -9.3514 -64.4275 Q-10.0936 -63.5291 -10.0936 -61.8103 Z"/><path style="stroke:none;" d="M-92.7825 -22.2613 Q-92.7825 -20.1988 -93.8216 -19.0191 Q-94.8606 -17.8394 -96.7044 -17.8394 Q-98.595 -17.8394 -99.6263 -19.0035 Q-100.6575 -20.1676 -100.6575 -22.2769 Q-100.6575 -24.3707 -99.6263 -25.5191 Q-98.595 -26.6676 -96.7044 -26.6676 Q-94.845 -26.6676 -93.8138 -25.4957 Q-92.7825 -24.3238 -92.7825 -22.2613 ZM-99.6106 -22.2613 Q-99.6106 -20.5269 -98.8684 -19.6207 Q-98.1263 -18.7144 -96.7044 -18.7144 Q-95.2825 -18.7144 -94.5559 -19.6129 Q-93.8294 -20.5113 -93.8294 -22.2613 Q-93.8294 -23.9957 -94.5559 -24.8863 Q-95.2825 -25.7769 -96.7044 -25.7769 Q-98.1263 -25.7769 -98.8684 -24.8785 Q-99.6106 -23.9801 -99.6106 -22.2613 Z"/><path style="stroke:none;" d="M-101.6575 -17.9644 L-102.6575 -17.9644 L-102.6575 -21.9957 L-107.1731 -21.9957 L-107.1731 -17.9644 L-108.1731 -17.9644 L-108.1731 -26.5269 L-107.1731 -26.5269 L-107.1731 -22.8863 L-102.6575 -22.8863 L-102.6575 -26.5269 L-101.6575 -26.5269 L-101.6575 -17.9644 Z"/><path style="stroke:none;" d="M-47.9475 61.6697 Q-47.9475 63.7322 -48.9866 64.9119 Q-50.0256 66.0916 -51.8694 66.0916 Q-53.76 66.0916 -54.7913 64.9275 Q-55.8225 63.7634 -55.8225 61.6541 Q-55.8225 59.5603 -54.7913 58.4119 Q-53.76 57.2634 -51.8694 57.2634 Q-50.01 57.2634 -48.9788 58.4353 Q-47.9475 59.6072 -47.9475 61.6697 ZM-54.7756 61.6697 Q-54.7756 63.4041 -54.0334 64.3103 Q-53.2913 65.2166 -51.8694 65.2166 Q-50.4475 65.2166 -49.7209 64.3181 Q-48.9944 63.4197 -48.9944 61.6697 Q-48.9944 59.9353 -49.7209 59.0447 Q-50.4475 58.1541 -51.8694 58.1541 Q-53.2913 58.1541 -54.0334 59.0525 Q-54.7756 59.9509 -54.7756 61.6697 Z"/><path style="stroke:none;" d="M-56.8225 65.9666 L-57.8225 65.9666 L-57.8225 61.9353 L-62.3381 61.9353 L-62.3381 65.9666 L-63.3381 65.9666 L-63.3381 57.4041 L-62.3381 57.4041 L-62.3381 61.0447 L-57.8225 61.0447 L-57.8225 57.4041 L-56.8225 57.4041 L-56.8225 65.9666 Z"/><path style="fill:rgb(0,5,255); stroke:none;" d="M100.0716 -57.5838 L98.9309 -57.5838 L94.2434 -64.7713 L94.1966 -64.7713 Q94.2903 -63.5056 94.2903 -62.4588 L94.2903 -57.5838 L93.3684 -57.5838 L93.3684 -66.1463 L94.4934 -66.1463 L99.1653 -58.99 L99.2122 -58.99 Q99.2122 -59.1463 99.1653 -60.0056 Q99.1184 -60.865 99.1341 -61.24 L99.1341 -66.1463 L100.0716 -66.1463 L100.0716 -57.5838 Z"/><path style="fill:rgb(0,5,255); stroke:none;" d="M107.5872 -57.5838 L106.5872 -57.5838 L106.5872 -61.615 L102.0716 -61.615 L102.0716 -57.5838 L101.0716 -57.5838 L101.0716 -66.1463 L102.0716 -66.1463 L102.0716 -62.5056 L106.5872 -62.5056 L106.5872 -66.1463 L107.5872 -66.1463 L107.5872 -57.5838 Z"/><path style="fill:rgb(0,5,255); stroke:none;" d="M112.3372 -55.7744 L108.5872 -55.7744 L108.5872 -56.3369 L110.0872 -57.8525 Q110.7747 -58.54 110.9934 -58.8369 Q111.2122 -59.1338 111.3216 -59.415 Q111.4309 -59.6963 111.4309 -60.0244 Q111.4309 -60.4775 111.1575 -60.7431 Q110.8841 -61.0088 110.3841 -61.0088 Q110.0403 -61.0088 109.72 -60.8916 Q109.3997 -60.7744 109.0091 -60.4775 L108.6653 -60.915 Q109.4466 -61.5713 110.3841 -61.5713 Q111.1809 -61.5713 111.6419 -61.1572 Q112.1028 -60.7431 112.1028 -60.0556 Q112.1028 -59.5088 111.7981 -58.9775 Q111.4934 -58.4463 110.6497 -57.6338 L109.3997 -56.415 L109.3997 -56.3838 L112.3372 -56.3838 L112.3372 -55.7744 Z"/></g><g transform="translate(111,69)" style="font-size:8.4px; fill:gray; text-rendering:geometricPrecision; image-rendering:optimizeQuality; color-rendering:optimizeQuality; font-family:'Open Sans'; font-style:italic; stroke:gray; color-interpolation:linearRGB;"><path style="stroke:none;" d="M-12.1151 -10.5622 Q-12.1151 -11.8904 -11.6464 -13.0154 Q-11.1776 -14.1404 -10.1464 -15.2185 L-9.537 -15.2185 Q-10.5058 -14.156 -10.9901 -12.9841 Q-11.4745 -11.8122 -11.4745 -10.5779 Q-11.4745 -9.2497 -11.037 -8.2341 L-11.5526 -8.2341 Q-12.1151 -9.2654 -12.1151 -10.5622 ZM-8.5551 -11.8747 L-9.0551 -9.4997 L-9.7113 -9.4997 L-8.5082 -15.2185 L-7.2582 -15.2185 Q-5.5238 -15.2185 -5.5238 -13.781 Q-5.5238 -12.4216 -6.9613 -12.031 L-6.0238 -9.4997 L-6.7426 -9.4997 L-7.5707 -11.8747 L-8.5551 -11.8747 ZM-7.977 -14.6247 Q-8.3676 -12.7029 -8.4301 -12.4529 L-7.7738 -12.4529 Q-7.0238 -12.4529 -6.6176 -12.781 Q-6.2113 -13.1091 -6.2113 -13.7341 Q-6.2113 -14.2029 -6.4691 -14.4138 Q-6.727 -14.6247 -7.3207 -14.6247 L-7.977 -14.6247 ZM-3.3379 -12.8747 Q-3.3379 -11.5466 -3.8144 -10.4138 Q-4.291 -9.281 -5.3066 -8.2341 L-5.916 -8.2341 Q-3.9785 -10.3904 -3.9785 -12.8747 Q-3.9785 -14.2029 -4.416 -15.2185 L-3.9004 -15.2185 Q-3.3379 -14.156 -3.3379 -12.8747 Z"/></g><g transform="translate(111,69)" style="fill:rgb(230,0,0); text-rendering:geometricPrecision; color-rendering:optimizeQuality; image-rendering:optimizeQuality; font-family:'Open Sans'; stroke:rgb(230,0,0); color-interpolation:linearRGB;"><path style="stroke:none;" d="M-30.6705 -14.0113 Q-30.6705 -11.9488 -31.7096 -10.7691 Q-32.7486 -9.5894 -34.5924 -9.5894 Q-36.483 -9.5894 -37.5142 -10.7535 Q-38.5455 -11.9176 -38.5455 -14.0269 Q-38.5455 -16.1207 -37.5142 -17.2691 Q-36.483 -18.4176 -34.5924 -18.4176 Q-32.733 -18.4176 -31.7017 -17.2457 Q-30.6705 -16.0738 -30.6705 -14.0113 ZM-37.4986 -14.0113 Q-37.4986 -12.2769 -36.7564 -11.3707 Q-36.0142 -10.4644 -34.5924 -10.4644 Q-33.1705 -10.4644 -32.4439 -11.3629 Q-31.7174 -12.2613 -31.7174 -14.0113 Q-31.7174 -15.7457 -32.4439 -16.6363 Q-33.1705 -17.5269 -34.5924 -17.5269 Q-36.0142 -17.5269 -36.7564 -16.6285 Q-37.4986 -15.7301 -37.4986 -14.0113 Z"/></g><g transform="translate(111,69)" style="font-size:8.4px; fill:gray; text-rendering:geometricPrecision; image-rendering:optimizeQuality; color-rendering:optimizeQuality; font-family:'Open Sans'; font-style:italic; stroke:gray; color-interpolation:linearRGB;"><path style="stroke:none;" d="M-17.0352 38.9573 Q-17.0352 37.6291 -16.5665 36.5041 Q-16.0977 35.3791 -15.0665 34.301 L-14.4571 34.301 Q-15.4258 35.3635 -15.9102 36.5354 Q-16.3946 37.7073 -16.3946 38.9416 Q-16.3946 40.2698 -15.9571 41.2854 L-16.4727 41.2854 Q-17.0352 40.2541 -17.0352 38.9573 ZM-11.4127 38.3635 Q-11.4127 39.1916 -11.9595 39.6448 Q-12.5064 40.0979 -13.5064 40.0979 Q-13.9127 40.0979 -14.2252 40.0432 Q-14.5377 39.9885 -14.8189 39.8479 L-14.8189 39.1916 Q-14.1939 39.5198 -13.4908 39.5198 Q-12.8658 39.5198 -12.4908 39.2229 Q-12.1158 38.926 -12.1158 38.4104 Q-12.1158 38.0979 -12.3189 37.8713 Q-12.522 37.6448 -13.0845 37.3166 Q-13.6783 36.9885 -13.9048 36.6604 Q-14.1314 36.3323 -14.1314 35.8791 Q-14.1314 35.1448 -13.6158 34.6838 Q-13.1002 34.2229 -12.2564 34.2229 Q-11.8814 34.2229 -11.5455 34.301 Q-11.2095 34.3791 -10.8345 34.551 L-11.1002 35.1448 Q-11.3502 34.9885 -11.6705 34.9026 Q-11.9908 34.8166 -12.2564 34.8166 Q-12.7877 34.8166 -13.108 35.0901 Q-13.4283 35.3635 -13.4283 35.8323 Q-13.4283 36.0354 -13.358 36.1838 Q-13.2877 36.3323 -13.147 36.4651 Q-13.0064 36.5979 -12.5845 36.8479 Q-12.022 37.1916 -11.8189 37.3869 Q-11.6158 37.5823 -11.5142 37.8166 Q-11.4127 38.051 -11.4127 38.3635 ZM-8.8182 36.6448 Q-8.8182 37.9729 -9.2947 39.1057 Q-9.7713 40.2385 -10.7869 41.2854 L-11.3963 41.2854 Q-9.4588 39.1291 -9.4588 36.6448 Q-9.4588 35.3166 -9.8963 34.301 L-9.3807 34.301 Q-8.8182 35.3635 -8.8182 36.6448 Z"/><path style="stroke:none;" d="M-62.6561 0.1802 Q-62.6561 -1.148 -62.1873 -2.273 Q-61.7186 -3.398 -60.6873 -4.4761 L-60.0779 -4.4761 Q-61.0467 -3.4136 -61.5311 -2.2417 Q-62.0154 -1.0698 -62.0154 0.1645 Q-62.0154 1.4927 -61.5779 2.5083 L-62.0936 2.5083 Q-62.6561 1.477 -62.6561 0.1802 ZM-59.096 -1.1323 L-59.596 1.2427 L-60.2523 1.2427 L-59.0491 -4.4761 L-57.7991 -4.4761 Q-56.0648 -4.4761 -56.0648 -3.0386 Q-56.0648 -1.6792 -57.5023 -1.2886 L-56.5648 1.2427 L-57.2835 1.2427 L-58.1116 -1.1323 L-59.096 -1.1323 ZM-58.5179 -3.8823 Q-58.9085 -1.9605 -58.971 -1.7105 L-58.3148 -1.7105 Q-57.5648 -1.7105 -57.1585 -2.0386 Q-56.7523 -2.3667 -56.7523 -2.9917 Q-56.7523 -3.4605 -57.0101 -3.6714 Q-57.2679 -3.8823 -57.8616 -3.8823 L-58.5179 -3.8823 ZM-53.8788 -2.1323 Q-53.8788 -0.8042 -54.3553 0.3286 Q-54.8319 1.4614 -55.8475 2.5083 L-56.4569 2.5083 Q-54.5194 0.352 -54.5194 -2.1323 Q-54.5194 -3.4605 -54.9569 -4.4761 L-54.4413 -4.4761 Q-53.8788 -3.4136 -53.8788 -2.1323 Z"/></g><g transform="translate(111,69)" style="stroke-linecap:butt; font-size:8.4px; text-rendering:geometricPrecision; image-rendering:optimizeQuality; color-rendering:optimizeQuality; font-family:'Open Sans'; font-style:italic; color-interpolation:linearRGB; stroke-miterlimit:5;"><path style="fill:none;" d="M-39.1949 34.2281 L-39.684 34.332 L-39.934 33.899"/><path style="fill:gray; stroke:none;" d="M-53.7788 36.0588 Q-53.7788 34.7307 -53.3101 33.6057 Q-52.8413 32.4807 -51.8101 31.4026 L-51.2007 31.4026 Q-52.1694 32.4651 -52.6538 33.637 Q-53.1382 34.8088 -53.1382 36.0432 Q-53.1382 37.3713 -52.7007 38.387 L-53.2163 38.387 Q-53.7788 37.3557 -53.7788 36.0588 ZM-48.1562 35.4651 Q-48.1562 36.2932 -48.7031 36.7463 Q-49.25 37.1995 -50.25 37.1995 Q-50.6562 37.1995 -50.9687 37.1448 Q-51.2812 37.0901 -51.5625 36.9495 L-51.5625 36.2932 Q-50.9375 36.6213 -50.2344 36.6213 Q-49.6094 36.6213 -49.2344 36.3245 Q-48.8594 36.0276 -48.8594 35.512 Q-48.8594 35.1995 -49.0625 34.9729 Q-49.2656 34.7463 -49.8281 34.4182 Q-50.4219 34.0901 -50.6484 33.762 Q-50.875 33.4338 -50.875 32.9807 Q-50.875 32.2463 -50.3594 31.7854 Q-49.8437 31.3245 -49 31.3245 Q-48.625 31.3245 -48.2891 31.4026 Q-47.9531 31.4807 -47.5781 31.6526 L-47.8437 32.2463 Q-48.0937 32.0901 -48.4141 32.0041 Q-48.7344 31.9182 -49 31.9182 Q-49.5312 31.9182 -49.8516 32.1916 Q-50.1719 32.4651 -50.1719 32.9338 Q-50.1719 33.137 -50.1016 33.2854 Q-50.0312 33.4338 -49.8906 33.5666 Q-49.75 33.6995 -49.3281 33.9495 Q-48.7656 34.2932 -48.5625 34.4885 Q-48.3594 34.6838 -48.2578 34.9182 Q-48.1562 35.1526 -48.1562 35.4651 ZM-45.5618 33.7463 Q-45.5618 35.0745 -46.0383 36.2073 Q-46.5149 37.3401 -47.5305 38.387 L-48.1399 38.387 Q-46.2024 36.2307 -46.2024 33.7463 Q-46.2024 32.4182 -46.6399 31.4026 L-46.1243 31.4026 Q-45.5618 32.4651 -45.5618 33.7463 Z"/></g><g transform="translate(111,69)" style="stroke-linecap:butt; fill:rgb(0,5,255); text-rendering:geometricPrecision; color-rendering:optimizeQuality; image-rendering:optimizeQuality; font-family:'Open Sans'; stroke:rgb(0,5,255); color-interpolation:linearRGB; stroke-miterlimit:5;"><path style="stroke:none;" d="M22.1286 -12.5838 L20.9879 -12.5838 L16.3004 -19.7713 L16.2536 -19.7713 Q16.3473 -18.5056 16.3473 -17.4588 L16.3473 -12.5838 L15.4254 -12.5838 L15.4254 -21.1463 L16.5504 -21.1463 L21.2223 -13.99 L21.2692 -13.99 Q21.2692 -14.1463 21.2223 -15.0056 Q21.1754 -15.865 21.1911 -16.24 L21.1911 -21.1463 L22.1286 -21.1463 L22.1286 -12.5838 Z"/><path style="fill:none; stroke:black;" d="M18.777 -46.24 L18.777 -46.74 L19.21 -46.99"/><path style="fill:none; stroke:black;" d="M44.327 -1.99 L44.76 -1.74 L45.193 -1.99"/><path style="stroke:none;" d="M48.1116 -57.5838 L46.9709 -57.5838 L42.2834 -64.7713 L42.2366 -64.7713 Q42.3303 -63.5056 42.3303 -62.4588 L42.3303 -57.5838 L41.4084 -57.5838 L41.4084 -66.1463 L42.5334 -66.1463 L47.2053 -58.99 L47.2522 -58.99 Q47.2522 -59.1463 47.2053 -60.0056 Q47.1584 -60.865 47.1741 -61.24 L47.1741 -66.1463 L48.1116 -66.1463 L48.1116 -57.5838 Z"/><path style="fill:none; stroke:black;" d="M70.307 -16.49 L70.74 -16.74 L70.74 -17.24"/><path style="fill:none; stroke:black;" d="M70.307 -46.99 L70.74 -46.74 L71.173 -46.99"/></g></g></svg></svg></svg></svg>