<svg xmlns:ns0="http://www.w3.org/2000/svg" xmlns="http://www.w3.org/2000/svg"><g transform="translate(0, 0)"><ns0:svg width="315" viewBox="0 0 315 133" style="fill-opacity:1; color-rendering:auto; color-interpolation:auto; text-rendering:auto; stroke:black; stroke-linecap:square; stroke-miterlimit:10; shape-rendering:auto; stroke-opacity:1; fill:black; stroke-dasharray:none; font-weight:normal; stroke-width:1; font-family:'Open Sans'; font-style:normal; stroke-linejoin:miter; font-size:12; stroke-dashoffset:0; image-rendering:auto;" height="133" class="cas-substance-image"><ns0:svg class="cas-substance-single-component"><ns0:rect y="0" x="0" width="315" stroke="none" ry="7" rx="7" height="133" fill="white" class="cas-substance-group" /><ns0:svg y="0" x="0" width="315" viewBox="0 0 315 133" style="fill:black;" height="133" class="cas-substance-single-component-image"><ns0:svg><ns0:g><ns0:g transform="translate(152,67)" style="text-rendering:geometricPrecision; color-rendering:optimizeQuality; color-interpolation:linearRGB; stroke-linecap:butt; image-rendering:optimizeQuality;"><ns0:line y2="-30.906" y1="-52.8631" x2="-59.607" x1="-67.599" style="fill:none;" /><ns0:line y2="-0.906" y1="14.094" x2="44.316" x1="18.336" style="fill:none;" /><ns0:path style="stroke:none;" d="M17.7527 15.094 L17.6693 16.094 L19.0027 16.094 L18.9193 15.094 ZM17.5027 18.094 L17.4193 19.094 L19.2527 19.094 L19.1693 18.094 ZM17.2527 21.094 L17.1693 22.094 L19.5027 22.094 L19.4193 21.094 ZM17.0027 24.094 L16.9193 25.094 L19.7527 25.094 L19.6693 24.094 ZM16.7527 27.094 L16.6693 28.094 L20.0027 28.094 L19.9193 27.094 ZM16.5027 30.094 L16.4193 31.094 L20.2527 31.094 L20.1693 30.094 ZM16.2527 33.094 L16.1693 34.094 L20.5027 34.094 L20.4193 33.094 ZM16.0027 36.094 L15.9193 37.094 L20.7527 37.094 L20.6693 36.094 ZM15.7527 39.094 L15.6693 40.094 L21.0027 40.094 L20.9193 39.094 ZM15.5027 42.094 L15.4193 43.094 L21.2527 43.094 L21.1693 42.094 Z" /><ns0:line y2="2.0291" y1="14.094" x2="-2.5604" x1="18.336" style="fill:none;" /><ns0:path style="stroke:none;" d="M44.816 -0.906 L43.816 -0.906 L41.316 -24.5544 L47.316 -24.5544 Z" /><ns0:line y2="14.094" y1="-0.906" x2="70.296" x1="44.316" style="fill:none;" /><ns0:line y2="44.094" y1="55.8526" x2="122.259" x1="142.6249" style="fill:none;" /><ns0:line y2="-45.906" y1="-30.906" x2="-33.627" x1="-59.607" style="fill:none;" /><ns0:line y2="-0.906" y1="-30.906" x2="-59.607" x1="-59.607" style="fill:none;" /><ns0:line y2="-25.695" y1="-30.906" x2="-89.151" x1="-59.607" style="fill:none;" /><ns0:line y2="-30.906" y1="-45.906" x2="-7.644" x1="-33.627" style="fill:none;" /><ns0:line y2="14.094" y1="-0.906" x2="-33.627" x1="-59.607" style="fill:none;" /><ns0:line y2="-7.3123" y1="-30.906" x2="-7.644" x1="-7.644" style="fill:none;" /><ns0:line y2="2.0288" y1="14.094" x2="-12.7276" x1="-33.627" style="fill:none;" /><ns0:line y2="-48.678" y1="-25.695" x2="-108.435" x1="-89.151" style="fill:none;" /><ns0:line y2="-44.8803" y1="-24.9933" x2="-109.8174" x1="-93.1311" style="fill:none;" /><ns0:line y2="2.496" y1="-25.695" x2="-99.411" x1="-89.151" style="fill:none;" /><ns0:line y2="-43.467" y1="-48.678" x2="-137.979" x1="-108.435" style="fill:none;" /><ns0:line y2="7.704" y1="2.496" x2="-128.955" x1="-99.411" style="fill:none;" /><ns0:line y2="3.9063" y1="-0.6001" x2="-127.5726" x1="-102.0087" style="fill:none;" /><ns0:line y2="-15.276" y1="-43.467" x2="-148.239" x1="-137.979" style="fill:none;" /><ns0:line y2="-15.9779" y1="-40.3711" x2="-144.259" x1="-135.3811" style="fill:none;" /><ns0:line y2="-15.276" y1="7.704" x2="-148.239" x1="-128.955" style="fill:none;" /><ns0:line y2="-0.906" y1="14.094" x2="96.279" x1="70.296" style="fill:none;" /><ns0:line y2="3.1355" y1="16.1149" x2="96.2788" x1="73.7959" style="fill:none;" /><ns0:line y2="44.094" y1="14.094" x2="70.296" x1="70.296" style="fill:none;" /><ns0:line y2="14.094" y1="-0.906" x2="122.259" x1="96.279" style="fill:none;" /><ns0:line y2="59.094" y1="44.094" x2="96.279" x1="70.296" style="fill:none;" /><ns0:line y2="55.0526" y1="42.0731" x2="96.2788" x1="73.7959" style="fill:none;" /><ns0:line y2="44.094" y1="14.094" x2="122.259" x1="122.259" style="fill:none;" /><ns0:line y2="42.0733" y1="16.1147" x2="118.759" x1="118.759" style="fill:none;" /><ns0:line y2="44.094" y1="59.094" x2="122.259" x1="96.279" style="fill:none;" /></ns0:g><ns0:g transform="translate(152,67)" style="fill:rgb(230,0,0); text-rendering:geometricPrecision; color-rendering:optimizeQuality; image-rendering:optimizeQuality; font-family:'Open Sans'; stroke:rgb(230,0,0); color-interpolation:linearRGB;"><ns0:path style="stroke:none;" d="M-65.9295 -59.1643 Q-65.9295 -57.1018 -66.9686 -55.9221 Q-68.0076 -54.7424 -69.8514 -54.7424 Q-71.742 -54.7424 -72.7733 -55.9065 Q-73.8045 -57.0706 -73.8045 -59.1799 Q-73.8045 -61.2737 -72.7733 -62.4221 Q-71.742 -63.5706 -69.8514 -63.5706 Q-67.992 -63.5706 -66.9608 -62.3987 Q-65.9295 -61.2268 -65.9295 -59.1643 ZM-72.7576 -59.1643 Q-72.7576 -57.4299 -72.0154 -56.5237 Q-71.2733 -55.6174 -69.8514 -55.6174 Q-68.4295 -55.6174 -67.7029 -56.5159 Q-66.9764 -57.4143 -66.9764 -59.1643 Q-66.9764 -60.8987 -67.7029 -61.7893 Q-68.4295 -62.6799 -69.8514 -62.6799 Q-71.2733 -62.6799 -72.0154 -61.7815 Q-72.7576 -60.8831 -72.7576 -59.1643 Z" /><ns0:path style="stroke:none;" d="M-74.8045 -54.8674 L-75.8045 -54.8674 L-75.8045 -58.8987 L-80.3201 -58.8987 L-80.3201 -54.8674 L-81.3201 -54.8674 L-81.3201 -63.4299 L-80.3201 -63.4299 L-80.3201 -59.7893 L-75.8045 -59.7893 L-75.8045 -63.4299 L-74.8045 -63.4299 L-74.8045 -54.8674 Z" /></ns0:g><ns0:g transform="translate(152,67)" style="stroke-linecap:butt; text-rendering:geometricPrecision; color-rendering:optimizeQuality; image-rendering:optimizeQuality; font-family:'Open Sans'; color-interpolation:linearRGB; stroke-miterlimit:5;"><ns0:path style="fill:none;" d="M18.769 13.844 L18.336 14.094 L17.903 13.844" /></ns0:g><ns0:g transform="translate(152,67)" style="stroke-linecap:butt; font-size:8.4px; fill:gray; text-rendering:geometricPrecision; image-rendering:optimizeQuality; color-rendering:optimizeQuality; font-family:'Open Sans'; font-style:italic; stroke:gray; color-interpolation:linearRGB; stroke-miterlimit:5;"><ns0:path style="stroke:none;" d="M14.2275 5.2971 Q14.2275 3.969 14.6962 2.844 Q15.165 1.719 16.1962 0.6409 L16.8056 0.6409 Q15.8369 1.7034 15.3525 2.8752 Q14.8681 4.0471 14.8681 5.2815 Q14.8681 6.6096 15.3056 7.6252 L14.79 7.6252 Q14.2275 6.594 14.2275 5.2971 ZM19.85 4.7034 Q19.85 5.5315 19.3032 5.9846 Q18.7563 6.4377 17.7563 6.4377 Q17.35 6.4377 17.0375 6.3831 Q16.725 6.3284 16.4438 6.1877 L16.4438 5.5315 Q17.0688 5.8596 17.7719 5.8596 Q18.3969 5.8596 18.7719 5.5627 Q19.1469 5.2659 19.1469 4.7502 Q19.1469 4.4377 18.9438 4.2112 Q18.7407 3.9846 18.1782 3.6565 Q17.5844 3.3284 17.3578 3.0002 Q17.1313 2.6721 17.1313 2.219 Q17.1313 1.4846 17.6469 1.0237 Q18.1625 0.5627 19.0063 0.5627 Q19.3813 0.5627 19.7172 0.6409 Q20.0532 0.719 20.4282 0.8909 L20.1625 1.4846 Q19.9125 1.3284 19.5922 1.2424 Q19.2719 1.1565 19.0063 1.1565 Q18.475 1.1565 18.1547 1.4299 Q17.8344 1.7034 17.8344 2.1721 Q17.8344 2.3752 17.9047 2.5237 Q17.975 2.6721 18.1157 2.8049 Q18.2563 2.9377 18.6782 3.1877 Q19.2407 3.5315 19.4438 3.7268 Q19.6469 3.9221 19.7485 4.1565 Q19.85 4.3909 19.85 4.7034 ZM22.4445 2.9846 Q22.4445 4.3127 21.968 5.4456 Q21.4914 6.5784 20.4758 7.6252 L19.8664 7.6252 Q21.8039 5.469 21.8039 2.9846 Q21.8039 1.6565 21.3664 0.6409 L21.882 0.6409 Q22.4445 1.7034 22.4445 2.9846 Z" /><ns0:path style="stroke:none;" d="M31.5473 -4.703 Q31.5473 -6.0311 32.016 -7.1561 Q32.4848 -8.2811 33.516 -9.3592 L34.1254 -9.3592 Q33.1567 -8.2967 32.6723 -7.1249 Q32.1879 -5.953 32.1879 -4.7186 Q32.1879 -3.3905 32.6254 -2.3749 L32.1098 -2.3749 Q31.5473 -3.4061 31.5473 -4.703 ZM37.1698 -5.2967 Q37.1698 -4.4686 36.623 -4.0155 Q36.0761 -3.5624 35.0761 -3.5624 Q34.6698 -3.5624 34.3573 -3.617 Q34.0448 -3.6717 33.7636 -3.8124 L33.7636 -4.4686 Q34.3886 -4.1405 35.0917 -4.1405 Q35.7167 -4.1405 36.0917 -4.4374 Q36.4667 -4.7342 36.4667 -5.2499 Q36.4667 -5.5624 36.2636 -5.7889 Q36.0605 -6.0155 35.498 -6.3436 Q34.9042 -6.6717 34.6777 -6.9999 Q34.4511 -7.328 34.4511 -7.7811 Q34.4511 -8.5155 34.9667 -8.9764 Q35.4823 -9.4374 36.3261 -9.4374 Q36.7011 -9.4374 37.037 -9.3592 Q37.373 -9.2811 37.748 -9.1092 L37.4823 -8.5155 Q37.2323 -8.6717 36.912 -8.7577 Q36.5917 -8.8436 36.3261 -8.8436 Q35.7948 -8.8436 35.4745 -8.5702 Q35.1542 -8.2967 35.1542 -7.828 Q35.1542 -7.6249 35.2245 -7.4764 Q35.2948 -7.328 35.4355 -7.1952 Q35.5761 -7.0624 35.998 -6.8124 Q36.5605 -6.4686 36.7636 -6.2733 Q36.9667 -6.078 37.0683 -5.8436 Q37.1698 -5.6092 37.1698 -5.2967 ZM39.7643 -7.0155 Q39.7643 -5.6874 39.2878 -4.5545 Q38.8112 -3.4217 37.7956 -2.3749 L37.1862 -2.3749 Q39.1237 -4.5311 39.1237 -7.0155 Q39.1237 -8.3436 38.6862 -9.3592 L39.2018 -9.3592 Q39.7643 -8.2967 39.7643 -7.0155 Z" /></ns0:g><ns0:g transform="translate(152,67)" style="stroke-linecap:butt; fill:rgb(230,0,0); text-rendering:geometricPrecision; color-rendering:optimizeQuality; image-rendering:optimizeQuality; font-family:'Open Sans'; stroke:rgb(230,0,0); color-interpolation:linearRGB; stroke-miterlimit:5;"><ns0:path style="stroke:none;" d="M48.2535 -30.9763 Q48.2535 -28.9138 47.2144 -27.7341 Q46.1754 -26.5544 44.3316 -26.5544 Q42.441 -26.5544 41.4098 -27.7185 Q40.3785 -28.8826 40.3785 -30.9919 Q40.3785 -33.0857 41.4098 -34.2341 Q42.441 -35.3826 44.3316 -35.3826 Q46.191 -35.3826 47.2223 -34.2107 Q48.2535 -33.0388 48.2535 -30.9763 ZM41.4254 -30.9763 Q41.4254 -29.2419 42.1676 -28.3357 Q42.9098 -27.4294 44.3316 -27.4294 Q45.7535 -27.4294 46.4801 -28.3279 Q47.2066 -29.2263 47.2066 -30.9763 Q47.2066 -32.7107 46.4801 -33.6013 Q45.7535 -34.4919 44.3316 -34.4919 Q42.9098 -34.4919 42.1676 -33.5935 Q41.4254 -32.6951 41.4254 -30.9763 Z" /><ns0:path style="stroke:none;" d="M55.7691 -26.6794 L54.7691 -26.6794 L54.7691 -30.7107 L50.2535 -30.7107 L50.2535 -26.6794 L49.2535 -26.6794 L49.2535 -35.2419 L50.2535 -35.2419 L50.2535 -31.6013 L54.7691 -31.6013 L54.7691 -35.2419 L55.7691 -35.2419 L55.7691 -26.6794 Z" /><ns0:path style="stroke:none;" d="M152.1765 59.0237 Q152.1765 61.0862 151.1374 62.2659 Q150.0984 63.4456 148.2546 63.4456 Q146.364 63.4456 145.3327 62.2815 Q144.3015 61.1174 144.3015 59.0081 Q144.3015 56.9143 145.3327 55.7659 Q146.364 54.6174 148.2546 54.6174 Q150.114 54.6174 151.1452 55.7893 Q152.1765 56.9612 152.1765 59.0237 ZM145.3484 59.0237 Q145.3484 60.7581 146.0906 61.6643 Q146.8327 62.5706 148.2546 62.5706 Q149.6765 62.5706 150.4031 61.6721 Q151.1296 60.7737 151.1296 59.0237 Q151.1296 57.2893 150.4031 56.3987 Q149.6765 55.5081 148.2546 55.5081 Q146.8327 55.5081 146.0906 56.4065 Q145.3484 57.3049 145.3484 59.0237 Z" /><ns0:path style="stroke:none;" d="M159.6921 63.3206 L158.6921 63.3206 L158.6921 59.2893 L154.1765 59.2893 L154.1765 63.3206 L153.1765 63.3206 L153.1765 54.7581 L154.1765 54.7581 L154.1765 58.3987 L158.6921 58.3987 L158.6921 54.7581 L159.6921 54.7581 L159.6921 63.3206 Z" /><ns0:path style="fill:none; stroke:black;" d="M-34.06 -45.656 L-33.627 -45.906 L-33.194 -45.656" /><ns0:path style="fill:none; stroke:black;" d="M-59.607 -1.406 L-59.607 -0.906 L-59.174 -0.656" /><ns0:path style="fill:none; stroke:black;" d="M-8.077 -31.156 L-7.644 -30.906 L-7.644 -30.406" /><ns0:path style="fill:none; stroke:black;" d="M-34.06 13.844 L-33.627 14.094 L-33.194 13.844" /><ns0:path style="fill:rgb(0,5,255); stroke:none;" d="M-4.2924 3.2502 L-5.4331 3.2502 L-10.1206 -3.9373 L-10.1674 -3.9373 Q-10.0737 -2.6716 -10.0737 -1.6248 L-10.0737 3.2502 L-10.9956 3.2502 L-10.9956 -5.3123 L-9.8706 -5.3123 L-5.1987 1.844 L-5.1518 1.844 Q-5.1518 1.6877 -5.1987 0.8284 Q-5.2456 -0.031 -5.2299 -0.406 L-5.2299 -5.3123 L-4.2924 -5.3123 L-4.2924 3.2502 Z" /><ns0:path style="fill:none; stroke:black;" d="M-89.4724 -26.078 L-89.151 -25.695 L-89.322 -25.2252" /><ns0:path style="fill:none; stroke:black;" d="M-108.1136 -48.295 L-108.435 -48.678 L-108.9274 -48.5911" /><ns0:path style="fill:none; stroke:black;" d="M-99.24 2.0261 L-99.411 2.496 L-99.9034 2.5828" /><ns0:path style="fill:none; stroke:black;" d="M-137.4866 -43.5538 L-137.979 -43.467 L-138.15 -42.9972" /><ns0:path style="fill:none; stroke:black;" d="M-128.4626 7.6172 L-128.955 7.704 L-129.2764 7.321" /><ns0:path style="fill:none; stroke:black;" d="M-148.068 -15.7458 L-148.239 -15.276 L-147.9176 -14.893" /><ns0:path style="fill:none; stroke:black;" d="M70.729 13.844 L70.296 14.094 L70.296 14.594" /><ns0:path style="fill:none; stroke:black;" d="M95.846 -0.656 L96.279 -0.906 L96.712 -0.656" /><ns0:path style="fill:none; stroke:black;" d="M70.296 43.594 L70.296 44.094 L70.729 44.344" /><ns0:path style="fill:none; stroke:black;" d="M121.826 13.844 L122.259 14.094 L122.259 14.594" /><ns0:path style="fill:none; stroke:black;" d="M95.846 58.844 L96.279 59.094 L96.712 58.844" /><ns0:path style="fill:none; stroke:black;" d="M122.259 43.594 L122.259 44.094 L122.692 44.344" /></ns0:g></ns0:g></ns0:svg></ns0:svg></ns0:svg></ns0:svg></g></svg>