<svg width="231" viewBox="0 0 231 211" style="fill-opacity:1; color-rendering:auto; color-interpolation:auto; text-rendering:auto; stroke:black; stroke-linecap:square; stroke-miterlimit:10; shape-rendering:auto; stroke-opacity:1; fill:black; stroke-dasharray:none; font-weight:normal; stroke-width:1; font-family:'Open Sans'; font-style:normal; stroke-linejoin:miter; font-size:12; stroke-dashoffset:0; image-rendering:auto;" height="211" class="cas-substance-image" xmlns:xlink="http://www.w3.org/1999/xlink" xmlns="http://www.w3.org/2000/svg"><svg class="cas-substance-single-component"><rect y="0" x="0" width="231" stroke="none" ry="7" rx="7" height="211" fill="white" class="cas-substance-group"/><svg y="0" x="0" width="231" viewBox="0 0 231 211" style="fill:black;" height="211" class="cas-substance-single-component-image"><svg><g><g transform="translate(115,106)" style="text-rendering:geometricPrecision; color-rendering:optimizeQuality; color-interpolation:linearRGB; stroke-linecap:butt; image-rendering:optimizeQuality;"><line y2="27.453" y1="27.453" x2="-33.3487" x1="-7.5" style="fill:none;"/><line y2="1.47" y1="27.453" x2="7.5" x1="-7.5" style="fill:none;"/><line y2="27.453" y1="27.453" x2="-61.5625" x1="-42.2188" style="fill:none;"/><line y2="50.9764" y1="31.7634" x2="-37.5" x1="-37.5" style="fill:none;"/><line y2="3.8046" y1="21.0467" x2="-35.75" x1="-35.75" style="fill:none;"/><line y2="3.8046" y1="21.0467" x2="-39.25" x1="-39.25" style="fill:none;"/><line y2="1.47" y1="21.7252" x2="-82.5" x1="-70.8067" style="fill:none;"/><line y2="72.453" y1="60.6418" x2="-63.48" x1="-43.023" style="fill:none;"/><line y2="1.47" y1="1.47" x2="-112.5" x1="-82.5" style="fill:none;"/><line y2="102.453" y1="72.453" x2="-63.48" x1="-63.48" style="fill:none;"/><line y2="5.49" y1="-24.51" x2="82.5" x1="82.5" style="fill:none;"/><line y2="-24.51" y1="-24.51" x2="112.5" x1="82.5" style="fill:none;"/><line y2="-54.51" y1="-24.51" x2="82.5" x1="82.5" style="fill:none;"/><line y2="-24.51" y1="-24.51" x2="52.5" x1="82.5" style="fill:none;"/><line y2="-102.453" y1="-76.47" x2="7.5" x1="-7.5" style="fill:none;"/><line y2="-102.453" y1="-76.47" x2="-22.5" x1="-7.5" style="fill:none;"/><line y2="-76.47" y1="-76.47" x2="-37.5" x1="-7.5" style="fill:none;"/><line y2="-50.49" y1="-76.47" x2="7.5" x1="-7.5" style="fill:none;"/><line y2="-50.49" y1="-70.822" x2="37.5" x1="49.239" style="fill:none;"/><line y2="1.47" y1="1.47" x2="37.5" x1="7.5" style="fill:none;"/><line y2="-2.03" y1="-2.03" x2="35.4793" x1="9.5207" style="fill:none;"/><line y2="-24.51" y1="1.47" x2="-7.5" x1="7.5" style="fill:none;"/><line y2="-24.51" y1="1.47" x2="52.5" x1="37.5" style="fill:none;"/><line y2="-50.49" y1="-24.51" x2="7.5" x1="-7.5" style="fill:none;"/><line y2="-46.99" y1="-24.5099" x2="9.5207" x1="-3.4585" style="fill:none;"/><line y2="-50.49" y1="-24.51" x2="37.5" x1="52.5" style="fill:none;"/><line y2="-46.99" y1="-24.5099" x2="35.4793" x1="48.4585" style="fill:none;"/><line y2="-50.49" y1="-50.49" x2="37.5" x1="7.5" style="fill:none;"/><path style="fill:none; stroke-miterlimit:5;" d="M-8 27.453 L-7.5 27.453 L-7.25 27.02"/></g><g transform="translate(115,106)" style="stroke-linecap:butt; fill:rgb(111,5,255); text-rendering:geometricPrecision; color-rendering:optimizeQuality; image-rendering:optimizeQuality; font-family:'Open Sans'; stroke:rgb(111,5,255); color-interpolation:linearRGB; stroke-miterlimit:5;"><path style="stroke:none;" d="M-34.7812 25.5311 Q-34.7812 26.8436 -35.6719 27.5389 Q-36.5625 28.2342 -38.2031 28.2342 L-39.2188 28.2342 L-39.2188 31.6092 L-40.2188 31.6092 L-40.2188 23.0467 L-37.9844 23.0467 Q-34.7812 23.0467 -34.7812 25.5311 ZM-39.2188 27.3905 L-38.3125 27.3905 Q-37 27.3905 -36.4062 26.9608 Q-35.8125 26.5311 -35.8125 25.578 Q-35.8125 24.7342 -36.3672 24.3202 Q-36.9219 23.9061 -38.1094 23.9061 L-39.2188 23.9061 L-39.2188 27.3905 Z"/><path style="fill:rgb(230,0,0); stroke:none;" d="M-63.5625 27.3827 Q-63.5625 29.4452 -64.6016 30.6249 Q-65.6406 31.8046 -67.4844 31.8046 Q-69.375 31.8046 -70.4062 30.6405 Q-71.4375 29.4764 -71.4375 27.3671 Q-71.4375 25.2733 -70.4062 24.1249 Q-69.375 22.9764 -67.4844 22.9764 Q-65.625 22.9764 -64.5938 24.1483 Q-63.5625 25.3202 -63.5625 27.3827 ZM-70.3906 27.3827 Q-70.3906 29.1171 -69.6484 30.0233 Q-68.9062 30.9296 -67.4844 30.9296 Q-66.0625 30.9296 -65.3359 30.0311 Q-64.6094 29.1327 -64.6094 27.3827 Q-64.6094 25.6483 -65.3359 24.7577 Q-66.0625 23.8671 -67.4844 23.8671 Q-68.9062 23.8671 -69.6484 24.7655 Q-70.3906 25.6639 -70.3906 27.3827 Z"/><path style="fill:rgb(230,0,0); stroke:none;" d="M-33.5625 57.3827 Q-33.5625 59.4452 -34.6016 60.6249 Q-35.6406 61.8046 -37.4844 61.8046 Q-39.375 61.8046 -40.4062 60.6405 Q-41.4375 59.4764 -41.4375 57.3671 Q-41.4375 55.2733 -40.4062 54.1249 Q-39.375 52.9764 -37.4844 52.9764 Q-35.625 52.9764 -34.5938 54.1483 Q-33.5625 55.3202 -33.5625 57.3827 ZM-40.3906 57.3827 Q-40.3906 59.1171 -39.6484 60.0233 Q-38.9062 60.9296 -37.4844 60.9296 Q-36.0625 60.9296 -35.3359 60.0311 Q-34.6094 59.1327 -34.6094 57.3827 Q-34.6094 55.6483 -35.3359 54.7577 Q-36.0625 53.8671 -37.4844 53.8671 Q-38.9062 53.8671 -39.6484 54.7655 Q-40.3906 55.6639 -40.3906 57.3827 Z"/><path style="fill:rgb(230,0,0); stroke:none;" d="M-33.5625 -2.6173 Q-33.5625 -0.5548 -34.6016 0.6249 Q-35.6406 1.8046 -37.4844 1.8046 Q-39.375 1.8046 -40.4062 0.6405 Q-41.4375 -0.5236 -41.4375 -2.6329 Q-41.4375 -4.7267 -40.4062 -5.8751 Q-39.375 -7.0236 -37.4844 -7.0236 Q-35.625 -7.0236 -34.5938 -5.8517 Q-33.5625 -4.6798 -33.5625 -2.6173 ZM-40.3906 -2.6173 Q-40.3906 -0.8829 -39.6484 0.0233 Q-38.9062 0.9296 -37.4844 0.9296 Q-36.0625 0.9296 -35.3359 0.0311 Q-34.6094 -0.8673 -34.6094 -2.6173 Q-34.6094 -4.3517 -35.3359 -5.2423 Q-36.0625 -6.1329 -37.4844 -6.1329 Q-38.9062 -6.1329 -39.6484 -5.2345 Q-40.3906 -4.3361 -40.3906 -2.6173 Z"/><path style="fill:none; stroke:black;" d="M-82.25 1.903 L-82.5 1.47 L-83 1.47"/><path style="fill:none; stroke:black;" d="M-63.047 72.203 L-63.48 72.453 L-63.48 72.953"/><path style="fill:rgb(230,0,0); stroke:none;" d="M56.4375 -76.5403 Q56.4375 -74.4778 55.3984 -73.2981 Q54.3594 -72.1184 52.5156 -72.1184 Q50.625 -72.1184 49.5938 -73.2825 Q48.5625 -74.4466 48.5625 -76.5559 Q48.5625 -78.6497 49.5938 -79.7981 Q50.625 -80.9466 52.5156 -80.9466 Q54.375 -80.9466 55.4062 -79.7747 Q56.4375 -78.6028 56.4375 -76.5403 ZM49.6094 -76.5403 Q49.6094 -74.8059 50.3516 -73.8997 Q51.0938 -72.9934 52.5156 -72.9934 Q53.9375 -72.9934 54.6641 -73.8919 Q55.3906 -74.7903 55.3906 -76.5403 Q55.3906 -78.2747 54.6641 -79.1653 Q53.9375 -80.0559 52.5156 -80.0559 Q51.0938 -80.0559 50.3516 -79.1575 Q49.6094 -78.2591 49.6094 -76.5403 Z"/><path style="fill:rgb(230,0,0); stroke:none;" d="M63.9531 -72.2434 L62.9531 -72.2434 L62.9531 -76.2747 L58.4375 -76.2747 L58.4375 -72.2434 L57.4375 -72.2434 L57.4375 -80.8059 L58.4375 -80.8059 L58.4375 -77.1653 L62.9531 -77.1653 L62.9531 -80.8059 L63.9531 -80.8059 L63.9531 -72.2434 Z"/><path style="fill:none; stroke:black;" d="M8 1.47 L7.5 1.47 L7.25 1.903"/><path style="fill:none; stroke:black;" d="M37 1.47 L37.5 1.47 L37.75 1.037"/><path style="fill:none; stroke:black;" d="M-7.25 -24.077 L-7.5 -24.51 L-7.25 -24.943"/><path style="fill:none; stroke:black;" d="M52.25 -24.943 L52.5 -24.51 L53 -24.51"/><path style="fill:none; stroke:black;" d="M7.25 -50.057 L7.5 -50.49 L7.25 -50.923"/><path style="fill:none; stroke:black;" d="M37.75 -50.057 L37.5 -50.49 L37.75 -50.923"/></g></g></svg></svg></svg></svg>