<svg xmlns:ns0="http://www.w3.org/2000/svg" xmlns="http://www.w3.org/2000/svg"><g transform="translate(0, 0)"><ns0:svg width="358" viewBox="0 0 358 191" style="fill-opacity:1; color-rendering:auto; color-interpolation:auto; text-rendering:auto; stroke:black; stroke-linecap:square; stroke-miterlimit:10; shape-rendering:auto; stroke-opacity:1; fill:black; stroke-dasharray:none; font-weight:normal; stroke-width:1; font-family:'Open Sans'; font-style:normal; stroke-linejoin:miter; font-size:12; stroke-dashoffset:0; image-rendering:auto;" height="191" class="cas-substance-image"><ns0:svg class="cas-substance-single-component"><ns0:rect y="0" x="0" width="358" stroke="none" ry="7" rx="7" height="191" fill="white" class="cas-substance-group" /><ns0:svg y="0" x="0" width="358" viewBox="0 0 358 159" style="fill:black;" height="159" class="cas-substance-single-component-image"><ns0:svg><ns0:g><ns0:g transform="translate(178,78)" style="text-rendering:geometricPrecision; color-rendering:optimizeQuality; color-interpolation:linearRGB; stroke-linecap:butt; image-rendering:optimizeQuality;"><ns0:line y2="-14.016" y1="-26.4743" x2="-44.769" x1="-23.1912" style="fill:none;" /><ns0:line y2="-52.6644" y1="-35.4847" x2="-17.039" x1="-17.039" style="fill:none;" /><ns0:line y2="-52.6644" y1="-35.4847" x2="-20.539" x1="-20.539" style="fill:none;" /><ns0:line y2="-14.016" y1="-26.4601" x2="7.194" x1="-14.3616" style="fill:none;" /><ns0:line y2="-29.016" y1="-14.016" x2="-70.749" x1="-44.769" style="fill:none;" /><ns0:line y2="48.036" y1="27.6917" x2="144.672" x1="132.9259" style="fill:none;" /><ns0:line y2="22.056" y1="22.056" x2="99.672" x1="123.7345" style="fill:none;" /><ns0:line y2="48.036" y1="48.036" x2="170.2814" x1="144.672" style="fill:none;" /><ns0:line y2="68.1434" y1="48.036" x2="133.0626" x1="144.672" style="fill:none;" /><ns0:line y2="30.984" y1="19.1728" x2="-122.712" x1="-102.2551" style="fill:none;" /><ns0:line y2="-14.016" y1="9.5074" x2="-96.732" x1="-96.732" style="fill:none;" /><ns0:line y2="-29.016" y1="-17.2574" x2="-174.672" x1="-154.3061" style="fill:none;" /><ns0:line y2="-29.016" y1="-17.242" x2="-122.712" x1="-143.1045" style="fill:none;" /><ns0:line y2="-3.924" y1="22.056" x2="54.672" x1="39.672" style="fill:none;" /><ns0:line y2="16.9472" y1="22.056" x2="15.6369" x1="39.672" style="fill:none;" /><ns0:line y2="48.036" y1="22.056" x2="54.672" x1="39.672" style="fill:none;" /><ns0:line y2="44.536" y1="22.0559" x2="56.6927" x1="43.7135" style="fill:none;" /><ns0:line y2="-21.0109" y1="-3.924" x2="39.2887" x1="54.672" style="fill:none;" /><ns0:line y2="-3.924" y1="-3.924" x2="84.672" x1="54.672" style="fill:none;" /><ns0:line y2="-0.424" y1="-0.424" x2="82.6513" x1="56.6927" style="fill:none;" /><ns0:line y2="-14.016" y1="9.4237" x2="7.194" x1="9.657" style="fill:none;" /><ns0:line y2="48.036" y1="48.036" x2="84.672" x1="54.672" style="fill:none;" /><ns0:line y2="-14.016" y1="-23.9139" x2="7.194" x1="29.4204" style="fill:none;" /><ns0:line y2="-11.6407" y1="-20.7166" x2="10.4638" x1="30.8442" style="fill:none;" /><ns0:line y2="22.056" y1="-3.924" x2="99.672" x1="84.672" style="fill:none;" /><ns0:line y2="22.056" y1="48.036" x2="99.672" x1="84.672" style="fill:none;" /><ns0:line y2="22.0559" y1="44.536" x2="95.6306" x1="82.6513" style="fill:none;" /><ns0:line y2="-14.016" y1="-29.016" x2="-96.732" x1="-70.749" style="fill:none;" /><ns0:line y2="-18.0575" y1="-31.0369" x2="-96.7318" x1="-74.2489" style="fill:none;" /><ns0:line y2="-52.8598" y1="-29.016" x2="-70.749" x1="-70.749" style="fill:none;" /><ns0:line y2="-29.016" y1="-14.016" x2="-122.712" x1="-96.732" style="fill:none;" /><ns0:line y2="-74.016" y1="-61.9508" x2="-96.732" x1="-75.8326" style="fill:none;" /><ns0:line y2="-69.9745" y1="-58.9196" x2="-96.7318" x1="-77.5825" style="fill:none;" /><ns0:line y2="-59.016" y1="-29.016" x2="-122.712" x1="-122.712" style="fill:none;" /><ns0:line y2="-56.9953" y1="-31.0367" x2="-119.212" x1="-119.212" style="fill:none;" /><ns0:line y2="-59.016" y1="-74.016" x2="-122.712" x1="-96.732" style="fill:none;" /></ns0:g><ns0:g transform="translate(178,78)" style="fill:rgb(148,108,0); text-rendering:geometricPrecision; color-rendering:optimizeQuality; image-rendering:optimizeQuality; font-family:'Open Sans'; stroke:rgb(148,108,0); color-interpolation:linearRGB;"><ns0:path style="stroke:none;" d="M-16.0937 -27.0785 Q-16.0937 -25.9535 -16.914 -25.3129 Q-17.7343 -24.6722 -19.1406 -24.6722 Q-20.6718 -24.6722 -21.4843 -25.0785 L-21.4843 -26.0316 Q-20.9531 -25.8129 -20.3359 -25.6801 Q-19.7187 -25.5472 -19.1093 -25.5472 Q-18.1093 -25.5472 -17.6093 -25.9301 Q-17.1093 -26.3129 -17.1093 -26.9847 Q-17.1093 -27.4222 -17.289 -27.7113 Q-17.4687 -28.0004 -17.8827 -28.2426 Q-18.2968 -28.4847 -19.1562 -28.7816 Q-20.3437 -29.2035 -20.8593 -29.7894 Q-21.3749 -30.3754 -21.3749 -31.3285 Q-21.3749 -32.3129 -20.6327 -32.8988 Q-19.8906 -33.4847 -18.6562 -33.4847 Q-17.3906 -33.4847 -16.3124 -33.016 L-16.6249 -32.1566 Q-17.6874 -32.5941 -18.6874 -32.5941 Q-19.4843 -32.5941 -19.9296 -32.2582 Q-20.3749 -31.9222 -20.3749 -31.3129 Q-20.3749 -30.8754 -20.2109 -30.5863 Q-20.0468 -30.2972 -19.6562 -30.0629 Q-19.2656 -29.8285 -18.4531 -29.5316 Q-17.1093 -29.0629 -16.6015 -28.5082 Q-16.0937 -27.9535 -16.0937 -27.0785 Z" /></ns0:g><ns0:g transform="translate(178,78)" style="stroke-linecap:butt; text-rendering:geometricPrecision; color-rendering:optimizeQuality; image-rendering:optimizeQuality; font-family:'Open Sans'; color-interpolation:linearRGB; stroke-miterlimit:5;"><ns0:path style="fill:none;" d="M-44.336 -14.266 L-44.769 -14.016 L-45.202 -14.266" /><ns0:path style="fill:rgb(230,0,0); stroke:none;" d="M-14.8515 -59.0863 Q-14.8515 -57.0238 -15.8906 -55.8441 Q-16.9296 -54.6644 -18.7734 -54.6644 Q-20.664 -54.6644 -21.6952 -55.8285 Q-22.7265 -56.9926 -22.7265 -59.1019 Q-22.7265 -61.1957 -21.6952 -62.3441 Q-20.664 -63.4926 -18.7734 -63.4926 Q-16.914 -63.4926 -15.8827 -62.3207 Q-14.8515 -61.1488 -14.8515 -59.0863 ZM-21.6796 -59.0863 Q-21.6796 -57.3519 -20.9374 -56.4457 Q-20.1952 -55.5394 -18.7734 -55.5394 Q-17.3515 -55.5394 -16.6249 -56.4379 Q-15.8984 -57.3363 -15.8984 -59.0863 Q-15.8984 -60.8207 -16.6249 -61.7113 Q-17.3515 -62.6019 -18.7734 -62.6019 Q-20.1952 -62.6019 -20.9374 -61.7035 Q-21.6796 -60.8051 -21.6796 -59.0863 Z" /><ns0:path style="fill:rgb(230,0,0); stroke:none;" d="M133.6095 21.9857 Q133.6095 24.0482 132.5704 25.2279 Q131.5314 26.4076 129.6876 26.4076 Q127.797 26.4076 126.7657 25.2435 Q125.7345 24.0794 125.7345 21.9701 Q125.7345 19.8763 126.7657 18.7279 Q127.797 17.5794 129.6876 17.5794 Q131.547 17.5794 132.5782 18.7513 Q133.6095 19.9232 133.6095 21.9857 ZM126.7814 21.9857 Q126.7814 23.7201 127.5236 24.6263 Q128.2657 25.5326 129.6876 25.5326 Q131.1095 25.5326 131.8361 24.6341 Q132.5626 23.7357 132.5626 21.9857 Q132.5626 20.2513 131.8361 19.3607 Q131.1095 18.4701 129.6876 18.4701 Q128.2657 18.4701 127.5236 19.3685 Q126.7814 20.2669 126.7814 21.9857 Z" /><ns0:path style="fill:rgb(0,138,0); stroke:none;" d="M173.2814 52.1922 L172.2814 52.1922 L172.2814 43.6297 L177.0626 43.6297 L177.0626 44.5047 L173.2814 44.5047 L173.2814 47.6454 L176.8282 47.6454 L176.8282 48.536 L173.2814 48.536 L173.2814 52.1922 Z" /><ns0:path style="fill:rgb(0,138,0); stroke:none;" d="M128.2814 78.1722 L127.2814 78.1722 L127.2814 69.6097 L132.0626 69.6097 L132.0626 70.4847 L128.2814 70.4847 L128.2814 73.6254 L131.8282 73.6254 L131.8282 74.516 L128.2814 74.516 L128.2814 78.1722 Z" /><ns0:path style="fill:rgb(230,0,0); stroke:none;" d="M-92.7945 15.9137 Q-92.7945 17.9762 -93.8336 19.1559 Q-94.8726 20.3356 -96.7164 20.3356 Q-98.607 20.3356 -99.6383 19.1715 Q-100.6695 18.0074 -100.6695 15.8981 Q-100.6695 13.8043 -99.6383 12.6559 Q-98.607 11.5074 -96.7164 11.5074 Q-94.857 11.5074 -93.8258 12.6793 Q-92.7945 13.8512 -92.7945 15.9137 ZM-99.6226 15.9137 Q-99.6226 17.6481 -98.8804 18.5543 Q-98.1383 19.4606 -96.7164 19.4606 Q-95.2945 19.4606 -94.5679 18.5621 Q-93.8414 17.6637 -93.8414 15.9137 Q-93.8414 14.1793 -94.5679 13.2887 Q-95.2945 12.3981 -96.7164 12.3981 Q-98.1383 12.3981 -98.8804 13.2965 Q-99.6226 14.1949 -99.6226 15.9137 Z" /><ns0:path style="fill:rgb(230,0,0); stroke:none;" d="M-144.7545 -14.0863 Q-144.7545 -12.0238 -145.7936 -10.8441 Q-146.8326 -9.6644 -148.6764 -9.6644 Q-150.567 -9.6644 -151.5983 -10.8285 Q-152.6295 -11.9926 -152.6295 -14.1019 Q-152.6295 -16.1957 -151.5983 -17.3441 Q-150.567 -18.4926 -148.6764 -18.4926 Q-146.817 -18.4926 -145.7858 -17.3207 Q-144.7545 -16.1488 -144.7545 -14.0863 ZM-151.5826 -14.0863 Q-151.5826 -12.3519 -150.8404 -11.4457 Q-150.0983 -10.5394 -148.6764 -10.5394 Q-147.2545 -10.5394 -146.5279 -11.4379 Q-145.8014 -12.3363 -145.8014 -14.0863 Q-145.8014 -15.8207 -146.5279 -16.7113 Q-147.2545 -17.6019 -148.6764 -17.6019 Q-150.0983 -17.6019 -150.8404 -16.7035 Q-151.5826 -15.8051 -151.5826 -14.0863 Z" /><ns0:path style="fill:none;" d="M39.922 22.489 L39.672 22.056 L39.1829 21.952" /><ns0:path style="fill:none;" d="M55.172 -3.924 L54.672 -3.924 L54.422 -3.491" /><ns0:path style="fill:rgb(0,5,255); stroke:none;" d="M13.6806 19.9753 L12.5399 19.9753 L7.8524 12.7878 L7.8056 12.7878 Q7.8993 14.0534 7.8993 15.1003 L7.8993 19.9753 L6.9774 19.9753 L6.9774 11.4128 L8.1024 11.4128 L12.7743 18.569 L12.8212 18.569 Q12.8212 18.4128 12.7743 17.5534 Q12.7274 16.694 12.7431 16.319 L12.7431 11.4128 L13.6806 11.4128 L13.6806 19.9753 Z" /><ns0:path style="fill:rgb(0,5,255); stroke:none;" d="M5.9774 19.9753 L4.9774 19.9753 L4.9774 15.944 L0.4618 15.944 L0.4618 19.9753 L-0.5382 19.9753 L-0.5382 11.4128 L0.4618 11.4128 L0.4618 15.0534 L4.9774 15.0534 L4.9774 11.4128 L5.9774 11.4128 L5.9774 19.9753 Z" /><ns0:path style="fill:none;" d="M54.422 47.603 L54.672 48.036 L55.172 48.036" /><ns0:path style="fill:rgb(0,5,255); stroke:none;" d="M37.9506 -22.0638 L36.8099 -22.0638 L32.1224 -29.2513 L32.0756 -29.2513 Q32.1693 -27.9856 32.1693 -26.9388 L32.1693 -22.0638 L31.2474 -22.0638 L31.2474 -30.6263 L32.3724 -30.6263 L37.0443 -23.47 L37.0912 -23.47 Q37.0912 -23.6263 37.0443 -24.4856 Q36.9974 -25.345 37.0131 -25.72 L37.0131 -30.6263 L37.9506 -30.6263 L37.9506 -22.0638 Z" /><ns0:path style="fill:none;" d="M84.172 -3.924 L84.672 -3.924 L84.922 -3.491" /><ns0:path style="fill:none;" d="M7.6508 -14.2194 L7.194 -14.016 L7.2463 -13.5187" /><ns0:path style="fill:none;" d="M84.172 48.036 L84.672 48.036 L84.922 47.603" /><ns0:path style="fill:none;" d="M99.422 22.489 L99.672 22.056 L100.172 22.056" /><ns0:path style="fill:none;" d="M-71.182 -28.766 L-70.749 -29.016 L-70.749 -29.516" /><ns0:path style="fill:none;" d="M-96.299 -14.266 L-96.732 -14.016 L-97.165 -14.266" /><ns0:path style="fill:rgb(0,5,255); stroke:none;" d="M-67.3974 -54.8598 L-68.5381 -54.8598 L-73.2256 -62.0473 L-73.2724 -62.0473 Q-73.1787 -60.7816 -73.1787 -59.7348 L-73.1787 -54.8598 L-74.1006 -54.8598 L-74.1006 -63.4223 L-72.9756 -63.4223 L-68.3037 -56.266 L-68.2568 -56.266 Q-68.2568 -56.4223 -68.3037 -57.2816 Q-68.3506 -58.141 -68.3349 -58.516 L-68.3349 -63.4223 L-67.3974 -63.4223 L-67.3974 -54.8598 Z" /><ns0:path style="fill:none;" d="M-122.712 -29.516 L-122.712 -29.016 L-123.145 -28.766" /><ns0:path style="fill:none;" d="M-96.299 -73.766 L-96.732 -74.016 L-97.165 -73.766" /><ns0:path style="fill:none;" d="M-122.712 -58.516 L-122.712 -59.016 L-122.279 -59.266" /></ns0:g></ns0:g></ns0:svg></ns0:svg><ns0:svg y="159" x="171" class="cas-substance-saf"><ns0:svg y="5" x="0" width="4" style="fill:black;" height="4" class="cas-substance-saf-dot"><ns0:circle stroke="none" r="2" fill="black" cy="2" cx="2" /></ns0:svg><ns0:svg y="0" x="8" width="20" style="fill:black;" height="15" class="cas-substance-saf-image"><ns0:svg><ns0:g><ns0:g transform="translate(10,7)" style="text-rendering:geometricPrecision; font-family:'Open Sans'; color-interpolation:linearRGB; color-rendering:optimizeQuality; image-rendering:optimizeQuality;"><ns0:path style="stroke:none;" d="M-0.0859 4.1562 L-1.2266 4.1562 L-5.9141 -3.0312 L-5.9609 -3.0312 Q-5.8672 -1.7656 -5.8672 -0.7188 L-5.8672 4.1562 L-6.7891 4.1562 L-6.7891 -4.4062 L-5.6641 -4.4062 L-0.9922 2.75 L-0.9453 2.75 Q-0.9453 2.5938 -0.9922 1.7344 Q-1.0391 0.875 -1.0234 0.5 L-1.0234 -4.4062 L-0.0859 -4.4062 L-0.0859 4.1562 ZM6.0703 4.1562 L5.8672 3.2344 L5.8203 3.2344 Q5.3516 3.8438 4.875 4.0625 Q4.3984 4.2812 3.6797 4.2812 Q2.7266 4.2812 2.1797 3.7812 Q1.6328 3.2812 1.6328 2.375 Q1.6328 0.4375 4.7422 0.3438 L5.8359 0.3125 L5.8359 -0.0938 Q5.8359 -0.8438 5.5156 -1.2031 Q5.1953 -1.5625 4.4766 -1.5625 Q3.6641 -1.5625 2.6641 -1.0781 L2.3516 -1.8281 Q2.8359 -2.0781 3.3984 -2.2266 Q3.9609 -2.375 4.5391 -2.375 Q5.6797 -2.375 6.2344 -1.8672 Q6.7891 -1.3594 6.7891 -0.2344 L6.7891 4.1562 L6.0703 4.1562 ZM3.8672 3.4688 Q4.7734 3.4688 5.2969 2.9688 Q5.8203 2.4688 5.8203 1.5781 L5.8203 1 L4.8359 1.0312 Q3.6797 1.0781 3.1719 1.3984 Q2.6641 1.7188 2.6641 2.3906 Q2.6641 2.9219 2.9766 3.1953 Q3.2891 3.4688 3.8672 3.4688 Z" /></ns0:g></ns0:g></ns0:svg></ns0:svg></ns0:svg><ns0:svg y="174" x="145" class="cas-substance-saf"><ns0:svg y="5" x="0" width="4" style="fill:black;" height="4" class="cas-substance-saf-dot"><ns0:circle stroke="none" r="2" fill="black" cy="2" cx="2" /></ns0:svg><ns0:svg y="0" x="7" width="23" style="fill:black;" height="15" class="cas-substance-saf-coefficient"><ns0:svg><ns0:g><ns0:g transform="translate(11,7)" style="text-rendering:geometricPrecision; font-family:'Open Sans'; color-interpolation:linearRGB; color-rendering:optimizeQuality; image-rendering:optimizeQuality;"><ns0:path style="stroke:none;" d="M-3.126 -2.3281 Q-3.126 -1.5156 -3.5869 -0.9922 Q-4.0479 -0.4688 -4.8916 -0.2969 L-4.8916 -0.25 Q-3.8604 -0.125 -3.3604 0.4062 Q-2.8604 0.9375 -2.8604 1.7969 Q-2.8604 3.0156 -3.7119 3.6797 Q-4.5635 4.3438 -6.126 4.3438 Q-6.7979 4.3438 -7.3682 4.2344 Q-7.9385 4.125 -8.4697 3.875 L-8.4697 2.9531 Q-7.9072 3.2188 -7.2744 3.3672 Q-6.6416 3.5156 -6.0791 3.5156 Q-3.8604 3.5156 -3.8604 1.7656 Q-3.8604 0.2031 -6.3135 0.2031 L-7.1572 0.2031 L-7.1572 -0.625 L-6.2979 -0.625 Q-5.2979 -0.625 -4.7119 -1.0703 Q-4.126 -1.5156 -4.126 -2.2969 Q-4.126 -2.9219 -4.5557 -3.2812 Q-4.9854 -3.6406 -5.7354 -3.6406 Q-6.2979 -3.6406 -6.79 -3.4844 Q-7.2822 -3.3281 -7.9229 -2.9219 L-8.4229 -3.5781 Q-7.8916 -4 -7.2041 -4.2344 Q-6.5166 -4.4688 -5.751 -4.4688 Q-4.501 -4.4688 -3.8135 -3.8984 Q-3.126 -3.3281 -3.126 -2.3281 ZM2.126 -4.3438 L-1.0615 4.2188 L-2.0303 4.2188 L1.1572 -4.3438 L2.126 -4.3438 ZM8.4697 4.2188 L2.8447 4.2188 L2.8447 3.375 L5.0947 1.1094 Q6.126 0.0625 6.4541 -0.3828 Q6.7822 -0.8281 6.9463 -1.25 Q7.1104 -1.6719 7.1104 -2.1562 Q7.1104 -2.8438 6.6963 -3.2422 Q6.2822 -3.6406 5.5322 -3.6406 Q5.001 -3.6406 4.5244 -3.4609 Q4.0479 -3.2812 3.4697 -2.8281 L2.9541 -3.4844 Q4.126 -4.4688 5.5322 -4.4688 Q6.7354 -4.4688 7.4229 -3.8516 Q8.1104 -3.2344 8.1104 -2.1875 Q8.1104 -1.375 7.6494 -0.5781 Q7.1885 0.2188 5.9385 1.4375 L4.0635 3.2656 L4.0635 3.3125 L8.4697 3.3125 L8.4697 4.2188 Z" /></ns0:g></ns0:g></ns0:svg></ns0:svg><ns0:svg y="0" x="34" width="26" style="fill:black;" height="17" class="cas-substance-saf-image"><ns0:svg><ns0:g><ns0:g transform="translate(6,8)" style="fill:rgb(230,0,0); text-rendering:geometricPrecision; color-rendering:optimizeQuality; image-rendering:optimizeQuality; font-family:'Open Sans'; stroke:rgb(230,0,0); color-interpolation:linearRGB;"><ns0:path style="stroke:none;" d="M3.2578 4.1562 L2.2578 4.1562 L2.2578 0.125 L-2.2578 0.125 L-2.2578 4.1562 L-3.2578 4.1562 L-3.2578 -4.4062 L-2.2578 -4.4062 L-2.2578 -0.7656 L2.2578 -0.7656 L2.2578 -4.4062 L3.2578 -4.4062 L3.2578 4.1562 Z" /><ns0:path style="stroke:none;" d="M8.0078 5.9656 L4.2578 5.9656 L4.2578 5.4031 L5.7578 3.8875 Q6.4453 3.2 6.6641 2.9031 Q6.8828 2.6062 6.9922 2.325 Q7.1016 2.0437 7.1016 1.7156 Q7.1016 1.2625 6.8281 0.9969 Q6.5547 0.7312 6.0547 0.7312 Q5.7109 0.7312 5.3906 0.8484 Q5.0703 0.9656 4.6797 1.2625 L4.3359 0.825 Q5.1172 0.1687 6.0547 0.1687 Q6.8516 0.1687 7.3125 0.5828 Q7.7734 0.9969 7.7734 1.6844 Q7.7734 2.2312 7.4688 2.7625 Q7.1641 3.2937 6.3203 4.1062 L5.0703 5.325 L5.0703 5.3562 L8.0078 5.3562 L8.0078 5.9656 Z" /><ns0:path style="stroke:none;" d="M16.8828 -0.1406 Q16.8828 1.9219 15.8438 3.1016 Q14.8047 4.2812 12.9609 4.2812 Q11.0703 4.2812 10.0391 3.1172 Q9.0078 1.9531 9.0078 -0.1562 Q9.0078 -2.25 10.0391 -3.3984 Q11.0703 -4.5469 12.9609 -4.5469 Q14.8203 -4.5469 15.8516 -3.375 Q16.8828 -2.2031 16.8828 -0.1406 ZM10.0547 -0.1406 Q10.0547 1.5938 10.7969 2.5 Q11.5391 3.4062 12.9609 3.4062 Q14.3828 3.4062 15.1094 2.5078 Q15.8359 1.6094 15.8359 -0.1406 Q15.8359 -1.875 15.1094 -2.7656 Q14.3828 -3.6562 12.9609 -3.6562 Q11.5391 -3.6562 10.7969 -2.7578 Q10.0547 -1.8594 10.0547 -0.1406 Z" /></ns0:g></ns0:g></ns0:svg></ns0:svg></ns0:svg></ns0:svg></ns0:svg></g></svg>