<svg width="374" viewBox="0 0 374 45" style="fill-opacity:1; color-rendering:auto; color-interpolation:auto; text-rendering:auto; stroke:black; stroke-linecap:square; stroke-miterlimit:10; shape-rendering:auto; stroke-opacity:1; fill:black; stroke-dasharray:none; font-weight:normal; stroke-width:1; font-family:'Open Sans'; font-style:normal; stroke-linejoin:miter; font-size:12; stroke-dashoffset:0; image-rendering:auto;" height="45" class="cas-substance-image" xmlns:xlink="http://www.w3.org/1999/xlink" xmlns="http://www.w3.org/2000/svg"><svg class="cas-substance-single-component"><rect y="0" x="0" width="374" stroke="none" ry="7" rx="7" height="45" fill="white" class="cas-substance-group"/><svg y="0" x="0" width="374" viewBox="0 0 374 45" style="fill:black;" height="45" class="cas-substance-single-component-image"><svg><g><g transform="translate(185,22)" style="text-rendering:geometricPrecision; color-rendering:optimizeQuality; color-interpolation:linearRGB; stroke-linecap:butt; image-rendering:optimizeQuality;"><line y2="-15" y1="0" x2="-25.98" x1="0" style="fill:none;"/><line y2="-15" y1="0" x2="25.98" x1="0" style="fill:none;"/><line y2="0" y1="-15" x2="-51.963" x1="-25.98" style="fill:none;"/><line y2="0" y1="-15" x2="51.963" x1="25.98" style="fill:none;"/><line y2="-15" y1="0" x2="-77.943" x1="-51.963" style="fill:none;"/><line y2="-15" y1="0" x2="77.943" x1="51.963" style="fill:none;"/><line y2="0" y1="-15" x2="-103.923" x1="-77.943" style="fill:none;"/><line y2="0" y1="-15" x2="103.923" x1="77.943" style="fill:none;"/><line y2="-15" y1="0" x2="-129.903" x1="-103.923" style="fill:none;"/><line y2="-12.0649" y1="0" x2="124.8194" x1="103.923" style="fill:none;"/><line y2="0" y1="-15" x2="-155.886" x1="-129.903" style="fill:none;"/><line y2="-1.2524" y1="-10.5496" x2="150.2163" x1="134.1117" style="fill:none;"/><line y2="-4.2836" y1="-13.5808" x2="151.9662" x1="135.8616" style="fill:none;"/><line y2="-15" y1="0" x2="-181.866" x1="-155.886" style="fill:none;"/><line y2="13.2741" y1="4.1742" x2="175.3768" x1="159.6158" style="fill:none;"/><line y2="10.243" y1="1.1431" x2="177.1269" x1="161.3658" style="fill:none;"/><path style="fill:none; stroke-miterlimit:5;" d="M-0.433 -0.25 L0 0 L0.433 -0.25"/><path style="fill:none; stroke-miterlimit:5;" d="M-25.547 -14.75 L-25.98 -15 L-26.413 -14.75"/><path style="fill:none; stroke-miterlimit:5;" d="M25.547 -14.75 L25.98 -15 L26.413 -14.75"/><path style="fill:none; stroke-miterlimit:5;" d="M-51.53 -0.25 L-51.963 0 L-52.396 -0.25"/><path style="fill:none; stroke-miterlimit:5;" d="M51.53 -0.25 L51.963 0 L52.396 -0.25"/><path style="fill:none; stroke-miterlimit:5;" d="M-77.51 -14.75 L-77.943 -15 L-78.376 -14.75"/><path style="fill:none; stroke-miterlimit:5;" d="M77.51 -14.75 L77.943 -15 L78.376 -14.75"/><path style="fill:none; stroke-miterlimit:5;" d="M-103.49 -0.25 L-103.923 0 L-104.356 -0.25"/><path style="fill:none; stroke-miterlimit:5;" d="M103.49 -0.25 L103.923 0 L104.356 -0.25"/><path style="fill:none; stroke-miterlimit:5;" d="M-129.47 -14.75 L-129.903 -15 L-130.336 -14.75"/></g><g transform="translate(185,22)" style="stroke-linecap:butt; fill:rgb(0,5,255); text-rendering:geometricPrecision; color-rendering:optimizeQuality; image-rendering:optimizeQuality; font-family:'Open Sans'; stroke:rgb(0,5,255); color-interpolation:linearRGB; stroke-miterlimit:5;"><path style="stroke:none;" d="M133.2546 -10.8438 L132.1139 -10.8438 L127.4264 -18.0312 L127.3796 -18.0312 Q127.4733 -16.7656 127.4733 -15.7188 L127.4733 -10.8438 L126.5514 -10.8438 L126.5514 -19.4062 L127.6764 -19.4062 L132.3483 -12.25 L132.3952 -12.25 Q132.3952 -12.4062 132.3483 -13.2656 Q132.3014 -14.125 132.3171 -14.5 L132.3171 -19.4062 L133.2546 -19.4062 L133.2546 -10.8438 Z"/><path style="fill:none; stroke:black;" d="M-155.453 -0.25 L-155.886 0 L-156.319 -0.25"/><path style="fill:black; stroke:none;" d="M156.7532 -3.5781 Q155.3469 -3.5781 154.5266 -2.6406 Q153.7063 -1.7031 153.7063 -0.0625 Q153.7063 1.6094 154.4954 2.5312 Q155.2844 3.4531 156.7376 3.4531 Q157.6438 3.4531 158.7844 3.125 L158.7844 4 Q157.8938 4.3438 156.5969 4.3438 Q154.7063 4.3438 153.6751 3.1875 Q152.6438 2.0312 152.6438 -0.0781 Q152.6438 -1.4062 153.136 -2.3984 Q153.6282 -3.3906 154.5657 -3.9297 Q155.5032 -4.4688 156.7688 -4.4688 Q158.1126 -4.4688 159.1282 -3.9844 L158.7063 -3.125 Q157.7219 -3.5781 156.7532 -3.5781 Z"/><path style="fill:rgb(230,0,0); stroke:none;" d="M185.8035 14.9297 Q185.8035 16.9922 184.7644 18.1719 Q183.7254 19.3516 181.8816 19.3516 Q179.991 19.3516 178.9597 18.1875 Q177.9285 17.0234 177.9285 14.9141 Q177.9285 12.8203 178.9597 11.6719 Q179.991 10.5234 181.8816 10.5234 Q183.741 10.5234 184.7722 11.6953 Q185.8035 12.8672 185.8035 14.9297 ZM178.9754 14.9297 Q178.9754 16.6641 179.7176 17.5703 Q180.4597 18.4766 181.8816 18.4766 Q183.3035 18.4766 184.0301 17.5781 Q184.7566 16.6797 184.7566 14.9297 Q184.7566 13.1953 184.0301 12.3047 Q183.3035 11.4141 181.8816 11.4141 Q180.4597 11.4141 179.7176 12.3125 Q178.9754 13.2109 178.9754 14.9297 Z"/></g></g></svg></svg></svg></svg>