<svg width="126" viewBox="0 0 126 101" style="fill-opacity:1; color-rendering:auto; color-interpolation:auto; text-rendering:auto; stroke:black; stroke-linecap:square; stroke-miterlimit:10; shape-rendering:auto; stroke-opacity:1; fill:black; stroke-dasharray:none; font-weight:normal; stroke-width:1; font-family:'Open Sans'; font-style:normal; stroke-linejoin:miter; font-size:12; stroke-dashoffset:0; image-rendering:auto;" height="101" class="cas-substance-image" xmlns:xlink="http://www.w3.org/1999/xlink" xmlns="http://www.w3.org/2000/svg"><svg class="cas-substance-single-component"><rect y="0" x="0" width="126" stroke="none" ry="7" rx="7" height="101" fill="white" class="cas-substance-group"/><svg y="0" x="0" width="126" viewBox="0 0 126 101" style="fill:black;" height="101" class="cas-substance-single-component-image"><svg><g><g transform="translate(71,49)" style="text-rendering:geometricPrecision; color-rendering:optimizeQuality; color-interpolation:linearRGB; stroke-linecap:butt; image-rendering:optimizeQuality;"><line y2="15" y1="38.6138" x2="0" x1="0" style="fill:none;"/><line y2="0" y1="12.0652" x2="-25.98" x1="-46.8794" style="fill:none;"/><line y2="0" y1="15" x2="25.98" x1="51.963" style="fill:none;"/><line y2="0" y1="15" x2="-25.98" x1="0" style="fill:none;"/><line y2="0" y1="15" x2="25.98" x1="0" style="fill:none;"/><line y2="-2.0207" y1="10.9585" x2="22.48" x1="-0.0001" style="fill:none;"/><line y2="-30" y1="0" x2="-25.98" x1="-25.98" style="fill:none;"/><line y2="-27.9793" y1="-2.0207" x2="-22.48" x1="-22.48" style="fill:none;"/><line y2="-23.8438" y1="0" x2="25.98" x1="25.98" style="fill:none;"/><line y2="-45" y1="-30" x2="0" x1="-25.98" style="fill:none;"/><line y2="-45" y1="-32.9351" x2="0" x1="20.8964" style="fill:none;"/><line y2="-40.9585" y1="-29.904" x2="-0.0001" x1="19.1464" style="fill:none;"/></g><g transform="translate(71,49)" style="fill:rgb(0,138,0); text-rendering:geometricPrecision; color-rendering:optimizeQuality; image-rendering:optimizeQuality; font-family:'Open Sans'; stroke:rgb(0,138,0); color-interpolation:linearRGB;"><path style="stroke:none;" d="M-0.3086 41.6406 Q-1.7148 41.6406 -2.5352 42.5781 Q-3.3555 43.5156 -3.3555 45.1562 Q-3.3555 46.8281 -2.5664 47.75 Q-1.7773 48.6719 -0.3242 48.6719 Q0.582 48.6719 1.7227 48.3438 L1.7227 49.2188 Q0.832 49.5625 -0.4648 49.5625 Q-2.3555 49.5625 -3.3867 48.4062 Q-4.418 47.25 -4.418 45.1406 Q-4.418 43.8125 -3.9258 42.8203 Q-3.4336 41.8281 -2.4961 41.2891 Q-1.5586 40.75 -0.293 40.75 Q1.0508 40.75 2.0664 41.2344 L1.6445 42.0938 Q0.6602 41.6406 -0.3086 41.6406 ZM4.418 49.4375 L3.4492 49.4375 L3.4492 40.3125 L4.418 40.3125 L4.418 49.4375 Z"/><path style="fill:rgb(0,5,255); stroke:none;" d="M-48.6114 19.1562 L-49.7521 19.1562 L-54.4396 11.9688 L-54.4864 11.9688 Q-54.3927 13.2344 -54.3927 14.2812 L-54.3927 19.1562 L-55.3146 19.1562 L-55.3146 10.5938 L-54.1896 10.5938 L-49.5177 17.75 L-49.4708 17.75 Q-49.4708 17.5938 -49.5177 16.7344 Q-49.5646 15.875 -49.5489 15.5 L-49.5489 10.5938 L-48.6114 10.5938 L-48.6114 19.1562 Z"/><path style="fill:rgb(0,5,255); stroke:none;" d="M-61.0646 19.1562 L-62.0646 19.1562 L-62.0646 15.125 L-66.5802 15.125 L-66.5802 19.1562 L-67.5802 19.1562 L-67.5802 10.5938 L-66.5802 10.5938 L-66.5802 14.2344 L-62.0646 14.2344 L-62.0646 10.5938 L-61.0646 10.5938 L-61.0646 19.1562 Z"/><path style="fill:rgb(0,5,255); stroke:none;" d="M-56.3146 20.9656 L-60.0646 20.9656 L-60.0646 20.4031 L-58.5646 18.8875 Q-57.8771 18.2 -57.6583 17.9031 Q-57.4396 17.6063 -57.3302 17.325 Q-57.2208 17.0438 -57.2208 16.7156 Q-57.2208 16.2625 -57.4943 15.9969 Q-57.7677 15.7313 -58.2677 15.7313 Q-58.6114 15.7313 -58.9318 15.8484 Q-59.2521 15.9656 -59.6427 16.2625 L-59.9864 15.825 Q-59.2052 15.1688 -58.2677 15.1688 Q-57.4708 15.1688 -57.0099 15.5828 Q-56.5489 15.9969 -56.5489 16.6844 Q-56.5489 17.2313 -56.8536 17.7625 Q-57.1583 18.2938 -58.0021 19.1063 L-59.2521 20.325 L-59.2521 20.3563 L-56.3146 20.3563 L-56.3146 20.9656 Z"/></g><g transform="translate(71,49)" style="stroke-linecap:butt; font-size:8.4px; text-rendering:geometricPrecision; color-rendering:optimizeQuality; image-rendering:optimizeQuality; font-family:'Open Sans'; color-interpolation:linearRGB; stroke-miterlimit:5;"><path style="fill:none;" d="M0.433 14.75 L0 15 L-0 15.5"/><path style="fill:none;" d="M-25.98 -0.5 L-25.98 0 L-26.413 0.25"/><path style="fill:none;" d="M25.547 0.25 L25.98 0 L25.98 -0.5"/><path style="fill:none;" d="M-25.98 -29.5 L-25.98 -30 L-25.547 -30.25"/><path style="fill:rgb(0,5,255); stroke:none;" d="M29.3316 -25.8438 L28.1909 -25.8438 L23.5034 -33.0312 L23.4566 -33.0312 Q23.5503 -31.7656 23.5503 -30.7188 L23.5503 -25.8438 L22.6284 -25.8438 L22.6284 -34.4062 L23.7534 -34.4062 L28.4253 -27.25 L28.4722 -27.25 Q28.4722 -27.4062 28.4253 -28.2656 Q28.3784 -29.125 28.3941 -29.5 L28.3941 -34.4062 L29.3316 -34.4062 L29.3316 -25.8438 Z"/><path style="fill:none;" d="M-0.433 -44.75 L0 -45 L0.433 -44.75"/></g></g></svg></svg></svg></svg>