<svg width="301" viewBox="0 0 301 218" style="fill-opacity:1; color-rendering:auto; color-interpolation:auto; text-rendering:auto; stroke:black; stroke-linecap:square; stroke-miterlimit:10; shape-rendering:auto; stroke-opacity:1; fill:black; stroke-dasharray:none; font-weight:normal; stroke-width:1; font-family:'Open Sans'; font-style:normal; stroke-linejoin:miter; font-size:12; stroke-dashoffset:0; image-rendering:auto;" height="218" class="cas-substance-image" xmlns:xlink="http://www.w3.org/1999/xlink" xmlns="http://www.w3.org/2000/svg"><svg class="cas-substance-single-component"><rect y="0" x="0" width="301" stroke="none" ry="7" rx="7" height="218" fill="white" class="cas-substance-group"/><svg y="0" x="0" width="301" viewBox="0 0 301 218" style="fill:black;" height="218" class="cas-substance-single-component-image"><svg><g><g transform="translate(145,107)" style="text-rendering:geometricPrecision; color-rendering:optimizeQuality; color-interpolation:linearRGB; stroke-linecap:butt; image-rendering:optimizeQuality;"><line y2="0" y1="0" x2="-38.406" x1="-68.406" style="fill:none;"/><line y2="-3.5" y1="-3.5" x2="-40.4267" x1="-66.3853" style="fill:none;"/></g><g transform="translate(145,107)" style="stroke-linecap:butt; font-size:8.4px; fill:gray; text-rendering:geometricPrecision; image-rendering:optimizeQuality; color-rendering:optimizeQuality; font-family:'Open Sans'; font-style:italic; stroke:gray; color-interpolation:linearRGB;"><path style="stroke:none;" d="M-57.5534 11.1641 Q-57.5534 9.8359 -57.0846 8.7109 Q-56.6159 7.5859 -55.5846 6.5078 L-54.9752 6.5078 Q-55.944 7.5703 -56.4284 8.7422 Q-56.9127 9.9141 -56.9127 11.1484 Q-56.9127 12.4766 -56.4752 13.4922 L-56.9909 13.4922 Q-57.5534 12.4609 -57.5534 11.1641 ZM-52.2902 12.2266 L-55.1496 12.2266 L-53.9464 6.5078 L-51.0714 6.5078 L-51.1964 7.1172 L-53.4152 7.1172 L-53.7902 8.9453 L-51.7433 8.9453 L-51.8527 9.5391 L-53.9152 9.5391 L-54.3683 11.6328 L-52.1496 11.6328 L-52.2902 12.2266 ZM-49.2586 8.8516 Q-49.2586 10.1797 -49.7352 11.3125 Q-50.2118 12.4453 -51.2274 13.4922 L-51.8368 13.4922 Q-49.8993 11.3359 -49.8993 8.8516 Q-49.8993 7.5234 -50.3368 6.5078 L-49.8211 6.5078 Q-49.2586 7.5703 -49.2586 8.8516 Z"/><line y2="25.98" y1="0" x2="-83.406" x1="-68.406" style="fill:none; stroke:black;"/><line y2="-25.98" y1="0" x2="-23.406" x1="-38.406" style="fill:none; stroke:black;"/><line y2="-25.98" y1="-25.98" x2="6.594" x1="-23.406" style="fill:none; stroke:black;"/><line y2="-29.48" y1="-29.48" x2="4.5733" x1="-21.3853" style="fill:none; stroke:black;"/><path style="stroke:none;" d="M-12.5534 -14.8159 Q-12.5534 -16.1441 -12.0846 -17.2691 Q-11.6159 -18.3941 -10.5846 -19.4722 L-9.9752 -19.4722 Q-10.944 -18.4097 -11.4284 -17.2378 Q-11.9127 -16.0659 -11.9127 -14.8316 Q-11.9127 -13.5034 -11.4752 -12.4878 L-11.9909 -12.4878 Q-12.5534 -13.5191 -12.5534 -14.8159 ZM-7.2902 -13.7534 L-10.1496 -13.7534 L-8.9464 -19.4722 L-6.0714 -19.4722 L-6.1964 -18.8628 L-8.4152 -18.8628 L-8.7902 -17.0347 L-6.7433 -17.0347 L-6.8527 -16.4409 L-8.9152 -16.4409 L-9.3683 -14.3472 L-7.1496 -14.3472 L-7.2902 -13.7534 ZM-4.2586 -17.1284 Q-4.2586 -15.8003 -4.7352 -14.6675 Q-5.2118 -13.5347 -6.2274 -12.4878 L-6.8368 -12.4878 Q-4.8993 -14.6441 -4.8993 -17.1284 Q-4.8993 -18.4566 -5.3368 -19.4722 L-4.8211 -19.4722 Q-4.2586 -18.4097 -4.2586 -17.1284 Z"/><line y2="-51.963" y1="-25.98" x2="-38.406" x1="-23.406" style="fill:none; stroke:black;"/><line y2="-51.963" y1="-25.98" x2="21.594" x1="6.594" style="fill:none; stroke:black;"/><line y2="-51.963" y1="-51.963" x2="51.594" x1="21.594" style="fill:none; stroke:black;"/><line y2="-55.463" y1="-55.463" x2="49.5733" x1="23.6147" style="fill:none; stroke:black;"/><path style="stroke:none;" d="M32.4466 -40.7989 Q32.4466 -42.1271 32.9154 -43.2521 Q33.3841 -44.3771 34.4154 -45.4552 L35.0248 -45.4552 Q34.056 -44.3927 33.5716 -43.2208 Q33.0873 -42.0489 33.0873 -40.8146 Q33.0873 -39.4864 33.5248 -38.4708 L33.0091 -38.4708 Q32.4466 -39.5021 32.4466 -40.7989 ZM37.7098 -39.7364 L34.8504 -39.7364 L36.0536 -45.4552 L38.9286 -45.4552 L38.8036 -44.8458 L36.5848 -44.8458 L36.2098 -43.0177 L38.2567 -43.0177 L38.1473 -42.4239 L36.0848 -42.4239 L35.6317 -40.3302 L37.8504 -40.3302 L37.7098 -39.7364 ZM40.7414 -43.1114 Q40.7414 -41.7833 40.2648 -40.6505 Q39.7882 -39.5177 38.7726 -38.4708 L38.1632 -38.4708 Q40.1007 -40.6271 40.1007 -43.1114 Q40.1007 -44.4396 39.6632 -45.4552 L40.1789 -45.4552 Q40.7414 -44.3927 40.7414 -43.1114 Z"/><line y2="-77.943" y1="-51.963" x2="66.594" x1="51.594" style="fill:none; stroke:black;"/><line y2="-77.943" y1="-77.943" x2="96.594" x1="66.594" style="fill:none; stroke:black;"/><line y2="-74.443" y1="-74.443" x2="94.5733" x1="68.6147" style="fill:none; stroke:black;"/><path style="stroke:none;" d="M77.3648 -66.7789 Q77.3648 -68.1071 77.8336 -69.2321 Q78.3023 -70.3571 79.3336 -71.4352 L79.943 -71.4352 Q78.9742 -70.3727 78.4898 -69.2008 Q78.0055 -68.0289 78.0055 -66.7946 Q78.0055 -65.4664 78.443 -64.4508 L77.9273 -64.4508 Q77.3648 -65.4821 77.3648 -66.7789 ZM82.878 -65.7164 L79.3624 -65.7164 L79.4718 -66.2477 L83.0812 -70.8258 L80.5187 -70.8258 L80.6437 -71.4352 L84.003 -71.4352 L83.8937 -70.8883 L80.2843 -66.3258 L83.0187 -66.3258 L82.878 -65.7164 ZM85.8232 -69.0914 Q85.8232 -67.7633 85.3466 -66.6305 Q84.87 -65.4977 83.8544 -64.4508 L83.245 -64.4508 Q85.1825 -66.6071 85.1825 -69.0914 Q85.1825 -70.4196 84.745 -71.4352 L85.2607 -71.4352 Q85.8232 -70.3727 85.8232 -69.0914 Z"/><line y2="-103.923" y1="-77.943" x2="51.594" x1="66.594" style="fill:none; stroke:black;"/><line y2="-51.963" y1="-77.943" x2="111.594" x1="96.594" style="fill:none; stroke:black;"/><line y2="-51.963" y1="-51.963" x2="135.6565" x1="111.594" style="fill:none; stroke:black;"/><line y2="-32.5769" y1="-53.713" x2="98.3817" x1="110.5836" style="fill:none; stroke:black;"/><line y2="-30.827" y1="-51.963" x2="101.4128" x1="113.6147" style="fill:none; stroke:black;"/><line y2="25.98" y1="15.72" x2="-113.406" x1="-141.594" style="fill:none; stroke:black;"/><line y2="25.98" y1="-3.564" x2="-113.406" x1="-108.195" style="fill:none; stroke:black;"/><line y2="51.963" y1="51.963" x2="-68.406" x1="-38.406" style="fill:none; stroke:black;"/><line y2="76.193" y1="97.3204" x2="-82.3956" x1="-70.1974" style="fill:none; stroke:black;"/><line y2="77.943" y1="99.0704" x2="-85.4267" x1="-73.2285" style="fill:none; stroke:black;"/><line y2="25.98" y1="25.98" x2="-113.406" x1="-83.406" style="fill:none; stroke:black;"/><line y2="51.963" y1="25.98" x2="-68.406" x1="-83.406" style="fill:none; stroke:black;"/><line y2="51.9628" y1="29.4799" x2="-72.4474" x1="-85.4268" style="fill:none; stroke:black;"/><line y2="51.963" y1="25.98" x2="-128.406" x1="-113.406" style="fill:none; stroke:black;"/><line y2="77.943" y1="51.963" x2="-83.406" x1="-68.406" style="fill:none; stroke:black;"/><line y2="77.943" y1="51.963" x2="-113.406" x1="-128.406" style="fill:none; stroke:black;"/><line y2="77.943" y1="77.943" x2="-113.406" x1="-83.406" style="fill:none; stroke:black;"/><path style="fill:none; stroke-miterlimit:5; stroke:black;" d="M-67.906 0 L-68.406 0 L-68.656 0.433"/><path style="fill:none; stroke-miterlimit:5; stroke:black;" d="M-38.906 -0 L-38.406 0 L-38.156 -0.433"/><path style="fill:none; stroke-miterlimit:5; stroke:black;" d="M-22.906 -25.98 L-23.406 -25.98 L-23.656 -25.547"/><path style="fill:none; stroke-miterlimit:5; stroke:black;" d="M6.094 -25.98 L6.594 -25.98 L6.844 -26.413"/><path style="fill:none; stroke-miterlimit:5; stroke:black;" d="M21.344 -51.53 L21.594 -51.963 L22.094 -51.963"/><path style="fill:none; stroke-miterlimit:5; stroke:black;" d="M51.094 -51.963 L51.594 -51.963 L51.844 -52.396"/><path style="fill:none; stroke-miterlimit:5; stroke:black;" d="M67.094 -77.943 L66.594 -77.943 L66.344 -77.51"/><path style="fill:none; stroke-miterlimit:5; stroke:black;" d="M96.094 -77.943 L96.594 -77.943 L96.844 -77.51"/><path style="fill:none; stroke-miterlimit:5; stroke:black;" d="M111.344 -52.396 L111.594 -51.963 L112.094 -51.963"/></g><g transform="translate(145,107)" style="stroke-linecap:butt; fill:rgb(230,0,0); text-rendering:geometricPrecision; color-rendering:optimizeQuality; image-rendering:optimizeQuality; font-family:'Open Sans'; stroke:rgb(230,0,0); color-interpolation:linearRGB; stroke-miterlimit:5;"><path style="stroke:none;" d="M145.5315 -52.0333 Q145.5315 -49.9708 144.4924 -48.7911 Q143.4534 -47.6114 141.6096 -47.6114 Q139.719 -47.6114 138.6877 -48.7755 Q137.6565 -49.9396 137.6565 -52.0489 Q137.6565 -54.1427 138.6877 -55.2911 Q139.719 -56.4396 141.6096 -56.4396 Q143.469 -56.4396 144.5002 -55.2677 Q145.5315 -54.0958 145.5315 -52.0333 ZM138.7034 -52.0333 Q138.7034 -50.2989 139.4456 -49.3927 Q140.1877 -48.4864 141.6096 -48.4864 Q143.0315 -48.4864 143.7581 -49.3849 Q144.4846 -50.2833 144.4846 -52.0333 Q144.4846 -53.7677 143.7581 -54.6583 Q143.0315 -55.5489 141.6096 -55.5489 Q140.1877 -55.5489 139.4456 -54.6505 Q138.7034 -53.7521 138.7034 -52.0333 Z"/><path style="stroke:none;" d="M153.0471 -47.7364 L152.0471 -47.7364 L152.0471 -51.7677 L147.5315 -51.7677 L147.5315 -47.7364 L146.5315 -47.7364 L146.5315 -56.2989 L147.5315 -56.2989 L147.5315 -52.6583 L152.0471 -52.6583 L152.0471 -56.2989 L153.0471 -56.2989 L153.0471 -47.7364 Z"/><path style="stroke:none;" d="M100.5315 -26.0503 Q100.5315 -23.9878 99.4924 -22.8081 Q98.4534 -21.6284 96.6096 -21.6284 Q94.719 -21.6284 93.6878 -22.7925 Q92.6565 -23.9566 92.6565 -26.0659 Q92.6565 -28.1597 93.6878 -29.3081 Q94.719 -30.4566 96.6096 -30.4566 Q98.469 -30.4566 99.5003 -29.2847 Q100.5315 -28.1128 100.5315 -26.0503 ZM93.7034 -26.0503 Q93.7034 -24.3159 94.4456 -23.4097 Q95.1878 -22.5034 96.6096 -22.5034 Q98.0315 -22.5034 98.7581 -23.4019 Q99.4846 -24.3003 99.4846 -26.0503 Q99.4846 -27.7847 98.7581 -28.6753 Q98.0315 -29.5659 96.6096 -29.5659 Q95.1878 -29.5659 94.4456 -28.6675 Q93.7034 -27.7691 93.7034 -26.0503 Z"/><path style="stroke:none;" d="M-64.4685 103.8527 Q-64.4685 105.9152 -65.5076 107.0949 Q-66.5466 108.2746 -68.3904 108.2746 Q-70.281 108.2746 -71.3122 107.1105 Q-72.3435 105.9464 -72.3435 103.8371 Q-72.3435 101.7433 -71.3122 100.5949 Q-70.281 99.4464 -68.3904 99.4464 Q-66.531 99.4464 -65.4997 100.6183 Q-64.4685 101.7902 -64.4685 103.8527 ZM-71.2966 103.8527 Q-71.2966 105.5871 -70.5544 106.4933 Q-69.8122 107.3996 -68.3904 107.3996 Q-66.9685 107.3996 -66.2419 106.5011 Q-65.5154 105.6027 -65.5154 103.8527 Q-65.5154 102.1183 -66.2419 101.2277 Q-66.9685 100.3371 -68.3904 100.3371 Q-69.8122 100.3371 -70.5544 101.2355 Q-71.2966 102.1339 -71.2966 103.8527 Z"/><path style="fill:none; stroke:black;" d="M-83.156 26.413 L-83.406 25.98 L-83.156 25.547"/><path style="fill:none; stroke:black;" d="M-68.656 51.53 L-68.406 51.963 L-67.906 51.963"/><path style="fill:none; stroke:black;" d="M-128.156 51.53 L-128.406 51.963 L-128.156 52.396"/><path style="fill:none; stroke:black;" d="M-83.156 77.51 L-83.406 77.943 L-83.906 77.943"/><path style="fill:none; stroke:black;" d="M-113.656 77.51 L-113.406 77.943 L-112.906 77.943"/></g></g></svg></svg></svg></svg>