<svg xmlns:ns0="http://www.w3.org/2000/svg" xmlns="http://www.w3.org/2000/svg"><g transform="translate(0, 0)"><ns0:svg width="303" viewBox="0 0 303 28" style="fill-opacity:1; color-rendering:auto; color-interpolation:auto; text-rendering:auto; stroke:black; stroke-linecap:square; stroke-miterlimit:10; shape-rendering:auto; stroke-opacity:1; fill:black; stroke-dasharray:none; font-weight:normal; stroke-width:1; font-family:'Open Sans'; font-style:normal; stroke-linejoin:miter; font-size:12; stroke-dashoffset:0; image-rendering:auto;" height="28" class="cas-substance-image"><ns0:svg class="cas-substance-single-component"><ns0:rect y="0" x="0" width="303" stroke="none" ry="7" rx="7" height="28" fill="white" class="cas-substance-group" /><ns0:svg y="0" x="0" width="303" viewBox="0 0 303 28" style="fill:black;" height="28" class="cas-substance-single-component-image"><ns0:svg><ns0:g><ns0:g transform="translate(146,13)" style="text-rendering:geometricPrecision; color-rendering:optimizeQuality; color-interpolation:linearRGB; stroke-linecap:butt; image-rendering:optimizeQuality;"><ns0:line y2="-7.5" y1="7.5" x2="12.99" x1="-12.99" style="fill:none;" /><ns0:line y2="-7.5" y1="7.5" x2="-38.97" x1="-12.99" style="fill:none;" /><ns0:line y2="7.5" y1="-7.5" x2="38.97" x1="12.99" style="fill:none;" /><ns0:line y2="7.5" y1="-7.5" x2="-64.953" x1="-38.97" style="fill:none;" /><ns0:line y2="-7.5" y1="7.5" x2="64.953" x1="38.97" style="fill:none;" /><ns0:line y2="-7.5" y1="7.5" x2="-90.933" x1="-64.953" style="fill:none;" /><ns0:line y2="7.5" y1="-7.5" x2="90.933" x1="64.953" style="fill:none;" /><ns0:line y2="3.4585" y1="-9.5207" x2="90.9331" x1="68.453" style="fill:none;" /><ns0:line y2="7.5" y1="-7.5" x2="-116.913" x1="-90.933" style="fill:none;" /><ns0:line y2="-7.5" y1="7.5" x2="116.913" x1="90.933" style="fill:none;" /><ns0:line y2="-7.5" y1="7.5" x2="-142.893" x1="-116.913" style="fill:none;" /><ns0:line y2="4.2586" y1="-7.5" x2="137.2789" x1="116.913" style="fill:none;" /><ns0:path style="fill:none; stroke-miterlimit:5;" d="M-12.557 7.25 L-12.99 7.5 L-13.423 7.25" /><ns0:path style="fill:none; stroke-miterlimit:5;" d="M12.557 -7.25 L12.99 -7.5 L13.423 -7.25" /><ns0:path style="fill:none; stroke-miterlimit:5;" d="M-38.537 -7.25 L-38.97 -7.5 L-39.403 -7.25" /><ns0:path style="fill:none; stroke-miterlimit:5;" d="M38.537 7.25 L38.97 7.5 L39.403 7.25" /><ns0:path style="fill:none; stroke-miterlimit:5;" d="M-64.52 7.25 L-64.953 7.5 L-65.386 7.25" /><ns0:path style="fill:none; stroke-miterlimit:5;" d="M64.52 -7.25 L64.953 -7.5 L65.386 -7.25" /><ns0:path style="fill:none; stroke-miterlimit:5;" d="M-90.5 -7.25 L-90.933 -7.5 L-91.366 -7.25" /><ns0:path style="fill:none; stroke-miterlimit:5;" d="M90.5 7.25 L90.933 7.5 L91.366 7.25" /><ns0:path style="fill:none; stroke-miterlimit:5;" d="M-116.48 7.25 L-116.913 7.5 L-117.346 7.25" /><ns0:path style="fill:none; stroke-miterlimit:5;" d="M116.48 -7.25 L116.913 -7.5 L117.346 -7.25" /></ns0:g><ns0:g transform="translate(146,13)" style="stroke-linecap:butt; fill:rgb(230,0,0); text-rendering:geometricPrecision; color-rendering:optimizeQuality; image-rendering:optimizeQuality; font-family:'Open Sans'; stroke:rgb(230,0,0); color-interpolation:linearRGB; stroke-miterlimit:5;"><ns0:path style="stroke:none;" d="M146.8305 7.4297 Q146.8305 9.4922 145.7914 10.6719 Q144.7524 11.8516 142.9086 11.8516 Q141.018 11.8516 139.9868 10.6875 Q138.9555 9.5234 138.9555 7.4141 Q138.9555 5.3203 139.9868 4.1719 Q141.018 3.0234 142.9086 3.0234 Q144.768 3.0234 145.7993 4.1953 Q146.8305 5.3672 146.8305 7.4297 ZM140.0024 7.4297 Q140.0024 9.1641 140.7446 10.0703 Q141.4868 10.9766 142.9086 10.9766 Q144.3305 10.9766 145.0571 10.0781 Q145.7836 9.1797 145.7836 7.4297 Q145.7836 5.6953 145.0571 4.8047 Q144.3305 3.9141 142.9086 3.9141 Q141.4868 3.9141 140.7446 4.8125 Q140.0024 5.7109 140.0024 7.4297 Z" /><ns0:path style="stroke:none;" d="M154.3461 11.7266 L153.3461 11.7266 L153.3461 7.6953 L148.8305 7.6953 L148.8305 11.7266 L147.8305 11.7266 L147.8305 3.1641 L148.8305 3.1641 L148.8305 6.8047 L153.3461 6.8047 L153.3461 3.1641 L154.3461 3.1641 L154.3461 11.7266 Z" /></ns0:g></ns0:g></ns0:svg></ns0:svg></ns0:svg></ns0:svg></g></svg>