<svg xmlns:ns0="http://www.w3.org/2000/svg" xmlns="http://www.w3.org/2000/svg"><g transform="translate(0, 0)"><ns0:svg width="247" viewBox="0 0 247 119" style="fill-opacity:1; color-rendering:auto; color-interpolation:auto; text-rendering:auto; stroke:black; stroke-linecap:square; stroke-miterlimit:10; shape-rendering:auto; stroke-opacity:1; fill:black; stroke-dasharray:none; font-weight:normal; stroke-width:1; font-family:'Open Sans'; font-style:normal; stroke-linejoin:miter; font-size:12; stroke-dashoffset:0; image-rendering:auto;" height="119" class="cas-substance-image"><ns0:svg class="cas-substance-single-component"><ns0:rect y="0" x="0" width="247" stroke="none" ry="7" rx="7" height="119" fill="white" class="cas-substance-group" /><ns0:svg y="0" x="0" width="247" viewBox="0 0 247 119" style="fill:black;" height="119" class="cas-substance-single-component-image"><ns0:svg><ns0:g><ns0:g transform="translate(124,59)" style="text-rendering:geometricPrecision; color-rendering:optimizeQuality; color-interpolation:linearRGB; stroke-linecap:butt; image-rendering:optimizeQuality;"><ns0:line y2="-6.1383" y1="-25.98" x2="-18.544" x1="-30" style="fill:none;" /><ns0:line y2="-45.4399" y1="-24.23" x2="-16.7451" x1="-28.9896" style="fill:none;" /><ns0:line y2="-47.1898" y1="-25.98" x2="-19.7763" x1="-32.0207" style="fill:none;" /><ns0:line y2="-25.98" y1="-25.98" x2="-60" x1="-30" style="fill:none;" /><ns0:line y2="0" y1="0" x2="9.6484" x1="-9.6484" style="fill:none;" /><ns0:line y2="25.98" y1="5.8883" x2="30" x1="18.3997" style="fill:none;" /><ns0:line y2="45.3661" y1="24.23" x2="16.7877" x1="28.9896" style="fill:none;" /><ns0:line y2="47.116" y1="25.98" x2="19.8188" x1="32.0207" style="fill:none;" /><ns0:line y2="25.98" y1="25.98" x2="60" x1="30" style="fill:none;" /><ns0:line y2="-51.963" y1="-25.98" x2="-75" x1="-60" style="fill:none;" /><ns0:line y2="-48.4631" y1="-25.9802" x2="-77.0209" x1="-64.0415" style="fill:none;" /><ns0:line y2="0" y1="-25.98" x2="-75" x1="-60" style="fill:none;" /><ns0:line y2="-51.963" y1="-51.963" x2="-105" x1="-75" style="fill:none;" /><ns0:line y2="0" y1="0" x2="-105" x1="-75" style="fill:none;" /><ns0:line y2="-3.5" y1="-3.5" x2="-102.9793" x1="-77.0207" style="fill:none;" /><ns0:line y2="-25.98" y1="-51.963" x2="-120" x1="-105" style="fill:none;" /><ns0:line y2="-25.9802" y1="-48.4631" x2="-115.9585" x1="-102.9791" style="fill:none;" /><ns0:line y2="-25.98" y1="0" x2="-120" x1="-105" style="fill:none;" /><ns0:line y2="51.963" y1="25.98" x2="75" x1="60" style="fill:none;" /><ns0:line y2="48.4631" y1="25.9802" x2="77.0209" x1="64.0415" style="fill:none;" /><ns0:line y2="0" y1="25.98" x2="75" x1="60" style="fill:none;" /><ns0:line y2="51.963" y1="51.963" x2="105" x1="75" style="fill:none;" /><ns0:line y2="0" y1="0" x2="105" x1="75" style="fill:none;" /><ns0:line y2="3.5" y1="3.5" x2="102.9793" x1="77.0207" style="fill:none;" /><ns0:line y2="25.98" y1="51.963" x2="120" x1="105" style="fill:none;" /><ns0:line y2="25.9802" y1="48.4631" x2="115.9585" x1="102.9791" style="fill:none;" /><ns0:line y2="25.98" y1="0" x2="120" x1="105" style="fill:none;" /><ns0:path style="fill:none; stroke-miterlimit:5;" d="M-29.75 -25.547 L-30 -25.98 L-30.5 -25.98" /></ns0:g><ns0:g transform="translate(124,59)" style="stroke-linecap:butt; fill:rgb(0,5,255); text-rendering:geometricPrecision; color-rendering:optimizeQuality; image-rendering:optimizeQuality; font-family:'Open Sans'; stroke:rgb(0,5,255); color-interpolation:linearRGB; stroke-miterlimit:5;"><ns0:path style="stroke:none;" d="M-11.6484 4.1562 L-12.7891 4.1562 L-17.4766 -3.0312 L-17.5234 -3.0312 Q-17.4297 -1.7656 -17.4297 -0.7188 L-17.4297 4.1562 L-18.3516 4.1562 L-18.3516 -4.4062 L-17.2266 -4.4062 L-12.5547 2.75 L-12.5078 2.75 Q-12.5078 2.5938 -12.5547 1.7344 Q-12.6016 0.875 -12.5859 0.5 L-12.5859 -4.4062 L-11.6484 -4.4062 L-11.6484 4.1562 Z" /><ns0:path style="stroke:none;" d="M-11.7422 13.7188 L-12.7422 13.7188 L-12.7422 9.6875 L-17.2578 9.6875 L-17.2578 13.7188 L-18.2578 13.7188 L-18.2578 5.1562 L-17.2578 5.1562 L-17.2578 8.7969 L-12.7422 8.7969 L-12.7422 5.1562 L-11.7422 5.1562 L-11.7422 13.7188 Z" /><ns0:path style="fill:rgb(230,0,0); stroke:none;" d="M-11.0625 -52.0333 Q-11.0625 -49.9708 -12.1016 -48.7911 Q-13.1406 -47.6114 -14.9844 -47.6114 Q-16.875 -47.6114 -17.9062 -48.7755 Q-18.9375 -49.9396 -18.9375 -52.0489 Q-18.9375 -54.1427 -17.9062 -55.2911 Q-16.875 -56.4396 -14.9844 -56.4396 Q-13.125 -56.4396 -12.0938 -55.2677 Q-11.0625 -54.0958 -11.0625 -52.0333 ZM-17.8906 -52.0333 Q-17.8906 -50.2989 -17.1484 -49.3927 Q-16.4062 -48.4864 -14.9844 -48.4864 Q-13.5625 -48.4864 -12.8359 -49.3849 Q-12.1094 -50.2833 -12.1094 -52.0333 Q-12.1094 -53.7677 -12.8359 -54.6583 Q-13.5625 -55.5489 -14.9844 -55.5489 Q-16.4062 -55.5489 -17.1484 -54.6505 Q-17.8906 -53.7521 -17.8906 -52.0333 Z" /><ns0:path style="stroke:none;" d="M18.3516 4.1562 L17.2109 4.1562 L12.5234 -3.0312 L12.4766 -3.0312 Q12.5703 -1.7656 12.5703 -0.7188 L12.5703 4.1562 L11.6484 4.1562 L11.6484 -4.4062 L12.7734 -4.4062 L17.4453 2.75 L17.4922 2.75 Q17.4922 2.5938 17.4453 1.7344 Q17.3984 0.875 17.4141 0.5 L17.4141 -4.4062 L18.3516 -4.4062 L18.3516 4.1562 Z" /><ns0:path style="stroke:none;" d="M18.2578 -5.4062 L17.2578 -5.4062 L17.2578 -9.4375 L12.7422 -9.4375 L12.7422 -5.4062 L11.7422 -5.4062 L11.7422 -13.9688 L12.7422 -13.9688 L12.7422 -10.3281 L17.2578 -10.3281 L17.2578 -13.9688 L18.2578 -13.9688 L18.2578 -5.4062 Z" /><ns0:path style="fill:none; stroke:black;" d="M29.75 25.547 L30 25.98 L30.5 25.98" /><ns0:path style="fill:rgb(230,0,0); stroke:none;" d="M18.9375 51.8927 Q18.9375 53.9552 17.8984 55.1349 Q16.8594 56.3146 15.0156 56.3146 Q13.125 56.3146 12.0938 55.1505 Q11.0625 53.9864 11.0625 51.8771 Q11.0625 49.7833 12.0938 48.6349 Q13.125 47.4864 15.0156 47.4864 Q16.875 47.4864 17.9062 48.6583 Q18.9375 49.8302 18.9375 51.8927 ZM12.1094 51.8927 Q12.1094 53.6271 12.8516 54.5333 Q13.5938 55.4396 15.0156 55.4396 Q16.4375 55.4396 17.1641 54.5411 Q17.8906 53.6427 17.8906 51.8927 Q17.8906 50.1583 17.1641 49.2677 Q16.4375 48.3771 15.0156 48.3771 Q13.5938 48.3771 12.8516 49.2755 Q12.1094 50.1739 12.1094 51.8927 Z" /><ns0:path style="fill:none; stroke:black;" d="M-60.25 -26.413 L-60 -25.98 L-59.5 -25.98" /><ns0:path style="fill:none; stroke:black;" d="M-74.75 -51.53 L-75 -51.963 L-75.5 -51.963" /><ns0:path style="fill:none; stroke:black;" d="M-74.75 -0.433 L-75 0 L-75.5 -0" /><ns0:path style="fill:none; stroke:black;" d="M-104.5 -51.963 L-105 -51.963 L-105.25 -51.53" /><ns0:path style="fill:none; stroke:black;" d="M-104.5 0 L-105 0 L-105.25 -0.433" /><ns0:path style="fill:none; stroke:black;" d="M-119.75 -26.413 L-120 -25.98 L-119.75 -25.547" /><ns0:path style="fill:none; stroke:black;" d="M60.25 26.413 L60 25.98 L59.5 25.98" /><ns0:path style="fill:none; stroke:black;" d="M74.75 51.53 L75 51.963 L75.5 51.963" /><ns0:path style="fill:none; stroke:black;" d="M74.75 0.433 L75 0 L75.5 0" /><ns0:path style="fill:none; stroke:black;" d="M104.5 51.963 L105 51.963 L105.25 51.53" /><ns0:path style="fill:none; stroke:black;" d="M104.5 -0 L105 0 L105.25 0.433" /><ns0:path style="fill:none; stroke:black;" d="M119.75 26.413 L120 25.98 L119.75 25.547" /></ns0:g></ns0:g></ns0:svg></ns0:svg></ns0:svg></ns0:svg></g></svg>