<svg width="201" viewBox="0 0 201 166" style="fill-opacity:1; color-rendering:auto; color-interpolation:auto; text-rendering:auto; stroke:black; stroke-linecap:square; stroke-miterlimit:10; shape-rendering:auto; stroke-opacity:1; fill:black; stroke-dasharray:none; font-weight:normal; stroke-width:1; font-family:'Open Sans'; font-style:normal; stroke-linejoin:miter; font-size:12; stroke-dashoffset:0; image-rendering:auto;" height="166" class="cas-substance-image" xmlns:xlink="http://www.w3.org/1999/xlink" xmlns="http://www.w3.org/2000/svg"><svg class="cas-substance-single-component"><rect y="0" x="0" width="201" stroke="none" ry="7" rx="7" height="166" fill="white" class="cas-substance-group"/><svg y="0" x="0" width="201" viewBox="0 0 201 166" style="fill:black;" height="166" class="cas-substance-single-component-image"><svg><g><g transform="translate(100,83)" style="text-rendering:geometricPrecision; color-rendering:optimizeQuality; color-interpolation:linearRGB; stroke-linecap:butt; image-rendering:optimizeQuality;"><line y2="-49.953" y1="-49.953" x2="-67.5" x1="-42.8516" style="fill:none;"/><line y2="-23.97" y1="-44.0647" x2="-22.5" x1="-34.1007" style="fill:none;"/><line y2="-79.953" y1="-49.953" x2="-67.5" x1="-67.5" style="fill:none;"/><line y2="-49.953" y1="-49.953" x2="-97.5" x1="-67.5" style="fill:none;"/><line y2="-19.953" y1="-49.953" x2="-67.5" x1="-67.5" style="fill:none;"/><line y2="-23.97" y1="-4.1283" x2="67.5" x1="56.044" style="fill:none;"/><line y2="2.01" y1="2.01" x2="22.5" x1="47.1484" style="fill:none;"/><line y2="-23.97" y1="-23.97" x2="97.5" x1="67.5" style="fill:none;"/><line y2="79.953" y1="59.2637" x2="-22.5" x1="-34.4439" style="fill:none;"/><line y2="27.99" y1="48.7933" x2="-22.5" x1="-34.5112" style="fill:none;"/><line y2="-23.97" y1="-23.97" x2="2.1484" x1="-22.5" style="fill:none;"/><line y2="-4.1283" y1="-23.97" x2="-33.956" x1="-22.5" style="fill:none;"/><line y2="-2.3783" y1="-20.47" x2="-30.9249" x1="-20.4793" style="fill:none;"/><line y2="2.01" y1="-18.0817" x2="22.5" x1="10.8997" style="fill:none;"/><line y2="2.0101" y1="-16.3317" x2="18.4585" x1="7.8686" style="fill:none;"/><line y2="27.99" y1="7.8983" x2="-22.5" x1="-34.1003" style="fill:none;"/><line y2="21.8517" y1="2.01" x2="11.044" x1="22.5" style="fill:none;"/><line y2="27.99" y1="27.99" x2="2.1484" x1="-22.5" style="fill:none;"/><line y2="24.49" y1="24.49" x2="2.1484" x1="-20.4793" style="fill:none;"/></g><g transform="translate(100,83)" style="fill:rgb(0,5,255); text-rendering:geometricPrecision; color-rendering:optimizeQuality; image-rendering:optimizeQuality; font-family:'Open Sans'; stroke:rgb(0,5,255); color-interpolation:linearRGB;"><path style="stroke:none;" d="M-34.1484 -45.7967 L-35.2891 -45.7967 L-39.9766 -52.9842 L-40.0234 -52.9842 Q-39.9297 -51.7186 -39.9297 -50.6717 L-39.9297 -45.7967 L-40.8516 -45.7967 L-40.8516 -54.3592 L-39.7266 -54.3592 L-35.0547 -47.203 L-35.0078 -47.203 Q-35.0078 -47.3592 -35.0547 -48.2186 Q-35.1016 -49.078 -35.0859 -49.453 L-35.0859 -54.3592 L-34.1484 -54.3592 L-34.1484 -45.7967 Z"/><path style="stroke:none;" d="M-34.2422 -55.3592 L-35.2422 -55.3592 L-35.2422 -59.3905 L-39.7578 -59.3905 L-39.7578 -55.3592 L-40.7578 -55.3592 L-40.7578 -63.9217 L-39.7578 -63.9217 L-39.7578 -60.2811 L-35.2422 -60.2811 L-35.2422 -63.9217 L-34.2422 -63.9217 L-34.2422 -55.3592 Z"/><path style="stroke:none;" d="M55.8516 6.1663 L54.7109 6.1663 L50.0234 -1.0212 L49.9766 -1.0212 Q50.0703 0.2444 50.0703 1.2913 L50.0703 6.1663 L49.1484 6.1663 L49.1484 -2.3962 L50.2734 -2.3962 L54.9453 4.76 L54.9922 4.76 Q54.9922 4.6038 54.9453 3.7444 Q54.8984 2.885 54.9141 2.51 L54.9141 -2.3962 L55.8516 -2.3962 L55.8516 6.1663 Z"/><path style="stroke:none;" d="M55.7578 15.7288 L54.7578 15.7288 L54.7578 11.6975 L50.2422 11.6975 L50.2422 15.7288 L49.2422 15.7288 L49.2422 7.1663 L50.2422 7.1663 L50.2422 10.8069 L54.7578 10.8069 L54.7578 7.1663 L55.7578 7.1663 L55.7578 15.7288 Z"/></g><g transform="translate(100,83)" style="stroke-linecap:butt; text-rendering:geometricPrecision; color-rendering:optimizeQuality; image-rendering:optimizeQuality; font-family:'Open Sans'; color-interpolation:linearRGB; stroke-miterlimit:5;"><path style="fill:none;" d="M67.25 -23.537 L67.5 -23.97 L68 -23.97"/><path style="fill:rgb(148,108,0); stroke:none;" d="M-34.8047 55.9075 Q-34.8047 57.0325 -35.625 57.6731 Q-36.4453 58.3138 -37.8516 58.3138 Q-39.3828 58.3138 -40.1953 57.9075 L-40.1953 56.9544 Q-39.6641 57.1731 -39.0469 57.3059 Q-38.4297 57.4388 -37.8203 57.4388 Q-36.8203 57.4388 -36.3203 57.0559 Q-35.8203 56.6731 -35.8203 56.0013 Q-35.8203 55.5638 -36 55.2747 Q-36.1797 54.9856 -36.5938 54.7434 Q-37.0078 54.5013 -37.8672 54.2044 Q-39.0547 53.7825 -39.5703 53.1966 Q-40.0859 52.6106 -40.0859 51.6575 Q-40.0859 50.6731 -39.3438 50.0872 Q-38.6016 49.5013 -37.3672 49.5013 Q-36.1016 49.5013 -35.0234 49.97 L-35.3359 50.8294 Q-36.3984 50.3919 -37.3984 50.3919 Q-38.1953 50.3919 -38.6406 50.7278 Q-39.0859 51.0638 -39.0859 51.6731 Q-39.0859 52.1106 -38.9219 52.3997 Q-38.7578 52.6888 -38.3672 52.9231 Q-37.9766 53.1575 -37.1641 53.4544 Q-35.8203 53.9231 -35.3125 54.4778 Q-34.8047 55.0325 -34.8047 55.9075 Z"/><path style="fill:none;" d="M-22.75 -23.537 L-22.5 -23.97 L-22.75 -24.403"/><path style="fill:rgb(0,5,255); stroke:none;" d="M10.8516 -19.8138 L9.7109 -19.8138 L5.0234 -27.0013 L4.9766 -27.0013 Q5.0703 -25.7356 5.0703 -24.6888 L5.0703 -19.8138 L4.1484 -19.8138 L4.1484 -28.3763 L5.2734 -28.3763 L9.9453 -21.22 L9.9922 -21.22 Q9.9922 -21.3763 9.9453 -22.2356 Q9.8984 -23.095 9.9141 -23.47 L9.9141 -28.3763 L10.8516 -28.3763 L10.8516 -19.8138 Z"/><path style="fill:rgb(0,5,255); stroke:none;" d="M-34.1484 6.1663 L-35.2891 6.1663 L-39.9766 -1.0212 L-40.0234 -1.0212 Q-39.9297 0.2444 -39.9297 1.2913 L-39.9297 6.1663 L-40.8516 6.1663 L-40.8516 -2.3962 L-39.7266 -2.3962 L-35.0547 4.76 L-35.0078 4.76 Q-35.0078 4.6038 -35.0547 3.7444 Q-35.1016 2.885 -35.0859 2.51 L-35.0859 -2.3962 L-34.1484 -2.3962 L-34.1484 6.1663 Z"/><path style="fill:none;" d="M22.25 1.577 L22.5 2.01 L22.25 2.443"/><path style="fill:none;" d="M-22 27.99 L-22.5 27.99 L-22.75 27.557"/><path style="fill:rgb(0,5,255); stroke:none;" d="M10.8516 32.1463 L9.7109 32.1463 L5.0234 24.9588 L4.9766 24.9588 Q5.0703 26.2244 5.0703 27.2713 L5.0703 32.1463 L4.1484 32.1463 L4.1484 23.5838 L5.2734 23.5838 L9.9453 30.74 L9.9922 30.74 Q9.9922 30.5838 9.9453 29.7244 Q9.8984 28.865 9.9141 28.49 L9.9141 23.5838 L10.8516 23.5838 L10.8516 32.1463 Z"/></g></g></svg></svg></svg></svg>