<svg xmlns:ns0="http://www.w3.org/2000/svg" xmlns="http://www.w3.org/2000/svg"><g transform="translate(0, 0)"><ns0:svg width="271" viewBox="0 0 271 249" style="fill-opacity:1; color-rendering:auto; color-interpolation:auto; text-rendering:auto; stroke:black; stroke-linecap:square; stroke-miterlimit:10; shape-rendering:auto; stroke-opacity:1; fill:black; stroke-dasharray:none; font-weight:normal; stroke-width:1; font-family:'Open Sans'; font-style:normal; stroke-linejoin:miter; font-size:12; stroke-dashoffset:0; image-rendering:auto;" height="249" class="cas-substance-image"><ns0:svg class="cas-substance-single-component"><ns0:rect y="0" x="0" width="271" stroke="none" ry="7" rx="7" height="249" fill="white" class="cas-substance-group" /><ns0:svg y="0" x="0" width="271" viewBox="0 0 271 249" style="fill:black;" height="249" class="cas-substance-single-component-image"><ns0:svg><ns0:g><ns0:g transform="translate(138,126)" style="text-rendering:geometricPrecision; color-rendering:optimizeQuality; color-interpolation:linearRGB; stroke-linecap:butt; image-rendering:optimizeQuality;"><ns0:line y2="-24.225" y1="-5.346" x2="27.099" x1="3.783" style="fill:none;" /><ns0:line y2="-16.098" y1="-5.346" x2="-24.225" x1="3.783" style="fill:none;" /><ns0:line y2="-13.476" y1="-24.225" x2="55.104" x1="27.099" style="fill:none;" /><ns0:line y2="-53.856" y1="-24.225" x2="22.404" x1="27.099" style="fill:none;" /><ns0:line y2="-32.355" y1="-13.476" x2="78.42" x1="55.104" style="fill:none;" /><ns0:line y2="-72.735" y1="-53.856" x2="45.72" x1="22.404" style="fill:none;" /><ns0:line y2="-21.603" y1="-32.355" x2="106.428" x1="78.42" style="fill:none;" /><ns0:line y2="-40.482" y1="-21.603" x2="129.741" x1="106.428" style="fill:none;" /><ns0:line y2="28.902" y1="13.902" x2="1.758" x1="-24.225" style="fill:none;" /><ns0:line y2="-16.098" y1="13.902" x2="-24.225" x1="-24.225" style="fill:none;" /><ns0:line y2="58.902" y1="28.902" x2="1.758" x1="1.758" style="fill:none;" /><ns0:line y2="13.902" y1="28.902" x2="27.738" x1="1.758" style="fill:none;" /><ns0:line y2="73.902" y1="58.902" x2="-24.225" x1="1.758" style="fill:none;" /><ns0:line y2="28.902" y1="13.902" x2="53.718" x1="27.738" style="fill:none;" /><ns0:line y2="103.902" y1="73.902" x2="-24.225" x1="-24.225" style="fill:none;" /><ns0:line y2="118.902" y1="103.902" x2="-50.205" x1="-24.225" style="fill:none;" /><ns0:line y2="-7.887" y1="1.1281" x2="-102.336" x1="-122.585" style="fill:none;" /><ns0:line y2="-92.922" y1="-113.0137" x2="-7.896" x1="3.7043" style="fill:none;" /><ns0:line y2="-12.96" y1="-16.098" x2="-54.06" x1="-24.225" style="fill:none;" /><ns0:line y2="-45.441" y1="-16.098" x2="-17.988" x1="-24.225" style="fill:none;" /><ns0:line y2="-40.368" y1="-12.96" x2="-66.261" x1="-54.06" style="fill:none;" /><ns0:line y2="-37.0985" y1="-13.3827" x2="-68.6367" x1="-58.0793" style="fill:none;" /><ns0:line y2="7.113" y1="-12.96" x2="-76.353" x1="-54.06" style="fill:none;" /><ns0:line y2="-60.441" y1="-45.441" x2="-43.968" x1="-17.988" style="fill:none;" /><ns0:line y2="-62.4617" y1="-49.4825" x2="-40.468" x1="-17.9879" style="fill:none;" /><ns0:line y2="-65.517" y1="-45.441" x2="4.308" x1="-17.988" style="fill:none;" /><ns0:line y2="-60.441" y1="-40.368" x2="-43.968" x1="-66.261" style="fill:none;" /><ns0:line y2="-37.7075" y1="-40.368" x2="-91.5825" x1="-66.261" style="fill:none;" /><ns0:line y2="-7.887" y1="7.113" x2="-102.336" x1="-76.353" style="fill:none;" /><ns0:line y2="-9.9079" y1="3.0715" x2="-98.8361" x1="-76.3531" style="fill:none;" /><ns0:line y2="-83.4869" y1="-60.441" x2="-39.07" x1="-43.968" style="fill:none;" /><ns0:line y2="-92.922" y1="-65.517" x2="-7.896" x1="4.308" style="fill:none;" /><ns0:line y2="-89.6522" y1="-65.9391" x2="-10.2713" x1="0.2887" style="fill:none;" /><ns0:line y2="-7.887" y1="-30.9329" x2="-102.336" x1="-97.438" style="fill:none;" /><ns0:line y2="-92.922" y1="-90.2616" x2="-7.896" x1="-33.2145" style="fill:none;" /><ns0:path style="fill:none; stroke-miterlimit:5;" d="M4.1716 -5.6606 L3.783 -5.346 L3.3162 -5.5252" /><ns0:path style="fill:none; stroke-miterlimit:5;" d="M54.6372 -13.6552 L55.104 -13.476 L55.4926 -13.7906" /><ns0:path style="fill:none; stroke-miterlimit:5;" d="M22.4822 -53.3622 L22.404 -53.856 L22.7926 -54.1706" /><ns0:path style="fill:none; stroke-miterlimit:5;" d="M78.0314 -32.0404 L78.42 -32.355 L78.8868 -32.1758" /><ns0:path style="fill:none; stroke-miterlimit:5;" d="M105.9612 -21.7822 L106.428 -21.603 L106.8166 -21.9177" /><ns0:path style="fill:none; stroke-miterlimit:5;" d="M-23.792 14.152 L-24.225 13.902 L-24.225 13.402" /><ns0:path style="fill:none; stroke-miterlimit:5;" d="M1.758 58.402 L1.758 58.902 L1.325 59.152" /><ns0:path style="fill:none; stroke-miterlimit:5;" d="M27.305 14.152 L27.738 13.902 L28.171 14.152" /><ns0:path style="fill:none; stroke-miterlimit:5;" d="M-23.792 73.652 L-24.225 73.902 L-24.225 74.402" /><ns0:path style="fill:none; stroke-miterlimit:5;" d="M-24.225 103.402 L-24.225 103.902 L-24.658 104.152" /></ns0:g><ns0:g transform="translate(138,126)" style="stroke-linecap:butt; fill:rgb(0,138,0); text-rendering:geometricPrecision; color-rendering:optimizeQuality; image-rendering:optimizeQuality; font-family:'Open Sans'; stroke:rgb(0,138,0); color-interpolation:linearRGB; stroke-miterlimit:5;"><ns0:path style="stroke:none;" d="M-135.4099 -0.0922 L-132.9881 -0.0922 Q-131.2849 -0.0922 -130.5193 0.4156 Q-129.7537 0.9234 -129.7537 2.0171 Q-129.7537 2.7828 -130.1756 3.2828 Q-130.5974 3.7828 -131.4256 3.9234 L-131.4256 3.9859 Q-129.4724 4.314 -129.4724 6.0328 Q-129.4724 7.1734 -130.2459 7.8218 Q-131.0193 8.4703 -132.4099 8.4703 L-135.4099 8.4703 L-135.4099 -0.0922 ZM-134.4099 3.564 L-132.7693 3.564 Q-131.7068 3.564 -131.2459 3.2359 Q-130.7849 2.9078 -130.7849 2.1265 Q-130.7849 1.4078 -131.3006 1.0874 Q-131.8162 0.7671 -132.9412 0.7671 L-134.4099 0.7671 L-134.4099 3.564 ZM-134.4099 4.4078 L-134.4099 7.6265 L-132.6131 7.6265 Q-131.5818 7.6265 -131.0584 7.2203 Q-130.5349 6.814 -130.5349 5.9546 Q-130.5349 5.1578 -131.074 4.7828 Q-131.6131 4.4078 -132.7068 4.4078 L-134.4099 4.4078 ZM-124.8377 1.9234 Q-124.4158 1.9234 -124.0721 2.0015 L-124.2127 2.9078 Q-124.6033 2.814 -124.9158 2.814 Q-125.6971 2.814 -126.2517 3.4468 Q-126.8064 4.0796 -126.8064 5.0171 L-126.8064 8.4703 L-127.7752 8.4703 L-127.7752 2.0484 L-126.9783 2.0484 L-126.8533 3.2359 L-126.8064 3.2359 Q-126.4627 2.6109 -125.9549 2.2671 Q-125.4471 1.9234 -124.8377 1.9234 Z" /><ns0:path style="stroke:none;" d="M1.4351 -123.3082 L3.8569 -123.3082 Q5.5601 -123.3082 6.3257 -122.8004 Q7.0913 -122.2926 7.0913 -121.1989 Q7.0913 -120.4332 6.6694 -119.9332 Q6.2476 -119.4332 5.4194 -119.2926 L5.4194 -119.2301 Q7.3726 -118.902 7.3726 -117.1832 Q7.3726 -116.0426 6.5991 -115.3942 Q5.8257 -114.7457 4.4351 -114.7457 L1.4351 -114.7457 L1.4351 -123.3082 ZM2.4351 -119.652 L4.0757 -119.652 Q5.1382 -119.652 5.5991 -119.9801 Q6.0601 -120.3082 6.0601 -121.0895 Q6.0601 -121.8082 5.5444 -122.1286 Q5.0288 -122.4489 3.9038 -122.4489 L2.4351 -122.4489 L2.4351 -119.652 ZM2.4351 -118.8082 L2.4351 -115.5895 L4.2319 -115.5895 Q5.2632 -115.5895 5.7866 -115.9957 Q6.3101 -116.402 6.3101 -117.2614 Q6.3101 -118.0582 5.771 -118.4332 Q5.2319 -118.8082 4.1382 -118.8082 L2.4351 -118.8082 ZM12.0073 -121.2926 Q12.4292 -121.2926 12.7729 -121.2145 L12.6323 -120.3082 Q12.2417 -120.402 11.9292 -120.402 Q11.1479 -120.402 10.5933 -119.7692 Q10.0386 -119.1364 10.0386 -118.1989 L10.0386 -114.7457 L9.0698 -114.7457 L9.0698 -121.1676 L9.8667 -121.1676 L9.9917 -119.9801 L10.0386 -119.9801 Q10.3823 -120.6051 10.8901 -120.9489 Q11.3979 -121.2926 12.0073 -121.2926 Z" /><ns0:path style="fill:none; stroke:black;" d="M-54.2633 -13.4168 L-54.06 -12.96 L-53.5627 -13.0123" /><ns0:path style="fill:none; stroke:black;" d="M-18.421 -45.691 L-17.988 -45.441 L-17.6164 -45.7756" /><ns0:path style="fill:none; stroke:black;" d="M-66.0577 -39.9112 L-66.261 -40.368 L-66.7583 -40.3158" /><ns0:path style="fill:none; stroke:black;" d="M-75.9814 6.7784 L-76.353 7.113 L-76.786 6.863" /><ns0:path style="fill:none; stroke:black;" d="M-43.535 -60.191 L-43.968 -60.441 L-43.8641 -60.9301" /><ns0:path style="fill:none; stroke:black;" d="M3.9364 -65.1824 L4.308 -65.517 L4.1046 -65.9738" /><ns0:path style="fill:rgb(148,108,0); stroke:none;" d="M-93.4037 -35.2955 Q-93.4037 -34.1705 -94.224 -33.5299 Q-95.0443 -32.8892 -96.4506 -32.8892 Q-97.9818 -32.8892 -98.7943 -33.2955 L-98.7943 -34.2486 Q-98.2631 -34.0299 -97.6459 -33.8971 Q-97.0287 -33.7642 -96.4193 -33.7642 Q-95.4193 -33.7642 -94.9193 -34.1471 Q-94.4193 -34.5299 -94.4193 -35.2017 Q-94.4193 -35.6392 -94.599 -35.9283 Q-94.7787 -36.2174 -95.1927 -36.4596 Q-95.6068 -36.7017 -96.4662 -36.9986 Q-97.6537 -37.4205 -98.1693 -38.0064 Q-98.6849 -38.5924 -98.6849 -39.5455 Q-98.6849 -40.5299 -97.9427 -41.1158 Q-97.2006 -41.7017 -95.9662 -41.7017 Q-94.7006 -41.7017 -93.6224 -41.233 L-93.9349 -40.3736 Q-94.9974 -40.8111 -95.9974 -40.8111 Q-96.7943 -40.8111 -97.2396 -40.4752 Q-97.6849 -40.1392 -97.6849 -39.5299 Q-97.6849 -39.0924 -97.5209 -38.8033 Q-97.3568 -38.5142 -96.9662 -38.2799 Q-96.5756 -38.0455 -95.7631 -37.7486 Q-94.4193 -37.2799 -93.9115 -36.7252 Q-93.4037 -36.1705 -93.4037 -35.2955 Z" /><ns0:path style="fill:none; stroke:black;" d="M-101.903 -7.637 L-102.336 -7.887 L-102.2321 -8.3761" /><ns0:path style="fill:rgb(148,108,0); stroke:none;" d="M-35.0357 -87.8495 Q-35.0357 -86.7245 -35.856 -86.0839 Q-36.6763 -85.4432 -38.0826 -85.4432 Q-39.6138 -85.4432 -40.4263 -85.8495 L-40.4263 -86.8026 Q-39.8951 -86.5839 -39.2779 -86.4511 Q-38.6607 -86.3182 -38.0513 -86.3182 Q-37.0513 -86.3182 -36.5513 -86.7011 Q-36.0513 -87.0839 -36.0513 -87.7557 Q-36.0513 -88.1932 -36.231 -88.4823 Q-36.4107 -88.7714 -36.8247 -89.0136 Q-37.2388 -89.2557 -38.0982 -89.5526 Q-39.2857 -89.9745 -39.8013 -90.5604 Q-40.3169 -91.1464 -40.3169 -92.0995 Q-40.3169 -93.0839 -39.5747 -93.6698 Q-38.8326 -94.2557 -37.5982 -94.2557 Q-36.3326 -94.2557 -35.2544 -93.787 L-35.5669 -92.9276 Q-36.6294 -93.3651 -37.6294 -93.3651 Q-38.4263 -93.3651 -38.8716 -93.0292 Q-39.3169 -92.6932 -39.3169 -92.0839 Q-39.3169 -91.6464 -39.1529 -91.3573 Q-38.9888 -91.0682 -38.5982 -90.8339 Q-38.2076 -90.5995 -37.3951 -90.3026 Q-36.0513 -89.8339 -35.5435 -89.2792 Q-35.0357 -88.7245 -35.0357 -87.8495 Z" /><ns0:path style="fill:none; stroke:black;" d="M-7.6926 -92.4652 L-7.896 -92.922 L-7.646 -93.355" /></ns0:g></ns0:g></ns0:svg></ns0:svg></ns0:svg></ns0:svg></g></svg>