<svg xmlns:ns0="http://www.w3.org/2000/svg" xmlns="http://www.w3.org/2000/svg"><g transform="translate(0, 0)"><ns0:svg width="100" viewBox="0 0 100 67" style="fill-opacity:1; color-rendering:auto; color-interpolation:auto; text-rendering:auto; stroke:black; stroke-linecap:square; stroke-miterlimit:10; shape-rendering:auto; stroke-opacity:1; fill:black; stroke-dasharray:none; font-weight:normal; stroke-width:1; font-family:'Open Sans'; font-style:normal; stroke-linejoin:miter; font-size:12; stroke-dashoffset:0; image-rendering:auto;" height="67" class="cas-substance-image"><ns0:svg class="cas-substance-single-component"><ns0:rect y="0" x="0" width="100" stroke="none" ry="7" rx="7" height="67" fill="white" class="cas-substance-group" /><ns0:svg y="0" x="12" width="75" viewBox="0 0 75 67" style="fill:black;" height="67" class="cas-substance-single-component-image"><ns0:svg><ns0:g><ns0:g transform="translate(35,33)" style="text-rendering:geometricPrecision; color-rendering:optimizeQuality; color-interpolation:linearRGB; stroke-linecap:butt; image-rendering:optimizeQuality;"><ns0:line y2="0" y1="0" x2="-25.8147" x1="-4.7188" style="fill:none;" /><ns0:line y2="0" y1="0" x2="25.6094" x1="14.0625" style="fill:none;" /><ns0:line y2="-22.5411" y1="-6.1383" x2="-13.0145" x1="-3.544" style="fill:none;" /><ns0:line y2="20.1074" y1="3.1582" x2="11.6094" x1="1.8234" style="fill:none;" /><ns0:line y2="-20.1074" y1="-6.1383" x2="11.6094" x1="3.544" style="fill:none;" /><ns0:line y2="20.1074" y1="5.8883" x2="-11.6094" x1="-3.3997" style="fill:none;" /></ns0:g><ns0:g transform="translate(35,33)" style="fill:rgb(111,5,255); text-rendering:geometricPrecision; color-rendering:optimizeQuality; image-rendering:optimizeQuality; font-family:'Open Sans'; stroke:rgb(111,5,255); color-interpolation:linearRGB;"><ns0:path style="stroke:none;" d="M2.7188 -1.9219 Q2.7188 -0.6094 1.8281 0.0859 Q0.9375 0.7812 -0.7031 0.7812 L-1.7188 0.7812 L-1.7188 4.1562 L-2.7188 4.1562 L-2.7188 -4.4062 L-0.4844 -4.4062 Q2.7188 -4.4062 2.7188 -1.9219 ZM-1.7188 -0.0625 L-0.8125 -0.0625 Q0.5 -0.0625 1.0938 -0.4922 Q1.6875 -0.9219 1.6875 -1.875 Q1.6875 -2.7188 1.1328 -3.1328 Q0.5781 -3.5469 -0.6094 -3.5469 L-1.7188 -3.5469 L-1.7188 -0.0625 Z" /><ns0:path style="fill:black; stroke:none;" d="M5.375 -3.2328 Q6.2812 -3.2328 6.7969 -2.7875 Q7.3125 -2.3422 7.3125 -1.5609 Q7.3125 -0.6859 6.75 -0.1781 Q6.1875 0.3297 5.2031 0.3297 Q4.2344 0.3297 3.7188 0.0172 L3.7188 -0.6078 Q4 -0.4359 4.4062 -0.3344 Q4.8125 -0.2328 5.2031 -0.2328 Q5.8906 -0.2328 6.2734 -0.5531 Q6.6562 -0.8734 6.6562 -1.4984 Q6.6562 -2.6859 5.1875 -2.6859 Q4.8125 -2.6859 4.2031 -2.5766 L3.8594 -2.7953 L4.0781 -5.4672 L6.9219 -5.4672 L6.9219 -4.8578 L4.625 -4.8578 L4.4844 -3.1547 Q4.9375 -3.2328 5.375 -3.2328 Z" /><ns0:path style="fill:black; stroke:none;" d="M10.4531 -2.8344 L12.0625 -2.8344 L12.0625 -2.2875 L10.4531 -2.2875 L10.4531 -0.6313 L9.9219 -0.6313 L9.9219 -2.2875 L8.3125 -2.2875 L8.3125 -2.8344 L9.9219 -2.8344 L9.9219 -4.5063 L10.4531 -4.5063 L10.4531 -2.8344 Z" /><ns0:path style="fill:rgb(0,138,0); stroke:none;" d="M-31.3906 4.1562 L-32.3906 4.1562 L-32.3906 -4.4062 L-27.6094 -4.4062 L-27.6094 -3.5312 L-31.3906 -3.5312 L-31.3906 -0.3906 L-27.8438 -0.3906 L-27.8438 0.5 L-31.3906 0.5 L-31.3906 4.1562 Z" /><ns0:path style="fill:black; stroke:none;" d="M-26.6094 -2.2719 L-26.6094 -2.8656 L-23.25 -2.8656 L-23.25 -2.2719 L-26.6094 -2.2719 Z" /><ns0:path style="fill:rgb(0,138,0); stroke:none;" d="M28.6094 4.1562 L27.6094 4.1562 L27.6094 -4.4062 L32.3906 -4.4062 L32.3906 -3.5312 L28.6094 -3.5312 L28.6094 -0.3906 L32.1562 -0.3906 L32.1562 0.5 L28.6094 0.5 L28.6094 4.1562 Z" /><ns0:path style="fill:black; stroke:none;" d="M33.3906 -2.2719 L33.3906 -2.8656 L36.75 -2.8656 L36.75 -2.2719 L33.3906 -2.2719 Z" /><ns0:path style="fill:rgb(0,138,0); stroke:none;" d="M-16.3906 -21.8237 L-17.3906 -21.8237 L-17.3906 -30.3862 L-12.6094 -30.3862 L-12.6094 -29.5112 L-16.3906 -29.5112 L-16.3906 -26.3706 L-12.8438 -26.3706 L-12.8438 -25.48 L-16.3906 -25.48 L-16.3906 -21.8237 Z" /><ns0:path style="fill:black; stroke:none;" d="M-11.6094 -28.2519 L-11.6094 -28.8456 L-8.25 -28.8456 L-8.25 -28.2519 L-11.6094 -28.2519 Z" /><ns0:path style="fill:rgb(0,138,0); stroke:none;" d="M13.6094 30.1362 L12.6094 30.1362 L12.6094 21.5737 L17.3906 21.5737 L17.3906 22.4487 L13.6094 22.4487 L13.6094 25.5894 L17.1562 25.5894 L17.1562 26.48 L13.6094 26.48 L13.6094 30.1362 Z" /><ns0:path style="fill:black; stroke:none;" d="M18.3906 23.7081 L18.3906 23.1144 L21.75 23.1144 L21.75 23.7081 L18.3906 23.7081 Z" /><ns0:path style="fill:rgb(0,138,0); stroke:none;" d="M13.6094 -21.8237 L12.6094 -21.8237 L12.6094 -30.3862 L17.3906 -30.3862 L17.3906 -29.5112 L13.6094 -29.5112 L13.6094 -26.3706 L17.1562 -26.3706 L17.1562 -25.48 L13.6094 -25.48 L13.6094 -21.8237 Z" /><ns0:path style="fill:black; stroke:none;" d="M18.3906 -28.2519 L18.3906 -28.8456 L21.75 -28.8456 L21.75 -28.2519 L18.3906 -28.2519 Z" /><ns0:path style="fill:rgb(0,138,0); stroke:none;" d="M-16.3906 30.1362 L-17.3906 30.1362 L-17.3906 21.5737 L-12.6094 21.5737 L-12.6094 22.4487 L-16.3906 22.4487 L-16.3906 25.5894 L-12.8438 25.5894 L-12.8438 26.48 L-16.3906 26.48 L-16.3906 30.1362 Z" /><ns0:path style="fill:black; stroke:none;" d="M-11.6094 23.7081 L-11.6094 23.1144 L-8.25 23.1144 L-8.25 23.7081 L-11.6094 23.7081 Z" /></ns0:g></ns0:g></ns0:svg></ns0:svg></ns0:svg></ns0:svg></g><g transform="translate(100, 0)"><ns0:svg width="112" viewBox="0 0 112 87" style="fill-opacity:1; color-rendering:auto; color-interpolation:auto; text-rendering:auto; stroke:black; stroke-linecap:square; stroke-miterlimit:10; shape-rendering:auto; stroke-opacity:1; fill:black; stroke-dasharray:none; font-weight:normal; stroke-width:1; font-family:'Open Sans'; font-style:normal; stroke-linejoin:miter; font-size:12; stroke-dashoffset:0; image-rendering:auto;" height="87" class="cas-substance-image"><ns0:svg class="cas-substance-single-component"><ns0:rect y="0" x="0" width="112" stroke="none" ry="7" rx="7" height="87" fill="white" class="cas-substance-group" /><ns0:svg y="0" x="0" width="112" viewBox="0 0 112 87" style="fill:black;" height="87" class="cas-substance-single-component-image"><ns0:svg><ns0:g><ns0:g transform="translate(56,42)" style="text-rendering:geometricPrecision; color-rendering:optimizeQuality; color-interpolation:linearRGB; stroke-linecap:butt; image-rendering:optimizeQuality;"><ns0:line y2="8.082" y1="31.6758" x2="0" x1="0" style="fill:none;" /><ns0:line y2="-7.8446" y1="-0.279" x2="-29.5236" x1="-52.803" style="fill:none;" /><ns0:line y2="-7.8446" y1="-0.279" x2="29.5236" x1="52.803" style="fill:none;" /><ns0:line y2="-5.9412" y1="8.082" x2="-19.3004" x1="0" style="fill:none;" /><ns0:line y2="-8.7727" y1="4.0627" x2="-17.2431" x1="0.4225" style="fill:none;" /><ns0:line y2="-5.9412" y1="8.082" x2="19.3004" x1="0" style="fill:none;" /><ns0:line y2="-38.082" y1="-15.8604" x2="-15" x1="-22.2203" style="fill:none;" /><ns0:line y2="-38.082" y1="-15.8604" x2="15" x1="22.2203" style="fill:none;" /><ns0:line y2="-38.082" y1="-38.082" x2="15" x1="-15" style="fill:none;" /></ns0:g><ns0:g transform="translate(56,42)" style="fill:rgb(0,138,0); text-rendering:geometricPrecision; color-rendering:optimizeQuality; image-rendering:optimizeQuality; font-family:'Open Sans'; stroke:rgb(0,138,0); color-interpolation:linearRGB;"><ns0:path style="stroke:none;" d="M-1.3906 42.2383 L-2.3906 42.2383 L-2.3906 33.6758 L2.3906 33.6758 L2.3906 34.5508 L-1.3906 34.5508 L-1.3906 37.6914 L2.1562 37.6914 L2.1562 38.582 L-1.3906 38.582 L-1.3906 42.2383 Z" /></ns0:g><ns0:g transform="translate(56,42)" style="stroke-linecap:butt; text-rendering:geometricPrecision; color-rendering:optimizeQuality; image-rendering:optimizeQuality; font-family:'Open Sans'; color-interpolation:linearRGB; stroke-miterlimit:5;"><ns0:path style="fill:none;" d="M-0.4045 7.7881 L0 8.082 L-0 8.582" /><ns0:path style="fill:rgb(0,5,255); stroke:none;" d="M-20.9184 -5.3958 L-22.0591 -5.3958 L-26.7466 -12.5833 L-26.7934 -12.5833 Q-26.6997 -11.3176 -26.6997 -10.2708 L-26.6997 -5.3958 L-27.6216 -5.3958 L-27.6216 -13.9583 L-26.4966 -13.9583 L-21.8247 -6.802 L-21.7778 -6.802 Q-21.7778 -6.9583 -21.8247 -7.8176 Q-21.8716 -8.677 -21.8559 -9.052 L-21.8559 -13.9583 L-20.9184 -13.9583 L-20.9184 -5.3958 Z" /><ns0:path style="stroke:none;" d="M-17.7778 -12.3864 L-16.1684 -12.3864 L-16.1684 -11.8395 L-17.7778 -11.8395 L-17.7778 -10.1833 L-18.3091 -10.1833 L-18.3091 -11.8395 L-19.9184 -11.8395 L-19.9184 -12.3864 L-18.3091 -12.3864 L-18.3091 -14.0583 L-17.7778 -14.0583 L-17.7778 -12.3864 Z" /><ns0:path style="fill:rgb(0,5,255); stroke:none;" d="M27.6216 -5.3958 L26.4809 -5.3958 L21.7934 -12.5833 L21.7466 -12.5833 Q21.8403 -11.3176 21.8403 -10.2708 L21.8403 -5.3958 L20.9184 -5.3958 L20.9184 -13.9583 L22.0434 -13.9583 L26.7153 -6.802 L26.7622 -6.802 Q26.7622 -6.9583 26.7153 -7.8176 Q26.6684 -8.677 26.6841 -9.052 L26.6841 -13.9583 L27.6216 -13.9583 L27.6216 -5.3958 Z" /><ns0:path style="fill:none;" d="M-15.1545 -37.6065 L-15 -38.082 L-14.5 -38.082" /><ns0:path style="fill:none;" d="M15.1545 -37.6065 L15 -38.082 L14.5 -38.082" /></ns0:g></ns0:g></ns0:svg></ns0:svg></ns0:svg></ns0:svg></g></svg>