<svg width="473" viewBox="0 0 473 214" style="fill-opacity:1; color-rendering:auto; color-interpolation:auto; text-rendering:auto; stroke:black; stroke-linecap:square; stroke-miterlimit:10; shape-rendering:auto; stroke-opacity:1; fill:black; stroke-dasharray:none; font-weight:normal; stroke-width:1; font-family:'Open Sans'; font-style:normal; stroke-linejoin:miter; font-size:12; stroke-dashoffset:0; image-rendering:auto;" height="214" class="cas-substance-image" xmlns:xlink="http://www.w3.org/1999/xlink" xmlns="http://www.w3.org/2000/svg"><svg class="cas-substance-single-component"><rect y="0" x="0" width="473" stroke="none" ry="7" rx="7" height="214" fill="white" class="cas-substance-group"/><svg y="0" x="0" width="473" viewBox="0 0 473 214" style="fill:black;" height="214" class="cas-substance-single-component-image"><svg><g><g transform="translate(236,107)" style="text-rendering:geometricPrecision; color-rendering:optimizeQuality; color-interpolation:linearRGB; stroke-linecap:butt; image-rendering:optimizeQuality;"><line y2="-11.8214" y1="-4.4183" x2="-20.4746" x1="-7.6525" style="fill:none;"/><line y2="11.7586" y1="4.5702" x2="20.3659" x1="7.9156" style="fill:none;"/><line y2="25.98" y1="6.0758" x2="-15" x1="-3.508" style="fill:none;"/><line y2="-25.98" y1="-5.0018" x2="15" x1="2.8879" style="fill:none;"/><line y2="0" y1="-11.8114" x2="-51.963" x1="-31.5032" style="fill:none;"/><line y2="0" y1="11.7742" x2="51.963" x1="31.5677" style="fill:none;"/><line y2="51.963" y1="25.98" x2="0" x1="-15" style="fill:none;"/><line y2="-51.963" y1="-25.98" x2="0" x1="15" style="fill:none;"/><line y2="-15" y1="0" x2="-77.943" x1="-51.963" style="fill:none;"/><line y2="23.5234" y1="-1.0104" x2="-53.713" x1="-53.713" style="fill:none;"/><line y2="23.5234" y1="-1.0103" x2="-50.213" x1="-50.213" style="fill:none;"/><line y2="15" y1="0" x2="77.943" x1="51.963" style="fill:none;"/><line y2="-23.6484" y1="1.0104" x2="53.713" x1="53.713" style="fill:none;"/><line y2="-23.6484" y1="1.0103" x2="50.213" x1="50.213" style="fill:none;"/><line y2="77.943" y1="51.963" x2="-15" x1="0" style="fill:none;"/><line y2="-77.943" y1="-51.963" x2="15" x1="0" style="fill:none;"/><line y2="0" y1="-15" x2="-103.923" x1="-77.943" style="fill:none;"/><line y2="2.0207" y1="-10.9585" x2="-100.423" x1="-77.9429" style="fill:none;"/><line y2="0" y1="15" x2="103.923" x1="77.943" style="fill:none;"/><line y2="-2.0207" y1="10.9585" x2="100.423" x1="77.9429" style="fill:none;"/><line y2="103.923" y1="77.943" x2="0" x1="-15" style="fill:none;"/><line y2="-103.923" y1="-77.943" x2="0" x1="15" style="fill:none;"/><line y2="-15" y1="0" x2="-129.903" x1="-103.923" style="fill:none;"/><line y2="15" y1="0" x2="129.903" x1="103.923" style="fill:none;"/><line y2="-3.2258" y1="-15" x2="-150.2983" x1="-129.903" style="fill:none;"/><line y2="-38.6484" y1="-13.9896" x2="-128.153" x1="-128.153" style="fill:none;"/><line y2="-38.6484" y1="-13.9897" x2="-131.653" x1="-131.653" style="fill:none;"/><line y2="3.1886" y1="15" x2="150.3628" x1="129.903" style="fill:none;"/><line y2="38.5234" y1="13.9896" x2="128.153" x1="128.153" style="fill:none;"/><line y2="38.5234" y1="13.9897" x2="131.653" x1="131.653" style="fill:none;"/><line y2="-13.2151" y1="-3.2414" x2="-178.7746" x1="-161.5001" style="fill:none;"/><line y2="13.2347" y1="3.1786" x2="178.8085" x1="161.3914" style="fill:none;"/><path style="stroke-linecap:square; stroke:none;" d="M-0.793 1.9375 Q-0.793 3.0625 -1.6133 3.7031 Q-2.4336 4.3438 -3.8398 4.3438 Q-5.3711 4.3438 -6.1836 3.9375 L-6.1836 2.9844 Q-5.6523 3.2031 -5.0352 3.3359 Q-4.418 3.4688 -3.8086 3.4688 Q-2.8086 3.4688 -2.3086 3.0859 Q-1.8086 2.7031 -1.8086 2.0312 Q-1.8086 1.5938 -1.9883 1.3047 Q-2.168 1.0156 -2.582 0.7734 Q-2.9961 0.5312 -3.8555 0.2344 Q-5.043 -0.1875 -5.5586 -0.7734 Q-6.0742 -1.3594 -6.0742 -2.3125 Q-6.0742 -3.2969 -5.332 -3.8828 Q-4.5898 -4.4688 -3.3555 -4.4688 Q-2.0898 -4.4688 -1.0117 -4 L-1.3242 -3.1406 Q-2.3867 -3.5781 -3.3867 -3.5781 Q-4.1836 -3.5781 -4.6289 -3.2422 Q-5.0742 -2.9062 -5.0742 -2.2969 Q-5.0742 -1.8594 -4.9102 -1.5703 Q-4.7461 -1.2812 -4.3555 -1.0469 Q-3.9648 -0.8125 -3.1523 -0.5156 Q-1.8086 -0.0469 -1.3008 0.5078 Q-0.793 1.0625 -0.793 1.9375 ZM5.1992 4.2188 L5.1992 0.0625 Q5.1992 -0.7188 4.8477 -1.1094 Q4.4961 -1.5 3.7305 -1.5 Q2.7148 -1.5 2.2461 -0.9531 Q1.7773 -0.4062 1.7773 0.8438 L1.7773 4.2188 L0.8086 4.2188 L0.8086 -2.2031 L1.6055 -2.2031 L1.7617 -1.3281 L1.8086 -1.3281 Q2.1055 -1.7969 2.6445 -2.0625 Q3.1836 -2.3281 3.8398 -2.3281 Q5.0117 -2.3281 5.5977 -1.7656 Q6.1836 -1.2031 6.1836 0.0312 L6.1836 4.2188 L5.1992 4.2188 Z"/></g><g transform="translate(236,107)" style="fill:rgb(230,0,0); text-rendering:geometricPrecision; color-rendering:optimizeQuality; image-rendering:optimizeQuality; font-family:'Open Sans'; stroke:rgb(230,0,0); color-interpolation:linearRGB;"><path style="stroke:none;" d="M-22.0425 -15.0703 Q-22.0425 -13.0078 -23.0816 -11.8281 Q-24.1206 -10.6484 -25.9644 -10.6484 Q-27.855 -10.6484 -28.8862 -11.8125 Q-29.9175 -12.9766 -29.9175 -15.0859 Q-29.9175 -17.1797 -28.8862 -18.3281 Q-27.855 -19.4766 -25.9644 -19.4766 Q-24.105 -19.4766 -23.0737 -18.3047 Q-22.0425 -17.1328 -22.0425 -15.0703 ZM-28.8706 -15.0703 Q-28.8706 -13.3359 -28.1284 -12.4297 Q-27.3862 -11.5234 -25.9644 -11.5234 Q-24.5425 -11.5234 -23.8159 -12.4219 Q-23.0894 -13.3203 -23.0894 -15.0703 Q-23.0894 -16.8047 -23.8159 -17.6953 Q-24.5425 -18.5859 -25.9644 -18.5859 Q-27.3862 -18.5859 -28.1284 -17.6875 Q-28.8706 -16.7891 -28.8706 -15.0703 Z"/><path style="stroke:none;" d="M29.9175 14.9297 Q29.9175 16.9922 28.8784 18.1719 Q27.8394 19.3516 25.9956 19.3516 Q24.105 19.3516 23.0737 18.1875 Q22.0425 17.0234 22.0425 14.9141 Q22.0425 12.8203 23.0737 11.6719 Q24.105 10.5234 25.9956 10.5234 Q27.855 10.5234 28.8862 11.6953 Q29.9175 12.8672 29.9175 14.9297 ZM23.0894 14.9297 Q23.0894 16.6641 23.8316 17.5703 Q24.5737 18.4766 25.9956 18.4766 Q27.4175 18.4766 28.1441 17.5781 Q28.8706 16.6797 28.8706 14.9297 Q28.8706 13.1953 28.1441 12.3047 Q27.4175 11.4141 25.9956 11.4141 Q24.5737 11.4141 23.8316 12.3125 Q23.0894 13.2109 23.0894 14.9297 Z"/></g><g transform="translate(236,107)" style="stroke-linecap:butt; text-rendering:geometricPrecision; color-rendering:optimizeQuality; image-rendering:optimizeQuality; font-family:'Open Sans'; color-interpolation:linearRGB; stroke-miterlimit:5;"><path style="fill:none;" d="M-14.75 25.547 L-15 25.98 L-14.75 26.413"/><path style="fill:none;" d="M14.75 -25.547 L15 -25.98 L14.75 -26.413"/><path style="fill:none;" d="M-51.53 -0.25 L-51.963 0 L-52.396 -0.25"/><path style="fill:none;" d="M51.53 0.25 L51.963 0 L52.396 0.25"/><path style="fill:none;" d="M-0.25 51.53 L0 51.963 L-0.25 52.396"/><path style="fill:none;" d="M0.25 -51.53 L0 -51.963 L0.25 -52.396"/><path style="fill:none;" d="M-77.51 -14.75 L-77.943 -15 L-78.376 -14.75"/><path style="fill:rgb(230,0,0); stroke:none;" d="M-48.0255 29.9297 Q-48.0255 31.9922 -49.0646 33.1719 Q-50.1036 34.3516 -51.9474 34.3516 Q-53.838 34.3516 -54.8693 33.1875 Q-55.9005 32.0234 -55.9005 29.9141 Q-55.9005 27.8203 -54.8693 26.6719 Q-53.838 25.5234 -51.9474 25.5234 Q-50.088 25.5234 -49.0568 26.6953 Q-48.0255 27.8672 -48.0255 29.9297 ZM-54.8536 29.9297 Q-54.8536 31.6641 -54.1114 32.5703 Q-53.3693 33.4766 -51.9474 33.4766 Q-50.5255 33.4766 -49.7989 32.5781 Q-49.0724 31.6797 -49.0724 29.9297 Q-49.0724 28.1953 -49.7989 27.3047 Q-50.5255 26.4141 -51.9474 26.4141 Q-53.3693 26.4141 -54.1114 27.3125 Q-54.8536 28.2109 -54.8536 29.9297 Z"/><path style="fill:none;" d="M77.51 14.75 L77.943 15 L78.376 14.75"/><path style="fill:rgb(230,0,0); stroke:none;" d="M55.9005 -30.0703 Q55.9005 -28.0078 54.8614 -26.8281 Q53.8224 -25.6484 51.9786 -25.6484 Q50.088 -25.6484 49.0568 -26.8125 Q48.0255 -27.9766 48.0255 -30.0859 Q48.0255 -32.1797 49.0568 -33.3281 Q50.088 -34.4766 51.9786 -34.4766 Q53.838 -34.4766 54.8693 -33.3047 Q55.9005 -32.1328 55.9005 -30.0703 ZM49.0724 -30.0703 Q49.0724 -28.3359 49.8146 -27.4297 Q50.5568 -26.5234 51.9786 -26.5234 Q53.4005 -26.5234 54.1271 -27.4219 Q54.8536 -28.3203 54.8536 -30.0703 Q54.8536 -31.8047 54.1271 -32.6953 Q53.4005 -33.5859 51.9786 -33.5859 Q50.5568 -33.5859 49.8146 -32.6875 Q49.0724 -31.7891 49.0724 -30.0703 Z"/><path style="fill:none;" d="M-14.75 77.51 L-15 77.943 L-14.75 78.376"/><path style="fill:none;" d="M14.75 -77.51 L15 -77.943 L14.75 -78.376"/><path style="fill:none;" d="M-103.49 -0.25 L-103.923 0 L-104.356 -0.25"/><path style="fill:none;" d="M103.49 0.25 L103.923 0 L104.356 0.25"/><path style="fill:none;" d="M-129.47 -14.75 L-129.903 -15 L-130.336 -14.75"/><path style="fill:none;" d="M129.47 14.75 L129.903 15 L130.336 14.75"/><path style="fill:rgb(230,0,0); stroke:none;" d="M-151.9485 -0.0703 Q-151.9485 1.9922 -152.9876 3.1719 Q-154.0266 4.3516 -155.8704 4.3516 Q-157.761 4.3516 -158.7923 3.1875 Q-159.8235 2.0234 -159.8235 -0.0859 Q-159.8235 -2.1797 -158.7923 -3.3281 Q-157.761 -4.4766 -155.8704 -4.4766 Q-154.011 -4.4766 -152.9798 -3.3047 Q-151.9485 -2.1328 -151.9485 -0.0703 ZM-158.7766 -0.0703 Q-158.7766 1.6641 -158.0344 2.5703 Q-157.2923 3.4766 -155.8704 3.4766 Q-154.4485 3.4766 -153.7219 2.5781 Q-152.9954 1.6797 -152.9954 -0.0703 Q-152.9954 -1.8047 -153.7219 -2.6953 Q-154.4485 -3.5859 -155.8704 -3.5859 Q-157.2923 -3.5859 -158.0344 -2.6875 Q-158.7766 -1.7891 -158.7766 -0.0703 Z"/><path style="fill:rgb(230,0,0); stroke:none;" d="M-125.9655 -45.0703 Q-125.9655 -43.0078 -127.0046 -41.8281 Q-128.0436 -40.6484 -129.8874 -40.6484 Q-131.778 -40.6484 -132.8092 -41.8125 Q-133.8405 -42.9766 -133.8405 -45.0859 Q-133.8405 -47.1797 -132.8092 -48.3281 Q-131.778 -49.4766 -129.8874 -49.4766 Q-128.028 -49.4766 -126.9967 -48.3047 Q-125.9655 -47.1328 -125.9655 -45.0703 ZM-132.7936 -45.0703 Q-132.7936 -43.3359 -132.0514 -42.4297 Q-131.3092 -41.5234 -129.8874 -41.5234 Q-128.4655 -41.5234 -127.7389 -42.4219 Q-127.0124 -43.3203 -127.0124 -45.0703 Q-127.0124 -46.8047 -127.7389 -47.6953 Q-128.4655 -48.5859 -129.8874 -48.5859 Q-131.3092 -48.5859 -132.0514 -47.6875 Q-132.7936 -46.7891 -132.7936 -45.0703 Z"/><path style="fill:rgb(230,0,0); stroke:none;" d="M159.8235 -0.0703 Q159.8235 1.9922 158.7844 3.1719 Q157.7454 4.3516 155.9016 4.3516 Q154.011 4.3516 152.9798 3.1875 Q151.9485 2.0234 151.9485 -0.0859 Q151.9485 -2.1797 152.9798 -3.3281 Q154.011 -4.4766 155.9016 -4.4766 Q157.761 -4.4766 158.7923 -3.3047 Q159.8235 -2.1328 159.8235 -0.0703 ZM152.9954 -0.0703 Q152.9954 1.6641 153.7376 2.5703 Q154.4798 3.4766 155.9016 3.4766 Q157.3235 3.4766 158.0501 2.5781 Q158.7766 1.6797 158.7766 -0.0703 Q158.7766 -1.8047 158.0501 -2.6953 Q157.3235 -3.5859 155.9016 -3.5859 Q154.4798 -3.5859 153.7376 -2.6875 Q152.9954 -1.7891 152.9954 -0.0703 Z"/><path style="fill:rgb(230,0,0); stroke:none;" d="M133.8405 44.9297 Q133.8405 46.9922 132.8014 48.1719 Q131.7624 49.3516 129.9186 49.3516 Q128.028 49.3516 126.9967 48.1875 Q125.9655 47.0234 125.9655 44.9141 Q125.9655 42.8203 126.9967 41.6719 Q128.028 40.5234 129.9186 40.5234 Q131.778 40.5234 132.8092 41.6953 Q133.8405 42.8672 133.8405 44.9297 ZM127.0124 44.9297 Q127.0124 46.6641 127.7546 47.5703 Q128.4967 48.4766 129.9186 48.4766 Q131.3405 48.4766 132.0671 47.5781 Q132.7936 46.6797 132.7936 44.9297 Q132.7936 43.1953 132.0671 42.3047 Q131.3405 41.4141 129.9186 41.4141 Q128.4967 41.4141 127.7546 42.3125 Q127.0124 43.2109 127.0124 44.9297 Z"/><path style="stroke:none;" d="M-233.4265 -14.125 Q-233.4265 -15.6875 -232.9734 -17.0391 Q-232.5203 -18.3906 -231.6609 -19.4062 L-230.7234 -19.4062 Q-231.5672 -18.2812 -231.989 -16.9297 Q-232.4109 -15.5781 -232.4109 -14.1406 Q-232.4109 -12.7344 -231.9734 -11.3906 Q-231.5359 -10.0469 -230.7234 -8.9375 L-231.6609 -8.9375 Q-232.5203 -9.9375 -232.9734 -11.2734 Q-233.4265 -12.6094 -233.4265 -14.125 Z"/><path style="stroke:none;" d="M-228.739 -10.8438 L-229.7234 -10.8438 L-228.3484 -17.2656 L-227.364 -17.2656 L-228.739 -10.8438 ZM-228.0672 -18.9062 Q-228.0672 -19.2344 -227.8797 -19.4453 Q-227.6922 -19.6562 -227.3953 -19.6562 Q-226.8797 -19.6562 -226.8797 -19.125 Q-226.8797 -18.7969 -227.075 -18.5781 Q-227.2703 -18.3594 -227.5359 -18.3594 Q-227.7703 -18.3594 -227.9187 -18.5 Q-228.0672 -18.6406 -228.0672 -18.9062 ZM-222.7078 -12.6719 Q-222.7078 -11.75 -223.3562 -11.2344 Q-224.0047 -10.7188 -225.1922 -10.7188 Q-226.1765 -10.7188 -226.9734 -11.125 L-226.9734 -12.0625 Q-226.5672 -11.8125 -226.0906 -11.6797 Q-225.614 -11.5469 -225.2078 -11.5469 Q-224.4734 -11.5469 -224.0984 -11.8359 Q-223.7234 -12.125 -223.7234 -12.5781 Q-223.7234 -12.9219 -223.9265 -13.1484 Q-224.1297 -13.375 -224.8172 -13.7812 Q-225.5672 -14.2031 -225.8875 -14.6094 Q-226.2078 -15.0156 -226.2078 -15.5781 Q-226.2078 -16.3906 -225.614 -16.8906 Q-225.0203 -17.3906 -224.0515 -17.3906 Q-223.0515 -17.3906 -222.114 -16.9531 L-222.4422 -16.1406 L-222.7703 -16.2969 Q-223.364 -16.5469 -224.0515 -16.5469 Q-224.5984 -16.5469 -224.9109 -16.2891 Q-225.2234 -16.0312 -225.2234 -15.625 Q-225.2234 -15.2969 -225.0125 -15.0625 Q-224.8015 -14.8281 -224.1609 -14.4688 Q-223.5203 -14.1094 -223.2547 -13.8594 Q-222.989 -13.6094 -222.8484 -13.3203 Q-222.7078 -13.0312 -222.7078 -12.6719 ZM-218.116 -17.3438 Q-217.0066 -17.3438 -216.3582 -16.6875 Q-215.7097 -16.0312 -215.7097 -14.875 Q-215.7097 -13.7812 -216.1316 -12.7969 Q-216.5535 -11.8125 -217.2722 -11.2812 Q-217.991 -10.75 -218.8972 -10.75 Q-220.0222 -10.75 -220.6629 -11.4141 Q-221.3035 -12.0781 -221.3035 -13.2188 Q-221.3035 -14.3438 -220.8738 -15.3203 Q-220.4441 -16.2969 -219.7176 -16.8203 Q-218.991 -17.3438 -218.116 -17.3438 ZM-216.7254 -15.0156 Q-216.7254 -15.6875 -217.0926 -16.1016 Q-217.4597 -16.5156 -218.0847 -16.5156 Q-218.7254 -16.5156 -219.2332 -16.0859 Q-219.741 -15.6562 -220.0222 -14.8828 Q-220.3035 -14.1094 -220.3035 -13.1719 Q-220.3035 -12.4062 -219.9285 -11.9844 Q-219.5535 -11.5625 -218.8504 -11.5625 Q-218.241 -11.5625 -217.7566 -11.9922 Q-217.2722 -12.4219 -216.9988 -13.2109 Q-216.7254 -14 -216.7254 -15.0156 Z"/><path style="stroke:none;" d="M-214.7097 -13.6094 L-214.7097 -14.5 L-211.8347 -14.5 L-211.8347 -13.6094 L-214.7097 -13.6094 Z"/><path style="stroke:none;" d="M-206.7254 -18.6406 Q-208.1316 -18.6406 -208.9519 -17.7031 Q-209.7722 -16.7656 -209.7722 -15.125 Q-209.7722 -13.4531 -208.9832 -12.5312 Q-208.1941 -11.6094 -206.741 -11.6094 Q-205.8347 -11.6094 -204.6941 -11.9375 L-204.6941 -11.0625 Q-205.5847 -10.7188 -206.8816 -10.7188 Q-208.7722 -10.7188 -209.8035 -11.875 Q-210.8347 -13.0312 -210.8347 -15.1406 Q-210.8347 -16.4688 -210.3426 -17.4609 Q-209.8504 -18.4531 -208.9129 -18.9922 Q-207.9754 -19.5312 -206.7097 -19.5312 Q-205.366 -19.5312 -204.3504 -19.0469 L-204.7722 -18.1875 Q-205.7566 -18.6406 -206.7254 -18.6406 Z"/><path style="stroke:none;" d="M-201.4754 -14.8313 Q-200.6941 -14.8313 -200.2332 -14.4641 Q-199.7722 -14.0969 -199.7722 -13.4563 Q-199.7722 -13.0344 -200.0379 -12.6906 Q-200.3035 -12.3469 -200.8816 -12.0656 Q-200.1785 -11.7219 -199.8894 -11.3625 Q-199.6004 -11.0031 -199.6004 -10.5188 Q-199.6004 -9.8 -200.0926 -9.3781 Q-200.5847 -8.9563 -201.4441 -8.9563 Q-202.366 -8.9563 -202.8582 -9.3547 Q-203.3504 -9.7531 -203.3504 -10.4875 Q-203.3504 -11.4719 -202.1472 -12.0188 Q-202.6941 -12.3313 -202.9285 -12.6828 Q-203.1629 -13.0344 -203.1629 -13.4719 Q-203.1629 -14.0969 -202.7019 -14.4641 Q-202.241 -14.8313 -201.4754 -14.8313 ZM-202.7097 -10.4719 Q-202.7097 -10.0031 -202.3816 -9.7453 Q-202.0535 -9.4875 -201.4597 -9.4875 Q-200.8816 -9.4875 -200.5613 -9.7609 Q-200.241 -10.0344 -200.241 -10.5031 Q-200.241 -10.8938 -200.5457 -11.1828 Q-200.8504 -11.4719 -201.6004 -11.7531 Q-202.1785 -11.5031 -202.4441 -11.1984 Q-202.7097 -10.8938 -202.7097 -10.4719 ZM-201.4754 -14.3 Q-201.9754 -14.3 -202.2488 -14.0656 Q-202.5222 -13.8313 -202.5222 -13.4406 Q-202.5222 -13.0813 -202.2957 -12.8234 Q-202.0691 -12.5656 -201.4441 -12.3156 Q-200.8816 -12.55 -200.6472 -12.8156 Q-200.4129 -13.0813 -200.4129 -13.4406 Q-200.4129 -13.8313 -200.7019 -14.0656 Q-200.991 -14.3 -201.4754 -14.3 Z"/><path style="stroke:none;" d="M-192.0847 -10.8438 L-193.0847 -10.8438 L-193.0847 -14.875 L-197.6004 -14.875 L-197.6004 -10.8438 L-198.6004 -10.8438 L-198.6004 -19.4062 L-197.6004 -19.4062 L-197.6004 -15.7656 L-193.0847 -15.7656 L-193.0847 -19.4062 L-192.0847 -19.4062 L-192.0847 -10.8438 Z"/><path style="stroke:none;" d="M-189.0222 -9.0344 L-189.6629 -9.0344 L-189.6629 -13.1125 Q-189.6629 -13.6125 -189.6316 -14.0656 Q-189.7097 -13.9875 -189.8113 -13.8938 Q-189.9129 -13.8 -190.741 -13.1281 L-191.0847 -13.5813 L-189.5691 -14.7531 L-189.0222 -14.7531 L-189.0222 -9.0344 Z"/><path style="stroke:none;" d="M-187.2879 -9.0344 L-184.9129 -14.1438 L-188.0222 -14.1438 L-188.0222 -14.7531 L-184.2254 -14.7531 L-184.2254 -14.2219 L-186.5691 -9.0344 L-187.2879 -9.0344 Z"/><path style="stroke:none;" d="M-180.5066 -14.125 Q-180.5066 -12.5938 -180.9676 -11.2578 Q-181.4285 -9.9219 -182.2722 -8.9375 L-183.2097 -8.9375 Q-182.3972 -10.0469 -181.9676 -11.3906 Q-181.5379 -12.7344 -181.5379 -14.1406 Q-181.5379 -15.5781 -181.9597 -16.9297 Q-182.3816 -18.2812 -183.2254 -19.4062 L-182.2722 -19.4062 Q-181.4129 -18.3906 -180.9597 -17.0312 Q-180.5066 -15.6719 -180.5066 -14.125 Z"/><path style="stroke:none;" d="M180.5144 15.875 Q180.5144 14.3125 180.9676 12.9609 Q181.4207 11.6094 182.2801 10.5938 L183.2176 10.5938 Q182.3738 11.7188 181.9519 13.0703 Q181.5301 14.4219 181.5301 15.8594 Q181.5301 17.2656 181.9676 18.6094 Q182.4051 19.9531 183.2176 21.0625 L182.2801 21.0625 Q181.4207 20.0625 180.9676 18.7266 Q180.5144 17.3906 180.5144 15.875 Z"/><path style="stroke:none;" d="M185.2019 19.1562 L184.2176 19.1562 L185.5926 12.7344 L186.5769 12.7344 L185.2019 19.1562 ZM185.8738 11.0938 Q185.8738 10.7656 186.0613 10.5547 Q186.2488 10.3438 186.5457 10.3438 Q187.0613 10.3438 187.0613 10.875 Q187.0613 11.2031 186.866 11.4219 Q186.6707 11.6406 186.4051 11.6406 Q186.1707 11.6406 186.0222 11.5 Q185.8738 11.3594 185.8738 11.0938 ZM191.2332 17.3281 Q191.2332 18.25 190.5847 18.7656 Q189.9363 19.2812 188.7488 19.2812 Q187.7644 19.2812 186.9676 18.875 L186.9676 17.9375 Q187.3738 18.1875 187.8504 18.3203 Q188.3269 18.4531 188.7332 18.4531 Q189.4676 18.4531 189.8426 18.1641 Q190.2176 17.875 190.2176 17.4219 Q190.2176 17.0781 190.0144 16.8516 Q189.8113 16.625 189.1238 16.2188 Q188.3738 15.7969 188.0535 15.3906 Q187.7332 14.9844 187.7332 14.4219 Q187.7332 13.6094 188.3269 13.1094 Q188.9207 12.6094 189.8894 12.6094 Q190.8894 12.6094 191.8269 13.0469 L191.4988 13.8594 L191.1707 13.7031 Q190.5769 13.4531 189.8894 13.4531 Q189.3426 13.4531 189.0301 13.7109 Q188.7176 13.9688 188.7176 14.375 Q188.7176 14.7031 188.9285 14.9375 Q189.1394 15.1719 189.7801 15.5312 Q190.4207 15.8906 190.6863 16.1406 Q190.9519 16.3906 191.0926 16.6797 Q191.2332 16.9688 191.2332 17.3281 ZM195.825 12.6562 Q196.9344 12.6562 197.5828 13.3125 Q198.2312 13.9688 198.2312 15.125 Q198.2312 16.2188 197.8094 17.2031 Q197.3875 18.1875 196.6687 18.7188 Q195.95 19.25 195.0437 19.25 Q193.9187 19.25 193.2781 18.5859 Q192.6375 17.9219 192.6375 16.7812 Q192.6375 15.6562 193.0672 14.6797 Q193.4969 13.7031 194.2234 13.1797 Q194.95 12.6562 195.825 12.6562 ZM197.2156 14.9844 Q197.2156 14.3125 196.8484 13.8984 Q196.4812 13.4844 195.8562 13.4844 Q195.2156 13.4844 194.7078 13.9141 Q194.2 14.3438 193.9187 15.1172 Q193.6375 15.8906 193.6375 16.8281 Q193.6375 17.5938 194.0125 18.0156 Q194.3875 18.4375 195.0906 18.4375 Q195.7 18.4375 196.1844 18.0078 Q196.6687 17.5781 196.9422 16.7891 Q197.2156 16 197.2156 14.9844 Z"/><path style="stroke:none;" d="M199.2312 16.3906 L199.2312 15.5 L202.1062 15.5 L202.1062 16.3906 L199.2312 16.3906 Z"/><path style="stroke:none;" d="M207.2156 11.3594 Q205.8094 11.3594 204.989 12.2969 Q204.1687 13.2344 204.1687 14.875 Q204.1687 16.5469 204.9578 17.4688 Q205.7469 18.3906 207.2 18.3906 Q208.1062 18.3906 209.2469 18.0625 L209.2469 18.9375 Q208.3562 19.2812 207.0594 19.2812 Q205.1687 19.2812 204.1375 18.125 Q203.1062 16.9688 203.1062 14.8594 Q203.1062 13.5312 203.5984 12.5391 Q204.0906 11.5469 205.0281 11.0078 Q205.9656 10.4688 207.2312 10.4688 Q208.575 10.4688 209.5906 10.9531 L209.1687 11.8125 Q208.1844 11.3594 207.2156 11.3594 Z"/><path style="stroke:none;" d="M212.4656 15.1688 Q213.2469 15.1688 213.7078 15.5359 Q214.1687 15.9031 214.1687 16.5438 Q214.1687 16.9656 213.9031 17.3094 Q213.6375 17.6531 213.0594 17.9344 Q213.7625 18.2781 214.0515 18.6375 Q214.3406 18.9969 214.3406 19.4813 Q214.3406 20.2 213.8484 20.6219 Q213.3562 21.0438 212.4969 21.0438 Q211.575 21.0438 211.0828 20.6453 Q210.5906 20.2469 210.5906 19.5125 Q210.5906 18.5281 211.7937 17.9813 Q211.2469 17.6688 211.0125 17.3172 Q210.7781 16.9656 210.7781 16.5281 Q210.7781 15.9031 211.239 15.5359 Q211.7 15.1688 212.4656 15.1688 ZM211.2312 19.5281 Q211.2312 19.9969 211.5594 20.2547 Q211.8875 20.5125 212.4812 20.5125 Q213.0594 20.5125 213.3797 20.2391 Q213.7 19.9656 213.7 19.4969 Q213.7 19.1063 213.3953 18.8172 Q213.0906 18.5281 212.3406 18.2469 Q211.7625 18.4969 211.4969 18.8016 Q211.2312 19.1063 211.2312 19.5281 ZM212.4656 15.7 Q211.9656 15.7 211.6922 15.9344 Q211.4187 16.1688 211.4187 16.5594 Q211.4187 16.9188 211.6453 17.1766 Q211.8719 17.4344 212.4969 17.6844 Q213.0594 17.45 213.2937 17.1844 Q213.5281 16.9188 213.5281 16.5594 Q213.5281 16.1688 213.239 15.9344 Q212.95 15.7 212.4656 15.7 Z"/><path style="stroke:none;" d="M221.8562 19.1562 L220.8562 19.1562 L220.8562 15.125 L216.3406 15.125 L216.3406 19.1562 L215.3406 19.1562 L215.3406 10.5938 L216.3406 10.5938 L216.3406 14.2344 L220.8562 14.2344 L220.8562 10.5938 L221.8562 10.5938 L221.8562 19.1562 Z"/><path style="stroke:none;" d="M224.9187 20.9656 L224.2781 20.9656 L224.2781 16.8875 Q224.2781 16.3875 224.3094 15.9344 Q224.2312 16.0125 224.1297 16.1063 Q224.0281 16.2 223.2 16.8719 L222.8562 16.4188 L224.3719 15.2469 L224.9187 15.2469 L224.9187 20.9656 Z"/><path style="stroke:none;" d="M226.6531 20.9656 L229.0281 15.8563 L225.9187 15.8563 L225.9187 15.2469 L229.7156 15.2469 L229.7156 15.7781 L227.3719 20.9656 L226.6531 20.9656 Z"/><path style="stroke:none;" d="M233.4344 15.875 Q233.4344 17.4062 232.9734 18.7422 Q232.5125 20.0781 231.6687 21.0625 L230.7312 21.0625 Q231.5437 19.9531 231.9734 18.6094 Q232.4031 17.2656 232.4031 15.8594 Q232.4031 14.4219 231.9812 13.0703 Q231.5594 11.7188 230.7156 10.5938 L231.6687 10.5938 Q232.5281 11.6094 232.9812 12.9688 Q233.4344 14.3281 233.4344 15.875 Z"/></g></g></svg></svg></svg></svg>