<svg width="256" viewBox="0 0 256 228" style="fill-opacity:1; color-rendering:auto; color-interpolation:auto; text-rendering:auto; stroke:black; stroke-linecap:square; stroke-miterlimit:10; shape-rendering:auto; stroke-opacity:1; fill:black; stroke-dasharray:none; font-weight:normal; stroke-width:1; font-family:'Open Sans'; font-style:normal; stroke-linejoin:miter; font-size:12; stroke-dashoffset:0; image-rendering:auto;" height="228" class="cas-substance-image" xmlns:xlink="http://www.w3.org/1999/xlink" xmlns="http://www.w3.org/2000/svg"><svg class="cas-substance-single-component"><rect y="0" x="0" width="256" stroke="none" ry="7" rx="7" height="228" fill="white" class="cas-substance-group"/><svg y="0" x="0" width="256" viewBox="0 0 256 228" style="fill:black;" height="228" class="cas-substance-single-component-image"><svg><g><g transform="translate(130,114)" style="text-rendering:geometricPrecision; color-rendering:optimizeQuality; color-interpolation:linearRGB; stroke-linecap:butt; image-rendering:optimizeQuality;"><path style="stroke:none;" d="M37.1972 3.1222 L36.3091 3.8788 L36.8937 4.694 L37.9085 3.8294 L37.1972 3.1222 ZM39.3312 5.2437 L38.0627 6.3245 L38.6473 7.1397 L40.0426 5.9509 L39.3312 5.2437 ZM41.4653 7.3653 L39.8163 8.7701 L40.4009 9.5854 L42.1767 8.0725 L41.4653 7.3653 ZM43.5994 9.4868 L41.5699 11.2158 L42.1545 12.031 L42.1545 12.031 L44.3107 10.194 L43.5994 9.4868 ZM45.7334 11.6084 L43.3235 13.6615 L43.9081 14.4767 L46.4448 12.3156 L45.7334 11.6084 ZM47.8675 13.7299 L45.0772 16.1072 L45.6617 16.9224 L48.5788 14.4371 L48.5788 14.4371 L47.8675 13.7299 ZM50.0015 15.8515 L46.8308 18.5528 L47.4153 19.3681 L47.4153 19.3681 L50.7129 16.5586 L50.7129 16.5586 L50.0015 15.8515 ZM52.1356 17.973 L48.5844 20.9985 L49.1689 21.8137 L52.847 18.6802 L52.1356 17.973 ZM54.2697 20.0946 L50.338 23.4442 L50.338 23.4442 L50.9225 24.2594 L50.9225 24.2594 L54.981 20.8017 L54.981 20.8017 L54.2697 20.0946 ZM56.4037 22.2161 L52.0916 25.8899 L52.0916 25.8899 L52.6761 26.7051 L57.1151 22.9233 L57.1151 22.9233 L56.4037 22.2161 Z"/><line y2="7.7348" y1="8.625" x2="100.8129" x1="76.767" style="fill:none;"/><line y2="28.4293" y1="7.8067" x2="64.3104" x1="75.2201" style="fill:none;"/><line y2="30.0659" y1="8.5502" x2="67.4041" x1="78.7864" style="fill:none;"/><path style="stroke:none;" d="M61.844 -16.249 L60.8565 -15.6279 L61.3173 -14.7371 L61.3173 -14.7371 L62.4458 -15.4468 L62.4458 -15.4468 L61.844 -16.249 ZM63.6493 -13.8425 L62.2388 -12.9554 L62.6996 -12.0645 L62.6996 -12.0645 L64.2511 -13.0404 L63.6493 -13.8425 ZM65.4547 -11.4361 L63.6212 -10.2829 L64.082 -9.392 L64.082 -9.392 L66.0564 -10.6339 L65.4547 -11.4361 ZM67.26 -9.0296 L65.0035 -7.6104 L65.4643 -6.7195 L67.8618 -8.2274 L67.8618 -8.2274 L67.26 -9.0296 ZM69.0653 -6.6231 L66.3858 -4.9379 L66.8466 -4.047 L69.6671 -5.821 L69.6671 -5.821 L69.0653 -6.6231 ZM70.8706 -4.2167 L67.7682 -2.2654 L68.2289 -1.3745 L71.4724 -3.4145 L70.8706 -4.2167 ZM72.6759 -1.8102 L69.1505 0.4071 L69.6113 1.298 L73.2777 -1.0081 L72.6759 -1.8102 ZM74.4813 0.5963 L70.5328 3.0796 L70.9936 3.9705 L75.083 1.3984 L74.4813 0.5963 ZM76.2866 3.0027 L71.9152 5.7521 L72.3759 6.643 L72.3759 6.643 L76.8884 3.8049 L76.2866 3.0027 ZM78.0919 5.4092 L73.2975 8.4246 L73.7583 9.3155 L73.7583 9.3155 L78.6937 6.2113 L78.0919 5.4092 Z"/><line y2="32.925" y1="12.9826" x2="122.697" x1="110.1806" style="fill:none;"/><path style="stroke:none;" d="M61.0376 -16.3353 L60.6004 -17.2347 L80.7501 -29.8104 L83.3735 -24.4143 Z"/><line y2="2.71" y1="-17.1045" x2="-105.0926" x1="-120.2296" style="fill:none;"/><line y2="0.5853" y1="-19.2292" x2="-102.3114" x1="-117.4483" style="fill:none;"/><line y2="-17.187" y1="10.374" x2="-25.743" x1="-15.855" style="fill:none;"/><line y2="22.7304" y1="10.374" x2="6.0632" x1="-15.855" style="fill:none;"/><line y2="33.207" y1="10.374" x2="-35.61" x1="-15.855" style="fill:none;"/><line y2="33.9689" y1="14.1922" x2="-31.641" x1="-14.5303" style="fill:none;"/><line y2="-22.251" y1="-17.187" x2="-55.509" x1="-25.743" style="fill:none;"/><line y2="-25.3625" y1="-20.9763" x2="-52.9299" x1="-27.1481" style="fill:none;"/><line y2="-40.0909" y1="-17.187" x2="-16.9016" x1="-25.743" style="fill:none;"/><line y2="2.739" y1="21.1793" x2="36.105" x1="15.983" style="fill:none;"/><line y2="54.117" y1="31.7346" x2="6.729" x1="10.2047" style="fill:none;"/><line y2="27.951" y1="33.207" x2="-64.368" x1="-35.61" style="fill:none;"/><line y2="58.986" y1="33.207" x2="-22.44" x1="-35.61" style="fill:none;"/><line y2="0.087" y1="-22.251" x2="-74.364" x1="-55.509" style="fill:none;"/><line y2="-50.31" y1="-22.251" x2="-62.103" x1="-55.509" style="fill:none;"/><line y2="-44.328" y1="-45.8305" x2="19.218" x1="-9.2282" style="fill:none;"/><line y2="-65.31" y1="-50.4296" x2="-36.123" x1="-19.4218" style="fill:none;"/><line y2="-16.785" y1="2.739" x2="60.819" x1="36.105" style="fill:none;"/><line y2="-12.4609" y1="2.739" x2="21.3932" x1="36.105" style="fill:none;"/><line y2="58.986" y1="54.117" x2="-22.44" x1="6.729" style="fill:none;"/><line y2="77.274" y1="54.117" x2="25.8" x1="6.729" style="fill:none;"/><line y2="77.9392" y1="57.9019" x2="21.8137" x1="5.3119" style="fill:none;"/><line y2="0.087" y1="27.951" x2="-74.364" x1="-64.368" style="fill:none;"/><line y2="0.8072" y1="24.8671" x2="-70.3872" x1="-61.7559" style="fill:none;"/><line y2="46.311" y1="27.951" x2="-88.092" x1="-64.368" style="fill:none;"/><line y2="87.153" y1="58.986" x2="-33.381" x1="-22.44" style="fill:none;"/><line y2="86.5367" y1="62.1369" x2="-29.3868" x1="-19.9091" style="fill:none;"/><line y2="0.624" y1="0.087" x2="-104.484" x1="-74.364" style="fill:none;"/><line y2="-65.31" y1="-50.31" x2="-36.123" x1="-62.103" style="fill:none;"/><line y2="-65.31" y1="-50.31" x2="-88.083" x1="-62.103" style="fill:none;"/><line y2="-67.3307" y1="-54.3515" x2="-84.583" x1="-62.103" style="fill:none;"/><line y2="-23.4471" y1="-44.328" x2="17.5415" x1="19.218" style="fill:none;"/><line y2="-44.97" y1="-44.328" x2="50.706" x1="19.218" style="fill:none;"/><line y2="-95.31" y1="-65.31" x2="-36.123" x1="-36.123" style="fill:none;"/><line y2="-93.2893" y1="-67.3307" x2="-39.623" x1="-39.623" style="fill:none;"/><line y2="-44.97" y1="-16.785" x2="50.706" x1="60.819" style="fill:none;"/><line y2="105.372" y1="77.274" x2="15.282" x1="25.8" style="fill:none;"/><line y2="32.8325" y1="46.311" x2="-107.8824" x1="-88.092" style="fill:none;"/><line y2="110.31" y1="87.153" x2="-14.307" x1="-33.381" style="fill:none;"/><line y2="23.0978" y1="0.624" x2="-111.0412" x1="-104.484" style="fill:none;"/><line y2="-95.31" y1="-65.31" x2="-88.083" x1="-88.083" style="fill:none;"/><line y2="-110.31" y1="-95.31" x2="-62.103" x1="-36.123" style="fill:none;"/><line y2="110.31" y1="105.372" x2="-14.307" x1="15.282" style="fill:none;"/><line y2="106.5251" y1="102.2524" x2="-12.89" x1="12.7127" style="fill:none;"/><line y2="-110.31" y1="-95.31" x2="-62.103" x1="-88.083" style="fill:none;"/><line y2="-106.2685" y1="-93.2893" x2="-62.103" x1="-84.583" style="fill:none;"/><path style="stroke:none;" d="M16.6861 -67.2943 L16.7747 -66.2927 L16.7747 -66.2927 L22.3711 -66.1982 L22.3711 -66.1982 L22.4922 -67.1963 L22.4922 -67.1963 L16.6861 -67.2943 ZM16.9521 -64.2894 L17.0407 -63.2878 L17.0407 -63.2878 L22.008 -63.204 L22.008 -63.204 L22.129 -64.2021 L22.129 -64.2021 L16.9521 -64.2894 ZM17.218 -61.2845 L17.3067 -60.2829 L17.3067 -60.2829 L21.6449 -60.2097 L21.6449 -60.2097 L21.7659 -61.2078 L21.7659 -61.2078 L17.218 -61.2845 ZM17.484 -58.2797 L17.5726 -57.278 L17.5726 -57.278 L21.2818 -57.2154 L21.2818 -57.2154 L21.4028 -58.2135 L21.4028 -58.2135 L17.484 -58.2797 ZM17.7499 -55.2748 L17.8386 -54.2731 L17.8386 -54.2731 L20.9187 -54.2212 L20.9187 -54.2212 L21.0397 -55.2193 L21.0397 -55.2193 L17.7499 -55.2748 ZM18.0159 -52.2699 L18.1045 -51.2683 L18.1045 -51.2683 L20.5555 -51.2269 L20.5555 -51.2269 L20.6766 -52.225 L20.6766 -52.225 L18.0159 -52.2699 ZM18.2818 -49.265 L18.3705 -48.2634 L18.3705 -48.2634 L20.1924 -48.2326 L20.1924 -48.2326 L20.3135 -49.2307 L20.3135 -49.2307 L18.2818 -49.265 ZM18.5478 -46.2601 L18.6364 -45.2585 L18.6364 -45.2585 L19.8293 -45.2384 L19.8293 -45.2384 L19.9504 -46.2365 L19.9504 -46.2365 L18.5478 -46.2601 Z"/></g><g transform="translate(130,114)" style="fill:rgb(230,0,0); text-rendering:geometricPrecision; color-rendering:optimizeQuality; image-rendering:optimizeQuality; font-family:'Open Sans'; stroke:rgb(230,0,0); color-interpolation:linearRGB;"><path style="stroke:none;" d="M110.6865 7.4447 Q110.6865 9.5072 109.6474 10.6869 Q108.6084 11.8666 106.7646 11.8666 Q104.874 11.8666 103.8428 10.7025 Q102.8115 9.5384 102.8115 7.4291 Q102.8115 5.3353 103.8428 4.1869 Q104.874 3.0384 106.7646 3.0384 Q108.624 3.0384 109.6553 4.2103 Q110.6865 5.3822 110.6865 7.4447 ZM103.8584 7.4447 Q103.8584 9.1791 104.6006 10.0853 Q105.3428 10.9916 106.7646 10.9916 Q108.1865 10.9916 108.9131 10.0931 Q109.6396 9.1947 109.6396 7.4447 Q109.6396 5.7103 108.9131 4.8197 Q108.1865 3.9291 106.7646 3.9291 Q105.3428 3.9291 104.6006 4.8275 Q103.8584 5.7259 103.8584 7.4447 Z"/><path style="stroke:none;" d="M66.6765 35.0717 Q66.6765 37.1342 65.6374 38.3139 Q64.5984 39.4936 62.7546 39.4936 Q60.864 39.4936 59.8327 38.3295 Q58.8015 37.1654 58.8015 35.0561 Q58.8015 32.9623 59.8327 31.8139 Q60.864 30.6654 62.7546 30.6654 Q64.614 30.6654 65.6452 31.8373 Q66.6765 33.0092 66.6765 35.0717 ZM59.8484 35.0717 Q59.8484 36.8061 60.5906 37.7123 Q61.3327 38.6186 62.7546 38.6186 Q64.1765 38.6186 64.9031 37.7201 Q65.6296 36.8217 65.6296 35.0717 Q65.6296 33.3373 64.9031 32.4467 Q64.1765 31.5561 62.7546 31.5561 Q61.3327 31.5561 60.5906 32.4545 Q59.8484 33.3529 59.8484 35.0717 Z"/><path style="stroke:none;" d="M91.7355 -29.9713 Q91.7355 -27.9088 90.6964 -26.7291 Q89.6574 -25.5494 87.8136 -25.5494 Q85.923 -25.5494 84.8917 -26.7135 Q83.8605 -27.8776 83.8605 -29.9869 Q83.8605 -32.0807 84.8917 -33.2291 Q85.923 -34.3776 87.8136 -34.3776 Q89.673 -34.3776 90.7042 -33.2057 Q91.7355 -32.0338 91.7355 -29.9713 ZM84.9074 -29.9713 Q84.9074 -28.2369 85.6496 -27.3307 Q86.3917 -26.4244 87.8136 -26.4244 Q89.2355 -26.4244 89.9621 -27.3229 Q90.6886 -28.2213 90.6886 -29.9713 Q90.6886 -31.7057 89.9621 -32.5963 Q89.2355 -33.4869 87.8136 -33.4869 Q86.3917 -33.4869 85.6496 -32.5885 Q84.9074 -31.6901 84.9074 -29.9713 Z"/><path style="stroke:none;" d="M99.2511 -25.6744 L98.2511 -25.6744 L98.2511 -29.7057 L93.7355 -29.7057 L93.7355 -25.6744 L92.7355 -25.6744 L92.7355 -34.2369 L93.7355 -34.2369 L93.7355 -30.5963 L98.2511 -30.5963 L98.2511 -34.2369 L99.2511 -34.2369 L99.2511 -25.6744 Z"/><path style="stroke:none;" d="M-118.7595 -23.2873 Q-118.7595 -21.2248 -119.7986 -20.0451 Q-120.8376 -18.8654 -122.6814 -18.8654 Q-124.572 -18.8654 -125.6032 -20.0295 Q-126.6345 -21.1936 -126.6345 -23.3029 Q-126.6345 -25.3967 -125.6032 -26.5451 Q-124.572 -27.6936 -122.6814 -27.6936 Q-120.822 -27.6936 -119.7907 -26.5217 Q-118.7595 -25.3498 -118.7595 -23.2873 ZM-125.5876 -23.2873 Q-125.5876 -21.5529 -124.8454 -20.6467 Q-124.1032 -19.7404 -122.6814 -19.7404 Q-121.2595 -19.7404 -120.5329 -20.6389 Q-119.8064 -21.5373 -119.8064 -23.2873 Q-119.8064 -25.0217 -120.5329 -25.9123 Q-121.2595 -26.8029 -122.6814 -26.8029 Q-124.1032 -26.8029 -124.8454 -25.9045 Q-125.5876 -25.0061 -125.5876 -23.2873 Z"/></g><g transform="translate(130,114)" style="stroke-linecap:butt; text-rendering:geometricPrecision; color-rendering:optimizeQuality; image-rendering:optimizeQuality; font-family:'Open Sans'; color-interpolation:linearRGB; stroke-miterlimit:5;"><path style="fill:none;" d="M-16.1821 10.7521 L-15.855 10.374 L-15.4194 10.6195"/><path style="fill:none;" d="M-26.2359 -17.2709 L-25.743 -17.187 L-25.5629 -17.6535"/><path style="fill:rgb(0,5,255); stroke:none;" d="M14.5086 29.7582 L13.3679 29.7582 L8.6804 22.5707 L8.6336 22.5707 Q8.7273 23.8364 8.7273 24.8832 L8.7273 29.7582 L7.8054 29.7582 L7.8054 21.1957 L8.9304 21.1957 L13.6023 28.352 L13.6492 28.352 Q13.6492 28.1957 13.6023 27.3364 Q13.5554 26.477 13.5711 26.102 L13.5711 21.1957 L14.5086 21.1957 L14.5086 29.7582 Z"/><path style="fill:none;" d="M-35.2829 32.8289 L-35.61 33.207 L-36.1019 33.1171"/><path style="fill:none;" d="M-55.0161 -22.1671 L-55.509 -22.251 L-55.6234 -22.7377"/><path style="fill:rgb(0,5,255); stroke:none;" d="M-11.2254 -41.9567 L-12.3661 -41.9567 L-17.0536 -49.1442 L-17.1004 -49.1442 Q-17.0067 -47.8786 -17.0067 -46.8317 L-17.0067 -41.9567 L-17.9286 -41.9567 L-17.9286 -50.5192 L-16.8036 -50.5192 L-12.1317 -43.363 L-12.0848 -43.363 Q-12.0848 -43.5192 -12.1317 -44.3786 Q-12.1786 -45.238 -12.1629 -45.613 L-12.1629 -50.5192 L-11.2254 -50.5192 L-11.2254 -41.9567 Z"/></g><g transform="translate(130,114)" style="stroke-linecap:butt; font-size:8.4px; fill:gray; text-rendering:geometricPrecision; image-rendering:optimizeQuality; color-rendering:optimizeQuality; font-family:'Open Sans'; font-style:italic; stroke:gray; color-interpolation:linearRGB; stroke-miterlimit:5;"><path style="stroke:none;" d="M32.6615 -6.0357 Q32.6615 -7.3639 33.1302 -8.4889 Q33.599 -9.6139 34.6302 -10.692 L35.2396 -10.692 Q34.2709 -9.6295 33.7865 -8.4576 Q33.3021 -7.2857 33.3021 -6.0514 Q33.3021 -4.7232 33.7396 -3.7076 L33.224 -3.7076 Q32.6615 -4.7389 32.6615 -6.0357 ZM38.284 -6.6295 Q38.284 -5.8014 37.7372 -5.3482 Q37.1903 -4.8951 36.1903 -4.8951 Q35.784 -4.8951 35.4715 -4.9498 Q35.159 -5.0045 34.8778 -5.1451 L34.8778 -5.8014 Q35.5028 -5.4732 36.2059 -5.4732 Q36.8309 -5.4732 37.2059 -5.7701 Q37.5809 -6.067 37.5809 -6.5826 Q37.5809 -6.8951 37.3778 -7.1217 Q37.1747 -7.3482 36.6122 -7.6764 Q36.0184 -8.0045 35.7919 -8.3326 Q35.5653 -8.6607 35.5653 -9.1139 Q35.5653 -9.8482 36.0809 -10.3092 Q36.5965 -10.7701 37.4403 -10.7701 Q37.8153 -10.7701 38.1512 -10.692 Q38.4872 -10.6139 38.8622 -10.442 L38.5965 -9.8482 Q38.3465 -10.0045 38.0262 -10.0904 Q37.7059 -10.1764 37.4403 -10.1764 Q36.909 -10.1764 36.5887 -9.9029 Q36.2684 -9.6295 36.2684 -9.1607 Q36.2684 -8.9576 36.3387 -8.8092 Q36.409 -8.6607 36.5497 -8.5279 Q36.6903 -8.3951 37.1122 -8.1451 Q37.6747 -7.8014 37.8778 -7.6061 Q38.0809 -7.4107 38.1825 -7.1764 Q38.284 -6.942 38.284 -6.6295 ZM40.8785 -8.3482 Q40.8785 -7.0201 40.402 -5.8873 Q39.9254 -4.7545 38.9098 -3.7076 L38.3004 -3.7076 Q40.2379 -5.8639 40.2379 -8.3482 Q40.2379 -9.6764 39.8004 -10.692 L40.316 -10.692 Q40.8785 -9.6295 40.8785 -8.3482 Z"/><path style="fill:none; stroke:black;" d="M7.0469 54.503 L6.729 54.117 L6.8057 53.6229"/><path style="fill:none; stroke:black;" d="M-64.5368 27.4804 L-64.368 27.951 L-63.8762 28.0409"/><path style="fill:none; stroke:black;" d="M-22.621 59.4521 L-22.44 58.986 L-21.9468 58.9037"/><path style="fill:none; stroke:black;" d="M-74.1952 0.5576 L-74.364 0.087 L-74.0415 -0.2951"/><path style="fill:none; stroke:black;" d="M-62.536 -50.56 L-62.103 -50.31 L-61.9886 -49.8233"/><path style="stroke:none;" d="M21.6861 -35.8849 Q21.6861 -37.213 22.1549 -38.338 Q22.6236 -39.463 23.6549 -40.5411 L24.2642 -40.5411 Q23.2955 -39.4786 22.8111 -38.3067 Q22.3267 -37.1349 22.3267 -35.9005 Q22.3267 -34.5724 22.7642 -33.5567 L22.2486 -33.5567 Q21.6861 -34.588 21.6861 -35.8849 ZM25.2462 -37.1974 L24.7462 -34.8224 L24.0899 -34.8224 L25.2931 -40.5411 L26.5431 -40.5411 Q28.2774 -40.5411 28.2774 -39.1036 Q28.2774 -37.7442 26.8399 -37.3536 L27.7774 -34.8224 L27.0587 -34.8224 L26.2306 -37.1974 L25.2462 -37.1974 ZM25.8243 -39.9474 Q25.4337 -38.0255 25.3712 -37.7755 L26.0274 -37.7755 Q26.7774 -37.7755 27.1837 -38.1036 Q27.5899 -38.4317 27.5899 -39.0567 Q27.5899 -39.5255 27.3321 -39.7364 Q27.0743 -39.9474 26.4806 -39.9474 L25.8243 -39.9474 ZM30.4634 -38.1974 Q30.4634 -36.8692 29.9868 -35.7364 Q29.5103 -34.6036 28.4947 -33.5567 L27.8853 -33.5567 Q29.8228 -35.713 29.8228 -38.1974 Q29.8228 -39.5255 29.3853 -40.5411 L29.9009 -40.5411 Q30.4634 -39.4786 30.4634 -38.1974 Z"/><path style="fill:none; stroke:black;" d="M-36.123 -65.81 L-36.123 -65.31 L-35.7497 -64.9774"/><path style="stroke:none;" d="M46.8166 -18.3734 Q46.8166 -19.7015 47.2854 -20.8265 Q47.7541 -21.9515 48.7854 -23.0296 L49.3947 -23.0296 Q48.426 -21.9671 47.9416 -20.7952 Q47.4572 -19.6234 47.4572 -18.389 Q47.4572 -17.0609 47.8947 -16.0452 L47.3791 -16.0452 Q46.8166 -17.0765 46.8166 -18.3734 ZM50.3767 -19.6859 L49.8767 -17.3109 L49.2204 -17.3109 L50.4235 -23.0296 L51.6735 -23.0296 Q53.4079 -23.0296 53.4079 -21.5921 Q53.4079 -20.2327 51.9704 -19.8421 L52.9079 -17.3109 L52.1892 -17.3109 L51.361 -19.6859 L50.3767 -19.6859 ZM50.9548 -22.4359 Q50.5642 -20.514 50.5017 -20.264 L51.1579 -20.264 Q51.9079 -20.264 52.3142 -20.5921 Q52.7204 -20.9202 52.7204 -21.5452 Q52.7204 -22.014 52.4626 -22.2249 Q52.2048 -22.4359 51.611 -22.4359 L50.9548 -22.4359 ZM55.5939 -20.6859 Q55.5939 -19.3577 55.1173 -18.2249 Q54.6408 -17.0921 53.6251 -16.0452 L53.0158 -16.0452 Q54.9533 -18.2015 54.9533 -20.6859 Q54.9533 -22.014 54.5158 -23.0296 L55.0314 -23.0296 Q55.5939 -21.9671 55.5939 -20.6859 Z"/></g><g transform="translate(130,114)" style="stroke-linecap:butt; fill:rgb(230,0,0); text-rendering:geometricPrecision; color-rendering:optimizeQuality; image-rendering:optimizeQuality; font-family:'Open Sans'; stroke:rgb(230,0,0); color-interpolation:linearRGB; stroke-miterlimit:5;"><path style="stroke:none;" d="M20.9595 -17.0473 Q20.9595 -14.9848 19.9204 -13.8051 Q18.8814 -12.6254 17.0376 -12.6254 Q15.147 -12.6254 14.1157 -13.7895 Q13.0845 -14.9536 13.0845 -17.0629 Q13.0845 -19.1567 14.1157 -20.3051 Q15.147 -21.4536 17.0376 -21.4536 Q18.897 -21.4536 19.9282 -20.2817 Q20.9595 -19.1098 20.9595 -17.0473 ZM14.1314 -17.0473 Q14.1314 -15.3129 14.8736 -14.4067 Q15.6157 -13.5004 17.0376 -13.5004 Q18.4595 -13.5004 19.1861 -14.3989 Q19.9126 -15.2973 19.9126 -17.0473 Q19.9126 -18.7817 19.1861 -19.6723 Q18.4595 -20.5629 17.0376 -20.5629 Q15.6157 -20.5629 14.8736 -19.6645 Q14.1314 -18.7661 14.1314 -17.0473 Z"/><path style="fill:none; stroke:black;" d="M25.4821 76.888 L25.8 77.274 L25.6247 77.7423"/><path style="fill:none; stroke:black;" d="M-87.6966 46.005 L-88.092 46.311 L-88.5053 46.0295"/><path style="fill:none; stroke:black;" d="M-33.2 86.6869 L-33.381 87.153 L-33.0631 87.5389"/><path style="fill:none; stroke:black;" d="M-103.9841 0.6151 L-104.484 0.624 L-104.624 1.104"/><path style="fill:none; stroke:black;" d="M-87.65 -65.06 L-88.083 -65.31 L-88.083 -65.81"/><path style="fill:none; stroke:black;" d="M50.2061 -44.9598 L50.706 -44.97 L50.8749 -44.4994"/><path style="fill:none; stroke:black;" d="M-36.123 -94.81 L-36.123 -95.31 L-36.556 -95.56"/><path style="fill:none; stroke:black;" d="M15.4573 104.9037 L15.282 105.372 L14.7888 105.4543"/><path style="fill:rgb(0,5,255); stroke:none;" d="M-109.5354 33.5802 L-110.6761 33.5802 L-115.3636 26.3927 L-115.4104 26.3927 Q-115.3167 27.6584 -115.3167 28.7052 L-115.3167 33.5802 L-116.2386 33.5802 L-116.2386 25.0177 L-115.1136 25.0177 L-110.4417 32.174 L-110.3948 32.174 Q-110.3948 32.0177 -110.4417 31.1584 Q-110.4886 30.299 -110.4729 29.924 L-110.4729 25.0177 L-109.5354 25.0177 L-109.5354 33.5802 Z"/><path style="fill:rgb(0,5,255); stroke:none;" d="M-117.2386 33.5802 L-118.2386 33.5802 L-118.2386 29.549 L-122.7542 29.549 L-122.7542 33.5802 L-123.7542 33.5802 L-123.7542 25.0177 L-122.7542 25.0177 L-122.7542 28.6584 L-118.2386 28.6584 L-118.2386 25.0177 L-117.2386 25.0177 L-117.2386 33.5802 Z"/><path style="fill:none; stroke:black;" d="M-14.6249 109.9241 L-14.307 110.31 L-13.8138 110.2277"/><path style="fill:none; stroke:black;" d="M-88.083 -94.81 L-88.083 -95.31 L-87.65 -95.56"/><path style="fill:none; stroke:black;" d="M-61.67 -110.06 L-62.103 -110.31 L-62.536 -110.06"/><path style="fill:black; stroke:none;" d="M22.9618 -70.1657 L21.9618 -70.1657 L21.9618 -74.197 L17.4462 -74.197 L17.4462 -70.1657 L16.4462 -70.1657 L16.4462 -78.7282 L17.4462 -78.7282 L17.4462 -75.0876 L21.9618 -75.0876 L21.9618 -78.7282 L22.9618 -78.7282 L22.9618 -70.1657 Z"/></g></g></svg></svg></svg></svg>