<svg width="350" viewBox="0 0 350 312" style="fill-opacity:1; color-rendering:auto; color-interpolation:auto; text-rendering:auto; stroke:black; stroke-linecap:square; stroke-miterlimit:10; shape-rendering:auto; stroke-opacity:1; fill:black; stroke-dasharray:none; font-weight:normal; stroke-width:1; font-family:'Open Sans'; font-style:normal; stroke-linejoin:miter; font-size:12; stroke-dashoffset:0; image-rendering:auto;" height="312" class="cas-substance-image" xmlns:xlink="http://www.w3.org/1999/xlink" xmlns="http://www.w3.org/2000/svg"><svg class="cas-substance-single-component"><rect y="0" x="0" width="350" stroke="none" ry="7" rx="7" height="312" fill="white" class="cas-substance-group"/><svg y="0" x="0" width="350" viewBox="0 0 350 312" style="fill:black;" height="312" class="cas-substance-single-component-image"><svg><g><g transform="translate(175,156)" style="text-rendering:geometricPrecision; color-rendering:optimizeQuality; color-interpolation:linearRGB; stroke-linecap:butt; image-rendering:optimizeQuality;"><line y2="49.776" y1="62.3979" x2="90.543" x1="68.6819" style="fill:none;"/><line y2="49.776" y1="62.2652" x2="38.58" x1="60.2139" style="fill:none;"/><line y2="64.776" y1="49.776" x2="116.523" x1="90.543" style="fill:none;"/><line y2="49.776" y1="64.776" x2="142.503" x1="116.523" style="fill:none;"/><line y2="37.7108" y1="49.776" x2="163.4023" x1="142.503" style="fill:none;"/><line y2="34.6796" y1="46.7448" x2="161.6525" x1="140.7531" style="fill:none;"/><line y2="40.7419" y1="52.8072" x2="165.1522" x1="144.2529" style="fill:none;"/><line y2="100.593" y1="92.8046" x2="-23.595" x1="0.3775" style="fill:none;"/><line y2="61.977" y1="84.8979" x2="11.175" x1="6.3035" style="fill:none;"/><line y2="129.939" y1="100.593" x2="-29.832" x1="-23.595" style="fill:none;"/><line y2="139.209" y1="129.939" x2="-58.362" x1="-29.832" style="fill:none;"/><line y2="146.7721" y1="139.209" x2="-81.6413" x1="-58.362" style="fill:none;"/><line y2="150.1009" y1="142.5377" x2="-80.5599" x1="-57.2805" style="fill:none;"/><line y2="143.4434" y1="135.8803" x2="-82.7228" x1="-59.4435" style="fill:none;"/><line y2="-49.776" y1="-62.2343" x2="-90.543" x1="-68.9652" style="fill:none;"/><line y2="-49.776" y1="-62.2201" x2="-38.58" x1="-60.1356" style="fill:none;"/><line y2="-64.776" y1="-49.776" x2="-116.523" x1="-90.543" style="fill:none;"/><line y2="-49.776" y1="-64.776" x2="-142.503" x1="-116.523" style="fill:none;"/><line y2="-37.7108" y1="-49.776" x2="-163.4023" x1="-142.503" style="fill:none;"/><line y2="-34.6796" y1="-46.7448" x2="-161.6525" x1="-140.7531" style="fill:none;"/><line y2="-40.7419" y1="-52.8072" x2="-165.1522" x1="-144.2529" style="fill:none;"/><line y2="-100.593" y1="-92.7402" x2="23.595" x1="-0.5759" style="fill:none;"/><line y2="-61.977" y1="-85.0229" x2="-11.175" x1="-6.277" style="fill:none;"/><line y2="-129.939" y1="-100.593" x2="29.832" x1="23.595" style="fill:none;"/><line y2="-139.209" y1="-129.939" x2="58.362" x1="29.832" style="fill:none;"/><line y2="-146.7721" y1="-139.209" x2="81.6413" x1="58.362" style="fill:none;"/><line y2="-150.1009" y1="-142.5377" x2="80.5599" x1="57.2805" style="fill:none;"/><line y2="-143.4434" y1="-135.8803" x2="82.7228" x1="59.4435" style="fill:none;"/><line y2="18.9654" y1="13.704" x2="30.8551" x1="6.102" style="fill:none;"/><line y2="34.5073" y1="13.704" x2="-5.9092" x1="6.102" style="fill:none;"/><line y2="-13.704" y1="13.704" x2="-6.102" x1="6.102" style="fill:none;"/><line y2="-10.4343" y1="13.2817" x2="-8.4774" x1="2.0827" style="fill:none;"/><line y2="49.776" y1="26.2738" x2="38.58" x1="36.1104" style="fill:none;"/><line y2="61.977" y1="44.1637" x2="11.175" x1="-4.8644" style="fill:none;"/><line y2="61.977" y1="49.776" x2="11.175" x1="38.58" style="fill:none;"/><line y2="57.9577" y1="47.4004" x2="11.5975" x1="35.3104" style="fill:none;"/><line y2="-18.9658" y1="-13.704" x2="-30.857" x1="-6.102" style="fill:none;"/><line y2="-34.1402" y1="-13.704" x2="5.6972" x1="-6.102" style="fill:none;"/><line y2="-49.776" y1="-26.3988" x2="-38.58" x1="-36.1236" style="fill:none;"/><line y2="-61.977" y1="-44.0503" x2="-11.175" x1="4.9665" style="fill:none;"/><line y2="-61.977" y1="-49.776" x2="-11.175" x1="-38.58" style="fill:none;"/><line y2="-57.9577" y1="-47.4004" x2="-11.5975" x1="-35.3104" style="fill:none;"/></g><g transform="translate(175,156)" style="fill:rgb(148,108,0); text-rendering:geometricPrecision; color-rendering:optimizeQuality; image-rendering:optimizeQuality; font-family:'Open Sans'; stroke:rgb(148,108,0); color-interpolation:linearRGB;"><path style="stroke:none;" d="M67.2583 66.7135 Q67.2583 67.8385 66.438 68.4791 Q65.6177 69.1198 64.2114 69.1198 Q62.6802 69.1198 61.8677 68.7135 L61.8677 67.7604 Q62.3989 67.9791 63.0161 68.1119 Q63.6333 68.2448 64.2427 68.2448 Q65.2427 68.2448 65.7427 67.8619 Q66.2427 67.4791 66.2427 66.8073 Q66.2427 66.3698 66.063 66.0807 Q65.8833 65.7916 65.4693 65.5494 Q65.0552 65.3073 64.1958 65.0104 Q63.0083 64.5885 62.4927 64.0026 Q61.9771 63.4166 61.9771 62.4635 Q61.9771 61.4791 62.7193 60.8932 Q63.4614 60.3073 64.6958 60.3073 Q65.9614 60.3073 67.0396 60.776 L66.7271 61.6354 Q65.6646 61.1979 64.6646 61.1979 Q63.8677 61.1979 63.4224 61.5338 Q62.9771 61.8698 62.9771 62.4791 Q62.9771 62.9166 63.1411 63.2057 Q63.3052 63.4948 63.6958 63.7291 Q64.0864 63.9635 64.8989 64.2604 Q66.2427 64.7291 66.7505 65.2838 Q67.2583 65.8385 67.2583 66.7135 Z"/></g><g transform="translate(175,156)" style="stroke-linecap:butt; text-rendering:geometricPrecision; color-rendering:optimizeQuality; image-rendering:optimizeQuality; font-family:'Open Sans'; color-interpolation:linearRGB; stroke-miterlimit:5;"><path style="fill:none;" d="M90.11 50.026 L90.543 49.776 L90.976 50.026"/><path style="fill:none;" d="M116.09 64.526 L116.523 64.776 L116.956 64.526"/><path style="fill:rgb(0,5,255); stroke:none;" d="M171.8376 38.9322 L170.6969 38.9322 L166.0094 31.7447 L165.9626 31.7447 Q166.0563 33.0104 166.0563 34.0572 L166.0563 38.9322 L165.1344 38.9322 L165.1344 30.3697 L166.2594 30.3697 L170.9313 37.526 L170.9782 37.526 Q170.9782 37.3697 170.9313 36.5104 Q170.8844 35.651 170.9001 35.276 L170.9001 30.3697 L171.8376 30.3697 L171.8376 38.9322 Z"/><path style="fill:rgb(148,108,0); stroke:none;" d="M7.6333 93.2605 Q7.6333 94.3855 6.813 95.0261 Q5.9927 95.6667 4.5864 95.6667 Q3.0552 95.6667 2.2427 95.2605 L2.2427 94.3074 Q2.7739 94.5261 3.3911 94.6589 Q4.0083 94.7917 4.6177 94.7917 Q5.6177 94.7917 6.1177 94.4089 Q6.6177 94.0261 6.6177 93.3542 Q6.6177 92.9167 6.438 92.6277 Q6.2583 92.3386 5.8443 92.0964 Q5.4302 91.8542 4.5708 91.5574 Q3.3833 91.1355 2.8677 90.5496 Q2.3521 89.9636 2.3521 89.0105 Q2.3521 88.0261 3.0943 87.4402 Q3.8364 86.8542 5.0708 86.8542 Q6.3364 86.8542 7.4146 87.323 L7.1021 88.1824 Q6.0396 87.7449 5.0396 87.7449 Q4.2427 87.7449 3.7974 88.0808 Q3.3521 88.4167 3.3521 89.0261 Q3.3521 89.4636 3.5161 89.7527 Q3.6802 90.0417 4.0708 90.2761 Q4.4614 90.5105 5.2739 90.8074 Q6.6177 91.2761 7.1255 91.8308 Q7.6333 92.3855 7.6333 93.2605 Z"/><path style="fill:none;" d="M-23.1195 100.4385 L-23.595 100.593 L-23.6989 101.0821"/><path style="fill:none;" d="M-29.7281 129.4499 L-29.832 129.939 L-30.3075 130.0935"/><path style="fill:none;" d="M-57.8865 139.0545 L-58.362 139.209 L-58.8375 139.3635"/><path style="fill:rgb(0,5,255); stroke:none;" d="M-83.5434 152.6352 L-84.6841 152.6352 L-89.3716 145.4477 L-89.4184 145.4477 Q-89.3247 146.7134 -89.3247 147.7602 L-89.3247 152.6352 L-90.2466 152.6352 L-90.2466 144.0727 L-89.1216 144.0727 L-84.4497 151.229 L-84.4028 151.229 Q-84.4028 151.0727 -84.4497 150.2134 Q-84.4966 149.354 -84.4809 148.979 L-84.4809 144.0727 L-83.5434 144.0727 L-83.5434 152.6352 Z"/><path style="fill:rgb(148,108,0); stroke:none;" d="M-61.8677 -62.8385 Q-61.8677 -61.7135 -62.688 -61.0729 Q-63.5083 -60.4323 -64.9146 -60.4323 Q-66.4458 -60.4323 -67.2583 -60.8385 L-67.2583 -61.7916 Q-66.7271 -61.5729 -66.1099 -61.4401 Q-65.4927 -61.3073 -64.8833 -61.3073 Q-63.8833 -61.3073 -63.3833 -61.6901 Q-62.8833 -62.0729 -62.8833 -62.7448 Q-62.8833 -63.1823 -63.063 -63.4713 Q-63.2427 -63.7604 -63.6568 -64.0026 Q-64.0708 -64.2448 -64.9302 -64.5416 Q-66.1177 -64.9635 -66.6333 -65.5494 Q-67.1489 -66.1354 -67.1489 -67.0885 Q-67.1489 -68.0729 -66.4068 -68.6588 Q-65.6646 -69.2448 -64.4302 -69.2448 Q-63.1646 -69.2448 -62.0864 -68.776 L-62.3989 -67.9166 Q-63.4614 -68.3541 -64.4614 -68.3541 Q-65.2583 -68.3541 -65.7036 -68.0182 Q-66.1489 -67.6823 -66.1489 -67.0729 Q-66.1489 -66.6354 -65.9849 -66.3463 Q-65.8208 -66.0573 -65.4302 -65.8229 Q-65.0396 -65.5885 -64.2271 -65.2916 Q-62.8833 -64.8229 -62.3755 -64.2682 Q-61.8677 -63.7135 -61.8677 -62.8385 Z"/><path style="fill:none;" d="M-90.11 -50.026 L-90.543 -49.776 L-90.976 -50.026"/><path style="fill:none;" d="M-116.09 -64.526 L-116.523 -64.776 L-116.956 -64.526"/><path style="fill:none;" d="M-142.07 -50.026 L-142.503 -49.776 L-142.936 -49.526"/><path style="fill:rgb(0,5,255); stroke:none;" d="M-165.1344 -30.6197 L-166.2751 -30.6197 L-170.9626 -37.8072 L-171.0094 -37.8072 Q-170.9157 -36.5416 -170.9157 -35.4947 L-170.9157 -30.6197 L-171.8376 -30.6197 L-171.8376 -39.1822 L-170.7126 -39.1822 L-166.0407 -32.026 L-165.9938 -32.026 Q-165.9938 -32.1822 -166.0407 -33.0416 Q-166.0876 -33.901 -166.0719 -34.276 L-166.0719 -39.1822 L-165.1344 -39.1822 L-165.1344 -30.6197 Z"/><path style="fill:rgb(148,108,0); stroke:none;" d="M-2.2427 -89.3855 Q-2.2427 -88.2605 -3.063 -87.6199 Q-3.8833 -86.9792 -5.2896 -86.9792 Q-6.8208 -86.9792 -7.6333 -87.3855 L-7.6333 -88.3386 Q-7.1021 -88.1199 -6.4849 -87.9871 Q-5.8677 -87.8542 -5.2583 -87.8542 Q-4.2583 -87.8542 -3.7583 -88.2371 Q-3.2583 -88.6199 -3.2583 -89.2917 Q-3.2583 -89.7292 -3.438 -90.0183 Q-3.6177 -90.3074 -4.0317 -90.5496 Q-4.4458 -90.7917 -5.3052 -91.0886 Q-6.4927 -91.5105 -7.0083 -92.0964 Q-7.5239 -92.6824 -7.5239 -93.6355 Q-7.5239 -94.6199 -6.7817 -95.2058 Q-6.0396 -95.7917 -4.8052 -95.7917 Q-3.5396 -95.7917 -2.4614 -95.323 L-2.7739 -94.4636 Q-3.8364 -94.9011 -4.8364 -94.9011 Q-5.6333 -94.9011 -6.0786 -94.5652 Q-6.5239 -94.2292 -6.5239 -93.6199 Q-6.5239 -93.1824 -6.3599 -92.8933 Q-6.1958 -92.6042 -5.8052 -92.3699 Q-5.4146 -92.1355 -4.6021 -91.8386 Q-3.2583 -91.3699 -2.7505 -90.8152 Q-2.2427 -90.2605 -2.2427 -89.3855 Z"/><path style="fill:none;" d="M23.1195 -100.4385 L23.595 -100.593 L23.6989 -101.0821"/><path style="fill:none;" d="M29.7281 -129.4499 L29.832 -129.939 L30.3075 -130.0935"/><path style="fill:rgb(0,5,255); stroke:none;" d="M90.2466 -144.3227 L89.1059 -144.3227 L84.4184 -151.5102 L84.3716 -151.5102 Q84.4653 -150.2446 84.4653 -149.1977 L84.4653 -144.3227 L83.5434 -144.3227 L83.5434 -152.8852 L84.6684 -152.8852 L89.3403 -145.729 L89.3872 -145.729 Q89.3872 -145.8852 89.3403 -146.7446 Q89.2934 -147.604 89.3091 -147.979 L89.3091 -152.8852 L90.2466 -152.8852 L90.2466 -144.3227 Z"/><path style="fill:none;" d="M5.8986 13.2472 L6.102 13.704 L5.852 14.137"/><path style="fill:rgb(148,108,0); stroke:none;" d="M38.1403 21.8785 Q38.1403 23.0035 37.32 23.6441 Q36.4997 24.2847 35.0934 24.2847 Q33.5622 24.2847 32.7497 23.8785 L32.7497 22.9254 Q33.2809 23.1441 33.8981 23.2769 Q34.5153 23.4097 35.1247 23.4097 Q36.1247 23.4097 36.6247 23.0269 Q37.1247 22.6441 37.1247 21.9722 Q37.1247 21.5347 36.945 21.2457 Q36.7653 20.9566 36.3512 20.7144 Q35.9372 20.4722 35.0778 20.1754 Q33.8903 19.7535 33.3747 19.1676 Q32.8591 18.5816 32.8591 17.6285 Q32.8591 16.6441 33.6012 16.0582 Q34.3434 15.4722 35.5778 15.4722 Q36.8434 15.4722 37.9216 15.941 L37.6091 16.8004 Q36.5466 16.3629 35.5466 16.3629 Q34.7497 16.3629 34.3044 16.6988 Q33.8591 17.0347 33.8591 17.6441 Q33.8591 18.0816 34.0231 18.3707 Q34.1872 18.6597 34.5778 18.8941 Q34.9684 19.1285 35.7809 19.4254 Q37.1247 19.8941 37.6325 20.4488 Q38.1403 21.0035 38.1403 21.8785 Z"/><path style="fill:rgb(148,108,0); stroke:none;" d="M-6.2027 41.6215 Q-6.2027 42.7465 -7.023 43.3871 Q-7.8433 44.0278 -9.2496 44.0278 Q-10.7808 44.0278 -11.5933 43.6215 L-11.5933 42.6684 Q-11.0621 42.8871 -10.4449 43.0199 Q-9.8277 43.1528 -9.2183 43.1528 Q-8.2183 43.1528 -7.7183 42.7699 Q-7.2183 42.3871 -7.2183 41.7153 Q-7.2183 41.2778 -7.398 40.9887 Q-7.5777 40.6996 -7.9918 40.4574 Q-8.4058 40.2153 -9.2652 39.9184 Q-10.4527 39.4965 -10.9683 38.9106 Q-11.4839 38.3246 -11.4839 37.3715 Q-11.4839 36.3871 -10.7418 35.8012 Q-9.9996 35.2153 -8.7652 35.2153 Q-7.4996 35.2153 -6.4214 35.684 L-6.7339 36.5434 Q-7.7964 36.1059 -8.7964 36.1059 Q-9.5933 36.1059 -10.0386 36.4418 Q-10.4839 36.7778 -10.4839 37.3871 Q-10.4839 37.8246 -10.3199 38.1137 Q-10.1558 38.4028 -9.7652 38.6371 Q-9.3746 38.8715 -8.5621 39.1684 Q-7.2183 39.6371 -6.7105 40.1918 Q-6.2027 40.7465 -6.2027 41.6215 Z"/><path style="fill:none;" d="M38.1232 49.9794 L38.58 49.776 L38.5278 49.2787"/><path style="fill:none;" d="M11.6318 61.7736 L11.175 61.977 L11.0711 62.4661"/><path style="fill:none;" d="M-5.8986 -13.2472 L-6.102 -13.704 L-5.852 -14.137"/><path style="fill:rgb(148,108,0); stroke:none;" d="M-32.7497 -18.0035 Q-32.7497 -16.8785 -33.57 -16.2379 Q-34.3903 -15.5972 -35.7966 -15.5972 Q-37.3278 -15.5972 -38.1403 -16.0035 L-38.1403 -16.9566 Q-37.6091 -16.7379 -36.9919 -16.6051 Q-36.3747 -16.4722 -35.7653 -16.4722 Q-34.7653 -16.4722 -34.2653 -16.8551 Q-33.7653 -17.2379 -33.7653 -17.9097 Q-33.7653 -18.3472 -33.945 -18.6363 Q-34.1247 -18.9254 -34.5387 -19.1676 Q-34.9528 -19.4097 -35.8122 -19.7066 Q-36.9997 -20.1285 -37.5153 -20.7144 Q-38.0309 -21.3004 -38.0309 -22.2535 Q-38.0309 -23.2379 -37.2887 -23.8238 Q-36.5466 -24.4097 -35.3122 -24.4097 Q-34.0466 -24.4097 -32.9684 -23.941 L-33.2809 -23.0816 Q-34.3434 -23.5191 -35.3434 -23.5191 Q-36.1403 -23.5191 -36.5856 -23.1832 Q-37.0309 -22.8472 -37.0309 -22.2379 Q-37.0309 -21.8004 -36.8669 -21.5113 Q-36.7028 -21.2222 -36.3122 -20.9879 Q-35.9216 -20.7535 -35.1091 -20.4566 Q-33.7653 -19.9879 -33.2575 -19.4332 Q-32.7497 -18.8785 -32.7497 -18.0035 Z"/><path style="fill:rgb(148,108,0); stroke:none;" d="M11.5933 -37.7465 Q11.5933 -36.6215 10.773 -35.9809 Q9.9527 -35.3403 8.5464 -35.3403 Q7.0152 -35.3403 6.2027 -35.7465 L6.2027 -36.6996 Q6.7339 -36.4809 7.3511 -36.3481 Q7.9683 -36.2153 8.5777 -36.2153 Q9.5777 -36.2153 10.0777 -36.5981 Q10.5777 -36.9809 10.5777 -37.6528 Q10.5777 -38.0903 10.398 -38.3793 Q10.2183 -38.6684 9.8043 -38.9106 Q9.3902 -39.1528 8.5308 -39.4496 Q7.3433 -39.8715 6.8277 -40.4574 Q6.3121 -41.0434 6.3121 -41.9965 Q6.3121 -42.9809 7.0543 -43.5668 Q7.7964 -44.1528 9.0308 -44.1528 Q10.2964 -44.1528 11.3746 -43.684 L11.0621 -42.8246 Q9.9996 -43.2621 8.9996 -43.2621 Q8.2027 -43.2621 7.7574 -42.9262 Q7.3121 -42.5903 7.3121 -41.9809 Q7.3121 -41.5434 7.4761 -41.2543 Q7.6402 -40.9653 8.0308 -40.7309 Q8.4214 -40.4965 9.2339 -40.1996 Q10.5777 -39.7309 11.0855 -39.1762 Q11.5933 -38.6215 11.5933 -37.7465 Z"/><path style="fill:none;" d="M-38.1232 -49.9794 L-38.58 -49.776 L-39.013 -50.026"/><path style="fill:none;" d="M-11.6318 -61.7736 L-11.175 -61.977 L-11.0711 -62.4661"/></g></g></svg></svg></svg></svg>