<svg xmlns:ns0="http://www.w3.org/2000/svg" xmlns="http://www.w3.org/2000/svg"><g transform="translate(0, 0)"><ns0:svg width="231" viewBox="0 0 231 59" style="fill-opacity:1; color-rendering:auto; color-interpolation:auto; text-rendering:auto; stroke:black; stroke-linecap:square; stroke-miterlimit:10; shape-rendering:auto; stroke-opacity:1; fill:black; stroke-dasharray:none; font-weight:normal; stroke-width:1; font-family:'Open Sans'; font-style:normal; stroke-linejoin:miter; font-size:12; stroke-dashoffset:0; image-rendering:auto;" height="59" class="cas-substance-image"><ns0:svg class="cas-substance-single-component"><ns0:rect y="0" x="0" width="231" stroke="none" ry="7" rx="7" height="59" fill="white" class="cas-substance-group" /><ns0:svg y="0" x="0" width="231" viewBox="0 0 231 59" style="fill:black;" height="59" class="cas-substance-single-component-image"><ns0:svg><ns0:g><ns0:g transform="translate(112,29)" style="text-rendering:geometricPrecision; color-rendering:optimizeQuality; color-interpolation:linearRGB; stroke-linecap:butt; image-rendering:optimizeQuality;"><ns0:line y2="1.75" y1="1.75" x2="-73.9896" x1="-99.0625" style="fill:none;" /><ns0:line y2="-1.75" y1="-1.75" x2="-73.9896" x1="-99.0625" style="fill:none;" /><ns0:line y2="0" y1="0" x2="75" x1="99.0625" style="fill:none;" /><ns0:line y2="-25.98" y1="0" x2="-30" x1="-15" style="fill:none;" /><ns0:line y2="25.98" y1="0" x2="-30" x1="-15" style="fill:none;" /><ns0:line y2="0" y1="0" x2="15" x1="-15" style="fill:none;" /><ns0:line y2="-25.98" y1="-25.98" x2="-60" x1="-30" style="fill:none;" /><ns0:line y2="25.98" y1="25.98" x2="-60" x1="-30" style="fill:none;" /><ns0:line y2="0" y1="-25.98" x2="-75" x1="-60" style="fill:none;" /><ns0:line y2="0" y1="25.98" x2="-75" x1="-60" style="fill:none;" /><ns0:line y2="25.98" y1="0" x2="30" x1="15" style="fill:none;" /><ns0:line y2="22.48" y1="-0.0001" x2="32.0207" x1="19.0415" style="fill:none;" /><ns0:line y2="-25.98" y1="0" x2="30" x1="15" style="fill:none;" /><ns0:line y2="25.98" y1="25.98" x2="60" x1="30" style="fill:none;" /><ns0:line y2="-25.98" y1="-25.98" x2="60" x1="30" style="fill:none;" /><ns0:line y2="-22.48" y1="-22.48" x2="57.9793" x1="32.0207" style="fill:none;" /><ns0:line y2="0" y1="25.98" x2="75" x1="60" style="fill:none;" /><ns0:line y2="-0.0001" y1="22.48" x2="70.9585" x1="57.9793" style="fill:none;" /><ns0:line y2="0" y1="-25.98" x2="75" x1="60" style="fill:none;" /></ns0:g><ns0:g transform="translate(112,29)" style="fill:rgb(230,0,0); text-rendering:geometricPrecision; color-rendering:optimizeQuality; image-rendering:optimizeQuality; font-family:'Open Sans'; stroke:rgb(230,0,0); color-interpolation:linearRGB;"><ns0:path style="stroke:none;" d="M-101.0625 -0.0703 Q-101.0625 1.9922 -102.1016 3.1719 Q-103.1406 4.3516 -104.9844 4.3516 Q-106.875 4.3516 -107.9062 3.1875 Q-108.9375 2.0234 -108.9375 -0.0859 Q-108.9375 -2.1797 -107.9062 -3.3281 Q-106.875 -4.4766 -104.9844 -4.4766 Q-103.125 -4.4766 -102.0938 -3.3047 Q-101.0625 -2.1328 -101.0625 -0.0703 ZM-107.8906 -0.0703 Q-107.8906 1.6641 -107.1484 2.5703 Q-106.4062 3.4766 -104.9844 3.4766 Q-103.5625 3.4766 -102.8359 2.5781 Q-102.1094 1.6797 -102.1094 -0.0703 Q-102.1094 -1.8047 -102.8359 -2.6953 Q-103.5625 -3.5859 -104.9844 -3.5859 Q-106.4062 -3.5859 -107.1484 -2.6875 Q-107.8906 -1.7891 -107.8906 -0.0703 Z" /><ns0:path style="stroke:none;" d="M108.9375 -0.0703 Q108.9375 1.9922 107.8984 3.1719 Q106.8594 4.3516 105.0156 4.3516 Q103.125 4.3516 102.0938 3.1875 Q101.0625 2.0234 101.0625 -0.0859 Q101.0625 -2.1797 102.0938 -3.3281 Q103.125 -4.4766 105.0156 -4.4766 Q106.875 -4.4766 107.9062 -3.3047 Q108.9375 -2.1328 108.9375 -0.0703 ZM102.1094 -0.0703 Q102.1094 1.6641 102.8516 2.5703 Q103.5938 3.4766 105.0156 3.4766 Q106.4375 3.4766 107.1641 2.5781 Q107.8906 1.6797 107.8906 -0.0703 Q107.8906 -1.8047 107.1641 -2.6953 Q106.4375 -3.5859 105.0156 -3.5859 Q103.5938 -3.5859 102.8516 -2.6875 Q102.1094 -1.7891 102.1094 -0.0703 Z" /><ns0:path style="stroke:none;" d="M116.4531 4.2266 L115.4531 4.2266 L115.4531 0.1953 L110.9375 0.1953 L110.9375 4.2266 L109.9375 4.2266 L109.9375 -4.3359 L110.9375 -4.3359 L110.9375 -0.6953 L115.4531 -0.6953 L115.4531 -4.3359 L116.4531 -4.3359 L116.4531 4.2266 Z" /></ns0:g><ns0:g transform="translate(112,29)" style="stroke-linecap:butt; text-rendering:geometricPrecision; color-rendering:optimizeQuality; image-rendering:optimizeQuality; font-family:'Open Sans'; color-interpolation:linearRGB; stroke-miterlimit:5;"><ns0:path style="fill:none;" d="M-29.75 -25.547 L-30 -25.98 L-30.5 -25.98" /><ns0:path style="fill:none;" d="M-29.75 25.547 L-30 25.98 L-30.5 25.98" /><ns0:path style="fill:none;" d="M-59.5 -25.98 L-60 -25.98 L-60.25 -25.547" /><ns0:path style="fill:none;" d="M-59.5 25.98 L-60 25.98 L-60.25 25.547" /><ns0:path style="fill:none;" d="M-74.75 -0.433 L-75 0 L-74.75 0.433" /><ns0:path style="fill:none;" d="M15.25 0.433 L15 0 L14.5 -0" /><ns0:path style="fill:none;" d="M29.75 25.547 L30 25.98 L30.5 25.98" /><ns0:path style="fill:none;" d="M29.75 -25.547 L30 -25.98 L30.5 -25.98" /><ns0:path style="fill:none;" d="M59.5 25.98 L60 25.98 L60.25 25.547" /><ns0:path style="fill:none;" d="M59.5 -25.98 L60 -25.98 L60.25 -25.547" /><ns0:path style="fill:none;" d="M74.75 0.433 L75 0 L75.5 0" /></ns0:g></ns0:g></ns0:svg></ns0:svg></ns0:svg></ns0:svg></g></svg>