<svg width="351" viewBox="0 0 351 85" style="fill-opacity:1; color-rendering:auto; color-interpolation:auto; text-rendering:auto; stroke:black; stroke-linecap:square; stroke-miterlimit:10; shape-rendering:auto; stroke-opacity:1; fill:black; stroke-dasharray:none; font-weight:normal; stroke-width:1; font-family:'Open Sans'; font-style:normal; stroke-linejoin:miter; font-size:12; stroke-dashoffset:0; image-rendering:auto;" height="85" class="cas-substance-image" xmlns:xlink="http://www.w3.org/1999/xlink" xmlns="http://www.w3.org/2000/svg"><svg class="cas-substance-single-component"><rect y="0" x="0" width="351" stroke="none" ry="7" rx="7" height="85" fill="white" class="cas-substance-group"/><svg y="0" x="0" width="351" viewBox="0 0 351 85" style="fill:black;" height="85" class="cas-substance-single-component-image"><svg><g><g transform="translate(175,42)" style="text-rendering:geometricPrecision; color-rendering:optimizeQuality; color-interpolation:linearRGB; stroke-linecap:butt; image-rendering:optimizeQuality;"><line y2="12.99" y1="-12.99" x2="97.5" x1="82.5" style="fill:none;"/><path style="stroke:none;" d="M54.5 -13.6567 L53.5 -13.5733 L53.5 -13.5733 L53.5 -12.4067 L53.5 -12.4067 L54.5 -12.3233 L54.5 -12.3233 L54.5 -13.6567 ZM57.5 -13.9067 L56.5 -13.8233 L56.5 -13.8233 L56.5 -12.1567 L56.5 -12.1567 L57.5 -12.0733 L57.5 -12.0733 L57.5 -13.9067 ZM60.5 -14.1567 L59.5 -14.0733 L59.5 -14.0733 L59.5 -11.9067 L59.5 -11.9067 L60.5 -11.8233 L60.5 -11.8233 L60.5 -14.1567 ZM63.5 -14.4067 L62.5 -14.3233 L62.5 -14.3233 L62.5 -11.6567 L62.5 -11.6567 L63.5 -11.5733 L63.5 -11.5733 L63.5 -14.4067 ZM66.5 -14.6567 L65.5 -14.5733 L65.5 -11.4067 L66.5 -11.3233 L66.5 -14.6567 ZM69.5 -14.9067 L68.5 -14.8233 L68.5 -11.1567 L69.5 -11.0733 L69.5 -14.9067 ZM72.5 -15.1567 L71.5 -15.0733 L71.5 -10.9067 L72.5 -10.8233 L72.5 -15.1567 ZM75.5 -15.4067 L74.5 -15.3233 L74.5 -10.6567 L75.5 -10.5733 L75.5 -15.4067 ZM78.5 -15.6567 L77.5 -15.5733 L77.5 -10.4067 L78.5 -10.3233 L78.5 -15.6567 ZM81.5 -15.9067 L80.5 -15.8233 L80.5 -10.1567 L81.5 -10.0733 L81.5 -15.9067 Z"/><line y2="12.99" y1="12.99" x2="127.5" x1="97.5" style="fill:none;"/><line y2="38.97" y1="12.99" x2="142.5" x1="127.5" style="fill:none;"/><line y2="38.97" y1="38.97" x2="172.5" x1="142.5" style="fill:none;"/><line y2="-38.97" y1="-18.7176" x2="-142.5" x1="-130.8069" style="fill:none;"/><line y2="-12.99" y1="-12.99" x2="-97.5" x1="-121.5625" style="fill:none;"/><line y2="-38.97" y1="-38.97" x2="-172.5" x1="-142.5" style="fill:none;"/><line y2="-38.97" y1="-12.99" x2="7.5" x1="-7.5" style="fill:none;"/><line y2="12.99" y1="-12.99" x2="7.5" x1="-7.5" style="fill:none;"/><path style="stroke:none;" d="M-7.5 -13.49 L-7.5 -12.49 L-39.2321 -9.99 L-37.5 -12.99 L-39.2321 -15.99 Z"/><line y2="-38.97" y1="-38.97" x2="37.5" x1="7.5" style="fill:none;"/><line y2="12.99" y1="12.99" x2="37.5" x1="7.5" style="fill:none;"/><line y2="-12.99" y1="-38.97" x2="52.5" x1="37.5" style="fill:none;"/><line y2="-12.99" y1="12.99" x2="52.5" x1="37.5" style="fill:none;"/><line y2="-38.97" y1="-12.99" x2="-52.5" x1="-37.5" style="fill:none;"/><line y2="-35.47" y1="-12.9899" x2="-54.5207" x1="-41.5415" style="fill:none;"/><line y2="12.99" y1="-12.99" x2="-52.5" x1="-37.5" style="fill:none;"/><line y2="-38.97" y1="-38.97" x2="-82.5" x1="-52.5" style="fill:none;"/><line y2="12.99" y1="12.99" x2="-82.5" x1="-52.5" style="fill:none;"/><line y2="9.49" y1="9.49" x2="-80.4793" x1="-54.5207" style="fill:none;"/><line y2="-12.99" y1="-38.97" x2="-97.5" x1="-82.5" style="fill:none;"/><line y2="-12.9899" y1="-35.47" x2="-93.4585" x1="-80.4793" style="fill:none;"/><line y2="-12.99" y1="12.99" x2="-97.5" x1="-82.5" style="fill:none;"/><path style="fill:none; stroke-miterlimit:5;" d="M97.25 12.557 L97.5 12.99 L98 12.99"/><path style="fill:none; stroke-miterlimit:5;" d="M127 12.99 L127.5 12.99 L127.75 13.423"/><path style="fill:none; stroke-miterlimit:5;" d="M142.25 38.537 L142.5 38.97 L143 38.97"/></g><g transform="translate(175,42)" style="stroke-linecap:butt; fill:rgb(230,0,0); text-rendering:geometricPrecision; color-rendering:optimizeQuality; image-rendering:optimizeQuality; font-family:'Open Sans'; stroke:rgb(230,0,0); color-interpolation:linearRGB; stroke-miterlimit:5;"><path style="stroke:none;" d="M-123.5625 -13.0603 Q-123.5625 -10.9978 -124.6016 -9.8181 Q-125.6406 -8.6384 -127.4844 -8.6384 Q-129.375 -8.6384 -130.4062 -9.8025 Q-131.4375 -10.9666 -131.4375 -13.0759 Q-131.4375 -15.1697 -130.4062 -16.3181 Q-129.375 -17.4666 -127.4844 -17.4666 Q-125.625 -17.4666 -124.5938 -16.2947 Q-123.5625 -15.1228 -123.5625 -13.0603 ZM-130.3906 -13.0603 Q-130.3906 -11.3259 -129.6484 -10.4197 Q-128.9062 -9.5134 -127.4844 -9.5134 Q-126.0625 -9.5134 -125.3359 -10.4119 Q-124.6094 -11.3103 -124.6094 -13.0603 Q-124.6094 -14.7947 -125.3359 -15.6853 Q-126.0625 -16.5759 -127.4844 -16.5759 Q-128.9062 -16.5759 -129.6484 -15.6775 Q-130.3906 -14.7791 -130.3906 -13.0603 Z"/><path style="fill:none; stroke:black;" d="M-142.25 -38.537 L-142.5 -38.97 L-143 -38.97"/><path style="fill:none; stroke:black;" d="M7.25 -38.537 L7.5 -38.97 L8 -38.97"/><path style="fill:none; stroke:black;" d="M7.25 12.557 L7.5 12.99 L8 12.99"/><path style="fill:none; stroke:black;" d="M37 -38.97 L37.5 -38.97 L37.75 -38.537"/><path style="fill:none; stroke:black;" d="M37 12.99 L37.5 12.99 L37.75 12.557"/><path style="fill:none; stroke:black;" d="M52.25 -13.423 L52.5 -12.99 L52.25 -12.557"/><path style="fill:none; stroke:black;" d="M-52.25 -38.537 L-52.5 -38.97 L-53 -38.97"/><path style="fill:none; stroke:black;" d="M-52.25 12.557 L-52.5 12.99 L-53 12.99"/><path style="fill:none; stroke:black;" d="M-82 -38.97 L-82.5 -38.97 L-82.75 -38.537"/><path style="fill:none; stroke:black;" d="M-82 12.99 L-82.5 12.99 L-82.75 12.557"/><path style="fill:none; stroke:black;" d="M-97.25 -13.423 L-97.5 -12.99 L-98 -12.99"/></g></g></svg></svg></svg></svg>