<svg xmlns:ns0="http://www.w3.org/2000/svg" xmlns="http://www.w3.org/2000/svg"><g transform="translate(0, 0)"><ns0:svg width="100" viewBox="0 0 100 26" style="fill-opacity:1; color-rendering:auto; color-interpolation:auto; text-rendering:auto; stroke:black; stroke-linecap:square; stroke-miterlimit:10; shape-rendering:auto; stroke-opacity:1; fill:black; stroke-dasharray:none; font-weight:normal; stroke-width:1; font-family:'Open Sans'; font-style:normal; stroke-linejoin:miter; font-size:12; stroke-dashoffset:0; image-rendering:auto;" height="26" class="cas-substance-image"><ns0:svg class="cas-substance-single-component"><ns0:rect y="0" x="0" width="100" stroke="none" ry="7" rx="7" height="26" fill="white" class="cas-substance-group" /><ns0:svg y="0" x="15" width="70" viewBox="0 0 70 26" style="fill:black;" height="26" class="cas-substance-single-component-image"><ns0:svg><ns0:g><ns0:g transform="translate(29,15)" style="text-rendering:geometricPrecision; color-rendering:optimizeQuality; color-interpolation:linearRGB; stroke-linecap:butt; image-rendering:optimizeQuality;"><ns0:line y2="-7.5" y1="7.5" x2="-25.98" x1="0" style="fill:none;" /><ns0:line y2="-4.3112" y1="7.5" x2="20.457" x1="0" style="fill:none;" /><ns0:path style="fill:none; stroke-miterlimit:5;" d="M-0.433 7.25 L0 7.5 L0.433 7.25" /></ns0:g><ns0:g transform="translate(29,15)" style="stroke-linecap:butt; fill:rgb(230,0,0); text-rendering:geometricPrecision; color-rendering:optimizeQuality; image-rendering:optimizeQuality; font-family:'Open Sans'; stroke:rgb(230,0,0); color-interpolation:linearRGB; stroke-miterlimit:5;"><ns0:path style="stroke:none;" d="M29.9175 -7.5703 Q29.9175 -5.5078 28.8784 -4.3281 Q27.8394 -3.1484 25.9956 -3.1484 Q24.105 -3.1484 23.0737 -4.3125 Q22.0425 -5.4766 22.0425 -7.5859 Q22.0425 -9.6797 23.0737 -10.8281 Q24.105 -11.9766 25.9956 -11.9766 Q27.855 -11.9766 28.8862 -10.8047 Q29.9175 -9.6328 29.9175 -7.5703 ZM23.0894 -7.5703 Q23.0894 -5.8359 23.8316 -4.9297 Q24.5737 -4.0234 25.9956 -4.0234 Q27.4175 -4.0234 28.1441 -4.9219 Q28.8706 -5.8203 28.8706 -7.5703 Q28.8706 -9.3047 28.1441 -10.1953 Q27.4175 -11.0859 25.9956 -11.0859 Q24.5737 -11.0859 23.8316 -10.1875 Q23.0894 -9.2891 23.0894 -7.5703 Z" /><ns0:path style="stroke:none;" d="M37.4331 -3.2734 L36.4331 -3.2734 L36.4331 -7.3047 L31.9175 -7.3047 L31.9175 -3.2734 L30.9175 -3.2734 L30.9175 -11.8359 L31.9175 -11.8359 L31.9175 -8.1953 L36.4331 -8.1953 L36.4331 -11.8359 L37.4331 -11.8359 L37.4331 -3.2734 Z" /></ns0:g></ns0:g></ns0:svg></ns0:svg></ns0:svg></ns0:svg></g><g transform="translate(100, 0)"><ns0:svg width="100" viewBox="0 0 100 75" style="fill-opacity:1; color-rendering:auto; color-interpolation:auto; text-rendering:auto; stroke:black; stroke-linecap:square; stroke-miterlimit:10; shape-rendering:auto; stroke-opacity:1; fill:black; stroke-dasharray:none; font-weight:normal; stroke-width:1; font-family:'Open Sans'; font-style:normal; stroke-linejoin:miter; font-size:12; stroke-dashoffset:0; image-rendering:auto;" height="75" class="cas-substance-image"><ns0:svg class="cas-substance-single-component"><ns0:rect y="0" x="0" width="100" stroke="none" ry="7" rx="7" height="75" fill="white" class="cas-substance-group" /><ns0:svg y="0" x="9" width="81" viewBox="0 0 81 75" style="fill:black;" height="75" class="cas-substance-single-component-image"><ns0:svg><ns0:g><ns0:g transform="translate(37,37)" style="text-rendering:geometricPrecision; color-rendering:optimizeQuality; color-interpolation:linearRGB; stroke-linecap:butt; image-rendering:optimizeQuality;"><ns0:line y2="-1.75" y1="-1.75" x2="-24.0625" x1="-4.7188" style="fill:none;" /><ns0:line y2="1.75" y1="1.75" x2="-24.0625" x1="-4.7188" style="fill:none;" /><ns0:line y2="0" y1="0" x2="24.0625" x1="4.1513" style="fill:none;" /><ns0:line y2="23.5234" y1="4.3104" x2="0" x1="0" style="fill:none;" /><ns0:line y2="-23.6484" y1="-6.4062" x2="0" x1="0" style="fill:none;" /></ns0:g><ns0:g transform="translate(37,37)" style="fill:rgb(111,5,255); text-rendering:geometricPrecision; color-rendering:optimizeQuality; image-rendering:optimizeQuality; font-family:'Open Sans'; stroke:rgb(111,5,255); color-interpolation:linearRGB;"><ns0:path style="stroke:none;" d="M2.7188 -1.9219 Q2.7188 -0.6094 1.8281 0.0859 Q0.9375 0.7812 -0.7031 0.7812 L-1.7188 0.7812 L-1.7188 4.1562 L-2.7188 4.1562 L-2.7188 -4.4062 L-0.4844 -4.4062 Q2.7188 -4.4062 2.7188 -1.9219 ZM-1.7188 -0.0625 L-0.8125 -0.0625 Q0.5 -0.0625 1.0938 -0.4922 Q1.6875 -0.9219 1.6875 -1.875 Q1.6875 -2.7188 1.1328 -3.1328 Q0.5781 -3.5469 -0.6094 -3.5469 L-1.7188 -3.5469 L-1.7188 -0.0625 Z" /><ns0:path style="fill:rgb(230,0,0); stroke:none;" d="M-26.0625 -0.0703 Q-26.0625 1.9922 -27.1016 3.1719 Q-28.1406 4.3516 -29.9844 4.3516 Q-31.875 4.3516 -32.9062 3.1875 Q-33.9375 2.0234 -33.9375 -0.0859 Q-33.9375 -2.1797 -32.9062 -3.3281 Q-31.875 -4.4766 -29.9844 -4.4766 Q-28.125 -4.4766 -27.0938 -3.3047 Q-26.0625 -2.1328 -26.0625 -0.0703 ZM-32.8906 -0.0703 Q-32.8906 1.6641 -32.1484 2.5703 Q-31.4062 3.4766 -29.9844 3.4766 Q-28.5625 3.4766 -27.8359 2.5781 Q-27.1094 1.6797 -27.1094 -0.0703 Q-27.1094 -1.8047 -27.8359 -2.6953 Q-28.5625 -3.5859 -29.9844 -3.5859 Q-31.4062 -3.5859 -32.1484 -2.6875 Q-32.8906 -1.7891 -32.8906 -0.0703 Z" /><ns0:path style="fill:rgb(230,0,0); stroke:none;" d="M33.9375 -0.0703 Q33.9375 1.9922 32.8984 3.1719 Q31.8594 4.3516 30.0156 4.3516 Q28.125 4.3516 27.0938 3.1875 Q26.0625 2.0234 26.0625 -0.0859 Q26.0625 -2.1797 27.0938 -3.3281 Q28.125 -4.4766 30.0156 -4.4766 Q31.875 -4.4766 32.9062 -3.3047 Q33.9375 -2.1328 33.9375 -0.0703 ZM27.1094 -0.0703 Q27.1094 1.6641 27.8516 2.5703 Q28.5938 3.4766 30.0156 3.4766 Q31.4375 3.4766 32.1641 2.5781 Q32.8906 1.6797 32.8906 -0.0703 Q32.8906 -1.8047 32.1641 -2.6953 Q31.4375 -3.5859 30.0156 -3.5859 Q28.5938 -3.5859 27.8516 -2.6875 Q27.1094 -1.7891 27.1094 -0.0703 Z" /><ns0:path style="fill:rgb(230,0,0); stroke:none;" d="M41.4531 4.2266 L40.4531 4.2266 L40.4531 0.1953 L35.9375 0.1953 L35.9375 4.2266 L34.9375 4.2266 L34.9375 -4.3359 L35.9375 -4.3359 L35.9375 -0.6953 L40.4531 -0.6953 L40.4531 -4.3359 L41.4531 -4.3359 L41.4531 4.2266 Z" /><ns0:path style="fill:rgb(230,0,0); stroke:none;" d="M3.9375 29.9297 Q3.9375 31.9922 2.8984 33.1719 Q1.8594 34.3516 0.0156 34.3516 Q-1.875 34.3516 -2.9062 33.1875 Q-3.9375 32.0234 -3.9375 29.9141 Q-3.9375 27.8203 -2.9062 26.6719 Q-1.875 25.5234 0.0156 25.5234 Q1.875 25.5234 2.9062 26.6953 Q3.9375 27.8672 3.9375 29.9297 ZM-2.8906 29.9297 Q-2.8906 31.6641 -2.1484 32.5703 Q-1.4062 33.4766 0.0156 33.4766 Q1.4375 33.4766 2.1641 32.5781 Q2.8906 31.6797 2.8906 29.9297 Q2.8906 28.1953 2.1641 27.3047 Q1.4375 26.4141 0.0156 26.4141 Q-1.4062 26.4141 -2.1484 27.3125 Q-2.8906 28.2109 -2.8906 29.9297 Z" /><ns0:path style="fill:rgb(230,0,0); stroke:none;" d="M11.4531 34.2266 L10.4531 34.2266 L10.4531 30.1953 L5.9375 30.1953 L5.9375 34.2266 L4.9375 34.2266 L4.9375 25.6641 L5.9375 25.6641 L5.9375 29.3047 L10.4531 29.3047 L10.4531 25.6641 L11.4531 25.6641 L11.4531 34.2266 Z" /><ns0:path style="fill:rgb(230,0,0); stroke:none;" d="M3.9375 -30.0703 Q3.9375 -28.0078 2.8984 -26.8281 Q1.8594 -25.6484 0.0156 -25.6484 Q-1.875 -25.6484 -2.9062 -26.8125 Q-3.9375 -27.9766 -3.9375 -30.0859 Q-3.9375 -32.1797 -2.9062 -33.3281 Q-1.875 -34.4766 0.0156 -34.4766 Q1.875 -34.4766 2.9062 -33.3047 Q3.9375 -32.1328 3.9375 -30.0703 ZM-2.8906 -30.0703 Q-2.8906 -28.3359 -2.1484 -27.4297 Q-1.4062 -26.5234 0.0156 -26.5234 Q1.4375 -26.5234 2.1641 -27.4219 Q2.8906 -28.3203 2.8906 -30.0703 Q2.8906 -31.8047 2.1641 -32.6953 Q1.4375 -33.5859 0.0156 -33.5859 Q-1.4062 -33.5859 -2.1484 -32.6875 Q-2.8906 -31.7891 -2.8906 -30.0703 Z" /><ns0:path style="fill:rgb(230,0,0); stroke:none;" d="M11.4531 -25.7734 L10.4531 -25.7734 L10.4531 -29.8047 L5.9375 -29.8047 L5.9375 -25.7734 L4.9375 -25.7734 L4.9375 -34.3359 L5.9375 -34.3359 L5.9375 -30.6953 L10.4531 -30.6953 L10.4531 -34.3359 L11.4531 -34.3359 L11.4531 -25.7734 Z" /></ns0:g></ns0:g></ns0:svg></ns0:svg></ns0:svg></ns0:svg></g></svg>