<svg width="288" viewBox="0 0 288 115" style="fill-opacity:1; color-rendering:auto; color-interpolation:auto; text-rendering:auto; stroke:black; stroke-linecap:square; stroke-miterlimit:10; shape-rendering:auto; stroke-opacity:1; fill:black; stroke-dasharray:none; font-weight:normal; stroke-width:1; font-family:'Open Sans'; font-style:normal; stroke-linejoin:miter; font-size:12; stroke-dashoffset:0; image-rendering:auto;" height="115" class="cas-substance-image" xmlns:xlink="http://www.w3.org/1999/xlink" xmlns="http://www.w3.org/2000/svg"><svg class="cas-substance-single-component"><rect y="0" x="0" width="288" stroke="none" ry="7" rx="7" height="115" fill="white" class="cas-substance-group"/><svg y="0" x="0" width="288" viewBox="0 0 288 115" style="fill:black;" height="115" class="cas-substance-single-component-image"><svg><g><g transform="translate(138,59)" style="text-rendering:geometricPrecision; color-rendering:optimizeQuality; color-interpolation:linearRGB; stroke-linecap:butt; image-rendering:optimizeQuality;"><path style="stroke:none;" d="M11.5359 -25.98 L11.5359 -25.98 L11.5359 -25.98 L11.4255 -25.7427 L11.4255 -25.7427 L16.3492 -22.9034 L16.3492 -22.9034 L16.9176 -23.7303 L16.9176 -23.7303 L13.0164 -25.98 ZM10.5785 -23.9218 L10.1549 -23.0113 L10.1549 -23.0113 L14.6439 -20.4227 L14.6439 -20.4227 L15.2123 -21.2496 L15.2123 -21.2496 L10.5785 -23.9218 ZM9.3079 -21.1904 L8.8843 -20.2799 L8.8843 -20.2799 L12.9386 -17.9419 L12.9386 -17.9419 L13.507 -18.7689 L9.3079 -21.1904 ZM8.0373 -18.4589 L7.6138 -17.5485 L7.6138 -17.5485 L11.2333 -15.4612 L11.8017 -16.2881 L11.8017 -16.2881 L8.0373 -18.4589 ZM6.7667 -15.7275 L6.3432 -14.8171 L6.3432 -14.8171 L9.528 -12.9805 L9.528 -12.9805 L10.0964 -13.8074 L10.0964 -13.8074 L6.7667 -15.7275 ZM5.4961 -12.9961 L5.0726 -12.0856 L5.0726 -12.0856 L7.8226 -10.4998 L7.8226 -10.4998 L8.3911 -11.3267 L8.3911 -11.3267 L5.4961 -12.9961 ZM4.2255 -10.2647 L3.802 -9.3542 L3.802 -9.3542 L6.1173 -8.019 L6.6858 -8.8459 L6.6858 -8.8459 L4.2255 -10.2647 ZM2.955 -7.5333 L2.5314 -6.6228 L2.5314 -6.6228 L4.412 -5.5383 L4.9805 -6.3652 L2.955 -7.5333 ZM1.6844 -4.8018 L1.2608 -3.8914 L2.7067 -3.0576 L2.7067 -3.0576 L3.2752 -3.8845 L3.2752 -3.8845 L1.6844 -4.8018 ZM0.4138 -2.0704 L-0.0097 -1.1599 L-0.0097 -1.1599 L1.0014 -0.5768 L1.0014 -0.5768 L1.5698 -1.4038 L1.5698 -1.4038 L0.4138 -2.0704 Z"/><line y2="-25.98" y1="-25.98" x2="45" x1="15" style="fill:none;"/><line y2="-25.98" y1="-46.327" x2="-75" x1="-86.7464" style="fill:none;"/><line y2="25.98" y1="5.648" x2="-135" x1="-123.261" style="fill:none;"/><line y2="0" y1="0" x2="-90" x1="-114.0625" style="fill:none;"/><line y2="-25.98" y1="-25.98" x2="105" x1="129.0625" style="fill:none;"/><line y2="0" y1="0" x2="0" x1="-30" style="fill:none;"/><line y2="25.98" y1="0" x2="-45" x1="-30" style="fill:none;"/><line y2="-25.98" y1="0" x2="-45" x1="-30" style="fill:none;"/><line y2="-22.48" y1="0.0001" x2="-47.0207" x1="-34.0415" style="fill:none;"/><line y2="19.8417" y1="0" x2="11.456" x1="0" style="fill:none;"/><line y2="25.98" y1="25.98" x2="-75" x1="-45" style="fill:none;"/><line y2="22.48" y1="22.48" x2="-72.9793" x1="-47.0207" style="fill:none;"/><line y2="51.963" y1="25.98" x2="-30" x1="-45" style="fill:none;"/><line y2="-25.98" y1="-25.98" x2="-75" x1="-45" style="fill:none;"/><line y2="51.963" y1="31.8683" x2="0" x1="11.6007" style="fill:none;"/><line y2="0" y1="25.98" x2="-90" x1="-75" style="fill:none;"/><line y2="51.963" y1="51.963" x2="0" x1="-30" style="fill:none;"/><line y2="0" y1="-25.98" x2="-90" x1="-75" style="fill:none;"/><line y2="0.0001" y1="-22.48" x2="-85.9585" x1="-72.9793" style="fill:none;"/><line y2="0" y1="-25.98" x2="60" x1="45" style="fill:none;"/><line y2="-3.5" y1="-25.9801" x2="62.0207" x1="49.0415" style="fill:none;"/><line y2="-51.963" y1="-25.98" x2="60" x1="45" style="fill:none;"/><line y2="0" y1="0" x2="90" x1="60" style="fill:none;"/><line y2="-51.963" y1="-51.963" x2="90" x1="60" style="fill:none;"/><line y2="-48.463" y1="-48.463" x2="87.9793" x1="62.0207" style="fill:none;"/><line y2="-25.98" y1="0" x2="105" x1="90" style="fill:none;"/><line y2="-25.9801" y1="-3.5" x2="100.9585" x1="87.9793" style="fill:none;"/><line y2="-25.98" y1="-51.963" x2="105" x1="90" style="fill:none;"/></g><g transform="translate(138,59)" style="fill:rgb(230,0,0); text-rendering:geometricPrecision; color-rendering:optimizeQuality; image-rendering:optimizeQuality; font-family:'Open Sans'; stroke:rgb(230,0,0); color-interpolation:linearRGB;"><path style="stroke:none;" d="M-86.0625 -52.0333 Q-86.0625 -49.9708 -87.1016 -48.7911 Q-88.1406 -47.6114 -89.9844 -47.6114 Q-91.875 -47.6114 -92.9062 -48.7755 Q-93.9375 -49.9396 -93.9375 -52.0489 Q-93.9375 -54.1427 -92.9062 -55.2911 Q-91.875 -56.4396 -89.9844 -56.4396 Q-88.125 -56.4396 -87.0938 -55.2677 Q-86.0625 -54.0958 -86.0625 -52.0333 ZM-92.8906 -52.0333 Q-92.8906 -50.2989 -92.1484 -49.3927 Q-91.4062 -48.4864 -89.9844 -48.4864 Q-88.5625 -48.4864 -87.8359 -49.3849 Q-87.1094 -50.2833 -87.1094 -52.0333 Q-87.1094 -53.7677 -87.8359 -54.6583 Q-88.5625 -55.5489 -89.9844 -55.5489 Q-91.4062 -55.5489 -92.1484 -54.6505 Q-92.8906 -53.7521 -92.8906 -52.0333 Z"/><path style="stroke:none;" d="M-94.9375 -47.7364 L-95.9375 -47.7364 L-95.9375 -51.7677 L-100.4531 -51.7677 L-100.4531 -47.7364 L-101.4531 -47.7364 L-101.4531 -56.2989 L-100.4531 -56.2989 L-100.4531 -52.6583 L-95.9375 -52.6583 L-95.9375 -56.2989 L-94.9375 -56.2989 L-94.9375 -47.7364 Z"/><path style="stroke:none;" d="M-116.0625 -0.0703 Q-116.0625 1.9922 -117.1016 3.1719 Q-118.1406 4.3516 -119.9844 4.3516 Q-121.875 4.3516 -122.9062 3.1875 Q-123.9375 2.0234 -123.9375 -0.0859 Q-123.9375 -2.1797 -122.9062 -3.3281 Q-121.875 -4.4766 -119.9844 -4.4766 Q-118.125 -4.4766 -117.0938 -3.3047 Q-116.0625 -2.1328 -116.0625 -0.0703 ZM-122.8906 -0.0703 Q-122.8906 1.6641 -122.1484 2.5703 Q-121.4062 3.4766 -119.9844 3.4766 Q-118.5625 3.4766 -117.8359 2.5781 Q-117.1094 1.6797 -117.1094 -0.0703 Q-117.1094 -1.8047 -117.8359 -2.6953 Q-118.5625 -3.5859 -119.9844 -3.5859 Q-121.4062 -3.5859 -122.1484 -2.6875 Q-122.8906 -1.7891 -122.8906 -0.0703 Z"/><path style="stroke:none;" d="M138.9375 -26.0503 Q138.9375 -23.9878 137.8984 -22.8081 Q136.8594 -21.6284 135.0156 -21.6284 Q133.125 -21.6284 132.0938 -22.7925 Q131.0625 -23.9566 131.0625 -26.0659 Q131.0625 -28.1597 132.0938 -29.3081 Q133.125 -30.4566 135.0156 -30.4566 Q136.875 -30.4566 137.9062 -29.2847 Q138.9375 -28.1128 138.9375 -26.0503 ZM132.1094 -26.0503 Q132.1094 -24.3159 132.8516 -23.4097 Q133.5938 -22.5034 135.0156 -22.5034 Q136.4375 -22.5034 137.1641 -23.4019 Q137.8906 -24.3003 137.8906 -26.0503 Q137.8906 -27.7847 137.1641 -28.6753 Q136.4375 -29.5659 135.0156 -29.5659 Q133.5938 -29.5659 132.8516 -28.6675 Q132.1094 -27.7691 132.1094 -26.0503 Z"/><path style="stroke:none;" d="M146.4531 -21.7534 L145.4531 -21.7534 L145.4531 -25.7847 L140.9375 -25.7847 L140.9375 -21.7534 L139.9375 -21.7534 L139.9375 -30.3159 L140.9375 -30.3159 L140.9375 -26.6753 L145.4531 -26.6753 L145.4531 -30.3159 L146.4531 -30.3159 L146.4531 -21.7534 Z"/></g><g transform="translate(138,59)" style="stroke-linecap:butt; text-rendering:geometricPrecision; color-rendering:optimizeQuality; image-rendering:optimizeQuality; font-family:'Open Sans'; color-interpolation:linearRGB; stroke-miterlimit:5;"><path style="fill:none;" d="M-30.25 -0.433 L-30 0 L-29.5 0"/><path style="fill:none;" d="M-0.5 -0 L0 0 L0.25 0.433"/></g><g transform="translate(138,59)" style="stroke-linecap:butt; font-size:8.4px; fill:gray; text-rendering:geometricPrecision; image-rendering:optimizeQuality; color-rendering:optimizeQuality; font-family:'Open Sans'; font-style:italic; stroke:gray; color-interpolation:linearRGB; stroke-miterlimit:5;"><path style="stroke:none;" d="M-9.1083 -7.4573 Q-9.1083 -8.7854 -8.6396 -9.9104 Q-8.1708 -11.0354 -7.1396 -12.1135 L-6.5302 -12.1135 Q-7.4989 -11.051 -7.9833 -9.8791 Q-8.4677 -8.7073 -8.4677 -7.4729 Q-8.4677 -6.1448 -8.0302 -5.1291 L-8.5458 -5.1291 Q-9.1083 -6.1604 -9.1083 -7.4573 ZM-3.4857 -8.051 Q-3.4857 -7.2229 -4.0326 -6.7698 Q-4.5795 -6.3166 -5.5795 -6.3166 Q-5.9857 -6.3166 -6.2982 -6.3713 Q-6.6107 -6.426 -6.892 -6.5666 L-6.892 -7.2229 Q-6.267 -6.8948 -5.5639 -6.8948 Q-4.9389 -6.8948 -4.5639 -7.1916 Q-4.1889 -7.4885 -4.1889 -8.0041 Q-4.1889 -8.3166 -4.392 -8.5432 Q-4.5951 -8.7698 -5.1576 -9.0979 Q-5.7514 -9.426 -5.9779 -9.7541 Q-6.2045 -10.0823 -6.2045 -10.5354 Q-6.2045 -11.2698 -5.6889 -11.7307 Q-5.1732 -12.1916 -4.3295 -12.1916 Q-3.9545 -12.1916 -3.6186 -12.1135 Q-3.2826 -12.0354 -2.9076 -11.8635 L-3.1732 -11.2698 Q-3.4232 -11.426 -3.7436 -11.5119 Q-4.0639 -11.5979 -4.3295 -11.5979 Q-4.8607 -11.5979 -5.1811 -11.3244 Q-5.5014 -11.051 -5.5014 -10.5823 Q-5.5014 -10.3791 -5.4311 -10.2307 Q-5.3607 -10.0823 -5.2201 -9.9494 Q-5.0795 -9.8166 -4.6576 -9.5666 Q-4.0951 -9.2229 -3.892 -9.0276 Q-3.6889 -8.8323 -3.5873 -8.5979 Q-3.4857 -8.3635 -3.4857 -8.051 ZM-0.8913 -9.7698 Q-0.8913 -8.4416 -1.3678 -7.3088 Q-1.8444 -6.176 -2.86 -5.1291 L-3.4694 -5.1291 Q-1.5319 -7.2854 -1.5319 -9.7698 Q-1.5319 -11.0979 -1.9694 -12.1135 L-1.4538 -12.1135 Q-0.8913 -11.051 -0.8913 -9.7698 Z"/><path style="fill:none; stroke:black;" d="M-45.5 25.98 L-45 25.98 L-44.75 25.547"/><path style="fill:none; stroke:black;" d="M-44.75 -25.547 L-45 -25.98 L-45.5 -25.98"/></g><g transform="translate(138,59)" style="stroke-linecap:butt; fill:rgb(0,5,255); text-rendering:geometricPrecision; color-rendering:optimizeQuality; image-rendering:optimizeQuality; font-family:'Open Sans'; stroke:rgb(0,5,255); color-interpolation:linearRGB; stroke-miterlimit:5;"><path style="stroke:none;" d="M18.3516 30.1362 L17.2109 30.1362 L12.5234 22.9487 L12.4766 22.9487 Q12.5703 24.2144 12.5703 25.2612 L12.5703 30.1362 L11.6484 30.1362 L11.6484 21.5737 L12.7734 21.5737 L17.4453 28.73 L17.4922 28.73 Q17.4922 28.5737 17.4453 27.7144 Q17.3984 26.855 17.4141 26.48 L17.4141 21.5737 L18.3516 21.5737 L18.3516 30.1362 Z"/><path style="stroke:none;" d="M25.8672 30.1362 L24.8672 30.1362 L24.8672 26.105 L20.3516 26.105 L20.3516 30.1362 L19.3516 30.1362 L19.3516 21.5737 L20.3516 21.5737 L20.3516 25.2144 L24.8672 25.2144 L24.8672 21.5737 L25.8672 21.5737 L25.8672 30.1362 Z"/><path style="fill:none; stroke:black;" d="M-74.5 25.98 L-75 25.98 L-75.25 25.547"/><path style="fill:none; stroke:black;" d="M-30.25 51.53 L-30 51.963 L-29.5 51.963"/><path style="fill:none; stroke:black;" d="M-75.25 -25.547 L-75 -25.98 L-75.25 -26.413"/><path style="fill:none; stroke:black;" d="M0.25 51.53 L0 51.963 L-0.5 51.963"/><path style="fill:none; stroke:black;" d="M-89.75 -0.433 L-90 0 L-90.5 -0"/><path style="fill:none; stroke:black;" d="M45.25 -25.547 L45 -25.98 L44.5 -25.98"/><path style="fill:none; stroke:black;" d="M59.75 -0.433 L60 0 L60.5 0"/><path style="fill:none; stroke:black;" d="M59.75 -51.53 L60 -51.963 L60.5 -51.963"/><path style="fill:none; stroke:black;" d="M89.5 -0 L90 0 L90.25 -0.433"/><path style="fill:none; stroke:black;" d="M89.5 -51.963 L90 -51.963 L90.25 -51.53"/><path style="fill:none; stroke:black;" d="M104.75 -25.547 L105 -25.98 L105.5 -25.98"/></g></g></svg></svg></svg></svg>