<svg xmlns:ns0="http://www.w3.org/2000/svg" xmlns="http://www.w3.org/2000/svg"><g transform="translate(0, 0)"><ns0:svg width="159" viewBox="0 0 159 88" style="fill-opacity:1; color-rendering:auto; color-interpolation:auto; text-rendering:auto; stroke:black; stroke-linecap:square; stroke-miterlimit:10; shape-rendering:auto; stroke-opacity:1; fill:black; stroke-dasharray:none; font-weight:normal; stroke-width:1; font-family:'Open Sans'; font-style:normal; stroke-linejoin:miter; font-size:12; stroke-dashoffset:0; image-rendering:auto;" height="88" class="cas-substance-image"><ns0:svg class="cas-substance-single-component"><ns0:rect y="0" x="0" width="159" stroke="none" ry="7" rx="7" height="88" fill="white" class="cas-substance-group" /><ns0:svg y="0" x="0" width="159" viewBox="0 0 159 88" style="fill:black;" height="88" class="cas-substance-single-component-image"><ns0:svg><ns0:g><ns0:g transform="translate(85,44)" style="text-rendering:geometricPrecision; color-rendering:optimizeQuality; color-interpolation:linearRGB; stroke-linecap:butt; image-rendering:optimizeQuality;"><ns0:line y2="-5.748" y1="4.512" x2="70.587" x1="42.396" style="fill:none;" /><ns0:line y2="-9.0369" y1="0.532" x2="69.39" x1="43.0979" style="fill:none;" /><ns0:line y2="-14.772" y1="4.512" x2="19.413" x1="42.396" style="fill:none;" /><ns0:line y2="-14.772" y1="-34.056" x2="19.413" x1="42.396" style="fill:none;" /><ns0:line y2="11.208" y1="21.468" x2="-25.587" x1="-53.778" style="fill:none;" /><ns0:line y2="11.208" y1="40.752" x2="-25.587" x1="-20.376" style="fill:none;" /><ns0:line y2="-14.772" y1="-14.772" x2="-40.587" x1="-64.6495" style="fill:none;" /><ns0:line y2="-14.772" y1="5.4863" x2="19.413" x1="7.7165" style="fill:none;" /><ns0:line y2="11.208" y1="11.208" x2="-25.587" x1="-1.5245" style="fill:none;" /><ns0:line y2="-40.752" y1="-14.772" x2="4.413" x1="19.413" style="fill:none;" /><ns0:line y2="-14.772" y1="11.208" x2="-40.587" x1="-25.587" style="fill:none;" /><ns0:line y2="-40.752" y1="-40.752" x2="-25.587" x1="4.413" style="fill:none;" /><ns0:line y2="-40.752" y1="-14.772" x2="-25.587" x1="-40.587" style="fill:none;" /><ns0:path style="fill:none; stroke-miterlimit:5;" d="M42.8658 4.341 L42.396 4.512 L42.013 4.1906" /></ns0:g><ns0:g transform="translate(85,44)" style="stroke-linecap:butt; fill:rgb(230,0,0); text-rendering:geometricPrecision; color-rendering:optimizeQuality; image-rendering:optimizeQuality; font-family:'Open Sans'; stroke:rgb(230,0,0); color-interpolation:linearRGB; stroke-miterlimit:5;"><ns0:path style="stroke:none;" d="M-66.6495 -14.8423 Q-66.6495 -12.7798 -67.6886 -11.6001 Q-68.7276 -10.4204 -70.5714 -10.4204 Q-72.462 -10.4204 -73.4932 -11.5845 Q-74.5245 -12.7486 -74.5245 -14.8579 Q-74.5245 -16.9517 -73.4932 -18.1001 Q-72.462 -19.2486 -70.5714 -19.2486 Q-68.712 -19.2486 -67.6807 -18.0767 Q-66.6495 -16.9048 -66.6495 -14.8423 ZM-73.4776 -14.8423 Q-73.4776 -13.1079 -72.7354 -12.2017 Q-71.9932 -11.2954 -70.5714 -11.2954 Q-69.1495 -11.2954 -68.4229 -12.1939 Q-67.6964 -13.0923 -67.6964 -14.8423 Q-67.6964 -16.5767 -68.4229 -17.4673 Q-69.1495 -18.3579 -70.5714 -18.3579 Q-71.9932 -18.3579 -72.7354 -17.4595 Q-73.4776 -16.5611 -73.4776 -14.8423 Z" /><ns0:path style="stroke:none;" d="M-75.5245 -10.5454 L-76.5245 -10.5454 L-76.5245 -14.5767 L-81.0401 -14.5767 L-81.0401 -10.5454 L-82.0401 -10.5454 L-82.0401 -19.1079 L-81.0401 -19.1079 L-81.0401 -15.4673 L-76.5245 -15.4673 L-76.5245 -19.1079 L-75.5245 -19.1079 L-75.5245 -10.5454 Z" /><ns0:path style="stroke:none;" d="M8.3505 11.1377 Q8.3505 13.2002 7.3114 14.3799 Q6.2724 15.5596 4.4286 15.5596 Q2.538 15.5596 1.5068 14.3955 Q0.4755 13.2314 0.4755 11.1221 Q0.4755 9.0283 1.5068 7.8799 Q2.538 6.7314 4.4286 6.7314 Q6.288 6.7314 7.3193 7.9033 Q8.3505 9.0752 8.3505 11.1377 ZM1.5224 11.1377 Q1.5224 12.8721 2.2646 13.7783 Q3.0068 14.6846 4.4286 14.6846 Q5.8505 14.6846 6.5771 13.7861 Q7.3036 12.8877 7.3036 11.1377 Q7.3036 9.4033 6.5771 8.5127 Q5.8505 7.6221 4.4286 7.6221 Q3.0068 7.6221 2.2646 8.5205 Q1.5224 9.4189 1.5224 11.1377 Z" /><ns0:path style="fill:none; stroke:black;" d="M4.663 -40.319 L4.413 -40.752 L3.913 -40.752" /><ns0:path style="fill:none; stroke:black;" d="M-25.087 -40.752 L-25.587 -40.752 L-25.837 -40.319" /></ns0:g></ns0:g></ns0:svg></ns0:svg></ns0:svg></ns0:svg></g></svg>