<svg width="208" viewBox="0 0 208 145" style="fill-opacity:1; color-rendering:auto; color-interpolation:auto; text-rendering:auto; stroke:black; stroke-linecap:square; stroke-miterlimit:10; shape-rendering:auto; stroke-opacity:1; fill:black; stroke-dasharray:none; font-weight:normal; stroke-width:1; font-family:'Open Sans'; font-style:normal; stroke-linejoin:miter; font-size:12; stroke-dashoffset:0; image-rendering:auto;" height="145" class="cas-substance-image" xmlns:xlink="http://www.w3.org/1999/xlink" xmlns="http://www.w3.org/2000/svg"><svg class="cas-substance-single-component"><rect y="0" x="0" width="208" stroke="none" ry="7" rx="7" height="145" fill="white" class="cas-substance-group"/><svg y="0" x="0" width="208" viewBox="0 0 208 145" style="fill:black;" height="145" class="cas-substance-single-component-image"><svg><g><g transform="translate(104,72)" style="text-rendering:geometricPrecision; color-rendering:optimizeQuality; color-interpolation:linearRGB; stroke-linecap:butt; image-rendering:optimizeQuality;"><line y2="11.24" y1="32.3674" x2="23.5104" x1="35.7086" style="fill:none;"/><line y2="12.99" y1="34.1174" x2="20.4793" x1="32.6775" style="fill:none;"/><line y2="-37.22" y1="-58.4421" x2="-8.5104" x1="-20.7619" style="fill:none;"/><line y2="-38.97" y1="-60.192" x2="-5.4793" x1="-17.7308" style="fill:none;"/><line y2="-12.99" y1="-12.99" x2="37.5" x1="67.5" style="fill:none;"/><line y2="-12.99" y1="12.99" x2="-22.5" x1="-7.5" style="fill:none;"/><line y2="12.99" y1="12.99" x2="22.5" x1="-7.5" style="fill:none;"/><line y2="38.97" y1="12.99" x2="-22.5" x1="-7.5" style="fill:none;"/><line y2="35.47" y1="12.9899" x2="-24.5207" x1="-11.5415" style="fill:none;"/><line y2="-38.97" y1="-12.99" x2="-7.5" x1="-22.5" style="fill:none;"/><line y2="-12.99" y1="-12.99" x2="-52.5" x1="-22.5" style="fill:none;"/><line y2="-9.49" y1="-9.49" x2="-50.4793" x1="-24.5207" style="fill:none;"/><line y2="-12.99" y1="12.99" x2="37.5" x1="22.5" style="fill:none;"/><line y2="38.97" y1="38.97" x2="-52.5" x1="-22.5" style="fill:none;"/><line y2="-38.97" y1="-38.97" x2="22.5" x1="-7.5" style="fill:none;"/><line y2="12.99" y1="-12.99" x2="-67.5" x1="-52.5" style="fill:none;"/><line y2="-38.97" y1="-12.99" x2="22.5" x1="37.5" style="fill:none;"/><line y2="-35.47" y1="-12.9899" x2="20.4793" x1="33.4585" style="fill:none;"/><line y2="12.99" y1="38.97" x2="-67.5" x1="-52.5" style="fill:none;"/><line y2="12.9899" y1="35.47" x2="-63.4585" x1="-50.4793" style="fill:none;"/><line y2="-33.0817" y1="-12.99" x2="79.1003" x1="67.5" style="fill:none;"/><line y2="-12.99" y1="-12.99" x2="92.0781" x1="67.5" style="fill:none;"/><line y2="6.8517" y1="-12.99" x2="78.956" x1="67.5" style="fill:none;"/><line y2="58.8147" y1="38.97" x2="-11.0437" x1="-22.5" style="fill:none;"/><line y2="-33.8793" y1="-12.99" x2="-64.5608" x1="-52.5" style="fill:none;"/><line y2="59.6608" y1="38.97" x2="-64.4448" x1="-52.5" style="fill:none;"/><line y2="-59.0647" y1="-38.97" x2="34.1007" x1="22.5" style="fill:none;"/><line y2="12.99" y1="12.99" x2="-92.0781" x1="-67.5" style="fill:none;"/></g><g transform="translate(104,72)" style="fill:rgb(230,0,0); text-rendering:geometricPrecision; color-rendering:optimizeQuality; image-rendering:optimizeQuality; font-family:'Open Sans'; stroke:rgb(230,0,0); color-interpolation:linearRGB;"><path style="stroke:none;" d="M41.4375 38.8997 Q41.4375 40.9622 40.3984 42.1419 Q39.3594 43.3216 37.5156 43.3216 Q35.625 43.3216 34.5938 42.1575 Q33.5625 40.9934 33.5625 38.8841 Q33.5625 36.7903 34.5938 35.6419 Q35.625 34.4934 37.5156 34.4934 Q39.375 34.4934 40.4062 35.6653 Q41.4375 36.8372 41.4375 38.8997 ZM34.6094 38.8997 Q34.6094 40.6341 35.3516 41.5403 Q36.0938 42.4466 37.5156 42.4466 Q38.9375 42.4466 39.6641 41.5481 Q40.3906 40.6497 40.3906 38.8997 Q40.3906 37.1653 39.6641 36.2747 Q38.9375 35.3841 37.5156 35.3841 Q36.0938 35.3841 35.3516 36.2825 Q34.6094 37.1809 34.6094 38.8997 Z"/><path style="stroke:none;" d="M-18.5625 -65.0233 Q-18.5625 -62.9608 -19.6016 -61.7811 Q-20.6406 -60.6014 -22.4844 -60.6014 Q-24.375 -60.6014 -25.4062 -61.7655 Q-26.4375 -62.9296 -26.4375 -65.0389 Q-26.4375 -67.1327 -25.4062 -68.2811 Q-24.375 -69.4296 -22.4844 -69.4296 Q-20.625 -69.4296 -19.5938 -68.2577 Q-18.5625 -67.0858 -18.5625 -65.0233 ZM-25.3906 -65.0233 Q-25.3906 -63.2889 -24.6484 -62.3827 Q-23.9062 -61.4764 -22.4844 -61.4764 Q-21.0625 -61.4764 -20.3359 -62.3749 Q-19.6094 -63.2733 -19.6094 -65.0233 Q-19.6094 -66.7577 -20.3359 -67.6483 Q-21.0625 -68.5389 -22.4844 -68.5389 Q-23.9062 -68.5389 -24.6484 -67.6405 Q-25.3906 -66.7421 -25.3906 -65.0233 Z"/></g><g transform="translate(104,72)" style="stroke-linecap:butt; text-rendering:geometricPrecision; color-rendering:optimizeQuality; image-rendering:optimizeQuality; font-family:'Open Sans'; color-interpolation:linearRGB; stroke-miterlimit:5;"><path style="fill:none;" d="M-7.75 13.423 L-7.5 12.99 L-7.75 12.557"/><path style="fill:none;" d="M-23 -12.99 L-22.5 -12.99 L-22.25 -12.557"/><path style="fill:none;" d="M22 12.99 L22.5 12.99 L22.75 12.557"/><path style="fill:none;" d="M-22.25 38.537 L-22.5 38.97 L-23 38.97"/><path style="fill:none;" d="M-7.75 -38.537 L-7.5 -38.97 L-7 -38.97"/><path style="fill:none;" d="M-52 -12.99 L-52.5 -12.99 L-52.75 -13.423"/><path style="fill:none;" d="M37.25 -13.423 L37.5 -12.99 L38 -12.99"/><path style="fill:none;" d="M-52.75 38.537 L-52.5 38.97 L-52 38.97"/><path style="fill:none;" d="M22.75 -38.537 L22.5 -38.97 L22 -38.97"/><path style="fill:none;" d="M-67.25 13.423 L-67.5 12.99 L-67.25 12.557"/><path style="stroke:none;" d="M85.9219 -39.1731 Q85.9219 -37.0638 84.7734 -35.9388 Q83.625 -34.8138 81.4531 -34.8138 L79.0781 -34.8138 L79.0781 -43.3763 L81.7031 -43.3763 Q83.7031 -43.3763 84.8125 -42.2747 Q85.9219 -41.1731 85.9219 -39.1731 ZM84.875 -39.1419 Q84.875 -40.8138 84.0312 -41.6653 Q83.1875 -42.5169 81.5312 -42.5169 L80.0781 -42.5169 L80.0781 -35.6731 L81.2969 -35.6731 Q83.0781 -35.6731 83.9766 -36.5481 Q84.875 -37.4231 84.875 -39.1419 Z"/><path style="stroke:none;" d="M100.9219 -13.1931 Q100.9219 -11.0837 99.7734 -9.9587 Q98.625 -8.8337 96.4531 -8.8337 L94.0781 -8.8337 L94.0781 -17.3962 L96.7031 -17.3962 Q98.7031 -17.3962 99.8125 -16.2947 Q100.9219 -15.1931 100.9219 -13.1931 ZM99.875 -13.1619 Q99.875 -14.8337 99.0312 -15.6853 Q98.1875 -16.5369 96.5312 -16.5369 L95.0781 -16.5369 L95.0781 -9.6931 L96.2969 -9.6931 Q98.0781 -9.6931 98.9766 -10.5681 Q99.875 -11.4431 99.875 -13.1619 Z"/><path style="stroke:none;" d="M85.9219 12.7869 Q85.9219 14.8962 84.7734 16.0212 Q83.625 17.1462 81.4531 17.1462 L79.0781 17.1462 L79.0781 8.5837 L81.7031 8.5837 Q83.7031 8.5837 84.8125 9.6853 Q85.9219 10.7869 85.9219 12.7869 ZM84.875 12.8181 Q84.875 11.1462 84.0312 10.2947 Q83.1875 9.4431 81.5312 9.4431 L80.0781 9.4431 L80.0781 16.2869 L81.2969 16.2869 Q83.0781 16.2869 83.9766 15.4119 Q84.875 14.5369 84.875 12.8181 Z"/><path style="stroke:none;" d="M-4.0781 64.7499 Q-4.0781 66.8593 -5.2266 67.9843 Q-6.375 69.1093 -8.5469 69.1093 L-10.9219 69.1093 L-10.9219 60.5468 L-8.2969 60.5468 Q-6.2969 60.5468 -5.1875 61.6483 Q-4.0781 62.7499 -4.0781 64.7499 ZM-5.125 64.7811 Q-5.125 63.1093 -5.9688 62.2577 Q-6.8125 61.4061 -8.4688 61.4061 L-9.9219 61.4061 L-9.9219 68.2499 L-8.7031 68.2499 Q-6.9219 68.2499 -6.0234 67.3749 Q-5.125 66.4999 -5.125 64.7811 Z"/><path style="stroke:none;" d="M-64.0781 -39.1731 Q-64.0781 -37.0638 -65.2266 -35.9388 Q-66.375 -34.8138 -68.5469 -34.8138 L-70.9219 -34.8138 L-70.9219 -43.3763 L-68.2969 -43.3763 Q-66.2969 -43.3763 -65.1875 -42.2747 Q-64.0781 -41.1731 -64.0781 -39.1731 ZM-65.125 -39.1419 Q-65.125 -40.8138 -65.9688 -41.6653 Q-66.8125 -42.5169 -68.4688 -42.5169 L-69.9219 -42.5169 L-69.9219 -35.6731 L-68.7031 -35.6731 Q-66.9219 -35.6731 -66.0234 -36.5481 Q-65.125 -37.4231 -65.125 -39.1419 Z"/><path style="stroke:none;" d="M-64.0781 64.7499 Q-64.0781 66.8593 -65.2266 67.9843 Q-66.375 69.1093 -68.5469 69.1093 L-70.9219 69.1093 L-70.9219 60.5468 L-68.2969 60.5468 Q-66.2969 60.5468 -65.1875 61.6483 Q-64.0781 62.7499 -64.0781 64.7499 ZM-65.125 64.7811 Q-65.125 63.1093 -65.9688 62.2577 Q-66.8125 61.4061 -68.4688 61.4061 L-69.9219 61.4061 L-69.9219 68.2499 L-68.7031 68.2499 Q-66.9219 68.2499 -66.0234 67.3749 Q-65.125 66.4999 -65.125 64.7811 Z"/><path style="stroke:none;" d="M40.9219 -65.1561 Q40.9219 -63.0468 39.7734 -61.9218 Q38.625 -60.7968 36.4531 -60.7968 L34.0781 -60.7968 L34.0781 -69.3593 L36.7031 -69.3593 Q38.7031 -69.3593 39.8125 -68.2577 Q40.9219 -67.1561 40.9219 -65.1561 ZM39.875 -65.1249 Q39.875 -66.7968 39.0312 -67.6483 Q38.1875 -68.4999 36.5312 -68.4999 L35.0781 -68.4999 L35.0781 -61.6561 L36.2969 -61.6561 Q38.0781 -61.6561 38.9766 -62.5311 Q39.875 -63.4061 39.875 -65.1249 Z"/><path style="stroke:none;" d="M-94.0781 12.7869 Q-94.0781 14.8962 -95.2266 16.0212 Q-96.375 17.1462 -98.5469 17.1462 L-100.9219 17.1462 L-100.9219 8.5837 L-98.2969 8.5837 Q-96.2969 8.5837 -95.1875 9.6853 Q-94.0781 10.7869 -94.0781 12.7869 ZM-95.125 12.8181 Q-95.125 11.1462 -95.9688 10.2947 Q-96.8125 9.4431 -98.4688 9.4431 L-99.9219 9.4431 L-99.9219 16.2869 L-98.7031 16.2869 Q-96.9219 16.2869 -96.0234 15.4119 Q-95.125 14.5369 -95.125 12.8181 Z"/></g></g></svg></svg></svg></svg>