<svg xmlns:ns0="http://www.w3.org/2000/svg" xmlns="http://www.w3.org/2000/svg"><g transform="translate(0, 0)"><ns0:svg width="356" viewBox="0 0 356 308" style="fill-opacity:1; color-rendering:auto; color-interpolation:auto; text-rendering:auto; stroke:black; stroke-linecap:square; stroke-miterlimit:10; shape-rendering:auto; stroke-opacity:1; fill:black; stroke-dasharray:none; font-weight:normal; stroke-width:1; font-family:'Open Sans'; font-style:normal; stroke-linejoin:miter; font-size:12; stroke-dashoffset:0; image-rendering:auto;" height="308" class="cas-substance-image"><ns0:svg class="cas-substance-single-component"><ns0:rect y="0" x="0" width="356" stroke="none" ry="7" rx="7" height="308" fill="white" class="cas-substance-group" /><ns0:svg y="0" x="0" width="356" viewBox="0 0 356 308" style="fill:black;" height="308" class="cas-substance-single-component-image"><ns0:svg><ns0:g><ns0:g transform="translate(178,152)" style="text-rendering:geometricPrecision; color-rendering:optimizeQuality; color-interpolation:linearRGB; stroke-linecap:butt; image-rendering:optimizeQuality;"><ns0:line y2="53.952" y1="77.4193" x2="16.743" x1="15.2804" style="fill:none;" /><ns0:line y2="-53.358" y1="-66.4527" x2="-106.149" x1="-125.8857" style="fill:none;" /><ns0:line y2="118.524" y1="142.0474" x2="-50.016" x1="-50.016" style="fill:none;" /><ns0:line y2="-106.128" y1="-116.6361" x2="48.228" x1="69.3646" style="fill:none;" /><ns0:line y2="-129.24" y1="-137.383" x2="-135.321" x1="-157.6951" style="fill:none;" /><ns0:line y2="-80.601" y1="-92.4124" x2="137.529" x1="157.9888" style="fill:none;" /><ns0:line y2="-20.016" y1="2.412" x2="-56.022" x1="-35.508" style="fill:none;" /><ns0:line y2="7.554" y1="2.412" x2="-6.468" x1="-35.508" style="fill:none;" /><ns0:line y2="28.524" y1="2.412" x2="-50.016" x1="-35.508" style="fill:none;" /><ns0:line y2="-50.259" y1="-20.016" x2="-54.36" x1="-56.022" style="fill:none;" /><ns0:line y2="-6.861" y1="-20.016" x2="-83.115" x1="-56.022" style="fill:none;" /><ns0:line y2="-10.8921" y1="-22.2819" x2="-82.826" x1="-59.3685" style="fill:none;" /><ns0:line y2="-6.132" y1="7.554" x2="20.553" x1="-6.468" style="fill:none;" /><ns0:line y2="37.413" y1="7.554" x2="-8.313" x1="-6.468" style="fill:none;" /><ns0:line y2="35.612" y1="9.7867" x2="-4.695" x1="-3.0993" style="fill:none;" /><ns0:line y2="23.965" y1="28.524" x2="-73.5959" x1="-50.016" style="fill:none;" /><ns0:path style="stroke:none;" d="M-50.516 28.524 L-49.516 28.524 L-47.016 60.2561 L-50.016 58.524 L-53.016 60.2561 Z" /><ns0:line y2="-72.84" y1="-50.259" x2="-35.388" x1="-54.36" style="fill:none;" /><ns0:line y2="-66.786" y1="-50.259" x2="-79.299" x1="-54.36" style="fill:none;" /><ns0:line y2="-62.7522" y1="-48.4578" x2="-79.548" x1="-57.9779" style="fill:none;" /><ns0:line y2="16.3621" y1="-6.861" x2="-80.2846" x1="-83.115" style="fill:none;" /><ns0:line y2="-23.403" y1="-6.861" x2="-108.084" x1="-83.115" style="fill:none;" /><ns0:line y2="-35.109" y1="-6.132" x2="29.721" x1="20.553" style="fill:none;" /><ns0:line y2="10.755" y1="-6.132" x2="45.492" x1="20.553" style="fill:none;" /><ns0:line y2="12.5201" y1="-2.1009" x2="41.8564" x1="20.2638" style="fill:none;" /><ns0:line y2="53.952" y1="37.413" x2="16.743" x1="-8.313" style="fill:none;" /><ns0:line y2="-79.389" y1="-72.84" x2="-5.709" x1="-35.388" style="fill:none;" /><ns0:line y2="-98.457" y1="-72.84" x2="-50.748" x1="-35.388" style="fill:none;" /><ns0:line y2="-53.358" y1="-66.786" x2="-106.149" x1="-79.299" style="fill:none;" /><ns0:line y2="-53.358" y1="-23.403" x2="-106.149" x1="-108.084" style="fill:none;" /><ns0:line y2="-51.1159" y1="-25.1939" x2="-102.7865" x1="-104.461" style="fill:none;" /><ns0:line y2="-62.829" y1="-35.109" x2="19.653" x1="29.721" style="fill:none;" /><ns0:line y2="-35.601" y1="-35.109" x2="59.589" x1="29.721" style="fill:none;" /><ns0:line y2="-3.4322" y1="10.755" x2="64.353" x1="45.492" style="fill:none;" /><ns0:line y2="40.65" y1="10.755" x2="43.653" x1="45.492" style="fill:none;" /><ns0:line y2="40.65" y1="53.952" x2="43.653" x1="16.743" style="fill:none;" /><ns0:line y2="38.4078" y1="49.919" x2="40.2905" x1="17.0035" style="fill:none;" /><ns0:line y2="-62.829" y1="-79.389" x2="19.653" x1="-5.709" style="fill:none;" /><ns0:line y2="-109.428" y1="-79.389" x2="-3.555" x1="-5.709" style="fill:none;" /><ns0:line y2="-107.1621" y1="-81.1542" x2="-0.2085" x1="-2.0734" style="fill:none;" /><ns0:line y2="-116.3585" y1="-98.457" x2="-35.2168" x1="-50.748" style="fill:none;" /><ns0:path style="stroke:none;" d="M-77.0388 -110.9911 L-78.9469 -105.7597 L-78.9469 -105.7597 L-77.9804 -105.4917 L-77.9804 -105.4917 L-76.1263 -110.5751 L-77.0388 -110.9911 ZM-74.3014 -109.743 L-76.0476 -104.9557 L-76.0476 -104.9557 L-75.0811 -104.6877 L-75.0811 -104.6877 L-73.3889 -109.327 L-74.3014 -109.743 ZM-71.564 -108.495 L-73.1482 -104.1517 L-73.1482 -104.1517 L-72.1817 -103.8836 L-72.1817 -103.8836 L-70.6515 -108.079 L-71.564 -108.495 ZM-68.8266 -107.247 L-70.2488 -103.3476 L-70.2488 -103.3476 L-69.2824 -103.0796 L-69.2824 -103.0796 L-67.9141 -106.831 L-68.8266 -107.247 ZM-66.0891 -105.999 L-67.3495 -102.5436 L-67.3495 -102.5436 L-66.383 -102.2756 L-66.383 -102.2756 L-65.1767 -105.583 L-65.1767 -105.583 L-66.0891 -105.999 ZM-63.3517 -104.751 L-64.4501 -101.7395 L-64.4501 -101.7395 L-63.4837 -101.4715 L-63.4837 -101.4715 L-62.4393 -104.335 L-62.4393 -104.335 L-63.3517 -104.751 ZM-60.6143 -103.503 L-61.5508 -100.9355 L-61.5508 -100.9355 L-60.5843 -100.6675 L-60.5843 -100.6675 L-59.7019 -103.087 L-59.7019 -103.087 L-60.6143 -103.503 ZM-57.8769 -102.255 L-58.6514 -100.1315 L-58.6514 -100.1315 L-57.685 -99.8635 L-57.685 -99.8635 L-56.9644 -101.839 L-56.9644 -101.839 L-57.8769 -102.255 ZM-55.1395 -101.0069 L-55.7521 -99.3274 L-55.7521 -99.3274 L-54.7856 -99.0594 L-54.7856 -99.0594 L-54.227 -100.5909 L-54.227 -100.5909 L-55.1395 -101.0069 ZM-52.4021 -99.7589 L-52.8527 -98.5234 L-52.8527 -98.5234 L-51.8863 -98.2554 L-51.8863 -98.2554 L-51.4896 -99.3429 L-51.4896 -99.3429 L-52.4021 -99.7589 Z" /><ns0:line y2="-76.161" y1="-62.829" x2="46.434" x1="19.653" style="fill:none;" /><ns0:line y2="-78.3937" y1="-66.8628" x2="43.0653" x1="19.9022" style="fill:none;" /><ns0:line y2="-13.588" y1="-35.601" x2="67.1912" x1="59.589" style="fill:none;" /><ns0:path style="stroke:none;" d="M59.839 -35.168 L59.339 -36.034 L85.569 -54.0651 L85.569 -50.601 L88.5689 -48.8689 Z" /><ns0:line y2="-118.6783" y1="-109.428" x2="-25.2932" x1="-3.555" style="fill:none;" /><ns0:line y2="-122.784" y1="-109.428" x2="23.256" x1="-3.555" style="fill:none;" /><ns0:line y2="-106.128" y1="-76.161" x2="48.228" x1="46.434" style="fill:none;" /><ns0:line y2="-106.128" y1="-122.784" x2="48.228" x1="23.256" style="fill:none;" /><ns0:line y2="-104.3375" y1="-118.751" x2="44.6048" x1="22.995" style="fill:none;" /><ns0:line y2="73.524" y1="58.524" x2="-24.036" x1="-50.016" style="fill:none;" /><ns0:line y2="75.5447" y1="62.5654" x2="-27.536" x1="-50.016" style="fill:none;" /><ns0:line y2="73.524" y1="58.524" x2="-75.996" x1="-50.016" style="fill:none;" /><ns0:line y2="103.524" y1="73.524" x2="-24.036" x1="-24.036" style="fill:none;" /><ns0:line y2="103.524" y1="73.524" x2="-75.996" x1="-75.996" style="fill:none;" /><ns0:line y2="101.5033" y1="75.5447" x2="-72.496" x1="-72.496" style="fill:none;" /><ns0:line y2="118.524" y1="103.524" x2="-50.016" x1="-24.036" style="fill:none;" /><ns0:line y2="114.4826" y1="101.5033" x2="-50.016" x1="-27.536" style="fill:none;" /><ns0:line y2="118.524" y1="103.524" x2="-50.016" x1="-75.996" style="fill:none;" /><ns0:line y2="-89.436" y1="-108.72" x2="-101.919" x1="-78.939" style="fill:none;" /><ns0:line y2="-93.416" y1="-110.1021" x2="-102.6209" x1="-82.7368" style="fill:none;" /><ns0:line y2="-138.264" y1="-108.72" x2="-84.147" x1="-78.939" style="fill:none;" /><ns0:line y2="-99.696" y1="-89.436" x2="-130.11" x1="-101.919" style="fill:none;" /><ns0:line y2="-148.524" y1="-138.264" x2="-112.338" x1="-84.147" style="fill:none;" /><ns0:line y2="-144.544" y1="-135.6661" x2="-111.6361" x1="-87.2429" style="fill:none;" /><ns0:line y2="-129.24" y1="-99.696" x2="-135.321" x1="-130.11" style="fill:none;" /><ns0:line y2="-127.8579" y1="-102.294" x2="-131.5232" x1="-127.0142" style="fill:none;" /><ns0:line y2="-129.24" y1="-148.524" x2="-135.321" x1="-112.338" style="fill:none;" /><ns0:line y2="-80.601" y1="-50.601" x2="85.569" x1="85.569" style="fill:none;" /><ns0:line y2="-78.5803" y1="-52.6217" x2="89.069" x1="89.069" style="fill:none;" /><ns0:line y2="-35.601" y1="-50.601" x2="111.549" x1="85.569" style="fill:none;" /><ns0:line y2="-95.601" y1="-80.601" x2="111.549" x1="85.569" style="fill:none;" /><ns0:line y2="-50.601" y1="-35.601" x2="137.529" x1="111.549" style="fill:none;" /><ns0:line y2="-52.6217" y1="-39.6424" x2="134.029" x1="111.549" style="fill:none;" /><ns0:line y2="-80.601" y1="-95.601" x2="137.529" x1="111.549" style="fill:none;" /><ns0:line y2="-78.5803" y1="-91.5596" x2="134.029" x1="111.549" style="fill:none;" /><ns0:line y2="-80.601" y1="-50.601" x2="137.529" x1="137.529" style="fill:none;" /><ns0:path style="stroke:none;" d="M-35.9595 2.6269 L-35.0565 2.1971 L-22.8646 21.9977 L-28.2823 24.576 Z" /><ns0:path style="stroke:none;" d="M-37.6881 -73.7643 L-37.8036 -72.2906 L-37.8036 -72.2906 L-36.7988 -72.3121 L-36.7988 -72.3121 L-36.699 -73.5843 L-36.699 -73.5843 L-37.6881 -73.7643 ZM-40.6552 -74.3043 L-40.8181 -72.2259 L-40.8181 -72.2259 L-39.8133 -72.2474 L-39.8133 -72.2474 L-39.6662 -74.1243 L-39.6662 -74.1243 L-40.6552 -74.3043 ZM-43.6223 -74.8443 L-43.8327 -72.1612 L-43.8327 -72.1612 L-42.8278 -72.1827 L-42.8278 -72.1827 L-42.6333 -74.6643 L-43.6223 -74.8443 ZM-46.5894 -75.3844 L-46.8472 -72.0965 L-46.8472 -72.0965 L-45.8423 -72.118 L-45.8423 -72.118 L-45.6004 -75.2044 L-45.6004 -75.2044 L-46.5894 -75.3844 ZM-49.5565 -75.9244 L-49.8617 -72.0317 L-49.8617 -72.0317 L-48.8569 -72.0533 L-48.8569 -72.0533 L-48.5675 -75.7444 L-48.5675 -75.7444 L-49.5565 -75.9244 ZM-52.5237 -76.4645 L-52.8762 -71.967 L-52.8762 -71.967 L-51.8714 -71.9886 L-51.8714 -71.9886 L-51.5346 -76.2844 L-51.5346 -76.2844 L-52.5237 -76.4645 ZM-55.4908 -77.0045 L-55.8908 -71.9023 L-55.8908 -71.9023 L-54.8859 -71.9239 L-54.8859 -71.9239 L-54.5017 -76.8245 L-55.4908 -77.0045 ZM-58.4579 -77.5445 L-58.9053 -71.8376 L-58.9053 -71.8376 L-57.9004 -71.8592 L-57.9004 -71.8592 L-57.4689 -77.3645 L-57.4689 -77.3645 L-58.4579 -77.5445 Z" /><ns0:path style="stroke:none;" d="M30.1328 -34.8254 L29.3092 -35.3926 L40.267 -55.7149 L45.2088 -52.3121 Z" /></ns0:g><ns0:g transform="translate(178,152)" style="fill:rgb(230,0,0); text-rendering:geometricPrecision; color-rendering:optimizeQuality; image-rendering:optimizeQuality; font-family:'Open Sans'; stroke:rgb(230,0,0); color-interpolation:linearRGB;"><ns0:path style="stroke:none;" d="M18.8145 83.8217 Q18.8145 85.8842 17.7754 87.0639 Q16.7364 88.2436 14.8926 88.2436 Q13.002 88.2436 11.9707 87.0795 Q10.9395 85.9154 10.9395 83.8061 Q10.9395 81.7123 11.9707 80.5639 Q13.002 79.4154 14.8926 79.4154 Q16.752 79.4154 17.7832 80.5873 Q18.8145 81.7592 18.8145 83.8217 ZM11.9864 83.8217 Q11.9864 85.5561 12.7286 86.4623 Q13.4707 87.3686 14.8926 87.3686 Q16.3145 87.3686 17.0411 86.4701 Q17.7676 85.5717 17.7676 83.8217 Q17.7676 82.0873 17.0411 81.1967 Q16.3145 80.3061 14.8926 80.3061 Q13.4707 80.3061 12.7286 81.2045 Q11.9864 82.1029 11.9864 83.8217 Z" /><ns0:path style="stroke:none;" d="M26.3301 88.1186 L25.3301 88.1186 L25.3301 84.0873 L20.8145 84.0873 L20.8145 88.1186 L19.8145 88.1186 L19.8145 79.5561 L20.8145 79.5561 L20.8145 83.1967 L25.3301 83.1967 L25.3301 79.5561 L26.3301 79.5561 L26.3301 88.1186 Z" /><ns0:path style="stroke:none;" d="M-127.2075 -70.0123 Q-127.2075 -67.9498 -128.2466 -66.7701 Q-129.2856 -65.5904 -131.1294 -65.5904 Q-133.02 -65.5904 -134.0513 -66.7545 Q-135.0825 -67.9186 -135.0825 -70.0279 Q-135.0825 -72.1217 -134.0513 -73.2701 Q-133.02 -74.4186 -131.1294 -74.4186 Q-129.27 -74.4186 -128.2388 -73.2467 Q-127.2075 -72.0748 -127.2075 -70.0123 ZM-134.0356 -70.0123 Q-134.0356 -68.2779 -133.2934 -67.3717 Q-132.5513 -66.4654 -131.1294 -66.4654 Q-129.7075 -66.4654 -128.9809 -67.3639 Q-128.2544 -68.2623 -128.2544 -70.0123 Q-128.2544 -71.7467 -128.9809 -72.6373 Q-129.7075 -73.5279 -131.1294 -73.5279 Q-132.5513 -73.5279 -133.2934 -72.6295 Q-134.0356 -71.7311 -134.0356 -70.0123 Z" /><ns0:path style="stroke:none;" d="M-136.0825 -65.7154 L-137.0825 -65.7154 L-137.0825 -69.7467 L-141.5981 -69.7467 L-141.5981 -65.7154 L-142.5981 -65.7154 L-142.5981 -74.2779 L-141.5981 -74.2779 L-141.5981 -70.6373 L-137.0825 -70.6373 L-137.0825 -74.2779 L-136.0825 -74.2779 L-136.0825 -65.7154 Z" /><ns0:path style="stroke:none;" d="M-46.0785 148.4537 Q-46.0785 150.5162 -47.1176 151.6959 Q-48.1566 152.8756 -50.0004 152.8756 Q-51.891 152.8756 -52.9222 151.7115 Q-53.9535 150.5474 -53.9535 148.4381 Q-53.9535 146.3443 -52.9222 145.1959 Q-51.891 144.0474 -50.0004 144.0474 Q-48.141 144.0474 -47.1097 145.2193 Q-46.0785 146.3912 -46.0785 148.4537 ZM-52.9066 148.4537 Q-52.9066 150.1881 -52.1644 151.0943 Q-51.4222 152.0006 -50.0004 152.0006 Q-48.5785 152.0006 -47.8519 151.1021 Q-47.1254 150.2037 -47.1254 148.4537 Q-47.1254 146.7193 -47.8519 145.8287 Q-48.5785 144.9381 -50.0004 144.9381 Q-51.4222 144.9381 -52.1644 145.8365 Q-52.9066 146.7349 -52.9066 148.4537 Z" /><ns0:path style="stroke:none;" d="M-38.5629 152.7506 L-39.5629 152.7506 L-39.5629 148.7193 L-44.0785 148.7193 L-44.0785 152.7506 L-45.0785 152.7506 L-45.0785 144.1881 L-44.0785 144.1881 L-44.0785 147.8287 L-39.5629 147.8287 L-39.5629 144.1881 L-38.5629 144.1881 L-38.5629 152.7506 Z" /><ns0:path style="stroke:none;" d="M79.0305 -119.5543 Q79.0305 -117.4918 77.9914 -116.3121 Q76.9524 -115.1324 75.1086 -115.1324 Q73.218 -115.1324 72.1867 -116.2965 Q71.1555 -117.4606 71.1555 -119.5699 Q71.1555 -121.6637 72.1867 -122.8121 Q73.218 -123.9606 75.1086 -123.9606 Q76.968 -123.9606 77.9992 -122.7887 Q79.0305 -121.6168 79.0305 -119.5543 ZM72.2024 -119.5543 Q72.2024 -117.8199 72.9446 -116.9137 Q73.6867 -116.0074 75.1086 -116.0074 Q76.5305 -116.0074 77.2571 -116.9059 Q77.9836 -117.8043 77.9836 -119.5543 Q77.9836 -121.2887 77.2571 -122.1793 Q76.5305 -123.0699 75.1086 -123.0699 Q73.6867 -123.0699 72.9446 -122.1715 Q72.2024 -121.2731 72.2024 -119.5543 Z" /><ns0:path style="stroke:none;" d="M86.5461 -115.2574 L85.5461 -115.2574 L85.5461 -119.2887 L81.0305 -119.2887 L81.0305 -115.2574 L80.0305 -115.2574 L80.0305 -123.8199 L81.0305 -123.8199 L81.0305 -120.1793 L85.5461 -120.1793 L85.5461 -123.8199 L86.5461 -123.8199 L86.5461 -115.2574 Z" /><ns0:path style="stroke:none;" d="M-159.5745 -139.5703 Q-159.5745 -137.5078 -160.6136 -136.3281 Q-161.6526 -135.1484 -163.4964 -135.1484 Q-165.387 -135.1484 -166.4182 -136.3125 Q-167.4495 -137.4766 -167.4495 -139.5859 Q-167.4495 -141.6797 -166.4182 -142.8281 Q-165.387 -143.9766 -163.4964 -143.9766 Q-161.637 -143.9766 -160.6057 -142.8047 Q-159.5745 -141.6328 -159.5745 -139.5703 ZM-166.4026 -139.5703 Q-166.4026 -137.8359 -165.6604 -136.9297 Q-164.9182 -136.0234 -163.4964 -136.0234 Q-162.0745 -136.0234 -161.3479 -136.9219 Q-160.6214 -137.8203 -160.6214 -139.5703 Q-160.6214 -141.3047 -161.3479 -142.1953 Q-162.0745 -143.0859 -163.4964 -143.0859 Q-164.9182 -143.0859 -165.6604 -142.1875 Q-166.4026 -141.2891 -166.4026 -139.5703 Z" /><ns0:path style="stroke:none;" d="M-168.4495 -135.2734 L-169.4495 -135.2734 L-169.4495 -139.3047 L-173.9651 -139.3047 L-173.9651 -135.2734 L-174.9651 -135.2734 L-174.9651 -143.8359 L-173.9651 -143.8359 L-173.9651 -140.1953 L-169.4495 -140.1953 L-169.4495 -143.8359 L-168.4495 -143.8359 L-168.4495 -135.2734 Z" /><ns0:path style="stroke:none;" d="M167.4495 -95.6713 Q167.4495 -93.6088 166.4104 -92.4291 Q165.3714 -91.2494 163.5276 -91.2494 Q161.637 -91.2494 160.6057 -92.4135 Q159.5745 -93.5776 159.5745 -95.6869 Q159.5745 -97.7807 160.6057 -98.9291 Q161.637 -100.0776 163.5276 -100.0776 Q165.387 -100.0776 166.4182 -98.9057 Q167.4495 -97.7338 167.4495 -95.6713 ZM160.6214 -95.6713 Q160.6214 -93.9369 161.3636 -93.0307 Q162.1057 -92.1244 163.5276 -92.1244 Q164.9495 -92.1244 165.6761 -93.0229 Q166.4026 -93.9213 166.4026 -95.6713 Q166.4026 -97.4057 165.6761 -98.2963 Q164.9495 -99.1869 163.5276 -99.1869 Q162.1057 -99.1869 161.3636 -98.2885 Q160.6214 -97.3901 160.6214 -95.6713 Z" /><ns0:path style="stroke:none;" d="M174.9651 -91.3744 L173.9651 -91.3744 L173.9651 -95.4057 L169.4495 -95.4057 L169.4495 -91.3744 L168.4495 -91.3744 L168.4495 -99.9369 L169.4495 -99.9369 L169.4495 -96.2963 L173.9651 -96.2963 L173.9651 -99.9369 L174.9651 -99.9369 L174.9651 -91.3744 Z" /></ns0:g><ns0:g transform="translate(178,152)" style="font-size:8.4px; fill:gray; text-rendering:geometricPrecision; image-rendering:optimizeQuality; color-rendering:optimizeQuality; font-family:'Open Sans'; font-style:italic; stroke:gray; color-interpolation:linearRGB;"><ns0:path style="stroke:none;" d="M-34.7995 -5.1482 Q-34.7995 -6.4764 -34.3308 -7.6014 Q-33.862 -8.7264 -32.8308 -9.8045 L-32.2214 -9.8045 Q-33.1901 -8.742 -33.6745 -7.5701 Q-34.1589 -6.3982 -34.1589 -5.1639 Q-34.1589 -3.8357 -33.7214 -2.8201 L-34.237 -2.8201 Q-34.7995 -3.8514 -34.7995 -5.1482 ZM-29.1769 -5.742 Q-29.1769 -4.9139 -29.7238 -4.4607 Q-30.2707 -4.0076 -31.2707 -4.0076 Q-31.6769 -4.0076 -31.9894 -4.0623 Q-32.3019 -4.117 -32.5832 -4.2576 L-32.5832 -4.9139 Q-31.9582 -4.5857 -31.2551 -4.5857 Q-30.6301 -4.5857 -30.2551 -4.8826 Q-29.8801 -5.1795 -29.8801 -5.6951 Q-29.8801 -6.0076 -30.0832 -6.2342 Q-30.2863 -6.4607 -30.8488 -6.7889 Q-31.4426 -7.117 -31.6691 -7.4451 Q-31.8957 -7.7732 -31.8957 -8.2264 Q-31.8957 -8.9607 -31.3801 -9.4217 Q-30.8644 -9.8826 -30.0207 -9.8826 Q-29.6457 -9.8826 -29.3098 -9.8045 Q-28.9738 -9.7264 -28.5988 -9.5545 L-28.8644 -8.9607 Q-29.1144 -9.117 -29.4348 -9.2029 Q-29.7551 -9.2889 -30.0207 -9.2889 Q-30.5519 -9.2889 -30.8723 -9.0154 Q-31.1926 -8.742 -31.1926 -8.2732 Q-31.1926 -8.0701 -31.1223 -7.9217 Q-31.0519 -7.7732 -30.9113 -7.6404 Q-30.7707 -7.5076 -30.3488 -7.2576 Q-29.7863 -6.9139 -29.5832 -6.7185 Q-29.3801 -6.5232 -29.2785 -6.2889 Q-29.1769 -6.0545 -29.1769 -5.742 ZM-26.5825 -7.4607 Q-26.5825 -6.1326 -27.059 -4.9998 Q-27.5356 -3.867 -28.5512 -2.8201 L-29.1606 -2.8201 Q-27.2231 -4.9764 -27.2231 -7.4607 Q-27.2231 -8.7889 -27.6606 -9.8045 L-27.145 -9.8045 Q-26.5825 -8.742 -26.5825 -7.4607 Z" /></ns0:g><ns0:g transform="translate(178,152)" style="stroke-linecap:butt; font-size:8.4px; text-rendering:geometricPrecision; image-rendering:optimizeQuality; color-rendering:optimizeQuality; font-family:'Open Sans'; font-style:italic; color-interpolation:linearRGB; stroke-miterlimit:5;"><ns0:path style="fill:none;" d="M-56.4718 -19.7976 L-56.022 -20.016 L-55.6845 -19.6471" /><ns0:path style="fill:none;" d="M-6.4988 8.053 L-6.468 7.554 L-6.022 7.3281" /><ns0:path style="fill:gray; stroke:none;" d="M-44.4443 32.2357 Q-44.4443 30.9076 -43.9755 29.7826 Q-43.5068 28.6576 -42.4755 27.5795 L-41.8662 27.5795 Q-42.8349 28.642 -43.3193 29.8139 Q-43.8037 30.9857 -43.8037 32.2201 Q-43.8037 33.5482 -43.3662 34.5639 L-43.8818 34.5639 Q-44.4443 33.5326 -44.4443 32.2357 ZM-38.8217 31.642 Q-38.8217 32.4701 -39.3686 32.9232 Q-39.9155 33.3764 -40.9155 33.3764 Q-41.3217 33.3764 -41.6342 33.3217 Q-41.9467 33.267 -42.228 33.1264 L-42.228 32.4701 Q-41.603 32.7982 -40.8999 32.7982 Q-40.2749 32.7982 -39.8999 32.5014 Q-39.5249 32.2045 -39.5249 31.6889 Q-39.5249 31.3764 -39.728 31.1498 Q-39.9311 30.9232 -40.4936 30.5951 Q-41.0874 30.267 -41.3139 29.9389 Q-41.5405 29.6107 -41.5405 29.1576 Q-41.5405 28.4232 -41.0249 27.9623 Q-40.5092 27.5014 -39.6655 27.5014 Q-39.2905 27.5014 -38.9545 27.5795 Q-38.6186 27.6576 -38.2436 27.8295 L-38.5092 28.4232 Q-38.7592 28.267 -39.0795 28.181 Q-39.3999 28.0951 -39.6655 28.0951 Q-40.1967 28.0951 -40.517 28.3685 Q-40.8374 28.642 -40.8374 29.1107 Q-40.8374 29.3139 -40.767 29.4623 Q-40.6967 29.6107 -40.5561 29.7435 Q-40.4155 29.8764 -39.9936 30.1264 Q-39.4311 30.4701 -39.228 30.6654 Q-39.0249 30.8607 -38.9233 31.0951 Q-38.8217 31.3295 -38.8217 31.642 ZM-36.2272 29.9232 Q-36.2272 31.2514 -36.7038 32.3842 Q-37.1804 33.517 -38.196 34.5639 L-38.8054 34.5639 Q-36.8679 32.4076 -36.8679 29.9232 Q-36.8679 28.5951 -37.3054 27.5795 L-36.7897 27.5795 Q-36.2272 28.642 -36.2272 29.9232 Z" /><ns0:path style="fill:none;" d="M-54.7768 -50.5352 L-54.36 -50.259 L-54.3874 -49.7598" /><ns0:path style="fill:none;" d="M-82.6652 -7.0794 L-83.115 -6.861 L-83.0545 -6.3647" /><ns0:path style="fill:none;" d="M20.967 -5.8517 L20.553 -6.132 L20.107 -5.9061" /><ns0:path style="fill:none;" d="M-8.2822 36.914 L-8.313 37.413 L-7.8957 37.6884" /></ns0:g><ns0:g transform="translate(178,152)" style="stroke-linecap:butt; fill:rgb(230,0,0); text-rendering:geometricPrecision; color-rendering:optimizeQuality; image-rendering:optimizeQuality; font-family:'Open Sans'; stroke:rgb(230,0,0); color-interpolation:linearRGB; stroke-miterlimit:5;"><ns0:path style="stroke:none;" d="M-75.5595 22.7537 Q-75.5595 24.8162 -76.5986 25.9959 Q-77.6376 27.1756 -79.4814 27.1756 Q-81.372 27.1756 -82.4033 26.0115 Q-83.4345 24.8474 -83.4345 22.7381 Q-83.4345 20.6443 -82.4033 19.4959 Q-81.372 18.3474 -79.4814 18.3474 Q-77.622 18.3474 -76.5908 19.5193 Q-75.5595 20.6912 -75.5595 22.7537 ZM-82.3876 22.7537 Q-82.3876 24.4881 -81.6454 25.3943 Q-80.9033 26.3006 -79.4814 26.3006 Q-78.0595 26.3006 -77.3329 25.4021 Q-76.6064 24.5037 -76.6064 22.7537 Q-76.6064 21.0193 -77.3329 20.1287 Q-78.0595 19.2381 -79.4814 19.2381 Q-80.9033 19.2381 -81.6454 20.1365 Q-82.3876 21.0349 -82.3876 22.7537 Z" /></ns0:g><ns0:g transform="translate(178,152)" style="stroke-linecap:butt; font-size:8.4px; fill:gray; text-rendering:geometricPrecision; image-rendering:optimizeQuality; color-rendering:optimizeQuality; font-family:'Open Sans'; font-style:italic; stroke:gray; color-interpolation:linearRGB; stroke-miterlimit:5;"><ns0:path style="stroke:none;" d="M-34.5958 -63.1226 Q-34.5958 -64.4508 -34.1271 -65.5758 Q-33.6583 -66.7008 -32.6271 -67.7789 L-32.0177 -67.7789 Q-32.9864 -66.7164 -33.4708 -65.5445 Q-33.9552 -64.3726 -33.9552 -63.1383 Q-33.9552 -61.8101 -33.5177 -60.7945 L-34.0333 -60.7945 Q-34.5958 -61.8258 -34.5958 -63.1226 ZM-31.0358 -64.4351 L-31.5358 -62.0601 L-32.192 -62.0601 L-30.9889 -67.7789 L-29.7389 -67.7789 Q-28.0045 -67.7789 -28.0045 -66.3414 Q-28.0045 -64.982 -29.442 -64.5914 L-28.5045 -62.0601 L-29.2233 -62.0601 L-30.0514 -64.4351 L-31.0358 -64.4351 ZM-30.4576 -67.1851 Q-30.8483 -65.2633 -30.9108 -65.0133 L-30.2545 -65.0133 Q-29.5045 -65.0133 -29.0983 -65.3414 Q-28.692 -65.6695 -28.692 -66.2945 Q-28.692 -66.7633 -28.9498 -66.9742 Q-29.2076 -67.1851 -29.8014 -67.1851 L-30.4576 -67.1851 ZM-25.8185 -65.4351 Q-25.8185 -64.107 -26.2951 -62.9742 Q-26.7717 -61.8414 -27.7873 -60.7945 L-28.3967 -60.7945 Q-26.4592 -62.9508 -26.4592 -65.4351 Q-26.4592 -66.7633 -26.8967 -67.7789 L-26.381 -67.7789 Q-25.8185 -66.7164 -25.8185 -65.4351 Z" /><ns0:path style="fill:none; stroke:black;" d="M-78.8822 -66.5098 L-79.299 -66.786 L-79.7462 -66.5624" /><ns0:path style="fill:none; stroke:black;" d="M-107.6672 -23.1269 L-108.084 -23.403 L-108.0518 -23.902" /><ns0:path style="stroke:none;" d="M15.6147 -33.6961 Q15.6147 -35.0242 16.0834 -36.1492 Q16.5522 -37.2742 17.5834 -38.3523 L18.1928 -38.3523 Q17.2241 -37.2898 16.7397 -36.1179 Q16.2553 -34.9461 16.2553 -33.7117 Q16.2553 -32.3836 16.6928 -31.3679 L16.1772 -31.3679 Q15.6147 -32.3992 15.6147 -33.6961 ZM21.2372 -34.2898 Q21.2372 -33.4617 20.6904 -33.0086 Q20.1435 -32.5554 19.1435 -32.5554 Q18.7372 -32.5554 18.4247 -32.6101 Q18.1122 -32.6648 17.831 -32.8054 L17.831 -33.4617 Q18.456 -33.1336 19.1591 -33.1336 Q19.7841 -33.1336 20.1591 -33.4304 Q20.5341 -33.7273 20.5341 -34.2429 Q20.5341 -34.5554 20.331 -34.782 Q20.1279 -35.0086 19.5654 -35.3367 Q18.9716 -35.6648 18.7451 -35.9929 Q18.5185 -36.3211 18.5185 -36.7742 Q18.5185 -37.5086 19.0341 -37.9695 Q19.5497 -38.4304 20.3935 -38.4304 Q20.7685 -38.4304 21.1044 -38.3523 Q21.4404 -38.2742 21.8154 -38.1023 L21.5497 -37.5086 Q21.2997 -37.6648 20.9794 -37.7508 Q20.6591 -37.8367 20.3935 -37.8367 Q19.8622 -37.8367 19.5419 -37.5633 Q19.2216 -37.2898 19.2216 -36.8211 Q19.2216 -36.6179 19.2919 -36.4695 Q19.3622 -36.3211 19.5029 -36.1883 Q19.6435 -36.0554 20.0654 -35.8054 Q20.6279 -35.4617 20.831 -35.2664 Q21.0341 -35.0711 21.1357 -34.8367 Q21.2372 -34.6023 21.2372 -34.2898 ZM23.8317 -36.0086 Q23.8317 -34.6804 23.3552 -33.5476 Q22.8786 -32.4148 21.863 -31.3679 L21.2536 -31.3679 Q23.1911 -33.5242 23.1911 -36.0086 Q23.1911 -37.3367 22.7536 -38.3523 L23.2692 -38.3523 Q23.8317 -37.2898 23.8317 -36.0086 Z" /><ns0:path style="fill:none; stroke:black;" d="M45.078 10.4747 L45.492 10.755 L45.8916 10.4544" /><ns0:path style="fill:none; stroke:black;" d="M17.1912 53.7304 L16.743 53.952 L16.7119 54.451" /><ns0:path style="fill:none; stroke:black;" d="M-5.6732 -79.8877 L-5.709 -79.389 L-6.1973 -79.2813" /><ns0:path style="fill:none; stroke:black;" d="M-50.4909 -98.0282 L-50.748 -98.457 L-50.4203 -98.8347" /><ns0:path style="stroke:none;" d="M-61.5013 -89.5799 Q-61.5013 -90.908 -61.0325 -92.033 Q-60.5638 -93.158 -59.5325 -94.2361 L-58.9231 -94.2361 Q-59.8919 -93.1736 -60.3763 -92.0017 Q-60.8606 -90.8299 -60.8606 -89.5955 Q-60.8606 -88.2674 -60.4231 -87.2517 L-60.9388 -87.2517 Q-61.5013 -88.283 -61.5013 -89.5799 ZM-57.9412 -90.8924 L-58.4412 -88.5174 L-59.0975 -88.5174 L-57.8943 -94.2361 L-56.6443 -94.2361 Q-54.91 -94.2361 -54.91 -92.7986 Q-54.91 -91.4392 -56.3475 -91.0486 L-55.41 -88.5174 L-56.1287 -88.5174 L-56.9568 -90.8924 L-57.9412 -90.8924 ZM-57.3631 -93.6424 Q-57.7537 -91.7205 -57.8162 -91.4705 L-57.16 -91.4705 Q-56.41 -91.4705 -56.0037 -91.7986 Q-55.5975 -92.1267 -55.5975 -92.7517 Q-55.5975 -93.2205 -55.8553 -93.4314 Q-56.1131 -93.6424 -56.7068 -93.6424 L-57.3631 -93.6424 ZM-52.724 -91.8924 Q-52.724 -90.5642 -53.2006 -89.4314 Q-53.6771 -88.2986 -54.6927 -87.2517 L-55.3021 -87.2517 Q-53.3646 -89.408 -53.3646 -91.8924 Q-53.3646 -93.2205 -53.8021 -94.2361 L-53.2865 -94.2361 Q-52.724 -93.1736 -52.724 -91.8924 Z" /><ns0:path style="fill:none; stroke:black;" d="M-106.1812 -52.859 L-106.149 -53.358 L-106.5656 -53.6344" /><ns0:path style="fill:none; stroke:black;" d="M20.1006 -63.0518 L19.653 -62.829 L19.8237 -62.359" /><ns0:path style="stroke:none;" d="M52.8128 -44.0355 Q52.8128 -45.3636 53.2815 -46.4886 Q53.7503 -47.6136 54.7815 -48.6917 L55.3909 -48.6917 Q54.4221 -47.6292 53.9378 -46.4573 Q53.4534 -45.2855 53.4534 -44.0511 Q53.4534 -42.723 53.8909 -41.7073 L53.3753 -41.7073 Q52.8128 -42.7386 52.8128 -44.0355 ZM58.4353 -44.6292 Q58.4353 -43.8011 57.8885 -43.348 Q57.3416 -42.8948 56.3416 -42.8948 Q55.9353 -42.8948 55.6228 -42.9495 Q55.3103 -43.0042 55.0291 -43.1448 L55.0291 -43.8011 Q55.6541 -43.473 56.3572 -43.473 Q56.9822 -43.473 57.3572 -43.7698 Q57.7322 -44.0667 57.7322 -44.5823 Q57.7322 -44.8948 57.5291 -45.1214 Q57.326 -45.348 56.7635 -45.6761 Q56.1697 -46.0042 55.9431 -46.3323 Q55.7166 -46.6605 55.7166 -47.1136 Q55.7166 -47.848 56.2322 -48.3089 Q56.7478 -48.7698 57.5916 -48.7698 Q57.9666 -48.7698 58.3025 -48.6917 Q58.6385 -48.6136 59.0135 -48.4417 L58.7478 -47.848 Q58.4978 -48.0042 58.1775 -48.0902 Q57.8572 -48.1761 57.5916 -48.1761 Q57.0603 -48.1761 56.74 -47.9027 Q56.4197 -47.6292 56.4197 -47.1605 Q56.4197 -46.9573 56.49 -46.8089 Q56.5603 -46.6605 56.701 -46.5277 Q56.8416 -46.3948 57.2635 -46.1448 Q57.826 -45.8011 58.0291 -45.6058 Q58.2322 -45.4105 58.3338 -45.1761 Q58.4353 -44.9417 58.4353 -44.6292 ZM61.0298 -46.348 Q61.0298 -45.0198 60.5532 -43.887 Q60.0767 -42.7542 59.0611 -41.7073 L58.4517 -41.7073 Q60.3892 -43.8636 60.3892 -46.348 Q60.3892 -47.6761 59.9517 -48.6917 L60.4673 -48.6917 Q61.0298 -47.6292 61.0298 -46.348 Z" /></ns0:g><ns0:g transform="translate(178,152)" style="stroke-linecap:butt; fill:rgb(230,0,0); text-rendering:geometricPrecision; color-rendering:optimizeQuality; image-rendering:optimizeQuality; font-family:'Open Sans'; stroke:rgb(230,0,0); color-interpolation:linearRGB; stroke-miterlimit:5;"><ns0:path style="stroke:none;" d="M73.3275 -7.2913 Q73.3275 -5.2288 72.2884 -4.0491 Q71.2494 -2.8694 69.4056 -2.8694 Q67.515 -2.8694 66.4837 -4.0335 Q65.4525 -5.1976 65.4525 -7.3069 Q65.4525 -9.4007 66.4837 -10.5491 Q67.515 -11.6976 69.4056 -11.6976 Q71.265 -11.6976 72.2962 -10.5257 Q73.3275 -9.3538 73.3275 -7.2913 ZM66.4994 -7.2913 Q66.4994 -5.5569 67.2416 -4.6507 Q67.9837 -3.7444 69.4056 -3.7444 Q70.8275 -3.7444 71.5541 -4.6429 Q72.2806 -5.5413 72.2806 -7.2913 Q72.2806 -9.0257 71.5541 -9.9163 Q70.8275 -10.8069 69.4056 -10.8069 Q67.9837 -10.8069 67.2416 -9.9085 Q66.4994 -9.0101 66.4994 -7.2913 Z" /><ns0:path style="fill:none; stroke:black;" d="M43.6837 40.1509 L43.653 40.65 L43.2048 40.8716" /><ns0:path style="fill:none; stroke:black;" d="M-3.5908 -108.9293 L-3.555 -109.428 L-4.0151 -109.6238" /><ns0:path style="stroke:none;" d="M-27.1335 -121.2073 Q-27.1335 -119.1448 -28.1726 -117.9651 Q-29.2116 -116.7854 -31.0554 -116.7854 Q-32.946 -116.7854 -33.9772 -117.9495 Q-35.0085 -119.1136 -35.0085 -121.2229 Q-35.0085 -123.3167 -33.9772 -124.4651 Q-32.946 -125.6136 -31.0554 -125.6136 Q-29.196 -125.6136 -28.1647 -124.4417 Q-27.1335 -123.2698 -27.1335 -121.2073 ZM-33.9616 -121.2073 Q-33.9616 -119.4729 -33.2194 -118.5667 Q-32.4772 -117.6604 -31.0554 -117.6604 Q-29.6335 -117.6604 -28.9069 -118.5589 Q-28.1804 -119.4573 -28.1804 -121.2073 Q-28.1804 -122.9417 -28.9069 -123.8323 Q-29.6335 -124.7229 -31.0554 -124.7229 Q-32.4772 -124.7229 -33.2194 -123.8245 Q-33.9616 -122.9261 -33.9616 -121.2073 Z" /><ns0:path style="fill:none; stroke:black;" d="M45.9864 -75.9382 L46.434 -76.161 L46.4639 -76.6601" /><ns0:path style="fill:none; stroke:black;" d="M22.8085 -122.5611 L23.256 -122.784 L23.672 -122.5066" /><ns0:path style="fill:none; stroke:black;" d="M47.812 -106.4054 L48.228 -106.128 L48.6757 -106.3506" /><ns0:path style="fill:none; stroke:black;" d="M-24.469 73.274 L-24.036 73.524 L-24.036 74.024" /><ns0:path style="fill:none; stroke:black;" d="M-75.563 73.274 L-75.996 73.524 L-75.996 74.024" /><ns0:path style="fill:none; stroke:black;" d="M-24.036 103.024 L-24.036 103.524 L-24.469 103.774" /><ns0:path style="fill:none; stroke:black;" d="M-75.996 103.024 L-75.996 103.524 L-75.563 103.774" /><ns0:path style="fill:none; stroke:black;" d="M-49.583 118.274 L-50.016 118.524 L-50.016 119.024" /><ns0:path style="fill:none; stroke:black;" d="M-79.322 -108.3986 L-78.939 -108.72 L-79.0258 -109.2124" /><ns0:path style="fill:none; stroke:black;" d="M-101.536 -89.7574 L-101.919 -89.436 L-102.3888 -89.607" /><ns0:path style="fill:none; stroke:black;" d="M-84.0602 -137.7716 L-84.147 -138.264 L-84.6168 -138.435" /><ns0:path style="fill:none; stroke:black;" d="M-129.6402 -99.525 L-130.11 -99.696 L-130.1969 -100.1884" /><ns0:path style="fill:none; stroke:black;" d="M-111.8682 -148.353 L-112.338 -148.524 L-112.721 -148.2026" /><ns0:path style="fill:none; stroke:black;" d="M-135.2342 -128.7476 L-135.321 -129.24 L-135.7909 -129.411" /><ns0:path style="fill:none; stroke:black;" d="M85.569 -80.101 L85.569 -80.601 L86.002 -80.851" /><ns0:path style="fill:none; stroke:black;" d="M111.116 -35.851 L111.549 -35.601 L111.982 -35.851" /><ns0:path style="fill:none; stroke:black;" d="M111.116 -95.351 L111.549 -95.601 L111.982 -95.351" /><ns0:path style="fill:none; stroke:black;" d="M137.096 -50.351 L137.529 -50.601 L137.529 -51.101" /><ns0:path style="fill:none; stroke:black;" d="M137.096 -80.851 L137.529 -80.601 L137.962 -80.851" /><ns0:path style="fill:black; stroke:none;" d="M-19.3592 33.6553 L-20.3592 33.6553 L-20.3592 29.624 L-24.8748 29.624 L-24.8748 33.6553 L-25.8748 33.6553 L-25.8748 25.0928 L-24.8748 25.0928 L-24.8748 28.7334 L-20.3592 28.7334 L-20.3592 25.0928 L-19.3592 25.0928 L-19.3592 33.6553 Z" /><ns0:path style="fill:black; stroke:none;" d="M-62.0342 -71.0598 L-63.0342 -71.0598 L-63.0342 -75.091 L-67.5498 -75.091 L-67.5498 -71.0598 L-68.5498 -71.0598 L-68.5498 -79.6223 L-67.5498 -79.6223 L-67.5498 -75.9816 L-63.0342 -75.9816 L-63.0342 -79.6223 L-62.0342 -79.6223 L-62.0342 -71.0598 Z" /><ns0:path style="fill:black; stroke:none;" d="M49.9918 -55.6607 L48.9918 -55.6607 L48.9918 -59.692 L44.4762 -59.692 L44.4762 -55.6607 L43.4762 -55.6607 L43.4762 -64.2233 L44.4762 -64.2233 L44.4762 -60.5826 L48.9918 -60.5826 L48.9918 -64.2233 L49.9918 -64.2233 L49.9918 -55.6607 Z" /></ns0:g></ns0:g></ns0:svg></ns0:svg></ns0:svg></ns0:svg></g></svg>