<svg xmlns:ns0="http://www.w3.org/2000/svg" xmlns="http://www.w3.org/2000/svg"><g transform="translate(0, 0)"><ns0:svg width="468" viewBox="0 0 468 277" style="fill-opacity:1; color-rendering:auto; color-interpolation:auto; text-rendering:auto; stroke:black; stroke-linecap:square; stroke-miterlimit:10; shape-rendering:auto; stroke-opacity:1; fill:black; stroke-dasharray:none; font-weight:normal; stroke-width:1; font-family:'Open Sans'; font-style:normal; stroke-linejoin:miter; font-size:12; stroke-dashoffset:0; image-rendering:auto;" height="277" class="cas-substance-image"><ns0:svg class="cas-substance-single-component"><ns0:rect y="0" x="0" width="468" stroke="none" ry="7" rx="7" height="277" fill="white" class="cas-substance-group" /><ns0:svg y="0" x="0" width="468" viewBox="0 0 468 277" style="fill:black;" height="277" class="cas-substance-single-component-image"><ns0:svg><ns0:g><ns0:g transform="translate(236,138)" style="text-rendering:geometricPrecision; color-rendering:optimizeQuality; color-interpolation:linearRGB; stroke-linecap:butt; image-rendering:optimizeQuality;"><ns0:line y2="84.069" y1="61.773" x2="-20.136" x1="-40.209" style="fill:none;" /><ns0:line y2="33.243" y1="61.773" x2="-30.939" x1="-40.209" style="fill:none;" /><ns0:line y2="112.599" y1="84.069" x2="-29.406" x1="-20.136" style="fill:none;" /><ns0:line y2="134.895" y1="112.599" x2="-9.33" x1="-29.406" style="fill:none;" /><ns0:line y2="8.973" y1="8.973" x2="-138.573" x1="-162.6355" style="fill:none;" /><ns0:line y2="-17.01" y1="3.2452" x2="-183.573" x1="-171.8797" style="fill:none;" /><ns0:line y2="-64.359" y1="-73.9959" x2="122.082" x1="100.4415" style="fill:none;" /><ns0:line y2="-58.929" y1="-72.8547" x2="70.404" x1="89.5726" style="fill:none;" /><ns0:line y2="-81.993" y1="-64.359" x2="146.352" x1="122.082" style="fill:none;" /><ns0:line y2="-69.792" y1="-81.993" x2="173.76" x1="146.352" style="fill:none;" /><ns0:line y2="-83.8152" y1="-69.792" x2="193.0604" x1="173.76" style="fill:none;" /><ns0:line y2="-117.261" y1="-93.8213" x2="194.895" x1="197.358" style="fill:none;" /><ns0:line y2="-75.222" y1="-85.1199" x2="225.435" x1="203.2086" style="fill:none;" /><ns0:line y2="-134.895" y1="-117.261" x2="219.165" x1="194.895" style="fill:none;" /><ns0:line y2="-45.387" y1="-75.222" x2="228.573" x1="225.435" style="fill:none;" /><ns0:line y2="-68.97" y1="-88.717" x2="-213.573" x1="-224.9743" style="fill:none;" /><ns0:line y2="33.243" y1="14.7473" x2="-30.939" x1="-44.3776" style="fill:none;" /><ns0:line y2="-15.3" y1="2.9487" x2="-30.939" x1="-44.1964" style="fill:none;" /><ns0:line y2="8.973" y1="8.973" x2="-78.573" x1="-53.9246" style="fill:none;" /><ns0:line y2="25.6799" y1="33.243" x2="-7.6597" x1="-30.939" style="fill:none;" /><ns0:line y2="22.3511" y1="29.2899" x2="-8.7412" x1="-30.0986" style="fill:none;" /><ns0:line y2="-6.027" y1="-15.3" x2="-2.406" x1="-30.939" style="fill:none;" /><ns0:line y2="-3.3229" y1="-11.3468" x2="-5.4096" x1="-30.099" style="fill:none;" /><ns0:line y2="-6.027" y1="17.5667" x2="-2.406" x1="-2.406" style="fill:none;" /><ns0:line y2="-23.661" y1="-6.027" x2="21.864" x1="-2.406" style="fill:none;" /><ns0:line y2="34.953" y1="8.973" x2="-93.573" x1="-78.573" style="fill:none;" /><ns0:line y2="31.453" y1="8.9729" x2="-95.5937" x1="-82.6145" style="fill:none;" /><ns0:line y2="-17.01" y1="8.973" x2="-93.573" x1="-78.573" style="fill:none;" /><ns0:line y2="34.953" y1="34.953" x2="-123.573" x1="-93.573" style="fill:none;" /><ns0:line y2="-17.01" y1="-17.01" x2="-123.573" x1="-93.573" style="fill:none;" /><ns0:line y2="-13.51" y1="-13.51" x2="-121.5523" x1="-95.5937" style="fill:none;" /><ns0:line y2="8.973" y1="34.953" x2="-138.573" x1="-123.573" style="fill:none;" /><ns0:line y2="8.9729" y1="31.453" x2="-134.5315" x1="-121.5523" style="fill:none;" /><ns0:line y2="8.973" y1="-17.01" x2="-138.573" x1="-123.573" style="fill:none;" /><ns0:line y2="-11.46" y1="-23.661" x2="49.272" x1="21.864" style="fill:none;" /><ns0:line y2="-15.4793" y1="-26.0367" x2="48.8493" x1="25.1335" style="fill:none;" /><ns0:line y2="-53.496" y1="-23.661" x2="18.729" x1="21.864" style="fill:none;" /><ns0:line y2="-29.094" y1="-11.46" x2="73.542" x1="49.272" style="fill:none;" /><ns0:line y2="-71.13" y1="-53.496" x2="42.999" x1="18.729" style="fill:none;" /><ns0:line y2="-67.1107" y1="-51.8523" x2="43.4215" x1="22.4211" style="fill:none;" /><ns0:line y2="-58.929" y1="-29.094" x2="70.404" x1="73.542" style="fill:none;" /><ns0:line y2="-56.5533" y1="-30.7375" x2="67.1346" x1="69.8498" style="fill:none;" /><ns0:line y2="-58.929" y1="-71.13" x2="70.404" x1="42.999" style="fill:none;" /><ns0:line y2="-42.99" y1="-17.01" x2="-168.573" x1="-183.573" style="fill:none;" /><ns0:line y2="-42.99" y1="-20.51" x2="-172.6145" x1="-185.5937" style="fill:none;" /><ns0:line y2="-17.01" y1="-17.01" x2="-213.573" x1="-183.573" style="fill:none;" /><ns0:line y2="-68.97" y1="-42.99" x2="-183.573" x1="-168.573" style="fill:none;" /><ns0:line y2="-42.99" y1="-17.01" x2="-228.573" x1="-213.573" style="fill:none;" /><ns0:line y2="-42.99" y1="-20.51" x2="-224.5315" x1="-211.5523" style="fill:none;" /><ns0:line y2="-68.97" y1="-68.97" x2="-213.573" x1="-183.573" style="fill:none;" /><ns0:line y2="-65.47" y1="-65.47" x2="-211.5523" x1="-185.5937" style="fill:none;" /><ns0:line y2="-68.97" y1="-42.99" x2="-213.573" x1="-228.573" style="fill:none;" /><ns0:path style="fill:none; stroke-miterlimit:5;" d="M-39.8745 62.1446 L-40.209 61.773 L-40.0545 61.2975" /><ns0:path style="fill:none; stroke-miterlimit:5;" d="M-20.4705 83.6974 L-20.136 84.069 L-20.2905 84.5445" /><ns0:path style="fill:none; stroke-miterlimit:5;" d="M-29.2515 112.1235 L-29.406 112.599 L-29.0714 112.9706" /></ns0:g><ns0:g transform="translate(236,138)" style="stroke-linecap:butt; fill:rgb(230,0,0); text-rendering:geometricPrecision; color-rendering:optimizeQuality; image-rendering:optimizeQuality; font-family:'Open Sans'; stroke:rgb(230,0,0); color-interpolation:linearRGB; stroke-miterlimit:5;"><ns0:path style="stroke:none;" d="M-164.6355 8.9027 Q-164.6355 10.9652 -165.6746 12.1449 Q-166.7136 13.3246 -168.5574 13.3246 Q-170.448 13.3246 -171.4792 12.1605 Q-172.5105 10.9964 -172.5105 8.8871 Q-172.5105 6.7933 -171.4792 5.6449 Q-170.448 4.4964 -168.5574 4.4964 Q-166.698 4.4964 -165.6667 5.6683 Q-164.6355 6.8402 -164.6355 8.9027 ZM-171.4636 8.9027 Q-171.4636 10.6371 -170.7214 11.5433 Q-169.9792 12.4496 -168.5574 12.4496 Q-167.1355 12.4496 -166.4089 11.5511 Q-165.6824 10.6527 -165.6824 8.9027 Q-165.6824 7.1683 -166.4089 6.2777 Q-167.1355 5.3871 -168.5574 5.3871 Q-169.9792 5.3871 -170.7214 6.2855 Q-171.4636 7.1839 -171.4636 8.9027 Z" /><ns0:path style="stroke:none;" d="M98.6145 -76.6333 Q98.6145 -74.5708 97.5754 -73.3911 Q96.5364 -72.2114 94.6926 -72.2114 Q92.802 -72.2114 91.7708 -73.3755 Q90.7395 -74.5396 90.7395 -76.6489 Q90.7395 -78.7427 91.7708 -79.8911 Q92.802 -81.0396 94.6926 -81.0396 Q96.552 -81.0396 97.5833 -79.8677 Q98.6145 -78.6958 98.6145 -76.6333 ZM91.7864 -76.6333 Q91.7864 -74.8989 92.5286 -73.9927 Q93.2708 -73.0864 94.6926 -73.0864 Q96.1145 -73.0864 96.8411 -73.9849 Q97.5676 -74.8833 97.5676 -76.6333 Q97.5676 -78.3677 96.8411 -79.2583 Q96.1145 -80.1489 94.6926 -80.1489 Q93.2708 -80.1489 92.5286 -79.2505 Q91.7864 -78.3521 91.7864 -76.6333 Z" /><ns0:path style="fill:none; stroke:black;" d="M121.6252 -64.5624 L122.082 -64.359 L122.4865 -64.6529" /><ns0:path style="fill:none; stroke:black;" d="M145.9475 -81.6991 L146.352 -81.993 L146.8088 -81.7896" /><ns0:path style="fill:none; stroke:black;" d="M173.3032 -69.9953 L173.76 -69.792 L174.1645 -70.0859" /><ns0:path style="fill:rgb(0,5,255); stroke:none;" d="M201.3816 -83.2698 L200.2409 -83.2698 L195.5534 -90.4573 L195.5066 -90.4573 Q195.6003 -89.1916 195.6003 -88.1448 L195.6003 -83.2698 L194.6784 -83.2698 L194.6784 -91.8323 L195.8034 -91.8323 L200.4753 -84.676 L200.5222 -84.676 Q200.5222 -84.8323 200.4753 -85.6916 Q200.4284 -86.551 200.4441 -86.926 L200.4441 -91.8323 L201.3816 -91.8323 L201.3816 -83.2698 Z" /><ns0:path style="fill:none; stroke:black;" d="M194.9473 -116.7637 L194.895 -117.261 L195.2995 -117.5549" /><ns0:path style="fill:none; stroke:black;" d="M224.9782 -75.4254 L225.435 -75.222 L225.4873 -74.7247" /><ns0:path style="fill:rgb(0,138,0); stroke:none;" d="M-228.8816 -98.3094 Q-230.2878 -98.3094 -231.1082 -97.3719 Q-231.9285 -96.4344 -231.9285 -94.7937 Q-231.9285 -93.1219 -231.1394 -92.2 Q-230.3503 -91.2781 -228.8972 -91.2781 Q-227.991 -91.2781 -226.8503 -91.6062 L-226.8503 -90.7312 Q-227.741 -90.3875 -229.0378 -90.3875 Q-230.9285 -90.3875 -231.9597 -91.5437 Q-232.991 -92.7 -232.991 -94.8094 Q-232.991 -96.1375 -232.4988 -97.1297 Q-232.0066 -98.1219 -231.0691 -98.6609 Q-230.1316 -99.2 -228.866 -99.2 Q-227.5222 -99.2 -226.5066 -98.7156 L-226.9285 -97.8562 Q-227.9128 -98.3094 -228.8816 -98.3094 ZM-224.155 -90.5125 L-225.1238 -90.5125 L-225.1238 -99.6375 L-224.155 -99.6375 L-224.155 -90.5125 Z" /><ns0:path style="fill:rgb(0,5,255); stroke:none;" d="M-45.2214 13.1293 L-46.3621 13.1293 L-51.0496 5.9418 L-51.0964 5.9418 Q-51.0027 7.2074 -51.0027 8.2543 L-51.0027 13.1293 L-51.9246 13.1293 L-51.9246 4.5668 L-50.7996 4.5668 L-46.1277 11.723 L-46.0808 11.723 Q-46.0808 11.5668 -46.1277 10.7074 Q-46.1746 9.848 -46.1589 9.473 L-46.1589 4.5668 L-45.2214 4.5668 L-45.2214 13.1293 Z" /><ns0:path style="fill:none; stroke:black;" d="M-30.4635 33.0885 L-30.939 33.243 L-31.0935 33.7185" /><ns0:path style="fill:none; stroke:black;" d="M-31.2329 -14.8955 L-30.939 -15.3 L-30.4635 -15.1455" /><ns0:path style="fill:rgb(0,5,255); stroke:none;" d="M0.9456 28.1292 L-0.1951 28.1292 L-4.8826 20.9417 L-4.9294 20.9417 Q-4.8357 22.2074 -4.8357 23.2542 L-4.8357 28.1292 L-5.7576 28.1292 L-5.7576 19.5667 L-4.6326 19.5667 L0.0393 26.723 L0.0862 26.723 Q0.0862 26.5667 0.0393 25.7074 Q-0.0076 24.848 0.0081 24.473 L0.0081 19.5667 L0.9456 19.5667 L0.9456 28.1292 Z" /><ns0:path style="fill:none; stroke:black;" d="M-2.8815 -6.1815 L-2.406 -6.027 L-2.406 -5.527" /><ns0:path style="fill:none; stroke:black;" d="M-78.823 9.406 L-78.573 8.973 L-78.823 8.54" /><ns0:path style="fill:none; stroke:black;" d="M-93.323 34.52 L-93.573 34.953 L-94.073 34.953" /><ns0:path style="fill:none; stroke:black;" d="M-93.323 -16.577 L-93.573 -17.01 L-94.073 -17.01" /><ns0:path style="fill:none; stroke:black;" d="M-123.073 34.953 L-123.573 34.953 L-123.823 34.52" /><ns0:path style="fill:none; stroke:black;" d="M-123.073 -17.01 L-123.573 -17.01 L-123.823 -16.577" /><ns0:path style="fill:none; stroke:black;" d="M-138.323 9.406 L-138.573 8.973 L-139.073 8.973" /><ns0:path style="fill:none; stroke:black;" d="M22.3208 -23.4577 L21.864 -23.661 L21.4595 -23.3671" /><ns0:path style="fill:none; stroke:black;" d="M48.8152 -11.6633 L49.272 -11.46 L49.6765 -11.7539" /><ns0:path style="fill:none; stroke:black;" d="M18.7813 -52.9987 L18.729 -53.496 L19.1335 -53.7899" /><ns0:path style="fill:none; stroke:black;" d="M73.1375 -28.8001 L73.542 -29.094 L73.4897 -29.5913" /><ns0:path style="fill:none; stroke:black;" d="M42.5945 -70.8361 L42.999 -71.13 L43.4558 -70.9266" /><ns0:path style="fill:none; stroke:black;" d="M70.4563 -58.4317 L70.404 -58.929 L70.8085 -59.2229" /><ns0:path style="fill:none; stroke:black;" d="M-183.323 -17.443 L-183.573 -17.01 L-183.323 -16.577" /><ns0:path style="fill:none; stroke:black;" d="M-168.823 -42.557 L-168.573 -42.99 L-168.823 -43.423" /><ns0:path style="fill:none; stroke:black;" d="M-213.073 -17.01 L-213.573 -17.01 L-213.823 -17.443" /><ns0:path style="fill:none; stroke:black;" d="M-183.323 -68.537 L-183.573 -68.97 L-184.073 -68.97" /><ns0:path style="fill:none; stroke:black;" d="M-228.323 -42.557 L-228.573 -42.99 L-228.323 -43.423" /><ns0:path style="fill:none; stroke:black;" d="M-213.073 -68.97 L-213.573 -68.97 L-213.823 -69.403" /></ns0:g></ns0:g></ns0:svg></ns0:svg></ns0:svg></ns0:svg></g></svg>