<svg xmlns:ns0="http://www.w3.org/2000/svg" xmlns="http://www.w3.org/2000/svg"><g transform="translate(0, 0)"><ns0:svg width="133" viewBox="0 0 133 108" style="fill-opacity:1; color-rendering:auto; color-interpolation:auto; text-rendering:auto; stroke:black; stroke-linecap:square; stroke-miterlimit:10; shape-rendering:auto; stroke-opacity:1; fill:black; stroke-dasharray:none; font-weight:normal; stroke-width:1; font-family:'Open Sans'; font-style:normal; stroke-linejoin:miter; font-size:12; stroke-dashoffset:0; image-rendering:auto;" height="108" class="cas-substance-image"><ns0:svg class="cas-substance-single-component"><ns0:rect y="0" x="0" width="133" stroke="none" ry="7" rx="7" height="108" fill="white" class="cas-substance-group" /><ns0:svg y="0" x="0" width="133" viewBox="0 0 133 108" style="fill:black;" height="108" class="cas-substance-single-component-image"><ns0:svg><ns0:g><ns0:g transform="translate(66,56)" style="text-rendering:geometricPrecision; color-rendering:optimizeQuality; color-interpolation:linearRGB; stroke-linecap:butt; image-rendering:optimizeQuality;"><ns0:line y2="15" y1="38.5938" x2="10.092" x1="10.092" style="fill:none;" /><ns0:line y2="-30" y1="-42.62" x2="36.072" x1="57.9323" style="fill:none;" /><ns0:line y2="0" y1="-30" x2="-15.888" x1="-15.888" style="fill:none;" /><ns0:line y2="-45" y1="-30" x2="10.092" x1="-15.888" style="fill:none;" /><ns0:line y2="-40.9585" y1="-27.9793" x2="10.0921" x1="-12.388" style="fill:none;" /><ns0:line y2="-37.5631" y1="-30" x2="-39.1673" x1="-15.888" style="fill:none;" /><ns0:line y2="15" y1="0" x2="10.092" x1="-15.888" style="fill:none;" /><ns0:line y2="10.9585" y1="-2.0207" x2="10.0921" x1="-12.388" style="fill:none;" /><ns0:line y2="9.27" y1="0" x2="-44.421" x1="-15.888" style="fill:none;" /><ns0:line y2="-30" y1="-45" x2="36.072" x1="10.092" style="fill:none;" /><ns0:line y2="-15" y1="-33.4957" x2="-62.055" x1="-48.6164" style="fill:none;" /><ns0:line y2="0" y1="15" x2="36.072" x1="10.092" style="fill:none;" /><ns0:line y2="-15" y1="9.27" x2="-62.055" x1="-44.421" style="fill:none;" /><ns0:line y2="0" y1="-30" x2="36.072" x1="36.072" style="fill:none;" /><ns0:line y2="-2.0207" y1="-27.9793" x2="32.572" x1="32.572" style="fill:none;" /></ns0:g><ns0:g transform="translate(66,56)" style="fill:rgb(0,138,0); text-rendering:geometricPrecision; color-rendering:optimizeQuality; image-rendering:optimizeQuality; font-family:'Open Sans'; stroke:rgb(0,138,0); color-interpolation:linearRGB;"><ns0:path style="stroke:none;" d="M8.7014 49.1562 L7.7014 49.1562 L7.7014 40.5938 L12.4826 40.5938 L12.4826 41.4688 L8.7014 41.4688 L8.7014 44.6094 L12.2483 44.6094 L12.2483 45.5 L8.7014 45.5 L8.7014 49.1562 Z" /><ns0:path style="stroke:none;" d="M60.6644 -40.8438 L59.6644 -40.8438 L59.6644 -49.4062 L64.4456 -49.4062 L64.4456 -48.5312 L60.6644 -48.5312 L60.6644 -45.3906 L64.2113 -45.3906 L64.2113 -44.5 L60.6644 -44.5 L60.6644 -40.8438 Z" /></ns0:g><ns0:g transform="translate(66,56)" style="stroke-linecap:butt; text-rendering:geometricPrecision; color-rendering:optimizeQuality; image-rendering:optimizeQuality; font-family:'Open Sans'; color-interpolation:linearRGB; stroke-miterlimit:5;"><ns0:path style="fill:none;" d="M-15.455 -30.25 L-15.888 -30 L-16.3635 -30.1545" /><ns0:path style="fill:none;" d="M-15.455 0.25 L-15.888 0 L-15.888 -0.5" /><ns0:path style="fill:none;" d="M9.659 -44.75 L10.092 -45 L10.525 -44.75" /><ns0:path style="fill:rgb(0,5,255); stroke:none;" d="M-41.0694 -35.1138 L-42.2101 -35.1138 L-46.8976 -42.3013 L-46.9444 -42.3013 Q-46.8507 -41.0356 -46.8507 -39.9888 L-46.8507 -35.1138 L-47.7726 -35.1138 L-47.7726 -43.6763 L-46.6476 -43.6763 L-41.9757 -36.52 L-41.9288 -36.52 Q-41.9288 -36.6763 -41.9757 -37.5356 Q-42.0226 -38.395 -42.0069 -38.77 L-42.0069 -43.6763 L-41.0694 -43.6763 L-41.0694 -35.1138 Z" /><ns0:path style="fill:rgb(0,5,255); stroke:none;" d="M-41.1632 -44.6763 L-42.1632 -44.6763 L-42.1632 -48.7075 L-46.6788 -48.7075 L-46.6788 -44.6763 L-47.6788 -44.6763 L-47.6788 -53.2388 L-46.6788 -53.2388 L-46.6788 -49.5981 L-42.1632 -49.5981 L-42.1632 -53.2388 L-41.1632 -53.2388 L-41.1632 -44.6763 Z" /><ns0:path style="fill:none;" d="M9.659 14.75 L10.092 15 L10.525 14.75" /><ns0:path style="fill:none;" d="M-43.9455 9.1155 L-44.421 9.27 L-44.7149 8.8655" /><ns0:path style="fill:none;" d="M36.072 -29.5 L36.072 -30 L36.505 -30.25" /><ns0:path style="fill:none;" d="M-61.7611 -15.4045 L-62.055 -15 L-61.7611 -14.5955" /><ns0:path style="fill:none;" d="M35.639 0.25 L36.072 0 L36.072 -0.5" /></ns0:g></ns0:g></ns0:svg></ns0:svg></ns0:svg></ns0:svg></g></svg>