<svg xmlns:ns0="http://www.w3.org/2000/svg" xmlns="http://www.w3.org/2000/svg"><g transform="translate(0, 0)"><ns0:svg width="530" viewBox="0 0 530 110" style="fill-opacity:1; color-rendering:auto; color-interpolation:auto; text-rendering:auto; stroke:black; stroke-linecap:square; stroke-miterlimit:10; shape-rendering:auto; stroke-opacity:1; fill:black; stroke-dasharray:none; font-weight:normal; stroke-width:1; font-family:'Open Sans'; font-style:normal; stroke-linejoin:miter; font-size:12; stroke-dashoffset:0; image-rendering:auto;" height="110" class="cas-substance-image"><ns0:svg class="cas-substance-single-component"><ns0:rect y="0" x="0" width="530" stroke="none" ry="7" rx="7" height="110" fill="white" class="cas-substance-group" /><ns0:svg y="0" x="0" width="530" viewBox="0 0 530 95" style="fill:black;" height="95" class="cas-substance-single-component-image"><ns0:svg><ns0:g><ns0:g transform="translate(267,52)" style="text-rendering:geometricPrecision; color-rendering:optimizeQuality; color-interpolation:linearRGB; stroke-linecap:butt; image-rendering:optimizeQuality;"><ns0:line y2="-20.49" y1="-32.5549" x2="-77.943" x1="-98.8394" style="fill:none;" /><ns0:line y2="-20.49" y1="-32.5549" x2="-129.903" x1="-109.0066" style="fill:none;" /><ns0:line y2="-35.49" y1="-20.49" x2="-51.963" x1="-77.943" style="fill:none;" /><ns0:line y2="3.0334" y1="-21.5004" x2="-79.693" x1="-79.693" style="fill:none;" /><ns0:line y2="3.0334" y1="-21.5004" x2="-76.193" x1="-76.193" style="fill:none;" /><ns0:line y2="-20.49" y1="-35.49" x2="-25.98" x1="-51.963" style="fill:none;" /><ns0:line y2="-35.49" y1="-20.49" x2="0" x1="-25.98" style="fill:none;" /><ns0:line y2="-20.49" y1="-35.49" x2="25.98" x1="0" style="fill:none;" /><ns0:line y2="-35.49" y1="-20.49" x2="51.963" x1="25.98" style="fill:none;" /><ns0:line y2="-20.49" y1="-35.49" x2="77.943" x1="51.963" style="fill:none;" /><ns0:line y2="-35.49" y1="-20.49" x2="103.923" x1="77.943" style="fill:none;" /><ns0:line y2="-20.49" y1="-35.49" x2="129.903" x1="103.923" style="fill:none;" /><ns0:line y2="-35.49" y1="-20.49" x2="155.886" x1="129.903" style="fill:none;" /><ns0:line y2="-20.49" y1="-35.49" x2="181.866" x1="155.886" style="fill:none;" /><ns0:line y2="-35.49" y1="-20.49" x2="207.846" x1="181.866" style="fill:none;" /><ns0:line y2="-20.49" y1="-35.49" x2="233.826" x1="207.846" style="fill:none;" /><ns0:line y2="-35.49" y1="-20.49" x2="259.809" x1="233.826" style="fill:none;" /><ns0:line y2="11.3178" y1="24.51" x2="-230.6948" x1="-207.846" style="fill:none;" /><ns0:line y2="9.51" y1="24.51" x2="-181.866" x1="-207.846" style="fill:none;" /><ns0:line y2="-3.8272" y1="5.425" x2="-253.4285" x1="-237.4019" style="fill:none;" /><ns0:line y2="-0.7961" y1="8.4561" x2="-255.1784" x1="-239.1518" style="fill:none;" /><ns0:line y2="29.7683" y1="15.3983" x2="-245.5225" x1="-237.2257" style="fill:none;" /><ns0:line y2="-10.822" y1="3.3717" x2="-222.087" x1="-230.282" style="fill:none;" /><ns0:line y2="-35.49" y1="-20.49" x2="-155.886" x1="-129.903" style="fill:none;" /><ns0:line y2="-31.4485" y1="-18.4691" x2="-155.8859" x1="-133.4029" style="fill:none;" /><ns0:line y2="9.51" y1="-20.49" x2="-129.903" x1="-129.903" style="fill:none;" /><ns0:line y2="-20.49" y1="-35.49" x2="-181.866" x1="-155.886" style="fill:none;" /><ns0:line y2="24.51" y1="9.51" x2="-155.886" x1="-129.903" style="fill:none;" /><ns0:line y2="20.4685" y1="7.4891" x2="-155.8859" x1="-133.4029" style="fill:none;" /><ns0:line y2="9.51" y1="-20.49" x2="-181.866" x1="-181.866" style="fill:none;" /><ns0:line y2="7.4893" y1="-18.4693" x2="-178.366" x1="-178.366" style="fill:none;" /><ns0:line y2="9.51" y1="24.51" x2="-181.866" x1="-155.886" style="fill:none;" /></ns0:g><ns0:g transform="translate(267,52)" style="fill:rgb(0,5,255); text-rendering:geometricPrecision; color-rendering:optimizeQuality; image-rendering:optimizeQuality; font-family:'Open Sans'; stroke:rgb(0,5,255); color-interpolation:linearRGB;"><ns0:path style="stroke:none;" d="M-100.5714 -31.3337 L-101.7121 -31.3337 L-106.3996 -38.5212 L-106.4464 -38.5212 Q-106.3527 -37.2556 -106.3527 -36.2087 L-106.3527 -31.3337 L-107.2746 -31.3337 L-107.2746 -39.8962 L-106.1496 -39.8962 L-101.4777 -32.74 L-101.4308 -32.74 Q-101.4308 -32.8962 -101.4777 -33.7556 Q-101.5246 -34.615 -101.5089 -34.99 L-101.5089 -39.8962 L-100.5714 -39.8962 L-100.5714 -31.3337 Z" /><ns0:path style="stroke:none;" d="M-100.6652 -40.8962 L-101.6652 -40.8962 L-101.6652 -44.9275 L-106.1808 -44.9275 L-106.1808 -40.8962 L-107.1808 -40.8962 L-107.1808 -49.4587 L-106.1808 -49.4587 L-106.1808 -45.8181 L-101.6652 -45.8181 L-101.6652 -49.4587 L-100.6652 -49.4587 L-100.6652 -40.8962 Z" /></ns0:g><ns0:g transform="translate(267,52)" style="stroke-linecap:butt; text-rendering:geometricPrecision; color-rendering:optimizeQuality; image-rendering:optimizeQuality; font-family:'Open Sans'; color-interpolation:linearRGB; stroke-miterlimit:5;"><ns0:path style="fill:none;" d="M-78.376 -20.74 L-77.943 -20.49 L-77.51 -20.74" /><ns0:path style="fill:none;" d="M-52.396 -35.24 L-51.963 -35.49 L-51.53 -35.24" /><ns0:path style="fill:rgb(230,0,0); stroke:none;" d="M-74.0055 9.4397 Q-74.0055 11.5022 -75.0446 12.6819 Q-76.0836 13.8616 -77.9274 13.8616 Q-79.818 13.8616 -80.8493 12.6975 Q-81.8805 11.5334 -81.8805 9.4241 Q-81.8805 7.3303 -80.8493 6.1819 Q-79.818 5.0334 -77.9274 5.0334 Q-76.068 5.0334 -75.0368 6.2053 Q-74.0055 7.3772 -74.0055 9.4397 ZM-80.8336 9.4397 Q-80.8336 11.1741 -80.0914 12.0803 Q-79.3493 12.9866 -77.9274 12.9866 Q-76.5055 12.9866 -75.7789 12.0881 Q-75.0524 11.1897 -75.0524 9.4397 Q-75.0524 7.7053 -75.7789 6.8147 Q-76.5055 5.9241 -77.9274 5.9241 Q-79.3493 5.9241 -80.0914 6.8225 Q-80.8336 7.7209 -80.8336 9.4397 Z" /><ns0:path style="fill:none;" d="M-26.413 -20.74 L-25.98 -20.49 L-25.547 -20.74" /><ns0:path style="fill:none;" d="M-0.433 -35.24 L0 -35.49 L0.433 -35.24" /><ns0:path style="fill:none;" d="M25.547 -20.74 L25.98 -20.49 L26.413 -20.74" /><ns0:path style="fill:none;" d="M51.53 -35.24 L51.963 -35.49 L52.396 -35.24" /><ns0:path style="fill:none;" d="M77.51 -20.74 L77.943 -20.49 L78.376 -20.74" /><ns0:path style="fill:none;" d="M103.49 -35.24 L103.923 -35.49 L104.356 -35.24" /><ns0:path style="fill:none;" d="M129.47 -20.74 L129.903 -20.49 L130.336 -20.74" /><ns0:path style="fill:none;" d="M155.453 -35.24 L155.886 -35.49 L156.319 -35.24" /><ns0:path style="fill:none;" d="M181.433 -20.74 L181.866 -20.49 L182.299 -20.74" /><ns0:path style="fill:none;" d="M207.413 -35.24 L207.846 -35.49 L208.279 -35.24" /><ns0:path style="fill:none;" d="M233.393 -20.74 L233.826 -20.49 L234.259 -20.74" /><ns0:path style="fill:none;" d="M-208.279 24.26 L-207.846 24.51 L-207.413 24.26" /><ns0:path style="fill:rgb(111,5,255); stroke:none;" d="M-231.1073 7.5881 Q-231.1073 8.9006 -231.9979 9.5959 Q-232.8885 10.2913 -234.5291 10.2913 L-235.5448 10.2913 L-235.5448 13.6663 L-236.5448 13.6663 L-236.5448 5.1038 L-234.3104 5.1038 Q-231.1073 5.1038 -231.1073 7.5881 ZM-235.5448 9.4475 L-234.6385 9.4475 Q-233.326 9.4475 -232.7323 9.0178 Q-232.1385 8.5881 -232.1385 7.635 Q-232.1385 6.7913 -232.6932 6.3772 Q-233.2479 5.9631 -234.4354 5.9631 L-235.5448 5.9631 L-235.5448 9.4475 Z" /><ns0:path style="fill:rgb(230,0,0); stroke:none;" d="M-255.8715 -5.5603 Q-255.8715 -3.4978 -256.9106 -2.3181 Q-257.9496 -1.1384 -259.7934 -1.1384 Q-261.684 -1.1384 -262.7153 -2.3025 Q-263.7465 -3.4666 -263.7465 -5.5759 Q-263.7465 -7.6697 -262.7153 -8.8181 Q-261.684 -9.9666 -259.7934 -9.9666 Q-257.934 -9.9666 -256.9028 -8.7947 Q-255.8715 -7.6228 -255.8715 -5.5603 ZM-262.6996 -5.5603 Q-262.6996 -3.8259 -261.9575 -2.9197 Q-261.2153 -2.0134 -259.7934 -2.0134 Q-258.3715 -2.0134 -257.645 -2.9119 Q-256.9184 -3.8103 -256.9184 -5.5603 Q-256.9184 -7.2947 -257.645 -8.1853 Q-258.3715 -9.0759 -259.7934 -9.0759 Q-261.2153 -9.0759 -261.9575 -8.1775 Q-262.6996 -7.2791 -262.6996 -5.5603 Z" /><ns0:path style="fill:rgb(230,0,0); stroke:none;" d="M-244.8885 35.4197 Q-244.8885 37.4822 -245.9276 38.6619 Q-246.9666 39.8416 -248.8104 39.8416 Q-250.701 39.8416 -251.7323 38.6775 Q-252.7635 37.5134 -252.7635 35.4041 Q-252.7635 33.3103 -251.7323 32.1619 Q-250.701 31.0134 -248.8104 31.0134 Q-246.951 31.0134 -245.9198 32.1853 Q-244.8885 33.3572 -244.8885 35.4197 ZM-251.7166 35.4197 Q-251.7166 37.1541 -250.9744 38.0603 Q-250.2323 38.9666 -248.8104 38.9666 Q-247.3885 38.9666 -246.6619 38.0681 Q-245.9354 37.1697 -245.9354 35.4197 Q-245.9354 33.6853 -246.6619 32.7947 Q-247.3885 31.9041 -248.8104 31.9041 Q-250.2323 31.9041 -250.9744 32.8025 Q-251.7166 33.7009 -251.7166 35.4197 Z" /><ns0:path style="fill:rgb(230,0,0); stroke:none;" d="M-253.7635 39.7166 L-254.7635 39.7166 L-254.7635 35.6853 L-259.2791 35.6853 L-259.2791 39.7166 L-260.2791 39.7166 L-260.2791 31.1541 L-259.2791 31.1541 L-259.2791 34.7947 L-254.7635 34.7947 L-254.7635 31.1541 L-253.7635 31.1541 L-253.7635 39.7166 Z" /><ns0:path style="fill:rgb(230,0,0); stroke:none;" d="M-214.8885 -16.5403 Q-214.8885 -14.4778 -215.9276 -13.2981 Q-216.9666 -12.1184 -218.8104 -12.1184 Q-220.701 -12.1184 -221.7323 -13.2825 Q-222.7635 -14.4466 -222.7635 -16.5559 Q-222.7635 -18.6497 -221.7323 -19.7981 Q-220.701 -20.9466 -218.8104 -20.9466 Q-216.951 -20.9466 -215.9198 -19.7747 Q-214.8885 -18.6028 -214.8885 -16.5403 ZM-221.7166 -16.5403 Q-221.7166 -14.8059 -220.9744 -13.8997 Q-220.2323 -12.9934 -218.8104 -12.9934 Q-217.3885 -12.9934 -216.6619 -13.8919 Q-215.9354 -14.7903 -215.9354 -16.5403 Q-215.9354 -18.2747 -216.6619 -19.1653 Q-217.3885 -20.0559 -218.8104 -20.0559 Q-220.2323 -20.0559 -220.9744 -19.1575 Q-221.7166 -18.2591 -221.7166 -16.5403 Z" /><ns0:path style="fill:rgb(230,0,0); stroke:none;" d="M-207.3729 -12.2434 L-208.3729 -12.2434 L-208.3729 -16.2747 L-212.8885 -16.2747 L-212.8885 -12.2434 L-213.8885 -12.2434 L-213.8885 -20.8059 L-212.8885 -20.8059 L-212.8885 -17.1653 L-208.3729 -17.1653 L-208.3729 -20.8059 L-207.3729 -20.8059 L-207.3729 -12.2434 Z" /><ns0:path style="fill:none;" d="M-130.336 -20.74 L-129.903 -20.49 L-129.903 -19.99" /><ns0:path style="fill:none;" d="M-155.453 -35.24 L-155.886 -35.49 L-156.319 -35.24" /><ns0:path style="fill:none;" d="M-129.903 9.01 L-129.903 9.51 L-130.336 9.76" /><ns0:path style="fill:none;" d="M-181.433 -20.74 L-181.866 -20.49 L-181.866 -19.99" /><ns0:path style="fill:none;" d="M-155.453 24.26 L-155.886 24.51 L-156.319 24.26" /><ns0:path style="fill:none;" d="M-181.866 9.01 L-181.866 9.51 L-182.299 9.76" /></ns0:g></ns0:g></ns0:svg></ns0:svg><ns0:svg y="95" x="242" class="cas-substance-saf"><ns0:svg y="5" x="0" width="4" style="fill:black;" height="4" class="cas-substance-saf-dot"><ns0:circle stroke="none" r="2" fill="black" cy="2" cx="2" /></ns0:svg><ns0:svg y="0" x="7" width="12" style="fill:black;" height="15" class="cas-substance-saf-coefficient"><ns0:svg><ns0:g><ns0:g transform="translate(6,7)" style="text-rendering:geometricPrecision; font-family:'Open Sans'; color-interpolation:linearRGB; color-rendering:optimizeQuality; image-rendering:optimizeQuality;"><ns0:path style="stroke:none;" d="M2.8125 4.2188 L-2.8125 4.2188 L-2.8125 3.375 L-0.5625 1.1094 Q0.4688 0.0625 0.7969 -0.3828 Q1.125 -0.8281 1.2891 -1.25 Q1.4531 -1.6719 1.4531 -2.1562 Q1.4531 -2.8438 1.0391 -3.2422 Q0.625 -3.6406 -0.125 -3.6406 Q-0.6562 -3.6406 -1.1328 -3.4609 Q-1.6094 -3.2812 -2.1875 -2.8281 L-2.7031 -3.4844 Q-1.5312 -4.4688 -0.125 -4.4688 Q1.0781 -4.4688 1.7656 -3.8516 Q2.4531 -3.2344 2.4531 -2.1875 Q2.4531 -1.375 1.9922 -0.5781 Q1.5312 0.2188 0.2812 1.4375 L-1.5938 3.2656 L-1.5938 3.3125 L2.8125 3.3125 L2.8125 4.2188 Z" /></ns0:g></ns0:g></ns0:svg></ns0:svg><ns0:svg y="0" x="23" width="20" style="fill:black;" height="15" class="cas-substance-saf-image"><ns0:svg><ns0:g><ns0:g transform="translate(10,7)" style="text-rendering:geometricPrecision; font-family:'Open Sans'; color-interpolation:linearRGB; color-rendering:optimizeQuality; image-rendering:optimizeQuality;"><ns0:path style="stroke:none;" d="M-0.0859 4.1562 L-1.2266 4.1562 L-5.9141 -3.0312 L-5.9609 -3.0312 Q-5.8672 -1.7656 -5.8672 -0.7188 L-5.8672 4.1562 L-6.7891 4.1562 L-6.7891 -4.4062 L-5.6641 -4.4062 L-0.9922 2.75 L-0.9453 2.75 Q-0.9453 2.5938 -0.9922 1.7344 Q-1.0391 0.875 -1.0234 0.5 L-1.0234 -4.4062 L-0.0859 -4.4062 L-0.0859 4.1562 ZM6.0703 4.1562 L5.8672 3.2344 L5.8203 3.2344 Q5.3516 3.8438 4.875 4.0625 Q4.3984 4.2812 3.6797 4.2812 Q2.7266 4.2812 2.1797 3.7812 Q1.6328 3.2812 1.6328 2.375 Q1.6328 0.4375 4.7422 0.3438 L5.8359 0.3125 L5.8359 -0.0938 Q5.8359 -0.8438 5.5156 -1.2031 Q5.1953 -1.5625 4.4766 -1.5625 Q3.6641 -1.5625 2.6641 -1.0781 L2.3516 -1.8281 Q2.8359 -2.0781 3.3984 -2.2266 Q3.9609 -2.375 4.5391 -2.375 Q5.6797 -2.375 6.2344 -1.8672 Q6.7891 -1.3594 6.7891 -0.2344 L6.7891 4.1562 L6.0703 4.1562 ZM3.8672 3.4688 Q4.7734 3.4688 5.2969 2.9688 Q5.8203 2.4688 5.8203 1.5781 L5.8203 1 L4.8359 1.0312 Q3.6797 1.0781 3.1719 1.3984 Q2.6641 1.7188 2.6641 2.3906 Q2.6641 2.9219 2.9766 3.1953 Q3.2891 3.4688 3.8672 3.4688 Z" /></ns0:g></ns0:g></ns0:svg></ns0:svg></ns0:svg></ns0:svg></ns0:svg></g></svg>