<svg width="237" viewBox="0 0 237 171" style="fill-opacity:1; color-rendering:auto; color-interpolation:auto; text-rendering:auto; stroke:black; stroke-linecap:square; stroke-miterlimit:10; shape-rendering:auto; stroke-opacity:1; fill:black; stroke-dasharray:none; font-weight:normal; stroke-width:1; font-family:'Open Sans'; font-style:normal; stroke-linejoin:miter; font-size:12; stroke-dashoffset:0; image-rendering:auto;" height="171" class="cas-substance-image" xmlns:xlink="http://www.w3.org/1999/xlink" xmlns="http://www.w3.org/2000/svg"><svg class="cas-substance-single-component"><rect y="0" x="0" width="237" stroke="none" ry="7" rx="7" height="171" fill="white" class="cas-substance-group"/><svg y="0" x="0" width="237" viewBox="0 0 237 171" style="fill:black;" height="171" class="cas-substance-single-component-image"><svg><g><g transform="translate(116,85)" style="text-rendering:geometricPrecision; color-rendering:optimizeQuality; color-interpolation:linearRGB; stroke-linecap:butt; image-rendering:optimizeQuality;"><line y2="-71.42" y1="-50.2129" x2="-9.2454" x1="-21.4897" style="fill:none;"/><line y2="-73.1701" y1="-51.963" x2="-12.2765" x1="-24.5207" style="fill:none;"/><line y2="-25.98" y1="-51.963" x2="-7.5" x1="-22.5" style="fill:none;"/><line y2="-51.963" y1="-51.963" x2="-52.5" x1="-22.5" style="fill:none;"/><line y2="-51.963" y1="-51.963" x2="67.5" x1="42.8516" style="fill:none;"/><line y2="-25.98" y1="-46.0747" x2="22.5" x1="34.1007" style="fill:none;"/><line y2="-77.943" y1="-51.963" x2="82.5" x1="67.5" style="fill:none;"/><line y2="-30.8329" y1="-51.963" x2="77.6777" x1="65.4793" style="fill:none;"/><line y2="-32.5828" y1="-53.713" x2="80.7089" x1="68.5104" style="fill:none;"/><line y2="-77.943" y1="-77.943" x2="104.8311" x1="82.5" style="fill:none;"/><line y2="73.0904" y1="58.7263" x2="-12.3225" x1="-20.6158" style="fill:none;"/><line y2="71.3404" y1="56.9763" x2="-9.2914" x1="-17.5848" style="fill:none;"/><line y2="50.213" y1="50.213" x2="-46.5625" x1="-27.8516" style="fill:none;"/><line y2="53.713" y1="53.713" x2="-46.5625" x1="-27.8516" style="fill:none;"/><line y2="25.98" y1="45.8247" x2="-7.5" x1="-18.9563" style="fill:none;"/><line y2="-25.98" y1="-25.98" x2="22.5" x1="-7.5" style="fill:none;"/><line y2="-22.48" y1="-22.48" x2="20.4793" x1="-5.4793" style="fill:none;"/><line y2="0" y1="-25.98" x2="-22.5" x1="-7.5" style="fill:none;"/><line y2="0" y1="-25.98" x2="37.5" x1="22.5" style="fill:none;"/><line y2="25.98" y1="0" x2="-7.5" x1="-22.5" style="fill:none;"/><line y2="22.48" y1="-0.0001" x2="-5.4793" x1="-18.4585" style="fill:none;"/><line y2="25.98" y1="0" x2="22.5" x1="37.5" style="fill:none;"/><line y2="22.48" y1="-0.0001" x2="20.4793" x1="33.4585" style="fill:none;"/><line y2="25.98" y1="25.98" x2="22.5" x1="-7.5" style="fill:none;"/><line y2="-77.943" y1="-51.963" x2="-67.5" x1="-52.5" style="fill:none;"/><line y2="-74.443" y1="-51.963" x2="-69.5207" x1="-56.5415" style="fill:none;"/><line y2="-25.98" y1="-51.963" x2="-67.5" x1="-52.5" style="fill:none;"/><line y2="-77.943" y1="-77.943" x2="-97.5" x1="-67.5" style="fill:none;"/><line y2="-25.98" y1="-25.98" x2="-97.5" x1="-67.5" style="fill:none;"/><line y2="-29.48" y1="-29.48" x2="-95.4793" x1="-69.5207" style="fill:none;"/><line y2="-51.963" y1="-77.943" x2="-112.5" x1="-97.5" style="fill:none;"/><line y2="-51.963" y1="-74.443" x2="-108.4585" x1="-95.4793" style="fill:none;"/><line y2="-51.963" y1="-25.98" x2="-112.5" x1="-97.5" style="fill:none;"/><path style="fill:none; stroke-miterlimit:5;" d="M-22.25 -51.53 L-22.5 -51.963 L-23 -51.963"/></g><g transform="translate(116,85)" style="stroke-linecap:butt; fill:rgb(230,0,0); text-rendering:geometricPrecision; color-rendering:optimizeQuality; image-rendering:optimizeQuality; font-family:'Open Sans'; stroke:rgb(230,0,0); color-interpolation:linearRGB; stroke-miterlimit:5;"><path style="stroke:none;" d="M-3.5625 -78.0133 Q-3.5625 -75.9508 -4.6016 -74.7711 Q-5.6406 -73.5914 -7.4844 -73.5914 Q-9.375 -73.5914 -10.4062 -74.7555 Q-11.4375 -75.9196 -11.4375 -78.0289 Q-11.4375 -80.1227 -10.4062 -81.2711 Q-9.375 -82.4196 -7.4844 -82.4196 Q-5.625 -82.4196 -4.5938 -81.2477 Q-3.5625 -80.0758 -3.5625 -78.0133 ZM-10.3906 -78.0133 Q-10.3906 -76.2789 -9.6484 -75.3727 Q-8.9062 -74.4664 -7.4844 -74.4664 Q-6.0625 -74.4664 -5.3359 -75.3649 Q-4.6094 -76.2633 -4.6094 -78.0133 Q-4.6094 -79.7477 -5.3359 -80.6383 Q-6.0625 -81.5289 -7.4844 -81.5289 Q-8.9062 -81.5289 -9.6484 -80.6305 Q-10.3906 -79.7321 -10.3906 -78.0133 Z"/><path style="fill:rgb(0,5,255); stroke:none;" d="M40.8516 -47.8068 L39.7109 -47.8068 L35.0234 -54.9943 L34.9766 -54.9943 Q35.0703 -53.7286 35.0703 -52.6818 L35.0703 -47.8068 L34.1484 -47.8068 L34.1484 -56.3693 L35.2734 -56.3693 L39.9453 -49.213 L39.9922 -49.213 Q39.9922 -49.3693 39.9453 -50.2286 Q39.8984 -51.088 39.9141 -51.463 L39.9141 -56.3693 L40.8516 -56.3693 L40.8516 -47.8068 Z"/><path style="fill:rgb(0,5,255); stroke:none;" d="M40.7578 -57.3693 L39.7578 -57.3693 L39.7578 -61.4005 L35.2422 -61.4005 L35.2422 -57.3693 L34.2422 -57.3693 L34.2422 -65.9317 L35.2422 -65.9317 L35.2422 -62.2911 L39.7578 -62.2911 L39.7578 -65.9317 L40.7578 -65.9317 L40.7578 -57.3693 Z"/><path style="fill:none; stroke:black;" d="M67 -51.963 L67.5 -51.963 L67.75 -52.396"/><path style="fill:none; stroke:black;" d="M82.25 -77.51 L82.5 -77.943 L83 -77.943"/><path style="stroke:none;" d="M86.4375 -26.0503 Q86.4375 -23.9878 85.3984 -22.8081 Q84.3594 -21.6284 82.5156 -21.6284 Q80.625 -21.6284 79.5938 -22.7925 Q78.5625 -23.9566 78.5625 -26.0659 Q78.5625 -28.1597 79.5938 -29.3081 Q80.625 -30.4566 82.5156 -30.4566 Q84.375 -30.4566 85.4062 -29.2847 Q86.4375 -28.1128 86.4375 -26.0503 ZM79.6094 -26.0503 Q79.6094 -24.3159 80.3516 -23.4097 Q81.0938 -22.5034 82.5156 -22.5034 Q83.9375 -22.5034 84.6641 -23.4019 Q85.3906 -24.3003 85.3906 -26.0503 Q85.3906 -27.7847 84.6641 -28.6753 Q83.9375 -29.5659 82.5156 -29.5659 Q81.0938 -29.5659 80.3516 -28.6675 Q79.6094 -27.7691 79.6094 -26.0503 Z"/><path style="fill:rgb(0,138,0); stroke:none;" d="M106.8311 -82.3493 L109.2529 -82.3493 Q110.9561 -82.3493 111.7217 -81.8414 Q112.4873 -81.3336 112.4873 -80.2399 Q112.4873 -79.4743 112.0654 -78.9743 Q111.6436 -78.4743 110.8154 -78.3336 L110.8154 -78.2711 Q112.7686 -77.943 112.7686 -76.2243 Q112.7686 -75.0836 111.9951 -74.4352 Q111.2217 -73.7868 109.8311 -73.7868 L106.8311 -73.7868 L106.8311 -82.3493 ZM107.8311 -78.693 L109.4717 -78.693 Q110.5342 -78.693 110.9951 -79.0211 Q111.4561 -79.3493 111.4561 -80.1305 Q111.4561 -80.8493 110.9404 -81.1696 Q110.4248 -81.4899 109.2998 -81.4899 L107.8311 -81.4899 L107.8311 -78.693 ZM107.8311 -77.8493 L107.8311 -74.6305 L109.6279 -74.6305 Q110.6592 -74.6305 111.1826 -75.0368 Q111.7061 -75.443 111.7061 -76.3024 Q111.7061 -77.0993 111.167 -77.4743 Q110.6279 -77.8493 109.5342 -77.8493 L107.8311 -77.8493 ZM117.4033 -80.3336 Q117.8252 -80.3336 118.1689 -80.2555 L118.0283 -79.3493 Q117.6377 -79.443 117.3252 -79.443 Q116.5439 -79.443 115.9893 -78.8102 Q115.4346 -78.1774 115.4346 -77.2399 L115.4346 -73.7868 L114.4658 -73.7868 L114.4658 -80.2086 L115.2627 -80.2086 L115.3877 -79.0211 L115.4346 -79.0211 Q115.7783 -79.6461 116.2861 -79.9899 Q116.7939 -80.3336 117.4033 -80.3336 Z"/><path style="fill:rgb(0,5,255); stroke:none;" d="M-19.1484 56.1193 L-20.2891 56.1193 L-24.9766 48.9318 L-25.0234 48.9318 Q-24.9297 50.1974 -24.9297 51.2443 L-24.9297 56.1193 L-25.8516 56.1193 L-25.8516 47.5568 L-24.7266 47.5568 L-20.0547 54.713 L-20.0078 54.713 Q-20.0078 54.5568 -20.0547 53.6974 Q-20.1016 52.838 -20.0859 52.463 L-20.0859 47.5568 L-19.1484 47.5568 L-19.1484 56.1193 Z"/><path style="stroke:none;" d="M-3.5625 77.8727 Q-3.5625 79.9352 -4.6016 81.1149 Q-5.6406 82.2946 -7.4844 82.2946 Q-9.375 82.2946 -10.4062 81.1305 Q-11.4375 79.9664 -11.4375 77.8571 Q-11.4375 75.7633 -10.4062 74.6149 Q-9.375 73.4664 -7.4844 73.4664 Q-5.625 73.4664 -4.5938 74.6383 Q-3.5625 75.8102 -3.5625 77.8727 ZM-10.3906 77.8727 Q-10.3906 79.6071 -9.6484 80.5133 Q-8.9062 81.4196 -7.4844 81.4196 Q-6.0625 81.4196 -5.3359 80.5211 Q-4.6094 79.6227 -4.6094 77.8727 Q-4.6094 76.1383 -5.3359 75.2477 Q-6.0625 74.3571 -7.4844 74.3571 Q-8.9062 74.3571 -9.6484 75.2555 Q-10.3906 76.1539 -10.3906 77.8727 Z"/><path style="stroke:none;" d="M-48.5625 51.8927 Q-48.5625 53.9552 -49.6016 55.1349 Q-50.6406 56.3146 -52.4844 56.3146 Q-54.375 56.3146 -55.4062 55.1505 Q-56.4375 53.9864 -56.4375 51.8771 Q-56.4375 49.7833 -55.4062 48.6349 Q-54.375 47.4864 -52.4844 47.4864 Q-50.625 47.4864 -49.5938 48.6583 Q-48.5625 49.8302 -48.5625 51.8927 ZM-55.3906 51.8927 Q-55.3906 53.6271 -54.6484 54.5333 Q-53.9062 55.4396 -52.4844 55.4396 Q-51.0625 55.4396 -50.3359 54.5411 Q-49.6094 53.6427 -49.6094 51.8927 Q-49.6094 50.1583 -50.3359 49.2677 Q-51.0625 48.3771 -52.4844 48.3771 Q-53.9062 48.3771 -54.6484 49.2755 Q-55.3906 50.1739 -55.3906 51.8927 Z"/><path style="fill:none; stroke:black;" d="M-7 -25.98 L-7.5 -25.98 L-7.75 -26.413"/><path style="fill:none; stroke:black;" d="M22 -25.98 L22.5 -25.98 L22.75 -26.413"/><path style="fill:none; stroke:black;" d="M-22.25 -0.433 L-22.5 0 L-22.25 0.433"/><path style="fill:none; stroke:black;" d="M37.25 -0.433 L37.5 0 L37.25 0.433"/><path style="fill:none; stroke:black;" d="M-7.75 25.547 L-7.5 25.98 L-7.75 26.413"/><path style="fill:none; stroke:black;" d="M22.75 25.547 L22.5 25.98 L22 25.98"/><path style="fill:none; stroke:black;" d="M-52.75 -52.396 L-52.5 -51.963 L-52 -51.963"/><path style="fill:none; stroke:black;" d="M-67.25 -77.51 L-67.5 -77.943 L-68 -77.943"/><path style="fill:none; stroke:black;" d="M-67.25 -26.413 L-67.5 -25.98 L-68 -25.98"/><path style="fill:none; stroke:black;" d="M-97 -77.943 L-97.5 -77.943 L-97.75 -77.51"/><path style="fill:none; stroke:black;" d="M-97 -25.98 L-97.5 -25.98 L-97.75 -26.413"/><path style="fill:none; stroke:black;" d="M-112.25 -52.396 L-112.5 -51.963 L-112.25 -51.53"/></g></g></svg></svg></svg></svg>