<svg xmlns:ns0="http://www.w3.org/2000/svg" xmlns="http://www.w3.org/2000/svg"><g transform="translate(0, 0)"><ns0:svg width="174" viewBox="0 0 174 71" style="fill-opacity:1; color-rendering:auto; color-interpolation:auto; text-rendering:auto; stroke:black; stroke-linecap:square; stroke-miterlimit:10; shape-rendering:auto; stroke-opacity:1; fill:black; stroke-dasharray:none; font-weight:normal; stroke-width:1; font-family:'Open Sans'; font-style:normal; stroke-linejoin:miter; font-size:12; stroke-dashoffset:0; image-rendering:auto;" height="71" class="cas-substance-image"><ns0:svg class="cas-substance-single-component"><ns0:rect y="0" x="0" width="174" stroke="none" ry="7" rx="7" height="71" fill="white" class="cas-substance-group" /><ns0:svg y="0" x="0" width="174" viewBox="0 0 174 71" style="fill:black;" height="71" class="cas-substance-single-component-image"><ns0:svg><ns0:g><ns0:g transform="translate(92,37)" style="text-rendering:geometricPrecision; color-rendering:optimizeQuality; color-interpolation:linearRGB; stroke-linecap:butt; image-rendering:optimizeQuality;"><ns0:line y2="-18.226" y1="-30" x2="-72.3555" x1="-51.963" style="fill:none;" /><ns0:line y2="-15" y1="-30" x2="-25.98" x1="-51.963" style="fill:none;" /><ns0:line y2="-15" y1="-26.8214" x2="77.943" x1="57.4684" style="fill:none;" /><ns0:line y2="-15" y1="-26.8114" x2="25.98" x1="46.4398" style="fill:none;" /><ns0:line y2="-15" y1="-30" x2="-25.98" x1="0" style="fill:none;" /><ns0:line y2="-12.9793" y1="-25.9585" x2="-22.48" x1="0.0001" style="fill:none;" /><ns0:line y2="-15" y1="-30" x2="25.98" x1="0" style="fill:none;" /><ns0:line y2="15" y1="-15" x2="-25.98" x1="-25.98" style="fill:none;" /><ns0:line y2="15" y1="-15" x2="25.98" x1="25.98" style="fill:none;" /><ns0:line y2="12.9793" y1="-12.9793" x2="22.48" x1="22.48" style="fill:none;" /><ns0:line y2="30" y1="15" x2="0" x1="-25.98" style="fill:none;" /><ns0:line y2="25.9585" y1="12.9793" x2="0.0001" x1="-22.48" style="fill:none;" /><ns0:line y2="30" y1="15" x2="0" x1="25.98" style="fill:none;" /><ns0:path style="fill:none; stroke-miterlimit:5;" d="M-52.396 -29.75 L-51.963 -30 L-51.53 -29.75" /></ns0:g><ns0:g transform="translate(92,37)" style="stroke-linecap:butt; fill:rgb(230,0,0); text-rendering:geometricPrecision; color-rendering:optimizeQuality; image-rendering:optimizeQuality; font-family:'Open Sans'; stroke:rgb(230,0,0); color-interpolation:linearRGB; stroke-miterlimit:5;"><ns0:path style="stroke:none;" d="M-74.0055 -15.0703 Q-74.0055 -13.0078 -75.0446 -11.8281 Q-76.0836 -10.6484 -77.9274 -10.6484 Q-79.818 -10.6484 -80.8493 -11.8125 Q-81.8805 -12.9766 -81.8805 -15.0859 Q-81.8805 -17.1797 -80.8493 -18.3281 Q-79.818 -19.4766 -77.9274 -19.4766 Q-76.068 -19.4766 -75.0368 -18.3047 Q-74.0055 -17.1328 -74.0055 -15.0703 ZM-80.8336 -15.0703 Q-80.8336 -13.3359 -80.0914 -12.4297 Q-79.3493 -11.5234 -77.9274 -11.5234 Q-76.5055 -11.5234 -75.7789 -12.4219 Q-75.0524 -13.3203 -75.0524 -15.0703 Q-75.0524 -16.8047 -75.7789 -17.6953 Q-76.5055 -18.5859 -77.9274 -18.5859 Q-79.3493 -18.5859 -80.0914 -17.6875 Q-80.8336 -16.7891 -80.8336 -15.0703 Z" /><ns0:path style="stroke:none;" d="M-82.8805 -10.7734 L-83.8805 -10.7734 L-83.8805 -14.8047 L-88.3961 -14.8047 L-88.3961 -10.7734 L-89.3961 -10.7734 L-89.3961 -19.3359 L-88.3961 -19.3359 L-88.3961 -15.6953 L-83.8805 -15.6953 L-83.8805 -19.3359 L-82.8805 -19.3359 L-82.8805 -10.7734 Z" /><ns0:path style="stroke:none;" d="M55.9005 -30.0703 Q55.9005 -28.0078 54.8614 -26.8281 Q53.8224 -25.6484 51.9786 -25.6484 Q50.088 -25.6484 49.0568 -26.8125 Q48.0255 -27.9766 48.0255 -30.0859 Q48.0255 -32.1797 49.0568 -33.3281 Q50.088 -34.4766 51.9786 -34.4766 Q53.838 -34.4766 54.8693 -33.3047 Q55.9005 -32.1328 55.9005 -30.0703 ZM49.0724 -30.0703 Q49.0724 -28.3359 49.8146 -27.4297 Q50.5568 -26.5234 51.9786 -26.5234 Q53.4005 -26.5234 54.1271 -27.4219 Q54.8536 -28.3203 54.8536 -30.0703 Q54.8536 -31.8047 54.1271 -32.6953 Q53.4005 -33.5859 51.9786 -33.5859 Q50.5568 -33.5859 49.8146 -32.6875 Q49.0724 -31.7891 49.0724 -30.0703 Z" /><ns0:path style="fill:none; stroke:black;" d="M-0.433 -29.75 L0 -30 L0.433 -29.75" /><ns0:path style="fill:none; stroke:black;" d="M-25.547 -15.25 L-25.98 -15 L-25.98 -14.5" /><ns0:path style="fill:none; stroke:black;" d="M25.98 -14.5 L25.98 -15 L26.413 -15.25" /><ns0:path style="fill:none; stroke:black;" d="M-25.98 14.5 L-25.98 15 L-25.547 15.25" /><ns0:path style="fill:none; stroke:black;" d="M25.98 14.5 L25.98 15 L25.547 15.25" /><ns0:path style="fill:none; stroke:black;" d="M-0.433 29.75 L0 30 L0.433 29.75" /></ns0:g></ns0:g></ns0:svg></ns0:svg></ns0:svg></ns0:svg></g></svg>