<svg xmlns:ns0="http://www.w3.org/2000/svg" xmlns="http://www.w3.org/2000/svg"><g transform="translate(0, 0)"><ns0:svg width="385" viewBox="0 0 385 133" style="fill-opacity:1; color-rendering:auto; color-interpolation:auto; text-rendering:auto; stroke:black; stroke-linecap:square; stroke-miterlimit:10; shape-rendering:auto; stroke-opacity:1; fill:black; stroke-dasharray:none; font-weight:normal; stroke-width:1; font-family:'Open Sans'; font-style:normal; stroke-linejoin:miter; font-size:12; stroke-dashoffset:0; image-rendering:auto;" height="133" class="cas-substance-image"><ns0:svg class="cas-substance-single-component"><ns0:rect y="0" x="0" width="385" stroke="none" ry="7" rx="7" height="133" fill="white" class="cas-substance-group" /><ns0:svg y="0" x="0" width="385" viewBox="0 0 385 133" style="fill:black;" height="133" class="cas-substance-single-component-image"><ns0:svg><ns0:g><ns0:g transform="translate(193,69)" style="text-rendering:geometricPrecision; color-rendering:optimizeQuality; color-interpolation:linearRGB; stroke-linecap:butt; image-rendering:optimizeQuality;"><ns0:line y2="-1.026" y1="-13.4698" x2="-44.694" x1="-66.2466" style="fill:none;" /><ns0:line y2="-1.026" y1="-13.4843" x2="-96.654" x1="-75.0762" style="fill:none;" /><ns0:line y2="-16.026" y1="-1.026" x2="-18.711" x1="-44.694" style="fill:none;" /><ns0:line y2="-1.026" y1="28.974" x2="7.269" x1="7.269" style="fill:none;" /><ns0:line y2="-47.4452" y1="-56.3321" x2="-24.6696" x1="-40.0634" style="fill:none;" /><ns0:line y2="-50.4764" y1="-59.3632" x2="-22.9197" x1="-38.3135" style="fill:none;" /><ns0:line y2="-16.026" y1="-4.252" x2="85.212" x1="64.8195" style="fill:none;" /><ns0:line y2="-16.026" y1="-4.2672" x2="33.249" x1="53.6177" style="fill:none;" /><ns0:line y2="-1.026" y1="-16.026" x2="111.192" x1="85.212" style="fill:none;" /><ns0:line y2="-16.026" y1="-1.026" x2="137.172" x1="111.192" style="fill:none;" /><ns0:line y2="-4.2672" y1="-16.026" x2="157.5407" x1="137.172" style="fill:none;" /><ns0:line y2="-16.026" y1="-4.252" x2="189.135" x1="168.7425" style="fill:none;" /><ns0:line y2="9.066" y1="35.046" x2="-144.135" x1="-129.135" style="fill:none;" /><ns0:line y2="29.9371" y1="35.046" x2="-105.0969" x1="-129.135" style="fill:none;" /><ns0:line y2="61.026" y1="35.046" x2="-144.135" x1="-129.135" style="fill:none;" /><ns0:line y2="57.526" y1="35.046" x2="-146.1557" x1="-133.1765" style="fill:none;" /><ns0:line y2="-8.0216" y1="9.066" x2="-128.7489" x1="-144.135" style="fill:none;" /><ns0:line y2="9.066" y1="9.066" x2="-174.135" x1="-144.135" style="fill:none;" /><ns0:line y2="12.566" y1="12.566" x2="-172.1143" x1="-146.1557" style="fill:none;" /><ns0:line y2="-1.026" y1="22.4137" x2="-96.654" x1="-99.117" style="fill:none;" /><ns0:line y2="61.026" y1="61.026" x2="-174.135" x1="-144.135" style="fill:none;" /><ns0:line y2="-1.026" y1="-10.9239" x2="-96.654" x1="-118.8804" style="fill:none;" /><ns0:line y2="1.3493" y1="-7.7266" x2="-99.9238" x1="-120.3042" style="fill:none;" /><ns0:line y2="35.046" y1="9.066" x2="-189.135" x1="-174.135" style="fill:none;" /><ns0:line y2="35.046" y1="61.026" x2="-189.135" x1="-174.135" style="fill:none;" /><ns0:line y2="35.046" y1="57.526" x2="-185.0936" x1="-172.1143" style="fill:none;" /><ns0:line y2="-1.026" y1="-16.026" x2="7.269" x1="-18.711" style="fill:none;" /><ns0:line y2="-5.0675" y1="-18.0467" x2="7.2691" x1="-15.211" style="fill:none;" /><ns0:line y2="-39.8697" y1="-16.026" x2="-18.711" x1="-18.711" style="fill:none;" /><ns0:line y2="-16.026" y1="-1.026" x2="33.249" x1="7.269" style="fill:none;" /><ns0:line y2="-61.026" y1="-48.9611" x2="7.269" x1="-13.6274" style="fill:none;" /><ns0:line y2="-56.9845" y1="-45.93" x2="7.2691" x1="-11.8774" style="fill:none;" /><ns0:line y2="-46.026" y1="-16.026" x2="33.249" x1="33.249" style="fill:none;" /><ns0:line y2="-44.0053" y1="-18.0467" x2="29.749" x1="29.749" style="fill:none;" /><ns0:line y2="-46.026" y1="-61.026" x2="33.249" x1="7.269" style="fill:none;" /></ns0:g><ns0:g transform="translate(193,69)" style="fill:rgb(148,108,0); text-rendering:geometricPrecision; color-rendering:optimizeQuality; image-rendering:optimizeQuality; font-family:'Open Sans'; stroke:rgb(148,108,0); color-interpolation:linearRGB;"><ns0:path style="stroke:none;" d="M-67.9787 -14.0885 Q-67.9787 -12.9635 -68.799 -12.3229 Q-69.6193 -11.6823 -71.0256 -11.6823 Q-72.5568 -11.6823 -73.3693 -12.0885 L-73.3693 -13.0416 Q-72.8381 -12.8229 -72.2209 -12.6901 Q-71.6037 -12.5573 -70.9943 -12.5573 Q-69.9943 -12.5573 -69.4943 -12.9401 Q-68.9943 -13.3229 -68.9943 -13.9948 Q-68.9943 -14.4323 -69.174 -14.7213 Q-69.3537 -15.0104 -69.7677 -15.2526 Q-70.1818 -15.4948 -71.0412 -15.7916 Q-72.2287 -16.2135 -72.7443 -16.7994 Q-73.2599 -17.3854 -73.2599 -18.3385 Q-73.2599 -19.3229 -72.5177 -19.9088 Q-71.7756 -20.4948 -70.5412 -20.4948 Q-69.2756 -20.4948 -68.1974 -20.026 L-68.5099 -19.1666 Q-69.5724 -19.6041 -70.5724 -19.6041 Q-71.3693 -19.6041 -71.8146 -19.2682 Q-72.2599 -18.9323 -72.2599 -18.3229 Q-72.2599 -17.8854 -72.0959 -17.5963 Q-71.9318 -17.3073 -71.5412 -17.0729 Q-71.1506 -16.8385 -70.3381 -16.5416 Q-68.9943 -16.0729 -68.4865 -15.5182 Q-67.9787 -14.9635 -67.9787 -14.0885 Z" /></ns0:g><ns0:g transform="translate(193,69)" style="stroke-linecap:butt; text-rendering:geometricPrecision; color-rendering:optimizeQuality; image-rendering:optimizeQuality; font-family:'Open Sans'; color-interpolation:linearRGB; stroke-miterlimit:5;"><ns0:path style="fill:none;" d="M-45.127 -1.276 L-44.694 -1.026 L-44.261 -1.276" /><ns0:path style="fill:rgb(230,0,0); stroke:none;" d="M-40.7565 -61.0963 Q-40.7565 -59.0338 -41.7956 -57.8541 Q-42.8346 -56.6744 -44.6784 -56.6744 Q-46.569 -56.6744 -47.6003 -57.8385 Q-48.6315 -59.0026 -48.6315 -61.1119 Q-48.6315 -63.2057 -47.6003 -64.3541 Q-46.569 -65.5026 -44.6784 -65.5026 Q-42.819 -65.5026 -41.7878 -64.3307 Q-40.7565 -63.1588 -40.7565 -61.0963 ZM-47.5846 -61.0963 Q-47.5846 -59.3619 -46.8424 -58.4557 Q-46.1003 -57.5494 -44.6784 -57.5494 Q-43.2565 -57.5494 -42.5299 -58.4479 Q-41.8034 -59.3463 -41.8034 -61.0963 Q-41.8034 -62.8307 -42.5299 -63.7213 Q-43.2565 -64.6119 -44.6784 -64.6119 Q-46.1003 -64.6119 -46.8424 -63.7135 Q-47.5846 -62.8151 -47.5846 -61.0963 Z" /><ns0:path style="fill:rgb(230,0,0); stroke:none;" d="M63.1695 -1.0963 Q63.1695 0.9662 62.1304 2.1459 Q61.0914 3.3256 59.2476 3.3256 Q57.357 3.3256 56.3258 2.1615 Q55.2945 0.9974 55.2945 -1.1119 Q55.2945 -3.2057 56.3258 -4.3541 Q57.357 -5.5026 59.2476 -5.5026 Q61.107 -5.5026 62.1383 -4.3307 Q63.1695 -3.1588 63.1695 -1.0963 ZM56.3414 -1.0963 Q56.3414 0.6381 57.0836 1.5443 Q57.8258 2.4506 59.2476 2.4506 Q60.6695 2.4506 61.3961 1.5521 Q62.1226 0.6537 62.1226 -1.0963 Q62.1226 -2.8307 61.3961 -3.7213 Q60.6695 -4.6119 59.2476 -4.6119 Q57.8258 -4.6119 57.0836 -3.7135 Q56.3414 -2.8151 56.3414 -1.0963 Z" /><ns0:path style="fill:none;" d="M84.779 -15.776 L85.212 -16.026 L85.645 -15.776" /><ns0:path style="fill:none;" d="M110.759 -1.276 L111.192 -1.026 L111.625 -1.276" /><ns0:path style="fill:none;" d="M136.739 -15.776 L137.172 -16.026 L137.605 -15.776" /><ns0:path style="fill:rgb(230,0,0); stroke:none;" d="M167.0925 -1.0963 Q167.0925 0.9662 166.0534 2.1459 Q165.0144 3.3256 163.1706 3.3256 Q161.28 3.3256 160.2487 2.1615 Q159.2175 0.9974 159.2175 -1.1119 Q159.2175 -3.2057 160.2487 -4.3541 Q161.28 -5.5026 163.1706 -5.5026 Q165.03 -5.5026 166.0612 -4.3307 Q167.0925 -3.1588 167.0925 -1.0963 ZM160.2644 -1.0963 Q160.2644 0.6381 161.0066 1.5443 Q161.7487 2.4506 163.1706 2.4506 Q164.5925 2.4506 165.3191 1.5521 Q166.0456 0.6537 166.0456 -1.0963 Q166.0456 -2.8307 165.3191 -3.7213 Q164.5925 -4.6119 163.1706 -4.6119 Q161.7487 -4.6119 161.0066 -3.7135 Q160.2644 -2.8151 160.2644 -1.0963 Z" /><ns0:path style="fill:none;" d="M-129.385 35.479 L-129.135 35.046 L-129.385 34.613" /><ns0:path style="fill:none;" d="M-144.635 9.066 L-144.135 9.066 L-143.885 9.499" /><ns0:path style="fill:rgb(0,5,255); stroke:none;" d="M-96.4374 32.9652 L-97.5781 32.9652 L-102.2656 25.7777 L-102.3124 25.7777 Q-102.2187 27.0434 -102.2187 28.0902 L-102.2187 32.9652 L-103.1406 32.9652 L-103.1406 24.4027 L-102.0156 24.4027 L-97.3437 31.559 L-97.2968 31.559 Q-97.2968 31.4027 -97.3437 30.5434 Q-97.3906 29.684 -97.3749 29.309 L-97.3749 24.4027 L-96.4374 24.4027 L-96.4374 32.9652 Z" /><ns0:path style="fill:rgb(0,5,255); stroke:none;" d="M-88.9218 32.9652 L-89.9218 32.9652 L-89.9218 28.934 L-94.4374 28.934 L-94.4374 32.9652 L-95.4374 32.9652 L-95.4374 24.4027 L-94.4374 24.4027 L-94.4374 28.0434 L-89.9218 28.0434 L-89.9218 24.4027 L-88.9218 24.4027 L-88.9218 32.9652 Z" /><ns0:path style="fill:none;" d="M-143.885 60.593 L-144.135 61.026 L-144.635 61.026" /><ns0:path style="fill:rgb(0,5,255); stroke:none;" d="M-120.7074 -9.0738 L-121.8481 -9.0738 L-126.5356 -16.2612 L-126.5824 -16.2612 Q-126.4887 -14.9956 -126.4887 -13.9488 L-126.4887 -9.0738 L-127.4106 -9.0738 L-127.4106 -17.6362 L-126.2856 -17.6362 L-121.6137 -10.48 L-121.5668 -10.48 Q-121.5668 -10.6363 -121.6137 -11.4956 Q-121.6606 -12.355 -121.6449 -12.73 L-121.6449 -17.6362 L-120.7074 -17.6362 L-120.7074 -9.0738 Z" /><ns0:path style="fill:none;" d="M-173.635 9.066 L-174.135 9.066 L-174.385 9.499" /><ns0:path style="fill:none;" d="M-97.1108 -1.2294 L-96.654 -1.026 L-96.7063 -0.5287" /><ns0:path style="fill:none;" d="M-173.635 61.026 L-174.135 61.026 L-174.385 60.593" /><ns0:path style="fill:none;" d="M-188.885 34.613 L-189.135 35.046 L-188.885 35.479" /><ns0:path style="fill:none;" d="M-18.278 -15.776 L-18.711 -16.026 L-18.711 -16.526" /><ns0:path style="fill:none;" d="M6.836 -1.276 L7.269 -1.026 L7.702 -1.276" /><ns0:path style="fill:rgb(0,5,255); stroke:none;" d="M-15.3594 -41.8697 L-16.5001 -41.8697 L-21.1876 -49.0572 L-21.2344 -49.0572 Q-21.1407 -47.7916 -21.1407 -46.7447 L-21.1407 -41.8697 L-22.0626 -41.8697 L-22.0626 -50.4322 L-20.9376 -50.4322 L-16.2657 -43.276 L-16.2188 -43.276 Q-16.2188 -43.4322 -16.2657 -44.2916 Q-16.3126 -45.151 -16.2969 -45.526 L-16.2969 -50.4322 L-15.3594 -50.4322 L-15.3594 -41.8697 Z" /><ns0:path style="fill:none;" d="M33.249 -16.526 L33.249 -16.026 L33.682 -15.776" /><ns0:path style="fill:none;" d="M6.836 -60.776 L7.269 -61.026 L7.702 -60.776" /><ns0:path style="fill:none;" d="M33.249 -45.526 L33.249 -46.026 L32.816 -46.276" /></ns0:g></ns0:g></ns0:svg></ns0:svg></ns0:svg></ns0:svg></g></svg>