<svg xmlns:ns0="http://www.w3.org/2000/svg" xmlns="http://www.w3.org/2000/svg"><g transform="translate(0, 0)"><ns0:svg width="125" viewBox="0 0 125 65" style="fill-opacity:1; color-rendering:auto; color-interpolation:auto; text-rendering:auto; stroke:black; stroke-linecap:square; stroke-miterlimit:10; shape-rendering:auto; stroke-opacity:1; fill:black; stroke-dasharray:none; font-weight:normal; stroke-width:1; font-family:'Open Sans'; font-style:normal; stroke-linejoin:miter; font-size:12; stroke-dashoffset:0; image-rendering:auto;" height="65" class="cas-substance-image"><ns0:svg class="cas-substance-single-component"><ns0:rect y="0" x="0" width="125" stroke="none" ry="7" rx="7" height="65" fill="white" class="cas-substance-group" /><ns0:svg y="0" x="0" width="125" viewBox="0 0 125 65" style="fill:black;" height="65" class="cas-substance-single-component-image"><ns0:svg><ns0:g><ns0:clipPath id="clipPath_04eb305cffcd46eca8ba21abea725e721" clipPathUnits="userSpaceOnUse"><ns0:path d="M-14.0036 -45.2826 L-42.9321 -17.6575 L-32.8495 -7.0992 L2.465 -25.1877 L5.2003 -19.8475 L-28.5265 -2.5722 L-28.5265 -2.5722 L-17.7874 8.6736 L11.1411 -18.9515 L-14.0036 -45.2826 Z" /></ns0:clipPath><ns0:g transform="translate(57,32)" style="text-rendering:geometricPrecision; color-rendering:optimizeQuality; color-interpolation:linearRGB; stroke-linecap:butt; image-rendering:optimizeQuality;"><ns0:line y2="-19.779" y1="-23.812" x2="23.796" x1="47.4609" style="fill:none;" /><ns0:line y2="-19.779" y1="-7.851" x2="23.796" x1="-5.913" style="fill:none;" /><ns0:line y2="-28.758" y1="-7.851" x2="-25.878" x1="-5.913" style="fill:none; clip-path:url(#clipPath_04eb305cffcd46eca8ba21abea725e721);" /><ns0:line y2="23.382" y1="-7.851" x2="-8.196" x1="-5.913" style="fill:none;" /><ns0:line y2="-20.808" y1="-19.779" x2="0.495" x1="23.796" style="fill:none;" /><ns0:line y2="-24.819" y1="-28.758" x2="-53.37" x1="-25.878" style="fill:none;" /><ns0:line y2="28.758" y1="23.382" x2="-34.893" x1="-8.196" style="fill:none;" /><ns0:line y2="-6.3845" y1="-20.808" x2="-27.6644" x1="0.495" style="fill:none;" /><ns0:line y2="-8.6179" y1="-24.819" x2="-37.5451" x1="-53.37" style="fill:none;" /><ns0:line y2="2.3961" y1="28.758" x2="-33.1928" x1="-34.893" style="fill:none;" /></ns0:g><ns0:g transform="translate(57,32)" style="fill:rgb(230,0,0); text-rendering:geometricPrecision; color-rendering:optimizeQuality; image-rendering:optimizeQuality; font-family:'Open Sans'; stroke:rgb(230,0,0); color-interpolation:linearRGB;"><ns0:path style="stroke:none;" d="M57.3075 -24.8893 Q57.3075 -22.8268 56.2684 -21.6471 Q55.2294 -20.4674 53.3856 -20.4674 Q51.495 -20.4674 50.4638 -21.6315 Q49.4325 -22.7956 49.4325 -24.9049 Q49.4325 -26.9987 50.4638 -28.1471 Q51.495 -29.2956 53.3856 -29.2956 Q55.245 -29.2956 56.2763 -28.1237 Q57.3075 -26.9518 57.3075 -24.8893 ZM50.4794 -24.8893 Q50.4794 -23.1549 51.2216 -22.2487 Q51.9638 -21.3424 53.3856 -21.3424 Q54.8075 -21.3424 55.5341 -22.2409 Q56.2606 -23.1393 56.2606 -24.8893 Q56.2606 -26.6237 55.5341 -27.5143 Q54.8075 -28.4049 53.3856 -28.4049 Q51.9638 -28.4049 51.2216 -27.5065 Q50.4794 -26.6081 50.4794 -24.8893 Z" /><ns0:path style="stroke:none;" d="M64.8231 -20.5924 L63.8231 -20.5924 L63.8231 -24.6237 L59.3075 -24.6237 L59.3075 -20.5924 L58.3075 -20.5924 L58.3075 -29.1549 L59.3075 -29.1549 L59.3075 -25.5143 L63.8231 -25.5143 L63.8231 -29.1549 L64.8231 -29.1549 L64.8231 -20.5924 Z" /></ns0:g><ns0:g transform="translate(57,32)" style="stroke-linecap:butt; text-rendering:geometricPrecision; color-rendering:optimizeQuality; image-rendering:optimizeQuality; font-family:'Open Sans'; color-interpolation:linearRGB; stroke-miterlimit:5;"><ns0:path style="fill:none;" d="M-25.5327 -28.3964 L-25.878 -28.758 L-26.3729 -28.6871" /><ns0:path style="fill:none;" d="M-8.1595 22.8833 L-8.196 23.382 L-8.6862 23.4807" /><ns0:path style="fill:none;" d="M0.9945 -20.7859 L0.495 -20.808 L0.05 -20.5801" /><ns0:path style="fill:none;" d="M-52.8751 -24.8899 L-53.37 -24.819 L-53.0206 -24.4613" /><ns0:path style="fill:none;" d="M-34.4028 28.6593 L-34.893 28.758 L-34.8608 28.259" /><ns0:path style="fill:rgb(0,5,255); stroke:none;" d="M-29.4444 0.4002 L-30.5851 0.4002 L-35.2726 -6.7873 L-35.3194 -6.7873 Q-35.2257 -5.5216 -35.2257 -4.4748 L-35.2257 0.4002 L-36.1476 0.4002 L-36.1476 -8.1623 L-35.0226 -8.1623 L-30.3507 -1.006 L-30.3038 -1.006 Q-30.3038 -1.1623 -30.3507 -2.0216 Q-30.3976 -2.881 -30.3819 -3.256 L-30.3819 -8.1623 L-29.4444 -8.1623 L-29.4444 0.4002 Z" /></ns0:g></ns0:g></ns0:svg></ns0:svg></ns0:svg></ns0:svg></g></svg>