<svg width="191" viewBox="0 0 191 103" style="fill-opacity:1; color-rendering:auto; color-interpolation:auto; text-rendering:auto; stroke:black; stroke-linecap:square; stroke-miterlimit:10; shape-rendering:auto; stroke-opacity:1; fill:black; stroke-dasharray:none; font-weight:normal; stroke-width:1; font-family:'Open Sans'; font-style:normal; stroke-linejoin:miter; font-size:12; stroke-dashoffset:0; image-rendering:auto;" height="103" class="cas-substance-image" xmlns:xlink="http://www.w3.org/1999/xlink" xmlns="http://www.w3.org/2000/svg"><svg class="cas-substance-single-component"><rect y="0" x="0" width="191" stroke="none" ry="7" rx="7" height="103" fill="white" class="cas-substance-group"/><svg y="0" x="0" width="191" viewBox="0 0 191 103" style="fill:black;" height="103" class="cas-substance-single-component-image"><svg><g><g transform="translate(94,51)" style="text-rendering:geometricPrecision; color-rendering:optimizeQuality; color-interpolation:linearRGB; stroke-linecap:butt; image-rendering:optimizeQuality;"><line y2="11.52" y1="-0.195" x2="-12.99" x1="-33.2805" style="fill:none;"/><line y2="-18.48" y1="-6.7515" x2="-64.953" x1="-44.6368" style="fill:none;"/><line y2="22.5" y1="2.6583" x2="-53.97" x1="-42.514" style="fill:none;"/><line y2="-23.3579" y1="-9.7299" x2="-27.4945" x1="-35.3619" style="fill:none;"/><line y2="-3.48" y1="11.52" x2="12.99" x1="-12.99" style="fill:none;"/><line y2="-3.48" y1="-18.48" x2="-90.933" x1="-64.953" style="fill:none;"/><line y2="-48.48" y1="-18.48" x2="-64.953" x1="-64.953" style="fill:none;"/><line y2="48.48" y1="22.5" x2="-38.97" x1="-53.97" style="fill:none;"/><line y2="22.5" y1="22.5" x2="-83.97" x1="-53.97" style="fill:none;"/><line y2="11.52" y1="-3.48" x2="38.97" x1="12.99" style="fill:none;"/><line y2="-3.48" y1="11.52" x2="64.953" x1="38.97" style="fill:none;"/><line y2="-15.5449" y1="-3.48" x2="85.8494" x1="64.953" style="fill:none;"/><line y2="-18.576" y1="-6.5111" x2="84.0994" x1="63.203" style="fill:none;"/><line y2="-12.5138" y1="-0.4489" x2="87.5994" x1="66.703" style="fill:none;"/><path style="stroke-linecap:square; stroke:none;" d="M-37.6067 -1.48 Q-37.6067 -0.355 -38.427 0.2856 Q-39.2473 0.9262 -40.6536 0.9262 Q-42.1848 0.9262 -42.9973 0.52 L-42.9973 -0.4331 Q-42.4661 -0.2144 -41.8489 -0.0816 Q-41.2317 0.0512 -40.6223 0.0512 Q-39.6223 0.0512 -39.1223 -0.3316 Q-38.6223 -0.7144 -38.6223 -1.3863 Q-38.6223 -1.8238 -38.802 -2.1128 Q-38.9817 -2.4019 -39.3958 -2.6441 Q-39.8098 -2.8863 -40.6692 -3.1831 Q-41.8567 -3.605 -42.3723 -4.1909 Q-42.888 -4.7769 -42.888 -5.73 Q-42.888 -6.7144 -42.1458 -7.3003 Q-41.4036 -7.8863 -40.1692 -7.8863 Q-38.9036 -7.8863 -37.8255 -7.4175 L-38.138 -6.5581 Q-39.2005 -6.9956 -40.2005 -6.9956 Q-40.9973 -6.9956 -41.4427 -6.6597 Q-41.888 -6.3238 -41.888 -5.7144 Q-41.888 -5.2769 -41.7239 -4.9878 Q-41.5598 -4.6988 -41.1692 -4.4644 Q-40.7786 -4.23 -39.9661 -3.9331 Q-38.6223 -3.4644 -38.1145 -2.9097 Q-37.6067 -2.355 -37.6067 -1.48 ZM-35.0364 0.8012 L-36.0052 0.8012 L-36.0052 -5.6206 L-35.0364 -5.6206 L-35.0364 0.8012 ZM-36.0833 -7.355 Q-36.0833 -7.6988 -35.9192 -7.855 Q-35.7552 -8.0112 -35.5052 -8.0112 Q-35.2708 -8.0112 -35.1067 -7.8472 Q-34.9427 -7.6831 -34.9427 -7.355 Q-34.9427 -7.0269 -35.1067 -6.8706 Q-35.2708 -6.7144 -35.5052 -6.7144 Q-35.7552 -6.7144 -35.9192 -6.8706 Q-36.0833 -7.0269 -36.0833 -7.355 Z"/><path style="fill:none; stroke-miterlimit:5;" d="M-13.423 11.27 L-12.99 11.52 L-12.557 11.27"/></g><g transform="translate(94,51)" style="stroke-linecap:butt; fill:rgb(0,138,0); text-rendering:geometricPrecision; color-rendering:optimizeQuality; image-rendering:optimizeQuality; font-family:'Open Sans'; stroke:rgb(0,138,0); color-interpolation:linearRGB; stroke-miterlimit:5;"><path style="stroke:none;" d="M-24.2786 -32.8224 Q-25.6848 -32.8224 -26.5052 -31.8849 Q-27.3255 -30.9474 -27.3255 -29.3068 Q-27.3255 -27.6349 -26.5364 -26.713 Q-25.7473 -25.7911 -24.2942 -25.7911 Q-23.388 -25.7911 -22.2473 -26.1193 L-22.2473 -25.2443 Q-23.138 -24.9005 -24.4348 -24.9005 Q-26.3255 -24.9005 -27.3567 -26.0568 Q-28.388 -27.213 -28.388 -29.3224 Q-28.388 -30.6505 -27.8958 -31.6427 Q-27.4036 -32.6349 -26.4661 -33.1739 Q-25.5286 -33.713 -24.263 -33.713 Q-22.9192 -33.713 -21.9036 -33.2286 L-22.3255 -32.3693 Q-23.3098 -32.8224 -24.2786 -32.8224 ZM-19.552 -25.0255 L-20.5208 -25.0255 L-20.5208 -34.1505 L-19.552 -34.1505 L-19.552 -25.0255 Z"/><path style="fill:none; stroke:black;" d="M12.557 -3.23 L12.99 -3.48 L13.423 -3.23"/><path style="fill:none; stroke:black;" d="M38.537 11.27 L38.97 11.52 L39.403 11.27"/><path style="fill:none; stroke:black;" d="M64.52 -3.23 L64.953 -3.48 L65.386 -3.73"/><path style="fill:rgb(0,5,255); stroke:none;" d="M94.2846 -14.3237 L93.1439 -14.3237 L88.4564 -21.5112 L88.4096 -21.5112 Q88.5033 -20.2456 88.5033 -19.1987 L88.5033 -14.3237 L87.5814 -14.3237 L87.5814 -22.8862 L88.7064 -22.8862 L93.3783 -15.73 L93.4252 -15.73 Q93.4252 -15.8862 93.3783 -16.7456 Q93.3314 -17.605 93.3471 -17.98 L93.3471 -22.8862 L94.2846 -22.8862 L94.2846 -14.3237 Z"/></g></g></svg></svg></svg></svg>