<svg width="180" viewBox="0 0 180 63" style="fill-opacity:1; color-rendering:auto; color-interpolation:auto; text-rendering:auto; stroke:black; stroke-linecap:square; stroke-miterlimit:10; shape-rendering:auto; stroke-opacity:1; fill:black; stroke-dasharray:none; font-weight:normal; stroke-width:1; font-family:'Open Sans'; font-style:normal; stroke-linejoin:miter; font-size:12; stroke-dashoffset:0; image-rendering:auto;" height="63" class="cas-substance-image" xmlns:xlink="http://www.w3.org/1999/xlink" xmlns="http://www.w3.org/2000/svg"><svg class="cas-substance-single-component"><rect y="0" x="0" width="180" stroke="none" ry="7" rx="7" height="63" fill="white" class="cas-substance-group"/><svg y="0" x="0" width="180" viewBox="0 0 180 63" style="fill:black;" height="63" class="cas-substance-single-component-image"><svg><g><g transform="translate(91,33)" style="text-rendering:geometricPrecision; color-rendering:optimizeQuality; color-interpolation:linearRGB; stroke-linecap:butt; image-rendering:optimizeQuality;"><line y2="-20.0917" y1="0" x2="-79.1003" x1="-67.5" style="fill:none;"/><line y2="0" y1="0" x2="-37.5" x1="-67.5" style="fill:none;"/><line y2="0" y1="0" x2="77.1484" x1="52.5" style="fill:none;"/><line y2="-3.5" y1="-3.5" x2="77.1484" x1="52.5" style="fill:none;"/><line y2="3.5" y1="3.5" x2="77.1484" x1="52.5" style="fill:none;"/><line y2="0" y1="0" x2="22.5" x1="52.5" style="fill:none;"/><line y2="25.98" y1="0" x2="-22.5" x1="-37.5" style="fill:none;"/><line y2="22.48" y1="-0.0001" x2="-20.4793" x1="-33.4585" style="fill:none;"/><line y2="-25.98" y1="0" x2="-22.5" x1="-37.5" style="fill:none;"/><line y2="25.98" y1="25.98" x2="7.5" x1="-22.5" style="fill:none;"/><line y2="-25.98" y1="-25.98" x2="7.5" x1="-22.5" style="fill:none;"/><line y2="-22.48" y1="-22.48" x2="5.4793" x1="-20.4793" style="fill:none;"/><line y2="0" y1="25.98" x2="22.5" x1="7.5" style="fill:none;"/><line y2="-0.0001" y1="22.48" x2="18.4585" x1="5.4793" style="fill:none;"/><line y2="0" y1="-25.98" x2="22.5" x1="7.5" style="fill:none;"/><path style="fill:none; stroke-miterlimit:5;" d="M-67.75 -0.433 L-67.5 0 L-67 0"/></g><g transform="translate(91,33)" style="stroke-linecap:butt; fill:rgb(0,138,0); text-rendering:geometricPrecision; color-rendering:optimizeQuality; image-rendering:optimizeQuality; font-family:'Open Sans'; stroke:rgb(0,138,0); color-interpolation:linearRGB; stroke-miterlimit:5;"><path style="stroke:none;" d="M-88.1689 -30.3862 L-85.7471 -30.3862 Q-84.0439 -30.3862 -83.2783 -29.8784 Q-82.5127 -29.3706 -82.5127 -28.2769 Q-82.5127 -27.5112 -82.9346 -27.0112 Q-83.3564 -26.5112 -84.1846 -26.3706 L-84.1846 -26.3081 Q-82.2314 -25.98 -82.2314 -24.2612 Q-82.2314 -23.1206 -83.0049 -22.4722 Q-83.7783 -21.8237 -85.1689 -21.8237 L-88.1689 -21.8237 L-88.1689 -30.3862 ZM-87.1689 -26.73 L-85.5283 -26.73 Q-84.4658 -26.73 -84.0049 -27.0581 Q-83.5439 -27.3862 -83.5439 -28.1675 Q-83.5439 -28.8862 -84.0596 -29.2066 Q-84.5752 -29.5269 -85.7002 -29.5269 L-87.1689 -29.5269 L-87.1689 -26.73 ZM-87.1689 -25.8862 L-87.1689 -22.6675 L-85.3721 -22.6675 Q-84.3408 -22.6675 -83.8174 -23.0737 Q-83.2939 -23.48 -83.2939 -24.3394 Q-83.2939 -25.1362 -83.833 -25.5112 Q-84.3721 -25.8862 -85.4658 -25.8862 L-87.1689 -25.8862 ZM-77.5967 -28.3706 Q-77.1748 -28.3706 -76.8311 -28.2925 L-76.9717 -27.3862 Q-77.3623 -27.48 -77.6748 -27.48 Q-78.4561 -27.48 -79.0107 -26.8472 Q-79.5654 -26.2144 -79.5654 -25.2769 L-79.5654 -21.8237 L-80.5342 -21.8237 L-80.5342 -28.2456 L-79.7373 -28.2456 L-79.6123 -27.0581 L-79.5654 -27.0581 Q-79.2217 -27.6831 -78.7139 -28.0269 Q-78.2061 -28.3706 -77.5967 -28.3706 Z"/><path style="fill:rgb(0,5,255); stroke:none;" d="M85.8516 4.1562 L84.7109 4.1562 L80.0234 -3.0312 L79.9766 -3.0312 Q80.0703 -1.7656 80.0703 -0.7188 L80.0703 4.1562 L79.1484 4.1562 L79.1484 -4.4062 L80.2734 -4.4062 L84.9453 2.75 L84.9922 2.75 Q84.9922 2.5938 84.9453 1.7344 Q84.8984 0.875 84.9141 0.5 L84.9141 -4.4062 L85.8516 -4.4062 L85.8516 4.1562 Z"/><path style="fill:none; stroke:black;" d="M-37.25 0.433 L-37.5 0 L-38 -0"/><path style="fill:none; stroke:black;" d="M-22.75 25.547 L-22.5 25.98 L-22 25.98"/><path style="fill:none; stroke:black;" d="M-22.75 -25.547 L-22.5 -25.98 L-22 -25.98"/><path style="fill:none; stroke:black;" d="M7 25.98 L7.5 25.98 L7.75 25.547"/><path style="fill:none; stroke:black;" d="M7 -25.98 L7.5 -25.98 L7.75 -25.547"/><path style="fill:none; stroke:black;" d="M22.25 0.433 L22.5 0 L23 0"/></g></g></svg></svg></svg></svg>