<svg xmlns:ns0="http://www.w3.org/2000/svg" xmlns="http://www.w3.org/2000/svg"><g transform="translate(0, 0)"><ns0:svg width="503" viewBox="0 0 503 245" style="fill-opacity:1; color-rendering:auto; color-interpolation:auto; text-rendering:auto; stroke:black; stroke-linecap:square; stroke-miterlimit:10; shape-rendering:auto; stroke-opacity:1; fill:black; stroke-dasharray:none; font-weight:normal; stroke-width:1; font-family:'Open Sans'; font-style:normal; stroke-linejoin:miter; font-size:12; stroke-dashoffset:0; image-rendering:auto;" height="245" class="cas-substance-image"><ns0:svg class="cas-substance-single-component"><ns0:rect y="0" x="0" width="503" stroke="none" ry="7" rx="7" height="245" fill="white" class="cas-substance-group" /><ns0:svg y="0" x="0" width="503" viewBox="0 0 503 245" style="fill:black;" height="245" class="cas-substance-single-component-image"><ns0:svg><ns0:g><ns0:g transform="translate(251,120)" style="text-rendering:geometricPrecision; color-rendering:optimizeQuality; color-interpolation:linearRGB; stroke-linecap:butt; image-rendering:optimizeQuality;"><ns0:path style="stroke:none;" d="M38.178 72.0056 L37.212 72.2644 L27.0332 43.9344 L32.8288 42.3816 Z" /><ns0:path style="stroke:none;" d="M116.1353 27.1873 L115.1407 27.0827 L115.7894 -3.0135 L121.7566 -2.3865 Z" /><ns0:line y2="-27.135" y1="2.865" x2="170.151" x1="170.151" style="fill:none;" /><ns0:path style="stroke:none;" d="M169.901 3.298 L170.401 2.432 L197.631 15.2669 L194.631 20.4631 Z" /><ns0:line y2="17.865" y1="2.865" x2="144.171" x1="170.151" style="fill:none;" /><ns0:line y2="-42.135" y1="-27.135" x2="196.131" x1="170.151" style="fill:none;" /><ns0:line y2="-72.135" y1="-42.135" x2="196.131" x1="196.131" style="fill:none;" /><ns0:line y2="-87.135" y1="-72.135" x2="222.111" x1="196.131" style="fill:none;" /><ns0:line y2="-117.135" y1="-87.135" x2="222.111" x1="222.111" style="fill:none;" /><ns0:line y2="-72.135" y1="-87.135" x2="248.094" x1="222.111" style="fill:none;" /><ns0:line y2="102.135" y1="113.8936" x2="-66.228" x1="-45.8621" style="fill:none;" /><ns0:path style="stroke:none;" d="M-14.515 101.702 L-14.015 102.568 L-33.1604 116.5073 L-36.1602 111.3111 Z" /><ns0:line y2="113.909" y1="102.135" x2="-86.6205" x1="-66.228" style="fill:none;" /><ns0:line y2="78.4866" y1="103.1454" x2="-64.478" x1="-64.478" style="fill:none;" /><ns0:line y2="78.4866" y1="103.1454" x2="-67.978" x1="-67.978" style="fill:none;" /><ns0:line y2="102.135" y1="113.8936" x2="-118.188" x1="-97.8221" style="fill:none;" /><ns0:line y2="117.135" y1="102.135" x2="-144.171" x1="-118.188" style="fill:none;" /><ns0:line y2="102.135" y1="117.135" x2="-170.151" x1="-144.171" style="fill:none;" /><ns0:line y2="117.135" y1="102.135" x2="-196.131" x1="-170.151" style="fill:none;" /><ns0:line y2="102.135" y1="117.135" x2="-222.111" x1="-196.131" style="fill:none;" /><ns0:line y2="117.135" y1="102.135" x2="-248.094" x1="-222.111" style="fill:none;" /><ns0:line y2="57.135" y1="72.135" x2="63.675" x1="89.658" style="fill:none;" /><ns0:line y2="57.135" y1="72.135" x2="115.638" x1="89.658" style="fill:none;" /><ns0:line y2="102.135" y1="72.135" x2="89.658" x1="89.658" style="fill:none;" /><ns0:line y2="72.135" y1="57.135" x2="37.695" x1="63.675" style="fill:none;" /><ns0:line y2="27.135" y1="57.135" x2="63.675" x1="63.675" style="fill:none;" /><ns0:line y2="27.135" y1="57.135" x2="115.638" x1="115.638" style="fill:none;" /><ns0:line y2="66.405" y1="57.135" x2="144.171" x1="115.638" style="fill:none;" /><ns0:line y2="117.135" y1="102.135" x2="63.675" x1="89.658" style="fill:none;" /><ns0:line y2="102.135" y1="72.135" x2="37.695" x1="37.695" style="fill:none;" /><ns0:line y2="57.135" y1="72.135" x2="11.715" x1="37.695" style="fill:none;" /><ns0:line y2="12.135" y1="27.135" x2="89.658" x1="63.675" style="fill:none;" /><ns0:line y2="12.135" y1="27.135" x2="89.658" x1="115.638" style="fill:none;" /><ns0:line y2="17.865" y1="27.135" x2="144.171" x1="115.638" style="fill:none;" /><ns0:line y2="42.135" y1="66.405" x2="161.802" x1="144.171" style="fill:none;" /><ns0:line y2="102.135" y1="117.135" x2="37.695" x1="63.675" style="fill:none;" /><ns0:line y2="100.1143" y1="113.0936" x2="41.195" x1="63.675" style="fill:none;" /><ns0:line y2="117.135" y1="102.135" x2="11.715" x1="37.695" style="fill:none;" /><ns0:line y2="72.135" y1="57.135" x2="-14.265" x1="11.715" style="fill:none;" /><ns0:line y2="42.135" y1="17.865" x2="161.802" x1="144.171" style="fill:none;" /><ns0:line y2="102.135" y1="117.135" x2="-14.265" x1="11.715" style="fill:none;" /><ns0:line y2="102.135" y1="72.135" x2="-14.265" x1="-14.265" style="fill:none;" /><ns0:path style="stroke:none;" d="M89.2484 72.4218 L90.0676 71.8483 L105.0889 88.9458 L100.1737 92.3868 Z" /><ns0:path style="stroke:none;" d="M49.695 39.0176 L45.5576 43.155 L45.5576 43.155 L46.3403 43.7866 L46.3403 43.7866 L50.3266 39.8003 L49.695 39.0176 ZM51.5897 41.3657 L47.9057 45.0497 L47.9057 45.0497 L48.6883 45.6812 L48.6883 45.6812 L52.2212 42.1483 L51.5897 41.3657 ZM53.4843 43.7137 L50.2537 46.9443 L50.2537 46.9443 L51.0364 47.5758 L51.0364 47.5758 L54.1158 44.4964 L53.4843 43.7137 ZM55.3789 46.0617 L52.6017 48.8389 L53.3844 49.4704 L56.0104 46.8444 L56.0104 46.8444 L55.3789 46.0617 ZM57.2735 48.4098 L54.9497 50.7335 L55.7324 51.365 L55.7324 51.365 L57.905 49.1924 L57.905 49.1924 L57.2735 48.4098 ZM59.1681 50.7578 L57.2978 52.6281 L57.2978 52.6281 L58.0805 53.2596 L58.0805 53.2596 L59.7996 51.5405 L59.7996 51.5405 L59.1681 50.7578 ZM61.0627 53.1058 L59.6458 54.5227 L59.6458 54.5227 L60.4285 55.1542 L60.4285 55.1542 L61.6942 53.8885 L61.6942 53.8885 L61.0627 53.1058 ZM62.9573 55.4538 L61.9938 56.4173 L61.9938 56.4173 L62.7765 57.0489 L62.7765 57.0489 L63.5889 56.2365 L63.5889 56.2365 L62.9573 55.4538 Z" /><ns0:path style="stroke:none;" d="M116.3985 57.5291 L115.3366 57.9369 L115.5947 58.9089 L115.5947 58.9089 L116.8572 58.4242 L116.8572 58.4242 L116.3985 57.5291 ZM117.7744 60.2143 L116.111 60.853 L116.111 60.853 L116.3691 61.825 L116.3691 61.825 L118.233 61.1093 L118.233 61.1093 L117.7744 60.2143 ZM119.1503 62.8994 L116.8854 63.7691 L116.8854 63.7691 L117.1435 64.7411 L117.1435 64.7411 L119.6089 63.7945 L119.6089 63.7945 L119.1503 62.8994 ZM120.5261 65.5846 L117.6598 66.6852 L117.6598 66.6852 L117.9179 67.6572 L120.9848 66.4796 L120.5261 65.5846 ZM121.902 68.2697 L118.4342 69.6013 L118.4342 69.6013 L118.6923 70.5733 L118.6923 70.5733 L122.3606 69.1648 L122.3606 69.1648 L121.902 68.2697 ZM123.2779 70.9549 L119.2086 72.5174 L119.2086 72.5174 L119.4667 73.4895 L123.7365 71.8499 L123.7365 71.8499 L123.2779 70.9549 ZM124.6537 73.64 L119.983 75.4335 L119.983 75.4335 L120.2411 76.4056 L120.2411 76.4056 L125.1123 74.5351 L125.1123 74.5351 L124.6537 73.64 ZM126.0296 76.3252 L120.7574 78.3496 L120.7574 78.3496 L121.0155 79.3217 L121.0155 79.3217 L126.4882 77.2202 L126.4882 77.2202 L126.0296 76.3252 Z" /><ns0:path style="stroke:none;" d="M137.5962 -4.0859 L132.2559 -1.7089 L132.76 -0.8387 L137.9056 -3.129 L137.5962 -4.0859 ZM138.5244 -1.2151 L133.7684 0.9018 L134.2726 1.772 L138.8338 -0.2582 L138.5244 -1.2151 ZM139.4526 1.6557 L135.281 3.5125 L135.7852 4.3827 L139.762 2.6126 L139.4526 1.6557 ZM140.3808 4.5265 L136.7935 6.1232 L137.2977 6.9934 L140.6902 5.4834 L140.3808 4.5265 ZM141.309 7.3973 L138.3061 8.7339 L138.8103 9.6041 L141.6184 8.3542 L141.309 7.3973 ZM142.2372 10.2681 L139.8187 11.3446 L140.3229 12.2148 L142.5466 11.225 L142.2372 10.2681 ZM143.1655 13.1389 L141.3312 13.9553 L141.8354 14.8256 L143.4749 14.0958 L143.1655 13.1389 ZM144.0937 16.0097 L142.8438 16.566 L143.348 17.4363 L144.4031 16.9667 L144.0937 16.0097 Z" /></ns0:g><ns0:g transform="translate(251,120)" style="font-size:8.4px; fill:gray; text-rendering:geometricPrecision; image-rendering:optimizeQuality; color-rendering:optimizeQuality; font-family:'Open Sans'; font-style:italic; stroke:gray; color-interpolation:linearRGB;"><ns0:path style="stroke:none;" d="M157.1022 -0.971 Q157.1022 -2.2992 157.5709 -3.4242 Q158.0397 -4.5492 159.0709 -5.6273 L159.6803 -5.6273 Q158.7115 -4.5648 158.2272 -3.3929 Q157.7428 -2.221 157.7428 -0.9867 Q157.7428 0.3415 158.1803 1.3571 L157.6647 1.3571 Q157.1022 0.3258 157.1022 -0.971 ZM160.6622 -2.2835 L160.1622 0.0915 L159.506 0.0915 L160.7091 -5.6273 L161.9591 -5.6273 Q163.6935 -5.6273 163.6935 -4.1898 Q163.6935 -2.8304 162.256 -2.4398 L163.1935 0.0915 L162.4747 0.0915 L161.6466 -2.2835 L160.6622 -2.2835 ZM161.2404 -5.0335 Q160.8497 -3.1117 160.7872 -2.8617 L161.4435 -2.8617 Q162.1935 -2.8617 162.5997 -3.1898 Q163.006 -3.5179 163.006 -4.1429 Q163.006 -4.6117 162.7482 -4.8226 Q162.4904 -5.0335 161.8966 -5.0335 L161.2404 -5.0335 ZM165.8795 -3.2835 Q165.8795 -1.9554 165.4029 -0.8226 Q164.9263 0.3102 163.9107 1.3571 L163.3013 1.3571 Q165.2388 -0.7992 165.2388 -3.2835 Q165.2388 -4.6117 164.8013 -5.6273 L165.317 -5.6273 Q165.8795 -4.5648 165.8795 -3.2835 Z" /></ns0:g><ns0:g transform="translate(251,120)" style="stroke-linecap:butt; font-size:8.4px; text-rendering:geometricPrecision; image-rendering:optimizeQuality; color-rendering:optimizeQuality; font-family:'Open Sans'; font-style:italic; color-interpolation:linearRGB; stroke-miterlimit:5;"><ns0:path style="fill:none;" d="M170.151 -26.635 L170.151 -27.135 L170.584 -27.385" /><ns0:path style="fill:none;" d="M195.698 -41.885 L196.131 -42.135 L196.131 -42.635" /><ns0:path style="fill:none;" d="M196.131 -71.635 L196.131 -72.135 L196.564 -72.385" /></ns0:g><ns0:g transform="translate(251,120)" style="stroke-linecap:butt; fill:rgb(230,0,0); text-rendering:geometricPrecision; color-rendering:optimizeQuality; image-rendering:optimizeQuality; font-family:'Open Sans'; stroke:rgb(230,0,0); color-interpolation:linearRGB; stroke-miterlimit:5;"><ns0:path style="stroke:none;" d="M-36.3105 117.0647 Q-36.3105 119.1272 -37.3496 120.3069 Q-38.3886 121.4866 -40.2324 121.4866 Q-42.123 121.4866 -43.1542 120.3225 Q-44.1855 119.1584 -44.1855 117.0491 Q-44.1855 114.9553 -43.1542 113.8069 Q-42.123 112.6584 -40.2324 112.6584 Q-38.373 112.6584 -37.3417 113.8303 Q-36.3105 115.0022 -36.3105 117.0647 ZM-43.1386 117.0647 Q-43.1386 118.7991 -42.3964 119.7053 Q-41.6542 120.6116 -40.2324 120.6116 Q-38.8105 120.6116 -38.0839 119.7131 Q-37.3574 118.8147 -37.3574 117.0647 Q-37.3574 115.3303 -38.0839 114.4397 Q-38.8105 113.5491 -40.2324 113.5491 Q-41.6542 113.5491 -42.3964 114.4475 Q-43.1386 115.3459 -43.1386 117.0647 Z" /><ns0:path style="fill:none; stroke:black;" d="M-65.795 102.385 L-66.228 102.135 L-66.661 102.385" /><ns0:path style="stroke:none;" d="M-88.2705 117.0647 Q-88.2705 119.1272 -89.3096 120.3069 Q-90.3486 121.4866 -92.1924 121.4866 Q-94.083 121.4866 -95.1143 120.3225 Q-96.1455 119.1584 -96.1455 117.0491 Q-96.1455 114.9553 -95.1143 113.8069 Q-94.083 112.6584 -92.1924 112.6584 Q-90.333 112.6584 -89.3018 113.8303 Q-88.2705 115.0022 -88.2705 117.0647 ZM-95.0986 117.0647 Q-95.0986 118.7991 -94.3564 119.7053 Q-93.6143 120.6116 -92.1924 120.6116 Q-90.7705 120.6116 -90.0439 119.7131 Q-89.3174 118.8147 -89.3174 117.0647 Q-89.3174 115.3303 -90.0439 114.4397 Q-90.7705 113.5491 -92.1924 113.5491 Q-93.6143 113.5491 -94.3564 114.4475 Q-95.0986 115.3459 -95.0986 117.0647 Z" /><ns0:path style="stroke:none;" d="M-62.2905 72.0647 Q-62.2905 74.1272 -63.3296 75.3069 Q-64.3686 76.4866 -66.2124 76.4866 Q-68.103 76.4866 -69.1343 75.3225 Q-70.1655 74.1584 -70.1655 72.0491 Q-70.1655 69.9553 -69.1343 68.8069 Q-68.103 67.6584 -66.2124 67.6584 Q-64.353 67.6584 -63.3218 68.8303 Q-62.2905 70.0022 -62.2905 72.0647 ZM-69.1186 72.0647 Q-69.1186 73.7991 -68.3764 74.7053 Q-67.6343 75.6116 -66.2124 75.6116 Q-64.7905 75.6116 -64.0639 74.7131 Q-63.3374 73.8147 -63.3374 72.0647 Q-63.3374 70.3303 -64.0639 69.4397 Q-64.7905 68.5491 -66.2124 68.5491 Q-67.6343 68.5491 -68.3764 69.4475 Q-69.1186 70.3459 -69.1186 72.0647 Z" /><ns0:path style="fill:none; stroke:black;" d="M-117.755 102.385 L-118.188 102.135 L-118.621 102.385" /><ns0:path style="fill:none; stroke:black;" d="M-143.738 116.885 L-144.171 117.135 L-144.604 116.885" /><ns0:path style="fill:none; stroke:black;" d="M-169.718 102.385 L-170.151 102.135 L-170.584 102.385" /><ns0:path style="fill:none; stroke:black;" d="M-195.698 116.885 L-196.131 117.135 L-196.564 116.885" /><ns0:path style="fill:none; stroke:black;" d="M-221.678 102.385 L-222.111 102.135 L-222.544 102.385" /></ns0:g><ns0:g transform="translate(251,120)" style="stroke-linecap:butt; font-size:8.4px; fill:gray; text-rendering:geometricPrecision; image-rendering:optimizeQuality; color-rendering:optimizeQuality; font-family:'Open Sans'; font-style:italic; stroke:gray; color-interpolation:linearRGB; stroke-miterlimit:5;"><ns0:path style="stroke:none;" d="M85.5492 63.3381 Q85.5492 62.01 86.018 60.885 Q86.4867 59.76 87.518 58.6819 L88.1273 58.6819 Q87.1586 59.7444 86.6742 60.9163 Q86.1898 62.0881 86.1898 63.3225 Q86.1898 64.6506 86.6273 65.6663 L86.1117 65.6663 Q85.5492 64.635 85.5492 63.3381 ZM91.1718 62.7444 Q91.1718 63.5725 90.6249 64.0256 Q90.078 64.4788 89.078 64.4788 Q88.6718 64.4788 88.3593 64.4241 Q88.0468 64.3694 87.7655 64.2288 L87.7655 63.5725 Q88.3905 63.9006 89.0937 63.9006 Q89.7187 63.9006 90.0937 63.6038 Q90.4687 63.3069 90.4687 62.7913 Q90.4687 62.4788 90.2655 62.2522 Q90.0624 62.0256 89.4999 61.6975 Q88.9062 61.3694 88.6796 61.0413 Q88.453 60.7131 88.453 60.26 Q88.453 59.5256 88.9687 59.0647 Q89.4843 58.6038 90.328 58.6038 Q90.703 58.6038 91.039 58.6819 Q91.3749 58.76 91.7499 58.9319 L91.4843 59.5256 Q91.2343 59.3694 90.914 59.2834 Q90.5937 59.1975 90.328 59.1975 Q89.7968 59.1975 89.4765 59.4709 Q89.1562 59.7444 89.1562 60.2131 Q89.1562 60.4163 89.2265 60.5647 Q89.2968 60.7131 89.4374 60.8459 Q89.578 60.9788 89.9999 61.2288 Q90.5624 61.5725 90.7655 61.7678 Q90.9687 61.9631 91.0702 62.1975 Q91.1718 62.4319 91.1718 62.7444 ZM93.7663 61.0256 Q93.7663 62.3538 93.2897 63.4866 Q92.8131 64.6194 91.7975 65.6663 L91.1881 65.6663 Q93.1256 63.51 93.1256 61.0256 Q93.1256 59.6975 92.6881 58.6819 L93.2038 58.6819 Q93.7663 59.7444 93.7663 61.0256 Z" /><ns0:path style="stroke:none;" d="M59.5667 68.3381 Q59.5667 67.01 60.0355 65.885 Q60.5042 64.76 61.5355 63.6819 L62.1449 63.6819 Q61.1761 64.7444 60.6917 65.9163 Q60.2074 67.0881 60.2074 68.3225 Q60.2074 69.6506 60.6449 70.6663 L60.1292 70.6663 Q59.5667 69.635 59.5667 68.3381 ZM65.1893 67.7444 Q65.1893 68.5725 64.6424 69.0256 Q64.0955 69.4788 63.0955 69.4788 Q62.6893 69.4788 62.3768 69.4241 Q62.0643 69.3694 61.783 69.2288 L61.783 68.5725 Q62.408 68.9006 63.1112 68.9006 Q63.7362 68.9006 64.1112 68.6038 Q64.4862 68.3069 64.4862 67.7913 Q64.4862 67.4788 64.283 67.2522 Q64.0799 67.0256 63.5174 66.6975 Q62.9237 66.3694 62.6971 66.0413 Q62.4705 65.7131 62.4705 65.26 Q62.4705 64.5256 62.9862 64.0647 Q63.5018 63.6038 64.3455 63.6038 Q64.7205 63.6038 65.0565 63.6819 Q65.3924 63.76 65.7674 63.9319 L65.5018 64.5256 Q65.2518 64.3694 64.9315 64.2834 Q64.6112 64.1975 64.3455 64.1975 Q63.8143 64.1975 63.494 64.4709 Q63.1737 64.7444 63.1737 65.2131 Q63.1737 65.4163 63.244 65.5647 Q63.3143 65.7131 63.4549 65.8459 Q63.5955 65.9788 64.0174 66.2288 Q64.5799 66.5725 64.783 66.7678 Q64.9862 66.9631 65.0877 67.1975 Q65.1893 67.4319 65.1893 67.7444 ZM67.7838 66.0256 Q67.7838 67.3538 67.3072 68.4866 Q66.8306 69.6194 65.815 70.6663 L65.2056 70.6663 Q67.1431 68.51 67.1431 66.0256 Q67.1431 64.6975 66.7056 63.6819 L67.2213 63.6819 Q67.7838 64.7444 67.7838 66.0256 Z" /><ns0:path style="stroke:none;" d="M102.8692 53.3382 Q102.8692 52.0101 103.3379 50.8851 Q103.8067 49.7601 104.8379 48.6819 L105.4473 48.6819 Q104.4786 49.7444 103.9942 50.9163 Q103.5098 52.0882 103.5098 53.3226 Q103.5098 54.6507 103.9473 55.6663 L103.4317 55.6663 Q102.8692 54.6351 102.8692 53.3382 ZM108.4918 52.7444 Q108.4918 53.5726 107.9449 54.0257 Q107.398 54.4788 106.398 54.4788 Q105.9918 54.4788 105.6793 54.4241 Q105.3668 54.3694 105.0855 54.2288 L105.0855 53.5726 Q105.7105 53.9007 106.4136 53.9007 Q107.0386 53.9007 107.4136 53.6038 Q107.7886 53.3069 107.7886 52.7913 Q107.7886 52.4788 107.5855 52.2522 Q107.3824 52.0257 106.8199 51.6976 Q106.2261 51.3694 105.9996 51.0413 Q105.773 50.7132 105.773 50.2601 Q105.773 49.5257 106.2886 49.0647 Q106.8043 48.6038 107.648 48.6038 Q108.023 48.6038 108.3589 48.6819 Q108.6949 48.7601 109.0699 48.9319 L108.8043 49.5257 Q108.5543 49.3694 108.2339 49.2835 Q107.9136 49.1976 107.648 49.1976 Q107.1168 49.1976 106.7964 49.471 Q106.4761 49.7444 106.4761 50.2132 Q106.4761 50.4163 106.5464 50.5647 Q106.6168 50.7132 106.7574 50.846 Q106.898 50.9788 107.3199 51.2288 Q107.8824 51.5726 108.0855 51.7679 Q108.2886 51.9632 108.3902 52.1976 Q108.4918 52.4319 108.4918 52.7444 ZM111.0862 51.0257 Q111.0862 52.3538 110.6097 53.4866 Q110.1331 54.6194 109.1175 55.6663 L108.5081 55.6663 Q110.4456 53.5101 110.4456 51.0257 Q110.4456 49.6976 110.0081 48.6819 L110.5237 48.6819 Q111.0862 49.7444 111.0862 51.0257 Z" /><ns0:path style="fill:none; stroke:black;" d="M89.658 101.635 L89.658 102.135 L89.225 102.385" /><ns0:path style="stroke:none;" d="M41.9666 78.299 Q41.9666 76.9709 42.4354 75.8459 Q42.9041 74.7209 43.9354 73.6428 L44.5448 73.6428 Q43.576 74.7053 43.0916 75.8771 Q42.6073 77.049 42.6073 78.2834 Q42.6073 79.6115 43.0448 80.6271 L42.5291 80.6271 Q41.9666 79.5959 41.9666 78.299 ZM45.5267 76.9865 L45.0267 79.3615 L44.3705 79.3615 L45.5736 73.6428 L46.8236 73.6428 Q48.558 73.6428 48.558 75.0803 Q48.558 76.4396 47.1205 76.8303 L48.058 79.3615 L47.3392 79.3615 L46.5111 76.9865 L45.5267 76.9865 ZM46.1048 74.2365 Q45.7142 76.1584 45.6517 76.4084 L46.308 76.4084 Q47.058 76.4084 47.4642 76.0803 Q47.8705 75.7521 47.8705 75.1271 Q47.8705 74.6584 47.6126 74.4474 Q47.3548 74.2365 46.7611 74.2365 L46.1048 74.2365 ZM50.7439 75.9865 Q50.7439 77.3146 50.2674 78.4474 Q49.7908 79.5803 48.7752 80.6271 L48.1658 80.6271 Q50.1033 78.4709 50.1033 75.9865 Q50.1033 74.6584 49.6658 73.6428 L50.1814 73.6428 Q50.7439 74.7053 50.7439 75.9865 Z" /><ns0:path style="fill:none; stroke:black;" d="M63.675 27.635 L63.675 27.135 L64.108 26.885" /><ns0:path style="stroke:none;" d="M102.5891 33.299 Q102.5891 31.9709 103.0578 30.8459 Q103.5266 29.7209 104.5578 28.6428 L105.1672 28.6428 Q104.1984 29.7053 103.7141 30.8771 Q103.2297 32.049 103.2297 33.2834 Q103.2297 34.6115 103.6672 35.6271 L103.1516 35.6271 Q102.5891 34.5959 102.5891 33.299 ZM106.1491 31.9865 L105.6491 34.3615 L104.9929 34.3615 L106.196 28.6428 L107.446 28.6428 Q109.1804 28.6428 109.1804 30.0803 Q109.1804 31.4396 107.7429 31.8303 L108.6804 34.3615 L107.9616 34.3615 L107.1335 31.9865 L106.1491 31.9865 ZM106.7273 29.2365 Q106.3366 31.1584 106.2741 31.4084 L106.9304 31.4084 Q107.6804 31.4084 108.0866 31.0803 Q108.4929 30.7521 108.4929 30.1271 Q108.4929 29.6584 108.2351 29.4474 Q107.9773 29.2365 107.3835 29.2365 L106.7273 29.2365 ZM111.3664 30.9865 Q111.3664 32.3146 110.8898 33.4474 Q110.4132 34.5803 109.3976 35.6271 L108.7882 35.6271 Q110.7257 33.4709 110.7257 30.9865 Q110.7257 29.6584 110.2882 28.6428 L110.8039 28.6428 Q111.3664 29.7053 111.3664 30.9865 Z" /><ns0:path style="fill:none; stroke:black;" d="M143.6954 66.2505 L144.171 66.405 L144.4649 66.0005" /><ns0:path style="fill:none; stroke:black;" d="M64.108 116.885 L63.675 117.135 L63.242 116.885" /><ns0:path style="fill:none; stroke:black;" d="M38.128 102.385 L37.695 102.135 L37.262 102.385" /><ns0:path style="fill:none; stroke:black;" d="M12.148 57.385 L11.715 57.135 L11.282 57.385" /><ns0:path style="fill:none; stroke:black;" d="M89.225 12.385 L89.658 12.135 L90.091 12.385" /><ns0:path style="stroke:none;" d="M136.6918 28.5395 Q136.6918 27.2114 137.1605 26.0864 Q137.6293 24.9614 138.6605 23.8832 L139.2699 23.8832 Q138.3011 24.9457 137.8168 26.1176 Q137.3324 27.2895 137.3324 28.5239 Q137.3324 29.852 137.7699 30.8676 L137.2543 30.8676 Q136.6918 29.8364 136.6918 28.5395 ZM140.2518 27.227 L139.7518 29.602 L139.0956 29.602 L140.2987 23.8832 L141.5487 23.8832 Q143.2831 23.8832 143.2831 25.3207 Q143.2831 26.6801 141.8456 27.0707 L142.7831 29.602 L142.0643 29.602 L141.2362 27.227 L140.2518 27.227 ZM140.8299 24.477 Q140.4393 26.3989 140.3768 26.6489 L141.0331 26.6489 Q141.7831 26.6489 142.1893 26.3207 Q142.5956 25.9926 142.5956 25.3676 Q142.5956 24.8989 142.3378 24.6879 Q142.0799 24.477 141.4862 24.477 L140.8299 24.477 ZM145.469 26.227 Q145.469 27.5551 144.9925 28.6879 Q144.5159 29.8207 143.5003 30.8676 L142.8909 30.8676 Q144.8284 28.7114 144.8284 26.227 Q144.8284 24.8989 144.3909 23.8832 L144.9065 23.8832 Q145.469 24.9457 145.469 26.227 Z" /><ns0:path style="fill:none; stroke:black;" d="M161.5081 42.5395 L161.802 42.135 L161.5081 41.7305" /><ns0:path style="fill:none; stroke:black;" d="M12.148 116.885 L11.715 117.135 L11.282 116.885" /><ns0:path style="fill:none; stroke:black;" d="M-13.832 71.885 L-14.265 72.135 L-14.265 72.635" /><ns0:path style="stroke:none;" d="M-27.0338 98.3382 Q-27.0338 97.0101 -26.5651 95.8851 Q-26.0963 94.7601 -25.0651 93.682 L-24.4557 93.682 Q-25.4245 94.7445 -25.9088 95.9164 Q-26.3932 97.0882 -26.3932 98.3226 Q-26.3932 99.6507 -25.9557 100.6664 L-26.4713 100.6664 Q-27.0338 99.6351 -27.0338 98.3382 ZM-21.4113 97.7445 Q-21.4113 98.5726 -21.9582 99.0257 Q-22.505 99.4789 -23.505 99.4789 Q-23.9113 99.4789 -24.2238 99.4242 Q-24.5363 99.3695 -24.8175 99.2289 L-24.8175 98.5726 Q-24.1925 98.9007 -23.4894 98.9007 Q-22.8644 98.9007 -22.4894 98.6039 Q-22.1144 98.307 -22.1144 97.7914 Q-22.1144 97.4789 -22.3175 97.2523 Q-22.5207 97.0257 -23.0832 96.6976 Q-23.6769 96.3695 -23.9035 96.0414 Q-24.13 95.7132 -24.13 95.2601 Q-24.13 94.5257 -23.6144 94.0648 Q-23.0988 93.6039 -22.255 93.6039 Q-21.88 93.6039 -21.5441 93.682 Q-21.2082 93.7601 -20.8332 93.932 L-21.0988 94.5257 Q-21.3488 94.3695 -21.6691 94.2835 Q-21.9894 94.1976 -22.255 94.1976 Q-22.7863 94.1976 -23.1066 94.471 Q-23.4269 94.7445 -23.4269 95.2132 Q-23.4269 95.4164 -23.3566 95.5648 Q-23.2863 95.7132 -23.1457 95.846 Q-23.005 95.9789 -22.5832 96.2289 Q-22.0207 96.5726 -21.8175 96.7679 Q-21.6144 96.9632 -21.5128 97.1976 Q-21.4113 97.432 -21.4113 97.7445 ZM-18.8168 96.0257 Q-18.8168 97.3539 -19.2934 98.4867 Q-19.7699 99.6195 -20.7855 100.6664 L-21.3949 100.6664 Q-19.4574 98.5101 -19.4574 96.0257 Q-19.4574 94.6976 -19.8949 93.682 L-19.3793 93.682 Q-18.8168 94.7445 -18.8168 96.0257 Z" /></ns0:g><ns0:g transform="translate(251,120)" style="stroke-linecap:butt; text-rendering:geometricPrecision; color-rendering:optimizeQuality; image-rendering:optimizeQuality; font-family:'Open Sans'; color-interpolation:linearRGB; stroke-miterlimit:5;"><ns0:path style="stroke:none;" d="M110.1208 100.8672 L109.1208 100.8672 L109.1208 96.836 L104.6052 96.836 L104.6052 100.8672 L103.6052 100.8672 L103.6052 92.3047 L104.6052 92.3047 L104.6052 95.9454 L109.1208 95.9454 L109.1208 92.3047 L110.1208 92.3047 L110.1208 100.8672 Z" /><ns0:path style="stroke:none;" d="M45.7198 40.0783 L44.7198 40.0783 L44.7198 36.047 L40.2042 36.047 L40.2042 40.0783 L39.2042 40.0783 L39.2042 31.5158 L40.2042 31.5158 L40.2042 35.1564 L44.7198 35.1564 L44.7198 31.5158 L45.7198 31.5158 L45.7198 40.0783 Z" /><ns0:path style="stroke:none;" d="M129.6478 89.2992 L128.6478 89.2992 L128.6478 85.268 L124.1322 85.268 L124.1322 89.2992 L123.1322 89.2992 L123.1322 80.7367 L124.1322 80.7367 L124.1322 84.3774 L128.6478 84.3774 L128.6478 80.7367 L129.6478 80.7367 L129.6478 89.2992 Z" /><ns0:path style="stroke:none;" d="M135.2248 -5.3868 L134.2248 -5.3868 L134.2248 -9.418 L129.7092 -9.418 L129.7092 -5.3868 L128.7092 -5.3868 L128.7092 -13.9493 L129.7092 -13.9493 L129.7092 -10.3086 L134.2248 -10.3086 L134.2248 -13.9493 L135.2248 -13.9493 L135.2248 -5.3868 Z" /></ns0:g></ns0:g></ns0:svg></ns0:svg></ns0:svg></ns0:svg></g></svg>