<svg width="100" viewBox="0 0 100 15" style="fill-opacity:1; color-rendering:auto; color-interpolation:auto; text-rendering:auto; stroke:black; stroke-linecap:square; stroke-miterlimit:10; shape-rendering:auto; stroke-opacity:1; fill:black; stroke-dasharray:none; font-weight:normal; stroke-width:1; font-family:'Open Sans'; font-style:normal; stroke-linejoin:miter; font-size:12; stroke-dashoffset:0; image-rendering:auto;" height="15" class="cas-substance-image" xmlns:xlink="http://www.w3.org/1999/xlink" xmlns="http://www.w3.org/2000/svg"><svg class="cas-substance-single-component"><rect y="0" x="0" width="100" stroke="none" ry="7" rx="7" height="15" fill="white" class="cas-substance-group"/><svg y="0" x="44" width="11" viewBox="0 0 11 15" style="fill:black;" height="15" class="cas-substance-single-component-image"><svg><g><g transform="translate(6,7)" style="fill:rgb(111,5,255); text-rendering:geometricPrecision; color-rendering:optimizeQuality; image-rendering:optimizeQuality; font-family:'Open Sans'; stroke:rgb(111,5,255); color-interpolation:linearRGB;"><path style="stroke:none;" d="M2.7188 -1.9219 Q2.7188 -0.6094 1.8281 0.0859 Q0.9375 0.7812 -0.7031 0.7812 L-1.7188 0.7812 L-1.7188 4.1562 L-2.7188 4.1562 L-2.7188 -4.4062 L-0.4844 -4.4062 Q2.7188 -4.4062 2.7188 -1.9219 ZM-1.7188 -0.0625 L-0.8125 -0.0625 Q0.5 -0.0625 1.0938 -0.4922 Q1.6875 -0.9219 1.6875 -1.875 Q1.6875 -2.7188 1.1328 -3.1328 Q0.5781 -3.5469 -0.6094 -3.5469 L-1.7188 -3.5469 L-1.7188 -0.0625 Z"/></g></g></svg></svg></svg></svg>