<svg width="166" viewBox="0 0 166 101" style="fill-opacity:1; color-rendering:auto; color-interpolation:auto; text-rendering:auto; stroke:black; stroke-linecap:square; stroke-miterlimit:10; shape-rendering:auto; stroke-opacity:1; fill:black; stroke-dasharray:none; font-weight:normal; stroke-width:1; font-family:'Open Sans'; font-style:normal; stroke-linejoin:miter; font-size:12; stroke-dashoffset:0; image-rendering:auto;" height="101" class="cas-substance-image" xmlns:xlink="http://www.w3.org/1999/xlink" xmlns="http://www.w3.org/2000/svg"><svg class="cas-substance-single-component"><rect y="0" x="0" width="166" stroke="none" ry="7" rx="7" height="101" fill="white" class="cas-substance-group"/><svg y="0" x="0" width="166" viewBox="0 0 166 101" style="fill:black;" height="101" class="cas-substance-single-component-image"><svg><g><g transform="translate(81,52)" style="text-rendering:geometricPrecision; color-rendering:optimizeQuality; color-interpolation:linearRGB; stroke-linecap:butt; image-rendering:optimizeQuality;"><line y2="0" y1="-11.8214" x2="25.98" x1="5.5054" style="fill:none;"/><line y2="0" y1="-11.8112" x2="-25.98" x1="-5.523" style="fill:none;"/><line y2="-15" y1="0" x2="51.963" x1="25.98" style="fill:none;"/><line y2="-38.6484" y1="-15" x2="51.963" x1="51.963" style="fill:none;"/><line y2="-1.7259" y1="-13.9897" x2="71.4538" x1="50.2129" style="fill:none;"/><line y2="-4.7569" y1="-17.0207" x2="73.2039" x1="51.963" style="fill:none;"/><line y2="-15" y1="-45" x2="-51.963" x1="-51.963" style="fill:none;"/><line y2="-15" y1="0" x2="-51.963" x1="-25.98" style="fill:none;"/><line y2="-10.9585" y1="2.0209" x2="-51.9628" x1="-29.4799" style="fill:none;"/><line y2="30" y1="0" x2="-25.98" x1="-25.98" style="fill:none;"/><line y2="0" y1="-15" x2="-77.943" x1="-51.963" style="fill:none;"/><line y2="45" y1="30" x2="-51.963" x1="-25.98" style="fill:none;"/><line y2="40.9585" y1="27.9791" x2="-51.9628" x1="-29.4799" style="fill:none;"/><line y2="30" y1="0" x2="-77.943" x1="-77.943" style="fill:none;"/><line y2="27.9793" y1="2.0207" x2="-74.443" x1="-74.443" style="fill:none;"/><line y2="30" y1="45" x2="-77.943" x1="-51.963" style="fill:none;"/></g><g transform="translate(81,52)" style="fill:rgb(230,0,0); text-rendering:geometricPrecision; color-rendering:optimizeQuality; image-rendering:optimizeQuality; font-family:'Open Sans'; stroke:rgb(230,0,0); color-interpolation:linearRGB;"><path style="stroke:none;" d="M3.9375 -15.0703 Q3.9375 -13.0078 2.8984 -11.8281 Q1.8594 -10.6484 0.0156 -10.6484 Q-1.875 -10.6484 -2.9062 -11.8125 Q-3.9375 -12.9766 -3.9375 -15.0859 Q-3.9375 -17.1797 -2.9062 -18.3281 Q-1.875 -19.4766 0.0156 -19.4766 Q1.875 -19.4766 2.9062 -18.3047 Q3.9375 -17.1328 3.9375 -15.0703 ZM-2.8906 -15.0703 Q-2.8906 -13.3359 -2.1484 -12.4297 Q-1.4062 -11.5234 0.0156 -11.5234 Q1.4375 -11.5234 2.1641 -12.4219 Q2.8906 -13.3203 2.8906 -15.0703 Q2.8906 -16.8047 2.1641 -17.6953 Q1.4375 -18.5859 0.0156 -18.5859 Q-1.4062 -18.5859 -2.1484 -17.6875 Q-2.8906 -16.7891 -2.8906 -15.0703 Z"/></g><g transform="translate(81,52)" style="stroke-linecap:butt; text-rendering:geometricPrecision; color-rendering:optimizeQuality; image-rendering:optimizeQuality; font-family:'Open Sans'; color-interpolation:linearRGB; stroke-miterlimit:5;"><path style="fill:none;" d="M25.547 -0.25 L25.98 0 L26.413 -0.25"/><path style="fill:none;" d="M51.53 -14.75 L51.963 -15 L51.963 -15.5"/><path style="fill:rgb(230,0,0); stroke:none;" d="M55.9005 -45.0703 Q55.9005 -43.0078 54.8614 -41.8281 Q53.8224 -40.6484 51.9786 -40.6484 Q50.088 -40.6484 49.0568 -41.8125 Q48.0255 -42.9766 48.0255 -45.0859 Q48.0255 -47.1797 49.0568 -48.3281 Q50.088 -49.4766 51.9786 -49.4766 Q53.838 -49.4766 54.8693 -48.3047 Q55.9005 -47.1328 55.9005 -45.0703 ZM49.0724 -45.0703 Q49.0724 -43.3359 49.8146 -42.4297 Q50.5568 -41.5234 51.9786 -41.5234 Q53.4005 -41.5234 54.1271 -42.4219 Q54.8536 -43.3203 54.8536 -45.0703 Q54.8536 -46.8047 54.1271 -47.6953 Q53.4005 -48.5859 51.9786 -48.5859 Q50.5568 -48.5859 49.8146 -47.6875 Q49.0724 -46.7891 49.0724 -45.0703 Z"/><path style="fill:rgb(230,0,0); stroke:none;" d="M63.4161 -40.7734 L62.4161 -40.7734 L62.4161 -44.8047 L57.9005 -44.8047 L57.9005 -40.7734 L56.9005 -40.7734 L56.9005 -49.3359 L57.9005 -49.3359 L57.9005 -45.6953 L62.4161 -45.6953 L62.4161 -49.3359 L63.4161 -49.3359 L63.4161 -40.7734 Z"/><path style="fill:rgb(230,0,0); stroke:none;" d="M81.8805 -0.0703 Q81.8805 1.9922 80.8414 3.1719 Q79.8024 4.3516 77.9586 4.3516 Q76.068 4.3516 75.0368 3.1875 Q74.0055 2.0234 74.0055 -0.0859 Q74.0055 -2.1797 75.0368 -3.3281 Q76.068 -4.4766 77.9586 -4.4766 Q79.818 -4.4766 80.8493 -3.3047 Q81.8805 -2.1328 81.8805 -0.0703 ZM75.0524 -0.0703 Q75.0524 1.6641 75.7946 2.5703 Q76.5368 3.4766 77.9586 3.4766 Q79.3805 3.4766 80.1071 2.5781 Q80.8336 1.6797 80.8336 -0.0703 Q80.8336 -1.8047 80.1071 -2.6953 Q79.3805 -3.5859 77.9586 -3.5859 Q76.5368 -3.5859 75.7946 -2.6875 Q75.0524 -1.7891 75.0524 -0.0703 Z"/><path style="fill:none;" d="M-26.413 -0.25 L-25.98 0 L-25.547 -0.25"/><path style="fill:none;" d="M-51.53 -14.75 L-51.963 -15 L-52.396 -14.75"/><path style="fill:none;" d="M-25.98 29.5 L-25.98 30 L-26.413 30.25"/><path style="fill:none;" d="M-77.51 -0.25 L-77.943 0 L-77.943 0.5"/><path style="fill:none;" d="M-51.53 44.75 L-51.963 45 L-52.396 44.75"/><path style="fill:none;" d="M-77.943 29.5 L-77.943 30 L-77.51 30.25"/></g></g></svg></svg></svg></svg>