<svg width="159" viewBox="0 0 159 195" style="fill-opacity:1; color-rendering:auto; color-interpolation:auto; text-rendering:auto; stroke:black; stroke-linecap:square; stroke-miterlimit:10; shape-rendering:auto; stroke-opacity:1; fill:black; stroke-dasharray:none; font-weight:normal; stroke-width:1; font-family:'Open Sans'; font-style:normal; stroke-linejoin:miter; font-size:12; stroke-dashoffset:0; image-rendering:auto;" height="195" class="cas-substance-image" xmlns:xlink="http://www.w3.org/1999/xlink" xmlns="http://www.w3.org/2000/svg"><svg class="cas-substance-single-component"><rect y="0" x="0" width="159" stroke="none" ry="7" rx="7" height="195" fill="white" class="cas-substance-group"/><svg y="0" x="0" width="159" viewBox="0 0 159 195" style="fill:black;" height="195" class="cas-substance-single-component-image"><svg><g><g transform="translate(79,97)" style="text-rendering:geometricPrecision; color-rendering:optimizeQuality; color-interpolation:linearRGB; stroke-linecap:butt; image-rendering:optimizeQuality;"><line y2="-15" y1="-45" x2="-12.99" x1="-12.99" style="fill:none;"/><line y2="-60" y1="-45" x2="-38.97" x1="-12.99" style="fill:none;"/><path style="stroke:none;" d="M-12.74 -44.567 L-13.24 -45.433 L6.4064 -59.663 L9.4064 -54.4668 Z"/><line y2="-2.511" y1="-15" x2="8.6409" x1="-12.99" style="fill:none;"/><line y2="-48.2258" y1="-60" x2="-59.3653" x1="-38.97" style="fill:none;"/><line y2="-83.6484" y1="-58.9896" x2="-37.22" x1="-37.22" style="fill:none;"/><line y2="-83.6484" y1="-58.9897" x2="-40.72" x1="-40.72" style="fill:none;"/><line y2="30" y1="6.3438" x2="12.99" x1="12.99" style="fill:none;"/><line y2="45" y1="30" x2="38.97" x1="12.99" style="fill:none;"/><line y2="75" y1="45" x2="38.97" x1="38.97" style="fill:none;"/><line y2="86.7588" y1="75" x2="59.3387" x1="38.97" style="fill:none;"/></g><g transform="translate(79,97)" style="font-size:8.4px; fill:gray; text-rendering:geometricPrecision; image-rendering:optimizeQuality; color-rendering:optimizeQuality; font-family:'Open Sans'; font-style:italic; stroke:gray; color-interpolation:linearRGB;"><path style="stroke:none;" d="M-17.3786 -53.8359 Q-17.3786 -55.1641 -16.9099 -56.2891 Q-16.4411 -57.4141 -15.4099 -58.4922 L-14.8005 -58.4922 Q-15.7693 -57.4297 -16.2536 -56.2578 Q-16.738 -55.0859 -16.738 -53.8516 Q-16.738 -52.5234 -16.3005 -51.5078 L-16.8161 -51.5078 Q-17.3786 -52.5391 -17.3786 -53.8359 ZM-13.8186 -55.1484 L-14.3186 -52.7734 L-14.9748 -52.7734 L-13.7717 -58.4922 L-12.5217 -58.4922 Q-10.7873 -58.4922 -10.7873 -57.0547 Q-10.7873 -55.6953 -12.2248 -55.3047 L-11.2873 -52.7734 L-12.0061 -52.7734 L-12.8342 -55.1484 L-13.8186 -55.1484 ZM-13.2405 -57.8984 Q-13.6311 -55.9766 -13.6936 -55.7266 L-13.0373 -55.7266 Q-12.2873 -55.7266 -11.8811 -56.0547 Q-11.4748 -56.3828 -11.4748 -57.0078 Q-11.4748 -57.4766 -11.7326 -57.6875 Q-11.9905 -57.8984 -12.5842 -57.8984 L-13.2405 -57.8984 ZM-8.6014 -56.1484 Q-8.6014 -54.8203 -9.0779 -53.6875 Q-9.5545 -52.5547 -10.5701 -51.5078 L-11.1795 -51.5078 Q-9.242 -53.6641 -9.242 -56.1484 Q-9.242 -57.4766 -9.6795 -58.4922 L-9.1639 -58.4922 Q-8.6014 -57.4297 -8.6014 -56.1484 Z"/></g><g transform="translate(79,97)" style="stroke-linecap:butt; font-size:8.4px; text-rendering:geometricPrecision; image-rendering:optimizeQuality; color-rendering:optimizeQuality; font-family:'Open Sans'; font-style:italic; color-interpolation:linearRGB; stroke-miterlimit:5;"><path style="fill:none;" d="M-12.99 -15.5 L-12.99 -15 L-12.557 -14.75"/><path style="fill:none;" d="M-38.537 -59.75 L-38.97 -60 L-39.403 -59.75"/></g><g transform="translate(79,97)" style="stroke-linecap:butt; fill:rgb(0,5,255); text-rendering:geometricPrecision; color-rendering:optimizeQuality; image-rendering:optimizeQuality; font-family:'Open Sans'; stroke:rgb(0,5,255); color-interpolation:linearRGB; stroke-miterlimit:5;"><path style="stroke:none;" d="M16.3416 -55.8438 L15.2009 -55.8438 L10.5134 -63.0312 L10.4666 -63.0312 Q10.5603 -61.7656 10.5603 -60.7188 L10.5603 -55.8438 L9.6384 -55.8438 L9.6384 -64.4062 L10.7634 -64.4062 L15.4353 -57.25 L15.4822 -57.25 Q15.4822 -57.4062 15.4353 -58.2656 Q15.3884 -59.125 15.4041 -59.5 L15.4041 -64.4062 L16.3416 -64.4062 L16.3416 -55.8438 Z"/><path style="stroke:none;" d="M23.8572 -55.8438 L22.8572 -55.8438 L22.8572 -59.875 L18.3416 -59.875 L18.3416 -55.8438 L17.3416 -55.8438 L17.3416 -64.4062 L18.3416 -64.4062 L18.3416 -60.7656 L22.8572 -60.7656 L22.8572 -64.4062 L23.8572 -64.4062 L23.8572 -55.8438 Z"/><path style="stroke:none;" d="M28.6072 -54.0344 L24.8572 -54.0344 L24.8572 -54.5969 L26.3572 -56.1125 Q27.0447 -56.8 27.2634 -57.0969 Q27.4822 -57.3937 27.5916 -57.675 Q27.7009 -57.9562 27.7009 -58.2844 Q27.7009 -58.7375 27.4275 -59.0031 Q27.1541 -59.2687 26.6541 -59.2687 Q26.3103 -59.2687 25.99 -59.1516 Q25.6697 -59.0344 25.2791 -58.7375 L24.9353 -59.175 Q25.7166 -59.8312 26.6541 -59.8312 Q27.4509 -59.8312 27.9119 -59.4172 Q28.3728 -59.0031 28.3728 -58.3156 Q28.3728 -57.7687 28.0681 -57.2375 Q27.7634 -56.7062 26.9197 -55.8937 L25.6697 -54.675 L25.6697 -54.6437 L28.6072 -54.6437 L28.6072 -54.0344 Z"/><path style="fill:rgb(148,108,0); stroke:none;" d="M15.6853 1.9375 Q15.6853 3.0625 14.865 3.7031 Q14.0447 4.3438 12.6384 4.3438 Q11.1072 4.3438 10.2947 3.9375 L10.2947 2.9844 Q10.8259 3.2031 11.4431 3.3359 Q12.0603 3.4688 12.6697 3.4688 Q13.6697 3.4688 14.1697 3.0859 Q14.6697 2.7031 14.6697 2.0312 Q14.6697 1.5938 14.49 1.3047 Q14.3103 1.0156 13.8962 0.7734 Q13.4822 0.5312 12.6228 0.2344 Q11.4353 -0.1875 10.9197 -0.7734 Q10.4041 -1.3594 10.4041 -2.3125 Q10.4041 -3.2969 11.1462 -3.8828 Q11.8884 -4.4688 13.1228 -4.4688 Q14.3884 -4.4688 15.4666 -4 L15.1541 -3.1406 Q14.0916 -3.5781 13.0916 -3.5781 Q12.2947 -3.5781 11.8494 -3.2422 Q11.4041 -2.9062 11.4041 -2.2969 Q11.4041 -1.8594 11.5681 -1.5703 Q11.7322 -1.2812 12.1228 -1.0469 Q12.5134 -0.8125 13.3259 -0.5156 Q14.6697 -0.0469 15.1775 0.5078 Q15.6853 1.0625 15.6853 1.9375 Z"/><path style="fill:rgb(230,0,0); stroke:none;" d="M-61.0155 -45.0703 Q-61.0155 -43.0078 -62.0546 -41.8281 Q-63.0936 -40.6484 -64.9374 -40.6484 Q-66.828 -40.6484 -67.8593 -41.8125 Q-68.8905 -42.9766 -68.8905 -45.0859 Q-68.8905 -47.1797 -67.8593 -48.3281 Q-66.828 -49.4766 -64.9374 -49.4766 Q-63.078 -49.4766 -62.0468 -48.3047 Q-61.0155 -47.1328 -61.0155 -45.0703 ZM-67.8436 -45.0703 Q-67.8436 -43.3359 -67.1014 -42.4297 Q-66.3593 -41.5234 -64.9374 -41.5234 Q-63.5155 -41.5234 -62.7889 -42.4219 Q-62.0624 -43.3203 -62.0624 -45.0703 Q-62.0624 -46.8047 -62.7889 -47.6953 Q-63.5155 -48.5859 -64.9374 -48.5859 Q-66.3593 -48.5859 -67.1014 -47.6875 Q-67.8436 -46.7891 -67.8436 -45.0703 Z"/><path style="fill:rgb(230,0,0); stroke:none;" d="M-69.8905 -40.7734 L-70.8905 -40.7734 L-70.8905 -44.8047 L-75.4061 -44.8047 L-75.4061 -40.7734 L-76.4061 -40.7734 L-76.4061 -49.3359 L-75.4061 -49.3359 L-75.4061 -45.6953 L-70.8905 -45.6953 L-70.8905 -49.3359 L-69.8905 -49.3359 L-69.8905 -40.7734 Z"/><path style="fill:rgb(230,0,0); stroke:none;" d="M-35.0325 -90.0703 Q-35.0325 -88.0078 -36.0716 -86.8281 Q-37.1106 -85.6484 -38.9544 -85.6484 Q-40.845 -85.6484 -41.8763 -86.8125 Q-42.9075 -87.9766 -42.9075 -90.0859 Q-42.9075 -92.1797 -41.8763 -93.3281 Q-40.845 -94.4766 -38.9544 -94.4766 Q-37.095 -94.4766 -36.0638 -93.3047 Q-35.0325 -92.1328 -35.0325 -90.0703 ZM-41.8606 -90.0703 Q-41.8606 -88.3359 -41.1184 -87.4297 Q-40.3763 -86.5234 -38.9544 -86.5234 Q-37.5325 -86.5234 -36.8059 -87.4219 Q-36.0794 -88.3203 -36.0794 -90.0703 Q-36.0794 -91.8047 -36.8059 -92.6953 Q-37.5325 -93.5859 -38.9544 -93.5859 Q-40.3763 -93.5859 -41.1184 -92.6875 Q-41.8606 -91.7891 -41.8606 -90.0703 Z"/><path style="fill:none; stroke:black;" d="M12.99 29.5 L12.99 30 L13.423 30.25"/><path style="fill:none; stroke:black;" d="M38.537 44.75 L38.97 45 L38.97 45.5"/><path style="fill:none; stroke:black;" d="M38.97 74.5 L38.97 75 L39.403 75.25"/><path style="fill:rgb(230,0,0); stroke:none;" d="M68.8905 89.9297 Q68.8905 91.9922 67.8514 93.1719 Q66.8124 94.3516 64.9686 94.3516 Q63.078 94.3516 62.0468 93.1875 Q61.0155 92.0234 61.0155 89.9141 Q61.0155 87.8203 62.0468 86.6719 Q63.078 85.5234 64.9686 85.5234 Q66.828 85.5234 67.8593 86.6953 Q68.8905 87.8672 68.8905 89.9297 ZM62.0624 89.9297 Q62.0624 91.6641 62.8046 92.5703 Q63.5468 93.4766 64.9686 93.4766 Q66.3905 93.4766 67.1171 92.5781 Q67.8436 91.6797 67.8436 89.9297 Q67.8436 88.1953 67.1171 87.3047 Q66.3905 86.4141 64.9686 86.4141 Q63.5468 86.4141 62.8046 87.3125 Q62.0624 88.2109 62.0624 89.9297 Z"/><path style="fill:rgb(230,0,0); stroke:none;" d="M76.4061 94.2266 L75.4061 94.2266 L75.4061 90.1953 L70.8905 90.1953 L70.8905 94.2266 L69.8905 94.2266 L69.8905 85.6641 L70.8905 85.6641 L70.8905 89.3047 L75.4061 89.3047 L75.4061 85.6641 L76.4061 85.6641 L76.4061 94.2266 Z"/></g></g></svg></svg></svg></svg>