<svg xmlns:ns0="http://www.w3.org/2000/svg" xmlns="http://www.w3.org/2000/svg"><g transform="translate(0, 0)"><ns0:svg width="199" viewBox="0 0 199 166" style="fill-opacity:1; color-rendering:auto; color-interpolation:auto; text-rendering:auto; stroke:black; stroke-linecap:square; stroke-miterlimit:10; shape-rendering:auto; stroke-opacity:1; fill:black; stroke-dasharray:none; font-weight:normal; stroke-width:1; font-family:'Open Sans'; font-style:normal; stroke-linejoin:miter; font-size:12; stroke-dashoffset:0; image-rendering:auto;" height="166" class="cas-substance-image"><ns0:svg class="cas-substance-single-component"><ns0:rect y="0" x="0" width="199" stroke="none" ry="7" rx="7" height="166" fill="white" class="cas-substance-group" /><ns0:svg y="0" x="0" width="199" viewBox="0 0 199 166" style="fill:black;" height="166" class="cas-substance-single-component-image"><ns0:svg><ns0:g><ns0:g transform="translate(102,81)" style="text-rendering:geometricPrecision; color-rendering:optimizeQuality; color-interpolation:linearRGB; stroke-linecap:butt; image-rendering:optimizeQuality;"><ns0:line y2="-13.8616" y1="-18.846" x2="39.0252" x1="15.573" style="fill:none;" /><ns0:line y2="-41.6631" y1="-18.4259" x2="9.9993" x1="17.5496" style="fill:none;" /><ns0:line y2="-40.5815" y1="-17.3442" x2="6.6706" x1="14.2209" style="fill:none;" /><ns0:line y2="3.45" y1="-18.846" x2="-4.5" x1="15.573" style="fill:none;" /><ns0:line y2="-34.902" y1="-17.361" x2="64.992" x1="49.1978" style="fill:none;" /><ns0:line y2="-28.665" y1="-34.902" x2="94.335" x1="64.992" style="fill:none;" /><ns0:line y2="-25.668" y1="-6.0392" x2="-79.335" x1="-90.668" style="fill:none;" /><ns0:line y2="47.793" y1="71.8041" x2="-24.243" x1="-26.7685" style="fill:none;" /><ns0:line y2="3.45" y1="0.8737" x2="-4.5" x1="-28.9944" style="fill:none;" /><ns0:line y2="21.4867" y1="6.2953" x2="-43.7635" x1="-36.9992" style="fill:none;" /><ns0:line y2="-25.668" y1="-5.8263" x2="-49.335" x1="-37.879" style="fill:none;" /><ns0:line y2="32.793" y1="3.45" x2="1.737" x1="-4.5" style="fill:none;" /><ns0:line y2="47.793" y1="32.0756" x2="-24.243" x1="-41.7011" style="fill:none;" /><ns0:line y2="43.8398" y1="29.4744" x2="-23.403" x1="-39.3593" style="fill:none;" /><ns0:line y2="47.793" y1="32.793" x2="-24.243" x1="1.737" style="fill:none;" /><ns0:line y2="-25.668" y1="-25.668" x2="-79.335" x1="-49.335" style="fill:none;" /><ns0:line y2="-29.168" y1="-29.168" x2="-77.3143" x1="-51.3557" style="fill:none;" /><ns0:line y2="-45.7597" y1="-25.668" x2="-37.7347" x1="-49.335" style="fill:none;" /><ns0:line y2="-51.648" y1="-25.668" x2="-94.335" x1="-79.335" style="fill:none;" /><ns0:line y2="-77.628" y1="-57.7863" x2="-49.335" x1="-37.879" style="fill:none;" /><ns0:line y2="-74.128" y1="-56.0363" x2="-51.3557" x1="-40.9101" style="fill:none;" /><ns0:line y2="-77.628" y1="-51.648" x2="-79.335" x1="-94.335" style="fill:none;" /><ns0:line y2="-74.128" y1="-51.648" x2="-77.3143" x1="-90.2935" style="fill:none;" /><ns0:line y2="-77.628" y1="-77.628" x2="-79.335" x1="-49.335" style="fill:none;" /><ns0:path style="fill:none; stroke-miterlimit:5;" d="M16.0621 -18.7421 L15.573 -18.846 L15.2385 -18.4744" /></ns0:g><ns0:g transform="translate(102,81)" style="stroke-linecap:butt; fill:rgb(230,0,0); text-rendering:geometricPrecision; color-rendering:optimizeQuality; image-rendering:optimizeQuality; font-family:'Open Sans'; stroke:rgb(230,0,0); color-interpolation:linearRGB; stroke-miterlimit:5;"><ns0:path style="stroke:none;" d="M48.8565 -12.6793 Q48.8565 -10.6168 47.8174 -9.4371 Q46.7784 -8.2574 44.9346 -8.2574 Q43.044 -8.2574 42.0128 -9.4215 Q40.9815 -10.5856 40.9815 -12.6949 Q40.9815 -14.7887 42.0128 -15.9371 Q43.044 -17.0856 44.9346 -17.0856 Q46.794 -17.0856 47.8253 -15.9137 Q48.8565 -14.7418 48.8565 -12.6793 ZM42.0284 -12.6793 Q42.0284 -10.9449 42.7706 -10.0387 Q43.5128 -9.1324 44.9346 -9.1324 Q46.3565 -9.1324 47.0831 -10.0309 Q47.8096 -10.9293 47.8096 -12.6793 Q47.8096 -14.4137 47.0831 -15.3043 Q46.3565 -16.1949 44.9346 -16.1949 Q43.5128 -16.1949 42.7706 -15.2965 Q42.0284 -14.3981 42.0284 -12.6793 Z" /><ns0:path style="stroke:none;" d="M10.2405 -47.4463 Q10.2405 -45.3838 9.2014 -44.2041 Q8.1624 -43.0244 6.3186 -43.0244 Q4.428 -43.0244 3.3967 -44.1885 Q2.3655 -45.3526 2.3655 -47.4619 Q2.3655 -49.5557 3.3967 -50.7041 Q4.428 -51.8526 6.3186 -51.8526 Q8.178 -51.8526 9.2092 -50.6807 Q10.2405 -49.5088 10.2405 -47.4463 ZM3.4124 -47.4463 Q3.4124 -45.7119 4.1546 -44.8057 Q4.8967 -43.8994 6.3186 -43.8994 Q7.7405 -43.8994 8.4671 -44.7979 Q9.1936 -45.6963 9.1936 -47.4463 Q9.1936 -49.1807 8.4671 -50.0713 Q7.7405 -50.9619 6.3186 -50.9619 Q4.8967 -50.9619 4.1546 -50.0635 Q3.4124 -49.1651 3.4124 -47.4463 Z" /><ns0:path style="fill:none; stroke:black;" d="M64.6574 -34.5304 L64.992 -34.902 L65.4811 -34.798" /><ns0:path style="fill:rgb(0,138,0); stroke:none;" d="M-94.6436 -3.0474 Q-96.0498 -3.0474 -96.8702 -2.1099 Q-97.6905 -1.1724 -97.6905 0.4682 Q-97.6905 2.1401 -96.9014 3.062 Q-96.1123 3.9839 -94.6592 3.9839 Q-93.753 3.9839 -92.6123 3.6557 L-92.6123 4.5307 Q-93.503 4.8745 -94.7998 4.8745 Q-96.6905 4.8745 -97.7217 3.7182 Q-98.753 2.562 -98.753 0.4526 Q-98.753 -0.8755 -98.2608 -1.8677 Q-97.7686 -2.8599 -96.8311 -3.3989 Q-95.8936 -3.938 -94.628 -3.938 Q-93.2842 -3.938 -92.2686 -3.4536 L-92.6905 -2.5943 Q-93.6748 -3.0474 -94.6436 -3.0474 ZM-89.917 4.7495 L-90.8858 4.7495 L-90.8858 -4.3755 L-89.917 -4.3755 L-89.917 4.7495 Z" /><ns0:path style="fill:rgb(0,138,0); stroke:none;" d="M-33.0499 73.2217 L-30.6281 73.2217 Q-28.9249 73.2217 -28.1593 73.7296 Q-27.3937 74.2374 -27.3937 75.3311 Q-27.3937 76.0967 -27.8156 76.5967 Q-28.2374 77.0967 -29.0656 77.2374 L-29.0656 77.2999 Q-27.1124 77.628 -27.1124 79.3467 Q-27.1124 80.4874 -27.8859 81.1358 Q-28.6593 81.7842 -30.0499 81.7842 L-33.0499 81.7842 L-33.0499 73.2217 ZM-32.0499 76.878 L-30.4093 76.878 Q-29.3468 76.878 -28.8859 76.5499 Q-28.4249 76.2217 -28.4249 75.4405 Q-28.4249 74.7217 -28.9406 74.4014 Q-29.4562 74.0811 -30.5812 74.0811 L-32.0499 74.0811 L-32.0499 76.878 ZM-32.0499 77.7217 L-32.0499 80.9405 L-30.2531 80.9405 Q-29.2218 80.9405 -28.6984 80.5342 Q-28.1749 80.128 -28.1749 79.2686 Q-28.1749 78.4717 -28.714 78.0967 Q-29.2531 77.7217 -30.3468 77.7217 L-32.0499 77.7217 ZM-22.4777 75.2374 Q-22.0558 75.2374 -21.7121 75.3155 L-21.8527 76.2217 Q-22.2433 76.128 -22.5558 76.128 Q-23.3371 76.128 -23.8917 76.7608 Q-24.4464 77.3936 -24.4464 78.3311 L-24.4464 81.7842 L-25.4152 81.7842 L-25.4152 75.3624 L-24.6183 75.3624 L-24.4933 76.5499 L-24.4464 76.5499 Q-24.1027 75.9249 -23.5949 75.5811 Q-23.0871 75.2374 -22.4777 75.2374 Z" /><ns0:path style="fill:rgb(0,5,255); stroke:none;" d="M-30.9834 4.4682 L-32.1241 4.4682 L-36.8116 -2.7193 L-36.8584 -2.7193 Q-36.7647 -1.4536 -36.7647 -0.4068 L-36.7647 4.4682 L-37.6866 4.4682 L-37.6866 -4.0943 L-36.5616 -4.0943 L-31.8897 3.062 L-31.8428 3.062 Q-31.8428 2.9057 -31.8897 2.0464 Q-31.9366 1.187 -31.9209 0.812 L-31.9209 -4.0943 L-30.9834 -4.0943 L-30.9834 4.4682 Z" /><ns0:path style="fill:rgb(0,5,255); stroke:none;" d="M-43.1874 31.8763 L-44.3281 31.8763 L-49.0156 24.6888 L-49.0624 24.6888 Q-48.9687 25.9544 -48.9687 27.0013 L-48.9687 31.8763 L-49.8906 31.8763 L-49.8906 23.3138 L-48.7656 23.3138 L-44.0937 30.47 L-44.0468 30.47 Q-44.0468 30.3138 -44.0937 29.4544 Q-44.1406 28.595 -44.1249 28.22 L-44.1249 23.3138 L-43.1874 23.3138 L-43.1874 31.8763 Z" /><ns0:path style="fill:none; stroke:black;" d="M1.633 32.3039 L1.737 32.793 L1.304 33.043" /><ns0:path style="fill:none; stroke:black;" d="M-24.6146 47.4585 L-24.243 47.793 L-24.2953 48.2903" /><ns0:path style="fill:none; stroke:black;" d="M-49.835 -25.668 L-49.335 -25.668 L-49.085 -25.235" /><ns0:path style="fill:none; stroke:black;" d="M-78.835 -25.668 L-79.335 -25.668 L-79.585 -25.235" /><ns0:path style="fill:rgb(0,5,255); stroke:none;" d="M-30.9834 -47.4918 L-32.1241 -47.4918 L-36.8116 -54.6793 L-36.8584 -54.6793 Q-36.7647 -53.4136 -36.7647 -52.3668 L-36.7647 -47.4918 L-37.6866 -47.4918 L-37.6866 -56.0543 L-36.5616 -56.0543 L-31.8897 -48.898 L-31.8428 -48.898 Q-31.8428 -49.0543 -31.8897 -49.9136 Q-31.9366 -50.773 -31.9209 -51.148 L-31.9209 -56.0543 L-30.9834 -56.0543 L-30.9834 -47.4918 Z" /><ns0:path style="fill:none; stroke:black;" d="M-94.085 -51.215 L-94.335 -51.648 L-94.085 -52.081" /><ns0:path style="fill:none; stroke:black;" d="M-49.085 -77.195 L-49.335 -77.628 L-49.835 -77.628" /><ns0:path style="fill:none; stroke:black;" d="M-79.585 -77.195 L-79.335 -77.628 L-78.835 -77.628" /></ns0:g></ns0:g></ns0:svg></ns0:svg></ns0:svg></ns0:svg></g></svg>