<svg xmlns:ns0="http://www.w3.org/2000/svg" xmlns="http://www.w3.org/2000/svg"><g transform="translate(0, 0)"><ns0:svg width="448" viewBox="0 0 448 73" style="fill-opacity:1; color-rendering:auto; color-interpolation:auto; text-rendering:auto; stroke:black; stroke-linecap:square; stroke-miterlimit:10; shape-rendering:auto; stroke-opacity:1; fill:black; stroke-dasharray:none; font-weight:normal; stroke-width:1; font-family:'Open Sans'; font-style:normal; stroke-linejoin:miter; font-size:12; stroke-dashoffset:0; image-rendering:auto;" height="73" class="cas-substance-image"><ns0:svg class="cas-substance-single-component"><ns0:rect y="0" x="0" width="448" stroke="none" ry="7" rx="7" height="73" fill="white" class="cas-substance-group" /><ns0:svg y="0" x="0" width="448" viewBox="0 0 448 58" style="fill:black;" height="58" class="cas-substance-single-component-image"><ns0:svg><ns0:g><ns0:g transform="translate(224,29)" style="text-rendering:geometricPrecision; color-rendering:optimizeQuality; color-interpolation:linearRGB; stroke-linecap:butt; image-rendering:optimizeQuality;"><ns0:line y2="0" y1="-15" x2="-90.933" x1="-116.913" style="fill:none;" /><ns0:line y2="0" y1="-15" x2="-142.893" x1="-116.913" style="fill:none;" /><ns0:line y2="-15" y1="0" x2="-64.953" x1="-90.933" style="fill:none;" /><ns0:line y2="-15" y1="0" x2="-168.876" x1="-142.893" style="fill:none;" /><ns0:line y2="0" y1="-15" x2="-38.97" x1="-64.953" style="fill:none;" /><ns0:line y2="-5.5063" y1="-15" x2="-185.3191" x1="-168.876" style="fill:none;" /><ns0:line y2="-15" y1="0" x2="-12.99" x1="-38.97" style="fill:none;" /><ns0:line y2="15" y1="2.9351" x2="-220.836" x1="-199.9396" style="fill:none;" /><ns0:line y2="-25.98" y1="-6.1383" x2="-209.856" x1="-198.4001" style="fill:none;" /><ns0:line y2="25.98" y1="5.8883" x2="-179.856" x1="-191.4563" style="fill:none;" /><ns0:line y2="0" y1="-15" x2="12.99" x1="-12.99" style="fill:none;" /><ns0:line y2="-15" y1="0" x2="38.97" x1="12.99" style="fill:none;" /><ns0:line y2="0" y1="-15" x2="64.953" x1="38.97" style="fill:none;" /><ns0:line y2="-15" y1="0" x2="90.933" x1="64.953" style="fill:none;" /><ns0:line y2="0" y1="-15" x2="116.913" x1="90.933" style="fill:none;" /><ns0:line y2="-15" y1="0" x2="142.893" x1="116.913" style="fill:none;" /><ns0:line y2="0" y1="-15" x2="168.876" x1="142.893" style="fill:none;" /><ns0:line y2="-15" y1="0" x2="194.856" x1="168.876" style="fill:none;" /><ns0:line y2="0" y1="-15" x2="220.836" x1="194.856" style="fill:none;" /><ns0:path style="fill:none; stroke-miterlimit:5;" d="M-116.48 -14.75 L-116.913 -15 L-117.346 -14.75" /><ns0:path style="fill:none; stroke-miterlimit:5;" d="M-91.366 -0.25 L-90.933 0 L-90.5 -0.25" /><ns0:path style="fill:none; stroke-miterlimit:5;" d="M-142.46 -0.25 L-142.893 0 L-143.326 -0.25" /><ns0:path style="fill:none; stroke-miterlimit:5;" d="M-65.386 -14.75 L-64.953 -15 L-64.52 -14.75" /><ns0:path style="fill:none; stroke-miterlimit:5;" d="M-168.443 -14.75 L-168.876 -15 L-169.309 -14.75" /><ns0:path style="fill:none; stroke-miterlimit:5;" d="M-39.403 -0.25 L-38.97 0 L-38.537 -0.25" /></ns0:g><ns0:g transform="translate(224,29)" style="stroke-linecap:butt; fill:rgb(0,5,255); text-rendering:geometricPrecision; color-rendering:optimizeQuality; image-rendering:optimizeQuality; font-family:'Open Sans'; stroke:rgb(0,5,255); color-interpolation:linearRGB; stroke-miterlimit:5;"><ns0:path style="stroke:none;" d="M-191.5044 4.1562 L-192.6451 4.1562 L-197.3326 -3.0312 L-197.3794 -3.0312 Q-197.2857 -1.7656 -197.2857 -0.7188 L-197.2857 4.1562 L-198.2076 4.1562 L-198.2076 -4.4062 L-197.0826 -4.4062 L-192.4107 2.75 L-192.3638 2.75 Q-192.3638 2.5938 -192.4107 1.7344 Q-192.4576 0.875 -192.4419 0.5 L-192.4419 -4.4062 L-191.5044 -4.4062 L-191.5044 4.1562 Z" /><ns0:path style="fill:black; stroke:none;" d="M-188.3638 -2.8344 L-186.7544 -2.8344 L-186.7544 -2.2875 L-188.3638 -2.2875 L-188.3638 -0.6313 L-188.8951 -0.6313 L-188.8951 -2.2875 L-190.5044 -2.2875 L-190.5044 -2.8344 L-188.8951 -2.8344 L-188.8951 -4.5063 L-188.3638 -4.5063 L-188.3638 -2.8344 Z" /><ns0:path style="fill:none; stroke:black;" d="M-13.423 -14.75 L-12.99 -15 L-12.557 -14.75" /><ns0:path style="fill:none; stroke:black;" d="M12.557 -0.25 L12.99 0 L13.423 -0.25" /><ns0:path style="fill:none; stroke:black;" d="M38.537 -14.75 L38.97 -15 L39.403 -14.75" /><ns0:path style="fill:none; stroke:black;" d="M64.52 -0.25 L64.953 0 L65.386 -0.25" /><ns0:path style="fill:none; stroke:black;" d="M90.5 -14.75 L90.933 -15 L91.366 -14.75" /><ns0:path style="fill:none; stroke:black;" d="M116.48 -0.25 L116.913 0 L117.346 -0.25" /><ns0:path style="fill:none; stroke:black;" d="M142.46 -14.75 L142.893 -15 L143.326 -14.75" /><ns0:path style="fill:none; stroke:black;" d="M168.443 -0.25 L168.876 0 L169.309 -0.25" /><ns0:path style="fill:none; stroke:black;" d="M194.423 -14.75 L194.856 -15 L195.289 -14.75" /></ns0:g></ns0:g></ns0:svg></ns0:svg><ns0:svg y="58" x="216" class="cas-substance-saf"><ns0:svg y="5" x="0" width="4" style="fill:black;" height="4" class="cas-substance-saf-dot"><ns0:circle stroke="none" r="2" fill="black" cy="2" cx="2" /></ns0:svg><ns0:svg y="0" x="8" width="19" style="fill:black;" height="15" class="cas-substance-saf-image"><ns0:svg><ns0:g><ns0:g transform="translate(7,8)" style="fill:rgb(0,138,0); text-rendering:geometricPrecision; color-rendering:optimizeQuality; image-rendering:optimizeQuality; font-family:'Open Sans'; stroke:rgb(0,138,0); color-interpolation:linearRGB;"><ns0:path style="stroke:none;" d="M-0.3086 -3.3594 Q-1.7148 -3.3594 -2.5352 -2.4219 Q-3.3555 -1.4844 -3.3555 0.1562 Q-3.3555 1.8281 -2.5664 2.75 Q-1.7773 3.6719 -0.3242 3.6719 Q0.582 3.6719 1.7227 3.3438 L1.7227 4.2188 Q0.832 4.5625 -0.4648 4.5625 Q-2.3555 4.5625 -3.3867 3.4062 Q-4.418 2.25 -4.418 0.1406 Q-4.418 -1.1875 -3.9258 -2.1797 Q-3.4336 -3.1719 -2.4961 -3.7109 Q-1.5586 -4.25 -0.293 -4.25 Q1.0508 -4.25 2.0664 -3.7656 L1.6445 -2.9062 Q0.6602 -3.3594 -0.3086 -3.3594 ZM4.418 4.4375 L3.4492 4.4375 L3.4492 -4.6875 L4.418 -4.6875 L4.418 4.4375 Z" /><ns0:path style="fill:black; stroke:none;" d="M5.418 -2.4781 L5.418 -3.0719 L8.7773 -3.0719 L8.7773 -2.4781 L5.418 -2.4781 Z" /></ns0:g></ns0:g></ns0:svg></ns0:svg></ns0:svg></ns0:svg></ns0:svg></g></svg>