<svg width="172" viewBox="0 0 172 73" style="fill-opacity:1; color-rendering:auto; color-interpolation:auto; text-rendering:auto; stroke:black; stroke-linecap:square; stroke-miterlimit:10; shape-rendering:auto; stroke-opacity:1; fill:black; stroke-dasharray:none; font-weight:normal; stroke-width:1; font-family:'Open Sans'; font-style:normal; stroke-linejoin:miter; font-size:12; stroke-dashoffset:0; image-rendering:auto;" height="73" class="cas-substance-image" xmlns:xlink="http://www.w3.org/1999/xlink" xmlns="http://www.w3.org/2000/svg"><svg class="cas-substance-single-component"><rect y="0" x="0" width="172" stroke="none" ry="7" rx="7" height="73" fill="white" class="cas-substance-group"/><svg y="0" x="0" width="172" viewBox="0 0 172 73" style="fill:black;" height="73" class="cas-substance-single-component-image"><svg><g><g transform="translate(87,35)" style="text-rendering:geometricPrecision; color-rendering:optimizeQuality; color-interpolation:linearRGB; stroke-linecap:butt; image-rendering:optimizeQuality;"><line y2="9.5098" y1="24.819" x2="55.947" x1="77.0173" style="fill:none;"/><line y2="12.3414" y1="27.6506" x2="53.8898" x1="74.96" style="fill:none;"/><line y2="14.9187" y1="-3.327" x2="23.0399" x1="9.783" style="fill:none;"/><line y2="-21.8227" y1="-3.327" x2="23.2216" x1="9.783" style="fill:none;"/><line y2="-19.7654" y1="-2.9045" x2="26.0531" x1="13.8023" style="fill:none;"/><line y2="-3.327" y1="-3.327" x2="-20.217" x1="9.783" style="fill:none;"/><line y2="11.673" y1="19.236" x2="55.947" x1="32.6707" style="fill:none;"/><line y2="-20.034" y1="-25.89" x2="50.6933" x1="32.6707" style="fill:none;"/><line y2="-12.1707" y1="11.673" x2="55.947" x1="55.947" style="fill:none;"/><line y2="-29.307" y1="-3.327" x2="-35.217" x1="-20.217" style="fill:none;"/><line y2="22.653" y1="-3.327" x2="-35.217" x1="-20.217" style="fill:none;"/><line y2="19.153" y1="-3.3271" x2="-37.2377" x1="-24.2585" style="fill:none;"/><line y2="-29.307" y1="-29.307" x2="-65.217" x1="-35.217" style="fill:none;"/><line y2="-25.807" y1="-25.807" x2="-63.1963" x1="-37.2377" style="fill:none;"/><line y2="22.653" y1="22.653" x2="-65.217" x1="-35.217" style="fill:none;"/><line y2="-9.4653" y1="-29.307" x2="-76.673" x1="-65.217" style="fill:none;"/><line y2="2.5613" y1="22.653" x2="-76.8173" x1="-65.217" style="fill:none;"/><line y2="0.8112" y1="19.153" x2="-73.7862" x1="-63.1963" style="fill:none;"/></g><g transform="translate(87,35)" style="fill:rgb(148,108,0); text-rendering:geometricPrecision; color-rendering:optimizeQuality; image-rendering:optimizeQuality; font-family:'Open Sans'; stroke:rgb(148,108,0); color-interpolation:linearRGB;"><path style="stroke:none;" d="M82.9123 31.2445 Q82.9123 32.3695 82.092 33.0101 Q81.2717 33.6507 79.8654 33.6507 Q78.3342 33.6507 77.5217 33.2445 L77.5217 32.2914 Q78.0529 32.5101 78.6701 32.6429 Q79.2873 32.7757 79.8967 32.7757 Q80.8967 32.7757 81.3967 32.3929 Q81.8967 32.0101 81.8967 31.3382 Q81.8967 30.9007 81.717 30.6117 Q81.5373 30.3226 81.1232 30.0804 Q80.7092 29.8382 79.8498 29.5414 Q78.6623 29.1195 78.1467 28.5336 Q77.6311 27.9476 77.6311 26.9945 Q77.6311 26.0101 78.3732 25.4242 Q79.1154 24.8382 80.3498 24.8382 Q81.6154 24.8382 82.6936 25.307 L82.3811 26.1664 Q81.3186 25.7289 80.3186 25.7289 Q79.5217 25.7289 79.0764 26.0648 Q78.6311 26.4007 78.6311 27.0101 Q78.6311 27.4476 78.7951 27.7367 Q78.9592 28.0257 79.3498 28.2601 Q79.7404 28.4945 80.5529 28.7914 Q81.8967 29.2601 82.4045 29.8148 Q82.9123 30.3695 82.9123 31.2445 Z"/></g><g transform="translate(87,35)" style="stroke-linecap:butt; text-rendering:geometricPrecision; color-rendering:optimizeQuality; image-rendering:optimizeQuality; font-family:'Open Sans'; color-interpolation:linearRGB; stroke-miterlimit:5;"><path style="fill:none;" d="M10.0769 -3.7315 L9.783 -3.327 L10.0769 -2.9225"/><path style="fill:rgb(0,5,255); stroke:none;" d="M30.7686 25.0992 L29.6279 25.0992 L24.9404 17.9117 L24.8936 17.9117 Q24.9873 19.1774 24.9873 20.2242 L24.9873 25.0992 L24.0654 25.0992 L24.0654 16.5367 L25.1904 16.5367 L29.8623 23.693 L29.9092 23.693 Q29.9092 23.5367 29.8623 22.6774 Q29.8154 21.818 29.8311 21.443 L29.8311 16.5367 L30.7686 16.5367 L30.7686 25.0992 Z"/><path style="fill:rgb(0,5,255); stroke:none;" d="M30.6748 34.6618 L29.6748 34.6618 L29.6748 30.6305 L25.1592 30.6305 L25.1592 34.6618 L24.1592 34.6618 L24.1592 26.0993 L25.1592 26.0993 L25.1592 29.7399 L29.6748 29.7399 L29.6748 26.0993 L30.6748 26.0993 L30.6748 34.6618 Z"/><path style="fill:rgb(0,5,255); stroke:none;" d="M30.7686 -23.4408 L29.6279 -23.4408 L24.9404 -30.6283 L24.8936 -30.6283 Q24.9873 -29.3626 24.9873 -28.3158 L24.9873 -23.4408 L24.0654 -23.4408 L24.0654 -32.0033 L25.1904 -32.0033 L29.8623 -24.847 L29.9092 -24.847 Q29.9092 -25.0033 29.8623 -25.8626 Q29.8154 -26.722 29.8311 -27.097 L29.8311 -32.0033 L30.7686 -32.0033 L30.7686 -23.4408 Z"/><path style="fill:none;" d="M55.4715 11.8275 L55.947 11.673 L55.947 11.173"/><path style="fill:rgb(0,5,255); stroke:none;" d="M59.2986 -14.1707 L58.1579 -14.1707 L53.4704 -21.3582 L53.4236 -21.3582 Q53.5173 -20.0926 53.5173 -19.0457 L53.5173 -14.1707 L52.5954 -14.1707 L52.5954 -22.7332 L53.7204 -22.7332 L58.3923 -15.577 L58.4392 -15.577 Q58.4392 -15.7332 58.3923 -16.5926 Q58.3454 -17.452 58.3611 -17.827 L58.3611 -22.7332 L59.2986 -22.7332 L59.2986 -14.1707 Z"/><path style="fill:rgb(0,5,255); stroke:none;" d="M66.8142 -14.1707 L65.8142 -14.1707 L65.8142 -18.202 L61.2986 -18.202 L61.2986 -14.1707 L60.2986 -14.1707 L60.2986 -22.7332 L61.2986 -22.7332 L61.2986 -19.0926 L65.8142 -19.0926 L65.8142 -22.7332 L66.8142 -22.7332 L66.8142 -14.1707 Z"/><path style="fill:none;" d="M-20.467 -2.894 L-20.217 -3.327 L-19.717 -3.327"/><path style="fill:none;" d="M-34.967 -28.874 L-35.217 -29.307 L-35.717 -29.307"/><path style="fill:none;" d="M-34.967 22.22 L-35.217 22.653 L-35.717 22.653"/><path style="fill:none;" d="M-64.717 -29.307 L-65.217 -29.307 L-65.467 -28.874"/><path style="fill:none;" d="M-64.717 22.653 L-65.217 22.653 L-65.467 22.22"/><path style="fill:rgb(0,5,255); stroke:none;" d="M-76.8654 0.8293 L-78.0061 0.8293 L-82.6936 -6.3582 L-82.7404 -6.3582 Q-82.6467 -5.0926 -82.6467 -4.0457 L-82.6467 0.8293 L-83.5686 0.8293 L-83.5686 -7.7332 L-82.4436 -7.7332 L-77.7717 -0.577 L-77.7248 -0.577 Q-77.7248 -0.7332 -77.7717 -1.5926 Q-77.8186 -2.452 -77.8029 -2.827 L-77.8029 -7.7332 L-76.8654 -7.7332 L-76.8654 0.8293 Z"/></g></g></svg></svg></svg></svg>