<svg xmlns:ns0="http://www.w3.org/2000/svg" xmlns="http://www.w3.org/2000/svg"><g transform="translate(0, 0)"><ns0:svg width="227" viewBox="0 0 227 185" style="fill-opacity:1; color-rendering:auto; color-interpolation:auto; text-rendering:auto; stroke:black; stroke-linecap:square; stroke-miterlimit:10; shape-rendering:auto; stroke-opacity:1; fill:black; stroke-dasharray:none; font-weight:normal; stroke-width:1; font-family:'Open Sans'; font-style:normal; stroke-linejoin:miter; font-size:12; stroke-dashoffset:0; image-rendering:auto;" height="185" class="cas-substance-image"><ns0:svg class="cas-substance-single-component"><ns0:rect y="0" x="0" width="227" stroke="none" ry="7" rx="7" height="185" fill="white" class="cas-substance-group" /><ns0:svg y="0" x="0" width="227" viewBox="0 0 227 170" style="fill:black;" height="170" class="cas-substance-single-component-image"><ns0:svg><ns0:g><ns0:g transform="translate(119,83)" style="text-rendering:geometricPrecision; color-rendering:optimizeQuality; color-interpolation:linearRGB; stroke-linecap:butt; image-rendering:optimizeQuality;"><ns0:line y2="-23.97" y1="-23.97" x2="30" x1="0" style="fill:none;" /><ns0:path style="stroke:none;" d="M0.433 -24.22 L-0.433 -23.72 L-14.3445 -42.8171 L-9.1482 -45.8169 Z" /><ns0:line y2="2.01" y1="-23.97" x2="-15" x1="0" style="fill:none;" /><ns0:line y2="-44.0647" y1="-23.97" x2="41.6007" x1="30" style="fill:none;" /><ns0:line y2="-49.953" y1="-49.953" x2="75" x1="50.3516" style="fill:none;" /><ns0:line y2="-79.953" y1="-49.953" x2="75" x1="75" style="fill:none;" /><ns0:line y2="-49.953" y1="-49.953" x2="105" x1="75" style="fill:none;" /><ns0:line y2="-19.953" y1="-49.953" x2="75" x1="75" style="fill:none;" /><ns0:line y2="7.6457" y1="27.99" x2="-101.7461" x1="-90" style="fill:none;" /><ns0:line y2="27.99" y1="27.99" x2="-60" x1="-90" style="fill:none;" /><ns0:line y2="53.97" y1="74.2311" x2="-45" x1="-56.6967" style="fill:none;" /><ns0:line y2="2.01" y1="2.01" x2="-45" x1="-15" style="fill:none;" /><ns0:line y2="5.51" y1="5.51" x2="-42.9793" x1="-17.0207" style="fill:none;" /><ns0:line y2="27.99" y1="2.01" x2="0" x1="-15" style="fill:none;" /><ns0:line y2="27.99" y1="2.01" x2="-60" x1="-45" style="fill:none;" /><ns0:line y2="53.97" y1="27.99" x2="-15" x1="0" style="fill:none;" /><ns0:line y2="50.47" y1="27.99" x2="-17.0207" x1="-4.0415" style="fill:none;" /><ns0:line y2="53.97" y1="27.99" x2="-45" x1="-60" style="fill:none;" /><ns0:line y2="50.47" y1="27.99" x2="-42.9793" x1="-55.9585" style="fill:none;" /><ns0:line y2="53.97" y1="53.97" x2="-45" x1="-15" style="fill:none;" /></ns0:g><ns0:g transform="translate(119,83)" style="font-size:8.4px; fill:gray; text-rendering:geometricPrecision; image-rendering:optimizeQuality; color-rendering:optimizeQuality; font-family:'Open Sans'; font-style:italic; stroke:gray; color-interpolation:linearRGB;"><ns0:path style="stroke:none;" d="M0.6113 -31.4663 Q0.6113 -32.7944 1.08 -33.9194 Q1.5488 -35.0444 2.58 -36.1225 L3.1894 -36.1225 Q2.2206 -35.06 1.7363 -33.8881 Q1.2519 -32.7163 1.2519 -31.4819 Q1.2519 -30.1538 1.6894 -29.1381 L1.1738 -29.1381 Q0.6113 -30.1694 0.6113 -31.4663 ZM4.1713 -32.7788 L3.6713 -30.4038 L3.0151 -30.4038 L4.2182 -36.1225 L5.4682 -36.1225 Q7.2026 -36.1225 7.2026 -34.685 Q7.2026 -33.3256 5.7651 -32.935 L6.7026 -30.4038 L5.9838 -30.4038 L5.1557 -32.7788 L4.1713 -32.7788 ZM4.7494 -35.5288 Q4.3588 -33.6069 4.2963 -33.3569 L4.9526 -33.3569 Q5.7026 -33.3569 6.1088 -33.685 Q6.5151 -34.0131 6.5151 -34.6381 Q6.5151 -35.1069 6.2572 -35.3178 Q5.9994 -35.5288 5.4057 -35.5288 L4.7494 -35.5288 ZM9.3885 -33.7788 Q9.3885 -32.4506 8.912 -31.3178 Q8.4354 -30.185 7.4198 -29.1381 L6.8104 -29.1381 Q8.7479 -31.2944 8.7479 -33.7788 Q8.7479 -35.1069 8.3104 -36.1225 L8.826 -36.1225 Q9.3885 -35.06 9.3885 -33.7788 Z" /></ns0:g><ns0:g transform="translate(119,83)" style="stroke-linecap:butt; font-size:8.4px; text-rendering:geometricPrecision; image-rendering:optimizeQuality; color-rendering:optimizeQuality; font-family:'Open Sans'; font-style:italic; color-interpolation:linearRGB; stroke-miterlimit:5;"><ns0:path style="fill:none;" d="M29.5 -23.97 L30 -23.97 L30.25 -24.403" /></ns0:g><ns0:g transform="translate(119,83)" style="stroke-linecap:butt; fill:rgb(230,0,0); text-rendering:geometricPrecision; color-rendering:optimizeQuality; image-rendering:optimizeQuality; font-family:'Open Sans'; stroke:rgb(230,0,0); color-interpolation:linearRGB; stroke-miterlimit:5;"><ns0:path style="stroke:none;" d="M-11.0625 -50.0233 Q-11.0625 -47.9608 -12.1016 -46.7811 Q-13.1406 -45.6014 -14.9844 -45.6014 Q-16.875 -45.6014 -17.9062 -46.7655 Q-18.9375 -47.9296 -18.9375 -50.0389 Q-18.9375 -52.1327 -17.9062 -53.2811 Q-16.875 -54.4296 -14.9844 -54.4296 Q-13.125 -54.4296 -12.0938 -53.2577 Q-11.0625 -52.0858 -11.0625 -50.0233 ZM-17.8906 -50.0233 Q-17.8906 -48.2889 -17.1484 -47.3827 Q-16.4062 -46.4764 -14.9844 -46.4764 Q-13.5625 -46.4764 -12.8359 -47.3749 Q-12.1094 -48.2733 -12.1094 -50.0233 Q-12.1094 -51.7577 -12.8359 -52.6483 Q-13.5625 -53.5389 -14.9844 -53.5389 Q-16.4062 -53.5389 -17.1484 -52.6405 Q-17.8906 -51.7421 -17.8906 -50.0233 Z" /><ns0:path style="stroke:none;" d="M-19.9375 -45.7264 L-20.9375 -45.7264 L-20.9375 -49.7577 L-25.4531 -49.7577 L-25.4531 -45.7264 L-26.4531 -45.7264 L-26.4531 -54.2889 L-25.4531 -54.2889 L-25.4531 -50.6483 L-20.9375 -50.6483 L-20.9375 -54.2889 L-19.9375 -54.2889 L-19.9375 -45.7264 Z" /><ns0:path style="fill:rgb(0,5,255); stroke:none;" d="M48.3516 -45.7967 L47.2109 -45.7967 L42.5234 -52.9842 L42.4766 -52.9842 Q42.5703 -51.7186 42.5703 -50.6717 L42.5703 -45.7967 L41.6484 -45.7967 L41.6484 -54.3592 L42.7734 -54.3592 L47.4453 -47.203 L47.4922 -47.203 Q47.4922 -47.3592 47.4453 -48.2186 Q47.3984 -49.078 47.4141 -49.453 L47.4141 -54.3592 L48.3516 -54.3592 L48.3516 -45.7967 Z" /><ns0:path style="fill:rgb(0,5,255); stroke:none;" d="M48.2578 -55.3592 L47.2578 -55.3592 L47.2578 -59.3905 L42.7422 -59.3905 L42.7422 -55.3592 L41.7422 -55.3592 L41.7422 -63.9217 L42.7422 -63.9217 L42.7422 -60.2811 L47.2578 -60.2811 L47.2578 -63.9217 L48.2578 -63.9217 L48.2578 -55.3592 Z" /><ns0:path style="fill:none; stroke:black;" d="M-90.25 27.557 L-90 27.99 L-89.5 27.99" /><ns0:path style="stroke:none;" d="M-101.0625 1.9397 Q-101.0625 4.0022 -102.1016 5.1819 Q-103.1406 6.3616 -104.9844 6.3616 Q-106.875 6.3616 -107.9062 5.1975 Q-108.9375 4.0334 -108.9375 1.9241 Q-108.9375 -0.1697 -107.9062 -1.3181 Q-106.875 -2.4666 -104.9844 -2.4666 Q-103.125 -2.4666 -102.0938 -1.2947 Q-101.0625 -0.1228 -101.0625 1.9397 ZM-107.8906 1.9397 Q-107.8906 3.6741 -107.1484 4.5803 Q-106.4062 5.4866 -104.9844 5.4866 Q-103.5625 5.4866 -102.8359 4.5881 Q-102.1094 3.6897 -102.1094 1.9397 Q-102.1094 0.2053 -102.8359 -0.6853 Q-103.5625 -1.5759 -104.9844 -1.5759 Q-106.4062 -1.5759 -107.1484 -0.6775 Q-107.8906 0.2209 -107.8906 1.9397 Z" /><ns0:path style="stroke:none;" d="M-109.9375 6.2366 L-110.9375 6.2366 L-110.9375 2.2053 L-115.4531 2.2053 L-115.4531 6.2366 L-116.4531 6.2366 L-116.4531 -2.3259 L-115.4531 -2.3259 L-115.4531 1.3147 L-110.9375 1.3147 L-110.9375 -2.3259 L-109.9375 -2.3259 L-109.9375 6.2366 Z" /><ns0:path style="stroke:none;" d="M-56.0625 79.8827 Q-56.0625 81.9452 -57.1016 83.1249 Q-58.1406 84.3046 -59.9844 84.3046 Q-61.875 84.3046 -62.9062 83.1405 Q-63.9375 81.9764 -63.9375 79.8671 Q-63.9375 77.7733 -62.9062 76.6249 Q-61.875 75.4764 -59.9844 75.4764 Q-58.125 75.4764 -57.0938 76.6483 Q-56.0625 77.8202 -56.0625 79.8827 ZM-62.8906 79.8827 Q-62.8906 81.6171 -62.1484 82.5233 Q-61.4062 83.4296 -59.9844 83.4296 Q-58.5625 83.4296 -57.8359 82.5311 Q-57.1094 81.6327 -57.1094 79.8827 Q-57.1094 78.1483 -57.8359 77.2577 Q-58.5625 76.3671 -59.9844 76.3671 Q-61.4062 76.3671 -62.1484 77.2655 Q-62.8906 78.1639 -62.8906 79.8827 Z" /><ns0:path style="stroke:none;" d="M-64.9375 84.1796 L-65.9375 84.1796 L-65.9375 80.1483 L-70.4531 80.1483 L-70.4531 84.1796 L-71.4531 84.1796 L-71.4531 75.6171 L-70.4531 75.6171 L-70.4531 79.2577 L-65.9375 79.2577 L-65.9375 75.6171 L-64.9375 75.6171 L-64.9375 84.1796 Z" /><ns0:path style="fill:none; stroke:black;" d="M-15.5 2.01 L-15 2.01 L-14.75 1.577" /><ns0:path style="fill:none; stroke:black;" d="M-44.5 2.01 L-45 2.01 L-45.25 2.443" /><ns0:path style="fill:none; stroke:black;" d="M-0.25 27.557 L0 27.99 L-0.25 28.423" /><ns0:path style="fill:none; stroke:black;" d="M-59.75 28.423 L-60 27.99 L-60.5 27.99" /><ns0:path style="fill:none; stroke:black;" d="M-14.75 53.537 L-15 53.97 L-15.5 53.97" /><ns0:path style="fill:none; stroke:black;" d="M-45.25 53.537 L-45 53.97 L-45.25 54.403" /></ns0:g></ns0:g></ns0:svg></ns0:svg><ns0:svg y="170" x="105" class="cas-substance-saf"><ns0:svg y="5" x="0" width="4" style="fill:black;" height="4" class="cas-substance-saf-dot"><ns0:circle stroke="none" r="2" fill="black" cy="2" cx="2" /></ns0:svg><ns0:svg y="0" x="8" width="22" style="fill:black;" height="15" class="cas-substance-saf-image"><ns0:svg><ns0:g><ns0:g transform="translate(6,8)" style="fill:rgb(0,138,0); text-rendering:geometricPrecision; color-rendering:optimizeQuality; image-rendering:optimizeQuality; font-family:'Open Sans'; stroke:rgb(0,138,0); color-interpolation:linearRGB;"><ns0:path style="stroke:none;" d="M3.2578 4.1562 L2.2578 4.1562 L2.2578 0.125 L-2.2578 0.125 L-2.2578 4.1562 L-3.2578 4.1562 L-3.2578 -4.4062 L-2.2578 -4.4062 L-2.2578 -0.7656 L2.2578 -0.7656 L2.2578 -4.4062 L3.2578 -4.4062 L3.2578 4.1562 Z" /><ns0:path style="stroke:none;" d="M8.3672 -3.6406 Q6.9609 -3.6406 6.1406 -2.7031 Q5.3203 -1.7656 5.3203 -0.125 Q5.3203 1.5469 6.1094 2.4688 Q6.8984 3.3906 8.3516 3.3906 Q9.2578 3.3906 10.3984 3.0625 L10.3984 3.9375 Q9.5078 4.2812 8.2109 4.2812 Q6.3203 4.2812 5.2891 3.125 Q4.2578 1.9688 4.2578 -0.1406 Q4.2578 -1.4688 4.75 -2.4609 Q5.2422 -3.4531 6.1797 -3.9922 Q7.1172 -4.5312 8.3828 -4.5312 Q9.7266 -4.5312 10.7422 -4.0469 L10.3203 -3.1875 Q9.3359 -3.6406 8.3672 -3.6406 ZM13.0938 4.1562 L12.125 4.1562 L12.125 -4.9688 L13.0938 -4.9688 L13.0938 4.1562 Z" /></ns0:g></ns0:g></ns0:svg></ns0:svg></ns0:svg></ns0:svg></ns0:svg></g></svg>