<svg xmlns:ns0="http://www.w3.org/2000/svg" xmlns="http://www.w3.org/2000/svg"><g transform="translate(0, 0)"><ns0:svg width="130" viewBox="0 0 130 85" style="fill-opacity:1; color-rendering:auto; color-interpolation:auto; text-rendering:auto; stroke:black; stroke-linecap:square; stroke-miterlimit:10; shape-rendering:auto; stroke-opacity:1; fill:black; stroke-dasharray:none; font-weight:normal; stroke-width:1; font-family:'Open Sans'; font-style:normal; stroke-linejoin:miter; font-size:12; stroke-dashoffset:0; image-rendering:auto;" height="85" class="cas-substance-image"><ns0:svg class="cas-substance-single-component"><ns0:rect y="0" x="0" width="130" stroke="none" ry="7" rx="7" height="85" fill="white" class="cas-substance-group" /><ns0:svg y="0" x="0" width="130" viewBox="0 0 130 85" style="fill:black;" height="85" class="cas-substance-single-component-image"><ns0:svg><ns0:g><ns0:g transform="translate(59,41)" style="text-rendering:geometricPrecision; color-rendering:optimizeQuality; color-interpolation:linearRGB; stroke-linecap:butt; image-rendering:optimizeQuality;"><ns0:line y2="-4.911" y1="-20.7757" x2="33.525" x1="51.1442" style="fill:none;" /><ns0:line y2="14.835" y1="-11.148" x2="-10.818" x1="4.182" style="fill:none;" /><ns0:line y2="-4.911" y1="-11.148" x2="33.525" x1="4.182" style="fill:none;" /><ns0:line y2="-37.128" y1="-11.148" x2="-10.818" x1="4.182" style="fill:none;" /><ns0:line y2="-33.628" y1="-11.1479" x2="-12.8387" x1="0.1405" style="fill:none;" /><ns0:line y2="14.835" y1="14.835" x2="-40.818" x1="-10.818" style="fill:none;" /><ns0:line y2="11.335" y1="11.335" x2="-38.7973" x1="-12.8387" style="fill:none;" /><ns0:line y2="32.7617" y1="14.835" x2="5.3235" x1="-10.818" style="fill:none;" /><ns0:line y2="24.927" y1="-4.911" x2="36.66" x1="33.525" style="fill:none;" /><ns0:line y2="23.2831" y1="-2.5356" x2="32.968" x1="30.2553" style="fill:none;" /><ns0:line y2="-37.128" y1="-37.128" x2="-40.818" x1="-10.818" style="fill:none;" /><ns0:line y2="-11.148" y1="14.835" x2="-55.818" x1="-40.818" style="fill:none;" /><ns0:line y2="24.927" y1="35.2351" x2="36.66" x1="13.5067" style="fill:none;" /><ns0:line y2="-11.148" y1="-37.128" x2="-55.818" x1="-40.818" style="fill:none;" /><ns0:line y2="-11.1479" y1="-33.628" x2="-51.7766" x1="-38.7973" style="fill:none;" /></ns0:g><ns0:g transform="translate(59,41)" style="fill:rgb(230,0,0); text-rendering:geometricPrecision; color-rendering:optimizeQuality; image-rendering:optimizeQuality; font-family:'Open Sans'; stroke:rgb(230,0,0); color-interpolation:linearRGB;"><ns0:path style="stroke:none;" d="M59.7555 -25.0543 Q59.7555 -22.9918 58.7164 -21.8121 Q57.6774 -20.6324 55.8336 -20.6324 Q53.943 -20.6324 52.9118 -21.7965 Q51.8805 -22.9606 51.8805 -25.0699 Q51.8805 -27.1637 52.9118 -28.3121 Q53.943 -29.4606 55.8336 -29.4606 Q57.693 -29.4606 58.7243 -28.2887 Q59.7555 -27.1168 59.7555 -25.0543 ZM52.9274 -25.0543 Q52.9274 -23.3199 53.6696 -22.4137 Q54.4118 -21.5074 55.8336 -21.5074 Q57.2555 -21.5074 57.9821 -22.4059 Q58.7086 -23.3043 58.7086 -25.0543 Q58.7086 -26.7887 57.9821 -27.6793 Q57.2555 -28.5699 55.8336 -28.5699 Q54.4118 -28.5699 53.6696 -27.6715 Q52.9274 -26.7731 52.9274 -25.0543 Z" /><ns0:path style="stroke:none;" d="M67.2711 -20.7574 L66.2711 -20.7574 L66.2711 -24.7887 L61.7555 -24.7887 L61.7555 -20.7574 L60.7555 -20.7574 L60.7555 -29.3199 L61.7555 -29.3199 L61.7555 -25.6793 L66.2711 -25.6793 L66.2711 -29.3199 L67.2711 -29.3199 L67.2711 -20.7574 Z" /></ns0:g><ns0:g transform="translate(59,41)" style="stroke-linecap:butt; text-rendering:geometricPrecision; color-rendering:optimizeQuality; image-rendering:optimizeQuality; font-family:'Open Sans'; color-interpolation:linearRGB; stroke-miterlimit:5;"><ns0:path style="fill:none;" d="M3.932 -11.581 L4.182 -11.148 L4.6711 -11.044" /><ns0:path style="fill:none;" d="M-11.318 14.835 L-10.818 14.835 L-10.568 14.402" /><ns0:path style="fill:none;" d="M33.5772 -4.4137 L33.525 -4.911 L33.8966 -5.2456" /><ns0:path style="fill:none;" d="M-10.568 -36.695 L-10.818 -37.128 L-11.318 -37.128" /><ns0:path style="fill:none;" d="M-40.318 14.835 L-40.818 14.835 L-41.068 14.402" /><ns0:path style="fill:rgb(148,108,0); stroke:none;" d="M11.9503 39.0655 Q11.9503 40.1905 11.13 40.8311 Q10.3097 41.4717 8.9034 41.4717 Q7.3722 41.4717 6.5597 41.0655 L6.5597 40.1124 Q7.0909 40.3311 7.7081 40.4639 Q8.3253 40.5967 8.9347 40.5967 Q9.9347 40.5967 10.4347 40.2139 Q10.9347 39.8311 10.9347 39.1592 Q10.9347 38.7217 10.755 38.4327 Q10.5753 38.1436 10.1613 37.9014 Q9.7472 37.6592 8.8878 37.3624 Q7.7003 36.9405 7.1847 36.3546 Q6.6691 35.7686 6.6691 34.8155 Q6.6691 33.8311 7.4113 33.2452 Q8.1534 32.6592 9.3878 32.6592 Q10.6534 32.6592 11.7316 33.128 L11.4191 33.9874 Q10.3566 33.5499 9.3566 33.5499 Q8.5597 33.5499 8.1144 33.8858 Q7.6691 34.2217 7.6691 34.8311 Q7.6691 35.2686 7.8331 35.5577 Q7.9972 35.8467 8.3878 36.0811 Q8.7784 36.3155 9.5909 36.6124 Q10.9347 37.0811 11.4425 37.6358 Q11.9503 38.1905 11.9503 39.0655 Z" /><ns0:path style="fill:none;" d="M36.6078 24.4297 L36.66 24.927 L36.2032 25.1304" /><ns0:path style="fill:none;" d="M-40.318 -37.128 L-40.818 -37.128 L-41.068 -36.695" /><ns0:path style="fill:none;" d="M-55.568 -10.715 L-55.818 -11.148 L-55.568 -11.581" /></ns0:g></ns0:g></ns0:svg></ns0:svg></ns0:svg></ns0:svg></g></svg>