<svg width="142" viewBox="0 0 142 257" style="fill-opacity:1; color-rendering:auto; color-interpolation:auto; text-rendering:auto; stroke:black; stroke-linecap:square; stroke-miterlimit:10; shape-rendering:auto; stroke-opacity:1; fill:black; stroke-dasharray:none; font-weight:normal; stroke-width:1; font-family:'Open Sans'; font-style:normal; stroke-linejoin:miter; font-size:12; stroke-dashoffset:0; image-rendering:auto;" height="257" class="cas-substance-image" xmlns:xlink="http://www.w3.org/1999/xlink" xmlns="http://www.w3.org/2000/svg"><svg class="cas-substance-single-component"><rect y="0" x="0" width="142" stroke="none" ry="7" rx="7" height="257" fill="white" class="cas-substance-group"/><svg y="0" x="0" width="142" viewBox="0 0 142 257" style="fill:black;" height="257" class="cas-substance-single-component-image"><svg><g><clipPath id="clipPath_596bd7b6736c4b1a8fa6b6656c20571b1" clipPathUnits="userSpaceOnUse"><path d="M-639.301 -558.0816 L-639.301 -552.0816 L-673.2374 -552.0816 L-673.2374 -558.0816 ZM-676.5593 -595.337 L-676.5593 -508.4449 L-636.5593 -508.4449 L-636.5593 -595.337 Z"/></clipPath><clipPath id="clipPath_596bd7b6736c4b1a8fa6b6656c20571b2" clipPathUnits="userSpaceOnUse"><path d="M-637.8508 -407.7919 L-637.8508 -401.7919 L-671.7872 -401.7919 L-671.7872 -407.7919 ZM-675.109 -451.4285 L-675.109 -364.5779 L-635.109 -364.5779 L-635.109 -451.4285 Z"/></clipPath><g transform="translate(729,609)" style="text-rendering:geometricPrecision; color-rendering:optimizeQuality; color-interpolation:linearRGB; stroke-linecap:butt; image-rendering:optimizeQuality;"><line y2="-527.2363" y1="-527.2363" x2="-621.4333" x1="-630.5373" style="fill:none;"/><line y2="-530.7363" y1="-530.7363" x2="-621.4333" x1="-630.5373" style="fill:none;"/><line y2="-523.7363" y1="-523.7363" x2="-621.4333" x1="-630.5373" style="fill:none;"/><line y2="-518.7396" y1="-527.2363" x2="-645.2369" x1="-630.5373" style="fill:none;"/><line y2="-432.6372" y1="-432.6372" x2="-620.0245" x1="-629.087" style="fill:none;"/><line y2="-436.1372" y1="-436.1372" x2="-620.0245" x1="-629.087" style="fill:none;"/><line y2="-429.1372" y1="-429.1372" x2="-620.0245" x1="-629.087" style="fill:none;"/><line y2="-443.5781" y1="-432.6372" x2="-648.0151" x1="-629.087" style="fill:none;"/><line y2="-483.5478" y1="-484.4295" x2="-703.4371" x1="-716.1344" style="fill:none;"/><line y2="-487.0393" y1="-487.9211" x2="-703.1947" x1="-715.892" style="fill:none;"/><line y2="-453.8023" y1="-505.9429" x2="-655.2466" x1="-656.4187" style="fill:none;"/><line y2="-485.5831" y1="-507.3623" x2="-618.3256" x1="-649.6161" style="fill:none;"/><line y2="-491.5699" y1="-507.4424" x2="-687.9672" x1="-663.7964" style="fill:none;"/><line y2="-562.5037" y1="-518.2883" x2="-688.5874" x1="-660.4385" style="fill:none;"/><line y2="-563.3407" y1="-517.105" x2="-623.3939" x1="-653.3754" style="fill:none;"/><line y2="-548.9865" y1="-517.7239" x2="-644.9708" x1="-654.8177" style="fill:none;"/><line y2="-548.8229" y1="-518.5161" x2="-667.6008" x1="-658.4648" style="fill:none;"/><line y2="-585.2433" y1="-518.2814" x2="-656.5593" x1="-656.5593" style="fill:none; clip-path:url(#clipPath_596bd7b6736c4b1a8fa6b6656c20571b1);"/><line y2="-478.6897" y1="-454.5084" x2="-618.1769" x1="-646.9751" style="fill:none;"/><line y2="-481.1213" y1="-453.3949" x2="-693.6854" x1="-661.7028" style="fill:none;"/><line y2="-396.6656" y1="-441.7198" x2="-621.992" x1="-651.2407" style="fill:none;"/><line y2="-397.1562" y1="-441.786" x2="-687.2732" x1="-658.8604" style="fill:none;"/><line y2="-411.1755" y1="-441.5344" x2="-666.1129" x1="-656.9611" style="fill:none;"/><line y2="-410.6694" y1="-441.4971" x2="-643.452" x1="-653.162" style="fill:none;"/><line y2="-374.7966" y1="-441.4276" x2="-655.109" x1="-655.109" style="fill:none; clip-path:url(#clipPath_596bd7b6736c4b1a8fa6b6656c20571b2);"/><line y2="-557.8596" y1="-565.6301" x2="-674.277" x1="-687.6745" style="fill:none;"/><line y2="-588.4113" y1="-572.3327" x2="-661.4302" x1="-686.0917" style="fill:none;"/><line y2="-557.7216" y1="-565.4254" x2="-638.4827" x1="-625.152" style="fill:none;"/><line y2="-590.1426" y1="-572.7661" x2="-651.0566" x1="-623.9095" style="fill:none;"/><line y2="-587.1948" y1="-569.8182" x2="-652.9435" x1="-625.7963" style="fill:none;"/><line y2="-556.8316" y1="-556.8316" x2="-664.6329" x1="-648.2932" style="fill:none;"/><line y2="-553.3316" y1="-553.3316" x2="-664.6329" x1="-648.2932" style="fill:none;"/><line y2="-402.1354" y1="-394.3401" x2="-636.9956" x1="-623.4821" style="fill:none;"/><line y2="-371.2131" y1="-388.4423" x2="-650.5884" x1="-623.593" style="fill:none;"/><line y2="-401.908" y1="-394.2223" x2="-673.0094" x1="-686.2606" style="fill:none;"/><line y2="-369.8904" y1="-387.1449" x2="-660.7181" x1="-687.2303" style="fill:none;"/><line y2="-372.8239" y1="-390.0783" x2="-658.809" x1="-685.3212" style="fill:none;"/><line y2="-403.0419" y1="-403.0419" x2="-646.843" x1="-663.1826" style="fill:none;"/><line y2="-406.5419" y1="-406.5419" x2="-646.843" x1="-663.1826" style="fill:none;"/><path style="fill:none; stroke-miterlimit:5;" d="M-630.0373 -527.2363 L-630.5373 -527.2363 L-630.9702 -526.9861"/></g><g transform="translate(729,609)" style="stroke-linecap:butt; fill:rgb(230,0,0); text-rendering:geometricPrecision; color-rendering:optimizeQuality; image-rendering:optimizeQuality; font-family:'Open Sans'; stroke:rgb(230,0,0); color-interpolation:linearRGB; stroke-miterlimit:5;"><path style="stroke:none;" d="M-611.5583 -527.3066 Q-611.5583 -525.2441 -612.5974 -524.0645 Q-613.6364 -522.8848 -615.4802 -522.8848 Q-617.3708 -522.8848 -618.402 -524.0488 Q-619.4333 -525.2129 -619.4333 -527.3223 Q-619.4333 -529.416 -618.402 -530.5645 Q-617.3708 -531.7129 -615.4802 -531.7129 Q-613.6208 -531.7129 -612.5895 -530.541 Q-611.5583 -529.3691 -611.5583 -527.3066 ZM-618.3864 -527.3066 Q-618.3864 -525.5723 -617.6442 -524.666 Q-616.902 -523.7598 -615.4802 -523.7598 Q-614.0583 -523.7598 -613.3317 -524.6582 Q-612.6052 -525.5566 -612.6052 -527.3066 Q-612.6052 -529.041 -613.3317 -529.9316 Q-614.0583 -530.8223 -615.4802 -530.8223 Q-616.902 -530.8223 -617.6442 -529.9238 Q-618.3864 -529.0254 -618.3864 -527.3066 Z"/><path style="fill:none; stroke:black;" d="M-628.587 -432.6372 L-629.087 -432.6372 L-629.5198 -432.8874"/><path style="stroke:none;" d="M-610.1495 -432.7075 Q-610.1495 -430.645 -611.1885 -429.4653 Q-612.2276 -428.2856 -614.0714 -428.2856 Q-615.962 -428.2856 -616.9932 -429.4497 Q-618.0245 -430.6137 -618.0245 -432.7231 Q-618.0245 -434.8169 -616.9932 -435.9653 Q-615.962 -437.1137 -614.0714 -437.1137 Q-612.212 -437.1137 -611.1807 -435.9419 Q-610.1495 -434.77 -610.1495 -432.7075 ZM-616.9776 -432.7075 Q-616.9776 -430.9731 -616.2354 -430.0669 Q-615.4932 -429.1606 -614.0714 -429.1606 Q-612.6495 -429.1606 -611.9229 -430.0591 Q-611.1964 -430.9575 -611.1964 -432.7075 Q-611.1964 -434.4419 -611.9229 -435.3325 Q-612.6495 -436.2231 -614.0714 -436.2231 Q-615.4932 -436.2231 -616.2354 -435.3247 Q-616.9776 -434.4262 -616.9776 -432.7075 Z"/><path style="stroke:none;" d="M-589.8043 -483.5084 Q-589.8043 -481.4459 -590.8433 -480.2662 Q-591.8824 -479.0865 -593.7261 -479.0865 Q-595.6168 -479.0865 -596.648 -480.2506 Q-597.6793 -481.4147 -597.6793 -483.524 Q-597.6793 -485.6178 -596.648 -486.7662 Q-595.6168 -487.9147 -593.7261 -487.9147 Q-591.8668 -487.9147 -590.8355 -486.7428 Q-589.8043 -485.5709 -589.8043 -483.5084 ZM-596.6324 -483.5084 Q-596.6324 -481.774 -595.8902 -480.8678 Q-595.148 -479.9615 -593.7261 -479.9615 Q-592.3043 -479.9615 -591.5777 -480.86 Q-590.8511 -481.7584 -590.8511 -483.5084 Q-590.8511 -485.2428 -591.5777 -486.1334 Q-592.3043 -487.024 -593.7261 -487.024 Q-595.148 -487.024 -595.8902 -486.1256 Q-596.6324 -485.2272 -596.6324 -483.5084 Z"/><path style="stroke:none;" d="M-718.0084 -486.6576 Q-718.0084 -484.5951 -719.0474 -483.4154 Q-720.0865 -482.2357 -721.9302 -482.2357 Q-723.8209 -482.2357 -724.8521 -483.3998 Q-725.8834 -484.5638 -725.8834 -486.6732 Q-725.8834 -488.767 -724.8521 -489.9154 Q-723.8209 -491.0638 -721.9302 -491.0638 Q-720.0709 -491.0638 -719.0396 -489.892 Q-718.0084 -488.7201 -718.0084 -486.6576 ZM-724.8365 -486.6576 Q-724.8365 -484.9232 -724.0943 -484.017 Q-723.3521 -483.1107 -721.9302 -483.1107 Q-720.5084 -483.1107 -719.7818 -484.0092 Q-719.0552 -484.9076 -719.0552 -486.6576 Q-719.0552 -488.392 -719.7818 -489.2826 Q-720.5084 -490.1732 -721.9302 -490.1732 Q-723.3521 -490.1732 -724.0943 -489.2748 Q-724.8365 -488.3763 -724.8365 -486.6576 Z"/><path style="fill:black; stroke:none;" d="M-661.1247 -508.0387 L-662.1247 -508.0387 L-662.1247 -516.6012 L-657.3434 -516.6012 L-657.3434 -515.7262 L-661.1247 -515.7262 L-661.1247 -512.5856 L-657.5778 -512.5856 L-657.5778 -511.6949 L-661.1247 -511.6949 L-661.1247 -508.0387 ZM-653.3532 -507.9137 Q-654.7751 -507.9137 -655.6032 -508.7887 Q-656.4313 -509.6637 -656.4313 -511.1949 Q-656.4313 -512.7574 -655.6657 -513.6715 Q-654.9001 -514.5856 -653.6032 -514.5856 Q-652.4001 -514.5856 -651.697 -513.7887 Q-650.9938 -512.9918 -650.9938 -511.6949 L-650.9938 -511.0699 L-655.4157 -511.0699 Q-655.3845 -509.9449 -654.8454 -509.359 Q-654.3063 -508.7731 -653.322 -508.7731 Q-652.2907 -508.7731 -651.2751 -509.2106 L-651.2751 -508.3356 Q-651.7907 -508.1168 -652.2516 -508.0153 Q-652.7126 -507.9137 -653.3532 -507.9137 ZM-653.6188 -513.7574 Q-654.4001 -513.7574 -654.861 -513.2574 Q-655.322 -512.7574 -655.4001 -511.8668 L-652.0407 -511.8668 Q-652.0407 -512.7887 -652.447 -513.2731 Q-652.8532 -513.7574 -653.6188 -513.7574 Z"/><path style="fill:black; stroke:none;" d="M-646.4313 -516.3168 Q-646.4313 -515.77 -646.7438 -515.4184 Q-647.0563 -515.0668 -647.6188 -514.9575 L-647.6188 -514.9262 Q-646.9313 -514.8325 -646.5954 -514.4809 Q-646.2595 -514.1293 -646.2595 -513.5668 Q-646.2595 -512.7387 -646.8298 -512.3012 Q-647.4001 -511.8637 -648.4313 -511.8637 Q-648.8845 -511.8637 -649.2673 -511.934 Q-649.6501 -512.0043 -649.9938 -512.1762 L-649.9938 -512.7856 Q-649.6345 -512.6137 -649.2126 -512.5121 Q-648.7907 -512.4106 -648.4157 -512.4106 Q-646.9313 -512.4106 -646.9313 -513.5825 Q-646.9313 -514.6137 -648.572 -514.6137 L-649.1345 -514.6137 L-649.1345 -515.1762 L-648.5563 -515.1762 Q-647.8845 -515.1762 -647.4938 -515.4731 Q-647.1032 -515.77 -647.1032 -516.2856 Q-647.1032 -516.7075 -647.3923 -516.9418 Q-647.6813 -517.1762 -648.1813 -517.1762 Q-648.5563 -517.1762 -648.8845 -517.0746 Q-649.2126 -516.9731 -649.6345 -516.7075 L-649.9626 -517.145 Q-649.6188 -517.4262 -649.1579 -517.5825 Q-648.697 -517.7387 -648.197 -517.7387 Q-647.3532 -517.7387 -646.8923 -517.3559 Q-646.4313 -516.9731 -646.4313 -516.3168 Z"/><path style="fill:black; stroke:none;" d="M-643.1188 -515.0668 L-641.5095 -515.0668 L-641.5095 -514.52 L-643.1188 -514.52 L-643.1188 -512.8637 L-643.6501 -512.8637 L-643.6501 -514.52 L-645.2595 -514.52 L-645.2595 -515.0668 L-643.6501 -515.0668 L-643.6501 -516.7387 L-643.1188 -516.7387 L-643.1188 -515.0668 Z"/><path style="fill:black; stroke:none;" d="M-659.6744 -443.5223 L-660.6744 -443.5223 L-660.6744 -452.0848 L-655.8932 -452.0848 L-655.8932 -451.2098 L-659.6744 -451.2098 L-659.6744 -448.0692 L-656.1276 -448.0692 L-656.1276 -447.1785 L-659.6744 -447.1785 L-659.6744 -443.5223 ZM-651.903 -443.3973 Q-653.3248 -443.3973 -654.153 -444.2723 Q-654.9811 -445.1473 -654.9811 -446.6785 Q-654.9811 -448.241 -654.2155 -449.1551 Q-653.4498 -450.0692 -652.153 -450.0692 Q-650.9498 -450.0692 -650.2467 -449.2723 Q-649.5436 -448.4754 -649.5436 -447.1785 L-649.5436 -446.5535 L-653.9655 -446.5535 Q-653.9342 -445.4285 -653.3951 -444.8426 Q-652.8561 -444.2567 -651.8717 -444.2567 Q-650.8405 -444.2567 -649.8248 -444.6942 L-649.8248 -443.8192 Q-650.3405 -443.6004 -650.8014 -443.4988 Q-651.2623 -443.3973 -651.903 -443.3973 ZM-652.1686 -449.241 Q-652.9498 -449.241 -653.4108 -448.741 Q-653.8717 -448.241 -653.9498 -447.3504 L-650.5905 -447.3504 Q-650.5905 -448.2723 -650.9967 -448.7567 Q-651.403 -449.241 -652.1686 -449.241 Z"/><path style="fill:black; stroke:none;" d="M-644.9811 -451.8004 Q-644.9811 -451.2535 -645.2936 -450.902 Q-645.6061 -450.5504 -646.1686 -450.441 L-646.1686 -450.4098 Q-645.4811 -450.316 -645.1451 -449.9645 Q-644.8092 -449.6129 -644.8092 -449.0504 Q-644.8092 -448.2223 -645.3795 -447.7848 Q-645.9498 -447.3473 -646.9811 -447.3473 Q-647.4342 -447.3473 -647.817 -447.4176 Q-648.1998 -447.4879 -648.5436 -447.6598 L-648.5436 -448.2692 Q-648.1842 -448.0973 -647.7623 -447.9957 Q-647.3405 -447.8942 -646.9655 -447.8942 Q-645.4811 -447.8942 -645.4811 -449.066 Q-645.4811 -450.0973 -647.1217 -450.0973 L-647.6842 -450.0973 L-647.6842 -450.6598 L-647.1061 -450.6598 Q-646.4342 -450.6598 -646.0436 -450.9567 Q-645.653 -451.2535 -645.653 -451.7692 Q-645.653 -452.191 -645.942 -452.4254 Q-646.2311 -452.6598 -646.7311 -452.6598 Q-647.1061 -452.6598 -647.4342 -452.5582 Q-647.7623 -452.4567 -648.1842 -452.191 L-648.5123 -452.6285 Q-648.1686 -452.9098 -647.7076 -453.066 Q-647.2467 -453.2223 -646.7467 -453.2223 Q-645.903 -453.2223 -645.442 -452.8395 Q-644.9811 -452.4567 -644.9811 -451.8004 Z"/><path style="fill:black; stroke:none;" d="M-641.6686 -450.5504 L-640.0592 -450.5504 L-640.0592 -450.0035 L-641.6686 -450.0035 L-641.6686 -448.3473 L-642.1998 -448.3473 L-642.1998 -450.0035 L-643.8092 -450.0035 L-643.8092 -450.5504 L-642.1998 -450.5504 L-642.1998 -452.2223 L-641.6686 -452.2223 L-641.6686 -450.5504 Z"/><path style="fill:black; stroke:none;" d="M-612.8883 -485.9803 Q-614.2946 -485.9803 -615.1149 -485.0428 Q-615.9352 -484.1053 -615.9352 -482.4647 Q-615.9352 -480.7928 -615.1461 -479.8709 Q-614.3571 -478.9491 -612.9039 -478.9491 Q-611.9977 -478.9491 -610.8571 -479.2772 L-610.8571 -478.4022 Q-611.7477 -478.0584 -613.0446 -478.0584 Q-614.9352 -478.0584 -615.9664 -479.2147 Q-616.9977 -480.3709 -616.9977 -482.4803 Q-616.9977 -483.8084 -616.5055 -484.8006 Q-616.0133 -485.7928 -615.0758 -486.3319 Q-614.1383 -486.8709 -612.8727 -486.8709 Q-611.5289 -486.8709 -610.5133 -486.3866 L-610.9352 -485.5272 Q-611.9196 -485.9803 -612.8883 -485.9803 Z"/><path style="fill:black; stroke:none;" d="M-605.9352 -482.1475 L-609.6852 -482.1475 L-609.6852 -482.71 L-608.1852 -484.2256 Q-607.4977 -484.9131 -607.2789 -485.21 Q-607.0602 -485.5069 -606.9508 -485.7881 Q-606.8414 -486.0694 -606.8414 -486.3975 Q-606.8414 -486.8506 -607.1149 -487.1162 Q-607.3883 -487.3819 -607.8883 -487.3819 Q-608.2321 -487.3819 -608.5524 -487.2647 Q-608.8727 -487.1475 -609.2633 -486.8506 L-609.6071 -487.2881 Q-608.8258 -487.9444 -607.8883 -487.9444 Q-607.0914 -487.9444 -606.6305 -487.5303 Q-606.1696 -487.1162 -606.1696 -486.4287 Q-606.1696 -485.8819 -606.4742 -485.3506 Q-606.7789 -484.8194 -607.6227 -484.0069 L-608.8727 -482.7881 L-608.8727 -482.7569 L-605.9352 -482.7569 L-605.9352 -482.1475 Z"/><path style="fill:black; stroke:none;" d="M-604.9352 -484.7491 L-604.9352 -485.3428 L-601.5758 -485.3428 L-601.5758 -484.7491 L-604.9352 -484.7491 Z"/><path style="fill:black; stroke:none;" d="M-697.2114 -488.508 Q-698.6176 -488.508 -699.4379 -487.5705 Q-700.2582 -486.633 -700.2582 -484.9923 Q-700.2582 -483.3205 -699.4692 -482.3986 Q-698.6801 -481.4767 -697.227 -481.4767 Q-696.3207 -481.4767 -695.1801 -481.8048 L-695.1801 -480.9298 Q-696.0707 -480.5861 -697.3676 -480.5861 Q-699.2582 -480.5861 -700.2895 -481.7423 Q-701.3207 -482.8986 -701.3207 -485.008 Q-701.3207 -486.3361 -700.8286 -487.3283 Q-700.3364 -488.3205 -699.3989 -488.8595 Q-698.4614 -489.3986 -697.1957 -489.3986 Q-695.852 -489.3986 -694.8364 -488.9142 L-695.2582 -488.0548 Q-696.2426 -488.508 -697.2114 -488.508 Z"/><path style="fill:black; stroke:none;" d="M-690.2582 -484.6751 L-694.0082 -484.6751 L-694.0082 -485.2376 L-692.5082 -486.7533 Q-691.8207 -487.4408 -691.602 -487.7376 Q-691.3832 -488.0345 -691.2739 -488.3158 Q-691.1645 -488.597 -691.1645 -488.9251 Q-691.1645 -489.3783 -691.4379 -489.6439 Q-691.7114 -489.9095 -692.2114 -489.9095 Q-692.5551 -489.9095 -692.8754 -489.7923 Q-693.1957 -489.6751 -693.5864 -489.3783 L-693.9301 -489.8158 Q-693.1489 -490.472 -692.2114 -490.472 Q-691.4145 -490.472 -690.9536 -490.058 Q-690.4926 -489.6439 -690.4926 -488.9564 Q-690.4926 -488.4095 -690.7973 -487.8783 Q-691.102 -487.347 -691.9457 -486.5345 L-693.1957 -485.3158 L-693.1957 -485.2845 L-690.2582 -485.2845 L-690.2582 -484.6751 Z"/><path style="fill:black; stroke:none;" d="M-689.2582 -487.2767 L-689.2582 -487.8705 L-685.8989 -487.8705 L-685.8989 -487.2767 L-689.2582 -487.2767 Z"/><path style="fill:black; stroke:none;" d="M-691.4102 -571.8779 Q-692.8165 -571.8779 -693.6368 -570.9404 Q-694.4571 -570.0029 -694.4571 -568.3623 Q-694.4571 -566.6904 -693.668 -565.7686 Q-692.879 -564.8467 -691.4258 -564.8467 Q-690.5196 -564.8467 -689.379 -565.1748 L-689.379 -564.2998 Q-690.2696 -563.9561 -691.5665 -563.9561 Q-693.4571 -563.9561 -694.4883 -565.1123 Q-695.5196 -566.2686 -695.5196 -568.3779 Q-695.5196 -569.7061 -695.0274 -570.6982 Q-694.5352 -571.6904 -693.5977 -572.2295 Q-692.6602 -572.7686 -691.3946 -572.7686 Q-690.0508 -572.7686 -689.0352 -572.2842 L-689.4571 -571.4248 Q-690.4415 -571.8779 -691.4102 -571.8779 Z"/><path style="fill:black; stroke:none;" d="M-696.5196 -564.0811 L-697.5196 -564.0811 L-697.5196 -568.1123 L-702.0352 -568.1123 L-702.0352 -564.0811 L-703.0352 -564.0811 L-703.0352 -572.6436 L-702.0352 -572.6436 L-702.0352 -569.0029 L-697.5196 -569.0029 L-697.5196 -572.6436 L-696.5196 -572.6436 L-696.5196 -564.0811 Z"/><path style="fill:black; stroke:none;" d="M-688.2071 -570.6467 L-688.2071 -571.2404 L-684.8477 -571.2404 L-684.8477 -570.6467 L-688.2071 -570.6467 Z"/><path style="fill:black; stroke:none;" d="M-619.311 -571.8779 Q-620.7172 -571.8779 -621.5375 -570.9404 Q-622.3578 -570.0029 -622.3578 -568.3623 Q-622.3578 -566.6904 -621.5688 -565.7686 Q-620.7797 -564.8467 -619.3266 -564.8467 Q-618.4203 -564.8467 -617.2797 -565.1748 L-617.2797 -564.2998 Q-618.1703 -563.9561 -619.4672 -563.9561 Q-621.3578 -563.9561 -622.3891 -565.1123 Q-623.4203 -566.2686 -623.4203 -568.3779 Q-623.4203 -569.7061 -622.9282 -570.6982 Q-622.436 -571.6904 -621.4985 -572.2295 Q-620.561 -572.7686 -619.2953 -572.7686 Q-617.9516 -572.7686 -616.936 -572.2842 L-617.3578 -571.4248 Q-618.3422 -571.8779 -619.311 -571.8779 Z"/><path style="fill:black; stroke:none;" d="M-609.4203 -564.0811 L-610.4203 -564.0811 L-610.4203 -568.1123 L-614.936 -568.1123 L-614.936 -564.0811 L-615.936 -564.0811 L-615.936 -572.6436 L-614.936 -572.6436 L-614.936 -569.0029 L-610.4203 -569.0029 L-610.4203 -572.6436 L-609.4203 -572.6436 L-609.4203 -564.0811 Z"/><path style="fill:black; stroke:none;" d="M-642.1838 -558.6597 Q-643.59 -558.6597 -644.4103 -557.7222 Q-645.2307 -556.7847 -645.2307 -555.1441 Q-645.2307 -553.4722 -644.4416 -552.5504 Q-643.6525 -551.6285 -642.1994 -551.6285 Q-641.2932 -551.6285 -640.1525 -551.9566 L-640.1525 -551.0816 Q-641.0432 -550.7379 -642.34 -550.7379 Q-644.2307 -550.7379 -645.2619 -551.8941 Q-646.2932 -553.0504 -646.2932 -555.1597 Q-646.2932 -556.4879 -645.801 -557.48 Q-645.3088 -558.4722 -644.3713 -559.0113 Q-643.4338 -559.5504 -642.1682 -559.5504 Q-640.8244 -559.5504 -639.8088 -559.066 L-640.2307 -558.2066 Q-641.215 -558.6597 -642.1838 -558.6597 Z"/><path style="fill:black; stroke:none;" d="M-639.7932 -560.5504 L-640.7932 -560.5504 L-640.7932 -564.5816 L-645.3088 -564.5816 L-645.3088 -560.5504 L-646.3088 -560.5504 L-646.3088 -569.1129 L-645.3088 -569.1129 L-645.3088 -565.4722 L-640.7932 -565.4722 L-640.7932 -569.1129 L-639.7932 -569.1129 L-639.7932 -560.5504 Z"/><path style="fill:black; stroke:none;" d="M-668.6202 -558.6597 Q-670.0265 -558.6597 -670.8468 -557.7222 Q-671.6671 -556.7847 -671.6671 -555.1441 Q-671.6671 -553.4722 -670.8781 -552.5504 Q-670.089 -551.6285 -668.6359 -551.6285 Q-667.7296 -551.6285 -666.589 -551.9566 L-666.589 -551.0816 Q-667.4796 -550.7379 -668.7765 -550.7379 Q-670.6671 -550.7379 -671.6984 -551.8941 Q-672.7296 -553.0504 -672.7296 -555.1597 Q-672.7296 -556.4879 -672.2374 -557.48 Q-671.7452 -558.4722 -670.8077 -559.0113 Q-669.8702 -559.5504 -668.6046 -559.5504 Q-667.2609 -559.5504 -666.2452 -559.066 L-666.6671 -558.2066 Q-667.6515 -558.6597 -668.6202 -558.6597 Z"/><path style="fill:black; stroke:none;" d="M-666.2296 -560.5504 L-667.2296 -560.5504 L-667.2296 -564.5816 L-671.7452 -564.5816 L-671.7452 -560.5504 L-672.7452 -560.5504 L-672.7452 -569.1129 L-671.7452 -569.1129 L-671.7452 -565.4722 L-667.2296 -565.4722 L-667.2296 -569.1129 L-666.2296 -569.1129 L-666.2296 -560.5504 Z"/><path style="fill:black; stroke:none;" d="M-655.6921 -595.1652 Q-657.0983 -595.1652 -657.9186 -594.2277 Q-658.739 -593.2902 -658.739 -591.6495 Q-658.739 -589.9777 -657.9499 -589.0558 Q-657.1608 -588.1339 -655.7077 -588.1339 Q-654.8015 -588.1339 -653.6608 -588.462 L-653.6608 -587.587 Q-654.5515 -587.2433 -655.8483 -587.2433 Q-657.739 -587.2433 -658.7702 -588.3995 Q-659.8015 -589.5558 -659.8015 -591.6652 Q-659.8015 -592.9933 -659.3093 -593.9855 Q-658.8171 -594.9777 -657.8796 -595.5167 Q-656.9421 -596.0558 -655.6765 -596.0558 Q-654.3327 -596.0558 -653.3171 -595.5714 L-653.739 -594.712 Q-654.7233 -595.1652 -655.6921 -595.1652 Z"/><path style="fill:black; stroke:none;" d="M-653.3015 -597.0558 L-654.3015 -597.0558 L-654.3015 -601.087 L-658.8171 -601.087 L-658.8171 -597.0558 L-659.8171 -597.0558 L-659.8171 -605.6183 L-658.8171 -605.6183 L-658.8171 -601.9777 L-654.3015 -601.9777 L-654.3015 -605.6183 L-653.3015 -605.6183 L-653.3015 -597.0558 Z"/><path style="fill:black; stroke:none;" d="M-617.8193 -395.1518 Q-619.2255 -395.1518 -620.0458 -394.2143 Q-620.8661 -393.2768 -620.8661 -391.6362 Q-620.8661 -389.9643 -620.0771 -389.0424 Q-619.288 -388.1206 -617.8349 -388.1206 Q-616.9286 -388.1206 -615.788 -388.4487 L-615.788 -387.5737 Q-616.6786 -387.2299 -617.9755 -387.2299 Q-619.8661 -387.2299 -620.8974 -388.3862 Q-621.9286 -389.5424 -621.9286 -391.6518 Q-621.9286 -392.9799 -621.4365 -393.9721 Q-620.9443 -394.9643 -620.0068 -395.5034 Q-619.0693 -396.0424 -617.8036 -396.0424 Q-616.4599 -396.0424 -615.4443 -395.5581 L-615.8661 -394.6987 Q-616.8505 -395.1518 -617.8193 -395.1518 Z"/><path style="fill:black; stroke:none;" d="M-607.9286 -387.3549 L-608.9286 -387.3549 L-608.9286 -391.3862 L-613.4443 -391.3862 L-613.4443 -387.3549 L-614.4443 -387.3549 L-614.4443 -395.9174 L-613.4443 -395.9174 L-613.4443 -392.2768 L-608.9286 -392.2768 L-608.9286 -395.9174 L-607.9286 -395.9174 L-607.9286 -387.3549 Z"/><path style="fill:black; stroke:none;" d="M-606.7568 -393.9206 L-606.7568 -394.5143 L-603.3974 -394.5143 L-603.3974 -393.9206 L-606.7568 -393.9206 Z"/><path style="fill:black; stroke:none;" d="M-689.96 -395.1518 Q-691.3662 -395.1518 -692.1865 -394.2143 Q-693.0068 -393.2768 -693.0068 -391.6362 Q-693.0068 -389.9643 -692.2178 -389.0424 Q-691.4287 -388.1206 -689.9756 -388.1206 Q-689.0693 -388.1206 -687.9287 -388.4487 L-687.9287 -387.5737 Q-688.8193 -387.2299 -690.1162 -387.2299 Q-692.0068 -387.2299 -693.0381 -388.3862 Q-694.0693 -389.5424 -694.0693 -391.6518 Q-694.0693 -392.9799 -693.5771 -393.9721 Q-693.085 -394.9643 -692.1475 -395.5034 Q-691.21 -396.0424 -689.9443 -396.0424 Q-688.6006 -396.0424 -687.585 -395.5581 L-688.0068 -394.6987 Q-688.9912 -395.1518 -689.96 -395.1518 Z"/><path style="fill:black; stroke:none;" d="M-695.0693 -387.3549 L-696.0693 -387.3549 L-696.0693 -391.3862 L-700.585 -391.3862 L-700.585 -387.3549 L-701.585 -387.3549 L-701.585 -395.9174 L-700.585 -395.9174 L-700.585 -392.2768 L-696.0693 -392.2768 L-696.0693 -395.9174 L-695.0693 -395.9174 L-695.0693 -387.3549 Z"/><path style="fill:black; stroke:none;" d="M-667.17 -408.37 Q-668.5762 -408.37 -669.3965 -407.4325 Q-670.2169 -406.495 -670.2169 -404.8544 Q-670.2169 -403.1825 -669.4278 -402.2606 Q-668.6387 -401.3387 -667.1856 -401.3387 Q-666.2794 -401.3387 -665.1387 -401.6669 L-665.1387 -400.7919 Q-666.0294 -400.4481 -667.3262 -400.4481 Q-669.2169 -400.4481 -670.2481 -401.6044 Q-671.2794 -402.7606 -671.2794 -404.87 Q-671.2794 -406.1981 -670.7872 -407.1903 Q-670.295 -408.1825 -669.3575 -408.7216 Q-668.42 -409.2606 -667.1544 -409.2606 Q-665.8106 -409.2606 -664.795 -408.7762 L-665.2169 -407.9169 Q-666.2012 -408.37 -667.17 -408.37 Z"/><path style="fill:black; stroke:none;" d="M-664.7794 -390.8856 L-665.7794 -390.8856 L-665.7794 -394.9169 L-670.295 -394.9169 L-670.295 -390.8856 L-671.295 -390.8856 L-671.295 -399.4481 L-670.295 -399.4481 L-670.295 -395.8075 L-665.7794 -395.8075 L-665.7794 -399.4481 L-664.7794 -399.4481 L-664.7794 -390.8856 Z"/><path style="fill:black; stroke:none;" d="M-640.7336 -408.37 Q-642.1398 -408.37 -642.9601 -407.4325 Q-643.7805 -406.495 -643.7805 -404.8544 Q-643.7805 -403.1825 -642.9914 -402.2606 Q-642.2023 -401.3387 -640.7492 -401.3387 Q-639.843 -401.3387 -638.7023 -401.6669 L-638.7023 -400.7919 Q-639.593 -400.4481 -640.8898 -400.4481 Q-642.7805 -400.4481 -643.8117 -401.6044 Q-644.843 -402.7606 -644.843 -404.87 Q-644.843 -406.1981 -644.3508 -407.1903 Q-643.8586 -408.1825 -642.9211 -408.7216 Q-641.9836 -409.2606 -640.718 -409.2606 Q-639.3742 -409.2606 -638.3586 -408.7762 L-638.7805 -407.9169 Q-639.7648 -408.37 -640.7336 -408.37 Z"/><path style="fill:black; stroke:none;" d="M-638.343 -390.8856 L-639.343 -390.8856 L-639.343 -394.9169 L-643.8586 -394.9169 L-643.8586 -390.8856 L-644.8586 -390.8856 L-644.8586 -399.4481 L-643.8586 -399.4481 L-643.8586 -395.8075 L-639.343 -395.8075 L-639.343 -399.4481 L-638.343 -399.4481 L-638.343 -390.8856 Z"/><path style="fill:black; stroke:none;" d="M-654.2418 -371.906 Q-655.6481 -371.906 -656.4684 -370.9685 Q-657.2887 -370.031 -657.2887 -368.3904 Q-657.2887 -366.7185 -656.4996 -365.7966 Q-655.7106 -364.8748 -654.2574 -364.8748 Q-653.3512 -364.8748 -652.2106 -365.2029 L-652.2106 -364.3279 Q-653.1012 -363.9841 -654.3981 -363.9841 Q-656.2887 -363.9841 -657.3199 -365.1404 Q-658.3512 -366.2966 -658.3512 -368.406 Q-658.3512 -369.7341 -657.859 -370.7263 Q-657.3668 -371.7185 -656.4293 -372.2576 Q-655.4918 -372.7966 -654.2262 -372.7966 Q-652.8824 -372.7966 -651.8668 -372.3123 L-652.2887 -371.4529 Q-653.2731 -371.906 -654.2418 -371.906 Z"/><path style="fill:black; stroke:none;" d="M-651.8512 -354.4216 L-652.8512 -354.4216 L-652.8512 -358.4529 L-657.3668 -358.4529 L-657.3668 -354.4216 L-658.3668 -354.4216 L-658.3668 -362.9841 L-657.3668 -362.9841 L-657.3668 -359.3435 L-652.8512 -359.3435 L-652.8512 -362.9841 L-651.8512 -362.9841 L-651.8512 -354.4216 Z"/></g></g></svg></svg></svg></svg>