<svg xmlns:ns0="http://www.w3.org/2000/svg" xmlns="http://www.w3.org/2000/svg"><g transform="translate(0, 0)"><ns0:svg width="174" viewBox="0 0 174 117" style="fill-opacity:1; color-rendering:auto; color-interpolation:auto; text-rendering:auto; stroke:black; stroke-linecap:square; stroke-miterlimit:10; shape-rendering:auto; stroke-opacity:1; fill:black; stroke-dasharray:none; font-weight:normal; stroke-width:1; font-family:'Open Sans'; font-style:normal; stroke-linejoin:miter; font-size:12; stroke-dashoffset:0; image-rendering:auto;" height="117" class="cas-substance-image"><ns0:svg class="cas-substance-single-component"><ns0:rect y="0" x="0" width="174" stroke="none" ry="7" rx="7" height="117" fill="white" class="cas-substance-group" /><ns0:svg y="0" x="0" width="174" viewBox="0 0 174 101" style="fill:black;" height="101" class="cas-substance-single-component-image"><ns0:svg><ns0:g><ns0:g transform="translate(92,52)" style="text-rendering:geometricPrecision; color-rendering:optimizeQuality; color-interpolation:linearRGB; stroke-linecap:butt; image-rendering:optimizeQuality;"><ns0:line y2="-15" y1="0" x2="0" x1="-25.98" style="fill:none;" /><ns0:line y2="-15" y1="0" x2="-51.963" x1="-25.98" style="fill:none;" /><ns0:line y2="30" y1="0" x2="-25.98" x1="-25.98" style="fill:none;" /><ns0:line y2="0" y1="-15" x2="25.98" x1="0" style="fill:none;" /><ns0:line y2="-3.226" y1="-15" x2="-72.3555" x1="-51.963" style="fill:none;" /><ns0:line y2="-38.6484" y1="-13.9897" x2="-50.213" x1="-50.213" style="fill:none;" /><ns0:line y2="-38.6484" y1="-13.9896" x2="-53.713" x1="-53.713" style="fill:none;" /><ns0:line y2="45" y1="30" x2="-51.963" x1="-25.98" style="fill:none;" /><ns0:line y2="-15" y1="0" x2="51.963" x1="25.98" style="fill:none;" /><ns0:line y2="0" y1="-15" x2="77.943" x1="51.963" style="fill:none;" /><ns0:path style="fill:none; stroke-miterlimit:5;" d="M-0.433 -14.75 L0 -15 L0.433 -14.75" /><ns0:path style="fill:none; stroke-miterlimit:5;" d="M-51.53 -14.75 L-51.963 -15 L-52.396 -14.75" /><ns0:path style="fill:none; stroke-miterlimit:5;" d="M-25.98 29.5 L-25.98 30 L-26.413 30.25" /><ns0:path style="fill:none; stroke-miterlimit:5;" d="M25.547 -0.25 L25.98 0 L26.413 -0.25" /></ns0:g><ns0:g transform="translate(92,52)" style="stroke-linecap:butt; fill:rgb(230,0,0); text-rendering:geometricPrecision; color-rendering:optimizeQuality; image-rendering:optimizeQuality; font-family:'Open Sans'; stroke:rgb(230,0,0); color-interpolation:linearRGB; stroke-miterlimit:5;"><ns0:path style="stroke:none;" d="M-74.0055 -0.0703 Q-74.0055 1.9922 -75.0446 3.1719 Q-76.0836 4.3516 -77.9274 4.3516 Q-79.818 4.3516 -80.8493 3.1875 Q-81.8805 2.0234 -81.8805 -0.0859 Q-81.8805 -2.1797 -80.8493 -3.3281 Q-79.818 -4.4766 -77.9274 -4.4766 Q-76.068 -4.4766 -75.0368 -3.3047 Q-74.0055 -2.1328 -74.0055 -0.0703 ZM-80.8336 -0.0703 Q-80.8336 1.6641 -80.0914 2.5703 Q-79.3493 3.4766 -77.9274 3.4766 Q-76.5055 3.4766 -75.7789 2.5781 Q-75.0524 1.6797 -75.0524 -0.0703 Q-75.0524 -1.8047 -75.7789 -2.6953 Q-76.5055 -3.5859 -77.9274 -3.5859 Q-79.3493 -3.5859 -80.0914 -2.6875 Q-80.8336 -1.7891 -80.8336 -0.0703 Z" /><ns0:path style="stroke:none;" d="M-82.8805 4.2266 L-83.8805 4.2266 L-83.8805 0.1953 L-88.3961 0.1953 L-88.3961 4.2266 L-89.3961 4.2266 L-89.3961 -4.3359 L-88.3961 -4.3359 L-88.3961 -0.6953 L-83.8805 -0.6953 L-83.8805 -4.3359 L-82.8805 -4.3359 L-82.8805 4.2266 Z" /><ns0:path style="stroke:none;" d="M-48.0255 -45.0703 Q-48.0255 -43.0078 -49.0646 -41.8281 Q-50.1036 -40.6484 -51.9474 -40.6484 Q-53.838 -40.6484 -54.8693 -41.8125 Q-55.9005 -42.9766 -55.9005 -45.0859 Q-55.9005 -47.1797 -54.8693 -48.3281 Q-53.838 -49.4766 -51.9474 -49.4766 Q-50.088 -49.4766 -49.0568 -48.3047 Q-48.0255 -47.1328 -48.0255 -45.0703 ZM-54.8536 -45.0703 Q-54.8536 -43.3359 -54.1114 -42.4297 Q-53.3693 -41.5234 -51.9474 -41.5234 Q-50.5255 -41.5234 -49.7989 -42.4219 Q-49.0724 -43.3203 -49.0724 -45.0703 Q-49.0724 -46.8047 -49.7989 -47.6953 Q-50.5255 -48.5859 -51.9474 -48.5859 Q-53.3693 -48.5859 -54.1114 -47.6875 Q-54.8536 -46.7891 -54.8536 -45.0703 Z" /><ns0:path style="fill:none; stroke:black;" d="M51.53 -14.75 L51.963 -15 L52.396 -14.75" /></ns0:g></ns0:g></ns0:svg></ns0:svg><ns0:svg y="101" x="64" class="cas-substance-saf"><ns0:svg y="7" x="0" width="4" style="fill:black;" height="4" class="cas-substance-saf-dot"><ns0:circle stroke="none" r="2" fill="black" cy="2" cx="2" /></ns0:svg><ns0:svg y="4" x="7" width="12" style="fill:black;" height="12" class="cas-substance-saf-coefficient"><ns0:svg><ns0:g><ns0:g transform="translate(6,6)" style="text-rendering:geometricPrecision; font-family:'Open Sans'; color-interpolation:linearRGB; color-rendering:optimizeQuality; image-rendering:optimizeQuality;"><ns0:path style="stroke:none;" d="M-0.5625 -0.1953 L-2.7969 -3.3359 L-1.6875 -3.3359 L0 -0.8828 L1.6875 -3.3359 L2.7969 -3.3359 L0.5625 -0.1953 L2.9062 3.0859 L1.8125 3.0859 L0 0.4766 L-1.8125 3.0859 L-2.9062 3.0859 L-0.5625 -0.1953 Z" /></ns0:g></ns0:g></ns0:svg></ns0:svg><ns0:svg y="0" x="23" width="36" style="fill:black;" height="16" class="cas-substance-saf-image"><ns0:svg><ns0:g><ns0:g transform="translate(11,7)" style="text-rendering:geometricPrecision; font-family:'Open Sans'; color-interpolation:linearRGB; color-rendering:optimizeQuality; image-rendering:optimizeQuality;"><ns0:path style="stroke:none;" d="M-4.3232 4.1562 L-7.2295 -3.4375 L-7.2764 -3.4375 Q-7.1982 -2.5312 -7.1982 -1.2969 L-7.1982 4.1562 L-8.1201 4.1562 L-8.1201 -4.4062 L-6.6201 -4.4062 L-3.9014 2.6562 L-3.8545 2.6562 L-1.1201 -4.4062 L0.3643 -4.4062 L0.3643 4.1562 L-0.6201 4.1562 L-0.6201 -1.3594 Q-0.6201 -2.3125 -0.542 -3.4219 L-0.5889 -3.4219 L-3.5264 4.1562 L-4.3232 4.1562 ZM8.1201 0.9375 Q8.1201 2.5156 7.3311 3.3984 Q6.542 4.2812 5.1357 4.2812 Q4.2764 4.2812 3.6123 3.875 Q2.9482 3.4688 2.5811 2.7109 Q2.2139 1.9531 2.2139 0.9375 Q2.2139 -0.625 3.0029 -1.5078 Q3.792 -2.3906 5.1826 -2.3906 Q6.5264 -2.3906 7.3232 -1.4922 Q8.1201 -0.5938 8.1201 0.9375 ZM3.2295 0.9375 Q3.2295 2.1719 3.7217 2.8125 Q4.2139 3.4531 5.167 3.4531 Q6.1201 3.4531 6.6123 2.8125 Q7.1045 2.1719 7.1045 0.9375 Q7.1045 -0.2812 6.6123 -0.9219 Q6.1201 -1.5625 5.1514 -1.5625 Q4.1982 -1.5625 3.7139 -0.9297 Q3.2295 -0.2969 3.2295 0.9375 Z" /><ns0:path style="stroke:none;" d="M9.1201 0.875 Q9.1201 -0.6875 9.5732 -2.0391 Q10.0264 -3.3906 10.8857 -4.4062 L11.8232 -4.4062 Q10.9795 -3.2812 10.5576 -1.9297 Q10.1357 -0.5781 10.1357 0.8594 Q10.1357 2.2656 10.5732 3.6094 Q11.0107 4.9531 11.8232 6.0625 L10.8857 6.0625 Q10.0264 5.0625 9.5732 3.7266 Q9.1201 2.3906 9.1201 0.875 Z" /><ns0:path style="stroke:none;" d="M15.167 0.875 L12.9326 -2.2656 L14.042 -2.2656 L15.7295 0.1875 L17.417 -2.2656 L18.5264 -2.2656 L16.292 0.875 L18.6357 4.1562 L17.542 4.1562 L15.7295 1.5469 L13.917 4.1562 L12.8232 4.1562 L15.167 0.875 Z" /><ns0:path style="stroke:none;" d="M22.3545 0.875 Q22.3545 2.4062 21.8936 3.7422 Q21.4326 5.0781 20.5889 6.0625 L19.6514 6.0625 Q20.4639 4.9531 20.8936 3.6094 Q21.3232 2.2656 21.3232 0.8594 Q21.3232 -0.5781 20.9014 -1.9297 Q20.4795 -3.2812 19.6357 -4.4062 L20.5889 -4.4062 Q21.4482 -3.3906 21.9014 -2.0312 Q22.3545 -0.6719 22.3545 0.875 Z" /></ns0:g></ns0:g></ns0:svg></ns0:svg></ns0:svg></ns0:svg></ns0:svg></g></svg>