<svg width="212" viewBox="0 0 212 111" style="fill-opacity:1; color-rendering:auto; color-interpolation:auto; text-rendering:auto; stroke:black; stroke-linecap:square; stroke-miterlimit:10; shape-rendering:auto; stroke-opacity:1; fill:black; stroke-dasharray:none; font-weight:normal; stroke-width:1; font-family:'Open Sans'; font-style:normal; stroke-linejoin:miter; font-size:12; stroke-dashoffset:0; image-rendering:auto;" height="111" class="cas-substance-image" xmlns:xlink="http://www.w3.org/1999/xlink" xmlns="http://www.w3.org/2000/svg"><svg class="cas-substance-single-component"><rect y="0" x="0" width="212" stroke="none" ry="7" rx="7" height="111" fill="white" class="cas-substance-group"/><svg y="0" x="0" width="212" viewBox="0 0 212 111" style="fill:black;" height="111" class="cas-substance-single-component-image"><svg><g><g transform="translate(101,55)" style="text-rendering:geometricPrecision; color-rendering:optimizeQuality; color-interpolation:linearRGB; stroke-linecap:butt; image-rendering:optimizeQuality;"><line y2="-25.98" y1="0" x2="7.5" x1="-7.5" style="fill:none;"/><line y2="20.2524" y1="0" x2="4.1931" x1="-7.5" style="fill:none;"/><line y2="0" y1="0" x2="-37.5" x1="-7.5" style="fill:none;"/><line y2="-25.98" y1="-25.98" x2="32.1484" x1="7.5" style="fill:none;"/><line y2="51.963" y1="31.6282" x2="-7.5" x1="4.2393" style="fill:none;"/><line y2="25.98" y1="0" x2="-52.5" x1="-37.5" style="fill:none;"/><line y2="22.48" y1="-0.0001" x2="-54.5207" x1="-41.5415" style="fill:none;"/><line y2="-25.98" y1="0" x2="-52.5" x1="-37.5" style="fill:none;"/><line y2="25.98" y1="25.98" x2="-82.5" x1="-52.5" style="fill:none;"/><line y2="-25.98" y1="-25.98" x2="-82.5" x1="-52.5" style="fill:none;"/><line y2="-22.48" y1="-22.48" x2="-80.4793" x1="-54.5207" style="fill:none;"/><line y2="0" y1="25.98" x2="-97.5" x1="-82.5" style="fill:none;"/><line y2="-0.0001" y1="22.48" x2="-93.4585" x1="-80.4793" style="fill:none;"/><line y2="0" y1="-25.98" x2="-97.5" x1="-82.5" style="fill:none;"/><line y2="0" y1="-20.0917" x2="52.5" x1="40.8997" style="fill:none;"/><line y2="-51.963" y1="-32.1183" x2="52.5" x1="41.0437" style="fill:none;"/><line y2="0" y1="0" x2="82.5" x1="52.5" style="fill:none;"/><line y2="-51.963" y1="-51.963" x2="82.5" x1="52.5" style="fill:none;"/><line y2="-20.0917" y1="0" x2="94.1003" x1="82.5" style="fill:none;"/><line y2="-32.1183" y1="-51.963" x2="93.9563" x1="82.5" style="fill:none;"/><path style="fill:none; stroke-miterlimit:5;" d="M7.25 -25.547 L7.5 -25.98 L8 -25.98"/></g><g transform="translate(101,55)" style="stroke-linecap:butt; fill:rgb(230,0,0); text-rendering:geometricPrecision; color-rendering:optimizeQuality; image-rendering:optimizeQuality; font-family:'Open Sans'; stroke:rgb(230,0,0); color-interpolation:linearRGB; stroke-miterlimit:5;"><path style="stroke:none;" d="M11.4375 25.9097 Q11.4375 27.9722 10.3984 29.1519 Q9.3594 30.3316 7.5156 30.3316 Q5.625 30.3316 4.5938 29.1675 Q3.5625 28.0034 3.5625 25.8941 Q3.5625 23.8003 4.5938 22.6519 Q5.625 21.5034 7.5156 21.5034 Q9.375 21.5034 10.4062 22.6753 Q11.4375 23.8472 11.4375 25.9097 ZM4.6094 25.9097 Q4.6094 27.6441 5.3516 28.5503 Q6.0938 29.4566 7.5156 29.4566 Q8.9375 29.4566 9.6641 28.5581 Q10.3906 27.6597 10.3906 25.9097 Q10.3906 24.1753 9.6641 23.2847 Q8.9375 22.3941 7.5156 22.3941 Q6.0938 22.3941 5.3516 23.2925 Q4.6094 24.1909 4.6094 25.9097 Z"/><path style="fill:none; stroke:black;" d="M-37.75 0.433 L-37.5 0 L-37 0"/><path style="fill:none; stroke:black;" d="M-52.25 25.547 L-52.5 25.98 L-53 25.98"/><path style="fill:none; stroke:black;" d="M-52.25 -25.547 L-52.5 -25.98 L-53 -25.98"/><path style="fill:none; stroke:black;" d="M-82 25.98 L-82.5 25.98 L-82.75 25.547"/><path style="fill:none; stroke:black;" d="M-82 -25.98 L-82.5 -25.98 L-82.75 -25.547"/><path style="fill:none; stroke:black;" d="M-97.25 0.433 L-97.5 0 L-97.25 -0.433"/><path style="fill:rgb(0,5,255); stroke:none;" d="M40.8516 -21.8237 L39.7109 -21.8237 L35.0234 -29.0112 L34.9766 -29.0112 Q35.0703 -27.7456 35.0703 -26.6987 L35.0703 -21.8237 L34.1484 -21.8237 L34.1484 -30.3862 L35.2734 -30.3862 L39.9453 -23.23 L39.9922 -23.23 Q39.9922 -23.3862 39.9453 -24.2456 Q39.8984 -25.105 39.9141 -25.48 L39.9141 -30.3862 L40.8516 -30.3862 L40.8516 -21.8237 Z"/><path style="fill:none; stroke:black;" d="M52.25 -0.433 L52.5 0 L53 0"/><path style="fill:none; stroke:black;" d="M52.25 -51.53 L52.5 -51.963 L53 -51.963"/><path style="fill:none; stroke:black;" d="M82 -0 L82.5 0 L82.75 -0.433"/><path style="fill:none; stroke:black;" d="M82 -51.963 L82.5 -51.963 L82.75 -51.53"/><path style="fill:rgb(0,5,255); stroke:none;" d="M100.8516 -21.8237 L99.7109 -21.8237 L95.0234 -29.0112 L94.9766 -29.0112 Q95.0703 -27.7456 95.0703 -26.6987 L95.0703 -21.8237 L94.1484 -21.8237 L94.1484 -30.3862 L95.2734 -30.3862 L99.9453 -23.23 L99.9922 -23.23 Q99.9922 -23.3862 99.9453 -24.2456 Q99.8984 -25.105 99.9141 -25.48 L99.9141 -30.3862 L100.8516 -30.3862 L100.8516 -21.8237 Z"/><path style="fill:rgb(0,5,255); stroke:none;" d="M108.3672 -21.8237 L107.3672 -21.8237 L107.3672 -25.855 L102.8516 -25.855 L102.8516 -21.8237 L101.8516 -21.8237 L101.8516 -30.3862 L102.8516 -30.3862 L102.8516 -26.7456 L107.3672 -26.7456 L107.3672 -30.3862 L108.3672 -30.3862 L108.3672 -21.8237 Z"/></g></g></svg></svg></svg></svg>