<svg width="286" viewBox="0 0 286 183" style="fill-opacity:1; color-rendering:auto; color-interpolation:auto; text-rendering:auto; stroke:black; stroke-linecap:square; stroke-miterlimit:10; shape-rendering:auto; stroke-opacity:1; fill:black; stroke-dasharray:none; font-weight:normal; stroke-width:1; font-family:'Open Sans'; font-style:normal; stroke-linejoin:miter; font-size:12; stroke-dashoffset:0; image-rendering:auto;" height="183" class="cas-substance-image" xmlns:xlink="http://www.w3.org/1999/xlink" xmlns="http://www.w3.org/2000/svg"><svg class="cas-substance-single-component"><rect y="0" x="0" width="286" stroke="none" ry="7" rx="7" height="183" fill="white" class="cas-substance-group"/><svg y="0" x="0" width="286" viewBox="0 0 286 183" style="fill:black;" height="183" class="cas-substance-single-component-image"><svg><g><g transform="translate(138,92)" style="text-rendering:geometricPrecision; color-rendering:optimizeQuality; color-interpolation:linearRGB; stroke-linecap:butt; image-rendering:optimizeQuality;"><line y2="1.6378" y1="13.449" x2="-1.446" x1="-21.903" style="fill:none;"/><line y2="-1.551" y1="13.449" x2="-47.886" x1="-21.903" style="fill:none;"/><line y2="13.449" y1="1.6276" x2="30.057" x1="9.5824" style="fill:none;"/><line y2="1.3841" y1="13.449" x2="50.9534" x1="30.057" style="fill:none;"/><line y2="36.9724" y1="12.4386" x2="28.307" x1="28.307" style="fill:none;"/><line y2="36.9724" y1="12.4386" x2="31.807" x1="31.807" style="fill:none;"/><line y2="13.449" y1="1.3838" x2="82.02" x1="61.1206" style="fill:none;"/><line y2="-1.551" y1="13.449" x2="108" x1="82.02" style="fill:none;"/><path style="stroke:none;" d="M81.52 13.449 L82.52 13.449 L84.77 45.6141 L78.77 42.1499 Z"/><line y2="-31.551" y1="-1.551" x2="108" x1="108" style="fill:none;"/><line y2="58.449" y1="43.449" x2="108" x1="82.02" style="fill:none;"/><line y2="-43.3622" y1="-31.551" x2="128.457" x1="108" style="fill:none;"/><line y2="-44.8879" y1="-32.5614" x2="88.4004" x1="109.75" style="fill:none;"/><line y2="-41.8569" y1="-29.5303" x2="86.6503" x1="108" style="fill:none;"/><line y2="88.449" y1="58.449" x2="108" x1="108" style="fill:none;"/><line y2="88.449" y1="60.4697" x2="104.5" x1="104.5" style="fill:none;"/><line y2="-31.386" y1="-1.551" x2="-51.021" x1="-47.886" style="fill:none;"/><line y2="10.653" y1="-1.551" x2="-75.291" x1="-47.886" style="fill:none;"/><line y2="-37.623" y1="-31.386" x2="-80.364" x1="-51.021" style="fill:none;"/><line y2="-53.679" y1="-31.386" x2="-30.948" x1="-51.021" style="fill:none;"/><line y2="-54.5193" y1="-35.2297" x2="-34.9011" x1="-52.2699" style="fill:none;"/><line y2="-11.643" y1="10.653" x2="-95.364" x1="-75.291" style="fill:none;"/><line y2="39.183" y1="10.653" x2="-84.561" x1="-75.291" style="fill:none;"/><line y2="36.1796" y1="11.4933" x2="-87.2653" x1="-79.2441" style="fill:none;"/><line y2="-11.643" y1="-37.623" x2="-95.364" x1="-80.364" style="fill:none;"/><line y2="-66.156" y1="-37.623" x2="-89.637" x1="-80.364" style="fill:none;"/><line y2="-65.316" y1="-40.6266" x2="-85.6838" x1="-77.6599" style="fill:none;"/><line y2="-82.212" y1="-53.679" x2="-40.218" x1="-30.948" style="fill:none;"/><line y2="-5.406" y1="-11.643" x2="-124.71" x1="-95.364" style="fill:none;"/><line y2="-2.4026" y1="-7.7994" x2="-122.0058" x1="-96.613" style="fill:none;"/><line y2="45.42" y1="39.183" x2="-113.907" x1="-84.561" style="fill:none;"/><line y2="-88.449" y1="-66.156" x2="-69.561" x1="-89.637" style="fill:none;"/><line y2="-88.449" y1="-82.212" x2="-69.561" x1="-40.218" style="fill:none;"/><line y2="-84.6054" y1="-79.2086" x2="-68.3121" x1="-42.9223" style="fill:none;"/><line y2="23.127" y1="-5.406" x2="-133.98" x1="-124.71" style="fill:none;"/><line y2="23.127" y1="45.42" x2="-133.98" x1="-113.907" style="fill:none;"/><line y2="22.2867" y1="41.5763" x2="-130.0269" x1="-112.6581" style="fill:none;"/><path style="fill:none; stroke-miterlimit:5;" d="M-21.47 13.199 L-21.903 13.449 L-22.336 13.199"/></g><g transform="translate(138,92)" style="stroke-linecap:butt; fill:rgb(230,0,0); text-rendering:geometricPrecision; color-rendering:optimizeQuality; image-rendering:optimizeQuality; font-family:'Open Sans'; stroke:rgb(230,0,0); color-interpolation:linearRGB; stroke-miterlimit:5;"><path style="stroke:none;" d="M8.0145 -1.6213 Q8.0145 0.4412 6.9754 1.6209 Q5.9364 2.8006 4.0926 2.8006 Q2.202 2.8006 1.1708 1.6365 Q0.1395 0.4724 0.1395 -1.6369 Q0.1395 -3.7307 1.1708 -4.8791 Q2.202 -6.0276 4.0926 -6.0276 Q5.952 -6.0276 6.9833 -4.8557 Q8.0145 -3.6838 8.0145 -1.6213 ZM1.1864 -1.6213 Q1.1864 0.1131 1.9286 1.0193 Q2.6708 1.9256 4.0926 1.9256 Q5.5145 1.9256 6.2411 1.0271 Q6.9676 0.1287 6.9676 -1.6213 Q6.9676 -3.3557 6.2411 -4.2463 Q5.5145 -5.1369 4.0926 -5.1369 Q2.6708 -5.1369 1.9286 -4.2385 Q1.1864 -3.3401 1.1864 -1.6213 Z"/><path style="fill:none; stroke:black;" d="M29.624 13.199 L30.057 13.449 L30.49 13.199"/><path style="fill:rgb(0,5,255); stroke:none;" d="M59.3886 2.6052 L58.2479 2.6052 L53.5604 -4.5823 L53.5136 -4.5823 Q53.6073 -3.3166 53.6073 -2.2698 L53.6073 2.6052 L52.6854 2.6052 L52.6854 -5.9573 L53.8104 -5.9573 L58.4823 1.199 L58.5292 1.199 Q58.5292 1.0427 58.4823 0.1834 Q58.4354 -0.676 58.4511 -1.051 L58.4511 -5.9573 L59.3886 -5.9573 L59.3886 2.6052 Z"/><path style="fill:rgb(0,5,255); stroke:none;" d="M59.2948 -6.9573 L58.2948 -6.9573 L58.2948 -10.9885 L53.7792 -10.9885 L53.7792 -6.9573 L52.7792 -6.9573 L52.7792 -15.5198 L53.7792 -15.5198 L53.7792 -11.8791 L58.2948 -11.8791 L58.2948 -15.5198 L59.2948 -15.5198 L59.2948 -6.9573 Z"/><path style="stroke:none;" d="M33.9945 43.3787 Q33.9945 45.4412 32.9554 46.6209 Q31.9164 47.8006 30.0726 47.8006 Q28.182 47.8006 27.1507 46.6365 Q26.1195 45.4724 26.1195 43.3631 Q26.1195 41.2693 27.1507 40.1209 Q28.182 38.9724 30.0726 38.9724 Q31.932 38.9724 32.9632 40.1443 Q33.9945 41.3162 33.9945 43.3787 ZM27.1664 43.3787 Q27.1664 45.1131 27.9086 46.0193 Q28.6507 46.9256 30.0726 46.9256 Q31.4945 46.9256 32.2211 46.0271 Q32.9476 45.1287 32.9476 43.3787 Q32.9476 41.6443 32.2211 40.7537 Q31.4945 39.8631 30.0726 39.8631 Q28.6507 39.8631 27.9086 40.7615 Q27.1664 41.6599 27.1664 43.3787 Z"/></g><g transform="translate(138,92)" style="stroke-linecap:butt; font-size:8.4px; fill:gray; text-rendering:geometricPrecision; image-rendering:optimizeQuality; color-rendering:optimizeQuality; font-family:'Open Sans'; font-style:italic; stroke:gray; color-interpolation:linearRGB; stroke-miterlimit:5;"><path style="stroke:none;" d="M77.6311 4.6131 Q77.6311 3.2849 78.0999 2.1599 Q78.5686 1.0349 79.5999 -0.0432 L80.2092 -0.0432 Q79.2405 1.0193 78.7561 2.1912 Q78.2717 3.3631 78.2717 4.5974 Q78.2717 5.9256 78.7092 6.9412 L78.1936 6.9412 Q77.6311 5.9099 77.6311 4.6131 ZM81.1912 3.3006 L80.6912 5.6756 L80.0349 5.6756 L81.238 -0.0432 L82.488 -0.0432 Q84.2224 -0.0432 84.2224 1.3943 Q84.2224 2.7537 82.7849 3.1443 L83.7224 5.6756 L83.0037 5.6756 L82.1755 3.3006 L81.1912 3.3006 ZM81.7693 0.5506 Q81.3787 2.4724 81.3162 2.7224 L81.9724 2.7224 Q82.7224 2.7224 83.1287 2.3943 Q83.5349 2.0662 83.5349 1.4412 Q83.5349 0.9724 83.2771 0.7615 Q83.0193 0.5506 82.4255 0.5506 L81.7693 0.5506 ZM86.4084 2.3006 Q86.4084 3.6287 85.9318 4.7615 Q85.4553 5.8943 84.4396 6.9412 L83.8303 6.9412 Q85.7678 4.7849 85.7678 2.3006 Q85.7678 0.9724 85.3303 -0.0432 L85.8459 -0.0432 Q86.4084 1.0193 86.4084 2.3006 Z"/><path style="fill:none; stroke:black;" d="M107.567 -1.301 L108 -1.551 L108 -2.051"/><path style="fill:none; stroke:black;" d="M108 -31.051 L108 -31.551 L108.433 -31.801"/><path style="fill:none; stroke:black;" d="M107.567 58.199 L108 58.449 L108 58.949"/></g><g transform="translate(138,92)" style="stroke-linecap:butt; fill:rgb(230,0,0); text-rendering:geometricPrecision; color-rendering:optimizeQuality; image-rendering:optimizeQuality; font-family:'Open Sans'; stroke:rgb(230,0,0); color-interpolation:linearRGB; stroke-miterlimit:5;"><path style="stroke:none;" d="M137.9175 -46.6213 Q137.9175 -44.5588 136.8784 -43.3791 Q135.8394 -42.1994 133.9956 -42.1994 Q132.105 -42.1994 131.0737 -43.3635 Q130.0425 -44.5276 130.0425 -46.6369 Q130.0425 -48.7307 131.0737 -49.8791 Q132.105 -51.0276 133.9956 -51.0276 Q135.855 -51.0276 136.8862 -49.8557 Q137.9175 -48.6838 137.9175 -46.6213 ZM131.0894 -46.6213 Q131.0894 -44.8869 131.8316 -43.9807 Q132.5737 -43.0744 133.9956 -43.0744 Q135.4175 -43.0744 136.1441 -43.9729 Q136.8706 -44.8713 136.8706 -46.6213 Q136.8706 -48.3557 136.1441 -49.2463 Q135.4175 -50.1369 133.9956 -50.1369 Q132.5737 -50.1369 131.8316 -49.2385 Q131.0894 -48.3401 131.0894 -46.6213 Z"/><path style="stroke:none;" d="M145.4331 -42.3244 L144.4331 -42.3244 L144.4331 -46.3557 L139.9175 -46.3557 L139.9175 -42.3244 L138.9175 -42.3244 L138.9175 -50.8869 L139.9175 -50.8869 L139.9175 -47.2463 L144.4331 -47.2463 L144.4331 -50.8869 L145.4331 -50.8869 L145.4331 -42.3244 Z"/><path style="stroke:none;" d="M85.9575 -46.6213 Q85.9575 -44.5588 84.9184 -43.3791 Q83.8794 -42.1994 82.0356 -42.1994 Q80.145 -42.1994 79.1137 -43.3635 Q78.0825 -44.5276 78.0825 -46.6369 Q78.0825 -48.7307 79.1137 -49.8791 Q80.145 -51.0276 82.0356 -51.0276 Q83.895 -51.0276 84.9262 -49.8557 Q85.9575 -48.6838 85.9575 -46.6213 ZM79.1294 -46.6213 Q79.1294 -44.8869 79.8716 -43.9807 Q80.6137 -43.0744 82.0356 -43.0744 Q83.4575 -43.0744 84.1841 -43.9729 Q84.9106 -44.8713 84.9106 -46.6213 Q84.9106 -48.3557 84.1841 -49.2463 Q83.4575 -50.1369 82.0356 -50.1369 Q80.6137 -50.1369 79.8716 -49.2385 Q79.1294 -48.3401 79.1294 -46.6213 Z"/><path style="fill:none; stroke:black;" d="M-50.6864 -31.7576 L-51.021 -31.386 L-50.9688 -30.8887"/><path style="fill:none; stroke:black;" d="M-75.4455 11.1285 L-75.291 10.653 L-75.6255 10.2814"/><path style="fill:none; stroke:black;" d="M-80.5185 -38.0985 L-80.364 -37.623 L-79.8749 -37.519"/><path style="fill:none; stroke:black;" d="M-31.2826 -53.3074 L-30.948 -53.679 L-31.1025 -54.1545"/><path style="fill:none; stroke:black;" d="M-95.8531 -11.5391 L-95.364 -11.643 L-95.114 -12.076"/><path style="fill:none; stroke:black;" d="M-84.4065 38.7075 L-84.561 39.183 L-85.0501 39.2869"/><path style="fill:none; stroke:black;" d="M-89.4825 -65.6805 L-89.637 -66.156 L-89.3024 -66.5275"/><path style="fill:none; stroke:black;" d="M-40.0635 -81.7365 L-40.218 -82.212 L-40.7071 -82.316"/><path style="fill:none; stroke:black;" d="M-124.2209 -5.5099 L-124.71 -5.406 L-124.8645 -4.9305"/><path style="fill:none; stroke:black;" d="M-113.4179 45.3161 L-113.907 45.42 L-114.2416 45.0484"/><path style="fill:none; stroke:black;" d="M-69.8956 -88.0775 L-69.561 -88.449 L-69.0719 -88.345"/><path style="fill:none; stroke:black;" d="M-133.8255 22.6515 L-133.98 23.127 L-133.6454 23.4986"/></g></g></svg></svg></svg></svg>