<svg width="133" viewBox="0 0 133 87" style="fill-opacity:1; color-rendering:auto; color-interpolation:auto; text-rendering:auto; stroke:black; stroke-linecap:square; stroke-miterlimit:10; shape-rendering:auto; stroke-opacity:1; fill:black; stroke-dasharray:none; font-weight:normal; stroke-width:1; font-family:'Open Sans'; font-style:normal; stroke-linejoin:miter; font-size:12; stroke-dashoffset:0; image-rendering:auto;" height="87" class="cas-substance-image" xmlns:xlink="http://www.w3.org/1999/xlink" xmlns="http://www.w3.org/2000/svg"><svg class="cas-substance-single-component"><rect y="0" x="0" width="133" stroke="none" ry="7" rx="7" height="87" fill="white" class="cas-substance-group"/><svg y="0" x="0" width="133" viewBox="0 0 133 87" style="fill:black;" height="87" class="cas-substance-single-component-image"><svg><g><g transform="translate(66,42)" style="text-rendering:geometricPrecision; color-rendering:optimizeQuality; color-interpolation:linearRGB; stroke-linecap:butt; image-rendering:optimizeQuality;"><line y2="6.8105" y1="31.6054" x2="-36.785" x1="-36.785" style="fill:none;"/><line y2="6.8106" y1="31.6054" x2="-40.285" x1="-40.285" style="fill:none;"/><line y2="8.082" y1="-9.552" x2="-38.535" x1="-14.265" style="fill:none;"/><line y2="-38.082" y1="-9.552" x2="-23.535" x1="-14.265" style="fill:none;"/><line y2="-0.279" y1="-9.552" x2="14.265" x1="-14.265" style="fill:none;"/><line y2="-9.552" y1="8.082" x2="-62.808" x1="-38.535" style="fill:none;"/><line y2="-38.082" y1="-38.082" x2="-53.535" x1="-23.535" style="fill:none;"/><line y2="-38.082" y1="-9.552" x2="-53.535" x1="-62.808" style="fill:none;"/><line y2="28.251" y1="-0.279" x2="23.535" x1="14.265" style="fill:none;"/><line y2="-17.913" y1="-0.279" x2="38.535" x1="14.265" style="fill:none;"/><line y2="28.251" y1="28.251" x2="53.535" x1="23.535" style="fill:none;"/><line y2="-0.279" y1="-17.913" x2="62.808" x1="38.535" style="fill:none;"/><line y2="-0.279" y1="28.251" x2="62.808" x1="53.535" style="fill:none;"/></g><g transform="translate(66,42)" style="fill:rgb(230,0,0); text-rendering:geometricPrecision; color-rendering:optimizeQuality; image-rendering:optimizeQuality; font-family:'Open Sans'; stroke:rgb(230,0,0); color-interpolation:linearRGB;"><path style="stroke:none;" d="M-34.5975 38.0117 Q-34.5975 40.0742 -35.6366 41.2539 Q-36.6756 42.4336 -38.5194 42.4336 Q-40.41 42.4336 -41.4412 41.2695 Q-42.4725 40.1054 -42.4725 37.9961 Q-42.4725 35.9023 -41.4412 34.7539 Q-40.41 33.6054 -38.5194 33.6054 Q-36.66 33.6054 -35.6287 34.7773 Q-34.5975 35.9492 -34.5975 38.0117 ZM-41.4256 38.0117 Q-41.4256 39.7461 -40.6834 40.6523 Q-39.9412 41.5586 -38.5194 41.5586 Q-37.0975 41.5586 -36.3709 40.6601 Q-35.6444 39.7617 -35.6444 38.0117 Q-35.6444 36.2773 -36.3709 35.3867 Q-37.0975 34.4961 -38.5194 34.4961 Q-39.9412 34.4961 -40.6834 35.3945 Q-41.4256 36.2929 -41.4256 38.0117 Z"/></g><g transform="translate(66,42)" style="stroke-linecap:butt; text-rendering:geometricPrecision; color-rendering:optimizeQuality; image-rendering:optimizeQuality; font-family:'Open Sans'; color-interpolation:linearRGB; stroke-miterlimit:5;"><path style="fill:none;" d="M-38.1305 7.7881 L-38.535 8.082 L-38.9395 7.7881"/><path style="fill:none;" d="M-23.3805 -37.6065 L-23.535 -38.082 L-24.035 -38.082"/><path style="fill:none;" d="M-62.4035 -9.2581 L-62.808 -9.552 L-62.6535 -10.0275"/><path style="fill:none;" d="M-53.035 -38.082 L-53.535 -38.082 L-53.6896 -37.6065"/><path style="fill:none;" d="M23.3805 27.7755 L23.535 28.251 L24.035 28.251"/><path style="fill:none;" d="M38.1305 -17.6191 L38.535 -17.913 L38.9395 -17.6191"/><path style="fill:none;" d="M53.035 28.251 L53.535 28.251 L53.6896 27.7755"/><path style="fill:none;" d="M62.4035 -0.5729 L62.808 -0.279 L62.6534 0.1965"/></g></g></svg></svg></svg></svg>