<svg xmlns:ns0="http://www.w3.org/2000/svg" xmlns="http://www.w3.org/2000/svg"><g transform="translate(0, 0)"><ns0:svg width="333" viewBox="0 0 333 167" style="fill-opacity:1; color-rendering:auto; color-interpolation:auto; text-rendering:auto; stroke:black; stroke-linecap:square; stroke-miterlimit:10; shape-rendering:auto; stroke-opacity:1; fill:black; stroke-dasharray:none; font-weight:normal; stroke-width:1; font-family:'Open Sans'; font-style:normal; stroke-linejoin:miter; font-size:12; stroke-dashoffset:0; image-rendering:auto;" height="167" class="cas-substance-image"><ns0:svg class="cas-substance-single-component"><ns0:rect y="0" x="0" width="333" stroke="none" ry="7" rx="7" height="167" fill="white" class="cas-substance-group" /><ns0:svg y="0" x="0" width="333" viewBox="0 0 333 167" style="fill:black;" height="167" class="cas-substance-single-component-image"><ns0:svg><ns0:g><ns0:g transform="translate(161,81)" style="text-rendering:geometricPrecision; color-rendering:optimizeQuality; color-interpolation:linearRGB; stroke-linecap:butt; image-rendering:optimizeQuality;"><ns0:line y2="0" y1="25.98" x2="22.5" x1="37.5" style="fill:none;" /><ns0:line y2="3.5" y1="25.9801" x2="20.4793" x1="33.4585" style="fill:none;" /></ns0:g><ns0:g transform="translate(161,81)" style="stroke-linecap:butt; font-size:8.4px; fill:gray; text-rendering:geometricPrecision; image-rendering:optimizeQuality; color-rendering:optimizeQuality; font-family:'Open Sans'; font-style:italic; stroke:gray; color-interpolation:linearRGB;"><ns0:path style="stroke:none;" d="M34.5128 9.154 Q34.5128 7.8258 34.9816 6.7008 Q35.4503 5.5758 36.4816 4.4977 L37.0909 4.4977 Q36.1222 5.5602 35.6378 6.7321 Q35.1534 7.904 35.1534 9.1383 Q35.1534 10.4665 35.5909 11.4821 L35.0753 11.4821 Q34.5128 10.4508 34.5128 9.154 ZM39.776 10.2165 L36.9166 10.2165 L38.1198 4.4977 L40.9948 4.4977 L40.8698 5.1071 L38.651 5.1071 L38.276 6.9352 L40.3229 6.9352 L40.2135 7.529 L38.151 7.529 L37.6979 9.6227 L39.9166 9.6227 L39.776 10.2165 ZM42.8076 6.8415 Q42.8076 8.1696 42.331 9.3024 Q41.8544 10.4352 40.8388 11.4821 L40.2294 11.4821 Q42.1669 9.3258 42.1669 6.8415 Q42.1669 5.5133 41.7294 4.4977 L42.2451 4.4977 Q42.8076 5.5602 42.8076 6.8415 Z" /><ns0:line y2="25.98" y1="25.98" x2="67.5" x1="37.5" style="fill:none; stroke:black;" /><ns0:line y2="0" y1="0" x2="-7.5" x1="22.5" style="fill:none; stroke:black;" /><ns0:line y2="-20.3443" y1="0" x2="-19.2461" x1="-7.5" style="fill:none; stroke:black;" /><ns0:line y2="19.3833" y1="-1.75" x2="-20.712" x1="-8.5104" style="fill:none; stroke:black;" /><ns0:line y2="21.1333" y1="0" x2="-17.681" x1="-5.4793" style="fill:none; stroke:black;" /><ns0:line y2="-25.98" y1="-25.98" x2="-52.5" x1="-28.4375" style="fill:none; stroke:black;" /><ns0:line y2="-51.963" y1="-25.98" x2="-67.5" x1="-52.5" style="fill:none; stroke:black;" /><ns0:line y2="-51.963" y1="-51.963" x2="-97.5" x1="-67.5" style="fill:none; stroke:black;" /><ns0:line y2="51.963" y1="72.2154" x2="112.5" x1="124.1931" style="fill:none; stroke:black;" /><ns0:line y2="25.98" y1="25.98" x2="127.5" x1="151.5625" style="fill:none; stroke:black;" /><ns0:line y2="51.963" y1="25.98" x2="82.5" x1="67.5" style="fill:none; stroke:black;" /><ns0:line y2="48.4631" y1="25.9802" x2="84.5209" x1="71.5415" style="fill:none; stroke:black;" /><ns0:line y2="0" y1="25.98" x2="82.5" x1="67.5" style="fill:none; stroke:black;" /><ns0:line y2="51.963" y1="51.963" x2="112.5" x1="82.5" style="fill:none; stroke:black;" /><ns0:line y2="0" y1="0" x2="112.5" x1="82.5" style="fill:none; stroke:black;" /><ns0:line y2="3.5" y1="3.5" x2="110.4793" x1="84.5207" style="fill:none; stroke:black;" /><ns0:line y2="25.98" y1="51.963" x2="127.5" x1="112.5" style="fill:none; stroke:black;" /><ns0:line y2="25.9802" y1="48.4631" x2="123.4585" x1="110.4791" style="fill:none; stroke:black;" /><ns0:line y2="25.98" y1="0" x2="127.5" x1="112.5" style="fill:none; stroke:black;" /><ns0:line y2="-25.98" y1="-51.963" x2="-112.5" x1="-97.5" style="fill:none; stroke:black;" /><ns0:line y2="-29.4799" y1="-51.9628" x2="-114.5209" x1="-101.5415" style="fill:none; stroke:black;" /><ns0:line y2="-77.943" y1="-51.963" x2="-112.5" x1="-97.5" style="fill:none; stroke:black;" /><ns0:line y2="-25.98" y1="-25.98" x2="-142.5" x1="-112.5" style="fill:none; stroke:black;" /><ns0:line y2="-77.943" y1="-77.943" x2="-142.5" x1="-112.5" style="fill:none; stroke:black;" /><ns0:line y2="-74.443" y1="-74.443" x2="-140.4793" x1="-114.5207" style="fill:none; stroke:black;" /><ns0:line y2="-51.963" y1="-25.98" x2="-157.5" x1="-142.5" style="fill:none; stroke:black;" /><ns0:line y2="-51.9628" y1="-29.4799" x2="-153.4585" x1="-140.4791" style="fill:none; stroke:black;" /><ns0:line y2="-51.963" y1="-77.943" x2="-157.5" x1="-142.5" style="fill:none; stroke:black;" /><ns0:path style="fill:none; stroke-miterlimit:5; stroke:black;" d="M37.25 25.547 L37.5 25.98 L38 25.98" /><ns0:path style="fill:none; stroke-miterlimit:5; stroke:black;" d="M22.75 0.433 L22.5 0 L22 -0" /><ns0:path style="fill:none; stroke-miterlimit:5; stroke:black;" d="M-7 0 L-7.5 0 L-7.75 -0.433" /></ns0:g><ns0:g transform="translate(161,81)" style="stroke-linecap:butt; fill:rgb(230,0,0); text-rendering:geometricPrecision; color-rendering:optimizeQuality; image-rendering:optimizeQuality; font-family:'Open Sans'; stroke:rgb(230,0,0); color-interpolation:linearRGB; stroke-miterlimit:5;"><ns0:path style="stroke:none;" d="M-18.5625 -26.0503 Q-18.5625 -23.9878 -19.6016 -22.8081 Q-20.6406 -21.6284 -22.4844 -21.6284 Q-24.375 -21.6284 -25.4062 -22.7925 Q-26.4375 -23.9566 -26.4375 -26.0659 Q-26.4375 -28.1597 -25.4062 -29.3081 Q-24.375 -30.4566 -22.4844 -30.4566 Q-20.625 -30.4566 -19.5938 -29.2847 Q-18.5625 -28.1128 -18.5625 -26.0503 ZM-25.3906 -26.0503 Q-25.3906 -24.3159 -24.6484 -23.4097 Q-23.9062 -22.5034 -22.4844 -22.5034 Q-21.0625 -22.5034 -20.3359 -23.4019 Q-19.6094 -24.3003 -19.6094 -26.0503 Q-19.6094 -27.7847 -20.3359 -28.6753 Q-21.0625 -29.5659 -22.4844 -29.5659 Q-23.9062 -29.5659 -24.6484 -28.6675 Q-25.3906 -27.7691 -25.3906 -26.0503 Z" /><ns0:path style="stroke:none;" d="M-18.5625 25.9097 Q-18.5625 27.9722 -19.6016 29.1519 Q-20.6406 30.3316 -22.4844 30.3316 Q-24.375 30.3316 -25.4062 29.1675 Q-26.4375 28.0034 -26.4375 25.8941 Q-26.4375 23.8003 -25.4062 22.6519 Q-24.375 21.5034 -22.4844 21.5034 Q-20.625 21.5034 -19.5938 22.6753 Q-18.5625 23.8472 -18.5625 25.9097 ZM-25.3906 25.9097 Q-25.3906 27.6441 -24.6484 28.5503 Q-23.9062 29.4566 -22.4844 29.4566 Q-21.0625 29.4566 -20.3359 28.5581 Q-19.6094 27.6597 -19.6094 25.9097 Q-19.6094 24.1753 -20.3359 23.2847 Q-21.0625 22.3941 -22.4844 22.3941 Q-23.9062 22.3941 -24.6484 23.2925 Q-25.3906 24.1909 -25.3906 25.9097 Z" /><ns0:path style="fill:none; stroke:black;" d="M-52 -25.98 L-52.5 -25.98 L-52.75 -26.413" /><ns0:path style="fill:none; stroke:black;" d="M-67.25 -51.53 L-67.5 -51.963 L-68 -51.963" /><ns0:path style="stroke:none;" d="M131.4375 77.8727 Q131.4375 79.9352 130.3984 81.1149 Q129.3594 82.2946 127.5156 82.2946 Q125.625 82.2946 124.5938 81.1305 Q123.5625 79.9664 123.5625 77.8571 Q123.5625 75.7633 124.5938 74.6149 Q125.625 73.4664 127.5156 73.4664 Q129.375 73.4664 130.4062 74.6383 Q131.4375 75.8102 131.4375 77.8727 ZM124.6094 77.8727 Q124.6094 79.6071 125.3516 80.5133 Q126.0938 81.4196 127.5156 81.4196 Q128.9375 81.4196 129.6641 80.5211 Q130.3906 79.6227 130.3906 77.8727 Q130.3906 76.1383 129.6641 75.2477 Q128.9375 74.3571 127.5156 74.3571 Q126.0938 74.3571 125.3516 75.2555 Q124.6094 76.1539 124.6094 77.8727 Z" /><ns0:path style="stroke:none;" d="M138.9531 82.1696 L137.9531 82.1696 L137.9531 78.1383 L133.4375 78.1383 L133.4375 82.1696 L132.4375 82.1696 L132.4375 73.6071 L133.4375 73.6071 L133.4375 77.2477 L137.9531 77.2477 L137.9531 73.6071 L138.9531 73.6071 L138.9531 82.1696 Z" /><ns0:path style="stroke:none;" d="M161.4375 25.9097 Q161.4375 27.9722 160.3984 29.1519 Q159.3594 30.3316 157.5156 30.3316 Q155.625 30.3316 154.5938 29.1675 Q153.5625 28.0034 153.5625 25.8941 Q153.5625 23.8003 154.5938 22.6519 Q155.625 21.5034 157.5156 21.5034 Q159.375 21.5034 160.4062 22.6753 Q161.4375 23.8472 161.4375 25.9097 ZM154.6094 25.9097 Q154.6094 27.6441 155.3516 28.5503 Q156.0938 29.4566 157.5156 29.4566 Q158.9375 29.4566 159.6641 28.5581 Q160.3906 27.6597 160.3906 25.9097 Q160.3906 24.1753 159.6641 23.2847 Q158.9375 22.3941 157.5156 22.3941 Q156.0938 22.3941 155.3516 23.2925 Q154.6094 24.1909 154.6094 25.9097 Z" /><ns0:path style="stroke:none;" d="M168.9531 30.2066 L167.9531 30.2066 L167.9531 26.1753 L163.4375 26.1753 L163.4375 30.2066 L162.4375 30.2066 L162.4375 21.6441 L163.4375 21.6441 L163.4375 25.2847 L167.9531 25.2847 L167.9531 21.6441 L168.9531 21.6441 L168.9531 30.2066 Z" /><ns0:path style="fill:none; stroke:black;" d="M67.75 26.413 L67.5 25.98 L67 25.98" /><ns0:path style="fill:none; stroke:black;" d="M82.25 51.53 L82.5 51.963 L83 51.963" /><ns0:path style="fill:none; stroke:black;" d="M82.25 0.433 L82.5 0 L83 0" /><ns0:path style="fill:none; stroke:black;" d="M112.75 51.53 L112.5 51.963 L112.75 52.396" /><ns0:path style="fill:none; stroke:black;" d="M112 -0 L112.5 0 L112.75 0.433" /><ns0:path style="fill:none; stroke:black;" d="M127.25 26.413 L127.5 25.98 L128 25.98" /><ns0:path style="fill:none; stroke:black;" d="M-97.75 -51.53 L-97.5 -51.963 L-97 -51.963" /><ns0:path style="fill:none; stroke:black;" d="M-112.25 -26.413 L-112.5 -25.98 L-113 -25.98" /><ns0:path style="fill:none; stroke:black;" d="M-112.25 -77.51 L-112.5 -77.943 L-113 -77.943" /><ns0:path style="fill:none; stroke:black;" d="M-142 -25.98 L-142.5 -25.98 L-142.75 -26.413" /><ns0:path style="fill:none; stroke:black;" d="M-142 -77.943 L-142.5 -77.943 L-142.75 -77.51" /><ns0:path style="fill:none; stroke:black;" d="M-157.25 -51.53 L-157.5 -51.963 L-157.25 -52.396" /></ns0:g></ns0:g></ns0:svg></ns0:svg></ns0:svg></ns0:svg></g></svg>