<svg width="266" viewBox="0 0 266 145" style="fill-opacity:1; color-rendering:auto; color-interpolation:auto; text-rendering:auto; stroke:black; stroke-linecap:square; stroke-miterlimit:10; shape-rendering:auto; stroke-opacity:1; fill:black; stroke-dasharray:none; font-weight:normal; stroke-width:1; font-family:'Open Sans'; font-style:normal; stroke-linejoin:miter; font-size:12; stroke-dashoffset:0; image-rendering:auto;" height="145" class="cas-substance-image" xmlns:xlink="http://www.w3.org/1999/xlink" xmlns="http://www.w3.org/2000/svg"><svg class="cas-substance-single-component"><rect y="0" x="0" width="266" stroke="none" ry="7" rx="7" height="145" fill="white" class="cas-substance-group"/><svg y="0" x="0" width="266" viewBox="0 0 266 145" style="fill:black;" height="145" class="cas-substance-single-component-image"><svg><g><g transform="translate(127,72)" style="text-rendering:geometricPrecision; color-rendering:optimizeQuality; color-interpolation:linearRGB; stroke-linecap:butt; image-rendering:optimizeQuality;"><line y2="12.99" y1="-12.99" x2="-15" x1="0" style="fill:none;"/><line y2="-12.99" y1="-12.99" x2="24.6484" x1="0" style="fill:none;"/><line y2="12.99" y1="12.99" x2="-39.0625" x1="-15" style="fill:none;"/><path style="stroke:none;" d="M-15.433 13.24 L-14.567 12.74 L2.165 36.2199 L-1.2989 42.2201 Z"/><line y2="-12.99" y1="7.2624" x2="-60" x1="-48.3069" style="fill:none;"/><line y2="59.2311" y1="38.97" x2="-11.6967" x1="0" style="fill:none;"/><line y2="-12.99" y1="-12.99" x2="-85.8487" x1="-60" style="fill:none;"/><line y2="-14.74" y1="-14.74" x2="-114.0625" x1="-94.7188" style="fill:none;"/><line y2="-11.24" y1="-11.24" x2="-114.0625" x1="-94.7188" style="fill:none;"/><line y2="-36.6384" y1="-19.3962" x2="-90" x1="-90" style="fill:none;"/><line y2="10.5334" y1="-8.6796" x2="-90" x1="-90" style="fill:none;"/><line y2="-37.22" y1="-58.4421" x2="43.9896" x1="31.7381" style="fill:none;"/><line y2="-38.97" y1="-60.192" x2="47.0207" x1="34.7692" style="fill:none;"/><line y2="-12.99" y1="-12.99" x2="90" x1="114.6484" style="fill:none;"/><line y2="-38.97" y1="-19.1283" x2="45" x1="33.544" style="fill:none;"/><line y2="12.99" y1="-7.1017" x2="45" x1="33.3997" style="fill:none;"/><line y2="-38.97" y1="-38.97" x2="69.6484" x1="45" style="fill:none;"/><line y2="12.99" y1="12.99" x2="75" x1="45" style="fill:none;"/><line y2="9.49" y1="9.49" x2="72.9793" x1="47.0207" style="fill:none;"/><line y2="-12.99" y1="-33.0817" x2="90" x1="78.3997" style="fill:none;"/><line y2="-12.9899" y1="-31.3317" x2="85.9585" x1="75.3686" style="fill:none;"/><line y2="-12.99" y1="12.99" x2="90" x1="75" style="fill:none;"/><path style="fill:none; stroke-miterlimit:5;" d="M-0.25 -12.557 L0 -12.99 L0.5 -12.99"/></g><g transform="translate(127,72)" style="stroke-linecap:butt; font-size:8.4px; fill:gray; text-rendering:geometricPrecision; image-rendering:optimizeQuality; color-rendering:optimizeQuality; font-family:'Open Sans'; font-style:italic; stroke:gray; color-interpolation:linearRGB; stroke-miterlimit:5;"><path style="stroke:none;" d="M-24.1083 5.5327 Q-24.1083 4.2046 -23.6396 3.0796 Q-23.1708 1.9546 -22.1396 0.8765 L-21.5302 0.8765 Q-22.4989 1.939 -22.9833 3.1109 Q-23.4677 4.2827 -23.4677 5.5171 Q-23.4677 6.8452 -23.0302 7.8609 L-23.5458 7.8609 Q-24.1083 6.8296 -24.1083 5.5327 ZM-18.4857 4.939 Q-18.4857 5.7671 -19.0326 6.2202 Q-19.5795 6.6734 -20.5795 6.6734 Q-20.9857 6.6734 -21.2982 6.6187 Q-21.6107 6.564 -21.892 6.4234 L-21.892 5.7671 Q-21.267 6.0952 -20.5639 6.0952 Q-19.9389 6.0952 -19.5639 5.7984 Q-19.1889 5.5015 -19.1889 4.9859 Q-19.1889 4.6734 -19.392 4.4468 Q-19.5951 4.2202 -20.1576 3.8921 Q-20.7514 3.564 -20.9779 3.2359 Q-21.2045 2.9077 -21.2045 2.4546 Q-21.2045 1.7202 -20.6889 1.2593 Q-20.1732 0.7984 -19.3295 0.7984 Q-18.9545 0.7984 -18.6186 0.8765 Q-18.2826 0.9546 -17.9076 1.1265 L-18.1732 1.7202 Q-18.4232 1.564 -18.7436 1.4781 Q-19.0639 1.3921 -19.3295 1.3921 Q-19.8607 1.3921 -20.1811 1.6656 Q-20.5014 1.939 -20.5014 2.4077 Q-20.5014 2.6109 -20.4311 2.7593 Q-20.3607 2.9077 -20.2201 3.0406 Q-20.0795 3.1734 -19.6576 3.4234 Q-19.0951 3.7671 -18.892 3.9624 Q-18.6889 4.1577 -18.5873 4.3921 Q-18.4857 4.6265 -18.4857 4.939 ZM-15.8913 3.2202 Q-15.8913 4.5484 -16.3678 5.6812 Q-16.8444 6.814 -17.86 7.8609 L-18.4694 7.8609 Q-16.5319 5.7046 -16.5319 3.2202 Q-16.5319 1.8921 -16.9694 0.8765 L-16.4538 0.8765 Q-15.8913 1.939 -15.8913 3.2202 Z"/></g><g transform="translate(127,72)" style="stroke-linecap:butt; fill:rgb(230,0,0); text-rendering:geometricPrecision; color-rendering:optimizeQuality; image-rendering:optimizeQuality; font-family:'Open Sans'; stroke:rgb(230,0,0); color-interpolation:linearRGB; stroke-miterlimit:5;"><path style="stroke:none;" d="M-41.0625 12.9197 Q-41.0625 14.9822 -42.1016 16.1619 Q-43.1406 17.3416 -44.9844 17.3416 Q-46.875 17.3416 -47.9062 16.1775 Q-48.9375 15.0134 -48.9375 12.9041 Q-48.9375 10.8103 -47.9062 9.6619 Q-46.875 8.5134 -44.9844 8.5134 Q-43.125 8.5134 -42.0938 9.6853 Q-41.0625 10.8572 -41.0625 12.9197 ZM-47.8906 12.9197 Q-47.8906 14.6541 -47.1484 15.5603 Q-46.4062 16.4666 -44.9844 16.4666 Q-43.5625 16.4666 -42.8359 15.5681 Q-42.1094 14.6697 -42.1094 12.9197 Q-42.1094 11.1853 -42.8359 10.2947 Q-43.5625 9.4041 -44.9844 9.4041 Q-46.4062 9.4041 -47.1484 10.3025 Q-47.8906 11.2009 -47.8906 12.9197 Z"/><path style="fill:none; stroke:black;" d="M-59.75 -12.557 L-60 -12.99 L-60.5 -12.99"/><path style="stroke:none;" d="M-11.0625 64.8827 Q-11.0625 66.9452 -12.1016 68.1249 Q-13.1406 69.3046 -14.9844 69.3046 Q-16.875 69.3046 -17.9062 68.1405 Q-18.9375 66.9764 -18.9375 64.8671 Q-18.9375 62.7733 -17.9062 61.6249 Q-16.875 60.4764 -14.9844 60.4764 Q-13.125 60.4764 -12.0938 61.6483 Q-11.0625 62.8202 -11.0625 64.8827 ZM-17.8906 64.8827 Q-17.8906 66.6171 -17.1484 67.5233 Q-16.4062 68.4296 -14.9844 68.4296 Q-13.5625 68.4296 -12.8359 67.5311 Q-12.1094 66.6327 -12.1094 64.8827 Q-12.1094 63.1483 -12.8359 62.2577 Q-13.5625 61.3671 -14.9844 61.3671 Q-16.4062 61.3671 -17.1484 62.2655 Q-17.8906 63.1639 -17.8906 64.8827 Z"/><path style="stroke:none;" d="M-19.9375 69.1796 L-20.9375 69.1796 L-20.9375 65.1483 L-25.4531 65.1483 L-25.4531 69.1796 L-26.4531 69.1796 L-26.4531 60.6171 L-25.4531 60.6171 L-25.4531 64.2577 L-20.9375 64.2577 L-20.9375 60.6171 L-19.9375 60.6171 L-19.9375 69.1796 Z"/><path style="fill:rgb(111,5,255); stroke:none;" d="M-87.2812 -14.9119 Q-87.2812 -13.5994 -88.1719 -12.9041 Q-89.0625 -12.2087 -90.7031 -12.2087 L-91.7188 -12.2087 L-91.7188 -8.8337 L-92.7188 -8.8337 L-92.7188 -17.3962 L-90.4844 -17.3962 Q-87.2812 -17.3962 -87.2812 -14.9119 ZM-91.7188 -13.0525 L-90.8125 -13.0525 Q-89.5 -13.0525 -88.9062 -13.4822 Q-88.3125 -13.9119 -88.3125 -14.865 Q-88.3125 -15.7087 -88.8672 -16.1228 Q-89.4219 -16.5369 -90.6094 -16.5369 L-91.7188 -16.5369 L-91.7188 -13.0525 Z"/><path style="stroke:none;" d="M-116.0625 -13.0603 Q-116.0625 -10.9978 -117.1016 -9.8181 Q-118.1406 -8.6384 -119.9844 -8.6384 Q-121.875 -8.6384 -122.9062 -9.8025 Q-123.9375 -10.9666 -123.9375 -13.0759 Q-123.9375 -15.1697 -122.9062 -16.3181 Q-121.875 -17.4666 -119.9844 -17.4666 Q-118.125 -17.4666 -117.0938 -16.2947 Q-116.0625 -15.1228 -116.0625 -13.0603 ZM-122.8906 -13.0603 Q-122.8906 -11.3259 -122.1484 -10.4197 Q-121.4062 -9.5134 -119.9844 -9.5134 Q-118.5625 -9.5134 -117.8359 -10.4119 Q-117.1094 -11.3103 -117.1094 -13.0603 Q-117.1094 -14.7947 -117.8359 -15.6853 Q-118.5625 -16.5759 -119.9844 -16.5759 Q-121.4062 -16.5759 -122.1484 -15.6775 Q-122.8906 -14.7791 -122.8906 -13.0603 Z"/><path style="stroke:none;" d="M-86.0625 -43.0603 Q-86.0625 -40.9978 -87.1016 -39.8181 Q-88.1406 -38.6384 -89.9844 -38.6384 Q-91.875 -38.6384 -92.9062 -39.8025 Q-93.9375 -40.9666 -93.9375 -43.0759 Q-93.9375 -45.1697 -92.9062 -46.3181 Q-91.875 -47.4666 -89.9844 -47.4666 Q-88.125 -47.4666 -87.0938 -46.2947 Q-86.0625 -45.1228 -86.0625 -43.0603 ZM-92.8906 -43.0603 Q-92.8906 -41.3259 -92.1484 -40.4197 Q-91.4062 -39.5134 -89.9844 -39.5134 Q-88.5625 -39.5134 -87.8359 -40.4119 Q-87.1094 -41.3103 -87.1094 -43.0603 Q-87.1094 -44.7947 -87.8359 -45.6853 Q-88.5625 -46.5759 -89.9844 -46.5759 Q-91.4062 -46.5759 -92.1484 -45.6775 Q-92.8906 -44.7791 -92.8906 -43.0603 Z"/><path style="stroke:none;" d="M-78.5469 -38.7634 L-79.5469 -38.7634 L-79.5469 -42.7947 L-84.0625 -42.7947 L-84.0625 -38.7634 L-85.0625 -38.7634 L-85.0625 -47.3259 L-84.0625 -47.3259 L-84.0625 -43.6853 L-79.5469 -43.6853 L-79.5469 -47.3259 L-78.5469 -47.3259 L-78.5469 -38.7634 Z"/><path style="stroke:none;" d="M-86.0625 16.9397 Q-86.0625 19.0022 -87.1016 20.1819 Q-88.1406 21.3616 -89.9844 21.3616 Q-91.875 21.3616 -92.9062 20.1975 Q-93.9375 19.0334 -93.9375 16.9241 Q-93.9375 14.8303 -92.9062 13.6819 Q-91.875 12.5334 -89.9844 12.5334 Q-88.125 12.5334 -87.0938 13.7053 Q-86.0625 14.8772 -86.0625 16.9397 ZM-92.8906 16.9397 Q-92.8906 18.6741 -92.1484 19.5803 Q-91.4062 20.4866 -89.9844 20.4866 Q-88.5625 20.4866 -87.8359 19.5881 Q-87.1094 18.6897 -87.1094 16.9397 Q-87.1094 15.2053 -87.8359 14.3147 Q-88.5625 13.4241 -89.9844 13.4241 Q-91.4062 13.4241 -92.1484 14.3225 Q-92.8906 15.2209 -92.8906 16.9397 Z"/><path style="stroke:none;" d="M-78.5469 21.2366 L-79.5469 21.2366 L-79.5469 17.2053 L-84.0625 17.2053 L-84.0625 21.2366 L-85.0625 21.2366 L-85.0625 12.6741 L-84.0625 12.6741 L-84.0625 16.3147 L-79.5469 16.3147 L-79.5469 12.6741 L-78.5469 12.6741 L-78.5469 21.2366 Z"/><path style="stroke:none;" d="M33.9375 -65.0233 Q33.9375 -62.9608 32.8984 -61.7811 Q31.8594 -60.6014 30.0156 -60.6014 Q28.125 -60.6014 27.0938 -61.7655 Q26.0625 -62.9296 26.0625 -65.0389 Q26.0625 -67.1327 27.0938 -68.2811 Q28.125 -69.4296 30.0156 -69.4296 Q31.875 -69.4296 32.9062 -68.2577 Q33.9375 -67.0858 33.9375 -65.0233 ZM27.1094 -65.0233 Q27.1094 -63.2889 27.8516 -62.3827 Q28.5938 -61.4764 30.0156 -61.4764 Q31.4375 -61.4764 32.1641 -62.3749 Q32.8906 -63.2733 32.8906 -65.0233 Q32.8906 -66.7577 32.1641 -67.6483 Q31.4375 -68.5389 30.0156 -68.5389 Q28.5938 -68.5389 27.8516 -67.6405 Q27.1094 -66.7421 27.1094 -65.0233 Z"/><path style="fill:rgb(0,5,255); stroke:none;" d="M123.3516 -8.8337 L122.2109 -8.8337 L117.5234 -16.0212 L117.4766 -16.0212 Q117.5703 -14.7556 117.5703 -13.7087 L117.5703 -8.8337 L116.6484 -8.8337 L116.6484 -17.3962 L117.7734 -17.3962 L122.4453 -10.24 L122.4922 -10.24 Q122.4922 -10.3962 122.4453 -11.2556 Q122.3984 -12.115 122.4141 -12.49 L122.4141 -17.3962 L123.3516 -17.3962 L123.3516 -8.8337 Z"/><path style="fill:rgb(0,5,255); stroke:none;" d="M130.8672 -8.8337 L129.8672 -8.8337 L129.8672 -12.865 L125.3516 -12.865 L125.3516 -8.8337 L124.3516 -8.8337 L124.3516 -17.3962 L125.3516 -17.3962 L125.3516 -13.7556 L129.8672 -13.7556 L129.8672 -17.3962 L130.8672 -17.3962 L130.8672 -8.8337 Z"/><path style="fill:rgb(0,5,255); stroke:none;" d="M135.6172 -7.0244 L131.8672 -7.0244 L131.8672 -7.5869 L133.3672 -9.1025 Q134.0547 -9.79 134.2734 -10.0869 Q134.4922 -10.3837 134.6016 -10.665 Q134.7109 -10.9462 134.7109 -11.2744 Q134.7109 -11.7275 134.4375 -11.9931 Q134.1641 -12.2587 133.6641 -12.2587 Q133.3203 -12.2587 133 -12.1416 Q132.6797 -12.0244 132.2891 -11.7275 L131.9453 -12.165 Q132.7266 -12.8212 133.6641 -12.8212 Q134.4609 -12.8212 134.9219 -12.4072 Q135.3828 -11.9931 135.3828 -11.3056 Q135.3828 -10.7587 135.0781 -10.2275 Q134.7734 -9.6962 133.9297 -8.8837 L132.6797 -7.665 L132.6797 -7.6337 L135.6172 -7.6337 L135.6172 -7.0244 Z"/><path style="fill:rgb(0,5,255); stroke:none;" d="M33.3516 -8.8337 L32.2109 -8.8337 L27.5234 -16.0212 L27.4766 -16.0212 Q27.5703 -14.7556 27.5703 -13.7087 L27.5703 -8.8337 L26.6484 -8.8337 L26.6484 -17.3962 L27.7734 -17.3962 L32.4453 -10.24 L32.4922 -10.24 Q32.4922 -10.3962 32.4453 -11.2556 Q32.3984 -12.115 32.4141 -12.49 L32.4141 -17.3962 L33.3516 -17.3962 L33.3516 -8.8337 Z"/><path style="fill:none; stroke:black;" d="M44.75 -38.537 L45 -38.97 L45.5 -38.97"/><path style="fill:none; stroke:black;" d="M44.75 12.557 L45 12.99 L45.5 12.99"/><path style="fill:rgb(0,5,255); stroke:none;" d="M78.3516 -34.8138 L77.2109 -34.8138 L72.5234 -42.0013 L72.4766 -42.0013 Q72.5703 -40.7356 72.5703 -39.6888 L72.5703 -34.8138 L71.6484 -34.8138 L71.6484 -43.3763 L72.7734 -43.3763 L77.4453 -36.22 L77.4922 -36.22 Q77.4922 -36.3763 77.4453 -37.2356 Q77.3984 -38.095 77.4141 -38.47 L77.4141 -43.3763 L78.3516 -43.3763 L78.3516 -34.8138 Z"/><path style="fill:none; stroke:black;" d="M74.5 12.99 L75 12.99 L75.25 12.557"/><path style="fill:none; stroke:black;" d="M89.75 -13.423 L90 -12.99 L90.5 -12.99"/></g></g></svg></svg></svg></svg>