<svg width="142" viewBox="0 0 142 85" style="fill-opacity:1; color-rendering:auto; color-interpolation:auto; text-rendering:auto; stroke:black; stroke-linecap:square; stroke-miterlimit:10; shape-rendering:auto; stroke-opacity:1; fill:black; stroke-dasharray:none; font-weight:normal; stroke-width:1; font-family:'Open Sans'; font-style:normal; stroke-linejoin:miter; font-size:12; stroke-dashoffset:0; image-rendering:auto;" height="85" class="cas-substance-image" xmlns:xlink="http://www.w3.org/1999/xlink" xmlns="http://www.w3.org/2000/svg"><svg class="cas-substance-single-component"><rect y="0" x="0" width="142" stroke="none" ry="7" rx="7" height="85" fill="white" class="cas-substance-group"/><svg y="0" x="0" width="142" viewBox="0 0 142 85" style="fill:black;" height="85" class="cas-substance-single-component-image"><svg><g><g transform="translate(71,42)" style="text-rendering:geometricPrecision; color-rendering:optimizeQuality; color-interpolation:linearRGB; stroke-linecap:butt; image-rendering:optimizeQuality;"><line y2="12.99" y1="-12.99" x2="37.5" x1="22.5" style="fill:none;"/><line y2="-12.99" y1="-12.99" x2="-7.5" x1="22.5" style="fill:none;"/><line y2="38.97" y1="12.99" x2="22.5" x1="37.5" style="fill:none;"/><line y2="12.99" y1="12.99" x2="67.5" x1="37.5" style="fill:none;"/><line y2="-38.97" y1="-12.99" x2="-22.5" x1="-7.5" style="fill:none;"/><line y2="12.99" y1="-12.99" x2="-22.5" x1="-7.5" style="fill:none;"/><line y2="9.49" y1="-12.9901" x2="-24.5207" x1="-11.5415" style="fill:none;"/><line y2="-38.97" y1="-38.97" x2="-52.5" x1="-22.5" style="fill:none;"/><line y2="-35.47" y1="-35.47" x2="-50.4793" x1="-24.5207" style="fill:none;"/><line y2="12.99" y1="12.99" x2="-47.1484" x1="-22.5" style="fill:none;"/><line y2="-12.99" y1="-38.97" x2="-67.5" x1="-52.5" style="fill:none;"/><line y2="-12.99" y1="6.8517" x2="-67.5" x1="-56.044" style="fill:none;"/><line y2="-12.9901" y1="5.1017" x2="-63.4585" x1="-53.013" style="fill:none;"/><path style="fill:none; stroke-miterlimit:5;" d="M22.75 -12.557 L22.5 -12.99 L22 -12.99"/><path style="fill:none; stroke-miterlimit:5;" d="M-7.75 -12.557 L-7.5 -12.99 L-7 -12.99"/><path style="fill:none; stroke-miterlimit:5;" d="M-22.25 -38.537 L-22.5 -38.97 L-23 -38.97"/><path style="fill:none; stroke-miterlimit:5;" d="M-22.25 12.557 L-22.5 12.99 L-23 12.99"/><path style="fill:none; stroke-miterlimit:5;" d="M-52 -38.97 L-52.5 -38.97 L-52.75 -38.537"/></g><g transform="translate(71,42)" style="stroke-linecap:butt; fill:rgb(0,5,255); text-rendering:geometricPrecision; color-rendering:optimizeQuality; image-rendering:optimizeQuality; font-family:'Open Sans'; stroke:rgb(0,5,255); color-interpolation:linearRGB; stroke-miterlimit:5;"><path style="stroke:none;" d="M-49.1484 17.1462 L-50.2891 17.1462 L-54.9766 9.9587 L-55.0234 9.9587 Q-54.9297 11.2244 -54.9297 12.2712 L-54.9297 17.1462 L-55.8516 17.1462 L-55.8516 8.5837 L-54.7266 8.5837 L-50.0547 15.74 L-50.0078 15.74 Q-50.0078 15.5837 -50.0547 14.7244 Q-50.1016 13.865 -50.0859 13.49 L-50.0859 8.5837 L-49.1484 8.5837 L-49.1484 17.1462 Z"/><path style="fill:none; stroke:black;" d="M-67.25 -13.423 L-67.5 -12.99 L-67.25 -12.557"/></g></g></svg></svg></svg></svg>