<svg xmlns:ns0="http://www.w3.org/2000/svg" xmlns="http://www.w3.org/2000/svg"><g transform="translate(0, 0)"><ns0:svg width="162" viewBox="0 0 162 162" style="fill-opacity:1; color-rendering:auto; color-interpolation:auto; text-rendering:auto; stroke:black; stroke-linecap:square; stroke-miterlimit:10; shape-rendering:auto; stroke-opacity:1; fill:black; stroke-dasharray:none; font-weight:normal; stroke-width:1; font-family:'Open Sans'; font-style:normal; stroke-linejoin:miter; font-size:12; stroke-dashoffset:0; image-rendering:auto;" height="162" class="cas-substance-image"><ns0:svg class="cas-substance-single-component"><ns0:rect y="0" x="0" width="162" stroke="none" ry="7" rx="7" height="162" fill="white" class="cas-substance-group" /><ns0:svg y="0" x="0" width="162" viewBox="0 0 162 162" style="fill:black;" height="162" class="cas-substance-single-component-image"><ns0:svg><ns0:g><ns0:g transform="translate(81,81)" style="text-rendering:geometricPrecision; color-rendering:optimizeQuality; color-interpolation:linearRGB; stroke-linecap:butt; image-rendering:optimizeQuality;"><ns0:line y2="-11.8214" y1="-3.2718" x2="-20.4746" x1="-5.6668" style="fill:none;" /><ns0:line y2="11.7586" y1="3.285" x2="20.3659" x1="5.6895" style="fill:none;" /><ns0:line y2="20.2583" y1="6.1383" x2="-11.6965" x1="-3.544" style="fill:none;" /><ns0:line y2="-20.332" y1="-6.2499" x2="11.739" x1="3.6085" style="fill:none;" /><ns0:line y2="0" y1="-11.8114" x2="-51.963" x1="-31.5032" style="fill:none;" /><ns0:line y2="0" y1="11.7742" x2="51.963" x1="31.5677" style="fill:none;" /><ns0:line y2="51.963" y1="31.616" x2="0" x1="-11.7464" style="fill:none;" /><ns0:line y2="-51.963" y1="-31.7078" x2="0" x1="11.6933" style="fill:none;" /><ns0:line y2="-15" y1="0" x2="-77.943" x1="-51.963" style="fill:none;" /><ns0:line y2="15" y1="0" x2="77.943" x1="51.963" style="fill:none;" /><ns0:line y2="77.943" y1="51.963" x2="-15" x1="0" style="fill:none;" /><ns0:line y2="-77.943" y1="-51.963" x2="15" x1="0" style="fill:none;" /><ns0:path style="stroke-linecap:square; stroke:none;" d="M1.3633 2 Q1.3633 3.125 0.543 3.7656 Q-0.2773 4.4062 -1.6836 4.4062 Q-3.2148 4.4062 -4.0273 4 L-4.0273 3.0469 Q-3.4961 3.2656 -2.8789 3.3984 Q-2.2617 3.5312 -1.6523 3.5312 Q-0.6523 3.5312 -0.1523 3.1484 Q0.3477 2.7656 0.3477 2.0938 Q0.3477 1.6562 0.168 1.3672 Q-0.0117 1.0781 -0.4258 0.8359 Q-0.8398 0.5938 -1.6992 0.2969 Q-2.8867 -0.125 -3.4023 -0.7109 Q-3.918 -1.2969 -3.918 -2.25 Q-3.918 -3.2344 -3.1758 -3.8203 Q-2.4336 -4.4062 -1.1992 -4.4062 Q0.0664 -4.4062 1.1445 -3.9375 L0.832 -3.0781 Q-0.2305 -3.5156 -1.2305 -3.5156 Q-2.0273 -3.5156 -2.4727 -3.1797 Q-2.918 -2.8438 -2.918 -2.2344 Q-2.918 -1.7969 -2.7539 -1.5078 Q-2.5898 -1.2188 -2.1992 -0.9844 Q-1.8086 -0.75 -0.9961 -0.4531 Q0.3477 0.0156 0.8555 0.5703 Q1.3633 1.125 1.3633 2 ZM3.9336 4.2812 L2.9648 4.2812 L2.9648 -2.1406 L3.9336 -2.1406 L3.9336 4.2812 ZM2.8867 -3.875 Q2.8867 -4.2188 3.0508 -4.375 Q3.2148 -4.5312 3.4648 -4.5312 Q3.6992 -4.5312 3.8633 -4.3672 Q4.0273 -4.2031 4.0273 -3.875 Q4.0273 -3.5469 3.8633 -3.3906 Q3.6992 -3.2344 3.4648 -3.2344 Q3.2148 -3.2344 3.0508 -3.3906 Q2.8867 -3.5469 2.8867 -3.875 Z" /></ns0:g><ns0:g transform="translate(81,81)" style="fill:rgb(230,0,0); text-rendering:geometricPrecision; color-rendering:optimizeQuality; image-rendering:optimizeQuality; font-family:'Open Sans'; stroke:rgb(230,0,0); color-interpolation:linearRGB;"><ns0:path style="stroke:none;" d="M-22.0425 -15.0703 Q-22.0425 -13.0078 -23.0816 -11.8281 Q-24.1206 -10.6484 -25.9644 -10.6484 Q-27.855 -10.6484 -28.8862 -11.8125 Q-29.9175 -12.9766 -29.9175 -15.0859 Q-29.9175 -17.1797 -28.8862 -18.3281 Q-27.855 -19.4766 -25.9644 -19.4766 Q-24.105 -19.4766 -23.0737 -18.3047 Q-22.0425 -17.1328 -22.0425 -15.0703 ZM-28.8706 -15.0703 Q-28.8706 -13.3359 -28.1284 -12.4297 Q-27.3862 -11.5234 -25.9644 -11.5234 Q-24.5425 -11.5234 -23.8159 -12.4219 Q-23.0894 -13.3203 -23.0894 -15.0703 Q-23.0894 -16.8047 -23.8159 -17.6953 Q-24.5425 -18.5859 -25.9644 -18.5859 Q-27.3862 -18.5859 -28.1284 -17.6875 Q-28.8706 -16.7891 -28.8706 -15.0703 Z" /><ns0:path style="stroke:none;" d="M29.9175 14.9297 Q29.9175 16.9922 28.8784 18.1719 Q27.8394 19.3516 25.9956 19.3516 Q24.105 19.3516 23.0737 18.1875 Q22.0425 17.0234 22.0425 14.9141 Q22.0425 12.8203 23.0737 11.6719 Q24.105 10.5234 25.9956 10.5234 Q27.855 10.5234 28.8862 11.6953 Q29.9175 12.8672 29.9175 14.9297 ZM23.0894 14.9297 Q23.0894 16.6641 23.8316 17.5703 Q24.5737 18.4766 25.9956 18.4766 Q27.4175 18.4766 28.1441 17.5781 Q28.8706 16.6797 28.8706 14.9297 Q28.8706 13.1953 28.1441 12.3047 Q27.4175 11.4141 25.9956 11.4141 Q24.5737 11.4141 23.8316 12.3125 Q23.0894 13.2109 23.0894 14.9297 Z" /><ns0:path style="stroke:none;" d="M-11.0625 25.9097 Q-11.0625 27.9722 -12.1016 29.1519 Q-13.1406 30.3316 -14.9844 30.3316 Q-16.875 30.3316 -17.9062 29.1675 Q-18.9375 28.0034 -18.9375 25.8941 Q-18.9375 23.8003 -17.9062 22.6519 Q-16.875 21.5034 -14.9844 21.5034 Q-13.125 21.5034 -12.0938 22.6753 Q-11.0625 23.8472 -11.0625 25.9097 ZM-17.8906 25.9097 Q-17.8906 27.6441 -17.1484 28.5503 Q-16.4062 29.4566 -14.9844 29.4566 Q-13.5625 29.4566 -12.8359 28.5581 Q-12.1094 27.6597 -12.1094 25.9097 Q-12.1094 24.1753 -12.8359 23.2847 Q-13.5625 22.3941 -14.9844 22.3941 Q-16.4062 22.3941 -17.1484 23.2925 Q-17.8906 24.1909 -17.8906 25.9097 Z" /><ns0:path style="stroke:none;" d="M18.9375 -26.0503 Q18.9375 -23.9878 17.8984 -22.8081 Q16.8594 -21.6284 15.0156 -21.6284 Q13.125 -21.6284 12.0938 -22.7925 Q11.0625 -23.9566 11.0625 -26.0659 Q11.0625 -28.1597 12.0938 -29.3081 Q13.125 -30.4566 15.0156 -30.4566 Q16.875 -30.4566 17.9062 -29.2847 Q18.9375 -28.1128 18.9375 -26.0503 ZM12.1094 -26.0503 Q12.1094 -24.3159 12.8516 -23.4097 Q13.5938 -22.5034 15.0156 -22.5034 Q16.4375 -22.5034 17.1641 -23.4019 Q17.8906 -24.3003 17.8906 -26.0503 Q17.8906 -27.7847 17.1641 -28.6753 Q16.4375 -29.5659 15.0156 -29.5659 Q13.5938 -29.5659 12.8516 -28.6675 Q12.1094 -27.7691 12.1094 -26.0503 Z" /></ns0:g><ns0:g transform="translate(81,81)" style="stroke-linecap:butt; text-rendering:geometricPrecision; color-rendering:optimizeQuality; image-rendering:optimizeQuality; font-family:'Open Sans'; color-interpolation:linearRGB; stroke-miterlimit:5;"><ns0:path style="fill:none;" d="M-51.53 -0.25 L-51.963 0 L-52.396 -0.25" /><ns0:path style="fill:none;" d="M51.53 0.25 L51.963 0 L52.396 0.25" /><ns0:path style="fill:none;" d="M-0.25 51.53 L0 51.963 L-0.25 52.396" /><ns0:path style="fill:none;" d="M0.25 -51.53 L0 -51.963 L0.25 -52.396" /></ns0:g></ns0:g></ns0:svg></ns0:svg></ns0:svg></ns0:svg></g><g transform="translate(162, 0)"><ns0:svg width="100" viewBox="0 0 100 56" style="fill-opacity:1; color-rendering:auto; color-interpolation:auto; text-rendering:auto; stroke:black; stroke-linecap:square; stroke-miterlimit:10; shape-rendering:auto; stroke-opacity:1; fill:black; stroke-dasharray:none; font-weight:normal; stroke-width:1; font-family:'Open Sans'; font-style:normal; stroke-linejoin:miter; font-size:12; stroke-dashoffset:0; image-rendering:auto;" height="56" class="cas-substance-image"><ns0:svg class="cas-substance-single-component"><ns0:rect y="0" x="0" width="100" stroke="none" ry="7" rx="7" height="56" fill="white" class="cas-substance-group" /><ns0:svg y="0" x="21" width="58" viewBox="0 0 58 56" style="fill:black;" height="56" class="cas-substance-single-component-image"><ns0:svg><ns0:g><ns0:g transform="translate(29,26)" style="text-rendering:geometricPrecision; color-rendering:optimizeQuality; color-interpolation:linearRGB; stroke-linecap:butt; image-rendering:optimizeQuality;"><ns0:line y2="-22.5" y1="-10.7718" x2="-25.98" x1="-5.6668" style="fill:none;" /><ns0:line y2="-22.5" y1="-10.8168" x2="25.98" x1="5.7446" style="fill:none;" /><ns0:line y2="16.1138" y1="-1.102" x2="0" x1="0" style="fill:none;" /><ns0:path style="stroke-linecap:square; stroke:none;" d="M1.3633 -5.5 Q1.3633 -4.375 0.543 -3.7344 Q-0.2773 -3.0938 -1.6836 -3.0938 Q-3.2148 -3.0938 -4.0273 -3.5 L-4.0273 -4.4531 Q-3.4961 -4.2344 -2.8789 -4.1016 Q-2.2617 -3.9688 -1.6523 -3.9688 Q-0.6523 -3.9688 -0.1523 -4.3516 Q0.3477 -4.7344 0.3477 -5.4062 Q0.3477 -5.8438 0.168 -6.1328 Q-0.0117 -6.4219 -0.4258 -6.6641 Q-0.8398 -6.9062 -1.6992 -7.2031 Q-2.8867 -7.625 -3.4023 -8.2109 Q-3.918 -8.7969 -3.918 -9.75 Q-3.918 -10.7344 -3.1758 -11.3203 Q-2.4336 -11.9062 -1.1992 -11.9062 Q0.0664 -11.9062 1.1445 -11.4375 L0.832 -10.5781 Q-0.2305 -11.0156 -1.2305 -11.0156 Q-2.0273 -11.0156 -2.4727 -10.6797 Q-2.918 -10.3438 -2.918 -9.7344 Q-2.918 -9.2969 -2.7539 -9.0078 Q-2.5898 -8.7188 -2.1992 -8.4844 Q-1.8086 -8.25 -0.9961 -7.9531 Q0.3477 -7.4844 0.8555 -6.9297 Q1.3633 -6.375 1.3633 -5.5 ZM3.9336 -3.2188 L2.9648 -3.2188 L2.9648 -9.6406 L3.9336 -9.6406 L3.9336 -3.2188 ZM2.8867 -11.375 Q2.8867 -11.7188 3.0508 -11.875 Q3.2148 -12.0312 3.4648 -12.0312 Q3.6992 -12.0312 3.8633 -11.8672 Q4.0273 -11.7031 4.0273 -11.375 Q4.0273 -11.0469 3.8633 -10.8906 Q3.6992 -10.7344 3.4648 -10.7344 Q3.2148 -10.7344 3.0508 -10.8906 Q2.8867 -11.0469 2.8867 -11.375 Z" /><ns0:path style="stroke-linecap:square; stroke:none;" d="M3.2578 -13.0312 L2.2578 -13.0312 L2.2578 -17.0625 L-2.2578 -17.0625 L-2.2578 -13.0312 L-3.2578 -13.0312 L-3.2578 -21.5938 L-2.2578 -21.5938 L-2.2578 -17.9531 L2.2578 -17.9531 L2.2578 -21.5938 L3.2578 -21.5938 L3.2578 -13.0312 Z" /></ns0:g><ns0:g transform="translate(29,26)" style="fill:rgb(0,138,0); text-rendering:geometricPrecision; color-rendering:optimizeQuality; image-rendering:optimizeQuality; font-family:'Open Sans'; stroke:rgb(0,138,0); color-interpolation:linearRGB;"><ns0:path style="stroke:none;" d="M-0.3086 19.1406 Q-1.7148 19.1406 -2.5352 20.0781 Q-3.3555 21.0156 -3.3555 22.6562 Q-3.3555 24.3281 -2.5664 25.25 Q-1.7773 26.1719 -0.3242 26.1719 Q0.582 26.1719 1.7227 25.8438 L1.7227 26.7188 Q0.832 27.0625 -0.4648 27.0625 Q-2.3555 27.0625 -3.3867 25.9062 Q-4.418 24.75 -4.418 22.6406 Q-4.418 21.3125 -3.9258 20.3203 Q-3.4336 19.3281 -2.4961 18.7891 Q-1.5586 18.25 -0.293 18.25 Q1.0508 18.25 2.0664 18.7344 L1.6445 19.5938 Q0.6602 19.1406 -0.3086 19.1406 ZM4.418 26.9375 L3.4492 26.9375 L3.4492 17.8125 L4.418 17.8125 L4.418 26.9375 Z" /></ns0:g></ns0:g></ns0:svg></ns0:svg></ns0:svg></ns0:svg></g></svg>