<svg width="204" viewBox="0 0 204 112" style="fill-opacity:1; color-rendering:auto; color-interpolation:auto; text-rendering:auto; stroke:black; stroke-linecap:square; stroke-miterlimit:10; shape-rendering:auto; stroke-opacity:1; fill:black; stroke-dasharray:none; font-weight:normal; stroke-width:1; font-family:'Open Sans'; font-style:normal; stroke-linejoin:miter; font-size:12; stroke-dashoffset:0; image-rendering:auto;" height="112" class="cas-substance-image" xmlns:xlink="http://www.w3.org/1999/xlink" xmlns="http://www.w3.org/2000/svg"><svg class="cas-substance-single-component"><rect y="0" x="0" width="204" stroke="none" ry="7" rx="7" height="112" fill="white" class="cas-substance-group"/><svg y="0" x="0" width="204" viewBox="0 0 204 112" style="fill:black;" height="112" class="cas-substance-single-component-image"><svg><g><g transform="translate(94,56)" style="text-rendering:geometricPrecision; color-rendering:optimizeQuality; color-interpolation:linearRGB; stroke-linecap:butt; image-rendering:optimizeQuality;"><line y2="4.5649" y1="-7.5" x2="85.8494" x1="64.953" style="fill:none;"/><line y2="7.5" y1="-7.5" x2="38.97" x1="64.953" style="fill:none;"/><line y2="-7.5" y1="7.5" x2="12.99" x1="-12.99" style="fill:none;"/><line y2="-3.4585" y1="9.5207" x2="12.9901" x1="-9.49" style="fill:none;"/><line y2="37.5" y1="7.5" x2="-12.99" x1="-12.99" style="fill:none;"/><line y2="-4.5649" y1="7.5" x2="-33.8864" x1="-12.99" style="fill:none;"/><line y2="7.5" y1="-7.5" x2="38.97" x1="12.99" style="fill:none;"/><line y2="52.5" y1="37.5" x2="12.99" x1="-12.99" style="fill:none;"/><line y2="48.4585" y1="35.4793" x2="12.9901" x1="-9.49" style="fill:none;"/><line y2="37.5" y1="7.5" x2="38.97" x1="38.97" style="fill:none;"/><line y2="35.4793" y1="9.5207" x2="35.47" x1="35.47" style="fill:none;"/><line y2="37.5" y1="52.5" x2="38.97" x1="12.99" style="fill:none;"/><line y2="-37.5" y1="-13.9062" x2="-38.97" x1="-38.97" style="fill:none;"/><line y2="7.5" y1="-4.5652" x2="-64.953" x1="-44.0536" style="fill:none;"/><line y2="-52.5" y1="-37.5" x2="-64.953" x1="-38.97" style="fill:none;"/><line y2="-7.5" y1="7.5" x2="-90.933" x1="-64.953" style="fill:none;"/><line y2="-37.5" y1="-52.5" x2="-90.933" x1="-64.953" style="fill:none;"/><line y2="-37.5" y1="-7.5" x2="-90.933" x1="-90.933" style="fill:none;"/><path style="fill:none; stroke-miterlimit:5;" d="M65.386 -7.25 L64.953 -7.5 L64.52 -7.25"/></g><g transform="translate(94,56)" style="stroke-linecap:butt; fill:rgb(0,5,255); text-rendering:geometricPrecision; color-rendering:optimizeQuality; image-rendering:optimizeQuality; font-family:'Open Sans'; stroke:rgb(0,5,255); color-interpolation:linearRGB; stroke-miterlimit:5;"><path style="stroke:none;" d="M94.2846 11.6562 L93.1439 11.6562 L88.4564 4.4688 L88.4096 4.4688 Q88.5033 5.7344 88.5033 6.7812 L88.5033 11.6562 L87.5814 11.6562 L87.5814 3.0938 L88.7064 3.0938 L93.3783 10.25 L93.4252 10.25 Q93.4252 10.0938 93.3783 9.2344 Q93.3314 8.375 93.3471 8 L93.3471 3.0938 L94.2846 3.0938 L94.2846 11.6562 Z"/><path style="stroke:none;" d="M101.8002 11.6562 L100.8002 11.6562 L100.8002 7.625 L96.2846 7.625 L96.2846 11.6562 L95.2846 11.6562 L95.2846 3.0938 L96.2846 3.0938 L96.2846 6.7344 L100.8002 6.7344 L100.8002 3.0938 L101.8002 3.0938 L101.8002 11.6562 Z"/><path style="stroke:none;" d="M106.5502 13.4656 L102.8002 13.4656 L102.8002 12.9031 L104.3002 11.3875 Q104.9877 10.7 105.2064 10.4031 Q105.4252 10.1062 105.5346 9.825 Q105.6439 9.5437 105.6439 9.2156 Q105.6439 8.7625 105.3705 8.4969 Q105.0971 8.2312 104.5971 8.2312 Q104.2533 8.2312 103.933 8.3484 Q103.6127 8.4656 103.2221 8.7625 L102.8783 8.325 Q103.6596 7.6687 104.5971 7.6687 Q105.3939 7.6687 105.8549 8.0828 Q106.3158 8.4969 106.3158 9.1844 Q106.3158 9.7312 106.0111 10.2625 Q105.7064 10.7937 104.8627 11.6062 L103.6127 12.825 L103.6127 12.8562 L106.5502 12.8562 L106.5502 13.4656 Z"/><path style="fill:none; stroke:black;" d="M-12.557 7.25 L-12.99 7.5 L-12.99 8"/><path style="fill:none; stroke:black;" d="M12.557 -7.25 L12.99 -7.5 L13.423 -7.25"/><path style="fill:none; stroke:black;" d="M-12.99 37 L-12.99 37.5 L-12.557 37.75"/><path style="fill:none; stroke:black;" d="M38.97 8 L38.97 7.5 L39.403 7.25"/><path style="fill:none; stroke:black;" d="M12.557 52.25 L12.99 52.5 L13.423 52.25"/><path style="fill:none; stroke:black;" d="M38.97 37 L38.97 37.5 L38.537 37.75"/><path style="stroke:none;" d="M-35.6184 -3.3438 L-36.7591 -3.3438 L-41.4466 -10.5312 L-41.4934 -10.5312 Q-41.3997 -9.2656 -41.3997 -8.2188 L-41.3997 -3.3438 L-42.3216 -3.3438 L-42.3216 -11.9062 L-41.1966 -11.9062 L-36.5247 -4.75 L-36.4778 -4.75 Q-36.4778 -4.9062 -36.5247 -5.7656 Q-36.5716 -6.625 -36.5559 -7 L-36.5559 -11.9062 L-35.6184 -11.9062 L-35.6184 -3.3438 Z"/><path style="fill:none; stroke:black;" d="M-38.97 -37 L-38.97 -37.5 L-39.403 -37.75"/><path style="fill:none; stroke:black;" d="M-64.52 7.25 L-64.953 7.5 L-65.386 7.25"/><path style="fill:none; stroke:black;" d="M-64.52 -52.25 L-64.953 -52.5 L-65.386 -52.25"/><path style="fill:none; stroke:black;" d="M-90.5 -7.25 L-90.933 -7.5 L-90.933 -8"/><path style="fill:none; stroke:black;" d="M-90.5 -37.75 L-90.933 -37.5 L-90.933 -37"/></g></g></svg></svg></svg></svg>