<svg xmlns:ns0="http://www.w3.org/2000/svg" xmlns="http://www.w3.org/2000/svg"><g transform="translate(0, 0)"><ns0:svg width="100" viewBox="0 0 100 86" style="fill-opacity:1; color-rendering:auto; color-interpolation:auto; text-rendering:auto; stroke:black; stroke-linecap:square; stroke-miterlimit:10; shape-rendering:auto; stroke-opacity:1; fill:black; stroke-dasharray:none; font-weight:normal; stroke-width:1; font-family:'Open Sans'; font-style:normal; stroke-linejoin:miter; font-size:12; stroke-dashoffset:0; image-rendering:auto;" height="86" class="cas-substance-image"><ns0:svg class="cas-substance-single-component"><ns0:rect y="0" x="0" width="100" stroke="none" ry="7" rx="7" height="86" fill="white" class="cas-substance-group" /><ns0:svg y="0" x="5" width="89" viewBox="0 0 89 86" style="fill:black;" height="86" class="cas-substance-single-component-image"><ns0:svg><ns0:g><ns0:g transform="translate(42,43)" style="text-rendering:geometricPrecision; color-rendering:optimizeQuality; color-interpolation:linearRGB; stroke-linecap:butt; image-rendering:optimizeQuality;"><ns0:line y2="5.49" y1="-6.225" x2="12.99" x1="-7.3005" style="fill:none;" /><ns0:line y2="-24.51" y1="-12.7818" x2="-38.97" x1="-18.6568" style="fill:none;" /><ns0:line y2="16.47" y1="-3.3717" x2="-27.99" x1="-16.534" style="fill:none;" /><ns0:line y2="-29.3852" y1="-15.7599" x2="-1.5147" x1="-9.3815" style="fill:none;" /><ns0:line y2="-6.0614" y1="5.49" x2="32.9971" x1="12.99" style="fill:none;" /><ns0:line y2="29.1038" y1="5.49" x2="12.99" x1="12.99" style="fill:none;" /><ns0:path style="stroke-linecap:square; stroke:none;" d="M-11.6267 -7.51 Q-11.6267 -6.385 -12.447 -5.7444 Q-13.2673 -5.1038 -14.6736 -5.1038 Q-16.2048 -5.1038 -17.0173 -5.51 L-17.0173 -6.4631 Q-16.4861 -6.2444 -15.8689 -6.1116 Q-15.2517 -5.9788 -14.6423 -5.9788 Q-13.6423 -5.9788 -13.1423 -6.3616 Q-12.6423 -6.7444 -12.6423 -7.4163 Q-12.6423 -7.8538 -12.822 -8.1428 Q-13.0017 -8.4319 -13.4158 -8.6741 Q-13.8298 -8.9163 -14.6892 -9.2131 Q-15.8767 -9.635 -16.3923 -10.2209 Q-16.908 -10.8069 -16.908 -11.76 Q-16.908 -12.7444 -16.1658 -13.3303 Q-15.4236 -13.9163 -14.1892 -13.9163 Q-12.9236 -13.9163 -11.8455 -13.4475 L-12.158 -12.5881 Q-13.2205 -13.0256 -14.2205 -13.0256 Q-15.0173 -13.0256 -15.4627 -12.6897 Q-15.908 -12.3538 -15.908 -11.7444 Q-15.908 -11.3069 -15.7439 -11.0178 Q-15.5798 -10.7288 -15.1892 -10.4944 Q-14.7986 -10.26 -13.9861 -9.9631 Q-12.6423 -9.4944 -12.1345 -8.9397 Q-11.6267 -8.385 -11.6267 -7.51 ZM-9.0564 -5.2288 L-10.0252 -5.2288 L-10.0252 -11.6506 L-9.0564 -11.6506 L-9.0564 -5.2288 ZM-10.1033 -13.385 Q-10.1033 -13.7288 -9.9392 -13.885 Q-9.7752 -14.0413 -9.5252 -14.0413 Q-9.2908 -14.0413 -9.1267 -13.8772 Q-8.9627 -13.7131 -8.9627 -13.385 Q-8.9627 -13.0569 -9.1267 -12.9006 Q-9.2908 -12.7444 -9.5252 -12.7444 Q-9.7752 -12.7444 -9.9392 -12.9006 Q-10.1033 -13.0569 -10.1033 -13.385 Z" /></ns0:g><ns0:g transform="translate(42,43)" style="fill:rgb(0,138,0); text-rendering:geometricPrecision; color-rendering:optimizeQuality; image-rendering:optimizeQuality; font-family:'Open Sans'; stroke:rgb(0,138,0); color-interpolation:linearRGB;"><ns0:path style="stroke:none;" d="M1.7014 -38.8494 Q0.2952 -38.8494 -0.5252 -37.9119 Q-1.3455 -36.9744 -1.3455 -35.3337 Q-1.3455 -33.6619 -0.5564 -32.74 Q0.2327 -31.8181 1.6858 -31.8181 Q2.592 -31.8181 3.7327 -32.1462 L3.7327 -31.2712 Q2.842 -30.9275 1.5452 -30.9275 Q-0.3455 -30.9275 -1.3767 -32.0837 Q-2.408 -33.24 -2.408 -35.3494 Q-2.408 -36.6775 -1.9158 -37.6697 Q-1.4236 -38.6619 -0.4861 -39.2009 Q0.4514 -39.74 1.717 -39.74 Q3.0608 -39.74 4.0764 -39.2556 L3.6545 -38.3962 Q2.6702 -38.8494 1.7014 -38.8494 ZM6.428 -31.0525 L5.4592 -31.0525 L5.4592 -40.1775 L6.428 -40.1775 L6.428 -31.0525 Z" /><ns0:path style="stroke:none;" d="M38.6614 -12.8694 Q37.2552 -12.8694 36.4348 -11.9319 Q35.6145 -10.9944 35.6145 -9.3538 Q35.6145 -7.6819 36.4036 -6.76 Q37.1927 -5.8381 38.6458 -5.8381 Q39.552 -5.8381 40.6927 -6.1663 L40.6927 -5.2913 Q39.802 -4.9475 38.5052 -4.9475 Q36.6145 -4.9475 35.5833 -6.1038 Q34.552 -7.26 34.552 -9.3694 Q34.552 -10.6975 35.0442 -11.6897 Q35.5364 -12.6819 36.4739 -13.2209 Q37.4114 -13.76 38.677 -13.76 Q40.0208 -13.76 41.0364 -13.2756 L40.6145 -12.4163 Q39.6302 -12.8694 38.6614 -12.8694 ZM43.388 -5.0725 L42.4192 -5.0725 L42.4192 -14.1975 L43.388 -14.1975 L43.388 -5.0725 Z" /><ns0:path style="stroke:none;" d="M12.6814 32.1306 Q11.2752 32.1306 10.4548 33.0681 Q9.6345 34.0056 9.6345 35.6462 Q9.6345 37.3181 10.4236 38.24 Q11.2127 39.1619 12.6658 39.1619 Q13.572 39.1619 14.7127 38.8337 L14.7127 39.7087 Q13.822 40.0525 12.5252 40.0525 Q10.6345 40.0525 9.6033 38.8962 Q8.572 37.74 8.572 35.6306 Q8.572 34.3025 9.0642 33.3103 Q9.5564 32.3181 10.4939 31.7791 Q11.4314 31.24 12.697 31.24 Q14.0408 31.24 15.0564 31.7244 L14.6345 32.5837 Q13.6502 32.1306 12.6814 32.1306 ZM17.408 39.9275 L16.4392 39.9275 L16.4392 30.8025 L17.408 30.8025 L17.408 39.9275 Z" /></ns0:g></ns0:g></ns0:svg></ns0:svg></ns0:svg></ns0:svg></g></svg>