<svg xmlns:ns0="http://www.w3.org/2000/svg" xmlns="http://www.w3.org/2000/svg"><g transform="translate(0, 0)"><ns0:svg width="100" viewBox="0 0 100 15" style="fill-opacity:1; color-rendering:auto; color-interpolation:auto; text-rendering:auto; stroke:black; stroke-linecap:square; stroke-miterlimit:10; shape-rendering:auto; stroke-opacity:1; fill:black; stroke-dasharray:none; font-weight:normal; stroke-width:1; font-family:'Open Sans'; font-style:normal; stroke-linejoin:miter; font-size:12; stroke-dashoffset:0; image-rendering:auto;" height="15" class="cas-substance-image"><ns0:svg class="cas-substance-single-component"><ns0:rect y="0" x="0" width="100" stroke="none" ry="7" rx="7" height="15" fill="white" class="cas-substance-group" /><ns0:svg y="0" x="27" width="45" viewBox="0 0 45 15" style="fill:black;" height="15" class="cas-substance-single-component-image"><ns0:svg><ns0:g><ns0:g transform="translate(23,7)" style="text-rendering:geometricPrecision; color-rendering:optimizeQuality; color-interpolation:linearRGB; stroke-linecap:butt; image-rendering:optimizeQuality;"><ns0:line y2="0" y1="0" x2="9.6484" x1="-7.6201" style="fill:none;" /><ns0:line y2="-3.5" y1="-3.5" x2="9.6484" x1="-7.6201" style="fill:none;" /><ns0:line y2="3.5" y1="3.5" x2="9.6484" x1="-7.6201" style="fill:none;" /><ns0:path style="stroke-linecap:square; stroke:none;" d="M-20.3799 4.1562 L-20.3799 -4.4062 L-19.3799 -4.4062 L-19.3799 3.25 L-15.5986 3.25 L-15.5986 4.1562 L-20.3799 4.1562 ZM-10.3389 4.1562 L-10.542 3.2344 L-10.5889 3.2344 Q-11.0576 3.8438 -11.5342 4.0625 Q-12.0107 4.2812 -12.7295 4.2812 Q-13.6826 4.2812 -14.2295 3.7812 Q-14.7764 3.2812 -14.7764 2.375 Q-14.7764 0.4375 -11.667 0.3438 L-10.5732 0.3125 L-10.5732 -0.0938 Q-10.5732 -0.8438 -10.8936 -1.2031 Q-11.2139 -1.5625 -11.9326 -1.5625 Q-12.7451 -1.5625 -13.7451 -1.0781 L-14.0576 -1.8281 Q-13.5732 -2.0781 -13.0107 -2.2266 Q-12.4482 -2.375 -11.8701 -2.375 Q-10.7295 -2.375 -10.1748 -1.8672 Q-9.6201 -1.3594 -9.6201 -0.2344 L-9.6201 4.1562 L-10.3389 4.1562 ZM-12.542 3.4688 Q-11.6357 3.4688 -11.1123 2.9688 Q-10.5889 2.4688 -10.5889 1.5781 L-10.5889 1 L-11.5732 1.0312 Q-12.7295 1.0781 -13.2373 1.3984 Q-13.7451 1.7188 -13.7451 2.3906 Q-13.7451 2.9219 -13.4326 3.1953 Q-13.1201 3.4688 -12.542 3.4688 Z" /></ns0:g><ns0:g transform="translate(23,7)" style="fill:rgb(0,5,255); text-rendering:geometricPrecision; color-rendering:optimizeQuality; image-rendering:optimizeQuality; font-family:'Open Sans'; stroke:rgb(0,5,255); color-interpolation:linearRGB;"><ns0:path style="stroke:none;" d="M18.3516 4.1562 L17.2109 4.1562 L12.5234 -3.0312 L12.4766 -3.0312 Q12.5703 -1.7656 12.5703 -0.7188 L12.5703 4.1562 L11.6484 4.1562 L11.6484 -4.4062 L12.7734 -4.4062 L17.4453 2.75 L17.4922 2.75 Q17.4922 2.5938 17.4453 1.7344 Q17.3984 0.875 17.4141 0.5 L17.4141 -4.4062 L18.3516 -4.4062 L18.3516 4.1562 Z" /></ns0:g></ns0:g></ns0:svg></ns0:svg></ns0:svg></ns0:svg></g></svg>