<svg width="152" viewBox="0 0 152 114" style="fill-opacity:1; color-rendering:auto; color-interpolation:auto; text-rendering:auto; stroke:black; stroke-linecap:square; stroke-miterlimit:10; shape-rendering:auto; stroke-opacity:1; fill:black; stroke-dasharray:none; font-weight:normal; stroke-width:1; font-family:'Open Sans'; font-style:normal; stroke-linejoin:miter; font-size:12; stroke-dashoffset:0; image-rendering:auto;" height="114" class="cas-substance-image" xmlns:xlink="http://www.w3.org/1999/xlink" xmlns="http://www.w3.org/2000/svg"><svg class="cas-substance-single-component"><rect y="0" x="0" width="152" stroke="none" ry="7" rx="7" height="114" fill="white" class="cas-substance-group"/><svg y="0" x="0" width="152" viewBox="0 0 152 114" style="fill:black;" height="114" class="cas-substance-single-component-image"><svg><g><g transform="translate(76,57)" style="text-rendering:geometricPrecision; color-rendering:optimizeQuality; color-interpolation:linearRGB; stroke-linecap:butt; image-rendering:optimizeQuality;"><line y2="2.01" y1="2.01" x2="26.0725" x1="2.01" style="fill:none;"/><line y2="-18.3343" y1="2.01" x2="-9.7361" x1="2.01" style="fill:none;"/><line y2="21.8517" y1="2.01" x2="-9.446" x1="2.01" style="fill:none;"/><line y2="-23.97" y1="-3.7117" x2="47.01" x1="35.3135" style="fill:none;"/><line y2="-23.97" y1="-23.97" x2="-42.99" x1="-18.9275" style="fill:none;"/><line y2="53.97" y1="33.8783" x2="2.01" x1="-9.5903" style="fill:none;"/><line y2="27.99" y1="27.99" x2="-42.99" x1="-18.3416" style="fill:none;"/><line y2="-38.97" y1="-23.97" x2="21.03" x1="47.01" style="fill:none;"/><line y2="-49.953" y1="-23.97" x2="62.01" x1="47.01" style="fill:none;"/><line y2="-8.97" y1="-23.97" x2="72.99" x1="47.01" style="fill:none;"/><line y2="6.03" y1="-23.97" x2="-42.99" x1="-42.99" style="fill:none;"/><line y2="-23.97" y1="-23.97" x2="-72.99" x1="-42.99" style="fill:none;"/><line y2="-53.97" y1="-23.97" x2="-42.99" x1="-42.99" style="fill:none;"/></g><g transform="translate(76,57)" style="fill:rgb(230,0,0); text-rendering:geometricPrecision; color-rendering:optimizeQuality; image-rendering:optimizeQuality; font-family:'Open Sans'; stroke:rgb(230,0,0); color-interpolation:linearRGB;"><path style="stroke:none;" d="M35.9475 1.9397 Q35.9475 4.0022 34.9084 5.1819 Q33.8694 6.3616 32.0256 6.3616 Q30.135 6.3616 29.1038 5.1975 Q28.0725 4.0334 28.0725 1.9241 Q28.0725 -0.1697 29.1038 -1.3181 Q30.135 -2.4666 32.0256 -2.4666 Q33.885 -2.4666 34.9163 -1.2947 Q35.9475 -0.1228 35.9475 1.9397 ZM29.1194 1.9397 Q29.1194 3.6741 29.8616 4.5803 Q30.6038 5.4866 32.0256 5.4866 Q33.4475 5.4866 34.1741 4.5881 Q34.9006 3.6897 34.9006 1.9397 Q34.9006 0.2053 34.1741 -0.6853 Q33.4475 -1.5759 32.0256 -1.5759 Q30.6038 -1.5759 29.8616 -0.6775 Q29.1194 0.2209 29.1194 1.9397 Z"/><path style="stroke:none;" d="M-9.0525 -24.0403 Q-9.0525 -21.9778 -10.0916 -20.7981 Q-11.1306 -19.6184 -12.9744 -19.6184 Q-14.865 -19.6184 -15.8962 -20.7825 Q-16.9275 -21.9466 -16.9275 -24.0559 Q-16.9275 -26.1497 -15.8962 -27.2981 Q-14.865 -28.4466 -12.9744 -28.4466 Q-11.115 -28.4466 -10.0837 -27.2747 Q-9.0525 -26.1028 -9.0525 -24.0403 ZM-15.8806 -24.0403 Q-15.8806 -22.3059 -15.1384 -21.3997 Q-14.3962 -20.4934 -12.9744 -20.4934 Q-11.5525 -20.4934 -10.8259 -21.3919 Q-10.0994 -22.2903 -10.0994 -24.0403 Q-10.0994 -25.7747 -10.8259 -26.6653 Q-11.5525 -27.5559 -12.9744 -27.5559 Q-14.3962 -27.5559 -15.1384 -26.6575 Q-15.8806 -25.7591 -15.8806 -24.0403 Z"/><path style="fill:rgb(0,5,255); stroke:none;" d="M-9.6384 32.1463 L-10.7791 32.1463 L-15.4666 24.9588 L-15.5134 24.9588 Q-15.4197 26.2244 -15.4197 27.2713 L-15.4197 32.1463 L-16.3416 32.1463 L-16.3416 23.5838 L-15.2166 23.5838 L-10.5447 30.74 L-10.4978 30.74 Q-10.4978 30.5838 -10.5447 29.7244 Q-10.5916 28.865 -10.5759 28.49 L-10.5759 23.5838 L-9.6384 23.5838 L-9.6384 32.1463 Z"/></g></g></svg></svg></svg></svg>