<svg xmlns:ns0="http://www.w3.org/2000/svg" xmlns="http://www.w3.org/2000/svg"><g transform="translate(0, 0)"><ns0:svg width="119" viewBox="0 0 119 120" style="fill-opacity:1; color-rendering:auto; color-interpolation:auto; text-rendering:auto; stroke:black; stroke-linecap:square; stroke-miterlimit:10; shape-rendering:auto; stroke-opacity:1; fill:black; stroke-dasharray:none; font-weight:normal; stroke-width:1; font-family:'Open Sans'; font-style:normal; stroke-linejoin:miter; font-size:12; stroke-dashoffset:0; image-rendering:auto;" height="120" class="cas-substance-image"><ns0:svg class="cas-substance-single-component"><ns0:rect y="0" x="0" width="119" stroke="none" ry="7" rx="7" height="120" fill="white" class="cas-substance-group" /><ns0:svg y="0" x="0" width="119" viewBox="0 0 119 120" style="fill:black;" height="120" class="cas-substance-single-component-image"><ns0:svg><ns0:g><ns0:g transform="translate(60,60)" style="text-rendering:geometricPrecision; color-rendering:optimizeQuality; color-interpolation:linearRGB; stroke-linecap:butt; image-rendering:optimizeQuality;"><ns0:line y2="-18.87" y1="-18.87" x2="-22.089" x1="-45.671" style="fill:none;" /><ns0:line y2="-18.87" y1="-42.1535" x2="-22.089" x1="-24.5379" style="fill:none;" /><ns0:line y2="10.965" y1="22.4142" x2="-25.227" x1="-45.057" style="fill:none;" /><ns0:line y2="-25.107" y1="-46.1224" x2="7.254" x1="16.6103" style="fill:none;" /><ns0:line y2="23.169" y1="46.2495" x2="2.181" x1="7.0869" style="fill:none;" /><ns0:line y2="0.873" y1="3.3371" x2="22.254" x1="45.682" style="fill:none;" /><ns0:line y2="10.965" y1="-18.87" x2="-25.227" x1="-22.089" style="fill:none;" /><ns0:line y2="-25.107" y1="-18.87" x2="7.254" x1="-22.089" style="fill:none;" /><ns0:line y2="23.169" y1="10.965" x2="2.181" x1="-25.227" style="fill:none;" /><ns0:line y2="19.1497" y1="8.5896" x2="1.7587" x1="-21.9573" style="fill:none;" /><ns0:line y2="0.873" y1="-25.107" x2="22.254" x1="7.254" style="fill:none;" /><ns0:line y2="0.8731" y1="-21.607" x2="18.2125" x1="5.2333" style="fill:none;" /><ns0:line y2="0.873" y1="23.169" x2="22.254" x1="2.181" style="fill:none;" /></ns0:g><ns0:g transform="translate(60,60)" style="fill:rgb(0,138,0); text-rendering:geometricPrecision; color-rendering:optimizeQuality; image-rendering:optimizeQuality; font-family:'Open Sans'; stroke:rgb(0,138,0); color-interpolation:linearRGB;"><ns0:path style="stroke:none;" d="M-52.3976 -22.2294 Q-53.8038 -22.2294 -54.6242 -21.2919 Q-55.4445 -20.3544 -55.4445 -18.7138 Q-55.4445 -17.0419 -54.6554 -16.12 Q-53.8663 -15.1981 -52.4132 -15.1981 Q-51.507 -15.1981 -50.3663 -15.5263 L-50.3663 -14.6513 Q-51.257 -14.3075 -52.5538 -14.3075 Q-54.4445 -14.3075 -55.4757 -15.4638 Q-56.507 -16.62 -56.507 -18.7294 Q-56.507 -20.0575 -56.0148 -21.0497 Q-55.5226 -22.0419 -54.5851 -22.5809 Q-53.6476 -23.12 -52.382 -23.12 Q-51.0382 -23.12 -50.0226 -22.6356 L-50.4445 -21.7763 Q-51.4288 -22.2294 -52.3976 -22.2294 ZM-47.671 -14.4325 L-48.6398 -14.4325 L-48.6398 -23.5575 L-47.671 -23.5575 L-47.671 -14.4325 Z" /><ns0:path style="stroke:none;" d="M-25.5356 -52.0644 Q-26.9418 -52.0644 -27.7622 -51.1269 Q-28.5825 -50.1894 -28.5825 -48.5487 Q-28.5825 -46.8769 -27.7934 -45.955 Q-27.0043 -45.0331 -25.5512 -45.0331 Q-24.645 -45.0331 -23.5043 -45.3612 L-23.5043 -44.4862 Q-24.395 -44.1425 -25.6918 -44.1425 Q-27.5825 -44.1425 -28.6137 -45.2987 Q-29.645 -46.455 -29.645 -48.5644 Q-29.645 -49.8925 -29.1528 -50.8847 Q-28.6606 -51.8769 -27.7231 -52.4159 Q-26.7856 -52.955 -25.52 -52.955 Q-24.1762 -52.955 -23.1606 -52.4706 L-23.5825 -51.6112 Q-24.5668 -52.0644 -25.5356 -52.0644 ZM-20.809 -44.2675 L-21.7778 -44.2675 L-21.7778 -53.3925 L-20.809 -53.3925 L-20.809 -44.2675 Z" /><ns0:path style="stroke:none;" d="M-51.5156 22.6056 Q-52.9218 22.6056 -53.7422 23.5431 Q-54.5625 24.4806 -54.5625 26.1213 Q-54.5625 27.7931 -53.7734 28.715 Q-52.9843 29.6369 -51.5312 29.6369 Q-50.625 29.6369 -49.4843 29.3088 L-49.4843 30.1838 Q-50.375 30.5275 -51.6718 30.5275 Q-53.5625 30.5275 -54.5937 29.3713 Q-55.625 28.215 -55.625 26.1056 Q-55.625 24.7775 -55.1328 23.7853 Q-54.6406 22.7931 -53.7031 22.2541 Q-52.7656 21.715 -51.5 21.715 Q-50.1562 21.715 -49.1406 22.1994 L-49.5625 23.0588 Q-50.5468 22.6056 -51.5156 22.6056 ZM-46.789 30.4025 L-47.7578 30.4025 L-47.7578 21.2775 L-46.789 21.2775 L-46.789 30.4025 Z" /><ns0:path style="stroke:none;" d="M19.1464 -55.8714 Q17.7402 -55.8714 16.9198 -54.9339 Q16.0995 -53.9964 16.0995 -52.3557 Q16.0995 -50.6839 16.8886 -49.762 Q17.6777 -48.8401 19.1308 -48.8401 Q20.037 -48.8401 21.1777 -49.1682 L21.1777 -48.2932 Q20.287 -47.9495 18.9902 -47.9495 Q17.0995 -47.9495 16.0683 -49.1057 Q15.037 -50.262 15.037 -52.3714 Q15.037 -53.6995 15.5292 -54.6917 Q16.0214 -55.6839 16.9589 -56.2229 Q17.8964 -56.762 19.162 -56.762 Q20.5058 -56.762 21.5214 -56.2776 L21.0995 -55.4182 Q20.1152 -55.8714 19.1464 -55.8714 ZM23.873 -48.0745 L22.9042 -48.0745 L22.9042 -57.1995 L23.873 -57.1995 L23.873 -48.0745 Z" /><ns0:path style="stroke:none;" d="M8.1094 49.1526 Q6.7032 49.1526 5.8828 50.0901 Q5.0625 51.0276 5.0625 52.6682 Q5.0625 54.3401 5.8516 55.262 Q6.6407 56.1839 8.0938 56.1839 Q9 56.1839 10.1407 55.8557 L10.1407 56.7307 Q9.25 57.0745 7.9532 57.0745 Q6.0625 57.0745 5.0313 55.9182 Q4 54.762 4 52.6526 Q4 51.3245 4.4922 50.3323 Q4.9844 49.3401 5.9219 48.8011 Q6.8594 48.262 8.125 48.262 Q9.4688 48.262 10.4844 48.7464 L10.0625 49.6057 Q9.0782 49.1526 8.1094 49.1526 ZM12.836 56.9495 L11.8672 56.9495 L11.8672 47.8245 L12.836 47.8245 L12.836 56.9495 Z" /><ns0:path style="stroke:none;" d="M51.7804 0.6516 Q50.3742 0.6516 49.5538 1.5891 Q48.7335 2.5266 48.7335 4.1672 Q48.7335 5.8391 49.5226 6.761 Q50.3117 7.6829 51.7648 7.6829 Q52.671 7.6829 53.8117 7.3547 L53.8117 8.2297 Q52.921 8.5735 51.6242 8.5735 Q49.7335 8.5735 48.7023 7.4172 Q47.671 6.261 47.671 4.1516 Q47.671 2.8235 48.1632 1.8313 Q48.6554 0.8391 49.5929 0.3001 Q50.5304 -0.239 51.796 -0.239 Q53.1398 -0.239 54.1554 0.2454 L53.7335 1.1047 Q52.7492 0.6516 51.7804 0.6516 ZM56.507 8.4485 L55.5382 8.4485 L55.5382 -0.6765 L56.507 -0.6765 L56.507 8.4485 Z" /></ns0:g><ns0:g transform="translate(60,60)" style="stroke-linecap:butt; text-rendering:geometricPrecision; color-rendering:optimizeQuality; image-rendering:optimizeQuality; font-family:'Open Sans'; color-interpolation:linearRGB; stroke-miterlimit:5;"><ns0:path style="fill:none;" d="M-24.7702 11.1684 L-25.227 10.965 L-25.66 11.215" /><ns0:path style="fill:none;" d="M7.504 -24.674 L7.254 -25.107 L7.4574 -25.5638" /><ns0:path style="fill:none;" d="M1.7242 22.9656 L2.181 23.169 L2.285 23.6581" /><ns0:path style="fill:none;" d="M22.004 0.44 L22.254 0.873 L22.7513 0.9253" /></ns0:g></ns0:g></ns0:svg></ns0:svg></ns0:svg></ns0:svg></g></svg>