<svg width="138" viewBox="0 0 138 79" style="fill-opacity:1; color-rendering:auto; color-interpolation:auto; text-rendering:auto; stroke:black; stroke-linecap:square; stroke-miterlimit:10; shape-rendering:auto; stroke-opacity:1; fill:black; stroke-dasharray:none; font-weight:normal; stroke-width:1; font-family:'Open Sans'; font-style:normal; stroke-linejoin:miter; font-size:12; stroke-dashoffset:0; image-rendering:auto;" height="79" class="cas-substance-image" xmlns:xlink="http://www.w3.org/1999/xlink" xmlns="http://www.w3.org/2000/svg"><svg class="cas-substance-single-component"><rect y="0" x="0" width="138" stroke="none" ry="7" rx="7" height="79" fill="white" class="cas-substance-group"/><svg y="0" x="0" width="138" viewBox="0 0 138 79" style="fill:black;" height="79" class="cas-substance-single-component-image"><svg><g><g transform="translate(68,38)" style="text-rendering:geometricPrecision; color-rendering:optimizeQuality; color-interpolation:linearRGB; stroke-linecap:butt; image-rendering:optimizeQuality;"><line y2="-15" y1="-26.5517" x2="36.072" x1="56.0819" style="fill:none;"/><line y2="-15" y1="15" x2="-15.888" x1="-15.888" style="fill:none;"/><line y2="30" y1="15" x2="10.092" x1="-15.888" style="fill:none;"/><line y2="25.9585" y1="12.9793" x2="10.0921" x1="-12.388" style="fill:none;"/><line y2="22.5631" y1="15" x2="-39.1673" x1="-15.888" style="fill:none;"/><line y2="-30" y1="-15" x2="10.092" x1="-15.888" style="fill:none;"/><line y2="-25.9585" y1="-12.9793" x2="10.0921" x1="-12.388" style="fill:none;"/><line y2="-22.5631" y1="-15" x2="-39.1673" x1="-15.888" style="fill:none;"/><line y2="15" y1="30" x2="36.072" x1="10.092" style="fill:none;"/><line y2="5.7743" y1="18.2457" x2="-57.8596" x1="-48.7981" style="fill:none;"/><line y2="-15" y1="-30" x2="36.072" x1="10.092" style="fill:none;"/><line y2="-7.0529" y1="-19.5244" x2="-59.0937" x1="-50.0322" style="fill:none;"/><line y2="-4.9956" y1="-17.4671" x2="-56.2622" x1="-47.2007" style="fill:none;"/><line y2="-15" y1="15" x2="36.072" x1="36.072" style="fill:none;"/><line y2="-12.9793" y1="12.9793" x2="32.572" x1="32.572" style="fill:none;"/></g><g transform="translate(68,38)" style="fill:rgb(0,138,0); text-rendering:geometricPrecision; color-rendering:optimizeQuality; image-rendering:optimizeQuality; font-family:'Open Sans'; stroke:rgb(0,138,0); color-interpolation:linearRGB;"><path style="stroke:none;" d="M61.7464 -33.3594 Q60.3402 -33.3594 59.5198 -32.4219 Q58.6995 -31.4844 58.6995 -29.8438 Q58.6995 -28.1719 59.4886 -27.25 Q60.2777 -26.3281 61.7308 -26.3281 Q62.637 -26.3281 63.7777 -26.6562 L63.7777 -25.7812 Q62.887 -25.4375 61.5902 -25.4375 Q59.6995 -25.4375 58.6683 -26.5938 Q57.637 -27.75 57.637 -29.8594 Q57.637 -31.1875 58.1292 -32.1797 Q58.6214 -33.1719 59.5589 -33.7109 Q60.4964 -34.25 61.762 -34.25 Q63.1058 -34.25 64.1214 -33.7656 L63.6995 -32.9062 Q62.7152 -33.3594 61.7464 -33.3594 ZM66.473 -25.5625 L65.5042 -25.5625 L65.5042 -34.6875 L66.473 -34.6875 L66.473 -25.5625 Z"/></g><g transform="translate(68,38)" style="stroke-linecap:butt; text-rendering:geometricPrecision; color-rendering:optimizeQuality; image-rendering:optimizeQuality; font-family:'Open Sans'; color-interpolation:linearRGB; stroke-miterlimit:5;"><path style="fill:none;" d="M-15.455 15.25 L-15.888 15 L-16.3635 15.1545"/><path style="fill:none;" d="M-15.455 -15.25 L-15.888 -15 L-16.3635 -15.1545"/><path style="fill:none;" d="M9.659 29.75 L10.092 30 L10.525 29.75"/><path style="fill:rgb(0,5,255); stroke:none;" d="M-41.0694 28.4263 L-42.2101 28.4263 L-46.8976 21.2388 L-46.9444 21.2388 Q-46.8507 22.5044 -46.8507 23.5513 L-46.8507 28.4263 L-47.7726 28.4263 L-47.7726 19.8638 L-46.6476 19.8638 L-41.9757 27.02 L-41.9288 27.02 Q-41.9288 26.8638 -41.9757 26.0044 Q-42.0226 25.145 -42.0069 24.77 L-42.0069 19.8638 L-41.0694 19.8638 L-41.0694 28.4263 Z"/><path style="fill:rgb(0,5,255); stroke:none;" d="M-41.1632 37.9888 L-42.1632 37.9888 L-42.1632 33.9575 L-46.6788 33.9575 L-46.6788 37.9888 L-47.6788 37.9888 L-47.6788 29.4263 L-46.6788 29.4263 L-46.6788 33.0669 L-42.1632 33.0669 L-42.1632 29.4263 L-41.1632 29.4263 L-41.1632 37.9888 Z"/><path style="fill:none;" d="M9.659 -29.75 L10.092 -30 L10.525 -29.75"/><path style="fill:rgb(0,5,255); stroke:none;" d="M-41.0694 -20.1138 L-42.2101 -20.1138 L-46.8976 -27.3013 L-46.9444 -27.3013 Q-46.8507 -26.0356 -46.8507 -24.9888 L-46.8507 -20.1138 L-47.7726 -20.1138 L-47.7726 -28.6763 L-46.6476 -28.6763 L-41.9757 -21.52 L-41.9288 -21.52 Q-41.9288 -21.6763 -41.9757 -22.5356 Q-42.0226 -23.395 -42.0069 -23.77 L-42.0069 -28.6763 L-41.0694 -28.6763 L-41.0694 -20.1138 Z"/><path style="fill:none;" d="M35.639 15.25 L36.072 15 L36.072 14.5"/><path style="fill:rgb(0,5,255); stroke:none;" d="M-58.7034 4.1562 L-59.8441 4.1562 L-64.5316 -3.0312 L-64.5784 -3.0312 Q-64.4847 -1.7656 -64.4847 -0.7188 L-64.4847 4.1562 L-65.4066 4.1562 L-65.4066 -4.4062 L-64.2816 -4.4062 L-59.6097 2.75 L-59.5628 2.75 Q-59.5628 2.5938 -59.6097 1.7344 Q-59.6566 0.875 -59.6409 0.5 L-59.6409 -4.4062 L-58.7034 -4.4062 L-58.7034 4.1562 Z"/><path style="fill:none;" d="M36.072 -14.5 L36.072 -15 L36.505 -15.25"/></g></g></svg></svg></svg></svg>