<svg width="382" viewBox="0 0 382 210" style="fill-opacity:1; color-rendering:auto; color-interpolation:auto; text-rendering:auto; stroke:black; stroke-linecap:square; stroke-miterlimit:10; shape-rendering:auto; stroke-opacity:1; fill:black; stroke-dasharray:none; font-weight:normal; stroke-width:1; font-family:'Open Sans'; font-style:normal; stroke-linejoin:miter; font-size:12; stroke-dashoffset:0; image-rendering:auto;" height="210" class="cas-substance-image" xmlns:xlink="http://www.w3.org/1999/xlink" xmlns="http://www.w3.org/2000/svg"><svg class="cas-substance-single-component"><rect y="0" x="0" width="382" stroke="none" ry="7" rx="7" height="210" fill="white" class="cas-substance-group"/><svg y="0" x="0" width="382" viewBox="0 0 382 210" style="fill:black;" height="210" class="cas-substance-single-component-image"><svg><g><g transform="translate(196,105)" style="text-rendering:geometricPrecision; color-rendering:optimizeQuality; color-interpolation:linearRGB; stroke-linecap:butt; image-rendering:optimizeQuality;"><path style="stroke:none;" d="M-52.213 -52.933 L-51.713 -52.067 L-75.1931 -35.3349 L-81.1929 -38.7991 Z"/><line y2="-52.5" y1="-37.5" x2="-103.923" x1="-77.943" style="fill:none;"/><line y2="-40.4348" y1="-52.5" x2="-31.0637" x1="-51.963" style="fill:none;"/><line y2="-82.5" y1="-52.5" x2="-51.963" x1="-51.963" style="fill:none;"/><line y2="-7.5" y1="-31.3438" x2="-25.98" x1="-25.98" style="fill:none;"/><line y2="-94.3114" y1="-82.5" x2="-31.5032" x1="-51.963" style="fill:none;"/><line y2="-95.8369" y1="-83.5103" x2="-71.5626" x1="-50.2129" style="fill:none;"/><line y2="-92.8059" y1="-80.4793" x2="-73.3127" x1="-51.963" style="fill:none;"/><line y2="7.5" y1="-7.5" x2="0" x1="-25.98" style="fill:none;"/><line y2="2.7586" y1="-9.5207" x2="-47.2502" x1="-25.98" style="fill:none;"/><line y2="5.7898" y1="-6.4896" x2="-45.5003" x1="-24.23" style="fill:none;"/><line y2="-4.5649" y1="7.5" x2="20.8964" x1="0" style="fill:none;"/><path style="stroke:none;" d="M-0.5 7.5 L0.5 7.5 L3.25 36.2009 L-2.75 39.6651 Z"/><line y2="7.5" y1="-4.5652" x2="51.963" x1="31.0637" style="fill:none;"/><line y2="52.5" y1="37.5" x2="-25.98" x1="0" style="fill:none;"/><line y2="-4.3112" y1="7.5" x2="72.42" x1="51.963" style="fill:none;"/><line y2="31.0234" y1="6.4897" x2="50.213" x1="50.213" style="fill:none;"/><line y2="31.0234" y1="6.4896" x2="53.713" x1="53.713" style="fill:none;"/><line y2="82.5" y1="52.5" x2="-25.98" x1="-25.98" style="fill:none;"/><line y2="7.5" y1="-4.3214" x2="103.923" x1="83.4484" style="fill:none;"/><line y2="94.2586" y1="82.5" x2="-5.6141" x1="-25.98" style="fill:none;"/><line y2="92.7586" y1="80.4793" x2="-47.2502" x1="-25.98" style="fill:none;"/><line y2="95.7898" y1="83.5104" x2="-45.5003" x1="-24.23" style="fill:none;"/><line y2="-7.5" y1="7.5" x2="129.903" x1="103.923" style="fill:none;"/><line y2="-82.5" y1="-94.3214" x2="-155.886" x1="-176.3606" style="fill:none;"/><line y2="-37.5" y1="-52.5" x2="-129.903" x1="-103.923" style="fill:none;"/><line y2="-41.5415" y1="-54.5207" x2="-129.9031" x1="-107.423" style="fill:none;"/><line y2="-82.5" y1="-52.5" x2="-103.923" x1="-103.923" style="fill:none;"/><line y2="-52.5" y1="-37.5" x2="-155.886" x1="-129.903" style="fill:none;"/><line y2="-97.5" y1="-82.5" x2="-129.903" x1="-103.923" style="fill:none;"/><line y2="-93.4585" y1="-80.4793" x2="-129.9031" x1="-107.423" style="fill:none;"/><line y2="-82.5" y1="-52.5" x2="-155.886" x1="-155.886" style="fill:none;"/><line y2="-80.4793" y1="-54.5207" x2="-152.386" x1="-152.386" style="fill:none;"/><line y2="-82.5" y1="-97.5" x2="-155.886" x1="-129.903" style="fill:none;"/><line y2="7.5" y1="-7.5" x2="155.886" x1="129.903" style="fill:none;"/><line y2="3.4585" y1="-9.5209" x2="155.8859" x1="133.4029" style="fill:none;"/><line y2="-37.5" y1="-7.5" x2="129.903" x1="129.903" style="fill:none;"/><line y2="-7.5" y1="7.5" x2="181.866" x1="155.886" style="fill:none;"/><line y2="-52.5" y1="-37.5" x2="155.886" x1="129.903" style="fill:none;"/><line y2="-48.4585" y1="-35.4791" x2="155.8859" x1="133.4029" style="fill:none;"/><line y2="-37.5" y1="-7.5" x2="181.866" x1="181.866" style="fill:none;"/><line y2="-35.4793" y1="-9.5207" x2="178.366" x1="178.366" style="fill:none;"/><line y2="-37.5" y1="-52.5" x2="181.866" x1="155.886" style="fill:none;"/></g><g transform="translate(196,105)" style="font-size:8.4px; fill:gray; text-rendering:geometricPrecision; image-rendering:optimizeQuality; color-rendering:optimizeQuality; font-family:'Open Sans'; font-style:italic; stroke:gray; color-interpolation:linearRGB;"><path style="stroke:none;" d="M-64.7318 -56.2968 Q-64.7318 -57.6249 -64.2631 -58.7499 Q-63.7943 -59.8749 -62.7631 -60.953 L-62.1537 -60.953 Q-63.1225 -59.8905 -63.6068 -58.7186 Q-64.0912 -57.5468 -64.0912 -56.3124 Q-64.0912 -54.9843 -63.6537 -53.9686 L-64.1693 -53.9686 Q-64.7318 -54.9999 -64.7318 -56.2968 ZM-59.1093 -56.8905 Q-59.1093 -56.0624 -59.6562 -55.6093 Q-60.203 -55.1561 -61.203 -55.1561 Q-61.6093 -55.1561 -61.9218 -55.2108 Q-62.2343 -55.2655 -62.5155 -55.4061 L-62.5155 -56.0624 Q-61.8905 -55.7343 -61.1874 -55.7343 Q-60.5624 -55.7343 -60.1874 -56.0311 Q-59.8124 -56.328 -59.8124 -56.8436 Q-59.8124 -57.1561 -60.0155 -57.3827 Q-60.2187 -57.6093 -60.7812 -57.9374 Q-61.3749 -58.2655 -61.6015 -58.5936 Q-61.828 -58.9218 -61.828 -59.3749 Q-61.828 -60.1093 -61.3124 -60.5702 Q-60.7968 -61.0311 -59.953 -61.0311 Q-59.578 -61.0311 -59.2421 -60.953 Q-58.9062 -60.8749 -58.5312 -60.703 L-58.7968 -60.1093 Q-59.0468 -60.2655 -59.3671 -60.3515 Q-59.6874 -60.4374 -59.953 -60.4374 Q-60.4843 -60.4374 -60.8046 -60.164 Q-61.1249 -59.8905 -61.1249 -59.4218 Q-61.1249 -59.2186 -61.0546 -59.0702 Q-60.9843 -58.9218 -60.8437 -58.789 Q-60.703 -58.6561 -60.2812 -58.4061 Q-59.7187 -58.0624 -59.5155 -57.8671 Q-59.3124 -57.6718 -59.2108 -57.4374 Q-59.1093 -57.203 -59.1093 -56.8905 ZM-56.5148 -58.6093 Q-56.5148 -57.2811 -56.9914 -56.1483 Q-57.4679 -55.0155 -58.4836 -53.9686 L-59.0929 -53.9686 Q-57.1554 -56.1249 -57.1554 -58.6093 Q-57.1554 -59.9374 -57.5929 -60.953 L-57.0773 -60.953 Q-56.5148 -59.8905 -56.5148 -58.6093 Z"/></g><g transform="translate(196,105)" style="fill:rgb(0,5,255); text-rendering:geometricPrecision; color-rendering:optimizeQuality; image-rendering:optimizeQuality; font-family:'Open Sans'; stroke:rgb(0,5,255); color-interpolation:linearRGB;"><path style="stroke:none;" d="M-22.6284 -33.3438 L-23.7691 -33.3438 L-28.4566 -40.5312 L-28.5034 -40.5312 Q-28.4097 -39.2656 -28.4097 -38.2188 L-28.4097 -33.3438 L-29.3316 -33.3438 L-29.3316 -41.9062 L-28.2066 -41.9062 L-23.5347 -34.75 L-23.4878 -34.75 Q-23.4878 -34.9062 -23.5347 -35.7656 Q-23.5816 -36.625 -23.5659 -37 L-23.5659 -41.9062 L-22.6284 -41.9062 L-22.6284 -33.3438 Z"/><path style="stroke:none;" d="M-15.1128 -33.3438 L-16.1128 -33.3438 L-16.1128 -37.375 L-20.6284 -37.375 L-20.6284 -33.3438 L-21.6284 -33.3438 L-21.6284 -41.9062 L-20.6284 -41.9062 L-20.6284 -38.2656 L-16.1128 -38.2656 L-16.1128 -41.9062 L-15.1128 -41.9062 L-15.1128 -33.3438 Z"/></g><g transform="translate(196,105)" style="stroke-linecap:butt; text-rendering:geometricPrecision; color-rendering:optimizeQuality; image-rendering:optimizeQuality; font-family:'Open Sans'; color-interpolation:linearRGB; stroke-miterlimit:5;"><path style="fill:none;" d="M-51.963 -82 L-51.963 -82.5 L-51.53 -82.75"/><path style="fill:none;" d="M-25.98 -8 L-25.98 -7.5 L-25.547 -7.25"/><path style="fill:rgb(230,0,0); stroke:none;" d="M-22.0425 -97.5703 Q-22.0425 -95.5078 -23.0816 -94.3281 Q-24.1206 -93.1484 -25.9644 -93.1484 Q-27.855 -93.1484 -28.8862 -94.3125 Q-29.9175 -95.4766 -29.9175 -97.5859 Q-29.9175 -99.6797 -28.8862 -100.8281 Q-27.855 -101.9766 -25.9644 -101.9766 Q-24.105 -101.9766 -23.0737 -100.8047 Q-22.0425 -99.6328 -22.0425 -97.5703 ZM-28.8706 -97.5703 Q-28.8706 -95.8359 -28.1284 -94.9297 Q-27.3862 -94.0234 -25.9644 -94.0234 Q-24.5425 -94.0234 -23.8159 -94.9219 Q-23.0894 -95.8203 -23.0894 -97.5703 Q-23.0894 -99.3047 -23.8159 -100.1953 Q-24.5425 -101.0859 -25.9644 -101.0859 Q-27.3862 -101.0859 -28.1284 -100.1875 Q-28.8706 -99.2891 -28.8706 -97.5703 Z"/><path style="fill:rgb(230,0,0); stroke:none;" d="M-14.5269 -93.2734 L-15.5269 -93.2734 L-15.5269 -97.3047 L-20.0425 -97.3047 L-20.0425 -93.2734 L-21.0425 -93.2734 L-21.0425 -101.8359 L-20.0425 -101.8359 L-20.0425 -98.1953 L-15.5269 -98.1953 L-15.5269 -101.8359 L-14.5269 -101.8359 L-14.5269 -93.2734 Z"/><path style="fill:rgb(230,0,0); stroke:none;" d="M-74.0055 -97.5703 Q-74.0055 -95.5078 -75.0446 -94.3281 Q-76.0836 -93.1484 -77.9274 -93.1484 Q-79.818 -93.1484 -80.8493 -94.3125 Q-81.8805 -95.4766 -81.8805 -97.5859 Q-81.8805 -99.6797 -80.8493 -100.8281 Q-79.818 -101.9766 -77.9274 -101.9766 Q-76.068 -101.9766 -75.0368 -100.8047 Q-74.0055 -99.6328 -74.0055 -97.5703 ZM-80.8336 -97.5703 Q-80.8336 -95.8359 -80.0914 -94.9297 Q-79.3493 -94.0234 -77.9274 -94.0234 Q-76.5055 -94.0234 -75.7789 -94.9219 Q-75.0524 -95.8203 -75.0524 -97.5703 Q-75.0524 -99.3047 -75.7789 -100.1953 Q-76.5055 -101.0859 -77.9274 -101.0859 Q-79.3493 -101.0859 -80.0914 -100.1875 Q-80.8336 -99.2891 -80.8336 -97.5703 Z"/></g><g transform="translate(196,105)" style="stroke-linecap:butt; font-size:8.4px; fill:gray; text-rendering:geometricPrecision; image-rendering:optimizeQuality; color-rendering:optimizeQuality; font-family:'Open Sans'; font-style:italic; stroke:gray; color-interpolation:linearRGB; stroke-miterlimit:5;"><path style="stroke:none;" d="M-4.1085 -1.2969 Q-4.1085 -2.625 -3.6398 -3.75 Q-3.171 -4.875 -2.1398 -5.9531 L-1.5304 -5.9531 Q-2.4991 -4.8906 -2.9835 -3.7188 Q-3.4679 -2.5469 -3.4679 -1.3125 Q-3.4679 0.0156 -3.0304 1.0312 L-3.546 1.0312 Q-4.1085 0 -4.1085 -1.2969 ZM1.514 -1.8906 Q1.514 -1.0625 0.9672 -0.6094 Q0.4203 -0.1562 -0.5797 -0.1562 Q-0.986 -0.1562 -1.2985 -0.2109 Q-1.611 -0.2656 -1.8922 -0.4062 L-1.8922 -1.0625 Q-1.2672 -0.7344 -0.5641 -0.7344 Q0.0609 -0.7344 0.4359 -1.0312 Q0.8109 -1.3281 0.8109 -1.8438 Q0.8109 -2.1562 0.6078 -2.3828 Q0.4047 -2.6094 -0.1578 -2.9375 Q-0.7516 -3.2656 -0.9781 -3.5938 Q-1.2047 -3.9219 -1.2047 -4.375 Q-1.2047 -5.1094 -0.6891 -5.5703 Q-0.1735 -6.0312 0.6703 -6.0312 Q1.0453 -6.0312 1.3812 -5.9531 Q1.7172 -5.875 2.0922 -5.7031 L1.8265 -5.1094 Q1.5765 -5.2656 1.2562 -5.3516 Q0.9359 -5.4375 0.6703 -5.4375 Q0.139 -5.4375 -0.1813 -5.1641 Q-0.5016 -4.8906 -0.5016 -4.4219 Q-0.5016 -4.2188 -0.4313 -4.0703 Q-0.361 -3.9219 -0.2203 -3.7891 Q-0.0797 -3.6562 0.3422 -3.4062 Q0.9047 -3.0625 1.1078 -2.8672 Q1.3109 -2.6719 1.4125 -2.4375 Q1.514 -2.2031 1.514 -1.8906 ZM4.1085 -3.6094 Q4.1085 -2.2812 3.632 -1.1484 Q3.1554 -0.0156 2.1398 1.0312 L1.5304 1.0312 Q3.4679 -1.125 3.4679 -3.6094 Q3.4679 -4.9375 3.0304 -5.9531 L3.546 -5.9531 Q4.1085 -4.8906 4.1085 -3.6094 Z"/></g><g transform="translate(196,105)" style="stroke-linecap:butt; fill:rgb(230,0,0); text-rendering:geometricPrecision; color-rendering:optimizeQuality; image-rendering:optimizeQuality; font-family:'Open Sans'; stroke:rgb(230,0,0); color-interpolation:linearRGB; stroke-miterlimit:5;"><path style="stroke:none;" d="M-48.0255 7.4297 Q-48.0255 9.4922 -49.0646 10.6719 Q-50.1036 11.8516 -51.9474 11.8516 Q-53.838 11.8516 -54.8693 10.6875 Q-55.9005 9.5234 -55.9005 7.4141 Q-55.9005 5.3203 -54.8693 4.1719 Q-53.838 3.0234 -51.9474 3.0234 Q-50.088 3.0234 -49.0568 4.1953 Q-48.0255 5.3672 -48.0255 7.4297 ZM-54.8536 7.4297 Q-54.8536 9.1641 -54.1114 10.0703 Q-53.3693 10.9766 -51.9474 10.9766 Q-50.5255 10.9766 -49.7989 10.0781 Q-49.0724 9.1797 -49.0724 7.4297 Q-49.0724 5.6953 -49.7989 4.8047 Q-50.5255 3.9141 -51.9474 3.9141 Q-53.3693 3.9141 -54.1114 4.8125 Q-54.8536 5.7109 -54.8536 7.4297 Z"/><path style="fill:rgb(0,5,255); stroke:none;" d="M29.3316 -3.3438 L28.1909 -3.3438 L23.5034 -10.5312 L23.4566 -10.5312 Q23.5503 -9.2656 23.5503 -8.2188 L23.5503 -3.3438 L22.6284 -3.3438 L22.6284 -11.9062 L23.7534 -11.9062 L28.4253 -4.75 L28.4722 -4.75 Q28.4722 -4.9062 28.4253 -5.7656 Q28.3784 -6.625 28.3941 -7 L28.3941 -11.9062 L29.3316 -11.9062 L29.3316 -3.3438 Z"/><path style="fill:rgb(0,5,255); stroke:none;" d="M29.2378 -12.9062 L28.2378 -12.9062 L28.2378 -16.9375 L23.7222 -16.9375 L23.7222 -12.9062 L22.7222 -12.9062 L22.7222 -21.4688 L23.7222 -21.4688 L23.7222 -17.8281 L28.2378 -17.8281 L28.2378 -21.4688 L29.2378 -21.4688 L29.2378 -12.9062 Z"/><path style="fill:none; stroke:black;" d="M51.53 7.25 L51.963 7.5 L52.396 7.25"/><path style="fill:none; stroke:black;" d="M-25.547 52.25 L-25.98 52.5 L-25.98 53"/><path style="stroke:none;" d="M81.8805 -7.5703 Q81.8805 -5.5078 80.8414 -4.3281 Q79.8024 -3.1484 77.9586 -3.1484 Q76.068 -3.1484 75.0368 -4.3125 Q74.0055 -5.4766 74.0055 -7.5859 Q74.0055 -9.6797 75.0368 -10.8281 Q76.068 -11.9766 77.9586 -11.9766 Q79.818 -11.9766 80.8493 -10.8047 Q81.8805 -9.6328 81.8805 -7.5703 ZM75.0524 -7.5703 Q75.0524 -5.8359 75.7946 -4.9297 Q76.5368 -4.0234 77.9586 -4.0234 Q79.3805 -4.0234 80.1071 -4.9219 Q80.8336 -5.8203 80.8336 -7.5703 Q80.8336 -9.3047 80.1071 -10.1953 Q79.3805 -11.0859 77.9586 -11.0859 Q76.5368 -11.0859 75.7946 -10.1875 Q75.0524 -9.2891 75.0524 -7.5703 Z"/><path style="stroke:none;" d="M55.9005 37.4297 Q55.9005 39.4922 54.8614 40.6719 Q53.8224 41.8516 51.9786 41.8516 Q50.088 41.8516 49.0568 40.6875 Q48.0255 39.5234 48.0255 37.4141 Q48.0255 35.3203 49.0568 34.1719 Q50.088 33.0234 51.9786 33.0234 Q53.838 33.0234 54.8693 34.1953 Q55.9005 35.3672 55.9005 37.4297 ZM49.0724 37.4297 Q49.0724 39.1641 49.8146 40.0703 Q50.5568 40.9766 51.9786 40.9766 Q53.4005 40.9766 54.1271 40.0781 Q54.8536 39.1797 54.8536 37.4297 Q54.8536 35.6953 54.1271 34.8047 Q53.4005 33.9141 51.9786 33.9141 Q50.5568 33.9141 49.8146 34.8125 Q49.0724 35.7109 49.0724 37.4297 Z"/><path style="fill:none; stroke:black;" d="M-25.98 82 L-25.98 82.5 L-25.547 82.75"/><path style="fill:none; stroke:black;" d="M103.49 7.25 L103.923 7.5 L104.356 7.25"/><path style="stroke:none;" d="M3.9375 97.4297 Q3.9375 99.4922 2.8984 100.6719 Q1.8594 101.8516 0.0156 101.8516 Q-1.875 101.8516 -2.9062 100.6875 Q-3.9375 99.5234 -3.9375 97.4141 Q-3.9375 95.3203 -2.9062 94.1719 Q-1.875 93.0234 0.0156 93.0234 Q1.875 93.0234 2.9062 94.1953 Q3.9375 95.3672 3.9375 97.4297 ZM-2.8906 97.4297 Q-2.8906 99.1641 -2.1484 100.0703 Q-1.4062 100.9766 0.0156 100.9766 Q1.4375 100.9766 2.1641 100.0781 Q2.8906 99.1797 2.8906 97.4297 Q2.8906 95.6953 2.1641 94.8047 Q1.4375 93.9141 0.0156 93.9141 Q-1.4062 93.9141 -2.1484 94.8125 Q-2.8906 95.7109 -2.8906 97.4297 Z"/><path style="stroke:none;" d="M11.4531 101.7266 L10.4531 101.7266 L10.4531 97.6953 L5.9375 97.6953 L5.9375 101.7266 L4.9375 101.7266 L4.9375 93.1641 L5.9375 93.1641 L5.9375 96.8047 L10.4531 96.8047 L10.4531 93.1641 L11.4531 93.1641 L11.4531 101.7266 Z"/><path style="stroke:none;" d="M-48.0255 97.4297 Q-48.0255 99.4922 -49.0646 100.6719 Q-50.1036 101.8516 -51.9474 101.8516 Q-53.838 101.8516 -54.8693 100.6875 Q-55.9005 99.5234 -55.9005 97.4141 Q-55.9005 95.3203 -54.8693 94.1719 Q-53.838 93.0234 -51.9474 93.0234 Q-50.088 93.0234 -49.0568 94.1953 Q-48.0255 95.3672 -48.0255 97.4297 ZM-54.8536 97.4297 Q-54.8536 99.1641 -54.1114 100.0703 Q-53.3693 100.9766 -51.9474 100.9766 Q-50.5255 100.9766 -49.7989 100.0781 Q-49.0724 99.1797 -49.0724 97.4297 Q-49.0724 95.6953 -49.7989 94.8047 Q-50.5255 93.9141 -51.9474 93.9141 Q-53.3693 93.9141 -54.1114 94.8125 Q-54.8536 95.7109 -54.8536 97.4297 Z"/><path style="stroke:none;" d="M-177.9285 -97.5703 Q-177.9285 -95.5078 -178.9676 -94.3281 Q-180.0066 -93.1484 -181.8504 -93.1484 Q-183.741 -93.1484 -184.7722 -94.3125 Q-185.8035 -95.4766 -185.8035 -97.5859 Q-185.8035 -99.6797 -184.7722 -100.8281 Q-183.741 -101.9766 -181.8504 -101.9766 Q-179.991 -101.9766 -178.9597 -100.8047 Q-177.9285 -99.6328 -177.9285 -97.5703 ZM-184.7566 -97.5703 Q-184.7566 -95.8359 -184.0144 -94.9297 Q-183.2722 -94.0234 -181.8504 -94.0234 Q-180.4285 -94.0234 -179.7019 -94.9219 Q-178.9754 -95.8203 -178.9754 -97.5703 Q-178.9754 -99.3047 -179.7019 -100.1953 Q-180.4285 -101.0859 -181.8504 -101.0859 Q-183.2722 -101.0859 -184.0144 -100.1875 Q-184.7566 -99.2891 -184.7566 -97.5703 Z"/><path style="stroke:none;" d="M-186.8035 -93.2734 L-187.8035 -93.2734 L-187.8035 -97.3047 L-192.3191 -97.3047 L-192.3191 -93.2734 L-193.3191 -93.2734 L-193.3191 -101.8359 L-192.3191 -101.8359 L-192.3191 -98.1953 L-187.8035 -98.1953 L-187.8035 -101.8359 L-186.8035 -101.8359 L-186.8035 -93.2734 Z"/><path style="fill:none; stroke:black;" d="M-104.356 -52.25 L-103.923 -52.5 L-103.923 -53"/><path style="fill:none; stroke:black;" d="M-129.47 -37.75 L-129.903 -37.5 L-130.336 -37.75"/><path style="fill:none; stroke:black;" d="M-103.923 -82 L-103.923 -82.5 L-104.356 -82.75"/><path style="fill:none; stroke:black;" d="M-155.453 -52.25 L-155.886 -52.5 L-155.886 -53"/><path style="fill:none; stroke:black;" d="M-129.47 -97.25 L-129.903 -97.5 L-130.336 -97.25"/><path style="fill:none; stroke:black;" d="M-155.886 -82 L-155.886 -82.5 L-156.319 -82.75"/><path style="fill:none; stroke:black;" d="M130.336 -7.25 L129.903 -7.5 L129.47 -7.25"/><path style="fill:none; stroke:black;" d="M155.453 7.25 L155.886 7.5 L156.319 7.25"/><path style="fill:none; stroke:black;" d="M129.903 -37 L129.903 -37.5 L130.336 -37.75"/><path style="fill:none; stroke:black;" d="M181.433 -7.25 L181.866 -7.5 L181.866 -8"/><path style="fill:none; stroke:black;" d="M155.453 -52.25 L155.886 -52.5 L156.319 -52.25"/><path style="fill:none; stroke:black;" d="M181.866 -37 L181.866 -37.5 L181.433 -37.75"/></g></g></svg></svg></svg></svg>