<svg width="152" viewBox="0 0 152 93" style="fill-opacity:1; color-rendering:auto; color-interpolation:auto; text-rendering:auto; stroke:black; stroke-linecap:square; stroke-miterlimit:10; shape-rendering:auto; stroke-opacity:1; fill:black; stroke-dasharray:none; font-weight:normal; stroke-width:1; font-family:'Open Sans'; font-style:normal; stroke-linejoin:miter; font-size:12; stroke-dashoffset:0; image-rendering:auto;" height="93" class="cas-substance-image" xmlns:xlink="http://www.w3.org/1999/xlink" xmlns="http://www.w3.org/2000/svg"><svg class="cas-substance-single-component"><rect y="0" x="0" width="152" stroke="none" ry="7" rx="7" height="93" fill="white" class="cas-substance-group"/><svg y="0" x="0" width="152" viewBox="0 0 152 93" style="fill:black;" height="93" class="cas-substance-single-component-image"><svg><g><g transform="translate(76,46)" style="text-rendering:geometricPrecision; color-rendering:optimizeQuality; color-interpolation:linearRGB; stroke-linecap:butt; image-rendering:optimizeQuality;"><line y2="-33.0817" y1="-12.99" x2="-64.1003" x1="-52.5" style="fill:none;"/><line y2="-12.99" y1="-12.99" x2="-22.5" x1="-52.5" style="fill:none;"/><line y2="12.99" y1="36.372" x2="-7.5" x1="-21" style="fill:none;"/><line y2="-12.99" y1="-12.99" x2="37.5" x1="59.8311" style="fill:none;"/><line y2="12.99" y1="-12.99" x2="-7.5" x1="-22.5" style="fill:none;"/><line y2="9.49" y1="-12.9901" x2="-5.4793" x1="-18.4585" style="fill:none;"/><line y2="-38.97" y1="-12.99" x2="-7.5" x1="-22.5" style="fill:none;"/><line y2="12.99" y1="12.99" x2="22.5" x1="-7.5" style="fill:none;"/><line y2="-38.97" y1="-38.97" x2="22.5" x1="-7.5" style="fill:none;"/><line y2="-35.47" y1="-35.47" x2="20.4793" x1="-5.4793" style="fill:none;"/><line y2="-12.99" y1="12.99" x2="37.5" x1="22.5" style="fill:none;"/><line y2="-12.9901" y1="9.49" x2="33.4585" x1="20.4793" style="fill:none;"/><line y2="-12.99" y1="-38.97" x2="37.5" x1="22.5" style="fill:none;"/><path style="fill:none; stroke-miterlimit:5;" d="M-52.75 -13.423 L-52.5 -12.99 L-52 -12.99"/></g><g transform="translate(76,46)" style="stroke-linecap:butt; fill:rgb(0,138,0); text-rendering:geometricPrecision; color-rendering:optimizeQuality; image-rendering:optimizeQuality; font-family:'Open Sans'; stroke:rgb(0,138,0); color-interpolation:linearRGB; stroke-miterlimit:5;"><path style="stroke:none;" d="M-73.1689 -43.3763 L-70.7471 -43.3763 Q-69.0439 -43.3763 -68.2783 -42.8684 Q-67.5127 -42.3606 -67.5127 -41.2669 Q-67.5127 -40.5013 -67.9346 -40.0013 Q-68.3564 -39.5013 -69.1846 -39.3606 L-69.1846 -39.2981 Q-67.2314 -38.97 -67.2314 -37.2513 Q-67.2314 -36.1106 -68.0049 -35.4622 Q-68.7783 -34.8138 -70.1689 -34.8138 L-73.1689 -34.8138 L-73.1689 -43.3763 ZM-72.1689 -39.72 L-70.5283 -39.72 Q-69.4658 -39.72 -69.0049 -40.0481 Q-68.5439 -40.3763 -68.5439 -41.1575 Q-68.5439 -41.8763 -69.0596 -42.1966 Q-69.5752 -42.5169 -70.7002 -42.5169 L-72.1689 -42.5169 L-72.1689 -39.72 ZM-72.1689 -38.8763 L-72.1689 -35.6575 L-70.3721 -35.6575 Q-69.3408 -35.6575 -68.8174 -36.0638 Q-68.2939 -36.47 -68.2939 -37.3294 Q-68.2939 -38.1263 -68.833 -38.5013 Q-69.3721 -38.8763 -70.4658 -38.8763 L-72.1689 -38.8763 ZM-62.5967 -41.3606 Q-62.1748 -41.3606 -61.8311 -41.2825 L-61.9717 -40.3763 Q-62.3623 -40.47 -62.6748 -40.47 Q-63.4561 -40.47 -64.0107 -39.8372 Q-64.5654 -39.2044 -64.5654 -38.2669 L-64.5654 -34.8138 L-65.5342 -34.8138 L-65.5342 -41.2356 L-64.7373 -41.2356 L-64.6123 -40.0481 L-64.5654 -40.0481 Q-64.2217 -40.6731 -63.7139 -41.0169 Q-63.2061 -41.3606 -62.5967 -41.3606 Z"/><path style="stroke:none;" d="M-23 43.1263 L-23 34.5638 L-22 34.5638 L-22 43.1263 L-23 43.1263 Z"/><path style="stroke:none;" d="M61.8311 -17.3962 L64.2529 -17.3962 Q65.9561 -17.3962 66.7217 -16.8884 Q67.4873 -16.3806 67.4873 -15.2869 Q67.4873 -14.5212 67.0654 -14.0212 Q66.6436 -13.5212 65.8154 -13.3806 L65.8154 -13.3181 Q67.7686 -12.99 67.7686 -11.2712 Q67.7686 -10.1306 66.9951 -9.4822 Q66.2217 -8.8337 64.8311 -8.8337 L61.8311 -8.8337 L61.8311 -17.3962 ZM62.8311 -13.74 L64.4717 -13.74 Q65.5342 -13.74 65.9951 -14.0681 Q66.4561 -14.3962 66.4561 -15.1775 Q66.4561 -15.8962 65.9404 -16.2166 Q65.4248 -16.5369 64.2998 -16.5369 L62.8311 -16.5369 L62.8311 -13.74 ZM62.8311 -12.8962 L62.8311 -9.6775 L64.6279 -9.6775 Q65.6592 -9.6775 66.1826 -10.0837 Q66.7061 -10.49 66.7061 -11.3494 Q66.7061 -12.1462 66.167 -12.5212 Q65.6279 -12.8962 64.5342 -12.8962 L62.8311 -12.8962 ZM72.4033 -15.3806 Q72.8252 -15.3806 73.1689 -15.3025 L73.0283 -14.3962 Q72.6377 -14.49 72.3252 -14.49 Q71.5439 -14.49 70.9893 -13.8572 Q70.4346 -13.2244 70.4346 -12.2869 L70.4346 -8.8337 L69.4658 -8.8337 L69.4658 -15.2556 L70.2627 -15.2556 L70.3877 -14.0681 L70.4346 -14.0681 Q70.7783 -14.6931 71.2861 -15.0369 Q71.7939 -15.3806 72.4033 -15.3806 Z"/><path style="fill:none; stroke:black;" d="M-22.25 -12.557 L-22.5 -12.99 L-23 -12.99"/><path style="fill:none; stroke:black;" d="M-7.75 12.557 L-7.5 12.99 L-7.75 13.423"/><path style="fill:none; stroke:black;" d="M-7.75 -38.537 L-7.5 -38.97 L-7 -38.97"/><path style="fill:none; stroke:black;" d="M22 12.99 L22.5 12.99 L22.75 12.557"/><path style="fill:none; stroke:black;" d="M22 -38.97 L22.5 -38.97 L22.75 -38.537"/><path style="fill:none; stroke:black;" d="M37.25 -12.557 L37.5 -12.99 L38 -12.99"/></g></g></svg></svg></svg></svg>