<svg width="100" viewBox="0 0 100 78" style="fill-opacity:1; color-rendering:auto; color-interpolation:auto; text-rendering:auto; stroke:black; stroke-linecap:square; stroke-miterlimit:10; shape-rendering:auto; stroke-opacity:1; fill:black; stroke-dasharray:none; font-weight:normal; stroke-width:1; font-family:'Open Sans'; font-style:normal; stroke-linejoin:miter; font-size:12; stroke-dashoffset:0; image-rendering:auto;" height="78" class="cas-substance-image" xmlns:xlink="http://www.w3.org/1999/xlink" xmlns="http://www.w3.org/2000/svg"><svg class="cas-substance-single-component"><rect y="0" x="0" width="100" stroke="none" ry="7" rx="7" height="78" fill="white" class="cas-substance-group"/><svg y="0" x="12" width="76" viewBox="0 0 76 63" style="fill:black;" height="63" class="cas-substance-single-component-image"><svg><g><g transform="translate(563,481)" style="text-rendering:geometricPrecision; color-rendering:optimizeQuality; color-interpolation:linearRGB; stroke-linecap:butt; image-rendering:optimizeQuality;"><line y2="-431.3631" y1="-442.8766" x2="-526.7749" x1="-526.7749" style="fill:none;"/><line y2="-466.5262" y1="-454.5501" x2="-526.7749" x1="-526.7749" style="fill:none;"/><line y2="-435.7917" y1="-446.8222" x2="-503.8627" x1="-522.9497" style="fill:none;"/><line y2="-436.0921" y1="-446.0391" x2="-549.1933" x1="-531.9611" style="fill:none;"/><line y2="-462.0728" y1="-455.5398" x2="-504.2108" x1="-515.5154" style="fill:none;"/><line y2="-461.9735" y1="-452.0265" x2="-549.1933" x1="-531.9611" style="fill:none;"/><path style="stroke-linecap:square; stroke:none;" d="M-530.229 -444.8766 L-530.229 -453.4391 L-529.229 -453.4391 L-529.229 -444.8766 L-530.229 -444.8766 ZM-524.0864 -451.4234 Q-523.6646 -451.4234 -523.3208 -451.3453 L-523.4614 -450.4391 Q-523.8521 -450.5328 -524.1646 -450.5328 Q-524.9458 -450.5328 -525.5005 -449.9 Q-526.0552 -449.2672 -526.0552 -448.3297 L-526.0552 -444.8766 L-527.0239 -444.8766 L-527.0239 -451.2984 L-526.2271 -451.2984 L-526.1021 -450.1109 L-526.0552 -450.1109 Q-525.7114 -450.7359 -525.2036 -451.0797 Q-524.6958 -451.4234 -524.0864 -451.4234 Z"/><path style="stroke-linecap:square; stroke:none;" d="M-518.8286 -453.1172 Q-518.8286 -452.5703 -519.1411 -452.2188 Q-519.4536 -451.8672 -520.0161 -451.7578 L-520.0161 -451.7266 Q-519.3286 -451.6328 -518.9927 -451.2812 Q-518.6567 -450.9297 -518.6567 -450.3672 Q-518.6567 -449.5391 -519.2271 -449.1016 Q-519.7974 -448.6641 -520.8286 -448.6641 Q-521.2817 -448.6641 -521.6646 -448.7344 Q-522.0474 -448.8047 -522.3911 -448.9766 L-522.3911 -449.5859 Q-522.0317 -449.4141 -521.6099 -449.3125 Q-521.188 -449.2109 -520.813 -449.2109 Q-519.3286 -449.2109 -519.3286 -450.3828 Q-519.3286 -451.4141 -520.9692 -451.4141 L-521.5317 -451.4141 L-521.5317 -451.9766 L-520.9536 -451.9766 Q-520.2817 -451.9766 -519.8911 -452.2734 Q-519.5005 -452.5703 -519.5005 -453.0859 Q-519.5005 -453.5078 -519.7896 -453.7422 Q-520.0786 -453.9766 -520.5786 -453.9766 Q-520.9536 -453.9766 -521.2817 -453.875 Q-521.6099 -453.7734 -522.0317 -453.5078 L-522.3599 -453.9453 Q-522.0161 -454.2266 -521.5552 -454.3828 Q-521.0942 -454.5391 -520.5942 -454.5391 Q-519.7505 -454.5391 -519.2896 -454.1562 Q-518.8286 -453.7734 -518.8286 -453.1172 Z"/><path style="stroke-linecap:square; stroke:none;" d="M-515.5161 -451.8672 L-513.9067 -451.8672 L-513.9067 -451.3203 L-515.5161 -451.3203 L-515.5161 -449.6641 L-516.0474 -449.6641 L-516.0474 -451.3203 L-517.6567 -451.3203 L-517.6567 -451.8672 L-516.0474 -451.8672 L-516.0474 -453.5391 L-515.5161 -453.5391 L-515.5161 -451.8672 Z"/></g><g transform="translate(563,481)" style="fill:rgb(0,138,0); text-rendering:geometricPrecision; color-rendering:optimizeQuality; image-rendering:optimizeQuality; font-family:'Open Sans'; stroke:rgb(0,138,0); color-interpolation:linearRGB;"><path style="stroke:none;" d="M-527.0835 -428.3363 Q-528.4897 -428.3363 -529.3101 -427.3988 Q-530.1304 -426.4613 -530.1304 -424.8206 Q-530.1304 -423.1488 -529.3413 -422.2269 Q-528.5522 -421.305 -527.0991 -421.305 Q-526.1929 -421.305 -525.0522 -421.6331 L-525.0522 -420.7581 Q-525.9429 -420.4144 -527.2397 -420.4144 Q-529.1304 -420.4144 -530.1616 -421.5706 Q-531.1929 -422.7269 -531.1929 -424.8363 Q-531.1929 -426.1644 -530.7007 -427.1566 Q-530.2085 -428.1488 -529.271 -428.6878 Q-528.3335 -429.2269 -527.0679 -429.2269 Q-525.7241 -429.2269 -524.7085 -428.7425 L-525.1304 -427.8831 Q-526.1147 -428.3363 -527.0835 -428.3363 ZM-522.3569 -420.5394 L-523.3257 -420.5394 L-523.3257 -429.6644 L-522.3569 -429.6644 L-522.3569 -420.5394 Z"/><path style="fill:black; stroke:none;" d="M-521.3569 -427.455 L-521.3569 -428.0488 L-517.9976 -428.0488 L-517.9976 -427.455 L-521.3569 -427.455 Z"/><path style="stroke:none;" d="M-527.0835 -476.4481 Q-528.4897 -476.4481 -529.3101 -475.5106 Q-530.1304 -474.5731 -530.1304 -472.9325 Q-530.1304 -471.2606 -529.3413 -470.3387 Q-528.5522 -469.4168 -527.0991 -469.4168 Q-526.1929 -469.4168 -525.0522 -469.745 L-525.0522 -468.87 Q-525.9429 -468.5262 -527.2397 -468.5262 Q-529.1304 -468.5262 -530.1616 -469.6825 Q-531.1929 -470.8387 -531.1929 -472.9481 Q-531.1929 -474.2762 -530.7007 -475.2684 Q-530.2085 -476.2606 -529.271 -476.7997 Q-528.3335 -477.3387 -527.0679 -477.3387 Q-525.7241 -477.3387 -524.7085 -476.8543 L-525.1304 -475.995 Q-526.1147 -476.4481 -527.0835 -476.4481 ZM-522.3569 -468.6512 L-523.3257 -468.6512 L-523.3257 -477.7762 L-522.3569 -477.7762 L-522.3569 -468.6512 Z"/><path style="fill:black; stroke:none;" d="M-521.3569 -475.5668 L-521.3569 -476.1606 L-517.9976 -476.1606 L-517.9976 -475.5668 L-521.3569 -475.5668 Z"/><path style="stroke:none;" d="M-498.5482 -435.9014 Q-499.9545 -435.9014 -500.7748 -434.9639 Q-501.5951 -434.0264 -501.5951 -432.3858 Q-501.5951 -430.7139 -500.806 -429.7921 Q-500.017 -428.8702 -498.5638 -428.8702 Q-497.6576 -428.8702 -496.517 -429.1983 L-496.517 -428.3233 Q-497.4076 -427.9796 -498.7045 -427.9796 Q-500.5951 -427.9796 -501.6263 -429.1358 Q-502.6576 -430.2921 -502.6576 -432.4014 Q-502.6576 -433.7296 -502.1654 -434.7217 Q-501.6732 -435.7139 -500.7357 -436.253 Q-499.7982 -436.7921 -498.5326 -436.7921 Q-497.1888 -436.7921 -496.1732 -436.3077 L-496.5951 -435.4483 Q-497.5795 -435.9014 -498.5482 -435.9014 ZM-493.8217 -428.1046 L-494.7904 -428.1046 L-494.7904 -437.2296 L-493.8217 -437.2296 L-493.8217 -428.1046 Z"/><path style="fill:black; stroke:none;" d="M-492.8217 -435.0202 L-492.8217 -435.6139 L-489.4623 -435.6139 L-489.4623 -435.0202 L-492.8217 -435.0202 Z"/><path style="stroke:none;" d="M-555.652 -435.9014 Q-557.0582 -435.9014 -557.8785 -434.9639 Q-558.6989 -434.0264 -558.6989 -432.3858 Q-558.6989 -430.7139 -557.9098 -429.7921 Q-557.1207 -428.8702 -555.6676 -428.8702 Q-554.7614 -428.8702 -553.6207 -429.1983 L-553.6207 -428.3233 Q-554.5114 -427.9796 -555.8082 -427.9796 Q-557.6989 -427.9796 -558.7301 -429.1358 Q-559.7614 -430.2921 -559.7614 -432.4014 Q-559.7614 -433.7296 -559.2692 -434.7217 Q-558.777 -435.7139 -557.8395 -436.253 Q-556.902 -436.7921 -555.6364 -436.7921 Q-554.2926 -436.7921 -553.277 -436.3077 L-553.6989 -435.4483 Q-554.6832 -435.9014 -555.652 -435.9014 ZM-550.9254 -428.1046 L-551.8942 -428.1046 L-551.8942 -437.2296 L-550.9254 -437.2296 L-550.9254 -428.1046 Z"/><path style="fill:black; stroke:none;" d="M-549.9254 -435.0202 L-549.9254 -435.6139 L-546.566 -435.6139 L-546.566 -435.0202 L-549.9254 -435.0202 Z"/><path style="stroke:none;" d="M-498.5482 -468.8829 Q-499.9545 -468.8829 -500.7748 -467.9454 Q-501.5951 -467.0079 -501.5951 -465.3673 Q-501.5951 -463.6954 -500.806 -462.7736 Q-500.017 -461.8517 -498.5638 -461.8517 Q-497.6576 -461.8517 -496.517 -462.1798 L-496.517 -461.3048 Q-497.4076 -460.9611 -498.7045 -460.9611 Q-500.5951 -460.9611 -501.6263 -462.1173 Q-502.6576 -463.2736 -502.6576 -465.3829 Q-502.6576 -466.7111 -502.1654 -467.7032 Q-501.6732 -468.6954 -500.7357 -469.2345 Q-499.7982 -469.7736 -498.5326 -469.7736 Q-497.1888 -469.7736 -496.1732 -469.2892 L-496.5951 -468.4298 Q-497.5795 -468.8829 -498.5482 -468.8829 ZM-493.8217 -461.0861 L-494.7904 -461.0861 L-494.7904 -470.2111 L-493.8217 -470.2111 L-493.8217 -461.0861 Z"/><path style="fill:black; stroke:none;" d="M-492.8217 -468.0017 L-492.8217 -468.5954 L-489.4623 -468.5954 L-489.4623 -468.0017 L-492.8217 -468.0017 Z"/><path style="stroke:none;" d="M-555.652 -468.8829 Q-557.0582 -468.8829 -557.8785 -467.9454 Q-558.6989 -467.0079 -558.6989 -465.3673 Q-558.6989 -463.6954 -557.9098 -462.7736 Q-557.1207 -461.8517 -555.6676 -461.8517 Q-554.7614 -461.8517 -553.6207 -462.1798 L-553.6207 -461.3048 Q-554.5114 -460.9611 -555.8082 -460.9611 Q-557.6989 -460.9611 -558.7301 -462.1173 Q-559.7614 -463.2736 -559.7614 -465.3829 Q-559.7614 -466.7111 -559.2692 -467.7032 Q-558.777 -468.6954 -557.8395 -469.2345 Q-556.902 -469.7736 -555.6364 -469.7736 Q-554.2926 -469.7736 -553.277 -469.2892 L-553.6989 -468.4298 Q-554.6832 -468.8829 -555.652 -468.8829 ZM-550.9254 -461.0861 L-551.8942 -461.0861 L-551.8942 -470.2111 L-550.9254 -470.2111 L-550.9254 -461.0861 Z"/><path style="fill:black; stroke:none;" d="M-549.9254 -468.0017 L-549.9254 -468.5954 L-546.566 -468.5954 L-546.566 -468.0017 L-549.9254 -468.0017 Z"/></g></g></svg></svg><svg y="63" x="27" class="cas-substance-saf"><svg y="5" x="0" width="4" style="fill:black;" height="4" class="cas-substance-saf-dot"><circle stroke="none" r="2" fill="black" cy="2" cx="2"/></svg><svg y="0" x="7" width="12" style="fill:black;" height="15" class="cas-substance-saf-coefficient"><svg><g><g transform="translate(6,7)" style="text-rendering:geometricPrecision; font-family:'Open Sans'; color-interpolation:linearRGB; color-rendering:optimizeQuality; image-rendering:optimizeQuality;"><path style="stroke:none;" d="M2.5391 -2.3281 Q2.5391 -1.5156 2.0781 -0.9922 Q1.6172 -0.4688 0.7734 -0.2969 L0.7734 -0.25 Q1.8047 -0.125 2.3047 0.4062 Q2.8047 0.9375 2.8047 1.7969 Q2.8047 3.0156 1.9531 3.6797 Q1.1016 4.3438 -0.4609 4.3438 Q-1.1328 4.3438 -1.7031 4.2344 Q-2.2734 4.125 -2.8047 3.875 L-2.8047 2.9531 Q-2.2422 3.2188 -1.6094 3.3672 Q-0.9766 3.5156 -0.4141 3.5156 Q1.8047 3.5156 1.8047 1.7656 Q1.8047 0.2031 -0.6484 0.2031 L-1.4922 0.2031 L-1.4922 -0.625 L-0.6328 -0.625 Q0.3672 -0.625 0.9531 -1.0703 Q1.5391 -1.5156 1.5391 -2.2969 Q1.5391 -2.9219 1.1094 -3.2812 Q0.6797 -3.6406 -0.0703 -3.6406 Q-0.6328 -3.6406 -1.125 -3.4844 Q-1.6172 -3.3281 -2.2578 -2.9219 L-2.7578 -3.5781 Q-2.2266 -4 -1.5391 -4.2344 Q-0.8516 -4.4688 -0.0859 -4.4688 Q1.1641 -4.4688 1.8516 -3.8984 Q2.5391 -3.3281 2.5391 -2.3281 Z"/></g></g></svg></svg><svg y="0" x="23" width="17" style="fill:black;" height="15" class="cas-substance-saf-image"><svg><g><g transform="translate(6,8)" style="text-rendering:geometricPrecision; font-family:'Open Sans'; color-interpolation:linearRGB; color-rendering:optimizeQuality; image-rendering:optimizeQuality;"><path style="stroke:none;" d="M3.0938 4.1562 L1.9219 4.1562 L-1.1875 0 L-2.0938 0.7969 L-2.0938 4.1562 L-3.0938 4.1562 L-3.0938 -4.4062 L-2.0938 -4.4062 L-2.0938 -0.1562 L1.7969 -4.4062 L2.9688 -4.4062 L-0.4688 -0.6875 L3.0938 4.1562 Z"/><path style="stroke:none;" d="M6.2344 -2.8344 L7.8438 -2.8344 L7.8438 -2.2875 L6.2344 -2.2875 L6.2344 -0.6313 L5.7031 -0.6313 L5.7031 -2.2875 L4.0938 -2.2875 L4.0938 -2.8344 L5.7031 -2.8344 L5.7031 -4.5063 L6.2344 -4.5063 L6.2344 -2.8344 Z"/></g></g></svg></svg></svg></svg></svg>