<svg width="184" viewBox="0 0 184 151" style="fill-opacity:1; color-rendering:auto; color-interpolation:auto; text-rendering:auto; stroke:black; stroke-linecap:square; stroke-miterlimit:10; shape-rendering:auto; stroke-opacity:1; fill:black; stroke-dasharray:none; font-weight:normal; stroke-width:1; font-family:'Open Sans'; font-style:normal; stroke-linejoin:miter; font-size:12; stroke-dashoffset:0; image-rendering:auto;" height="151" class="cas-substance-image" xmlns:xlink="http://www.w3.org/1999/xlink" xmlns="http://www.w3.org/2000/svg"><svg class="cas-substance-single-component"><rect y="0" x="0" width="184" stroke="none" ry="7" rx="7" height="151" fill="white" class="cas-substance-group"/><svg y="0" x="0" width="184" viewBox="0 0 184 151" style="fill:black;" height="151" class="cas-substance-single-component-image"><svg><g><g transform="translate(92,73)" style="text-rendering:geometricPrecision; color-rendering:optimizeQuality; color-interpolation:linearRGB; stroke-linecap:butt; image-rendering:optimizeQuality;"><line y2="-20.046" y1="-7.9811" x2="10.749" x1="-10.1474" style="fill:none;"/><line y2="24.954" y1="1.1102" x2="-15.231" x1="-15.231" style="fill:none;"/><line y2="-20.046" y1="-7.9811" x2="-41.211" x1="-20.3146" style="fill:none;"/><line y2="-5.046" y1="-20.046" x2="36.732" x1="10.749" style="fill:none;"/><path style="stroke:none;" d="M11.249 -20.046 L10.249 -20.046 L7.749 -50.046 L13.749 -50.046 Z"/><line y2="39.954" y1="24.954" x2="10.749" x1="-15.231" style="fill:none;"/><line y2="35.2124" y1="22.9333" x2="-36.4985" x1="-15.231" style="fill:none;"/><line y2="38.2435" y1="25.9644" x2="-34.7485" x1="-13.481" style="fill:none;"/><line y2="-16.8572" y1="-5.046" x2="57.189" x1="36.732" style="fill:none;"/><line y2="63.5678" y1="39.954" x2="10.749" x1="10.749" style="fill:none;"/><line y2="-5.046" y1="-16.8674" x2="88.692" x1="68.2174" style="fill:none;"/><line y2="-7.842" y1="21.501" x2="-68.619" x1="-74.856" style="fill:none;"/><line y2="-49.881" y1="-69.954" x2="-44.349" x1="-22.053" style="fill:none;"/><line y2="-7.842" y1="-20.046" x2="-68.619" x1="-41.211" style="fill:none;"/><line y2="-49.881" y1="-20.046" x2="-44.349" x1="-41.211" style="fill:none;"/><line y2="-47.5053" y1="-21.6895" x2="-47.6184" x1="-44.9032" style="fill:none;"/><line y2="-30.138" y1="-7.842" x2="-88.692" x1="-68.619" style="fill:none;"/><line y2="-30.978" y1="-11.6856" x2="-84.7388" x1="-67.3699" style="fill:none;"/><line y2="-55.1428" y1="-49.881" x2="-69.104" x1="-44.349" style="fill:none;"/><line y2="-50.5742" y1="-30.138" x2="-76.8928" x1="-88.692" style="fill:none;"/></g><g transform="translate(92,73)" style="fill:rgb(0,5,255); text-rendering:geometricPrecision; color-rendering:optimizeQuality; image-rendering:optimizeQuality; font-family:'Open Sans'; stroke:rgb(0,5,255); color-interpolation:linearRGB;"><path style="stroke:none;" d="M-11.8794 -0.8898 L-13.0201 -0.8898 L-17.7076 -8.0772 L-17.7544 -8.0772 Q-17.6607 -6.8116 -17.6607 -5.7648 L-17.6607 -0.8898 L-18.5826 -0.8898 L-18.5826 -9.4522 L-17.4576 -9.4522 L-12.7857 -2.296 L-12.7388 -2.296 Q-12.7388 -2.4523 -12.7857 -3.3116 Q-12.8326 -4.171 -12.8169 -4.546 L-12.8169 -9.4522 L-11.8794 -9.4522 L-11.8794 -0.8898 Z"/></g><g transform="translate(92,73)" style="font-size:8.4px; fill:gray; text-rendering:geometricPrecision; image-rendering:optimizeQuality; color-rendering:optimizeQuality; font-family:'Open Sans'; font-style:italic; stroke:gray; color-interpolation:linearRGB;"><path style="stroke:none;" d="M-2.0198 -23.8428 Q-2.0198 -25.1709 -1.5511 -26.2959 Q-1.0823 -27.4209 -0.0511 -28.499 L0.5583 -28.499 Q-0.4105 -27.4365 -0.8948 -26.2646 Q-1.3792 -25.0928 -1.3792 -23.8584 Q-1.3792 -22.5303 -0.9417 -21.5146 L-1.4573 -21.5146 Q-2.0198 -22.5459 -2.0198 -23.8428 ZM3.6027 -24.4365 Q3.6027 -23.6084 3.0558 -23.1553 Q2.509 -22.7021 1.509 -22.7021 Q1.1027 -22.7021 0.7902 -22.7568 Q0.4777 -22.8115 0.1965 -22.9521 L0.1965 -23.6084 Q0.8215 -23.2803 1.5246 -23.2803 Q2.1496 -23.2803 2.5246 -23.5771 Q2.8996 -23.874 2.8996 -24.3896 Q2.8996 -24.7021 2.6965 -24.9287 Q2.4933 -25.1553 1.9308 -25.4834 Q1.3371 -25.8115 1.1105 -26.1396 Q0.884 -26.4678 0.884 -26.9209 Q0.884 -27.6553 1.3996 -28.1162 Q1.9152 -28.5771 2.759 -28.5771 Q3.134 -28.5771 3.4699 -28.499 Q3.8058 -28.4209 4.1808 -28.249 L3.9152 -27.6553 Q3.6652 -27.8115 3.3449 -27.8975 Q3.0246 -27.9834 2.759 -27.9834 Q2.2277 -27.9834 1.9074 -27.71 Q1.5871 -27.4365 1.5871 -26.9678 Q1.5871 -26.7646 1.6574 -26.6162 Q1.7277 -26.4678 1.8683 -26.335 Q2.009 -26.2021 2.4308 -25.9521 Q2.9933 -25.6084 3.1965 -25.4131 Q3.3996 -25.2178 3.5012 -24.9834 Q3.6027 -24.749 3.6027 -24.4365 ZM6.1972 -26.1553 Q6.1972 -24.8271 5.7206 -23.6943 Q5.2441 -22.5615 4.2285 -21.5146 L3.6191 -21.5146 Q5.5566 -23.6709 5.5566 -26.1553 Q5.5566 -27.4834 5.1191 -28.499 L5.6347 -28.499 Q6.1972 -27.4365 6.1972 -26.1553 Z"/></g><g transform="translate(92,73)" style="stroke-linecap:butt; font-size:8.4px; text-rendering:geometricPrecision; image-rendering:optimizeQuality; color-rendering:optimizeQuality; font-family:'Open Sans'; font-style:italic; color-interpolation:linearRGB; stroke-miterlimit:5;"><path style="fill:none;" d="M-15.231 24.454 L-15.231 24.954 L-14.798 25.204"/><path style="fill:none;" d="M36.299 -5.296 L36.732 -5.046 L37.165 -5.296"/><path style="fill:none;" d="M10.316 39.704 L10.749 39.954 L10.749 40.454"/></g><g transform="translate(92,73)" style="stroke-linecap:butt; fill:rgb(230,0,0); text-rendering:geometricPrecision; color-rendering:optimizeQuality; image-rendering:optimizeQuality; font-family:'Open Sans'; stroke:rgb(230,0,0); color-interpolation:linearRGB; stroke-miterlimit:5;"><path style="stroke:none;" d="M-37.2735 39.8837 Q-37.2735 41.9462 -38.3126 43.1259 Q-39.3516 44.3056 -41.1954 44.3056 Q-43.086 44.3056 -44.1173 43.1415 Q-45.1485 41.9774 -45.1485 39.8681 Q-45.1485 37.7743 -44.1173 36.6259 Q-43.086 35.4774 -41.1954 35.4774 Q-39.336 35.4774 -38.3048 36.6493 Q-37.2735 37.8212 -37.2735 39.8837 ZM-44.1016 39.8837 Q-44.1016 41.6181 -43.3594 42.5243 Q-42.6173 43.4306 -41.1954 43.4306 Q-39.7735 43.4306 -39.0469 42.5321 Q-38.3204 41.6337 -38.3204 39.8837 Q-38.3204 38.1493 -39.0469 37.2587 Q-39.7735 36.3681 -41.1954 36.3681 Q-42.6173 36.3681 -43.3594 37.2665 Q-44.1016 38.1649 -44.1016 39.8837 Z"/><path style="stroke:none;" d="M66.6495 -20.1163 Q66.6495 -18.0538 65.6104 -16.8741 Q64.5714 -15.6944 62.7276 -15.6944 Q60.837 -15.6944 59.8057 -16.8585 Q58.7745 -18.0226 58.7745 -20.1319 Q58.7745 -22.2257 59.8057 -23.3741 Q60.837 -24.5226 62.7276 -24.5226 Q64.587 -24.5226 65.6182 -23.3507 Q66.6495 -22.1788 66.6495 -20.1163 ZM59.8214 -20.1163 Q59.8214 -18.3819 60.5636 -17.4757 Q61.3057 -16.5694 62.7276 -16.5694 Q64.1495 -16.5694 64.8761 -17.4679 Q65.6026 -18.3663 65.6026 -20.1163 Q65.6026 -21.8507 64.8761 -22.7413 Q64.1495 -23.6319 62.7276 -23.6319 Q61.3057 -23.6319 60.5636 -22.7335 Q59.8214 -21.8351 59.8214 -20.1163 Z"/><path style="fill:rgb(0,138,0); stroke:none;" d="M10.4404 66.5946 Q9.0342 66.5946 8.2138 67.5321 Q7.3935 68.4696 7.3935 70.1103 Q7.3935 71.7821 8.1826 72.704 Q8.9717 73.6259 10.4248 73.6259 Q11.331 73.6259 12.4717 73.2978 L12.4717 74.1728 Q11.581 74.5165 10.2842 74.5165 Q8.3935 74.5165 7.3623 73.3603 Q6.331 72.204 6.331 70.0946 Q6.331 68.7665 6.8232 67.7743 Q7.3154 66.7821 8.2529 66.2431 Q9.1904 65.704 10.456 65.704 Q11.7998 65.704 12.8154 66.1884 L12.3935 67.0478 Q11.4092 66.5946 10.4404 66.5946 ZM15.167 74.3915 L14.1982 74.3915 L14.1982 65.2665 L15.167 65.2665 L15.167 74.3915 Z"/><path style="fill:none; stroke:black;" d="M-41.2633 -20.5433 L-41.211 -20.046 L-40.778 -19.796"/><path style="fill:none; stroke:black;" d="M-68.9535 -8.2136 L-68.619 -7.842 L-68.1622 -8.0454"/><path style="fill:none; stroke:black;" d="M-44.2967 -49.3837 L-44.349 -49.881 L-43.9774 -50.2155"/><path style="fill:none; stroke:black;" d="M-88.3575 -29.7664 L-88.692 -30.138 L-88.442 -30.571"/><path style="fill:rgb(148,108,0); stroke:none;" d="M-70.9967 -54.1805 Q-70.9967 -53.0555 -71.817 -52.4149 Q-72.6373 -51.7743 -74.0436 -51.7743 Q-75.5748 -51.7743 -76.3873 -52.1805 L-76.3873 -53.1336 Q-75.8561 -52.9149 -75.2389 -52.7821 Q-74.6217 -52.6493 -74.0123 -52.6493 Q-73.0123 -52.6493 -72.5123 -53.0321 Q-72.0123 -53.4149 -72.0123 -54.0868 Q-72.0123 -54.5243 -72.192 -54.8133 Q-72.3717 -55.1024 -72.7858 -55.3446 Q-73.1998 -55.5868 -74.0592 -55.8836 Q-75.2467 -56.3055 -75.7623 -56.8914 Q-76.2779 -57.4774 -76.2779 -58.4305 Q-76.2779 -59.4149 -75.5358 -60.0008 Q-74.7936 -60.5868 -73.5592 -60.5868 Q-72.2936 -60.5868 -71.2154 -60.118 L-71.5279 -59.2586 Q-72.5904 -59.6961 -73.5904 -59.6961 Q-74.3873 -59.6961 -74.8326 -59.3602 Q-75.2779 -59.0243 -75.2779 -58.4149 Q-75.2779 -57.9774 -75.1139 -57.6883 Q-74.9498 -57.3993 -74.5592 -57.1649 Q-74.1686 -56.9305 -73.3561 -56.6336 Q-72.0123 -56.1649 -71.5045 -55.6102 Q-70.9967 -55.0555 -70.9967 -54.1805 Z"/></g></g></svg></svg></svg></svg>