<svg width="217" viewBox="0 0 217 136" style="fill-opacity:1; color-rendering:auto; color-interpolation:auto; text-rendering:auto; stroke:black; stroke-linecap:square; stroke-miterlimit:10; shape-rendering:auto; stroke-opacity:1; fill:black; stroke-dasharray:none; font-weight:normal; stroke-width:1; font-family:'Open Sans'; font-style:normal; stroke-linejoin:miter; font-size:12; stroke-dashoffset:0; image-rendering:auto;" height="136" class="cas-substance-image" xmlns:xlink="http://www.w3.org/1999/xlink" xmlns="http://www.w3.org/2000/svg"><svg class="cas-substance-single-component"><rect y="0" x="0" width="217" stroke="none" ry="7" rx="7" height="136" fill="white" class="cas-substance-group"/><svg y="0" x="0" width="217" viewBox="0 0 217 136" style="fill:black;" height="136" class="cas-substance-single-component-image"><svg><g><g transform="translate(106,66)" style="text-rendering:geometricPrecision; color-rendering:optimizeQuality; color-interpolation:linearRGB; stroke-linecap:butt; image-rendering:optimizeQuality;"><line y2="-36.732" y1="-10.749" x2="-17.01" x1="-32.01" style="fill:none;"/><line y2="-10.749" y1="-10.749" x2="-62.01" x1="-32.01" style="fill:none;"/><path style="stroke:none;" d="M-30.4137 -9.4112 L-31.6499 -8.6984 L-31.6499 -8.6984 L-31.2442 -7.7776 L-29.819 -8.5995 L-29.819 -8.5995 L-30.4137 -9.4112 ZM-28.6296 -6.976 L-30.433 -5.936 L-30.0274 -5.0152 L-30.0274 -5.0152 L-28.0349 -6.1642 L-28.6296 -6.976 ZM-26.8454 -4.5407 L-29.2162 -3.1736 L-28.8106 -2.2528 L-28.8106 -2.2528 L-26.2507 -3.729 L-26.2507 -3.729 L-26.8454 -4.5407 ZM-25.0612 -2.1055 L-27.9993 -0.4112 L-27.9993 -0.4112 L-27.5937 0.5096 L-24.4665 -1.2937 L-24.4665 -1.2937 L-25.0612 -2.1055 ZM-23.2771 0.3298 L-26.7825 2.3512 L-26.7825 2.3512 L-26.3769 3.272 L-26.3769 3.272 L-22.6824 1.1415 L-23.2771 0.3298 ZM-21.4929 2.765 L-25.5656 5.1136 L-25.5656 5.1136 L-25.16 6.0344 L-25.16 6.0344 L-20.8982 3.5768 L-21.4929 2.765 ZM-19.7088 5.2003 L-24.3488 7.8761 L-23.9432 8.7969 L-19.114 6.012 L-19.114 6.012 L-19.7088 5.2003 Z"/><line y2="-36.732" y1="-36.732" x2="12.99" x1="-17.01" style="fill:none;"/><line y2="-36.732" y1="-10.749" x2="-77.01" x1="-62.01" style="fill:none;"/><path style="stroke:none;" d="M-62.443 -10.999 L-61.577 -10.499 L-71.1084 11.0094 L-76.3045 8.0093 Z"/><line y2="-21.732" y1="-36.732" x2="-102.99" x1="-77.01" style="fill:none;"/><line y2="-62.712" y1="-36.732" x2="-92.01" x1="-77.01" style="fill:none;"/><line y2="-51.732" y1="-36.732" x2="-51.03" x1="-77.01" style="fill:none;"/><line y2="-36.732" y1="-36.732" x2="72.99" x1="96.572" style="fill:none;"/><line y2="42.636" y1="21.2144" x2="-29.211" x1="-19.6739" style="fill:none;"/><line y2="17.8048" y1="15.7922" x2="7.4844" x1="-11.6694" style="fill:none;"/><line y2="58.3554" y1="42.636" x2="-11.7557" x1="-29.211" style="fill:none;"/><line y2="55.7545" y1="41.3874" x2="-9.4136" x1="-25.3673" style="fill:none;"/><line y2="47.712" y1="24.4786" x2="19.062" x1="14.1241" style="fill:none;"/><line y2="46.463" y1="25.2062" x2="15.2184" x1="10.7006" style="fill:none;"/><line y2="47.712" y1="59.7769" x2="19.062" x1="-1.8344" style="fill:none;"/><line y2="-10.749" y1="-36.732" x2="27.99" x1="12.99" style="fill:none;"/><line y2="-14.2489" y1="-36.7318" x2="30.0109" x1="17.0315" style="fill:none;"/><line y2="-62.712" y1="-36.732" x2="27.99" x1="12.99" style="fill:none;"/><line y2="-10.749" y1="-10.749" x2="57.99" x1="27.99" style="fill:none;"/><line y2="-62.712" y1="-62.712" x2="57.99" x1="27.99" style="fill:none;"/><line y2="-59.212" y1="-59.212" x2="55.9693" x1="30.0107" style="fill:none;"/><line y2="-36.732" y1="-10.749" x2="72.99" x1="57.99" style="fill:none;"/><line y2="-36.7319" y1="-14.2489" x2="68.9486" x1="55.9691" style="fill:none;"/><line y2="-36.732" y1="-62.712" x2="72.99" x1="57.99" style="fill:none;"/><path style="fill:none; stroke-miterlimit:5;" d="M-31.76 -11.182 L-32.01 -10.749 L-32.51 -10.749"/></g><g transform="translate(106,66)" style="stroke-linecap:butt; font-size:8.4px; fill:gray; text-rendering:geometricPrecision; image-rendering:optimizeQuality; color-rendering:optimizeQuality; font-family:'Open Sans'; font-style:italic; stroke:gray; color-interpolation:linearRGB; stroke-miterlimit:5;"><path style="stroke:none;" d="M-41.1189 -18.2059 Q-41.1189 -19.534 -40.6502 -20.659 Q-40.1814 -21.784 -39.1502 -22.8621 L-38.5408 -22.8621 Q-39.5096 -21.7996 -39.9939 -20.6278 Q-40.4783 -19.4559 -40.4783 -18.2215 Q-40.4783 -16.8934 -40.0408 -15.8778 L-40.5564 -15.8778 Q-41.1189 -16.909 -41.1189 -18.2059 ZM-35.4964 -18.7996 Q-35.4964 -17.9715 -36.0433 -17.5184 Q-36.5901 -17.0653 -37.5901 -17.0653 Q-37.9964 -17.0653 -38.3089 -17.1199 Q-38.6214 -17.1746 -38.9026 -17.3153 L-38.9026 -17.9715 Q-38.2776 -17.6434 -37.5745 -17.6434 Q-36.9495 -17.6434 -36.5745 -17.9403 Q-36.1995 -18.2371 -36.1995 -18.7528 Q-36.1995 -19.0653 -36.4026 -19.2918 Q-36.6058 -19.5184 -37.1683 -19.8465 Q-37.762 -20.1746 -37.9886 -20.5028 Q-38.2151 -20.8309 -38.2151 -21.284 Q-38.2151 -22.0184 -37.6995 -22.4793 Q-37.1839 -22.9403 -36.3401 -22.9403 Q-35.9651 -22.9403 -35.6292 -22.8621 Q-35.2933 -22.784 -34.9183 -22.6121 L-35.1839 -22.0184 Q-35.4339 -22.1746 -35.7542 -22.2606 Q-36.0745 -22.3465 -36.3401 -22.3465 Q-36.8714 -22.3465 -37.1917 -22.0731 Q-37.512 -21.7996 -37.512 -21.3309 Q-37.512 -21.1278 -37.4417 -20.9793 Q-37.3714 -20.8309 -37.2308 -20.6981 Q-37.0901 -20.5653 -36.6683 -20.3153 Q-36.1058 -19.9715 -35.9026 -19.7762 Q-35.6995 -19.5809 -35.598 -19.3465 Q-35.4964 -19.1121 -35.4964 -18.7996 ZM-32.9019 -20.5184 Q-32.9019 -19.1903 -33.3785 -18.0574 Q-33.855 -16.9246 -34.8707 -15.8778 L-35.48 -15.8778 Q-33.5425 -18.034 -33.5425 -20.5184 Q-33.5425 -21.8465 -33.98 -22.8621 L-33.4644 -22.8621 Q-32.9019 -21.7996 -32.9019 -20.5184 Z"/><path style="fill:none; stroke:black;" d="M-17.26 -36.299 L-17.01 -36.732 L-16.51 -36.732"/><path style="stroke:none;" d="M-61.1186 -18.2062 Q-61.1186 -19.5343 -60.6499 -20.6593 Q-60.1811 -21.7843 -59.1499 -22.8624 L-58.5405 -22.8624 Q-59.5093 -21.7999 -59.9936 -20.6281 Q-60.478 -19.4562 -60.478 -18.2218 Q-60.478 -16.8937 -60.0405 -15.8781 L-60.5561 -15.8781 Q-61.1186 -16.9093 -61.1186 -18.2062 ZM-55.4961 -18.7999 Q-55.4961 -17.9718 -56.0429 -17.5187 Q-56.5898 -17.0656 -57.5898 -17.0656 Q-57.9961 -17.0656 -58.3086 -17.1203 Q-58.6211 -17.1749 -58.9023 -17.3156 L-58.9023 -17.9718 Q-58.2773 -17.6437 -57.5742 -17.6437 Q-56.9492 -17.6437 -56.5742 -17.9406 Q-56.1992 -18.2374 -56.1992 -18.7531 Q-56.1992 -19.0656 -56.4023 -19.2921 Q-56.6054 -19.5187 -57.1679 -19.8468 Q-57.7617 -20.1749 -57.9883 -20.5031 Q-58.2148 -20.8312 -58.2148 -21.2843 Q-58.2148 -22.0187 -57.6992 -22.4796 Q-57.1836 -22.9406 -56.3398 -22.9406 Q-55.9648 -22.9406 -55.6289 -22.8624 Q-55.2929 -22.7843 -54.9179 -22.6124 L-55.1836 -22.0187 Q-55.4336 -22.1749 -55.7539 -22.2609 Q-56.0742 -22.3468 -56.3398 -22.3468 Q-56.8711 -22.3468 -57.1914 -22.0734 Q-57.5117 -21.7999 -57.5117 -21.3312 Q-57.5117 -21.1281 -57.4414 -20.9796 Q-57.3711 -20.8312 -57.2304 -20.6984 Q-57.0898 -20.5656 -56.6679 -20.3156 Q-56.1054 -19.9718 -55.9023 -19.7765 Q-55.6992 -19.5812 -55.5976 -19.3468 Q-55.4961 -19.1124 -55.4961 -18.7999 ZM-52.9016 -20.5187 Q-52.9016 -19.1906 -53.3781 -18.0578 Q-53.8547 -16.9249 -54.8703 -15.8781 L-55.4797 -15.8781 Q-53.5422 -18.0343 -53.5422 -20.5187 Q-53.5422 -21.8468 -53.9797 -22.8624 L-53.4641 -22.8624 Q-52.9016 -21.7999 -52.9016 -20.5187 Z"/></g><g transform="translate(106,66)" style="stroke-linecap:butt; fill:rgb(230,0,0); text-rendering:geometricPrecision; color-rendering:optimizeQuality; image-rendering:optimizeQuality; font-family:'Open Sans'; stroke:rgb(230,0,0); color-interpolation:linearRGB; stroke-miterlimit:5;"><path style="stroke:none;" d="M-73.0725 15.1607 Q-73.0725 17.2232 -74.1116 18.4029 Q-75.1506 19.5826 -76.9944 19.5826 Q-78.885 19.5826 -79.9162 18.4185 Q-80.9475 17.2544 -80.9475 15.1451 Q-80.9475 13.0513 -79.9162 11.9029 Q-78.885 10.7544 -76.9944 10.7544 Q-75.135 10.7544 -74.1037 11.9263 Q-73.0725 13.0982 -73.0725 15.1607 ZM-79.9006 15.1607 Q-79.9006 16.8951 -79.1584 17.8013 Q-78.4162 18.7076 -76.9944 18.7076 Q-75.5725 18.7076 -74.8459 17.8091 Q-74.1194 16.9107 -74.1194 15.1607 Q-74.1194 13.4263 -74.8459 12.5357 Q-75.5725 11.6451 -76.9944 11.6451 Q-78.4162 11.6451 -79.1584 12.5435 Q-79.9006 13.4419 -79.9006 15.1607 Z"/><path style="stroke:none;" d="M-81.9475 19.4576 L-82.9475 19.4576 L-82.9475 15.4263 L-87.4631 15.4263 L-87.4631 19.4576 L-88.4631 19.4576 L-88.4631 10.8951 L-87.4631 10.8951 L-87.4631 14.5357 L-82.9475 14.5357 L-82.9475 10.8951 L-81.9475 10.8951 L-81.9475 19.4576 Z"/><path style="fill:rgb(0,138,0); stroke:none;" d="M102.6814 -40.0914 Q101.2752 -40.0914 100.4548 -39.1539 Q99.6345 -38.2164 99.6345 -36.5758 Q99.6345 -34.9039 100.4236 -33.982 Q101.2127 -33.0601 102.6658 -33.0601 Q103.572 -33.0601 104.7127 -33.3883 L104.7127 -32.5133 Q103.822 -32.1695 102.5252 -32.1695 Q100.6345 -32.1695 99.6033 -33.3258 Q98.572 -34.482 98.572 -36.5914 Q98.572 -37.9195 99.0642 -38.9117 Q99.5564 -39.9039 100.4939 -40.4429 Q101.4314 -40.982 102.697 -40.982 Q104.0408 -40.982 105.0564 -40.4976 L104.6345 -39.6383 Q103.6502 -40.0914 102.6814 -40.0914 ZM107.408 -32.2945 L106.4392 -32.2945 L106.4392 -41.4195 L107.408 -41.4195 L107.408 -32.2945 Z"/><path style="fill:rgb(0,5,255); stroke:none;" d="M-13.6584 19.3873 L-14.7991 19.3873 L-19.4866 12.1998 L-19.5334 12.1998 Q-19.4397 13.4654 -19.4397 14.5123 L-19.4397 19.3873 L-20.3616 19.3873 L-20.3616 10.8248 L-19.2366 10.8248 L-14.5647 17.981 L-14.5178 17.981 Q-14.5178 17.8248 -14.5647 16.9654 Q-14.6116 16.106 -14.5959 15.731 L-14.5959 10.8248 L-13.6584 10.8248 L-13.6584 19.3873 Z"/><path style="fill:none; stroke:black;" d="M-29.0076 42.1792 L-29.211 42.636 L-28.8395 42.9706"/><path style="fill:rgb(0,5,255); stroke:none;" d="M16.1766 22.5223 L15.0359 22.5223 L10.3484 15.3348 L10.3016 15.3348 Q10.3953 16.6004 10.3953 17.6473 L10.3953 22.5223 L9.4734 22.5223 L9.4734 13.9598 L10.5984 13.9598 L15.2703 21.116 L15.3172 21.116 Q15.3172 20.9598 15.2703 20.1004 Q15.2234 19.241 15.2391 18.866 L15.2391 13.9598 L16.1766 13.9598 L16.1766 22.5223 Z"/><path style="fill:rgb(0,5,255); stroke:none;" d="M-3.5664 66.8682 L-4.7071 66.8682 L-9.3946 59.6807 L-9.4414 59.6807 Q-9.3477 60.9464 -9.3477 61.9932 L-9.3477 66.8682 L-10.2696 66.8682 L-10.2696 58.3057 L-9.1446 58.3057 L-4.4727 65.462 L-4.4258 65.462 Q-4.4258 65.3057 -4.4727 64.4464 Q-4.5196 63.587 -4.5039 63.212 L-4.5039 58.3057 L-3.5664 58.3057 L-3.5664 66.8682 Z"/><path style="fill:none; stroke:black;" d="M18.9581 47.2229 L19.062 47.712 L18.629 47.962"/><path style="fill:none; stroke:black;" d="M13.24 -36.299 L12.99 -36.732 L12.49 -36.732"/><path style="fill:none; stroke:black;" d="M27.74 -11.182 L27.99 -10.749 L28.49 -10.749"/><path style="fill:none; stroke:black;" d="M27.74 -62.279 L27.99 -62.712 L28.49 -62.712"/><path style="fill:none; stroke:black;" d="M57.49 -10.749 L57.99 -10.749 L58.24 -11.182"/><path style="fill:none; stroke:black;" d="M57.49 -62.712 L57.99 -62.712 L58.24 -62.279"/><path style="fill:none; stroke:black;" d="M72.74 -36.299 L72.99 -36.732 L73.49 -36.732"/></g></g></svg></svg></svg></svg>