<svg width="348" viewBox="0 0 348 161" style="fill-opacity:1; color-rendering:auto; color-interpolation:auto; text-rendering:auto; stroke:black; stroke-linecap:square; stroke-miterlimit:10; shape-rendering:auto; stroke-opacity:1; fill:black; stroke-dasharray:none; font-weight:normal; stroke-width:1; font-family:'Open Sans'; font-style:normal; stroke-linejoin:miter; font-size:12; stroke-dashoffset:0; image-rendering:auto;" height="161" class="cas-substance-image" xmlns:xlink="http://www.w3.org/1999/xlink" xmlns="http://www.w3.org/2000/svg"><svg class="cas-substance-single-component"><rect y="0" x="0" width="348" stroke="none" ry="7" rx="7" height="161" fill="white" class="cas-substance-group"/><svg y="0" x="0" width="348" viewBox="0 0 348 161" style="fill:black;" height="161" class="cas-substance-single-component-image"><svg><g><g transform="translate(176,83)" style="text-rendering:geometricPrecision; color-rendering:optimizeQuality; color-interpolation:linearRGB; stroke-linecap:butt; image-rendering:optimizeQuality;"><line y2="-27.0652" y1="-15" x2="-44.0536" x1="-64.953" style="fill:none;"/><line y2="-30" y1="-15" x2="-90.933" x1="-64.953" style="fill:none;"/><line y2="15" y1="-15" x2="-64.953" x1="-64.953" style="fill:none;"/><line y2="-62.9351" y1="-75" x2="18.0736" x1="38.97" style="fill:none;"/><line y2="-60" y1="-75" x2="64.953" x1="38.97" style="fill:none;"/><line y2="-60" y1="-71.4496" x2="-142.893" x1="-162.726" style="fill:none;"/><line y2="15" y1="-15" x2="142.893" x1="142.893" style="fill:none;"/><line y2="0" y1="-15" x2="168.876" x1="142.893" style="fill:none;"/><line y2="-30" y1="-15" x2="168.876" x1="142.893" style="fill:none;"/><line y2="-30" y1="-15" x2="116.913" x1="142.893" style="fill:none;"/><line y2="-60" y1="-36.4062" x2="-38.97" x1="-38.97" style="fill:none;"/><line y2="-15" y1="-27.0649" x2="-12.99" x1="-33.8864" style="fill:none;"/><line y2="-75" y1="-60" x2="-12.99" x1="-38.97" style="fill:none;"/><line y2="-30" y1="-15" x2="12.99" x1="-12.99" style="fill:none;"/><line y2="-62.9351" y1="-75" x2="7.9064" x1="-12.99" style="fill:none;"/><line y2="-53.8438" y1="-30" x2="12.99" x1="12.99" style="fill:none;"/><line y2="-60" y1="-30" x2="-90.933" x1="-90.933" style="fill:none;"/><line y2="-57.9793" y1="-32.0207" x2="-94.433" x1="-94.433" style="fill:none;"/><line y2="-15" y1="-30" x2="-116.913" x1="-90.933" style="fill:none;"/><line y2="-75" y1="-60" x2="-116.913" x1="-90.933" style="fill:none;"/><line y2="-30" y1="-15" x2="-142.893" x1="-116.913" style="fill:none;"/><line y2="-32.0207" y1="-19.0415" x2="-139.393" x1="-116.9129" style="fill:none;"/><line y2="-60" y1="-75" x2="-142.893" x1="-116.913" style="fill:none;"/><line y2="-57.9793" y1="-70.9585" x2="-139.393" x1="-116.9129" style="fill:none;"/><line y2="-60" y1="-30" x2="-142.893" x1="-142.893" style="fill:none;"/><line y2="30" y1="15" x2="-38.97" x1="-64.953" style="fill:none;"/><line y2="32.0209" y1="19.0415" x2="-42.4699" x1="-64.9529" style="fill:none;"/><line y2="30" y1="15" x2="-90.933" x1="-64.953" style="fill:none;"/><line y2="60" y1="30" x2="-38.97" x1="-38.97" style="fill:none;"/><line y2="60" y1="30" x2="-90.933" x1="-90.933" style="fill:none;"/><line y2="57.9793" y1="32.0207" x2="-87.433" x1="-87.433" style="fill:none;"/><line y2="75" y1="60" x2="-64.953" x1="-38.97" style="fill:none;"/><line y2="70.9585" y1="57.9791" x2="-64.9529" x1="-42.4699" style="fill:none;"/><line y2="75" y1="60" x2="-64.953" x1="-90.933" style="fill:none;"/><line y2="-30" y1="-60" x2="64.953" x1="64.953" style="fill:none;"/><line y2="-32.0207" y1="-57.9793" x2="68.453" x1="68.453" style="fill:none;"/><line y2="-75" y1="-60" x2="90.933" x1="64.953" style="fill:none;"/><line y2="-15" y1="-30" x2="90.933" x1="64.953" style="fill:none;"/><line y2="-60" y1="-75" x2="116.913" x1="90.933" style="fill:none;"/><line y2="-57.9793" y1="-70.9585" x2="113.413" x1="90.9329" style="fill:none;"/><line y2="-30" y1="-15" x2="116.913" x1="90.933" style="fill:none;"/><line y2="-32.0207" y1="-19.0415" x2="113.413" x1="90.9329" style="fill:none;"/><line y2="-30" y1="-60" x2="116.913" x1="116.913" style="fill:none;"/><path style="fill:none; stroke-miterlimit:5;" d="M38.537 -74.75 L38.97 -75 L39.403 -74.75"/></g><g transform="translate(176,83)" style="stroke-linecap:butt; fill:rgb(0,138,0); text-rendering:geometricPrecision; color-rendering:optimizeQuality; image-rendering:optimizeQuality; font-family:'Open Sans'; stroke:rgb(0,138,0); color-interpolation:linearRGB; stroke-miterlimit:5;"><path style="stroke:none;" d="M-169.1846 -78.3594 Q-170.5909 -78.3594 -171.4112 -77.4219 Q-172.2315 -76.4844 -172.2315 -74.8438 Q-172.2315 -73.1719 -171.4424 -72.25 Q-170.6534 -71.3281 -169.2002 -71.3281 Q-168.294 -71.3281 -167.1534 -71.6562 L-167.1534 -70.7812 Q-168.044 -70.4375 -169.3409 -70.4375 Q-171.2315 -70.4375 -172.2627 -71.5938 Q-173.294 -72.75 -173.294 -74.8594 Q-173.294 -76.1875 -172.8018 -77.1797 Q-172.3096 -78.1719 -171.3721 -78.7109 Q-170.4346 -79.25 -169.169 -79.25 Q-167.8252 -79.25 -166.8096 -78.7656 L-167.2315 -77.9062 Q-168.2159 -78.3594 -169.1846 -78.3594 ZM-164.458 -70.5625 L-165.4268 -70.5625 L-165.4268 -79.6875 L-164.458 -79.6875 L-164.458 -70.5625 Z"/><path style="fill:rgb(0,5,255); stroke:none;" d="M-35.6184 -25.8438 L-36.7591 -25.8438 L-41.4466 -33.0312 L-41.4934 -33.0312 Q-41.3997 -31.7656 -41.3997 -30.7188 L-41.3997 -25.8438 L-42.3216 -25.8438 L-42.3216 -34.4062 L-41.1966 -34.4062 L-36.5247 -27.25 L-36.4778 -27.25 Q-36.4778 -27.4062 -36.5247 -28.2656 Q-36.5716 -29.125 -36.5559 -29.5 L-36.5559 -34.4062 L-35.6184 -34.4062 L-35.6184 -25.8438 Z"/><path style="fill:none; stroke:black;" d="M-38.97 -59.5 L-38.97 -60 L-38.537 -60.25"/><path style="fill:none; stroke:black;" d="M-13.423 -15.25 L-12.99 -15 L-12.557 -15.25"/><path style="fill:none; stroke:black;" d="M-13.423 -74.75 L-12.99 -75 L-12.557 -74.75"/><path style="fill:none; stroke:black;" d="M12.557 -29.75 L12.99 -30 L12.99 -30.5"/><path style="fill:rgb(0,5,255); stroke:none;" d="M16.3416 -55.8438 L15.2009 -55.8438 L10.5134 -63.0312 L10.4666 -63.0312 Q10.5603 -61.7656 10.5603 -60.7188 L10.5603 -55.8438 L9.6384 -55.8438 L9.6384 -64.4062 L10.7634 -64.4062 L15.4353 -57.25 L15.4822 -57.25 Q15.4822 -57.4062 15.4353 -58.2656 Q15.3884 -59.125 15.4041 -59.5 L15.4041 -64.4062 L16.3416 -64.4062 L16.3416 -55.8438 Z"/><path style="fill:none; stroke:black;" d="M-90.933 -30.5 L-90.933 -30 L-90.5 -29.75"/><path style="fill:none; stroke:black;" d="M-90.933 -59.5 L-90.933 -60 L-91.366 -60.25"/><path style="fill:none; stroke:black;" d="M-116.48 -15.25 L-116.913 -15 L-117.346 -15.25"/><path style="fill:none; stroke:black;" d="M-116.48 -74.75 L-116.913 -75 L-117.346 -74.75"/><path style="fill:none; stroke:black;" d="M-142.46 -29.75 L-142.893 -30 L-142.893 -30.5"/><path style="fill:none; stroke:black;" d="M-142.46 -60.25 L-142.893 -60 L-142.893 -59.5"/><path style="fill:none; stroke:black;" d="M-64.52 15.25 L-64.953 15 L-65.386 15.25"/><path style="fill:none; stroke:black;" d="M-39.403 29.75 L-38.97 30 L-38.97 30.5"/><path style="fill:none; stroke:black;" d="M-90.5 29.75 L-90.933 30 L-90.933 30.5"/><path style="fill:none; stroke:black;" d="M-38.97 59.5 L-38.97 60 L-39.403 60.25"/><path style="fill:none; stroke:black;" d="M-90.933 59.5 L-90.933 60 L-90.5 60.25"/><path style="fill:none; stroke:black;" d="M-64.52 74.75 L-64.953 75 L-65.386 74.75"/><path style="fill:none; stroke:black;" d="M64.953 -59.5 L64.953 -60 L64.52 -60.25"/><path style="fill:none; stroke:black;" d="M64.953 -30.5 L64.953 -30 L65.386 -29.75"/><path style="fill:none; stroke:black;" d="M90.5 -74.75 L90.933 -75 L91.366 -74.75"/><path style="fill:none; stroke:black;" d="M90.5 -15.25 L90.933 -15 L91.366 -15.25"/><path style="fill:none; stroke:black;" d="M116.48 -60.25 L116.913 -60 L116.913 -59.5"/><path style="fill:none; stroke:black;" d="M116.48 -29.75 L116.913 -30 L116.913 -30.5"/></g></g></svg></svg></svg></svg>