<svg width="160" viewBox="0 0 160 126" style="fill-opacity:1; color-rendering:auto; color-interpolation:auto; text-rendering:auto; stroke:black; stroke-linecap:square; stroke-miterlimit:10; shape-rendering:auto; stroke-opacity:1; fill:black; stroke-dasharray:none; font-weight:normal; stroke-width:1; font-family:'Open Sans'; font-style:normal; stroke-linejoin:miter; font-size:12; stroke-dashoffset:0; image-rendering:auto;" height="126" class="cas-substance-image" xmlns:xlink="http://www.w3.org/1999/xlink" xmlns="http://www.w3.org/2000/svg"><svg class="cas-substance-single-component"><rect y="0" x="0" width="160" stroke="none" ry="7" rx="7" height="126" fill="white" class="cas-substance-group"/><svg y="0" x="0" width="160" viewBox="0 0 160 126" style="fill:black;" height="126" class="cas-substance-single-component-image"><svg><g><g transform="translate(80,63)" style="text-rendering:geometricPrecision; color-rendering:optimizeQuality; color-interpolation:linearRGB; stroke-linecap:butt; image-rendering:optimizeQuality;"><path style="stroke:none;" d="M-23.1236 -37.4874 L-27.2484 -33.3626 L-27.2484 -33.3626 L-26.4824 -32.7144 L-26.4824 -32.7144 L-22.4754 -36.7214 L-22.4754 -36.7214 L-23.1236 -37.4874 ZM-21.1791 -35.1893 L-24.9503 -31.4181 L-24.9503 -31.4181 L-24.1843 -30.7699 L-24.1843 -30.7699 L-20.5309 -34.4233 L-20.5309 -34.4233 L-21.1791 -35.1893 ZM-19.2345 -32.8912 L-22.6522 -29.4735 L-22.6522 -29.4735 L-21.8862 -28.8253 L-21.8862 -28.8253 L-18.5863 -32.1252 L-18.5863 -32.1252 L-19.2345 -32.8912 ZM-17.29 -30.5931 L-20.3541 -27.529 L-20.3541 -27.529 L-19.5881 -26.8808 L-16.6418 -29.8271 L-16.6418 -29.8271 L-17.29 -30.5931 ZM-15.3454 -28.295 L-18.056 -25.5844 L-18.056 -25.5844 L-17.29 -24.9362 L-17.29 -24.9362 L-14.6972 -27.529 L-14.6972 -27.529 L-15.3454 -28.295 ZM-13.4009 -25.9969 L-15.7579 -23.6399 L-15.7579 -23.6399 L-14.9919 -22.9917 L-14.9919 -22.9917 L-12.7527 -25.2309 L-12.7527 -25.2309 L-13.4009 -25.9969 ZM-11.4563 -23.6988 L-13.4598 -21.6953 L-13.4598 -21.6953 L-12.6938 -21.0472 L-12.6938 -21.0472 L-10.8082 -22.9328 L-10.8082 -22.9328 L-11.4563 -23.6988 ZM-9.5118 -21.4007 L-11.1617 -19.7508 L-11.1617 -19.7508 L-10.3957 -19.1026 L-10.3957 -19.1026 L-8.8636 -20.6347 L-8.8636 -20.6347 L-9.5118 -21.4007 ZM-7.5673 -19.1026 L-8.8636 -17.8063 L-8.8636 -17.8063 L-8.0976 -17.1581 L-8.0976 -17.1581 L-6.9191 -18.3366 L-6.9191 -18.3366 L-7.5673 -19.1026 ZM-5.6227 -16.8045 L-6.5655 -15.8617 L-6.5655 -15.8617 L-5.7995 -15.2135 L-5.7995 -15.2135 L-4.9745 -16.0385 L-4.9745 -16.0385 L-5.6227 -16.8045 Z"/><path style="stroke:none;" d="M-31.3447 31.0149 L-31.532 32.0005 L-31.532 32.0005 L-30.206 32.1414 L-30.206 32.1414 L-30.1844 31.1382 L-30.1844 31.1382 L-31.3447 31.0149 ZM-31.9067 33.9717 L-32.094 34.9573 L-32.094 34.9573 L-30.2709 35.151 L-30.2493 34.1478 L-30.2493 34.1478 L-31.9067 33.9717 ZM-32.4686 36.9285 L-32.6559 37.9141 L-32.6559 37.9141 L-30.3357 38.1606 L-30.3357 38.1606 L-30.3141 37.1574 L-30.3141 37.1574 L-32.4686 36.9285 ZM-33.0306 39.8853 L-33.2179 40.8709 L-33.2179 40.8709 L-30.4006 41.1702 L-30.4006 41.1702 L-30.379 40.167 L-30.379 40.167 L-33.0306 39.8853 ZM-33.5925 42.8421 L-33.7799 43.8277 L-33.7799 43.8277 L-30.4655 44.1798 L-30.4655 44.1798 L-30.4438 43.1766 L-30.4438 43.1766 L-33.5925 42.8421 ZM-34.1545 45.7989 L-34.3418 46.7845 L-34.3418 46.7845 L-30.5303 47.1895 L-30.5303 47.1895 L-30.5087 46.1863 L-30.5087 46.1863 L-34.1545 45.7989 ZM-34.7165 48.7557 L-34.9038 49.7413 L-34.9038 49.7413 L-30.5952 50.1991 L-30.5952 50.1991 L-30.5736 49.1959 L-30.5736 49.1959 L-34.7165 48.7557 ZM-35.2785 51.7125 L-35.4658 52.6981 L-35.4658 52.6981 L-30.66 53.2087 L-30.66 53.2087 L-30.6384 52.2055 L-30.6384 52.2055 L-35.2785 51.7125 ZM-35.8404 54.6693 L-36.0277 55.6549 L-36.0277 55.6549 L-30.7249 56.2183 L-30.7249 56.2183 L-30.7033 55.2151 L-30.7033 55.2151 L-35.8404 54.6693 ZM-36.4024 57.6261 L-36.5897 58.6118 L-36.5897 58.6118 L-30.7898 59.2279 L-30.7898 59.2279 L-30.7682 58.2247 L-30.7682 58.2247 L-36.4024 57.6261 Z"/><line y2="-14.919" y1="-20.127" x2="47.283" x1="76.827" style="fill:none;"/><line y2="-14.919" y1="13.272" x2="47.283" x1="57.543" style="fill:none;"/><line y2="0.081" y1="-14.919" x2="-30.66" x1="-4.68" style="fill:none;"/><line y2="0.081" y1="-14.919" x2="21.3" x1="-4.68" style="fill:none;"/><line y2="-44.919" y1="-14.919" x2="-4.68" x1="-4.68" style="fill:none;"/><line y2="30.081" y1="0.081" x2="-30.66" x1="-30.66" style="fill:none;"/><line y2="-9.189" y1="0.081" x2="-59.193" x1="-30.66" style="fill:none;"/><line y2="-14.919" y1="0.081" x2="47.283" x1="21.3" style="fill:none;"/><line y2="30.081" y1="0.081" x2="21.3" x1="21.3" style="fill:none;"/><line y2="-59.919" y1="-44.919" x2="21.3" x1="-4.68" style="fill:none;"/><line y2="45.081" y1="30.081" x2="-4.68" x1="-30.66" style="fill:none;"/><line y2="37.4562" y1="30.081" x2="-53.3534" x1="-30.66" style="fill:none;"/><line y2="15.081" y1="-9.189" x2="-76.827" x1="-59.193" style="fill:none;"/><line y2="-44.919" y1="-14.919" x2="47.283" x1="47.283" style="fill:none;"/><line y2="45.081" y1="30.081" x2="-4.68" x1="21.3" style="fill:none;"/><line y2="-44.919" y1="-59.919" x2="47.283" x1="21.3" style="fill:none;"/><line y2="15.081" y1="34.1071" x2="-76.827" x1="-63.0048" style="fill:none;"/><path style="stroke:none;" d="M-30.2314 -0.1766 L-31.0886 0.3386 L-45.1563 -18.2162 L-40.0136 -21.3068 Z"/><path style="stroke:none;" d="M21.05 0.514 L21.55 -0.352 L43.793 9.6022 L40.7932 14.7985 Z"/></g><g transform="translate(80,63)" style="font-size:8.4px; fill:gray; text-rendering:geometricPrecision; image-rendering:optimizeQuality; color-rendering:optimizeQuality; font-family:'Open Sans'; font-style:italic; stroke:gray; color-interpolation:linearRGB;"><path style="stroke:none;" d="M-8.7885 -3.7159 Q-8.7885 -5.044 -8.3198 -6.169 Q-7.851 -7.294 -6.8198 -8.3721 L-6.2104 -8.3721 Q-7.1791 -7.3096 -7.6635 -6.1377 Q-8.1479 -4.9659 -8.1479 -3.7315 Q-8.1479 -2.4034 -7.7104 -1.3877 L-8.226 -1.3877 Q-8.7885 -2.419 -8.7885 -3.7159 ZM-3.166 -4.3096 Q-3.166 -3.4815 -3.7128 -3.0284 Q-4.2597 -2.5752 -5.2597 -2.5752 Q-5.666 -2.5752 -5.9785 -2.6299 Q-6.291 -2.6846 -6.5722 -2.8252 L-6.5722 -3.4815 Q-5.9472 -3.1534 -5.2441 -3.1534 Q-4.6191 -3.1534 -4.2441 -3.4502 Q-3.8691 -3.7471 -3.8691 -4.2627 Q-3.8691 -4.5752 -4.0722 -4.8018 Q-4.2753 -5.0284 -4.8378 -5.3565 Q-5.4316 -5.6846 -5.6581 -6.0127 Q-5.8847 -6.3409 -5.8847 -6.794 Q-5.8847 -7.5284 -5.3691 -7.9893 Q-4.8535 -8.4502 -4.0097 -8.4502 Q-3.6347 -8.4502 -3.2988 -8.3721 Q-2.9628 -8.294 -2.5878 -8.1221 L-2.8535 -7.5284 Q-3.1035 -7.6846 -3.4238 -7.7706 Q-3.7441 -7.8565 -4.0097 -7.8565 Q-4.541 -7.8565 -4.8613 -7.5831 Q-5.1816 -7.3096 -5.1816 -6.8409 Q-5.1816 -6.6377 -5.1113 -6.4893 Q-5.041 -6.3409 -4.9003 -6.2081 Q-4.7597 -6.0752 -4.3378 -5.8252 Q-3.7753 -5.4815 -3.5722 -5.2862 Q-3.3691 -5.0909 -3.2675 -4.8565 Q-3.166 -4.6221 -3.166 -4.3096 ZM-0.5715 -6.0284 Q-0.5715 -4.7002 -1.048 -3.5674 Q-1.5246 -2.4346 -2.5402 -1.3877 L-3.1496 -1.3877 Q-1.2121 -3.544 -1.2121 -6.0284 Q-1.2121 -7.3565 -1.6496 -8.3721 L-1.134 -8.3721 Q-0.5715 -7.3096 -0.5715 -6.0284 Z"/><path style="stroke:none;" d="M-26.3884 6.245 Q-26.3884 4.9169 -25.9196 3.7919 Q-25.4509 2.6669 -24.4196 1.5888 L-23.8102 1.5888 Q-24.779 2.6513 -25.2634 3.8231 Q-25.7477 4.995 -25.7477 6.2294 Q-25.7477 7.5575 -25.3102 8.5731 L-25.8259 8.5731 Q-26.3884 7.5419 -26.3884 6.245 ZM-22.8283 4.9325 L-23.3283 7.3075 L-23.9845 7.3075 L-22.7814 1.5888 L-21.5314 1.5888 Q-19.797 1.5888 -19.797 3.0263 Q-19.797 4.3856 -21.2345 4.7763 L-20.297 7.3075 L-21.0158 7.3075 L-21.8439 4.9325 L-22.8283 4.9325 ZM-22.2502 2.1825 Q-22.6408 4.1044 -22.7033 4.3544 L-22.047 4.3544 Q-21.297 4.3544 -20.8908 4.0263 Q-20.4845 3.6981 -20.4845 3.0731 Q-20.4845 2.6044 -20.7424 2.3934 Q-21.0002 2.1825 -21.5939 2.1825 L-22.2502 2.1825 ZM-17.6111 3.9325 Q-17.6111 5.2606 -18.0876 6.3934 Q-18.5642 7.5263 -19.5798 8.5731 L-20.1892 8.5731 Q-18.2517 6.4169 -18.2517 3.9325 Q-18.2517 2.6044 -18.6892 1.5888 L-18.1736 1.5888 Q-17.6111 2.6513 -17.6111 3.9325 Z"/><path style="stroke:none;" d="M17.1917 -8.7159 Q17.1917 -10.044 17.6605 -11.169 Q18.1292 -12.294 19.1605 -13.3721 L19.7699 -13.3721 Q18.8011 -12.3096 18.3167 -11.1377 Q17.8324 -9.9659 17.8324 -8.7315 Q17.8324 -7.4034 18.2699 -6.3877 L17.7542 -6.3877 Q17.1917 -7.419 17.1917 -8.7159 ZM22.8143 -9.3096 Q22.8143 -8.4815 22.2674 -8.0284 Q21.7205 -7.5752 20.7205 -7.5752 Q20.3143 -7.5752 20.0018 -7.6299 Q19.6893 -7.6846 19.408 -7.8252 L19.408 -8.4815 Q20.033 -8.1534 20.7362 -8.1534 Q21.3612 -8.1534 21.7362 -8.4502 Q22.1112 -8.7471 22.1112 -9.2627 Q22.1112 -9.5752 21.908 -9.8018 Q21.7049 -10.0284 21.1424 -10.3565 Q20.5487 -10.6846 20.3221 -11.0127 Q20.0955 -11.3409 20.0955 -11.794 Q20.0955 -12.5284 20.6112 -12.9893 Q21.1268 -13.4502 21.9705 -13.4502 Q22.3455 -13.4502 22.6815 -13.3721 Q23.0174 -13.294 23.3924 -13.1221 L23.1268 -12.5284 Q22.8768 -12.6846 22.5565 -12.7706 Q22.2362 -12.8565 21.9705 -12.8565 Q21.4393 -12.8565 21.119 -12.5831 Q20.7987 -12.3096 20.7987 -11.8409 Q20.7987 -11.6377 20.869 -11.4893 Q20.9393 -11.3409 21.0799 -11.2081 Q21.2205 -11.0752 21.6424 -10.8252 Q22.2049 -10.4815 22.408 -10.2862 Q22.6112 -10.0909 22.7127 -9.8565 Q22.8143 -9.6221 22.8143 -9.3096 ZM25.4088 -11.0284 Q25.4088 -9.7002 24.9322 -8.5674 Q24.4556 -7.4346 23.44 -6.3877 L22.8306 -6.3877 Q24.7681 -8.544 24.7681 -11.0284 Q24.7681 -12.3565 24.3306 -13.3721 L24.8463 -13.3721 Q25.4088 -12.3096 25.4088 -11.0284 Z"/></g><g transform="translate(80,63)" style="stroke-linecap:butt; font-size:8.4px; text-rendering:geometricPrecision; image-rendering:optimizeQuality; color-rendering:optimizeQuality; font-family:'Open Sans'; font-style:italic; color-interpolation:linearRGB; stroke-miterlimit:5;"><path style="fill:none;" d="M-4.68 -44.419 L-4.68 -44.919 L-4.247 -45.169"/><path style="fill:gray; stroke:none;" d="M-26.3884 26.2451 Q-26.3884 24.917 -25.9196 23.792 Q-25.4509 22.667 -24.4196 21.5889 L-23.8102 21.5889 Q-24.779 22.6514 -25.2634 23.8232 Q-25.7477 24.9951 -25.7477 26.2295 Q-25.7477 27.5576 -25.3102 28.5732 L-25.8259 28.5732 Q-26.3884 27.542 -26.3884 26.2451 ZM-22.8283 24.9326 L-23.3283 27.3076 L-23.9845 27.3076 L-22.7814 21.5889 L-21.5314 21.5889 Q-19.797 21.5889 -19.797 23.0264 Q-19.797 24.3857 -21.2345 24.7764 L-20.297 27.3076 L-21.0158 27.3076 L-21.8439 24.9326 L-22.8283 24.9326 ZM-22.2502 22.1826 Q-22.6408 24.1045 -22.7033 24.3545 L-22.047 24.3545 Q-21.297 24.3545 -20.8908 24.0264 Q-20.4845 23.6982 -20.4845 23.0732 Q-20.4845 22.6045 -20.7424 22.3936 Q-21.0002 22.1826 -21.5939 22.1826 L-22.2502 22.1826 ZM-17.6111 23.9326 Q-17.6111 25.2607 -18.0876 26.3936 Q-18.5642 27.5264 -19.5798 28.5732 L-20.1892 28.5732 Q-18.2517 26.417 -18.2517 23.9326 Q-18.2517 22.6045 -18.6892 21.5889 L-18.1736 21.5889 Q-17.6111 22.6514 -17.6111 23.9326 Z"/><path style="fill:none;" d="M-58.7175 -9.0345 L-59.193 -9.189 L-59.4869 -8.7845"/><path style="fill:none;" d="M21.3 29.581 L21.3 30.081 L20.867 30.331"/><path style="fill:none;" d="M20.867 -59.669 L21.3 -59.919 L21.733 -59.669"/><path style="fill:none;" d="M-5.113 44.831 L-4.68 45.081 L-4.247 44.831"/></g><g transform="translate(80,63)" style="stroke-linecap:butt; fill:rgb(230,0,0); text-rendering:geometricPrecision; color-rendering:optimizeQuality; image-rendering:optimizeQuality; font-family:'Open Sans'; stroke:rgb(230,0,0); color-interpolation:linearRGB; stroke-miterlimit:5;"><path style="stroke:none;" d="M-55.2555 39.2837 Q-55.2555 41.3462 -56.2946 42.5259 Q-57.3336 43.7056 -59.1774 43.7056 Q-61.068 43.7056 -62.0992 42.5415 Q-63.1305 41.3774 -63.1305 39.2681 Q-63.1305 37.1743 -62.0992 36.0259 Q-61.068 34.8774 -59.1774 34.8774 Q-57.318 34.8774 -56.2867 36.0493 Q-55.2555 37.2212 -55.2555 39.2837 ZM-62.0836 39.2837 Q-62.0836 41.0181 -61.3414 41.9243 Q-60.5992 42.8306 -59.1774 42.8306 Q-57.7555 42.8306 -57.0289 41.9321 Q-56.3024 41.0337 -56.3024 39.2837 Q-56.3024 37.5493 -57.0289 36.6587 Q-57.7555 35.7681 -59.1774 35.7681 Q-60.5992 35.7681 -61.3414 36.6665 Q-62.0836 37.5649 -62.0836 39.2837 Z"/><path style="fill:none; stroke:black;" d="M-76.5331 14.6765 L-76.827 15.081 L-76.5331 15.4855"/><path style="fill:none; stroke:black;" d="M47.283 -44.419 L47.283 -44.919 L46.85 -45.169"/><path style="fill:black; stroke:none;" d="M-42.8552 -21.4757 L-43.8552 -21.4757 L-43.8552 -25.507 L-48.3708 -25.507 L-48.3708 -21.4757 L-49.3708 -21.4757 L-49.3708 -30.0382 L-48.3708 -30.0382 L-48.3708 -26.3976 L-43.8552 -26.3976 L-43.8552 -30.0382 L-42.8552 -30.0382 L-42.8552 -21.4757 Z"/><path style="fill:black; stroke:none;" d="M50.5408 19.2372 L49.5408 19.2372 L49.5408 15.206 L45.0252 15.206 L45.0252 19.2372 L44.0252 19.2372 L44.0252 10.6747 L45.0252 10.6747 L45.0252 14.3154 L49.5408 14.3154 L49.5408 10.6747 L50.5408 10.6747 L50.5408 19.2372 Z"/></g></g></svg></svg></svg></svg>