<svg xmlns:ns0="http://www.w3.org/2000/svg" xmlns="http://www.w3.org/2000/svg"><g transform="translate(0, 0)"><ns0:svg width="147" viewBox="0 0 147 119" style="fill-opacity:1; color-rendering:auto; color-interpolation:auto; text-rendering:auto; stroke:black; stroke-linecap:square; stroke-miterlimit:10; shape-rendering:auto; stroke-opacity:1; fill:black; stroke-dasharray:none; font-weight:normal; stroke-width:1; font-family:'Open Sans'; font-style:normal; stroke-linejoin:miter; font-size:12; stroke-dashoffset:0; image-rendering:auto;" height="119" class="cas-substance-image"><ns0:svg class="cas-substance-single-component"><ns0:rect y="0" x="0" width="147" stroke="none" ry="7" rx="7" height="119" fill="white" class="cas-substance-group" /><ns0:svg y="0" x="0" width="147" viewBox="0 0 147 119" style="fill:black;" height="119" class="cas-substance-single-component-image"><ns0:svg><ns0:g><ns0:g transform="translate(74,59)" style="text-rendering:geometricPrecision; color-rendering:optimizeQuality; color-interpolation:linearRGB; stroke-linecap:butt; image-rendering:optimizeQuality;"><ns0:line y2="-47.202" y1="-32.9933" x2="-62.7308" x1="-54.5281" style="fill:none;" /><ns0:line y2="-45.4521" y1="-31.2434" x2="-65.7619" x1="-57.5592" style="fill:none;" /><ns0:line y2="-6.5967" y1="-20.9667" x2="-65.712" x1="-57.4152" style="fill:none;" /><ns0:line y2="-4.8467" y1="-19.2167" x2="-62.681" x1="-54.3842" style="fill:none;" /><ns0:line y2="-25.98" y1="-25.98" x2="-22.5" x1="-47.1484" style="fill:none;" /><ns0:line y2="24.23" y1="24.23" x2="-46.5625" x1="-27.8516" style="fill:none;" /><ns0:line y2="27.73" y1="27.73" x2="-46.5625" x1="-27.8516" style="fill:none;" /><ns0:line y2="47.1101" y1="32.7433" x2="-12.3223" x1="-20.6162" style="fill:none;" /><ns0:line y2="45.3602" y1="30.9934" x2="-9.2911" x1="-17.5851" style="fill:none;" /><ns0:line y2="0" y1="19.8417" x2="-7.5" x1="-18.956" style="fill:none;" /><ns0:line y2="-25.98" y1="-25.98" x2="37.5" x1="63.1094" style="fill:none;" /><ns0:line y2="0" y1="-25.98" x2="-7.5" x1="-22.5" style="fill:none;" /><ns0:line y2="-3.5" y1="-25.9801" x2="-5.4793" x1="-18.4585" style="fill:none;" /><ns0:line y2="-51.963" y1="-25.98" x2="-7.5" x1="-22.5" style="fill:none;" /><ns0:line y2="0" y1="0" x2="22.5" x1="-7.5" style="fill:none;" /><ns0:line y2="-51.963" y1="-51.963" x2="22.5" x1="-7.5" style="fill:none;" /><ns0:line y2="-48.463" y1="-48.463" x2="20.4793" x1="-5.4793" style="fill:none;" /><ns0:line y2="-25.98" y1="0" x2="37.5" x1="22.5" style="fill:none;" /><ns0:line y2="-25.9801" y1="-3.5" x2="33.4585" x1="20.4793" style="fill:none;" /><ns0:line y2="-25.98" y1="-51.963" x2="37.5" x1="22.5" style="fill:none;" /></ns0:g><ns0:g transform="translate(74,59)" style="fill:rgb(0,5,255); text-rendering:geometricPrecision; color-rendering:optimizeQuality; image-rendering:optimizeQuality; font-family:'Open Sans'; stroke:rgb(0,5,255); color-interpolation:linearRGB;"><ns0:path style="stroke:none;" d="M-49.1484 -21.8237 L-50.2891 -21.8237 L-54.9766 -29.0112 L-55.0234 -29.0112 Q-54.9297 -27.7456 -54.9297 -26.6987 L-54.9297 -21.8237 L-55.8516 -21.8237 L-55.8516 -30.3862 L-54.7266 -30.3862 L-50.0547 -23.23 L-50.0078 -23.23 Q-50.0078 -23.3862 -50.0547 -24.2456 Q-50.1016 -25.105 -50.0859 -25.48 L-50.0859 -30.3862 L-49.1484 -30.3862 L-49.1484 -21.8237 Z" /><ns0:path style="fill:rgb(230,0,0); stroke:none;" d="M-63.5625 -52.0333 Q-63.5625 -49.9708 -64.6016 -48.7911 Q-65.6406 -47.6114 -67.4844 -47.6114 Q-69.375 -47.6114 -70.4062 -48.7755 Q-71.4375 -49.9396 -71.4375 -52.0489 Q-71.4375 -54.1427 -70.4062 -55.2911 Q-69.375 -56.4396 -67.4844 -56.4396 Q-65.625 -56.4396 -64.5938 -55.2677 Q-63.5625 -54.0958 -63.5625 -52.0333 ZM-70.3906 -52.0333 Q-70.3906 -50.2989 -69.6484 -49.3927 Q-68.9062 -48.4864 -67.4844 -48.4864 Q-66.0625 -48.4864 -65.3359 -49.3849 Q-64.6094 -50.2833 -64.6094 -52.0333 Q-64.6094 -53.7677 -65.3359 -54.6583 Q-66.0625 -55.5489 -67.4844 -55.5489 Q-68.9062 -55.5489 -69.6484 -54.6505 Q-70.3906 -53.7521 -70.3906 -52.0333 Z" /><ns0:path style="fill:rgb(230,0,0); stroke:none;" d="M-63.5625 -0.0703 Q-63.5625 1.9922 -64.6016 3.1719 Q-65.6406 4.3516 -67.4844 4.3516 Q-69.375 4.3516 -70.4062 3.1875 Q-71.4375 2.0234 -71.4375 -0.0859 Q-71.4375 -2.1797 -70.4062 -3.3281 Q-69.375 -4.4766 -67.4844 -4.4766 Q-65.625 -4.4766 -64.5938 -3.3047 Q-63.5625 -2.1328 -63.5625 -0.0703 ZM-70.3906 -0.0703 Q-70.3906 1.6641 -69.6484 2.5703 Q-68.9062 3.4766 -67.4844 3.4766 Q-66.0625 3.4766 -65.3359 2.5781 Q-64.6094 1.6797 -64.6094 -0.0703 Q-64.6094 -1.8047 -65.3359 -2.6953 Q-66.0625 -3.5859 -67.4844 -3.5859 Q-68.9062 -3.5859 -69.6484 -2.6875 Q-70.3906 -1.7891 -70.3906 -0.0703 Z" /><ns0:path style="stroke:none;" d="M-19.1484 30.1362 L-20.2891 30.1362 L-24.9766 22.9487 L-25.0234 22.9487 Q-24.9297 24.2144 -24.9297 25.2612 L-24.9297 30.1362 L-25.8516 30.1362 L-25.8516 21.5737 L-24.7266 21.5737 L-20.0547 28.73 L-20.0078 28.73 Q-20.0078 28.5737 -20.0547 27.7144 Q-20.1016 26.855 -20.0859 26.48 L-20.0859 21.5737 L-19.1484 21.5737 L-19.1484 30.1362 Z" /><ns0:path style="fill:rgb(230,0,0); stroke:none;" d="M-48.5625 25.9097 Q-48.5625 27.9722 -49.6016 29.1519 Q-50.6406 30.3316 -52.4844 30.3316 Q-54.375 30.3316 -55.4062 29.1675 Q-56.4375 28.0034 -56.4375 25.8941 Q-56.4375 23.8003 -55.4062 22.6519 Q-54.375 21.5034 -52.4844 21.5034 Q-50.625 21.5034 -49.5938 22.6753 Q-48.5625 23.8472 -48.5625 25.9097 ZM-55.3906 25.9097 Q-55.3906 27.6441 -54.6484 28.5503 Q-53.9062 29.4566 -52.4844 29.4566 Q-51.0625 29.4566 -50.3359 28.5581 Q-49.6094 27.6597 -49.6094 25.9097 Q-49.6094 24.1753 -50.3359 23.2847 Q-51.0625 22.3941 -52.4844 22.3941 Q-53.9062 22.3941 -54.6484 23.2925 Q-55.3906 24.1909 -55.3906 25.9097 Z" /><ns0:path style="fill:rgb(230,0,0); stroke:none;" d="M-3.5625 51.8927 Q-3.5625 53.9552 -4.6016 55.1349 Q-5.6406 56.3146 -7.4844 56.3146 Q-9.375 56.3146 -10.4062 55.1505 Q-11.4375 53.9864 -11.4375 51.8771 Q-11.4375 49.7833 -10.4062 48.6349 Q-9.375 47.4864 -7.4844 47.4864 Q-5.625 47.4864 -4.5938 48.6583 Q-3.5625 49.8302 -3.5625 51.8927 ZM-10.3906 51.8927 Q-10.3906 53.6271 -9.6484 54.5333 Q-8.9062 55.4396 -7.4844 55.4396 Q-6.0625 55.4396 -5.3359 54.5411 Q-4.6094 53.6427 -4.6094 51.8927 Q-4.6094 50.1583 -5.3359 49.2677 Q-6.0625 48.3771 -7.4844 48.3771 Q-8.9062 48.3771 -9.6484 49.2755 Q-10.3906 50.1739 -10.3906 51.8927 Z" /><ns0:path style="fill:rgb(0,138,0); stroke:none;" d="M66.1094 -21.8237 L65.1094 -21.8237 L65.1094 -30.3862 L69.8906 -30.3862 L69.8906 -29.5112 L66.1094 -29.5112 L66.1094 -26.3706 L69.6562 -26.3706 L69.6562 -25.48 L66.1094 -25.48 L66.1094 -21.8237 Z" /></ns0:g><ns0:g transform="translate(74,59)" style="stroke-linecap:butt; text-rendering:geometricPrecision; color-rendering:optimizeQuality; image-rendering:optimizeQuality; font-family:'Open Sans'; color-interpolation:linearRGB; stroke-miterlimit:5;"><ns0:path style="fill:none;" d="M-22.25 -25.547 L-22.5 -25.98 L-23 -25.98" /><ns0:path style="fill:none;" d="M-7.75 -0.433 L-7.5 0 L-7.75 0.433" /><ns0:path style="fill:none;" d="M-7.75 -51.53 L-7.5 -51.963 L-7 -51.963" /><ns0:path style="fill:none;" d="M22 -0 L22.5 0 L22.75 -0.433" /><ns0:path style="fill:none;" d="M22 -51.963 L22.5 -51.963 L22.75 -51.53" /><ns0:path style="fill:none;" d="M37.25 -25.547 L37.5 -25.98 L38 -25.98" /></ns0:g></ns0:g></ns0:svg></ns0:svg></ns0:svg></ns0:svg></g></svg>