<svg xmlns:ns0="http://www.w3.org/2000/svg" xmlns="http://www.w3.org/2000/svg"><g transform="translate(0, 0)"><ns0:svg width="137" viewBox="0 0 137 150" style="fill-opacity:1; color-rendering:auto; color-interpolation:auto; text-rendering:auto; stroke:black; stroke-linecap:square; stroke-miterlimit:10; shape-rendering:auto; stroke-opacity:1; fill:black; stroke-dasharray:none; font-weight:normal; stroke-width:1; font-family:'Open Sans'; font-style:normal; stroke-linejoin:miter; font-size:12; stroke-dashoffset:0; image-rendering:auto;" height="150" class="cas-substance-image"><ns0:svg class="cas-substance-single-component"><ns0:rect y="0" x="0" width="137" stroke="none" ry="7" rx="7" height="150" fill="white" class="cas-substance-group" /><ns0:svg y="0" x="0" width="137" viewBox="0 0 137 135" style="fill:black;" height="135" class="cas-substance-single-component-image"><ns0:svg><ns0:g><ns0:g transform="translate(68,70)" style="text-rendering:geometricPrecision; color-rendering:optimizeQuality; color-interpolation:linearRGB; stroke-linecap:butt; image-rendering:optimizeQuality;"><ns0:line y2="33.99" y1="16.536" x2="-21.849" x1="-7.2022" style="fill:none;" /><ns0:line y2="-17.181" y1="4.7243" x2="-12.825" x1="-4.8526" style="fill:none;" /><ns0:line y2="62.181" y1="33.99" x2="-11.589" x1="-21.849" style="fill:none;" /><ns0:line y2="-48.1914" y1="-60.5077" x2="-14.575" x1="6.7569" style="fill:none;" /><ns0:line y2="-45.1603" y1="-57.4766" x2="-12.825" x1="8.507" style="fill:none;" /><ns0:line y2="-47.181" y1="-17.181" x2="-12.825" x1="-12.825" style="fill:none;" /><ns0:line y2="-2.181" y1="-17.181" x2="-38.805" x1="-12.825" style="fill:none;" /><ns0:line y2="-22.392" y1="-17.181" x2="16.719" x1="-12.825" style="fill:none;" /><ns0:line y2="-62.181" y1="-47.181" x2="-38.805" x1="-12.825" style="fill:none;" /><ns0:line y2="-17.181" y1="-2.181" x2="-64.788" x1="-38.805" style="fill:none;" /><ns0:line y2="-47.181" y1="-62.181" x2="-64.788" x1="-38.805" style="fill:none;" /><ns0:line y2="-47.181" y1="-17.181" x2="-64.788" x1="-64.788" style="fill:none;" /><ns0:line y2="-49.356" y1="-22.392" x2="29.871" x1="16.719" style="fill:none;" /><ns0:line y2="-46.0054" y1="-22.6738" x2="32.1309" x1="20.7506" style="fill:none;" /><ns0:line y2="-5.4511" y1="-22.392" x2="34.2598" x1="16.719" style="fill:none;" /><ns0:line y2="-45.18" y1="-49.356" x2="59.577" x1="29.871" style="fill:none;" /><ns0:line y2="-15.636" y1="-3.7659" x2="64.788" x1="42.4636" style="fill:none;" /><ns0:line y2="-15.636" y1="-45.18" x2="64.788" x1="59.577" style="fill:none;" /><ns0:line y2="-17.0181" y1="-42.582" x2="60.9902" x1="56.4812" style="fill:none;" /></ns0:g><ns0:g transform="translate(68,70)" style="fill:rgb(0,5,255); text-rendering:geometricPrecision; color-rendering:optimizeQuality; image-rendering:optimizeQuality; font-family:'Open Sans'; stroke:rgb(0,5,255); color-interpolation:linearRGB;"><ns0:path style="stroke:none;" d="M0.7866 15.1663 L-0.3541 15.1663 L-5.0416 7.9788 L-5.0884 7.9788 Q-4.9947 9.2444 -4.9947 10.2913 L-4.9947 15.1663 L-5.9166 15.1663 L-5.9166 6.6038 L-4.7916 6.6038 L-0.1197 13.76 L-0.0728 13.76 Q-0.0728 13.6038 -0.1197 12.7444 Q-0.1666 11.885 -0.1509 11.51 L-0.1509 6.6038 L0.7866 6.6038 L0.7866 15.1663 Z" /><ns0:path style="stroke:none;" d="M8.3022 15.1663 L7.3022 15.1663 L7.3022 11.135 L2.7866 11.135 L2.7866 15.1663 L1.7866 15.1663 L1.7866 6.6038 L2.7866 6.6038 L2.7866 10.2444 L7.3022 10.2444 L7.3022 6.6038 L8.3022 6.6038 L8.3022 15.1663 Z" /></ns0:g><ns0:g transform="translate(68,70)" style="stroke-linecap:butt; text-rendering:geometricPrecision; color-rendering:optimizeQuality; image-rendering:optimizeQuality; font-family:'Open Sans'; color-interpolation:linearRGB; stroke-miterlimit:5;"><ns0:path style="fill:none;" d="M-21.5276 33.607 L-21.849 33.99 L-21.678 34.4599" /><ns0:path style="fill:rgb(230,0,0); stroke:none;" d="M17.0925 -62.2513 Q17.0925 -60.1888 16.0534 -59.0091 Q15.0144 -57.8294 13.1706 -57.8294 Q11.28 -57.8294 10.2487 -58.9935 Q9.2175 -60.1576 9.2175 -62.2669 Q9.2175 -64.3607 10.2487 -65.5091 Q11.28 -66.6576 13.1706 -66.6576 Q15.03 -66.6576 16.0612 -65.4857 Q17.0925 -64.3138 17.0925 -62.2513 ZM10.2644 -62.2513 Q10.2644 -60.5169 11.0066 -59.6107 Q11.7487 -58.7044 13.1706 -58.7044 Q14.5925 -58.7044 15.3191 -59.6029 Q16.0456 -60.5013 16.0456 -62.2513 Q16.0456 -63.9857 15.3191 -64.8763 Q14.5925 -65.7669 13.1706 -65.7669 Q11.7487 -65.7669 11.0066 -64.8685 Q10.2644 -63.9701 10.2644 -62.2513 Z" /><ns0:path style="fill:none;" d="M-12.825 -46.681 L-12.825 -47.181 L-13.258 -47.431" /><ns0:path style="fill:none;" d="M-38.372 -2.431 L-38.805 -2.181 L-39.238 -2.431" /><ns0:path style="fill:none;" d="M-38.372 -61.931 L-38.805 -62.181 L-39.238 -61.931" /><ns0:path style="fill:none;" d="M-64.355 -16.931 L-64.788 -17.181 L-64.788 -17.681" /><ns0:path style="fill:none;" d="M-64.355 -47.431 L-64.788 -47.181 L-64.788 -46.681" /><ns0:path style="fill:none;" d="M16.9382 -22.8414 L16.719 -22.392 L16.2266 -22.3052" /><ns0:path style="fill:none;" d="M29.6518 -48.9066 L29.871 -49.356 L30.3661 -49.2864" /><ns0:path style="fill:rgb(148,108,0); stroke:none;" d="M40.9933 0.3865 Q40.9933 1.5115 40.173 2.1521 Q39.3527 2.7927 37.9464 2.7927 Q36.4152 2.7927 35.6027 2.3865 L35.6027 1.4334 Q36.1339 1.6521 36.7511 1.7849 Q37.3683 1.9177 37.9777 1.9177 Q38.9777 1.9177 39.4777 1.5349 Q39.9777 1.1521 39.9777 0.4802 Q39.9777 0.0427 39.798 -0.2463 Q39.6183 -0.5354 39.2043 -0.7776 Q38.7902 -1.0198 37.9308 -1.3166 Q36.7433 -1.7385 36.2277 -2.3244 Q35.7121 -2.9104 35.7121 -3.8635 Q35.7121 -4.8479 36.4543 -5.4338 Q37.1964 -6.0198 38.4308 -6.0198 Q39.6964 -6.0198 40.7746 -5.551 L40.4621 -4.6916 Q39.3996 -5.1291 38.3996 -5.1291 Q37.6027 -5.1291 37.1574 -4.7932 Q36.7121 -4.4573 36.7121 -3.8479 Q36.7121 -3.4104 36.8761 -3.1213 Q37.0402 -2.8323 37.4308 -2.5979 Q37.8214 -2.3635 38.6339 -2.0666 Q39.9777 -1.5979 40.4855 -1.0432 Q40.9933 -0.4885 40.9933 0.3865 Z" /><ns0:path style="fill:none;" d="M59.0819 -45.2496 L59.577 -45.18 L59.6638 -44.6876" /><ns0:path style="fill:none;" d="M64.3465 -15.4013 L64.788 -15.636 L64.7011 -16.1284" /></ns0:g></ns0:g></ns0:svg></ns0:svg><ns0:svg y="135" x="60" class="cas-substance-saf"><ns0:svg y="5" x="0" width="4" style="fill:black;" height="4" class="cas-substance-saf-dot"><ns0:circle stroke="none" r="2" fill="black" cy="2" cx="2" /></ns0:svg><ns0:svg y="0" x="8" width="22" style="fill:black;" height="15" class="cas-substance-saf-image"><ns0:svg><ns0:g><ns0:g transform="translate(6,8)" style="fill:rgb(0,138,0); text-rendering:geometricPrecision; color-rendering:optimizeQuality; image-rendering:optimizeQuality; font-family:'Open Sans'; stroke:rgb(0,138,0); color-interpolation:linearRGB;"><ns0:path style="stroke:none;" d="M3.2578 4.1562 L2.2578 4.1562 L2.2578 0.125 L-2.2578 0.125 L-2.2578 4.1562 L-3.2578 4.1562 L-3.2578 -4.4062 L-2.2578 -4.4062 L-2.2578 -0.7656 L2.2578 -0.7656 L2.2578 -4.4062 L3.2578 -4.4062 L3.2578 4.1562 Z" /><ns0:path style="stroke:none;" d="M8.3672 -3.6406 Q6.9609 -3.6406 6.1406 -2.7031 Q5.3203 -1.7656 5.3203 -0.125 Q5.3203 1.5469 6.1094 2.4688 Q6.8984 3.3906 8.3516 3.3906 Q9.2578 3.3906 10.3984 3.0625 L10.3984 3.9375 Q9.5078 4.2812 8.2109 4.2812 Q6.3203 4.2812 5.2891 3.125 Q4.2578 1.9688 4.2578 -0.1406 Q4.2578 -1.4688 4.75 -2.4609 Q5.2422 -3.4531 6.1797 -3.9922 Q7.1172 -4.5312 8.3828 -4.5312 Q9.7266 -4.5312 10.7422 -4.0469 L10.3203 -3.1875 Q9.3359 -3.6406 8.3672 -3.6406 ZM13.0938 4.1562 L12.125 4.1562 L12.125 -4.9688 L13.0938 -4.9688 L13.0938 4.1562 Z" /></ns0:g></ns0:g></ns0:svg></ns0:svg></ns0:svg></ns0:svg></ns0:svg></g></svg>