<svg xmlns:ns0="http://www.w3.org/2000/svg" xmlns="http://www.w3.org/2000/svg"><g transform="translate(0, 0)"><ns0:svg width="297" viewBox="0 0 297 158" style="fill-opacity:1; color-rendering:auto; color-interpolation:auto; text-rendering:auto; stroke:black; stroke-linecap:square; stroke-miterlimit:10; shape-rendering:auto; stroke-opacity:1; fill:black; stroke-dasharray:none; font-weight:normal; stroke-width:1; font-family:'Open Sans'; font-style:normal; stroke-linejoin:miter; font-size:12; stroke-dashoffset:0; image-rendering:auto;" height="158" class="cas-substance-image"><ns0:svg class="cas-substance-single-component"><ns0:rect y="0" x="0" width="297" stroke="none" ry="7" rx="7" height="158" fill="white" class="cas-substance-group" /><ns0:svg y="0" x="0" width="297" viewBox="0 0 297 158" style="fill:black;" height="158" class="cas-substance-single-component-image"><ns0:svg><ns0:g><ns0:g transform="translate(148,81)" style="text-rendering:geometricPrecision; color-rendering:optimizeQuality; color-interpolation:linearRGB; stroke-linecap:butt; image-rendering:optimizeQuality;"><ns0:line y2="-16.6902" y1="-28.449" x2="-12.2863" x1="-32.655" style="fill:none;" /><ns0:line y2="-13.449" y1="-28.449" x2="-58.635" x1="-32.655" style="fill:none;" /><ns0:line y2="-28.449" y1="-16.675" x2="19.308" x1="-1.0845" style="fill:none;" /><ns0:line y2="-16.3841" y1="-28.449" x2="40.2044" x1="19.308" style="fill:none;" /><ns0:line y2="-52.0974" y1="-27.4386" x2="21.058" x1="21.058" style="fill:none;" /><ns0:line y2="-52.0974" y1="-27.4386" x2="17.558" x1="17.558" style="fill:none;" /><ns0:path style="stroke:none;" d="M71.018 -28.882 L71.518 -28.016 L51.8716 -13.786 L48.8716 -18.9822 Z" /><ns0:line y2="-58.449" y1="-28.449" x2="71.268" x1="71.268" style="fill:none;" /><ns0:line y2="-13.449" y1="-28.449" x2="97.251" x1="71.268" style="fill:none;" /><ns0:line y2="-70.2604" y1="-58.449" x2="91.7278" x1="71.268" style="fill:none;" /><ns0:line y2="-71.7859" y1="-59.4593" x2="51.6684" x1="73.0181" style="fill:none;" /><ns0:line y2="-68.7549" y1="-56.4283" x2="49.9183" x1="71.268" style="fill:none;" /><ns0:line y2="-25.653" y1="-13.449" x2="-86.04" x1="-58.635" style="fill:none;" /><ns0:line y2="16.386" y1="-13.449" x2="-61.77" x1="-58.635" style="fill:none;" /><ns0:line y2="-3.357" y1="-25.653" x2="-106.116" x1="-86.04" style="fill:none;" /><ns0:line y2="-54.183" y1="-25.653" x2="-95.313" x1="-86.04" style="fill:none;" /><ns0:line y2="-51.1794" y1="-26.4929" x2="-98.017" x1="-89.9932" style="fill:none;" /><ns0:line y2="22.623" y1="16.386" x2="-91.116" x1="-61.77" style="fill:none;" /><ns0:line y2="38.679" y1="16.386" x2="-41.697" x1="-61.77" style="fill:none;" /><ns0:line y2="39.5193" y1="20.2297" x2="-45.6501" x1="-63.0189" style="fill:none;" /><ns0:line y2="22.623" y1="-3.357" x2="-91.116" x1="-106.116" style="fill:none;" /><ns0:line y2="-9.594" y1="-3.357" x2="-135.459" x1="-106.116" style="fill:none;" /><ns0:line y2="-12.5974" y1="-7.2006" x2="-132.7547" x1="-107.3649" style="fill:none;" /><ns0:line y2="-60.42" y1="-54.183" x2="-124.656" x1="-95.313" style="fill:none;" /><ns0:line y2="51.156" y1="22.623" x2="-100.386" x1="-91.116" style="fill:none;" /><ns0:line y2="50.3156" y1="25.6263" x2="-96.4329" x1="-88.4117" style="fill:none;" /><ns0:line y2="67.212" y1="38.679" x2="-50.967" x1="-41.697" style="fill:none;" /><ns0:line y2="-38.127" y1="-9.594" x2="-144.729" x1="-135.459" style="fill:none;" /><ns0:line y2="-38.127" y1="-60.42" x2="-144.729" x1="-124.656" style="fill:none;" /><ns0:line y2="-37.2867" y1="-56.5763" x2="-140.7758" x1="-123.4072" style="fill:none;" /><ns0:line y2="73.449" y1="51.156" x2="-80.313" x1="-100.386" style="fill:none;" /><ns0:line y2="73.449" y1="67.212" x2="-80.313" x1="-50.967" style="fill:none;" /><ns0:line y2="69.6054" y1="64.2086" x2="-79.064" x1="-53.6712" style="fill:none;" /><ns0:line y2="16.386" y1="-13.449" x2="100.386" x1="97.251" style="fill:none;" /><ns0:line y2="14.0106" y1="-11.8051" x2="103.6557" x1="100.943" style="fill:none;" /><ns0:line y2="-23.6531" y1="-13.449" x2="120.165" x1="97.251" style="fill:none;" /><ns0:line y2="22.623" y1="16.386" x2="129.729" x1="100.386" style="fill:none;" /><ns0:line y2="-3.357" y1="-21.1728" x2="144.729" x1="128.6895" style="fill:none;" /><ns0:line y2="-3.357" y1="22.623" x2="144.729" x1="129.729" style="fill:none;" /><ns0:line y2="-3.3571" y1="19.123" x2="140.6875" x1="127.7083" style="fill:none;" /><ns0:path style="fill:none; stroke-miterlimit:5;" d="M-32.222 -28.199 L-32.655 -28.449 L-33.088 -28.199" /></ns0:g><ns0:g transform="translate(148,81)" style="stroke-linecap:butt; fill:rgb(230,0,0); text-rendering:geometricPrecision; color-rendering:optimizeQuality; image-rendering:optimizeQuality; font-family:'Open Sans'; stroke:rgb(230,0,0); color-interpolation:linearRGB; stroke-miterlimit:5;"><ns0:path style="stroke:none;" d="M-2.7345 -13.5193 Q-2.7345 -11.4568 -3.7736 -10.2771 Q-4.8126 -9.0974 -6.6564 -9.0974 Q-8.547 -9.0974 -9.5782 -10.2615 Q-10.6095 -11.4256 -10.6095 -13.5349 Q-10.6095 -15.6287 -9.5782 -16.7771 Q-8.547 -17.9256 -6.6564 -17.9256 Q-4.797 -17.9256 -3.7657 -16.7537 Q-2.7345 -15.5818 -2.7345 -13.5193 ZM-9.5626 -13.5193 Q-9.5626 -11.7849 -8.8204 -10.8787 Q-8.0782 -9.9724 -6.6564 -9.9724 Q-5.2345 -9.9724 -4.5079 -10.8709 Q-3.7814 -11.7693 -3.7814 -13.5193 Q-3.7814 -15.2537 -4.5079 -16.1443 Q-5.2345 -17.0349 -6.6564 -17.0349 Q-8.0782 -17.0349 -8.8204 -16.1365 Q-9.5626 -15.2381 -9.5626 -13.5193 Z" /><ns0:path style="fill:none; stroke:black;" d="M18.875 -28.199 L19.308 -28.449 L19.741 -28.199" /><ns0:path style="fill:rgb(0,5,255); stroke:none;" d="M48.6396 -9.2928 L47.4989 -9.2928 L42.8114 -16.4803 L42.7646 -16.4803 Q42.8583 -15.2146 42.8583 -14.1678 L42.8583 -9.2928 L41.9364 -9.2928 L41.9364 -17.8553 L43.0614 -17.8553 L47.7333 -10.699 L47.7802 -10.699 Q47.7802 -10.8553 47.7333 -11.7146 Q47.6864 -12.574 47.7021 -12.949 L47.7021 -17.8553 L48.6396 -17.8553 L48.6396 -9.2928 Z" /><ns0:path style="fill:rgb(0,5,255); stroke:none;" d="M48.5458 0.2697 L47.5458 0.2697 L47.5458 -3.7615 L43.0302 -3.7615 L43.0302 0.2697 L42.0302 0.2697 L42.0302 -8.2928 L43.0302 -8.2928 L43.0302 -4.6521 L47.5458 -4.6521 L47.5458 -8.2928 L48.5458 -8.2928 L48.5458 0.2697 Z" /><ns0:path style="stroke:none;" d="M23.2455 -58.5193 Q23.2455 -56.4568 22.2064 -55.2771 Q21.1674 -54.0974 19.3236 -54.0974 Q17.433 -54.0974 16.4017 -55.2615 Q15.3705 -56.4256 15.3705 -58.5349 Q15.3705 -60.6287 16.4017 -61.7771 Q17.433 -62.9256 19.3236 -62.9256 Q21.183 -62.9256 22.2142 -61.7537 Q23.2455 -60.5818 23.2455 -58.5193 ZM16.4174 -58.5193 Q16.4174 -56.7849 17.1596 -55.8787 Q17.9017 -54.9724 19.3236 -54.9724 Q20.7455 -54.9724 21.4721 -55.8709 Q22.1986 -56.7693 22.1986 -58.5193 Q22.1986 -60.2537 21.4721 -61.1443 Q20.7455 -62.0349 19.3236 -62.0349 Q17.9017 -62.0349 17.1596 -61.1365 Q16.4174 -60.2381 16.4174 -58.5193 Z" /></ns0:g><ns0:g transform="translate(148,81)" style="stroke-linecap:butt; font-size:8.4px; fill:gray; text-rendering:geometricPrecision; image-rendering:optimizeQuality; color-rendering:optimizeQuality; font-family:'Open Sans'; font-style:italic; stroke:gray; color-interpolation:linearRGB; stroke-miterlimit:5;"><ns0:path style="stroke:none;" d="M58.4992 -32.2458 Q58.4992 -33.5739 58.9679 -34.6989 Q59.4367 -35.8239 60.4679 -36.902 L61.0773 -36.902 Q60.1085 -35.8395 59.6242 -34.6676 Q59.1398 -33.4958 59.1398 -32.2614 Q59.1398 -30.9333 59.5773 -29.9176 L59.0617 -29.9176 Q58.4992 -30.9489 58.4992 -32.2458 ZM64.1217 -32.8395 Q64.1217 -32.0114 63.5749 -31.5583 Q63.028 -31.1051 62.028 -31.1051 Q61.6217 -31.1051 61.3092 -31.1598 Q60.9967 -31.2145 60.7155 -31.3551 L60.7155 -32.0114 Q61.3405 -31.6833 62.0436 -31.6833 Q62.6686 -31.6833 63.0436 -31.9801 Q63.4186 -32.277 63.4186 -32.7926 Q63.4186 -33.1051 63.2155 -33.3317 Q63.0124 -33.5583 62.4499 -33.8864 Q61.8561 -34.2145 61.6295 -34.5426 Q61.403 -34.8708 61.403 -35.3239 Q61.403 -36.0583 61.9186 -36.5192 Q62.4342 -36.9801 63.278 -36.9801 Q63.653 -36.9801 63.9889 -36.902 Q64.3249 -36.8239 64.6999 -36.652 L64.4342 -36.0583 Q64.1842 -36.2145 63.8639 -36.3005 Q63.5436 -36.3864 63.278 -36.3864 Q62.7467 -36.3864 62.4264 -36.113 Q62.1061 -35.8395 62.1061 -35.3708 Q62.1061 -35.1676 62.1764 -35.0192 Q62.2467 -34.8708 62.3874 -34.738 Q62.528 -34.6051 62.9499 -34.3551 Q63.5124 -34.0114 63.7155 -33.8161 Q63.9186 -33.6208 64.0202 -33.3864 Q64.1217 -33.152 64.1217 -32.8395 ZM66.7162 -34.5583 Q66.7162 -33.2301 66.2396 -32.0973 Q65.7631 -30.9645 64.7475 -29.9176 L64.1381 -29.9176 Q66.0756 -32.0739 66.0756 -34.5583 Q66.0756 -35.8864 65.6381 -36.902 L66.1537 -36.902 Q66.7162 -35.8395 66.7162 -34.5583 Z" /><ns0:path style="fill:none; stroke:black;" d="M71.268 -57.949 L71.268 -58.449 L71.701 -58.699" /></ns0:g><ns0:g transform="translate(148,81)" style="stroke-linecap:butt; fill:rgb(230,0,0); text-rendering:geometricPrecision; color-rendering:optimizeQuality; image-rendering:optimizeQuality; font-family:'Open Sans'; stroke:rgb(230,0,0); color-interpolation:linearRGB; stroke-miterlimit:5;"><ns0:path style="stroke:none;" d="M101.1885 -73.5193 Q101.1885 -71.4568 100.1494 -70.2771 Q99.1104 -69.0974 97.2666 -69.0974 Q95.376 -69.0974 94.3447 -70.2615 Q93.3135 -71.4256 93.3135 -73.5349 Q93.3135 -75.6287 94.3447 -76.7771 Q95.376 -77.9256 97.2666 -77.9256 Q99.126 -77.9256 100.1572 -76.7537 Q101.1885 -75.5818 101.1885 -73.5193 ZM94.3604 -73.5193 Q94.3604 -71.7849 95.1026 -70.8787 Q95.8447 -69.9724 97.2666 -69.9724 Q98.6885 -69.9724 99.4151 -70.8709 Q100.1416 -71.7693 100.1416 -73.5193 Q100.1416 -75.2537 99.4151 -76.1443 Q98.6885 -77.0349 97.2666 -77.0349 Q95.8447 -77.0349 95.1026 -76.1365 Q94.3604 -75.2381 94.3604 -73.5193 Z" /><ns0:path style="stroke:none;" d="M108.7041 -69.2224 L107.7041 -69.2224 L107.7041 -73.2537 L103.1885 -73.2537 L103.1885 -69.2224 L102.1885 -69.2224 L102.1885 -77.7849 L103.1885 -77.7849 L103.1885 -74.1443 L107.7041 -74.1443 L107.7041 -77.7849 L108.7041 -77.7849 L108.7041 -69.2224 Z" /><ns0:path style="stroke:none;" d="M49.2255 -73.5193 Q49.2255 -71.4568 48.1864 -70.2771 Q47.1474 -69.0974 45.3036 -69.0974 Q43.413 -69.0974 42.3818 -70.2615 Q41.3505 -71.4256 41.3505 -73.5349 Q41.3505 -75.6287 42.3818 -76.7771 Q43.413 -77.9256 45.3036 -77.9256 Q47.163 -77.9256 48.1943 -76.7537 Q49.2255 -75.5818 49.2255 -73.5193 ZM42.3974 -73.5193 Q42.3974 -71.7849 43.1396 -70.8787 Q43.8818 -69.9724 45.3036 -69.9724 Q46.7255 -69.9724 47.4521 -70.8709 Q48.1786 -71.7693 48.1786 -73.5193 Q48.1786 -75.2537 47.4521 -76.1443 Q46.7255 -77.0349 45.3036 -77.0349 Q43.8818 -77.0349 43.1396 -76.1365 Q42.3974 -75.2381 42.3974 -73.5193 Z" /><ns0:path style="fill:none; stroke:black;" d="M-86.1946 -26.1285 L-86.04 -25.653 L-86.3746 -25.2814" /><ns0:path style="fill:none; stroke:black;" d="M-61.4354 16.7576 L-61.77 16.386 L-62.2591 16.4899" /><ns0:path style="fill:none; stroke:black;" d="M-106.6051 -3.461 L-106.116 -3.357 L-105.7814 -3.7286" /><ns0:path style="fill:none; stroke:black;" d="M-95.1584 -53.7075 L-95.313 -54.183 L-95.8021 -54.287" /><ns0:path style="fill:none; stroke:black;" d="M-91.2705 23.0985 L-91.116 22.623 L-90.6269 22.5191" /><ns0:path style="fill:none; stroke:black;" d="M-42.0316 38.3074 L-41.697 38.679 L-41.8515 39.1545" /><ns0:path style="fill:none; stroke:black;" d="M-134.9699 -9.49 L-135.459 -9.594 L-135.6135 -10.0695" /><ns0:path style="fill:none; stroke:black;" d="M-124.1669 -60.316 L-124.656 -60.42 L-124.9906 -60.0484" /><ns0:path style="fill:none; stroke:black;" d="M-100.2315 50.6805 L-100.386 51.156 L-100.0514 51.5276" /><ns0:path style="fill:none; stroke:black;" d="M-50.8125 66.7365 L-50.967 67.212 L-51.4561 67.3159" /><ns0:path style="fill:none; stroke:black;" d="M-144.5745 -37.6515 L-144.729 -38.127 L-144.3944 -38.4986" /><ns0:path style="fill:none; stroke:black;" d="M-80.6476 73.0774 L-80.313 73.449 L-79.8239 73.3451" /><ns0:path style="fill:none; stroke:black;" d="M97.3033 -12.9517 L97.251 -13.449 L96.818 -13.699" /><ns0:path style="fill:none; stroke:black;" d="M100.3337 15.8887 L100.386 16.386 L100.8751 16.49" /><ns0:path style="fill:rgb(148,108,0); stroke:none;" d="M127.3513 -23.7155 Q127.3513 -22.5905 126.531 -21.9499 Q125.7107 -21.3092 124.3044 -21.3092 Q122.7732 -21.3092 121.9607 -21.7155 L121.9607 -22.6686 Q122.4919 -22.4499 123.1091 -22.3171 Q123.7263 -22.1842 124.3357 -22.1842 Q125.3357 -22.1842 125.8357 -22.5671 Q126.3357 -22.9499 126.3357 -23.6217 Q126.3357 -24.0592 126.156 -24.3483 Q125.9763 -24.6374 125.5622 -24.8796 Q125.1482 -25.1217 124.2888 -25.4186 Q123.1013 -25.8405 122.5857 -26.4264 Q122.0701 -27.0124 122.0701 -27.9655 Q122.0701 -28.9499 122.8122 -29.5358 Q123.5544 -30.1217 124.7888 -30.1217 Q126.0544 -30.1217 127.1326 -29.653 L126.8201 -28.7936 Q125.7576 -29.2311 124.7576 -29.2311 Q123.9607 -29.2311 123.5154 -28.8952 Q123.0701 -28.5592 123.0701 -27.9499 Q123.0701 -27.5124 123.2341 -27.2233 Q123.3982 -26.9342 123.7888 -26.6999 Q124.1794 -26.4655 124.9919 -26.1686 Q126.3357 -25.6999 126.8435 -25.1452 Q127.3513 -24.5905 127.3513 -23.7155 Z" /><ns0:path style="fill:none; stroke:black;" d="M129.2399 22.519 L129.729 22.623 L129.979 22.19" /><ns0:path style="fill:none; stroke:black;" d="M144.3944 -3.7286 L144.729 -3.357 L144.479 -2.924" /></ns0:g></ns0:g></ns0:svg></ns0:svg></ns0:svg></ns0:svg></g></svg>