<svg width="110" viewBox="0 0 110 58" style="fill-opacity:1; color-rendering:auto; color-interpolation:auto; text-rendering:auto; stroke:black; stroke-linecap:square; stroke-miterlimit:10; shape-rendering:auto; stroke-opacity:1; fill:black; stroke-dasharray:none; font-weight:normal; stroke-width:1; font-family:'Open Sans'; font-style:normal; stroke-linejoin:miter; font-size:12; stroke-dashoffset:0; image-rendering:auto;" height="58" class="cas-substance-image" xmlns:xlink="http://www.w3.org/1999/xlink" xmlns="http://www.w3.org/2000/svg"><svg class="cas-substance-single-component"><rect y="0" x="0" width="110" stroke="none" ry="7" rx="7" height="58" fill="white" class="cas-substance-group"/><svg y="0" x="0" width="110" viewBox="0 0 110 58" style="fill:black;" height="58" class="cas-substance-single-component-image"><svg><g><g transform="translate(55,26)" style="text-rendering:geometricPrecision; color-rendering:optimizeQuality; color-interpolation:linearRGB; stroke-linecap:butt; image-rendering:optimizeQuality;"><line y2="-7.5" y1="-22.5" x2="-25.98" x1="0" style="fill:none;"/><line y2="-10.7414" y1="-22.5" x2="20.3659" x1="0" style="fill:none;"/><line y2="-22.5" y1="-7.5" x2="-51.963" x1="-25.98" style="fill:none;"/><path style="stroke:none;" d="M-26.48 -7.5 L-25.48 -7.5 L-22.98 16.0938 L-28.98 16.0938 Z"/><line y2="-22.5" y1="-10.7258" x2="51.963" x1="31.5677" style="fill:none;"/><path style="fill:none; stroke-miterlimit:5;" d="M-0.433 -22.25 L0 -22.5 L0.433 -22.25"/></g><g transform="translate(55,26)" style="stroke-linecap:butt; font-size:8.4px; fill:gray; text-rendering:geometricPrecision; image-rendering:optimizeQuality; color-rendering:optimizeQuality; font-family:'Open Sans'; font-style:italic; stroke:gray; color-interpolation:linearRGB; stroke-miterlimit:5;"><path style="stroke:none;" d="M-30.0888 -16.2969 Q-30.0888 -17.625 -29.62 -18.75 Q-29.1513 -19.875 -28.12 -20.9531 L-27.5106 -20.9531 Q-28.4794 -19.8906 -28.9638 -18.7188 Q-29.4481 -17.5469 -29.4481 -16.3125 Q-29.4481 -14.9844 -29.0106 -13.9688 L-29.5263 -13.9688 Q-30.0888 -15 -30.0888 -16.2969 ZM-24.4662 -16.8906 Q-24.4662 -16.0625 -25.0131 -15.6094 Q-25.56 -15.1562 -26.56 -15.1562 Q-26.9662 -15.1562 -27.2787 -15.2109 Q-27.5912 -15.2656 -27.8725 -15.4062 L-27.8725 -16.0625 Q-27.2475 -15.7344 -26.5443 -15.7344 Q-25.9193 -15.7344 -25.5443 -16.0312 Q-25.1693 -16.3281 -25.1693 -16.8438 Q-25.1693 -17.1562 -25.3725 -17.3828 Q-25.5756 -17.6094 -26.1381 -17.9375 Q-26.7318 -18.2656 -26.9584 -18.5938 Q-27.185 -18.9219 -27.185 -19.375 Q-27.185 -20.1094 -26.6693 -20.5703 Q-26.1537 -21.0312 -25.31 -21.0312 Q-24.935 -21.0312 -24.599 -20.9531 Q-24.2631 -20.875 -23.8881 -20.7031 L-24.1537 -20.1094 Q-24.4037 -20.2656 -24.724 -20.3516 Q-25.0443 -20.4375 -25.31 -20.4375 Q-25.8412 -20.4375 -26.1615 -20.1641 Q-26.4818 -19.8906 -26.4818 -19.4219 Q-26.4818 -19.2188 -26.4115 -19.0703 Q-26.3412 -18.9219 -26.2006 -18.7891 Q-26.06 -18.6562 -25.6381 -18.4062 Q-25.0756 -18.0625 -24.8725 -17.8672 Q-24.6693 -17.6719 -24.5678 -17.4375 Q-24.4662 -17.2031 -24.4662 -16.8906 ZM-21.8717 -18.6094 Q-21.8717 -17.2812 -22.3483 -16.1484 Q-22.8249 -15.0156 -23.8405 -13.9688 L-24.4499 -13.9688 Q-22.5124 -16.125 -22.5124 -18.6094 Q-22.5124 -19.9375 -22.9499 -20.9531 L-22.4342 -20.9531 Q-21.8717 -19.8906 -21.8717 -18.6094 Z"/></g><g transform="translate(55,26)" style="stroke-linecap:butt; fill:rgb(230,0,0); text-rendering:geometricPrecision; color-rendering:optimizeQuality; image-rendering:optimizeQuality; font-family:'Open Sans'; stroke:rgb(230,0,0); color-interpolation:linearRGB; stroke-miterlimit:5;"><path style="stroke:none;" d="M29.9175 -7.5703 Q29.9175 -5.5078 28.8784 -4.3281 Q27.8394 -3.1484 25.9956 -3.1484 Q24.105 -3.1484 23.0737 -4.3125 Q22.0425 -5.4766 22.0425 -7.5859 Q22.0425 -9.6797 23.0737 -10.8281 Q24.105 -11.9766 25.9956 -11.9766 Q27.855 -11.9766 28.8862 -10.8047 Q29.9175 -9.6328 29.9175 -7.5703 ZM23.0894 -7.5703 Q23.0894 -5.8359 23.8316 -4.9297 Q24.5737 -4.0234 25.9956 -4.0234 Q27.4175 -4.0234 28.1441 -4.9219 Q28.8706 -5.8203 28.8706 -7.5703 Q28.8706 -9.3047 28.1441 -10.1953 Q27.4175 -11.0859 25.9956 -11.0859 Q24.5737 -11.0859 23.8316 -10.1875 Q23.0894 -9.2891 23.0894 -7.5703 Z"/><path style="fill:rgb(0,5,255); stroke:none;" d="M-22.6284 26.6562 L-23.7691 26.6562 L-28.4566 19.4688 L-28.5034 19.4688 Q-28.4097 20.7344 -28.4097 21.7812 L-28.4097 26.6562 L-29.3316 26.6562 L-29.3316 18.0938 L-28.2066 18.0938 L-23.5347 25.25 L-23.4878 25.25 Q-23.4878 25.0938 -23.5347 24.2344 Q-23.5816 23.375 -23.5659 23 L-23.5659 18.0938 L-22.6284 18.0938 L-22.6284 26.6562 Z"/><path style="fill:rgb(0,5,255); stroke:none;" d="M-15.1128 26.6562 L-16.1128 26.6562 L-16.1128 22.625 L-20.6284 22.625 L-20.6284 26.6562 L-21.6284 26.6562 L-21.6284 18.0938 L-20.6284 18.0938 L-20.6284 21.7344 L-16.1128 21.7344 L-16.1128 18.0938 L-15.1128 18.0938 L-15.1128 26.6562 Z"/><path style="fill:rgb(0,5,255); stroke:none;" d="M-10.3628 28.4656 L-14.1128 28.4656 L-14.1128 27.9031 L-12.6128 26.3875 Q-11.9253 25.7 -11.7066 25.4031 Q-11.4878 25.1063 -11.3784 24.825 Q-11.2691 24.5438 -11.2691 24.2156 Q-11.2691 23.7625 -11.5425 23.4969 Q-11.8159 23.2313 -12.3159 23.2313 Q-12.6597 23.2313 -12.98 23.3484 Q-13.3003 23.4656 -13.6909 23.7625 L-14.0347 23.325 Q-13.2534 22.6688 -12.3159 22.6688 Q-11.5191 22.6688 -11.0581 23.0828 Q-10.5972 23.4969 -10.5972 24.1844 Q-10.5972 24.7313 -10.9019 25.2625 Q-11.2066 25.7938 -12.0503 26.6063 L-13.3003 27.825 L-13.3003 27.8563 L-10.3628 27.8563 L-10.3628 28.4656 Z"/></g></g></svg></svg></svg></svg>