<svg width="184" viewBox="0 0 184 107" style="fill-opacity:1; color-rendering:auto; color-interpolation:auto; text-rendering:auto; stroke:black; stroke-linecap:square; stroke-miterlimit:10; shape-rendering:auto; stroke-opacity:1; fill:black; stroke-dasharray:none; font-weight:normal; stroke-width:1; font-family:'Open Sans'; font-style:normal; stroke-linejoin:miter; font-size:12; stroke-dashoffset:0; image-rendering:auto;" height="107" class="cas-substance-image" xmlns:xlink="http://www.w3.org/1999/xlink" xmlns="http://www.w3.org/2000/svg"><svg class="cas-substance-single-component"><rect y="0" x="0" width="184" stroke="none" ry="7" rx="7" height="107" fill="white" class="cas-substance-group"/><svg y="0" x="0" width="184" viewBox="0 0 184 92" style="fill:black;" height="92" class="cas-substance-single-component-image"><svg><g><g transform="translate(92,44)" style="text-rendering:geometricPrecision; color-rendering:optimizeQuality; color-interpolation:linearRGB; stroke-linecap:butt; image-rendering:optimizeQuality;"><line y2="-4.464" y1="10.536" x2="10.749" x1="-15.231" style="fill:none;"/><line y2="34.0594" y1="9.5256" x2="-16.981" x1="-16.981" style="fill:none;"/><line y2="34.0594" y1="9.5256" x2="-13.481" x1="-13.481" style="fill:none;"/><line y2="-4.464" y1="10.536" x2="-41.211" x1="-15.231" style="fill:none;"/><line y2="10.536" y1="-4.464" x2="36.732" x1="10.749" style="fill:none;"/><line y2="-1.5289" y1="10.536" x2="57.6284" x1="36.732" style="fill:none;"/><line y2="10.536" y1="-1.5289" x2="88.692" x1="67.7956" style="fill:none;"/><line y2="-34.464" y1="-10.8703" x2="62.712" x1="62.712" style="fill:none;"/><line y2="7.74" y1="-4.464" x2="-68.619" x1="-41.211" style="fill:none;"/><line y2="3.7207" y1="-6.8394" x2="-68.1967" x1="-44.4807" style="fill:none;"/><line y2="-27.9662" y1="-4.464" x2="-43.6829" x1="-41.211" style="fill:none;"/><line y2="-14.556" y1="7.74" x2="-88.692" x1="-68.619" style="fill:none;"/><line y2="-40.536" y1="-35.2746" x2="-73.692" x1="-48.9389" style="fill:none;"/><line y2="-40.536" y1="-14.556" x2="-73.692" x1="-88.692" style="fill:none;"/><line y2="-37.036" y1="-14.5559" x2="-71.6713" x1="-84.6506" style="fill:none;"/><path style="fill:none; stroke-miterlimit:5;" d="M-14.798 10.286 L-15.231 10.536 L-15.664 10.286"/><path style="fill:none; stroke-miterlimit:5;" d="M10.316 -4.214 L10.749 -4.464 L11.182 -4.214"/></g><g transform="translate(92,44)" style="stroke-linecap:butt; fill:rgb(230,0,0); text-rendering:geometricPrecision; color-rendering:optimizeQuality; image-rendering:optimizeQuality; font-family:'Open Sans'; stroke:rgb(230,0,0); color-interpolation:linearRGB; stroke-miterlimit:5;"><path style="stroke:none;" d="M-11.2935 40.4657 Q-11.2935 42.5282 -12.3326 43.7079 Q-13.3716 44.8876 -15.2154 44.8876 Q-17.106 44.8876 -18.1373 43.7235 Q-19.1685 42.5594 -19.1685 40.4501 Q-19.1685 38.3563 -18.1373 37.2079 Q-17.106 36.0594 -15.2154 36.0594 Q-13.356 36.0594 -12.3248 37.2313 Q-11.2935 38.4032 -11.2935 40.4657 ZM-18.1216 40.4657 Q-18.1216 42.2001 -17.3794 43.1063 Q-16.6373 44.0126 -15.2154 44.0126 Q-13.7935 44.0126 -13.0669 43.1141 Q-12.3404 42.2157 -12.3404 40.4657 Q-12.3404 38.7313 -13.0669 37.8407 Q-13.7935 36.9501 -15.2154 36.9501 Q-16.6373 36.9501 -17.3794 37.8485 Q-18.1216 38.7469 -18.1216 40.4657 Z"/><path style="fill:none; stroke:black;" d="M36.299 10.286 L36.732 10.536 L37.165 10.286"/><path style="fill:rgb(0,5,255); stroke:none;" d="M66.0636 -0.3078 L64.9229 -0.3078 L60.2354 -7.4953 L60.1886 -7.4953 Q60.2823 -6.2296 60.2823 -5.1828 L60.2823 -0.3078 L59.3604 -0.3078 L59.3604 -8.8703 L60.4854 -8.8703 L65.1573 -1.714 L65.2042 -1.714 Q65.2042 -1.8703 65.1573 -2.7296 Q65.1104 -3.589 65.1261 -3.964 L65.1261 -8.8703 L66.0636 -8.8703 L66.0636 -0.3078 Z"/><path style="fill:none; stroke:black;" d="M-41.6678 -4.2606 L-41.211 -4.464 L-40.778 -4.214"/><path style="fill:none; stroke:black;" d="M-68.1622 7.5366 L-68.619 7.74 L-68.9535 7.3684"/><path style="fill:rgb(148,108,0); stroke:none;" d="M-41.6537 -32.3615 Q-41.6537 -31.2365 -42.474 -30.5959 Q-43.2943 -29.9553 -44.7006 -29.9553 Q-46.2318 -29.9553 -47.0443 -30.3615 L-47.0443 -31.3146 Q-46.5131 -31.0959 -45.8959 -30.9631 Q-45.2787 -30.8303 -44.6693 -30.8303 Q-43.6693 -30.8303 -43.1693 -31.2131 Q-42.6693 -31.5959 -42.6693 -32.2678 Q-42.6693 -32.7053 -42.849 -32.9943 Q-43.0287 -33.2834 -43.4427 -33.5256 Q-43.8568 -33.7678 -44.7162 -34.0646 Q-45.9037 -34.4865 -46.4193 -35.0724 Q-46.9349 -35.6584 -46.9349 -36.6115 Q-46.9349 -37.5959 -46.1927 -38.1818 Q-45.4506 -38.7678 -44.2162 -38.7678 Q-42.9506 -38.7678 -41.8724 -38.299 L-42.1849 -37.4396 Q-43.2474 -37.8771 -44.2474 -37.8771 Q-45.0443 -37.8771 -45.4896 -37.5412 Q-45.9349 -37.2053 -45.9349 -36.5959 Q-45.9349 -36.1584 -45.7709 -35.8693 Q-45.6068 -35.5803 -45.2162 -35.3459 Q-44.8256 -35.1115 -44.0131 -34.8146 Q-42.6693 -34.3459 -42.1615 -33.7912 Q-41.6537 -33.2365 -41.6537 -32.3615 Z"/><path style="fill:none; stroke:black;" d="M-88.3575 -14.1844 L-88.692 -14.556 L-88.442 -14.989"/><path style="fill:none; stroke:black;" d="M-73.2029 -40.432 L-73.692 -40.536 L-73.942 -40.103"/></g></g></svg></svg><svg y="92" x="84" class="cas-substance-saf"><svg y="5" x="0" width="4" style="fill:black;" height="4" class="cas-substance-saf-dot"><circle stroke="none" r="2" fill="black" cy="2" cx="2"/></svg><svg y="0" x="8" width="22" style="fill:black;" height="15" class="cas-substance-saf-image"><svg><g><g transform="translate(6,8)" style="fill:rgb(0,138,0); text-rendering:geometricPrecision; color-rendering:optimizeQuality; image-rendering:optimizeQuality; font-family:'Open Sans'; stroke:rgb(0,138,0); color-interpolation:linearRGB;"><path style="stroke:none;" d="M3.2578 4.1562 L2.2578 4.1562 L2.2578 0.125 L-2.2578 0.125 L-2.2578 4.1562 L-3.2578 4.1562 L-3.2578 -4.4062 L-2.2578 -4.4062 L-2.2578 -0.7656 L2.2578 -0.7656 L2.2578 -4.4062 L3.2578 -4.4062 L3.2578 4.1562 Z"/><path style="stroke:none;" d="M8.3672 -3.6406 Q6.9609 -3.6406 6.1406 -2.7031 Q5.3203 -1.7656 5.3203 -0.125 Q5.3203 1.5469 6.1094 2.4688 Q6.8984 3.3906 8.3516 3.3906 Q9.2578 3.3906 10.3984 3.0625 L10.3984 3.9375 Q9.5078 4.2812 8.2109 4.2812 Q6.3203 4.2812 5.2891 3.125 Q4.2578 1.9688 4.2578 -0.1406 Q4.2578 -1.4688 4.75 -2.4609 Q5.2422 -3.4531 6.1797 -3.9922 Q7.1172 -4.5312 8.3828 -4.5312 Q9.7266 -4.5312 10.7422 -4.0469 L10.3203 -3.1875 Q9.3359 -3.6406 8.3672 -3.6406 ZM13.0938 4.1562 L12.125 4.1562 L12.125 -4.9688 L13.0938 -4.9688 L13.0938 4.1562 Z"/></g></g></svg></svg></svg></svg></svg>