<svg xmlns:ns0="http://www.w3.org/2000/svg" xmlns="http://www.w3.org/2000/svg"><g transform="translate(0, 0)"><ns0:svg width="308" viewBox="0 0 308 171" style="fill-opacity:1; color-rendering:auto; color-interpolation:auto; text-rendering:auto; stroke:black; stroke-linecap:square; stroke-miterlimit:10; shape-rendering:auto; stroke-opacity:1; fill:black; stroke-dasharray:none; font-weight:normal; stroke-width:1; font-family:'Open Sans'; font-style:normal; stroke-linejoin:miter; font-size:12; stroke-dashoffset:0; image-rendering:auto;" height="171" class="cas-substance-image"><ns0:svg class="cas-substance-single-component"><ns0:rect y="0" x="0" width="308" stroke="none" ry="7" rx="7" height="171" fill="white" class="cas-substance-group" /><ns0:svg y="0" x="0" width="308" viewBox="0 0 308 171" style="fill:black;" height="171" class="cas-substance-single-component-image"><ns0:svg><ns0:g><ns0:g transform="translate(154,85)" style="text-rendering:geometricPrecision; color-rendering:optimizeQuality; color-interpolation:linearRGB; stroke-linecap:butt; image-rendering:optimizeQuality;"><ns0:line y2="21.105" y1="18.5903" x2="-151.008" x1="-127.0965" style="fill:none;" /><ns0:line y2="-9.438" y1="11.7524" x2="-108.969" x1="-118.4032" style="fill:none;" /><ns0:line y2="7.5" y1="-7.5" x2="99.045" x1="73.065" style="fill:none;" /><ns0:line y2="-37.5" y1="-7.5" x2="73.065" x1="73.065" style="fill:none;" /><ns0:line y2="-35.4793" y1="-9.5207" x2="69.565" x1="69.565" style="fill:none;" /></ns0:g><ns0:g transform="translate(154,85)" style="stroke-linecap:butt; font-size:8.4px; fill:gray; text-rendering:geometricPrecision; image-rendering:optimizeQuality; color-rendering:optimizeQuality; font-family:'Open Sans'; font-style:italic; stroke:gray; color-interpolation:linearRGB;"><ns0:path style="stroke:none;" d="M78.9176 -21.3359 Q78.9176 -22.6641 79.3864 -23.7891 Q79.8551 -24.9141 80.8864 -25.9922 L81.4958 -25.9922 Q80.527 -24.9297 80.0426 -23.7578 Q79.5583 -22.5859 79.5583 -21.3516 Q79.5583 -20.0234 79.9958 -19.0078 L79.4801 -19.0078 Q78.9176 -20.0391 78.9176 -21.3359 ZM84.1808 -20.2734 L81.3214 -20.2734 L82.5246 -25.9922 L85.3996 -25.9922 L85.2746 -25.3828 L83.0558 -25.3828 L82.6808 -23.5547 L84.7277 -23.5547 L84.6183 -22.9609 L82.5558 -22.9609 L82.1027 -20.8672 L84.3214 -20.8672 L84.1808 -20.2734 ZM87.2124 -23.6484 Q87.2124 -22.3203 86.7358 -21.1875 Q86.2592 -20.0547 85.2436 -19.0078 L84.6342 -19.0078 Q86.5717 -21.1641 86.5717 -23.6484 Q86.5717 -24.9766 86.1342 -25.9922 L86.6499 -25.9922 Q87.2124 -24.9297 87.2124 -23.6484 Z" /><ns0:path style="fill:black; stroke:none;" d="M70.8153 -9.4176 L69.9884 -8.8492 L69.9884 -8.8492 L72.6927 -4.1597 L73.5983 -4.5916 L70.8153 -9.4176 ZM68.3346 -7.7123 L67.5077 -7.1439 L69.9757 -2.8641 L70.8814 -3.296 L68.3346 -7.7123 ZM65.8538 -6.007 L65.0269 -5.4386 L67.2588 -1.5684 L68.1644 -2.0003 L65.8538 -6.007 ZM63.3731 -4.3017 L62.5462 -3.7333 L64.5418 -0.2727 L65.4475 -0.7046 L63.3731 -4.3017 ZM60.8924 -2.5964 L60.0655 -2.028 L60.0655 -2.028 L61.8249 1.023 L62.7305 0.5911 L60.8924 -2.5964 ZM58.4117 -0.8911 L57.5848 -0.3226 L57.5848 -0.3226 L59.1079 2.3187 L60.0136 1.8868 L60.0136 1.8868 L58.4117 -0.8911 ZM55.9309 0.8142 L55.104 1.3827 L56.391 3.6143 L57.2966 3.1824 L55.9309 0.8142 ZM53.4502 2.5195 L52.6233 3.088 L52.6233 3.088 L53.674 4.91 L54.5797 4.4781 L53.4502 2.5195 ZM50.9695 4.2248 L50.1426 4.7933 L50.1426 4.7933 L50.9571 6.2057 L51.8627 5.7738 L51.8627 5.7738 L50.9695 4.2248 ZM48.4888 5.9302 L47.6618 6.4986 L47.6618 6.4986 L48.2401 7.5014 L48.2401 7.5014 L49.1458 7.0695 L48.4888 5.9302 Z" /><ns0:line y2="-4.3112" y1="7.5" x2="119.502" x1="99.045" style="fill:none; stroke:black;" /><ns0:line y2="31.0234" y1="6.4896" x2="97.295" x1="97.295" style="fill:none; stroke:black;" /><ns0:line y2="31.0234" y1="6.4896" x2="100.795" x1="100.795" style="fill:none; stroke:black;" /><ns0:line y2="-49.3214" y1="-37.5" x2="52.5904" x1="73.065" style="fill:none; stroke:black;" /><ns0:line y2="7.5" y1="-4.3216" x2="151.008" x1="130.5305" style="fill:none; stroke:black;" /><ns0:line y2="-82.5" y1="-58.9766" x2="47.085" x1="47.085" style="fill:none; stroke:black;" /><ns0:line y2="82.5" y1="52.5" x2="73.065" x1="73.065" style="fill:none; stroke:black;" /><ns0:path style="fill:black; stroke:none;" d="M48.2449 37.4903 L47.6618 38.5014 L48.4888 39.0698 L49.1554 37.9138 L48.2449 37.4903 ZM50.9764 38.7608 L50.1426 40.2067 L50.9695 40.7752 L50.9695 40.7752 L51.8868 39.1844 L51.8868 39.1844 L50.9764 38.7608 ZM53.7078 40.0314 L52.6233 41.912 L52.6233 41.912 L53.4502 42.4805 L53.4502 42.4805 L54.6183 40.455 L53.7078 40.0314 ZM56.4392 41.302 L55.104 43.6173 L55.104 43.6173 L55.9309 44.1858 L57.3497 41.7255 L57.3497 41.7255 L56.4392 41.302 ZM59.1706 42.5726 L57.5848 45.3226 L57.5848 45.3226 L58.4117 45.8911 L60.0811 42.9961 L59.1706 42.5726 ZM61.902 43.8432 L60.0655 47.028 L60.0655 47.028 L60.8924 47.5964 L60.8924 47.5964 L62.8125 44.2667 L62.8125 44.2667 L61.902 43.8432 ZM64.6335 45.1138 L62.5462 48.7333 L62.5462 48.7333 L63.3731 49.3017 L63.3731 49.3017 L65.5439 45.5373 L65.5439 45.5373 L64.6335 45.1138 ZM67.3649 46.3843 L65.0269 50.4386 L65.0269 50.4386 L65.8538 51.007 L65.8538 51.007 L68.2754 46.8079 L67.3649 46.3843 ZM70.0963 47.6549 L67.5077 52.1439 L67.5077 52.1439 L68.3346 52.7123 L71.0068 48.0785 L71.0068 48.0785 L70.0963 47.6549 ZM72.8277 48.9255 L69.9884 53.8492 L70.8153 54.4176 L70.8153 54.4176 L73.065 50.5164 L73.065 49.0359 L73.065 49.0359 L72.8277 48.9255 Z" /><ns0:line y2="7.5" y1="-7.5" x2="-56.838" x1="-30.858" style="fill:none; stroke:black;" /><ns0:line y2="3.4585" y1="-9.5207" x2="-56.8381" x1="-34.358" style="fill:none; stroke:black;" /><ns0:line y2="7.5" y1="-7.5" x2="-4.878" x1="-30.858" style="fill:none; stroke:black;" /><ns0:line y2="-30.7305" y1="-7.5" x2="-35.7957" x1="-30.858" style="fill:none; stroke:black;" /><ns0:line y2="-12.573" y1="7.5" x2="-79.134" x1="-56.838" style="fill:none; stroke:black;" /><ns0:line y2="37.5" y1="7.5" x2="-56.838" x1="-56.838" style="fill:none; stroke:black;" /><ns0:line y2="31.0938" y1="7.5" x2="-4.878" x1="-4.878" style="fill:none; stroke:black;" /><ns0:line y2="-7.5" y1="7.5" x2="21.102" x1="-4.878" style="fill:none; stroke:black;" /><ns0:line y2="-39.981" y1="-37.4047" x2="-66.93" x1="-42.4356" style="fill:none; stroke:black;" /><ns0:line y2="-39.981" y1="-12.573" x2="-66.93" x1="-79.134" style="fill:none; stroke:black;" /><ns0:line y2="-9.438" y1="-12.573" x2="-108.969" x1="-79.134" style="fill:none; stroke:black;" /><ns0:line y2="-13.13" y1="-15.8427" x2="-107.3251" x1="-81.5094" style="fill:none; stroke:black;" /><ns0:line y2="52.5" y1="37.5" x2="-30.858" x1="-56.838" style="fill:none; stroke:black;" /><ns0:line y2="52.5" y1="40.4351" x2="-30.858" x1="-9.9616" style="fill:none; stroke:black;" /><ns0:line y2="52.5" y1="40.4351" x2="21.102" x1="0.2056" style="fill:none; stroke:black;" /><ns0:line y2="7.5" y1="-7.5" x2="47.085" x1="21.102" style="fill:none; stroke:black;" /><ns0:line y2="-64.251" y1="-39.981" x2="-84.564" x1="-66.93" style="fill:none; stroke:black;" /><ns0:line y2="-60.5589" y1="-39.5585" x2="-86.2077" x1="-70.9493" style="fill:none; stroke:black;" /><ns0:line y2="-33.708" y1="-9.438" x2="-126.603" x1="-108.969" style="fill:none; stroke:black;" /><ns0:line y2="37.5" y1="52.5" x2="47.085" x1="21.102" style="fill:none; stroke:black;" /><ns0:line y2="37.5" y1="7.5" x2="47.085" x1="47.085" style="fill:none; stroke:black;" /><ns0:line y2="-61.116" y1="-64.251" x2="-114.402" x1="-84.564" style="fill:none; stroke:black;" /><ns0:line y2="-61.116" y1="-33.708" x2="-114.402" x1="-126.603" style="fill:none; stroke:black;" /><ns0:line y2="-57.8465" y1="-34.1307" x2="-112.0263" x1="-122.5837" style="fill:none; stroke:black;" /><ns0:path style="fill:black; stroke:none;" d="M-4.378 7.5 L-5.378 7.5 L-7.878 -16.3438 L-1.878 -16.3438 Z" /></ns0:g><ns0:g transform="translate(154,85)" style="fill:rgb(230,0,0); text-rendering:geometricPrecision; color-rendering:optimizeQuality; image-rendering:optimizeQuality; font-family:'Open Sans'; stroke:rgb(230,0,0); color-interpolation:linearRGB;"><ns0:path style="stroke:none;" d="M-117.2325 17.8967 Q-117.2325 19.9592 -118.2716 21.1389 Q-119.3106 22.3186 -121.1544 22.3186 Q-123.045 22.3186 -124.0762 21.1545 Q-125.1075 19.9904 -125.1075 17.8811 Q-125.1075 15.7873 -124.0762 14.6389 Q-123.045 13.4904 -121.1544 13.4904 Q-119.295 13.4904 -118.2637 14.6623 Q-117.2325 15.8342 -117.2325 17.8967 ZM-124.0606 17.8967 Q-124.0606 19.6311 -123.3184 20.5373 Q-122.5762 21.4436 -121.1544 21.4436 Q-119.7325 21.4436 -119.0059 20.5451 Q-118.2794 19.6467 -118.2794 17.8967 Q-118.2794 16.1623 -119.0059 15.2717 Q-119.7325 14.3811 -121.1544 14.3811 Q-122.5762 14.3811 -123.3184 15.2795 Q-124.0606 16.1779 -124.0606 17.8967 Z" /></ns0:g><ns0:g transform="translate(154,85)" style="stroke-linecap:butt; text-rendering:geometricPrecision; color-rendering:optimizeQuality; image-rendering:optimizeQuality; font-family:'Open Sans'; color-interpolation:linearRGB; stroke-miterlimit:5;"><ns0:path style="fill:none;" d="M73.498 -7.25 L73.065 -7.5 L73.065 -8" /><ns0:path style="fill:none;" d="M98.612 7.25 L99.045 7.5 L99.478 7.25" /><ns0:path style="fill:none;" d="M73.065 -37 L73.065 -37.5 L72.632 -37.75" /><ns0:path style="fill:rgb(230,0,0); stroke:none;" d="M128.9625 -7.5703 Q128.9625 -5.5078 127.9234 -4.3281 Q126.8844 -3.1484 125.0406 -3.1484 Q123.15 -3.1484 122.1188 -4.3125 Q121.0875 -5.4766 121.0875 -7.5859 Q121.0875 -9.6797 122.1188 -10.8281 Q123.15 -11.9766 125.0406 -11.9766 Q126.9 -11.9766 127.9313 -10.8047 Q128.9625 -9.6328 128.9625 -7.5703 ZM122.1344 -7.5703 Q122.1344 -5.8359 122.8766 -4.9297 Q123.6188 -4.0234 125.0406 -4.0234 Q126.4625 -4.0234 127.1891 -4.9219 Q127.9156 -5.8203 127.9156 -7.5703 Q127.9156 -9.3047 127.1891 -10.1953 Q126.4625 -11.0859 125.0406 -11.0859 Q123.6188 -11.0859 122.8766 -10.1875 Q122.1344 -9.2891 122.1344 -7.5703 Z" /><ns0:path style="fill:rgb(230,0,0); stroke:none;" d="M102.9825 37.4297 Q102.9825 39.4922 101.9434 40.6719 Q100.9044 41.8516 99.0606 41.8516 Q97.17 41.8516 96.1388 40.6875 Q95.1075 39.5234 95.1075 37.4141 Q95.1075 35.3203 96.1388 34.1719 Q97.17 33.0234 99.0606 33.0234 Q100.92 33.0234 101.9513 34.1953 Q102.9825 35.3672 102.9825 37.4297 ZM96.1544 37.4297 Q96.1544 39.1641 96.8966 40.0703 Q97.6388 40.9766 99.0606 40.9766 Q100.4825 40.9766 101.2091 40.0781 Q101.9356 39.1797 101.9356 37.4297 Q101.9356 35.6953 101.2091 34.8047 Q100.4825 33.9141 99.0606 33.9141 Q97.6388 33.9141 96.8966 34.8125 Q96.1544 35.7109 96.1544 37.4297 Z" /><ns0:path style="fill:rgb(230,0,0); stroke:none;" d="M51.0225 -52.5703 Q51.0225 -50.5078 49.9834 -49.3281 Q48.9444 -48.1484 47.1006 -48.1484 Q45.21 -48.1484 44.1787 -49.3125 Q43.1475 -50.4766 43.1475 -52.5859 Q43.1475 -54.6797 44.1787 -55.8281 Q45.21 -56.9766 47.1006 -56.9766 Q48.96 -56.9766 49.9912 -55.8047 Q51.0225 -54.6328 51.0225 -52.5703 ZM44.1944 -52.5703 Q44.1944 -50.8359 44.9366 -49.9297 Q45.6787 -49.0234 47.1006 -49.0234 Q48.5225 -49.0234 49.2491 -49.9219 Q49.9756 -50.8203 49.9756 -52.5703 Q49.9756 -54.3047 49.2491 -55.1953 Q48.5225 -56.0859 47.1006 -56.0859 Q45.6787 -56.0859 44.9366 -55.1875 Q44.1944 -54.2891 44.1944 -52.5703 Z" /><ns0:path style="fill:none;" d="M-31.291 -7.25 L-30.858 -7.5 L-30.962 -7.9891" /><ns0:path style="fill:none;" d="M-56.405 7.25 L-56.838 7.5 L-57.2096 7.1655" /></ns0:g><ns0:g transform="translate(154,85)" style="stroke-linecap:butt; font-size:8.4px; fill:gray; text-rendering:geometricPrecision; image-rendering:optimizeQuality; color-rendering:optimizeQuality; font-family:'Open Sans'; font-style:italic; stroke:gray; color-interpolation:linearRGB; stroke-miterlimit:5;"><ns0:path style="stroke:none;" d="M-0.3262 13.7031 Q-0.3262 12.3749 0.1425 11.2499 Q0.6113 10.1249 1.6425 9.0468 L2.2519 9.0468 Q1.2831 10.1093 0.7988 11.2812 Q0.3144 12.4531 0.3144 13.6874 Q0.3144 15.0156 0.7519 16.0312 L0.2363 16.0312 Q-0.3262 14.9999 -0.3262 13.7031 ZM5.2963 13.1093 Q5.2963 13.9374 4.7494 14.3906 Q4.2026 14.8437 3.2026 14.8437 Q2.7963 14.8437 2.4838 14.789 Q2.1713 14.7343 1.8901 14.5937 L1.8901 13.9374 Q2.5151 14.2656 3.2182 14.2656 Q3.8432 14.2656 4.2182 13.9687 Q4.5932 13.6718 4.5932 13.1562 Q4.5932 12.8437 4.3901 12.6171 Q4.1869 12.3906 3.6244 12.0624 Q3.0307 11.7343 2.8041 11.4062 Q2.5776 11.0781 2.5776 10.6249 Q2.5776 9.8906 3.0932 9.4296 Q3.6088 8.9687 4.4526 8.9687 Q4.8276 8.9687 5.1635 9.0468 Q5.4994 9.1249 5.8744 9.2968 L5.6088 9.8906 Q5.3588 9.7343 5.0385 9.6484 Q4.7182 9.5624 4.4526 9.5624 Q3.9213 9.5624 3.601 9.8359 Q3.2807 10.1093 3.2807 10.5781 Q3.2807 10.7812 3.351 10.9296 Q3.4213 11.0781 3.5619 11.2109 Q3.7026 11.3437 4.1244 11.5937 Q4.6869 11.9374 4.8901 12.1328 Q5.0932 12.3281 5.1948 12.5624 Q5.2963 12.7968 5.2963 13.1093 ZM7.8908 11.3906 Q7.8908 12.7187 7.4142 13.8515 Q6.9377 14.9843 5.9221 16.0312 L5.3127 16.0312 Q7.2502 13.8749 7.2502 11.3906 Q7.2502 10.0624 6.8127 9.0468 L7.3283 9.0468 Q7.8908 10.1093 7.8908 11.3906 Z" /></ns0:g><ns0:g transform="translate(154,85)" style="stroke-linecap:butt; fill:rgb(0,5,255); text-rendering:geometricPrecision; color-rendering:optimizeQuality; image-rendering:optimizeQuality; font-family:'Open Sans'; stroke:rgb(0,5,255); color-interpolation:linearRGB; stroke-miterlimit:5;"><ns0:path style="stroke:none;" d="M-33.7434 -32.6867 L-34.8841 -32.6867 L-39.5716 -39.8742 L-39.6184 -39.8742 Q-39.5247 -38.6086 -39.5247 -37.5617 L-39.5247 -32.6867 L-40.4466 -32.6867 L-40.4466 -41.2492 L-39.3216 -41.2492 L-34.6497 -34.093 L-34.6028 -34.093 Q-34.6028 -34.2492 -34.6497 -35.1086 Q-34.6966 -35.968 -34.6809 -36.343 L-34.6809 -41.2492 L-33.7434 -41.2492 L-33.7434 -32.6867 Z" /><ns0:path style="stroke:none;" d="M-33.8372 -42.2492 L-34.8372 -42.2492 L-34.8372 -46.2805 L-39.3528 -46.2805 L-39.3528 -42.2492 L-40.3528 -42.2492 L-40.3528 -50.8117 L-39.3528 -50.8117 L-39.3528 -47.1711 L-34.8372 -47.1711 L-34.8372 -50.8117 L-33.8372 -50.8117 L-33.8372 -42.2492 Z" /><ns0:path style="fill:none; stroke:black;" d="M-79.6313 -12.5207 L-79.134 -12.573 L-78.7624 -12.2385" /><ns0:path style="fill:none; stroke:black;" d="M-56.838 37 L-56.838 37.5 L-56.405 37.75" /><ns0:path style="stroke:none;" d="M-1.5264 41.6562 L-2.6671 41.6562 L-7.3546 34.4688 L-7.4014 34.4688 Q-7.3077 35.7344 -7.3077 36.7812 L-7.3077 41.6562 L-8.2296 41.6562 L-8.2296 33.0938 L-7.1046 33.0938 L-2.4327 40.25 L-2.3858 40.25 Q-2.3858 40.0938 -2.4327 39.2344 Q-2.4796 38.375 -2.4639 38 L-2.4639 33.0938 L-1.5264 33.0938 L-1.5264 41.6562 Z" /><ns0:path style="fill:none; stroke:black;" d="M20.669 -7.25 L21.102 -7.5 L21.535 -7.25" /><ns0:path style="fill:none; stroke:black;" d="M-67.2239 -40.3855 L-66.93 -39.981 L-66.4327 -39.9287" /><ns0:path style="fill:none; stroke:black;" d="M-108.4717 -9.4903 L-108.969 -9.438 L-109.2629 -9.8425" /><ns0:path style="fill:none; stroke:black;" d="M-31.291 52.25 L-30.858 52.5 L-30.425 52.25" /><ns0:path style="fill:none; stroke:black;" d="M20.669 52.25 L21.102 52.5 L21.535 52.25" /><ns0:path style="fill:none; stroke:black;" d="M46.652 7.25 L47.085 7.5 L47.085 8" /></ns0:g><ns0:g transform="translate(154,85)" style="stroke-linecap:butt; font-size:8.4px; fill:gray; text-rendering:geometricPrecision; image-rendering:optimizeQuality; color-rendering:optimizeQuality; font-family:'Open Sans'; font-style:italic; stroke:gray; color-interpolation:linearRGB; stroke-miterlimit:5;"><ns0:path style="stroke:none;" d="M42.9762 -1.2969 Q42.9762 -2.625 43.445 -3.75 Q43.9137 -4.875 44.945 -5.9531 L45.5544 -5.9531 Q44.5856 -4.8906 44.1012 -3.7188 Q43.6169 -2.5469 43.6169 -1.3125 Q43.6169 0.0156 44.0544 1.0312 L43.5387 1.0312 Q42.9762 0 42.9762 -1.2969 ZM48.5988 -1.8906 Q48.5988 -1.0625 48.0519 -0.6094 Q47.505 -0.1562 46.505 -0.1562 Q46.0988 -0.1562 45.7863 -0.2109 Q45.4738 -0.2656 45.1925 -0.4062 L45.1925 -1.0625 Q45.8175 -0.7344 46.5207 -0.7344 Q47.1457 -0.7344 47.5207 -1.0312 Q47.8957 -1.3281 47.8957 -1.8438 Q47.8957 -2.1562 47.6925 -2.3828 Q47.4894 -2.6094 46.9269 -2.9375 Q46.3332 -3.2656 46.1066 -3.5938 Q45.88 -3.9219 45.88 -4.375 Q45.88 -5.1094 46.3957 -5.5703 Q46.9113 -6.0312 47.755 -6.0312 Q48.13 -6.0312 48.466 -5.9531 Q48.8019 -5.875 49.1769 -5.7031 L48.9113 -5.1094 Q48.6613 -5.2656 48.341 -5.3516 Q48.0207 -5.4375 47.755 -5.4375 Q47.2238 -5.4375 46.9035 -5.1641 Q46.5832 -4.8906 46.5832 -4.4219 Q46.5832 -4.2188 46.6535 -4.0703 Q46.7238 -3.9219 46.8644 -3.7891 Q47.005 -3.6562 47.4269 -3.4062 Q47.9894 -3.0625 48.1925 -2.8672 Q48.3957 -2.6719 48.4972 -2.4375 Q48.5988 -2.2031 48.5988 -1.8906 ZM51.1933 -3.6094 Q51.1933 -2.2812 50.7167 -1.1484 Q50.2401 -0.0156 49.2245 1.0312 L48.6151 1.0312 Q50.5526 -1.125 50.5526 -3.6094 Q50.5526 -4.9375 50.1151 -5.9531 L50.6308 -5.9531 Q51.1933 -4.8906 51.1933 -3.6094 Z" /><ns0:path style="fill:none; stroke:black;" d="M-84.2701 -63.8465 L-84.564 -64.251 L-85.0613 -64.1988" /><ns0:path style="fill:none; stroke:black;" d="M-126.3091 -33.3035 L-126.603 -33.708 L-126.3997 -34.1648" /><ns0:path style="fill:none; stroke:black;" d="M46.652 37.75 L47.085 37.5 L47.085 37" /><ns0:path style="stroke:none;" d="M34.3162 33.7032 Q34.3162 32.3751 34.7849 31.2501 Q35.2537 30.1251 36.2849 29.047 L36.8943 29.047 Q35.9255 30.1095 35.4412 31.2814 Q34.9568 32.4532 34.9568 33.6876 Q34.9568 35.0157 35.3943 36.0314 L34.8787 36.0314 Q34.3162 35.0001 34.3162 33.7032 ZM39.9387 33.1095 Q39.9387 33.9376 39.3918 34.3907 Q38.845 34.8439 37.845 34.8439 Q37.4387 34.8439 37.1262 34.7892 Q36.8137 34.7345 36.5325 34.5939 L36.5325 33.9376 Q37.1575 34.2657 37.8606 34.2657 Q38.4856 34.2657 38.8606 33.9689 Q39.2356 33.672 39.2356 33.1564 Q39.2356 32.8439 39.0325 32.6173 Q38.8293 32.3907 38.2668 32.0626 Q37.6731 31.7345 37.4465 31.4064 Q37.22 31.0782 37.22 30.6251 Q37.22 29.8907 37.7356 29.4298 Q38.2512 28.9689 39.095 28.9689 Q39.47 28.9689 39.8059 29.047 Q40.1418 29.1251 40.5168 29.297 L40.2512 29.8907 Q40.0012 29.7345 39.6809 29.6485 Q39.3606 29.5626 39.095 29.5626 Q38.5637 29.5626 38.2434 29.836 Q37.9231 30.1095 37.9231 30.5782 Q37.9231 30.7814 37.9934 30.9298 Q38.0637 31.0782 38.2043 31.211 Q38.345 31.3439 38.7668 31.5939 Q39.3293 31.9376 39.5325 32.1329 Q39.7356 32.3282 39.8372 32.5626 Q39.9387 32.797 39.9387 33.1095 ZM42.5332 31.3907 Q42.5332 32.7189 42.0566 33.8517 Q41.5801 34.9845 40.5645 36.0314 L39.9551 36.0314 Q41.8926 33.8751 41.8926 31.3907 Q41.8926 30.0626 41.4551 29.047 L41.9707 29.047 Q42.5332 30.1095 42.5332 31.3907 Z" /><ns0:path style="fill:none; stroke:black;" d="M-113.9047 -61.1682 L-114.402 -61.116 L-114.6053 -60.6592" /></ns0:g><ns0:g transform="translate(154,85)" style="stroke-linecap:butt; text-rendering:geometricPrecision; color-rendering:optimizeQuality; image-rendering:optimizeQuality; font-family:'Open Sans'; color-interpolation:linearRGB; stroke-miterlimit:5;"><ns0:path style="stroke:none;" d="M-1.6202 -18.3438 L-2.6202 -18.3438 L-2.6202 -22.375 L-7.1358 -22.375 L-7.1358 -18.3438 L-8.1358 -18.3438 L-8.1358 -26.9062 L-7.1358 -26.9062 L-7.1358 -23.2656 L-2.6202 -23.2656 L-2.6202 -26.9062 L-1.6202 -26.9062 L-1.6202 -18.3438 Z" /></ns0:g></ns0:g></ns0:svg></ns0:svg></ns0:svg></ns0:svg></g></svg>