<svg xmlns:ns0="http://www.w3.org/2000/svg" xmlns="http://www.w3.org/2000/svg"><g transform="translate(0, 0)"><ns0:svg width="186" viewBox="0 0 186 93" style="fill-opacity:1; color-rendering:auto; color-interpolation:auto; text-rendering:auto; stroke:black; stroke-linecap:square; stroke-miterlimit:10; shape-rendering:auto; stroke-opacity:1; fill:black; stroke-dasharray:none; font-weight:normal; stroke-width:1; font-family:'Open Sans'; font-style:normal; stroke-linejoin:miter; font-size:12; stroke-dashoffset:0; image-rendering:auto;" height="93" class="cas-substance-image"><ns0:svg class="cas-substance-single-component"><ns0:rect y="0" x="0" width="186" stroke="none" ry="7" rx="7" height="93" fill="white" class="cas-substance-group" /><ns0:svg y="0" x="0" width="186" viewBox="0 0 186 93" style="fill:black;" height="93" class="cas-substance-single-component-image"><ns0:svg><ns0:g><ns0:g transform="translate(93,46)" style="text-rendering:geometricPrecision; color-rendering:optimizeQuality; color-interpolation:linearRGB; stroke-linecap:butt; image-rendering:optimizeQuality;"><ns0:line y2="-33.3343" y1="-12.99" x2="-56.7461" x1="-45" style="fill:none;" /><ns0:line y2="6.3933" y1="-14.74" x2="-58.212" x1="-46.0104" style="fill:none;" /><ns0:line y2="8.1433" y1="-12.99" x2="-55.181" x1="-42.9793" style="fill:none;" /><ns0:line y2="-12.99" y1="-12.99" x2="-15" x1="-45" style="fill:none;" /><ns0:line y2="-38.97" y1="-38.97" x2="-90" x1="-65.9375" style="fill:none;" /><ns0:line y2="12.99" y1="33.2483" x2="0" x1="-11.6965" style="fill:none;" /><ns0:line y2="-38.97" y1="-18.7117" x2="90" x1="78.3035" style="fill:none;" /><ns0:line y2="-12.99" y1="-12.99" x2="45" x1="69.0625" style="fill:none;" /><ns0:line y2="12.99" y1="-12.99" x2="0" x1="-15" style="fill:none;" /><ns0:line y2="9.49" y1="-12.9901" x2="2.0207" x1="-10.9585" style="fill:none;" /><ns0:line y2="-38.97" y1="-12.99" x2="0" x1="-15" style="fill:none;" /><ns0:line y2="12.99" y1="12.99" x2="30" x1="0" style="fill:none;" /><ns0:line y2="-38.97" y1="-38.97" x2="30" x1="0" style="fill:none;" /><ns0:line y2="-35.47" y1="-35.47" x2="27.9793" x1="2.0207" style="fill:none;" /><ns0:line y2="-12.99" y1="12.99" x2="45" x1="30" style="fill:none;" /><ns0:line y2="-12.9901" y1="9.49" x2="40.9585" x1="27.9793" style="fill:none;" /><ns0:line y2="-12.99" y1="-38.97" x2="45" x1="30" style="fill:none;" /><ns0:path style="fill:none; stroke-miterlimit:5;" d="M-45.25 -13.423 L-45 -12.99 L-44.5 -12.99" /></ns0:g><ns0:g transform="translate(93,46)" style="stroke-linecap:butt; fill:rgb(230,0,0); text-rendering:geometricPrecision; color-rendering:optimizeQuality; image-rendering:optimizeQuality; font-family:'Open Sans'; stroke:rgb(230,0,0); color-interpolation:linearRGB; stroke-miterlimit:5;"><ns0:path style="stroke:none;" d="M-56.0625 -39.0403 Q-56.0625 -36.9778 -57.1016 -35.7981 Q-58.1406 -34.6184 -59.9844 -34.6184 Q-61.875 -34.6184 -62.9062 -35.7825 Q-63.9375 -36.9466 -63.9375 -39.0559 Q-63.9375 -41.1497 -62.9062 -42.2981 Q-61.875 -43.4466 -59.9844 -43.4466 Q-58.125 -43.4466 -57.0938 -42.2747 Q-56.0625 -41.1028 -56.0625 -39.0403 ZM-62.8906 -39.0403 Q-62.8906 -37.3059 -62.1484 -36.3997 Q-61.4062 -35.4934 -59.9844 -35.4934 Q-58.5625 -35.4934 -57.8359 -36.3919 Q-57.1094 -37.2903 -57.1094 -39.0403 Q-57.1094 -40.7747 -57.8359 -41.6653 Q-58.5625 -42.5559 -59.9844 -42.5559 Q-61.4062 -42.5559 -62.1484 -41.6575 Q-62.8906 -40.7591 -62.8906 -39.0403 Z" /><ns0:path style="stroke:none;" d="M-56.0625 12.9197 Q-56.0625 14.9822 -57.1016 16.1619 Q-58.1406 17.3416 -59.9844 17.3416 Q-61.875 17.3416 -62.9062 16.1775 Q-63.9375 15.0134 -63.9375 12.9041 Q-63.9375 10.8103 -62.9062 9.6619 Q-61.875 8.5134 -59.9844 8.5134 Q-58.125 8.5134 -57.0938 9.6853 Q-56.0625 10.8572 -56.0625 12.9197 ZM-62.8906 12.9197 Q-62.8906 14.6541 -62.1484 15.5603 Q-61.4062 16.4666 -59.9844 16.4666 Q-58.5625 16.4666 -57.8359 15.5681 Q-57.1094 14.6697 -57.1094 12.9197 Q-57.1094 11.1853 -57.8359 10.2947 Q-58.5625 9.4041 -59.9844 9.4041 Q-61.4062 9.4041 -62.1484 10.3025 Q-62.8906 11.2009 -62.8906 12.9197 Z" /><ns0:path style="stroke:none;" d="M-11.0625 38.8997 Q-11.0625 40.9622 -12.1016 42.1419 Q-13.1406 43.3216 -14.9844 43.3216 Q-16.875 43.3216 -17.9062 42.1575 Q-18.9375 40.9934 -18.9375 38.8841 Q-18.9375 36.7903 -17.9062 35.6419 Q-16.875 34.4934 -14.9844 34.4934 Q-13.125 34.4934 -12.0938 35.6653 Q-11.0625 36.8372 -11.0625 38.8997 ZM-17.8906 38.8997 Q-17.8906 40.6341 -17.1484 41.5403 Q-16.4062 42.4466 -14.9844 42.4466 Q-13.5625 42.4466 -12.8359 41.5481 Q-12.1094 40.6497 -12.1094 38.8997 Q-12.1094 37.1653 -12.8359 36.2747 Q-13.5625 35.3841 -14.9844 35.3841 Q-16.4062 35.3841 -17.1484 36.2825 Q-17.8906 37.1809 -17.8906 38.8997 Z" /><ns0:path style="stroke:none;" d="M-19.9375 43.1966 L-20.9375 43.1966 L-20.9375 39.1653 L-25.4531 39.1653 L-25.4531 43.1966 L-26.4531 43.1966 L-26.4531 34.6341 L-25.4531 34.6341 L-25.4531 38.2747 L-20.9375 38.2747 L-20.9375 34.6341 L-19.9375 34.6341 L-19.9375 43.1966 Z" /><ns0:path style="stroke:none;" d="M78.9375 -13.0603 Q78.9375 -10.9978 77.8984 -9.8181 Q76.8594 -8.6384 75.0156 -8.6384 Q73.125 -8.6384 72.0938 -9.8025 Q71.0625 -10.9666 71.0625 -13.0759 Q71.0625 -15.1697 72.0938 -16.3181 Q73.125 -17.4666 75.0156 -17.4666 Q76.875 -17.4666 77.9062 -16.2947 Q78.9375 -15.1228 78.9375 -13.0603 ZM72.1094 -13.0603 Q72.1094 -11.3259 72.8516 -10.4197 Q73.5938 -9.5134 75.0156 -9.5134 Q76.4375 -9.5134 77.1641 -10.4119 Q77.8906 -11.3103 77.8906 -13.0603 Q77.8906 -14.7947 77.1641 -15.6853 Q76.4375 -16.5759 75.0156 -16.5759 Q73.5938 -16.5759 72.8516 -15.6775 Q72.1094 -14.7791 72.1094 -13.0603 Z" /><ns0:path style="fill:none; stroke:black;" d="M-14.75 -12.557 L-15 -12.99 L-15.5 -12.99" /><ns0:path style="fill:none; stroke:black;" d="M-0.25 12.557 L0 12.99 L-0.25 13.423" /><ns0:path style="fill:none; stroke:black;" d="M-0.25 -38.537 L0 -38.97 L0.5 -38.97" /><ns0:path style="fill:none; stroke:black;" d="M29.5 12.99 L30 12.99 L30.25 12.557" /><ns0:path style="fill:none; stroke:black;" d="M29.5 -38.97 L30 -38.97 L30.25 -38.537" /><ns0:path style="fill:none; stroke:black;" d="M44.75 -12.557 L45 -12.99 L45.5 -12.99" /></ns0:g></ns0:g></ns0:svg></ns0:svg></ns0:svg></ns0:svg></g></svg>