<svg xmlns:ns0="http://www.w3.org/2000/svg" xmlns="http://www.w3.org/2000/svg"><g transform="translate(0, 0)"><ns0:svg width="231" viewBox="0 0 231 189" style="fill-opacity:1; color-rendering:auto; color-interpolation:auto; text-rendering:auto; stroke:black; stroke-linecap:square; stroke-miterlimit:10; shape-rendering:auto; stroke-opacity:1; fill:black; stroke-dasharray:none; font-weight:normal; stroke-width:1; font-family:'Open Sans'; font-style:normal; stroke-linejoin:miter; font-size:12; stroke-dashoffset:0; image-rendering:auto;" height="189" class="cas-substance-image"><ns0:svg class="cas-substance-single-component"><ns0:rect y="0" x="0" width="231" stroke="none" ry="7" rx="7" height="189" fill="white" class="cas-substance-group" /><ns0:svg y="0" x="0" width="231" viewBox="0 0 231 189" style="fill:black;" height="189" class="cas-substance-single-component-image"><ns0:svg><ns0:g><ns0:g transform="translate(116,93)" style="text-rendering:geometricPrecision; color-rendering:optimizeQuality; color-interpolation:linearRGB; stroke-linecap:butt; image-rendering:optimizeQuality;"><ns0:line y2="14.283" y1="-15.261" x2="-93.684" x1="-88.476" style="fill:none;" /><ns0:line y2="-35.8855" y1="-16.6015" x2="-110.3311" x1="-87.3511" style="fill:none;" /><ns0:line y2="-33.2045" y1="-13.2709" x2="-112.5809" x1="-88.8268" style="fill:none;" /><ns0:path style="stroke:none;" d="M-61.4266 -25.7347 L-62.3964 -25.4757 L-61.9391 -24.2221 L-61.9391 -24.2221 L-61.0266 -24.6381 L-61.0266 -24.6381 L-61.4266 -25.7347 ZM-64.3359 -24.9578 L-65.3056 -24.6989 L-64.6765 -22.9741 L-64.6765 -22.9741 L-63.764 -23.3901 L-64.3359 -24.9578 ZM-67.2451 -24.181 L-68.2149 -23.9221 L-68.2149 -23.9221 L-67.4139 -21.726 L-66.5014 -22.142 L-66.5014 -22.142 L-67.2451 -24.181 ZM-70.1544 -23.4042 L-71.1242 -23.1452 L-70.1513 -20.478 L-70.1513 -20.478 L-69.2389 -20.894 L-70.1544 -23.4042 ZM-73.0637 -22.6274 L-74.0334 -22.3684 L-72.8887 -19.23 L-71.9763 -19.646 L-73.0637 -22.6274 ZM-75.973 -21.8505 L-76.9427 -21.5916 L-75.6262 -17.982 L-74.7137 -18.398 L-75.973 -21.8505 ZM-78.8822 -21.0737 L-79.852 -20.8147 L-79.852 -20.8147 L-78.3636 -16.734 L-77.4511 -17.15 L-78.8822 -21.0737 ZM-81.7915 -20.2969 L-82.7613 -20.0379 L-81.101 -15.486 L-81.101 -15.486 L-80.1885 -15.902 L-81.7915 -20.2969 ZM-84.7008 -19.52 L-85.6705 -19.2611 L-85.6705 -19.2611 L-83.8384 -14.238 L-83.8384 -14.238 L-82.9259 -14.654 L-84.7008 -19.52 ZM-87.6101 -18.7432 L-87.8746 -18.6726 L-88.1268 -17.2421 L-86.5758 -12.9899 L-85.6633 -13.4059 L-87.6101 -18.7432 Z" /><ns0:line y2="-14.76" y1="-14.76" x2="51.456" x1="21.456" style="fill:none;" /><ns0:line y2="11.22" y1="-14.76" x2="6.456" x1="21.456" style="fill:none;" /><ns0:line y2="-40.743" y1="-14.76" x2="66.456" x1="51.456" style="fill:none;" /><ns0:line y2="-40.743" y1="-40.743" x2="96.456" x1="66.456" style="fill:none;" /><ns0:line y2="-66.723" y1="-40.743" x2="111.456" x1="96.456" style="fill:none;" /><ns0:line y2="37.2" y1="37.2" x2="-38.544" x1="-62.6065" style="fill:none;" /><ns0:line y2="-67.95" y1="-89.163" x2="-17.859" x1="3.354" style="fill:none;" /><ns0:line y2="63.18" y1="83.4352" x2="6.456" x1="18.1493" style="fill:none;" /><ns0:line y2="-25.524" y1="-17.757" x2="-60.285" x1="-31.308" style="fill:none;" /><ns0:line y2="-38.97" y1="-17.757" x2="-10.095" x1="-31.308" style="fill:none;" /><ns0:path style="stroke:none;" d="M-31.791 -17.6276 L-30.825 -17.8864 L-20.4382 11.22 L-23.544 11.22 L-25.6654 14.8942 Z" /><ns0:line y2="-54.501" y1="-25.524" x2="-68.049" x1="-60.285" style="fill:none;" /><ns0:line y2="-67.95" y1="-38.97" x2="-17.859" x1="-10.095" style="fill:none;" /><ns0:line y2="-65.0924" y1="-40.0162" x2="-20.7168" x1="-13.9987" style="fill:none;" /><ns0:line y2="-75.714" y1="-54.501" x2="-46.836" x1="-68.049" style="fill:none;" /><ns0:line y2="-75.714" y1="-67.95" x2="-46.836" x1="-17.859" style="fill:none;" /><ns0:line y2="11.22" y1="11.22" x2="6.456" x1="-23.544" style="fill:none;" /><ns0:line y2="14.72" y1="14.72" x2="4.4353" x1="-21.5233" style="fill:none;" /><ns0:line y2="37.2" y1="11.22" x2="-38.544" x1="-23.544" style="fill:none;" /><ns0:line y2="37.2" y1="11.22" x2="21.456" x1="6.456" style="fill:none;" /><ns0:line y2="63.18" y1="37.2" x2="-23.544" x1="-38.544" style="fill:none;" /><ns0:line y2="59.68" y1="37.2" x2="-21.5233" x1="-34.5026" style="fill:none;" /><ns0:line y2="63.18" y1="37.2" x2="6.456" x1="21.456" style="fill:none;" /><ns0:line y2="59.68" y1="37.2" x2="4.4353" x1="17.4145" style="fill:none;" /><ns0:line y2="63.18" y1="63.18" x2="6.456" x1="-23.544" style="fill:none;" /><ns0:path style="fill:none; stroke-miterlimit:5;" d="M21.956 -14.76 L21.456 -14.76 L21.206 -14.327" /><ns0:path style="fill:none; stroke-miterlimit:5;" d="M50.956 -14.76 L51.456 -14.76 L51.706 -15.193" /><ns0:path style="fill:none; stroke-miterlimit:5;" d="M66.206 -40.31 L66.456 -40.743 L66.956 -40.743" /><ns0:path style="fill:none; stroke-miterlimit:5;" d="M95.956 -40.743 L96.456 -40.743 L96.706 -41.176" /></ns0:g><ns0:g transform="translate(116,93)" style="stroke-linecap:butt; fill:rgb(230,0,0); text-rendering:geometricPrecision; color-rendering:optimizeQuality; image-rendering:optimizeQuality; font-family:'Open Sans'; stroke:rgb(230,0,0); color-interpolation:linearRGB; stroke-miterlimit:5;"><ns0:path style="stroke:none;" d="M-64.6065 37.1297 Q-64.6065 39.1922 -65.6456 40.3719 Q-66.6846 41.5516 -68.5284 41.5516 Q-70.419 41.5516 -71.4502 40.3875 Q-72.4815 39.2234 -72.4815 37.1141 Q-72.4815 35.0203 -71.4502 33.8719 Q-70.419 32.7234 -68.5284 32.7234 Q-66.669 32.7234 -65.6377 33.8953 Q-64.6065 35.0672 -64.6065 37.1297 ZM-71.4346 37.1297 Q-71.4346 38.8641 -70.6924 39.7703 Q-69.9502 40.6766 -68.5284 40.6766 Q-67.1065 40.6766 -66.3799 39.7781 Q-65.6534 38.8797 -65.6534 37.1297 Q-65.6534 35.3953 -66.3799 34.5047 Q-67.1065 33.6141 -68.5284 33.6141 Q-69.9502 33.6141 -70.6924 34.5125 Q-71.4346 35.4109 -71.4346 37.1297 Z" /><ns0:path style="stroke:none;" d="M-73.4815 41.4266 L-74.4815 41.4266 L-74.4815 37.3953 L-78.9971 37.3953 L-78.9971 41.4266 L-79.9971 41.4266 L-79.9971 32.8641 L-78.9971 32.8641 L-78.9971 36.5047 L-74.4815 36.5047 L-74.4815 32.8641 L-73.4815 32.8641 L-73.4815 41.4266 Z" /><ns0:path style="stroke:none;" d="M25.3935 89.0927 Q25.3935 91.1552 24.3544 92.3349 Q23.3154 93.5146 21.4716 93.5146 Q19.581 93.5146 18.5497 92.3505 Q17.5185 91.1864 17.5185 89.0771 Q17.5185 86.9833 18.5497 85.8349 Q19.581 84.6864 21.4716 84.6864 Q23.331 84.6864 24.3622 85.8583 Q25.3935 87.0302 25.3935 89.0927 ZM18.5654 89.0927 Q18.5654 90.8271 19.3076 91.7333 Q20.0497 92.6396 21.4716 92.6396 Q22.8935 92.6396 23.6201 91.7411 Q24.3466 90.8427 24.3466 89.0927 Q24.3466 87.3583 23.6201 86.4677 Q22.8935 85.5771 21.4716 85.5771 Q20.0497 85.5771 19.3076 86.4755 Q18.5654 87.3739 18.5654 89.0927 Z" /><ns0:path style="stroke:none;" d="M32.9091 93.3896 L31.9091 93.3896 L31.9091 89.3583 L27.3935 89.3583 L27.3935 93.3896 L26.3935 93.3896 L26.3935 84.8271 L27.3935 84.8271 L27.3935 88.4677 L31.9091 88.4677 L31.9091 84.8271 L32.9091 84.8271 L32.9091 93.3896 Z" /></ns0:g><ns0:g transform="translate(116,93)" style="stroke-linecap:butt; font-size:8.4px; fill:gray; text-rendering:geometricPrecision; image-rendering:optimizeQuality; color-rendering:optimizeQuality; font-family:'Open Sans'; font-style:italic; stroke:gray; color-interpolation:linearRGB; stroke-miterlimit:5;"><ns0:path style="stroke:none;" d="M-38.2849 -26.2522 Q-38.2849 -27.5803 -37.8161 -28.7053 Q-37.3474 -29.8303 -36.3161 -30.9084 L-35.7068 -30.9084 Q-36.6755 -29.8459 -37.1599 -28.6741 Q-37.6443 -27.5022 -37.6443 -26.2678 Q-37.6443 -24.9397 -37.2068 -23.9241 L-37.7224 -23.9241 Q-38.2849 -24.9553 -38.2849 -26.2522 ZM-34.7248 -27.5647 L-35.2248 -25.1897 L-35.8811 -25.1897 L-34.678 -30.9084 L-33.428 -30.9084 Q-31.6936 -30.9084 -31.6936 -29.4709 Q-31.6936 -28.1116 -33.1311 -27.7209 L-32.1936 -25.1897 L-32.9123 -25.1897 L-33.7405 -27.5647 L-34.7248 -27.5647 ZM-34.1467 -30.3147 Q-34.5373 -28.3928 -34.5998 -28.1428 L-33.9436 -28.1428 Q-33.1936 -28.1428 -32.7873 -28.4709 Q-32.3811 -28.7991 -32.3811 -29.4241 Q-32.3811 -29.8928 -32.6389 -30.1037 Q-32.8967 -30.3147 -33.4905 -30.3147 L-34.1467 -30.3147 ZM-29.5076 -28.5647 Q-29.5076 -27.2366 -29.9842 -26.1037 Q-30.4607 -24.9709 -31.4764 -23.9241 L-32.0857 -23.9241 Q-30.1482 -26.0803 -30.1482 -28.5647 Q-30.1482 -29.8928 -30.5857 -30.9084 L-30.0701 -30.9084 Q-29.5076 -29.8459 -29.5076 -28.5647 Z" /><ns0:path style="fill:none; stroke:black;" d="M-59.802 -25.3946 L-60.285 -25.524 L-60.4144 -26.007" /><ns0:path style="stroke:none;" d="M-64.2375 -14.3695 Q-64.2375 -15.6976 -63.7688 -16.8226 Q-63.3 -17.9476 -62.2688 -19.0257 L-61.6594 -19.0257 Q-62.6281 -17.9632 -63.1125 -16.7913 Q-63.5969 -15.6195 -63.5969 -14.3851 Q-63.5969 -13.057 -63.1594 -12.0413 L-63.675 -12.0413 Q-64.2375 -13.0726 -64.2375 -14.3695 ZM-60.6775 -15.682 L-61.1775 -13.307 L-61.8337 -13.307 L-60.6306 -19.0257 L-59.3806 -19.0257 Q-57.6462 -19.0257 -57.6462 -17.5882 Q-57.6462 -16.2288 -59.0837 -15.8382 L-58.1462 -13.307 L-58.865 -13.307 L-59.6931 -15.682 L-60.6775 -15.682 ZM-60.0993 -18.432 Q-60.49 -16.5101 -60.5525 -16.2601 L-59.8962 -16.2601 Q-59.1462 -16.2601 -58.74 -16.5882 Q-58.3337 -16.9163 -58.3337 -17.5413 Q-58.3337 -18.0101 -58.5915 -18.221 Q-58.8493 -18.432 -59.4431 -18.432 L-60.0993 -18.432 ZM-55.4602 -16.682 Q-55.4602 -15.3538 -55.9368 -14.221 Q-56.4134 -13.0882 -57.429 -12.0413 L-58.0384 -12.0413 Q-56.1009 -14.1976 -56.1009 -16.682 Q-56.1009 -18.0101 -56.5384 -19.0257 L-56.0227 -19.0257 Q-55.4602 -17.9632 -55.4602 -16.682 Z" /><ns0:path style="fill:none; stroke:black;" d="M-10.4486 -38.6164 L-10.095 -38.97 L-10.2244 -39.453" /><ns0:path style="fill:none; stroke:black;" d="M-67.9196 -54.018 L-68.049 -54.501 L-67.6954 -54.8546" /><ns0:path style="fill:none; stroke:black;" d="M-17.7296 -67.467 L-17.859 -67.95 L-18.342 -68.0794" /><ns0:path style="fill:none; stroke:black;" d="M-47.1896 -75.3604 L-46.836 -75.714 L-46.353 -75.5846" /><ns0:path style="fill:none; stroke:black;" d="M5.956 11.22 L6.456 11.22 L6.706 10.787" /><ns0:path style="fill:none; stroke:black;" d="M-38.294 37.633 L-38.544 37.2 L-39.044 37.2" /><ns0:path style="fill:none; stroke:black;" d="M21.206 36.767 L21.456 37.2 L21.206 37.633" /><ns0:path style="fill:none; stroke:black;" d="M-23.794 62.747 L-23.544 63.18 L-23.044 63.18" /><ns0:path style="fill:none; stroke:black;" d="M6.706 62.747 L6.456 63.18 L6.706 63.613" /></ns0:g></ns0:g></ns0:svg></ns0:svg></ns0:svg></ns0:svg></g></svg>