<svg xmlns:ns0="http://www.w3.org/2000/svg" xmlns="http://www.w3.org/2000/svg"><g transform="translate(0, 0)"><ns0:svg width="247" viewBox="0 0 247 135" style="fill-opacity:1; color-rendering:auto; color-interpolation:auto; text-rendering:auto; stroke:black; stroke-linecap:square; stroke-miterlimit:10; shape-rendering:auto; stroke-opacity:1; fill:black; stroke-dasharray:none; font-weight:normal; stroke-width:1; font-family:'Open Sans'; font-style:normal; stroke-linejoin:miter; font-size:12; stroke-dashoffset:0; image-rendering:auto;" height="135" class="cas-substance-image"><ns0:svg class="cas-substance-single-component"><ns0:rect y="0" x="0" width="247" stroke="none" ry="7" rx="7" height="135" fill="white" class="cas-substance-group" /><ns0:svg y="0" x="0" width="247" viewBox="0 0 247 135" style="fill:black;" height="135" class="cas-substance-single-component-image"><ns0:svg><ns0:g><ns0:g transform="translate(115,69)" style="text-rendering:geometricPrecision; color-rendering:optimizeQuality; color-interpolation:linearRGB; stroke-linecap:butt; image-rendering:optimizeQuality;"><ns0:line y2="44.421" y1="53.691" x2="-31.77" x1="-60.303" style="fill:none;" /><ns0:line y2="-36.072" y1="-16.2303" x2="67.5" x1="56.044" style="fill:none;" /><ns0:line y2="-10.092" y1="-10.092" x2="22.5" x1="47.1484" style="fill:none;" /><ns0:line y2="-36.072" y1="-36.072" x2="97.5" x1="67.5" style="fill:none;" /><ns0:line y2="-56.1667" y1="-36.072" x2="109.1007" x1="97.5" style="fill:none;" /><ns0:line y2="-36.072" y1="-36.072" x2="-82.5" x1="-112.5" style="fill:none;" /><ns0:line y2="-10.092" y1="9.7497" x2="-37.5" x1="-26.044" style="fill:none;" /><ns0:line y2="15.888" y1="15.888" x2="7.5" x1="-17.1484" style="fill:none;" /><ns0:line y2="44.421" y1="21.9464" x2="-31.77" x1="-24.4683" style="fill:none;" /><ns0:line y2="-36.072" y1="-10.092" x2="-22.5" x1="-37.5" style="fill:none;" /><ns0:line y2="-10.092" y1="-10.092" x2="-67.5" x1="-37.5" style="fill:none;" /><ns0:line y2="-13.592" y1="-13.592" x2="-65.4793" x1="-39.5207" style="fill:none;" /><ns0:line y2="-10.092" y1="15.888" x2="22.5" x1="7.5" style="fill:none;" /><ns0:line y2="38.1126" y1="15.888" x2="14.7205" x1="7.5" style="fill:none;" /><ns0:line y2="39.1941" y1="18.8913" x2="11.3918" x1="4.7957" style="fill:none;" /><ns0:line y2="62.055" y1="44.421" x2="-7.5" x1="-31.77" style="fill:none;" /><ns0:line y2="58.0357" y1="42.7773" x2="-7.0775" x1="-28.0779" style="fill:none;" /><ns0:line y2="-36.072" y1="-36.072" x2="2.1484" x1="-22.5" style="fill:none;" /><ns0:line y2="-62.055" y1="-36.072" x2="-37.5" x1="-22.5" style="fill:none;" /><ns0:line y2="-58.5551" y1="-36.0722" x2="-39.5209" x1="-26.5415" style="fill:none;" /><ns0:line y2="-36.072" y1="-10.092" x2="-82.5" x1="-67.5" style="fill:none;" /><ns0:line y2="-30.1837" y1="-10.092" x2="10.8997" x1="22.5" style="fill:none;" /><ns0:line y2="-28.4337" y1="-10.0919" x2="7.8686" x1="18.4585" style="fill:none;" /><ns0:line y2="62.055" y1="48.0318" x2="-7.5" x1="11.8004" style="fill:none;" /><ns0:line y2="-62.055" y1="-62.055" x2="-67.5" x1="-37.5" style="fill:none;" /><ns0:line y2="-62.055" y1="-36.072" x2="-67.5" x1="-82.5" style="fill:none;" /><ns0:line y2="-58.5551" y1="-36.0722" x2="-65.4791" x1="-78.4585" style="fill:none;" /></ns0:g><ns0:g transform="translate(115,69)" style="fill:rgb(0,5,255); text-rendering:geometricPrecision; color-rendering:optimizeQuality; image-rendering:optimizeQuality; font-family:'Open Sans'; stroke:rgb(0,5,255); color-interpolation:linearRGB;"><ns0:path style="stroke:none;" d="M55.8516 -5.9358 L54.7109 -5.9358 L50.0234 -13.1233 L49.9766 -13.1233 Q50.0703 -11.8576 50.0703 -10.8108 L50.0703 -5.9358 L49.1484 -5.9358 L49.1484 -14.4983 L50.2734 -14.4983 L54.9453 -7.342 L54.9922 -7.342 Q54.9922 -7.4983 54.9453 -8.3576 Q54.8984 -9.217 54.9141 -9.592 L54.9141 -14.4983 L55.8516 -14.4983 L55.8516 -5.9358 Z" /><ns0:path style="stroke:none;" d="M55.7578 3.6267 L54.7578 3.6267 L54.7578 -0.4045 L50.2422 -0.4045 L50.2422 3.6267 L49.2422 3.6267 L49.2422 -4.9358 L50.2422 -4.9358 L50.2422 -1.2951 L54.7578 -1.2951 L54.7578 -4.9358 L55.7578 -4.9358 L55.7578 3.6267 Z" /></ns0:g><ns0:g transform="translate(115,69)" style="stroke-linecap:butt; text-rendering:geometricPrecision; color-rendering:optimizeQuality; image-rendering:optimizeQuality; font-family:'Open Sans'; color-interpolation:linearRGB; stroke-miterlimit:5;"><ns0:path style="fill:none;" d="M67.25 -35.639 L67.5 -36.072 L68 -36.072" /><ns0:path style="fill:none;" d="M97 -36.072 L97.5 -36.072 L97.75 -36.505" /><ns0:path style="fill:rgb(0,5,255); stroke:none;" d="M115.8516 -57.8988 L114.7109 -57.8988 L110.0234 -65.0863 L109.9766 -65.0863 Q110.0703 -63.8206 110.0703 -62.7738 L110.0703 -57.8988 L109.1484 -57.8988 L109.1484 -66.4613 L110.2734 -66.4613 L114.9453 -59.305 L114.9922 -59.305 Q114.9922 -59.4613 114.9453 -60.3206 Q114.8984 -61.18 114.9141 -61.555 L114.9141 -66.4613 L115.8516 -66.4613 L115.8516 -57.8988 Z" /><ns0:path style="fill:rgb(0,5,255); stroke:none;" d="M123.3672 -57.8988 L122.3672 -57.8988 L122.3672 -61.93 L117.8516 -61.93 L117.8516 -57.8988 L116.8516 -57.8988 L116.8516 -66.4613 L117.8516 -66.4613 L117.8516 -62.8206 L122.3672 -62.8206 L122.3672 -66.4613 L123.3672 -66.4613 L123.3672 -57.8988 Z" /><ns0:path style="fill:rgb(0,5,255); stroke:none;" d="M128.1172 -56.0894 L124.3672 -56.0894 L124.3672 -56.6519 L125.8672 -58.1675 Q126.5547 -58.855 126.7734 -59.1519 Q126.9922 -59.4487 127.1016 -59.73 Q127.2109 -60.0112 127.2109 -60.3394 Q127.2109 -60.7925 126.9375 -61.0581 Q126.6641 -61.3237 126.1641 -61.3237 Q125.8203 -61.3237 125.5 -61.2066 Q125.1797 -61.0894 124.7891 -60.7925 L124.4453 -61.23 Q125.2266 -61.8862 126.1641 -61.8862 Q126.9609 -61.8862 127.4219 -61.4722 Q127.8828 -61.0581 127.8828 -60.3706 Q127.8828 -59.8237 127.5781 -59.2925 Q127.2734 -58.7612 126.4297 -57.9487 L125.1797 -56.73 L125.1797 -56.6987 L128.1172 -56.6987 L128.1172 -56.0894 Z" /><ns0:path style="fill:rgb(0,5,255); stroke:none;" d="M-19.1484 20.0443 L-20.2891 20.0443 L-24.9766 12.8568 L-25.0234 12.8568 Q-24.9297 14.1224 -24.9297 15.1693 L-24.9297 20.0443 L-25.8516 20.0443 L-25.8516 11.4818 L-24.7266 11.4818 L-20.0547 18.638 L-20.0078 18.638 Q-20.0078 18.4818 -20.0547 17.6224 Q-20.1016 16.763 -20.0859 16.388 L-20.0859 11.4818 L-19.1484 11.4818 L-19.1484 20.0443 Z" /><ns0:path style="fill:none;" d="M-38 -10.092 L-37.5 -10.092 L-37.25 -9.659" /><ns0:path style="fill:none;" d="M7.6545 16.3635 L7.5 15.888 L7 15.888" /><ns0:path style="fill:none;" d="M-31.3655 44.7149 L-31.77 44.421 L-32.2455 44.5755" /><ns0:path style="fill:none;" d="M-22.75 -36.505 L-22.5 -36.072 L-22.75 -35.639" /><ns0:path style="fill:none;" d="M-67 -10.092 L-67.5 -10.092 L-67.75 -10.525" /><ns0:path style="fill:none;" d="M22.25 -10.525 L22.5 -10.092 L23 -10.092" /><ns0:path style="fill:rgb(0,5,255); stroke:none;" d="M20.1216 48.5773 L18.9809 48.5773 L14.2934 41.3898 L14.2466 41.3898 Q14.3403 42.6554 14.3403 43.7023 L14.3403 48.5773 L13.4184 48.5773 L13.4184 40.0148 L14.5434 40.0148 L19.2153 47.171 L19.2622 47.171 Q19.2622 47.0148 19.2153 46.1554 Q19.1684 45.296 19.1841 44.921 L19.1841 40.0148 L20.1216 40.0148 L20.1216 48.5773 Z" /><ns0:path style="fill:none;" d="M-7.9045 61.7611 L-7.5 62.055 L-7.0955 61.7611" /><ns0:path style="fill:rgb(0,5,255); stroke:none;" d="M10.8516 -31.9157 L9.7109 -31.9157 L5.0234 -39.1032 L4.9766 -39.1032 Q5.0703 -37.8376 5.0703 -36.7907 L5.0703 -31.9157 L4.1484 -31.9157 L4.1484 -40.4782 L5.2734 -40.4782 L9.9453 -33.322 L9.9922 -33.322 Q9.9922 -33.4782 9.9453 -34.3376 Q9.8984 -35.197 9.9141 -35.572 L9.9141 -40.4782 L10.8516 -40.4782 L10.8516 -31.9157 Z" /><ns0:path style="fill:none;" d="M-37.25 -61.622 L-37.5 -62.055 L-38 -62.055" /><ns0:path style="fill:none;" d="M-82.25 -36.505 L-82.5 -36.072 L-83 -36.072" /><ns0:path style="fill:none;" d="M-67 -62.055 L-67.5 -62.055 L-67.75 -61.622" /></ns0:g></ns0:g></ns0:svg></ns0:svg></ns0:svg></ns0:svg></g></svg>