<svg width="129" viewBox="0 0 129 118" style="fill-opacity:1; color-rendering:auto; color-interpolation:auto; text-rendering:auto; stroke:black; stroke-linecap:square; stroke-miterlimit:10; shape-rendering:auto; stroke-opacity:1; fill:black; stroke-dasharray:none; font-weight:normal; stroke-width:1; font-family:'Open Sans'; font-style:normal; stroke-linejoin:miter; font-size:12; stroke-dashoffset:0; image-rendering:auto;" height="118" class="cas-substance-image" xmlns:xlink="http://www.w3.org/1999/xlink" xmlns="http://www.w3.org/2000/svg"><svg class="cas-substance-single-component"><rect y="0" x="0" width="129" stroke="none" ry="7" rx="7" height="118" fill="white" class="cas-substance-group"/><svg y="0" x="0" width="129" viewBox="0 0 129 118" style="fill:black;" height="118" class="cas-substance-single-component-image"><svg><g><g transform="translate(65,59)" style="text-rendering:geometricPrecision; color-rendering:optimizeQuality; color-interpolation:linearRGB; stroke-linecap:butt; image-rendering:optimizeQuality;"><line y2="0" y1="-15.0594" x2="-33.51" x1="-51.4558" style="fill:none;"/><line y2="0" y1="15.0694" x2="-33.51" x1="-51.4676" style="fill:none;"/><line y2="-25.98" y1="-46.0747" x2="11.49" x1="23.0907" style="fill:none;"/><line y2="25.98" y1="45.8247" x2="11.49" x1="22.9463" style="fill:none;"/><line y2="-1.75" y1="-1.75" x2="25.4796" x1="50.5525" style="fill:none;"/><line y2="1.75" y1="1.75" x2="25.4796" x1="50.5525" style="fill:none;"/><line y2="-25.98" y1="0" x2="-18.51" x1="-33.51" style="fill:none;"/><line y2="25.98" y1="0" x2="-18.51" x1="-33.51" style="fill:none;"/><line y2="-25.98" y1="-25.98" x2="11.49" x1="-18.51" style="fill:none;"/><line y2="-22.48" y1="-22.48" x2="9.4693" x1="-16.4893" style="fill:none;"/><line y2="25.98" y1="25.98" x2="11.49" x1="-18.51" style="fill:none;"/><line y2="22.48" y1="22.48" x2="9.4693" x1="-16.4893" style="fill:none;"/><line y2="0" y1="-25.98" x2="26.49" x1="11.49" style="fill:none;"/><line y2="0" y1="25.98" x2="26.49" x1="11.49" style="fill:none;"/></g><g transform="translate(65,59)" style="fill:rgb(0,138,0); text-rendering:geometricPrecision; color-rendering:optimizeQuality; image-rendering:optimizeQuality; font-family:'Open Sans'; stroke:rgb(0,138,0); color-interpolation:linearRGB;"><path style="stroke:none;" d="M-62.1589 -23.6902 L-59.7371 -23.6902 Q-58.0339 -23.6902 -57.2683 -23.1824 Q-56.5027 -22.6746 -56.5027 -21.5809 Q-56.5027 -20.8152 -56.9246 -20.3152 Q-57.3464 -19.8152 -58.1746 -19.6746 L-58.1746 -19.6121 Q-56.2214 -19.284 -56.2214 -17.5652 Q-56.2214 -16.4246 -56.9949 -15.7762 Q-57.7683 -15.1277 -59.1589 -15.1277 L-62.1589 -15.1277 L-62.1589 -23.6902 ZM-61.1589 -20.034 L-59.5183 -20.034 Q-58.4558 -20.034 -57.9949 -20.3621 Q-57.5339 -20.6902 -57.5339 -21.4715 Q-57.5339 -22.1902 -58.0496 -22.5106 Q-58.5652 -22.8309 -59.6902 -22.8309 L-61.1589 -22.8309 L-61.1589 -20.034 ZM-61.1589 -19.1902 L-61.1589 -15.9715 L-59.3621 -15.9715 Q-58.3308 -15.9715 -57.8074 -16.3777 Q-57.2839 -16.784 -57.2839 -17.6434 Q-57.2839 -18.4402 -57.823 -18.8152 Q-58.3621 -19.1902 -59.4558 -19.1902 L-61.1589 -19.1902 ZM-51.5867 -21.6746 Q-51.1648 -21.6746 -50.8211 -21.5965 L-50.9617 -20.6902 Q-51.3523 -20.784 -51.6648 -20.784 Q-52.4461 -20.784 -53.0007 -20.1512 Q-53.5554 -19.5184 -53.5554 -18.5809 L-53.5554 -15.1277 L-54.5242 -15.1277 L-54.5242 -21.5496 L-53.7273 -21.5496 L-53.6023 -20.3621 L-53.5554 -20.3621 Q-53.2117 -20.9871 -52.7039 -21.3309 Q-52.1961 -21.6746 -51.5867 -21.6746 Z"/><path style="stroke:none;" d="M-62.1589 14.8777 L-59.7371 14.8777 Q-58.0339 14.8777 -57.2683 15.3856 Q-56.5027 15.8934 -56.5027 16.9871 Q-56.5027 17.7527 -56.9246 18.2527 Q-57.3464 18.7527 -58.1746 18.8934 L-58.1746 18.9559 Q-56.2214 19.284 -56.2214 21.0027 Q-56.2214 22.1434 -56.9949 22.7918 Q-57.7683 23.4402 -59.1589 23.4402 L-62.1589 23.4402 L-62.1589 14.8777 ZM-61.1589 18.534 L-59.5183 18.534 Q-58.4558 18.534 -57.9949 18.2059 Q-57.5339 17.8777 -57.5339 17.0965 Q-57.5339 16.3777 -58.0496 16.0574 Q-58.5652 15.7371 -59.6902 15.7371 L-61.1589 15.7371 L-61.1589 18.534 ZM-61.1589 19.3777 L-61.1589 22.5965 L-59.3621 22.5965 Q-58.3308 22.5965 -57.8074 22.1902 Q-57.2839 21.784 -57.2839 20.9246 Q-57.2839 20.1277 -57.823 19.7527 Q-58.3621 19.3777 -59.4558 19.3777 L-61.1589 19.3777 ZM-51.5867 16.8934 Q-51.1648 16.8934 -50.8211 16.9715 L-50.9617 17.8777 Q-51.3523 17.784 -51.6648 17.784 Q-52.4461 17.784 -53.0007 18.4168 Q-53.5554 19.0496 -53.5554 19.9871 L-53.5554 23.4402 L-54.5242 23.4402 L-54.5242 17.0184 L-53.7273 17.0184 L-53.6023 18.2059 L-53.5554 18.2059 Q-53.2117 17.5809 -52.7039 17.2371 Q-52.1961 16.8934 -51.5867 16.8934 Z"/><path style="stroke:none;" d="M20.8211 -56.3693 L23.2429 -56.3693 Q24.9461 -56.3693 25.7117 -55.8614 Q26.4773 -55.3536 26.4773 -54.2599 Q26.4773 -53.4943 26.0554 -52.9943 Q25.6336 -52.4943 24.8054 -52.3536 L24.8054 -52.2911 Q26.7586 -51.963 26.7586 -50.2443 Q26.7586 -49.1036 25.9851 -48.4552 Q25.2117 -47.8068 23.8211 -47.8068 L20.8211 -47.8068 L20.8211 -56.3693 ZM21.8211 -52.713 L23.4617 -52.713 Q24.5242 -52.713 24.9851 -53.0411 Q25.4461 -53.3693 25.4461 -54.1505 Q25.4461 -54.8693 24.9304 -55.1896 Q24.4148 -55.5099 23.2898 -55.5099 L21.8211 -55.5099 L21.8211 -52.713 ZM21.8211 -51.8693 L21.8211 -48.6505 L23.6179 -48.6505 Q24.6492 -48.6505 25.1726 -49.0568 Q25.6961 -49.463 25.6961 -50.3224 Q25.6961 -51.1193 25.157 -51.4943 Q24.6179 -51.8693 23.5242 -51.8693 L21.8211 -51.8693 ZM31.3933 -54.3536 Q31.8152 -54.3536 32.1589 -54.2755 L32.0183 -53.3693 Q31.6277 -53.463 31.3152 -53.463 Q30.5339 -53.463 29.9793 -52.8302 Q29.4246 -52.1974 29.4246 -51.2599 L29.4246 -47.8068 L28.4558 -47.8068 L28.4558 -54.2286 L29.2527 -54.2286 L29.3777 -53.0411 L29.4246 -53.0411 Q29.7683 -53.6661 30.2761 -54.0099 Q30.7839 -54.3536 31.3933 -54.3536 Z"/><path style="stroke:none;" d="M20.8211 47.5568 L23.2429 47.5568 Q24.9461 47.5568 25.7117 48.0646 Q26.4773 48.5724 26.4773 49.6661 Q26.4773 50.4318 26.0554 50.9318 Q25.6336 51.4318 24.8054 51.5724 L24.8054 51.6349 Q26.7586 51.963 26.7586 53.6818 Q26.7586 54.8224 25.9851 55.4708 Q25.2117 56.1193 23.8211 56.1193 L20.8211 56.1193 L20.8211 47.5568 ZM21.8211 51.213 L23.4617 51.213 Q24.5242 51.213 24.9851 50.8849 Q25.4461 50.5568 25.4461 49.7755 Q25.4461 49.0568 24.9304 48.7364 Q24.4148 48.4161 23.2898 48.4161 L21.8211 48.4161 L21.8211 51.213 ZM21.8211 52.0568 L21.8211 55.2755 L23.6179 55.2755 Q24.6492 55.2755 25.1726 54.8693 Q25.6961 54.463 25.6961 53.6036 Q25.6961 52.8068 25.157 52.4318 Q24.6179 52.0568 23.5242 52.0568 L21.8211 52.0568 ZM31.3933 49.5724 Q31.8152 49.5724 32.1589 49.6505 L32.0183 50.5568 Q31.6277 50.463 31.3152 50.463 Q30.5339 50.463 29.9793 51.0958 Q29.4246 51.7286 29.4246 52.6661 L29.4246 56.1193 L28.4558 56.1193 L28.4558 49.6974 L29.2527 49.6974 L29.3777 50.8849 L29.4246 50.8849 Q29.7683 50.2599 30.2761 49.9161 Q30.7839 49.5724 31.3933 49.5724 Z"/><path style="fill:rgb(230,0,0); stroke:none;" d="M60.4275 -0.0703 Q60.4275 1.9922 59.3884 3.1719 Q58.3494 4.3516 56.5056 4.3516 Q54.615 4.3516 53.5838 3.1875 Q52.5525 2.0234 52.5525 -0.0859 Q52.5525 -2.1797 53.5838 -3.3281 Q54.615 -4.4766 56.5056 -4.4766 Q58.365 -4.4766 59.3963 -3.3047 Q60.4275 -2.1328 60.4275 -0.0703 ZM53.5994 -0.0703 Q53.5994 1.6641 54.3416 2.5703 Q55.0838 3.4766 56.5056 3.4766 Q57.9275 3.4766 58.6541 2.5781 Q59.3806 1.6797 59.3806 -0.0703 Q59.3806 -1.8047 58.6541 -2.6953 Q57.9275 -3.5859 56.5056 -3.5859 Q55.0838 -3.5859 54.3416 -2.6875 Q53.5994 -1.7891 53.5994 -0.0703 Z"/></g><g transform="translate(65,59)" style="stroke-linecap:butt; text-rendering:geometricPrecision; color-rendering:optimizeQuality; image-rendering:optimizeQuality; font-family:'Open Sans'; color-interpolation:linearRGB; stroke-miterlimit:5;"><path style="fill:none;" d="M-18.76 -25.547 L-18.51 -25.98 L-18.01 -25.98"/><path style="fill:none;" d="M-18.76 25.547 L-18.51 25.98 L-18.01 25.98"/><path style="fill:none;" d="M10.99 -25.98 L11.49 -25.98 L11.74 -26.413"/><path style="fill:none;" d="M10.99 25.98 L11.49 25.98 L11.74 26.413"/><path style="fill:none;" d="M26.24 -0.433 L26.49 0 L26.24 0.433"/></g></g></svg></svg></svg></svg>