<svg xmlns:ns0="http://www.w3.org/2000/svg" xmlns="http://www.w3.org/2000/svg"><g transform="translate(0, 0)"><ns0:svg width="188" viewBox="0 0 188 149" style="fill-opacity:1; color-rendering:auto; color-interpolation:auto; text-rendering:auto; stroke:black; stroke-linecap:square; stroke-miterlimit:10; shape-rendering:auto; stroke-opacity:1; fill:black; stroke-dasharray:none; font-weight:normal; stroke-width:1; font-family:'Open Sans'; font-style:normal; stroke-linejoin:miter; font-size:12; stroke-dashoffset:0; image-rendering:auto;" height="149" class="cas-substance-image"><ns0:svg class="cas-substance-single-component"><ns0:rect y="0" x="0" width="188" stroke="none" ry="7" rx="7" height="149" fill="white" class="cas-substance-group" /><ns0:svg y="0" x="0" width="188" viewBox="0 0 188 149" style="fill:black;" height="149" class="cas-substance-single-component-image"><ns0:svg><ns0:g><ns0:g transform="translate(96,74)" style="text-rendering:geometricPrecision; color-rendering:optimizeQuality; color-interpolation:linearRGB; stroke-linecap:butt; image-rendering:optimizeQuality;"><ns0:line y2="-39.1722" y1="-10.98" x2="-59.5808" x1="-10.749" style="fill:none;" /><ns0:line y2="34.8417" y1="-10.98" x2="-37.205" x1="-10.749" style="fill:none;" /><ns0:line y2="4.02" y1="-10.98" x2="15.231" x1="-10.749" style="fill:none;" /><ns0:line y2="-31.3148" y1="-10.98" x2="0.9903" x1="-10.749" style="fill:none;" /><ns0:line y2="-54.3169" y1="-45.0653" x2="-82.3116" x1="-66.2878" style="fill:none;" /><ns0:line y2="-51.2859" y1="-42.0342" x2="-84.0617" x1="-68.0378" style="fill:none;" /><ns0:line y2="-20.7217" y1="-35.0917" x2="-74.4085" x1="-66.1117" style="fill:none;" /><ns0:line y2="-61.3148" y1="-47.1183" x2="-50.9727" x1="-59.1683" style="fill:none;" /><ns0:line y2="60.3661" y1="45.9934" x2="-53.9613" x1="-45.6639" style="fill:none;" /><ns0:line y2="62.116" y1="47.7433" x2="-50.9302" x1="-42.6328" style="fill:none;" /><ns0:line y2="52.7386" y1="42.7878" x2="-20.3831" x1="-37.6178" style="fill:none;" /><ns0:line y2="29.1584" y1="38.4105" x2="-61.2265" x1="-45.1998" style="fill:none;" /><ns0:line y2="-8.0449" y1="4.02" x2="36.1274" x1="15.231" style="fill:none;" /><ns0:line y2="1.221" y1="-8.6746" x2="68.619" x1="46.3897" style="fill:none;" /><ns0:line y2="-40.815" y1="-17.3753" x2="44.349" x1="41.8836" style="fill:none;" /><ns0:line y2="-21.072" y1="1.221" x2="88.692" x1="68.619" style="fill:none;" /><ns0:line y2="-21.9123" y1="-2.6227" x2="84.7389" x1="67.3702" style="fill:none;" /><ns0:line y2="-45.9263" y1="-40.815" x2="68.3842" x1="44.349" style="fill:none;" /><ns0:line y2="-42.5028" y1="-37.8119" x2="69.1122" x1="47.0535" style="fill:none;" /><ns0:line y2="-41.1667" y1="-21.072" x2="77.0913" x1="88.692" style="fill:none;" /></ns0:g><ns0:g transform="translate(96,74)" style="fill:rgb(111,5,255); text-rendering:geometricPrecision; color-rendering:optimizeQuality; image-rendering:optimizeQuality; font-family:'Open Sans'; stroke:rgb(111,5,255); color-interpolation:linearRGB;"><ns0:path style="stroke:none;" d="M-59.9932 -42.9019 Q-59.9932 -41.5894 -60.8839 -40.8941 Q-61.7745 -40.1988 -63.4151 -40.1988 L-64.4307 -40.1988 L-64.4307 -36.8238 L-65.4307 -36.8238 L-65.4307 -45.3863 L-63.1964 -45.3863 Q-59.9932 -45.3863 -59.9932 -42.9019 ZM-64.4307 -41.0425 L-63.5245 -41.0425 Q-62.212 -41.0425 -61.6182 -41.4722 Q-61.0245 -41.9019 -61.0245 -42.855 Q-61.0245 -43.6988 -61.5792 -44.1128 Q-62.1339 -44.5269 -63.3214 -44.5269 L-64.4307 -44.5269 L-64.4307 -41.0425 Z" /><ns0:path style="stroke:none;" d="M-38.0303 39.0581 Q-38.0303 40.3706 -38.9209 41.0659 Q-39.8115 41.7613 -41.4521 41.7613 L-42.4678 41.7613 L-42.4678 45.1363 L-43.4678 45.1363 L-43.4678 36.5738 L-41.2334 36.5738 Q-38.0303 36.5738 -38.0303 39.0581 ZM-42.4678 40.9175 L-41.5615 40.9175 Q-40.249 40.9175 -39.6553 40.4878 Q-39.0615 40.0581 -39.0615 39.105 Q-39.0615 38.2613 -39.6162 37.8472 Q-40.1709 37.4331 -41.3584 37.4331 L-42.4678 37.4331 L-42.4678 40.9175 Z" /></ns0:g><ns0:g transform="translate(96,74)" style="stroke-linecap:butt; text-rendering:geometricPrecision; color-rendering:optimizeQuality; image-rendering:optimizeQuality; font-family:'Open Sans'; color-interpolation:linearRGB; stroke-miterlimit:5;"><ns0:path style="fill:none;" d="M14.798 3.77 L15.231 4.02 L15.664 3.77" /><ns0:path style="fill:rgb(230,0,0); stroke:none;" d="M8.1885 -37.0333 Q8.1885 -34.9708 7.1494 -33.7911 Q6.1104 -32.6114 4.2666 -32.6114 Q2.376 -32.6114 1.3447 -33.7755 Q0.3135 -34.9396 0.3135 -37.0489 Q0.3135 -39.1427 1.3447 -40.2911 Q2.376 -41.4396 4.2666 -41.4396 Q6.126 -41.4396 7.1572 -40.2677 Q8.1885 -39.0958 8.1885 -37.0333 ZM1.3604 -37.0333 Q1.3604 -35.2989 2.1026 -34.3927 Q2.8447 -33.4864 4.2666 -33.4864 Q5.6885 -33.4864 6.4151 -34.3849 Q7.1416 -35.2833 7.1416 -37.0333 Q7.1416 -38.7677 6.4151 -39.6583 Q5.6885 -40.5489 4.2666 -40.5489 Q2.8447 -40.5489 2.1026 -39.6505 Q1.3604 -38.7521 1.3604 -37.0333 Z" /><ns0:path style="fill:rgb(230,0,0); stroke:none;" d="M15.7041 -32.7364 L14.7041 -32.7364 L14.7041 -36.7677 L10.1885 -36.7677 L10.1885 -32.7364 L9.1885 -32.7364 L9.1885 -41.2989 L10.1885 -41.2989 L10.1885 -37.6583 L14.7041 -37.6583 L14.7041 -41.2989 L15.7041 -41.2989 L15.7041 -32.7364 Z" /><ns0:path style="fill:rgb(230,0,0); stroke:none;" d="M-84.7545 -56.0503 Q-84.7545 -53.9878 -85.7936 -52.8081 Q-86.8326 -51.6284 -88.6764 -51.6284 Q-90.567 -51.6284 -91.5983 -52.7925 Q-92.6295 -53.9566 -92.6295 -56.0659 Q-92.6295 -58.1597 -91.5983 -59.3081 Q-90.567 -60.4566 -88.6764 -60.4566 Q-86.817 -60.4566 -85.7858 -59.2847 Q-84.7545 -58.1128 -84.7545 -56.0503 ZM-91.5826 -56.0503 Q-91.5826 -54.3159 -90.8404 -53.4097 Q-90.0983 -52.5034 -88.6764 -52.5034 Q-87.2545 -52.5034 -86.5279 -53.4019 Q-85.8014 -54.3003 -85.8014 -56.0503 Q-85.8014 -57.7847 -86.5279 -58.6753 Q-87.2545 -59.5659 -88.6764 -59.5659 Q-90.0983 -59.5659 -90.8404 -58.6675 Q-91.5826 -57.7691 -91.5826 -56.0503 Z" /><ns0:path style="fill:rgb(230,0,0); stroke:none;" d="M-73.7745 -15.0703 Q-73.7745 -13.0078 -74.8136 -11.8281 Q-75.8526 -10.6484 -77.6964 -10.6484 Q-79.587 -10.6484 -80.6182 -11.8125 Q-81.6495 -12.9766 -81.6495 -15.0859 Q-81.6495 -17.1797 -80.6182 -18.3281 Q-79.587 -19.4766 -77.6964 -19.4766 Q-75.837 -19.4766 -74.8057 -18.3047 Q-73.7745 -17.1328 -73.7745 -15.0703 ZM-80.6026 -15.0703 Q-80.6026 -13.3359 -79.8604 -12.4297 Q-79.1182 -11.5234 -77.6964 -11.5234 Q-76.2745 -11.5234 -75.5479 -12.4219 Q-74.8214 -13.3203 -74.8214 -15.0703 Q-74.8214 -16.8047 -75.5479 -17.6953 Q-76.2745 -18.5859 -77.6964 -18.5859 Q-79.1182 -18.5859 -79.8604 -17.6875 Q-80.6026 -16.7891 -80.6026 -15.0703 Z" /><ns0:path style="fill:rgb(230,0,0); stroke:none;" d="M-82.6495 -10.7734 L-83.6495 -10.7734 L-83.6495 -14.8047 L-88.1651 -14.8047 L-88.1651 -10.7734 L-89.1651 -10.7734 L-89.1651 -19.3359 L-88.1651 -19.3359 L-88.1651 -15.6953 L-83.6495 -15.6953 L-83.6495 -19.3359 L-82.6495 -19.3359 L-82.6495 -10.7734 Z" /><ns0:path style="fill:rgb(230,0,0); stroke:none;" d="M-43.7745 -67.0333 Q-43.7745 -64.9708 -44.8136 -63.7911 Q-45.8526 -62.6114 -47.6964 -62.6114 Q-49.587 -62.6114 -50.6182 -63.7755 Q-51.6495 -64.9396 -51.6495 -67.0489 Q-51.6495 -69.1427 -50.6182 -70.2911 Q-49.587 -71.4396 -47.6964 -71.4396 Q-45.837 -71.4396 -44.8057 -70.2677 Q-43.7745 -69.0958 -43.7745 -67.0333 ZM-50.6026 -67.0333 Q-50.6026 -65.2989 -49.8604 -64.3927 Q-49.1182 -63.4864 -47.6964 -63.4864 Q-46.2745 -63.4864 -45.5479 -64.3849 Q-44.8214 -65.2833 -44.8214 -67.0333 Q-44.8214 -68.7677 -45.5479 -69.6583 Q-46.2745 -70.5489 -47.6964 -70.5489 Q-49.1182 -70.5489 -49.8604 -69.6505 Q-50.6026 -68.7521 -50.6026 -67.0333 Z" /><ns0:path style="fill:rgb(230,0,0); stroke:none;" d="M-36.2589 -62.7364 L-37.2589 -62.7364 L-37.2589 -66.7677 L-41.7745 -66.7677 L-41.7745 -62.7364 L-42.7745 -62.7364 L-42.7745 -71.2989 L-41.7745 -71.2989 L-41.7745 -67.6583 L-37.2589 -67.6583 L-37.2589 -71.2989 L-36.2589 -71.2989 L-36.2589 -62.7364 Z" /><ns0:path style="fill:rgb(230,0,0); stroke:none;" d="M-51.8115 66.8927 Q-51.8115 68.9552 -52.8506 70.1349 Q-53.8896 71.3146 -55.7334 71.3146 Q-57.624 71.3146 -58.6553 70.1505 Q-59.6865 68.9864 -59.6865 66.8771 Q-59.6865 64.7833 -58.6553 63.6349 Q-57.624 62.4864 -55.7334 62.4864 Q-53.874 62.4864 -52.8428 63.6583 Q-51.8115 64.8302 -51.8115 66.8927 ZM-58.6396 66.8927 Q-58.6396 68.6271 -57.8974 69.5333 Q-57.1553 70.4396 -55.7334 70.4396 Q-54.3115 70.4396 -53.5849 69.5411 Q-52.8584 68.6427 -52.8584 66.8927 Q-52.8584 65.1583 -53.5849 64.2677 Q-54.3115 63.3771 -55.7334 63.3771 Q-57.1553 63.3771 -57.8974 64.2755 Q-58.6396 65.1739 -58.6396 66.8927 Z" /><ns0:path style="fill:rgb(230,0,0); stroke:none;" d="M-10.8315 55.9097 Q-10.8315 57.9722 -11.8706 59.1519 Q-12.9096 60.3316 -14.7534 60.3316 Q-16.644 60.3316 -17.6753 59.1675 Q-18.7065 58.0034 -18.7065 55.8941 Q-18.7065 53.8003 -17.6753 52.6519 Q-16.644 51.5034 -14.7534 51.5034 Q-12.894 51.5034 -11.8628 52.6753 Q-10.8315 53.8472 -10.8315 55.9097 ZM-17.6596 55.9097 Q-17.6596 57.6441 -16.9174 58.5503 Q-16.1753 59.4566 -14.7534 59.4566 Q-13.3315 59.4566 -12.6049 58.5581 Q-11.8784 57.6597 -11.8784 55.9097 Q-11.8784 54.1753 -12.6049 53.2847 Q-13.3315 52.3941 -14.7534 52.3941 Q-16.1753 52.3941 -16.9174 53.2925 Q-17.6596 54.1909 -17.6596 55.9097 Z" /><ns0:path style="fill:rgb(230,0,0); stroke:none;" d="M-3.3159 60.2066 L-4.3159 60.2066 L-4.3159 56.1753 L-8.8315 56.1753 L-8.8315 60.2066 L-9.8315 60.2066 L-9.8315 51.6441 L-8.8315 51.6441 L-8.8315 55.2847 L-4.3159 55.2847 L-4.3159 51.6441 L-3.3159 51.6441 L-3.3159 60.2066 Z" /><ns0:path style="fill:rgb(230,0,0); stroke:none;" d="M-62.7945 25.9097 Q-62.7945 27.9722 -63.8336 29.1519 Q-64.8726 30.3316 -66.7164 30.3316 Q-68.607 30.3316 -69.6383 29.1675 Q-70.6695 28.0034 -70.6695 25.8941 Q-70.6695 23.8003 -69.6383 22.6519 Q-68.607 21.5034 -66.7164 21.5034 Q-64.857 21.5034 -63.8258 22.6753 Q-62.7945 23.8472 -62.7945 25.9097 ZM-69.6226 25.9097 Q-69.6226 27.6441 -68.8804 28.5503 Q-68.1383 29.4566 -66.7164 29.4566 Q-65.2945 29.4566 -64.5679 28.5581 Q-63.8414 27.6597 -63.8414 25.9097 Q-63.8414 24.1753 -64.5679 23.2847 Q-65.2945 22.3941 -66.7164 22.3941 Q-68.1383 22.3941 -68.8804 23.2925 Q-69.6226 24.1909 -69.6226 25.9097 Z" /><ns0:path style="fill:rgb(230,0,0); stroke:none;" d="M-71.6695 30.2066 L-72.6695 30.2066 L-72.6695 26.1753 L-77.1851 26.1753 L-77.1851 30.2066 L-78.1851 30.2066 L-78.1851 21.6441 L-77.1851 21.6441 L-77.1851 25.2847 L-72.6695 25.2847 L-72.6695 21.6441 L-71.6695 21.6441 L-71.6695 30.2066 Z" /><ns0:path style="fill:rgb(0,5,255); stroke:none;" d="M44.5626 -6.8237 L43.4219 -6.8237 L38.7344 -14.0112 L38.6876 -14.0112 Q38.7813 -12.7456 38.7813 -11.6987 L38.7813 -6.8237 L37.8594 -6.8237 L37.8594 -15.3862 L38.9844 -15.3862 L43.6563 -8.23 L43.7032 -8.23 Q43.7032 -8.3862 43.6563 -9.2456 Q43.6094 -10.105 43.6251 -10.48 L43.6251 -15.3862 L44.5626 -15.3862 L44.5626 -6.8237 Z" /><ns0:path style="fill:none;" d="M68.1622 1.0177 L68.619 1.221 L68.9536 0.8494" /><ns0:path style="fill:none;" d="M44.2967 -40.3177 L44.349 -40.815 L44.8381 -40.919" /><ns0:path style="fill:none;" d="M88.3574 -20.7004 L88.692 -21.072 L88.442 -21.505" /><ns0:path style="fill:rgb(0,5,255); stroke:none;" d="M77.0436 -42.8988 L75.9029 -42.8988 L71.2154 -50.0863 L71.1686 -50.0863 Q71.2623 -48.8206 71.2623 -47.7738 L71.2623 -42.8988 L70.3404 -42.8988 L70.3404 -51.4613 L71.4654 -51.4613 L76.1373 -44.305 L76.1842 -44.305 Q76.1842 -44.4613 76.1373 -45.3206 Q76.0904 -46.18 76.1061 -46.555 L76.1061 -51.4613 L77.0436 -51.4613 L77.0436 -42.8988 Z" /></ns0:g></ns0:g></ns0:svg></ns0:svg></ns0:svg></ns0:svg></g></svg>