<svg width="268" viewBox="0 0 268 232" style="fill-opacity:1; color-rendering:auto; color-interpolation:auto; text-rendering:auto; stroke:black; stroke-linecap:square; stroke-miterlimit:10; shape-rendering:auto; stroke-opacity:1; fill:black; stroke-dasharray:none; font-weight:normal; stroke-width:1; font-family:'Open Sans'; font-style:normal; stroke-linejoin:miter; font-size:12; stroke-dashoffset:0; image-rendering:auto;" height="232" class="cas-substance-image" xmlns:xlink="http://www.w3.org/1999/xlink" xmlns="http://www.w3.org/2000/svg"><svg class="cas-substance-single-component"><rect y="0" x="0" width="268" stroke="none" ry="7" rx="7" height="232" fill="white" class="cas-substance-group"/><svg y="0" x="0" width="268" viewBox="0 0 268 232" style="fill:black;" height="232" class="cas-substance-single-component-image"><svg><g><clipPath id="clipPath_49c6ca6c259b419fbc9b8ad0e7fe970a1" clipPathUnits="userSpaceOnUse"><path d="M-53.411 -46.035 L-53.411 5.301 L-13.411 5.301 L-13.411 -3.8082 L-13.411 -3.8082 L-51.7119 -17.1439 L-49.739 -22.8103 L-13.411 -10.1615 L-13.411 -10.1615 L-13.411 -46.035 Z"/></clipPath><clipPath id="clipPath_49c6ca6c259b419fbc9b8ad0e7fe970a2" clipPathUnits="userSpaceOnUse"><path d="M-0.207 -2.8207 L-0.207 35.3491 L-0.207 35.3491 L16.0369 6.2457 L-0.207 -2.8207 ZM-26.9381 -17.7405 L-46.4329 17.1873 L-6.207 39.6392 L-6.207 39.6392 L-6.207 -6.1696 L-6.207 -6.1696 L-26.9381 -17.7405 Z"/></clipPath><clipPath id="clipPath_49c6ca6c259b419fbc9b8ad0e7fe970a3" clipPathUnits="userSpaceOnUse"><path d="M-41.4752 -17.1314 L-84.6884 11.98 L-62.3398 45.1544 L-59.8131 43.4522 L-59.8131 43.4522 L-79.1534 16.5308 L-74.2805 13.0301 L-54.8347 40.0984 L-19.1266 16.043 L-41.4752 -17.1314 Z"/></clipPath><clipPath id="clipPath_49c6ca6c259b419fbc9b8ad0e7fe970a4" clipPathUnits="userSpaceOnUse"><path d="M-77.3068 -58.2614 L-83.4264 -47.2981 L-52.577 -30.0784 L-52.577 -30.0784 L-57.7379 -55.1817 L-57.7379 -55.1817 L-77.3068 -58.2614 ZM-63.9305 -82.2253 L-74.1902 -63.8448 L-57.3986 -61.2021 L-57.3986 -61.2021 L-53.0346 -62.0993 L-52.6981 -60.4623 L-52.6981 -60.4623 L-51.0472 -60.2025 L-51.7398 -55.8014 L-45.6574 -26.216 L-39.8845 -22.9937 L-20.3886 -57.9209 L-63.9305 -82.2253 Z"/></clipPath><clipPath id="clipPath_49c6ca6c259b419fbc9b8ad0e7fe970a5" clipPathUnits="userSpaceOnUse"><path d="M21.8501 14.1813 L-17.3304 22.2364 L-6.9911 72.5277 L32.1894 64.4726 L31.3849 60.5595 L31.3849 60.5595 L31.334 60.6852 L-7.8095 44.8141 L-5.555 39.2538 L29.9657 53.656 L29.9657 53.656 L21.8501 14.1813 Z"/></clipPath><clipPath id="clipPath_49c6ca6c259b419fbc9b8ad0e7fe970a6" clipPathUnits="userSpaceOnUse"><path d="M-98.4738 -12.2755 L-110.5283 9.1433 L-70.3595 15.4433 L-71.2891 21.3708 L-112.1155 14.9677 L-111.4624 10.803 L-111.4624 10.803 L-118.0922 22.5831 L-76.9452 45.7405 L-57.3268 10.8819 L-98.4738 -12.2755 Z"/></clipPath><clipPath id="clipPath_49c6ca6c259b419fbc9b8ad0e7fe970a7" clipPathUnits="userSpaceOnUse"><path d="M-79.8371 -80.964 L-120.3389 -49.049 L-95.5819 -17.631 L-55.0801 -49.546 L-59.7734 -55.502 L-59.7734 -55.502 L-95.4158 -61.1115 L-94.483 -67.0385 L-65.2371 -62.4357 L-65.2371 -62.4357 L-79.8371 -80.964 Z"/></clipPath><clipPath id="clipPath_49c6ca6c259b419fbc9b8ad0e7fe970a8" clipPathUnits="userSpaceOnUse"><path d="M-6.5007 -109.2305 L-12.9121 -85.3383 L-12.9121 -85.3383 L23.9064 -68.209 L23.9064 -68.209 L32.1325 -98.8633 L-6.5007 -109.2305 ZM-14.4909 -79.4552 L-17.2735 -69.0857 L21.3596 -58.7185 L22.3277 -62.3259 L-14.4909 -79.4552 Z"/></clipPath><clipPath id="clipPath_49c6ca6c259b419fbc9b8ad0e7fe970a9" clipPathUnits="userSpaceOnUse"><path d="M9.5672 -86.7888 L-10.0711 -51.9414 L24.6585 -32.3695 L24.6585 -32.3695 L17.0363 -69.4471 L22.9134 -70.6553 L31.5866 -28.4652 L31.5866 -28.4652 L36.5638 -25.6602 L56.2021 -60.5076 L9.5672 -86.7888 Z"/></clipPath><clipPath id="clipPath_49c6ca6c259b419fbc9b8ad0e7fe970a10" clipPathUnits="userSpaceOnUse"><path d="M8.6618 44.7288 L7.5292 84.7128 L18.2264 85.0158 L18.2264 85.0158 L27.0605 52.0966 L32.8554 53.6517 L24.3918 85.1905 L24.3918 85.1905 L60.3532 86.2092 L61.4858 46.2252 L8.6618 44.7288 Z"/></clipPath><clipPath id="clipPath_49c6ca6c259b419fbc9b8ad0e7fe970a11" clipPathUnits="userSpaceOnUse"><path d="M23.116 -48.675 L23.116 1.479 L63.116 1.479 L63.116 -7.8772 L24.344 -24.9863 L26.7663 -30.4756 L63.116 -14.4354 L63.116 -14.4354 L63.116 -48.675 Z"/></clipPath><clipPath id="clipPath_49c6ca6c259b419fbc9b8ad0e7fe970a12" clipPathUnits="userSpaceOnUse"><path d="M73.212 -3.5611 L73.212 35.3857 L92.2802 11.9605 L73.212 -3.5611 ZM52.8336 -20.1492 L27.5818 10.8725 L67.0284 42.9822 L67.337 42.603 L67.212 42.603 L67.212 -8.4451 L52.8336 -20.1492 Z"/></clipPath><clipPath id="clipPath_49c6ca6c259b419fbc9b8ad0e7fe970a13" clipPathUnits="userSpaceOnUse"><path d="M-49.1095 51.4906 L-43.3146 53.0457 L-53.2925 90.2264 L-59.0874 88.6713 L-49.1095 51.4906 ZM-61.7056 49.0719 L-68.8247 88.4333 L-17.7044 97.6791 L-10.5853 58.3177 L-61.7056 49.0719 Z"/></clipPath><clipPath id="clipPath_49c6ca6c259b419fbc9b8ad0e7fe970a14" clipPathUnits="userSpaceOnUse"><path d="M-121.8294 -4.4673 L-138.1169 32.7114 L-118.7314 41.204 L-118.7314 41.204 L-111.7086 15.0316 L-111.7086 15.0316 L-112.1155 14.9677 L-111.1859 9.0402 L-110.1448 9.2035 L-109.8717 8.1856 L-104.0766 9.7406 L-104.1834 10.1384 L-104.1834 10.1384 L-85.8197 13.0185 L-85.8197 13.0185 L-85.191 11.5836 L-121.8294 -4.4673 ZM-105.7472 15.9665 L-113.1726 43.6393 L-101.4786 48.7623 L-88.3093 18.7014 L-88.3093 18.7014 L-105.7472 15.9665 Z"/></clipPath><clipPath id="clipPath_49c6ca6c259b419fbc9b8ad0e7fe970a15" clipPathUnits="userSpaceOnUse"><path d="M-63.0759 -116.1281 L-99.7104 -106.415 L-90.6646 -72.2973 L-79.205 -98.4694 L-73.7088 -96.0629 L-85.6648 -68.7569 L-85.6648 -68.7569 L-52.8246 -77.464 L-63.0759 -116.1281 Z"/></clipPath><clipPath id="clipPath_49c6ca6c259b419fbc9b8ad0e7fe970a16" clipPathUnits="userSpaceOnUse"><path d="M-33.7958 -112.7307 L-15.5038 -83.7792 L-20.5762 -80.5743 L-38.8682 -109.5258 L-33.7958 -112.7307 ZM-16.1515 -120.6138 L-67.3521 -115.3462 L-63.2585 -75.5562 L-12.0579 -80.8238 L-16.1515 -120.6138 Z"/></clipPath><clipPath id="clipPath_49c6ca6c259b419fbc9b8ad0e7fe970a17" clipPathUnits="userSpaceOnUse"><path d="M-105.3968 -67.1961 L-136.0153 -41.4568 L-117.9112 -19.9209 L-87.2927 -45.6602 L-94.4761 -54.2052 L-116.4995 -24.9238 L-121.2946 -28.5303 L-98.4385 -58.9188 L-105.3968 -67.1961 Z"/></clipPath><clipPath id="clipPath_49c6ca6c259b419fbc9b8ad0e7fe970a18" clipPathUnits="userSpaceOnUse"><path d="M39.6239 -117.3236 L57.912 -88.3685 L52.8391 -85.1644 L34.551 -114.1195 L39.6239 -117.3236 ZM9.4749 -120.6351 L6.7307 -80.7294 L59.5401 -77.0979 L62.2843 -117.0036 L9.4749 -120.6351 Z"/></clipPath><clipPath id="clipPath_49c6ca6c259b419fbc9b8ad0e7fe970a19" clipPathUnits="userSpaceOnUse"><path d="M60.3124 13.104 L44.2813 46.6871 L67.212 36.8737 L67.212 16.3975 L60.3124 13.104 ZM73.212 19.2617 L73.212 36.3318 L74.8399 40.1356 L73.212 40.8323 L73.212 40.8323 L73.212 42.603 L69.0744 42.603 L40.366 54.889 L37.5065 60.8794 L73.6046 78.111 L96.4105 30.3356 L73.212 19.2617 Z"/></clipPath><clipPath id="clipPath_49c6ca6c259b419fbc9b8ad0e7fe970a20" clipPathUnits="userSpaceOnUse"><path d="M-104.2337 22.5915 L-108.3102 25.5183 L-114.7173 49.3964 L-120.5124 47.8414 L-116.0048 31.0427 L-136.7264 45.9201 L-105.0193 90.0825 L-72.5266 66.7539 L-104.2337 22.5915 Z"/></clipPath><clipPath id="clipPath_49c6ca6c259b419fbc9b8ad0e7fe970a21" clipPathUnits="userSpaceOnUse"><path d="M-76.0541 61.52 L-109.8715 82.8832 L-92.8669 109.801 L-59.0495 88.4378 L-59.1762 88.2372 L-59.1762 88.2372 L-95.4213 82.4942 L-94.4823 76.5681 L-63.4407 81.4867 L-63.4407 81.4867 L-76.0541 61.52 Z"/></clipPath><clipPath id="clipPath_49c6ca6c259b419fbc9b8ad0e7fe970a22" clipPathUnits="userSpaceOnUse"><path d="M72.5743 -110.6047 L37.9971 -90.4945 L61.3427 -50.3543 L88.5207 -66.1611 L88.5207 -66.1611 L48.6251 -89.2158 L51.6272 -94.4108 L94.4973 -69.6371 L95.9199 -70.4645 L72.5743 -110.6047 Z"/></clipPath><clipPath id="clipPath_49c6ca6c259b419fbc9b8ad0e7fe970a23" clipPathUnits="userSpaceOnUse"><path d="M86.4184 -81.5537 L61.2451 -50.4683 L98.2736 -20.4823 L101.3318 -24.2587 L98.7633 -23.7309 L89.2225 -70.1553 L95.0997 -71.3632 L104.0822 -27.6551 L104.0822 -27.6551 L123.4469 -51.5677 L86.4184 -81.5537 Z"/></clipPath><clipPath id="clipPath_49c6ca6c259b419fbc9b8ad0e7fe970a24" clipPathUnits="userSpaceOnUse"><path d="M97.3003 48.6433 L57.1489 71.0511 L76.642 105.9799 L116.8151 83.5599 L101.5046 56.1257 L94.8385 80.9654 L89.0436 79.4103 L97.3003 48.6433 Z"/></clipPath><clipPath id="clipPath_49c6ca6c259b419fbc9b8ad0e7fe970a25" clipPathUnits="userSpaceOnUse"><path d="M61.9693 68.0651 L31.6795 88.7944 L31.6795 88.7944 L58.0129 100.3626 L55.5997 105.8559 L25.8473 92.7857 L25.8473 92.7857 L24.6999 93.5709 L47.2907 126.5809 L84.5601 101.0751 L61.9693 68.0651 Z"/></clipPath><clipPath id="clipPath_49c6ca6c259b419fbc9b8ad0e7fe970a26" clipPathUnits="userSpaceOnUse"><path d="M-3.8877 78.138 L-8.0625 97.3232 L-8.0625 97.3232 L21.4024 83.6411 L21.4024 83.6411 L-3.8877 78.138 ZM23.3839 84.0723 L25.3947 88.4026 L-9.6638 104.682 L-9.6638 104.682 L-12.3928 117.2233 L38.5017 128.298 L47.0068 89.2127 L23.3839 84.0723 Z"/></clipPath><clipPath id="clipPath_49c6ca6c259b419fbc9b8ad0e7fe970a27" clipPathUnits="userSpaceOnUse"><path d="M-9.6121 78.7883 L-38.1516 92.2421 L-38.1516 92.2421 L-15.2945 105.4769 L-18.301 110.6693 L-44.752 95.3536 L-44.752 95.3536 L-46.2491 96.0594 L-29.1929 132.2407 L7.4441 114.9696 L-9.6121 78.7883 Z"/></clipPath><clipPath id="clipPath_49c6ca6c259b419fbc9b8ad0e7fe970a28" clipPathUnits="userSpaceOnUse"><path d="M101.6549 -32.7579 L124.9886 7.3613 L119.8021 10.3779 L96.4684 -29.7413 L101.6549 -32.7579 ZM87.946 -42.135 L87.946 11.547 L127.946 11.547 L127.946 -42.135 Z"/></clipPath><clipPath id="clipPath_49c6ca6c259b419fbc9b8ad0e7fe970a29" clipPathUnits="userSpaceOnUse"><path d="M122.8521 -6.0547 L89.0344 15.3079 L102.4411 36.5311 L102.4411 36.5311 L119.4173 0.9516 L124.8325 3.5354 L106.2284 42.5266 L107.1129 43.9267 L140.9306 22.5641 L122.8521 -6.0547 Z"/></clipPath><g transform="translate(134,116)" style="text-rendering:geometricPrecision; color-rendering:optimizeQuality; color-interpolation:linearRGB; stroke-linecap:butt; image-rendering:optimizeQuality;"><line y2="-42.285" y1="1.551" x2="-33.411" x1="-33.411" style="fill:none; clip-path:url(#clipPath_49c6ca6c259b419fbc9b8ad0e7fe970a1);"/><line y2="-40.2643" y1="-0.4697" x2="-36.911" x1="-36.911" style="fill:none; clip-path:url(#clipPath_49c6ca6c259b419fbc9b8ad0e7fe970a1);"/><line y2="21.882" y1="1.551" x2="3.015" x1="-33.411" style="fill:none; clip-path:url(#clipPath_49c6ca6c259b419fbc9b8ad0e7fe970a2);"/><line y2="26.472" y1="1.551" x2="-70.404" x1="-33.411" style="fill:none; clip-path:url(#clipPath_49c6ca6c259b419fbc9b8ad0e7fe970a3);"/><line y2="-62.934" y1="-42.285" x2="-70.404" x1="-33.411" style="fill:none; clip-path:url(#clipPath_49c6ca6c259b419fbc9b8ad0e7fe970a4);"/><line y2="-67.524" y1="-42.285" x2="3.015" x1="-33.411" style="fill:none;"/><line y2="64.827" y1="21.882" x2="11.844" x1="3.015" style="fill:none; clip-path:url(#clipPath_49c6ca6c259b419fbc9b8ad0e7fe970a5);"/><line y2="-2.271" y1="21.882" x2="43.116" x1="3.015" style="fill:none;"/><line y2="-4.2266" y1="17.8412" x2="39.5792" x1="2.9402" style="fill:none;"/><line y2="69.42" y1="26.472" x2="-61.575" x1="-70.404" style="fill:none;"/><line y2="6.993" y1="26.472" x2="-105.015" x1="-70.404" style="fill:none; clip-path:url(#clipPath_49c6ca6c259b419fbc9b8ad0e7fe970a6);"/><line y2="4.934" y1="22.4308" x2="-101.5374" x1="-70.4484" style="fill:none; clip-path:url(#clipPath_49c6ca6c259b419fbc9b8ad0e7fe970a6);"/><line y2="-95.835" y1="-62.934" x2="-61.575" x1="-70.404" style="fill:none;"/><line y2="-35.661" y1="-62.934" x2="-105.015" x1="-70.404" style="fill:none; clip-path:url(#clipPath_49c6ca6c259b419fbc9b8ad0e7fe970a7);"/><line y2="-34.1626" y1="-58.9342" x2="-101.2616" x1="-69.8249" style="fill:none; clip-path:url(#clipPath_49c6ca6c259b419fbc9b8ad0e7fe970a7);"/><line y2="-100.425" y1="-67.524" x2="11.844" x1="3.015" style="fill:none; clip-path:url(#clipPath_49c6ca6c259b419fbc9b8ad0e7fe970a8);"/><line y2="-44.925" y1="-67.524" x2="43.116" x1="3.015" style="fill:none; clip-path:url(#clipPath_49c6ca6c259b419fbc9b8ad0e7fe970a9);"/><line y2="-42.8679" y1="-63.4828" x2="39.6372" x1="3.0571" style="fill:none; clip-path:url(#clipPath_49c6ca6c259b419fbc9b8ad0e7fe970a9);"/><line y2="66.111" y1="64.827" x2="57.171" x1="11.844" style="fill:none; clip-path:url(#clipPath_49c6ca6c259b419fbc9b8ad0e7fe970a10);"/><line y2="77.331" y1="64.827" x2="-17.835" x1="11.844" style="fill:none;"/><line y2="78.5443" y1="68.837" x2="-11.7002" x1="11.3407" style="fill:none;"/><line y2="-44.925" y1="-2.271" x2="43.116" x1="43.116" style="fill:none; clip-path:url(#clipPath_49c6ca6c259b419fbc9b8ad0e7fe970a11);"/><line y2="25.104" y1="-2.271" x2="76.746" x1="43.116" style="fill:none; clip-path:url(#clipPath_49c6ca6c259b419fbc9b8ad0e7fe970a12);"/><line y2="77.331" y1="69.42" x2="-17.835" x1="-61.575" style="fill:none; clip-path:url(#clipPath_49c6ca6c259b419fbc9b8ad0e7fe970a13);"/><line y2="75.372" y1="69.42" x2="-90.96" x1="-61.575" style="fill:none;"/><line y2="77.6877" y1="73.2515" x2="-84.7621" x1="-62.8607" style="fill:none;"/><line y2="-35.661" y1="6.993" x2="-105.015" x1="-105.015" style="fill:none;"/><line y2="37.302" y1="6.993" x2="-118.293" x1="-105.015" style="fill:none; clip-path:url(#clipPath_49c6ca6c259b419fbc9b8ad0e7fe970a14);"/><line y2="-88.044" y1="-95.835" x2="-90.96" x1="-61.575" style="fill:none; clip-path:url(#clipPath_49c6ca6c259b419fbc9b8ad0e7fe970a15);"/><line y2="-100.335" y1="-95.835" x2="-17.835" x1="-61.575" style="fill:none; clip-path:url(#clipPath_49c6ca6c259b419fbc9b8ad0e7fe970a16);"/><line y2="-103.6098" y1="-99.5234" x2="-20.2033" x1="-59.9231" style="fill:none; clip-path:url(#clipPath_49c6ca6c259b419fbc9b8ad0e7fe970a16);"/><line y2="-51.456" y1="-35.661" x2="-118.293" x1="-105.015" style="fill:none; clip-path:url(#clipPath_49c6ca6c259b419fbc9b8ad0e7fe970a17);"/><line y2="-100.335" y1="-100.425" x2="-17.835" x1="11.844" style="fill:none;"/><line y2="-97.308" y1="-100.425" x2="57.171" x1="11.844" style="fill:none; clip-path:url(#clipPath_49c6ca6c259b419fbc9b8ad0e7fe970a18);"/><line y2="-100.9384" y1="-103.7781" x2="55.3951" x1="14.1001" style="fill:none; clip-path:url(#clipPath_49c6ca6c259b419fbc9b8ad0e7fe970a18);"/><line y2="-63.651" y1="-44.925" x2="76.746" x1="43.116" style="fill:none;"/><line y2="25.104" y1="66.111" x2="76.746" x1="57.171" style="fill:none; clip-path:url(#clipPath_49c6ca6c259b419fbc9b8ad0e7fe970a19);"/><line y2="86.688" y1="66.111" x2="70.17" x1="57.171" style="fill:none;"/><line y2="83.1103" y1="65.9501" x2="72.0498" x1="61.2092" style="fill:none;"/><line y2="98.478" y1="77.331" x2="-4.476" x1="-17.835" style="fill:none;"/><line y2="7.797" y1="25.104" x2="107.946" x1="76.746" style="fill:none;"/><line y2="5.7166" y1="21.0631" x2="104.4812" x1="76.8153" style="fill:none;"/><line y2="37.302" y1="75.372" x2="-118.293" x1="-90.96" style="fill:none; clip-path:url(#clipPath_49c6ca6c259b419fbc9b8ad0e7fe970a20);"/><line y2="95.949" y1="75.372" x2="-77.961" x1="-90.96" style="fill:none; clip-path:url(#clipPath_49c6ca6c259b419fbc9b8ad0e7fe970a21);"/><line y2="22.719" y1="37.302" x2="-130.716" x1="-118.293" style="fill:none;"/><line y2="-51.456" y1="-88.044" x2="-118.293" x1="-90.96" style="fill:none;"/><line y2="-93.831" y1="-88.044" x2="-77.961" x1="-90.96" style="fill:none;"/><line y2="-106.281" y1="-100.335" x2="-4.476" x1="-17.835" style="fill:none;"/><line y2="-23.46" y1="-51.456" x2="-130.716" x1="-118.293" style="fill:none;"/><line y2="-29.5833" y1="-44.4753" x2="-124.1697" x1="-117.5615" style="fill:none;"/><line y2="-63.651" y1="-97.308" x2="76.746" x1="57.171" style="fill:none; clip-path:url(#clipPath_49c6ca6c259b419fbc9b8ad0e7fe970a22);"/><line y2="-103.092" y1="-97.308" x2="70.17" x1="57.171" style="fill:none;"/><line y2="-38.385" y1="-63.651" x2="107.946" x1="76.746" style="fill:none; clip-path:url(#clipPath_49c6ca6c259b419fbc9b8ad0e7fe970a23);"/><line y2="-42.3767" y1="-65.0993" x2="108.5783" x1="80.519" style="fill:none; clip-path:url(#clipPath_49c6ca6c259b419fbc9b8ad0e7fe970a23);"/><line y2="67.923" y1="86.688" x2="103.794" x1="70.17" style="fill:none; clip-path:url(#clipPath_49c6ca6c259b419fbc9b8ad0e7fe970a24);"/><line y2="107.958" y1="86.688" x2="39.09" x1="70.17" style="fill:none; clip-path:url(#clipPath_49c6ca6c259b419fbc9b8ad0e7fe970a25);"/><line y2="107.958" y1="98.478" x2="39.09" x1="-4.476" style="fill:none; clip-path:url(#clipPath_49c6ca6c259b419fbc9b8ad0e7fe970a26);"/><line y2="112.551" y1="98.478" x2="-34.329" x1="-4.476" style="fill:none; clip-path:url(#clipPath_49c6ca6c259b419fbc9b8ad0e7fe970a27);"/><line y2="-38.385" y1="7.797" x2="107.946" x1="107.946" style="fill:none; clip-path:url(#clipPath_49c6ca6c259b419fbc9b8ad0e7fe970a28);"/><line y2="30.075" y1="7.797" x2="122.019" x1="107.946" style="fill:none; clip-path:url(#clipPath_49c6ca6c259b419fbc9b8ad0e7fe970a29);"/><line y2="112.551" y1="95.949" x2="-34.329" x1="-77.961" style="fill:none;"/><line y2="80.118" y1="95.949" x2="-91.248" x1="-77.961" style="fill:none;"/><line y2="-23.46" y1="22.719" x2="-130.716" x1="-130.716" style="fill:none;"/><line y2="44.997" y1="22.719" x2="-116.643" x1="-130.716" style="fill:none;"/><line y2="-63.492" y1="-93.831" x2="-91.245" x1="-77.961" style="fill:none;"/><line y2="-107.958" y1="-93.831" x2="-34.329" x1="-77.961" style="fill:none;"/><line y2="-107.958" y1="-106.281" x2="-34.329" x1="-4.476" style="fill:none;"/><line y2="-112.551" y1="-106.281" x2="39.09" x1="-4.476" style="fill:none;"/><line y2="-108.7988" y1="-103.1045" x2="37.5885" x1="-1.9773" style="fill:none;"/><line y2="-29.724" y1="-23.46" x2="-116.643" x1="-130.716" style="fill:none;"/><line y2="-112.551" y1="-103.092" x2="39.09" x1="70.17" style="fill:none;"/><line y2="-75.687" y1="-103.092" x2="103.794" x1="70.17" style="fill:none;"/><line y2="-77.3786" y1="-99.1023" x2="96.1786" x1="69.5251" style="fill:none;"/><line y2="-44.649" y1="-38.385" x2="122.019" x1="107.946" style="fill:none;"/><line y2="30.075" y1="67.923" x2="122.019" x1="103.794" style="fill:none;"/><line y2="30.3772" y1="64.5839" x2="117.9889" x1="101.5173" style="fill:none;"/><line y2="76.566" y1="67.923" x2="92.913" x1="103.794" style="fill:none;"/><line y2="101.601" y1="107.958" x2="53.373" x1="39.09" style="fill:none;"/><line y2="106.194" y1="112.551" x2="-20.043" x1="-34.329" style="fill:none;"/><line y2="-2.337" y1="30.075" x2="130.716" x1="122.019" style="fill:none;"/><line y2="44.997" y1="80.118" x2="-116.643" x1="-91.248" style="fill:none;"/><line y2="85.827" y1="80.118" x2="-55.218" x1="-91.248" style="fill:none;"/><line y2="12.585" y1="44.997" x2="-107.946" x1="-116.643" style="fill:none;"/><line y2="15.4437" y1="43.9524" x2="-105.0893" x1="-112.7389" style="fill:none;"/><line y2="-29.724" y1="-63.492" x2="-116.643" x1="-91.245" style="fill:none;"/><line y2="-29.2351" y1="-59.7733" x2="-112.6312" x1="-89.6625" style="fill:none;"/><line y2="-57.822" y1="-63.492" x2="-55.218" x1="-91.245" style="fill:none;"/><line y2="-85.347" y1="-107.958" x2="-20.043" x1="-34.329" style="fill:none;"/><line y2="-88.9248" y1="-104.4867" x2="-18.1634" x1="-27.9957" style="fill:none;"/><line y2="-89.937" y1="-112.551" x2="53.373" x1="39.09" style="fill:none;"/><line y2="12.585" y1="-29.724" x2="-107.946" x1="-116.643" style="fill:none;"/><line y2="-44.649" y1="-75.687" x2="122.019" x1="103.794" style="fill:none;"/><line y2="-67.086" y1="-75.687" x2="92.916" x1="103.794" style="fill:none;"/><line y2="-2.337" y1="-44.649" x2="130.716" x1="122.019" style="fill:none;"/><line y2="-3.6117" y1="-37.1473" x2="126.8808" x1="119.9878" style="fill:none;"/><line y2="101.601" y1="76.566" x2="53.373" x1="92.913" style="fill:none;"/><line y2="46.629" y1="76.566" x2="100.947" x1="92.913" style="fill:none;"/><line y2="50.0472" y1="73.7072" x2="96.4059" x1="90.0564" style="fill:none;"/><line y2="87.261" y1="101.601" x2="20.73" x1="53.373" style="fill:none;"/><line y2="85.827" y1="106.194" x2="-55.218" x1="-20.043" style="fill:none;"/><line y2="83.8106" y1="102.1525" x2="-51.7155" x1="-20.0379" style="fill:none;"/><line y2="87.261" y1="106.194" x2="20.73" x1="-20.043" style="fill:none;"/><line y2="5.628" y1="-2.337" x2="120.51" x1="130.716" style="fill:none;"/><line y2="55.89" y1="85.827" x2="-47.184" x1="-55.218" style="fill:none;"/><line y2="17.826" y1="12.585" x2="-74.529" x1="-107.946" style="fill:none;"/><line y2="-85.347" y1="-57.822" x2="-20.043" x1="-55.218" style="fill:none;"/><line y2="-18.744" y1="-57.822" x2="-47.184" x1="-55.218" style="fill:none;"/><line y2="-21.4282" y1="-56.5475" x2="-44.1626" x1="-51.3828" style="fill:none;"/><line y2="-66.378" y1="-85.347" x2="20.73" x1="-20.043" style="fill:none;"/><line y2="-67.086" y1="-89.937" x2="92.916" x1="53.373" style="fill:none;"/><line y2="-65.0667" y1="-85.8955" x2="89.4152" x1="53.3714" style="fill:none;"/><line y2="-66.378" y1="-89.937" x2="20.73" x1="53.373" style="fill:none;"/><line y2="-28.008" y1="-67.086" x2="100.947" x1="92.916" style="fill:none;"/><line y2="5.628" y1="46.629" x2="120.51" x1="100.947" style="fill:none;"/><line y2="38.853" y1="46.629" x2="70.212" x1="100.947" style="fill:none;"/><line y2="56.496" y1="87.261" x2="28.986" x1="20.73" style="fill:none;"/><line y2="57.5405" y1="84.4022" x2="25.0819" x1="17.8733" style="fill:none;"/><line y2="-28.008" y1="5.628" x2="100.947" x1="120.51" style="fill:none;"/><line y2="-28.0209" y1="-1.3505" x2="104.9884" x1="120.5002" style="fill:none;"/><line y2="17.826" y1="55.89" x2="-74.529" x1="-47.184" style="fill:none;"/><line y2="21.5092" y1="56.2909" x2="-76.1925" x1="-51.2055" style="fill:none;"/><line y2="43.443" y1="55.89" x2="-3.207" x1="-47.184" style="fill:none;"/><line y2="-18.744" y1="17.826" x2="-47.184" x1="-74.529" style="fill:none;"/><line y2="-3.432" y1="-18.744" x2="-3.207" x1="-47.184" style="fill:none;"/><line y2="-26.217" y1="-66.378" x2="28.986" x1="20.73" style="fill:none;"/><line y2="-28.9011" y1="-65.1034" x2="32.0074" x1="24.5652" style="fill:none;"/><line y2="-8.025" y1="-28.008" x2="70.212" x1="100.947" style="fill:none;"/><line y2="56.496" y1="38.853" x2="28.986" x1="70.212" style="fill:none;"/><line y2="-8.025" y1="38.853" x2="70.212" x1="70.212" style="fill:none;"/><line y2="-6.0043" y1="36.8323" x2="73.712" x1="73.712" style="fill:none;"/><line y2="43.443" y1="56.496" x2="-3.207" x1="28.986" style="fill:none;"/><line y2="-3.432" y1="43.443" x2="-3.207" x1="-3.207" style="fill:none;"/><line y2="-1.4113" y1="41.4223" x2="-6.707" x1="-6.707" style="fill:none;"/><line y2="-26.217" y1="-3.432" x2="28.986" x1="-3.207" style="fill:none;"/><line y2="-8.025" y1="-26.217" x2="70.212" x1="28.986" style="fill:none;"/><path style="fill:none; stroke-miterlimit:5;" d="M-33.411 1.051 L-33.411 1.551 L-32.9744 1.7947"/><path style="fill:none; stroke-miterlimit:5;" d="M-33.411 -41.785 L-33.411 -42.285 L-33 -42.5698"/><path style="fill:none; stroke-miterlimit:5;" d="M3.4433 21.624 L3.015 21.882 L2.5784 21.6383"/><path style="fill:none; stroke-miterlimit:5;" d="M-70.8397 26.2268 L-70.404 26.472 L-69.9893 26.1926"/><path style="fill:none; stroke-miterlimit:5;" d="M-70.7967 -62.6245 L-70.404 -62.934 L-69.9674 -62.6903"/><path style="fill:none; stroke-miterlimit:5;" d="M3.4506 -67.2785 L3.015 -67.524 L3.1446 -68.0069"/><path style="fill:none; stroke-miterlimit:5;" d="M11.3832 65.0211 L11.844 64.827 L11.7433 64.3372"/><path style="fill:none; stroke-miterlimit:5;" d="M42.6877 -2.013 L43.116 -2.271 L43.116 -2.771"/><path style="fill:none; stroke-miterlimit:5;" d="M-62.065 69.5193 L-61.575 69.42 L-61.6757 68.9302"/><path style="fill:none; stroke-miterlimit:5;" d="M-104.5793 7.2382 L-105.015 6.993 L-105.015 6.493"/><path style="fill:none; stroke-miterlimit:5;" d="M-61.0776 -95.8862 L-61.575 -95.835 L-61.7046 -95.3521"/><path style="fill:none; stroke-miterlimit:5;" d="M-104.6223 -35.9705 L-105.015 -35.661 L-105.015 -35.161"/><path style="fill:none; stroke-miterlimit:5;" d="M12.3428 -100.3907 L11.844 -100.425 L11.7144 -99.9421"/><path style="fill:none; stroke-miterlimit:5;" d="M42.6804 -45.1705 L43.116 -44.925 L43.116 -44.425"/><path style="fill:none; stroke-miterlimit:5;" d="M57.438 66.5337 L57.171 66.111 L56.6712 66.0968"/><path style="fill:none; stroke-miterlimit:5;" d="M-17.3742 77.1369 L-17.835 77.331 L-18.327 77.242"/><path style="fill:none; stroke-miterlimit:5;" d="M77.1832 24.8615 L76.746 25.104 L76.5306 25.5552"/><path style="fill:none; stroke-miterlimit:5;" d="M-90.4699 75.2727 L-90.96 75.372 L-90.693 75.7947"/><path style="fill:none; stroke-miterlimit:5;" d="M-118.6172 36.9214 L-118.293 37.302 L-118.0924 36.844"/><path style="fill:none; stroke-miterlimit:5;" d="M-90.5032 -88.2474 L-90.96 -88.044 L-91.2592 -87.6434"/><path style="fill:none; stroke-miterlimit:5;" d="M-18.3324 -100.2838 L-17.835 -100.335 L-17.335 -100.3365"/><path style="fill:none; stroke-miterlimit:5;" d="M-118.4958 -50.999 L-118.293 -51.456 L-117.9938 -51.8566"/><path style="fill:none; stroke-miterlimit:5;" d="M56.6722 -97.3423 L57.171 -97.308 L57.4224 -96.8758"/><path style="fill:none; stroke-miterlimit:5;" d="M77.1346 -63.3363 L76.746 -63.651 L76.3092 -63.4078"/><path style="fill:none; stroke-miterlimit:5;" d="M69.903 86.2653 L70.17 86.688 L70.6066 86.4443"/><path style="fill:none; stroke-miterlimit:5;" d="M-4.9283 98.6912 L-4.476 98.478 L-4.743 98.0553"/><path style="fill:none; stroke-miterlimit:5;" d="M107.5088 8.0395 L107.946 7.797 L107.946 7.297"/><path style="fill:none; stroke-miterlimit:5;" d="M-78.2824 95.566 L-77.961 95.949 L-78.228 95.5263"/><path style="fill:none; stroke-miterlimit:5;" d="M-130.716 22.219 L-130.716 22.719 L-130.449 23.1417"/><path style="fill:none; stroke-miterlimit:5;" d="M-78.4178 -93.6276 L-77.961 -93.831 L-78.1615 -93.373"/><path style="fill:none; stroke-miterlimit:5;" d="M-3.9811 -106.3522 L-4.476 -106.281 L-4.9328 -106.0777"/><path style="fill:none; stroke-miterlimit:5;" d="M-130.5132 -23.917 L-130.716 -23.46 L-130.716 -22.96"/><path style="fill:none; stroke-miterlimit:5;" d="M70.5576 -102.7761 L70.17 -103.092 L69.6917 -103.2376"/><path style="fill:none; stroke-miterlimit:5;" d="M107.5574 -38.6997 L107.946 -38.385 L107.946 -37.885"/><path style="fill:none; stroke-miterlimit:5;" d="M104.0109 67.4725 L103.794 67.923 L103.3574 68.1667"/><path style="fill:none; stroke-miterlimit:5;" d="M39.5468 107.7547 L39.09 107.958 L39.5026 107.6756"/><path style="fill:none; stroke-miterlimit:5;" d="M-34.7963 112.3732 L-34.329 112.551 L-33.8722 112.3477"/><path style="fill:none; stroke-miterlimit:5;" d="M121.8021 30.5255 L122.019 30.075 L121.752 29.6523"/><path style="fill:none; stroke-miterlimit:5;" d="M-90.9266 80.501 L-91.248 80.118 L-90.7542 80.1962"/><path style="fill:none; stroke-miterlimit:5;" d="M-116.91 44.5743 L-116.643 44.997 L-116.35 45.4022"/><path style="fill:none; stroke-miterlimit:5;" d="M-91.5455 -63.0924 L-91.245 -63.492 L-91.0445 -63.95"/><path style="fill:none; stroke-miterlimit:5;" d="M-34.8047 -107.804 L-34.329 -107.958 L-33.8298 -107.93"/><path style="fill:none; stroke-miterlimit:5;" d="M38.5951 -112.4798 L39.09 -112.551 L39.5683 -112.4054"/><path style="fill:none; stroke-miterlimit:5;" d="M-116.3425 -30.1236 L-116.643 -29.724 L-116.5423 -29.2342"/><path style="fill:none; stroke-miterlimit:5;" d="M103.4064 -76.0029 L103.794 -75.687 L104.0472 -75.2558"/><path style="fill:none; stroke-miterlimit:5;" d="M122.1197 -44.1592 L122.019 -44.649 L121.7658 -45.0802"/><path style="fill:none; stroke-miterlimit:5;" d="M92.4906 76.8335 L92.913 76.566 L93.3045 76.255"/><path style="fill:none; stroke-miterlimit:5;" d="M52.9162 101.8043 L53.373 101.601 L52.9152 101.3999"/><path style="fill:none; stroke-miterlimit:5;" d="M-19.5895 105.9834 L-20.043 106.194 L-20.4998 106.3973"/><path style="fill:none; stroke-miterlimit:5;" d="M130.6153 -2.8268 L130.716 -2.337 L130.5864 -1.8541"/><path style="fill:none; stroke-miterlimit:5;" d="M-54.7853 86.0775 L-55.218 85.827 L-55.7118 85.7487"/><path style="fill:none; stroke-miterlimit:5;" d="M-108.0756 13.0679 L-107.946 12.585 L-107.452 12.6625"/><path style="fill:none; stroke-miterlimit:5;" d="M-55.1173 -57.3322 L-55.218 -57.822 L-55.7119 -57.8997"/><path style="fill:none; stroke-miterlimit:5;" d="M-20.3101 -85.7697 L-20.043 -85.347 L-19.5897 -85.1361"/><path style="fill:none; stroke-miterlimit:5;" d="M53.8059 -89.6868 L53.373 -89.937 L52.9676 -89.6444"/><path style="fill:none; stroke-miterlimit:5;" d="M92.4831 -67.3362 L92.916 -67.086 L93.3082 -67.3961"/><path style="fill:none; stroke-miterlimit:5;" d="M100.8174 47.1119 L100.947 46.629 L101.1623 46.1777"/><path style="fill:none; stroke-miterlimit:5;" d="M20.8596 86.7781 L20.73 87.261 L21.1878 87.4621"/><path style="fill:none; stroke-miterlimit:5;" d="M120.2586 5.1958 L120.51 5.628 L120.9042 5.3204"/><path style="fill:none; stroke-miterlimit:5;" d="M-47.4757 55.4839 L-47.184 55.89 L-47.3136 56.3729"/><path style="fill:none; stroke-miterlimit:5;" d="M-74.2373 18.2321 L-74.529 17.826 L-75.023 17.7485"/><path style="fill:none; stroke-miterlimit:5;" d="M-47.2847 -19.2338 L-47.184 -18.744 L-47.4834 -18.3436"/><path style="fill:none; stroke-miterlimit:5;" d="M20.8307 -65.8882 L20.73 -66.378 L21.1354 -66.6706"/><path style="fill:none; stroke-miterlimit:5;" d="M101.1984 -27.5758 L100.947 -28.008 L100.8464 -28.4978"/><path style="fill:none; stroke-miterlimit:5;" d="M70.212 38.353 L70.212 38.853 L69.7523 39.0497"/><path style="fill:none; stroke-miterlimit:5;" d="M28.8564 56.9789 L28.986 56.496 L29.4457 56.2993"/><path style="fill:none; stroke-miterlimit:5;" d="M-3.207 42.943 L-3.207 43.443 L-3.6881 43.5792"/><path style="fill:none; stroke-miterlimit:5;" d="M-3.207 -2.932 L-3.207 -3.432 L-2.7989 -3.7209"/><path style="fill:none; stroke-miterlimit:5;" d="M28.8853 -26.7068 L28.986 -26.217 L28.5779 -25.9281"/><path style="fill:none; stroke-miterlimit:5;" d="M70.212 -7.525 L70.212 -8.025 L69.7546 -8.2269"/></g></g></svg></svg></svg></svg>