<svg xmlns:ns0="http://www.w3.org/2000/svg" xmlns="http://www.w3.org/2000/svg"><g transform="translate(0, 0)"><ns0:svg width="401" viewBox="0 0 401 378" style="fill-opacity:1; color-rendering:auto; color-interpolation:auto; text-rendering:auto; stroke:black; stroke-linecap:square; stroke-miterlimit:10; shape-rendering:auto; stroke-opacity:1; fill:black; stroke-dasharray:none; font-weight:normal; stroke-width:1; font-family:'Open Sans'; font-style:normal; stroke-linejoin:miter; font-size:12; stroke-dashoffset:0; image-rendering:auto;" height="378" class="cas-substance-image"><ns0:svg class="cas-substance-single-component"><ns0:rect y="0" x="0" width="401" stroke="none" ry="7" rx="7" height="378" fill="white" class="cas-substance-group" /><ns0:svg y="0" x="0" width="401" viewBox="0 0 401 363" style="fill:black;" height="363" class="cas-substance-single-component-image"><ns0:svg><ns0:g><ns0:g transform="translate(201,182)" style="text-rendering:geometricPrecision; color-rendering:optimizeQuality; color-interpolation:linearRGB; stroke-linecap:butt; image-rendering:optimizeQuality;"><ns0:line y2="-133.386" y1="-133.386" x2="-122.403" x1="-146.4181" style="fill:none;" /><ns0:line y2="-133.386" y1="-133.386" x2="-176.4655" x1="-158.3773" style="fill:none;" /><ns0:line y2="-109.8626" y1="-126.988" x2="-152.403" x1="-152.403" style="fill:none;" /><ns0:line y2="-157.0344" y1="-139.8461" x2="-152.403" x1="-152.403" style="fill:none;" /><ns0:line y2="-107.403" y1="-133.386" x2="-107.403" x1="-122.403" style="fill:none;" /><ns0:line y2="-159.366" y1="-139.1136" x2="-197.403" x1="-185.7099" style="fill:none;" /><ns0:line y2="-88.386" y1="-100.1974" x2="-178.386" x1="-157.9262" style="fill:none;" /><ns0:line y2="-178.386" y1="-166.612" x2="-126.423" x1="-146.8155" style="fill:none;" /><ns0:line y2="-107.403" y1="-107.403" x2="-77.403" x1="-107.403" style="fill:none;" /><ns0:line y2="-87.5613" y1="-107.403" x2="-65.947" x1="-77.403" style="fill:none;" /><ns0:line y2="-55.443" y1="-75.5347" x2="-47.403" x1="-59.0033" style="fill:none;" /><ns0:line y2="-96.423" y1="-86.9293" x2="-36.423" x1="-52.8661" style="fill:none;" /><ns0:line y2="-66.423" y1="-78.4882" x2="-88.386" x1="-67.4866" style="fill:none;" /><ns0:line y2="-29.463" y1="-55.443" x2="-62.403" x1="-47.403" style="fill:none;" /><ns0:line y2="-81.423" y1="-96.423" x2="-10.443" x1="-36.423" style="fill:none;" /><ns0:line y2="-3.48" y1="-29.463" x2="-47.403" x1="-62.403" style="fill:none;" /><ns0:line y2="-96.423" y1="-81.423" x2="15.537" x1="-10.443" style="fill:none;" /><ns0:line y2="22.5" y1="-3.48" x2="-62.403" x1="-47.403" style="fill:none;" /><ns0:line y2="-81.423" y1="-96.423" x2="41.52" x1="15.537" style="fill:none;" /><ns0:line y2="48.48" y1="22.5" x2="-47.403" x1="-62.403" style="fill:none;" /><ns0:line y2="-96.423" y1="-81.423" x2="67.5" x1="41.52" style="fill:none;" /><ns0:line y2="74.463" y1="48.48" x2="-62.403" x1="-47.403" style="fill:none;" /><ns0:line y2="-81.423" y1="-96.423" x2="93.48" x1="67.5" style="fill:none;" /><ns0:line y2="100.443" y1="74.463" x2="-47.403" x1="-62.403" style="fill:none;" /><ns0:line y2="-96.423" y1="-81.423" x2="119.463" x1="93.48" style="fill:none;" /><ns0:line y2="126.423" y1="100.443" x2="-62.403" x1="-47.403" style="fill:none;" /><ns0:line y2="-81.423" y1="-96.423" x2="145.443" x1="119.463" style="fill:none;" /><ns0:line y2="152.403" y1="126.423" x2="-47.403" x1="-62.403" style="fill:none;" /><ns0:line y2="-96.423" y1="-81.423" x2="171.423" x1="145.443" style="fill:none;" /><ns0:line y2="178.386" y1="152.403" x2="-62.403" x1="-47.403" style="fill:none;" /><ns0:line y2="-81.423" y1="-96.423" x2="197.403" x1="171.423" style="fill:none;" /><ns0:path style="stroke-linecap:square; stroke:none;" d="M-151.0397 -131.386 Q-151.0397 -130.261 -151.86 -129.6204 Q-152.6803 -128.9798 -154.0866 -128.9798 Q-155.6178 -128.9798 -156.4303 -129.386 L-156.4303 -130.3391 Q-155.8991 -130.1204 -155.2819 -129.9876 Q-154.6647 -129.8548 -154.0553 -129.8548 Q-153.0553 -129.8548 -152.5553 -130.2376 Q-152.0553 -130.6204 -152.0553 -131.2923 Q-152.0553 -131.7298 -152.235 -132.0188 Q-152.4147 -132.3079 -152.8288 -132.5501 Q-153.2428 -132.7923 -154.1022 -133.0891 Q-155.2897 -133.511 -155.8053 -134.0969 Q-156.321 -134.6829 -156.321 -135.636 Q-156.321 -136.6204 -155.5788 -137.2063 Q-154.8366 -137.7923 -153.6022 -137.7923 Q-152.3366 -137.7923 -151.2585 -137.3235 L-151.571 -136.4641 Q-152.6335 -136.9016 -153.6335 -136.9016 Q-154.4303 -136.9016 -154.8757 -136.5657 Q-155.321 -136.2298 -155.321 -135.6204 Q-155.321 -135.1829 -155.1569 -134.8938 Q-154.9928 -134.6048 -154.6022 -134.3704 Q-154.2116 -134.136 -153.3991 -133.8391 Q-152.0553 -133.3704 -151.5475 -132.8157 Q-151.0397 -132.261 -151.0397 -131.386 ZM-148.4694 -129.1048 L-149.4382 -129.1048 L-149.4382 -135.5266 L-148.4694 -135.5266 L-148.4694 -129.1048 ZM-149.5163 -137.261 Q-149.5163 -137.6048 -149.3522 -137.761 Q-149.1882 -137.9173 -148.9382 -137.9173 Q-148.7038 -137.9173 -148.5397 -137.7532 Q-148.3757 -137.5891 -148.3757 -137.261 Q-148.3757 -136.9329 -148.5397 -136.7766 Q-148.7038 -136.6204 -148.9382 -136.6204 Q-149.1882 -136.6204 -149.3522 -136.7766 Q-149.5163 -136.9329 -149.5163 -137.261 Z" /><ns0:path style="fill:none; stroke-miterlimit:5;" d="M-122.903 -133.386 L-122.403 -133.386 L-122.153 -132.953" /></ns0:g><ns0:g transform="translate(201,182)" style="stroke-linecap:butt; fill:rgb(230,0,0); text-rendering:geometricPrecision; color-rendering:optimizeQuality; image-rendering:optimizeQuality; font-family:'Open Sans'; stroke:rgb(230,0,0); color-interpolation:linearRGB; stroke-miterlimit:5;"><ns0:path style="stroke:none;" d="M-178.4655 -133.4563 Q-178.4655 -131.3938 -179.5046 -130.2141 Q-180.5436 -129.0344 -182.3874 -129.0344 Q-184.278 -129.0344 -185.3092 -130.1985 Q-186.3405 -131.3626 -186.3405 -133.4719 Q-186.3405 -135.5657 -185.3092 -136.7141 Q-184.278 -137.8626 -182.3874 -137.8626 Q-180.528 -137.8626 -179.4967 -136.6907 Q-178.4655 -135.5188 -178.4655 -133.4563 ZM-185.2936 -133.4563 Q-185.2936 -131.7219 -184.5514 -130.8157 Q-183.8092 -129.9094 -182.3874 -129.9094 Q-180.9655 -129.9094 -180.2389 -130.8079 Q-179.5124 -131.7063 -179.5124 -133.4563 Q-179.5124 -135.1907 -180.2389 -136.0813 Q-180.9655 -136.9719 -182.3874 -136.9719 Q-183.8092 -136.9719 -184.5514 -136.0735 Q-185.2936 -135.1751 -185.2936 -133.4563 Z" /><ns0:path style="stroke:none;" d="M-148.4655 -103.4563 Q-148.4655 -101.3938 -149.5046 -100.2141 Q-150.5436 -99.0344 -152.3874 -99.0344 Q-154.278 -99.0344 -155.3092 -100.1985 Q-156.3405 -101.3626 -156.3405 -103.4719 Q-156.3405 -105.5657 -155.3092 -106.7141 Q-154.278 -107.8626 -152.3874 -107.8626 Q-150.528 -107.8626 -149.4967 -106.6907 Q-148.4655 -105.5188 -148.4655 -103.4563 ZM-155.2936 -103.4563 Q-155.2936 -101.7219 -154.5514 -100.8157 Q-153.8092 -99.9094 -152.3874 -99.9094 Q-150.9655 -99.9094 -150.2389 -100.8079 Q-149.5124 -101.7063 -149.5124 -103.4563 Q-149.5124 -105.1907 -150.2389 -106.0813 Q-150.9655 -106.9719 -152.3874 -106.9719 Q-153.8092 -106.9719 -154.5514 -106.0735 Q-155.2936 -105.1751 -155.2936 -103.4563 Z" /><ns0:path style="stroke:none;" d="M-148.4655 -163.4563 Q-148.4655 -161.3938 -149.5046 -160.2141 Q-150.5436 -159.0344 -152.3874 -159.0344 Q-154.278 -159.0344 -155.3092 -160.1985 Q-156.3405 -161.3626 -156.3405 -163.4719 Q-156.3405 -165.5657 -155.3092 -166.7141 Q-154.278 -167.8626 -152.3874 -167.8626 Q-150.528 -167.8626 -149.4967 -166.6907 Q-148.4655 -165.5188 -148.4655 -163.4563 ZM-155.2936 -163.4563 Q-155.2936 -161.7219 -154.5514 -160.8157 Q-153.8092 -159.9094 -152.3874 -159.9094 Q-150.9655 -159.9094 -150.2389 -160.8079 Q-149.5124 -161.7063 -149.5124 -163.4563 Q-149.5124 -165.1907 -150.2389 -166.0813 Q-150.9655 -166.9719 -152.3874 -166.9719 Q-153.8092 -166.9719 -154.5514 -166.0735 Q-155.2936 -165.1751 -155.2936 -163.4563 Z" /><ns0:path style="fill:none; stroke:black;" d="M-107.653 -107.836 L-107.403 -107.403 L-106.903 -107.403" /><ns0:path style="fill:none; stroke:black;" d="M-77.903 -107.403 L-77.403 -107.403 L-77.153 -106.97" /><ns0:path style="fill:rgb(0,5,255); stroke:none;" d="M-59.0514 -77.2667 L-60.1921 -77.2667 L-64.8796 -84.4542 L-64.9264 -84.4542 Q-64.8327 -83.1886 -64.8327 -82.1417 L-64.8327 -77.2667 L-65.7546 -77.2667 L-65.7546 -85.8292 L-64.6296 -85.8292 L-59.9577 -78.673 L-59.9108 -78.673 Q-59.9108 -78.8292 -59.9577 -79.6886 Q-60.0046 -80.548 -59.9889 -80.923 L-59.9889 -85.8292 L-59.0514 -85.8292 L-59.0514 -77.2667 Z" /><ns0:path style="fill:black; stroke:none;" d="M-55.9108 -84.2574 L-54.3014 -84.2574 L-54.3014 -83.7105 L-55.9108 -83.7105 L-55.9108 -82.0542 L-56.4421 -82.0542 L-56.4421 -83.7105 L-58.0514 -83.7105 L-58.0514 -84.2574 L-56.4421 -84.2574 L-56.4421 -85.9292 L-55.9108 -85.9292 L-55.9108 -84.2574 Z" /><ns0:path style="fill:none; stroke:black;" d="M-47.653 -55.876 L-47.403 -55.443 L-47.653 -55.01" /><ns0:path style="fill:none; stroke:black;" d="M-36.856 -96.173 L-36.423 -96.423 L-35.99 -96.173" /><ns0:path style="fill:none; stroke:black;" d="M-62.153 -29.896 L-62.403 -29.463 L-62.153 -29.03" /><ns0:path style="fill:none; stroke:black;" d="M-10.876 -81.673 L-10.443 -81.423 L-10.01 -81.673" /><ns0:path style="fill:none; stroke:black;" d="M-47.653 -3.913 L-47.403 -3.48 L-47.653 -3.047" /><ns0:path style="fill:none; stroke:black;" d="M15.104 -96.173 L15.537 -96.423 L15.97 -96.173" /><ns0:path style="fill:none; stroke:black;" d="M-62.153 22.067 L-62.403 22.5 L-62.153 22.933" /><ns0:path style="fill:none; stroke:black;" d="M41.087 -81.673 L41.52 -81.423 L41.953 -81.673" /><ns0:path style="fill:none; stroke:black;" d="M-47.653 48.047 L-47.403 48.48 L-47.653 48.913" /><ns0:path style="fill:none; stroke:black;" d="M67.067 -96.173 L67.5 -96.423 L67.933 -96.173" /><ns0:path style="fill:none; stroke:black;" d="M-62.153 74.03 L-62.403 74.463 L-62.153 74.896" /><ns0:path style="fill:none; stroke:black;" d="M93.047 -81.673 L93.48 -81.423 L93.913 -81.673" /><ns0:path style="fill:none; stroke:black;" d="M-47.653 100.01 L-47.403 100.443 L-47.653 100.876" /><ns0:path style="fill:none; stroke:black;" d="M119.03 -96.173 L119.463 -96.423 L119.896 -96.173" /><ns0:path style="fill:none; stroke:black;" d="M-62.153 125.99 L-62.403 126.423 L-62.153 126.856" /><ns0:path style="fill:none; stroke:black;" d="M145.01 -81.673 L145.443 -81.423 L145.876 -81.673" /><ns0:path style="fill:none; stroke:black;" d="M-47.653 151.97 L-47.403 152.403 L-47.653 152.836" /><ns0:path style="fill:none; stroke:black;" d="M170.99 -96.173 L171.423 -96.423 L171.856 -96.173" /></ns0:g></ns0:g></ns0:svg></ns0:svg><ns0:svg y="363" x="192" class="cas-substance-saf"><ns0:svg y="5" x="0" width="4" style="fill:black;" height="4" class="cas-substance-saf-dot"><ns0:circle stroke="none" r="2" fill="black" cy="2" cx="2" /></ns0:svg><ns0:svg y="0" x="8" width="19" style="fill:black;" height="15" class="cas-substance-saf-image"><ns0:svg><ns0:g><ns0:g transform="translate(7,8)" style="fill:rgb(0,138,0); text-rendering:geometricPrecision; color-rendering:optimizeQuality; image-rendering:optimizeQuality; font-family:'Open Sans'; stroke:rgb(0,138,0); color-interpolation:linearRGB;"><ns0:path style="stroke:none;" d="M-0.3086 -3.3594 Q-1.7148 -3.3594 -2.5352 -2.4219 Q-3.3555 -1.4844 -3.3555 0.1562 Q-3.3555 1.8281 -2.5664 2.75 Q-1.7773 3.6719 -0.3242 3.6719 Q0.582 3.6719 1.7227 3.3438 L1.7227 4.2188 Q0.832 4.5625 -0.4648 4.5625 Q-2.3555 4.5625 -3.3867 3.4062 Q-4.418 2.25 -4.418 0.1406 Q-4.418 -1.1875 -3.9258 -2.1797 Q-3.4336 -3.1719 -2.4961 -3.7109 Q-1.5586 -4.25 -0.293 -4.25 Q1.0508 -4.25 2.0664 -3.7656 L1.6445 -2.9062 Q0.6602 -3.3594 -0.3086 -3.3594 ZM4.418 4.4375 L3.4492 4.4375 L3.4492 -4.6875 L4.418 -4.6875 L4.418 4.4375 Z" /><ns0:path style="fill:black; stroke:none;" d="M5.418 -2.4781 L5.418 -3.0719 L8.7773 -3.0719 L8.7773 -2.4781 L5.418 -2.4781 Z" /></ns0:g></ns0:g></ns0:svg></ns0:svg></ns0:svg></ns0:svg></ns0:svg></g></svg>