<svg width="266" viewBox="0 0 266 97" style="fill-opacity:1; color-rendering:auto; color-interpolation:auto; text-rendering:auto; stroke:black; stroke-linecap:square; stroke-miterlimit:10; shape-rendering:auto; stroke-opacity:1; fill:black; stroke-dasharray:none; font-weight:normal; stroke-width:1; font-family:'Open Sans'; font-style:normal; stroke-linejoin:miter; font-size:12; stroke-dashoffset:0; image-rendering:auto;" height="97" class="cas-substance-image" xmlns:xlink="http://www.w3.org/1999/xlink" xmlns="http://www.w3.org/2000/svg"><svg class="cas-substance-single-component"><rect y="0" x="0" width="266" stroke="none" ry="7" rx="7" height="97" fill="white" class="cas-substance-group"/><svg y="0" x="0" width="266" viewBox="0 0 266 97" style="fill:black;" height="97" class="cas-substance-single-component-image"><svg><g><g transform="translate(133,49)" style="text-rendering:geometricPrecision; color-rendering:optimizeQuality; color-interpolation:linearRGB; stroke-linecap:butt; image-rendering:optimizeQuality;"><line y2="45" y1="21.1562" x2="-103.923" x1="-103.923" style="fill:none;"/><line y2="0" y1="12.0649" x2="-129.903" x1="-109.0066" style="fill:none;"/><line y2="0" y1="12.0649" x2="-77.943" x1="-98.8394" style="fill:none;"/><line y2="0" y1="12.0649" x2="129.903" x1="109.0066" style="fill:none;"/><line y2="45" y1="21.1562" x2="103.923" x1="103.923" style="fill:none;"/><line y2="0" y1="12.0649" x2="77.943" x1="98.8394" style="fill:none;"/><line y2="-30" y1="0" x2="-25.98" x1="-25.98" style="fill:none;"/><line y2="-27.9793" y1="-2.0207" x2="-29.48" x1="-29.48" style="fill:none;"/><line y2="12.0649" y1="0" x2="-5.0836" x1="-25.98" style="fill:none;"/><line y2="15" y1="0" x2="-51.963" x1="-25.98" style="fill:none;"/><line y2="-45" y1="-30" x2="0" x1="-25.98" style="fill:none;"/><line y2="-45" y1="-30" x2="-51.963" x1="-25.98" style="fill:none;"/><line y2="0" y1="12.0649" x2="25.98" x1="5.0836" style="fill:none;"/><line y2="-2.0207" y1="9.0338" x2="22.48" x1="3.3336" style="fill:none;"/><line y2="0" y1="15" x2="-77.943" x1="-51.963" style="fill:none;"/><line y2="-2.0207" y1="10.9585" x2="-74.443" x1="-51.963" style="fill:none;"/><line y2="-30" y1="-45" x2="25.98" x1="0" style="fill:none;"/><line y2="-27.9793" y1="-40.9585" x2="22.48" x1="-0.0001" style="fill:none;"/><line y2="-30" y1="-45" x2="-77.943" x1="-51.963" style="fill:none;"/><line y2="-27.9793" y1="-40.9585" x2="-74.443" x1="-51.963" style="fill:none;"/><line y2="-30" y1="0" x2="25.98" x1="25.98" style="fill:none;"/><line y2="15" y1="0" x2="51.963" x1="25.98" style="fill:none;"/><line y2="-30" y1="0" x2="-77.943" x1="-77.943" style="fill:none;"/><line y2="-45" y1="-30" x2="51.96" x1="25.98" style="fill:none;"/><line y2="0" y1="15" x2="77.943" x1="51.963" style="fill:none;"/><line y2="-2.0207" y1="10.9585" x2="74.443" x1="51.963" style="fill:none;"/><line y2="-30" y1="-45" x2="77.943" x1="51.96" style="fill:none;"/><line y2="-27.9791" y1="-40.9585" x2="74.4431" x1="51.9602" style="fill:none;"/><line y2="-30" y1="0" x2="77.943" x1="77.943" style="fill:none;"/></g><g transform="translate(133,49)" style="fill:rgb(0,5,255); text-rendering:geometricPrecision; color-rendering:optimizeQuality; image-rendering:optimizeQuality; font-family:'Open Sans'; stroke:rgb(0,5,255); color-interpolation:linearRGB;"><path style="stroke:none;" d="M-100.5714 19.1562 L-101.7121 19.1562 L-106.3996 11.9688 L-106.4464 11.9688 Q-106.3527 13.2344 -106.3527 14.2812 L-106.3527 19.1562 L-107.2746 19.1562 L-107.2746 10.5938 L-106.1496 10.5938 L-101.4777 17.75 L-101.4308 17.75 Q-101.4308 17.5938 -101.4777 16.7344 Q-101.5246 15.875 -101.5089 15.5 L-101.5089 10.5938 L-100.5714 10.5938 L-100.5714 19.1562 Z"/><path style="stroke:none;" d="M107.2746 19.1562 L106.1339 19.1562 L101.4464 11.9688 L101.3996 11.9688 Q101.4933 13.2344 101.4933 14.2812 L101.4933 19.1562 L100.5714 19.1562 L100.5714 10.5938 L101.6964 10.5938 L106.3683 17.75 L106.4152 17.75 Q106.4152 17.5938 106.3683 16.7344 Q106.3214 15.875 106.3371 15.5 L106.3371 10.5938 L107.2746 10.5938 L107.2746 19.1562 Z"/></g><g transform="translate(133,49)" style="stroke-linecap:butt; text-rendering:geometricPrecision; color-rendering:optimizeQuality; image-rendering:optimizeQuality; font-family:'Open Sans'; color-interpolation:linearRGB; stroke-miterlimit:5;"><path style="fill:none;" d="M-25.98 -0.5 L-25.98 0 L-25.547 0.25"/><path style="fill:none;" d="M-25.98 -29.5 L-25.98 -30 L-25.547 -30.25"/><path style="fill:rgb(0,5,255); stroke:none;" d="M3.3516 19.1562 L2.2109 19.1562 L-2.4766 11.9688 L-2.5234 11.9688 Q-2.4297 13.2344 -2.4297 14.2812 L-2.4297 19.1562 L-3.3516 19.1562 L-3.3516 10.5938 L-2.2266 10.5938 L2.4453 17.75 L2.4922 17.75 Q2.4922 17.5938 2.4453 16.7344 Q2.3984 15.875 2.4141 15.5 L2.4141 10.5938 L3.3516 10.5938 L3.3516 19.1562 Z"/><path style="fill:none;" d="M-51.53 14.75 L-51.963 15 L-52.396 14.75"/><path style="fill:none;" d="M-0.433 -44.75 L0 -45 L0.433 -44.75"/><path style="fill:none;" d="M-51.53 -44.75 L-51.963 -45 L-52.396 -44.75"/><path style="fill:none;" d="M25.547 0.25 L25.98 0 L25.98 -0.5"/><path style="fill:none;" d="M-77.51 0.25 L-77.943 0 L-78.376 0.25"/><path style="fill:none;" d="M25.547 -30.25 L25.98 -30 L26.413 -30.25"/><path style="fill:none;" d="M-77.51 -30.25 L-77.943 -30 L-77.943 -29.5"/><path style="fill:none;" d="M51.53 14.75 L51.963 15 L52.396 14.75"/><path style="fill:none;" d="M51.527 -44.75 L51.96 -45 L52.393 -44.75"/><path style="fill:none;" d="M77.51 0.25 L77.943 0 L77.943 -0.5"/><path style="fill:none;" d="M77.51 -30.25 L77.943 -30 L77.943 -29.5"/></g></g></svg></svg></svg></svg>