<svg width="379" viewBox="0 0 379 193" style="fill-opacity:1; color-rendering:auto; color-interpolation:auto; text-rendering:auto; stroke:black; stroke-linecap:square; stroke-miterlimit:10; shape-rendering:auto; stroke-opacity:1; fill:black; stroke-dasharray:none; font-weight:normal; stroke-width:1; font-family:'Open Sans'; font-style:normal; stroke-linejoin:miter; font-size:12; stroke-dashoffset:0; image-rendering:auto;" height="193" class="cas-substance-image" xmlns:xlink="http://www.w3.org/1999/xlink" xmlns="http://www.w3.org/2000/svg"><svg class="cas-substance-single-component"><rect y="0" x="0" width="379" stroke="none" ry="7" rx="7" height="193" fill="white" class="cas-substance-group"/><svg y="0" x="0" width="379" viewBox="0 0 379 193" style="fill:black;" height="193" class="cas-substance-single-component-image"><svg><g><g transform="translate(189,98)" style="text-rendering:geometricPrecision; color-rendering:optimizeQuality; color-interpolation:linearRGB; stroke-linecap:butt; image-rendering:optimizeQuality;"><line y2="-12.99" y1="-12.99" x2="-74.8405" x1="-50.778" style="fill:none;"/><line y2="8.1374" y1="-12.99" x2="-40.6005" x1="-52.7987" style="fill:none;"/><line y2="6.3874" y1="-14.74" x2="-37.5694" x1="-49.7676" style="fill:none;"/><line y2="-38.97" y1="-12.99" x2="-35.778" x1="-50.778" style="fill:none;"/><line y2="12.99" y1="-7.342" x2="-95.778" x1="-84.039" style="fill:none;"/><line y2="38.97" y1="12.99" x2="-80.778" x1="-95.778" style="fill:none;"/><line y2="12.99" y1="12.99" x2="-125.778" x1="-95.778" style="fill:none;"/><line y2="-26.1135" y1="-1.8543" x2="21.4424" x1="27.9423" style="fill:none;"/><line y2="-25.2073" y1="-0.9485" x2="18.0618" x1="24.5616" style="fill:none;"/><line y2="-36.504" y1="-52.9512" x2="85.395" x1="68.9478" style="fill:none;"/><path style="stroke:none;" d="M56.9426 -58.7506 L56.0027 -58.3933 L56.0027 -58.3933 L57.431 -53.0409 L57.431 -53.0409 L58.4234 -53.2013 L58.4234 -53.2013 L56.9426 -58.7506 ZM54.1229 -57.6785 L53.183 -57.3211 L54.4535 -52.5598 L54.4535 -52.5598 L55.446 -52.7202 L55.446 -52.7202 L54.1229 -57.6785 ZM51.3032 -56.6063 L50.3633 -56.2489 L51.4761 -52.0786 L51.4761 -52.0786 L52.4686 -52.239 L52.4686 -52.239 L51.3032 -56.6063 ZM48.4835 -55.5342 L47.5436 -55.1768 L47.5436 -55.1768 L48.4987 -51.5975 L48.4987 -51.5975 L49.4912 -51.7578 L49.4912 -51.7578 L48.4835 -55.5342 ZM45.6637 -54.462 L44.7239 -54.1046 L44.7239 -54.1046 L45.5213 -51.1163 L45.5213 -51.1163 L46.5138 -51.2767 L46.5138 -51.2767 L45.6637 -54.462 ZM42.844 -53.3898 L41.9041 -53.0324 L41.9041 -53.0324 L42.5439 -50.6351 L43.5363 -50.7955 L43.5363 -50.7955 L42.844 -53.3898 ZM40.0243 -52.3177 L39.0844 -51.9603 L39.0844 -51.9603 L39.5665 -50.154 L39.5665 -50.154 L40.5589 -50.3143 L40.5589 -50.3143 L40.0243 -52.3177 ZM37.2046 -51.2455 L36.2647 -50.8881 L36.2647 -50.8881 L36.589 -49.6728 L37.5815 -49.8332 L37.5815 -49.8332 L37.2046 -51.2455 Z"/><line y2="-44.268" y1="-36.504" x2="114.372" x1="85.395" style="fill:none;"/><line y2="-14.3883" y1="-37.9329" x2="77.6577" x1="83.9661" style="fill:none;"/><line y2="-13.4825" y1="-37.027" x2="81.0384" x1="87.3468" style="fill:none;"/><line y2="-23.055" y1="-44.268" x2="135.585" x1="114.372" style="fill:none;"/><line y2="-64.953" y1="-64.953" x2="-50.778" x1="-74.8405" style="fill:none;"/><line y2="-64.953" y1="-45.1083" x2="9.222" x1="-2.2343" style="fill:none;"/><line y2="-38.97" y1="-38.97" x2="-35.778" x1="-11.1296" style="fill:none;"/><line y2="-23.97" y1="-36.0352" x2="20.205" x1="-0.6943" style="fill:none;"/><line y2="-49.953" y1="-64.953" x2="35.205" x1="9.222" style="fill:none;"/><line y2="-85.6394" y1="-64.953" x2="-2.7217" x1="9.222" style="fill:none;"/><line y2="-64.953" y1="-38.97" x2="-50.778" x1="-35.778" style="fill:none;"/><line y2="-64.9529" y1="-42.4699" x2="-46.7365" x1="-33.7571" style="fill:none;"/><line y2="-49.953" y1="-23.97" x2="35.205" x1="20.205" style="fill:none;"/><line y2="-90.933" y1="-90.933" x2="-35.778" x1="-10.4213" style="fill:none;"/><line y2="-90.933" y1="-64.953" x2="-35.778" x1="-50.778" style="fill:none;"/><line y2="64.953" y1="38.97" x2="-95.778" x1="-80.778" style="fill:none;"/><line y2="64.9529" y1="42.4699" x2="-91.7365" x1="-78.7571" style="fill:none;"/><line y2="38.97" y1="38.97" x2="-50.778" x1="-80.778" style="fill:none;"/><line y2="90.933" y1="64.953" x2="-80.778" x1="-95.778" style="fill:none;"/><line y2="64.953" y1="38.97" x2="-35.778" x1="-50.778" style="fill:none;"/><line y2="64.9529" y1="42.4699" x2="-39.8195" x1="-52.7989" style="fill:none;"/><line y2="90.933" y1="90.933" x2="-50.778" x1="-80.778" style="fill:none;"/><line y2="87.433" y1="87.433" x2="-52.7987" x1="-78.7573" style="fill:none;"/><line y2="90.933" y1="64.953" x2="-50.778" x1="-35.778" style="fill:none;"/><line y2="-12.99" y1="12.99" x2="-140.778" x1="-125.778" style="fill:none;"/><line y2="-9.49" y1="12.9901" x2="-142.7987" x1="-129.8194" style="fill:none;"/><line y2="38.97" y1="12.99" x2="-140.778" x1="-125.778" style="fill:none;"/><line y2="-12.99" y1="-12.99" x2="-170.778" x1="-140.778" style="fill:none;"/><line y2="38.97" y1="38.97" x2="-170.778" x1="-140.778" style="fill:none;"/><line y2="35.47" y1="35.47" x2="-168.7573" x1="-142.7987" style="fill:none;"/><line y2="12.99" y1="-12.99" x2="-185.778" x1="-170.778" style="fill:none;"/><line y2="12.9901" y1="-9.49" x2="-181.7365" x1="-168.7573" style="fill:none;"/><line y2="12.99" y1="38.97" x2="-185.778" x1="-170.778" style="fill:none;"/><line y2="5.922" y1="-23.055" x2="127.821" x1="135.585" style="fill:none;"/><line y2="4.8759" y1="-20.1973" x2="131.7247" x1="138.4428" style="fill:none;"/><line y2="-30.819" y1="-23.055" x2="164.565" x1="135.585" style="fill:none;"/><line y2="27.135" y1="5.922" x2="149.034" x1="127.821" style="fill:none;"/><line y2="-9.606" y1="-30.819" x2="185.778" x1="164.565" style="fill:none;"/><line y2="-8.56" y1="-26.9153" x2="181.8743" x1="163.519" style="fill:none;"/><line y2="19.371" y1="27.135" x2="178.011" x1="149.034" style="fill:none;"/><line y2="16.5132" y1="23.2313" x2="175.1533" x1="150.08" style="fill:none;"/><line y2="19.371" y1="-9.606" x2="178.011" x1="185.778" style="fill:none;"/><path style="stroke:none;" d="M9.5756 -64.5994 L8.8684 -65.3066 L23.6417 -83.6153 L27.8843 -79.3727 Z"/><path style="fill:none; stroke-miterlimit:5;" d="M-51.278 -12.99 L-50.778 -12.99 L-50.528 -13.423"/></g><g transform="translate(189,98)" style="stroke-linecap:butt; fill:rgb(230,0,0); text-rendering:geometricPrecision; color-rendering:optimizeQuality; image-rendering:optimizeQuality; font-family:'Open Sans'; stroke:rgb(230,0,0); color-interpolation:linearRGB; stroke-miterlimit:5;"><path style="stroke:none;" d="M-76.8405 -13.0603 Q-76.8405 -10.9978 -77.8796 -9.8181 Q-78.9186 -8.6384 -80.7624 -8.6384 Q-82.653 -8.6384 -83.6842 -9.8025 Q-84.7155 -10.9666 -84.7155 -13.0759 Q-84.7155 -15.1697 -83.6842 -16.3181 Q-82.653 -17.4666 -80.7624 -17.4666 Q-78.903 -17.4666 -77.8717 -16.2947 Q-76.8405 -15.1228 -76.8405 -13.0603 ZM-83.6686 -13.0603 Q-83.6686 -11.3259 -82.9264 -10.4197 Q-82.1842 -9.5134 -80.7624 -9.5134 Q-79.3405 -9.5134 -78.6139 -10.4119 Q-77.8874 -11.3103 -77.8874 -13.0603 Q-77.8874 -14.7947 -78.6139 -15.6853 Q-79.3405 -16.5759 -80.7624 -16.5759 Q-82.1842 -16.5759 -82.9264 -15.6775 Q-83.6686 -14.7791 -83.6686 -13.0603 Z"/><path style="stroke:none;" d="M-31.8405 12.9197 Q-31.8405 14.9822 -32.8796 16.1619 Q-33.9186 17.3416 -35.7624 17.3416 Q-37.653 17.3416 -38.6842 16.1775 Q-39.7155 15.0134 -39.7155 12.9041 Q-39.7155 10.8103 -38.6842 9.6619 Q-37.653 8.5134 -35.7624 8.5134 Q-33.903 8.5134 -32.8717 9.6853 Q-31.8405 10.8572 -31.8405 12.9197 ZM-38.6686 12.9197 Q-38.6686 14.6541 -37.9264 15.5603 Q-37.1842 16.4666 -35.7624 16.4666 Q-34.3405 16.4666 -33.6139 15.5681 Q-32.8874 14.6697 -32.8874 12.9197 Q-32.8874 11.1853 -33.6139 10.2947 Q-34.3405 9.4041 -35.7624 9.4041 Q-37.1842 9.4041 -37.9264 10.3025 Q-38.6686 11.2009 -38.6686 12.9197 Z"/><path style="stroke:none;" d="M31.9065 4.9367 Q31.9065 6.9992 30.8674 8.1789 Q29.8284 9.3586 27.9846 9.3586 Q26.094 9.3586 25.0627 8.1945 Q24.0315 7.0304 24.0315 4.9211 Q24.0315 2.8273 25.0627 1.6789 Q26.094 0.5304 27.9846 0.5304 Q29.844 0.5304 30.8752 1.7023 Q31.9065 2.8742 31.9065 4.9367 ZM25.0784 4.9367 Q25.0784 6.6711 25.8206 7.5773 Q26.5627 8.4836 27.9846 8.4836 Q29.4065 8.4836 30.1331 7.5851 Q30.8596 6.6867 30.8596 4.9367 Q30.8596 3.2023 30.1331 2.3117 Q29.4065 1.4211 27.9846 1.4211 Q26.5627 1.4211 25.8206 2.3195 Q25.0784 3.2179 25.0784 4.9367 Z"/><path style="fill:rgb(0,5,255); stroke:none;" d="M67.5336 -53.5607 L66.3929 -53.5607 L61.7054 -60.7482 L61.6586 -60.7482 Q61.7523 -59.4826 61.7523 -58.4357 L61.7523 -53.5607 L60.8304 -53.5607 L60.8304 -62.1232 L61.9554 -62.1232 L66.6273 -54.967 L66.6742 -54.967 Q66.6742 -55.1232 66.6273 -55.9826 Q66.5804 -56.842 66.5961 -57.217 L66.5961 -62.1232 L67.5336 -62.1232 L67.5336 -53.5607 Z"/><path style="fill:rgb(0,5,255); stroke:none;" d="M67.4398 -63.1232 L66.4398 -63.1232 L66.4398 -67.1545 L61.9242 -67.1545 L61.9242 -63.1232 L60.9242 -63.1232 L60.9242 -71.6857 L61.9242 -71.6857 L61.9242 -68.0451 L66.4398 -68.0451 L66.4398 -71.6857 L67.4398 -71.6857 L67.4398 -63.1232 Z"/><path style="fill:none; stroke:black;" d="M85.0414 -36.8576 L85.395 -36.504 L85.878 -36.6334"/><path style="fill:none; stroke:black;" d="M113.889 -44.1386 L114.372 -44.268 L114.7256 -43.9144"/><path style="stroke:none;" d="M81.5685 -7.5973 Q81.5685 -5.5348 80.5294 -4.3551 Q79.4904 -3.1754 77.6466 -3.1754 Q75.756 -3.1754 74.7247 -4.3395 Q73.6935 -5.5036 73.6935 -7.6129 Q73.6935 -9.7067 74.7247 -10.8551 Q75.756 -12.0036 77.6466 -12.0036 Q79.506 -12.0036 80.5372 -10.8317 Q81.5685 -9.6598 81.5685 -7.5973 ZM74.7404 -7.5973 Q74.7404 -5.8629 75.4826 -4.9567 Q76.2247 -4.0504 77.6466 -4.0504 Q79.0685 -4.0504 79.7951 -4.9489 Q80.5216 -5.8473 80.5216 -7.5973 Q80.5216 -9.3317 79.7951 -10.2223 Q79.0685 -11.1129 77.6466 -11.1129 Q76.2247 -11.1129 75.4826 -10.2145 Q74.7404 -9.3161 74.7404 -7.5973 Z"/><path style="stroke:none;" d="M-76.8405 -65.0233 Q-76.8405 -62.9608 -77.8796 -61.7811 Q-78.9186 -60.6014 -80.7624 -60.6014 Q-82.653 -60.6014 -83.6842 -61.7655 Q-84.7155 -62.9296 -84.7155 -65.0389 Q-84.7155 -67.1327 -83.6842 -68.2811 Q-82.653 -69.4296 -80.7624 -69.4296 Q-78.903 -69.4296 -77.8717 -68.2577 Q-76.8405 -67.0858 -76.8405 -65.0233 ZM-83.6686 -65.0233 Q-83.6686 -63.2889 -82.9264 -62.3827 Q-82.1842 -61.4764 -80.7624 -61.4764 Q-79.3405 -61.4764 -78.6139 -62.3749 Q-77.8874 -63.2733 -77.8874 -65.0233 Q-77.8874 -66.7577 -78.6139 -67.6483 Q-79.3405 -68.5389 -80.7624 -68.5389 Q-82.1842 -68.5389 -82.9264 -67.6405 Q-83.6686 -66.7421 -83.6686 -65.0233 Z"/><path style="stroke:none;" d="M-85.7155 -60.7264 L-86.7155 -60.7264 L-86.7155 -64.7577 L-91.2311 -64.7577 L-91.2311 -60.7264 L-92.2311 -60.7264 L-92.2311 -69.2889 L-91.2311 -69.2889 L-91.2311 -65.6483 L-86.7155 -65.6483 L-86.7155 -69.2889 L-85.7155 -69.2889 L-85.7155 -60.7264 Z"/><path style="fill:rgb(0,5,255); stroke:none;" d="M-2.4264 -34.8138 L-3.5671 -34.8138 L-8.2546 -42.0013 L-8.3014 -42.0013 Q-8.2077 -40.7356 -8.2077 -39.6888 L-8.2077 -34.8138 L-9.1296 -34.8138 L-9.1296 -43.3763 L-8.0046 -43.3763 L-3.3327 -36.22 L-3.2858 -36.22 Q-3.2858 -36.3763 -3.3327 -37.2356 Q-3.3796 -38.095 -3.3639 -38.47 L-3.3639 -43.3763 L-2.4264 -43.3763 L-2.4264 -34.8138 Z"/></g><g transform="translate(189,98)" style="stroke-linecap:butt; font-size:8.4px; fill:gray; text-rendering:geometricPrecision; image-rendering:optimizeQuality; color-rendering:optimizeQuality; font-family:'Open Sans'; font-style:italic; stroke:gray; color-interpolation:linearRGB; stroke-miterlimit:5;"><path style="stroke:none;" d="M-5.1666 -63.7887 Q-5.1666 -65.1168 -4.6979 -66.2418 Q-4.2291 -67.3668 -3.1979 -68.4449 L-2.5885 -68.4449 Q-3.5573 -67.3824 -4.0416 -66.2106 Q-4.526 -65.0387 -4.526 -63.8043 Q-4.526 -62.4762 -4.0885 -61.4606 L-4.6041 -61.4606 Q-5.1666 -62.4918 -5.1666 -63.7887 ZM-1.6066 -65.1012 L-2.1066 -62.7262 L-2.7628 -62.7262 L-1.5597 -68.4449 L-0.3097 -68.4449 Q1.4247 -68.4449 1.4247 -67.0074 Q1.4247 -65.6481 -0.0128 -65.2574 L0.9247 -62.7262 L0.2059 -62.7262 L-0.6222 -65.1012 L-1.6066 -65.1012 ZM-1.0285 -67.8512 Q-1.4191 -65.9293 -1.4816 -65.6793 L-0.8253 -65.6793 Q-0.0753 -65.6793 0.3309 -66.0074 Q0.7372 -66.3356 0.7372 -66.9606 Q0.7372 -67.4293 0.4794 -67.6403 Q0.2215 -67.8512 -0.3722 -67.8512 L-1.0285 -67.8512 ZM3.6106 -66.1012 Q3.6106 -64.7731 3.1341 -63.6403 Q2.6575 -62.5074 1.6419 -61.4606 L1.0325 -61.4606 Q2.97 -63.6168 2.97 -66.1012 Q2.97 -67.4293 2.5325 -68.4449 L3.0481 -68.4449 Q3.6106 -67.3824 3.6106 -66.1012 Z"/><path style="fill:none; stroke:black;" d="M-36.028 -39.403 L-35.778 -38.97 L-36.028 -38.537"/><path style="fill:none; stroke:black;" d="M19.772 -24.22 L20.205 -23.97 L20.455 -24.403"/><path style="fill:none; stroke:black;" d="M34.772 -50.203 L35.205 -49.953 L34.955 -49.52"/><path style="stroke:none;" d="M32.1215 -58.7034 Q32.1215 -60.0315 32.5902 -61.1565 Q33.059 -62.2815 34.0902 -63.3596 L34.6996 -63.3596 Q33.7309 -62.2971 33.2465 -61.1253 Q32.7621 -59.9534 32.7621 -58.719 Q32.7621 -57.3909 33.1996 -56.3753 L32.684 -56.3753 Q32.1215 -57.4065 32.1215 -58.7034 ZM35.6816 -60.0159 L35.1816 -57.6409 L34.5253 -57.6409 L35.7284 -63.3596 L36.9784 -63.3596 Q38.7128 -63.3596 38.7128 -61.9221 Q38.7128 -60.5628 37.2753 -60.1721 L38.2128 -57.6409 L37.4941 -57.6409 L36.6659 -60.0159 L35.6816 -60.0159 ZM36.2597 -62.7659 Q35.8691 -60.844 35.8066 -60.594 L36.4628 -60.594 Q37.2128 -60.594 37.6191 -60.9221 Q38.0253 -61.2503 38.0253 -61.8753 Q38.0253 -62.344 37.7675 -62.555 Q37.5097 -62.7659 36.9159 -62.7659 L36.2597 -62.7659 ZM40.8988 -61.0159 Q40.8988 -59.6878 40.4222 -58.555 Q39.9457 -57.4221 38.93 -56.3753 L38.3207 -56.3753 Q40.2582 -58.5315 40.2582 -61.0159 Q40.2582 -62.344 39.8207 -63.3596 L40.3363 -63.3596 Q40.8988 -62.2971 40.8988 -61.0159 Z"/></g><g transform="translate(189,98)" style="stroke-linecap:butt; fill:rgb(148,108,0); text-rendering:geometricPrecision; color-rendering:optimizeQuality; image-rendering:optimizeQuality; font-family:'Open Sans'; stroke:rgb(148,108,0); color-interpolation:linearRGB; stroke-miterlimit:5;"><path style="stroke:none;" d="M-3.0827 -88.9955 Q-3.0827 -87.8705 -3.903 -87.2299 Q-4.7233 -86.5892 -6.1296 -86.5892 Q-7.6608 -86.5892 -8.4733 -86.9955 L-8.4733 -87.9486 Q-7.9421 -87.7299 -7.3249 -87.5971 Q-6.7077 -87.4642 -6.0983 -87.4642 Q-5.0983 -87.4642 -4.5983 -87.8471 Q-4.0983 -88.2299 -4.0983 -88.9017 Q-4.0983 -89.3392 -4.278 -89.6283 Q-4.4577 -89.9174 -4.8717 -90.1596 Q-5.2858 -90.4017 -6.1452 -90.6986 Q-7.3327 -91.1205 -7.8483 -91.7064 Q-8.3639 -92.2924 -8.3639 -93.2455 Q-8.3639 -94.2299 -7.6217 -94.8158 Q-6.8796 -95.4017 -5.6452 -95.4017 Q-4.3796 -95.4017 -3.3014 -94.933 L-3.6139 -94.0736 Q-4.6764 -94.5111 -5.6764 -94.5111 Q-6.4733 -94.5111 -6.9186 -94.1752 Q-7.3639 -93.8392 -7.3639 -93.2299 Q-7.3639 -92.7924 -7.1999 -92.5033 Q-7.0358 -92.2142 -6.6452 -91.9799 Q-6.2546 -91.7455 -5.4421 -91.4486 Q-4.0983 -90.9799 -3.5905 -90.4252 Q-3.0827 -89.8705 -3.0827 -88.9955 Z"/><path style="fill:none; stroke:black;" d="M-50.528 -64.52 L-50.778 -64.953 L-51.278 -64.953"/><path style="fill:none; stroke:black;" d="M-35.278 -90.933 L-35.778 -90.933 L-36.028 -90.5"/><path style="fill:none; stroke:black;" d="M-81.028 39.403 L-80.778 38.97 L-80.278 38.97"/><path style="fill:none; stroke:black;" d="M-95.528 64.52 L-95.778 64.953 L-95.528 65.386"/><path style="fill:none; stroke:black;" d="M-51.278 38.97 L-50.778 38.97 L-50.528 39.403"/><path style="fill:none; stroke:black;" d="M-81.028 90.5 L-80.778 90.933 L-80.278 90.933"/><path style="fill:none; stroke:black;" d="M-36.028 64.52 L-35.778 64.953 L-36.028 65.386"/><path style="fill:none; stroke:black;" d="M-51.278 90.933 L-50.778 90.933 L-50.528 90.5"/><path style="fill:none; stroke:black;" d="M-126.028 12.557 L-125.778 12.99 L-125.278 12.99"/><path style="fill:none; stroke:black;" d="M-140.528 -12.557 L-140.778 -12.99 L-141.278 -12.99"/><path style="fill:none; stroke:black;" d="M-140.528 38.537 L-140.778 38.97 L-141.278 38.97"/><path style="fill:none; stroke:black;" d="M-170.278 -12.99 L-170.778 -12.99 L-171.028 -12.557"/><path style="fill:none; stroke:black;" d="M-170.278 38.97 L-170.778 38.97 L-171.028 38.537"/><path style="fill:none; stroke:black;" d="M-185.528 12.557 L-185.778 12.99 L-185.528 13.423"/><path style="fill:none; stroke:black;" d="M135.4556 -22.572 L135.585 -23.055 L136.068 -23.1844"/><path style="fill:none; stroke:black;" d="M127.9504 5.439 L127.821 5.922 L128.1746 6.2756"/><path style="fill:none; stroke:black;" d="M164.082 -30.6896 L164.565 -30.819 L164.9185 -30.4654"/><path style="fill:none; stroke:black;" d="M148.6805 26.7814 L149.034 27.135 L149.517 27.0056"/><path style="fill:none; stroke:black;" d="M185.4245 -9.9596 L185.778 -9.606 L185.6485 -9.123"/><path style="fill:none; stroke:black;" d="M177.528 19.5004 L178.011 19.371 L178.1405 18.888"/><path style="fill:black; stroke:none;" d="M33.6928 -82.0098 L32.6928 -82.0098 L32.6928 -86.041 L28.1772 -86.041 L28.1772 -82.0098 L27.1772 -82.0098 L27.1772 -90.5723 L28.1772 -90.5723 L28.1772 -86.9316 L32.6928 -86.9316 L32.6928 -90.5723 L33.6928 -90.5723 L33.6928 -82.0098 Z"/></g></g></svg></svg></svg></svg>