<svg width="247" viewBox="0 0 247 103" style="fill-opacity:1; color-rendering:auto; color-interpolation:auto; text-rendering:auto; stroke:black; stroke-linecap:square; stroke-miterlimit:10; shape-rendering:auto; stroke-opacity:1; fill:black; stroke-dasharray:none; font-weight:normal; stroke-width:1; font-family:'Open Sans'; font-style:normal; stroke-linejoin:miter; font-size:12; stroke-dashoffset:0; image-rendering:auto;" height="103" class="cas-substance-image" xmlns:xlink="http://www.w3.org/1999/xlink" xmlns="http://www.w3.org/2000/svg"><svg class="cas-substance-single-component"><rect y="0" x="0" width="247" stroke="none" ry="7" rx="7" height="103" fill="white" class="cas-substance-group"/><svg y="0" x="0" width="247" viewBox="0 0 247 103" style="fill:black;" height="103" class="cas-substance-single-component-image"><svg><g><g transform="translate(124,52)" style="text-rendering:geometricPrecision; color-rendering:optimizeQuality; color-interpolation:linearRGB; stroke-linecap:butt; image-rendering:optimizeQuality;"><line y2="-22.173" y1="3.81" x2="0.501" x1="-14.499" style="fill:none;"/><line y2="-22.1728" y1="0.3101" x2="-3.5405" x1="-16.5199" style="fill:none;"/></g><g transform="translate(124,52)" style="stroke-linecap:butt; font-size:8.4px; fill:gray; text-rendering:geometricPrecision; image-rendering:optimizeQuality; color-rendering:optimizeQuality; font-family:'Open Sans'; font-style:italic; stroke:gray; color-interpolation:linearRGB;"><path style="stroke:none;" d="M-2.4859 -3.0178 Q-2.4859 -4.3459 -2.0172 -5.4709 Q-1.5484 -6.5959 -0.5172 -7.674 L0.0922 -7.674 Q-0.8766 -6.6115 -1.3609 -5.4396 Q-1.8453 -4.2678 -1.8453 -3.0334 Q-1.8453 -1.7053 -1.4078 -0.6896 L-1.9234 -0.6896 Q-2.4859 -1.7209 -2.4859 -3.0178 ZM2.7773 -1.9553 L-0.0821 -1.9553 L1.121 -7.674 L3.996 -7.674 L3.871 -7.0646 L1.6523 -7.0646 L1.2773 -5.2365 L3.3241 -5.2365 L3.2148 -4.6428 L1.1523 -4.6428 L0.6991 -2.549 L2.9179 -2.549 L2.7773 -1.9553 ZM5.8088 -5.3303 Q5.8088 -4.0021 5.3322 -2.8693 Q4.8557 -1.7365 3.8401 -0.6896 L3.2307 -0.6896 Q5.1682 -2.8459 5.1682 -5.3303 Q5.1682 -6.6584 4.7307 -7.674 L5.2463 -7.674 Q5.8088 -6.6115 5.8088 -5.3303 Z"/><line y2="3.81" y1="3.81" x2="-39.5303" x1="-14.499" style="fill:none; stroke:black;"/><line y2="-22.173" y1="-22.173" x2="30.501" x1="0.501" style="fill:none; stroke:black;"/><line y2="18.81" y1="15.672" x2="-90.666" x1="-120.501" style="fill:none; stroke:black;"/><line y2="18.81" y1="48.153" x2="-90.666" x1="-96.903" style="fill:none; stroke:black;"/><line y2="-11.19" y1="-40.536" x2="-90.666" x1="-96.903" style="fill:none; stroke:black;"/><line y2="-11.19" y1="-8.055" x2="-90.666" x1="-120.501" style="fill:none; stroke:black;"/><line y2="-22.173" y1="-22.173" x2="90.501" x1="120.501" style="fill:none; stroke:black;"/><line y2="22.8429" y1="9.514" x2="-58.3278" x1="-48.6434" style="fill:none; stroke:black;"/><line y2="-15.3034" y1="-1.8945" x2="-58.3846" x1="-48.6433" style="fill:none; stroke:black;"/><line y2="18.81" y1="26.1828" x2="-90.666" x1="-67.9726" style="fill:none; stroke:black;"/><line y2="-11.19" y1="-18.5652" x2="-90.666" x1="-67.9726" style="fill:none; stroke:black;"/><line y2="-11.19" y1="18.81" x2="-90.666" x1="-90.666" style="fill:none; stroke:black;"/><line y2="3.81" y1="-22.173" x2="45.501" x1="30.501" style="fill:none; stroke:black;"/><line y2="0.3101" y1="-22.1728" x2="47.5219" x1="34.5425" style="fill:none; stroke:black;"/><line y2="-48.153" y1="-22.173" x2="45.501" x1="30.501" style="fill:none; stroke:black;"/><line y2="3.81" y1="3.81" x2="75.501" x1="45.501" style="fill:none; stroke:black;"/><line y2="-48.153" y1="-48.153" x2="75.501" x1="45.501" style="fill:none; stroke:black;"/><line y2="-44.653" y1="-44.653" x2="73.4803" x1="47.5217" style="fill:none; stroke:black;"/><line y2="-22.173" y1="3.81" x2="90.501" x1="75.501" style="fill:none; stroke:black;"/><line y2="-22.1728" y1="0.3101" x2="86.4595" x1="73.4801" style="fill:none; stroke:black;"/><line y2="-22.173" y1="-48.153" x2="90.501" x1="75.501" style="fill:none; stroke:black;"/><path style="fill:none; stroke-miterlimit:5; stroke:black;" d="M-14.249 3.377 L-14.499 3.81 L-14.999 3.81"/><path style="fill:none; stroke-miterlimit:5; stroke:black;" d="M0.251 -21.74 L0.501 -22.173 L1.001 -22.173"/></g><g transform="translate(124,52)" style="stroke-linecap:butt; text-rendering:geometricPrecision; color-rendering:optimizeQuality; image-rendering:optimizeQuality; font-family:'Open Sans'; color-interpolation:linearRGB; stroke-miterlimit:5;"><path style="stroke:none;" d="M-47.4678 -0.5962 L-45.0459 -0.5962 Q-43.3428 -0.5962 -42.5771 -0.0884 Q-41.8115 0.4194 -41.8115 1.5131 Q-41.8115 2.2788 -42.2334 2.7788 Q-42.6553 3.2788 -43.4834 3.4194 L-43.4834 3.4819 Q-41.5303 3.81 -41.5303 5.5288 Q-41.5303 6.6694 -42.3037 7.3178 Q-43.0771 7.9663 -44.4678 7.9663 L-47.4678 7.9663 L-47.4678 -0.5962 ZM-46.4678 3.06 L-44.8271 3.06 Q-43.7646 3.06 -43.3037 2.7319 Q-42.8428 2.4038 -42.8428 1.6225 Q-42.8428 0.9038 -43.3584 0.5834 Q-43.874 0.2631 -44.999 0.2631 L-46.4678 0.2631 L-46.4678 3.06 ZM-46.4678 3.9038 L-46.4678 7.1225 L-44.6709 7.1225 Q-43.6396 7.1225 -43.1162 6.7163 Q-42.5928 6.31 -42.5928 5.4506 Q-42.5928 4.6538 -43.1318 4.2788 Q-43.6709 3.9038 -44.7646 3.9038 L-46.4678 3.9038 Z"/><path style="fill:rgb(230,0,0); stroke:none;" d="M-58.1955 28.0097 Q-58.1955 30.0722 -59.2346 31.2519 Q-60.2736 32.4316 -62.1174 32.4316 Q-64.008 32.4316 -65.0392 31.2675 Q-66.0705 30.1034 -66.0705 27.9941 Q-66.0705 25.9003 -65.0392 24.7519 Q-64.008 23.6034 -62.1174 23.6034 Q-60.258 23.6034 -59.2267 24.7753 Q-58.1955 25.9472 -58.1955 28.0097 ZM-65.0236 28.0097 Q-65.0236 29.7441 -64.2814 30.6503 Q-63.5392 31.5566 -62.1174 31.5566 Q-60.6955 31.5566 -59.9689 30.6581 Q-59.2424 29.7597 -59.2424 28.0097 Q-59.2424 26.2753 -59.9689 25.3847 Q-60.6955 24.4941 -62.1174 24.4941 Q-63.5392 24.4941 -64.2814 25.3925 Q-65.0236 26.2909 -65.0236 28.0097 Z"/><path style="fill:rgb(230,0,0); stroke:none;" d="M-58.1955 -20.5333 Q-58.1955 -18.4708 -59.2346 -17.2911 Q-60.2736 -16.1114 -62.1174 -16.1114 Q-64.008 -16.1114 -65.0392 -17.2755 Q-66.0705 -18.4396 -66.0705 -20.5489 Q-66.0705 -22.6427 -65.0392 -23.7911 Q-64.008 -24.9396 -62.1174 -24.9396 Q-60.258 -24.9396 -59.2267 -23.7677 Q-58.1955 -22.5958 -58.1955 -20.5333 ZM-65.0236 -20.5333 Q-65.0236 -18.7989 -64.2814 -17.8927 Q-63.5392 -16.9864 -62.1174 -16.9864 Q-60.6955 -16.9864 -59.9689 -17.8849 Q-59.2424 -18.7833 -59.2424 -20.5333 Q-59.2424 -22.2677 -59.9689 -23.1583 Q-60.6955 -24.0489 -62.1174 -24.0489 Q-63.5392 -24.0489 -64.2814 -23.1505 Q-65.0236 -22.2521 -65.0236 -20.5333 Z"/><path style="fill:none;" d="M30.751 -21.74 L30.501 -22.173 L30.001 -22.173"/><path style="fill:none;" d="M45.251 3.377 L45.501 3.81 L46.001 3.81"/><path style="fill:none;" d="M45.251 -47.72 L45.501 -48.153 L46.001 -48.153"/><path style="fill:none;" d="M75.001 3.81 L75.501 3.81 L75.751 3.377"/><path style="fill:none;" d="M75.001 -48.153 L75.501 -48.153 L75.751 -47.72"/><path style="fill:none;" d="M90.251 -21.74 L90.501 -22.173 L91.001 -22.173"/></g></g></svg></svg></svg></svg>