<svg xmlns:ns0="http://www.w3.org/2000/svg" xmlns="http://www.w3.org/2000/svg"><g transform="translate(0, 0)"><ns0:svg width="800" viewBox="0 0 800 71" style="fill-opacity:1; color-rendering:auto; color-interpolation:auto; text-rendering:auto; stroke:black; stroke-linecap:square; stroke-miterlimit:10; shape-rendering:auto; stroke-opacity:1; fill:black; stroke-dasharray:none; font-weight:normal; stroke-width:1; font-family:'Open Sans'; font-style:normal; stroke-linejoin:miter; font-size:12; stroke-dashoffset:0; image-rendering:auto;" height="71" class="cas-substance-image"><ns0:svg class="cas-substance-single-component"><ns0:rect y="0" x="0" width="800" stroke="none" ry="7" rx="7" height="71" fill="white" class="cas-substance-group" /><ns0:svg y="0" x="0" width="800" viewBox="0 0 1020 90" style="fill:black;" height="71" class="cas-substance-single-component-image"><ns0:svg><ns0:g><ns0:g transform="translate(510,45)" style="text-rendering:geometricPrecision; color-rendering:optimizeQuality; color-interpolation:linearRGB; stroke-linecap:butt; image-rendering:optimizeQuality;"><ns0:line y2="7.5" y1="-4.5649" x2="-12.99" x1="-33.8864" style="fill:none;" /><ns0:line y2="7.5" y1="-4.5652" x2="-64.953" x1="-44.0536" style="fill:none;" /><ns0:line y2="-7.5" y1="7.5" x2="12.99" x1="-12.99" style="fill:none;" /><ns0:line y2="-7.5" y1="7.5" x2="-90.933" x1="-64.953" style="fill:none;" /><ns0:line y2="31.0234" y1="6.4896" x2="-66.703" x1="-66.703" style="fill:none;" /><ns0:line y2="31.0234" y1="6.4897" x2="-63.203" x1="-63.203" style="fill:none;" /><ns0:line y2="4.5649" y1="-7.5" x2="33.8864" x1="12.99" style="fill:none;" /><ns0:line y2="7.5" y1="-7.5" x2="-116.913" x1="-90.933" style="fill:none;" /><ns0:line y2="-7.5" y1="4.5652" x2="64.953" x1="44.0536" style="fill:none;" /><ns0:line y2="-7.5" y1="7.5" x2="-142.893" x1="-116.913" style="fill:none;" /><ns0:line y2="7.5" y1="-7.5" x2="90.933" x1="64.953" style="fill:none;" /><ns0:line y2="-31.1484" y1="-6.4896" x2="66.703" x1="66.703" style="fill:none;" /><ns0:line y2="-31.1484" y1="-6.4897" x2="63.203" x1="63.203" style="fill:none;" /><ns0:line y2="7.5" y1="-7.5" x2="-168.876" x1="-142.893" style="fill:none;" /><ns0:line y2="-7.5" y1="7.5" x2="116.913" x1="90.933" style="fill:none;" /><ns0:line y2="-7.5" y1="7.5" x2="-194.856" x1="-168.876" style="fill:none;" /><ns0:line y2="7.5" y1="-7.5" x2="142.893" x1="116.913" style="fill:none;" /><ns0:line y2="7.5" y1="-7.5" x2="-220.836" x1="-194.856" style="fill:none;" /><ns0:line y2="-7.5" y1="7.5" x2="168.876" x1="142.893" style="fill:none;" /><ns0:line y2="-7.5" y1="7.5" x2="-246.816" x1="-220.836" style="fill:none;" /><ns0:line y2="7.5" y1="-7.5" x2="194.856" x1="168.876" style="fill:none;" /><ns0:line y2="7.5" y1="-7.5" x2="-272.799" x1="-246.816" style="fill:none;" /><ns0:line y2="-7.5" y1="7.5" x2="220.836" x1="194.856" style="fill:none;" /><ns0:line y2="-7.5" y1="7.5" x2="-298.779" x1="-272.799" style="fill:none;" /><ns0:line y2="7.5" y1="-7.5" x2="246.816" x1="220.836" style="fill:none;" /><ns0:line y2="7.5" y1="-7.5" x2="-324.759" x1="-298.779" style="fill:none;" /><ns0:line y2="-7.5" y1="7.5" x2="272.799" x1="246.816" style="fill:none;" /><ns0:line y2="-7.5" y1="7.5" x2="-350.739" x1="-324.759" style="fill:none;" /><ns0:line y2="7.5" y1="-7.5" x2="298.779" x1="272.799" style="fill:none;" /><ns0:line y2="7.5" y1="-7.5" x2="-376.722" x1="-350.739" style="fill:none;" /><ns0:line y2="-7.5" y1="7.5" x2="324.759" x1="298.779" style="fill:none;" /><ns0:line y2="-7.5" y1="7.5" x2="-402.702" x1="-376.722" style="fill:none;" /><ns0:line y2="7.5" y1="-7.5" x2="350.739" x1="324.759" style="fill:none;" /><ns0:line y2="7.5" y1="-7.5" x2="-428.682" x1="-402.702" style="fill:none;" /><ns0:line y2="-7.5" y1="7.5" x2="376.722" x1="350.739" style="fill:none;" /><ns0:line y2="-7.5" y1="7.5" x2="-454.662" x1="-428.682" style="fill:none;" /><ns0:line y2="7.5" y1="-7.5" x2="402.702" x1="376.722" style="fill:none;" /><ns0:line y2="7.5" y1="-7.5" x2="-480.645" x1="-454.662" style="fill:none;" /><ns0:line y2="-7.5" y1="7.5" x2="428.682" x1="402.702" style="fill:none;" /><ns0:line y2="-7.5" y1="7.5" x2="-506.625" x1="-480.645" style="fill:none;" /><ns0:line y2="7.5" y1="-7.5" x2="454.665" x1="428.682" style="fill:none;" /><ns0:line y2="-7.5" y1="7.5" x2="480.645" x1="454.665" style="fill:none;" /><ns0:line y2="7.5" y1="-7.5" x2="506.625" x1="480.645" style="fill:none;" /></ns0:g><ns0:g transform="translate(510,45)" style="fill:rgb(0,5,255); text-rendering:geometricPrecision; color-rendering:optimizeQuality; image-rendering:optimizeQuality; font-family:'Open Sans'; stroke:rgb(0,5,255); color-interpolation:linearRGB;"><ns0:path style="stroke:none;" d="M-35.6184 -3.3438 L-36.7591 -3.3438 L-41.4466 -10.5312 L-41.4934 -10.5312 Q-41.3997 -9.2656 -41.3997 -8.2188 L-41.3997 -3.3438 L-42.3216 -3.3438 L-42.3216 -11.9062 L-41.1966 -11.9062 L-36.5247 -4.75 L-36.4778 -4.75 Q-36.4778 -4.9062 -36.5247 -5.7656 Q-36.5716 -6.625 -36.5559 -7 L-36.5559 -11.9062 L-35.6184 -11.9062 L-35.6184 -3.3438 Z" /><ns0:path style="stroke:none;" d="M-35.7122 -12.9062 L-36.7122 -12.9062 L-36.7122 -16.9375 L-41.2278 -16.9375 L-41.2278 -12.9062 L-42.2278 -12.9062 L-42.2278 -21.4688 L-41.2278 -21.4688 L-41.2278 -17.8281 L-36.7122 -17.8281 L-36.7122 -21.4688 L-35.7122 -21.4688 L-35.7122 -12.9062 Z" /></ns0:g><ns0:g transform="translate(510,45)" style="stroke-linecap:butt; text-rendering:geometricPrecision; color-rendering:optimizeQuality; image-rendering:optimizeQuality; font-family:'Open Sans'; color-interpolation:linearRGB; stroke-miterlimit:5;"><ns0:path style="fill:none;" d="M-13.423 7.25 L-12.99 7.5 L-12.557 7.25" /><ns0:path style="fill:none;" d="M-64.52 7.25 L-64.953 7.5 L-65.386 7.25" /><ns0:path style="fill:none;" d="M12.557 -7.25 L12.99 -7.5 L13.423 -7.25" /><ns0:path style="fill:none;" d="M-90.5 -7.25 L-90.933 -7.5 L-91.366 -7.25" /><ns0:path style="fill:rgb(230,0,0); stroke:none;" d="M-61.0155 37.4297 Q-61.0155 39.4922 -62.0546 40.6719 Q-63.0936 41.8516 -64.9374 41.8516 Q-66.828 41.8516 -67.8593 40.6875 Q-68.8905 39.5234 -68.8905 37.4141 Q-68.8905 35.3203 -67.8593 34.1719 Q-66.828 33.0234 -64.9374 33.0234 Q-63.078 33.0234 -62.0468 34.1953 Q-61.0155 35.3672 -61.0155 37.4297 ZM-67.8436 37.4297 Q-67.8436 39.1641 -67.1014 40.0703 Q-66.3593 40.9766 -64.9374 40.9766 Q-63.5155 40.9766 -62.7889 40.0781 Q-62.0624 39.1797 -62.0624 37.4297 Q-62.0624 35.6953 -62.7889 34.8047 Q-63.5155 33.9141 -64.9374 33.9141 Q-66.3593 33.9141 -67.1014 34.8125 Q-67.8436 35.7109 -67.8436 37.4297 Z" /><ns0:path style="fill:rgb(0,5,255); stroke:none;" d="M42.3216 11.6562 L41.1809 11.6562 L36.4934 4.4688 L36.4466 4.4688 Q36.5403 5.7344 36.5403 6.7812 L36.5403 11.6562 L35.6184 11.6562 L35.6184 3.0938 L36.7434 3.0938 L41.4153 10.25 L41.4622 10.25 Q41.4622 10.0938 41.4153 9.2344 Q41.3684 8.375 41.3841 8 L41.3841 3.0938 L42.3216 3.0938 L42.3216 11.6562 Z" /><ns0:path style="fill:rgb(0,5,255); stroke:none;" d="M42.2278 21.2188 L41.2278 21.2188 L41.2278 17.1875 L36.7122 17.1875 L36.7122 21.2188 L35.7122 21.2188 L35.7122 12.6562 L36.7122 12.6562 L36.7122 16.2969 L41.2278 16.2969 L41.2278 12.6562 L42.2278 12.6562 L42.2278 21.2188 Z" /><ns0:path style="fill:none;" d="M-116.48 7.25 L-116.913 7.5 L-117.346 7.25" /><ns0:path style="fill:none;" d="M64.52 -7.25 L64.953 -7.5 L65.386 -7.25" /><ns0:path style="fill:none;" d="M-142.46 -7.25 L-142.893 -7.5 L-143.326 -7.25" /><ns0:path style="fill:none;" d="M90.5 7.25 L90.933 7.5 L91.366 7.25" /><ns0:path style="fill:rgb(230,0,0); stroke:none;" d="M68.8905 -37.5703 Q68.8905 -35.5078 67.8514 -34.3281 Q66.8124 -33.1484 64.9686 -33.1484 Q63.078 -33.1484 62.0468 -34.3125 Q61.0155 -35.4766 61.0155 -37.5859 Q61.0155 -39.6797 62.0468 -40.8281 Q63.078 -41.9766 64.9686 -41.9766 Q66.828 -41.9766 67.8593 -40.8047 Q68.8905 -39.6328 68.8905 -37.5703 ZM62.0624 -37.5703 Q62.0624 -35.8359 62.8046 -34.9297 Q63.5468 -34.0234 64.9686 -34.0234 Q66.3905 -34.0234 67.1171 -34.9219 Q67.8436 -35.8203 67.8436 -37.5703 Q67.8436 -39.3047 67.1171 -40.1953 Q66.3905 -41.0859 64.9686 -41.0859 Q63.5468 -41.0859 62.8046 -40.1875 Q62.0624 -39.2891 62.0624 -37.5703 Z" /><ns0:path style="fill:none;" d="M-168.443 7.25 L-168.876 7.5 L-169.309 7.25" /><ns0:path style="fill:none;" d="M116.48 -7.25 L116.913 -7.5 L117.346 -7.25" /><ns0:path style="fill:none;" d="M-194.423 -7.25 L-194.856 -7.5 L-195.289 -7.25" /><ns0:path style="fill:none;" d="M142.46 7.25 L142.893 7.5 L143.326 7.25" /><ns0:path style="fill:none;" d="M-220.403 7.25 L-220.836 7.5 L-221.269 7.25" /><ns0:path style="fill:none;" d="M168.443 -7.25 L168.876 -7.5 L169.309 -7.25" /><ns0:path style="fill:none;" d="M-246.383 -7.25 L-246.816 -7.5 L-247.249 -7.25" /><ns0:path style="fill:none;" d="M194.423 7.25 L194.856 7.5 L195.289 7.25" /><ns0:path style="fill:none;" d="M-272.366 7.25 L-272.799 7.5 L-273.232 7.25" /><ns0:path style="fill:none;" d="M220.403 -7.25 L220.836 -7.5 L221.269 -7.25" /><ns0:path style="fill:none;" d="M-298.346 -7.25 L-298.779 -7.5 L-299.212 -7.25" /><ns0:path style="fill:none;" d="M246.383 7.25 L246.816 7.5 L247.249 7.25" /><ns0:path style="fill:none;" d="M-324.326 7.25 L-324.759 7.5 L-325.192 7.25" /><ns0:path style="fill:none;" d="M272.366 -7.25 L272.799 -7.5 L273.232 -7.25" /><ns0:path style="fill:none;" d="M-350.306 -7.25 L-350.739 -7.5 L-351.172 -7.25" /><ns0:path style="fill:none;" d="M298.346 7.25 L298.779 7.5 L299.212 7.25" /><ns0:path style="fill:none;" d="M-376.289 7.25 L-376.722 7.5 L-377.155 7.25" /><ns0:path style="fill:none;" d="M324.326 -7.25 L324.759 -7.5 L325.192 -7.25" /><ns0:path style="fill:none;" d="M-402.269 -7.25 L-402.702 -7.5 L-403.135 -7.25" /><ns0:path style="fill:none;" d="M350.306 7.25 L350.739 7.5 L351.172 7.25" /><ns0:path style="fill:none;" d="M-428.249 7.25 L-428.682 7.5 L-429.115 7.25" /><ns0:path style="fill:none;" d="M376.289 -7.25 L376.722 -7.5 L377.155 -7.25" /><ns0:path style="fill:none;" d="M-454.229 -7.25 L-454.662 -7.5 L-455.095 -7.25" /><ns0:path style="fill:none;" d="M402.269 7.25 L402.702 7.5 L403.135 7.25" /><ns0:path style="fill:none;" d="M-480.212 7.25 L-480.645 7.5 L-481.078 7.25" /><ns0:path style="fill:none;" d="M428.249 -7.25 L428.682 -7.5 L429.115 -7.25" /><ns0:path style="fill:none;" d="M454.232 7.25 L454.665 7.5 L455.098 7.25" /><ns0:path style="fill:none;" d="M480.212 -7.25 L480.645 -7.5 L481.078 -7.25" /></ns0:g></ns0:g></ns0:svg></ns0:svg></ns0:svg></ns0:svg></g></svg>