<svg xmlns:ns0="http://www.w3.org/2000/svg" xmlns="http://www.w3.org/2000/svg"><g transform="translate(0, 0)"><ns0:svg width="122" viewBox="0 0 122 105" style="fill-opacity:1; color-rendering:auto; color-interpolation:auto; text-rendering:auto; stroke:black; stroke-linecap:square; stroke-miterlimit:10; shape-rendering:auto; stroke-opacity:1; fill:black; stroke-dasharray:none; font-weight:normal; stroke-width:1; font-family:'Open Sans'; font-style:normal; stroke-linejoin:miter; font-size:12; stroke-dashoffset:0; image-rendering:auto;" height="105" class="cas-substance-image"><ns0:svg class="cas-substance-single-component"><ns0:rect y="0" x="0" width="122" stroke="none" ry="7" rx="7" height="105" fill="white" class="cas-substance-group" /><ns0:svg y="0" x="0" width="122" viewBox="0 0 122 105" style="fill:black;" height="105" class="cas-substance-single-component-image"><ns0:svg><ns0:g><ns0:g transform="translate(66,52)" style="text-rendering:geometricPrecision; color-rendering:optimizeQuality; color-interpolation:linearRGB; stroke-linecap:butt; image-rendering:optimizeQuality;"><ns0:line y2="-15" y1="0" x2="25.983" x1="0.003" style="fill:none;" /><ns0:line y2="-15" y1="0" x2="-25.977" x1="0.003" style="fill:none;" /><ns0:line y2="30" y1="0" x2="0.003" x1="0.003" style="fill:none;" /><ns0:line y2="-30" y1="0" x2="0.003" x1="0.003" style="fill:none;" /><ns0:line y2="0" y1="-15" x2="51.963" x1="25.983" style="fill:none;" /><ns0:line y2="-3.2255" y1="-15" x2="-46.3751" x1="-25.977" style="fill:none;" /><ns0:line y2="41.774" y1="30" x2="-20.3895" x1="0.003" style="fill:none;" /><ns0:line y2="-41.8112" y1="-30" x2="20.46" x1="0.003" style="fill:none;" /><ns0:path style="fill:none; stroke-miterlimit:5;" d="M25.55 -14.75 L25.983 -15 L26.416 -14.75" /><ns0:path style="fill:none; stroke-miterlimit:5;" d="M-25.544 -14.75 L-25.977 -15 L-26.41 -14.75" /><ns0:path style="fill:none; stroke-miterlimit:5;" d="M0.003 29.5 L0.003 30 L-0.43 30.25" /><ns0:path style="fill:none; stroke-miterlimit:5;" d="M0.003 -29.5 L0.003 -30 L0.436 -30.25" /></ns0:g><ns0:g transform="translate(66,52)" style="stroke-linecap:butt; fill:rgb(230,0,0); text-rendering:geometricPrecision; color-rendering:optimizeQuality; image-rendering:optimizeQuality; font-family:'Open Sans'; stroke:rgb(230,0,0); color-interpolation:linearRGB; stroke-miterlimit:5;"><ns0:path style="stroke:none;" d="M-48.0255 -0.0703 Q-48.0255 1.9922 -49.0646 3.1719 Q-50.1036 4.3516 -51.9474 4.3516 Q-53.838 4.3516 -54.8693 3.1875 Q-55.9005 2.0234 -55.9005 -0.0859 Q-55.9005 -2.1797 -54.8693 -3.3281 Q-53.838 -4.4766 -51.9474 -4.4766 Q-50.088 -4.4766 -49.0568 -3.3047 Q-48.0255 -2.1328 -48.0255 -0.0703 ZM-54.8536 -0.0703 Q-54.8536 1.6641 -54.1114 2.5703 Q-53.3693 3.4766 -51.9474 3.4766 Q-50.5255 3.4766 -49.7989 2.5781 Q-49.0724 1.6797 -49.0724 -0.0703 Q-49.0724 -1.8047 -49.7989 -2.6953 Q-50.5255 -3.5859 -51.9474 -3.5859 Q-53.3693 -3.5859 -54.1114 -2.6875 Q-54.8536 -1.7891 -54.8536 -0.0703 Z" /><ns0:path style="stroke:none;" d="M-56.9005 4.2266 L-57.9005 4.2266 L-57.9005 0.1953 L-62.4161 0.1953 L-62.4161 4.2266 L-63.4161 4.2266 L-63.4161 -4.3359 L-62.4161 -4.3359 L-62.4161 -0.6953 L-57.9005 -0.6953 L-57.9005 -4.3359 L-56.9005 -4.3359 L-56.9005 4.2266 Z" /><ns0:path style="stroke:none;" d="M-22.0395 44.9297 Q-22.0395 46.9922 -23.0786 48.1719 Q-24.1176 49.3516 -25.9614 49.3516 Q-27.852 49.3516 -28.8832 48.1875 Q-29.9145 47.0234 -29.9145 44.9141 Q-29.9145 42.8203 -28.8832 41.6719 Q-27.852 40.5234 -25.9614 40.5234 Q-24.102 40.5234 -23.0707 41.6953 Q-22.0395 42.8672 -22.0395 44.9297 ZM-28.8676 44.9297 Q-28.8676 46.6641 -28.1254 47.5703 Q-27.3832 48.4766 -25.9614 48.4766 Q-24.5395 48.4766 -23.8129 47.5781 Q-23.0864 46.6797 -23.0864 44.9297 Q-23.0864 43.1953 -23.8129 42.3047 Q-24.5395 41.4141 -25.9614 41.4141 Q-27.3832 41.4141 -28.1254 42.3125 Q-28.8676 43.2109 -28.8676 44.9297 Z" /><ns0:path style="stroke:none;" d="M-30.9145 49.2266 L-31.9145 49.2266 L-31.9145 45.1953 L-36.4301 45.1953 L-36.4301 49.2266 L-37.4301 49.2266 L-37.4301 40.6641 L-36.4301 40.6641 L-36.4301 44.3047 L-31.9145 44.3047 L-31.9145 40.6641 L-30.9145 40.6641 L-30.9145 49.2266 Z" /><ns0:path style="stroke:none;" d="M29.9205 -45.0703 Q29.9205 -43.0078 28.8814 -41.8281 Q27.8424 -40.6484 25.9986 -40.6484 Q24.108 -40.6484 23.0767 -41.8125 Q22.0455 -42.9766 22.0455 -45.0859 Q22.0455 -47.1797 23.0767 -48.3281 Q24.108 -49.4766 25.9986 -49.4766 Q27.858 -49.4766 28.8892 -48.3047 Q29.9205 -47.1328 29.9205 -45.0703 ZM23.0924 -45.0703 Q23.0924 -43.3359 23.8346 -42.4297 Q24.5767 -41.5234 25.9986 -41.5234 Q27.4205 -41.5234 28.1471 -42.4219 Q28.8736 -43.3203 28.8736 -45.0703 Q28.8736 -46.8047 28.1471 -47.6953 Q27.4205 -48.5859 25.9986 -48.5859 Q24.5767 -48.5859 23.8346 -47.6875 Q23.0924 -46.7891 23.0924 -45.0703 Z" /><ns0:path style="stroke:none;" d="M37.4361 -40.7734 L36.4361 -40.7734 L36.4361 -44.8047 L31.9205 -44.8047 L31.9205 -40.7734 L30.9205 -40.7734 L30.9205 -49.3359 L31.9205 -49.3359 L31.9205 -45.6953 L36.4361 -45.6953 L36.4361 -49.3359 L37.4361 -49.3359 L37.4361 -40.7734 Z" /></ns0:g></ns0:g></ns0:svg></ns0:svg></ns0:svg></ns0:svg></g><g transform="translate(122, 0)"><ns0:svg width="222" viewBox="0 0 222 122" style="fill-opacity:1; color-rendering:auto; color-interpolation:auto; text-rendering:auto; stroke:black; stroke-linecap:square; stroke-miterlimit:10; shape-rendering:auto; stroke-opacity:1; fill:black; stroke-dasharray:none; font-weight:normal; stroke-width:1; font-family:'Open Sans'; font-style:normal; stroke-linejoin:miter; font-size:12; stroke-dashoffset:0; image-rendering:auto;" height="122" class="cas-substance-image"><ns0:svg class="cas-substance-single-component"><ns0:rect y="0" x="0" width="222" stroke="none" ry="7" rx="7" height="122" fill="white" class="cas-substance-group" /><ns0:svg y="0" x="0" width="222" viewBox="0 0 222 122" style="fill:black;" height="122" class="cas-substance-single-component-image"><ns0:svg><ns0:g><ns0:g transform="translate(111,68)" style="text-rendering:geometricPrecision; color-rendering:optimizeQuality; color-interpolation:linearRGB; stroke-linecap:butt; image-rendering:optimizeQuality;"><ns0:path style="fill:none;" d="M-27.4581 -64.5932 L-29.1718 -64.5932 L-29.1718 -36.0308 L-27.4581 -36.0308" /><ns0:path style="fill:none;" d="M24.9963 -64.5932 L26.71 -64.5932 L26.71 -36.0308 L24.9963 -36.0308" /><ns0:path style="stroke:none;" d="M-34.6718 -46.1557 L-35.625 -46.1557 L-35.625 -52.2651 Q-35.625 -53.0307 -35.5781 -53.7026 Q-35.6875 -53.5776 -35.8437 -53.4448 Q-36 -53.312 -37.2343 -52.2964 L-37.75 -52.9682 L-35.4843 -54.7182 L-34.6718 -54.7182 L-34.6718 -46.1557 Z" /><ns0:line y2="3.9343" y1="-5.3624" x2="72.2733" x1="56.1716" style="fill:none;" /><ns0:line y2="0.9032" y1="-8.3934" x2="74.0234" x1="57.9216" style="fill:none;" /><ns0:line y2="5.187" y1="-6.8782" x2="25.98" x1="46.8794" style="fill:none;" /><ns0:line y2="18.4611" y1="9.3612" x2="97.4338" x1="81.6728" style="fill:none;" /><ns0:line y2="15.4301" y1="6.3301" x2="99.1839" x1="83.4228" style="fill:none;" /><ns0:line y2="1.0337" y1="-8.3934" x2="-74.2494" x1="-57.9216" style="fill:none;" /><ns0:line y2="4.0647" y1="-5.3624" x2="-72.4993" x1="-56.1716" style="fill:none;" /><ns0:line y2="5.187" y1="-6.8782" x2="-25.98" x1="-46.8794" style="fill:none;" /><ns0:line y2="15.4454" y1="6.5434" x2="-99.2105" x1="-83.7923" style="fill:none;" /><ns0:line y2="18.4765" y1="9.5745" x2="-97.4605" x1="-82.0422" style="fill:none;" /><ns0:line y2="-50.187" y1="-50.187" x2="16.71" x1="-5.4082" style="fill:none;" /><ns0:line y2="5.187" y1="-9.813" x2="25.98" x1="0" style="fill:none;" /><ns0:line y2="7.2077" y1="-5.7715" x2="22.48" x1="-0.0001" style="fill:none;" /><ns0:line y2="5.187" y1="-9.813" x2="-25.98" x1="0" style="fill:none;" /><ns0:line y2="35.187" y1="5.187" x2="25.98" x1="25.98" style="fill:none;" /><ns0:line y2="35.187" y1="5.187" x2="-25.98" x1="-25.98" style="fill:none;" /><ns0:line y2="33.1663" y1="7.2077" x2="-22.48" x1="-22.48" style="fill:none;" /><ns0:line y2="50.187" y1="35.187" x2="0" x1="25.98" style="fill:none;" /><ns0:line y2="46.1455" y1="33.1663" x2="-0.0001" x1="22.48" style="fill:none;" /><ns0:line y2="50.187" y1="35.187" x2="0" x1="-25.98" style="fill:none;" /><ns0:path style="fill:rgb(0,5,255); stroke:none;" d="M55.3146 -5.6568 L54.1739 -5.6568 L49.4864 -12.8443 L49.4396 -12.8443 Q49.5333 -11.5786 49.5333 -10.5318 L49.5333 -5.6568 L48.6114 -5.6568 L48.6114 -14.2193 L49.7364 -14.2193 L54.4083 -7.063 L54.4552 -7.063 Q54.4552 -7.2193 54.4083 -8.0786 Q54.3614 -8.938 54.3771 -9.313 L54.3771 -14.2193 L55.3146 -14.2193 L55.3146 -5.6568 Z" /><ns0:path style="stroke:none;" d="M78.8102 1.6089 Q77.4039 1.6089 76.5836 2.5464 Q75.7633 3.4839 75.7633 5.1245 Q75.7633 6.7964 76.5524 7.7183 Q77.3414 8.6401 78.7946 8.6401 Q79.7008 8.6401 80.8414 8.312 L80.8414 9.187 Q79.9508 9.5308 78.6539 9.5308 Q76.7633 9.5308 75.7321 8.3745 Q74.7008 7.2183 74.7008 5.1089 Q74.7008 3.7808 75.193 2.7886 Q75.6852 1.7964 76.6227 1.2573 Q77.5602 0.7183 78.8258 0.7183 Q80.1696 0.7183 81.1852 1.2026 L80.7633 2.062 Q79.7789 1.6089 78.8102 1.6089 Z" /><ns0:path style="fill:rgb(230,0,0); stroke:none;" d="M107.8605 20.1167 Q107.8605 22.1792 106.8214 23.3589 Q105.7824 24.5386 103.9386 24.5386 Q102.048 24.5386 101.0167 23.3745 Q99.9855 22.2104 99.9855 20.1011 Q99.9855 18.0073 101.0167 16.8589 Q102.048 15.7104 103.9386 15.7104 Q105.798 15.7104 106.8292 16.8823 Q107.8605 18.0542 107.8605 20.1167 ZM101.0324 20.1167 Q101.0324 21.8511 101.7746 22.7573 Q102.5167 23.6636 103.9386 23.6636 Q105.3605 23.6636 106.0871 22.7651 Q106.8136 21.8667 106.8136 20.1167 Q106.8136 18.3823 106.0871 17.4917 Q105.3605 16.6011 103.9386 16.6011 Q102.5167 16.6011 101.7746 17.4995 Q101.0324 18.3979 101.0324 20.1167 Z" /><ns0:path style="fill:rgb(0,5,255); stroke:none;" d="M-48.6114 -5.6568 L-49.7521 -5.6568 L-54.4396 -12.8443 L-54.4864 -12.8443 Q-54.3927 -11.5786 -54.3927 -10.5318 L-54.3927 -5.6568 L-55.3146 -5.6568 L-55.3146 -14.2193 L-54.1896 -14.2193 L-49.5177 -7.063 L-49.4708 -7.063 Q-49.4708 -7.2193 -49.5177 -8.0786 Q-49.5646 -8.938 -49.5489 -9.313 L-49.5489 -14.2193 L-48.6114 -14.2193 L-48.6114 -5.6568 Z" /><ns0:path style="stroke:none;" d="M-77.0758 1.6089 Q-78.4821 1.6089 -79.3024 2.5464 Q-80.1227 3.4839 -80.1227 5.1245 Q-80.1227 6.7964 -79.3336 7.7183 Q-78.5446 8.6401 -77.0914 8.6401 Q-76.1852 8.6401 -75.0446 8.312 L-75.0446 9.187 Q-75.9352 9.5308 -77.2321 9.5308 Q-79.1227 9.5308 -80.1539 8.3745 Q-81.1852 7.2183 -81.1852 5.1089 Q-81.1852 3.7808 -80.693 2.7886 Q-80.2008 1.7964 -79.2633 1.2573 Q-78.3258 0.7183 -77.0602 0.7183 Q-75.7164 0.7183 -74.7008 1.2026 L-75.1227 2.062 Q-76.1071 1.6089 -77.0758 1.6089 Z" /><ns0:path style="fill:rgb(230,0,0); stroke:none;" d="M-99.9855 20.1167 Q-99.9855 22.1792 -101.0246 23.3589 Q-102.0636 24.5386 -103.9074 24.5386 Q-105.798 24.5386 -106.8292 23.3745 Q-107.8605 22.2104 -107.8605 20.1011 Q-107.8605 18.0073 -106.8292 16.8589 Q-105.798 15.7104 -103.9074 15.7104 Q-102.048 15.7104 -101.0167 16.8823 Q-99.9855 18.0542 -99.9855 20.1167 ZM-106.8136 20.1167 Q-106.8136 21.8511 -106.0714 22.7573 Q-105.3292 23.6636 -103.9074 23.6636 Q-102.4855 23.6636 -101.7589 22.7651 Q-101.0324 21.8667 -101.0324 20.1167 Q-101.0324 18.3823 -101.7589 17.4917 Q-102.4855 16.6011 -103.9074 16.6011 Q-105.3292 16.6011 -106.0714 17.4995 Q-106.8136 18.3979 -106.8136 20.1167 Z" /><ns0:path style="stroke:none;" d="M-12.3281 -50.3901 Q-12.3281 -48.2808 -13.4765 -47.1558 Q-14.625 -46.0308 -16.7968 -46.0308 L-19.1718 -46.0308 L-19.1718 -54.5933 L-16.5468 -54.5933 Q-14.5468 -54.5933 -13.4375 -53.4917 Q-12.3281 -52.3901 -12.3281 -50.3901 ZM-13.375 -50.3589 Q-13.375 -52.0308 -14.2187 -52.8823 Q-15.0625 -53.7339 -16.7187 -53.7339 L-18.1718 -53.7339 L-18.1718 -46.8901 L-16.9531 -46.8901 Q-15.1718 -46.8901 -14.2734 -47.7651 Q-13.375 -48.6401 -13.375 -50.3589 ZM-7.4082 -46.0308 L-8.3613 -46.0308 L-8.3613 -52.1401 Q-8.3613 -52.9058 -8.3144 -53.5776 Q-8.4238 -53.4526 -8.58 -53.3198 Q-8.7363 -53.187 -9.9707 -52.1714 L-10.4863 -52.8433 L-8.2207 -54.5933 L-7.4082 -54.5933 L-7.4082 -46.0308 Z" /><ns0:path style="fill:none; stroke-miterlimit:5;" d="M0.433 -9.563 L0 -9.813 L-0.433 -9.563" /><ns0:path style="fill:none; stroke-miterlimit:5;" d="M25.547 4.937 L25.98 5.187 L25.98 5.687" /><ns0:path style="fill:none; stroke-miterlimit:5;" d="M-25.98 5.687 L-25.98 5.187 L-26.413 4.937" /><ns0:path style="fill:none; stroke-miterlimit:5;" d="M25.98 34.687 L25.98 35.187 L25.547 35.437" /><ns0:path style="fill:none; stroke-miterlimit:5;" d="M-25.98 34.687 L-25.98 35.187 L-25.547 35.437" /><ns0:path style="fill:none; stroke-miterlimit:5;" d="M0.433 49.937 L0 50.187 L-0.433 49.937" /></ns0:g></ns0:g></ns0:svg></ns0:svg></ns0:svg></ns0:svg></g></svg>