<svg xmlns:ns0="http://www.w3.org/2000/svg" xmlns="http://www.w3.org/2000/svg"><g transform="translate(0, 0)"><ns0:svg width="185" viewBox="0 0 185 131" style="fill-opacity:1; color-rendering:auto; color-interpolation:auto; text-rendering:auto; stroke:black; stroke-linecap:square; stroke-miterlimit:10; shape-rendering:auto; stroke-opacity:1; fill:black; stroke-dasharray:none; font-weight:normal; stroke-width:1; font-family:'Open Sans'; font-style:normal; stroke-linejoin:miter; font-size:12; stroke-dashoffset:0; image-rendering:auto;" height="131" class="cas-substance-image"><ns0:svg class="cas-substance-single-component"><ns0:rect y="0" x="0" width="185" stroke="none" ry="7" rx="7" height="131" fill="white" class="cas-substance-group" /><ns0:svg y="0" x="0" width="185" viewBox="0 0 185 131" style="fill:black;" height="131" class="cas-substance-single-component-image"><ns0:svg><ns0:g><ns0:g transform="translate(90,65)" style="text-rendering:geometricPrecision; color-rendering:optimizeQuality; color-interpolation:linearRGB; stroke-linecap:butt; image-rendering:optimizeQuality;"><ns0:line y2="-11.7517" y1="-26.4662" x2="-54.1495" x1="-45.6538" style="fill:none;" /><ns0:line y2="-51.467" y1="-36.3116" x2="-29.1984" x1="-37.9486" style="fill:none;" /><ns0:line y2="-53.2171" y1="-38.0617" x2="-32.2295" x1="-40.9797" style="fill:none;" /><ns0:line y2="-45.3469" y1="-36.0365" x2="-62.0526" x1="-45.9271" style="fill:none;" /><ns0:line y2="-42.3159" y1="-33.0055" x2="-63.8027" x1="-47.6771" style="fill:none;" /><ns0:line y2="-17.01" y1="-29.4541" x2="-16.47" x1="-38.0256" style="fill:none;" /><ns0:line y2="-6.03" y1="-6.03" x2="-87.453" x1="-63.3905" style="fill:none;" /><ns0:line y2="17.6941" y1="26.5708" x2="82.8047" x1="67.4286" style="fill:none;" /><ns0:line y2="14.663" y1="23.5396" x2="81.0548" x1="65.6787" style="fill:none;" /><ns0:line y2="51.5134" y1="34.1463" x2="59.72" x1="59.72" style="fill:none;" /><ns0:line y2="51.5134" y1="34.1463" x2="63.22" x1="63.22" style="fill:none;" /><ns0:line y2="12.99" y1="25.0549" x2="35.49" x1="56.3864" style="fill:none;" /><ns0:line y2="-32.01" y1="-17.01" x2="9.51" x1="-16.47" style="fill:none;" /><ns0:line y2="-27.9685" y1="-14.9893" x2="9.5101" x1="-12.97" style="fill:none;" /><ns0:line y2="12.99" y1="-17.01" x2="-16.47" x1="-16.47" style="fill:none;" /><ns0:line y2="-17.01" y1="-32.01" x2="35.49" x1="9.51" style="fill:none;" /><ns0:line y2="27.99" y1="12.99" x2="9.51" x1="-16.47" style="fill:none;" /><ns0:line y2="23.9485" y1="10.9693" x2="9.5101" x1="-12.97" style="fill:none;" /><ns0:line y2="12.99" y1="-17.01" x2="35.49" x1="35.49" style="fill:none;" /><ns0:line y2="10.9693" y1="-14.9893" x2="31.99" x1="31.99" style="fill:none;" /><ns0:line y2="12.99" y1="27.99" x2="35.49" x1="9.51" style="fill:none;" /></ns0:g><ns0:g transform="translate(90,65)" style="fill:rgb(148,108,0); text-rendering:geometricPrecision; color-rendering:optimizeQuality; image-rendering:optimizeQuality; font-family:'Open Sans'; stroke:rgb(148,108,0); color-interpolation:linearRGB;"><ns0:path style="stroke:none;" d="M-39.7577 -30.0725 Q-39.7577 -28.9475 -40.578 -28.3069 Q-41.3983 -27.6663 -42.8046 -27.6663 Q-44.3358 -27.6663 -45.1483 -28.0725 L-45.1483 -29.0256 Q-44.6171 -28.8069 -43.9999 -28.6741 Q-43.3827 -28.5413 -42.7733 -28.5413 Q-41.7733 -28.5413 -41.2733 -28.9241 Q-40.7733 -29.3069 -40.7733 -29.9788 Q-40.7733 -30.4163 -40.953 -30.7053 Q-41.1327 -30.9944 -41.5467 -31.2366 Q-41.9608 -31.4788 -42.8202 -31.7756 Q-44.0077 -32.1975 -44.5233 -32.7834 Q-45.0389 -33.3694 -45.0389 -34.3225 Q-45.0389 -35.3069 -44.2967 -35.8928 Q-43.5546 -36.4788 -42.3202 -36.4788 Q-41.0546 -36.4788 -39.9764 -36.01 L-40.2889 -35.1506 Q-41.3514 -35.5881 -42.3514 -35.5881 Q-43.1483 -35.5881 -43.5936 -35.2522 Q-44.0389 -34.9163 -44.0389 -34.3069 Q-44.0389 -33.8694 -43.8749 -33.5803 Q-43.7108 -33.2913 -43.3202 -33.0569 Q-42.9296 -32.8225 -42.1171 -32.5256 Q-40.7733 -32.0569 -40.2655 -31.5022 Q-39.7577 -30.9475 -39.7577 -30.0725 Z" /><ns0:path style="fill:rgb(230,0,0); stroke:none;" d="M-53.5155 -6.1003 Q-53.5155 -4.0378 -54.5546 -2.8581 Q-55.5936 -1.6784 -57.4374 -1.6784 Q-59.328 -1.6784 -60.3592 -2.8425 Q-61.3905 -4.0066 -61.3905 -6.1159 Q-61.3905 -8.2097 -60.3592 -9.3581 Q-59.328 -10.5066 -57.4374 -10.5066 Q-55.578 -10.5066 -54.5467 -9.3347 Q-53.5155 -8.1628 -53.5155 -6.1003 ZM-60.3436 -6.1003 Q-60.3436 -4.3659 -59.6014 -3.4597 Q-58.8592 -2.5534 -57.4374 -2.5534 Q-56.0155 -2.5534 -55.2889 -3.4519 Q-54.5624 -4.3503 -54.5624 -6.1003 Q-54.5624 -7.8347 -55.2889 -8.7253 Q-56.0155 -9.6159 -57.4374 -9.6159 Q-58.8592 -9.6159 -59.6014 -8.7175 Q-60.3436 -7.8191 -60.3436 -6.1003 Z" /><ns0:path style="fill:rgb(230,0,0); stroke:none;" d="M-23.5155 -58.0603 Q-23.5155 -55.9978 -24.5546 -54.8181 Q-25.5936 -53.6384 -27.4374 -53.6384 Q-29.328 -53.6384 -30.3592 -54.8025 Q-31.3905 -55.9666 -31.3905 -58.0759 Q-31.3905 -60.1697 -30.3592 -61.3181 Q-29.328 -62.4666 -27.4374 -62.4666 Q-25.578 -62.4666 -24.5467 -61.2947 Q-23.5155 -60.1228 -23.5155 -58.0603 ZM-30.3436 -58.0603 Q-30.3436 -56.3259 -29.6014 -55.4197 Q-28.8592 -54.5134 -27.4374 -54.5134 Q-26.0155 -54.5134 -25.2889 -55.4119 Q-24.5624 -56.3103 -24.5624 -58.0603 Q-24.5624 -59.7947 -25.2889 -60.6853 Q-26.0155 -61.5759 -27.4374 -61.5759 Q-28.8592 -61.5759 -29.6014 -60.6775 Q-30.3436 -59.7791 -30.3436 -58.0603 Z" /><ns0:path style="fill:rgb(230,0,0); stroke:none;" d="M-64.4955 -47.0803 Q-64.4955 -45.0178 -65.5346 -43.8381 Q-66.5736 -42.6584 -68.4174 -42.6584 Q-70.308 -42.6584 -71.3392 -43.8225 Q-72.3705 -44.9866 -72.3705 -47.0959 Q-72.3705 -49.1897 -71.3392 -50.3381 Q-70.308 -51.4866 -68.4174 -51.4866 Q-66.558 -51.4866 -65.5267 -50.3147 Q-64.4955 -49.1428 -64.4955 -47.0803 ZM-71.3236 -47.0803 Q-71.3236 -45.3459 -70.5814 -44.4397 Q-69.8392 -43.5334 -68.4174 -43.5334 Q-66.9955 -43.5334 -66.2689 -44.4319 Q-65.5424 -45.3303 -65.5424 -47.0803 Q-65.5424 -48.8147 -66.2689 -49.7053 Q-66.9955 -50.5959 -68.4174 -50.5959 Q-69.8392 -50.5959 -70.5814 -49.6975 Q-71.3236 -48.7991 -71.3236 -47.0803 Z" /><ns0:path style="fill:rgb(0,5,255); stroke:none;" d="M64.8216 32.1463 L63.6809 32.1463 L58.9934 24.9588 L58.9466 24.9588 Q59.0403 26.2244 59.0403 27.2713 L59.0403 32.1463 L58.1184 32.1463 L58.1184 23.5838 L59.2434 23.5838 L63.9153 30.74 L63.9622 30.74 Q63.9622 30.5838 63.9153 29.7244 Q63.8684 28.865 63.8841 28.49 L63.8841 23.5838 L64.8216 23.5838 L64.8216 32.1463 Z" /><ns0:path style="fill:rgb(230,0,0); stroke:none;" d="M91.3905 12.9197 Q91.3905 14.9822 90.3514 16.1619 Q89.3124 17.3416 87.4686 17.3416 Q85.578 17.3416 84.5468 16.1775 Q83.5155 15.0134 83.5155 12.9041 Q83.5155 10.8103 84.5468 9.6619 Q85.578 8.5134 87.4686 8.5134 Q89.328 8.5134 90.3593 9.6853 Q91.3905 10.8572 91.3905 12.9197 ZM84.5624 12.9197 Q84.5624 14.6541 85.3046 15.5603 Q86.0468 16.4666 87.4686 16.4666 Q88.8905 16.4666 89.6171 15.5681 Q90.3436 14.6697 90.3436 12.9197 Q90.3436 11.1853 89.6171 10.2947 Q88.8905 9.4041 87.4686 9.4041 Q86.0468 9.4041 85.3046 10.3025 Q84.5624 11.2009 84.5624 12.9197 Z" /><ns0:path style="fill:rgb(230,0,0); stroke:none;" d="M65.4075 57.9197 Q65.4075 59.9822 64.3684 61.1619 Q63.3294 62.3416 61.4856 62.3416 Q59.595 62.3416 58.5638 61.1775 Q57.5325 60.0134 57.5325 57.9041 Q57.5325 55.8103 58.5638 54.6619 Q59.595 53.5134 61.4856 53.5134 Q63.345 53.5134 64.3763 54.6853 Q65.4075 55.8572 65.4075 57.9197 ZM58.5794 57.9197 Q58.5794 59.6541 59.3216 60.5603 Q60.0638 61.4666 61.4856 61.4666 Q62.9075 61.4666 63.6341 60.5681 Q64.3606 59.6697 64.3606 57.9197 Q64.3606 56.1853 63.6341 55.2947 Q62.9075 54.4041 61.4856 54.4041 Q60.0638 54.4041 59.3216 55.3025 Q58.5794 56.2009 58.5794 57.9197 Z" /></ns0:g><ns0:g transform="translate(90,65)" style="stroke-linecap:butt; text-rendering:geometricPrecision; color-rendering:optimizeQuality; image-rendering:optimizeQuality; font-family:'Open Sans'; color-interpolation:linearRGB; stroke-miterlimit:5;"><ns0:path style="fill:none;" d="M-16.037 -17.26 L-16.47 -17.01 L-16.903 -17.26" /><ns0:path style="fill:none;" d="M9.077 -31.76 L9.51 -32.01 L9.943 -31.76" /><ns0:path style="fill:none;" d="M-16.47 12.49 L-16.47 12.99 L-16.037 13.24" /><ns0:path style="fill:none;" d="M35.057 -17.26 L35.49 -17.01 L35.49 -16.51" /><ns0:path style="fill:none;" d="M9.077 27.74 L9.51 27.99 L9.943 27.74" /><ns0:path style="fill:none;" d="M35.49 12.49 L35.49 12.99 L35.923 13.24" /></ns0:g></ns0:g></ns0:svg></ns0:svg></ns0:svg></ns0:svg></g></svg>