<svg xmlns:ns0="http://www.w3.org/2000/svg" xmlns="http://www.w3.org/2000/svg"><g transform="translate(0, 0)"><ns0:svg width="427" viewBox="0 0 427 293" style="fill-opacity:1; color-rendering:auto; color-interpolation:auto; text-rendering:auto; stroke:black; stroke-linecap:square; stroke-miterlimit:10; shape-rendering:auto; stroke-opacity:1; fill:black; stroke-dasharray:none; font-weight:normal; stroke-width:1; font-family:'Open Sans'; font-style:normal; stroke-linejoin:miter; font-size:12; stroke-dashoffset:0; image-rendering:auto;" height="293" class="cas-substance-image"><ns0:svg class="cas-substance-single-component"><ns0:rect y="0" x="0" width="427" stroke="none" ry="7" rx="7" height="293" fill="white" class="cas-substance-group" /><ns0:svg y="0" x="0" width="427" viewBox="0 0 427 293" style="fill:black;" height="293" class="cas-substance-single-component-image"><ns0:svg><ns0:g><ns0:g transform="translate(214,146)" style="text-rendering:geometricPrecision; color-rendering:optimizeQuality; color-interpolation:linearRGB; stroke-linecap:butt; image-rendering:optimizeQuality;"><ns0:line y2="-18.7117" y1="-38.97" x2="-26.6965" x1="-15" style="fill:none;" /><ns0:line y2="-38.97" y1="-38.97" x2="15" x1="-15" style="fill:none;" /><ns0:line y2="-64.953" y1="-38.97" x2="-30" x1="-15" style="fill:none;" /><ns0:line y2="12.99" y1="-7.3543" x2="-15" x1="-26.7461" style="fill:none;" /><ns0:line y2="-59.3048" y1="-38.97" x2="26.7393" x1="15" style="fill:none;" /><ns0:line y2="-64.953" y1="-64.953" x2="-54.0625" x1="-30" style="fill:none;" /><ns0:line y2="38.97" y1="12.99" x2="-30" x1="-15" style="fill:none;" /><ns0:line y2="14.74" y1="14.74" x2="9.0625" x1="-16.0104" style="fill:none;" /><ns0:line y2="11.24" y1="11.24" x2="9.0625" x1="-16.0104" style="fill:none;" /><ns0:line y2="-64.953" y1="-64.953" x2="60" x1="35.9375" style="fill:none;" /><ns0:line y2="-90.933" y1="-70.6806" x2="-75" x1="-63.3069" style="fill:none;" /><ns0:line y2="38.97" y1="38.97" x2="-60" x1="-30" style="fill:none;" /><ns0:line y2="-90.933" y1="-64.953" x2="75" x1="60" style="fill:none;" /><ns0:line y2="-43.8229" y1="-64.953" x2="70.1777" x1="57.9793" style="fill:none;" /><ns0:line y2="-45.5728" y1="-66.703" x2="73.2089" x1="61.0104" style="fill:none;" /><ns0:line y2="-90.933" y1="-90.933" x2="-105" x1="-75" style="fill:none;" /><ns0:line y2="-110.39" y1="-89.183" x2="-61.7454" x1="-73.9896" style="fill:none;" /><ns0:line y2="-112.1401" y1="-90.933" x2="-64.7765" x1="-77.0207" style="fill:none;" /><ns0:line y2="64.953" y1="38.97" x2="-75" x1="-60" style="fill:none;" /><ns0:line y2="-90.933" y1="-90.933" x2="105" x1="75" style="fill:none;" /><ns0:line y2="-64.953" y1="-90.933" x2="-120" x1="-105" style="fill:none;" /><ns0:line y2="90.933" y1="64.953" x2="-60" x1="-75" style="fill:none;" /><ns0:line y2="-116.913" y1="-90.933" x2="120" x1="105" style="fill:none;" /><ns0:line y2="-64.953" y1="-64.953" x2="-150" x1="-120" style="fill:none;" /><ns0:line y2="-116.913" y1="-116.913" x2="150" x1="120" style="fill:none;" /><ns0:line y2="-90.933" y1="-64.953" x2="-165" x1="-150" style="fill:none;" /><ns0:line y2="116.913" y1="90.933" x2="-75" x1="-60" style="fill:none;" /><ns0:line y2="116.9131" y1="94.433" x2="-70.9585" x1="-57.9793" style="fill:none;" /><ns0:line y2="90.933" y1="90.933" x2="-30" x1="-60" style="fill:none;" /><ns0:line y2="142.893" y1="116.913" x2="-60" x1="-75" style="fill:none;" /><ns0:line y2="116.913" y1="90.933" x2="-15" x1="-30" style="fill:none;" /><ns0:line y2="116.9131" y1="94.433" x2="-19.0415" x1="-32.0207" style="fill:none;" /><ns0:line y2="142.893" y1="142.893" x2="-30" x1="-60" style="fill:none;" /><ns0:line y2="139.393" y1="139.393" x2="-32.0207" x1="-57.9793" style="fill:none;" /><ns0:line y2="142.893" y1="116.913" x2="-30" x1="-15" style="fill:none;" /><ns0:line y2="-142.893" y1="-116.913" x2="165" x1="150" style="fill:none;" /><ns0:line y2="-139.393" y1="-116.9129" x2="167.0207" x1="154.0415" style="fill:none;" /><ns0:line y2="-90.933" y1="-116.913" x2="165" x1="150" style="fill:none;" /><ns0:line y2="-142.893" y1="-142.893" x2="195" x1="165" style="fill:none;" /><ns0:line y2="-90.933" y1="-90.933" x2="195" x1="165" style="fill:none;" /><ns0:line y2="-94.433" y1="-94.433" x2="192.9793" x1="167.0207" style="fill:none;" /><ns0:line y2="-116.913" y1="-142.893" x2="210" x1="195" style="fill:none;" /><ns0:line y2="-116.9129" y1="-139.393" x2="205.9585" x1="192.9793" style="fill:none;" /><ns0:line y2="-116.913" y1="-90.933" x2="210" x1="195" style="fill:none;" /><ns0:line y2="-90.933" y1="-90.933" x2="-195" x1="-165" style="fill:none;" /><ns0:line y2="-94.433" y1="-94.433" x2="-192.9793" x1="-167.0207" style="fill:none;" /><ns0:line y2="-116.913" y1="-90.933" x2="-150" x1="-165" style="fill:none;" /><ns0:line y2="-116.913" y1="-90.933" x2="-210" x1="-195" style="fill:none;" /><ns0:line y2="-142.893" y1="-116.913" x2="-165" x1="-150" style="fill:none;" /><ns0:line y2="-139.393" y1="-116.9129" x2="-167.0207" x1="-154.0415" style="fill:none;" /><ns0:line y2="-142.893" y1="-116.913" x2="-195" x1="-210" style="fill:none;" /><ns0:line y2="-139.393" y1="-116.9129" x2="-192.9793" x1="-205.9585" style="fill:none;" /><ns0:line y2="-142.893" y1="-142.893" x2="-195" x1="-165" style="fill:none;" /></ns0:g><ns0:g transform="translate(214,146)" style="fill:rgb(230,0,0); text-rendering:geometricPrecision; color-rendering:optimizeQuality; image-rendering:optimizeQuality; font-family:'Open Sans'; stroke:rgb(230,0,0); color-interpolation:linearRGB;"><ns0:path style="stroke:none;" d="M-26.0625 -13.0603 Q-26.0625 -10.9978 -27.1016 -9.8181 Q-28.1406 -8.6384 -29.9844 -8.6384 Q-31.875 -8.6384 -32.9062 -9.8025 Q-33.9375 -10.9666 -33.9375 -13.0759 Q-33.9375 -15.1697 -32.9062 -16.3181 Q-31.875 -17.4666 -29.9844 -17.4666 Q-28.125 -17.4666 -27.0938 -16.2947 Q-26.0625 -15.1228 -26.0625 -13.0603 ZM-32.8906 -13.0603 Q-32.8906 -11.3259 -32.1484 -10.4197 Q-31.4062 -9.5134 -29.9844 -9.5134 Q-28.5625 -9.5134 -27.8359 -10.4119 Q-27.1094 -11.3103 -27.1094 -13.0603 Q-27.1094 -14.7947 -27.8359 -15.6853 Q-28.5625 -16.5759 -29.9844 -16.5759 Q-31.4062 -16.5759 -32.1484 -15.6775 Q-32.8906 -14.7791 -32.8906 -13.0603 Z" /></ns0:g><ns0:g transform="translate(214,146)" style="stroke-linecap:butt; text-rendering:geometricPrecision; color-rendering:optimizeQuality; image-rendering:optimizeQuality; font-family:'Open Sans'; color-interpolation:linearRGB; stroke-miterlimit:5;"><ns0:path style="fill:none;" d="M14.5 -38.97 L15 -38.97 L15.25 -39.403" /><ns0:path style="fill:none;" d="M-29.75 -64.52 L-30 -64.953 L-30.5 -64.953" /><ns0:path style="fill:none;" d="M-15.25 12.557 L-15 12.99 L-15.25 13.423" /><ns0:path style="fill:rgb(230,0,0); stroke:none;" d="M33.9375 -65.0233 Q33.9375 -62.9608 32.8984 -61.7811 Q31.8594 -60.6014 30.0156 -60.6014 Q28.125 -60.6014 27.0938 -61.7655 Q26.0625 -62.9296 26.0625 -65.0389 Q26.0625 -67.1327 27.0938 -68.2811 Q28.125 -69.4296 30.0156 -69.4296 Q31.875 -69.4296 32.9062 -68.2577 Q33.9375 -67.0858 33.9375 -65.0233 ZM27.1094 -65.0233 Q27.1094 -63.2889 27.8516 -62.3827 Q28.5938 -61.4764 30.0156 -61.4764 Q31.4375 -61.4764 32.1641 -62.3749 Q32.8906 -63.2733 32.8906 -65.0233 Q32.8906 -66.7577 32.1641 -67.6483 Q31.4375 -68.5389 30.0156 -68.5389 Q28.5938 -68.5389 27.8516 -67.6405 Q27.1094 -66.7421 27.1094 -65.0233 Z" /><ns0:path style="fill:rgb(230,0,0); stroke:none;" d="M-56.0625 -65.0233 Q-56.0625 -62.9608 -57.1016 -61.7811 Q-58.1406 -60.6014 -59.9844 -60.6014 Q-61.875 -60.6014 -62.9062 -61.7655 Q-63.9375 -62.9296 -63.9375 -65.0389 Q-63.9375 -67.1327 -62.9062 -68.2811 Q-61.875 -69.4296 -59.9844 -69.4296 Q-58.125 -69.4296 -57.0938 -68.2577 Q-56.0625 -67.0858 -56.0625 -65.0233 ZM-62.8906 -65.0233 Q-62.8906 -63.2889 -62.1484 -62.3827 Q-61.4062 -61.4764 -59.9844 -61.4764 Q-58.5625 -61.4764 -57.8359 -62.3749 Q-57.1094 -63.2733 -57.1094 -65.0233 Q-57.1094 -66.7577 -57.8359 -67.6483 Q-58.5625 -68.5389 -59.9844 -68.5389 Q-61.4062 -68.5389 -62.1484 -67.6405 Q-62.8906 -66.7421 -62.8906 -65.0233 Z" /><ns0:path style="fill:none;" d="M-29.75 38.537 L-30 38.97 L-30.5 38.97" /><ns0:path style="fill:rgb(230,0,0); stroke:none;" d="M18.9375 12.9197 Q18.9375 14.9822 17.8984 16.1619 Q16.8594 17.3416 15.0156 17.3416 Q13.125 17.3416 12.0938 16.1775 Q11.0625 15.0134 11.0625 12.9041 Q11.0625 10.8103 12.0938 9.6619 Q13.125 8.5134 15.0156 8.5134 Q16.875 8.5134 17.9062 9.6853 Q18.9375 10.8572 18.9375 12.9197 ZM12.1094 12.9197 Q12.1094 14.6541 12.8516 15.5603 Q13.5938 16.4666 15.0156 16.4666 Q16.4375 16.4666 17.1641 15.5681 Q17.8906 14.6697 17.8906 12.9197 Q17.8906 11.1853 17.1641 10.2947 Q16.4375 9.4041 15.0156 9.4041 Q13.5938 9.4041 12.8516 10.3025 Q12.1094 11.2009 12.1094 12.9197 Z" /><ns0:path style="fill:none;" d="M59.5 -64.953 L60 -64.953 L60.25 -65.386" /><ns0:path style="fill:none;" d="M-74.75 -90.5 L-75 -90.933 L-75.5 -90.933" /><ns0:path style="fill:none;" d="M-59.5 38.97 L-60 38.97 L-60.25 39.403" /><ns0:path style="fill:none;" d="M74.75 -90.5 L75 -90.933 L75.5 -90.933" /><ns0:path style="fill:rgb(230,0,0); stroke:none;" d="M78.9375 -39.0403 Q78.9375 -36.9778 77.8984 -35.7981 Q76.8594 -34.6184 75.0156 -34.6184 Q73.125 -34.6184 72.0938 -35.7825 Q71.0625 -36.9466 71.0625 -39.0559 Q71.0625 -41.1497 72.0938 -42.2981 Q73.125 -43.4466 75.0156 -43.4466 Q76.875 -43.4466 77.9062 -42.2747 Q78.9375 -41.1028 78.9375 -39.0403 ZM72.1094 -39.0403 Q72.1094 -37.3059 72.8516 -36.3997 Q73.5938 -35.4934 75.0156 -35.4934 Q76.4375 -35.4934 77.1641 -36.3919 Q77.8906 -37.2903 77.8906 -39.0403 Q77.8906 -40.7747 77.1641 -41.6653 Q76.4375 -42.5559 75.0156 -42.5559 Q73.5938 -42.5559 72.8516 -41.6575 Q72.1094 -40.7591 72.1094 -39.0403 Z" /><ns0:path style="fill:none;" d="M-104.5 -90.933 L-105 -90.933 L-105.25 -90.5" /><ns0:path style="fill:rgb(230,0,0); stroke:none;" d="M-56.0625 -116.9833 Q-56.0625 -114.9208 -57.1016 -113.7411 Q-58.1406 -112.5614 -59.9844 -112.5614 Q-61.875 -112.5614 -62.9062 -113.7255 Q-63.9375 -114.8896 -63.9375 -116.9989 Q-63.9375 -119.0927 -62.9062 -120.2411 Q-61.875 -121.3896 -59.9844 -121.3896 Q-58.125 -121.3896 -57.0938 -120.2177 Q-56.0625 -119.0458 -56.0625 -116.9833 ZM-62.8906 -116.9833 Q-62.8906 -115.2489 -62.1484 -114.3427 Q-61.4062 -113.4364 -59.9844 -113.4364 Q-58.5625 -113.4364 -57.8359 -114.3349 Q-57.1094 -115.2333 -57.1094 -116.9833 Q-57.1094 -118.7177 -57.8359 -119.6083 Q-58.5625 -120.4989 -59.9844 -120.4989 Q-61.4062 -120.4989 -62.1484 -119.6005 Q-62.8906 -118.7021 -62.8906 -116.9833 Z" /><ns0:path style="fill:none;" d="M-74.75 64.52 L-75 64.953 L-74.75 65.386" /><ns0:path style="fill:none;" d="M104.5 -90.933 L105 -90.933 L105.25 -91.366" /><ns0:path style="fill:none;" d="M-119.75 -65.386 L-120 -64.953 L-120.5 -64.953" /><ns0:path style="fill:none;" d="M119.75 -116.48 L120 -116.913 L120.5 -116.913" /><ns0:path style="fill:none;" d="M-149.5 -64.953 L-150 -64.953 L-150.25 -65.386" /><ns0:path style="fill:none;" d="M-60.25 91.366 L-60 90.933 L-60.25 90.5" /><ns0:path style="fill:none;" d="M-74.75 116.48 L-75 116.913 L-74.75 117.346" /><ns0:path style="fill:none;" d="M-30.5 90.933 L-30 90.933 L-29.75 91.366" /><ns0:path style="fill:none;" d="M-60.25 142.46 L-60 142.893 L-59.5 142.893" /><ns0:path style="fill:none;" d="M-15.25 116.48 L-15 116.913 L-15.25 117.346" /><ns0:path style="fill:none;" d="M-30.5 142.893 L-30 142.893 L-29.75 142.46" /><ns0:path style="fill:none;" d="M150.25 -117.346 L150 -116.913 L149.5 -116.913" /><ns0:path style="fill:none;" d="M164.75 -142.46 L165 -142.893 L165.5 -142.893" /><ns0:path style="fill:none;" d="M164.75 -91.366 L165 -90.933 L165.5 -90.933" /><ns0:path style="fill:none;" d="M194.5 -142.893 L195 -142.893 L195.25 -142.46" /><ns0:path style="fill:none;" d="M194.5 -90.933 L195 -90.933 L195.25 -91.366" /><ns0:path style="fill:none;" d="M209.75 -117.346 L210 -116.913 L209.75 -116.48" /><ns0:path style="fill:none;" d="M-165.5 -90.933 L-165 -90.933 L-164.75 -90.5" /><ns0:path style="fill:none;" d="M-194.5 -90.933 L-195 -90.933 L-195.25 -91.366" /><ns0:path style="fill:none;" d="M-150.25 -116.48 L-150 -116.913 L-150.25 -117.346" /><ns0:path style="fill:none;" d="M-209.75 -116.48 L-210 -116.913 L-209.75 -117.346" /><ns0:path style="fill:none;" d="M-164.75 -142.46 L-165 -142.893 L-165.5 -142.893" /><ns0:path style="fill:none;" d="M-195.25 -142.46 L-195 -142.893 L-194.5 -142.893" /></ns0:g></ns0:g></ns0:svg></ns0:svg></ns0:svg></ns0:svg></g></svg>