<svg width="112" viewBox="0 0 112 76" style="fill-opacity:1; color-rendering:auto; color-interpolation:auto; text-rendering:auto; stroke:black; stroke-linecap:square; stroke-miterlimit:10; shape-rendering:auto; stroke-opacity:1; fill:black; stroke-dasharray:none; font-weight:normal; stroke-width:1; font-family:'Open Sans'; font-style:normal; stroke-linejoin:miter; font-size:12; stroke-dashoffset:0; image-rendering:auto;" height="76" class="cas-substance-image" xmlns:xlink="http://www.w3.org/1999/xlink" xmlns="http://www.w3.org/2000/svg"><svg class="cas-substance-single-component"><rect y="0" x="0" width="112" stroke="none" ry="7" rx="7" height="76" fill="white" class="cas-substance-group"/><svg y="0" x="0" width="112" viewBox="0 0 112 76" style="fill:black;" height="76" class="cas-substance-single-component-image"><svg><g><g transform="translate(56,33)" style="text-rendering:geometricPrecision; color-rendering:optimizeQuality; color-interpolation:linearRGB; stroke-linecap:butt; image-rendering:optimizeQuality;"><line y2="-25.98" y1="0" x2="52.5" x1="37.5" style="fill:none;"/><path style="stroke:none;" d="M7.5 0.5 L7.5 -0.5 L39.6651 -2.75 L36.2009 3.25 Z"/><line y2="-25.98" y1="0" x2="-7.5" x1="7.5" style="fill:none;"/><line y2="19.8417" y1="0" x2="-3.956" x1="7.5" style="fill:none;"/><line y2="-25.98" y1="-25.98" x2="-31.5625" x1="-7.5" style="fill:none;"/><line y2="25.98" y1="25.98" x2="-37.5" x1="-12.8516" style="fill:none;"/><line y2="0" y1="-20.332" x2="-52.5" x1="-40.761" style="fill:none;"/><line y2="0" y1="25.98" x2="-52.5" x1="-37.5" style="fill:none;"/></g><g transform="translate(56,33)" style="font-size:8.4px; fill:gray; text-rendering:geometricPrecision; image-rendering:optimizeQuality; color-rendering:optimizeQuality; font-family:'Open Sans'; font-style:italic; stroke:gray; color-interpolation:linearRGB;"><path style="stroke:none;" d="M8.1115 -7.4961 Q8.1115 -8.8243 8.5802 -9.9493 Q9.049 -11.0743 10.0802 -12.1524 L10.6896 -12.1524 Q9.7208 -11.0899 9.2365 -9.918 Q8.7521 -8.7461 8.7521 -7.5118 Q8.7521 -6.1836 9.1896 -5.168 L8.674 -5.168 Q8.1115 -6.1993 8.1115 -7.4961 ZM11.6715 -8.8086 L11.1715 -6.4336 L10.5153 -6.4336 L11.7184 -12.1524 L12.9684 -12.1524 Q14.7028 -12.1524 14.7028 -10.7149 Q14.7028 -9.3555 13.2653 -8.9649 L14.2028 -6.4336 L13.484 -6.4336 L12.6559 -8.8086 L11.6715 -8.8086 ZM12.2497 -11.5586 Q11.859 -9.6368 11.7965 -9.3868 L12.4528 -9.3868 Q13.2028 -9.3868 13.609 -9.7149 Q14.0153 -10.043 14.0153 -10.668 Q14.0153 -11.1368 13.7575 -11.3477 Q13.4997 -11.5586 12.9059 -11.5586 L12.2497 -11.5586 ZM16.8888 -9.8086 Q16.8888 -8.4805 16.4122 -7.3477 Q15.9356 -6.2149 14.92 -5.168 L14.3106 -5.168 Q16.2481 -7.3243 16.2481 -9.8086 Q16.2481 -11.1368 15.8106 -12.1524 L16.3263 -12.1524 Q16.8888 -11.0899 16.8888 -9.8086 Z"/></g><g transform="translate(56,33)" style="stroke-linecap:butt; font-size:8.4px; text-rendering:geometricPrecision; image-rendering:optimizeQuality; color-rendering:optimizeQuality; font-family:'Open Sans'; font-style:italic; color-interpolation:linearRGB; stroke-miterlimit:5;"><path style="fill:none;" d="M-7.25 -25.547 L-7.5 -25.98 L-8 -25.98"/></g><g transform="translate(56,33)" style="stroke-linecap:butt; fill:rgb(0,5,255); text-rendering:geometricPrecision; color-rendering:optimizeQuality; image-rendering:optimizeQuality; font-family:'Open Sans'; stroke:rgb(0,5,255); color-interpolation:linearRGB; stroke-miterlimit:5;"><path style="stroke:none;" d="M-4.1484 30.1362 L-5.2891 30.1362 L-9.9766 22.9487 L-10.0234 22.9487 Q-9.9297 24.2144 -9.9297 25.2612 L-9.9297 30.1362 L-10.8516 30.1362 L-10.8516 21.5737 L-9.7266 21.5737 L-5.0547 28.73 L-5.0078 28.73 Q-5.0078 28.5737 -5.0547 27.7144 Q-5.1016 26.855 -5.0859 26.48 L-5.0859 21.5737 L-4.1484 21.5737 L-4.1484 30.1362 Z"/><path style="stroke:none;" d="M-4.2422 39.6987 L-5.2422 39.6987 L-5.2422 35.6675 L-9.7578 35.6675 L-9.7578 39.6987 L-10.7578 39.6987 L-10.7578 31.1362 L-9.7578 31.1362 L-9.7578 34.7769 L-5.2422 34.7769 L-5.2422 31.1362 L-4.2422 31.1362 L-4.2422 39.6987 Z"/><path style="fill:rgb(230,0,0); stroke:none;" d="M-33.5625 -26.0503 Q-33.5625 -23.9878 -34.6016 -22.8081 Q-35.6406 -21.6284 -37.4844 -21.6284 Q-39.375 -21.6284 -40.4062 -22.7925 Q-41.4375 -23.9566 -41.4375 -26.0659 Q-41.4375 -28.1597 -40.4062 -29.3081 Q-39.375 -30.4566 -37.4844 -30.4566 Q-35.625 -30.4566 -34.5938 -29.2847 Q-33.5625 -28.1128 -33.5625 -26.0503 ZM-40.3906 -26.0503 Q-40.3906 -24.3159 -39.6484 -23.4097 Q-38.9062 -22.5034 -37.4844 -22.5034 Q-36.0625 -22.5034 -35.3359 -23.4019 Q-34.6094 -24.3003 -34.6094 -26.0503 Q-34.6094 -27.7847 -35.3359 -28.6753 Q-36.0625 -29.5659 -37.4844 -29.5659 Q-38.9062 -29.5659 -39.6484 -28.6675 Q-40.3906 -27.7691 -40.3906 -26.0503 Z"/><path style="fill:none; stroke:black;" d="M-37 25.98 L-37.5 25.98 L-37.75 25.547"/><path style="fill:none; stroke:black;" d="M-52.25 -0.433 L-52.5 0 L-52.25 0.433"/></g></g></svg></svg></svg></svg>