<svg xmlns:ns0="http://www.w3.org/2000/svg" xmlns="http://www.w3.org/2000/svg"><g transform="translate(0, 0)"><ns0:svg width="159" viewBox="0 0 159 110" style="fill-opacity:1; color-rendering:auto; color-interpolation:auto; text-rendering:auto; stroke:black; stroke-linecap:square; stroke-miterlimit:10; shape-rendering:auto; stroke-opacity:1; fill:black; stroke-dasharray:none; font-weight:normal; stroke-width:1; font-family:'Open Sans'; font-style:normal; stroke-linejoin:miter; font-size:12; stroke-dashoffset:0; image-rendering:auto;" height="110" class="cas-substance-image"><ns0:svg class="cas-substance-single-component"><ns0:rect y="0" x="0" width="159" stroke="none" ry="7" rx="7" height="110" fill="white" class="cas-substance-group" /><ns0:svg y="0" x="0" width="159" viewBox="0 0 159 110" style="fill:black;" height="110" class="cas-substance-single-component-image"><ns0:svg><ns0:g><ns0:g transform="translate(80,55)" style="text-rendering:geometricPrecision; color-rendering:optimizeQuality; color-interpolation:linearRGB; stroke-linecap:butt; image-rendering:optimizeQuality;"><ns0:line y2="-25.98" y1="-5.7217" x2="75" x1="63.3035" style="fill:none;" /><ns0:line y2="0" y1="0" x2="30" x1="54.0625" style="fill:none;" /><ns0:line y2="25.98" y1="51.963" x2="15" x1="30" style="fill:none;" /><ns0:line y2="25.98" y1="51.963" x2="-15" x1="-30" style="fill:none;" /><ns0:line y2="-25.98" y1="-51.963" x2="-15" x1="-30" style="fill:none;" /><ns0:line y2="-20.3443" y1="0" x2="-71.7461" x1="-60" style="fill:none;" /><ns0:line y2="-22.0943" y1="-3.5" x2="-68.715" x1="-57.9793" style="fill:none;" /><ns0:line y2="0" y1="0" x2="-30" x1="-60" style="fill:none;" /><ns0:line y2="25.98" y1="0" x2="15" x1="30" style="fill:none;" /><ns0:line y2="22.48" y1="-0.0001" x2="12.9793" x1="25.9585" style="fill:none;" /><ns0:line y2="-25.98" y1="0" x2="15" x1="30" style="fill:none;" /><ns0:line y2="25.98" y1="25.98" x2="-15" x1="15" style="fill:none;" /><ns0:line y2="-25.98" y1="-25.98" x2="-15" x1="15" style="fill:none;" /><ns0:line y2="-22.48" y1="-22.48" x2="-12.9793" x1="12.9793" style="fill:none;" /><ns0:line y2="0" y1="25.98" x2="-30" x1="-15" style="fill:none;" /><ns0:line y2="-0.0001" y1="22.48" x2="-25.9585" x1="-12.9793" style="fill:none;" /><ns0:line y2="0" y1="-25.98" x2="-30" x1="-15" style="fill:none;" /></ns0:g><ns0:g transform="translate(80,55)" style="fill:rgb(230,0,0); text-rendering:geometricPrecision; color-rendering:optimizeQuality; image-rendering:optimizeQuality; font-family:'Open Sans'; stroke:rgb(230,0,0); color-interpolation:linearRGB;"><ns0:path style="stroke:none;" d="M63.9375 -0.0703 Q63.9375 1.9922 62.8984 3.1719 Q61.8594 4.3516 60.0156 4.3516 Q58.125 4.3516 57.0938 3.1875 Q56.0625 2.0234 56.0625 -0.0859 Q56.0625 -2.1797 57.0938 -3.3281 Q58.125 -4.4766 60.0156 -4.4766 Q61.875 -4.4766 62.9062 -3.3047 Q63.9375 -2.1328 63.9375 -0.0703 ZM57.1094 -0.0703 Q57.1094 1.6641 57.8516 2.5703 Q58.5938 3.4766 60.0156 3.4766 Q61.4375 3.4766 62.1641 2.5781 Q62.8906 1.6797 62.8906 -0.0703 Q62.8906 -1.8047 62.1641 -2.6953 Q61.4375 -3.5859 60.0156 -3.5859 Q58.5938 -3.5859 57.8516 -2.6875 Q57.1094 -1.7891 57.1094 -0.0703 Z" /></ns0:g><ns0:g transform="translate(80,55)" style="stroke-linecap:butt; text-rendering:geometricPrecision; color-rendering:optimizeQuality; image-rendering:optimizeQuality; font-family:'Open Sans'; color-interpolation:linearRGB; stroke-miterlimit:5;"><ns0:path style="fill:none;" d="M-60.25 -0.433 L-60 0 L-59.5 0" /><ns0:path transform="translate(1.5155,-0.875)" style="fill:rgb(230,0,0); stroke:none;" d="M-71.0625 -26.0503 Q-71.0625 -23.9878 -72.1016 -22.8081 Q-73.1406 -21.6284 -74.9844 -21.6284 Q-76.875 -21.6284 -77.9062 -22.7925 Q-78.9375 -23.9566 -78.9375 -26.0659 Q-78.9375 -28.1597 -77.9062 -29.3081 Q-76.875 -30.4566 -74.9844 -30.4566 Q-73.125 -30.4566 -72.0938 -29.2847 Q-71.0625 -28.1128 -71.0625 -26.0503 ZM-77.8906 -26.0503 Q-77.8906 -24.3159 -77.1484 -23.4097 Q-76.4062 -22.5034 -74.9844 -22.5034 Q-73.5625 -22.5034 -72.8359 -23.4019 Q-72.1094 -24.3003 -72.1094 -26.0503 Q-72.1094 -27.7847 -72.8359 -28.6753 Q-73.5625 -29.5659 -74.9844 -29.5659 Q-76.4062 -29.5659 -77.1484 -28.6675 Q-77.8906 -27.7691 -77.8906 -26.0503 Z" /></ns0:g><ns0:g transform="matrix(1,0,0,1,80,55)" style="stroke-linecap:butt; text-rendering:geometricPrecision; color-rendering:optimizeQuality; image-rendering:optimizeQuality; font-family:'Open Sans'; color-interpolation:linearRGB; stroke-miterlimit:5;"><ns0:path style="fill:none;" d="M29.75 0.433 L30 0 L30.5 0" /><ns0:path style="fill:none;" d="M15.25 25.547 L15 25.98 L15.25 26.413" /><ns0:path style="fill:none;" d="M15.25 -25.547 L15 -25.98 L14.5 -25.98" /><ns0:path style="fill:none;" d="M-15.25 25.547 L-15 25.98 L-15.25 26.413" /><ns0:path style="fill:none;" d="M-14.5 -25.98 L-15 -25.98 L-15.25 -26.413" /><ns0:path style="fill:none;" d="M-29.75 0.433 L-30 0 L-30.5 -0" /></ns0:g></ns0:g></ns0:svg></ns0:svg></ns0:svg></ns0:svg></g></svg>