<svg xmlns:ns0="http://www.w3.org/2000/svg" xmlns="http://www.w3.org/2000/svg"><g transform="translate(0, 0)"><ns0:svg width="133" viewBox="0 0 133 56" style="fill-opacity:1; color-rendering:auto; color-interpolation:auto; text-rendering:auto; stroke:black; stroke-linecap:square; stroke-miterlimit:10; shape-rendering:auto; stroke-opacity:1; fill:black; stroke-dasharray:none; font-weight:normal; stroke-width:1; font-family:'Open Sans'; font-style:normal; stroke-linejoin:miter; font-size:12; stroke-dashoffset:0; image-rendering:auto;" height="56" class="cas-substance-image"><ns0:svg class="cas-substance-single-component"><ns0:rect y="0" x="0" width="133" stroke="none" ry="7" rx="7" height="56" fill="white" class="cas-substance-group" /><ns0:svg y="0" x="0" width="133" viewBox="0 0 133 56" style="fill:black;" height="56" class="cas-substance-single-component-image"><ns0:svg><ns0:g><ns0:g transform="translate(66,26)" style="text-rendering:geometricPrecision; color-rendering:optimizeQuality; color-interpolation:linearRGB; stroke-linecap:butt; image-rendering:optimizeQuality;"><ns0:line y2="-22.5" y1="-7.5" x2="-25.98" x1="0" style="fill:none;" /><ns0:line y2="-22.5" y1="-7.5" x2="25.98" x1="0" style="fill:none;" /><ns0:line y2="16.0234" y1="-7.5" x2="0" x1="0" style="fill:none;" /><ns0:line y2="-10.7258" y1="-22.5" x2="-46.3753" x1="-25.98" style="fill:none;" /><ns0:line y2="-10.7412" y1="-22.5" x2="46.3487" x1="25.98" style="fill:none;" /><ns0:path style="fill:none; stroke-miterlimit:5;" d="M-25.547 -22.25 L-25.98 -22.5 L-26.413 -22.25" /><ns0:path style="fill:none; stroke-miterlimit:5;" d="M25.547 -22.25 L25.98 -22.5 L26.413 -22.25" /></ns0:g><ns0:g transform="translate(66,26)" style="stroke-linecap:butt; fill:rgb(230,0,0); text-rendering:geometricPrecision; color-rendering:optimizeQuality; image-rendering:optimizeQuality; font-family:'Open Sans'; stroke:rgb(230,0,0); color-interpolation:linearRGB; stroke-miterlimit:5;"><ns0:path style="stroke:none;" d="M3.9375 22.4297 Q3.9375 24.4922 2.8984 25.6719 Q1.8594 26.8516 0.0156 26.8516 Q-1.875 26.8516 -2.9062 25.6875 Q-3.9375 24.5234 -3.9375 22.4141 Q-3.9375 20.3203 -2.9062 19.1719 Q-1.875 18.0234 0.0156 18.0234 Q1.875 18.0234 2.9062 19.1953 Q3.9375 20.3672 3.9375 22.4297 ZM-2.8906 22.4297 Q-2.8906 24.1641 -2.1484 25.0703 Q-1.4062 25.9766 0.0156 25.9766 Q1.4375 25.9766 2.1641 25.0781 Q2.8906 24.1797 2.8906 22.4297 Q2.8906 20.6953 2.1641 19.8047 Q1.4375 18.9141 0.0156 18.9141 Q-1.4062 18.9141 -2.1484 19.8125 Q-2.8906 20.7109 -2.8906 22.4297 Z" /><ns0:path style="stroke:none;" d="M11.4531 26.7266 L10.4531 26.7266 L10.4531 22.6953 L5.9375 22.6953 L5.9375 26.7266 L4.9375 26.7266 L4.9375 18.1641 L5.9375 18.1641 L5.9375 21.8047 L10.4531 21.8047 L10.4531 18.1641 L11.4531 18.1641 L11.4531 26.7266 Z" /><ns0:path style="stroke:none;" d="M-48.0255 -7.5703 Q-48.0255 -5.5078 -49.0646 -4.3281 Q-50.1036 -3.1484 -51.9474 -3.1484 Q-53.838 -3.1484 -54.8693 -4.3125 Q-55.9005 -5.4766 -55.9005 -7.5859 Q-55.9005 -9.6797 -54.8693 -10.8281 Q-53.838 -11.9766 -51.9474 -11.9766 Q-50.088 -11.9766 -49.0568 -10.8047 Q-48.0255 -9.6328 -48.0255 -7.5703 ZM-54.8536 -7.5703 Q-54.8536 -5.8359 -54.1114 -4.9297 Q-53.3693 -4.0234 -51.9474 -4.0234 Q-50.5255 -4.0234 -49.7989 -4.9219 Q-49.0724 -5.8203 -49.0724 -7.5703 Q-49.0724 -9.3047 -49.7989 -10.1953 Q-50.5255 -11.0859 -51.9474 -11.0859 Q-53.3693 -11.0859 -54.1114 -10.1875 Q-54.8536 -9.2891 -54.8536 -7.5703 Z" /><ns0:path style="stroke:none;" d="M-56.9005 -3.2734 L-57.9005 -3.2734 L-57.9005 -7.3047 L-62.4161 -7.3047 L-62.4161 -3.2734 L-63.4161 -3.2734 L-63.4161 -11.8359 L-62.4161 -11.8359 L-62.4161 -8.1953 L-57.9005 -8.1953 L-57.9005 -11.8359 L-56.9005 -11.8359 L-56.9005 -3.2734 Z" /><ns0:path style="stroke:none;" d="M55.9005 -7.5703 Q55.9005 -5.5078 54.8614 -4.3281 Q53.8224 -3.1484 51.9786 -3.1484 Q50.088 -3.1484 49.0568 -4.3125 Q48.0255 -5.4766 48.0255 -7.5859 Q48.0255 -9.6797 49.0568 -10.8281 Q50.088 -11.9766 51.9786 -11.9766 Q53.838 -11.9766 54.8693 -10.8047 Q55.9005 -9.6328 55.9005 -7.5703 ZM49.0724 -7.5703 Q49.0724 -5.8359 49.8146 -4.9297 Q50.5568 -4.0234 51.9786 -4.0234 Q53.4005 -4.0234 54.1271 -4.9219 Q54.8536 -5.8203 54.8536 -7.5703 Q54.8536 -9.3047 54.1271 -10.1953 Q53.4005 -11.0859 51.9786 -11.0859 Q50.5568 -11.0859 49.8146 -10.1875 Q49.0724 -9.2891 49.0724 -7.5703 Z" /><ns0:path style="stroke:none;" d="M63.4161 -3.2734 L62.4161 -3.2734 L62.4161 -7.3047 L57.9005 -7.3047 L57.9005 -3.2734 L56.9005 -3.2734 L56.9005 -11.8359 L57.9005 -11.8359 L57.9005 -8.1953 L62.4161 -8.1953 L62.4161 -11.8359 L63.4161 -11.8359 L63.4161 -3.2734 Z" /></ns0:g></ns0:g></ns0:svg></ns0:svg></ns0:svg></ns0:svg></g><g transform="translate(133, 0)"><ns0:svg width="433" viewBox="0 0 433 60" style="fill-opacity:1; color-rendering:auto; color-interpolation:auto; text-rendering:auto; stroke:black; stroke-linecap:square; stroke-miterlimit:10; shape-rendering:auto; stroke-opacity:1; fill:black; stroke-dasharray:none; font-weight:normal; stroke-width:1; font-family:'Open Sans'; font-style:normal; stroke-linejoin:miter; font-size:12; stroke-dashoffset:0; image-rendering:auto;" height="60" class="cas-substance-image"><ns0:svg class="cas-substance-single-component"><ns0:rect y="0" x="0" width="433" stroke="none" ry="7" rx="7" height="60" fill="white" class="cas-substance-group" /><ns0:svg y="0" x="0" width="433" viewBox="0 0 433 60" style="fill:black;" height="60" class="cas-substance-single-component-image"><ns0:svg><ns0:g><ns0:g transform="translate(222,30)" style="text-rendering:geometricPrecision; color-rendering:optimizeQuality; color-interpolation:linearRGB; stroke-linecap:butt; image-rendering:optimizeQuality;"><ns0:line y2="-7.5" y1="-22.5" x2="-25.98" x1="-51.96" style="fill:none;" /><ns0:line y2="-7.5" y1="-22.5" x2="-77.943" x1="-51.96" style="fill:none;" /><ns0:line y2="-22.5" y1="-7.5" x2="0" x1="-25.98" style="fill:none;" /><ns0:line y2="-22.5" y1="-7.5" x2="-103.923" x1="-77.943" style="fill:none;" /><ns0:line y2="-7.5" y1="-22.5" x2="25.98" x1="0" style="fill:none;" /><ns0:line y2="-7.5" y1="-22.5" x2="-129.903" x1="-103.923" style="fill:none;" /><ns0:line y2="-22.5" y1="-7.5" x2="51.963" x1="25.98" style="fill:none;" /><ns0:line y2="-22.5" y1="-7.5" x2="-155.886" x1="-129.903" style="fill:none;" /><ns0:line y2="-7.5" y1="-22.5" x2="77.943" x1="51.963" style="fill:none;" /><ns0:line y2="-7.5" y1="-22.5" x2="-181.866" x1="-155.886" style="fill:none;" /><ns0:line y2="-22.5" y1="-7.5" x2="103.923" x1="77.943" style="fill:none;" /><ns0:line y2="-19.3214" y1="-7.5" x2="-202.3406" x1="-181.866" style="fill:none;" /><ns0:line y2="16.0234" y1="-8.5104" x2="-183.616" x1="-183.616" style="fill:none;" /><ns0:line y2="16.0234" y1="-8.5104" x2="-180.116" x1="-180.116" style="fill:none;" /><ns0:line y2="-7.5" y1="-22.5" x2="129.903" x1="103.923" style="fill:none;" /><ns0:line y2="-22.5" y1="-7.5" x2="155.886" x1="129.903" style="fill:none;" /><ns0:line y2="-7.5" y1="-22.5" x2="181.866" x1="155.886" style="fill:none;" /><ns0:line y2="-22.5" y1="-7.5" x2="207.846" x1="181.866" style="fill:none;" /><ns0:path style="fill:none; stroke-miterlimit:5;" d="M-51.527 -22.25 L-51.96 -22.5 L-52.393 -22.25" /><ns0:path style="fill:none; stroke-miterlimit:5;" d="M-26.413 -7.75 L-25.98 -7.5 L-25.547 -7.75" /><ns0:path style="fill:none; stroke-miterlimit:5;" d="M-77.51 -7.75 L-77.943 -7.5 L-78.376 -7.75" /><ns0:path style="fill:none; stroke-miterlimit:5;" d="M-0.433 -22.25 L0 -22.5 L0.433 -22.25" /><ns0:path style="fill:none; stroke-miterlimit:5;" d="M-103.49 -22.25 L-103.923 -22.5 L-104.356 -22.25" /><ns0:path style="fill:none; stroke-miterlimit:5;" d="M25.547 -7.75 L25.98 -7.5 L26.413 -7.75" /><ns0:path style="fill:none; stroke-miterlimit:5;" d="M-129.47 -7.75 L-129.903 -7.5 L-130.336 -7.75" /><ns0:path style="fill:none; stroke-miterlimit:5;" d="M51.53 -22.25 L51.963 -22.5 L52.396 -22.25" /><ns0:path style="fill:none; stroke-miterlimit:5;" d="M-155.453 -22.25 L-155.886 -22.5 L-156.319 -22.25" /><ns0:path style="fill:none; stroke-miterlimit:5;" d="M77.51 -7.75 L77.943 -7.5 L78.376 -7.75" /><ns0:path style="fill:none; stroke-miterlimit:5;" d="M-181.433 -7.75 L-181.866 -7.5 L-182.299 -7.75" /><ns0:path style="fill:none; stroke-miterlimit:5;" d="M103.49 -22.25 L103.923 -22.5 L104.356 -22.25" /></ns0:g><ns0:g transform="translate(222,30)" style="stroke-linecap:butt; fill:rgb(230,0,0); text-rendering:geometricPrecision; color-rendering:optimizeQuality; image-rendering:optimizeQuality; font-family:'Open Sans'; stroke:rgb(230,0,0); color-interpolation:linearRGB; stroke-miterlimit:5;"><ns0:path style="stroke:none;" d="M-203.9085 -22.5703 Q-203.9085 -20.5078 -204.9476 -19.3281 Q-205.9866 -18.1484 -207.8304 -18.1484 Q-209.721 -18.1484 -210.7522 -19.3125 Q-211.7835 -20.4766 -211.7835 -22.5859 Q-211.7835 -24.6797 -210.7522 -25.8281 Q-209.721 -26.9766 -207.8304 -26.9766 Q-205.971 -26.9766 -204.9397 -25.8047 Q-203.9085 -24.6328 -203.9085 -22.5703 ZM-210.7366 -22.5703 Q-210.7366 -20.8359 -209.9944 -19.9297 Q-209.2522 -19.0234 -207.8304 -19.0234 Q-206.4085 -19.0234 -205.6819 -19.9219 Q-204.9554 -20.8203 -204.9554 -22.5703 Q-204.9554 -24.3047 -205.6819 -25.1953 Q-206.4085 -26.0859 -207.8304 -26.0859 Q-209.2522 -26.0859 -209.9944 -25.1875 Q-210.7366 -24.2891 -210.7366 -22.5703 Z" /><ns0:path style="stroke:none;" d="M-212.7835 -18.2734 L-213.7835 -18.2734 L-213.7835 -22.3047 L-218.2991 -22.3047 L-218.2991 -18.2734 L-219.2991 -18.2734 L-219.2991 -26.8359 L-218.2991 -26.8359 L-218.2991 -23.1953 L-213.7835 -23.1953 L-213.7835 -26.8359 L-212.7835 -26.8359 L-212.7835 -18.2734 Z" /><ns0:path style="stroke:none;" d="M-177.9285 22.4297 Q-177.9285 24.4922 -178.9676 25.6719 Q-180.0066 26.8516 -181.8504 26.8516 Q-183.741 26.8516 -184.7722 25.6875 Q-185.8035 24.5234 -185.8035 22.4141 Q-185.8035 20.3203 -184.7722 19.1719 Q-183.741 18.0234 -181.8504 18.0234 Q-179.991 18.0234 -178.9597 19.1953 Q-177.9285 20.3672 -177.9285 22.4297 ZM-184.7566 22.4297 Q-184.7566 24.1641 -184.0144 25.0703 Q-183.2722 25.9766 -181.8504 25.9766 Q-180.4285 25.9766 -179.7019 25.0781 Q-178.9754 24.1797 -178.9754 22.4297 Q-178.9754 20.6953 -179.7019 19.8047 Q-180.4285 18.9141 -181.8504 18.9141 Q-183.2722 18.9141 -184.0144 19.8125 Q-184.7566 20.7109 -184.7566 22.4297 Z" /><ns0:path style="fill:none; stroke:black;" d="M129.47 -7.75 L129.903 -7.5 L130.336 -7.75" /><ns0:path style="fill:none; stroke:black;" d="M155.453 -22.25 L155.886 -22.5 L156.319 -22.25" /><ns0:path style="fill:none; stroke:black;" d="M181.433 -7.75 L181.866 -7.5 L182.299 -7.75" /></ns0:g></ns0:g></ns0:svg></ns0:svg></ns0:svg></ns0:svg></g></svg>