<svg width="224" viewBox="0 0 224 115" style="fill-opacity:1; color-rendering:auto; color-interpolation:auto; text-rendering:auto; stroke:black; stroke-linecap:square; stroke-miterlimit:10; shape-rendering:auto; stroke-opacity:1; fill:black; stroke-dasharray:none; font-weight:normal; stroke-width:1; font-family:'Open Sans'; font-style:normal; stroke-linejoin:miter; font-size:12; stroke-dashoffset:0; image-rendering:auto;" height="115" class="cas-substance-image" xmlns:xlink="http://www.w3.org/1999/xlink" xmlns="http://www.w3.org/2000/svg"><svg class="cas-substance-single-component"><rect y="0" x="0" width="224" stroke="none" ry="7" rx="7" height="115" fill="white" class="cas-substance-group"/><svg y="0" x="0" width="224" viewBox="0 0 224 115" style="fill:black;" height="115" class="cas-substance-single-component-image"><svg><g><g transform="translate(112,59)" style="text-rendering:geometricPrecision; color-rendering:optimizeQuality; color-interpolation:linearRGB; stroke-linecap:butt; image-rendering:optimizeQuality;"><line y2="-47.202" y1="-25.98" x2="-25.2308" x1="-12.9793" style="fill:none;"/><line y2="-45.4521" y1="-24.23" x2="-28.2619" x1="-16.0104" style="fill:none;"/><line y2="0" y1="-25.98" x2="-30" x1="-15" style="fill:none;"/><line y2="-25.98" y1="-25.98" x2="15" x1="-15" style="fill:none;"/><line y2="-46.3148" y1="-25.98" x2="-63.2607" x1="-75" style="fill:none;"/><line y2="-27.73" y1="-27.73" x2="-99.0625" x1="-73.9897" style="fill:none;"/><line y2="-24.23" y1="-24.23" x2="-99.0625" x1="-73.9896" style="fill:none;"/><line y2="0" y1="-25.98" x2="-60" x1="-75" style="fill:none;"/><line y2="-25.98" y1="-25.98" x2="75" x1="98.582" style="fill:none;"/><line y2="0" y1="0" x2="-60" x1="-30" style="fill:none;"/><line y2="3.5" y1="3.5" x2="-57.9793" x1="-32.0207" style="fill:none;"/><line y2="25.98" y1="0" x2="-15" x1="-30" style="fill:none;"/><line y2="25.98" y1="0" x2="-75" x1="-60" style="fill:none;"/><line y2="51.963" y1="25.98" x2="-30" x1="-15" style="fill:none;"/><line y2="48.4631" y1="25.9802" x2="-32.0209" x1="-19.0415" style="fill:none;"/><line y2="51.963" y1="25.98" x2="-60" x1="-75" style="fill:none;"/><line y2="48.4631" y1="25.9802" x2="-57.9791" x1="-70.9585" style="fill:none;"/><line y2="51.963" y1="51.963" x2="-60" x1="-30" style="fill:none;"/><line y2="-51.963" y1="-25.98" x2="30" x1="15" style="fill:none;"/><line y2="-48.4631" y1="-25.9802" x2="32.0209" x1="19.0415" style="fill:none;"/><line y2="0" y1="-25.98" x2="30" x1="15" style="fill:none;"/><line y2="-51.963" y1="-51.963" x2="60" x1="30" style="fill:none;"/><line y2="0" y1="0" x2="60" x1="30" style="fill:none;"/><line y2="-3.5" y1="-3.5" x2="57.9793" x1="32.0207" style="fill:none;"/><line y2="-25.98" y1="-51.963" x2="75" x1="60" style="fill:none;"/><line y2="-25.9802" y1="-48.4631" x2="70.9585" x1="57.9791" style="fill:none;"/><line y2="-25.98" y1="0" x2="75" x1="60" style="fill:none;"/><path style="fill:none; stroke-miterlimit:5;" d="M-15.25 -25.547 L-15 -25.98 L-14.5 -25.98"/></g><g transform="translate(112,59)" style="stroke-linecap:butt; fill:rgb(230,0,0); text-rendering:geometricPrecision; color-rendering:optimizeQuality; image-rendering:optimizeQuality; font-family:'Open Sans'; stroke:rgb(230,0,0); color-interpolation:linearRGB; stroke-miterlimit:5;"><path style="stroke:none;" d="M-26.0625 -52.0333 Q-26.0625 -49.9708 -27.1016 -48.7911 Q-28.1406 -47.6114 -29.9844 -47.6114 Q-31.875 -47.6114 -32.9062 -48.7755 Q-33.9375 -49.9396 -33.9375 -52.0489 Q-33.9375 -54.1427 -32.9062 -55.2911 Q-31.875 -56.4396 -29.9844 -56.4396 Q-28.125 -56.4396 -27.0938 -55.2677 Q-26.0625 -54.0958 -26.0625 -52.0333 ZM-32.8906 -52.0333 Q-32.8906 -50.2989 -32.1484 -49.3927 Q-31.4062 -48.4864 -29.9844 -48.4864 Q-28.5625 -48.4864 -27.8359 -49.3849 Q-27.1094 -50.2833 -27.1094 -52.0333 Q-27.1094 -53.7677 -27.8359 -54.6583 Q-28.5625 -55.5489 -29.9844 -55.5489 Q-31.4062 -55.5489 -32.1484 -54.6505 Q-32.8906 -53.7521 -32.8906 -52.0333 Z"/><path style="fill:none; stroke:black;" d="M-74.75 -26.413 L-75 -25.98 L-74.75 -25.547"/><path style="stroke:none;" d="M-56.0625 -52.0333 Q-56.0625 -49.9708 -57.1016 -48.7911 Q-58.1406 -47.6114 -59.9844 -47.6114 Q-61.875 -47.6114 -62.9062 -48.7755 Q-63.9375 -49.9396 -63.9375 -52.0489 Q-63.9375 -54.1427 -62.9062 -55.2911 Q-61.875 -56.4396 -59.9844 -56.4396 Q-58.125 -56.4396 -57.0938 -55.2677 Q-56.0625 -54.0958 -56.0625 -52.0333 ZM-62.8906 -52.0333 Q-62.8906 -50.2989 -62.1484 -49.3927 Q-61.4062 -48.4864 -59.9844 -48.4864 Q-58.5625 -48.4864 -57.8359 -49.3849 Q-57.1094 -50.2833 -57.1094 -52.0333 Q-57.1094 -53.7677 -57.8359 -54.6583 Q-58.5625 -55.5489 -59.9844 -55.5489 Q-61.4062 -55.5489 -62.1484 -54.6505 Q-62.8906 -53.7521 -62.8906 -52.0333 Z"/><path style="stroke:none;" d="M-48.5469 -47.7364 L-49.5469 -47.7364 L-49.5469 -51.7677 L-54.0625 -51.7677 L-54.0625 -47.7364 L-55.0625 -47.7364 L-55.0625 -56.2989 L-54.0625 -56.2989 L-54.0625 -52.6583 L-49.5469 -52.6583 L-49.5469 -56.2989 L-48.5469 -56.2989 L-48.5469 -47.7364 Z"/><path style="stroke:none;" d="M-101.0625 -26.0503 Q-101.0625 -23.9878 -102.1016 -22.8081 Q-103.1406 -21.6284 -104.9844 -21.6284 Q-106.875 -21.6284 -107.9062 -22.7925 Q-108.9375 -23.9566 -108.9375 -26.0659 Q-108.9375 -28.1597 -107.9062 -29.3081 Q-106.875 -30.4566 -104.9844 -30.4566 Q-103.125 -30.4566 -102.0938 -29.2847 Q-101.0625 -28.1128 -101.0625 -26.0503 ZM-107.8906 -26.0503 Q-107.8906 -24.3159 -107.1484 -23.4097 Q-106.4062 -22.5034 -104.9844 -22.5034 Q-103.5625 -22.5034 -102.8359 -23.4019 Q-102.1094 -24.3003 -102.1094 -26.0503 Q-102.1094 -27.7847 -102.8359 -28.6753 Q-103.5625 -29.5659 -104.9844 -29.5659 Q-106.4062 -29.5659 -107.1484 -28.6675 Q-107.8906 -27.7691 -107.8906 -26.0503 Z"/><path style="fill:rgb(0,138,0); stroke:none;" d="M104.6914 -29.3394 Q103.2852 -29.3394 102.4648 -28.4019 Q101.6445 -27.4644 101.6445 -25.8237 Q101.6445 -24.1519 102.4336 -23.23 Q103.2227 -22.3081 104.6758 -22.3081 Q105.582 -22.3081 106.7227 -22.6362 L106.7227 -21.7612 Q105.832 -21.4175 104.5352 -21.4175 Q102.6445 -21.4175 101.6133 -22.5737 Q100.582 -23.73 100.582 -25.8394 Q100.582 -27.1675 101.0742 -28.1597 Q101.5664 -29.1519 102.5039 -29.6909 Q103.4414 -30.23 104.707 -30.23 Q106.0508 -30.23 107.0664 -29.7456 L106.6445 -28.8862 Q105.6602 -29.3394 104.6914 -29.3394 ZM109.418 -21.5425 L108.4492 -21.5425 L108.4492 -30.6675 L109.418 -30.6675 L109.418 -21.5425 Z"/><path style="fill:none; stroke:black;" d="M-30.5 -0 L-30 0 L-29.75 -0.433"/><path style="fill:none; stroke:black;" d="M-59.5 0 L-60 0 L-60.25 -0.433"/><path style="fill:none; stroke:black;" d="M-15.25 25.547 L-15 25.98 L-15.25 26.413"/><path style="fill:none; stroke:black;" d="M-74.75 25.547 L-75 25.98 L-74.75 26.413"/><path style="fill:none; stroke:black;" d="M-29.75 51.53 L-30 51.963 L-30.5 51.963"/><path style="fill:none; stroke:black;" d="M-60.25 51.53 L-60 51.963 L-59.5 51.963"/><path style="fill:none; stroke:black;" d="M15.25 -26.413 L15 -25.98 L14.5 -25.98"/><path style="fill:none; stroke:black;" d="M29.75 -51.53 L30 -51.963 L30.5 -51.963"/><path style="fill:none; stroke:black;" d="M29.75 -0.433 L30 0 L30.5 0"/><path style="fill:none; stroke:black;" d="M59.5 -51.963 L60 -51.963 L60.25 -51.53"/><path style="fill:none; stroke:black;" d="M59.5 -0 L60 0 L60.25 -0.433"/><path style="fill:none; stroke:black;" d="M74.75 -26.413 L75 -25.98 L75.5 -25.98"/></g></g></svg></svg></svg></svg>