<svg xmlns:ns0="http://www.w3.org/2000/svg" xmlns="http://www.w3.org/2000/svg"><g transform="translate(0, 0)"><ns0:svg width="180" viewBox="0 0 180 76" style="fill-opacity:1; color-rendering:auto; color-interpolation:auto; text-rendering:auto; stroke:black; stroke-linecap:square; stroke-miterlimit:10; shape-rendering:auto; stroke-opacity:1; fill:black; stroke-dasharray:none; font-weight:normal; stroke-width:1; font-family:'Open Sans'; font-style:normal; stroke-linejoin:miter; font-size:12; stroke-dashoffset:0; image-rendering:auto;" height="76" class="cas-substance-image"><ns0:svg class="cas-substance-single-component"><ns0:rect y="0" x="0" width="180" stroke="none" ry="7" rx="7" height="76" fill="white" class="cas-substance-group" /><ns0:svg y="0" x="0" width="180" viewBox="0 0 180 76" style="fill:black;" height="76" class="cas-substance-single-component-image"><ns0:svg><ns0:g><ns0:g transform="translate(97,37)" style="text-rendering:geometricPrecision; color-rendering:optimizeQuality; color-interpolation:linearRGB; stroke-linecap:butt; image-rendering:optimizeQuality;"><ns0:line y2="-16.2525" y1="-25.5496" x2="46.2933" x1="30.1887" style="fill:none;" /><ns0:line y2="-19.2836" y1="-28.5808" x2="48.0432" x1="31.9386" style="fill:none;" /><ns0:line y2="-15" y1="-27.0649" x2="0" x1="20.8964" style="fill:none;" /><ns0:line y2="-0.9955" y1="-10.8258" x2="72.7189" x1="55.6928" style="fill:none;" /><ns0:line y2="-4.0265" y1="-13.8569" x2="74.4689" x1="57.4428" style="fill:none;" /><ns0:line y2="15" y1="27.0649" x2="-51.963" x1="-72.8594" style="fill:none;" /><ns0:line y2="-30" y1="-15" x2="-25.98" x1="0" style="fill:none;" /><ns0:line y2="-25.9585" y1="-12.9793" x2="-25.9801" x1="-3.5" style="fill:none;" /><ns0:line y2="15" y1="-15" x2="0" x1="0" style="fill:none;" /><ns0:line y2="-15" y1="-30" x2="-51.963" x1="-25.98" style="fill:none;" /><ns0:line y2="30" y1="15" x2="-25.98" x1="0" style="fill:none;" /><ns0:line y2="25.9585" y1="12.9793" x2="-25.9801" x1="-3.5" style="fill:none;" /><ns0:line y2="15" y1="-15" x2="-51.963" x1="-51.963" style="fill:none;" /><ns0:line y2="12.9793" y1="-12.9793" x2="-48.463" x1="-48.463" style="fill:none;" /><ns0:line y2="15" y1="30" x2="-51.963" x1="-25.98" style="fill:none;" /></ns0:g><ns0:g transform="translate(97,37)" style="fill:rgb(0,5,255); text-rendering:geometricPrecision; color-rendering:optimizeQuality; image-rendering:optimizeQuality; font-family:'Open Sans'; stroke:rgb(0,5,255); color-interpolation:linearRGB;"><ns0:path style="stroke:none;" d="M29.3316 -25.8438 L28.1909 -25.8438 L23.5034 -33.0312 L23.4566 -33.0312 Q23.5503 -31.7656 23.5503 -30.7188 L23.5503 -25.8438 L22.6284 -25.8438 L22.6284 -34.4062 L23.7534 -34.4062 L28.4253 -27.25 L28.4722 -27.25 Q28.4722 -27.4062 28.4253 -28.2656 Q28.3784 -29.125 28.3941 -29.5 L28.3941 -34.4062 L29.3316 -34.4062 L29.3316 -25.8438 Z" /><ns0:path style="fill:black; stroke:none;" d="M52.8302 -18.5781 Q51.4239 -18.5781 50.6036 -17.6406 Q49.7833 -16.7031 49.7833 -15.0625 Q49.7833 -13.3906 50.5724 -12.4688 Q51.3614 -11.5469 52.8146 -11.5469 Q53.7208 -11.5469 54.8614 -11.875 L54.8614 -11 Q53.9708 -10.6562 52.6739 -10.6562 Q50.7833 -10.6562 49.7521 -11.8125 Q48.7208 -12.9688 48.7208 -15.0781 Q48.7208 -16.4062 49.213 -17.3984 Q49.7052 -18.3906 50.6427 -18.9297 Q51.5802 -19.4688 52.8458 -19.4688 Q54.1896 -19.4688 55.2052 -18.9844 L54.7833 -18.125 Q53.7989 -18.5781 52.8302 -18.5781 Z" /><ns0:path style="fill:rgb(148,108,0); stroke:none;" d="M80.6383 1.9375 Q80.6383 3.0625 79.818 3.7031 Q78.9977 4.3438 77.5914 4.3438 Q76.0602 4.3438 75.2477 3.9375 L75.2477 2.9844 Q75.7789 3.2031 76.3961 3.3359 Q77.0133 3.4688 77.6227 3.4688 Q78.6227 3.4688 79.1227 3.0859 Q79.6227 2.7031 79.6227 2.0312 Q79.6227 1.5938 79.443 1.3047 Q79.2633 1.0156 78.8493 0.7734 Q78.4352 0.5312 77.5758 0.2344 Q76.3883 -0.1875 75.8727 -0.7734 Q75.3571 -1.3594 75.3571 -2.3125 Q75.3571 -3.2969 76.0993 -3.8828 Q76.8414 -4.4688 78.0758 -4.4688 Q79.3414 -4.4688 80.4196 -4 L80.1071 -3.1406 Q79.0446 -3.5781 78.0446 -3.5781 Q77.2477 -3.5781 76.8024 -3.2422 Q76.3571 -2.9062 76.3571 -2.2969 Q76.3571 -1.8594 76.5211 -1.5703 Q76.6852 -1.2812 77.0758 -1.0469 Q77.4664 -0.8125 78.2789 -0.5156 Q79.6227 -0.0469 80.1305 0.5078 Q80.6383 1.0625 80.6383 1.9375 Z" /><ns0:path style="stroke:none;" d="M-74.5914 34.1562 L-75.7321 34.1562 L-80.4196 26.9688 L-80.4664 26.9688 Q-80.3727 28.2344 -80.3727 29.2812 L-80.3727 34.1562 L-81.2946 34.1562 L-81.2946 25.5938 L-80.1696 25.5938 L-75.4977 32.75 L-75.4508 32.75 Q-75.4508 32.5938 -75.4977 31.7344 Q-75.5446 30.875 -75.5289 30.5 L-75.5289 25.5938 L-74.5914 25.5938 L-74.5914 34.1562 Z" /><ns0:path style="stroke:none;" d="M-87.0446 34.1562 L-88.0446 34.1562 L-88.0446 30.125 L-92.5602 30.125 L-92.5602 34.1562 L-93.5602 34.1562 L-93.5602 25.5938 L-92.5602 25.5938 L-92.5602 29.2344 L-88.0446 29.2344 L-88.0446 25.5938 L-87.0446 25.5938 L-87.0446 34.1562 Z" /><ns0:path style="stroke:none;" d="M-82.2946 35.9656 L-86.0446 35.9656 L-86.0446 35.4031 L-84.5446 33.8875 Q-83.8571 33.2 -83.6383 32.9031 Q-83.4196 32.6063 -83.3102 32.325 Q-83.2008 32.0438 -83.2008 31.7156 Q-83.2008 31.2625 -83.4743 30.9969 Q-83.7477 30.7313 -84.2477 30.7313 Q-84.5914 30.7313 -84.9118 30.8484 Q-85.2321 30.9656 -85.6227 31.2625 L-85.9664 30.825 Q-85.1852 30.1688 -84.2477 30.1688 Q-83.4508 30.1688 -82.9899 30.5828 Q-82.5289 30.9969 -82.5289 31.6844 Q-82.5289 32.2313 -82.8336 32.7625 Q-83.1383 33.2938 -83.9821 34.1063 L-85.2321 35.325 L-85.2321 35.3563 L-82.2946 35.3563 L-82.2946 35.9656 Z" /></ns0:g><ns0:g transform="translate(97,37)" style="stroke-linecap:butt; font-size:8.4px; text-rendering:geometricPrecision; color-rendering:optimizeQuality; image-rendering:optimizeQuality; font-family:'Open Sans'; color-interpolation:linearRGB; stroke-miterlimit:5;"><ns0:path style="fill:none;" d="M-0.433 -15.25 L0 -15 L0.433 -15.25" /><ns0:path style="fill:none;" d="M-25.547 -29.75 L-25.98 -30 L-26.413 -29.75" /><ns0:path style="fill:none;" d="M0 14.5 L0 15 L-0.433 15.25" /><ns0:path style="fill:none;" d="M-51.53 -15.25 L-51.963 -15 L-51.963 -14.5" /><ns0:path style="fill:none;" d="M-25.547 29.75 L-25.98 30 L-26.413 29.75" /><ns0:path style="fill:none;" d="M-51.963 14.5 L-51.963 15 L-52.396 15.25" /></ns0:g></ns0:g></ns0:svg></ns0:svg></ns0:svg></ns0:svg></g></svg>