<svg xmlns:ns0="http://www.w3.org/2000/svg" xmlns="http://www.w3.org/2000/svg"><g transform="translate(0, 0)"><ns0:svg width="317" viewBox="0 0 317 317" style="fill-opacity:1; color-rendering:auto; color-interpolation:auto; text-rendering:auto; stroke:black; stroke-linecap:square; stroke-miterlimit:10; shape-rendering:auto; stroke-opacity:1; fill:black; stroke-dasharray:none; font-weight:normal; stroke-width:1; font-family:'Open Sans'; font-style:normal; stroke-linejoin:miter; font-size:12; stroke-dashoffset:0; image-rendering:auto;" height="317" class="cas-substance-image"><ns0:svg class="cas-substance-single-component"><ns0:rect y="0" x="0" width="317" stroke="none" ry="7" rx="7" height="317" fill="white" class="cas-substance-group" /><ns0:svg y="0" x="0" width="317" viewBox="0 0 317 317" style="fill:black;" height="317" class="cas-substance-single-component-image"><ns0:svg><ns0:g><ns0:g transform="translate(159,159)" style="text-rendering:geometricPrecision; color-rendering:optimizeQuality; color-interpolation:linearRGB; stroke-linecap:butt; image-rendering:optimizeQuality;"><ns0:line y2="-20.7132" y1="-5.8205" x2="-20.7132" x1="-5.8205" style="fill:none;" /><ns0:line y2="20.7132" y1="8.1204" x2="20.7132" x1="8.1204" style="fill:none;" /><ns0:line y2="20.7132" y1="6.3501" x2="-20.7132" x1="-6.3501" style="fill:none;" /><ns0:line y2="-20.7132" y1="-4.9522" x2="20.7132" x1="4.9522" style="fill:none;" /><ns0:line y2="-54.456" y1="-31.8852" x2="-25.413" x1="-25.4644" style="fill:none;" /><ns0:line y2="-25.413" y1="-25.4668" x2="-54.456" x1="-30.8306" style="fill:none;" /><ns0:line y2="25.413" y1="25.4668" x2="54.456" x1="30.8306" style="fill:none;" /><ns0:line y2="54.456" y1="31.6352" x2="25.413" x1="25.465" style="fill:none;" /><ns0:line y2="54.456" y1="31.6352" x2="-25.413" x1="-25.465" style="fill:none;" /><ns0:line y2="25.413" y1="25.4668" x2="-54.456" x1="-30.8306" style="fill:none;" /><ns0:line y2="28.9176" y1="28.9696" x2="-52.4432" x1="-29.6106" style="fill:none;" /><ns0:line y2="-25.413" y1="-25.4668" x2="54.456" x1="30.8306" style="fill:none;" /><ns0:line y2="-54.456" y1="-31.8852" x2="25.413" x1="25.4644" style="fill:none;" /><ns0:line y2="-52.4432" y1="-29.6106" x2="28.9176" x1="28.9696" style="fill:none;" /><ns0:line y2="-64.974" y1="-54.456" x2="0" x1="-25.413" style="fill:none;" /><ns0:line y2="-60.9673" y1="-51.9948" x2="-0.5286" x1="-22.2074" style="fill:none;" /><ns0:line y2="-71.838" y1="-54.456" x2="-49.527" x1="-25.413" style="fill:none;" /><ns0:line y2="0" y1="-25.413" x2="-64.974" x1="-54.456" style="fill:none;" /><ns0:line y2="-0.5286" y1="-22.2074" x2="-60.9673" x1="-51.9948" style="fill:none;" /><ns0:line y2="-49.527" y1="-25.413" x2="-71.838" x1="-54.456" style="fill:none;" /><ns0:line y2="0" y1="25.413" x2="64.974" x1="54.456" style="fill:none;" /><ns0:line y2="49.527" y1="25.413" x2="71.838" x1="54.456" style="fill:none;" /><ns0:line y2="49.9344" y1="29.0989" x2="67.8171" x1="52.7984" style="fill:none;" /><ns0:line y2="64.974" y1="54.456" x2="0" x1="25.413" style="fill:none;" /><ns0:line y2="71.838" y1="54.456" x2="49.527" x1="25.413" style="fill:none;" /><ns0:line y2="67.8171" y1="52.7984" x2="49.9344" x1="29.0989" style="fill:none;" /><ns0:line y2="64.974" y1="54.456" x2="0" x1="-25.413" style="fill:none;" /><ns0:line y2="60.9673" y1="51.9948" x2="-0.5286" x1="-22.2074" style="fill:none;" /><ns0:line y2="71.838" y1="54.456" x2="-49.527" x1="-25.413" style="fill:none;" /><ns0:line y2="0" y1="25.413" x2="-64.974" x1="-54.456" style="fill:none;" /><ns0:line y2="49.527" y1="25.413" x2="-71.838" x1="-54.456" style="fill:none;" /><ns0:line y2="0" y1="-25.413" x2="64.974" x1="54.456" style="fill:none;" /><ns0:line y2="-0.5286" y1="-22.2074" x2="60.9673" x1="51.9948" style="fill:none;" /><ns0:line y2="-49.527" y1="-25.413" x2="71.838" x1="54.456" style="fill:none;" /><ns0:line y2="-64.974" y1="-54.456" x2="0" x1="25.413" style="fill:none;" /><ns0:line y2="-71.838" y1="-54.456" x2="49.527" x1="25.413" style="fill:none;" /><ns0:line y2="-94.974" y1="-64.974" x2="0" x1="0" style="fill:none;" /><ns0:line y2="-49.527" y1="-71.838" x2="-71.838" x1="-49.527" style="fill:none;" /><ns0:line y2="-48.481" y1="-67.9342" x2="-67.9342" x1="-48.481" style="fill:none;" /><ns0:line y2="0" y1="0" x2="-94.974" x1="-64.974" style="fill:none;" /><ns0:line y2="0" y1="0" x2="94.974" x1="64.974" style="fill:none;" /><ns0:line y2="71.838" y1="49.527" x2="49.527" x1="71.838" style="fill:none;" /><ns0:line y2="94.974" y1="64.974" x2="0" x1="0" style="fill:none;" /><ns0:line y2="49.527" y1="71.838" x2="-71.838" x1="-49.527" style="fill:none;" /><ns0:line y2="48.481" y1="67.9342" x2="-67.9342" x1="-48.481" style="fill:none;" /><ns0:line y2="-71.838" y1="-49.527" x2="49.527" x1="71.838" style="fill:none;" /><ns0:line y2="-67.9342" y1="-48.481" x2="48.481" x1="67.9342" style="fill:none;" /><ns0:line y2="-109.974" y1="-94.974" x2="25.98" x1="0" style="fill:none;" /><ns0:line y2="-111.9947" y1="-99.0154" x2="22.48" x1="-0.0001" style="fill:none;" /><ns0:line y2="-109.974" y1="-94.974" x2="-25.98" x1="0" style="fill:none;" /><ns0:line y2="-139.974" y1="-109.974" x2="25.98" x1="25.98" style="fill:none;" /><ns0:line y2="-139.974" y1="-109.974" x2="-25.98" x1="-25.98" style="fill:none;" /><ns0:line y2="-137.9533" y1="-111.9947" x2="-22.48" x1="-22.48" style="fill:none;" /><ns0:line y2="-154.974" y1="-139.974" x2="0" x1="25.98" style="fill:none;" /><ns0:line y2="-150.9325" y1="-137.9533" x2="-0.0001" x1="22.48" style="fill:none;" /><ns0:line y2="-154.974" y1="-139.974" x2="0" x1="-25.98" style="fill:none;" /><ns0:line y2="-25.98" y1="0" x2="-109.974" x1="-94.974" style="fill:none;" /><ns0:line y2="-22.48" y1="0.0001" x2="-111.9947" x1="-99.0154" style="fill:none;" /><ns0:line y2="25.98" y1="0" x2="-109.974" x1="-94.974" style="fill:none;" /><ns0:line y2="-25.98" y1="-25.98" x2="-139.974" x1="-109.974" style="fill:none;" /><ns0:line y2="25.98" y1="25.98" x2="-139.974" x1="-109.974" style="fill:none;" /><ns0:line y2="22.48" y1="22.48" x2="-137.9533" x1="-111.9947" style="fill:none;" /><ns0:line y2="0" y1="-25.98" x2="-154.974" x1="-139.974" style="fill:none;" /><ns0:line y2="0.0001" y1="-22.48" x2="-150.9325" x1="-137.9533" style="fill:none;" /><ns0:line y2="0" y1="25.98" x2="-154.974" x1="-139.974" style="fill:none;" /><ns0:line y2="-25.98" y1="0" x2="109.974" x1="94.974" style="fill:none;" /><ns0:line y2="-22.48" y1="0.0001" x2="111.9947" x1="99.0154" style="fill:none;" /><ns0:line y2="25.98" y1="0" x2="109.974" x1="94.974" style="fill:none;" /><ns0:line y2="-25.98" y1="-25.98" x2="139.974" x1="109.974" style="fill:none;" /><ns0:line y2="25.98" y1="25.98" x2="139.974" x1="109.974" style="fill:none;" /><ns0:line y2="22.48" y1="22.48" x2="137.9533" x1="111.9947" style="fill:none;" /><ns0:line y2="0" y1="-25.98" x2="154.974" x1="139.974" style="fill:none;" /><ns0:line y2="0.0001" y1="-22.48" x2="150.9325" x1="137.9533" style="fill:none;" /><ns0:line y2="0" y1="25.98" x2="154.974" x1="139.974" style="fill:none;" /><ns0:line y2="109.974" y1="94.974" x2="-25.98" x1="0" style="fill:none;" /><ns0:line y2="111.9947" y1="99.0154" x2="-22.48" x1="0.0001" style="fill:none;" /><ns0:line y2="109.974" y1="94.974" x2="25.98" x1="0" style="fill:none;" /><ns0:line y2="139.974" y1="109.974" x2="-25.98" x1="-25.98" style="fill:none;" /><ns0:line y2="139.974" y1="109.974" x2="25.98" x1="25.98" style="fill:none;" /><ns0:line y2="137.9533" y1="111.9947" x2="22.48" x1="22.48" style="fill:none;" /><ns0:line y2="154.974" y1="139.974" x2="0" x1="-25.98" style="fill:none;" /><ns0:line y2="150.9325" y1="137.9533" x2="0.0001" x1="-22.48" style="fill:none;" /><ns0:line y2="154.974" y1="139.974" x2="0" x1="25.98" style="fill:none;" /><ns0:path style="stroke-linecap:square; stroke:none;" d="M-4.1748 4.1562 L-7.0811 -3.4375 L-7.1279 -3.4375 Q-7.0498 -2.5312 -7.0498 -1.2969 L-7.0498 4.1562 L-7.9717 4.1562 L-7.9717 -4.4062 L-6.4717 -4.4062 L-3.7529 2.6562 L-3.7061 2.6562 L-0.9717 -4.4062 L0.5127 -4.4062 L0.5127 4.1562 L-0.4717 4.1562 L-0.4717 -1.3594 Q-0.4717 -2.3125 -0.3936 -3.4219 L-0.4404 -3.4219 L-3.3779 4.1562 L-4.1748 4.1562 ZM7.9717 -2.2656 L7.9717 -1.6562 L6.7842 -1.5156 Q6.9561 -1.3125 7.0811 -0.9766 Q7.2061 -0.6406 7.2061 -0.2344 Q7.2061 0.7188 6.5654 1.2812 Q5.9248 1.8438 4.7998 1.8438 Q4.5029 1.8438 4.2529 1.7969 Q3.6436 2.125 3.6436 2.625 Q3.6436 2.8906 3.8545 3.0156 Q4.0654 3.1406 4.5967 3.1406 L5.7373 3.1406 Q6.7842 3.1406 7.3389 3.5781 Q7.8936 4.0156 7.8936 4.8594 Q7.8936 5.9219 7.042 6.4844 Q6.1904 7.0469 4.5498 7.0469 Q3.2842 7.0469 2.6045 6.5781 Q1.9248 6.1094 1.9248 5.25 Q1.9248 4.6562 2.2998 4.2266 Q2.6748 3.7969 3.3467 3.6562 Q3.0967 3.5469 2.9326 3.3125 Q2.7686 3.0781 2.7686 2.7656 Q2.7686 2.4062 2.9561 2.1406 Q3.1436 1.875 3.5498 1.6406 Q3.0498 1.4375 2.7373 0.9453 Q2.4248 0.4531 2.4248 -0.1875 Q2.4248 -1.2344 3.0576 -1.8125 Q3.6904 -2.3906 4.8467 -2.3906 Q5.3467 -2.3906 5.7529 -2.2656 L7.9717 -2.2656 ZM2.8623 5.2344 Q2.8623 5.75 3.2998 6.0234 Q3.7373 6.2969 4.5498 6.2969 Q5.7842 6.2969 6.3701 5.9297 Q6.9561 5.5625 6.9561 4.9375 Q6.9561 4.4219 6.6357 4.2188 Q6.3154 4.0156 5.4248 4.0156 L4.2529 4.0156 Q3.5967 4.0156 3.2295 4.3281 Q2.8623 4.6406 2.8623 5.2344 ZM3.3779 -0.2031 Q3.3779 0.4688 3.7607 0.8125 Q4.1436 1.1562 4.8311 1.1562 Q6.2529 1.1562 6.2529 -0.2344 Q6.2529 -1.6719 4.8154 -1.6719 Q4.1279 -1.6719 3.7529 -1.3047 Q3.3779 -0.9375 3.3779 -0.2031 Z" /><ns0:path style="stroke-linecap:square; stroke:none;" d="M12.7217 -0.5375 L8.9717 -0.5375 L8.9717 -1.1 L10.4717 -2.6156 Q11.1592 -3.3031 11.3779 -3.6 Q11.5967 -3.8969 11.7061 -4.1781 Q11.8154 -4.4594 11.8154 -4.7875 Q11.8154 -5.2406 11.542 -5.5063 Q11.2686 -5.7719 10.7686 -5.7719 Q10.4248 -5.7719 10.1045 -5.6547 Q9.7842 -5.5375 9.3936 -5.2406 L9.0498 -5.6781 Q9.8311 -6.3344 10.7686 -6.3344 Q11.5654 -6.3344 12.0264 -5.9203 Q12.4873 -5.5063 12.4873 -4.8188 Q12.4873 -4.2719 12.1826 -3.7406 Q11.8779 -3.2094 11.0342 -2.3969 L9.7842 -1.1781 L9.7842 -1.1469 L12.7217 -1.1469 L12.7217 -0.5375 Z" /><ns0:path style="stroke-linecap:square; stroke:none;" d="M15.8623 -3.7016 L17.4717 -3.7016 L17.4717 -3.1547 L15.8623 -3.1547 L15.8623 -1.4984 L15.3311 -1.4984 L15.3311 -3.1547 L13.7217 -3.1547 L13.7217 -3.7016 L15.3311 -3.7016 L15.3311 -5.3734 L15.8623 -5.3734 L15.8623 -3.7016 Z" /></ns0:g><ns0:g transform="translate(159,159)" style="fill:rgb(0,5,255); text-rendering:geometricPrecision; color-rendering:optimizeQuality; image-rendering:optimizeQuality; font-family:'Open Sans'; stroke:rgb(0,5,255); color-interpolation:linearRGB;"><ns0:path style="stroke:none;" d="M-22.1274 -21.3228 L-23.2681 -21.3228 L-27.9556 -28.5103 L-28.0024 -28.5103 Q-27.9087 -27.2446 -27.9087 -26.1978 L-27.9087 -21.3228 L-28.8306 -21.3228 L-28.8306 -29.8853 L-27.7056 -29.8853 L-23.0337 -22.729 L-22.9868 -22.729 Q-22.9868 -22.8853 -23.0337 -23.7446 Q-23.0806 -24.604 -23.0649 -24.979 L-23.0649 -29.8853 L-22.1274 -29.8853 L-22.1274 -21.3228 Z" /><ns0:path style="fill:black; stroke:none;" d="M-21.1274 -27.7509 L-21.1274 -28.3446 L-17.7681 -28.3446 L-17.7681 -27.7509 L-21.1274 -27.7509 Z" /><ns0:path style="stroke:none;" d="M28.8306 29.6353 L27.6899 29.6353 L23.0024 22.4478 L22.9556 22.4478 Q23.0493 23.7134 23.0493 24.7603 L23.0493 29.6353 L22.1274 29.6353 L22.1274 21.0728 L23.2524 21.0728 L27.9243 28.229 L27.9712 28.229 Q27.9712 28.0728 27.9243 27.2134 Q27.8774 26.354 27.8931 25.979 L27.8931 21.0728 L28.8306 21.0728 L28.8306 29.6353 Z" /><ns0:path style="fill:black; stroke:none;" d="M29.8306 23.2071 L29.8306 22.6134 L33.1899 22.6134 L33.1899 23.2071 L29.8306 23.2071 Z" /><ns0:path style="stroke:none;" d="M-22.1274 29.6353 L-23.2681 29.6353 L-27.9556 22.4478 L-28.0024 22.4478 Q-27.9087 23.7134 -27.9087 24.7603 L-27.9087 29.6353 L-28.8306 29.6353 L-28.8306 21.0728 L-27.7056 21.0728 L-23.0337 28.229 L-22.9868 28.229 Q-22.9868 28.0728 -23.0337 27.2134 Q-23.0806 26.354 -23.0649 25.979 L-23.0649 21.0728 L-22.1274 21.0728 L-22.1274 29.6353 Z" /><ns0:path style="stroke:none;" d="M28.8306 -21.3228 L27.6899 -21.3228 L23.0024 -28.5103 L22.9556 -28.5103 Q23.0493 -27.2446 23.0493 -26.1978 L23.0493 -21.3228 L22.1274 -21.3228 L22.1274 -29.8853 L23.2524 -29.8853 L27.9243 -22.729 L27.9712 -22.729 Q27.9712 -22.8853 27.9243 -23.7446 Q27.8774 -24.604 27.8931 -24.979 L27.8931 -29.8853 L28.8306 -29.8853 L28.8306 -21.3228 Z" /></ns0:g><ns0:g transform="translate(159,159)" style="stroke-linecap:butt; text-rendering:geometricPrecision; color-rendering:optimizeQuality; image-rendering:optimizeQuality; font-family:'Open Sans'; color-interpolation:linearRGB; stroke-miterlimit:5;"><ns0:path style="fill:none;" d="M-24.951 -54.6472 L-25.413 -54.456 L-25.4141 -53.956" /><ns0:path style="fill:none;" d="M-54.6472 -24.951 L-54.456 -25.413 L-53.956 -25.4141" /><ns0:path style="fill:none;" d="M54.7484 25.8186 L54.456 25.413 L53.956 25.4141" /><ns0:path style="fill:none;" d="M25.8186 54.7484 L25.413 54.456 L24.951 54.6472" /><ns0:path style="fill:none;" d="M-24.951 54.6472 L-25.413 54.456 L-25.8186 54.7484" /><ns0:path style="fill:none;" d="M-53.956 25.4141 L-54.456 25.413 L-54.6472 24.951" /><ns0:path style="fill:none;" d="M54.6472 -24.951 L54.456 -25.413 L53.956 -25.4141" /><ns0:path style="fill:none;" d="M25.4141 -53.956 L25.413 -54.456 L24.951 -54.6472" /><ns0:path style="fill:none;" d="M-0.462 -64.7828 L0 -64.974 L0.462 -64.7828" /><ns0:path style="fill:none;" d="M-49.1214 -71.5456 L-49.527 -71.838 L-49.8806 -71.4844" /><ns0:path style="fill:none;" d="M-64.7828 -0.462 L-64.974 0 L-65.474 -0" /><ns0:path style="fill:none;" d="M-71.5456 -49.1214 L-71.838 -49.527 L-71.4844 -49.8806" /><ns0:path style="fill:none;" d="M64.7828 -0.462 L64.974 0 L64.7828 0.462" /><ns0:path style="fill:none;" d="M71.5456 49.1214 L71.838 49.527 L71.4844 49.8806" /><ns0:path style="fill:none;" d="M-0.462 64.7828 L0 64.974 L0.462 64.7828" /><ns0:path style="fill:none;" d="M49.1214 71.5456 L49.527 71.838 L49.8806 71.4844" /><ns0:path style="fill:none;" d="M-49.1214 71.5456 L-49.527 71.838 L-49.8806 71.4844" /><ns0:path style="fill:none;" d="M-71.5456 49.1214 L-71.838 49.527 L-71.4844 49.8806" /><ns0:path style="fill:none;" d="M71.5456 -49.1214 L71.838 -49.527 L71.4844 -49.8806" /><ns0:path style="fill:none;" d="M49.1214 -71.5456 L49.527 -71.838 L49.8806 -71.4844" /><ns0:path style="fill:none;" d="M0.433 -95.224 L0 -94.974 L-0 -94.474" /><ns0:path style="fill:none;" d="M25.547 -109.724 L25.98 -109.974 L25.98 -110.474" /><ns0:path style="fill:none;" d="M-25.547 -109.724 L-25.98 -109.974 L-25.98 -110.474" /><ns0:path style="fill:none;" d="M25.98 -139.474 L25.98 -139.974 L25.547 -140.224" /><ns0:path style="fill:none;" d="M-25.98 -139.474 L-25.98 -139.974 L-25.547 -140.224" /><ns0:path style="fill:none;" d="M0.433 -154.724 L0 -154.974 L-0.433 -154.724" /><ns0:path style="fill:none;" d="M-95.224 -0.433 L-94.974 0 L-94.474 0" /><ns0:path style="fill:none;" d="M-109.724 -25.547 L-109.974 -25.98 L-110.474 -25.98" /><ns0:path style="fill:none;" d="M-109.724 25.547 L-109.974 25.98 L-110.474 25.98" /><ns0:path style="fill:none;" d="M-139.474 -25.98 L-139.974 -25.98 L-140.224 -25.547" /><ns0:path style="fill:none;" d="M-139.474 25.98 L-139.974 25.98 L-140.224 25.547" /><ns0:path style="fill:none;" d="M-154.724 -0.433 L-154.974 0 L-154.724 0.433" /><ns0:path style="fill:none;" d="M95.224 -0.433 L94.974 0 L94.474 -0" /><ns0:path style="fill:none;" d="M109.724 -25.547 L109.974 -25.98 L110.474 -25.98" /><ns0:path style="fill:none;" d="M109.724 25.547 L109.974 25.98 L110.474 25.98" /><ns0:path style="fill:none;" d="M139.474 -25.98 L139.974 -25.98 L140.224 -25.547" /><ns0:path style="fill:none;" d="M139.474 25.98 L139.974 25.98 L140.224 25.547" /><ns0:path style="fill:none;" d="M154.724 -0.433 L154.974 0 L154.724 0.433" /><ns0:path style="fill:none;" d="M-0.433 95.224 L0 94.974 L0 94.474" /><ns0:path style="fill:none;" d="M-25.547 109.724 L-25.98 109.974 L-25.98 110.474" /><ns0:path style="fill:none;" d="M25.547 109.724 L25.98 109.974 L25.98 110.474" /><ns0:path style="fill:none;" d="M-25.98 139.474 L-25.98 139.974 L-25.547 140.224" /><ns0:path style="fill:none;" d="M25.98 139.474 L25.98 139.974 L25.547 140.224" /><ns0:path style="fill:none;" d="M-0.433 154.724 L0 154.974 L0.433 154.724" /></ns0:g></ns0:g></ns0:svg></ns0:svg></ns0:svg></ns0:svg></g></svg>