<svg xmlns:ns0="http://www.w3.org/2000/svg" xmlns="http://www.w3.org/2000/svg"><g transform="translate(0, 0)"><ns0:svg width="279" viewBox="0 0 279 167" style="fill-opacity:1; color-rendering:auto; color-interpolation:auto; text-rendering:auto; stroke:black; stroke-linecap:square; stroke-miterlimit:10; shape-rendering:auto; stroke-opacity:1; fill:black; stroke-dasharray:none; font-weight:normal; stroke-width:1; font-family:'Open Sans'; font-style:normal; stroke-linejoin:miter; font-size:12; stroke-dashoffset:0; image-rendering:auto;" height="167" class="cas-substance-image"><ns0:svg class="cas-substance-single-component"><ns0:rect y="0" x="0" width="279" stroke="none" ry="7" rx="7" height="167" fill="white" class="cas-substance-group" /><ns0:svg y="0" x="0" width="279" viewBox="0 0 279 167" style="fill:black;" height="167" class="cas-substance-single-component-image"><ns0:svg><ns0:g><ns0:g transform="translate(139,85)" style="text-rendering:geometricPrecision; color-rendering:optimizeQuality; color-interpolation:linearRGB; stroke-linecap:butt; image-rendering:optimizeQuality;"><ns0:line y2="-51.963" y1="-73.1701" x2="42.0673" x1="54.3115" style="fill:none;" /><ns0:line y2="-50.2129" y1="-71.42" x2="45.0983" x1="57.3426" style="fill:none;" /><ns0:line y2="-0" y1="21.1333" x2="16.1087" x1="3.907" style="fill:none;" /><ns0:line y2="-1.75" y1="19.3833" x2="13.0776" x1="0.876" style="fill:none;" /><ns0:path style="stroke:none;" d="M14.521 -52.213 L13.655 -51.713 L-3.5101 -76.443 L1.6861 -79.443 Z" /><ns0:path style="stroke:none;" d="M-31.345 -26.23 L-30.479 -25.73 L-42.4479 0.5 L-49.3761 0.5 Z" /><ns0:line y2="-51.963" y1="-25.98" x2="-45.912" x1="-30.912" style="fill:none;" /><ns0:line y2="-25.98" y1="-25.98" x2="-6.2636" x1="-30.912" style="fill:none;" /><ns0:line y2="0" y1="0" x2="-75.912" x1="-45.912" style="fill:none;" /><ns0:line y2="-51.963" y1="-51.963" x2="-69.9745" x1="-45.912" style="fill:none;" /><ns0:line y2="-71.42" y1="-50.2129" x2="-32.6574" x1="-44.9017" style="fill:none;" /><ns0:line y2="-73.1701" y1="-51.963" x2="-35.6885" x1="-47.9327" style="fill:none;" /><ns0:line y2="25.98" y1="0" x2="-90.912" x1="-75.912" style="fill:none;" /><ns0:line y2="-77.943" y1="-57.6906" x2="-90.912" x1="-79.2189" style="fill:none;" /><ns0:line y2="-77.943" y1="-77.943" x2="-120.912" x1="-90.912" style="fill:none;" /><ns0:line y2="0" y1="-20.0917" x2="44.088" x1="55.6883" style="fill:none;" /><ns0:line y2="-19.743" y1="-24.8518" x2="88.431" x1="64.3959" style="fill:none;" /><ns0:line y2="-51.963" y1="-32.1183" x2="44.088" x1="55.5443" style="fill:none;" /><ns0:line y2="0" y1="0" x2="14.088" x1="44.088" style="fill:none;" /><ns0:line y2="22.293" y1="0" x2="64.161" x1="44.088" style="fill:none;" /><ns0:line y2="10.092" y1="-19.743" x2="91.569" x1="88.431" style="fill:none;" /><ns0:line y2="-31.944" y1="-19.743" x2="115.839" x1="88.431" style="fill:none;" /><ns0:line y2="-51.963" y1="-51.963" x2="14.088" x1="44.088" style="fill:none;" /><ns0:line y2="-20.0917" y1="0" x2="2.4877" x1="14.088" style="fill:none;" /><ns0:line y2="10.092" y1="22.293" x2="91.569" x1="64.161" style="fill:none;" /><ns0:line y2="16.329" y1="10.092" x2="120.912" x1="91.569" style="fill:none;" /><ns0:line y2="-9.651" y1="-31.944" x2="135.912" x1="115.839" style="fill:none;" /><ns0:line y2="-32.1183" y1="-51.963" x2="2.6317" x1="14.088" style="fill:none;" /><ns0:line y2="-9.651" y1="16.329" x2="135.912" x1="120.912" style="fill:none;" /><ns0:line y2="25.98" y1="25.98" x2="-120.912" x1="-90.912" style="fill:none;" /><ns0:line y2="29.48" y1="29.48" x2="-118.8913" x1="-92.9327" style="fill:none;" /><ns0:line y2="51.963" y1="25.98" x2="-75.912" x1="-90.912" style="fill:none;" /><ns0:line y2="51.963" y1="25.98" x2="-135.912" x1="-120.912" style="fill:none;" /><ns0:line y2="77.943" y1="51.963" x2="-90.912" x1="-75.912" style="fill:none;" /><ns0:line y2="74.443" y1="51.963" x2="-92.9327" x1="-79.9535" style="fill:none;" /><ns0:line y2="77.943" y1="51.963" x2="-120.912" x1="-135.912" style="fill:none;" /><ns0:line y2="74.443" y1="51.963" x2="-118.8913" x1="-131.8705" style="fill:none;" /><ns0:line y2="77.943" y1="77.943" x2="-120.912" x1="-90.912" style="fill:none;" /><ns0:path style="stroke:none;" d="M43.3343 0.3077 L42.829 1.1774 L44.0555 1.7233 L44.3637 0.7659 L43.3343 0.3077 ZM41.8184 2.9168 L41.3131 3.7866 L43.131 4.5957 L43.131 4.5957 L43.4392 3.6382 L41.8184 2.9168 ZM40.3025 5.526 L39.7972 6.3957 L42.2064 7.4681 L42.5146 6.5106 L40.3025 5.526 ZM38.7866 8.1351 L38.2814 9.0049 L41.2819 10.3404 L41.2819 10.3404 L41.5901 9.383 L38.7866 8.1351 ZM37.2708 10.7443 L36.7655 11.614 L40.3573 13.2128 L40.3573 13.2128 L40.6655 12.2553 L37.2708 10.7443 ZM35.7549 13.3535 L35.2496 14.2232 L39.4328 16.0851 L39.741 15.1277 L35.7549 13.3535 ZM34.239 15.9626 L33.7337 16.8323 L33.7337 16.8323 L38.5082 18.9575 L38.8164 18.0001 L38.8164 18.0001 L34.239 15.9626 ZM32.7231 18.5718 L32.2178 19.4415 L32.2178 19.4415 L37.5837 21.8299 L37.8919 20.8724 L32.7231 18.5718 Z" /><ns0:path style="stroke:none;" d="M88.9254 -42.8317 L83.1495 -42.2181 L83.1495 -42.2181 L83.3584 -41.2348 L88.9255 -41.8262 L88.9255 -41.8262 L88.9254 -42.8317 ZM88.9258 -39.8152 L83.776 -39.2681 L83.776 -39.2681 L83.9849 -38.2848 L83.9849 -38.2848 L88.9259 -38.8097 L88.9259 -38.8097 L88.9258 -39.8152 ZM88.9262 -36.7988 L84.4025 -36.3182 L84.4025 -36.3182 L84.6114 -35.3348 L88.9263 -35.7933 L88.9263 -35.7933 L88.9262 -36.7988 ZM88.9265 -33.7823 L85.029 -33.3682 L85.029 -33.3682 L85.2378 -32.3849 L85.2378 -32.3849 L88.9267 -32.7768 L88.9267 -32.7768 L88.9265 -33.7823 ZM88.9269 -30.7658 L85.6555 -30.4182 L85.6555 -30.4182 L85.8643 -29.4349 L88.927 -29.7603 L88.927 -29.7603 L88.9269 -30.7658 ZM88.9273 -27.7493 L86.282 -27.4683 L86.4908 -26.485 L86.4908 -26.485 L88.9274 -26.7438 L88.9274 -26.7438 L88.9273 -27.7493 ZM88.9277 -24.7329 L86.9085 -24.5183 L87.1173 -23.535 L87.1173 -23.535 L88.9278 -23.7274 L88.9277 -24.7329 ZM88.928 -21.7164 L87.535 -21.5684 L87.535 -21.5684 L87.7438 -20.5851 L88.9281 -20.7109 L88.9281 -20.7109 L88.928 -21.7164 Z" /><ns0:path style="stroke:none;" d="M92.2308 10.8104 L91.071 10.9336 L91.07 11.9392 L92.4408 11.7936 L92.4408 11.7936 L92.2308 10.8104 ZM92.8606 13.76 L91.068 13.9504 L91.067 14.956 L91.067 14.956 L93.0706 14.7432 L93.0706 14.7432 L92.8606 13.76 ZM93.4905 16.7096 L91.065 16.9673 L91.065 16.9673 L91.064 17.9729 L91.064 17.9729 L93.7004 17.6928 L93.7004 17.6928 L93.4905 16.7096 ZM94.1203 19.6592 L91.0621 19.9841 L91.0621 19.9841 L91.0611 20.9897 L94.3302 20.6424 L94.3302 20.6424 L94.1203 19.6592 ZM94.7501 22.6088 L91.0591 23.0009 L91.0591 23.0009 L91.0581 24.0065 L91.0581 24.0065 L94.9601 23.592 L94.9601 23.592 L94.7501 22.6088 ZM95.38 25.5584 L91.0561 26.0178 L91.0561 26.0178 L91.0551 27.0234 L91.0551 27.0234 L95.5899 26.5416 L95.5899 26.5416 L95.38 25.5584 ZM96.0098 28.508 L91.0532 29.0346 L91.0532 29.0346 L91.0522 30.0402 L91.0522 30.0402 L96.2197 29.4912 L96.0098 28.508 ZM96.6396 31.4576 L91.0502 32.0514 L91.0502 32.0514 L91.0492 33.057 L91.0492 33.057 L96.8496 32.4408 L96.8496 32.4408 L96.6396 31.4576 Z" /></ns0:g><ns0:g transform="translate(139,85)" style="fill:rgb(230,0,0); text-rendering:geometricPrecision; color-rendering:optimizeQuality; image-rendering:optimizeQuality; font-family:'Open Sans'; stroke:rgb(230,0,0); color-interpolation:linearRGB;"><ns0:path style="stroke:none;" d="M63.0255 -78.0133 Q63.0255 -75.9508 61.9864 -74.7711 Q60.9474 -73.5914 59.1036 -73.5914 Q57.213 -73.5914 56.1817 -74.7555 Q55.1505 -75.9196 55.1505 -78.0289 Q55.1505 -80.1227 56.1817 -81.2711 Q57.213 -82.4196 59.1036 -82.4196 Q60.963 -82.4196 61.9942 -81.2477 Q63.0255 -80.0758 63.0255 -78.0133 ZM56.1974 -78.0133 Q56.1974 -76.2789 56.9396 -75.3727 Q57.6817 -74.4664 59.1036 -74.4664 Q60.5255 -74.4664 61.2521 -75.3649 Q61.9786 -76.2633 61.9786 -78.0133 Q61.9786 -79.7477 61.2521 -80.6383 Q60.5255 -81.5289 59.1036 -81.5289 Q57.6817 -81.5289 56.9396 -80.6305 Q56.1974 -79.7321 56.1974 -78.0133 Z" /><ns0:path style="stroke:none;" d="M3.0255 25.9097 Q3.0255 27.9722 1.9864 29.1519 Q0.9474 30.3316 -0.8964 30.3316 Q-2.787 30.3316 -3.8183 29.1675 Q-4.8495 28.0034 -4.8495 25.8941 Q-4.8495 23.8003 -3.8183 22.6519 Q-2.787 21.5034 -0.8964 21.5034 Q0.963 21.5034 1.9942 22.6753 Q3.0255 23.8472 3.0255 25.9097 ZM-3.8026 25.9097 Q-3.8026 27.6441 -3.0604 28.5503 Q-2.3183 29.4566 -0.8964 29.4566 Q0.5255 29.4566 1.2521 28.5581 Q1.9786 27.6597 1.9786 25.9097 Q1.9786 24.1753 1.2521 23.2847 Q0.5255 22.3941 -0.8964 22.3941 Q-2.3183 22.3941 -3.0604 23.2925 Q-3.8026 24.1909 -3.8026 25.9097 Z" /></ns0:g><ns0:g transform="translate(139,85)" style="font-size:8.4px; fill:gray; text-rendering:geometricPrecision; image-rendering:optimizeQuality; color-rendering:optimizeQuality; font-family:'Open Sans'; font-style:italic; stroke:gray; color-interpolation:linearRGB;"><ns0:path style="stroke:none;" d="M-30.0206 -33.4372 Q-30.0206 -34.7653 -29.5519 -35.8903 Q-29.0831 -37.0153 -28.0519 -38.0934 L-27.4425 -38.0934 Q-28.4113 -37.0309 -28.8956 -35.8591 Q-29.38 -34.6872 -29.38 -33.4528 Q-29.38 -32.1247 -28.9425 -31.1091 L-29.4581 -31.1091 Q-30.0206 -32.1403 -30.0206 -33.4372 ZM-24.3981 -34.0309 Q-24.3981 -33.2028 -24.9449 -32.7497 Q-25.4918 -32.2966 -26.4918 -32.2966 Q-26.8981 -32.2966 -27.2106 -32.3513 Q-27.5231 -32.4059 -27.8043 -32.5466 L-27.8043 -33.2028 Q-27.1793 -32.8747 -26.4762 -32.8747 Q-25.8512 -32.8747 -25.4762 -33.1716 Q-25.1012 -33.4684 -25.1012 -33.9841 Q-25.1012 -34.2966 -25.3043 -34.5231 Q-25.5074 -34.7497 -26.0699 -35.0778 Q-26.6637 -35.4059 -26.8903 -35.7341 Q-27.1168 -36.0622 -27.1168 -36.5153 Q-27.1168 -37.2497 -26.6012 -37.7106 Q-26.0856 -38.1716 -25.2418 -38.1716 Q-24.8668 -38.1716 -24.5309 -38.0934 Q-24.1949 -38.0153 -23.8199 -37.8434 L-24.0856 -37.2497 Q-24.3356 -37.4059 -24.6559 -37.4919 Q-24.9762 -37.5778 -25.2418 -37.5778 Q-25.7731 -37.5778 -26.0934 -37.3044 Q-26.4137 -37.0309 -26.4137 -36.5622 Q-26.4137 -36.3591 -26.3434 -36.2106 Q-26.2731 -36.0622 -26.1324 -35.9294 Q-25.9918 -35.7966 -25.5699 -35.5466 Q-25.0074 -35.2028 -24.8043 -35.0075 Q-24.6012 -34.8122 -24.4996 -34.5778 Q-24.3981 -34.3434 -24.3981 -34.0309 ZM-21.8036 -35.7497 Q-21.8036 -34.4216 -22.2801 -33.2888 Q-22.7567 -32.1559 -23.7723 -31.1091 L-24.3817 -31.1091 Q-22.4442 -33.2653 -22.4442 -35.7497 Q-22.4442 -37.0778 -22.8817 -38.0934 L-22.3661 -38.0934 Q-21.8036 -37.0309 -21.8036 -35.7497 Z" /></ns0:g><ns0:g transform="translate(139,85)" style="stroke-linecap:butt; font-size:8.4px; text-rendering:geometricPrecision; image-rendering:optimizeQuality; color-rendering:optimizeQuality; font-family:'Open Sans'; font-style:italic; color-interpolation:linearRGB; stroke-miterlimit:5;"><ns0:path style="fill:none;" d="M-45.662 -51.53 L-45.912 -51.963 L-46.412 -51.963" /><ns0:path style="fill:none;" d="M-75.412 0 L-75.912 0 L-76.162 0.433" /></ns0:g><ns0:g transform="translate(139,85)" style="stroke-linecap:butt; fill:rgb(230,0,0); text-rendering:geometricPrecision; color-rendering:optimizeQuality; image-rendering:optimizeQuality; font-family:'Open Sans'; stroke:rgb(230,0,0); color-interpolation:linearRGB; stroke-miterlimit:5;"><ns0:path style="stroke:none;" d="M-71.9745 -52.0333 Q-71.9745 -49.9708 -73.0136 -48.7911 Q-74.0526 -47.6114 -75.8964 -47.6114 Q-77.787 -47.6114 -78.8183 -48.7755 Q-79.8495 -49.9396 -79.8495 -52.0489 Q-79.8495 -54.1427 -78.8183 -55.2911 Q-77.787 -56.4396 -75.8964 -56.4396 Q-74.037 -56.4396 -73.0058 -55.2677 Q-71.9745 -54.0958 -71.9745 -52.0333 ZM-78.8026 -52.0333 Q-78.8026 -50.2989 -78.0604 -49.3927 Q-77.3183 -48.4864 -75.8964 -48.4864 Q-74.4745 -48.4864 -73.7479 -49.3849 Q-73.0214 -50.2833 -73.0214 -52.0333 Q-73.0214 -53.7677 -73.7479 -54.6583 Q-74.4745 -55.5489 -75.8964 -55.5489 Q-77.3183 -55.5489 -78.0604 -54.6505 Q-78.8026 -53.7521 -78.8026 -52.0333 Z" /><ns0:path style="stroke:none;" d="M-26.9745 -78.0133 Q-26.9745 -75.9508 -28.0136 -74.7711 Q-29.0526 -73.5914 -30.8964 -73.5914 Q-32.787 -73.5914 -33.8183 -74.7555 Q-34.8495 -75.9196 -34.8495 -78.0289 Q-34.8495 -80.1227 -33.8183 -81.2711 Q-32.787 -82.4196 -30.8964 -82.4196 Q-29.037 -82.4196 -28.0058 -81.2477 Q-26.9745 -80.0758 -26.9745 -78.0133 ZM-33.8026 -78.0133 Q-33.8026 -76.2789 -33.0604 -75.3727 Q-32.3183 -74.4664 -30.8964 -74.4664 Q-29.4745 -74.4664 -28.7479 -75.3649 Q-28.0214 -76.2633 -28.0214 -78.0133 Q-28.0214 -79.7477 -28.7479 -80.6383 Q-29.4745 -81.5289 -30.8964 -81.5289 Q-32.3183 -81.5289 -33.0604 -80.6305 Q-33.8026 -79.7321 -33.8026 -78.0133 Z" /><ns0:path style="fill:none; stroke:black;" d="M-90.662 -77.51 L-90.912 -77.943 L-91.412 -77.943" /><ns0:path style="fill:rgb(0,5,255); stroke:none;" d="M62.4396 -21.8237 L61.2989 -21.8237 L56.6114 -29.0112 L56.5646 -29.0112 Q56.6583 -27.7456 56.6583 -26.6987 L56.6583 -21.8237 L55.7364 -21.8237 L55.7364 -30.3862 L56.8614 -30.3862 L61.5333 -23.23 L61.5802 -23.23 Q61.5802 -23.3862 61.5333 -24.2456 Q61.4864 -25.105 61.5021 -25.48 L61.5021 -30.3862 L62.4396 -30.3862 L62.4396 -21.8237 Z" /></ns0:g><ns0:g transform="translate(139,85)" style="stroke-linecap:butt; font-size:8.4px; fill:gray; text-rendering:geometricPrecision; image-rendering:optimizeQuality; color-rendering:optimizeQuality; font-family:'Open Sans'; font-style:italic; stroke:gray; color-interpolation:linearRGB; stroke-miterlimit:5;"><ns0:path style="stroke:none;" d="M34.9795 -7.4572 Q34.9795 -8.7853 35.4483 -9.9103 Q35.917 -11.0353 36.9483 -12.1134 L37.5577 -12.1134 Q36.5889 -11.0509 36.1045 -9.879 Q35.6202 -8.7072 35.6202 -7.4728 Q35.6202 -6.1447 36.0577 -5.129 L35.542 -5.129 Q34.9795 -6.1603 34.9795 -7.4572 ZM40.6021 -8.0509 Q40.6021 -7.2228 40.0552 -6.7697 Q39.5083 -6.3165 38.5083 -6.3165 Q38.1021 -6.3165 37.7896 -6.3712 Q37.4771 -6.4259 37.1958 -6.5665 L37.1958 -7.2228 Q37.8208 -6.8947 38.524 -6.8947 Q39.149 -6.8947 39.524 -7.1915 Q39.899 -7.4884 39.899 -8.004 Q39.899 -8.3165 39.6958 -8.5431 Q39.4927 -8.7697 38.9302 -9.0978 Q38.3365 -9.4259 38.1099 -9.754 Q37.8833 -10.0822 37.8833 -10.5353 Q37.8833 -11.2697 38.399 -11.7306 Q38.9146 -12.1915 39.7583 -12.1915 Q40.1333 -12.1915 40.4693 -12.1134 Q40.8052 -12.0353 41.1802 -11.8634 L40.9146 -11.2697 Q40.6646 -11.4259 40.3443 -11.5118 Q40.024 -11.5978 39.7583 -11.5978 Q39.2271 -11.5978 38.9068 -11.3243 Q38.5865 -11.0509 38.5865 -10.5822 Q38.5865 -10.379 38.6568 -10.2306 Q38.7271 -10.0822 38.8677 -9.9493 Q39.0083 -9.8165 39.4302 -9.5665 Q39.9927 -9.2228 40.1958 -9.0275 Q40.399 -8.8322 40.5005 -8.5978 Q40.6021 -8.3634 40.6021 -8.0509 ZM43.1966 -9.7697 Q43.1966 -8.4415 42.72 -7.3087 Q42.2434 -6.1759 41.2278 -5.129 L40.6184 -5.129 Q42.5559 -7.2853 42.5559 -9.7697 Q42.5559 -11.0978 42.1184 -12.1134 L42.6341 -12.1134 Q43.1966 -11.0509 43.1966 -9.7697 Z" /><ns0:path style="stroke:none;" d="M92.9828 -13.54 Q92.9828 -14.8681 93.4515 -15.9931 Q93.9203 -17.1181 94.9515 -18.1962 L95.5609 -18.1962 Q94.5922 -17.1337 94.1078 -15.9618 Q93.6234 -14.79 93.6234 -13.5556 Q93.6234 -12.2275 94.0609 -11.2118 L93.5453 -11.2118 Q92.9828 -12.2431 92.9828 -13.54 ZM98.6053 -14.1337 Q98.6053 -13.3056 98.0585 -12.8525 Q97.5116 -12.3993 96.5116 -12.3993 Q96.1053 -12.3993 95.7928 -12.454 Q95.4803 -12.5087 95.1991 -12.6493 L95.1991 -13.3056 Q95.8241 -12.9775 96.5272 -12.9775 Q97.1522 -12.9775 97.5272 -13.2743 Q97.9022 -13.5712 97.9022 -14.0868 Q97.9022 -14.3993 97.6991 -14.6259 Q97.496 -14.8525 96.9335 -15.1806 Q96.3397 -15.5087 96.1132 -15.8368 Q95.8866 -16.165 95.8866 -16.6181 Q95.8866 -17.3525 96.4022 -17.8134 Q96.9178 -18.2743 97.7616 -18.2743 Q98.1366 -18.2743 98.4725 -18.1962 Q98.8085 -18.1181 99.1835 -17.9462 L98.9178 -17.3525 Q98.6678 -17.5087 98.3475 -17.5946 Q98.0272 -17.6806 97.7616 -17.6806 Q97.2303 -17.6806 96.91 -17.4071 Q96.5897 -17.1337 96.5897 -16.665 Q96.5897 -16.4618 96.66 -16.3134 Q96.7303 -16.165 96.871 -16.0321 Q97.0116 -15.8993 97.4335 -15.6493 Q97.996 -15.3056 98.1991 -15.1103 Q98.4022 -14.915 98.5038 -14.6806 Q98.6053 -14.4462 98.6053 -14.1337 ZM101.1998 -15.8525 Q101.1998 -14.5243 100.7233 -13.3915 Q100.2467 -12.2587 99.2311 -11.2118 L98.6217 -11.2118 Q100.5592 -13.3681 100.5592 -15.8525 Q100.5592 -17.1806 100.1217 -18.1962 L100.6373 -18.1962 Q101.1998 -17.1337 101.1998 -15.8525 Z" /><ns0:path style="fill:none; stroke:black;" d="M44.338 -51.53 L44.088 -51.963 L43.588 -51.963" /><ns0:path style="fill:none; stroke:black;" d="M14.588 0 L14.088 0 L13.838 -0.433" /><ns0:path style="fill:none; stroke:black;" d="M63.8264 21.9214 L64.161 22.293 L64.6178 22.0897" /><ns0:path style="stroke:none;" d="M78.8002 6.2952 Q78.8002 4.9671 79.2689 3.8421 Q79.7377 2.7171 80.7689 1.639 L81.3783 1.639 Q80.4096 2.7015 79.9252 3.8733 Q79.4408 5.0452 79.4408 6.2796 Q79.4408 7.6077 79.8783 8.6233 L79.3627 8.6233 Q78.8002 7.5921 78.8002 6.2952 ZM84.4227 5.7015 Q84.4227 6.5296 83.8759 6.9827 Q83.329 7.4358 82.329 7.4358 Q81.9227 7.4358 81.6102 7.3811 Q81.2977 7.3265 81.0165 7.1858 L81.0165 6.5296 Q81.6415 6.8577 82.3446 6.8577 Q82.9696 6.8577 83.3446 6.5608 Q83.7196 6.264 83.7196 5.7483 Q83.7196 5.4358 83.5165 5.2093 Q83.3134 4.9827 82.7509 4.6546 Q82.1571 4.3265 81.9305 3.9983 Q81.704 3.6702 81.704 3.2171 Q81.704 2.4827 82.2196 2.0218 Q82.7352 1.5608 83.579 1.5608 Q83.954 1.5608 84.2899 1.639 Q84.6259 1.7171 85.0009 1.889 L84.7352 2.4827 Q84.4852 2.3265 84.1649 2.2405 Q83.8446 2.1546 83.579 2.1546 Q83.0477 2.1546 82.7274 2.428 Q82.4071 2.7015 82.4071 3.1702 Q82.4071 3.3733 82.4774 3.5218 Q82.5477 3.6702 82.6884 3.803 Q82.829 3.9358 83.2509 4.1858 Q83.8134 4.5296 84.0165 4.7249 Q84.2196 4.9202 84.3212 5.1546 Q84.4227 5.389 84.4227 5.7015 ZM87.0172 3.9827 Q87.0172 5.3108 86.5407 6.4436 Q86.0641 7.5765 85.0485 8.6233 L84.4391 8.6233 Q86.3766 6.4671 86.3766 3.9827 Q86.3766 2.6546 85.9391 1.639 L86.4547 1.639 Q87.0172 2.7015 87.0172 3.9827 Z" /><ns0:path style="fill:none; stroke:black;" d="M115.3822 -31.7407 L115.839 -31.944 L116.1736 -31.5724" /><ns0:path style="stroke:none;" d="M14.9794 -59.4202 Q14.9794 -60.7483 15.4481 -61.8733 Q15.9169 -62.9983 16.9481 -64.0764 L17.5575 -64.0764 Q16.5887 -63.0139 16.1044 -61.8421 Q15.62 -60.6702 15.62 -59.4358 Q15.62 -58.1077 16.0575 -57.0921 L15.5419 -57.0921 Q14.9794 -58.1233 14.9794 -59.4202 ZM20.6019 -60.0139 Q20.6019 -59.1858 20.0551 -58.7327 Q19.5082 -58.2796 18.5082 -58.2796 Q18.1019 -58.2796 17.7894 -58.3343 Q17.4769 -58.3889 17.1957 -58.5296 L17.1957 -59.1858 Q17.8207 -58.8577 18.5238 -58.8577 Q19.1488 -58.8577 19.5238 -59.1546 Q19.8988 -59.4514 19.8988 -59.9671 Q19.8988 -60.2796 19.6957 -60.5061 Q19.4926 -60.7327 18.9301 -61.0608 Q18.3363 -61.3889 18.1097 -61.7171 Q17.8832 -62.0452 17.8832 -62.4983 Q17.8832 -63.2327 18.3988 -63.6936 Q18.9144 -64.1546 19.7582 -64.1546 Q20.1332 -64.1546 20.4691 -64.0764 Q20.8051 -63.9983 21.1801 -63.8264 L20.9144 -63.2327 Q20.6644 -63.3889 20.3441 -63.4749 Q20.0238 -63.5608 19.7582 -63.5608 Q19.2269 -63.5608 18.9066 -63.2874 Q18.5863 -63.0139 18.5863 -62.5452 Q18.5863 -62.3421 18.6566 -62.1936 Q18.7269 -62.0452 18.8676 -61.9124 Q19.0082 -61.7796 19.4301 -61.5296 Q19.9926 -61.1858 20.1957 -60.9905 Q20.3988 -60.7952 20.5004 -60.5608 Q20.6019 -60.3264 20.6019 -60.0139 ZM23.1964 -61.7327 Q23.1964 -60.4046 22.7199 -59.2718 Q22.2433 -58.1389 21.2277 -57.0921 L20.6183 -57.0921 Q22.5558 -59.2483 22.5558 -61.7327 Q22.5558 -63.0608 22.1183 -64.0764 L22.6339 -64.0764 Q23.1964 -63.0139 23.1964 -61.7327 Z" /></ns0:g><ns0:g transform="translate(139,85)" style="stroke-linecap:butt; fill:rgb(0,5,255); text-rendering:geometricPrecision; color-rendering:optimizeQuality; image-rendering:optimizeQuality; font-family:'Open Sans'; stroke:rgb(0,5,255); color-interpolation:linearRGB; stroke-miterlimit:5;"><ns0:path style="stroke:none;" d="M2.4396 -21.8237 L1.2989 -21.8237 L-3.3886 -29.0112 L-3.4354 -29.0112 Q-3.3417 -27.7456 -3.3417 -26.6987 L-3.3417 -21.8237 L-4.2636 -21.8237 L-4.2636 -30.3862 L-3.1386 -30.3862 L1.5333 -23.23 L1.5802 -23.23 Q1.5802 -23.3862 1.5333 -24.2456 Q1.4864 -25.105 1.5021 -25.48 L1.5021 -30.3862 L2.4396 -30.3862 L2.4396 -21.8237 Z" /><ns0:path style="fill:none; stroke:black;" d="M120.4229 16.225 L120.912 16.329 L121.162 15.896" /><ns0:path style="fill:none; stroke:black;" d="M135.5774 -10.0226 L135.912 -9.651 L135.662 -9.218" /><ns0:path style="fill:none; stroke:black;" d="M-91.412 25.98 L-90.912 25.98 L-90.662 25.547" /><ns0:path style="fill:none; stroke:black;" d="M-120.412 25.98 L-120.912 25.98 L-121.162 26.413" /><ns0:path style="fill:none; stroke:black;" d="M-76.162 51.53 L-75.912 51.963 L-76.162 52.396" /><ns0:path style="fill:none; stroke:black;" d="M-135.662 51.53 L-135.912 51.963 L-135.662 52.396" /><ns0:path style="fill:none; stroke:black;" d="M-90.662 77.51 L-90.912 77.943 L-91.412 77.943" /><ns0:path style="fill:none; stroke:black;" d="M-121.162 77.51 L-120.912 77.943 L-120.412 77.943" /><ns0:path style="fill:black; stroke:none;" d="M35.1448 31.5613 L34.1448 31.5613 L34.1448 27.53 L29.6292 27.53 L29.6292 31.5613 L28.6292 31.5613 L28.6292 22.9988 L29.6292 22.9988 L29.6292 26.6394 L34.1448 26.6394 L34.1448 22.9988 L35.1448 22.9988 L35.1448 31.5613 Z" /><ns0:path style="fill:black; stroke:none;" d="M88.5538 -45.4218 L87.5538 -45.4218 L87.5538 -49.453 L83.0382 -49.453 L83.0382 -45.4218 L82.0382 -45.4218 L82.0382 -53.9843 L83.0382 -53.9843 L83.0382 -50.3436 L87.5538 -50.3436 L87.5538 -53.9843 L88.5538 -53.9843 L88.5538 -45.4218 Z" /><ns0:path style="fill:black; stroke:none;" d="M97.9618 44.0832 L96.9618 44.0832 L96.9618 40.052 L92.4462 40.052 L92.4462 44.0832 L91.4462 44.0832 L91.4462 35.5207 L92.4462 35.5207 L92.4462 39.1614 L96.9618 39.1614 L96.9618 35.5207 L97.9618 35.5207 L97.9618 44.0832 Z" /></ns0:g></ns0:g></ns0:svg></ns0:svg></ns0:svg></ns0:svg></g></svg>