<svg xmlns:ns0="http://www.w3.org/2000/svg" xmlns="http://www.w3.org/2000/svg"><g transform="translate(0, 0)"><ns0:svg width="100" viewBox="0 0 100 116" style="fill-opacity:1; color-rendering:auto; color-interpolation:auto; text-rendering:auto; stroke:black; stroke-linecap:square; stroke-miterlimit:10; shape-rendering:auto; stroke-opacity:1; fill:black; stroke-dasharray:none; font-weight:normal; stroke-width:1; font-family:'Open Sans'; font-style:normal; stroke-linejoin:miter; font-size:12; stroke-dashoffset:0; image-rendering:auto;" height="116" class="cas-substance-image"><ns0:svg class="cas-substance-single-component"><ns0:rect y="0" x="0" width="100" stroke="none" ry="7" rx="7" height="116" fill="white" class="cas-substance-group" /><ns0:svg y="0" x="9" width="82" viewBox="0 0 82 116" style="fill:black;" height="116" class="cas-substance-single-component-image"><ns0:svg><ns0:g><ns0:clipPath id="clipPath_e01de955ef2848c2a86c6d2c336e63411" clipPathUnits="userSpaceOnUse"><ns0:path d="M-438.0781 -368.0551 L-438.0781 -362.0551 L-465.5799 -362.0551 L-465.5799 -368.0551 ZM-461.168 -411.3856 L-471.4522 -333.2197 L-431.794 -328.002 L-421.5098 -406.1678 L-461.168 -411.3856 Z" /></ns0:clipPath><ns0:clipPath id="clipPath_e01de955ef2848c2a86c6d2c336e63412" clipPathUnits="userSpaceOnUse"><ns0:path d="M-422.9623 -379.5219 L-419.9412 -374.338 L-443.5575 -360.5749 L-446.5786 -365.7588 L-422.9623 -379.5219 ZM-441.5328 -406.493 L-470.9686 -338.8731 L-434.2928 -322.9077 L-404.8571 -390.5276 L-441.5328 -406.493 Z" /></ns0:clipPath><ns0:g transform="translate(493,422)" style="text-rendering:geometricPrecision; color-rendering:optimizeQuality; color-interpolation:linearRGB; stroke-linecap:butt; image-rendering:optimizeQuality;"><ns0:line y2="-329.7685" y1="-327.2976" x2="-443.2101" x1="-438.9167" style="fill:none;" /><ns0:line y2="-327.7961" y1="-320.1457" x2="-451.1339" x1="-451.1339" style="fill:none;" /><ns0:line y2="-398.7321" y1="-340.7712" x2="-442.6605" x1="-450.2863" style="fill:none; clip-path:url(#clipPath_e01de955ef2848c2a86c6d2c336e63411);" /><ns0:line y2="-358.8225" y1="-340.5733" x2="-459.6603" x1="-453.3077" style="fill:none;" /><ns0:line y2="-369.3406" y1="-340.2658" x2="-475.0688" x1="-455.1926" style="fill:none;" /><ns0:line y2="-389.4303" y1="-340.6904" x2="-427.1476" x1="-448.3647" style="fill:none; clip-path:url(#clipPath_e01de955ef2848c2a86c6d2c336e63412);" /><ns0:line y2="-396.3482" y1="-400.8655" x2="-430.3571" x1="-438.1083" style="fill:none;" /><ns0:line y2="-399.3721" y1="-403.8894" x2="-428.5948" x1="-436.346" style="fill:none;" /><ns0:line y2="-405.0587" y1="-405.0587" x2="-461.8299" x1="-447.0703" style="fill:none;" /><ns0:line y2="-373.8724" y1="-369.3552" x2="-473.4842" x1="-465.733" style="fill:none;" /><ns0:line y2="-370.8485" y1="-366.3312" x2="-475.2465" x1="-467.4953" style="fill:none;" /><ns0:line y2="-365.0551" y1="-365.0551" x2="-441.8281" x1="-456.9753" style="fill:none;" /><ns0:line y2="-395.072" y1="-381.5105" x2="-478.9662" x1="-478.9662" style="fill:none;" /><ns0:line y2="-375.0418" y1="-388.7282" x2="-424.6917" x1="-424.6917" style="fill:none;" /><ns0:line y2="-395.072" y1="-405.0587" x2="-478.9662" x1="-461.8299" style="fill:none;" /><ns0:line y2="-375.0418" y1="-365.0551" x2="-424.6917" x1="-441.8281" style="fill:none;" /></ns0:g><ns0:g transform="translate(493,422)" style="fill:rgb(0,138,0); text-rendering:geometricPrecision; color-rendering:optimizeQuality; image-rendering:optimizeQuality; font-family:'Open Sans'; stroke:rgb(0,138,0); color-interpolation:linearRGB;"><ns0:path style="stroke:none;" d="M-433.5969 -327.4177 Q-435.0031 -327.4177 -435.8234 -326.4802 Q-436.6437 -325.5427 -436.6437 -323.9021 Q-436.6437 -322.2302 -435.8547 -321.3083 Q-435.0656 -320.3864 -433.6125 -320.3864 Q-432.7062 -320.3864 -431.5656 -320.7146 L-431.5656 -319.8396 Q-432.4562 -319.4958 -433.7531 -319.4958 Q-435.6437 -319.4958 -436.675 -320.6521 Q-437.7062 -321.8083 -437.7062 -323.9177 Q-437.7062 -325.2458 -437.2141 -326.238 Q-436.7219 -327.2302 -435.7844 -327.7693 Q-434.8469 -328.3083 -433.5812 -328.3083 Q-432.2375 -328.3083 -431.2219 -327.8239 L-431.6437 -326.9646 Q-432.6281 -327.4177 -433.5969 -327.4177 ZM-428.8703 -319.6208 L-429.8391 -319.6208 L-429.8391 -328.7458 L-428.8703 -328.7458 L-428.8703 -319.6208 Z" /><ns0:path style="fill:black; stroke:none;" d="M-427.8703 -326.5364 L-427.8703 -327.1302 L-424.5109 -327.1302 L-424.5109 -326.5364 L-427.8703 -326.5364 Z" /><ns0:path style="stroke:none;" d="M-451.4425 -317.1189 Q-452.8488 -317.1189 -453.6691 -316.1814 Q-454.4894 -315.2439 -454.4894 -313.6033 Q-454.4894 -311.9314 -453.7003 -311.0095 Q-452.9113 -310.0876 -451.4582 -310.0876 Q-450.5519 -310.0876 -449.4113 -310.4158 L-449.4113 -309.5408 Q-450.3019 -309.197 -451.5988 -309.197 Q-453.4894 -309.197 -454.5207 -310.3533 Q-455.5519 -311.5095 -455.5519 -313.6189 Q-455.5519 -314.947 -455.0597 -315.9392 Q-454.5675 -316.9314 -453.63 -317.4705 Q-452.6925 -318.0095 -451.4269 -318.0095 Q-450.0832 -318.0095 -449.0675 -317.5251 L-449.4894 -316.6658 Q-450.4738 -317.1189 -451.4425 -317.1189 ZM-446.716 -309.322 L-447.6847 -309.322 L-447.6847 -318.447 L-446.716 -318.447 L-446.716 -309.322 Z" /><ns0:path style="fill:black; stroke:none;" d="M-445.716 -316.2376 L-445.716 -316.8314 L-442.3566 -316.8314 L-442.3566 -316.2376 L-445.716 -316.2376 Z" /><ns0:path style="fill:black; stroke:none;" d="M-451.8869 -335.9694 Q-451.8869 -334.6569 -452.7775 -333.9616 Q-453.6681 -333.2663 -455.3087 -333.2663 L-456.3244 -333.2663 L-456.3244 -329.8913 L-457.3244 -329.8913 L-457.3244 -338.4538 L-455.09 -338.4538 Q-451.8869 -338.4538 -451.8869 -335.9694 ZM-456.3244 -334.11 L-455.4181 -334.11 Q-454.1056 -334.11 -453.5119 -334.5397 Q-452.9181 -334.9694 -452.9181 -335.9225 Q-452.9181 -336.7663 -453.4728 -337.1804 Q-454.0275 -337.5944 -455.215 -337.5944 L-456.3244 -337.5944 L-456.3244 -334.11 ZM-445.8654 -330.7507 L-445.9279 -330.7507 Q-446.5998 -329.7663 -447.9435 -329.7663 Q-449.1935 -329.7663 -449.8966 -330.6335 Q-450.5998 -331.5007 -450.5998 -333.0788 Q-450.5998 -334.6725 -449.8966 -335.5554 Q-449.1935 -336.4382 -447.9435 -336.4382 Q-446.631 -336.4382 -445.9279 -335.485 L-445.8498 -335.485 L-445.8966 -335.9382 L-445.9279 -336.3913 L-445.9279 -339.0163 L-444.9435 -339.0163 L-444.9435 -329.8913 L-445.7404 -329.8913 L-445.8654 -330.7507 ZM-447.8185 -330.5944 Q-446.8185 -330.5944 -446.3732 -331.1335 Q-445.9279 -331.6725 -445.9279 -332.8757 L-445.9279 -333.0788 Q-445.9279 -334.4538 -446.381 -335.0319 Q-446.8341 -335.61 -447.8185 -335.61 Q-448.6779 -335.61 -449.131 -334.946 Q-449.5841 -334.2819 -449.5841 -333.0788 Q-449.5841 -331.8444 -449.1388 -331.2194 Q-448.6935 -330.5944 -447.8185 -330.5944 Z" /><ns0:path style="fill:black; stroke:none;" d="M-440.1935 -334.2054 L-443.9435 -334.2054 L-443.9435 -334.7679 L-442.4435 -336.2835 Q-441.756 -336.971 -441.5373 -337.2679 Q-441.3185 -337.5647 -441.2091 -337.846 Q-441.0998 -338.1272 -441.0998 -338.4554 Q-441.0998 -338.9085 -441.3732 -339.1741 Q-441.6466 -339.4397 -442.1466 -339.4397 Q-442.4904 -339.4397 -442.8107 -339.3225 Q-443.131 -339.2054 -443.5216 -338.9085 L-443.8654 -339.346 Q-443.0841 -340.0022 -442.1466 -340.0022 Q-441.3498 -340.0022 -440.8888 -339.5882 Q-440.4279 -339.1741 -440.4279 -338.4866 Q-440.4279 -337.9397 -440.7326 -337.4085 Q-441.0373 -336.8772 -441.881 -336.0647 L-443.131 -334.846 L-443.131 -334.8147 L-440.1935 -334.8147 L-440.1935 -334.2054 Z" /><ns0:path style="fill:black; stroke:none;" d="M-437.0529 -337.3694 L-435.4435 -337.3694 L-435.4435 -336.8225 L-437.0529 -336.8225 L-437.0529 -335.1663 L-437.5841 -335.1663 L-437.5841 -336.8225 L-439.1935 -336.8225 L-439.1935 -337.3694 L-437.5841 -337.3694 L-437.5841 -339.0413 L-437.0529 -339.0413 L-437.0529 -337.3694 Z" /><ns0:path style="fill:black; stroke:none;" d="M-440.9609 -408.6369 Q-442.3671 -408.6369 -443.1874 -407.6994 Q-444.0078 -406.7619 -444.0078 -405.1212 Q-444.0078 -403.4494 -443.2187 -402.5275 Q-442.4296 -401.6056 -440.9765 -401.6056 Q-440.0703 -401.6056 -438.9296 -401.9337 L-438.9296 -401.0587 Q-439.8203 -400.715 -441.1171 -400.715 Q-443.0078 -400.715 -444.039 -401.8712 Q-445.0703 -403.0275 -445.0703 -405.1369 Q-445.0703 -406.465 -444.5781 -407.4572 Q-444.0859 -408.4494 -443.1484 -408.9884 Q-442.2109 -409.5275 -440.9453 -409.5275 Q-439.6015 -409.5275 -438.5859 -409.0431 L-439.0078 -408.1837 Q-439.9921 -408.6369 -440.9609 -408.6369 Z" /><ns0:path style="fill:black; stroke:none;" d="M-438.5703 -410.5275 L-439.5703 -410.5275 L-439.5703 -414.5587 L-444.0859 -414.5587 L-444.0859 -410.5275 L-445.0859 -410.5275 L-445.0859 -419.09 L-444.0859 -419.09 L-444.0859 -415.4494 L-439.5703 -415.4494 L-439.5703 -419.09 L-438.5703 -419.09 L-438.5703 -410.5275 Z" /><ns0:path style="fill:black; stroke:none;" d="M-460.9627 -368.6332 Q-462.369 -368.6332 -463.1893 -367.6957 Q-464.0096 -366.7582 -464.0096 -365.1176 Q-464.0096 -363.4457 -463.2206 -362.5238 Q-462.4315 -361.6019 -460.9784 -361.6019 Q-460.0721 -361.6019 -458.9315 -361.9301 L-458.9315 -361.0551 Q-459.8221 -360.7113 -461.119 -360.7113 Q-463.0096 -360.7113 -464.0409 -361.8676 Q-465.0721 -363.0238 -465.0721 -365.1332 Q-465.0721 -366.4613 -464.5799 -367.4535 Q-464.0877 -368.4457 -463.1502 -368.9847 Q-462.2127 -369.5238 -460.9471 -369.5238 Q-459.6034 -369.5238 -458.5877 -369.0394 L-459.0096 -368.1801 Q-459.994 -368.6332 -460.9627 -368.6332 Z" /><ns0:path style="fill:black; stroke:none;" d="M-458.5721 -370.5238 L-459.5721 -370.5238 L-459.5721 -374.5551 L-464.0877 -374.5551 L-464.0877 -370.5238 L-465.0877 -370.5238 L-465.0877 -379.0863 L-464.0877 -379.0863 L-464.0877 -375.4457 L-459.5721 -375.4457 L-459.5721 -379.0863 L-458.5721 -379.0863 L-458.5721 -370.5238 Z" /><ns0:path style="fill:black; stroke:none;" d="M-478.0991 -378.6199 Q-479.5053 -378.6199 -480.3256 -377.6824 Q-481.1459 -376.7449 -481.1459 -375.1043 Q-481.1459 -373.4324 -480.3569 -372.5105 Q-479.5678 -371.5887 -478.1147 -371.5887 Q-477.2084 -371.5887 -476.0678 -371.9168 L-476.0678 -371.0418 Q-476.9584 -370.698 -478.2553 -370.698 Q-480.1459 -370.698 -481.1772 -371.8543 Q-482.2084 -373.0105 -482.2084 -375.1199 Q-482.2084 -376.448 -481.7162 -377.4402 Q-481.2241 -378.4324 -480.2866 -378.9715 Q-479.3491 -379.5105 -478.0834 -379.5105 Q-476.7397 -379.5105 -475.7241 -379.0262 L-476.1459 -378.1668 Q-477.1303 -378.6199 -478.0991 -378.6199 Z" /><ns0:path style="fill:black; stroke:none;" d="M-483.2084 -370.823 L-484.2084 -370.823 L-484.2084 -374.8543 L-488.7241 -374.8543 L-488.7241 -370.823 L-489.7241 -370.823 L-489.7241 -379.3855 L-488.7241 -379.3855 L-488.7241 -375.7449 L-484.2084 -375.7449 L-484.2084 -379.3855 L-483.2084 -379.3855 L-483.2084 -370.823 Z" /><ns0:path style="fill:black; stroke:none;" d="M-423.8245 -398.6501 Q-425.2308 -398.6501 -426.0511 -397.7126 Q-426.8714 -396.7751 -426.8714 -395.1345 Q-426.8714 -393.4626 -426.0823 -392.5407 Q-425.2933 -391.6189 -423.8401 -391.6189 Q-422.9339 -391.6189 -421.7933 -391.947 L-421.7933 -391.072 Q-422.6839 -390.7282 -423.9808 -390.7282 Q-425.8714 -390.7282 -426.9026 -391.8845 Q-427.9339 -393.0407 -427.9339 -395.1501 Q-427.9339 -396.4782 -427.4417 -397.4704 Q-426.9495 -398.4626 -426.012 -399.0017 Q-425.0745 -399.5407 -423.8089 -399.5407 Q-422.4651 -399.5407 -421.4495 -399.0564 L-421.8714 -398.197 Q-422.8558 -398.6501 -423.8245 -398.6501 Z" /><ns0:path style="fill:black; stroke:none;" d="M-413.9339 -390.8532 L-414.9339 -390.8532 L-414.9339 -394.8845 L-419.4495 -394.8845 L-419.4495 -390.8532 L-420.4495 -390.8532 L-420.4495 -399.4157 L-419.4495 -399.4157 L-419.4495 -395.7751 L-414.9339 -395.7751 L-414.9339 -399.4157 L-413.9339 -399.4157 L-413.9339 -390.8532 Z" /></ns0:g><ns0:g transform="translate(493,422)" style="stroke-linecap:butt; text-rendering:geometricPrecision; color-rendering:optimizeQuality; image-rendering:optimizeQuality; font-family:'Open Sans'; color-interpolation:linearRGB; stroke-miterlimit:5;"><ns0:path style="fill:none;" d="M-461.3299 -405.0587 L-461.8299 -405.0587 L-462.2619 -404.807" /><ns0:path style="fill:none;" d="M-442.3281 -365.0551 L-441.8281 -365.0551 L-441.3961 -365.3068" /><ns0:path style="fill:none;" d="M-478.9662 -394.572 L-478.9662 -395.072 L-478.5342 -395.3238" /><ns0:path style="fill:none;" d="M-424.6917 -375.5418 L-424.6917 -375.0418 L-425.1237 -374.79" /></ns0:g></ns0:g></ns0:svg></ns0:svg></ns0:svg></ns0:svg></g></svg>