<svg width="185" viewBox="0 0 185 135" style="fill-opacity:1; color-rendering:auto; color-interpolation:auto; text-rendering:auto; stroke:black; stroke-linecap:square; stroke-miterlimit:10; shape-rendering:auto; stroke-opacity:1; fill:black; stroke-dasharray:none; font-weight:normal; stroke-width:1; font-family:'Open Sans'; font-style:normal; stroke-linejoin:miter; font-size:12; stroke-dashoffset:0; image-rendering:auto;" height="135" class="cas-substance-image" xmlns:xlink="http://www.w3.org/1999/xlink" xmlns="http://www.w3.org/2000/svg"><svg class="cas-substance-single-component"><rect y="0" x="0" width="185" stroke="none" ry="7" rx="7" height="135" fill="white" class="cas-substance-group"/><svg y="0" x="0" width="185" viewBox="0 0 185 135" style="fill:black;" height="135" class="cas-substance-single-component-image"><svg><g><g transform="translate(92,67)" style="text-rendering:geometricPrecision; color-rendering:optimizeQuality; color-interpolation:linearRGB; stroke-linecap:butt; image-rendering:optimizeQuality;"><line y2="-18.2414" y1="-30" x2="72.3289" x1="51.963" style="fill:none;"/><line y2="-53.6484" y1="-28.9896" x2="53.713" x1="53.713" style="fill:none;"/><line y2="-53.6484" y1="-28.9897" x2="50.213" x1="50.213" style="fill:none;"/><line y2="-15" y1="-30" x2="25.98" x1="51.963" style="fill:none;"/><line y2="-15" y1="-26.4496" x2="-25.98" x1="-45.8129" style="fill:none;"/><line y2="18.1786" y1="27.2859" x2="-72.4376" x1="-56.6638" style="fill:none;"/><line y2="53.5234" y1="36.1562" x2="-51.963" x1="-51.963" style="fill:none;"/><line y2="15" y1="27.3645" x2="-25.98" x1="-47.3978" style="fill:none;"/><line y2="-30" y1="-15" x2="0" x1="25.98" style="fill:none;"/><line y2="-25.9585" y1="-12.9793" x2="-0.0001" x1="22.48" style="fill:none;"/><line y2="15" y1="-15" x2="25.98" x1="25.98" style="fill:none;"/><line y2="-15" y1="-30" x2="-25.98" x1="0" style="fill:none;"/><line y2="30" y1="15" x2="0" x1="25.98" style="fill:none;"/><line y2="25.9585" y1="12.9793" x2="-0.0001" x1="22.48" style="fill:none;"/><line y2="15" y1="-15" x2="-25.98" x1="-25.98" style="fill:none;"/><line y2="12.9793" y1="-12.9793" x2="-22.48" x1="-22.48" style="fill:none;"/><line y2="15" y1="30" x2="-25.98" x1="0" style="fill:none;"/><path style="fill:none; stroke-miterlimit:5;" d="M52.396 -29.75 L51.963 -30 L51.53 -29.75"/></g><g transform="translate(92,67)" style="stroke-linecap:butt; fill:rgb(230,0,0); text-rendering:geometricPrecision; color-rendering:optimizeQuality; image-rendering:optimizeQuality; font-family:'Open Sans'; stroke:rgb(230,0,0); color-interpolation:linearRGB; stroke-miterlimit:5;"><path style="stroke:none;" d="M81.8805 -15.0703 Q81.8805 -13.0078 80.8414 -11.8281 Q79.8024 -10.6484 77.9586 -10.6484 Q76.068 -10.6484 75.0368 -11.8125 Q74.0055 -12.9766 74.0055 -15.0859 Q74.0055 -17.1797 75.0368 -18.3281 Q76.068 -19.4766 77.9586 -19.4766 Q79.818 -19.4766 80.8493 -18.3047 Q81.8805 -17.1328 81.8805 -15.0703 ZM75.0524 -15.0703 Q75.0524 -13.3359 75.7946 -12.4297 Q76.5368 -11.5234 77.9586 -11.5234 Q79.3805 -11.5234 80.1071 -12.4219 Q80.8336 -13.3203 80.8336 -15.0703 Q80.8336 -16.8047 80.1071 -17.6953 Q79.3805 -18.5859 77.9586 -18.5859 Q76.5368 -18.5859 75.7946 -17.6875 Q75.0524 -16.7891 75.0524 -15.0703 Z"/><path style="stroke:none;" d="M89.3961 -10.7734 L88.3961 -10.7734 L88.3961 -14.8047 L83.8805 -14.8047 L83.8805 -10.7734 L82.8805 -10.7734 L82.8805 -19.3359 L83.8805 -19.3359 L83.8805 -15.6953 L88.3961 -15.6953 L88.3961 -19.3359 L89.3961 -19.3359 L89.3961 -10.7734 Z"/><path style="stroke:none;" d="M55.9005 -60.0703 Q55.9005 -58.0078 54.8614 -56.8281 Q53.8224 -55.6484 51.9786 -55.6484 Q50.088 -55.6484 49.0568 -56.8125 Q48.0255 -57.9766 48.0255 -60.0859 Q48.0255 -62.1797 49.0568 -63.3281 Q50.088 -64.4766 51.9786 -64.4766 Q53.838 -64.4766 54.8693 -63.3047 Q55.9005 -62.1328 55.9005 -60.0703 ZM49.0724 -60.0703 Q49.0724 -58.3359 49.8146 -57.4297 Q50.5568 -56.5234 51.9786 -56.5234 Q53.4005 -56.5234 54.1271 -57.4219 Q54.8536 -58.3203 54.8536 -60.0703 Q54.8536 -61.8047 54.1271 -62.6953 Q53.4005 -63.5859 51.9786 -63.5859 Q50.5568 -63.5859 49.8146 -62.6875 Q49.0724 -61.7891 49.0724 -60.0703 Z"/><path style="fill:rgb(0,138,0); stroke:none;" d="M-52.2716 -33.3594 Q-53.6778 -33.3594 -54.4982 -32.4219 Q-55.3185 -31.4844 -55.3185 -29.8438 Q-55.3185 -28.1719 -54.5294 -27.25 Q-53.7403 -26.3281 -52.2872 -26.3281 Q-51.381 -26.3281 -50.2403 -26.6562 L-50.2403 -25.7812 Q-51.131 -25.4375 -52.4278 -25.4375 Q-54.3185 -25.4375 -55.3497 -26.5938 Q-56.381 -27.75 -56.381 -29.8594 Q-56.381 -31.1875 -55.8888 -32.1797 Q-55.3966 -33.1719 -54.4591 -33.7109 Q-53.5216 -34.25 -52.256 -34.25 Q-50.9122 -34.25 -49.8966 -33.7656 L-50.3185 -32.9062 Q-51.3028 -33.3594 -52.2716 -33.3594 ZM-47.545 -25.5625 L-48.5138 -25.5625 L-48.5138 -34.6875 L-47.545 -34.6875 L-47.545 -25.5625 Z"/><path style="fill:black; stroke:none;" d="M-54.9318 25.5938 L-52.5099 25.5938 Q-50.8068 25.5938 -50.0411 26.1016 Q-49.2755 26.6094 -49.2755 27.7031 Q-49.2755 28.4688 -49.6974 28.9688 Q-50.1193 29.4688 -50.9474 29.6094 L-50.9474 29.6719 Q-48.9943 30 -48.9943 31.7188 Q-48.9943 32.8594 -49.7677 33.5078 Q-50.5411 34.1562 -51.9318 34.1562 L-54.9318 34.1562 L-54.9318 25.5938 ZM-53.9318 29.25 L-52.2911 29.25 Q-51.2286 29.25 -50.7677 28.9219 Q-50.3068 28.5938 -50.3068 27.8125 Q-50.3068 27.0938 -50.8224 26.7734 Q-51.338 26.4531 -52.463 26.4531 L-53.9318 26.4531 L-53.9318 29.25 ZM-53.9318 30.0938 L-53.9318 33.3125 L-52.1349 33.3125 Q-51.1036 33.3125 -50.5802 32.9062 Q-50.0568 32.5 -50.0568 31.6406 Q-50.0568 30.8438 -50.5958 30.4688 Q-51.1349 30.0938 -52.2286 30.0938 L-53.9318 30.0938 Z"/><path style="stroke:none;" d="M-74.0055 14.9297 Q-74.0055 16.9922 -75.0446 18.1719 Q-76.0836 19.3516 -77.9274 19.3516 Q-79.818 19.3516 -80.8493 18.1875 Q-81.8805 17.0234 -81.8805 14.9141 Q-81.8805 12.8203 -80.8493 11.6719 Q-79.818 10.5234 -77.9274 10.5234 Q-76.068 10.5234 -75.0368 11.6953 Q-74.0055 12.8672 -74.0055 14.9297 ZM-80.8336 14.9297 Q-80.8336 16.6641 -80.0914 17.5703 Q-79.3493 18.4766 -77.9274 18.4766 Q-76.5055 18.4766 -75.7789 17.5781 Q-75.0524 16.6797 -75.0524 14.9297 Q-75.0524 13.1953 -75.7789 12.3047 Q-76.5055 11.4141 -77.9274 11.4141 Q-79.3493 11.4141 -80.0914 12.3125 Q-80.8336 13.2109 -80.8336 14.9297 Z"/><path style="stroke:none;" d="M-82.8805 19.2266 L-83.8805 19.2266 L-83.8805 15.1953 L-88.3961 15.1953 L-88.3961 19.2266 L-89.3961 19.2266 L-89.3961 10.6641 L-88.3961 10.6641 L-88.3961 14.3047 L-83.8805 14.3047 L-83.8805 10.6641 L-82.8805 10.6641 L-82.8805 19.2266 Z"/><path style="stroke:none;" d="M-48.0255 59.9297 Q-48.0255 61.9922 -49.0646 63.1719 Q-50.1036 64.3516 -51.9474 64.3516 Q-53.838 64.3516 -54.8693 63.1875 Q-55.9005 62.0234 -55.9005 59.9141 Q-55.9005 57.8203 -54.8693 56.6719 Q-53.838 55.5234 -51.9474 55.5234 Q-50.088 55.5234 -49.0568 56.6953 Q-48.0255 57.8672 -48.0255 59.9297 ZM-54.8536 59.9297 Q-54.8536 61.6641 -54.1114 62.5703 Q-53.3693 63.4766 -51.9474 63.4766 Q-50.5255 63.4766 -49.7989 62.5781 Q-49.0724 61.6797 -49.0724 59.9297 Q-49.0724 58.1953 -49.7989 57.3047 Q-50.5255 56.4141 -51.9474 56.4141 Q-53.3693 56.4141 -54.1114 57.3125 Q-54.8536 58.2109 -54.8536 59.9297 Z"/><path style="stroke:none;" d="M-40.5099 64.2266 L-41.5099 64.2266 L-41.5099 60.1953 L-46.0255 60.1953 L-46.0255 64.2266 L-47.0255 64.2266 L-47.0255 55.6641 L-46.0255 55.6641 L-46.0255 59.3047 L-41.5099 59.3047 L-41.5099 55.6641 L-40.5099 55.6641 L-40.5099 64.2266 Z"/><path style="fill:none; stroke:black;" d="M25.547 -15.25 L25.98 -15 L26.413 -15.25"/><path style="fill:none; stroke:black;" d="M0.433 -29.75 L0 -30 L-0.433 -29.75"/><path style="fill:none; stroke:black;" d="M25.98 14.5 L25.98 15 L25.547 15.25"/><path style="fill:none; stroke:black;" d="M-25.98 -14.5 L-25.98 -15 L-26.413 -15.25"/><path style="fill:none; stroke:black;" d="M0.433 29.75 L0 30 L-0.433 29.75"/><path style="fill:none; stroke:black;" d="M-25.98 14.5 L-25.98 15 L-26.413 15.25"/></g></g></svg></svg></svg></svg>