<svg width="211" viewBox="0 0 211 150" style="fill-opacity:1; color-rendering:auto; color-interpolation:auto; text-rendering:auto; stroke:black; stroke-linecap:square; stroke-miterlimit:10; shape-rendering:auto; stroke-opacity:1; fill:black; stroke-dasharray:none; font-weight:normal; stroke-width:1; font-family:'Open Sans'; font-style:normal; stroke-linejoin:miter; font-size:12; stroke-dashoffset:0; image-rendering:auto;" height="150" class="cas-substance-image" xmlns:xlink="http://www.w3.org/1999/xlink" xmlns="http://www.w3.org/2000/svg"><svg class="cas-substance-single-component"><rect y="0" x="0" width="211" stroke="none" ry="7" rx="7" height="150" fill="white" class="cas-substance-group"/><svg y="0" x="0" width="211" viewBox="0 0 211 150" style="fill:black;" height="150" class="cas-substance-single-component-image"><svg><g><g transform="translate(105,75)" style="text-rendering:geometricPrecision; color-rendering:optimizeQuality; color-interpolation:linearRGB; stroke-linecap:butt; image-rendering:optimizeQuality;"><path style="fill:none;" d="M-22.99 29.5 L-22.99 25.5 L-2.99 25.5 L-2.99 29.5 M-40.8993 65.1606 L-44.3635 67.1604 L-54.3629 49.8396 L-50.8987 47.8397"/><path style="stroke:none;" d="M6.4319 31.5 L6.4319 27.3438 Q6.4319 26.5625 6.0803 26.1719 Q5.7288 25.7812 4.9631 25.7812 Q3.9475 25.7812 3.4788 26.3281 Q3.01 26.875 3.01 28.125 L3.01 31.5 L2.0413 31.5 L2.0413 25.0781 L2.8381 25.0781 L2.9944 25.9531 L3.0413 25.9531 Q3.3381 25.4844 3.8772 25.2188 Q4.4163 24.9531 5.0725 24.9531 Q6.2444 24.9531 6.8303 25.5156 Q7.4163 26.0781 7.4163 27.3125 L7.4163 31.5 L6.4319 31.5 Z"/><path style="fill:none;" d="M-28.97 -29.5 L-28.97 -25.5 L-48.97 -25.5 L-48.97 -29.5 M-76.881 -47.8398 L-80.3451 -49.8398 L-70.3449 -67.1602 L-66.8808 -65.1601"/><path style="stroke:none;" d="M-19.5481 -19.5 L-19.5481 -23.6562 Q-19.5481 -24.4375 -19.8997 -24.8281 Q-20.2513 -25.2188 -21.0169 -25.2188 Q-22.0325 -25.2188 -22.5013 -24.6719 Q-22.97 -24.125 -22.97 -22.875 L-22.97 -19.5 L-23.9388 -19.5 L-23.9388 -25.9219 L-23.1419 -25.9219 L-22.9856 -25.0469 L-22.9388 -25.0469 Q-22.6419 -25.5156 -22.1028 -25.7812 Q-21.5638 -26.0469 -20.9075 -26.0469 Q-19.7356 -26.0469 -19.1497 -25.4844 Q-18.5638 -24.9219 -18.5638 -23.6875 L-18.5638 -19.5 L-19.5481 -19.5 Z"/><path style="fill:none;" d="M27.042 12.1602 L23.5779 10.1602 L33.5781 -7.1602 L37.0422 -5.1601 M77.2728 -26.1601 L80.7369 -28.1602 L90.7371 -10.8398 L87.273 -8.8398"/><path style="stroke:none;" d="M100.159 -4.8398 L100.159 -8.9961 Q100.159 -9.7773 99.8074 -10.1679 Q99.4559 -10.5586 98.6902 -10.5586 Q97.6746 -10.5586 97.2059 -10.0117 Q96.7371 -9.4648 96.7371 -8.2148 L96.7371 -4.8398 L95.7684 -4.8398 L95.7684 -11.2617 L96.5652 -11.2617 L96.7215 -10.3867 L96.7684 -10.3867 Q97.0652 -10.8554 97.6043 -11.1211 Q98.1434 -11.3867 98.7996 -11.3867 Q99.9715 -11.3867 100.5574 -10.8242 Q101.1434 -10.2617 101.1434 -9.0273 L101.1434 -4.8398 L100.159 -4.8398 Z"/><line y2="-7.5" y1="7.5" x2="-38.97" x1="-12.99" style="fill:none;"/><line y2="-7.5" y1="7.5" x2="12.99" x1="-12.99" style="fill:none;"/><line y2="31.0234" y1="7.5" x2="-12.99" x1="-12.99" style="fill:none;"/><line y2="-31.1484" y1="-7.5" x2="-38.97" x1="-38.97" style="fill:none;"/><line y2="4.2586" y1="-7.5" x2="33.3559" x1="12.99" style="fill:none;"/><line y2="48.225" y1="40.6888" x2="-31.5657" x1="-18.513" style="fill:none;"/><line y2="-45.7009" y1="-40.7412" x2="-53.1756" x1="-44.5843" style="fill:none;"/><line y2="-4.1593" y1="4.2742" x2="59.1662" x1="44.5577" style="fill:none;"/><line y2="64.2742" y1="55.8407" x2="-59.3653" x1="-44.7568" style="fill:none;"/><line y2="-64.3214" y1="-55.5729" x2="-85.4276" x1="-70.2753" style="fill:none;"/><line y2="-19.3112" y1="-11.775" x2="85.41" x1="72.3573" style="fill:none;"/><path style="fill:none; stroke-miterlimit:5;" d="M-38.537 -7.25 L-38.97 -7.5 L-38.97 -8"/><path style="fill:none; stroke-miterlimit:5;" d="M12.557 -7.25 L12.99 -7.5 L13.423 -7.25"/></g><g transform="translate(105,75)" style="stroke-linecap:butt; fill:rgb(230,0,0); text-rendering:geometricPrecision; color-rendering:optimizeQuality; image-rendering:optimizeQuality; font-family:'Open Sans'; stroke:rgb(230,0,0); color-interpolation:linearRGB; stroke-miterlimit:5;"><path style="stroke:none;" d="M-9.0525 37.4297 Q-9.0525 39.4922 -10.0916 40.6719 Q-11.1306 41.8516 -12.9744 41.8516 Q-14.865 41.8516 -15.8962 40.6875 Q-16.9275 39.5234 -16.9275 37.4141 Q-16.9275 35.3203 -15.8962 34.1719 Q-14.865 33.0234 -12.9744 33.0234 Q-11.115 33.0234 -10.0837 34.1953 Q-9.0525 35.3672 -9.0525 37.4297 ZM-15.8806 37.4297 Q-15.8806 39.1641 -15.1384 40.0703 Q-14.3962 40.9766 -12.9744 40.9766 Q-11.5525 40.9766 -10.8259 40.0781 Q-10.0994 39.1797 -10.0994 37.4297 Q-10.0994 35.6953 -10.8259 34.8047 Q-11.5525 33.9141 -12.9744 33.9141 Q-14.3962 33.9141 -15.1384 34.8125 Q-15.8806 35.7109 -15.8806 37.4297 Z"/><path style="stroke:none;" d="M-35.0325 -37.5703 Q-35.0325 -35.5078 -36.0716 -34.3281 Q-37.1106 -33.1484 -38.9544 -33.1484 Q-40.845 -33.1484 -41.8763 -34.3125 Q-42.9075 -35.4766 -42.9075 -37.5859 Q-42.9075 -39.6797 -41.8763 -40.8281 Q-40.845 -41.9766 -38.9544 -41.9766 Q-37.095 -41.9766 -36.0638 -40.8047 Q-35.0325 -39.6328 -35.0325 -37.5703 ZM-41.8606 -37.5703 Q-41.8606 -35.8359 -41.1184 -34.9297 Q-40.3763 -34.0234 -38.9544 -34.0234 Q-37.5325 -34.0234 -36.8059 -34.9219 Q-36.0794 -35.8203 -36.0794 -37.5703 Q-36.0794 -39.3047 -36.8059 -40.1953 Q-37.5325 -41.0859 -38.9544 -41.0859 Q-40.3763 -41.0859 -41.1184 -40.1875 Q-41.8606 -39.2891 -41.8606 -37.5703 Z"/><path style="stroke:none;" d="M42.9075 7.4297 Q42.9075 9.4922 41.8684 10.6719 Q40.8294 11.8516 38.9856 11.8516 Q37.095 11.8516 36.0638 10.6875 Q35.0325 9.5234 35.0325 7.4141 Q35.0325 5.3203 36.0638 4.1719 Q37.095 3.0234 38.9856 3.0234 Q40.845 3.0234 41.8763 4.1953 Q42.9075 5.3672 42.9075 7.4297 ZM36.0794 7.4297 Q36.0794 9.1641 36.8216 10.0703 Q37.5638 10.9766 38.9856 10.9766 Q40.4075 10.9766 41.1341 10.0781 Q41.8606 9.1797 41.8606 7.4297 Q41.8606 5.6953 41.1341 4.8047 Q40.4075 3.9141 38.9856 3.9141 Q37.5638 3.9141 36.8216 4.8125 Q36.0794 5.7109 36.0794 7.4297 Z"/><path style="fill:black; stroke:none;" d="M-43.0247 53.375 Q-43.0247 51.8125 -42.5716 50.4609 Q-42.1184 49.1094 -41.2591 48.0938 L-40.3216 48.0938 Q-41.1653 49.2188 -41.5872 50.5703 Q-42.0091 51.9219 -42.0091 53.3594 Q-42.0091 54.7656 -41.5716 56.1094 Q-41.1341 57.4531 -40.3216 58.5625 L-41.2591 58.5625 Q-42.1184 57.5625 -42.5716 56.2266 Q-43.0247 54.8906 -43.0247 53.375 Z"/><path style="fill:black; stroke:none;" d="M-35.2122 48.8594 Q-36.6184 48.8594 -37.4388 49.7969 Q-38.2591 50.7344 -38.2591 52.375 Q-38.2591 54.0469 -37.47 54.9688 Q-36.6809 55.8906 -35.2278 55.8906 Q-34.3216 55.8906 -33.1809 55.5625 L-33.1809 56.4375 Q-34.0716 56.7812 -35.3684 56.7812 Q-37.2591 56.7812 -38.2903 55.625 Q-39.3216 54.4688 -39.3216 52.3594 Q-39.3216 51.0312 -38.8294 50.0391 Q-38.3372 49.0469 -37.3997 48.5078 Q-36.4622 47.9688 -35.1966 47.9688 Q-33.8528 47.9688 -32.8372 48.4531 L-33.2591 49.3125 Q-34.2434 48.8594 -35.2122 48.8594 Z"/><path style="fill:black; stroke:none;" d="M-28.2747 54.0906 Q-28.2747 54.6375 -28.5872 54.9891 Q-28.8997 55.3406 -29.4622 55.45 L-29.4622 55.4813 Q-28.7747 55.575 -28.4388 55.9266 Q-28.1028 56.2781 -28.1028 56.8406 Q-28.1028 57.6688 -28.6731 58.1063 Q-29.2434 58.5438 -30.2747 58.5438 Q-30.7278 58.5438 -31.1106 58.4734 Q-31.4934 58.4031 -31.8372 58.2313 L-31.8372 57.6219 Q-31.4778 57.7938 -31.0559 57.8953 Q-30.6341 57.9969 -30.2591 57.9969 Q-28.7747 57.9969 -28.7747 56.825 Q-28.7747 55.7938 -30.4153 55.7938 L-30.9778 55.7938 L-30.9778 55.2313 L-30.3997 55.2313 Q-29.7278 55.2313 -29.3372 54.9344 Q-28.9466 54.6375 -28.9466 54.1219 Q-28.9466 53.7 -29.2356 53.4656 Q-29.5247 53.2313 -30.0247 53.2313 Q-30.3997 53.2313 -30.7278 53.3328 Q-31.0559 53.4344 -31.4778 53.7 L-31.8059 53.2625 Q-31.4622 52.9813 -31.0013 52.825 Q-30.5403 52.6688 -30.0403 52.6688 Q-29.1966 52.6688 -28.7356 53.0516 Q-28.2747 53.4344 -28.2747 54.0906 Z"/><path style="fill:black; stroke:none;" d="M-20.5872 56.6562 L-21.5872 56.6562 L-21.5872 52.625 L-26.1028 52.625 L-26.1028 56.6562 L-27.1028 56.6562 L-27.1028 48.0938 L-26.1028 48.0938 L-26.1028 51.7344 L-21.5872 51.7344 L-21.5872 48.0938 L-20.5872 48.0938 L-20.5872 56.6562 Z"/><path style="fill:black; stroke:none;" d="M-19.5872 56.0281 Q-19.5872 54.3406 -18.9309 53.5047 Q-18.2747 52.6688 -16.9934 52.6688 Q-16.5559 52.6688 -16.2903 52.7469 L-16.2903 53.3094 Q-16.6028 53.2 -16.9778 53.2 Q-17.8997 53.2 -18.3841 53.7781 Q-18.8684 54.3563 -18.9153 55.575 L-18.8684 55.575 Q-18.4466 54.9031 -17.5091 54.9031 Q-16.7434 54.9031 -16.2981 55.3719 Q-15.8528 55.8406 -15.8528 56.6375 Q-15.8528 57.5281 -16.3372 58.0359 Q-16.8216 58.5438 -17.6497 58.5438 Q-18.5403 58.5438 -19.0638 57.8797 Q-19.5872 57.2156 -19.5872 56.0281 ZM-17.6653 57.9969 Q-17.1028 57.9969 -16.7981 57.6453 Q-16.4934 57.2938 -16.4934 56.6375 Q-16.4934 56.0594 -16.7825 55.7391 Q-17.0716 55.4188 -17.6341 55.4188 Q-17.9778 55.4188 -18.2747 55.5594 Q-18.5716 55.7 -18.7434 55.9578 Q-18.9153 56.2156 -18.9153 56.4813 Q-18.9153 56.8875 -18.7591 57.2391 Q-18.6028 57.5906 -18.3138 57.7938 Q-18.0247 57.9969 -17.6653 57.9969 Z"/><path style="fill:black; stroke:none;" d="M-12.1341 53.375 Q-12.1341 54.9062 -12.595 56.2422 Q-13.0559 57.5781 -13.8997 58.5625 L-14.8372 58.5625 Q-14.0247 57.4531 -13.595 56.1094 Q-13.1653 54.7656 -13.1653 53.3594 Q-13.1653 51.9219 -13.5872 50.5703 Q-14.0091 49.2188 -14.8528 48.0938 L-13.8997 48.0938 Q-13.0403 49.1094 -12.5872 50.4688 Q-12.1341 51.8281 -12.1341 53.375 Z"/><path style="fill:black; stroke:none;" d="M-69.0077 -51.625 Q-69.0077 -53.1875 -68.5546 -54.5391 Q-68.1014 -55.8906 -67.2421 -56.9062 L-66.3046 -56.9062 Q-67.1483 -55.7812 -67.5702 -54.4297 Q-67.9921 -53.0781 -67.9921 -51.6406 Q-67.9921 -50.2344 -67.5546 -48.8906 Q-67.1171 -47.5469 -66.3046 -46.4375 L-67.2421 -46.4375 Q-68.1014 -47.4375 -68.5546 -48.7734 Q-69.0077 -50.1094 -69.0077 -51.625 Z"/><path style="fill:black; stroke:none;" d="M-61.1952 -56.1406 Q-62.6014 -56.1406 -63.4218 -55.2031 Q-64.2421 -54.2656 -64.2421 -52.625 Q-64.2421 -50.9531 -63.453 -50.0312 Q-62.6639 -49.1094 -61.2108 -49.1094 Q-60.3046 -49.1094 -59.1639 -49.4375 L-59.1639 -48.5625 Q-60.0546 -48.2188 -61.3514 -48.2188 Q-63.2421 -48.2188 -64.2733 -49.375 Q-65.3046 -50.5312 -65.3046 -52.6406 Q-65.3046 -53.9688 -64.8124 -54.9609 Q-64.3202 -55.9531 -63.3827 -56.4922 Q-62.4452 -57.0312 -61.1796 -57.0312 Q-59.8358 -57.0312 -58.8202 -56.5469 L-59.2421 -55.6875 Q-60.2264 -56.1406 -61.1952 -56.1406 Z"/><path style="fill:black; stroke:none;" d="M-54.2577 -50.9094 Q-54.2577 -50.3625 -54.5702 -50.0109 Q-54.8827 -49.6594 -55.4452 -49.55 L-55.4452 -49.5187 Q-54.7577 -49.425 -54.4218 -49.0734 Q-54.0858 -48.7219 -54.0858 -48.1594 Q-54.0858 -47.3312 -54.6561 -46.8937 Q-55.2264 -46.4562 -56.2577 -46.4562 Q-56.7108 -46.4562 -57.0936 -46.5266 Q-57.4764 -46.5969 -57.8202 -46.7687 L-57.8202 -47.3781 Q-57.4608 -47.2062 -57.0389 -47.1047 Q-56.6171 -47.0031 -56.2421 -47.0031 Q-54.7577 -47.0031 -54.7577 -48.175 Q-54.7577 -49.2062 -56.3983 -49.2062 L-56.9608 -49.2062 L-56.9608 -49.7687 L-56.3827 -49.7687 Q-55.7108 -49.7687 -55.3202 -50.0656 Q-54.9296 -50.3625 -54.9296 -50.8781 Q-54.9296 -51.3 -55.2186 -51.5344 Q-55.5077 -51.7687 -56.0077 -51.7687 Q-56.3827 -51.7687 -56.7108 -51.6672 Q-57.0389 -51.5656 -57.4608 -51.3 L-57.7889 -51.7375 Q-57.4452 -52.0187 -56.9843 -52.175 Q-56.5233 -52.3312 -56.0233 -52.3312 Q-55.1796 -52.3312 -54.7186 -51.9484 Q-54.2577 -51.5656 -54.2577 -50.9094 Z"/><path style="fill:black; stroke:none;" d="M-46.5702 -48.3438 L-47.5702 -48.3438 L-47.5702 -52.375 L-52.0858 -52.375 L-52.0858 -48.3438 L-53.0858 -48.3438 L-53.0858 -56.9062 L-52.0858 -56.9062 L-52.0858 -53.2656 L-47.5702 -53.2656 L-47.5702 -56.9062 L-46.5702 -56.9062 L-46.5702 -48.3438 Z"/><path style="fill:black; stroke:none;" d="M-45.5702 -48.9719 Q-45.5702 -50.6594 -44.9139 -51.4953 Q-44.2577 -52.3312 -42.9764 -52.3312 Q-42.5389 -52.3312 -42.2733 -52.2531 L-42.2733 -51.6906 Q-42.5858 -51.8 -42.9608 -51.8 Q-43.8827 -51.8 -44.3671 -51.2219 Q-44.8514 -50.6437 -44.8983 -49.425 L-44.8514 -49.425 Q-44.4296 -50.0969 -43.4921 -50.0969 Q-42.7264 -50.0969 -42.2811 -49.6281 Q-41.8358 -49.1594 -41.8358 -48.3625 Q-41.8358 -47.4719 -42.3202 -46.9641 Q-42.8046 -46.4562 -43.6327 -46.4562 Q-44.5233 -46.4562 -45.0468 -47.1203 Q-45.5702 -47.7844 -45.5702 -48.9719 ZM-43.6483 -47.0031 Q-43.0858 -47.0031 -42.7811 -47.3547 Q-42.4764 -47.7062 -42.4764 -48.3625 Q-42.4764 -48.9406 -42.7655 -49.2609 Q-43.0546 -49.5812 -43.6171 -49.5812 Q-43.9608 -49.5812 -44.2577 -49.4406 Q-44.5546 -49.3 -44.7264 -49.0422 Q-44.8983 -48.7844 -44.8983 -48.5187 Q-44.8983 -48.1125 -44.7421 -47.7609 Q-44.5858 -47.4094 -44.2968 -47.2062 Q-44.0077 -47.0031 -43.6483 -47.0031 Z"/><path style="fill:black; stroke:none;" d="M-38.1171 -51.625 Q-38.1171 -50.0938 -38.578 -48.7578 Q-39.0389 -47.4219 -39.8827 -46.4375 L-40.8202 -46.4375 Q-40.0077 -47.5469 -39.578 -48.8906 Q-39.1483 -50.2344 -39.1483 -51.6406 Q-39.1483 -53.0781 -39.5702 -54.4297 Q-39.9921 -55.7812 -40.8358 -56.9062 L-39.8827 -56.9062 Q-39.0233 -55.8906 -38.5702 -54.5312 Q-38.1171 -53.1719 -38.1171 -51.625 Z"/><path style="fill:black; stroke:none;" d="M60.8983 -6.625 Q60.8983 -8.1875 61.3514 -9.5391 Q61.8046 -10.8906 62.6639 -11.9062 L63.6014 -11.9062 Q62.7577 -10.7812 62.3358 -9.4297 Q61.9139 -8.0781 61.9139 -6.6406 Q61.9139 -5.2344 62.3514 -3.8906 Q62.7889 -2.5469 63.6014 -1.4375 L62.6639 -1.4375 Q61.8046 -2.4375 61.3514 -3.7734 Q60.8983 -5.1094 60.8983 -6.625 Z"/><path style="fill:black; stroke:none;" d="M68.7108 -11.1406 Q67.3046 -11.1406 66.4843 -10.2031 Q65.6639 -9.2656 65.6639 -7.625 Q65.6639 -5.9531 66.453 -5.0312 Q67.2421 -4.1094 68.6952 -4.1094 Q69.6014 -4.1094 70.7421 -4.4375 L70.7421 -3.5625 Q69.8514 -3.2188 68.5546 -3.2188 Q66.6639 -3.2188 65.6327 -4.375 Q64.6014 -5.5312 64.6014 -7.6406 Q64.6014 -8.9688 65.0936 -9.9609 Q65.5858 -10.9531 66.5233 -11.4922 Q67.4608 -12.0312 68.7264 -12.0312 Q70.0702 -12.0312 71.0858 -11.5469 L70.6639 -10.6875 Q69.6796 -11.1406 68.7108 -11.1406 Z"/><path style="fill:black; stroke:none;" d="M75.6483 -5.9094 Q75.6483 -5.3625 75.3358 -5.0109 Q75.0233 -4.6594 74.4608 -4.55 L74.4608 -4.5188 Q75.1483 -4.425 75.4843 -4.0734 Q75.8202 -3.7219 75.8202 -3.1594 Q75.8202 -2.3312 75.2499 -1.8937 Q74.6796 -1.4562 73.6483 -1.4562 Q73.1952 -1.4562 72.8124 -1.5266 Q72.4296 -1.5969 72.0858 -1.7687 L72.0858 -2.3781 Q72.4452 -2.2062 72.8671 -2.1047 Q73.2889 -2.0031 73.6639 -2.0031 Q75.1483 -2.0031 75.1483 -3.175 Q75.1483 -4.2063 73.5077 -4.2063 L72.9452 -4.2063 L72.9452 -4.7688 L73.5233 -4.7688 Q74.1952 -4.7688 74.5858 -5.0656 Q74.9764 -5.3625 74.9764 -5.8781 Q74.9764 -6.3 74.6874 -6.5344 Q74.3983 -6.7688 73.8983 -6.7688 Q73.5233 -6.7688 73.1952 -6.6672 Q72.8671 -6.5656 72.4452 -6.3 L72.1171 -6.7375 Q72.4608 -7.0188 72.9218 -7.175 Q73.3827 -7.3313 73.8827 -7.3313 Q74.7264 -7.3313 75.1874 -6.9484 Q75.6483 -6.5656 75.6483 -5.9094 Z"/><path style="fill:black; stroke:none;" d="M83.3358 -3.3438 L82.3358 -3.3438 L82.3358 -7.375 L77.8202 -7.375 L77.8202 -3.3438 L76.8202 -3.3438 L76.8202 -11.9062 L77.8202 -11.9062 L77.8202 -8.2656 L82.3358 -8.2656 L82.3358 -11.9062 L83.3358 -11.9062 L83.3358 -3.3438 Z"/><path style="fill:black; stroke:none;" d="M84.3358 -3.9719 Q84.3358 -5.6594 84.9921 -6.4953 Q85.6483 -7.3313 86.9296 -7.3313 Q87.3671 -7.3313 87.6327 -7.2531 L87.6327 -6.6906 Q87.3202 -6.8 86.9452 -6.8 Q86.0233 -6.8 85.5389 -6.2219 Q85.0546 -5.6438 85.0077 -4.425 L85.0546 -4.425 Q85.4764 -5.0969 86.4139 -5.0969 Q87.1796 -5.0969 87.6249 -4.6281 Q88.0702 -4.1594 88.0702 -3.3625 Q88.0702 -2.4719 87.5858 -1.9641 Q87.1014 -1.4562 86.2733 -1.4562 Q85.3827 -1.4562 84.8593 -2.1203 Q84.3358 -2.7844 84.3358 -3.9719 ZM86.2577 -2.0031 Q86.8202 -2.0031 87.1249 -2.3547 Q87.4296 -2.7062 87.4296 -3.3625 Q87.4296 -3.9406 87.1405 -4.2609 Q86.8514 -4.5813 86.2889 -4.5813 Q85.9452 -4.5813 85.6483 -4.4406 Q85.3514 -4.3 85.1796 -4.0422 Q85.0077 -3.7844 85.0077 -3.5187 Q85.0077 -3.1125 85.1639 -2.7609 Q85.3202 -2.4094 85.6093 -2.2062 Q85.8983 -2.0031 86.2577 -2.0031 Z"/><path style="fill:black; stroke:none;" d="M91.7889 -6.625 Q91.7889 -5.0938 91.328 -3.7578 Q90.8671 -2.4219 90.0233 -1.4375 L89.0858 -1.4375 Q89.8983 -2.5469 90.328 -3.8906 Q90.7577 -5.2344 90.7577 -6.6406 Q90.7577 -8.0781 90.3358 -9.4297 Q89.9139 -10.7812 89.0702 -11.9062 L90.0233 -11.9062 Q90.8827 -10.8906 91.3358 -9.5312 Q91.7889 -8.1719 91.7889 -6.625 Z"/><path style="stroke:none;" d="M-61.0155 67.4297 Q-61.0155 69.4922 -62.0546 70.6719 Q-63.0936 71.8516 -64.9374 71.8516 Q-66.828 71.8516 -67.8593 70.6875 Q-68.8905 69.5234 -68.8905 67.4141 Q-68.8905 65.3203 -67.8593 64.1719 Q-66.828 63.0234 -64.9374 63.0234 Q-63.078 63.0234 -62.0468 64.1953 Q-61.0155 65.3672 -61.0155 67.4297 ZM-67.8436 67.4297 Q-67.8436 69.1641 -67.1014 70.0703 Q-66.3593 70.9766 -64.9374 70.9766 Q-63.5155 70.9766 -62.7889 70.0781 Q-62.0624 69.1797 -62.0624 67.4297 Q-62.0624 65.6953 -62.7889 64.8047 Q-63.5155 63.9141 -64.9374 63.9141 Q-66.3593 63.9141 -67.1014 64.8125 Q-67.8436 65.7109 -67.8436 67.4297 Z"/><path style="stroke:none;" d="M-69.8905 71.7266 L-70.8905 71.7266 L-70.8905 67.6953 L-75.4061 67.6953 L-75.4061 71.7266 L-76.4061 71.7266 L-76.4061 63.1641 L-75.4061 63.1641 L-75.4061 66.8047 L-70.8905 66.8047 L-70.8905 63.1641 L-69.8905 63.1641 L-69.8905 71.7266 Z"/><path style="stroke:none;" d="M-86.9955 -67.5703 Q-86.9955 -65.5078 -88.0346 -64.3281 Q-89.0736 -63.1484 -90.9174 -63.1484 Q-92.808 -63.1484 -93.8392 -64.3125 Q-94.8705 -65.4766 -94.8705 -67.5859 Q-94.8705 -69.6797 -93.8392 -70.8281 Q-92.808 -71.9766 -90.9174 -71.9766 Q-89.058 -71.9766 -88.0267 -70.8047 Q-86.9955 -69.6328 -86.9955 -67.5703 ZM-93.8236 -67.5703 Q-93.8236 -65.8359 -93.0814 -64.9297 Q-92.3392 -64.0234 -90.9174 -64.0234 Q-89.4955 -64.0234 -88.7689 -64.9219 Q-88.0424 -65.8203 -88.0424 -67.5703 Q-88.0424 -69.3047 -88.7689 -70.1953 Q-89.4955 -71.0859 -90.9174 -71.0859 Q-92.3392 -71.0859 -93.0814 -70.1875 Q-93.8236 -69.2891 -93.8236 -67.5703 Z"/><path style="stroke:none;" d="M-95.8705 -63.2734 L-96.8705 -63.2734 L-96.8705 -67.3047 L-101.3861 -67.3047 L-101.3861 -63.2734 L-102.3861 -63.2734 L-102.3861 -71.8359 L-101.3861 -71.8359 L-101.3861 -68.1953 L-96.8705 -68.1953 L-96.8705 -71.8359 L-95.8705 -71.8359 L-95.8705 -63.2734 Z"/><path style="stroke:none;" d="M94.8705 -22.5703 Q94.8705 -20.5078 93.8314 -19.3281 Q92.7924 -18.1484 90.9486 -18.1484 Q89.058 -18.1484 88.0267 -19.3125 Q86.9955 -20.4766 86.9955 -22.5859 Q86.9955 -24.6797 88.0267 -25.8281 Q89.058 -26.9766 90.9486 -26.9766 Q92.808 -26.9766 93.8392 -25.8047 Q94.8705 -24.6328 94.8705 -22.5703 ZM88.0424 -22.5703 Q88.0424 -20.8359 88.7846 -19.9297 Q89.5267 -19.0234 90.9486 -19.0234 Q92.3705 -19.0234 93.0971 -19.9219 Q93.8236 -20.8203 93.8236 -22.5703 Q93.8236 -24.3047 93.0971 -25.1953 Q92.3705 -26.0859 90.9486 -26.0859 Q89.5267 -26.0859 88.7846 -25.1875 Q88.0424 -24.2891 88.0424 -22.5703 Z"/><path style="stroke:none;" d="M102.3861 -18.2734 L101.3861 -18.2734 L101.3861 -22.3047 L96.8705 -22.3047 L96.8705 -18.2734 L95.8705 -18.2734 L95.8705 -26.8359 L96.8705 -26.8359 L96.8705 -23.1953 L101.3861 -23.1953 L101.3861 -26.8359 L102.3861 -26.8359 L102.3861 -18.2734 Z"/></g></g></svg></svg></svg></svg>