<svg xmlns:ns0="http://www.w3.org/2000/svg" xmlns="http://www.w3.org/2000/svg"><g transform="translate(0, 0)"><ns0:svg width="436" viewBox="0 0 436 159" style="fill-opacity:1; color-rendering:auto; color-interpolation:auto; text-rendering:auto; stroke:black; stroke-linecap:square; stroke-miterlimit:10; shape-rendering:auto; stroke-opacity:1; fill:black; stroke-dasharray:none; font-weight:normal; stroke-width:1; font-family:'Open Sans'; font-style:normal; stroke-linejoin:miter; font-size:12; stroke-dashoffset:0; image-rendering:auto;" height="159" class="cas-substance-image"><ns0:svg class="cas-substance-single-component"><ns0:rect y="0" x="0" width="436" stroke="none" ry="7" rx="7" height="159" fill="white" class="cas-substance-group" /><ns0:svg y="0" x="0" width="436" viewBox="0 0 436 159" style="fill:black;" height="159" class="cas-substance-single-component-image"><ns0:svg><ns0:g><ns0:g transform="translate(222,83)" style="text-rendering:geometricPrecision; color-rendering:optimizeQuality; color-interpolation:linearRGB; stroke-linecap:butt; image-rendering:optimizeQuality;"><ns0:line y2="-4.173" y1="-16.377" x2="-40.365" x1="-12.957" style="fill:none;" /><ns0:line y2="-2.3538" y1="-16.377" x2="6.3434" x1="-12.957" style="fill:none;" /><ns0:line y2="-18.1962" y1="-4.173" x2="-59.6654" x1="-40.365" style="fill:none;" /><ns0:path style="stroke:none;" d="M-41.0494 -3.2406 L-41.2368 -2.255 L-39.911 -2.1141 L-39.911 -2.1141 L-39.8894 -3.1173 L-41.0494 -3.2406 ZM-41.6114 -0.2838 L-41.7988 0.7018 L-39.9759 0.8955 L-39.9542 -0.1077 L-41.6114 -0.2838 ZM-42.1735 2.673 L-42.3608 3.6586 L-40.0407 3.9051 L-40.0191 2.9019 L-42.1735 2.673 ZM-42.7355 5.6298 L-42.9228 6.6154 L-40.1056 6.9147 L-40.084 5.9115 L-40.084 5.9115 L-42.7355 5.6298 ZM-43.2975 8.5866 L-43.4849 9.5722 L-43.4849 9.5722 L-40.1705 9.9244 L-40.1488 8.9212 L-43.2975 8.5866 ZM-43.8595 11.5434 L-44.0469 12.529 L-44.0469 12.529 L-40.2353 12.934 L-40.2353 12.934 L-40.2137 11.9308 L-40.2137 11.9308 L-43.8595 11.5434 ZM-44.4216 14.5002 L-44.6089 15.4858 L-44.6089 15.4858 L-40.3002 15.9436 L-40.3002 15.9436 L-40.2786 14.9404 L-40.2786 14.9404 L-44.4216 14.5002 ZM-44.9836 17.457 L-45.1709 18.4426 L-45.1709 18.4426 L-40.3651 18.9532 L-40.3651 18.9532 L-40.3434 17.95 L-40.3434 17.95 L-44.9836 17.457 ZM-45.5456 20.4139 L-45.7329 21.3995 L-45.7329 21.3995 L-40.4299 21.9629 L-40.4299 21.9629 L-40.4083 20.9596 L-45.5456 20.4139 ZM-46.1076 23.3707 L-46.295 24.3563 L-40.4948 24.9725 L-40.4948 24.9725 L-40.4732 23.9693 L-46.1076 23.3707 Z" /><ns0:line y2="-9.606" y1="-19.5016" x2="-92.043" x1="-69.8137" style="fill:none;" /><ns0:line y2="13.5835" y1="-10.7938" x2="-96.2391" x1="-93.6778" style="fill:none;" /><ns0:line y2="13.9492" y1="-10.4278" x2="-92.7583" x1="-90.197" style="fill:none;" /><ns0:line y2="-27.24" y1="-9.606" x2="-116.313" x1="-92.043" style="fill:none;" /><ns0:line y2="42.24" y1="62.6244" x2="132.477" x1="144.2463" style="fill:none;" /><ns0:line y2="16.257" y1="16.257" x2="202.1254" x1="177.477" style="fill:none;" /><ns0:line y2="12.757" y1="12.757" x2="202.1254" x1="177.477" style="fill:none;" /><ns0:line y2="19.757" y1="19.757" x2="202.1254" x1="177.477" style="fill:none;" /><ns0:line y2="16.257" y1="16.257" x2="147.477" x1="177.477" style="fill:none;" /><ns0:line y2="-16.257" y1="-42.24" x2="-207.477" x1="-192.477" style="fill:none;" /><ns0:line y2="-62.5843" y1="-42.24" x2="-204.2231" x1="-192.477" style="fill:none;" /><ns0:line y2="-42.24" y1="-42.24" x2="-162.477" x1="-192.477" style="fill:none;" /><ns0:line y2="-2.2387" y1="16.257" x2="44.0384" x1="57.477" style="fill:none;" /><ns0:line y2="-0.1814" y1="16.6795" x2="41.2069" x1="53.4577" style="fill:none;" /><ns0:line y2="40.527" y1="16.257" x2="39.843" x1="57.477" style="fill:none;" /><ns0:line y2="16.257" y1="16.257" x2="87.477" x1="57.477" style="fill:none;" /><ns0:line y2="-0.45" y1="-6.306" x2="16.5667" x1="34.5893" style="fill:none;" /><ns0:line y2="31.257" y1="40.527" x2="11.313" x1="39.843" style="fill:none;" /><ns0:line y2="28.5527" y1="36.5739" x2="14.3164" x1="39.0027" style="fill:none;" /><ns0:line y2="31.257" y1="7.4132" x2="11.313" x1="11.313" style="fill:none;" /><ns0:line y2="42.24" y1="16.257" x2="102.477" x1="87.477" style="fill:none;" /><ns0:line y2="38.7401" y1="16.2572" x2="104.4978" x1="91.5184" style="fill:none;" /><ns0:line y2="-9.723" y1="16.257" x2="102.477" x1="87.477" style="fill:none;" /><ns0:line y2="42.24" y1="42.24" x2="132.477" x1="102.477" style="fill:none;" /><ns0:line y2="-9.723" y1="-9.723" x2="132.477" x1="102.477" style="fill:none;" /><ns0:line y2="-6.223" y1="-6.223" x2="130.4563" x1="104.4977" style="fill:none;" /><ns0:line y2="16.257" y1="42.24" x2="147.477" x1="132.477" style="fill:none;" /><ns0:line y2="16.2572" y1="38.7401" x2="143.4355" x1="130.4561" style="fill:none;" /><ns0:line y2="16.257" y1="-9.723" x2="147.477" x1="132.477" style="fill:none;" /><ns0:line y2="-17.967" y1="-27.24" x2="-144.843" x1="-116.313" style="fill:none;" /><ns0:line y2="-51.0837" y1="-27.24" x2="-116.313" x1="-116.313" style="fill:none;" /><ns0:line y2="-51.0837" y1="-29.2607" x2="-119.813" x1="-119.813" style="fill:none;" /><ns0:line y2="-42.24" y1="-17.967" x2="-162.477" x1="-144.843" style="fill:none;" /><ns0:line y2="-42.6623" y1="-21.659" x2="-158.4577" x1="-143.1991" style="fill:none;" /><ns0:line y2="-64.803" y1="-58.947" x2="-139.5893" x1="-121.5667" style="fill:none;" /><ns0:line y2="-60.7357" y1="-42.24" x2="-149.0384" x1="-162.477" style="fill:none;" /><ns0:path style="fill:none; stroke-miterlimit:5;" d="M-13.4138 -16.1736 L-12.957 -16.377 L-12.5525 -16.0831" /><ns0:path style="fill:none; stroke-miterlimit:5;" d="M-39.9082 -4.3764 L-40.365 -4.173 L-40.7695 -4.4669" /></ns0:g><ns0:g transform="translate(222,83)" style="stroke-linecap:butt; font-size:8.4px; fill:gray; text-rendering:geometricPrecision; image-rendering:optimizeQuality; color-rendering:optimizeQuality; font-family:'Open Sans'; font-style:italic; stroke:gray; color-interpolation:linearRGB; stroke-miterlimit:5;"><ns0:path style="stroke:none;" d="M-43.4283 -12.9151 Q-43.4283 -14.2432 -42.9596 -15.3682 Q-42.4908 -16.4932 -41.4596 -17.5714 L-40.8502 -17.5714 Q-41.8189 -16.5089 -42.3033 -15.337 Q-42.7877 -14.1651 -42.7877 -12.9307 Q-42.7877 -11.6026 -42.3502 -10.587 L-42.8658 -10.587 Q-43.4283 -11.6182 -43.4283 -12.9151 ZM-37.8057 -13.5089 Q-37.8057 -12.6807 -38.3526 -12.2276 Q-38.8995 -11.7745 -39.8995 -11.7745 Q-40.3057 -11.7745 -40.6182 -11.8292 Q-40.9307 -11.8839 -41.212 -12.0245 L-41.212 -12.6807 Q-40.587 -12.3526 -39.8839 -12.3526 Q-39.2589 -12.3526 -38.8839 -12.6495 Q-38.5089 -12.9464 -38.5089 -13.462 Q-38.5089 -13.7745 -38.712 -14.001 Q-38.9151 -14.2276 -39.4776 -14.5557 Q-40.0714 -14.8839 -40.2979 -15.212 Q-40.5245 -15.5401 -40.5245 -15.9932 Q-40.5245 -16.7276 -40.0089 -17.1885 Q-39.4932 -17.6495 -38.6495 -17.6495 Q-38.2745 -17.6495 -37.9386 -17.5714 Q-37.6026 -17.4932 -37.2276 -17.3214 L-37.4932 -16.7276 Q-37.7432 -16.8839 -38.0636 -16.9698 Q-38.3839 -17.0557 -38.6495 -17.0557 Q-39.1807 -17.0557 -39.5011 -16.7823 Q-39.8214 -16.5089 -39.8214 -16.0401 Q-39.8214 -15.837 -39.7511 -15.6885 Q-39.6807 -15.5401 -39.5401 -15.4073 Q-39.3995 -15.2745 -38.9776 -15.0245 Q-38.4151 -14.6807 -38.212 -14.4854 Q-38.0089 -14.2901 -37.9073 -14.0557 Q-37.8057 -13.8214 -37.8057 -13.5089 ZM-35.2113 -15.2276 Q-35.2113 -13.8995 -35.6878 -12.7667 Q-36.1644 -11.6339 -37.18 -10.587 L-37.7894 -10.587 Q-35.8519 -12.7432 -35.8519 -15.2276 Q-35.8519 -16.5557 -36.2894 -17.5714 L-35.7738 -17.5714 Q-35.2113 -16.5089 -35.2113 -15.2276 Z" /></ns0:g><ns0:g transform="translate(222,83)" style="stroke-linecap:butt; fill:rgb(0,5,255); text-rendering:geometricPrecision; color-rendering:optimizeQuality; image-rendering:optimizeQuality; font-family:'Open Sans'; stroke:rgb(0,5,255); color-interpolation:linearRGB; stroke-miterlimit:5;"><ns0:path style="stroke:none;" d="M-61.2834 -17.6507 L-62.4241 -17.6507 L-67.1116 -24.8382 L-67.1584 -24.8382 Q-67.0647 -23.5726 -67.0647 -22.5257 L-67.0647 -17.6507 L-67.9866 -17.6507 L-67.9866 -26.2132 L-66.8616 -26.2132 L-62.1897 -19.057 L-62.1428 -19.057 Q-62.1428 -19.2132 -62.1897 -20.0726 Q-62.2366 -20.932 -62.2209 -21.307 L-62.2209 -26.2132 L-61.2834 -26.2132 L-61.2834 -17.6507 Z" /><ns0:path style="stroke:none;" d="M-61.3772 -27.2132 L-62.3772 -27.2132 L-62.3772 -31.2445 L-66.8928 -31.2445 L-66.8928 -27.2132 L-67.8928 -27.2132 L-67.8928 -35.7757 L-66.8928 -35.7757 L-66.8928 -32.1351 L-62.3772 -32.1351 L-62.3772 -35.7757 L-61.3772 -35.7757 L-61.3772 -27.2132 Z" /><ns0:path style="fill:none; stroke:black;" d="M-91.5862 -9.8093 L-92.043 -9.606 L-92.4475 -9.8999" /><ns0:path style="fill:rgb(230,0,0); stroke:none;" d="M-91.2405 20.1617 Q-91.2405 22.2242 -92.2796 23.4039 Q-93.3186 24.5836 -95.1624 24.5836 Q-97.053 24.5836 -98.0843 23.4195 Q-99.1155 22.2554 -99.1155 20.1461 Q-99.1155 18.0523 -98.0843 16.9039 Q-97.053 15.7554 -95.1624 15.7554 Q-93.303 15.7554 -92.2718 16.9273 Q-91.2405 18.0992 -91.2405 20.1617 ZM-98.0686 20.1617 Q-98.0686 21.8961 -97.3264 22.8023 Q-96.5843 23.7086 -95.1624 23.7086 Q-93.7405 23.7086 -93.0139 22.8101 Q-92.2874 21.9117 -92.2874 20.1617 Q-92.2874 18.4273 -93.0139 17.5367 Q-93.7405 16.6461 -95.1624 16.6461 Q-96.5843 16.6461 -97.3264 17.5445 Q-98.0686 18.4429 -98.0686 20.1617 Z" /><ns0:path style="fill:rgb(0,138,0); stroke:none;" d="M147.1684 64.8606 Q145.7622 64.8606 144.9418 65.7981 Q144.1215 66.7356 144.1215 68.3763 Q144.1215 70.0481 144.9106 70.97 Q145.6997 71.8919 147.1528 71.8919 Q148.059 71.8919 149.1997 71.5638 L149.1997 72.4388 Q148.309 72.7825 147.0122 72.7825 Q145.1215 72.7825 144.0903 71.6263 Q143.059 70.47 143.059 68.3606 Q143.059 67.0325 143.5512 66.0403 Q144.0434 65.0481 144.9809 64.5091 Q145.9184 63.97 147.184 63.97 Q148.5278 63.97 149.5434 64.4544 L149.1215 65.3138 Q148.1372 64.8606 147.1684 64.8606 ZM151.895 72.6575 L150.9262 72.6575 L150.9262 63.5325 L151.895 63.5325 L151.895 72.6575 Z" /><ns0:path style="stroke:none;" d="M210.8286 20.4132 L209.6879 20.4132 L205.0004 13.2257 L204.9536 13.2257 Q205.0473 14.4914 205.0473 15.5382 L205.0473 20.4132 L204.1254 20.4132 L204.1254 11.8507 L205.2504 11.8507 L209.9223 19.007 L209.9692 19.007 Q209.9692 18.8507 209.9223 17.9914 Q209.8754 17.132 209.8911 16.757 L209.8911 11.8507 L210.8286 11.8507 L210.8286 20.4132 Z" /><ns0:path style="fill:rgb(230,0,0); stroke:none;" d="M-203.5395 -68.2903 Q-203.5395 -66.2278 -204.5786 -65.0481 Q-205.6176 -63.8684 -207.4614 -63.8684 Q-209.352 -63.8684 -210.3833 -65.0325 Q-211.4145 -66.1966 -211.4145 -68.3059 Q-211.4145 -70.3997 -210.3833 -71.5481 Q-209.352 -72.6966 -207.4614 -72.6966 Q-205.602 -72.6966 -204.5708 -71.5247 Q-203.5395 -70.3528 -203.5395 -68.2903 ZM-210.3676 -68.2903 Q-210.3676 -66.5559 -209.6254 -65.6497 Q-208.8833 -64.7434 -207.4614 -64.7434 Q-206.0395 -64.7434 -205.3129 -65.6419 Q-204.5864 -66.5403 -204.5864 -68.2903 Q-204.5864 -70.0247 -205.3129 -70.9153 Q-206.0395 -71.8059 -207.4614 -71.8059 Q-208.8833 -71.8059 -209.6254 -70.9075 Q-210.3676 -70.0091 -210.3676 -68.2903 Z" /><ns0:path style="fill:rgb(230,0,0); stroke:none;" d="M-212.4145 -63.9934 L-213.4145 -63.9934 L-213.4145 -68.0247 L-217.9301 -68.0247 L-217.9301 -63.9934 L-218.9301 -63.9934 L-218.9301 -72.5559 L-217.9301 -72.5559 L-217.9301 -68.9153 L-213.4145 -68.9153 L-213.4145 -72.5559 L-212.4145 -72.5559 L-212.4145 -63.9934 Z" /><ns0:path style="fill:none; stroke:black;" d="M57.1831 15.8525 L57.477 16.257 L57.1831 16.6615" /><ns0:path style="stroke:none;" d="M43.1946 -3.8568 L42.0539 -3.8568 L37.3664 -11.0443 L37.3196 -11.0443 Q37.4133 -9.7786 37.4133 -8.7318 L37.4133 -3.8568 L36.4914 -3.8568 L36.4914 -12.4193 L37.6164 -12.4193 L42.2883 -5.263 L42.3352 -5.263 Q42.3352 -5.4193 42.2883 -6.2786 Q42.2414 -7.138 42.2571 -7.513 L42.2571 -12.4193 L43.1946 -12.4193 L43.1946 -3.8568 Z" /><ns0:path style="fill:none; stroke:black;" d="M40.1369 40.1225 L39.843 40.527 L39.3675 40.3725" /><ns0:path style="stroke:none;" d="M14.6646 5.4132 L13.5239 5.4132 L8.8364 -1.7743 L8.7896 -1.7743 Q8.8833 -0.5086 8.8833 0.5382 L8.8833 5.4132 L7.9614 5.4132 L7.9614 -3.1493 L9.0864 -3.1493 L13.7583 4.007 L13.8052 4.007 Q13.8052 3.8507 13.7583 2.9914 Q13.7114 2.132 13.7271 1.757 L13.7271 -3.1493 L14.6646 -3.1493 L14.6646 5.4132 Z" /><ns0:path style="fill:none; stroke:black;" d="M11.7885 31.4115 L11.313 31.257 L11.313 30.757" /><ns0:path style="fill:none; stroke:black;" d="M87.727 16.69 L87.477 16.257 L86.977 16.257" /><ns0:path style="fill:none; stroke:black;" d="M102.227 41.807 L102.477 42.24 L102.977 42.24" /><ns0:path style="fill:none; stroke:black;" d="M102.227 -9.29 L102.477 -9.723 L102.977 -9.723" /><ns0:path style="fill:none; stroke:black;" d="M132.727 41.807 L132.477 42.24 L132.727 42.673" /><ns0:path style="fill:none; stroke:black;" d="M131.977 -9.723 L132.477 -9.723 L132.727 -9.29" /><ns0:path style="fill:none; stroke:black;" d="M147.227 16.69 L147.477 16.257 L147.977 16.257" /><ns0:path style="fill:none; stroke:black;" d="M-116.313 -27.74 L-116.313 -27.24 L-115.9085 -26.9461" /><ns0:path style="fill:none; stroke:black;" d="M-144.3675 -18.1216 L-144.843 -17.967 L-145.1369 -18.3715" /><ns0:path style="stroke:none;" d="M-112.9614 -53.0837 L-114.1021 -53.0837 L-118.7896 -60.2712 L-118.8364 -60.2712 Q-118.7427 -59.0056 -118.7427 -57.9587 L-118.7427 -53.0837 L-119.6646 -53.0837 L-119.6646 -61.6462 L-118.5396 -61.6462 L-113.8677 -54.49 L-113.8208 -54.49 Q-113.8208 -54.6462 -113.8677 -55.5056 Q-113.9146 -56.365 -113.8989 -56.74 L-113.8989 -61.6462 L-112.9614 -61.6462 L-112.9614 -53.0837 Z" /><ns0:path style="fill:none; stroke:black;" d="M-162.1831 -41.8355 L-162.477 -42.24 L-162.977 -42.24" /><ns0:path style="stroke:none;" d="M-141.4914 -62.3538 L-142.6321 -62.3538 L-147.3196 -69.5413 L-147.3664 -69.5413 Q-147.2727 -68.2756 -147.2727 -67.2288 L-147.2727 -62.3538 L-148.1946 -62.3538 L-148.1946 -70.9163 L-147.0696 -70.9163 L-142.3977 -63.76 L-142.3508 -63.76 Q-142.3508 -63.9163 -142.3977 -64.7756 Q-142.4446 -65.635 -142.4289 -66.01 L-142.4289 -70.9163 L-141.4914 -70.9163 L-141.4914 -62.3538 Z" /><ns0:path style="stroke:none;" d="M-141.5852 -71.9163 L-142.5852 -71.9163 L-142.5852 -75.9475 L-147.1008 -75.9475 L-147.1008 -71.9163 L-148.1008 -71.9163 L-148.1008 -80.4788 L-147.1008 -80.4788 L-147.1008 -76.8381 L-142.5852 -76.8381 L-142.5852 -80.4788 L-141.5852 -80.4788 L-141.5852 -71.9163 Z" /></ns0:g></ns0:g></ns0:svg></ns0:svg></ns0:svg></ns0:svg></g></svg>