<svg xmlns:ns0="http://www.w3.org/2000/svg" xmlns="http://www.w3.org/2000/svg"><g transform="translate(0, 0)"><ns0:svg width="297" viewBox="0 0 297 193" style="fill-opacity:1; color-rendering:auto; color-interpolation:auto; text-rendering:auto; stroke:black; stroke-linecap:square; stroke-miterlimit:10; shape-rendering:auto; stroke-opacity:1; fill:black; stroke-dasharray:none; font-weight:normal; stroke-width:1; font-family:'Open Sans'; font-style:normal; stroke-linejoin:miter; font-size:12; stroke-dashoffset:0; image-rendering:auto;" height="193" class="cas-substance-image"><ns0:svg class="cas-substance-single-component"><ns0:rect y="0" x="0" width="297" stroke="none" ry="7" rx="7" height="193" fill="white" class="cas-substance-group" /><ns0:svg y="0" x="0" width="297" viewBox="0 0 297 193" style="fill:black;" height="193" class="cas-substance-single-component-image"><ns0:svg><ns0:g><ns0:g transform="translate(149,98)" style="text-rendering:geometricPrecision; color-rendering:optimizeQuality; color-interpolation:linearRGB; stroke-linecap:butt; image-rendering:optimizeQuality;"><ns0:line y2="59.2311" y1="38.97" x2="-18.4587" x1="-6.762" style="fill:none;" /><ns0:line y2="40.72" y1="40.72" x2="17.3005" x1="-7.7723" style="fill:none;" /><ns0:line y2="37.22" y1="37.22" x2="17.3005" x1="-6.762" style="fill:none;" /><ns0:path style="stroke:none;" d="M-20.7522 13.562 L-21.7634 14.1451 L-21.7634 14.1451 L-21.3315 15.0508 L-21.3315 15.0508 L-20.1754 14.3841 L-20.1754 14.3841 L-20.7522 13.562 ZM-19.0218 16.0283 L-20.4677 16.8621 L-20.4677 16.8621 L-20.0358 17.7677 L-20.0358 17.7677 L-18.445 16.8504 L-18.445 16.8504 L-19.0218 16.0283 ZM-17.2914 18.4945 L-19.172 19.579 L-19.172 19.579 L-18.7401 20.4847 L-16.7146 19.3166 L-16.7146 19.3166 L-17.2914 18.4945 ZM-15.561 20.9608 L-17.8763 22.296 L-17.4444 23.2016 L-14.9842 21.7829 L-14.9842 21.7829 L-15.561 20.9608 ZM-13.8306 23.427 L-16.5807 25.0129 L-16.1488 25.9186 L-13.2538 24.2491 L-13.2538 24.2491 L-13.8306 23.427 ZM-12.1002 25.8933 L-15.285 27.7299 L-14.8531 28.6355 L-11.5234 26.7154 L-11.5234 26.7154 L-12.1002 25.8933 ZM-10.3697 28.3595 L-13.9893 30.4468 L-13.5574 31.3525 L-13.5574 31.3525 L-9.7929 29.1816 L-9.7929 29.1816 L-10.3697 28.3595 ZM-8.6393 30.8258 L-12.6936 33.1638 L-12.6936 33.1638 L-12.2617 34.0694 L-12.2617 34.0694 L-8.0625 31.6479 L-8.0625 31.6479 L-8.6393 30.8258 ZM-6.9089 33.292 L-11.3979 35.8807 L-11.3979 35.8807 L-10.966 36.7864 L-10.966 36.7864 L-6.3321 34.1141 L-6.3321 34.1141 L-6.9089 33.292 ZM-5.1785 35.7583 L-10.1022 38.5977 L-9.6704 39.5033 L-5.7721 37.2553 L-5.7721 37.2553 L-5.03 35.9699 L-5.03 35.9699 L-5.03 35.9699 L-5.1785 35.7583 Z" /><ns0:line y2="90.933" y1="70.5887" x2="-6.762" x1="-18.5081" style="fill:none;" /><ns0:path style="stroke:none;" d="M38.7288 -38.8746 L37.7472 -39.0654 L41.0171 -68.9934 L46.9069 -67.8486 Z" /><ns0:path style="stroke:none;" d="M-51.2639 -38.9265 L-52.2601 -39.0135 L-52.1376 -69.1173 L-46.1604 -68.5947 Z" /><ns0:path style="stroke:none;" d="M-15.608 -86.1166 L-20.6695 -83.1978 L-20.6695 -83.1978 L-20.0771 -82.3847 L-20.0771 -82.3847 L-15.2001 -85.1972 L-15.2001 -85.1972 L-15.608 -86.1166 ZM-14.3842 -83.3582 L-18.8923 -80.7585 L-18.8923 -80.7585 L-18.2999 -79.9454 L-18.2999 -79.9454 L-13.9762 -82.4388 L-13.9762 -82.4388 L-14.3842 -83.3582 ZM-13.1603 -80.5999 L-17.1152 -78.3192 L-17.1152 -78.3192 L-16.5228 -77.5061 L-16.5228 -77.5061 L-12.7524 -79.6804 L-12.7524 -79.6804 L-13.1603 -80.5999 ZM-11.9365 -77.8415 L-15.338 -75.88 L-15.338 -75.88 L-14.7456 -75.0668 L-14.7456 -75.0668 L-11.5285 -76.922 L-11.5285 -76.922 L-11.9365 -77.8415 ZM-10.7127 -75.0831 L-13.5609 -73.4407 L-12.9685 -72.6276 L-12.9685 -72.6276 L-10.3047 -74.1637 L-10.3047 -74.1637 L-10.7127 -75.0831 ZM-9.4888 -72.3247 L-11.7837 -71.0014 L-11.7837 -71.0014 L-11.1913 -70.1883 L-11.1913 -70.1883 L-9.0809 -71.4053 L-9.0809 -71.4053 L-9.4888 -72.3247 ZM-8.265 -69.5664 L-10.0065 -68.5621 L-10.0065 -68.5621 L-9.4142 -67.749 L-9.4142 -67.749 L-7.857 -68.6469 L-7.857 -68.6469 L-8.265 -69.5664 ZM-7.0411 -66.808 L-8.2294 -66.1228 L-8.2294 -66.1228 L-7.637 -65.3097 L-7.637 -65.3097 L-6.6332 -65.8885 L-6.6332 -65.8885 L-7.0411 -66.808 Z" /><ns0:line y2="-54.0834" y1="-56.7311" x2="110.4798" x1="135.6524" style="fill:none;" /><ns0:line y2="-50.6026" y1="-53.2503" x2="110.8454" x1="136.0185" style="fill:none;" /><ns0:line y2="-37.22" y1="-37.22" x2="-110.7516" x1="-135.8245" style="fill:none;" /><ns0:line y2="-40.72" y1="-40.72" x2="-110.7517" x1="-135.8245" style="fill:none;" /><ns0:line y2="-12.99" y1="-12.99" x2="23.238" x1="-6.762" style="fill:none;" /><ns0:line y2="-38.97" y1="-12.99" x2="-21.762" x1="-6.762" style="fill:none;" /><ns0:line y2="12.99" y1="-12.99" x2="-21.762" x1="-6.762" style="fill:none;" /><ns0:line y2="-38.97" y1="-12.99" x2="38.238" x1="23.238" style="fill:none;" /><ns0:line y2="9.303" y1="-12.99" x2="43.311" x1="23.238" style="fill:none;" /><ns0:line y2="-38.97" y1="-38.97" x2="-51.762" x1="-21.762" style="fill:none;" /><ns0:line y2="-64.953" y1="-38.97" x2="-6.762" x1="-21.762" style="fill:none;" /><ns0:line y2="12.99" y1="12.99" x2="-51.762" x1="-21.762" style="fill:none;" /><ns0:line y2="-32.733" y1="-38.97" x2="67.581" x1="38.238" style="fill:none;" /><ns0:line y2="-64.953" y1="-38.97" x2="23.238" x1="38.238" style="fill:none;" /><ns0:line y2="-2.898" y1="9.303" x2="70.719" x1="43.311" style="fill:none;" /><ns0:line y2="-12.99" y1="-38.97" x2="-66.762" x1="-51.762" style="fill:none;" /><ns0:line y2="-64.953" y1="-38.97" x2="-66.762" x1="-51.762" style="fill:none;" /><ns0:line y2="-64.953" y1="-64.953" x2="23.238" x1="-6.762" style="fill:none;" /><ns0:line y2="-12.99" y1="12.99" x2="-66.762" x1="-51.762" style="fill:none;" /><ns0:path style="stroke:none;" d="M68.2683 -31.8007 L67.1081 -31.6775 L67.1081 -31.6775 L67.1324 -30.6745 L67.1324 -30.6745 L68.4586 -30.8154 L68.4586 -30.8154 L68.2683 -31.8007 ZM68.839 -28.8448 L67.1811 -28.6687 L67.1811 -28.6687 L67.2054 -27.6657 L67.2054 -27.6657 L69.0292 -27.8595 L69.0292 -27.8595 L68.839 -28.8448 ZM69.4097 -25.8889 L67.2541 -25.6599 L67.2784 -24.6569 L67.2784 -24.6569 L69.5999 -24.9036 L69.5999 -24.9036 L69.4097 -25.8889 ZM69.9803 -22.933 L67.3271 -22.6511 L67.3271 -22.6511 L67.3514 -21.6481 L67.3514 -21.6481 L70.1706 -21.9477 L70.1706 -21.9477 L69.9803 -22.933 ZM70.551 -19.9771 L67.4 -19.6423 L67.4 -19.6423 L67.4244 -18.6394 L70.7412 -18.9917 L70.7412 -18.9917 L70.551 -19.9771 ZM71.1217 -17.0211 L67.473 -16.6335 L67.4974 -15.6306 L67.4974 -15.6306 L71.3119 -16.0358 L71.3119 -16.0358 L71.1217 -17.0211 ZM71.6923 -14.0652 L67.546 -13.6247 L67.546 -13.6247 L67.5704 -12.6218 L67.5704 -12.6218 L71.8826 -13.0799 L71.6923 -14.0652 ZM72.263 -11.1093 L67.619 -10.6159 L67.6433 -9.613 L72.4532 -10.124 L72.263 -11.1093 ZM72.8337 -8.1534 L67.692 -7.6071 L67.692 -7.6071 L67.7163 -6.6042 L73.0239 -7.1681 L73.0239 -7.1681 L72.8337 -8.1534 ZM73.4044 -5.1975 L67.765 -4.5983 L67.7893 -3.5954 L67.7893 -3.5954 L73.5946 -4.2122 L73.5946 -4.2122 L73.4044 -5.1975 Z" /><ns0:line y2="-62.568" y1="-32.733" x2="64.446" x1="67.581" style="fill:none;" /><ns0:line y2="-27.7486" y1="-32.733" x2="91.0332" x1="67.581" style="fill:none;" /><ns0:line y2="-12.99" y1="-12.99" x2="-96.762" x1="-66.762" style="fill:none;" /><ns0:line y2="-16.49" y1="-16.49" x2="-94.7413" x1="-68.7827" style="fill:none;" /><ns0:line y2="-64.953" y1="-64.953" x2="-96.762" x1="-66.762" style="fill:none;" /><ns0:line y2="-74.772" y1="-62.568" x2="91.854" x1="64.446" style="fill:none;" /><ns0:line y2="-52.476" y1="-32.2177" x2="111.927" x1="100.2305" style="fill:none;" /><ns0:line y2="-38.97" y1="-12.99" x2="-111.762" x1="-96.762" style="fill:none;" /><ns0:line y2="-38.97" y1="-64.953" x2="-111.762" x1="-96.762" style="fill:none;" /><ns0:line y2="-52.476" y1="-74.772" x2="111.927" x1="91.854" style="fill:none;" /><ns0:path style="stroke:none;" d="M-7.245 -12.8606 L-6.279 -13.1194 L2.2016 8.8725 L-3.594 10.4253 Z" /><ns0:path style="stroke:none;" d="M22.543 -12.3205 L22.2816 -11.3493 L22.2816 -11.3493 L23.6407 -11.1349 L23.6407 -11.1349 L23.6922 -12.1392 L22.543 -12.3205 ZM21.759 -9.4068 L21.4976 -8.4356 L21.4976 -8.4356 L23.4862 -8.1219 L23.4862 -8.1219 L23.5377 -9.1262 L23.5377 -9.1262 L21.759 -9.4068 ZM20.9749 -6.4931 L20.7136 -5.5219 L20.7136 -5.5219 L23.3317 -5.1089 L23.3832 -6.1132 L23.3832 -6.1132 L20.9749 -6.4931 ZM20.1909 -3.5795 L19.9296 -2.6082 L23.1772 -2.0959 L23.2287 -3.1002 L20.1909 -3.5795 ZM19.4069 -0.6658 L19.1456 0.3055 L19.1456 0.3055 L23.0227 0.9171 L23.0742 -0.0872 L19.4069 -0.6658 ZM18.6229 2.2479 L18.3616 3.2192 L22.8682 3.9301 L22.9197 2.9258 L18.6229 2.2479 ZM17.8389 5.1616 L17.5775 6.1329 L22.7137 6.9431 L22.7652 5.9388 L22.7652 5.9388 L17.8389 5.1616 ZM17.0549 8.0753 L16.7935 9.0466 L16.7935 9.0466 L22.5592 9.9561 L22.5592 9.9561 L22.6107 8.9518 L17.0549 8.0753 Z" /><ns0:path style="stroke:none;" d="M-20.8671 -62.0501 L-26.653 -61.5429 L-26.653 -61.5429 L-26.4613 -60.5559 L-26.4613 -60.5559 L-20.8844 -61.0448 L-20.8844 -61.0448 L-20.8671 -62.0501 ZM-20.919 -59.0341 L-26.0779 -58.5819 L-26.0779 -58.5819 L-25.8862 -57.5949 L-20.9363 -58.0288 L-20.9363 -58.0288 L-20.919 -59.0341 ZM-20.971 -56.0181 L-25.5027 -55.6208 L-25.5027 -55.6208 L-25.311 -54.6338 L-25.311 -54.6338 L-20.9883 -55.0127 L-20.9883 -55.0127 L-20.971 -56.0181 ZM-21.0229 -53.0021 L-24.9276 -52.6598 L-24.9276 -52.6598 L-24.7359 -51.6728 L-24.7359 -51.6728 L-21.0402 -51.9967 L-21.0402 -51.9967 L-21.0229 -53.0021 ZM-21.0749 -49.986 L-24.3524 -49.6987 L-24.3524 -49.6987 L-24.1607 -48.7117 L-24.1607 -48.7117 L-21.0922 -48.9807 L-21.0749 -49.986 ZM-21.1268 -46.97 L-23.7773 -46.7377 L-23.7773 -46.7377 L-23.5856 -45.7506 L-23.5856 -45.7506 L-21.1442 -45.9647 L-21.1442 -45.9647 L-21.1268 -46.97 ZM-21.1788 -43.954 L-23.2022 -43.7766 L-23.2022 -43.7766 L-23.0105 -42.7896 L-23.0105 -42.7896 L-21.1961 -42.9486 L-21.1961 -42.9486 L-21.1788 -43.954 ZM-21.2308 -40.938 L-22.627 -40.8156 L-22.627 -40.8156 L-22.4353 -39.8285 L-22.4353 -39.8285 L-21.2481 -39.9326 L-21.2481 -39.9326 L-21.2308 -40.938 Z" /></ns0:g><ns0:g transform="translate(149,98)" style="fill:rgb(230,0,0); text-rendering:geometricPrecision; color-rendering:optimizeQuality; image-rendering:optimizeQuality; font-family:'Open Sans'; stroke:rgb(230,0,0); color-interpolation:linearRGB;"><ns0:path style="stroke:none;" d="M-17.8245 64.8827 Q-17.8245 66.9452 -18.8636 68.1249 Q-19.9026 69.3046 -21.7464 69.3046 Q-23.637 69.3046 -24.6682 68.1405 Q-25.6995 66.9764 -25.6995 64.8671 Q-25.6995 62.7733 -24.6682 61.6249 Q-23.637 60.4764 -21.7464 60.4764 Q-19.887 60.4764 -18.8557 61.6483 Q-17.8245 62.8202 -17.8245 64.8827 ZM-24.6526 64.8827 Q-24.6526 66.6171 -23.9104 67.5233 Q-23.1682 68.4296 -21.7464 68.4296 Q-20.3245 68.4296 -19.5979 67.5311 Q-18.8714 66.6327 -18.8714 64.8827 Q-18.8714 63.1483 -19.5979 62.2577 Q-20.3245 61.3671 -21.7464 61.3671 Q-23.1682 61.3671 -23.9104 62.2655 Q-24.6526 63.1639 -24.6526 64.8827 Z" /><ns0:path style="stroke:none;" d="M27.1755 38.8997 Q27.1755 40.9622 26.1364 42.1419 Q25.0974 43.3216 23.2536 43.3216 Q21.363 43.3216 20.3318 42.1575 Q19.3005 40.9934 19.3005 38.8841 Q19.3005 36.7903 20.3318 35.6419 Q21.363 34.4934 23.2536 34.4934 Q25.113 34.4934 26.1443 35.6653 Q27.1755 36.8372 27.1755 38.8997 ZM20.3474 38.8997 Q20.3474 40.6341 21.0896 41.5403 Q21.8318 42.4466 23.2536 42.4466 Q24.6755 42.4466 25.4021 41.5481 Q26.1286 40.6497 26.1286 38.8997 Q26.1286 37.1653 25.4021 36.2747 Q24.6755 35.3841 23.2536 35.3841 Q21.8318 35.3841 21.0896 36.2825 Q20.3474 37.1809 20.3474 38.8997 Z" /><ns0:path style="stroke:none;" d="M-17.8245 -91.0033 Q-17.8245 -88.9408 -18.8636 -87.7611 Q-19.9026 -86.5814 -21.7464 -86.5814 Q-23.637 -86.5814 -24.6682 -87.7455 Q-25.6995 -88.9096 -25.6995 -91.0189 Q-25.6995 -93.1127 -24.6682 -94.2611 Q-23.637 -95.4096 -21.7464 -95.4096 Q-19.887 -95.4096 -18.8557 -94.2377 Q-17.8245 -93.0658 -17.8245 -91.0033 ZM-24.6526 -91.0033 Q-24.6526 -89.2689 -23.9104 -88.3627 Q-23.1682 -87.4564 -21.7464 -87.4564 Q-20.3245 -87.4564 -19.5979 -88.3549 Q-18.8714 -89.2533 -18.8714 -91.0033 Q-18.8714 -92.7377 -19.5979 -93.6283 Q-20.3245 -94.5189 -21.7464 -94.5189 Q-23.1682 -94.5189 -23.9104 -93.6205 Q-24.6526 -92.7221 -24.6526 -91.0033 Z" /><ns0:path style="stroke:none;" d="M-26.6995 -86.7064 L-27.6995 -86.7064 L-27.6995 -90.7377 L-32.2151 -90.7377 L-32.2151 -86.7064 L-33.2151 -86.7064 L-33.2151 -95.2689 L-32.2151 -95.2689 L-32.2151 -91.6283 L-27.6995 -91.6283 L-27.6995 -95.2689 L-26.6995 -95.2689 L-26.6995 -86.7064 Z" /><ns0:path style="stroke:none;" d="M145.6995 -55.6843 Q145.6995 -53.6218 144.6604 -52.4421 Q143.6214 -51.2624 141.7776 -51.2624 Q139.887 -51.2624 138.8557 -52.4265 Q137.8245 -53.5906 137.8245 -55.6999 Q137.8245 -57.7937 138.8557 -58.9421 Q139.887 -60.0906 141.7776 -60.0906 Q143.637 -60.0906 144.6682 -58.9187 Q145.6995 -57.7468 145.6995 -55.6843 ZM138.8714 -55.6843 Q138.8714 -53.9499 139.6136 -53.0437 Q140.3557 -52.1374 141.7776 -52.1374 Q143.1995 -52.1374 143.9261 -53.0359 Q144.6526 -53.9343 144.6526 -55.6843 Q144.6526 -57.4187 143.9261 -58.3093 Q143.1995 -59.1999 141.7776 -59.1999 Q140.3557 -59.1999 139.6136 -58.3015 Q138.8714 -57.4031 138.8714 -55.6843 Z" /><ns0:path style="stroke:none;" d="M-137.8245 -39.0403 Q-137.8245 -36.9778 -138.8636 -35.7981 Q-139.9026 -34.6184 -141.7464 -34.6184 Q-143.637 -34.6184 -144.6682 -35.7825 Q-145.6995 -36.9466 -145.6995 -39.0559 Q-145.6995 -41.1497 -144.6682 -42.2981 Q-143.637 -43.4466 -141.7464 -43.4466 Q-139.887 -43.4466 -138.8557 -42.2747 Q-137.8245 -41.1028 -137.8245 -39.0403 ZM-144.6526 -39.0403 Q-144.6526 -37.3059 -143.9104 -36.3997 Q-143.1682 -35.4934 -141.7464 -35.4934 Q-140.3245 -35.4934 -139.5979 -36.3919 Q-138.8714 -37.2903 -138.8714 -39.0403 Q-138.8714 -40.7747 -139.5979 -41.6653 Q-140.3245 -42.5559 -141.7464 -42.5559 Q-143.1682 -42.5559 -143.9104 -41.6575 Q-144.6526 -40.7591 -144.6526 -39.0403 Z" /></ns0:g><ns0:g transform="translate(149,98)" style="font-size:8.4px; fill:gray; text-rendering:geometricPrecision; image-rendering:optimizeQuality; color-rendering:optimizeQuality; font-family:'Open Sans'; font-style:italic; stroke:gray; color-interpolation:linearRGB;"><ns0:path style="stroke:none;" d="M-20.8705 -11.7869 Q-20.8705 -13.115 -20.4018 -14.24 Q-19.933 -15.365 -18.9018 -16.4431 L-18.2924 -16.4431 Q-19.2611 -15.3806 -19.7455 -14.2087 Q-20.2299 -13.0369 -20.2299 -11.8025 Q-20.2299 -10.4744 -19.7924 -9.4587 L-20.308 -9.4587 Q-20.8705 -10.49 -20.8705 -11.7869 ZM-15.248 -12.3806 Q-15.248 -11.5525 -15.7948 -11.0994 Q-16.3417 -10.6462 -17.3417 -10.6462 Q-17.748 -10.6462 -18.0605 -10.7009 Q-18.373 -10.7556 -18.6542 -10.8962 L-18.6542 -11.5525 Q-18.0292 -11.2244 -17.3261 -11.2244 Q-16.7011 -11.2244 -16.3261 -11.5212 Q-15.9511 -11.8181 -15.9511 -12.3337 Q-15.9511 -12.6462 -16.1542 -12.8728 Q-16.3573 -13.0994 -16.9198 -13.4275 Q-17.5136 -13.7556 -17.7402 -14.0837 Q-17.9667 -14.4119 -17.9667 -14.865 Q-17.9667 -15.5994 -17.4511 -16.0603 Q-16.9355 -16.5212 -16.0917 -16.5212 Q-15.7167 -16.5212 -15.3808 -16.4431 Q-15.0448 -16.365 -14.6698 -16.1931 L-14.9355 -15.5994 Q-15.1855 -15.7556 -15.5058 -15.8416 Q-15.8261 -15.9275 -16.0917 -15.9275 Q-16.623 -15.9275 -16.9433 -15.6541 Q-17.2636 -15.3806 -17.2636 -14.9119 Q-17.2636 -14.7087 -17.1933 -14.5603 Q-17.123 -14.4119 -16.9823 -14.2791 Q-16.8417 -14.1462 -16.4198 -13.8962 Q-15.8573 -13.5525 -15.6542 -13.3572 Q-15.4511 -13.1619 -15.3495 -12.9275 Q-15.248 -12.6931 -15.248 -12.3806 ZM-12.6535 -14.0994 Q-12.6535 -12.7712 -13.13 -11.6384 Q-13.6066 -10.5056 -14.6222 -9.4587 L-15.2316 -9.4587 Q-13.2941 -11.615 -13.2941 -14.0994 Q-13.2941 -15.4275 -13.7316 -16.4431 L-13.216 -16.4431 Q-12.6535 -15.3806 -12.6535 -14.0994 Z" /><ns0:path style="stroke:none;" d="M14.1295 -20.4472 Q14.1295 -21.7753 14.5983 -22.9003 Q15.067 -24.0253 16.0983 -25.1034 L16.7077 -25.1034 Q15.7389 -24.0409 15.2545 -22.869 Q14.7702 -21.6972 14.7702 -20.4628 Q14.7702 -19.1347 15.2077 -18.119 L14.692 -18.119 Q14.1295 -19.1503 14.1295 -20.4472 ZM19.7521 -21.0409 Q19.7521 -20.2128 19.2052 -19.7597 Q18.6583 -19.3065 17.6583 -19.3065 Q17.2521 -19.3065 16.9396 -19.3612 Q16.6271 -19.4159 16.3458 -19.5565 L16.3458 -20.2128 Q16.9708 -19.8847 17.674 -19.8847 Q18.299 -19.8847 18.674 -20.1815 Q19.049 -20.4784 19.049 -20.994 Q19.049 -21.3065 18.8458 -21.5331 Q18.6427 -21.7597 18.0802 -22.0878 Q17.4865 -22.4159 17.2599 -22.744 Q17.0333 -23.0722 17.0333 -23.5253 Q17.0333 -24.2597 17.549 -24.7206 Q18.0646 -25.1815 18.9083 -25.1815 Q19.2833 -25.1815 19.6193 -25.1034 Q19.9552 -25.0253 20.3302 -24.8534 L20.0646 -24.2597 Q19.8146 -24.4159 19.4943 -24.5018 Q19.174 -24.5878 18.9083 -24.5878 Q18.3771 -24.5878 18.0568 -24.3143 Q17.7365 -24.0409 17.7365 -23.5722 Q17.7365 -23.369 17.8068 -23.2206 Q17.8771 -23.0722 18.0177 -22.9393 Q18.1583 -22.8065 18.5802 -22.5565 Q19.1427 -22.2128 19.3458 -22.0175 Q19.549 -21.8222 19.6505 -21.5878 Q19.7521 -21.3534 19.7521 -21.0409 ZM22.3466 -22.7597 Q22.3466 -21.4315 21.87 -20.2987 Q21.3935 -19.1659 20.3778 -18.119 L19.7685 -18.119 Q21.706 -20.2753 21.706 -22.7597 Q21.706 -24.0878 21.2685 -25.1034 L21.7841 -25.1034 Q22.3466 -24.0409 22.3466 -22.7597 Z" /><ns0:path style="stroke:none;" d="M-15.8705 -37.7671 Q-15.8705 -39.0953 -15.4018 -40.2203 Q-14.933 -41.3453 -13.9018 -42.4234 L-13.2924 -42.4234 Q-14.2611 -41.3609 -14.7455 -40.189 Q-15.2299 -39.0171 -15.2299 -37.7828 Q-15.2299 -36.4546 -14.7924 -35.439 L-15.308 -35.439 Q-15.8705 -36.4703 -15.8705 -37.7671 ZM-10.248 -38.3609 Q-10.248 -37.5328 -10.7948 -37.0796 Q-11.3417 -36.6265 -12.3417 -36.6265 Q-12.748 -36.6265 -13.0605 -36.6812 Q-13.373 -36.7359 -13.6542 -36.8765 L-13.6542 -37.5328 Q-13.0292 -37.2046 -12.3261 -37.2046 Q-11.7011 -37.2046 -11.3261 -37.5015 Q-10.9511 -37.7984 -10.9511 -38.314 Q-10.9511 -38.6265 -11.1542 -38.8531 Q-11.3573 -39.0796 -11.9198 -39.4078 Q-12.5136 -39.7359 -12.7401 -40.064 Q-12.9667 -40.3921 -12.9667 -40.8453 Q-12.9667 -41.5796 -12.4511 -42.0406 Q-11.9355 -42.5015 -11.0917 -42.5015 Q-10.7167 -42.5015 -10.3808 -42.4234 Q-10.0448 -42.3453 -9.6698 -42.1734 L-9.9355 -41.5796 Q-10.1855 -41.7359 -10.5058 -41.8218 Q-10.8261 -41.9078 -11.0917 -41.9078 Q-11.623 -41.9078 -11.9433 -41.6343 Q-12.2636 -41.3609 -12.2636 -40.8921 Q-12.2636 -40.689 -12.1933 -40.5406 Q-12.123 -40.3921 -11.9823 -40.2593 Q-11.8417 -40.1265 -11.4198 -39.8765 Q-10.8573 -39.5328 -10.6542 -39.3374 Q-10.4511 -39.1421 -10.3495 -38.9078 Q-10.248 -38.6734 -10.248 -38.3609 ZM-7.6535 -40.0796 Q-7.6535 -38.7515 -8.13 -37.6187 Q-8.6066 -36.4859 -9.6222 -35.439 L-10.2316 -35.439 Q-8.2941 -37.5953 -8.2941 -40.0796 Q-8.2941 -41.4078 -8.7316 -42.4234 L-8.216 -42.4234 Q-7.6535 -41.3609 -7.6535 -40.0796 Z" /></ns0:g><ns0:g transform="translate(149,98)" style="stroke-linecap:butt; font-size:8.4px; text-rendering:geometricPrecision; image-rendering:optimizeQuality; color-rendering:optimizeQuality; font-family:'Open Sans'; font-style:italic; color-interpolation:linearRGB; stroke-miterlimit:5;"><ns0:path style="fill:none;" d="M-21.512 12.557 L-21.762 12.99 L-22.262 12.99" /><ns0:path style="fill:gray; stroke:none;" d="M-31.1504 5.4937 Q-31.1504 4.1656 -30.6817 3.0406 Q-30.2129 1.9156 -29.1817 0.8374 L-28.5723 0.8374 Q-29.541 1.8999 -30.0254 3.0718 Q-30.5098 4.2437 -30.5098 5.4781 Q-30.5098 6.8062 -30.0723 7.8218 L-30.5879 7.8218 Q-31.1504 6.7906 -31.1504 5.4937 ZM-27.5904 4.1812 L-28.0904 6.5562 L-28.7466 6.5562 L-27.5435 0.8374 L-26.2935 0.8374 Q-24.5591 0.8374 -24.5591 2.2749 Q-24.5591 3.6343 -25.9966 4.0249 L-25.0591 6.5562 L-25.7779 6.5562 L-26.606 4.1812 L-27.5904 4.1812 ZM-27.0122 1.4312 Q-27.4029 3.3531 -27.4654 3.6031 L-26.8091 3.6031 Q-26.0591 3.6031 -25.6529 3.2749 Q-25.2466 2.9468 -25.2466 2.3218 Q-25.2466 1.8531 -25.5044 1.6421 Q-25.7622 1.4312 -26.356 1.4312 L-27.0122 1.4312 ZM-22.3731 3.1812 Q-22.3731 4.5093 -22.8497 5.6421 Q-23.3263 6.7749 -24.3419 7.8218 L-24.9513 7.8218 Q-23.0138 5.6656 -23.0138 3.1812 Q-23.0138 1.8531 -23.4513 0.8374 L-22.9356 0.8374 Q-22.3731 1.8999 -22.3731 3.1812 Z" /><ns0:path style="fill:gray; stroke:none;" d="M24.1295 -37.7671 Q24.1295 -39.0953 24.5982 -40.2203 Q25.067 -41.3453 26.0982 -42.4234 L26.7076 -42.4234 Q25.7389 -41.3609 25.2545 -40.189 Q24.7701 -39.0171 24.7701 -37.7828 Q24.7701 -36.4546 25.2076 -35.439 L24.692 -35.439 Q24.1295 -36.4703 24.1295 -37.7671 ZM29.752 -38.3609 Q29.752 -37.5328 29.2052 -37.0796 Q28.6583 -36.6265 27.6583 -36.6265 Q27.252 -36.6265 26.9395 -36.6812 Q26.627 -36.7359 26.3458 -36.8765 L26.3458 -37.5328 Q26.9708 -37.2046 27.6739 -37.2046 Q28.2989 -37.2046 28.6739 -37.5015 Q29.0489 -37.7984 29.0489 -38.314 Q29.0489 -38.6265 28.8458 -38.8531 Q28.6427 -39.0796 28.0802 -39.4078 Q27.4864 -39.7359 27.2598 -40.064 Q27.0333 -40.3921 27.0333 -40.8453 Q27.0333 -41.5796 27.5489 -42.0406 Q28.0645 -42.5015 28.9083 -42.5015 Q29.2833 -42.5015 29.6192 -42.4234 Q29.9552 -42.3453 30.3302 -42.1734 L30.0645 -41.5796 Q29.8145 -41.7359 29.4942 -41.8218 Q29.1739 -41.9078 28.9083 -41.9078 Q28.377 -41.9078 28.0567 -41.6343 Q27.7364 -41.3609 27.7364 -40.8921 Q27.7364 -40.689 27.8067 -40.5406 Q27.877 -40.3921 28.0177 -40.2593 Q28.1583 -40.1265 28.5802 -39.8765 Q29.1427 -39.5328 29.3458 -39.3374 Q29.5489 -39.1421 29.6505 -38.9078 Q29.752 -38.6734 29.752 -38.3609 ZM32.3465 -40.0796 Q32.3465 -38.7515 31.87 -37.6187 Q31.3934 -36.4859 30.3778 -35.439 L29.7684 -35.439 Q31.7059 -37.5953 31.7059 -40.0796 Q31.7059 -41.4078 31.2684 -42.4234 L31.784 -42.4234 Q32.3465 -41.3609 32.3465 -40.0796 Z" /><ns0:path style="fill:none;" d="M42.9764 8.9314 L43.311 9.303 L43.7678 9.0997" /><ns0:path style="fill:gray; stroke:none;" d="M-66.1506 -37.8062 Q-66.1506 -39.1343 -65.6819 -40.2593 Q-65.2131 -41.3843 -64.1819 -42.4624 L-63.5725 -42.4624 Q-64.5413 -41.3999 -65.0256 -40.2281 Q-65.51 -39.0562 -65.51 -37.8218 Q-65.51 -36.4937 -65.0725 -35.4781 L-65.5881 -35.4781 Q-66.1506 -36.5093 -66.1506 -37.8062 ZM-62.5906 -39.1187 L-63.0906 -36.7437 L-63.7468 -36.7437 L-62.5437 -42.4624 L-61.2937 -42.4624 Q-59.5593 -42.4624 -59.5593 -41.0249 Q-59.5593 -39.6656 -60.9968 -39.2749 L-60.0593 -36.7437 L-60.7781 -36.7437 L-61.6062 -39.1187 L-62.5906 -39.1187 ZM-62.0125 -41.8687 Q-62.4031 -39.9468 -62.4656 -39.6968 L-61.8093 -39.6968 Q-61.0593 -39.6968 -60.6531 -40.0249 Q-60.2468 -40.3531 -60.2468 -40.9781 Q-60.2468 -41.4468 -60.5046 -41.6578 Q-60.7625 -41.8687 -61.3562 -41.8687 L-62.0125 -41.8687 ZM-57.3734 -40.1187 Q-57.3734 -38.7906 -57.8499 -37.6578 Q-58.3265 -36.5249 -59.3421 -35.4781 L-59.9515 -35.4781 Q-58.014 -37.6343 -58.014 -40.1187 Q-58.014 -41.4468 -58.4515 -42.4624 L-57.9359 -42.4624 Q-57.3734 -41.3999 -57.3734 -40.1187 Z" /><ns0:path style="fill:none;" d="M-7.012 -64.52 L-6.762 -64.953 L-6.262 -64.953" /><ns0:path style="fill:gray; stroke:none;" d="M-6.1507 -72.4493 Q-6.1507 -73.7774 -5.682 -74.9024 Q-5.2132 -76.0274 -4.182 -77.1055 L-3.5726 -77.1055 Q-4.5414 -76.043 -5.0257 -74.8711 Q-5.5101 -73.6993 -5.5101 -72.4649 Q-5.5101 -71.1368 -5.0726 -70.1211 L-5.5882 -70.1211 Q-6.1507 -71.1524 -6.1507 -72.4493 ZM-2.5907 -73.7618 L-3.0907 -71.3868 L-3.7469 -71.3868 L-2.5438 -77.1055 L-1.2938 -77.1055 Q0.4406 -77.1055 0.4406 -75.668 Q0.4406 -74.3086 -0.9969 -73.918 L-0.0594 -71.3868 L-0.7782 -71.3868 L-1.6063 -73.7618 L-2.5907 -73.7618 ZM-2.0126 -76.5118 Q-2.4032 -74.5899 -2.4657 -74.3399 L-1.8094 -74.3399 Q-1.0594 -74.3399 -0.6532 -74.668 Q-0.2469 -74.9961 -0.2469 -75.6211 Q-0.2469 -76.0899 -0.5048 -76.3008 Q-0.7626 -76.5118 -1.3563 -76.5118 L-2.0126 -76.5118 ZM2.6265 -74.7618 Q2.6265 -73.4336 2.15 -72.3008 Q1.6734 -71.168 0.6578 -70.1211 L0.0484 -70.1211 Q1.9859 -72.2774 1.9859 -74.7618 Q1.9859 -76.0899 1.5484 -77.1055 L2.064 -77.1055 Q2.6265 -76.043 2.6265 -74.7618 Z" /><ns0:path style="fill:none;" d="M-51.262 12.99 L-51.762 12.99 L-52.012 12.557" /><ns0:path style="fill:none;" d="M67.6333 -32.2357 L67.581 -32.733 L67.0919 -32.837" /><ns0:path style="fill:gray; stroke:none;" d="M70.6238 -38.2602 Q70.6238 -39.5884 71.0926 -40.7134 Q71.5613 -41.8384 72.5926 -42.9165 L73.2019 -42.9165 Q72.2332 -41.854 71.7488 -40.6821 Q71.2644 -39.5102 71.2644 -38.2759 Q71.2644 -36.9477 71.7019 -35.9321 L71.1863 -35.9321 Q70.6238 -36.9634 70.6238 -38.2602 ZM74.1839 -39.5727 L73.6839 -37.1977 L73.0276 -37.1977 L74.2308 -42.9165 L75.4808 -42.9165 Q77.2151 -42.9165 77.2151 -41.479 Q77.2151 -40.1196 75.7776 -39.729 L76.7151 -37.1977 L75.9964 -37.1977 L75.1683 -39.5727 L74.1839 -39.5727 ZM74.762 -42.3227 Q74.3714 -40.4009 74.3089 -40.1509 L74.9651 -40.1509 Q75.7151 -40.1509 76.1214 -40.479 Q76.5276 -40.8071 76.5276 -41.4321 Q76.5276 -41.9009 76.2698 -42.1118 Q76.012 -42.3227 75.4183 -42.3227 L74.762 -42.3227 ZM79.4011 -40.5727 Q79.4011 -39.2446 78.9245 -38.1118 Q78.448 -36.979 77.4324 -35.9321 L76.823 -35.9321 Q78.7605 -38.0884 78.7605 -40.5727 Q78.7605 -41.9009 78.323 -42.9165 L78.8386 -42.9165 Q79.4011 -41.854 79.4011 -40.5727 Z" /><ns0:path style="fill:none;" d="M23.488 -64.52 L23.238 -64.953 L22.738 -64.953" /><ns0:path style="fill:none;" d="M-67.262 -12.99 L-66.762 -12.99 L-66.512 -12.557" /><ns0:path style="fill:none;" d="M-66.512 -64.52 L-66.762 -64.953 L-67.262 -64.953" /><ns0:path style="fill:none;" d="M64.4983 -62.0707 L64.446 -62.568 L64.9028 -62.7714" /></ns0:g><ns0:g transform="translate(149,98)" style="stroke-linecap:butt; fill:rgb(230,0,0); text-rendering:geometricPrecision; color-rendering:optimizeQuality; image-rendering:optimizeQuality; font-family:'Open Sans'; stroke:rgb(230,0,0); color-interpolation:linearRGB; stroke-miterlimit:5;"><ns0:path style="stroke:none;" d="M100.8645 -26.5663 Q100.8645 -24.5038 99.8254 -23.3241 Q98.7864 -22.1444 96.9426 -22.1444 Q95.052 -22.1444 94.0208 -23.3085 Q92.9895 -24.4726 92.9895 -26.5819 Q92.9895 -28.6757 94.0208 -29.8241 Q95.052 -30.9726 96.9426 -30.9726 Q98.802 -30.9726 99.8333 -29.8007 Q100.8645 -28.6288 100.8645 -26.5663 ZM94.0364 -26.5663 Q94.0364 -24.8319 94.7786 -23.9257 Q95.5208 -23.0194 96.9426 -23.0194 Q98.3645 -23.0194 99.0911 -23.9179 Q99.8176 -24.8163 99.8176 -26.5663 Q99.8176 -28.3007 99.0911 -29.1913 Q98.3645 -30.0819 96.9426 -30.0819 Q95.5208 -30.0819 94.7786 -29.1835 Q94.0364 -28.2851 94.0364 -26.5663 Z" /><ns0:path style="fill:none; stroke:black;" d="M-96.262 -12.99 L-96.762 -12.99 L-97.012 -13.423" /><ns0:path style="fill:none; stroke:black;" d="M-96.262 -64.953 L-96.762 -64.953 L-97.012 -64.52" /><ns0:path style="fill:none; stroke:black;" d="M91.3972 -74.5686 L91.854 -74.772 L92.1885 -74.4004" /><ns0:path style="fill:none; stroke:black;" d="M111.677 -52.043 L111.927 -52.476 L111.5925 -52.8476" /><ns0:path style="fill:none; stroke:black;" d="M-111.512 -38.537 L-111.762 -38.97 L-111.512 -39.403" /><ns0:path style="fill:black; stroke:none;" d="M4.2598 20.1432 L3.2598 20.1432 L3.2598 16.112 L-1.2558 16.112 L-1.2558 20.1432 L-2.2558 20.1432 L-2.2558 11.5807 L-1.2558 11.5807 L-1.2558 15.2214 L3.2598 15.2214 L3.2598 11.5807 L4.2598 11.5807 L4.2598 20.1432 Z" /><ns0:path style="fill:black; stroke:none;" d="M21.8038 20.7973 L20.8038 20.7973 L20.8038 16.766 L16.2882 16.766 L16.2882 20.7973 L15.2882 20.7973 L15.2882 12.2348 L16.2882 12.2348 L16.2882 15.8754 L20.8038 15.8754 L20.8038 12.2348 L21.8038 12.2348 L21.8038 20.7973 Z" /><ns0:path style="fill:black; stroke:none;" d="M-21.1202 -64.6998 L-22.1202 -64.6998 L-22.1202 -68.731 L-26.6358 -68.731 L-26.6358 -64.6998 L-27.6358 -64.6998 L-27.6358 -73.2623 L-26.6358 -73.2623 L-26.6358 -69.6216 L-22.1202 -69.6216 L-22.1202 -73.2623 L-21.1202 -73.2623 L-21.1202 -64.6998 Z" /></ns0:g></ns0:g></ns0:svg></ns0:svg></ns0:svg></ns0:svg></g></svg>