<svg xmlns:ns0="http://www.w3.org/2000/svg" xmlns="http://www.w3.org/2000/svg"><g transform="translate(0, 0)"><ns0:svg width="110" viewBox="0 0 110 83" style="fill-opacity:1; color-rendering:auto; color-interpolation:auto; text-rendering:auto; stroke:black; stroke-linecap:square; stroke-miterlimit:10; shape-rendering:auto; stroke-opacity:1; fill:black; stroke-dasharray:none; font-weight:normal; stroke-width:1; font-family:'Open Sans'; font-style:normal; stroke-linejoin:miter; font-size:12; stroke-dashoffset:0; image-rendering:auto;" height="83" class="cas-substance-image"><ns0:svg class="cas-substance-single-component"><ns0:rect y="0" x="0" width="110" stroke="none" ry="7" rx="7" height="83" fill="white" class="cas-substance-group" /><ns0:svg y="0" x="0" width="110" viewBox="0 0 110 67" style="fill:black;" height="67" class="cas-substance-single-component-image"><ns0:svg><ns0:g><ns0:g transform="translate(55,33)" style="text-rendering:geometricPrecision; color-rendering:optimizeQuality; color-interpolation:linearRGB; stroke-linecap:butt; image-rendering:optimizeQuality;"><ns0:line y2="-11.8214" y1="-2.5697" x2="-20.4746" x1="-4.4508" style="fill:none;" /><ns0:line y2="11.7586" y1="1.8078" x2="20.3659" x1="3.1312" style="fill:none;" /><ns0:line y2="-19.5612" y1="-5.2633" x2="13.3147" x1="5.0596" style="fill:none;" /><ns0:line y2="-21.3112" y1="-7.0133" x2="10.2837" x1="2.0285" style="fill:none;" /><ns0:line y2="20.8033" y1="5.8883" x2="-12.0112" x1="-3.3997" style="fill:none;" /><ns0:line y2="0" y1="-11.8114" x2="-51.963" x1="-31.5032" style="fill:none;" /><ns0:line y2="0" y1="11.7742" x2="51.963" x1="31.5677" style="fill:none;" /></ns0:g><ns0:g transform="translate(55,33)" style="fill:rgb(111,5,255); text-rendering:geometricPrecision; color-rendering:optimizeQuality; image-rendering:optimizeQuality; font-family:'Open Sans'; stroke:rgb(111,5,255); color-interpolation:linearRGB;"><ns0:path style="stroke:none;" d="M2.7188 -1.9219 Q2.7188 -0.6094 1.8281 0.0859 Q0.9375 0.7812 -0.7031 0.7812 L-1.7188 0.7812 L-1.7188 4.1562 L-2.7188 4.1562 L-2.7188 -4.4062 L-0.4844 -4.4062 Q2.7188 -4.4062 2.7188 -1.9219 ZM-1.7188 -0.0625 L-0.8125 -0.0625 Q0.5 -0.0625 1.0938 -0.4922 Q1.6875 -0.9219 1.6875 -1.875 Q1.6875 -2.7188 1.1328 -3.1328 Q0.5781 -3.5469 -0.6094 -3.5469 L-1.7188 -3.5469 L-1.7188 -0.0625 Z" /><ns0:path style="fill:rgb(230,0,0); stroke:none;" d="M-22.0425 -15.0703 Q-22.0425 -13.0078 -23.0816 -11.8281 Q-24.1206 -10.6484 -25.9644 -10.6484 Q-27.855 -10.6484 -28.8862 -11.8125 Q-29.9175 -12.9766 -29.9175 -15.0859 Q-29.9175 -17.1797 -28.8862 -18.3281 Q-27.855 -19.4766 -25.9644 -19.4766 Q-24.105 -19.4766 -23.0737 -18.3047 Q-22.0425 -17.1328 -22.0425 -15.0703 ZM-28.8706 -15.0703 Q-28.8706 -13.3359 -28.1284 -12.4297 Q-27.3862 -11.5234 -25.9644 -11.5234 Q-24.5425 -11.5234 -23.8159 -12.4219 Q-23.0894 -13.3203 -23.0894 -15.0703 Q-23.0894 -16.8047 -23.8159 -17.6953 Q-24.5425 -18.5859 -25.9644 -18.5859 Q-27.3862 -18.5859 -28.1284 -17.6875 Q-28.8706 -16.7891 -28.8706 -15.0703 Z" /><ns0:path style="fill:rgb(230,0,0); stroke:none;" d="M29.9175 14.9297 Q29.9175 16.9922 28.8784 18.1719 Q27.8394 19.3516 25.9956 19.3516 Q24.105 19.3516 23.0737 18.1875 Q22.0425 17.0234 22.0425 14.9141 Q22.0425 12.8203 23.0737 11.6719 Q24.105 10.5234 25.9956 10.5234 Q27.855 10.5234 28.8862 11.6953 Q29.9175 12.8672 29.9175 14.9297 ZM23.0894 14.9297 Q23.0894 16.6641 23.8316 17.5703 Q24.5737 18.4766 25.9956 18.4766 Q27.4175 18.4766 28.1441 17.5781 Q28.8706 16.6797 28.8706 14.9297 Q28.8706 13.1953 28.1441 12.3047 Q27.4175 11.4141 25.9956 11.4141 Q24.5737 11.4141 23.8316 12.3125 Q23.0894 13.2109 23.0894 14.9297 Z" /><ns0:path style="fill:rgb(148,108,0); stroke:none;" d="M17.6953 -24.0425 Q17.6953 -22.9175 16.875 -22.2769 Q16.0547 -21.6362 14.6484 -21.6362 Q13.1172 -21.6362 12.3047 -22.0425 L12.3047 -22.9956 Q12.8359 -22.7769 13.4531 -22.6441 Q14.0703 -22.5112 14.6797 -22.5112 Q15.6797 -22.5112 16.1797 -22.8941 Q16.6797 -23.2769 16.6797 -23.9487 Q16.6797 -24.3862 16.5 -24.6753 Q16.3203 -24.9644 15.9062 -25.2066 Q15.4922 -25.4487 14.6328 -25.7456 Q13.4453 -26.1675 12.9297 -26.7534 Q12.4141 -27.3394 12.4141 -28.2925 Q12.4141 -29.2769 13.1562 -29.8628 Q13.8984 -30.4487 15.1328 -30.4487 Q16.3984 -30.4487 17.4766 -29.98 L17.1641 -29.1206 Q16.1016 -29.5581 15.1016 -29.5581 Q14.3047 -29.5581 13.8594 -29.2222 Q13.4141 -28.8862 13.4141 -28.2769 Q13.4141 -27.8394 13.5781 -27.5503 Q13.7422 -27.2612 14.1328 -27.0269 Q14.5234 -26.7925 15.3359 -26.4956 Q16.6797 -26.0269 17.1875 -25.4722 Q17.6953 -24.9175 17.6953 -24.0425 Z" /><ns0:path style="fill:rgb(148,108,0); stroke:none;" d="M-12.3047 27.9175 Q-12.3047 29.0425 -13.125 29.6831 Q-13.9453 30.3237 -15.3516 30.3237 Q-16.8828 30.3237 -17.6953 29.9175 L-17.6953 28.9644 Q-17.1641 29.1831 -16.5469 29.3159 Q-15.9297 29.4487 -15.3203 29.4487 Q-14.3203 29.4487 -13.8203 29.0659 Q-13.3203 28.6831 -13.3203 28.0112 Q-13.3203 27.5737 -13.5 27.2847 Q-13.6797 26.9956 -14.0938 26.7534 Q-14.5078 26.5112 -15.3672 26.2144 Q-16.5547 25.7925 -17.0703 25.2066 Q-17.5859 24.6206 -17.5859 23.6675 Q-17.5859 22.6831 -16.8438 22.0972 Q-16.1016 21.5112 -14.8672 21.5112 Q-13.6016 21.5112 -12.5234 21.98 L-12.8359 22.8394 Q-13.8984 22.4019 -14.8984 22.4019 Q-15.6953 22.4019 -16.1406 22.7378 Q-16.5859 23.0737 -16.5859 23.6831 Q-16.5859 24.1206 -16.4219 24.4097 Q-16.2578 24.6987 -15.8672 24.9331 Q-15.4766 25.1675 -14.6641 25.4644 Q-13.3203 25.9331 -12.8125 26.4878 Q-12.3047 27.0425 -12.3047 27.9175 Z" /><ns0:path style="fill:rgb(148,108,0); stroke:none;" d="M-18.6953 30.1987 L-19.6953 30.1987 L-19.6953 26.1675 L-24.2109 26.1675 L-24.2109 30.1987 L-25.2109 30.1987 L-25.2109 21.6362 L-24.2109 21.6362 L-24.2109 25.2769 L-19.6953 25.2769 L-19.6953 21.6362 L-18.6953 21.6362 L-18.6953 30.1987 Z" /></ns0:g></ns0:g></ns0:svg></ns0:svg><ns0:svg y="67" x="47" class="cas-substance-saf"><ns0:svg y="3" x="0" width="4" style="fill:black;" height="4" class="cas-substance-saf-dot"><ns0:circle stroke="none" r="2" fill="black" cy="2" cx="2" /></ns0:svg><ns0:svg y="0" x="8" width="25" style="fill:black;" height="16" class="cas-substance-saf-image"><ns0:svg><ns0:g><ns0:g transform="translate(6,7)" style="fill:rgb(0,5,255); text-rendering:geometricPrecision; color-rendering:optimizeQuality; image-rendering:optimizeQuality; font-family:'Open Sans'; stroke:rgb(0,5,255); color-interpolation:linearRGB;"><ns0:path style="stroke:none;" d="M3.3516 4.1562 L2.2109 4.1562 L-2.4766 -3.0312 L-2.5234 -3.0312 Q-2.4297 -1.7656 -2.4297 -0.7188 L-2.4297 4.1562 L-3.3516 4.1562 L-3.3516 -4.4062 L-2.2266 -4.4062 L2.4453 2.75 L2.4922 2.75 Q2.4922 2.5938 2.4453 1.7344 Q2.3984 0.875 2.4141 0.5 L2.4141 -4.4062 L3.3516 -4.4062 L3.3516 4.1562 Z" /><ns0:path style="stroke:none;" d="M10.8672 4.1562 L9.8672 4.1562 L9.8672 0.125 L5.3516 0.125 L5.3516 4.1562 L4.3516 4.1562 L4.3516 -4.4062 L5.3516 -4.4062 L5.3516 -0.7656 L9.8672 -0.7656 L9.8672 -4.4062 L10.8672 -4.4062 L10.8672 4.1562 Z" /><ns0:path style="stroke:none;" d="M15.4297 1.5906 Q15.4297 2.1375 15.1172 2.4891 Q14.8047 2.8406 14.2422 2.95 L14.2422 2.9812 Q14.9297 3.075 15.2656 3.4266 Q15.6016 3.7781 15.6016 4.3406 Q15.6016 5.1687 15.0312 5.6062 Q14.4609 6.0437 13.4297 6.0437 Q12.9766 6.0437 12.5938 5.9734 Q12.2109 5.9031 11.8672 5.7312 L11.8672 5.1219 Q12.2266 5.2937 12.6484 5.3953 Q13.0703 5.4969 13.4453 5.4969 Q14.9297 5.4969 14.9297 4.325 Q14.9297 3.2937 13.2891 3.2937 L12.7266 3.2937 L12.7266 2.7312 L13.3047 2.7312 Q13.9766 2.7312 14.3672 2.4344 Q14.7578 2.1375 14.7578 1.6219 Q14.7578 1.2 14.4688 0.9656 Q14.1797 0.7312 13.6797 0.7312 Q13.3047 0.7312 12.9766 0.8328 Q12.6484 0.9344 12.2266 1.2 L11.8984 0.7625 Q12.2422 0.4812 12.7031 0.325 Q13.1641 0.1687 13.6641 0.1687 Q14.5078 0.1687 14.9688 0.5516 Q15.4297 0.9344 15.4297 1.5906 Z" /></ns0:g></ns0:g></ns0:svg></ns0:svg></ns0:svg></ns0:svg></ns0:svg></g></svg>