<svg xmlns:ns0="http://www.w3.org/2000/svg" xmlns="http://www.w3.org/2000/svg"><g transform="translate(0, 0)"><ns0:svg width="322" viewBox="0 0 322 92" style="fill-opacity:1; color-rendering:auto; color-interpolation:auto; text-rendering:auto; stroke:black; stroke-linecap:square; stroke-miterlimit:10; shape-rendering:auto; stroke-opacity:1; fill:black; stroke-dasharray:none; font-weight:normal; stroke-width:1; font-family:'Open Sans'; font-style:normal; stroke-linejoin:miter; font-size:12; stroke-dashoffset:0; image-rendering:auto;" height="92" class="cas-substance-image"><ns0:svg class="cas-substance-single-component"><ns0:rect y="0" x="0" width="322" stroke="none" ry="7" rx="7" height="92" fill="white" class="cas-substance-group" /><ns0:svg y="0" x="0" width="322" viewBox="0 0 322 92" style="fill:black;" height="92" class="cas-substance-single-component-image"><ns0:svg><ns0:g><ns0:g transform="translate(153,48)" style="text-rendering:geometricPrecision; color-rendering:optimizeQuality; color-interpolation:linearRGB; stroke-linecap:butt; image-rendering:optimizeQuality;"><ns0:line y2="5.2583" y1="-15" x2="-86.6965" x1="-75" style="fill:none;" /><ns0:line y2="-36.2193" y1="-15" x2="-85.2306" x1="-72.9793" style="fill:none;" /><ns0:line y2="-34.4693" y1="-13.25" x2="-88.2617" x1="-76.0104" style="fill:none;" /><ns0:line y2="-15" y1="-15" x2="-50.3516" x1="-75" style="fill:none;" /><ns0:line y2="10.98" y1="10.98" x2="-120" x1="-95.9375" style="fill:none;" /><ns0:line y2="-19.02" y1="10.98" x2="-120" x1="-120" style="fill:none;" /><ns0:line y2="10.98" y1="10.98" x2="-150" x1="-120" style="fill:none;" /><ns0:line y2="40.98" y1="10.98" x2="-120" x1="-120" style="fill:none;" /><ns0:line y2="-35.0917" y1="-15" x2="146.6003" x1="135" style="fill:none;" /><ns0:line y2="-15" y1="-15" x2="105" x1="135" style="fill:none;" /><ns0:line y2="10.98" y1="-9.1117" x2="0" x1="11.6003" style="fill:none;" /><ns0:line y2="-40.98" y1="-21.1383" x2="0" x1="11.456" style="fill:none;" /><ns0:line y2="-15" y1="-15" x2="45" x1="20.3516" style="fill:none;" /><ns0:line y2="10.98" y1="10.98" x2="-30" x1="0" style="fill:none;" /><ns0:line y2="-40.98" y1="-40.98" x2="-30" x1="0" style="fill:none;" /><ns0:line y2="-9.1117" y1="10.98" x2="-41.6003" x1="-30" style="fill:none;" /><ns0:line y2="-21.1383" y1="-40.98" x2="-41.456" x1="-30" style="fill:none;" /><ns0:line y2="10.98" y1="-15" x2="60" x1="45" style="fill:none;" /><ns0:line y2="7.48" y1="-15.0001" x2="62.0207" x1="49.0415" style="fill:none;" /><ns0:line y2="-40.98" y1="-15" x2="60" x1="45" style="fill:none;" /><ns0:line y2="10.98" y1="10.98" x2="90" x1="60" style="fill:none;" /><ns0:line y2="-40.98" y1="-40.98" x2="90" x1="60" style="fill:none;" /><ns0:line y2="-37.48" y1="-37.48" x2="87.9793" x1="62.0207" style="fill:none;" /><ns0:line y2="-15" y1="10.98" x2="105" x1="90" style="fill:none;" /><ns0:line y2="-15.0001" y1="7.48" x2="100.9585" x1="87.9793" style="fill:none;" /><ns0:line y2="-15" y1="-40.98" x2="105" x1="90" style="fill:none;" /><ns0:path style="fill:none; stroke-miterlimit:5;" d="M-75.25 -14.567 L-75 -15 L-74.5 -15" /></ns0:g><ns0:g transform="translate(153,48)" style="stroke-linecap:butt; fill:rgb(230,0,0); text-rendering:geometricPrecision; color-rendering:optimizeQuality; image-rendering:optimizeQuality; font-family:'Open Sans'; stroke:rgb(230,0,0); color-interpolation:linearRGB; stroke-miterlimit:5;"><ns0:path style="stroke:none;" d="M-86.0625 10.9097 Q-86.0625 12.9722 -87.1016 14.1519 Q-88.1406 15.3316 -89.9844 15.3316 Q-91.875 15.3316 -92.9062 14.1675 Q-93.9375 13.0034 -93.9375 10.8941 Q-93.9375 8.8003 -92.9062 7.6519 Q-91.875 6.5034 -89.9844 6.5034 Q-88.125 6.5034 -87.0938 7.6753 Q-86.0625 8.8472 -86.0625 10.9097 ZM-92.8906 10.9097 Q-92.8906 12.6441 -92.1484 13.5503 Q-91.4062 14.4566 -89.9844 14.4566 Q-88.5625 14.4566 -87.8359 13.5581 Q-87.1094 12.6597 -87.1094 10.9097 Q-87.1094 9.1753 -87.8359 8.2847 Q-88.5625 7.3941 -89.9844 7.3941 Q-91.4062 7.3941 -92.1484 8.2925 Q-92.8906 9.1909 -92.8906 10.9097 Z" /><ns0:path style="stroke:none;" d="M-86.0625 -41.0503 Q-86.0625 -38.9878 -87.1016 -37.8081 Q-88.1406 -36.6284 -89.9844 -36.6284 Q-91.875 -36.6284 -92.9062 -37.7925 Q-93.9375 -38.9566 -93.9375 -41.0659 Q-93.9375 -43.1597 -92.9062 -44.3081 Q-91.875 -45.4566 -89.9844 -45.4566 Q-88.125 -45.4566 -87.0938 -44.2847 Q-86.0625 -43.1128 -86.0625 -41.0503 ZM-92.8906 -41.0503 Q-92.8906 -39.3159 -92.1484 -38.4097 Q-91.4062 -37.5034 -89.9844 -37.5034 Q-88.5625 -37.5034 -87.8359 -38.4019 Q-87.1094 -39.3003 -87.1094 -41.0503 Q-87.1094 -42.7847 -87.8359 -43.6753 Q-88.5625 -44.5659 -89.9844 -44.5659 Q-91.4062 -44.5659 -92.1484 -43.6675 Q-92.8906 -42.7691 -92.8906 -41.0503 Z" /><ns0:path style="fill:none; stroke:black;" d="M135.25 -15.433 L135 -15 L134.5 -15" /><ns0:path style="fill:rgb(0,5,255); stroke:none;" d="M153.3516 -36.8238 L152.2109 -36.8238 L147.5234 -44.0113 L147.4766 -44.0113 Q147.5703 -42.7456 147.5703 -41.6988 L147.5703 -36.8238 L146.6484 -36.8238 L146.6484 -45.3863 L147.7734 -45.3863 L152.4453 -38.23 L152.4922 -38.23 Q152.4922 -38.3863 152.4453 -39.2456 Q152.3984 -40.105 152.4141 -40.48 L152.4141 -45.3863 L153.3516 -45.3863 L153.3516 -36.8238 Z" /><ns0:path style="fill:rgb(0,5,255); stroke:none;" d="M160.8672 -36.8238 L159.8672 -36.8238 L159.8672 -40.855 L155.3516 -40.855 L155.3516 -36.8238 L154.3516 -36.8238 L154.3516 -45.3863 L155.3516 -45.3863 L155.3516 -41.7456 L159.8672 -41.7456 L159.8672 -45.3863 L160.8672 -45.3863 L160.8672 -36.8238 Z" /><ns0:path style="fill:rgb(0,5,255); stroke:none;" d="M165.6172 -35.0144 L161.8672 -35.0144 L161.8672 -35.5769 L163.3672 -37.0925 Q164.0547 -37.78 164.2734 -38.0769 Q164.4922 -38.3738 164.6016 -38.655 Q164.7109 -38.9363 164.7109 -39.2644 Q164.7109 -39.7175 164.4375 -39.9831 Q164.1641 -40.2488 163.6641 -40.2488 Q163.3203 -40.2488 163 -40.1316 Q162.6797 -40.0144 162.2891 -39.7175 L161.9453 -40.155 Q162.7266 -40.8113 163.6641 -40.8113 Q164.4609 -40.8113 164.9219 -40.3972 Q165.3828 -39.9831 165.3828 -39.2956 Q165.3828 -38.7488 165.0781 -38.2175 Q164.7734 -37.6863 163.9297 -36.8738 L162.6797 -35.655 L162.6797 -35.6238 L165.6172 -35.6238 L165.6172 -35.0144 Z" /><ns0:path style="fill:rgb(0,5,255); stroke:none;" d="M18.3516 -10.8438 L17.2109 -10.8438 L12.5234 -18.0312 L12.4766 -18.0312 Q12.5703 -16.7656 12.5703 -15.7188 L12.5703 -10.8438 L11.6484 -10.8438 L11.6484 -19.4062 L12.7734 -19.4062 L17.4453 -12.25 L17.4922 -12.25 Q17.4922 -12.4062 17.4453 -13.2656 Q17.3984 -14.125 17.4141 -14.5 L17.4141 -19.4062 L18.3516 -19.4062 L18.3516 -10.8438 Z" /><ns0:path style="fill:none; stroke:black;" d="M0.25 10.547 L0 10.98 L-0.5 10.98" /><ns0:path style="fill:none; stroke:black;" d="M0.25 -40.547 L0 -40.98 L-0.5 -40.98" /><ns0:path style="fill:none; stroke:black;" d="M-29.5 10.98 L-30 10.98 L-30.25 10.547" /><ns0:path style="fill:none; stroke:black;" d="M-29.5 -40.98 L-30 -40.98 L-30.25 -40.547" /><ns0:path style="fill:rgb(0,5,255); stroke:none;" d="M-41.6484 -10.8438 L-42.7891 -10.8438 L-47.4766 -18.0312 L-47.5234 -18.0312 Q-47.4297 -16.7656 -47.4297 -15.7188 L-47.4297 -10.8438 L-48.3516 -10.8438 L-48.3516 -19.4062 L-47.2266 -19.4062 L-42.5547 -12.25 L-42.5078 -12.25 Q-42.5078 -12.4062 -42.5547 -13.2656 Q-42.6016 -14.125 -42.5859 -14.5 L-42.5859 -19.4062 L-41.6484 -19.4062 L-41.6484 -10.8438 Z" /><ns0:path style="fill:none; stroke:black;" d="M45.25 -14.567 L45 -15 L44.5 -15" /><ns0:path style="fill:none; stroke:black;" d="M59.75 10.547 L60 10.98 L60.5 10.98" /><ns0:path style="fill:none; stroke:black;" d="M59.75 -40.547 L60 -40.98 L60.5 -40.98" /><ns0:path style="fill:none; stroke:black;" d="M89.5 10.98 L90 10.98 L90.25 10.547" /><ns0:path style="fill:none; stroke:black;" d="M89.5 -40.98 L90 -40.98 L90.25 -40.547" /><ns0:path style="fill:none; stroke:black;" d="M104.75 -14.567 L105 -15 L105.5 -15" /></ns0:g></ns0:g></ns0:svg></ns0:svg></ns0:svg></ns0:svg></g></svg>