<svg xmlns:ns0="http://www.w3.org/2000/svg" xmlns="http://www.w3.org/2000/svg"><g transform="translate(0, 0)"><ns0:svg width="100" viewBox="0 0 100 60" style="fill-opacity:1; color-rendering:auto; color-interpolation:auto; text-rendering:auto; stroke:black; stroke-linecap:square; stroke-miterlimit:10; shape-rendering:auto; stroke-opacity:1; fill:black; stroke-dasharray:none; font-weight:normal; stroke-width:1; font-family:'Open Sans'; font-style:normal; stroke-linejoin:miter; font-size:12; stroke-dashoffset:0; image-rendering:auto;" height="60" class="cas-substance-image"><ns0:svg class="cas-substance-single-component"><ns0:rect y="0" x="0" width="100" stroke="none" ry="7" rx="7" height="60" fill="white" class="cas-substance-group" /><ns0:svg y="0" x="6" width="88" viewBox="0 0 88 60" style="fill:black;" height="60" class="cas-substance-single-component-image"><ns0:svg><ns0:g><ns0:g transform="translate(46,30)" style="text-rendering:geometricPrecision; color-rendering:optimizeQuality; color-interpolation:linearRGB; stroke-linecap:butt; image-rendering:optimizeQuality;"><ns0:line y2="-22.5" y1="-7.5" x2="12.99" x1="-12.99" style="fill:none;" /><ns0:line y2="16.0234" y1="-7.5" x2="-12.99" x1="-12.99" style="fill:none;" /><ns0:line y2="-20.8369" y1="-8.5104" x2="-32.5896" x1="-11.24" style="fill:none;" /><ns0:line y2="-17.8059" y1="-5.4793" x2="-34.3397" x1="-12.99" style="fill:none;" /><ns0:line y2="-7.5" y1="-22.5" x2="38.97" x1="12.99" style="fill:none;" /><ns0:line y2="-4.4689" y1="-18.4585" x2="37.22" x1="12.9899" style="fill:none;" /><ns0:path style="fill:none; stroke-miterlimit:5;" d="M-12.557 -7.75 L-12.99 -7.5 L-12.99 -7" /><ns0:path style="fill:none; stroke-miterlimit:5;" d="M12.557 -22.25 L12.99 -22.5 L13.423 -22.25" /></ns0:g><ns0:g transform="translate(46,30)" style="stroke-linecap:butt; fill:rgb(230,0,0); text-rendering:geometricPrecision; color-rendering:optimizeQuality; image-rendering:optimizeQuality; font-family:'Open Sans'; stroke:rgb(230,0,0); color-interpolation:linearRGB; stroke-miterlimit:5;"><ns0:path style="stroke:none;" d="M-9.0525 22.4297 Q-9.0525 24.4922 -10.0916 25.6719 Q-11.1306 26.8516 -12.9744 26.8516 Q-14.865 26.8516 -15.8962 25.6875 Q-16.9275 24.5234 -16.9275 22.4141 Q-16.9275 20.3203 -15.8962 19.1719 Q-14.865 18.0234 -12.9744 18.0234 Q-11.115 18.0234 -10.0837 19.1953 Q-9.0525 20.3672 -9.0525 22.4297 ZM-15.8806 22.4297 Q-15.8806 24.1641 -15.1384 25.0703 Q-14.3962 25.9766 -12.9744 25.9766 Q-11.5525 25.9766 -10.8259 25.0781 Q-10.0994 24.1797 -10.0994 22.4297 Q-10.0994 20.6953 -10.8259 19.8047 Q-11.5525 18.9141 -12.9744 18.9141 Q-14.3962 18.9141 -15.1384 19.8125 Q-15.8806 20.7109 -15.8806 22.4297 Z" /><ns0:path style="stroke:none;" d="M-1.5369 26.7266 L-2.5369 26.7266 L-2.5369 22.6953 L-7.0525 22.6953 L-7.0525 26.7266 L-8.0525 26.7266 L-8.0525 18.1641 L-7.0525 18.1641 L-7.0525 21.8047 L-2.5369 21.8047 L-2.5369 18.1641 L-1.5369 18.1641 L-1.5369 26.7266 Z" /><ns0:path style="stroke:none;" d="M-35.0325 -22.5703 Q-35.0325 -20.5078 -36.0716 -19.3281 Q-37.1106 -18.1484 -38.9544 -18.1484 Q-40.845 -18.1484 -41.8763 -19.3125 Q-42.9075 -20.4766 -42.9075 -22.5859 Q-42.9075 -24.6797 -41.8763 -25.8281 Q-40.845 -26.9766 -38.9544 -26.9766 Q-37.095 -26.9766 -36.0638 -25.8047 Q-35.0325 -24.6328 -35.0325 -22.5703 ZM-41.8606 -22.5703 Q-41.8606 -20.8359 -41.1184 -19.9297 Q-40.3763 -19.0234 -38.9544 -19.0234 Q-37.5325 -19.0234 -36.8059 -19.9219 Q-36.0794 -20.8203 -36.0794 -22.5703 Q-36.0794 -24.3047 -36.8059 -25.1953 Q-37.5325 -26.0859 -38.9544 -26.0859 Q-40.3763 -26.0859 -41.1184 -25.1875 Q-41.8606 -24.2891 -41.8606 -22.5703 Z" /></ns0:g></ns0:g></ns0:svg></ns0:svg></ns0:svg></ns0:svg></g><g transform="translate(100, 0)"><ns0:svg width="117" viewBox="0 0 117 62" style="fill-opacity:1; color-rendering:auto; color-interpolation:auto; text-rendering:auto; stroke:black; stroke-linecap:square; stroke-miterlimit:10; shape-rendering:auto; stroke-opacity:1; fill:black; stroke-dasharray:none; font-weight:normal; stroke-width:1; font-family:'Open Sans'; font-style:normal; stroke-linejoin:miter; font-size:12; stroke-dashoffset:0; image-rendering:auto;" height="62" class="cas-substance-image"><ns0:svg class="cas-substance-single-component"><ns0:rect y="0" x="0" width="117" stroke="none" ry="7" rx="7" height="62" fill="white" class="cas-substance-group" /><ns0:svg y="0" x="0" width="117" viewBox="0 0 117 62" style="fill:black;" height="62" class="cas-substance-single-component-image"><ns0:svg><ns0:g><ns0:g transform="translate(59,33)" style="text-rendering:geometricPrecision; color-rendering:optimizeQuality; color-interpolation:linearRGB; stroke-linecap:butt; image-rendering:optimizeQuality;"><ns0:line y2="-8.3847" y1="-20.8419" x2="-25.4419" x1="-47.0177" style="fill:none;" /><ns0:line y2="-11.4159" y1="-23.8729" x2="-23.692" x1="-45.2676" style="fill:none;" /><ns0:line y2="-2.0516" y1="-4.6967" x2="20.3657" x1="45.5386" style="fill:none;" /><ns0:line y2="1.4293" y1="-1.2158" x2="20.7314" x1="45.9043" style="fill:none;" /><ns0:line y2="-10.536" y1="-20.1732" x2="-25.668" x1="-4.0246" style="fill:none;" /><ns0:line y2="-0.444" y1="-18.0577" x2="21.813" x1="5.9554" style="fill:none;" /><ns0:line y2="19.299" y1="-10.536" x2="-22.533" x1="-25.668" style="fill:none;" /><ns0:line y2="25.536" y1="-0.444" x2="6.813" x1="21.813" style="fill:none;" /><ns0:line y2="25.536" y1="19.299" x2="6.813" x1="-22.533" style="fill:none;" /><ns0:line y2="21.6924" y1="16.2956" x2="5.564" x1="-19.8288" style="fill:none;" /></ns0:g><ns0:g transform="translate(59,33)" style="fill:rgb(230,0,0); text-rendering:geometricPrecision; color-rendering:optimizeQuality; image-rendering:optimizeQuality; font-family:'Open Sans'; stroke:rgb(230,0,0); color-interpolation:linearRGB;"><ns0:path style="stroke:none;" d="M-47.7105 -25.6063 Q-47.7105 -23.5438 -48.7496 -22.3641 Q-49.7886 -21.1844 -51.6324 -21.1844 Q-53.523 -21.1844 -54.5543 -22.3485 Q-55.5855 -23.5126 -55.5855 -25.6219 Q-55.5855 -27.7157 -54.5543 -28.8641 Q-53.523 -30.0126 -51.6324 -30.0126 Q-49.773 -30.0126 -48.7418 -28.8407 Q-47.7105 -27.6688 -47.7105 -25.6063 ZM-54.5386 -25.6063 Q-54.5386 -23.8719 -53.7964 -22.9657 Q-53.0543 -22.0594 -51.6324 -22.0594 Q-50.2105 -22.0594 -49.4839 -22.9579 Q-48.7574 -23.8563 -48.7574 -25.6063 Q-48.7574 -27.3407 -49.4839 -28.2313 Q-50.2105 -29.1219 -51.6324 -29.1219 Q-53.0543 -29.1219 -53.7964 -28.2235 Q-54.5386 -27.3251 -54.5386 -25.6063 Z" /><ns0:path style="stroke:none;" d="M55.5855 -3.6493 Q55.5855 -1.5868 54.5464 -0.4071 Q53.5074 0.7726 51.6636 0.7726 Q49.773 0.7726 48.7418 -0.3915 Q47.7105 -1.5556 47.7105 -3.6649 Q47.7105 -5.7587 48.7418 -6.9071 Q49.773 -8.0556 51.6636 -8.0556 Q53.523 -8.0556 54.5543 -6.8837 Q55.5855 -5.7118 55.5855 -3.6493 ZM48.7574 -3.6493 Q48.7574 -1.9149 49.4996 -1.0087 Q50.2418 -0.1024 51.6636 -0.1024 Q53.0855 -0.1024 53.8121 -1.0009 Q54.5386 -1.8993 54.5386 -3.6493 Q54.5386 -5.3837 53.8121 -6.2743 Q53.0855 -7.1649 51.6636 -7.1649 Q50.2418 -7.1649 49.4996 -6.2665 Q48.7574 -5.3681 48.7574 -3.6493 Z" /><ns0:path style="stroke:none;" d="M5.6775 -22.8103 Q5.6775 -20.7478 4.6384 -19.5681 Q3.5994 -18.3884 1.7556 -18.3884 Q-0.135 -18.3884 -1.1662 -19.5525 Q-2.1975 -20.7166 -2.1975 -22.8259 Q-2.1975 -24.9197 -1.1662 -26.0681 Q-0.135 -27.2166 1.7556 -27.2166 Q3.615 -27.2166 4.6462 -26.0447 Q5.6775 -24.8728 5.6775 -22.8103 ZM-1.1506 -22.8103 Q-1.1506 -21.0759 -0.4084 -20.1697 Q0.3338 -19.2634 1.7556 -19.2634 Q3.1775 -19.2634 3.9041 -20.1619 Q4.6306 -21.0603 4.6306 -22.8103 Q4.6306 -24.5447 3.9041 -25.4353 Q3.1775 -26.3259 1.7556 -26.3259 Q0.3338 -26.3259 -0.4084 -25.4275 Q-1.1506 -24.5291 -1.1506 -22.8103 Z" /></ns0:g><ns0:g transform="translate(59,33)" style="stroke-linecap:butt; text-rendering:geometricPrecision; color-rendering:optimizeQuality; image-rendering:optimizeQuality; font-family:'Open Sans'; color-interpolation:linearRGB; stroke-miterlimit:5;"><ns0:path style="fill:none;" d="M-25.2112 -10.7394 L-25.668 -10.536 L-25.6157 -10.0387" /><ns0:path style="fill:none;" d="M21.4785 -0.8156 L21.813 -0.444 L21.563 -0.011" /><ns0:path style="fill:none;" d="M-22.5853 18.8017 L-22.533 19.299 L-22.0439 19.4029" /><ns0:path style="fill:none;" d="M7.063 25.103 L6.813 25.536 L6.3239 25.4321" /></ns0:g></ns0:g></ns0:svg></ns0:svg></ns0:svg></ns0:svg></g></svg>