<svg xmlns:ns0="http://www.w3.org/2000/svg" xmlns="http://www.w3.org/2000/svg"><g transform="translate(0, 0)"><ns0:svg width="188" viewBox="0 0 188 90" style="fill-opacity:1; color-rendering:auto; color-interpolation:auto; text-rendering:auto; stroke:black; stroke-linecap:square; stroke-miterlimit:10; shape-rendering:auto; stroke-opacity:1; fill:black; stroke-dasharray:none; font-weight:normal; stroke-width:1; font-family:'Open Sans'; font-style:normal; stroke-linejoin:miter; font-size:12; stroke-dashoffset:0; image-rendering:auto;" height="90" class="cas-substance-image"><ns0:svg class="cas-substance-single-component"><ns0:rect y="0" x="0" width="188" stroke="none" ry="7" rx="7" height="90" fill="white" class="cas-substance-group" /><ns0:svg y="0" x="0" width="188" viewBox="0 0 188 90" style="fill:black;" height="90" class="cas-substance-single-component-image"><ns0:svg><ns0:g><ns0:g transform="translate(94,45)" style="text-rendering:geometricPrecision; color-rendering:optimizeQuality; color-interpolation:linearRGB; stroke-linecap:butt; image-rendering:optimizeQuality;"><ns0:line y2="4.5652" y1="-7.5" x2="-59.8694" x1="-38.97" style="fill:none;" /><ns0:line y2="4.989" y1="-7.5" x2="-17.3391" x1="-38.97" style="fill:none;" /><ns0:line y2="-31.1562" y1="-6.4896" x2="-37.22" x1="-37.22" style="fill:none;" /><ns0:line y2="-31.1562" y1="-6.4897" x2="-40.72" x1="-40.72" style="fill:none;" /><ns0:line y2="-7.5" y1="4.5649" x2="-90.933" x1="-70.0366" style="fill:none;" /><ns0:line y2="37.5" y1="13.6562" x2="-64.953" x1="-64.953" style="fill:none;" /><ns0:line y2="-4.9583" y1="5.1219" x2="8.5878" x1="-8.8711" style="fill:none;" /><ns0:line y2="7.5" y1="-4.9438" x2="38.97" x1="17.4174" style="fill:none;" /><ns0:line y2="-4.5652" y1="7.5" x2="59.8694" x1="38.97" style="fill:none;" /><ns0:line y2="31.0312" y1="6.4896" x2="37.22" x1="37.22" style="fill:none;" /><ns0:line y2="31.0312" y1="6.4897" x2="40.72" x1="40.72" style="fill:none;" /><ns0:line y2="7.5" y1="-4.5649" x2="90.933" x1="70.0366" style="fill:none;" /><ns0:line y2="-37.5" y1="-13.9062" x2="64.953" x1="64.953" style="fill:none;" /><ns0:path style="fill:none; stroke-miterlimit:5;" d="M-39.403 -7.25 L-38.97 -7.5 L-38.537 -7.25" /></ns0:g><ns0:g transform="translate(94,45)" style="stroke-linecap:butt; fill:rgb(0,5,255); text-rendering:geometricPrecision; color-rendering:optimizeQuality; image-rendering:optimizeQuality; font-family:'Open Sans'; stroke:rgb(0,5,255); color-interpolation:linearRGB; stroke-miterlimit:5;"><ns0:path style="stroke:none;" d="M-61.6014 11.6562 L-62.7421 11.6562 L-67.4296 4.4688 L-67.4764 4.4688 Q-67.3827 5.7344 -67.3827 6.7812 L-67.3827 11.6562 L-68.3046 11.6562 L-68.3046 3.0938 L-67.1796 3.0938 L-62.5077 10.25 L-62.4608 10.25 Q-62.4608 10.0938 -62.5077 9.2344 Q-62.5546 8.375 -62.5389 8 L-62.5389 3.0938 L-61.6014 3.0938 L-61.6014 11.6562 Z" /><ns0:path style="fill:rgb(148,108,0); stroke:none;" d="M-10.2947 9.4375 Q-10.2947 10.5625 -11.115 11.2031 Q-11.9353 11.8438 -13.3416 11.8438 Q-14.8728 11.8438 -15.6853 11.4375 L-15.6853 10.4844 Q-15.1541 10.7031 -14.5369 10.8359 Q-13.9197 10.9688 -13.3103 10.9688 Q-12.3103 10.9688 -11.8103 10.5859 Q-11.3103 10.2031 -11.3103 9.5312 Q-11.3103 9.0938 -11.49 8.8047 Q-11.6697 8.5156 -12.0837 8.2734 Q-12.4978 8.0312 -13.3572 7.7344 Q-14.5447 7.3125 -15.0603 6.7266 Q-15.5759 6.1406 -15.5759 5.1875 Q-15.5759 4.2031 -14.8337 3.6172 Q-14.0916 3.0312 -12.8572 3.0312 Q-11.5916 3.0312 -10.5134 3.5 L-10.8259 4.3594 Q-11.8884 3.9219 -12.8884 3.9219 Q-13.6853 3.9219 -14.1306 4.2578 Q-14.5759 4.5938 -14.5759 5.2031 Q-14.5759 5.6406 -14.4119 5.9297 Q-14.2478 6.2188 -13.8572 6.4531 Q-13.4666 6.6875 -12.6541 6.9844 Q-11.3103 7.4531 -10.8025 8.0078 Q-10.2947 8.5625 -10.2947 9.4375 Z" /><ns0:path style="fill:rgb(148,108,0); stroke:none;" d="M-36.2747 -35.5625 Q-36.2747 -34.4375 -37.095 -33.7969 Q-37.9153 -33.1562 -39.3216 -33.1562 Q-40.8528 -33.1562 -41.6653 -33.5625 L-41.6653 -34.5156 Q-41.1341 -34.2969 -40.5169 -34.1641 Q-39.8997 -34.0312 -39.2903 -34.0312 Q-38.2903 -34.0312 -37.7903 -34.4141 Q-37.2903 -34.7969 -37.2903 -35.4688 Q-37.2903 -35.9062 -37.47 -36.1953 Q-37.6497 -36.4844 -38.0638 -36.7266 Q-38.4778 -36.9688 -39.3372 -37.2656 Q-40.5247 -37.6875 -41.0403 -38.2734 Q-41.5559 -38.8594 -41.5559 -39.8125 Q-41.5559 -40.7969 -40.8138 -41.3828 Q-40.0716 -41.9688 -38.8372 -41.9688 Q-37.5716 -41.9688 -36.4934 -41.5 L-36.8059 -40.6406 Q-37.8684 -41.0781 -38.8684 -41.0781 Q-39.6653 -41.0781 -40.1106 -40.7422 Q-40.5559 -40.4062 -40.5559 -39.7969 Q-40.5559 -39.3594 -40.3919 -39.0703 Q-40.2278 -38.7812 -39.8372 -38.5469 Q-39.4466 -38.3125 -38.6341 -38.0156 Q-37.2903 -37.5469 -36.7825 -36.9922 Q-36.2747 -36.4375 -36.2747 -35.5625 Z" /><ns0:path style="fill:rgb(148,108,0); stroke:none;" d="M15.6853 -5.5625 Q15.6853 -4.4375 14.865 -3.7969 Q14.0447 -3.1562 12.6384 -3.1562 Q11.1072 -3.1562 10.2947 -3.5625 L10.2947 -4.5156 Q10.8259 -4.2969 11.4431 -4.1641 Q12.0603 -4.0312 12.6697 -4.0312 Q13.6697 -4.0312 14.1697 -4.4141 Q14.6697 -4.7969 14.6697 -5.4688 Q14.6697 -5.9062 14.49 -6.1953 Q14.3103 -6.4844 13.8962 -6.7266 Q13.4822 -6.9688 12.6228 -7.2656 Q11.4353 -7.6875 10.9197 -8.2734 Q10.4041 -8.8594 10.4041 -9.8125 Q10.4041 -10.7969 11.1462 -11.3828 Q11.8884 -11.9688 13.1228 -11.9688 Q14.3884 -11.9688 15.4666 -11.5 L15.1541 -10.6406 Q14.0916 -11.0781 13.0916 -11.0781 Q12.2947 -11.0781 11.8494 -10.7422 Q11.4041 -10.4062 11.4041 -9.7969 Q11.4041 -9.3594 11.5681 -9.0703 Q11.7322 -8.7812 12.1228 -8.5469 Q12.5134 -8.3125 13.3259 -8.0156 Q14.6697 -7.5469 15.1775 -6.9922 Q15.6853 -6.4375 15.6853 -5.5625 Z" /><ns0:path style="fill:none; stroke:black;" d="M38.537 7.25 L38.97 7.5 L39.403 7.25" /><ns0:path style="stroke:none;" d="M68.3046 -3.3438 L67.1639 -3.3438 L62.4764 -10.5312 L62.4296 -10.5312 Q62.5233 -9.2656 62.5233 -8.2188 L62.5233 -3.3438 L61.6014 -3.3438 L61.6014 -11.9062 L62.7264 -11.9062 L67.3983 -4.75 L67.4452 -4.75 Q67.4452 -4.9062 67.3983 -5.7656 Q67.3514 -6.625 67.3671 -7 L67.3671 -11.9062 L68.3046 -11.9062 L68.3046 -3.3438 Z" /><ns0:path style="fill:rgb(148,108,0); stroke:none;" d="M41.6653 39.4375 Q41.6653 40.5625 40.845 41.2031 Q40.0247 41.8438 38.6184 41.8438 Q37.0872 41.8438 36.2747 41.4375 L36.2747 40.4844 Q36.8059 40.7031 37.4231 40.8359 Q38.0403 40.9688 38.6497 40.9688 Q39.6497 40.9688 40.1497 40.5859 Q40.6497 40.2031 40.6497 39.5312 Q40.6497 39.0938 40.47 38.8047 Q40.2903 38.5156 39.8763 38.2734 Q39.4622 38.0312 38.6028 37.7344 Q37.4153 37.3125 36.8997 36.7266 Q36.3841 36.1406 36.3841 35.1875 Q36.3841 34.2031 37.1263 33.6172 Q37.8684 33.0312 39.1028 33.0312 Q40.3684 33.0312 41.4466 33.5 L41.1341 34.3594 Q40.0716 33.9219 39.0716 33.9219 Q38.2747 33.9219 37.8294 34.2578 Q37.3841 34.5938 37.3841 35.2031 Q37.3841 35.6406 37.5481 35.9297 Q37.7122 36.2188 38.1028 36.4531 Q38.4934 36.6875 39.3059 36.9844 Q40.6497 37.4531 41.1575 38.0078 Q41.6653 38.5625 41.6653 39.4375 Z" /></ns0:g></ns0:g></ns0:svg></ns0:svg></ns0:svg></ns0:svg></g></svg>