<svg width="345" viewBox="0 0 345 202" style="fill-opacity:1; color-rendering:auto; color-interpolation:auto; text-rendering:auto; stroke:black; stroke-linecap:square; stroke-miterlimit:10; shape-rendering:auto; stroke-opacity:1; fill:black; stroke-dasharray:none; font-weight:normal; stroke-width:1; font-family:'Open Sans'; font-style:normal; stroke-linejoin:miter; font-size:12; stroke-dashoffset:0; image-rendering:auto;" height="202" class="cas-substance-image" xmlns:xlink="http://www.w3.org/1999/xlink" xmlns="http://www.w3.org/2000/svg"><svg class="cas-substance-single-component"><rect y="0" x="0" width="345" stroke="none" ry="7" rx="7" height="202" fill="white" class="cas-substance-group"/><svg y="0" x="0" width="345" viewBox="0 0 345 187" style="fill:black;" height="187" class="cas-substance-single-component-image"><svg><g><g transform="translate(173,95)" style="text-rendering:geometricPrecision; color-rendering:optimizeQuality; color-interpolation:linearRGB; stroke-linecap:butt; image-rendering:optimizeQuality;"><line y2="-32.232" y1="-2.232" x2="-79.068" x1="-79.068" style="fill:none;"/><path style="stroke:none;" d="M-49.068 -2.732 L-49.068 -1.732 L-79.068 0.768 L-79.068 -2.232 L-79.068 -5.232 Z"/><line y2="-2.232" y1="-2.232" x2="-109.068" x1="-79.068" style="fill:none;"/><line y2="27.768" y1="-2.232" x2="-79.068" x1="-79.068" style="fill:none;"/><line y2="-44.2972" y1="-32.232" x2="-58.1687" x1="-79.068" style="fill:none;"/><line y2="-45.5689" y1="-33.2423" x2="-98.6676" x1="-77.3179" style="fill:none;"/><line y2="-42.5379" y1="-30.2113" x2="-100.4177" x1="-79.068" style="fill:none;"/><line y2="-22.665" y1="-34.866" x2="48.774" x1="21.369" style="fill:none;"/><line y2="-20.8428" y1="-34.866" x2="2.0686" x1="21.369" style="fill:none;"/><line y2="-40.299" y1="-22.665" x2="73.047" x1="48.774" style="fill:none;"/><line y2="-26.502" y1="-2.232" x2="-31.434" x1="-49.068" style="fill:none;"/><line y2="22.038" y1="-2.232" x2="-31.434" x1="-49.068" style="fill:none;"/><line y2="-18.9389" y1="-26.502" x2="-8.1547" x1="-31.434" style="fill:none;"/><line y2="12.768" y1="22.038" x2="-2.901" x1="-31.434" style="fill:none;"/><line y2="12.768" y1="-11.0758" x2="-2.901" x1="-2.901" style="fill:none;"/><line y2="-28.215" y1="-2.232" x2="-124.068" x1="-109.068" style="fill:none;"/><line y2="-24.7151" y1="-2.2322" x2="-126.0889" x1="-113.1095" style="fill:none;"/><line y2="23.748" y1="-2.232" x2="-124.068" x1="-109.068" style="fill:none;"/><line y2="-28.215" y1="-28.215" x2="-154.068" x1="-124.068" style="fill:none;"/><line y2="23.748" y1="23.748" x2="-154.068" x1="-124.068" style="fill:none;"/><line y2="20.248" y1="20.248" x2="-152.0473" x1="-126.0887" style="fill:none;"/><line y2="-2.232" y1="-28.215" x2="-169.068" x1="-154.068" style="fill:none;"/><line y2="-2.2322" y1="-24.7151" x2="-165.0266" x1="-152.0471" style="fill:none;"/><line y2="-2.232" y1="23.748" x2="-169.068" x1="-154.068" style="fill:none;"/><line y2="42.768" y1="27.768" x2="-105.048" x1="-79.068" style="fill:none;"/><line y2="44.7887" y1="31.8095" x2="-101.548" x1="-79.0679" style="fill:none;"/><line y2="42.768" y1="27.768" x2="-53.085" x1="-79.068" style="fill:none;"/><line y2="72.768" y1="42.768" x2="-105.048" x1="-105.048" style="fill:none;"/><line y2="72.768" y1="42.768" x2="-53.085" x1="-53.085" style="fill:none;"/><line y2="70.7473" y1="44.7887" x2="-56.585" x1="-56.585" style="fill:none;"/><line y2="87.768" y1="72.768" x2="-79.068" x1="-105.048" style="fill:none;"/><line y2="83.7266" y1="70.7473" x2="-79.0679" x1="-101.548" style="fill:none;"/><line y2="87.768" y1="72.768" x2="-79.068" x1="-53.085" style="fill:none;"/><line y2="-28.095" y1="-40.299" x2="100.452" x1="73.047" style="fill:none;"/><line y2="-70.134" y1="-40.299" x2="69.909" x1="73.047" style="fill:none;"/><line y2="-68.4905" y1="-42.6747" x2="73.6012" x1="76.3164" style="fill:none;"/><line y2="-45.729" y1="-28.095" x2="124.722" x1="100.452" style="fill:none;"/><line y2="-47.3727" y1="-32.1143" x2="121.0299" x1="100.0295" style="fill:none;"/><line y2="-87.768" y1="-70.134" x2="94.179" x1="69.909" style="fill:none;"/><line y2="-75.564" y1="-45.729" x2="121.587" x1="124.722" style="fill:none;"/><line y2="-39.492" y1="-45.729" x2="154.068" x1="124.722" style="fill:none;"/><line y2="-75.564" y1="-87.768" x2="121.587" x1="94.179" style="fill:none;"/><line y2="-73.1886" y1="-83.7487" x2="118.3173" x1="94.6013" style="fill:none;"/><line y2="-85.2009" y1="-75.564" x2="143.2275" x1="121.587" style="fill:none;"/><line y2="-65.472" y1="-39.492" x2="169.068" x1="154.068" style="fill:none;"/><line y2="-65.472" y1="-83.0861" x2="169.068" x1="153.2078" style="fill:none;"/><path style="fill:none; stroke-miterlimit:5;" d="M-79.068 -31.732 L-79.068 -32.232 L-78.635 -32.482"/></g><g transform="translate(173,95)" style="stroke-linecap:butt; fill:rgb(0,5,255); text-rendering:geometricPrecision; color-rendering:optimizeQuality; image-rendering:optimizeQuality; font-family:'Open Sans'; stroke:rgb(0,5,255); color-interpolation:linearRGB; stroke-miterlimit:5;"><path style="stroke:none;" d="M-49.7334 -43.0757 L-50.8741 -43.0757 L-55.5616 -50.2632 L-55.6084 -50.2632 Q-55.5147 -48.9976 -55.5147 -47.9507 L-55.5147 -43.0757 L-56.4366 -43.0757 L-56.4366 -51.6382 L-55.3116 -51.6382 L-50.6397 -44.482 L-50.5928 -44.482 Q-50.5928 -44.6382 -50.6397 -45.4976 Q-50.6866 -46.357 -50.6709 -46.732 L-50.6709 -51.6382 L-49.7334 -51.6382 L-49.7334 -43.0757 Z"/><path style="stroke:none;" d="M-42.2178 -43.0757 L-43.2178 -43.0757 L-43.2178 -47.107 L-47.7334 -47.107 L-47.7334 -43.0757 L-48.7334 -43.0757 L-48.7334 -51.6382 L-47.7334 -51.6382 L-47.7334 -47.9976 L-43.2178 -47.9976 L-43.2178 -51.6382 L-42.2178 -51.6382 L-42.2178 -43.0757 Z"/><path style="stroke:none;" d="M-37.4678 -41.2664 L-41.2178 -41.2664 L-41.2178 -41.8289 L-39.7178 -43.3445 Q-39.0303 -44.032 -38.8116 -44.3289 Q-38.5928 -44.6257 -38.4834 -44.907 Q-38.3741 -45.1882 -38.3741 -45.5164 Q-38.3741 -45.9695 -38.6475 -46.2351 Q-38.9209 -46.5007 -39.4209 -46.5007 Q-39.7647 -46.5007 -40.085 -46.3836 Q-40.4053 -46.2664 -40.7959 -45.9695 L-41.1397 -46.407 Q-40.3584 -47.0632 -39.4209 -47.0632 Q-38.6241 -47.0632 -38.1631 -46.6492 Q-37.7022 -46.2351 -37.7022 -45.5476 Q-37.7022 -45.0007 -38.0069 -44.4695 Q-38.3116 -43.9382 -39.1553 -43.1257 L-40.4053 -41.907 L-40.4053 -41.8757 L-37.4678 -41.8757 L-37.4678 -41.2664 Z"/><path style="fill:rgb(230,0,0); stroke:none;" d="M-101.1105 -47.3023 Q-101.1105 -45.2398 -102.1496 -44.0601 Q-103.1886 -42.8804 -105.0324 -42.8804 Q-106.923 -42.8804 -107.9543 -44.0445 Q-108.9855 -45.2086 -108.9855 -47.3179 Q-108.9855 -49.4117 -107.9543 -50.5601 Q-106.923 -51.7086 -105.0324 -51.7086 Q-103.173 -51.7086 -102.1418 -50.5367 Q-101.1105 -49.3648 -101.1105 -47.3023 ZM-107.9386 -47.3023 Q-107.9386 -45.5679 -107.1964 -44.6617 Q-106.4543 -43.7554 -105.0324 -43.7554 Q-103.6105 -43.7554 -102.8839 -44.6539 Q-102.1574 -45.5523 -102.1574 -47.3023 Q-102.1574 -49.0367 -102.8839 -49.9273 Q-103.6105 -50.8179 -105.0324 -50.8179 Q-106.4543 -50.8179 -107.1964 -49.9195 Q-107.9386 -49.0211 -107.9386 -47.3023 Z"/><path style="fill:none; stroke:black;" d="M21.8258 -34.6626 L21.369 -34.866 L20.9645 -34.5721"/><path style="fill:none; stroke:black;" d="M48.3172 -22.8684 L48.774 -22.665 L49.1785 -22.9589"/></g><g transform="translate(173,95)" style="stroke-linecap:butt; font-size:8.4px; fill:gray; text-rendering:geometricPrecision; image-rendering:optimizeQuality; color-rendering:optimizeQuality; font-family:'Open Sans'; font-style:italic; stroke:gray; color-interpolation:linearRGB; stroke-miterlimit:5;"><path style="stroke:none;" d="M-57.7163 -9.939 Q-57.7163 -11.2671 -57.2476 -12.3921 Q-56.7788 -13.5171 -55.7476 -14.5952 L-55.1382 -14.5952 Q-56.107 -13.5327 -56.5913 -12.3609 Q-57.0757 -11.189 -57.0757 -9.9546 Q-57.0757 -8.6265 -56.6382 -7.6109 L-57.1538 -7.6109 Q-57.7163 -8.6421 -57.7163 -9.939 ZM-52.0938 -10.5327 Q-52.0938 -9.7046 -52.6406 -9.2515 Q-53.1875 -8.7984 -54.1875 -8.7984 Q-54.5938 -8.7984 -54.9063 -8.8531 Q-55.2188 -8.9077 -55.5 -9.0484 L-55.5 -9.7046 Q-54.875 -9.3765 -54.1719 -9.3765 Q-53.5469 -9.3765 -53.1719 -9.6734 Q-52.7969 -9.9702 -52.7969 -10.4859 Q-52.7969 -10.7984 -53 -11.0249 Q-53.2031 -11.2515 -53.7656 -11.5796 Q-54.3594 -11.9077 -54.586 -12.2359 Q-54.8125 -12.564 -54.8125 -13.0171 Q-54.8125 -13.7515 -54.2969 -14.2124 Q-53.7813 -14.6734 -52.9375 -14.6734 Q-52.5625 -14.6734 -52.2266 -14.5952 Q-51.8906 -14.5171 -51.5156 -14.3452 L-51.7813 -13.7515 Q-52.0313 -13.9077 -52.3516 -13.9937 Q-52.6719 -14.0796 -52.9375 -14.0796 Q-53.4688 -14.0796 -53.7891 -13.8062 Q-54.1094 -13.5327 -54.1094 -13.064 Q-54.1094 -12.8609 -54.0391 -12.7124 Q-53.9688 -12.564 -53.8281 -12.4312 Q-53.6875 -12.2984 -53.2656 -12.0484 Q-52.7031 -11.7046 -52.5 -11.5093 Q-52.2969 -11.314 -52.1953 -11.0796 Q-52.0938 -10.8452 -52.0938 -10.5327 ZM-49.4993 -12.2515 Q-49.4993 -10.9234 -49.9758 -9.7906 Q-50.4524 -8.6577 -51.468 -7.6109 L-52.0774 -7.6109 Q-50.1399 -9.7671 -50.1399 -12.2515 Q-50.1399 -13.5796 -50.5774 -14.5952 L-50.0618 -14.5952 Q-49.4993 -13.5327 -49.4993 -12.2515 Z"/><path style="fill:none; stroke:black;" d="M-31.7279 -26.0975 L-31.434 -26.502 L-30.9585 -26.3475"/><path style="fill:none; stroke:black;" d="M-31.7279 21.6335 L-31.434 22.038 L-30.9585 21.8835"/></g><g transform="translate(173,95)" style="stroke-linecap:butt; fill:rgb(0,5,255); text-rendering:geometricPrecision; color-rendering:optimizeQuality; image-rendering:optimizeQuality; font-family:'Open Sans'; stroke:rgb(0,5,255); color-interpolation:linearRGB; stroke-miterlimit:5;"><path style="stroke:none;" d="M0.4506 -13.0758 L-0.6901 -13.0758 L-5.3776 -20.2633 L-5.4244 -20.2633 Q-5.3307 -18.9976 -5.3307 -17.9508 L-5.3307 -13.0758 L-6.2526 -13.0758 L-6.2526 -21.6383 L-5.1276 -21.6383 L-0.4557 -14.482 L-0.4088 -14.482 Q-0.4088 -14.6383 -0.4557 -15.4976 Q-0.5026 -16.357 -0.4869 -16.732 L-0.4869 -21.6383 L0.4506 -21.6383 L0.4506 -13.0758 Z"/><path style="fill:none; stroke:black;" d="M-3.3765 12.9225 L-2.901 12.768 L-2.901 12.268"/><path style="fill:none; stroke:black;" d="M-109.318 -2.665 L-109.068 -2.232 L-108.568 -2.232"/><path style="fill:none; stroke:black;" d="M-123.818 -27.782 L-124.068 -28.215 L-124.568 -28.215"/><path style="fill:none; stroke:black;" d="M-123.818 23.315 L-124.068 23.748 L-124.568 23.748"/><path style="fill:none; stroke:black;" d="M-153.568 -28.215 L-154.068 -28.215 L-154.318 -27.782"/><path style="fill:none; stroke:black;" d="M-153.568 23.748 L-154.068 23.748 L-154.318 23.315"/><path style="fill:none; stroke:black;" d="M-168.818 -2.665 L-169.068 -2.232 L-168.818 -1.799"/><path style="fill:none; stroke:black;" d="M-79.501 28.018 L-79.068 27.768 L-79.068 27.268"/><path style="fill:none; stroke:black;" d="M-104.615 42.518 L-105.048 42.768 L-105.048 43.268"/><path style="fill:none; stroke:black;" d="M-53.518 42.518 L-53.085 42.768 L-53.085 43.268"/><path style="fill:none; stroke:black;" d="M-105.048 72.268 L-105.048 72.768 L-104.615 73.018"/><path style="fill:none; stroke:black;" d="M-53.085 72.268 L-53.085 72.768 L-53.518 73.018"/><path style="fill:none; stroke:black;" d="M-79.501 87.518 L-79.068 87.768 L-78.635 87.518"/><path style="fill:none; stroke:black;" d="M72.9947 -40.7963 L73.047 -40.299 L72.6425 -40.0051"/><path style="fill:none; stroke:black;" d="M99.9952 -28.2984 L100.452 -28.095 L100.8565 -28.3889"/><path style="fill:none; stroke:black;" d="M69.9613 -69.6367 L69.909 -70.134 L70.3135 -70.4279"/><path style="fill:none; stroke:black;" d="M124.3175 -45.4351 L124.722 -45.729 L124.6697 -46.2263"/><path style="fill:none; stroke:black;" d="M93.7745 -87.4741 L94.179 -87.768 L94.6358 -87.5646"/><path style="fill:none; stroke:black;" d="M121.1302 -75.7674 L121.587 -75.564 L122.0438 -75.7674"/><path style="fill:none; stroke:black;" d="M153.5789 -39.5959 L154.068 -39.492 L154.318 -39.925"/><path style="fill:rgb(230,0,0); stroke:none;" d="M152.9295 -87.8383 Q152.9295 -85.7758 151.8904 -84.5961 Q150.8514 -83.4164 149.0076 -83.4164 Q147.117 -83.4164 146.0858 -84.5805 Q145.0545 -85.7446 145.0545 -87.8539 Q145.0545 -89.9477 146.0858 -91.0961 Q147.117 -92.2446 149.0076 -92.2446 Q150.867 -92.2446 151.8983 -91.0727 Q152.9295 -89.9008 152.9295 -87.8383 ZM146.1014 -87.8383 Q146.1014 -86.1039 146.8436 -85.1977 Q147.5858 -84.2914 149.0076 -84.2914 Q150.4295 -84.2914 151.1561 -85.1899 Q151.8826 -86.0883 151.8826 -87.8383 Q151.8826 -89.5727 151.1561 -90.4633 Q150.4295 -91.3539 149.0076 -91.3539 Q147.5858 -91.3539 146.8436 -90.4555 Q146.1014 -89.5571 146.1014 -87.8383 Z"/><path style="fill:none; stroke:black;" d="M168.818 -65.039 L169.068 -65.472 L168.7334 -65.8436"/></g></g></svg></svg><svg y="187" x="164" class="cas-substance-saf"><svg y="5" x="0" width="4" style="fill:black;" height="4" class="cas-substance-saf-dot"><circle stroke="none" r="2" fill="black" cy="2" cx="2"/></svg><svg y="0" x="8" width="25" style="fill:black;" height="15" class="cas-substance-saf-image"><svg><g><g transform="translate(6,7)" style="fill:rgb(0,138,0); text-rendering:geometricPrecision; color-rendering:optimizeQuality; image-rendering:optimizeQuality; font-family:'Open Sans'; stroke:rgb(0,138,0); color-interpolation:linearRGB;"><path style="stroke:none;" d="M3.2578 4.1562 L2.2578 4.1562 L2.2578 0.125 L-2.2578 0.125 L-2.2578 4.1562 L-3.2578 4.1562 L-3.2578 -4.4062 L-2.2578 -4.4062 L-2.2578 -0.7656 L2.2578 -0.7656 L2.2578 -4.4062 L3.2578 -4.4062 L3.2578 4.1562 Z"/><path style="stroke:none;" d="M4.2578 -4.4062 L6.6797 -4.4062 Q8.3828 -4.4062 9.1484 -3.8984 Q9.9141 -3.3906 9.9141 -2.2969 Q9.9141 -1.5312 9.4922 -1.0312 Q9.0703 -0.5312 8.2422 -0.3906 L8.2422 -0.3281 Q10.1953 0 10.1953 1.7188 Q10.1953 2.8594 9.4219 3.5078 Q8.6484 4.1562 7.2578 4.1562 L4.2578 4.1562 L4.2578 -4.4062 ZM5.2578 -0.75 L6.8984 -0.75 Q7.9609 -0.75 8.4219 -1.0781 Q8.8828 -1.4062 8.8828 -2.1875 Q8.8828 -2.9062 8.3672 -3.2266 Q7.8516 -3.5469 6.7266 -3.5469 L5.2578 -3.5469 L5.2578 -0.75 ZM5.2578 0.0938 L5.2578 3.3125 L7.0547 3.3125 Q8.0859 3.3125 8.6094 2.9062 Q9.1328 2.5 9.1328 1.6406 Q9.1328 0.8438 8.5938 0.4688 Q8.0547 0.0938 6.9609 0.0938 L5.2578 0.0938 ZM14.8301 -2.3906 Q15.252 -2.3906 15.5957 -2.3125 L15.4551 -1.4062 Q15.0645 -1.5 14.752 -1.5 Q13.9707 -1.5 13.416 -0.8672 Q12.8613 -0.2344 12.8613 0.7031 L12.8613 4.1562 L11.8926 4.1562 L11.8926 -2.2656 L12.6895 -2.2656 L12.8145 -1.0781 L12.8613 -1.0781 Q13.2051 -1.7031 13.7129 -2.0469 Q14.2207 -2.3906 14.8301 -2.3906 Z"/></g></g></svg></svg></svg></svg></svg>