<svg width="345" viewBox="0 0 345 161" style="fill-opacity:1; color-rendering:auto; color-interpolation:auto; text-rendering:auto; stroke:black; stroke-linecap:square; stroke-miterlimit:10; shape-rendering:auto; stroke-opacity:1; fill:black; stroke-dasharray:none; font-weight:normal; stroke-width:1; font-family:'Open Sans'; font-style:normal; stroke-linejoin:miter; font-size:12; stroke-dashoffset:0; image-rendering:auto;" height="161" class="cas-substance-image" xmlns:xlink="http://www.w3.org/1999/xlink" xmlns="http://www.w3.org/2000/svg"><svg class="cas-substance-single-component"><rect y="0" x="0" width="345" stroke="none" ry="7" rx="7" height="161" fill="white" class="cas-substance-group"/><svg y="0" x="0" width="345" viewBox="0 0 345 146" style="fill:black;" height="146" class="cas-substance-single-component-image"><svg><g><g transform="translate(172,75)" style="text-rendering:geometricPrecision; color-rendering:optimizeQuality; color-interpolation:linearRGB; stroke-linecap:butt; image-rendering:optimizeQuality;"><line y2="-22.5" y1="-37.5" x2="12.99" x1="-12.99" style="fill:none;"/><line y2="-22.5" y1="-37.5" x2="-38.97" x1="-12.99" style="fill:none;"/><line y2="-37.5" y1="-22.5" x2="38.97" x1="12.99" style="fill:none;"/><path style="stroke:none;" d="M12.4056 -21.7031 L12.2996 -20.7031 L13.6804 -20.7031 L13.5744 -21.7031 ZM12.0877 -18.7031 L11.9817 -17.7031 L13.9983 -17.7031 L13.8923 -18.7031 ZM11.7698 -15.7031 L11.6638 -14.7031 L14.3162 -14.7031 L14.2102 -15.7031 ZM11.4519 -12.7031 L11.346 -11.7031 L14.634 -11.7031 L14.5281 -12.7031 ZM11.134 -9.7031 L11.0281 -8.7031 L14.9519 -8.7031 L14.846 -9.7031 ZM10.8162 -6.7031 L10.7102 -5.7031 L15.2698 -5.7031 L15.1638 -6.7031 ZM10.4983 -3.7031 L10.3923 -2.7031 L15.5877 -2.7031 L15.4817 -3.7031 ZM10.1804 -0.7031 L10.0744 0.2969 L15.9056 0.2969 L15.7996 -0.7031 Z"/><line y2="-22.5" y1="-37.5" x2="64.953" x1="38.97" style="fill:none;"/><line y2="-37.5" y1="-22.5" x2="90.933" x1="64.953" style="fill:none;"/><path style="stroke:none;" d="M64.3697 -21.5 L64.2863 -20.5 L65.6197 -20.5 L65.5363 -21.5 ZM64.1197 -18.5 L64.0363 -17.5 L65.8697 -17.5 L65.7863 -18.5 ZM63.8697 -15.5 L63.7863 -14.5 L66.1197 -14.5 L66.0363 -15.5 ZM63.6197 -12.5 L63.5363 -11.5 L66.3697 -11.5 L66.2863 -12.5 ZM63.3697 -9.5 L63.2863 -8.5 L66.6197 -8.5 L66.5363 -9.5 ZM63.1197 -6.5 L63.0363 -5.5 L66.8697 -5.5 L66.7863 -6.5 ZM62.8697 -3.5 L62.7863 -2.5 L67.1197 -2.5 L67.0363 -3.5 ZM62.6197 -0.5 L62.5363 0.5 L67.3697 0.5 L67.2863 -0.5 ZM62.3697 2.5 L62.2863 3.5 L67.6197 3.5 L67.5363 2.5 ZM62.1197 5.5 L62.0363 6.5 L67.8697 6.5 L67.7863 5.5 Z"/><line y2="-25.7414" y1="-37.5" x2="111.2989" x1="90.933" style="fill:none;"/><line y2="-61.1484" y1="-36.4896" x2="92.683" x1="92.683" style="fill:none;"/><line y2="-61.1484" y1="-36.4896" x2="89.183" x1="89.183" style="fill:none;"/><line y2="-37.5" y1="-25.726" x2="142.893" x1="122.5005" style="fill:none;"/><line y2="-22.5" y1="-37.5" x2="168.876" x1="142.893" style="fill:none;"/><line y2="22.5" y1="7.5" x2="-64.953" x1="-90.933" style="fill:none;"/><line y2="18.4585" y1="5.4793" x2="-64.9529" x1="-87.433" style="fill:none;"/><line y2="-22.5" y1="7.5" x2="-90.933" x1="-90.933" style="fill:none;"/><line y2="22.5" y1="7.5" x2="-116.913" x1="-90.933" style="fill:none;"/><line y2="7.5" y1="22.5" x2="-38.97" x1="-64.953" style="fill:none;"/><line y2="-37.5" y1="-22.5" x2="-64.953" x1="-90.933" style="fill:none;"/><line y2="-33.4585" y1="-20.4793" x2="-64.9529" x1="-87.433" style="fill:none;"/><line y2="-22.5" y1="7.5" x2="-38.97" x1="-38.97" style="fill:none;"/><line y2="-20.4793" y1="5.4793" x2="-42.47" x1="-42.47" style="fill:none;"/><line y2="-22.5" y1="-37.5" x2="-38.97" x1="-64.953" style="fill:none;"/><line y2="7.5" y1="22.5" x2="-142.893" x1="-116.913" style="fill:none;"/><line y2="11.5415" y1="24.5207" x2="-142.8931" x1="-120.413" style="fill:none;"/><line y2="52.5" y1="22.5" x2="-116.913" x1="-116.913" style="fill:none;"/><line y2="22.5" y1="7.5" x2="-168.876" x1="-142.893" style="fill:none;"/><line y2="67.5" y1="52.5" x2="-142.893" x1="-116.913" style="fill:none;"/><line y2="63.4585" y1="50.4793" x2="-142.8931" x1="-120.413" style="fill:none;"/><line y2="52.5" y1="22.5" x2="-168.876" x1="-168.876" style="fill:none;"/><line y2="50.4793" y1="24.5207" x2="-165.376" x1="-165.376" style="fill:none;"/><line y2="52.5" y1="67.5" x2="-168.876" x1="-142.893" style="fill:none;"/><path style="fill:none; stroke-miterlimit:5;" d="M-12.557 -37.25 L-12.99 -37.5 L-13.423 -37.25"/><path style="fill:none; stroke-miterlimit:5;" d="M12.557 -22.75 L12.99 -22.5 L13.423 -22.75"/></g><g transform="translate(172,75)" style="stroke-linecap:butt; font-size:8.4px; fill:gray; text-rendering:geometricPrecision; image-rendering:optimizeQuality; color-rendering:optimizeQuality; font-family:'Open Sans'; font-style:italic; stroke:gray; color-interpolation:linearRGB; stroke-miterlimit:5;"><path style="stroke:none;" d="M8.8815 -31.2969 Q8.8815 -32.625 9.3502 -33.75 Q9.819 -34.875 10.8502 -35.9531 L11.4596 -35.9531 Q10.4909 -34.8906 10.0065 -33.7188 Q9.5221 -32.5469 9.5221 -31.3125 Q9.5221 -29.9844 9.9596 -28.9688 L9.444 -28.9688 Q8.8815 -30 8.8815 -31.2969 ZM14.504 -31.8906 Q14.504 -31.0625 13.9572 -30.6094 Q13.4103 -30.1562 12.4103 -30.1562 Q12.004 -30.1562 11.6915 -30.2109 Q11.379 -30.2656 11.0978 -30.4062 L11.0978 -31.0625 Q11.7228 -30.7344 12.4259 -30.7344 Q13.0509 -30.7344 13.4259 -31.0312 Q13.8009 -31.3281 13.8009 -31.8438 Q13.8009 -32.1562 13.5978 -32.3828 Q13.3947 -32.6094 12.8322 -32.9375 Q12.2384 -33.2656 12.0119 -33.5938 Q11.7853 -33.9219 11.7853 -34.375 Q11.7853 -35.1094 12.3009 -35.5703 Q12.8165 -36.0312 13.6603 -36.0312 Q14.0353 -36.0312 14.3712 -35.9531 Q14.7072 -35.875 15.0822 -35.7031 L14.8165 -35.1094 Q14.5665 -35.2656 14.2462 -35.3516 Q13.9259 -35.4375 13.6603 -35.4375 Q13.129 -35.4375 12.8087 -35.1641 Q12.4884 -34.8906 12.4884 -34.4219 Q12.4884 -34.2188 12.5587 -34.0703 Q12.629 -33.9219 12.7697 -33.7891 Q12.9103 -33.6562 13.3322 -33.4062 Q13.8947 -33.0625 14.0978 -32.8672 Q14.3009 -32.6719 14.4025 -32.4375 Q14.504 -32.2031 14.504 -31.8906 ZM17.0985 -33.6094 Q17.0985 -32.2812 16.622 -31.1484 Q16.1454 -30.0156 15.1298 -28.9688 L14.5204 -28.9688 Q16.4579 -31.125 16.4579 -33.6094 Q16.4579 -34.9375 16.0204 -35.9531 L16.536 -35.9531 Q17.0985 -34.8906 17.0985 -33.6094 Z"/><path style="fill:none; stroke:black;" d="M38.537 -37.25 L38.97 -37.5 L39.403 -37.25"/></g><g transform="translate(172,75)" style="stroke-linecap:butt; fill:rgb(0,5,255); text-rendering:geometricPrecision; color-rendering:optimizeQuality; image-rendering:optimizeQuality; font-family:'Open Sans'; stroke:rgb(0,5,255); color-interpolation:linearRGB; stroke-miterlimit:5;"><path style="stroke:none;" d="M16.3416 11.6562 L15.2009 11.6562 L10.5134 4.4688 L10.4666 4.4688 Q10.5603 5.7344 10.5603 6.7812 L10.5603 11.6562 L9.6384 11.6562 L9.6384 3.0938 L10.7634 3.0938 L15.4353 10.25 L15.4822 10.25 Q15.4822 10.0938 15.4353 9.2344 Q15.3884 8.375 15.4041 8 L15.4041 3.0938 L16.3416 3.0938 L16.3416 11.6562 Z"/><path style="stroke:none;" d="M23.8572 11.6562 L22.8572 11.6562 L22.8572 7.625 L18.3416 7.625 L18.3416 11.6562 L17.3416 11.6562 L17.3416 3.0938 L18.3416 3.0938 L18.3416 6.7344 L22.8572 6.7344 L22.8572 3.0938 L23.8572 3.0938 L23.8572 11.6562 Z"/><path style="stroke:none;" d="M28.6072 13.4656 L24.8572 13.4656 L24.8572 12.9031 L26.3572 11.3875 Q27.0447 10.7 27.2634 10.4031 Q27.4822 10.1062 27.5916 9.825 Q27.7009 9.5437 27.7009 9.2156 Q27.7009 8.7625 27.4275 8.4969 Q27.1541 8.2312 26.6541 8.2312 Q26.3103 8.2312 25.99 8.3484 Q25.6697 8.4656 25.2791 8.7625 L24.9353 8.325 Q25.7166 7.6687 26.6541 7.6687 Q27.4509 7.6687 27.9119 8.0828 Q28.3728 8.4969 28.3728 9.1844 Q28.3728 9.7312 28.0681 10.2625 Q27.7634 10.7937 26.9197 11.6062 L25.6697 12.825 L25.6697 12.8562 L28.6072 12.8562 L28.6072 13.4656 Z"/><path style="fill:none; stroke:black;" d="M64.52 -22.75 L64.953 -22.5 L65.386 -22.75"/></g><g transform="translate(172,75)" style="stroke-linecap:butt; font-size:8.4px; fill:gray; text-rendering:geometricPrecision; image-rendering:optimizeQuality; color-rendering:optimizeQuality; font-family:'Open Sans'; font-style:italic; stroke:gray; color-interpolation:linearRGB; stroke-miterlimit:5;"><path style="stroke:none;" d="M60.5641 -31.3359 Q60.5641 -32.6641 61.0329 -33.7891 Q61.5016 -34.9141 62.5329 -35.9922 L63.1422 -35.9922 Q62.1735 -34.9297 61.6891 -33.7578 Q61.2047 -32.5859 61.2047 -31.3516 Q61.2047 -30.0234 61.6422 -29.0078 L61.1266 -29.0078 Q60.5641 -30.0391 60.5641 -31.3359 ZM64.1242 -32.6484 L63.6242 -30.2734 L62.9679 -30.2734 L64.171 -35.9922 L65.421 -35.9922 Q67.1554 -35.9922 67.1554 -34.5547 Q67.1554 -33.1953 65.7179 -32.8047 L66.6554 -30.2734 L65.9367 -30.2734 L65.1085 -32.6484 L64.1242 -32.6484 ZM64.7023 -35.3984 Q64.3117 -33.4766 64.2492 -33.2266 L64.9054 -33.2266 Q65.6554 -33.2266 66.0617 -33.5547 Q66.4679 -33.8828 66.4679 -34.5078 Q66.4679 -34.9766 66.2101 -35.1875 Q65.9523 -35.3984 65.3585 -35.3984 L64.7023 -35.3984 ZM69.3414 -33.6484 Q69.3414 -32.3203 68.8648 -31.1875 Q68.3883 -30.0547 67.3726 -29.0078 L66.7633 -29.0078 Q68.7008 -31.1641 68.7008 -33.6484 Q68.7008 -34.9766 68.2633 -35.9922 L68.7789 -35.9922 Q69.3414 -34.9297 69.3414 -33.6484 Z"/><path style="fill:none; stroke:black;" d="M90.5 -37.25 L90.933 -37.5 L91.366 -37.25"/></g><g transform="translate(172,75)" style="stroke-linecap:butt; fill:rgb(230,0,0); text-rendering:geometricPrecision; color-rendering:optimizeQuality; image-rendering:optimizeQuality; font-family:'Open Sans'; stroke:rgb(230,0,0); color-interpolation:linearRGB; stroke-miterlimit:5;"><path style="stroke:none;" d="M120.8505 -22.5703 Q120.8505 -20.5078 119.8114 -19.3281 Q118.7724 -18.1484 116.9286 -18.1484 Q115.038 -18.1484 114.0068 -19.3125 Q112.9755 -20.4766 112.9755 -22.5859 Q112.9755 -24.6797 114.0068 -25.8281 Q115.038 -26.9766 116.9286 -26.9766 Q118.788 -26.9766 119.8193 -25.8047 Q120.8505 -24.6328 120.8505 -22.5703 ZM114.0224 -22.5703 Q114.0224 -20.8359 114.7646 -19.9297 Q115.5068 -19.0234 116.9286 -19.0234 Q118.3505 -19.0234 119.0771 -19.9219 Q119.8036 -20.8203 119.8036 -22.5703 Q119.8036 -24.3047 119.0771 -25.1953 Q118.3505 -26.0859 116.9286 -26.0859 Q115.5068 -26.0859 114.7646 -25.1875 Q114.0224 -24.2891 114.0224 -22.5703 Z"/><path style="stroke:none;" d="M94.8705 -67.5703 Q94.8705 -65.5078 93.8314 -64.3281 Q92.7924 -63.1484 90.9486 -63.1484 Q89.058 -63.1484 88.0267 -64.3125 Q86.9955 -65.4766 86.9955 -67.5859 Q86.9955 -69.6797 88.0267 -70.8281 Q89.058 -71.9766 90.9486 -71.9766 Q92.808 -71.9766 93.8392 -70.8047 Q94.8705 -69.6328 94.8705 -67.5703 ZM88.0424 -67.5703 Q88.0424 -65.8359 88.7846 -64.9297 Q89.5267 -64.0234 90.9486 -64.0234 Q92.3705 -64.0234 93.0971 -64.9219 Q93.8236 -65.8203 93.8236 -67.5703 Q93.8236 -69.3047 93.0971 -70.1953 Q92.3705 -71.0859 90.9486 -71.0859 Q89.5267 -71.0859 88.7846 -70.1875 Q88.0424 -69.2891 88.0424 -67.5703 Z"/><path style="fill:none; stroke:black;" d="M142.46 -37.25 L142.893 -37.5 L143.326 -37.25"/><path style="fill:none; stroke:black;" d="M-90.5 7.75 L-90.933 7.5 L-91.366 7.75"/><path style="fill:none; stroke:black;" d="M-65.386 22.25 L-64.953 22.5 L-64.52 22.25"/><path style="fill:none; stroke:black;" d="M-90.933 -22 L-90.933 -22.5 L-90.5 -22.75"/><path style="fill:none; stroke:black;" d="M-39.403 7.75 L-38.97 7.5 L-38.97 7"/><path style="fill:none; stroke:black;" d="M-65.386 -37.25 L-64.953 -37.5 L-64.52 -37.25"/><path style="fill:none; stroke:black;" d="M-38.97 -22 L-38.97 -22.5 L-38.537 -22.75"/><path style="fill:none; stroke:black;" d="M-117.346 22.25 L-116.913 22.5 L-116.48 22.25"/><path style="fill:none; stroke:black;" d="M-142.46 7.75 L-142.893 7.5 L-143.326 7.75"/><path style="fill:none; stroke:black;" d="M-116.913 52 L-116.913 52.5 L-117.346 52.75"/><path style="fill:none; stroke:black;" d="M-168.443 22.25 L-168.876 22.5 L-168.876 23"/><path style="fill:none; stroke:black;" d="M-142.46 67.25 L-142.893 67.5 L-143.326 67.25"/><path style="fill:none; stroke:black;" d="M-168.876 52 L-168.876 52.5 L-168.443 52.75"/></g></g></svg></svg><svg y="146" x="164" class="cas-substance-saf"><svg y="5" x="0" width="4" style="fill:black;" height="4" class="cas-substance-saf-dot"><circle stroke="none" r="2" fill="black" cy="2" cx="2"/></svg><svg y="0" x="8" width="22" style="fill:black;" height="15" class="cas-substance-saf-image"><svg><g><g transform="translate(6,8)" style="fill:rgb(0,138,0); text-rendering:geometricPrecision; color-rendering:optimizeQuality; image-rendering:optimizeQuality; font-family:'Open Sans'; stroke:rgb(0,138,0); color-interpolation:linearRGB;"><path style="stroke:none;" d="M3.2578 4.1562 L2.2578 4.1562 L2.2578 0.125 L-2.2578 0.125 L-2.2578 4.1562 L-3.2578 4.1562 L-3.2578 -4.4062 L-2.2578 -4.4062 L-2.2578 -0.7656 L2.2578 -0.7656 L2.2578 -4.4062 L3.2578 -4.4062 L3.2578 4.1562 Z"/><path style="stroke:none;" d="M8.3672 -3.6406 Q6.9609 -3.6406 6.1406 -2.7031 Q5.3203 -1.7656 5.3203 -0.125 Q5.3203 1.5469 6.1094 2.4688 Q6.8984 3.3906 8.3516 3.3906 Q9.2578 3.3906 10.3984 3.0625 L10.3984 3.9375 Q9.5078 4.2812 8.2109 4.2812 Q6.3203 4.2812 5.2891 3.125 Q4.2578 1.9688 4.2578 -0.1406 Q4.2578 -1.4688 4.75 -2.4609 Q5.2422 -3.4531 6.1797 -3.9922 Q7.1172 -4.5312 8.3828 -4.5312 Q9.7266 -4.5312 10.7422 -4.0469 L10.3203 -3.1875 Q9.3359 -3.6406 8.3672 -3.6406 ZM13.0938 4.1562 L12.125 4.1562 L12.125 -4.9688 L13.0938 -4.9688 L13.0938 4.1562 Z"/></g></g></svg></svg></svg></svg></svg>