<svg xmlns:ns0="http://www.w3.org/2000/svg" xmlns="http://www.w3.org/2000/svg"><g transform="translate(0, 0)"><ns0:svg width="100" viewBox="0 0 100 92" style="fill-opacity:1; color-rendering:auto; color-interpolation:auto; text-rendering:auto; stroke:black; stroke-linecap:square; stroke-miterlimit:10; shape-rendering:auto; stroke-opacity:1; fill:black; stroke-dasharray:none; font-weight:normal; stroke-width:1; font-family:'Open Sans'; font-style:normal; stroke-linejoin:miter; font-size:12; stroke-dashoffset:0; image-rendering:auto;" height="92" class="cas-substance-image"><ns0:svg class="cas-substance-single-component"><ns0:rect y="0" x="0" width="100" stroke="none" ry="7" rx="7" height="92" fill="white" class="cas-substance-group" /><ns0:svg y="0" x="17" width="66" viewBox="0 0 66 60" style="fill:black;" height="60" class="cas-substance-single-component-image"><ns0:svg><ns0:g><ns0:g transform="translate(33,30)" style="text-rendering:geometricPrecision; color-rendering:optimizeQuality; color-interpolation:linearRGB; stroke-linecap:butt; image-rendering:optimizeQuality;"><ns0:line y2="-20.8369" y1="-12.2628" x2="-19.5996" x1="-4.7493" style="fill:none;" /><ns0:line y2="-17.8059" y1="-9.2318" x2="-21.3497" x1="-6.4993" style="fill:none;" /><ns0:line y2="-17.7956" y1="-9.5353" x2="21.332" x1="7.025" style="fill:none;" /><ns0:line y2="-20.8267" y1="-12.5663" x2="19.5819" x1="5.275" style="fill:none;" /><ns0:line y2="16.0234" y1="-0.9375" x2="0" x1="0" style="fill:none;" /></ns0:g><ns0:g transform="translate(33,30)" style="fill:rgb(0,138,0); text-rendering:geometricPrecision; color-rendering:optimizeQuality; image-rendering:optimizeQuality; font-family:'Open Sans'; stroke:rgb(0,138,0); color-interpolation:linearRGB;"><ns0:path style="stroke:none;" d="M-0.3086 -10.8594 Q-1.7148 -10.8594 -2.5352 -9.9219 Q-3.3555 -8.9844 -3.3555 -7.3438 Q-3.3555 -5.6719 -2.5664 -4.75 Q-1.7773 -3.8281 -0.3242 -3.8281 Q0.582 -3.8281 1.7227 -4.1562 L1.7227 -3.2812 Q0.832 -2.9375 -0.4648 -2.9375 Q-2.3555 -2.9375 -3.3867 -4.0938 Q-4.418 -5.25 -4.418 -7.3594 Q-4.418 -8.6875 -3.9258 -9.6797 Q-3.4336 -10.6719 -2.4961 -11.2109 Q-1.5586 -11.75 -0.293 -11.75 Q1.0508 -11.75 2.0664 -11.2656 L1.6445 -10.4062 Q0.6602 -10.8594 -0.3086 -10.8594 ZM4.418 -3.0625 L3.4492 -3.0625 L3.4492 -12.1875 L4.418 -12.1875 L4.418 -3.0625 Z" /><ns0:path style="fill:rgb(230,0,0); stroke:none;" d="M-22.0425 -22.5703 Q-22.0425 -20.5078 -23.0816 -19.3281 Q-24.1206 -18.1484 -25.9644 -18.1484 Q-27.855 -18.1484 -28.8862 -19.3125 Q-29.9175 -20.4766 -29.9175 -22.5859 Q-29.9175 -24.6797 -28.8862 -25.8281 Q-27.855 -26.9766 -25.9644 -26.9766 Q-24.105 -26.9766 -23.0737 -25.8047 Q-22.0425 -24.6328 -22.0425 -22.5703 ZM-28.8706 -22.5703 Q-28.8706 -20.8359 -28.1284 -19.9297 Q-27.3862 -19.0234 -25.9644 -19.0234 Q-24.5425 -19.0234 -23.8159 -19.9219 Q-23.0894 -20.8203 -23.0894 -22.5703 Q-23.0894 -24.3047 -23.8159 -25.1953 Q-24.5425 -26.0859 -25.9644 -26.0859 Q-27.3862 -26.0859 -28.1284 -25.1875 Q-28.8706 -24.2891 -28.8706 -22.5703 Z" /><ns0:path style="fill:rgb(230,0,0); stroke:none;" d="M29.9175 -22.5703 Q29.9175 -20.5078 28.8784 -19.3281 Q27.8394 -18.1484 25.9956 -18.1484 Q24.105 -18.1484 23.0737 -19.3125 Q22.0425 -20.4766 22.0425 -22.5859 Q22.0425 -24.6797 23.0737 -25.8281 Q24.105 -26.9766 25.9956 -26.9766 Q27.855 -26.9766 28.8862 -25.8047 Q29.9175 -24.6328 29.9175 -22.5703 ZM23.0894 -22.5703 Q23.0894 -20.8359 23.8316 -19.9297 Q24.5737 -19.0234 25.9956 -19.0234 Q27.4175 -19.0234 28.1441 -19.9219 Q28.8706 -20.8203 28.8706 -22.5703 Q28.8706 -24.3047 28.1441 -25.1953 Q27.4175 -26.0859 25.9956 -26.0859 Q24.5737 -26.0859 23.8316 -25.1875 Q23.0894 -24.2891 23.0894 -22.5703 Z" /><ns0:path style="fill:rgb(230,0,0); stroke:none;" d="M3.9375 22.4297 Q3.9375 24.4922 2.8984 25.6719 Q1.8594 26.8516 0.0156 26.8516 Q-1.875 26.8516 -2.9062 25.6875 Q-3.9375 24.5234 -3.9375 22.4141 Q-3.9375 20.3203 -2.9062 19.1719 Q-1.875 18.0234 0.0156 18.0234 Q1.875 18.0234 2.9062 19.1953 Q3.9375 20.3672 3.9375 22.4297 ZM-2.8906 22.4297 Q-2.8906 24.1641 -2.1484 25.0703 Q-1.4062 25.9766 0.0156 25.9766 Q1.4375 25.9766 2.1641 25.0781 Q2.8906 24.1797 2.8906 22.4297 Q2.8906 20.6953 2.1641 19.8047 Q1.4375 18.9141 0.0156 18.9141 Q-1.4062 18.9141 -2.1484 19.8125 Q-2.8906 20.7109 -2.8906 22.4297 Z" /><ns0:path style="fill:rgb(230,0,0); stroke:none;" d="M11.4531 26.7266 L10.4531 26.7266 L10.4531 22.6953 L5.9375 22.6953 L5.9375 26.7266 L4.9375 26.7266 L4.9375 18.1641 L5.9375 18.1641 L5.9375 21.8047 L10.4531 21.8047 L10.4531 18.1641 L11.4531 18.1641 L11.4531 26.7266 Z" /></ns0:g></ns0:g></ns0:svg></ns0:svg><ns0:svg y="60" x="17" class="cas-substance-saf"><ns0:svg y="5" x="0" width="4" style="fill:black;" height="4" class="cas-substance-saf-dot"><ns0:circle stroke="none" r="2" fill="black" cy="2" cx="2" /></ns0:svg><ns0:svg y="0" x="7" width="22" style="fill:black;" height="15" class="cas-substance-saf-coefficient"><ns0:svg><ns0:g><ns0:g transform="translate(11,7)" style="text-rendering:geometricPrecision; font-family:'Open Sans'; color-interpolation:linearRGB; color-rendering:optimizeQuality; image-rendering:optimizeQuality;"><ns0:path style="stroke:none;" d="M-5.1104 4.2188 L-6.0635 4.2188 L-6.0635 -1.8906 Q-6.0635 -2.6562 -6.0166 -3.3281 Q-6.126 -3.2031 -6.2822 -3.0703 Q-6.4385 -2.9375 -7.6729 -1.9219 L-8.1885 -2.5938 L-5.9229 -4.3438 L-5.1104 -4.3438 L-5.1104 4.2188 ZM1.8447 -4.3438 L-1.3428 4.2188 L-2.3115 4.2188 L0.876 -4.3438 L1.8447 -4.3438 ZM8.1885 4.2188 L2.5635 4.2188 L2.5635 3.375 L4.8135 1.1094 Q5.8447 0.0625 6.1729 -0.3828 Q6.501 -0.8281 6.665 -1.25 Q6.8291 -1.6719 6.8291 -2.1562 Q6.8291 -2.8438 6.415 -3.2422 Q6.001 -3.6406 5.251 -3.6406 Q4.7197 -3.6406 4.2432 -3.4609 Q3.7666 -3.2812 3.1885 -2.8281 L2.6729 -3.4844 Q3.8447 -4.4688 5.251 -4.4688 Q6.4541 -4.4688 7.1416 -3.8516 Q7.8291 -3.2344 7.8291 -2.1875 Q7.8291 -1.375 7.3682 -0.5781 Q6.9072 0.2188 5.6572 1.4375 L3.7822 3.2656 L3.7822 3.3125 L8.1885 3.3125 L8.1885 4.2188 Z" /></ns0:g></ns0:g></ns0:svg></ns0:svg><ns0:svg y="0" x="33" width="18" style="fill:black;" height="15" class="cas-substance-saf-image"><ns0:svg><ns0:g><ns0:g transform="translate(9,7)" style="text-rendering:geometricPrecision; font-family:'Open Sans'; color-interpolation:linearRGB; color-rendering:optimizeQuality; image-rendering:optimizeQuality;"><ns0:path style="stroke:none;" d="M-6.1533 -4.4062 L-3.7314 -4.4062 Q-2.0283 -4.4062 -1.2627 -3.8984 Q-0.4971 -3.3906 -0.4971 -2.2969 Q-0.4971 -1.5312 -0.9189 -1.0312 Q-1.3408 -0.5312 -2.1689 -0.3906 L-2.1689 -0.3281 Q-0.2158 0 -0.2158 1.7188 Q-0.2158 2.8594 -0.9893 3.5078 Q-1.7627 4.1562 -3.1533 4.1562 L-6.1533 4.1562 L-6.1533 -4.4062 ZM-5.1533 -0.75 L-3.5127 -0.75 Q-2.4502 -0.75 -1.9893 -1.0781 Q-1.5283 -1.4062 -1.5283 -2.1875 Q-1.5283 -2.9062 -2.0439 -3.2266 Q-2.5596 -3.5469 -3.6846 -3.5469 L-5.1533 -3.5469 L-5.1533 -0.75 ZM-5.1533 0.0938 L-5.1533 3.3125 L-3.3564 3.3125 Q-2.3252 3.3125 -1.8018 2.9062 Q-1.2783 2.5 -1.2783 1.6406 Q-1.2783 0.8438 -1.8174 0.4688 Q-2.3564 0.0938 -3.4502 0.0938 L-5.1533 0.0938 ZM5.4346 4.1562 L5.2314 3.2344 L5.1846 3.2344 Q4.7158 3.8438 4.2393 4.0625 Q3.7627 4.2812 3.0439 4.2812 Q2.0908 4.2812 1.5439 3.7812 Q0.9971 3.2812 0.9971 2.375 Q0.9971 0.4375 4.1064 0.3438 L5.2002 0.3125 L5.2002 -0.0938 Q5.2002 -0.8438 4.8799 -1.2031 Q4.5596 -1.5625 3.8408 -1.5625 Q3.0283 -1.5625 2.0283 -1.0781 L1.7158 -1.8281 Q2.2002 -2.0781 2.7627 -2.2266 Q3.3252 -2.375 3.9033 -2.375 Q5.0439 -2.375 5.5986 -1.8672 Q6.1533 -1.3594 6.1533 -0.2344 L6.1533 4.1562 L5.4346 4.1562 ZM3.2314 3.4688 Q4.1377 3.4688 4.6611 2.9688 Q5.1846 2.4688 5.1846 1.5781 L5.1846 1 L4.2002 1.0312 Q3.0439 1.0781 2.5361 1.3984 Q2.0283 1.7188 2.0283 2.3906 Q2.0283 2.9219 2.3408 3.1953 Q2.6533 3.4688 3.2314 3.4688 Z" /></ns0:g></ns0:g></ns0:svg></ns0:svg></ns0:svg><ns0:svg y="75" x="17" class="cas-substance-saf"><ns0:svg y="5" x="0" width="4" style="fill:black;" height="4" class="cas-substance-saf-dot"><ns0:circle stroke="none" r="2" fill="black" cy="2" cx="2" /></ns0:svg><ns0:svg y="0" x="7" width="22" style="fill:black;" height="15" class="cas-substance-saf-coefficient"><ns0:svg><ns0:g><ns0:g transform="translate(11,7)" style="text-rendering:geometricPrecision; font-family:'Open Sans'; color-interpolation:linearRGB; color-rendering:optimizeQuality; image-rendering:optimizeQuality;"><ns0:path style="stroke:none;" d="M-5.1104 4.2188 L-6.0635 4.2188 L-6.0635 -1.8906 Q-6.0635 -2.6562 -6.0166 -3.3281 Q-6.126 -3.2031 -6.2822 -3.0703 Q-6.4385 -2.9375 -7.6729 -1.9219 L-8.1885 -2.5938 L-5.9229 -4.3438 L-5.1104 -4.3438 L-5.1104 4.2188 ZM1.8447 -4.3438 L-1.3428 4.2188 L-2.3115 4.2188 L0.876 -4.3438 L1.8447 -4.3438 ZM8.1885 4.2188 L2.5635 4.2188 L2.5635 3.375 L4.8135 1.1094 Q5.8447 0.0625 6.1729 -0.3828 Q6.501 -0.8281 6.665 -1.25 Q6.8291 -1.6719 6.8291 -2.1562 Q6.8291 -2.8438 6.415 -3.2422 Q6.001 -3.6406 5.251 -3.6406 Q4.7197 -3.6406 4.2432 -3.4609 Q3.7666 -3.2812 3.1885 -2.8281 L2.6729 -3.4844 Q3.8447 -4.4688 5.251 -4.4688 Q6.4541 -4.4688 7.1416 -3.8516 Q7.8291 -3.2344 7.8291 -2.1875 Q7.8291 -1.375 7.3682 -0.5781 Q6.9072 0.2188 5.6572 1.4375 L3.7822 3.2656 L3.7822 3.3125 L8.1885 3.3125 L8.1885 4.2188 Z" /></ns0:g></ns0:g></ns0:svg></ns0:svg><ns0:svg y="0" x="33" width="26" style="fill:black;" height="17" class="cas-substance-saf-image"><ns0:svg><ns0:g><ns0:g transform="translate(6,8)" style="fill:rgb(230,0,0); text-rendering:geometricPrecision; color-rendering:optimizeQuality; image-rendering:optimizeQuality; font-family:'Open Sans'; stroke:rgb(230,0,0); color-interpolation:linearRGB;"><ns0:path style="stroke:none;" d="M3.2578 4.1562 L2.2578 4.1562 L2.2578 0.125 L-2.2578 0.125 L-2.2578 4.1562 L-3.2578 4.1562 L-3.2578 -4.4062 L-2.2578 -4.4062 L-2.2578 -0.7656 L2.2578 -0.7656 L2.2578 -4.4062 L3.2578 -4.4062 L3.2578 4.1562 Z" /><ns0:path style="stroke:none;" d="M8.0078 5.9656 L4.2578 5.9656 L4.2578 5.4031 L5.7578 3.8875 Q6.4453 3.2 6.6641 2.9031 Q6.8828 2.6062 6.9922 2.325 Q7.1016 2.0437 7.1016 1.7156 Q7.1016 1.2625 6.8281 0.9969 Q6.5547 0.7312 6.0547 0.7312 Q5.7109 0.7312 5.3906 0.8484 Q5.0703 0.9656 4.6797 1.2625 L4.3359 0.825 Q5.1172 0.1687 6.0547 0.1687 Q6.8516 0.1687 7.3125 0.5828 Q7.7734 0.9969 7.7734 1.6844 Q7.7734 2.2312 7.4688 2.7625 Q7.1641 3.2937 6.3203 4.1062 L5.0703 5.325 L5.0703 5.3562 L8.0078 5.3562 L8.0078 5.9656 Z" /><ns0:path style="stroke:none;" d="M16.8828 -0.1406 Q16.8828 1.9219 15.8438 3.1016 Q14.8047 4.2812 12.9609 4.2812 Q11.0703 4.2812 10.0391 3.1172 Q9.0078 1.9531 9.0078 -0.1562 Q9.0078 -2.25 10.0391 -3.3984 Q11.0703 -4.5469 12.9609 -4.5469 Q14.8203 -4.5469 15.8516 -3.375 Q16.8828 -2.2031 16.8828 -0.1406 ZM10.0547 -0.1406 Q10.0547 1.5938 10.7969 2.5 Q11.5391 3.4062 12.9609 3.4062 Q14.3828 3.4062 15.1094 2.5078 Q15.8359 1.6094 15.8359 -0.1406 Q15.8359 -1.875 15.1094 -2.7656 Q14.3828 -3.6562 12.9609 -3.6562 Q11.5391 -3.6562 10.7969 -2.7578 Q10.0547 -1.8594 10.0547 -0.1406 Z" /></ns0:g></ns0:g></ns0:svg></ns0:svg></ns0:svg></ns0:svg></ns0:svg></g></svg>