<svg width="110" viewBox="0 0 110 92" style="fill-opacity:1; color-rendering:auto; color-interpolation:auto; text-rendering:auto; stroke:black; stroke-linecap:square; stroke-miterlimit:10; shape-rendering:auto; stroke-opacity:1; fill:black; stroke-dasharray:none; font-weight:normal; stroke-width:1; font-family:'Open Sans'; font-style:normal; stroke-linejoin:miter; font-size:12; stroke-dashoffset:0; image-rendering:auto;" height="92" class="cas-substance-image" xmlns:xlink="http://www.w3.org/1999/xlink" xmlns="http://www.w3.org/2000/svg"><svg class="cas-substance-single-component"><rect y="0" x="0" width="110" stroke="none" ry="7" rx="7" height="92" fill="white" class="cas-substance-group"/><svg y="0" x="0" width="110" viewBox="0 0 110 75" style="fill:black;" height="75" class="cas-substance-single-component-image"><svg><g><g transform="translate(50,37)" style="text-rendering:geometricPrecision; color-rendering:optimizeQuality; color-interpolation:linearRGB; stroke-linecap:butt; image-rendering:optimizeQuality;"><line y2="0" y1="0" x2="10.3567" x1="-15" style="fill:none;"/><line y2="-22.5411" y1="0" x2="-28.0145" x1="-15" style="fill:none;"/><line y2="0" y1="0" x2="-40.8147" x1="-15" style="fill:none;"/><line y2="20.1074" y1="0" x2="-26.6094" x1="-15" style="fill:none;"/><line y2="-23.6484" y1="-6.4688" x2="16.75" x1="16.75" style="fill:none;"/><line y2="-23.6484" y1="-6.4688" x2="13.25" x1="13.25" style="fill:none;"/><line y2="23.5234" y1="6.3438" x2="13.25" x1="13.25" style="fill:none;"/><line y2="23.5234" y1="6.3438" x2="16.75" x1="16.75" style="fill:none;"/><line y2="0" y1="0" x2="39.0625" x1="19.561" style="fill:none;"/></g><g transform="translate(50,37)" style="fill:rgb(148,108,0); text-rendering:geometricPrecision; color-rendering:optimizeQuality; image-rendering:optimizeQuality; font-family:'Open Sans'; stroke:rgb(148,108,0); color-interpolation:linearRGB;"><path style="stroke:none;" d="M17.6953 1.9375 Q17.6953 3.0625 16.875 3.7031 Q16.0547 4.3438 14.6484 4.3438 Q13.1172 4.3438 12.3047 3.9375 L12.3047 2.9844 Q12.8359 3.2031 13.4531 3.3359 Q14.0703 3.4688 14.6797 3.4688 Q15.6797 3.4688 16.1797 3.0859 Q16.6797 2.7031 16.6797 2.0312 Q16.6797 1.5938 16.5 1.3047 Q16.3203 1.0156 15.9062 0.7734 Q15.4922 0.5312 14.6328 0.2344 Q13.4453 -0.1875 12.9297 -0.7734 Q12.4141 -1.3594 12.4141 -2.3125 Q12.4141 -3.2969 13.1562 -3.8828 Q13.8984 -4.4688 15.1328 -4.4688 Q16.3984 -4.4688 17.4766 -4 L17.1641 -3.1406 Q16.1016 -3.5781 15.1016 -3.5781 Q14.3047 -3.5781 13.8594 -3.2422 Q13.4141 -2.9062 13.4141 -2.2969 Q13.4141 -1.8594 13.5781 -1.5703 Q13.7422 -1.2812 14.1328 -1.0469 Q14.5234 -0.8125 15.3359 -0.5156 Q16.6797 -0.0469 17.1875 0.5078 Q17.6953 1.0625 17.6953 1.9375 Z"/><path style="fill:rgb(0,138,0); stroke:none;" d="M-31.3906 -21.8237 L-32.3906 -21.8237 L-32.3906 -30.3862 L-27.6094 -30.3862 L-27.6094 -29.5112 L-31.3906 -29.5112 L-31.3906 -26.3706 L-27.8438 -26.3706 L-27.8438 -25.48 L-31.3906 -25.48 L-31.3906 -21.8237 Z"/><path style="fill:rgb(0,138,0); stroke:none;" d="M-46.3906 4.1562 L-47.3906 4.1562 L-47.3906 -4.4062 L-42.6094 -4.4062 L-42.6094 -3.5312 L-46.3906 -3.5312 L-46.3906 -0.3906 L-42.8438 -0.3906 L-42.8438 0.5 L-46.3906 0.5 L-46.3906 4.1562 Z"/><path style="fill:rgb(0,138,0); stroke:none;" d="M-31.3906 30.1362 L-32.3906 30.1362 L-32.3906 21.5737 L-27.6094 21.5737 L-27.6094 22.4487 L-31.3906 22.4487 L-31.3906 25.5894 L-27.8438 25.5894 L-27.8438 26.48 L-31.3906 26.48 L-31.3906 30.1362 Z"/><path style="fill:rgb(230,0,0); stroke:none;" d="M18.9375 -30.0703 Q18.9375 -28.0078 17.8984 -26.8281 Q16.8594 -25.6484 15.0156 -25.6484 Q13.125 -25.6484 12.0938 -26.8125 Q11.0625 -27.9766 11.0625 -30.0859 Q11.0625 -32.1797 12.0938 -33.3281 Q13.125 -34.4766 15.0156 -34.4766 Q16.875 -34.4766 17.9062 -33.3047 Q18.9375 -32.1328 18.9375 -30.0703 ZM12.1094 -30.0703 Q12.1094 -28.3359 12.8516 -27.4297 Q13.5938 -26.5234 15.0156 -26.5234 Q16.4375 -26.5234 17.1641 -27.4219 Q17.8906 -28.3203 17.8906 -30.0703 Q17.8906 -31.8047 17.1641 -32.6953 Q16.4375 -33.5859 15.0156 -33.5859 Q13.5938 -33.5859 12.8516 -32.6875 Q12.1094 -31.7891 12.1094 -30.0703 Z"/><path style="fill:rgb(230,0,0); stroke:none;" d="M18.9375 29.9297 Q18.9375 31.9922 17.8984 33.1719 Q16.8594 34.3516 15.0156 34.3516 Q13.125 34.3516 12.0938 33.1875 Q11.0625 32.0234 11.0625 29.9141 Q11.0625 27.8203 12.0938 26.6719 Q13.125 25.5234 15.0156 25.5234 Q16.875 25.5234 17.9062 26.6953 Q18.9375 27.8672 18.9375 29.9297 ZM12.1094 29.9297 Q12.1094 31.6641 12.8516 32.5703 Q13.5938 33.4766 15.0156 33.4766 Q16.4375 33.4766 17.1641 32.5781 Q17.8906 31.6797 17.8906 29.9297 Q17.8906 28.1953 17.1641 27.3047 Q16.4375 26.4141 15.0156 26.4141 Q13.5938 26.4141 12.8516 27.3125 Q12.1094 28.2109 12.1094 29.9297 Z"/><path style="fill:rgb(230,0,0); stroke:none;" d="M48.9375 -0.0703 Q48.9375 1.9922 47.8984 3.1719 Q46.8594 4.3516 45.0156 4.3516 Q43.125 4.3516 42.0938 3.1875 Q41.0625 2.0234 41.0625 -0.0859 Q41.0625 -2.1797 42.0938 -3.3281 Q43.125 -4.4766 45.0156 -4.4766 Q46.875 -4.4766 47.9062 -3.3047 Q48.9375 -2.1328 48.9375 -0.0703 ZM42.1094 -0.0703 Q42.1094 1.6641 42.8516 2.5703 Q43.5938 3.4766 45.0156 3.4766 Q46.4375 3.4766 47.1641 2.5781 Q47.8906 1.6797 47.8906 -0.0703 Q47.8906 -1.8047 47.1641 -2.6953 Q46.4375 -3.5859 45.0156 -3.5859 Q43.5938 -3.5859 42.8516 -2.6875 Q42.1094 -1.7891 42.1094 -0.0703 Z"/><path style="fill:rgb(230,0,0); stroke:none;" d="M56.4531 4.2266 L55.4531 4.2266 L55.4531 0.1953 L50.9375 0.1953 L50.9375 4.2266 L49.9375 4.2266 L49.9375 -4.3359 L50.9375 -4.3359 L50.9375 -0.6953 L55.4531 -0.6953 L55.4531 -4.3359 L56.4531 -4.3359 L56.4531 4.2266 Z"/></g></g></svg></svg><svg y="75" x="47" class="cas-substance-saf"><svg y="6" x="0" width="4" style="fill:black;" height="4" class="cas-substance-saf-dot"><circle stroke="none" r="2" fill="black" cy="2" cx="2"/></svg><svg y="0" x="8" width="29" style="fill:black;" height="17" class="cas-substance-saf-image"><svg><g><g transform="translate(10,7)" style="text-rendering:geometricPrecision; font-family:'Open Sans'; color-interpolation:linearRGB; color-rendering:optimizeQuality; image-rendering:optimizeQuality;"><path style="stroke:none;" d="M-2.4727 -3.5781 Q-3.8789 -3.5781 -4.6992 -2.6406 Q-5.5195 -1.7031 -5.5195 -0.0625 Q-5.5195 1.6094 -4.7305 2.5312 Q-3.9414 3.4531 -2.4883 3.4531 Q-1.582 3.4531 -0.4414 3.125 L-0.4414 4 Q-1.332 4.3438 -2.6289 4.3438 Q-4.5195 4.3438 -5.5508 3.1875 Q-6.582 2.0312 -6.582 -0.0781 Q-6.582 -1.4062 -6.0898 -2.3984 Q-5.5977 -3.3906 -4.6602 -3.9297 Q-3.7227 -4.4688 -2.457 -4.4688 Q-1.1133 -4.4688 -0.0977 -3.9844 L-0.5195 -3.125 Q-1.5039 -3.5781 -2.4727 -3.5781 ZM2.207 -2.2031 L2.207 1.9688 Q2.207 2.75 2.5586 3.1328 Q2.9102 3.5156 3.6758 3.5156 Q4.6914 3.5156 5.1523 2.9688 Q5.6133 2.4219 5.6133 1.1719 L5.6133 -2.2031 L6.582 -2.2031 L6.582 4.2188 L5.7852 4.2188 L5.6445 3.3594 L5.5977 3.3594 Q5.3008 3.8281 4.7695 4.0859 Q4.2383 4.3438 3.5508 4.3438 Q2.3789 4.3438 1.8008 3.7812 Q1.2227 3.2188 1.2227 2 L1.2227 -2.2031 L2.207 -2.2031 Z"/><path style="stroke:none;" d="M7.582 0.9375 Q7.582 -0.625 8.0352 -1.9766 Q8.4883 -3.3281 9.3477 -4.3438 L10.2852 -4.3438 Q9.4414 -3.2188 9.0195 -1.8672 Q8.5977 -0.5156 8.5977 0.9219 Q8.5977 2.3281 9.0352 3.6719 Q9.4727 5.0156 10.2852 6.125 L9.3477 6.125 Q8.4883 5.125 8.0352 3.7891 Q7.582 2.4531 7.582 0.9375 Z"/><path style="stroke:none;" d="M11.2852 4.2188 L11.2852 -4.3438 L12.2852 -4.3438 L12.2852 4.2188 L11.2852 4.2188 Z"/><path style="stroke:none;" d="M16.0039 0.9375 Q16.0039 2.4688 15.543 3.8047 Q15.082 5.1406 14.2383 6.125 L13.3008 6.125 Q14.1133 5.0156 14.543 3.6719 Q14.9727 2.3281 14.9727 0.9219 Q14.9727 -0.5156 14.5508 -1.8672 Q14.1289 -3.2188 13.2852 -4.3438 L14.2383 -4.3438 Q15.0977 -3.3281 15.5508 -1.9688 Q16.0039 -0.6094 16.0039 0.9375 Z"/></g></g></svg></svg></svg></svg></svg>