<svg xmlns:ns0="http://www.w3.org/2000/svg" xmlns="http://www.w3.org/2000/svg"><g transform="translate(0, 0)"><ns0:svg width="241" viewBox="0 0 241 97" style="fill-opacity:1; color-rendering:auto; color-interpolation:auto; text-rendering:auto; stroke:black; stroke-linecap:square; stroke-miterlimit:10; shape-rendering:auto; stroke-opacity:1; fill:black; stroke-dasharray:none; font-weight:normal; stroke-width:1; font-family:'Open Sans'; font-style:normal; stroke-linejoin:miter; font-size:12; stroke-dashoffset:0; image-rendering:auto;" height="97" class="cas-substance-image"><ns0:svg class="cas-substance-single-component"><ns0:rect y="0" x="0" width="241" stroke="none" ry="7" rx="7" height="97" fill="white" class="cas-substance-group" /><ns0:svg y="0" x="0" width="241" viewBox="0 0 241 97" style="fill:black;" height="97" class="cas-substance-single-component-image"><ns0:svg><ns0:g><ns0:g transform="translate(120,49)" style="text-rendering:geometricPrecision; color-rendering:optimizeQuality; color-interpolation:linearRGB; stroke-linecap:butt; image-rendering:optimizeQuality;"><ns0:line y2="0" y1="15" x2="-12.99" x1="-38.97" style="fill:none;" /><ns0:line y2="0" y1="15" x2="-64.953" x1="-38.97" style="fill:none;" /><ns0:line y2="11.7586" y1="0" x2="7.3759" x1="-12.99" style="fill:none;" /><ns0:line y2="0" y1="11.774" x2="38.97" x1="18.5775" style="fill:none;" /><ns0:line y2="15" y1="0" x2="64.953" x1="38.97" style="fill:none;" /><ns0:line y2="-23.6484" y1="1.0103" x2="40.72" x1="40.72" style="fill:none;" /><ns0:line y2="-23.6484" y1="1.0104" x2="37.22" x1="37.22" style="fill:none;" /><ns0:line y2="0" y1="15" x2="90.933" x1="64.953" style="fill:none;" /><ns0:line y2="4.0415" y1="17.0207" x2="90.9331" x1="68.453" style="fill:none;" /></ns0:g><ns0:g transform="translate(120,49)" style="stroke-linecap:butt; font-size:8.4px; fill:gray; text-rendering:geometricPrecision; image-rendering:optimizeQuality; color-rendering:optimizeQuality; font-family:'Open Sans'; font-style:italic; stroke:gray; color-interpolation:linearRGB;"><ns0:path style="stroke:none;" d="M78.7957 17.3243 Q78.7957 15.9961 79.2645 14.8711 Q79.7332 13.7461 80.7645 12.668 L81.3739 12.668 Q80.4051 13.7305 79.9207 14.9024 Q79.4364 16.0743 79.4364 17.3086 Q79.4364 18.6368 79.8739 19.6524 L79.3582 19.6524 Q78.7957 18.6211 78.7957 17.3243 ZM84.0589 18.3868 L81.1996 18.3868 L82.4027 12.668 L85.2777 12.668 L85.1527 13.2774 L82.9339 13.2774 L82.5589 15.1055 L84.6058 15.1055 L84.4964 15.6993 L82.4339 15.6993 L81.9808 17.793 L84.1996 17.793 L84.0589 18.3868 ZM87.0905 15.0118 Q87.0905 16.3399 86.6139 17.4727 Q86.1374 18.6055 85.1217 19.6524 L84.5124 19.6524 Q86.4499 17.4961 86.4499 15.0118 Q86.4499 13.6836 86.0124 12.668 L86.528 12.668 Q87.0905 13.7305 87.0905 15.0118 Z" /><ns0:line y2="45" y1="15" x2="64.953" x1="64.953" style="fill:none; stroke:black;" /><ns0:line y2="15" y1="0" x2="116.913" x1="90.933" style="fill:none; stroke:black;" /><ns0:line y2="15" y1="0" x2="-90.933" x1="-64.953" style="fill:none; stroke:black;" /><ns0:line y2="10.9585" y1="-2.0207" x2="-90.9331" x1="-68.453" style="fill:none; stroke:black;" /><ns0:line y2="-30" y1="0" x2="-64.953" x1="-64.953" style="fill:none; stroke:black;" /><ns0:line y2="0" y1="15" x2="-116.913" x1="-90.933" style="fill:none; stroke:black;" /><ns0:line y2="-45" y1="-30" x2="-90.933" x1="-64.953" style="fill:none; stroke:black;" /><ns0:line y2="-40.9585" y1="-27.9793" x2="-90.9331" x1="-68.453" style="fill:none; stroke:black;" /><ns0:line y2="-30" y1="0" x2="-116.913" x1="-116.913" style="fill:none; stroke:black;" /><ns0:line y2="-27.9793" y1="-2.0207" x2="-113.413" x1="-113.413" style="fill:none; stroke:black;" /><ns0:line y2="-30" y1="-45" x2="-116.913" x1="-90.933" style="fill:none; stroke:black;" /><ns0:path style="fill:none; stroke-miterlimit:5; stroke:black;" d="M-38.537 14.75 L-38.97 15 L-39.403 14.75" /><ns0:path style="fill:none; stroke-miterlimit:5; stroke:black;" d="M-13.423 0.25 L-12.99 0 L-12.557 0.25" /></ns0:g><ns0:g transform="translate(120,49)" style="stroke-linecap:butt; fill:rgb(230,0,0); text-rendering:geometricPrecision; color-rendering:optimizeQuality; image-rendering:optimizeQuality; font-family:'Open Sans'; stroke:rgb(230,0,0); color-interpolation:linearRGB; stroke-miterlimit:5;"><ns0:path style="stroke:none;" d="M16.9275 14.9297 Q16.9275 16.9922 15.8884 18.1719 Q14.8494 19.3516 13.0056 19.3516 Q11.115 19.3516 10.0837 18.1875 Q9.0525 17.0234 9.0525 14.9141 Q9.0525 12.8203 10.0837 11.6719 Q11.115 10.5234 13.0056 10.5234 Q14.865 10.5234 15.8962 11.6953 Q16.9275 12.8672 16.9275 14.9297 ZM10.0994 14.9297 Q10.0994 16.6641 10.8416 17.5703 Q11.5837 18.4766 13.0056 18.4766 Q14.4275 18.4766 15.1541 17.5781 Q15.8806 16.6797 15.8806 14.9297 Q15.8806 13.1953 15.1541 12.3047 Q14.4275 11.4141 13.0056 11.4141 Q11.5837 11.4141 10.8416 12.3125 Q10.0994 13.2109 10.0994 14.9297 Z" /><ns0:path style="fill:none; stroke:black;" d="M38.537 0.25 L38.97 0 L39.403 0.25" /><ns0:path style="fill:none; stroke:black;" d="M65.386 14.75 L64.953 15 L64.953 15.5" /><ns0:path style="stroke:none;" d="M42.9075 -30.0703 Q42.9075 -28.0078 41.8684 -26.8281 Q40.8294 -25.6484 38.9856 -25.6484 Q37.095 -25.6484 36.0638 -26.8125 Q35.0325 -27.9766 35.0325 -30.0859 Q35.0325 -32.1797 36.0638 -33.3281 Q37.095 -34.4766 38.9856 -34.4766 Q40.845 -34.4766 41.8763 -33.3047 Q42.9075 -32.1328 42.9075 -30.0703 ZM36.0794 -30.0703 Q36.0794 -28.3359 36.8216 -27.4297 Q37.5638 -26.5234 38.9856 -26.5234 Q40.4075 -26.5234 41.1341 -27.4219 Q41.8606 -28.3203 41.8606 -30.0703 Q41.8606 -31.8047 41.1341 -32.6953 Q40.4075 -33.5859 38.9856 -33.5859 Q37.5638 -33.5859 36.8216 -32.6875 Q36.0794 -31.7891 36.0794 -30.0703 Z" /><ns0:path style="fill:none; stroke:black;" d="M90.5 0.25 L90.933 0 L91.366 0.25" /><ns0:path style="fill:none; stroke:black;" d="M-65.386 0.25 L-64.953 0 L-64.953 -0.5" /><ns0:path style="fill:none; stroke:black;" d="M-90.5 14.75 L-90.933 15 L-91.366 14.75" /><ns0:path style="fill:none; stroke:black;" d="M-64.953 -29.5 L-64.953 -30 L-65.386 -30.25" /><ns0:path style="fill:none; stroke:black;" d="M-116.48 0.25 L-116.913 0 L-116.913 -0.5" /><ns0:path style="fill:none; stroke:black;" d="M-90.5 -44.75 L-90.933 -45 L-91.366 -44.75" /><ns0:path style="fill:none; stroke:black;" d="M-116.913 -29.5 L-116.913 -30 L-116.48 -30.25" /></ns0:g></ns0:g></ns0:svg></ns0:svg></ns0:svg></ns0:svg></g></svg>