<svg width="128" viewBox="0 0 128 90" style="fill-opacity:1; color-rendering:auto; color-interpolation:auto; text-rendering:auto; stroke:black; stroke-linecap:square; stroke-miterlimit:10; shape-rendering:auto; stroke-opacity:1; fill:black; stroke-dasharray:none; font-weight:normal; stroke-width:1; font-family:'Open Sans'; font-style:normal; stroke-linejoin:miter; font-size:12; stroke-dashoffset:0; image-rendering:auto;" height="90" class="cas-substance-image" xmlns:xlink="http://www.w3.org/1999/xlink" xmlns="http://www.w3.org/2000/svg"><svg class="cas-substance-single-component"><rect y="0" x="0" width="128" stroke="none" ry="7" rx="7" height="90" fill="white" class="cas-substance-group"/><svg y="0" x="0" width="128" viewBox="0 0 128 90" style="fill:black;" height="90" class="cas-substance-single-component-image"><svg><g><g transform="translate(63,42)" style="text-rendering:geometricPrecision; color-rendering:optimizeQuality; color-interpolation:linearRGB; stroke-linecap:butt; image-rendering:optimizeQuality;"><line y2="12.99" y1="32.8317" x2="-15" x1="-26.456" style="fill:none;"/><line y2="-12.99" y1="-12.99" x2="-30" x1="-60" style="fill:none;"/><line y2="-12.99" y1="-12.99" x2="30" x1="55.6094" style="fill:none;"/><line y2="-12.99" y1="12.99" x2="-30" x1="-15" style="fill:none;"/><line y2="-12.9901" y1="9.49" x2="-25.9585" x1="-12.9793" style="fill:none;"/><line y2="12.99" y1="12.99" x2="15" x1="-15" style="fill:none;"/><line y2="-38.97" y1="-12.99" x2="-15" x1="-30" style="fill:none;"/><line y2="-12.99" y1="12.99" x2="30" x1="15" style="fill:none;"/><line y2="-12.9901" y1="9.49" x2="25.9585" x1="12.9793" style="fill:none;"/><line y2="-38.97" y1="-38.97" x2="15" x1="-15" style="fill:none;"/><line y2="-35.47" y1="-35.47" x2="12.9793" x1="-12.9793" style="fill:none;"/><line y2="-38.97" y1="-12.99" x2="15" x1="30" style="fill:none;"/></g><g transform="translate(63,42)" style="fill:rgb(0,5,255); text-rendering:geometricPrecision; color-rendering:optimizeQuality; image-rendering:optimizeQuality; font-family:'Open Sans'; stroke:rgb(0,5,255); color-interpolation:linearRGB;"><path style="stroke:none;" d="M-26.6484 43.1263 L-27.7891 43.1263 L-32.4766 35.9388 L-32.5234 35.9388 Q-32.4297 37.2044 -32.4297 38.2513 L-32.4297 43.1263 L-33.3516 43.1263 L-33.3516 34.5638 L-32.2266 34.5638 L-27.5547 41.72 L-27.5078 41.72 Q-27.5078 41.5638 -27.5547 40.7044 Q-27.6016 39.845 -27.5859 39.47 L-27.5859 34.5638 L-26.6484 34.5638 L-26.6484 43.1263 Z"/><path style="stroke:none;" d="M-39.1016 43.1263 L-40.1016 43.1263 L-40.1016 39.095 L-44.6172 39.095 L-44.6172 43.1263 L-45.6172 43.1263 L-45.6172 34.5638 L-44.6172 34.5638 L-44.6172 38.2044 L-40.1016 38.2044 L-40.1016 34.5638 L-39.1016 34.5638 L-39.1016 43.1263 Z"/><path style="stroke:none;" d="M-34.3516 44.9356 L-38.1016 44.9356 L-38.1016 44.3731 L-36.6016 42.8575 Q-35.9141 42.17 -35.6953 41.8731 Q-35.4766 41.5763 -35.3672 41.295 Q-35.2578 41.0138 -35.2578 40.6856 Q-35.2578 40.2325 -35.5312 39.9669 Q-35.8047 39.7013 -36.3047 39.7013 Q-36.6484 39.7013 -36.9688 39.8184 Q-37.2891 39.9356 -37.6797 40.2325 L-38.0234 39.795 Q-37.2422 39.1388 -36.3047 39.1388 Q-35.5078 39.1388 -35.0469 39.5528 Q-34.5859 39.9669 -34.5859 40.6544 Q-34.5859 41.2013 -34.8906 41.7325 Q-35.1953 42.2638 -36.0391 43.0763 L-37.2891 44.295 L-37.2891 44.3263 L-34.3516 44.3263 L-34.3516 44.9356 Z"/><path style="fill:rgb(0,138,0); stroke:none;" d="M58.6094 -8.8337 L57.6094 -8.8337 L57.6094 -17.3962 L62.3906 -17.3962 L62.3906 -16.5212 L58.6094 -16.5212 L58.6094 -13.3806 L62.1562 -13.3806 L62.1562 -12.49 L58.6094 -12.49 L58.6094 -8.8337 Z"/></g><g transform="translate(63,42)" style="stroke-linecap:butt; text-rendering:geometricPrecision; color-rendering:optimizeQuality; image-rendering:optimizeQuality; font-family:'Open Sans'; color-interpolation:linearRGB; stroke-miterlimit:5;"><path style="fill:none;" d="M-15.25 12.557 L-15 12.99 L-15.25 13.423"/><path style="fill:none;" d="M-29.75 -12.557 L-30 -12.99 L-30.5 -12.99"/><path style="fill:none;" d="M14.5 12.99 L15 12.99 L15.25 12.557"/><path style="fill:none;" d="M-15.25 -38.537 L-15 -38.97 L-14.5 -38.97"/><path style="fill:none;" d="M29.75 -12.557 L30 -12.99 L30.5 -12.99"/><path style="fill:none;" d="M14.5 -38.97 L15 -38.97 L15.25 -38.537"/></g></g></svg></svg></svg></svg>