<svg width="587" viewBox="0 0 587 219" style="fill-opacity:1; color-rendering:auto; color-interpolation:auto; text-rendering:auto; stroke:black; stroke-linecap:square; stroke-miterlimit:10; shape-rendering:auto; stroke-opacity:1; fill:black; stroke-dasharray:none; font-weight:normal; stroke-width:1; font-family:'Open Sans'; font-style:normal; stroke-linejoin:miter; font-size:12; stroke-dashoffset:0; image-rendering:auto;" height="219" class="cas-substance-image" xmlns:xlink="http://www.w3.org/1999/xlink" xmlns="http://www.w3.org/2000/svg"><svg class="cas-substance-single-component"><rect y="0" x="0" width="587" stroke="none" ry="7" rx="7" height="219" fill="white" class="cas-substance-group"/><svg y="0" x="0" width="587" viewBox="0 0 587 219" style="fill:black;" height="219" class="cas-substance-single-component-image"><svg><g><g transform="translate(299,107)" style="text-rendering:geometricPrecision; color-rendering:optimizeQuality; color-interpolation:linearRGB; stroke-linecap:butt; image-rendering:optimizeQuality;"><line y2="25.98" y1="51.963" x2="-150" x1="-165" style="fill:none;"/><line y2="51.963" y1="51.963" x2="-195" x1="-165" style="fill:none;"/><line y2="25.98" y1="25.98" x2="-125.3516" x1="-150" style="fill:none;"/><line y2="0" y1="19.8417" x2="-105" x1="-116.456" style="fill:none;"/><line y2="0" y1="0" x2="-75" x1="-105" style="fill:none;"/><line y2="-21.2193" y1="-0" x2="-115.2306" x1="-102.9793" style="fill:none;"/><line y2="-19.4693" y1="1.75" x2="-118.2617" x1="-106.0104" style="fill:none;"/><line y2="-25.98" y1="0" x2="-60" x1="-75" style="fill:none;"/><line y2="-25.98" y1="-25.98" x2="-30" x1="-60" style="fill:none;"/><line y2="-51.963" y1="-25.98" x2="-15" x1="-30" style="fill:none;"/><line y2="-51.963" y1="-51.963" x2="15" x1="-15" style="fill:none;"/><line y2="-77.943" y1="-51.963" x2="30" x1="15" style="fill:none;"/><line y2="-77.943" y1="-77.943" x2="60" x1="30" style="fill:none;"/><line y2="-103.923" y1="-77.943" x2="75" x1="60" style="fill:none;"/><line y2="-103.923" y1="-103.923" x2="105" x1="75" style="fill:none;"/><line y2="-100.423" y1="-100.423" x2="102.9793" x1="77.0207" style="fill:none;"/></g><g transform="translate(299,107)" style="stroke-linecap:butt; font-size:8.4px; fill:gray; text-rendering:geometricPrecision; image-rendering:optimizeQuality; color-rendering:optimizeQuality; font-family:'Open Sans'; font-style:italic; stroke:gray; color-interpolation:linearRGB;"><path style="stroke:none;" d="M85.7708 -92.7589 Q85.7708 -94.0871 86.2396 -95.2121 Q86.7083 -96.3371 87.7396 -97.4152 L88.349 -97.4152 Q87.3802 -96.3527 86.8958 -95.1808 Q86.4115 -94.0089 86.4115 -92.7746 Q86.4115 -91.4464 86.849 -90.4308 L86.3333 -90.4308 Q85.7708 -91.4621 85.7708 -92.7589 ZM91.284 -91.6964 L87.7684 -91.6964 L87.8778 -92.2277 L91.4872 -96.8058 L88.9247 -96.8058 L89.0497 -97.4152 L92.409 -97.4152 L92.2997 -96.8683 L88.6903 -92.3058 L91.4247 -92.3058 L91.284 -91.6964 ZM94.2292 -95.0714 Q94.2292 -93.7433 93.7526 -92.6105 Q93.276 -91.4777 92.2604 -90.4308 L91.651 -90.4308 Q93.5885 -92.5871 93.5885 -95.0714 Q93.5885 -96.3996 93.151 -97.4152 L93.6667 -97.4152 Q94.2292 -96.3527 94.2292 -95.0714 Z"/><line y2="-77.943" y1="-103.923" x2="120" x1="105" style="fill:none; stroke:black;"/><line y2="-77.943" y1="-77.943" x2="150" x1="120" style="fill:none; stroke:black;"/><line y2="-51.963" y1="-77.943" x2="165" x1="150" style="fill:none; stroke:black;"/><line y2="-51.963" y1="-51.963" x2="195" x1="165" style="fill:none; stroke:black;"/><line y2="-25.98" y1="-51.963" x2="210" x1="195" style="fill:none; stroke:black;"/><line y2="-25.98" y1="-25.98" x2="240" x1="210" style="fill:none; stroke:black;"/><line y2="0" y1="-25.98" x2="255" x1="240" style="fill:none; stroke:black;"/><line y2="0" y1="0" x2="285" x1="255" style="fill:none; stroke:black;"/><line y2="77.943" y1="98.2013" x2="-240" x1="-251.6965" style="fill:none; stroke:black;"/><line y2="51.963" y1="51.963" x2="-255" x1="-279.0625" style="fill:none; stroke:black;"/><line y2="77.943" y1="51.963" x2="-210" x1="-195" style="fill:none; stroke:black;"/><line y2="74.443" y1="51.963" x2="-212.0207" x1="-199.0415" style="fill:none; stroke:black;"/><line y2="25.98" y1="51.963" x2="-210" x1="-195" style="fill:none; stroke:black;"/><line y2="77.943" y1="77.943" x2="-240" x1="-210" style="fill:none; stroke:black;"/><line y2="25.98" y1="25.98" x2="-240" x1="-210" style="fill:none; stroke:black;"/><line y2="29.48" y1="29.48" x2="-237.9793" x1="-212.0207" style="fill:none; stroke:black;"/><line y2="51.963" y1="77.943" x2="-255" x1="-240" style="fill:none; stroke:black;"/><line y2="51.963" y1="74.443" x2="-250.9585" x1="-237.9793" style="fill:none; stroke:black;"/><line y2="51.963" y1="25.98" x2="-255" x1="-240" style="fill:none; stroke:black;"/><path style="fill:none; stroke-miterlimit:5; stroke:black;" d="M-164.75 51.53 L-165 51.963 L-165.5 51.963"/><path style="fill:none; stroke-miterlimit:5; stroke:black;" d="M-150.25 26.413 L-150 25.98 L-149.5 25.98"/></g><g transform="translate(299,107)" style="stroke-linecap:butt; fill:rgb(0,5,255); text-rendering:geometricPrecision; color-rendering:optimizeQuality; image-rendering:optimizeQuality; font-family:'Open Sans'; stroke:rgb(0,5,255); color-interpolation:linearRGB; stroke-miterlimit:5;"><path style="stroke:none;" d="M-116.6484 30.1362 L-117.7891 30.1362 L-122.4766 22.9487 L-122.5234 22.9487 Q-122.4297 24.2144 -122.4297 25.2612 L-122.4297 30.1362 L-123.3516 30.1362 L-123.3516 21.5737 L-122.2266 21.5737 L-117.5547 28.73 L-117.5078 28.73 Q-117.5078 28.5737 -117.5547 27.7144 Q-117.6016 26.855 -117.5859 26.48 L-117.5859 21.5737 L-116.6484 21.5737 L-116.6484 30.1362 Z"/><path style="stroke:none;" d="M-116.7422 39.6987 L-117.7422 39.6987 L-117.7422 35.6675 L-122.2578 35.6675 L-122.2578 39.6987 L-123.2578 39.6987 L-123.2578 31.1362 L-122.2578 31.1362 L-122.2578 34.7769 L-117.7422 34.7769 L-117.7422 31.1362 L-116.7422 31.1362 L-116.7422 39.6987 Z"/><path style="fill:none; stroke:black;" d="M-105.25 0.433 L-105 0 L-104.5 0"/><path style="fill:none; stroke:black;" d="M-75.5 -0 L-75 0 L-74.75 -0.433"/><path style="fill:rgb(230,0,0); stroke:none;" d="M-116.0625 -26.0503 Q-116.0625 -23.9878 -117.1016 -22.8081 Q-118.1406 -21.6284 -119.9844 -21.6284 Q-121.875 -21.6284 -122.9062 -22.7925 Q-123.9375 -23.9566 -123.9375 -26.0659 Q-123.9375 -28.1597 -122.9062 -29.3081 Q-121.875 -30.4566 -119.9844 -30.4566 Q-118.125 -30.4566 -117.0938 -29.2847 Q-116.0625 -28.1128 -116.0625 -26.0503 ZM-122.8906 -26.0503 Q-122.8906 -24.3159 -122.1484 -23.4097 Q-121.4062 -22.5034 -119.9844 -22.5034 Q-118.5625 -22.5034 -117.8359 -23.4019 Q-117.1094 -24.3003 -117.1094 -26.0503 Q-117.1094 -27.7847 -117.8359 -28.6753 Q-118.5625 -29.5659 -119.9844 -29.5659 Q-121.4062 -29.5659 -122.1484 -28.6675 Q-122.8906 -27.7691 -122.8906 -26.0503 Z"/><path style="fill:none; stroke:black;" d="M-60.25 -25.547 L-60 -25.98 L-59.5 -25.98"/><path style="fill:none; stroke:black;" d="M-30.5 -25.98 L-30 -25.98 L-29.75 -26.413"/><path style="fill:none; stroke:black;" d="M-15.25 -51.53 L-15 -51.963 L-14.5 -51.963"/><path style="fill:none; stroke:black;" d="M14.5 -51.963 L15 -51.963 L15.25 -52.396"/><path style="fill:none; stroke:black;" d="M29.75 -77.51 L30 -77.943 L30.5 -77.943"/><path style="fill:none; stroke:black;" d="M59.5 -77.943 L60 -77.943 L60.25 -78.376"/><path style="fill:none; stroke:black;" d="M74.75 -103.49 L75 -103.923 L75.5 -103.923"/><path style="fill:none; stroke:black;" d="M104.5 -103.923 L105 -103.923 L105.25 -103.49"/><path style="fill:none; stroke:black;" d="M119.75 -78.376 L120 -77.943 L120.5 -77.943"/><path style="fill:none; stroke:black;" d="M149.5 -77.943 L150 -77.943 L150.25 -77.51"/><path style="fill:none; stroke:black;" d="M164.75 -52.396 L165 -51.963 L165.5 -51.963"/><path style="fill:none; stroke:black;" d="M194.5 -51.963 L195 -51.963 L195.25 -51.53"/><path style="fill:none; stroke:black;" d="M209.75 -26.413 L210 -25.98 L210.5 -25.98"/><path style="fill:none; stroke:black;" d="M239.5 -25.98 L240 -25.98 L240.25 -25.547"/><path style="fill:none; stroke:black;" d="M254.75 -0.433 L255 0 L255.5 0"/><path style="fill:rgb(230,0,0); stroke:none;" d="M-251.0625 103.8527 Q-251.0625 105.9152 -252.1016 107.0949 Q-253.1406 108.2746 -254.9844 108.2746 Q-256.875 108.2746 -257.9062 107.1105 Q-258.9375 105.9464 -258.9375 103.8371 Q-258.9375 101.7433 -257.9062 100.5949 Q-256.875 99.4464 -254.9844 99.4464 Q-253.125 99.4464 -252.0938 100.6183 Q-251.0625 101.7902 -251.0625 103.8527 ZM-257.8906 103.8527 Q-257.8906 105.5871 -257.1484 106.4933 Q-256.4062 107.3996 -254.9844 107.3996 Q-253.5625 107.3996 -252.8359 106.5011 Q-252.1094 105.6027 -252.1094 103.8527 Q-252.1094 102.1183 -252.8359 101.2277 Q-253.5625 100.3371 -254.9844 100.3371 Q-256.4062 100.3371 -257.1484 101.2355 Q-257.8906 102.1339 -257.8906 103.8527 Z"/><path style="fill:rgb(230,0,0); stroke:none;" d="M-259.9375 108.1496 L-260.9375 108.1496 L-260.9375 104.1183 L-265.4531 104.1183 L-265.4531 108.1496 L-266.4531 108.1496 L-266.4531 99.5871 L-265.4531 99.5871 L-265.4531 103.2277 L-260.9375 103.2277 L-260.9375 99.5871 L-259.9375 99.5871 L-259.9375 108.1496 Z"/><path style="fill:rgb(230,0,0); stroke:none;" d="M-281.0625 51.8927 Q-281.0625 53.9552 -282.1016 55.1349 Q-283.1406 56.3146 -284.9844 56.3146 Q-286.875 56.3146 -287.9062 55.1505 Q-288.9375 53.9864 -288.9375 51.8771 Q-288.9375 49.7833 -287.9062 48.6349 Q-286.875 47.4864 -284.9844 47.4864 Q-283.125 47.4864 -282.0938 48.6583 Q-281.0625 49.8302 -281.0625 51.8927 ZM-287.8906 51.8927 Q-287.8906 53.6271 -287.1484 54.5333 Q-286.4062 55.4396 -284.9844 55.4396 Q-283.5625 55.4396 -282.8359 54.5411 Q-282.1094 53.6427 -282.1094 51.8927 Q-282.1094 50.1583 -282.8359 49.2677 Q-283.5625 48.3771 -284.9844 48.3771 Q-286.4062 48.3771 -287.1484 49.2755 Q-287.8906 50.1739 -287.8906 51.8927 Z"/><path style="fill:rgb(230,0,0); stroke:none;" d="M-289.9375 56.1896 L-290.9375 56.1896 L-290.9375 52.1583 L-295.4531 52.1583 L-295.4531 56.1896 L-296.4531 56.1896 L-296.4531 47.6271 L-295.4531 47.6271 L-295.4531 51.2677 L-290.9375 51.2677 L-290.9375 47.6271 L-289.9375 47.6271 L-289.9375 56.1896 Z"/><path style="fill:none; stroke:black;" d="M-195.25 52.396 L-195 51.963 L-195.25 51.53"/><path style="fill:none; stroke:black;" d="M-209.75 77.51 L-210 77.943 L-210.5 77.943"/><path style="fill:none; stroke:black;" d="M-209.75 26.413 L-210 25.98 L-210.5 25.98"/><path style="fill:none; stroke:black;" d="M-240.25 77.51 L-240 77.943 L-240.25 78.376"/><path style="fill:none; stroke:black;" d="M-239.5 25.98 L-240 25.98 L-240.25 26.413"/><path style="fill:none; stroke:black;" d="M-254.75 52.396 L-255 51.963 L-255.5 51.963"/></g></g></svg></svg></svg></svg>