<svg width="140" viewBox="0 0 140 104" style="fill-opacity:1; color-rendering:auto; color-interpolation:auto; text-rendering:auto; stroke:black; stroke-linecap:square; stroke-miterlimit:10; shape-rendering:auto; stroke-opacity:1; fill:black; stroke-dasharray:none; font-weight:normal; stroke-width:1; font-family:'Open Sans'; font-style:normal; stroke-linejoin:miter; font-size:12; stroke-dashoffset:0; image-rendering:auto;" height="104" class="cas-substance-image" xmlns:xlink="http://www.w3.org/1999/xlink" xmlns="http://www.w3.org/2000/svg"><svg class="cas-substance-single-component"><rect y="0" x="0" width="140" stroke="none" ry="7" rx="7" height="104" fill="white" class="cas-substance-group"/><svg y="0" x="0" width="140" viewBox="0 0 140 104" style="fill:black;" height="104" class="cas-substance-single-component-image"><svg><g><g transform="translate(69,54)" style="text-rendering:geometricPrecision; color-rendering:optimizeQuality; color-interpolation:linearRGB; stroke-linecap:butt; image-rendering:optimizeQuality;"><line y2="-25.3124" y1="-16.1391" x2="57.1351" x1="41.2469" style="fill:none;"/><line y2="-34.9803" y1="-20.035" x2="26.8974" x1="35.5263" style="fill:none;"/><line y2="-33.2303" y1="-18.285" x2="23.8663" x1="32.4953" style="fill:none;"/><line y2="7.3691" y1="-7.5923" x2="47.3057" x1="38.6685" style="fill:none;"/><line y2="5.6192" y1="-9.3422" x2="50.3369" x1="41.6997" style="fill:none;"/><line y2="1.239" y1="-11.2193" x2="11.148" x1="32.7258" style="fill:none;"/><line y2="1.239" y1="-13.761" x2="-40.815" x1="-14.835" style="fill:none;"/><line y2="1.239" y1="-13.761" x2="11.148" x1="-14.835" style="fill:none;"/><line y2="-36.9915" y1="-13.761" x2="-19.7727" x1="-14.835" style="fill:none;"/><line y2="-36.2638" y1="-15.0099" x2="-23.1963" x1="-18.6786" style="fill:none;"/><line y2="31.239" y1="1.239" x2="-40.815" x1="-40.815" style="fill:none;"/><line y2="-14.4779" y1="1.239" x2="-58.2702" x1="-40.815" style="fill:none;"/><line y2="-17.0789" y1="-2.7141" x2="-55.9282" x1="-39.9747" style="fill:none;"/><line y2="31.239" y1="1.239" x2="11.148" x1="11.148" style="fill:none;"/><line y2="29.2183" y1="3.2597" x2="7.648" x1="7.648" style="fill:none;"/><line y2="-45.6163" y1="-43.6652" x2="-44.9805" x1="-26.4126" style="fill:none;"/><line y2="46.239" y1="31.239" x2="-14.835" x1="-40.815" style="fill:none;"/><line y2="42.1976" y1="29.2183" x2="-14.8349" x1="-37.315" style="fill:none;"/><line y2="-40.1072" y1="-25.0674" x2="-53.637" x1="-60.3328" style="fill:none;"/><line y2="46.239" y1="31.239" x2="-14.835" x1="11.148" style="fill:none;"/></g><g transform="translate(69,54)" style="fill:rgb(148,108,0); text-rendering:geometricPrecision; color-rendering:optimizeQuality; image-rendering:optimizeQuality; font-family:'Open Sans'; stroke:rgb(148,108,0); color-interpolation:linearRGB;"><path style="stroke:none;" d="M39.8233 -11.8235 Q39.8233 -10.6985 39.003 -10.0579 Q38.1827 -9.4172 36.7764 -9.4172 Q35.2452 -9.4172 34.4327 -9.8235 L34.4327 -10.7766 Q34.9639 -10.5579 35.5811 -10.4251 Q36.1983 -10.2922 36.8077 -10.2922 Q37.8077 -10.2922 38.3077 -10.6751 Q38.8077 -11.0579 38.8077 -11.7297 Q38.8077 -12.1672 38.628 -12.4563 Q38.4483 -12.7454 38.0342 -12.9876 Q37.6202 -13.2297 36.7608 -13.5266 Q35.5733 -13.9485 35.0577 -14.5344 Q34.5421 -15.1204 34.5421 -16.0735 Q34.5421 -17.0579 35.2842 -17.6438 Q36.0264 -18.2297 37.2608 -18.2297 Q38.5264 -18.2297 39.6046 -17.761 L39.2921 -16.9016 Q38.2296 -17.3391 37.2296 -17.3391 Q36.4327 -17.3391 35.9874 -17.0032 Q35.5421 -16.6672 35.5421 -16.0579 Q35.5421 -15.6204 35.7061 -15.3313 Q35.8702 -15.0422 36.2608 -14.8079 Q36.6514 -14.5735 37.4639 -14.2766 Q38.8077 -13.8079 39.3155 -13.2532 Q39.8233 -12.6985 39.8233 -11.8235 Z"/><path style="fill:rgb(0,138,0); stroke:none;" d="M62.7994 -32.1204 Q61.3932 -32.1204 60.5728 -31.1829 Q59.7525 -30.2454 59.7525 -28.6047 Q59.7525 -26.9329 60.5416 -26.011 Q61.3307 -25.0891 62.7838 -25.0891 Q63.69 -25.0891 64.8307 -25.4172 L64.8307 -24.5422 Q63.94 -24.1985 62.6432 -24.1985 Q60.7525 -24.1985 59.7213 -25.3547 Q58.69 -26.511 58.69 -28.6204 Q58.69 -29.9485 59.1822 -30.9407 Q59.6744 -31.9329 60.6119 -32.4719 Q61.5494 -33.011 62.815 -33.011 Q64.1588 -33.011 65.1744 -32.5266 L64.7525 -31.6672 Q63.7682 -32.1204 62.7994 -32.1204 ZM67.526 -24.3235 L66.5572 -24.3235 L66.5572 -33.4485 L67.526 -33.4485 L67.526 -24.3235 Z"/><path style="fill:rgb(230,0,0); stroke:none;" d="M26.0655 -39.8113 Q26.0655 -37.7488 25.0264 -36.5691 Q23.9874 -35.3894 22.1436 -35.3894 Q20.253 -35.3894 19.2218 -36.5535 Q18.1905 -37.7176 18.1905 -39.8269 Q18.1905 -41.9207 19.2218 -43.0691 Q20.253 -44.2176 22.1436 -44.2176 Q24.003 -44.2176 25.0343 -43.0457 Q26.0655 -41.8738 26.0655 -39.8113 ZM19.2374 -39.8113 Q19.2374 -38.0769 19.9796 -37.1707 Q20.7218 -36.2644 22.1436 -36.2644 Q23.5655 -36.2644 24.2921 -37.1629 Q25.0186 -38.0613 25.0186 -39.8113 Q25.0186 -41.5457 24.2921 -42.4363 Q23.5655 -43.3269 22.1436 -43.3269 Q20.7218 -43.3269 19.9796 -42.4285 Q19.2374 -41.5301 19.2374 -39.8113 Z"/><path style="fill:rgb(230,0,0); stroke:none;" d="M56.0655 12.1517 Q56.0655 14.2142 55.0264 15.3939 Q53.9874 16.5736 52.1436 16.5736 Q50.253 16.5736 49.2217 15.4095 Q48.1905 14.2454 48.1905 12.1361 Q48.1905 10.0423 49.2217 8.8939 Q50.253 7.7454 52.1436 7.7454 Q54.003 7.7454 55.0342 8.9173 Q56.0655 10.0892 56.0655 12.1517 ZM49.2374 12.1517 Q49.2374 13.8861 49.9796 14.7923 Q50.7217 15.6986 52.1436 15.6986 Q53.5655 15.6986 54.2921 14.8001 Q55.0186 13.9017 55.0186 12.1517 Q55.0186 10.4173 54.2921 9.5267 Q53.5655 8.6361 52.1436 8.6361 Q50.7217 8.6361 49.9796 9.5345 Q49.2374 10.4329 49.2374 12.1517 Z"/></g><g transform="translate(69,54)" style="stroke-linecap:butt; text-rendering:geometricPrecision; color-rendering:optimizeQuality; image-rendering:optimizeQuality; font-family:'Open Sans'; color-interpolation:linearRGB; stroke-miterlimit:5;"><path style="fill:none;" d="M-14.939 -14.2501 L-14.835 -13.761 L-15.268 -13.511"/><path style="fill:none;" d="M-41.1866 0.9044 L-40.815 1.239 L-40.382 0.989"/><path style="fill:none;" d="M11.148 1.739 L11.148 1.239 L11.581 0.989"/><path style="fill:rgb(0,5,255); stroke:none;" d="M-17.7204 -38.9478 L-18.8611 -38.9478 L-23.5486 -46.1353 L-23.5954 -46.1353 Q-23.5017 -44.8696 -23.5017 -43.8228 L-23.5017 -38.9478 L-24.4236 -38.9478 L-24.4236 -47.5103 L-23.2986 -47.5103 L-18.6267 -40.354 L-18.5798 -40.354 Q-18.5798 -40.5103 -18.6267 -41.3696 Q-18.6736 -42.229 -18.6579 -42.604 L-18.6579 -47.5103 L-17.7204 -47.5103 L-17.7204 -38.9478 Z"/><path style="fill:none;" d="M-40.815 30.739 L-40.815 31.239 L-40.382 31.489"/><path style="fill:rgb(0,5,255); stroke:none;" d="M-59.7564 -14.6777 L-60.8971 -14.6777 L-65.5846 -21.8652 L-65.6314 -21.8652 Q-65.5377 -20.5996 -65.5377 -19.5527 L-65.5377 -14.6777 L-66.4596 -14.6777 L-66.4596 -23.2402 L-65.3346 -23.2402 L-60.6627 -16.084 L-60.6158 -16.084 Q-60.6158 -16.2402 -60.6627 -17.0996 Q-60.7096 -17.959 -60.6939 -18.334 L-60.6939 -23.2402 L-59.7564 -23.2402 L-59.7564 -14.6777 Z"/><path style="fill:none;" d="M11.148 30.739 L11.148 31.239 L10.715 31.489"/><path style="fill:rgb(230,0,0); stroke:none;" d="M-46.9695 -46.3093 Q-46.9695 -44.2468 -48.0086 -43.0671 Q-49.0476 -41.8874 -50.8914 -41.8874 Q-52.782 -41.8874 -53.8133 -43.0515 Q-54.8445 -44.2156 -54.8445 -46.3249 Q-54.8445 -48.4187 -53.8133 -49.5671 Q-52.782 -50.7156 -50.8914 -50.7156 Q-49.032 -50.7156 -48.0008 -49.5437 Q-46.9695 -48.3718 -46.9695 -46.3093 ZM-53.7976 -46.3093 Q-53.7976 -44.5749 -53.0554 -43.6687 Q-52.3133 -42.7624 -50.8914 -42.7624 Q-49.4695 -42.7624 -48.7429 -43.6609 Q-48.0164 -44.5593 -48.0164 -46.3093 Q-48.0164 -48.0437 -48.7429 -48.9343 Q-49.4695 -49.8249 -50.8914 -49.8249 Q-52.3133 -49.8249 -53.0554 -48.9265 Q-53.7976 -48.0281 -53.7976 -46.3093 Z"/><path style="fill:none;" d="M-15.268 45.989 L-14.835 46.239 L-14.402 45.989"/></g></g></svg></svg></svg></svg>