<svg xmlns:ns0="http://www.w3.org/2000/svg" xmlns="http://www.w3.org/2000/svg"><g transform="translate(0, 0)"><ns0:svg width="240" viewBox="0 0 240 89" style="fill-opacity:1; color-rendering:auto; color-interpolation:auto; text-rendering:auto; stroke:black; stroke-linecap:square; stroke-miterlimit:10; shape-rendering:auto; stroke-opacity:1; fill:black; stroke-dasharray:none; font-weight:normal; stroke-width:1; font-family:'Open Sans'; font-style:normal; stroke-linejoin:miter; font-size:12; stroke-dashoffset:0; image-rendering:auto;" height="89" class="cas-substance-image"><ns0:svg class="cas-substance-single-component"><ns0:rect y="0" x="0" width="240" stroke="none" ry="7" rx="7" height="89" fill="white" class="cas-substance-group" /><ns0:svg y="0" x="0" width="240" viewBox="0 0 240 89" style="fill:black;" height="89" class="cas-substance-single-component-image"><ns0:svg><ns0:g><ns0:g transform="translate(120,45)" style="text-rendering:geometricPrecision; color-rendering:optimizeQuality; color-interpolation:linearRGB; stroke-linecap:butt; image-rendering:optimizeQuality;"><ns0:line y2="8.8617" y1="-5.6864" x2="23.018" x1="14.6183" style="fill:none;" /><ns0:line y2="-10.98" y1="-10.98" x2="-18.438" x1="6.9187" style="fill:none;" /><ns0:line y2="15" y1="15" x2="56.562" x1="31.9136" style="fill:none;" /><ns0:line y2="4.02" y1="-25.98" x2="-64.602" x1="-64.602" style="fill:none;" /><ns0:line y2="-33.5431" y1="-25.98" x2="-41.3227" x1="-64.602" style="fill:none;" /><ns0:line y2="-40.98" y1="-25.98" x2="-90.582" x1="-64.602" style="fill:none;" /><ns0:line y2="-36.9386" y1="-23.9593" x2="-90.582" x1="-68.102" style="fill:none;" /><ns0:line y2="11.8181" y1="4.02" x2="-40.5996" x1="-64.602" style="fill:none;" /><ns0:line y2="19.02" y1="4.02" x2="-90.582" x1="-64.602" style="fill:none;" /><ns0:line y2="14.9785" y1="1.9993" x2="-90.582" x1="-68.102" style="fill:none;" /><ns0:line y2="-10.98" y1="-29.4756" x2="-18.438" x1="-31.8742" style="fill:none;" /><ns0:line y2="-10.5578" y1="-27.4186" x2="-22.4573" x1="-34.7059" style="fill:none;" /><ns0:line y2="-25.98" y1="-40.98" x2="-116.562" x1="-90.582" style="fill:none;" /><ns0:line y2="-10.98" y1="8.669" x2="-18.438" x1="-32.7121" style="fill:none;" /><ns0:line y2="4.02" y1="19.02" x2="-116.562" x1="-90.582" style="fill:none;" /><ns0:line y2="4.02" y1="-25.98" x2="-116.562" x1="-116.562" style="fill:none;" /><ns0:line y2="1.9993" y1="-23.9593" x2="-113.062" x1="-113.062" style="fill:none;" /><ns0:line y2="40.98" y1="15" x2="71.562" x1="56.562" style="fill:none;" /><ns0:line y2="-10.98" y1="15" x2="71.562" x1="56.562" style="fill:none;" /><ns0:line y2="40.98" y1="40.98" x2="101.562" x1="71.562" style="fill:none;" /><ns0:line y2="-10.98" y1="-10.98" x2="101.562" x1="71.562" style="fill:none;" /><ns0:line y2="15" y1="40.98" x2="116.562" x1="101.562" style="fill:none;" /><ns0:line y2="15" y1="-10.98" x2="116.562" x1="101.562" style="fill:none;" /></ns0:g><ns0:g transform="translate(120,45)" style="fill:rgb(148,108,0); text-rendering:geometricPrecision; color-rendering:optimizeQuality; image-rendering:optimizeQuality; font-family:'Open Sans'; stroke:rgb(148,108,0); color-interpolation:linearRGB;"><ns0:path style="stroke:none;" d="M14.2573 -9.0425 Q14.2573 -7.9175 13.437 -7.2769 Q12.6167 -6.6362 11.2104 -6.6362 Q9.6792 -6.6362 8.8667 -7.0425 L8.8667 -7.9956 Q9.3979 -7.7769 10.0151 -7.6441 Q10.6323 -7.5112 11.2417 -7.5112 Q12.2417 -7.5112 12.7417 -7.8941 Q13.2417 -8.2769 13.2417 -8.9487 Q13.2417 -9.3862 13.062 -9.6753 Q12.8823 -9.9644 12.4683 -10.2066 Q12.0542 -10.4487 11.1948 -10.7456 Q10.0073 -11.1675 9.4917 -11.7534 Q8.9761 -12.3394 8.9761 -13.2925 Q8.9761 -14.2769 9.7183 -14.8628 Q10.4604 -15.4487 11.6948 -15.4487 Q12.9604 -15.4487 14.0386 -14.98 L13.7261 -14.1206 Q12.6636 -14.5581 11.6636 -14.5581 Q10.8667 -14.5581 10.4214 -14.2222 Q9.9761 -13.8862 9.9761 -13.2769 Q9.9761 -12.8394 10.1401 -12.5503 Q10.3042 -12.2612 10.6948 -12.0269 Q11.0854 -11.7925 11.8979 -11.4956 Q13.2417 -11.0269 13.7495 -10.4722 Q14.2573 -9.9175 14.2573 -9.0425 Z" /><ns0:path style="fill:rgb(0,5,255); stroke:none;" d="M29.9136 19.1562 L28.7729 19.1562 L24.0854 11.9688 L24.0386 11.9688 Q24.1323 13.2344 24.1323 14.2812 L24.1323 19.1562 L23.2104 19.1562 L23.2104 10.5938 L24.3354 10.5938 L29.0073 17.75 L29.0542 17.75 Q29.0542 17.5938 29.0073 16.7344 Q28.9604 15.875 28.9761 15.5 L28.9761 10.5938 L29.9136 10.5938 L29.9136 19.1562 Z" /><ns0:path style="fill:rgb(0,5,255); stroke:none;" d="M29.8198 28.7188 L28.8198 28.7188 L28.8198 24.6875 L24.3042 24.6875 L24.3042 28.7188 L23.3042 28.7188 L23.3042 20.1562 L24.3042 20.1562 L24.3042 23.7969 L28.8198 23.7969 L28.8198 20.1562 L29.8198 20.1562 L29.8198 28.7188 Z" /></ns0:g><ns0:g transform="translate(120,45)" style="stroke-linecap:butt; text-rendering:geometricPrecision; color-rendering:optimizeQuality; image-rendering:optimizeQuality; font-family:'Open Sans'; color-interpolation:linearRGB; stroke-miterlimit:5;"><ns0:path style="fill:none;" d="M-65.035 -26.23 L-64.602 -25.98 L-64.602 -25.48" /><ns0:path style="fill:none;" d="M-65.035 4.27 L-64.602 4.02 L-64.1265 4.1745" /><ns0:path style="fill:rgb(0,5,255); stroke:none;" d="M-32.7174 -31.0938 L-33.8581 -31.0938 L-38.5456 -38.2812 L-38.5924 -38.2812 Q-38.4987 -37.0156 -38.4987 -35.9688 L-38.4987 -31.0938 L-39.4206 -31.0938 L-39.4206 -39.6562 L-38.2956 -39.6562 L-33.6237 -32.5 L-33.5768 -32.5 Q-33.5768 -32.6562 -33.6237 -33.5156 Q-33.6706 -34.375 -33.6549 -34.75 L-33.6549 -39.6562 L-32.7174 -39.6562 L-32.7174 -31.0938 Z" /><ns0:path style="fill:none;" d="M-90.149 -40.73 L-90.582 -40.98 L-91.015 -40.73" /><ns0:path style="fill:rgb(148,108,0); stroke:none;" d="M-33.3737 15.2275 Q-33.3737 16.3525 -34.194 16.9931 Q-35.0143 17.6338 -36.4206 17.6338 Q-37.9518 17.6338 -38.7643 17.2275 L-38.7643 16.2744 Q-38.2331 16.4931 -37.6159 16.6259 Q-36.9987 16.7588 -36.3893 16.7588 Q-35.3893 16.7588 -34.8893 16.3759 Q-34.3893 15.9931 -34.3893 15.3213 Q-34.3893 14.8838 -34.569 14.5947 Q-34.7487 14.3056 -35.1628 14.0634 Q-35.5768 13.8213 -36.4362 13.5244 Q-37.6237 13.1025 -38.1393 12.5166 Q-38.6549 11.9306 -38.6549 10.9775 Q-38.6549 9.9931 -37.9128 9.4072 Q-37.1706 8.8213 -35.9362 8.8213 Q-34.6706 8.8213 -33.5924 9.29 L-33.9049 10.1494 Q-34.9674 9.7119 -35.9674 9.7119 Q-36.7643 9.7119 -37.2096 10.0478 Q-37.6549 10.3838 -37.6549 10.9931 Q-37.6549 11.4306 -37.4909 11.7197 Q-37.3268 12.0088 -36.9362 12.2431 Q-36.5456 12.4775 -35.7331 12.7744 Q-34.3893 13.2431 -33.8815 13.7978 Q-33.3737 14.3525 -33.3737 15.2275 Z" /><ns0:path style="fill:none;" d="M-90.149 18.77 L-90.582 19.02 L-91.015 18.77" /><ns0:path style="fill:none;" d="M-18.7319 -11.3845 L-18.438 -10.98 L-17.938 -10.98" /><ns0:path style="fill:none;" d="M-116.129 -26.23 L-116.562 -25.98 L-116.562 -25.48" /><ns0:path style="fill:none;" d="M-116.129 4.27 L-116.562 4.02 L-116.562 3.52" /><ns0:path style="fill:none;" d="M71.312 40.547 L71.562 40.98 L72.062 40.98" /><ns0:path style="fill:none;" d="M71.312 -10.547 L71.562 -10.98 L72.062 -10.98" /><ns0:path style="fill:none;" d="M101.062 40.98 L101.562 40.98 L101.812 40.547" /><ns0:path style="fill:none;" d="M101.062 -10.98 L101.562 -10.98 L101.812 -10.547" /><ns0:path style="fill:none;" d="M116.312 15.433 L116.562 15 L116.312 14.567" /></ns0:g></ns0:g></ns0:svg></ns0:svg></ns0:svg></ns0:svg></g></svg>