<svg xmlns:ns0="http://www.w3.org/2000/svg" xmlns="http://www.w3.org/2000/svg"><g transform="translate(0, 0)"><ns0:svg width="233" viewBox="0 0 233 155" style="fill-opacity:1; color-rendering:auto; color-interpolation:auto; text-rendering:auto; stroke:black; stroke-linecap:square; stroke-miterlimit:10; shape-rendering:auto; stroke-opacity:1; fill:black; stroke-dasharray:none; font-weight:normal; stroke-width:1; font-family:'Open Sans'; font-style:normal; stroke-linejoin:miter; font-size:12; stroke-dashoffset:0; image-rendering:auto;" height="155" class="cas-substance-image"><ns0:svg class="cas-substance-single-component"><ns0:rect y="0" x="0" width="233" stroke="none" ry="7" rx="7" height="155" fill="white" class="cas-substance-group" /><ns0:svg y="0" x="0" width="233" viewBox="0 0 233 155" style="fill:black;" height="155" class="cas-substance-single-component-image"><ns0:svg><ns0:g><ns0:g transform="translate(116,77)" style="text-rendering:geometricPrecision; color-rendering:optimizeQuality; color-interpolation:linearRGB; stroke-linecap:butt; image-rendering:optimizeQuality;"><ns0:line y2="1.5013" y1="15.8724" x2="-1.8471" x1="6.4503" style="fill:none;" /><ns0:line y2="0.9563" y1="9.779" x2="-11.8354" x1="-22.349" style="fill:none;" /><ns0:line y2="-10.4675" y1="-13.0985" x2="11.0448" x1="18.2738" style="fill:none;" /><ns0:line y2="-44.316" y1="-21.1478" x2="28.083" x1="23.9966" style="fill:none;" /><ns0:line y2="-14.772" y1="-14.772" x2="52.872" x1="27.0233" style="fill:none;" /><ns0:line y2="14.772" y1="-10.8599" x2="28.083" x1="23.562" style="fill:none;" /><ns0:line y2="-21.4969" y1="-9.9803" x2="-25.5593" x1="-11.8354" style="fill:none;" /><ns0:line y2="-63.6" y1="-44.316" x2="5.1" x1="28.083" style="fill:none;" /><ns0:line y2="-53.34" y1="-30.1719" x2="-23.091" x1="-27.1751" style="fill:none;" /><ns0:line y2="2.187" y1="-17.9077" x2="-43.299" x1="-31.6983" style="fill:none;" /><ns0:line y2="-34.056" y1="-25.4695" x2="-56.49" x1="-32.8971" style="fill:none;" /><ns0:line y2="-53.34" y1="-63.6" x2="-23.091" x1="5.1" style="fill:none;" /><ns0:line y2="11.208" y1="-14.772" x2="67.872" x1="52.872" style="fill:none;" /><ns0:line y2="7.708" y1="-14.772" x2="69.8927" x1="56.9135" style="fill:none;" /><ns0:line y2="-40.752" y1="-14.772" x2="67.872" x1="52.872" style="fill:none;" /><ns0:line y2="11.208" y1="11.208" x2="97.872" x1="67.872" style="fill:none;" /><ns0:line y2="-40.752" y1="-40.752" x2="97.872" x1="67.872" style="fill:none;" /><ns0:line y2="-37.252" y1="-37.252" x2="95.8513" x1="69.8927" style="fill:none;" /><ns0:line y2="-14.772" y1="11.208" x2="112.872" x1="97.872" style="fill:none;" /><ns0:line y2="-14.7721" y1="7.708" x2="108.8305" x1="95.8513" style="fill:none;" /><ns0:line y2="-14.772" y1="-40.752" x2="112.872" x1="97.872" style="fill:none;" /><ns0:line y2="34.056" y1="14.772" x2="5.1" x1="28.083" style="fill:none;" /><ns0:line y2="35.4384" y1="18.7521" x2="8.8977" x1="28.7847" style="fill:none;" /><ns0:line y2="25.032" y1="14.772" x2="56.271" x1="28.083" style="fill:none;" /><ns0:line y2="63.6" y1="34.056" x2="10.311" x1="5.1" style="fill:none;" /><ns0:line y2="54.576" y1="25.032" x2="61.482" x1="56.271" style="fill:none;" /><ns0:line y2="53.1939" y1="27.63" x2="57.6842" x1="53.1752" style="fill:none;" /><ns0:line y2="73.86" y1="63.6" x2="38.502" x1="10.311" style="fill:none;" /><ns0:line y2="69.88" y1="61.0021" x2="37.8001" x1="13.4069" style="fill:none;" /><ns0:line y2="73.86" y1="54.576" x2="38.502" x1="61.482" style="fill:none;" /><ns0:line y2="28.167" y1="2.187" x2="-28.299" x1="-43.299" style="fill:none;" /><ns0:line y2="28.1671" y1="5.687" x2="-32.3405" x1="-45.3197" style="fill:none;" /><ns0:line y2="2.187" y1="2.187" x2="-73.299" x1="-43.299" style="fill:none;" /><ns0:line y2="54.147" y1="28.167" x2="-43.299" x1="-28.299" style="fill:none;" /><ns0:line y2="28.167" y1="2.187" x2="-88.299" x1="-73.299" style="fill:none;" /><ns0:line y2="28.1671" y1="5.687" x2="-84.2576" x1="-71.2783" style="fill:none;" /><ns0:line y2="54.147" y1="54.147" x2="-73.299" x1="-43.299" style="fill:none;" /><ns0:line y2="50.647" y1="50.647" x2="-71.2783" x1="-45.3197" style="fill:none;" /><ns0:line y2="54.147" y1="28.167" x2="-73.299" x1="-88.299" style="fill:none;" /><ns0:line y2="-14.772" y1="-34.056" x2="-79.473" x1="-56.49" style="fill:none;" /><ns0:line y2="-18.7521" y1="-35.4384" x2="-80.1747" x1="-60.2877" style="fill:none;" /><ns0:line y2="-63.6" y1="-34.056" x2="-61.701" x1="-56.49" style="fill:none;" /><ns0:line y2="-25.032" y1="-14.772" x2="-107.664" x1="-79.473" style="fill:none;" /><ns0:line y2="-73.86" y1="-63.6" x2="-89.892" x1="-61.701" style="fill:none;" /><ns0:line y2="-69.88" y1="-61.0021" x2="-89.1901" x1="-64.7969" style="fill:none;" /><ns0:line y2="-54.576" y1="-25.032" x2="-112.872" x1="-107.664" style="fill:none;" /><ns0:line y2="-53.1936" y1="-27.6297" x2="-109.0743" x1="-104.5679" style="fill:none;" /><ns0:line y2="-54.576" y1="-73.86" x2="-112.872" x1="-89.892" style="fill:none;" /></ns0:g><ns0:g transform="translate(116,77)" style="fill:rgb(0,138,0); text-rendering:geometricPrecision; color-rendering:optimizeQuality; image-rendering:optimizeQuality; font-family:'Open Sans'; stroke:rgb(0,138,0); color-interpolation:linearRGB;"><ns0:path style="stroke:none;" d="M9.3724 18.1086 Q7.9662 18.1086 7.1458 19.0461 Q6.3255 19.9836 6.3255 21.6243 Q6.3255 23.2961 7.1146 24.218 Q7.9037 25.1399 9.3568 25.1399 Q10.263 25.1399 11.4037 24.8118 L11.4037 25.6868 Q10.513 26.0305 9.2162 26.0305 Q7.3255 26.0305 6.2943 24.8743 Q5.263 23.718 5.263 21.6086 Q5.263 20.2805 5.7552 19.2883 Q6.2474 18.2961 7.1849 17.7571 Q8.1224 17.218 9.388 17.218 Q10.7318 17.218 11.7474 17.7024 L11.3255 18.5618 Q10.3412 18.1086 9.3724 18.1086 ZM14.099 25.9055 L13.1302 25.9055 L13.1302 16.7805 L14.099 16.7805 L14.099 25.9055 Z" /><ns0:path style="fill:black; stroke:none;" d="M15.099 18.9899 L15.099 18.3961 L18.4583 18.3961 L18.4583 18.9899 L15.099 18.9899 Z" /><ns0:path style="stroke:none;" d="M-28.6076 11.4126 Q-30.0138 11.4126 -30.8342 12.3501 Q-31.6545 13.2876 -31.6545 14.9282 Q-31.6545 16.6001 -30.8654 17.522 Q-30.0763 18.4439 -28.6232 18.4439 Q-27.717 18.4439 -26.5763 18.1157 L-26.5763 18.9907 Q-27.467 19.3345 -28.7638 19.3345 Q-30.6545 19.3345 -31.6857 18.1782 Q-32.717 17.022 -32.717 14.9126 Q-32.717 13.5845 -32.2248 12.5923 Q-31.7326 11.6001 -30.7951 11.0611 Q-29.8576 10.522 -28.592 10.522 Q-27.2482 10.522 -26.2326 11.0064 L-26.6545 11.8657 Q-27.6388 11.4126 -28.6076 11.4126 ZM-23.881 19.2095 L-24.8498 19.2095 L-24.8498 10.0845 L-23.881 10.0845 L-23.881 19.2095 Z" /><ns0:path style="fill:black; stroke:none;" d="M-22.881 12.2939 L-22.881 11.7001 L-19.5217 11.7001 L-19.5217 12.2939 L-22.881 12.2939 Z" /><ns0:path style="fill:rgb(111,5,255); stroke:none;" d="M25.5907 -16.6939 Q25.5907 -15.3814 24.7001 -14.6861 Q23.8095 -13.9907 22.1689 -13.9907 L21.1532 -13.9907 L21.1532 -10.6157 L20.1532 -10.6157 L20.1532 -19.1782 L22.3876 -19.1782 Q25.5907 -19.1782 25.5907 -16.6939 ZM21.1532 -14.8345 L22.0595 -14.8345 Q23.372 -14.8345 23.9657 -15.2642 Q24.5595 -15.6939 24.5595 -16.647 Q24.5595 -17.4907 24.0048 -17.9048 Q23.4501 -18.3189 22.2626 -18.3189 L21.1532 -18.3189 L21.1532 -14.8345 Z" /><ns0:path style="fill:black; stroke:none;" d="M-3.6003 -0.2308 L-4.7409 -0.2308 L-9.4284 -7.4183 L-9.4753 -7.4183 Q-9.3815 -6.1526 -9.3815 -5.1058 L-9.3815 -0.2308 L-10.3034 -0.2308 L-10.3034 -8.7933 L-9.1784 -8.7933 L-4.5065 -1.637 L-4.4596 -1.637 Q-4.4596 -1.7933 -4.5065 -2.6526 Q-4.5534 -3.512 -4.5378 -3.887 L-4.5378 -8.7933 L-3.6003 -8.7933 L-3.6003 -0.2308 ZM-0.4284 -0.2308 L-1.3971 -0.2308 L-1.3971 -6.6526 L-0.4284 -6.6526 L-0.4284 -0.2308 ZM-1.4753 -8.387 Q-1.4753 -8.7308 -1.3112 -8.887 Q-1.1471 -9.0433 -0.8971 -9.0433 Q-0.6628 -9.0433 -0.4987 -8.8792 Q-0.3346 -8.7151 -0.3346 -8.387 Q-0.3346 -8.0589 -0.4987 -7.9026 Q-0.6628 -7.7464 -0.8971 -7.7464 Q-1.1471 -7.7464 -1.3112 -7.9026 Q-1.4753 -8.0589 -1.4753 -8.387 Z" /><ns0:path style="fill:black; stroke:none;" d="M4.4154 -4.2573 L0.6654 -4.2573 L0.6654 -4.8198 L2.1654 -6.3354 Q2.8529 -7.0229 3.0716 -7.3198 Q3.2904 -7.6167 3.3997 -7.8979 Q3.5091 -8.1792 3.5091 -8.5073 Q3.5091 -8.9604 3.2357 -9.2261 Q2.9622 -9.4917 2.4622 -9.4917 Q2.1185 -9.4917 1.7982 -9.3745 Q1.4779 -9.2573 1.0872 -8.9604 L0.7435 -9.3979 Q1.5247 -10.0542 2.4622 -10.0542 Q3.2591 -10.0542 3.7201 -9.6401 Q4.181 -9.2261 4.181 -8.5386 Q4.181 -7.9917 3.8763 -7.4604 Q3.5716 -6.9292 2.7279 -6.1167 L1.4779 -4.8979 L1.4779 -4.8667 L4.4154 -4.8667 L4.4154 -4.2573 Z" /><ns0:path style="fill:black; stroke:none;" d="M7.556 -7.4214 L9.1654 -7.4214 L9.1654 -6.8745 L7.556 -6.8745 L7.556 -5.2183 L7.0247 -5.2183 L7.0247 -6.8745 L5.4154 -6.8745 L5.4154 -7.4214 L7.0247 -7.4214 L7.0247 -9.0933 L7.556 -9.0933 L7.556 -7.4214 Z" /></ns0:g><ns0:g transform="translate(116,77)" style="stroke-linecap:butt; font-size:8.4px; text-rendering:geometricPrecision; color-rendering:optimizeQuality; image-rendering:optimizeQuality; font-family:'Open Sans'; color-interpolation:linearRGB; stroke-miterlimit:5;"><ns0:path style="fill:none;" d="M27.9962 -43.8236 L28.083 -44.316 L27.7 -44.6374" /><ns0:path style="fill:rgb(111,5,255); stroke:none;" d="M-25.5802 -25.7179 Q-25.5802 -24.4054 -26.4709 -23.7101 Q-27.3615 -23.0148 -29.0021 -23.0148 L-30.0177 -23.0148 L-30.0177 -19.6398 L-31.0177 -19.6398 L-31.0177 -28.2023 L-28.7834 -28.2023 Q-25.5802 -28.2023 -25.5802 -25.7179 ZM-30.0177 -23.8585 L-29.1115 -23.8585 Q-27.799 -23.8585 -27.2052 -24.2882 Q-26.6115 -24.7179 -26.6115 -25.671 Q-26.6115 -26.5148 -27.1662 -26.9288 Q-27.7209 -27.3429 -28.9084 -27.3429 L-30.0177 -27.3429 L-30.0177 -23.8585 Z" /><ns0:path style="fill:none;" d="M5.483 -63.2786 L5.1 -63.6 L4.6301 -63.429" /><ns0:path style="fill:none;" d="M-23.1778 -52.8476 L-23.091 -53.34 L-22.6211 -53.511" /><ns0:path style="fill:none;" d="M53.122 -14.339 L52.872 -14.772 L52.372 -14.772" /><ns0:path style="fill:none;" d="M67.622 10.775 L67.872 11.208 L68.372 11.208" /><ns0:path style="fill:none;" d="M67.622 -40.319 L67.872 -40.752 L68.372 -40.752" /><ns0:path style="fill:none;" d="M97.372 11.208 L97.872 11.208 L98.122 10.775" /><ns0:path style="fill:none;" d="M97.372 -40.752 L97.872 -40.752 L98.122 -40.319" /><ns0:path style="fill:none;" d="M112.622 -14.339 L112.872 -14.772 L112.622 -15.205" /><ns0:path style="fill:none;" d="M27.7 15.0934 L28.083 14.772 L27.9962 14.2796" /><ns0:path style="fill:none;" d="M5.483 33.7346 L5.1 34.056 L5.1868 34.5484" /><ns0:path style="fill:none;" d="M55.8012 24.861 L56.271 25.032 L56.3578 25.5244" /><ns0:path style="fill:none;" d="M10.2241 63.1076 L10.311 63.6 L10.7808 63.771" /><ns0:path style="fill:none;" d="M61.3952 54.0836 L61.482 54.576 L61.099 54.8974" /><ns0:path style="fill:none;" d="M38.0322 73.689 L38.502 73.86 L38.885 73.5386" /><ns0:path style="fill:none;" d="M-43.049 2.62 L-43.299 2.187 L-43.049 1.754" /><ns0:path style="fill:none;" d="M-28.549 27.734 L-28.299 28.167 L-28.549 28.6" /><ns0:path style="fill:none;" d="M-72.799 2.187 L-73.299 2.187 L-73.549 2.62" /><ns0:path style="fill:none;" d="M-43.049 53.714 L-43.299 54.147 L-43.799 54.147" /><ns0:path style="fill:none;" d="M-88.049 27.734 L-88.299 28.167 L-88.049 28.6" /><ns0:path style="fill:none;" d="M-72.799 54.147 L-73.299 54.147 L-73.549 53.714" /><ns0:path style="fill:none;" d="M-56.873 -33.7346 L-56.49 -34.056 L-56.0202 -33.885" /><ns0:path style="fill:none;" d="M-79.09 -15.0934 L-79.473 -14.772 L-79.9428 -14.943" /><ns0:path style="fill:none;" d="M-61.6142 -63.1076 L-61.701 -63.6 L-62.1708 -63.771" /><ns0:path style="fill:none;" d="M-107.1942 -24.861 L-107.664 -25.032 L-107.7508 -25.5244" /><ns0:path style="fill:none;" d="M-89.4222 -73.689 L-89.892 -73.86 L-90.275 -73.5386" /><ns0:path style="fill:none;" d="M-112.7852 -54.0836 L-112.872 -54.576 L-112.489 -54.8974" /></ns0:g></ns0:g></ns0:svg></ns0:svg></ns0:svg></ns0:svg></g></svg>