<svg width="202" viewBox="0 0 202 150" style="fill-opacity:1; color-rendering:auto; color-interpolation:auto; text-rendering:auto; stroke:black; stroke-linecap:square; stroke-miterlimit:10; shape-rendering:auto; stroke-opacity:1; fill:black; stroke-dasharray:none; font-weight:normal; stroke-width:1; font-family:'Open Sans'; font-style:normal; stroke-linejoin:miter; font-size:12; stroke-dashoffset:0; image-rendering:auto;" height="150" class="cas-substance-image" xmlns:xlink="http://www.w3.org/1999/xlink" xmlns="http://www.w3.org/2000/svg"><svg class="cas-substance-single-component"><rect y="0" x="0" width="202" stroke="none" ry="7" rx="7" height="150" fill="white" class="cas-substance-group"/><svg y="0" x="0" width="202" viewBox="0 0 202 150" style="fill:black;" height="150" class="cas-substance-single-component-image"><svg><g><g transform="translate(96,75)" style="text-rendering:geometricPrecision; color-rendering:optimizeQuality; color-interpolation:linearRGB; stroke-linecap:butt; image-rendering:optimizeQuality;"><line y2="-22.5" y1="-7.5" x2="38.97" x1="12.99" style="fill:none;"/><line y2="22.5" y1="-7.5" x2="12.99" x1="12.99" style="fill:none;"/><line y2="-22.5" y1="-7.5" x2="-12.99" x1="12.99" style="fill:none;"/><line y2="-7.5" y1="-22.5" x2="64.953" x1="38.97" style="fill:none;"/><line y2="37.5" y1="22.5" x2="-12.99" x1="12.99" style="fill:none;"/><line y2="-19.3112" y1="-7.5" x2="85.41" x1="64.953" style="fill:none;"/><line y2="16.0234" y1="-8.5103" x2="63.203" x1="63.203" style="fill:none;"/><line y2="16.0234" y1="-8.5104" x2="66.703" x1="66.703" style="fill:none;"/><line y2="25.6786" y1="37.5" x2="-33.4646" x1="-12.99" style="fill:none;"/><line y2="61.0234" y1="36.4896" x2="-14.74" x1="-14.74" style="fill:none;"/><line y2="61.0234" y1="36.4896" x2="-11.24" x1="-11.24" style="fill:none;"/><line y2="-52.5" y1="-65.5225" x2="-64.953" x1="-87.5079" style="fill:none;"/><line y2="-52.5" y1="-22.5" x2="-12.99" x1="-12.99" style="fill:none;"/><line y2="-50.4793" y1="-24.5207" x2="-16.49" x1="-16.49" style="fill:none;"/><line y2="-7.5" y1="-22.5" x2="-38.97" x1="-12.99" style="fill:none;"/><line y2="-67.5" y1="-52.5" x2="-38.97" x1="-12.99" style="fill:none;"/><line y2="-22.5" y1="-7.5" x2="-64.953" x1="-38.97" style="fill:none;"/><line y2="-24.5209" y1="-11.5415" x2="-61.4531" x1="-38.9702" style="fill:none;"/><line y2="-52.5" y1="-67.5" x2="-64.953" x1="-38.97" style="fill:none;"/><line y2="-50.4791" y1="-63.4585" x2="-61.4531" x1="-38.9702" style="fill:none;"/><line y2="-52.5" y1="-22.5" x2="-64.953" x1="-64.953" style="fill:none;"/><path style="fill:none; stroke-miterlimit:5;" d="M38.537 -22.25 L38.97 -22.5 L39.403 -22.25"/><path style="fill:none; stroke-miterlimit:5;" d="M12.99 22 L12.99 22.5 L12.557 22.75"/><path style="fill:none; stroke-miterlimit:5;" d="M64.52 -7.75 L64.953 -7.5 L65.386 -7.75"/><path style="fill:none; stroke-miterlimit:5;" d="M-12.557 37.25 L-12.99 37.5 L-13.423 37.25"/></g><g transform="translate(96,75)" style="stroke-linecap:butt; fill:rgb(230,0,0); text-rendering:geometricPrecision; color-rendering:optimizeQuality; image-rendering:optimizeQuality; font-family:'Open Sans'; stroke:rgb(230,0,0); color-interpolation:linearRGB; stroke-miterlimit:5;"><path style="stroke:none;" d="M94.8705 -22.5703 Q94.8705 -20.5078 93.8314 -19.3281 Q92.7924 -18.1484 90.9486 -18.1484 Q89.058 -18.1484 88.0267 -19.3125 Q86.9955 -20.4766 86.9955 -22.5859 Q86.9955 -24.6797 88.0267 -25.8281 Q89.058 -26.9766 90.9486 -26.9766 Q92.808 -26.9766 93.8392 -25.8047 Q94.8705 -24.6328 94.8705 -22.5703 ZM88.0424 -22.5703 Q88.0424 -20.8359 88.7846 -19.9297 Q89.5267 -19.0234 90.9486 -19.0234 Q92.3705 -19.0234 93.0971 -19.9219 Q93.8236 -20.8203 93.8236 -22.5703 Q93.8236 -24.3047 93.0971 -25.1953 Q92.3705 -26.0859 90.9486 -26.0859 Q89.5267 -26.0859 88.7846 -25.1875 Q88.0424 -24.2891 88.0424 -22.5703 Z"/><path style="stroke:none;" d="M102.3861 -18.2734 L101.3861 -18.2734 L101.3861 -22.3047 L96.8705 -22.3047 L96.8705 -18.2734 L95.8705 -18.2734 L95.8705 -26.8359 L96.8705 -26.8359 L96.8705 -23.1953 L101.3861 -23.1953 L101.3861 -26.8359 L102.3861 -26.8359 L102.3861 -18.2734 Z"/><path style="stroke:none;" d="M68.8905 22.4297 Q68.8905 24.4922 67.8514 25.6719 Q66.8124 26.8516 64.9686 26.8516 Q63.078 26.8516 62.0468 25.6875 Q61.0155 24.5234 61.0155 22.4141 Q61.0155 20.3203 62.0468 19.1719 Q63.078 18.0234 64.9686 18.0234 Q66.828 18.0234 67.8593 19.1953 Q68.8905 20.3672 68.8905 22.4297 ZM62.0624 22.4297 Q62.0624 24.1641 62.8046 25.0703 Q63.5468 25.9766 64.9686 25.9766 Q66.3905 25.9766 67.1171 25.0781 Q67.8436 24.1797 67.8436 22.4297 Q67.8436 20.6953 67.1171 19.8047 Q66.3905 18.9141 64.9686 18.9141 Q63.5468 18.9141 62.8046 19.8125 Q62.0624 20.7109 62.0624 22.4297 Z"/><path style="stroke:none;" d="M-35.0325 22.4297 Q-35.0325 24.4922 -36.0716 25.6719 Q-37.1106 26.8516 -38.9544 26.8516 Q-40.845 26.8516 -41.8763 25.6875 Q-42.9075 24.5234 -42.9075 22.4141 Q-42.9075 20.3203 -41.8763 19.1719 Q-40.845 18.0234 -38.9544 18.0234 Q-37.095 18.0234 -36.0638 19.1953 Q-35.0325 20.3672 -35.0325 22.4297 ZM-41.8606 22.4297 Q-41.8606 24.1641 -41.1184 25.0703 Q-40.3763 25.9766 -38.9544 25.9766 Q-37.5325 25.9766 -36.8059 25.0781 Q-36.0794 24.1797 -36.0794 22.4297 Q-36.0794 20.6953 -36.8059 19.8047 Q-37.5325 18.9141 -38.9544 18.9141 Q-40.3763 18.9141 -41.1184 19.8125 Q-41.8606 20.7109 -41.8606 22.4297 Z"/><path style="stroke:none;" d="M-43.9075 26.7266 L-44.9075 26.7266 L-44.9075 22.6953 L-49.4231 22.6953 L-49.4231 26.7266 L-50.4231 26.7266 L-50.4231 18.1641 L-49.4231 18.1641 L-49.4231 21.8047 L-44.9075 21.8047 L-44.9075 18.1641 L-43.9075 18.1641 L-43.9075 26.7266 Z"/><path style="stroke:none;" d="M-9.0525 67.4297 Q-9.0525 69.4922 -10.0916 70.6719 Q-11.1306 71.8516 -12.9744 71.8516 Q-14.865 71.8516 -15.8962 70.6875 Q-16.9275 69.5234 -16.9275 67.4141 Q-16.9275 65.3203 -15.8962 64.1719 Q-14.865 63.0234 -12.9744 63.0234 Q-11.115 63.0234 -10.0837 64.1953 Q-9.0525 65.3672 -9.0525 67.4297 ZM-15.8806 67.4297 Q-15.8806 69.1641 -15.1384 70.0703 Q-14.3962 70.9766 -12.9744 70.9766 Q-11.5525 70.9766 -10.8259 70.0781 Q-10.0994 69.1797 -10.0994 67.4297 Q-10.0994 65.6953 -10.8259 64.8047 Q-11.5525 63.9141 -12.9744 63.9141 Q-14.3962 63.9141 -15.1384 64.8125 Q-15.8806 65.7109 -15.8806 67.4297 Z"/><path style="fill:rgb(0,138,0); stroke:none;" d="M-92.3236 -63.3438 L-93.3236 -63.3438 L-93.3236 -71.9062 L-88.5424 -71.9062 L-88.5424 -71.0312 L-92.3236 -71.0312 L-92.3236 -67.8906 L-88.7767 -67.8906 L-88.7767 -67 L-92.3236 -67 L-92.3236 -63.3438 Z"/><path style="fill:none; stroke:black;" d="M-12.99 -23 L-12.99 -22.5 L-12.557 -22.25"/><path style="fill:none; stroke:black;" d="M-12.99 -52 L-12.99 -52.5 L-13.423 -52.75"/><path style="fill:none; stroke:black;" d="M-38.537 -7.75 L-38.97 -7.5 L-39.403 -7.75"/><path style="fill:none; stroke:black;" d="M-38.537 -67.25 L-38.97 -67.5 L-39.403 -67.25"/><path style="fill:none; stroke:black;" d="M-64.52 -22.25 L-64.953 -22.5 L-64.953 -23"/><path style="fill:none; stroke:black;" d="M-64.52 -52.75 L-64.953 -52.5 L-64.953 -52"/></g></g></svg></svg></svg></svg>