<svg width="126" viewBox="0 0 126 70" style="fill-opacity:1; color-rendering:auto; color-interpolation:auto; text-rendering:auto; stroke:black; stroke-linecap:square; stroke-miterlimit:10; shape-rendering:auto; stroke-opacity:1; fill:black; stroke-dasharray:none; font-weight:normal; stroke-width:1; font-family:'Open Sans'; font-style:normal; stroke-linejoin:miter; font-size:12; stroke-dashoffset:0; image-rendering:auto;" height="70" class="cas-substance-image" xmlns:xlink="http://www.w3.org/1999/xlink" xmlns="http://www.w3.org/2000/svg"><svg class="cas-substance-single-component"><rect y="0" x="0" width="126" stroke="none" ry="7" rx="7" height="70" fill="white" class="cas-substance-group"/><svg y="0" x="0" width="126" viewBox="0 0 126 70" style="fill:black;" height="70" class="cas-substance-single-component-image"><svg><g><g transform="translate(63,37)" style="text-rendering:geometricPrecision; color-rendering:optimizeQuality; color-interpolation:linearRGB; stroke-linecap:butt; image-rendering:optimizeQuality;"><line y2="0" y1="29.544" x2="30.906" x1="36.114" style="fill:none;"/><line y2="-10.26" y1="0" x2="59.094" x1="30.906" style="fill:none;"/><line y2="-23.2228" y1="0" x2="34.9997" x1="30.906" style="fill:none;"/><line y2="0" y1="0" x2="0.906" x1="30.906" style="fill:none;"/><line y2="-25.5118" y1="-10.26" x2="40.9191" x1="59.094" style="fill:none;"/><line y2="-25.98" y1="0" x2="-14.094" x1="0.906" style="fill:none;"/><line y2="-22.48" y1="0.0001" x2="-16.1147" x1="-3.1355" style="fill:none;"/><line y2="25.98" y1="0" x2="-14.094" x1="0.906" style="fill:none;"/><line y2="-25.98" y1="-25.98" x2="-44.094" x1="-14.094" style="fill:none;"/><line y2="25.98" y1="25.98" x2="-44.094" x1="-14.094" style="fill:none;"/><line y2="22.48" y1="22.48" x2="-42.0733" x1="-16.1147" style="fill:none;"/><line y2="0" y1="-25.98" x2="-59.094" x1="-44.094" style="fill:none;"/><line y2="0.0001" y1="-22.48" x2="-55.0526" x1="-42.0733" style="fill:none;"/><line y2="0" y1="25.98" x2="-59.094" x1="-44.094" style="fill:none;"/><path style="fill:none; stroke-miterlimit:5;" d="M58.6242 -10.089 L59.094 -10.26 L58.711 -10.5814"/></g><g transform="translate(63,37)" style="stroke-linecap:butt; fill:rgb(230,0,0); text-rendering:geometricPrecision; color-rendering:optimizeQuality; image-rendering:optimizeQuality; font-family:'Open Sans'; stroke:rgb(230,0,0); color-interpolation:linearRGB; stroke-miterlimit:5;"><path style="stroke:none;" d="M40.0515 -29.6143 Q40.0515 -27.5518 39.0124 -26.3721 Q37.9734 -25.1924 36.1296 -25.1924 Q34.239 -25.1924 33.2077 -26.3565 Q32.1765 -27.5206 32.1765 -29.6299 Q32.1765 -31.7237 33.2077 -32.8721 Q34.239 -34.0206 36.1296 -34.0206 Q37.989 -34.0206 39.0202 -32.8487 Q40.0515 -31.6768 40.0515 -29.6143 ZM33.2234 -29.6143 Q33.2234 -27.8799 33.9656 -26.9737 Q34.7077 -26.0674 36.1296 -26.0674 Q37.5515 -26.0674 38.2781 -26.9659 Q39.0046 -27.8643 39.0046 -29.6143 Q39.0046 -31.3487 38.2781 -32.2393 Q37.5515 -33.1299 36.1296 -33.1299 Q34.7077 -33.1299 33.9656 -32.2315 Q33.2234 -31.3331 33.2234 -29.6143 Z"/><path style="fill:none; stroke:black;" d="M0.656 -0.433 L0.906 0 L1.406 0"/><path style="fill:none; stroke:black;" d="M-13.844 -25.547 L-14.094 -25.98 L-14.594 -25.98"/><path style="fill:none; stroke:black;" d="M-13.844 25.547 L-14.094 25.98 L-14.594 25.98"/><path style="fill:none; stroke:black;" d="M-43.594 -25.98 L-44.094 -25.98 L-44.344 -25.547"/><path style="fill:none; stroke:black;" d="M-43.594 25.98 L-44.094 25.98 L-44.344 25.547"/><path style="fill:none; stroke:black;" d="M-58.844 -0.433 L-59.094 0 L-58.844 0.433"/></g></g></svg></svg></svg></svg>