<svg width="235" viewBox="0 0 235 85" style="fill-opacity:1; color-rendering:auto; color-interpolation:auto; text-rendering:auto; stroke:black; stroke-linecap:square; stroke-miterlimit:10; shape-rendering:auto; stroke-opacity:1; fill:black; stroke-dasharray:none; font-weight:normal; stroke-width:1; font-family:'Open Sans'; font-style:normal; stroke-linejoin:miter; font-size:12; stroke-dashoffset:0; image-rendering:auto;" height="85" class="cas-substance-image" xmlns:xlink="http://www.w3.org/1999/xlink" xmlns="http://www.w3.org/2000/svg"><svg class="cas-substance-single-component"><rect y="0" x="0" width="235" stroke="none" ry="7" rx="7" height="85" fill="white" class="cas-substance-group"/><svg y="0" x="0" width="235" viewBox="0 0 235 85" style="fill:black;" height="85" class="cas-substance-single-component-image"><svg><g><g transform="translate(116,42)" style="text-rendering:geometricPrecision; color-rendering:optimizeQuality; color-interpolation:linearRGB; stroke-linecap:butt; image-rendering:optimizeQuality;"><line y2="-12.99" y1="-38.97" x2="-22.5" x1="-7.5" style="fill:none;"/><line y2="-38.97" y1="-38.97" x2="22.5" x1="-7.5" style="fill:none;"/><line y2="-35.47" y1="-35.47" x2="20.4793" x1="-5.4793" style="fill:none;"/></g><g transform="translate(116,42)" style="stroke-linecap:butt; font-size:8.4px; fill:gray; text-rendering:geometricPrecision; image-rendering:optimizeQuality; color-rendering:optimizeQuality; font-family:'Open Sans'; font-style:italic; stroke:gray; color-interpolation:linearRGB;"><path style="stroke:none;" d="M3.2708 -27.8059 Q3.2708 -29.1341 3.7396 -30.2591 Q4.2083 -31.3841 5.2396 -32.4622 L5.849 -32.4622 Q4.8802 -31.3997 4.3958 -30.2278 Q3.9115 -29.0559 3.9115 -27.8216 Q3.9115 -26.4934 4.349 -25.4778 L3.8333 -25.4778 Q3.2708 -26.5091 3.2708 -27.8059 ZM8.784 -26.7434 L5.2684 -26.7434 L5.3778 -27.2747 L8.9872 -31.8528 L6.4247 -31.8528 L6.5497 -32.4622 L9.909 -32.4622 L9.7997 -31.9153 L6.1903 -27.3528 L8.9247 -27.3528 L8.784 -26.7434 ZM11.7292 -30.1184 Q11.7292 -28.7903 11.2526 -27.6575 Q10.776 -26.5247 9.7604 -25.4778 L9.151 -25.4778 Q11.0885 -27.6341 11.0885 -30.1184 Q11.0885 -31.4466 10.651 -32.4622 L11.1667 -32.4622 Q11.7292 -31.3997 11.7292 -30.1184 Z"/><line y2="-12.99" y1="-12.99" x2="-52.5" x1="-22.5" style="fill:none; stroke:black;"/><line y2="-12.99" y1="-38.97" x2="37.5" x1="22.5" style="fill:none; stroke:black;"/><line y2="12.99" y1="-12.99" x2="-67.5" x1="-52.5" style="fill:none; stroke:black;"/><line y2="-12.99" y1="-12.99" x2="67.5" x1="37.5" style="fill:none; stroke:black;"/><line y2="12.99" y1="12.99" x2="-97.5" x1="-67.5" style="fill:none; stroke:black;"/><line y2="12.99" y1="-12.99" x2="82.5" x1="67.5" style="fill:none; stroke:black;"/><line y2="38.97" y1="12.99" x2="-112.5" x1="-97.5" style="fill:none; stroke:black;"/><line y2="12.99" y1="12.99" x2="106.5625" x1="82.5" style="fill:none; stroke:black;"/><line y2="9.49" y1="9.49" x2="106.5625" x1="84.5207" style="fill:none; stroke:black;"/><path style="fill:none; stroke-miterlimit:5; stroke:black;" d="M-7.75 -38.537 L-7.5 -38.97 L-7 -38.97"/><path style="fill:none; stroke-miterlimit:5; stroke:black;" d="M-22.25 -13.423 L-22.5 -12.99 L-23 -12.99"/><path style="fill:none; stroke-miterlimit:5; stroke:black;" d="M22 -38.97 L22.5 -38.97 L22.75 -38.537"/><path style="fill:none; stroke-miterlimit:5; stroke:black;" d="M-52 -12.99 L-52.5 -12.99 L-52.75 -12.557"/><path style="fill:none; stroke-miterlimit:5; stroke:black;" d="M37.25 -13.423 L37.5 -12.99 L38 -12.99"/><path style="fill:none; stroke-miterlimit:5; stroke:black;" d="M-67.25 12.557 L-67.5 12.99 L-68 12.99"/><path style="fill:none; stroke-miterlimit:5; stroke:black;" d="M67 -12.99 L67.5 -12.99 L67.75 -12.557"/><path style="fill:none; stroke-miterlimit:5; stroke:black;" d="M-97 12.99 L-97.5 12.99 L-97.75 13.423"/><path style="fill:none; stroke-miterlimit:5; stroke:black;" d="M82.25 12.557 L82.5 12.99 L83 12.99"/></g><g transform="translate(116,40.25)" style="stroke-linecap:butt; fill:rgb(230,0,0); text-rendering:geometricPrecision; color-rendering:optimizeQuality; image-rendering:optimizeQuality; font-family:'Open Sans'; stroke:rgb(230,0,0); color-interpolation:linearRGB; stroke-miterlimit:5;"><path style="stroke:none;" d="M116.4375 12.9197 Q116.4375 14.9822 115.3984 16.1619 Q114.3594 17.3416 112.5156 17.3416 Q110.625 17.3416 109.5938 16.1775 Q108.5625 15.0134 108.5625 12.9041 Q108.5625 10.8103 109.5938 9.6619 Q110.625 8.5134 112.5156 8.5134 Q114.375 8.5134 115.4062 9.6853 Q116.4375 10.8572 116.4375 12.9197 ZM109.6094 12.9197 Q109.6094 14.6541 110.3516 15.5603 Q111.0938 16.4666 112.5156 16.4666 Q113.9375 16.4666 114.6641 15.5681 Q115.3906 14.6697 115.3906 12.9197 Q115.3906 11.1853 114.6641 10.2947 Q113.9375 9.4041 112.5156 9.4041 Q111.0938 9.4041 110.3516 10.3025 Q109.6094 11.2009 109.6094 12.9197 Z"/></g></g></svg></svg></svg></svg>