<svg xmlns:ns0="http://www.w3.org/2000/svg" xmlns="http://www.w3.org/2000/svg"><g transform="translate(0, 0)"><ns0:svg width="277" viewBox="0 0 277 188" style="fill-opacity:1; color-rendering:auto; color-interpolation:auto; text-rendering:auto; stroke:black; stroke-linecap:square; stroke-miterlimit:10; shape-rendering:auto; stroke-opacity:1; fill:black; stroke-dasharray:none; font-weight:normal; stroke-width:1; font-family:'Open Sans'; font-style:normal; stroke-linejoin:miter; font-size:12; stroke-dashoffset:0; image-rendering:auto;" height="188" class="cas-substance-image"><ns0:svg class="cas-substance-single-component"><ns0:rect y="0" x="0" width="277" stroke="none" ry="7" rx="7" height="188" fill="white" class="cas-substance-group" /><ns0:svg y="0" x="0" width="277" viewBox="0 0 277 188" style="fill:black;" height="188" class="cas-substance-single-component-image"><ns0:svg><ns0:g><ns0:g transform="translate(144,92)" style="text-rendering:geometricPrecision; color-rendering:optimizeQuality; color-interpolation:linearRGB; stroke-linecap:butt; image-rendering:optimizeQuality;"><ns0:line y2="-41.8543" y1="-54.1809" x2="-26.295" x1="-47.6447" style="fill:none;" /><ns0:line y2="-44.8853" y1="-57.2119" x2="-24.5449" x1="-45.8946" style="fill:none;" /><ns0:line y2="83.6284" y1="64.605" x2="-83.135" x1="-96.957" style="fill:none;" /><ns0:path style="stroke:none;" d="M-85.7005 37.8718 L-86.188 38.7494 L-84.9688 39.2921 L-84.9688 39.2921 L-84.6341 38.3464 L-85.7005 37.8718 ZM-87.163 40.5046 L-87.6505 41.3823 L-85.973 42.1289 L-85.973 42.1289 L-85.6383 41.1833 L-85.6383 41.1833 L-87.163 40.5046 ZM-88.6255 43.1375 L-89.113 44.0151 L-89.113 44.0151 L-86.9771 44.9658 L-86.6424 44.0202 L-88.6255 43.1375 ZM-90.088 45.7704 L-90.5755 46.648 L-90.5755 46.648 L-87.9813 47.8027 L-87.9813 47.8027 L-87.6466 46.8571 L-90.088 45.7704 ZM-91.5504 48.4033 L-92.0379 49.2809 L-88.9855 50.6395 L-88.9855 50.6395 L-88.6507 49.6939 L-91.5504 48.4033 ZM-93.0129 51.0361 L-93.5004 51.9137 L-93.5004 51.9137 L-89.9896 53.4764 L-89.9896 53.4764 L-89.6549 52.5308 L-89.6549 52.5308 L-93.0129 51.0361 ZM-94.4754 53.669 L-94.9629 54.5466 L-90.9938 56.3133 L-90.9938 56.3133 L-90.659 55.3677 L-90.659 55.3677 L-94.4754 53.669 ZM-95.9379 56.3019 L-96.4253 57.1795 L-91.9979 59.1502 L-91.6632 58.2045 L-95.9379 56.3019 ZM-97.4003 58.9347 L-97.8878 59.8124 L-97.8878 59.8124 L-93.0021 61.987 L-93.0021 61.987 L-92.6674 61.0414 L-92.6674 61.0414 L-97.4003 58.9347 ZM-98.8628 61.5676 L-98.9932 61.8024 L-98.9933 61.8025 L-98.1324 62.9873 L-94.0062 64.8239 L-93.6715 63.8783 L-98.8628 61.5676 Z" /><ns0:path style="stroke:none;" d="M-99.7038 10.7197 L-99.8083 11.7143 L-123.9779 11.6883 L-123.3509 5.7212 Z" /><ns0:line y2="-43.875" y1="-55.9399" x2="77.628" x1="56.7316" style="fill:none;" /><ns0:line y2="-43.875" y1="-55.9399" x2="25.668" x1="46.5644" style="fill:none;" /><ns0:line y2="-58.875" y1="-43.875" x2="103.611" x1="77.628" style="fill:none;" /><ns0:line y2="-20.3516" y1="-44.8854" x2="75.878" x1="75.878" style="fill:none;" /><ns0:line y2="-20.3516" y1="-44.8853" x2="79.378" x1="79.378" style="fill:none;" /><ns0:line y2="-43.875" y1="-58.875" x2="129.591" x1="103.611" style="fill:none;" /><ns0:line y2="-88.875" y1="-58.875" x2="103.611" x1="103.611" style="fill:none;" /><ns0:line y2="24.4944" y1="1.125" x2="-54.7306" x1="-52.275" style="fill:none;" /><ns0:line y2="-11.076" y1="1.125" x2="-79.68" x1="-52.275" style="fill:none;" /><ns0:path style="stroke:none;" d="M-33.7386 -12.9151 L-34.5531 -12.3252 L-31.7688 -7.4969 L-31.7688 -7.4969 L-30.8507 -7.9073 L-33.7386 -12.9151 ZM-36.1821 -11.1453 L-36.9966 -10.5553 L-34.5229 -6.2657 L-33.6049 -6.6761 L-36.1821 -11.1453 ZM-38.6256 -9.3754 L-39.4401 -8.7855 L-37.2771 -5.0346 L-36.359 -5.445 L-38.6256 -9.3754 ZM-41.0691 -7.6056 L-41.8836 -7.0156 L-41.8836 -7.0156 L-40.0312 -3.8034 L-39.1132 -4.2138 L-41.0691 -7.6056 ZM-43.5126 -5.8357 L-44.3271 -5.2458 L-44.3271 -5.2458 L-42.7854 -2.5723 L-41.8673 -2.9827 L-41.8673 -2.9827 L-43.5126 -5.8357 ZM-45.9561 -4.0659 L-46.7706 -3.4759 L-45.5395 -1.3411 L-44.6215 -1.7515 L-45.9561 -4.0659 ZM-48.3996 -2.296 L-49.2141 -1.7061 L-48.2937 -0.1099 L-47.3756 -0.5203 L-47.3756 -0.5203 L-48.3996 -2.296 ZM-50.8431 -0.5262 L-51.6576 0.0638 L-51.0478 1.1212 L-50.1298 0.7108 L-50.8431 -0.5262 Z" /><ns0:line y2="37.197" y1="32.2126" x2="-84.756" x1="-61.3038" style="fill:none;" /><ns0:line y2="11.217" y1="-11.076" x2="-99.756" x1="-79.68" style="fill:none;" /><ns0:line y2="11.217" y1="37.197" x2="-99.756" x1="-84.756" style="fill:none;" /><ns0:line y2="-43.875" y1="-20.2812" x2="-26.295" x1="-26.295" style="fill:none;" /><ns0:line y2="1.125" y1="-10.9402" x2="-0.312" x1="-21.2113" style="fill:none;" /><ns0:line y2="-55.9402" y1="-43.875" x2="-5.3957" x1="-26.295" style="fill:none;" /><ns0:line y2="-13.875" y1="1.125" x2="25.668" x1="-0.312" style="fill:none;" /><ns0:line y2="-15.8957" y1="-2.9165" x2="22.168" x1="-0.3121" style="fill:none;" /><ns0:line y2="-43.875" y1="-55.9399" x2="25.668" x1="4.7716" style="fill:none;" /><ns0:line y2="-41.8543" y1="-52.9088" x2="22.168" x1="3.0216" style="fill:none;" /><ns0:line y2="-43.875" y1="-13.875" x2="25.668" x1="25.668" style="fill:none;" /></ns0:g><ns0:g transform="translate(144,92)" style="fill:rgb(230,0,0); text-rendering:geometricPrecision; color-rendering:optimizeQuality; image-rendering:optimizeQuality; font-family:'Open Sans'; stroke:rgb(230,0,0); color-interpolation:linearRGB;"><ns0:path style="stroke:none;" d="M-48.3375 -58.9453 Q-48.3375 -56.8828 -49.3766 -55.7031 Q-50.4156 -54.5234 -52.2594 -54.5234 Q-54.15 -54.5234 -55.1812 -55.6875 Q-56.2125 -56.8516 -56.2125 -58.9609 Q-56.2125 -61.0547 -55.1812 -62.2031 Q-54.15 -63.3516 -52.2594 -63.3516 Q-50.4 -63.3516 -49.3687 -62.1797 Q-48.3375 -61.0078 -48.3375 -58.9453 ZM-55.1656 -58.9453 Q-55.1656 -57.2109 -54.4234 -56.3047 Q-53.6812 -55.3984 -52.2594 -55.3984 Q-50.8375 -55.3984 -50.1109 -56.2969 Q-49.3844 -57.1953 -49.3844 -58.9453 Q-49.3844 -60.6797 -50.1109 -61.5703 Q-50.8375 -62.4609 -52.2594 -62.4609 Q-53.6812 -62.4609 -54.4234 -61.5625 Q-55.1656 -60.6641 -55.1656 -58.9453 Z" /><ns0:path style="stroke:none;" d="M-75.3855 88.8047 Q-75.3855 90.8672 -76.4246 92.0469 Q-77.4636 93.2266 -79.3074 93.2266 Q-81.198 93.2266 -82.2292 92.0625 Q-83.2605 90.8984 -83.2605 88.7891 Q-83.2605 86.6953 -82.2292 85.5469 Q-81.198 84.3984 -79.3074 84.3984 Q-77.448 84.3984 -76.4167 85.5703 Q-75.3855 86.7422 -75.3855 88.8047 ZM-82.2136 88.8047 Q-82.2136 90.5391 -81.4714 91.4453 Q-80.7292 92.3516 -79.3074 92.3516 Q-77.8855 92.3516 -77.1589 91.4531 Q-76.4324 90.5547 -76.4324 88.8047 Q-76.4324 87.0703 -77.1589 86.1797 Q-77.8855 85.2891 -79.3074 85.2891 Q-80.7292 85.2891 -81.4714 86.1875 Q-82.2136 87.0859 -82.2136 88.8047 Z" /><ns0:path style="stroke:none;" d="M-67.8699 93.1016 L-68.8699 93.1016 L-68.8699 89.0703 L-73.3855 89.0703 L-73.3855 93.1016 L-74.3855 93.1016 L-74.3855 84.5391 L-73.3855 84.5391 L-73.3855 88.1797 L-68.8699 88.1797 L-68.8699 84.5391 L-67.8699 84.5391 L-67.8699 93.1016 Z" /><ns0:path style="stroke:none;" d="M-125.6535 8.0117 Q-125.6535 10.0742 -126.6926 11.2539 Q-127.7316 12.4336 -129.5754 12.4336 Q-131.466 12.4336 -132.4972 11.2695 Q-133.5285 10.1054 -133.5285 7.9961 Q-133.5285 5.9023 -132.4972 4.7539 Q-131.466 3.6054 -129.5754 3.6054 Q-127.716 3.6054 -126.6847 4.7773 Q-125.6535 5.9492 -125.6535 8.0117 ZM-132.4816 8.0117 Q-132.4816 9.7461 -131.7394 10.6523 Q-130.9972 11.5586 -129.5754 11.5586 Q-128.1535 11.5586 -127.4269 10.6601 Q-126.7004 9.7617 -126.7004 8.0117 Q-126.7004 6.2773 -127.4269 5.3867 Q-128.1535 4.4961 -129.5754 4.4961 Q-130.9972 4.4961 -131.7394 5.3945 Q-132.4816 6.2929 -132.4816 8.0117 Z" /><ns0:path style="stroke:none;" d="M-134.5285 12.3086 L-135.5285 12.3086 L-135.5285 8.2773 L-140.0441 8.2773 L-140.0441 12.3086 L-141.0441 12.3086 L-141.0441 3.7461 L-140.0441 3.7461 L-140.0441 7.3867 L-135.5285 7.3867 L-135.5285 3.7461 L-134.5285 3.7461 L-134.5285 12.3086 Z" /><ns0:path style="fill:rgb(0,5,255); stroke:none;" d="M54.9996 -54.7188 L53.8589 -54.7188 L49.1714 -61.9062 L49.1246 -61.9062 Q49.2183 -60.6406 49.2183 -59.5938 L49.2183 -54.7188 L48.2964 -54.7188 L48.2964 -63.2812 L49.4214 -63.2812 L54.0933 -56.125 L54.1402 -56.125 Q54.1402 -56.2812 54.0933 -57.1406 Q54.0464 -58 54.0621 -58.375 L54.0621 -63.2812 L54.9996 -63.2812 L54.9996 -54.7188 Z" /><ns0:path style="fill:rgb(0,5,255); stroke:none;" d="M54.9058 -64.2812 L53.9058 -64.2812 L53.9058 -68.3125 L49.3902 -68.3125 L49.3902 -64.2812 L48.3902 -64.2812 L48.3902 -72.8438 L49.3902 -72.8438 L49.3902 -69.2031 L53.9058 -69.2031 L53.9058 -72.8438 L54.9058 -72.8438 L54.9058 -64.2812 Z" /></ns0:g><ns0:g transform="translate(144,92)" style="stroke-linecap:butt; text-rendering:geometricPrecision; color-rendering:optimizeQuality; image-rendering:optimizeQuality; font-family:'Open Sans'; color-interpolation:linearRGB; stroke-miterlimit:5;"><ns0:path style="fill:none;" d="M77.195 -44.125 L77.628 -43.875 L78.061 -44.125" /><ns0:path style="fill:rgb(230,0,0); stroke:none;" d="M81.5655 -13.9453 Q81.5655 -11.8828 80.5264 -10.7031 Q79.4874 -9.5234 77.6436 -9.5234 Q75.753 -9.5234 74.7217 -10.6875 Q73.6905 -11.8516 73.6905 -13.9609 Q73.6905 -16.0547 74.7217 -17.2031 Q75.753 -18.3516 77.6436 -18.3516 Q79.503 -18.3516 80.5342 -17.1797 Q81.5655 -16.0078 81.5655 -13.9453 ZM74.7374 -13.9453 Q74.7374 -12.2109 75.4796 -11.3047 Q76.2217 -10.3984 77.6436 -10.3984 Q79.0655 -10.3984 79.7921 -11.2969 Q80.5186 -12.1953 80.5186 -13.9453 Q80.5186 -15.6797 79.7921 -16.5703 Q79.0655 -17.4609 77.6436 -17.4609 Q76.2217 -17.4609 75.4796 -16.5625 Q74.7374 -15.6641 74.7374 -13.9453 Z" /><ns0:path style="fill:none;" d="M-52.3272 1.6223 L-52.275 1.125 L-52.7318 0.9216" /></ns0:g><ns0:g transform="translate(144,92)" style="stroke-linecap:butt; font-size:8.4px; fill:gray; text-rendering:geometricPrecision; image-rendering:optimizeQuality; color-rendering:optimizeQuality; font-family:'Open Sans'; font-style:italic; stroke:gray; color-interpolation:linearRGB; stroke-miterlimit:5;"><ns0:path style="stroke:none;" d="M-57.1871 -7.6972 Q-57.1871 -9.0254 -56.7184 -10.1504 Q-56.2496 -11.2754 -55.2184 -12.3535 L-54.609 -12.3535 Q-55.5778 -11.291 -56.0621 -10.1191 Q-56.5465 -8.9472 -56.5465 -7.7129 Q-56.5465 -6.3847 -56.109 -5.3691 L-56.6246 -5.3691 Q-57.1871 -6.4004 -57.1871 -7.6972 ZM-53.6271 -9.0097 L-54.1271 -6.6347 L-54.7833 -6.6347 L-53.5802 -12.3535 L-52.3302 -12.3535 Q-50.5958 -12.3535 -50.5958 -10.916 Q-50.5958 -9.5566 -52.0333 -9.166 L-51.0958 -6.6347 L-51.8146 -6.6347 L-52.6427 -9.0097 L-53.6271 -9.0097 ZM-53.049 -11.7597 Q-53.4396 -9.8379 -53.5021 -9.5879 L-52.8458 -9.5879 Q-52.0958 -9.5879 -51.6896 -9.916 Q-51.2833 -10.2441 -51.2833 -10.8691 Q-51.2833 -11.3379 -51.5411 -11.5488 Q-51.799 -11.7597 -52.3927 -11.7597 L-53.049 -11.7597 ZM-48.4099 -10.0097 Q-48.4099 -8.6816 -48.8864 -7.5488 Q-49.363 -6.416 -50.3786 -5.3691 L-50.988 -5.3691 Q-49.0505 -7.5254 -49.0505 -10.0097 Q-49.0505 -11.3379 -49.488 -12.3535 L-48.9724 -12.3535 Q-48.4099 -11.291 -48.4099 -10.0097 Z" /></ns0:g><ns0:g transform="translate(144,92)" style="stroke-linecap:butt; fill:rgb(230,0,0); text-rendering:geometricPrecision; color-rendering:optimizeQuality; image-rendering:optimizeQuality; font-family:'Open Sans'; stroke:rgb(230,0,0); color-interpolation:linearRGB; stroke-miterlimit:5;"><ns0:path style="stroke:none;" d="M-51.4725 30.8897 Q-51.4725 32.9522 -52.5116 34.1319 Q-53.5506 35.3116 -55.3944 35.3116 Q-57.285 35.3116 -58.3162 34.1475 Q-59.3475 32.9834 -59.3475 30.8741 Q-59.3475 28.7803 -58.3162 27.6319 Q-57.285 26.4834 -55.3944 26.4834 Q-53.535 26.4834 -52.5037 27.6553 Q-51.4725 28.8272 -51.4725 30.8897 ZM-58.3006 30.8897 Q-58.3006 32.6241 -57.5584 33.5303 Q-56.8162 34.4366 -55.3944 34.4366 Q-53.9725 34.4366 -53.2459 33.5381 Q-52.5194 32.6397 -52.5194 30.8897 Q-52.5194 29.1553 -53.2459 28.2647 Q-53.9725 27.3741 -55.3944 27.3741 Q-56.8162 27.3741 -57.5584 28.2725 Q-58.3006 29.1709 -58.3006 30.8897 Z" /><ns0:path style="fill:none; stroke:black;" d="M-79.2232 -10.8726 L-79.68 -11.076 L-80.0146 -10.7045" /><ns0:path style="fill:none; stroke:black;" d="M-84.2669 37.0931 L-84.756 37.197 L-85.006 36.764" /></ns0:g><ns0:g transform="translate(144,92)" style="stroke-linecap:butt; font-size:8.4px; fill:gray; text-rendering:geometricPrecision; image-rendering:optimizeQuality; color-rendering:optimizeQuality; font-family:'Open Sans'; font-style:italic; stroke:gray; color-interpolation:linearRGB; stroke-miterlimit:5;"><ns0:path style="stroke:none;" d="M-99.1309 38.8848 Q-99.1309 37.5566 -98.6622 36.4316 Q-98.1934 35.3066 -97.1622 34.2285 L-96.5528 34.2285 Q-97.5215 35.291 -98.0059 36.4629 Q-98.4903 37.6348 -98.4903 38.8691 Q-98.4903 40.1973 -98.0528 41.2129 L-98.5684 41.2129 Q-99.1309 40.1816 -99.1309 38.8848 ZM-95.5709 37.5723 L-96.0709 39.9473 L-96.7271 39.9473 L-95.524 34.2285 L-94.274 34.2285 Q-92.5396 34.2285 -92.5396 35.666 Q-92.5396 37.0254 -93.9771 37.416 L-93.0396 39.9473 L-93.7584 39.9473 L-94.5865 37.5723 L-95.5709 37.5723 ZM-94.9927 34.8223 Q-95.3834 36.7441 -95.4459 36.9941 L-94.7896 36.9941 Q-94.0396 36.9941 -93.6334 36.666 Q-93.2271 36.3379 -93.2271 35.7129 Q-93.2271 35.2441 -93.4849 35.0332 Q-93.7427 34.8223 -94.3365 34.8223 L-94.9927 34.8223 ZM-90.3536 36.5723 Q-90.3536 37.9004 -90.8302 39.0332 Q-91.3068 40.166 -92.3224 41.2129 L-92.9318 41.2129 Q-90.9943 39.0566 -90.9943 36.5723 Q-90.9943 35.2441 -91.4318 34.2285 L-90.9161 34.2285 Q-90.3536 35.291 -90.3536 36.5723 Z" /><ns0:path style="stroke:none;" d="M-107.4479 3.0842 Q-107.4479 1.7561 -106.9792 0.6311 Q-106.5104 -0.4939 -105.4792 -1.572 L-104.8698 -1.572 Q-105.8386 -0.5095 -106.3229 0.6623 Q-106.8073 1.8342 -106.8073 3.0686 Q-106.8073 4.3967 -106.3698 5.4123 L-106.8854 5.4123 Q-107.4479 4.3811 -107.4479 3.0842 ZM-101.8254 2.4905 Q-101.8254 3.3186 -102.3723 3.7717 Q-102.9191 4.2248 -103.9191 4.2248 Q-104.3254 4.2248 -104.6379 4.1702 Q-104.9504 4.1155 -105.2316 3.9748 L-105.2316 3.3186 Q-104.6066 3.6467 -103.9035 3.6467 Q-103.2785 3.6467 -102.9035 3.3498 Q-102.5285 3.053 -102.5285 2.5373 Q-102.5285 2.2248 -102.7316 1.9983 Q-102.9348 1.7717 -103.4973 1.4436 Q-104.091 1.1155 -104.3176 0.7873 Q-104.5441 0.4592 -104.5441 0.0061 Q-104.5441 -0.7283 -104.0285 -1.1892 Q-103.5129 -1.6502 -102.6691 -1.6502 Q-102.2941 -1.6502 -101.9582 -1.572 Q-101.6223 -1.4939 -101.2473 -1.322 L-101.5129 -0.7283 Q-101.7629 -0.8845 -102.0832 -0.9705 Q-102.4035 -1.0564 -102.6691 -1.0564 Q-103.2004 -1.0564 -103.5207 -0.783 Q-103.841 -0.5095 -103.841 -0.0408 Q-103.841 0.1623 -103.7707 0.3108 Q-103.7004 0.4592 -103.5598 0.592 Q-103.4191 0.7248 -102.9973 0.9748 Q-102.4348 1.3186 -102.2316 1.5139 Q-102.0285 1.7092 -101.9269 1.9436 Q-101.8254 2.178 -101.8254 2.4905 ZM-99.2309 0.7717 Q-99.2309 2.0998 -99.7075 3.2327 Q-100.184 4.3655 -101.1997 5.4123 L-101.809 5.4123 Q-99.8715 3.2561 -99.8715 0.7717 Q-99.8715 -0.5564 -100.309 -1.572 L-99.7934 -1.572 Q-99.2309 -0.5095 -99.2309 0.7717 Z" /></ns0:g><ns0:g transform="translate(144,92)" style="stroke-linecap:butt; fill:rgb(0,5,255); text-rendering:geometricPrecision; color-rendering:optimizeQuality; image-rendering:optimizeQuality; font-family:'Open Sans'; stroke:rgb(0,5,255); color-interpolation:linearRGB; stroke-miterlimit:5;"><ns0:path style="stroke:none;" d="M-22.9434 -9.7188 L-24.0841 -9.7188 L-28.7716 -16.9062 L-28.8184 -16.9062 Q-28.7247 -15.6406 -28.7247 -14.5938 L-28.7247 -9.7188 L-29.6466 -9.7188 L-29.6466 -18.2812 L-28.5216 -18.2812 L-23.8497 -11.125 L-23.8028 -11.125 Q-23.8028 -11.2812 -23.8497 -12.1406 Q-23.8966 -13 -23.8809 -13.375 L-23.8809 -18.2812 L-22.9434 -18.2812 L-22.9434 -9.7188 Z" /><ns0:path style="fill:none; stroke:black;" d="M-26.295 -43.375 L-26.295 -43.875 L-25.862 -44.125" /><ns0:path style="fill:none; stroke:black;" d="M-0.745 0.875 L-0.312 1.125 L0.121 0.875" /><ns0:path style="stroke:none;" d="M3.0396 -54.7188 L1.8989 -54.7188 L-2.7886 -61.9062 L-2.8354 -61.9062 Q-2.7417 -60.6406 -2.7417 -59.5938 L-2.7417 -54.7188 L-3.6636 -54.7188 L-3.6636 -63.2812 L-2.5386 -63.2812 L2.1333 -56.125 L2.1802 -56.125 Q2.1802 -56.2812 2.1333 -57.1406 Q2.0864 -58 2.1021 -58.375 L2.1021 -63.2812 L3.0396 -63.2812 L3.0396 -54.7188 Z" /><ns0:path style="fill:none; stroke:black;" d="M25.235 -13.625 L25.668 -13.875 L25.668 -14.375" /><ns0:path style="fill:none; stroke:black;" d="M25.235 -44.125 L25.668 -43.875 L26.101 -44.125" /></ns0:g></ns0:g></ns0:svg></ns0:svg></ns0:svg></ns0:svg></g></svg>