<svg xmlns:ns0="http://www.w3.org/2000/svg" xmlns="http://www.w3.org/2000/svg"><g transform="translate(0, 0)"><ns0:svg width="127" viewBox="0 0 127 75" style="fill-opacity:1; color-rendering:auto; color-interpolation:auto; text-rendering:auto; stroke:black; stroke-linecap:square; stroke-miterlimit:10; shape-rendering:auto; stroke-opacity:1; fill:black; stroke-dasharray:none; font-weight:normal; stroke-width:1; font-family:'Open Sans'; font-style:normal; stroke-linejoin:miter; font-size:12; stroke-dashoffset:0; image-rendering:auto;" height="75" class="cas-substance-image"><ns0:svg class="cas-substance-single-component"><ns0:rect y="0" x="0" width="127" stroke="none" ry="7" rx="7" height="75" fill="white" class="cas-substance-group" /><ns0:svg y="0" x="0" width="127" viewBox="0 0 127 75" style="fill:black;" height="75" class="cas-substance-single-component-image"><ns0:svg><ns0:g><ns0:g transform="translate(55,37)" style="text-rendering:geometricPrecision; color-rendering:optimizeQuality; color-interpolation:linearRGB; stroke-linecap:butt; image-rendering:optimizeQuality;"><ns0:line y2="0" y1="0" x2="-17.939" x1="7.5" style="fill:none;" /><ns0:line y2="-25.98" y1="0" x2="22.5" x1="7.5" style="fill:none;" /><ns0:line y2="0" y1="0" x2="-52.5" x1="-27.1433" style="fill:none;" /><ns0:line y2="-23.6484" y1="-6.4688" x2="-20.75" x1="-20.75" style="fill:none;" /><ns0:line y2="-23.6484" y1="-6.4688" x2="-24.25" x1="-24.25" style="fill:none;" /><ns0:line y2="23.5234" y1="6.3438" x2="-24.25" x1="-24.25" style="fill:none;" /><ns0:line y2="23.5234" y1="6.3438" x2="-20.75" x1="-20.75" style="fill:none;" /><ns0:line y2="-25.98" y1="-25.98" x2="47.1484" x1="22.5" style="fill:none;" /><ns0:path style="fill:none; stroke-miterlimit:5;" d="M7 -0 L7.5 0 L7.75 -0.433" /></ns0:g><ns0:g transform="translate(55,37)" style="stroke-linecap:butt; fill:rgb(148,108,0); text-rendering:geometricPrecision; color-rendering:optimizeQuality; image-rendering:optimizeQuality; font-family:'Open Sans'; stroke:rgb(148,108,0); color-interpolation:linearRGB; stroke-miterlimit:5;"><ns0:path style="stroke:none;" d="M-19.8047 1.9375 Q-19.8047 3.0625 -20.625 3.7031 Q-21.4453 4.3438 -22.8516 4.3438 Q-24.3828 4.3438 -25.1953 3.9375 L-25.1953 2.9844 Q-24.6641 3.2031 -24.0469 3.3359 Q-23.4297 3.4688 -22.8203 3.4688 Q-21.8203 3.4688 -21.3203 3.0859 Q-20.8203 2.7031 -20.8203 2.0312 Q-20.8203 1.5938 -21 1.3047 Q-21.1797 1.0156 -21.5938 0.7734 Q-22.0078 0.5312 -22.8672 0.2344 Q-24.0547 -0.1875 -24.5703 -0.7734 Q-25.0859 -1.3594 -25.0859 -2.3125 Q-25.0859 -3.2969 -24.3438 -3.8828 Q-23.6016 -4.4688 -22.3672 -4.4688 Q-21.1016 -4.4688 -20.0234 -4 L-20.3359 -3.1406 Q-21.3984 -3.5781 -22.3984 -3.5781 Q-23.1953 -3.5781 -23.6406 -3.2422 Q-24.0859 -2.9062 -24.0859 -2.2969 Q-24.0859 -1.8594 -23.9219 -1.5703 Q-23.7578 -1.2812 -23.3672 -1.0469 Q-22.9766 -0.8125 -22.1641 -0.5156 Q-20.8203 -0.0469 -20.3125 0.5078 Q-19.8047 1.0625 -19.8047 1.9375 Z" /><ns0:path style="fill:none; stroke:black;" d="M22.25 -25.547 L22.5 -25.98 L23 -25.98" /><ns0:path style="fill:rgb(230,0,0); stroke:none;" d="M-18.5625 -30.0703 Q-18.5625 -28.0078 -19.6016 -26.8281 Q-20.6406 -25.6484 -22.4844 -25.6484 Q-24.375 -25.6484 -25.4062 -26.8125 Q-26.4375 -27.9766 -26.4375 -30.0859 Q-26.4375 -32.1797 -25.4062 -33.3281 Q-24.375 -34.4766 -22.4844 -34.4766 Q-20.625 -34.4766 -19.5938 -33.3047 Q-18.5625 -32.1328 -18.5625 -30.0703 ZM-25.3906 -30.0703 Q-25.3906 -28.3359 -24.6484 -27.4297 Q-23.9062 -26.5234 -22.4844 -26.5234 Q-21.0625 -26.5234 -20.3359 -27.4219 Q-19.6094 -28.3203 -19.6094 -30.0703 Q-19.6094 -31.8047 -20.3359 -32.6953 Q-21.0625 -33.5859 -22.4844 -33.5859 Q-23.9062 -33.5859 -24.6484 -32.6875 Q-25.3906 -31.7891 -25.3906 -30.0703 Z" /><ns0:path style="fill:rgb(230,0,0); stroke:none;" d="M-18.5625 29.9297 Q-18.5625 31.9922 -19.6016 33.1719 Q-20.6406 34.3516 -22.4844 34.3516 Q-24.375 34.3516 -25.4062 33.1875 Q-26.4375 32.0234 -26.4375 29.9141 Q-26.4375 27.8203 -25.4062 26.6719 Q-24.375 25.5234 -22.4844 25.5234 Q-20.625 25.5234 -19.5938 26.6953 Q-18.5625 27.8672 -18.5625 29.9297 ZM-25.3906 29.9297 Q-25.3906 31.6641 -24.6484 32.5703 Q-23.9062 33.4766 -22.4844 33.4766 Q-21.0625 33.4766 -20.3359 32.5781 Q-19.6094 31.6797 -19.6094 29.9297 Q-19.6094 28.1953 -20.3359 27.3047 Q-21.0625 26.4141 -22.4844 26.4141 Q-23.9062 26.4141 -24.6484 27.3125 Q-25.3906 28.2109 -25.3906 29.9297 Z" /><ns0:path style="fill:rgb(0,5,255); stroke:none;" d="M55.8516 -21.8237 L54.7109 -21.8237 L50.0234 -29.0112 L49.9766 -29.0112 Q50.0703 -27.7456 50.0703 -26.6987 L50.0703 -21.8237 L49.1484 -21.8237 L49.1484 -30.3862 L50.2734 -30.3862 L54.9453 -23.23 L54.9922 -23.23 Q54.9922 -23.3862 54.9453 -24.2456 Q54.8984 -25.105 54.9141 -25.48 L54.9141 -30.3862 L55.8516 -30.3862 L55.8516 -21.8237 Z" /><ns0:path style="fill:rgb(0,5,255); stroke:none;" d="M63.3672 -21.8237 L62.3672 -21.8237 L62.3672 -25.855 L57.8516 -25.855 L57.8516 -21.8237 L56.8516 -21.8237 L56.8516 -30.3862 L57.8516 -30.3862 L57.8516 -26.7456 L62.3672 -26.7456 L62.3672 -30.3862 L63.3672 -30.3862 L63.3672 -21.8237 Z" /><ns0:path style="fill:rgb(0,5,255); stroke:none;" d="M68.1172 -20.0144 L64.3672 -20.0144 L64.3672 -20.5769 L65.8672 -22.0925 Q66.5547 -22.78 66.7734 -23.0769 Q66.9922 -23.3737 67.1016 -23.655 Q67.2109 -23.9362 67.2109 -24.2644 Q67.2109 -24.7175 66.9375 -24.9831 Q66.6641 -25.2487 66.1641 -25.2487 Q65.8203 -25.2487 65.5 -25.1316 Q65.1797 -25.0144 64.7891 -24.7175 L64.4453 -25.155 Q65.2266 -25.8112 66.1641 -25.8112 Q66.9609 -25.8112 67.4219 -25.3972 Q67.8828 -24.9831 67.8828 -24.2956 Q67.8828 -23.7487 67.5781 -23.2175 Q67.2734 -22.6862 66.4297 -21.8737 L65.1797 -20.655 L65.1797 -20.6237 L68.1172 -20.6237 L68.1172 -20.0144 Z" /></ns0:g></ns0:g></ns0:svg></ns0:svg></ns0:svg></ns0:svg></g></svg>