<svg width="169" viewBox="0 0 169 105" style="fill-opacity:1; color-rendering:auto; color-interpolation:auto; text-rendering:auto; stroke:black; stroke-linecap:square; stroke-miterlimit:10; shape-rendering:auto; stroke-opacity:1; fill:black; stroke-dasharray:none; font-weight:normal; stroke-width:1; font-family:'Open Sans'; font-style:normal; stroke-linejoin:miter; font-size:12; stroke-dashoffset:0; image-rendering:auto;" height="105" class="cas-substance-image" xmlns:xlink="http://www.w3.org/1999/xlink" xmlns="http://www.w3.org/2000/svg"><svg class="cas-substance-single-component"><rect y="0" x="0" width="169" stroke="none" ry="7" rx="7" height="105" fill="white" class="cas-substance-group"/><svg y="0" x="0" width="169" viewBox="0 0 169 105" style="fill:black;" height="105" class="cas-substance-single-component-image"><svg><g><g transform="translate(85,53)" style="text-rendering:geometricPrecision; color-rendering:optimizeQuality; color-interpolation:linearRGB; stroke-linecap:butt; image-rendering:optimizeQuality;"><line y2="4.3872" y1="13.5808" x2="47.8637" x1="31.9386" style="fill:none;"/><line y2="1.3561" y1="10.5496" x2="46.1138" x1="30.1887" style="fill:none;"/><line y2="0" y1="12.0649" x2="0" x1="20.8964" style="fill:none;"/><line y2="-10.9428" y1="-1.1223" x2="74.4158" x1="57.4067" style="fill:none;"/><line y2="-13.9738" y1="-4.1533" x2="72.6657" x1="55.6566" style="fill:none;"/><line y2="15" y1="38.6138" x2="-25.98" x1="-25.98" style="fill:none;"/><line y2="-30" y1="-41.5514" x2="0" x1="20.0071" style="fill:none;"/><line y2="-30" y1="-41.4492" x2="-51.963" x1="-71.793" style="fill:none;"/><line y2="15" y1="0" x2="-25.98" x1="0" style="fill:none;"/><line y2="10.9585" y1="-2.0207" x2="-25.9801" x1="-3.5" style="fill:none;"/><line y2="-30" y1="0" x2="0" x1="0" style="fill:none;"/><line y2="0" y1="15" x2="-51.963" x1="-25.98" style="fill:none;"/><line y2="-45" y1="-30" x2="-25.98" x1="0" style="fill:none;"/><line y2="-40.9585" y1="-27.9793" x2="-25.9801" x1="-3.5" style="fill:none;"/><line y2="-30" y1="0" x2="-51.963" x1="-51.963" style="fill:none;"/><line y2="-27.9793" y1="-2.0207" x2="-48.463" x1="-48.463" style="fill:none;"/><line y2="-30" y1="-45" x2="-51.963" x1="-25.98" style="fill:none;"/></g><g transform="translate(85,53)" style="fill:rgb(0,5,255); text-rendering:geometricPrecision; color-rendering:optimizeQuality; image-rendering:optimizeQuality; font-family:'Open Sans'; stroke:rgb(0,5,255); color-interpolation:linearRGB;"><path style="stroke:none;" d="M29.3316 19.1562 L28.1909 19.1562 L23.5034 11.9688 L23.4566 11.9688 Q23.5503 13.2344 23.5503 14.2812 L23.5503 19.1562 L22.6284 19.1562 L22.6284 10.5938 L23.7534 10.5938 L28.4253 17.75 L28.4722 17.75 Q28.4722 17.5938 28.4253 16.7344 Q28.3784 15.875 28.3941 15.5 L28.3941 10.5938 L29.3316 10.5938 L29.3316 19.1562 Z"/><path style="fill:black; stroke:none;" d="M52.8302 -3.5781 Q51.4239 -3.5781 50.6036 -2.6406 Q49.7833 -1.7031 49.7833 -0.0625 Q49.7833 1.6094 50.5724 2.5312 Q51.3614 3.4531 52.8146 3.4531 Q53.7208 3.4531 54.8614 3.125 L54.8614 4 Q53.9708 4.3438 52.6739 4.3438 Q50.7833 4.3438 49.7521 3.1875 Q48.7208 2.0312 48.7208 -0.0781 Q48.7208 -1.4062 49.213 -2.3984 Q49.7052 -3.3906 50.6427 -3.9297 Q51.5802 -4.4688 52.8458 -4.4688 Q54.1896 -4.4688 55.2052 -3.9844 L54.7833 -3.125 Q53.7989 -3.5781 52.8302 -3.5781 Z"/><path style="fill:rgb(148,108,0); stroke:none;" d="M80.6383 -13.0625 Q80.6383 -11.9375 79.818 -11.2969 Q78.9977 -10.6562 77.5914 -10.6562 Q76.0602 -10.6562 75.2477 -11.0625 L75.2477 -12.0156 Q75.7789 -11.7969 76.3961 -11.6641 Q77.0133 -11.5312 77.6227 -11.5312 Q78.6227 -11.5312 79.1227 -11.9141 Q79.6227 -12.2969 79.6227 -12.9688 Q79.6227 -13.4062 79.443 -13.6953 Q79.2633 -13.9844 78.8493 -14.2266 Q78.4352 -14.4688 77.5758 -14.7656 Q76.3883 -15.1875 75.8727 -15.7734 Q75.3571 -16.3594 75.3571 -17.3125 Q75.3571 -18.2969 76.0993 -18.8828 Q76.8414 -19.4688 78.0758 -19.4688 Q79.3414 -19.4688 80.4196 -19 L80.1071 -18.1406 Q79.0446 -18.5781 78.0446 -18.5781 Q77.2477 -18.5781 76.8024 -18.2422 Q76.3571 -17.9062 76.3571 -17.2969 Q76.3571 -16.8594 76.5211 -16.5703 Q76.6852 -16.2812 77.0758 -16.0469 Q77.4664 -15.8125 78.2789 -15.5156 Q79.6227 -15.0469 80.1305 -14.4922 Q80.6383 -13.9375 80.6383 -13.0625 Z"/><path style="fill:rgb(0,138,0); stroke:none;" d="M-26.2886 41.6406 Q-27.6948 41.6406 -28.5152 42.5781 Q-29.3355 43.5156 -29.3355 45.1562 Q-29.3355 46.8281 -28.5464 47.75 Q-27.7573 48.6719 -26.3042 48.6719 Q-25.398 48.6719 -24.2573 48.3438 L-24.2573 49.2188 Q-25.148 49.5625 -26.4448 49.5625 Q-28.3355 49.5625 -29.3667 48.4062 Q-30.398 47.25 -30.398 45.1406 Q-30.398 43.8125 -29.9058 42.8203 Q-29.4136 41.8281 -28.4761 41.2891 Q-27.5386 40.75 -26.273 40.75 Q-24.9292 40.75 -23.9136 41.2344 L-24.3355 42.0938 Q-25.3198 41.6406 -26.2886 41.6406 ZM-21.562 49.4375 L-22.5308 49.4375 L-22.5308 40.3125 L-21.562 40.3125 L-21.562 49.4375 Z"/><path style="fill:rgb(0,138,0); stroke:none;" d="M25.6714 -48.3594 Q24.2652 -48.3594 23.4448 -47.4219 Q22.6245 -46.4844 22.6245 -44.8438 Q22.6245 -43.1719 23.4136 -42.25 Q24.2027 -41.3281 25.6558 -41.3281 Q26.562 -41.3281 27.7027 -41.6562 L27.7027 -40.7812 Q26.812 -40.4375 25.5152 -40.4375 Q23.6245 -40.4375 22.5933 -41.5938 Q21.562 -42.75 21.562 -44.8594 Q21.562 -46.1875 22.0542 -47.1797 Q22.5464 -48.1719 23.4839 -48.7109 Q24.4214 -49.25 25.687 -49.25 Q27.0308 -49.25 28.0464 -48.7656 L27.6245 -47.9062 Q26.6402 -48.3594 25.6714 -48.3594 ZM30.398 -40.5625 L29.4292 -40.5625 L29.4292 -49.6875 L30.398 -49.6875 L30.398 -40.5625 Z"/><path style="fill:rgb(0,138,0); stroke:none;" d="M-78.2516 -48.3594 Q-79.6578 -48.3594 -80.4782 -47.4219 Q-81.2985 -46.4844 -81.2985 -44.8438 Q-81.2985 -43.1719 -80.5094 -42.25 Q-79.7203 -41.3281 -78.2672 -41.3281 Q-77.361 -41.3281 -76.2203 -41.6562 L-76.2203 -40.7812 Q-77.111 -40.4375 -78.4078 -40.4375 Q-80.2985 -40.4375 -81.3297 -41.5938 Q-82.361 -42.75 -82.361 -44.8594 Q-82.361 -46.1875 -81.8688 -47.1797 Q-81.3766 -48.1719 -80.4391 -48.7109 Q-79.5016 -49.25 -78.236 -49.25 Q-76.8922 -49.25 -75.8766 -48.7656 L-76.2985 -47.9062 Q-77.2828 -48.3594 -78.2516 -48.3594 ZM-73.525 -40.5625 L-74.4938 -40.5625 L-74.4938 -49.6875 L-73.525 -49.6875 L-73.525 -40.5625 Z"/></g><g transform="translate(85,53)" style="stroke-linecap:butt; text-rendering:geometricPrecision; color-rendering:optimizeQuality; image-rendering:optimizeQuality; font-family:'Open Sans'; color-interpolation:linearRGB; stroke-miterlimit:5;"><path style="fill:none;" d="M-0.433 0.25 L0 0 L0 -0.5"/><path style="fill:none;" d="M-25.547 14.75 L-25.98 15 L-25.98 15.5"/><path style="fill:none;" d="M-0.433 -30.25 L0 -30 L0.433 -30.25"/><path style="fill:none;" d="M-51.53 0.25 L-51.963 0 L-51.963 -0.5"/><path style="fill:none;" d="M-25.547 -44.75 L-25.98 -45 L-26.413 -44.75"/><path style="fill:none;" d="M-51.963 -29.5 L-51.963 -30 L-52.396 -30.25"/></g></g></svg></svg></svg></svg>