<svg xmlns:ns0="http://www.w3.org/2000/svg" xmlns="http://www.w3.org/2000/svg"><g transform="translate(0, 0)"><ns0:svg width="313" viewBox="0 0 313 189" style="fill-opacity:1; color-rendering:auto; color-interpolation:auto; text-rendering:auto; stroke:black; stroke-linecap:square; stroke-miterlimit:10; shape-rendering:auto; stroke-opacity:1; fill:black; stroke-dasharray:none; font-weight:normal; stroke-width:1; font-family:'Open Sans'; font-style:normal; stroke-linejoin:miter; font-size:12; stroke-dashoffset:0; image-rendering:auto;" height="189" class="cas-substance-image"><ns0:svg class="cas-substance-single-component"><ns0:rect y="0" x="0" width="313" stroke="none" ry="7" rx="7" height="189" fill="white" class="cas-substance-group" /><ns0:svg y="0" x="0" width="313" viewBox="0 0 313 189" style="fill:black;" height="189" class="cas-substance-single-component-image"><ns0:svg><ns0:g><ns0:g transform="translate(158,96)" style="text-rendering:geometricPrecision; color-rendering:optimizeQuality; color-interpolation:linearRGB; stroke-linecap:butt; image-rendering:optimizeQuality;"><ns0:path style="stroke:none;" d="M-22.4 15 L-21.4 15 L-19.15 47.1649 L-25.15 43.7011 Z" /><ns0:line y2="0" y1="15" x2="4.083" x1="-21.9" style="fill:none;" /><ns0:line y2="0" y1="15" x2="-47.88" x1="-21.9" style="fill:none;" /><ns0:line y2="60" y1="45" x2="4.083" x1="-21.9" style="fill:none;" /><ns0:line y2="90" y1="60" x2="4.083" x1="4.083" style="fill:none;" /><ns0:line y2="45" y1="60" x2="30.063" x1="4.083" style="fill:none;" /><ns0:path style="stroke:none;" d="M32.7374 -4.4692 L32.317 -3.5583 L33.5695 -3.1015 L33.8332 -4.0695 L32.7374 -4.4692 ZM31.4764 -1.7365 L31.0561 -0.8256 L32.7781 -0.1975 L33.0419 -1.1655 L33.0419 -1.1655 L31.4764 -1.7365 ZM30.2154 0.9962 L29.7951 1.9071 L29.7951 1.9071 L31.9868 2.7066 L32.2506 1.7386 L30.2154 0.9962 ZM28.9545 3.729 L28.5341 4.6399 L31.1955 5.6106 L31.1955 5.6106 L31.4593 4.6426 L31.4593 4.6426 L28.9545 3.729 ZM27.6935 6.4617 L27.2732 7.3726 L27.2732 7.3726 L30.4042 8.5146 L30.4042 8.5146 L30.668 7.5466 L30.668 7.5466 L27.6935 6.4617 ZM26.4325 9.1944 L26.0122 10.1053 L29.6129 11.4187 L29.8767 10.4507 L29.8767 10.4507 L26.4325 9.1944 ZM25.1716 11.9271 L24.7512 12.8381 L24.7512 12.8381 L28.8216 14.3227 L28.8216 14.3227 L29.0854 13.3547 L29.0854 13.3547 L25.1716 11.9271 ZM23.9106 14.6599 L23.4903 15.5708 L23.4903 15.5708 L28.0303 17.2267 L28.0303 17.2267 L28.2941 16.2587 L28.2941 16.2587 L23.9106 14.6599 ZM22.6496 17.3926 L22.2293 18.3035 L22.2293 18.3035 L27.239 20.1308 L27.239 20.1308 L27.5028 19.1628 L22.6496 17.3926 ZM21.3887 20.1253 L20.9683 21.0362 L20.9683 21.0362 L26.4477 23.0348 L26.4477 23.0348 L26.7115 22.0668 L21.3887 20.1253 Z" /><ns0:path style="stroke:none;" d="M48.2674 -73.414 L47.4427 -72.8416 L47.4427 -72.8416 L50.2743 -67.9314 L51.1822 -68.3593 L51.1822 -68.3593 L48.2674 -73.414 ZM45.7935 -71.6968 L44.9688 -71.1245 L44.9688 -71.1245 L47.5505 -66.6475 L47.5505 -66.6475 L48.4585 -67.0755 L45.7935 -71.6968 ZM43.3196 -69.9797 L42.4949 -69.4073 L44.8268 -65.3637 L44.8268 -65.3637 L45.7347 -65.7916 L43.3196 -69.9797 ZM40.8457 -68.2626 L40.021 -67.6902 L40.021 -67.6902 L42.103 -64.0798 L42.103 -64.0798 L43.0109 -64.5078 L43.0109 -64.5078 L40.8457 -68.2626 ZM38.3717 -66.5454 L37.5471 -65.973 L37.5471 -65.973 L39.3792 -62.796 L39.3792 -62.796 L40.2872 -63.2239 L38.3717 -66.5454 ZM35.8978 -64.8283 L35.0732 -64.2559 L35.0732 -64.2559 L36.6555 -61.5121 L36.6555 -61.5121 L37.5634 -61.9401 L37.5634 -61.9401 L35.8978 -64.8283 ZM33.4239 -63.1111 L32.5993 -62.5388 L32.5993 -62.5388 L33.9317 -60.2283 L33.9317 -60.2283 L34.8396 -60.6562 L34.8396 -60.6562 L33.4239 -63.1111 ZM30.95 -61.394 L30.1254 -60.8216 L30.1254 -60.8216 L31.2079 -58.9444 L31.2079 -58.9444 L32.1158 -59.3724 L32.1158 -59.3724 L30.95 -61.394 ZM28.4761 -59.6769 L27.6515 -59.1045 L27.6515 -59.1045 L28.4842 -57.6605 L28.4842 -57.6605 L29.3921 -58.0885 L29.3921 -58.0885 L28.4761 -59.6769 ZM26.0022 -57.9597 L25.1776 -57.3873 L25.1776 -57.3873 L25.7604 -56.3767 L25.7604 -56.3767 L26.6683 -56.8046 L26.6683 -56.8046 L26.0022 -57.9597 Z" /><ns0:path style="stroke:none;" d="M25.0729 -56.553 L24.1332 -56.211 L13.7916 -77.316 L19.4298 -79.368 Z" /><ns0:line y2="-30" y1="-41.8112" x2="-47.88" x1="-27.423" style="fill:none;" /><ns0:line y2="15" y1="38.5234" x2="-73.86" x1="-73.86" style="fill:none;" /><ns0:line y2="-50.382" y1="-20.838" x2="117.048" x1="122.259" style="fill:none;" /><ns0:line y2="-26.046" y1="-20.838" x2="151.803" x1="122.259" style="fill:none;" /><ns0:line y2="2.2598" y1="-20.838" x2="126.3307" x1="122.259" style="fill:none;" /><ns0:path style="stroke:none;" d="M120.7653 -23.536 L119.7951 -23.2803 L119.7951 -23.2803 L120.7809 -17.7003 L121.7802 -17.7919 L121.7802 -17.7919 L120.7653 -23.536 ZM117.8546 -22.7688 L116.8843 -22.513 L116.8843 -22.513 L117.7832 -17.4254 L118.7824 -17.517 L117.8546 -22.7688 ZM114.9438 -22.0016 L113.9736 -21.7458 L113.9736 -21.7458 L114.7855 -17.1505 L115.7847 -17.2421 L115.7847 -17.2421 L114.9438 -22.0016 ZM112.0331 -21.2343 L111.0628 -20.9786 L111.7877 -16.8756 L111.7877 -16.8756 L112.787 -16.9672 L112.787 -16.9672 L112.0331 -21.2343 ZM109.1223 -20.4671 L108.1521 -20.2113 L108.1521 -20.2113 L108.79 -16.6007 L108.79 -16.6007 L109.7892 -16.6923 L109.7892 -16.6923 L109.1223 -20.4671 ZM106.2115 -19.6998 L105.2413 -19.4441 L105.7922 -16.3258 L105.7922 -16.3258 L106.7915 -16.4174 L106.7915 -16.4174 L106.2115 -19.6998 ZM103.3008 -18.9326 L102.3305 -18.6768 L102.3305 -18.6768 L102.7945 -16.0509 L102.7945 -16.0509 L103.7937 -16.1425 L103.3008 -18.9326 ZM100.39 -18.1653 L99.4198 -17.9096 L99.4198 -17.9096 L99.7967 -15.776 L100.796 -15.8677 L100.796 -15.8677 L100.39 -18.1653 ZM97.4793 -17.3981 L96.509 -17.1424 L96.799 -15.5011 L97.7982 -15.5928 L97.7982 -15.5928 L97.4793 -17.3981 ZM94.5685 -16.6309 L93.5983 -16.3751 L93.5983 -16.3751 L93.8013 -15.2262 L93.8013 -15.2262 L94.8005 -15.3179 L94.5685 -16.6309 Z" /><ns0:line y2="-86.8214" y1="-75" x2="-94.3346" x1="-73.86" style="fill:none;" /><ns0:line y2="-83.7903" y1="-72.9793" x2="-96.0847" x1="-77.36" style="fill:none;" /><ns0:line y2="-45" y1="-75" x2="-73.86" x1="-73.86" style="fill:none;" /><ns0:line y2="3.1786" y1="15" x2="-146.2977" x1="-125.823" style="fill:none;" /><ns0:line y2="0.1475" y1="10.9585" x2="-144.5476" x1="-125.8229" style="fill:none;" /><ns0:line y2="0" y1="15" x2="-99.84" x1="-125.823" style="fill:none;" /><ns0:line y2="-30" y1="-41.8216" x2="-99.84" x1="-120.3174" style="fill:none;" /><ns0:line y2="-5.208" y1="0" x2="33.627" x1="4.083" style="fill:none;" /><ns0:line y2="-22.98" y1="0" x2="-15.201" x1="4.083" style="fill:none;" /><ns0:line y2="-33.399" y1="-5.208" x2="43.887" x1="33.627" style="fill:none;" /><ns0:line y2="17.772" y1="-5.208" x2="52.911" x1="33.627" style="fill:none;" /><ns0:line y2="-51.171" y1="-22.98" x2="-4.941" x1="-15.201" style="fill:none;" /><ns0:line y2="-38.61" y1="-33.399" x2="73.431" x1="43.887" style="fill:none;" /><ns0:line y2="-56.382" y1="-33.399" x2="24.603" x1="43.887" style="fill:none;" /><ns0:line y2="12.561" y1="17.772" x2="82.455" x1="52.911" style="fill:none;" /><ns0:line y2="-56.382" y1="-51.171" x2="24.603" x1="-4.941" style="fill:none;" /><ns0:line y2="-15.627" y1="-38.61" x2="92.715" x1="73.431" style="fill:none;" /><ns0:line y2="-15.627" y1="12.561" x2="92.715" x1="82.455" style="fill:none;" /><ns0:line y2="-30" y1="0" x2="-47.88" x1="-47.88" style="fill:none;" /><ns0:line y2="-27.9793" y1="-2.0207" x2="-51.38" x1="-51.38" style="fill:none;" /><ns0:line y2="15" y1="0" x2="-73.86" x1="-47.88" style="fill:none;" /><ns0:line y2="-45" y1="-30" x2="-73.86" x1="-47.88" style="fill:none;" /><ns0:line y2="0" y1="15" x2="-99.84" x1="-73.86" style="fill:none;" /><ns0:line y2="-2.0207" y1="10.9585" x2="-96.34" x1="-73.8599" style="fill:none;" /><ns0:line y2="-30" y1="-45" x2="-99.84" x1="-73.86" style="fill:none;" /><ns0:line y2="-27.9793" y1="-40.9585" x2="-96.34" x1="-73.8599" style="fill:none;" /><ns0:line y2="-30" y1="0" x2="-99.84" x1="-99.84" style="fill:none;" /><ns0:path style="stroke:none;" d="M3.6131 0.171 L4.5528 -0.171 L14.8745 20.8794 L9.2363 22.9314 Z" /><ns0:path style="stroke:none;" d="M44.3568 -33.228 L43.4172 -33.57 L49.1313 -56.5804 L54.7695 -54.5284 Z" /></ns0:g><ns0:g transform="translate(158,96)" style="font-size:8.4px; fill:gray; text-rendering:geometricPrecision; image-rendering:optimizeQuality; color-rendering:optimizeQuality; font-family:'Open Sans'; font-style:italic; stroke:gray; color-interpolation:linearRGB;"><ns0:path style="stroke:none;" d="M-26.2884 6.1641 Q-26.2884 4.8359 -25.8196 3.7109 Q-25.3509 2.5859 -24.3196 1.5078 L-23.7103 1.5078 Q-24.679 2.5703 -25.1634 3.7422 Q-25.6478 4.9141 -25.6478 6.1484 Q-25.6478 7.4766 -25.2103 8.4922 L-25.7259 8.4922 Q-26.2884 7.4609 -26.2884 6.1641 ZM-22.7283 4.8516 L-23.2283 7.2266 L-23.8846 7.2266 L-22.6815 1.5078 L-21.4315 1.5078 Q-19.6971 1.5078 -19.6971 2.9453 Q-19.6971 4.3047 -21.1346 4.6953 L-20.1971 7.2266 L-20.9158 7.2266 L-21.744 4.8516 L-22.7283 4.8516 ZM-22.1502 2.1016 Q-22.5408 4.0234 -22.6033 4.2734 L-21.9471 4.2734 Q-21.1971 4.2734 -20.7908 3.9453 Q-20.3846 3.6172 -20.3846 2.9922 Q-20.3846 2.5234 -20.6424 2.3125 Q-20.9002 2.1016 -21.494 2.1016 L-22.1502 2.1016 ZM-17.5111 3.8516 Q-17.5111 5.1797 -17.9877 6.3125 Q-18.4642 7.4453 -19.4799 8.4922 L-20.0892 8.4922 Q-18.1517 6.3359 -18.1517 3.8516 Q-18.1517 2.5234 -18.5892 1.5078 L-18.0736 1.5078 Q-17.5111 2.5703 -17.5111 3.8516 Z" /></ns0:g><ns0:g transform="translate(158,96)" style="fill:rgb(230,0,0); text-rendering:geometricPrecision; color-rendering:optimizeQuality; image-rendering:optimizeQuality; font-family:'Open Sans'; stroke:rgb(230,0,0); color-interpolation:linearRGB;"><ns0:path style="stroke:none;" d="M18.2805 -84.6433 Q18.2805 -82.5808 17.2414 -81.4011 Q16.2024 -80.2214 14.3586 -80.2214 Q12.468 -80.2214 11.4368 -81.3855 Q10.4055 -82.5496 10.4055 -84.6589 Q10.4055 -86.7527 11.4368 -87.9011 Q12.468 -89.0496 14.3586 -89.0496 Q16.218 -89.0496 17.2493 -87.8777 Q18.2805 -86.7058 18.2805 -84.6433 ZM11.4524 -84.6433 Q11.4524 -82.9089 12.1946 -82.0027 Q12.9368 -81.0964 14.3586 -81.0964 Q15.7805 -81.0964 16.5071 -81.9949 Q17.2336 -82.8933 17.2336 -84.6433 Q17.2336 -86.3777 16.5071 -87.2683 Q15.7805 -88.1589 14.3586 -88.1589 Q12.9368 -88.1589 12.1946 -87.2605 Q11.4524 -86.3621 11.4524 -84.6433 Z" /><ns0:path style="stroke:none;" d="M9.4055 -80.3464 L8.4055 -80.3464 L8.4055 -84.3777 L3.8899 -84.3777 L3.8899 -80.3464 L2.8899 -80.3464 L2.8899 -88.9089 L3.8899 -88.9089 L3.8899 -85.2683 L8.4055 -85.2683 L8.4055 -88.9089 L9.4055 -88.9089 L9.4055 -80.3464 Z" /><ns0:path style="stroke:none;" d="M-17.9625 -45.0703 Q-17.9625 -43.0078 -19.0016 -41.8281 Q-20.0406 -40.6484 -21.8844 -40.6484 Q-23.775 -40.6484 -24.8063 -41.8125 Q-25.8375 -42.9766 -25.8375 -45.0859 Q-25.8375 -47.1797 -24.8063 -48.3281 Q-23.775 -49.4766 -21.8844 -49.4766 Q-20.025 -49.4766 -18.9938 -48.3047 Q-17.9625 -47.1328 -17.9625 -45.0703 ZM-24.7906 -45.0703 Q-24.7906 -43.3359 -24.0484 -42.4297 Q-23.3063 -41.5234 -21.8844 -41.5234 Q-20.4625 -41.5234 -19.7359 -42.4219 Q-19.0094 -43.3203 -19.0094 -45.0703 Q-19.0094 -46.8047 -19.7359 -47.6953 Q-20.4625 -48.5859 -21.8844 -48.5859 Q-23.3063 -48.5859 -24.0484 -47.6875 Q-24.7906 -46.7891 -24.7906 -45.0703 Z" /><ns0:path style="stroke:none;" d="M-10.4469 -40.7734 L-11.4469 -40.7734 L-11.4469 -44.8047 L-15.9625 -44.8047 L-15.9625 -40.7734 L-16.9625 -40.7734 L-16.9625 -49.3359 L-15.9625 -49.3359 L-15.9625 -45.6953 L-11.4469 -45.6953 L-11.4469 -49.3359 L-10.4469 -49.3359 L-10.4469 -40.7734 Z" /><ns0:path style="stroke:none;" d="M-69.9225 44.9297 Q-69.9225 46.9922 -70.9616 48.1719 Q-72.0006 49.3516 -73.8444 49.3516 Q-75.735 49.3516 -76.7663 48.1875 Q-77.7975 47.0234 -77.7975 44.9141 Q-77.7975 42.8203 -76.7663 41.6719 Q-75.735 40.5234 -73.8444 40.5234 Q-71.985 40.5234 -70.9538 41.6953 Q-69.9225 42.8672 -69.9225 44.9297 ZM-76.7506 44.9297 Q-76.7506 46.6641 -76.0084 47.5703 Q-75.2663 48.4766 -73.8444 48.4766 Q-72.4225 48.4766 -71.6959 47.5781 Q-70.9694 46.6797 -70.9694 44.9297 Q-70.9694 43.1953 -71.6959 42.3047 Q-72.4225 41.4141 -73.8444 41.4141 Q-75.2663 41.4141 -76.0084 42.3125 Q-76.7506 43.2109 -76.7506 44.9297 Z" /><ns0:path style="stroke:none;" d="M-62.4069 49.2266 L-63.4069 49.2266 L-63.4069 45.1953 L-67.9225 45.1953 L-67.9225 49.2266 L-68.9225 49.2266 L-68.9225 40.6641 L-67.9225 40.6641 L-67.9225 44.3047 L-63.4069 44.3047 L-63.4069 40.6641 L-62.4069 40.6641 L-62.4069 49.2266 Z" /><ns0:path style="stroke:none;" d="M131.4045 8.6357 Q131.4045 10.6982 130.3654 11.8779 Q129.3264 13.0576 127.4826 13.0576 Q125.592 13.0576 124.5607 11.8935 Q123.5295 10.7294 123.5295 8.6201 Q123.5295 6.5263 124.5607 5.3779 Q125.592 4.2294 127.4826 4.2294 Q129.342 4.2294 130.3732 5.4013 Q131.4045 6.5732 131.4045 8.6357 ZM124.5764 8.6357 Q124.5764 10.3701 125.3186 11.2763 Q126.0607 12.1826 127.4826 12.1826 Q128.9045 12.1826 129.6311 11.2841 Q130.3576 10.3857 130.3576 8.6357 Q130.3576 6.9013 129.6311 6.0107 Q128.9045 5.1201 127.4826 5.1201 Q126.0607 5.1201 125.3186 6.0185 Q124.5764 6.9169 124.5764 8.6357 Z" /><ns0:path style="stroke:none;" d="M138.9201 12.9326 L137.9201 12.9326 L137.9201 8.9013 L133.4045 8.9013 L133.4045 12.9326 L132.4045 12.9326 L132.4045 4.3701 L133.4045 4.3701 L133.4045 8.0107 L137.9201 8.0107 L137.9201 4.3701 L138.9201 4.3701 L138.9201 12.9326 Z" /></ns0:g><ns0:g transform="translate(158,96)" style="stroke-linecap:butt; text-rendering:geometricPrecision; color-rendering:optimizeQuality; image-rendering:optimizeQuality; font-family:'Open Sans'; color-interpolation:linearRGB; stroke-miterlimit:5;"><ns0:path style="fill:none;" d="M-74.293 -75.25 L-73.86 -75 L-73.86 -74.5" /><ns0:path transform="translate(-0.875,1.5155)" style="fill:rgb(230,0,0); stroke:none;" d="M-95.9025 -90.0703 Q-95.9025 -88.0078 -96.9416 -86.8281 Q-97.9806 -85.6484 -99.8244 -85.6484 Q-101.715 -85.6484 -102.7463 -86.8125 Q-103.7775 -87.9766 -103.7775 -90.0859 Q-103.7775 -92.1797 -102.7463 -93.3281 Q-101.715 -94.4766 -99.8244 -94.4766 Q-97.965 -94.4766 -96.9338 -93.3047 Q-95.9025 -92.1328 -95.9025 -90.0703 ZM-102.7306 -90.0703 Q-102.7306 -88.3359 -101.9884 -87.4297 Q-101.2463 -86.5234 -99.8244 -86.5234 Q-98.4025 -86.5234 -97.6759 -87.4219 Q-96.9494 -88.3203 -96.9494 -90.0703 Q-96.9494 -91.8047 -97.6759 -92.6953 Q-98.4025 -93.5859 -99.8244 -93.5859 Q-101.2463 -93.5859 -101.9884 -92.6875 Q-102.7306 -91.7891 -102.7306 -90.0703 Z" /></ns0:g><ns0:g transform="matrix(1,0,0,1,158,96)" style="stroke-linecap:butt; text-rendering:geometricPrecision; color-rendering:optimizeQuality; image-rendering:optimizeQuality; font-family:'Open Sans'; color-interpolation:linearRGB; stroke-miterlimit:5;"><ns0:path style="fill:none;" d="M-126.256 14.75 L-125.823 15 L-125.39 14.75" /><ns0:path transform="translate(0.875,-1.5155)" style="fill:rgb(230,0,0); stroke:none;" d="M-147.8655 -0.0703 Q-147.8655 1.9922 -148.9046 3.1719 Q-149.9436 4.3516 -151.7874 4.3516 Q-153.678 4.3516 -154.7093 3.1875 Q-155.7405 2.0234 -155.7405 -0.0859 Q-155.7405 -2.1797 -154.7093 -3.3281 Q-153.678 -4.4766 -151.7874 -4.4766 Q-149.928 -4.4766 -148.8968 -3.3047 Q-147.8655 -2.1328 -147.8655 -0.0703 ZM-154.6936 -0.0703 Q-154.6936 1.6641 -153.9514 2.5703 Q-153.2093 3.4766 -151.7874 3.4766 Q-150.3655 3.4766 -149.6389 2.5781 Q-148.9124 1.6797 -148.9124 -0.0703 Q-148.9124 -1.8047 -149.6389 -2.6953 Q-150.3655 -3.5859 -151.7874 -3.5859 Q-153.2093 -3.5859 -153.9514 -2.6875 Q-154.6936 -1.7891 -154.6936 -0.0703 Z" /></ns0:g><ns0:g transform="matrix(1,0,0,1,158,96)" style="stroke-linecap:butt; fill:rgb(230,0,0); text-rendering:geometricPrecision; color-rendering:optimizeQuality; image-rendering:optimizeQuality; font-family:'Open Sans'; stroke:rgb(230,0,0); color-interpolation:linearRGB; stroke-miterlimit:5;"><ns0:path style="stroke:none;" d="M-121.8855 -45.0703 Q-121.8855 -43.0078 -122.9246 -41.8281 Q-123.9636 -40.6484 -125.8074 -40.6484 Q-127.698 -40.6484 -128.7292 -41.8125 Q-129.7605 -42.9766 -129.7605 -45.0859 Q-129.7605 -47.1797 -128.7292 -48.3281 Q-127.698 -49.4766 -125.8074 -49.4766 Q-123.948 -49.4766 -122.9167 -48.3047 Q-121.8855 -47.1328 -121.8855 -45.0703 ZM-128.7136 -45.0703 Q-128.7136 -43.3359 -127.9714 -42.4297 Q-127.2292 -41.5234 -125.8074 -41.5234 Q-124.3855 -41.5234 -123.6589 -42.4219 Q-122.9324 -43.3203 -122.9324 -45.0703 Q-122.9324 -46.8047 -123.6589 -47.6953 Q-124.3855 -48.5859 -125.8074 -48.5859 Q-127.2292 -48.5859 -127.9714 -47.6875 Q-128.7136 -46.7891 -128.7136 -45.0703 Z" /><ns0:path style="stroke:none;" d="M-130.7605 -40.7734 L-131.7605 -40.7734 L-131.7605 -44.8047 L-136.2761 -44.8047 L-136.2761 -40.7734 L-137.2761 -40.7734 L-137.2761 -49.3359 L-136.2761 -49.3359 L-136.2761 -45.6953 L-131.7605 -45.6953 L-131.7605 -49.3359 L-130.7605 -49.3359 L-130.7605 -40.7734 Z" /></ns0:g><ns0:g transform="matrix(1,0,0,1,158,96)" style="stroke-linecap:butt; font-size:8.4px; fill:gray; text-rendering:geometricPrecision; image-rendering:optimizeQuality; color-rendering:optimizeQuality; font-family:'Open Sans'; font-style:italic; stroke:gray; color-interpolation:linearRGB; stroke-miterlimit:5;"><ns0:path style="stroke:none;" d="M3.3947 -8.1938 Q3.3947 -9.5219 3.8635 -10.6469 Q4.3322 -11.7719 5.3635 -12.85 L5.9728 -12.85 Q5.0041 -11.7875 4.5197 -10.6157 Q4.0353 -9.4438 4.0353 -8.2094 Q4.0353 -6.8813 4.4728 -5.8657 L3.9572 -5.8657 Q3.3947 -6.8969 3.3947 -8.1938 ZM9.0173 -8.7875 Q9.0173 -7.9594 8.4704 -7.5063 Q7.9235 -7.0532 6.9235 -7.0532 Q6.5173 -7.0532 6.2048 -7.1079 Q5.8923 -7.1625 5.611 -7.3032 L5.611 -7.9594 Q6.236 -7.6313 6.9392 -7.6313 Q7.5642 -7.6313 7.9392 -7.9282 Q8.3142 -8.225 8.3142 -8.7407 Q8.3142 -9.0532 8.111 -9.2797 Q7.9079 -9.5063 7.3454 -9.8344 Q6.7517 -10.1625 6.5251 -10.4907 Q6.2985 -10.8188 6.2985 -11.2719 Q6.2985 -12.0063 6.8142 -12.4672 Q7.3298 -12.9282 8.1735 -12.9282 Q8.5485 -12.9282 8.8845 -12.85 Q9.2204 -12.7719 9.5954 -12.6 L9.3298 -12.0063 Q9.0798 -12.1625 8.7595 -12.2485 Q8.4392 -12.3344 8.1735 -12.3344 Q7.6423 -12.3344 7.322 -12.061 Q7.0017 -11.7875 7.0017 -11.3188 Q7.0017 -11.1157 7.072 -10.9672 Q7.1423 -10.8188 7.2829 -10.686 Q7.4235 -10.5532 7.8454 -10.3032 Q8.4079 -9.9594 8.611 -9.7641 Q8.8142 -9.5688 8.9157 -9.3344 Q9.0173 -9.1 9.0173 -8.7875 ZM11.6118 -10.5063 Q11.6118 -9.1782 11.1352 -8.0454 Q10.6586 -6.9125 9.643 -5.8657 L9.0336 -5.8657 Q10.9711 -8.0219 10.9711 -10.5063 Q10.9711 -11.8344 10.5336 -12.85 L11.0493 -12.85 Q11.6118 -11.7875 11.6118 -10.5063 Z" /><ns0:path style="stroke:none;" d="M39.3665 -5.7416 Q39.3665 -7.0698 39.8353 -8.1948 Q40.304 -9.3198 41.3353 -10.3979 L41.9446 -10.3979 Q40.9759 -9.3354 40.4915 -8.1635 Q40.0071 -6.9916 40.0071 -5.7573 Q40.0071 -4.4291 40.4446 -3.4135 L39.929 -3.4135 Q39.3665 -4.4448 39.3665 -5.7416 ZM44.9891 -6.3354 Q44.9891 -5.5073 44.4422 -5.0541 Q43.8953 -4.601 42.8953 -4.601 Q42.4891 -4.601 42.1766 -4.6557 Q41.8641 -4.7104 41.5828 -4.851 L41.5828 -5.5073 Q42.2078 -5.1791 42.9109 -5.1791 Q43.5359 -5.1791 43.9109 -5.476 Q44.2859 -5.7729 44.2859 -6.2885 Q44.2859 -6.601 44.0828 -6.8276 Q43.8797 -7.0541 43.3172 -7.3823 Q42.7234 -7.7104 42.4969 -8.0385 Q42.2703 -8.3666 42.2703 -8.8198 Q42.2703 -9.5541 42.7859 -10.0151 Q43.3016 -10.476 44.1453 -10.476 Q44.5203 -10.476 44.8563 -10.3979 Q45.1922 -10.3198 45.5672 -10.1479 L45.3016 -9.5541 Q45.0516 -9.7104 44.7313 -9.7963 Q44.4109 -9.8823 44.1453 -9.8823 Q43.6141 -9.8823 43.2938 -9.6088 Q42.9734 -9.3354 42.9734 -8.8666 Q42.9734 -8.6635 43.0438 -8.5151 Q43.1141 -8.3666 43.2547 -8.2338 Q43.3953 -8.101 43.8172 -7.851 Q44.3797 -7.5073 44.5828 -7.312 Q44.7859 -7.1166 44.8875 -6.8823 Q44.9891 -6.6479 44.9891 -6.3354 ZM47.5835 -8.0541 Q47.5835 -6.726 47.107 -5.5932 Q46.6304 -4.4604 45.6148 -3.4135 L45.0054 -3.4135 Q46.9429 -5.5698 46.9429 -8.0541 Q46.9429 -9.3823 46.5054 -10.3979 L47.021 -10.3979 Q47.5835 -9.3354 47.5835 -8.0541 Z" /><ns0:path style="fill:none; stroke:black;" d="M-14.8796 -22.597 L-15.201 -22.98 L-15.03 -23.4499" /><ns0:path style="stroke:none;" d="M29.6503 -30.4985 Q29.6503 -31.8266 30.119 -32.9516 Q30.5878 -34.0766 31.619 -35.1547 L32.2284 -35.1547 Q31.2597 -34.0922 30.7753 -32.9204 Q30.2909 -31.7485 30.2909 -30.5141 Q30.2909 -29.186 30.7284 -28.1704 L30.2128 -28.1704 Q29.6503 -29.2016 29.6503 -30.4985 ZM33.2103 -31.811 L32.7103 -29.436 L32.0541 -29.436 L33.2572 -35.1547 L34.5072 -35.1547 Q36.2416 -35.1547 36.2416 -33.7172 Q36.2416 -32.3579 34.8041 -31.9672 L35.7416 -29.436 L35.0228 -29.436 L34.1947 -31.811 L33.2103 -31.811 ZM33.7885 -34.561 Q33.3978 -32.6391 33.3353 -32.3891 L33.9916 -32.3891 Q34.7416 -32.3891 35.1478 -32.7172 Q35.5541 -33.0454 35.5541 -33.6704 Q35.5541 -34.1391 35.2963 -34.35 Q35.0385 -34.561 34.4447 -34.561 L33.7885 -34.561 ZM38.4276 -32.811 Q38.4276 -31.4829 37.951 -30.35 Q37.4744 -29.2172 36.4588 -28.1704 L35.8494 -28.1704 Q37.7869 -30.3266 37.7869 -32.811 Q37.7869 -34.1391 37.3494 -35.1547 L37.8651 -35.1547 Q38.4276 -34.0922 38.4276 -32.811 Z" /><ns0:path style="fill:none; stroke:black;" d="M52.5896 17.389 L52.911 17.772 L53.4034 17.6852" /><ns0:path style="fill:none; stroke:black;" d="M-5.112 -50.7012 L-4.941 -51.171 L-4.4486 -51.2579" /><ns0:path style="fill:none; stroke:black;" d="M72.9386 -38.5231 L73.431 -38.61 L73.7524 -38.227" /><ns0:path style="stroke:none;" d="M16.7943 -45.821 Q16.7943 -47.1491 17.263 -48.2741 Q17.7318 -49.3991 18.763 -50.4772 L19.3724 -50.4772 Q18.4037 -49.4147 17.9193 -48.2428 Q17.4349 -47.071 17.4349 -45.8366 Q17.4349 -44.5085 17.8724 -43.4928 L17.3568 -43.4928 Q16.7943 -44.5241 16.7943 -45.821 ZM20.3543 -47.1335 L19.8543 -44.7585 L19.1981 -44.7585 L20.4012 -50.4772 L21.6512 -50.4772 Q23.3856 -50.4772 23.3856 -49.0397 Q23.3856 -47.6803 21.9481 -47.2897 L22.8856 -44.7585 L22.1668 -44.7585 L21.3387 -47.1335 L20.3543 -47.1335 ZM20.9325 -49.8835 Q20.5418 -47.9616 20.4793 -47.7116 L21.1356 -47.7116 Q21.8856 -47.7116 22.2918 -48.0397 Q22.6981 -48.3678 22.6981 -48.9928 Q22.6981 -49.4616 22.4403 -49.6725 Q22.1825 -49.8835 21.5887 -49.8835 L20.9325 -49.8835 ZM25.5716 -48.1335 Q25.5716 -46.8053 25.095 -45.6725 Q24.6184 -44.5397 23.6028 -43.4928 L22.9934 -43.4928 Q24.9309 -45.6491 24.9309 -48.1335 Q24.9309 -49.4616 24.4934 -50.4772 L25.0091 -50.4772 Q25.5716 -49.4147 25.5716 -48.1335 Z" /><ns0:path style="fill:none; stroke:black;" d="M81.9626 12.6479 L82.455 12.561 L82.626 12.0912" /><ns0:path style="fill:none; stroke:black;" d="M92.3936 -16.01 L92.715 -15.627 L92.544 -15.1572" /><ns0:path style="stroke:none;" d="M91.746 -23.8601 Q91.746 -25.1882 92.2148 -26.3132 Q92.6835 -27.4382 93.7148 -28.5163 L94.3241 -28.5163 Q93.3554 -27.4538 92.871 -26.2819 Q92.3866 -25.1101 92.3866 -23.8757 Q92.3866 -22.5476 92.8241 -21.5319 L92.3085 -21.5319 Q91.746 -22.5632 91.746 -23.8601 ZM95.3061 -25.1726 L94.8061 -22.7976 L94.1498 -22.7976 L95.3529 -28.5163 L96.6029 -28.5163 Q98.3373 -28.5163 98.3373 -27.0788 Q98.3373 -25.7194 96.8998 -25.3288 L97.8373 -22.7976 L97.1186 -22.7976 L96.2904 -25.1726 L95.3061 -25.1726 ZM95.8842 -27.9226 Q95.4936 -26.0007 95.4311 -25.7507 L96.0873 -25.7507 Q96.8373 -25.7507 97.2436 -26.0788 Q97.6498 -26.4069 97.6498 -27.0319 Q97.6498 -27.5007 97.392 -27.7116 Q97.1342 -27.9226 96.5404 -27.9226 L95.8842 -27.9226 ZM100.5233 -26.1726 Q100.5233 -24.8444 100.0467 -23.7116 Q99.5702 -22.5788 98.5545 -21.5319 L97.9452 -21.5319 Q99.8827 -23.6882 99.8827 -26.1726 Q99.8827 -27.5007 99.4452 -28.5163 L99.9608 -28.5163 Q100.5233 -27.4538 100.5233 -26.1726 Z" /><ns0:path style="fill:none; stroke:black;" d="M-47.88 -0.5 L-47.88 0 L-47.447 0.25" /><ns0:path style="fill:none; stroke:black;" d="M-47.88 -29.5 L-47.88 -30 L-47.447 -30.25" /><ns0:path style="fill:none; stroke:black;" d="M-74.293 14.75 L-73.86 15 L-73.427 14.75" /><ns0:path style="fill:none; stroke:black;" d="M-74.293 -44.75 L-73.86 -45 L-73.86 -45.5" /><ns0:path style="fill:none; stroke:black;" d="M-99.407 0.25 L-99.84 0 L-99.84 -0.5" /><ns0:path style="fill:none; stroke:black;" d="M-99.407 -30.25 L-99.84 -30 L-100.273 -30.25" /></ns0:g><ns0:g transform="matrix(1,0,0,1,158,96)" style="stroke-linecap:butt; text-rendering:geometricPrecision; color-rendering:optimizeQuality; image-rendering:optimizeQuality; font-family:'Open Sans'; color-interpolation:linearRGB; stroke-miterlimit:5;"><ns0:path style="stroke:none;" d="M17.6008 32.3473 L16.6008 32.3473 L16.6008 28.316 L12.0852 28.316 L12.0852 32.3473 L11.0852 32.3473 L11.0852 23.7848 L12.0852 23.7848 L12.0852 27.4254 L16.6008 27.4254 L16.6008 23.7848 L17.6008 23.7848 L17.6008 32.3473 Z" /><ns0:path style="stroke:none;" d="M57.4048 -57.4338 L56.4048 -57.4338 L56.4048 -61.465 L51.8892 -61.465 L51.8892 -57.4338 L50.8892 -57.4338 L50.8892 -65.9962 L51.8892 -65.9962 L51.8892 -62.3556 L56.4048 -62.3556 L56.4048 -65.9962 L57.4048 -65.9962 L57.4048 -57.4338 Z" /></ns0:g></ns0:g></ns0:svg></ns0:svg></ns0:svg></ns0:svg></g></svg>