<svg width="334" viewBox="0 0 334 116" style="fill-opacity:1; color-rendering:auto; color-interpolation:auto; text-rendering:auto; stroke:black; stroke-linecap:square; stroke-miterlimit:10; shape-rendering:auto; stroke-opacity:1; fill:black; stroke-dasharray:none; font-weight:normal; stroke-width:1; font-family:'Open Sans'; font-style:normal; stroke-linejoin:miter; font-size:12; stroke-dashoffset:0; image-rendering:auto;" height="116" class="cas-substance-image" xmlns:xlink="http://www.w3.org/1999/xlink" xmlns="http://www.w3.org/2000/svg"><svg class="cas-substance-single-component"><rect y="0" x="0" width="334" stroke="none" ry="7" rx="7" height="116" fill="white" class="cas-substance-group"/><svg y="0" x="0" width="334" viewBox="0 0 334 116" style="fill:black;" height="116" class="cas-substance-single-component-image"><svg><g><g transform="translate(163,60)" style="text-rendering:geometricPrecision; color-rendering:optimizeQuality; color-interpolation:linearRGB; stroke-linecap:butt; image-rendering:optimizeQuality;"><line y2="7.5" y1="-4.5649" x2="0" x1="-20.8964" style="fill:none;"/><line y2="7.5" y1="-4.5649" x2="-51.96" x1="-31.0636" style="fill:none;"/><line y2="-7.5" y1="7.5" x2="25.98" x1="0" style="fill:none;"/><line y2="37.5" y1="7.5" x2="0" x1="0" style="fill:none;"/><line y2="7.5" y1="-7.5" x2="51.963" x1="25.98" style="fill:none;"/><line y2="-7.5" y1="7.5" x2="77.943" x1="51.963" style="fill:none;"/><line y2="4.5649" y1="-7.5" x2="98.8394" x1="77.943" style="fill:none;"/><line y2="-7.5" y1="4.5649" x2="129.903" x1="109.0066" style="fill:none;"/><line y2="37.5" y1="13.6562" x2="103.923" x1="103.923" style="fill:none;"/><line y2="-37.5" y1="-7.5" x2="129.903" x1="129.903" style="fill:none;"/><line y2="52.5" y1="37.5" x2="129.903" x1="103.923" style="fill:none;"/><line y2="-49.3114" y1="-37.5" x2="150.3628" x1="129.903" style="fill:none;"/><line y2="-37.5" y1="-48.9496" x2="-129.903" x1="-149.7359" style="fill:none;"/><line y2="7.5" y1="-7.5" x2="-103.923" x1="-77.943" style="fill:none;"/><line y2="9.5207" y1="-3.4585" x2="-100.423" x1="-77.9429" style="fill:none;"/><line y2="7.5" y1="-7.5" x2="-51.96" x1="-77.943" style="fill:none;"/><line y2="-37.5" y1="-7.5" x2="-77.943" x1="-77.943" style="fill:none;"/><line y2="31.0938" y1="7.5" x2="-103.923" x1="-103.923" style="fill:none;"/><line y2="-7.5" y1="7.5" x2="-129.903" x1="-103.923" style="fill:none;"/><line y2="37.5" y1="7.5" x2="-51.96" x1="-51.96" style="fill:none;"/><line y2="35.4793" y1="9.5207" x2="-55.46" x1="-55.46" style="fill:none;"/><line y2="-52.5" y1="-37.5" x2="-103.923" x1="-77.943" style="fill:none;"/><line y2="-48.4585" y1="-35.4793" x2="-103.923" x1="-81.443" style="fill:none;"/><line y2="52.5" y1="40.4351" x2="-77.943" x1="-98.8394" style="fill:none;"/><line y2="48.4585" y1="37.404" x2="-77.9429" x1="-97.0894" style="fill:none;"/><line y2="-37.5" y1="-7.5" x2="-129.903" x1="-129.903" style="fill:none;"/><line y2="-35.4793" y1="-9.5207" x2="-126.403" x1="-126.403" style="fill:none;"/><line y2="52.5" y1="37.5" x2="-77.943" x1="-51.96" style="fill:none;"/><line y2="-37.5" y1="-52.5" x2="-129.903" x1="-103.923" style="fill:none;"/></g><g transform="translate(163,60)" style="fill:rgb(0,5,255); text-rendering:geometricPrecision; color-rendering:optimizeQuality; image-rendering:optimizeQuality; font-family:'Open Sans'; stroke:rgb(0,5,255); color-interpolation:linearRGB;"><path style="stroke:none;" d="M-22.6284 -3.3438 L-23.7691 -3.3438 L-28.4566 -10.5312 L-28.5034 -10.5312 Q-28.4097 -9.2656 -28.4097 -8.2188 L-28.4097 -3.3438 L-29.3316 -3.3438 L-29.3316 -11.9062 L-28.2066 -11.9062 L-23.5347 -4.75 L-23.4878 -4.75 Q-23.4878 -4.9062 -23.5347 -5.7656 Q-23.5816 -6.625 -23.5659 -7 L-23.5659 -11.9062 L-22.6284 -11.9062 L-22.6284 -3.3438 Z"/><path style="stroke:none;" d="M-22.7222 -12.9062 L-23.7222 -12.9062 L-23.7222 -16.9375 L-28.2378 -16.9375 L-28.2378 -12.9062 L-29.2378 -12.9062 L-29.2378 -21.4688 L-28.2378 -21.4688 L-28.2378 -17.8281 L-23.7222 -17.8281 L-23.7222 -21.4688 L-22.7222 -21.4688 L-22.7222 -12.9062 Z"/></g><g transform="translate(163,60)" style="stroke-linecap:butt; text-rendering:geometricPrecision; color-rendering:optimizeQuality; image-rendering:optimizeQuality; font-family:'Open Sans'; color-interpolation:linearRGB; stroke-miterlimit:5;"><path style="fill:none;" d="M25.547 -7.25 L25.98 -7.5 L26.413 -7.25"/><path style="fill:none;" d="M51.53 7.25 L51.963 7.5 L52.396 7.25"/><path style="fill:none;" d="M77.51 -7.25 L77.943 -7.5 L78.376 -7.25"/><path style="fill:rgb(0,5,255); stroke:none;" d="M107.2746 11.6562 L106.1339 11.6562 L101.4464 4.4688 L101.3996 4.4688 Q101.4933 5.7344 101.4933 6.7812 L101.4933 11.6562 L100.5714 11.6562 L100.5714 3.0938 L101.6964 3.0938 L106.3683 10.25 L106.4152 10.25 Q106.4152 10.0938 106.3683 9.2344 Q106.3214 8.375 106.3371 8 L106.3371 3.0938 L107.2746 3.0938 L107.2746 11.6562 Z"/><path style="fill:none;" d="M129.47 -7.25 L129.903 -7.5 L129.903 -8"/><path style="fill:none;" d="M103.923 37 L103.923 37.5 L104.356 37.75"/><path style="fill:none;" d="M129.903 -37 L129.903 -37.5 L130.336 -37.75"/><path style="fill:rgb(230,0,0); stroke:none;" d="M159.8235 -52.5703 Q159.8235 -50.5078 158.7844 -49.3281 Q157.7454 -48.1484 155.9016 -48.1484 Q154.011 -48.1484 152.9798 -49.3125 Q151.9485 -50.4766 151.9485 -52.5859 Q151.9485 -54.6797 152.9798 -55.8281 Q154.011 -56.9766 155.9016 -56.9766 Q157.761 -56.9766 158.7923 -55.8047 Q159.8235 -54.6328 159.8235 -52.5703 ZM152.9954 -52.5703 Q152.9954 -50.8359 153.7376 -49.9297 Q154.4798 -49.0234 155.9016 -49.0234 Q157.3235 -49.0234 158.0501 -49.9219 Q158.7766 -50.8203 158.7766 -52.5703 Q158.7766 -54.3047 158.0501 -55.1953 Q157.3235 -56.0859 155.9016 -56.0859 Q154.4798 -56.0859 153.7376 -55.1875 Q152.9954 -54.2891 152.9954 -52.5703 Z"/><path style="fill:rgb(230,0,0); stroke:none;" d="M167.3391 -48.2734 L166.3391 -48.2734 L166.3391 -52.3047 L161.8235 -52.3047 L161.8235 -48.2734 L160.8235 -48.2734 L160.8235 -56.8359 L161.8235 -56.8359 L161.8235 -53.1953 L166.3391 -53.1953 L166.3391 -56.8359 L167.3391 -56.8359 L167.3391 -48.2734 Z"/><path style="fill:rgb(0,138,0); stroke:none;" d="M-156.1946 -55.8594 Q-157.6008 -55.8594 -158.4212 -54.9219 Q-159.2415 -53.9844 -159.2415 -52.3438 Q-159.2415 -50.6719 -158.4524 -49.75 Q-157.6633 -48.8281 -156.2102 -48.8281 Q-155.304 -48.8281 -154.1633 -49.1562 L-154.1633 -48.2812 Q-155.054 -47.9375 -156.3508 -47.9375 Q-158.2415 -47.9375 -159.2727 -49.0938 Q-160.304 -50.25 -160.304 -52.3594 Q-160.304 -53.6875 -159.8118 -54.6797 Q-159.3196 -55.6719 -158.3821 -56.2109 Q-157.4446 -56.75 -156.179 -56.75 Q-154.8352 -56.75 -153.8196 -56.2656 L-154.2415 -55.4062 Q-155.2258 -55.8594 -156.1946 -55.8594 ZM-151.468 -48.0625 L-152.4368 -48.0625 L-152.4368 -57.1875 L-151.468 -57.1875 L-151.468 -48.0625 Z"/><path style="fill:none;" d="M-78.376 -7.25 L-77.943 -7.5 L-77.943 -8"/><path style="fill:none;" d="M-103.49 7.25 L-103.923 7.5 L-103.923 8"/><path style="fill:none;" d="M-51.96 8 L-51.96 7.5 L-51.527 7.25"/><path style="fill:none;" d="M-77.943 -37 L-77.943 -37.5 L-78.376 -37.75"/><path style="fill:rgb(0,5,255); stroke:none;" d="M-100.5714 41.6562 L-101.7121 41.6562 L-106.3996 34.4688 L-106.4464 34.4688 Q-106.3527 35.7344 -106.3527 36.7812 L-106.3527 41.6562 L-107.2746 41.6562 L-107.2746 33.0938 L-106.1496 33.0938 L-101.4777 40.25 L-101.4308 40.25 Q-101.4308 40.0938 -101.4777 39.2344 Q-101.5246 38.375 -101.5089 38 L-101.5089 33.0938 L-100.5714 33.0938 L-100.5714 41.6562 Z"/><path style="fill:none;" d="M-129.47 -7.25 L-129.903 -7.5 L-129.903 -8"/><path style="fill:none;" d="M-51.96 37 L-51.96 37.5 L-52.393 37.75"/><path style="fill:none;" d="M-103.49 -52.25 L-103.923 -52.5 L-104.356 -52.25"/><path style="fill:none;" d="M-78.376 52.25 L-77.943 52.5 L-77.51 52.25"/><path style="fill:none;" d="M-129.903 -37 L-129.903 -37.5 L-130.336 -37.75"/></g></g></svg></svg></svg></svg>