<svg width="103" viewBox="0 0 103 59" style="fill-opacity:1; color-rendering:auto; color-interpolation:auto; text-rendering:auto; stroke:black; stroke-linecap:square; stroke-miterlimit:10; shape-rendering:auto; stroke-opacity:1; fill:black; stroke-dasharray:none; font-weight:normal; stroke-width:1; font-family:'Open Sans'; font-style:normal; stroke-linejoin:miter; font-size:12; stroke-dashoffset:0; image-rendering:auto;" height="59" class="cas-substance-image" xmlns:xlink="http://www.w3.org/1999/xlink" xmlns="http://www.w3.org/2000/svg"><svg class="cas-substance-single-component"><rect y="0" x="0" width="103" stroke="none" ry="7" rx="7" height="59" fill="white" class="cas-substance-group"/><svg y="0" x="0" width="103" viewBox="0 0 103 59" style="fill:black;" height="59" class="cas-substance-single-component-image"><svg><g><g transform="translate(51,29)" style="text-rendering:geometricPrecision; color-rendering:optimizeQuality; color-interpolation:linearRGB; stroke-linecap:butt; image-rendering:optimizeQuality;"><line y2="-15" y1="0" x2="22.5" x1="-3.48" style="fill:none;"/><line y2="-25.98" y1="0" x2="-18.48" x1="-3.48" style="fill:none;"/><line y2="11.3791" y1="0" x2="-23.1908" x1="-3.48" style="fill:none;"/><line y2="25.98" y1="0" x2="11.52" x1="-3.48" style="fill:none;"/><line y2="0" y1="-15" x2="48.48" x1="22.5" style="fill:none;"/><line y2="-25.98" y1="-25.98" x2="-48.48" x1="-18.48" style="fill:none;"/><path style="fill:none; stroke-miterlimit:5;" d="M22.067 -14.75 L22.5 -15 L22.933 -14.75"/><path style="fill:none; stroke-miterlimit:5;" d="M-18.23 -25.547 L-18.48 -25.98 L-18.98 -25.98"/></g><g transform="translate(51,29)" style="stroke-linecap:butt; fill:rgb(0,138,0); text-rendering:geometricPrecision; color-rendering:optimizeQuality; image-rendering:optimizeQuality; font-family:'Open Sans'; stroke:rgb(0,138,0); color-interpolation:linearRGB; stroke-miterlimit:5;"><path style="stroke:none;" d="M-35.1319 10.5938 L-32.7101 10.5938 Q-31.0069 10.5938 -30.2413 11.1016 Q-29.4757 11.6094 -29.4757 12.7031 Q-29.4757 13.4688 -29.8976 13.9688 Q-30.3194 14.4688 -31.1476 14.6094 L-31.1476 14.6719 Q-29.1944 15 -29.1944 16.7188 Q-29.1944 17.8594 -29.9679 18.5078 Q-30.7413 19.1562 -32.1319 19.1562 L-35.1319 19.1562 L-35.1319 10.5938 ZM-34.1319 14.25 L-32.4913 14.25 Q-31.4288 14.25 -30.9679 13.9219 Q-30.5069 13.5938 -30.5069 12.8125 Q-30.5069 12.0938 -31.0226 11.7734 Q-31.5382 11.4531 -32.6632 11.4531 L-34.1319 11.4531 L-34.1319 14.25 ZM-34.1319 15.0938 L-34.1319 18.3125 L-32.3351 18.3125 Q-31.3038 18.3125 -30.7804 17.9062 Q-30.2569 17.5 -30.2569 16.6406 Q-30.2569 15.8438 -30.796 15.4688 Q-31.3351 15.0938 -32.4288 15.0938 L-34.1319 15.0938 ZM-24.5597 12.6094 Q-24.1378 12.6094 -23.7941 12.6875 L-23.9347 13.5938 Q-24.3253 13.5 -24.6378 13.5 Q-25.4191 13.5 -25.9737 14.1328 Q-26.5284 14.7656 -26.5284 15.7031 L-26.5284 19.1562 L-27.4972 19.1562 L-27.4972 12.7344 L-26.7003 12.7344 L-26.5753 13.9219 L-26.5284 13.9219 Q-26.1847 13.2969 -25.6769 12.9531 Q-25.1691 12.6094 -24.5597 12.6094 Z"/></g></g></svg></svg></svg></svg>