<svg xmlns:ns0="http://www.w3.org/2000/svg" xmlns="http://www.w3.org/2000/svg"><g transform="translate(0, 0)"><ns0:svg width="250" viewBox="0 0 250 109" style="fill-opacity:1; color-rendering:auto; color-interpolation:auto; text-rendering:auto; stroke:black; stroke-linecap:square; stroke-miterlimit:10; shape-rendering:auto; stroke-opacity:1; fill:black; stroke-dasharray:none; font-weight:normal; stroke-width:1; font-family:'Open Sans'; font-style:normal; stroke-linejoin:miter; font-size:12; stroke-dashoffset:0; image-rendering:auto;" height="109" class="cas-substance-image"><ns0:svg class="cas-substance-single-component"><ns0:rect y="0" x="0" width="250" stroke="none" ry="7" rx="7" height="109" fill="white" class="cas-substance-group" /><ns0:svg y="0" x="0" width="250" viewBox="0 0 250 109" style="fill:black;" height="109" class="cas-substance-single-component-image"><ns0:svg><ns0:g><ns0:g transform="translate(123,56)" style="text-rendering:geometricPrecision; color-rendering:optimizeQuality; color-interpolation:linearRGB; stroke-linecap:butt; image-rendering:optimizeQuality;"><ns0:line y2="13.9896" y1="38.5234" x2="-3.869" x1="-3.869" style="fill:none;" /><ns0:line y2="13.9896" y1="38.5234" x2="-7.369" x1="-7.369" style="fill:none;" /><ns0:line y2="0" y1="15" x2="20.361" x1="46.341" style="fill:none;" /><ns0:line y2="2.9348" y1="15" x2="67.2403" x1="46.341" style="fill:none;" /><ns0:line y2="12.201" y1="41.547" x2="99.729" x1="105.966" style="fill:none;" /><ns0:line y2="9.27" y1="0" x2="-60.132" x1="-31.599" style="fill:none;" /><ns0:line y2="-30" y1="0" x2="-31.599" x1="-31.599" style="fill:none;" /><ns0:line y2="-27.9793" y1="-2.0207" x2="-35.099" x1="-35.099" style="fill:none;" /><ns0:line y2="15" y1="0" x2="-5.619" x1="-31.599" style="fill:none;" /><ns0:line y2="-15" y1="9.27" x2="-77.766" x1="-60.132" style="fill:none;" /><ns0:line y2="36.678" y1="9.27" x2="-72.333" x1="-60.132" style="fill:none;" /><ns0:line y2="33.4085" y1="9.6927" x2="-74.7087" x1="-64.1513" style="fill:none;" /><ns0:line y2="-37.5631" y1="-30" x2="-54.8783" x1="-31.599" style="fill:none;" /><ns0:line y2="-45" y1="-30" x2="-5.619" x1="-31.599" style="fill:none;" /><ns0:line y2="0" y1="15" x2="20.361" x1="-5.619" style="fill:none;" /><ns0:line y2="-33.4957" y1="-15" x2="-64.3274" x1="-77.766" style="fill:none;" /><ns0:line y2="-11.865" y1="-15" x2="-107.601" x1="-77.766" style="fill:none;" /><ns0:line y2="-8.5953" y1="-11.308" x2="-105.2256" x1="-79.4099" style="fill:none;" /><ns0:line y2="39.813" y1="36.678" x2="-102.171" x1="-72.333" style="fill:none;" /><ns0:line y2="-30" y1="-45" x2="20.361" x1="-5.619" style="fill:none;" /><ns0:line y2="-30" y1="0" x2="20.361" x1="20.361" style="fill:none;" /><ns0:line y2="15.543" y1="-11.865" x2="-119.802" x1="-107.601" style="fill:none;" /><ns0:line y2="15.543" y1="39.813" x2="-119.802" x1="-102.171" style="fill:none;" /><ns0:line y2="15.1208" y1="36.121" x2="-115.7827" x1="-100.527" style="fill:none;" /><ns0:line y2="12.201" y1="2.3056" x2="99.729" x1="77.5027" style="fill:none;" /><ns0:line y2="-29.835" y1="-6.3953" x2="75.459" x1="72.996" style="fill:none;" /><ns0:line y2="-4.8835" y1="12.201" x2="115.1122" x1="99.729" style="fill:none;" /><ns0:line y2="-7.2255" y1="8.3573" x2="112.5112" x1="98.4802" style="fill:none;" /><ns0:line y2="-36.072" y1="-29.835" x2="104.802" x1="75.459" style="fill:none;" /><ns0:line y2="-32.2284" y1="-26.8316" x2="103.5531" x1="78.1633" style="fill:none;" /><ns0:line y2="-36.072" y1="-16.2303" x2="104.802" x1="116.258" style="fill:none;" /></ns0:g><ns0:g transform="translate(123,56)" style="fill:rgb(230,0,0); text-rendering:geometricPrecision; color-rendering:optimizeQuality; image-rendering:optimizeQuality; font-family:'Open Sans'; stroke:rgb(230,0,0); color-interpolation:linearRGB;"><ns0:path style="stroke:none;" d="M-1.6815 44.9297 Q-1.6815 46.9922 -2.7206 48.1719 Q-3.7596 49.3516 -5.6034 49.3516 Q-7.494 49.3516 -8.5252 48.1875 Q-9.5565 47.0234 -9.5565 44.9141 Q-9.5565 42.8203 -8.5252 41.6719 Q-7.494 40.5234 -5.6034 40.5234 Q-3.744 40.5234 -2.7127 41.6953 Q-1.6815 42.8672 -1.6815 44.9297 ZM-8.5096 44.9297 Q-8.5096 46.6641 -7.7674 47.5703 Q-7.0252 48.4766 -5.6034 48.4766 Q-4.1815 48.4766 -3.4549 47.5781 Q-2.7284 46.6797 -2.7284 44.9297 Q-2.7284 43.1953 -3.4549 42.3047 Q-4.1815 41.4141 -5.6034 41.4141 Q-7.0252 41.4141 -7.7674 42.3125 Q-8.5096 43.2109 -8.5096 44.9297 Z" /></ns0:g><ns0:g transform="translate(123,56)" style="stroke-linecap:butt; text-rendering:geometricPrecision; color-rendering:optimizeQuality; image-rendering:optimizeQuality; font-family:'Open Sans'; color-interpolation:linearRGB; stroke-miterlimit:5;"><ns0:path style="fill:none;" d="M45.908 14.75 L46.341 15 L46.774 14.75" /><ns0:path style="fill:none;" d="M-31.599 -0.5 L-31.599 0 L-31.166 0.25" /><ns0:path style="fill:none;" d="M-60.3353 9.7268 L-60.132 9.27 L-59.6565 9.1155" /><ns0:path style="fill:none;" d="M-31.599 -29.5 L-31.599 -30 L-32.0745 -30.1545" /><ns0:path style="fill:none;" d="M-6.052 14.75 L-5.619 15 L-5.186 14.75" /><ns0:path style="fill:none;" d="M-78.2633 -14.9477 L-77.766 -15 L-77.4721 -15.4045" /><ns0:path style="fill:none;" d="M-72.1297 36.2212 L-72.333 36.678 L-72.8303 36.7302" /><ns0:path style="fill:rgb(0,5,255); stroke:none;" d="M-56.7804 -35.1138 L-57.9211 -35.1138 L-62.6086 -42.3013 L-62.6554 -42.3013 Q-62.5617 -41.0356 -62.5617 -39.9888 L-62.5617 -35.1138 L-63.4836 -35.1138 L-63.4836 -43.6763 L-62.3586 -43.6763 L-57.6867 -36.52 L-57.6398 -36.52 Q-57.6398 -36.6763 -57.6867 -37.5356 Q-57.7336 -38.395 -57.7179 -38.77 L-57.7179 -43.6763 L-56.7804 -43.6763 L-56.7804 -35.1138 Z" /><ns0:path style="fill:rgb(0,5,255); stroke:none;" d="M-56.8742 -44.6763 L-57.8742 -44.6763 L-57.8742 -48.7075 L-62.3898 -48.7075 L-62.3898 -44.6763 L-63.3898 -44.6763 L-63.3898 -53.2388 L-62.3898 -53.2388 L-62.3898 -49.5981 L-57.8742 -49.5981 L-57.8742 -53.2388 L-56.8742 -53.2388 L-56.8742 -44.6763 Z" /><ns0:path style="fill:none;" d="M-6.052 -44.75 L-5.619 -45 L-5.186 -44.75" /><ns0:path style="fill:none;" d="M-107.1037 -11.9173 L-107.601 -11.865 L-107.8043 -11.4082" /><ns0:path style="fill:none;" d="M-101.6737 39.7608 L-102.171 39.813 L-102.4649 39.4085" /><ns0:path style="fill:none;" d="M19.928 -30.25 L20.361 -30 L20.361 -29.5" /><ns0:path style="fill:none;" d="M-119.5987 15.0862 L-119.802 15.543 L-119.5081 15.9475" /><ns0:path style="fill:rgb(0,5,255); stroke:none;" d="M75.6756 4.1562 L74.5349 4.1562 L69.8474 -3.0312 L69.8006 -3.0312 Q69.8943 -1.7656 69.8943 -0.7188 L69.8943 4.1562 L68.9724 4.1562 L68.9724 -4.4062 L70.0974 -4.4062 L74.7693 2.75 L74.8162 2.75 Q74.8162 2.5938 74.7693 1.7344 Q74.7224 0.875 74.7381 0.5 L74.7381 -4.4062 L75.6756 -4.4062 L75.6756 4.1562 Z" /><ns0:path style="fill:none;" d="M100.0636 11.8294 L99.729 12.201 L99.8329 12.6901" /><ns0:path style="fill:none;" d="M75.4067 -29.3377 L75.459 -29.835 L75.9481 -29.939" /><ns0:path style="fill:rgb(0,5,255); stroke:none;" d="M123.1536 -5.9358 L122.0129 -5.9358 L117.3254 -13.1233 L117.2786 -13.1233 Q117.3723 -11.8576 117.3723 -10.8108 L117.3723 -5.9358 L116.4504 -5.9358 L116.4504 -14.4983 L117.5754 -14.4983 L122.2473 -7.342 L122.2942 -7.342 Q122.2942 -7.4983 122.2473 -8.3576 Q122.2004 -9.217 122.2161 -9.592 L122.2161 -14.4983 L123.1536 -14.4983 L123.1536 -5.9358 Z" /><ns0:path style="fill:none;" d="M104.3129 -35.968 L104.802 -36.072 L105.052 -35.639" /></ns0:g></ns0:g></ns0:svg></ns0:svg></ns0:svg></ns0:svg></g></svg>