<svg width="174" viewBox="0 0 174 105" style="fill-opacity:1; color-rendering:auto; color-interpolation:auto; text-rendering:auto; stroke:black; stroke-linecap:square; stroke-miterlimit:10; shape-rendering:auto; stroke-opacity:1; fill:black; stroke-dasharray:none; font-weight:normal; stroke-width:1; font-family:'Open Sans'; font-style:normal; stroke-linejoin:miter; font-size:12; stroke-dashoffset:0; image-rendering:auto;" height="105" class="cas-substance-image" xmlns:xlink="http://www.w3.org/1999/xlink" xmlns="http://www.w3.org/2000/svg"><svg class="cas-substance-single-component"><rect y="0" x="0" width="174" stroke="none" ry="7" rx="7" height="105" fill="white" class="cas-substance-group"/><svg y="0" x="0" width="174" viewBox="0 0 174 105" style="fill:black;" height="105" class="cas-substance-single-component-image"><svg><g><g transform="translate(92,52)" style="text-rendering:geometricPrecision; color-rendering:optimizeQuality; color-interpolation:linearRGB; stroke-linecap:butt; image-rendering:optimizeQuality;"><line y2="-30" y1="-41.8216" x2="51.963" x1="31.4856" style="fill:none;"/><line y2="-30" y1="-41.8112" x2="0" x1="20.457" style="fill:none;"/><line y2="-45" y1="-30" x2="77.943" x1="51.963" style="fill:none;"/><line y2="13.9896" y1="38.5234" x2="-24.23" x1="-24.23" style="fill:none;"/><line y2="13.9897" y1="38.5234" x2="-27.73" x1="-27.73" style="fill:none;"/><line y2="-30" y1="-41.8214" x2="-51.963" x1="-72.4376" style="fill:none;"/><line y2="-6.4062" y1="-30" x2="0" x1="0" style="fill:none;"/><line y2="-42.0649" y1="-30" x2="-20.8964" x1="0" style="fill:none;"/><line y2="-39.0338" y1="-27.9793" x2="-22.6464" x1="-3.5" style="fill:none;"/><line y2="15" y1="2.9351" x2="-25.98" x1="-5.0836" style="fill:none;"/><line y2="-30" y1="-42.0652" x2="-51.963" x1="-31.0637" style="fill:none;"/><line y2="0" y1="15" x2="-51.963" x1="-25.98" style="fill:none;"/><line y2="0" y1="-30" x2="-51.963" x1="-51.963" style="fill:none;"/><line y2="-2.0207" y1="-27.9793" x2="-48.463" x1="-48.463" style="fill:none;"/></g><g transform="translate(92,52)" style="fill:rgb(230,0,0); text-rendering:geometricPrecision; color-rendering:optimizeQuality; image-rendering:optimizeQuality; font-family:'Open Sans'; stroke:rgb(230,0,0); color-interpolation:linearRGB;"><path style="stroke:none;" d="M29.9175 -45.0703 Q29.9175 -43.0078 28.8784 -41.8281 Q27.8394 -40.6484 25.9956 -40.6484 Q24.105 -40.6484 23.0737 -41.8125 Q22.0425 -42.9766 22.0425 -45.0859 Q22.0425 -47.1797 23.0737 -48.3281 Q24.105 -49.4766 25.9956 -49.4766 Q27.855 -49.4766 28.8862 -48.3047 Q29.9175 -47.1328 29.9175 -45.0703 ZM23.0894 -45.0703 Q23.0894 -43.3359 23.8316 -42.4297 Q24.5737 -41.5234 25.9956 -41.5234 Q27.4175 -41.5234 28.1441 -42.4219 Q28.8706 -43.3203 28.8706 -45.0703 Q28.8706 -46.8047 28.1441 -47.6953 Q27.4175 -48.5859 25.9956 -48.5859 Q24.5737 -48.5859 23.8316 -47.6875 Q23.0894 -46.7891 23.0894 -45.0703 Z"/></g><g transform="translate(92,52)" style="stroke-linecap:butt; text-rendering:geometricPrecision; color-rendering:optimizeQuality; image-rendering:optimizeQuality; font-family:'Open Sans'; color-interpolation:linearRGB; stroke-miterlimit:5;"><path style="fill:none;" d="M51.53 -30.25 L51.963 -30 L52.396 -30.25"/><path style="fill:rgb(230,0,0); stroke:none;" d="M-22.0425 44.9297 Q-22.0425 46.9922 -23.0816 48.1719 Q-24.1206 49.3516 -25.9644 49.3516 Q-27.855 49.3516 -28.8862 48.1875 Q-29.9175 47.0234 -29.9175 44.9141 Q-29.9175 42.8203 -28.8862 41.6719 Q-27.855 40.5234 -25.9644 40.5234 Q-24.105 40.5234 -23.0737 41.6953 Q-22.0425 42.8672 -22.0425 44.9297 ZM-28.8706 44.9297 Q-28.8706 46.6641 -28.1284 47.5703 Q-27.3862 48.4766 -25.9644 48.4766 Q-24.5425 48.4766 -23.8159 47.5781 Q-23.0894 46.6797 -23.0894 44.9297 Q-23.0894 43.1953 -23.8159 42.3047 Q-24.5425 41.4141 -25.9644 41.4141 Q-27.3862 41.4141 -28.1284 42.3125 Q-28.8706 43.2109 -28.8706 44.9297 Z"/><path style="fill:rgb(230,0,0); stroke:none;" d="M-74.0055 -45.0703 Q-74.0055 -43.0078 -75.0446 -41.8281 Q-76.0836 -40.6484 -77.9274 -40.6484 Q-79.818 -40.6484 -80.8493 -41.8125 Q-81.8805 -42.9766 -81.8805 -45.0859 Q-81.8805 -47.1797 -80.8493 -48.3281 Q-79.818 -49.4766 -77.9274 -49.4766 Q-76.068 -49.4766 -75.0368 -48.3047 Q-74.0055 -47.1328 -74.0055 -45.0703 ZM-80.8336 -45.0703 Q-80.8336 -43.3359 -80.0914 -42.4297 Q-79.3493 -41.5234 -77.9274 -41.5234 Q-76.5055 -41.5234 -75.7789 -42.4219 Q-75.0524 -43.3203 -75.0524 -45.0703 Q-75.0524 -46.8047 -75.7789 -47.6953 Q-76.5055 -48.5859 -77.9274 -48.5859 Q-79.3493 -48.5859 -80.0914 -47.6875 Q-80.8336 -46.7891 -80.8336 -45.0703 Z"/><path style="fill:rgb(230,0,0); stroke:none;" d="M-82.8805 -40.7734 L-83.8805 -40.7734 L-83.8805 -44.8047 L-88.3961 -44.8047 L-88.3961 -40.7734 L-89.3961 -40.7734 L-89.3961 -49.3359 L-88.3961 -49.3359 L-88.3961 -45.6953 L-83.8805 -45.6953 L-83.8805 -49.3359 L-82.8805 -49.3359 L-82.8805 -40.7734 Z"/><path style="fill:none;" d="M-0.433 -30.25 L0 -30 L0.433 -30.25"/><path style="fill:rgb(0,5,255); stroke:none;" d="M3.3516 4.1562 L2.2109 4.1562 L-2.4766 -3.0312 L-2.5234 -3.0312 Q-2.4297 -1.7656 -2.4297 -0.7188 L-2.4297 4.1562 L-3.3516 4.1562 L-3.3516 -4.4062 L-2.2266 -4.4062 L2.4453 2.75 L2.4922 2.75 Q2.4922 2.5938 2.4453 1.7344 Q2.3984 0.875 2.4141 0.5 L2.4141 -4.4062 L3.3516 -4.4062 L3.3516 4.1562 Z"/><path style="fill:rgb(0,5,255); stroke:none;" d="M10.8672 4.1562 L9.8672 4.1562 L9.8672 0.125 L5.3516 0.125 L5.3516 4.1562 L4.3516 4.1562 L4.3516 -4.4062 L5.3516 -4.4062 L5.3516 -0.7656 L9.8672 -0.7656 L9.8672 -4.4062 L10.8672 -4.4062 L10.8672 4.1562 Z"/><path style="fill:rgb(0,5,255); stroke:none;" d="M-22.6284 -40.8438 L-23.7691 -40.8438 L-28.4566 -48.0312 L-28.5034 -48.0312 Q-28.4097 -46.7656 -28.4097 -45.7188 L-28.4097 -40.8438 L-29.3316 -40.8438 L-29.3316 -49.4062 L-28.2066 -49.4062 L-23.5347 -42.25 L-23.4878 -42.25 Q-23.4878 -42.4062 -23.5347 -43.2656 Q-23.5816 -44.125 -23.5659 -44.5 L-23.5659 -49.4062 L-22.6284 -49.4062 L-22.6284 -40.8438 Z"/><path style="fill:none;" d="M-25.547 14.75 L-25.98 15 L-26.413 14.75"/><path style="fill:none;" d="M-51.963 -29.5 L-51.963 -30 L-52.396 -30.25"/><path style="fill:none;" d="M-51.53 0.25 L-51.963 0 L-51.963 -0.5"/></g></g></svg></svg></svg></svg>