<svg width="187" viewBox="0 0 187 90" style="fill-opacity:1; color-rendering:auto; color-interpolation:auto; text-rendering:auto; stroke:black; stroke-linecap:square; stroke-miterlimit:10; shape-rendering:auto; stroke-opacity:1; fill:black; stroke-dasharray:none; font-weight:normal; stroke-width:1; font-family:'Open Sans'; font-style:normal; stroke-linejoin:miter; font-size:12; stroke-dashoffset:0; image-rendering:auto;" height="90" class="cas-substance-image" xmlns:xlink="http://www.w3.org/1999/xlink" xmlns="http://www.w3.org/2000/svg"><svg class="cas-substance-single-component"><rect y="0" x="0" width="187" stroke="none" ry="7" rx="7" height="90" fill="white" class="cas-substance-group"/><svg y="0" x="0" width="187" viewBox="0 0 187 90" style="fill:black;" height="90" class="cas-substance-single-component-image"><svg><g><g transform="translate(101,42)" style="text-rendering:geometricPrecision; color-rendering:optimizeQuality; color-interpolation:linearRGB; stroke-linecap:butt; image-rendering:optimizeQuality;"><line y2="-38.97" y1="-18.7117" x2="52.5" x1="40.8035" style="fill:none;"/><line y2="-12.99" y1="-12.99" x2="7.5" x1="31.5625" style="fill:none;"/><line y2="-38.97" y1="-38.97" x2="82.5" x1="52.5" style="fill:none;"/><line y2="12.99" y1="32.8317" x2="-7.5" x1="3.956" style="fill:none;"/><line y2="-12.99" y1="-12.99" x2="-52.5" x1="-77.1484" style="fill:none;"/><line y2="12.99" y1="-12.99" x2="-7.5" x1="7.5" style="fill:none;"/><line y2="9.49" y1="-12.9901" x2="-9.5207" x1="3.4585" style="fill:none;"/><line y2="-38.97" y1="-12.99" x2="-7.5" x1="7.5" style="fill:none;"/><line y2="12.99" y1="12.99" x2="-37.5" x1="-7.5" style="fill:none;"/><line y2="-38.97" y1="-38.97" x2="-37.5" x1="-7.5" style="fill:none;"/><line y2="-35.47" y1="-35.47" x2="-35.4793" x1="-9.5207" style="fill:none;"/><line y2="-12.99" y1="12.99" x2="-52.5" x1="-37.5" style="fill:none;"/><line y2="-12.9901" y1="9.49" x2="-48.4585" x1="-35.4793" style="fill:none;"/><line y2="-12.99" y1="-38.97" x2="-52.5" x1="-37.5" style="fill:none;"/></g><g transform="translate(101,42)" style="fill:rgb(230,0,0); text-rendering:geometricPrecision; color-rendering:optimizeQuality; image-rendering:optimizeQuality; font-family:'Open Sans'; stroke:rgb(230,0,0); color-interpolation:linearRGB;"><path style="stroke:none;" d="M41.4375 -13.0603 Q41.4375 -10.9978 40.3984 -9.8181 Q39.3594 -8.6384 37.5156 -8.6384 Q35.625 -8.6384 34.5938 -9.8025 Q33.5625 -10.9666 33.5625 -13.0759 Q33.5625 -15.1697 34.5938 -16.3181 Q35.625 -17.4666 37.5156 -17.4666 Q39.375 -17.4666 40.4062 -16.2947 Q41.4375 -15.1228 41.4375 -13.0603 ZM34.6094 -13.0603 Q34.6094 -11.3259 35.3516 -10.4197 Q36.0938 -9.5134 37.5156 -9.5134 Q38.9375 -9.5134 39.6641 -10.4119 Q40.3906 -11.3103 40.3906 -13.0603 Q40.3906 -14.7947 39.6641 -15.6853 Q38.9375 -16.5759 37.5156 -16.5759 Q36.0938 -16.5759 35.3516 -15.6775 Q34.6094 -14.7791 34.6094 -13.0603 Z"/></g><g transform="translate(101,42)" style="stroke-linecap:butt; text-rendering:geometricPrecision; color-rendering:optimizeQuality; image-rendering:optimizeQuality; font-family:'Open Sans'; color-interpolation:linearRGB; stroke-miterlimit:5;"><path style="fill:none;" d="M52.25 -38.537 L52.5 -38.97 L53 -38.97"/><path style="fill:rgb(0,5,255); stroke:none;" d="M10.8516 43.1263 L9.7109 43.1263 L5.0234 35.9388 L4.9766 35.9388 Q5.0703 37.2044 5.0703 38.2513 L5.0703 43.1263 L4.1484 43.1263 L4.1484 34.5638 L5.2734 34.5638 L9.9453 41.72 L9.9922 41.72 Q9.9922 41.5638 9.9453 40.7044 Q9.8984 39.845 9.9141 39.47 L9.9141 34.5638 L10.8516 34.5638 L10.8516 43.1263 Z"/><path style="fill:rgb(0,5,255); stroke:none;" d="M18.3672 43.1263 L17.3672 43.1263 L17.3672 39.095 L12.8516 39.095 L12.8516 43.1263 L11.8516 43.1263 L11.8516 34.5638 L12.8516 34.5638 L12.8516 38.2044 L17.3672 38.2044 L17.3672 34.5638 L18.3672 34.5638 L18.3672 43.1263 Z"/><path style="fill:rgb(0,5,255); stroke:none;" d="M23.1172 44.9356 L19.3672 44.9356 L19.3672 44.3731 L20.8672 42.8575 Q21.5547 42.17 21.7734 41.8731 Q21.9922 41.5763 22.1016 41.295 Q22.2109 41.0138 22.2109 40.6856 Q22.2109 40.2325 21.9375 39.9669 Q21.6641 39.7013 21.1641 39.7013 Q20.8203 39.7013 20.5 39.8184 Q20.1797 39.9356 19.7891 40.2325 L19.4453 39.795 Q20.2266 39.1388 21.1641 39.1388 Q21.9609 39.1388 22.4219 39.5528 Q22.8828 39.9669 22.8828 40.6544 Q22.8828 41.2013 22.5781 41.7325 Q22.2734 42.2638 21.4297 43.0763 L20.1797 44.295 L20.1797 44.3263 L23.1172 44.3263 L23.1172 44.9356 Z"/><path style="fill:rgb(0,5,255); stroke:none;" d="M-79.1484 -8.8337 L-80.2891 -8.8337 L-84.9766 -16.0212 L-85.0234 -16.0212 Q-84.9297 -14.7556 -84.9297 -13.7087 L-84.9297 -8.8337 L-85.8516 -8.8337 L-85.8516 -17.3962 L-84.7266 -17.3962 L-80.0547 -10.24 L-80.0078 -10.24 Q-80.0078 -10.3962 -80.0547 -11.2556 Q-80.1016 -12.115 -80.0859 -12.49 L-80.0859 -17.3962 L-79.1484 -17.3962 L-79.1484 -8.8337 Z"/><path style="fill:rgb(0,5,255); stroke:none;" d="M-91.6016 -8.8337 L-92.6016 -8.8337 L-92.6016 -12.865 L-97.1172 -12.865 L-97.1172 -8.8337 L-98.1172 -8.8337 L-98.1172 -17.3962 L-97.1172 -17.3962 L-97.1172 -13.7556 L-92.6016 -13.7556 L-92.6016 -17.3962 L-91.6016 -17.3962 L-91.6016 -8.8337 Z"/><path style="fill:rgb(0,5,255); stroke:none;" d="M-86.8516 -7.0244 L-90.6016 -7.0244 L-90.6016 -7.5869 L-89.1016 -9.1025 Q-88.4141 -9.79 -88.1953 -10.0869 Q-87.9766 -10.3837 -87.8672 -10.665 Q-87.7578 -10.9462 -87.7578 -11.2744 Q-87.7578 -11.7275 -88.0312 -11.9931 Q-88.3047 -12.2587 -88.8047 -12.2587 Q-89.1484 -12.2587 -89.4688 -12.1416 Q-89.7891 -12.0244 -90.1797 -11.7275 L-90.5234 -12.165 Q-89.7422 -12.8212 -88.8047 -12.8212 Q-88.0078 -12.8212 -87.5469 -12.4072 Q-87.0859 -11.9931 -87.0859 -11.3056 Q-87.0859 -10.7587 -87.3906 -10.2275 Q-87.6953 -9.6962 -88.5391 -8.8837 L-89.7891 -7.665 L-89.7891 -7.6337 L-86.8516 -7.6337 L-86.8516 -7.0244 Z"/><path style="fill:none;" d="M7.25 -12.557 L7.5 -12.99 L8 -12.99"/><path style="fill:none;" d="M-7.25 12.557 L-7.5 12.99 L-8 12.99"/><path style="fill:none;" d="M-7.25 -38.537 L-7.5 -38.97 L-8 -38.97"/><path style="fill:none;" d="M-37 12.99 L-37.5 12.99 L-37.75 12.557"/><path style="fill:none;" d="M-37 -38.97 L-37.5 -38.97 L-37.75 -38.537"/><path style="fill:none;" d="M-52.25 -12.557 L-52.5 -12.99 L-53 -12.99"/></g></g></svg></svg></svg></svg>