<svg width="222" viewBox="0 0 222 147" style="fill-opacity:1; color-rendering:auto; color-interpolation:auto; text-rendering:auto; stroke:black; stroke-linecap:square; stroke-miterlimit:10; shape-rendering:auto; stroke-opacity:1; fill:black; stroke-dasharray:none; font-weight:normal; stroke-width:1; font-family:'Open Sans'; font-style:normal; stroke-linejoin:miter; font-size:12; stroke-dashoffset:0; image-rendering:auto;" height="147" class="cas-substance-image" xmlns:xlink="http://www.w3.org/1999/xlink" xmlns="http://www.w3.org/2000/svg"><svg class="cas-substance-single-component"><rect y="0" x="0" width="222" stroke="none" ry="7" rx="7" height="147" fill="white" class="cas-substance-group"/><svg y="0" x="0" width="222" viewBox="0 0 222 147" style="fill:black;" height="147" class="cas-substance-single-component-image"><svg><g><g transform="translate(109,73)" style="text-rendering:geometricPrecision; color-rendering:optimizeQuality; color-interpolation:linearRGB; stroke-linecap:butt; image-rendering:optimizeQuality;"><line y2="36.4896" y1="61.0234" x2="29.512" x1="29.512" style="fill:none;"/><line y2="36.4896" y1="61.0234" x2="26.012" x1="26.012" style="fill:none;"/><path style="stroke:none;" d="M51.4264 -69.532 L50.6017 -68.9596 L50.6017 -68.9596 L53.4333 -64.0494 L53.4333 -64.0494 L54.3412 -64.4773 L54.3412 -64.4773 L51.4264 -69.532 ZM48.9525 -67.8148 L48.1278 -67.2424 L48.1278 -67.2424 L50.7095 -62.7655 L50.7095 -62.7655 L51.6175 -63.1935 L48.9525 -67.8148 ZM46.4786 -66.0977 L45.6539 -65.5253 L45.6539 -65.5253 L47.9858 -61.4817 L47.9858 -61.4817 L48.8937 -61.9096 L48.8937 -61.9096 L46.4786 -66.0977 ZM44.0047 -64.3806 L43.18 -63.8082 L43.18 -63.8082 L45.262 -60.1978 L45.262 -60.1978 L46.1699 -60.6258 L46.1699 -60.6258 L44.0047 -64.3806 ZM41.5307 -62.6634 L40.7061 -62.091 L40.7061 -62.091 L42.5382 -58.914 L43.4461 -59.3419 L43.4461 -59.3419 L41.5307 -62.6634 ZM39.0568 -60.9463 L38.2322 -60.3739 L39.8145 -57.6301 L40.7224 -58.0581 L40.7224 -58.0581 L39.0568 -60.9463 ZM36.5829 -59.2291 L35.7583 -58.6568 L35.7583 -58.6568 L37.0907 -56.3463 L37.0907 -56.3463 L37.9986 -56.7742 L37.9986 -56.7742 L36.5829 -59.2291 ZM34.109 -57.512 L33.2844 -56.9396 L33.2844 -56.9396 L34.3669 -55.0624 L35.2748 -55.4903 L35.2748 -55.4903 L34.109 -57.512 ZM31.6351 -55.7949 L30.8105 -55.2225 L30.8105 -55.2225 L31.6432 -53.7785 L31.6432 -53.7785 L32.5511 -54.2065 L32.5511 -54.2065 L31.6351 -55.7949 ZM29.1612 -54.0777 L28.3366 -53.5053 L28.3366 -53.5053 L28.9194 -52.4947 L28.9194 -52.4947 L29.8273 -52.9226 L29.1612 -54.0777 Z"/><line y2="-22.5" y1="-44.6554" x2="-76.161" x1="-68.0976" style="fill:none;"/><line y2="22.5" y1="35.1944" x2="-50.181" x1="-72.1677" style="fill:none;"/><line y2="61.0234" y1="37.5" x2="79.725" x1="79.725" style="fill:none;"/><line y2="27.2044" y1="39.5207" x2="101.057" x1="79.725" style="fill:none;"/><line y2="24.1733" y1="36.4897" x2="99.3069" x1="77.9749" style="fill:none;"/><line y2="22.5" y1="37.5" x2="53.742" x1="79.725" style="fill:none;"/><line y2="-22.5" y1="-7.5" x2="-24.198" x1="1.782" style="fill:none;"/><line y2="-18.4585" y1="-5.4793" x2="-24.1981" x1="-1.718" style="fill:none;"/><line y2="22.5" y1="-7.5" x2="1.782" x1="1.782" style="fill:none;"/><line y2="-19.5649" y1="-7.5" x2="22.6784" x1="1.782" style="fill:none;"/><line y2="-7.5" y1="-22.5" x2="-50.181" x1="-24.198" style="fill:none;"/><line y2="-46.1484" y1="-22.5" x2="-24.198" x1="-24.198" style="fill:none;"/><line y2="37.5" y1="22.5" x2="27.762" x1="1.782" style="fill:none;"/><line y2="37.5" y1="22.5" x2="-24.198" x1="1.782" style="fill:none;"/><line y2="33.4585" y1="20.4793" x2="-24.1981" x1="-1.718" style="fill:none;"/><line y2="-7.5" y1="-19.5649" x2="53.742" x1="32.8456" style="fill:none;"/><line y2="-52.5" y1="-28.9062" x2="27.762" x1="27.762" style="fill:none;"/><line y2="22.5" y1="-7.5" x2="-50.181" x1="-50.181" style="fill:none;"/><line y2="20.4793" y1="-5.4793" x2="-46.681" x1="-46.681" style="fill:none;"/><line y2="-22.5" y1="-7.5" x2="-76.161" x1="-50.181" style="fill:none;"/><line y2="-67.5" y1="-55.726" x2="1.782" x1="-18.6105" style="fill:none;"/><line y2="22.5" y1="37.5" x2="53.742" x1="27.762" style="fill:none;"/><line y2="22.5" y1="37.5" x2="-50.181" x1="-24.198" style="fill:none;"/><line y2="22.5" y1="-7.5" x2="53.742" x1="53.742" style="fill:none;"/><line y2="20.4793" y1="-5.4793" x2="50.242" x1="50.242" style="fill:none;"/><line y2="-67.5" y1="-52.5" x2="1.782" x1="27.762" style="fill:none;"/><line y2="-27.708" y1="-22.5" x2="-105.705" x1="-76.161" style="fill:none;"/><line y2="0.48" y1="-22.5" x2="-95.445" x1="-76.161" style="fill:none;"/><line y2="0.48" y1="-27.708" x2="-95.445" x1="-105.705" style="fill:none;"/></g><g transform="translate(109,73)" style="fill:rgb(230,0,0); text-rendering:geometricPrecision; color-rendering:optimizeQuality; image-rendering:optimizeQuality; font-family:'Open Sans'; stroke:rgb(230,0,0); color-interpolation:linearRGB;"><path style="stroke:none;" d="M31.6995 67.4297 Q31.6995 69.4922 30.6604 70.6719 Q29.6214 71.8516 27.7776 71.8516 Q25.887 71.8516 24.8558 70.6875 Q23.8245 69.5234 23.8245 67.4141 Q23.8245 65.3203 24.8558 64.1719 Q25.887 63.0234 27.7776 63.0234 Q29.637 63.0234 30.6683 64.1953 Q31.6995 65.3672 31.6995 67.4297 ZM24.8714 67.4297 Q24.8714 69.1641 25.6136 70.0703 Q26.3558 70.9766 27.7776 70.9766 Q29.1995 70.9766 29.9261 70.0781 Q30.6526 69.1797 30.6526 67.4297 Q30.6526 65.6953 29.9261 64.8047 Q29.1995 63.9141 27.7776 63.9141 Q26.3558 63.9141 25.6136 64.8125 Q24.8714 65.7109 24.8714 67.4297 Z"/><path style="fill:rgb(0,5,255); stroke:none;" d="M-62.5494 -46.5348 L-63.6901 -46.5348 L-68.3776 -53.7223 L-68.4244 -53.7223 Q-68.3307 -52.4566 -68.3307 -51.4098 L-68.3307 -46.5348 L-69.2526 -46.5348 L-69.2526 -55.0973 L-68.1276 -55.0973 L-63.4557 -47.941 L-63.4088 -47.941 Q-63.4088 -48.0973 -63.4557 -48.9566 Q-63.5026 -49.816 -63.4869 -50.191 L-63.4869 -55.0973 L-62.5494 -55.0973 L-62.5494 -46.5348 Z"/><path style="fill:rgb(0,5,255); stroke:none;" d="M-55.0338 -46.5348 L-56.0338 -46.5348 L-56.0338 -50.566 L-60.5494 -50.566 L-60.5494 -46.5348 L-61.5494 -46.5348 L-61.5494 -55.0973 L-60.5494 -55.0973 L-60.5494 -51.4566 L-56.0338 -51.4566 L-56.0338 -55.0973 L-55.0338 -55.0973 L-55.0338 -46.5348 Z"/><path style="fill:rgb(0,5,255); stroke:none;" d="M-50.2838 -44.7254 L-54.0338 -44.7254 L-54.0338 -45.2879 L-52.5338 -46.8035 Q-51.8463 -47.491 -51.6276 -47.7879 Q-51.4088 -48.0848 -51.2994 -48.366 Q-51.1901 -48.6473 -51.1901 -48.9754 Q-51.1901 -49.4285 -51.4635 -49.6941 Q-51.7369 -49.9598 -52.2369 -49.9598 Q-52.5807 -49.9598 -52.901 -49.8426 Q-53.2213 -49.7254 -53.6119 -49.4285 L-53.9557 -49.866 Q-53.1744 -50.5223 -52.2369 -50.5223 Q-51.4401 -50.5223 -50.9791 -50.1082 Q-50.5182 -49.6941 -50.5182 -49.0066 Q-50.5182 -48.4598 -50.8229 -47.9285 Q-51.1276 -47.3973 -51.9713 -46.5848 L-53.2213 -45.366 L-53.2213 -45.3348 L-50.2838 -45.3348 L-50.2838 -44.7254 Z"/><path style="fill:rgb(0,138,0); stroke:none;" d="M-77.5516 41.6562 L-78.5516 41.6562 L-78.5516 33.0938 L-73.7704 33.0938 L-73.7704 33.9688 L-77.5516 33.9688 L-77.5516 37.1094 L-74.0048 37.1094 L-74.0048 38 L-77.5516 38 L-77.5516 41.6562 Z"/></g><g transform="translate(109,73)" style="stroke-linecap:butt; text-rendering:geometricPrecision; color-rendering:optimizeQuality; image-rendering:optimizeQuality; font-family:'Open Sans'; color-interpolation:linearRGB; stroke-miterlimit:5;"><path style="fill:none;" d="M79.725 38 L79.725 37.5 L79.292 37.25"/><path style="fill:rgb(230,0,0); stroke:none;" d="M83.6625 67.4297 Q83.6625 69.4922 82.6234 70.6719 Q81.5844 71.8516 79.7406 71.8516 Q77.85 71.8516 76.8187 70.6875 Q75.7875 69.5234 75.7875 67.4141 Q75.7875 65.3203 76.8187 64.1719 Q77.85 63.0234 79.7406 63.0234 Q81.6 63.0234 82.6312 64.1953 Q83.6625 65.3672 83.6625 67.4297 ZM76.8344 67.4297 Q76.8344 69.1641 77.5766 70.0703 Q78.3187 70.9766 79.7406 70.9766 Q81.1625 70.9766 81.8891 70.0781 Q82.6156 69.1797 82.6156 67.4297 Q82.6156 65.6953 81.8891 64.8047 Q81.1625 63.9141 79.7406 63.9141 Q78.3187 63.9141 77.5766 64.8125 Q76.8344 65.7109 76.8344 67.4297 Z"/><path style="fill:rgb(230,0,0); stroke:none;" d="M91.1781 71.7266 L90.1781 71.7266 L90.1781 67.6953 L85.6625 67.6953 L85.6625 71.7266 L84.6625 71.7266 L84.6625 63.1641 L85.6625 63.1641 L85.6625 66.8047 L90.1781 66.8047 L90.1781 63.1641 L91.1781 63.1641 L91.1781 71.7266 Z"/><path style="fill:rgb(230,0,0); stroke:none;" d="M109.6425 22.4297 Q109.6425 24.4922 108.6034 25.6719 Q107.5644 26.8516 105.7206 26.8516 Q103.83 26.8516 102.7988 25.6875 Q101.7675 24.5234 101.7675 22.4141 Q101.7675 20.3203 102.7988 19.1719 Q103.83 18.0234 105.7206 18.0234 Q107.58 18.0234 108.6113 19.1953 Q109.6425 20.3672 109.6425 22.4297 ZM102.8144 22.4297 Q102.8144 24.1641 103.5566 25.0703 Q104.2988 25.9766 105.7206 25.9766 Q107.1425 25.9766 107.8691 25.0781 Q108.5956 24.1797 108.5956 22.4297 Q108.5956 20.6953 107.8691 19.8047 Q107.1425 18.9141 105.7206 18.9141 Q104.2988 18.9141 103.5566 19.8125 Q102.8144 20.7109 102.8144 22.4297 Z"/><path style="fill:none;" d="M1.349 -7.75 L1.782 -7.5 L2.215 -7.75"/><path style="fill:none;" d="M-23.765 -22.25 L-24.198 -22.5 L-24.198 -23"/><path style="fill:none;" d="M1.349 22.75 L1.782 22.5 L1.782 22"/><path style="fill:rgb(0,5,255); stroke:none;" d="M31.1136 -18.3438 L29.9729 -18.3438 L25.2854 -25.5312 L25.2386 -25.5312 Q25.3323 -24.2656 25.3323 -23.2188 L25.3323 -18.3438 L24.4104 -18.3438 L24.4104 -26.9062 L25.5354 -26.9062 L30.2073 -19.75 L30.2542 -19.75 Q30.2542 -19.9062 30.2073 -20.7656 Q30.1604 -21.625 30.1761 -22 L30.1761 -26.9062 L31.1136 -26.9062 L31.1136 -18.3438 Z"/><path style="fill:none;" d="M-50.181 -7 L-50.181 -7.5 L-50.614 -7.75"/><path style="fill:rgb(230,0,0); stroke:none;" d="M-20.2605 -52.5703 Q-20.2605 -50.5078 -21.2996 -49.3281 Q-22.3386 -48.1484 -24.1824 -48.1484 Q-26.073 -48.1484 -27.1042 -49.3125 Q-28.1355 -50.4766 -28.1355 -52.5859 Q-28.1355 -54.6797 -27.1042 -55.8281 Q-26.073 -56.9766 -24.1824 -56.9766 Q-22.323 -56.9766 -21.2917 -55.8047 Q-20.2605 -54.6328 -20.2605 -52.5703 ZM-27.0886 -52.5703 Q-27.0886 -50.8359 -26.3464 -49.9297 Q-25.6042 -49.0234 -24.1824 -49.0234 Q-22.7605 -49.0234 -22.0339 -49.9219 Q-21.3074 -50.8203 -21.3074 -52.5703 Q-21.3074 -54.3047 -22.0339 -55.1953 Q-22.7605 -56.0859 -24.1824 -56.0859 Q-25.6042 -56.0859 -26.3464 -55.1875 Q-27.0886 -54.2891 -27.0886 -52.5703 Z"/><path style="fill:none;" d="M27.329 37.25 L27.762 37.5 L28.195 37.25"/><path style="fill:none;" d="M-23.765 37.25 L-24.198 37.5 L-24.631 37.25"/><path style="fill:none;" d="M53.309 -7.75 L53.742 -7.5 L53.742 -7"/><path style="fill:none;" d="M27.762 -52 L27.762 -52.5 L27.329 -52.75"/></g><g transform="translate(109,73)" style="stroke-linecap:butt; font-size:8.4px; fill:gray; text-rendering:geometricPrecision; image-rendering:optimizeQuality; color-rendering:optimizeQuality; font-family:'Open Sans'; font-style:italic; stroke:gray; color-interpolation:linearRGB; stroke-miterlimit:5;"><path style="stroke:none;" d="M23.6535 -61.2969 Q23.6535 -62.625 24.1222 -63.75 Q24.591 -64.875 25.6222 -65.9531 L26.2316 -65.9531 Q25.2629 -64.8906 24.7785 -63.7188 Q24.2941 -62.5469 24.2941 -61.3125 Q24.2941 -59.9844 24.7316 -58.9688 L24.216 -58.9688 Q23.6535 -60 23.6535 -61.2969 ZM29.276 -61.8906 Q29.276 -61.0625 28.7292 -60.6094 Q28.1823 -60.1562 27.1823 -60.1562 Q26.776 -60.1562 26.4635 -60.2109 Q26.151 -60.2656 25.8698 -60.4062 L25.8698 -61.0625 Q26.4948 -60.7344 27.1979 -60.7344 Q27.8229 -60.7344 28.1979 -61.0312 Q28.5729 -61.3281 28.5729 -61.8438 Q28.5729 -62.1562 28.3698 -62.3828 Q28.1667 -62.6094 27.6042 -62.9375 Q27.0104 -63.2656 26.7839 -63.5938 Q26.5573 -63.9219 26.5573 -64.375 Q26.5573 -65.1094 27.0729 -65.5703 Q27.5885 -66.0312 28.4323 -66.0312 Q28.8073 -66.0312 29.1432 -65.9531 Q29.4792 -65.875 29.8542 -65.7031 L29.5885 -65.1094 Q29.3385 -65.2656 29.0182 -65.3516 Q28.6979 -65.4375 28.4323 -65.4375 Q27.901 -65.4375 27.5807 -65.1641 Q27.2604 -64.8906 27.2604 -64.4219 Q27.2604 -64.2188 27.3307 -64.0703 Q27.401 -63.9219 27.5417 -63.7891 Q27.6823 -63.6562 28.1042 -63.4062 Q28.6667 -63.0625 28.8698 -62.8672 Q29.0729 -62.6719 29.1745 -62.4375 Q29.276 -62.2031 29.276 -61.8906 ZM31.8705 -63.6094 Q31.8705 -62.2812 31.394 -61.1484 Q30.9174 -60.0156 29.9018 -58.9688 L29.2924 -58.9688 Q31.2299 -61.125 31.2299 -63.6094 Q31.2299 -64.9375 30.7924 -65.9531 L31.308 -65.9531 Q31.8705 -64.8906 31.8705 -63.6094 Z"/><path style="fill:none; stroke:black;" d="M-50.181 22 L-50.181 22.5 L-50.614 22.75"/><path style="fill:none; stroke:black;" d="M1.349 -67.25 L1.782 -67.5 L2.215 -67.25"/><path style="fill:none; stroke:black;" d="M53.742 22 L53.742 22.5 L54.175 22.75"/><path style="fill:none; stroke:black;" d="M-105.2126 -27.6212 L-105.705 -27.708 L-105.534 -27.2382"/><path style="fill:none; stroke:black;" d="M-95.1236 0.097 L-95.445 0.48 L-95.616 0.0102"/></g></g></svg></svg></svg></svg>