<svg width="290" viewBox="0 0 290 106" style="fill-opacity:1; color-rendering:auto; color-interpolation:auto; text-rendering:auto; stroke:black; stroke-linecap:square; stroke-miterlimit:10; shape-rendering:auto; stroke-opacity:1; fill:black; stroke-dasharray:none; font-weight:normal; stroke-width:1; font-family:'Open Sans'; font-style:normal; stroke-linejoin:miter; font-size:12; stroke-dashoffset:0; image-rendering:auto;" height="106" class="cas-substance-image" xmlns:xlink="http://www.w3.org/1999/xlink" xmlns="http://www.w3.org/2000/svg"><svg class="cas-substance-single-component"><rect y="0" x="0" width="290" stroke="none" ry="7" rx="7" height="106" fill="white" class="cas-substance-group"/><svg y="0" x="0" width="290" viewBox="0 0 290 106" style="fill:black;" height="106" class="cas-substance-single-component-image"><svg><g><clipPath id="clipPath_f999a7a448f04233845872cccca5b9561" clipPathUnits="userSpaceOnUse"><path d="M-69.723 -23.9665 L-109.5241 -19.9822 L-105.921 16.0105 L-66.1199 12.0262 L-68.4187 -10.937 L-97.533 5.9119 L-100.5383 0.7188 L-69.0746 -17.4897 L-69.723 -23.9665 Z"/></clipPath><g transform="translate(145,55)" style="text-rendering:geometricPrecision; color-rendering:optimizeQuality; color-interpolation:linearRGB; stroke-linecap:butt; image-rendering:optimizeQuality;"><line y2="-24.7676" y1="-36.528" x2="-120.3617" x1="-141.471" style="fill:none;"/><line y2="-12.357" y1="-0.583" x2="11.565" x1="-8.8275" style="fill:none;"/><path style="stroke:none;" d="M-39.448 -12.4807 L-40.0282 -11.4747 L-39.215 -10.8824 L-38.5286 -12.0726 L-39.448 -12.4807 ZM-36.6898 -11.2565 L-37.5887 -9.6978 L-36.7755 -9.1055 L-35.7704 -10.8485 L-36.6898 -11.2565 ZM-33.9316 -10.0324 L-35.1492 -7.921 L-34.3361 -7.3287 L-33.0122 -9.6244 L-33.9316 -10.0324 ZM-31.1734 -8.8083 L-32.7098 -6.1441 L-31.8966 -5.5518 L-30.254 -8.4002 L-31.1734 -8.8083 ZM-28.4152 -7.5841 L-30.2703 -4.3672 L-29.4571 -3.775 L-27.4958 -7.1761 L-28.4152 -7.5841 ZM-25.657 -6.36 L-27.8308 -2.5904 L-27.0177 -1.9981 L-27.0177 -1.9981 L-24.7376 -5.9519 L-25.657 -6.36 ZM-22.8988 -5.1358 L-25.3914 -0.8135 L-25.3914 -0.8135 L-24.5782 -0.2212 L-21.9794 -4.7278 L-22.8988 -5.1358 ZM-20.1406 -3.9117 L-22.9519 0.9634 L-22.1387 1.5556 L-19.2212 -3.5036 L-19.2212 -3.5036 L-20.1406 -3.9117 Z"/><line y2="2.643" y1="-12.357" x2="37.548" x1="11.565" style="fill:none;"/><line y2="-36.0054" y1="-11.3467" x2="13.315" x1="13.315" style="fill:none;"/><line y2="-36.0054" y1="-11.3466" x2="9.815" x1="9.815" style="fill:none;"/><line y2="-12.357" y1="2.643" x2="63.528" x1="37.548" style="fill:none;"/><path style="stroke:none;" d="M37.048 2.643 L38.048 2.643 L40.548 26.1664 L34.548 26.1664 Z"/><line y2="2.643" y1="-12.357" x2="89.508" x1="63.528" style="fill:none;"/><line y2="-21.1719" y1="-18.243" x2="-109.9312" x1="-89.25" style="fill:none;"/><line y2="-35.889" y1="-18.243" x2="-59.898" x1="-89.25" style="fill:none;"/><line y2="10.287" y1="-18.243" x2="-86.394" x1="-89.25" style="fill:none; clip-path:url(#clipPath_f999a7a448f04233845872cccca5b9561);"/><line y2="1.437" y1="-16.3694" x2="-95.79" x1="-110.631" style="fill:none;"/><line y2="-12.357" y1="-35.889" x2="-40.395" x1="-59.898" style="fill:none;"/><line y2="33.768" y1="10.287" x2="-99.225" x1="-86.394" style="fill:none;"/><line y2="33.768" y1="1.437" x2="-99.225" x1="-95.79" style="fill:none;"/><line y2="-16.506" y1="1.437" x2="-64.785" x1="-95.79" style="fill:none;"/><line y2="-16.506" y1="-12.357" x2="-64.785" x1="-40.395" style="fill:none;"/><line y2="32.643" y1="2.643" x2="89.508" x1="89.508" style="fill:none;"/><line y2="30.6223" y1="4.6637" x2="93.008" x1="93.008" style="fill:none;"/><line y2="-12.357" y1="2.643" x2="115.488" x1="89.508" style="fill:none;"/><line y2="47.643" y1="32.643" x2="115.488" x1="89.508" style="fill:none;"/><line y2="2.643" y1="-12.357" x2="141.471" x1="115.488" style="fill:none;"/><line y2="4.6639" y1="-8.3155" x2="137.9711" x1="115.4882" style="fill:none;"/><line y2="32.643" y1="47.643" x2="141.471" x1="115.488" style="fill:none;"/><line y2="30.6221" y1="43.6015" x2="137.9711" x1="115.4882" style="fill:none;"/><line y2="32.643" y1="2.643" x2="141.471" x1="141.471" style="fill:none;"/><path style="stroke:none;" d="M-90.9536 -41.2424 L-96.6509 -40.0818 L-96.6509 -40.0818 L-96.3489 -39.123 L-96.3489 -39.123 L-90.8577 -40.2415 L-90.8577 -40.2415 L-90.9536 -41.2424 ZM-90.666 -38.2397 L-95.7447 -37.2052 L-95.4427 -36.2463 L-95.4427 -36.2463 L-90.5701 -37.2389 L-90.5701 -37.2389 L-90.666 -38.2397 ZM-90.3784 -35.2371 L-94.8385 -34.3286 L-94.5365 -33.3697 L-94.5365 -33.3697 L-90.2825 -34.2362 L-90.2825 -34.2362 L-90.3784 -35.2371 ZM-90.0907 -32.2345 L-93.9324 -31.4519 L-93.6303 -30.493 L-89.9949 -31.2336 L-89.9949 -31.2336 L-90.0907 -32.2345 ZM-89.8031 -29.2318 L-93.0262 -28.5753 L-93.0262 -28.5753 L-92.7241 -27.6164 L-89.7072 -28.231 L-89.7072 -28.231 L-89.8031 -29.2318 ZM-89.5155 -26.2292 L-92.12 -25.6987 L-91.8179 -24.7398 L-91.8179 -24.7398 L-89.4196 -25.2283 L-89.5155 -26.2292 ZM-89.2279 -23.2266 L-91.2138 -22.822 L-91.2138 -22.822 L-90.9117 -21.8631 L-90.9117 -21.8631 L-89.132 -22.2257 L-89.132 -22.2257 L-89.2279 -23.2266 ZM-88.9402 -20.2239 L-90.3076 -19.9454 L-90.0056 -18.9865 L-88.8444 -19.2231 L-88.9402 -20.2239 Z"/><path style="stroke:none;" d="M-95.9351 0.9585 L-95.6449 1.9155 L-118.4575 11.448 L-120.1992 5.7064 Z"/></g><g transform="translate(145,55)" style="fill:rgb(230,0,0); text-rendering:geometricPrecision; color-rendering:optimizeQuality; image-rendering:optimizeQuality; font-family:'Open Sans'; stroke:rgb(230,0,0); color-interpolation:linearRGB;"><path style="stroke:none;" d="M-10.4775 2.5727 Q-10.4775 4.6352 -11.5166 5.8149 Q-12.5556 6.9946 -14.3994 6.9946 Q-16.29 6.9946 -17.3213 5.8305 Q-18.3525 4.6664 -18.3525 2.5571 Q-18.3525 0.4633 -17.3213 -0.6851 Q-16.29 -1.8336 -14.3994 -1.8336 Q-12.54 -1.8336 -11.5088 -0.6617 Q-10.4775 0.5102 -10.4775 2.5727 ZM-17.3056 2.5727 Q-17.3056 4.3071 -16.5634 5.2133 Q-15.8213 6.1196 -14.3994 6.1196 Q-12.9775 6.1196 -12.2509 5.2211 Q-11.5244 4.3227 -11.5244 2.5727 Q-11.5244 0.8383 -12.2509 -0.0523 Q-12.9775 -0.9429 -14.3994 -0.9429 Q-15.8213 -0.9429 -16.5634 -0.0445 Q-17.3056 0.8539 -17.3056 2.5727 Z"/></g><g transform="translate(145,55)" style="stroke-linecap:butt; text-rendering:geometricPrecision; color-rendering:optimizeQuality; image-rendering:optimizeQuality; font-family:'Open Sans'; color-interpolation:linearRGB; stroke-miterlimit:5;"><path style="fill:none;" d="M11.132 -12.107 L11.565 -12.357 L11.998 -12.107"/></g><g transform="translate(145,55)" style="stroke-linecap:butt; font-size:8.4px; fill:gray; text-rendering:geometricPrecision; image-rendering:optimizeQuality; color-rendering:optimizeQuality; font-family:'Open Sans'; font-style:italic; stroke:gray; color-interpolation:linearRGB; stroke-miterlimit:5;"><path style="stroke:none;" d="M33.1591 -6.1929 Q33.1591 -7.5211 33.6279 -8.6461 Q34.0966 -9.7711 35.1279 -10.8492 L35.7372 -10.8492 Q34.7685 -9.7867 34.2841 -8.6148 Q33.7997 -7.4429 33.7997 -6.2086 Q33.7997 -4.8804 34.2372 -3.8648 L33.7216 -3.8648 Q33.1591 -4.8961 33.1591 -6.1929 ZM36.7192 -7.5054 L36.2192 -5.1304 L35.5629 -5.1304 L36.766 -10.8492 L38.016 -10.8492 Q39.7504 -10.8492 39.7504 -9.4117 Q39.7504 -8.0523 38.3129 -7.6617 L39.2504 -5.1304 L38.5317 -5.1304 L37.7035 -7.5054 L36.7192 -7.5054 ZM37.2973 -10.2554 Q36.9067 -8.3336 36.8442 -8.0836 L37.5004 -8.0836 Q38.2504 -8.0836 38.6567 -8.4117 Q39.0629 -8.7398 39.0629 -9.3648 Q39.0629 -9.8336 38.8051 -10.0445 Q38.5473 -10.2554 37.9535 -10.2554 L37.2973 -10.2554 ZM41.9364 -8.5054 Q41.9364 -7.1773 41.4598 -6.0445 Q40.9833 -4.9117 39.9676 -3.8648 L39.3583 -3.8648 Q41.2958 -6.0211 41.2958 -8.5054 Q41.2958 -9.8336 40.8583 -10.8492 L41.3739 -10.8492 Q41.9364 -9.7867 41.9364 -8.5054 Z"/></g><g transform="translate(145,55)" style="stroke-linecap:butt; fill:rgb(230,0,0); text-rendering:geometricPrecision; color-rendering:optimizeQuality; image-rendering:optimizeQuality; font-family:'Open Sans'; stroke:rgb(230,0,0); color-interpolation:linearRGB; stroke-miterlimit:5;"><path style="stroke:none;" d="M15.5025 -42.4273 Q15.5025 -40.3648 14.4634 -39.1851 Q13.4244 -38.0054 11.5806 -38.0054 Q9.69 -38.0054 8.6588 -39.1695 Q7.6275 -40.3336 7.6275 -42.4429 Q7.6275 -44.5367 8.6588 -45.6851 Q9.69 -46.8336 11.5806 -46.8336 Q13.44 -46.8336 14.4713 -45.6617 Q15.5025 -44.4898 15.5025 -42.4273 ZM8.6744 -42.4273 Q8.6744 -40.6929 9.4166 -39.7867 Q10.1588 -38.8804 11.5806 -38.8804 Q13.0025 -38.8804 13.7291 -39.7789 Q14.4556 -40.6773 14.4556 -42.4273 Q14.4556 -44.1617 13.7291 -45.0523 Q13.0025 -45.9429 11.5806 -45.9429 Q10.1588 -45.9429 9.4166 -45.0445 Q8.6744 -44.1461 8.6744 -42.4273 Z"/><path style="fill:none; stroke:black;" d="M63.095 -12.107 L63.528 -12.357 L63.961 -12.107"/><path style="stroke:none;" d="M41.4855 32.5727 Q41.4855 34.6352 40.4464 35.8149 Q39.4074 36.9946 37.5636 36.9946 Q35.673 36.9946 34.6418 35.8305 Q33.6105 34.6664 33.6105 32.5571 Q33.6105 30.4633 34.6418 29.3149 Q35.673 28.1664 37.5636 28.1664 Q39.423 28.1664 40.4543 29.3383 Q41.4855 30.5102 41.4855 32.5727 ZM34.6574 32.5727 Q34.6574 34.3071 35.3996 35.2133 Q36.1418 36.1196 37.5636 36.1196 Q38.9855 36.1196 39.7121 35.2211 Q40.4386 34.3227 40.4386 32.5727 Q40.4386 30.8383 39.7121 29.9477 Q38.9855 29.0571 37.5636 29.0571 Q36.1418 29.0571 35.3996 29.9555 Q34.6574 30.8539 34.6574 32.5727 Z"/><path style="stroke:none;" d="M49.0011 36.8696 L48.0011 36.8696 L48.0011 32.8383 L43.4855 32.8383 L43.4855 36.8696 L42.4855 36.8696 L42.4855 28.3071 L43.4855 28.3071 L43.4855 31.9477 L48.0011 31.9477 L48.0011 28.3071 L49.0011 28.3071 L49.0011 36.8696 Z"/></g><g transform="translate(145,55)" style="stroke-linecap:butt; font-size:8.4px; fill:gray; text-rendering:geometricPrecision; image-rendering:optimizeQuality; color-rendering:optimizeQuality; font-family:'Open Sans'; font-style:italic; stroke:gray; color-interpolation:linearRGB; stroke-miterlimit:5;"><path style="stroke:none;" d="M-84.6998 -12.5959 Q-84.6998 -13.924 -84.2311 -15.049 Q-83.7623 -16.174 -82.7311 -17.2522 L-82.1217 -17.2522 Q-83.0905 -16.1897 -83.5748 -15.0178 Q-84.0592 -13.8459 -84.0592 -12.6115 Q-84.0592 -11.2834 -83.6217 -10.2678 L-84.1373 -10.2678 Q-84.6998 -11.299 -84.6998 -12.5959 ZM-81.1398 -13.9084 L-81.6398 -11.5334 L-82.296 -11.5334 L-81.0929 -17.2522 L-79.8429 -17.2522 Q-78.1085 -17.2522 -78.1085 -15.8147 Q-78.1085 -14.4553 -79.546 -14.0647 L-78.6085 -11.5334 L-79.3273 -11.5334 L-80.1554 -13.9084 L-81.1398 -13.9084 ZM-80.5616 -16.6584 Q-80.9523 -14.7365 -81.0148 -14.4865 L-80.3585 -14.4865 Q-79.6085 -14.4865 -79.2023 -14.8147 Q-78.796 -15.1428 -78.796 -15.7678 Q-78.796 -16.2365 -79.0538 -16.4475 Q-79.3116 -16.6584 -79.9054 -16.6584 L-80.5616 -16.6584 ZM-75.9225 -14.9084 Q-75.9225 -13.5803 -76.3991 -12.4475 Q-76.8757 -11.3147 -77.8913 -10.2678 L-78.5007 -10.2678 Q-76.5632 -12.424 -76.5632 -14.9084 Q-76.5632 -16.2365 -77.0007 -17.2522 L-76.485 -17.2522 Q-75.9225 -16.1897 -75.9225 -14.9084 Z"/></g><g transform="translate(145,55)" style="stroke-linecap:butt; fill:rgb(0,5,255); text-rendering:geometricPrecision; color-rendering:optimizeQuality; image-rendering:optimizeQuality; font-family:'Open Sans'; stroke:rgb(0,5,255); color-interpolation:linearRGB; stroke-miterlimit:5;"><path style="stroke:none;" d="M-111.9114 -17.7708 L-113.0521 -17.7708 L-117.7396 -24.9583 L-117.7864 -24.9583 Q-117.6927 -23.6926 -117.6927 -22.6458 L-117.6927 -17.7708 L-118.6146 -17.7708 L-118.6146 -26.3333 L-117.4896 -26.3333 L-112.8177 -19.177 L-112.7708 -19.177 Q-112.7708 -19.3333 -112.8177 -20.1926 Q-112.8646 -21.052 -112.8489 -21.427 L-112.8489 -26.3333 L-111.9114 -26.3333 L-111.9114 -17.7708 Z"/><path style="fill:none; stroke:black;" d="M-60.3265 -35.6314 L-59.898 -35.889 L-59.5789 -35.504"/><path style="fill:none; stroke:black;" d="M-86.4438 9.7895 L-86.394 10.287 L-86.6338 10.7258"/></g><g transform="translate(145,55)" style="stroke-linecap:butt; font-size:8.4px; fill:gray; text-rendering:geometricPrecision; image-rendering:optimizeQuality; color-rendering:optimizeQuality; font-family:'Open Sans'; font-style:italic; stroke:gray; color-interpolation:linearRGB; stroke-miterlimit:5;"><path style="stroke:none;" d="M-91.5121 8.087 Q-91.5121 6.7588 -91.0434 5.6338 Q-90.5746 4.5088 -89.5434 3.4307 L-88.934 3.4307 Q-89.9027 4.4932 -90.3871 5.6651 Q-90.8715 6.837 -90.8715 8.0713 Q-90.8715 9.3995 -90.434 10.4151 L-90.9496 10.4151 Q-91.5121 9.3838 -91.5121 8.087 ZM-85.8895 7.4932 Q-85.8895 8.3213 -86.4364 8.7745 Q-86.9833 9.2276 -87.9833 9.2276 Q-88.3895 9.2276 -88.702 9.1729 Q-89.0145 9.1182 -89.2958 8.9776 L-89.2958 8.3213 Q-88.6708 8.6495 -87.9677 8.6495 Q-87.3427 8.6495 -86.9677 8.3526 Q-86.5927 8.0557 -86.5927 7.5401 Q-86.5927 7.2276 -86.7958 7.001 Q-86.9989 6.7745 -87.5614 6.4463 Q-88.1552 6.1182 -88.3817 5.7901 Q-88.6083 5.462 -88.6083 5.0088 Q-88.6083 4.2745 -88.0927 3.8135 Q-87.577 3.3526 -86.7333 3.3526 Q-86.3583 3.3526 -86.0224 3.4307 Q-85.6864 3.5088 -85.3114 3.6807 L-85.577 4.2745 Q-85.827 4.1182 -86.1474 4.0323 Q-86.4677 3.9463 -86.7333 3.9463 Q-87.2645 3.9463 -87.5849 4.2198 Q-87.9052 4.4932 -87.9052 4.962 Q-87.9052 5.1651 -87.8349 5.3135 Q-87.7645 5.462 -87.6239 5.5948 Q-87.4833 5.7276 -87.0614 5.9776 Q-86.4989 6.3213 -86.2958 6.5166 Q-86.0927 6.712 -85.9911 6.9463 Q-85.8895 7.1807 -85.8895 7.4932 ZM-83.2951 5.7745 Q-83.2951 7.1026 -83.7716 8.2354 Q-84.2482 9.3682 -85.2638 10.4151 L-85.8732 10.4151 Q-83.9357 8.2588 -83.9357 5.7745 Q-83.9357 4.4463 -84.3732 3.4307 L-83.8576 3.4307 Q-83.2951 4.4932 -83.2951 5.7745 Z"/><path style="fill:none; stroke:black;" d="M-40.7141 -12.742 L-40.395 -12.357 L-40.8879 -12.4409"/><path style="fill:none; stroke:black;" d="M-98.9852 33.3292 L-99.225 33.768 L-99.1722 33.2708"/><path style="fill:none; stroke:black;" d="M-65.2178 -16.2556 L-64.785 -16.506 L-64.2921 -16.4221"/><path style="fill:none; stroke:black;" d="M89.508 3.143 L89.508 2.643 L89.075 2.393"/><path style="fill:none; stroke:black;" d="M89.508 32.143 L89.508 32.643 L89.941 32.893"/><path style="fill:none; stroke:black;" d="M115.055 -12.107 L115.488 -12.357 L115.921 -12.107"/><path style="fill:none; stroke:black;" d="M115.055 47.393 L115.488 47.643 L115.921 47.393"/><path style="fill:none; stroke:black;" d="M141.038 2.393 L141.471 2.643 L141.471 3.143"/><path style="fill:none; stroke:black;" d="M141.038 32.893 L141.471 32.643 L141.471 32.143"/></g><g transform="translate(145,55)" style="stroke-linecap:butt; text-rendering:geometricPrecision; color-rendering:optimizeQuality; image-rendering:optimizeQuality; font-family:'Open Sans'; color-interpolation:linearRGB; stroke-miterlimit:5;"><path style="stroke:none;" d="M-91.9622 -43.4867 L-92.9622 -43.4867 L-92.9622 -47.518 L-97.4778 -47.518 L-97.4778 -43.4867 L-98.4778 -43.4867 L-98.4778 -52.0492 L-97.4778 -52.0492 L-97.4778 -48.4086 L-92.9622 -48.4086 L-92.9622 -52.0492 L-91.9622 -52.0492 L-91.9622 -43.4867 Z"/><path style="stroke:none;" d="M-121.2422 14.3022 L-122.2422 14.3022 L-122.2422 10.271 L-126.7578 10.271 L-126.7578 14.3022 L-127.7578 14.3022 L-127.7578 5.7397 L-126.7578 5.7397 L-126.7578 9.3804 L-122.2422 9.3804 L-122.2422 5.7397 L-121.2422 5.7397 L-121.2422 14.3022 Z"/></g></g></svg></svg></svg></svg>