<svg xmlns:ns0="http://www.w3.org/2000/svg" xmlns="http://www.w3.org/2000/svg"><g transform="translate(0, 0)"><ns0:svg width="100" viewBox="0 0 100 43" style="fill-opacity:1; color-rendering:auto; color-interpolation:auto; text-rendering:auto; stroke:black; stroke-linecap:square; stroke-miterlimit:10; shape-rendering:auto; stroke-opacity:1; fill:black; stroke-dasharray:none; font-weight:normal; stroke-width:1; font-family:'Open Sans'; font-style:normal; stroke-linejoin:miter; font-size:12; stroke-dashoffset:0; image-rendering:auto;" height="43" class="cas-substance-image"><ns0:svg class="cas-substance-single-component"><ns0:rect y="0" x="0" width="100" stroke="none" ry="7" rx="7" height="43" fill="white" class="cas-substance-group" /><ns0:svg y="0" x="9" width="81" viewBox="0 0 81 27" style="fill:black;" height="27" class="cas-substance-single-component-image"><ns0:svg><ns0:g><ns0:g transform="translate(37,20)" style="text-rendering:geometricPrecision; color-rendering:optimizeQuality; color-interpolation:linearRGB; stroke-linecap:butt; image-rendering:optimizeQuality;"><ns0:line y2="-1.75" y1="-1.75" x2="-24.0625" x1="-4.7188" style="fill:none;" /><ns0:line y2="1.75" y1="1.75" x2="-24.0625" x1="-4.7188" style="fill:none;" /><ns0:line y2="0" y1="0" x2="24.0625" x1="4.1513" style="fill:none;" /></ns0:g><ns0:g transform="translate(37,20)" style="fill:rgb(111,5,255); text-rendering:geometricPrecision; color-rendering:optimizeQuality; image-rendering:optimizeQuality; font-family:'Open Sans'; stroke:rgb(111,5,255); color-interpolation:linearRGB;"><ns0:path style="stroke:none;" d="M2.7188 -1.9219 Q2.7188 -0.6094 1.8281 0.0859 Q0.9375 0.7812 -0.7031 0.7812 L-1.7188 0.7812 L-1.7188 4.1562 L-2.7188 4.1562 L-2.7188 -4.4062 L-0.4844 -4.4062 Q2.7188 -4.4062 2.7188 -1.9219 ZM-1.7188 -0.0625 L-0.8125 -0.0625 Q0.5 -0.0625 1.0938 -0.4922 Q1.6875 -0.9219 1.6875 -1.875 Q1.6875 -2.7188 1.1328 -3.1328 Q0.5781 -3.5469 -0.6094 -3.5469 L-1.7188 -3.5469 L-1.7188 -0.0625 Z" /><ns0:path style="stroke:none;" d="M3.7969 -7.975 L2.7969 -7.975 L2.7969 -12.0063 L-1.7188 -12.0063 L-1.7188 -7.975 L-2.7188 -7.975 L-2.7188 -16.5375 L-1.7188 -16.5375 L-1.7188 -12.8969 L2.7969 -12.8969 L2.7969 -16.5375 L3.7969 -16.5375 L3.7969 -7.975 Z" /><ns0:path style="stroke:none;" d="M8.5469 -6.1656 L4.7969 -6.1656 L4.7969 -6.7281 L6.2969 -8.2438 Q6.9844 -8.9313 7.2031 -9.2281 Q7.4219 -9.525 7.5312 -9.8063 Q7.6406 -10.0875 7.6406 -10.4156 Q7.6406 -10.8688 7.3672 -11.1344 Q7.0938 -11.4 6.5938 -11.4 Q6.25 -11.4 5.9297 -11.2828 Q5.6094 -11.1656 5.2188 -10.8688 L4.875 -11.3063 Q5.6562 -11.9625 6.5938 -11.9625 Q7.3906 -11.9625 7.8516 -11.5484 Q8.3125 -11.1344 8.3125 -10.4469 Q8.3125 -9.9 8.0078 -9.3688 Q7.7031 -8.8375 6.8594 -8.025 L5.6094 -6.8063 L5.6094 -6.775 L8.5469 -6.775 L8.5469 -6.1656 Z" /><ns0:path style="fill:rgb(230,0,0); stroke:none;" d="M-26.0625 -0.0703 Q-26.0625 1.9922 -27.1016 3.1719 Q-28.1406 4.3516 -29.9844 4.3516 Q-31.875 4.3516 -32.9062 3.1875 Q-33.9375 2.0234 -33.9375 -0.0859 Q-33.9375 -2.1797 -32.9062 -3.3281 Q-31.875 -4.4766 -29.9844 -4.4766 Q-28.125 -4.4766 -27.0938 -3.3047 Q-26.0625 -2.1328 -26.0625 -0.0703 ZM-32.8906 -0.0703 Q-32.8906 1.6641 -32.1484 2.5703 Q-31.4062 3.4766 -29.9844 3.4766 Q-28.5625 3.4766 -27.8359 2.5781 Q-27.1094 1.6797 -27.1094 -0.0703 Q-27.1094 -1.8047 -27.8359 -2.6953 Q-28.5625 -3.5859 -29.9844 -3.5859 Q-31.4062 -3.5859 -32.1484 -2.6875 Q-32.8906 -1.7891 -32.8906 -0.0703 Z" /><ns0:path style="fill:rgb(230,0,0); stroke:none;" d="M33.9375 -0.0703 Q33.9375 1.9922 32.8984 3.1719 Q31.8594 4.3516 30.0156 4.3516 Q28.125 4.3516 27.0938 3.1875 Q26.0625 2.0234 26.0625 -0.0859 Q26.0625 -2.1797 27.0938 -3.3281 Q28.125 -4.4766 30.0156 -4.4766 Q31.875 -4.4766 32.9062 -3.3047 Q33.9375 -2.1328 33.9375 -0.0703 ZM27.1094 -0.0703 Q27.1094 1.6641 27.8516 2.5703 Q28.5938 3.4766 30.0156 3.4766 Q31.4375 3.4766 32.1641 2.5781 Q32.8906 1.6797 32.8906 -0.0703 Q32.8906 -1.8047 32.1641 -2.6953 Q31.4375 -3.5859 30.0156 -3.5859 Q28.5938 -3.5859 27.8516 -2.6875 Q27.1094 -1.7891 27.1094 -0.0703 Z" /><ns0:path style="fill:rgb(230,0,0); stroke:none;" d="M41.4531 4.2266 L40.4531 4.2266 L40.4531 0.1953 L35.9375 0.1953 L35.9375 4.2266 L34.9375 4.2266 L34.9375 -4.3359 L35.9375 -4.3359 L35.9375 -0.6953 L40.4531 -0.6953 L40.4531 -4.3359 L41.4531 -4.3359 L41.4531 4.2266 Z" /></ns0:g></ns0:g></ns0:svg></ns0:svg><ns0:svg y="27" x="17" class="cas-substance-saf"><ns0:svg y="6" x="0" width="4" style="fill:black;" height="4" class="cas-substance-saf-dot"><ns0:circle stroke="none" r="2" fill="black" cy="2" cx="2" /></ns0:svg><ns0:svg y="1" x="7" width="22" style="fill:black;" height="15" class="cas-substance-saf-coefficient"><ns0:svg><ns0:g><ns0:g transform="translate(11,7)" style="text-rendering:geometricPrecision; font-family:'Open Sans'; color-interpolation:linearRGB; color-rendering:optimizeQuality; image-rendering:optimizeQuality;"><ns0:path style="stroke:none;" d="M-5.1104 4.2188 L-6.0635 4.2188 L-6.0635 -1.8906 Q-6.0635 -2.6562 -6.0166 -3.3281 Q-6.126 -3.2031 -6.2822 -3.0703 Q-6.4385 -2.9375 -7.6729 -1.9219 L-8.1885 -2.5938 L-5.9229 -4.3438 L-5.1104 -4.3438 L-5.1104 4.2188 ZM1.8447 -4.3438 L-1.3428 4.2188 L-2.3115 4.2188 L0.876 -4.3438 L1.8447 -4.3438 ZM8.1885 4.2188 L2.5635 4.2188 L2.5635 3.375 L4.8135 1.1094 Q5.8447 0.0625 6.1729 -0.3828 Q6.501 -0.8281 6.665 -1.25 Q6.8291 -1.6719 6.8291 -2.1562 Q6.8291 -2.8438 6.415 -3.2422 Q6.001 -3.6406 5.251 -3.6406 Q4.7197 -3.6406 4.2432 -3.4609 Q3.7666 -3.2812 3.1885 -2.8281 L2.6729 -3.4844 Q3.8447 -4.4688 5.251 -4.4688 Q6.4541 -4.4688 7.1416 -3.8516 Q7.8291 -3.2344 7.8291 -2.1875 Q7.8291 -1.375 7.3682 -0.5781 Q6.9072 0.2188 5.6572 1.4375 L3.7822 3.2656 L3.7822 3.3125 L8.1885 3.3125 L8.1885 4.2188 Z" /></ns0:g></ns0:g></ns0:svg></ns0:svg><ns0:svg y="0" x="33" width="33" style="fill:black;" height="16" class="cas-substance-saf-image"><ns0:svg><ns0:g><ns0:g transform="translate(11,7)" style="text-rendering:geometricPrecision; font-family:'Open Sans'; color-interpolation:linearRGB; color-rendering:optimizeQuality; image-rendering:optimizeQuality;"><ns0:path style="stroke:none;" d="M-4.2373 4.1562 L-7.1436 -3.4375 L-7.1904 -3.4375 Q-7.1123 -2.5312 -7.1123 -1.2969 L-7.1123 4.1562 L-8.0342 4.1562 L-8.0342 -4.4062 L-6.5342 -4.4062 L-3.8154 2.6562 L-3.7686 2.6562 L-1.0342 -4.4062 L0.4502 -4.4062 L0.4502 4.1562 L-0.5342 4.1562 L-0.5342 -1.3594 Q-0.5342 -2.3125 -0.4561 -3.4219 L-0.5029 -3.4219 L-3.4404 4.1562 L-4.2373 4.1562 ZM7.0498 4.1562 L7.0498 0 Q7.0498 -0.7812 6.6982 -1.1719 Q6.3467 -1.5625 5.5811 -1.5625 Q4.5654 -1.5625 4.0967 -1.0156 Q3.6279 -0.4688 3.6279 0.7812 L3.6279 4.1562 L2.6592 4.1562 L2.6592 -2.2656 L3.4561 -2.2656 L3.6123 -1.3906 L3.6592 -1.3906 Q3.9561 -1.8594 4.4951 -2.125 Q5.0342 -2.3906 5.6904 -2.3906 Q6.8623 -2.3906 7.4482 -1.8281 Q8.0342 -1.2656 8.0342 -0.0312 L8.0342 4.1562 L7.0498 4.1562 Z" /><ns0:path style="stroke:none;" d="M9.0342 0.875 Q9.0342 -0.6875 9.4873 -2.0391 Q9.9404 -3.3906 10.7998 -4.4062 L11.7373 -4.4062 Q10.8936 -3.2812 10.4717 -1.9297 Q10.0498 -0.5781 10.0498 0.8594 Q10.0498 2.2656 10.4873 3.6094 Q10.9248 4.9531 11.7373 6.0625 L10.7998 6.0625 Q9.9404 5.0625 9.4873 3.7266 Q9.0342 2.3906 9.0342 0.875 Z" /><ns0:path style="stroke:none;" d="M12.7373 4.1562 L12.7373 -4.4062 L13.7373 -4.4062 L13.7373 4.1562 L12.7373 4.1562 Z" /><ns0:path style="stroke:none;" d="M14.7373 4.1562 L14.7373 -4.4062 L15.7373 -4.4062 L15.7373 4.1562 L14.7373 4.1562 Z" /><ns0:path style="stroke:none;" d="M19.4561 0.875 Q19.4561 2.4062 18.9951 3.7422 Q18.5342 5.0781 17.6904 6.0625 L16.7529 6.0625 Q17.5654 4.9531 17.9951 3.6094 Q18.4248 2.2656 18.4248 0.8594 Q18.4248 -0.5781 18.0029 -1.9297 Q17.5811 -3.2812 16.7373 -4.4062 L17.6904 -4.4062 Q18.5498 -3.3906 19.0029 -2.0312 Q19.4561 -0.6719 19.4561 0.875 Z" /></ns0:g></ns0:g></ns0:svg></ns0:svg></ns0:svg></ns0:svg></ns0:svg></g></svg>