<svg width="100" viewBox="0 0 100 75" style="fill-opacity:1; color-rendering:auto; color-interpolation:auto; text-rendering:auto; stroke:black; stroke-linecap:square; stroke-miterlimit:10; shape-rendering:auto; stroke-opacity:1; fill:black; stroke-dasharray:none; font-weight:normal; stroke-width:1; font-family:'Open Sans'; font-style:normal; stroke-linejoin:miter; font-size:12; stroke-dashoffset:0; image-rendering:auto;" height="75" class="cas-substance-image" xmlns:xlink="http://www.w3.org/1999/xlink" xmlns="http://www.w3.org/2000/svg"><svg class="cas-substance-single-component"><rect y="0" x="0" width="100" stroke="none" ry="7" rx="7" height="75" fill="white" class="cas-substance-group"/><svg y="0" x="17" width="66" viewBox="0 0 66 60" style="fill:black;" height="60" class="cas-substance-single-component-image"><svg><g><g transform="translate(33,30)" style="text-rendering:geometricPrecision; color-rendering:optimizeQuality; color-interpolation:linearRGB; stroke-linecap:butt; image-rendering:optimizeQuality;"><line y2="-20.8369" y1="-11.9506" x2="-19.5996" x1="-4.2086" style="fill:none;"/><line y2="-17.8059" y1="-8.9196" x2="-21.3497" x1="-5.9586" style="fill:none;"/><line y2="-17.7956" y1="-8.9196" x2="21.332" x1="5.9586" style="fill:none;"/><line y2="-20.8267" y1="-11.9506" x2="19.5819" x1="4.2086" style="fill:none;"/><line y2="16.0234" y1="-1.3438" x2="0" x1="0" style="fill:none;"/></g><g transform="translate(33,30)" style="fill:rgb(0,5,255); text-rendering:geometricPrecision; color-rendering:optimizeQuality; image-rendering:optimizeQuality; font-family:'Open Sans'; stroke:rgb(0,5,255); color-interpolation:linearRGB;"><path style="stroke:none;" d="M3.3516 -3.3438 L2.2109 -3.3438 L-2.4766 -10.5312 L-2.5234 -10.5312 Q-2.4297 -9.2656 -2.4297 -8.2188 L-2.4297 -3.3438 L-3.3516 -3.3438 L-3.3516 -11.9062 L-2.2266 -11.9062 L2.4453 -4.75 L2.4922 -4.75 Q2.4922 -4.9062 2.4453 -5.7656 Q2.3984 -6.625 2.4141 -7 L2.4141 -11.9062 L3.3516 -11.9062 L3.3516 -3.3438 Z"/><path style="fill:rgb(230,0,0); stroke:none;" d="M-22.0425 -22.5703 Q-22.0425 -20.5078 -23.0816 -19.3281 Q-24.1206 -18.1484 -25.9644 -18.1484 Q-27.855 -18.1484 -28.8862 -19.3125 Q-29.9175 -20.4766 -29.9175 -22.5859 Q-29.9175 -24.6797 -28.8862 -25.8281 Q-27.855 -26.9766 -25.9644 -26.9766 Q-24.105 -26.9766 -23.0737 -25.8047 Q-22.0425 -24.6328 -22.0425 -22.5703 ZM-28.8706 -22.5703 Q-28.8706 -20.8359 -28.1284 -19.9297 Q-27.3862 -19.0234 -25.9644 -19.0234 Q-24.5425 -19.0234 -23.8159 -19.9219 Q-23.0894 -20.8203 -23.0894 -22.5703 Q-23.0894 -24.3047 -23.8159 -25.1953 Q-24.5425 -26.0859 -25.9644 -26.0859 Q-27.3862 -26.0859 -28.1284 -25.1875 Q-28.8706 -24.2891 -28.8706 -22.5703 Z"/><path style="fill:rgb(230,0,0); stroke:none;" d="M29.9175 -22.5703 Q29.9175 -20.5078 28.8784 -19.3281 Q27.8394 -18.1484 25.9956 -18.1484 Q24.105 -18.1484 23.0737 -19.3125 Q22.0425 -20.4766 22.0425 -22.5859 Q22.0425 -24.6797 23.0737 -25.8281 Q24.105 -26.9766 25.9956 -26.9766 Q27.855 -26.9766 28.8862 -25.8047 Q29.9175 -24.6328 29.9175 -22.5703 ZM23.0894 -22.5703 Q23.0894 -20.8359 23.8316 -19.9297 Q24.5737 -19.0234 25.9956 -19.0234 Q27.4175 -19.0234 28.1441 -19.9219 Q28.8706 -20.8203 28.8706 -22.5703 Q28.8706 -24.3047 28.1441 -25.1953 Q27.4175 -26.0859 25.9956 -26.0859 Q24.5737 -26.0859 23.8316 -25.1875 Q23.0894 -24.2891 23.0894 -22.5703 Z"/><path style="fill:rgb(230,0,0); stroke:none;" d="M3.9375 22.4297 Q3.9375 24.4922 2.8984 25.6719 Q1.8594 26.8516 0.0156 26.8516 Q-1.875 26.8516 -2.9062 25.6875 Q-3.9375 24.5234 -3.9375 22.4141 Q-3.9375 20.3203 -2.9062 19.1719 Q-1.875 18.0234 0.0156 18.0234 Q1.875 18.0234 2.9062 19.1953 Q3.9375 20.3672 3.9375 22.4297 ZM-2.8906 22.4297 Q-2.8906 24.1641 -2.1484 25.0703 Q-1.4062 25.9766 0.0156 25.9766 Q1.4375 25.9766 2.1641 25.0781 Q2.8906 24.1797 2.8906 22.4297 Q2.8906 20.6953 2.1641 19.8047 Q1.4375 18.9141 0.0156 18.9141 Q-1.4062 18.9141 -2.1484 19.8125 Q-2.8906 20.7109 -2.8906 22.4297 Z"/><path style="fill:rgb(230,0,0); stroke:none;" d="M11.4531 26.7266 L10.4531 26.7266 L10.4531 22.6953 L5.9375 22.6953 L5.9375 26.7266 L4.9375 26.7266 L4.9375 18.1641 L5.9375 18.1641 L5.9375 21.8047 L10.4531 21.8047 L10.4531 18.1641 L11.4531 18.1641 L11.4531 26.7266 Z"/></g></g></svg></svg><svg y="60" x="17" class="cas-substance-saf"><svg y="5" x="0" width="4" style="fill:black;" height="4" class="cas-substance-saf-dot"><circle stroke="none" r="2" fill="black" cy="2" cx="2"/></svg><svg y="0" x="7" width="22" style="fill:black;" height="15" class="cas-substance-saf-coefficient"><svg><g><g transform="translate(11,7)" style="text-rendering:geometricPrecision; font-family:'Open Sans'; color-interpolation:linearRGB; color-rendering:optimizeQuality; image-rendering:optimizeQuality;"><path style="stroke:none;" d="M-5.0791 4.2188 L-6.0322 4.2188 L-6.0322 -1.8906 Q-6.0322 -2.6562 -5.9854 -3.3281 Q-6.0947 -3.2031 -6.251 -3.0703 Q-6.4072 -2.9375 -7.6416 -1.9219 L-8.1572 -2.5938 L-5.8916 -4.3438 L-5.0791 -4.3438 L-5.0791 4.2188 ZM1.876 -4.3438 L-1.3115 4.2188 L-2.2803 4.2188 L0.9072 -4.3438 L1.876 -4.3438 ZM7.8916 -2.3281 Q7.8916 -1.5156 7.4307 -0.9922 Q6.9697 -0.4688 6.126 -0.2969 L6.126 -0.25 Q7.1572 -0.125 7.6572 0.4062 Q8.1572 0.9375 8.1572 1.7969 Q8.1572 3.0156 7.3057 3.6797 Q6.4541 4.3438 4.8916 4.3438 Q4.2197 4.3438 3.6494 4.2344 Q3.0791 4.125 2.5479 3.875 L2.5479 2.9531 Q3.1104 3.2188 3.7432 3.3672 Q4.376 3.5156 4.9385 3.5156 Q7.1572 3.5156 7.1572 1.7656 Q7.1572 0.2031 4.7041 0.2031 L3.8604 0.2031 L3.8604 -0.625 L4.7197 -0.625 Q5.7197 -0.625 6.3057 -1.0703 Q6.8916 -1.5156 6.8916 -2.2969 Q6.8916 -2.9219 6.4619 -3.2812 Q6.0322 -3.6406 5.2822 -3.6406 Q4.7197 -3.6406 4.2275 -3.4844 Q3.7354 -3.3281 3.0947 -2.9219 L2.5947 -3.5781 Q3.126 -4 3.8135 -4.2344 Q4.501 -4.4688 5.2666 -4.4688 Q6.5166 -4.4688 7.2041 -3.8984 Q7.8916 -3.3281 7.8916 -2.3281 Z"/></g></g></svg></svg><svg y="0" x="33" width="16" style="fill:black;" height="15" class="cas-substance-saf-image"><svg><g><g transform="translate(8,8)" style="text-rendering:geometricPrecision; font-family:'Open Sans'; color-interpolation:linearRGB; color-rendering:optimizeQuality; image-rendering:optimizeQuality;"><path style="stroke:none;" d="M1.7656 4.4375 L0.7031 1.7188 L-2.7344 1.7188 L-3.7812 4.4375 L-4.7969 4.4375 L-1.4062 -4.1719 L-0.5781 -4.1719 L2.7969 4.4375 L1.7656 4.4375 ZM0.3906 0.8125 L-0.6094 -1.8438 Q-0.7969 -2.3438 -1 -3.0781 Q-1.1406 -2.5156 -1.375 -1.8438 L-2.375 0.8125 L0.3906 0.8125 ZM4.7969 4.4375 L3.8281 4.4375 L3.8281 -4.6875 L4.7969 -4.6875 L4.7969 4.4375 Z"/></g></g></svg></svg></svg></svg></svg>