<svg xmlns:ns0="http://www.w3.org/2000/svg" xmlns="http://www.w3.org/2000/svg"><g transform="translate(0, 0)"><ns0:svg width="156" viewBox="0 0 156 115" style="fill-opacity:1; color-rendering:auto; color-interpolation:auto; text-rendering:auto; stroke:black; stroke-linecap:square; stroke-miterlimit:10; shape-rendering:auto; stroke-opacity:1; fill:black; stroke-dasharray:none; font-weight:normal; stroke-width:1; font-family:'Open Sans'; font-style:normal; stroke-linejoin:miter; font-size:12; stroke-dashoffset:0; image-rendering:auto;" height="115" class="cas-substance-image"><ns0:svg class="cas-substance-single-component"><ns0:rect y="0" x="0" width="156" stroke="none" ry="7" rx="7" height="115" fill="white" class="cas-substance-group" /><ns0:svg y="0" x="0" width="156" viewBox="0 0 156 115" style="fill:black;" height="115" class="cas-substance-single-component-image"><ns0:svg><ns0:g><ns0:g transform="translate(78,60)" style="text-rendering:geometricPrecision; color-rendering:optimizeQuality; color-interpolation:linearRGB; stroke-linecap:butt; image-rendering:optimizeQuality;"><ns0:line y2="-22.5" y1="-22.5" x2="24.0625" x1="3.9863" style="fill:none;" /><ns0:line y2="-22.5" y1="-22.5" x2="-24.0625" x1="-3.9863" style="fill:none;" /><ns0:line y2="1.0234" y1="-16.3438" x2="0" x1="0" style="fill:none;" /><ns0:line y2="-46.1484" y1="-28.9062" x2="1.75" x1="1.75" style="fill:none;" /><ns0:line y2="-46.1484" y1="-28.9062" x2="-1.75" x1="-1.75" style="fill:none;" /><ns0:line y2="-48.48" y1="-28.2217" x2="45" x1="33.3035" style="fill:none;" /><ns0:line y2="-48.48" y1="-28.2276" x2="-45" x1="-33.3069" style="fill:none;" /><ns0:line y2="22.5" y1="10.6888" x2="-25.98" x1="-5.523" style="fill:none;" /><ns0:line y2="-48.48" y1="-48.48" x2="75" x1="45" style="fill:none;" /><ns0:line y2="-48.48" y1="-48.48" x2="-75" x1="-45" style="fill:none;" /><ns0:line y2="52.5" y1="22.5" x2="-25.98" x1="-25.98" style="fill:none;" /><ns0:path style="stroke-linecap:square; stroke:none;" d="M2.5078 -26.9062 L3.5703 -26.9062 L0.4922 -18.3438 L-0.4922 -18.3438 L-3.5703 -26.9062 L-2.5078 -26.9062 L-0.5391 -21.375 Q-0.2109 -20.4062 -0.0078 -19.5156 Q0.2109 -20.4531 0.5391 -21.4062 L2.5078 -26.9062 Z" /></ns0:g><ns0:g transform="translate(78,60)" style="fill:rgb(230,0,0); text-rendering:geometricPrecision; color-rendering:optimizeQuality; image-rendering:optimizeQuality; font-family:'Open Sans'; stroke:rgb(230,0,0); color-interpolation:linearRGB;"><ns0:path style="stroke:none;" d="M33.9375 -22.5703 Q33.9375 -20.5078 32.8984 -19.3281 Q31.8594 -18.1484 30.0156 -18.1484 Q28.125 -18.1484 27.0938 -19.3125 Q26.0625 -20.4766 26.0625 -22.5859 Q26.0625 -24.6797 27.0938 -25.8281 Q28.125 -26.9766 30.0156 -26.9766 Q31.875 -26.9766 32.9062 -25.8047 Q33.9375 -24.6328 33.9375 -22.5703 ZM27.1094 -22.5703 Q27.1094 -20.8359 27.8516 -19.9297 Q28.5938 -19.0234 30.0156 -19.0234 Q31.4375 -19.0234 32.1641 -19.9219 Q32.8906 -20.8203 32.8906 -22.5703 Q32.8906 -24.3047 32.1641 -25.1953 Q31.4375 -26.0859 30.0156 -26.0859 Q28.5938 -26.0859 27.8516 -25.1875 Q27.1094 -24.2891 27.1094 -22.5703 Z" /><ns0:path style="stroke:none;" d="M-26.0625 -22.5703 Q-26.0625 -20.5078 -27.1016 -19.3281 Q-28.1406 -18.1484 -29.9844 -18.1484 Q-31.875 -18.1484 -32.9062 -19.3125 Q-33.9375 -20.4766 -33.9375 -22.5859 Q-33.9375 -24.6797 -32.9062 -25.8281 Q-31.875 -26.9766 -29.9844 -26.9766 Q-28.125 -26.9766 -27.0938 -25.8047 Q-26.0625 -24.6328 -26.0625 -22.5703 ZM-32.8906 -22.5703 Q-32.8906 -20.8359 -32.1484 -19.9297 Q-31.4062 -19.0234 -29.9844 -19.0234 Q-28.5625 -19.0234 -27.8359 -19.9219 Q-27.1094 -20.8203 -27.1094 -22.5703 Q-27.1094 -24.3047 -27.8359 -25.1953 Q-28.5625 -26.0859 -29.9844 -26.0859 Q-31.4062 -26.0859 -32.1484 -25.1875 Q-32.8906 -24.2891 -32.8906 -22.5703 Z" /><ns0:path style="stroke:none;" d="M3.9375 7.4297 Q3.9375 9.4922 2.8984 10.6719 Q1.8594 11.8516 0.0156 11.8516 Q-1.875 11.8516 -2.9062 10.6875 Q-3.9375 9.5234 -3.9375 7.4141 Q-3.9375 5.3203 -2.9062 4.1719 Q-1.875 3.0234 0.0156 3.0234 Q1.875 3.0234 2.9062 4.1953 Q3.9375 5.3672 3.9375 7.4297 ZM-2.8906 7.4297 Q-2.8906 9.1641 -2.1484 10.0703 Q-1.4062 10.9766 0.0156 10.9766 Q1.4375 10.9766 2.1641 10.0781 Q2.8906 9.1797 2.8906 7.4297 Q2.8906 5.6953 2.1641 4.8047 Q1.4375 3.9141 0.0156 3.9141 Q-1.4062 3.9141 -2.1484 4.8125 Q-2.8906 5.7109 -2.8906 7.4297 Z" /><ns0:path style="stroke:none;" d="M3.9375 -52.5703 Q3.9375 -50.5078 2.8984 -49.3281 Q1.8594 -48.1484 0.0156 -48.1484 Q-1.875 -48.1484 -2.9062 -49.3125 Q-3.9375 -50.4766 -3.9375 -52.5859 Q-3.9375 -54.6797 -2.9062 -55.8281 Q-1.875 -56.9766 0.0156 -56.9766 Q1.875 -56.9766 2.9062 -55.8047 Q3.9375 -54.6328 3.9375 -52.5703 ZM-2.8906 -52.5703 Q-2.8906 -50.8359 -2.1484 -49.9297 Q-1.4062 -49.0234 0.0156 -49.0234 Q1.4375 -49.0234 2.1641 -49.9219 Q2.8906 -50.8203 2.8906 -52.5703 Q2.8906 -54.3047 2.1641 -55.1953 Q1.4375 -56.0859 0.0156 -56.0859 Q-1.4062 -56.0859 -2.1484 -55.1875 Q-2.8906 -54.2891 -2.8906 -52.5703 Z" /></ns0:g><ns0:g transform="translate(78,60)" style="stroke-linecap:butt; text-rendering:geometricPrecision; color-rendering:optimizeQuality; image-rendering:optimizeQuality; font-family:'Open Sans'; color-interpolation:linearRGB; stroke-miterlimit:5;"><ns0:path style="fill:none;" d="M44.75 -48.047 L45 -48.48 L45.5 -48.48" /><ns0:path style="fill:none;" d="M-44.75 -48.047 L-45 -48.48 L-45.5 -48.48" /><ns0:path style="fill:none;" d="M-25.547 22.25 L-25.98 22.5 L-25.98 23" /></ns0:g></ns0:g></ns0:svg></ns0:svg></ns0:svg></ns0:svg></g></svg>