<svg width="162" viewBox="0 0 162 146" style="fill-opacity:1; color-rendering:auto; color-interpolation:auto; text-rendering:auto; stroke:black; stroke-linecap:square; stroke-miterlimit:10; shape-rendering:auto; stroke-opacity:1; fill:black; stroke-dasharray:none; font-weight:normal; stroke-width:1; font-family:'Open Sans'; font-style:normal; stroke-linejoin:miter; font-size:12; stroke-dashoffset:0; image-rendering:auto;" height="146" class="cas-substance-image" xmlns:xlink="http://www.w3.org/1999/xlink" xmlns="http://www.w3.org/2000/svg"><svg class="cas-substance-single-component"><rect y="0" x="0" width="162" stroke="none" ry="7" rx="7" height="146" fill="white" class="cas-substance-group"/><svg y="0" x="0" width="162" viewBox="0 0 162 146" style="fill:black;" height="146" class="cas-substance-single-component-image"><svg><g><g transform="translate(81,75)" style="text-rendering:geometricPrecision; color-rendering:optimizeQuality; color-interpolation:linearRGB; stroke-linecap:butt; image-rendering:optimizeQuality;"><line y2="-22.5" y1="-34.3112" x2="-77.943" x1="-57.486" style="fill:none;"/><line y2="-22.5" y1="-34.3216" x2="-25.98" x1="-46.4574" style="fill:none;"/><line y2="-37.5" y1="-61.3438" x2="0" x1="0" style="fill:none;"/><line y2="-22.5" y1="-34.3214" x2="77.943" x1="57.4684" style="fill:none;"/><line y2="-22.5" y1="-34.3114" x2="25.98" x1="46.4398" style="fill:none;"/><line y2="67.5" y1="55.6888" x2="-25.98" x1="-5.523" style="fill:none;"/><line y2="22.5" y1="46.0234" x2="0" x1="0" style="fill:none;"/><line y2="-37.5" y1="-22.5" x2="0" x1="-25.98" style="fill:none;"/><line y2="-33.4585" y1="-20.4793" x2="0.0001" x1="-22.48" style="fill:none;"/><line y2="7.5" y1="-22.5" x2="-25.98" x1="-25.98" style="fill:none;"/><line y2="-22.5" y1="-37.5" x2="25.98" x1="0" style="fill:none;"/><line y2="22.5" y1="7.5" x2="0" x1="-25.98" style="fill:none;"/><line y2="18.4585" y1="5.4793" x2="0.0001" x1="-22.48" style="fill:none;"/><line y2="7.5" y1="-22.5" x2="25.98" x1="25.98" style="fill:none;"/><line y2="5.4793" y1="-20.4793" x2="22.48" x1="22.48" style="fill:none;"/><line y2="7.5" y1="22.5" x2="25.98" x1="0" style="fill:none;"/></g><g transform="translate(81,75)" style="fill:rgb(230,0,0); text-rendering:geometricPrecision; color-rendering:optimizeQuality; image-rendering:optimizeQuality; font-family:'Open Sans'; stroke:rgb(230,0,0); color-interpolation:linearRGB;"><path style="stroke:none;" d="M-48.0255 -37.5703 Q-48.0255 -35.5078 -49.0646 -34.3281 Q-50.1036 -33.1484 -51.9474 -33.1484 Q-53.838 -33.1484 -54.8693 -34.3125 Q-55.9005 -35.4766 -55.9005 -37.5859 Q-55.9005 -39.6797 -54.8693 -40.8281 Q-53.838 -41.9766 -51.9474 -41.9766 Q-50.088 -41.9766 -49.0568 -40.8047 Q-48.0255 -39.6328 -48.0255 -37.5703 ZM-54.8536 -37.5703 Q-54.8536 -35.8359 -54.1114 -34.9297 Q-53.3693 -34.0234 -51.9474 -34.0234 Q-50.5255 -34.0234 -49.7989 -34.9219 Q-49.0724 -35.8203 -49.0724 -37.5703 Q-49.0724 -39.3047 -49.7989 -40.1953 Q-50.5255 -41.0859 -51.9474 -41.0859 Q-53.3693 -41.0859 -54.1114 -40.1875 Q-54.8536 -39.2891 -54.8536 -37.5703 Z"/><path style="fill:rgb(0,138,0); stroke:none;" d="M-5.6689 -71.9062 L-3.2471 -71.9062 Q-1.5439 -71.9062 -0.7783 -71.3984 Q-0.0127 -70.8906 -0.0127 -69.7969 Q-0.0127 -69.0312 -0.4346 -68.5312 Q-0.8564 -68.0312 -1.6846 -67.8906 L-1.6846 -67.8281 Q0.2686 -67.5 0.2686 -65.7812 Q0.2686 -64.6406 -0.5049 -63.9922 Q-1.2783 -63.3438 -2.6689 -63.3438 L-5.6689 -63.3438 L-5.6689 -71.9062 ZM-4.6689 -68.25 L-3.0283 -68.25 Q-1.9658 -68.25 -1.5049 -68.5781 Q-1.0439 -68.9062 -1.0439 -69.6875 Q-1.0439 -70.4062 -1.5596 -70.7266 Q-2.0752 -71.0469 -3.2002 -71.0469 L-4.6689 -71.0469 L-4.6689 -68.25 ZM-4.6689 -67.4062 L-4.6689 -64.1875 L-2.8721 -64.1875 Q-1.8408 -64.1875 -1.3174 -64.5938 Q-0.7939 -65 -0.7939 -65.8594 Q-0.7939 -66.6562 -1.333 -67.0312 Q-1.8721 -67.4062 -2.9658 -67.4062 L-4.6689 -67.4062 ZM4.9033 -69.8906 Q5.3252 -69.8906 5.6689 -69.8125 L5.5283 -68.9062 Q5.1377 -69 4.8252 -69 Q4.0439 -69 3.4893 -68.3672 Q2.9346 -67.7344 2.9346 -66.7969 L2.9346 -63.3438 L1.9658 -63.3438 L1.9658 -69.7656 L2.7627 -69.7656 L2.8877 -68.5781 L2.9346 -68.5781 Q3.2783 -69.2031 3.7861 -69.5469 Q4.2939 -69.8906 4.9033 -69.8906 Z"/><path style="stroke:none;" d="M55.9005 -37.5703 Q55.9005 -35.5078 54.8614 -34.3281 Q53.8224 -33.1484 51.9786 -33.1484 Q50.088 -33.1484 49.0568 -34.3125 Q48.0255 -35.4766 48.0255 -37.5859 Q48.0255 -39.6797 49.0568 -40.8281 Q50.088 -41.9766 51.9786 -41.9766 Q53.838 -41.9766 54.8693 -40.8047 Q55.9005 -39.6328 55.9005 -37.5703 ZM49.0724 -37.5703 Q49.0724 -35.8359 49.8146 -34.9297 Q50.5568 -34.0234 51.9786 -34.0234 Q53.4005 -34.0234 54.1271 -34.9219 Q54.8536 -35.8203 54.8536 -37.5703 Q54.8536 -39.3047 54.1271 -40.1953 Q53.4005 -41.0859 51.9786 -41.0859 Q50.5568 -41.0859 49.8146 -40.1875 Q49.0724 -39.2891 49.0724 -37.5703 Z"/><path style="stroke:none;" d="M3.9375 52.4297 Q3.9375 54.4922 2.8984 55.6719 Q1.8594 56.8516 0.0156 56.8516 Q-1.875 56.8516 -2.9062 55.6875 Q-3.9375 54.5234 -3.9375 52.4141 Q-3.9375 50.3203 -2.9062 49.1719 Q-1.875 48.0234 0.0156 48.0234 Q1.875 48.0234 2.9062 49.1953 Q3.9375 50.3672 3.9375 52.4297 ZM-2.8906 52.4297 Q-2.8906 54.1641 -2.1484 55.0703 Q-1.4062 55.9766 0.0156 55.9766 Q1.4375 55.9766 2.1641 55.0781 Q2.8906 54.1797 2.8906 52.4297 Q2.8906 50.6953 2.1641 49.8047 Q1.4375 48.9141 0.0156 48.9141 Q-1.4062 48.9141 -2.1484 49.8125 Q-2.8906 50.7109 -2.8906 52.4297 Z"/></g><g transform="translate(81,75)" style="stroke-linecap:butt; text-rendering:geometricPrecision; color-rendering:optimizeQuality; image-rendering:optimizeQuality; font-family:'Open Sans'; color-interpolation:linearRGB; stroke-miterlimit:5;"><path style="fill:none;" d="M-25.547 -22.75 L-25.98 -22.5 L-25.98 -22"/><path style="fill:none;" d="M-0.433 -37.25 L0 -37.5 L0 -38"/><path style="fill:none;" d="M-25.98 7 L-25.98 7.5 L-25.547 7.75"/><path style="fill:none;" d="M25.98 -22 L25.98 -22.5 L26.413 -22.75"/><path style="fill:none;" d="M-0.433 22.25 L0 22.5 L0.433 22.25"/><path style="fill:none;" d="M25.98 7 L25.98 7.5 L25.547 7.75"/></g></g></svg></svg></svg></svg>