<svg xmlns:ns0="http://www.w3.org/2000/svg" xmlns="http://www.w3.org/2000/svg"><g transform="translate(0, 0)"><ns0:svg width="222" viewBox="0 0 222 200" style="fill-opacity:1; color-rendering:auto; color-interpolation:auto; text-rendering:auto; stroke:black; stroke-linecap:square; stroke-miterlimit:10; shape-rendering:auto; stroke-opacity:1; fill:black; stroke-dasharray:none; font-weight:normal; stroke-width:1; font-family:'Open Sans'; font-style:normal; stroke-linejoin:miter; font-size:12; stroke-dashoffset:0; image-rendering:auto;" height="200" class="cas-substance-image"><ns0:svg class="cas-substance-single-component"><ns0:rect y="0" x="0" width="222" stroke="none" ry="7" rx="7" height="200" fill="white" class="cas-substance-group" /><ns0:svg y="0" x="0" width="222" viewBox="0 0 222 185" style="fill:black;" height="185" class="cas-substance-single-component-image"><ns0:svg><ns0:g><ns0:g transform="translate(111,93)" style="text-rendering:geometricPrecision; color-rendering:optimizeQuality; color-interpolation:linearRGB; stroke-linecap:butt; image-rendering:optimizeQuality;"><ns0:line y2="0.7887" y1="-13.1647" x2="-6.502" x1="-14.5583" style="fill:none;" /><ns0:line y2="-36.1399" y1="-24.2621" x2="-2.5747" x1="-13.2683" style="fill:none;" /><ns0:line y2="-22.191" y1="-19.6147" x2="-47.793" x1="-23.2986" style="fill:none;" /><ns0:line y2="3.5299" y1="6.5011" x2="21.4439" x1="7.4637" style="fill:none;" /><ns0:line y2="0.1063" y1="3.0776" x2="20.7163" x1="6.7361" style="fill:none;" /><ns0:line y2="34.332" y1="12.9104" x2="-15.159" x1="-5.6219" style="fill:none;" /><ns0:line y2="-29.145" y1="-39.0431" x2="29.523" x1="7.2936" style="fill:none;" /><ns0:line y2="-26.7696" y1="-35.8457" x2="26.2533" x1="5.8699" style="fill:none;" /><ns0:line y2="-29.145" y1="-5.7053" x2="29.523" x1="27.06" style="fill:none;" /><ns0:line y2="-44.145" y1="-29.145" x2="55.503" x1="29.523" style="fill:none;" /><ns0:line y2="-49.596" y1="-22.191" x2="-59.997" x1="-47.793" style="fill:none;" /><ns0:line y2="-46.3262" y1="-22.6131" x2="-62.3723" x1="-51.8123" style="fill:none;" /><ns0:line y2="2.082" y1="-22.191" x2="-65.427" x1="-47.793" style="fill:none;" /><ns0:line y2="-52.731" y1="-49.596" x2="-89.832" x1="-59.997" style="fill:none;" /><ns0:line y2="-1.056" y1="2.082" x2="-95.262" x1="-65.427" style="fill:none;" /><ns0:line y2="-4.3254" y1="-1.6102" x2="-92.8863" x1="-67.0705" style="fill:none;" /><ns0:line y2="-28.461" y1="-52.731" x2="-107.466" x1="-89.832" style="fill:none;" /><ns0:line y2="-28.0385" y1="-49.0389" x2="-103.4467" x1="-88.1883" style="fill:none;" /><ns0:line y2="-28.461" y1="-1.056" x2="-107.466" x1="-95.262" style="fill:none;" /><ns0:line y2="37.47" y1="34.332" x2="-44.997" x1="-15.159" style="fill:none;" /><ns0:line y2="40.7395" y1="38.0242" x2="-42.6213" x1="-16.8026" style="fill:none;" /><ns0:line y2="58.605" y1="34.332" x2="2.475" x1="-15.159" style="fill:none;" /><ns0:line y2="64.875" y1="37.47" x2="-57.198" x1="-44.997" style="fill:none;" /><ns0:line y2="86.01" y1="58.605" x2="-9.729" x1="2.475" style="fill:none;" /><ns0:line y2="82.7402" y1="59.0271" x2="-12.1043" x1="-1.5443" style="fill:none;" /><ns0:line y2="89.145" y1="64.875" x2="-39.564" x1="-57.198" style="fill:none;" /><ns0:line y2="85.4529" y1="64.4525" x2="-37.9203" x1="-53.1787" style="fill:none;" /><ns0:line y2="89.145" y1="86.01" x2="-39.564" x1="-9.729" style="fill:none;" /><ns0:line y2="-74.145" y1="-44.145" x2="55.503" x1="55.503" style="fill:none;" /><ns0:line y2="-72.1243" y1="-46.1657" x2="59.003" x1="59.003" style="fill:none;" /><ns0:line y2="-29.145" y1="-44.145" x2="81.483" x1="55.503" style="fill:none;" /><ns0:line y2="-89.145" y1="-74.145" x2="81.483" x1="55.503" style="fill:none;" /><ns0:line y2="-44.145" y1="-29.145" x2="107.466" x1="81.483" style="fill:none;" /><ns0:line y2="-46.1659" y1="-33.1865" x2="103.9661" x1="81.4832" style="fill:none;" /><ns0:line y2="-74.145" y1="-89.145" x2="107.466" x1="81.483" style="fill:none;" /><ns0:line y2="-72.1241" y1="-85.1035" x2="103.9661" x1="81.4832" style="fill:none;" /><ns0:line y2="-74.145" y1="-44.145" x2="107.466" x1="107.466" style="fill:none;" /></ns0:g><ns0:g transform="translate(111,93)" style="fill:rgb(0,5,255); text-rendering:geometricPrecision; color-rendering:optimizeQuality; image-rendering:optimizeQuality; font-family:'Open Sans'; stroke:rgb(0,5,255); color-interpolation:linearRGB;"><ns0:path style="stroke:none;" d="M-14.6064 -14.8967 L-15.7471 -14.8967 L-20.4346 -22.0842 L-20.4814 -22.0842 Q-20.3877 -20.8186 -20.3877 -19.7717 L-20.3877 -14.8967 L-21.3096 -14.8967 L-21.3096 -23.4592 L-20.1846 -23.4592 L-15.5127 -16.303 L-15.4658 -16.303 Q-15.4658 -16.4592 -15.5127 -17.3186 Q-15.5596 -18.178 -15.5439 -18.553 L-15.5439 -23.4592 L-14.6064 -23.4592 L-14.6064 -14.8967 Z" /><ns0:path style="stroke:none;" d="M0.3936 11.0833 L-0.7471 11.0833 L-5.4346 3.8958 L-5.4814 3.8958 Q-5.3877 5.1614 -5.3877 6.2083 L-5.3877 11.0833 L-6.3096 11.0833 L-6.3096 2.5208 L-5.1846 2.5208 L-0.5127 9.677 L-0.4658 9.677 Q-0.4658 9.5208 -0.5127 8.6614 Q-0.5596 7.802 -0.5439 7.427 L-0.5439 2.5208 L0.3936 2.5208 L0.3936 11.0833 Z" /><ns0:path style="fill:black; stroke:none;" d="M3.5342 4.0926 L5.1436 4.0926 L5.1436 4.6395 L3.5342 4.6395 L3.5342 6.2957 L3.0029 6.2957 L3.0029 4.6395 L1.3936 4.6395 L1.3936 4.0926 L3.0029 4.0926 L3.0029 2.4207 L3.5342 2.4207 L3.5342 4.0926 Z" /><ns0:path style="stroke:none;" d="M5.4666 -37.1927 L4.3259 -37.1927 L-0.3616 -44.3802 L-0.4084 -44.3802 Q-0.3147 -43.1146 -0.3147 -42.0677 L-0.3147 -37.1927 L-1.2366 -37.1927 L-1.2366 -45.7552 L-0.1116 -45.7552 L4.5603 -38.599 L4.6072 -38.599 Q4.6072 -38.7552 4.5603 -39.6146 Q4.5134 -40.474 4.5291 -40.849 L4.5291 -45.7552 L5.4666 -45.7552 L5.4666 -37.1927 Z" /><ns0:path style="stroke:none;" d="M29.7396 4.8463 L28.5989 4.8463 L23.9114 -2.3412 L23.8646 -2.3412 Q23.9583 -1.0756 23.9583 -0.0287 L23.9583 4.8463 L23.0364 4.8463 L23.0364 -3.7162 L24.1614 -3.7162 L28.8333 3.44 L28.8802 3.44 Q28.8802 3.2838 28.8333 2.4244 Q28.7864 1.565 28.8021 1.19 L28.8021 -3.7162 L29.7396 -3.7162 L29.7396 4.8463 Z" /></ns0:g><ns0:g transform="translate(111,93)" style="stroke-linecap:butt; text-rendering:geometricPrecision; color-rendering:optimizeQuality; image-rendering:optimizeQuality; font-family:'Open Sans'; color-interpolation:linearRGB; stroke-miterlimit:5;"><ns0:path style="fill:none;" d="M29.0662 -29.3484 L29.523 -29.145 L29.4707 -28.6477" /><ns0:path style="fill:none;" d="M-47.9964 -22.6478 L-47.793 -22.191 L-47.2957 -22.1387" /><ns0:path style="fill:none;" d="M-59.7936 -49.1392 L-59.997 -49.596 L-60.4943 -49.6483" /><ns0:path style="fill:none;" d="M-65.1331 1.6775 L-65.427 2.082 L-65.9243 2.0297" /><ns0:path style="fill:none;" d="M-89.3347 -52.6787 L-89.832 -52.731 L-90.1259 -52.3265" /><ns0:path style="fill:none;" d="M-94.7647 -1.0037 L-95.262 -1.056 L-95.4654 -1.5128" /><ns0:path style="fill:none;" d="M-107.1721 -28.8655 L-107.466 -28.461 L-107.2626 -28.0042" /><ns0:path style="fill:none;" d="M-15.6563 34.3843 L-15.159 34.332 L-14.9556 33.8752" /><ns0:path style="fill:none;" d="M-44.4997 37.4177 L-44.997 37.47 L-45.2004 37.9268" /><ns0:path style="fill:none;" d="M2.1811 58.2005 L2.475 58.605 L2.2716 59.0618" /><ns0:path style="fill:none;" d="M-56.9946 64.4182 L-57.198 64.875 L-56.9041 65.2795" /><ns0:path style="fill:none;" d="M-9.5256 85.5532 L-9.729 86.01 L-10.2263 86.0623" /><ns0:path style="fill:none;" d="M-39.8579 88.7405 L-39.564 89.145 L-39.0667 89.0927" /><ns0:path style="fill:none;" d="M55.503 -44.645 L55.503 -44.145 L55.07 -43.895" /><ns0:path style="fill:none;" d="M55.503 -73.645 L55.503 -74.145 L55.936 -74.395" /><ns0:path style="fill:none;" d="M81.05 -29.395 L81.483 -29.145 L81.916 -29.395" /><ns0:path style="fill:none;" d="M81.05 -88.895 L81.483 -89.145 L81.916 -88.895" /><ns0:path style="fill:none;" d="M107.033 -43.895 L107.466 -44.145 L107.466 -44.645" /><ns0:path style="fill:none;" d="M107.033 -74.395 L107.466 -74.145 L107.466 -73.645" /></ns0:g></ns0:g></ns0:svg></ns0:svg><ns0:svg y="185" x="103" class="cas-substance-saf"><ns0:svg y="5" x="0" width="4" style="fill:black;" height="4" class="cas-substance-saf-dot"><ns0:circle stroke="none" r="2" fill="black" cy="2" cx="2" /></ns0:svg><ns0:svg y="0" x="8" width="19" style="fill:black;" height="15" class="cas-substance-saf-image"><ns0:svg><ns0:g><ns0:g transform="translate(7,8)" style="fill:rgb(0,138,0); text-rendering:geometricPrecision; color-rendering:optimizeQuality; image-rendering:optimizeQuality; font-family:'Open Sans'; stroke:rgb(0,138,0); color-interpolation:linearRGB;"><ns0:path style="stroke:none;" d="M-0.3086 -3.3594 Q-1.7148 -3.3594 -2.5352 -2.4219 Q-3.3555 -1.4844 -3.3555 0.1562 Q-3.3555 1.8281 -2.5664 2.75 Q-1.7773 3.6719 -0.3242 3.6719 Q0.582 3.6719 1.7227 3.3438 L1.7227 4.2188 Q0.832 4.5625 -0.4648 4.5625 Q-2.3555 4.5625 -3.3867 3.4062 Q-4.418 2.25 -4.418 0.1406 Q-4.418 -1.1875 -3.9258 -2.1797 Q-3.4336 -3.1719 -2.4961 -3.7109 Q-1.5586 -4.25 -0.293 -4.25 Q1.0508 -4.25 2.0664 -3.7656 L1.6445 -2.9062 Q0.6602 -3.3594 -0.3086 -3.3594 ZM4.418 4.4375 L3.4492 4.4375 L3.4492 -4.6875 L4.418 -4.6875 L4.418 4.4375 Z" /><ns0:path style="fill:black; stroke:none;" d="M5.418 -2.4781 L5.418 -3.0719 L8.7773 -3.0719 L8.7773 -2.4781 L5.418 -2.4781 Z" /></ns0:g></ns0:g></ns0:svg></ns0:svg></ns0:svg></ns0:svg></ns0:svg></g></svg>