<svg xmlns:ns0="http://www.w3.org/2000/svg" xmlns="http://www.w3.org/2000/svg"><g transform="translate(0, 0)"><ns0:svg width="138" viewBox="0 0 138 75" style="fill-opacity:1; color-rendering:auto; color-interpolation:auto; text-rendering:auto; stroke:black; stroke-linecap:square; stroke-miterlimit:10; shape-rendering:auto; stroke-opacity:1; fill:black; stroke-dasharray:none; font-weight:normal; stroke-width:1; font-family:'Open Sans'; font-style:normal; stroke-linejoin:miter; font-size:12; stroke-dashoffset:0; image-rendering:auto;" height="75" class="cas-substance-image"><ns0:svg class="cas-substance-single-component"><ns0:rect y="0" x="0" width="138" stroke="none" ry="7" rx="7" height="75" fill="white" class="cas-substance-group" /><ns0:svg y="0" x="0" width="138" viewBox="0 0 138 75" style="fill:black;" height="75" class="cas-substance-single-component-image"><ns0:svg><ns0:g><ns0:g transform="translate(70,33)" style="text-rendering:geometricPrecision; color-rendering:optimizeQuality; color-interpolation:linearRGB; stroke-linecap:butt; image-rendering:optimizeQuality;"><ns0:line y2="-10.536" y1="-22.9798" x2="64.638" x1="43.0853" style="fill:none;" /><ns0:line y2="-10.536" y1="-22.9943" x2="12.678" x1="34.2558" style="fill:none;" /><ns0:line y2="1.4293" y1="-1.3568" x2="-33.7214" x1="-60.2363" style="fill:none;" /><ns0:line y2="-2.0516" y1="-4.8377" x2="-33.3557" x1="-59.8706" style="fill:none;" /><ns0:line y2="-20.7263" y1="-10.536" x2="-10.2076" x1="12.678" style="fill:none;" /><ns0:line y2="12.9037" y1="-10.536" x2="10.2126" x1="12.678" style="fill:none;" /><ns0:line y2="12.5376" y1="-8.8925" x2="6.7318" x1="8.9858" style="fill:none;" /><ns0:line y2="-0.444" y1="-18.2636" x2="-34.803" x1="-18.7601" style="fill:none;" /><ns0:line y2="24.4078" y1="20.4272" x2="-14.4951" x1="4.2321" style="fill:none;" /><ns0:line y2="19.3977" y1="-0.444" x2="-23.347" x1="-34.803" style="fill:none;" /></ns0:g><ns0:g transform="translate(70,33)" style="fill:rgb(148,108,0); text-rendering:geometricPrecision; color-rendering:optimizeQuality; image-rendering:optimizeQuality; font-family:'Open Sans'; stroke:rgb(148,108,0); color-interpolation:linearRGB;"><ns0:path style="stroke:none;" d="M41.3533 -23.5985 Q41.3533 -22.4735 40.533 -21.8329 Q39.7127 -21.1922 38.3064 -21.1922 Q36.7752 -21.1922 35.9627 -21.5985 L35.9627 -22.5516 Q36.4939 -22.3329 37.1111 -22.2001 Q37.7283 -22.0672 38.3377 -22.0672 Q39.3377 -22.0672 39.8377 -22.4501 Q40.3377 -22.8329 40.3377 -23.5047 Q40.3377 -23.9422 40.158 -24.2313 Q39.9783 -24.5204 39.5642 -24.7626 Q39.1502 -25.0047 38.2908 -25.3016 Q37.1033 -25.7235 36.5877 -26.3094 Q36.0721 -26.8954 36.0721 -27.8485 Q36.0721 -28.8329 36.8142 -29.4188 Q37.5564 -30.0047 38.7908 -30.0047 Q40.0564 -30.0047 41.1346 -29.536 L40.8221 -28.6766 Q39.7596 -29.1141 38.7596 -29.1141 Q37.9627 -29.1141 37.5174 -28.7782 Q37.0721 -28.4422 37.0721 -27.8329 Q37.0721 -27.3954 37.2361 -27.1063 Q37.4002 -26.8172 37.7908 -26.5829 Q38.1814 -26.3485 38.9939 -26.0516 Q40.3377 -25.5829 40.8455 -25.0282 Q41.3533 -24.4735 41.3533 -23.5985 Z" /><ns0:path style="stroke:none;" d="M-61.9427 -1.6415 Q-61.9427 -0.5165 -62.763 0.1241 Q-63.5833 0.7648 -64.9896 0.7648 Q-66.5208 0.7648 -67.3333 0.3585 L-67.3333 -0.5946 Q-66.8021 -0.3759 -66.1849 -0.2431 Q-65.5677 -0.1102 -64.9583 -0.1102 Q-63.9583 -0.1102 -63.4583 -0.4931 Q-62.9583 -0.8759 -62.9583 -1.5477 Q-62.9583 -1.9852 -63.138 -2.2743 Q-63.3177 -2.5634 -63.7318 -2.8056 Q-64.1458 -3.0477 -65.0052 -3.3446 Q-66.1927 -3.7665 -66.7083 -4.3524 Q-67.2239 -4.9384 -67.2239 -5.8915 Q-67.2239 -6.8759 -66.4818 -7.4618 Q-65.7396 -8.0478 -64.5052 -8.0478 Q-63.2396 -8.0478 -62.1614 -7.579 L-62.4739 -6.7196 Q-63.5364 -7.1571 -64.5364 -7.1571 Q-65.3333 -7.1571 -65.7786 -6.8212 Q-66.2239 -6.4852 -66.2239 -5.8759 Q-66.2239 -5.4384 -66.0599 -5.1493 Q-65.8958 -4.8602 -65.5052 -4.6259 Q-65.1146 -4.3915 -64.3021 -4.0946 Q-62.9583 -3.6259 -62.4505 -3.0712 Q-61.9427 -2.5165 -61.9427 -1.6415 Z" /></ns0:g><ns0:g transform="translate(70,33)" style="stroke-linecap:butt; text-rendering:geometricPrecision; color-rendering:optimizeQuality; image-rendering:optimizeQuality; font-family:'Open Sans'; color-interpolation:linearRGB; stroke-miterlimit:5;"><ns0:path style="fill:none;" d="M12.6257 -10.0387 L12.678 -10.536 L12.2212 -10.7394" /><ns0:path style="fill:rgb(148,108,0); stroke:none;" d="M-12.0347 -20.8025 Q-12.0347 -19.6775 -12.855 -19.0369 Q-13.6753 -18.3962 -15.0816 -18.3962 Q-16.6128 -18.3962 -17.4253 -18.8025 L-17.4253 -19.7556 Q-16.8941 -19.5369 -16.2769 -19.4041 Q-15.6597 -19.2712 -15.0503 -19.2712 Q-14.0503 -19.2712 -13.5503 -19.6541 Q-13.0503 -20.0369 -13.0503 -20.7087 Q-13.0503 -21.1462 -13.23 -21.4353 Q-13.4097 -21.7244 -13.8237 -21.9666 Q-14.2378 -22.2087 -15.0972 -22.5056 Q-16.2847 -22.9275 -16.8003 -23.5134 Q-17.3159 -24.0994 -17.3159 -25.0525 Q-17.3159 -26.0369 -16.5737 -26.6228 Q-15.8316 -27.2087 -14.5972 -27.2087 Q-13.3316 -27.2087 -12.2534 -26.74 L-12.5659 -25.8806 Q-13.6284 -26.3181 -14.6284 -26.3181 Q-15.4253 -26.3181 -15.8706 -25.9822 Q-16.3159 -25.6462 -16.3159 -25.0369 Q-16.3159 -24.5994 -16.1519 -24.3103 Q-15.9878 -24.0212 -15.5972 -23.7869 Q-15.2066 -23.5525 -14.3941 -23.2556 Q-13.0503 -22.7869 -12.5425 -22.2322 Q-12.0347 -21.6775 -12.0347 -20.8025 Z" /><ns0:path style="fill:rgb(0,5,255); stroke:none;" d="M12.8916 23.4552 L11.7509 23.4552 L7.0634 16.2677 L7.0166 16.2677 Q7.1103 17.5334 7.1103 18.5802 L7.1103 23.4552 L6.1884 23.4552 L6.1884 14.8927 L7.3134 14.8927 L11.9853 22.049 L12.0322 22.049 Q12.0322 21.8927 11.9853 21.0334 Q11.9384 20.174 11.9541 19.799 L11.9541 14.8927 L12.8916 14.8927 L12.8916 23.4552 Z" /><ns0:path style="fill:none;" d="M-34.4685 -0.8156 L-34.803 -0.444 L-34.553 -0.011" /><ns0:path style="fill:rgb(0,5,255); stroke:none;" d="M-16.4514 29.6922 L-17.5921 29.6922 L-22.2796 22.5047 L-22.3264 22.5047 Q-22.2327 23.7704 -22.2327 24.8172 L-22.2327 29.6922 L-23.1546 29.6922 L-23.1546 21.1297 L-22.0296 21.1297 L-17.3577 28.286 L-17.3108 28.286 Q-17.3108 28.1297 -17.3577 27.2704 Q-17.4046 26.411 -17.3889 26.036 L-17.3889 21.1297 L-16.4514 21.1297 L-16.4514 29.6922 Z" /><ns0:path style="fill:rgb(0,5,255); stroke:none;" d="M-16.5452 39.2547 L-17.5452 39.2547 L-17.5452 35.2235 L-22.0608 35.2235 L-22.0608 39.2547 L-23.0608 39.2547 L-23.0608 30.6922 L-22.0608 30.6922 L-22.0608 34.3329 L-17.5452 34.3329 L-17.5452 30.6922 L-16.5452 30.6922 L-16.5452 39.2547 Z" /></ns0:g></ns0:g></ns0:svg></ns0:svg></ns0:svg></ns0:svg></g></svg>