<svg xmlns:ns0="http://www.w3.org/2000/svg" xmlns="http://www.w3.org/2000/svg"><g transform="translate(0, 0)"><ns0:svg width="142" viewBox="0 0 142 134" style="fill-opacity:1; color-rendering:auto; color-interpolation:auto; text-rendering:auto; stroke:black; stroke-linecap:square; stroke-miterlimit:10; shape-rendering:auto; stroke-opacity:1; fill:black; stroke-dasharray:none; font-weight:normal; stroke-width:1; font-family:'Open Sans'; font-style:normal; stroke-linejoin:miter; font-size:12; stroke-dashoffset:0; image-rendering:auto;" height="134" class="cas-substance-image"><ns0:svg class="cas-substance-single-component"><ns0:rect y="0" x="0" width="142" stroke="none" ry="7" rx="7" height="134" fill="white" class="cas-substance-group" /><ns0:svg y="0" x="0" width="142" viewBox="0 0 142 119" style="fill:black;" height="119" class="cas-substance-single-component-image"><ns0:svg><ns0:g><ns0:g transform="translate(67,60)" style="text-rendering:geometricPrecision; color-rendering:optimizeQuality; color-interpolation:linearRGB; stroke-linecap:butt; image-rendering:optimizeQuality;"><ns0:line y2="0" y1="0" x2="-30" x1="-53.582" style="fill:none;" /><ns0:line y2="25.98" y1="45.6118" x2="-15" x1="-26.3334" style="fill:none;" /><ns0:line y2="-25.98" y1="-45.73" x2="-15" x1="-26.4017" style="fill:none;" /><ns0:line y2="25.98" y1="46.3673" x2="15" x1="26.7696" style="fill:none;" /><ns0:line y2="-25.98" y1="-45.8579" x2="15" x1="26.4755" style="fill:none;" /><ns0:line y2="0" y1="0" x2="30" x1="54.0625" style="fill:none;" /><ns0:line y2="25.98" y1="0" x2="-15" x1="-30" style="fill:none;" /><ns0:line y2="22.48" y1="-0.0001" x2="-12.9793" x1="-25.9585" style="fill:none;" /><ns0:line y2="-25.98" y1="0" x2="-15" x1="-30" style="fill:none;" /><ns0:line y2="25.98" y1="25.98" x2="15" x1="-15" style="fill:none;" /><ns0:line y2="-25.98" y1="-25.98" x2="15" x1="-15" style="fill:none;" /><ns0:line y2="-22.48" y1="-22.48" x2="12.9793" x1="-12.9793" style="fill:none;" /><ns0:line y2="0" y1="25.98" x2="30" x1="15" style="fill:none;" /><ns0:line y2="-0.0001" y1="22.48" x2="25.9585" x1="12.9793" style="fill:none;" /><ns0:line y2="0" y1="-25.98" x2="30" x1="15" style="fill:none;" /></ns0:g><ns0:g transform="translate(67,60)" style="fill:rgb(0,138,0); text-rendering:geometricPrecision; color-rendering:optimizeQuality; image-rendering:optimizeQuality; font-family:'Open Sans'; stroke:rgb(0,138,0); color-interpolation:linearRGB;"><ns0:path style="stroke:none;" d="M-60.3086 -3.3594 Q-61.7148 -3.3594 -62.5352 -2.4219 Q-63.3555 -1.4844 -63.3555 0.1562 Q-63.3555 1.8281 -62.5664 2.75 Q-61.7773 3.6719 -60.3242 3.6719 Q-59.418 3.6719 -58.2773 3.3438 L-58.2773 4.2188 Q-59.168 4.5625 -60.4648 4.5625 Q-62.3555 4.5625 -63.3867 3.4062 Q-64.418 2.25 -64.418 0.1406 Q-64.418 -1.1875 -63.9258 -2.1797 Q-63.4336 -3.1719 -62.4961 -3.7109 Q-61.5586 -4.25 -60.293 -4.25 Q-58.9492 -4.25 -57.9336 -3.7656 L-58.3555 -2.9062 Q-59.3398 -3.3594 -60.3086 -3.3594 ZM-55.582 4.4375 L-56.5508 4.4375 L-56.5508 -4.6875 L-55.582 -4.6875 L-55.582 4.4375 Z" /><ns0:path style="stroke:none;" d="M-30.3086 48.6036 Q-31.7148 48.6036 -32.5352 49.5411 Q-33.3555 50.4786 -33.3555 52.1193 Q-33.3555 53.7911 -32.5664 54.713 Q-31.7773 55.6349 -30.3242 55.6349 Q-29.418 55.6349 -28.2773 55.3068 L-28.2773 56.1818 Q-29.168 56.5255 -30.4648 56.5255 Q-32.3555 56.5255 -33.3867 55.3693 Q-34.418 54.213 -34.418 52.1036 Q-34.418 50.7755 -33.9258 49.7833 Q-33.4336 48.7911 -32.4961 48.2521 Q-31.5586 47.713 -30.293 47.713 Q-28.9492 47.713 -27.9336 48.1974 L-28.3555 49.0568 Q-29.3398 48.6036 -30.3086 48.6036 ZM-25.582 56.4005 L-26.5508 56.4005 L-26.5508 47.2755 L-25.582 47.2755 L-25.582 56.4005 Z" /><ns0:path style="stroke:none;" d="M-30.3086 -55.3224 Q-31.7148 -55.3224 -32.5352 -54.3849 Q-33.3555 -53.4474 -33.3555 -51.8068 Q-33.3555 -50.1349 -32.5664 -49.213 Q-31.7773 -48.2911 -30.3242 -48.2911 Q-29.418 -48.2911 -28.2773 -48.6193 L-28.2773 -47.7443 Q-29.168 -47.4005 -30.4648 -47.4005 Q-32.3555 -47.4005 -33.3867 -48.5568 Q-34.418 -49.713 -34.418 -51.8224 Q-34.418 -53.1505 -33.9258 -54.1427 Q-33.4336 -55.1349 -32.4961 -55.6739 Q-31.5586 -56.213 -30.293 -56.213 Q-28.9492 -56.213 -27.9336 -55.7286 L-28.3555 -54.8693 Q-29.3398 -55.3224 -30.3086 -55.3224 ZM-25.582 -47.5255 L-26.5508 -47.5255 L-26.5508 -56.6505 L-25.582 -56.6505 L-25.582 -47.5255 Z" /><ns0:path style="stroke:none;" d="M29.6914 48.6036 Q28.2852 48.6036 27.4648 49.5411 Q26.6445 50.4786 26.6445 52.1193 Q26.6445 53.7911 27.4336 54.713 Q28.2227 55.6349 29.6758 55.6349 Q30.582 55.6349 31.7227 55.3068 L31.7227 56.1818 Q30.832 56.5255 29.5352 56.5255 Q27.6445 56.5255 26.6133 55.3693 Q25.582 54.213 25.582 52.1036 Q25.582 50.7755 26.0742 49.7833 Q26.5664 48.7911 27.5039 48.2521 Q28.4414 47.713 29.707 47.713 Q31.0508 47.713 32.0664 48.1974 L31.6445 49.0568 Q30.6602 48.6036 29.6914 48.6036 ZM34.418 56.4005 L33.4492 56.4005 L33.4492 47.2755 L34.418 47.2755 L34.418 56.4005 Z" /><ns0:path style="stroke:none;" d="M29.6914 -55.3224 Q28.2852 -55.3224 27.4648 -54.3849 Q26.6445 -53.4474 26.6445 -51.8068 Q26.6445 -50.1349 27.4336 -49.213 Q28.2227 -48.2911 29.6758 -48.2911 Q30.582 -48.2911 31.7227 -48.6193 L31.7227 -47.7443 Q30.832 -47.4005 29.5352 -47.4005 Q27.6445 -47.4005 26.6133 -48.5568 Q25.582 -49.713 25.582 -51.8224 Q25.582 -53.1505 26.0742 -54.1427 Q26.5664 -55.1349 27.5039 -55.6739 Q28.4414 -56.213 29.707 -56.213 Q31.0508 -56.213 32.0664 -55.7286 L31.6445 -54.8693 Q30.6602 -55.3224 29.6914 -55.3224 ZM34.418 -47.5255 L33.4492 -47.5255 L33.4492 -56.6505 L34.418 -56.6505 L34.418 -47.5255 Z" /><ns0:path style="fill:rgb(230,0,0); stroke:none;" d="M63.9375 -0.0703 Q63.9375 1.9922 62.8984 3.1719 Q61.8594 4.3516 60.0156 4.3516 Q58.125 4.3516 57.0938 3.1875 Q56.0625 2.0234 56.0625 -0.0859 Q56.0625 -2.1797 57.0938 -3.3281 Q58.125 -4.4766 60.0156 -4.4766 Q61.875 -4.4766 62.9062 -3.3047 Q63.9375 -2.1328 63.9375 -0.0703 ZM57.1094 -0.0703 Q57.1094 1.6641 57.8516 2.5703 Q58.5938 3.4766 60.0156 3.4766 Q61.4375 3.4766 62.1641 2.5781 Q62.8906 1.6797 62.8906 -0.0703 Q62.8906 -1.8047 62.1641 -2.6953 Q61.4375 -3.5859 60.0156 -3.5859 Q58.5938 -3.5859 57.8516 -2.6875 Q57.1094 -1.7891 57.1094 -0.0703 Z" /><ns0:path style="fill:rgb(230,0,0); stroke:none;" d="M71.4531 4.2266 L70.4531 4.2266 L70.4531 0.1953 L65.9375 0.1953 L65.9375 4.2266 L64.9375 4.2266 L64.9375 -4.3359 L65.9375 -4.3359 L65.9375 -0.6953 L70.4531 -0.6953 L70.4531 -4.3359 L71.4531 -4.3359 L71.4531 4.2266 Z" /></ns0:g><ns0:g transform="translate(67,60)" style="stroke-linecap:butt; text-rendering:geometricPrecision; color-rendering:optimizeQuality; image-rendering:optimizeQuality; font-family:'Open Sans'; color-interpolation:linearRGB; stroke-miterlimit:5;"><ns0:path style="fill:none;" d="M-29.75 0.433 L-30 0 L-30.5 -0" /><ns0:path style="fill:none;" d="M-15.25 25.547 L-15 25.98 L-15.25 26.413" /><ns0:path style="fill:none;" d="M-14.5 -25.98 L-15 -25.98 L-15.25 -26.413" /><ns0:path style="fill:none;" d="M15.25 25.547 L15 25.98 L15.25 26.413" /><ns0:path style="fill:none;" d="M14.5 -25.98 L15 -25.98 L15.25 -26.413" /><ns0:path style="fill:none;" d="M29.75 0.433 L30 0 L30.5 0" /></ns0:g></ns0:g></ns0:svg></ns0:svg><ns0:svg y="119" x="63" class="cas-substance-saf"><ns0:svg y="5" x="0" width="4" style="fill:black;" height="4" class="cas-substance-saf-dot"><ns0:circle stroke="none" r="2" fill="black" cy="2" cx="2" /></ns0:svg><ns0:svg y="0" x="8" width="20" style="fill:black;" height="15" class="cas-substance-saf-image"><ns0:svg><ns0:g><ns0:g transform="translate(10,7)" style="text-rendering:geometricPrecision; font-family:'Open Sans'; color-interpolation:linearRGB; color-rendering:optimizeQuality; image-rendering:optimizeQuality;"><ns0:path style="stroke:none;" d="M-0.0859 4.1562 L-1.2266 4.1562 L-5.9141 -3.0312 L-5.9609 -3.0312 Q-5.8672 -1.7656 -5.8672 -0.7188 L-5.8672 4.1562 L-6.7891 4.1562 L-6.7891 -4.4062 L-5.6641 -4.4062 L-0.9922 2.75 L-0.9453 2.75 Q-0.9453 2.5938 -0.9922 1.7344 Q-1.0391 0.875 -1.0234 0.5 L-1.0234 -4.4062 L-0.0859 -4.4062 L-0.0859 4.1562 ZM6.0703 4.1562 L5.8672 3.2344 L5.8203 3.2344 Q5.3516 3.8438 4.875 4.0625 Q4.3984 4.2812 3.6797 4.2812 Q2.7266 4.2812 2.1797 3.7812 Q1.6328 3.2812 1.6328 2.375 Q1.6328 0.4375 4.7422 0.3438 L5.8359 0.3125 L5.8359 -0.0938 Q5.8359 -0.8438 5.5156 -1.2031 Q5.1953 -1.5625 4.4766 -1.5625 Q3.6641 -1.5625 2.6641 -1.0781 L2.3516 -1.8281 Q2.8359 -2.0781 3.3984 -2.2266 Q3.9609 -2.375 4.5391 -2.375 Q5.6797 -2.375 6.2344 -1.8672 Q6.7891 -1.3594 6.7891 -0.2344 L6.7891 4.1562 L6.0703 4.1562 ZM3.8672 3.4688 Q4.7734 3.4688 5.2969 2.9688 Q5.8203 2.4688 5.8203 1.5781 L5.8203 1 L4.8359 1.0312 Q3.6797 1.0781 3.1719 1.3984 Q2.6641 1.7188 2.6641 2.3906 Q2.6641 2.9219 2.9766 3.1953 Q3.2891 3.4688 3.8672 3.4688 Z" /></ns0:g></ns0:g></ns0:svg></ns0:svg></ns0:svg></ns0:svg></ns0:svg></g></svg>