<svg width="244" viewBox="0 0 244 165" style="fill-opacity:1; color-rendering:auto; color-interpolation:auto; text-rendering:auto; stroke:black; stroke-linecap:square; stroke-miterlimit:10; shape-rendering:auto; stroke-opacity:1; fill:black; stroke-dasharray:none; font-weight:normal; stroke-width:1; font-family:'Open Sans'; font-style:normal; stroke-linejoin:miter; font-size:12; stroke-dashoffset:0; image-rendering:auto;" height="165" class="cas-substance-image" xmlns:xlink="http://www.w3.org/1999/xlink" xmlns="http://www.w3.org/2000/svg"><svg class="cas-substance-single-component"><rect y="0" x="0" width="244" stroke="none" ry="7" rx="7" height="165" fill="white" class="cas-substance-group"/><svg y="0" x="0" width="244" viewBox="0 0 244 150" style="fill:black;" height="150" class="cas-substance-single-component-image"><svg><g><g transform="translate(124,75)" style="text-rendering:geometricPrecision; color-rendering:optimizeQuality; color-interpolation:linearRGB; stroke-linecap:butt; image-rendering:optimizeQuality;"><line y2="-10.4351" y1="-22.5" x2="-18.0736" x1="-38.97" style="fill:none;"/><line y2="-7.5" y1="-22.5" x2="-64.953" x1="-38.97" style="fill:none;"/><line y2="-22.5" y1="-10.4351" x2="12.99" x1="-7.9064" style="fill:none;"/><line y2="-7.5" y1="-22.5" x2="38.97" x1="12.99" style="fill:none;"/><line y2="-19.3114" y1="-7.5" x2="59.4298" x1="38.97" style="fill:none;"/><line y2="16.0234" y1="-8.5104" x2="37.22" x1="37.22" style="fill:none;"/><line y2="16.0234" y1="-8.5103" x2="40.72" x1="40.72" style="fill:none;"/><line y2="-7.5" y1="-19.3214" x2="90.933" x1="70.4584" style="fill:none;"/><line y2="-22.5" y1="-7.5" x2="116.913" x1="90.933" style="fill:none;"/><line y2="-65.8369" y1="-56.9506" x2="-110.5326" x1="-95.1416" style="fill:none;"/><line y2="-62.8059" y1="-53.9196" x2="-112.2827" x1="-96.8916" style="fill:none;"/><line y2="-62.7956" y1="-53.9196" x2="-69.601" x1="-84.9744" style="fill:none;"/><line y2="-65.8267" y1="-56.9506" x2="-71.3511" x1="-86.7244" style="fill:none;"/><line y2="-22.5" y1="-46.3438" x2="-90.933" x1="-90.933" style="fill:none;"/><line y2="22.5" y1="34.253" x2="-64.953" x1="-44.5945" style="fill:none;"/><line y2="37.5" y1="61.1138" x2="-90.933" x1="-90.933" style="fill:none;"/><line y2="-22.5" y1="-7.5" x2="-90.933" x1="-64.953" style="fill:none;"/><line y2="-18.4585" y1="-5.4793" x2="-90.9331" x1="-68.453" style="fill:none;"/><line y2="22.5" y1="-7.5" x2="-64.953" x1="-64.953" style="fill:none;"/><line y2="-7.5" y1="-22.5" x2="-116.913" x1="-90.933" style="fill:none;"/><line y2="37.5" y1="22.5" x2="-90.933" x1="-64.953" style="fill:none;"/><line y2="33.4585" y1="20.4793" x2="-90.9331" x1="-68.453" style="fill:none;"/><line y2="22.5" y1="-7.5" x2="-116.913" x1="-116.913" style="fill:none;"/><line y2="20.4793" y1="-5.4793" x2="-113.413" x1="-113.413" style="fill:none;"/><line y2="22.5" y1="37.5" x2="-116.913" x1="-90.933" style="fill:none;"/><path style="fill:none; stroke-miterlimit:5;" d="M-38.537 -22.25 L-38.97 -22.5 L-39.403 -22.25"/></g><g transform="translate(124,75)" style="stroke-linecap:butt; fill:rgb(0,5,255); text-rendering:geometricPrecision; color-rendering:optimizeQuality; image-rendering:optimizeQuality; font-family:'Open Sans'; stroke:rgb(0,5,255); color-interpolation:linearRGB; stroke-miterlimit:5;"><path style="stroke:none;" d="M-9.6384 -3.3438 L-10.7791 -3.3438 L-15.4666 -10.5312 L-15.5134 -10.5312 Q-15.4197 -9.2656 -15.4197 -8.2188 L-15.4197 -3.3438 L-16.3416 -3.3438 L-16.3416 -11.9062 L-15.2166 -11.9062 L-10.5447 -4.75 L-10.4978 -4.75 Q-10.4978 -4.9062 -10.5447 -5.7656 Q-10.5916 -6.625 -10.5759 -7 L-10.5759 -11.9062 L-9.6384 -11.9062 L-9.6384 -3.3438 Z"/><path style="stroke:none;" d="M-9.7322 6.2188 L-10.7322 6.2188 L-10.7322 2.1875 L-15.2478 2.1875 L-15.2478 6.2188 L-16.2478 6.2188 L-16.2478 -2.3438 L-15.2478 -2.3438 L-15.2478 1.2969 L-10.7322 1.2969 L-10.7322 -2.3438 L-9.7322 -2.3438 L-9.7322 6.2188 Z"/><path style="fill:none; stroke:black;" d="M12.557 -22.25 L12.99 -22.5 L13.423 -22.25"/><path style="fill:none; stroke:black;" d="M38.537 -7.75 L38.97 -7.5 L39.403 -7.75"/><path style="fill:rgb(230,0,0); stroke:none;" d="M68.8905 -22.5703 Q68.8905 -20.5078 67.8514 -19.3281 Q66.8124 -18.1484 64.9686 -18.1484 Q63.078 -18.1484 62.0468 -19.3125 Q61.0155 -20.4766 61.0155 -22.5859 Q61.0155 -24.6797 62.0468 -25.8281 Q63.078 -26.9766 64.9686 -26.9766 Q66.828 -26.9766 67.8593 -25.8047 Q68.8905 -24.6328 68.8905 -22.5703 ZM62.0624 -22.5703 Q62.0624 -20.8359 62.8046 -19.9297 Q63.5468 -19.0234 64.9686 -19.0234 Q66.3905 -19.0234 67.1171 -19.9219 Q67.8436 -20.8203 67.8436 -22.5703 Q67.8436 -24.3047 67.1171 -25.1953 Q66.3905 -26.0859 64.9686 -26.0859 Q63.5468 -26.0859 62.8046 -25.1875 Q62.0624 -24.2891 62.0624 -22.5703 Z"/><path style="fill:rgb(230,0,0); stroke:none;" d="M42.9075 22.4297 Q42.9075 24.4922 41.8684 25.6719 Q40.8294 26.8516 38.9856 26.8516 Q37.095 26.8516 36.0638 25.6875 Q35.0325 24.5234 35.0325 22.4141 Q35.0325 20.3203 36.0638 19.1719 Q37.095 18.0234 38.9856 18.0234 Q40.845 18.0234 41.8763 19.1953 Q42.9075 20.3672 42.9075 22.4297 ZM36.0794 22.4297 Q36.0794 24.1641 36.8216 25.0703 Q37.5638 25.9766 38.9856 25.9766 Q40.4075 25.9766 41.1341 25.0781 Q41.8606 24.1797 41.8606 22.4297 Q41.8606 20.6953 41.1341 19.8047 Q40.4075 18.9141 38.9856 18.9141 Q37.5638 18.9141 36.8216 19.8125 Q36.0794 20.7109 36.0794 22.4297 Z"/><path style="fill:none; stroke:black;" d="M90.5 -7.75 L90.933 -7.5 L91.366 -7.75"/><path style="stroke:none;" d="M-87.5814 -48.3438 L-88.7221 -48.3438 L-93.4096 -55.5312 L-93.4564 -55.5312 Q-93.3627 -54.2656 -93.3627 -53.2188 L-93.3627 -48.3438 L-94.2846 -48.3438 L-94.2846 -56.9062 L-93.1596 -56.9062 L-88.4877 -49.75 L-88.4408 -49.75 Q-88.4408 -49.9062 -88.4877 -50.7656 Q-88.5346 -51.625 -88.5189 -52 L-88.5189 -56.9062 L-87.5814 -56.9062 L-87.5814 -48.3438 Z"/><path style="fill:rgb(230,0,0); stroke:none;" d="M-112.9755 -67.5703 Q-112.9755 -65.5078 -114.0146 -64.3281 Q-115.0536 -63.1484 -116.8974 -63.1484 Q-118.788 -63.1484 -119.8193 -64.3125 Q-120.8505 -65.4766 -120.8505 -67.5859 Q-120.8505 -69.6797 -119.8193 -70.8281 Q-118.788 -71.9766 -116.8974 -71.9766 Q-115.038 -71.9766 -114.0068 -70.8047 Q-112.9755 -69.6328 -112.9755 -67.5703 ZM-119.8036 -67.5703 Q-119.8036 -65.8359 -119.0614 -64.9297 Q-118.3193 -64.0234 -116.8974 -64.0234 Q-115.4755 -64.0234 -114.7489 -64.9219 Q-114.0224 -65.8203 -114.0224 -67.5703 Q-114.0224 -69.3047 -114.7489 -70.1953 Q-115.4755 -71.0859 -116.8974 -71.0859 Q-118.3193 -71.0859 -119.0614 -70.1875 Q-119.8036 -69.2891 -119.8036 -67.5703 Z"/><path style="fill:rgb(230,0,0); stroke:none;" d="M-61.0155 -67.5703 Q-61.0155 -65.5078 -62.0546 -64.3281 Q-63.0936 -63.1484 -64.9374 -63.1484 Q-66.828 -63.1484 -67.8593 -64.3125 Q-68.8905 -65.4766 -68.8905 -67.5859 Q-68.8905 -69.6797 -67.8593 -70.8281 Q-66.828 -71.9766 -64.9374 -71.9766 Q-63.078 -71.9766 -62.0468 -70.8047 Q-61.0155 -69.6328 -61.0155 -67.5703 ZM-67.8436 -67.5703 Q-67.8436 -65.8359 -67.1014 -64.9297 Q-66.3593 -64.0234 -64.9374 -64.0234 Q-63.5155 -64.0234 -62.7889 -64.9219 Q-62.0624 -65.8203 -62.0624 -67.5703 Q-62.0624 -69.3047 -62.7889 -70.1953 Q-63.5155 -71.0859 -64.9374 -71.0859 Q-66.3593 -71.0859 -67.1014 -70.1875 Q-67.8436 -69.2891 -67.8436 -67.5703 Z"/><path style="fill:rgb(0,138,0); stroke:none;" d="M-39.2786 34.1406 Q-40.6848 34.1406 -41.5052 35.0781 Q-42.3255 36.0156 -42.3255 37.6562 Q-42.3255 39.3281 -41.5364 40.25 Q-40.7473 41.1719 -39.2942 41.1719 Q-38.388 41.1719 -37.2473 40.8438 L-37.2473 41.7188 Q-38.138 42.0625 -39.4348 42.0625 Q-41.3255 42.0625 -42.3567 40.9062 Q-43.388 39.75 -43.388 37.6406 Q-43.388 36.3125 -42.8958 35.3203 Q-42.4036 34.3281 -41.4661 33.7891 Q-40.5286 33.25 -39.263 33.25 Q-37.9192 33.25 -36.9036 33.7344 L-37.3255 34.5938 Q-38.3098 34.1406 -39.2786 34.1406 ZM-34.552 41.9375 L-35.5208 41.9375 L-35.5208 32.8125 L-34.552 32.8125 L-34.552 41.9375 Z"/><path style="fill:rgb(0,138,0); stroke:none;" d="M-91.2416 64.1406 Q-92.6478 64.1406 -93.4682 65.0781 Q-94.2885 66.0156 -94.2885 67.6562 Q-94.2885 69.3281 -93.4994 70.25 Q-92.7103 71.1719 -91.2572 71.1719 Q-90.351 71.1719 -89.2103 70.8438 L-89.2103 71.7188 Q-90.101 72.0625 -91.3978 72.0625 Q-93.2885 72.0625 -94.3197 70.9062 Q-95.351 69.75 -95.351 67.6406 Q-95.351 66.3125 -94.8588 65.3203 Q-94.3666 64.3281 -93.4291 63.7891 Q-92.4916 63.25 -91.226 63.25 Q-89.8822 63.25 -88.8666 63.7344 L-89.2885 64.5938 Q-90.2728 64.1406 -91.2416 64.1406 ZM-86.515 71.9375 L-87.4838 71.9375 L-87.4838 62.8125 L-86.515 62.8125 L-86.515 71.9375 Z"/><path style="fill:none; stroke:black;" d="M-65.386 -7.75 L-64.953 -7.5 L-64.52 -7.75"/><path style="fill:none; stroke:black;" d="M-90.5 -22.25 L-90.933 -22.5 L-91.366 -22.25"/><path style="fill:none; stroke:black;" d="M-65.386 22.75 L-64.953 22.5 L-64.953 22"/><path style="fill:none; stroke:black;" d="M-116.48 -7.75 L-116.913 -7.5 L-116.913 -7"/><path style="fill:none; stroke:black;" d="M-90.5 37.25 L-90.933 37.5 L-90.933 38"/><path style="fill:none; stroke:black;" d="M-116.913 22 L-116.913 22.5 L-116.48 22.75"/></g></g></svg></svg><svg y="150" x="114" class="cas-substance-saf"><svg y="5" x="0" width="4" style="fill:black;" height="4" class="cas-substance-saf-dot"><circle stroke="none" r="2" fill="black" cy="2" cx="2"/></svg><svg y="0" x="8" width="22" style="fill:black;" height="15" class="cas-substance-saf-image"><svg><g><g transform="translate(6,8)" style="fill:rgb(0,138,0); text-rendering:geometricPrecision; color-rendering:optimizeQuality; image-rendering:optimizeQuality; font-family:'Open Sans'; stroke:rgb(0,138,0); color-interpolation:linearRGB;"><path style="stroke:none;" d="M3.2578 4.1562 L2.2578 4.1562 L2.2578 0.125 L-2.2578 0.125 L-2.2578 4.1562 L-3.2578 4.1562 L-3.2578 -4.4062 L-2.2578 -4.4062 L-2.2578 -0.7656 L2.2578 -0.7656 L2.2578 -4.4062 L3.2578 -4.4062 L3.2578 4.1562 Z"/><path style="stroke:none;" d="M8.3672 -3.6406 Q6.9609 -3.6406 6.1406 -2.7031 Q5.3203 -1.7656 5.3203 -0.125 Q5.3203 1.5469 6.1094 2.4688 Q6.8984 3.3906 8.3516 3.3906 Q9.2578 3.3906 10.3984 3.0625 L10.3984 3.9375 Q9.5078 4.2812 8.2109 4.2812 Q6.3203 4.2812 5.2891 3.125 Q4.2578 1.9688 4.2578 -0.1406 Q4.2578 -1.4688 4.75 -2.4609 Q5.2422 -3.4531 6.1797 -3.9922 Q7.1172 -4.5312 8.3828 -4.5312 Q9.7266 -4.5312 10.7422 -4.0469 L10.3203 -3.1875 Q9.3359 -3.6406 8.3672 -3.6406 ZM13.0938 4.1562 L12.125 4.1562 L12.125 -4.9688 L13.0938 -4.9688 L13.0938 4.1562 Z"/></g></g></svg></svg></svg></svg></svg>