<svg width="171" viewBox="0 0 171 141" style="fill-opacity:1; color-rendering:auto; color-interpolation:auto; text-rendering:auto; stroke:black; stroke-linecap:square; stroke-miterlimit:10; shape-rendering:auto; stroke-opacity:1; fill:black; stroke-dasharray:none; font-weight:normal; stroke-width:1; font-family:'Open Sans'; font-style:normal; stroke-linejoin:miter; font-size:12; stroke-dashoffset:0; image-rendering:auto;" height="141" class="cas-substance-image" xmlns:xlink="http://www.w3.org/1999/xlink" xmlns="http://www.w3.org/2000/svg"><svg class="cas-substance-single-component"><rect y="0" x="0" width="171" stroke="none" ry="7" rx="7" height="141" fill="white" class="cas-substance-group"/><svg y="0" x="0" width="171" viewBox="0 0 171 141" style="fill:black;" height="141" class="cas-substance-single-component-image"><svg><g><g transform="translate(85,72)" style="text-rendering:geometricPrecision; color-rendering:optimizeQuality; color-interpolation:linearRGB; stroke-linecap:butt; image-rendering:optimizeQuality;"><line y2="12.99" y1="12.99" x2="-7.5" x1="-32.1484" style="fill:none;"/><line y2="38.97" y1="18.8783" x2="-52.5" x1="-40.8997" style="fill:none;"/><line y2="-12.99" y1="6.8517" x2="-52.5" x1="-41.044" style="fill:none;"/><line y2="-12.99" y1="12.99" x2="7.5" x1="-7.5" style="fill:none;"/><line y2="64.953" y1="38.97" x2="-37.5" x1="-52.5" style="fill:none;"/><line y2="-12.99" y1="-12.99" x2="-82.5" x1="-52.5" style="fill:none;"/><line y2="-12.99" y1="-12.99" x2="37.5" x1="7.5" style="fill:none;"/><line y2="-38.97" y1="-12.99" x2="52.5" x1="37.5" style="fill:none;"/><line y2="-38.97" y1="-38.97" x2="82.5" x1="52.5" style="fill:none;"/><line y2="-59.0647" y1="-38.97" x2="40.8993" x1="52.5" style="fill:none;"/></g><g transform="translate(85,72)" style="fill:rgb(0,5,255); text-rendering:geometricPrecision; color-rendering:optimizeQuality; image-rendering:optimizeQuality; font-family:'Open Sans'; stroke:rgb(0,5,255); color-interpolation:linearRGB;"><path style="stroke:none;" d="M-34.1484 17.1462 L-35.2891 17.1462 L-39.9766 9.9587 L-40.0234 9.9587 Q-39.9297 11.2244 -39.9297 12.2712 L-39.9297 17.1462 L-40.8516 17.1462 L-40.8516 8.5837 L-39.7266 8.5837 L-35.0547 15.74 L-35.0078 15.74 Q-35.0078 15.5837 -35.0547 14.7244 Q-35.1016 13.865 -35.0859 13.49 L-35.0859 8.5837 L-34.1484 8.5837 L-34.1484 17.1462 Z"/></g><g transform="translate(85,72)" style="stroke-linecap:butt; text-rendering:geometricPrecision; color-rendering:optimizeQuality; image-rendering:optimizeQuality; font-family:'Open Sans'; color-interpolation:linearRGB; stroke-miterlimit:5;"><path style="fill:none;" d="M-8 12.99 L-7.5 12.99 L-7.25 12.557"/><path style="fill:none;" d="M-52.25 38.537 L-52.5 38.97 L-52.25 39.403"/><path style="fill:none;" d="M-52.25 -12.557 L-52.5 -12.99 L-53 -12.99"/><path style="fill:none;" d="M7.25 -12.557 L7.5 -12.99 L8 -12.99"/><path style="fill:none;" d="M37 -12.99 L37.5 -12.99 L37.75 -13.423"/><path style="fill:rgb(0,5,255); stroke:none;" d="M40.8516 -60.7968 L39.7109 -60.7968 L35.0234 -67.9843 L34.9766 -67.9843 Q35.0703 -66.7186 35.0703 -65.6718 L35.0703 -60.7968 L34.1484 -60.7968 L34.1484 -69.3593 L35.2734 -69.3593 L39.9453 -62.203 L39.9922 -62.203 Q39.9922 -62.3593 39.9453 -63.2186 Q39.8984 -64.078 39.9141 -64.453 L39.9141 -69.3593 L40.8516 -69.3593 L40.8516 -60.7968 Z"/><path style="fill:rgb(0,5,255); stroke:none;" d="M28.3984 -60.7968 L27.3984 -60.7968 L27.3984 -64.828 L22.8828 -64.828 L22.8828 -60.7968 L21.8828 -60.7968 L21.8828 -69.3593 L22.8828 -69.3593 L22.8828 -65.7186 L27.3984 -65.7186 L27.3984 -69.3593 L28.3984 -69.3593 L28.3984 -60.7968 Z"/><path style="fill:rgb(0,5,255); stroke:none;" d="M33.1484 -58.9874 L29.3984 -58.9874 L29.3984 -59.5499 L30.8984 -61.0655 Q31.5859 -61.753 31.8047 -62.0499 Q32.0234 -62.3468 32.1328 -62.628 Q32.2422 -62.9093 32.2422 -63.2374 Q32.2422 -63.6905 31.9688 -63.9561 Q31.6953 -64.2218 31.1953 -64.2218 Q30.8516 -64.2218 30.5312 -64.1046 Q30.2109 -63.9874 29.8203 -63.6905 L29.4766 -64.128 Q30.2578 -64.7843 31.1953 -64.7843 Q31.9922 -64.7843 32.4531 -64.3702 Q32.9141 -63.9561 32.9141 -63.2686 Q32.9141 -62.7218 32.6094 -62.1905 Q32.3047 -61.6593 31.4609 -60.8468 L30.2109 -59.628 L30.2109 -59.5968 L33.1484 -59.5968 L33.1484 -58.9874 Z"/></g></g></svg></svg></svg></svg>