<svg xmlns:ns0="http://www.w3.org/2000/svg" xmlns="http://www.w3.org/2000/svg"><g transform="translate(0, 0)"><ns0:svg width="172" viewBox="0 0 172 132" style="fill-opacity:1; color-rendering:auto; color-interpolation:auto; text-rendering:auto; stroke:black; stroke-linecap:square; stroke-miterlimit:10; shape-rendering:auto; stroke-opacity:1; fill:black; stroke-dasharray:none; font-weight:normal; stroke-width:1; font-family:'Open Sans'; font-style:normal; stroke-linejoin:miter; font-size:12; stroke-dashoffset:0; image-rendering:auto;" height="132" class="cas-substance-image"><ns0:svg class="cas-substance-single-component"><ns0:rect y="0" x="0" width="172" stroke="none" ry="7" rx="7" height="132" fill="white" class="cas-substance-group" /><ns0:svg y="0" x="0" width="172" viewBox="0 0 172 132" style="fill:black;" height="132" class="cas-substance-single-component-image"><ns0:svg><ns0:g><ns0:g transform="translate(86,64)" style="text-rendering:geometricPrecision; color-rendering:optimizeQuality; color-interpolation:linearRGB; stroke-linecap:butt; image-rendering:optimizeQuality;"><ns0:line y2="16.0977" y1="31.338" x2="8.8523" x1="-9.309" style="fill:none;" /><ns0:line y2="54.7396" y1="30.6469" x2="-6.9608" x1="-11.2078" style="fill:none;" /><ns0:line y2="54.132" y1="30.039" x2="-3.5139" x1="-7.761" style="fill:none;" /><ns0:line y2="21.078" y1="31.338" x2="-37.5" x1="-9.309" style="fill:none;" /><ns0:line y2="21.078" y1="50.622" x2="-37.5" x1="-42.708" style="fill:none;" /><ns0:line y2="-25.234" y1="-4.902" x2="19.239" x1="7.5" style="fill:none;" /><ns0:line y2="16.2254" y1="-4.902" x2="17.6775" x1="5.4793" style="fill:none;" /><ns0:line y2="14.4754" y1="-6.652" x2="20.7086" x1="8.5104" style="fill:none;" /><ns0:line y2="-4.902" y1="-4.902" x2="-17.1484" x1="7.5" style="fill:none;" /><ns0:line y2="-30.882" y1="-30.882" x2="52.5" x1="28.4375" style="fill:none;" /><ns0:line y2="-60.882" y1="-30.882" x2="52.5" x1="52.5" style="fill:none;" /><ns0:line y2="-30.882" y1="-30.882" x2="82.5" x1="52.5" style="fill:none;" /><ns0:line y2="-0.882" y1="-30.882" x2="52.5" x1="52.5" style="fill:none;" /><ns0:line y2="0.9863" y1="21.078" x2="-25.8997" x1="-37.5" style="fill:none;" /><ns0:line y2="21.078" y1="21.078" x2="-67.5" x1="-37.5" style="fill:none;" /><ns0:line y2="-30.882" y1="-11.0403" x2="-37.5" x1="-26.044" style="fill:none;" /><ns0:line y2="-4.902" y1="21.078" x2="-82.5" x1="-67.5" style="fill:none;" /><ns0:line y2="-30.882" y1="-30.882" x2="-67.5" x1="-37.5" style="fill:none;" /><ns0:line y2="-30.882" y1="-4.902" x2="-67.5" x1="-82.5" style="fill:none;" /><ns0:path style="fill:none; stroke-miterlimit:5;" d="M-8.926 31.0166 L-9.309 31.338 L-9.7788 31.167" /></ns0:g><ns0:g transform="translate(86,64)" style="stroke-linecap:butt; fill:rgb(230,0,0); text-rendering:geometricPrecision; color-rendering:optimizeQuality; image-rendering:optimizeQuality; font-family:'Open Sans'; stroke:rgb(230,0,0); color-interpolation:linearRGB; stroke-miterlimit:5;"><ns0:path style="stroke:none;" d="M17.6085 11.9837 Q17.6085 14.0462 16.5694 15.2259 Q15.5304 16.4056 13.6866 16.4056 Q11.796 16.4056 10.7648 15.2415 Q9.7335 14.0774 9.7335 11.9681 Q9.7335 9.8743 10.7648 8.7259 Q11.796 7.5774 13.6866 7.5774 Q15.546 7.5774 16.5773 8.7493 Q17.6085 9.9212 17.6085 11.9837 ZM10.7804 11.9837 Q10.7804 13.7181 11.5226 14.6243 Q12.2648 15.5306 13.6866 15.5306 Q15.1085 15.5306 15.8351 14.6321 Q16.5616 13.7337 16.5616 11.9837 Q16.5616 10.2493 15.8351 9.3587 Q15.1085 8.4681 13.6866 8.4681 Q12.2648 8.4681 11.5226 9.3665 Q10.7804 10.2649 10.7804 11.9837 Z" /><ns0:path style="stroke:none;" d="M25.1241 16.2806 L24.1241 16.2806 L24.1241 12.2493 L19.6085 12.2493 L19.6085 16.2806 L18.6085 16.2806 L18.6085 7.7181 L19.6085 7.7181 L19.6085 11.3587 L24.1241 11.3587 L24.1241 7.7181 L25.1241 7.7181 L25.1241 16.2806 Z" /><ns0:path style="stroke:none;" d="M-0.1635 60.8117 Q-0.1635 62.8742 -1.2026 64.0539 Q-2.2416 65.2336 -4.0854 65.2336 Q-5.976 65.2336 -7.0072 64.0695 Q-8.0385 62.9054 -8.0385 60.7961 Q-8.0385 58.7023 -7.0072 57.5539 Q-5.976 56.4054 -4.0854 56.4054 Q-2.226 56.4054 -1.1947 57.5773 Q-0.1635 58.7492 -0.1635 60.8117 ZM-6.9916 60.8117 Q-6.9916 62.5461 -6.2494 63.4523 Q-5.5072 64.3586 -4.0854 64.3586 Q-2.6635 64.3586 -1.9369 63.4601 Q-1.2104 62.5617 -1.2104 60.8117 Q-1.2104 59.0773 -1.9369 58.1867 Q-2.6635 57.2961 -4.0854 57.2961 Q-5.5072 57.2961 -6.2494 58.1945 Q-6.9916 59.0929 -6.9916 60.8117 Z" /><ns0:path style="fill:none; stroke:black;" d="M7.75 -5.335 L7.5 -4.902 L7 -4.902" /><ns0:path style="stroke:none;" d="M26.4375 -30.9523 Q26.4375 -28.8898 25.3984 -27.7101 Q24.3594 -26.5304 22.5156 -26.5304 Q20.625 -26.5304 19.5938 -27.6945 Q18.5625 -28.8586 18.5625 -30.9679 Q18.5625 -33.0617 19.5938 -34.2101 Q20.625 -35.3586 22.5156 -35.3586 Q24.375 -35.3586 25.4062 -34.1867 Q26.4375 -33.0148 26.4375 -30.9523 ZM19.6094 -30.9523 Q19.6094 -29.2179 20.3516 -28.3117 Q21.0938 -27.4054 22.5156 -27.4054 Q23.9375 -27.4054 24.6641 -28.3039 Q25.3906 -29.2023 25.3906 -30.9523 Q25.3906 -32.6867 24.6641 -33.5773 Q23.9375 -34.4679 22.5156 -34.4679 Q21.0938 -34.4679 20.3516 -33.5695 Q19.6094 -32.6711 19.6094 -30.9523 Z" /><ns0:path style="stroke:none;" d="M26.4375 21.0077 Q26.4375 23.0702 25.3984 24.2499 Q24.3594 25.4296 22.5156 25.4296 Q20.625 25.4296 19.5938 24.2655 Q18.5625 23.1014 18.5625 20.9921 Q18.5625 18.8983 19.5938 17.7499 Q20.625 16.6014 22.5156 16.6014 Q24.375 16.6014 25.4062 17.7733 Q26.4375 18.9452 26.4375 21.0077 ZM19.6094 21.0077 Q19.6094 22.7421 20.3516 23.6483 Q21.0938 24.5546 22.5156 24.5546 Q23.9375 24.5546 24.6641 23.6561 Q25.3906 22.7577 25.3906 21.0077 Q25.3906 19.2733 24.6641 18.3827 Q23.9375 17.4921 22.5156 17.4921 Q21.0938 17.4921 20.3516 18.3905 Q19.6094 19.2889 19.6094 21.0077 Z" /><ns0:path style="fill:rgb(0,5,255); stroke:none;" d="M-19.1484 -0.7457 L-20.2891 -0.7457 L-24.9766 -7.9332 L-25.0234 -7.9332 Q-24.9297 -6.6676 -24.9297 -5.6207 L-24.9297 -0.7457 L-25.8516 -0.7457 L-25.8516 -9.3083 L-24.7266 -9.3083 L-20.0547 -2.152 L-20.0078 -2.152 Q-20.0078 -2.3082 -20.0547 -3.1676 Q-20.1016 -4.027 -20.0859 -4.402 L-20.0859 -9.3083 L-19.1484 -9.3083 L-19.1484 -0.7457 Z" /><ns0:path style="fill:none; stroke:black;" d="M-67 21.078 L-67.5 21.078 L-67.75 20.645" /><ns0:path style="fill:none; stroke:black;" d="M-37.25 -30.449 L-37.5 -30.882 L-38 -30.882" /><ns0:path style="fill:none; stroke:black;" d="M-82.25 -4.469 L-82.5 -4.902 L-82.25 -5.335" /><ns0:path style="fill:none; stroke:black;" d="M-67 -30.882 L-67.5 -30.882 L-67.75 -30.449" /></ns0:g></ns0:g></ns0:svg></ns0:svg></ns0:svg></ns0:svg></g></svg>