<svg width="129" viewBox="0 0 129 69" style="fill-opacity:1; color-rendering:auto; color-interpolation:auto; text-rendering:auto; stroke:black; stroke-linecap:square; stroke-miterlimit:10; shape-rendering:auto; stroke-opacity:1; fill:black; stroke-dasharray:none; font-weight:normal; stroke-width:1; font-family:'Open Sans'; font-style:normal; stroke-linejoin:miter; font-size:12; stroke-dashoffset:0; image-rendering:auto;" height="69" class="cas-substance-image" xmlns:xlink="http://www.w3.org/1999/xlink" xmlns="http://www.w3.org/2000/svg"><svg class="cas-substance-single-component"><rect y="0" x="0" width="129" stroke="none" ry="7" rx="7" height="69" fill="white" class="cas-substance-group"/><svg y="0" x="0" width="129" viewBox="0 0 129 69" style="fill:black;" height="69" class="cas-substance-single-component-image"><svg><g><g transform="translate(71,39)" style="text-rendering:geometricPrecision; color-rendering:optimizeQuality; color-interpolation:linearRGB; stroke-linecap:butt; image-rendering:optimizeQuality;"><line y2="-7.5" y1="-19.5649" x2="25.98" x1="5.0836" style="fill:none;"/><line y2="-7.5" y1="-19.5649" x2="-25.98" x1="-5.0836" style="fill:none;"/><line y2="22.5" y1="-7.5" x2="25.98" x1="25.98" style="fill:none;"/><line y2="-17.7959" y1="-5.4793" x2="47.3147" x1="25.98" style="fill:none;"/><line y2="-20.827" y1="-8.5104" x2="45.5648" x1="24.23" style="fill:none;"/><line y2="-19.5652" y1="-7.5" x2="-46.8794" x1="-25.98" style="fill:none;"/><line y2="16.0234" y1="-8.5103" x2="-27.73" x1="-27.73" style="fill:none;"/><line y2="16.0234" y1="-8.5104" x2="-24.23" x1="-24.23" style="fill:none;"/></g><g transform="translate(71,39)" style="fill:rgb(0,5,255); text-rendering:geometricPrecision; color-rendering:optimizeQuality; image-rendering:optimizeQuality; font-family:'Open Sans'; stroke:rgb(0,5,255); color-interpolation:linearRGB;"><path style="stroke:none;" d="M3.3516 -18.3438 L2.2109 -18.3438 L-2.4766 -25.5312 L-2.5234 -25.5312 Q-2.4297 -24.2656 -2.4297 -23.2188 L-2.4297 -18.3438 L-3.3516 -18.3438 L-3.3516 -26.9062 L-2.2266 -26.9062 L2.4453 -19.75 L2.4922 -19.75 Q2.4922 -19.9062 2.4453 -20.7656 Q2.3984 -21.625 2.4141 -22 L2.4141 -26.9062 L3.3516 -26.9062 L3.3516 -18.3438 Z"/><path style="stroke:none;" d="M3.2578 -27.9062 L2.2578 -27.9062 L2.2578 -31.9375 L-2.2578 -31.9375 L-2.2578 -27.9062 L-3.2578 -27.9062 L-3.2578 -36.4688 L-2.2578 -36.4688 L-2.2578 -32.8281 L2.2578 -32.8281 L2.2578 -36.4688 L3.2578 -36.4688 L3.2578 -27.9062 Z"/></g><g transform="translate(71,39)" style="stroke-linecap:butt; text-rendering:geometricPrecision; color-rendering:optimizeQuality; image-rendering:optimizeQuality; font-family:'Open Sans'; color-interpolation:linearRGB; stroke-miterlimit:5;"><path style="fill:none;" d="M25.547 -7.75 L25.98 -7.5 L25.98 -7"/><path style="fill:none;" d="M-25.547 -7.75 L-25.98 -7.5 L-26.413 -7.75"/><path style="fill:rgb(230,0,0); stroke:none;" d="M55.9005 -22.5703 Q55.9005 -20.5078 54.8614 -19.3281 Q53.8224 -18.1484 51.9786 -18.1484 Q50.088 -18.1484 49.0568 -19.3125 Q48.0255 -20.4766 48.0255 -22.5859 Q48.0255 -24.6797 49.0568 -25.8281 Q50.088 -26.9766 51.9786 -26.9766 Q53.838 -26.9766 54.8693 -25.8047 Q55.9005 -24.6328 55.9005 -22.5703 ZM49.0724 -22.5703 Q49.0724 -20.8359 49.8146 -19.9297 Q50.5568 -19.0234 51.9786 -19.0234 Q53.4005 -19.0234 54.1271 -19.9219 Q54.8536 -20.8203 54.8536 -22.5703 Q54.8536 -24.3047 54.1271 -25.1953 Q53.4005 -26.0859 51.9786 -26.0859 Q50.5568 -26.0859 49.8146 -25.1875 Q49.0724 -24.2891 49.0724 -22.5703 Z"/><path style="fill:rgb(0,5,255); stroke:none;" d="M-48.6114 -18.3438 L-49.7521 -18.3438 L-54.4396 -25.5312 L-54.4864 -25.5312 Q-54.3927 -24.2656 -54.3927 -23.2188 L-54.3927 -18.3438 L-55.3146 -18.3438 L-55.3146 -26.9062 L-54.1896 -26.9062 L-49.5177 -19.75 L-49.4708 -19.75 Q-49.4708 -19.9062 -49.5177 -20.7656 Q-49.5646 -21.625 -49.5489 -22 L-49.5489 -26.9062 L-48.6114 -26.9062 L-48.6114 -18.3438 Z"/><path style="fill:rgb(0,5,255); stroke:none;" d="M-61.0646 -18.3438 L-62.0646 -18.3438 L-62.0646 -22.375 L-66.5802 -22.375 L-66.5802 -18.3438 L-67.5802 -18.3438 L-67.5802 -26.9062 L-66.5802 -26.9062 L-66.5802 -23.2656 L-62.0646 -23.2656 L-62.0646 -26.9062 L-61.0646 -26.9062 L-61.0646 -18.3438 Z"/><path style="fill:rgb(0,5,255); stroke:none;" d="M-56.3146 -16.5344 L-60.0646 -16.5344 L-60.0646 -17.0969 L-58.5646 -18.6125 Q-57.8771 -19.3 -57.6583 -19.5969 Q-57.4396 -19.8937 -57.3302 -20.175 Q-57.2208 -20.4562 -57.2208 -20.7844 Q-57.2208 -21.2375 -57.4943 -21.5031 Q-57.7677 -21.7687 -58.2677 -21.7687 Q-58.6114 -21.7687 -58.9318 -21.6516 Q-59.2521 -21.5344 -59.6427 -21.2375 L-59.9864 -21.675 Q-59.2052 -22.3312 -58.2677 -22.3312 Q-57.4708 -22.3312 -57.0099 -21.9172 Q-56.5489 -21.5031 -56.5489 -20.8156 Q-56.5489 -20.2687 -56.8536 -19.7375 Q-57.1583 -19.2062 -58.0021 -18.3937 L-59.2521 -17.175 L-59.2521 -17.1437 L-56.3146 -17.1437 L-56.3146 -16.5344 Z"/><path style="fill:rgb(230,0,0); stroke:none;" d="M-22.0425 22.4297 Q-22.0425 24.4922 -23.0816 25.6719 Q-24.1206 26.8516 -25.9644 26.8516 Q-27.855 26.8516 -28.8862 25.6875 Q-29.9175 24.5234 -29.9175 22.4141 Q-29.9175 20.3203 -28.8862 19.1719 Q-27.855 18.0234 -25.9644 18.0234 Q-24.105 18.0234 -23.0737 19.1953 Q-22.0425 20.3672 -22.0425 22.4297 ZM-28.8706 22.4297 Q-28.8706 24.1641 -28.1284 25.0703 Q-27.3862 25.9766 -25.9644 25.9766 Q-24.5425 25.9766 -23.8159 25.0781 Q-23.0894 24.1797 -23.0894 22.4297 Q-23.0894 20.6953 -23.8159 19.8047 Q-24.5425 18.9141 -25.9644 18.9141 Q-27.3862 18.9141 -28.1284 19.8125 Q-28.8706 20.7109 -28.8706 22.4297 Z"/></g></g></svg></svg></svg></svg>