<svg width="244" viewBox="0 0 244 101" style="fill-opacity:1; color-rendering:auto; color-interpolation:auto; text-rendering:auto; stroke:black; stroke-linecap:square; stroke-miterlimit:10; shape-rendering:auto; stroke-opacity:1; fill:black; stroke-dasharray:none; font-weight:normal; stroke-width:1; font-family:'Open Sans'; font-style:normal; stroke-linejoin:miter; font-size:12; stroke-dashoffset:0; image-rendering:auto;" height="101" class="cas-substance-image" xmlns:xlink="http://www.w3.org/1999/xlink" xmlns="http://www.w3.org/2000/svg"><svg class="cas-substance-single-component"><rect y="0" x="0" width="244" stroke="none" ry="7" rx="7" height="101" fill="white" class="cas-substance-group"/><svg y="0" x="0" width="244" viewBox="0 0 244 101" style="fill:black;" height="101" class="cas-substance-single-component-image"><svg><g><g transform="translate(120,49)" style="text-rendering:geometricPrecision; color-rendering:optimizeQuality; color-interpolation:linearRGB; stroke-linecap:butt; image-rendering:optimizeQuality;"><line y2="3.1786" y1="15" x2="-7.4846" x1="12.99" style="fill:none;"/><line y2="38.5234" y1="13.9896" x2="11.24" x1="11.24" style="fill:none;"/><line y2="38.5234" y1="13.9896" x2="14.74" x1="14.74" style="fill:none;"/><line y2="2.9351" y1="15" x2="33.8864" x1="12.99" style="fill:none;"/><line y2="15" y1="3.1888" x2="-38.97" x1="-18.513" style="fill:none;"/><line y2="0" y1="15" x2="-64.953" x1="-38.97" style="fill:none;"/><line y2="-2.0207" y1="10.2431" x2="90.933" x1="112.1739" style="fill:none;"/><line y2="1.0104" y1="13.2741" x2="89.183" x1="110.4238" style="fill:none;"/><line y2="15" y1="2.9348" x2="64.953" x1="44.0536" style="fill:none;"/><line y2="-30" y1="-6.4062" x2="38.97" x1="38.97" style="fill:none;"/><line y2="0" y1="15" x2="90.933" x1="64.953" style="fill:none;"/><line y2="-45" y1="-30" x2="64.953" x1="38.97" style="fill:none;"/><line y2="-30" y1="0" x2="90.933" x1="90.933" style="fill:none;"/><line y2="-30" y1="-45" x2="90.933" x1="64.953" style="fill:none;"/><line y2="15" y1="0" x2="-90.933" x1="-64.953" style="fill:none;"/><line y2="10.9585" y1="-2.0207" x2="-90.9331" x1="-68.453" style="fill:none;"/><line y2="-30" y1="0" x2="-64.953" x1="-64.953" style="fill:none;"/><line y2="0" y1="15" x2="-116.913" x1="-90.933" style="fill:none;"/><line y2="-45" y1="-30" x2="-90.933" x1="-64.953" style="fill:none;"/><line y2="-40.9585" y1="-27.9793" x2="-90.9331" x1="-68.453" style="fill:none;"/><line y2="-30" y1="0" x2="-116.913" x1="-116.913" style="fill:none;"/><line y2="-27.9793" y1="-2.0207" x2="-113.413" x1="-113.413" style="fill:none;"/><line y2="-30" y1="-45" x2="-116.913" x1="-90.933" style="fill:none;"/><path style="fill:none; stroke-miterlimit:5;" d="M12.557 14.75 L12.99 15 L13.423 14.75"/></g><g transform="translate(120,49)" style="stroke-linecap:butt; fill:rgb(230,0,0); text-rendering:geometricPrecision; color-rendering:optimizeQuality; image-rendering:optimizeQuality; font-family:'Open Sans'; stroke:rgb(230,0,0); color-interpolation:linearRGB; stroke-miterlimit:5;"><path style="stroke:none;" d="M-9.0525 -0.0703 Q-9.0525 1.9922 -10.0916 3.1719 Q-11.1306 4.3516 -12.9744 4.3516 Q-14.865 4.3516 -15.8962 3.1875 Q-16.9275 2.0234 -16.9275 -0.0859 Q-16.9275 -2.1797 -15.8962 -3.3281 Q-14.865 -4.4766 -12.9744 -4.4766 Q-11.115 -4.4766 -10.0837 -3.3047 Q-9.0525 -2.1328 -9.0525 -0.0703 ZM-15.8806 -0.0703 Q-15.8806 1.6641 -15.1384 2.5703 Q-14.3962 3.4766 -12.9744 3.4766 Q-11.5525 3.4766 -10.8259 2.5781 Q-10.0994 1.6797 -10.0994 -0.0703 Q-10.0994 -1.8047 -10.8259 -2.6953 Q-11.5525 -3.5859 -12.9744 -3.5859 Q-14.3962 -3.5859 -15.1384 -2.6875 Q-15.8806 -1.7891 -15.8806 -0.0703 Z"/><path style="stroke:none;" d="M16.9275 44.9297 Q16.9275 46.9922 15.8884 48.1719 Q14.8494 49.3516 13.0056 49.3516 Q11.115 49.3516 10.0837 48.1875 Q9.0525 47.0234 9.0525 44.9141 Q9.0525 42.8203 10.0837 41.6719 Q11.115 40.5234 13.0056 40.5234 Q14.865 40.5234 15.8962 41.6953 Q16.9275 42.8672 16.9275 44.9297 ZM10.0994 44.9297 Q10.0994 46.6641 10.8416 47.5703 Q11.5837 48.4766 13.0056 48.4766 Q14.4275 48.4766 15.1541 47.5781 Q15.8806 46.6797 15.8806 44.9297 Q15.8806 43.1953 15.1541 42.3047 Q14.4275 41.4141 13.0056 41.4141 Q11.5837 41.4141 10.8416 42.3125 Q10.0994 43.2109 10.0994 44.9297 Z"/><path style="fill:none; stroke:black;" d="M-38.537 14.75 L-38.97 15 L-39.403 14.75"/><path style="stroke:none;" d="M120.8505 14.9297 Q120.8505 16.9922 119.8114 18.1719 Q118.7724 19.3516 116.9286 19.3516 Q115.038 19.3516 114.0068 18.1875 Q112.9755 17.0234 112.9755 14.9141 Q112.9755 12.8203 114.0068 11.6719 Q115.038 10.5234 116.9286 10.5234 Q118.788 10.5234 119.8193 11.6953 Q120.8505 12.8672 120.8505 14.9297 ZM114.0224 14.9297 Q114.0224 16.6641 114.7646 17.5703 Q115.5068 18.4766 116.9286 18.4766 Q118.3505 18.4766 119.0771 17.5781 Q119.8036 16.6797 119.8036 14.9297 Q119.8036 13.1953 119.0771 12.3047 Q118.3505 11.4141 116.9286 11.4141 Q115.5068 11.4141 114.7646 12.3125 Q114.0224 13.2109 114.0224 14.9297 Z"/><path style="fill:rgb(0,5,255); stroke:none;" d="M42.3216 4.1562 L41.1809 4.1562 L36.4934 -3.0312 L36.4466 -3.0312 Q36.5403 -1.7656 36.5403 -0.7188 L36.5403 4.1562 L35.6184 4.1562 L35.6184 -4.4062 L36.7434 -4.4062 L41.4153 2.75 L41.4622 2.75 Q41.4622 2.5938 41.4153 1.7344 Q41.3684 0.875 41.3841 0.5 L41.3841 -4.4062 L42.3216 -4.4062 L42.3216 4.1562 Z"/><path style="fill:none; stroke:black;" d="M64.52 14.75 L64.953 15 L65.386 14.75"/><path style="fill:none; stroke:black;" d="M38.97 -29.5 L38.97 -30 L39.403 -30.25"/><path style="fill:none; stroke:black;" d="M90.5 0.25 L90.933 0 L90.933 -0.5"/><path style="fill:none; stroke:black;" d="M64.52 -44.75 L64.953 -45 L65.386 -44.75"/><path style="fill:none; stroke:black;" d="M90.933 -29.5 L90.933 -30 L90.5 -30.25"/><path style="fill:none; stroke:black;" d="M-65.386 0.25 L-64.953 0 L-64.953 -0.5"/><path style="fill:none; stroke:black;" d="M-90.5 14.75 L-90.933 15 L-91.366 14.75"/><path style="fill:none; stroke:black;" d="M-64.953 -29.5 L-64.953 -30 L-65.386 -30.25"/><path style="fill:none; stroke:black;" d="M-116.48 0.25 L-116.913 0 L-116.913 -0.5"/><path style="fill:none; stroke:black;" d="M-90.5 -44.75 L-90.933 -45 L-91.366 -44.75"/><path style="fill:none; stroke:black;" d="M-116.913 -29.5 L-116.913 -30 L-116.48 -30.25"/></g></g></svg></svg></svg></svg>