<svg xmlns:ns0="http://www.w3.org/2000/svg" xmlns="http://www.w3.org/2000/svg"><g transform="translate(0, 0)"><ns0:svg width="154" viewBox="0 0 154 129" style="fill-opacity:1; color-rendering:auto; color-interpolation:auto; text-rendering:auto; stroke:black; stroke-linecap:square; stroke-miterlimit:10; shape-rendering:auto; stroke-opacity:1; fill:black; stroke-dasharray:none; font-weight:normal; stroke-width:1; font-family:'Open Sans'; font-style:normal; stroke-linejoin:miter; font-size:12; stroke-dashoffset:0; image-rendering:auto;" height="129" class="cas-substance-image"><ns0:svg class="cas-substance-single-component"><ns0:rect y="0" x="0" width="154" stroke="none" ry="7" rx="7" height="129" fill="white" class="cas-substance-group" /><ns0:svg y="0" x="0" width="154" viewBox="0 0 154 129" style="fill:black;" height="129" class="cas-substance-single-component-image"><ns0:svg><ns0:g><ns0:g transform="translate(76,64)" style="text-rendering:geometricPrecision; color-rendering:optimizeQuality; color-interpolation:linearRGB; stroke-linecap:butt; image-rendering:optimizeQuality;"><ns0:line y2="-2.0502" y1="-13.809" x2="66.6077" x1="46.239" style="fill:none;" /><ns0:line y2="0.981" y1="-9.7675" x2="64.8578" x1="46.2392" style="fill:none;" /><ns0:line y2="1.191" y1="-13.809" x2="20.259" x1="46.239" style="fill:none;" /><ns0:line y2="13.392" y1="1.191" x2="-7.146" x1="20.259" style="fill:none;" /><ns0:line y2="-22.3034" y1="1.191" x2="17.7903" x1="20.259" style="fill:none;" /><ns0:line y2="18.825" y1="1.191" x2="44.529" x1="20.259" style="fill:none;" /><ns0:line y2="-8.901" y1="13.392" x2="-27.222" x1="-7.146" style="fill:none;" /><ns0:line y2="43.23" y1="13.392" x2="-10.284" x1="-7.146" style="fill:none;" /><ns0:line y2="-34.881" y1="-29.8966" x2="-12.222" x1="11.2302" style="fill:none;" /><ns0:line y2="48.66" y1="18.825" x2="41.394" x1="44.529" style="fill:none;" /><ns0:line y2="-34.881" y1="-8.901" x2="-12.222" x1="-27.222" style="fill:none;" /><ns0:line y2="-8.901" y1="-8.901" x2="-57.222" x1="-27.222" style="fill:none;" /><ns0:line y2="60.864" y1="43.23" x2="13.989" x1="-10.284" style="fill:none;" /><ns0:line y2="-60.864" y1="-34.881" x2="-27.222" x1="-12.222" style="fill:none;" /><ns0:line y2="60.864" y1="48.66" x2="13.989" x1="41.394" style="fill:none;" /><ns0:line y2="56.8447" y1="46.2847" x2="14.4111" x1="38.1242" style="fill:none;" /><ns0:line y2="-34.881" y1="-8.901" x2="-72.222" x1="-57.222" style="fill:none;" /><ns0:line y2="-60.864" y1="-60.864" x2="-57.222" x1="-27.222" style="fill:none;" /><ns0:line y2="-60.864" y1="-34.881" x2="-57.222" x1="-72.222" style="fill:none;" /><ns0:line y2="-57.3641" y1="-34.8812" x2="-55.2011" x1="-68.1805" style="fill:none;" /><ns0:path style="fill:none; stroke-miterlimit:5;" d="M46.672 -13.559 L46.239 -13.809 L45.806 -13.559" /></ns0:g><ns0:g transform="translate(75.1251,65.5156)" style="stroke-linecap:butt; fill:rgb(230,0,0); text-rendering:geometricPrecision; color-rendering:optimizeQuality; image-rendering:optimizeQuality; font-family:'Open Sans'; stroke:rgb(230,0,0); color-interpolation:linearRGB; stroke-miterlimit:5;"><ns0:path style="stroke:none;" d="M76.1595 1.1207 Q76.1595 3.1832 75.1204 4.3629 Q74.0814 5.5426 72.2376 5.5426 Q70.347 5.5426 69.3158 4.3785 Q68.2845 3.2144 68.2845 1.1051 Q68.2845 -0.9887 69.3158 -2.1371 Q70.347 -3.2856 72.2376 -3.2856 Q74.097 -3.2856 75.1283 -2.1137 Q76.1595 -0.9418 76.1595 1.1207 ZM69.3314 1.1207 Q69.3314 2.8551 70.0736 3.7613 Q70.8158 4.6676 72.2376 4.6676 Q73.6595 4.6676 74.3861 3.7691 Q75.1126 2.8707 75.1126 1.1207 Q75.1126 -0.6137 74.3861 -1.5043 Q73.6595 -2.3949 72.2376 -2.3949 Q70.8158 -2.3949 70.0736 -1.4965 Q69.3314 -0.5981 69.3314 1.1207 Z" /></ns0:g><ns0:g transform="matrix(1,0,0,1,76,64)" style="stroke-linecap:butt; fill:rgb(230,0,0); text-rendering:geometricPrecision; color-rendering:optimizeQuality; image-rendering:optimizeQuality; font-family:'Open Sans'; stroke:rgb(230,0,0); color-interpolation:linearRGB; stroke-miterlimit:5;"><ns0:path style="stroke:none;" d="M21.0615 -28.7143 Q21.0615 -26.6518 20.0224 -25.4721 Q18.9834 -24.2924 17.1396 -24.2924 Q15.249 -24.2924 14.2178 -25.4565 Q13.1865 -26.6206 13.1865 -28.7299 Q13.1865 -30.8237 14.2178 -31.9721 Q15.249 -33.1206 17.1396 -33.1206 Q18.999 -33.1206 20.0303 -31.9487 Q21.0615 -30.7768 21.0615 -28.7143 ZM14.2334 -28.7143 Q14.2334 -26.9799 14.9756 -26.0737 Q15.7178 -25.1674 17.1396 -25.1674 Q18.5615 -25.1674 19.2881 -26.0659 Q20.0146 -26.9643 20.0146 -28.7143 Q20.0146 -30.4487 19.2881 -31.3393 Q18.5615 -32.2299 17.1396 -32.2299 Q15.7178 -32.2299 14.9756 -31.3315 Q14.2334 -30.4331 14.2334 -28.7143 Z" /><ns0:path style="fill:none; stroke:black;" d="M44.1245 18.5311 L44.529 18.825 L44.4767 19.3223" /><ns0:path style="fill:none; stroke:black;" d="M-10.2317 42.7327 L-10.284 43.23 L-9.8795 43.5239" /><ns0:path style="fill:none; stroke:black;" d="M41.4462 48.1627 L41.394 48.66 L40.9372 48.8634" /><ns0:path style="fill:none; stroke:black;" d="M-56.722 -8.901 L-57.222 -8.901 L-57.472 -9.334" /><ns0:path style="fill:none; stroke:black;" d="M13.5845 60.5701 L13.989 60.864 L14.4458 60.6606" /><ns0:path style="fill:none; stroke:black;" d="M-26.972 -60.431 L-27.222 -60.864 L-27.722 -60.864" /><ns0:path style="fill:none; stroke:black;" d="M-71.972 -34.448 L-72.222 -34.881 L-71.972 -35.314" /><ns0:path style="fill:none; stroke:black;" d="M-56.722 -60.864 L-57.222 -60.864 L-57.472 -60.431" /></ns0:g></ns0:g></ns0:svg></ns0:svg></ns0:svg></ns0:svg></g></svg>