<svg xmlns:ns0="http://www.w3.org/2000/svg" xmlns="http://www.w3.org/2000/svg"><g transform="translate(0, 0)"><ns0:svg width="248" viewBox="0 0 248 184" style="fill-opacity:1; color-rendering:auto; color-interpolation:auto; text-rendering:auto; stroke:black; stroke-linecap:square; stroke-miterlimit:10; shape-rendering:auto; stroke-opacity:1; fill:black; stroke-dasharray:none; font-weight:normal; stroke-width:1; font-family:'Open Sans'; font-style:normal; stroke-linejoin:miter; font-size:12; stroke-dashoffset:0; image-rendering:auto;" height="184" class="cas-substance-image"><ns0:svg class="cas-substance-single-component"><ns0:rect y="0" x="0" width="248" stroke="none" ry="7" rx="7" height="184" fill="white" class="cas-substance-group" /><ns0:svg y="0" x="0" width="248" viewBox="0 0 248 184" style="fill:black;" height="184" class="cas-substance-single-component-image"><ns0:svg><ns0:g><ns0:g transform="translate(124,89)" style="text-rendering:geometricPrecision; color-rendering:optimizeQuality; color-interpolation:linearRGB; stroke-linecap:butt; image-rendering:optimizeQuality;"><ns0:line y2="-63.681" y1="-43.605" x2="5.43" x1="-16.866" style="fill:none;" /><ns0:line y2="-20.6245" y1="-43.605" x2="-11.9814" x1="-16.866" style="fill:none;" /><ns0:line y2="-85.974" y1="-63.681" x2="-14.646" x1="5.43" style="fill:none;" /><ns0:line y2="-83.754" y1="-63.681" x2="27.723" x1="5.43" style="fill:none;" /><ns0:line y2="-46.1494" y1="-63.681" x2="21.2136" x1="5.43" style="fill:none;" /><ns0:line y2="-5.3024" y1="-17.061" x2="63.1249" x1="42.759" style="fill:none;" /><ns0:line y2="-2.061" y1="-17.061" x2="16.779" x1="42.759" style="fill:none;" /><ns0:line y2="-17.061" y1="-5.2868" x2="94.722" x1="74.3267" style="fill:none;" /><ns0:line y2="-2.061" y1="-17.061" x2="120.702" x1="94.722" style="fill:none;" /><ns0:line y2="59.994" y1="79.8357" x2="-30.702" x1="-19.246" style="fill:none;" /><ns0:line y2="-9.0535" y1="8.031" x2="-15.3188" x1="-30.702" style="fill:none;" /><ns0:line y2="8.031" y1="8.031" x2="-60.702" x1="-30.702" style="fill:none;" /><ns0:line y2="34.014" y1="8.031" x2="-15.702" x1="-30.702" style="fill:none;" /><ns0:line y2="30.5141" y1="8.0311" x2="-13.6811" x1="-26.6605" style="fill:none;" /><ns0:line y2="-2.061" y1="-11.9566" x2="16.779" x1="-5.4503" style="fill:none;" /><ns0:line y2="34.014" y1="8.031" x2="-75.702" x1="-60.702" style="fill:none;" /><ns0:line y2="-17.949" y1="8.031" x2="-75.702" x1="-60.702" style="fill:none;" /><ns0:line y2="-14.449" y1="8.0311" x2="-77.7227" x1="-64.7435" style="fill:none;" /><ns0:line y2="28.9051" y1="34.014" x2="8.3361" x1="-15.702" style="fill:none;" /><ns0:line y2="59.994" y1="34.014" x2="-30.702" x1="-15.702" style="fill:none;" /><ns0:line y2="21.3817" y1="-2.061" x2="14.3159" x1="16.779" style="fill:none;" /><ns0:line y2="21.016" y1="-0.4171" x2="10.8351" x1="13.087" style="fill:none;" /><ns0:line y2="53.8557" y1="34.014" x2="-64.246" x1="-75.702" style="fill:none;" /><ns0:line y2="34.014" y1="34.014" x2="-105.702" x1="-75.702" style="fill:none;" /><ns0:line y2="30.514" y1="30.514" x2="-103.6813" x1="-77.7227" style="fill:none;" /><ns0:line y2="-17.949" y1="-17.949" x2="-105.702" x1="-75.702" style="fill:none;" /><ns0:line y2="59.994" y1="59.994" x2="-55.3504" x1="-30.702" style="fill:none;" /><ns0:line y2="56.494" y1="56.494" x2="-55.3504" x1="-32.7227" style="fill:none;" /><ns0:line y2="8.031" y1="34.014" x2="-120.702" x1="-105.702" style="fill:none;" /><ns0:line y2="8.031" y1="-17.949" x2="-120.702" x1="-105.702" style="fill:none;" /><ns0:line y2="8.031" y1="-14.449" x2="-116.6605" x1="-103.6813" style="fill:none;" /><ns0:path style="fill:none; stroke-miterlimit:5;" d="M-16.4944 -43.9396 L-16.866 -43.605 L-16.762 -43.1159" /></ns0:g><ns0:g transform="translate(124,89)" style="stroke-linecap:butt; fill:rgb(230,0,0); text-rendering:geometricPrecision; color-rendering:optimizeQuality; image-rendering:optimizeQuality; font-family:'Open Sans'; stroke:rgb(230,0,0); color-interpolation:linearRGB; stroke-miterlimit:5;"><ns0:path style="stroke:none;" d="M29.4405 -41.4553 Q29.4405 -39.3928 28.4014 -38.2131 Q27.3624 -37.0334 25.5186 -37.0334 Q23.628 -37.0334 22.5968 -38.1975 Q21.5655 -39.3616 21.5655 -41.4709 Q21.5655 -43.5647 22.5968 -44.7131 Q23.628 -45.8616 25.5186 -45.8616 Q27.378 -45.8616 28.4093 -44.6897 Q29.4405 -43.5178 29.4405 -41.4553 ZM22.6124 -41.4553 Q22.6124 -39.7209 23.3546 -38.8147 Q24.0968 -37.9084 25.5186 -37.9084 Q26.9405 -37.9084 27.6671 -38.8069 Q28.3936 -39.7053 28.3936 -41.4553 Q28.3936 -43.1897 27.6671 -44.0803 Q26.9405 -44.9709 25.5186 -44.9709 Q24.0968 -44.9709 23.3546 -44.0725 Q22.6124 -43.1741 22.6124 -41.4553 Z" /><ns0:path style="stroke:none;" d="M36.9561 -37.1584 L35.9561 -37.1584 L35.9561 -41.1897 L31.4405 -41.1897 L31.4405 -37.1584 L30.4405 -37.1584 L30.4405 -45.7209 L31.4405 -45.7209 L31.4405 -42.0803 L35.9561 -42.0803 L35.9561 -45.7209 L36.9561 -45.7209 L36.9561 -37.1584 Z" /><ns0:path style="fill:none; stroke:black;" d="M43.192 -16.811 L42.759 -17.061 L42.326 -16.811" /><ns0:path style="stroke:none;" d="M72.6765 -2.1313 Q72.6765 -0.0688 71.6374 1.1109 Q70.5984 2.2906 68.7546 2.2906 Q66.864 2.2906 65.8327 1.1265 Q64.8015 -0.0376 64.8015 -2.1469 Q64.8015 -4.2407 65.8327 -5.3891 Q66.864 -6.5376 68.7546 -6.5376 Q70.614 -6.5376 71.6452 -5.3657 Q72.6765 -4.1938 72.6765 -2.1313 ZM65.8484 -2.1313 Q65.8484 -0.3969 66.5906 0.5093 Q67.3327 1.4156 68.7546 1.4156 Q70.1765 1.4156 70.9031 0.5171 Q71.6296 -0.3813 71.6296 -2.1313 Q71.6296 -3.8657 70.9031 -4.7563 Q70.1765 -5.6469 68.7546 -5.6469 Q67.3327 -5.6469 66.5906 -4.7485 Q65.8484 -3.8501 65.8484 -2.1313 Z" /><ns0:path style="fill:none; stroke:black;" d="M94.289 -16.811 L94.722 -17.061 L95.155 -16.811" /><ns0:path style="fill:rgb(0,5,255); stroke:none;" d="M-12.3504 90.1302 L-13.4911 90.1302 L-18.1786 82.9427 L-18.2254 82.9427 Q-18.1317 84.2084 -18.1317 85.2552 L-18.1317 90.1302 L-19.0536 90.1302 L-19.0536 81.5677 L-17.9286 81.5677 L-13.2567 88.724 L-13.2098 88.724 Q-13.2098 88.5677 -13.2567 87.7084 Q-13.3036 86.849 -13.2879 86.474 L-13.2879 81.5677 L-12.3504 81.5677 L-12.3504 90.1302 Z" /><ns0:path style="fill:rgb(0,5,255); stroke:none;" d="M-4.8348 90.1302 L-5.8348 90.1302 L-5.8348 86.099 L-10.3504 86.099 L-10.3504 90.1302 L-11.3504 90.1302 L-11.3504 81.5677 L-10.3504 81.5677 L-10.3504 85.2084 L-5.8348 85.2084 L-5.8348 81.5677 L-4.8348 81.5677 L-4.8348 90.1302 Z" /><ns0:path style="fill:rgb(0,5,255); stroke:none;" d="M-0.0848 91.9396 L-3.8348 91.9396 L-3.8348 91.3771 L-2.3348 89.8615 Q-1.6473 89.174 -1.4286 88.8771 Q-1.2098 88.5802 -1.1004 88.299 Q-0.9911 88.0177 -0.9911 87.6896 Q-0.9911 87.2365 -1.2645 86.9709 Q-1.5379 86.7052 -2.0379 86.7052 Q-2.3817 86.7052 -2.702 86.8224 Q-3.0223 86.9396 -3.4129 87.2365 L-3.7567 86.799 Q-2.9754 86.1427 -2.0379 86.1427 Q-1.2411 86.1427 -0.7801 86.5568 Q-0.3192 86.9709 -0.3192 87.6584 Q-0.3192 88.2052 -0.6239 88.7365 Q-0.9286 89.2677 -1.7723 90.0802 L-3.0223 91.299 L-3.0223 91.3302 L-0.0848 91.3302 L-0.0848 91.9396 Z" /><ns0:path style="fill:none; stroke:black;" d="M-30.452 8.464 L-30.702 8.031 L-30.3674 7.6594" /><ns0:path style="fill:rgb(0,5,255); stroke:none;" d="M-7.2774 -10.1058 L-8.4181 -10.1058 L-13.1056 -17.2933 L-13.1524 -17.2933 Q-13.0587 -16.0276 -13.0587 -14.9808 L-13.0587 -10.1058 L-13.9806 -10.1058 L-13.9806 -18.6683 L-12.8556 -18.6683 L-8.1837 -11.512 L-8.1368 -11.512 Q-8.1368 -11.6683 -8.1837 -12.5276 Q-8.2306 -13.387 -8.2149 -13.762 L-8.2149 -18.6683 L-7.2774 -18.6683 L-7.2774 -10.1058 Z" /><ns0:path style="fill:none; stroke:black;" d="M-60.952 7.598 L-60.702 8.031 L-60.202 8.031" /><ns0:path style="fill:none; stroke:black;" d="M-15.952 33.581 L-15.702 34.014 L-15.2129 33.9101" /><ns0:path style="fill:none; stroke:black;" d="M16.7268 -1.5637 L16.779 -2.061 L17.212 -2.311" /><ns0:path style="fill:none; stroke:black;" d="M-76.202 34.014 L-75.702 34.014 L-75.452 33.581" /><ns0:path style="fill:none; stroke:black;" d="M-75.452 -17.516 L-75.702 -17.949 L-76.202 -17.949" /><ns0:path style="fill:rgb(0,5,255); stroke:none;" d="M16.9956 31.9333 L15.8549 31.9333 L11.1674 24.7458 L11.1206 24.7458 Q11.2143 26.0114 11.2143 27.0583 L11.2143 31.9333 L10.2924 31.9333 L10.2924 23.3708 L11.4174 23.3708 L16.0893 30.527 L16.1362 30.527 Q16.1362 30.3708 16.0893 29.5114 Q16.0424 28.652 16.0581 28.277 L16.0581 23.3708 L16.9956 23.3708 L16.9956 31.9333 Z" /><ns0:path style="fill:none; stroke:black;" d="M-31.202 59.994 L-30.702 59.994 L-30.452 60.427" /><ns0:path style="fill:rgb(0,5,255); stroke:none;" d="M-57.3504 64.1503 L-58.4911 64.1503 L-63.1786 56.9628 L-63.2254 56.9628 Q-63.1317 58.2284 -63.1317 59.2753 L-63.1317 64.1503 L-64.0536 64.1503 L-64.0536 55.5878 L-62.9286 55.5878 L-58.2567 62.744 L-58.2098 62.744 Q-58.2098 62.5878 -58.2567 61.7284 Q-58.3036 60.869 -58.2879 60.494 L-58.2879 55.5878 L-57.3504 55.5878 L-57.3504 64.1503 Z" /><ns0:path style="fill:none; stroke:black;" d="M-105.202 34.014 L-105.702 34.014 L-105.952 33.581" /><ns0:path style="fill:none; stroke:black;" d="M-105.202 -17.949 L-105.702 -17.949 L-105.952 -17.516" /><ns0:path style="fill:none; stroke:black;" d="M-120.452 8.464 L-120.702 8.031 L-120.452 7.598" /></ns0:g></ns0:g></ns0:svg></ns0:svg></ns0:svg></ns0:svg></g></svg>