<svg xmlns:ns0="http://www.w3.org/2000/svg" xmlns="http://www.w3.org/2000/svg"><g transform="translate(0, 0)"><ns0:svg width="247" viewBox="0 0 247 133" style="fill-opacity:1; color-rendering:auto; color-interpolation:auto; text-rendering:auto; stroke:black; stroke-linecap:square; stroke-miterlimit:10; shape-rendering:auto; stroke-opacity:1; fill:black; stroke-dasharray:none; font-weight:normal; stroke-width:1; font-family:'Open Sans'; font-style:normal; stroke-linejoin:miter; font-size:12; stroke-dashoffset:0; image-rendering:auto;" height="133" class="cas-substance-image"><ns0:svg class="cas-substance-single-component"><ns0:rect y="0" x="0" width="247" stroke="none" ry="7" rx="7" height="133" fill="white" class="cas-substance-group" /><ns0:svg y="0" x="0" width="247" viewBox="0 0 247 133" style="fill:black;" height="133" class="cas-substance-single-component-image"><ns0:svg><ns0:g><ns0:g transform="translate(129,66)" style="text-rendering:geometricPrecision; color-rendering:optimizeQuality; color-interpolation:linearRGB; stroke-linecap:butt; image-rendering:optimizeQuality;"><ns0:line y2="-10.749" y1="-10.749" x2="9.627" x1="-20.373" style="fill:none;" /><ns0:line y2="-31.971" y1="-10.749" x2="-30.6038" x1="-18.3523" style="fill:none;" /><ns0:line y2="-30.2211" y1="-8.999" x2="-33.6349" x1="-21.3834" style="fill:none;" /><ns0:line y2="9.0927" y1="-10.749" x2="-31.829" x1="-20.373" style="fill:none;" /><ns0:line y2="-36.732" y1="-10.749" x2="24.627" x1="9.627" style="fill:none;" /><ns0:path style="stroke:none;" d="M11.2233 -9.4112 L9.9871 -8.6984 L9.9871 -8.6984 L10.3928 -7.7776 L10.3928 -7.7776 L11.818 -8.5995 L11.2233 -9.4112 ZM13.0074 -6.976 L11.204 -5.936 L11.6096 -5.0152 L11.6096 -5.0152 L13.6021 -6.1642 L13.6021 -6.1642 L13.0074 -6.976 ZM14.7916 -4.5407 L12.4208 -3.1736 L12.8264 -2.2528 L15.3863 -3.729 L15.3863 -3.729 L14.7916 -4.5407 ZM16.5758 -2.1055 L13.6377 -0.4112 L14.0433 0.5096 L17.1705 -1.2937 L17.1705 -1.2937 L16.5758 -2.1055 ZM18.3599 0.3298 L14.8545 2.3512 L15.2601 3.272 L18.9546 1.1415 L18.3599 0.3298 ZM20.1441 2.765 L16.0714 5.1136 L16.477 6.0344 L20.7388 3.5768 L20.1441 2.765 ZM21.9282 5.2003 L17.2882 7.8761 L17.6938 8.7969 L17.6938 8.7969 L22.523 6.012 L22.523 6.012 L21.9282 5.2003 Z" /><ns0:line y2="-36.732" y1="-36.732" x2="54.627" x1="24.627" style="fill:none;" /><ns0:line y2="1.0572" y1="-3.927" x2="-108.7332" x1="-85.284" style="fill:none;" /><ns0:line y2="-25.6655" y1="-3.3861" x2="-76.3791" x1="-83.6197" style="fill:none;" /><ns0:line y2="-26.7473" y1="-3.5069" x2="-79.7077" x1="-87.2606" style="fill:none;" /><ns0:path style="stroke:none;" d="M-64.8365 18.0314 L-65.5795 18.7006 L-88.7765 -3.6958 L-81.9994 -5.1363 Z" /><ns0:line y2="18.366" y1="15.7922" x2="-65.208" x1="-40.7136" style="fill:none;" /><ns0:line y2="42.636" y1="21.2144" x2="-23.172" x1="-32.7091" style="fill:none;" /><ns0:line y2="47.712" y1="18.366" x2="-71.445" x1="-65.208" style="fill:none;" /><ns0:line y2="62.712" y1="42.636" x2="-45.465" x1="-23.172" style="fill:none;" /><ns0:line y2="62.712" y1="47.712" x2="-45.465" x1="-71.445" style="fill:none;" /><ns0:line y2="-10.749" y1="-36.732" x2="69.627" x1="54.627" style="fill:none;" /><ns0:line y2="-14.2489" y1="-36.7318" x2="71.6479" x1="58.6684" style="fill:none;" /><ns0:line y2="-62.712" y1="-36.732" x2="69.627" x1="54.627" style="fill:none;" /><ns0:line y2="-10.749" y1="-10.749" x2="99.627" x1="69.627" style="fill:none;" /><ns0:line y2="-62.712" y1="-62.712" x2="99.627" x1="69.627" style="fill:none;" /><ns0:line y2="-59.212" y1="-59.212" x2="97.6063" x1="71.6477" style="fill:none;" /><ns0:line y2="-36.732" y1="-10.749" x2="114.627" x1="99.627" style="fill:none;" /><ns0:line y2="-36.7318" y1="-14.2489" x2="110.5855" x1="97.6061" style="fill:none;" /><ns0:line y2="-36.732" y1="-62.712" x2="114.627" x1="99.627" style="fill:none;" /><ns0:path style="fill:none; stroke-miterlimit:5;" d="M-19.873 -10.749 L-20.373 -10.749 L-20.623 -10.316" /><ns0:path style="fill:none; stroke-miterlimit:5;" d="M9.127 -10.749 L9.627 -10.749 L9.877 -11.182" /></ns0:g><ns0:g transform="translate(129,66)" style="stroke-linecap:butt; font-size:8.4px; fill:gray; text-rendering:geometricPrecision; image-rendering:optimizeQuality; color-rendering:optimizeQuality; font-family:'Open Sans'; font-style:italic; stroke:gray; color-interpolation:linearRGB; stroke-miterlimit:5;"><ns0:path style="stroke:none;" d="M0.5181 -18.2059 Q0.5181 -19.534 0.9868 -20.659 Q1.4556 -21.784 2.4868 -22.8621 L3.0962 -22.8621 Q2.1274 -21.7996 1.6431 -20.6278 Q1.1587 -19.4559 1.1587 -18.2215 Q1.1587 -16.8934 1.5962 -15.8778 L1.0806 -15.8778 Q0.5181 -16.909 0.5181 -18.2059 ZM6.1406 -18.7996 Q6.1406 -17.9715 5.5937 -17.5184 Q5.0469 -17.0653 4.0469 -17.0653 Q3.6406 -17.0653 3.3281 -17.1199 Q3.0156 -17.1746 2.7344 -17.3153 L2.7344 -17.9715 Q3.3594 -17.6434 4.0625 -17.6434 Q4.6875 -17.6434 5.0625 -17.9403 Q5.4375 -18.2371 5.4375 -18.7528 Q5.4375 -19.0653 5.2344 -19.2918 Q5.0312 -19.5184 4.4687 -19.8465 Q3.875 -20.1746 3.6484 -20.5028 Q3.4219 -20.8309 3.4219 -21.284 Q3.4219 -22.0184 3.9375 -22.4793 Q4.4531 -22.9403 5.2969 -22.9403 Q5.6719 -22.9403 6.0078 -22.8621 Q6.3437 -22.784 6.7187 -22.6121 L6.4531 -22.0184 Q6.2031 -22.1746 5.8828 -22.2606 Q5.5625 -22.3465 5.2969 -22.3465 Q4.7656 -22.3465 4.4453 -22.0731 Q4.125 -21.7996 4.125 -21.3309 Q4.125 -21.1278 4.1953 -20.9793 Q4.2656 -20.8309 4.4062 -20.6981 Q4.5469 -20.5653 4.9687 -20.3153 Q5.5312 -19.9715 5.7344 -19.7762 Q5.9375 -19.5809 6.039 -19.3465 Q6.1406 -19.1121 6.1406 -18.7996 ZM8.7351 -20.5184 Q8.7351 -19.1903 8.2585 -18.0574 Q7.782 -16.9246 6.7663 -15.8778 L6.157 -15.8778 Q8.0945 -18.034 8.0945 -20.5184 Q8.0945 -21.8465 7.657 -22.8621 L8.1726 -22.8621 Q8.7351 -21.7996 8.7351 -20.5184 Z" /></ns0:g><ns0:g transform="translate(129,66)" style="stroke-linecap:butt; fill:rgb(230,0,0); text-rendering:geometricPrecision; color-rendering:optimizeQuality; image-rendering:optimizeQuality; font-family:'Open Sans'; stroke:rgb(230,0,0); color-interpolation:linearRGB; stroke-miterlimit:5;"><ns0:path style="stroke:none;" d="M-31.4355 -36.8023 Q-31.4355 -34.7398 -32.4746 -33.5601 Q-33.5136 -32.3804 -35.3574 -32.3804 Q-37.248 -32.3804 -38.2793 -33.5445 Q-39.3105 -34.7086 -39.3105 -36.8179 Q-39.3105 -38.9117 -38.2793 -40.0601 Q-37.248 -41.2086 -35.3574 -41.2086 Q-33.498 -41.2086 -32.4668 -40.0367 Q-31.4355 -38.8648 -31.4355 -36.8023 ZM-38.2636 -36.8023 Q-38.2636 -35.0679 -37.5214 -34.1617 Q-36.7793 -33.2554 -35.3574 -33.2554 Q-33.9355 -33.2554 -33.2089 -34.1539 Q-32.4824 -35.0523 -32.4824 -36.8023 Q-32.4824 -38.5367 -33.2089 -39.4273 Q-33.9355 -40.3179 -35.3574 -40.3179 Q-36.7793 -40.3179 -37.5214 -39.4195 Q-38.2636 -38.5211 -38.2636 -36.8023 Z" /><ns0:path style="fill:none; stroke:black;" d="M24.377 -36.299 L24.627 -36.732 L25.127 -36.732" /><ns0:path style="fill:rgb(0,5,255); stroke:none;" d="M27.9786 19.3873 L26.8379 19.3873 L22.1504 12.1998 L22.1036 12.1998 Q22.1973 13.4654 22.1973 14.5123 L22.1973 19.3873 L21.2754 19.3873 L21.2754 10.8248 L22.4004 10.8248 L27.0723 17.981 L27.1192 17.981 Q27.1192 17.8248 27.0723 16.9654 Q27.0254 16.106 27.0411 15.731 L27.0411 10.8248 L27.9786 10.8248 L27.9786 19.3873 Z" /><ns0:path style="fill:rgb(0,5,255); stroke:none;" d="M35.4942 19.3873 L34.4942 19.3873 L34.4942 15.356 L29.9786 15.356 L29.9786 19.3873 L28.9786 19.3873 L28.9786 10.8248 L29.9786 10.8248 L29.9786 14.4654 L34.4942 14.4654 L34.4942 10.8248 L35.4942 10.8248 L35.4942 19.3873 Z" /><ns0:path style="fill:rgb(0,5,255); stroke:none;" d="M40.2442 21.1966 L36.4942 21.1966 L36.4942 20.6341 L37.9942 19.1185 Q38.6817 18.431 38.9004 18.1341 Q39.1192 17.8373 39.2286 17.556 Q39.3379 17.2748 39.3379 16.9466 Q39.3379 16.4935 39.0645 16.2279 Q38.7911 15.9623 38.2911 15.9623 Q37.9473 15.9623 37.627 16.0794 Q37.3067 16.1966 36.9161 16.4935 L36.5723 16.056 Q37.3536 15.3998 38.2911 15.3998 Q39.0879 15.3998 39.5489 15.8138 Q40.0098 16.2279 40.0098 16.9154 Q40.0098 17.4623 39.7051 17.9935 Q39.4004 18.5248 38.5567 19.3373 L37.3067 20.556 L37.3067 20.5873 L40.2442 20.5873 L40.2442 21.1966 Z" /><ns0:path style="stroke:none;" d="M-110.6895 2.2397 Q-110.6895 4.3022 -111.7286 5.4819 Q-112.7676 6.6616 -114.6114 6.6616 Q-116.502 6.6616 -117.5332 5.4975 Q-118.5645 4.3334 -118.5645 2.2241 Q-118.5645 0.1303 -117.5332 -1.0181 Q-116.502 -2.1666 -114.6114 -2.1666 Q-112.752 -2.1666 -111.7207 -0.9947 Q-110.6895 0.1772 -110.6895 2.2397 ZM-117.5176 2.2397 Q-117.5176 3.9741 -116.7754 4.8803 Q-116.0332 5.7866 -114.6114 5.7866 Q-113.1895 5.7866 -112.4629 4.8881 Q-111.7364 3.9897 -111.7364 2.2397 Q-111.7364 0.5053 -112.4629 -0.3853 Q-113.1895 -1.2759 -114.6114 -1.2759 Q-116.0332 -1.2759 -116.7754 -0.3775 Q-117.5176 0.5209 -117.5176 2.2397 Z" /><ns0:path style="stroke:none;" d="M-119.5645 6.5366 L-120.5645 6.5366 L-120.5645 2.5053 L-125.0801 2.5053 L-125.0801 6.5366 L-126.0801 6.5366 L-126.0801 -2.0259 L-125.0801 -2.0259 L-125.0801 1.6147 L-120.5645 1.6147 L-120.5645 -2.0259 L-119.5645 -2.0259 L-119.5645 6.5366 Z" /><ns0:path style="stroke:none;" d="M-72.0735 -32.5303 Q-72.0735 -30.4678 -73.1126 -29.2881 Q-74.1516 -28.1084 -75.9954 -28.1084 Q-77.886 -28.1084 -78.9173 -29.2725 Q-79.9485 -30.4366 -79.9485 -32.5459 Q-79.9485 -34.6397 -78.9173 -35.7881 Q-77.886 -36.9366 -75.9954 -36.9366 Q-74.136 -36.9366 -73.1048 -35.7647 Q-72.0735 -34.5928 -72.0735 -32.5303 ZM-78.9016 -32.5303 Q-78.9016 -30.7959 -78.1594 -29.8897 Q-77.4173 -28.9834 -75.9954 -28.9834 Q-74.5735 -28.9834 -73.8469 -29.8819 Q-73.1204 -30.7803 -73.1204 -32.5303 Q-73.1204 -34.2647 -73.8469 -35.1553 Q-74.5735 -36.0459 -75.9954 -36.0459 Q-77.4173 -36.0459 -78.1594 -35.1475 Q-78.9016 -34.2491 -78.9016 -32.5303 Z" /><ns0:path style="fill:rgb(0,5,255); stroke:none;" d="M-32.0214 19.3873 L-33.1621 19.3873 L-37.8496 12.1998 L-37.8964 12.1998 Q-37.8027 13.4654 -37.8027 14.5123 L-37.8027 19.3873 L-38.7246 19.3873 L-38.7246 10.8248 L-37.5996 10.8248 L-32.9277 17.981 L-32.8808 17.981 Q-32.8808 17.8248 -32.9277 16.9654 Q-32.9746 16.106 -32.9589 15.731 L-32.9589 10.8248 L-32.0214 10.8248 L-32.0214 19.3873 Z" /></ns0:g><ns0:g transform="translate(129,66)" style="stroke-linecap:butt; font-size:8.4px; fill:gray; text-rendering:geometricPrecision; image-rendering:optimizeQuality; color-rendering:optimizeQuality; font-family:'Open Sans'; font-style:italic; stroke:gray; color-interpolation:linearRGB; stroke-miterlimit:5;"><ns0:path style="stroke:none;" d="M-78.9756 22.1578 Q-78.9756 20.8297 -78.5069 19.7047 Q-78.0381 18.5797 -77.0069 17.5016 L-76.3975 17.5016 Q-77.3663 18.5641 -77.8506 19.7359 Q-78.335 20.9078 -78.335 22.1422 Q-78.335 23.4703 -77.8975 24.4859 L-78.4131 24.4859 Q-78.9756 23.4547 -78.9756 22.1578 ZM-73.3531 21.5641 Q-73.3531 22.3922 -73.9 22.8453 Q-74.4468 23.2984 -75.4468 23.2984 Q-75.8531 23.2984 -76.1656 23.2438 Q-76.4781 23.1891 -76.7593 23.0484 L-76.7593 22.3922 Q-76.1343 22.7203 -75.4312 22.7203 Q-74.8062 22.7203 -74.4312 22.4234 Q-74.0562 22.1266 -74.0562 21.6109 Q-74.0562 21.2984 -74.2593 21.0719 Q-74.4625 20.8453 -75.025 20.5172 Q-75.6187 20.1891 -75.8453 19.8609 Q-76.0718 19.5328 -76.0718 19.0797 Q-76.0718 18.3453 -75.5562 17.8844 Q-75.0406 17.4234 -74.1968 17.4234 Q-73.8218 17.4234 -73.4859 17.5016 Q-73.15 17.5797 -72.775 17.7516 L-73.0406 18.3453 Q-73.2906 18.1891 -73.6109 18.1031 Q-73.9312 18.0172 -74.1968 18.0172 Q-74.7281 18.0172 -75.0484 18.2906 Q-75.3687 18.5641 -75.3687 19.0328 Q-75.3687 19.2359 -75.2984 19.3844 Q-75.2281 19.5328 -75.0875 19.6656 Q-74.9468 19.7984 -74.525 20.0484 Q-73.9625 20.3922 -73.7593 20.5875 Q-73.5562 20.7828 -73.4547 21.0172 Q-73.3531 21.2516 -73.3531 21.5641 ZM-70.7586 19.8453 Q-70.7586 21.1734 -71.2352 22.3063 Q-71.7117 23.4391 -72.7274 24.4859 L-73.3367 24.4859 Q-71.3992 22.3297 -71.3992 19.8453 Q-71.3992 18.5172 -71.8367 17.5016 L-71.3211 17.5016 Q-70.7586 18.5641 -70.7586 19.8453 Z" /><ns0:path style="fill:none; stroke:black;" d="M-23.3754 42.1792 L-23.172 42.636 L-23.5435 42.9706" /><ns0:path style="fill:none; stroke:black;" d="M-71.3411 47.2229 L-71.445 47.712 L-71.012 47.962" /><ns0:path style="fill:none; stroke:black;" d="M-45.0935 62.3774 L-45.465 62.712 L-45.898 62.462" /><ns0:path style="fill:none; stroke:black;" d="M54.877 -36.299 L54.627 -36.732 L54.127 -36.732" /><ns0:path style="fill:none; stroke:black;" d="M69.377 -11.182 L69.627 -10.749 L70.127 -10.749" /><ns0:path style="fill:none; stroke:black;" d="M69.377 -62.279 L69.627 -62.712 L70.127 -62.712" /><ns0:path style="fill:none; stroke:black;" d="M99.127 -10.749 L99.627 -10.749 L99.877 -11.182" /><ns0:path style="fill:none; stroke:black;" d="M99.127 -62.712 L99.627 -62.712 L99.877 -62.279" /><ns0:path style="fill:none; stroke:black;" d="M114.377 -36.299 L114.627 -36.732 L114.377 -37.165" /></ns0:g></ns0:g></ns0:svg></ns0:svg></ns0:svg></ns0:svg></g></svg>