<svg xmlns:ns0="http://www.w3.org/2000/svg" xmlns="http://www.w3.org/2000/svg"><g transform="translate(0, 0)"><ns0:svg width="157" viewBox="0 0 157 105" style="fill-opacity:1; color-rendering:auto; color-interpolation:auto; text-rendering:auto; stroke:black; stroke-linecap:square; stroke-miterlimit:10; shape-rendering:auto; stroke-opacity:1; fill:black; stroke-dasharray:none; font-weight:normal; stroke-width:1; font-family:'Open Sans'; font-style:normal; stroke-linejoin:miter; font-size:12; stroke-dashoffset:0; image-rendering:auto;" height="105" class="cas-substance-image"><ns0:svg class="cas-substance-single-component"><ns0:rect y="0" x="0" width="157" stroke="none" ry="7" rx="7" height="105" fill="white" class="cas-substance-group" /><ns0:svg y="0" x="0" width="157" viewBox="0 0 157 90" style="fill:black;" height="90" class="cas-substance-single-component-image"><ns0:svg><ns0:g><ns0:g transform="translate(79,42)" style="text-rendering:geometricPrecision; color-rendering:optimizeQuality; color-interpolation:linearRGB; stroke-linecap:butt; image-rendering:optimizeQuality;"><ns0:line y2="12.99" y1="32.8317" x2="-30" x1="-18.544" style="fill:none;" /><ns0:line y2="-38.97" y1="-12.99" x2="30" x1="15" style="fill:none;" /><ns0:line y2="-35.47" y1="-12.9899" x2="32.0207" x1="19.0415" style="fill:none;" /><ns0:line y2="12.99" y1="-12.99" x2="30" x1="15" style="fill:none;" /><ns0:line y2="-12.99" y1="-12.99" x2="-15" x1="15" style="fill:none;" /><ns0:line y2="-38.97" y1="-38.97" x2="60" x1="30" style="fill:none;" /><ns0:line y2="12.99" y1="12.99" x2="60" x1="30" style="fill:none;" /><ns0:line y2="9.49" y1="9.49" x2="57.9793" x1="32.0207" style="fill:none;" /><ns0:line y2="-12.99" y1="-38.97" x2="75" x1="60" style="fill:none;" /><ns0:line y2="-12.9899" y1="-35.47" x2="70.9585" x1="57.9793" style="fill:none;" /><ns0:line y2="-12.99" y1="12.99" x2="75" x1="60" style="fill:none;" /><ns0:line y2="12.99" y1="-12.99" x2="-30" x1="-15" style="fill:none;" /><ns0:line y2="9.49" y1="-12.9901" x2="-32.0207" x1="-19.0415" style="fill:none;" /><ns0:line y2="-38.97" y1="-12.99" x2="-30" x1="-15" style="fill:none;" /><ns0:line y2="12.99" y1="12.99" x2="-60" x1="-30" style="fill:none;" /><ns0:line y2="-38.97" y1="-38.97" x2="-60" x1="-30" style="fill:none;" /><ns0:line y2="-35.47" y1="-35.47" x2="-57.9793" x1="-32.0207" style="fill:none;" /><ns0:line y2="-12.99" y1="12.99" x2="-75" x1="-60" style="fill:none;" /><ns0:line y2="-12.9901" y1="9.49" x2="-70.9585" x1="-57.9793" style="fill:none;" /><ns0:line y2="-12.99" y1="-38.97" x2="-75" x1="-60" style="fill:none;" /></ns0:g><ns0:g transform="translate(79,42)" style="fill:rgb(0,5,255); text-rendering:geometricPrecision; color-rendering:optimizeQuality; image-rendering:optimizeQuality; font-family:'Open Sans'; stroke:rgb(0,5,255); color-interpolation:linearRGB;"><ns0:path style="stroke:none;" d="M-11.6484 43.1263 L-12.7891 43.1263 L-17.4766 35.9388 L-17.5234 35.9388 Q-17.4297 37.2044 -17.4297 38.2513 L-17.4297 43.1263 L-18.3516 43.1263 L-18.3516 34.5638 L-17.2266 34.5638 L-12.5547 41.72 L-12.5078 41.72 Q-12.5078 41.5638 -12.5547 40.7044 Q-12.6016 39.845 -12.5859 39.47 L-12.5859 34.5638 L-11.6484 34.5638 L-11.6484 43.1263 Z" /><ns0:path style="stroke:none;" d="M-4.1328 43.1263 L-5.1328 43.1263 L-5.1328 39.095 L-9.6484 39.095 L-9.6484 43.1263 L-10.6484 43.1263 L-10.6484 34.5638 L-9.6484 34.5638 L-9.6484 38.2044 L-5.1328 38.2044 L-5.1328 34.5638 L-4.1328 34.5638 L-4.1328 43.1263 Z" /><ns0:path style="stroke:none;" d="M0.6172 44.9356 L-3.1328 44.9356 L-3.1328 44.3731 L-1.6328 42.8575 Q-0.9453 42.17 -0.7266 41.8731 Q-0.5078 41.5763 -0.3984 41.295 Q-0.2891 41.0138 -0.2891 40.6856 Q-0.2891 40.2325 -0.5625 39.9669 Q-0.8359 39.7013 -1.3359 39.7013 Q-1.6797 39.7013 -2 39.8184 Q-2.3203 39.9356 -2.7109 40.2325 L-3.0547 39.795 Q-2.2734 39.1388 -1.3359 39.1388 Q-0.5391 39.1388 -0.0781 39.5528 Q0.3828 39.9669 0.3828 40.6544 Q0.3828 41.2013 0.0781 41.7325 Q-0.2266 42.2638 -1.0703 43.0763 L-2.3203 44.295 L-2.3203 44.3263 L0.6172 44.3263 L0.6172 44.9356 Z" /></ns0:g><ns0:g transform="translate(79,42)" style="stroke-linecap:butt; font-size:8.4px; text-rendering:geometricPrecision; color-rendering:optimizeQuality; image-rendering:optimizeQuality; font-family:'Open Sans'; color-interpolation:linearRGB; stroke-miterlimit:5;"><ns0:path style="fill:none;" d="M15.25 -13.423 L15 -12.99 L15.25 -12.557" /><ns0:path style="fill:none;" d="M29.75 -38.537 L30 -38.97 L30.5 -38.97" /><ns0:path style="fill:none;" d="M29.75 12.557 L30 12.99 L30.5 12.99" /><ns0:path style="fill:none;" d="M59.5 -38.97 L60 -38.97 L60.25 -38.537" /><ns0:path style="fill:none;" d="M59.5 12.99 L60 12.99 L60.25 12.557" /><ns0:path style="fill:none;" d="M74.75 -13.423 L75 -12.99 L74.75 -12.557" /><ns0:path style="fill:none;" d="M-15.25 -12.557 L-15 -12.99 L-14.5 -12.99" /><ns0:path style="fill:none;" d="M-29.75 12.557 L-30 12.99 L-30.5 12.99" /><ns0:path style="fill:none;" d="M-29.75 -38.537 L-30 -38.97 L-30.5 -38.97" /><ns0:path style="fill:none;" d="M-59.5 12.99 L-60 12.99 L-60.25 12.557" /><ns0:path style="fill:none;" d="M-59.5 -38.97 L-60 -38.97 L-60.25 -38.537" /><ns0:path style="fill:none;" d="M-74.75 -12.557 L-75 -12.99 L-74.75 -13.423" /></ns0:g></ns0:g></ns0:svg></ns0:svg><ns0:svg y="90" x="70" class="cas-substance-saf"><ns0:svg y="5" x="0" width="4" style="fill:black;" height="4" class="cas-substance-saf-dot"><ns0:circle stroke="none" r="2" fill="black" cy="2" cx="2" /></ns0:svg><ns0:svg y="0" x="8" width="22" style="fill:black;" height="15" class="cas-substance-saf-image"><ns0:svg><ns0:g><ns0:g transform="translate(6,8)" style="fill:rgb(0,138,0); text-rendering:geometricPrecision; color-rendering:optimizeQuality; image-rendering:optimizeQuality; font-family:'Open Sans'; stroke:rgb(0,138,0); color-interpolation:linearRGB;"><ns0:path style="stroke:none;" d="M3.2578 4.1562 L2.2578 4.1562 L2.2578 0.125 L-2.2578 0.125 L-2.2578 4.1562 L-3.2578 4.1562 L-3.2578 -4.4062 L-2.2578 -4.4062 L-2.2578 -0.7656 L2.2578 -0.7656 L2.2578 -4.4062 L3.2578 -4.4062 L3.2578 4.1562 Z" /><ns0:path style="stroke:none;" d="M8.3672 -3.6406 Q6.9609 -3.6406 6.1406 -2.7031 Q5.3203 -1.7656 5.3203 -0.125 Q5.3203 1.5469 6.1094 2.4688 Q6.8984 3.3906 8.3516 3.3906 Q9.2578 3.3906 10.3984 3.0625 L10.3984 3.9375 Q9.5078 4.2812 8.2109 4.2812 Q6.3203 4.2812 5.2891 3.125 Q4.2578 1.9688 4.2578 -0.1406 Q4.2578 -1.4688 4.75 -2.4609 Q5.2422 -3.4531 6.1797 -3.9922 Q7.1172 -4.5312 8.3828 -4.5312 Q9.7266 -4.5312 10.7422 -4.0469 L10.3203 -3.1875 Q9.3359 -3.6406 8.3672 -3.6406 ZM13.0938 4.1562 L12.125 4.1562 L12.125 -4.9688 L13.0938 -4.9688 L13.0938 4.1562 Z" /></ns0:g></ns0:g></ns0:svg></ns0:svg></ns0:svg></ns0:svg></ns0:svg></g></svg>