<svg width="233" viewBox="0 0 233 207" style="fill-opacity:1; color-rendering:auto; color-interpolation:auto; text-rendering:auto; stroke:black; stroke-linecap:square; stroke-miterlimit:10; shape-rendering:auto; stroke-opacity:1; fill:black; stroke-dasharray:none; font-weight:normal; stroke-width:1; font-family:'Open Sans'; font-style:normal; stroke-linejoin:miter; font-size:12; stroke-dashoffset:0; image-rendering:auto;" height="207" class="cas-substance-image" xmlns:xlink="http://www.w3.org/1999/xlink" xmlns="http://www.w3.org/2000/svg"><svg class="cas-substance-single-component"><rect y="0" x="0" width="233" stroke="none" ry="7" rx="7" height="207" fill="white" class="cas-substance-group"/><svg y="0" x="0" width="233" viewBox="0 0 233 207" style="fill:black;" height="207" class="cas-substance-single-component-image"><svg><g><g transform="translate(117,103)" style="text-rendering:geometricPrecision; color-rendering:optimizeQuality; color-interpolation:linearRGB; stroke-linecap:butt; image-rendering:optimizeQuality;"><line y2="-55.77" y1="-29.79" x2="-7.5" x1="7.5" style="fill:none;"/><line y2="-52.27" y1="-29.7899" x2="-9.5207" x1="3.4585" style="fill:none;"/></g><g transform="translate(117,103)" style="stroke-linecap:butt; font-size:8.4px; fill:gray; text-rendering:geometricPrecision; image-rendering:optimizeQuality; color-rendering:optimizeQuality; font-family:'Open Sans'; font-style:italic; stroke:gray; color-interpolation:linearRGB;"><path style="stroke:none;" d="M4.431 -46.616 Q4.431 -47.9442 4.8998 -49.0692 Q5.3685 -50.1942 6.3998 -51.2723 L7.0092 -51.2723 Q6.0404 -50.2098 5.556 -49.0379 Q5.0717 -47.866 5.0717 -46.6317 Q5.0717 -45.3035 5.5092 -44.2879 L4.9935 -44.2879 Q4.431 -45.3192 4.431 -46.616 ZM9.9442 -45.5535 L6.4286 -45.5535 L6.538 -46.0848 L10.1473 -50.6629 L7.5848 -50.6629 L7.7098 -51.2723 L11.0692 -51.2723 L10.9598 -50.7254 L7.3505 -46.1629 L10.0848 -46.1629 L9.9442 -45.5535 ZM12.8893 -48.9285 Q12.8893 -47.6004 12.4128 -46.4676 Q11.9362 -45.3348 10.9206 -44.2879 L10.3112 -44.2879 Q12.2487 -46.4442 12.2487 -48.9285 Q12.2487 -50.2567 11.8112 -51.2723 L12.3268 -51.2723 Q12.8893 -50.2098 12.8893 -48.9285 Z"/><line y2="-3.81" y1="-29.79" x2="-7.5" x1="7.5" style="fill:none; stroke:black;"/><line y2="-29.79" y1="-29.79" x2="32.5312" x1="7.5" style="fill:none; stroke:black;"/><line y2="-55.77" y1="-55.77" x2="-32.5312" x1="-7.5" style="fill:none; stroke:black;"/><line y2="22.173" y1="-3.81" x2="7.5" x1="-7.5" style="fill:none; stroke:black;"/><line y2="48.153" y1="22.173" x2="-7.5" x1="7.5" style="fill:none; stroke:black;"/><line y2="74.133" y1="48.153" x2="7.5" x1="-7.5" style="fill:none; stroke:black;"/><line y2="100.113" y1="74.133" x2="-7.5" x1="7.5" style="fill:none; stroke:black;"/><line y2="-14.79" y1="-17.925" x2="83.664" x1="113.502" style="fill:none; stroke:black;"/><line y2="-14.79" y1="14.556" x2="83.664" x1="89.904" style="fill:none; stroke:black;"/><line y2="-44.79" y1="-74.133" x2="83.664" x1="89.904" style="fill:none; stroke:black;"/><line y2="-44.79" y1="-41.652" x2="83.664" x1="113.502" style="fill:none; stroke:black;"/><line y2="-70.77" y1="-67.635" x2="-83.664" x1="-113.502" style="fill:none; stroke:black;"/><line y2="-70.77" y1="-100.113" x2="-83.664" x1="-89.904" style="fill:none; stroke:black;"/><line y2="-40.77" y1="-11.427" x2="-83.664" x1="-89.904" style="fill:none; stroke:black;"/><line y2="-40.77" y1="-43.905" x2="-83.664" x1="-113.502" style="fill:none; stroke:black;"/><line y2="-10.7666" y1="-24.8483" x2="51.3219" x1="41.0905" style="fill:none; stroke:black;"/><line y2="-48.8884" y1="-34.8989" x2="51.3765" x1="41.212" style="fill:none; stroke:black;"/><line y2="-14.79" y1="-7.4174" x2="83.664" x1="60.9736" style="fill:none; stroke:black;"/><line y2="-44.79" y1="-52.1626" x2="83.664" x1="60.9736" style="fill:none; stroke:black;"/><line y2="-44.79" y1="-14.79" x2="83.664" x1="83.664" style="fill:none; stroke:black;"/><line y2="-74.8807" y1="-61.474" x2="-51.3854" x1="-41.6444" style="fill:none; stroke:black;"/><line y2="-36.7371" y1="-50.066" x2="-51.3288" x1="-41.6444" style="fill:none; stroke:black;"/><line y2="-70.77" y1="-78.1426" x2="-83.664" x1="-60.9736" style="fill:none; stroke:black;"/><line y2="-40.77" y1="-33.3974" x2="-83.664" x1="-60.9736" style="fill:none; stroke:black;"/><line y2="-40.77" y1="-70.77" x2="-83.664" x1="-83.664" style="fill:none; stroke:black;"/><path style="fill:none; stroke-miterlimit:5; stroke:black;" d="M7.25 -30.223 L7.5 -29.79 L7.25 -29.357"/><path style="fill:none; stroke-miterlimit:5; stroke:black;" d="M-7.25 -55.337 L-7.5 -55.77 L-8 -55.77"/><path style="fill:none; stroke-miterlimit:5; stroke:black;" d="M-7.25 -4.243 L-7.5 -3.81 L-7.25 -3.377"/><path style="fill:none; stroke-miterlimit:5; stroke:black;" d="M7.25 21.74 L7.5 22.173 L7.25 22.606"/><path style="fill:none; stroke-miterlimit:5; stroke:black;" d="M-7.25 47.72 L-7.5 48.153 L-7.25 48.586"/><path style="fill:none; stroke-miterlimit:5; stroke:black;" d="M7.25 73.7 L7.5 74.133 L7.25 74.566"/></g><g transform="translate(117,103)" style="stroke-linecap:butt; text-rendering:geometricPrecision; color-rendering:optimizeQuality; image-rendering:optimizeQuality; font-family:'Open Sans'; color-interpolation:linearRGB; stroke-miterlimit:5;"><path style="stroke:none;" d="M34.5312 -34.1963 L36.9531 -34.1963 Q38.6562 -34.1963 39.4219 -33.6884 Q40.1875 -33.1806 40.1875 -32.0869 Q40.1875 -31.3212 39.7656 -30.8212 Q39.3438 -30.3212 38.5156 -30.1806 L38.5156 -30.1181 Q40.4688 -29.79 40.4688 -28.0712 Q40.4688 -26.9306 39.6953 -26.2822 Q38.9219 -25.6337 37.5312 -25.6337 L34.5312 -25.6337 L34.5312 -34.1963 ZM35.5312 -30.54 L37.1719 -30.54 Q38.2344 -30.54 38.6953 -30.8681 Q39.1562 -31.1962 39.1562 -31.9775 Q39.1562 -32.6963 38.6406 -33.0166 Q38.125 -33.3369 37 -33.3369 L35.5312 -33.3369 L35.5312 -30.54 ZM35.5312 -29.6962 L35.5312 -26.4775 L37.3281 -26.4775 Q38.3594 -26.4775 38.8828 -26.8837 Q39.4062 -27.29 39.4062 -28.1494 Q39.4062 -28.9462 38.8672 -29.3212 Q38.3281 -29.6962 37.2344 -29.6962 L35.5312 -29.6962 Z"/><path style="fill:rgb(230,0,0); stroke:none;" d="M59.0715 -5.5903 Q59.0715 -3.5278 58.0324 -2.3481 Q56.9934 -1.1684 55.1496 -1.1684 Q53.259 -1.1684 52.2278 -2.3325 Q51.1965 -3.4966 51.1965 -5.6059 Q51.1965 -7.6997 52.2278 -8.8481 Q53.259 -9.9966 55.1496 -9.9966 Q57.009 -9.9966 58.0403 -8.8247 Q59.0715 -7.6528 59.0715 -5.5903 ZM52.2434 -5.5903 Q52.2434 -3.8559 52.9856 -2.9497 Q53.7278 -2.0434 55.1496 -2.0434 Q56.5715 -2.0434 57.2981 -2.9419 Q58.0246 -3.8403 58.0246 -5.5903 Q58.0246 -7.3247 57.2981 -8.2153 Q56.5715 -9.1059 55.1496 -9.1059 Q53.7278 -9.1059 52.9856 -8.2075 Q52.2434 -7.3091 52.2434 -5.5903 Z"/><path style="fill:rgb(230,0,0); stroke:none;" d="M59.0715 -54.1303 Q59.0715 -52.0678 58.0324 -50.8881 Q56.9934 -49.7084 55.1496 -49.7084 Q53.259 -49.7084 52.2278 -50.8725 Q51.1965 -52.0366 51.1965 -54.1459 Q51.1965 -56.2397 52.2278 -57.3881 Q53.259 -58.5366 55.1496 -58.5366 Q57.009 -58.5366 58.0403 -57.3647 Q59.0715 -56.1928 59.0715 -54.1303 ZM52.2434 -54.1303 Q52.2434 -52.3959 52.9856 -51.4897 Q53.7278 -50.5834 55.1496 -50.5834 Q56.5715 -50.5834 57.2981 -51.4819 Q58.0246 -52.3803 58.0246 -54.1303 Q58.0246 -55.8647 57.2981 -56.7553 Q56.5715 -57.6459 55.1496 -57.6459 Q53.7278 -57.6459 52.9856 -56.7475 Q52.2434 -55.8491 52.2434 -54.1303 Z"/><path style="stroke:none;" d="M-40.4688 -60.1763 L-38.0469 -60.1763 Q-36.3438 -60.1763 -35.5781 -59.6684 Q-34.8125 -59.1606 -34.8125 -58.0669 Q-34.8125 -57.3013 -35.2344 -56.8013 Q-35.6562 -56.3013 -36.4844 -56.1606 L-36.4844 -56.0981 Q-34.5312 -55.77 -34.5312 -54.0513 Q-34.5312 -52.9106 -35.3047 -52.2622 Q-36.0781 -51.6138 -37.4688 -51.6138 L-40.4688 -51.6138 L-40.4688 -60.1763 ZM-39.4688 -56.52 L-37.8281 -56.52 Q-36.7656 -56.52 -36.3047 -56.8481 Q-35.8438 -57.1763 -35.8438 -57.9575 Q-35.8438 -58.6763 -36.3594 -58.9966 Q-36.875 -59.3169 -38 -59.3169 L-39.4688 -59.3169 L-39.4688 -56.52 ZM-39.4688 -55.6763 L-39.4688 -52.4575 L-37.6719 -52.4575 Q-36.6406 -52.4575 -36.1172 -52.8638 Q-35.5938 -53.27 -35.5938 -54.1294 Q-35.5938 -54.9263 -36.1328 -55.3013 Q-36.6719 -55.6763 -37.7656 -55.6763 L-39.4688 -55.6763 Z"/><path style="fill:rgb(230,0,0); stroke:none;" d="M-51.1965 -80.1103 Q-51.1965 -78.0478 -52.2356 -76.8681 Q-53.2746 -75.6884 -55.1184 -75.6884 Q-57.009 -75.6884 -58.0403 -76.8525 Q-59.0715 -78.0166 -59.0715 -80.1259 Q-59.0715 -82.2197 -58.0403 -83.3681 Q-57.009 -84.5166 -55.1184 -84.5166 Q-53.259 -84.5166 -52.2278 -83.3447 Q-51.1965 -82.1728 -51.1965 -80.1103 ZM-58.0246 -80.1103 Q-58.0246 -78.3759 -57.2824 -77.4697 Q-56.5403 -76.5634 -55.1184 -76.5634 Q-53.6965 -76.5634 -52.9699 -77.4619 Q-52.2434 -78.3603 -52.2434 -80.1103 Q-52.2434 -81.8447 -52.9699 -82.7353 Q-53.6965 -83.6259 -55.1184 -83.6259 Q-56.5403 -83.6259 -57.2824 -82.7275 Q-58.0246 -81.8291 -58.0246 -80.1103 Z"/><path style="fill:rgb(230,0,0); stroke:none;" d="M-51.1965 -31.5703 Q-51.1965 -29.5078 -52.2356 -28.3281 Q-53.2746 -27.1484 -55.1184 -27.1484 Q-57.009 -27.1484 -58.0403 -28.3125 Q-59.0715 -29.4766 -59.0715 -31.5859 Q-59.0715 -33.6797 -58.0403 -34.8281 Q-57.009 -35.9766 -55.1184 -35.9766 Q-53.259 -35.9766 -52.2278 -34.8047 Q-51.1965 -33.6328 -51.1965 -31.5703 ZM-58.0246 -31.5703 Q-58.0246 -29.8359 -57.2824 -28.9297 Q-56.5403 -28.0234 -55.1184 -28.0234 Q-53.6965 -28.0234 -52.9699 -28.9219 Q-52.2434 -29.8203 -52.2434 -31.5703 Q-52.2434 -33.3047 -52.9699 -34.1953 Q-53.6965 -35.0859 -55.1184 -35.0859 Q-56.5403 -35.0859 -57.2824 -34.1875 Q-58.0246 -33.2891 -58.0246 -31.5703 Z"/></g></g></svg></svg></svg></svg>