<svg xmlns:ns0="http://www.w3.org/2000/svg" xmlns="http://www.w3.org/2000/svg"><g transform="translate(0, 0)"><ns0:svg width="168" viewBox="0 0 168 106" style="fill-opacity:1; color-rendering:auto; color-interpolation:auto; text-rendering:auto; stroke:black; stroke-linecap:square; stroke-miterlimit:10; shape-rendering:auto; stroke-opacity:1; fill:black; stroke-dasharray:none; font-weight:normal; stroke-width:1; font-family:'Open Sans'; font-style:normal; stroke-linejoin:miter; font-size:12; stroke-dashoffset:0; image-rendering:auto;" height="106" class="cas-substance-image"><ns0:svg class="cas-substance-single-component"><ns0:rect y="0" x="0" width="168" stroke="none" ry="7" rx="7" height="106" fill="white" class="cas-substance-group" /><ns0:svg y="0" x="0" width="168" viewBox="0 0 168 106" style="fill:black;" height="106" class="cas-substance-single-component-image"><ns0:svg><ns0:g><ns0:g transform="translate(88,51)" style="text-rendering:geometricPrecision; color-rendering:optimizeQuality; color-interpolation:linearRGB; stroke-linecap:butt; image-rendering:optimizeQuality;"><ns0:line y2="40.9774" y1="17.454" x2="47.475" x1="47.475" style="fill:none;" /><ns0:line y2="7.1584" y1="19.4747" x2="68.807" x1="47.475" style="fill:none;" /><ns0:line y2="4.1273" y1="16.4436" x2="67.0569" x1="45.725" style="fill:none;" /><ns0:line y2="2.454" y1="17.454" x2="21.495" x1="47.475" style="fill:none;" /><ns0:line y2="14.658" y1="44.001" x2="-5.913" x1="-12.15" style="fill:none;" /><ns0:line y2="-27.381" y1="-47.454" x2="18.357" x1="40.653" style="fill:none;" /><ns0:line y2="-23.6137" y1="-4.503" x2="-69.7064" x1="-55.821" style="fill:none;" /><ns0:line y2="15.9788" y1="-6.1377" x2="-66.8566" x1="-57.0087" style="fill:none;" /><ns0:line y2="17.4025" y1="-4.7142" x2="-63.6592" x1="-53.8113" style="fill:none;" /><ns0:line y2="-7.638" y1="-4.503" x2="-25.986" x1="-55.821" style="fill:none;" /><ns0:line y2="14.658" y1="2.454" x2="-5.913" x1="21.495" style="fill:none;" /><ns0:line y2="-27.381" y1="2.454" x2="18.357" x1="21.495" style="fill:none;" /><ns0:line y2="-25.0053" y1="0.8105" x2="15.0876" x1="17.8028" style="fill:none;" /><ns0:line y2="-7.638" y1="14.658" x2="-25.986" x1="-5.913" style="fill:none;" /><ns0:line y2="-8.478" y1="10.8144" x2="-22.0328" x1="-4.6639" style="fill:none;" /><ns0:line y2="-32.4898" y1="-27.381" x2="-5.6781" x1="18.357" style="fill:none;" /><ns0:line y2="-27.7297" y1="-7.638" x2="-14.3857" x1="-25.986" style="fill:none;" /><ns0:path style="fill:none; stroke-miterlimit:5;" d="M47.475 17.954 L47.475 17.454 L47.042 17.204" /></ns0:g><ns0:g transform="translate(88,51)" style="stroke-linecap:butt; fill:rgb(230,0,0); text-rendering:geometricPrecision; color-rendering:optimizeQuality; image-rendering:optimizeQuality; font-family:'Open Sans'; stroke:rgb(230,0,0); color-interpolation:linearRGB; stroke-miterlimit:5;"><ns0:path style="stroke:none;" d="M51.4125 47.3837 Q51.4125 49.4462 50.3734 50.6259 Q49.3344 51.8056 47.4906 51.8056 Q45.6 51.8056 44.5687 50.6415 Q43.5375 49.4774 43.5375 47.3681 Q43.5375 45.2743 44.5687 44.1259 Q45.6 42.9774 47.4906 42.9774 Q49.35 42.9774 50.3812 44.1493 Q51.4125 45.3212 51.4125 47.3837 ZM44.5844 47.3837 Q44.5844 49.1181 45.3266 50.0243 Q46.0687 50.9306 47.4906 50.9306 Q48.9125 50.9306 49.6391 50.0321 Q50.3656 49.1337 50.3656 47.3837 Q50.3656 45.6493 49.6391 44.7587 Q48.9125 43.8681 47.4906 43.8681 Q46.0687 43.8681 45.3266 44.7665 Q44.5844 45.6649 44.5844 47.3837 Z" /><ns0:path style="stroke:none;" d="M58.9281 51.6806 L57.9281 51.6806 L57.9281 47.6493 L53.4125 47.6493 L53.4125 51.6806 L52.4125 51.6806 L52.4125 43.1181 L53.4125 43.1181 L53.4125 46.7587 L57.9281 46.7587 L57.9281 43.1181 L58.9281 43.1181 L58.9281 51.6806 Z" /><ns0:path style="stroke:none;" d="M77.3925 2.3837 Q77.3925 4.4462 76.3534 5.6259 Q75.3144 6.8056 73.4706 6.8056 Q71.58 6.8056 70.5487 5.6415 Q69.5175 4.4774 69.5175 2.3681 Q69.5175 0.2743 70.5487 -0.8741 Q71.58 -2.0226 73.4706 -2.0226 Q75.33 -2.0226 76.3612 -0.8507 Q77.3925 0.3212 77.3925 2.3837 ZM70.5644 2.3837 Q70.5644 4.1181 71.3066 5.0243 Q72.0487 5.9306 73.4706 5.9306 Q74.8925 5.9306 75.6191 5.0321 Q76.3456 4.1337 76.3456 2.3837 Q76.3456 0.6493 75.6191 -0.2413 Q74.8925 -1.1319 73.4706 -1.1319 Q72.0487 -1.1319 71.3066 -0.2335 Q70.5644 0.6649 70.5644 2.3837 Z" /><ns0:path style="fill:none; stroke:black;" d="M-56.1149 -4.9075 L-55.821 -4.503 L-55.3237 -4.5553" /><ns0:path style="stroke:none;" d="M-69.5175 -28.8433 Q-69.5175 -26.7808 -70.5566 -25.6011 Q-71.5956 -24.4214 -73.4394 -24.4214 Q-75.33 -24.4214 -76.3612 -25.5855 Q-77.3925 -26.7496 -77.3925 -28.8589 Q-77.3925 -30.9527 -76.3612 -32.1011 Q-75.33 -33.2496 -73.4394 -33.2496 Q-71.58 -33.2496 -70.5487 -32.0777 Q-69.5175 -30.9058 -69.5175 -28.8433 ZM-76.3456 -28.8433 Q-76.3456 -27.1089 -75.6034 -26.2027 Q-74.8612 -25.2964 -73.4394 -25.2964 Q-72.0175 -25.2964 -71.2909 -26.1949 Q-70.5644 -27.0933 -70.5644 -28.8433 Q-70.5644 -30.5777 -71.2909 -31.4683 Q-72.0175 -32.3589 -73.4394 -32.3589 Q-74.8612 -32.3589 -75.6034 -31.4605 Q-76.3456 -30.5621 -76.3456 -28.8433 Z" /><ns0:path style="stroke:none;" d="M-78.3925 -24.5464 L-79.3925 -24.5464 L-79.3925 -28.5777 L-83.9081 -28.5777 L-83.9081 -24.5464 L-84.9081 -24.5464 L-84.9081 -33.1089 L-83.9081 -33.1089 L-83.9081 -29.4683 L-79.3925 -29.4683 L-79.3925 -33.1089 L-78.3925 -33.1089 L-78.3925 -24.5464 Z" /><ns0:path style="stroke:none;" d="M-64.0875 22.8347 Q-64.0875 24.8972 -65.1266 26.0769 Q-66.1656 27.2566 -68.0094 27.2566 Q-69.9 27.2566 -70.9312 26.0925 Q-71.9625 24.9284 -71.9625 22.8191 Q-71.9625 20.7253 -70.9312 19.5769 Q-69.9 18.4284 -68.0094 18.4284 Q-66.15 18.4284 -65.1187 19.6003 Q-64.0875 20.7722 -64.0875 22.8347 ZM-70.9156 22.8347 Q-70.9156 24.5691 -70.1734 25.4753 Q-69.4312 26.3816 -68.0094 26.3816 Q-66.5875 26.3816 -65.8609 25.4831 Q-65.1344 24.5847 -65.1344 22.8347 Q-65.1344 21.1003 -65.8609 20.2097 Q-66.5875 19.3191 -68.0094 19.3191 Q-69.4312 19.3191 -70.1734 20.2175 Q-70.9156 21.1159 -70.9156 22.8347 Z" /><ns0:path style="fill:none; stroke:black;" d="M21.4427 1.9567 L21.495 2.454 L21.928 2.704" /><ns0:path style="fill:none; stroke:black;" d="M-6.2475 14.2864 L-5.913 14.658 L-6.017 15.1471" /><ns0:path style="fill:none; stroke:black;" d="M18.4093 -26.8837 L18.357 -27.381 L17.8679 -27.485" /><ns0:path style="fill:none; stroke:black;" d="M-25.6515 -7.2664 L-25.986 -7.638 L-26.4833 -7.5857" /><ns0:path style="fill:rgb(0,5,255); stroke:none;" d="M-7.6344 -29.4618 L-8.7751 -29.4618 L-13.4626 -36.6493 L-13.5094 -36.6493 Q-13.4157 -35.3836 -13.4157 -34.3368 L-13.4157 -29.4618 L-14.3376 -29.4618 L-14.3376 -38.0243 L-13.2126 -38.0243 L-8.5407 -30.868 L-8.4938 -30.868 Q-8.4938 -31.0243 -8.5407 -31.8836 Q-8.5876 -32.743 -8.5719 -33.118 L-8.5719 -38.0243 L-7.6344 -38.0243 L-7.6344 -29.4618 Z" /><ns0:path style="fill:rgb(0,5,255); stroke:none;" d="M-7.7282 -39.0243 L-8.7282 -39.0243 L-8.7282 -43.0555 L-13.2438 -43.0555 L-13.2438 -39.0243 L-14.2438 -39.0243 L-14.2438 -47.5868 L-13.2438 -47.5868 L-13.2438 -43.9461 L-8.7282 -43.9461 L-8.7282 -47.5868 L-7.7282 -47.5868 L-7.7282 -39.0243 Z" /></ns0:g></ns0:g></ns0:svg></ns0:svg></ns0:svg></ns0:svg></g></svg>