<svg width="165" viewBox="0 0 165 64" style="fill-opacity:1; color-rendering:auto; color-interpolation:auto; text-rendering:auto; stroke:black; stroke-linecap:square; stroke-miterlimit:10; shape-rendering:auto; stroke-opacity:1; fill:black; stroke-dasharray:none; font-weight:normal; stroke-width:1; font-family:'Open Sans'; font-style:normal; stroke-linejoin:miter; font-size:12; stroke-dashoffset:0; image-rendering:auto;" height="64" class="cas-substance-image" xmlns:xlink="http://www.w3.org/1999/xlink" xmlns="http://www.w3.org/2000/svg"><svg class="cas-substance-single-component"><rect y="0" x="0" width="165" stroke="none" ry="7" rx="7" height="64" fill="white" class="cas-substance-group"/><svg y="0" x="0" width="165" viewBox="0 0 165 64" style="fill:black;" height="64" class="cas-substance-single-component-image"><svg><g><g transform="translate(85,30)" style="text-rendering:geometricPrecision; color-rendering:optimizeQuality; color-interpolation:linearRGB; stroke-linecap:butt; image-rendering:optimizeQuality;"><line y2="-3.51" y1="-18.51" x2="24.414" x1="-1.566" style="fill:none;"/><line y2="-3.51" y1="-18.51" x2="-27.549" x1="-1.566" style="fill:none;"/><line y2="-15.3212" y1="-3.51" x2="44.871" x1="24.414" style="fill:none;"/><line y2="20.0134" y1="-4.5204" x2="22.664" x1="22.664" style="fill:none;"/><line y2="20.0134" y1="-4.5204" x2="26.164" x1="26.164" style="fill:none;"/><line y2="-3.51" y1="-15.3314" x2="76.374" x1="55.8994" style="fill:none;"/><line y2="-22.5651" y1="-26.49" x2="-69.0954" x1="-46.83" style="fill:none;"/><line y2="-3.51" y1="-26.49" x2="-27.549" x1="-46.83" style="fill:none;"/><line y2="24.681" y1="-3.51" x2="-17.286" x1="-27.549" style="fill:none;"/><line y2="19.473" y1="-3.51" x2="-46.83" x1="-27.549" style="fill:none;"/><line y2="19.473" y1="24.681" x2="-46.83" x1="-17.286" style="fill:none;"/><path style="fill:none; stroke-miterlimit:5;" d="M-1.133 -18.26 L-1.566 -18.51 L-1.999 -18.26"/><path style="fill:none; stroke-miterlimit:5;" d="M23.981 -3.76 L24.414 -3.51 L24.847 -3.76"/></g><g transform="translate(85,30)" style="stroke-linecap:butt; fill:rgb(230,0,0); text-rendering:geometricPrecision; color-rendering:optimizeQuality; image-rendering:optimizeQuality; font-family:'Open Sans'; stroke:rgb(230,0,0); color-interpolation:linearRGB; stroke-miterlimit:5;"><path style="stroke:none;" d="M54.3315 -18.5803 Q54.3315 -16.5178 53.2924 -15.3381 Q52.2534 -14.1584 50.4096 -14.1584 Q48.519 -14.1584 47.4878 -15.3225 Q46.4565 -16.4866 46.4565 -18.5959 Q46.4565 -20.6897 47.4878 -21.8381 Q48.519 -22.9866 50.4096 -22.9866 Q52.269 -22.9866 53.3003 -21.8147 Q54.3315 -20.6428 54.3315 -18.5803 ZM47.5034 -18.5803 Q47.5034 -16.8459 48.2456 -15.9397 Q48.9878 -15.0334 50.4096 -15.0334 Q51.8315 -15.0334 52.5581 -15.9319 Q53.2846 -16.8303 53.2846 -18.5803 Q53.2846 -20.3147 52.5581 -21.2053 Q51.8315 -22.0959 50.4096 -22.0959 Q48.9878 -22.0959 48.2456 -21.1975 Q47.5034 -20.2991 47.5034 -18.5803 Z"/><path style="stroke:none;" d="M28.3515 26.4197 Q28.3515 28.4822 27.3124 29.6619 Q26.2734 30.8416 24.4296 30.8416 Q22.539 30.8416 21.5077 29.6775 Q20.4765 28.5134 20.4765 26.4041 Q20.4765 24.3103 21.5077 23.1619 Q22.539 22.0134 24.4296 22.0134 Q26.289 22.0134 27.3202 23.1853 Q28.3515 24.3572 28.3515 26.4197 ZM21.5234 26.4197 Q21.5234 28.1541 22.2656 29.0603 Q23.0077 29.9666 24.4296 29.9666 Q25.8515 29.9666 26.5781 29.0681 Q27.3046 28.1697 27.3046 26.4197 Q27.3046 24.6853 26.5781 23.7947 Q25.8515 22.9041 24.4296 22.9041 Q23.0077 22.9041 22.2656 23.8025 Q21.5234 24.7009 21.5234 26.4197 Z"/><path style="fill:none; stroke:black;" d="M-47.3224 -26.4032 L-46.83 -26.49 L-46.5086 -26.107"/><path style="fill:rgb(0,138,0); stroke:none;" d="M-82.0429 -25.6882 L-79.6211 -25.6882 Q-77.9179 -25.6882 -77.1523 -25.1804 Q-76.3867 -24.6726 -76.3867 -23.5789 Q-76.3867 -22.8132 -76.8086 -22.3132 Q-77.2304 -21.8132 -78.0586 -21.6726 L-78.0586 -21.6101 Q-76.1054 -21.282 -76.1054 -19.5632 Q-76.1054 -18.4226 -76.8789 -17.7742 Q-77.6523 -17.1257 -79.0429 -17.1257 L-82.0429 -17.1257 L-82.0429 -25.6882 ZM-81.0429 -22.032 L-79.4023 -22.032 Q-78.3398 -22.032 -77.8789 -22.3601 Q-77.4179 -22.6882 -77.4179 -23.4695 Q-77.4179 -24.1882 -77.9336 -24.5086 Q-78.4492 -24.8289 -79.5742 -24.8289 L-81.0429 -24.8289 L-81.0429 -22.032 ZM-81.0429 -21.1882 L-81.0429 -17.9695 L-79.2461 -17.9695 Q-78.2148 -17.9695 -77.6914 -18.3757 Q-77.1679 -18.782 -77.1679 -19.6414 Q-77.1679 -20.4382 -77.707 -20.8132 Q-78.2461 -21.1882 -79.3398 -21.1882 L-81.0429 -21.1882 ZM-71.4707 -23.6726 Q-71.0488 -23.6726 -70.7051 -23.5945 L-70.8457 -22.6882 Q-71.2363 -22.782 -71.5488 -22.782 Q-72.3301 -22.782 -72.8847 -22.1492 Q-73.4394 -21.5164 -73.4394 -20.5789 L-73.4394 -17.1257 L-74.4082 -17.1257 L-74.4082 -23.5476 L-73.6113 -23.5476 L-73.4863 -22.3601 L-73.4394 -22.3601 Q-73.0957 -22.9851 -72.5879 -23.3289 Q-72.0801 -23.6726 -71.4707 -23.6726 Z"/><path style="fill:none; stroke:black;" d="M-17.457 24.2112 L-17.286 24.681 L-17.7784 24.5942"/><path style="fill:none; stroke:black;" d="M-46.5086 19.0899 L-46.83 19.473 L-46.3376 19.5598"/></g></g></svg></svg></svg></svg>