<svg width="167" viewBox="0 0 167 153" style="fill-opacity:1; color-rendering:auto; color-interpolation:auto; text-rendering:auto; stroke:black; stroke-linecap:square; stroke-miterlimit:10; shape-rendering:auto; stroke-opacity:1; fill:black; stroke-dasharray:none; font-weight:normal; stroke-width:1; font-family:'Open Sans'; font-style:normal; stroke-linejoin:miter; font-size:12; stroke-dashoffset:0; image-rendering:auto;" height="153" class="cas-substance-image" xmlns:xlink="http://www.w3.org/1999/xlink" xmlns="http://www.w3.org/2000/svg"><svg class="cas-substance-single-component"><rect y="0" x="0" width="167" stroke="none" ry="7" rx="7" height="153" fill="white" class="cas-substance-group"/><svg y="0" x="0" width="167" viewBox="0 0 167 153" style="fill:black;" height="153" class="cas-substance-single-component-image"><svg><g><clipPath id="clipPath_1bd61d4281a24453a0be66540c0915c01" clipPathUnits="userSpaceOnUse"><path d="M-23.1932 13.5667 L-48.0421 44.9121 L-21.7408 65.7623 L3.1081 34.4169 L-3.0202 29.5587 L-3.0202 29.5587 L-34.3077 48.5722 L-37.4236 43.4448 L-8.0336 25.5844 L-23.1932 13.5667 Z"/></clipPath><g transform="translate(84,76)" style="text-rendering:geometricPrecision; color-rendering:optimizeQuality; color-interpolation:linearRGB; stroke-linecap:butt; image-rendering:optimizeQuality;"><line y2="-28.728" y1="-25.413" x2="47.862" x1="18.048" style="fill:none;"/><line y2="-45.4832" y1="-25.6363" x2="5.4527" x1="20.0564" style="fill:none;"/><line y2="-43.4089" y1="-23.5622" x2="2.6337" x1="17.2372" style="fill:none;"/><line y2="-4.1712" y1="-25.413" x2="8.7419" x1="18.048" style="fill:none;"/><line y2="-54.1112" y1="-28.728" x2="45.0422" x1="47.862" style="fill:none;"/><line y2="-31.5537" y1="-28.728" x2="73.3006" x1="47.862" style="fill:none;"/><line y2="-5.305" y1="-28.728" x2="50.4661" x1="47.862" style="fill:none;"/><line y2="31.569" y1="31.569" x2="-62.679" x1="-32.679" style="fill:none;"/><line y2="47.76" y1="31.569" x2="-12.255" x1="-32.679" style="fill:none; clip-path:url(#clipPath_1bd61d4281a24453a0be66540c0915c01);"/><line y2="5.589" y1="31.569" x2="-17.679" x1="-32.679" style="fill:none;"/><line y2="5.5889" y1="28.069" x2="-21.7205" x1="-34.6997" style="fill:none;"/><line y2="44.061" y1="31.569" x2="-32.661" x1="-62.679" style="fill:none;"/><line y2="5.589" y1="31.569" x2="-77.679" x1="-62.679" style="fill:none;"/><line y2="5.5889" y1="28.069" x2="-73.6376" x1="-60.6583" style="fill:none;"/><line y2="72.354" y1="47.76" x2="-21.498" x1="-12.255" style="fill:none;"/><line y2="30.465" y1="47.76" x2="17.304" x1="-12.255" style="fill:none;"/><line y2="-20.391" y1="5.589" x2="-32.679" x1="-17.679" style="fill:none;"/><line y2="72.354" y1="44.061" x2="-21.498" x1="-32.661" style="fill:none;"/><line y2="25.458" y1="44.061" x2="-2.049" x1="-32.661" style="fill:none;"/><line y2="-20.391" y1="5.589" x2="-62.679" x1="-77.679" style="fill:none;"/><line y2="8.0816" y1="30.465" x2="8.4013" x1="17.304" style="fill:none;"/><line y2="-20.391" y1="-20.391" x2="-62.679" x1="-32.679" style="fill:none;"/><line y2="-40.4827" y1="-20.391" x2="-21.0787" x1="-32.679" style="fill:none;"/><line y2="-42.2327" y1="-23.891" x2="-24.1098" x1="-34.6997" style="fill:none;"/><line y2="8.1142" y1="25.458" x2="3.9258" x1="-2.049" style="fill:none;"/><line y2="-40.4827" y1="-20.391" x2="-74.2793" x1="-62.679" style="fill:none;"/><line y2="-42.2327" y1="-23.891" x2="-71.2482" x1="-60.6583" style="fill:none;"/><line y2="-72.354" y1="-52.5093" x2="-32.679" x1="-21.2227" style="fill:none;"/><line y2="-72.354" y1="-52.5093" x2="-62.679" x1="-74.1353" style="fill:none;"/><line y2="-72.354" y1="-72.354" x2="-62.679" x1="-32.679" style="fill:none;"/><line y2="-68.854" y1="-68.854" x2="-60.6583" x1="-34.6997" style="fill:none;"/><path style="fill:none; stroke-miterlimit:5;" d="M18.5449 -25.4683 L18.048 -25.413 L17.8474 -24.955"/></g><g transform="translate(84,76)" style="stroke-linecap:butt; fill:rgb(230,0,0); text-rendering:geometricPrecision; color-rendering:optimizeQuality; image-rendering:optimizeQuality; font-family:'Open Sans'; stroke:rgb(230,0,0); color-interpolation:linearRGB; stroke-miterlimit:5;"><path style="stroke:none;" d="M4.2045 -49.6483 Q4.2045 -47.5858 3.1654 -46.4061 Q2.1264 -45.2264 0.2826 -45.2264 Q-1.608 -45.2264 -2.6392 -46.3905 Q-3.6705 -47.5546 -3.6705 -49.6639 Q-3.6705 -51.7577 -2.6392 -52.9061 Q-1.608 -54.0546 0.2826 -54.0546 Q2.142 -54.0546 3.1733 -52.8827 Q4.2045 -51.7108 4.2045 -49.6483 ZM-2.6236 -49.6483 Q-2.6236 -47.9139 -1.8814 -47.0077 Q-1.1392 -46.1014 0.2826 -46.1014 Q1.7045 -46.1014 2.4311 -46.9999 Q3.1576 -47.8983 3.1576 -49.6483 Q3.1576 -51.3827 2.4311 -52.2733 Q1.7045 -53.1639 0.2826 -53.1639 Q-1.1392 -53.1639 -1.8814 -52.2655 Q-2.6236 -51.3671 -2.6236 -49.6483 Z"/><path style="fill:rgb(0,138,0); stroke:none;" d="M43.1594 -54.3857 L42.1594 -54.3857 L42.1594 -62.9482 L46.9406 -62.9482 L46.9406 -62.0732 L43.1594 -62.0732 L43.1594 -58.9326 L46.7062 -58.9326 L46.7062 -58.042 L43.1594 -58.042 L43.1594 -54.3857 Z"/><path style="fill:rgb(0,138,0); stroke:none;" d="M76.2884 -27.8837 L75.2884 -27.8837 L75.2884 -36.4462 L80.0696 -36.4462 L80.0696 -35.5712 L76.2884 -35.5712 L76.2884 -32.4306 L79.8353 -32.4306 L79.8353 -31.54 L76.2884 -31.54 L76.2884 -27.8837 Z"/><path style="fill:rgb(0,138,0); stroke:none;" d="M49.7864 5.2452 L48.7864 5.2452 L48.7864 -3.3173 L53.5676 -3.3173 L53.5676 -2.4423 L49.7864 -2.4423 L49.7864 0.6984 L53.3332 0.6984 L53.3332 1.589 L49.7864 1.589 L49.7864 5.2452 Z"/><path style="fill:none; stroke:black;" d="M-32.429 31.136 L-32.679 31.569 L-32.2872 31.8796"/><path style="fill:none; stroke:black;" d="M-62.929 31.136 L-62.679 31.569 L-62.179 31.569"/><path style="fill:none; stroke:black;" d="M-17.929 6.022 L-17.679 5.589 L-17.929 5.156"/><path style="fill:none; stroke:black;" d="M-77.429 6.022 L-77.679 5.589 L-77.429 5.156"/><path style="fill:none; stroke:black;" d="M-21.3221 71.886 L-21.498 72.354 L-21.6815 71.8889"/><path style="fill:none; stroke:black;" d="M16.8724 30.7175 L17.304 30.465 L17.1192 30.0004"/><path style="fill:none; stroke:black;" d="M-32.429 -20.824 L-32.679 -20.391 L-32.429 -19.958"/><path style="fill:none; stroke:black;" d="M-2.4763 25.7177 L-2.049 25.458 L-1.8861 24.9853"/><path style="fill:none; stroke:black;" d="M-62.929 -20.824 L-62.679 -20.391 L-62.929 -19.958"/><path style="fill:rgb(0,5,255); stroke:none;" d="M9.3606 6.2232 L8.2199 6.2232 L3.5324 -0.9643 L3.4856 -0.9643 Q3.5793 0.3014 3.5793 1.3482 L3.5793 6.2232 L2.6574 6.2232 L2.6574 -2.3393 L3.7824 -2.3393 L8.4543 4.817 L8.5012 4.817 Q8.5012 4.6607 8.4543 3.8014 Q8.4074 2.942 8.4231 2.567 L8.4231 -2.3393 L9.3606 -2.3393 L9.3606 6.2232 Z"/><path style="fill:rgb(0,5,255); stroke:none;" d="M-14.3274 -42.2147 L-15.4681 -42.2147 L-20.1556 -49.4022 L-20.2024 -49.4022 Q-20.1087 -48.1366 -20.1087 -47.0897 L-20.1087 -42.2147 L-21.0306 -42.2147 L-21.0306 -50.7772 L-19.9056 -50.7772 L-15.2337 -43.621 L-15.1868 -43.621 Q-15.1868 -43.7772 -15.2337 -44.6366 Q-15.2806 -45.496 -15.2649 -45.871 L-15.2649 -50.7772 L-14.3274 -50.7772 L-14.3274 -42.2147 Z"/><path style="fill:rgb(0,5,255); stroke:none;" d="M-74.3274 -42.2147 L-75.4681 -42.2147 L-80.1556 -49.4022 L-80.2024 -49.4022 Q-80.1087 -48.1366 -80.1087 -47.0897 L-80.1087 -42.2147 L-81.0306 -42.2147 L-81.0306 -50.7772 L-79.9056 -50.7772 L-75.2337 -43.621 L-75.1868 -43.621 Q-75.1868 -43.7772 -75.2337 -44.6366 Q-75.2806 -45.496 -75.2649 -45.871 L-75.2649 -50.7772 L-74.3274 -50.7772 L-74.3274 -42.2147 Z"/><path style="fill:none; stroke:black;" d="M-32.429 -71.921 L-32.679 -72.354 L-33.179 -72.354"/><path style="fill:none; stroke:black;" d="M-62.929 -71.921 L-62.679 -72.354 L-62.179 -72.354"/></g></g></svg></svg></svg></svg>