<svg width="136" viewBox="0 0 136 78" style="fill-opacity:1; color-rendering:auto; color-interpolation:auto; text-rendering:auto; stroke:black; stroke-linecap:square; stroke-miterlimit:10; shape-rendering:auto; stroke-opacity:1; fill:black; stroke-dasharray:none; font-weight:normal; stroke-width:1; font-family:'Open Sans'; font-style:normal; stroke-linejoin:miter; font-size:12; stroke-dashoffset:0; image-rendering:auto;" height="78" class="cas-substance-image" xmlns:xlink="http://www.w3.org/1999/xlink" xmlns="http://www.w3.org/2000/svg"><svg class="cas-substance-single-component"><rect y="0" x="0" width="136" stroke="none" ry="7" rx="7" height="78" fill="white" class="cas-substance-group"/><svg y="0" x="0" width="136" viewBox="0 0 136 78" style="fill:black;" height="78" class="cas-substance-single-component-image"><svg><g><g transform="translate(66,37)" style="text-rendering:geometricPrecision; color-rendering:optimizeQuality; color-interpolation:linearRGB; stroke-linecap:butt; image-rendering:optimizeQuality;"><line y2="-15" y1="-25.7274" x2="36.072" x1="54.654" style="fill:none;"/><line y2="-15" y1="15" x2="-15.888" x1="-15.888" style="fill:none;"/><line y2="27.0649" y1="15" x2="5.0084" x1="-15.888" style="fill:none;"/><line y2="24.0338" y1="12.9793" x2="6.7584" x1="-12.388" style="fill:none;"/><line y2="22.5631" y1="15" x2="-39.1673" x1="-15.888" style="fill:none;"/><line y2="-30" y1="-15" x2="10.092" x1="-15.888" style="fill:none;"/><line y2="-25.9585" y1="-12.9793" x2="10.0921" x1="-12.388" style="fill:none;"/><line y2="-24.27" y1="-15" x2="-44.421" x1="-15.888" style="fill:none;"/><line y2="15" y1="27.0649" x2="36.072" x1="15.1756" style="fill:none;"/><line y2="0" y1="18.2457" x2="-62.055" x1="-48.7981" style="fill:none;"/><line y2="-15" y1="-30" x2="36.072" x1="10.092" style="fill:none;"/><line y2="0" y1="-24.27" x2="-62.055" x1="-44.421" style="fill:none;"/><line y2="0.4225" y1="-20.5779" x2="-58.0357" x1="-42.7773" style="fill:none;"/><line y2="-15" y1="15" x2="36.072" x1="36.072" style="fill:none;"/><line y2="-12.9793" y1="12.9793" x2="32.572" x1="32.572" style="fill:none;"/></g><g transform="translate(66,37)" style="fill:rgb(0,138,0); text-rendering:geometricPrecision; color-rendering:optimizeQuality; image-rendering:optimizeQuality; font-family:'Open Sans'; stroke:rgb(0,138,0); color-interpolation:linearRGB;"><path style="stroke:none;" d="M56.3861 -34.4062 L58.8079 -34.4062 Q60.5111 -34.4062 61.2767 -33.8984 Q62.0423 -33.3906 62.0423 -32.2969 Q62.0423 -31.5312 61.6204 -31.0312 Q61.1986 -30.5312 60.3704 -30.3906 L60.3704 -30.3281 Q62.3236 -30 62.3236 -28.2812 Q62.3236 -27.1406 61.5501 -26.4922 Q60.7767 -25.8438 59.3861 -25.8438 L56.3861 -25.8438 L56.3861 -34.4062 ZM57.3861 -30.75 L59.0267 -30.75 Q60.0892 -30.75 60.5501 -31.0781 Q61.0111 -31.4062 61.0111 -32.1875 Q61.0111 -32.9062 60.4954 -33.2266 Q59.9798 -33.5469 58.8548 -33.5469 L57.3861 -33.5469 L57.3861 -30.75 ZM57.3861 -29.9062 L57.3861 -26.6875 L59.1829 -26.6875 Q60.2142 -26.6875 60.7376 -27.0938 Q61.2611 -27.5 61.2611 -28.3594 Q61.2611 -29.1562 60.722 -29.5312 Q60.1829 -29.9062 59.0892 -29.9062 L57.3861 -29.9062 ZM66.9583 -32.3906 Q67.3802 -32.3906 67.7239 -32.3125 L67.5833 -31.4062 Q67.1927 -31.5 66.8802 -31.5 Q66.0989 -31.5 65.5443 -30.8672 Q64.9896 -30.2344 64.9896 -29.2969 L64.9896 -25.8438 L64.0208 -25.8438 L64.0208 -32.2656 L64.8177 -32.2656 L64.9427 -31.0781 L64.9896 -31.0781 Q65.3333 -31.7031 65.8411 -32.0469 Q66.3489 -32.3906 66.9583 -32.3906 Z"/></g><g transform="translate(66,37)" style="stroke-linecap:butt; text-rendering:geometricPrecision; color-rendering:optimizeQuality; image-rendering:optimizeQuality; font-family:'Open Sans'; color-interpolation:linearRGB; stroke-miterlimit:5;"><path style="fill:none;" d="M-15.455 15.25 L-15.888 15 L-16.3635 15.1545"/><path style="fill:none;" d="M-15.455 -15.25 L-15.888 -15 L-16.3635 -15.1545"/><path style="fill:rgb(0,5,255); stroke:none;" d="M13.4436 34.1562 L12.3029 34.1562 L7.6154 26.9688 L7.5686 26.9688 Q7.6623 28.2344 7.6623 29.2812 L7.6623 34.1562 L6.7404 34.1562 L6.7404 25.5938 L7.8654 25.5938 L12.5373 32.75 L12.5842 32.75 Q12.5842 32.5938 12.5373 31.7344 Q12.4904 30.875 12.5061 30.5 L12.5061 25.5938 L13.4436 25.5938 L13.4436 34.1562 Z"/><path style="fill:rgb(0,5,255); stroke:none;" d="M-41.0694 28.4263 L-42.2101 28.4263 L-46.8976 21.2388 L-46.9444 21.2388 Q-46.8507 22.5044 -46.8507 23.5513 L-46.8507 28.4263 L-47.7726 28.4263 L-47.7726 19.8638 L-46.6476 19.8638 L-41.9757 27.02 L-41.9288 27.02 Q-41.9288 26.8638 -41.9757 26.0044 Q-42.0226 25.145 -42.0069 24.77 L-42.0069 19.8638 L-41.0694 19.8638 L-41.0694 28.4263 Z"/><path style="fill:rgb(0,5,255); stroke:none;" d="M-41.1632 37.9888 L-42.1632 37.9888 L-42.1632 33.9575 L-46.6788 33.9575 L-46.6788 37.9888 L-47.6788 37.9888 L-47.6788 29.4263 L-46.6788 29.4263 L-46.6788 33.0669 L-42.1632 33.0669 L-42.1632 29.4263 L-41.1632 29.4263 L-41.1632 37.9888 Z"/><path style="fill:none;" d="M9.659 -29.75 L10.092 -30 L10.525 -29.75"/><path style="fill:none;" d="M-43.9455 -24.1155 L-44.421 -24.27 L-44.7149 -23.8655"/><path style="fill:none;" d="M35.639 15.25 L36.072 15 L36.072 14.5"/><path style="fill:none;" d="M-61.7611 0.4045 L-62.055 0 L-61.7611 -0.4045"/><path style="fill:none;" d="M36.072 -14.5 L36.072 -15 L36.505 -15.25"/></g></g></svg></svg></svg></svg>