<svg xmlns:ns0="http://www.w3.org/2000/svg" xmlns="http://www.w3.org/2000/svg"><g transform="translate(0, 0)"><ns0:svg width="500" viewBox="0 0 500 146" style="fill-opacity:1; color-rendering:auto; color-interpolation:auto; text-rendering:auto; stroke:black; stroke-linecap:square; stroke-miterlimit:10; shape-rendering:auto; stroke-opacity:1; fill:black; stroke-dasharray:none; font-weight:normal; stroke-width:1; font-family:'Open Sans'; font-style:normal; stroke-linejoin:miter; font-size:12; stroke-dashoffset:0; image-rendering:auto;" height="146" class="cas-substance-image"><ns0:svg class="cas-substance-single-component"><ns0:rect y="0" x="0" width="500" stroke="none" ry="7" rx="7" height="146" fill="white" class="cas-substance-group" /><ns0:svg y="0" x="0" width="500" viewBox="0 0 500 146" style="fill:black;" height="146" class="cas-substance-single-component-image"><ns0:svg><ns0:g><ns0:g transform="translate(250,71)" style="text-rendering:geometricPrecision; color-rendering:optimizeQuality; color-interpolation:linearRGB; stroke-linecap:butt; image-rendering:optimizeQuality;"><ns0:line y2="-22.5" y1="-7.5" x2="-142.893" x1="-168.876" style="fill:none;" /><ns0:line y2="-24.5209" y1="-11.5415" x2="-146.3929" x1="-168.8759" style="fill:none;" /></ns0:g><ns0:g transform="translate(250,71)" style="stroke-linecap:butt; font-size:8.4px; fill:gray; text-rendering:geometricPrecision; image-rendering:optimizeQuality; color-rendering:optimizeQuality; font-family:'Open Sans'; font-style:italic; stroke:gray; color-interpolation:linearRGB;"><ns0:path style="stroke:none;" d="M-155.0322 -5.1755 Q-155.0322 -6.5036 -154.5634 -7.6286 Q-154.0947 -8.7536 -153.0634 -9.8317 L-152.4541 -9.8317 Q-153.4228 -8.7692 -153.9072 -7.5974 Q-154.3916 -6.4255 -154.3916 -5.1911 Q-154.3916 -3.863 -153.9541 -2.8474 L-154.4697 -2.8474 Q-155.0322 -3.8786 -155.0322 -5.1755 ZM-149.769 -4.113 L-152.6284 -4.113 L-151.4253 -9.8317 L-148.5503 -9.8317 L-148.6753 -9.2224 L-150.894 -9.2224 L-151.269 -7.3942 L-149.2221 -7.3942 L-149.3315 -6.8005 L-151.394 -6.8005 L-151.8471 -4.7067 L-149.6284 -4.7067 L-149.769 -4.113 ZM-146.7375 -7.488 Q-146.7375 -6.1599 -147.214 -5.0271 Q-147.6906 -3.8942 -148.7062 -2.8474 L-149.3156 -2.8474 Q-147.3781 -5.0036 -147.3781 -7.488 Q-147.3781 -8.8161 -147.8156 -9.8317 L-147.3 -9.8317 Q-146.7375 -8.7692 -146.7375 -7.488 Z" /><ns0:line y2="-22.5" y1="-7.5" x2="-194.856" x1="-168.876" style="fill:none; stroke:black;" /><ns0:line y2="-7.5" y1="-22.5" x2="-116.913" x1="-142.893" style="fill:none; stroke:black;" /><ns0:line y2="-22.5" y1="-7.5" x2="-90.933" x1="-116.913" style="fill:none; stroke:black;" /><ns0:line y2="-18.4585" y1="-5.4793" x2="-90.9329" x1="-113.413" style="fill:none; stroke:black;" /><ns0:path style="stroke:none;" d="M-103.0703 -5.1757 Q-103.0703 -6.5039 -102.6015 -7.6289 Q-102.1328 -8.7539 -101.1015 -9.832 L-100.4921 -9.832 Q-101.4609 -8.7695 -101.9453 -7.5976 Q-102.4296 -6.4257 -102.4296 -5.1914 Q-102.4296 -3.8632 -101.9921 -2.8476 L-102.5078 -2.8476 Q-103.0703 -3.8789 -103.0703 -5.1757 ZM-97.8071 -4.1132 L-100.6665 -4.1132 L-99.4633 -9.832 L-96.5883 -9.832 L-96.7133 -9.2226 L-98.9321 -9.2226 L-99.3071 -7.3945 L-97.2602 -7.3945 L-97.3696 -6.8007 L-99.4321 -6.8007 L-99.8852 -4.707 L-97.6665 -4.707 L-97.8071 -4.1132 ZM-94.7755 -7.4882 Q-94.7755 -6.1601 -95.2521 -5.0273 Q-95.7287 -3.8945 -96.7443 -2.8476 L-97.3537 -2.8476 Q-95.4162 -5.0039 -95.4162 -7.4882 Q-95.4162 -8.8164 -95.8537 -9.832 L-95.338 -9.832 Q-94.7755 -8.7695 -94.7755 -7.4882 Z" /><ns0:line y2="22.5" y1="-7.5" x2="-116.913" x1="-116.913" style="fill:none; stroke:black;" /><ns0:line y2="-7.5" y1="-22.5" x2="-64.953" x1="-90.933" style="fill:none; stroke:black;" /><ns0:line y2="-22.5" y1="-7.5" x2="-38.97" x1="-64.953" style="fill:none; stroke:black;" /><ns0:line y2="-24.5209" y1="-11.5415" x2="-42.4699" x1="-64.9529" style="fill:none; stroke:black;" /><ns0:path style="stroke:none;" d="M-51.1092 -5.1755 Q-51.1092 -6.5036 -50.6404 -7.6286 Q-50.1717 -8.7536 -49.1404 -9.8317 L-48.5311 -9.8317 Q-49.4998 -8.7692 -49.9842 -7.5974 Q-50.4686 -6.4255 -50.4686 -5.1911 Q-50.4686 -3.863 -50.0311 -2.8474 L-50.5467 -2.8474 Q-51.1092 -3.8786 -51.1092 -5.1755 ZM-45.846 -4.113 L-48.7054 -4.113 L-47.5023 -9.8317 L-44.6273 -9.8317 L-44.7523 -9.2224 L-46.971 -9.2224 L-47.346 -7.3942 L-45.2991 -7.3942 L-45.4085 -6.8005 L-47.471 -6.8005 L-47.9241 -4.7067 L-45.7054 -4.7067 L-45.846 -4.113 ZM-42.8145 -7.488 Q-42.8145 -6.1599 -43.291 -5.0271 Q-43.7676 -3.8942 -44.7832 -2.8474 L-45.3926 -2.8474 Q-43.4551 -5.0036 -43.4551 -7.488 Q-43.4551 -8.8161 -43.8926 -9.8317 L-43.377 -9.8317 Q-42.8145 -8.7692 -42.8145 -7.488 Z" /><ns0:line y2="-7.5" y1="-22.5" x2="-12.99" x1="-38.97" style="fill:none; stroke:black;" /><ns0:line y2="-22.5" y1="-7.5" x2="12.99" x1="-12.99" style="fill:none; stroke:black;" /><ns0:line y2="-18.4585" y1="-5.4793" x2="12.9901" x1="-9.49" style="fill:none; stroke:black;" /><ns0:path style="stroke:none;" d="M0.8527 -5.1757 Q0.8527 -6.5039 1.3215 -7.6289 Q1.7902 -8.7539 2.8215 -9.832 L3.4309 -9.832 Q2.4621 -8.7695 1.9777 -7.5976 Q1.4934 -6.4257 1.4934 -5.1914 Q1.4934 -3.8632 1.9309 -2.8476 L1.4152 -2.8476 Q0.8527 -3.8789 0.8527 -5.1757 ZM6.1159 -4.1132 L3.2565 -4.1132 L4.4597 -9.832 L7.3347 -9.832 L7.2097 -9.2226 L4.9909 -9.2226 L4.6159 -7.3945 L6.6628 -7.3945 L6.5534 -6.8007 L4.4909 -6.8007 L4.0378 -4.707 L6.2565 -4.707 L6.1159 -4.1132 ZM9.1475 -7.4882 Q9.1475 -6.1601 8.6709 -5.0273 Q8.1944 -3.8945 7.1787 -2.8476 L6.5694 -2.8476 Q8.5069 -5.0039 8.5069 -7.4882 Q8.5069 -8.8164 8.0694 -9.832 L8.585 -9.832 Q9.1475 -8.7695 9.1475 -7.4882 Z" /><ns0:line y2="22.5" y1="-7.5" x2="-12.99" x1="-12.99" style="fill:none; stroke:black;" /><ns0:line y2="-7.5" y1="-22.5" x2="38.97" x1="12.99" style="fill:none; stroke:black;" /><ns0:line y2="-19.5652" y1="-7.5" x2="59.8694" x1="38.97" style="fill:none; stroke:black;" /><ns0:line y2="16.0234" y1="-8.5104" x2="37.22" x1="37.22" style="fill:none; stroke:black;" /><ns0:line y2="16.0234" y1="-8.5103" x2="40.72" x1="40.72" style="fill:none; stroke:black;" /><ns0:line y2="-7.5" y1="-19.5649" x2="90.933" x1="70.0366" style="fill:none; stroke:black;" /><ns0:line y2="-7.5" y1="15.48" x2="-220.836" x1="-240.12" style="fill:none; stroke:black;" /><ns0:line y2="-7.5" y1="15.48" x2="-220.836" x1="-201.552" style="fill:none; stroke:black;" /><ns0:line y2="-52.5" y1="-67.5" x2="-194.856" x1="-168.876" style="fill:none; stroke:black;" /><ns0:line y2="25.6888" y1="37.5" x2="189.333" x1="168.876" style="fill:none; stroke:black;" /><ns0:line y2="61.0234" y1="36.4897" x2="167.126" x1="167.126" style="fill:none; stroke:black;" /><ns0:line y2="61.0234" y1="36.4896" x2="170.626" x1="170.626" style="fill:none; stroke:black;" /><ns0:line y2="22.5" y1="37.5" x2="142.893" x1="168.876" style="fill:none; stroke:black;" /><ns0:line y2="37.5" y1="25.6786" x2="220.836" x1="200.3614" style="fill:none; stroke:black;" /><ns0:line y2="22.5" y1="37.5" x2="246.816" x1="220.836" style="fill:none; stroke:black;" /><ns0:line y2="-7.5" y1="-22.5" x2="-220.836" x1="-194.856" style="fill:none; stroke:black;" /><ns0:line y2="-52.5" y1="-22.5" x2="-194.856" x1="-194.856" style="fill:none; stroke:black;" /><ns0:line y2="-50.4793" y1="-24.5207" x2="-198.356" x1="-198.356" style="fill:none; stroke:black;" /><ns0:line y2="-22.5" y1="-7.5" x2="-246.816" x1="-220.836" style="fill:none; stroke:black;" /><ns0:line y2="-67.5" y1="-52.5" x2="-220.836" x1="-194.856" style="fill:none; stroke:black;" /><ns0:line y2="-52.5" y1="-22.5" x2="-246.816" x1="-246.816" style="fill:none; stroke:black;" /><ns0:line y2="-52.5" y1="-67.5" x2="-246.816" x1="-220.836" style="fill:none; stroke:black;" /><ns0:line y2="-22.5" y1="-7.5" x2="116.913" x1="90.933" style="fill:none; stroke:black;" /><ns0:line y2="-18.4585" y1="-5.4793" x2="116.9131" x1="94.433" style="fill:none; stroke:black;" /><ns0:line y2="22.5" y1="-7.5" x2="90.933" x1="90.933" style="fill:none; stroke:black;" /><ns0:line y2="-7.5" y1="-22.5" x2="142.893" x1="116.913" style="fill:none; stroke:black;" /><ns0:line y2="37.5" y1="22.5" x2="116.913" x1="90.933" style="fill:none; stroke:black;" /><ns0:line y2="33.4585" y1="20.4793" x2="116.9131" x1="94.433" style="fill:none; stroke:black;" /><ns0:line y2="22.5" y1="-7.5" x2="142.893" x1="142.893" style="fill:none; stroke:black;" /><ns0:line y2="20.4793" y1="-5.4793" x2="139.393" x1="139.393" style="fill:none; stroke:black;" /><ns0:line y2="22.5" y1="37.5" x2="142.893" x1="116.913" style="fill:none; stroke:black;" /><ns0:path style="fill:none; stroke-miterlimit:5; stroke:black;" d="M-168.443 -7.75 L-168.876 -7.5 L-169.309 -7.75" /><ns0:path style="fill:none; stroke-miterlimit:5; stroke:black;" d="M-143.326 -22.25 L-142.893 -22.5 L-142.46 -22.25" /><ns0:path style="fill:none; stroke-miterlimit:5; stroke:black;" d="M-116.48 -7.75 L-116.913 -7.5 L-116.913 -7" /><ns0:path style="fill:none; stroke-miterlimit:5; stroke:black;" d="M-91.366 -22.25 L-90.933 -22.5 L-90.5 -22.25" /><ns0:path style="fill:none; stroke-miterlimit:5; stroke:black;" d="M-65.386 -7.75 L-64.953 -7.5 L-64.52 -7.75" /><ns0:path style="fill:none; stroke-miterlimit:5; stroke:black;" d="M-39.403 -22.25 L-38.97 -22.5 L-38.537 -22.25" /><ns0:path style="fill:none; stroke-miterlimit:5; stroke:black;" d="M-12.557 -7.75 L-12.99 -7.5 L-12.99 -7" /><ns0:path style="fill:none; stroke-miterlimit:5; stroke:black;" d="M12.557 -22.25 L12.99 -22.5 L13.423 -22.25" /><ns0:path style="fill:none; stroke-miterlimit:5; stroke:black;" d="M38.537 -7.75 L38.97 -7.5 L39.403 -7.75" /></ns0:g><ns0:g transform="translate(250,71)" style="stroke-linecap:butt; fill:rgb(0,5,255); text-rendering:geometricPrecision; color-rendering:optimizeQuality; image-rendering:optimizeQuality; font-family:'Open Sans'; stroke:rgb(0,5,255); color-interpolation:linearRGB; stroke-miterlimit:5;"><ns0:path style="stroke:none;" d="M68.3046 -18.3438 L67.1639 -18.3438 L62.4764 -25.5312 L62.4296 -25.5312 Q62.5233 -24.2656 62.5233 -23.2188 L62.5233 -18.3438 L61.6014 -18.3438 L61.6014 -26.9062 L62.7264 -26.9062 L67.3983 -19.75 L67.4452 -19.75 Q67.4452 -19.9062 67.3983 -20.7656 Q67.3514 -21.625 67.3671 -22 L67.3671 -26.9062 L68.3046 -26.9062 L68.3046 -18.3438 Z" /><ns0:path style="stroke:none;" d="M68.2108 -27.9062 L67.2108 -27.9062 L67.2108 -31.9375 L62.6952 -31.9375 L62.6952 -27.9062 L61.6952 -27.9062 L61.6952 -36.4688 L62.6952 -36.4688 L62.6952 -32.8281 L67.2108 -32.8281 L67.2108 -36.4688 L68.2108 -36.4688 L68.2108 -27.9062 Z" /><ns0:path style="fill:rgb(230,0,0); stroke:none;" d="M42.9075 22.4297 Q42.9075 24.4922 41.8684 25.6719 Q40.8294 26.8516 38.9856 26.8516 Q37.095 26.8516 36.0638 25.6875 Q35.0325 24.5234 35.0325 22.4141 Q35.0325 20.3203 36.0638 19.1719 Q37.095 18.0234 38.9856 18.0234 Q40.845 18.0234 41.8763 19.1953 Q42.9075 20.3672 42.9075 22.4297 ZM36.0794 22.4297 Q36.0794 24.1641 36.8216 25.0703 Q37.5638 25.9766 38.9856 25.9766 Q40.4075 25.9766 41.1341 25.0781 Q41.8606 24.1797 41.8606 22.4297 Q41.8606 20.6953 41.1341 19.8047 Q40.4075 18.9141 38.9856 18.9141 Q37.5638 18.9141 36.8216 19.8125 Q36.0794 20.7109 36.0794 22.4297 Z" /><ns0:path style="fill:none; stroke:black;" d="M169.309 37.25 L168.876 37.5 L168.443 37.25" /><ns0:path style="fill:rgb(230,0,0); stroke:none;" d="M198.7935 22.4297 Q198.7935 24.4922 197.7544 25.6719 Q196.7154 26.8516 194.8716 26.8516 Q192.981 26.8516 191.9498 25.6875 Q190.9185 24.5234 190.9185 22.4141 Q190.9185 20.3203 191.9498 19.1719 Q192.981 18.0234 194.8716 18.0234 Q196.731 18.0234 197.7623 19.1953 Q198.7935 20.3672 198.7935 22.4297 ZM191.9654 22.4297 Q191.9654 24.1641 192.7076 25.0703 Q193.4498 25.9766 194.8716 25.9766 Q196.2935 25.9766 197.0201 25.0781 Q197.7466 24.1797 197.7466 22.4297 Q197.7466 20.6953 197.0201 19.8047 Q196.2935 18.9141 194.8716 18.9141 Q193.4498 18.9141 192.7076 19.8125 Q191.9654 20.7109 191.9654 22.4297 Z" /><ns0:path style="fill:rgb(230,0,0); stroke:none;" d="M172.8135 67.4297 Q172.8135 69.4922 171.7744 70.6719 Q170.7354 71.8516 168.8916 71.8516 Q167.001 71.8516 165.9698 70.6875 Q164.9385 69.5234 164.9385 67.4141 Q164.9385 65.3203 165.9698 64.1719 Q167.001 63.0234 168.8916 63.0234 Q170.751 63.0234 171.7823 64.1953 Q172.8135 65.3672 172.8135 67.4297 ZM165.9854 67.4297 Q165.9854 69.1641 166.7276 70.0703 Q167.4698 70.9766 168.8916 70.9766 Q170.3135 70.9766 171.0401 70.0781 Q171.7666 69.1797 171.7666 67.4297 Q171.7666 65.6953 171.0401 64.8047 Q170.3135 63.9141 168.8916 63.9141 Q167.4698 63.9141 166.7276 64.8125 Q165.9854 65.7109 165.9854 67.4297 Z" /><ns0:path style="fill:none; stroke:black;" d="M220.403 37.25 L220.836 37.5 L221.269 37.25" /><ns0:path style="fill:none; stroke:black;" d="M-194.856 -23 L-194.856 -22.5 L-194.423 -22.25" /><ns0:path style="fill:none; stroke:black;" d="M-194.856 -52 L-194.856 -52.5 L-194.423 -52.75" /><ns0:path style="fill:none; stroke:black;" d="M-246.383 -22.25 L-246.816 -22.5 L-246.816 -23" /><ns0:path style="fill:none; stroke:black;" d="M-220.403 -67.25 L-220.836 -67.5 L-221.269 -67.25" /><ns0:path style="fill:none; stroke:black;" d="M-246.816 -52 L-246.816 -52.5 L-246.383 -52.75" /><ns0:path style="fill:none; stroke:black;" d="M91.366 -7.75 L90.933 -7.5 L90.933 -7" /><ns0:path style="fill:none; stroke:black;" d="M116.48 -22.25 L116.913 -22.5 L117.346 -22.25" /><ns0:path style="fill:none; stroke:black;" d="M90.933 22 L90.933 22.5 L91.366 22.75" /><ns0:path style="fill:none; stroke:black;" d="M142.46 -7.75 L142.893 -7.5 L142.893 -7" /><ns0:path style="fill:none; stroke:black;" d="M116.48 37.25 L116.913 37.5 L117.346 37.25" /><ns0:path style="fill:none; stroke:black;" d="M142.893 22 L142.893 22.5 L143.326 22.75" /></ns0:g></ns0:g></ns0:svg></ns0:svg></ns0:svg></ns0:svg></g></svg>