<svg width="164" viewBox="0 0 164 145" style="fill-opacity:1; color-rendering:auto; color-interpolation:auto; text-rendering:auto; stroke:black; stroke-linecap:square; stroke-miterlimit:10; shape-rendering:auto; stroke-opacity:1; fill:black; stroke-dasharray:none; font-weight:normal; stroke-width:1; font-family:'Open Sans'; font-style:normal; stroke-linejoin:miter; font-size:12; stroke-dashoffset:0; image-rendering:auto;" height="145" class="cas-substance-image" xmlns:xlink="http://www.w3.org/1999/xlink" xmlns="http://www.w3.org/2000/svg"><svg class="cas-substance-single-component"><rect y="0" x="0" width="164" stroke="none" ry="7" rx="7" height="145" fill="white" class="cas-substance-group"/><svg y="0" x="0" width="164" viewBox="0 0 164 145" style="fill:black;" height="145" class="cas-substance-single-component-image"><svg><g><g transform="translate(82,73)" style="text-rendering:geometricPrecision; color-rendering:optimizeQuality; color-interpolation:linearRGB; stroke-linecap:butt; image-rendering:optimizeQuality;"><line y2="-12.99" y1="-12.99" x2="69.6484" x1="45" style="fill:none;"/><line y2="-16.49" y1="-16.49" x2="69.6484" x1="45" style="fill:none;"/><line y2="-9.49" y1="-9.49" x2="69.6484" x1="45" style="fill:none;"/><line y2="-12.99" y1="-12.99" x2="15" x1="45" style="fill:none;"/><line y2="58.8147" y1="38.97" x2="26.4563" x1="15" style="fill:none;"/><line y2="57.0648" y1="37.2201" x2="29.4875" x1="18.0312" style="fill:none;"/><line y2="60.5645" y1="40.7199" x2="23.4252" x1="11.9688" style="fill:none;"/><line y2="12.99" y1="38.97" x2="0" x1="15" style="fill:none;"/><line y2="-38.97" y1="-58.8479" x2="0" x1="11.4756" style="fill:none;"/><line y2="12.99" y1="32.6188" x2="-30" x1="-41.333" style="fill:none;"/><line y2="-38.97" y1="-58.72" x2="-30" x1="-41.4017" style="fill:none;"/><line y2="-12.99" y1="-12.99" x2="-45" x1="-68.582" style="fill:none;"/><line y2="12.99" y1="-12.99" x2="0" x1="15" style="fill:none;"/><line y2="9.49" y1="-12.9901" x2="-2.0207" x1="10.9585" style="fill:none;"/><line y2="-38.97" y1="-12.99" x2="0" x1="15" style="fill:none;"/><line y2="12.99" y1="12.99" x2="-30" x1="0" style="fill:none;"/><line y2="-38.97" y1="-38.97" x2="-30" x1="0" style="fill:none;"/><line y2="-35.47" y1="-35.47" x2="-27.9793" x1="-2.0207" style="fill:none;"/><line y2="-12.99" y1="12.99" x2="-45" x1="-30" style="fill:none;"/><line y2="-12.9901" y1="9.49" x2="-40.9585" x1="-27.9793" style="fill:none;"/><line y2="-12.99" y1="-38.97" x2="-45" x1="-30" style="fill:none;"/></g><g transform="translate(82,73)" style="fill:rgb(0,5,255); text-rendering:geometricPrecision; color-rendering:optimizeQuality; image-rendering:optimizeQuality; font-family:'Open Sans'; stroke:rgb(0,5,255); color-interpolation:linearRGB;"><path style="stroke:none;" d="M78.3516 -8.8337 L77.2109 -8.8337 L72.5234 -16.0212 L72.4766 -16.0212 Q72.5703 -14.7556 72.5703 -13.7087 L72.5703 -8.8337 L71.6484 -8.8337 L71.6484 -17.3962 L72.7734 -17.3962 L77.4453 -10.24 L77.4922 -10.24 Q77.4922 -10.3962 77.4453 -11.2556 Q77.3984 -12.115 77.4141 -12.49 L77.4141 -17.3962 L78.3516 -17.3962 L78.3516 -8.8337 Z"/></g><g transform="translate(82,73)" style="stroke-linecap:butt; text-rendering:geometricPrecision; color-rendering:optimizeQuality; image-rendering:optimizeQuality; font-family:'Open Sans'; color-interpolation:linearRGB; stroke-miterlimit:5;"><path style="fill:none;" d="M15.25 39.403 L15 38.97 L14.75 38.537"/><path style="fill:rgb(0,5,255); stroke:none;" d="M33.3516 69.1093 L32.2109 69.1093 L27.5234 61.9218 L27.4766 61.9218 Q27.5703 63.1874 27.5703 64.2343 L27.5703 69.1093 L26.6484 69.1093 L26.6484 60.5468 L27.7734 60.5468 L32.4453 67.703 L32.4922 67.703 Q32.4922 67.5468 32.4453 66.6874 Q32.3984 65.828 32.4141 65.453 L32.4141 60.5468 L33.3516 60.5468 L33.3516 69.1093 Z"/><path style="fill:rgb(0,138,0); stroke:none;" d="M14.6914 -68.3124 Q13.2852 -68.3124 12.4648 -67.3749 Q11.6445 -66.4374 11.6445 -64.7968 Q11.6445 -63.1249 12.4336 -62.203 Q13.2227 -61.2811 14.6758 -61.2811 Q15.582 -61.2811 16.7227 -61.6093 L16.7227 -60.7343 Q15.832 -60.3905 14.5352 -60.3905 Q12.6445 -60.3905 11.6133 -61.5468 Q10.582 -62.703 10.582 -64.8124 Q10.582 -66.1405 11.0742 -67.1327 Q11.5664 -68.1249 12.5039 -68.6639 Q13.4414 -69.203 14.707 -69.203 Q16.0508 -69.203 17.0664 -68.7186 L16.6445 -67.8593 Q15.6602 -68.3124 14.6914 -68.3124 ZM19.418 -60.5155 L18.4492 -60.5155 L18.4492 -69.6405 L19.418 -69.6405 L19.418 -60.5155 Z"/><path style="fill:rgb(0,138,0); stroke:none;" d="M-45.3086 35.6106 Q-46.7148 35.6106 -47.5352 36.5481 Q-48.3555 37.4856 -48.3555 39.1263 Q-48.3555 40.7981 -47.5664 41.72 Q-46.7773 42.6419 -45.3242 42.6419 Q-44.418 42.6419 -43.2773 42.3138 L-43.2773 43.1888 Q-44.168 43.5325 -45.4648 43.5325 Q-47.3555 43.5325 -48.3867 42.3763 Q-49.418 41.22 -49.418 39.1106 Q-49.418 37.7825 -48.9258 36.7903 Q-48.4336 35.7981 -47.4961 35.2591 Q-46.5586 34.72 -45.293 34.72 Q-43.9492 34.72 -42.9336 35.2044 L-43.3555 36.0638 Q-44.3398 35.6106 -45.3086 35.6106 ZM-40.582 43.4075 L-41.5508 43.4075 L-41.5508 34.2825 L-40.582 34.2825 L-40.582 43.4075 Z"/><path style="fill:rgb(0,138,0); stroke:none;" d="M-45.3086 -68.3124 Q-46.7148 -68.3124 -47.5352 -67.3749 Q-48.3555 -66.4374 -48.3555 -64.7968 Q-48.3555 -63.1249 -47.5664 -62.203 Q-46.7773 -61.2811 -45.3242 -61.2811 Q-44.418 -61.2811 -43.2773 -61.6093 L-43.2773 -60.7343 Q-44.168 -60.3905 -45.4648 -60.3905 Q-47.3555 -60.3905 -48.3867 -61.5468 Q-49.418 -62.703 -49.418 -64.8124 Q-49.418 -66.1405 -48.9258 -67.1327 Q-48.4336 -68.1249 -47.4961 -68.6639 Q-46.5586 -69.203 -45.293 -69.203 Q-43.9492 -69.203 -42.9336 -68.7186 L-43.3555 -67.8593 Q-44.3398 -68.3124 -45.3086 -68.3124 ZM-40.582 -60.5155 L-41.5508 -60.5155 L-41.5508 -69.6405 L-40.582 -69.6405 L-40.582 -60.5155 Z"/><path style="fill:rgb(0,138,0); stroke:none;" d="M-75.3086 -16.3494 Q-76.7148 -16.3494 -77.5352 -15.4119 Q-78.3555 -14.4744 -78.3555 -12.8337 Q-78.3555 -11.1619 -77.5664 -10.24 Q-76.7773 -9.3181 -75.3242 -9.3181 Q-74.418 -9.3181 -73.2773 -9.6462 L-73.2773 -8.7712 Q-74.168 -8.4275 -75.4648 -8.4275 Q-77.3555 -8.4275 -78.3867 -9.5837 Q-79.418 -10.74 -79.418 -12.8494 Q-79.418 -14.1775 -78.9258 -15.1697 Q-78.4336 -16.1619 -77.4961 -16.7009 Q-76.5586 -17.24 -75.293 -17.24 Q-73.9492 -17.24 -72.9336 -16.7556 L-73.3555 -15.8962 Q-74.3398 -16.3494 -75.3086 -16.3494 ZM-70.582 -8.5525 L-71.5508 -8.5525 L-71.5508 -17.6775 L-70.582 -17.6775 L-70.582 -8.5525 Z"/><path style="fill:none;" d="M14.75 -12.557 L15 -12.99 L15.5 -12.99"/><path style="fill:none;" d="M0.25 12.557 L0 12.99 L-0.5 12.99"/><path style="fill:none;" d="M-0.5 -38.97 L0 -38.97 L0.25 -39.403"/><path style="fill:none;" d="M-30.25 12.557 L-30 12.99 L-30.25 13.423"/><path style="fill:none;" d="M-29.5 -38.97 L-30 -38.97 L-30.25 -38.537"/><path style="fill:none;" d="M-44.75 -12.557 L-45 -12.99 L-45.5 -12.99"/></g></g></svg></svg></svg></svg>