<svg width="108" viewBox="0 0 108 89" style="fill-opacity:1; color-rendering:auto; color-interpolation:auto; text-rendering:auto; stroke:black; stroke-linecap:square; stroke-miterlimit:10; shape-rendering:auto; stroke-opacity:1; fill:black; stroke-dasharray:none; font-weight:normal; stroke-width:1; font-family:'Open Sans'; font-style:normal; stroke-linejoin:miter; font-size:12; stroke-dashoffset:0; image-rendering:auto;" height="89" class="cas-substance-image" xmlns:xlink="http://www.w3.org/1999/xlink" xmlns="http://www.w3.org/2000/svg"><svg class="cas-substance-single-component"><rect y="0" x="0" width="108" stroke="none" ry="7" rx="7" height="89" fill="white" class="cas-substance-group"/><svg y="0" x="0" width="108" viewBox="0 0 108 89" style="fill:black;" height="89" class="cas-substance-single-component-image"><svg><g><g transform="translate(49,42)" style="text-rendering:geometricPrecision; color-rendering:optimizeQuality; color-interpolation:linearRGB; stroke-linecap:butt; image-rendering:optimizeQuality;"><path style="stroke:none;" d="M15 -12.49 L15 -13.49 L39.0625 -15.99 L39.0625 -9.99 Z"/><path style="stroke:none;" d="M-0.433 13.24 L0.433 12.74 L14.2911 31.7424 L9.095 34.7424 Z"/><line y2="12.99" y1="-12.99" x2="0" x1="15" style="fill:none;"/><line y2="-38.97" y1="-12.99" x2="0" x1="15" style="fill:none;"/><line y2="12.99" y1="12.99" x2="-30" x1="0" style="fill:none;"/><line y2="-38.97" y1="-38.97" x2="-30" x1="0" style="fill:none;"/><line y2="-12.99" y1="12.99" x2="-45" x1="-30" style="fill:none;"/><line y2="-12.99" y1="-38.97" x2="-45" x1="-30" style="fill:none;"/></g><g transform="translate(49,42)" style="fill:rgb(230,0,0); text-rendering:geometricPrecision; color-rendering:optimizeQuality; image-rendering:optimizeQuality; font-family:'Open Sans'; stroke:rgb(230,0,0); color-interpolation:linearRGB;"><path style="stroke:none;" d="M48.9375 -13.0603 Q48.9375 -10.9978 47.8984 -9.8181 Q46.8594 -8.6384 45.0156 -8.6384 Q43.125 -8.6384 42.0938 -9.8025 Q41.0625 -10.9666 41.0625 -13.0759 Q41.0625 -15.1697 42.0938 -16.3181 Q43.125 -17.4666 45.0156 -17.4666 Q46.875 -17.4666 47.9062 -16.2947 Q48.9375 -15.1228 48.9375 -13.0603 ZM42.1094 -13.0603 Q42.1094 -11.3259 42.8516 -10.4197 Q43.5938 -9.5134 45.0156 -9.5134 Q46.4375 -9.5134 47.1641 -10.4119 Q47.8906 -11.3103 47.8906 -13.0603 Q47.8906 -14.7947 47.1641 -15.6853 Q46.4375 -16.5759 45.0156 -16.5759 Q43.5938 -16.5759 42.8516 -15.6775 Q42.1094 -14.7791 42.1094 -13.0603 Z"/><path style="stroke:none;" d="M56.4531 -8.7634 L55.4531 -8.7634 L55.4531 -12.7947 L50.9375 -12.7947 L50.9375 -8.7634 L49.9375 -8.7634 L49.9375 -17.3259 L50.9375 -17.3259 L50.9375 -13.6853 L55.4531 -13.6853 L55.4531 -17.3259 L56.4531 -17.3259 L56.4531 -8.7634 Z"/><path style="stroke:none;" d="M18.9375 38.8997 Q18.9375 40.9622 17.8984 42.1419 Q16.8594 43.3216 15.0156 43.3216 Q13.125 43.3216 12.0938 42.1575 Q11.0625 40.9934 11.0625 38.8841 Q11.0625 36.7903 12.0938 35.6419 Q13.125 34.4934 15.0156 34.4934 Q16.875 34.4934 17.9062 35.6653 Q18.9375 36.8372 18.9375 38.8997 ZM12.1094 38.8997 Q12.1094 40.6341 12.8516 41.5403 Q13.5938 42.4466 15.0156 42.4466 Q16.4375 42.4466 17.1641 41.5481 Q17.8906 40.6497 17.8906 38.8997 Q17.8906 37.1653 17.1641 36.2747 Q16.4375 35.3841 15.0156 35.3841 Q13.5938 35.3841 12.8516 36.2825 Q12.1094 37.1809 12.1094 38.8997 Z"/><path style="stroke:none;" d="M26.4531 43.1966 L25.4531 43.1966 L25.4531 39.1653 L20.9375 39.1653 L20.9375 43.1966 L19.9375 43.1966 L19.9375 34.6341 L20.9375 34.6341 L20.9375 38.2747 L25.4531 38.2747 L25.4531 34.6341 L26.4531 34.6341 L26.4531 43.1966 Z"/></g><g transform="translate(49,42)" style="font-size:8px; fill:gray; text-rendering:geometricPrecision; image-rendering:optimizeQuality; color-rendering:optimizeQuality; font-family:'Open Sans'; font-style:italic; stroke:gray; color-interpolation:linearRGB;"><path style="stroke:none;" d="M15.7716 -20.4861 Q15.7716 -21.8143 16.2403 -22.9393 Q16.7091 -24.0643 17.7403 -25.1424 L18.3497 -25.1424 Q17.381 -24.0799 16.8966 -22.908 Q16.4122 -21.7361 16.4122 -20.5018 Q16.4122 -19.1736 16.8497 -18.158 L16.3341 -18.158 Q15.7716 -19.1893 15.7716 -20.4861 ZM19.2247 -21.7986 L18.7247 -19.4236 L18.0685 -19.4236 L19.2716 -25.1424 L20.5216 -25.1424 Q22.256 -25.1424 22.256 -23.7049 Q22.256 -22.3455 20.8185 -21.9549 L21.756 -19.4236 L21.0372 -19.4236 L20.2091 -21.7986 L19.2247 -21.7986 ZM19.8028 -24.5486 Q19.4122 -22.6268 19.3497 -22.3768 L20.006 -22.3768 Q20.756 -22.3768 21.1622 -22.7049 Q21.5685 -23.033 21.5685 -23.658 Q21.5685 -24.1268 21.3107 -24.3377 Q21.0528 -24.5486 20.4591 -24.5486 L19.8028 -24.5486 ZM24.2286 -22.7986 Q24.2286 -21.4705 23.7521 -20.3377 Q23.2755 -19.2049 22.2599 -18.158 L21.6505 -18.158 Q23.588 -20.3143 23.588 -22.7986 Q23.588 -24.1268 23.1505 -25.1424 L23.6661 -25.1424 Q24.2286 -24.0799 24.2286 -22.7986 Z"/><path style="stroke:none;" d="M-8.9607 5.5327 Q-8.9607 4.2046 -8.492 3.0796 Q-8.0232 1.9546 -6.992 0.8765 L-6.3826 0.8765 Q-7.3513 1.939 -7.8357 3.1109 Q-8.3201 4.2827 -8.3201 5.5171 Q-8.3201 6.8452 -7.8826 7.8609 L-8.3982 7.8609 Q-8.9607 6.8296 -8.9607 5.5327 ZM-3.4451 4.939 Q-3.4451 5.7671 -3.992 6.2202 Q-4.5388 6.6734 -5.5388 6.6734 Q-5.9451 6.6734 -6.2576 6.6187 Q-6.5701 6.564 -6.8513 6.4234 L-6.8513 5.7671 Q-6.2263 6.0952 -5.5232 6.0952 Q-4.8982 6.0952 -4.5232 5.7984 Q-4.1482 5.5015 -4.1482 4.9859 Q-4.1482 4.6734 -4.3513 4.4468 Q-4.5545 4.2202 -5.117 3.8921 Q-5.7107 3.564 -5.9373 3.2359 Q-6.1638 2.9077 -6.1638 2.4546 Q-6.1638 1.7202 -5.6482 1.2593 Q-5.1326 0.7984 -4.2888 0.7984 Q-3.9138 0.7984 -3.5779 0.8765 Q-3.242 0.9546 -2.867 1.1265 L-3.1326 1.7202 Q-3.3826 1.564 -3.7029 1.4781 Q-4.0232 1.3921 -4.2888 1.3921 Q-4.8201 1.3921 -5.1404 1.6656 Q-5.4607 1.939 -5.4607 2.4077 Q-5.4607 2.6109 -5.3904 2.7593 Q-5.3201 2.9077 -5.1795 3.0406 Q-5.0388 3.1734 -4.617 3.4234 Q-4.0545 3.7671 -3.8513 3.9624 Q-3.6482 4.1577 -3.5467 4.3921 Q-3.4451 4.6265 -3.4451 4.939 ZM-1.0388 3.2202 Q-1.0388 4.5484 -1.5154 5.6812 Q-1.992 6.814 -3.0076 7.8609 L-3.617 7.8609 Q-1.6795 5.7046 -1.6795 3.2202 Q-1.6795 1.8921 -2.117 0.8765 L-1.6013 0.8765 Q-1.0388 1.939 -1.0388 3.2202 Z"/></g><g transform="translate(49,42)" style="stroke-linecap:butt; font-size:8px; text-rendering:geometricPrecision; image-rendering:optimizeQuality; color-rendering:optimizeQuality; font-family:'Open Sans'; font-style:italic; color-interpolation:linearRGB; stroke-miterlimit:5;"><path style="fill:none;" d="M0.25 -38.537 L0 -38.97 L-0.5 -38.97"/><path style="fill:none;" d="M-29.5 12.99 L-30 12.99 L-30.25 12.557"/><path style="fill:none;" d="M-29.5 -38.97 L-30 -38.97 L-30.25 -38.537"/><path style="fill:none;" d="M-44.75 -12.557 L-45 -12.99 L-44.75 -13.423"/></g></g></svg></svg></svg></svg>