<svg width="229" viewBox="0 0 229 111" style="fill-opacity:1; color-rendering:auto; color-interpolation:auto; text-rendering:auto; stroke:black; stroke-linecap:square; stroke-miterlimit:10; shape-rendering:auto; stroke-opacity:1; fill:black; stroke-dasharray:none; font-weight:normal; stroke-width:1; font-family:'Open Sans'; font-style:normal; stroke-linejoin:miter; font-size:12; stroke-dashoffset:0; image-rendering:auto;" height="111" class="cas-substance-image" xmlns:xlink="http://www.w3.org/1999/xlink" xmlns="http://www.w3.org/2000/svg"><svg class="cas-substance-single-component"><rect y="0" x="0" width="229" stroke="none" ry="7" rx="7" height="111" fill="white" class="cas-substance-group"/><svg y="0" x="0" width="229" viewBox="0 0 229 111" style="fill:black;" height="111" class="cas-substance-single-component-image"><svg><g><g transform="translate(122,56)" style="text-rendering:geometricPrecision; color-rendering:optimizeQuality; color-interpolation:linearRGB; stroke-linecap:butt; image-rendering:optimizeQuality;"><line y2="-11.964" y1="3.036" x2="25.668" x1="-0.312" style="fill:none;"/><line y2="26.6297" y1="3.036" x2="-0.312" x1="-0.312" style="fill:none;"/><line y2="26.6297" y1="5.0567" x2="3.188" x1="3.188" style="fill:none;"/></g><g transform="translate(122,56)" style="stroke-linecap:butt; font-size:8.4px; fill:gray; text-rendering:geometricPrecision; image-rendering:optimizeQuality; color-rendering:optimizeQuality; font-family:'Open Sans'; font-style:italic; stroke:gray; color-interpolation:linearRGB;"><path style="stroke:none;" d="M-14.5412 19.2001 Q-14.5412 17.8719 -14.0724 16.7469 Q-13.6037 15.6219 -12.5724 14.5438 L-11.963 14.5438 Q-12.9318 15.6063 -13.4162 16.7782 Q-13.9005 17.9501 -13.9005 19.1844 Q-13.9005 20.5126 -13.463 21.5282 L-13.9787 21.5282 Q-14.5412 20.4969 -14.5412 19.2001 ZM-9.028 20.2626 L-12.5436 20.2626 L-12.4342 19.7313 L-8.8248 15.1532 L-11.3873 15.1532 L-11.2623 14.5438 L-7.903 14.5438 L-8.0123 15.0907 L-11.6217 19.6532 L-8.8873 19.6532 L-9.028 20.2626 ZM-6.0828 16.8876 Q-6.0828 18.2157 -6.5594 19.3485 Q-7.036 20.4813 -8.0516 21.5282 L-8.661 21.5282 Q-6.7235 19.3719 -6.7235 16.8876 Q-6.7235 15.5594 -7.161 14.5438 L-6.6453 14.5438 Q-6.0828 15.6063 -6.0828 16.8876 Z"/><line y2="-11.964" y1="3.036" x2="-26.295" x1="-0.312" style="fill:none; stroke:black;"/><line y2="-0.2054" y1="-11.964" x2="46.0339" x1="25.668" style="fill:none; stroke:black;"/><line y2="-35.6124" y1="-10.9536" x2="27.418" x1="27.418" style="fill:none; stroke:black;"/><line y2="-35.6124" y1="-10.9536" x2="23.918" x1="23.918" style="fill:none; stroke:black;"/><line y2="44.7946" y1="35.9711" x2="20.0539" x1="4.7716" style="fill:none; stroke:black;"/><line y2="-11.964" y1="-0.19" x2="77.628" x1="57.2355" style="fill:none; stroke:black;"/><line y2="3.036" y1="-11.964" x2="103.611" x1="77.628" style="fill:none; stroke:black;"/><line y2="-22.056" y1="-19.4821" x2="-73.773" x1="-98.2704" style="fill:none; stroke:black;"/><line y2="-2.0661" y1="-11.964" x2="-48.5214" x1="-26.295" style="fill:none; stroke:black;"/><line y2="-41.799" y1="-11.964" x2="-29.43" x1="-26.295" style="fill:none; stroke:black;"/><line y2="-39.4236" y1="-13.6079" x2="-32.6997" x1="-29.987" style="fill:none; stroke:black;"/><line y2="-22.056" y1="-4.9691" x2="-73.773" x1="-58.3897" style="fill:none; stroke:black;"/><line y2="-22.896" y1="-7.3109" x2="-69.8198" x1="-55.7886" style="fill:none; stroke:black;"/><line y2="-47.0608" y1="-41.799" x2="-54.185" x1="-29.43" style="fill:none; stroke:black;"/><line y2="-42.4922" y1="-22.056" x2="-61.9738" x1="-73.773" style="fill:none; stroke:black;"/><path style="fill:none; stroke-miterlimit:5; stroke:black;" d="M-0.312 3.536 L-0.312 3.036 L0.121 2.786"/><path style="fill:none; stroke-miterlimit:5; stroke:black;" d="M25.235 -11.714 L25.668 -11.964 L26.101 -11.714"/></g><g transform="translate(122,56)" style="stroke-linecap:butt; fill:rgb(0,5,255); text-rendering:geometricPrecision; color-rendering:optimizeQuality; image-rendering:optimizeQuality; font-family:'Open Sans'; stroke:rgb(0,5,255); color-interpolation:linearRGB; stroke-miterlimit:5;"><path style="stroke:none;" d="M3.0396 37.1922 L1.8989 37.1922 L-2.7886 30.0047 L-2.8354 30.0047 Q-2.7417 31.2704 -2.7417 32.3172 L-2.7417 37.1922 L-3.6636 37.1922 L-3.6636 28.6297 L-2.5386 28.6297 L2.1333 35.786 L2.1802 35.786 Q2.1802 35.6297 2.1333 34.7704 Q2.0864 33.911 2.1021 33.536 L2.1021 28.6297 L3.0396 28.6297 L3.0396 37.1922 Z"/><path style="fill:rgb(230,0,0); stroke:none;" d="M55.5855 2.9657 Q55.5855 5.0282 54.5464 6.2079 Q53.5074 7.3876 51.6636 7.3876 Q49.773 7.3876 48.7418 6.2235 Q47.7105 5.0594 47.7105 2.9501 Q47.7105 0.8563 48.7418 -0.2921 Q49.773 -1.4406 51.6636 -1.4406 Q53.523 -1.4406 54.5543 -0.2687 Q55.5855 0.9032 55.5855 2.9657 ZM48.7574 2.9657 Q48.7574 4.7001 49.4996 5.6063 Q50.2418 6.5126 51.6636 6.5126 Q53.0855 6.5126 53.8121 5.6141 Q54.5386 4.7157 54.5386 2.9657 Q54.5386 1.2313 53.8121 0.3407 Q53.0855 -0.5499 51.6636 -0.5499 Q50.2418 -0.5499 49.4996 0.3485 Q48.7574 1.2469 48.7574 2.9657 Z"/><path style="fill:rgb(230,0,0); stroke:none;" d="M29.6055 -42.0343 Q29.6055 -39.9718 28.5664 -38.7921 Q27.5274 -37.6124 25.6836 -37.6124 Q23.793 -37.6124 22.7617 -38.7765 Q21.7305 -39.9406 21.7305 -42.0499 Q21.7305 -44.1437 22.7617 -45.2921 Q23.793 -46.4406 25.6836 -46.4406 Q27.543 -46.4406 28.5742 -45.2687 Q29.6055 -44.0968 29.6055 -42.0343 ZM22.7774 -42.0343 Q22.7774 -40.2999 23.5196 -39.3937 Q24.2617 -38.4874 25.6836 -38.4874 Q27.1055 -38.4874 27.8321 -39.3859 Q28.5586 -40.2843 28.5586 -42.0343 Q28.5586 -43.7687 27.8321 -44.6593 Q27.1055 -45.5499 25.6836 -45.5499 Q24.2617 -45.5499 23.5196 -44.6515 Q22.7774 -43.7531 22.7774 -42.0343 Z"/><path style="fill:rgb(230,0,0); stroke:none;" d="M29.6055 47.9657 Q29.6055 50.0282 28.5664 51.2079 Q27.5274 52.3876 25.6836 52.3876 Q23.793 52.3876 22.7617 51.2235 Q21.7305 50.0594 21.7305 47.9501 Q21.7305 45.8563 22.7617 44.7079 Q23.793 43.5594 25.6836 43.5594 Q27.543 43.5594 28.5742 44.7313 Q29.6055 45.9032 29.6055 47.9657 ZM22.7774 47.9657 Q22.7774 49.7001 23.5196 50.6063 Q24.2617 51.5126 25.6836 51.5126 Q27.1055 51.5126 27.8321 50.6141 Q28.5586 49.7157 28.5586 47.9657 Q28.5586 46.2313 27.8321 45.3407 Q27.1055 44.4501 25.6836 44.4501 Q24.2617 44.4501 23.5196 45.3485 Q22.7774 46.2469 22.7774 47.9657 Z"/><path style="fill:rgb(230,0,0); stroke:none;" d="M37.1211 52.2626 L36.1211 52.2626 L36.1211 48.2313 L31.6055 48.2313 L31.6055 52.2626 L30.6055 52.2626 L30.6055 43.7001 L31.6055 43.7001 L31.6055 47.3407 L36.1211 47.3407 L36.1211 43.7001 L37.1211 43.7001 L37.1211 52.2626 Z"/><path style="fill:none; stroke:black;" d="M77.195 -11.714 L77.628 -11.964 L78.061 -11.714"/><path style="stroke:none;" d="M-100.2594 -14.7647 L-101.4001 -14.7647 L-106.0876 -21.9522 L-106.1344 -21.9522 Q-106.0407 -20.6866 -106.0407 -19.6397 L-106.0407 -14.7647 L-106.9626 -14.7647 L-106.9626 -23.3272 L-105.8376 -23.3272 L-101.1657 -16.171 L-101.1188 -16.171 Q-101.1188 -16.3272 -101.1657 -17.1866 Q-101.2126 -18.046 -101.1969 -18.421 L-101.1969 -23.3272 L-100.2594 -23.3272 L-100.2594 -14.7647 Z"/><path style="stroke:none;" d="M-112.7126 -14.7647 L-113.7126 -14.7647 L-113.7126 -18.796 L-118.2282 -18.796 L-118.2282 -14.7647 L-119.2282 -14.7647 L-119.2282 -23.3272 L-118.2282 -23.3272 L-118.2282 -19.6866 L-113.7126 -19.6866 L-113.7126 -23.3272 L-112.7126 -23.3272 L-112.7126 -14.7647 Z"/><path style="stroke:none;" d="M-107.9626 -12.9554 L-111.7126 -12.9554 L-111.7126 -13.5179 L-110.2126 -15.0335 Q-109.5251 -15.721 -109.3063 -16.0179 Q-109.0876 -16.3148 -108.9782 -16.596 Q-108.8688 -16.8773 -108.8688 -17.2054 Q-108.8688 -17.6585 -109.1423 -17.9241 Q-109.4157 -18.1898 -109.9157 -18.1898 Q-110.2594 -18.1898 -110.5798 -18.0726 Q-110.9001 -17.9554 -111.2907 -17.6585 L-111.6344 -18.096 Q-110.8532 -18.7523 -109.9157 -18.7523 Q-109.1188 -18.7523 -108.6579 -18.3382 Q-108.1969 -17.9241 -108.1969 -17.2366 Q-108.1969 -16.6898 -108.5016 -16.1585 Q-108.8063 -15.6272 -109.6501 -14.8147 L-110.9001 -13.596 L-110.9001 -13.5647 L-107.9626 -13.5647 L-107.9626 -12.9554 Z"/><path style="fill:none; stroke:black;" d="M-26.3473 -12.4613 L-26.295 -11.964 L-25.862 -11.714"/><path style="stroke:none;" d="M-50.3484 4.3962 L-51.4891 4.3962 L-56.1766 -2.7913 L-56.2234 -2.7913 Q-56.1297 -1.5256 -56.1297 -0.4788 L-56.1297 4.3962 L-57.0516 4.3962 L-57.0516 -4.1663 L-55.9266 -4.1663 L-51.2547 2.99 L-51.2078 2.99 Q-51.2078 2.8337 -51.2547 1.9744 Q-51.3016 1.115 -51.2859 0.74 L-51.2859 -4.1663 L-50.3484 -4.1663 L-50.3484 4.3962 Z"/><path style="fill:none; stroke:black;" d="M-29.3777 -41.3017 L-29.43 -41.799 L-29.9191 -41.903"/><path style="fill:none; stroke:black;" d="M-73.4385 -21.6844 L-73.773 -22.056 L-73.523 -22.489"/><path style="fill:rgb(148,108,0); stroke:none;" d="M-56.0777 -46.0985 Q-56.0777 -44.9735 -56.898 -44.3329 Q-57.7183 -43.6922 -59.1246 -43.6922 Q-60.6558 -43.6922 -61.4683 -44.0985 L-61.4683 -45.0516 Q-60.9371 -44.8329 -60.3199 -44.7001 Q-59.7027 -44.5672 -59.0933 -44.5672 Q-58.0933 -44.5672 -57.5933 -44.9501 Q-57.0933 -45.3329 -57.0933 -46.0047 Q-57.0933 -46.4422 -57.273 -46.7313 Q-57.4527 -47.0204 -57.8667 -47.2626 Q-58.2808 -47.5047 -59.1402 -47.8016 Q-60.3277 -48.2235 -60.8433 -48.8094 Q-61.3589 -49.3954 -61.3589 -50.3485 Q-61.3589 -51.3329 -60.6167 -51.9188 Q-59.8746 -52.5047 -58.6402 -52.5047 Q-57.3746 -52.5047 -56.2964 -52.036 L-56.6089 -51.1766 Q-57.6714 -51.6141 -58.6714 -51.6141 Q-59.4683 -51.6141 -59.9136 -51.2782 Q-60.3589 -50.9422 -60.3589 -50.3329 Q-60.3589 -49.8954 -60.1949 -49.6063 Q-60.0308 -49.3172 -59.6402 -49.0829 Q-59.2496 -48.8485 -58.4371 -48.5516 Q-57.0933 -48.0829 -56.5855 -47.5282 Q-56.0777 -46.9735 -56.0777 -46.0985 Z"/></g></g></svg></svg></svg></svg>