<svg width="300" viewBox="0 0 300 155" style="fill-opacity:1; color-rendering:auto; color-interpolation:auto; text-rendering:auto; stroke:black; stroke-linecap:square; stroke-miterlimit:10; shape-rendering:auto; stroke-opacity:1; fill:black; stroke-dasharray:none; font-weight:normal; stroke-width:1; font-family:'Open Sans'; font-style:normal; stroke-linejoin:miter; font-size:12; stroke-dashoffset:0; image-rendering:auto;" height="155" class="cas-substance-image" xmlns:xlink="http://www.w3.org/1999/xlink" xmlns="http://www.w3.org/2000/svg"><svg class="cas-substance-single-component"><rect y="0" x="0" width="300" stroke="none" ry="7" rx="7" height="155" fill="white" class="cas-substance-group"/><svg y="0" x="0" width="300" viewBox="0 0 300 155" style="fill:black;" height="155" class="cas-substance-single-component-image"><svg><g><g transform="translate(147,78)" style="text-rendering:geometricPrecision; color-rendering:optimizeQuality; color-interpolation:linearRGB; stroke-linecap:butt; image-rendering:optimizeQuality;"><path style="fill:none;" d="M-135.1307 -74.4766 L-143.8405 -74.4766 L-143.8405 70.6875 L-135.1307 70.6875"/><path style="fill:none;" d="M133.9822 -74.4766 L142.6921 -74.4766 L142.6921 70.6875 L133.9822 70.6875"/><path style="stroke:none;" d="M148.5827 74.3359 L148.5827 70.1797 Q148.5827 69.3984 148.2311 69.0078 Q147.8796 68.6172 147.1139 68.6172 Q146.0983 68.6172 145.6296 69.1641 Q145.1608 69.7109 145.1608 70.9609 L145.1608 74.3359 L144.1921 74.3359 L144.1921 67.9141 L144.9889 67.9141 L145.1452 68.7891 L145.1921 68.7891 Q145.4889 68.3203 146.028 68.0547 Q146.5671 67.7891 147.2233 67.7891 Q148.3952 67.7891 148.9811 68.3516 Q149.5671 68.9141 149.5671 70.1484 L149.5671 74.3359 L148.5827 74.3359 Z"/><line y2="-18.2414" y1="-30" x2="20.3659" x1="0" style="fill:none;"/><line y2="-53.6484" y1="-28.9896" x2="1.75" x1="1.75" style="fill:none;"/><line y2="-53.6484" y1="-28.9896" x2="-1.75" x1="-1.75" style="fill:none;"/><line y2="-15" y1="-30" x2="-25.98" x1="0" style="fill:none;"/><line y2="-30" y1="-18.2258" x2="51.963" x1="31.5677" style="fill:none;"/><line y2="-15" y1="-30" x2="77.943" x1="51.963" style="fill:none;"/><line y2="-26.8112" y1="-15" x2="98.4" x1="77.943" style="fill:none;"/><line y2="-17.5138" y1="-26.8214" x2="125.5491" x1="109.4284" style="fill:none;"/><line y2="53.3125" y1="30" x2="-103.923" x1="-103.923" style="fill:none;"/><line y2="16.6631" y1="28.9896" x2="-123.5226" x1="-102.173" style="fill:none;"/><line y2="19.6941" y1="32.0207" x2="-125.2727" x1="-103.923" style="fill:none;"/><line y2="15" y1="30" x2="-77.943" x1="-103.923" style="fill:none;"/><line y2="15" y1="-15" x2="-25.98" x1="-25.98" style="fill:none;"/><line y2="12.9793" y1="-12.9793" x2="-29.48" x1="-29.48" style="fill:none;"/><line y2="-30" y1="-15" x2="-51.963" x1="-25.98" style="fill:none;"/><line y2="30" y1="15" x2="-51.963" x1="-25.98" style="fill:none;"/><line y2="-15" y1="-30" x2="-77.943" x1="-51.963" style="fill:none;"/><line y2="-12.9793" y1="-25.9585" x2="-74.443" x1="-51.963" style="fill:none;"/><line y2="15" y1="30" x2="-77.943" x1="-51.963" style="fill:none;"/><line y2="12.9793" y1="25.9585" x2="-74.443" x1="-51.963" style="fill:none;"/><line y2="15" y1="-15" x2="-77.943" x1="-77.943" style="fill:none;"/><path style="fill:none; stroke-miterlimit:5;" d="M0.433 -29.75 L0 -30 L-0.433 -29.75"/></g><g transform="translate(147,78)" style="stroke-linecap:butt; fill:rgb(230,0,0); text-rendering:geometricPrecision; color-rendering:optimizeQuality; image-rendering:optimizeQuality; font-family:'Open Sans'; stroke:rgb(230,0,0); color-interpolation:linearRGB; stroke-miterlimit:5;"><path style="stroke:none;" d="M29.9175 -15.0703 Q29.9175 -13.0078 28.8784 -11.8281 Q27.8394 -10.6484 25.9956 -10.6484 Q24.105 -10.6484 23.0737 -11.8125 Q22.0425 -12.9766 22.0425 -15.0859 Q22.0425 -17.1797 23.0737 -18.3281 Q24.105 -19.4766 25.9956 -19.4766 Q27.855 -19.4766 28.8862 -18.3047 Q29.9175 -17.1328 29.9175 -15.0703 ZM23.0894 -15.0703 Q23.0894 -13.3359 23.8316 -12.4297 Q24.5737 -11.5234 25.9956 -11.5234 Q27.4175 -11.5234 28.1441 -12.4219 Q28.8706 -13.3203 28.8706 -15.0703 Q28.8706 -16.8047 28.1441 -17.6953 Q27.4175 -18.5859 25.9956 -18.5859 Q24.5737 -18.5859 23.8316 -17.6875 Q23.0894 -16.7891 23.0894 -15.0703 Z"/><path style="stroke:none;" d="M3.9375 -60.0703 Q3.9375 -58.0078 2.8984 -56.8281 Q1.8594 -55.6484 0.0156 -55.6484 Q-1.875 -55.6484 -2.9062 -56.8125 Q-3.9375 -57.9766 -3.9375 -60.0859 Q-3.9375 -62.1797 -2.9062 -63.3281 Q-1.875 -64.4766 0.0156 -64.4766 Q1.875 -64.4766 2.9062 -63.3047 Q3.9375 -62.1328 3.9375 -60.0703 ZM-2.8906 -60.0703 Q-2.8906 -58.3359 -2.1484 -57.4297 Q-1.4062 -56.5234 0.0156 -56.5234 Q1.4375 -56.5234 2.1641 -57.4219 Q2.8906 -58.3203 2.8906 -60.0703 Q2.8906 -61.8047 2.1641 -62.6953 Q1.4375 -63.5859 0.0156 -63.5859 Q-1.4062 -63.5859 -2.1484 -62.6875 Q-2.8906 -61.7891 -2.8906 -60.0703 Z"/><path style="fill:none; stroke:black;" d="M51.53 -29.75 L51.963 -30 L52.396 -29.75"/><path style="fill:none; stroke:black;" d="M77.51 -15.25 L77.943 -15 L78.376 -15.25"/><path style="stroke:none;" d="M107.8605 -30.0703 Q107.8605 -28.0078 106.8214 -26.8281 Q105.7824 -25.6484 103.9386 -25.6484 Q102.048 -25.6484 101.0167 -26.8125 Q99.9855 -27.9766 99.9855 -30.0859 Q99.9855 -32.1797 101.0167 -33.3281 Q102.048 -34.4766 103.9386 -34.4766 Q105.798 -34.4766 106.8292 -33.3047 Q107.8605 -32.1328 107.8605 -30.0703 ZM101.0324 -30.0703 Q101.0324 -28.3359 101.7746 -27.4297 Q102.5167 -26.5234 103.9386 -26.5234 Q105.3605 -26.5234 106.0871 -27.4219 Q106.8136 -28.3203 106.8136 -30.0703 Q106.8136 -31.8047 106.0871 -32.6953 Q105.3605 -33.5859 103.9386 -33.5859 Q102.5167 -33.5859 101.7746 -32.6875 Q101.0324 -31.7891 101.0324 -30.0703 Z"/><path style="fill:black; stroke:none;" d="M130.4577 -19.6875 L130.2077 -17.3594 L132.5514 -18.0156 L132.6921 -16.9531 L130.4577 -16.7656 L131.9108 -14.8594 L130.9108 -14.3125 L129.8796 -16.4219 L128.9421 -14.3125 L127.9108 -14.8594 L129.3327 -16.7656 L127.1139 -16.9531 L127.2858 -18.0156 L129.5827 -17.3594 L129.3327 -19.6875 L130.4577 -19.6875 Z"/><path style="fill:none; stroke:black;" d="M-103.923 30.5 L-103.923 30 L-103.49 29.75"/><path style="fill:black; stroke:none;" d="M-103.3683 55.3125 L-103.6183 57.6406 L-101.2746 56.9844 L-101.1339 58.0469 L-103.3683 58.2344 L-101.9152 60.1406 L-102.9152 60.6875 L-103.9464 58.5781 L-104.8839 60.6875 L-105.9152 60.1406 L-104.4933 58.2344 L-106.7121 58.0469 L-106.5402 56.9844 L-104.2433 57.6406 L-104.4933 55.3125 L-103.3683 55.3125 Z"/><path style="stroke:none;" d="M-125.9655 14.9297 Q-125.9655 16.9922 -127.0046 18.1719 Q-128.0436 19.3516 -129.8874 19.3516 Q-131.778 19.3516 -132.8092 18.1875 Q-133.8405 17.0234 -133.8405 14.9141 Q-133.8405 12.8203 -132.8092 11.6719 Q-131.778 10.5234 -129.8874 10.5234 Q-128.028 10.5234 -126.9967 11.6953 Q-125.9655 12.8672 -125.9655 14.9297 ZM-132.7936 14.9297 Q-132.7936 16.6641 -132.0514 17.5703 Q-131.3092 18.4766 -129.8874 18.4766 Q-128.4655 18.4766 -127.7389 17.5781 Q-127.0124 16.6797 -127.0124 14.9297 Q-127.0124 13.1953 -127.7389 12.3047 Q-128.4655 11.4141 -129.8874 11.4141 Q-131.3092 11.4141 -132.0514 12.3125 Q-132.7936 13.2109 -132.7936 14.9297 Z"/><path style="fill:none; stroke:black;" d="M-25.98 -14.5 L-25.98 -15 L-25.547 -15.25"/><path style="fill:none; stroke:black;" d="M-25.98 14.5 L-25.98 15 L-26.413 15.25"/><path style="fill:none; stroke:black;" d="M-51.53 -29.75 L-51.963 -30 L-52.396 -29.75"/><path style="fill:none; stroke:black;" d="M-51.53 29.75 L-51.963 30 L-52.396 29.75"/><path style="fill:none; stroke:black;" d="M-77.51 -15.25 L-77.943 -15 L-77.943 -14.5"/><path style="fill:none; stroke:black;" d="M-77.51 15.25 L-77.943 15 L-78.376 15.25"/></g></g></svg></svg></svg></svg>