<svg xmlns:ns0="http://www.w3.org/2000/svg" xmlns="http://www.w3.org/2000/svg"><g transform="translate(0, 0)"><ns0:svg width="237" viewBox="0 0 237 26" style="fill-opacity:1; color-rendering:auto; color-interpolation:auto; text-rendering:auto; stroke:black; stroke-linecap:square; stroke-miterlimit:10; shape-rendering:auto; stroke-opacity:1; fill:black; stroke-dasharray:none; font-weight:normal; stroke-width:1; font-family:'Open Sans'; font-style:normal; stroke-linejoin:miter; font-size:12; stroke-dashoffset:0; image-rendering:auto;" height="26" class="cas-substance-image"><ns0:svg class="cas-substance-single-component"><ns0:rect y="0" x="0" width="237" stroke="none" ry="7" rx="7" height="26" fill="white" class="cas-substance-group" /><ns0:svg y="0" x="0" width="237" viewBox="0 0 237 26" style="fill:black;" height="26" class="cas-substance-single-component-image"><ns0:svg><ns0:g><ns0:g transform="translate(118,15)" style="text-rendering:geometricPrecision; color-rendering:optimizeQuality; color-interpolation:linearRGB; stroke-linecap:butt; image-rendering:optimizeQuality;"><ns0:line y2="7.5" y1="-4.9583" x2="-25.98" x1="-4.4022" style="fill:none;" /><ns0:line y2="7.5" y1="-4.9438" x2="25.98" x1="4.4274" style="fill:none;" /><ns0:line y2="-7.5" y1="7.5" x2="-51.963" x1="-25.98" style="fill:none;" /><ns0:line y2="-7.5" y1="7.5" x2="51.963" x1="25.98" style="fill:none;" /><ns0:line y2="7.5" y1="-7.5" x2="-77.943" x1="-51.963" style="fill:none;" /><ns0:line y2="7.5" y1="-7.5" x2="77.943" x1="51.963" style="fill:none;" /><ns0:line y2="-4.3214" y1="7.5" x2="-98.4176" x1="-77.943" style="fill:none;" /><ns0:line y2="-4.3112" y1="7.5" x2="98.4" x1="77.943" style="fill:none;" /></ns0:g><ns0:g transform="translate(118,15)" style="fill:rgb(148,108,0); text-rendering:geometricPrecision; color-rendering:optimizeQuality; image-rendering:optimizeQuality; font-family:'Open Sans'; stroke:rgb(148,108,0); color-interpolation:linearRGB;"><ns0:path style="stroke:none;" d="M2.6953 -5.5625 Q2.6953 -4.4375 1.875 -3.7969 Q1.0547 -3.1562 -0.3516 -3.1562 Q-1.8828 -3.1562 -2.6953 -3.5625 L-2.6953 -4.5156 Q-2.1641 -4.2969 -1.5469 -4.1641 Q-0.9297 -4.0312 -0.3203 -4.0312 Q0.6797 -4.0312 1.1797 -4.4141 Q1.6797 -4.7969 1.6797 -5.4688 Q1.6797 -5.9062 1.5 -6.1953 Q1.3203 -6.4844 0.9062 -6.7266 Q0.4922 -6.9688 -0.3672 -7.2656 Q-1.5547 -7.6875 -2.0703 -8.2734 Q-2.5859 -8.8594 -2.5859 -9.8125 Q-2.5859 -10.7969 -1.8438 -11.3828 Q-1.1016 -11.9688 0.1328 -11.9688 Q1.3984 -11.9688 2.4766 -11.5 L2.1641 -10.6406 Q1.1016 -11.0781 0.1016 -11.0781 Q-0.6953 -11.0781 -1.1406 -10.7422 Q-1.5859 -10.4062 -1.5859 -9.7969 Q-1.5859 -9.3594 -1.4219 -9.0703 Q-1.2578 -8.7812 -0.8672 -8.5469 Q-0.4766 -8.3125 0.3359 -8.0156 Q1.6797 -7.5469 2.1875 -6.9922 Q2.6953 -6.4375 2.6953 -5.5625 Z" /></ns0:g><ns0:g transform="translate(118,15)" style="stroke-linecap:butt; text-rendering:geometricPrecision; color-rendering:optimizeQuality; image-rendering:optimizeQuality; font-family:'Open Sans'; color-interpolation:linearRGB; stroke-miterlimit:5;"><ns0:path style="fill:none;" d="M-25.547 7.25 L-25.98 7.5 L-26.413 7.25" /><ns0:path style="fill:none;" d="M25.547 7.25 L25.98 7.5 L26.413 7.25" /><ns0:path style="fill:none;" d="M-51.53 -7.25 L-51.963 -7.5 L-52.396 -7.25" /><ns0:path style="fill:none;" d="M51.53 -7.25 L51.963 -7.5 L52.396 -7.25" /><ns0:path style="fill:none;" d="M-77.51 7.25 L-77.943 7.5 L-78.376 7.25" /><ns0:path style="fill:none;" d="M77.51 7.25 L77.943 7.5 L78.376 7.25" /><ns0:path style="fill:rgb(230,0,0); stroke:none;" d="M-99.9855 -7.5703 Q-99.9855 -5.5078 -101.0246 -4.3281 Q-102.0636 -3.1484 -103.9074 -3.1484 Q-105.798 -3.1484 -106.8292 -4.3125 Q-107.8605 -5.4766 -107.8605 -7.5859 Q-107.8605 -9.6797 -106.8292 -10.8281 Q-105.798 -11.9766 -103.9074 -11.9766 Q-102.048 -11.9766 -101.0167 -10.8047 Q-99.9855 -9.6328 -99.9855 -7.5703 ZM-106.8136 -7.5703 Q-106.8136 -5.8359 -106.0714 -4.9297 Q-105.3292 -4.0234 -103.9074 -4.0234 Q-102.4855 -4.0234 -101.7589 -4.9219 Q-101.0324 -5.8203 -101.0324 -7.5703 Q-101.0324 -9.3047 -101.7589 -10.1953 Q-102.4855 -11.0859 -103.9074 -11.0859 Q-105.3292 -11.0859 -106.0714 -10.1875 Q-106.8136 -9.2891 -106.8136 -7.5703 Z" /><ns0:path style="fill:rgb(230,0,0); stroke:none;" d="M-108.8605 -3.2734 L-109.8605 -3.2734 L-109.8605 -7.3047 L-114.3761 -7.3047 L-114.3761 -3.2734 L-115.3761 -3.2734 L-115.3761 -11.8359 L-114.3761 -11.8359 L-114.3761 -8.1953 L-109.8605 -8.1953 L-109.8605 -11.8359 L-108.8605 -11.8359 L-108.8605 -3.2734 Z" /><ns0:path style="fill:rgb(230,0,0); stroke:none;" d="M107.8605 -7.5703 Q107.8605 -5.5078 106.8214 -4.3281 Q105.7824 -3.1484 103.9386 -3.1484 Q102.048 -3.1484 101.0167 -4.3125 Q99.9855 -5.4766 99.9855 -7.5859 Q99.9855 -9.6797 101.0167 -10.8281 Q102.048 -11.9766 103.9386 -11.9766 Q105.798 -11.9766 106.8292 -10.8047 Q107.8605 -9.6328 107.8605 -7.5703 ZM101.0324 -7.5703 Q101.0324 -5.8359 101.7746 -4.9297 Q102.5167 -4.0234 103.9386 -4.0234 Q105.3605 -4.0234 106.0871 -4.9219 Q106.8136 -5.8203 106.8136 -7.5703 Q106.8136 -9.3047 106.0871 -10.1953 Q105.3605 -11.0859 103.9386 -11.0859 Q102.5167 -11.0859 101.7746 -10.1875 Q101.0324 -9.2891 101.0324 -7.5703 Z" /><ns0:path style="fill:rgb(230,0,0); stroke:none;" d="M115.3761 -3.2734 L114.3761 -3.2734 L114.3761 -7.3047 L109.8605 -7.3047 L109.8605 -3.2734 L108.8605 -3.2734 L108.8605 -11.8359 L109.8605 -11.8359 L109.8605 -8.1953 L114.3761 -8.1953 L114.3761 -11.8359 L115.3761 -11.8359 L115.3761 -3.2734 Z" /></ns0:g></ns0:g></ns0:svg></ns0:svg></ns0:svg></ns0:svg></g></svg>