<svg xmlns:ns0="http://www.w3.org/2000/svg" xmlns="http://www.w3.org/2000/svg"><g transform="translate(0, 0)"><ns0:svg width="267" viewBox="0 0 267 101" style="fill-opacity:1; color-rendering:auto; color-interpolation:auto; text-rendering:auto; stroke:black; stroke-linecap:square; stroke-miterlimit:10; shape-rendering:auto; stroke-opacity:1; fill:black; stroke-dasharray:none; font-weight:normal; stroke-width:1; font-family:'Open Sans'; font-style:normal; stroke-linejoin:miter; font-size:12; stroke-dashoffset:0; image-rendering:auto;" height="101" class="cas-substance-image"><ns0:svg class="cas-substance-single-component"><ns0:rect y="0" x="0" width="267" stroke="none" ry="7" rx="7" height="101" fill="white" class="cas-substance-group" /><ns0:svg y="0" x="0" width="267" viewBox="0 0 267 101" style="fill:black;" height="101" class="cas-substance-single-component-image"><ns0:svg><ns0:g><ns0:g transform="translate(133,49)" style="text-rendering:geometricPrecision; color-rendering:optimizeQuality; color-interpolation:linearRGB; stroke-linecap:butt; image-rendering:optimizeQuality;"><ns0:line y2="2.9348" y1="15" x2="-31.0637" x1="-51.963" style="fill:none;" /><ns0:line y2="0" y1="15" x2="-77.943" x1="-51.963" style="fill:none;" /><ns0:line y2="3.1888" y1="15" x2="72.42" x1="51.963" style="fill:none;" /><ns0:line y2="38.5234" y1="13.9897" x2="50.213" x1="50.213" style="fill:none;" /><ns0:line y2="38.5234" y1="13.9896" x2="53.713" x1="53.713" style="fill:none;" /><ns0:line y2="0" y1="15" x2="25.98" x1="51.963" style="fill:none;" /><ns0:line y2="15" y1="3.1786" x2="103.923" x1="83.4484" style="fill:none;" /><ns0:line y2="0" y1="15" x2="129.903" x1="103.923" style="fill:none;" /><ns0:line y2="15" y1="2.9351" x2="0" x1="-20.8964" style="fill:none;" /><ns0:line y2="-30" y1="-6.4062" x2="-25.98" x1="-25.98" style="fill:none;" /><ns0:line y2="0" y1="15" x2="25.98" x1="0" style="fill:none;" /><ns0:line y2="-45" y1="-30" x2="0" x1="-25.98" style="fill:none;" /><ns0:line y2="-23.6484" y1="0" x2="25.98" x1="25.98" style="fill:none;" /><ns0:line y2="-33.2414" y1="-45" x2="20.3659" x1="0" style="fill:none;" /><ns0:line y2="-30" y1="0" x2="-77.943" x1="-77.943" style="fill:none;" /><ns0:line y2="-27.9793" y1="-2.0207" x2="-81.443" x1="-81.443" style="fill:none;" /><ns0:line y2="15" y1="0" x2="-103.923" x1="-77.943" style="fill:none;" /><ns0:line y2="-45" y1="-30" x2="-103.923" x1="-77.943" style="fill:none;" /><ns0:line y2="0" y1="15" x2="-129.903" x1="-103.923" style="fill:none;" /><ns0:line y2="-2.0207" y1="10.9585" x2="-126.403" x1="-103.9229" style="fill:none;" /><ns0:line y2="-30" y1="-45" x2="-129.903" x1="-103.923" style="fill:none;" /><ns0:line y2="-27.9793" y1="-40.9585" x2="-126.403" x1="-103.9229" style="fill:none;" /><ns0:line y2="-30" y1="0" x2="-129.903" x1="-129.903" style="fill:none;" /><ns0:path style="fill:none; stroke-miterlimit:5;" d="M-51.53 14.75 L-51.963 15 L-52.396 14.75" /><ns0:path style="fill:none; stroke-miterlimit:5;" d="M52.396 14.75 L51.963 15 L51.53 14.75" /></ns0:g><ns0:g transform="translate(133,49)" style="stroke-linecap:butt; fill:rgb(230,0,0); text-rendering:geometricPrecision; color-rendering:optimizeQuality; image-rendering:optimizeQuality; font-family:'Open Sans'; stroke:rgb(230,0,0); color-interpolation:linearRGB; stroke-miterlimit:5;"><ns0:path style="stroke:none;" d="M81.8805 -0.0703 Q81.8805 1.9922 80.8414 3.1719 Q79.8024 4.3516 77.9586 4.3516 Q76.068 4.3516 75.0368 3.1875 Q74.0055 2.0234 74.0055 -0.0859 Q74.0055 -2.1797 75.0368 -3.3281 Q76.068 -4.4766 77.9586 -4.4766 Q79.818 -4.4766 80.8493 -3.3047 Q81.8805 -2.1328 81.8805 -0.0703 ZM75.0524 -0.0703 Q75.0524 1.6641 75.7946 2.5703 Q76.5368 3.4766 77.9586 3.4766 Q79.3805 3.4766 80.1071 2.5781 Q80.8336 1.6797 80.8336 -0.0703 Q80.8336 -1.8047 80.1071 -2.6953 Q79.3805 -3.5859 77.9586 -3.5859 Q76.5368 -3.5859 75.7946 -2.6875 Q75.0524 -1.7891 75.0524 -0.0703 Z" /><ns0:path style="stroke:none;" d="M55.9005 44.9297 Q55.9005 46.9922 54.8614 48.1719 Q53.8224 49.3516 51.9786 49.3516 Q50.088 49.3516 49.0568 48.1875 Q48.0255 47.0234 48.0255 44.9141 Q48.0255 42.8203 49.0568 41.6719 Q50.088 40.5234 51.9786 40.5234 Q53.838 40.5234 54.8693 41.6953 Q55.9005 42.8672 55.9005 44.9297 ZM49.0724 44.9297 Q49.0724 46.6641 49.8146 47.5703 Q50.5568 48.4766 51.9786 48.4766 Q53.4005 48.4766 54.1271 47.5781 Q54.8536 46.6797 54.8536 44.9297 Q54.8536 43.1953 54.1271 42.3047 Q53.4005 41.4141 51.9786 41.4141 Q50.5568 41.4141 49.8146 42.3125 Q49.0724 43.2109 49.0724 44.9297 Z" /><ns0:path style="fill:none; stroke:black;" d="M103.49 14.75 L103.923 15 L104.356 14.75" /><ns0:path style="fill:rgb(0,5,255); stroke:none;" d="M-22.6284 4.1562 L-23.7691 4.1562 L-28.4566 -3.0312 L-28.5034 -3.0312 Q-28.4097 -1.7656 -28.4097 -0.7188 L-28.4097 4.1562 L-29.3316 4.1562 L-29.3316 -4.4062 L-28.2066 -4.4062 L-23.5347 2.75 L-23.4878 2.75 Q-23.4878 2.5938 -23.5347 1.7344 Q-23.5816 0.875 -23.5659 0.5 L-23.5659 -4.4062 L-22.6284 -4.4062 L-22.6284 4.1562 Z" /><ns0:path style="fill:none; stroke:black;" d="M-0.433 14.75 L0 15 L0.433 14.75" /><ns0:path style="fill:none; stroke:black;" d="M-25.98 -29.5 L-25.98 -30 L-25.547 -30.25" /><ns0:path style="fill:none; stroke:black;" d="M-0.433 -44.75 L0 -45 L0.433 -44.75" /><ns0:path style="stroke:none;" d="M29.9175 -30.0703 Q29.9175 -28.0078 28.8784 -26.8281 Q27.8394 -25.6484 25.9956 -25.6484 Q24.105 -25.6484 23.0737 -26.8125 Q22.0425 -27.9766 22.0425 -30.0859 Q22.0425 -32.1797 23.0737 -33.3281 Q24.105 -34.4766 25.9956 -34.4766 Q27.855 -34.4766 28.8862 -33.3047 Q29.9175 -32.1328 29.9175 -30.0703 ZM23.0894 -30.0703 Q23.0894 -28.3359 23.8316 -27.4297 Q24.5737 -26.5234 25.9956 -26.5234 Q27.4175 -26.5234 28.1441 -27.4219 Q28.8706 -28.3203 28.8706 -30.0703 Q28.8706 -31.8047 28.1441 -32.6953 Q27.4175 -33.5859 25.9956 -33.5859 Q24.5737 -33.5859 23.8316 -32.6875 Q23.0894 -31.7891 23.0894 -30.0703 Z" /><ns0:path style="fill:none; stroke:black;" d="M-77.943 -0.5 L-77.943 0 L-77.51 0.25" /><ns0:path style="fill:none; stroke:black;" d="M-77.943 -29.5 L-77.943 -30 L-78.376 -30.25" /><ns0:path style="fill:none; stroke:black;" d="M-103.49 14.75 L-103.923 15 L-104.356 14.75" /><ns0:path style="fill:none; stroke:black;" d="M-103.49 -44.75 L-103.923 -45 L-104.356 -44.75" /><ns0:path style="fill:none; stroke:black;" d="M-129.47 0.25 L-129.903 0 L-129.903 -0.5" /><ns0:path style="fill:none; stroke:black;" d="M-129.47 -30.25 L-129.903 -30 L-129.903 -29.5" /></ns0:g></ns0:g></ns0:svg></ns0:svg></ns0:svg></ns0:svg></g></svg>