<svg width="165" viewBox="0 0 165 90" style="fill-opacity:1; color-rendering:auto; color-interpolation:auto; text-rendering:auto; stroke:black; stroke-linecap:square; stroke-miterlimit:10; shape-rendering:auto; stroke-opacity:1; fill:black; stroke-dasharray:none; font-weight:normal; stroke-width:1; font-family:'Open Sans'; font-style:normal; stroke-linejoin:miter; font-size:12; stroke-dashoffset:0; image-rendering:auto;" height="90" class="cas-substance-image" xmlns:xlink="http://www.w3.org/1999/xlink" xmlns="http://www.w3.org/2000/svg"><svg class="cas-substance-single-component"><rect y="0" x="0" width="165" stroke="none" ry="7" rx="7" height="90" fill="white" class="cas-substance-group"/><svg y="0" x="0" width="165" viewBox="0 0 165 90" style="fill:black;" height="90" class="cas-substance-single-component-image"><svg><g><g transform="translate(81,45)" style="text-rendering:geometricPrecision; color-rendering:optimizeQuality; color-interpolation:linearRGB; stroke-linecap:butt; image-rendering:optimizeQuality;"><line y2="-7.5" y1="7.5" x2="0" x1="-25.98" style="fill:none;"/><line y2="-7.5" y1="7.5" x2="-51.963" x1="-25.98" style="fill:none;"/><path style="stroke:none;" d="M-26.561 8.2617 L-26.6672 9.2617 L-25.2928 9.2617 L-25.399 8.2617 ZM-26.8798 11.2617 L-26.9861 12.2617 L-24.9739 12.2617 L-25.0802 11.2617 ZM-27.1986 14.2617 L-27.3049 15.2617 L-24.6551 15.2617 L-24.7614 14.2617 ZM-27.5174 17.2617 L-27.6237 18.2617 L-24.3363 18.2617 L-24.4426 17.2617 ZM-27.8363 20.2617 L-27.9426 21.2617 L-24.0174 21.2617 L-24.1237 20.2617 ZM-28.1551 23.2617 L-28.2614 24.2617 L-23.6986 24.2617 L-23.8049 23.2617 ZM-28.4739 26.2617 L-28.5802 27.2617 L-23.3798 27.2617 L-23.4861 26.2617 ZM-28.7928 29.2617 L-28.899 30.2617 L-23.061 30.2617 L-23.1672 29.2617 Z"/><line y2="7.5" y1="-7.5" x2="25.98" x1="0" style="fill:none;"/><path style="stroke:none;" d="M0.5 -7.5 L-0.5 -7.5 L-3 -31.1484 L3 -31.1484 Z"/><line y2="7.5" y1="-7.5" x2="-77.943" x1="-51.963" style="fill:none;"/><path style="stroke:none;" d="M-51.463 -7.5 L-52.463 -7.5 L-54.963 -31.1484 L-48.963 -31.1484 Z"/><line y2="-7.5" y1="7.5" x2="51.963" x1="25.98" style="fill:none;"/><line y2="4.2586" y1="-7.5" x2="72.3289" x1="51.963" style="fill:none;"/><line y2="7.2897" y1="-3.4585" x2="70.5788" x1="51.963" style="fill:none;"/><path style="fill:none; stroke-miterlimit:5;" d="M-25.547 7.25 L-25.98 7.5 L-26.413 7.25"/></g><g transform="translate(81,45)" style="stroke-linecap:butt; font-size:8.4px; fill:gray; text-rendering:geometricPrecision; image-rendering:optimizeQuality; color-rendering:optimizeQuality; font-family:'Open Sans'; font-style:italic; stroke:gray; color-interpolation:linearRGB; stroke-miterlimit:5;"><path style="stroke:none;" d="M-30.3689 -1.3359 Q-30.3689 -2.6641 -29.9001 -3.7891 Q-29.4314 -4.9141 -28.4001 -5.9922 L-27.7908 -5.9922 Q-28.7595 -4.9297 -29.2439 -3.7578 Q-29.7283 -2.5859 -29.7283 -1.3516 Q-29.7283 -0.0234 -29.2908 0.9922 L-29.8064 0.9922 Q-30.3689 -0.0391 -30.3689 -1.3359 ZM-26.8088 -2.6484 L-27.3088 -0.2734 L-27.9651 -0.2734 L-26.762 -5.9922 L-25.512 -5.9922 Q-23.7776 -5.9922 -23.7776 -4.5547 Q-23.7776 -3.1953 -25.2151 -2.8047 L-24.2776 -0.2734 L-24.9963 -0.2734 L-25.8245 -2.6484 L-26.8088 -2.6484 ZM-26.2307 -5.3984 Q-26.6213 -3.4766 -26.6838 -3.2266 L-26.0276 -3.2266 Q-25.2776 -3.2266 -24.8713 -3.5547 Q-24.4651 -3.8828 -24.4651 -4.5078 Q-24.4651 -4.9766 -24.7229 -5.1875 Q-24.9807 -5.3984 -25.5745 -5.3984 L-26.2307 -5.3984 ZM-21.5916 -3.6484 Q-21.5916 -2.3203 -22.0682 -1.1875 Q-22.5447 -0.0547 -23.5604 0.9922 L-24.1697 0.9922 Q-22.2322 -1.1641 -22.2322 -3.6484 Q-22.2322 -4.9766 -22.6697 -5.9922 L-22.1541 -5.9922 Q-21.5916 -4.9297 -21.5916 -3.6484 Z"/><path style="stroke:none;" d="M-12.7687 -11.297 Q-12.7687 -12.6251 -12.3 -13.7501 Q-11.8312 -14.8751 -10.8 -15.9532 L-10.1906 -15.9532 Q-11.1593 -14.8907 -11.6437 -13.7189 Q-12.1281 -12.547 -12.1281 -11.3126 Q-12.1281 -9.9845 -11.6906 -8.9689 L-12.2062 -8.9689 Q-12.7687 -10.0001 -12.7687 -11.297 ZM-7.1462 -11.8907 Q-7.1462 -11.0626 -7.693 -10.6095 Q-8.2399 -10.1564 -9.2399 -10.1564 Q-9.6462 -10.1564 -9.9587 -10.211 Q-10.2712 -10.2657 -10.5524 -10.4064 L-10.5524 -11.0626 Q-9.9274 -10.7345 -9.2243 -10.7345 Q-8.5993 -10.7345 -8.2243 -11.0314 Q-7.8493 -11.3282 -7.8493 -11.8439 Q-7.8493 -12.1564 -8.0524 -12.3829 Q-8.2555 -12.6095 -8.818 -12.9376 Q-9.4118 -13.2657 -9.6383 -13.5939 Q-9.8649 -13.922 -9.8649 -14.3751 Q-9.8649 -15.1095 -9.3493 -15.5704 Q-8.8337 -16.0314 -7.9899 -16.0314 Q-7.6149 -16.0314 -7.279 -15.9532 Q-6.943 -15.8751 -6.568 -15.7032 L-6.8337 -15.1095 Q-7.0837 -15.2657 -7.404 -15.3517 Q-7.7243 -15.4376 -7.9899 -15.4376 Q-8.5212 -15.4376 -8.8415 -15.1642 Q-9.1618 -14.8907 -9.1618 -14.422 Q-9.1618 -14.2189 -9.0915 -14.0704 Q-9.0212 -13.922 -8.8805 -13.7892 Q-8.7399 -13.6564 -8.318 -13.4064 Q-7.7555 -13.0626 -7.5524 -12.8673 Q-7.3493 -12.672 -7.2477 -12.4376 Q-7.1462 -12.2032 -7.1462 -11.8907 ZM-4.5517 -13.6095 Q-4.5517 -12.2814 -5.0282 -11.1485 Q-5.5048 -10.0157 -6.5204 -8.9689 L-7.1298 -8.9689 Q-5.1923 -11.1251 -5.1923 -13.6095 Q-5.1923 -14.9376 -5.6298 -15.9532 L-5.1142 -15.9532 Q-4.5517 -14.8907 -4.5517 -13.6095 Z"/><path style="stroke:none;" d="M-65.012 -11.3358 Q-65.012 -12.664 -64.5432 -13.789 Q-64.0745 -14.914 -63.0432 -15.9921 L-62.4338 -15.9921 Q-63.4026 -14.9296 -63.887 -13.7577 Q-64.3713 -12.5858 -64.3713 -11.3515 Q-64.3713 -10.0233 -63.9338 -9.0077 L-64.4495 -9.0077 Q-65.012 -10.039 -65.012 -11.3358 ZM-61.4519 -12.6483 L-61.9519 -10.2733 L-62.6082 -10.2733 L-61.405 -15.9921 L-60.155 -15.9921 Q-58.4207 -15.9921 -58.4207 -14.5546 Q-58.4207 -13.1952 -59.8582 -12.8046 L-58.9207 -10.2733 L-59.6394 -10.2733 L-60.4675 -12.6483 L-61.4519 -12.6483 ZM-60.8738 -15.3983 Q-61.2644 -13.4765 -61.3269 -13.2265 L-60.6707 -13.2265 Q-59.9207 -13.2265 -59.5144 -13.5546 Q-59.1082 -13.8827 -59.1082 -14.5077 Q-59.1082 -14.9765 -59.366 -15.1874 Q-59.6238 -15.3983 -60.2175 -15.3983 L-60.8738 -15.3983 ZM-56.2347 -13.6483 Q-56.2347 -12.3202 -56.7112 -11.1874 Q-57.1878 -10.0546 -58.2034 -9.0077 L-58.8128 -9.0077 Q-56.8753 -11.164 -56.8753 -13.6483 Q-56.8753 -14.9765 -57.3128 -15.9921 L-56.7972 -15.9921 Q-56.2347 -14.9296 -56.2347 -13.6483 Z"/></g><g transform="translate(81,45)" style="stroke-linecap:butt; fill:rgb(230,0,0); text-rendering:geometricPrecision; color-rendering:optimizeQuality; image-rendering:optimizeQuality; font-family:'Open Sans'; stroke:rgb(230,0,0); color-interpolation:linearRGB; stroke-miterlimit:5;"><path style="stroke:none;" d="M-22.0425 37.4297 Q-22.0425 39.4922 -23.0816 40.6719 Q-24.1206 41.8516 -25.9644 41.8516 Q-27.855 41.8516 -28.8862 40.6875 Q-29.9175 39.5234 -29.9175 37.4141 Q-29.9175 35.3203 -28.8862 34.1719 Q-27.855 33.0234 -25.9644 33.0234 Q-24.105 33.0234 -23.0737 34.1953 Q-22.0425 35.3672 -22.0425 37.4297 ZM-28.8706 37.4297 Q-28.8706 39.1641 -28.1284 40.0703 Q-27.3862 40.9766 -25.9644 40.9766 Q-24.5425 40.9766 -23.8159 40.0781 Q-23.0894 39.1797 -23.0894 37.4297 Q-23.0894 35.6953 -23.8159 34.8047 Q-24.5425 33.9141 -25.9644 33.9141 Q-27.3862 33.9141 -28.1284 34.8125 Q-28.8706 35.7109 -28.8706 37.4297 Z"/><path style="stroke:none;" d="M-14.5269 41.7266 L-15.5269 41.7266 L-15.5269 37.6953 L-20.0425 37.6953 L-20.0425 41.7266 L-21.0425 41.7266 L-21.0425 33.1641 L-20.0425 33.1641 L-20.0425 36.8047 L-15.5269 36.8047 L-15.5269 33.1641 L-14.5269 33.1641 L-14.5269 41.7266 Z"/><path style="fill:none; stroke:black;" d="M25.547 7.25 L25.98 7.5 L26.413 7.25"/><path style="stroke:none;" d="M3.9375 -37.5703 Q3.9375 -35.5078 2.8984 -34.3281 Q1.8594 -33.1484 0.0156 -33.1484 Q-1.875 -33.1484 -2.9062 -34.3125 Q-3.9375 -35.4766 -3.9375 -37.5859 Q-3.9375 -39.6797 -2.9062 -40.8281 Q-1.875 -41.9766 0.0156 -41.9766 Q1.875 -41.9766 2.9062 -40.8047 Q3.9375 -39.6328 3.9375 -37.5703 ZM-2.8906 -37.5703 Q-2.8906 -35.8359 -2.1484 -34.9297 Q-1.4062 -34.0234 0.0156 -34.0234 Q1.4375 -34.0234 2.1641 -34.9219 Q2.8906 -35.8203 2.8906 -37.5703 Q2.8906 -39.3047 2.1641 -40.1953 Q1.4375 -41.0859 0.0156 -41.0859 Q-1.4062 -41.0859 -2.1484 -40.1875 Q-2.8906 -39.2891 -2.8906 -37.5703 Z"/><path style="stroke:none;" d="M11.4531 -33.2734 L10.4531 -33.2734 L10.4531 -37.3047 L5.9375 -37.3047 L5.9375 -33.2734 L4.9375 -33.2734 L4.9375 -41.8359 L5.9375 -41.8359 L5.9375 -38.1953 L10.4531 -38.1953 L10.4531 -41.8359 L11.4531 -41.8359 L11.4531 -33.2734 Z"/><path style="stroke:none;" d="M-48.0255 -37.5703 Q-48.0255 -35.5078 -49.0646 -34.3281 Q-50.1036 -33.1484 -51.9474 -33.1484 Q-53.838 -33.1484 -54.8693 -34.3125 Q-55.9005 -35.4766 -55.9005 -37.5859 Q-55.9005 -39.6797 -54.8693 -40.8281 Q-53.838 -41.9766 -51.9474 -41.9766 Q-50.088 -41.9766 -49.0568 -40.8047 Q-48.0255 -39.6328 -48.0255 -37.5703 ZM-54.8536 -37.5703 Q-54.8536 -35.8359 -54.1114 -34.9297 Q-53.3693 -34.0234 -51.9474 -34.0234 Q-50.5255 -34.0234 -49.7989 -34.9219 Q-49.0724 -35.8203 -49.0724 -37.5703 Q-49.0724 -39.3047 -49.7989 -40.1953 Q-50.5255 -41.0859 -51.9474 -41.0859 Q-53.3693 -41.0859 -54.1114 -40.1875 Q-54.8536 -39.2891 -54.8536 -37.5703 Z"/><path style="stroke:none;" d="M-40.5099 -33.2734 L-41.5099 -33.2734 L-41.5099 -37.3047 L-46.0255 -37.3047 L-46.0255 -33.2734 L-47.0255 -33.2734 L-47.0255 -41.8359 L-46.0255 -41.8359 L-46.0255 -38.1953 L-41.5099 -38.1953 L-41.5099 -41.8359 L-40.5099 -41.8359 L-40.5099 -33.2734 Z"/><path style="fill:none; stroke:black;" d="M51.53 -7.25 L51.963 -7.5 L52.396 -7.25"/><path transform="translate(-0.875,1.5155)" style="stroke:none;" d="M81.8805 7.4297 Q81.8805 9.4922 80.8414 10.6719 Q79.8024 11.8516 77.9586 11.8516 Q76.068 11.8516 75.0368 10.6875 Q74.0055 9.5234 74.0055 7.4141 Q74.0055 5.3203 75.0368 4.1719 Q76.068 3.0234 77.9586 3.0234 Q79.818 3.0234 80.8493 4.1953 Q81.8805 5.3672 81.8805 7.4297 ZM75.0524 7.4297 Q75.0524 9.1641 75.7946 10.0703 Q76.5368 10.9766 77.9586 10.9766 Q79.3805 10.9766 80.1071 10.0781 Q80.8336 9.1797 80.8336 7.4297 Q80.8336 5.6953 80.1071 4.8047 Q79.3805 3.9141 77.9586 3.9141 Q76.5368 3.9141 75.7946 4.8125 Q75.0524 5.7109 75.0524 7.4297 Z"/></g></g></svg></svg></svg></svg>