<svg xmlns:ns0="http://www.w3.org/2000/svg" xmlns="http://www.w3.org/2000/svg"><g transform="translate(0, 0)"><ns0:svg width="192" viewBox="0 0 192 97" style="fill-opacity:1; color-rendering:auto; color-interpolation:auto; text-rendering:auto; stroke:black; stroke-linecap:square; stroke-miterlimit:10; shape-rendering:auto; stroke-opacity:1; fill:black; stroke-dasharray:none; font-weight:normal; stroke-width:1; font-family:'Open Sans'; font-style:normal; stroke-linejoin:miter; font-size:12; stroke-dashoffset:0; image-rendering:auto;" height="97" class="cas-substance-image"><ns0:svg class="cas-substance-single-component"><ns0:rect y="0" x="0" width="192" stroke="none" ry="7" rx="7" height="97" fill="white" class="cas-substance-group" /><ns0:svg y="0" x="0" width="192" viewBox="0 0 192 97" style="fill:black;" height="97" class="cas-substance-single-component-image"><ns0:svg><ns0:g><ns0:g transform="translate(98,49)" style="text-rendering:geometricPrecision; color-rendering:optimizeQuality; color-interpolation:linearRGB; stroke-linecap:butt; image-rendering:optimizeQuality;"><ns0:line y2="0" y1="11.7742" x2="64.953" x1="44.5577" style="fill:none;" /><ns0:line y2="0" y1="11.7586" x2="12.99" x1="33.3559" style="fill:none;" /><ns0:line y2="15" y1="0" x2="90.933" x1="64.953" style="fill:none;" /><ns0:line y2="-23.6484" y1="1.0104" x2="66.703" x1="66.703" style="fill:none;" /><ns0:line y2="-23.6484" y1="1.0103" x2="63.203" x1="63.203" style="fill:none;" /><ns0:line y2="45" y1="15" x2="-64.953" x1="-64.953" style="fill:none;" /><ns0:line y2="1.6631" y1="13.9897" x2="-84.5526" x1="-63.2029" style="fill:none;" /><ns0:line y2="4.6941" y1="17.0207" x2="-86.3027" x1="-64.953" style="fill:none;" /><ns0:line y2="0" y1="15" x2="-38.97" x1="-64.953" style="fill:none;" /><ns0:line y2="15" y1="0" x2="-12.99" x1="12.99" style="fill:none;" /><ns0:line y2="10.9585" y1="-2.0207" x2="-12.9901" x1="9.49" style="fill:none;" /><ns0:line y2="-30" y1="0" x2="12.99" x1="12.99" style="fill:none;" /><ns0:line y2="0" y1="15" x2="-38.97" x1="-12.99" style="fill:none;" /><ns0:line y2="-45" y1="-30" x2="-12.99" x1="12.99" style="fill:none;" /><ns0:line y2="-40.9585" y1="-27.9793" x2="-12.9901" x1="9.49" style="fill:none;" /><ns0:line y2="-30" y1="0" x2="-38.97" x1="-38.97" style="fill:none;" /><ns0:line y2="-27.9793" y1="-2.0207" x2="-35.47" x1="-35.47" style="fill:none;" /><ns0:line y2="-30" y1="-45" x2="-38.97" x1="-12.99" style="fill:none;" /></ns0:g><ns0:g transform="translate(98,49)" style="fill:rgb(230,0,0); text-rendering:geometricPrecision; color-rendering:optimizeQuality; image-rendering:optimizeQuality; font-family:'Open Sans'; stroke:rgb(230,0,0); color-interpolation:linearRGB;"><ns0:path style="stroke:none;" d="M42.9075 14.9297 Q42.9075 16.9922 41.8684 18.1719 Q40.8294 19.3516 38.9856 19.3516 Q37.095 19.3516 36.0638 18.1875 Q35.0325 17.0234 35.0325 14.9141 Q35.0325 12.8203 36.0638 11.6719 Q37.095 10.5234 38.9856 10.5234 Q40.845 10.5234 41.8763 11.6953 Q42.9075 12.8672 42.9075 14.9297 ZM36.0794 14.9297 Q36.0794 16.6641 36.8216 17.5703 Q37.5638 18.4766 38.9856 18.4766 Q40.4075 18.4766 41.1341 17.5781 Q41.8606 16.6797 41.8606 14.9297 Q41.8606 13.1953 41.1341 12.3047 Q40.4075 11.4141 38.9856 11.4141 Q37.5638 11.4141 36.8216 12.3125 Q36.0794 13.2109 36.0794 14.9297 Z" /></ns0:g><ns0:g transform="translate(98,49)" style="stroke-linecap:butt; text-rendering:geometricPrecision; color-rendering:optimizeQuality; image-rendering:optimizeQuality; font-family:'Open Sans'; color-interpolation:linearRGB; stroke-miterlimit:5;"><ns0:path style="fill:none;" d="M64.52 0.25 L64.953 0 L65.386 0.25" /><ns0:path style="fill:rgb(230,0,0); stroke:none;" d="M68.8905 -30.0703 Q68.8905 -28.0078 67.8514 -26.8281 Q66.8124 -25.6484 64.9686 -25.6484 Q63.078 -25.6484 62.0468 -26.8125 Q61.0155 -27.9766 61.0155 -30.0859 Q61.0155 -32.1797 62.0468 -33.3281 Q63.078 -34.4766 64.9686 -34.4766 Q66.828 -34.4766 67.8593 -33.3047 Q68.8905 -32.1328 68.8905 -30.0703 ZM62.0624 -30.0703 Q62.0624 -28.3359 62.8046 -27.4297 Q63.5468 -26.5234 64.9686 -26.5234 Q66.3905 -26.5234 67.1171 -27.4219 Q67.8436 -28.3203 67.8436 -30.0703 Q67.8436 -31.8047 67.1171 -32.6953 Q66.3905 -33.5859 64.9686 -33.5859 Q63.5468 -33.5859 62.8046 -32.6875 Q62.0624 -31.7891 62.0624 -30.0703 Z" /><ns0:path style="fill:none;" d="M-64.953 15.5 L-64.953 15 L-64.52 14.75" /><ns0:path style="fill:rgb(230,0,0); stroke:none;" d="M-86.9955 -0.0703 Q-86.9955 1.9922 -88.0346 3.1719 Q-89.0736 4.3516 -90.9174 4.3516 Q-92.808 4.3516 -93.8392 3.1875 Q-94.8705 2.0234 -94.8705 -0.0859 Q-94.8705 -2.1797 -93.8392 -3.3281 Q-92.808 -4.4766 -90.9174 -4.4766 Q-89.058 -4.4766 -88.0267 -3.3047 Q-86.9955 -2.1328 -86.9955 -0.0703 ZM-93.8236 -0.0703 Q-93.8236 1.6641 -93.0814 2.5703 Q-92.3392 3.4766 -90.9174 3.4766 Q-89.4955 3.4766 -88.7689 2.5781 Q-88.0424 1.6797 -88.0424 -0.0703 Q-88.0424 -1.8047 -88.7689 -2.6953 Q-89.4955 -3.5859 -90.9174 -3.5859 Q-92.3392 -3.5859 -93.0814 -2.6875 Q-93.8236 -1.7891 -93.8236 -0.0703 Z" /><ns0:path style="fill:none;" d="M12.557 0.25 L12.99 0 L12.99 -0.5" /><ns0:path style="fill:none;" d="M-12.557 14.75 L-12.99 15 L-13.423 14.75" /><ns0:path style="fill:none;" d="M12.99 -29.5 L12.99 -30 L12.557 -30.25" /><ns0:path style="fill:none;" d="M-38.97 -0.5 L-38.97 0 L-39.403 0.25" /><ns0:path style="fill:none;" d="M-12.557 -44.75 L-12.99 -45 L-13.423 -44.75" /><ns0:path style="fill:none;" d="M-38.97 -29.5 L-38.97 -30 L-38.537 -30.25" /></ns0:g></ns0:g></ns0:svg></ns0:svg></ns0:svg></ns0:svg></g></svg>