<svg xmlns:ns0="http://www.w3.org/2000/svg" xmlns="http://www.w3.org/2000/svg"><g transform="translate(0, 0)"><ns0:svg width="220" viewBox="0 0 220 166" style="fill-opacity:1; color-rendering:auto; color-interpolation:auto; text-rendering:auto; stroke:black; stroke-linecap:square; stroke-miterlimit:10; shape-rendering:auto; stroke-opacity:1; fill:black; stroke-dasharray:none; font-weight:normal; stroke-width:1; font-family:'Open Sans'; font-style:normal; stroke-linejoin:miter; font-size:12; stroke-dashoffset:0; image-rendering:auto;" height="166" class="cas-substance-image"><ns0:svg class="cas-substance-single-component"><ns0:rect y="0" x="0" width="220" stroke="none" ry="7" rx="7" height="166" fill="white" class="cas-substance-group" /><ns0:svg y="0" x="0" width="220" viewBox="0 0 220 166" style="fill:black;" height="166" class="cas-substance-single-component-image"><ns0:svg><ns0:g><ns0:g transform="translate(108,81)" style="text-rendering:geometricPrecision; color-rendering:optimizeQuality; color-interpolation:linearRGB; stroke-linecap:butt; image-rendering:optimizeQuality;"><ns0:line y2="51.963" y1="73.0963" x2="32.0207" x1="19.819" style="fill:none;" /><ns0:line y2="50.2129" y1="71.3463" x2="28.9897" x1="16.788" style="fill:none;" /><ns0:line y2="-32.1183" y1="-51.963" x2="18.5437" x1="30" style="fill:none;" /><ns0:line y2="24.23" y1="24.23" x2="73.9896" x1="99.0625" style="fill:none;" /><ns0:line y2="27.73" y1="27.73" x2="73.9897" x1="99.0625" style="fill:none;" /><ns0:line y2="-25.98" y1="-25.98" x2="-75" x1="-105" style="fill:none;" /><ns0:line y2="-51.963" y1="-77.943" x2="-60" x1="-75" style="fill:none;" /><ns0:line y2="0" y1="25.98" x2="30" x1="15" style="fill:none;" /><ns0:line y2="25.98" y1="25.98" x2="-9.6484" x1="15" style="fill:none;" /><ns0:line y2="22.48" y1="22.48" x2="-9.6484" x1="12.9793" style="fill:none;" /><ns0:line y2="51.963" y1="25.98" x2="30" x1="15" style="fill:none;" /><ns0:line y2="-20.0917" y1="0" x2="18.3997" x1="30" style="fill:none;" /><ns0:line y2="0" y1="0" x2="54.6484" x1="30" style="fill:none;" /><ns0:line y2="3.5" y1="3.5" x2="54.6484" x1="32.0207" style="fill:none;" /><ns0:line y2="0" y1="19.8417" x2="-30" x1="-18.544" style="fill:none;" /><ns0:line y2="51.963" y1="51.963" x2="54.6484" x1="30" style="fill:none;" /><ns0:line y2="-25.98" y1="-25.98" x2="-15" x1="9.6484" style="fill:none;" /><ns0:line y2="25.98" y1="5.8883" x2="75" x1="63.3997" style="fill:none;" /><ns0:line y2="-25.98" y1="0" x2="-15" x1="-30" style="fill:none;" /><ns0:line y2="0" y1="0" x2="-60" x1="-30" style="fill:none;" /><ns0:line y2="-3.5" y1="-3.5" x2="-57.9793" x1="-32.0207" style="fill:none;" /><ns0:line y2="25.98" y1="45.8247" x2="75" x1="63.5437" style="fill:none;" /><ns0:line y2="-51.963" y1="-25.98" x2="-30" x1="-15" style="fill:none;" /><ns0:line y2="-48.4631" y1="-25.9802" x2="-32.0209" x1="-19.0415" style="fill:none;" /><ns0:line y2="-25.98" y1="0" x2="-75" x1="-60" style="fill:none;" /><ns0:line y2="-51.963" y1="-51.963" x2="-60" x1="-30" style="fill:none;" /><ns0:line y2="-51.963" y1="-25.98" x2="-60" x1="-75" style="fill:none;" /><ns0:line y2="-48.4631" y1="-25.9802" x2="-57.9791" x1="-70.9585" style="fill:none;" /></ns0:g><ns0:g transform="translate(108,81)" style="fill:rgb(230,0,0); text-rendering:geometricPrecision; color-rendering:optimizeQuality; image-rendering:optimizeQuality; font-family:'Open Sans'; stroke:rgb(230,0,0); color-interpolation:linearRGB;"><ns0:path style="stroke:none;" d="M18.9375 77.8727 Q18.9375 79.9352 17.8984 81.1149 Q16.8594 82.2946 15.0156 82.2946 Q13.125 82.2946 12.0938 81.1305 Q11.0625 79.9664 11.0625 77.8571 Q11.0625 75.7633 12.0938 74.6149 Q13.125 73.4664 15.0156 73.4664 Q16.875 73.4664 17.9062 74.6383 Q18.9375 75.8102 18.9375 77.8727 ZM12.1094 77.8727 Q12.1094 79.6071 12.8516 80.5133 Q13.5938 81.4196 15.0156 81.4196 Q16.4375 81.4196 17.1641 80.5211 Q17.8906 79.6227 17.8906 77.8727 Q17.8906 76.1383 17.1641 75.2477 Q16.4375 74.3571 15.0156 74.3571 Q13.5938 74.3571 12.8516 75.2555 Q12.1094 76.1539 12.1094 77.8727 Z" /><ns0:path style="stroke:none;" d="M108.9375 25.9097 Q108.9375 27.9722 107.8984 29.1519 Q106.8594 30.3316 105.0156 30.3316 Q103.125 30.3316 102.0938 29.1675 Q101.0625 28.0034 101.0625 25.8941 Q101.0625 23.8003 102.0938 22.6519 Q103.125 21.5034 105.0156 21.5034 Q106.875 21.5034 107.9062 22.6753 Q108.9375 23.8472 108.9375 25.9097 ZM102.1094 25.9097 Q102.1094 27.6441 102.8516 28.5503 Q103.5938 29.4566 105.0156 29.4566 Q106.4375 29.4566 107.1641 28.5581 Q107.8906 27.6597 107.8906 25.9097 Q107.8906 24.1753 107.1641 23.2847 Q106.4375 22.3941 105.0156 22.3941 Q103.5938 22.3941 102.8516 23.2925 Q102.1094 24.1909 102.1094 25.9097 Z" /></ns0:g><ns0:g transform="translate(108,81)" style="stroke-linecap:butt; text-rendering:geometricPrecision; color-rendering:optimizeQuality; image-rendering:optimizeQuality; font-family:'Open Sans'; color-interpolation:linearRGB; stroke-miterlimit:5;"><ns0:path style="fill:none;" d="M14.5 25.98 L15 25.98 L15.25 25.547" /><ns0:path style="fill:none;" d="M30.5 0 L30 0 L29.75 0.433" /><ns0:path style="fill:rgb(0,5,255); stroke:none;" d="M-11.6484 30.1362 L-12.7891 30.1362 L-17.4766 22.9487 L-17.5234 22.9487 Q-17.4297 24.2144 -17.4297 25.2612 L-17.4297 30.1362 L-18.3516 30.1362 L-18.3516 21.5737 L-17.2266 21.5737 L-12.5547 28.73 L-12.5078 28.73 Q-12.5078 28.5737 -12.5547 27.7144 Q-12.6016 26.855 -12.5859 26.48 L-12.5859 21.5737 L-11.6484 21.5737 L-11.6484 30.1362 Z" /><ns0:path style="fill:none;" d="M29.75 51.53 L30 51.963 L30.5 51.963" /><ns0:path style="fill:rgb(0,5,255); stroke:none;" d="M18.3516 -21.8237 L17.2109 -21.8237 L12.5234 -29.0112 L12.4766 -29.0112 Q12.5703 -27.7456 12.5703 -26.6987 L12.5703 -21.8237 L11.6484 -21.8237 L11.6484 -30.3862 L12.7734 -30.3862 L17.4453 -23.23 L17.4922 -23.23 Q17.4922 -23.3862 17.4453 -24.2456 Q17.3984 -25.105 17.4141 -25.48 L17.4141 -30.3862 L18.3516 -30.3862 L18.3516 -21.8237 Z" /><ns0:path style="fill:rgb(0,5,255); stroke:none;" d="M63.3516 4.1562 L62.2109 4.1562 L57.5234 -3.0312 L57.4766 -3.0312 Q57.5703 -1.7656 57.5703 -0.7188 L57.5703 4.1562 L56.6484 4.1562 L56.6484 -4.4062 L57.7734 -4.4062 L62.4453 2.75 L62.4922 2.75 Q62.4922 2.5938 62.4453 1.7344 Q62.3984 0.875 62.4141 0.5 L62.4141 -4.4062 L63.3516 -4.4062 L63.3516 4.1562 Z" /><ns0:path style="fill:none;" d="M-30.5 -0 L-30 0 L-29.75 0.433" /><ns0:path style="fill:rgb(0,5,255); stroke:none;" d="M63.3516 56.1193 L62.2109 56.1193 L57.5234 48.9318 L57.4766 48.9318 Q57.5703 50.1974 57.5703 51.2443 L57.5703 56.1193 L56.6484 56.1193 L56.6484 47.5568 L57.7734 47.5568 L62.4453 54.713 L62.4922 54.713 Q62.4922 54.5568 62.4453 53.6974 Q62.3984 52.838 62.4141 52.463 L62.4141 47.5568 L63.3516 47.5568 L63.3516 56.1193 Z" /><ns0:path style="fill:rgb(0,5,255); stroke:none;" d="M63.2578 65.6817 L62.2578 65.6817 L62.2578 61.6505 L57.7422 61.6505 L57.7422 65.6817 L56.7422 65.6817 L56.7422 57.1192 L57.7422 57.1192 L57.7422 60.7599 L62.2578 60.7599 L62.2578 57.1192 L63.2578 57.1192 L63.2578 65.6817 Z" /><ns0:path style="fill:none;" d="M-15.25 -26.413 L-15 -25.98 L-14.5 -25.98" /><ns0:path style="fill:none;" d="M74.75 25.547 L75 25.98 L74.75 26.413" /><ns0:path style="fill:none;" d="M-59.5 0 L-60 0 L-60.25 -0.433" /><ns0:path style="fill:none;" d="M-29.75 -51.53 L-30 -51.963 L-30.5 -51.963" /><ns0:path style="fill:none;" d="M-74.75 -26.413 L-75 -25.98 L-75.5 -25.98" /><ns0:path style="fill:none;" d="M-60.25 -51.53 L-60 -51.963 L-60.25 -52.396" /></ns0:g></ns0:g></ns0:svg></ns0:svg></ns0:svg></ns0:svg></g></svg>