<svg width="374" viewBox="0 0 374 116" style="fill-opacity:1; color-rendering:auto; color-interpolation:auto; text-rendering:auto; stroke:black; stroke-linecap:square; stroke-miterlimit:10; shape-rendering:auto; stroke-opacity:1; fill:black; stroke-dasharray:none; font-weight:normal; stroke-width:1; font-family:'Open Sans'; font-style:normal; stroke-linejoin:miter; font-size:12; stroke-dashoffset:0; image-rendering:auto;" height="116" class="cas-substance-image" xmlns:xlink="http://www.w3.org/1999/xlink" xmlns="http://www.w3.org/2000/svg"><svg class="cas-substance-single-component"><rect y="0" x="0" width="374" stroke="none" ry="7" rx="7" height="116" fill="white" class="cas-substance-group"/><svg y="0" x="0" width="374" viewBox="0 0 374 116" style="fill:black;" height="116" class="cas-substance-single-component-image"><svg><g><g transform="translate(189,60)" style="text-rendering:geometricPrecision; color-rendering:optimizeQuality; color-interpolation:linearRGB; stroke-linecap:butt; image-rendering:optimizeQuality;"><line y2="13.6562" y1="37.5" x2="25.98" x1="25.98" style="fill:none;"/><line y2="-37.5" y1="-49.3216" x2="155.886" x1="135.4086" style="fill:none;"/><line y2="-37.5" y1="-49.3112" x2="103.923" x1="124.38" style="fill:none;"/><line y2="-52.5" y1="-37.5" x2="181.866" x1="155.886" style="fill:none;"/><line y2="-7.5" y1="7.5" x2="-51.96" x1="-25.98" style="fill:none;"/><line y2="-3.4585" y1="9.5207" x2="-51.96" x1="-29.48" style="fill:none;"/><line y2="-7.5" y1="7.5" x2="0" x1="-25.98" style="fill:none;"/><line y2="7.5" y1="-7.5" x2="-77.943" x1="-51.96" style="fill:none;"/><line y2="-31.1484" y1="-13.9062" x2="-154.136" x1="-154.136" style="fill:none;"/><line y2="-31.1484" y1="-13.9062" x2="-157.636" x1="-157.636" style="fill:none;"/><line y2="2.7584" y1="-6.0804" x2="-177.1535" x1="-161.8446" style="fill:none;"/><line y2="5.7895" y1="-3.0494" x2="-175.4035" x1="-160.0946" style="fill:none;"/><line y2="7.5" y1="-4.5652" x2="-129.903" x1="-150.8024" style="fill:none;"/><line y2="-7.5" y1="-37.5" x2="51.963" x1="51.963" style="fill:none;"/><line y2="-9.5207" y1="-35.4793" x2="55.463" x1="55.463" style="fill:none;"/><line y2="-52.5" y1="-37.5" x2="77.943" x1="51.963" style="fill:none;"/><line y2="-52.5" y1="-37.5" x2="25.98" x1="51.963" style="fill:none;"/><line y2="1.9938" y1="-7.5" x2="35.5178" x1="51.963" style="fill:none;"/><line y2="7.5" y1="-7.5" x2="77.943" x1="51.963" style="fill:none;"/><line y2="-37.5" y1="-52.5" x2="103.923" x1="77.943" style="fill:none;"/><line y2="-35.4793" y1="-48.4585" x2="100.423" x1="77.9429" style="fill:none;"/><line y2="-37.5" y1="-52.5" x2="0" x1="25.98" style="fill:none;"/><line y2="-35.4793" y1="-48.4585" x2="3.5" x1="25.9801" style="fill:none;"/><line y2="-7.5" y1="4.5649" x2="0" x1="20.8964" style="fill:none;"/><line y2="-9.5207" y1="1.5338" x2="3.5" x1="22.6464" style="fill:none;"/><line y2="-7.5" y1="7.5" x2="103.923" x1="77.943" style="fill:none;"/><line y2="-9.5207" y1="3.4585" x2="100.423" x1="77.9429" style="fill:none;"/><line y2="-7.5" y1="-37.5" x2="103.923" x1="103.923" style="fill:none;"/><line y2="-7.5" y1="-37.5" x2="0" x1="0" style="fill:none;"/><line y2="-7.5" y1="7.5" x2="-103.923" x1="-77.943" style="fill:none;"/><line y2="-3.4585" y1="9.5207" x2="-103.923" x1="-81.443" style="fill:none;"/><line y2="37.5" y1="7.5" x2="-77.943" x1="-77.943" style="fill:none;"/><line y2="7.5" y1="-7.5" x2="-129.903" x1="-103.923" style="fill:none;"/><line y2="52.5" y1="37.5" x2="-103.923" x1="-77.943" style="fill:none;"/><line y2="48.4585" y1="35.4793" x2="-103.923" x1="-81.443" style="fill:none;"/><line y2="37.5" y1="7.5" x2="-129.903" x1="-129.903" style="fill:none;"/><line y2="35.4793" y1="9.5207" x2="-126.403" x1="-126.403" style="fill:none;"/><line y2="37.5" y1="52.5" x2="-129.903" x1="-103.923" style="fill:none;"/></g><g transform="translate(189,60)" style="fill:rgb(230,0,0); text-rendering:geometricPrecision; color-rendering:optimizeQuality; image-rendering:optimizeQuality; font-family:'Open Sans'; stroke:rgb(230,0,0); color-interpolation:linearRGB;"><path style="stroke:none;" d="M133.8405 -52.5703 Q133.8405 -50.5078 132.8014 -49.3281 Q131.7624 -48.1484 129.9186 -48.1484 Q128.028 -48.1484 126.9967 -49.3125 Q125.9655 -50.4766 125.9655 -52.5859 Q125.9655 -54.6797 126.9967 -55.8281 Q128.028 -56.9766 129.9186 -56.9766 Q131.778 -56.9766 132.8092 -55.8047 Q133.8405 -54.6328 133.8405 -52.5703 ZM127.0124 -52.5703 Q127.0124 -50.8359 127.7546 -49.9297 Q128.4967 -49.0234 129.9186 -49.0234 Q131.3405 -49.0234 132.0671 -49.9219 Q132.7936 -50.8203 132.7936 -52.5703 Q132.7936 -54.3047 132.0671 -55.1953 Q131.3405 -56.0859 129.9186 -56.0859 Q128.4967 -56.0859 127.7546 -55.1875 Q127.0124 -54.2891 127.0124 -52.5703 Z"/></g><g transform="translate(189,60)" style="stroke-linecap:butt; text-rendering:geometricPrecision; color-rendering:optimizeQuality; image-rendering:optimizeQuality; font-family:'Open Sans'; color-interpolation:linearRGB; stroke-miterlimit:5;"><path style="fill:none;" d="M155.453 -37.75 L155.886 -37.5 L156.319 -37.75"/><path style="fill:none;" d="M-26.413 7.25 L-25.98 7.5 L-25.547 7.25"/><path style="fill:none;" d="M-51.527 -7.25 L-51.96 -7.5 L-52.393 -7.25"/><path style="fill:rgb(0,5,255); stroke:none;" d="M-152.5344 -3.3438 L-153.6751 -3.3438 L-158.3626 -10.5312 L-158.4094 -10.5312 Q-158.3157 -9.2656 -158.3157 -8.2188 L-158.3157 -3.3438 L-159.2376 -3.3438 L-159.2376 -11.9062 L-158.1126 -11.9062 L-153.4407 -4.75 L-153.3938 -4.75 Q-153.3938 -4.9062 -153.4407 -5.7656 Q-153.4876 -6.625 -153.4719 -7 L-153.4719 -11.9062 L-152.5344 -11.9062 L-152.5344 -3.3438 Z"/><path style="fill:rgb(230,0,0); stroke:none;" d="M-151.9485 -37.5703 Q-151.9485 -35.5078 -152.9876 -34.3281 Q-154.0266 -33.1484 -155.8704 -33.1484 Q-157.761 -33.1484 -158.7923 -34.3125 Q-159.8235 -35.4766 -159.8235 -37.5859 Q-159.8235 -39.6797 -158.7923 -40.8281 Q-157.761 -41.9766 -155.8704 -41.9766 Q-154.011 -41.9766 -152.9798 -40.8047 Q-151.9485 -39.6328 -151.9485 -37.5703 ZM-158.7766 -37.5703 Q-158.7766 -35.8359 -158.0344 -34.9297 Q-157.2923 -34.0234 -155.8704 -34.0234 Q-154.4485 -34.0234 -153.7219 -34.9219 Q-152.9954 -35.8203 -152.9954 -37.5703 Q-152.9954 -39.3047 -153.7219 -40.1953 Q-154.4485 -41.0859 -155.8704 -41.0859 Q-157.2923 -41.0859 -158.0344 -40.1875 Q-158.7766 -39.2891 -158.7766 -37.5703 Z"/><path style="fill:rgb(230,0,0); stroke:none;" d="M-177.9285 7.4297 Q-177.9285 9.4922 -178.9676 10.6719 Q-180.0066 11.8516 -181.8504 11.8516 Q-183.741 11.8516 -184.7722 10.6875 Q-185.8035 9.5234 -185.8035 7.4141 Q-185.8035 5.3203 -184.7722 4.1719 Q-183.741 3.0234 -181.8504 3.0234 Q-179.991 3.0234 -178.9597 4.1953 Q-177.9285 5.3672 -177.9285 7.4297 ZM-184.7566 7.4297 Q-184.7566 9.1641 -184.0144 10.0703 Q-183.2722 10.9766 -181.8504 10.9766 Q-180.4285 10.9766 -179.7019 10.0781 Q-178.9754 9.1797 -178.9754 7.4297 Q-178.9754 5.6953 -179.7019 4.8047 Q-180.4285 3.9141 -181.8504 3.9141 Q-183.2722 3.9141 -184.0144 4.8125 Q-184.7566 5.7109 -184.7566 7.4297 Z"/><path style="fill:none;" d="M51.963 -37 L51.963 -37.5 L52.396 -37.75"/><path style="fill:none;" d="M51.963 -8 L51.963 -7.5 L51.53 -7.25"/><path style="fill:none;" d="M77.51 -52.25 L77.943 -52.5 L78.376 -52.25"/><path style="fill:none;" d="M26.413 -52.25 L25.98 -52.5 L25.547 -52.25"/><path style="fill:rgb(0,5,255); stroke:none;" d="M29.3316 11.6562 L28.1909 11.6562 L23.5034 4.4688 L23.4566 4.4688 Q23.5503 5.7344 23.5503 6.7812 L23.5503 11.6562 L22.6284 11.6562 L22.6284 3.0938 L23.7534 3.0938 L28.4253 10.25 L28.4722 10.25 Q28.4722 10.0938 28.4253 9.2344 Q28.3784 8.375 28.3941 8 L28.3941 3.0938 L29.3316 3.0938 L29.3316 11.6562 Z"/><path style="stroke:none;" d="M32.4722 4.6656 L34.0816 4.6656 L34.0816 5.2125 L32.4722 5.2125 L32.4722 6.8687 L31.9409 6.8687 L31.9409 5.2125 L30.3316 5.2125 L30.3316 4.6656 L31.9409 4.6656 L31.9409 2.9937 L32.4722 2.9937 L32.4722 4.6656 Z"/><path style="fill:none;" d="M77.51 7.25 L77.943 7.5 L78.376 7.25"/><path style="fill:none;" d="M103.49 -37.75 L103.923 -37.5 L104.356 -37.75"/><path style="fill:none;" d="M0.433 -37.75 L0 -37.5 L-0 -37"/><path style="fill:none;" d="M0.433 -7.25 L0 -7.5 L-0.433 -7.25"/><path style="fill:none;" d="M103.49 -7.25 L103.923 -7.5 L103.923 -8"/><path style="fill:none;" d="M-78.376 7.25 L-77.943 7.5 L-77.51 7.25"/><path style="fill:none;" d="M-103.49 -7.25 L-103.923 -7.5 L-104.356 -7.25"/><path style="fill:none;" d="M-77.943 37 L-77.943 37.5 L-78.376 37.75"/><path style="fill:none;" d="M-129.903 8 L-129.903 7.5 L-130.336 7.25"/><path style="fill:none;" d="M-103.49 52.25 L-103.923 52.5 L-104.356 52.25"/><path style="fill:none;" d="M-129.903 37 L-129.903 37.5 L-129.47 37.75"/></g></g></svg></svg></svg></svg>