<svg width="131" viewBox="0 0 131 104" style="fill-opacity:1; color-rendering:auto; color-interpolation:auto; text-rendering:auto; stroke:black; stroke-linecap:square; stroke-miterlimit:10; shape-rendering:auto; stroke-opacity:1; fill:black; stroke-dasharray:none; font-weight:normal; stroke-width:1; font-family:'Open Sans'; font-style:normal; stroke-linejoin:miter; font-size:12; stroke-dashoffset:0; image-rendering:auto;" height="104" class="cas-substance-image" xmlns:xlink="http://www.w3.org/1999/xlink" xmlns="http://www.w3.org/2000/svg"><svg class="cas-substance-single-component"><rect y="0" x="0" width="131" stroke="none" ry="7" rx="7" height="104" fill="white" class="cas-substance-group"/><svg y="0" x="0" width="131" viewBox="0 0 131 104" style="fill:black;" height="104" class="cas-substance-single-component-image"><svg><g><clipPath id="clipPath_d64e66be33be47cdaebbe1667b51c4f01" clipPathUnits="userSpaceOnUse"><path d="M10.4946 -6.9372 L-19.9878 -3.5558 L-19.9878 -3.5558 L13.1103 16.6421 L13.1103 16.6421 L10.4946 -6.9372 ZM-29.2209 -2.1613 L-25.5606 30.8352 L14.1955 26.425 L13.1146 16.6811 L10.0053 21.7762 L-29.2209 -2.1613 Z"/></clipPath><g transform="translate(64,54)" style="text-rendering:geometricPrecision; color-rendering:optimizeQuality; color-interpolation:linearRGB; stroke-linecap:butt; image-rendering:optimizeQuality;"><line y2="-1.005" y1="-30.804" x2="-8.97" x1="-12.426" style="fill:none;"/><line y2="-9.408" y1="7.011" x2="-35.337" x1="-60.447" style="fill:none;"/><line y2="-9.408" y1="-39.135" x2="-35.337" x1="-39.384" style="fill:none;"/><line y2="-15.5486" y1="-40.1981" x2="15.3312" x1="20.3784" style="fill:none;"/><line y2="-14.8464" y1="-39.496" x2="18.76" x1="23.8072" style="fill:none;"/><line y2="-0.1573" y1="4.2603" x2="29.4139" x1="54.8386" style="fill:none;"/><line y2="3.2911" y1="7.7086" x2="28.8154" x1="54.2394" style="fill:none;"/><line y2="-9.408" y1="-1.005" x2="-35.337" x1="-8.97" style="fill:none;"/><line y2="-16.767" y1="-1.005" x2="17.367" x1="-8.97" style="fill:none;"/><line y2="24.903" y1="-1.005" x2="-6.096" x1="-8.97" style="fill:none; clip-path:url(#clipPath_d64e66be33be47cdaebbe1667b51c4f01);"/><line y2="17.262" y1="-9.408" x2="8.367" x1="-35.337" style="fill:none;"/><line y2="1.875" y1="-16.767" x2="30.888" x1="17.367" style="fill:none;"/><line y2="46.158" y1="24.903" x2="7.326" x1="-6.096" style="fill:none;"/><line y2="1.875" y1="17.262" x2="30.888" x1="8.367" style="fill:none;"/><line y2="46.158" y1="17.262" x2="7.326" x1="8.367" style="fill:none;"/></g><g transform="translate(64,54)" style="fill:rgb(230,0,0); text-rendering:geometricPrecision; color-rendering:optimizeQuality; image-rendering:optimizeQuality; font-family:'Open Sans'; stroke:rgb(230,0,0); color-interpolation:linearRGB;"><path style="stroke:none;" d="M27.3225 -46.2283 Q27.3225 -44.1658 26.2834 -42.9861 Q25.2444 -41.8064 23.4006 -41.8064 Q21.51 -41.8064 20.4788 -42.9705 Q19.4475 -44.1346 19.4475 -46.2439 Q19.4475 -48.3377 20.4788 -49.4861 Q21.51 -50.6346 23.4006 -50.6346 Q25.26 -50.6346 26.2913 -49.4627 Q27.3225 -48.2908 27.3225 -46.2283 ZM20.4944 -46.2283 Q20.4944 -44.4939 21.2366 -43.5877 Q21.9788 -42.6814 23.4006 -42.6814 Q24.8225 -42.6814 25.5491 -43.5799 Q26.2756 -44.4783 26.2756 -46.2283 Q26.2756 -47.9627 25.5491 -48.8533 Q24.8225 -49.7439 23.4006 -49.7439 Q21.9788 -49.7439 21.2366 -48.8455 Q20.4944 -47.9471 20.4944 -46.2283 Z"/><path style="stroke:none;" d="M64.3845 6.9407 Q64.3845 9.0032 63.3454 10.1829 Q62.3064 11.3626 60.4626 11.3626 Q58.572 11.3626 57.5407 10.1985 Q56.5095 9.0344 56.5095 6.9251 Q56.5095 4.8313 57.5407 3.6829 Q58.572 2.5344 60.4626 2.5344 Q62.322 2.5344 63.3532 3.7063 Q64.3845 4.8782 64.3845 6.9407 ZM57.5564 6.9407 Q57.5564 8.6751 58.2986 9.5813 Q59.0407 10.4876 60.4626 10.4876 Q61.8845 10.4876 62.6111 9.5891 Q63.3376 8.6907 63.3376 6.9407 Q63.3376 5.2063 62.6111 4.3157 Q61.8845 3.4251 60.4626 3.4251 Q59.0407 3.4251 58.2986 4.3235 Q57.5564 5.2219 57.5564 6.9407 Z"/></g><g transform="translate(64,54)" style="stroke-linecap:butt; text-rendering:geometricPrecision; color-rendering:optimizeQuality; image-rendering:optimizeQuality; font-family:'Open Sans'; color-interpolation:linearRGB; stroke-miterlimit:5;"><path style="fill:none;" d="M16.938 -16.5102 L17.367 -16.767 L17.6606 -16.3623"/><path style="fill:none;" d="M-6.1511 24.406 L-6.096 24.903 L-5.829 25.3258"/><path style="fill:none;" d="M30.5944 1.4703 L30.888 1.875 L30.4752 2.1571"/><path style="fill:none;" d="M7.059 45.7352 L7.326 46.158 L7.344 45.6583"/></g></g></svg></svg></svg></svg>