<svg xmlns:ns0="http://www.w3.org/2000/svg" xmlns="http://www.w3.org/2000/svg"><g transform="translate(0, 0)"><ns0:svg width="199" viewBox="0 0 199 174" style="fill-opacity:1; color-rendering:auto; color-interpolation:auto; text-rendering:auto; stroke:black; stroke-linecap:square; stroke-miterlimit:10; shape-rendering:auto; stroke-opacity:1; fill:black; stroke-dasharray:none; font-weight:normal; stroke-width:1; font-family:'Open Sans'; font-style:normal; stroke-linejoin:miter; font-size:12; stroke-dashoffset:0; image-rendering:auto;" height="174" class="cas-substance-image"><ns0:svg class="cas-substance-single-component"><ns0:rect y="0" x="0" width="199" stroke="none" ry="7" rx="7" height="174" fill="white" class="cas-substance-group" /><ns0:svg y="0" x="0" width="199" viewBox="0 0 199 174" style="fill:black;" height="174" class="cas-substance-single-component-image"><ns0:svg><ns0:g><ns0:g transform="translate(99,89)" style="text-rendering:geometricPrecision; color-rendering:optimizeQuality; color-interpolation:linearRGB; stroke-linecap:butt; image-rendering:optimizeQuality;"><ns0:line y2="-29.544" y1="-29.544" x2="-66.171" x1="-96.171" style="fill:none;" /><ns0:line y2="-5.889" y1="4.371" x2="67.98" x1="96.171" style="fill:none;" /><ns0:line y2="-55.524" y1="-75.871" x2="-51.171" x1="-62.9174" style="fill:none;" /><ns0:line y2="-35.433" y1="-50.6733" x2="62.772" x1="80.9333" style="fill:none;" /><ns0:line y2="32.679" y1="22.416" x2="-34.362" x1="-6.171" style="fill:none;" /><ns0:line y2="41.7" y1="22.416" x2="16.809" x1="-6.171" style="fill:none;" /><ns0:line y2="-3.564" y1="22.416" x2="-21.171" x1="-6.171" style="fill:none;" /><ns0:line y2="3.135" y1="22.416" x2="16.809" x1="-6.171" style="fill:none;" /><ns0:line y2="62.223" y1="32.679" x2="-39.573" x1="-34.362" style="fill:none;" /><ns0:line y2="71.244" y1="41.7" x2="11.601" x1="16.809" style="fill:none;" /><ns0:line y2="81.507" y1="62.223" x2="-16.59" x1="-39.573" style="fill:none;" /><ns0:line y2="81.507" y1="71.244" x2="-16.59" x1="11.601" style="fill:none;" /><ns0:line y2="-3.564" y1="-3.564" x2="-51.171" x1="-21.171" style="fill:none;" /><ns0:line y2="-7.064" y1="-7.064" x2="-49.1503" x1="-23.1917" style="fill:none;" /><ns0:line y2="-29.544" y1="-3.564" x2="-6.171" x1="-21.171" style="fill:none;" /><ns0:line y2="-29.544" y1="-3.564" x2="-66.171" x1="-51.171" style="fill:none;" /><ns0:line y2="-55.524" y1="-29.544" x2="-21.171" x1="-6.171" style="fill:none;" /><ns0:line y2="-52.024" y1="-29.5439" x2="-23.1917" x1="-10.2125" style="fill:none;" /><ns0:line y2="-55.524" y1="-29.544" x2="-51.171" x1="-66.171" style="fill:none;" /><ns0:line y2="-52.024" y1="-29.5439" x2="-49.1503" x1="-62.1295" style="fill:none;" /><ns0:line y2="-55.524" y1="-55.524" x2="-51.171" x1="-21.171" style="fill:none;" /><ns0:line y2="13.395" y1="3.135" x2="45" x1="16.809" style="fill:none;" /><ns0:line y2="9.415" y1="0.5371" x2="44.2981" x1="19.9049" style="fill:none;" /><ns0:line y2="-26.412" y1="3.135" x2="11.601" x1="16.809" style="fill:none;" /><ns0:line y2="-5.889" y1="13.395" x2="67.98" x1="45" style="fill:none;" /><ns0:line y2="-45.693" y1="-26.412" x2="34.581" x1="11.601" style="fill:none;" /><ns0:line y2="-41.7129" y1="-25.0296" x2="35.2826" x1="15.3987" style="fill:none;" /><ns0:line y2="-35.433" y1="-5.889" x2="62.772" x1="67.98" style="fill:none;" /><ns0:line y2="-32.8353" y1="-7.2714" x2="59.676" x1="64.1823" style="fill:none;" /><ns0:line y2="-35.433" y1="-45.693" x2="62.772" x1="34.581" style="fill:none;" /></ns0:g><ns0:g transform="translate(99,89)" style="fill:rgb(230,0,0); text-rendering:geometricPrecision; color-rendering:optimizeQuality; image-rendering:optimizeQuality; font-family:'Open Sans'; stroke:rgb(230,0,0); color-interpolation:linearRGB;"><ns0:path style="stroke:none;" d="M-62.2335 -81.5773 Q-62.2335 -79.5148 -63.2726 -78.3351 Q-64.3116 -77.1554 -66.1554 -77.1554 Q-68.046 -77.1554 -69.0772 -78.3195 Q-70.1085 -79.4836 -70.1085 -81.5929 Q-70.1085 -83.6867 -69.0772 -84.8351 Q-68.046 -85.9836 -66.1554 -85.9836 Q-64.296 -85.9836 -63.2647 -84.8117 Q-62.2335 -83.6398 -62.2335 -81.5773 ZM-69.0616 -81.5773 Q-69.0616 -79.8429 -68.3194 -78.9367 Q-67.5772 -78.0304 -66.1554 -78.0304 Q-64.7335 -78.0304 -64.0069 -78.9289 Q-63.2804 -79.8273 -63.2804 -81.5773 Q-63.2804 -83.3117 -64.0069 -84.2023 Q-64.7335 -85.0929 -66.1554 -85.0929 Q-67.5772 -85.0929 -68.3194 -84.1945 Q-69.0616 -83.2961 -69.0616 -81.5773 Z" /><ns0:path style="stroke:none;" d="M-71.1085 -77.2804 L-72.1085 -77.2804 L-72.1085 -81.3117 L-76.6241 -81.3117 L-76.6241 -77.2804 L-77.6241 -77.2804 L-77.6241 -85.8429 L-76.6241 -85.8429 L-76.6241 -82.2023 L-72.1085 -82.2023 L-72.1085 -85.8429 L-71.1085 -85.8429 L-71.1085 -77.2804 Z" /><ns0:path style="stroke:none;" d="M89.6895 -54.7873 Q89.6895 -52.7248 88.6504 -51.5451 Q87.6114 -50.3654 85.7676 -50.3654 Q83.877 -50.3654 82.8458 -51.5295 Q81.8145 -52.6936 81.8145 -54.8029 Q81.8145 -56.8967 82.8458 -58.0451 Q83.877 -59.1936 85.7676 -59.1936 Q87.627 -59.1936 88.6583 -58.0217 Q89.6895 -56.8498 89.6895 -54.7873 ZM82.8614 -54.7873 Q82.8614 -53.0529 83.6036 -52.1467 Q84.3458 -51.2404 85.7676 -51.2404 Q87.1895 -51.2404 87.9161 -52.1389 Q88.6426 -53.0373 88.6426 -54.7873 Q88.6426 -56.5217 87.9161 -57.4123 Q87.1895 -58.3029 85.7676 -58.3029 Q84.3458 -58.3029 83.6036 -57.4045 Q82.8614 -56.5061 82.8614 -54.7873 Z" /><ns0:path style="stroke:none;" d="M97.2051 -50.4904 L96.2051 -50.4904 L96.2051 -54.5217 L91.6895 -54.5217 L91.6895 -50.4904 L90.6895 -50.4904 L90.6895 -59.0529 L91.6895 -59.0529 L91.6895 -55.4123 L96.2051 -55.4123 L96.2051 -59.0529 L97.2051 -59.0529 L97.2051 -50.4904 Z" /></ns0:g><ns0:g transform="translate(99,89)" style="stroke-linecap:butt; text-rendering:geometricPrecision; color-rendering:optimizeQuality; image-rendering:optimizeQuality; font-family:'Open Sans'; color-interpolation:linearRGB; stroke-miterlimit:5;"><ns0:path style="fill:none;" d="M-33.8922 32.508 L-34.362 32.679 L-34.4488 33.1714" /><ns0:path style="fill:none;" d="M16.426 41.3786 L16.809 41.7 L16.7222 42.1924" /><ns0:path style="fill:none;" d="M-39.4862 61.7306 L-39.573 62.223 L-39.19 62.5444" /><ns0:path style="fill:none;" d="M11.6878 70.7516 L11.601 71.244 L11.1312 71.415" /><ns0:path style="fill:none;" d="M-16.973 81.1856 L-16.59 81.507 L-16.1202 81.336" /><ns0:path style="fill:none;" d="M-21.671 -3.564 L-21.171 -3.564 L-20.921 -3.131" /><ns0:path style="fill:none;" d="M-50.671 -3.564 L-51.171 -3.564 L-51.421 -3.997" /><ns0:path style="fill:none;" d="M-6.421 -29.111 L-6.171 -29.544 L-6.421 -29.977" /><ns0:path style="fill:none;" d="M-65.921 -29.977 L-66.171 -29.544 L-66.671 -29.544" /><ns0:path style="fill:none;" d="M-20.921 -55.091 L-21.171 -55.524 L-21.671 -55.524" /><ns0:path style="fill:none;" d="M-51.421 -55.091 L-51.171 -55.524 L-51.421 -55.957" /><ns0:path style="fill:none;" d="M17.2789 3.306 L16.809 3.135 L16.426 3.4564" /><ns0:path style="fill:none;" d="M44.5302 13.224 L45 13.395 L45.383 13.0736" /><ns0:path style="fill:none;" d="M11.6878 -25.9196 L11.601 -26.412 L11.984 -26.7334" /><ns0:path style="fill:none;" d="M67.8932 -6.3814 L67.98 -5.889 L68.4499 -5.718" /><ns0:path style="fill:none;" d="M34.198 -45.3716 L34.581 -45.693 L35.0508 -45.522" /><ns0:path style="fill:none;" d="M62.8588 -34.9406 L62.772 -35.433 L62.3022 -35.604" /></ns0:g></ns0:g></ns0:svg></ns0:svg></ns0:svg></ns0:svg></g></svg>