<svg width="100" viewBox="0 0 100 15" style="fill-opacity:1; color-rendering:auto; color-interpolation:auto; text-rendering:auto; stroke:black; stroke-linecap:square; stroke-miterlimit:10; shape-rendering:auto; stroke-opacity:1; fill:black; stroke-dasharray:none; font-weight:normal; stroke-width:1; font-family:'Open Sans'; font-style:normal; stroke-linejoin:miter; font-size:12; stroke-dashoffset:0; image-rendering:auto;" height="15" class="cas-substance-image" xmlns:xlink="http://www.w3.org/1999/xlink" xmlns="http://www.w3.org/2000/svg"><svg class="cas-substance-single-component"><rect y="0" x="0" width="100" stroke="none" ry="7" rx="7" height="15" fill="white" class="cas-substance-group"/><svg y="0" x="13" width="74" viewBox="0 0 74 15" style="fill:black;" height="15" class="cas-substance-single-component-image"><svg><g><g transform="translate(37,8)" style="text-rendering:geometricPrecision; color-rendering:optimizeQuality; color-interpolation:linearRGB; stroke-linecap:butt; image-rendering:optimizeQuality;"><line y2="0" y1="0" x2="-23.582" x1="-6.3486" style="fill:none;"/><line y2="1.75" y1="1.75" x2="24.0625" x1="6.3062" style="fill:none;"/><line y2="-1.75" y1="-1.75" x2="24.0625" x1="6.3062" style="fill:none;"/><path style="stroke-linecap:square; stroke:none;" d="M-4.3486 -4.2812 L-1.9268 -4.2812 Q-0.2236 -4.2812 0.542 -3.7734 Q1.3076 -3.2656 1.3076 -2.1719 Q1.3076 -1.4062 0.8857 -0.9062 Q0.4639 -0.4062 -0.3643 -0.2656 L-0.3643 -0.2031 Q1.5889 0.125 1.5889 1.8438 Q1.5889 2.9844 0.8154 3.6328 Q0.042 4.2812 -1.3486 4.2812 L-4.3486 4.2812 L-4.3486 -4.2812 ZM-3.3486 -0.625 L-1.708 -0.625 Q-0.6455 -0.625 -0.1846 -0.9531 Q0.2764 -1.2812 0.2764 -2.0625 Q0.2764 -2.7812 -0.2393 -3.1016 Q-0.7549 -3.4219 -1.8799 -3.4219 L-3.3486 -3.4219 L-3.3486 -0.625 ZM-3.3486 0.2188 L-3.3486 3.4375 L-1.5518 3.4375 Q-0.5205 3.4375 0.0029 3.0312 Q0.5264 2.625 0.5264 1.7656 Q0.5264 0.9688 -0.0127 0.5938 Q-0.5518 0.2188 -1.6455 0.2188 L-3.3486 0.2188 ZM4.2549 4.2812 L3.2861 4.2812 L3.2861 -2.1406 L4.2549 -2.1406 L4.2549 4.2812 ZM3.208 -3.875 Q3.208 -4.2188 3.3721 -4.375 Q3.5361 -4.5312 3.7861 -4.5312 Q4.0205 -4.5312 4.1846 -4.3672 Q4.3486 -4.2031 4.3486 -3.875 Q4.3486 -3.5469 4.1846 -3.3906 Q4.0205 -3.2344 3.7861 -3.2344 Q3.5361 -3.2344 3.3721 -3.3906 Q3.208 -3.5469 3.208 -3.875 Z"/></g><g transform="translate(37,8)" style="fill:rgb(0,138,0); text-rendering:geometricPrecision; color-rendering:optimizeQuality; image-rendering:optimizeQuality; font-family:'Open Sans'; stroke:rgb(0,138,0); color-interpolation:linearRGB;"><path style="stroke:none;" d="M-30.3086 -3.3594 Q-31.7148 -3.3594 -32.5352 -2.4219 Q-33.3555 -1.4844 -33.3555 0.1562 Q-33.3555 1.8281 -32.5664 2.75 Q-31.7773 3.6719 -30.3242 3.6719 Q-29.418 3.6719 -28.2773 3.3438 L-28.2773 4.2188 Q-29.168 4.5625 -30.4648 4.5625 Q-32.3555 4.5625 -33.3867 3.4062 Q-34.418 2.25 -34.418 0.1406 Q-34.418 -1.1875 -33.9258 -2.1797 Q-33.4336 -3.1719 -32.4961 -3.7109 Q-31.5586 -4.25 -30.293 -4.25 Q-28.9492 -4.25 -27.9336 -3.7656 L-28.3555 -2.9062 Q-29.3398 -3.3594 -30.3086 -3.3594 ZM-25.582 4.4375 L-26.5508 4.4375 L-26.5508 -4.6875 L-25.582 -4.6875 L-25.582 4.4375 Z"/><path style="fill:rgb(230,0,0); stroke:none;" d="M33.9375 -0.0703 Q33.9375 1.9922 32.8984 3.1719 Q31.8594 4.3516 30.0156 4.3516 Q28.125 4.3516 27.0938 3.1875 Q26.0625 2.0234 26.0625 -0.0859 Q26.0625 -2.1797 27.0938 -3.3281 Q28.125 -4.4766 30.0156 -4.4766 Q31.875 -4.4766 32.9062 -3.3047 Q33.9375 -2.1328 33.9375 -0.0703 ZM27.1094 -0.0703 Q27.1094 1.6641 27.8516 2.5703 Q28.5938 3.4766 30.0156 3.4766 Q31.4375 3.4766 32.1641 2.5781 Q32.8906 1.6797 32.8906 -0.0703 Q32.8906 -1.8047 32.1641 -2.6953 Q31.4375 -3.5859 30.0156 -3.5859 Q28.5938 -3.5859 27.8516 -2.6875 Q27.1094 -1.7891 27.1094 -0.0703 Z"/></g></g></svg></svg></svg></svg>