<svg width="209" viewBox="0 0 209 94" style="fill-opacity:1; color-rendering:auto; color-interpolation:auto; text-rendering:auto; stroke:black; stroke-linecap:square; stroke-miterlimit:10; shape-rendering:auto; stroke-opacity:1; fill:black; stroke-dasharray:none; font-weight:normal; stroke-width:1; font-family:'Open Sans'; font-style:normal; stroke-linejoin:miter; font-size:12; stroke-dashoffset:0; image-rendering:auto;" height="94" class="cas-substance-image" xmlns:xlink="http://www.w3.org/1999/xlink" xmlns="http://www.w3.org/2000/svg"><svg class="cas-substance-single-component"><rect y="0" x="0" width="209" stroke="none" ry="7" rx="7" height="94" fill="white" class="cas-substance-group"/><svg y="0" x="0" width="209" viewBox="0 0 209 94" style="fill:black;" height="94" class="cas-substance-single-component-image"><svg><g><g transform="translate(99,41)" style="text-rendering:geometricPrecision; color-rendering:optimizeQuality; color-interpolation:linearRGB; stroke-linecap:butt; image-rendering:optimizeQuality;"><line y2="-15.714" y1="-24.984" x2="44.673" x1="16.14" style="fill:none;"/><line y2="-4.911" y1="-24.984" x2="-6.153" x1="16.14" style="fill:none;"/><line y2="-35.787" y1="-15.714" x2="66.966" x1="44.673" style="fill:none;"/><line y2="-28.4142" y1="-35.787" x2="89.6594" x1="66.966" style="fill:none;"/><line y2="-4.911" y1="-11.148" x2="-6.153" x1="-35.499" style="fill:none;"/><line y2="14.835" y1="-11.148" x2="-50.499" x1="-35.499" style="fill:none;"/><line y2="-37.128" y1="-11.148" x2="-50.499" x1="-35.499" style="fill:none;"/><line y2="-33.628" y1="-11.1479" x2="-52.5197" x1="-39.5405" style="fill:none;"/><line y2="24.927" y1="-4.911" x2="-3.018" x1="-6.153" style="fill:none;"/><line y2="23.2831" y1="-2.5356" x2="-6.71" x1="-9.4227" style="fill:none;"/><line y2="31.9201" y1="14.835" x2="-35.1129" x1="-50.499" style="fill:none;"/><line y2="14.835" y1="14.835" x2="-80.499" x1="-50.499" style="fill:none;"/><line y2="11.335" y1="11.335" x2="-78.4783" x1="-52.5197" style="fill:none;"/><line y2="-37.128" y1="-37.128" x2="-80.499" x1="-50.499" style="fill:none;"/><line y2="34.8224" y1="24.927" x2="-25.2443" x1="-3.018" style="fill:none;"/><line y2="-11.148" y1="14.835" x2="-95.499" x1="-80.499" style="fill:none;"/><line y2="-11.148" y1="-37.128" x2="-95.499" x1="-80.499" style="fill:none;"/><line y2="-11.1479" y1="-33.628" x2="-91.4576" x1="-78.4783" style="fill:none;"/><path style="fill:none; stroke-miterlimit:5;" d="M16.6155 -24.8295 L16.14 -24.984 L15.7684 -24.6494"/><path style="fill:none; stroke-miterlimit:5;" d="M44.1975 -15.8685 L44.673 -15.714 L45.0446 -16.0486"/><path style="fill:none; stroke-miterlimit:5;" d="M66.5944 -35.4524 L66.966 -35.787 L67.4415 -35.6325"/></g><g transform="translate(99,41)" style="stroke-linecap:butt; fill:rgb(230,0,0); text-rendering:geometricPrecision; color-rendering:optimizeQuality; image-rendering:optimizeQuality; font-family:'Open Sans'; stroke:rgb(230,0,0); color-interpolation:linearRGB; stroke-miterlimit:5;"><path style="stroke:none;" d="M99.4365 -26.5873 Q99.4365 -24.5248 98.3974 -23.3451 Q97.3584 -22.1654 95.5146 -22.1654 Q93.624 -22.1654 92.5928 -23.3295 Q91.5615 -24.4936 91.5615 -26.6029 Q91.5615 -28.6967 92.5928 -29.8451 Q93.624 -30.9936 95.5146 -30.9936 Q97.374 -30.9936 98.4053 -29.8217 Q99.4365 -28.6498 99.4365 -26.5873 ZM92.6084 -26.5873 Q92.6084 -24.8529 93.3506 -23.9467 Q94.0928 -23.0404 95.5146 -23.0404 Q96.9365 -23.0404 97.6631 -23.9389 Q98.3896 -24.8373 98.3896 -26.5873 Q98.3896 -28.3217 97.6631 -29.2123 Q96.9365 -30.1029 95.5146 -30.1029 Q94.0928 -30.1029 93.3506 -29.2045 Q92.6084 -28.3061 92.6084 -26.5873 Z"/><path style="stroke:none;" d="M106.9521 -22.2904 L105.9521 -22.2904 L105.9521 -26.3217 L101.4365 -26.3217 L101.4365 -22.2904 L100.4365 -22.2904 L100.4365 -30.8529 L101.4365 -30.8529 L101.4365 -27.2123 L105.9521 -27.2123 L105.9521 -30.8529 L106.9521 -30.8529 L106.9521 -22.2904 Z"/><path style="fill:none; stroke:black;" d="M-35.749 -11.581 L-35.499 -11.148 L-35.0099 -11.0441"/><path style="fill:none; stroke:black;" d="M-6.1008 -4.4137 L-6.153 -4.911 L-5.7814 -5.2456"/><path style="fill:none; stroke:black;" d="M-50.999 14.835 L-50.499 14.835 L-50.249 14.402"/><path style="fill:none; stroke:black;" d="M-50.249 -36.695 L-50.499 -37.128 L-50.999 -37.128"/><path style="fill:none; stroke:black;" d="M-3.0702 24.4297 L-3.018 24.927 L-3.4748 25.1304"/><path style="fill:rgb(0,5,255); stroke:none;" d="M-27.0714 41.2842 L-28.2121 41.2842 L-32.8996 34.0967 L-32.9464 34.0967 Q-32.8527 35.3624 -32.8527 36.4092 L-32.8527 41.2842 L-33.7746 41.2842 L-33.7746 32.7217 L-32.6496 32.7217 L-27.9777 39.878 L-27.9308 39.878 Q-27.9308 39.7217 -27.9777 38.8624 Q-28.0246 38.003 -28.0089 37.628 L-28.0089 32.7217 L-27.0714 32.7217 L-27.0714 41.2842 Z"/><path style="fill:rgb(0,5,255); stroke:none;" d="M-27.1652 50.8467 L-28.1652 50.8467 L-28.1652 46.8155 L-32.6808 46.8155 L-32.6808 50.8467 L-33.6808 50.8467 L-33.6808 42.2842 L-32.6808 42.2842 L-32.6808 45.9249 L-28.1652 45.9249 L-28.1652 42.2842 L-27.1652 42.2842 L-27.1652 50.8467 Z"/><path style="fill:none; stroke:black;" d="M-79.999 14.835 L-80.499 14.835 L-80.749 14.402"/><path style="fill:none; stroke:black;" d="M-79.999 -37.128 L-80.499 -37.128 L-80.749 -36.695"/><path style="fill:none; stroke:black;" d="M-95.249 -10.715 L-95.499 -11.148 L-95.249 -11.581"/></g></g></svg></svg></svg></svg>