<svg xmlns:ns0="http://www.w3.org/2000/svg" xmlns="http://www.w3.org/2000/svg"><g transform="translate(0, 0)"><ns0:svg width="106" viewBox="0 0 106 91" style="fill-opacity:1; color-rendering:auto; color-interpolation:auto; text-rendering:auto; stroke:black; stroke-linecap:square; stroke-miterlimit:10; shape-rendering:auto; stroke-opacity:1; fill:black; stroke-dasharray:none; font-weight:normal; stroke-width:1; font-family:'Open Sans'; font-style:normal; stroke-linejoin:miter; font-size:12; stroke-dashoffset:0; image-rendering:auto;" height="91" class="cas-substance-image"><ns0:svg class="cas-substance-single-component"><ns0:rect y="0" x="0" width="106" stroke="none" ry="7" rx="7" height="91" fill="white" class="cas-substance-group" /><ns0:svg y="0" x="0" width="106" viewBox="0 0 106 91" style="fill:black;" height="91" class="cas-substance-single-component-image"><ns0:svg><ns0:g><ns0:g transform="translate(51,46)" style="text-rendering:geometricPrecision; color-rendering:optimizeQuality; color-interpolation:linearRGB; stroke-linecap:butt; image-rendering:optimizeQuality;"><ns0:line y2="-10.141" y1="-10.141" x2="17.0161" x1="41.9215" style="fill:none;" /><ns0:line y2="-6.641" y1="-6.641" x2="17.0162" x1="41.9215" style="fill:none;" /><ns0:line y2="24.3589" y1="42.093" x2="9.4037" x1="23.547" style="fill:none;" /><ns0:line y2="12.4308" y1="-8.391" x2="7.8317" x1="17.859" style="fill:none;" /><ns0:line y2="-35.418" y1="-8.391" x2="4.842" x1="17.859" style="fill:none;" /><ns0:line y2="25.314" y1="19.8489" x2="-24.405" x1="-0.4594" style="fill:none;" /><ns0:line y2="-42.093" y1="-35.418" x2="-24.405" x1="4.842" style="fill:none;" /><ns0:line y2="6.609" y1="25.314" x2="-47.859" x1="-24.405" style="fill:none;" /><ns0:line y2="-23.391" y1="-42.093" x2="-47.859" x1="-24.405" style="fill:none;" /><ns0:line y2="-23.391" y1="6.609" x2="-47.859" x1="-47.859" style="fill:none;" /></ns0:g><ns0:g transform="translate(51,46)" style="fill:rgb(230,0,0); text-rendering:geometricPrecision; color-rendering:optimizeQuality; image-rendering:optimizeQuality; font-family:'Open Sans'; stroke:rgb(230,0,0); color-interpolation:linearRGB;"><ns0:path style="stroke:none;" d="M51.7965 -8.4613 Q51.7965 -6.3988 50.7574 -5.2191 Q49.7184 -4.0394 47.8746 -4.0394 Q45.984 -4.0394 44.9527 -5.2035 Q43.9215 -6.3676 43.9215 -8.4769 Q43.9215 -10.5707 44.9527 -11.7191 Q45.984 -12.8676 47.8746 -12.8676 Q49.734 -12.8676 50.7652 -11.6957 Q51.7965 -10.5238 51.7965 -8.4613 ZM44.9684 -8.4613 Q44.9684 -6.7269 45.7106 -5.8207 Q46.4527 -4.9144 47.8746 -4.9144 Q49.2965 -4.9144 50.0231 -5.8129 Q50.7496 -6.7113 50.7496 -8.4613 Q50.7496 -10.1957 50.0231 -11.0863 Q49.2965 -11.9769 47.8746 -11.9769 Q46.4527 -11.9769 45.7106 -11.0785 Q44.9684 -10.1801 44.9684 -8.4613 Z" /></ns0:g><ns0:g transform="translate(51,46)" style="stroke-linecap:butt; text-rendering:geometricPrecision; color-rendering:optimizeQuality; image-rendering:optimizeQuality; font-family:'Open Sans'; color-interpolation:linearRGB; stroke-miterlimit:5;"><ns0:path style="fill:none;" d="M17.6421 -7.9405 L17.859 -8.391 L17.642 -8.8415" /><ns0:path style="fill:rgb(0,5,255); stroke:none;" d="M8.1936 22.7952 L7.0529 22.7952 L2.3654 15.6077 L2.3186 15.6077 Q2.4123 16.8734 2.4123 17.9202 L2.4123 22.7952 L1.4904 22.7952 L1.4904 14.2327 L2.6154 14.2327 L7.2873 21.389 L7.3342 21.389 Q7.3342 21.2327 7.2873 20.3734 Q7.2404 19.514 7.2561 19.139 L7.2561 14.2327 L8.1936 14.2327 L8.1936 22.7952 Z" /><ns0:path style="fill:none;" d="M5.059 -34.9675 L4.842 -35.418 L4.3545 -35.5293" /><ns0:path style="fill:none;" d="M-23.9175 25.2027 L-24.405 25.314 L-24.7959 25.0022" /><ns0:path style="fill:none;" d="M-23.9175 -41.9818 L-24.405 -42.093 L-24.7959 -41.7813" /><ns0:path style="fill:none;" d="M-47.4681 6.9208 L-47.859 6.609 L-47.859 6.109" /><ns0:path style="fill:none;" d="M-47.4681 -23.7027 L-47.859 -23.391 L-47.859 -22.891" /></ns0:g></ns0:g></ns0:svg></ns0:svg></ns0:svg></ns0:svg></g></svg>