<svg width="671" viewBox="0 0 671 240" style="fill-opacity:1; color-rendering:auto; color-interpolation:auto; text-rendering:auto; stroke:black; stroke-linecap:square; stroke-miterlimit:10; shape-rendering:auto; stroke-opacity:1; fill:black; stroke-dasharray:none; font-weight:normal; stroke-width:1; font-family:'Open Sans'; font-style:normal; stroke-linejoin:miter; font-size:12; stroke-dashoffset:0; image-rendering:auto;" height="240" class="cas-substance-image" xmlns:xlink="http://www.w3.org/1999/xlink" xmlns="http://www.w3.org/2000/svg"><svg class="cas-substance-single-component"><rect y="0" x="0" width="671" stroke="none" ry="7" rx="7" height="240" fill="white" class="cas-substance-group"/><svg y="0" x="0" width="671" viewBox="0 0 671 240" style="fill:black;" height="240" class="cas-substance-single-component-image"><svg><g><g transform="translate(339,120)" style="text-rendering:geometricPrecision; color-rendering:optimizeQuality; color-interpolation:linearRGB; stroke-linecap:butt; image-rendering:optimizeQuality;"><path style="stroke:none;" d="M-20.6656 -21.4344 L-21.479 -20.8426 L-18.6724 -15.9757 L-18.6724 -15.9757 L-17.7533 -16.3842 L-17.7533 -16.3842 L-20.6656 -21.4344 ZM-23.1058 -19.6588 L-23.9191 -19.0669 L-21.4299 -14.7503 L-20.5107 -15.1588 L-20.5107 -15.1588 L-23.1058 -19.6588 ZM-25.5459 -17.8832 L-26.3593 -17.2913 L-24.1874 -13.525 L-24.1874 -13.525 L-23.2682 -13.9334 L-25.5459 -17.8832 ZM-27.9861 -16.1075 L-28.7995 -15.5157 L-26.9449 -12.2996 L-26.0257 -12.7081 L-27.9861 -16.1075 ZM-30.4263 -14.3319 L-31.2397 -13.74 L-29.7024 -11.0742 L-29.7024 -11.0742 L-28.7832 -11.4827 L-28.7832 -11.4827 L-30.4263 -14.3319 ZM-32.8665 -12.5563 L-33.6798 -11.9644 L-33.6798 -11.9644 L-32.4599 -9.8489 L-31.5407 -10.2573 L-32.8665 -12.5563 ZM-35.3066 -10.7806 L-36.12 -10.1888 L-35.2174 -8.6235 L-35.2174 -8.6235 L-34.2982 -9.0319 L-34.2982 -9.0319 L-35.3066 -10.7806 ZM-37.7468 -9.005 L-38.5602 -8.4131 L-37.9749 -7.3981 L-37.9749 -7.3981 L-37.0557 -7.8066 L-37.7468 -9.005 Z"/><path style="stroke:none;" d="M-5.3238 -21.4387 L-8.2351 -16.3901 L-8.2351 -16.3901 L-7.316 -15.9816 L-7.316 -15.9816 L-4.5103 -20.8469 L-4.5103 -20.8469 L-5.3238 -21.4387 ZM-2.8835 -19.6633 L-5.4777 -15.1645 L-5.4777 -15.1645 L-4.5586 -14.756 L-4.5586 -14.756 L-2.07 -19.0715 L-2.07 -19.0715 L-2.8835 -19.6633 ZM-0.4431 -17.8879 L-2.7204 -13.9389 L-2.7204 -13.9389 L-1.8013 -13.5304 L-1.8013 -13.5304 L0.3703 -17.2961 L0.3703 -17.2961 L-0.4431 -17.8879 ZM1.9972 -16.1125 L0.037 -12.7133 L0.9561 -12.3048 L0.9561 -12.3048 L2.8106 -15.5207 L2.8106 -15.5207 L1.9972 -16.1125 ZM4.4375 -14.3371 L2.7943 -11.4877 L2.7943 -11.4877 L3.7135 -11.0792 L3.7135 -11.0792 L5.2509 -13.7453 L4.4375 -14.3371 ZM6.8778 -12.5617 L5.5517 -10.2621 L5.5517 -10.2621 L6.4708 -9.8536 L6.4708 -9.8536 L7.6912 -11.9699 L7.6912 -11.9699 L6.8778 -12.5617 ZM9.3181 -10.7863 L8.309 -9.0365 L8.309 -9.0365 L9.2282 -8.628 L9.2282 -8.628 L10.1315 -10.1945 L10.1315 -10.1945 L9.3181 -10.7863 ZM11.7584 -9.0109 L11.0664 -7.8109 L11.0664 -7.8109 L11.9855 -7.4023 L11.9855 -7.4023 L12.5719 -8.4191 L12.5719 -8.4191 L11.7584 -9.0109 Z"/><line y2="-67.5" y1="-55.4351" x2="-90.933" x1="-70.0366" style="fill:none;"/><path style="stroke:none;" d="M-64.453 -22.5 L-65.453 -22.5 L-67.953 -46.3438 L-61.953 -46.3438 Z"/><line y2="-97.5" y1="-67.5" x2="-90.933" x1="-90.933" style="fill:none;"/><line y2="-57.2416" y1="-69.5207" x2="-112.2005" x1="-90.933" style="fill:none;"/><line y2="-54.2105" y1="-66.4896" x2="-110.4505" x1="-89.183" style="fill:none;"/><path style="stroke:none;" d="M-109.2468 -21.4387 L-112.1581 -16.3902 L-111.239 -15.9816 L-108.4333 -20.8469 L-109.2468 -21.4387 ZM-106.8065 -19.6633 L-109.4007 -15.1645 L-108.4816 -14.756 L-105.993 -19.0715 L-106.8065 -19.6633 ZM-104.3661 -17.8879 L-106.6434 -13.9389 L-105.7243 -13.5304 L-103.5527 -17.2961 L-103.5527 -17.2961 L-104.3661 -17.8879 ZM-101.9258 -16.1125 L-103.886 -12.7133 L-102.9669 -12.3048 L-102.9669 -12.3048 L-101.1124 -15.5207 L-101.1124 -15.5207 L-101.9258 -16.1125 ZM-99.4855 -14.3371 L-101.1287 -11.4877 L-100.2095 -11.0792 L-98.6721 -13.7453 L-99.4855 -14.3371 ZM-97.0452 -12.5617 L-98.3713 -10.2621 L-97.4522 -9.8536 L-96.2318 -11.9699 L-97.0452 -12.5617 ZM-94.6049 -10.7863 L-95.614 -9.0365 L-94.6948 -8.628 L-93.7915 -10.1945 L-94.6049 -10.7863 ZM-92.1646 -9.0109 L-92.8566 -7.8109 L-91.9375 -7.4023 L-91.9375 -7.4023 L-91.3511 -8.4191 L-92.1646 -9.0109 Z"/><line y2="79.274" y1="67.5" x2="-85.3455" x1="-64.953" style="fill:none;"/><path style="stroke:none;" d="M-65.5318 38.5 L-65.6106 39.5 L-64.2761 39.5 L-64.3646 38.5 ZM-65.7681 41.5 L-65.8469 42.5 L-64.0108 42.5 L-64.0992 41.5 ZM-66.0045 44.5 L-66.0833 45.5 L-63.7455 45.5 L-63.8339 44.5 ZM-66.2409 47.5 L-66.3196 48.5 L-63.4802 48.5 L-63.5686 47.5 ZM-66.4772 50.5 L-66.556 51.5 L-63.2148 51.5 L-63.3033 50.5 ZM-66.7136 53.5 L-66.7923 54.5 L-62.9495 54.5 L-63.038 53.5 ZM-66.9499 56.5 L-67.0287 57.5 L-62.6842 57.5 L-62.7727 56.5 ZM-67.1863 59.5 L-67.265 60.5 L-62.4189 60.5 L-62.5073 59.5 ZM-67.4226 62.5 L-67.5014 63.5 L-62.1536 63.5 L-62.242 62.5 ZM-67.659 65.5 L-67.7378 66.5 L-63.221 66.5 L-61.953 65.7679 L-61.9767 65.5 Z"/><path style="stroke:none;" d="M-91.183 22.067 L-90.683 22.933 L-109.8255 36.872 L-112.8255 31.6759 Z"/><path style="stroke:none;" d="M-143.143 22.933 L-142.643 22.067 L-121.0271 31.6605 L-124.0272 36.8566 Z"/><line y2="-64.3214" y1="-52.5" x2="18.4954" x1="38.97" style="fill:none;"/><path style="stroke:none;" d="M39.47 -22.5 L38.47 -22.5 L36.22 -54.6651 L42.22 -51.2009 Z"/><path style="stroke:none;" d="M12.74 22.067 L13.24 22.933 L-5.9025 36.872 L-8.9025 31.6759 Z"/><line y2="82.5" y1="70.4348" x2="64.953" x1="44.0537" style="fill:none;"/><path style="stroke:none;" d="M38.3856 38.2969 L38.2796 39.2969 L39.6604 39.2969 L39.5544 38.2969 ZM38.0677 41.2969 L37.9617 42.2969 L39.9783 42.2969 L39.8723 41.2969 ZM37.7498 44.2969 L37.6438 45.2969 L40.2962 45.2969 L40.1902 44.2969 ZM37.4319 47.2969 L37.326 48.2969 L40.614 48.2969 L40.5081 47.2969 ZM37.114 50.2969 L37.0081 51.2969 L40.9319 51.2969 L40.826 50.2969 ZM36.7962 53.2969 L36.6902 54.2969 L41.2498 54.2969 L41.1438 53.2969 ZM36.4783 56.2969 L36.3723 57.2969 L41.5677 57.2969 L41.4617 56.2969 ZM36.1604 59.2969 L36.0544 60.2969 L41.8856 60.2969 L41.7796 59.2969 Z"/><line y2="67.5" y1="82.5" x2="90.933" x1="64.953" style="fill:none;"/><line y2="106.0234" y1="81.4897" x2="63.203" x1="63.203" style="fill:none;"/><line y2="106.0234" y1="81.4896" x2="66.703" x1="66.703" style="fill:none;"/><path style="stroke:none;" d="M64.703 22.933 L65.203 22.067 L86.8189 31.6605 L83.8188 36.8566 Z"/><path style="stroke:none;" d="M115.952 22.3827 L115.0326 22.7908 L115.7204 23.9835 L116.5336 23.3913 L115.952 22.3827 ZM113.194 23.6072 L112.2746 24.0153 L113.2807 25.76 L114.0939 25.1678 L113.194 23.6072 ZM110.436 24.8317 L109.5166 25.2399 L110.841 27.5365 L111.6543 26.9443 L110.436 24.8317 ZM107.678 26.0562 L106.7586 26.4644 L108.4014 29.313 L109.2146 28.7208 L107.678 26.0562 ZM104.92 27.2807 L104.0006 27.6889 L105.9617 31.0895 L105.9617 31.0895 L106.7749 30.4973 L104.92 27.2807 ZM102.162 28.5052 L101.2427 28.9134 L103.522 32.866 L103.522 32.866 L104.3352 32.2738 L104.3352 32.2738 L102.162 28.5052 ZM99.404 29.7297 L98.4847 30.1379 L101.0823 34.6425 L101.8956 34.0503 L99.404 29.7297 ZM96.646 30.9542 L95.7267 31.3624 L98.6427 36.419 L99.4559 35.8268 L99.4559 35.8268 L96.646 30.9542 Z"/><line y2="82.5" y1="70.4351" x2="-194.856" x1="-173.9596" style="fill:none;"/><path style="stroke:none;" d="M-169.4604 38.2969 L-169.5664 39.2969 L-168.1856 39.2969 L-168.2916 38.2969 ZM-169.7783 41.2969 L-169.8843 42.2969 L-167.8677 42.2969 L-167.9737 41.2969 ZM-170.0962 44.2969 L-170.2022 45.2969 L-167.5499 45.2969 L-167.6558 44.2969 ZM-170.4141 47.2969 L-170.5201 48.2969 L-167.232 48.2969 L-167.3379 47.2969 ZM-170.732 50.2969 L-170.8379 51.2969 L-166.9141 51.2969 L-167.0201 50.2969 ZM-171.0499 53.2969 L-171.1558 54.2969 L-166.5962 54.2969 L-166.7022 53.2969 ZM-171.3677 56.2969 L-171.4737 57.2969 L-166.2783 57.2969 L-166.3843 56.2969 ZM-171.6856 59.2969 L-171.7916 60.2969 L-165.9604 60.2969 L-166.0664 59.2969 Z"/><line y2="67.5" y1="82.5" x2="-220.836" x1="-194.856" style="fill:none;"/><line y2="106.0234" y1="81.4896" x2="-196.606" x1="-196.606" style="fill:none;"/><line y2="106.0234" y1="81.4896" x2="-193.106" x1="-193.106" style="fill:none;"/><path style="stroke:none;" d="M-195.106 22.067 L-194.606 22.933 L-213.7485 36.872 L-216.7485 31.6759 Z"/><line y2="-64.3214" y1="-52.5" x2="-189.3506" x1="-168.876" style="fill:none;"/><path style="stroke:none;" d="M-168.376 -22.5 L-169.376 -22.5 L-171.626 -54.6651 L-165.626 -51.2009 Z"/><path style="stroke:none;" d="M-213.1698 -21.4387 L-216.0811 -16.3901 L-215.162 -15.9816 L-212.3563 -20.8469 L-213.1698 -21.4387 ZM-210.7295 -19.6633 L-213.3237 -15.1645 L-212.4046 -14.756 L-212.4046 -14.756 L-209.916 -19.0715 L-210.7295 -19.6633 ZM-208.2891 -17.8879 L-210.5664 -13.9389 L-209.6473 -13.5304 L-207.4757 -17.2961 L-208.2891 -17.8879 ZM-205.8488 -16.1125 L-207.809 -12.7133 L-206.8899 -12.3048 L-205.0354 -15.5207 L-205.8488 -16.1125 ZM-203.4085 -14.3371 L-205.0517 -11.4877 L-205.0517 -11.4877 L-204.1326 -11.0792 L-202.5951 -13.7453 L-203.4085 -14.3371 ZM-200.9682 -12.5617 L-202.2943 -10.2621 L-201.3752 -9.8536 L-200.1548 -11.9699 L-200.9682 -12.5617 ZM-198.5279 -10.7863 L-199.537 -9.0365 L-198.6178 -8.628 L-197.7145 -10.1945 L-198.5279 -10.7863 ZM-196.0876 -9.0109 L-196.7796 -7.8109 L-195.8605 -7.4023 L-195.2741 -8.4191 L-196.0876 -9.0109 Z"/><path style="stroke:none;" d="M-228.5116 -21.4344 L-229.325 -20.8426 L-226.5184 -15.9757 L-225.5992 -16.3842 L-228.5116 -21.4344 ZM-230.9517 -19.6588 L-231.7651 -19.0669 L-229.2759 -14.7503 L-228.3567 -15.1588 L-230.9517 -19.6588 ZM-233.3919 -17.8832 L-234.2053 -17.2913 L-234.2053 -17.2913 L-232.0334 -13.525 L-231.1142 -13.9334 L-233.3919 -17.8832 ZM-235.8321 -16.1075 L-236.6455 -15.5157 L-236.6455 -15.5157 L-234.7909 -12.2996 L-233.8717 -12.7081 L-235.8321 -16.1075 ZM-238.2723 -14.3319 L-239.0856 -13.74 L-237.5484 -11.0742 L-236.6292 -11.4827 L-238.2723 -14.3319 ZM-240.7124 -12.5563 L-241.5258 -11.9644 L-240.3059 -9.8489 L-239.3867 -10.2573 L-240.7124 -12.5563 ZM-243.1526 -10.7806 L-243.966 -10.1888 L-243.0634 -8.6235 L-243.0634 -8.6235 L-242.1442 -9.0319 L-243.1526 -10.7806 ZM-245.5928 -9.005 L-246.4062 -8.4131 L-245.8209 -7.3981 L-244.9017 -7.8066 L-245.5928 -9.005 Z"/><line y2="-46.1484" y1="-22.5" x2="90.933" x1="90.933" style="fill:none;"/><path style="stroke:none;" d="M117.163 -7.933 L116.663 -7.067 L90.433 -19.0359 L90.433 -25.9641 Z"/><path style="stroke:none;" d="M142.393 37.5 L143.393 37.5 L145.893 61.0234 L139.893 61.0234 Z"/><line y2="67.5" y1="43.6562" x2="194.856" x1="194.856" style="fill:none;"/><path style="stroke:none;" d="M170.1032 22.5038 L169.4934 23.5612 L170.3079 24.1512 L170.3079 24.1512 L171.0212 22.9142 L170.1032 22.5038 ZM172.8573 23.7349 L171.9369 25.3311 L172.7514 25.921 L173.7754 24.1453 L172.8573 23.7349 ZM175.6115 24.9661 L174.3804 27.1009 L174.3804 27.1009 L175.1949 27.6909 L176.5295 25.3765 L175.6115 24.9661 ZM178.3656 26.1973 L176.8239 28.8708 L177.6384 29.4607 L179.2837 26.6077 L178.3656 26.1973 ZM181.1198 27.4284 L179.2674 30.6406 L179.2674 30.6406 L180.0819 31.2306 L182.0378 27.8388 L181.1198 27.4284 ZM183.8739 28.6596 L181.7109 32.4105 L181.7109 32.4105 L182.5254 33.0004 L184.792 29.07 L184.792 29.07 L183.8739 28.6596 ZM186.6281 29.8907 L184.1544 34.1803 L184.9689 34.7703 L187.5462 30.3011 L186.6281 29.8907 ZM189.3822 31.1219 L186.5979 35.9502 L187.4124 36.5401 L190.3003 31.5323 L189.3822 31.1219 Z"/><line y2="82.5" y1="67.5" x2="168.876" x1="194.856" style="fill:none;"/><line y2="80.7741" y1="68.5104" x2="214.3468" x1="193.106" style="fill:none;"/><line y2="77.743" y1="65.4793" x2="216.0969" x1="194.856" style="fill:none;"/><path style="stroke:none;" d="M194.2751 -51.7383 L194.1688 -50.7383 L195.5432 -50.7383 L195.437 -51.7383 ZM193.9562 -48.7383 L193.8499 -47.7383 L195.8621 -47.7383 L195.7558 -48.7383 ZM193.6374 -45.7383 L193.5311 -44.7383 L196.1809 -44.7383 L196.0746 -45.7383 ZM193.3186 -42.7383 L193.2123 -41.7383 L196.4997 -41.7383 L196.3934 -42.7383 ZM192.9997 -39.7383 L192.8934 -38.7383 L196.8186 -38.7383 L196.7123 -39.7383 ZM192.6809 -36.7383 L192.5746 -35.7383 L197.1374 -35.7383 L197.0311 -36.7383 ZM192.3621 -33.7383 L192.2558 -32.7383 L197.4562 -32.7383 L197.3499 -33.7383 ZM192.0432 -30.7383 L191.937 -29.7383 L197.7751 -29.7383 L197.6688 -30.7383 Z"/><path style="stroke:none;" d="M169.126 -7.067 L168.626 -7.933 L187.8329 -21.9092 L190.833 -16.7131 Z"/><line y2="-67.5" y1="-52.5" x2="220.836" x1="194.856" style="fill:none;"/><line y2="-67.5" y1="-52.5" x2="168.876" x1="194.856" style="fill:none;"/><line y2="-52.5" y1="-67.5" x2="246.816" x1="220.836" style="fill:none;"/><path style="stroke:none;" d="M217.9231 -90.3242 L218.0288 -89.3242 L223.6432 -89.3242 L223.7489 -90.3242 ZM218.2403 -87.3242 L218.346 -86.3242 L223.326 -86.3242 L223.4317 -87.3242 ZM218.5574 -84.3242 L218.6631 -83.3242 L223.0089 -83.3242 L223.1146 -84.3242 ZM218.8746 -81.3242 L218.9803 -80.3242 L222.6917 -80.3242 L222.7974 -81.3242 ZM219.1917 -78.3242 L219.2974 -77.3242 L222.3746 -77.3242 L222.4803 -78.3242 ZM219.5089 -75.3242 L219.6146 -74.3242 L222.0574 -74.3242 L222.1631 -75.3242 ZM219.826 -72.3242 L219.9317 -71.3242 L221.7403 -71.3242 L221.846 -72.3242 ZM220.1432 -69.3242 L220.2489 -68.3242 L221.4231 -68.3242 L221.5288 -69.3242 Z"/><line y2="-97.5" y1="-67.5" x2="168.876" x1="168.876" style="fill:none;"/><path style="stroke:none;" d="M167.9138 -67.6168 L166.9945 -67.2087 L167.6823 -66.0159 L168.4956 -66.608 L167.9138 -67.6168 ZM165.1558 -66.3925 L164.2365 -65.9843 L165.2426 -64.2396 L166.0559 -64.8317 L165.1558 -66.3925 ZM162.3978 -65.1681 L161.4785 -64.76 L162.8029 -62.4633 L162.8029 -62.4633 L163.6162 -63.0554 L162.3978 -65.1681 ZM159.6399 -63.9437 L158.7206 -63.5356 L158.7206 -63.5356 L160.3633 -60.687 L161.1765 -61.2791 L159.6399 -63.9437 ZM156.8819 -62.7194 L155.9626 -62.3113 L157.9236 -58.9107 L158.7368 -59.5028 L156.8819 -62.7194 ZM154.1239 -61.495 L153.2046 -61.0869 L155.4839 -57.1344 L155.4839 -57.1344 L156.2971 -57.7265 L156.2971 -57.7265 L154.1239 -61.495 ZM151.366 -60.2706 L150.4466 -59.8625 L153.0441 -55.3581 L153.0441 -55.3581 L153.8574 -55.9502 L151.366 -60.2706 ZM148.608 -59.0463 L147.6886 -58.6382 L147.6886 -58.6382 L150.6045 -53.5819 L151.4177 -54.174 L148.608 -59.0463 Z"/><path style="stroke:none;" d="M247.066 -52.067 L246.566 -52.933 L266.2155 -67.1633 L269.2153 -61.9671 Z"/><line y2="-22.5" y1="-52.5" x2="246.816" x1="246.816" style="fill:none;"/><line y2="-109.3216" y1="-97.5" x2="148.3986" x1="168.876" style="fill:none;"/><line y2="-52.5" y1="-64.5649" x2="298.779" x1="277.8826" style="fill:none;"/><line y2="-10.7411" y1="-22.5" x2="267.1847" x1="246.816" style="fill:none;"/><line y2="-13.7723" y1="-24.5209" x2="268.9346" x1="250.3159" style="fill:none;"/><line y2="-22.5" y1="-52.5" x2="298.779" x1="298.779" style="fill:none;"/><line y2="-62.7956" y1="-50.4793" x2="320.111" x1="298.779" style="fill:none;"/><line y2="-65.8267" y1="-53.5104" x2="318.3609" x1="297.029" style="fill:none;"/><line y2="-67.5" y1="-55.4351" x2="-298.779" x1="-277.8826" style="fill:none;"/><path style="stroke:none;" d="M-272.299 -22.5 L-273.299 -22.5 L-275.799 -46.3438 L-269.799 -46.3438 Z"/><line y2="-52.5" y1="-67.5" x2="-324.759" x1="-298.779" style="fill:none;"/><line y2="-91.1484" y1="-66.4896" x2="-297.029" x1="-297.029" style="fill:none;"/><line y2="-91.1484" y1="-66.4896" x2="-300.529" x1="-300.529" style="fill:none;"/><path style="stroke:none;" d="M-317.0928 -21.4387 L-320.0041 -16.3901 L-319.085 -15.9816 L-316.2793 -20.8469 L-317.0928 -21.4387 ZM-314.6525 -19.6633 L-317.2467 -15.1645 L-316.3276 -14.756 L-313.839 -19.0715 L-314.6525 -19.6633 ZM-312.2122 -17.8879 L-314.4894 -13.9389 L-313.5703 -13.5304 L-311.3987 -17.2961 L-312.2122 -17.8879 ZM-309.7719 -16.1125 L-311.732 -12.7133 L-310.8129 -12.3048 L-308.9584 -15.5207 L-309.7719 -16.1125 ZM-307.3315 -14.3371 L-308.9747 -11.4877 L-308.0555 -11.0792 L-306.5181 -13.7453 L-307.3315 -14.3371 ZM-304.8912 -12.5617 L-306.2173 -10.2621 L-305.2982 -9.8536 L-304.0778 -11.9699 L-304.0778 -11.9699 L-304.8912 -12.5617 ZM-302.4509 -10.7863 L-303.4599 -9.0365 L-302.5408 -8.628 L-301.6375 -10.1945 L-302.4509 -10.7863 ZM-300.0106 -9.0109 L-300.7026 -7.8109 L-299.7835 -7.4023 L-299.1971 -8.4191 L-300.0106 -9.0109 Z"/><line y2="79.274" y1="67.5" x2="-293.1915" x1="-272.799" style="fill:none;"/><path style="stroke:none;" d="M-273.3778 38.5 L-273.4566 39.5 L-272.1221 39.5 L-272.2106 38.5 ZM-273.6141 41.5 L-273.6929 42.5 L-271.8568 42.5 L-271.9453 41.5 ZM-273.8505 44.5 L-273.9293 45.5 L-271.5915 45.5 L-271.6799 44.5 ZM-274.0869 47.5 L-274.1656 48.5 L-271.3262 48.5 L-271.4146 47.5 ZM-274.3232 50.5 L-274.402 51.5 L-271.0609 51.5 L-271.1493 50.5 ZM-274.5596 53.5 L-274.6383 54.5 L-270.7955 54.5 L-270.884 53.5 ZM-274.7959 56.5 L-274.8747 57.5 L-270.5302 57.5 L-270.6187 56.5 ZM-275.0323 59.5 L-275.1111 60.5 L-270.2649 60.5 L-270.3533 59.5 ZM-275.2686 62.5 L-275.3474 63.5 L-269.9996 63.5 L-270.088 62.5 ZM-275.505 65.5 L-275.5838 66.5 L-271.067 66.5 L-269.799 65.7679 L-269.8227 65.5 Z"/><path style="stroke:none;" d="M-299.029 22.067 L-298.529 22.933 L-317.6715 36.872 L-320.6715 31.6759 Z"/><line y2="-22.5" y1="-7.5" x2="-64.953" x1="-38.97" style="fill:none;"/><line y2="16.0234" y1="-7.5" x2="-38.97" x1="-38.97" style="fill:none;"/><line y2="-7.5" y1="-22.5" x2="-90.933" x1="-64.953" style="fill:none;"/><line y2="37.5" y1="25.6886" x2="-64.953" x1="-44.4932" style="fill:none;"/><line y2="22.5" y1="-7.5" x2="-90.933" x1="-90.933" style="fill:none;"/><line y2="22.5" y1="37.5" x2="-90.933" x1="-64.953" style="fill:none;"/><line y2="-22.5" y1="-7.5" x2="38.97" x1="12.99" style="fill:none;"/><line y2="22.5" y1="-7.5" x2="12.99" x1="12.99" style="fill:none;"/><line y2="-10.7412" y1="-22.5" x2="59.3387" x1="38.97" style="fill:none;"/><line y2="37.5" y1="22.5" x2="38.97" x1="12.99" style="fill:none;"/><line y2="22.5" y1="-1.1484" x2="64.953" x1="64.953" style="fill:none;"/><line y2="22.5" y1="37.5" x2="64.953" x1="38.97" style="fill:none;"/><line y2="37.5" y1="22.5" x2="-168.876" x1="-142.893" style="fill:none;"/><line y2="-1.1484" y1="22.5" x2="-142.893" x1="-142.893" style="fill:none;"/><line y2="22.5" y1="37.5" x2="-194.856" x1="-168.876" style="fill:none;"/><line y2="-22.5" y1="-10.7412" x2="-168.876" x1="-148.5073" style="fill:none;"/><line y2="-7.5" y1="22.5" x2="-194.856" x1="-194.856" style="fill:none;"/><line y2="-7.5" y1="-22.5" x2="-194.856" x1="-168.876" style="fill:none;"/><line y2="-7.5" y1="22.5" x2="116.913" x1="116.913" style="fill:none;"/><line y2="37.5" y1="22.5" x2="142.893" x1="116.913" style="fill:none;"/><line y2="-19.3112" y1="-7.5" x2="137.37" x1="116.913" style="fill:none;"/><line y2="22.5" y1="37.5" x2="168.876" x1="142.893" style="fill:none;"/><line y2="-7.5" y1="-19.3216" x2="168.876" x1="148.3986" style="fill:none;"/><line y2="-7.5" y1="22.5" x2="168.876" x1="168.876" style="fill:none;"/><line y2="-22.5" y1="-7.5" x2="-272.799" x1="-246.816" style="fill:none;"/><line y2="16.0234" y1="-7.5" x2="-246.816" x1="-246.816" style="fill:none;"/><line y2="-7.5" y1="-22.5" x2="-298.779" x1="-272.799" style="fill:none;"/><line y2="37.5" y1="25.6886" x2="-272.799" x1="-252.3392" style="fill:none;"/><line y2="22.5" y1="-7.5" x2="-298.779" x1="-298.779" style="fill:none;"/><line y2="22.5" y1="37.5" x2="-298.779" x1="-272.799" style="fill:none;"/></g><g transform="translate(339,120)" style="fill:rgb(230,0,0); text-rendering:geometricPrecision; color-rendering:optimizeQuality; image-rendering:optimizeQuality; font-family:'Open Sans'; stroke:rgb(230,0,0); color-interpolation:linearRGB;"><path style="stroke:none;" d="M-9.0525 -22.5703 Q-9.0525 -20.5078 -10.0916 -19.3281 Q-11.1306 -18.1484 -12.9744 -18.1484 Q-14.865 -18.1484 -15.8962 -19.3125 Q-16.9275 -20.4766 -16.9275 -22.5859 Q-16.9275 -24.6797 -15.8962 -25.8281 Q-14.865 -26.9766 -12.9744 -26.9766 Q-11.115 -26.9766 -10.0837 -25.8047 Q-9.0525 -24.6328 -9.0525 -22.5703 ZM-15.8806 -22.5703 Q-15.8806 -20.8359 -15.1384 -19.9297 Q-14.3962 -19.0234 -12.9744 -19.0234 Q-11.5525 -19.0234 -10.8259 -19.9219 Q-10.0994 -20.8203 -10.0994 -22.5703 Q-10.0994 -24.3047 -10.8259 -25.1953 Q-11.5525 -26.0859 -12.9744 -26.0859 Q-14.3962 -26.0859 -15.1384 -25.1875 Q-15.8806 -24.2891 -15.8806 -22.5703 Z"/><path style="fill:rgb(0,5,255); stroke:none;" d="M-61.6014 -48.3438 L-62.7421 -48.3438 L-67.4296 -55.5312 L-67.4764 -55.5312 Q-67.3827 -54.2656 -67.3827 -53.2188 L-67.3827 -48.3438 L-68.3046 -48.3438 L-68.3046 -56.9062 L-67.1796 -56.9062 L-62.5077 -49.75 L-62.4608 -49.75 Q-62.4608 -49.9062 -62.5077 -50.7656 Q-62.5546 -51.625 -62.5389 -52 L-62.5389 -56.9062 L-61.6014 -56.9062 L-61.6014 -48.3438 Z"/><path style="fill:rgb(0,5,255); stroke:none;" d="M-54.0858 -48.3438 L-55.0858 -48.3438 L-55.0858 -52.375 L-59.6014 -52.375 L-59.6014 -48.3438 L-60.6014 -48.3438 L-60.6014 -56.9062 L-59.6014 -56.9062 L-59.6014 -53.2656 L-55.0858 -53.2656 L-55.0858 -56.9062 L-54.0858 -56.9062 L-54.0858 -48.3438 Z"/></g><g transform="translate(339,120)" style="stroke-linecap:butt; text-rendering:geometricPrecision; color-rendering:optimizeQuality; image-rendering:optimizeQuality; font-family:'Open Sans'; color-interpolation:linearRGB; stroke-miterlimit:5;"><path style="fill:none;" d="M-90.5 -67.25 L-90.933 -67.5 L-90.933 -68"/><path style="fill:rgb(230,0,0); stroke:none;" d="M-112.9755 -52.5703 Q-112.9755 -50.5078 -114.0146 -49.3281 Q-115.0536 -48.1484 -116.8974 -48.1484 Q-118.788 -48.1484 -119.8193 -49.3125 Q-120.8505 -50.4766 -120.8505 -52.5859 Q-120.8505 -54.6797 -119.8193 -55.8281 Q-118.788 -56.9766 -116.8974 -56.9766 Q-115.038 -56.9766 -114.0068 -55.8047 Q-112.9755 -54.6328 -112.9755 -52.5703 ZM-119.8036 -52.5703 Q-119.8036 -50.8359 -119.0614 -49.9297 Q-118.3193 -49.0234 -116.8974 -49.0234 Q-115.4755 -49.0234 -114.7489 -49.9219 Q-114.0224 -50.8203 -114.0224 -52.5703 Q-114.0224 -54.3047 -114.7489 -55.1953 Q-115.4755 -56.0859 -116.8974 -56.0859 Q-118.3193 -56.0859 -119.0614 -55.1875 Q-119.8036 -54.2891 -119.8036 -52.5703 Z"/><path style="fill:rgb(230,0,0); stroke:none;" d="M-112.9755 -22.5703 Q-112.9755 -20.5078 -114.0146 -19.3281 Q-115.0536 -18.1484 -116.8974 -18.1484 Q-118.788 -18.1484 -119.8193 -19.3125 Q-120.8505 -20.4766 -120.8505 -22.5859 Q-120.8505 -24.6797 -119.8193 -25.8281 Q-118.788 -26.9766 -116.8974 -26.9766 Q-115.038 -26.9766 -114.0068 -25.8047 Q-112.9755 -24.6328 -112.9755 -22.5703 ZM-119.8036 -22.5703 Q-119.8036 -20.8359 -119.0614 -19.9297 Q-118.3193 -19.0234 -116.8974 -19.0234 Q-115.4755 -19.0234 -114.7489 -19.9219 Q-114.0224 -20.8203 -114.0224 -22.5703 Q-114.0224 -24.3047 -114.7489 -25.1953 Q-115.4755 -26.0859 -116.8974 -26.0859 Q-118.3193 -26.0859 -119.0614 -25.1875 Q-119.8036 -24.2891 -119.8036 -22.5703 Z"/><path style="fill:rgb(230,0,0); stroke:none;" d="M-121.8505 -18.2734 L-122.8505 -18.2734 L-122.8505 -22.3047 L-127.3661 -22.3047 L-127.3661 -18.2734 L-128.3661 -18.2734 L-128.3661 -26.8359 L-127.3661 -26.8359 L-127.3661 -23.1953 L-122.8505 -23.1953 L-122.8505 -26.8359 L-121.8505 -26.8359 L-121.8505 -18.2734 Z"/><path style="fill:rgb(230,0,0); stroke:none;" d="M-86.9955 82.4297 Q-86.9955 84.4922 -88.0346 85.6719 Q-89.0736 86.8516 -90.9174 86.8516 Q-92.808 86.8516 -93.8392 85.6875 Q-94.8705 84.5234 -94.8705 82.4141 Q-94.8705 80.3203 -93.8392 79.1719 Q-92.808 78.0234 -90.9174 78.0234 Q-89.058 78.0234 -88.0267 79.1953 Q-86.9955 80.3672 -86.9955 82.4297 ZM-93.8236 82.4297 Q-93.8236 84.1641 -93.0814 85.0703 Q-92.3392 85.9766 -90.9174 85.9766 Q-89.4955 85.9766 -88.7689 85.0781 Q-88.0424 84.1797 -88.0424 82.4297 Q-88.0424 80.6953 -88.7689 79.8047 Q-89.4955 78.9141 -90.9174 78.9141 Q-92.3392 78.9141 -93.0814 79.8125 Q-93.8236 80.7109 -93.8236 82.4297 Z"/><path style="fill:rgb(230,0,0); stroke:none;" d="M-95.8705 86.7266 L-96.8705 86.7266 L-96.8705 82.6953 L-101.3861 82.6953 L-101.3861 86.7266 L-102.3861 86.7266 L-102.3861 78.1641 L-101.3861 78.1641 L-101.3861 81.8047 L-96.8705 81.8047 L-96.8705 78.1641 L-95.8705 78.1641 L-95.8705 86.7266 Z"/><path style="fill:rgb(230,0,0); stroke:none;" d="M-112.9755 37.4297 Q-112.9755 39.4922 -114.0146 40.6719 Q-115.0536 41.8516 -116.8974 41.8516 Q-118.788 41.8516 -119.8193 40.6875 Q-120.8505 39.5234 -120.8505 37.4141 Q-120.8505 35.3203 -119.8193 34.1719 Q-118.788 33.0234 -116.8974 33.0234 Q-115.038 33.0234 -114.0068 34.1953 Q-112.9755 35.3672 -112.9755 37.4297 ZM-119.8036 37.4297 Q-119.8036 39.1641 -119.0614 40.0703 Q-118.3193 40.9766 -116.8974 40.9766 Q-115.4755 40.9766 -114.7489 40.0781 Q-114.0224 39.1797 -114.0224 37.4297 Q-114.0224 35.6953 -114.7489 34.8047 Q-115.4755 33.9141 -116.8974 33.9141 Q-118.3193 33.9141 -119.0614 34.8125 Q-119.8036 35.7109 -119.8036 37.4297 Z"/><path style="fill:rgb(230,0,0); stroke:none;" d="M16.9275 -67.5703 Q16.9275 -65.5078 15.8884 -64.3281 Q14.8494 -63.1484 13.0056 -63.1484 Q11.115 -63.1484 10.0837 -64.3125 Q9.0525 -65.4766 9.0525 -67.5859 Q9.0525 -69.6797 10.0837 -70.8281 Q11.115 -71.9766 13.0056 -71.9766 Q14.865 -71.9766 15.8962 -70.8047 Q16.9275 -69.6328 16.9275 -67.5703 ZM10.0994 -67.5703 Q10.0994 -65.8359 10.8416 -64.9297 Q11.5837 -64.0234 13.0056 -64.0234 Q14.4275 -64.0234 15.1541 -64.9219 Q15.8806 -65.8203 15.8806 -67.5703 Q15.8806 -69.3047 15.1541 -70.1953 Q14.4275 -71.0859 13.0056 -71.0859 Q11.5837 -71.0859 10.8416 -70.1875 Q10.0994 -69.2891 10.0994 -67.5703 Z"/><path style="fill:rgb(230,0,0); stroke:none;" d="M8.0525 -63.2734 L7.0525 -63.2734 L7.0525 -67.3047 L2.5369 -67.3047 L2.5369 -63.2734 L1.5369 -63.2734 L1.5369 -71.8359 L2.5369 -71.8359 L2.5369 -68.1953 L7.0525 -68.1953 L7.0525 -71.8359 L8.0525 -71.8359 L8.0525 -63.2734 Z"/><path style="fill:rgb(230,0,0); stroke:none;" d="M-9.0525 37.4297 Q-9.0525 39.4922 -10.0916 40.6719 Q-11.1306 41.8516 -12.9744 41.8516 Q-14.865 41.8516 -15.8962 40.6875 Q-16.9275 39.5234 -16.9275 37.4141 Q-16.9275 35.3203 -15.8962 34.1719 Q-14.865 33.0234 -12.9744 33.0234 Q-11.115 33.0234 -10.0837 34.1953 Q-9.0525 35.3672 -9.0525 37.4297 ZM-15.8806 37.4297 Q-15.8806 39.1641 -15.1384 40.0703 Q-14.3962 40.9766 -12.9744 40.9766 Q-11.5525 40.9766 -10.8259 40.0781 Q-10.0994 39.1797 -10.0994 37.4297 Q-10.0994 35.6953 -10.8259 34.8047 Q-11.5525 33.9141 -12.9744 33.9141 Q-14.3962 33.9141 -15.1384 34.8125 Q-15.8806 35.7109 -15.8806 37.4297 Z"/><path style="fill:rgb(230,0,0); stroke:none;" d="M-17.9275 41.7266 L-18.9275 41.7266 L-18.9275 37.6953 L-23.4431 37.6953 L-23.4431 41.7266 L-24.4431 41.7266 L-24.4431 33.1641 L-23.4431 33.1641 L-23.4431 36.8047 L-18.9275 36.8047 L-18.9275 33.1641 L-17.9275 33.1641 L-17.9275 41.7266 Z"/><path style="fill:rgb(0,5,255); stroke:none;" d="M42.3216 71.6562 L41.1809 71.6562 L36.4934 64.4688 L36.4466 64.4688 Q36.5403 65.7344 36.5403 66.7812 L36.5403 71.6562 L35.6184 71.6562 L35.6184 63.0938 L36.7434 63.0938 L41.4153 70.25 L41.4622 70.25 Q41.4622 70.0938 41.4153 69.2344 Q41.3684 68.375 41.3841 68 L41.3841 63.0938 L42.3216 63.0938 L42.3216 71.6562 Z"/><path style="fill:rgb(0,5,255); stroke:none;" d="M34.6184 71.6562 L33.6184 71.6562 L33.6184 67.625 L29.1028 67.625 L29.1028 71.6562 L28.1028 71.6562 L28.1028 63.0938 L29.1028 63.0938 L29.1028 66.7344 L33.6184 66.7344 L33.6184 63.0938 L34.6184 63.0938 L34.6184 71.6562 Z"/><path style="fill:none;" d="M64.52 82.25 L64.953 82.5 L65.386 82.25"/><path style="fill:rgb(230,0,0); stroke:none;" d="M68.8905 112.4297 Q68.8905 114.4922 67.8514 115.6719 Q66.8124 116.8516 64.9686 116.8516 Q63.078 116.8516 62.0468 115.6875 Q61.0155 114.5234 61.0155 112.4141 Q61.0155 110.3203 62.0468 109.1719 Q63.078 108.0234 64.9686 108.0234 Q66.828 108.0234 67.8593 109.1953 Q68.8905 110.3672 68.8905 112.4297 ZM62.0624 112.4297 Q62.0624 114.1641 62.8046 115.0703 Q63.5468 115.9766 64.9686 115.9766 Q66.3905 115.9766 67.1171 115.0781 Q67.8436 114.1797 67.8436 112.4297 Q67.8436 110.6953 67.1171 109.8047 Q66.3905 108.9141 64.9686 108.9141 Q63.5468 108.9141 62.8046 109.8125 Q62.0624 110.7109 62.0624 112.4297 Z"/><path style="fill:rgb(230,0,0); stroke:none;" d="M94.8705 37.4297 Q94.8705 39.4922 93.8314 40.6719 Q92.7924 41.8516 90.9486 41.8516 Q89.058 41.8516 88.0267 40.6875 Q86.9955 39.5234 86.9955 37.4141 Q86.9955 35.3203 88.0267 34.1719 Q89.058 33.0234 90.9486 33.0234 Q92.808 33.0234 93.8392 34.1953 Q94.8705 35.3672 94.8705 37.4297 ZM88.0424 37.4297 Q88.0424 39.1641 88.7846 40.0703 Q89.5267 40.9766 90.9486 40.9766 Q92.3705 40.9766 93.0971 40.0781 Q93.8236 39.1797 93.8236 37.4297 Q93.8236 35.6953 93.0971 34.8047 Q92.3705 33.9141 90.9486 33.9141 Q89.5267 33.9141 88.7846 34.8125 Q88.0424 35.7109 88.0424 37.4297 Z"/><path style="fill:rgb(0,5,255); stroke:none;" d="M-165.5244 71.6562 L-166.6651 71.6562 L-171.3526 64.4688 L-171.3994 64.4688 Q-171.3057 65.7344 -171.3057 66.7812 L-171.3057 71.6562 L-172.2276 71.6562 L-172.2276 63.0938 L-171.1026 63.0938 L-166.4307 70.25 L-166.3838 70.25 Q-166.3838 70.0938 -166.4307 69.2344 Q-166.4776 68.375 -166.4619 68 L-166.4619 63.0938 L-165.5244 63.0938 L-165.5244 71.6562 Z"/><path style="fill:rgb(0,5,255); stroke:none;" d="M-158.0088 71.6562 L-159.0088 71.6562 L-159.0088 67.625 L-163.5244 67.625 L-163.5244 71.6562 L-164.5244 71.6562 L-164.5244 63.0938 L-163.5244 63.0938 L-163.5244 66.7344 L-159.0088 66.7344 L-159.0088 63.0938 L-158.0088 63.0938 L-158.0088 71.6562 Z"/><path style="fill:none;" d="M-194.423 82.25 L-194.856 82.5 L-195.289 82.25"/><path style="fill:rgb(230,0,0); stroke:none;" d="M-190.9185 112.4297 Q-190.9185 114.4922 -191.9576 115.6719 Q-192.9966 116.8516 -194.8404 116.8516 Q-196.731 116.8516 -197.7623 115.6875 Q-198.7935 114.5234 -198.7935 112.4141 Q-198.7935 110.3203 -197.7623 109.1719 Q-196.731 108.0234 -194.8404 108.0234 Q-192.981 108.0234 -191.9498 109.1953 Q-190.9185 110.3672 -190.9185 112.4297 ZM-197.7466 112.4297 Q-197.7466 114.1641 -197.0044 115.0703 Q-196.2623 115.9766 -194.8404 115.9766 Q-193.4185 115.9766 -192.6919 115.0781 Q-191.9654 114.1797 -191.9654 112.4297 Q-191.9654 110.6953 -192.6919 109.8047 Q-193.4185 108.9141 -194.8404 108.9141 Q-196.2623 108.9141 -197.0044 109.8125 Q-197.7466 110.7109 -197.7466 112.4297 Z"/><path style="fill:rgb(230,0,0); stroke:none;" d="M-216.8985 37.4297 Q-216.8985 39.4922 -217.9376 40.6719 Q-218.9766 41.8516 -220.8204 41.8516 Q-222.711 41.8516 -223.7422 40.6875 Q-224.7735 39.5234 -224.7735 37.4141 Q-224.7735 35.3203 -223.7422 34.1719 Q-222.711 33.0234 -220.8204 33.0234 Q-218.961 33.0234 -217.9297 34.1953 Q-216.8985 35.3672 -216.8985 37.4297 ZM-223.7266 37.4297 Q-223.7266 39.1641 -222.9844 40.0703 Q-222.2422 40.9766 -220.8204 40.9766 Q-219.3985 40.9766 -218.6719 40.0781 Q-217.9454 39.1797 -217.9454 37.4297 Q-217.9454 35.6953 -218.6719 34.8047 Q-219.3985 33.9141 -220.8204 33.9141 Q-222.2422 33.9141 -222.9844 34.8125 Q-223.7266 35.7109 -223.7266 37.4297 Z"/><path style="fill:rgb(230,0,0); stroke:none;" d="M-225.7735 41.7266 L-226.7735 41.7266 L-226.7735 37.6953 L-231.2891 37.6953 L-231.2891 41.7266 L-232.2891 41.7266 L-232.2891 33.1641 L-231.2891 33.1641 L-231.2891 36.8047 L-226.7735 36.8047 L-226.7735 33.1641 L-225.7735 33.1641 L-225.7735 41.7266 Z"/><path style="fill:rgb(230,0,0); stroke:none;" d="M-190.9185 -67.5703 Q-190.9185 -65.5078 -191.9576 -64.3281 Q-192.9966 -63.1484 -194.8404 -63.1484 Q-196.731 -63.1484 -197.7623 -64.3125 Q-198.7935 -65.4766 -198.7935 -67.5859 Q-198.7935 -69.6797 -197.7623 -70.8281 Q-196.731 -71.9766 -194.8404 -71.9766 Q-192.981 -71.9766 -191.9498 -70.8047 Q-190.9185 -69.6328 -190.9185 -67.5703 ZM-197.7466 -67.5703 Q-197.7466 -65.8359 -197.0044 -64.9297 Q-196.2623 -64.0234 -194.8404 -64.0234 Q-193.4185 -64.0234 -192.6919 -64.9219 Q-191.9654 -65.8203 -191.9654 -67.5703 Q-191.9654 -69.3047 -192.6919 -70.1953 Q-193.4185 -71.0859 -194.8404 -71.0859 Q-196.2623 -71.0859 -197.0044 -70.1875 Q-197.7466 -69.2891 -197.7466 -67.5703 Z"/><path style="fill:rgb(230,0,0); stroke:none;" d="M-199.7935 -63.2734 L-200.7935 -63.2734 L-200.7935 -67.3047 L-205.3091 -67.3047 L-205.3091 -63.2734 L-206.3091 -63.2734 L-206.3091 -71.8359 L-205.3091 -71.8359 L-205.3091 -68.1953 L-200.7935 -68.1953 L-200.7935 -71.8359 L-199.7935 -71.8359 L-199.7935 -63.2734 Z"/><path style="fill:rgb(230,0,0); stroke:none;" d="M-216.8985 -22.5703 Q-216.8985 -20.5078 -217.9376 -19.3281 Q-218.9766 -18.1484 -220.8204 -18.1484 Q-222.711 -18.1484 -223.7422 -19.3125 Q-224.7735 -20.4766 -224.7735 -22.5859 Q-224.7735 -24.6797 -223.7422 -25.8281 Q-222.711 -26.9766 -220.8204 -26.9766 Q-218.961 -26.9766 -217.9297 -25.8047 Q-216.8985 -24.6328 -216.8985 -22.5703 ZM-223.7266 -22.5703 Q-223.7266 -20.8359 -222.9844 -19.9297 Q-222.2422 -19.0234 -220.8204 -19.0234 Q-219.3985 -19.0234 -218.6719 -19.9219 Q-217.9454 -20.8203 -217.9454 -22.5703 Q-217.9454 -24.3047 -218.6719 -25.1953 Q-219.3985 -26.0859 -220.8204 -26.0859 Q-222.2422 -26.0859 -222.9844 -25.1875 Q-223.7266 -24.2891 -223.7266 -22.5703 Z"/><path style="fill:rgb(230,0,0); stroke:none;" d="M94.8705 -52.5703 Q94.8705 -50.5078 93.8314 -49.3281 Q92.7924 -48.1484 90.9486 -48.1484 Q89.058 -48.1484 88.0267 -49.3125 Q86.9955 -50.4766 86.9955 -52.5859 Q86.9955 -54.6797 88.0267 -55.8281 Q89.058 -56.9766 90.9486 -56.9766 Q92.808 -56.9766 93.8392 -55.8047 Q94.8705 -54.6328 94.8705 -52.5703 ZM88.0424 -52.5703 Q88.0424 -50.8359 88.7846 -49.9297 Q89.5267 -49.0234 90.9486 -49.0234 Q92.3705 -49.0234 93.0971 -49.9219 Q93.8236 -50.8203 93.8236 -52.5703 Q93.8236 -54.3047 93.0971 -55.1953 Q92.3705 -56.0859 90.9486 -56.0859 Q89.5267 -56.0859 88.7846 -55.1875 Q88.0424 -54.2891 88.0424 -52.5703 Z"/><path style="fill:rgb(230,0,0); stroke:none;" d="M102.3861 -48.2734 L101.3861 -48.2734 L101.3861 -52.3047 L96.8705 -52.3047 L96.8705 -48.2734 L95.8705 -48.2734 L95.8705 -56.8359 L96.8705 -56.8359 L96.8705 -53.1953 L101.3861 -53.1953 L101.3861 -56.8359 L102.3861 -56.8359 L102.3861 -48.2734 Z"/><path style="fill:rgb(230,0,0); stroke:none;" d="M146.8305 67.4297 Q146.8305 69.4922 145.7914 70.6719 Q144.7524 71.8516 142.9086 71.8516 Q141.018 71.8516 139.9868 70.6875 Q138.9555 69.5234 138.9555 67.4141 Q138.9555 65.3203 139.9868 64.1719 Q141.018 63.0234 142.9086 63.0234 Q144.768 63.0234 145.7993 64.1953 Q146.8305 65.3672 146.8305 67.4297 ZM140.0024 67.4297 Q140.0024 69.1641 140.7446 70.0703 Q141.4868 70.9766 142.9086 70.9766 Q144.3305 70.9766 145.0571 70.0781 Q145.7836 69.1797 145.7836 67.4297 Q145.7836 65.6953 145.0571 64.8047 Q144.3305 63.9141 142.9086 63.9141 Q141.4868 63.9141 140.7446 64.8125 Q140.0024 65.7109 140.0024 67.4297 Z"/><path style="fill:rgb(230,0,0); stroke:none;" d="M154.3461 71.7266 L153.3461 71.7266 L153.3461 67.6953 L148.8305 67.6953 L148.8305 71.7266 L147.8305 71.7266 L147.8305 63.1641 L148.8305 63.1641 L148.8305 66.8047 L153.3461 66.8047 L153.3461 63.1641 L154.3461 63.1641 L154.3461 71.7266 Z"/><path style="fill:rgb(0,5,255); stroke:none;" d="M198.2076 41.6562 L197.0669 41.6562 L192.3794 34.4688 L192.3326 34.4688 Q192.4263 35.7344 192.4263 36.7812 L192.4263 41.6562 L191.5044 41.6562 L191.5044 33.0938 L192.6294 33.0938 L197.3013 40.25 L197.3482 40.25 Q197.3482 40.0938 197.3013 39.2344 Q197.2544 38.375 197.2701 38 L197.2701 33.0938 L198.2076 33.0938 L198.2076 41.6562 Z"/><path style="fill:rgb(0,5,255); stroke:none;" d="M205.7232 41.6562 L204.7232 41.6562 L204.7232 37.625 L200.2076 37.625 L200.2076 41.6562 L199.2076 41.6562 L199.2076 33.0938 L200.2076 33.0938 L200.2076 36.7344 L204.7232 36.7344 L204.7232 33.0938 L205.7232 33.0938 L205.7232 41.6562 Z"/><path style="fill:none;" d="M194.856 67 L194.856 67.5 L194.423 67.75"/><path style="fill:rgb(230,0,0); stroke:none;" d="M224.7735 82.4297 Q224.7735 84.4922 223.7344 85.6719 Q222.6954 86.8516 220.8516 86.8516 Q218.961 86.8516 217.9297 85.6875 Q216.8985 84.5234 216.8985 82.4141 Q216.8985 80.3203 217.9297 79.1719 Q218.961 78.0234 220.8516 78.0234 Q222.711 78.0234 223.7422 79.1953 Q224.7735 80.3672 224.7735 82.4297 ZM217.9454 82.4297 Q217.9454 84.1641 218.6876 85.0703 Q219.4297 85.9766 220.8516 85.9766 Q222.2735 85.9766 223.0001 85.0781 Q223.7266 84.1797 223.7266 82.4297 Q223.7266 80.6953 223.0001 79.8047 Q222.2735 78.9141 220.8516 78.9141 Q219.4297 78.9141 218.6876 79.8125 Q217.9454 80.7109 217.9454 82.4297 Z"/><path style="fill:rgb(230,0,0); stroke:none;" d="M198.7935 -22.5703 Q198.7935 -20.5078 197.7544 -19.3281 Q196.7154 -18.1484 194.8716 -18.1484 Q192.981 -18.1484 191.9498 -19.3125 Q190.9185 -20.4766 190.9185 -22.5859 Q190.9185 -24.6797 191.9498 -25.8281 Q192.981 -26.9766 194.8716 -26.9766 Q196.731 -26.9766 197.7623 -25.8047 Q198.7935 -24.6328 198.7935 -22.5703 ZM191.9654 -22.5703 Q191.9654 -20.8359 192.7076 -19.9297 Q193.4498 -19.0234 194.8716 -19.0234 Q196.2935 -19.0234 197.0201 -19.9219 Q197.7466 -20.8203 197.7466 -22.5703 Q197.7466 -24.3047 197.0201 -25.1953 Q196.2935 -26.0859 194.8716 -26.0859 Q193.4498 -26.0859 192.7076 -25.1875 Q191.9654 -24.2891 191.9654 -22.5703 Z"/><path style="fill:none;" d="M195.289 -52.75 L194.856 -52.5 L194.423 -52.75"/></g><g transform="translate(339,120)" style="stroke-linecap:butt; font-size:8.4px; fill:gray; text-rendering:geometricPrecision; image-rendering:optimizeQuality; color-rendering:optimizeQuality; font-family:'Open Sans'; font-style:italic; stroke:gray; color-interpolation:linearRGB; stroke-miterlimit:5;"><path style="stroke:none;" d="M190.7475 -61.2969 Q190.7475 -62.625 191.2162 -63.75 Q191.685 -64.875 192.7162 -65.9531 L193.3256 -65.9531 Q192.3569 -64.8906 191.8725 -63.7188 Q191.3881 -62.5469 191.3881 -61.3125 Q191.3881 -59.9844 191.8256 -58.9688 L191.31 -58.9688 Q190.7475 -60 190.7475 -61.2969 ZM196.37 -61.8906 Q196.37 -61.0625 195.8232 -60.6094 Q195.2763 -60.1562 194.2763 -60.1562 Q193.87 -60.1562 193.5575 -60.2109 Q193.245 -60.2656 192.9638 -60.4062 L192.9638 -61.0625 Q193.5888 -60.7344 194.2919 -60.7344 Q194.9169 -60.7344 195.2919 -61.0312 Q195.6669 -61.3281 195.6669 -61.8438 Q195.6669 -62.1562 195.4638 -62.3828 Q195.2607 -62.6094 194.6982 -62.9375 Q194.1044 -63.2656 193.8779 -63.5938 Q193.6513 -63.9219 193.6513 -64.375 Q193.6513 -65.1094 194.1669 -65.5703 Q194.6825 -66.0312 195.5263 -66.0312 Q195.9013 -66.0312 196.2372 -65.9531 Q196.5732 -65.875 196.9482 -65.7031 L196.6825 -65.1094 Q196.4325 -65.2656 196.1122 -65.3516 Q195.7919 -65.4375 195.5263 -65.4375 Q194.995 -65.4375 194.6747 -65.1641 Q194.3544 -64.8906 194.3544 -64.4219 Q194.3544 -64.2188 194.4247 -64.0703 Q194.495 -63.9219 194.6357 -63.7891 Q194.7763 -63.6562 195.1982 -63.4062 Q195.7607 -63.0625 195.9638 -62.8672 Q196.1669 -62.6719 196.2685 -62.4375 Q196.37 -62.2031 196.37 -61.8906 ZM198.9645 -63.6094 Q198.9645 -62.2812 198.488 -61.1484 Q198.0114 -60.0156 196.9958 -58.9688 L196.3864 -58.9688 Q198.3239 -61.125 198.3239 -63.6094 Q198.3239 -64.9375 197.8864 -65.9531 L198.402 -65.9531 Q198.9645 -64.8906 198.9645 -63.6094 Z"/><path style="fill:none; stroke:black;" d="M220.403 -67.25 L220.836 -67.5 L221.269 -67.25"/><path style="stroke:none;" d="M207.7872 -71.3361 Q207.7872 -72.6642 208.2559 -73.7892 Q208.7247 -74.9142 209.7559 -75.9923 L210.3653 -75.9923 Q209.3965 -74.9298 208.9122 -73.7579 Q208.4278 -72.5861 208.4278 -71.3517 Q208.4278 -70.0236 208.8653 -69.0079 L208.3497 -69.0079 Q207.7872 -70.0392 207.7872 -71.3361 ZM211.3472 -72.6486 L210.8472 -70.2736 L210.191 -70.2736 L211.3941 -75.9923 L212.6441 -75.9923 Q214.3785 -75.9923 214.3785 -74.5548 Q214.3785 -73.1954 212.941 -72.8048 L213.8785 -70.2736 L213.1597 -70.2736 L212.3316 -72.6486 L211.3472 -72.6486 ZM211.9254 -75.3986 Q211.5347 -73.4767 211.4722 -73.2267 L212.1285 -73.2267 Q212.8785 -73.2267 213.2847 -73.5548 Q213.691 -73.8829 213.691 -74.5079 Q213.691 -74.9767 213.4332 -75.1876 Q213.1754 -75.3986 212.5816 -75.3986 L211.9254 -75.3986 ZM216.5645 -73.6486 Q216.5645 -72.3204 216.0879 -71.1876 Q215.6113 -70.0548 214.5957 -69.0079 L213.9863 -69.0079 Q215.9238 -71.1642 215.9238 -73.6486 Q215.9238 -74.9767 215.4863 -75.9923 L216.002 -75.9923 Q216.5645 -74.9298 216.5645 -73.6486 Z"/><path style="fill:none; stroke:black;" d="M169.309 -67.25 L168.876 -67.5 L168.876 -68"/><path style="stroke:none;" d="M155.8271 -71.3358 Q155.8271 -72.664 156.2958 -73.789 Q156.7646 -74.914 157.7958 -75.9921 L158.4052 -75.9921 Q157.4364 -74.9296 156.9521 -73.7577 Q156.4677 -72.5858 156.4677 -71.3515 Q156.4677 -70.0233 156.9052 -69.0077 L156.3896 -69.0077 Q155.8271 -70.039 155.8271 -71.3358 ZM159.3871 -72.6483 L158.8871 -70.2733 L158.2309 -70.2733 L159.434 -75.9921 L160.684 -75.9921 Q162.4184 -75.9921 162.4184 -74.5546 Q162.4184 -73.1952 160.9809 -72.8046 L161.9184 -70.2733 L161.1996 -70.2733 L160.3715 -72.6483 L159.3871 -72.6483 ZM159.9652 -75.3983 Q159.5746 -73.4765 159.5121 -73.2265 L160.1684 -73.2265 Q160.9184 -73.2265 161.3246 -73.5546 Q161.7309 -73.8827 161.7309 -74.5077 Q161.7309 -74.9765 161.4731 -75.1874 Q161.2152 -75.3983 160.6215 -75.3983 L159.9652 -75.3983 ZM164.6043 -73.6483 Q164.6043 -72.3202 164.1278 -71.1874 Q163.6512 -70.0546 162.6356 -69.0077 L162.0262 -69.0077 Q163.9637 -71.164 163.9637 -73.6483 Q163.9637 -74.9765 163.5262 -75.9921 L164.0418 -75.9921 Q164.6043 -74.9296 164.6043 -73.6483 Z"/><path style="stroke:none;" d="M242.4276 -61.3359 Q242.4276 -62.6641 242.8963 -63.7891 Q243.3651 -64.9141 244.3963 -65.9922 L245.0057 -65.9922 Q244.037 -64.9297 243.5526 -63.7578 Q243.0682 -62.5859 243.0682 -61.3516 Q243.0682 -60.0234 243.5057 -59.0078 L242.9901 -59.0078 Q242.4276 -60.0391 242.4276 -61.3359 ZM245.9877 -62.6484 L245.4877 -60.2734 L244.8314 -60.2734 L246.0345 -65.9922 L247.2845 -65.9922 Q249.0189 -65.9922 249.0189 -64.5547 Q249.0189 -63.1953 247.5814 -62.8047 L248.5189 -60.2734 L247.8002 -60.2734 L246.972 -62.6484 L245.9877 -62.6484 ZM246.5658 -65.3984 Q246.1752 -63.4766 246.1127 -63.2266 L246.7689 -63.2266 Q247.5189 -63.2266 247.9252 -63.5547 Q248.3314 -63.8828 248.3314 -64.5078 Q248.3314 -64.9766 248.0736 -65.1875 Q247.8158 -65.3984 247.222 -65.3984 L246.5658 -65.3984 ZM251.2049 -63.6484 Q251.2049 -62.3203 250.7283 -61.1875 Q250.2518 -60.0547 249.2361 -59.0078 L248.6268 -59.0078 Q250.5643 -61.1641 250.5643 -63.6484 Q250.5643 -64.9766 250.1268 -65.9922 L250.6424 -65.9922 Q251.2049 -64.9297 251.2049 -63.6484 Z"/></g><g transform="translate(339,120)" style="stroke-linecap:butt; fill:rgb(230,0,0); text-rendering:geometricPrecision; color-rendering:optimizeQuality; image-rendering:optimizeQuality; font-family:'Open Sans'; stroke:rgb(230,0,0); color-interpolation:linearRGB; stroke-miterlimit:5;"><path style="stroke:none;" d="M224.7735 -97.5703 Q224.7735 -95.5078 223.7344 -94.3281 Q222.6954 -93.1484 220.8516 -93.1484 Q218.961 -93.1484 217.9297 -94.3125 Q216.8985 -95.4766 216.8985 -97.5859 Q216.8985 -99.6797 217.9297 -100.8281 Q218.961 -101.9766 220.8516 -101.9766 Q222.711 -101.9766 223.7422 -100.8047 Q224.7735 -99.6328 224.7735 -97.5703 ZM217.9454 -97.5703 Q217.9454 -95.8359 218.6876 -94.9297 Q219.4297 -94.0234 220.8516 -94.0234 Q222.2735 -94.0234 223.0001 -94.9219 Q223.7266 -95.8203 223.7266 -97.5703 Q223.7266 -99.3047 223.0001 -100.1953 Q222.2735 -101.0859 220.8516 -101.0859 Q219.4297 -101.0859 218.6876 -100.1875 Q217.9454 -99.2891 217.9454 -97.5703 Z"/><path style="stroke:none;" d="M232.2891 -93.2734 L231.2891 -93.2734 L231.2891 -97.3047 L226.7735 -97.3047 L226.7735 -93.2734 L225.7735 -93.2734 L225.7735 -101.8359 L226.7735 -101.8359 L226.7735 -98.1953 L231.2891 -98.1953 L231.2891 -101.8359 L232.2891 -101.8359 L232.2891 -93.2734 Z"/><path style="fill:none; stroke:black;" d="M168.876 -97 L168.876 -97.5 L168.443 -97.75"/><path style="stroke:none;" d="M146.8305 -52.5703 Q146.8305 -50.5078 145.7914 -49.3281 Q144.7524 -48.1484 142.9086 -48.1484 Q141.018 -48.1484 139.9868 -49.3125 Q138.9555 -50.4766 138.9555 -52.5859 Q138.9555 -54.6797 139.9868 -55.8281 Q141.018 -56.9766 142.9086 -56.9766 Q144.768 -56.9766 145.7993 -55.8047 Q146.8305 -54.6328 146.8305 -52.5703 ZM140.0024 -52.5703 Q140.0024 -50.8359 140.7446 -49.9297 Q141.4868 -49.0234 142.9086 -49.0234 Q144.3305 -49.0234 145.0571 -49.9219 Q145.7836 -50.8203 145.7836 -52.5703 Q145.7836 -54.3047 145.0571 -55.1953 Q144.3305 -56.0859 142.9086 -56.0859 Q141.4868 -56.0859 140.7446 -55.1875 Q140.0024 -54.2891 140.0024 -52.5703 Z"/><path style="stroke:none;" d="M137.9555 -48.2734 L136.9555 -48.2734 L136.9555 -52.3047 L132.4399 -52.3047 L132.4399 -48.2734 L131.4399 -48.2734 L131.4399 -56.8359 L132.4399 -56.8359 L132.4399 -53.1953 L136.9555 -53.1953 L136.9555 -56.8359 L137.9555 -56.8359 L137.9555 -48.2734 Z"/><path style="fill:rgb(0,5,255); stroke:none;" d="M276.1506 -63.3438 L275.0099 -63.3438 L270.3224 -70.5312 L270.2756 -70.5312 Q270.3693 -69.2656 270.3693 -68.2188 L270.3693 -63.3438 L269.4474 -63.3438 L269.4474 -71.9062 L270.5724 -71.9062 L275.2443 -64.75 L275.2912 -64.75 Q275.2912 -64.9062 275.2443 -65.7656 Q275.1974 -66.625 275.2131 -67 L275.2131 -71.9062 L276.1506 -71.9062 L276.1506 -63.3438 Z"/><path style="fill:rgb(0,5,255); stroke:none;" d="M276.0568 -72.9062 L275.0568 -72.9062 L275.0568 -76.9375 L270.5412 -76.9375 L270.5412 -72.9062 L269.5412 -72.9062 L269.5412 -81.4688 L270.5412 -81.4688 L270.5412 -77.8281 L275.0568 -77.8281 L275.0568 -81.4688 L276.0568 -81.4688 L276.0568 -72.9062 Z"/><path style="fill:none; stroke:black;" d="M246.816 -23 L246.816 -22.5 L247.249 -22.25"/><path style="stroke:none;" d="M146.8305 -112.5703 Q146.8305 -110.5078 145.7914 -109.3281 Q144.7524 -108.1484 142.9086 -108.1484 Q141.018 -108.1484 139.9868 -109.3125 Q138.9555 -110.4766 138.9555 -112.5859 Q138.9555 -114.6797 139.9868 -115.8281 Q141.018 -116.9766 142.9086 -116.9766 Q144.768 -116.9766 145.7993 -115.8047 Q146.8305 -114.6328 146.8305 -112.5703 ZM140.0024 -112.5703 Q140.0024 -110.8359 140.7446 -109.9297 Q141.4868 -109.0234 142.9086 -109.0234 Q144.3305 -109.0234 145.0571 -109.9219 Q145.7836 -110.8203 145.7836 -112.5703 Q145.7836 -114.3047 145.0571 -115.1953 Q144.3305 -116.0859 142.9086 -116.0859 Q141.4868 -116.0859 140.7446 -115.1875 Q140.0024 -114.2891 140.0024 -112.5703 Z"/><path style="stroke:none;" d="M137.9555 -108.2734 L136.9555 -108.2734 L136.9555 -112.3047 L132.4399 -112.3047 L132.4399 -108.2734 L131.4399 -108.2734 L131.4399 -116.8359 L132.4399 -116.8359 L132.4399 -113.1953 L136.9555 -113.1953 L136.9555 -116.8359 L137.9555 -116.8359 L137.9555 -108.2734 Z"/><path style="fill:none; stroke:black;" d="M298.346 -52.75 L298.779 -52.5 L298.779 -52"/><path transform="translate(0.8749,-1.5156)" style="stroke:none;" d="M276.7365 -7.5703 Q276.7365 -5.5078 275.6974 -4.3281 Q274.6584 -3.1484 272.8146 -3.1484 Q270.924 -3.1484 269.8928 -4.3125 Q268.8615 -5.4766 268.8615 -7.5859 Q268.8615 -9.6797 269.8928 -10.8281 Q270.924 -11.9766 272.8146 -11.9766 Q274.674 -11.9766 275.7053 -10.8047 Q276.7365 -9.6328 276.7365 -7.5703 ZM269.9084 -7.5703 Q269.9084 -5.8359 270.6506 -4.9297 Q271.3928 -4.0234 272.8146 -4.0234 Q274.2365 -4.0234 274.9631 -4.9219 Q275.6896 -5.8203 275.6896 -7.5703 Q275.6896 -9.3047 274.9631 -10.1953 Q274.2365 -11.0859 272.8146 -11.0859 Q271.3928 -11.0859 270.6506 -10.1875 Q269.9084 -9.2891 269.9084 -7.5703 Z"/></g><g transform="matrix(1,0,0,1,339,120)" style="stroke-linecap:butt; fill:rgb(230,0,0); text-rendering:geometricPrecision; color-rendering:optimizeQuality; image-rendering:optimizeQuality; font-family:'Open Sans'; stroke:rgb(230,0,0); color-interpolation:linearRGB; stroke-miterlimit:5;"><path style="stroke:none;" d="M328.6965 -67.5703 Q328.6965 -65.5078 327.6574 -64.3281 Q326.6184 -63.1484 324.7746 -63.1484 Q322.884 -63.1484 321.8528 -64.3125 Q320.8215 -65.4766 320.8215 -67.5859 Q320.8215 -69.6797 321.8528 -70.8281 Q322.884 -71.9766 324.7746 -71.9766 Q326.634 -71.9766 327.6653 -70.8047 Q328.6965 -69.6328 328.6965 -67.5703 ZM321.8684 -67.5703 Q321.8684 -65.8359 322.6106 -64.9297 Q323.3528 -64.0234 324.7746 -64.0234 Q326.1965 -64.0234 326.9231 -64.9219 Q327.6496 -65.8203 327.6496 -67.5703 Q327.6496 -69.3047 326.9231 -70.1953 Q326.1965 -71.0859 324.7746 -71.0859 Q323.3528 -71.0859 322.6106 -70.1875 Q321.8684 -69.2891 321.8684 -67.5703 Z"/><path style="fill:rgb(0,5,255); stroke:none;" d="M-269.4474 -48.3438 L-270.5881 -48.3438 L-275.2756 -55.5312 L-275.3224 -55.5312 Q-275.2287 -54.2656 -275.2287 -53.2188 L-275.2287 -48.3438 L-276.1506 -48.3438 L-276.1506 -56.9062 L-275.0256 -56.9062 L-270.3537 -49.75 L-270.3068 -49.75 Q-270.3068 -49.9062 -270.3537 -50.7656 Q-270.4006 -51.625 -270.3849 -52 L-270.3849 -56.9062 L-269.4474 -56.9062 L-269.4474 -48.3438 Z"/><path style="fill:rgb(0,5,255); stroke:none;" d="M-261.9318 -48.3438 L-262.9318 -48.3438 L-262.9318 -52.375 L-267.4474 -52.375 L-267.4474 -48.3438 L-268.4474 -48.3438 L-268.4474 -56.9062 L-267.4474 -56.9062 L-267.4474 -53.2656 L-262.9318 -53.2656 L-262.9318 -56.9062 L-261.9318 -56.9062 L-261.9318 -48.3438 Z"/><path style="fill:none; stroke:black;" d="M-298.346 -67.25 L-298.779 -67.5 L-299.212 -67.25"/><path style="stroke:none;" d="M-294.8415 -97.5703 Q-294.8415 -95.5078 -295.8806 -94.3281 Q-296.9196 -93.1484 -298.7634 -93.1484 Q-300.654 -93.1484 -301.6852 -94.3125 Q-302.7165 -95.4766 -302.7165 -97.5859 Q-302.7165 -99.6797 -301.6852 -100.8281 Q-300.654 -101.9766 -298.7634 -101.9766 Q-296.904 -101.9766 -295.8727 -100.8047 Q-294.8415 -99.6328 -294.8415 -97.5703 ZM-301.6696 -97.5703 Q-301.6696 -95.8359 -300.9274 -94.9297 Q-300.1852 -94.0234 -298.7634 -94.0234 Q-297.3415 -94.0234 -296.6149 -94.9219 Q-295.8884 -95.8203 -295.8884 -97.5703 Q-295.8884 -99.3047 -296.6149 -100.1953 Q-297.3415 -101.0859 -298.7634 -101.0859 Q-300.1852 -101.0859 -300.9274 -100.1875 Q-301.6696 -99.2891 -301.6696 -97.5703 Z"/><path style="stroke:none;" d="M-320.8215 -22.5703 Q-320.8215 -20.5078 -321.8606 -19.3281 Q-322.8996 -18.1484 -324.7434 -18.1484 Q-326.634 -18.1484 -327.6653 -19.3125 Q-328.6965 -20.4766 -328.6965 -22.5859 Q-328.6965 -24.6797 -327.6653 -25.8281 Q-326.634 -26.9766 -324.7434 -26.9766 Q-322.884 -26.9766 -321.8528 -25.8047 Q-320.8215 -24.6328 -320.8215 -22.5703 ZM-327.6496 -22.5703 Q-327.6496 -20.8359 -326.9074 -19.9297 Q-326.1653 -19.0234 -324.7434 -19.0234 Q-323.3215 -19.0234 -322.5949 -19.9219 Q-321.8684 -20.8203 -321.8684 -22.5703 Q-321.8684 -24.3047 -322.5949 -25.1953 Q-323.3215 -26.0859 -324.7434 -26.0859 Q-326.1653 -26.0859 -326.9074 -25.1875 Q-327.6496 -24.2891 -327.6496 -22.5703 Z"/><path style="stroke:none;" d="M-329.6965 -18.2734 L-330.6965 -18.2734 L-330.6965 -22.3047 L-335.2121 -22.3047 L-335.2121 -18.2734 L-336.2121 -18.2734 L-336.2121 -26.8359 L-335.2121 -26.8359 L-335.2121 -23.1953 L-330.6965 -23.1953 L-330.6965 -26.8359 L-329.6965 -26.8359 L-329.6965 -18.2734 Z"/><path style="stroke:none;" d="M-294.8415 82.4297 Q-294.8415 84.4922 -295.8806 85.6719 Q-296.9196 86.8516 -298.7634 86.8516 Q-300.654 86.8516 -301.6852 85.6875 Q-302.7165 84.5234 -302.7165 82.4141 Q-302.7165 80.3203 -301.6852 79.1719 Q-300.654 78.0234 -298.7634 78.0234 Q-296.904 78.0234 -295.8727 79.1953 Q-294.8415 80.3672 -294.8415 82.4297 ZM-301.6696 82.4297 Q-301.6696 84.1641 -300.9274 85.0703 Q-300.1852 85.9766 -298.7634 85.9766 Q-297.3415 85.9766 -296.6149 85.0781 Q-295.8884 84.1797 -295.8884 82.4297 Q-295.8884 80.6953 -296.6149 79.8047 Q-297.3415 78.9141 -298.7634 78.9141 Q-300.1852 78.9141 -300.9274 79.8125 Q-301.6696 80.7109 -301.6696 82.4297 Z"/><path style="stroke:none;" d="M-303.7165 86.7266 L-304.7165 86.7266 L-304.7165 82.6953 L-309.2321 82.6953 L-309.2321 86.7266 L-310.2321 86.7266 L-310.2321 78.1641 L-309.2321 78.1641 L-309.2321 81.8047 L-304.7165 81.8047 L-304.7165 78.1641 L-303.7165 78.1641 L-303.7165 86.7266 Z"/><path style="stroke:none;" d="M-320.8215 37.4297 Q-320.8215 39.4922 -321.8606 40.6719 Q-322.8996 41.8516 -324.7434 41.8516 Q-326.634 41.8516 -327.6653 40.6875 Q-328.6965 39.5234 -328.6965 37.4141 Q-328.6965 35.3203 -327.6653 34.1719 Q-326.634 33.0234 -324.7434 33.0234 Q-322.884 33.0234 -321.8528 34.1953 Q-320.8215 35.3672 -320.8215 37.4297 ZM-327.6496 37.4297 Q-327.6496 39.1641 -326.9074 40.0703 Q-326.1653 40.9766 -324.7434 40.9766 Q-323.3215 40.9766 -322.5949 40.0781 Q-321.8684 39.1797 -321.8684 37.4297 Q-321.8684 35.6953 -322.5949 34.8047 Q-323.3215 33.9141 -324.7434 33.9141 Q-326.1653 33.9141 -326.9074 34.8125 Q-327.6496 35.7109 -327.6496 37.4297 Z"/><path style="stroke:none;" d="M-329.6965 41.7266 L-330.6965 41.7266 L-330.6965 37.6953 L-335.2121 37.6953 L-335.2121 41.7266 L-336.2121 41.7266 L-336.2121 33.1641 L-335.2121 33.1641 L-335.2121 36.8047 L-330.6965 36.8047 L-330.6965 33.1641 L-329.6965 33.1641 L-329.6965 41.7266 Z"/><path style="fill:none; stroke:black;" d="M-39.403 -7.75 L-38.97 -7.5 L-38.97 -7"/></g><g transform="matrix(1,0,0,1,339,120)" style="stroke-linecap:butt; font-size:8.4px; fill:gray; text-rendering:geometricPrecision; image-rendering:optimizeQuality; color-rendering:optimizeQuality; font-family:'Open Sans'; font-style:italic; stroke:gray; color-interpolation:linearRGB; stroke-miterlimit:5;"><path style="stroke:none;" d="M-43.0788 -16.2969 Q-43.0788 -17.625 -42.61 -18.75 Q-42.1413 -19.875 -41.11 -20.9531 L-40.5006 -20.9531 Q-41.4694 -19.8906 -41.9538 -18.7188 Q-42.4381 -17.5469 -42.4381 -16.3125 Q-42.4381 -14.9844 -42.0006 -13.9688 L-42.5163 -13.9688 Q-43.0788 -15 -43.0788 -16.2969 ZM-37.4562 -16.8906 Q-37.4562 -16.0625 -38.0031 -15.6094 Q-38.55 -15.1562 -39.55 -15.1562 Q-39.9562 -15.1562 -40.2687 -15.2109 Q-40.5812 -15.2656 -40.8625 -15.4062 L-40.8625 -16.0625 Q-40.2375 -15.7344 -39.5343 -15.7344 Q-38.9093 -15.7344 -38.5343 -16.0312 Q-38.1593 -16.3281 -38.1593 -16.8438 Q-38.1593 -17.1562 -38.3625 -17.3828 Q-38.5656 -17.6094 -39.1281 -17.9375 Q-39.7218 -18.2656 -39.9484 -18.5938 Q-40.175 -18.9219 -40.175 -19.375 Q-40.175 -20.1094 -39.6593 -20.5703 Q-39.1437 -21.0312 -38.3 -21.0312 Q-37.925 -21.0312 -37.589 -20.9531 Q-37.2531 -20.875 -36.8781 -20.7031 L-37.1437 -20.1094 Q-37.3937 -20.2656 -37.714 -20.3516 Q-38.0343 -20.4375 -38.3 -20.4375 Q-38.8312 -20.4375 -39.1515 -20.1641 Q-39.4718 -19.8906 -39.4718 -19.4219 Q-39.4718 -19.2188 -39.4015 -19.0703 Q-39.3312 -18.9219 -39.1906 -18.7891 Q-39.05 -18.6562 -38.6281 -18.4062 Q-38.0656 -18.0625 -37.8625 -17.8672 Q-37.6593 -17.6719 -37.5578 -17.4375 Q-37.4562 -17.2031 -37.4562 -16.8906 ZM-34.8617 -18.6094 Q-34.8617 -17.2812 -35.3383 -16.1484 Q-35.8149 -15.0156 -36.8305 -13.9688 L-37.4399 -13.9688 Q-35.5024 -16.125 -35.5024 -18.6094 Q-35.5024 -19.9375 -35.9399 -20.9531 L-35.4242 -20.9531 Q-34.8617 -19.8906 -34.8617 -18.6094 Z"/><path style="stroke:none;" d="M-78.002 -26.3358 Q-78.002 -27.664 -77.5332 -28.789 Q-77.0645 -29.914 -76.0332 -30.9921 L-75.4238 -30.9921 Q-76.3926 -29.9296 -76.877 -28.7577 Q-77.3613 -27.5858 -77.3613 -26.3515 Q-77.3613 -25.0233 -76.9238 -24.0077 L-77.4395 -24.0077 Q-78.002 -25.039 -78.002 -26.3358 ZM-74.4419 -27.6483 L-74.9419 -25.2733 L-75.5982 -25.2733 L-74.395 -30.9921 L-73.145 -30.9921 Q-71.4107 -30.9921 -71.4107 -29.5546 Q-71.4107 -28.1952 -72.8482 -27.8046 L-71.9107 -25.2733 L-72.6294 -25.2733 L-73.4575 -27.6483 L-74.4419 -27.6483 ZM-73.8638 -30.3983 Q-74.2544 -28.4765 -74.3169 -28.2265 L-73.6607 -28.2265 Q-72.9107 -28.2265 -72.5044 -28.5546 Q-72.0982 -28.8827 -72.0982 -29.5077 Q-72.0982 -29.9765 -72.356 -30.1874 Q-72.6138 -30.3983 -73.2075 -30.3983 L-73.8638 -30.3983 ZM-69.2247 -28.6483 Q-69.2247 -27.3202 -69.7012 -26.1874 Q-70.1778 -25.0546 -71.1934 -24.0077 L-71.8028 -24.0077 Q-69.8653 -26.164 -69.8653 -28.6483 Q-69.8653 -29.9765 -70.3028 -30.9921 L-69.7872 -30.9921 Q-69.2247 -29.9296 -69.2247 -28.6483 Z"/></g><g transform="matrix(1,0,0,1,339,120)" style="stroke-linecap:butt; fill:rgb(230,0,0); text-rendering:geometricPrecision; color-rendering:optimizeQuality; image-rendering:optimizeQuality; font-family:'Open Sans'; stroke:rgb(230,0,0); color-interpolation:linearRGB; stroke-miterlimit:5;"><path style="stroke:none;" d="M-35.0325 22.4297 Q-35.0325 24.4922 -36.0716 25.6719 Q-37.1106 26.8516 -38.9544 26.8516 Q-40.845 26.8516 -41.8763 25.6875 Q-42.9075 24.5234 -42.9075 22.4141 Q-42.9075 20.3203 -41.8763 19.1719 Q-40.845 18.0234 -38.9544 18.0234 Q-37.095 18.0234 -36.0638 19.1953 Q-35.0325 20.3672 -35.0325 22.4297 ZM-41.8606 22.4297 Q-41.8606 24.1641 -41.1184 25.0703 Q-40.3763 25.9766 -38.9544 25.9766 Q-37.5325 25.9766 -36.8059 25.0781 Q-36.0794 24.1797 -36.0794 22.4297 Q-36.0794 20.6953 -36.8059 19.8047 Q-37.5325 18.9141 -38.9544 18.9141 Q-40.3763 18.9141 -41.1184 19.8125 Q-41.8606 20.7109 -41.8606 22.4297 Z"/><path style="fill:none; stroke:black;" d="M-90.5 -7.75 L-90.933 -7.5 L-90.933 -7"/></g><g transform="matrix(1,0,0,1,339,120)" style="stroke-linecap:butt; font-size:8.4px; fill:gray; text-rendering:geometricPrecision; image-rendering:optimizeQuality; color-rendering:optimizeQuality; font-family:'Open Sans'; font-style:italic; stroke:gray; color-interpolation:linearRGB; stroke-miterlimit:5;"><path style="stroke:none;" d="M-95.3216 -16.3359 Q-95.3216 -17.6641 -94.8529 -18.7891 Q-94.3841 -19.9141 -93.3529 -20.9922 L-92.7435 -20.9922 Q-93.7123 -19.9297 -94.1966 -18.7578 Q-94.681 -17.5859 -94.681 -16.3516 Q-94.681 -15.0234 -94.2435 -14.0078 L-94.7591 -14.0078 Q-95.3216 -15.0391 -95.3216 -16.3359 ZM-91.7616 -17.6484 L-92.2616 -15.2734 L-92.9178 -15.2734 L-91.7147 -20.9922 L-90.4647 -20.9922 Q-88.7303 -20.9922 -88.7303 -19.5547 Q-88.7303 -18.1953 -90.1678 -17.8047 L-89.2303 -15.2734 L-89.9491 -15.2734 L-90.7772 -17.6484 L-91.7616 -17.6484 ZM-91.1835 -20.3984 Q-91.5741 -18.4766 -91.6366 -18.2266 L-90.9803 -18.2266 Q-90.2303 -18.2266 -89.8241 -18.5547 Q-89.4178 -18.8828 -89.4178 -19.5078 Q-89.4178 -19.9766 -89.6756 -20.1875 Q-89.9335 -20.3984 -90.5272 -20.3984 L-91.1835 -20.3984 ZM-86.5444 -18.6484 Q-86.5444 -17.3203 -87.0209 -16.1875 Q-87.4975 -15.0547 -88.5131 -14.0078 L-89.1225 -14.0078 Q-87.185 -16.1641 -87.185 -18.6484 Q-87.185 -19.9766 -87.6225 -20.9922 L-87.1069 -20.9922 Q-86.5444 -19.9297 -86.5444 -18.6484 Z"/><path style="fill:none; stroke:black;" d="M-64.52 37.25 L-64.953 37.5 L-65.386 37.25"/><path style="stroke:none;" d="M-69.3414 28.6641 Q-69.3414 27.3359 -68.8726 26.2109 Q-68.4039 25.0859 -67.3726 24.0078 L-66.7633 24.0078 Q-67.732 25.0703 -68.2164 26.2422 Q-68.7008 27.4141 -68.7008 28.6484 Q-68.7008 29.9766 -68.2633 30.9922 L-68.7789 30.9922 Q-69.3414 29.9609 -69.3414 28.6641 ZM-65.7813 27.3516 L-66.2813 29.7266 L-66.9376 29.7266 L-65.7345 24.0078 L-64.4845 24.0078 Q-62.7501 24.0078 -62.7501 25.4453 Q-62.7501 26.8047 -64.1876 27.1953 L-63.2501 29.7266 L-63.9688 29.7266 L-64.797 27.3516 L-65.7813 27.3516 ZM-65.2032 24.6016 Q-65.5938 26.5234 -65.6563 26.7734 L-65.0001 26.7734 Q-64.2501 26.7734 -63.8438 26.4453 Q-63.4376 26.1172 -63.4376 25.4922 Q-63.4376 25.0234 -63.6954 24.8125 Q-63.9532 24.6016 -64.547 24.6016 L-65.2032 24.6016 ZM-60.5641 26.3516 Q-60.5641 27.6797 -61.0407 28.8125 Q-61.5172 29.9453 -62.5329 30.9922 L-63.1422 30.9922 Q-61.2047 28.8359 -61.2047 26.3516 Q-61.2047 25.0234 -61.6422 24.0078 L-61.1266 24.0078 Q-60.5641 25.0703 -60.5641 26.3516 Z"/><path style="stroke:none;" d="M-103.7017 18.703 Q-103.7017 17.3749 -103.233 16.2499 Q-102.7642 15.1249 -101.733 14.0468 L-101.1236 14.0468 Q-102.0923 15.1093 -102.5767 16.2811 Q-103.0611 17.453 -103.0611 18.6874 Q-103.0611 20.0155 -102.6236 21.0311 L-103.1392 21.0311 Q-103.7017 19.9999 -103.7017 18.703 ZM-98.0791 18.1093 Q-98.0791 18.9374 -98.626 19.3905 Q-99.1729 19.8436 -100.1729 19.8436 Q-100.5791 19.8436 -100.8916 19.789 Q-101.2041 19.7343 -101.4854 19.5936 L-101.4854 18.9374 Q-100.8604 19.2655 -100.1573 19.2655 Q-99.5323 19.2655 -99.1573 18.9686 Q-98.7823 18.6718 -98.7823 18.1561 Q-98.7823 17.8436 -98.9854 17.6171 Q-99.1885 17.3905 -99.751 17.0624 Q-100.3448 16.7343 -100.5713 16.4061 Q-100.7979 16.078 -100.7979 15.6249 Q-100.7979 14.8905 -100.2823 14.4296 Q-99.7666 13.9686 -98.9229 13.9686 Q-98.5479 13.9686 -98.212 14.0468 Q-97.876 14.1249 -97.501 14.2968 L-97.7666 14.8905 Q-98.0166 14.7343 -98.337 14.6483 Q-98.6573 14.5624 -98.9229 14.5624 Q-99.4541 14.5624 -99.7745 14.8358 Q-100.0948 15.1093 -100.0948 15.578 Q-100.0948 15.7811 -100.0245 15.9296 Q-99.9541 16.078 -99.8135 16.2108 Q-99.6729 16.3436 -99.251 16.5936 Q-98.6885 16.9374 -98.4854 17.1327 Q-98.2823 17.328 -98.1807 17.5624 Q-98.0791 17.7968 -98.0791 18.1093 ZM-95.4847 16.3905 Q-95.4847 17.7186 -95.9612 18.8515 Q-96.4378 19.9843 -97.4534 21.0311 L-98.0628 21.0311 Q-96.1253 18.8749 -96.1253 16.3905 Q-96.1253 15.0624 -96.5628 14.0468 L-96.0472 14.0468 Q-95.4847 15.1093 -95.4847 16.3905 Z"/><path style="fill:none; stroke:black;" d="M13.423 -7.75 L12.99 -7.5 L12.99 -7"/><path style="stroke:none;" d="M8.8815 -16.2969 Q8.8815 -17.625 9.3502 -18.75 Q9.819 -19.875 10.8502 -20.9531 L11.4596 -20.9531 Q10.4909 -19.8906 10.0065 -18.7188 Q9.5221 -17.5469 9.5221 -16.3125 Q9.5221 -14.9844 9.9596 -13.9688 L9.444 -13.9688 Q8.8815 -15 8.8815 -16.2969 ZM14.504 -16.8906 Q14.504 -16.0625 13.9572 -15.6094 Q13.4103 -15.1562 12.4103 -15.1562 Q12.004 -15.1562 11.6915 -15.2109 Q11.379 -15.2656 11.0978 -15.4062 L11.0978 -16.0625 Q11.7228 -15.7344 12.4259 -15.7344 Q13.0509 -15.7344 13.4259 -16.0312 Q13.8009 -16.3281 13.8009 -16.8438 Q13.8009 -17.1562 13.5978 -17.3828 Q13.3947 -17.6094 12.8322 -17.9375 Q12.2384 -18.2656 12.0119 -18.5938 Q11.7853 -18.9219 11.7853 -19.375 Q11.7853 -20.1094 12.3009 -20.5703 Q12.8165 -21.0312 13.6603 -21.0312 Q14.0353 -21.0312 14.3712 -20.9531 Q14.7072 -20.875 15.0822 -20.7031 L14.8165 -20.1094 Q14.5665 -20.2656 14.2462 -20.3516 Q13.9259 -20.4375 13.6603 -20.4375 Q13.129 -20.4375 12.8087 -20.1641 Q12.4884 -19.8906 12.4884 -19.4219 Q12.4884 -19.2188 12.5587 -19.0703 Q12.629 -18.9219 12.7697 -18.7891 Q12.9103 -18.6562 13.3322 -18.4062 Q13.8947 -18.0625 14.0978 -17.8672 Q14.3009 -17.6719 14.4025 -17.4375 Q14.504 -17.2031 14.504 -16.8906 ZM17.0985 -18.6094 Q17.0985 -17.2812 16.622 -16.1484 Q16.1454 -15.0156 15.1298 -13.9688 L14.5204 -13.9688 Q16.4579 -16.125 16.4579 -18.6094 Q16.4579 -19.9375 16.0204 -20.9531 L16.536 -20.9531 Q17.0985 -19.8906 17.0985 -18.6094 Z"/><path style="stroke:none;" d="M25.921 -26.3358 Q25.921 -27.664 26.3898 -28.789 Q26.8585 -29.914 27.8898 -30.9921 L28.4992 -30.9921 Q27.5304 -29.9296 27.046 -28.7577 Q26.5617 -27.5858 26.5617 -26.3515 Q26.5617 -25.0233 26.9992 -24.0077 L26.4835 -24.0077 Q25.921 -25.039 25.921 -26.3358 ZM29.4811 -27.6483 L28.9811 -25.2733 L28.3249 -25.2733 L29.528 -30.9921 L30.778 -30.9921 Q32.5124 -30.9921 32.5124 -29.5546 Q32.5124 -28.1952 31.0749 -27.8046 L32.0124 -25.2733 L31.2936 -25.2733 L30.4655 -27.6483 L29.4811 -27.6483 ZM30.0592 -30.3983 Q29.6686 -28.4765 29.6061 -28.2265 L30.2624 -28.2265 Q31.0124 -28.2265 31.4186 -28.5546 Q31.8249 -28.8827 31.8249 -29.5077 Q31.8249 -29.9765 31.567 -30.1874 Q31.3092 -30.3983 30.7155 -30.3983 L30.0592 -30.3983 ZM34.6983 -28.6483 Q34.6983 -27.3202 34.2218 -26.1874 Q33.7452 -25.0546 32.7296 -24.0077 L32.1202 -24.0077 Q34.0577 -26.164 34.0577 -28.6483 Q34.0577 -29.9765 33.6202 -30.9921 L34.1358 -30.9921 Q34.6983 -29.9296 34.6983 -28.6483 Z"/><path style="stroke:none;" d="M-0.0588 18.664 Q-0.0588 17.3358 0.4099 16.2108 Q0.8787 15.0858 1.9099 14.0077 L2.5193 14.0077 Q1.5505 15.0702 1.0662 16.2421 Q0.5818 17.414 0.5818 18.6483 Q0.5818 19.9765 1.0193 20.9921 L0.5037 20.9921 Q-0.0588 19.9608 -0.0588 18.664 ZM3.5012 17.3515 L3.0012 19.7265 L2.345 19.7265 L3.5481 14.0077 L4.7981 14.0077 Q6.5325 14.0077 6.5325 15.4452 Q6.5325 16.8046 5.095 17.1952 L6.0325 19.7265 L5.3137 19.7265 L4.4856 17.3515 L3.5012 17.3515 ZM4.0794 14.6015 Q3.6887 16.5233 3.6262 16.7733 L4.2825 16.7733 Q5.0325 16.7733 5.4387 16.4452 Q5.845 16.1171 5.845 15.4921 Q5.845 15.0233 5.5872 14.8124 Q5.3294 14.6015 4.7356 14.6015 L4.0794 14.6015 ZM8.7185 16.3515 Q8.7185 17.6796 8.2419 18.8124 Q7.7653 19.9452 6.7497 20.9921 L6.1403 20.9921 Q8.0778 18.8358 8.0778 16.3515 Q8.0778 15.0233 7.6403 14.0077 L8.156 14.0077 Q8.7185 15.0702 8.7185 16.3515 Z"/></g><g transform="matrix(1,0,0,1,339,120)" style="stroke-linecap:butt; fill:rgb(230,0,0); text-rendering:geometricPrecision; color-rendering:optimizeQuality; image-rendering:optimizeQuality; font-family:'Open Sans'; stroke:rgb(230,0,0); color-interpolation:linearRGB; stroke-miterlimit:5;"><path style="stroke:none;" d="M68.8905 -7.5703 Q68.8905 -5.5078 67.8514 -4.3281 Q66.8124 -3.1484 64.9686 -3.1484 Q63.078 -3.1484 62.0468 -4.3125 Q61.0155 -5.4766 61.0155 -7.5859 Q61.0155 -9.6797 62.0468 -10.8281 Q63.078 -11.9766 64.9686 -11.9766 Q66.828 -11.9766 67.8593 -10.8047 Q68.8905 -9.6328 68.8905 -7.5703 ZM62.0624 -7.5703 Q62.0624 -5.8359 62.8046 -4.9297 Q63.5468 -4.0234 64.9686 -4.0234 Q66.3905 -4.0234 67.1171 -4.9219 Q67.8436 -5.8203 67.8436 -7.5703 Q67.8436 -9.3047 67.1171 -10.1953 Q66.3905 -11.0859 64.9686 -11.0859 Q63.5468 -11.0859 62.8046 -10.1875 Q62.0624 -9.2891 62.0624 -7.5703 Z"/><path style="fill:none; stroke:black;" d="M38.537 37.25 L38.97 37.5 L39.403 37.25"/></g><g transform="matrix(1,0,0,1,339,120)" style="stroke-linecap:butt; font-size:8.4px; fill:gray; text-rendering:geometricPrecision; image-rendering:optimizeQuality; color-rendering:optimizeQuality; font-family:'Open Sans'; font-style:italic; stroke:gray; color-interpolation:linearRGB; stroke-miterlimit:5;"><path style="stroke:none;" d="M34.5816 28.6641 Q34.5816 27.3359 35.0504 26.2109 Q35.5191 25.0859 36.5504 24.0078 L37.1597 24.0078 Q36.191 25.0703 35.7066 26.2422 Q35.2222 27.4141 35.2222 28.6484 Q35.2222 29.9766 35.6597 30.9922 L35.1441 30.9922 Q34.5816 29.9609 34.5816 28.6641 ZM38.1417 27.3516 L37.6417 29.7266 L36.9854 29.7266 L38.1885 24.0078 L39.4385 24.0078 Q41.1729 24.0078 41.1729 25.4453 Q41.1729 26.8047 39.7354 27.1953 L40.6729 29.7266 L39.9542 29.7266 L39.126 27.3516 L38.1417 27.3516 ZM38.7198 24.6016 Q38.3292 26.5234 38.2667 26.7734 L38.9229 26.7734 Q39.6729 26.7734 40.0792 26.4453 Q40.4854 26.1172 40.4854 25.4922 Q40.4854 25.0234 40.2276 24.8125 Q39.9698 24.6016 39.376 24.6016 L38.7198 24.6016 ZM43.3589 26.3516 Q43.3589 27.6797 42.8823 28.8125 Q42.4058 29.9453 41.3901 30.9922 L40.7808 30.9922 Q42.7183 28.8359 42.7183 26.3516 Q42.7183 25.0234 42.2808 24.0078 L42.7964 24.0078 Q43.3589 25.0703 43.3589 26.3516 Z"/><path style="stroke:none;" d="M52.1842 18.7032 Q52.1842 17.3751 52.6529 16.2501 Q53.1217 15.1251 54.1529 14.047 L54.7623 14.047 Q53.7935 15.1095 53.3092 16.2814 Q52.8248 17.4532 52.8248 18.6876 Q52.8248 20.0157 53.2623 21.0314 L52.7467 21.0314 Q52.1842 20.0001 52.1842 18.7032 ZM57.8067 18.1095 Q57.8067 18.9376 57.2598 19.3907 Q56.713 19.8439 55.713 19.8439 Q55.3067 19.8439 54.9942 19.7892 Q54.6817 19.7345 54.4005 19.5939 L54.4005 18.9376 Q55.0255 19.2657 55.7286 19.2657 Q56.3536 19.2657 56.7286 18.9689 Q57.1036 18.672 57.1036 18.1564 Q57.1036 17.8439 56.9005 17.6173 Q56.6973 17.3907 56.1348 17.0626 Q55.5411 16.7345 55.3145 16.4064 Q55.088 16.0782 55.088 15.6251 Q55.088 14.8907 55.6036 14.4298 Q56.1192 13.9689 56.963 13.9689 Q57.338 13.9689 57.6739 14.047 Q58.0098 14.1251 58.3848 14.297 L58.1192 14.8907 Q57.8692 14.7345 57.5489 14.6485 Q57.2286 14.5626 56.963 14.5626 Q56.4317 14.5626 56.1114 14.836 Q55.7911 15.1095 55.7911 15.5782 Q55.7911 15.7814 55.8614 15.9298 Q55.9317 16.0782 56.0723 16.211 Q56.213 16.3439 56.6348 16.5939 Q57.1973 16.9376 57.4005 17.1329 Q57.6036 17.3282 57.7052 17.5626 Q57.8067 17.797 57.8067 18.1095 ZM60.4012 16.3907 Q60.4012 17.7189 59.9246 18.8517 Q59.4481 19.9845 58.4325 21.0314 L57.8231 21.0314 Q59.7606 18.8751 59.7606 16.3907 Q59.7606 15.0626 59.3231 14.047 L59.8387 14.047 Q60.4012 15.1095 60.4012 16.3907 Z"/><path style="stroke:none;" d="M-155.6618 18.7032 Q-155.6618 17.3751 -155.1931 16.2501 Q-154.7243 15.1251 -153.6931 14.047 L-153.0837 14.047 Q-154.0525 15.1095 -154.5368 16.2814 Q-155.0212 17.4532 -155.0212 18.6876 Q-155.0212 20.0157 -154.5837 21.0314 L-155.0993 21.0314 Q-155.6618 20.0001 -155.6618 18.7032 ZM-150.0393 18.1095 Q-150.0393 18.9376 -150.5862 19.3907 Q-151.133 19.8439 -152.133 19.8439 Q-152.5393 19.8439 -152.8518 19.7892 Q-153.1643 19.7345 -153.4455 19.5939 L-153.4455 18.9376 Q-152.8205 19.2657 -152.1174 19.2657 Q-151.4924 19.2657 -151.1174 18.9689 Q-150.7424 18.672 -150.7424 18.1564 Q-150.7424 17.8439 -150.9455 17.6173 Q-151.1487 17.3907 -151.7112 17.0626 Q-152.3049 16.7345 -152.5315 16.4064 Q-152.758 16.0782 -152.758 15.6251 Q-152.758 14.8907 -152.2424 14.4298 Q-151.7268 13.9689 -150.883 13.9689 Q-150.508 13.9689 -150.1721 14.047 Q-149.8362 14.1251 -149.4612 14.297 L-149.7268 14.8907 Q-149.9768 14.7345 -150.2971 14.6485 Q-150.6174 14.5626 -150.883 14.5626 Q-151.4143 14.5626 -151.7346 14.836 Q-152.0549 15.1095 -152.0549 15.5782 Q-152.0549 15.7814 -151.9846 15.9298 Q-151.9143 16.0782 -151.7737 16.211 Q-151.633 16.3439 -151.2112 16.5939 Q-150.6487 16.9376 -150.4455 17.1329 Q-150.2424 17.3282 -150.1408 17.5626 Q-150.0393 17.797 -150.0393 18.1095 ZM-147.4448 16.3907 Q-147.4448 17.7189 -147.9214 18.8517 Q-148.3979 19.9845 -149.4135 21.0314 L-150.0229 21.0314 Q-148.0854 18.8751 -148.0854 16.3907 Q-148.0854 15.0626 -148.5229 14.047 L-148.0073 14.047 Q-147.4448 15.1095 -147.4448 16.3907 Z"/><path style="fill:none; stroke:black;" d="M-168.443 37.25 L-168.876 37.5 L-169.309 37.25"/><path style="stroke:none;" d="M-173.2644 28.6641 Q-173.2644 27.3359 -172.7957 26.2109 Q-172.3269 25.0859 -171.2957 24.0078 L-170.6863 24.0078 Q-171.655 25.0703 -172.1394 26.2422 Q-172.6238 27.4141 -172.6238 28.6484 Q-172.6238 29.9766 -172.1863 30.9922 L-172.7019 30.9922 Q-173.2644 29.9609 -173.2644 28.6641 ZM-169.7043 27.3516 L-170.2043 29.7266 L-170.8606 29.7266 L-169.6575 24.0078 L-168.4075 24.0078 Q-166.6731 24.0078 -166.6731 25.4453 Q-166.6731 26.8047 -168.1106 27.1953 L-167.1731 29.7266 L-167.8918 29.7266 L-168.72 27.3516 L-169.7043 27.3516 ZM-169.1262 24.6016 Q-169.5168 26.5234 -169.5793 26.7734 L-168.9231 26.7734 Q-168.1731 26.7734 -167.7668 26.4453 Q-167.3606 26.1172 -167.3606 25.4922 Q-167.3606 25.0234 -167.6184 24.8125 Q-167.8762 24.6016 -168.47 24.6016 L-169.1262 24.6016 ZM-164.4871 26.3516 Q-164.4871 27.6797 -164.9637 28.8125 Q-165.4402 29.9453 -166.4559 30.9922 L-167.0652 30.9922 Q-165.1277 28.8359 -165.1277 26.3516 Q-165.1277 25.0234 -165.5652 24.0078 L-165.0496 24.0078 Q-164.4871 25.0703 -164.4871 26.3516 Z"/></g><g transform="matrix(1,0,0,1,339,120)" style="stroke-linecap:butt; fill:rgb(230,0,0); text-rendering:geometricPrecision; color-rendering:optimizeQuality; image-rendering:optimizeQuality; font-family:'Open Sans'; stroke:rgb(230,0,0); color-interpolation:linearRGB; stroke-miterlimit:5;"><path style="stroke:none;" d="M-138.9555 -7.5703 Q-138.9555 -5.5078 -139.9946 -4.3281 Q-141.0336 -3.1484 -142.8774 -3.1484 Q-144.768 -3.1484 -145.7993 -4.3125 Q-146.8305 -5.4766 -146.8305 -7.5859 Q-146.8305 -9.6797 -145.7993 -10.8281 Q-144.768 -11.9766 -142.8774 -11.9766 Q-141.018 -11.9766 -139.9868 -10.8047 Q-138.9555 -9.6328 -138.9555 -7.5703 ZM-145.7836 -7.5703 Q-145.7836 -5.8359 -145.0414 -4.9297 Q-144.2993 -4.0234 -142.8774 -4.0234 Q-141.4555 -4.0234 -140.7289 -4.9219 Q-140.0024 -5.8203 -140.0024 -7.5703 Q-140.0024 -9.3047 -140.7289 -10.1953 Q-141.4555 -11.0859 -142.8774 -11.0859 Q-144.2993 -11.0859 -145.0414 -10.1875 Q-145.7836 -9.2891 -145.7836 -7.5703 Z"/></g><g transform="matrix(1,0,0,1,339,120)" style="stroke-linecap:butt; font-size:8.4px; fill:gray; text-rendering:geometricPrecision; image-rendering:optimizeQuality; color-rendering:optimizeQuality; font-family:'Open Sans'; font-style:italic; stroke:gray; color-interpolation:linearRGB; stroke-miterlimit:5;"><path style="stroke:none;" d="M-207.9048 18.664 Q-207.9048 17.3358 -207.4361 16.2108 Q-206.9673 15.0858 -205.9361 14.0077 L-205.3267 14.0077 Q-206.2955 15.0702 -206.7798 16.2421 Q-207.2642 17.414 -207.2642 18.6483 Q-207.2642 19.9765 -206.8267 20.9921 L-207.3423 20.9921 Q-207.9048 19.9608 -207.9048 18.664 ZM-204.3448 17.3515 L-204.8448 19.7265 L-205.501 19.7265 L-204.2979 14.0077 L-203.0479 14.0077 Q-201.3135 14.0077 -201.3135 15.4452 Q-201.3135 16.8046 -202.751 17.1952 L-201.8135 19.7265 L-202.5323 19.7265 L-203.3604 17.3515 L-204.3448 17.3515 ZM-203.7666 14.6015 Q-204.1573 16.5233 -204.2198 16.7733 L-203.5635 16.7733 Q-202.8135 16.7733 -202.4073 16.4452 Q-202.001 16.1171 -202.001 15.4921 Q-202.001 15.0233 -202.2588 14.8124 Q-202.5166 14.6015 -203.1104 14.6015 L-203.7666 14.6015 ZM-199.1275 16.3515 Q-199.1275 17.6796 -199.6041 18.8124 Q-200.0807 19.9452 -201.0963 20.9921 L-201.7057 20.9921 Q-199.7682 18.8358 -199.7682 16.3515 Q-199.7682 15.0233 -200.2057 14.0077 L-199.69 14.0077 Q-199.1275 15.0702 -199.1275 16.3515 Z"/><path style="stroke:none;" d="M-181.925 -26.3358 Q-181.925 -27.664 -181.4562 -28.789 Q-180.9875 -29.914 -179.9562 -30.9921 L-179.3468 -30.9921 Q-180.3156 -29.9296 -180.8 -28.7577 Q-181.2843 -27.5858 -181.2843 -26.3515 Q-181.2843 -25.0233 -180.8468 -24.0077 L-181.3625 -24.0077 Q-181.925 -25.039 -181.925 -26.3358 ZM-178.3649 -27.6483 L-178.8649 -25.2733 L-179.5211 -25.2733 L-178.318 -30.9921 L-177.068 -30.9921 Q-175.3336 -30.9921 -175.3336 -29.5546 Q-175.3336 -28.1952 -176.7711 -27.8046 L-175.8336 -25.2733 L-176.5524 -25.2733 L-177.3805 -27.6483 L-178.3649 -27.6483 ZM-177.7868 -30.3983 Q-178.1774 -28.4765 -178.2399 -28.2265 L-177.5836 -28.2265 Q-176.8336 -28.2265 -176.4274 -28.5546 Q-176.0211 -28.8827 -176.0211 -29.5077 Q-176.0211 -29.9765 -176.279 -30.1874 Q-176.5368 -30.3983 -177.1305 -30.3983 L-177.7868 -30.3983 ZM-173.1477 -28.6483 Q-173.1477 -27.3202 -173.6242 -26.1874 Q-174.1008 -25.0546 -175.1164 -24.0077 L-175.7258 -24.0077 Q-173.7883 -26.164 -173.7883 -28.6483 Q-173.7883 -29.9765 -174.2258 -30.9921 L-173.7102 -30.9921 Q-173.1477 -29.9296 -173.1477 -28.6483 Z"/><path style="fill:none; stroke:black;" d="M-194.856 -7 L-194.856 -7.5 L-194.423 -7.75"/><path style="stroke:none;" d="M-198.9645 -16.2969 Q-198.9645 -17.625 -198.4958 -18.75 Q-198.027 -19.875 -196.9958 -20.9531 L-196.3864 -20.9531 Q-197.3551 -19.8906 -197.8395 -18.7188 Q-198.3239 -17.5469 -198.3239 -16.3125 Q-198.3239 -14.9844 -197.8864 -13.9688 L-198.402 -13.9688 Q-198.9645 -15 -198.9645 -16.2969 ZM-193.342 -16.8906 Q-193.342 -16.0625 -193.8888 -15.6094 Q-194.4357 -15.1562 -195.4357 -15.1562 Q-195.842 -15.1562 -196.1545 -15.2109 Q-196.467 -15.2656 -196.7482 -15.4062 L-196.7482 -16.0625 Q-196.1232 -15.7344 -195.4201 -15.7344 Q-194.7951 -15.7344 -194.4201 -16.0312 Q-194.0451 -16.3281 -194.0451 -16.8438 Q-194.0451 -17.1562 -194.2482 -17.3828 Q-194.4513 -17.6094 -195.0138 -17.9375 Q-195.6076 -18.2656 -195.8342 -18.5938 Q-196.0607 -18.9219 -196.0607 -19.375 Q-196.0607 -20.1094 -195.5451 -20.5703 Q-195.0295 -21.0312 -194.1857 -21.0312 Q-193.8107 -21.0312 -193.4748 -20.9531 Q-193.1388 -20.875 -192.7638 -20.7031 L-193.0295 -20.1094 Q-193.2795 -20.2656 -193.5998 -20.3516 Q-193.9201 -20.4375 -194.1857 -20.4375 Q-194.717 -20.4375 -195.0373 -20.1641 Q-195.3576 -19.8906 -195.3576 -19.4219 Q-195.3576 -19.2188 -195.2873 -19.0703 Q-195.217 -18.9219 -195.0763 -18.7891 Q-194.9357 -18.6562 -194.5138 -18.4062 Q-193.9513 -18.0625 -193.7482 -17.8672 Q-193.5451 -17.6719 -193.4435 -17.4375 Q-193.342 -17.2031 -193.342 -16.8906 ZM-190.7475 -18.6094 Q-190.7475 -17.2812 -191.224 -16.1484 Q-191.7006 -15.0156 -192.7162 -13.9688 L-193.3256 -13.9688 Q-191.3881 -16.125 -191.3881 -18.6094 Q-191.3881 -19.9375 -191.8256 -20.9531 L-191.31 -20.9531 Q-190.7475 -19.8906 -190.7475 -18.6094 Z"/><path style="fill:none; stroke:black;" d="M116.913 22 L116.913 22.5 L117.346 22.75"/><path style="stroke:none;" d="M104.1443 18.703 Q104.1443 17.3749 104.613 16.2499 Q105.0818 15.1249 106.113 14.0468 L106.7224 14.0468 Q105.7537 15.1093 105.2693 16.2811 Q104.7849 17.453 104.7849 18.6874 Q104.7849 20.0155 105.2224 21.0311 L104.7068 21.0311 Q104.1443 19.9999 104.1443 18.703 ZM109.7668 18.1093 Q109.7668 18.9374 109.22 19.3905 Q108.6731 19.8436 107.6731 19.8436 Q107.2668 19.8436 106.9543 19.789 Q106.6418 19.7343 106.3606 19.5936 L106.3606 18.9374 Q106.9856 19.2655 107.6887 19.2655 Q108.3137 19.2655 108.6887 18.9686 Q109.0637 18.6718 109.0637 18.1561 Q109.0637 17.8436 108.8606 17.6171 Q108.6575 17.3905 108.095 17.0624 Q107.5012 16.7343 107.2747 16.4061 Q107.0481 16.078 107.0481 15.6249 Q107.0481 14.8905 107.5637 14.4296 Q108.0793 13.9686 108.9231 13.9686 Q109.2981 13.9686 109.634 14.0468 Q109.97 14.1249 110.345 14.2968 L110.0793 14.8905 Q109.8293 14.7343 109.509 14.6483 Q109.1887 14.5624 108.9231 14.5624 Q108.3918 14.5624 108.0715 14.8358 Q107.7512 15.1093 107.7512 15.578 Q107.7512 15.7811 107.8215 15.9296 Q107.8918 16.078 108.0325 16.2108 Q108.1731 16.3436 108.595 16.5936 Q109.1575 16.9374 109.3606 17.1327 Q109.5637 17.328 109.6653 17.5624 Q109.7668 17.7968 109.7668 18.1093 ZM112.3613 16.3905 Q112.3613 17.7186 111.8848 18.8515 Q111.4082 19.9843 110.3926 21.0311 L109.7832 21.0311 Q111.7207 18.8749 111.7207 16.3905 Q111.7207 15.0624 111.2832 14.0468 L111.7988 14.0468 Q112.3613 15.1093 112.3613 16.3905 Z"/><path style="stroke:none;" d="M112.5244 -16.3359 Q112.5244 -17.6641 112.9931 -18.7891 Q113.4619 -19.9141 114.4931 -20.9922 L115.1025 -20.9922 Q114.1337 -19.9297 113.6494 -18.7578 Q113.165 -17.5859 113.165 -16.3516 Q113.165 -15.0234 113.6025 -14.0078 L113.0869 -14.0078 Q112.5244 -15.0391 112.5244 -16.3359 ZM116.0844 -17.6484 L115.5844 -15.2734 L114.9282 -15.2734 L116.1313 -20.9922 L117.3813 -20.9922 Q119.1157 -20.9922 119.1157 -19.5547 Q119.1157 -18.1953 117.6782 -17.8047 L118.6157 -15.2734 L117.8969 -15.2734 L117.0688 -17.6484 L116.0844 -17.6484 ZM116.6625 -20.3984 Q116.2719 -18.4766 116.2094 -18.2266 L116.8657 -18.2266 Q117.6157 -18.2266 118.0219 -18.5547 Q118.4282 -18.8828 118.4282 -19.5078 Q118.4282 -19.9766 118.1704 -20.1875 Q117.9125 -20.3984 117.3188 -20.3984 L116.6625 -20.3984 ZM121.3016 -18.6484 Q121.3016 -17.3203 120.8251 -16.1875 Q120.3485 -15.0547 119.3329 -14.0078 L118.7235 -14.0078 Q120.661 -16.1641 120.661 -18.6484 Q120.661 -19.9766 120.2235 -20.9922 L120.7391 -20.9922 Q121.3016 -19.9297 121.3016 -18.6484 Z"/><path style="stroke:none;" d="M138.5046 28.6641 Q138.5046 27.3359 138.9734 26.2109 Q139.4421 25.0859 140.4734 24.0078 L141.0827 24.0078 Q140.114 25.0703 139.6296 26.2422 Q139.1452 27.4141 139.1452 28.6484 Q139.1452 29.9766 139.5827 30.9922 L139.0671 30.9922 Q138.5046 29.9609 138.5046 28.6641 ZM142.0647 27.3516 L141.5647 29.7266 L140.9084 29.7266 L142.1115 24.0078 L143.3615 24.0078 Q145.0959 24.0078 145.0959 25.4453 Q145.0959 26.8047 143.6584 27.1953 L144.5959 29.7266 L143.8772 29.7266 L143.049 27.3516 L142.0647 27.3516 ZM142.6428 24.6016 Q142.2522 26.5234 142.1897 26.7734 L142.8459 26.7734 Q143.5959 26.7734 144.0022 26.4453 Q144.4084 26.1172 144.4084 25.4922 Q144.4084 25.0234 144.1506 24.8125 Q143.8928 24.6016 143.299 24.6016 L142.6428 24.6016 ZM147.2819 26.3516 Q147.2819 27.6797 146.8053 28.8125 Q146.3288 29.9453 145.3131 30.9922 L144.7038 30.9922 Q146.6413 28.8359 146.6413 26.3516 Q146.6413 25.0234 146.2038 24.0078 L146.7194 24.0078 Q147.2819 25.0703 147.2819 26.3516 Z"/></g><g transform="matrix(1,0,0,1,339,120)" style="stroke-linecap:butt; fill:rgb(230,0,0); text-rendering:geometricPrecision; color-rendering:optimizeQuality; image-rendering:optimizeQuality; font-family:'Open Sans'; stroke:rgb(230,0,0); color-interpolation:linearRGB; stroke-miterlimit:5;"><path style="stroke:none;" d="M146.8305 -22.5703 Q146.8305 -20.5078 145.7914 -19.3281 Q144.7524 -18.1484 142.9086 -18.1484 Q141.018 -18.1484 139.9868 -19.3125 Q138.9555 -20.4766 138.9555 -22.5859 Q138.9555 -24.6797 139.9868 -25.8281 Q141.018 -26.9766 142.9086 -26.9766 Q144.768 -26.9766 145.7993 -25.8047 Q146.8305 -24.6328 146.8305 -22.5703 ZM140.0024 -22.5703 Q140.0024 -20.8359 140.7446 -19.9297 Q141.4868 -19.0234 142.9086 -19.0234 Q144.3305 -19.0234 145.0571 -19.9219 Q145.7836 -20.8203 145.7836 -22.5703 Q145.7836 -24.3047 145.0571 -25.1953 Q144.3305 -26.0859 142.9086 -26.0859 Q141.4868 -26.0859 140.7446 -25.1875 Q140.0024 -24.2891 140.0024 -22.5703 Z"/><path style="fill:none; stroke:black;" d="M168.443 22.75 L168.876 22.5 L168.876 22"/></g><g transform="matrix(1,0,0,1,339,120)" style="stroke-linecap:butt; font-size:8.4px; fill:gray; text-rendering:geometricPrecision; image-rendering:optimizeQuality; color-rendering:optimizeQuality; font-family:'Open Sans'; font-style:italic; stroke:gray; color-interpolation:linearRGB; stroke-miterlimit:5;"><path style="stroke:none;" d="M155.8271 18.6642 Q155.8271 17.336 156.2958 16.211 Q156.7646 15.086 157.7958 14.0079 L158.4052 14.0079 Q157.4364 15.0704 156.9521 16.2423 Q156.4677 17.4142 156.4677 18.6485 Q156.4677 19.9767 156.9052 20.9923 L156.3896 20.9923 Q155.8271 19.961 155.8271 18.6642 ZM159.3871 17.3517 L158.8871 19.7267 L158.2309 19.7267 L159.434 14.0079 L160.684 14.0079 Q162.4184 14.0079 162.4184 15.4454 Q162.4184 16.8048 160.9809 17.1954 L161.9184 19.7267 L161.1996 19.7267 L160.3715 17.3517 L159.3871 17.3517 ZM159.9652 14.6017 Q159.5746 16.5235 159.5121 16.7735 L160.1684 16.7735 Q160.9184 16.7735 161.3246 16.4454 Q161.7309 16.1173 161.7309 15.4923 Q161.7309 15.0235 161.4731 14.8126 Q161.2152 14.6017 160.6215 14.6017 L159.9652 14.6017 ZM164.6043 16.3517 Q164.6043 17.6798 164.1278 18.8126 Q163.6512 19.9454 162.6356 20.9923 L162.0262 20.9923 Q163.9637 18.836 163.9637 16.3517 Q163.9637 15.0235 163.5262 14.0079 L164.0418 14.0079 Q164.6043 15.0704 164.6043 16.3517 Z"/><path style="stroke:none;" d="M164.7672 -16.2969 Q164.7672 -17.625 165.236 -18.75 Q165.7047 -19.875 166.736 -20.9531 L167.3454 -20.9531 Q166.3766 -19.8906 165.8922 -18.7188 Q165.4079 -17.5469 165.4079 -16.3125 Q165.4079 -14.9844 165.8454 -13.9688 L165.3297 -13.9688 Q164.7672 -15 164.7672 -16.2969 ZM170.3898 -16.8906 Q170.3898 -16.0625 169.8429 -15.6094 Q169.2961 -15.1562 168.2961 -15.1562 Q167.8898 -15.1562 167.5773 -15.2109 Q167.2648 -15.2656 166.9836 -15.4062 L166.9836 -16.0625 Q167.6086 -15.7344 168.3117 -15.7344 Q168.9367 -15.7344 169.3117 -16.0312 Q169.6867 -16.3281 169.6867 -16.8438 Q169.6867 -17.1562 169.4836 -17.3828 Q169.2804 -17.6094 168.7179 -17.9375 Q168.1242 -18.2656 167.8976 -18.5938 Q167.6711 -18.9219 167.6711 -19.375 Q167.6711 -20.1094 168.1867 -20.5703 Q168.7023 -21.0312 169.5461 -21.0312 Q169.9211 -21.0312 170.257 -20.9531 Q170.5929 -20.875 170.9679 -20.7031 L170.7023 -20.1094 Q170.4523 -20.2656 170.132 -20.3516 Q169.8117 -20.4375 169.5461 -20.4375 Q169.0148 -20.4375 168.6945 -20.1641 Q168.3742 -19.8906 168.3742 -19.4219 Q168.3742 -19.2188 168.4445 -19.0703 Q168.5148 -18.9219 168.6554 -18.7891 Q168.7961 -18.6562 169.2179 -18.4062 Q169.7804 -18.0625 169.9836 -17.8672 Q170.1867 -17.6719 170.2882 -17.4375 Q170.3898 -17.2031 170.3898 -16.8906 ZM172.9843 -18.6094 Q172.9843 -17.2812 172.5077 -16.1484 Q172.0312 -15.0156 171.0155 -13.9688 L170.4062 -13.9688 Q172.3437 -16.125 172.3437 -18.6094 Q172.3437 -19.9375 171.9062 -20.9531 L172.4218 -20.9531 Q172.9843 -19.8906 172.9843 -18.6094 Z"/><path style="fill:none; stroke:black;" d="M-247.249 -7.75 L-246.816 -7.5 L-246.816 -7"/><path style="stroke:none;" d="M-250.9248 -16.2969 Q-250.9248 -17.625 -250.456 -18.75 Q-249.9873 -19.875 -248.956 -20.9531 L-248.3466 -20.9531 Q-249.3154 -19.8906 -249.7998 -18.7188 Q-250.2841 -17.5469 -250.2841 -16.3125 Q-250.2841 -14.9844 -249.8466 -13.9688 L-250.3623 -13.9688 Q-250.9248 -15 -250.9248 -16.2969 ZM-245.3022 -16.8906 Q-245.3022 -16.0625 -245.8491 -15.6094 Q-246.396 -15.1562 -247.396 -15.1562 Q-247.8022 -15.1562 -248.1147 -15.2109 Q-248.4272 -15.2656 -248.7085 -15.4062 L-248.7085 -16.0625 Q-248.0835 -15.7344 -247.3803 -15.7344 Q-246.7553 -15.7344 -246.3803 -16.0312 Q-246.0053 -16.3281 -246.0053 -16.8438 Q-246.0053 -17.1562 -246.2085 -17.3828 Q-246.4116 -17.6094 -246.9741 -17.9375 Q-247.5678 -18.2656 -247.7944 -18.5938 Q-248.021 -18.9219 -248.021 -19.375 Q-248.021 -20.1094 -247.5053 -20.5703 Q-246.9897 -21.0312 -246.146 -21.0312 Q-245.771 -21.0312 -245.435 -20.9531 Q-245.0991 -20.875 -244.7241 -20.7031 L-244.9897 -20.1094 Q-245.2397 -20.2656 -245.56 -20.3516 Q-245.8803 -20.4375 -246.146 -20.4375 Q-246.6772 -20.4375 -246.9975 -20.1641 Q-247.3178 -19.8906 -247.3178 -19.4219 Q-247.3178 -19.2188 -247.2475 -19.0703 Q-247.1772 -18.9219 -247.0366 -18.7891 Q-246.896 -18.6562 -246.4741 -18.4062 Q-245.9116 -18.0625 -245.7085 -17.8672 Q-245.5053 -17.6719 -245.4038 -17.4375 Q-245.3022 -17.2031 -245.3022 -16.8906 ZM-242.7077 -18.6094 Q-242.7077 -17.2812 -243.1843 -16.1484 Q-243.6608 -15.0156 -244.6765 -13.9688 L-245.2858 -13.9688 Q-243.3483 -16.125 -243.3483 -18.6094 Q-243.3483 -19.9375 -243.7858 -20.9531 L-243.2702 -20.9531 Q-242.7077 -19.8906 -242.7077 -18.6094 Z"/><path style="stroke:none;" d="M-285.848 -26.3358 Q-285.848 -27.664 -285.3792 -28.789 Q-284.9105 -29.914 -283.8792 -30.9921 L-283.2698 -30.9921 Q-284.2386 -29.9296 -284.723 -28.7577 Q-285.2073 -27.5858 -285.2073 -26.3515 Q-285.2073 -25.0233 -284.7698 -24.0077 L-285.2855 -24.0077 Q-285.848 -25.039 -285.848 -26.3358 ZM-282.2879 -27.6483 L-282.7879 -25.2733 L-283.4442 -25.2733 L-282.241 -30.9921 L-280.991 -30.9921 Q-279.2567 -30.9921 -279.2567 -29.5546 Q-279.2567 -28.1952 -280.6942 -27.8046 L-279.7567 -25.2733 L-280.4754 -25.2733 L-281.3035 -27.6483 L-282.2879 -27.6483 ZM-281.7098 -30.3983 Q-282.1004 -28.4765 -282.1629 -28.2265 L-281.5067 -28.2265 Q-280.7567 -28.2265 -280.3504 -28.5546 Q-279.9442 -28.8827 -279.9442 -29.5077 Q-279.9442 -29.9765 -280.202 -30.1874 Q-280.4598 -30.3983 -281.0535 -30.3983 L-281.7098 -30.3983 ZM-277.0707 -28.6483 Q-277.0707 -27.3202 -277.5472 -26.1874 Q-278.0238 -25.0546 -279.0394 -24.0077 L-279.6488 -24.0077 Q-277.7113 -26.164 -277.7113 -28.6483 Q-277.7113 -29.9765 -278.1488 -30.9921 L-277.6332 -30.9921 Q-277.0707 -29.9296 -277.0707 -28.6483 Z"/></g><g transform="matrix(1,0,0,1,339,120)" style="stroke-linecap:butt; fill:rgb(230,0,0); text-rendering:geometricPrecision; color-rendering:optimizeQuality; image-rendering:optimizeQuality; font-family:'Open Sans'; stroke:rgb(230,0,0); color-interpolation:linearRGB; stroke-miterlimit:5;"><path style="stroke:none;" d="M-242.8785 22.4297 Q-242.8785 24.4922 -243.9175 25.6719 Q-244.9566 26.8516 -246.8004 26.8516 Q-248.691 26.8516 -249.7222 25.6875 Q-250.7535 24.5234 -250.7535 22.4141 Q-250.7535 20.3203 -249.7222 19.1719 Q-248.691 18.0234 -246.8004 18.0234 Q-244.941 18.0234 -243.9097 19.1953 Q-242.8785 20.3672 -242.8785 22.4297 ZM-249.7066 22.4297 Q-249.7066 24.1641 -248.9644 25.0703 Q-248.2222 25.9766 -246.8004 25.9766 Q-245.3785 25.9766 -244.6519 25.0781 Q-243.9254 24.1797 -243.9254 22.4297 Q-243.9254 20.6953 -244.6519 19.8047 Q-245.3785 18.9141 -246.8004 18.9141 Q-248.2222 18.9141 -248.9644 19.8125 Q-249.7066 20.7109 -249.7066 22.4297 Z"/><path style="fill:none; stroke:black;" d="M-298.346 -7.75 L-298.779 -7.5 L-298.779 -7"/></g><g transform="matrix(1,0,0,1,339,120)" style="stroke-linecap:butt; font-size:8.4px; fill:gray; text-rendering:geometricPrecision; image-rendering:optimizeQuality; color-rendering:optimizeQuality; font-family:'Open Sans'; font-style:italic; stroke:gray; color-interpolation:linearRGB; stroke-miterlimit:5;"><path style="stroke:none;" d="M-303.1676 -16.3359 Q-303.1676 -17.6641 -302.6989 -18.7891 Q-302.2301 -19.9141 -301.1989 -20.9922 L-300.5895 -20.9922 Q-301.5583 -19.9297 -302.0426 -18.7578 Q-302.527 -17.5859 -302.527 -16.3516 Q-302.527 -15.0234 -302.0895 -14.0078 L-302.6051 -14.0078 Q-303.1676 -15.0391 -303.1676 -16.3359 ZM-299.6076 -17.6484 L-300.1076 -15.2734 L-300.7638 -15.2734 L-299.5607 -20.9922 L-298.3107 -20.9922 Q-296.5763 -20.9922 -296.5763 -19.5547 Q-296.5763 -18.1953 -298.0138 -17.8047 L-297.0763 -15.2734 L-297.7951 -15.2734 L-298.6232 -17.6484 L-299.6076 -17.6484 ZM-299.0294 -20.3984 Q-299.4201 -18.4766 -299.4826 -18.2266 L-298.8263 -18.2266 Q-298.0763 -18.2266 -297.6701 -18.5547 Q-297.2638 -18.8828 -297.2638 -19.5078 Q-297.2638 -19.9766 -297.5216 -20.1875 Q-297.7794 -20.3984 -298.3732 -20.3984 L-299.0294 -20.3984 ZM-294.3904 -18.6484 Q-294.3904 -17.3203 -294.8669 -16.1875 Q-295.3435 -15.0547 -296.3591 -14.0078 L-296.9685 -14.0078 Q-295.031 -16.1641 -295.031 -18.6484 Q-295.031 -19.9766 -295.4685 -20.9922 L-294.9529 -20.9922 Q-294.3904 -19.9297 -294.3904 -18.6484 Z"/><path style="fill:none; stroke:black;" d="M-272.366 37.25 L-272.799 37.5 L-273.232 37.25"/><path style="stroke:none;" d="M-277.1874 28.6641 Q-277.1874 27.3359 -276.7187 26.2109 Q-276.2499 25.0859 -275.2187 24.0078 L-274.6093 24.0078 Q-275.578 25.0703 -276.0624 26.2422 Q-276.5468 27.4141 -276.5468 28.6484 Q-276.5468 29.9766 -276.1093 30.9922 L-276.6249 30.9922 Q-277.1874 29.9609 -277.1874 28.6641 ZM-273.6273 27.3516 L-274.1273 29.7266 L-274.7836 29.7266 L-273.5805 24.0078 L-272.3305 24.0078 Q-270.5961 24.0078 -270.5961 25.4453 Q-270.5961 26.8047 -272.0336 27.1953 L-271.0961 29.7266 L-271.8148 29.7266 L-272.643 27.3516 L-273.6273 27.3516 ZM-273.0492 24.6016 Q-273.4398 26.5234 -273.5023 26.7734 L-272.8461 26.7734 Q-272.0961 26.7734 -271.6898 26.4453 Q-271.2836 26.1172 -271.2836 25.4922 Q-271.2836 25.0234 -271.5414 24.8125 Q-271.7992 24.6016 -272.393 24.6016 L-273.0492 24.6016 ZM-268.4101 26.3516 Q-268.4101 27.6797 -268.8867 28.8125 Q-269.3633 29.9453 -270.3789 30.9922 L-270.9883 30.9922 Q-269.0508 28.8359 -269.0508 26.3516 Q-269.0508 25.0234 -269.4883 24.0078 L-268.9726 24.0078 Q-268.4101 25.0703 -268.4101 26.3516 Z"/><path style="stroke:none;" d="M-311.5477 18.703 Q-311.5477 17.3749 -311.0789 16.2499 Q-310.6102 15.1249 -309.5789 14.0468 L-308.9696 14.0468 Q-309.9383 15.1093 -310.4227 16.2811 Q-310.9071 17.453 -310.9071 18.6874 Q-310.9071 20.0155 -310.4696 21.0311 L-310.9852 21.0311 Q-311.5477 19.9999 -311.5477 18.703 ZM-305.9251 18.1093 Q-305.9251 18.9374 -306.472 19.3905 Q-307.0189 19.8436 -308.0189 19.8436 Q-308.4251 19.8436 -308.7376 19.789 Q-309.0501 19.7343 -309.3314 19.5936 L-309.3314 18.9374 Q-308.7064 19.2655 -308.0033 19.2655 Q-307.3783 19.2655 -307.0033 18.9686 Q-306.6283 18.6718 -306.6283 18.1561 Q-306.6283 17.8436 -306.8314 17.6171 Q-307.0345 17.3905 -307.597 17.0624 Q-308.1908 16.7343 -308.4173 16.4061 Q-308.6439 16.078 -308.6439 15.6249 Q-308.6439 14.8905 -308.1283 14.4296 Q-307.6126 13.9686 -306.7689 13.9686 Q-306.3939 13.9686 -306.058 14.0468 Q-305.722 14.1249 -305.347 14.2968 L-305.6126 14.8905 Q-305.8626 14.7343 -306.183 14.6483 Q-306.5033 14.5624 -306.7689 14.5624 Q-307.3001 14.5624 -307.6205 14.8358 Q-307.9408 15.1093 -307.9408 15.578 Q-307.9408 15.7811 -307.8705 15.9296 Q-307.8001 16.078 -307.6595 16.2108 Q-307.5189 16.3436 -307.097 16.5936 Q-306.5345 16.9374 -306.3314 17.1327 Q-306.1283 17.328 -306.0267 17.5624 Q-305.9251 17.7968 -305.9251 18.1093 ZM-303.3307 16.3905 Q-303.3307 17.7186 -303.8072 18.8515 Q-304.2838 19.9843 -305.2994 21.0311 L-305.9088 21.0311 Q-303.9713 18.8749 -303.9713 16.3905 Q-303.9713 15.0624 -304.4088 14.0468 L-303.8932 14.0468 Q-303.3307 15.1093 -303.3307 16.3905 Z"/></g></g></svg></svg></svg></svg>