<svg xmlns:ns0="http://www.w3.org/2000/svg" xmlns="http://www.w3.org/2000/svg"><g transform="translate(0, 0)"><ns0:svg width="341" viewBox="0 0 341 143" style="fill-opacity:1; color-rendering:auto; color-interpolation:auto; text-rendering:auto; stroke:black; stroke-linecap:square; stroke-miterlimit:10; shape-rendering:auto; stroke-opacity:1; fill:black; stroke-dasharray:none; font-weight:normal; stroke-width:1; font-family:'Open Sans'; font-style:normal; stroke-linejoin:miter; font-size:12; stroke-dashoffset:0; image-rendering:auto;" height="143" class="cas-substance-image"><ns0:svg class="cas-substance-single-component"><ns0:rect y="0" x="0" width="341" stroke="none" ry="7" rx="7" height="143" fill="white" class="cas-substance-group" /><ns0:svg y="0" x="0" width="341" viewBox="0 0 341 128" style="fill:black;" height="128" class="cas-substance-single-component-image"><ns0:svg><ns0:g><ns0:g transform="translate(172,63)" style="text-rendering:geometricPrecision; color-rendering:optimizeQuality; color-interpolation:linearRGB; stroke-linecap:butt; image-rendering:optimizeQuality;"><ns0:line y2="-16.5272" y1="-4.716" x2="-22.026" x1="-42.483" style="fill:none;" /><ns0:line y2="-16.7809" y1="-4.716" x2="-63.3794" x1="-42.483" style="fill:none;" /><ns0:line y2="-4.716" y1="-16.5374" x2="9.477" x1="-10.9976" style="fill:none;" /><ns0:line y2="-19.716" y1="-4.716" x2="35.46" x1="9.477" style="fill:none;" /><ns0:line y2="-7.9574" y1="-19.716" x2="55.8259" x1="35.46" style="fill:none;" /><ns0:line y2="-19.716" y1="-7.942" x2="87.42" x1="67.0275" style="fill:none;" /><ns0:line y2="-4.716" y1="-19.716" x2="113.4" x1="87.42" style="fill:none;" /><ns0:line y2="-43.3644" y1="-18.7056" x2="89.17" x1="89.17" style="fill:none;" /><ns0:line y2="-43.3644" y1="-18.7056" x2="85.67" x1="85.67" style="fill:none;" /><ns0:line y2="-19.716" y1="-4.716" x2="139.383" x1="113.4" style="fill:none;" /><ns0:path style="stroke:none;" d="M112.8156 -3.9191 L112.7096 -2.9191 L114.0904 -2.9191 L113.9844 -3.9191 ZM112.4977 -0.9191 L112.3917 0.0809 L114.4083 0.0809 L114.3023 -0.9191 ZM112.1798 2.0809 L112.0738 3.0809 L114.7262 3.0809 L114.6202 2.0809 ZM111.8619 5.0809 L111.756 6.0809 L115.044 6.0809 L114.9381 5.0809 ZM111.544 8.0809 L111.4381 9.0809 L115.3619 9.0809 L115.256 8.0809 ZM111.2262 11.0809 L111.1202 12.0809 L115.6798 12.0809 L115.5738 11.0809 ZM110.9083 14.0809 L110.8023 15.0809 L115.9977 15.0809 L115.8917 14.0809 ZM110.5904 17.0809 L110.4844 18.0809 L116.3156 18.0809 L116.2096 17.0809 Z" /><ns0:line y2="-4.716" y1="-19.716" x2="165.363" x1="139.383" style="fill:none;" /><ns0:line y2="-49.716" y1="-19.716" x2="139.383" x1="139.383" style="fill:none;" /><ns0:line y2="-21.6491" y1="-40.011" x2="-145.9144" x1="-162.4478" style="fill:none;" /><ns0:line y2="-23.9911" y1="-42.353" x2="-143.3134" x1="-159.8468" style="fill:none;" /><ns0:line y2="27.255" y1="49.4797" x2="-134.484" x1="-141.7068" style="fill:none;" /><ns0:line y2="-29.808" y1="-7.512" x2="-115.944" x1="-95.871" style="fill:none;" /><ns0:line y2="-30.648" y1="-11.3556" x2="-111.9908" x1="-94.6219" style="fill:none;" /><ns0:line y2="-17.4101" y1="-7.512" x2="-73.6416" x1="-95.871" style="fill:none;" /><ns0:line y2="14.7096" y1="-7.512" x2="-103.0913" x1="-95.871" style="fill:none;" /><ns0:line y2="-49.8997" y1="-29.808" x2="-104.3437" x1="-115.944" style="fill:none;" /><ns0:line y2="-23.571" y1="-29.808" x2="-145.29" x1="-115.944" style="fill:none;" /><ns0:line y2="-49.551" y1="-26.1113" x2="-71.601" x1="-69.1356" style="fill:none;" /><ns0:line y2="27.255" y1="22.1462" x2="-134.484" x1="-110.4489" style="fill:none;" /><ns0:line y2="-49.551" y1="-54.6598" x2="-71.601" x1="-95.6361" style="fill:none;" /><ns0:line y2="-46.5476" y1="-51.2363" x2="-74.3053" x1="-96.3638" style="fill:none;" /><ns0:line y2="-1.3464" y1="-23.571" x2="-152.5105" x1="-145.29" style="fill:none;" /><ns0:line y2="10.1699" y1="27.255" x2="-149.8701" x1="-134.484" style="fill:none;" /><ns0:line y2="7.8277" y1="23.4113" x2="-147.2692" x1="-133.2354" style="fill:none;" /><ns0:path style="fill:none; stroke-miterlimit:5;" d="M-42.05 -4.966 L-42.483 -4.716 L-42.916 -4.966" /></ns0:g><ns0:g transform="translate(172,63)" style="stroke-linecap:butt; fill:rgb(230,0,0); text-rendering:geometricPrecision; color-rendering:optimizeQuality; image-rendering:optimizeQuality; font-family:'Open Sans'; stroke:rgb(230,0,0); color-interpolation:linearRGB; stroke-miterlimit:5;"><ns0:path style="stroke:none;" d="M-12.5655 -19.7863 Q-12.5655 -17.7238 -13.6046 -16.5441 Q-14.6436 -15.3644 -16.4874 -15.3644 Q-18.378 -15.3644 -19.4093 -16.5285 Q-20.4405 -17.6926 -20.4405 -19.8019 Q-20.4405 -21.8957 -19.4093 -23.0441 Q-18.378 -24.1926 -16.4874 -24.1926 Q-14.628 -24.1926 -13.5968 -23.0207 Q-12.5655 -21.8488 -12.5655 -19.7863 ZM-19.3936 -19.7863 Q-19.3936 -18.0519 -18.6514 -17.1457 Q-17.9093 -16.2394 -16.4874 -16.2394 Q-15.0655 -16.2394 -14.3389 -17.1379 Q-13.6124 -18.0363 -13.6124 -19.7863 Q-13.6124 -21.5207 -14.3389 -22.4113 Q-15.0655 -23.3019 -16.4874 -23.3019 Q-17.9093 -23.3019 -18.6514 -22.4035 Q-19.3936 -21.5051 -19.3936 -19.7863 Z" /><ns0:path style="fill:none; stroke:black;" d="M9.044 -4.966 L9.477 -4.716 L9.91 -4.966" /><ns0:path style="fill:none; stroke:black;" d="M35.027 -19.466 L35.46 -19.716 L35.893 -19.466" /><ns0:path style="stroke:none;" d="M65.3775 -4.7863 Q65.3775 -2.7238 64.3384 -1.5441 Q63.2994 -0.3644 61.4556 -0.3644 Q59.565 -0.3644 58.5338 -1.5285 Q57.5025 -2.6926 57.5025 -4.8019 Q57.5025 -6.8957 58.5338 -8.0441 Q59.565 -9.1926 61.4556 -9.1926 Q63.315 -9.1926 64.3463 -8.0207 Q65.3775 -6.8488 65.3775 -4.7863 ZM58.5494 -4.7863 Q58.5494 -3.0519 59.2916 -2.1457 Q60.0338 -1.2394 61.4556 -1.2394 Q62.8775 -1.2394 63.6041 -2.1379 Q64.3306 -3.0363 64.3306 -4.7863 Q64.3306 -6.5207 63.6041 -7.4113 Q62.8775 -8.3019 61.4556 -8.3019 Q60.0338 -8.3019 59.2916 -7.4035 Q58.5494 -6.5051 58.5494 -4.7863 Z" /><ns0:path style="fill:none; stroke:black;" d="M86.987 -19.466 L87.42 -19.716 L87.853 -19.466" /><ns0:path style="fill:none; stroke:black;" d="M112.967 -4.966 L113.4 -4.716 L113.833 -4.966" /></ns0:g><ns0:g transform="translate(172,63)" style="stroke-linecap:butt; font-size:8.4px; fill:gray; text-rendering:geometricPrecision; image-rendering:optimizeQuality; color-rendering:optimizeQuality; font-family:'Open Sans'; font-style:italic; stroke:gray; color-interpolation:linearRGB; stroke-miterlimit:5;"><ns0:path style="stroke:none;" d="M109.2917 -13.5129 Q109.2917 -14.841 109.7605 -15.966 Q110.2292 -17.091 111.2605 -18.1691 L111.8699 -18.1691 Q110.9011 -17.1066 110.4167 -15.9347 Q109.9324 -14.7629 109.9324 -13.5285 Q109.9324 -12.2004 110.3699 -11.1847 L109.8542 -11.1847 Q109.2917 -12.216 109.2917 -13.5129 ZM114.9143 -14.1066 Q114.9143 -13.2785 114.3674 -12.8254 Q113.8205 -12.3722 112.8205 -12.3722 Q112.4143 -12.3722 112.1018 -12.4269 Q111.7893 -12.4816 111.508 -12.6222 L111.508 -13.2785 Q112.133 -12.9504 112.8362 -12.9504 Q113.4612 -12.9504 113.8362 -13.2472 Q114.2112 -13.5441 114.2112 -14.0597 Q114.2112 -14.3722 114.008 -14.5988 Q113.8049 -14.8254 113.2424 -15.1535 Q112.6487 -15.4816 112.4221 -15.8097 Q112.1955 -16.1379 112.1955 -16.591 Q112.1955 -17.3254 112.7112 -17.7863 Q113.2268 -18.2472 114.0705 -18.2472 Q114.4455 -18.2472 114.7815 -18.1691 Q115.1174 -18.091 115.4924 -17.9191 L115.2268 -17.3254 Q114.9768 -17.4816 114.6565 -17.5676 Q114.3362 -17.6535 114.0705 -17.6535 Q113.5393 -17.6535 113.219 -17.3801 Q112.8987 -17.1066 112.8987 -16.6379 Q112.8987 -16.4347 112.969 -16.2863 Q113.0393 -16.1379 113.1799 -16.0051 Q113.3205 -15.8722 113.7424 -15.6222 Q114.3049 -15.2785 114.508 -15.0832 Q114.7112 -14.8879 114.8127 -14.6535 Q114.9143 -14.4191 114.9143 -14.1066 ZM117.5088 -15.8254 Q117.5088 -14.4972 117.0322 -13.3644 Q116.5556 -12.2316 115.54 -11.1847 L114.9306 -11.1847 Q116.8681 -13.341 116.8681 -15.8254 Q116.8681 -17.1535 116.4306 -18.1691 L116.9463 -18.1691 Q117.5088 -17.1066 117.5088 -15.8254 Z" /></ns0:g><ns0:g transform="translate(172,63)" style="stroke-linecap:butt; fill:rgb(230,0,0); text-rendering:geometricPrecision; color-rendering:optimizeQuality; image-rendering:optimizeQuality; font-family:'Open Sans'; stroke:rgb(230,0,0); color-interpolation:linearRGB; stroke-miterlimit:5;"><ns0:path style="stroke:none;" d="M91.3575 -49.7863 Q91.3575 -47.7238 90.3184 -46.5441 Q89.2794 -45.3644 87.4356 -45.3644 Q85.545 -45.3644 84.5137 -46.5285 Q83.4825 -47.6926 83.4825 -49.8019 Q83.4825 -51.8957 84.5137 -53.0441 Q85.545 -54.1926 87.4356 -54.1926 Q89.295 -54.1926 90.3262 -53.0207 Q91.3575 -51.8488 91.3575 -49.7863 ZM84.5294 -49.7863 Q84.5294 -48.0519 85.2716 -47.1457 Q86.0137 -46.2394 87.4356 -46.2394 Q88.8575 -46.2394 89.5841 -47.1379 Q90.3106 -48.0363 90.3106 -49.7863 Q90.3106 -51.5207 89.5841 -52.4113 Q88.8575 -53.3019 87.4356 -53.3019 Q86.0137 -53.3019 85.2716 -52.4035 Q84.5294 -51.5051 84.5294 -49.7863 Z" /><ns0:path style="fill:rgb(0,5,255); stroke:none;" d="M116.7516 29.4403 L115.6109 29.4403 L110.9234 22.2528 L110.8766 22.2528 Q110.9703 23.5184 110.9703 24.5653 L110.9703 29.4403 L110.0484 29.4403 L110.0484 20.8778 L111.1734 20.8778 L115.8453 28.034 L115.8922 28.034 Q115.8922 27.8778 115.8453 27.0184 Q115.7984 26.159 115.8141 25.784 L115.8141 20.8778 L116.7516 20.8778 L116.7516 29.4403 Z" /><ns0:path style="fill:rgb(0,5,255); stroke:none;" d="M124.2672 29.4403 L123.2672 29.4403 L123.2672 25.409 L118.7516 25.409 L118.7516 29.4403 L117.7516 29.4403 L117.7516 20.8778 L118.7516 20.8778 L118.7516 24.5184 L123.2672 24.5184 L123.2672 20.8778 L124.2672 20.8778 L124.2672 29.4403 Z" /><ns0:path style="fill:rgb(0,5,255); stroke:none;" d="M129.0172 31.2496 L125.2672 31.2496 L125.2672 30.6871 L126.7672 29.1715 Q127.4547 28.484 127.6734 28.1871 Q127.8922 27.8903 128.0016 27.609 Q128.1109 27.3278 128.1109 26.9996 Q128.1109 26.5465 127.8375 26.2809 Q127.5641 26.0153 127.0641 26.0153 Q126.7203 26.0153 126.4 26.1324 Q126.0797 26.2496 125.6891 26.5465 L125.3453 26.109 Q126.1266 25.4528 127.0641 25.4528 Q127.8609 25.4528 128.3219 25.8668 Q128.7828 26.2809 128.7828 26.9684 Q128.7828 27.5153 128.4781 28.0465 Q128.1734 28.5778 127.3297 29.3903 L126.0797 30.609 L126.0797 30.6403 L129.0172 30.6403 L129.0172 31.2496 Z" /><ns0:path style="stroke:none;" d="M-161.4255 -45.9343 Q-161.4255 -43.8718 -162.4646 -42.6921 Q-163.5036 -41.5124 -165.3474 -41.5124 Q-167.238 -41.5124 -168.2693 -42.6765 Q-169.3005 -43.8406 -169.3005 -45.9499 Q-169.3005 -48.0437 -168.2693 -49.1921 Q-167.238 -50.3406 -165.3474 -50.3406 Q-163.488 -50.3406 -162.4568 -49.1687 Q-161.4255 -47.9968 -161.4255 -45.9343 ZM-168.2536 -45.9343 Q-168.2536 -44.1999 -167.5114 -43.2937 Q-166.7693 -42.3874 -165.3474 -42.3874 Q-163.9255 -42.3874 -163.1989 -43.2859 Q-162.4724 -44.1843 -162.4724 -45.9343 Q-162.4724 -47.6687 -163.1989 -48.5593 Q-163.9255 -49.4499 -165.3474 -49.4499 Q-166.7693 -49.4499 -167.5114 -48.5515 Q-168.2536 -47.6531 -168.2536 -45.9343 Z" /><ns0:path style="fill:rgb(0,5,255); stroke:none;" d="M-140.4054 59.9442 L-141.5461 59.9442 L-146.2336 52.7567 L-146.2804 52.7567 Q-146.1867 54.0224 -146.1867 55.0692 L-146.1867 59.9442 L-147.1086 59.9442 L-147.1086 51.3817 L-145.9836 51.3817 L-141.3117 58.538 L-141.2648 58.538 Q-141.2648 58.3817 -141.3117 57.5224 Q-141.3586 56.663 -141.3429 56.288 L-141.3429 51.3817 L-140.4054 51.3817 L-140.4054 59.9442 Z" /><ns0:path style="fill:rgb(0,5,255); stroke:none;" d="M-152.8586 59.9442 L-153.8586 59.9442 L-153.8586 55.913 L-158.3742 55.913 L-158.3742 59.9442 L-159.3742 59.9442 L-159.3742 51.3817 L-158.3742 51.3817 L-158.3742 55.0224 L-153.8586 55.0224 L-153.8586 51.3817 L-152.8586 51.3817 L-152.8586 59.9442 Z" /><ns0:path style="fill:rgb(0,5,255); stroke:none;" d="M-148.1086 61.7536 L-151.8586 61.7536 L-151.8586 61.1911 L-150.3586 59.6755 Q-149.6711 58.988 -149.4523 58.6911 Q-149.2336 58.3942 -149.1242 58.113 Q-149.0148 57.8317 -149.0148 57.5036 Q-149.0148 57.0505 -149.2883 56.7849 Q-149.5617 56.5192 -150.0617 56.5192 Q-150.4054 56.5192 -150.7258 56.6364 Q-151.0461 56.7536 -151.4367 57.0505 L-151.7804 56.613 Q-150.9992 55.9567 -150.0617 55.9567 Q-149.2648 55.9567 -148.8039 56.3708 Q-148.3429 56.7849 -148.3429 57.4724 Q-148.3429 58.0192 -148.6476 58.5505 Q-148.9523 59.0817 -149.7961 59.8942 L-151.0461 61.113 L-151.0461 61.1442 L-148.1086 61.1442 L-148.1086 61.7536 Z" /><ns0:path style="fill:none; stroke:black;" d="M-96.2055 -7.8836 L-95.871 -7.512 L-95.4142 -7.7154" /><ns0:path style="fill:none; stroke:black;" d="M-115.6095 -29.4364 L-115.944 -29.808 L-115.694 -30.241" /><ns0:path style="fill:rgb(0,5,255); stroke:none;" d="M-65.1114 -15.5597 L-66.2521 -15.5597 L-70.9396 -22.7472 L-70.9864 -22.7472 Q-70.8927 -21.4816 -70.8927 -20.4347 L-70.8927 -15.5597 L-71.8146 -15.5597 L-71.8146 -24.1222 L-70.6896 -24.1222 L-66.0177 -16.966 L-65.9708 -16.966 Q-65.9708 -17.1222 -66.0177 -17.9816 Q-66.0646 -18.841 -66.0489 -19.216 L-66.0489 -24.1222 L-65.1114 -24.1222 L-65.1114 -15.5597 Z" /><ns0:path style="fill:rgb(0,5,255); stroke:none;" d="M-101.7894 25.1743 L-102.9301 25.1743 L-107.6176 17.9868 L-107.6644 17.9868 Q-107.5707 19.2524 -107.5707 20.2993 L-107.5707 25.1743 L-108.4926 25.1743 L-108.4926 16.6118 L-107.3676 16.6118 L-102.6957 23.768 L-102.6488 23.768 Q-102.6488 23.6118 -102.6957 22.7524 Q-102.7426 21.893 -102.7269 21.518 L-102.7269 16.6118 L-101.7894 16.6118 L-101.7894 25.1743 Z" /><ns0:path style="fill:rgb(0,5,255); stroke:none;" d="M-101.8832 34.7368 L-102.8832 34.7368 L-102.8832 30.7055 L-107.3988 30.7055 L-107.3988 34.7368 L-108.3988 34.7368 L-108.3988 26.1743 L-107.3988 26.1743 L-107.3988 29.8149 L-102.8832 29.8149 L-102.8832 26.1743 L-101.8832 26.1743 L-101.8832 34.7368 Z" /><ns0:path style="fill:rgb(0,5,255); stroke:none;" d="M-97.5924 -51.6317 L-98.7331 -51.6317 L-103.4206 -58.8192 L-103.4674 -58.8192 Q-103.3737 -57.5536 -103.3737 -56.5067 L-103.3737 -51.6317 L-104.2956 -51.6317 L-104.2956 -60.1942 L-103.1706 -60.1942 L-98.4987 -53.038 L-98.4518 -53.038 Q-98.4518 -53.1942 -98.4987 -54.0536 Q-98.5456 -54.913 -98.5299 -55.288 L-98.5299 -60.1942 L-97.5924 -60.1942 L-97.5924 -51.6317 Z" /><ns0:path style="fill:none; stroke:black;" d="M-144.8009 -23.6749 L-145.29 -23.571 L-145.4445 -23.0955" /><ns0:path style="fill:none; stroke:black;" d="M-71.5487 -49.0537 L-71.601 -49.551 L-72.0901 -49.655" /><ns0:path style="fill:none; stroke:black;" d="M-134.8186 26.8835 L-134.484 27.255 L-133.9949 27.151" /><ns0:path style="fill:rgb(0,5,255); stroke:none;" d="M-151.2084 9.1182 L-152.3491 9.1182 L-157.0366 1.9307 L-157.0834 1.9307 Q-156.9897 3.1964 -156.9897 4.2432 L-156.9897 9.1182 L-157.9116 9.1182 L-157.9116 0.5557 L-156.7866 0.5557 L-152.1147 7.712 L-152.0678 7.712 Q-152.0678 7.5557 -152.1147 6.6964 Q-152.1616 5.837 -152.1459 5.462 L-152.1459 0.5557 L-151.2084 0.5557 L-151.2084 9.1182 Z" /></ns0:g></ns0:g></ns0:svg></ns0:svg><ns0:svg y="128" x="162" class="cas-substance-saf"><ns0:svg y="5" x="0" width="4" style="fill:black;" height="4" class="cas-substance-saf-dot"><ns0:circle stroke="none" r="2" fill="black" cy="2" cx="2" /></ns0:svg><ns0:svg y="0" x="8" width="22" style="fill:black;" height="15" class="cas-substance-saf-image"><ns0:svg><ns0:g><ns0:g transform="translate(6,8)" style="fill:rgb(0,138,0); text-rendering:geometricPrecision; color-rendering:optimizeQuality; image-rendering:optimizeQuality; font-family:'Open Sans'; stroke:rgb(0,138,0); color-interpolation:linearRGB;"><ns0:path style="stroke:none;" d="M3.2578 4.1562 L2.2578 4.1562 L2.2578 0.125 L-2.2578 0.125 L-2.2578 4.1562 L-3.2578 4.1562 L-3.2578 -4.4062 L-2.2578 -4.4062 L-2.2578 -0.7656 L2.2578 -0.7656 L2.2578 -4.4062 L3.2578 -4.4062 L3.2578 4.1562 Z" /><ns0:path style="stroke:none;" d="M8.3672 -3.6406 Q6.9609 -3.6406 6.1406 -2.7031 Q5.3203 -1.7656 5.3203 -0.125 Q5.3203 1.5469 6.1094 2.4688 Q6.8984 3.3906 8.3516 3.3906 Q9.2578 3.3906 10.3984 3.0625 L10.3984 3.9375 Q9.5078 4.2812 8.2109 4.2812 Q6.3203 4.2812 5.2891 3.125 Q4.2578 1.9688 4.2578 -0.1406 Q4.2578 -1.4688 4.75 -2.4609 Q5.2422 -3.4531 6.1797 -3.9922 Q7.1172 -4.5312 8.3828 -4.5312 Q9.7266 -4.5312 10.7422 -4.0469 L10.3203 -3.1875 Q9.3359 -3.6406 8.3672 -3.6406 ZM13.0938 4.1562 L12.125 4.1562 L12.125 -4.9688 L13.0938 -4.9688 L13.0938 4.1562 Z" /></ns0:g></ns0:g></ns0:svg></ns0:svg></ns0:svg></ns0:svg></ns0:svg></g></svg>