<svg width="136" viewBox="0 0 136 97" style="fill-opacity:1; color-rendering:auto; color-interpolation:auto; text-rendering:auto; stroke:black; stroke-linecap:square; stroke-miterlimit:10; shape-rendering:auto; stroke-opacity:1; fill:black; stroke-dasharray:none; font-weight:normal; stroke-width:1; font-family:'Open Sans'; font-style:normal; stroke-linejoin:miter; font-size:12; stroke-dashoffset:0; image-rendering:auto;" height="97" class="cas-substance-image" xmlns:xlink="http://www.w3.org/1999/xlink" xmlns="http://www.w3.org/2000/svg"><svg class="cas-substance-single-component"><rect y="0" x="0" width="136" stroke="none" ry="7" rx="7" height="97" fill="white" class="cas-substance-group"/><svg y="0" x="0" width="136" viewBox="0 0 136 97" style="fill:black;" height="97" class="cas-substance-single-component-image"><svg><g><g transform="translate(68,49)" style="text-rendering:geometricPrecision; color-rendering:optimizeQuality; color-interpolation:linearRGB; stroke-linecap:butt; image-rendering:optimizeQuality;"><line y2="-30" y1="-45" x2="64.953" x1="38.97" style="fill:none;"/><line y2="-30" y1="-45" x2="12.99" x1="38.97" style="fill:none;"/><line y2="-30" y1="-45" x2="-38.97" x1="-64.953" style="fill:none;"/><line y2="15" y1="45" x2="-12.99" x1="-12.99" style="fill:none;"/><line y2="-45" y1="-30" x2="-12.99" x1="12.99" style="fill:none;"/><line y2="-40.9585" y1="-27.9793" x2="-12.9901" x1="9.49" style="fill:none;"/><line y2="0" y1="-30" x2="12.99" x1="12.99" style="fill:none;"/><line y2="-30" y1="-45" x2="-38.97" x1="-12.99" style="fill:none;"/><line y2="15" y1="0" x2="-12.99" x1="12.99" style="fill:none;"/><line y2="10.9585" y1="-2.0207" x2="-12.9901" x1="9.49" style="fill:none;"/><line y2="0" y1="-30" x2="-38.97" x1="-38.97" style="fill:none;"/><line y2="-2.0207" y1="-27.9793" x2="-35.47" x1="-35.47" style="fill:none;"/><line y2="0" y1="15" x2="-38.97" x1="-12.99" style="fill:none;"/><path style="fill:none; stroke-miterlimit:5;" d="M39.403 -44.75 L38.97 -45 L38.537 -44.75"/><path style="fill:none; stroke-miterlimit:5;" d="M12.557 -30.25 L12.99 -30 L13.423 -30.25"/><path style="fill:none; stroke-miterlimit:5;" d="M-12.557 -44.75 L-12.99 -45 L-13.423 -44.75"/><path style="fill:none; stroke-miterlimit:5;" d="M12.99 -0.5 L12.99 0 L12.557 0.25"/><path style="fill:none; stroke-miterlimit:5;" d="M-38.97 -29.5 L-38.97 -30 L-39.403 -30.25"/><path style="fill:none; stroke-miterlimit:5;" d="M-12.557 14.75 L-12.99 15 L-12.99 15.5"/><path style="fill:none; stroke-miterlimit:5;" d="M-38.97 -0.5 L-38.97 0 L-38.537 0.25"/></g></g></svg></svg></svg></svg>