<svg width="166" viewBox="0 0 166 60" style="fill-opacity:1; color-rendering:auto; color-interpolation:auto; text-rendering:auto; stroke:black; stroke-linecap:square; stroke-miterlimit:10; shape-rendering:auto; stroke-opacity:1; fill:black; stroke-dasharray:none; font-weight:normal; stroke-width:1; font-family:'Open Sans'; font-style:normal; stroke-linejoin:miter; font-size:12; stroke-dashoffset:0; image-rendering:auto;" height="60" class="cas-substance-image" xmlns:xlink="http://www.w3.org/1999/xlink" xmlns="http://www.w3.org/2000/svg"><svg class="cas-substance-single-component"><rect y="0" x="0" width="166" stroke="none" ry="7" rx="7" height="60" fill="white" class="cas-substance-group"/><svg y="0" x="0" width="166" viewBox="0 0 166 60" style="fill:black;" height="60" class="cas-substance-single-component-image"><svg><g><g transform="translate(81,30)" style="text-rendering:geometricPrecision; color-rendering:optimizeQuality; color-interpolation:linearRGB; stroke-linecap:butt; image-rendering:optimizeQuality;"><line y2="-22.5" y1="-7.5" x2="-25.98" x1="0" style="fill:none;"/><line y2="-19.3112" y1="-7.5" x2="20.457" x1="0" style="fill:none;"/><line y2="-7.5" y1="-22.5" x2="-51.963" x1="-25.98" style="fill:none;"/><line y2="-7.5" y1="-19.3216" x2="51.963" x1="31.4856" style="fill:none;"/><line y2="-22.5" y1="-7.5" x2="-77.943" x1="-51.963" style="fill:none;"/><line y2="22.5" y1="-7.5" x2="-51.963" x1="-51.963" style="fill:none;"/><line y2="16.1138" y1="-7.5" x2="51.963" x1="51.963" style="fill:none;"/><line y2="-17.7956" y1="-5.4793" x2="73.295" x1="51.963" style="fill:none;"/><line y2="-20.8267" y1="-8.5103" x2="71.5449" x1="50.2129" style="fill:none;"/><path style="fill:none; stroke-miterlimit:5;" d="M-0.433 -7.75 L0 -7.5 L0.433 -7.75"/><path style="fill:none; stroke-miterlimit:5;" d="M-25.547 -22.25 L-25.98 -22.5 L-26.413 -22.25"/></g><g transform="translate(81,30)" style="stroke-linecap:butt; fill:rgb(230,0,0); text-rendering:geometricPrecision; color-rendering:optimizeQuality; image-rendering:optimizeQuality; font-family:'Open Sans'; stroke:rgb(230,0,0); color-interpolation:linearRGB; stroke-miterlimit:5;"><path style="stroke:none;" d="M29.9175 -22.5703 Q29.9175 -20.5078 28.8784 -19.3281 Q27.8394 -18.1484 25.9956 -18.1484 Q24.105 -18.1484 23.0737 -19.3125 Q22.0425 -20.4766 22.0425 -22.5859 Q22.0425 -24.6797 23.0737 -25.8281 Q24.105 -26.9766 25.9956 -26.9766 Q27.855 -26.9766 28.8862 -25.8047 Q29.9175 -24.6328 29.9175 -22.5703 ZM23.0894 -22.5703 Q23.0894 -20.8359 23.8316 -19.9297 Q24.5737 -19.0234 25.9956 -19.0234 Q27.4175 -19.0234 28.1441 -19.9219 Q28.8706 -20.8203 28.8706 -22.5703 Q28.8706 -24.3047 28.1441 -25.1953 Q27.4175 -26.0859 25.9956 -26.0859 Q24.5737 -26.0859 23.8316 -25.1875 Q23.0894 -24.2891 23.0894 -22.5703 Z"/><path style="fill:none; stroke:black;" d="M51.53 -7.75 L51.963 -7.5 L51.963 -7"/><path style="fill:rgb(0,138,0); stroke:none;" d="M51.6544 19.1406 Q50.2482 19.1406 49.4278 20.0781 Q48.6075 21.0156 48.6075 22.6562 Q48.6075 24.3281 49.3966 25.25 Q50.1857 26.1719 51.6388 26.1719 Q52.545 26.1719 53.6857 25.8438 L53.6857 26.7188 Q52.795 27.0625 51.4982 27.0625 Q49.6075 27.0625 48.5763 25.9062 Q47.545 24.75 47.545 22.6406 Q47.545 21.3125 48.0372 20.3203 Q48.5294 19.3281 49.4669 18.7891 Q50.4044 18.25 51.67 18.25 Q53.0138 18.25 54.0294 18.7344 L53.6075 19.5938 Q52.6232 19.1406 51.6544 19.1406 ZM56.381 26.9375 L55.4122 26.9375 L55.4122 17.8125 L56.381 17.8125 L56.381 26.9375 Z"/><path style="stroke:none;" d="M81.8805 -22.5703 Q81.8805 -20.5078 80.8414 -19.3281 Q79.8024 -18.1484 77.9586 -18.1484 Q76.068 -18.1484 75.0368 -19.3125 Q74.0055 -20.4766 74.0055 -22.5859 Q74.0055 -24.6797 75.0368 -25.8281 Q76.068 -26.9766 77.9586 -26.9766 Q79.818 -26.9766 80.8493 -25.8047 Q81.8805 -24.6328 81.8805 -22.5703 ZM75.0524 -22.5703 Q75.0524 -20.8359 75.7946 -19.9297 Q76.5368 -19.0234 77.9586 -19.0234 Q79.3805 -19.0234 80.1071 -19.9219 Q80.8336 -20.8203 80.8336 -22.5703 Q80.8336 -24.3047 80.1071 -25.1953 Q79.3805 -26.0859 77.9586 -26.0859 Q76.5368 -26.0859 75.7946 -25.1875 Q75.0524 -24.2891 75.0524 -22.5703 Z"/></g></g></svg></svg></svg></svg>