<svg xmlns:ns0="http://www.w3.org/2000/svg" xmlns="http://www.w3.org/2000/svg"><g transform="translate(0, 0)"><ns0:svg width="267" viewBox="0 0 267 101" style="fill-opacity:1; color-rendering:auto; color-interpolation:auto; text-rendering:auto; stroke:black; stroke-linecap:square; stroke-miterlimit:10; shape-rendering:auto; stroke-opacity:1; fill:black; stroke-dasharray:none; font-weight:normal; stroke-width:1; font-family:'Open Sans'; font-style:normal; stroke-linejoin:miter; font-size:12; stroke-dashoffset:0; image-rendering:auto;" height="101" class="cas-substance-image"><ns0:svg class="cas-substance-single-component"><ns0:rect y="0" x="0" width="267" stroke="none" ry="7" rx="7" height="101" fill="white" class="cas-substance-group" /><ns0:svg y="0" x="0" width="267" viewBox="0 0 267 101" style="fill:black;" height="101" class="cas-substance-single-component-image"><ns0:svg><ns0:g><ns0:g transform="translate(133,52)" style="text-rendering:geometricPrecision; color-rendering:optimizeQuality; color-interpolation:linearRGB; stroke-linecap:butt; image-rendering:optimizeQuality;"><ns0:line y2="-3.2412" y1="-15" x2="-31.5943" x1="-51.963" style="fill:none;" /><ns0:line y2="0" y1="-15" x2="-77.943" x1="-51.963" style="fill:none;" /><ns0:line y2="-15" y1="-3.226" x2="0" x1="-20.3925" style="fill:none;" /><ns0:line y2="0" y1="-15" x2="25.98" x1="0" style="fill:none;" /><ns0:line y2="-38.6484" y1="-13.9896" x2="1.75" x1="1.75" style="fill:none;" /><ns0:line y2="-38.6484" y1="-13.9896" x2="-1.75" x1="-1.75" style="fill:none;" /><ns0:line y2="-15" y1="0" x2="51.963" x1="25.98" style="fill:none;" /><ns0:line y2="0" y1="-15" x2="77.943" x1="51.963" style="fill:none;" /><ns0:line y2="-15" y1="0" x2="103.923" x1="77.943" style="fill:none;" /><ns0:line y2="0" y1="-15" x2="129.903" x1="103.923" style="fill:none;" /><ns0:line y2="30" y1="0" x2="-77.943" x1="-77.943" style="fill:none;" /><ns0:line y2="27.9793" y1="2.0207" x2="-81.443" x1="-81.443" style="fill:none;" /><ns0:line y2="-15" y1="0" x2="-103.923" x1="-77.943" style="fill:none;" /><ns0:line y2="45" y1="30" x2="-103.923" x1="-77.943" style="fill:none;" /><ns0:line y2="0" y1="-15" x2="-129.903" x1="-103.923" style="fill:none;" /><ns0:line y2="2.0207" y1="-10.9585" x2="-126.403" x1="-103.9229" style="fill:none;" /><ns0:line y2="30" y1="45" x2="-129.903" x1="-103.923" style="fill:none;" /><ns0:line y2="27.9793" y1="40.9585" x2="-126.403" x1="-103.9229" style="fill:none;" /><ns0:line y2="30" y1="0" x2="-129.903" x1="-129.903" style="fill:none;" /><ns0:path style="fill:none; stroke-miterlimit:5;" d="M-51.53 -14.75 L-51.963 -15 L-52.396 -14.75" /></ns0:g><ns0:g transform="translate(133,52)" style="stroke-linecap:butt; fill:rgb(230,0,0); text-rendering:geometricPrecision; color-rendering:optimizeQuality; image-rendering:optimizeQuality; font-family:'Open Sans'; stroke:rgb(230,0,0); color-interpolation:linearRGB; stroke-miterlimit:5;"><ns0:path style="stroke:none;" d="M-22.0425 -0.0703 Q-22.0425 1.9922 -23.0816 3.1719 Q-24.1206 4.3516 -25.9644 4.3516 Q-27.855 4.3516 -28.8862 3.1875 Q-29.9175 2.0234 -29.9175 -0.0859 Q-29.9175 -2.1797 -28.8862 -3.3281 Q-27.855 -4.4766 -25.9644 -4.4766 Q-24.105 -4.4766 -23.0737 -3.3047 Q-22.0425 -2.1328 -22.0425 -0.0703 ZM-28.8706 -0.0703 Q-28.8706 1.6641 -28.1284 2.5703 Q-27.3862 3.4766 -25.9644 3.4766 Q-24.5425 3.4766 -23.8159 2.5781 Q-23.0894 1.6797 -23.0894 -0.0703 Q-23.0894 -1.8047 -23.8159 -2.6953 Q-24.5425 -3.5859 -25.9644 -3.5859 Q-27.3862 -3.5859 -28.1284 -2.6875 Q-28.8706 -1.7891 -28.8706 -0.0703 Z" /><ns0:path style="fill:none; stroke:black;" d="M-0.433 -14.75 L0 -15 L0.433 -14.75" /><ns0:path style="fill:none; stroke:black;" d="M25.547 -0.25 L25.98 0 L26.413 -0.25" /><ns0:path style="stroke:none;" d="M3.9375 -45.0703 Q3.9375 -43.0078 2.8984 -41.8281 Q1.8594 -40.6484 0.0156 -40.6484 Q-1.875 -40.6484 -2.9062 -41.8125 Q-3.9375 -42.9766 -3.9375 -45.0859 Q-3.9375 -47.1797 -2.9062 -48.3281 Q-1.875 -49.4766 0.0156 -49.4766 Q1.875 -49.4766 2.9062 -48.3047 Q3.9375 -47.1328 3.9375 -45.0703 ZM-2.8906 -45.0703 Q-2.8906 -43.3359 -2.1484 -42.4297 Q-1.4062 -41.5234 0.0156 -41.5234 Q1.4375 -41.5234 2.1641 -42.4219 Q2.8906 -43.3203 2.8906 -45.0703 Q2.8906 -46.8047 2.1641 -47.6953 Q1.4375 -48.5859 0.0156 -48.5859 Q-1.4062 -48.5859 -2.1484 -47.6875 Q-2.8906 -46.7891 -2.8906 -45.0703 Z" /><ns0:path style="fill:none; stroke:black;" d="M51.53 -14.75 L51.963 -15 L52.396 -14.75" /><ns0:path style="fill:none; stroke:black;" d="M77.51 -0.25 L77.943 0 L78.376 -0.25" /><ns0:path style="fill:none; stroke:black;" d="M103.49 -14.75 L103.923 -15 L104.356 -14.75" /><ns0:path style="fill:none; stroke:black;" d="M-77.943 0.5 L-77.943 0 L-77.51 -0.25" /><ns0:path style="fill:none; stroke:black;" d="M-77.943 29.5 L-77.943 30 L-78.376 30.25" /><ns0:path style="fill:none; stroke:black;" d="M-103.49 -14.75 L-103.923 -15 L-104.356 -14.75" /><ns0:path style="fill:none; stroke:black;" d="M-103.49 44.75 L-103.923 45 L-104.356 44.75" /><ns0:path style="fill:none; stroke:black;" d="M-129.47 -0.25 L-129.903 0 L-129.903 0.5" /><ns0:path style="fill:none; stroke:black;" d="M-129.47 30.25 L-129.903 30 L-129.903 29.5" /></ns0:g></ns0:g></ns0:svg></ns0:svg></ns0:svg></ns0:svg></g></svg>