<svg width="158" viewBox="0 0 158 124" style="fill-opacity:1; color-rendering:auto; color-interpolation:auto; text-rendering:auto; stroke:black; stroke-linecap:square; stroke-miterlimit:10; shape-rendering:auto; stroke-opacity:1; fill:black; stroke-dasharray:none; font-weight:normal; stroke-width:1; font-family:'Open Sans'; font-style:normal; stroke-linejoin:miter; font-size:12; stroke-dashoffset:0; image-rendering:auto;" height="124" class="cas-substance-image" xmlns:xlink="http://www.w3.org/1999/xlink" xmlns="http://www.w3.org/2000/svg"><svg class="cas-substance-single-component"><rect y="0" x="0" width="158" stroke="none" ry="7" rx="7" height="124" fill="white" class="cas-substance-group"/><svg y="0" x="0" width="158" viewBox="0 0 158 124" style="fill:black;" height="124" class="cas-substance-single-component-image"><svg><g><g transform="translate(77,62)" style="text-rendering:geometricPrecision; color-rendering:optimizeQuality; color-interpolation:linearRGB; stroke-linecap:butt; image-rendering:optimizeQuality;"><line y2="12.3636" y1="0.047" x2="46.121" x1="67.4558" style="fill:none;"/><line y2="15.3947" y1="3.0781" x2="47.871" x1="69.2057" style="fill:none;"/><line y2="-6.699" y1="13.374" x2="-26.385" x1="-4.089" style="fill:none;"/><line y2="-1.626" y1="13.374" x2="21.891" x1="-4.089" style="fill:none;"/><line y2="-3.6467" y1="9.3325" x2="18.391" x1="-4.0891" style="fill:none;"/><line y2="43.374" y1="13.374" x2="-4.089" x1="-4.089" style="fill:none;"/><line y2="-34.104" y1="-6.699" x2="-14.181" x1="-26.385" style="fill:none;"/><line y2="-3.564" y1="-6.699" x2="-56.22" x1="-26.385" style="fill:none;"/><line y2="-7.256" y1="-9.9687" x2="-54.5761" x1="-28.7604" style="fill:none;"/><line y2="-24.8565" y1="-1.626" x2="16.9533" x1="21.891" style="fill:none;"/><line y2="13.374" y1="-1.626" x2="47.871" x1="21.891" style="fill:none;"/><line y2="58.374" y1="43.374" x2="21.891" x1="-4.089" style="fill:none;"/><line y2="-31.5302" y1="-34.104" x2="10.3134" x1="-14.181" style="fill:none;"/><line y2="-58.374" y1="-34.104" x2="-31.815" x1="-14.181" style="fill:none;"/><line y2="-54.6819" y1="-33.6815" x2="-33.4587" x1="-18.2003" style="fill:none;"/><line y2="-27.834" y1="-3.564" x2="-73.854" x1="-56.22" style="fill:none;"/><line y2="36.9677" y1="13.374" x2="47.871" x1="47.871" style="fill:none;"/><line y2="46.3091" y1="58.374" x2="42.7874" x1="21.891" style="fill:none;"/><line y2="-55.239" y1="-58.374" x2="-61.65" x1="-31.815" style="fill:none;"/><line y2="-55.239" y1="-27.834" x2="-61.65" x1="-73.854" style="fill:none;"/><line y2="-51.9692" y1="-28.2561" x2="-59.2747" x1="-69.8347" style="fill:none;"/></g><g transform="translate(77,62)" style="fill:rgb(230,0,0); text-rendering:geometricPrecision; color-rendering:optimizeQuality; image-rendering:optimizeQuality; font-family:'Open Sans'; stroke:rgb(230,0,0); color-interpolation:linearRGB;"><path style="stroke:none;" d="M77.7915 -1.6963 Q77.7915 0.3662 76.7524 1.5459 Q75.7134 2.7256 73.8696 2.7256 Q71.979 2.7256 70.9478 1.5615 Q69.9165 0.3974 69.9165 -1.7119 Q69.9165 -3.8057 70.9478 -4.9541 Q71.979 -6.1026 73.8696 -6.1026 Q75.729 -6.1026 76.7603 -4.9307 Q77.7915 -3.7588 77.7915 -1.6963 ZM70.9634 -1.6963 Q70.9634 0.0381 71.7056 0.9443 Q72.4478 1.8506 73.8696 1.8506 Q75.2915 1.8506 76.0181 0.9521 Q76.7446 0.0537 76.7446 -1.6963 Q76.7446 -3.4307 76.0181 -4.3213 Q75.2915 -5.2119 73.8696 -5.2119 Q72.4478 -5.2119 71.7056 -4.3135 Q70.9634 -3.4151 70.9634 -1.6963 Z"/></g><g transform="translate(77,62)" style="stroke-linecap:butt; text-rendering:geometricPrecision; color-rendering:optimizeQuality; image-rendering:optimizeQuality; font-family:'Open Sans'; color-interpolation:linearRGB; stroke-miterlimit:5;"><path style="fill:none;" d="M-3.656 13.124 L-4.089 13.374 L-4.089 13.874"/><path style="fill:none;" d="M-26.8823 -6.6467 L-26.385 -6.699 L-26.1816 -7.1558"/><path style="fill:none;" d="M21.458 -1.376 L21.891 -1.626 L21.787 -2.1151"/><path style="fill:none;" d="M-4.089 42.874 L-4.089 43.374 L-3.656 43.624"/><path style="fill:none;" d="M-14.4749 -34.5085 L-14.181 -34.104 L-14.3844 -33.6472"/><path style="fill:none;" d="M-55.7227 -3.6163 L-56.22 -3.564 L-56.5139 -3.9685"/><path style="fill:rgb(0,5,255); stroke:none;" d="M19.0056 -26.8127 L17.8649 -26.8127 L13.1774 -34.0003 L13.1306 -34.0003 Q13.2243 -32.7346 13.2243 -31.6877 L13.2243 -26.8127 L12.3024 -26.8127 L12.3024 -35.3753 L13.4274 -35.3753 L18.0993 -28.219 L18.1462 -28.219 Q18.1462 -28.3752 18.0993 -29.2346 Q18.0524 -30.094 18.0681 -30.469 L18.0681 -35.3753 L19.0056 -35.3753 L19.0056 -26.8127 Z"/><path style="fill:rgb(0,5,255); stroke:none;" d="M18.9118 -36.3753 L17.9118 -36.3753 L17.9118 -40.4065 L13.3962 -40.4065 L13.3962 -36.3753 L12.3962 -36.3753 L12.3962 -44.9378 L13.3962 -44.9378 L13.3962 -41.2971 L17.9118 -41.2971 L17.9118 -44.9378 L18.9118 -44.9378 L18.9118 -36.3753 Z"/><path style="fill:none;" d="M47.438 13.124 L47.871 13.374 L47.871 13.874"/><path style="fill:none;" d="M21.458 58.124 L21.891 58.374 L22.324 58.124"/><path style="fill:none;" d="M-31.5211 -57.9695 L-31.815 -58.374 L-32.3123 -58.3217"/><path style="fill:none;" d="M-73.5601 -27.4295 L-73.854 -27.834 L-73.6506 -28.2908"/><path style="fill:rgb(0,5,255); stroke:none;" d="M51.2226 47.5302 L50.0819 47.5302 L45.3944 40.3427 L45.3476 40.3427 Q45.4413 41.6084 45.4413 42.6552 L45.4413 47.5302 L44.5194 47.5302 L44.5194 38.9677 L45.6444 38.9677 L50.3163 46.124 L50.3632 46.124 Q50.3632 45.9677 50.3163 45.1084 Q50.2694 44.249 50.2851 43.874 L50.2851 38.9677 L51.2226 38.9677 L51.2226 47.5302 Z"/><path style="fill:rgb(0,5,255); stroke:none;" d="M58.7382 47.5302 L57.7382 47.5302 L57.7382 43.499 L53.2226 43.499 L53.2226 47.5302 L52.2226 47.5302 L52.2226 38.9677 L53.2226 38.9677 L53.2226 42.6084 L57.7382 42.6084 L57.7382 38.9677 L58.7382 38.9677 L58.7382 47.5302 Z"/><path style="fill:none;" d="M-61.1527 -55.2912 L-61.65 -55.239 L-61.8534 -54.7822"/></g></g></svg></svg></svg></svg>