<svg xmlns:ns0="http://www.w3.org/2000/svg" xmlns="http://www.w3.org/2000/svg"><g transform="translate(0, 0)"><ns0:svg width="292" viewBox="0 0 292 250" style="fill-opacity:1; color-rendering:auto; color-interpolation:auto; text-rendering:auto; stroke:black; stroke-linecap:square; stroke-miterlimit:10; shape-rendering:auto; stroke-opacity:1; fill:black; stroke-dasharray:none; font-weight:normal; stroke-width:1; font-family:'Open Sans'; font-style:normal; stroke-linejoin:miter; font-size:12; stroke-dashoffset:0; image-rendering:auto;" height="250" class="cas-substance-image"><ns0:svg class="cas-substance-single-component"><ns0:rect y="0" x="0" width="292" stroke="none" ry="7" rx="7" height="250" fill="white" class="cas-substance-group" /><ns0:svg y="0" x="0" width="292" viewBox="0 0 292 250" style="fill:black;" height="250" class="cas-substance-single-component-image"><ns0:svg><ns0:g><ns0:g transform="translate(146,125)" style="text-rendering:geometricPrecision; color-rendering:optimizeQuality; color-interpolation:linearRGB; stroke-linecap:butt; image-rendering:optimizeQuality;"><ns0:line y2="-25.5373" y1="-4.1777" x2="-99.0356" x1="-111.368" style="fill:none;" /><ns0:line y2="-27.2872" y1="-5.9277" x2="-102.0667" x1="-114.399" style="fill:none;" /><ns0:line y2="-53.8471" y1="-58.956" x2="-118.6959" x1="-142.734" style="fill:none;" /><ns0:line y2="89.262" y1="60.729" x2="-0.324" x1="8.946" style="fill:none;" /><ns0:line y2="83.025" y1="60.729" x2="29.019" x1="8.946" style="fill:none;" /><ns0:line y2="54.492" y1="60.729" x2="38.289" x1="8.946" style="fill:none;" /><ns0:line y2="38.436" y1="60.729" x2="-11.13" x1="8.946" style="fill:none;" /><ns0:line y2="111.4837" y1="89.262" x2="-7.5466" x1="-0.324" style="fill:none;" /><ns0:line y2="112.5656" y1="90.3439" x2="-4.218" x1="3.0046" style="fill:none;" /><ns0:line y2="110.4018" y1="88.1801" x2="-10.8752" x1="-3.6526" style="fill:none;" /><ns0:line y2="-72.792" y1="-57.792" x2="-39.132" x1="-65.112" style="fill:none;" /><ns0:line y2="-34.8115" y1="-57.792" x2="-69.999" x1="-65.112" style="fill:none;" /><ns0:line y2="-72.792" y1="-57.792" x2="-91.095" x1="-65.112" style="fill:none;" /><ns0:line y2="-68.7505" y1="-55.7711" x2="-91.0948" x1="-68.6119" style="fill:none;" /><ns0:line y2="-102.792" y1="-72.792" x2="-39.132" x1="-39.132" style="fill:none;" /><ns0:line y2="-57.792" y1="-72.792" x2="-13.152" x1="-39.132" style="fill:none;" /><ns0:line y2="-61.8335" y1="-74.8127" x2="-13.1519" x1="-35.632" style="fill:none;" /><ns0:line y2="-25.311" y1="-27.8873" x2="-101.187" x1="-76.6926" style="fill:none;" /><ns0:line y2="-6.153" y1="-23.2406" x2="-51.276" x1="-66.6622" style="fill:none;" /><ns0:line y2="-57.0751" y1="-72.792" x2="-108.5502" x1="-91.095" style="fill:none;" /><ns0:line y2="-102.792" y1="-72.792" x2="-91.095" x1="-91.095" style="fill:none;" /><ns0:line y2="-114.8569" y1="-102.792" x2="-60.0284" x1="-39.132" style="fill:none;" /><ns0:line y2="-117.792" y1="-102.792" x2="-13.152" x1="-39.132" style="fill:none;" /><ns0:line y2="-113.7505" y1="-100.7713" x2="-13.1519" x1="-35.632" style="fill:none;" /><ns0:line y2="-72.792" y1="-57.792" x2="12.828" x1="-13.152" style="fill:none;" /><ns0:line y2="-46.7356" y1="-25.311" x2="-110.7244" x1="-101.187" style="fill:none;" /><ns0:line y2="-114.8572" y1="-102.792" x2="-70.1956" x1="-91.095" style="fill:none;" /><ns0:line y2="-111.8261" y1="-100.7711" x2="-68.4458" x1="-87.5951" style="fill:none;" /><ns0:line y2="-102.792" y1="-117.792" x2="12.828" x1="-13.152" style="fill:none;" /><ns0:line y2="-102.792" y1="-72.792" x2="12.828" x1="12.828" style="fill:none;" /><ns0:line y2="-100.7713" y1="-74.8127" x2="9.328" x1="9.328" style="fill:none;" /><ns0:line y2="-57.792" y1="-72.792" x2="38.811" x1="12.828" style="fill:none;" /><ns0:line y2="-12.39" y1="-6.153" x2="-21.933" x1="-51.276" style="fill:none;" /><ns0:line y2="-8.5464" y1="-3.1496" x2="-23.1819" x1="-48.5717" style="fill:none;" /><ns0:line y2="22.377" y1="-6.153" x2="-60.546" x1="-51.276" style="fill:none;" /><ns0:line y2="9.903" y1="-12.39" x2="-1.857" x1="-21.933" style="fill:none;" /><ns0:line y2="44.673" y1="22.377" x2="-40.473" x1="-60.546" style="fill:none;" /><ns0:line y2="40.8294" y1="21.537" x2="-39.2239" x1="-56.5928" style="fill:none;" /><ns0:line y2="38.436" y1="9.903" x2="-11.13" x1="-1.857" style="fill:none;" /><ns0:line y2="35.4324" y1="10.743" x2="-13.8341" x1="-5.8102" style="fill:none;" /><ns0:line y2="38.436" y1="44.673" x2="-11.13" x1="-40.473" style="fill:none;" /><ns0:line y2="-72.792" y1="-57.792" x2="64.791" x1="38.811" style="fill:none;" /><ns0:line y2="-68.7505" y1="-55.7713" x2="64.7911" x1="42.311" style="fill:none;" /><ns0:line y2="-27.792" y1="-57.792" x2="38.811" x1="38.811" style="fill:none;" /><ns0:line y2="-57.792" y1="-72.792" x2="90.771" x1="64.791" style="fill:none;" /><ns0:line y2="-15.7271" y1="-27.792" x2="59.7074" x1="38.811" style="fill:none;" /><ns0:line y2="-18.7582" y1="-29.8127" x2="61.4574" x1="42.311" style="fill:none;" /><ns0:line y2="-27.792" y1="-57.792" x2="90.771" x1="90.771" style="fill:none;" /><ns0:line y2="-29.8127" y1="-55.7713" x2="94.271" x1="94.271" style="fill:none;" /><ns0:line y2="-72.792" y1="-57.792" x2="116.751" x1="90.771" style="fill:none;" /><ns0:line y2="-27.792" y1="-15.7271" x2="90.771" x1="69.8746" style="fill:none;" /><ns0:line y2="-12.792" y1="-27.792" x2="116.751" x1="90.771" style="fill:none;" /><ns0:line y2="-57.792" y1="-72.792" x2="142.734" x1="116.751" style="fill:none;" /><ns0:line y2="-55.7711" y1="-68.7505" x2="139.2341" x1="116.7512" style="fill:none;" /><ns0:line y2="-27.792" y1="-12.792" x2="142.734" x1="116.751" style="fill:none;" /><ns0:line y2="-29.8129" y1="-16.8335" x2="139.2341" x1="116.7512" style="fill:none;" /><ns0:line y2="-27.792" y1="-57.792" x2="142.734" x1="142.734" style="fill:none;" /></ns0:g><ns0:g transform="translate(146,125)" style="fill:rgb(230,0,0); text-rendering:geometricPrecision; color-rendering:optimizeQuality; image-rendering:optimizeQuality; font-family:'Open Sans'; stroke:rgb(230,0,0); color-interpolation:linearRGB;"><ns0:path style="stroke:none;" d="M-112.2495 0.5987 Q-112.2495 2.6612 -113.2886 3.8409 Q-114.3276 5.0206 -116.1714 5.0206 Q-118.062 5.0206 -119.0932 3.8565 Q-120.1245 2.6924 -120.1245 0.5831 Q-120.1245 -1.5107 -119.0932 -2.6591 Q-118.062 -3.8076 -116.1714 -3.8076 Q-114.312 -3.8076 -113.2807 -2.6357 Q-112.2495 -1.4638 -112.2495 0.5987 ZM-119.0776 0.5987 Q-119.0776 2.3331 -118.3354 3.2393 Q-117.5932 4.1456 -116.1714 4.1456 Q-114.7495 4.1456 -114.0229 3.2471 Q-113.2964 2.3487 -113.2964 0.5987 Q-113.2964 -1.1357 -114.0229 -2.0263 Q-114.7495 -2.9169 -116.1714 -2.9169 Q-117.5932 -2.9169 -118.3354 -2.0185 Q-119.0776 -1.1201 -119.0776 0.5987 Z" /></ns0:g><ns0:g transform="translate(146,125)" style="stroke-linecap:butt; text-rendering:geometricPrecision; color-rendering:optimizeQuality; image-rendering:optimizeQuality; font-family:'Open Sans'; color-interpolation:linearRGB; stroke-miterlimit:5;"><ns0:path style="fill:none;" d="M-0.1695 88.7865 L-0.324 89.262 L-0.4786 89.7375" /><ns0:path style="fill:rgb(0,5,255); stroke:none;" d="M-6.2454 121.9482 L-7.3861 121.9482 L-12.0736 114.7607 L-12.1204 114.7607 Q-12.0267 116.0264 -12.0267 117.0732 L-12.0267 121.9482 L-12.9486 121.9482 L-12.9486 113.3857 L-11.8236 113.3857 L-7.1517 120.542 L-7.1048 120.542 Q-7.1048 120.3857 -7.1517 119.5264 Q-7.1986 118.667 -7.1829 118.292 L-7.1829 113.3857 L-6.2454 113.3857 L-6.2454 121.9482 Z" /><ns0:path style="fill:none;" d="M-65.545 -58.042 L-65.112 -57.792 L-64.679 -58.042" /><ns0:path style="fill:none;" d="M-38.699 -72.542 L-39.132 -72.792 L-39.565 -72.542" /><ns0:path style="fill:rgb(0,5,255); stroke:none;" d="M-68.0004 -24.2927 L-69.1411 -24.2927 L-73.8286 -31.4802 L-73.8754 -31.4802 Q-73.7817 -30.2146 -73.7817 -29.1677 L-73.7817 -24.2927 L-74.7036 -24.2927 L-74.7036 -32.8552 L-73.5786 -32.8552 L-68.9067 -25.699 L-68.8598 -25.699 Q-68.8598 -25.8552 -68.9067 -26.7146 Q-68.9536 -27.574 -68.9379 -27.949 L-68.9379 -32.8552 L-68.0004 -32.8552 L-68.0004 -24.2927 Z" /><ns0:path style="fill:none;" d="M-90.662 -72.542 L-91.095 -72.792 L-91.095 -73.292" /><ns0:path style="fill:none;" d="M-38.699 -103.042 L-39.132 -102.792 L-39.132 -102.292" /><ns0:path style="fill:none;" d="M-13.585 -58.042 L-13.152 -57.792 L-12.719 -58.042" /><ns0:path style="fill:none;" d="M-100.6897 -25.3633 L-101.187 -25.311 L-101.3903 -25.7678" /><ns0:path style="fill:rgb(0,5,255); stroke:none;" d="M-110.0364 -48.5628 L-111.1771 -48.5628 L-115.8646 -55.7503 L-115.9114 -55.7503 Q-115.8177 -54.4846 -115.8177 -53.4378 L-115.8177 -48.5628 L-116.7396 -48.5628 L-116.7396 -57.1253 L-115.6146 -57.1253 L-110.9427 -49.969 L-110.8958 -49.969 Q-110.8958 -50.1253 -110.9427 -50.9846 Q-110.9896 -51.844 -110.9739 -52.219 L-110.9739 -57.1253 L-110.0364 -57.1253 L-110.0364 -48.5628 Z" /><ns0:path style="fill:none;" d="M-91.095 -102.292 L-91.095 -102.792 L-90.662 -103.042" /><ns0:path style="fill:rgb(0,5,255); stroke:none;" d="M-61.7604 -113.6357 L-62.9011 -113.6357 L-67.5886 -120.8232 L-67.6354 -120.8232 Q-67.5417 -119.5576 -67.5417 -118.5107 L-67.5417 -113.6357 L-68.4636 -113.6357 L-68.4636 -122.1982 L-67.3386 -122.1982 L-62.6667 -115.042 L-62.6198 -115.042 Q-62.6198 -115.1982 -62.6667 -116.0576 Q-62.7136 -116.917 -62.6979 -117.292 L-62.6979 -122.1982 L-61.7604 -122.1982 L-61.7604 -113.6357 Z" /><ns0:path style="fill:none;" d="M-13.585 -117.542 L-13.152 -117.792 L-12.719 -117.542" /><ns0:path style="fill:none;" d="M12.828 -73.292 L12.828 -72.792 L12.395 -72.542" /><ns0:path style="fill:none;" d="M12.395 -103.042 L12.828 -102.792 L12.828 -102.292" /><ns0:path style="fill:none;" d="M-50.7869 -6.257 L-51.276 -6.153 L-51.4305 -5.6775" /><ns0:path style="fill:none;" d="M-22.4221 -12.286 L-21.933 -12.39 L-21.5984 -12.0185" /><ns0:path style="fill:none;" d="M-60.3915 21.9015 L-60.546 22.377 L-60.2115 22.7486" /><ns0:path style="fill:none;" d="M-2.1916 9.5315 L-1.857 9.903 L-2.0115 10.3785" /><ns0:path style="fill:none;" d="M-40.8075 44.3014 L-40.473 44.673 L-39.9839 44.569" /><ns0:path style="fill:none;" d="M-10.9755 37.9605 L-11.13 38.436 L-10.7954 38.8075" /><ns0:path style="fill:none;" d="M39.244 -58.042 L38.811 -57.792 L38.811 -57.292" /><ns0:path style="fill:none;" d="M64.358 -72.542 L64.791 -72.792 L65.224 -72.542" /><ns0:path style="fill:none;" d="M38.811 -28.292 L38.811 -27.792 L39.244 -27.542" /><ns0:path style="fill:none;" d="M90.771 -57.292 L90.771 -57.792 L90.338 -58.042" /><ns0:path style="fill:rgb(0,5,255); stroke:none;" d="M68.1426 -8.6357 L67.0019 -8.6357 L62.3144 -15.8232 L62.2676 -15.8232 Q62.3613 -14.5576 62.3613 -13.5107 L62.3613 -8.6357 L61.4394 -8.6357 L61.4394 -17.1982 L62.5644 -17.1982 L67.2363 -10.042 L67.2832 -10.042 Q67.2832 -10.1982 67.2363 -11.0576 Q67.1894 -11.917 67.2051 -12.292 L67.2051 -17.1982 L68.1426 -17.1982 L68.1426 -8.6357 Z" /><ns0:path style="fill:none;" d="M90.771 -28.292 L90.771 -27.792 L90.338 -27.542" /><ns0:path style="fill:none;" d="M116.318 -72.542 L116.751 -72.792 L117.184 -72.542" /><ns0:path style="fill:none;" d="M116.318 -13.042 L116.751 -12.792 L117.184 -13.042" /><ns0:path style="fill:none;" d="M142.301 -58.042 L142.734 -57.792 L142.734 -57.292" /><ns0:path style="fill:none;" d="M142.301 -27.542 L142.734 -27.792 L142.734 -28.292" /></ns0:g></ns0:g></ns0:svg></ns0:svg></ns0:svg></ns0:svg></g></svg>