<svg width="174" viewBox="0 0 174 152" style="fill-opacity:1; color-rendering:auto; color-interpolation:auto; text-rendering:auto; stroke:black; stroke-linecap:square; stroke-miterlimit:10; shape-rendering:auto; stroke-opacity:1; fill:black; stroke-dasharray:none; font-weight:normal; stroke-width:1; font-family:'Open Sans'; font-style:normal; stroke-linejoin:miter; font-size:12; stroke-dashoffset:0; image-rendering:auto;" height="152" class="cas-substance-image" xmlns:xlink="http://www.w3.org/1999/xlink" xmlns="http://www.w3.org/2000/svg"><svg class="cas-substance-single-component"><rect y="0" x="0" width="174" stroke="none" ry="7" rx="7" height="152" fill="white" class="cas-substance-group"/><svg y="0" x="0" width="174" viewBox="0 0 174 152" style="fill:black;" height="152" class="cas-substance-single-component-image"><svg><g><g transform="translate(87,78)" style="text-rendering:geometricPrecision; color-rendering:optimizeQuality; color-interpolation:linearRGB; stroke-linecap:butt; image-rendering:optimizeQuality;"><line y2="-4.02" y1="-19.02" x2="-19.953" x1="6.03" style="fill:none;"/><line y2="-45" y1="-19.02" x2="-8.97" x1="6.03" style="fill:none;"/><line y2="-34.02" y1="-19.02" x2="32.01" x1="6.03" style="fill:none;"/><line y2="1.2352" y1="-19.02" x2="17.7233" x1="6.03" style="fill:none;"/><line y2="25.98" y1="-4.02" x2="-19.953" x1="-19.953" style="fill:none;"/><line y2="-45" y1="-45" x2="-38.97" x1="-8.97" style="fill:none;"/><line y2="-22.2614" y1="-34.02" x2="52.3759" x1="32.01" style="fill:none;"/><line y2="-57.6684" y1="-33.0096" x2="33.76" x1="33.76" style="fill:none;"/><line y2="-57.6684" y1="-33.0096" x2="30.26" x1="30.26" style="fill:none;"/><line y2="37.754" y1="25.98" x2="-40.3455" x1="-19.953" style="fill:none;"/><line y2="39.2544" y1="26.9904" x2="-0.4593" x1="-21.703" style="fill:none;"/><line y2="36.2233" y1="23.9593" x2="1.2906" x1="-19.953" style="fill:none;"/><line y2="-65.3443" y1="-45" x2="-50.7161" x1="-38.97" style="fill:none;"/><line y2="-25.6167" y1="-46.75" x2="-52.182" x1="-39.9804" style="fill:none;"/><line y2="-23.8667" y1="-45" x2="-49.151" x1="-36.9493" style="fill:none;"/><line y2="-34.02" y1="-22.246" x2="83.97" x1="63.5775" style="fill:none;"/><line y2="70.98" y1="47.3316" x2="-45.933" x1="-45.933" style="fill:none;"/><line y2="-70.98" y1="-70.98" x2="-83.97" x1="-59.9075" style="fill:none;"/><path style="fill:none; stroke-miterlimit:5;" d="M-19.52 -4.27 L-19.953 -4.02 L-19.953 -3.52"/><path style="fill:none; stroke-miterlimit:5;" d="M-8.72 -44.567 L-8.97 -45 L-9.47 -45"/><path style="fill:none; stroke-miterlimit:5;" d="M31.577 -33.77 L32.01 -34.02 L32.443 -33.77"/></g><g transform="translate(87,78)" style="stroke-linecap:butt; fill:rgb(230,0,0); text-rendering:geometricPrecision; color-rendering:optimizeQuality; image-rendering:optimizeQuality; font-family:'Open Sans'; stroke:rgb(230,0,0); color-interpolation:linearRGB; stroke-miterlimit:5;"><path style="stroke:none;" d="M24.9675 6.8927 Q24.9675 8.9552 23.9284 10.1349 Q22.8894 11.3146 21.0456 11.3146 Q19.155 11.3146 18.1237 10.1505 Q17.0925 8.9864 17.0925 6.8771 Q17.0925 4.7833 18.1237 3.6349 Q19.155 2.4864 21.0456 2.4864 Q22.905 2.4864 23.9362 3.6583 Q24.9675 4.8302 24.9675 6.8927 ZM18.1394 6.8927 Q18.1394 8.6271 18.8816 9.5333 Q19.6237 10.4396 21.0456 10.4396 Q22.4675 10.4396 23.1941 9.5411 Q23.9206 8.6427 23.9206 6.8927 Q23.9206 5.1583 23.1941 4.2677 Q22.4675 3.3771 21.0456 3.3771 Q19.6237 3.3771 18.8816 4.2755 Q18.1394 5.1739 18.1394 6.8927 Z"/><path style="stroke:none;" d="M32.4831 11.1896 L31.4831 11.1896 L31.4831 7.1583 L26.9675 7.1583 L26.9675 11.1896 L25.9675 11.1896 L25.9675 2.6271 L26.9675 2.6271 L26.9675 6.2677 L31.4831 6.2677 L31.4831 2.6271 L32.4831 2.6271 L32.4831 11.1896 Z"/><path style="fill:none; stroke:black;" d="M-19.953 25.48 L-19.953 25.98 L-20.386 26.23"/><path style="fill:none; stroke:black;" d="M-38.47 -45 L-38.97 -45 L-39.22 -45.433"/><path style="stroke:none;" d="M61.9275 -19.0903 Q61.9275 -17.0278 60.8884 -15.8481 Q59.8494 -14.6684 58.0056 -14.6684 Q56.115 -14.6684 55.0837 -15.8325 Q54.0525 -16.9966 54.0525 -19.1059 Q54.0525 -21.1997 55.0837 -22.3481 Q56.115 -23.4966 58.0056 -23.4966 Q59.865 -23.4966 60.8962 -22.3247 Q61.9275 -21.1528 61.9275 -19.0903 ZM55.0994 -19.0903 Q55.0994 -17.3559 55.8416 -16.4497 Q56.5837 -15.5434 58.0056 -15.5434 Q59.4275 -15.5434 60.1541 -16.4419 Q60.8806 -17.3403 60.8806 -19.0903 Q60.8806 -20.8247 60.1541 -21.7153 Q59.4275 -22.6059 58.0056 -22.6059 Q56.5837 -22.6059 55.8416 -21.7075 Q55.0994 -20.8091 55.0994 -19.0903 Z"/><path style="stroke:none;" d="M35.9475 -64.0903 Q35.9475 -62.0278 34.9084 -60.8481 Q33.8694 -59.6684 32.0256 -59.6684 Q30.135 -59.6684 29.1038 -60.8325 Q28.0725 -61.9966 28.0725 -64.1059 Q28.0725 -66.1997 29.1038 -67.3481 Q30.135 -68.4966 32.0256 -68.4966 Q33.885 -68.4966 34.9163 -67.3247 Q35.9475 -66.1528 35.9475 -64.0903 ZM29.1194 -64.0903 Q29.1194 -62.3559 29.8616 -61.4497 Q30.6038 -60.5434 32.0256 -60.5434 Q33.4475 -60.5434 34.1741 -61.4419 Q34.9006 -62.3403 34.9006 -64.0903 Q34.9006 -65.8247 34.1741 -66.7153 Q33.4475 -67.6059 32.0256 -67.6059 Q30.6038 -67.6059 29.8616 -66.7075 Q29.1194 -65.8091 29.1194 -64.0903 Z"/><path style="stroke:none;" d="M-41.9955 40.9097 Q-41.9955 42.9722 -43.0346 44.1519 Q-44.0736 45.3316 -45.9174 45.3316 Q-47.808 45.3316 -48.8393 44.1675 Q-49.8705 43.0034 -49.8705 40.8941 Q-49.8705 38.8003 -48.8393 37.6519 Q-47.808 36.5034 -45.9174 36.5034 Q-44.058 36.5034 -43.0268 37.6753 Q-41.9955 38.8472 -41.9955 40.9097 ZM-48.8236 40.9097 Q-48.8236 42.6441 -48.0814 43.5503 Q-47.3393 44.4566 -45.9174 44.4566 Q-44.4955 44.4566 -43.7689 43.5581 Q-43.0424 42.6597 -43.0424 40.9097 Q-43.0424 39.1753 -43.7689 38.2847 Q-44.4955 37.3941 -45.9174 37.3941 Q-47.3393 37.3941 -48.0814 38.2925 Q-48.8236 39.1909 -48.8236 40.9097 Z"/><path style="stroke:none;" d="M9.9675 40.9097 Q9.9675 42.9722 8.9284 44.1519 Q7.8894 45.3316 6.0456 45.3316 Q4.155 45.3316 3.1238 44.1675 Q2.0925 43.0034 2.0925 40.8941 Q2.0925 38.8003 3.1238 37.6519 Q4.155 36.5034 6.0456 36.5034 Q7.905 36.5034 8.9363 37.6753 Q9.9675 38.8472 9.9675 40.9097 ZM3.1394 40.9097 Q3.1394 42.6441 3.8816 43.5503 Q4.6238 44.4566 6.0456 44.4566 Q7.4675 44.4566 8.1941 43.5581 Q8.9206 42.6597 8.9206 40.9097 Q8.9206 39.1753 8.1941 38.2847 Q7.4675 37.3941 6.0456 37.3941 Q4.6238 37.3941 3.8816 38.2925 Q3.1394 39.1909 3.1394 40.9097 Z"/><path style="stroke:none;" d="M-50.0325 -71.0503 Q-50.0325 -68.9878 -51.0716 -67.8081 Q-52.1106 -66.6284 -53.9544 -66.6284 Q-55.845 -66.6284 -56.8763 -67.7925 Q-57.9075 -68.9566 -57.9075 -71.0659 Q-57.9075 -73.1597 -56.8763 -74.3081 Q-55.845 -75.4566 -53.9544 -75.4566 Q-52.095 -75.4566 -51.0638 -74.2847 Q-50.0325 -73.1128 -50.0325 -71.0503 ZM-56.8606 -71.0503 Q-56.8606 -69.3159 -56.1184 -68.4097 Q-55.3763 -67.5034 -53.9544 -67.5034 Q-52.5325 -67.5034 -51.8059 -68.4019 Q-51.0794 -69.3003 -51.0794 -71.0503 Q-51.0794 -72.7847 -51.8059 -73.6753 Q-52.5325 -74.5659 -53.9544 -74.5659 Q-55.3763 -74.5659 -56.1184 -73.6675 Q-56.8606 -72.7691 -56.8606 -71.0503 Z"/><path style="stroke:none;" d="M-50.0325 -19.0903 Q-50.0325 -17.0278 -51.0716 -15.8481 Q-52.1106 -14.6684 -53.9544 -14.6684 Q-55.845 -14.6684 -56.8763 -15.8325 Q-57.9075 -16.9966 -57.9075 -19.1059 Q-57.9075 -21.1997 -56.8763 -22.3481 Q-55.845 -23.4966 -53.9544 -23.4966 Q-52.095 -23.4966 -51.0638 -22.3247 Q-50.0325 -21.1528 -50.0325 -19.0903 ZM-56.8606 -19.0903 Q-56.8606 -17.3559 -56.1184 -16.4497 Q-55.3763 -15.5434 -53.9544 -15.5434 Q-52.5325 -15.5434 -51.8059 -16.4419 Q-51.0794 -17.3403 -51.0794 -19.0903 Q-51.0794 -20.8247 -51.8059 -21.7153 Q-52.5325 -22.6059 -53.9544 -22.6059 Q-55.3763 -22.6059 -56.1184 -21.7075 Q-56.8606 -20.8091 -56.8606 -19.0903 Z"/></g></g></svg></svg></svg></svg>