<svg xmlns:ns0="http://www.w3.org/2000/svg" xmlns="http://www.w3.org/2000/svg"><g transform="translate(0, 0)"><ns0:svg width="167" viewBox="0 0 167 115" style="fill-opacity:1; color-rendering:auto; color-interpolation:auto; text-rendering:auto; stroke:black; stroke-linecap:square; stroke-miterlimit:10; shape-rendering:auto; stroke-opacity:1; fill:black; stroke-dasharray:none; font-weight:normal; stroke-width:1; font-family:'Open Sans'; font-style:normal; stroke-linejoin:miter; font-size:12; stroke-dashoffset:0; image-rendering:auto;" height="115" class="cas-substance-image"><ns0:svg class="cas-substance-single-component"><ns0:rect y="0" x="0" width="167" stroke="none" ry="7" rx="7" height="115" fill="white" class="cas-substance-group" /><ns0:svg y="0" x="0" width="167" viewBox="0 0 167 115" style="fill:black;" height="115" class="cas-substance-single-component-image"><ns0:svg><ns0:g><ns0:g transform="translate(79,55)" style="text-rendering:geometricPrecision; color-rendering:optimizeQuality; color-interpolation:linearRGB; stroke-linecap:butt; image-rendering:optimizeQuality;"><ns0:line y2="45.3661" y1="30.9934" x2="-28.2123" x1="-19.9149" style="fill:none;" /><ns0:line y2="47.116" y1="32.7433" x2="-25.1812" x1="-16.8838" style="fill:none;" /><ns0:line y2="27.73" y1="27.73" x2="9.0625" x1="-9.6484" style="fill:none;" /><ns0:line y2="24.23" y1="24.23" x2="9.0625" x1="-9.6484" style="fill:none;" /><ns0:line y2="0" y1="19.8417" x2="-30" x1="-18.544" style="fill:none;" /><ns0:line y2="0" y1="-25.98" x2="-30" x1="-15" style="fill:none;" /><ns0:line y2="-3.5" y1="-25.9801" x2="-32.0207" x1="-19.0415" style="fill:none;" /><ns0:line y2="-51.963" y1="-25.98" x2="-30" x1="-15" style="fill:none;" /><ns0:line y2="-25.98" y1="-25.98" x2="9.6484" x1="-15" style="fill:none;" /><ns0:line y2="0" y1="0" x2="-60" x1="-30" style="fill:none;" /><ns0:line y2="-51.963" y1="-51.963" x2="-60" x1="-30" style="fill:none;" /><ns0:line y2="-48.463" y1="-48.463" x2="-57.9793" x1="-32.0207" style="fill:none;" /><ns0:line y2="-25.98" y1="0" x2="-75" x1="-60" style="fill:none;" /><ns0:line y2="-25.9801" y1="-3.5" x2="-70.9585" x1="-57.9793" style="fill:none;" /><ns0:line y2="-25.98" y1="-51.963" x2="-75" x1="-60" style="fill:none;" /><ns0:line y2="-51.963" y1="-32.1183" x2="30" x1="18.5437" style="fill:none;" /><ns0:line y2="0" y1="-20.0917" x2="30" x1="18.3997" style="fill:none;" /><ns0:line y2="-51.963" y1="-51.963" x2="60" x1="30" style="fill:none;" /><ns0:line y2="0" y1="0" x2="60" x1="30" style="fill:none;" /><ns0:line y2="-32.1183" y1="-51.963" x2="71.4563" x1="60" style="fill:none;" /><ns0:line y2="-20.0917" y1="0" x2="71.6003" x1="60" style="fill:none;" /></ns0:g><ns0:g transform="translate(79,55)" style="fill:rgb(0,5,255); text-rendering:geometricPrecision; color-rendering:optimizeQuality; image-rendering:optimizeQuality; font-family:'Open Sans'; stroke:rgb(0,5,255); color-interpolation:linearRGB;"><ns0:path style="stroke:none;" d="M-11.6484 30.1362 L-12.7891 30.1362 L-17.4766 22.9487 L-17.5234 22.9487 Q-17.4297 24.2144 -17.4297 25.2612 L-17.4297 30.1362 L-18.3516 30.1362 L-18.3516 21.5737 L-17.2266 21.5737 L-12.5547 28.73 L-12.5078 28.73 Q-12.5078 28.5737 -12.5547 27.7144 Q-12.6016 26.855 -12.5859 26.48 L-12.5859 21.5737 L-11.6484 21.5737 L-11.6484 30.1362 Z" /><ns0:path style="fill:rgb(230,0,0); stroke:none;" d="M-26.0625 51.8927 Q-26.0625 53.9552 -27.1016 55.1349 Q-28.1406 56.3146 -29.9844 56.3146 Q-31.875 56.3146 -32.9062 55.1505 Q-33.9375 53.9864 -33.9375 51.8771 Q-33.9375 49.7833 -32.9062 48.6349 Q-31.875 47.4864 -29.9844 47.4864 Q-28.125 47.4864 -27.0938 48.6583 Q-26.0625 49.8302 -26.0625 51.8927 ZM-32.8906 51.8927 Q-32.8906 53.6271 -32.1484 54.5333 Q-31.4062 55.4396 -29.9844 55.4396 Q-28.5625 55.4396 -27.8359 54.5411 Q-27.1094 53.6427 -27.1094 51.8927 Q-27.1094 50.1583 -27.8359 49.2677 Q-28.5625 48.3771 -29.9844 48.3771 Q-31.4062 48.3771 -32.1484 49.2755 Q-32.8906 50.1739 -32.8906 51.8927 Z" /><ns0:path style="fill:rgb(230,0,0); stroke:none;" d="M18.9375 25.9097 Q18.9375 27.9722 17.8984 29.1519 Q16.8594 30.3316 15.0156 30.3316 Q13.125 30.3316 12.0938 29.1675 Q11.0625 28.0034 11.0625 25.8941 Q11.0625 23.8003 12.0938 22.6519 Q13.125 21.5034 15.0156 21.5034 Q16.875 21.5034 17.9062 22.6753 Q18.9375 23.8472 18.9375 25.9097 ZM12.1094 25.9097 Q12.1094 27.6441 12.8516 28.5503 Q13.5938 29.4566 15.0156 29.4566 Q16.4375 29.4566 17.1641 28.5581 Q17.8906 27.6597 17.8906 25.9097 Q17.8906 24.1753 17.1641 23.2847 Q16.4375 22.3941 15.0156 22.3941 Q13.5938 22.3941 12.8516 23.2925 Q12.1094 24.1909 12.1094 25.9097 Z" /></ns0:g><ns0:g transform="translate(79,55)" style="stroke-linecap:butt; text-rendering:geometricPrecision; color-rendering:optimizeQuality; image-rendering:optimizeQuality; font-family:'Open Sans'; color-interpolation:linearRGB; stroke-miterlimit:5;"><ns0:path style="fill:none;" d="M-15.25 -25.547 L-15 -25.98 L-15.25 -26.413" /><ns0:path style="fill:none;" d="M-29.75 -0.433 L-30 0 L-29.75 0.433" /><ns0:path style="fill:none;" d="M-29.75 -51.53 L-30 -51.963 L-30.5 -51.963" /><ns0:path style="fill:none;" d="M-59.5 0 L-60 0 L-60.25 -0.433" /><ns0:path style="fill:none;" d="M-59.5 -51.963 L-60 -51.963 L-60.25 -51.53" /><ns0:path style="fill:none;" d="M-74.75 -25.547 L-75 -25.98 L-74.75 -26.413" /><ns0:path style="fill:rgb(0,5,255); stroke:none;" d="M18.3516 -21.8237 L17.2109 -21.8237 L12.5234 -29.0112 L12.4766 -29.0112 Q12.5703 -27.7456 12.5703 -26.6987 L12.5703 -21.8237 L11.6484 -21.8237 L11.6484 -30.3862 L12.7734 -30.3862 L17.4453 -23.23 L17.4922 -23.23 Q17.4922 -23.3862 17.4453 -24.2456 Q17.3984 -25.105 17.4141 -25.48 L17.4141 -30.3862 L18.3516 -30.3862 L18.3516 -21.8237 Z" /><ns0:path style="fill:none;" d="M29.75 -51.53 L30 -51.963 L30.5 -51.963" /><ns0:path style="fill:none;" d="M29.75 -0.433 L30 0 L30.5 0" /><ns0:path style="fill:none;" d="M59.5 -51.963 L60 -51.963 L60.25 -51.53" /><ns0:path style="fill:none;" d="M59.5 -0 L60 0 L60.25 -0.433" /><ns0:path style="fill:rgb(0,5,255); stroke:none;" d="M78.3516 -21.8237 L77.2109 -21.8237 L72.5234 -29.0112 L72.4766 -29.0112 Q72.5703 -27.7456 72.5703 -26.6987 L72.5703 -21.8237 L71.6484 -21.8237 L71.6484 -30.3862 L72.7734 -30.3862 L77.4453 -23.23 L77.4922 -23.23 Q77.4922 -23.3862 77.4453 -24.2456 Q77.3984 -25.105 77.4141 -25.48 L77.4141 -30.3862 L78.3516 -30.3862 L78.3516 -21.8237 Z" /><ns0:path style="fill:rgb(0,5,255); stroke:none;" d="M85.8672 -21.8237 L84.8672 -21.8237 L84.8672 -25.855 L80.3516 -25.855 L80.3516 -21.8237 L79.3516 -21.8237 L79.3516 -30.3862 L80.3516 -30.3862 L80.3516 -26.7456 L84.8672 -26.7456 L84.8672 -30.3862 L85.8672 -30.3862 L85.8672 -21.8237 Z" /></ns0:g></ns0:g></ns0:svg></ns0:svg></ns0:svg></ns0:svg></g></svg>