<svg xmlns:ns0="http://www.w3.org/2000/svg" xmlns="http://www.w3.org/2000/svg"><g transform="translate(0, 0)"><ns0:svg width="288" viewBox="0 0 288 214" style="fill-opacity:1; color-rendering:auto; color-interpolation:auto; text-rendering:auto; stroke:black; stroke-linecap:square; stroke-miterlimit:10; shape-rendering:auto; stroke-opacity:1; fill:black; stroke-dasharray:none; font-weight:normal; stroke-width:1; font-family:'Open Sans'; font-style:normal; stroke-linejoin:miter; font-size:12; stroke-dashoffset:0; image-rendering:auto;" height="214" class="cas-substance-image"><ns0:svg class="cas-substance-single-component"><ns0:rect y="0" x="0" width="288" stroke="none" ry="7" rx="7" height="214" fill="white" class="cas-substance-group" /><ns0:svg y="0" x="0" width="288" viewBox="0 0 288 214" style="fill:black;" height="214" class="cas-substance-single-component-image"><ns0:svg><ns0:g><ns0:g transform="translate(146,109)" style="text-rendering:geometricPrecision; color-rendering:optimizeQuality; color-interpolation:linearRGB; stroke-linecap:butt; image-rendering:optimizeQuality;"><ns0:line y2="-61.3012" y1="-37.2775" x2="-0.5769" x1="4.5319" style="fill:none;" /><ns0:line y2="-60.5732" y1="-36.5501" x2="-4.0003" x1="1.1084" style="fill:none;" /><ns0:line y2="-17.829" y1="-37.902" x2="-19.686" x1="2.61" style="fill:none;" /><ns0:line y2="-28.632" y1="-37.902" x2="31.14" x1="2.61" style="fill:none;" /><ns0:line y2="57.009" y1="27.009" x2="9.432" x1="9.432" style="fill:none;" /><ns0:line y2="12.009" y1="27.009" x2="-16.551" x1="9.432" style="fill:none;" /><ns0:line y2="72.009" y1="57.009" x2="35.412" x1="9.432" style="fill:none;" /><ns0:line y2="102.009" y1="72.009" x2="35.412" x1="35.412" style="fill:none;" /><ns0:line y2="-95.4859" y1="-81.2894" x2="-95.7741" x1="-103.9698" style="fill:none;" /><ns0:line y2="-97.2358" y1="-83.0393" x2="-98.8053" x1="-107.0009" style="fill:none;" /><ns0:line y2="-77.776" y1="-77.776" x2="-133.0915" x1="-114.3806" style="fill:none;" /><ns0:line y2="-74.276" y1="-74.276" x2="-133.0915" x1="-114.3806" style="fill:none;" /><ns0:line y2="-50.046" y1="-70.1377" x2="-94.029" x1="-105.6293" style="fill:none;" /><ns0:line y2="-20.895" y1="-5.0785" x2="139.029" x1="121.4659" style="fill:none;" /><ns0:line y2="-10.089" y1="-2.7162" x2="88.203" x1="110.8964" style="fill:none;" /><ns0:line y2="-24.066" y1="-17.829" x2="-49.029" x1="-19.686" style="fill:none;" /><ns0:line y2="12.009" y1="-17.829" x2="-16.551" x1="-19.686" style="fill:none;" /><ns0:line y2="10.3651" y1="-15.4536" x2="-20.243" x1="-22.9557" style="fill:none;" /><ns0:line y2="1.914" y1="-24.066" x2="-64.029" x1="-49.029" style="fill:none;" /><ns0:line y2="-50.046" y1="-24.066" x2="-64.029" x1="-49.029" style="fill:none;" /><ns0:line y2="-46.546" y1="-24.0659" x2="-66.0497" x1="-53.0704" style="fill:none;" /><ns0:line y2="21.6435" y1="12.009" x2="-38.1914" x1="-16.551" style="fill:none;" /><ns0:line y2="19.4456" y1="1.914" x2="-48.2454" x1="-64.029" style="fill:none;" /><ns0:line y2="1.914" y1="1.914" x2="-94.029" x1="-64.029" style="fill:none;" /><ns0:line y2="-1.586" y1="-1.586" x2="-92.0083" x1="-66.0497" style="fill:none;" /><ns0:line y2="-50.046" y1="-50.046" x2="-94.029" x1="-64.029" style="fill:none;" /><ns0:line y2="-24.066" y1="1.914" x2="-109.029" x1="-94.029" style="fill:none;" /><ns0:line y2="-24.066" y1="-50.046" x2="-109.029" x1="-94.029" style="fill:none;" /><ns0:line y2="-24.0659" y1="-46.546" x2="-104.9875" x1="-92.0083" style="fill:none;" /><ns0:line y2="-48.705" y1="-28.632" x2="53.436" x1="31.14" style="fill:none;" /><ns0:line y2="-44.7518" y1="-27.3829" x2="54.276" x1="34.9836" style="fill:none;" /><ns0:line y2="0.714" y1="-28.632" x2="37.377" x1="31.14" style="fill:none;" /><ns0:line y2="-39.435" y1="-48.705" x2="81.966" x1="53.436" style="fill:none;" /><ns0:line y2="9.984" y1="0.714" x2="65.91" x1="37.377" style="fill:none;" /><ns0:line y2="6.0309" y1="-1.9903" x2="65.0696" x1="40.3803" style="fill:none;" /><ns0:line y2="-10.089" y1="-39.435" x2="88.203" x1="81.966" style="fill:none;" /><ns0:line y2="-11.338" y1="-36.7308" x2="84.3594" x1="78.9626" style="fill:none;" /><ns0:line y2="-10.089" y1="9.984" x2="88.203" x1="65.91" style="fill:none;" /><ns0:path style="fill:none; stroke-miterlimit:5;" d="M2.2384 -37.5675 L2.61 -37.902 L3.0855 -37.7475" /></ns0:g><ns0:g transform="translate(146,109)" style="stroke-linecap:butt; fill:rgb(230,0,0); text-rendering:geometricPrecision; color-rendering:optimizeQuality; image-rendering:optimizeQuality; font-family:'Open Sans'; stroke:rgb(230,0,0); color-interpolation:linearRGB; stroke-miterlimit:5;"><ns0:path style="stroke:none;" d="M0.3075 -67.3153 Q0.3075 -65.2528 -0.7316 -64.0731 Q-1.7706 -62.8934 -3.6144 -62.8934 Q-5.505 -62.8934 -6.5363 -64.0575 Q-7.5675 -65.2216 -7.5675 -67.3309 Q-7.5675 -69.4247 -6.5363 -70.5731 Q-5.505 -71.7216 -3.6144 -71.7216 Q-1.755 -71.7216 -0.7238 -70.5497 Q0.3075 -69.3778 0.3075 -67.3153 ZM-6.5206 -67.3153 Q-6.5206 -65.5809 -5.7784 -64.6747 Q-5.0363 -63.7684 -3.6144 -63.7684 Q-2.1925 -63.7684 -1.4659 -64.6669 Q-0.7394 -65.5653 -0.7394 -67.3153 Q-0.7394 -69.0497 -1.4659 -69.9403 Q-2.1925 -70.8309 -3.6144 -70.8309 Q-5.0363 -70.8309 -5.7784 -69.9325 Q-6.5206 -69.0341 -6.5206 -67.3153 Z" /><ns0:path style="fill:none; stroke:black;" d="M9.432 27.509 L9.432 27.009 L8.999 26.759" /><ns0:path style="fill:none; stroke:black;" d="M9.432 56.509 L9.432 57.009 L9.865 57.259" /><ns0:path style="fill:none; stroke:black;" d="M34.979 71.759 L35.412 72.009 L35.412 72.509" /><ns0:path style="fill:rgb(0,5,255); stroke:none;" d="M-105.6774 -71.8698 L-106.8181 -71.8698 L-111.5056 -79.0573 L-111.5524 -79.0573 Q-111.4587 -77.7916 -111.4587 -76.7448 L-111.4587 -71.8698 L-112.3806 -71.8698 L-112.3806 -80.4323 L-111.2556 -80.4323 L-106.5837 -73.276 L-106.5368 -73.276 Q-106.5368 -73.4323 -106.5837 -74.2916 Q-106.6306 -75.151 -106.6149 -75.526 L-106.6149 -80.4323 L-105.6774 -80.4323 L-105.6774 -71.8698 Z" /><ns0:path style="stroke:none;" d="M-90.0915 -102.0793 Q-90.0915 -100.0168 -91.1306 -98.8371 Q-92.1696 -97.6574 -94.0134 -97.6574 Q-95.904 -97.6574 -96.9352 -98.8215 Q-97.9665 -99.9856 -97.9665 -102.0949 Q-97.9665 -104.1887 -96.9352 -105.3371 Q-95.904 -106.4856 -94.0134 -106.4856 Q-92.154 -106.4856 -91.1227 -105.3137 Q-90.0915 -104.1418 -90.0915 -102.0793 ZM-96.9196 -102.0793 Q-96.9196 -100.3449 -96.1774 -99.4387 Q-95.4352 -98.5324 -94.0134 -98.5324 Q-92.5915 -98.5324 -91.8649 -99.4309 Q-91.1384 -100.3293 -91.1384 -102.0793 Q-91.1384 -103.8137 -91.8649 -104.7043 Q-92.5915 -105.5949 -94.0134 -105.5949 Q-95.4352 -105.5949 -96.1774 -104.6965 Q-96.9196 -103.7981 -96.9196 -102.0793 Z" /><ns0:path style="stroke:none;" d="M-135.0915 -76.0963 Q-135.0915 -74.0338 -136.1306 -72.8541 Q-137.1696 -71.6744 -139.0134 -71.6744 Q-140.904 -71.6744 -141.9353 -72.8385 Q-142.9665 -74.0026 -142.9665 -76.1119 Q-142.9665 -78.2057 -141.9353 -79.3541 Q-140.904 -80.5026 -139.0134 -80.5026 Q-137.154 -80.5026 -136.1228 -79.3307 Q-135.0915 -78.1588 -135.0915 -76.0963 ZM-141.9196 -76.0963 Q-141.9196 -74.3619 -141.1774 -73.4557 Q-140.4353 -72.5494 -139.0134 -72.5494 Q-137.5915 -72.5494 -136.8649 -73.4479 Q-136.1384 -74.3463 -136.1384 -76.0963 Q-136.1384 -77.8307 -136.8649 -78.7213 Q-137.5915 -79.6119 -139.0134 -79.6119 Q-140.4353 -79.6119 -141.1774 -78.7135 Q-141.9196 -77.8151 -141.9196 -76.0963 Z" /><ns0:path style="stroke:none;" d="M120.6735 -0.8893 Q120.6735 1.1732 119.6344 2.3529 Q118.5954 3.5326 116.7516 3.5326 Q114.861 3.5326 113.8298 2.3685 Q112.7985 1.2044 112.7985 -0.9049 Q112.7985 -2.9987 113.8298 -4.1471 Q114.861 -5.2956 116.7516 -5.2956 Q118.611 -5.2956 119.6423 -4.1237 Q120.6735 -2.9518 120.6735 -0.8893 ZM113.8454 -0.8893 Q113.8454 0.8451 114.5876 1.7513 Q115.3298 2.6576 116.7516 2.6576 Q118.1735 2.6576 118.9001 1.7591 Q119.6266 0.8607 119.6266 -0.8893 Q119.6266 -2.6237 118.9001 -3.5143 Q118.1735 -4.4049 116.7516 -4.4049 Q115.3298 -4.4049 114.5876 -3.5065 Q113.8454 -2.6081 113.8454 -0.8893 Z" /><ns0:path style="fill:none; stroke:black;" d="M-19.6338 -17.3317 L-19.686 -17.829 L-20.1751 -17.933" /><ns0:path style="fill:none; stroke:black;" d="M-49.279 -24.499 L-49.029 -24.066 L-49.279 -23.633" /><ns0:path style="fill:none; stroke:black;" d="M-16.6032 11.5117 L-16.551 12.009 L-17.0078 12.2124" /><ns0:path style="fill:none; stroke:black;" d="M-64.529 1.914 L-64.029 1.914 L-63.6945 2.2856" /><ns0:path style="fill:none; stroke:black;" d="M-63.779 -49.613 L-64.029 -50.046 L-64.529 -50.046" /><ns0:path style="stroke:none;" d="M-40.0185 24.1397 Q-40.0185 26.2022 -41.0576 27.3819 Q-42.0966 28.5616 -43.9404 28.5616 Q-45.831 28.5616 -46.8622 27.3975 Q-47.8935 26.2334 -47.8935 24.1241 Q-47.8935 22.0303 -46.8622 20.8819 Q-45.831 19.7334 -43.9404 19.7334 Q-42.081 19.7334 -41.0497 20.9053 Q-40.0185 22.0772 -40.0185 24.1397 ZM-46.8466 24.1397 Q-46.8466 25.8741 -46.1044 26.7803 Q-45.3622 27.6866 -43.9404 27.6866 Q-42.5185 27.6866 -41.7919 26.7881 Q-41.0654 25.8897 -41.0654 24.1397 Q-41.0654 22.4053 -41.7919 21.5147 Q-42.5185 20.6241 -43.9404 20.6241 Q-45.3622 20.6241 -46.1044 21.5225 Q-46.8466 22.4209 -46.8466 24.1397 Z" /><ns0:path style="fill:none; stroke:black;" d="M-93.529 1.914 L-94.029 1.914 L-94.279 1.481" /><ns0:path style="fill:none; stroke:black;" d="M-94.279 -49.613 L-94.029 -50.046 L-94.279 -50.479" /><ns0:path style="fill:none; stroke:black;" d="M-108.779 -23.633 L-109.029 -24.066 L-108.779 -24.499" /><ns0:path style="fill:none; stroke:black;" d="M31.5116 -28.9665 L31.14 -28.632 L31.2439 -28.1429" /><ns0:path style="fill:none; stroke:black;" d="M53.0644 -48.3705 L53.436 -48.705 L53.9115 -48.5505" /><ns0:path style="fill:none; stroke:black;" d="M37.2731 0.2249 L37.377 0.714 L37.8525 0.8685" /><ns0:path style="fill:none; stroke:black;" d="M81.4905 -39.5895 L81.966 -39.435 L82.0699 -38.9459" /><ns0:path style="fill:none; stroke:black;" d="M65.4345 9.8295 L65.91 9.984 L66.2816 9.6494" /><ns0:path style="fill:none; stroke:black;" d="M88.0991 -10.5781 L88.203 -10.089 L88.6785 -9.9345" /></ns0:g></ns0:g></ns0:svg></ns0:svg></ns0:svg></ns0:svg></g></svg>