<svg xmlns:ns0="http://www.w3.org/2000/svg" xmlns="http://www.w3.org/2000/svg"><g transform="translate(0, 0)"><ns0:svg width="257" viewBox="0 0 257 213" style="fill-opacity:1; color-rendering:auto; color-interpolation:auto; text-rendering:auto; stroke:black; stroke-linecap:square; stroke-miterlimit:10; shape-rendering:auto; stroke-opacity:1; fill:black; stroke-dasharray:none; font-weight:normal; stroke-width:1; font-family:'Open Sans'; font-style:normal; stroke-linejoin:miter; font-size:12; stroke-dashoffset:0; image-rendering:auto;" height="213" class="cas-substance-image"><ns0:svg class="cas-substance-single-component"><ns0:rect y="0" x="0" width="257" stroke="none" ry="7" rx="7" height="213" fill="white" class="cas-substance-group" /><ns0:svg y="0" x="0" width="257" viewBox="0 0 257 213" style="fill:black;" height="213" class="cas-substance-single-component-image"><ns0:svg><ns0:g><ns0:g transform="translate(129,106)" style="text-rendering:geometricPrecision; color-rendering:optimizeQuality; color-interpolation:linearRGB; stroke-linecap:butt; image-rendering:optimizeQuality;"><ns0:line y2="-47.01" y1="-47.01" x2="45" x1="75" style="fill:none;" /><ns0:line y2="-77.01" y1="-47.01" x2="75" x1="75" style="fill:none;" /><ns0:line y2="-17.01" y1="-47.01" x2="75" x1="75" style="fill:none;" /><ns0:line y2="-47.01" y1="-47.01" x2="105" x1="75" style="fill:none;" /><ns0:line y2="-26.7517" y1="-47.01" x2="33.3035" x1="45" style="fill:none;" /><ns0:line y2="-88.7934" y1="-77.01" x2="54.5911" x1="75" style="fill:none;" /><ns0:line y2="-6.2831" y1="-17.01" x2="93.579" x1="75" style="fill:none;" /><ns0:line y2="-67.1017" y1="-47.01" x2="116.6003" x1="105" style="fill:none;" /><ns0:line y2="-21.03" y1="-21.03" x2="4.1513" x1="24.0625" style="fill:none;" /><ns0:line y2="-21.03" y1="-21.03" x2="-24.0625" x1="-4.7188" style="fill:none;" /><ns0:line y2="2.4934" y1="-16.7196" x2="0" x1="0" style="fill:none;" /><ns0:line y2="-44.6784" y1="-27.4362" x2="1.75" x1="1.75" style="fill:none;" /><ns0:line y2="-44.6784" y1="-27.4362" x2="-1.75" x1="-1.75" style="fill:none;" /><ns0:line y2="-47.01" y1="-26.7576" x2="-45" x1="-33.3069" style="fill:none;" /><ns0:line y2="23.97" y1="12.1588" x2="-25.98" x1="-5.523" style="fill:none;" /><ns0:line y2="-47.01" y1="-47.01" x2="-75" x1="-45" style="fill:none;" /><ns0:line y2="53.97" y1="23.97" x2="-25.98" x1="-25.98" style="fill:none;" /><ns0:line y2="-72.99" y1="-47.01" x2="-60" x1="-75" style="fill:none;" /><ns0:line y2="-72.99" y1="-47.01" x2="-90" x1="-75" style="fill:none;" /><ns0:line y2="-21.03" y1="-47.01" x2="-90" x1="-75" style="fill:none;" /><ns0:line y2="53.97" y1="53.97" x2="-55.98" x1="-25.98" style="fill:none;" /><ns0:line y2="83.97" y1="53.97" x2="-25.98" x1="-25.98" style="fill:none;" /><ns0:line y2="53.97" y1="53.97" x2="4.02" x1="-25.98" style="fill:none;" /><ns0:line y2="-93.0817" y1="-72.99" x2="-71.6003" x1="-60" style="fill:none;" /><ns0:line y2="-72.99" y1="-72.99" x2="-113.1274" x1="-90" style="fill:none;" /><ns0:line y2="-21.03" y1="-21.03" x2="-113.1274" x1="-90" style="fill:none;" /><ns0:line y2="74.8404" y1="53.97" x2="-68.0285" x1="-55.98" style="fill:none;" /><ns0:line y2="95.3491" y1="83.97" x2="-45.6908" x1="-25.98" style="fill:none;" /><ns0:line y2="73.8147" y1="53.97" x2="15.4763" x1="4.02" style="fill:none;" /><ns0:path style="fill:none; stroke-miterlimit:5;" d="M45.5 -47.01 L45 -47.01 L44.75 -46.577" /><ns0:path style="fill:none; stroke-miterlimit:5;" d="M75 -76.51 L75 -77.01 L74.567 -77.26" /><ns0:path style="fill:none; stroke-miterlimit:5;" d="M75 -17.51 L75 -17.01 L75.433 -16.76" /><ns0:path style="fill:none; stroke-miterlimit:5;" d="M104.5 -47.01 L105 -47.01 L105.25 -47.443" /></ns0:g><ns0:g transform="translate(129,106)" style="stroke-linecap:butt; fill:rgb(230,0,0); text-rendering:geometricPrecision; color-rendering:optimizeQuality; image-rendering:optimizeQuality; font-family:'Open Sans'; stroke:rgb(230,0,0); color-interpolation:linearRGB; stroke-miterlimit:5;"><ns0:path style="stroke:none;" d="M33.9375 -21.1003 Q33.9375 -19.0378 32.8984 -17.8581 Q31.8594 -16.6784 30.0156 -16.6784 Q28.125 -16.6784 27.0938 -17.8425 Q26.0625 -19.0066 26.0625 -21.1159 Q26.0625 -23.2097 27.0938 -24.3581 Q28.125 -25.5066 30.0156 -25.5066 Q31.875 -25.5066 32.9062 -24.3347 Q33.9375 -23.1628 33.9375 -21.1003 ZM27.1094 -21.1003 Q27.1094 -19.3659 27.8516 -18.4597 Q28.5938 -17.5534 30.0156 -17.5534 Q31.4375 -17.5534 32.1641 -18.4519 Q32.8906 -19.3503 32.8906 -21.1003 Q32.8906 -22.8347 32.1641 -23.7253 Q31.4375 -24.6159 30.0156 -24.6159 Q28.5938 -24.6159 27.8516 -23.7175 Q27.1094 -22.8191 27.1094 -21.1003 Z" /><ns0:path style="fill:rgb(0,138,0); stroke:none;" d="M43.3511 -96.4162 L45.7729 -96.4162 Q47.4761 -96.4162 48.2417 -95.9084 Q49.0073 -95.4006 49.0073 -94.3069 Q49.0073 -93.5412 48.5854 -93.0412 Q48.1636 -92.5412 47.3354 -92.4006 L47.3354 -92.3381 Q49.2886 -92.01 49.2886 -90.2912 Q49.2886 -89.1506 48.5151 -88.5022 Q47.7417 -87.8537 46.3511 -87.8537 L43.3511 -87.8537 L43.3511 -96.4162 ZM44.3511 -92.76 L45.9917 -92.76 Q47.0542 -92.76 47.5151 -93.0881 Q47.9761 -93.4162 47.9761 -94.1975 Q47.9761 -94.9162 47.4604 -95.2366 Q46.9448 -95.5569 45.8198 -95.5569 L44.3511 -95.5569 L44.3511 -92.76 ZM44.3511 -91.9162 L44.3511 -88.6975 L46.1479 -88.6975 Q47.1792 -88.6975 47.7026 -89.1037 Q48.2261 -89.51 48.2261 -90.3694 Q48.2261 -91.1662 47.687 -91.5412 Q47.1479 -91.9162 46.0542 -91.9162 L44.3511 -91.9162 ZM53.9233 -94.4006 Q54.3452 -94.4006 54.6889 -94.3225 L54.5483 -93.4162 Q54.1577 -93.51 53.8452 -93.51 Q53.0639 -93.51 52.5093 -92.8772 Q51.9546 -92.2444 51.9546 -91.3069 L51.9546 -87.8537 L50.9858 -87.8537 L50.9858 -94.2756 L51.7827 -94.2756 L51.9077 -93.0881 L51.9546 -93.0881 Q52.2983 -93.7131 52.8061 -94.0569 Q53.3139 -94.4006 53.9233 -94.4006 Z" /><ns0:path style="fill:rgb(0,138,0); stroke:none;" d="M95.3111 -6.4163 L97.7329 -6.4163 Q99.4361 -6.4163 100.2017 -5.9084 Q100.9673 -5.4006 100.9673 -4.3069 Q100.9673 -3.5412 100.5454 -3.0412 Q100.1236 -2.5412 99.2954 -2.4006 L99.2954 -2.3381 Q101.2486 -2.01 101.2486 -0.2912 Q101.2486 0.8494 100.4751 1.4978 Q99.7017 2.1463 98.3111 2.1463 L95.3111 2.1463 L95.3111 -6.4163 ZM96.3111 -2.76 L97.9517 -2.76 Q99.0142 -2.76 99.4751 -3.0881 Q99.9361 -3.4162 99.9361 -4.1975 Q99.9361 -4.9163 99.4204 -5.2366 Q98.9048 -5.5569 97.7798 -5.5569 L96.3111 -5.5569 L96.3111 -2.76 ZM96.3111 -1.9162 L96.3111 1.3025 L98.1079 1.3025 Q99.1392 1.3025 99.6626 0.8963 Q100.1861 0.49 100.1861 -0.3694 Q100.1861 -1.1662 99.647 -1.5412 Q99.1079 -1.9162 98.0142 -1.9162 L96.3111 -1.9162 ZM105.8833 -4.4006 Q106.3052 -4.4006 106.6489 -4.3225 L106.5083 -3.4162 Q106.1177 -3.51 105.8052 -3.51 Q105.0239 -3.51 104.4693 -2.8772 Q103.9146 -2.2444 103.9146 -1.3069 L103.9146 2.1463 L102.9458 2.1463 L102.9458 -4.2756 L103.7427 -4.2756 L103.8677 -3.0881 L103.9146 -3.0881 Q104.2583 -3.7131 104.7661 -4.0569 Q105.2739 -4.4006 105.8833 -4.4006 Z" /><ns0:path style="fill:rgb(0,138,0); stroke:none;" d="M114.3311 -77.3963 L116.7529 -77.3963 Q118.4561 -77.3963 119.2217 -76.8884 Q119.9873 -76.3806 119.9873 -75.2869 Q119.9873 -74.5213 119.5654 -74.0213 Q119.1436 -73.5213 118.3154 -73.3806 L118.3154 -73.3181 Q120.2686 -72.99 120.2686 -71.2713 Q120.2686 -70.1306 119.4951 -69.4822 Q118.7217 -68.8338 117.3311 -68.8338 L114.3311 -68.8338 L114.3311 -77.3963 ZM115.3311 -73.74 L116.9717 -73.74 Q118.0342 -73.74 118.4951 -74.0681 Q118.9561 -74.3963 118.9561 -75.1775 Q118.9561 -75.8963 118.4404 -76.2166 Q117.9248 -76.5369 116.7998 -76.5369 L115.3311 -76.5369 L115.3311 -73.74 ZM115.3311 -72.8963 L115.3311 -69.6775 L117.1279 -69.6775 Q118.1592 -69.6775 118.6826 -70.0838 Q119.2061 -70.49 119.2061 -71.3494 Q119.2061 -72.1463 118.667 -72.5213 Q118.1279 -72.8963 117.0342 -72.8963 L115.3311 -72.8963 ZM124.9033 -75.3806 Q125.3252 -75.3806 125.6689 -75.3025 L125.5283 -74.3963 Q125.1377 -74.49 124.8252 -74.49 Q124.0439 -74.49 123.4893 -73.8572 Q122.9346 -73.2244 122.9346 -72.2869 L122.9346 -68.8338 L121.9658 -68.8338 L121.9658 -75.2556 L122.7627 -75.2556 L122.8877 -74.0681 L122.9346 -74.0681 Q123.2783 -74.6931 123.7861 -75.0369 Q124.2939 -75.3806 124.9033 -75.3806 Z" /><ns0:path style="fill:rgb(111,5,255); stroke:none;" d="M2.7188 -22.9519 Q2.7188 -21.6394 1.8281 -20.9441 Q0.9375 -20.2487 -0.7031 -20.2487 L-1.7188 -20.2487 L-1.7188 -16.8737 L-2.7188 -16.8737 L-2.7188 -25.4362 L-0.4844 -25.4362 Q2.7188 -25.4362 2.7188 -22.9519 ZM-1.7188 -21.0925 L-0.8125 -21.0925 Q0.5 -21.0925 1.0938 -21.5222 Q1.6875 -21.9519 1.6875 -22.905 Q1.6875 -23.7487 1.1328 -24.1628 Q0.5781 -24.5769 -0.6094 -24.5769 L-1.7188 -24.5769 L-1.7188 -21.0925 Z" /><ns0:path style="stroke:none;" d="M-26.0625 -21.1003 Q-26.0625 -19.0378 -27.1016 -17.8581 Q-28.1406 -16.6784 -29.9844 -16.6784 Q-31.875 -16.6784 -32.9062 -17.8425 Q-33.9375 -19.0066 -33.9375 -21.1159 Q-33.9375 -23.2097 -32.9062 -24.3581 Q-31.875 -25.5066 -29.9844 -25.5066 Q-28.125 -25.5066 -27.0938 -24.3347 Q-26.0625 -23.1628 -26.0625 -21.1003 ZM-32.8906 -21.1003 Q-32.8906 -19.3659 -32.1484 -18.4597 Q-31.4062 -17.5534 -29.9844 -17.5534 Q-28.5625 -17.5534 -27.8359 -18.4519 Q-27.1094 -19.3503 -27.1094 -21.1003 Q-27.1094 -22.8347 -27.8359 -23.7253 Q-28.5625 -24.6159 -29.9844 -24.6159 Q-31.4062 -24.6159 -32.1484 -23.7175 Q-32.8906 -22.8191 -32.8906 -21.1003 Z" /><ns0:path style="stroke:none;" d="M3.9375 8.8997 Q3.9375 10.9622 2.8984 12.1419 Q1.8594 13.3216 0.0156 13.3216 Q-1.875 13.3216 -2.9062 12.1575 Q-3.9375 10.9934 -3.9375 8.8841 Q-3.9375 6.7903 -2.9062 5.6419 Q-1.875 4.4934 0.0156 4.4934 Q1.875 4.4934 2.9062 5.6653 Q3.9375 6.8372 3.9375 8.8997 ZM-2.8906 8.8997 Q-2.8906 10.6341 -2.1484 11.5403 Q-1.4062 12.4466 0.0156 12.4466 Q1.4375 12.4466 2.1641 11.5481 Q2.8906 10.6497 2.8906 8.8997 Q2.8906 7.1653 2.1641 6.2747 Q1.4375 5.3841 0.0156 5.3841 Q-1.4062 5.3841 -2.1484 6.2825 Q-2.8906 7.1809 -2.8906 8.8997 Z" /><ns0:path style="stroke:none;" d="M3.9375 -51.1003 Q3.9375 -49.0378 2.8984 -47.8581 Q1.8594 -46.6784 0.0156 -46.6784 Q-1.875 -46.6784 -2.9062 -47.8425 Q-3.9375 -49.0066 -3.9375 -51.1159 Q-3.9375 -53.2097 -2.9062 -54.3581 Q-1.875 -55.5066 0.0156 -55.5066 Q1.875 -55.5066 2.9062 -54.3347 Q3.9375 -53.1628 3.9375 -51.1003 ZM-2.8906 -51.1003 Q-2.8906 -49.3659 -2.1484 -48.4597 Q-1.4062 -47.5534 0.0156 -47.5534 Q1.4375 -47.5534 2.1641 -48.4519 Q2.8906 -49.3503 2.8906 -51.1003 Q2.8906 -52.8347 2.1641 -53.7253 Q1.4375 -54.6159 0.0156 -54.6159 Q-1.4062 -54.6159 -2.1484 -53.7175 Q-2.8906 -52.8191 -2.8906 -51.1003 Z" /><ns0:path style="fill:none; stroke:black;" d="M-44.75 -46.577 L-45 -47.01 L-45.5 -47.01" /><ns0:path style="fill:none; stroke:black;" d="M-25.547 23.72 L-25.98 23.97 L-25.98 24.47" /><ns0:path style="fill:none; stroke:black;" d="M-60.25 -72.557 L-60 -72.99 L-60.25 -73.423" /><ns0:path style="fill:none; stroke:black;" d="M-89.75 -72.557 L-90 -72.99 L-90.5 -72.99" /><ns0:path style="fill:none; stroke:black;" d="M-89.75 -21.463 L-90 -21.03 L-90.5 -21.03" /><ns0:path style="fill:none; stroke:black;" d="M-55.48 53.97 L-55.98 53.97 L-56.23 54.403" /><ns0:path style="fill:none; stroke:black;" d="M-25.98 83.47 L-25.98 83.97 L-26.413 84.22" /><ns0:path style="fill:none; stroke:black;" d="M3.52 53.97 L4.02 53.97 L4.27 54.403" /><ns0:path style="fill:rgb(0,138,0); stroke:none;" d="M-80.6689 -103.3763 L-78.2471 -103.3763 Q-76.5439 -103.3763 -75.7783 -102.8684 Q-75.0127 -102.3606 -75.0127 -101.2669 Q-75.0127 -100.5013 -75.4346 -100.0013 Q-75.8564 -99.5013 -76.6846 -99.3606 L-76.6846 -99.2981 Q-74.7314 -98.97 -74.7314 -97.2513 Q-74.7314 -96.1106 -75.5049 -95.4622 Q-76.2783 -94.8138 -77.6689 -94.8138 L-80.6689 -94.8138 L-80.6689 -103.3763 ZM-79.6689 -99.72 L-78.0283 -99.72 Q-76.9658 -99.72 -76.5049 -100.0481 Q-76.0439 -100.3763 -76.0439 -101.1575 Q-76.0439 -101.8763 -76.5596 -102.1966 Q-77.0752 -102.5169 -78.2002 -102.5169 L-79.6689 -102.5169 L-79.6689 -99.72 ZM-79.6689 -98.8763 L-79.6689 -95.6575 L-77.8721 -95.6575 Q-76.8408 -95.6575 -76.3174 -96.0638 Q-75.7939 -96.47 -75.7939 -97.3294 Q-75.7939 -98.1263 -76.333 -98.5013 Q-76.8721 -98.8763 -77.9658 -98.8763 L-79.6689 -98.8763 ZM-70.0967 -101.3606 Q-69.6748 -101.3606 -69.3311 -101.2825 L-69.4717 -100.3763 Q-69.8623 -100.47 -70.1748 -100.47 Q-70.9561 -100.47 -71.5107 -99.8372 Q-72.0654 -99.2044 -72.0654 -98.2669 L-72.0654 -94.8138 L-73.0342 -94.8138 L-73.0342 -101.2356 L-72.2373 -101.2356 L-72.1123 -100.0481 L-72.0654 -100.0481 Q-71.7217 -100.6731 -71.2139 -101.0169 Q-70.7061 -101.3606 -70.0967 -101.3606 Z" /><ns0:path style="fill:rgb(0,138,0); stroke:none;" d="M-125.6689 -77.3963 L-123.2471 -77.3963 Q-121.5439 -77.3963 -120.7783 -76.8884 Q-120.0127 -76.3806 -120.0127 -75.2869 Q-120.0127 -74.5213 -120.4346 -74.0213 Q-120.8564 -73.5213 -121.6846 -73.3806 L-121.6846 -73.3181 Q-119.7314 -72.99 -119.7314 -71.2713 Q-119.7314 -70.1306 -120.5049 -69.4822 Q-121.2783 -68.8338 -122.6689 -68.8338 L-125.6689 -68.8338 L-125.6689 -77.3963 ZM-124.6689 -73.74 L-123.0283 -73.74 Q-121.9658 -73.74 -121.5049 -74.0681 Q-121.0439 -74.3963 -121.0439 -75.1775 Q-121.0439 -75.8963 -121.5596 -76.2166 Q-122.0752 -76.5369 -123.2002 -76.5369 L-124.6689 -76.5369 L-124.6689 -73.74 ZM-124.6689 -72.8963 L-124.6689 -69.6775 L-122.8721 -69.6775 Q-121.8408 -69.6775 -121.3174 -70.0838 Q-120.7939 -70.49 -120.7939 -71.3494 Q-120.7939 -72.1463 -121.333 -72.5213 Q-121.8721 -72.8963 -122.9658 -72.8963 L-124.6689 -72.8963 ZM-115.0967 -75.3806 Q-114.6748 -75.3806 -114.3311 -75.3025 L-114.4717 -74.3963 Q-114.8623 -74.49 -115.1748 -74.49 Q-115.9561 -74.49 -116.5107 -73.8572 Q-117.0654 -73.2244 -117.0654 -72.2869 L-117.0654 -68.8338 L-118.0342 -68.8338 L-118.0342 -75.2556 L-117.2373 -75.2556 L-117.1123 -74.0681 L-117.0654 -74.0681 Q-116.7217 -74.6931 -116.2139 -75.0369 Q-115.7061 -75.3806 -115.0967 -75.3806 Z" /><ns0:path style="fill:rgb(0,138,0); stroke:none;" d="M-125.6689 -25.4362 L-123.2471 -25.4362 Q-121.5439 -25.4362 -120.7783 -24.9284 Q-120.0127 -24.4206 -120.0127 -23.3269 Q-120.0127 -22.5612 -120.4346 -22.0612 Q-120.8564 -21.5612 -121.6846 -21.4206 L-121.6846 -21.3581 Q-119.7314 -21.03 -119.7314 -19.3112 Q-119.7314 -18.1706 -120.5049 -17.5222 Q-121.2783 -16.8737 -122.6689 -16.8737 L-125.6689 -16.8737 L-125.6689 -25.4362 ZM-124.6689 -21.78 L-123.0283 -21.78 Q-121.9658 -21.78 -121.5049 -22.1081 Q-121.0439 -22.4362 -121.0439 -23.2175 Q-121.0439 -23.9362 -121.5596 -24.2566 Q-122.0752 -24.5769 -123.2002 -24.5769 L-124.6689 -24.5769 L-124.6689 -21.78 ZM-124.6689 -20.9362 L-124.6689 -17.7175 L-122.8721 -17.7175 Q-121.8408 -17.7175 -121.3174 -18.1237 Q-120.7939 -18.53 -120.7939 -19.3894 Q-120.7939 -20.1862 -121.333 -20.5612 Q-121.8721 -20.9362 -122.9658 -20.9362 L-124.6689 -20.9362 ZM-115.0967 -23.4206 Q-114.6748 -23.4206 -114.3311 -23.3425 L-114.4717 -22.4362 Q-114.8623 -22.53 -115.1748 -22.53 Q-115.9561 -22.53 -116.5107 -21.8972 Q-117.0654 -21.2644 -117.0654 -20.3269 L-117.0654 -16.8737 L-118.0342 -16.8737 L-118.0342 -23.2956 L-117.2373 -23.2956 L-117.1123 -22.1081 L-117.0654 -22.1081 Q-116.7217 -22.7331 -116.2139 -23.0769 Q-115.7061 -23.4206 -115.0967 -23.4206 Z" /><ns0:path style="fill:rgb(0,138,0); stroke:none;" d="M-76.6489 75.5468 L-74.2271 75.5468 Q-72.5239 75.5468 -71.7583 76.0546 Q-70.9927 76.5624 -70.9927 77.6561 Q-70.9927 78.4218 -71.4146 78.9218 Q-71.8364 79.4218 -72.6646 79.5624 L-72.6646 79.6249 Q-70.7114 79.953 -70.7114 81.6718 Q-70.7114 82.8124 -71.4849 83.4608 Q-72.2583 84.1093 -73.6489 84.1093 L-76.6489 84.1093 L-76.6489 75.5468 ZM-75.6489 79.203 L-74.0083 79.203 Q-72.9458 79.203 -72.4849 78.8749 Q-72.0239 78.5468 -72.0239 77.7655 Q-72.0239 77.0468 -72.5396 76.7264 Q-73.0552 76.4061 -74.1802 76.4061 L-75.6489 76.4061 L-75.6489 79.203 ZM-75.6489 80.0468 L-75.6489 83.2655 L-73.8521 83.2655 Q-72.8208 83.2655 -72.2974 82.8593 Q-71.7739 82.453 -71.7739 81.5936 Q-71.7739 80.7968 -72.313 80.4218 Q-72.8521 80.0468 -73.9458 80.0468 L-75.6489 80.0468 ZM-66.0767 77.5624 Q-65.6548 77.5624 -65.3111 77.6405 L-65.4517 78.5468 Q-65.8423 78.453 -66.1548 78.453 Q-66.9361 78.453 -67.4907 79.0858 Q-68.0454 79.7186 -68.0454 80.6561 L-68.0454 84.1093 L-69.0142 84.1093 L-69.0142 77.6874 L-68.2173 77.6874 L-68.0923 78.8749 L-68.0454 78.8749 Q-67.7017 78.2499 -67.1939 77.9061 Q-66.6861 77.5624 -66.0767 77.5624 Z" /><ns0:path style="fill:rgb(0,138,0); stroke:none;" d="M-57.6319 94.5638 L-55.2101 94.5638 Q-53.5069 94.5638 -52.7413 95.0716 Q-51.9757 95.5794 -51.9757 96.6731 Q-51.9757 97.4388 -52.3976 97.9388 Q-52.8194 98.4388 -53.6476 98.5794 L-53.6476 98.6419 Q-51.6944 98.97 -51.6944 100.6888 Q-51.6944 101.8294 -52.4679 102.4778 Q-53.2413 103.1263 -54.6319 103.1263 L-57.6319 103.1263 L-57.6319 94.5638 ZM-56.6319 98.22 L-54.9913 98.22 Q-53.9288 98.22 -53.4679 97.8919 Q-53.0069 97.5638 -53.0069 96.7825 Q-53.0069 96.0638 -53.5226 95.7434 Q-54.0382 95.4231 -55.1632 95.4231 L-56.6319 95.4231 L-56.6319 98.22 ZM-56.6319 99.0638 L-56.6319 102.2825 L-54.8351 102.2825 Q-53.8038 102.2825 -53.2804 101.8763 Q-52.7569 101.47 -52.7569 100.6106 Q-52.7569 99.8138 -53.296 99.4388 Q-53.8351 99.0638 -54.9288 99.0638 L-56.6319 99.0638 ZM-47.0597 96.5794 Q-46.6378 96.5794 -46.2941 96.6575 L-46.4347 97.5638 Q-46.8253 97.47 -47.1378 97.47 Q-47.9191 97.47 -48.4737 98.1028 Q-49.0284 98.7356 -49.0284 99.6731 L-49.0284 103.1263 L-49.9972 103.1263 L-49.9972 96.7044 L-49.2003 96.7044 L-49.0753 97.8919 L-49.0284 97.8919 Q-48.6847 97.2669 -48.1769 96.9231 Q-47.6691 96.5794 -47.0597 96.5794 Z" /><ns0:path style="fill:rgb(0,138,0); stroke:none;" d="M13.3511 75.5468 L15.7729 75.5468 Q17.4761 75.5468 18.2417 76.0546 Q19.0073 76.5624 19.0073 77.6561 Q19.0073 78.4218 18.5854 78.9218 Q18.1636 79.4218 17.3354 79.5624 L17.3354 79.6249 Q19.2886 79.953 19.2886 81.6718 Q19.2886 82.8124 18.5151 83.4608 Q17.7417 84.1093 16.3511 84.1093 L13.3511 84.1093 L13.3511 75.5468 ZM14.3511 79.203 L15.9917 79.203 Q17.0542 79.203 17.5151 78.8749 Q17.9761 78.5468 17.9761 77.7655 Q17.9761 77.0468 17.4604 76.7264 Q16.9448 76.4061 15.8198 76.4061 L14.3511 76.4061 L14.3511 79.203 ZM14.3511 80.0468 L14.3511 83.2655 L16.1479 83.2655 Q17.1792 83.2655 17.7026 82.8593 Q18.2261 82.453 18.2261 81.5936 Q18.2261 80.7968 17.687 80.4218 Q17.1479 80.0468 16.0542 80.0468 L14.3511 80.0468 ZM23.9233 77.5624 Q24.3452 77.5624 24.6889 77.6405 L24.5483 78.5468 Q24.1577 78.453 23.8452 78.453 Q23.0639 78.453 22.5093 79.0858 Q21.9546 79.7186 21.9546 80.6561 L21.9546 84.1093 L20.9858 84.1093 L20.9858 77.6874 L21.7827 77.6874 L21.9077 78.8749 L21.9546 78.8749 Q22.2983 78.2499 22.8061 77.9061 Q23.3139 77.5624 23.9233 77.5624 Z" /></ns0:g></ns0:g></ns0:svg></ns0:svg></ns0:svg></ns0:svg></g></svg>