<svg width="318" viewBox="0 0 318 97" style="fill-opacity:1; color-rendering:auto; color-interpolation:auto; text-rendering:auto; stroke:black; stroke-linecap:square; stroke-miterlimit:10; shape-rendering:auto; stroke-opacity:1; fill:black; stroke-dasharray:none; font-weight:normal; stroke-width:1; font-family:'Open Sans'; font-style:normal; stroke-linejoin:miter; font-size:12; stroke-dashoffset:0; image-rendering:auto;" height="97" class="cas-substance-image" xmlns:xlink="http://www.w3.org/1999/xlink" xmlns="http://www.w3.org/2000/svg"><svg class="cas-substance-single-component"><rect y="0" x="0" width="318" stroke="none" ry="7" rx="7" height="97" fill="white" class="cas-substance-group"/><svg y="0" x="0" width="318" viewBox="0 0 318 97" style="fill:black;" height="97" class="cas-substance-single-component-image"><svg><g><g transform="translate(159,49)" style="text-rendering:geometricPrecision; color-rendering:optimizeQuality; color-interpolation:linearRGB; stroke-linecap:butt; image-rendering:optimizeQuality;"><line y2="0" y1="11.774" x2="0" x1="-20.3925" style="fill:none;"/><line y2="0" y1="11.7588" x2="-51.963" x1="-31.5943" style="fill:none;"/><line y2="12.0649" y1="0" x2="20.8964" x1="0" style="fill:none;"/><line y2="-23.6562" y1="1.0104" x2="1.75" x1="1.75" style="fill:none;"/><line y2="-23.6562" y1="1.0104" x2="-1.75" x1="-1.75" style="fill:none;"/><line y2="45" y1="21.1562" x2="25.98" x1="25.98" style="fill:none;"/><line y2="0" y1="12.0652" x2="51.963" x1="31.0637" style="fill:none;"/><line y2="45" y1="15" x2="-129.903" x1="-129.903" style="fill:none;"/><line y2="30" y1="15" x2="-155.886" x1="-129.903" style="fill:none;"/><line y2="0" y1="15" x2="-155.886" x1="-129.903" style="fill:none;"/><line y2="0" y1="15" x2="-103.923" x1="-129.903" style="fill:none;"/><line y2="0" y1="11.7742" x2="155.886" x1="135.4907" style="fill:none;"/><line y2="0" y1="11.7586" x2="103.923" x1="124.2889" style="fill:none;"/><line y2="15" y1="0" x2="-77.943" x1="-51.963" style="fill:none;"/><line y2="10.9585" y1="-2.0207" x2="-77.9431" x1="-55.463" style="fill:none;"/><line y2="-30" y1="0" x2="-51.963" x1="-51.963" style="fill:none;"/><line y2="0" y1="15" x2="-103.923" x1="-77.943" style="fill:none;"/><line y2="-45" y1="-30" x2="-77.943" x1="-51.963" style="fill:none;"/><line y2="-40.9585" y1="-27.9793" x2="-77.9431" x1="-55.463" style="fill:none;"/><line y2="-30" y1="0" x2="-103.923" x1="-103.923" style="fill:none;"/><line y2="-27.9793" y1="-2.0207" x2="-100.423" x1="-100.423" style="fill:none;"/><line y2="-30" y1="-45" x2="-103.923" x1="-77.943" style="fill:none;"/><line y2="12.0649" y1="0" x2="72.8594" x1="51.963" style="fill:none;"/><line y2="-30" y1="0" x2="51.963" x1="51.963" style="fill:none;"/><line y2="-27.9793" y1="-2.0207" x2="55.463" x1="55.463" style="fill:none;"/><line y2="0" y1="12.0649" x2="103.923" x1="83.0266" style="fill:none;"/><line y2="-2.0207" y1="9.0338" x2="100.423" x1="81.2766" style="fill:none;"/><line y2="-45" y1="-30" x2="77.943" x1="51.963" style="fill:none;"/><line y2="-30" y1="0" x2="103.923" x1="103.923" style="fill:none;"/><line y2="-30" y1="-45" x2="103.923" x1="77.943" style="fill:none;"/><line y2="-27.9793" y1="-40.9585" x2="100.423" x1="77.9429" style="fill:none;"/></g><g transform="translate(159,49)" style="fill:rgb(230,0,0); text-rendering:geometricPrecision; color-rendering:optimizeQuality; image-rendering:optimizeQuality; font-family:'Open Sans'; stroke:rgb(230,0,0); color-interpolation:linearRGB;"><path style="stroke:none;" d="M-22.0425 14.9297 Q-22.0425 16.9922 -23.0816 18.1719 Q-24.1206 19.3516 -25.9644 19.3516 Q-27.855 19.3516 -28.8862 18.1875 Q-29.9175 17.0234 -29.9175 14.9141 Q-29.9175 12.8203 -28.8862 11.6719 Q-27.855 10.5234 -25.9644 10.5234 Q-24.105 10.5234 -23.0737 11.6953 Q-22.0425 12.8672 -22.0425 14.9297 ZM-28.8706 14.9297 Q-28.8706 16.6641 -28.1284 17.5703 Q-27.3862 18.4766 -25.9644 18.4766 Q-24.5425 18.4766 -23.8159 17.5781 Q-23.0894 16.6797 -23.0894 14.9297 Q-23.0894 13.1953 -23.8159 12.3047 Q-24.5425 11.4141 -25.9644 11.4141 Q-27.3862 11.4141 -28.1284 12.3125 Q-28.8706 13.2109 -28.8706 14.9297 Z"/></g><g transform="translate(159,49)" style="stroke-linecap:butt; text-rendering:geometricPrecision; color-rendering:optimizeQuality; image-rendering:optimizeQuality; font-family:'Open Sans'; color-interpolation:linearRGB; stroke-miterlimit:5;"><path style="fill:none;" d="M-0.433 0.25 L0 0 L0.433 0.25"/><path style="fill:rgb(0,5,255); stroke:none;" d="M29.3316 19.1562 L28.1909 19.1562 L23.5034 11.9688 L23.4566 11.9688 Q23.5503 13.2344 23.5503 14.2812 L23.5503 19.1562 L22.6284 19.1562 L22.6284 10.5938 L23.7534 10.5938 L28.4253 17.75 L28.4722 17.75 Q28.4722 17.5938 28.4253 16.7344 Q28.3784 15.875 28.3941 15.5 L28.3941 10.5938 L29.3316 10.5938 L29.3316 19.1562 Z"/><path style="fill:rgb(148,108,0); stroke:none;" d="M2.6953 -28.0625 Q2.6953 -26.9375 1.875 -26.2969 Q1.0547 -25.6562 -0.3516 -25.6562 Q-1.8828 -25.6562 -2.6953 -26.0625 L-2.6953 -27.0156 Q-2.1641 -26.7969 -1.5469 -26.6641 Q-0.9297 -26.5312 -0.3203 -26.5312 Q0.6797 -26.5312 1.1797 -26.9141 Q1.6797 -27.2969 1.6797 -27.9688 Q1.6797 -28.4062 1.5 -28.6953 Q1.3203 -28.9844 0.9062 -29.2266 Q0.4922 -29.4688 -0.3672 -29.7656 Q-1.5547 -30.1875 -2.0703 -30.7734 Q-2.5859 -31.3594 -2.5859 -32.3125 Q-2.5859 -33.2969 -1.8438 -33.8828 Q-1.1016 -34.4688 0.1328 -34.4688 Q1.3984 -34.4688 2.4766 -34 L2.1641 -33.1406 Q1.1016 -33.5781 0.1016 -33.5781 Q-0.6953 -33.5781 -1.1406 -33.2422 Q-1.5859 -32.9062 -1.5859 -32.2969 Q-1.5859 -31.8594 -1.4219 -31.5703 Q-1.2578 -31.2812 -0.8672 -31.0469 Q-0.4766 -30.8125 0.3359 -30.5156 Q1.6797 -30.0469 2.1875 -29.4922 Q2.6953 -28.9375 2.6953 -28.0625 Z"/><path style="fill:rgb(230,0,0); stroke:none;" d="M133.8405 14.9297 Q133.8405 16.9922 132.8014 18.1719 Q131.7624 19.3516 129.9186 19.3516 Q128.028 19.3516 126.9967 18.1875 Q125.9655 17.0234 125.9655 14.9141 Q125.9655 12.8203 126.9967 11.6719 Q128.028 10.5234 129.9186 10.5234 Q131.778 10.5234 132.8092 11.6953 Q133.8405 12.8672 133.8405 14.9297 ZM127.0124 14.9297 Q127.0124 16.6641 127.7546 17.5703 Q128.4967 18.4766 129.9186 18.4766 Q131.3405 18.4766 132.0671 17.5781 Q132.7936 16.6797 132.7936 14.9297 Q132.7936 13.1953 132.0671 12.3047 Q131.3405 11.4141 129.9186 11.4141 Q128.4967 11.4141 127.7546 12.3125 Q127.0124 13.2109 127.0124 14.9297 Z"/><path style="fill:none;" d="M-52.396 0.25 L-51.963 0 L-51.963 -0.5"/><path style="fill:none;" d="M-77.51 14.75 L-77.943 15 L-78.376 14.75"/><path style="fill:none;" d="M-51.963 -29.5 L-51.963 -30 L-52.396 -30.25"/><path style="fill:none;" d="M-103.923 -0.5 L-103.923 0 L-104.356 0.25"/><path style="fill:none;" d="M-77.51 -44.75 L-77.943 -45 L-78.376 -44.75"/><path style="fill:none;" d="M-103.923 -29.5 L-103.923 -30 L-103.49 -30.25"/><path style="fill:none;" d="M51.963 -0.5 L51.963 0 L51.53 0.25"/><path style="fill:rgb(0,5,255); stroke:none;" d="M81.2946 19.1562 L80.1539 19.1562 L75.4664 11.9688 L75.4196 11.9688 Q75.5133 13.2344 75.5133 14.2812 L75.5133 19.1562 L74.5914 19.1562 L74.5914 10.5938 L75.7164 10.5938 L80.3883 17.75 L80.4352 17.75 Q80.4352 17.5938 80.3883 16.7344 Q80.3414 15.875 80.3571 15.5 L80.3571 10.5938 L81.2946 10.5938 L81.2946 19.1562 Z"/><path style="fill:none;" d="M51.963 -29.5 L51.963 -30 L52.396 -30.25"/><path style="fill:none;" d="M103.49 0.25 L103.923 0 L103.923 -0.5"/><path style="fill:none;" d="M77.51 -44.75 L77.943 -45 L78.376 -44.75"/><path style="fill:none;" d="M103.923 -29.5 L103.923 -30 L103.49 -30.25"/></g></g></svg></svg></svg></svg>