<svg xmlns:ns0="http://www.w3.org/2000/svg" xmlns="http://www.w3.org/2000/svg"><g transform="translate(0, 0)"><ns0:svg width="800" viewBox="0 0 800 20" style="fill-opacity:1; color-rendering:auto; color-interpolation:auto; text-rendering:auto; stroke:black; stroke-linecap:square; stroke-miterlimit:10; shape-rendering:auto; stroke-opacity:1; fill:black; stroke-dasharray:none; font-weight:normal; stroke-width:1; font-family:'Open Sans'; font-style:normal; stroke-linejoin:miter; font-size:12; stroke-dashoffset:0; image-rendering:auto;" height="20" class="cas-substance-image"><ns0:svg class="cas-substance-single-component"><ns0:rect y="0" x="0" width="800" stroke="none" ry="7" rx="7" height="20" fill="white" class="cas-substance-group" /><ns0:svg y="0" x="0" width="800" viewBox="0 0 890 22" style="fill:black;" height="20" class="cas-substance-single-component-image"><ns0:svg><ns0:g><ns0:g transform="translate(445,11)" style="text-rendering:geometricPrecision; color-rendering:optimizeQuality; color-interpolation:linearRGB; stroke-linecap:butt; image-rendering:optimizeQuality;"><ns0:line y2="-7.5" y1="7.5" x2="-25.98" x1="0" style="fill:none;" /><ns0:line y2="-7.5" y1="7.5" x2="25.98" x1="0" style="fill:none;" /><ns0:line y2="7.5" y1="-7.5" x2="-51.963" x1="-25.98" style="fill:none;" /><ns0:line y2="7.5" y1="-7.5" x2="51.96" x1="25.98" style="fill:none;" /><ns0:line y2="-7.5" y1="7.5" x2="-77.943" x1="-51.963" style="fill:none;" /><ns0:line y2="-7.5" y1="7.5" x2="77.943" x1="51.96" style="fill:none;" /><ns0:line y2="7.5" y1="-7.5" x2="-103.923" x1="-77.943" style="fill:none;" /><ns0:line y2="7.5" y1="-7.5" x2="103.923" x1="77.943" style="fill:none;" /><ns0:line y2="-7.5" y1="7.5" x2="-129.903" x1="-103.923" style="fill:none;" /><ns0:line y2="-7.5" y1="7.5" x2="129.903" x1="103.923" style="fill:none;" /><ns0:line y2="7.5" y1="-7.5" x2="-155.886" x1="-129.903" style="fill:none;" /><ns0:line y2="7.5" y1="-7.5" x2="155.883" x1="129.903" style="fill:none;" /><ns0:line y2="-7.5" y1="7.5" x2="-181.866" x1="-155.886" style="fill:none;" /><ns0:line y2="-7.5" y1="7.5" x2="181.866" x1="155.883" style="fill:none;" /><ns0:line y2="7.5" y1="-7.5" x2="-207.846" x1="-181.866" style="fill:none;" /><ns0:line y2="7.5" y1="-7.5" x2="207.846" x1="181.866" style="fill:none;" /><ns0:line y2="-7.5" y1="7.5" x2="-233.826" x1="-207.846" style="fill:none;" /><ns0:line y2="-7.5" y1="7.5" x2="233.826" x1="207.846" style="fill:none;" /><ns0:line y2="7.5" y1="-7.5" x2="-259.809" x1="-233.826" style="fill:none;" /><ns0:line y2="7.5" y1="-7.5" x2="259.809" x1="233.826" style="fill:none;" /><ns0:line y2="-7.5" y1="7.5" x2="-285.789" x1="-259.809" style="fill:none;" /><ns0:line y2="-7.5" y1="7.5" x2="285.789" x1="259.809" style="fill:none;" /><ns0:line y2="7.5" y1="-7.5" x2="-311.769" x1="-285.789" style="fill:none;" /><ns0:line y2="7.5" y1="-7.5" x2="311.769" x1="285.789" style="fill:none;" /><ns0:line y2="-7.5" y1="7.5" x2="-337.749" x1="-311.769" style="fill:none;" /><ns0:line y2="-7.5" y1="7.5" x2="337.749" x1="311.769" style="fill:none;" /><ns0:line y2="7.5" y1="-7.5" x2="-363.732" x1="-337.749" style="fill:none;" /><ns0:line y2="7.5" y1="-7.5" x2="363.732" x1="337.749" style="fill:none;" /><ns0:line y2="-7.5" y1="7.5" x2="-389.712" x1="-363.732" style="fill:none;" /><ns0:line y2="-7.5" y1="7.5" x2="389.712" x1="363.732" style="fill:none;" /><ns0:line y2="7.5" y1="-7.5" x2="-415.692" x1="-389.712" style="fill:none;" /><ns0:line y2="7.5" y1="-7.5" x2="415.692" x1="389.712" style="fill:none;" /><ns0:line y2="-7.5" y1="7.5" x2="-441.672" x1="-415.692" style="fill:none;" /><ns0:line y2="-7.5" y1="7.5" x2="441.672" x1="415.692" style="fill:none;" /><ns0:path style="fill:none; stroke-miterlimit:5;" d="M-0.433 7.25 L0 7.5 L0.433 7.25" /><ns0:path style="fill:none; stroke-miterlimit:5;" d="M-25.547 -7.25 L-25.98 -7.5 L-26.413 -7.25" /><ns0:path style="fill:none; stroke-miterlimit:5;" d="M25.547 -7.25 L25.98 -7.5 L26.413 -7.25" /><ns0:path style="fill:none; stroke-miterlimit:5;" d="M-51.53 7.25 L-51.963 7.5 L-52.396 7.25" /><ns0:path style="fill:none; stroke-miterlimit:5;" d="M51.527 7.25 L51.96 7.5 L52.393 7.25" /><ns0:path style="fill:none; stroke-miterlimit:5;" d="M-77.51 -7.25 L-77.943 -7.5 L-78.376 -7.25" /><ns0:path style="fill:none; stroke-miterlimit:5;" d="M77.51 -7.25 L77.943 -7.5 L78.376 -7.25" /><ns0:path style="fill:none; stroke-miterlimit:5;" d="M-103.49 7.25 L-103.923 7.5 L-104.356 7.25" /><ns0:path style="fill:none; stroke-miterlimit:5;" d="M103.49 7.25 L103.923 7.5 L104.356 7.25" /><ns0:path style="fill:none; stroke-miterlimit:5;" d="M-129.47 -7.25 L-129.903 -7.5 L-130.336 -7.25" /><ns0:path style="fill:none; stroke-miterlimit:5;" d="M129.47 -7.25 L129.903 -7.5 L130.336 -7.25" /><ns0:path style="fill:none; stroke-miterlimit:5;" d="M-155.453 7.25 L-155.886 7.5 L-156.319 7.25" /><ns0:path style="fill:none; stroke-miterlimit:5;" d="M155.45 7.25 L155.883 7.5 L156.316 7.25" /><ns0:path style="fill:none; stroke-miterlimit:5;" d="M-181.433 -7.25 L-181.866 -7.5 L-182.299 -7.25" /><ns0:path style="fill:none; stroke-miterlimit:5;" d="M181.433 -7.25 L181.866 -7.5 L182.299 -7.25" /><ns0:path style="fill:none; stroke-miterlimit:5;" d="M-207.413 7.25 L-207.846 7.5 L-208.279 7.25" /><ns0:path style="fill:none; stroke-miterlimit:5;" d="M207.413 7.25 L207.846 7.5 L208.279 7.25" /><ns0:path style="fill:none; stroke-miterlimit:5;" d="M-233.393 -7.25 L-233.826 -7.5 L-234.259 -7.25" /><ns0:path style="fill:none; stroke-miterlimit:5;" d="M233.393 -7.25 L233.826 -7.5 L234.259 -7.25" /><ns0:path style="fill:none; stroke-miterlimit:5;" d="M-259.376 7.25 L-259.809 7.5 L-260.242 7.25" /><ns0:path style="fill:none; stroke-miterlimit:5;" d="M259.376 7.25 L259.809 7.5 L260.242 7.25" /><ns0:path style="fill:none; stroke-miterlimit:5;" d="M-285.356 -7.25 L-285.789 -7.5 L-286.222 -7.25" /><ns0:path style="fill:none; stroke-miterlimit:5;" d="M285.356 -7.25 L285.789 -7.5 L286.222 -7.25" /><ns0:path style="fill:none; stroke-miterlimit:5;" d="M-311.336 7.25 L-311.769 7.5 L-312.202 7.25" /><ns0:path style="fill:none; stroke-miterlimit:5;" d="M311.336 7.25 L311.769 7.5 L312.202 7.25" /><ns0:path style="fill:none; stroke-miterlimit:5;" d="M-337.316 -7.25 L-337.749 -7.5 L-338.182 -7.25" /><ns0:path style="fill:none; stroke-miterlimit:5;" d="M337.316 -7.25 L337.749 -7.5 L338.182 -7.25" /><ns0:path style="fill:none; stroke-miterlimit:5;" d="M-363.299 7.25 L-363.732 7.5 L-364.165 7.25" /><ns0:path style="fill:none; stroke-miterlimit:5;" d="M363.299 7.25 L363.732 7.5 L364.165 7.25" /><ns0:path style="fill:none; stroke-miterlimit:5;" d="M-389.279 -7.25 L-389.712 -7.5 L-390.145 -7.25" /><ns0:path style="fill:none; stroke-miterlimit:5;" d="M389.279 -7.25 L389.712 -7.5 L390.145 -7.25" /><ns0:path style="fill:none; stroke-miterlimit:5;" d="M-415.259 7.25 L-415.692 7.5 L-416.125 7.25" /><ns0:path style="fill:none; stroke-miterlimit:5;" d="M415.259 7.25 L415.692 7.5 L416.125 7.25" /></ns0:g></ns0:g></ns0:svg></ns0:svg></ns0:svg></ns0:svg></g></svg>