<svg width="163" viewBox="0 0 163 151" style="fill-opacity:1; color-rendering:auto; color-interpolation:auto; text-rendering:auto; stroke:black; stroke-linecap:square; stroke-miterlimit:10; shape-rendering:auto; stroke-opacity:1; fill:black; stroke-dasharray:none; font-weight:normal; stroke-width:1; font-family:'Open Sans'; font-style:normal; stroke-linejoin:miter; font-size:12; stroke-dashoffset:0; image-rendering:auto;" height="151" class="cas-substance-image" xmlns:xlink="http://www.w3.org/1999/xlink" xmlns="http://www.w3.org/2000/svg"><svg class="cas-substance-single-component"><rect y="0" x="0" width="163" stroke="none" ry="7" rx="7" height="151" fill="white" class="cas-substance-group"/><svg y="0" x="0" width="163" viewBox="0 0 163 136" style="fill:black;" height="136" class="cas-substance-single-component-image"><svg><g><g transform="translate(84,67)" style="text-rendering:geometricPrecision; color-rendering:optimizeQuality; color-interpolation:linearRGB; stroke-linecap:butt; image-rendering:optimizeQuality;"><line y2="-18.2412" y1="-30" x2="59.3387" x1="38.97" style="fill:none;"/><line y2="-53.6484" y1="-28.9897" x2="40.72" x1="40.72" style="fill:none;"/><line y2="-53.6484" y1="-28.9896" x2="37.22" x1="37.22" style="fill:none;"/><line y2="-15" y1="-30" x2="12.99" x1="38.97" style="fill:none;"/><line y2="-15" y1="-27.0652" x2="-38.97" x1="-59.8694" style="fill:none;"/><line y2="30" y1="53.5938" x2="-12.99" x1="-12.99" style="fill:none;"/><line y2="-30" y1="-15" x2="-12.99" x1="12.99" style="fill:none;"/><line y2="-25.9585" y1="-12.9793" x2="-12.9901" x1="9.49" style="fill:none;"/><line y2="15" y1="-15" x2="12.99" x1="12.99" style="fill:none;"/><line y2="-15" y1="-30" x2="-38.97" x1="-12.99" style="fill:none;"/><line y2="30" y1="15" x2="-12.99" x1="12.99" style="fill:none;"/><line y2="25.9585" y1="12.9793" x2="-12.9901" x1="9.49" style="fill:none;"/><line y2="15" y1="-15" x2="-38.97" x1="-38.97" style="fill:none;"/><line y2="12.9793" y1="-12.9793" x2="-35.47" x1="-35.47" style="fill:none;"/><line y2="15" y1="30" x2="-38.97" x1="-12.99" style="fill:none;"/><path style="fill:none; stroke-miterlimit:5;" d="M39.403 -29.75 L38.97 -30 L38.537 -29.75"/></g><g transform="translate(84,67)" style="stroke-linecap:butt; fill:rgb(230,0,0); text-rendering:geometricPrecision; color-rendering:optimizeQuality; image-rendering:optimizeQuality; font-family:'Open Sans'; stroke:rgb(230,0,0); color-interpolation:linearRGB; stroke-miterlimit:5;"><path style="stroke:none;" d="M68.8905 -15.0703 Q68.8905 -13.0078 67.8514 -11.8281 Q66.8124 -10.6484 64.9686 -10.6484 Q63.078 -10.6484 62.0468 -11.8125 Q61.0155 -12.9766 61.0155 -15.0859 Q61.0155 -17.1797 62.0468 -18.3281 Q63.078 -19.4766 64.9686 -19.4766 Q66.828 -19.4766 67.8593 -18.3047 Q68.8905 -17.1328 68.8905 -15.0703 ZM62.0624 -15.0703 Q62.0624 -13.3359 62.8046 -12.4297 Q63.5468 -11.5234 64.9686 -11.5234 Q66.3905 -11.5234 67.1171 -12.4219 Q67.8436 -13.3203 67.8436 -15.0703 Q67.8436 -16.8047 67.1171 -17.6953 Q66.3905 -18.5859 64.9686 -18.5859 Q63.5468 -18.5859 62.8046 -17.6875 Q62.0624 -16.7891 62.0624 -15.0703 Z"/><path style="stroke:none;" d="M76.4061 -10.7734 L75.4061 -10.7734 L75.4061 -14.8047 L70.8905 -14.8047 L70.8905 -10.7734 L69.8905 -10.7734 L69.8905 -19.3359 L70.8905 -19.3359 L70.8905 -15.6953 L75.4061 -15.6953 L75.4061 -19.3359 L76.4061 -19.3359 L76.4061 -10.7734 Z"/><path style="stroke:none;" d="M42.9075 -60.0703 Q42.9075 -58.0078 41.8684 -56.8281 Q40.8294 -55.6484 38.9856 -55.6484 Q37.095 -55.6484 36.0638 -56.8125 Q35.0325 -57.9766 35.0325 -60.0859 Q35.0325 -62.1797 36.0638 -63.3281 Q37.095 -64.4766 38.9856 -64.4766 Q40.845 -64.4766 41.8763 -63.3047 Q42.9075 -62.1328 42.9075 -60.0703 ZM36.0794 -60.0703 Q36.0794 -58.3359 36.8216 -57.4297 Q37.5638 -56.5234 38.9856 -56.5234 Q40.4075 -56.5234 41.1341 -57.4219 Q41.8606 -58.3203 41.8606 -60.0703 Q41.8606 -61.8047 41.1341 -62.6953 Q40.4075 -63.5859 38.9856 -63.5859 Q37.5638 -63.5859 36.8216 -62.6875 Q36.0794 -61.7891 36.0794 -60.0703 Z"/><path style="fill:rgb(0,5,255); stroke:none;" d="M-61.6014 -25.8438 L-62.7421 -25.8438 L-67.4296 -33.0312 L-67.4764 -33.0312 Q-67.3827 -31.7656 -67.3827 -30.7188 L-67.3827 -25.8438 L-68.3046 -25.8438 L-68.3046 -34.4062 L-67.1796 -34.4062 L-62.5077 -27.25 L-62.4608 -27.25 Q-62.4608 -27.4062 -62.5077 -28.2656 Q-62.5546 -29.125 -62.5389 -29.5 L-62.5389 -34.4062 L-61.6014 -34.4062 L-61.6014 -25.8438 Z"/><path style="fill:rgb(0,5,255); stroke:none;" d="M-74.0546 -25.8438 L-75.0546 -25.8438 L-75.0546 -29.875 L-79.5702 -29.875 L-79.5702 -25.8438 L-80.5702 -25.8438 L-80.5702 -34.4062 L-79.5702 -34.4062 L-79.5702 -30.7656 L-75.0546 -30.7656 L-75.0546 -34.4062 L-74.0546 -34.4062 L-74.0546 -25.8438 Z"/><path style="fill:rgb(0,5,255); stroke:none;" d="M-69.3046 -24.0344 L-73.0546 -24.0344 L-73.0546 -24.5969 L-71.5546 -26.1125 Q-70.8671 -26.8 -70.6483 -27.0969 Q-70.4296 -27.3937 -70.3202 -27.675 Q-70.2108 -27.9562 -70.2108 -28.2844 Q-70.2108 -28.7375 -70.4843 -29.0031 Q-70.7577 -29.2687 -71.2577 -29.2687 Q-71.6014 -29.2687 -71.9218 -29.1516 Q-72.2421 -29.0344 -72.6327 -28.7375 L-72.9764 -29.175 Q-72.1952 -29.8312 -71.2577 -29.8312 Q-70.4608 -29.8312 -69.9999 -29.4172 Q-69.5389 -29.0031 -69.5389 -28.3156 Q-69.5389 -27.7687 -69.8436 -27.2375 Q-70.1483 -26.7062 -70.9921 -25.8937 L-72.2421 -24.675 L-72.2421 -24.6437 L-69.3046 -24.6437 L-69.3046 -24.0344 Z"/><path style="fill:rgb(0,5,255); stroke:none;" d="M-9.6384 64.1562 L-10.7791 64.1562 L-15.4666 56.9688 L-15.5134 56.9688 Q-15.4197 58.2344 -15.4197 59.2812 L-15.4197 64.1562 L-16.3416 64.1562 L-16.3416 55.5938 L-15.2166 55.5938 L-10.5447 62.75 L-10.4978 62.75 Q-10.4978 62.5938 -10.5447 61.7344 Q-10.5916 60.875 -10.5759 60.5 L-10.5759 55.5938 L-9.6384 55.5938 L-9.6384 64.1562 Z"/><path style="fill:rgb(0,5,255); stroke:none;" d="M-2.1228 64.1562 L-3.1228 64.1562 L-3.1228 60.125 L-7.6384 60.125 L-7.6384 64.1562 L-8.6384 64.1562 L-8.6384 55.5938 L-7.6384 55.5938 L-7.6384 59.2344 L-3.1228 59.2344 L-3.1228 55.5938 L-2.1228 55.5938 L-2.1228 64.1562 Z"/><path style="fill:rgb(0,5,255); stroke:none;" d="M2.6272 65.9656 L-1.1228 65.9656 L-1.1228 65.4031 L0.3772 63.8875 Q1.0647 63.2 1.2834 62.9031 Q1.5022 62.6062 1.6116 62.325 Q1.7209 62.0437 1.7209 61.7156 Q1.7209 61.2625 1.4475 60.9969 Q1.1741 60.7312 0.6741 60.7312 Q0.3303 60.7312 0.01 60.8484 Q-0.3103 60.9656 -0.7009 61.2625 L-1.0447 60.825 Q-0.2634 60.1687 0.6741 60.1687 Q1.4709 60.1687 1.9319 60.5828 Q2.3928 60.9969 2.3928 61.6844 Q2.3928 62.2312 2.0881 62.7625 Q1.7834 63.2937 0.9397 64.1062 L-0.3103 65.325 L-0.3103 65.3562 L2.6272 65.3562 L2.6272 65.9656 Z"/><path style="fill:none; stroke:black;" d="M12.557 -15.25 L12.99 -15 L13.423 -15.25"/><path style="fill:none; stroke:black;" d="M-12.557 -29.75 L-12.99 -30 L-13.423 -29.75"/><path style="fill:none; stroke:black;" d="M12.99 14.5 L12.99 15 L12.557 15.25"/><path style="fill:none; stroke:black;" d="M-38.97 -14.5 L-38.97 -15 L-39.403 -15.25"/><path style="fill:none; stroke:black;" d="M-12.557 29.75 L-12.99 30 L-12.99 30.5"/><path style="fill:none; stroke:black;" d="M-38.97 14.5 L-38.97 15 L-38.537 15.25"/></g></g></svg></svg><svg y="136" x="58" class="cas-substance-saf"><svg y="5" x="0" width="4" style="fill:black;" height="4" class="cas-substance-saf-dot"><circle stroke="none" r="2" fill="black" cy="2" cx="2"/></svg><svg y="0" x="7" width="12" style="fill:black;" height="15" class="cas-substance-saf-coefficient"><svg><g><g transform="translate(6,7)" style="text-rendering:geometricPrecision; font-family:'Open Sans'; color-interpolation:linearRGB; color-rendering:optimizeQuality; image-rendering:optimizeQuality;"><path style="stroke:none;" d="M2.8125 4.2188 L-2.8125 4.2188 L-2.8125 3.375 L-0.5625 1.1094 Q0.4688 0.0625 0.7969 -0.3828 Q1.125 -0.8281 1.2891 -1.25 Q1.4531 -1.6719 1.4531 -2.1562 Q1.4531 -2.8438 1.0391 -3.2422 Q0.625 -3.6406 -0.125 -3.6406 Q-0.6562 -3.6406 -1.1328 -3.4609 Q-1.6094 -3.2812 -2.1875 -2.8281 L-2.7031 -3.4844 Q-1.5312 -4.4688 -0.125 -4.4688 Q1.0781 -4.4688 1.7656 -3.8516 Q2.4531 -3.2344 2.4531 -2.1875 Q2.4531 -1.375 1.9922 -0.5781 Q1.5312 0.2188 0.2812 1.4375 L-1.5938 3.2656 L-1.5938 3.3125 L2.8125 3.3125 L2.8125 4.2188 Z"/></g></g></svg></svg><svg y="0" x="23" width="22" style="fill:black;" height="15" class="cas-substance-saf-image"><svg><g><g transform="translate(6,8)" style="fill:rgb(0,138,0); text-rendering:geometricPrecision; color-rendering:optimizeQuality; image-rendering:optimizeQuality; font-family:'Open Sans'; stroke:rgb(0,138,0); color-interpolation:linearRGB;"><path style="stroke:none;" d="M3.2578 4.1562 L2.2578 4.1562 L2.2578 0.125 L-2.2578 0.125 L-2.2578 4.1562 L-3.2578 4.1562 L-3.2578 -4.4062 L-2.2578 -4.4062 L-2.2578 -0.7656 L2.2578 -0.7656 L2.2578 -4.4062 L3.2578 -4.4062 L3.2578 4.1562 Z"/><path style="stroke:none;" d="M8.3672 -3.6406 Q6.9609 -3.6406 6.1406 -2.7031 Q5.3203 -1.7656 5.3203 -0.125 Q5.3203 1.5469 6.1094 2.4688 Q6.8984 3.3906 8.3516 3.3906 Q9.2578 3.3906 10.3984 3.0625 L10.3984 3.9375 Q9.5078 4.2812 8.2109 4.2812 Q6.3203 4.2812 5.2891 3.125 Q4.2578 1.9688 4.2578 -0.1406 Q4.2578 -1.4688 4.75 -2.4609 Q5.2422 -3.4531 6.1797 -3.9922 Q7.1172 -4.5312 8.3828 -4.5312 Q9.7266 -4.5312 10.7422 -4.0469 L10.3203 -3.1875 Q9.3359 -3.6406 8.3672 -3.6406 ZM13.0938 4.1562 L12.125 4.1562 L12.125 -4.9688 L13.0938 -4.9688 L13.0938 4.1562 Z"/></g></g></svg></svg></svg></svg></svg>