<svg width="194" viewBox="0 0 194 90" style="fill-opacity:1; color-rendering:auto; color-interpolation:auto; text-rendering:auto; stroke:black; stroke-linecap:square; stroke-miterlimit:10; shape-rendering:auto; stroke-opacity:1; fill:black; stroke-dasharray:none; font-weight:normal; stroke-width:1; font-family:'Open Sans'; font-style:normal; stroke-linejoin:miter; font-size:12; stroke-dashoffset:0; image-rendering:auto;" height="90" class="cas-substance-image" xmlns:xlink="http://www.w3.org/1999/xlink" xmlns="http://www.w3.org/2000/svg"><svg class="cas-substance-single-component"><rect y="0" x="0" width="194" stroke="none" ry="7" rx="7" height="90" fill="white" class="cas-substance-group"/><svg y="0" x="0" width="194" viewBox="0 0 194 90" style="fill:black;" height="90" class="cas-substance-single-component-image"><svg><g><g transform="translate(100,45)" style="text-rendering:geometricPrecision; color-rendering:optimizeQuality; color-interpolation:linearRGB; stroke-linecap:butt; image-rendering:optimizeQuality;"><line y2="7.5" y1="-7.5" x2="-12.99" x1="-38.97" style="fill:none;"/><line y2="7.5" y1="-7.5" x2="-64.953" x1="-38.97" style="fill:none;"/><line y2="-31.3438" y1="-7.5" x2="-38.97" x1="-38.97" style="fill:none;"/><line y2="-4.3112" y1="7.5" x2="7.467" x1="-12.99" style="fill:none;"/><line y2="-4.2834" y1="7.5" x2="-85.3619" x1="-64.953" style="fill:none;"/><line y2="7.5" y1="-4.3214" x2="38.97" x1="18.4954" style="fill:none;"/><line y2="-7.5" y1="7.5" x2="64.953" x1="38.97" style="fill:none;"/><line y2="31.0234" y1="6.4896" x2="37.22" x1="37.22" style="fill:none;"/><line y2="31.0234" y1="6.4897" x2="40.72" x1="40.72" style="fill:none;"/><line y2="7.5" y1="-7.5" x2="90.933" x1="64.953" style="fill:none;"/><line y2="10.5311" y1="-3.4585" x2="89.183" x1="64.9529" style="fill:none;"/><path style="fill:none; stroke-miterlimit:5;" d="M-13.423 7.25 L-12.99 7.5 L-12.557 7.25"/><path style="fill:none; stroke-miterlimit:5;" d="M-64.52 7.25 L-64.953 7.5 L-65.386 7.25"/></g><g transform="translate(100,45)" style="stroke-linecap:butt; fill:rgb(0,138,0); text-rendering:geometricPrecision; color-rendering:optimizeQuality; image-rendering:optimizeQuality; font-family:'Open Sans'; stroke:rgb(0,138,0); color-interpolation:linearRGB; stroke-miterlimit:5;"><path style="stroke:none;" d="M-44.6389 -41.9062 L-42.2171 -41.9062 Q-40.5139 -41.9062 -39.7483 -41.3984 Q-38.9827 -40.8906 -38.9827 -39.7969 Q-38.9827 -39.0312 -39.4046 -38.5312 Q-39.8264 -38.0312 -40.6546 -37.8906 L-40.6546 -37.8281 Q-38.7014 -37.5 -38.7014 -35.7812 Q-38.7014 -34.6406 -39.4749 -33.9922 Q-40.2483 -33.3438 -41.6389 -33.3438 L-44.6389 -33.3438 L-44.6389 -41.9062 ZM-43.6389 -38.25 L-41.9983 -38.25 Q-40.9358 -38.25 -40.4749 -38.5781 Q-40.0139 -38.9062 -40.0139 -39.6875 Q-40.0139 -40.4062 -40.5296 -40.7266 Q-41.0452 -41.0469 -42.1702 -41.0469 L-43.6389 -41.0469 L-43.6389 -38.25 ZM-43.6389 -37.4062 L-43.6389 -34.1875 L-41.8421 -34.1875 Q-40.8108 -34.1875 -40.2874 -34.5938 Q-39.7639 -35 -39.7639 -35.8594 Q-39.7639 -36.6562 -40.303 -37.0312 Q-40.8421 -37.4062 -41.9358 -37.4062 L-43.6389 -37.4062 ZM-34.0667 -39.8906 Q-33.6448 -39.8906 -33.3011 -39.8125 L-33.4417 -38.9062 Q-33.8323 -39 -34.1448 -39 Q-34.9261 -39 -35.4807 -38.3672 Q-36.0354 -37.7344 -36.0354 -36.7969 L-36.0354 -33.3438 L-37.0042 -33.3438 L-37.0042 -39.7656 L-36.2073 -39.7656 L-36.0823 -38.5781 L-36.0354 -38.5781 Q-35.6917 -39.2031 -35.1839 -39.5469 Q-34.6761 -39.8906 -34.0667 -39.8906 Z"/><path style="fill:rgb(230,0,0); stroke:none;" d="M16.9275 -7.5703 Q16.9275 -5.5078 15.8884 -4.3281 Q14.8494 -3.1484 13.0056 -3.1484 Q11.115 -3.1484 10.0837 -4.3125 Q9.0525 -5.4766 9.0525 -7.5859 Q9.0525 -9.6797 10.0837 -10.8281 Q11.115 -11.9766 13.0056 -11.9766 Q14.865 -11.9766 15.8962 -10.8047 Q16.9275 -9.6328 16.9275 -7.5703 ZM10.0994 -7.5703 Q10.0994 -5.8359 10.8416 -4.9297 Q11.5837 -4.0234 13.0056 -4.0234 Q14.4275 -4.0234 15.1541 -4.9219 Q15.8806 -5.8203 15.8806 -7.5703 Q15.8806 -9.3047 15.1541 -10.1953 Q14.4275 -11.0859 13.0056 -11.0859 Q11.5837 -11.0859 10.8416 -10.1875 Q10.0994 -9.2891 10.0994 -7.5703 Z"/><path style="stroke:none;" d="M-96.6019 -11.9062 L-94.1801 -11.9062 Q-92.4769 -11.9062 -91.7113 -11.3984 Q-90.9457 -10.8906 -90.9457 -9.7969 Q-90.9457 -9.0312 -91.3676 -8.5312 Q-91.7894 -8.0312 -92.6176 -7.8906 L-92.6176 -7.8281 Q-90.6644 -7.5 -90.6644 -5.7812 Q-90.6644 -4.6406 -91.4379 -3.9922 Q-92.2113 -3.3438 -93.6019 -3.3438 L-96.6019 -3.3438 L-96.6019 -11.9062 ZM-95.6019 -8.25 L-93.9613 -8.25 Q-92.8988 -8.25 -92.4379 -8.5781 Q-91.9769 -8.9062 -91.9769 -9.6875 Q-91.9769 -10.4062 -92.4926 -10.7266 Q-93.0082 -11.0469 -94.1332 -11.0469 L-95.6019 -11.0469 L-95.6019 -8.25 ZM-95.6019 -7.4062 L-95.6019 -4.1875 L-93.8051 -4.1875 Q-92.7738 -4.1875 -92.2504 -4.5938 Q-91.7269 -5 -91.7269 -5.8594 Q-91.7269 -6.6562 -92.266 -7.0312 Q-92.8051 -7.4062 -93.8988 -7.4062 L-95.6019 -7.4062 ZM-86.0297 -9.8906 Q-85.6078 -9.8906 -85.2641 -9.8125 L-85.4047 -8.9062 Q-85.7953 -9 -86.1078 -9 Q-86.8891 -9 -87.4437 -8.3672 Q-87.9984 -7.7344 -87.9984 -6.7969 L-87.9984 -3.3438 L-88.9672 -3.3438 L-88.9672 -9.7656 L-88.1703 -9.7656 L-88.0453 -8.5781 L-87.9984 -8.5781 Q-87.6547 -9.2031 -87.1469 -9.5469 Q-86.6391 -9.8906 -86.0297 -9.8906 Z"/><path style="fill:none; stroke:black;" d="M38.537 7.25 L38.97 7.5 L39.403 7.25"/><path style="fill:none; stroke:black;" d="M64.52 -7.25 L64.953 -7.5 L65.386 -7.25"/><path style="fill:rgb(230,0,0); stroke:none;" d="M42.9075 37.4297 Q42.9075 39.4922 41.8684 40.6719 Q40.8294 41.8516 38.9856 41.8516 Q37.095 41.8516 36.0638 40.6875 Q35.0325 39.5234 35.0325 37.4141 Q35.0325 35.3203 36.0638 34.1719 Q37.095 33.0234 38.9856 33.0234 Q40.845 33.0234 41.8763 34.1953 Q42.9075 35.3672 42.9075 37.4297 ZM36.0794 37.4297 Q36.0794 39.1641 36.8216 40.0703 Q37.5638 40.9766 38.9856 40.9766 Q40.4075 40.9766 41.1341 40.0781 Q41.8606 39.1797 41.8606 37.4297 Q41.8606 35.6953 41.1341 34.8047 Q40.4075 33.9141 38.9856 33.9141 Q37.5638 33.9141 36.8216 34.8125 Q36.0794 35.7109 36.0794 37.4297 Z"/></g></g></svg></svg></svg></svg>