<svg width="175" viewBox="0 0 175 105" style="fill-opacity:1; color-rendering:auto; color-interpolation:auto; text-rendering:auto; stroke:black; stroke-linecap:square; stroke-miterlimit:10; shape-rendering:auto; stroke-opacity:1; fill:black; stroke-dasharray:none; font-weight:normal; stroke-width:1; font-family:'Open Sans'; font-style:normal; stroke-linejoin:miter; font-size:12; stroke-dashoffset:0; image-rendering:auto;" height="105" class="cas-substance-image" xmlns:xlink="http://www.w3.org/1999/xlink" xmlns="http://www.w3.org/2000/svg"><svg class="cas-substance-single-component"><rect y="0" x="0" width="175" stroke="none" ry="7" rx="7" height="105" fill="white" class="cas-substance-group"/><svg y="0" x="0" width="175" viewBox="0 0 175 105" style="fill:black;" height="105" class="cas-substance-single-component-image"><svg><g><g transform="translate(86,47)" style="text-rendering:geometricPrecision; color-rendering:optimizeQuality; color-interpolation:linearRGB; stroke-linecap:butt; image-rendering:optimizeQuality;"><line y2="5.448" y1="-9.552" x2="56.037" x1="30.057" style="fill:none;"/><line y2="-33.2004" y1="-8.5416" x2="31.807" x1="31.807" style="fill:none;"/><line y2="-33.2004" y1="-8.5416" x2="28.307" x1="28.307" style="fill:none;"/><line y2="5.448" y1="-9.552" x2="4.077" x1="30.057" style="fill:none;"/><line y2="28.9714" y1="5.448" x2="56.037" x1="56.037" style="fill:none;"/><line y2="-4.8479" y1="7.4687" x2="77.3717" x1="56.037" style="fill:none;"/><line y2="-7.879" y1="4.4376" x2="75.6218" x1="54.287" style="fill:none;"/><line y2="5.448" y1="-6.753" x2="4.077" x1="-23.331" style="fill:none;"/><line y2="15.54" y1="-6.753" x2="-43.404" x1="-23.331" style="fill:none;"/><line y2="-35.286" y1="-6.753" x2="-32.601" x1="-23.331" style="fill:none;"/><line y2="-32.2827" y1="-7.5934" x2="-35.3053" x1="-27.2841" style="fill:none;"/><line y2="35.286" y1="5.448" x2="0.942" x1="4.077" style="fill:none;"/><line y2="32.9106" y1="7.0919" x2="-2.3277" x1="0.385" style="fill:none;"/><line y2="35.3847" y1="15.54" x2="-31.9477" x1="-43.404" style="fill:none;"/><line y2="9.303" y1="15.54" x2="-72.747" x1="-43.404" style="fill:none;"/><line y2="6.2996" y1="11.6964" x2="-70.0427" x1="-44.6529" style="fill:none;"/><line y2="-41.523" y1="-35.286" x2="-61.944" x1="-32.601" style="fill:none;"/><line y2="40.3949" y1="35.286" x2="-23.0961" x1="0.942" style="fill:none;"/><line y2="-19.227" y1="9.303" x2="-82.02" x1="-72.747" style="fill:none;"/><line y2="-19.227" y1="-41.523" x2="-82.02" x1="-61.944" style="fill:none;"/><line y2="-18.3867" y1="-37.6793" x2="-78.0669" x1="-60.6952" style="fill:none;"/><path style="fill:none; stroke-miterlimit:5;" d="M30.49 -9.302 L30.057 -9.552 L29.624 -9.302"/><path style="fill:none; stroke-miterlimit:5;" d="M55.604 5.198 L56.037 5.448 L56.037 5.948"/></g><g transform="translate(86,47)" style="stroke-linecap:butt; fill:rgb(230,0,0); text-rendering:geometricPrecision; color-rendering:optimizeQuality; image-rendering:optimizeQuality; font-family:'Open Sans'; stroke:rgb(230,0,0); color-interpolation:linearRGB; stroke-miterlimit:5;"><path style="stroke:none;" d="M33.9945 -39.6223 Q33.9945 -37.5598 32.9554 -36.3801 Q31.9164 -35.2004 30.0726 -35.2004 Q28.182 -35.2004 27.1507 -36.3645 Q26.1195 -37.5286 26.1195 -39.6379 Q26.1195 -41.7317 27.1507 -42.8801 Q28.182 -44.0286 30.0726 -44.0286 Q31.932 -44.0286 32.9632 -42.8567 Q33.9945 -41.6848 33.9945 -39.6223 ZM27.1664 -39.6223 Q27.1664 -37.8879 27.9086 -36.9817 Q28.6507 -36.0754 30.0726 -36.0754 Q31.4945 -36.0754 32.2211 -36.9739 Q32.9476 -37.8723 32.9476 -39.6223 Q32.9476 -41.3567 32.2211 -42.2473 Q31.4945 -43.1379 30.0726 -43.1379 Q28.6507 -43.1379 27.9086 -42.2395 Q27.1664 -41.3411 27.1664 -39.6223 Z"/><path style="stroke:none;" d="M59.9745 35.3777 Q59.9745 37.4402 58.9354 38.6199 Q57.8964 39.7996 56.0526 39.7996 Q54.162 39.7996 53.1307 38.6355 Q52.0995 37.4714 52.0995 35.3621 Q52.0995 33.2683 53.1307 32.1199 Q54.162 30.9714 56.0526 30.9714 Q57.912 30.9714 58.9432 32.1433 Q59.9745 33.3152 59.9745 35.3777 ZM53.1464 35.3777 Q53.1464 37.1121 53.8886 38.0183 Q54.6307 38.9246 56.0526 38.9246 Q57.4745 38.9246 58.2011 38.0261 Q58.9276 37.1277 58.9276 35.3777 Q58.9276 33.6433 58.2011 32.7527 Q57.4745 31.8621 56.0526 31.8621 Q54.6307 31.8621 53.8886 32.7605 Q53.1464 33.6589 53.1464 35.3777 Z"/><path style="stroke:none;" d="M67.4901 39.6746 L66.4901 39.6746 L66.4901 35.6433 L61.9745 35.6433 L61.9745 39.6746 L60.9745 39.6746 L60.9745 31.1121 L61.9745 31.1121 L61.9745 34.7527 L66.4901 34.7527 L66.4901 31.1121 L67.4901 31.1121 L67.4901 39.6746 Z"/><path style="stroke:none;" d="M85.9575 -9.6223 Q85.9575 -7.5598 84.9184 -6.3801 Q83.8794 -5.2004 82.0356 -5.2004 Q80.145 -5.2004 79.1137 -6.3645 Q78.0825 -7.5286 78.0825 -9.6379 Q78.0825 -11.7317 79.1137 -12.8801 Q80.145 -14.0286 82.0356 -14.0286 Q83.895 -14.0286 84.9262 -12.8567 Q85.9575 -11.6848 85.9575 -9.6223 ZM79.1294 -9.6223 Q79.1294 -7.8879 79.8716 -6.9817 Q80.6137 -6.0754 82.0356 -6.0754 Q83.4575 -6.0754 84.1841 -6.9739 Q84.9106 -7.8723 84.9106 -9.6223 Q84.9106 -11.3567 84.1841 -12.2473 Q83.4575 -13.1379 82.0356 -13.1379 Q80.6137 -13.1379 79.8716 -12.2395 Q79.1294 -11.3411 79.1294 -9.6223 Z"/><path style="fill:none; stroke:black;" d="M-23.4855 -7.2285 L-23.331 -6.753 L-23.6656 -6.3814"/><path style="fill:none; stroke:black;" d="M4.0248 5.9453 L4.077 5.448 L4.51 5.198"/><path style="fill:none; stroke:black;" d="M-43.8931 15.436 L-43.404 15.54 L-43.154 15.973"/><path style="fill:none; stroke:black;" d="M-32.4465 -34.8105 L-32.601 -35.286 L-33.0901 -35.39"/><path style="fill:none; stroke:black;" d="M0.9942 34.7887 L0.942 35.286 L0.4529 35.3899"/><path style="fill:rgb(0,5,255); stroke:none;" d="M-25.0524 45.6792 L-26.1931 45.6792 L-30.8806 38.4917 L-30.9274 38.4917 Q-30.8337 39.7574 -30.8337 40.8042 L-30.8337 45.6792 L-31.7556 45.6792 L-31.7556 37.1167 L-30.6306 37.1167 L-25.9587 44.273 L-25.9118 44.273 Q-25.9118 44.1167 -25.9587 43.2574 Q-26.0056 42.398 -25.9899 42.023 L-25.9899 37.1167 L-25.0524 37.1167 L-25.0524 45.6792 Z"/><path style="fill:rgb(0,5,255); stroke:none;" d="M-25.1462 55.2417 L-26.1462 55.2417 L-26.1462 51.2105 L-30.6618 51.2105 L-30.6618 55.2417 L-31.6618 55.2417 L-31.6618 46.6792 L-30.6618 46.6792 L-30.6618 50.3199 L-26.1462 50.3199 L-26.1462 46.6792 L-25.1462 46.6792 L-25.1462 55.2417 Z"/><path style="fill:none; stroke:black;" d="M-72.2579 9.407 L-72.747 9.303 L-72.9016 8.8275"/><path style="fill:none; stroke:black;" d="M-61.4549 -41.419 L-61.944 -41.523 L-62.2786 -41.1514"/><path style="fill:none; stroke:black;" d="M-81.8654 -18.7515 L-82.02 -19.227 L-81.6854 -19.5986"/></g></g></svg></svg></svg></svg>