<svg xmlns:ns0="http://www.w3.org/2000/svg" xmlns="http://www.w3.org/2000/svg"><g transform="translate(0, 0)"><ns0:svg width="148" viewBox="0 0 148 118" style="fill-opacity:1; color-rendering:auto; color-interpolation:auto; text-rendering:auto; stroke:black; stroke-linecap:square; stroke-miterlimit:10; shape-rendering:auto; stroke-opacity:1; fill:black; stroke-dasharray:none; font-weight:normal; stroke-width:1; font-family:'Open Sans'; font-style:normal; stroke-linejoin:miter; font-size:12; stroke-dashoffset:0; image-rendering:auto;" height="118" class="cas-substance-image"><ns0:svg class="cas-substance-single-component"><ns0:rect y="0" x="0" width="148" stroke="none" ry="7" rx="7" height="118" fill="white" class="cas-substance-group" /><ns0:svg y="0" x="0" width="148" viewBox="0 0 148 118" style="fill:black;" height="118" class="cas-substance-single-component-image"><ns0:svg><ns0:g><ns0:g transform="translate(75,59)" style="text-rendering:geometricPrecision; color-rendering:optimizeQuality; color-interpolation:linearRGB; stroke-linecap:butt; image-rendering:optimizeQuality;"><ns0:line y2="-20.332" y1="0" x2="64.239" x1="52.5" style="fill:none;" /><ns0:line y2="-22.0821" y1="-3.5" x2="61.208" x1="50.4793" style="fill:none;" /><ns0:line y2="0" y1="0" x2="22.5" x1="52.5" style="fill:none;" /><ns0:line y2="-25.98" y1="-48.524" x2="-22.5" x1="-35.5146" style="fill:none;" /><ns0:line y2="25.98" y1="46.0899" x2="-22.5" x1="-34.1094" style="fill:none;" /><ns0:line y2="0" y1="0" x2="-37.5" x1="-61.082" style="fill:none;" /><ns0:line y2="-25.98" y1="0" x2="7.5" x1="22.5" style="fill:none;" /><ns0:line y2="-22.48" y1="0.0001" x2="5.4793" x1="18.4585" style="fill:none;" /><ns0:line y2="25.98" y1="0" x2="7.5" x1="22.5" style="fill:none;" /><ns0:line y2="-25.98" y1="-25.98" x2="-22.5" x1="7.5" style="fill:none;" /><ns0:line y2="25.98" y1="25.98" x2="-22.5" x1="7.5" style="fill:none;" /><ns0:line y2="22.48" y1="22.48" x2="-20.4793" x1="5.4793" style="fill:none;" /><ns0:line y2="0" y1="-25.98" x2="-37.5" x1="-22.5" style="fill:none;" /><ns0:line y2="0.0001" y1="-22.48" x2="-33.4585" x1="-20.4793" style="fill:none;" /><ns0:line y2="0" y1="25.98" x2="-37.5" x1="-22.5" style="fill:none;" /><ns0:path style="fill:none; stroke-miterlimit:5;" d="M52.75 -0.433 L52.5 0 L52 -0" /></ns0:g><ns0:g transform="translate(73.4845,58.125)" style="stroke-linecap:butt; fill:rgb(230,0,0); text-rendering:geometricPrecision; color-rendering:optimizeQuality; image-rendering:optimizeQuality; font-family:'Open Sans'; stroke:rgb(230,0,0); color-interpolation:linearRGB; stroke-miterlimit:5;"><ns0:path style="stroke:none;" d="M71.4375 -26.0503 Q71.4375 -23.9878 70.3984 -22.8081 Q69.3594 -21.6284 67.5156 -21.6284 Q65.625 -21.6284 64.5938 -22.7925 Q63.5625 -23.9566 63.5625 -26.0659 Q63.5625 -28.1597 64.5938 -29.3081 Q65.625 -30.4566 67.5156 -30.4566 Q69.375 -30.4566 70.4062 -29.2847 Q71.4375 -28.1128 71.4375 -26.0503 ZM64.6094 -26.0503 Q64.6094 -24.3159 65.3516 -23.4097 Q66.0938 -22.5034 67.5156 -22.5034 Q68.9375 -22.5034 69.6641 -23.4019 Q70.3906 -24.3003 70.3906 -26.0503 Q70.3906 -27.7847 69.6641 -28.6753 Q68.9375 -29.5659 67.5156 -29.5659 Q66.0938 -29.5659 65.3516 -28.6675 Q64.6094 -27.7691 64.6094 -26.0503 Z" /></ns0:g><ns0:g transform="matrix(1,0,0,1,75,59)" style="stroke-linecap:butt; fill:rgb(0,138,0); text-rendering:geometricPrecision; color-rendering:optimizeQuality; image-rendering:optimizeQuality; font-family:'Open Sans'; stroke:rgb(0,138,0); color-interpolation:linearRGB; stroke-miterlimit:5;"><ns0:path style="stroke:none;" d="M-38.8906 -47.8068 L-39.8906 -47.8068 L-39.8906 -56.3693 L-35.1094 -56.3693 L-35.1094 -55.4943 L-38.8906 -55.4943 L-38.8906 -52.3536 L-35.3438 -52.3536 L-35.3438 -51.463 L-38.8906 -51.463 L-38.8906 -47.8068 Z" /><ns0:path style="stroke:none;" d="M-38.8906 56.1193 L-39.8906 56.1193 L-39.8906 47.5568 L-35.1094 47.5568 L-35.1094 48.4318 L-38.8906 48.4318 L-38.8906 51.5724 L-35.3438 51.5724 L-35.3438 52.463 L-38.8906 52.463 L-38.8906 56.1193 Z" /><ns0:path style="stroke:none;" d="M-67.8086 -3.3594 Q-69.2148 -3.3594 -70.0352 -2.4219 Q-70.8555 -1.4844 -70.8555 0.1562 Q-70.8555 1.8281 -70.0664 2.75 Q-69.2773 3.6719 -67.8242 3.6719 Q-66.918 3.6719 -65.7773 3.3438 L-65.7773 4.2188 Q-66.668 4.5625 -67.9648 4.5625 Q-69.8555 4.5625 -70.8867 3.4062 Q-71.918 2.25 -71.918 0.1406 Q-71.918 -1.1875 -71.4258 -2.1797 Q-70.9336 -3.1719 -69.9961 -3.7109 Q-69.0586 -4.25 -67.793 -4.25 Q-66.4492 -4.25 -65.4336 -3.7656 L-65.8555 -2.9062 Q-66.8398 -3.3594 -67.8086 -3.3594 ZM-63.082 4.4375 L-64.0508 4.4375 L-64.0508 -4.6875 L-63.082 -4.6875 L-63.082 4.4375 Z" /><ns0:path style="fill:none; stroke:black;" d="M22.25 -0.433 L22.5 0 L23 0" /><ns0:path style="fill:none; stroke:black;" d="M7.75 -25.547 L7.5 -25.98 L7 -25.98" /><ns0:path style="fill:none; stroke:black;" d="M7.75 25.547 L7.5 25.98 L7 25.98" /><ns0:path style="fill:none; stroke:black;" d="M-22.75 -25.547 L-22.5 -25.98 L-22.75 -26.413" /><ns0:path style="fill:none; stroke:black;" d="M-22 25.98 L-22.5 25.98 L-22.75 26.413" /><ns0:path style="fill:none; stroke:black;" d="M-37.25 -0.433 L-37.5 0 L-38 -0" /></ns0:g></ns0:g></ns0:svg></ns0:svg></ns0:svg></ns0:svg></g></svg>