<svg xmlns:ns0="http://www.w3.org/2000/svg" xmlns="http://www.w3.org/2000/svg"><g transform="translate(0, 0)"><ns0:svg width="204" viewBox="0 0 204 127" style="fill-opacity:1; color-rendering:auto; color-interpolation:auto; text-rendering:auto; stroke:black; stroke-linecap:square; stroke-miterlimit:10; shape-rendering:auto; stroke-opacity:1; fill:black; stroke-dasharray:none; font-weight:normal; stroke-width:1; font-family:'Open Sans'; font-style:normal; stroke-linejoin:miter; font-size:12; stroke-dashoffset:0; image-rendering:auto;" height="127" class="cas-substance-image"><ns0:svg class="cas-substance-single-component"><ns0:rect y="0" x="0" width="204" stroke="none" ry="7" rx="7" height="127" fill="white" class="cas-substance-group" /><ns0:svg y="0" x="0" width="204" viewBox="0 0 204 112" style="fill:black;" height="112" class="cas-substance-single-component-image"><ns0:svg><ns0:g><ns0:g transform="translate(94,56)" style="text-rendering:geometricPrecision; color-rendering:optimizeQuality; color-interpolation:linearRGB; stroke-linecap:butt; image-rendering:optimizeQuality;"><ns0:line y2="7.5" y1="-4.5649" x2="38.97" x1="18.0736" style="fill:none;" /><ns0:line y2="7.5" y1="-4.5649" x2="-12.99" x1="7.9064" style="fill:none;" /><ns0:line y2="-7.5" y1="7.5" x2="64.953" x1="38.97" style="fill:none;" /><ns0:line y2="4.5649" y1="-7.5" x2="85.8494" x1="64.953" style="fill:none;" /><ns0:line y2="7.5" y1="-7.5" x2="-64.953" x1="-38.97" style="fill:none;" /><ns0:line y2="9.5209" y1="-3.4585" x2="-61.4531" x1="-38.9702" style="fill:none;" /><ns0:line y2="7.5" y1="-7.5" x2="-12.99" x1="-38.97" style="fill:none;" /><ns0:line y2="-37.5" y1="-7.5" x2="-38.97" x1="-38.97" style="fill:none;" /><ns0:line y2="37.5" y1="7.5" x2="-64.953" x1="-64.953" style="fill:none;" /><ns0:line y2="-7.5" y1="7.5" x2="-90.933" x1="-64.953" style="fill:none;" /><ns0:line y2="37.5" y1="7.5" x2="-12.99" x1="-12.99" style="fill:none;" /><ns0:line y2="35.4793" y1="9.5207" x2="-16.49" x1="-16.49" style="fill:none;" /><ns0:line y2="-52.5" y1="-37.5" x2="-64.953" x1="-38.97" style="fill:none;" /><ns0:line y2="-48.4585" y1="-35.4791" x2="-64.9529" x1="-42.4699" style="fill:none;" /><ns0:line y2="52.5" y1="37.5" x2="-38.97" x1="-64.953" style="fill:none;" /><ns0:line y2="48.4585" y1="35.4791" x2="-38.9702" x1="-61.4531" style="fill:none;" /><ns0:line y2="-37.5" y1="-7.5" x2="-90.933" x1="-90.933" style="fill:none;" /><ns0:line y2="-35.4793" y1="-9.5207" x2="-87.433" x1="-87.433" style="fill:none;" /><ns0:line y2="52.5" y1="37.5" x2="-38.97" x1="-12.99" style="fill:none;" /><ns0:line y2="-37.5" y1="-52.5" x2="-90.933" x1="-64.953" style="fill:none;" /></ns0:g><ns0:g transform="translate(94,56)" style="fill:rgb(0,5,255); text-rendering:geometricPrecision; color-rendering:optimizeQuality; image-rendering:optimizeQuality; font-family:'Open Sans'; stroke:rgb(0,5,255); color-interpolation:linearRGB;"><ns0:path style="stroke:none;" d="M16.3416 -3.3438 L15.2009 -3.3438 L10.5134 -10.5312 L10.4666 -10.5312 Q10.5603 -9.2656 10.5603 -8.2188 L10.5603 -3.3438 L9.6384 -3.3438 L9.6384 -11.9062 L10.7634 -11.9062 L15.4353 -4.75 L15.4822 -4.75 Q15.4822 -4.9062 15.4353 -5.7656 Q15.3884 -6.625 15.4041 -7 L15.4041 -11.9062 L16.3416 -11.9062 L16.3416 -3.3438 Z" /><ns0:path style="stroke:none;" d="M16.2478 -12.9062 L15.2478 -12.9062 L15.2478 -16.9375 L10.7322 -16.9375 L10.7322 -12.9062 L9.7322 -12.9062 L9.7322 -21.4688 L10.7322 -21.4688 L10.7322 -17.8281 L15.2478 -17.8281 L15.2478 -21.4688 L16.2478 -21.4688 L16.2478 -12.9062 Z" /></ns0:g><ns0:g transform="translate(94,56)" style="stroke-linecap:butt; text-rendering:geometricPrecision; color-rendering:optimizeQuality; image-rendering:optimizeQuality; font-family:'Open Sans'; color-interpolation:linearRGB; stroke-miterlimit:5;"><ns0:path style="fill:none;" d="M38.537 7.25 L38.97 7.5 L39.403 7.25" /><ns0:path style="fill:none;" d="M64.52 -7.25 L64.953 -7.5 L65.386 -7.25" /><ns0:path style="fill:rgb(0,5,255); stroke:none;" d="M94.2846 11.6562 L93.1439 11.6562 L88.4564 4.4688 L88.4096 4.4688 Q88.5033 5.7344 88.5033 6.7812 L88.5033 11.6562 L87.5814 11.6562 L87.5814 3.0938 L88.7064 3.0938 L93.3783 10.25 L93.4252 10.25 Q93.4252 10.0938 93.3783 9.2344 Q93.3314 8.375 93.3471 8 L93.3471 3.0938 L94.2846 3.0938 L94.2846 11.6562 Z" /><ns0:path style="fill:rgb(0,5,255); stroke:none;" d="M101.8002 11.6562 L100.8002 11.6562 L100.8002 7.625 L96.2846 7.625 L96.2846 11.6562 L95.2846 11.6562 L95.2846 3.0938 L96.2846 3.0938 L96.2846 6.7344 L100.8002 6.7344 L100.8002 3.0938 L101.8002 3.0938 L101.8002 11.6562 Z" /><ns0:path style="fill:rgb(0,5,255); stroke:none;" d="M106.5502 13.4656 L102.8002 13.4656 L102.8002 12.9031 L104.3002 11.3875 Q104.9877 10.7 105.2064 10.4031 Q105.4252 10.1062 105.5346 9.825 Q105.6439 9.5437 105.6439 9.2156 Q105.6439 8.7625 105.3705 8.4969 Q105.0971 8.2312 104.5971 8.2312 Q104.2533 8.2312 103.933 8.3484 Q103.6127 8.4656 103.2221 8.7625 L102.8783 8.325 Q103.6596 7.6687 104.5971 7.6687 Q105.3939 7.6687 105.8549 8.0828 Q106.3158 8.4969 106.3158 9.1844 Q106.3158 9.7312 106.0111 10.2625 Q105.7064 10.7937 104.8627 11.6062 L103.6127 12.825 L103.6127 12.8562 L106.5502 12.8562 L106.5502 13.4656 Z" /><ns0:path style="fill:none;" d="M-39.403 -7.25 L-38.97 -7.5 L-38.97 -8" /><ns0:path style="fill:none;" d="M-64.52 7.25 L-64.953 7.5 L-64.953 8" /><ns0:path style="fill:none;" d="M-12.99 8 L-12.99 7.5 L-12.557 7.25" /><ns0:path style="fill:none;" d="M-38.97 -37 L-38.97 -37.5 L-39.403 -37.75" /><ns0:path style="fill:none;" d="M-64.953 37 L-64.953 37.5 L-64.52 37.75" /><ns0:path style="fill:none;" d="M-90.5 -7.25 L-90.933 -7.5 L-90.933 -8" /><ns0:path style="fill:none;" d="M-12.99 37 L-12.99 37.5 L-13.423 37.75" /><ns0:path style="fill:none;" d="M-64.52 -52.25 L-64.953 -52.5 L-65.386 -52.25" /><ns0:path style="fill:none;" d="M-39.403 52.25 L-38.97 52.5 L-38.537 52.25" /><ns0:path style="fill:none;" d="M-90.933 -37 L-90.933 -37.5 L-90.5 -37.75" /></ns0:g></ns0:g></ns0:svg></ns0:svg><ns0:svg y="112" x="79" class="cas-substance-saf"><ns0:svg y="5" x="0" width="4" style="fill:black;" height="4" class="cas-substance-saf-dot"><ns0:circle stroke="none" r="2" fill="black" cy="2" cx="2" /></ns0:svg><ns0:svg y="0" x="7" width="12" style="fill:black;" height="15" class="cas-substance-saf-coefficient"><ns0:svg><ns0:g><ns0:g transform="translate(6,7)" style="text-rendering:geometricPrecision; font-family:'Open Sans'; color-interpolation:linearRGB; color-rendering:optimizeQuality; image-rendering:optimizeQuality;"><ns0:path style="stroke:none;" d="M2.8125 4.2188 L-2.8125 4.2188 L-2.8125 3.375 L-0.5625 1.1094 Q0.4688 0.0625 0.7969 -0.3828 Q1.125 -0.8281 1.2891 -1.25 Q1.4531 -1.6719 1.4531 -2.1562 Q1.4531 -2.8438 1.0391 -3.2422 Q0.625 -3.6406 -0.125 -3.6406 Q-0.6562 -3.6406 -1.1328 -3.4609 Q-1.6094 -3.2812 -2.1875 -2.8281 L-2.7031 -3.4844 Q-1.5312 -4.4688 -0.125 -4.4688 Q1.0781 -4.4688 1.7656 -3.8516 Q2.4531 -3.2344 2.4531 -2.1875 Q2.4531 -1.375 1.9922 -0.5781 Q1.5312 0.2188 0.2812 1.4375 L-1.5938 3.2656 L-1.5938 3.3125 L2.8125 3.3125 L2.8125 4.2188 Z" /></ns0:g></ns0:g></ns0:svg></ns0:svg><ns0:svg y="0" x="23" width="22" style="fill:black;" height="15" class="cas-substance-saf-image"><ns0:svg><ns0:g><ns0:g transform="translate(6,8)" style="fill:rgb(0,138,0); text-rendering:geometricPrecision; color-rendering:optimizeQuality; image-rendering:optimizeQuality; font-family:'Open Sans'; stroke:rgb(0,138,0); color-interpolation:linearRGB;"><ns0:path style="stroke:none;" d="M3.2578 4.1562 L2.2578 4.1562 L2.2578 0.125 L-2.2578 0.125 L-2.2578 4.1562 L-3.2578 4.1562 L-3.2578 -4.4062 L-2.2578 -4.4062 L-2.2578 -0.7656 L2.2578 -0.7656 L2.2578 -4.4062 L3.2578 -4.4062 L3.2578 4.1562 Z" /><ns0:path style="stroke:none;" d="M8.3672 -3.6406 Q6.9609 -3.6406 6.1406 -2.7031 Q5.3203 -1.7656 5.3203 -0.125 Q5.3203 1.5469 6.1094 2.4688 Q6.8984 3.3906 8.3516 3.3906 Q9.2578 3.3906 10.3984 3.0625 L10.3984 3.9375 Q9.5078 4.2812 8.2109 4.2812 Q6.3203 4.2812 5.2891 3.125 Q4.2578 1.9688 4.2578 -0.1406 Q4.2578 -1.4688 4.75 -2.4609 Q5.2422 -3.4531 6.1797 -3.9922 Q7.1172 -4.5312 8.3828 -4.5312 Q9.7266 -4.5312 10.7422 -4.0469 L10.3203 -3.1875 Q9.3359 -3.6406 8.3672 -3.6406 ZM13.0938 4.1562 L12.125 4.1562 L12.125 -4.9688 L13.0938 -4.9688 L13.0938 4.1562 Z" /></ns0:g></ns0:g></ns0:svg></ns0:svg></ns0:svg></ns0:svg></ns0:svg></g></svg>