<svg width="139" viewBox="0 0 139 105" style="fill-opacity:1; color-rendering:auto; color-interpolation:auto; text-rendering:auto; stroke:black; stroke-linecap:square; stroke-miterlimit:10; shape-rendering:auto; stroke-opacity:1; fill:black; stroke-dasharray:none; font-weight:normal; stroke-width:1; font-family:'Open Sans'; font-style:normal; stroke-linejoin:miter; font-size:12; stroke-dashoffset:0; image-rendering:auto;" height="105" class="cas-substance-image" xmlns:xlink="http://www.w3.org/1999/xlink" xmlns="http://www.w3.org/2000/svg"><svg class="cas-substance-single-component"><rect y="0" x="0" width="139" stroke="none" ry="7" rx="7" height="105" fill="white" class="cas-substance-group"/><svg y="0" x="0" width="139" viewBox="0 0 139 105" style="fill:black;" height="105" class="cas-substance-single-component-image"><svg><g><g transform="translate(70,52)" style="text-rendering:geometricPrecision; color-rendering:optimizeQuality; color-interpolation:linearRGB; stroke-linecap:butt; image-rendering:optimizeQuality;"><line y2="-15" y1="0" x2="12.99" x1="-12.99" style="fill:none;"/><line y2="-15" y1="0" x2="-38.97" x1="-12.99" style="fill:none;"/><line y2="30" y1="0" x2="-12.99" x1="-12.99" style="fill:none;"/><line y2="27.9793" y1="2.0207" x2="-9.49" x1="-9.49" style="fill:none;"/><line y2="-3.2414" y1="-15" x2="33.3559" x1="12.99" style="fill:none;"/><line y2="-38.6484" y1="-13.9896" x2="14.74" x1="14.74" style="fill:none;"/><line y2="-38.6484" y1="-13.9896" x2="11.24" x1="11.24" style="fill:none;"/><line y2="-28.0226" y1="-15" x2="-61.5278" x1="-38.97" style="fill:none;"/><line y2="-35.1074" y1="-15" x2="-27.3606" x1="-38.97" style="fill:none;"/><line y2="5.1074" y1="-15" x2="-50.5794" x1="-38.97" style="fill:none;"/><line y2="42.6197" y1="30" x2="8.8673" x1="-12.99" style="fill:none;"/><line y2="42.6944" y1="30" x2="-34.9767" x1="-12.99" style="fill:none;"/><line y2="-15" y1="-3.2258" x2="64.953" x1="44.5577" style="fill:none;"/><path style="fill:none; stroke-miterlimit:5;" d="M-12.99 0.5 L-12.99 0 L-12.557 -0.25"/><path style="fill:none; stroke-miterlimit:5;" d="M12.557 -14.75 L12.99 -15 L13.423 -14.75"/><path style="fill:none; stroke-miterlimit:5;" d="M-12.99 29.5 L-12.99 30 L-12.557 30.25"/></g><g transform="translate(70,52)" style="stroke-linecap:butt; fill:rgb(230,0,0); text-rendering:geometricPrecision; color-rendering:optimizeQuality; image-rendering:optimizeQuality; font-family:'Open Sans'; stroke:rgb(230,0,0); color-interpolation:linearRGB; stroke-miterlimit:5;"><path style="stroke:none;" d="M42.9075 -0.0703 Q42.9075 1.9922 41.8684 3.1719 Q40.8294 4.3516 38.9856 4.3516 Q37.095 4.3516 36.0638 3.1875 Q35.0325 2.0234 35.0325 -0.0859 Q35.0325 -2.1797 36.0638 -3.3281 Q37.095 -4.4766 38.9856 -4.4766 Q40.845 -4.4766 41.8763 -3.3047 Q42.9075 -2.1328 42.9075 -0.0703 ZM36.0794 -0.0703 Q36.0794 1.6641 36.8216 2.5703 Q37.5638 3.4766 38.9856 3.4766 Q40.4075 3.4766 41.1341 2.5781 Q41.8606 1.6797 41.8606 -0.0703 Q41.8606 -1.8047 41.1341 -2.6953 Q40.4075 -3.5859 38.9856 -3.5859 Q37.5638 -3.5859 36.8216 -2.6875 Q36.0794 -1.7891 36.0794 -0.0703 Z"/><path style="stroke:none;" d="M16.9275 -45.0703 Q16.9275 -43.0078 15.8884 -41.8281 Q14.8494 -40.6484 13.0056 -40.6484 Q11.115 -40.6484 10.0837 -41.8125 Q9.0525 -42.9766 9.0525 -45.0859 Q9.0525 -47.1797 10.0837 -48.3281 Q11.115 -49.4766 13.0056 -49.4766 Q14.865 -49.4766 15.8962 -48.3047 Q16.9275 -47.1328 16.9275 -45.0703 ZM10.0994 -45.0703 Q10.0994 -43.3359 10.8416 -42.4297 Q11.5837 -41.5234 13.0056 -41.5234 Q14.4275 -41.5234 15.1541 -42.4219 Q15.8806 -43.3203 15.8806 -45.0703 Q15.8806 -46.8047 15.1541 -47.6953 Q14.4275 -48.5859 13.0056 -48.5859 Q11.5837 -48.5859 10.8416 -47.6875 Q10.0994 -46.7891 10.0994 -45.0703 Z"/><path style="fill:rgb(0,138,0); stroke:none;" d="M-66.3436 -25.8438 L-67.3436 -25.8438 L-67.3436 -34.4062 L-62.5624 -34.4062 L-62.5624 -33.5312 L-66.3436 -33.5312 L-66.3436 -30.3906 L-62.7968 -30.3906 L-62.7968 -29.5 L-66.3436 -29.5 L-66.3436 -25.8438 Z"/><path style="fill:rgb(0,138,0); stroke:none;" d="M-25.3606 -36.8238 L-26.3606 -36.8238 L-26.3606 -45.3863 L-21.5794 -45.3863 L-21.5794 -44.5113 L-25.3606 -44.5113 L-25.3606 -41.3706 L-21.8138 -41.3706 L-21.8138 -40.48 L-25.3606 -40.48 L-25.3606 -36.8238 Z"/><path style="fill:rgb(0,138,0); stroke:none;" d="M-55.3606 15.1362 L-56.3606 15.1362 L-56.3606 6.5737 L-51.5794 6.5737 L-51.5794 7.4487 L-55.3606 7.4487 L-55.3606 10.5894 L-51.8138 10.5894 L-51.8138 11.48 L-55.3606 11.48 L-55.3606 15.1362 Z"/><path style="fill:rgb(0,138,0); stroke:none;" d="M11.5994 49.1562 L10.5994 49.1562 L10.5994 40.5938 L15.3806 40.5938 L15.3806 41.4688 L11.5994 41.4688 L11.5994 44.6094 L15.1462 44.6094 L15.1462 45.5 L11.5994 45.5 L11.5994 49.1562 Z"/><path style="fill:rgb(0,138,0); stroke:none;" d="M-40.3606 49.1562 L-41.3606 49.1562 L-41.3606 40.5938 L-36.5794 40.5938 L-36.5794 41.4688 L-40.3606 41.4688 L-40.3606 44.6094 L-36.8138 44.6094 L-36.8138 45.5 L-40.3606 45.5 L-40.3606 49.1562 Z"/></g></g></svg></svg></svg></svg>