<svg width="333" viewBox="0 0 333 223" style="fill-opacity:1; color-rendering:auto; color-interpolation:auto; text-rendering:auto; stroke:black; stroke-linecap:square; stroke-miterlimit:10; shape-rendering:auto; stroke-opacity:1; fill:black; stroke-dasharray:none; font-weight:normal; stroke-width:1; font-family:'Open Sans'; font-style:normal; stroke-linejoin:miter; font-size:12; stroke-dashoffset:0; image-rendering:auto;" height="223" class="cas-substance-image" xmlns:xlink="http://www.w3.org/1999/xlink" xmlns="http://www.w3.org/2000/svg"><svg class="cas-substance-single-component"><rect y="0" x="0" width="333" stroke="none" ry="7" rx="7" height="223" fill="white" class="cas-substance-group"/><svg y="0" x="0" width="333" viewBox="0 0 333 223" style="fill:black;" height="223" class="cas-substance-single-component-image"><svg><g><g transform="translate(172,111)" style="text-rendering:geometricPrecision; color-rendering:optimizeQuality; color-interpolation:linearRGB; stroke-linecap:butt; image-rendering:optimizeQuality;"><line y2="-51.963" y1="-72.3073" x2="-22.5" x1="-34.2461" style="fill:none;"/><line y2="-76.193" y1="-97.4122" x2="21.4896" x1="9.2383" style="fill:none;"/><line y2="-77.943" y1="-99.1623" x2="24.5207" x1="12.2694" style="fill:none;"/><line y2="0" y1="20.2583" x2="-22.5" x1="-34.1965" style="fill:none;"/><line y2="-25.98" y1="-25.98" x2="-37.5" x1="-61.5625" style="fill:none;"/><path style="stroke:none;" d="M-73.6581 -21.1578 L-74.066 -20.2383 L-74.066 -20.2383 L-69.1879 -17.4253 L-68.5955 -18.2384 L-73.6581 -21.1578 ZM-74.8818 -18.3994 L-75.2897 -17.4799 L-70.9652 -14.9861 L-70.9652 -14.9861 L-70.3728 -15.7992 L-70.3728 -15.7992 L-74.8818 -18.3994 ZM-76.1055 -15.6409 L-76.5134 -14.7214 L-72.7425 -12.5469 L-72.1501 -13.36 L-76.1055 -15.6409 ZM-77.3292 -12.8824 L-77.737 -11.9629 L-74.5199 -10.1077 L-73.9274 -10.9208 L-77.3292 -12.8824 ZM-78.5528 -10.124 L-78.9607 -9.2045 L-76.2972 -7.6685 L-75.7047 -8.4816 L-78.5528 -10.124 ZM-79.7765 -7.3655 L-80.1844 -6.446 L-78.0745 -5.2293 L-77.4821 -6.0424 L-79.7765 -7.3655 ZM-81.0002 -4.607 L-81.4081 -3.6875 L-79.8518 -2.7901 L-79.8518 -2.7901 L-79.2594 -3.6032 L-81.0002 -4.607 ZM-82.2239 -1.8486 L-82.6318 -0.9291 L-81.6292 -0.3509 L-81.0367 -1.164 L-82.2239 -1.8486 Z"/><path style="stroke:none;" d="M-112.067 -0.25 L-112.933 0.25 L-126.8442 -18.8442 L-121.6481 -21.8443 Z"/><line y2="98.2013" y1="77.943" x2="-79.1965" x1="-67.5" style="fill:none;"/><path style="stroke:none;" d="M-81.4902 52.535 L-82.5014 53.1181 L-82.5014 53.1181 L-82.0695 54.0238 L-82.0695 54.0238 L-80.9134 53.3571 L-81.4902 52.535 ZM-79.7598 55.0013 L-81.2057 55.8351 L-81.2057 55.8351 L-80.7738 56.7407 L-79.183 55.8234 L-79.7598 55.0013 ZM-78.0294 57.4675 L-79.91 58.552 L-79.91 58.552 L-79.4781 59.4577 L-79.4781 59.4577 L-77.4526 58.2896 L-77.4526 58.2896 L-78.0294 57.4675 ZM-76.299 59.9338 L-78.6143 61.269 L-78.6143 61.269 L-78.1824 62.1746 L-78.1824 62.1746 L-75.7222 60.7559 L-75.7222 60.7559 L-76.299 59.9338 ZM-74.5686 62.4 L-77.3187 63.9859 L-77.3187 63.9859 L-76.8868 64.8916 L-73.9918 63.2221 L-73.9918 63.2221 L-74.5686 62.4 ZM-72.8382 64.8663 L-76.023 66.7029 L-75.5911 67.6085 L-75.5911 67.6085 L-72.2614 65.6884 L-72.8382 64.8663 ZM-71.1078 67.3325 L-74.7273 69.4198 L-74.7273 69.4198 L-74.2954 70.3255 L-70.531 68.1546 L-70.531 68.1546 L-71.1078 67.3325 ZM-69.3773 69.7988 L-73.4316 72.1368 L-73.4316 72.1368 L-72.9997 73.0424 L-72.9997 73.0424 L-68.8005 70.6209 L-69.3773 69.7988 ZM-67.6469 72.265 L-72.1359 74.8537 L-71.704 75.7594 L-67.0701 73.0871 L-67.0701 73.0871 L-67.6469 72.265 ZM-65.9165 74.7313 L-70.8403 77.5707 L-70.8403 77.5707 L-70.4084 78.4763 L-70.4084 78.4763 L-66.5099 76.2282 L-66.5099 76.2282 L-65.7679 74.9431 L-65.9165 74.7313 Z"/><path style="stroke:none;" d="M-129.5312 25.269 L-129.5312 26.691 L-128.5312 26.5871 L-128.5312 25.3729 L-129.5312 25.269 ZM-132.5312 24.9573 L-132.5312 27.0027 L-131.5312 26.8988 L-131.5312 25.0612 L-132.5312 24.9573 ZM-135.5312 24.6456 L-135.5312 27.3144 L-134.5312 27.2105 L-134.5312 24.7495 L-135.5312 24.6456 ZM-138.5312 24.3339 L-138.5312 27.6261 L-137.5312 27.5222 L-137.5312 27.5222 L-137.5312 24.4378 L-137.5312 24.4378 L-138.5312 24.3339 ZM-141.5312 24.0222 L-141.5312 27.9378 L-141.5312 27.9378 L-140.5312 27.8339 L-140.5312 24.1261 L-141.5312 24.0222 ZM-144.5312 23.7105 L-144.5312 28.2495 L-143.5312 28.1456 L-143.5312 23.8144 L-144.5312 23.7105 ZM-147.5312 23.3988 L-147.5312 28.5612 L-146.5312 28.4573 L-146.5312 23.5027 L-147.5312 23.3988 ZM-150.5312 23.0871 L-150.5312 28.8729 L-149.5312 28.769 L-149.5312 23.191 L-150.5312 23.0871 Z"/><path style="stroke:none;" d="M-112.933 51.713 L-112.067 52.213 L-121.5984 73.7214 L-126.7945 70.7213 Z"/><line y2="-51.963" y1="-25.98" x2="7.5" x1="22.5" style="fill:none;"/><line y2="-25.98" y1="-25.98" x2="46.5625" x1="22.5" style="fill:none;"/><line y2="0" y1="-25.98" x2="7.5" x1="22.5" style="fill:none;"/><line y2="-3.5" y1="-25.9801" x2="5.4793" x1="18.4585" style="fill:none;"/><line y2="-51.963" y1="-51.963" x2="-22.5" x1="7.5" style="fill:none;"/><line y2="-48.463" y1="-48.463" x2="-20.4793" x1="5.4793" style="fill:none;"/><line y2="-77.943" y1="-51.963" x2="22.5" x1="7.5" style="fill:none;"/><line y2="-51.963" y1="-31.7019" x2="67.5" x1="55.8033" style="fill:none;"/><line y2="0" y1="0" x2="-22.5" x1="7.5" style="fill:none;"/><line y2="-25.98" y1="-51.963" x2="-37.5" x1="-22.5" style="fill:none;"/><line y2="-77.943" y1="-77.943" x2="52.5" x1="22.5" style="fill:none;"/><line y2="-77.943" y1="-51.963" x2="52.5" x1="67.5" style="fill:none;"/><line y2="-74.443" y1="-51.963" x2="50.4793" x1="63.4585" style="fill:none;"/><line y2="-51.963" y1="-51.963" x2="97.5" x1="67.5" style="fill:none;"/><line y2="-25.98" y1="0" x2="-37.5" x1="-22.5" style="fill:none;"/><line y2="-25.9801" y1="-3.5" x2="-33.4585" x1="-20.4793" style="fill:none;"/><line y2="-77.943" y1="-51.963" x2="112.5" x1="97.5" style="fill:none;"/><line y2="-74.443" y1="-51.963" x2="114.5207" x1="101.5415" style="fill:none;"/><line y2="-25.98" y1="-51.963" x2="112.5" x1="97.5" style="fill:none;"/><line y2="-77.943" y1="-77.943" x2="142.5" x1="112.5" style="fill:none;"/><line y2="-25.98" y1="-25.98" x2="142.5" x1="112.5" style="fill:none;"/><line y2="-29.48" y1="-29.48" x2="140.4793" x1="114.5207" style="fill:none;"/><line y2="-51.963" y1="-77.943" x2="157.5" x1="142.5" style="fill:none;"/><line y2="-51.963" y1="-74.443" x2="153.4585" x1="140.4793" style="fill:none;"/><line y2="-51.963" y1="-25.98" x2="157.5" x1="142.5" style="fill:none;"/><line y2="20.2524" y1="0" x2="-70.8069" x1="-82.5" style="fill:none;"/><line y2="0" y1="0" x2="-112.5" x1="-82.5" style="fill:none;"/><line y2="51.963" y1="31.6282" x2="-82.5" x1="-70.7607" style="fill:none;"/><line y2="25.98" y1="0" x2="-127.5" x1="-112.5" style="fill:none;"/><line y2="51.963" y1="51.963" x2="-112.5" x1="-82.5" style="fill:none;"/><line y2="51.963" y1="25.98" x2="-112.5" x1="-127.5" style="fill:none;"/></g><g transform="translate(172,111)" style="fill:rgb(230,0,0); text-rendering:geometricPrecision; color-rendering:optimizeQuality; image-rendering:optimizeQuality; font-family:'Open Sans'; stroke:rgb(230,0,0); color-interpolation:linearRGB;"><path style="stroke:none;" d="M-33.5625 -78.0133 Q-33.5625 -75.9508 -34.6016 -74.7711 Q-35.6406 -73.5914 -37.4844 -73.5914 Q-39.375 -73.5914 -40.4062 -74.7555 Q-41.4375 -75.9196 -41.4375 -78.0289 Q-41.4375 -80.1227 -40.4062 -81.2711 Q-39.375 -82.4196 -37.4844 -82.4196 Q-35.625 -82.4196 -34.5938 -81.2477 Q-33.5625 -80.0758 -33.5625 -78.0133 ZM-40.3906 -78.0133 Q-40.3906 -76.2789 -39.6484 -75.3727 Q-38.9062 -74.4664 -37.4844 -74.4664 Q-36.0625 -74.4664 -35.3359 -75.3649 Q-34.6094 -76.2633 -34.6094 -78.0133 Q-34.6094 -79.7477 -35.3359 -80.6383 Q-36.0625 -81.5289 -37.4844 -81.5289 Q-38.9062 -81.5289 -39.6484 -80.6305 Q-40.3906 -79.7321 -40.3906 -78.0133 Z"/><path style="stroke:none;" d="M-42.4375 -73.7164 L-43.4375 -73.7164 L-43.4375 -77.7477 L-47.9531 -77.7477 L-47.9531 -73.7164 L-48.9531 -73.7164 L-48.9531 -82.2789 L-47.9531 -82.2789 L-47.9531 -78.6383 L-43.4375 -78.6383 L-43.4375 -82.2789 L-42.4375 -82.2789 L-42.4375 -73.7164 Z"/><path style="stroke:none;" d="M11.4375 -103.9933 Q11.4375 -101.9308 10.3984 -100.7511 Q9.3594 -99.5714 7.5156 -99.5714 Q5.625 -99.5714 4.5938 -100.7355 Q3.5625 -101.8996 3.5625 -104.0089 Q3.5625 -106.1027 4.5938 -107.2511 Q5.625 -108.3996 7.5156 -108.3996 Q9.375 -108.3996 10.4062 -107.2277 Q11.4375 -106.0558 11.4375 -103.9933 ZM4.6094 -103.9933 Q4.6094 -102.2589 5.3516 -101.3527 Q6.0938 -100.4464 7.5156 -100.4464 Q8.9375 -100.4464 9.6641 -101.3449 Q10.3906 -102.2433 10.3906 -103.9933 Q10.3906 -105.7277 9.6641 -106.6183 Q8.9375 -107.5089 7.5156 -107.5089 Q6.0938 -107.5089 5.3516 -106.6105 Q4.6094 -105.7121 4.6094 -103.9933 Z"/><path style="stroke:none;" d="M-33.5625 25.9097 Q-33.5625 27.9722 -34.6016 29.1519 Q-35.6406 30.3316 -37.4844 30.3316 Q-39.375 30.3316 -40.4062 29.1675 Q-41.4375 28.0034 -41.4375 25.8941 Q-41.4375 23.8003 -40.4062 22.6519 Q-39.375 21.5034 -37.4844 21.5034 Q-35.625 21.5034 -34.5938 22.6753 Q-33.5625 23.8472 -33.5625 25.9097 ZM-40.3906 25.9097 Q-40.3906 27.6441 -39.6484 28.5503 Q-38.9062 29.4566 -37.4844 29.4566 Q-36.0625 29.4566 -35.3359 28.5581 Q-34.6094 27.6597 -34.6094 25.9097 Q-34.6094 24.1753 -35.3359 23.2847 Q-36.0625 22.3941 -37.4844 22.3941 Q-38.9062 22.3941 -39.6484 23.2925 Q-40.3906 24.1909 -40.3906 25.9097 Z"/><path style="stroke:none;" d="M-42.4375 30.2066 L-43.4375 30.2066 L-43.4375 26.1753 L-47.9531 26.1753 L-47.9531 30.2066 L-48.9531 30.2066 L-48.9531 21.6441 L-47.9531 21.6441 L-47.9531 25.2847 L-43.4375 25.2847 L-43.4375 21.6441 L-42.4375 21.6441 L-42.4375 30.2066 Z"/><path style="stroke:none;" d="M-63.5625 -26.0503 Q-63.5625 -23.9878 -64.6016 -22.8081 Q-65.6406 -21.6284 -67.4844 -21.6284 Q-69.375 -21.6284 -70.4062 -22.7925 Q-71.4375 -23.9566 -71.4375 -26.0659 Q-71.4375 -28.1597 -70.4062 -29.3081 Q-69.375 -30.4566 -67.4844 -30.4566 Q-65.625 -30.4566 -64.5938 -29.2847 Q-63.5625 -28.1128 -63.5625 -26.0503 ZM-70.3906 -26.0503 Q-70.3906 -24.3159 -69.6484 -23.4097 Q-68.9062 -22.5034 -67.4844 -22.5034 Q-66.0625 -22.5034 -65.3359 -23.4019 Q-64.6094 -24.3003 -64.6094 -26.0503 Q-64.6094 -27.7847 -65.3359 -28.6753 Q-66.0625 -29.5659 -67.4844 -29.5659 Q-68.9062 -29.5659 -69.6484 -28.6675 Q-70.3906 -27.7691 -70.3906 -26.0503 Z"/><path style="stroke:none;" d="M-123.5625 -26.0503 Q-123.5625 -23.9878 -124.6016 -22.8081 Q-125.6406 -21.6284 -127.4844 -21.6284 Q-129.375 -21.6284 -130.4062 -22.7925 Q-131.4375 -23.9566 -131.4375 -26.0659 Q-131.4375 -28.1597 -130.4062 -29.3081 Q-129.375 -30.4566 -127.4844 -30.4566 Q-125.625 -30.4566 -124.5938 -29.2847 Q-123.5625 -28.1128 -123.5625 -26.0503 ZM-130.3906 -26.0503 Q-130.3906 -24.3159 -129.6484 -23.4097 Q-128.9062 -22.5034 -127.4844 -22.5034 Q-126.0625 -22.5034 -125.3359 -23.4019 Q-124.6094 -24.3003 -124.6094 -26.0503 Q-124.6094 -27.7847 -125.3359 -28.6753 Q-126.0625 -29.5659 -127.4844 -29.5659 Q-128.9062 -29.5659 -129.6484 -28.6675 Q-130.3906 -27.7691 -130.3906 -26.0503 Z"/><path style="stroke:none;" d="M-132.4375 -21.7534 L-133.4375 -21.7534 L-133.4375 -25.7847 L-137.9531 -25.7847 L-137.9531 -21.7534 L-138.9531 -21.7534 L-138.9531 -30.3159 L-137.9531 -30.3159 L-137.9531 -26.6753 L-133.4375 -26.6753 L-133.4375 -30.3159 L-132.4375 -30.3159 L-132.4375 -21.7534 Z"/><path style="stroke:none;" d="M-78.5625 103.8527 Q-78.5625 105.9152 -79.6016 107.0949 Q-80.6406 108.2746 -82.4844 108.2746 Q-84.375 108.2746 -85.4062 107.1105 Q-86.4375 105.9464 -86.4375 103.8371 Q-86.4375 101.7433 -85.4062 100.5949 Q-84.375 99.4464 -82.4844 99.4464 Q-80.625 99.4464 -79.5938 100.6183 Q-78.5625 101.7902 -78.5625 103.8527 ZM-85.3906 103.8527 Q-85.3906 105.5871 -84.6484 106.4933 Q-83.9062 107.3996 -82.4844 107.3996 Q-81.0625 107.3996 -80.3359 106.5011 Q-79.6094 105.6027 -79.6094 103.8527 Q-79.6094 102.1183 -80.3359 101.2277 Q-81.0625 100.3371 -82.4844 100.3371 Q-83.9062 100.3371 -84.6484 101.2355 Q-85.3906 102.1339 -85.3906 103.8527 Z"/><path style="stroke:none;" d="M-87.4375 108.1496 L-88.4375 108.1496 L-88.4375 104.1183 L-92.9531 104.1183 L-92.9531 108.1496 L-93.9531 108.1496 L-93.9531 99.5871 L-92.9531 99.5871 L-92.9531 103.2277 L-88.4375 103.2277 L-88.4375 99.5871 L-87.4375 99.5871 L-87.4375 108.1496 Z"/><path style="stroke:none;" d="M-153.5625 25.9097 Q-153.5625 27.9722 -154.6016 29.1519 Q-155.6406 30.3316 -157.4844 30.3316 Q-159.375 30.3316 -160.4062 29.1675 Q-161.4375 28.0034 -161.4375 25.8941 Q-161.4375 23.8003 -160.4062 22.6519 Q-159.375 21.5034 -157.4844 21.5034 Q-155.625 21.5034 -154.5938 22.6753 Q-153.5625 23.8472 -153.5625 25.9097 ZM-160.3906 25.9097 Q-160.3906 27.6441 -159.6484 28.5503 Q-158.9062 29.4566 -157.4844 29.4566 Q-156.0625 29.4566 -155.3359 28.5581 Q-154.6094 27.6597 -154.6094 25.9097 Q-154.6094 24.1753 -155.3359 23.2847 Q-156.0625 22.3941 -157.4844 22.3941 Q-158.9062 22.3941 -159.6484 23.2925 Q-160.3906 24.1909 -160.3906 25.9097 Z"/><path style="stroke:none;" d="M-162.4375 30.2066 L-163.4375 30.2066 L-163.4375 26.1753 L-167.9531 26.1753 L-167.9531 30.2066 L-168.9531 30.2066 L-168.9531 21.6441 L-167.9531 21.6441 L-167.9531 25.2847 L-163.4375 25.2847 L-163.4375 21.6441 L-162.4375 21.6441 L-162.4375 30.2066 Z"/><path style="stroke:none;" d="M-123.5625 77.8727 Q-123.5625 79.9352 -124.6016 81.1149 Q-125.6406 82.2946 -127.4844 82.2946 Q-129.375 82.2946 -130.4062 81.1305 Q-131.4375 79.9664 -131.4375 77.8571 Q-131.4375 75.7633 -130.4062 74.6149 Q-129.375 73.4664 -127.4844 73.4664 Q-125.625 73.4664 -124.5938 74.6383 Q-123.5625 75.8102 -123.5625 77.8727 ZM-130.3906 77.8727 Q-130.3906 79.6071 -129.6484 80.5133 Q-128.9062 81.4196 -127.4844 81.4196 Q-126.0625 81.4196 -125.3359 80.5211 Q-124.6094 79.6227 -124.6094 77.8727 Q-124.6094 76.1383 -125.3359 75.2477 Q-126.0625 74.3571 -127.4844 74.3571 Q-128.9062 74.3571 -129.6484 75.2555 Q-130.3906 76.1539 -130.3906 77.8727 Z"/><path style="stroke:none;" d="M-132.4375 82.1696 L-133.4375 82.1696 L-133.4375 78.1383 L-137.9531 78.1383 L-137.9531 82.1696 L-138.9531 82.1696 L-138.9531 73.6071 L-137.9531 73.6071 L-137.9531 77.2477 L-133.4375 77.2477 L-133.4375 73.6071 L-132.4375 73.6071 L-132.4375 82.1696 Z"/></g><g transform="translate(172,111)" style="stroke-linecap:butt; text-rendering:geometricPrecision; color-rendering:optimizeQuality; image-rendering:optimizeQuality; font-family:'Open Sans'; color-interpolation:linearRGB; stroke-miterlimit:5;"><path style="fill:none;" d="M22.25 -25.547 L22.5 -25.98 L22.25 -26.413"/><path style="fill:none;" d="M7 -51.963 L7.5 -51.963 L7.75 -51.53"/><path style="fill:rgb(230,0,0); stroke:none;" d="M56.4375 -26.0503 Q56.4375 -23.9878 55.3984 -22.8081 Q54.3594 -21.6284 52.5156 -21.6284 Q50.625 -21.6284 49.5938 -22.7925 Q48.5625 -23.9566 48.5625 -26.0659 Q48.5625 -28.1597 49.5938 -29.3081 Q50.625 -30.4566 52.5156 -30.4566 Q54.375 -30.4566 55.4062 -29.2847 Q56.4375 -28.1128 56.4375 -26.0503 ZM49.6094 -26.0503 Q49.6094 -24.3159 50.3516 -23.4097 Q51.0938 -22.5034 52.5156 -22.5034 Q53.9375 -22.5034 54.6641 -23.4019 Q55.3906 -24.3003 55.3906 -26.0503 Q55.3906 -27.7847 54.6641 -28.6753 Q53.9375 -29.5659 52.5156 -29.5659 Q51.0938 -29.5659 50.3516 -28.6675 Q49.6094 -27.7691 49.6094 -26.0503 Z"/><path style="fill:none;" d="M7.75 -0.433 L7.5 0 L7 -0"/><path style="fill:none;" d="M-22 -51.963 L-22.5 -51.963 L-22.75 -52.396"/><path style="fill:none;" d="M22.25 -77.51 L22.5 -77.943 L23 -77.943"/><path style="fill:none;" d="M67.25 -52.396 L67.5 -51.963 L67.25 -51.53"/><path style="fill:none;" d="M-22.75 -0.433 L-22.5 0 L-22.75 0.433"/><path style="fill:none;" d="M-37.25 -25.547 L-37.5 -25.98 L-38 -25.98"/><path style="fill:none;" d="M52 -77.943 L52.5 -77.943 L52.75 -77.51"/><path style="fill:none;" d="M97.75 -52.396 L97.5 -51.963 L97 -51.963"/><path style="fill:none;" d="M112.25 -77.51 L112.5 -77.943 L113 -77.943"/><path style="fill:none;" d="M112.25 -26.413 L112.5 -25.98 L113 -25.98"/><path style="fill:none;" d="M142 -77.943 L142.5 -77.943 L142.75 -77.51"/><path style="fill:none;" d="M142 -25.98 L142.5 -25.98 L142.75 -26.413"/><path style="fill:none;" d="M157.25 -52.396 L157.5 -51.963 L157.25 -51.53"/><path style="fill:none;" d="M-82.25 0.433 L-82.5 0 L-83 -0"/></g><g transform="translate(172,111)" style="stroke-linecap:butt; font-size:8.4px; fill:gray; text-rendering:geometricPrecision; image-rendering:optimizeQuality; color-rendering:optimizeQuality; font-family:'Open Sans'; font-style:italic; stroke:gray; color-interpolation:linearRGB; stroke-miterlimit:5;"><path style="stroke:none;" d="M-91.6083 -7.4573 Q-91.6083 -8.7854 -91.1395 -9.9104 Q-90.6708 -11.0354 -89.6395 -12.1135 L-89.0302 -12.1135 Q-89.9989 -11.051 -90.4833 -9.8791 Q-90.9677 -8.7073 -90.9677 -7.4729 Q-90.9677 -6.1448 -90.5302 -5.1291 L-91.0458 -5.1291 Q-91.6083 -6.1604 -91.6083 -7.4573 ZM-85.9857 -8.051 Q-85.9857 -7.2229 -86.5326 -6.7698 Q-87.0795 -6.3166 -88.0795 -6.3166 Q-88.4857 -6.3166 -88.7982 -6.3713 Q-89.1107 -6.426 -89.392 -6.5666 L-89.392 -7.2229 Q-88.767 -6.8948 -88.0639 -6.8948 Q-87.4389 -6.8948 -87.0639 -7.1916 Q-86.6889 -7.4885 -86.6889 -8.0041 Q-86.6889 -8.3166 -86.892 -8.5432 Q-87.0951 -8.7698 -87.6576 -9.0979 Q-88.2514 -9.426 -88.4779 -9.7541 Q-88.7045 -10.0823 -88.7045 -10.5354 Q-88.7045 -11.2698 -88.1889 -11.7307 Q-87.6732 -12.1916 -86.8295 -12.1916 Q-86.4545 -12.1916 -86.1186 -12.1135 Q-85.7826 -12.0354 -85.4076 -11.8635 L-85.6732 -11.2698 Q-85.9232 -11.426 -86.2436 -11.5119 Q-86.5639 -11.5979 -86.8295 -11.5979 Q-87.3607 -11.5979 -87.6811 -11.3244 Q-88.0014 -11.051 -88.0014 -10.5823 Q-88.0014 -10.3791 -87.9311 -10.2307 Q-87.8607 -10.0823 -87.7201 -9.9494 Q-87.5795 -9.8166 -87.1576 -9.5666 Q-86.5951 -9.2229 -86.392 -9.0276 Q-86.1889 -8.8323 -86.0873 -8.5979 Q-85.9857 -8.3635 -85.9857 -8.051 ZM-83.3913 -9.7698 Q-83.3913 -8.4416 -83.8678 -7.3088 Q-84.3444 -6.176 -85.36 -5.1291 L-85.9694 -5.1291 Q-84.0319 -7.2854 -84.0319 -9.7698 Q-84.0319 -11.0979 -84.4694 -12.1135 L-83.9538 -12.1135 Q-83.3913 -11.051 -83.3913 -9.7698 Z"/></g><g transform="translate(172,111)" style="stroke-linecap:butt; fill:rgb(230,0,0); text-rendering:geometricPrecision; color-rendering:optimizeQuality; image-rendering:optimizeQuality; font-family:'Open Sans'; stroke:rgb(230,0,0); color-interpolation:linearRGB; stroke-miterlimit:5;"><path style="stroke:none;" d="M-63.5625 25.9097 Q-63.5625 27.9722 -64.6016 29.1519 Q-65.6406 30.3316 -67.4844 30.3316 Q-69.375 30.3316 -70.4062 29.1675 Q-71.4375 28.0034 -71.4375 25.8941 Q-71.4375 23.8003 -70.4062 22.6519 Q-69.375 21.5034 -67.4844 21.5034 Q-65.625 21.5034 -64.5938 22.6753 Q-63.5625 23.8472 -63.5625 25.9097 ZM-70.3906 25.9097 Q-70.3906 27.6441 -69.6484 28.5503 Q-68.9062 29.4566 -67.4844 29.4566 Q-66.0625 29.4566 -65.3359 28.5581 Q-64.6094 27.6597 -64.6094 25.9097 Q-64.6094 24.1753 -65.3359 23.2847 Q-66.0625 22.3941 -67.4844 22.3941 Q-68.9062 22.3941 -69.6484 23.2925 Q-70.3906 24.1909 -70.3906 25.9097 Z"/></g><g transform="translate(172,111)" style="stroke-linecap:butt; font-size:8.4px; fill:gray; text-rendering:geometricPrecision; image-rendering:optimizeQuality; color-rendering:optimizeQuality; font-family:'Open Sans'; font-style:italic; stroke:gray; color-interpolation:linearRGB; stroke-miterlimit:5;"><path style="stroke:none;" d="M-111.8885 -7.4961 Q-111.8885 -8.8243 -111.4198 -9.9493 Q-110.951 -11.0743 -109.9198 -12.1524 L-109.3104 -12.1524 Q-110.2792 -11.0899 -110.7635 -9.918 Q-111.2479 -8.7461 -111.2479 -7.5118 Q-111.2479 -6.1836 -110.8104 -5.168 L-111.326 -5.168 Q-111.8885 -6.1993 -111.8885 -7.4961 ZM-108.3285 -8.8086 L-108.8285 -6.4336 L-109.4847 -6.4336 L-108.2816 -12.1524 L-107.0316 -12.1524 Q-105.2972 -12.1524 -105.2972 -10.7149 Q-105.2972 -9.3555 -106.7347 -8.9649 L-105.7972 -6.4336 L-106.516 -6.4336 L-107.3441 -8.8086 L-108.3285 -8.8086 ZM-107.7504 -11.5586 Q-108.141 -9.6368 -108.2035 -9.3868 L-107.5472 -9.3868 Q-106.7972 -9.3868 -106.391 -9.7149 Q-105.9847 -10.043 -105.9847 -10.668 Q-105.9847 -11.1368 -106.2425 -11.3477 Q-106.5004 -11.5586 -107.0941 -11.5586 L-107.7504 -11.5586 ZM-103.1113 -9.8086 Q-103.1113 -8.4805 -103.5878 -7.3477 Q-104.0644 -6.2149 -105.08 -5.168 L-105.6894 -5.168 Q-103.7519 -7.3243 -103.7519 -9.8086 Q-103.7519 -11.1368 -104.1894 -12.1524 L-103.6738 -12.1524 Q-103.1113 -11.0899 -103.1113 -9.8086 Z"/><path style="fill:none; stroke:black;" d="M-82.25 51.53 L-82.5 51.963 L-83 51.963"/><path style="stroke:none;" d="M-91.8891 44.4671 Q-91.8891 43.1389 -91.4203 42.0139 Q-90.9516 40.8889 -89.9203 39.8108 L-89.3109 39.8108 Q-90.2797 40.8733 -90.7641 42.0452 Q-91.2484 43.2171 -91.2484 44.4514 Q-91.2484 45.7796 -90.8109 46.7952 L-91.3266 46.7952 Q-91.8891 45.7639 -91.8891 44.4671 ZM-88.329 43.1546 L-88.829 45.5296 L-89.4853 45.5296 L-88.2821 39.8108 L-87.0321 39.8108 Q-85.2978 39.8108 -85.2978 41.2483 Q-85.2978 42.6077 -86.7353 42.9983 L-85.7978 45.5296 L-86.5165 45.5296 L-87.3446 43.1546 L-88.329 43.1546 ZM-87.7509 40.4046 Q-88.1415 42.3264 -88.204 42.5764 L-87.5478 42.5764 Q-86.7978 42.5764 -86.3915 42.2483 Q-85.9853 41.9202 -85.9853 41.2952 Q-85.9853 40.8264 -86.2431 40.6155 Q-86.5009 40.4046 -87.0946 40.4046 L-87.7509 40.4046 ZM-83.1118 42.1546 Q-83.1118 43.4827 -83.5883 44.6155 Q-84.0649 45.7483 -85.0805 46.7952 L-85.6899 46.7952 Q-83.7524 44.6389 -83.7524 42.1546 Q-83.7524 40.8264 -84.1899 39.8108 L-83.6743 39.8108 Q-83.1118 40.8733 -83.1118 42.1546 Z"/><path style="fill:none; stroke:black;" d="M-127.25 25.547 L-127.5 25.98 L-127.25 26.413"/><path style="stroke:none;" d="M-136.6085 18.5229 Q-136.6085 17.1947 -136.1398 16.0697 Q-135.671 14.9447 -134.6398 13.8666 L-134.0304 13.8666 Q-134.9991 14.9291 -135.4835 16.101 Q-135.9679 17.2729 -135.9679 18.5072 Q-135.9679 19.8354 -135.5304 20.851 L-136.046 20.851 Q-136.6085 19.8197 -136.6085 18.5229 ZM-130.986 17.9291 Q-130.986 18.7572 -131.5328 19.2104 Q-132.0797 19.6635 -133.0797 19.6635 Q-133.486 19.6635 -133.7985 19.6088 Q-134.111 19.5541 -134.3922 19.4135 L-134.3922 18.7572 Q-133.7672 19.0854 -133.0641 19.0854 Q-132.4391 19.0854 -132.0641 18.7885 Q-131.6891 18.4916 -131.6891 17.976 Q-131.6891 17.6635 -131.8922 17.4369 Q-132.0953 17.2104 -132.6578 16.8822 Q-133.2516 16.5541 -133.4781 16.226 Q-133.7047 15.8979 -133.7047 15.4447 Q-133.7047 14.7104 -133.1891 14.2494 Q-132.6735 13.7885 -131.8297 13.7885 Q-131.4547 13.7885 -131.1188 13.8666 Q-130.7828 13.9447 -130.4078 14.1166 L-130.6735 14.7104 Q-130.9235 14.5541 -131.2438 14.4682 Q-131.5641 14.3822 -131.8297 14.3822 Q-132.361 14.3822 -132.6813 14.6557 Q-133.0016 14.9291 -133.0016 15.3979 Q-133.0016 15.601 -132.9313 15.7494 Q-132.861 15.8979 -132.7203 16.0307 Q-132.5797 16.1635 -132.1578 16.4135 Q-131.5953 16.7572 -131.3922 16.9526 Q-131.1891 17.1479 -131.0875 17.3822 Q-130.986 17.6166 -130.986 17.9291 ZM-128.3915 16.2104 Q-128.3915 17.5385 -128.868 18.6713 Q-129.3446 19.8041 -130.3602 20.851 L-130.9696 20.851 Q-129.0321 18.6947 -129.0321 16.2104 Q-129.0321 14.8822 -129.4696 13.8666 L-128.954 13.8666 Q-128.3915 14.9291 -128.3915 16.2104 Z"/><path style="stroke:none;" d="M-111.6086 44.5058 Q-111.6086 43.1777 -111.1399 42.0527 Q-110.6711 40.9277 -109.6399 39.8496 L-109.0305 39.8496 Q-109.9993 40.9121 -110.4836 42.0839 Q-110.968 43.2558 -110.968 44.4902 Q-110.968 45.8183 -110.5305 46.8339 L-111.0461 46.8339 Q-111.6086 45.8027 -111.6086 44.5058 ZM-105.9861 43.9121 Q-105.9861 44.7402 -106.5329 45.1933 Q-107.0798 45.6464 -108.0798 45.6464 Q-108.4861 45.6464 -108.7986 45.5917 Q-109.1111 45.5371 -109.3923 45.3964 L-109.3923 44.7402 Q-108.7673 45.0683 -108.0642 45.0683 Q-107.4392 45.0683 -107.0642 44.7714 Q-106.6892 44.4746 -106.6892 43.9589 Q-106.6892 43.6464 -106.8923 43.4199 Q-107.0954 43.1933 -107.6579 42.8652 Q-108.2517 42.5371 -108.4783 42.2089 Q-108.7048 41.8808 -108.7048 41.4277 Q-108.7048 40.6933 -108.1892 40.2324 Q-107.6736 39.7714 -106.8298 39.7714 Q-106.4548 39.7714 -106.1189 39.8496 Q-105.7829 39.9277 -105.4079 40.0996 L-105.6736 40.6933 Q-105.9236 40.5371 -106.2439 40.4511 Q-106.5642 40.3652 -106.8298 40.3652 Q-107.3611 40.3652 -107.6814 40.6386 Q-108.0017 40.9121 -108.0017 41.3808 Q-108.0017 41.5839 -107.9314 41.7324 Q-107.8611 41.8808 -107.7204 42.0136 Q-107.5798 42.1464 -107.1579 42.3964 Q-106.5954 42.7402 -106.3923 42.9355 Q-106.1892 43.1308 -106.0876 43.3652 Q-105.9861 43.5996 -105.9861 43.9121 ZM-103.3916 42.1933 Q-103.3916 43.5214 -103.8681 44.6542 Q-104.3447 45.7871 -105.3603 46.8339 L-105.9697 46.8339 Q-104.0322 44.6777 -104.0322 42.1933 Q-104.0322 40.8652 -104.4697 39.8496 L-103.9541 39.8496 Q-103.3916 40.9121 -103.3916 42.1933 Z"/></g></g></svg></svg></svg></svg>