<svg xmlns:ns0="http://www.w3.org/2000/svg" xmlns="http://www.w3.org/2000/svg"><g transform="translate(0, 0)"><ns0:svg width="150" viewBox="0 0 150 105" style="fill-opacity:1; color-rendering:auto; color-interpolation:auto; text-rendering:auto; stroke:black; stroke-linecap:square; stroke-miterlimit:10; shape-rendering:auto; stroke-opacity:1; fill:black; stroke-dasharray:none; font-weight:normal; stroke-width:1; font-family:'Open Sans'; font-style:normal; stroke-linejoin:miter; font-size:12; stroke-dashoffset:0; image-rendering:auto;" height="105" class="cas-substance-image"><ns0:svg class="cas-substance-single-component"><ns0:rect y="0" x="0" width="150" stroke="none" ry="7" rx="7" height="105" fill="white" class="cas-substance-group" /><ns0:svg y="0" x="0" width="150" viewBox="0 0 150 105" style="fill:black;" height="105" class="cas-substance-single-component-image"><ns0:svg><ns0:g><ns0:g transform="translate(79,52)" style="text-rendering:geometricPrecision; color-rendering:optimizeQuality; color-interpolation:linearRGB; stroke-linecap:butt; image-rendering:optimizeQuality;"><ns0:line y2="-33.2412" y1="-45" x2="59.3387" x1="38.97" style="fill:none;" /><ns0:line y2="-30.21" y1="-40.9585" x2="57.5888" x1="38.9702" style="fill:none;" /><ns0:line y2="-30" y1="-45" x2="12.99" x1="38.97" style="fill:none;" /><ns0:line y2="15" y1="38.6138" x2="-12.99" x1="-12.99" style="fill:none;" /><ns0:line y2="-30" y1="-41.8216" x2="-38.97" x1="-59.4474" style="fill:none;" /><ns0:line y2="0" y1="-30" x2="12.99" x1="12.99" style="fill:none;" /><ns0:line y2="-2.0207" y1="-27.9793" x2="9.49" x1="9.49" style="fill:none;" /><ns0:line y2="-45" y1="-30" x2="-12.99" x1="12.99" style="fill:none;" /><ns0:line y2="15" y1="0" x2="-12.99" x1="12.99" style="fill:none;" /><ns0:line y2="-30" y1="-45" x2="-38.97" x1="-12.99" style="fill:none;" /><ns0:line y2="-27.9793" y1="-40.9585" x2="-35.47" x1="-12.9899" style="fill:none;" /><ns0:line y2="0" y1="15" x2="-38.97" x1="-12.99" style="fill:none;" /><ns0:line y2="-2.0207" y1="10.9585" x2="-35.47" x1="-12.9899" style="fill:none;" /><ns0:line y2="0" y1="-30" x2="-38.97" x1="-38.97" style="fill:none;" /><ns0:path style="fill:none; stroke-miterlimit:5;" d="M39.403 -44.75 L38.97 -45 L38.537 -44.75" /></ns0:g><ns0:g transform="translate(78.1251,53.5156)" style="stroke-linecap:butt; fill:rgb(230,0,0); text-rendering:geometricPrecision; color-rendering:optimizeQuality; image-rendering:optimizeQuality; font-family:'Open Sans'; stroke:rgb(230,0,0); color-interpolation:linearRGB; stroke-miterlimit:5;"><ns0:path style="stroke:none;" d="M68.8905 -30.0703 Q68.8905 -28.0078 67.8514 -26.8281 Q66.8124 -25.6484 64.9686 -25.6484 Q63.078 -25.6484 62.0468 -26.8125 Q61.0155 -27.9766 61.0155 -30.0859 Q61.0155 -32.1797 62.0468 -33.3281 Q63.078 -34.4766 64.9686 -34.4766 Q66.828 -34.4766 67.8593 -33.3047 Q68.8905 -32.1328 68.8905 -30.0703 ZM62.0624 -30.0703 Q62.0624 -28.3359 62.8046 -27.4297 Q63.5468 -26.5234 64.9686 -26.5234 Q66.3905 -26.5234 67.1171 -27.4219 Q67.8436 -28.3203 67.8436 -30.0703 Q67.8436 -31.8047 67.1171 -32.6953 Q66.3905 -33.5859 64.9686 -33.5859 Q63.5468 -33.5859 62.8046 -32.6875 Q62.0624 -31.7891 62.0624 -30.0703 Z" /></ns0:g><ns0:g transform="matrix(1,0,0,1,79,52)" style="stroke-linecap:butt; fill:rgb(0,138,0); text-rendering:geometricPrecision; color-rendering:optimizeQuality; image-rendering:optimizeQuality; font-family:'Open Sans'; stroke:rgb(0,138,0); color-interpolation:linearRGB; stroke-miterlimit:5;"><ns0:path style="stroke:none;" d="M-13.2986 41.6406 Q-14.7048 41.6406 -15.5252 42.5781 Q-16.3455 43.5156 -16.3455 45.1562 Q-16.3455 46.8281 -15.5564 47.75 Q-14.7673 48.6719 -13.3142 48.6719 Q-12.408 48.6719 -11.2673 48.3438 L-11.2673 49.2188 Q-12.158 49.5625 -13.4548 49.5625 Q-15.3455 49.5625 -16.3767 48.4062 Q-17.408 47.25 -17.408 45.1406 Q-17.408 43.8125 -16.9158 42.8203 Q-16.4236 41.8281 -15.4861 41.2891 Q-14.5486 40.75 -13.283 40.75 Q-11.9392 40.75 -10.9236 41.2344 L-11.3455 42.0938 Q-12.3298 41.6406 -13.2986 41.6406 ZM-8.572 49.4375 L-9.5408 49.4375 L-9.5408 40.3125 L-8.572 40.3125 L-8.572 49.4375 Z" /><ns0:path style="fill:rgb(230,0,0); stroke:none;" d="M-61.0155 -45.0703 Q-61.0155 -43.0078 -62.0546 -41.8281 Q-63.0936 -40.6484 -64.9374 -40.6484 Q-66.828 -40.6484 -67.8593 -41.8125 Q-68.8905 -42.9766 -68.8905 -45.0859 Q-68.8905 -47.1797 -67.8593 -48.3281 Q-66.828 -49.4766 -64.9374 -49.4766 Q-63.078 -49.4766 -62.0468 -48.3047 Q-61.0155 -47.1328 -61.0155 -45.0703 ZM-67.8436 -45.0703 Q-67.8436 -43.3359 -67.1014 -42.4297 Q-66.3593 -41.5234 -64.9374 -41.5234 Q-63.5155 -41.5234 -62.7889 -42.4219 Q-62.0624 -43.3203 -62.0624 -45.0703 Q-62.0624 -46.8047 -62.7889 -47.6953 Q-63.5155 -48.5859 -64.9374 -48.5859 Q-66.3593 -48.5859 -67.1014 -47.6875 Q-67.8436 -46.7891 -67.8436 -45.0703 Z" /><ns0:path style="fill:rgb(230,0,0); stroke:none;" d="M-69.8905 -40.7734 L-70.8905 -40.7734 L-70.8905 -44.8047 L-75.4061 -44.8047 L-75.4061 -40.7734 L-76.4061 -40.7734 L-76.4061 -49.3359 L-75.4061 -49.3359 L-75.4061 -45.6953 L-70.8905 -45.6953 L-70.8905 -49.3359 L-69.8905 -49.3359 L-69.8905 -40.7734 Z" /><ns0:path style="fill:none; stroke:black;" d="M12.99 -29.5 L12.99 -30 L13.423 -30.25" /><ns0:path style="fill:none; stroke:black;" d="M12.99 -0.5 L12.99 0 L12.557 0.25" /><ns0:path style="fill:none; stroke:black;" d="M-12.557 -44.75 L-12.99 -45 L-13.423 -44.75" /><ns0:path style="fill:none; stroke:black;" d="M-13.423 14.75 L-12.99 15 L-12.557 14.75" /><ns0:path style="fill:none; stroke:black;" d="M-38.537 -30.25 L-38.97 -30 L-38.97 -29.5" /><ns0:path style="fill:none; stroke:black;" d="M-38.537 0.25 L-38.97 0 L-38.97 -0.5" /></ns0:g></ns0:g></ns0:svg></ns0:svg></ns0:svg></ns0:svg></g></svg>