<svg xmlns:ns0="http://www.w3.org/2000/svg" xmlns="http://www.w3.org/2000/svg"><g transform="translate(0, 0)"><ns0:svg width="293" viewBox="0 0 293 243" style="fill-opacity:1; color-rendering:auto; color-interpolation:auto; text-rendering:auto; stroke:black; stroke-linecap:square; stroke-miterlimit:10; shape-rendering:auto; stroke-opacity:1; fill:black; stroke-dasharray:none; font-weight:normal; stroke-width:1; font-family:'Open Sans'; font-style:normal; stroke-linejoin:miter; font-size:12; stroke-dashoffset:0; image-rendering:auto;" height="243" class="cas-substance-image"><ns0:svg class="cas-substance-single-component"><ns0:rect y="0" x="0" width="293" stroke="none" ry="7" rx="7" height="243" fill="white" class="cas-substance-group" /><ns0:svg y="0" x="0" width="293" viewBox="0 0 293 228" style="fill:black;" height="228" class="cas-substance-single-component-image"><ns0:svg><ns0:g><ns0:g transform="translate(150,114)" style="text-rendering:geometricPrecision; color-rendering:optimizeQuality; color-interpolation:linearRGB; stroke-linecap:butt; image-rendering:optimizeQuality;"><ns0:line y2="-2.526" y1="13.5932" x2="56.898" x1="42.384" style="fill:none;" /><ns0:line y2="-78.8823" y1="-101.3197" x2="50.5883" x1="60.5765" style="fill:none;" /><ns0:line y2="-77.4586" y1="-99.8963" x2="53.7856" x1="63.774" style="fill:none;" /><ns0:line y2="-47.115" y1="-64.3398" x2="97.047" x1="112.5544" style="fill:none;" /><ns0:line y2="3.711" y1="26.0768" x2="86.244" x1="93.5103" style="fill:none;" /><ns0:line y2="61.74" y1="75.4513" x2="-57.72" x1="-81.468" style="fill:none;" /><ns0:line y2="61.74" y1="75.4513" x2="-5.757" x1="17.991" style="fill:none;" /><ns0:line y2="-28.26" y1="-14.5486" x2="-109.68" x1="-133.4309" style="fill:none;" /><ns0:line y2="-73.26" y1="-97.1037" x2="-83.7" x1="-83.7" style="fill:none;" /><ns0:line y2="-18.585" y1="-13.7004" x2="106.317" x1="129.2888" style="fill:none;" /><ns0:line y2="76.74" y1="100.2634" x2="-31.74" x1="-31.74" style="fill:none;" /><ns0:line y2="-58.26" y1="-70.0816" x2="-109.68" x1="-130.1574" style="fill:none;" /><ns0:line y2="-31.059" y1="-28.26" x2="47.628" x1="-5.757" style="fill:none;" /><ns0:line y2="16.74" y1="-28.26" x2="-31.74" x1="-5.757" style="fill:none;" /><ns0:line y2="-28.26" y1="-28.26" x2="-57.72" x1="-5.757" style="fill:none;" /><ns0:line y2="-67.6854" y1="-28.26" x2="19.8451" x1="-5.757" style="fill:none;" /><ns0:line y2="-53.352" y1="-31.059" x2="67.704" x1="47.628" style="fill:none;" /><ns0:line y2="-2.526" y1="-31.059" x2="56.898" x1="47.628" style="fill:none;" /><ns0:line y2="-5.5293" y1="-30.2186" x2="59.6023" x1="51.5811" style="fill:none;" /><ns0:line y2="31.74" y1="16.74" x2="-57.72" x1="-31.74" style="fill:none;" /><ns0:line y2="31.74" y1="16.74" x2="-5.757" x1="-31.74" style="fill:none;" /><ns0:line y2="33.7609" y1="20.7815" x2="-9.2569" x1="-31.7398" style="fill:none;" /><ns0:line y2="-13.26" y1="-28.26" x2="-83.7" x1="-57.72" style="fill:none;" /><ns0:line y2="-58.26" y1="-28.26" x2="-57.72" x1="-57.72" style="fill:none;" /><ns0:line y2="-56.2393" y1="-30.2807" x2="-61.22" x1="-61.22" style="fill:none;" /><ns0:line y2="-79.332" y1="-74.3476" x2="52.704" x1="29.2518" style="fill:none;" /><ns0:line y2="-79.332" y1="-53.352" x2="52.704" x1="67.704" style="fill:none;" /><ns0:line y2="-47.115" y1="-53.352" x2="97.047" x1="67.704" style="fill:none;" /><ns0:line y2="-44.1116" y1="-49.5084" x2="94.3427" x1="68.9529" style="fill:none;" /><ns0:line y2="3.711" y1="-2.526" x2="86.244" x1="56.898" style="fill:none;" /><ns0:line y2="19.9186" y1="31.74" x2="-78.1946" x1="-57.72" style="fill:none;" /><ns0:line y2="61.74" y1="31.74" x2="-57.72" x1="-57.72" style="fill:none;" /><ns0:line y2="59.7193" y1="33.7607" x2="-54.22" x1="-54.22" style="fill:none;" /><ns0:line y2="61.74" y1="31.74" x2="-5.757" x1="-5.757" style="fill:none;" /><ns0:line y2="10.2634" y1="-13.26" x2="-83.7" x1="-83.7" style="fill:none;" /><ns0:line y2="-28.26" y1="-13.26" x2="-109.68" x1="-83.7" style="fill:none;" /><ns0:line y2="-30.2807" y1="-17.3015" x2="-106.18" x1="-83.6999" style="fill:none;" /><ns0:line y2="-73.26" y1="-58.26" x2="-83.7" x1="-57.72" style="fill:none;" /><ns0:line y2="-18.585" y1="-47.115" x2="106.317" x1="97.047" style="fill:none;" /><ns0:line y2="-18.585" y1="3.711" x2="106.317" x1="86.244" style="fill:none;" /><ns0:line y2="-19.425" y1="-0.1326" x2="102.3638" x1="84.9949" style="fill:none;" /><ns0:line y2="76.74" y1="61.74" x2="-31.74" x1="-57.72" style="fill:none;" /><ns0:line y2="76.74" y1="61.74" x2="-31.74" x1="-5.757" style="fill:none;" /><ns0:line y2="72.6986" y1="59.7191" x2="-31.7398" x1="-9.2569" style="fill:none;" /><ns0:line y2="-58.26" y1="-28.26" x2="-109.68" x1="-109.68" style="fill:none;" /><ns0:line y2="-58.26" y1="-73.26" x2="-109.68" x1="-83.7" style="fill:none;" /><ns0:line y2="-56.2393" y1="-69.2185" x2="-106.18" x1="-83.6999" style="fill:none;" /></ns0:g><ns0:g transform="translate(150,114)" style="fill:rgb(0,138,0); text-rendering:geometricPrecision; color-rendering:optimizeQuality; image-rendering:optimizeQuality; font-family:'Open Sans'; stroke:rgb(0,138,0); color-interpolation:linearRGB;"><ns0:path style="stroke:none;" d="M36.5164 16.4076 Q35.1102 16.4076 34.2898 17.3451 Q33.4695 18.2826 33.4695 19.9233 Q33.4695 21.5951 34.2586 22.517 Q35.0477 23.4389 36.5008 23.4389 Q37.407 23.4389 38.5477 23.1108 L38.5477 23.9858 Q37.657 24.3295 36.3602 24.3295 Q34.4695 24.3295 33.4383 23.1733 Q32.407 22.017 32.407 19.9076 Q32.407 18.5795 32.8992 17.5873 Q33.3914 16.5951 34.3289 16.0561 Q35.2664 15.517 36.532 15.517 Q37.8758 15.517 38.8914 16.0014 L38.4695 16.8608 Q37.4852 16.4076 36.5164 16.4076 ZM41.243 24.2045 L40.2742 24.2045 L40.2742 15.0795 L41.243 15.0795 L41.243 24.2045 Z" /><ns0:path style="fill:rgb(230,0,0); stroke:none;" d="M68.8425 -106.8103 Q68.8425 -104.7478 67.8034 -103.5681 Q66.7644 -102.3884 64.9206 -102.3884 Q63.03 -102.3884 61.9987 -103.5525 Q60.9675 -104.7166 60.9675 -106.8259 Q60.9675 -108.9197 61.9987 -110.0681 Q63.03 -111.2166 64.9206 -111.2166 Q66.78 -111.2166 67.8112 -110.0447 Q68.8425 -108.8728 68.8425 -106.8103 ZM62.0144 -106.8103 Q62.0144 -105.0759 62.7566 -104.1697 Q63.4987 -103.2634 64.9206 -103.2634 Q66.3425 -103.2634 67.0691 -104.1619 Q67.7956 -105.0603 67.7956 -106.8103 Q67.7956 -108.5447 67.0691 -109.4353 Q66.3425 -110.3259 64.9206 -110.3259 Q63.4987 -110.3259 62.7566 -109.4275 Q62.0144 -108.5291 62.0144 -106.8103 Z" /><ns0:path style="stroke:none;" d="M116.8114 -72.7704 Q115.4052 -72.7704 114.5848 -71.8329 Q113.7645 -70.8954 113.7645 -69.2547 Q113.7645 -67.5829 114.5536 -66.661 Q115.3427 -65.7391 116.7958 -65.7391 Q117.702 -65.7391 118.8427 -66.0672 L118.8427 -65.1922 Q117.952 -64.8485 116.6552 -64.8485 Q114.7645 -64.8485 113.7333 -66.0047 Q112.702 -67.161 112.702 -69.2704 Q112.702 -70.5985 113.1942 -71.5907 Q113.6864 -72.5829 114.6239 -73.1219 Q115.5614 -73.661 116.827 -73.661 Q118.1708 -73.661 119.1864 -73.1766 L118.7645 -72.3172 Q117.7802 -72.7704 116.8114 -72.7704 ZM121.538 -64.9735 L120.5692 -64.9735 L120.5692 -74.0985 L121.538 -74.0985 L121.538 -64.9735 Z" /><ns0:path style="stroke:none;" d="M95.2054 28.8846 Q93.7992 28.8846 92.9788 29.8221 Q92.1585 30.7596 92.1585 32.4002 Q92.1585 34.0721 92.9476 34.994 Q93.7367 35.9159 95.1898 35.9159 Q96.096 35.9159 97.2367 35.5877 L97.2367 36.4627 Q96.346 36.8065 95.0492 36.8065 Q93.1585 36.8065 92.1273 35.6502 Q91.096 34.494 91.096 32.3846 Q91.096 31.0565 91.5882 30.0643 Q92.0804 29.0721 93.0179 28.5331 Q93.9554 27.994 95.221 27.994 Q96.5648 27.994 97.5804 28.4784 L97.1585 29.3377 Q96.1742 28.8846 95.2054 28.8846 ZM99.932 36.6815 L98.9632 36.6815 L98.9632 27.5565 L99.932 27.5565 L99.932 36.6815 Z" /><ns0:path style="stroke:none;" d="M-84.2 80.8963 L-84.2 72.3338 L-83.2 72.3338 L-83.2 80.8963 L-84.2 80.8963 Z" /><ns0:path style="stroke:none;" d="M19.723 80.8963 L19.723 72.3338 L20.723 72.3338 L20.723 80.8963 L19.723 80.8963 Z" /><ns0:path style="stroke:none;" d="M-136.163 -9.1038 L-136.163 -17.6663 L-135.163 -17.6663 L-135.163 -9.1038 L-136.163 -9.1038 Z" /><ns0:path style="stroke:none;" d="M-84.2 -99.1037 L-84.2 -107.6662 L-83.2 -107.6662 L-83.2 -99.1037 L-84.2 -99.1037 Z" /><ns0:path style="stroke:none;" d="M135.3544 -15.7044 Q133.9482 -15.7044 133.1278 -14.7669 Q132.3075 -13.8294 132.3075 -12.1888 Q132.3075 -10.5169 133.0966 -9.595 Q133.8857 -8.6731 135.3388 -8.6731 Q136.245 -8.6731 137.3857 -9.0013 L137.3857 -8.1263 Q136.495 -7.7825 135.1982 -7.7825 Q133.3075 -7.7825 132.2763 -8.9388 Q131.245 -10.095 131.245 -12.2044 Q131.245 -13.5325 131.7372 -14.5247 Q132.2294 -15.5169 133.1669 -16.0559 Q134.1044 -16.595 135.37 -16.595 Q136.7138 -16.595 137.7294 -16.1106 L137.3075 -15.2513 Q136.3232 -15.7044 135.3544 -15.7044 ZM140.081 -7.9075 L139.1122 -7.9075 L139.1122 -17.0325 L140.081 -17.0325 L140.081 -7.9075 Z" /><ns0:path style="fill:rgb(230,0,0); stroke:none;" d="M-27.8025 106.6697 Q-27.8025 108.7322 -28.8416 109.9119 Q-29.8806 111.0916 -31.7244 111.0916 Q-33.615 111.0916 -34.6462 109.9275 Q-35.6775 108.7634 -35.6775 106.6541 Q-35.6775 104.5603 -34.6462 103.4119 Q-33.615 102.2634 -31.7244 102.2634 Q-29.865 102.2634 -28.8337 103.4353 Q-27.8025 104.6072 -27.8025 106.6697 ZM-34.6306 106.6697 Q-34.6306 108.4041 -33.8884 109.3103 Q-33.1462 110.2166 -31.7244 110.2166 Q-30.3025 110.2166 -29.5759 109.3181 Q-28.8494 108.4197 -28.8494 106.6697 Q-28.8494 104.9353 -29.5759 104.0447 Q-30.3025 103.1541 -31.7244 103.1541 Q-33.1462 103.1541 -33.8884 104.0525 Q-34.6306 104.9509 -34.6306 106.6697 Z" /><ns0:path style="fill:rgb(230,0,0); stroke:none;" d="M-20.2869 110.9666 L-21.2869 110.9666 L-21.2869 106.9353 L-25.8025 106.9353 L-25.8025 110.9666 L-26.8025 110.9666 L-26.8025 102.4041 L-25.8025 102.4041 L-25.8025 106.0447 L-21.2869 106.0447 L-21.2869 102.4041 L-20.2869 102.4041 L-20.2869 110.9666 Z" /><ns0:path style="fill:rgb(230,0,0); stroke:none;" d="M-131.7255 -73.3303 Q-131.7255 -71.2678 -132.7646 -70.0881 Q-133.8036 -68.9084 -135.6474 -68.9084 Q-137.538 -68.9084 -138.5692 -70.0725 Q-139.6005 -71.2366 -139.6005 -73.3459 Q-139.6005 -75.4397 -138.5692 -76.5881 Q-137.538 -77.7366 -135.6474 -77.7366 Q-133.788 -77.7366 -132.7567 -76.5647 Q-131.7255 -75.3928 -131.7255 -73.3303 ZM-138.5536 -73.3303 Q-138.5536 -71.5959 -137.8114 -70.6897 Q-137.0692 -69.7834 -135.6474 -69.7834 Q-134.2255 -69.7834 -133.4989 -70.6819 Q-132.7724 -71.5803 -132.7724 -73.3303 Q-132.7724 -75.0647 -133.4989 -75.9553 Q-134.2255 -76.8459 -135.6474 -76.8459 Q-137.0692 -76.8459 -137.8114 -75.9475 Q-138.5536 -75.0491 -138.5536 -73.3303 Z" /><ns0:path style="fill:rgb(230,0,0); stroke:none;" d="M-140.6005 -69.0334 L-141.6005 -69.0334 L-141.6005 -73.0647 L-146.1161 -73.0647 L-146.1161 -69.0334 L-147.1161 -69.0334 L-147.1161 -77.5959 L-146.1161 -77.5959 L-146.1161 -73.9553 L-141.6005 -73.9553 L-141.6005 -77.5959 L-140.6005 -77.5959 L-140.6005 -69.0334 Z" /></ns0:g><ns0:g transform="translate(150,114)" style="stroke-linecap:butt; text-rendering:geometricPrecision; color-rendering:optimizeQuality; image-rendering:optimizeQuality; font-family:'Open Sans'; color-interpolation:linearRGB; stroke-miterlimit:5;"><ns0:path style="fill:none;" d="M47.7825 -30.5835 L47.628 -31.059 L47.9626 -31.4305" /><ns0:path style="fill:none;" d="M-31.307 16.99 L-31.74 16.74 L-31.49 16.307" /><ns0:path style="fill:none;" d="M-57.72 -28.76 L-57.72 -28.26 L-58.153 -28.01" /><ns0:path style="fill:rgb(230,0,0); stroke:none;" d="M27.2955 -73.1653 Q27.2955 -71.1028 26.2564 -69.9231 Q25.2174 -68.7434 23.3736 -68.7434 Q21.483 -68.7434 20.4517 -69.9075 Q19.4205 -71.0716 19.4205 -73.1809 Q19.4205 -75.2747 20.4517 -76.4231 Q21.483 -77.5716 23.3736 -77.5716 Q25.233 -77.5716 26.2642 -76.3997 Q27.2955 -75.2278 27.2955 -73.1653 ZM20.4674 -73.1653 Q20.4674 -71.4309 21.2096 -70.5247 Q21.9517 -69.6184 23.3736 -69.6184 Q24.7955 -69.6184 25.5221 -70.5169 Q26.2486 -71.4153 26.2486 -73.1653 Q26.2486 -74.8997 25.5221 -75.7903 Q24.7955 -76.6809 23.3736 -76.6809 Q21.9517 -76.6809 21.2096 -75.7825 Q20.4674 -74.8841 20.4674 -73.1653 Z" /><ns0:path style="fill:none;" d="M68.1931 -53.248 L67.704 -53.352 L67.454 -53.785" /><ns0:path style="fill:none;" d="M56.7435 -3.0015 L56.898 -2.526 L57.3871 -2.4221" /><ns0:path style="fill:none;" d="M-57.72 32.24 L-57.72 31.74 L-58.153 31.49" /><ns0:path style="fill:none;" d="M-6.19 31.49 L-5.757 31.74 L-5.757 32.24" /><ns0:path style="fill:none;" d="M-84.133 -13.51 L-83.7 -13.26 L-83.267 -13.51" /><ns0:path style="fill:none;" d="M-57.72 -57.76 L-57.72 -58.26 L-58.153 -58.51" /><ns0:path style="fill:none;" d="M52.2149 -79.2281 L52.704 -79.332 L52.954 -78.899" /><ns0:path style="fill:none;" d="M96.5579 -47.219 L97.047 -47.115 L97.2015 -46.6395" /><ns0:path style="fill:none;" d="M86.5785 3.3394 L86.244 3.711 L85.7549 3.6071" /><ns0:path style="fill:rgb(230,0,0); stroke:none;" d="M-79.7625 16.6697 Q-79.7625 18.7322 -80.8016 19.9119 Q-81.8406 21.0916 -83.6844 21.0916 Q-85.575 21.0916 -86.6062 19.9275 Q-87.6375 18.7634 -87.6375 16.6541 Q-87.6375 14.5603 -86.6062 13.4119 Q-85.575 12.2634 -83.6844 12.2634 Q-81.825 12.2634 -80.7937 13.4353 Q-79.7625 14.6072 -79.7625 16.6697 ZM-86.5906 16.6697 Q-86.5906 18.4041 -85.8484 19.3103 Q-85.1062 20.2166 -83.6844 20.2166 Q-82.2625 20.2166 -81.5359 19.3181 Q-80.8094 18.4197 -80.8094 16.6697 Q-80.8094 14.9353 -81.5359 14.0447 Q-82.2625 13.1541 -83.6844 13.1541 Q-85.1062 13.1541 -85.8484 14.0525 Q-86.5906 14.9509 -86.5906 16.6697 Z" /><ns0:path style="fill:none;" d="M-57.72 61.24 L-57.72 61.74 L-57.287 61.99" /><ns0:path style="fill:none;" d="M-6.19 61.99 L-5.757 61.74 L-5.757 61.24" /><ns0:path style="fill:none;" d="M-109.247 -28.01 L-109.68 -28.26 L-109.68 -28.76" /><ns0:path style="fill:none;" d="M-84.133 -73.01 L-83.7 -73.26 L-83.7 -73.76" /><ns0:path style="fill:none;" d="M105.9825 -18.2134 L106.317 -18.585 L106.8061 -18.481" /><ns0:path style="fill:none;" d="M-31.307 76.49 L-31.74 76.74 L-31.74 77.24" /><ns0:path style="fill:none;" d="M-109.247 -58.51 L-109.68 -58.26 L-110.113 -58.51" /></ns0:g></ns0:g></ns0:svg></ns0:svg><ns0:svg y="228" x="123" class="cas-substance-saf"><ns0:svg y="5" x="0" width="4" style="fill:black;" height="4" class="cas-substance-saf-dot"><ns0:circle stroke="none" r="2" fill="black" cy="2" cx="2" /></ns0:svg><ns0:svg y="0" x="7" width="12" style="fill:black;" height="15" class="cas-substance-saf-coefficient"><ns0:svg><ns0:g><ns0:g transform="translate(6,7)" style="text-rendering:geometricPrecision; font-family:'Open Sans'; color-interpolation:linearRGB; color-rendering:optimizeQuality; image-rendering:optimizeQuality;"><ns0:path style="stroke:none;" d="M2.8125 4.2188 L-2.8125 4.2188 L-2.8125 3.375 L-0.5625 1.1094 Q0.4688 0.0625 0.7969 -0.3828 Q1.125 -0.8281 1.2891 -1.25 Q1.4531 -1.6719 1.4531 -2.1562 Q1.4531 -2.8438 1.0391 -3.2422 Q0.625 -3.6406 -0.125 -3.6406 Q-0.6562 -3.6406 -1.1328 -3.4609 Q-1.6094 -3.2812 -2.1875 -2.8281 L-2.7031 -3.4844 Q-1.5312 -4.4688 -0.125 -4.4688 Q1.0781 -4.4688 1.7656 -3.8516 Q2.4531 -3.2344 2.4531 -2.1875 Q2.4531 -1.375 1.9922 -0.5781 Q1.5312 0.2188 0.2812 1.4375 L-1.5938 3.2656 L-1.5938 3.3125 L2.8125 3.3125 L2.8125 4.2188 Z" /></ns0:g></ns0:g></ns0:svg></ns0:svg><ns0:svg y="0" x="23" width="20" style="fill:black;" height="15" class="cas-substance-saf-image"><ns0:svg><ns0:g><ns0:g transform="translate(10,7)" style="text-rendering:geometricPrecision; font-family:'Open Sans'; color-interpolation:linearRGB; color-rendering:optimizeQuality; image-rendering:optimizeQuality;"><ns0:path style="stroke:none;" d="M-0.0859 4.1562 L-1.2266 4.1562 L-5.9141 -3.0312 L-5.9609 -3.0312 Q-5.8672 -1.7656 -5.8672 -0.7188 L-5.8672 4.1562 L-6.7891 4.1562 L-6.7891 -4.4062 L-5.6641 -4.4062 L-0.9922 2.75 L-0.9453 2.75 Q-0.9453 2.5938 -0.9922 1.7344 Q-1.0391 0.875 -1.0234 0.5 L-1.0234 -4.4062 L-0.0859 -4.4062 L-0.0859 4.1562 ZM6.0703 4.1562 L5.8672 3.2344 L5.8203 3.2344 Q5.3516 3.8438 4.875 4.0625 Q4.3984 4.2812 3.6797 4.2812 Q2.7266 4.2812 2.1797 3.7812 Q1.6328 3.2812 1.6328 2.375 Q1.6328 0.4375 4.7422 0.3438 L5.8359 0.3125 L5.8359 -0.0938 Q5.8359 -0.8438 5.5156 -1.2031 Q5.1953 -1.5625 4.4766 -1.5625 Q3.6641 -1.5625 2.6641 -1.0781 L2.3516 -1.8281 Q2.8359 -2.0781 3.3984 -2.2266 Q3.9609 -2.375 4.5391 -2.375 Q5.6797 -2.375 6.2344 -1.8672 Q6.7891 -1.3594 6.7891 -0.2344 L6.7891 4.1562 L6.0703 4.1562 ZM3.8672 3.4688 Q4.7734 3.4688 5.2969 2.9688 Q5.8203 2.4688 5.8203 1.5781 L5.8203 1 L4.8359 1.0312 Q3.6797 1.0781 3.1719 1.3984 Q2.6641 1.7188 2.6641 2.3906 Q2.6641 2.9219 2.9766 3.1953 Q3.2891 3.4688 3.8672 3.4688 Z" /></ns0:g></ns0:g></ns0:svg></ns0:svg></ns0:svg></ns0:svg></ns0:svg></g></svg>