<svg width="557" viewBox="0 0 557 326" style="fill-opacity:1; color-rendering:auto; color-interpolation:auto; text-rendering:auto; stroke:black; stroke-linecap:square; stroke-miterlimit:10; shape-rendering:auto; stroke-opacity:1; fill:black; stroke-dasharray:none; font-weight:normal; stroke-width:1; font-family:'Open Sans'; font-style:normal; stroke-linejoin:miter; font-size:12; stroke-dashoffset:0; image-rendering:auto;" height="326" class="cas-substance-image" xmlns:xlink="http://www.w3.org/1999/xlink" xmlns="http://www.w3.org/2000/svg"><svg class="cas-substance-single-component"><rect y="0" x="0" width="557" stroke="none" ry="7" rx="7" height="326" fill="white" class="cas-substance-group"/><svg y="0" x="0" width="557" viewBox="0 0 557 311" style="fill:black;" height="311" class="cas-substance-single-component-image"><svg><g><g transform="translate(278,155)" style="text-rendering:geometricPrecision; color-rendering:optimizeQuality; color-interpolation:linearRGB; stroke-linecap:butt; image-rendering:optimizeQuality;"><line y2="-62.01" y1="-38.4163" x2="-25.98" x1="-25.98" style="fill:none;"/><line y2="-62.01" y1="-38.4866" x2="25.98" x1="25.98" style="fill:none;"/><line y2="-38.4163" y1="-55.8537" x2="-79.693" x1="-79.693" style="fill:none;"/><line y2="-38.4163" y1="-55.8537" x2="-76.193" x1="-76.193" style="fill:none;"/><line y2="-77.01" y1="-64.9451" x2="-51.963" x1="-72.8594" style="fill:none;"/><line y2="-17.01" y1="-29.0749" x2="-103.923" x1="-83.0266" style="fill:none;"/><line y2="-38.4163" y1="-55.8537" x2="76.193" x1="76.193" style="fill:none;"/><line y2="-38.4163" y1="-55.8537" x2="79.693" x1="79.693" style="fill:none;"/><line y2="-77.01" y1="-64.9448" x2="51.96" x1="72.8594" style="fill:none;"/><line y2="-17.01" y1="-29.0749" x2="103.923" x1="83.0266" style="fill:none;"/><line y2="-143.2293" y1="-128.284" x2="67.7124" x1="76.3413" style="fill:none;"/><line y2="-141.4793" y1="-126.534" x2="64.6813" x1="73.3103" style="fill:none;"/><line y2="-100.8826" y1="-115.8414" x2="88.1205" x1="79.4838" style="fill:none;"/><line y2="-102.6326" y1="-117.5914" x2="91.1516" x1="82.5149" style="fill:none;"/><line y2="-133.8212" y1="-124.3881" x2="98.4" x1="82.0619" style="fill:none;"/><line y2="-107.01" y1="-119.4686" x2="51.96" x1="73.5407" style="fill:none;"/><line y2="-102.6267" y1="-117.3412" x2="-91.155" x1="-82.6593" style="fill:none;"/><line y2="-100.8767" y1="-115.5912" x2="-88.124" x1="-79.6283" style="fill:none;"/><line y2="-141.467" y1="-126.3116" x2="-64.6884" x1="-73.4386" style="fill:none;"/><line y2="-143.2171" y1="-128.0617" x2="-67.7195" x1="-76.4697" style="fill:none;"/><line y2="-133.8314" y1="-124.521" x2="-98.4176" x1="-82.2921" style="fill:none;"/><line y2="-107.01" y1="-119.4538" x2="-51.963" x1="-73.5156" style="fill:none;"/><line y2="42.99" y1="30.5317" x2="-207.846" x1="-186.2682" style="fill:none;"/><line y2="49.1174" y1="34.1586" x2="-171.6885" x1="-180.3252" style="fill:none;"/><line y2="47.3674" y1="32.4085" x2="-168.6574" x1="-177.2941" style="fill:none;"/><line y2="6.7707" y1="21.716" x2="-192.0966" x1="-183.4677" style="fill:none;"/><line y2="8.5207" y1="23.466" x2="-195.1277" x1="-186.4987" style="fill:none;"/><line y2="12.99" y1="25.6119" x2="-155.886" x1="-177.7471" style="fill:none;"/><line y2="72.99" y1="42.99" x2="-207.846" x1="-207.846" style="fill:none;"/><line y2="84.764" y1="72.99" x2="-228.2385" x1="-207.846" style="fill:none;"/><line y2="111.5213" y1="94.3416" x2="-233.826" x1="-233.826" style="fill:none;"/><line y2="141.5134" y1="124.3338" x2="-235.576" x1="-235.576" style="fill:none;"/><line y2="141.5134" y1="124.3338" x2="-232.076" x1="-232.076" style="fill:none;"/><line y2="119.74" y1="119.74" x2="-209.7635" x1="-229.265" style="fill:none;"/><line y2="116.24" y1="116.24" x2="-209.7635" x1="-229.265" style="fill:none;"/><line y2="117.99" y1="117.99" x2="-257.8885" x1="-238.4693" style="fill:none;"/><line y2="42.99" y1="30.5462" x2="207.846" x1="186.2934" style="fill:none;"/><line y2="47.3733" y1="32.6588" x2="168.654" x1="177.1497" style="fill:none;"/><line y2="49.1233" y1="34.4088" x2="171.685" x1="180.1807" style="fill:none;"/><line y2="8.533" y1="23.6884" x2="195.1206" x1="186.3704" style="fill:none;"/><line y2="6.7829" y1="21.9383" x2="192.0895" x1="183.3393" style="fill:none;"/><line y2="12.99" y1="25.479" x2="155.886" x1="177.5169" style="fill:none;"/><line y2="72.99" y1="42.99" x2="207.846" x1="207.846" style="fill:none;"/><line y2="84.7486" y1="72.99" x2="228.2119" x1="207.846" style="fill:none;"/><line y2="111.5213" y1="94.3416" x2="233.826" x1="233.826" style="fill:none;"/><line y2="141.5134" y1="124.3338" x2="232.076" x1="232.076" style="fill:none;"/><line y2="141.5134" y1="124.3338" x2="235.576" x1="235.576" style="fill:none;"/><line y2="116.24" y1="116.24" x2="209.7635" x1="229.1827" style="fill:none;"/><line y2="119.74" y1="119.74" x2="209.7635" x1="229.1827" style="fill:none;"/><line y2="117.99" y1="117.99" x2="257.8885" x1="238.387" style="fill:none;"/><line y2="-107.01" y1="-77.01" x2="0" x1="0" style="fill:none;"/><line y2="-104.9893" y1="-79.0307" x2="-3.5" x1="-3.5" style="fill:none;"/><line y2="-62.01" y1="-77.01" x2="-25.98" x1="0" style="fill:none;"/><line y2="-62.01" y1="-77.01" x2="25.98" x1="0" style="fill:none;"/><line y2="-122.01" y1="-107.01" x2="25.98" x1="0" style="fill:none;"/><line y2="-122.01" y1="-107.01" x2="-25.98" x1="0" style="fill:none;"/><line y2="-77.01" y1="-62.01" x2="-51.963" x1="-25.98" style="fill:none;"/><line y2="-79.0308" y1="-66.0514" x2="-48.4631" x1="-25.9802" style="fill:none;"/><line y2="-77.01" y1="-62.01" x2="51.96" x1="25.98" style="fill:none;"/><line y2="-79.0307" y1="-66.0515" x2="48.46" x1="25.9799" style="fill:none;"/><line y2="-107.01" y1="-122.01" x2="51.96" x1="25.98" style="fill:none;"/><line y2="-104.9893" y1="-117.9685" x2="48.46" x1="25.9799" style="fill:none;"/><line y2="-107.01" y1="-122.01" x2="-51.963" x1="-25.98" style="fill:none;"/><line y2="-104.9891" y1="-117.9685" x2="-48.4631" x1="-25.9802" style="fill:none;"/><line y2="-107.01" y1="-77.01" x2="-51.963" x1="-51.963" style="fill:none;"/><line y2="-107.01" y1="-77.01" x2="51.96" x1="51.96" style="fill:none;"/><line y2="-32.01" y1="-17.01" x2="-129.903" x1="-103.923" style="fill:none;"/><line y2="-27.9685" y1="-14.9893" x2="-129.9031" x1="-107.423" style="fill:none;"/><line y2="12.99" y1="-17.01" x2="-103.923" x1="-103.923" style="fill:none;"/><line y2="-17.01" y1="-32.01" x2="-155.886" x1="-129.903" style="fill:none;"/><line y2="27.99" y1="12.99" x2="-129.903" x1="-103.923" style="fill:none;"/><line y2="23.9485" y1="10.9693" x2="-129.9031" x1="-107.423" style="fill:none;"/><line y2="12.99" y1="-17.01" x2="-155.886" x1="-155.886" style="fill:none;"/><line y2="10.9693" y1="-14.9893" x2="-152.386" x1="-152.386" style="fill:none;"/><line y2="12.99" y1="27.99" x2="-155.886" x1="-129.903" style="fill:none;"/><line y2="-32.01" y1="-17.01" x2="129.903" x1="103.923" style="fill:none;"/><line y2="-27.9685" y1="-14.9893" x2="129.9031" x1="107.423" style="fill:none;"/><line y2="12.99" y1="-17.01" x2="103.923" x1="103.923" style="fill:none;"/><line y2="-17.01" y1="-32.01" x2="155.886" x1="129.903" style="fill:none;"/><line y2="27.99" y1="12.99" x2="129.903" x1="103.923" style="fill:none;"/><line y2="23.9485" y1="10.9693" x2="129.9031" x1="107.423" style="fill:none;"/><line y2="12.99" y1="-17.01" x2="155.886" x1="155.886" style="fill:none;"/><line y2="10.9693" y1="-14.9893" x2="152.386" x1="152.386" style="fill:none;"/><line y2="12.99" y1="27.99" x2="155.886" x1="129.903" style="fill:none;"/></g><g transform="translate(278,155)" style="fill:rgb(0,5,255); text-rendering:geometricPrecision; color-rendering:optimizeQuality; image-rendering:optimizeQuality; font-family:'Open Sans'; stroke:rgb(0,5,255); color-interpolation:linearRGB;"><path style="stroke:none;" d="M-22.6284 -27.8538 L-23.7691 -27.8538 L-28.4566 -35.0413 L-28.5034 -35.0413 Q-28.4097 -33.7756 -28.4097 -32.7288 L-28.4097 -27.8538 L-29.3316 -27.8538 L-29.3316 -36.4163 L-28.2066 -36.4163 L-23.5347 -29.26 L-23.4878 -29.26 Q-23.4878 -29.4163 -23.5347 -30.2756 Q-23.5816 -31.135 -23.5659 -31.51 L-23.5659 -36.4163 L-22.6284 -36.4163 L-22.6284 -27.8538 Z"/><path style="stroke:none;" d="M-15.1128 -27.8538 L-16.1128 -27.8538 L-16.1128 -31.885 L-20.6284 -31.885 L-20.6284 -27.8538 L-21.6284 -27.8538 L-21.6284 -36.4163 L-20.6284 -36.4163 L-20.6284 -32.7756 L-16.1128 -32.7756 L-16.1128 -36.4163 L-15.1128 -36.4163 L-15.1128 -27.8538 Z"/><path style="stroke:none;" d="M-10.3628 -26.0444 L-14.1128 -26.0444 L-14.1128 -26.6069 L-12.6128 -28.1225 Q-11.9253 -28.81 -11.7066 -29.1069 Q-11.4878 -29.4038 -11.3784 -29.685 Q-11.2691 -29.9663 -11.2691 -30.2944 Q-11.2691 -30.7475 -11.5425 -31.0131 Q-11.8159 -31.2788 -12.3159 -31.2788 Q-12.6597 -31.2788 -12.98 -31.1616 Q-13.3003 -31.0444 -13.6909 -30.7475 L-14.0347 -31.185 Q-13.2534 -31.8413 -12.3159 -31.8413 Q-11.5191 -31.8413 -11.0581 -31.4272 Q-10.5972 -31.0131 -10.5972 -30.3256 Q-10.5972 -29.7788 -10.9019 -29.2475 Q-11.2066 -28.7163 -12.0503 -27.9038 L-13.3003 -26.685 L-13.3003 -26.6538 L-10.3628 -26.6538 L-10.3628 -26.0444 Z"/><path style="fill:rgb(230,0,0); stroke:none;" d="M29.9175 -32.0803 Q29.9175 -30.0178 28.8784 -28.8381 Q27.8394 -27.6584 25.9956 -27.6584 Q24.105 -27.6584 23.0737 -28.8225 Q22.0425 -29.9866 22.0425 -32.0959 Q22.0425 -34.1897 23.0737 -35.3381 Q24.105 -36.4866 25.9956 -36.4866 Q27.855 -36.4866 28.8862 -35.3147 Q29.9175 -34.1428 29.9175 -32.0803 ZM23.0894 -32.0803 Q23.0894 -30.3459 23.8316 -29.4397 Q24.5737 -28.5334 25.9956 -28.5334 Q27.4175 -28.5334 28.1441 -29.4319 Q28.8706 -30.3303 28.8706 -32.0803 Q28.8706 -33.8147 28.1441 -34.7053 Q27.4175 -35.5959 25.9956 -35.5959 Q24.5737 -35.5959 23.8316 -34.6975 Q23.0894 -33.7991 23.0894 -32.0803 Z"/><path style="fill:rgb(230,0,0); stroke:none;" d="M37.4331 -27.7834 L36.4331 -27.7834 L36.4331 -31.8147 L31.9175 -31.8147 L31.9175 -27.7834 L30.9175 -27.7834 L30.9175 -36.3459 L31.9175 -36.3459 L31.9175 -32.7053 L36.4331 -32.7053 L36.4331 -36.3459 L37.4331 -36.3459 L37.4331 -27.7834 Z"/><path style="stroke:none;" d="M-74.5914 -57.8537 L-75.7321 -57.8537 L-80.4196 -65.0412 L-80.4664 -65.0412 Q-80.3727 -63.7756 -80.3727 -62.7287 L-80.3727 -57.8537 L-81.2946 -57.8537 L-81.2946 -66.4162 L-80.1696 -66.4162 L-75.4977 -59.26 L-75.4508 -59.26 Q-75.4508 -59.4162 -75.4977 -60.2756 Q-75.5446 -61.135 -75.5289 -61.51 L-75.5289 -66.4162 L-74.5914 -66.4162 L-74.5914 -57.8537 Z"/><path style="stroke:none;" d="M-74.5914 -27.8538 L-75.7321 -27.8538 L-80.4196 -35.0413 L-80.4664 -35.0413 Q-80.3727 -33.7756 -80.3727 -32.7288 L-80.3727 -27.8538 L-81.2946 -27.8538 L-81.2946 -36.4163 L-80.1696 -36.4163 L-75.4977 -29.26 L-75.4508 -29.26 Q-75.4508 -29.4163 -75.4977 -30.2756 Q-75.5446 -31.135 -75.5289 -31.51 L-75.5289 -36.4163 L-74.5914 -36.4163 L-74.5914 -27.8538 Z"/><path style="stroke:none;" d="M81.2946 -57.8537 L80.1539 -57.8537 L75.4664 -65.0412 L75.4196 -65.0412 Q75.5133 -63.7756 75.5133 -62.7287 L75.5133 -57.8537 L74.5914 -57.8537 L74.5914 -66.4162 L75.7164 -66.4162 L80.3883 -59.26 L80.4352 -59.26 Q80.4352 -59.4162 80.3883 -60.2756 Q80.3414 -61.135 80.3571 -61.51 L80.3571 -66.4162 L81.2946 -66.4162 L81.2946 -57.8537 Z"/><path style="stroke:none;" d="M81.2946 -27.8538 L80.1539 -27.8538 L75.4664 -35.0413 L75.4196 -35.0413 Q75.5133 -33.7756 75.5133 -32.7288 L75.5133 -27.8538 L74.5914 -27.8538 L74.5914 -36.4163 L75.7164 -36.4163 L80.3883 -29.26 L80.4352 -29.26 Q80.4352 -29.4163 80.3883 -30.2756 Q80.3414 -31.135 80.3571 -31.51 L80.3571 -36.4163 L81.2946 -36.4163 L81.2946 -27.8538 Z"/><path style="fill:rgb(148,108,0); stroke:none;" d="M80.6383 -120.0725 Q80.6383 -118.9475 79.818 -118.3069 Q78.9977 -117.6662 77.5914 -117.6662 Q76.0602 -117.6662 75.2477 -118.0725 L75.2477 -119.0256 Q75.7789 -118.8069 76.3961 -118.6741 Q77.0133 -118.5412 77.6227 -118.5412 Q78.6227 -118.5412 79.1227 -118.9241 Q79.6227 -119.3069 79.6227 -119.9787 Q79.6227 -120.4162 79.443 -120.7053 Q79.2633 -120.9944 78.8493 -121.2366 Q78.4352 -121.4787 77.5758 -121.7756 Q76.3883 -122.1975 75.8727 -122.7834 Q75.3571 -123.3694 75.3571 -124.3225 Q75.3571 -125.3069 76.0993 -125.8928 Q76.8414 -126.4787 78.0758 -126.4787 Q79.3414 -126.4787 80.4196 -126.01 L80.1071 -125.1506 Q79.0446 -125.5881 78.0446 -125.5881 Q77.2477 -125.5881 76.8024 -125.2522 Q76.3571 -124.9162 76.3571 -124.3069 Q76.3571 -123.8694 76.5211 -123.5803 Q76.6852 -123.2912 77.0758 -123.0569 Q77.4664 -122.8225 78.2789 -122.5256 Q79.6227 -122.0569 80.1305 -121.5022 Q80.6383 -120.9475 80.6383 -120.0725 Z"/><path style="fill:rgb(230,0,0); stroke:none;" d="M66.8805 -148.0603 Q66.8805 -145.9978 65.8414 -144.8181 Q64.8024 -143.6384 62.9586 -143.6384 Q61.068 -143.6384 60.0367 -144.8025 Q59.0055 -145.9666 59.0055 -148.0759 Q59.0055 -150.1697 60.0367 -151.3181 Q61.068 -152.4666 62.9586 -152.4666 Q64.818 -152.4666 65.8492 -151.2947 Q66.8805 -150.1228 66.8805 -148.0603 ZM60.0524 -148.0603 Q60.0524 -146.3259 60.7946 -145.4197 Q61.5367 -144.5134 62.9586 -144.5134 Q64.3805 -144.5134 65.1071 -145.4119 Q65.8336 -146.3103 65.8336 -148.0603 Q65.8336 -149.7947 65.1071 -150.6853 Q64.3805 -151.5759 62.9586 -151.5759 Q61.5367 -151.5759 60.7946 -150.6775 Q60.0524 -149.7791 60.0524 -148.0603 Z"/><path style="fill:rgb(230,0,0); stroke:none;" d="M96.8805 -96.1003 Q96.8805 -94.0378 95.8414 -92.8581 Q94.8024 -91.6784 92.9586 -91.6784 Q91.068 -91.6784 90.0368 -92.8425 Q89.0055 -94.0066 89.0055 -96.1159 Q89.0055 -98.2097 90.0368 -99.3581 Q91.068 -100.5066 92.9586 -100.5066 Q94.818 -100.5066 95.8493 -99.3347 Q96.8805 -98.1628 96.8805 -96.1003 ZM90.0524 -96.1003 Q90.0524 -94.3659 90.7946 -93.4597 Q91.5368 -92.5534 92.9586 -92.5534 Q94.3805 -92.5534 95.1071 -93.4519 Q95.8336 -94.3503 95.8336 -96.1003 Q95.8336 -97.8347 95.1071 -98.7253 Q94.3805 -99.6159 92.9586 -99.6159 Q91.5368 -99.6159 90.7946 -98.7175 Q90.0524 -97.8191 90.0524 -96.1003 Z"/><path style="fill:rgb(230,0,0); stroke:none;" d="M107.8605 -137.0803 Q107.8605 -135.0178 106.8214 -133.8381 Q105.7824 -132.6584 103.9386 -132.6584 Q102.048 -132.6584 101.0167 -133.8225 Q99.9855 -134.9866 99.9855 -137.0959 Q99.9855 -139.1897 101.0167 -140.3381 Q102.048 -141.4866 103.9386 -141.4866 Q105.798 -141.4866 106.8292 -140.3147 Q107.8605 -139.1428 107.8605 -137.0803 ZM101.0324 -137.0803 Q101.0324 -135.3459 101.7746 -134.4397 Q102.5167 -133.5334 103.9386 -133.5334 Q105.3605 -133.5334 106.0871 -134.4319 Q106.8136 -135.3303 106.8136 -137.0803 Q106.8136 -138.8147 106.0871 -139.7053 Q105.3605 -140.5959 103.9386 -140.5959 Q102.5167 -140.5959 101.7746 -139.6975 Q101.0324 -138.7991 101.0324 -137.0803 Z"/><path style="fill:rgb(230,0,0); stroke:none;" d="M115.3761 -132.7834 L114.3761 -132.7834 L114.3761 -136.8147 L109.8605 -136.8147 L109.8605 -132.7834 L108.8605 -132.7834 L108.8605 -141.3459 L109.8605 -141.3459 L109.8605 -137.7053 L114.3761 -137.7053 L114.3761 -141.3459 L115.3761 -141.3459 L115.3761 -132.7834 Z"/><path style="fill:rgb(148,108,0); stroke:none;" d="M-75.2477 -120.0725 Q-75.2477 -118.9475 -76.068 -118.3069 Q-76.8883 -117.6662 -78.2946 -117.6662 Q-79.8258 -117.6662 -80.6383 -118.0725 L-80.6383 -119.0256 Q-80.1071 -118.8069 -79.4899 -118.6741 Q-78.8727 -118.5412 -78.2633 -118.5412 Q-77.2633 -118.5412 -76.7633 -118.9241 Q-76.2633 -119.3069 -76.2633 -119.9787 Q-76.2633 -120.4162 -76.443 -120.7053 Q-76.6227 -120.9944 -77.0368 -121.2366 Q-77.4508 -121.4787 -78.3102 -121.7756 Q-79.4977 -122.1975 -80.0133 -122.7834 Q-80.5289 -123.3694 -80.5289 -124.3225 Q-80.5289 -125.3069 -79.7868 -125.8928 Q-79.0446 -126.4787 -77.8102 -126.4787 Q-76.5446 -126.4787 -75.4664 -126.01 L-75.7789 -125.1506 Q-76.8414 -125.5881 -77.8414 -125.5881 Q-78.6383 -125.5881 -79.0836 -125.2522 Q-79.5289 -124.9162 -79.5289 -124.3069 Q-79.5289 -123.8694 -79.3649 -123.5803 Q-79.2008 -123.2912 -78.8102 -123.0569 Q-78.4196 -122.8225 -77.6071 -122.5256 Q-76.2633 -122.0569 -75.7555 -121.5022 Q-75.2477 -120.9475 -75.2477 -120.0725 Z"/><path style="fill:rgb(230,0,0); stroke:none;" d="M-89.0055 -96.1003 Q-89.0055 -94.0378 -90.0446 -92.8581 Q-91.0836 -91.6784 -92.9274 -91.6784 Q-94.818 -91.6784 -95.8493 -92.8425 Q-96.8805 -94.0066 -96.8805 -96.1159 Q-96.8805 -98.2097 -95.8493 -99.3581 Q-94.818 -100.5066 -92.9274 -100.5066 Q-91.068 -100.5066 -90.0368 -99.3347 Q-89.0055 -98.1628 -89.0055 -96.1003 ZM-95.8336 -96.1003 Q-95.8336 -94.3659 -95.0914 -93.4597 Q-94.3493 -92.5534 -92.9274 -92.5534 Q-91.5055 -92.5534 -90.7789 -93.4519 Q-90.0524 -94.3503 -90.0524 -96.1003 Q-90.0524 -97.8347 -90.7789 -98.7253 Q-91.5055 -99.6159 -92.9274 -99.6159 Q-94.3493 -99.6159 -95.0914 -98.7175 Q-95.8336 -97.8191 -95.8336 -96.1003 Z"/><path style="fill:rgb(230,0,0); stroke:none;" d="M-59.0055 -148.0603 Q-59.0055 -145.9978 -60.0446 -144.8181 Q-61.0836 -143.6384 -62.9274 -143.6384 Q-64.818 -143.6384 -65.8492 -144.8025 Q-66.8805 -145.9666 -66.8805 -148.0759 Q-66.8805 -150.1697 -65.8492 -151.3181 Q-64.818 -152.4666 -62.9274 -152.4666 Q-61.068 -152.4666 -60.0367 -151.2947 Q-59.0055 -150.1228 -59.0055 -148.0603 ZM-65.8336 -148.0603 Q-65.8336 -146.3259 -65.0914 -145.4197 Q-64.3492 -144.5134 -62.9274 -144.5134 Q-61.5055 -144.5134 -60.7789 -145.4119 Q-60.0524 -146.3103 -60.0524 -148.0603 Q-60.0524 -149.7947 -60.7789 -150.6853 Q-61.5055 -151.5759 -62.9274 -151.5759 Q-64.3492 -151.5759 -65.0914 -150.6775 Q-65.8336 -149.7791 -65.8336 -148.0603 Z"/><path style="fill:rgb(230,0,0); stroke:none;" d="M-99.9855 -137.0803 Q-99.9855 -135.0178 -101.0246 -133.8381 Q-102.0636 -132.6584 -103.9074 -132.6584 Q-105.798 -132.6584 -106.8292 -133.8225 Q-107.8605 -134.9866 -107.8605 -137.0959 Q-107.8605 -139.1897 -106.8292 -140.3381 Q-105.798 -141.4866 -103.9074 -141.4866 Q-102.048 -141.4866 -101.0167 -140.3147 Q-99.9855 -139.1428 -99.9855 -137.0803 ZM-106.8136 -137.0803 Q-106.8136 -135.3459 -106.0714 -134.4397 Q-105.3292 -133.5334 -103.9074 -133.5334 Q-102.4855 -133.5334 -101.7589 -134.4319 Q-101.0324 -135.3303 -101.0324 -137.0803 Q-101.0324 -138.8147 -101.7589 -139.7053 Q-102.4855 -140.5959 -103.9074 -140.5959 Q-105.3292 -140.5959 -106.0714 -139.6975 Q-106.8136 -138.7991 -106.8136 -137.0803 Z"/><path style="fill:rgb(230,0,0); stroke:none;" d="M-108.8605 -132.7834 L-109.8605 -132.7834 L-109.8605 -136.8147 L-114.3761 -136.8147 L-114.3761 -132.7834 L-115.3761 -132.7834 L-115.3761 -141.3459 L-114.3761 -141.3459 L-114.3761 -137.7053 L-109.8605 -137.7053 L-109.8605 -141.3459 L-108.8605 -141.3459 L-108.8605 -132.7834 Z"/><path style="fill:rgb(148,108,0); stroke:none;" d="M-179.1707 29.9275 Q-179.1707 31.0525 -179.991 31.6931 Q-180.8113 32.3338 -182.2176 32.3338 Q-183.7488 32.3338 -184.5613 31.9275 L-184.5613 30.9744 Q-184.0301 31.1931 -183.4129 31.3259 Q-182.7957 31.4588 -182.1863 31.4588 Q-181.1863 31.4588 -180.6863 31.0759 Q-180.1863 30.6931 -180.1863 30.0213 Q-180.1863 29.5838 -180.366 29.2947 Q-180.5457 29.0056 -180.9597 28.7634 Q-181.3738 28.5213 -182.2332 28.2244 Q-183.4207 27.8025 -183.9363 27.2166 Q-184.4519 26.6306 -184.4519 25.6775 Q-184.4519 24.6931 -183.7097 24.1072 Q-182.9676 23.5213 -181.7332 23.5213 Q-180.4676 23.5213 -179.3894 23.99 L-179.7019 24.8494 Q-180.7644 24.4119 -181.7644 24.4119 Q-182.5613 24.4119 -183.0066 24.7478 Q-183.4519 25.0838 -183.4519 25.6931 Q-183.4519 26.1306 -183.2879 26.4197 Q-183.1238 26.7088 -182.7332 26.9431 Q-182.3426 27.1775 -181.5301 27.4744 Q-180.1863 27.9431 -179.6785 28.4978 Q-179.1707 29.0525 -179.1707 29.9275 Z"/></g><g transform="translate(278,155)" style="stroke-linecap:butt; text-rendering:geometricPrecision; color-rendering:optimizeQuality; image-rendering:optimizeQuality; font-family:'Open Sans'; color-interpolation:linearRGB; stroke-miterlimit:5;"><path style="fill:none;" d="M-207.413 42.74 L-207.846 42.99 L-207.846 43.49"/><path style="fill:rgb(230,0,0); stroke:none;" d="M-162.9285 53.8997 Q-162.9285 55.9622 -163.9676 57.1419 Q-165.0066 58.3216 -166.8504 58.3216 Q-168.741 58.3216 -169.7722 57.1575 Q-170.8035 55.9934 -170.8035 53.8841 Q-170.8035 51.7903 -169.7722 50.6419 Q-168.741 49.4934 -166.8504 49.4934 Q-164.991 49.4934 -163.9597 50.6653 Q-162.9285 51.8372 -162.9285 53.8997 ZM-169.7566 53.8997 Q-169.7566 55.6341 -169.0144 56.5403 Q-168.2722 57.4466 -166.8504 57.4466 Q-165.4285 57.4466 -164.7019 56.5481 Q-163.9754 55.6497 -163.9754 53.8997 Q-163.9754 52.1653 -164.7019 51.2747 Q-165.4285 50.3841 -166.8504 50.3841 Q-168.2722 50.3841 -169.0144 51.2825 Q-169.7566 52.1809 -169.7566 53.8997 Z"/><path style="fill:rgb(230,0,0); stroke:none;" d="M-192.9285 1.9397 Q-192.9285 4.0022 -193.9676 5.1819 Q-195.0066 6.3616 -196.8504 6.3616 Q-198.741 6.3616 -199.7722 5.1975 Q-200.8035 4.0334 -200.8035 1.9241 Q-200.8035 -0.1697 -199.7722 -1.3181 Q-198.741 -2.4666 -196.8504 -2.4666 Q-194.991 -2.4666 -193.9597 -1.2947 Q-192.9285 -0.1228 -192.9285 1.9397 ZM-199.7566 1.9397 Q-199.7566 3.6741 -199.0144 4.5803 Q-198.2722 5.4866 -196.8504 5.4866 Q-195.4285 5.4866 -194.7019 4.5881 Q-193.9754 3.6897 -193.9754 1.9397 Q-193.9754 0.2053 -194.7019 -0.6853 Q-195.4285 -1.5759 -196.8504 -1.5759 Q-198.2722 -1.5759 -199.0144 -0.6775 Q-199.7566 0.2209 -199.7566 1.9397 Z"/><path style="fill:none;" d="M-207.846 72.49 L-207.846 72.99 L-208.279 73.24"/><path style="fill:rgb(230,0,0); stroke:none;" d="M-229.8885 87.9197 Q-229.8885 89.9822 -230.9276 91.1619 Q-231.9666 92.3416 -233.8104 92.3416 Q-235.701 92.3416 -236.7323 91.1775 Q-237.7635 90.0134 -237.7635 87.9041 Q-237.7635 85.8103 -236.7323 84.6619 Q-235.701 83.5134 -233.8104 83.5134 Q-231.951 83.5134 -230.9198 84.6853 Q-229.8885 85.8572 -229.8885 87.9197 ZM-236.7166 87.9197 Q-236.7166 89.6541 -235.9744 90.5603 Q-235.2323 91.4666 -233.8104 91.4666 Q-232.3885 91.4666 -231.6619 90.5681 Q-230.9354 89.6697 -230.9354 87.9197 Q-230.9354 86.1853 -231.6619 85.2947 Q-232.3885 84.4041 -233.8104 84.4041 Q-235.2323 84.4041 -235.9744 85.3025 Q-236.7166 86.2009 -236.7166 87.9197 Z"/><path style="fill:rgb(148,108,0); stroke:none;" d="M-231.1307 119.9275 Q-231.1307 121.0525 -231.951 121.6931 Q-232.7713 122.3338 -234.1776 122.3338 Q-235.7088 122.3338 -236.5213 121.9275 L-236.5213 120.9744 Q-235.9901 121.1931 -235.3729 121.3259 Q-234.7557 121.4588 -234.1463 121.4588 Q-233.1463 121.4588 -232.6463 121.0759 Q-232.1463 120.6931 -232.1463 120.0213 Q-232.1463 119.5838 -232.326 119.2947 Q-232.5057 119.0056 -232.9198 118.7634 Q-233.3338 118.5213 -234.1932 118.2244 Q-235.3807 117.8025 -235.8963 117.2166 Q-236.4119 116.6306 -236.4119 115.6775 Q-236.4119 114.6931 -235.6698 114.1072 Q-234.9276 113.5213 -233.6932 113.5213 Q-232.4276 113.5213 -231.3494 113.99 L-231.6619 114.8494 Q-232.7244 114.4119 -233.7244 114.4119 Q-234.5213 114.4119 -234.9666 114.7478 Q-235.4119 115.0838 -235.4119 115.6931 Q-235.4119 116.1306 -235.2479 116.4197 Q-235.0838 116.7088 -234.6932 116.9431 Q-234.3026 117.1775 -233.4901 117.4744 Q-232.1463 117.9431 -231.6385 118.4978 Q-231.1307 119.0525 -231.1307 119.9275 Z"/><path style="fill:rgb(230,0,0); stroke:none;" d="M-229.8885 147.9197 Q-229.8885 149.9822 -230.9276 151.1619 Q-231.9666 152.3416 -233.8104 152.3416 Q-235.701 152.3416 -236.7323 151.1775 Q-237.7635 150.0134 -237.7635 147.9041 Q-237.7635 145.8103 -236.7323 144.6619 Q-235.701 143.5134 -233.8104 143.5134 Q-231.951 143.5134 -230.9198 144.6853 Q-229.8885 145.8572 -229.8885 147.9197 ZM-236.7166 147.9197 Q-236.7166 149.6541 -235.9744 150.5603 Q-235.2323 151.4666 -233.8104 151.4666 Q-232.3885 151.4666 -231.6619 150.5681 Q-230.9354 149.6697 -230.9354 147.9197 Q-230.9354 146.1853 -231.6619 145.2947 Q-232.3885 144.4041 -233.8104 144.4041 Q-235.2323 144.4041 -235.9744 145.3025 Q-236.7166 146.2009 -236.7166 147.9197 Z"/><path style="fill:rgb(230,0,0); stroke:none;" d="M-199.8885 117.9197 Q-199.8885 119.9822 -200.9276 121.1619 Q-201.9666 122.3416 -203.8104 122.3416 Q-205.701 122.3416 -206.7323 121.1775 Q-207.7635 120.0134 -207.7635 117.9041 Q-207.7635 115.8103 -206.7323 114.6619 Q-205.701 113.5134 -203.8104 113.5134 Q-201.951 113.5134 -200.9198 114.6853 Q-199.8885 115.8572 -199.8885 117.9197 ZM-206.7166 117.9197 Q-206.7166 119.6541 -205.9744 120.5603 Q-205.2323 121.4666 -203.8104 121.4666 Q-202.3885 121.4666 -201.6619 120.5681 Q-200.9354 119.6697 -200.9354 117.9197 Q-200.9354 116.1853 -201.6619 115.2947 Q-202.3885 114.4041 -203.8104 114.4041 Q-205.2323 114.4041 -205.9744 115.3025 Q-206.7166 116.2009 -206.7166 117.9197 Z"/><path style="fill:rgb(230,0,0); stroke:none;" d="M-259.8885 117.9197 Q-259.8885 119.9822 -260.9276 121.1619 Q-261.9666 122.3416 -263.8104 122.3416 Q-265.701 122.3416 -266.7322 121.1775 Q-267.7635 120.0134 -267.7635 117.9041 Q-267.7635 115.8103 -266.7322 114.6619 Q-265.701 113.5134 -263.8104 113.5134 Q-261.951 113.5134 -260.9197 114.6853 Q-259.8885 115.8572 -259.8885 117.9197 ZM-266.7166 117.9197 Q-266.7166 119.6541 -265.9744 120.5603 Q-265.2322 121.4666 -263.8104 121.4666 Q-262.3885 121.4666 -261.6619 120.5681 Q-260.9354 119.6697 -260.9354 117.9197 Q-260.9354 116.1853 -261.6619 115.2947 Q-262.3885 114.4041 -263.8104 114.4041 Q-265.2322 114.4041 -265.9744 115.3025 Q-266.7166 116.2009 -266.7166 117.9197 Z"/><path style="fill:rgb(230,0,0); stroke:none;" d="M-268.7635 122.2166 L-269.7635 122.2166 L-269.7635 118.1853 L-274.2791 118.1853 L-274.2791 122.2166 L-275.2791 122.2166 L-275.2791 113.6541 L-274.2791 113.6541 L-274.2791 117.2947 L-269.7635 117.2947 L-269.7635 113.6541 L-268.7635 113.6541 L-268.7635 122.2166 Z"/><path style="fill:rgb(148,108,0); stroke:none;" d="M184.5613 29.9275 Q184.5613 31.0525 183.741 31.6931 Q182.9207 32.3338 181.5144 32.3338 Q179.9832 32.3338 179.1707 31.9275 L179.1707 30.9744 Q179.7019 31.1931 180.3191 31.3259 Q180.9363 31.4588 181.5457 31.4588 Q182.5457 31.4588 183.0457 31.0759 Q183.5457 30.6931 183.5457 30.0213 Q183.5457 29.5838 183.366 29.2947 Q183.1863 29.0056 182.7722 28.7634 Q182.3582 28.5213 181.4988 28.2244 Q180.3113 27.8025 179.7957 27.2166 Q179.2801 26.6306 179.2801 25.6775 Q179.2801 24.6931 180.0222 24.1072 Q180.7644 23.5213 181.9988 23.5213 Q183.2644 23.5213 184.3426 23.99 L184.0301 24.8494 Q182.9676 24.4119 181.9676 24.4119 Q181.1707 24.4119 180.7254 24.7478 Q180.2801 25.0838 180.2801 25.6931 Q180.2801 26.1306 180.4441 26.4197 Q180.6082 26.7088 180.9988 26.9431 Q181.3894 27.1775 182.2019 27.4744 Q183.5457 27.9431 184.0535 28.4978 Q184.5613 29.0525 184.5613 29.9275 Z"/><path style="fill:none;" d="M207.413 42.74 L207.846 42.99 L207.846 43.49"/><path style="fill:rgb(230,0,0); stroke:none;" d="M170.8035 53.8997 Q170.8035 55.9622 169.7644 57.1419 Q168.7254 58.3216 166.8816 58.3216 Q164.991 58.3216 163.9597 57.1575 Q162.9285 55.9934 162.9285 53.8841 Q162.9285 51.7903 163.9597 50.6419 Q164.991 49.4934 166.8816 49.4934 Q168.741 49.4934 169.7722 50.6653 Q170.8035 51.8372 170.8035 53.8997 ZM163.9754 53.8997 Q163.9754 55.6341 164.7176 56.5403 Q165.4597 57.4466 166.8816 57.4466 Q168.3035 57.4466 169.0301 56.5481 Q169.7566 55.6497 169.7566 53.8997 Q169.7566 52.1653 169.0301 51.2747 Q168.3035 50.3841 166.8816 50.3841 Q165.4597 50.3841 164.7176 51.2825 Q163.9754 52.1809 163.9754 53.8997 Z"/><path style="fill:rgb(230,0,0); stroke:none;" d="M200.8035 1.9397 Q200.8035 4.0022 199.7644 5.1819 Q198.7254 6.3616 196.8816 6.3616 Q194.991 6.3616 193.9597 5.1975 Q192.9285 4.0334 192.9285 1.9241 Q192.9285 -0.1697 193.9597 -1.3181 Q194.991 -2.4666 196.8816 -2.4666 Q198.741 -2.4666 199.7722 -1.2947 Q200.8035 -0.1228 200.8035 1.9397 ZM193.9754 1.9397 Q193.9754 3.6741 194.7176 4.5803 Q195.4597 5.4866 196.8816 5.4866 Q198.3035 5.4866 199.0301 4.5881 Q199.7566 3.6897 199.7566 1.9397 Q199.7566 0.2053 199.0301 -0.6853 Q198.3035 -1.5759 196.8816 -1.5759 Q195.4597 -1.5759 194.7176 -0.6775 Q193.9754 0.2209 193.9754 1.9397 Z"/><path style="fill:none;" d="M207.846 72.49 L207.846 72.99 L208.279 73.24"/><path style="fill:rgb(230,0,0); stroke:none;" d="M237.7635 87.9197 Q237.7635 89.9822 236.7244 91.1619 Q235.6854 92.3416 233.8416 92.3416 Q231.951 92.3416 230.9198 91.1775 Q229.8885 90.0134 229.8885 87.9041 Q229.8885 85.8103 230.9198 84.6619 Q231.951 83.5134 233.8416 83.5134 Q235.701 83.5134 236.7323 84.6853 Q237.7635 85.8572 237.7635 87.9197 ZM230.9354 87.9197 Q230.9354 89.6541 231.6776 90.5603 Q232.4198 91.4666 233.8416 91.4666 Q235.2635 91.4666 235.9901 90.5681 Q236.7166 89.6697 236.7166 87.9197 Q236.7166 86.1853 235.9901 85.2947 Q235.2635 84.4041 233.8416 84.4041 Q232.4198 84.4041 231.6776 85.3025 Q230.9354 86.2009 230.9354 87.9197 Z"/><path style="fill:rgb(148,108,0); stroke:none;" d="M236.5213 119.9275 Q236.5213 121.0525 235.701 121.6931 Q234.8807 122.3338 233.4744 122.3338 Q231.9432 122.3338 231.1307 121.9275 L231.1307 120.9744 Q231.6619 121.1931 232.2791 121.3259 Q232.8963 121.4588 233.5057 121.4588 Q234.5057 121.4588 235.0057 121.0759 Q235.5057 120.6931 235.5057 120.0213 Q235.5057 119.5838 235.326 119.2947 Q235.1463 119.0056 234.7323 118.7634 Q234.3182 118.5213 233.4588 118.2244 Q232.2713 117.8025 231.7557 117.2166 Q231.2401 116.6306 231.2401 115.6775 Q231.2401 114.6931 231.9823 114.1072 Q232.7244 113.5213 233.9588 113.5213 Q235.2244 113.5213 236.3026 113.99 L235.9901 114.8494 Q234.9276 114.4119 233.9276 114.4119 Q233.1307 114.4119 232.6854 114.7478 Q232.2401 115.0838 232.2401 115.6931 Q232.2401 116.1306 232.4041 116.4197 Q232.5682 116.7088 232.9588 116.9431 Q233.3494 117.1775 234.1619 117.4744 Q235.5057 117.9431 236.0135 118.4978 Q236.5213 119.0525 236.5213 119.9275 Z"/><path style="fill:rgb(230,0,0); stroke:none;" d="M237.7635 147.9197 Q237.7635 149.9822 236.7244 151.1619 Q235.6854 152.3416 233.8416 152.3416 Q231.951 152.3416 230.9198 151.1775 Q229.8885 150.0134 229.8885 147.9041 Q229.8885 145.8103 230.9198 144.6619 Q231.951 143.5134 233.8416 143.5134 Q235.701 143.5134 236.7323 144.6853 Q237.7635 145.8572 237.7635 147.9197 ZM230.9354 147.9197 Q230.9354 149.6541 231.6776 150.5603 Q232.4198 151.4666 233.8416 151.4666 Q235.2635 151.4666 235.9901 150.5681 Q236.7166 149.6697 236.7166 147.9197 Q236.7166 146.1853 235.9901 145.2947 Q235.2635 144.4041 233.8416 144.4041 Q232.4198 144.4041 231.6776 145.3025 Q230.9354 146.2009 230.9354 147.9197 Z"/><path style="fill:rgb(230,0,0); stroke:none;" d="M207.7635 117.9197 Q207.7635 119.9822 206.7244 121.1619 Q205.6854 122.3416 203.8416 122.3416 Q201.951 122.3416 200.9198 121.1775 Q199.8885 120.0134 199.8885 117.9041 Q199.8885 115.8103 200.9198 114.6619 Q201.951 113.5134 203.8416 113.5134 Q205.701 113.5134 206.7323 114.6853 Q207.7635 115.8572 207.7635 117.9197 ZM200.9354 117.9197 Q200.9354 119.6541 201.6776 120.5603 Q202.4198 121.4666 203.8416 121.4666 Q205.2635 121.4666 205.9901 120.5681 Q206.7166 119.6697 206.7166 117.9197 Q206.7166 116.1853 205.9901 115.2947 Q205.2635 114.4041 203.8416 114.4041 Q202.4198 114.4041 201.6776 115.3025 Q200.9354 116.2009 200.9354 117.9197 Z"/><path style="fill:rgb(230,0,0); stroke:none;" d="M267.7635 117.9197 Q267.7635 119.9822 266.7244 121.1619 Q265.6854 122.3416 263.8416 122.3416 Q261.951 122.3416 260.9197 121.1775 Q259.8885 120.0134 259.8885 117.9041 Q259.8885 115.8103 260.9197 114.6619 Q261.951 113.5134 263.8416 113.5134 Q265.701 113.5134 266.7322 114.6853 Q267.7635 115.8572 267.7635 117.9197 ZM260.9354 117.9197 Q260.9354 119.6541 261.6776 120.5603 Q262.4197 121.4666 263.8416 121.4666 Q265.2635 121.4666 265.9901 120.5681 Q266.7166 119.6697 266.7166 117.9197 Q266.7166 116.1853 265.9901 115.2947 Q265.2635 114.4041 263.8416 114.4041 Q262.4197 114.4041 261.6776 115.3025 Q260.9354 116.2009 260.9354 117.9197 Z"/><path style="fill:rgb(230,0,0); stroke:none;" d="M275.2791 122.2166 L274.2791 122.2166 L274.2791 118.1853 L269.7635 118.1853 L269.7635 122.2166 L268.7635 122.2166 L268.7635 113.6541 L269.7635 113.6541 L269.7635 117.2947 L274.2791 117.2947 L274.2791 113.6541 L275.2791 113.6541 L275.2791 122.2166 Z"/><path style="fill:none;" d="M0 -77.51 L0 -77.01 L-0.433 -76.76"/><path style="fill:none;" d="M-0 -106.51 L0 -107.01 L0.433 -107.26"/><path style="fill:none;" d="M-26.413 -62.26 L-25.98 -62.01 L-25.98 -61.51"/><path style="fill:none;" d="M26.413 -62.26 L25.98 -62.01 L25.547 -62.26"/><path style="fill:none;" d="M25.547 -121.76 L25.98 -122.01 L26.413 -121.76"/><path style="fill:none;" d="M-25.547 -121.76 L-25.98 -122.01 L-26.413 -121.76"/><path style="fill:none;" d="M-51.53 -76.76 L-51.963 -77.01 L-52.396 -76.76"/><path style="fill:none;" d="M51.527 -76.76 L51.96 -77.01 L52.393 -76.76"/><path style="fill:none;" d="M51.527 -107.26 L51.96 -107.01 L52.393 -107.26"/><path style="fill:none;" d="M-51.53 -107.26 L-51.963 -107.01 L-51.963 -106.51"/><path style="fill:none;" d="M-104.356 -17.26 L-103.923 -17.01 L-103.923 -16.51"/><path style="fill:none;" d="M-129.47 -31.76 L-129.903 -32.01 L-130.336 -31.76"/><path style="fill:none;" d="M-103.923 12.49 L-103.923 12.99 L-104.356 13.24"/><path style="fill:none;" d="M-155.453 -17.26 L-155.886 -17.01 L-155.886 -16.51"/><path style="fill:none;" d="M-129.47 27.74 L-129.903 27.99 L-130.336 27.74"/><path style="fill:none;" d="M-155.886 12.49 L-155.886 12.99 L-156.319 13.24"/><path style="fill:none;" d="M104.356 -17.26 L103.923 -17.01 L103.49 -17.26"/><path style="fill:none;" d="M129.47 -31.76 L129.903 -32.01 L130.336 -31.76"/><path style="fill:none;" d="M103.923 12.49 L103.923 12.99 L104.356 13.24"/><path style="fill:none;" d="M155.453 -17.26 L155.886 -17.01 L155.886 -16.51"/><path style="fill:none;" d="M129.47 27.74 L129.903 27.99 L130.336 27.74"/><path style="fill:none;" d="M155.886 12.49 L155.886 12.99 L156.319 13.24"/></g></g></svg></svg><svg y="311" x="255" class="cas-substance-saf"><svg y="5" x="0" width="4" style="fill:black;" height="4" class="cas-substance-saf-dot"><circle stroke="none" r="2" fill="black" cy="2" cx="2"/></svg><svg y="0" x="7" width="12" style="fill:black;" height="15" class="cas-substance-saf-coefficient"><svg><g><g transform="translate(6,7)" style="text-rendering:geometricPrecision; font-family:'Open Sans'; color-interpolation:linearRGB; color-rendering:optimizeQuality; image-rendering:optimizeQuality;"><path style="stroke:none;" d="M3.1875 2.2109 L1.9062 2.2109 L1.9062 4.1797 L0.9844 4.1797 L0.9844 2.2109 L-3.1875 2.2109 L-3.1875 1.3672 L0.875 -4.4297 L1.9062 -4.4297 L1.9062 1.3203 L3.1875 1.3203 L3.1875 2.2109 ZM0.9844 1.3203 L0.9844 -1.5234 Q0.9844 -2.3672 1.0469 -3.4141 L1 -3.4141 Q0.7188 -2.8516 0.4688 -2.4766 L-2.2188 1.3203 L0.9844 1.3203 Z"/></g></g></svg></svg><svg y="0" x="23" width="20" style="fill:black;" height="15" class="cas-substance-saf-image"><svg><g><g transform="translate(10,7)" style="text-rendering:geometricPrecision; font-family:'Open Sans'; color-interpolation:linearRGB; color-rendering:optimizeQuality; image-rendering:optimizeQuality;"><path style="stroke:none;" d="M-0.0859 4.1562 L-1.2266 4.1562 L-5.9141 -3.0312 L-5.9609 -3.0312 Q-5.8672 -1.7656 -5.8672 -0.7188 L-5.8672 4.1562 L-6.7891 4.1562 L-6.7891 -4.4062 L-5.6641 -4.4062 L-0.9922 2.75 L-0.9453 2.75 Q-0.9453 2.5938 -0.9922 1.7344 Q-1.0391 0.875 -1.0234 0.5 L-1.0234 -4.4062 L-0.0859 -4.4062 L-0.0859 4.1562 ZM6.0703 4.1562 L5.8672 3.2344 L5.8203 3.2344 Q5.3516 3.8438 4.875 4.0625 Q4.3984 4.2812 3.6797 4.2812 Q2.7266 4.2812 2.1797 3.7812 Q1.6328 3.2812 1.6328 2.375 Q1.6328 0.4375 4.7422 0.3438 L5.8359 0.3125 L5.8359 -0.0938 Q5.8359 -0.8438 5.5156 -1.2031 Q5.1953 -1.5625 4.4766 -1.5625 Q3.6641 -1.5625 2.6641 -1.0781 L2.3516 -1.8281 Q2.8359 -2.0781 3.3984 -2.2266 Q3.9609 -2.375 4.5391 -2.375 Q5.6797 -2.375 6.2344 -1.8672 Q6.7891 -1.3594 6.7891 -0.2344 L6.7891 4.1562 L6.0703 4.1562 ZM3.8672 3.4688 Q4.7734 3.4688 5.2969 2.9688 Q5.8203 2.4688 5.8203 1.5781 L5.8203 1 L4.8359 1.0312 Q3.6797 1.0781 3.1719 1.3984 Q2.6641 1.7188 2.6641 2.3906 Q2.6641 2.9219 2.9766 3.1953 Q3.2891 3.4688 3.8672 3.4688 Z"/></g></g></svg></svg></svg></svg></svg>