<svg width="300" viewBox="0 0 300 217" style="fill-opacity:1; color-rendering:auto; color-interpolation:auto; text-rendering:auto; stroke:black; stroke-linecap:square; stroke-miterlimit:10; shape-rendering:auto; stroke-opacity:1; fill:black; stroke-dasharray:none; font-weight:normal; stroke-width:1; font-family:'Open Sans'; font-style:normal; stroke-linejoin:miter; font-size:12; stroke-dashoffset:0; image-rendering:auto;" height="217" class="cas-substance-image" xmlns:xlink="http://www.w3.org/1999/xlink" xmlns="http://www.w3.org/2000/svg"><svg class="cas-substance-single-component"><rect y="0" x="0" width="300" stroke="none" ry="7" rx="7" height="217" fill="white" class="cas-substance-group"/><svg y="0" x="0" width="300" viewBox="0 0 300 202" style="fill:black;" height="202" class="cas-substance-single-component-image"><svg><g><g transform="translate(150,101)" style="text-rendering:geometricPrecision; color-rendering:optimizeQuality; color-interpolation:linearRGB; stroke-linecap:butt; image-rendering:optimizeQuality;"><line y2="13.6562" y1="37.5" x2="-31.527" x1="-31.527" style="fill:none;"/><line y2="13.6562" y1="35.4793" x2="-35.027" x1="-35.027" style="fill:none;"/><line y2="49.5649" y1="37.5" x2="-10.6306" x1="-31.527" style="fill:none;"/><line y2="52.5" y1="37.5" x2="-57.507" x1="-31.527" style="fill:none;"/><line y2="-4.5649" y1="4.5649" x2="-52.4234" x1="-36.6106" style="fill:none;"/><line y2="41.9504" y1="51.0808" x2="16.2273" x1="0.4116" style="fill:none;"/><line y2="38.9192" y1="48.0496" x2="14.4774" x1="-1.3383" style="fill:none;"/><line y2="-37.5" y1="-13.9062" x2="-57.507" x1="-57.507" style="fill:none;"/><line y2="10.311" y1="31.2811" x2="33.114" x1="23.3358" style="fill:none;"/><line y2="-49.3214" y1="-37.5" x2="-129.9446" x1="-109.47" style="fill:none;"/><line y2="-13.9766" y1="-38.5104" x2="-111.22" x1="-111.22" style="fill:none;"/><line y2="-13.9766" y1="-38.5103" x2="-107.72" x1="-107.72" style="fill:none;"/><line y2="-52.5" y1="-37.5" x2="-83.487" x1="-109.47" style="fill:none;"/><line y2="-14.265" y1="-12.1681" x2="15.906" x1="-8.0501" style="fill:none;"/><line y2="-45.8017" y1="-28.7207" x2="105.2466" x1="106.7418" style="fill:none;"/><line y2="-45.4965" y1="-28.4155" x2="101.76" x1="103.2551" style="fill:none;"/><line y2="1.4625" y1="-15.6184" x2="105.8681" x1="104.3746" style="fill:none;"/><line y2="1.1576" y1="-15.9233" x2="109.3548" x1="107.8613" style="fill:none;"/><line y2="-24.2039" y1="-22.5031" x2="129.5201" x1="110.0894" style="fill:none;"/><line y2="-19.494" y1="-21.7013" x2="75.678" x1="100.9242" style="fill:none;"/><line y2="37.5" y1="52.5" x2="-83.487" x1="-57.507" style="fill:none;"/><line y2="41.5415" y1="54.5207" x2="-83.4871" x1="-61.007" style="fill:none;"/><line y2="82.5" y1="52.5" x2="-57.507" x1="-57.507" style="fill:none;"/><line y2="52.5" y1="37.5" x2="-109.47" x1="-83.487" style="fill:none;"/><line y2="97.5" y1="82.5" x2="-83.487" x1="-57.507" style="fill:none;"/><line y2="93.4585" y1="80.4793" x2="-83.4871" x1="-61.007" style="fill:none;"/><line y2="82.5" y1="52.5" x2="-109.47" x1="-109.47" style="fill:none;"/><line y2="80.4793" y1="54.5207" x2="-105.97" x1="-105.97" style="fill:none;"/><line y2="82.5" y1="97.5" x2="-109.47" x1="-83.487" style="fill:none;"/><line y2="-52.5" y1="-37.5" x2="-83.487" x1="-57.507" style="fill:none;"/><line y2="-54.5207" y1="-41.5415" x2="-79.987" x1="-57.507" style="fill:none;"/><line y2="-52.5" y1="-37.5" x2="-31.527" x1="-57.507" style="fill:none;"/><line y2="-82.5" y1="-52.5" x2="-83.487" x1="-83.487" style="fill:none;"/><line y2="-82.5" y1="-52.5" x2="-31.527" x1="-31.527" style="fill:none;"/><line y2="-80.4793" y1="-54.5207" x2="-35.027" x1="-35.027" style="fill:none;"/><line y2="-97.5" y1="-82.5" x2="-57.507" x1="-83.487" style="fill:none;"/><line y2="-93.4585" y1="-80.4793" x2="-57.507" x1="-79.987" style="fill:none;"/><line y2="-97.5" y1="-82.5" x2="-57.507" x1="-31.527" style="fill:none;"/><line y2="7.695" y1="10.311" x2="63" x1="33.114" style="fill:none;"/><line y2="4.3845" y1="6.6481" x2="60.6818" x1="34.8218" style="fill:none;"/><line y2="-14.265" y1="10.311" x2="15.906" x1="33.114" style="fill:none;"/><line y2="-19.494" y1="7.695" x2="75.678" x1="63" style="fill:none;"/><line y2="-41.454" y1="-14.265" x2="28.584" x1="15.906" style="fill:none;"/><line y2="-38.1435" y1="-14.6173" x2="30.9021" x1="19.9321" style="fill:none;"/><line y2="-44.067" y1="-19.494" x2="58.47" x1="75.678" style="fill:none;"/><line y2="-40.4041" y1="-19.1416" x2="56.7622" x1="71.6519" style="fill:none;"/><line y2="-44.067" y1="-41.454" x2="58.47" x1="28.584" style="fill:none;"/><path style="fill:none; stroke-miterlimit:5;" d="M-31.527 37 L-31.527 37.5 L-31.094 37.75"/></g><g transform="translate(150,101)" style="stroke-linecap:butt; fill:rgb(0,5,255); text-rendering:geometricPrecision; color-rendering:optimizeQuality; image-rendering:optimizeQuality; font-family:'Open Sans'; stroke:rgb(0,5,255); color-interpolation:linearRGB; stroke-miterlimit:5;"><path style="stroke:none;" d="M-28.1754 11.6562 L-29.3161 11.6562 L-34.0036 4.4688 L-34.0504 4.4688 Q-33.9567 5.7344 -33.9567 6.7812 L-33.9567 11.6562 L-34.8786 11.6562 L-34.8786 3.0938 L-33.7536 3.0938 L-29.0817 10.25 L-29.0348 10.25 Q-29.0348 10.0938 -29.0817 9.2344 Q-29.1286 8.375 -29.1129 8 L-29.1129 3.0938 L-28.1754 3.0938 L-28.1754 11.6562 Z"/><path style="stroke:none;" d="M-2.1954 56.6562 L-3.3361 56.6562 L-8.0236 49.4688 L-8.0704 49.4688 Q-7.9767 50.7344 -7.9767 51.7812 L-7.9767 56.6562 L-8.8986 56.6562 L-8.8986 48.0938 L-7.7736 48.0938 L-3.1017 55.25 L-3.0548 55.25 Q-3.0548 55.0938 -3.1017 54.2344 Q-3.1486 53.375 -3.1329 53 L-3.1329 48.0938 L-2.1954 48.0938 L-2.1954 56.6562 Z"/><path style="stroke:none;" d="M-54.1554 -3.3438 L-55.2961 -3.3438 L-59.9836 -10.5312 L-60.0304 -10.5312 Q-59.9367 -9.2656 -59.9367 -8.2188 L-59.9367 -3.3438 L-60.8586 -3.3438 L-60.8586 -11.9062 L-59.7336 -11.9062 L-55.0617 -4.75 L-55.0148 -4.75 Q-55.0148 -4.9062 -55.0617 -5.7656 Q-55.1086 -6.625 -55.0929 -7 L-55.0929 -11.9062 L-54.1554 -11.9062 L-54.1554 -3.3438 Z"/><path style="stroke:none;" d="M-61.8586 -3.3438 L-62.8586 -3.3438 L-62.8586 -7.375 L-67.3742 -7.375 L-67.3742 -3.3438 L-68.3742 -3.3438 L-68.3742 -11.9062 L-67.3742 -11.9062 L-67.3742 -8.2656 L-62.8586 -8.2656 L-62.8586 -11.9062 L-61.8586 -11.9062 L-61.8586 -3.3438 Z"/><path style="stroke:none;" d="M23.7876 41.6562 L22.6469 41.6562 L17.9594 34.4688 L17.9126 34.4688 Q18.0063 35.7344 18.0063 36.7812 L18.0063 41.6562 L17.0844 41.6562 L17.0844 33.0938 L18.2094 33.0938 L22.8813 40.25 L22.9282 40.25 Q22.9282 40.0938 22.8813 39.2344 Q22.8344 38.375 22.8501 38 L22.8501 33.0938 L23.7876 33.0938 L23.7876 41.6562 Z"/><path style="fill:none; stroke:black;" d="M-109.903 -37.75 L-109.47 -37.5 L-109.037 -37.75"/><path style="fill:rgb(230,0,0); stroke:none;" d="M-131.5125 -52.5703 Q-131.5125 -50.5078 -132.5516 -49.3281 Q-133.5906 -48.1484 -135.4344 -48.1484 Q-137.325 -48.1484 -138.3562 -49.3125 Q-139.3875 -50.4766 -139.3875 -52.5859 Q-139.3875 -54.6797 -138.3562 -55.8281 Q-137.325 -56.9766 -135.4344 -56.9766 Q-133.575 -56.9766 -132.5437 -55.8047 Q-131.5125 -54.6328 -131.5125 -52.5703 ZM-138.3406 -52.5703 Q-138.3406 -50.8359 -137.5984 -49.9297 Q-136.8562 -49.0234 -135.4344 -49.0234 Q-134.0125 -49.0234 -133.2859 -49.9219 Q-132.5594 -50.8203 -132.5594 -52.5703 Q-132.5594 -54.3047 -133.2859 -55.1953 Q-134.0125 -56.0859 -135.4344 -56.0859 Q-136.8562 -56.0859 -137.5984 -55.1875 Q-138.3406 -54.2891 -138.3406 -52.5703 Z"/><path style="fill:rgb(230,0,0); stroke:none;" d="M-140.3875 -48.2734 L-141.3875 -48.2734 L-141.3875 -52.3047 L-145.9031 -52.3047 L-145.9031 -48.2734 L-146.9031 -48.2734 L-146.9031 -56.8359 L-145.9031 -56.8359 L-145.9031 -53.1953 L-141.3875 -53.1953 L-141.3875 -56.8359 L-140.3875 -56.8359 L-140.3875 -48.2734 Z"/><path style="fill:rgb(230,0,0); stroke:none;" d="M-105.5325 -7.5703 Q-105.5325 -5.5078 -106.5716 -4.3281 Q-107.6106 -3.1484 -109.4544 -3.1484 Q-111.345 -3.1484 -112.3763 -4.3125 Q-113.4075 -5.4766 -113.4075 -7.5859 Q-113.4075 -9.6797 -112.3763 -10.8281 Q-111.345 -11.9766 -109.4544 -11.9766 Q-107.595 -11.9766 -106.5638 -10.8047 Q-105.5325 -9.6328 -105.5325 -7.5703 ZM-112.3606 -7.5703 Q-112.3606 -5.8359 -111.6184 -4.9297 Q-110.8763 -4.0234 -109.4544 -4.0234 Q-108.0325 -4.0234 -107.3059 -4.9219 Q-106.5794 -5.8203 -106.5794 -7.5703 Q-106.5794 -9.3047 -107.3059 -10.1953 Q-108.0325 -11.0859 -109.4544 -11.0859 Q-110.8763 -11.0859 -111.6184 -10.1875 Q-112.3606 -9.2891 -112.3606 -7.5703 Z"/><path style="fill:rgb(230,0,0); stroke:none;" d="M-10.0425 -11.7193 Q-10.0425 -9.6568 -11.0816 -8.4771 Q-12.1206 -7.2974 -13.9644 -7.2974 Q-15.855 -7.2974 -16.8862 -8.4615 Q-17.9175 -9.6256 -17.9175 -11.7349 Q-17.9175 -13.8287 -16.8862 -14.9771 Q-15.855 -16.1256 -13.9644 -16.1256 Q-12.105 -16.1256 -11.0737 -14.9537 Q-10.0425 -13.7818 -10.0425 -11.7193 ZM-16.8706 -11.7193 Q-16.8706 -9.9849 -16.1284 -9.0787 Q-15.3862 -8.1724 -13.9644 -8.1724 Q-12.5425 -8.1724 -11.8159 -9.0709 Q-11.0894 -9.9693 -11.0894 -11.7193 Q-11.0894 -13.4537 -11.8159 -14.3443 Q-12.5425 -15.2349 -13.9644 -15.2349 Q-15.3862 -15.2349 -16.1284 -14.3365 Q-16.8706 -13.4381 -16.8706 -11.7193 Z"/><path style="fill:rgb(230,0,0); stroke:none;" d="M-18.9175 -7.4224 L-19.9175 -7.4224 L-19.9175 -11.4537 L-24.4331 -11.4537 L-24.4331 -7.4224 L-25.4331 -7.4224 L-25.4331 -15.9849 L-24.4331 -15.9849 L-24.4331 -12.3443 L-19.9175 -12.3443 L-19.9175 -15.9849 L-18.9175 -15.9849 L-18.9175 -7.4224 Z"/><path style="fill:rgb(148,108,0); stroke:none;" d="M108.2593 -20.1695 Q108.2593 -19.0445 107.439 -18.4039 Q106.6187 -17.7632 105.2124 -17.7632 Q103.6812 -17.7632 102.8687 -18.1695 L102.8687 -19.1226 Q103.3999 -18.9039 104.0171 -18.7711 Q104.6343 -18.6382 105.2437 -18.6382 Q106.2437 -18.6382 106.7437 -19.0211 Q107.2437 -19.4039 107.2437 -20.0757 Q107.2437 -20.5132 107.064 -20.8023 Q106.8843 -21.0914 106.4703 -21.3336 Q106.0562 -21.5757 105.1968 -21.8726 Q104.0093 -22.2945 103.4937 -22.8804 Q102.9781 -23.4664 102.9781 -24.4195 Q102.9781 -25.4039 103.7203 -25.9898 Q104.4624 -26.5757 105.6968 -26.5757 Q106.9624 -26.5757 108.0406 -26.107 L107.7281 -25.2476 Q106.6656 -25.6851 105.6656 -25.6851 Q104.8687 -25.6851 104.4234 -25.3492 Q103.9781 -25.0132 103.9781 -24.4039 Q103.9781 -23.9664 104.1421 -23.6773 Q104.3062 -23.3882 104.6968 -23.1539 Q105.0874 -22.9195 105.8999 -22.6226 Q107.2437 -22.1539 107.7515 -21.5992 Q108.2593 -21.0445 108.2593 -20.1695 Z"/><path style="fill:rgb(230,0,0); stroke:none;" d="M106.8855 -52.0633 Q106.8855 -50.0008 105.8464 -48.8211 Q104.8074 -47.6414 102.9636 -47.6414 Q101.073 -47.6414 100.0418 -48.8055 Q99.0105 -49.9696 99.0105 -52.0789 Q99.0105 -54.1727 100.0418 -55.3211 Q101.073 -56.4696 102.9636 -56.4696 Q104.823 -56.4696 105.8543 -55.2977 Q106.8855 -54.1258 106.8855 -52.0633 ZM100.0574 -52.0633 Q100.0574 -50.3289 100.7996 -49.4227 Q101.5418 -48.5164 102.9636 -48.5164 Q104.3855 -48.5164 105.1121 -49.4149 Q105.8386 -50.3133 105.8386 -52.0633 Q105.8386 -53.7977 105.1121 -54.6883 Q104.3855 -55.5789 102.9636 -55.5789 Q101.5418 -55.5789 100.7996 -54.6805 Q100.0574 -53.7821 100.0574 -52.0633 Z"/><path style="fill:rgb(230,0,0); stroke:none;" d="M112.1145 7.7087 Q112.1145 9.7712 111.0754 10.9509 Q110.0364 12.1306 108.1926 12.1306 Q106.302 12.1306 105.2708 10.9665 Q104.2395 9.8024 104.2395 7.6931 Q104.2395 5.5993 105.2708 4.4509 Q106.302 3.3024 108.1926 3.3024 Q110.052 3.3024 111.0833 4.4743 Q112.1145 5.6462 112.1145 7.7087 ZM105.2864 7.7087 Q105.2864 9.4431 106.0286 10.3493 Q106.7708 11.2556 108.1926 11.2556 Q109.6145 11.2556 110.3411 10.3571 Q111.0676 9.4587 111.0676 7.7087 Q111.0676 5.9743 110.3411 5.0837 Q109.6145 4.1931 108.1926 4.1931 Q106.7708 4.1931 106.0286 5.0915 Q105.2864 5.9899 105.2864 7.7087 Z"/><path style="fill:rgb(230,0,0); stroke:none;" d="M139.3875 -24.7933 Q139.3875 -22.7308 138.3484 -21.5511 Q137.3094 -20.3714 135.4656 -20.3714 Q133.575 -20.3714 132.5437 -21.5355 Q131.5125 -22.6996 131.5125 -24.8089 Q131.5125 -26.9027 132.5437 -28.0511 Q133.575 -29.1996 135.4656 -29.1996 Q137.325 -29.1996 138.3562 -28.0277 Q139.3875 -26.8558 139.3875 -24.7933 ZM132.5594 -24.7933 Q132.5594 -23.0589 133.3016 -22.1527 Q134.0437 -21.2464 135.4656 -21.2464 Q136.8875 -21.2464 137.6141 -22.1449 Q138.3406 -23.0433 138.3406 -24.7933 Q138.3406 -26.5277 137.6141 -27.4183 Q136.8875 -28.3089 135.4656 -28.3089 Q134.0437 -28.3089 133.3016 -27.4105 Q132.5594 -26.5121 132.5594 -24.7933 Z"/><path style="fill:rgb(230,0,0); stroke:none;" d="M146.9031 -20.4964 L145.9031 -20.4964 L145.9031 -24.5277 L141.3875 -24.5277 L141.3875 -20.4964 L140.3875 -20.4964 L140.3875 -29.0589 L141.3875 -29.0589 L141.3875 -25.4183 L145.9031 -25.4183 L145.9031 -29.0589 L146.9031 -29.0589 L146.9031 -20.4964 Z"/><path style="fill:none; stroke:black;" d="M-57.94 52.25 L-57.507 52.5 L-57.074 52.25"/><path style="fill:none; stroke:black;" d="M-83.054 37.75 L-83.487 37.5 L-83.92 37.75"/><path style="fill:none; stroke:black;" d="M-57.507 82 L-57.507 82.5 L-57.94 82.75"/><path style="fill:none; stroke:black;" d="M-109.037 52.25 L-109.47 52.5 L-109.47 53"/><path style="fill:none; stroke:black;" d="M-83.054 97.25 L-83.487 97.5 L-83.92 97.25"/><path style="fill:none; stroke:black;" d="M-109.47 82 L-109.47 82.5 L-109.037 82.75"/><path style="fill:none; stroke:black;" d="M-57.94 -37.75 L-57.507 -37.5 L-57.074 -37.75"/><path style="fill:none; stroke:black;" d="M-83.054 -52.25 L-83.487 -52.5 L-83.92 -52.25"/><path style="fill:none; stroke:black;" d="M-31.96 -52.25 L-31.527 -52.5 L-31.527 -53"/><path style="fill:none; stroke:black;" d="M-83.487 -82 L-83.487 -82.5 L-83.054 -82.75"/><path style="fill:none; stroke:black;" d="M-31.527 -82 L-31.527 -82.5 L-31.96 -82.75"/><path style="fill:none; stroke:black;" d="M-57.94 -97.25 L-57.507 -97.5 L-57.074 -97.25"/><path style="fill:none; stroke:black;" d="M33.6121 10.2674 L33.114 10.311 L32.8272 9.9014"/><path style="fill:none; stroke:black;" d="M62.5019 7.7386 L63 7.695 L63.2113 7.2418"/><path style="fill:none; stroke:black;" d="M16.1173 -14.7182 L15.906 -14.265 L16.1928 -13.8554"/><path style="fill:none; stroke:black;" d="M75.3912 -19.9036 L75.678 -19.494 L76.1761 -19.5375"/><path style="fill:none; stroke:black;" d="M28.3727 -41.0008 L28.584 -41.454 L29.0821 -41.4976"/><path style="fill:none; stroke:black;" d="M58.7568 -43.6574 L58.47 -44.067 L57.9719 -44.0234"/></g></g></svg></svg><svg y="202" x="142" class="cas-substance-saf"><svg y="5" x="0" width="4" style="fill:black;" height="4" class="cas-substance-saf-dot"><circle stroke="none" r="2" fill="black" cy="2" cx="2"/></svg><svg y="0" x="8" width="20" style="fill:black;" height="15" class="cas-substance-saf-image"><svg><g><g transform="translate(10,7)" style="text-rendering:geometricPrecision; font-family:'Open Sans'; color-interpolation:linearRGB; color-rendering:optimizeQuality; image-rendering:optimizeQuality;"><path style="stroke:none;" d="M-0.0859 4.1562 L-1.2266 4.1562 L-5.9141 -3.0312 L-5.9609 -3.0312 Q-5.8672 -1.7656 -5.8672 -0.7188 L-5.8672 4.1562 L-6.7891 4.1562 L-6.7891 -4.4062 L-5.6641 -4.4062 L-0.9922 2.75 L-0.9453 2.75 Q-0.9453 2.5938 -0.9922 1.7344 Q-1.0391 0.875 -1.0234 0.5 L-1.0234 -4.4062 L-0.0859 -4.4062 L-0.0859 4.1562 ZM6.0703 4.1562 L5.8672 3.2344 L5.8203 3.2344 Q5.3516 3.8438 4.875 4.0625 Q4.3984 4.2812 3.6797 4.2812 Q2.7266 4.2812 2.1797 3.7812 Q1.6328 3.2812 1.6328 2.375 Q1.6328 0.4375 4.7422 0.3438 L5.8359 0.3125 L5.8359 -0.0938 Q5.8359 -0.8438 5.5156 -1.2031 Q5.1953 -1.5625 4.4766 -1.5625 Q3.6641 -1.5625 2.6641 -1.0781 L2.3516 -1.8281 Q2.8359 -2.0781 3.3984 -2.2266 Q3.9609 -2.375 4.5391 -2.375 Q5.6797 -2.375 6.2344 -1.8672 Q6.7891 -1.3594 6.7891 -0.2344 L6.7891 4.1562 L6.0703 4.1562 ZM3.8672 3.4688 Q4.7734 3.4688 5.2969 2.9688 Q5.8203 2.4688 5.8203 1.5781 L5.8203 1 L4.8359 1.0312 Q3.6797 1.0781 3.1719 1.3984 Q2.6641 1.7188 2.6641 2.3906 Q2.6641 2.9219 2.9766 3.1953 Q3.2891 3.4688 3.8672 3.4688 Z"/></g></g></svg></svg></svg></svg></svg>