<svg width="218" viewBox="0 0 218 93" style="fill-opacity:1; color-rendering:auto; color-interpolation:auto; text-rendering:auto; stroke:black; stroke-linecap:square; stroke-miterlimit:10; shape-rendering:auto; stroke-opacity:1; fill:black; stroke-dasharray:none; font-weight:normal; stroke-width:1; font-family:'Open Sans'; font-style:normal; stroke-linejoin:miter; font-size:12; stroke-dashoffset:0; image-rendering:auto;" height="93" class="cas-substance-image" xmlns:xlink="http://www.w3.org/1999/xlink" xmlns="http://www.w3.org/2000/svg"><svg class="cas-substance-single-component"><rect y="0" x="0" width="218" stroke="none" ry="7" rx="7" height="93" fill="white" class="cas-substance-group"/><svg y="0" x="0" width="218" viewBox="0 0 218 93" style="fill:black;" height="93" class="cas-substance-single-component-image"><svg><g><g transform="translate(110,48)" style="text-rendering:geometricPrecision; color-rendering:optimizeQuality; color-interpolation:linearRGB; stroke-linecap:butt; image-rendering:optimizeQuality;"><line y2="-10.98" y1="-10.98" x2="-15" x1="-45" style="fill:none;"/><line y2="-10.98" y1="-10.98" x2="-75" x1="-45" style="fill:none;"/><line y2="-36.2573" y1="-10.98" x2="-45" x1="-45" style="fill:none;"/><line y2="12.6138" y1="-10.98" x2="-45" x1="-45" style="fill:none;"/><line y2="-10.98" y1="-10.98" x2="15" x1="-15" style="fill:none;"/><line y2="12.6138" y1="-10.98" x2="-15" x1="-15" style="fill:none;"/><line y2="-36.2573" y1="-10.98" x2="-15" x1="-15" style="fill:none;"/><line y2="-10.98" y1="-10.98" x2="-100.8147" x1="-75" style="fill:none;"/><line y2="-36.2573" y1="-10.98" x2="-75" x1="-75" style="fill:none;"/><line y2="12.6138" y1="-10.98" x2="-75" x1="-75" style="fill:none;"/><line y2="9.2724" y1="-10.98" x2="26.6931" x1="15" style="fill:none;"/><line y2="15" y1="15" x2="60" x1="35.9375" style="fill:none;"/><line y2="40.98" y1="15" x2="75" x1="60" style="fill:none;"/><line y2="-4.457" y1="16.75" x2="73.2546" x1="61.0104" style="fill:none;"/><line y2="-6.207" y1="15" x2="70.2235" x1="57.9793" style="fill:none;"/><line y2="40.98" y1="40.98" x2="105" x1="75" style="fill:none;"/><line y2="37.48" y1="37.48" x2="105" x1="77.0207" style="fill:none;"/></g><g transform="translate(110,48)" style="fill:rgb(0,138,0); text-rendering:geometricPrecision; color-rendering:optimizeQuality; image-rendering:optimizeQuality; font-family:'Open Sans'; stroke:rgb(0,138,0); color-interpolation:linearRGB;"><path style="stroke:none;" d="M-46.3906 -36.8238 L-47.3906 -36.8238 L-47.3906 -45.3863 L-42.6094 -45.3863 L-42.6094 -44.5113 L-46.3906 -44.5113 L-46.3906 -41.3706 L-42.8438 -41.3706 L-42.8438 -40.48 L-46.3906 -40.48 L-46.3906 -36.8238 Z"/><path style="stroke:none;" d="M-46.3906 23.1763 L-47.3906 23.1763 L-47.3906 14.6138 L-42.6094 14.6138 L-42.6094 15.4888 L-46.3906 15.4888 L-46.3906 18.6294 L-42.8438 18.6294 L-42.8438 19.52 L-46.3906 19.52 L-46.3906 23.1763 Z"/></g><g transform="translate(110,48)" style="stroke-linecap:butt; text-rendering:geometricPrecision; color-rendering:optimizeQuality; image-rendering:optimizeQuality; font-family:'Open Sans'; color-interpolation:linearRGB; stroke-miterlimit:5;"><path style="fill:none;" d="M14.5 -10.98 L15 -10.98 L15.25 -10.547"/><path style="fill:rgb(0,138,0); stroke:none;" d="M-16.3906 23.1763 L-17.3906 23.1763 L-17.3906 14.6138 L-12.6094 14.6138 L-12.6094 15.4888 L-16.3906 15.4888 L-16.3906 18.6294 L-12.8438 18.6294 L-12.8438 19.52 L-16.3906 19.52 L-16.3906 23.1763 Z"/><path style="fill:rgb(0,138,0); stroke:none;" d="M-16.3906 -36.8238 L-17.3906 -36.8238 L-17.3906 -45.3863 L-12.6094 -45.3863 L-12.6094 -44.5113 L-16.3906 -44.5113 L-16.3906 -41.3706 L-12.8438 -41.3706 L-12.8438 -40.48 L-16.3906 -40.48 L-16.3906 -36.8238 Z"/><path style="fill:rgb(0,138,0); stroke:none;" d="M-106.3906 -6.8237 L-107.3906 -6.8237 L-107.3906 -15.3862 L-102.6094 -15.3862 L-102.6094 -14.5112 L-106.3906 -14.5112 L-106.3906 -11.3706 L-102.8438 -11.3706 L-102.8438 -10.48 L-106.3906 -10.48 L-106.3906 -6.8237 Z"/><path style="fill:rgb(0,138,0); stroke:none;" d="M-76.3906 -36.8238 L-77.3906 -36.8238 L-77.3906 -45.3863 L-72.6094 -45.3863 L-72.6094 -44.5113 L-76.3906 -44.5113 L-76.3906 -41.3706 L-72.8438 -41.3706 L-72.8438 -40.48 L-76.3906 -40.48 L-76.3906 -36.8238 Z"/><path style="fill:rgb(0,138,0); stroke:none;" d="M-76.3906 23.1763 L-77.3906 23.1763 L-77.3906 14.6138 L-72.6094 14.6138 L-72.6094 15.4888 L-76.3906 15.4888 L-76.3906 18.6294 L-72.8438 18.6294 L-72.8438 19.52 L-76.3906 19.52 L-76.3906 23.1763 Z"/><path style="fill:rgb(230,0,0); stroke:none;" d="M33.9375 14.9297 Q33.9375 16.9922 32.8984 18.1719 Q31.8594 19.3516 30.0156 19.3516 Q28.125 19.3516 27.0938 18.1875 Q26.0625 17.0234 26.0625 14.9141 Q26.0625 12.8203 27.0938 11.6719 Q28.125 10.5234 30.0156 10.5234 Q31.875 10.5234 32.9062 11.6953 Q33.9375 12.8672 33.9375 14.9297 ZM27.1094 14.9297 Q27.1094 16.6641 27.8516 17.5703 Q28.5938 18.4766 30.0156 18.4766 Q31.4375 18.4766 32.1641 17.5781 Q32.8906 16.6797 32.8906 14.9297 Q32.8906 13.1953 32.1641 12.3047 Q31.4375 11.4141 30.0156 11.4141 Q28.5938 11.4141 27.8516 12.3125 Q27.1094 13.2109 27.1094 14.9297 Z"/><path style="fill:none;" d="M59.5 15 L60 15 L60.25 15.433"/><path style="fill:none;" d="M74.75 40.547 L75 40.98 L75.5 40.98"/><path style="fill:rgb(230,0,0); stroke:none;" d="M78.9375 -11.0503 Q78.9375 -8.9878 77.8984 -7.8081 Q76.8594 -6.6284 75.0156 -6.6284 Q73.125 -6.6284 72.0938 -7.7925 Q71.0625 -8.9566 71.0625 -11.0659 Q71.0625 -13.1597 72.0938 -14.3081 Q73.125 -15.4566 75.0156 -15.4566 Q76.875 -15.4566 77.9062 -14.2847 Q78.9375 -13.1128 78.9375 -11.0503 ZM72.1094 -11.0503 Q72.1094 -9.3159 72.8516 -8.4097 Q73.5938 -7.5034 75.0156 -7.5034 Q76.4375 -7.5034 77.1641 -8.4019 Q77.8906 -9.3003 77.8906 -11.0503 Q77.8906 -12.7847 77.1641 -13.6753 Q76.4375 -14.5659 75.0156 -14.5659 Q73.5938 -14.5659 72.8516 -13.6675 Q72.1094 -12.7691 72.1094 -11.0503 Z"/></g></g></svg></svg></svg></svg>