<svg xmlns:ns0="http://www.w3.org/2000/svg" xmlns="http://www.w3.org/2000/svg"><g transform="translate(0, 0)"><ns0:svg width="197" viewBox="0 0 197 116" style="fill-opacity:1; color-rendering:auto; color-interpolation:auto; text-rendering:auto; stroke:black; stroke-linecap:square; stroke-miterlimit:10; shape-rendering:auto; stroke-opacity:1; fill:black; stroke-dasharray:none; font-weight:normal; stroke-width:1; font-family:'Open Sans'; font-style:normal; stroke-linejoin:miter; font-size:12; stroke-dashoffset:0; image-rendering:auto;" height="116" class="cas-substance-image"><ns0:svg class="cas-substance-single-component"><ns0:rect y="0" x="0" width="197" stroke="none" ry="7" rx="7" height="116" fill="white" class="cas-substance-group" /><ns0:svg y="0" x="0" width="197" viewBox="0 0 197 116" style="fill:black;" height="116" class="cas-substance-single-component-image"><ns0:svg><ns0:g><ns0:g transform="translate(99,56)" style="text-rendering:geometricPrecision; color-rendering:optimizeQuality; color-interpolation:linearRGB; stroke-linecap:butt; image-rendering:optimizeQuality;"><ns0:line y2="22.5201" y1="45.8835" x2="-41.1456" x1="-33.5527" style="fill:none;" /><ns0:line y2="23.6015" y1="46.9653" x2="-44.4743" x1="-36.8813" style="fill:none;" /><ns0:line y2="-30.5783" y1="-52.803" x2="-40.3668" x1="-33.144" style="fill:none;" /><ns0:line y2="-15" y1="-32.634" x2="-70.947" x1="-95.217" style="fill:none;" /><ns0:line y2="0" y1="0" x2="65.217" x1="95.217" style="fill:none;" /><ns0:line y2="24.27" y1="5.7743" x2="-42.417" x1="-28.9784" style="fill:none;" /><ns0:line y2="-18.4957" y1="-6.0243" x2="-38.2216" x1="-29.1601" style="fill:none;" /><ns0:line y2="0" y1="0" x2="5.217" x1="-19.4314" style="fill:none;" /><ns0:line y2="15" y1="24.27" x2="-70.947" x1="-42.417" style="fill:none;" /><ns0:line y2="-15" y1="-22.563" x2="-70.947" x1="-47.6707" style="fill:none;" /><ns0:line y2="-15" y1="15" x2="-70.947" x1="-70.947" style="fill:none;" /><ns0:line y2="-12.9793" y1="12.9793" x2="-67.447" x1="-67.447" style="fill:none;" /><ns0:line y2="-25.98" y1="0" x2="20.217" x1="5.217" style="fill:none;" /><ns0:line y2="-22.48" y1="0.0001" x2="22.2377" x1="9.2585" style="fill:none;" /><ns0:line y2="25.98" y1="0" x2="20.217" x1="5.217" style="fill:none;" /><ns0:line y2="-25.98" y1="-25.98" x2="50.217" x1="20.217" style="fill:none;" /><ns0:line y2="25.98" y1="25.98" x2="50.217" x1="20.217" style="fill:none;" /><ns0:line y2="22.48" y1="22.48" x2="48.1963" x1="22.2377" style="fill:none;" /><ns0:line y2="0" y1="-25.98" x2="65.217" x1="50.217" style="fill:none;" /><ns0:line y2="0.0001" y1="-22.48" x2="61.1755" x1="48.1963" style="fill:none;" /><ns0:line y2="0" y1="25.98" x2="65.217" x1="50.217" style="fill:none;" /></ns0:g><ns0:g transform="translate(99,56)" style="fill:rgb(230,0,0); text-rendering:geometricPrecision; color-rendering:optimizeQuality; image-rendering:optimizeQuality; font-family:'Open Sans'; stroke:rgb(230,0,0); color-interpolation:linearRGB;"><ns0:path style="stroke:none;" d="M-29.2065 52.7327 Q-29.2065 54.7952 -30.2456 55.9749 Q-31.2846 57.1546 -33.1284 57.1546 Q-35.019 57.1546 -36.0503 55.9905 Q-37.0815 54.8264 -37.0815 52.7171 Q-37.0815 50.6233 -36.0503 49.4749 Q-35.019 48.3264 -33.1284 48.3264 Q-31.269 48.3264 -30.2378 49.4983 Q-29.2065 50.6702 -29.2065 52.7327 ZM-36.0346 52.7327 Q-36.0346 54.4671 -35.2924 55.3733 Q-34.5503 56.2796 -33.1284 56.2796 Q-31.7065 56.2796 -30.9799 55.3811 Q-30.2534 54.4827 -30.2534 52.7327 Q-30.2534 50.9983 -30.9799 50.1077 Q-31.7065 49.2171 -33.1284 49.2171 Q-34.5503 49.2171 -35.2924 50.1155 Q-36.0346 51.0139 -36.0346 52.7327 Z" /><ns0:path style="fill:rgb(0,5,255); stroke:none;" d="M-21.4314 4.1562 L-22.5721 4.1562 L-27.2596 -3.0312 L-27.3064 -3.0312 Q-27.2127 -1.7656 -27.2127 -0.7188 L-27.2127 4.1562 L-28.1346 4.1562 L-28.1346 -4.4062 L-27.0096 -4.4062 L-22.3377 2.75 L-22.2908 2.75 Q-22.2908 2.5938 -22.3377 1.7344 Q-22.3846 0.875 -22.3689 0.5 L-22.3689 -4.4062 L-21.4314 -4.4062 L-21.4314 4.1562 Z" /></ns0:g><ns0:g transform="translate(99,56)" style="stroke-linecap:butt; text-rendering:geometricPrecision; color-rendering:optimizeQuality; image-rendering:optimizeQuality; font-family:'Open Sans'; color-interpolation:linearRGB; stroke-miterlimit:5;"><ns0:path style="fill:none;" d="M-42.1231 23.8655 L-42.417 24.27 L-42.8925 24.1155" /><ns0:path style="fill:rgb(0,5,255); stroke:none;" d="M-39.0654 -20.1138 L-40.2061 -20.1138 L-44.8936 -27.3013 L-44.9404 -27.3013 Q-44.8467 -26.0356 -44.8467 -24.9888 L-44.8467 -20.1138 L-45.7686 -20.1138 L-45.7686 -28.6763 L-44.6436 -28.6763 L-39.9717 -21.52 L-39.9248 -21.52 Q-39.9248 -21.6763 -39.9717 -22.5356 Q-40.0186 -23.395 -40.0029 -23.77 L-40.0029 -28.6763 L-39.0654 -28.6763 L-39.0654 -20.1138 Z" /><ns0:path style="fill:none;" d="M-70.4715 15.1545 L-70.947 15 L-70.947 14.5" /><ns0:path style="fill:none;" d="M-70.947 -14.5 L-70.947 -15 L-70.4715 -15.1545" /><ns0:path style="fill:none;" d="M5.467 -0.433 L5.217 0 L4.717 -0" /><ns0:path style="fill:none;" d="M19.967 -25.547 L20.217 -25.98 L20.717 -25.98" /><ns0:path style="fill:none;" d="M19.967 25.547 L20.217 25.98 L20.717 25.98" /><ns0:path style="fill:none;" d="M49.717 -25.98 L50.217 -25.98 L50.467 -25.547" /><ns0:path style="fill:none;" d="M49.717 25.98 L50.217 25.98 L50.467 25.547" /><ns0:path style="fill:none;" d="M64.967 -0.433 L65.217 0 L65.717 0" /></ns0:g></ns0:g></ns0:svg></ns0:svg></ns0:svg></ns0:svg></g></svg>