<svg xmlns:ns0="http://www.w3.org/2000/svg" xmlns="http://www.w3.org/2000/svg"><g transform="translate(0, 0)"><ns0:svg width="215" viewBox="0 0 215 229" style="fill-opacity:1; color-rendering:auto; color-interpolation:auto; text-rendering:auto; stroke:black; stroke-linecap:square; stroke-miterlimit:10; shape-rendering:auto; stroke-opacity:1; fill:black; stroke-dasharray:none; font-weight:normal; stroke-width:1; font-family:'Open Sans'; font-style:normal; stroke-linejoin:miter; font-size:12; stroke-dashoffset:0; image-rendering:auto;" height="229" class="cas-substance-image"><ns0:svg class="cas-substance-single-component"><ns0:rect y="0" x="0" width="215" stroke="none" ry="7" rx="7" height="229" fill="white" class="cas-substance-group" /><ns0:svg y="0" x="0" width="215" viewBox="0 0 215 214" style="fill:black;" height="214" class="cas-substance-single-component-image"><ns0:svg><ns0:g><ns0:g transform="translate(107,107)" style="text-rendering:geometricPrecision; color-rendering:optimizeQuality; color-interpolation:linearRGB; stroke-linecap:butt; image-rendering:optimizeQuality;"><ns0:line y2="15" y1="2.9351" x2="-25.98" x1="-5.0836" style="fill:none;" /><ns0:line y2="-15" y1="-5.5063" x2="25.98" x1="9.5369" style="fill:none;" /><ns0:line y2="25.98" y1="5.8883" x2="15" x1="3.3997" style="fill:none;" /><ns0:line y2="-25.98" y1="-6.1383" x2="-15" x1="-3.544" style="fill:none;" /><ns0:line y2="0" y1="15" x2="-51.963" x1="-25.98" style="fill:none;" /><ns0:line y2="0" y1="-15" x2="51.963" x1="25.98" style="fill:none;" /><ns0:line y2="51.963" y1="25.98" x2="0" x1="15" style="fill:none;" /><ns0:line y2="-51.963" y1="-25.98" x2="0" x1="-15" style="fill:none;" /><ns0:line y2="-15" y1="0" x2="77.943" x1="51.963" style="fill:none;" /><ns0:line y2="77.943" y1="51.963" x2="15" x1="0" style="fill:none;" /><ns0:line y2="-77.943" y1="-51.963" x2="-15" x1="0" style="fill:none;" /><ns0:line y2="0" y1="-15" x2="103.923" x1="77.943" style="fill:none;" /><ns0:line y2="103.923" y1="77.943" x2="0" x1="15" style="fill:none;" /><ns0:line y2="-103.923" y1="-77.943" x2="0" x1="-15" style="fill:none;" /><ns0:line y2="-30" y1="0" x2="-51.963" x1="-51.963" style="fill:none;" /><ns0:line y2="-27.9793" y1="-2.0207" x2="-55.463" x1="-55.463" style="fill:none;" /><ns0:line y2="15" y1="0" x2="-77.943" x1="-51.963" style="fill:none;" /><ns0:line y2="-45" y1="-30" x2="-77.943" x1="-51.963" style="fill:none;" /><ns0:line y2="0" y1="15" x2="-103.923" x1="-77.943" style="fill:none;" /><ns0:line y2="-2.0207" y1="10.9585" x2="-100.423" x1="-77.9429" style="fill:none;" /><ns0:line y2="-30" y1="-45" x2="-103.923" x1="-77.943" style="fill:none;" /><ns0:line y2="-27.9793" y1="-40.9585" x2="-100.423" x1="-77.9429" style="fill:none;" /><ns0:line y2="-30" y1="0" x2="-103.923" x1="-103.923" style="fill:none;" /></ns0:g><ns0:g transform="translate(107,107)" style="fill:rgb(0,5,255); text-rendering:geometricPrecision; color-rendering:optimizeQuality; image-rendering:optimizeQuality; font-family:'Open Sans'; stroke:rgb(0,5,255); color-interpolation:linearRGB;"><ns0:path style="stroke:none;" d="M3.3516 4.1562 L2.2109 4.1562 L-2.4766 -3.0312 L-2.5234 -3.0312 Q-2.4297 -1.7656 -2.4297 -0.7188 L-2.4297 4.1562 L-3.3516 4.1562 L-3.3516 -4.4062 L-2.2266 -4.4062 L2.4453 2.75 L2.4922 2.75 Q2.4922 2.5938 2.4453 1.7344 Q2.3984 0.875 2.4141 0.5 L2.4141 -4.4062 L3.3516 -4.4062 L3.3516 4.1562 Z" /><ns0:path style="fill:black; stroke:none;" d="M6.4922 -2.8344 L8.1016 -2.8344 L8.1016 -2.2875 L6.4922 -2.2875 L6.4922 -0.6313 L5.9609 -0.6313 L5.9609 -2.2875 L4.3516 -2.2875 L4.3516 -2.8344 L5.9609 -2.8344 L5.9609 -4.5063 L6.4922 -4.5063 L6.4922 -2.8344 Z" /></ns0:g><ns0:g transform="translate(107,107)" style="stroke-linecap:butt; font-size:8.4px; text-rendering:geometricPrecision; color-rendering:optimizeQuality; image-rendering:optimizeQuality; font-family:'Open Sans'; color-interpolation:linearRGB; stroke-miterlimit:5;"><ns0:path style="fill:none;" d="M-25.547 14.75 L-25.98 15 L-26.413 14.75" /><ns0:path style="fill:none;" d="M25.547 -14.75 L25.98 -15 L26.413 -14.75" /><ns0:path style="fill:none;" d="M14.75 25.547 L15 25.98 L14.75 26.413" /><ns0:path style="fill:none;" d="M-14.75 -25.547 L-15 -25.98 L-14.75 -26.413" /><ns0:path style="fill:none;" d="M51.53 -0.25 L51.963 0 L52.396 -0.25" /><ns0:path style="fill:none;" d="M0.25 51.53 L0 51.963 L0.25 52.396" /><ns0:path style="fill:none;" d="M-0.25 -51.53 L0 -51.963 L-0.25 -52.396" /><ns0:path style="fill:none;" d="M77.51 -14.75 L77.943 -15 L78.376 -14.75" /><ns0:path style="fill:none;" d="M14.75 77.51 L15 77.943 L14.75 78.376" /><ns0:path style="fill:none;" d="M-14.75 -77.51 L-15 -77.943 L-14.75 -78.376" /><ns0:path style="fill:none;" d="M-51.963 -0.5 L-51.963 0 L-51.53 0.25" /><ns0:path style="fill:none;" d="M-51.963 -29.5 L-51.963 -30 L-52.396 -30.25" /><ns0:path style="fill:none;" d="M-77.51 14.75 L-77.943 15 L-78.376 14.75" /><ns0:path style="fill:none;" d="M-77.51 -44.75 L-77.943 -45 L-78.376 -44.75" /><ns0:path style="fill:none;" d="M-103.49 0.25 L-103.923 0 L-103.923 -0.5" /><ns0:path style="fill:none;" d="M-103.49 -30.25 L-103.923 -30 L-103.923 -29.5" /></ns0:g></ns0:g></ns0:svg></ns0:svg><ns0:svg y="214" x="99" class="cas-substance-saf"><ns0:svg y="5" x="0" width="4" style="fill:black;" height="4" class="cas-substance-saf-dot"><ns0:circle stroke="none" r="2" fill="black" cy="2" cx="2" /></ns0:svg><ns0:svg y="0" x="8" width="22" style="fill:black;" height="15" class="cas-substance-saf-image"><ns0:svg><ns0:g><ns0:g transform="translate(9,7)" style="fill:rgb(0,138,0); text-rendering:geometricPrecision; color-rendering:optimizeQuality; image-rendering:optimizeQuality; font-family:'Open Sans'; stroke:rgb(0,138,0); color-interpolation:linearRGB;"><ns0:path style="stroke:none;" d="M-5.6689 -4.4062 L-3.2471 -4.4062 Q-1.5439 -4.4062 -0.7783 -3.8984 Q-0.0127 -3.3906 -0.0127 -2.2969 Q-0.0127 -1.5312 -0.4346 -1.0312 Q-0.8564 -0.5312 -1.6846 -0.3906 L-1.6846 -0.3281 Q0.2686 0 0.2686 1.7188 Q0.2686 2.8594 -0.5049 3.5078 Q-1.2783 4.1562 -2.6689 4.1562 L-5.6689 4.1562 L-5.6689 -4.4062 ZM-4.6689 -0.75 L-3.0283 -0.75 Q-1.9658 -0.75 -1.5049 -1.0781 Q-1.0439 -1.4062 -1.0439 -2.1875 Q-1.0439 -2.9062 -1.5596 -3.2266 Q-2.0752 -3.5469 -3.2002 -3.5469 L-4.6689 -3.5469 L-4.6689 -0.75 ZM-4.6689 0.0938 L-4.6689 3.3125 L-2.8721 3.3125 Q-1.8408 3.3125 -1.3174 2.9062 Q-0.7939 2.5 -0.7939 1.6406 Q-0.7939 0.8438 -1.333 0.4688 Q-1.8721 0.0938 -2.9658 0.0938 L-4.6689 0.0938 ZM4.9033 -2.3906 Q5.3252 -2.3906 5.6689 -2.3125 L5.5283 -1.4062 Q5.1377 -1.5 4.8252 -1.5 Q4.0439 -1.5 3.4893 -0.8672 Q2.9346 -0.2344 2.9346 0.7031 L2.9346 4.1562 L1.9658 4.1562 L1.9658 -2.2656 L2.7627 -2.2656 L2.8877 -1.0781 L2.9346 -1.0781 Q3.2783 -1.7031 3.7861 -2.0469 Q4.2939 -2.3906 4.9033 -2.3906 Z" /><ns0:path style="fill:black; stroke:none;" d="M6.5986 -2.2719 L6.5986 -2.8656 L9.958 -2.8656 L9.958 -2.2719 L6.5986 -2.2719 Z" /></ns0:g></ns0:g></ns0:svg></ns0:svg></ns0:svg></ns0:svg></ns0:svg></g></svg>