<svg width="107" viewBox="0 0 107 90" style="fill-opacity:1; color-rendering:auto; color-interpolation:auto; text-rendering:auto; stroke:black; stroke-linecap:square; stroke-miterlimit:10; shape-rendering:auto; stroke-opacity:1; fill:black; stroke-dasharray:none; font-weight:normal; stroke-width:1; font-family:'Open Sans'; font-style:normal; stroke-linejoin:miter; font-size:12; stroke-dashoffset:0; image-rendering:auto;" height="90" class="cas-substance-image" xmlns:xlink="http://www.w3.org/1999/xlink" xmlns="http://www.w3.org/2000/svg"><svg class="cas-substance-single-component"><rect y="0" x="0" width="107" stroke="none" ry="7" rx="7" height="90" fill="white" class="cas-substance-group"/><svg y="0" x="0" width="107" viewBox="0 0 107 90" style="fill:black;" height="90" class="cas-substance-single-component-image"><svg><g><g transform="translate(55,42)" style="text-rendering:geometricPrecision; color-rendering:optimizeQuality; color-interpolation:linearRGB; stroke-linecap:butt; image-rendering:optimizeQuality;"><path style="stroke:none;" d="M15.5716 -13.5233 L15.1397 -12.6177 L15.1397 -12.6177 L19.8292 -9.9134 L19.8292 -9.9134 L20.3976 -10.7403 L20.3976 -10.7403 L15.5716 -13.5233 ZM14.276 -10.8064 L13.8441 -9.9007 L13.8441 -9.9007 L18.1239 -7.4327 L18.1239 -7.4327 L18.6923 -8.2596 L18.6923 -8.2596 L14.276 -10.8064 ZM12.9803 -8.0894 L12.5484 -7.1838 L12.5484 -7.1838 L16.4186 -4.9519 L16.987 -5.7789 L12.9803 -8.0894 ZM11.6846 -5.3725 L11.2527 -4.4668 L14.7133 -2.4712 L14.7133 -2.4712 L15.2817 -3.2981 L11.6846 -5.3725 ZM10.3889 -2.6555 L9.957 -1.7499 L13.008 0.0095 L13.5764 -0.8174 L10.3889 -2.6555 ZM9.0932 0.0614 L8.6613 0.9671 L11.3026 2.4902 L11.3026 2.4902 L11.8711 1.6633 L9.0932 0.0614 ZM7.7976 2.7784 L7.3657 3.684 L9.5973 4.971 L10.1658 4.1441 L10.1658 4.1441 L7.7976 2.7784 ZM6.5019 5.4953 L6.07 6.401 L6.07 6.401 L7.892 7.4517 L7.892 7.4517 L8.4605 6.6248 L8.4605 6.6248 L6.5019 5.4953 ZM5.2062 8.2123 L4.7743 9.1179 L4.7743 9.1179 L6.1867 9.9324 L6.1867 9.9324 L6.7552 9.1055 L6.7552 9.1055 L5.2062 8.2123 ZM3.9105 10.9292 L3.4786 11.8349 L3.4786 11.8349 L4.4814 12.4132 L4.4814 12.4132 L5.0498 11.5862 L5.0498 11.5862 L3.9105 10.9292 Z"/><line y2="-2.01" y1="12.99" x2="-22.5" x1="3.48" style="fill:none;"/><path style="stroke:none;" d="M3.23 13.423 L3.73 12.557 L30.9629 25.3919 L27.9631 30.5881 Z"/><line y2="32.8317" y1="12.99" x2="-7.976" x1="3.48" style="fill:none;"/><line y2="-12.99" y1="-12.99" x2="48.48" x1="18.48" style="fill:none;"/><line y2="-38.97" y1="-12.99" x2="3.48" x1="18.48" style="fill:none;"/><line y2="-25.6584" y1="-2.01" x2="-22.5" x1="-22.5" style="fill:none;"/><line y2="8.2484" y1="-4.0307" x2="-43.7675" x1="-22.5" style="fill:none;"/><line y2="11.2795" y1="-0.9996" x2="-42.0175" x1="-20.75" style="fill:none;"/></g><g transform="translate(55,42)" style="font-size:8.4px; fill:gray; text-rendering:geometricPrecision; image-rendering:optimizeQuality; color-rendering:optimizeQuality; font-family:'Open Sans'; font-style:italic; stroke:gray; color-interpolation:linearRGB;"><path style="stroke:none;" d="M-3.2163 4.5338 Q-3.2163 3.2056 -2.7476 2.0806 Q-2.2788 0.9556 -1.2476 -0.1225 L-0.6382 -0.1225 Q-1.607 0.94 -2.0913 2.1119 Q-2.5757 3.2838 -2.5757 4.5181 Q-2.5757 5.8463 -2.1382 6.8619 L-2.6538 6.8619 Q-3.2163 5.8306 -3.2163 4.5338 ZM2.4062 3.94 Q2.4062 4.7681 1.8593 5.2213 Q1.3125 5.6744 0.3125 5.6744 Q-0.0938 5.6744 -0.4063 5.6197 Q-0.7188 5.565 -1 5.4244 L-1 4.7681 Q-0.375 5.0963 0.3281 5.0963 Q0.9531 5.0963 1.3281 4.7994 Q1.7031 4.5025 1.7031 3.9869 Q1.7031 3.6744 1.5 3.4478 Q1.2968 3.2213 0.7343 2.8931 Q0.1406 2.565 -0.086 2.2369 Q-0.3125 1.9088 -0.3125 1.4556 Q-0.3125 0.7213 0.2031 0.2603 Q0.7187 -0.2006 1.5625 -0.2006 Q1.9375 -0.2006 2.2734 -0.1225 Q2.6093 -0.0444 2.9843 0.1275 L2.7187 0.7213 Q2.4687 0.565 2.1484 0.4791 Q1.8281 0.3931 1.5625 0.3931 Q1.0312 0.3931 0.7109 0.6666 Q0.3906 0.94 0.3906 1.4088 Q0.3906 1.6119 0.4609 1.7603 Q0.5312 1.9088 0.6718 2.0416 Q0.8125 2.1744 1.2343 2.4244 Q1.7968 2.7681 2 2.9635 Q2.2031 3.1588 2.3046 3.3931 Q2.4062 3.6275 2.4062 3.94 ZM5.0007 2.2213 Q5.0007 3.5494 4.5241 4.6822 Q4.0476 5.815 3.0319 6.8619 L2.4226 6.8619 Q4.3601 4.7056 4.3601 2.2213 Q4.3601 0.8931 3.9226 -0.1225 L4.4382 -0.1225 Q5.0007 0.94 5.0007 2.2213 Z"/></g><g transform="translate(55,42)" style="stroke-linecap:butt; font-size:8.4px; text-rendering:geometricPrecision; image-rendering:optimizeQuality; color-rendering:optimizeQuality; font-family:'Open Sans'; font-style:italic; color-interpolation:linearRGB; stroke-miterlimit:5;"><path style="fill:none;" d="M18.98 -12.99 L18.48 -12.99 L18.23 -13.423"/><path style="fill:none;" d="M-22.067 -1.76 L-22.5 -2.01 L-22.5 -2.51"/></g><g transform="translate(55,42)" style="stroke-linecap:butt; fill:rgb(0,5,255); text-rendering:geometricPrecision; color-rendering:optimizeQuality; image-rendering:optimizeQuality; font-family:'Open Sans'; stroke:rgb(0,5,255); color-interpolation:linearRGB; stroke-miterlimit:5;"><path style="stroke:none;" d="M-8.1684 43.1263 L-9.3091 43.1263 L-13.9966 35.9388 L-14.0434 35.9388 Q-13.9497 37.2044 -13.9497 38.2513 L-13.9497 43.1263 L-14.8716 43.1263 L-14.8716 34.5638 L-13.7466 34.5638 L-9.0747 41.72 L-9.0278 41.72 Q-9.0278 41.5638 -9.0747 40.7044 Q-9.1216 39.845 -9.1059 39.47 L-9.1059 34.5638 L-8.1684 34.5638 L-8.1684 43.1263 Z"/><path style="stroke:none;" d="M-20.6216 43.1263 L-21.6216 43.1263 L-21.6216 39.095 L-26.1372 39.095 L-26.1372 43.1263 L-27.1372 43.1263 L-27.1372 34.5638 L-26.1372 34.5638 L-26.1372 38.2044 L-21.6216 38.2044 L-21.6216 34.5638 L-20.6216 34.5638 L-20.6216 43.1263 Z"/><path style="stroke:none;" d="M-15.8716 44.9356 L-19.6216 44.9356 L-19.6216 44.3731 L-18.1216 42.8575 Q-17.4341 42.17 -17.2153 41.8731 Q-16.9966 41.5763 -16.8872 41.295 Q-16.7778 41.0138 -16.7778 40.6856 Q-16.7778 40.2325 -17.0513 39.9669 Q-17.3247 39.7013 -17.8247 39.7013 Q-18.1684 39.7013 -18.4888 39.8184 Q-18.8091 39.9356 -19.1997 40.2325 L-19.5434 39.795 Q-18.7622 39.1388 -17.8247 39.1388 Q-17.0278 39.1388 -16.5669 39.5528 Q-16.1059 39.9669 -16.1059 40.6544 Q-16.1059 41.2013 -16.4106 41.7325 Q-16.7153 42.2638 -17.5591 43.0763 L-18.8091 44.295 L-18.8091 44.3263 L-15.8716 44.3263 L-15.8716 44.9356 Z"/><path style="fill:rgb(230,0,0); stroke:none;" d="M-18.5625 -32.0803 Q-18.5625 -30.0178 -19.6016 -28.8381 Q-20.6406 -27.6584 -22.4844 -27.6584 Q-24.375 -27.6584 -25.4062 -28.8225 Q-26.4375 -29.9866 -26.4375 -32.0959 Q-26.4375 -34.1897 -25.4062 -35.3381 Q-24.375 -36.4866 -22.4844 -36.4866 Q-20.625 -36.4866 -19.5938 -35.3147 Q-18.5625 -34.1428 -18.5625 -32.0803 ZM-25.3906 -32.0803 Q-25.3906 -30.3459 -24.6484 -29.4397 Q-23.9062 -28.5334 -22.4844 -28.5334 Q-21.0625 -28.5334 -20.3359 -29.4319 Q-19.6094 -30.3303 -19.6094 -32.0803 Q-19.6094 -33.8147 -20.3359 -34.7053 Q-21.0625 -35.5959 -22.4844 -35.5959 Q-23.9062 -35.5959 -24.6484 -34.6975 Q-25.3906 -33.7991 -25.3906 -32.0803 Z"/><path style="fill:rgb(230,0,0); stroke:none;" d="M-11.0469 -27.7834 L-12.0469 -27.7834 L-12.0469 -31.8147 L-16.5625 -31.8147 L-16.5625 -27.7834 L-17.5625 -27.7834 L-17.5625 -36.3459 L-16.5625 -36.3459 L-16.5625 -32.7053 L-12.0469 -32.7053 L-12.0469 -36.3459 L-11.0469 -36.3459 L-11.0469 -27.7834 Z"/><path style="fill:rgb(230,0,0); stroke:none;" d="M-44.5425 12.9197 Q-44.5425 14.9822 -45.5816 16.1619 Q-46.6206 17.3416 -48.4644 17.3416 Q-50.355 17.3416 -51.3863 16.1775 Q-52.4175 15.0134 -52.4175 12.9041 Q-52.4175 10.8103 -51.3863 9.6619 Q-50.355 8.5134 -48.4644 8.5134 Q-46.605 8.5134 -45.5738 9.6853 Q-44.5425 10.8572 -44.5425 12.9197 ZM-51.3706 12.9197 Q-51.3706 14.6541 -50.6284 15.5603 Q-49.8863 16.4666 -48.4644 16.4666 Q-47.0425 16.4666 -46.3159 15.5681 Q-45.5894 14.6697 -45.5894 12.9197 Q-45.5894 11.1853 -46.3159 10.2947 Q-47.0425 9.4041 -48.4644 9.4041 Q-49.8863 9.4041 -50.6284 10.3025 Q-51.3706 11.2009 -51.3706 12.9197 Z"/></g></g></svg></svg></svg></svg>