<svg width="264" viewBox="0 0 264 166" style="fill-opacity:1; color-rendering:auto; color-interpolation:auto; text-rendering:auto; stroke:black; stroke-linecap:square; stroke-miterlimit:10; shape-rendering:auto; stroke-opacity:1; fill:black; stroke-dasharray:none; font-weight:normal; stroke-width:1; font-family:'Open Sans'; font-style:normal; stroke-linejoin:miter; font-size:12; stroke-dashoffset:0; image-rendering:auto;" height="166" class="cas-substance-image" xmlns:xlink="http://www.w3.org/1999/xlink" xmlns="http://www.w3.org/2000/svg"><svg class="cas-substance-single-component"><rect y="0" x="0" width="264" stroke="none" ry="7" rx="7" height="166" fill="white" class="cas-substance-group"/><svg y="0" x="0" width="264" viewBox="0 0 264 166" style="fill:black;" height="166" class="cas-substance-single-component-image"><svg><g><g transform="translate(131,80)" style="text-rendering:geometricPrecision; color-rendering:optimizeQuality; color-interpolation:linearRGB; stroke-linecap:butt; image-rendering:optimizeQuality;"><line y2="-30" y1="-17.9351" x2="-80.841" x1="-59.9446" style="fill:none;"/><line y2="15" y1="-8.8438" x2="-54.861" x1="-54.861" style="fill:none;"/><path style="stroke:none;" d="M-30.1064 -29.9957 L-31.0244 -29.5854 L-31.0244 -29.5854 L-30.311 -28.3482 L-30.311 -28.3482 L-29.4965 -28.938 L-29.4965 -28.938 L-30.1064 -29.9957 ZM-32.8605 -28.7647 L-33.7786 -28.3543 L-33.7786 -28.3543 L-32.7545 -26.5785 L-31.94 -27.1684 L-31.94 -27.1684 L-32.8605 -28.7647 ZM-35.6147 -27.5337 L-36.5327 -27.1233 L-36.5327 -27.1233 L-35.198 -24.8089 L-34.3835 -25.3988 L-34.3835 -25.3988 L-35.6147 -27.5337 ZM-38.3688 -26.3026 L-39.2868 -25.8923 L-39.2868 -25.8923 L-37.6416 -23.0393 L-37.6416 -23.0393 L-36.8271 -23.6291 L-36.8271 -23.6291 L-38.3688 -26.3026 ZM-41.1229 -25.0716 L-42.041 -24.6613 L-42.041 -24.6613 L-40.0851 -21.2696 L-39.2706 -21.8595 L-41.1229 -25.0716 ZM-43.8771 -23.8406 L-44.7951 -23.4303 L-44.7951 -23.4303 L-42.5287 -19.5 L-41.7141 -20.0899 L-43.8771 -23.8406 ZM-46.6312 -22.6096 L-47.5493 -22.1992 L-47.5493 -22.1992 L-44.9722 -17.7304 L-44.1577 -18.3202 L-44.1577 -18.3202 L-46.6312 -22.6096 ZM-49.3853 -21.3786 L-50.3034 -20.9682 L-50.3034 -20.9682 L-47.4157 -15.9607 L-46.6012 -16.5506 L-46.6012 -16.5506 L-49.3853 -21.3786 Z"/><path style="stroke:none;" d="M-52.5436 -77.0308 L-55.4583 -71.9765 L-55.4583 -71.9765 L-54.5503 -71.5486 L-54.5503 -71.5486 L-51.719 -76.4585 L-51.719 -76.4585 L-52.5436 -77.0308 ZM-50.0697 -75.3138 L-52.7345 -70.6927 L-52.7345 -70.6927 L-51.8266 -70.2648 L-51.8266 -70.2648 L-49.245 -74.7415 L-49.245 -74.7415 L-50.0697 -75.3138 ZM-47.5957 -73.5969 L-50.0108 -69.409 L-50.0108 -69.409 L-49.1028 -68.9811 L-49.1028 -68.9811 L-46.7711 -73.0246 L-46.7711 -73.0246 L-47.5957 -73.5969 ZM-45.1218 -71.88 L-47.287 -68.1253 L-47.287 -68.1253 L-46.3791 -67.6974 L-46.3791 -67.6974 L-44.2972 -71.3076 L-44.2972 -71.3076 L-45.1218 -71.88 ZM-42.6479 -70.163 L-44.5632 -66.8416 L-44.5632 -66.8416 L-43.6553 -66.4137 L-43.6553 -66.4137 L-41.8233 -69.5907 L-41.8233 -69.5907 L-42.6479 -70.163 ZM-40.174 -68.4461 L-41.8395 -65.5579 L-41.8395 -65.5579 L-40.9316 -65.13 L-39.3493 -67.8738 L-40.174 -68.4461 ZM-37.7001 -66.7291 L-39.1157 -64.2742 L-39.1157 -64.2742 L-38.2078 -63.8463 L-38.2078 -63.8463 L-36.8754 -66.1568 L-36.8754 -66.1568 L-37.7001 -66.7291 ZM-35.2261 -65.0122 L-36.392 -62.9905 L-35.4841 -62.5626 L-35.4841 -62.5626 L-34.4015 -64.4399 L-34.4015 -64.4399 L-35.2261 -65.0122 ZM-32.7522 -63.2953 L-33.6682 -61.7068 L-33.6682 -61.7068 L-32.7603 -61.2789 L-31.9276 -62.723 L-31.9276 -62.723 L-32.7522 -63.2953 ZM-30.2783 -61.5783 L-30.9445 -60.4231 L-30.9445 -60.4231 L-30.0366 -59.9952 L-30.0366 -59.9952 L-29.4537 -61.006 L-29.4537 -61.006 L-30.2783 -61.5783 Z"/><line y2="-30" y1="-15" x2="75.045" x1="49.062" style="fill:none;"/><line y2="8.5234" y1="-16.0104" x2="47.312" x1="47.312" style="fill:none;"/><line y2="8.5234" y1="-16.0103" x2="50.812" x1="50.812" style="fill:none;"/><line y2="-27.0649" y1="-15" x2="28.1656" x1="49.062" style="fill:none;"/><line y2="-15" y1="-30" x2="101.025" x1="75.045" style="fill:none;"/><line y2="-2.9351" y1="-15" x2="121.9214" x1="101.025" style="fill:none;"/><line y2="-5.9662" y1="-18.0311" x2="123.6714" x1="102.775" style="fill:none;"/><line y2="0.096" y1="-11.9689" x2="120.1714" x1="99.275" style="fill:none;"/><line y2="15" y1="30" x2="-54.861" x1="-80.841" style="fill:none;"/><line y2="19.0415" y1="32.0207" x2="-54.861" x1="-77.341" style="fill:none;"/><line y2="60" y1="30" x2="-80.841" x1="-80.841" style="fill:none;"/><line y2="20.73" y1="30" x2="-109.371" x1="-80.841" style="fill:none;"/><line y2="27.0652" y1="15" x2="-33.9617" x1="-54.861" style="fill:none;"/><line y2="67.563" y1="60" x2="-104.1173" x1="-80.841" style="fill:none;"/><line y2="72.0649" y1="60" x2="-59.9446" x1="-80.841" style="fill:none;"/><line y2="69.0338" y1="57.9793" x2="-58.1946" x1="-77.341" style="fill:none;"/><line y2="45" y1="20.73" x2="-127.005" x1="-109.371" style="fill:none;"/><line y2="45.4225" y1="24.4221" x2="-122.9857" x1="-107.7273" style="fill:none;"/><line y2="60" y1="36.1562" x2="-28.878" x1="-28.878" style="fill:none;"/><line y2="57.9793" y1="36.1562" x2="-32.378" x1="-32.378" style="fill:none;"/><line y2="45" y1="63.2457" x2="-127.005" x1="-113.7481" style="fill:none;"/><line y2="60" y1="72.0652" x2="-28.878" x1="-49.7773" style="fill:none;"/><line y2="-15" y1="-30" x2="-2.898" x1="-28.878" style="fill:none;"/><line y2="-60" y1="-30" x2="-28.878" x1="-28.878" style="fill:none;"/><line y2="-27.0649" y1="-15" x2="17.9984" x1="-2.898" style="fill:none;"/><line y2="-75" y1="-60" x2="-2.898" x1="-28.878" style="fill:none;"/><line y2="-60" y1="-36.4062" x2="23.082" x1="23.082" style="fill:none;"/><line y2="-60" y1="-75" x2="23.082" x1="-2.898" style="fill:none;"/></g><g transform="translate(131,80)" style="fill:rgb(0,5,255); text-rendering:geometricPrecision; color-rendering:optimizeQuality; image-rendering:optimizeQuality; font-family:'Open Sans'; stroke:rgb(0,5,255); color-interpolation:linearRGB;"><path style="stroke:none;" d="M-51.5094 -10.8438 L-52.6501 -10.8438 L-57.3376 -18.0312 L-57.3844 -18.0312 Q-57.2907 -16.7656 -57.2907 -15.7188 L-57.2907 -10.8438 L-58.2126 -10.8438 L-58.2126 -19.4062 L-57.0876 -19.4062 L-52.4157 -12.25 L-52.3688 -12.25 Q-52.3688 -12.4062 -52.4157 -13.2656 Q-52.4626 -14.125 -52.4469 -14.5 L-52.4469 -19.4062 L-51.5094 -19.4062 L-51.5094 -10.8438 Z"/></g><g transform="translate(131,80)" style="stroke-linecap:butt; text-rendering:geometricPrecision; color-rendering:optimizeQuality; image-rendering:optimizeQuality; font-family:'Open Sans'; color-interpolation:linearRGB; stroke-miterlimit:5;"><path style="fill:none;" d="M49.495 -15.25 L49.062 -15 L48.629 -15.25"/><path style="fill:none;" d="M74.612 -29.75 L75.045 -30 L75.478 -29.75"/><path style="fill:rgb(230,0,0); stroke:none;" d="M52.9995 14.9297 Q52.9995 16.9922 51.9604 18.1719 Q50.9214 19.3516 49.0776 19.3516 Q47.187 19.3516 46.1558 18.1875 Q45.1245 17.0234 45.1245 14.9141 Q45.1245 12.8203 46.1558 11.6719 Q47.187 10.5234 49.0776 10.5234 Q50.937 10.5234 51.9683 11.6953 Q52.9995 12.8672 52.9995 14.9297 ZM46.1714 14.9297 Q46.1714 16.6641 46.9136 17.5703 Q47.6558 18.4766 49.0776 18.4766 Q50.4995 18.4766 51.2261 17.5781 Q51.9526 16.6797 51.9526 14.9297 Q51.9526 13.1953 51.2261 12.3047 Q50.4995 11.4141 49.0776 11.4141 Q47.6558 11.4141 46.9136 12.3125 Q46.1714 13.2109 46.1714 14.9297 Z"/><path style="fill:none;" d="M100.592 -15.25 L101.025 -15 L101.458 -14.75"/><path style="fill:rgb(0,5,255); stroke:none;" d="M130.3566 4.1562 L129.2159 4.1562 L124.5284 -3.0312 L124.4816 -3.0312 Q124.5753 -1.7656 124.5753 -0.7188 L124.5753 4.1562 L123.6534 4.1562 L123.6534 -4.4062 L124.7784 -4.4062 L129.4503 2.75 L129.4972 2.75 Q129.4972 2.5938 129.4503 1.7344 Q129.4034 0.875 129.4191 0.5 L129.4191 -4.4062 L130.3566 -4.4062 L130.3566 4.1562 Z"/><path style="fill:none;" d="M-80.408 29.75 L-80.841 30 L-80.841 30.5"/><path style="fill:none;" d="M-55.294 15.25 L-54.861 15 L-54.861 14.5"/><path style="fill:none;" d="M-80.408 60.25 L-80.841 60 L-80.841 59.5"/><path style="fill:none;" d="M-108.8955 20.8845 L-109.371 20.73 L-109.6649 21.1345"/><path style="fill:rgb(0,5,255); stroke:none;" d="M-25.5264 34.1562 L-26.6671 34.1562 L-31.3546 26.9688 L-31.4014 26.9688 Q-31.3077 28.2344 -31.3077 29.2812 L-31.3077 34.1562 L-32.2296 34.1562 L-32.2296 25.5938 L-31.1046 25.5938 L-26.4327 32.75 L-26.3858 32.75 Q-26.3858 32.5938 -26.4327 31.7344 Q-26.4796 30.875 -26.4639 30.5 L-26.4639 25.5938 L-25.5264 25.5938 L-25.5264 34.1562 Z"/><path style="fill:rgb(0,5,255); stroke:none;" d="M-106.0194 73.4263 L-107.1601 73.4263 L-111.8476 66.2388 L-111.8944 66.2388 Q-111.8007 67.5044 -111.8007 68.5513 L-111.8007 73.4263 L-112.7226 73.4263 L-112.7226 64.8638 L-111.5976 64.8638 L-106.9257 72.02 L-106.8788 72.02 Q-106.8788 71.8638 -106.9257 71.0044 Q-106.9726 70.145 -106.9569 69.77 L-106.9569 64.8638 L-106.0194 64.8638 L-106.0194 73.4263 Z"/><path style="fill:rgb(0,5,255); stroke:none;" d="M-106.1132 82.9888 L-107.1132 82.9888 L-107.1132 78.9575 L-111.6288 78.9575 L-111.6288 82.9888 L-112.6288 82.9888 L-112.6288 74.4263 L-111.6288 74.4263 L-111.6288 78.0669 L-107.1132 78.0669 L-107.1132 74.4263 L-106.1132 74.4263 L-106.1132 82.9888 Z"/><path style="fill:rgb(0,5,255); stroke:none;" d="M-51.5094 79.1562 L-52.6501 79.1562 L-57.3376 71.9688 L-57.3844 71.9688 Q-57.2907 73.2344 -57.2907 74.2812 L-57.2907 79.1562 L-58.2126 79.1562 L-58.2126 70.5938 L-57.0876 70.5938 L-52.4157 77.75 L-52.3688 77.75 Q-52.3688 77.5938 -52.4157 76.7344 Q-52.4626 75.875 -52.4469 75.5 L-52.4469 70.5938 L-51.5094 70.5938 L-51.5094 79.1562 Z"/><path style="fill:none;" d="M-126.7111 44.5955 L-127.005 45 L-126.7111 45.4045"/><path style="fill:none;" d="M-28.878 59.5 L-28.878 60 L-29.311 60.25"/><path style="fill:none;" d="M-28.445 -29.75 L-28.878 -30 L-28.878 -30.5"/></g><g transform="translate(131,80)" style="stroke-linecap:butt; font-size:8.4px; fill:gray; text-rendering:geometricPrecision; image-rendering:optimizeQuality; color-rendering:optimizeQuality; font-family:'Open Sans'; font-style:italic; stroke:gray; color-interpolation:linearRGB; stroke-miterlimit:5;"><path style="stroke:none;" d="M-41.927 -33.8358 Q-41.927 -35.164 -41.4582 -36.289 Q-40.9895 -37.414 -39.9582 -38.4921 L-39.3488 -38.4921 Q-40.3176 -37.4296 -40.802 -36.2577 Q-41.2863 -35.0858 -41.2863 -33.8515 Q-41.2863 -32.5233 -40.8488 -31.5077 L-41.3645 -31.5077 Q-41.927 -32.539 -41.927 -33.8358 ZM-38.3669 -35.1483 L-38.8669 -32.7733 L-39.5231 -32.7733 L-38.32 -38.4921 L-37.07 -38.4921 Q-35.3356 -38.4921 -35.3356 -37.0546 Q-35.3356 -35.6952 -36.7731 -35.3046 L-35.8356 -32.7733 L-36.5544 -32.7733 L-37.3825 -35.1483 L-38.3669 -35.1483 ZM-37.7888 -37.8983 Q-38.1794 -35.9765 -38.2419 -35.7265 L-37.5856 -35.7265 Q-36.8356 -35.7265 -36.4294 -36.0546 Q-36.0231 -36.3827 -36.0231 -37.0077 Q-36.0231 -37.4765 -36.281 -37.6874 Q-36.5388 -37.8983 -37.1325 -37.8983 L-37.7888 -37.8983 ZM-33.1497 -36.1483 Q-33.1497 -34.8202 -33.6262 -33.6874 Q-34.1028 -32.5546 -35.1184 -31.5077 L-35.7278 -31.5077 Q-33.7903 -33.664 -33.7903 -36.1483 Q-33.7903 -37.4765 -34.2278 -38.4921 L-33.7122 -38.4921 Q-33.1497 -37.4296 -33.1497 -36.1483 Z"/><path style="fill:none; stroke:black;" d="M-3.331 -15.25 L-2.898 -15 L-2.465 -15.25"/><path style="fill:none; stroke:black;" d="M-28.878 -59.5 L-28.878 -60 L-28.445 -60.25"/><path style="stroke:none;" d="M-33.2669 -68.8359 Q-33.2669 -70.1641 -32.7981 -71.2891 Q-32.3294 -72.4141 -31.2981 -73.4922 L-30.6888 -73.4922 Q-31.6575 -72.4297 -32.1419 -71.2578 Q-32.6263 -70.0859 -32.6263 -68.8516 Q-32.6263 -67.5234 -32.1888 -66.5078 L-32.7044 -66.5078 Q-33.2669 -67.5391 -33.2669 -68.8359 ZM-29.7068 -70.1484 L-30.2068 -67.7734 L-30.8631 -67.7734 L-29.66 -73.4922 L-28.41 -73.4922 Q-26.6756 -73.4922 -26.6756 -72.0547 Q-26.6756 -70.6953 -28.1131 -70.3047 L-27.1756 -67.7734 L-27.8943 -67.7734 L-28.7225 -70.1484 L-29.7068 -70.1484 ZM-29.1287 -72.8984 Q-29.5193 -70.9766 -29.5818 -70.7266 L-28.9256 -70.7266 Q-28.1756 -70.7266 -27.7693 -71.0547 Q-27.3631 -71.3828 -27.3631 -72.0078 Q-27.3631 -72.4766 -27.6209 -72.6875 Q-27.8787 -72.8984 -28.4725 -72.8984 L-29.1287 -72.8984 ZM-24.4896 -71.1484 Q-24.4896 -69.8203 -24.9662 -68.6875 Q-25.4427 -67.5547 -26.4584 -66.5078 L-27.0677 -66.5078 Q-25.1302 -68.6641 -25.1302 -71.1484 Q-25.1302 -72.4766 -25.5677 -73.4922 L-25.0521 -73.4922 Q-24.4896 -72.4297 -24.4896 -71.1484 Z"/></g><g transform="translate(131,80)" style="stroke-linecap:butt; fill:rgb(0,5,255); text-rendering:geometricPrecision; color-rendering:optimizeQuality; image-rendering:optimizeQuality; font-family:'Open Sans'; stroke:rgb(0,5,255); color-interpolation:linearRGB; stroke-miterlimit:5;"><path style="stroke:none;" d="M26.4336 -25.8438 L25.2929 -25.8438 L20.6054 -33.0312 L20.5586 -33.0312 Q20.6523 -31.7656 20.6523 -30.7188 L20.6523 -25.8438 L19.7304 -25.8438 L19.7304 -34.4062 L20.8554 -34.4062 L25.5273 -27.25 L25.5742 -27.25 Q25.5742 -27.4062 25.5273 -28.2656 Q25.4804 -29.125 25.4961 -29.5 L25.4961 -34.4062 L26.4336 -34.4062 L26.4336 -25.8438 Z"/><path style="fill:none; stroke:black;" d="M-3.331 -74.75 L-2.898 -75 L-2.465 -74.75"/><path style="fill:none; stroke:black;" d="M23.082 -59.5 L23.082 -60 L22.649 -60.25"/></g></g></svg></svg></svg></svg>