<svg xmlns:ns0="http://www.w3.org/2000/svg" xmlns="http://www.w3.org/2000/svg"><g transform="translate(0, 0)"><ns0:svg width="396" viewBox="0 0 396 206" style="fill-opacity:1; color-rendering:auto; color-interpolation:auto; text-rendering:auto; stroke:black; stroke-linecap:square; stroke-miterlimit:10; shape-rendering:auto; stroke-opacity:1; fill:black; stroke-dasharray:none; font-weight:normal; stroke-width:1; font-family:'Open Sans'; font-style:normal; stroke-linejoin:miter; font-size:12; stroke-dashoffset:0; image-rendering:auto;" height="206" class="cas-substance-image"><ns0:svg class="cas-substance-single-component"><ns0:rect y="0" x="0" width="396" stroke="none" ry="7" rx="7" height="206" fill="white" class="cas-substance-group" /><ns0:svg y="0" x="0" width="396" viewBox="0 0 396 206" style="fill:black;" height="206" class="cas-substance-single-component-image"><ns0:svg><ns0:g><ns0:g transform="translate(198,101)" style="text-rendering:geometricPrecision; color-rendering:optimizeQuality; color-interpolation:linearRGB; stroke-linecap:butt; image-rendering:optimizeQuality;"><ns0:line y2="7.5" y1="31.0938" x2="-64.953" x1="-64.953" style="fill:none;" /><ns0:line y2="52.5" y1="40.4351" x2="-90.933" x1="-70.0366" style="fill:none;" /><ns0:line y2="-4.9583" y1="4.5649" x2="8.5878" x1="-7.9064" style="fill:none;" /><ns0:line y2="-7.5" y1="4.5649" x2="-38.97" x1="-18.0736" style="fill:none;" /><ns0:line y2="13.6274" y1="-1.3314" x2="23.1675" x1="14.5308" style="fill:none;" /><ns0:line y2="11.8774" y1="-3.0815" x2="26.1986" x1="17.5619" style="fill:none;" /><ns0:line y2="-28.7193" y1="-13.774" x2="2.7594" x1="11.3883" style="fill:none;" /><ns0:line y2="-26.9693" y1="-12.024" x2="-0.2717" x1="8.3573" style="fill:none;" /><ns0:line y2="-22.5" y1="-9.8781" x2="38.97" x1="17.1089" style="fill:none;" /><ns0:line y2="82.5" y1="94.2527" x2="-90.933" x1="-70.5773" style="fill:none;" /><ns0:line y2="52.5" y1="40.6888" x2="-194.856" x1="-174.399" style="fill:none;" /><ns0:line y2="52.5" y1="40.6784" x2="-142.893" x1="-163.3705" style="fill:none;" /><ns0:line y2="-22.5" y1="-10.4351" x2="142.893" x1="121.9966" style="fill:none;" /><ns0:line y2="-22.5" y1="-10.4351" x2="90.933" x1="111.8294" style="fill:none;" /><ns0:line y2="-7.5" y1="-22.5" x2="168.876" x1="142.893" style="fill:none;" /><ns0:line y2="-46.1484" y1="-21.4897" x2="144.643" x1="144.643" style="fill:none;" /><ns0:line y2="-46.1484" y1="-21.4896" x2="141.143" x1="141.143" style="fill:none;" /><ns0:line y2="-33.48" y1="-7.5" x2="183.876" x1="168.876" style="fill:none;" /><ns0:line y2="7.5" y1="-7.5" x2="194.856" x1="168.876" style="fill:none;" /><ns0:line y2="12.3417" y1="-7.5" x2="157.4201" x1="168.876" style="fill:none;" /><ns0:line y2="-7.5" y1="7.5" x2="-38.97" x1="-64.953" style="fill:none;" /><ns0:line y2="-4.5649" y1="7.5" x2="-85.8494" x1="-64.953" style="fill:none;" /><ns0:line y2="-7.596" y1="3.4585" x2="-84.0994" x1="-64.9529" style="fill:none;" /><ns0:line y2="-31.3438" y1="-7.5" x2="-38.97" x1="-38.97" style="fill:none;" /><ns0:line y2="-31.3438" y1="-9.5207" x2="-42.47" x1="-42.47" style="fill:none;" /><ns0:line y2="-37.5" y1="-13.9062" x2="-90.933" x1="-90.933" style="fill:none;" /><ns0:line y2="-52.5" y1="-40.4348" x2="-64.953" x1="-44.0537" style="fill:none;" /><ns0:line y2="-52.5" y1="-37.5" x2="-64.953" x1="-90.933" style="fill:none;" /><ns0:line y2="-54.5207" y1="-41.5415" x2="-68.453" x1="-90.9331" style="fill:none;" /><ns0:line y2="-52.5" y1="-37.5" x2="-116.913" x1="-90.933" style="fill:none;" /><ns0:line y2="-82.5" y1="-52.5" x2="-64.953" x1="-64.953" style="fill:none;" /><ns0:line y2="-82.5" y1="-52.5" x2="-116.913" x1="-116.913" style="fill:none;" /><ns0:line y2="-80.4793" y1="-54.5207" x2="-113.413" x1="-113.413" style="fill:none;" /><ns0:line y2="-97.5" y1="-82.5" x2="-90.933" x1="-64.953" style="fill:none;" /><ns0:line y2="-93.4585" y1="-80.4793" x2="-90.9331" x1="-68.453" style="fill:none;" /><ns0:line y2="-97.5" y1="-82.5" x2="-90.933" x1="-116.913" style="fill:none;" /><ns0:line y2="37.5" y1="52.5" x2="-116.913" x1="-90.933" style="fill:none;" /><ns0:line y2="41.5415" y1="54.5207" x2="-116.9131" x1="-94.433" style="fill:none;" /><ns0:line y2="82.5" y1="52.5" x2="-90.933" x1="-90.933" style="fill:none;" /><ns0:line y2="52.5" y1="37.5" x2="-142.893" x1="-116.913" style="fill:none;" /><ns0:line y2="97.5" y1="82.5" x2="-116.913" x1="-90.933" style="fill:none;" /><ns0:line y2="93.4585" y1="80.4793" x2="-116.9131" x1="-94.433" style="fill:none;" /><ns0:line y2="82.5" y1="52.5" x2="-142.893" x1="-142.893" style="fill:none;" /><ns0:line y2="80.4793" y1="54.5207" x2="-139.393" x1="-139.393" style="fill:none;" /><ns0:line y2="82.5" y1="97.5" x2="-142.893" x1="-116.913" style="fill:none;" /><ns0:line y2="-7.5" y1="-22.5" x2="64.953" x1="38.97" style="fill:none;" /><ns0:line y2="-11.5415" y1="-24.5209" x2="64.9529" x1="42.4699" style="fill:none;" /><ns0:line y2="-52.5" y1="-22.5" x2="38.97" x1="38.97" style="fill:none;" /><ns0:line y2="-22.5" y1="-7.5" x2="90.933" x1="64.953" style="fill:none;" /><ns0:line y2="-67.5" y1="-52.5" x2="64.953" x1="38.97" style="fill:none;" /><ns0:line y2="-63.4585" y1="-50.4791" x2="64.9529" x1="42.4699" style="fill:none;" /><ns0:line y2="-52.5" y1="-22.5" x2="90.933" x1="90.933" style="fill:none;" /><ns0:line y2="-50.4793" y1="-24.5207" x2="87.433" x1="87.433" style="fill:none;" /><ns0:line y2="-52.5" y1="-67.5" x2="90.933" x1="64.953" style="fill:none;" /></ns0:g><ns0:g transform="translate(198,101)" style="fill:rgb(0,5,255); text-rendering:geometricPrecision; color-rendering:optimizeQuality; image-rendering:optimizeQuality; font-family:'Open Sans'; stroke:rgb(0,5,255); color-interpolation:linearRGB;"><ns0:path style="stroke:none;" d="M-61.6014 41.6562 L-62.7421 41.6562 L-67.4296 34.4688 L-67.4764 34.4688 Q-67.3827 35.7344 -67.3827 36.7812 L-67.3827 41.6562 L-68.3046 41.6562 L-68.3046 33.0938 L-67.1796 33.0938 L-62.5077 40.25 L-62.4608 40.25 Q-62.4608 40.0938 -62.5077 39.2344 Q-62.5546 38.375 -62.5389 38 L-62.5389 33.0938 L-61.6014 33.0938 L-61.6014 41.6562 Z" /><ns0:path style="stroke:none;" d="M-54.0858 41.6562 L-55.0858 41.6562 L-55.0858 37.625 L-59.6014 37.625 L-59.6014 41.6562 L-60.6014 41.6562 L-60.6014 33.0938 L-59.6014 33.0938 L-59.6014 36.7344 L-55.0858 36.7344 L-55.0858 33.0938 L-54.0858 33.0938 L-54.0858 41.6562 Z" /><ns0:path style="stroke:none;" d="M-9.6384 11.6562 L-10.7791 11.6562 L-15.4666 4.4688 L-15.5134 4.4688 Q-15.4197 5.7344 -15.4197 6.7812 L-15.4197 11.6562 L-16.3416 11.6562 L-16.3416 3.0938 L-15.2166 3.0938 L-10.5447 10.25 L-10.4978 10.25 Q-10.4978 10.0938 -10.5447 9.2344 Q-10.5916 8.375 -10.5759 8 L-10.5759 3.0938 L-9.6384 3.0938 L-9.6384 11.6562 Z" /><ns0:path style="stroke:none;" d="M-9.7322 21.2188 L-10.7322 21.2188 L-10.7322 17.1875 L-15.2478 17.1875 L-15.2478 21.2188 L-16.2478 21.2188 L-16.2478 12.6562 L-15.2478 12.6562 L-15.2478 16.2969 L-10.7322 16.2969 L-10.7322 12.6562 L-9.7322 12.6562 L-9.7322 21.2188 Z" /><ns0:path style="fill:rgb(148,108,0); stroke:none;" d="M15.6853 -5.5625 Q15.6853 -4.4375 14.865 -3.7969 Q14.0447 -3.1562 12.6384 -3.1562 Q11.1072 -3.1562 10.2947 -3.5625 L10.2947 -4.5156 Q10.8259 -4.2969 11.4431 -4.1641 Q12.0603 -4.0312 12.6697 -4.0312 Q13.6697 -4.0312 14.1697 -4.4141 Q14.6697 -4.7969 14.6697 -5.4688 Q14.6697 -5.9062 14.49 -6.1953 Q14.3103 -6.4844 13.8962 -6.7266 Q13.4822 -6.9688 12.6228 -7.2656 Q11.4353 -7.6875 10.9197 -8.2734 Q10.4041 -8.8594 10.4041 -9.8125 Q10.4041 -10.7969 11.1462 -11.3828 Q11.8884 -11.9688 13.1228 -11.9688 Q14.3884 -11.9688 15.4666 -11.5 L15.1541 -10.6406 Q14.0916 -11.0781 13.0916 -11.0781 Q12.2947 -11.0781 11.8494 -10.7422 Q11.4041 -10.4062 11.4041 -9.7969 Q11.4041 -9.3594 11.5681 -9.0703 Q11.7322 -8.7812 12.1228 -8.5469 Q12.5134 -8.3125 13.3259 -8.0156 Q14.6697 -7.5469 15.1775 -6.9922 Q15.6853 -6.4375 15.6853 -5.5625 Z" /><ns0:path style="fill:rgb(230,0,0); stroke:none;" d="M31.9275 18.4097 Q31.9275 20.4722 30.8884 21.6519 Q29.8494 22.8316 28.0056 22.8316 Q26.115 22.8316 25.0838 21.6675 Q24.0525 20.5034 24.0525 18.3941 Q24.0525 16.3003 25.0838 15.1519 Q26.115 14.0034 28.0056 14.0034 Q29.865 14.0034 30.8963 15.1753 Q31.9275 16.3472 31.9275 18.4097 ZM25.0994 18.4097 Q25.0994 20.1441 25.8416 21.0503 Q26.5838 21.9566 28.0056 21.9566 Q29.4275 21.9566 30.1541 21.0581 Q30.8806 20.1597 30.8806 18.4097 Q30.8806 16.6753 30.1541 15.7847 Q29.4275 14.8941 28.0056 14.8941 Q26.5838 14.8941 25.8416 15.7925 Q25.0994 16.6909 25.0994 18.4097 Z" /><ns0:path style="fill:rgb(230,0,0); stroke:none;" d="M1.9275 -33.5503 Q1.9275 -31.4878 0.8884 -30.3081 Q-0.1506 -29.1284 -1.9944 -29.1284 Q-3.885 -29.1284 -4.9163 -30.2925 Q-5.9475 -31.4566 -5.9475 -33.5659 Q-5.9475 -35.6597 -4.9163 -36.8081 Q-3.885 -37.9566 -1.9944 -37.9566 Q-0.135 -37.9566 0.8962 -36.7847 Q1.9275 -35.6128 1.9275 -33.5503 ZM-4.9006 -33.5503 Q-4.9006 -31.8159 -4.1584 -30.9097 Q-3.4163 -30.0034 -1.9944 -30.0034 Q-0.5725 -30.0034 0.1541 -30.9019 Q0.8806 -31.8003 0.8806 -33.5503 Q0.8806 -35.2847 0.1541 -36.1753 Q-0.5725 -37.0659 -1.9944 -37.0659 Q-3.4163 -37.0659 -4.1584 -36.1675 Q-4.9006 -35.2691 -4.9006 -33.5503 Z" /><ns0:path style="fill:rgb(0,138,0); stroke:none;" d="M-65.2616 94.1406 Q-66.6678 94.1406 -67.4882 95.0781 Q-68.3085 96.0156 -68.3085 97.6562 Q-68.3085 99.3281 -67.5194 100.25 Q-66.7303 101.1719 -65.2772 101.1719 Q-64.371 101.1719 -63.2303 100.8438 L-63.2303 101.7188 Q-64.121 102.0625 -65.4178 102.0625 Q-67.3085 102.0625 -68.3397 100.9062 Q-69.371 99.75 -69.371 97.6406 Q-69.371 96.3125 -68.8788 95.3203 Q-68.3866 94.3281 -67.4491 93.7891 Q-66.5116 93.25 -65.246 93.25 Q-63.9022 93.25 -62.8866 93.7344 L-63.3085 94.5938 Q-64.2928 94.1406 -65.2616 94.1406 ZM-60.535 101.9375 L-61.5038 101.9375 L-61.5038 92.8125 L-60.535 92.8125 L-60.535 101.9375 Z" /><ns0:path style="fill:rgb(230,0,0); stroke:none;" d="M-164.9385 37.4297 Q-164.9385 39.4922 -165.9776 40.6719 Q-167.0166 41.8516 -168.8604 41.8516 Q-170.751 41.8516 -171.7823 40.6875 Q-172.8135 39.5234 -172.8135 37.4141 Q-172.8135 35.3203 -171.7823 34.1719 Q-170.751 33.0234 -168.8604 33.0234 Q-167.001 33.0234 -165.9698 34.1953 Q-164.9385 35.3672 -164.9385 37.4297 ZM-171.7666 37.4297 Q-171.7666 39.1641 -171.0244 40.0703 Q-170.2823 40.9766 -168.8604 40.9766 Q-167.4385 40.9766 -166.7119 40.0781 Q-165.9854 39.1797 -165.9854 37.4297 Q-165.9854 35.6953 -166.7119 34.8047 Q-167.4385 33.9141 -168.8604 33.9141 Q-170.2823 33.9141 -171.0244 34.8125 Q-171.7666 35.7109 -171.7666 37.4297 Z" /><ns0:path style="stroke:none;" d="M120.2646 -3.3438 L119.1239 -3.3438 L114.4364 -10.5312 L114.3896 -10.5312 Q114.4833 -9.2656 114.4833 -8.2188 L114.4833 -3.3438 L113.5614 -3.3438 L113.5614 -11.9062 L114.6864 -11.9062 L119.3583 -4.75 L119.4052 -4.75 Q119.4052 -4.9062 119.3583 -5.7656 Q119.3114 -6.625 119.3271 -7 L119.3271 -11.9062 L120.2646 -11.9062 L120.2646 -3.3438 Z" /><ns0:path style="stroke:none;" d="M120.1708 6.2188 L119.1708 6.2188 L119.1708 2.1875 L114.6552 2.1875 L114.6552 6.2188 L113.6552 6.2188 L113.6552 -2.3438 L114.6552 -2.3438 L114.6552 1.2969 L119.1708 1.2969 L119.1708 -2.3438 L120.1708 -2.3438 L120.1708 6.2188 Z" /></ns0:g><ns0:g transform="translate(198,101)" style="stroke-linecap:butt; text-rendering:geometricPrecision; color-rendering:optimizeQuality; image-rendering:optimizeQuality; font-family:'Open Sans'; color-interpolation:linearRGB; stroke-miterlimit:5;"><ns0:path style="fill:none;" d="M142.46 -22.25 L142.893 -22.5 L143.326 -22.25" /><ns0:path style="fill:rgb(230,0,0); stroke:none;" d="M146.8305 -52.5703 Q146.8305 -50.5078 145.7914 -49.3281 Q144.7524 -48.1484 142.9086 -48.1484 Q141.018 -48.1484 139.9868 -49.3125 Q138.9555 -50.4766 138.9555 -52.5859 Q138.9555 -54.6797 139.9868 -55.8281 Q141.018 -56.9766 142.9086 -56.9766 Q144.768 -56.9766 145.7993 -55.8047 Q146.8305 -54.6328 146.8305 -52.5703 ZM140.0024 -52.5703 Q140.0024 -50.8359 140.7446 -49.9297 Q141.4868 -49.0234 142.9086 -49.0234 Q144.3305 -49.0234 145.0571 -49.9219 Q145.7836 -50.8203 145.7836 -52.5703 Q145.7836 -54.3047 145.0571 -55.1953 Q144.3305 -56.0859 142.9086 -56.0859 Q141.4868 -56.0859 140.7446 -55.1875 Q140.0024 -54.2891 140.0024 -52.5703 Z" /><ns0:path style="fill:rgb(0,5,255); stroke:none;" d="M157.2276 22.6362 L156.0869 22.6362 L151.3994 15.4487 L151.3526 15.4487 Q151.4463 16.7144 151.4463 17.7612 L151.4463 22.6362 L150.5244 22.6362 L150.5244 14.0737 L151.6494 14.0737 L156.3213 21.23 L156.3682 21.23 Q156.3682 21.0737 156.3213 20.2144 Q156.2744 19.355 156.2901 18.98 L156.2901 14.0737 L157.2276 14.0737 L157.2276 22.6362 Z" /><ns0:path style="fill:rgb(0,5,255); stroke:none;" d="M144.7744 22.6362 L143.7744 22.6362 L143.7744 18.605 L139.2588 18.605 L139.2588 22.6362 L138.2588 22.6362 L138.2588 14.0737 L139.2588 14.0737 L139.2588 17.7144 L143.7744 17.7144 L143.7744 14.0737 L144.7744 14.0737 L144.7744 22.6362 Z" /><ns0:path style="fill:rgb(0,5,255); stroke:none;" d="M149.5244 24.4456 L145.7744 24.4456 L145.7744 23.8831 L147.2744 22.3675 Q147.9619 21.68 148.1807 21.3831 Q148.3994 21.0863 148.5088 20.805 Q148.6182 20.5238 148.6182 20.1956 Q148.6182 19.7425 148.3448 19.4769 Q148.0713 19.2113 147.5713 19.2113 Q147.2276 19.2113 146.9073 19.3284 Q146.5869 19.4456 146.1963 19.7425 L145.8526 19.305 Q146.6338 18.6488 147.5713 18.6488 Q148.3682 18.6488 148.8291 19.0628 Q149.2901 19.4769 149.2901 20.1644 Q149.2901 20.7113 148.9854 21.2425 Q148.6807 21.7738 147.8369 22.5863 L146.5869 23.805 L146.5869 23.8363 L149.5244 23.8363 L149.5244 24.4456 Z" /><ns0:path style="fill:none;" d="M-65.386 7.25 L-64.953 7.5 L-64.52 7.25" /><ns0:path style="fill:none;" d="M-38.97 -8 L-38.97 -7.5 L-38.537 -7.25" /><ns0:path style="fill:rgb(0,5,255); stroke:none;" d="M-87.5814 -3.3438 L-88.7221 -3.3438 L-93.4096 -10.5312 L-93.4564 -10.5312 Q-93.3627 -9.2656 -93.3627 -8.2188 L-93.3627 -3.3438 L-94.2846 -3.3438 L-94.2846 -11.9062 L-93.1596 -11.9062 L-88.4877 -4.75 L-88.4408 -4.75 Q-88.4408 -4.9062 -88.4877 -5.7656 Q-88.5346 -6.625 -88.5189 -7 L-88.5189 -11.9062 L-87.5814 -11.9062 L-87.5814 -3.3438 Z" /><ns0:path style="fill:rgb(0,5,255); stroke:none;" d="M-35.6184 -33.3438 L-36.7591 -33.3438 L-41.4466 -40.5312 L-41.4934 -40.5312 Q-41.3997 -39.2656 -41.3997 -38.2188 L-41.3997 -33.3438 L-42.3216 -33.3438 L-42.3216 -41.9062 L-41.1966 -41.9062 L-36.5247 -34.75 L-36.4778 -34.75 Q-36.4778 -34.9062 -36.5247 -35.7656 Q-36.5716 -36.625 -36.5559 -37 L-36.5559 -41.9062 L-35.6184 -41.9062 L-35.6184 -33.3438 Z" /><ns0:path style="fill:none;" d="M-90.5 -37.75 L-90.933 -37.5 L-90.933 -37" /><ns0:path style="fill:none;" d="M-65.386 -52.25 L-64.953 -52.5 L-64.953 -53" /><ns0:path style="fill:none;" d="M-116.48 -52.25 L-116.913 -52.5 L-116.913 -53" /><ns0:path style="fill:none;" d="M-64.953 -82 L-64.953 -82.5 L-65.386 -82.75" /><ns0:path style="fill:none;" d="M-116.913 -82 L-116.913 -82.5 L-116.48 -82.75" /><ns0:path style="fill:none;" d="M-90.5 -97.25 L-90.933 -97.5 L-91.366 -97.25" /><ns0:path style="fill:none;" d="M-91.366 52.25 L-90.933 52.5 L-90.5 52.25" /><ns0:path style="fill:none;" d="M-116.48 37.75 L-116.913 37.5 L-117.346 37.75" /><ns0:path style="fill:none;" d="M-91.366 82.75 L-90.933 82.5 L-90.933 82" /><ns0:path style="fill:none;" d="M-142.893 53 L-142.893 52.5 L-143.326 52.25" /><ns0:path style="fill:none;" d="M-116.48 97.25 L-116.913 97.5 L-117.346 97.25" /><ns0:path style="fill:none;" d="M-142.893 82 L-142.893 82.5 L-142.46 82.75" /><ns0:path style="fill:none;" d="M39.403 -22.25 L38.97 -22.5 L38.537 -22.25" /><ns0:path style="fill:none;" d="M64.52 -7.75 L64.953 -7.5 L65.386 -7.75" /><ns0:path style="fill:none;" d="M38.97 -52 L38.97 -52.5 L39.403 -52.75" /><ns0:path style="fill:none;" d="M90.933 -23 L90.933 -22.5 L91.366 -22.25" /><ns0:path style="fill:none;" d="M64.52 -67.25 L64.953 -67.5 L65.386 -67.25" /><ns0:path style="fill:none;" d="M90.933 -52 L90.933 -52.5 L90.5 -52.75" /></ns0:g></ns0:g></ns0:svg></ns0:svg></ns0:svg></ns0:svg></g></svg>