<svg xmlns:ns0="http://www.w3.org/2000/svg" xmlns="http://www.w3.org/2000/svg"><g transform="translate(0, 0)"><ns0:svg width="171" viewBox="0 0 171 154" style="fill-opacity:1; color-rendering:auto; color-interpolation:auto; text-rendering:auto; stroke:black; stroke-linecap:square; stroke-miterlimit:10; shape-rendering:auto; stroke-opacity:1; fill:black; stroke-dasharray:none; font-weight:normal; stroke-width:1; font-family:'Open Sans'; font-style:normal; stroke-linejoin:miter; font-size:12; stroke-dashoffset:0; image-rendering:auto;" height="154" class="cas-substance-image"><ns0:svg class="cas-substance-single-component"><ns0:rect y="0" x="0" width="171" stroke="none" ry="7" rx="7" height="154" fill="white" class="cas-substance-group" /><ns0:svg y="0" x="0" width="171" viewBox="0 0 171 154" style="fill:black;" height="154" class="cas-substance-single-component-image"><ns0:svg><ns0:g><ns0:g transform="translate(86,77)" style="text-rendering:geometricPrecision; color-rendering:optimizeQuality; color-interpolation:linearRGB; stroke-linecap:butt; image-rendering:optimizeQuality;"><ns0:line y2="-25.653" y1="-15.7549" x2="-23.331" x1="-1.1016" style="fill:none;" /><ns0:line y2="16.386" y1="-7.3037" x2="0.942" x1="3.4313" style="fill:none;" /><ns0:line y2="-28.449" y1="-16.3841" x2="30.057" x1="9.1606" style="fill:none;" /><ns0:line y2="-3.357" y1="-25.653" x2="-43.404" x1="-23.331" style="fill:none;" /><ns0:line y2="-54.183" y1="-25.653" x2="-32.601" x1="-23.331" style="fill:none;" /><ns0:line y2="-51.1796" y1="-26.4933" x2="-35.3053" x1="-27.2841" style="fill:none;" /><ns0:line y2="22.623" y1="16.386" x2="-28.404" x1="0.942" style="fill:none;" /><ns0:line y2="38.679" y1="16.386" x2="21.015" x1="0.942" style="fill:none;" /><ns0:line y2="39.5193" y1="20.2297" x2="17.0619" x1="-0.3068" style="fill:none;" /><ns0:line y2="22.623" y1="-3.357" x2="-28.404" x1="-43.404" style="fill:none;" /><ns0:line y2="-9.594" y1="-3.357" x2="-72.747" x1="-43.404" style="fill:none;" /><ns0:line y2="-12.5974" y1="-7.2006" x2="-70.0427" x1="-44.6529" style="fill:none;" /><ns0:line y2="-60.42" y1="-54.183" x2="-61.944" x1="-32.601" style="fill:none;" /><ns0:line y2="51.156" y1="22.623" x2="-37.674" x1="-28.404" style="fill:none;" /><ns0:line y2="50.3156" y1="25.6263" x2="-33.7209" x1="-25.6997" style="fill:none;" /><ns0:line y2="67.212" y1="38.679" x2="11.745" x1="21.015" style="fill:none;" /><ns0:line y2="-38.127" y1="-9.594" x2="-82.02" x1="-72.747" style="fill:none;" /><ns0:line y2="-38.127" y1="-60.42" x2="-82.02" x1="-61.944" style="fill:none;" /><ns0:line y2="-37.2864" y1="-56.5762" x2="-78.0669" x1="-60.6954" style="fill:none;" /><ns0:line y2="73.449" y1="51.156" x2="-17.601" x1="-37.674" style="fill:none;" /><ns0:line y2="73.449" y1="67.212" x2="-17.601" x1="11.745" style="fill:none;" /><ns0:line y2="69.6054" y1="64.2086" x2="-16.352" x1="9.0408" style="fill:none;" /><ns0:line y2="-13.449" y1="-28.449" x2="56.037" x1="30.057" style="fill:none;" /><ns0:line y2="-17.4905" y1="-30.4697" x2="56.037" x1="33.557" style="fill:none;" /><ns0:line y2="-58.449" y1="-28.449" x2="30.057" x1="30.057" style="fill:none;" /><ns0:line y2="-28.449" y1="-13.449" x2="82.02" x1="56.037" style="fill:none;" /><ns0:line y2="-73.449" y1="-58.449" x2="56.037" x1="30.057" style="fill:none;" /><ns0:line y2="-69.4075" y1="-56.4283" x2="56.037" x1="33.557" style="fill:none;" /><ns0:line y2="-58.449" y1="-28.449" x2="82.02" x1="82.02" style="fill:none;" /><ns0:line y2="-56.4283" y1="-30.4697" x2="78.52" x1="78.52" style="fill:none;" /><ns0:line y2="-58.449" y1="-73.449" x2="82.02" x1="56.037" style="fill:none;" /></ns0:g><ns0:g transform="translate(86,77)" style="fill:rgb(0,5,255); text-rendering:geometricPrecision; color-rendering:optimizeQuality; image-rendering:optimizeQuality; font-family:'Open Sans'; stroke:rgb(0,5,255); color-interpolation:linearRGB;"><ns0:path style="stroke:none;" d="M7.4286 -9.2928 L6.2879 -9.2928 L1.6004 -16.4803 L1.5536 -16.4803 Q1.6473 -15.2146 1.6473 -14.1678 L1.6473 -9.2928 L0.7254 -9.2928 L0.7254 -17.8553 L1.8504 -17.8553 L6.5223 -10.699 L6.5692 -10.699 Q6.5692 -10.8553 6.5223 -11.7146 Q6.4754 -12.574 6.4911 -12.949 L6.4911 -17.8553 L7.4286 -17.8553 L7.4286 -9.2928 Z" /></ns0:g><ns0:g transform="translate(86,77)" style="stroke-linecap:butt; text-rendering:geometricPrecision; color-rendering:optimizeQuality; image-rendering:optimizeQuality; font-family:'Open Sans'; color-interpolation:linearRGB; stroke-miterlimit:5;"><ns0:path style="fill:none;" d="M-23.4855 -26.1285 L-23.331 -25.653 L-22.8742 -25.4496" /><ns0:path style="fill:none;" d="M1.2766 16.7576 L0.942 16.386 L0.9943 15.8887" /><ns0:path style="fill:none;" d="M-43.8931 -3.461 L-43.404 -3.357 L-43.154 -2.924" /><ns0:path style="fill:none;" d="M-32.4465 -53.7075 L-32.601 -54.183 L-33.0901 -54.287" /><ns0:path style="fill:none;" d="M-28.5585 23.0985 L-28.404 22.623 L-28.654 22.19" /><ns0:path style="fill:none;" d="M20.6804 38.3074 L21.015 38.679 L20.8605 39.1545" /><ns0:path style="fill:none;" d="M-72.2579 -9.49 L-72.747 -9.594 L-72.9015 -10.0695" /><ns0:path style="fill:none;" d="M-61.4549 -60.316 L-61.944 -60.42 L-62.2786 -60.0485" /><ns0:path style="fill:none;" d="M-37.5195 50.6805 L-37.674 51.156 L-37.3394 51.5276" /><ns0:path style="fill:none;" d="M11.8995 66.7365 L11.745 67.212 L11.2559 67.3159" /><ns0:path style="fill:none;" d="M-81.8655 -37.6515 L-82.02 -38.127 L-81.6854 -38.4985" /><ns0:path style="fill:none;" d="M-17.9356 73.0774 L-17.601 73.449 L-17.1119 73.3451" /><ns0:path style="fill:none;" d="M30.49 -28.199 L30.057 -28.449 L29.624 -28.199" /><ns0:path style="fill:none;" d="M55.604 -13.699 L56.037 -13.449 L56.47 -13.699" /><ns0:path style="fill:none;" d="M30.057 -57.949 L30.057 -58.449 L30.49 -58.699" /><ns0:path style="fill:none;" d="M81.587 -28.199 L82.02 -28.449 L82.02 -28.949" /><ns0:path style="fill:none;" d="M55.604 -73.199 L56.037 -73.449 L56.47 -73.199" /><ns0:path style="fill:none;" d="M82.02 -57.949 L82.02 -58.449 L81.587 -58.699" /></ns0:g></ns0:g></ns0:svg></ns0:svg></ns0:svg></ns0:svg></g></svg>