<svg xmlns:ns0="http://www.w3.org/2000/svg" xmlns="http://www.w3.org/2000/svg"><g transform="translate(0, 0)"><ns0:svg width="244" viewBox="0 0 244 97" style="fill-opacity:1; color-rendering:auto; color-interpolation:auto; text-rendering:auto; stroke:black; stroke-linecap:square; stroke-miterlimit:10; shape-rendering:auto; stroke-opacity:1; fill:black; stroke-dasharray:none; font-weight:normal; stroke-width:1; font-family:'Open Sans'; font-style:normal; stroke-linejoin:miter; font-size:12; stroke-dashoffset:0; image-rendering:auto;" height="97" class="cas-substance-image"><ns0:svg class="cas-substance-single-component"><ns0:rect y="0" x="0" width="244" stroke="none" ry="7" rx="7" height="97" fill="white" class="cas-substance-group" /><ns0:svg y="0" x="0" width="244" viewBox="0 0 244 97" style="fill:black;" height="97" class="cas-substance-single-component-image"><ns0:svg><ns0:g><ns0:g transform="translate(124,49)" style="text-rendering:geometricPrecision; color-rendering:optimizeQuality; color-interpolation:linearRGB; stroke-linecap:butt; image-rendering:optimizeQuality;"><ns0:line y2="0" y1="12.0649" x2="12.99" x1="-7.9064" style="fill:none;" /><ns0:line y2="0" y1="12.0649" x2="-38.97" x1="-18.0736" style="fill:none;" /><ns0:line y2="15" y1="0" x2="38.97" x1="12.99" style="fill:none;" /><ns0:line y2="-23.6484" y1="1.0104" x2="14.74" x1="14.74" style="fill:none;" /><ns0:line y2="-23.6484" y1="1.0104" x2="11.24" x1="11.24" style="fill:none;" /><ns0:line y2="0" y1="15" x2="64.953" x1="38.97" style="fill:none;" /><ns0:line y2="45" y1="15" x2="38.97" x1="38.97" style="fill:none;" /><ns0:line y2="15" y1="0" x2="90.933" x1="64.953" style="fill:none;" /><ns0:line y2="0" y1="15" x2="116.913" x1="90.933" style="fill:none;" /><ns0:line y2="0" y1="11.4492" x2="-90.933" x1="-110.763" style="fill:none;" /><ns0:line y2="-30" y1="-45" x2="-90.933" x1="-116.913" style="fill:none;" /><ns0:line y2="15" y1="0" x2="-64.953" x1="-38.97" style="fill:none;" /><ns0:line y2="10.9585" y1="-2.0209" x2="-64.9529" x1="-42.4699" style="fill:none;" /><ns0:line y2="-30" y1="0" x2="-38.97" x1="-38.97" style="fill:none;" /><ns0:line y2="0" y1="15" x2="-90.933" x1="-64.953" style="fill:none;" /><ns0:line y2="-45" y1="-30" x2="-64.953" x1="-38.97" style="fill:none;" /><ns0:line y2="-40.9585" y1="-27.9791" x2="-64.9529" x1="-42.4699" style="fill:none;" /><ns0:line y2="-30" y1="0" x2="-90.933" x1="-90.933" style="fill:none;" /><ns0:line y2="-27.9793" y1="-2.0207" x2="-87.433" x1="-87.433" style="fill:none;" /><ns0:line y2="-30" y1="-45" x2="-90.933" x1="-64.953" style="fill:none;" /></ns0:g><ns0:g transform="translate(124,49)" style="fill:rgb(0,5,255); text-rendering:geometricPrecision; color-rendering:optimizeQuality; image-rendering:optimizeQuality; font-family:'Open Sans'; stroke:rgb(0,5,255); color-interpolation:linearRGB;"><ns0:path style="stroke:none;" d="M-9.6384 19.1562 L-10.7791 19.1562 L-15.4666 11.9688 L-15.5134 11.9688 Q-15.4197 13.2344 -15.4197 14.2812 L-15.4197 19.1562 L-16.3416 19.1562 L-16.3416 10.5938 L-15.2166 10.5938 L-10.5447 17.75 L-10.4978 17.75 Q-10.4978 17.5938 -10.5447 16.7344 Q-10.5916 15.875 -10.5759 15.5 L-10.5759 10.5938 L-9.6384 10.5938 L-9.6384 19.1562 Z" /><ns0:path style="stroke:none;" d="M-9.7322 28.7188 L-10.7322 28.7188 L-10.7322 24.6875 L-15.2478 24.6875 L-15.2478 28.7188 L-16.2478 28.7188 L-16.2478 20.1562 L-15.2478 20.1562 L-15.2478 23.7969 L-10.7322 23.7969 L-10.7322 20.1562 L-9.7322 20.1562 L-9.7322 28.7188 Z" /></ns0:g><ns0:g transform="translate(124,49)" style="stroke-linecap:butt; text-rendering:geometricPrecision; color-rendering:optimizeQuality; image-rendering:optimizeQuality; font-family:'Open Sans'; color-interpolation:linearRGB; stroke-miterlimit:5;"><ns0:path style="fill:none;" d="M12.557 0.25 L12.99 0 L13.423 0.25" /><ns0:path style="fill:rgb(230,0,0); stroke:none;" d="M16.9275 -30.0703 Q16.9275 -28.0078 15.8884 -26.8281 Q14.8494 -25.6484 13.0056 -25.6484 Q11.115 -25.6484 10.0837 -26.8125 Q9.0525 -27.9766 9.0525 -30.0859 Q9.0525 -32.1797 10.0837 -33.3281 Q11.115 -34.4766 13.0056 -34.4766 Q14.865 -34.4766 15.8962 -33.3047 Q16.9275 -32.1328 16.9275 -30.0703 ZM10.0994 -30.0703 Q10.0994 -28.3359 10.8416 -27.4297 Q11.5837 -26.5234 13.0056 -26.5234 Q14.4275 -26.5234 15.1541 -27.4219 Q15.8806 -28.3203 15.8806 -30.0703 Q15.8806 -31.8047 15.1541 -32.6953 Q14.4275 -33.5859 13.0056 -33.5859 Q11.5837 -33.5859 10.8416 -32.6875 Q10.0994 -31.7891 10.0994 -30.0703 Z" /><ns0:path style="fill:none;" d="M64.52 0.25 L64.953 0 L65.386 0.25" /><ns0:path style="fill:none;" d="M90.5 14.75 L90.933 15 L91.366 14.75" /><ns0:path style="fill:rgb(0,138,0); stroke:none;" d="M-117.2216 11.6406 Q-118.6278 11.6406 -119.4482 12.5781 Q-120.2685 13.5156 -120.2685 15.1562 Q-120.2685 16.8281 -119.4794 17.75 Q-118.6903 18.6719 -117.2372 18.6719 Q-116.331 18.6719 -115.1903 18.3438 L-115.1903 19.2188 Q-116.081 19.5625 -117.3778 19.5625 Q-119.2685 19.5625 -120.2997 18.4062 Q-121.331 17.25 -121.331 15.1406 Q-121.331 13.8125 -120.8388 12.8203 Q-120.3466 11.8281 -119.4091 11.2891 Q-118.4716 10.75 -117.206 10.75 Q-115.8622 10.75 -114.8466 11.2344 L-115.2685 12.0938 Q-116.2528 11.6406 -117.2216 11.6406 ZM-112.495 19.4375 L-113.4638 19.4375 L-113.4638 10.3125 L-112.495 10.3125 L-112.495 19.4375 Z" /><ns0:path style="fill:none;" d="M-39.403 0.25 L-38.97 0 L-38.97 -0.5" /><ns0:path style="fill:none;" d="M-64.52 14.75 L-64.953 15 L-65.386 14.75" /><ns0:path style="fill:none;" d="M-38.97 -29.5 L-38.97 -30 L-39.403 -30.25" /><ns0:path style="fill:none;" d="M-90.933 -0.5 L-90.933 0 L-91.366 0.25" /><ns0:path style="fill:none;" d="M-64.52 -44.75 L-64.953 -45 L-65.386 -44.75" /><ns0:path style="fill:none;" d="M-90.933 -29.5 L-90.933 -30 L-91.366 -30.25" /></ns0:g></ns0:g></ns0:svg></ns0:svg></ns0:svg></ns0:svg></g></svg>