<svg xmlns:ns0="http://www.w3.org/2000/svg" xmlns="http://www.w3.org/2000/svg"><g transform="translate(0, 0)"><ns0:svg width="189" viewBox="0 0 189 101" style="fill-opacity:1; color-rendering:auto; color-interpolation:auto; text-rendering:auto; stroke:black; stroke-linecap:square; stroke-miterlimit:10; shape-rendering:auto; stroke-opacity:1; fill:black; stroke-dasharray:none; font-weight:normal; stroke-width:1; font-family:'Open Sans'; font-style:normal; stroke-linejoin:miter; font-size:12; stroke-dashoffset:0; image-rendering:auto;" height="101" class="cas-substance-image"><ns0:svg class="cas-substance-single-component"><ns0:rect y="0" x="0" width="189" stroke="none" ry="7" rx="7" height="101" fill="white" class="cas-substance-group" /><ns0:svg y="0" x="0" width="189" viewBox="0 0 189 101" style="fill:black;" height="101" class="cas-substance-single-component-image"><ns0:svg><ns0:g><ns0:g transform="translate(94,52)" style="text-rendering:geometricPrecision; color-rendering:optimizeQuality; color-interpolation:linearRGB; stroke-linecap:butt; image-rendering:optimizeQuality;"><ns0:line y2="-3.2414" y1="-15" x2="7.3759" x1="-12.99" style="fill:none;" /><ns0:line y2="-38.6484" y1="-13.9896" x2="-11.24" x1="-11.24" style="fill:none;" /><ns0:line y2="-38.6484" y1="-13.9896" x2="-14.74" x1="-14.74" style="fill:none;" /><ns0:line y2="0" y1="-15" x2="-38.97" x1="-12.99" style="fill:none;" /><ns0:line y2="-15" y1="-3.226" x2="38.97" x1="18.5775" style="fill:none;" /><ns0:line y2="0" y1="-15" x2="64.953" x1="38.97" style="fill:none;" /><ns0:line y2="-15" y1="0" x2="90.933" x1="64.953" style="fill:none;" /><ns0:line y2="30" y1="0" x2="64.953" x1="64.953" style="fill:none;" /><ns0:line y2="-15" y1="-38.6484" x2="-64.953" x1="-64.953" style="fill:none;" /><ns0:line y2="-15" y1="0" x2="-64.953" x1="-38.97" style="fill:none;" /><ns0:line y2="-10.9585" y1="2.0209" x2="-64.9529" x1="-42.4699" style="fill:none;" /><ns0:line y2="30" y1="0" x2="-38.97" x1="-38.97" style="fill:none;" /><ns0:line y2="0" y1="-15" x2="-90.933" x1="-64.953" style="fill:none;" /><ns0:line y2="45" y1="30" x2="-64.953" x1="-38.97" style="fill:none;" /><ns0:line y2="40.9585" y1="27.9791" x2="-64.9529" x1="-42.4699" style="fill:none;" /><ns0:line y2="30" y1="0" x2="-90.933" x1="-90.933" style="fill:none;" /><ns0:line y2="27.9793" y1="2.0207" x2="-87.433" x1="-87.433" style="fill:none;" /><ns0:line y2="30" y1="45" x2="-90.933" x1="-64.953" style="fill:none;" /><ns0:path style="fill:none; stroke-miterlimit:5;" d="M-12.557 -14.75 L-12.99 -15 L-13.423 -14.75" /></ns0:g><ns0:g transform="translate(94,52)" style="stroke-linecap:butt; fill:rgb(230,0,0); text-rendering:geometricPrecision; color-rendering:optimizeQuality; image-rendering:optimizeQuality; font-family:'Open Sans'; stroke:rgb(230,0,0); color-interpolation:linearRGB; stroke-miterlimit:5;"><ns0:path style="stroke:none;" d="M16.9275 -0.0703 Q16.9275 1.9922 15.8884 3.1719 Q14.8494 4.3516 13.0056 4.3516 Q11.115 4.3516 10.0837 3.1875 Q9.0525 2.0234 9.0525 -0.0859 Q9.0525 -2.1797 10.0837 -3.3281 Q11.115 -4.4766 13.0056 -4.4766 Q14.865 -4.4766 15.8962 -3.3047 Q16.9275 -2.1328 16.9275 -0.0703 ZM10.0994 -0.0703 Q10.0994 1.6641 10.8416 2.5703 Q11.5837 3.4766 13.0056 3.4766 Q14.4275 3.4766 15.1541 2.5781 Q15.8806 1.6797 15.8806 -0.0703 Q15.8806 -1.8047 15.1541 -2.6953 Q14.4275 -3.5859 13.0056 -3.5859 Q11.5837 -3.5859 10.8416 -2.6875 Q10.0994 -1.7891 10.0994 -0.0703 Z" /><ns0:path style="stroke:none;" d="M-9.0525 -45.0703 Q-9.0525 -43.0078 -10.0916 -41.8281 Q-11.1306 -40.6484 -12.9744 -40.6484 Q-14.865 -40.6484 -15.8962 -41.8125 Q-16.9275 -42.9766 -16.9275 -45.0859 Q-16.9275 -47.1797 -15.8962 -48.3281 Q-14.865 -49.4766 -12.9744 -49.4766 Q-11.115 -49.4766 -10.0837 -48.3047 Q-9.0525 -47.1328 -9.0525 -45.0703 ZM-15.8806 -45.0703 Q-15.8806 -43.3359 -15.1384 -42.4297 Q-14.3962 -41.5234 -12.9744 -41.5234 Q-11.5525 -41.5234 -10.8259 -42.4219 Q-10.0994 -43.3203 -10.0994 -45.0703 Q-10.0994 -46.8047 -10.8259 -47.6953 Q-11.5525 -48.5859 -12.9744 -48.5859 Q-14.3962 -48.5859 -15.1384 -47.6875 Q-15.8806 -46.7891 -15.8806 -45.0703 Z" /><ns0:path style="fill:none; stroke:black;" d="M38.537 -14.75 L38.97 -15 L39.403 -14.75" /><ns0:path style="stroke:none;" d="M-61.0155 -45.0703 Q-61.0155 -43.0078 -62.0546 -41.8281 Q-63.0936 -40.6484 -64.9374 -40.6484 Q-66.828 -40.6484 -67.8593 -41.8125 Q-68.8905 -42.9766 -68.8905 -45.0859 Q-68.8905 -47.1797 -67.8593 -48.3281 Q-66.828 -49.4766 -64.9374 -49.4766 Q-63.078 -49.4766 -62.0468 -48.3047 Q-61.0155 -47.1328 -61.0155 -45.0703 ZM-67.8436 -45.0703 Q-67.8436 -43.3359 -67.1014 -42.4297 Q-66.3593 -41.5234 -64.9374 -41.5234 Q-63.5155 -41.5234 -62.7889 -42.4219 Q-62.0624 -43.3203 -62.0624 -45.0703 Q-62.0624 -46.8047 -62.7889 -47.6953 Q-63.5155 -48.5859 -64.9374 -48.5859 Q-66.3593 -48.5859 -67.1014 -47.6875 Q-67.8436 -46.7891 -67.8436 -45.0703 Z" /><ns0:path style="stroke:none;" d="M-53.4999 -40.7734 L-54.4999 -40.7734 L-54.4999 -44.8047 L-59.0155 -44.8047 L-59.0155 -40.7734 L-60.0155 -40.7734 L-60.0155 -49.3359 L-59.0155 -49.3359 L-59.0155 -45.6953 L-54.4999 -45.6953 L-54.4999 -49.3359 L-53.4999 -49.3359 L-53.4999 -40.7734 Z" /><ns0:path style="fill:none; stroke:black;" d="M-39.403 -0.25 L-38.97 0 L-38.537 -0.25" /><ns0:path style="fill:none; stroke:black;" d="M-64.52 -14.75 L-64.953 -15 L-65.386 -14.75" /><ns0:path style="fill:none; stroke:black;" d="M-38.97 29.5 L-38.97 30 L-39.403 30.25" /><ns0:path style="fill:none; stroke:black;" d="M-90.5 -0.25 L-90.933 0 L-90.933 0.5" /><ns0:path style="fill:none; stroke:black;" d="M-64.52 44.75 L-64.953 45 L-65.386 44.75" /><ns0:path style="fill:none; stroke:black;" d="M-90.933 29.5 L-90.933 30 L-90.5 30.25" /></ns0:g></ns0:g></ns0:svg></ns0:svg></ns0:svg></ns0:svg></g></svg>