<svg width="100" viewBox="0 0 100 77" style="fill-opacity:1; color-rendering:auto; color-interpolation:auto; text-rendering:auto; stroke:black; stroke-linecap:square; stroke-miterlimit:10; shape-rendering:auto; stroke-opacity:1; fill:black; stroke-dasharray:none; font-weight:normal; stroke-width:1; font-family:'Open Sans'; font-style:normal; stroke-linejoin:miter; font-size:12; stroke-dashoffset:0; image-rendering:auto;" height="77" class="cas-substance-image" xmlns:xlink="http://www.w3.org/1999/xlink" xmlns="http://www.w3.org/2000/svg"><svg class="cas-substance-single-component"><rect y="0" x="0" width="100" stroke="none" ry="7" rx="7" height="77" fill="white" class="cas-substance-group"/><svg y="0" x="9" width="81" viewBox="0 0 81 60" style="fill:black;" height="60" class="cas-substance-single-component-image"><svg><g><g transform="translate(40,30)" style="text-rendering:geometricPrecision; color-rendering:optimizeQuality; color-interpolation:linearRGB; stroke-linecap:butt; image-rendering:optimizeQuality;"><line y2="-19.3214" y1="-10.7718" x2="-20.4746" x1="-5.6668" style="fill:none;"/><line y2="-19.3112" y1="-10.8168" x2="20.457" x1="5.7446" style="fill:none;"/><line y2="16.0234" y1="-1.102" x2="-1.75" x1="-1.75" style="fill:none;"/><line y2="16.0234" y1="-1.102" x2="1.75" x1="1.75" style="fill:none;"/><path style="stroke-linecap:square; stroke:none;" d="M1.3633 -5.5 Q1.3633 -4.375 0.543 -3.7344 Q-0.2773 -3.0938 -1.6836 -3.0938 Q-3.2148 -3.0938 -4.0273 -3.5 L-4.0273 -4.4531 Q-3.4961 -4.2344 -2.8789 -4.1016 Q-2.2617 -3.9688 -1.6523 -3.9688 Q-0.6523 -3.9688 -0.1523 -4.3516 Q0.3477 -4.7344 0.3477 -5.4062 Q0.3477 -5.8438 0.168 -6.1328 Q-0.0117 -6.4219 -0.4258 -6.6641 Q-0.8398 -6.9062 -1.6992 -7.2031 Q-2.8867 -7.625 -3.4023 -8.2109 Q-3.918 -8.7969 -3.918 -9.75 Q-3.918 -10.7344 -3.1758 -11.3203 Q-2.4336 -11.9062 -1.1992 -11.9062 Q0.0664 -11.9062 1.1445 -11.4375 L0.832 -10.5781 Q-0.2305 -11.0156 -1.2305 -11.0156 Q-2.0273 -11.0156 -2.4727 -10.6797 Q-2.918 -10.3438 -2.918 -9.7344 Q-2.918 -9.2969 -2.7539 -9.0078 Q-2.5898 -8.7188 -2.1992 -8.4844 Q-1.8086 -8.25 -0.9961 -7.9531 Q0.3477 -7.4844 0.8555 -6.9297 Q1.3633 -6.375 1.3633 -5.5 ZM3.9336 -3.2188 L2.9648 -3.2188 L2.9648 -9.6406 L3.9336 -9.6406 L3.9336 -3.2188 ZM2.8867 -11.375 Q2.8867 -11.7188 3.0508 -11.875 Q3.2148 -12.0312 3.4648 -12.0312 Q3.6992 -12.0312 3.8633 -11.8672 Q4.0273 -11.7031 4.0273 -11.375 Q4.0273 -11.0469 3.8633 -10.8906 Q3.6992 -10.7344 3.4648 -10.7344 Q3.2148 -10.7344 3.0508 -10.8906 Q2.8867 -11.0469 2.8867 -11.375 Z"/></g><g transform="translate(40,30)" style="fill:rgb(230,0,0); text-rendering:geometricPrecision; color-rendering:optimizeQuality; image-rendering:optimizeQuality; font-family:'Open Sans'; stroke:rgb(230,0,0); color-interpolation:linearRGB;"><path style="stroke:none;" d="M-22.0425 -22.5703 Q-22.0425 -20.5078 -23.0816 -19.3281 Q-24.1206 -18.1484 -25.9644 -18.1484 Q-27.855 -18.1484 -28.8862 -19.3125 Q-29.9175 -20.4766 -29.9175 -22.5859 Q-29.9175 -24.6797 -28.8862 -25.8281 Q-27.855 -26.9766 -25.9644 -26.9766 Q-24.105 -26.9766 -23.0737 -25.8047 Q-22.0425 -24.6328 -22.0425 -22.5703 ZM-28.8706 -22.5703 Q-28.8706 -20.8359 -28.1284 -19.9297 Q-27.3862 -19.0234 -25.9644 -19.0234 Q-24.5425 -19.0234 -23.8159 -19.9219 Q-23.0894 -20.8203 -23.0894 -22.5703 Q-23.0894 -24.3047 -23.8159 -25.1953 Q-24.5425 -26.0859 -25.9644 -26.0859 Q-27.3862 -26.0859 -28.1284 -25.1875 Q-28.8706 -24.2891 -28.8706 -22.5703 Z"/><path style="stroke:none;" d="M-30.9175 -18.2734 L-31.9175 -18.2734 L-31.9175 -22.3047 L-36.4331 -22.3047 L-36.4331 -18.2734 L-37.4331 -18.2734 L-37.4331 -26.8359 L-36.4331 -26.8359 L-36.4331 -23.1953 L-31.9175 -23.1953 L-31.9175 -26.8359 L-30.9175 -26.8359 L-30.9175 -18.2734 Z"/><path style="stroke:none;" d="M29.9175 -22.5703 Q29.9175 -20.5078 28.8784 -19.3281 Q27.8394 -18.1484 25.9956 -18.1484 Q24.105 -18.1484 23.0737 -19.3125 Q22.0425 -20.4766 22.0425 -22.5859 Q22.0425 -24.6797 23.0737 -25.8281 Q24.105 -26.9766 25.9956 -26.9766 Q27.855 -26.9766 28.8862 -25.8047 Q29.9175 -24.6328 29.9175 -22.5703 ZM23.0894 -22.5703 Q23.0894 -20.8359 23.8316 -19.9297 Q24.5737 -19.0234 25.9956 -19.0234 Q27.4175 -19.0234 28.1441 -19.9219 Q28.8706 -20.8203 28.8706 -22.5703 Q28.8706 -24.3047 28.1441 -25.1953 Q27.4175 -26.0859 25.9956 -26.0859 Q24.5737 -26.0859 23.8316 -25.1875 Q23.0894 -24.2891 23.0894 -22.5703 Z"/><path style="stroke:none;" d="M37.4331 -18.2734 L36.4331 -18.2734 L36.4331 -22.3047 L31.9175 -22.3047 L31.9175 -18.2734 L30.9175 -18.2734 L30.9175 -26.8359 L31.9175 -26.8359 L31.9175 -23.1953 L36.4331 -23.1953 L36.4331 -26.8359 L37.4331 -26.8359 L37.4331 -18.2734 Z"/><path style="stroke:none;" d="M3.9375 22.4297 Q3.9375 24.4922 2.8984 25.6719 Q1.8594 26.8516 0.0156 26.8516 Q-1.875 26.8516 -2.9062 25.6875 Q-3.9375 24.5234 -3.9375 22.4141 Q-3.9375 20.3203 -2.9062 19.1719 Q-1.875 18.0234 0.0156 18.0234 Q1.875 18.0234 2.9062 19.1953 Q3.9375 20.3672 3.9375 22.4297 ZM-2.8906 22.4297 Q-2.8906 24.1641 -2.1484 25.0703 Q-1.4062 25.9766 0.0156 25.9766 Q1.4375 25.9766 2.1641 25.0781 Q2.8906 24.1797 2.8906 22.4297 Q2.8906 20.6953 2.1641 19.8047 Q1.4375 18.9141 0.0156 18.9141 Q-1.4062 18.9141 -2.1484 19.8125 Q-2.8906 20.7109 -2.8906 22.4297 Z"/></g></g></svg></svg><svg y="60" x="16" class="cas-substance-saf"><svg y="7" x="0" width="4" style="fill:black;" height="4" class="cas-substance-saf-dot"><circle stroke="none" r="2" fill="black" cy="2" cx="2"/></svg><svg y="2" x="7" width="23" style="fill:black;" height="15" class="cas-substance-saf-coefficient"><svg><g><g transform="translate(12,7)" style="text-rendering:geometricPrecision; font-family:'Open Sans'; color-interpolation:linearRGB; color-rendering:optimizeQuality; image-rendering:optimizeQuality;"><path style="stroke:none;" d="M-3.3291 -2.3281 Q-3.3291 -1.5156 -3.79 -0.9922 Q-4.251 -0.4688 -5.0947 -0.2969 L-5.0947 -0.25 Q-4.0635 -0.125 -3.5635 0.4062 Q-3.0635 0.9375 -3.0635 1.7969 Q-3.0635 3.0156 -3.915 3.6797 Q-4.7666 4.3438 -6.3291 4.3438 Q-7.001 4.3438 -7.5713 4.2344 Q-8.1416 4.125 -8.6729 3.875 L-8.6729 2.9531 Q-8.1104 3.2188 -7.4775 3.3672 Q-6.8447 3.5156 -6.2822 3.5156 Q-4.0635 3.5156 -4.0635 1.7656 Q-4.0635 0.2031 -6.5166 0.2031 L-7.3604 0.2031 L-7.3604 -0.625 L-6.501 -0.625 Q-5.501 -0.625 -4.915 -1.0703 Q-4.3291 -1.5156 -4.3291 -2.2969 Q-4.3291 -2.9219 -4.7588 -3.2812 Q-5.1885 -3.6406 -5.9385 -3.6406 Q-6.501 -3.6406 -6.9932 -3.4844 Q-7.4854 -3.3281 -8.126 -2.9219 L-8.626 -3.5781 Q-8.0947 -4 -7.4072 -4.2344 Q-6.7197 -4.4688 -5.9541 -4.4688 Q-4.7041 -4.4688 -4.0166 -3.8984 Q-3.3291 -3.3281 -3.3291 -2.3281 ZM1.9229 -4.3438 L-1.2646 4.2188 L-2.2334 4.2188 L0.9541 -4.3438 L1.9229 -4.3438 ZM8.6729 2.25 L7.3916 2.25 L7.3916 4.2188 L6.4697 4.2188 L6.4697 2.25 L2.2979 2.25 L2.2979 1.4062 L6.3604 -4.3906 L7.3916 -4.3906 L7.3916 1.3594 L8.6729 1.3594 L8.6729 2.25 ZM6.4697 1.3594 L6.4697 -1.4844 Q6.4697 -2.3281 6.5322 -3.375 L6.4854 -3.375 Q6.2041 -2.8125 5.9541 -2.4375 L3.2666 1.3594 L6.4697 1.3594 Z"/></g></g></svg></svg><svg y="0" x="34" width="22" style="fill:black;" height="17" class="cas-substance-saf-image"><svg><g><g transform="translate(11,7)" style="text-rendering:geometricPrecision; font-family:'Open Sans'; color-interpolation:linearRGB; color-rendering:optimizeQuality; image-rendering:optimizeQuality;"><path style="stroke:none;" d="M-4.1748 4.1562 L-7.0811 -3.4375 L-7.1279 -3.4375 Q-7.0498 -2.5312 -7.0498 -1.2969 L-7.0498 4.1562 L-7.9717 4.1562 L-7.9717 -4.4062 L-6.4717 -4.4062 L-3.7529 2.6562 L-3.7061 2.6562 L-0.9717 -4.4062 L0.5127 -4.4062 L0.5127 4.1562 L-0.4717 4.1562 L-0.4717 -1.3594 Q-0.4717 -2.3125 -0.3936 -3.4219 L-0.4404 -3.4219 L-3.3779 4.1562 L-4.1748 4.1562 ZM7.9717 -2.2656 L7.9717 -1.6562 L6.7842 -1.5156 Q6.9561 -1.3125 7.0811 -0.9766 Q7.2061 -0.6406 7.2061 -0.2344 Q7.2061 0.7188 6.5654 1.2812 Q5.9248 1.8438 4.7998 1.8438 Q4.5029 1.8438 4.2529 1.7969 Q3.6436 2.125 3.6436 2.625 Q3.6436 2.8906 3.8545 3.0156 Q4.0654 3.1406 4.5967 3.1406 L5.7373 3.1406 Q6.7842 3.1406 7.3389 3.5781 Q7.8936 4.0156 7.8936 4.8594 Q7.8936 5.9219 7.042 6.4844 Q6.1904 7.0469 4.5498 7.0469 Q3.2842 7.0469 2.6045 6.5781 Q1.9248 6.1094 1.9248 5.25 Q1.9248 4.6562 2.2998 4.2266 Q2.6748 3.7969 3.3467 3.6562 Q3.0967 3.5469 2.9326 3.3125 Q2.7686 3.0781 2.7686 2.7656 Q2.7686 2.4062 2.9561 2.1406 Q3.1436 1.875 3.5498 1.6406 Q3.0498 1.4375 2.7373 0.9453 Q2.4248 0.4531 2.4248 -0.1875 Q2.4248 -1.2344 3.0576 -1.8125 Q3.6904 -2.3906 4.8467 -2.3906 Q5.3467 -2.3906 5.7529 -2.2656 L7.9717 -2.2656 ZM2.8623 5.2344 Q2.8623 5.75 3.2998 6.0234 Q3.7373 6.2969 4.5498 6.2969 Q5.7842 6.2969 6.3701 5.9297 Q6.9561 5.5625 6.9561 4.9375 Q6.9561 4.4219 6.6357 4.2188 Q6.3154 4.0156 5.4248 4.0156 L4.2529 4.0156 Q3.5967 4.0156 3.2295 4.3281 Q2.8623 4.6406 2.8623 5.2344 ZM3.3779 -0.2031 Q3.3779 0.4688 3.7607 0.8125 Q4.1436 1.1562 4.8311 1.1562 Q6.2529 1.1562 6.2529 -0.2344 Q6.2529 -1.6719 4.8154 -1.6719 Q4.1279 -1.6719 3.7529 -1.3047 Q3.3779 -0.9375 3.3779 -0.2031 Z"/></g></g></svg></svg></svg></svg></svg>