<svg width="277" viewBox="0 0 277 193" style="fill-opacity:1; color-rendering:auto; color-interpolation:auto; text-rendering:auto; stroke:black; stroke-linecap:square; stroke-miterlimit:10; shape-rendering:auto; stroke-opacity:1; fill:black; stroke-dasharray:none; font-weight:normal; stroke-width:1; font-family:'Open Sans'; font-style:normal; stroke-linejoin:miter; font-size:12; stroke-dashoffset:0; image-rendering:auto;" height="193" class="cas-substance-image" xmlns:xlink="http://www.w3.org/1999/xlink" xmlns="http://www.w3.org/2000/svg"><svg class="cas-substance-single-component"><rect y="0" x="0" width="277" stroke="none" ry="7" rx="7" height="193" fill="white" class="cas-substance-group"/><svg y="0" x="0" width="277" viewBox="0 0 277 193" style="fill:black;" height="193" class="cas-substance-single-component-image"><svg><g><g transform="translate(139,98)" style="text-rendering:geometricPrecision; color-rendering:optimizeQuality; color-interpolation:linearRGB; stroke-linecap:butt; image-rendering:optimizeQuality;"><path style="stroke:none;" d="M17 -39.6367 L16 -39.5533 L16 -39.5533 L16 -38.3867 L16 -38.3867 L17 -38.3033 L17 -38.3033 L17 -39.6367 ZM20 -39.8867 L19 -39.8033 L19 -39.8033 L19 -38.1367 L19 -38.1367 L20 -38.0533 L20 -38.0533 L20 -39.8867 ZM23 -40.1367 L22 -40.0533 L22 -40.0533 L22 -37.8867 L22 -37.8867 L23 -37.8033 L23 -37.8033 L23 -40.1367 ZM26 -40.3867 L25 -40.3033 L25 -40.3033 L25 -37.6367 L25 -37.6367 L26 -37.5533 L26 -37.5533 L26 -40.3867 ZM29 -40.6367 L28 -40.5533 L28 -40.5533 L28 -37.3867 L28 -37.3867 L29 -37.3033 L29 -37.3033 L29 -40.6367 ZM32 -40.8867 L31 -40.8033 L31 -40.8033 L31 -37.1367 L31 -37.1367 L32 -37.0533 L32 -37.0533 L32 -40.8867 ZM35 -41.1367 L34 -41.0533 L34 -41.0533 L34 -36.8867 L34 -36.8867 L35 -36.8033 L35 -36.8033 L35 -41.1367 ZM38 -41.3867 L37 -41.3033 L37 -41.3033 L37 -36.6367 L37 -36.6367 L38 -36.5533 L38 -41.3867 ZM41 -41.6367 L40 -41.5533 L40 -41.5533 L40 -36.3867 L40 -36.3867 L41 -36.3033 L41 -41.6367 ZM44 -41.8867 L43 -41.8033 L43 -41.8033 L43 -36.1367 L43 -36.1367 L44 -36.0533 L44 -41.8867 Z"/><line y2="-12.99" y1="-38.97" x2="60" x1="45" style="fill:none;"/><line y2="-19.1283" y1="-38.97" x2="3.544" x1="15" style="fill:none;"/><line y2="-64.953" y1="-38.97" x2="0" x1="15" style="fill:none;"/><line y2="-12.99" y1="-12.99" x2="-30" x1="-5.3516" style="fill:none;"/><line y2="-85.285" y1="-64.953" x2="11.739" x1="0" style="fill:none;"/><line y2="-66.703" y1="-66.703" x2="-24.0625" x1="1.0104" style="fill:none;"/><line y2="-63.203" y1="-63.203" x2="-24.0625" x1="1.0103" style="fill:none;"/><line y2="12.99" y1="-12.99" x2="-45" x1="-30" style="fill:none;"/><line y2="-34.2093" y1="-12.99" x2="-40.2306" x1="-27.9793" style="fill:none;"/><line y2="-32.4593" y1="-11.24" x2="-43.2617" x1="-31.0104" style="fill:none;"/><line y2="12.99" y1="12.99" x2="-75" x1="-45" style="fill:none;"/><path style="stroke:none;" d="M-45.433 13.24 L-44.567 12.74 L-30.946 31.3317 L-36.1421 34.3317 Z"/><line y2="-12.99" y1="12.99" x2="-90" x1="-75" style="fill:none;"/><line y2="64.953" y1="44.8583" x2="-45" x1="-33.3993" style="fill:none;"/><line y2="90.933" y1="64.953" x2="-30" x1="-45" style="fill:none;"/><line y2="63.203" y1="63.203" x2="-69.0625" x1="-43.9897" style="fill:none;"/><line y2="66.703" y1="66.703" x2="-69.0625" x1="-43.9896" style="fill:none;"/><line y2="12.99" y1="12.99" x2="105" x1="132.5" style="fill:none;"/><line y2="38.97" y1="62.3548" x2="60" x1="46.4999" style="fill:none;"/><line y2="38.97" y1="59.2252" x2="90" x1="101.6933" style="fill:none;"/><line y2="-12.99" y1="-12.99" x2="90" x1="60" style="fill:none;"/><line y2="-9.49" y1="-9.49" x2="87.9793" x1="62.0207" style="fill:none;"/><line y2="12.99" y1="-12.99" x2="45" x1="60" style="fill:none;"/><line y2="12.99" y1="-12.99" x2="105" x1="90" style="fill:none;"/><line y2="38.97" y1="12.99" x2="60" x1="45" style="fill:none;"/><line y2="35.47" y1="12.9899" x2="62.0207" x1="49.0415" style="fill:none;"/><line y2="38.97" y1="12.99" x2="90" x1="105" style="fill:none;"/><line y2="35.47" y1="12.9899" x2="87.9793" x1="100.9585" style="fill:none;"/><line y2="38.97" y1="38.97" x2="90" x1="60" style="fill:none;"/><line y2="-12.99" y1="-12.99" x2="-120" x1="-90" style="fill:none;"/><line y2="-16.49" y1="-16.49" x2="-117.9793" x1="-92.0207" style="fill:none;"/><line y2="-38.97" y1="-12.99" x2="-75" x1="-90" style="fill:none;"/><line y2="-38.97" y1="-12.99" x2="-135" x1="-120" style="fill:none;"/><line y2="-64.953" y1="-38.97" x2="-90" x1="-75" style="fill:none;"/><line y2="-61.4531" y1="-38.9702" x2="-92.0209" x1="-79.0415" style="fill:none;"/><line y2="-64.953" y1="-38.97" x2="-120" x1="-135" style="fill:none;"/><line y2="-61.4531" y1="-38.9702" x2="-117.9791" x1="-130.9585" style="fill:none;"/><line y2="-64.953" y1="-64.953" x2="-120" x1="-90" style="fill:none;"/><path style="fill:none; stroke-miterlimit:5;" d="M14.75 -38.537 L15 -38.97 L14.75 -39.403"/></g><g transform="translate(139,98)" style="stroke-linecap:butt; font-size:8.4px; fill:gray; text-rendering:geometricPrecision; image-rendering:optimizeQuality; color-rendering:optimizeQuality; font-family:'Open Sans'; font-style:italic; stroke:gray; color-interpolation:linearRGB; stroke-miterlimit:5;"><path style="stroke:none;" d="M15.8914 -46.4272 Q15.8914 -47.7553 16.3601 -48.8803 Q16.8289 -50.0053 17.8601 -51.0834 L18.4695 -51.0834 Q17.5007 -50.0209 17.0164 -48.8491 Q16.532 -47.6772 16.532 -46.4428 Q16.532 -45.1147 16.9695 -44.0991 L16.4539 -44.0991 Q15.8914 -45.1303 15.8914 -46.4272 ZM21.5139 -47.0209 Q21.5139 -46.1928 20.9671 -45.7397 Q20.4202 -45.2866 19.4202 -45.2866 Q19.0139 -45.2866 18.7014 -45.3413 Q18.3889 -45.3959 18.1077 -45.5366 L18.1077 -46.1928 Q18.7327 -45.8647 19.4358 -45.8647 Q20.0608 -45.8647 20.4358 -46.1616 Q20.8108 -46.4584 20.8108 -46.9741 Q20.8108 -47.2866 20.6077 -47.5131 Q20.4046 -47.7397 19.8421 -48.0678 Q19.2483 -48.3959 19.0217 -48.7241 Q18.7952 -49.0522 18.7952 -49.5053 Q18.7952 -50.2397 19.3108 -50.7006 Q19.8264 -51.1616 20.6702 -51.1616 Q21.0452 -51.1616 21.3811 -51.0834 Q21.7171 -51.0053 22.0921 -50.8334 L21.8264 -50.2397 Q21.5764 -50.3959 21.2561 -50.4819 Q20.9358 -50.5678 20.6702 -50.5678 Q20.1389 -50.5678 19.8186 -50.2944 Q19.4983 -50.0209 19.4983 -49.5522 Q19.4983 -49.3491 19.5686 -49.2006 Q19.6389 -49.0522 19.7796 -48.9194 Q19.9202 -48.7866 20.3421 -48.5366 Q20.9046 -48.1928 21.1077 -47.9975 Q21.3108 -47.8022 21.4124 -47.5678 Q21.5139 -47.3334 21.5139 -47.0209 ZM24.1084 -48.7397 Q24.1084 -47.4116 23.6319 -46.2788 Q23.1553 -45.1459 22.1397 -44.0991 L21.5303 -44.0991 Q23.4678 -46.2553 23.4678 -48.7397 Q23.4678 -50.0678 23.0303 -51.0834 L23.5459 -51.0834 Q24.1084 -50.0209 24.1084 -48.7397 Z"/></g><g transform="translate(139,98)" style="stroke-linecap:butt; fill:rgb(0,5,255); text-rendering:geometricPrecision; color-rendering:optimizeQuality; image-rendering:optimizeQuality; font-family:'Open Sans'; stroke:rgb(0,5,255); color-interpolation:linearRGB; stroke-miterlimit:5;"><path style="stroke:none;" d="M3.3516 -8.8337 L2.2109 -8.8337 L-2.4766 -16.0212 L-2.5234 -16.0212 Q-2.4297 -14.7556 -2.4297 -13.7087 L-2.4297 -8.8337 L-3.3516 -8.8337 L-3.3516 -17.3962 L-2.2266 -17.3962 L2.4453 -10.24 L2.4922 -10.24 Q2.4922 -10.3962 2.4453 -11.2556 Q2.3984 -12.115 2.4141 -12.49 L2.4141 -17.3962 L3.3516 -17.3962 L3.3516 -8.8337 Z"/><path style="stroke:none;" d="M3.2578 0.7288 L2.2578 0.7288 L2.2578 -3.3025 L-2.2578 -3.3025 L-2.2578 0.7288 L-3.2578 0.7288 L-3.2578 -7.8337 L-2.2578 -7.8337 L-2.2578 -4.1931 L2.2578 -4.1931 L2.2578 -7.8337 L3.2578 -7.8337 L3.2578 0.7288 Z"/><path style="fill:none; stroke:black;" d="M0.25 -64.52 L0 -64.953 L0.25 -65.386"/><path style="fill:none; stroke:black;" d="M-29.5 -12.99 L-30 -12.99 L-30.25 -12.557"/><path style="fill:rgb(230,0,0); stroke:none;" d="M18.9375 -91.0033 Q18.9375 -88.9408 17.8984 -87.7611 Q16.8594 -86.5814 15.0156 -86.5814 Q13.125 -86.5814 12.0938 -87.7455 Q11.0625 -88.9096 11.0625 -91.0189 Q11.0625 -93.1127 12.0938 -94.2611 Q13.125 -95.4096 15.0156 -95.4096 Q16.875 -95.4096 17.9062 -94.2377 Q18.9375 -93.0658 18.9375 -91.0033 ZM12.1094 -91.0033 Q12.1094 -89.2689 12.8516 -88.3627 Q13.5938 -87.4564 15.0156 -87.4564 Q16.4375 -87.4564 17.1641 -88.3549 Q17.8906 -89.2533 17.8906 -91.0033 Q17.8906 -92.7377 17.1641 -93.6283 Q16.4375 -94.5189 15.0156 -94.5189 Q13.5938 -94.5189 12.8516 -93.6205 Q12.1094 -92.7221 12.1094 -91.0033 Z"/><path style="fill:rgb(230,0,0); stroke:none;" d="M26.4531 -86.7064 L25.4531 -86.7064 L25.4531 -90.7377 L20.9375 -90.7377 L20.9375 -86.7064 L19.9375 -86.7064 L19.9375 -95.2689 L20.9375 -95.2689 L20.9375 -91.6283 L25.4531 -91.6283 L25.4531 -95.2689 L26.4531 -95.2689 L26.4531 -86.7064 Z"/><path style="fill:rgb(230,0,0); stroke:none;" d="M-26.0625 -65.0233 Q-26.0625 -62.9608 -27.1016 -61.7811 Q-28.1406 -60.6014 -29.9844 -60.6014 Q-31.875 -60.6014 -32.9062 -61.7655 Q-33.9375 -62.9296 -33.9375 -65.0389 Q-33.9375 -67.1327 -32.9062 -68.2811 Q-31.875 -69.4296 -29.9844 -69.4296 Q-28.125 -69.4296 -27.0938 -68.2577 Q-26.0625 -67.0858 -26.0625 -65.0233 ZM-32.8906 -65.0233 Q-32.8906 -63.2889 -32.1484 -62.3827 Q-31.4062 -61.4764 -29.9844 -61.4764 Q-28.5625 -61.4764 -27.8359 -62.3749 Q-27.1094 -63.2733 -27.1094 -65.0233 Q-27.1094 -66.7577 -27.8359 -67.6483 Q-28.5625 -68.5389 -29.9844 -68.5389 Q-31.4062 -68.5389 -32.1484 -67.6405 Q-32.8906 -66.7421 -32.8906 -65.0233 Z"/></g><g transform="translate(139,98)" style="stroke-linecap:butt; font-size:8.4px; fill:gray; text-rendering:geometricPrecision; image-rendering:optimizeQuality; color-rendering:optimizeQuality; font-family:'Open Sans'; font-style:italic; stroke:gray; color-interpolation:linearRGB; stroke-miterlimit:5;"><path style="stroke:none;" d="M-54.1083 5.5327 Q-54.1083 4.2046 -53.6395 3.0796 Q-53.1708 1.9546 -52.1395 0.8765 L-51.5302 0.8765 Q-52.4989 1.939 -52.9833 3.1109 Q-53.4677 4.2827 -53.4677 5.5171 Q-53.4677 6.8452 -53.0302 7.8609 L-53.5458 7.8609 Q-54.1083 6.8296 -54.1083 5.5327 ZM-48.4857 4.939 Q-48.4857 5.7671 -49.0326 6.2202 Q-49.5795 6.6734 -50.5795 6.6734 Q-50.9857 6.6734 -51.2982 6.6187 Q-51.6107 6.564 -51.892 6.4234 L-51.892 5.7671 Q-51.267 6.0952 -50.5639 6.0952 Q-49.9389 6.0952 -49.5639 5.7984 Q-49.1889 5.5015 -49.1889 4.9859 Q-49.1889 4.6734 -49.392 4.4468 Q-49.5951 4.2202 -50.1576 3.8921 Q-50.7514 3.564 -50.9779 3.2359 Q-51.2045 2.9077 -51.2045 2.4546 Q-51.2045 1.7202 -50.6889 1.2593 Q-50.1732 0.7984 -49.3295 0.7984 Q-48.9545 0.7984 -48.6186 0.8765 Q-48.2826 0.9546 -47.9076 1.1265 L-48.1732 1.7202 Q-48.4232 1.564 -48.7436 1.4781 Q-49.0639 1.3921 -49.3295 1.3921 Q-49.8607 1.3921 -50.1811 1.6656 Q-50.5014 1.939 -50.5014 2.4077 Q-50.5014 2.6109 -50.4311 2.7593 Q-50.3607 2.9077 -50.2201 3.0406 Q-50.0795 3.1734 -49.6576 3.4234 Q-49.0951 3.7671 -48.892 3.9624 Q-48.6889 4.1577 -48.5873 4.3921 Q-48.4857 4.6265 -48.4857 4.939 ZM-45.8913 3.2202 Q-45.8913 4.5484 -46.3678 5.6812 Q-46.8444 6.814 -47.86 7.8609 L-48.4694 7.8609 Q-46.5319 5.7046 -46.5319 3.2202 Q-46.5319 1.8921 -46.9694 0.8765 L-46.4538 0.8765 Q-45.8913 1.939 -45.8913 3.2202 Z"/></g><g transform="translate(139,98)" style="stroke-linecap:butt; fill:rgb(230,0,0); text-rendering:geometricPrecision; color-rendering:optimizeQuality; image-rendering:optimizeQuality; font-family:'Open Sans'; stroke:rgb(230,0,0); color-interpolation:linearRGB; stroke-miterlimit:5;"><path style="stroke:none;" d="M-41.0625 -39.0403 Q-41.0625 -36.9778 -42.1016 -35.7981 Q-43.1406 -34.6184 -44.9844 -34.6184 Q-46.875 -34.6184 -47.9062 -35.7825 Q-48.9375 -36.9466 -48.9375 -39.0559 Q-48.9375 -41.1497 -47.9062 -42.2981 Q-46.875 -43.4466 -44.9844 -43.4466 Q-43.125 -43.4466 -42.0938 -42.2747 Q-41.0625 -41.1028 -41.0625 -39.0403 ZM-47.8906 -39.0403 Q-47.8906 -37.3059 -47.1484 -36.3997 Q-46.4062 -35.4934 -44.9844 -35.4934 Q-43.5625 -35.4934 -42.8359 -36.3919 Q-42.1094 -37.2903 -42.1094 -39.0403 Q-42.1094 -40.7747 -42.8359 -41.6653 Q-43.5625 -42.5559 -44.9844 -42.5559 Q-46.4062 -42.5559 -47.1484 -41.6575 Q-47.8906 -40.7591 -47.8906 -39.0403 Z"/><path style="fill:none; stroke:black;" d="M-74.5 12.99 L-75 12.99 L-75.25 12.557"/><path style="fill:rgb(0,5,255); stroke:none;" d="M-26.6484 43.1263 L-27.7891 43.1263 L-32.4766 35.9388 L-32.5234 35.9388 Q-32.4297 37.2044 -32.4297 38.2513 L-32.4297 43.1263 L-33.3516 43.1263 L-33.3516 34.5638 L-32.2266 34.5638 L-27.5547 41.72 L-27.5078 41.72 Q-27.5078 41.5638 -27.5547 40.7044 Q-27.6016 39.845 -27.5859 39.47 L-27.5859 34.5638 L-26.6484 34.5638 L-26.6484 43.1263 Z"/><path style="fill:rgb(0,5,255); stroke:none;" d="M-19.1328 43.1263 L-20.1328 43.1263 L-20.1328 39.095 L-24.6484 39.095 L-24.6484 43.1263 L-25.6484 43.1263 L-25.6484 34.5638 L-24.6484 34.5638 L-24.6484 38.2044 L-20.1328 38.2044 L-20.1328 34.5638 L-19.1328 34.5638 L-19.1328 43.1263 Z"/><path style="fill:none; stroke:black;" d="M-44.75 64.52 L-45 64.953 L-44.75 65.386"/><path style="stroke:none;" d="M-71.0625 64.8827 Q-71.0625 66.9452 -72.1016 68.1249 Q-73.1406 69.3046 -74.9844 69.3046 Q-76.875 69.3046 -77.9062 68.1405 Q-78.9375 66.9764 -78.9375 64.8671 Q-78.9375 62.7733 -77.9062 61.6249 Q-76.875 60.4764 -74.9844 60.4764 Q-73.125 60.4764 -72.0938 61.6483 Q-71.0625 62.8202 -71.0625 64.8827 ZM-77.8906 64.8827 Q-77.8906 66.6171 -77.1484 67.5233 Q-76.4062 68.4296 -74.9844 68.4296 Q-73.5625 68.4296 -72.8359 67.5311 Q-72.1094 66.6327 -72.1094 64.8827 Q-72.1094 63.1483 -72.8359 62.2577 Q-73.5625 61.3671 -74.9844 61.3671 Q-76.4062 61.3671 -77.1484 62.2655 Q-77.8906 63.1639 -77.8906 64.8827 Z"/><path style="fill:rgb(0,138,0); stroke:none;" d="M134.5 17.1462 L134.5 8.5837 L135.5 8.5837 L135.5 17.1462 L134.5 17.1462 Z"/><path style="fill:rgb(0,138,0); stroke:none;" d="M44.5 69.1093 L44.5 60.5468 L45.5 60.5468 L45.5 69.1093 L44.5 69.1093 Z"/><path style="stroke:none;" d="M108.9375 64.8827 Q108.9375 66.9452 107.8984 68.1249 Q106.8594 69.3046 105.0156 69.3046 Q103.125 69.3046 102.0938 68.1405 Q101.0625 66.9764 101.0625 64.8671 Q101.0625 62.7733 102.0938 61.6249 Q103.125 60.4764 105.0156 60.4764 Q106.875 60.4764 107.9062 61.6483 Q108.9375 62.8202 108.9375 64.8827 ZM102.1094 64.8827 Q102.1094 66.6171 102.8516 67.5233 Q103.5938 68.4296 105.0156 68.4296 Q106.4375 68.4296 107.1641 67.5311 Q107.8906 66.6327 107.8906 64.8827 Q107.8906 63.1483 107.1641 62.2577 Q106.4375 61.3671 105.0156 61.3671 Q103.5938 61.3671 102.8516 62.2655 Q102.1094 63.1639 102.1094 64.8827 Z"/><path style="stroke:none;" d="M116.4531 69.1796 L115.4531 69.1796 L115.4531 65.1483 L110.9375 65.1483 L110.9375 69.1796 L109.9375 69.1796 L109.9375 60.6171 L110.9375 60.6171 L110.9375 64.2577 L115.4531 64.2577 L115.4531 60.6171 L116.4531 60.6171 L116.4531 69.1796 Z"/><path style="fill:none; stroke:black;" d="M60.5 -12.99 L60 -12.99 L59.75 -13.423"/><path style="fill:none; stroke:black;" d="M89.5 -12.99 L90 -12.99 L90.25 -12.557"/><path style="fill:none; stroke:black;" d="M45.25 12.557 L45 12.99 L45.25 13.423"/><path style="fill:none; stroke:black;" d="M104.75 13.423 L105 12.99 L105.5 12.99"/><path style="fill:none; stroke:black;" d="M59.75 38.537 L60 38.97 L59.75 39.403"/><path style="fill:none; stroke:black;" d="M90.25 38.537 L90 38.97 L90.25 39.403"/><path style="fill:none; stroke:black;" d="M-90.5 -12.99 L-90 -12.99 L-89.75 -12.557"/><path style="fill:none; stroke:black;" d="M-119.5 -12.99 L-120 -12.99 L-120.25 -13.423"/><path style="fill:none; stroke:black;" d="M-75.25 -38.537 L-75 -38.97 L-75.25 -39.403"/><path style="fill:none; stroke:black;" d="M-134.75 -38.537 L-135 -38.97 L-134.75 -39.403"/><path style="fill:none; stroke:black;" d="M-89.75 -64.52 L-90 -64.953 L-90.5 -64.953"/><path style="fill:none; stroke:black;" d="M-120.25 -64.52 L-120 -64.953 L-119.5 -64.953"/></g></g></svg></svg></svg></svg>