<svg width="217" viewBox="0 0 217 107" style="fill-opacity:1; color-rendering:auto; color-interpolation:auto; text-rendering:auto; stroke:black; stroke-linecap:square; stroke-miterlimit:10; shape-rendering:auto; stroke-opacity:1; fill:black; stroke-dasharray:none; font-weight:normal; stroke-width:1; font-family:'Open Sans'; font-style:normal; stroke-linejoin:miter; font-size:12; stroke-dashoffset:0; image-rendering:auto;" height="107" class="cas-substance-image" xmlns:xlink="http://www.w3.org/1999/xlink" xmlns="http://www.w3.org/2000/svg"><svg class="cas-substance-single-component"><rect y="0" x="0" width="217" stroke="none" ry="7" rx="7" height="107" fill="white" class="cas-substance-group"/><svg y="0" x="0" width="217" viewBox="0 0 217 107" style="fill:black;" height="107" class="cas-substance-single-component-image"><svg><g><g transform="translate(109,51)" style="text-rendering:geometricPrecision; color-rendering:optimizeQuality; color-interpolation:linearRGB; stroke-linecap:butt; image-rendering:optimizeQuality;"><line y2="-18.81" y1="-48.153" x2="-75.666" x1="-81.903" style="fill:none;"/><line y2="-18.81" y1="-15.672" x2="-75.666" x1="-105.501" style="fill:none;"/><line y2="11.19" y1="8.055" x2="-75.666" x1="-105.501" style="fill:none;"/><line y2="11.19" y1="40.536" x2="-75.666" x1="-81.903" style="fill:none;"/><line y2="22.173" y1="42.2804" x2="45.501" x1="57.1104" style="fill:none;"/><line y2="-29.79" y1="-9.5317" x2="105.501" x1="93.8045" style="fill:none;"/><line y2="-3.81" y1="-3.81" x2="60.501" x1="84.5635" style="fill:none;"/><line y2="-22.9207" y1="-9.514" x2="-43.3844" x1="-33.6434" style="fill:none;"/><line y2="15.2256" y1="1.8945" x2="-43.3281" x1="-33.6433" style="fill:none;"/><line y2="-3.81" y1="-3.81" x2="0.501" x1="-24.5303" style="fill:none;"/><line y2="-18.81" y1="-26.1828" x2="-75.666" x1="-52.9726" style="fill:none;"/><line y2="11.19" y1="18.5652" x2="-75.666" x1="-52.9726" style="fill:none;"/><line y2="11.19" y1="-18.81" x2="-75.666" x1="-75.666" style="fill:none;"/><line y2="22.173" y1="-3.81" x2="15.501" x1="0.501" style="fill:none;"/><line y2="-29.79" y1="-3.81" x2="15.501" x1="0.501" style="fill:none;"/><line y2="-26.29" y1="-3.8099" x2="17.5217" x1="4.5425" style="fill:none;"/><line y2="22.173" y1="22.173" x2="45.501" x1="15.501" style="fill:none;"/><line y2="18.673" y1="18.673" x2="43.4803" x1="17.5217" style="fill:none;"/><line y2="-29.79" y1="-29.79" x2="40.1494" x1="15.501" style="fill:none;"/><line y2="-3.81" y1="22.173" x2="60.501" x1="45.501" style="fill:none;"/><line y2="-3.81" y1="-23.9017" x2="60.501" x1="48.9007" style="fill:none;"/><line y2="-3.8099" y1="-22.1517" x2="56.4595" x1="45.8696" style="fill:none;"/></g><g transform="translate(109,51)" style="fill:rgb(0,138,0); text-rendering:geometricPrecision; color-rendering:optimizeQuality; image-rendering:optimizeQuality; font-family:'Open Sans'; stroke:rgb(0,138,0); color-interpolation:linearRGB;"><path style="stroke:none;" d="M59.1104 52.3092 L58.1104 52.3092 L58.1104 43.7467 L62.8916 43.7467 L62.8916 44.6217 L59.1104 44.6217 L59.1104 47.7624 L62.6572 47.7624 L62.6572 48.653 L59.1104 48.653 L59.1104 52.3092 Z"/><path style="fill:rgb(230,0,0); stroke:none;" d="M94.4385 -3.8803 Q94.4385 -1.8178 93.3994 -0.6381 Q92.3604 0.5416 90.5166 0.5416 Q88.626 0.5416 87.5947 -0.6225 Q86.5635 -1.7866 86.5635 -3.8959 Q86.5635 -5.9897 87.5947 -7.1381 Q88.626 -8.2866 90.5166 -8.2866 Q92.376 -8.2866 93.4072 -7.1147 Q94.4385 -5.9428 94.4385 -3.8803 ZM87.6104 -3.8803 Q87.6104 -2.1459 88.3526 -1.2397 Q89.0947 -0.3334 90.5166 -0.3334 Q91.9385 -0.3334 92.6651 -1.2319 Q93.3916 -2.1303 93.3916 -3.8803 Q93.3916 -5.6147 92.6651 -6.5053 Q91.9385 -7.3959 90.5166 -7.3959 Q89.0947 -7.3959 88.3526 -6.4975 Q87.6104 -5.5991 87.6104 -3.8803 Z"/><path style="fill:black; stroke:none;" d="M-32.4678 -8.2163 L-30.0459 -8.2163 Q-28.3428 -8.2163 -27.5771 -7.7084 Q-26.8115 -7.2006 -26.8115 -6.1069 Q-26.8115 -5.3413 -27.2334 -4.8413 Q-27.6553 -4.3413 -28.4834 -4.2006 L-28.4834 -4.1381 Q-26.5303 -3.81 -26.5303 -2.0913 Q-26.5303 -0.9506 -27.3037 -0.3022 Q-28.0771 0.3462 -29.4678 0.3462 L-32.4678 0.3462 L-32.4678 -8.2163 ZM-31.4678 -4.56 L-29.8271 -4.56 Q-28.7646 -4.56 -28.3037 -4.8881 Q-27.8428 -5.2163 -27.8428 -5.9975 Q-27.8428 -6.7163 -28.3584 -7.0366 Q-28.874 -7.3569 -29.999 -7.3569 L-31.4678 -7.3569 L-31.4678 -4.56 ZM-31.4678 -3.7163 L-31.4678 -0.4975 L-29.6709 -0.4975 Q-28.6396 -0.4975 -28.1162 -0.9038 Q-27.5928 -1.31 -27.5928 -2.1694 Q-27.5928 -2.9663 -28.1318 -3.3413 Q-28.6709 -3.7163 -29.7646 -3.7163 L-31.4678 -3.7163 Z"/><path style="fill:rgb(230,0,0); stroke:none;" d="M-43.1955 -28.1503 Q-43.1955 -26.0878 -44.2346 -24.9081 Q-45.2736 -23.7284 -47.1174 -23.7284 Q-49.008 -23.7284 -50.0392 -24.8925 Q-51.0705 -26.0566 -51.0705 -28.1659 Q-51.0705 -30.2597 -50.0392 -31.4081 Q-49.008 -32.5566 -47.1174 -32.5566 Q-45.258 -32.5566 -44.2267 -31.3847 Q-43.1955 -30.2128 -43.1955 -28.1503 ZM-50.0236 -28.1503 Q-50.0236 -26.4159 -49.2814 -25.5097 Q-48.5392 -24.6034 -47.1174 -24.6034 Q-45.6955 -24.6034 -44.9689 -25.5019 Q-44.2424 -26.4003 -44.2424 -28.1503 Q-44.2424 -29.8847 -44.9689 -30.7753 Q-45.6955 -31.6659 -47.1174 -31.6659 Q-48.5392 -31.6659 -49.2814 -30.7675 Q-50.0236 -29.8691 -50.0236 -28.1503 Z"/><path style="fill:rgb(230,0,0); stroke:none;" d="M-43.1955 20.3927 Q-43.1955 22.4552 -44.2346 23.6349 Q-45.2736 24.8146 -47.1174 24.8146 Q-49.008 24.8146 -50.0392 23.6505 Q-51.0705 22.4864 -51.0705 20.3771 Q-51.0705 18.2833 -50.0392 17.1349 Q-49.008 15.9864 -47.1174 15.9864 Q-45.258 15.9864 -44.2267 17.1583 Q-43.1955 18.3302 -43.1955 20.3927 ZM-50.0236 20.3927 Q-50.0236 22.1271 -49.2814 23.0333 Q-48.5392 23.9396 -47.1174 23.9396 Q-45.6955 23.9396 -44.9689 23.0411 Q-44.2424 22.1427 -44.2424 20.3927 Q-44.2424 18.6583 -44.9689 17.7677 Q-45.6955 16.8771 -47.1174 16.8771 Q-48.5392 16.8771 -49.2814 17.7755 Q-50.0236 18.6739 -50.0236 20.3927 Z"/></g><g transform="translate(109,51)" style="stroke-linecap:butt; text-rendering:geometricPrecision; color-rendering:optimizeQuality; image-rendering:optimizeQuality; font-family:'Open Sans'; color-interpolation:linearRGB; stroke-miterlimit:5;"><path style="fill:none;" d="M0.751 -4.243 L0.501 -3.81 L0.751 -3.377"/><path style="fill:none;" d="M15.251 21.74 L15.501 22.173 L16.001 22.173"/><path style="fill:none;" d="M15.251 -29.357 L15.501 -29.79 L16.001 -29.79"/><path style="fill:none;" d="M45.001 22.173 L45.501 22.173 L45.751 22.606"/><path style="fill:rgb(0,5,255); stroke:none;" d="M48.8526 -25.6337 L47.7119 -25.6337 L43.0244 -32.8213 L42.9776 -32.8213 Q43.0713 -31.5556 43.0713 -30.5087 L43.0713 -25.6337 L42.1494 -25.6337 L42.1494 -34.1963 L43.2744 -34.1963 L47.9463 -27.04 L47.9932 -27.04 Q47.9932 -27.1962 47.9463 -28.0556 Q47.8994 -28.915 47.9151 -29.29 L47.9151 -34.1963 L48.8526 -34.1963 L48.8526 -25.6337 Z"/><path style="fill:none;" d="M60.251 -4.243 L60.501 -3.81 L60.251 -3.377"/></g></g></svg></svg></svg></svg>