<svg width="241" viewBox="0 0 241 131" style="fill-opacity:1; color-rendering:auto; color-interpolation:auto; text-rendering:auto; stroke:black; stroke-linecap:square; stroke-miterlimit:10; shape-rendering:auto; stroke-opacity:1; fill:black; stroke-dasharray:none; font-weight:normal; stroke-width:1; font-family:'Open Sans'; font-style:normal; stroke-linejoin:miter; font-size:12; stroke-dashoffset:0; image-rendering:auto;" height="131" class="cas-substance-image" xmlns:xlink="http://www.w3.org/1999/xlink" xmlns="http://www.w3.org/2000/svg"><svg class="cas-substance-single-component"><rect y="0" x="0" width="241" stroke="none" ry="7" rx="7" height="131" fill="white" class="cas-substance-group"/><svg y="0" x="0" width="241" viewBox="0 0 241 131" style="fill:black;" height="131" class="cas-substance-single-component-image"><svg><g><g transform="translate(120,64)" style="text-rendering:geometricPrecision; color-rendering:optimizeQuality; color-interpolation:linearRGB; stroke-linecap:butt; image-rendering:optimizeQuality;"><line y2="-12.0649" y1="0" x2="-18.0736" x1="-38.97" style="fill:none;"/><line y2="-9.0338" y1="2.0207" x2="-16.3236" x1="-35.47" style="fill:none;"/><line y2="30" y1="0" x2="-38.97" x1="-38.97" style="fill:none;"/><line y2="-15" y1="0" x2="-64.953" x1="-38.97" style="fill:none;"/><line y2="-3.2414" y1="-12.0649" x2="7.3759" x1="-7.9064" style="fill:none;"/><line y2="53.5938" y1="30" x2="-38.97" x1="-38.97" style="fill:none;"/><line y2="53.5938" y1="30" x2="-35.47" x1="-35.47" style="fill:none;"/><line y2="53.5938" y1="30" x2="-42.47" x1="-42.47" style="fill:none;"/><line y2="-15" y1="-3.226" x2="38.97" x1="18.5775" style="fill:none;"/><line y2="-3.2412" y1="-15" x2="59.3387" x1="38.97" style="fill:none;"/><line y2="-38.6484" y1="-13.9897" x2="40.72" x1="40.72" style="fill:none;"/><line y2="-38.6484" y1="-13.9896" x2="37.22" x1="37.22" style="fill:none;"/><line y2="-15" y1="-3.226" x2="90.933" x1="70.5405" style="fill:none;"/><line y2="-40.98" y1="-15" x2="75.933" x1="90.933" style="fill:none;"/><line y2="-30" y1="-15" x2="116.913" x1="90.933" style="fill:none;"/><line y2="10.98" y1="-15" x2="105.933" x1="90.933" style="fill:none;"/><line y2="0" y1="-15" x2="-90.933" x1="-64.953" style="fill:none;"/><line y2="-4.0415" y1="-17.0207" x2="-90.9331" x1="-68.453" style="fill:none;"/><line y2="-45" y1="-15" x2="-64.953" x1="-64.953" style="fill:none;"/><line y2="-15" y1="0" x2="-116.913" x1="-90.933" style="fill:none;"/><line y2="-60" y1="-45" x2="-90.933" x1="-64.953" style="fill:none;"/><line y2="-55.9585" y1="-42.9793" x2="-90.9331" x1="-68.453" style="fill:none;"/><line y2="-45" y1="-15" x2="-116.913" x1="-116.913" style="fill:none;"/><line y2="-42.9793" y1="-17.0207" x2="-113.413" x1="-113.413" style="fill:none;"/><line y2="-45" y1="-60" x2="-116.913" x1="-90.933" style="fill:none;"/><path style="fill:none; stroke-miterlimit:5;" d="M-38.537 -0.25 L-38.97 0 L-38.97 0.5"/></g><g transform="translate(120,64)" style="stroke-linecap:butt; fill:rgb(0,5,255); text-rendering:geometricPrecision; color-rendering:optimizeQuality; image-rendering:optimizeQuality; font-family:'Open Sans'; stroke:rgb(0,5,255); color-interpolation:linearRGB; stroke-miterlimit:5;"><path style="stroke:none;" d="M-9.6384 -10.8438 L-10.7791 -10.8438 L-15.4666 -18.0312 L-15.5134 -18.0312 Q-15.4197 -16.7656 -15.4197 -15.7188 L-15.4197 -10.8438 L-16.3416 -10.8438 L-16.3416 -19.4062 L-15.2166 -19.4062 L-10.5447 -12.25 L-10.4978 -12.25 Q-10.4978 -12.4062 -10.5447 -13.2656 Q-10.5916 -14.125 -10.5759 -14.5 L-10.5759 -19.4062 L-9.6384 -19.4062 L-9.6384 -10.8438 Z"/><path style="fill:rgb(230,0,0); stroke:none;" d="M16.9275 -0.0703 Q16.9275 1.9922 15.8884 3.1719 Q14.8494 4.3516 13.0056 4.3516 Q11.115 4.3516 10.0837 3.1875 Q9.0525 2.0234 9.0525 -0.0859 Q9.0525 -2.1797 10.0837 -3.3281 Q11.115 -4.4766 13.0056 -4.4766 Q14.865 -4.4766 15.8962 -3.3047 Q16.9275 -2.1328 16.9275 -0.0703 ZM10.0994 -0.0703 Q10.0994 1.6641 10.8416 2.5703 Q11.5837 3.4766 13.0056 3.4766 Q14.4275 3.4766 15.1541 2.5781 Q15.8806 1.6797 15.8806 -0.0703 Q15.8806 -1.8047 15.1541 -2.6953 Q14.4275 -3.5859 13.0056 -3.5859 Q11.5837 -3.5859 10.8416 -2.6875 Q10.0994 -1.7891 10.0994 -0.0703 Z"/><path style="stroke:none;" d="M-35.6184 64.1562 L-36.7591 64.1562 L-41.4466 56.9688 L-41.4934 56.9688 Q-41.3997 58.2344 -41.3997 59.2812 L-41.3997 64.1562 L-42.3216 64.1562 L-42.3216 55.5938 L-41.1966 55.5938 L-36.5247 62.75 L-36.4778 62.75 Q-36.4778 62.5938 -36.5247 61.7344 Q-36.5716 60.875 -36.5559 60.5 L-36.5559 55.5938 L-35.6184 55.5938 L-35.6184 64.1562 Z"/><path style="fill:none; stroke:black;" d="M38.537 -14.75 L38.97 -15 L39.403 -14.75"/><path style="fill:rgb(230,0,0); stroke:none;" d="M68.8905 -0.0703 Q68.8905 1.9922 67.8514 3.1719 Q66.8124 4.3516 64.9686 4.3516 Q63.078 4.3516 62.0468 3.1875 Q61.0155 2.0234 61.0155 -0.0859 Q61.0155 -2.1797 62.0468 -3.3281 Q63.078 -4.4766 64.9686 -4.4766 Q66.828 -4.4766 67.8593 -3.3047 Q68.8905 -2.1328 68.8905 -0.0703 ZM62.0624 -0.0703 Q62.0624 1.6641 62.8046 2.5703 Q63.5468 3.4766 64.9686 3.4766 Q66.3905 3.4766 67.1171 2.5781 Q67.8436 1.6797 67.8436 -0.0703 Q67.8436 -1.8047 67.1171 -2.6953 Q66.3905 -3.5859 64.9686 -3.5859 Q63.5468 -3.5859 62.8046 -2.6875 Q62.0624 -1.7891 62.0624 -0.0703 Z"/><path style="fill:rgb(230,0,0); stroke:none;" d="M42.9075 -45.0703 Q42.9075 -43.0078 41.8684 -41.8281 Q40.8294 -40.6484 38.9856 -40.6484 Q37.095 -40.6484 36.0638 -41.8125 Q35.0325 -42.9766 35.0325 -45.0859 Q35.0325 -47.1797 36.0638 -48.3281 Q37.095 -49.4766 38.9856 -49.4766 Q40.845 -49.4766 41.8763 -48.3047 Q42.9075 -47.1328 42.9075 -45.0703 ZM36.0794 -45.0703 Q36.0794 -43.3359 36.8216 -42.4297 Q37.5638 -41.5234 38.9856 -41.5234 Q40.4075 -41.5234 41.1341 -42.4219 Q41.8606 -43.3203 41.8606 -45.0703 Q41.8606 -46.8047 41.1341 -47.6953 Q40.4075 -48.5859 38.9856 -48.5859 Q37.5638 -48.5859 36.8216 -47.6875 Q36.0794 -46.7891 36.0794 -45.0703 Z"/><path style="fill:none; stroke:black;" d="M-65.386 -14.75 L-64.953 -15 L-64.953 -15.5"/><path style="fill:none; stroke:black;" d="M-90.5 -0.25 L-90.933 0 L-91.366 -0.25"/><path style="fill:none; stroke:black;" d="M-64.953 -44.5 L-64.953 -45 L-65.386 -45.25"/><path style="fill:none; stroke:black;" d="M-116.48 -14.75 L-116.913 -15 L-116.913 -15.5"/><path style="fill:none; stroke:black;" d="M-90.5 -59.75 L-90.933 -60 L-91.366 -59.75"/><path style="fill:none; stroke:black;" d="M-116.913 -44.5 L-116.913 -45 L-116.48 -45.25"/></g></g></svg></svg></svg></svg>