<svg xmlns:ns0="http://www.w3.org/2000/svg" xmlns="http://www.w3.org/2000/svg"><g transform="translate(0, 0)"><ns0:svg width="712" viewBox="0 0 712 268" style="fill-opacity:1; color-rendering:auto; color-interpolation:auto; text-rendering:auto; stroke:black; stroke-linecap:square; stroke-miterlimit:10; shape-rendering:auto; stroke-opacity:1; fill:black; stroke-dasharray:none; font-weight:normal; stroke-width:1; font-family:'Open Sans'; font-style:normal; stroke-linejoin:miter; font-size:12; stroke-dashoffset:0; image-rendering:auto;" height="268" class="cas-substance-image"><ns0:svg class="cas-substance-single-component"><ns0:rect y="0" x="0" width="712" stroke="none" ry="7" rx="7" height="268" fill="white" class="cas-substance-group" /><ns0:svg y="0" x="0" width="712" viewBox="0 0 712 268" style="fill:black;" height="268" class="cas-substance-single-component-image"><ns0:svg><ns0:g><ns0:g transform="translate(357,134)" style="text-rendering:geometricPrecision; color-rendering:optimizeQuality; color-interpolation:linearRGB; stroke-linecap:butt; image-rendering:optimizeQuality;"><ns0:path style="stroke:none;" d="M-9.238 -34.634 L-8.372 -35.134 L8.7931 -10.404 L3.5969 -7.404 Z" /><ns0:path style="stroke:none;" d="M5.863 -111.6184 L1.2386 -108.0662 L1.2386 -108.0662 L1.9131 -107.3239 L1.9131 -107.3239 L6.4053 -110.7746 L6.4053 -110.7746 L5.863 -111.6184 ZM7.4901 -109.087 L3.262 -105.8393 L3.262 -105.8393 L3.9365 -105.097 L3.9365 -105.097 L8.0324 -108.2432 L8.0324 -108.2432 L7.4901 -109.087 ZM9.1172 -106.5557 L5.2855 -103.6124 L5.2855 -103.6124 L5.96 -102.8701 L5.96 -102.8701 L9.6595 -105.7119 L9.1172 -106.5557 ZM10.7442 -104.0243 L7.3089 -101.3855 L7.3089 -101.3855 L7.9834 -100.6432 L7.9834 -100.6432 L11.2866 -103.1805 L11.2866 -103.1805 L10.7442 -104.0243 ZM12.3713 -101.4929 L9.3324 -99.1586 L9.3324 -99.1586 L10.0068 -98.4163 L10.0068 -98.4163 L12.9137 -100.6492 L12.9137 -100.6492 L12.3713 -101.4929 ZM13.9984 -98.9616 L11.3558 -96.9317 L11.3558 -96.9317 L12.0303 -96.1894 L14.5408 -98.1178 L14.5408 -98.1178 L13.9984 -98.9616 ZM15.6255 -96.4302 L13.3792 -94.7048 L13.3792 -94.7048 L14.0537 -93.9625 L14.0537 -93.9625 L16.1679 -95.5864 L16.1679 -95.5864 L15.6255 -96.4302 ZM17.2526 -93.8989 L15.4027 -92.4779 L15.4027 -92.4779 L16.0772 -91.7355 L16.0772 -91.7355 L17.795 -93.0551 L17.795 -93.0551 L17.2526 -93.8989 ZM18.8797 -91.3675 L17.4261 -90.2509 L17.4261 -90.2509 L18.1006 -89.5086 L18.1006 -89.5086 L19.4221 -90.5237 L19.4221 -90.5237 L18.8797 -91.3675 ZM20.5068 -88.8362 L19.4495 -88.024 L19.4495 -88.024 L20.124 -87.2817 L20.124 -87.2817 L21.0492 -87.9924 L21.0492 -87.9924 L20.5068 -88.8362 Z" /><ns0:path style="stroke:none;" d="M-54.2181 -8.6223 L-53.3919 -9.1857 L-34.4243 14.195 L-39.3817 17.575 Z" /><ns0:path style="stroke:none;" d="M-144.7536 -35.7755 L-145.7424 -35.9246 L-143.7415 -65.9613 L-137.8085 -65.0667 Z" /><ns0:path style="stroke:none;" d="M191.055 -41.3314 L192.021 -41.0726 L186.6718 -11.4486 L180.8762 -13.0014 Z" /><ns0:path style="stroke:none;" d="M-215.308 53.131 L-214.442 52.631 L-197.2769 77.361 L-202.4731 80.361 Z" /><ns0:path style="stroke:none;" d="M212.0206 -19.4775 L211.6584 -18.5389 L212.9725 -18.1882 L213.128 -19.182 L212.0206 -19.4775 ZM210.9338 -16.6617 L210.5715 -15.7231 L210.5715 -15.7231 L212.5061 -15.2069 L212.5061 -15.2069 L212.6615 -16.2007 L212.6615 -16.2007 L210.9338 -16.6617 ZM209.8469 -13.846 L209.4846 -12.9074 L212.0396 -12.2255 L212.1951 -13.2193 L212.1951 -13.2193 L209.8469 -13.846 ZM208.76 -11.0302 L208.3977 -10.0916 L211.5732 -9.2442 L211.7287 -10.238 L208.76 -11.0302 ZM207.6731 -8.2144 L207.3108 -7.2758 L211.1067 -6.2629 L211.2622 -7.2566 L207.6731 -8.2144 ZM206.5862 -5.3986 L206.2239 -4.46 L210.6403 -3.2815 L210.7958 -4.2753 L206.5862 -5.3986 ZM205.4993 -2.5829 L205.137 -1.6443 L210.1739 -0.3002 L210.3293 -1.2939 L205.4993 -2.5829 ZM204.4124 0.2329 L204.0501 1.1715 L209.7074 2.6812 L209.8629 1.6874 L204.4124 0.2329 Z" /><ns0:line y2="-43.284" y1="-64.497" x2="299.685" x1="278.469" style="fill:none;" /><ns0:path style="stroke:none;" d="M276.7588 -67.0593 L275.8141 -66.7199 L277.2755 -61.2435 L277.2755 -61.2435 L278.2632 -61.4219 L276.7588 -67.0593 ZM273.9247 -66.041 L272.98 -65.7016 L274.3125 -60.7085 L274.3125 -60.7085 L275.3001 -60.8868 L273.9247 -66.041 ZM271.0906 -65.0228 L270.1459 -64.6833 L271.3494 -60.1734 L272.3371 -60.3518 L271.0906 -65.0228 ZM268.2566 -64.0045 L267.3119 -63.6651 L268.3864 -59.6384 L268.3864 -59.6384 L269.3741 -59.8168 L269.3741 -59.8168 L268.2566 -64.0045 ZM265.4225 -62.9862 L264.4778 -62.6468 L264.4778 -62.6468 L265.4233 -59.1034 L265.4233 -59.1034 L266.411 -59.2817 L266.411 -59.2817 L265.4225 -62.9862 ZM262.5884 -61.9679 L261.6437 -61.6285 L261.6437 -61.6285 L262.4603 -58.5683 L263.448 -58.7467 L262.5884 -61.9679 ZM259.7543 -60.9497 L258.8096 -60.6102 L259.4973 -58.0333 L260.485 -58.2117 L259.7543 -60.9497 ZM256.9202 -59.9314 L255.9755 -59.592 L255.9755 -59.592 L256.5342 -57.4983 L256.5342 -57.4983 L257.5219 -57.6766 L256.9202 -59.9314 ZM254.0861 -58.9131 L253.1414 -58.5737 L253.1414 -58.5737 L253.5712 -56.9632 L253.5712 -56.9632 L254.5589 -57.1416 L254.5589 -57.1416 L254.0861 -58.9131 ZM251.252 -57.8948 L250.3073 -57.5554 L250.6081 -56.4282 L251.5958 -56.6066 L251.5958 -56.6066 L251.252 -57.8948 Z" /><ns0:line y2="-51.048" y1="-43.284" x2="328.662" x1="299.685" style="fill:none;" /><ns0:line y2="-14.7601" y1="-44.7126" x2="290.2277" x1="298.2562" style="fill:none;" /><ns0:line y2="-13.8539" y1="-43.807" x2="293.6083" x1="301.637" style="fill:none;" /><ns0:line y2="-34.3551" y1="-51.048" x2="345.3549" x1="328.662" style="fill:none;" /><ns0:line y2="-31.8802" y1="-47.1443" x2="342.8801" x1="327.616" style="fill:none;" /><ns0:line y2="104.841" y1="130.824" x2="-274.875" x1="-259.875" style="fill:none;" /><ns0:line y2="80.611" y1="80.611" x2="-318.8646" x1="-343.9375" style="fill:none;" /><ns0:line y2="77.111" y1="77.111" x2="-318.8646" x1="-343.9375" style="fill:none;" /><ns0:line y2="-34.884" y1="-60.864" x2="-8.805" x1="-23.805" style="fill:none;" /><ns0:line y2="-81.196" y1="-60.864" x2="-12.066" x1="-23.805" style="fill:none;" /><ns0:line y2="-60.864" y1="-60.864" x2="-53.805" x1="-23.805" style="fill:none;" /><ns0:line y2="-14.6257" y1="-34.884" x2="-20.5015" x1="-8.805" style="fill:none;" /><ns0:line y2="-34.884" y1="-34.884" x2="21.195" x1="-8.805" style="fill:none;" /><ns0:line y2="-86.844" y1="-86.844" x2="21.195" x1="-2.8675" style="fill:none;" /><ns0:line y2="-34.884" y1="-60.864" x2="-68.805" x1="-53.805" style="fill:none;" /><ns0:line y2="-8.904" y1="-8.904" x2="-53.805" x1="-29.7425" style="fill:none;" /><ns0:line y2="-60.864" y1="-34.884" x2="36.195" x1="21.195" style="fill:none;" /><ns0:line y2="-60.864" y1="-86.844" x2="36.195" x1="21.195" style="fill:none;" /><ns0:line y2="-115.824" y1="-86.844" x2="28.962" x1="21.195" style="fill:none;" /><ns0:line y2="-8.904" y1="-34.884" x2="-53.805" x1="-68.805" style="fill:none;" /><ns0:line y2="-38.4627" y1="-34.884" x2="-92.5538" x1="-68.805" style="fill:none;" /><ns0:line y2="19.023" y1="-8.904" x2="-64.764" x1="-53.805" style="fill:none;" /><ns0:line y2="-54.6725" y1="-60.864" x2="59.3056" x1="36.195" style="fill:none;" /><ns0:line y2="-130.824" y1="-115.824" x2="54.942" x1="28.962" style="fill:none;" /><ns0:line y2="-18.951" y1="-35.0757" x2="-120.459" x1="-103.0801" style="fill:none;" /><ns0:line y2="27.867" y1="19.023" x2="-93.432" x1="-64.764" style="fill:none;" /><ns0:line y2="-68.1" y1="-56.326" x2="91.155" x1="70.7625" style="fill:none;" /><ns0:line y2="-123.06" y1="-130.824" x2="83.919" x1="54.942" style="fill:none;" /><ns0:line y2="-120.2022" y1="-126.9203" x2="81.0613" x1="55.9881" style="fill:none;" /><ns0:line y2="10.965" y1="-18.951" x2="-118.218" x1="-120.459" style="fill:none;" /><ns0:line y2="-35.85" y1="-18.951" x2="-145.248" x1="-120.459" style="fill:none;" /><ns0:line y2="10.965" y1="27.867" x2="-118.218" x1="-93.432" style="fill:none;" /><ns0:line y2="-97.077" y1="-68.1" x2="98.919" x1="91.155" style="fill:none;" /><ns0:line y2="-46.887" y1="-68.1" x2="112.368" x1="91.155" style="fill:none;" /><ns0:line y2="-97.077" y1="-123.06" x2="98.919" x1="83.919" style="fill:none;" /><ns0:line y2="27.0408" y1="10.965" x2="-135.544" x1="-118.218" style="fill:none;" /><ns0:line y2="-27.006" y1="-35.85" x2="-173.913" x1="-145.248" style="fill:none;" /><ns0:line y2="-103.2708" y1="-97.077" x2="122.0267" x1="98.919" style="fill:none;" /><ns0:line y2="-54.651" y1="-46.887" x2="141.345" x1="112.368" style="fill:none;" /><ns0:line y2="26.901" y1="30.4797" x2="-169.875" x1="-146.1262" style="fill:none;" /><ns0:line y2="0.918" y1="-27.006" x2="-184.875" x1="-173.913" style="fill:none;" /><ns0:line y2="-83.628" y1="-100.4033" x2="149.112" x1="132.3367" style="fill:none;" /><ns0:line y2="-83.628" y1="-54.651" x2="149.112" x1="141.345" style="fill:none;" /><ns0:line y2="-37.9581" y1="-54.651" x2="158.0379" x1="141.345" style="fill:none;" /><ns0:line y2="0.918" y1="26.901" x2="-184.875" x1="-169.875" style="fill:none;" /><ns0:line y2="52.881" y1="26.901" x2="-184.875" x1="-169.875" style="fill:none;" /><ns0:line y2="0.918" y1="0.918" x2="-208.9375" x1="-184.875" style="fill:none;" /><ns0:line y2="-91.395" y1="-83.628" x2="178.089" x1="149.112" style="fill:none;" /><ns0:line y2="-41.202" y1="-35.0105" x2="191.538" x1="168.4274" style="fill:none;" /><ns0:line y2="52.881" y1="52.881" x2="-214.875" x1="-184.875" style="fill:none;" /><ns0:line y2="26.901" y1="6.5662" x2="-229.875" x1="-218.1357" style="fill:none;" /><ns0:line y2="-70.182" y1="-91.395" x2="199.302" x1="178.089" style="fill:none;" /><ns0:line y2="-70.182" y1="-41.202" x2="199.302" x1="191.538" style="fill:none;" /><ns0:line y2="-19.989" y1="-41.202" x2="212.751" x1="191.538" style="fill:none;" /><ns0:line y2="26.901" y1="52.881" x2="-229.875" x1="-214.875" style="fill:none;" /><ns0:line y2="73.1393" y1="52.881" x2="-226.5715" x1="-214.875" style="fill:none;" /><ns0:line y2="26.901" y1="26.901" x2="-259.875" x1="-229.875" style="fill:none;" /><ns0:line y2="-76.3734" y1="-70.182" x2="222.4097" x1="199.302" style="fill:none;" /><ns0:line y2="-27.756" y1="-19.989" x2="241.728" x1="212.751" style="fill:none;" /><ns0:line y2="78.861" y1="78.861" x2="-259.875" x1="-235.8125" style="fill:none;" /><ns0:line y2="52.881" y1="26.901" x2="-274.875" x1="-259.875" style="fill:none;" /><ns0:line y2="-56.733" y1="-73.5053" x2="249.492" x1="232.7197" style="fill:none;" /><ns0:line y2="-56.733" y1="-27.756" x2="249.492" x1="241.728" style="fill:none;" /><ns0:line y2="52.881" y1="78.861" x2="-274.875" x1="-259.875" style="fill:none;" /><ns0:line y2="104.841" y1="78.861" x2="-274.875" x1="-259.875" style="fill:none;" /><ns0:line y2="52.881" y1="52.881" x2="-298.9375" x1="-274.875" style="fill:none;" /><ns0:line y2="104.841" y1="104.841" x2="-304.875" x1="-274.875" style="fill:none;" /><ns0:line y2="101.341" y1="101.341" x2="-302.8543" x1="-276.8957" style="fill:none;" /><ns0:line y2="78.861" y1="58.529" x2="-319.875" x1="-308.136" style="fill:none;" /><ns0:line y2="78.861" y1="104.841" x2="-319.875" x1="-304.875" style="fill:none;" /><ns0:path style="stroke:none;" d="M-32.5654 -81.9086 L-37.6523 -78.9752 L-37.6523 -78.9752 L-37.0588 -78.1627 L-37.0588 -78.1627 L-32.1586 -80.9885 L-32.1586 -80.9885 L-32.5654 -81.9086 ZM-31.345 -79.1483 L-35.8717 -76.5379 L-35.2781 -75.7254 L-35.2781 -75.7254 L-30.9382 -78.2281 L-30.9382 -78.2281 L-31.345 -79.1483 ZM-30.1246 -76.3879 L-34.091 -74.1006 L-34.091 -74.1006 L-33.4975 -73.2881 L-33.4975 -73.2881 L-29.7178 -75.4678 L-29.7178 -75.4678 L-30.1246 -76.3879 ZM-28.9043 -73.6275 L-32.3104 -71.6633 L-32.3104 -71.6633 L-31.7169 -70.8509 L-31.7169 -70.8509 L-28.4975 -72.7074 L-28.4975 -72.7074 L-28.9043 -73.6275 ZM-27.6839 -70.8671 L-30.5298 -69.226 L-30.5298 -69.226 L-29.9362 -68.4136 L-27.2771 -69.947 L-27.6839 -70.8671 ZM-26.4635 -68.1068 L-28.7491 -66.7887 L-28.7491 -66.7887 L-28.1556 -65.9763 L-28.1556 -65.9763 L-26.0567 -67.1866 L-26.0567 -67.1866 L-26.4635 -68.1068 ZM-25.2431 -65.3464 L-26.9685 -64.3514 L-26.9685 -64.3514 L-26.3749 -63.539 L-26.3749 -63.539 L-24.8363 -64.4263 L-24.8363 -64.4263 L-25.2431 -65.3464 ZM-24.0228 -62.586 L-25.1879 -61.9141 L-25.1879 -61.9141 L-24.5943 -61.1017 L-24.5943 -61.1017 L-23.616 -61.6659 L-23.616 -61.6659 L-24.0228 -62.586 Z" /><ns0:path style="stroke:none;" d="M-76.0112 -56.5945 L-81.2802 -54.0529 L-81.2802 -54.0529 L-80.7504 -53.1986 L-75.6738 -55.6474 L-75.6738 -55.6474 L-76.0112 -56.5945 ZM-74.9991 -53.7532 L-79.6906 -51.4901 L-79.6906 -51.4901 L-79.1607 -50.6358 L-79.1607 -50.6358 L-74.6617 -52.8061 L-74.9991 -53.7532 ZM-73.9869 -50.9119 L-78.1009 -48.9273 L-78.1009 -48.9273 L-77.571 -48.073 L-77.571 -48.073 L-73.6495 -49.9647 L-73.9869 -50.9119 ZM-72.9747 -48.0705 L-76.5113 -46.3645 L-76.5113 -46.3645 L-75.9814 -45.5103 L-72.6373 -47.1234 L-72.9747 -48.0705 ZM-71.9625 -45.2292 L-74.9216 -43.8017 L-74.9216 -43.8017 L-74.3917 -42.9475 L-74.3917 -42.9475 L-71.6251 -44.282 L-71.9625 -45.2292 ZM-70.9503 -42.3878 L-73.3319 -41.239 L-72.8021 -40.3847 L-72.8021 -40.3847 L-70.6129 -41.4407 L-70.9503 -42.3878 ZM-69.9382 -39.5465 L-71.7423 -38.6762 L-71.2124 -37.8219 L-71.2124 -37.8219 L-69.6008 -38.5994 L-69.9382 -39.5465 ZM-68.926 -36.7051 L-70.1526 -36.1134 L-69.6227 -35.2591 L-68.5886 -35.758 L-68.926 -36.7051 Z" /><ns0:path style="stroke:none;" d="M35.7331 -60.6727 L36.6569 -61.0553 L47.8571 -40.5491 L42.3138 -38.2529 Z" /><ns0:path style="stroke:none;" d="M-119.2773 -42.0204 L-125.0686 -41.5843 L-125.0686 -41.5843 L-124.8892 -40.595 L-124.8892 -40.595 L-119.3071 -41.0154 L-119.3071 -41.0154 L-119.2773 -42.0204 ZM-119.3668 -39.0053 L-124.5304 -38.6164 L-124.5304 -38.6164 L-124.3511 -37.6271 L-124.3511 -37.6271 L-119.3966 -38.0002 L-119.3966 -38.0002 L-119.3668 -39.0053 ZM-119.4562 -35.9901 L-123.9923 -35.6485 L-123.9923 -35.6485 L-123.8129 -34.6592 L-123.8129 -34.6592 L-119.486 -34.9851 L-119.486 -34.9851 L-119.4562 -35.9901 ZM-119.5456 -32.9749 L-123.4541 -32.6806 L-123.4541 -32.6806 L-123.2747 -31.6913 L-123.2747 -31.6913 L-119.5754 -31.9699 L-119.5754 -31.9699 L-119.5456 -32.9749 ZM-119.635 -29.9598 L-122.9159 -29.7127 L-122.9159 -29.7127 L-122.7365 -28.7234 L-122.7365 -28.7234 L-119.6648 -28.9547 L-119.6648 -28.9547 L-119.635 -29.9598 ZM-119.7244 -26.9446 L-122.3777 -26.7448 L-122.3777 -26.7448 L-122.1983 -25.7555 L-122.1983 -25.7555 L-119.7542 -25.9396 L-119.7542 -25.9396 L-119.7244 -26.9446 ZM-119.8139 -23.9295 L-121.8395 -23.7769 L-121.8395 -23.7769 L-121.6601 -22.7876 L-121.6601 -22.7876 L-119.8437 -22.9244 L-119.8437 -22.9244 L-119.8139 -23.9295 ZM-119.9033 -20.9143 L-121.3013 -20.809 L-121.1219 -19.8197 L-121.1219 -19.8197 L-119.9331 -19.9092 L-119.9331 -19.9092 L-119.9033 -20.9143 Z" /><ns0:path style="stroke:none;" d="M90.6593 -68.1653 L91.6507 -68.0347 L91.0554 -44.3556 L85.1067 -45.1387 Z" /><ns0:path style="stroke:none;" d="M-118.7166 11.0023 L-117.7194 10.9277 L-113.4649 34.2562 L-119.4481 34.7044 Z" /><ns0:path style="stroke:none;" d="M104.9278 -119.2137 L104.6434 -118.2491 L104.6434 -118.2491 L109.8425 -116.0956 L109.8425 -116.0956 L110.3235 -116.9787 L110.3235 -116.9787 L104.9278 -119.2137 ZM104.0745 -116.3199 L103.7901 -115.3553 L103.7901 -115.3553 L108.3996 -113.446 L108.8806 -114.3292 L108.8806 -114.3292 L104.0745 -116.3199 ZM103.2213 -113.4262 L102.9369 -112.4616 L106.9567 -110.7965 L106.9567 -110.7965 L107.4377 -111.6797 L103.2213 -113.4262 ZM102.3681 -110.5324 L102.0836 -109.5678 L102.0836 -109.5678 L105.5138 -108.147 L105.5138 -108.147 L105.9948 -109.0302 L105.9948 -109.0302 L102.3681 -110.5324 ZM101.5148 -107.6386 L101.2304 -106.674 L104.0709 -105.4975 L104.0709 -105.4975 L104.5518 -106.3807 L101.5148 -107.6386 ZM100.6616 -104.7449 L100.3772 -103.7803 L102.628 -102.848 L102.628 -102.848 L103.1089 -103.7311 L103.1089 -103.7311 L100.6616 -104.7449 ZM99.8083 -101.8511 L99.5239 -100.8865 L99.5239 -100.8865 L101.1851 -100.1985 L101.666 -101.0816 L101.666 -101.0816 L99.8083 -101.8511 ZM98.9551 -98.9574 L98.6707 -97.9928 L98.6707 -97.9928 L99.7422 -97.5489 L99.7422 -97.5489 L100.2231 -98.4321 L100.2231 -98.4321 L98.9551 -98.9574 Z" /><ns0:path style="stroke:none;" d="M140.862 -54.7804 L141.828 -54.5216 L138.177 -31.2357 L132.3814 -32.7885 Z" /><ns0:path style="stroke:none;" d="M-170.3255 27.118 L-169.4245 26.684 L-157.1452 46.4181 L-162.5509 49.0216 Z" /><ns0:path style="stroke:none;" d="M-194.3965 -17.9897 L-198.9979 -14.8535 L-198.3445 -14.0885 L-193.923 -17.1021 L-194.3965 -17.9897 ZM-192.9762 -15.3269 L-197.0379 -12.5585 L-196.3845 -11.7935 L-192.5027 -14.4392 L-192.9762 -15.3269 ZM-191.5559 -12.664 L-195.0779 -10.2635 L-194.4245 -9.4985 L-191.0824 -11.7764 L-191.5559 -12.664 ZM-190.1356 -10.0011 L-193.1178 -7.9684 L-192.4645 -7.2034 L-189.6621 -9.1135 L-190.1356 -10.0011 ZM-188.7153 -7.3382 L-191.1579 -5.6734 L-190.5045 -4.9084 L-188.2418 -6.4506 L-188.7153 -7.3382 ZM-187.295 -4.6753 L-189.1978 -3.3784 L-188.5445 -2.6134 L-186.8215 -3.7877 L-187.295 -4.6753 ZM-185.8747 -2.0124 L-187.2378 -1.0833 L-186.5845 -0.3183 L-185.4012 -1.1248 L-185.8747 -2.0124 Z" /><ns0:path style="stroke:none;" d="M152.2143 -106.4555 L152.0574 -105.4621 L152.0574 -105.4621 L157.4787 -104.0154 L157.8395 -104.9544 L157.8395 -104.9544 L152.2143 -106.4555 ZM151.7436 -103.4753 L151.5867 -102.4819 L151.5867 -102.4819 L156.3963 -101.1985 L156.7571 -102.1375 L156.7571 -102.1375 L151.7436 -103.4753 ZM151.2729 -100.4952 L151.1159 -99.5018 L155.3138 -98.3815 L155.3138 -98.3815 L155.6747 -99.3205 L155.6747 -99.3205 L151.2729 -100.4952 ZM150.8021 -97.515 L150.6452 -96.5216 L150.6452 -96.5216 L154.2314 -95.5646 L154.2314 -95.5646 L154.5922 -96.5036 L150.8021 -97.515 ZM150.3314 -94.5348 L150.1745 -93.5414 L150.1745 -93.5414 L153.149 -92.7477 L153.5098 -93.6866 L150.3314 -94.5348 ZM149.8606 -91.5546 L149.7037 -90.5612 L149.7037 -90.5612 L152.0666 -89.9307 L152.0666 -89.9307 L152.4274 -90.8697 L149.8606 -91.5546 ZM149.3899 -88.5744 L149.233 -87.581 L150.9841 -87.1138 L151.3449 -88.0527 L149.3899 -88.5744 ZM148.9192 -85.5943 L148.7623 -84.6009 L148.7623 -84.6009 L149.9017 -84.2968 L150.2625 -85.2358 L148.9192 -85.5943 Z" /><ns0:path style="stroke:none;" d="M-238.6349 5.8553 L-243.7215 8.7885 L-243.128 9.601 L-238.2282 6.7754 L-238.6349 5.8553 ZM-237.4147 8.6156 L-241.9411 11.2259 L-241.3476 12.0383 L-237.0079 9.5357 L-237.4147 8.6156 ZM-236.1944 11.376 L-240.1607 13.6632 L-239.5672 14.4756 L-235.7877 12.2961 L-236.1944 11.376 ZM-234.9742 14.1363 L-238.3802 16.1005 L-237.7868 16.9129 L-234.5675 15.0564 L-234.9742 14.1363 ZM-233.754 16.8967 L-236.5998 18.5378 L-236.0063 19.3502 L-233.3472 17.8168 L-233.754 16.8967 ZM-232.5337 19.657 L-234.8194 20.9751 L-234.2259 21.7875 L-232.127 20.5772 L-232.5337 19.657 ZM-231.3135 22.4174 L-233.039 23.4124 L-232.4455 24.2249 L-230.9067 23.3375 L-231.3135 22.4174 ZM-230.0932 25.1777 L-231.2586 25.8497 L-230.6651 26.6622 L-229.6865 26.0979 L-230.0932 25.1777 Z" /><ns0:path style="stroke:none;" d="M202.4044 -93.0081 L202.2475 -92.0147 L207.6691 -90.568 L207.6691 -90.568 L208.0299 -91.507 L202.4044 -93.0081 ZM201.9337 -90.0279 L201.7767 -89.0346 L201.7767 -89.0346 L206.5865 -87.751 L206.9474 -88.69 L201.9337 -90.0279 ZM201.4629 -87.0478 L201.306 -86.0544 L205.504 -84.9341 L205.504 -84.9341 L205.8648 -85.8731 L205.8648 -85.8731 L201.4629 -87.0478 ZM200.9921 -84.0676 L200.8352 -83.0742 L200.8352 -83.0742 L204.4214 -82.1172 L204.7823 -83.0562 L204.7823 -83.0562 L200.9921 -84.0676 ZM200.5213 -81.0874 L200.3644 -80.094 L203.3389 -79.3002 L203.3389 -79.3002 L203.6997 -80.2392 L200.5213 -81.0874 ZM200.0505 -78.1072 L199.8936 -77.1138 L202.2563 -76.4833 L202.2563 -76.4833 L202.6172 -77.4223 L202.6172 -77.4223 L200.0505 -78.1072 ZM199.5798 -75.127 L199.4228 -74.1336 L201.1738 -73.6664 L201.1738 -73.6664 L201.5346 -74.6054 L201.5346 -74.6054 L199.5798 -75.127 ZM199.109 -72.1468 L198.952 -71.1534 L200.0912 -70.8494 L200.0912 -70.8494 L200.4521 -71.7884 L199.109 -72.1468 Z" /><ns0:path style="stroke:none;" d="M-260.308 79.111 L-259.442 78.611 L-245.821 97.2027 L-251.0171 100.2027 Z" /><ns0:path style="stroke:none;" d="M-283.6353 31.8364 L-288.7223 34.7698 L-288.1287 35.5823 L-288.1287 35.5823 L-283.2285 32.7565 L-283.6353 31.8364 ZM-282.415 34.5967 L-286.9417 37.2071 L-286.9417 37.2071 L-286.3481 38.0196 L-282.0082 35.5169 L-282.415 34.5967 ZM-281.1946 37.3571 L-285.161 39.6444 L-284.5675 40.4568 L-280.7878 38.2772 L-281.1946 37.3571 ZM-279.9742 40.1175 L-283.3804 42.0817 L-282.7868 42.8941 L-279.5674 41.0376 L-279.9742 40.1175 ZM-278.7539 42.8779 L-281.5998 44.519 L-281.0062 45.3314 L-281.0062 45.3314 L-278.3471 43.798 L-278.7539 42.8779 ZM-277.5335 45.6383 L-279.8191 46.9563 L-279.2256 47.7687 L-279.2256 47.7687 L-277.1267 46.5584 L-277.5335 45.6383 ZM-276.3131 48.3986 L-278.0385 49.3936 L-277.4449 50.206 L-275.9063 49.3188 L-276.3131 48.3986 ZM-275.0927 51.159 L-276.2578 51.8309 L-275.6643 52.6433 L-274.686 52.0791 L-275.0927 51.159 Z" /></ns0:g><ns0:g transform="translate(357,134)" style="fill:rgb(230,0,0); text-rendering:geometricPrecision; color-rendering:optimizeQuality; image-rendering:optimizeQuality; font-family:'Open Sans'; stroke:rgb(230,0,0); color-interpolation:linearRGB;"><ns0:path style="stroke:none;" d="M208.9245 8.9177 Q208.9245 10.9802 207.8854 12.1599 Q206.8464 13.3396 205.0026 13.3396 Q203.112 13.3396 202.0807 12.1755 Q201.0495 11.0114 201.0495 8.9021 Q201.0495 6.8083 202.0807 5.6599 Q203.112 4.5114 205.0026 4.5114 Q206.862 4.5114 207.8932 5.6833 Q208.9245 6.8552 208.9245 8.9177 ZM202.0964 8.9177 Q202.0964 10.6521 202.8386 11.5583 Q203.5807 12.4646 205.0026 12.4646 Q206.4245 12.4646 207.1511 11.5661 Q207.8776 10.6677 207.8776 8.9177 Q207.8776 7.1833 207.1511 6.2927 Q206.4245 5.4021 205.0026 5.4021 Q203.5807 5.4021 202.8386 6.3005 Q202.0964 7.1989 202.0964 8.9177 Z" /><ns0:path style="stroke:none;" d="M200.0495 13.2146 L199.0495 13.2146 L199.0495 9.1833 L194.5339 9.1833 L194.5339 13.2146 L193.5339 13.2146 L193.5339 4.6521 L194.5339 4.6521 L194.5339 8.2927 L199.0495 8.2927 L199.0495 4.6521 L200.0495 4.6521 L200.0495 13.2146 Z" /></ns0:g><ns0:g transform="translate(357,134)" style="stroke-linecap:butt; text-rendering:geometricPrecision; color-rendering:optimizeQuality; image-rendering:optimizeQuality; font-family:'Open Sans'; color-interpolation:linearRGB; stroke-miterlimit:5;"><ns0:path style="fill:none;" d="M299.3314 -43.6375 L299.685 -43.284 L300.168 -43.4134" /><ns0:path style="fill:none;" d="M328.179 -50.9186 L328.662 -51.048 L329.0156 -50.6944" /><ns0:path transform="translate(-1.2374,1.2374)" style="fill:rgb(230,0,0); stroke:none;" d="M353.8125 -29.9053 Q353.8125 -27.8428 352.7734 -26.6631 Q351.7344 -25.4834 349.8906 -25.4834 Q348 -25.4834 346.9688 -26.6475 Q345.9375 -27.8116 345.9375 -29.9209 Q345.9375 -32.0147 346.9688 -33.1631 Q348 -34.3116 349.8906 -34.3116 Q351.75 -34.3116 352.7812 -33.1397 Q353.8125 -31.9678 353.8125 -29.9053 ZM346.9844 -29.9053 Q346.9844 -28.1709 347.7266 -27.2647 Q348.4688 -26.3584 349.8906 -26.3584 Q351.3125 -26.3584 352.0391 -27.2569 Q352.7656 -28.1553 352.7656 -29.9053 Q352.7656 -31.6397 352.0391 -32.5303 Q351.3125 -33.4209 349.8906 -33.4209 Q348.4688 -33.4209 347.7266 -32.5225 Q346.9844 -31.6241 346.9844 -29.9053 Z" /></ns0:g><ns0:g transform="matrix(1,0,0,1,357,134)" style="stroke-linecap:butt; fill:rgb(230,0,0); text-rendering:geometricPrecision; color-rendering:optimizeQuality; image-rendering:optimizeQuality; font-family:'Open Sans'; stroke:rgb(230,0,0); color-interpolation:linearRGB; stroke-miterlimit:5;"><ns0:path style="stroke:none;" d="M-345.9375 78.7907 Q-345.9375 80.8532 -346.9766 82.0329 Q-348.0156 83.2126 -349.8594 83.2126 Q-351.75 83.2126 -352.7812 82.0485 Q-353.8125 80.8844 -353.8125 78.7751 Q-353.8125 76.6813 -352.7812 75.5329 Q-351.75 74.3844 -349.8594 74.3844 Q-348 74.3844 -346.9688 75.5563 Q-345.9375 76.7282 -345.9375 78.7907 ZM-352.7656 78.7907 Q-352.7656 80.5251 -352.0234 81.4313 Q-351.2812 82.3376 -349.8594 82.3376 Q-348.4375 82.3376 -347.7109 81.4391 Q-346.9844 80.5407 -346.9844 78.7907 Q-346.9844 77.0563 -347.7109 76.1657 Q-348.4375 75.2751 -349.8594 75.2751 Q-351.2812 75.2751 -352.0234 76.1735 Q-352.7656 77.0719 -352.7656 78.7907 Z" /></ns0:g><ns0:g transform="matrix(1,0,0,1,357,134)" style="stroke-linecap:butt; font-size:8.4px; fill:gray; text-rendering:geometricPrecision; image-rendering:optimizeQuality; color-rendering:optimizeQuality; font-family:'Open Sans'; font-style:italic; stroke:gray; color-interpolation:linearRGB; stroke-miterlimit:5;"><ns0:path style="stroke:none;" d="M-18.1936 -59.6999 Q-18.1936 -61.0281 -17.7249 -62.1531 Q-17.2561 -63.2781 -16.2249 -64.3562 L-15.6155 -64.3562 Q-16.5843 -63.2937 -17.0686 -62.1218 Q-17.553 -60.9499 -17.553 -59.7156 Q-17.553 -58.3874 -17.1155 -57.3718 L-17.6311 -57.3718 Q-18.1936 -58.4031 -18.1936 -59.6999 ZM-14.6336 -61.0124 L-15.1336 -58.6374 L-15.7898 -58.6374 L-14.5867 -64.3562 L-13.3367 -64.3562 Q-11.6023 -64.3562 -11.6023 -62.9187 Q-11.6023 -61.5593 -13.0398 -61.1687 L-12.1023 -58.6374 L-12.8211 -58.6374 L-13.6492 -61.0124 L-14.6336 -61.0124 ZM-14.0555 -63.7624 Q-14.4461 -61.8406 -14.5086 -61.5906 L-13.8523 -61.5906 Q-13.1023 -61.5906 -12.6961 -61.9187 Q-12.2898 -62.2468 -12.2898 -62.8718 Q-12.2898 -63.3406 -12.5476 -63.5515 Q-12.8055 -63.7624 -13.3992 -63.7624 L-14.0555 -63.7624 ZM-9.4164 -62.0124 Q-9.4164 -60.6843 -9.8929 -59.5515 Q-10.3695 -58.4187 -11.3851 -57.3718 L-11.9945 -57.3718 Q-10.057 -59.5281 -10.057 -62.0124 Q-10.057 -63.3406 -10.4945 -64.3562 L-9.9789 -64.3562 Q-9.4164 -63.2937 -9.4164 -62.0124 Z" /><ns0:path style="stroke:none;" d="M-22.9135 -33.6809 Q-22.9135 -35.009 -22.4448 -36.134 Q-21.976 -37.259 -20.9448 -38.3371 L-20.3354 -38.3371 Q-21.3041 -37.2746 -21.7885 -36.1027 Q-22.2729 -34.9309 -22.2729 -33.6965 Q-22.2729 -32.3684 -21.8354 -31.3527 L-22.351 -31.3527 Q-22.9135 -32.384 -22.9135 -33.6809 ZM-17.291 -34.2746 Q-17.291 -33.4465 -17.8378 -32.9934 Q-18.3847 -32.5402 -19.3847 -32.5402 Q-19.791 -32.5402 -20.1035 -32.5949 Q-20.416 -32.6496 -20.6972 -32.7902 L-20.6972 -33.4465 Q-20.0722 -33.1184 -19.3691 -33.1184 Q-18.7441 -33.1184 -18.3691 -33.4152 Q-17.9941 -33.7121 -17.9941 -34.2277 Q-17.9941 -34.5402 -18.1972 -34.7668 Q-18.4003 -34.9934 -18.9628 -35.3215 Q-19.5566 -35.6496 -19.7831 -35.9777 Q-20.0097 -36.3059 -20.0097 -36.759 Q-20.0097 -37.4934 -19.4941 -37.9543 Q-18.9785 -38.4152 -18.1347 -38.4152 Q-17.7597 -38.4152 -17.4238 -38.3371 Q-17.0878 -38.259 -16.7128 -38.0871 L-16.9785 -37.4934 Q-17.2285 -37.6496 -17.5488 -37.7356 Q-17.8691 -37.8215 -18.1347 -37.8215 Q-18.666 -37.8215 -18.9863 -37.5481 Q-19.3066 -37.2746 -19.3066 -36.8059 Q-19.3066 -36.6027 -19.2363 -36.4543 Q-19.166 -36.3059 -19.0253 -36.1731 Q-18.8847 -36.0402 -18.4628 -35.7902 Q-17.9003 -35.4465 -17.6972 -35.2512 Q-17.4941 -35.0559 -17.3925 -34.8215 Q-17.291 -34.5871 -17.291 -34.2746 ZM-14.6965 -35.9934 Q-14.6965 -34.6652 -15.173 -33.5324 Q-15.6496 -32.3996 -16.6652 -31.3527 L-17.2746 -31.3527 Q-15.3371 -33.509 -15.3371 -35.9934 Q-15.3371 -37.3215 -15.7746 -38.3371 L-15.259 -38.3371 Q-14.6965 -37.2746 -14.6965 -35.9934 Z" /></ns0:g><ns0:g transform="matrix(1,0,0,1,357,134)" style="stroke-linecap:butt; fill:rgb(230,0,0); text-rendering:geometricPrecision; color-rendering:optimizeQuality; image-rendering:optimizeQuality; font-family:'Open Sans'; stroke:rgb(230,0,0); color-interpolation:linearRGB; stroke-miterlimit:5;"><ns0:path style="stroke:none;" d="M-4.8675 -86.9143 Q-4.8675 -84.8518 -5.9066 -83.6721 Q-6.9456 -82.4924 -8.7894 -82.4924 Q-10.68 -82.4924 -11.7113 -83.6565 Q-12.7425 -84.8206 -12.7425 -86.9299 Q-12.7425 -89.0237 -11.7113 -90.1721 Q-10.68 -91.3206 -8.7894 -91.3206 Q-6.93 -91.3206 -5.8988 -90.1487 Q-4.8675 -88.9768 -4.8675 -86.9143 ZM-11.6956 -86.9143 Q-11.6956 -85.1799 -10.9534 -84.2737 Q-10.2113 -83.3674 -8.7894 -83.3674 Q-7.3675 -83.3674 -6.6409 -84.2659 Q-5.9144 -85.1643 -5.9144 -86.9143 Q-5.9144 -88.6487 -6.6409 -89.5393 Q-7.3675 -90.4299 -8.7894 -90.4299 Q-10.2113 -90.4299 -10.9534 -89.5315 Q-11.6956 -88.6331 -11.6956 -86.9143 Z" /><ns0:path style="fill:none; stroke:black;" d="M-53.305 -60.864 L-53.805 -60.864 L-54.055 -60.431" /><ns0:path style="stroke:none;" d="M-19.8675 -8.9743 Q-19.8675 -6.9118 -20.9066 -5.7321 Q-21.9456 -4.5524 -23.7894 -4.5524 Q-25.68 -4.5524 -26.7113 -5.7165 Q-27.7425 -6.8806 -27.7425 -8.9899 Q-27.7425 -11.0837 -26.7113 -12.2321 Q-25.68 -13.3806 -23.7894 -13.3806 Q-21.93 -13.3806 -20.8988 -12.2087 Q-19.8675 -11.0368 -19.8675 -8.9743 ZM-26.6956 -8.9743 Q-26.6956 -7.2399 -25.9534 -6.3337 Q-25.2113 -5.4274 -23.7894 -5.4274 Q-22.3675 -5.4274 -21.6409 -6.3259 Q-20.9144 -7.2243 -20.9144 -8.9743 Q-20.9144 -10.7087 -21.6409 -11.5993 Q-22.3675 -12.4899 -23.7894 -12.4899 Q-25.2113 -12.4899 -25.9534 -11.5915 Q-26.6956 -10.6931 -26.6956 -8.9743 Z" /><ns0:path style="fill:none; stroke:black;" d="M20.695 -34.884 L21.195 -34.884 L21.445 -35.317" /></ns0:g><ns0:g transform="matrix(1,0,0,1,357,134)" style="stroke-linecap:butt; font-size:8.4px; fill:gray; text-rendering:geometricPrecision; image-rendering:optimizeQuality; color-rendering:optimizeQuality; font-family:'Open Sans'; font-style:italic; stroke:gray; color-interpolation:linearRGB; stroke-miterlimit:5;"><ns0:path style="stroke:none;" d="M27.001 -86.9459 Q27.001 -88.274 27.4697 -89.399 Q27.9385 -90.524 28.9697 -91.6022 L29.5791 -91.6022 Q28.6103 -90.5397 28.126 -89.3678 Q27.6416 -88.1959 27.6416 -86.9615 Q27.6416 -85.6334 28.0791 -84.6178 L27.5635 -84.6178 Q27.001 -85.649 27.001 -86.9459 ZM32.6235 -87.5397 Q32.6235 -86.7115 32.0766 -86.2584 Q31.5298 -85.8053 30.5298 -85.8053 Q30.1235 -85.8053 29.811 -85.86 Q29.4985 -85.9147 29.2173 -86.0553 L29.2173 -86.7115 Q29.8423 -86.3834 30.5454 -86.3834 Q31.1704 -86.3834 31.5454 -86.6803 Q31.9204 -86.9772 31.9204 -87.4928 Q31.9204 -87.8053 31.7173 -88.0318 Q31.5141 -88.2584 30.9516 -88.5865 Q30.3579 -88.9147 30.1313 -89.2428 Q29.9048 -89.5709 29.9048 -90.024 Q29.9048 -90.7584 30.4204 -91.2193 Q30.936 -91.6803 31.7798 -91.6803 Q32.1548 -91.6803 32.4907 -91.6022 Q32.8266 -91.524 33.2016 -91.3522 L32.936 -90.7584 Q32.686 -90.9147 32.3657 -91.0006 Q32.0454 -91.0865 31.7798 -91.0865 Q31.2485 -91.0865 30.9282 -90.8131 Q30.6079 -90.5397 30.6079 -90.0709 Q30.6079 -89.8678 30.6782 -89.7193 Q30.7485 -89.5709 30.8891 -89.4381 Q31.0298 -89.3053 31.4516 -89.0553 Q32.0141 -88.7115 32.2173 -88.5162 Q32.4204 -88.3209 32.522 -88.0865 Q32.6235 -87.8522 32.6235 -87.5397 ZM35.218 -89.2584 Q35.218 -87.9303 34.7414 -86.7975 Q34.2649 -85.6647 33.2492 -84.6178 L32.6399 -84.6178 Q34.5774 -86.774 34.5774 -89.2584 Q34.5774 -90.5865 34.1399 -91.6022 L34.6555 -91.6022 Q35.218 -90.5397 35.218 -89.2584 Z" /><ns0:path style="stroke:none;" d="M-78.5465 -25.4183 Q-78.5465 -26.7465 -78.0778 -27.8715 Q-77.609 -28.9965 -76.5778 -30.0746 L-75.9684 -30.0746 Q-76.9371 -29.0121 -77.4215 -27.8402 Q-77.9059 -26.6683 -77.9059 -25.434 Q-77.9059 -24.1058 -77.4684 -23.0902 L-77.984 -23.0902 Q-78.5465 -24.1215 -78.5465 -25.4183 ZM-72.924 -26.0121 Q-72.924 -25.184 -73.4708 -24.7308 Q-74.0177 -24.2777 -75.0177 -24.2777 Q-75.424 -24.2777 -75.7365 -24.3324 Q-76.049 -24.3871 -76.3302 -24.5277 L-76.3302 -25.184 Q-75.7052 -24.8558 -75.0021 -24.8558 Q-74.3771 -24.8558 -74.0021 -25.1527 Q-73.6271 -25.4496 -73.6271 -25.9652 Q-73.6271 -26.2777 -73.8302 -26.5043 Q-74.0333 -26.7308 -74.5958 -27.059 Q-75.1896 -27.3871 -75.4161 -27.7152 Q-75.6427 -28.0433 -75.6427 -28.4965 Q-75.6427 -29.2308 -75.1271 -29.6918 Q-74.6115 -30.1527 -73.7677 -30.1527 Q-73.3927 -30.1527 -73.0568 -30.0746 Q-72.7208 -29.9965 -72.3458 -29.8246 L-72.6115 -29.2308 Q-72.8615 -29.3871 -73.1818 -29.473 Q-73.5021 -29.559 -73.7677 -29.559 Q-74.299 -29.559 -74.6193 -29.2855 Q-74.9396 -29.0121 -74.9396 -28.5433 Q-74.9396 -28.3402 -74.8693 -28.1918 Q-74.799 -28.0433 -74.6583 -27.9105 Q-74.5177 -27.7777 -74.0958 -27.5277 Q-73.5333 -27.184 -73.3302 -26.9887 Q-73.1271 -26.7933 -73.0255 -26.559 Q-72.924 -26.3246 -72.924 -26.0121 ZM-70.3295 -27.7308 Q-70.3295 -26.4027 -70.806 -25.2699 Q-71.2826 -24.1371 -72.2982 -23.0902 L-72.9076 -23.0902 Q-70.9701 -25.2465 -70.9701 -27.7308 Q-70.9701 -29.059 -71.4076 -30.0746 L-70.892 -30.0746 Q-70.3295 -29.0121 -70.3295 -27.7308 Z" /><ns0:path style="stroke:none;" d="M-68.1657 -6.9923 Q-68.1657 -8.3205 -67.6969 -9.4455 Q-67.2282 -10.5705 -66.1969 -11.6486 L-65.5875 -11.6486 Q-66.5563 -10.5861 -67.0407 -9.4142 Q-67.525 -8.2423 -67.525 -7.008 Q-67.525 -5.6798 -67.0875 -4.6642 L-67.6032 -4.6642 Q-68.1657 -5.6955 -68.1657 -6.9923 ZM-64.6056 -8.3048 L-65.1056 -5.9298 L-65.7618 -5.9298 L-64.5587 -11.6486 L-63.3087 -11.6486 Q-61.5743 -11.6486 -61.5743 -10.2111 Q-61.5743 -8.8517 -63.0118 -8.4611 L-62.0743 -5.9298 L-62.7931 -5.9298 L-63.6212 -8.3048 L-64.6056 -8.3048 ZM-64.0275 -11.0548 Q-64.4181 -9.133 -64.4806 -8.883 L-63.8243 -8.883 Q-63.0743 -8.883 -62.6681 -9.2111 Q-62.2618 -9.5392 -62.2618 -10.1642 Q-62.2618 -10.633 -62.5197 -10.8439 Q-62.7775 -11.0548 -63.3712 -11.0548 L-64.0275 -11.0548 ZM-59.3884 -9.3048 Q-59.3884 -7.9767 -59.8649 -6.8439 Q-60.3415 -5.7111 -61.3571 -4.6642 L-61.9665 -4.6642 Q-60.029 -6.8205 -60.029 -9.3048 Q-60.029 -10.633 -60.4665 -11.6486 L-59.9509 -11.6486 Q-59.3884 -10.5861 -59.3884 -9.3048 Z" /><ns0:path style="stroke:none;" d="M37.8938 -67.6336 Q37.8938 -68.9617 38.3625 -70.0867 Q38.8313 -71.2117 39.8625 -72.2899 L40.4719 -72.2899 Q39.5031 -71.2274 39.0188 -70.0555 Q38.5344 -68.8836 38.5344 -67.6492 Q38.5344 -66.3211 38.9719 -65.3055 L38.4563 -65.3055 Q37.8938 -66.3367 37.8938 -67.6336 ZM41.4538 -68.9461 L40.9538 -66.5711 L40.2976 -66.5711 L41.5007 -72.2899 L42.7507 -72.2899 Q44.4851 -72.2899 44.4851 -70.8524 Q44.4851 -69.493 43.0476 -69.1024 L43.9851 -66.5711 L43.2663 -66.5711 L42.4382 -68.9461 L41.4538 -68.9461 ZM42.032 -71.6961 Q41.6413 -69.7742 41.5788 -69.5242 L42.2351 -69.5242 Q42.9851 -69.5242 43.3913 -69.8524 Q43.7976 -70.1805 43.7976 -70.8055 Q43.7976 -71.2742 43.5398 -71.4852 Q43.282 -71.6961 42.6882 -71.6961 L42.032 -71.6961 ZM46.6711 -69.9461 Q46.6711 -68.618 46.1945 -67.4852 Q45.7179 -66.3524 44.7023 -65.3055 L44.0929 -65.3055 Q46.0304 -67.4617 46.0304 -69.9461 Q46.0304 -71.2742 45.5929 -72.2899 L46.1086 -72.2899 Q46.6711 -71.2274 46.6711 -69.9461 Z" /><ns0:path style="fill:none; stroke:black;" d="M28.8326 -115.341 L28.962 -115.824 L29.395 -116.074" /></ns0:g><ns0:g transform="matrix(1,0,0,1,357,134)" style="stroke-linecap:butt; fill:rgb(230,0,0); text-rendering:geometricPrecision; color-rendering:optimizeQuality; image-rendering:optimizeQuality; font-family:'Open Sans'; stroke:rgb(230,0,0); color-interpolation:linearRGB; stroke-miterlimit:5;"><ns0:path style="stroke:none;" d="M-94.5315 -39.4243 Q-94.5315 -37.3618 -95.5706 -36.1821 Q-96.6096 -35.0024 -98.4534 -35.0024 Q-100.344 -35.0024 -101.3753 -36.1665 Q-102.4065 -37.3306 -102.4065 -39.4399 Q-102.4065 -41.5337 -101.3753 -42.6821 Q-100.344 -43.8306 -98.4534 -43.8306 Q-96.594 -43.8306 -95.5628 -42.6587 Q-94.5315 -41.4868 -94.5315 -39.4243 ZM-101.3596 -39.4243 Q-101.3596 -37.6899 -100.6174 -36.7837 Q-99.8753 -35.8774 -98.4534 -35.8774 Q-97.0315 -35.8774 -96.3049 -36.7759 Q-95.5784 -37.6743 -95.5784 -39.4243 Q-95.5784 -41.1587 -96.3049 -42.0493 Q-97.0315 -42.9399 -98.4534 -42.9399 Q-99.8753 -42.9399 -100.6174 -42.0415 Q-101.3596 -41.1431 -101.3596 -39.4243 Z" /><ns0:path style="fill:none; stroke:black;" d="M-64.5814 18.5576 L-64.764 19.023 L-65.2418 19.1704" /><ns0:path style="stroke:none;" d="M69.1125 -53.1703 Q69.1125 -51.1078 68.0734 -49.9281 Q67.0344 -48.7484 65.1906 -48.7484 Q63.3 -48.7484 62.2687 -49.9125 Q61.2375 -51.0766 61.2375 -53.1859 Q61.2375 -55.2797 62.2687 -56.4281 Q63.3 -57.5766 65.1906 -57.5766 Q67.05 -57.5766 68.0812 -56.4047 Q69.1125 -55.2328 69.1125 -53.1703 ZM62.2844 -53.1703 Q62.2844 -51.4359 63.0266 -50.5297 Q63.7687 -49.6234 65.1906 -49.6234 Q66.6125 -49.6234 67.3391 -50.5219 Q68.0656 -51.4203 68.0656 -53.1703 Q68.0656 -54.9047 67.3391 -55.7953 Q66.6125 -56.6859 65.1906 -56.6859 Q63.7687 -56.6859 63.0266 -55.7875 Q62.2844 -54.8891 62.2844 -53.1703 Z" /><ns0:path style="fill:none; stroke:black;" d="M54.509 -130.574 L54.942 -130.824 L55.425 -130.6946" /></ns0:g><ns0:g transform="matrix(1,0,0,1,357,134)" style="stroke-linecap:butt; font-size:8.4px; fill:gray; text-rendering:geometricPrecision; image-rendering:optimizeQuality; color-rendering:optimizeQuality; font-family:'Open Sans'; font-style:italic; stroke:gray; color-interpolation:linearRGB; stroke-miterlimit:5;"><ns0:path style="stroke:none;" d="M-115.539 -14.1333 Q-115.539 -15.4614 -115.0702 -16.5864 Q-114.6015 -17.7114 -113.5702 -18.7896 L-112.9609 -18.7896 Q-113.9296 -17.7271 -114.414 -16.5552 Q-114.8984 -15.3833 -114.8984 -14.1489 Q-114.8984 -12.8208 -114.4609 -11.8052 L-114.9765 -11.8052 Q-115.539 -12.8364 -115.539 -14.1333 ZM-111.9789 -15.4458 L-112.4789 -13.0708 L-113.1352 -13.0708 L-111.9321 -18.7896 L-110.6821 -18.7896 Q-108.9477 -18.7896 -108.9477 -17.3521 Q-108.9477 -15.9927 -110.3852 -15.6021 L-109.4477 -13.0708 L-110.1664 -13.0708 L-110.9946 -15.4458 L-111.9789 -15.4458 ZM-111.4008 -18.1958 Q-111.7914 -16.2739 -111.8539 -16.0239 L-111.1977 -16.0239 Q-110.4477 -16.0239 -110.0414 -16.3521 Q-109.6352 -16.6802 -109.6352 -17.3052 Q-109.6352 -17.7739 -109.893 -17.9849 Q-110.1508 -18.1958 -110.7446 -18.1958 L-111.4008 -18.1958 ZM-106.7617 -16.4458 Q-106.7617 -15.1177 -107.2383 -13.9849 Q-107.7148 -12.8521 -108.7305 -11.8052 L-109.3398 -11.8052 Q-107.4023 -13.9614 -107.4023 -16.4458 Q-107.4023 -17.7739 -107.8398 -18.7896 L-107.3242 -18.7896 Q-106.7617 -17.7271 -106.7617 -16.4458 Z" /><ns0:path style="fill:none; stroke:black;" d="M-92.9542 27.7196 L-93.432 27.867 L-93.8451 27.5853" /><ns0:path style="stroke:none;" d="M79.1129 -72.9844 Q79.1129 -74.3125 79.5816 -75.4375 Q80.0504 -76.5625 81.0816 -77.6406 L81.691 -77.6406 Q80.7222 -76.5781 80.2379 -75.4063 Q79.7535 -74.2344 79.7535 -73 Q79.7535 -71.6719 80.191 -70.6563 L79.6754 -70.6563 Q79.1129 -71.6875 79.1129 -72.9844 ZM84.7354 -73.5781 Q84.7354 -72.75 84.1886 -72.2969 Q83.6417 -71.8438 82.6417 -71.8438 Q82.2354 -71.8438 81.9229 -71.8985 Q81.6104 -71.9531 81.3292 -72.0938 L81.3292 -72.75 Q81.9542 -72.4219 82.6573 -72.4219 Q83.2823 -72.4219 83.6573 -72.7188 Q84.0323 -73.0156 84.0323 -73.5313 Q84.0323 -73.8438 83.8292 -74.0703 Q83.6261 -74.2969 83.0636 -74.625 Q82.4698 -74.9531 82.2432 -75.2813 Q82.0167 -75.6094 82.0167 -76.0625 Q82.0167 -76.7969 82.5323 -77.2578 Q83.0479 -77.7188 83.8917 -77.7188 Q84.2667 -77.7188 84.6026 -77.6406 Q84.9386 -77.5625 85.3136 -77.3906 L85.0479 -76.7969 Q84.7979 -76.9531 84.4776 -77.0391 Q84.1573 -77.125 83.8917 -77.125 Q83.3604 -77.125 83.0401 -76.8516 Q82.7198 -76.5781 82.7198 -76.1094 Q82.7198 -75.9063 82.7901 -75.7578 Q82.8604 -75.6094 83.0011 -75.4766 Q83.1417 -75.3438 83.5636 -75.0938 Q84.1261 -74.75 84.3292 -74.5547 Q84.5323 -74.3594 84.6339 -74.125 Q84.7354 -73.8906 84.7354 -73.5781 ZM87.3299 -75.2969 Q87.3299 -73.9688 86.8533 -72.836 Q86.3768 -71.7031 85.3612 -70.6563 L84.7518 -70.6563 Q86.6893 -72.8125 86.6893 -75.2969 Q86.6893 -76.625 86.2518 -77.6406 L86.7674 -77.6406 Q87.3299 -76.5781 87.3299 -75.2969 Z" /><ns0:path style="fill:none; stroke:black;" d="M83.436 -123.1894 L83.919 -123.06 L84.169 -122.627" /><ns0:path style="stroke:none;" d="M-131.6352 8.5145 Q-131.6352 7.1864 -131.1664 6.0614 Q-130.6977 4.9364 -129.6664 3.8583 L-129.0571 3.8583 Q-130.0258 4.9208 -130.5102 6.0926 Q-130.9946 7.2645 -130.9946 8.4989 Q-130.9946 9.827 -130.5571 10.8426 L-131.0727 10.8426 Q-131.6352 9.8114 -131.6352 8.5145 ZM-126.0126 7.9208 Q-126.0126 8.7489 -126.5595 9.202 Q-127.1064 9.6551 -128.1064 9.6551 Q-128.5126 9.6551 -128.8251 9.6005 Q-129.1376 9.5458 -129.4189 9.4051 L-129.4189 8.7489 Q-128.7939 9.077 -128.0907 9.077 Q-127.4657 9.077 -127.0907 8.7801 Q-126.7157 8.4833 -126.7157 7.9676 Q-126.7157 7.6551 -126.9189 7.4286 Q-127.122 7.202 -127.6845 6.8739 Q-128.2782 6.5458 -128.5048 6.2176 Q-128.7314 5.8895 -128.7314 5.4364 Q-128.7314 4.702 -128.2157 4.2411 Q-127.7001 3.7801 -126.8564 3.7801 Q-126.4814 3.7801 -126.1454 3.8583 Q-125.8095 3.9364 -125.4345 4.1083 L-125.7001 4.702 Q-125.9501 4.5458 -126.2704 4.4598 Q-126.5907 4.3739 -126.8564 4.3739 Q-127.3876 4.3739 -127.7079 4.6473 Q-128.0282 4.9208 -128.0282 5.3895 Q-128.0282 5.5926 -127.9579 5.7411 Q-127.8876 5.8895 -127.747 6.0223 Q-127.6064 6.1551 -127.1845 6.4051 Q-126.622 6.7489 -126.4189 6.9442 Q-126.2157 7.1395 -126.1142 7.3739 Q-126.0126 7.6083 -126.0126 7.9208 ZM-123.4181 6.202 Q-123.4181 7.5301 -123.8947 8.663 Q-124.3713 9.7958 -125.3869 10.8426 L-125.9963 10.8426 Q-124.0588 8.6864 -124.0588 6.202 Q-124.0588 4.8739 -124.4963 3.8583 L-123.9806 3.8583 Q-123.4181 4.9208 -123.4181 6.202 Z" /><ns0:path style="stroke:none;" d="M-151.1265 -24.7975 Q-151.1265 -26.1257 -150.6577 -27.2507 Q-150.189 -28.3757 -149.1577 -29.4538 L-148.5484 -29.4538 Q-149.5171 -28.3913 -150.0015 -27.2194 Q-150.4859 -26.0475 -150.4859 -24.8132 Q-150.4859 -23.485 -150.0484 -22.4694 L-150.564 -22.4694 Q-151.1265 -23.5007 -151.1265 -24.7975 ZM-147.5664 -26.11 L-148.0664 -23.735 L-148.7227 -23.735 L-147.5196 -29.4538 L-146.2696 -29.4538 Q-144.5352 -29.4538 -144.5352 -28.0163 Q-144.5352 -26.6569 -145.9727 -26.2663 L-145.0352 -23.735 L-145.7539 -23.735 L-146.5821 -26.11 L-147.5664 -26.11 ZM-146.9883 -28.86 Q-147.3789 -26.9382 -147.4414 -26.6882 L-146.7852 -26.6882 Q-146.0352 -26.6882 -145.6289 -27.0163 Q-145.2227 -27.3444 -145.2227 -27.9694 Q-145.2227 -28.4382 -145.4805 -28.6491 Q-145.7383 -28.86 -146.3321 -28.86 L-146.9883 -28.86 ZM-142.3492 -27.11 Q-142.3492 -25.7819 -142.8258 -24.6491 Q-143.3023 -23.5163 -144.318 -22.4694 L-144.9273 -22.4694 Q-142.9898 -24.6257 -142.9898 -27.11 Q-142.9898 -28.4382 -143.4273 -29.4538 L-142.9117 -29.4538 Q-142.3492 -28.3913 -142.3492 -27.11 Z" /><ns0:path style="stroke:none;" d="M84.6159 -94.6078 Q84.6159 -95.9359 85.0846 -97.0609 Q85.5534 -98.1859 86.5846 -99.2641 L87.194 -99.2641 Q86.2253 -98.2016 85.7409 -97.0297 Q85.2565 -95.8578 85.2565 -94.6234 Q85.2565 -93.2953 85.694 -92.2797 L85.1784 -92.2797 Q84.6159 -93.3109 84.6159 -94.6078 ZM88.176 -95.9203 L87.676 -93.5453 L87.0197 -93.5453 L88.2228 -99.2641 L89.4728 -99.2641 Q91.2072 -99.2641 91.2072 -97.8266 Q91.2072 -96.4672 89.7697 -96.0766 L90.7072 -93.5453 L89.9885 -93.5453 L89.1603 -95.9203 L88.176 -95.9203 ZM88.7541 -98.6703 Q88.3635 -96.7484 88.301 -96.4984 L88.9572 -96.4984 Q89.7072 -96.4984 90.1135 -96.8266 Q90.5197 -97.1547 90.5197 -97.7797 Q90.5197 -98.2484 90.2619 -98.4594 Q90.0041 -98.6703 89.4103 -98.6703 L88.7541 -98.6703 ZM93.3932 -96.9203 Q93.3932 -95.5922 92.9166 -94.4594 Q92.4401 -93.3266 91.4244 -92.2797 L90.8151 -92.2797 Q92.7526 -94.4359 92.7526 -96.9203 Q92.7526 -98.2484 92.3151 -99.2641 L92.8307 -99.2641 Q93.3932 -98.2016 93.3932 -96.9203 Z" /><ns0:path style="fill:none; stroke:black;" d="M112.0144 -47.2406 L112.368 -46.887 L112.851 -47.0164" /></ns0:g><ns0:g transform="matrix(1,0,0,1,357,134)" style="stroke-linecap:butt; fill:rgb(230,0,0); text-rendering:geometricPrecision; color-rendering:optimizeQuality; image-rendering:optimizeQuality; font-family:'Open Sans'; stroke:rgb(230,0,0); color-interpolation:linearRGB; stroke-miterlimit:5;"><ns0:path style="stroke:none;" d="M-136.2735 31.3007 Q-136.2735 33.3632 -137.3126 34.5429 Q-138.3516 35.7226 -140.1954 35.7226 Q-142.086 35.7226 -143.1172 34.5585 Q-144.1485 33.3944 -144.1485 31.2851 Q-144.1485 29.1913 -143.1172 28.0429 Q-142.086 26.8944 -140.1954 26.8944 Q-138.336 26.8944 -137.3047 28.0663 Q-136.2735 29.2382 -136.2735 31.3007 ZM-143.1016 31.3007 Q-143.1016 33.0351 -142.3594 33.9413 Q-141.6172 34.8476 -140.1954 34.8476 Q-138.7735 34.8476 -138.0469 33.9491 Q-137.3204 33.0507 -137.3204 31.3007 Q-137.3204 29.5663 -138.0469 28.6757 Q-138.7735 27.7851 -140.1954 27.7851 Q-141.6172 27.7851 -142.3594 28.6835 Q-143.1016 29.5819 -143.1016 31.3007 Z" /><ns0:path style="fill:none; stroke:black;" d="M-173.4352 -27.1534 L-173.913 -27.006 L-174.0957 -26.5406" /><ns0:path style="stroke:none;" d="M131.8335 -104.9143 Q131.8335 -102.8518 130.7944 -101.6721 Q129.7554 -100.4924 127.9116 -100.4924 Q126.021 -100.4924 124.9897 -101.6565 Q123.9585 -102.8206 123.9585 -104.9299 Q123.9585 -107.0237 124.9897 -108.1721 Q126.021 -109.3206 127.9116 -109.3206 Q129.771 -109.3206 130.8022 -108.1487 Q131.8335 -106.9768 131.8335 -104.9143 ZM125.0054 -104.9143 Q125.0054 -103.1799 125.7476 -102.2737 Q126.4897 -101.3674 127.9116 -101.3674 Q129.3335 -101.3674 130.0601 -102.2659 Q130.7866 -103.1643 130.7866 -104.9143 Q130.7866 -106.6487 130.0601 -107.5393 Q129.3335 -108.4299 127.9116 -108.4299 Q126.4897 -108.4299 125.7476 -107.5315 Q125.0054 -106.6331 125.0054 -104.9143 Z" /></ns0:g><ns0:g transform="matrix(1,0,0,1,357,134)" style="stroke-linecap:butt; font-size:8.4px; fill:gray; text-rendering:geometricPrecision; image-rendering:optimizeQuality; color-rendering:optimizeQuality; font-family:'Open Sans'; font-style:italic; stroke:gray; color-interpolation:linearRGB; stroke-miterlimit:5;"><ns0:path style="stroke:none;" d="M146.6157 -56.0747 Q146.6157 -57.4028 147.0845 -58.5278 Q147.5532 -59.6528 148.5845 -60.731 L149.1938 -60.731 Q148.2251 -59.6685 147.7407 -58.4966 Q147.2563 -57.3247 147.2563 -56.0903 Q147.2563 -54.7622 147.6938 -53.7466 L147.1782 -53.7466 Q146.6157 -54.7778 146.6157 -56.0747 ZM150.1758 -57.3872 L149.6758 -55.0122 L149.0195 -55.0122 L150.2227 -60.731 L151.4727 -60.731 Q153.207 -60.731 153.207 -59.2935 Q153.207 -57.9341 151.7695 -57.5435 L152.707 -55.0122 L151.9883 -55.0122 L151.1602 -57.3872 L150.1758 -57.3872 ZM150.7539 -60.1372 Q150.3633 -58.2153 150.3008 -57.9653 L150.957 -57.9653 Q151.707 -57.9653 152.1133 -58.2935 Q152.5195 -58.6216 152.5195 -59.2466 Q152.5195 -59.7153 152.2617 -59.9263 Q152.0039 -60.1372 151.4102 -60.1372 L150.7539 -60.1372 ZM155.393 -58.3872 Q155.393 -57.0591 154.9164 -55.9263 Q154.4399 -54.7935 153.4243 -53.7466 L152.8149 -53.7466 Q154.7524 -55.9028 154.7524 -58.3872 Q154.7524 -59.7153 154.3149 -60.731 L154.8305 -60.731 Q155.393 -59.6685 155.393 -58.3872 Z" /><ns0:path style="stroke:none;" d="M-168.6304 19.8027 Q-168.6304 18.4746 -168.1617 17.3496 Q-167.6929 16.2246 -166.6617 15.1464 L-166.0523 15.1464 Q-167.0211 16.2089 -167.5054 17.3808 Q-167.9898 18.5527 -167.9898 19.7871 Q-167.9898 21.1152 -167.5523 22.1308 L-168.0679 22.1308 Q-168.6304 21.0996 -168.6304 19.8027 ZM-165.0704 18.4902 L-165.5704 20.8652 L-166.2266 20.8652 L-165.0235 15.1464 L-163.7735 15.1464 Q-162.0391 15.1464 -162.0391 16.5839 Q-162.0391 17.9433 -163.4766 18.3339 L-162.5391 20.8652 L-163.2579 20.8652 L-164.086 18.4902 L-165.0704 18.4902 ZM-164.4923 15.7402 Q-164.8829 17.6621 -164.9454 17.9121 L-164.2891 17.9121 Q-163.5391 17.9121 -163.1329 17.5839 Q-162.7266 17.2558 -162.7266 16.6308 Q-162.7266 16.1621 -162.9845 15.9511 Q-163.2423 15.7402 -163.836 15.7402 L-164.4923 15.7402 ZM-159.8532 17.4902 Q-159.8532 18.8183 -160.3297 19.9511 Q-160.8063 21.0839 -161.8219 22.1308 L-162.4313 22.1308 Q-160.4938 19.9746 -160.4938 17.4902 Q-160.4938 16.1621 -160.9313 15.1464 L-160.4157 15.1464 Q-159.8532 16.2089 -159.8532 17.4902 Z" /><ns0:path style="stroke:none;" d="M-179.0114 1.3744 Q-179.0114 0.0463 -178.5427 -1.0787 Q-178.0739 -2.2037 -177.0427 -3.2818 L-176.4333 -3.2818 Q-177.4021 -2.2193 -177.8864 -1.0475 Q-178.3708 0.1244 -178.3708 1.3588 Q-178.3708 2.6869 -177.9333 3.7025 L-178.4489 3.7025 Q-179.0114 2.6713 -179.0114 1.3744 ZM-173.3889 0.7807 Q-173.3889 1.6088 -173.9358 2.0619 Q-174.4826 2.515 -175.4826 2.515 Q-175.8889 2.515 -176.2014 2.4604 Q-176.5139 2.4057 -176.7951 2.265 L-176.7951 1.6088 Q-176.1701 1.9369 -175.467 1.9369 Q-174.842 1.9369 -174.467 1.64 Q-174.092 1.3432 -174.092 0.8275 Q-174.092 0.515 -174.2951 0.2885 Q-174.4983 0.0619 -175.0608 -0.2662 Q-175.6545 -0.5943 -175.8811 -0.9225 Q-176.1076 -1.2506 -176.1076 -1.7037 Q-176.1076 -2.4381 -175.592 -2.899 Q-175.0764 -3.36 -174.2326 -3.36 Q-173.8576 -3.36 -173.5217 -3.2818 Q-173.1858 -3.2037 -172.8108 -3.0318 L-173.0764 -2.4381 Q-173.3264 -2.5943 -173.6467 -2.6803 Q-173.967 -2.7662 -174.2326 -2.7662 Q-174.7639 -2.7662 -175.0842 -2.4928 Q-175.4045 -2.2193 -175.4045 -1.7506 Q-175.4045 -1.5475 -175.3342 -1.399 Q-175.2639 -1.2506 -175.1233 -1.1178 Q-174.9826 -0.985 -174.5608 -0.735 Q-173.9983 -0.3912 -173.7951 -0.1959 Q-173.592 -0.0006 -173.4904 0.2338 Q-173.3889 0.4682 -173.3889 0.7807 ZM-170.7944 -0.9381 Q-170.7944 0.39 -171.271 1.5229 Q-171.7475 2.6557 -172.7632 3.7025 L-173.3725 3.7025 Q-171.435 1.5463 -171.435 -0.9381 Q-171.435 -2.2662 -171.8725 -3.2818 L-171.3569 -3.2818 Q-170.7944 -2.2193 -170.7944 -0.9381 Z" /><ns0:path style="stroke:none;" d="M135.3441 -79.8371 Q135.3441 -81.1652 135.8129 -82.2902 Q136.2816 -83.4152 137.3129 -84.4933 L137.9222 -84.4933 Q136.9535 -83.4308 136.4691 -82.259 Q135.9847 -81.0871 135.9847 -79.8527 Q135.9847 -78.5246 136.4222 -77.509 L135.9066 -77.509 Q135.3441 -78.5402 135.3441 -79.8371 ZM140.9667 -80.4308 Q140.9667 -79.6027 140.4198 -79.1496 Q139.8729 -78.6965 138.8729 -78.6965 Q138.4667 -78.6965 138.1542 -78.7512 Q137.8417 -78.8058 137.5604 -78.9465 L137.5604 -79.6027 Q138.1854 -79.2746 138.8885 -79.2746 Q139.5135 -79.2746 139.8885 -79.5715 Q140.2635 -79.8683 140.2635 -80.384 Q140.2635 -80.6965 140.0604 -80.923 Q139.8573 -81.1496 139.2948 -81.4777 Q138.701 -81.8058 138.4745 -82.134 Q138.2479 -82.4621 138.2479 -82.9152 Q138.2479 -83.6496 138.7635 -84.1105 Q139.2792 -84.5715 140.1229 -84.5715 Q140.4979 -84.5715 140.8339 -84.4933 Q141.1698 -84.4152 141.5448 -84.2433 L141.2792 -83.6496 Q141.0292 -83.8058 140.7089 -83.8918 Q140.3885 -83.9777 140.1229 -83.9777 Q139.5917 -83.9777 139.2714 -83.7043 Q138.951 -83.4308 138.951 -82.9621 Q138.951 -82.759 139.0214 -82.6105 Q139.0917 -82.4621 139.2323 -82.3293 Q139.3729 -82.1965 139.7948 -81.9465 Q140.3573 -81.6027 140.5604 -81.4074 Q140.7635 -81.2121 140.8651 -80.9777 Q140.9667 -80.7433 140.9667 -80.4308 ZM143.5612 -82.1496 Q143.5612 -80.8215 143.0846 -79.6887 Q142.608 -78.5558 141.5924 -77.509 L140.983 -77.509 Q142.9205 -79.6652 142.9205 -82.1496 Q142.9205 -83.4777 142.483 -84.4933 L142.9987 -84.4933 Q143.5612 -83.4308 143.5612 -82.1496 Z" /></ns0:g><ns0:g transform="matrix(1,0,0,1,357,134)" style="stroke-linecap:butt; fill:rgb(230,0,0); text-rendering:geometricPrecision; color-rendering:optimizeQuality; image-rendering:optimizeQuality; font-family:'Open Sans'; stroke:rgb(230,0,0); color-interpolation:linearRGB; stroke-miterlimit:5;"><ns0:path style="stroke:none;" d="M166.4955 -33.5083 Q166.4955 -31.4458 165.4564 -30.2661 Q164.4174 -29.0864 162.5736 -29.0864 Q160.683 -29.0864 159.6517 -30.2505 Q158.6205 -31.4146 158.6205 -33.5239 Q158.6205 -35.6177 159.6517 -36.7661 Q160.683 -37.9146 162.5736 -37.9146 Q164.433 -37.9146 165.4642 -36.7427 Q166.4955 -35.5708 166.4955 -33.5083 ZM159.6674 -33.5083 Q159.6674 -31.7739 160.4096 -30.8677 Q161.1517 -29.9614 162.5736 -29.9614 Q163.9955 -29.9614 164.7221 -30.8599 Q165.4486 -31.7583 165.4486 -33.5083 Q165.4486 -35.2427 164.7221 -36.1333 Q163.9955 -37.0239 162.5736 -37.0239 Q161.1517 -37.0239 160.4096 -36.1255 Q159.6674 -35.2271 159.6674 -33.5083 Z" /><ns0:path style="fill:none; stroke:black;" d="M-184.625 52.448 L-184.875 52.881 L-185.375 52.881" /><ns0:path style="stroke:none;" d="M-210.9375 0.8477 Q-210.9375 2.9102 -211.9766 4.0899 Q-213.0156 5.2696 -214.8594 5.2696 Q-216.75 5.2696 -217.7812 4.1055 Q-218.8125 2.9414 -218.8125 0.8321 Q-218.8125 -1.2617 -217.7812 -2.4101 Q-216.75 -3.5586 -214.8594 -3.5586 Q-213 -3.5586 -211.9688 -2.3867 Q-210.9375 -1.2148 -210.9375 0.8477 ZM-217.7656 0.8477 Q-217.7656 2.5821 -217.0234 3.4883 Q-216.2812 4.3946 -214.8594 4.3946 Q-213.4375 4.3946 -212.7109 3.4961 Q-211.9844 2.5977 -211.9844 0.8477 Q-211.9844 -0.8867 -212.7109 -1.7773 Q-213.4375 -2.6679 -214.8594 -2.6679 Q-216.2812 -2.6679 -217.0234 -1.7695 Q-217.7656 -0.8711 -217.7656 0.8477 Z" /><ns0:path style="fill:none; stroke:black;" d="M177.606 -91.2655 L178.089 -91.395 L178.4425 -91.0414" /></ns0:g><ns0:g transform="matrix(1,0,0,1,357,134)" style="stroke-linecap:butt; font-size:8.4px; fill:gray; text-rendering:geometricPrecision; image-rendering:optimizeQuality; color-rendering:optimizeQuality; font-family:'Open Sans'; font-style:italic; stroke:gray; color-interpolation:linearRGB; stroke-miterlimit:5;"><ns0:path style="stroke:none;" d="M197.0887 -42.5872 Q197.0887 -43.9154 197.5574 -45.0404 Q198.0262 -46.1654 199.0574 -47.2435 L199.6668 -47.2435 Q198.6981 -46.181 198.2137 -45.0091 Q197.7293 -43.8372 197.7293 -42.6029 Q197.7293 -41.2747 198.1668 -40.2591 L197.6512 -40.2591 Q197.0887 -41.2904 197.0887 -42.5872 ZM202.7113 -43.181 Q202.7113 -42.3529 202.1644 -41.8997 Q201.6175 -41.4466 200.6175 -41.4466 Q200.2113 -41.4466 199.8988 -41.5013 Q199.5863 -41.556 199.305 -41.6966 L199.305 -42.3529 Q199.93 -42.0247 200.6331 -42.0247 Q201.2581 -42.0247 201.6331 -42.3216 Q202.0081 -42.6185 202.0081 -43.1341 Q202.0081 -43.4466 201.805 -43.6732 Q201.6019 -43.8997 201.0394 -44.2279 Q200.4456 -44.556 200.2191 -44.8841 Q199.9925 -45.2122 199.9925 -45.6654 Q199.9925 -46.3997 200.5081 -46.8607 Q201.0238 -47.3216 201.8675 -47.3216 Q202.2425 -47.3216 202.5784 -47.2435 Q202.9144 -47.1654 203.2894 -46.9935 L203.0238 -46.3997 Q202.7738 -46.556 202.4534 -46.6419 Q202.1331 -46.7279 201.8675 -46.7279 Q201.3363 -46.7279 201.0159 -46.4544 Q200.6956 -46.181 200.6956 -45.7122 Q200.6956 -45.5091 200.7659 -45.3607 Q200.8363 -45.2122 200.9769 -45.0794 Q201.1175 -44.9466 201.5394 -44.6966 Q202.1019 -44.3529 202.305 -44.1576 Q202.5081 -43.9622 202.6097 -43.7279 Q202.7113 -43.4935 202.7113 -43.181 ZM205.3057 -44.8997 Q205.3057 -43.5716 204.8292 -42.4388 Q204.3526 -41.306 203.337 -40.2591 L202.7276 -40.2591 Q204.6651 -42.4154 204.6651 -44.8997 Q204.6651 -46.2279 204.2276 -47.2435 L204.7432 -47.2435 Q205.3057 -46.181 205.3057 -44.8997 Z" /><ns0:path style="stroke:none;" d="M-228.9835 54.0841 Q-228.9835 52.756 -228.5148 51.631 Q-228.046 50.506 -227.0148 49.4279 L-226.4054 49.4279 Q-227.3741 50.4904 -227.8585 51.6623 Q-228.3429 52.8341 -228.3429 54.0685 Q-228.3429 55.3966 -227.9054 56.4123 L-228.421 56.4123 Q-228.9835 55.381 -228.9835 54.0841 ZM-223.361 53.4904 Q-223.361 54.3185 -223.9078 54.7716 Q-224.4547 55.2248 -225.4547 55.2248 Q-225.861 55.2248 -226.1735 55.1701 Q-226.486 55.1154 -226.7672 54.9748 L-226.7672 54.3185 Q-226.1422 54.6466 -225.4391 54.6466 Q-224.8141 54.6466 -224.4391 54.3498 Q-224.0641 54.0529 -224.0641 53.5373 Q-224.0641 53.2248 -224.2672 52.9982 Q-224.4703 52.7716 -225.0328 52.4435 Q-225.6266 52.1154 -225.8531 51.7873 Q-226.0797 51.4591 -226.0797 51.006 Q-226.0797 50.2716 -225.5641 49.8107 Q-225.0485 49.3498 -224.2047 49.3498 Q-223.8297 49.3498 -223.4938 49.4279 Q-223.1578 49.506 -222.7828 49.6779 L-223.0485 50.2716 Q-223.2985 50.1154 -223.6188 50.0294 Q-223.9391 49.9435 -224.2047 49.9435 Q-224.736 49.9435 -225.0563 50.2169 Q-225.3766 50.4904 -225.3766 50.9591 Q-225.3766 51.1623 -225.3063 51.3107 Q-225.236 51.4591 -225.0953 51.5919 Q-224.9547 51.7248 -224.5328 51.9748 Q-223.9703 52.3185 -223.7672 52.5138 Q-223.5641 52.7091 -223.4625 52.9435 Q-223.361 53.1779 -223.361 53.4904 ZM-220.7665 51.7716 Q-220.7665 53.0998 -221.243 54.2326 Q-221.7196 55.3654 -222.7352 56.4123 L-223.3446 56.4123 Q-221.4071 54.256 -221.4071 51.7716 Q-221.4071 50.4435 -221.8446 49.4279 L-221.329 49.4279 Q-220.7665 50.4904 -220.7665 51.7716 Z" /><ns0:path style="stroke:none;" d="M-224.2636 28.0648 Q-224.2636 26.7367 -223.7949 25.6117 Q-223.3261 24.4867 -222.2949 23.4086 L-221.6855 23.4086 Q-222.6543 24.4711 -223.1386 25.6429 Q-223.623 26.8148 -223.623 28.0492 Q-223.623 29.3773 -223.1855 30.3929 L-223.7011 30.3929 Q-224.2636 29.3617 -224.2636 28.0648 ZM-220.7036 26.7523 L-221.2036 29.1273 L-221.8598 29.1273 L-220.6567 23.4086 L-219.4067 23.4086 Q-217.6723 23.4086 -217.6723 24.8461 Q-217.6723 26.2054 -219.1098 26.5961 L-218.1723 29.1273 L-218.8911 29.1273 L-219.7192 26.7523 L-220.7036 26.7523 ZM-220.1255 24.0023 Q-220.5161 25.9242 -220.5786 26.1742 L-219.9223 26.1742 Q-219.1723 26.1742 -218.7661 25.8461 Q-218.3598 25.5179 -218.3598 24.8929 Q-218.3598 24.4242 -218.6176 24.2133 Q-218.8755 24.0023 -219.4692 24.0023 L-220.1255 24.0023 ZM-215.4864 25.7523 Q-215.4864 27.0804 -215.9629 28.2133 Q-216.4395 29.3461 -217.4551 30.3929 L-218.0645 30.3929 Q-216.127 28.2367 -216.127 25.7523 Q-216.127 24.4242 -216.5645 23.4086 L-216.0489 23.4086 Q-215.4864 24.4711 -215.4864 25.7523 Z" /><ns0:path style="stroke:none;" d="M185.2542 -66.4296 Q185.2542 -67.7577 185.7229 -68.8827 Q186.1917 -70.0077 187.2229 -71.0858 L187.8323 -71.0858 Q186.8635 -70.0233 186.3792 -68.8514 Q185.8948 -67.6796 185.8948 -66.4452 Q185.8948 -65.1171 186.3323 -64.1014 L185.8167 -64.1014 Q185.2542 -65.1327 185.2542 -66.4296 ZM188.8142 -67.7421 L188.3142 -65.3671 L187.658 -65.3671 L188.8611 -71.0858 L190.1111 -71.0858 Q191.8455 -71.0858 191.8455 -69.6483 Q191.8455 -68.2889 190.408 -67.8983 L191.3455 -65.3671 L190.6267 -65.3671 L189.7986 -67.7421 L188.8142 -67.7421 ZM189.3923 -70.4921 Q189.0017 -68.5702 188.9392 -68.3202 L189.5955 -68.3202 Q190.3455 -68.3202 190.7517 -68.6483 Q191.158 -68.9764 191.158 -69.6014 Q191.158 -70.0702 190.9001 -70.2811 Q190.6423 -70.4921 190.0486 -70.4921 L189.3923 -70.4921 ZM194.0314 -68.7421 Q194.0314 -67.4139 193.5549 -66.2811 Q193.0783 -65.1483 192.0627 -64.1014 L191.4533 -64.1014 Q193.3908 -66.2577 193.3908 -68.7421 Q193.3908 -70.0702 192.9533 -71.0858 L193.4689 -71.0858 Q194.0314 -70.0233 194.0314 -68.7421 Z" /><ns0:path style="fill:none; stroke:black;" d="M212.3975 -20.3426 L212.751 -19.989 L213.234 -20.1185" /><ns0:path style="stroke:none;" d="M211.2303 -28.4452 Q211.2303 -29.7734 211.699 -30.8984 Q212.1678 -32.0234 213.199 -33.1015 L213.8084 -33.1015 Q212.8396 -32.039 212.3553 -30.8671 Q211.8709 -29.6952 211.8709 -28.4609 Q211.8709 -27.1327 212.3084 -26.1171 L211.7928 -26.1171 Q211.2303 -27.1484 211.2303 -28.4452 ZM216.8528 -29.039 Q216.8528 -28.2109 216.306 -27.7577 Q215.7591 -27.3046 214.7591 -27.3046 Q214.3528 -27.3046 214.0403 -27.3593 Q213.7278 -27.414 213.4466 -27.5546 L213.4466 -28.2109 Q214.0716 -27.8827 214.7747 -27.8827 Q215.3997 -27.8827 215.7747 -28.1796 Q216.1497 -28.4765 216.1497 -28.9921 Q216.1497 -29.3046 215.9466 -29.5312 Q215.7435 -29.7577 215.181 -30.0859 Q214.5872 -30.414 214.3606 -30.7421 Q214.1341 -31.0702 214.1341 -31.5234 Q214.1341 -32.2577 214.6497 -32.7187 Q215.1653 -33.1796 216.0091 -33.1796 Q216.3841 -33.1796 216.72 -33.1015 Q217.056 -33.0234 217.431 -32.8515 L217.1653 -32.2577 Q216.9153 -32.414 216.595 -32.4999 Q216.2747 -32.5859 216.0091 -32.5859 Q215.4778 -32.5859 215.1575 -32.3124 Q214.8372 -32.039 214.8372 -31.5702 Q214.8372 -31.3671 214.9075 -31.2187 Q214.9778 -31.0702 215.1185 -30.9374 Q215.2591 -30.8046 215.681 -30.5546 Q216.2435 -30.2109 216.4466 -30.0156 Q216.6497 -29.8202 216.7513 -29.5859 Q216.8528 -29.3515 216.8528 -29.039 ZM219.4473 -30.7577 Q219.4473 -29.4296 218.9707 -28.2968 Q218.4942 -27.164 217.4786 -26.1171 L216.8692 -26.1171 Q218.8067 -28.2734 218.8067 -30.7577 Q218.8067 -32.0859 218.3692 -33.1015 L218.8848 -33.1015 Q219.4473 -32.039 219.4473 -30.7577 Z" /></ns0:g><ns0:g transform="matrix(1,0,0,1,357,134)" style="stroke-linecap:butt; fill:rgb(230,0,0); text-rendering:geometricPrecision; color-rendering:optimizeQuality; image-rendering:optimizeQuality; font-family:'Open Sans'; stroke:rgb(230,0,0); color-interpolation:linearRGB; stroke-miterlimit:5;"><ns0:path style="stroke:none;" d="M-225.9375 78.7907 Q-225.9375 80.8532 -226.9766 82.0329 Q-228.0156 83.2126 -229.8594 83.2126 Q-231.75 83.2126 -232.7812 82.0485 Q-233.8125 80.8844 -233.8125 78.7751 Q-233.8125 76.6813 -232.7812 75.5329 Q-231.75 74.3844 -229.8594 74.3844 Q-228 74.3844 -226.9688 75.5563 Q-225.9375 76.7282 -225.9375 78.7907 ZM-232.7656 78.7907 Q-232.7656 80.5251 -232.0234 81.4313 Q-231.2812 82.3376 -229.8594 82.3376 Q-228.4375 82.3376 -227.7109 81.4391 Q-226.9844 80.5407 -226.9844 78.7907 Q-226.9844 77.0563 -227.7109 76.1657 Q-228.4375 75.2751 -229.8594 75.2751 Q-231.2812 75.2751 -232.0234 76.1735 Q-232.7656 77.0719 -232.7656 78.7907 Z" /><ns0:path style="fill:none; stroke:black;" d="M-259.375 26.901 L-259.875 26.901 L-260.125 27.334" /><ns0:path style="stroke:none;" d="M232.2165 -78.0163 Q232.2165 -75.9538 231.1774 -74.7741 Q230.1384 -73.5944 228.2946 -73.5944 Q226.404 -73.5944 225.3728 -74.7585 Q224.3415 -75.9226 224.3415 -78.0319 Q224.3415 -80.1257 225.3728 -81.2741 Q226.404 -82.4226 228.2946 -82.4226 Q230.154 -82.4226 231.1853 -81.2507 Q232.2165 -80.0788 232.2165 -78.0163 ZM225.3884 -78.0163 Q225.3884 -76.2819 226.1306 -75.3757 Q226.8728 -74.4694 228.2946 -74.4694 Q229.7165 -74.4694 230.4431 -75.3679 Q231.1696 -76.2663 231.1696 -78.0163 Q231.1696 -79.7507 230.4431 -80.6413 Q229.7165 -81.5319 228.2946 -81.5319 Q226.8728 -81.5319 226.1306 -80.6335 Q225.3884 -79.7351 225.3884 -78.0163 Z" /><ns0:path style="fill:none; stroke:black;" d="M241.245 -27.6266 L241.728 -27.756 L241.8574 -28.239" /></ns0:g><ns0:g transform="matrix(1,0,0,1,357,134)" style="stroke-linecap:butt; font-size:8.4px; fill:gray; text-rendering:geometricPrecision; image-rendering:optimizeQuality; color-rendering:optimizeQuality; font-family:'Open Sans'; font-style:italic; stroke:gray; color-interpolation:linearRGB; stroke-miterlimit:5;"><ns0:path style="stroke:none;" d="M-274.2636 80.0251 Q-274.2636 78.6969 -273.7949 77.5719 Q-273.3261 76.4469 -272.2949 75.3688 L-271.6855 75.3688 Q-272.6543 76.4313 -273.1386 77.6032 Q-273.623 78.7751 -273.623 80.0094 Q-273.623 81.3376 -273.1855 82.3532 L-273.7011 82.3532 Q-274.2636 81.3219 -274.2636 80.0251 ZM-270.7036 78.7126 L-271.2036 81.0876 L-271.8598 81.0876 L-270.6567 75.3688 L-269.4067 75.3688 Q-267.6723 75.3688 -267.6723 76.8063 Q-267.6723 78.1657 -269.1098 78.5563 L-268.1723 81.0876 L-268.8911 81.0876 L-269.7192 78.7126 L-270.7036 78.7126 ZM-270.1255 75.9626 Q-270.5161 77.8844 -270.5786 78.1344 L-269.9223 78.1344 Q-269.1723 78.1344 -268.7661 77.8063 Q-268.3598 77.4782 -268.3598 76.8532 Q-268.3598 76.3844 -268.6176 76.1735 Q-268.8755 75.9626 -269.4692 75.9626 L-270.1255 75.9626 ZM-265.4864 77.7126 Q-265.4864 79.0407 -265.9629 80.1735 Q-266.4395 81.3063 -267.4551 82.3532 L-268.0645 82.3532 Q-266.127 80.1969 -266.127 77.7126 Q-266.127 76.3844 -266.5645 75.3688 L-266.0489 75.3688 Q-265.4864 76.4313 -265.4864 77.7126 Z" /><ns0:path style="stroke:none;" d="M-268.9835 54.0841 Q-268.9835 52.756 -268.5148 51.631 Q-268.046 50.506 -267.0148 49.4279 L-266.4054 49.4279 Q-267.3741 50.4904 -267.8585 51.6623 Q-268.3429 52.8341 -268.3429 54.0685 Q-268.3429 55.3966 -267.9054 56.4123 L-268.421 56.4123 Q-268.9835 55.381 -268.9835 54.0841 ZM-263.361 53.4904 Q-263.361 54.3185 -263.9078 54.7716 Q-264.4547 55.2248 -265.4547 55.2248 Q-265.861 55.2248 -266.1735 55.1701 Q-266.486 55.1154 -266.7672 54.9748 L-266.7672 54.3185 Q-266.1422 54.6466 -265.4391 54.6466 Q-264.8141 54.6466 -264.4391 54.3498 Q-264.0641 54.0529 -264.0641 53.5373 Q-264.0641 53.2248 -264.2672 52.9982 Q-264.4703 52.7716 -265.0328 52.4435 Q-265.6266 52.1154 -265.8531 51.7873 Q-266.0797 51.4591 -266.0797 51.006 Q-266.0797 50.2716 -265.5641 49.8107 Q-265.0485 49.3498 -264.2047 49.3498 Q-263.8297 49.3498 -263.4938 49.4279 Q-263.1578 49.506 -262.7828 49.6779 L-263.0485 50.2716 Q-263.2985 50.1154 -263.6188 50.0294 Q-263.9391 49.9435 -264.2047 49.9435 Q-264.736 49.9435 -265.0563 50.2169 Q-265.3766 50.4904 -265.3766 50.9591 Q-265.3766 51.1623 -265.3063 51.3107 Q-265.236 51.4591 -265.0953 51.5919 Q-264.9547 51.7248 -264.5328 51.9748 Q-263.9703 52.3185 -263.7672 52.5138 Q-263.5641 52.7091 -263.4625 52.9435 Q-263.361 53.1779 -263.361 53.4904 ZM-260.7665 51.7716 Q-260.7665 53.0998 -261.243 54.2326 Q-261.7196 55.3654 -262.7352 56.4123 L-263.3446 56.4123 Q-261.4071 54.256 -261.4071 51.7716 Q-261.4071 50.4435 -261.8446 49.4279 L-261.329 49.4279 Q-260.7665 50.4904 -260.7665 51.7716 Z" /><ns0:path style="fill:none; stroke:black;" d="M249.1384 -57.0866 L249.492 -56.733 L249.3626 -56.25" /><ns0:path style="stroke:none;" d="M247.6916 -65.2282 Q247.6916 -66.5563 248.1603 -67.6813 Q248.6291 -68.8063 249.6603 -69.8844 L250.2697 -69.8844 Q249.301 -68.8219 248.8166 -67.6501 Q248.3322 -66.4782 248.3322 -65.2438 Q248.3322 -63.9157 248.7697 -62.9001 L248.2541 -62.9001 Q247.6916 -63.9313 247.6916 -65.2282 ZM251.2516 -66.5407 L250.7516 -64.1657 L250.0954 -64.1657 L251.2985 -69.8844 L252.5485 -69.8844 Q254.2829 -69.8844 254.2829 -68.4469 Q254.2829 -67.0876 252.8454 -66.6969 L253.7829 -64.1657 L253.0641 -64.1657 L252.236 -66.5407 L251.2516 -66.5407 ZM251.8298 -69.2907 Q251.4391 -67.3688 251.3766 -67.1188 L252.0329 -67.1188 Q252.7829 -67.1188 253.1891 -67.4469 Q253.5954 -67.7751 253.5954 -68.4001 Q253.5954 -68.8688 253.3376 -69.0797 Q253.0798 -69.2907 252.486 -69.2907 L251.8298 -69.2907 ZM256.4689 -67.5407 Q256.4689 -66.2126 255.9923 -65.0797 Q255.5157 -63.9469 254.5001 -62.9001 L253.8907 -62.9001 Q255.8282 -65.0563 255.8282 -67.5407 Q255.8282 -68.8688 255.3907 -69.8844 L255.9064 -69.8844 Q256.4689 -68.8219 256.4689 -67.5407 Z" /><ns0:path style="fill:none; stroke:black;" d="M-275.375 104.841 L-274.875 104.841 L-274.625 105.274" /></ns0:g><ns0:g transform="matrix(1,0,0,1,357,134)" style="stroke-linecap:butt; fill:rgb(230,0,0); text-rendering:geometricPrecision; color-rendering:optimizeQuality; image-rendering:optimizeQuality; font-family:'Open Sans'; stroke:rgb(230,0,0); color-interpolation:linearRGB; stroke-miterlimit:5;"><ns0:path style="stroke:none;" d="M-300.9375 52.8107 Q-300.9375 54.8732 -301.9766 56.0529 Q-303.0156 57.2326 -304.8594 57.2326 Q-306.75 57.2326 -307.7812 56.0685 Q-308.8125 54.9044 -308.8125 52.7951 Q-308.8125 50.7013 -307.7812 49.5529 Q-306.75 48.4044 -304.8594 48.4044 Q-303 48.4044 -301.9688 49.5763 Q-300.9375 50.7482 -300.9375 52.8107 ZM-307.7656 52.8107 Q-307.7656 54.5451 -307.0234 55.4513 Q-306.2812 56.3576 -304.8594 56.3576 Q-303.4375 56.3576 -302.7109 55.4591 Q-301.9844 54.5607 -301.9844 52.8107 Q-301.9844 51.0763 -302.7109 50.1857 Q-303.4375 49.2951 -304.8594 49.2951 Q-306.2812 49.2951 -307.0234 50.1935 Q-307.7656 51.0919 -307.7656 52.8107 Z" /><ns0:path style="fill:none; stroke:black;" d="M-304.375 104.841 L-304.875 104.841 L-305.125 104.408" /><ns0:path style="fill:none; stroke:black;" d="M-319.625 78.428 L-319.875 78.861 L-319.625 79.294" /><ns0:path style="fill:black; stroke:none;" d="M-35.5472 -82.6878 L-36.5472 -82.6878 L-36.5472 -86.719 L-41.0628 -86.719 L-41.0628 -82.6878 L-42.0628 -82.6878 L-42.0628 -91.2503 L-41.0628 -91.2503 L-41.0628 -87.6096 L-36.5472 -87.6096 L-36.5472 -91.2503 L-35.5472 -91.2503 L-35.5472 -82.6878 Z" /><ns0:path style="fill:black; stroke:none;" d="M-78.5612 -57.7578 L-79.5612 -57.7578 L-79.5612 -61.789 L-84.0768 -61.789 L-84.0768 -57.7578 L-85.0768 -57.7578 L-85.0768 -66.3203 L-84.0768 -66.3203 L-84.0768 -62.6796 L-79.5612 -62.6796 L-79.5612 -66.3203 L-78.5612 -66.3203 L-78.5612 -57.7578 Z" /><ns0:path style="fill:black; stroke:none;" d="M50.9338 -28.9907 L49.9338 -28.9907 L49.9338 -33.022 L45.4182 -33.022 L45.4182 -28.9907 L44.4182 -28.9907 L44.4182 -37.5532 L45.4182 -37.5532 L45.4182 -33.9126 L49.9338 -33.9126 L49.9338 -37.5532 L50.9338 -37.5532 L50.9338 -28.9907 Z" /><ns0:path style="fill:black; stroke:none;" d="M-119.4452 -44.7108 L-120.4452 -44.7108 L-120.4452 -48.742 L-124.9608 -48.742 L-124.9608 -44.7108 L-125.9608 -44.7108 L-125.9608 -53.2733 L-124.9608 -53.2733 L-124.9608 -49.6326 L-120.4452 -49.6326 L-120.4452 -53.2733 L-119.4452 -53.2733 L-119.4452 -44.7108 Z" /><ns0:path style="fill:black; stroke:none;" d="M90.4978 -34.2017 L89.4978 -34.2017 L89.4978 -38.233 L84.9822 -38.233 L84.9822 -34.2017 L83.9822 -34.2017 L83.9822 -42.7642 L84.9822 -42.7642 L84.9822 -39.1236 L89.4978 -39.1236 L89.4978 -42.7642 L90.4978 -42.7642 L90.4978 -34.2017 Z" /><ns0:path style="fill:black; stroke:none;" d="M-112.7192 45.0373 L-113.7192 45.0373 L-113.7192 41.006 L-118.2348 41.006 L-118.2348 45.0373 L-119.2348 45.0373 L-119.2348 36.4748 L-118.2348 36.4748 L-118.2348 40.1154 L-113.7192 40.1154 L-113.7192 36.4748 L-112.7192 36.4748 L-112.7192 45.0373 Z" /><ns0:path style="fill:black; stroke:none;" d="M113.6578 -120.6377 L112.6578 -120.6377 L112.6578 -124.669 L108.1422 -124.669 L108.1422 -120.6377 L107.1422 -120.6377 L107.1422 -129.2003 L108.1422 -129.2003 L108.1422 -125.5596 L112.6578 -125.5596 L112.6578 -129.2003 L113.6578 -129.2003 L113.6578 -120.6377 Z" /><ns0:path style="fill:black; stroke:none;" d="M136.8388 -21.5177 L135.8388 -21.5177 L135.8388 -25.549 L131.3232 -25.549 L131.3232 -21.5177 L130.3232 -21.5177 L130.3232 -30.0802 L131.3232 -30.0802 L131.3232 -26.4396 L135.8388 -26.4396 L135.8388 -30.0802 L136.8388 -30.0802 L136.8388 -21.5177 Z" /><ns0:path style="fill:black; stroke:none;" d="M-153.6002 58.0843 L-154.6002 58.0843 L-154.6002 54.053 L-159.1158 54.053 L-159.1158 58.0843 L-160.1158 58.0843 L-160.1158 49.5218 L-159.1158 49.5218 L-159.1158 53.1624 L-154.6002 53.1624 L-154.6002 49.5218 L-153.6002 49.5218 L-153.6002 58.0843 Z" /><ns0:path style="fill:black; stroke:none;" d="M-198.5162 -19.7118 L-199.5162 -19.7118 L-199.5162 -23.743 L-204.0318 -23.743 L-204.0318 -19.7118 L-205.0318 -19.7118 L-205.0318 -28.2743 L-204.0318 -28.2743 L-204.0318 -24.6336 L-199.5162 -24.6336 L-199.5162 -28.2743 L-198.5162 -28.2743 L-198.5162 -19.7118 Z" /><ns0:path style="fill:black; stroke:none;" d="M160.1338 -108.4517 L159.1338 -108.4517 L159.1338 -112.483 L154.6182 -112.483 L154.6182 -108.4517 L153.6182 -108.4517 L153.6182 -117.0142 L154.6182 -117.0142 L154.6182 -113.3736 L159.1338 -113.3736 L159.1338 -117.0142 L160.1338 -117.0142 L160.1338 -108.4517 Z" /><ns0:path style="fill:black; stroke:none;" d="M-241.6172 5.0743 L-242.6172 5.0743 L-242.6172 1.043 L-247.1328 1.043 L-247.1328 5.0743 L-248.1328 5.0743 L-248.1328 -3.4882 L-247.1328 -3.4882 L-247.1328 0.1524 L-242.6172 0.1524 L-242.6172 -3.4882 L-241.6172 -3.4882 L-241.6172 5.0743 Z" /><ns0:path style="fill:black; stroke:none;" d="M210.3238 -95.0027 L209.3238 -95.0027 L209.3238 -99.034 L204.8082 -99.034 L204.8082 -95.0027 L203.8082 -95.0027 L203.8082 -103.5652 L204.8082 -103.5652 L204.8082 -99.9246 L209.3238 -99.9246 L209.3238 -103.5652 L210.3238 -103.5652 L210.3238 -95.0027 Z" /><ns0:path style="fill:black; stroke:none;" d="M-241.6172 108.9972 L-242.6172 108.9972 L-242.6172 104.966 L-247.1328 104.966 L-247.1328 108.9972 L-248.1328 108.9972 L-248.1328 100.4347 L-247.1328 100.4347 L-247.1328 104.0754 L-242.6172 104.0754 L-242.6172 100.4347 L-241.6172 100.4347 L-241.6172 108.9972 Z" /><ns0:path style="fill:black; stroke:none;" d="M-286.6172 31.0573 L-287.6172 31.0573 L-287.6172 27.026 L-292.1328 27.026 L-292.1328 31.0573 L-293.1328 31.0573 L-293.1328 22.4948 L-292.1328 22.4948 L-292.1328 26.1354 L-287.6172 26.1354 L-287.6172 22.4948 L-286.6172 22.4948 L-286.6172 31.0573 Z" /></ns0:g></ns0:g></ns0:svg></ns0:svg></ns0:svg></ns0:svg></g></svg>