<svg width="142" viewBox="0 0 142 67" style="fill-opacity:1; color-rendering:auto; color-interpolation:auto; text-rendering:auto; stroke:black; stroke-linecap:square; stroke-miterlimit:10; shape-rendering:auto; stroke-opacity:1; fill:black; stroke-dasharray:none; font-weight:normal; stroke-width:1; font-family:'Open Sans'; font-style:normal; stroke-linejoin:miter; font-size:12; stroke-dashoffset:0; image-rendering:auto;" height="67" class="cas-substance-image" xmlns:xlink="http://www.w3.org/1999/xlink" xmlns="http://www.w3.org/2000/svg"><svg class="cas-substance-single-component"><rect y="0" x="0" width="142" stroke="none" ry="7" rx="7" height="67" fill="white" class="cas-substance-group"/><svg y="0" x="0" width="142" viewBox="0 0 142 67" style="fill:black;" height="67" class="cas-substance-single-component-image"><svg><g><g transform="translate(68,31)" style="text-rendering:geometricPrecision; color-rendering:optimizeQuality; color-interpolation:linearRGB; stroke-linecap:butt; image-rendering:optimizeQuality;"><line y2="-5.3268" y1="-13.8212" x2="-33.2253" x1="-18.513" style="fill:none;"/><line y2="-2.01" y1="-13.8314" x2="12.99" x1="-7.4846" style="fill:none;"/><line y2="12.99" y1="1.3076" x2="-64.953" x1="-44.7167" style="fill:none;"/><line y2="23.97" y1="4.0459" x2="-23.97" x1="-35.4735" style="fill:none;"/><line y2="-27.99" y1="-8.0884" x2="-53.97" x1="-42.4795" style="fill:none;"/><line y2="-17.01" y1="-2.01" x2="38.97" x1="12.99" style="fill:none;"/><line y2="21.5134" y1="-3.0204" x2="11.24" x1="11.24" style="fill:none;"/><line y2="21.5134" y1="-3.0204" x2="14.74" x1="14.74" style="fill:none;"/><line y2="-6.2826" y1="-17.01" x2="57.552" x1="38.97" style="fill:none;"/></g><g transform="translate(68,31)" style="fill:rgb(230,0,0); text-rendering:geometricPrecision; color-rendering:optimizeQuality; image-rendering:optimizeQuality; font-family:'Open Sans'; stroke:rgb(230,0,0); color-interpolation:linearRGB;"><path style="stroke:none;" d="M-9.0525 -17.0803 Q-9.0525 -15.0178 -10.0916 -13.8381 Q-11.1306 -12.6584 -12.9744 -12.6584 Q-14.865 -12.6584 -15.8962 -13.8225 Q-16.9275 -14.9866 -16.9275 -17.0959 Q-16.9275 -19.1897 -15.8962 -20.3381 Q-14.865 -21.4866 -12.9744 -21.4866 Q-11.115 -21.4866 -10.0837 -20.3147 Q-9.0525 -19.1428 -9.0525 -17.0803 ZM-15.8806 -17.0803 Q-15.8806 -15.3459 -15.1384 -14.4397 Q-14.3962 -13.5334 -12.9744 -13.5334 Q-11.5525 -13.5334 -10.8259 -14.4319 Q-10.0994 -15.3303 -10.0994 -17.0803 Q-10.0994 -18.8147 -10.8259 -19.7053 Q-11.5525 -20.5959 -12.9744 -20.5959 Q-14.3962 -20.5959 -15.1384 -19.6975 Q-15.8806 -18.7991 -15.8806 -17.0803 Z"/><path style="fill:black; stroke:none;" d="M-37.6067 -0.01 Q-37.6067 1.115 -38.427 1.7556 Q-39.2473 2.3963 -40.6536 2.3963 Q-42.1848 2.3963 -42.9973 1.99 L-42.9973 1.0369 Q-42.4661 1.2556 -41.8489 1.3884 Q-41.2317 1.5213 -40.6223 1.5213 Q-39.6223 1.5213 -39.1223 1.1384 Q-38.6223 0.7556 -38.6223 0.0838 Q-38.6223 -0.3537 -38.802 -0.6428 Q-38.9817 -0.9319 -39.3958 -1.1741 Q-39.8098 -1.4162 -40.6692 -1.7131 Q-41.8567 -2.135 -42.3723 -2.7209 Q-42.888 -3.3069 -42.888 -4.26 Q-42.888 -5.2444 -42.1458 -5.8303 Q-41.4036 -6.4163 -40.1692 -6.4163 Q-38.9036 -6.4163 -37.8255 -5.9475 L-38.138 -5.0881 Q-39.2005 -5.5256 -40.2005 -5.5256 Q-40.9973 -5.5256 -41.4427 -5.1897 Q-41.888 -4.8538 -41.888 -4.2444 Q-41.888 -3.8069 -41.7239 -3.5178 Q-41.5598 -3.2287 -41.1692 -2.9944 Q-40.7786 -2.76 -39.9661 -2.4631 Q-38.6223 -1.9944 -38.1145 -1.4397 Q-37.6067 -0.885 -37.6067 -0.01 ZM-35.0364 2.2713 L-36.0052 2.2713 L-36.0052 -4.1506 L-35.0364 -4.1506 L-35.0364 2.2713 ZM-36.0833 -5.885 Q-36.0833 -6.2288 -35.9192 -6.385 Q-35.7552 -6.5413 -35.5052 -6.5413 Q-35.2708 -6.5413 -35.1067 -6.3772 Q-34.9427 -6.2131 -34.9427 -5.885 Q-34.9427 -5.5569 -35.1067 -5.4006 Q-35.2708 -5.2444 -35.5052 -5.2444 Q-35.7552 -5.2444 -35.9192 -5.4006 Q-36.0833 -5.5569 -36.0833 -5.885 Z"/></g><g transform="translate(68,31)" style="stroke-linecap:butt; text-rendering:geometricPrecision; color-rendering:optimizeQuality; image-rendering:optimizeQuality; font-family:'Open Sans'; color-interpolation:linearRGB; stroke-miterlimit:5;"><path style="fill:none;" d="M12.557 -2.26 L12.99 -2.01 L13.423 -2.26"/><path style="fill:none;" d="M38.537 -16.76 L38.97 -17.01 L39.403 -16.76"/><path style="fill:rgb(230,0,0); stroke:none;" d="M16.9275 27.9197 Q16.9275 29.9822 15.8884 31.1619 Q14.8494 32.3416 13.0056 32.3416 Q11.115 32.3416 10.0837 31.1775 Q9.0525 30.0134 9.0525 27.9041 Q9.0525 25.8103 10.0837 24.6619 Q11.115 23.5134 13.0056 23.5134 Q14.865 23.5134 15.8962 24.6853 Q16.9275 25.8572 16.9275 27.9197 ZM10.0994 27.9197 Q10.0994 29.6541 10.8416 30.5603 Q11.5837 31.4666 13.0056 31.4666 Q14.4275 31.4666 15.1541 30.5681 Q15.8806 29.6697 15.8806 27.9197 Q15.8806 26.1853 15.1541 25.2947 Q14.4275 24.4041 13.0056 24.4041 Q11.5837 24.4041 10.8416 25.3025 Q10.0994 26.2009 10.0994 27.9197 Z"/><path style="fill:rgb(0,138,0); stroke:none;" d="M59.2841 -6.4163 L61.7059 -6.4163 Q63.4091 -6.4163 64.1747 -5.9084 Q64.9403 -5.4006 64.9403 -4.3069 Q64.9403 -3.5412 64.5184 -3.0412 Q64.0966 -2.5412 63.2684 -2.4006 L63.2684 -2.3381 Q65.2216 -2.01 65.2216 -0.2912 Q65.2216 0.8494 64.4481 1.4978 Q63.6747 2.1463 62.2841 2.1463 L59.2841 2.1463 L59.2841 -6.4163 ZM60.2841 -2.76 L61.9247 -2.76 Q62.9872 -2.76 63.4481 -3.0881 Q63.9091 -3.4162 63.9091 -4.1975 Q63.9091 -4.9163 63.3934 -5.2366 Q62.8778 -5.5569 61.7528 -5.5569 L60.2841 -5.5569 L60.2841 -2.76 ZM60.2841 -1.9162 L60.2841 1.3025 L62.0809 1.3025 Q63.1122 1.3025 63.6356 0.8963 Q64.1591 0.49 64.1591 -0.3694 Q64.1591 -1.1662 63.62 -1.5412 Q63.0809 -1.9162 61.9872 -1.9162 L60.2841 -1.9162 ZM69.8563 -4.4006 Q70.2782 -4.4006 70.6219 -4.3225 L70.4813 -3.4162 Q70.0907 -3.51 69.7782 -3.51 Q68.9969 -3.51 68.4423 -2.8772 Q67.8876 -2.2444 67.8876 -1.3069 L67.8876 2.1463 L66.9188 2.1463 L66.9188 -4.2756 L67.7157 -4.2756 L67.8407 -3.0881 L67.8876 -3.0881 Q68.2313 -3.7131 68.7391 -4.0569 Q69.2469 -4.4006 69.8563 -4.4006 Z"/></g></g></svg></svg></svg></svg>