<svg xmlns:ns0="http://www.w3.org/2000/svg" xmlns="http://www.w3.org/2000/svg"><g transform="translate(0, 0)"><ns0:svg width="374" viewBox="0 0 374 191" style="fill-opacity:1; color-rendering:auto; color-interpolation:auto; text-rendering:auto; stroke:black; stroke-linecap:square; stroke-miterlimit:10; shape-rendering:auto; stroke-opacity:1; fill:black; stroke-dasharray:none; font-weight:normal; stroke-width:1; font-family:'Open Sans'; font-style:normal; stroke-linejoin:miter; font-size:12; stroke-dashoffset:0; image-rendering:auto;" height="191" class="cas-substance-image"><ns0:svg class="cas-substance-single-component"><ns0:rect y="0" x="0" width="374" stroke="none" ry="7" rx="7" height="191" fill="white" class="cas-substance-group" /><ns0:svg y="0" x="0" width="374" viewBox="0 0 374 191" style="fill:black;" height="191" class="cas-substance-single-component-image"><ns0:svg><ns0:g><ns0:g transform="translate(185,93)" style="text-rendering:geometricPrecision; color-rendering:optimizeQuality; color-interpolation:linearRGB; stroke-linecap:butt; image-rendering:optimizeQuality;"><ns0:line y2="-30" y1="-42.0649" x2="-103.923" x1="-83.0266" style="fill:none;" /><ns0:line y2="-75" y1="-51.4062" x2="-77.943" x1="-77.943" style="fill:none;" /><ns0:line y2="-30" y1="-42.0649" x2="-51.963" x1="-72.8594" style="fill:none;" /><ns0:line y2="-45" y1="-30" x2="-129.903" x1="-103.923" style="fill:none;" /><ns0:line y2="-90" y1="-75" x2="-103.923" x1="-77.943" style="fill:none;" /><ns0:line y2="-35.5062" y1="-45" x2="-146.3482" x1="-129.903" style="fill:none;" /><ns0:line y2="-15" y1="-27.0649" x2="-181.866" x1="-160.9696" style="fill:none;" /><ns0:line y2="-4.02" y1="-24.1117" x2="-140.886" x1="-152.4863" style="fill:none;" /><ns0:line y2="-55.98" y1="-36.1383" x2="-170.886" x1="-159.4301" style="fill:none;" /><ns0:line y2="4.4504" y1="13.5808" x2="47.7543" x1="31.9386" style="fill:none;" /><ns0:line y2="1.4192" y1="10.5496" x2="46.0044" x1="30.1887" style="fill:none;" /><ns0:line y2="0" y1="12.0649" x2="0" x1="20.8964" style="fill:none;" /><ns0:line y2="15" y1="2.9351" x2="77.943" x1="57.0466" style="fill:none;" /><ns0:line y2="0" y1="-23.4375" x2="103.923" x1="103.923" style="fill:none;" /><ns0:line y2="83.5234" y1="66.1562" x2="154.136" x1="154.136" style="fill:none;" /><ns0:line y2="83.5234" y1="66.1562" x2="157.636" x1="157.636" style="fill:none;" /><ns0:line y2="49.7044" y1="58.5804" x2="177.218" x1="161.8446" style="fill:none;" /><ns0:line y2="46.6733" y1="55.5494" x2="175.4679" x1="160.0946" style="fill:none;" /><ns0:line y2="45" y1="57.0652" x2="129.903" x1="150.8024" style="fill:none;" /><ns0:line y2="-45" y1="-30" x2="-25.98" x1="-51.963" style="fill:none;" /><ns0:line y2="-40.9585" y1="-27.9791" x2="-25.9802" x1="-48.4631" style="fill:none;" /><ns0:line y2="0" y1="-30" x2="-51.963" x1="-51.963" style="fill:none;" /><ns0:line y2="-30" y1="-45" x2="0" x1="-25.98" style="fill:none;" /><ns0:line y2="15" y1="0" x2="-25.98" x1="-51.963" style="fill:none;" /><ns0:line y2="10.9585" y1="-2.0209" x2="-25.9802" x1="-48.4631" style="fill:none;" /><ns0:line y2="0" y1="-30" x2="0" x1="0" style="fill:none;" /><ns0:line y2="-2.0207" y1="-27.9793" x2="-3.5" x1="-3.5" style="fill:none;" /><ns0:line y2="0" y1="15" x2="0" x1="-25.98" style="fill:none;" /><ns0:line y2="0" y1="15" x2="103.923" x1="77.943" style="fill:none;" /><ns0:line y2="4.0415" y1="17.0207" x2="103.923" x1="81.443" style="fill:none;" /><ns0:line y2="45" y1="15" x2="77.943" x1="77.943" style="fill:none;" /><ns0:line y2="15" y1="0" x2="129.903" x1="103.923" style="fill:none;" /><ns0:line y2="60" y1="45" x2="103.923" x1="77.943" style="fill:none;" /><ns0:line y2="55.9585" y1="42.9793" x2="103.923" x1="81.443" style="fill:none;" /><ns0:line y2="45" y1="15" x2="129.903" x1="129.903" style="fill:none;" /><ns0:line y2="42.9793" y1="17.0207" x2="126.403" x1="126.403" style="fill:none;" /><ns0:line y2="45" y1="60" x2="129.903" x1="103.923" style="fill:none;" /></ns0:g><ns0:g transform="translate(185,93)" style="fill:rgb(0,5,255); text-rendering:geometricPrecision; color-rendering:optimizeQuality; image-rendering:optimizeQuality; font-family:'Open Sans'; stroke:rgb(0,5,255); color-interpolation:linearRGB;"><ns0:path style="stroke:none;" d="M-74.5914 -40.8438 L-75.7321 -40.8438 L-80.4196 -48.0312 L-80.4664 -48.0312 Q-80.3727 -46.7656 -80.3727 -45.7188 L-80.3727 -40.8438 L-81.2946 -40.8438 L-81.2946 -49.4062 L-80.1696 -49.4062 L-75.4977 -42.25 L-75.4508 -42.25 Q-75.4508 -42.4062 -75.4977 -43.2656 Q-75.5446 -44.125 -75.5289 -44.5 L-75.5289 -49.4062 L-74.5914 -49.4062 L-74.5914 -40.8438 Z" /></ns0:g><ns0:g transform="translate(185,93)" style="stroke-linecap:butt; text-rendering:geometricPrecision; color-rendering:optimizeQuality; image-rendering:optimizeQuality; font-family:'Open Sans'; color-interpolation:linearRGB; stroke-miterlimit:5;"><ns0:path style="fill:none;" d="M-103.49 -30.25 L-103.923 -30 L-104.356 -30.25" /><ns0:path style="fill:none;" d="M-77.943 -74.5 L-77.943 -75 L-78.376 -75.25" /><ns0:path style="fill:none;" d="M-129.47 -44.75 L-129.903 -45 L-130.336 -44.75" /><ns0:path style="fill:rgb(0,5,255); stroke:none;" d="M-152.5344 -25.8438 L-153.6751 -25.8438 L-158.3626 -33.0312 L-158.4094 -33.0312 Q-158.3157 -31.7656 -158.3157 -30.7188 L-158.3157 -25.8438 L-159.2376 -25.8438 L-159.2376 -34.4062 L-158.1126 -34.4062 L-153.4407 -27.25 L-153.3938 -27.25 Q-153.3938 -27.4062 -153.4407 -28.2656 Q-153.4876 -29.125 -153.4719 -29.5 L-153.4719 -34.4062 L-152.5344 -34.4062 L-152.5344 -25.8438 Z" /><ns0:path style="stroke:none;" d="M-149.3938 -32.8344 L-147.7844 -32.8344 L-147.7844 -32.2875 L-149.3938 -32.2875 L-149.3938 -30.6312 L-149.9251 -30.6312 L-149.9251 -32.2875 L-151.5344 -32.2875 L-151.5344 -32.8344 L-149.9251 -32.8344 L-149.9251 -34.5062 L-149.3938 -34.5062 L-149.3938 -32.8344 Z" /><ns0:path style="fill:rgb(0,5,255); stroke:none;" d="M29.3316 19.1562 L28.1909 19.1562 L23.5034 11.9688 L23.4566 11.9688 Q23.5503 13.2344 23.5503 14.2812 L23.5503 19.1562 L22.6284 19.1562 L22.6284 10.5938 L23.7534 10.5938 L28.4253 17.75 L28.4722 17.75 Q28.4722 17.5938 28.4253 16.7344 Q28.3784 15.875 28.3941 15.5 L28.3941 10.5938 L29.3316 10.5938 L29.3316 19.1562 Z" /><ns0:path style="fill:rgb(0,5,255); stroke:none;" d="M55.3146 4.1562 L54.1739 4.1562 L49.4864 -3.0312 L49.4396 -3.0312 Q49.5333 -1.7656 49.5333 -0.7188 L49.5333 4.1562 L48.6114 4.1562 L48.6114 -4.4062 L49.7364 -4.4062 L54.4083 2.75 L54.4552 2.75 Q54.4552 2.5938 54.4083 1.7344 Q54.3614 0.875 54.3771 0.5 L54.3771 -4.4062 L55.3146 -4.4062 L55.3146 4.1562 Z" /><ns0:path style="fill:rgb(0,138,0); stroke:none;" d="M103.6144 -33.3594 Q102.2082 -33.3594 101.3878 -32.4219 Q100.5675 -31.4844 100.5675 -29.8438 Q100.5675 -28.1719 101.3566 -27.25 Q102.1457 -26.3281 103.5988 -26.3281 Q104.505 -26.3281 105.6457 -26.6562 L105.6457 -25.7812 Q104.755 -25.4375 103.4582 -25.4375 Q101.5675 -25.4375 100.5363 -26.5938 Q99.505 -27.75 99.505 -29.8594 Q99.505 -31.1875 99.9972 -32.1797 Q100.4894 -33.1719 101.4269 -33.7109 Q102.3644 -34.25 103.63 -34.25 Q104.9738 -34.25 105.9894 -33.7656 L105.5675 -32.9062 Q104.5832 -33.3594 103.6144 -33.3594 ZM108.341 -25.5625 L107.3722 -25.5625 L107.3722 -34.6875 L108.341 -34.6875 L108.341 -25.5625 Z" /><ns0:path style="fill:rgb(0,5,255); stroke:none;" d="M159.2376 64.1562 L158.0969 64.1562 L153.4094 56.9688 L153.3626 56.9688 Q153.4563 58.2344 153.4563 59.2812 L153.4563 64.1562 L152.5344 64.1562 L152.5344 55.5938 L153.6594 55.5938 L158.3313 62.75 L158.3782 62.75 Q158.3782 62.5938 158.3313 61.7344 Q158.2844 60.875 158.3001 60.5 L158.3001 55.5938 L159.2376 55.5938 L159.2376 64.1562 Z" /><ns0:path style="fill:rgb(230,0,0); stroke:none;" d="M159.8235 89.9297 Q159.8235 91.9922 158.7844 93.1719 Q157.7454 94.3516 155.9016 94.3516 Q154.011 94.3516 152.9798 93.1875 Q151.9485 92.0234 151.9485 89.9141 Q151.9485 87.8203 152.9798 86.6719 Q154.011 85.5234 155.9016 85.5234 Q157.761 85.5234 158.7923 86.6953 Q159.8235 87.8672 159.8235 89.9297 ZM152.9954 89.9297 Q152.9954 91.6641 153.7376 92.5703 Q154.4798 93.4766 155.9016 93.4766 Q157.3235 93.4766 158.0501 92.5781 Q158.7766 91.6797 158.7766 89.9297 Q158.7766 88.1953 158.0501 87.3047 Q157.3235 86.4141 155.9016 86.4141 Q154.4798 86.4141 153.7376 87.3125 Q152.9954 88.2109 152.9954 89.9297 Z" /><ns0:path style="fill:rgb(230,0,0); stroke:none;" d="M185.8035 44.9297 Q185.8035 46.9922 184.7644 48.1719 Q183.7254 49.3516 181.8816 49.3516 Q179.991 49.3516 178.9597 48.1875 Q177.9285 47.0234 177.9285 44.9141 Q177.9285 42.8203 178.9597 41.6719 Q179.991 40.5234 181.8816 40.5234 Q183.741 40.5234 184.7722 41.6953 Q185.8035 42.8672 185.8035 44.9297 ZM178.9754 44.9297 Q178.9754 46.6641 179.7176 47.5703 Q180.4597 48.4766 181.8816 48.4766 Q183.3035 48.4766 184.0301 47.5781 Q184.7566 46.6797 184.7566 44.9297 Q184.7566 43.1953 184.0301 42.3047 Q183.3035 41.4141 181.8816 41.4141 Q180.4597 41.4141 179.7176 42.3125 Q178.9754 43.2109 178.9754 44.9297 Z" /><ns0:path style="fill:none;" d="M-51.53 -30.25 L-51.963 -30 L-51.963 -29.5" /><ns0:path style="fill:none;" d="M-26.413 -44.75 L-25.98 -45 L-25.547 -44.75" /><ns0:path style="fill:none;" d="M-51.963 -0.5 L-51.963 0 L-51.53 0.25" /><ns0:path style="fill:none;" d="M-0.433 -30.25 L0 -30 L-0 -29.5" /><ns0:path style="fill:none;" d="M-26.413 14.75 L-25.98 15 L-25.547 14.75" /><ns0:path style="fill:none;" d="M0 -0.5 L0 0 L0.433 0.25" /><ns0:path style="fill:none;" d="M78.376 14.75 L77.943 15 L77.943 15.5" /><ns0:path style="fill:none;" d="M103.49 0.25 L103.923 0 L103.923 -0.5" /><ns0:path style="fill:none;" d="M77.943 44.5 L77.943 45 L78.376 45.25" /><ns0:path style="fill:none;" d="M129.47 14.75 L129.903 15 L129.903 15.5" /><ns0:path style="fill:none;" d="M103.49 59.75 L103.923 60 L104.356 59.75" /><ns0:path style="fill:none;" d="M129.903 44.5 L129.903 45 L130.336 45.25" /></ns0:g></ns0:g></ns0:svg></ns0:svg></ns0:svg></ns0:svg></g></svg>