<svg width="503" viewBox="0 0 503 276" style="fill-opacity:1; color-rendering:auto; color-interpolation:auto; text-rendering:auto; stroke:black; stroke-linecap:square; stroke-miterlimit:10; shape-rendering:auto; stroke-opacity:1; fill:black; stroke-dasharray:none; font-weight:normal; stroke-width:1; font-family:'Open Sans'; font-style:normal; stroke-linejoin:miter; font-size:12; stroke-dashoffset:0; image-rendering:auto;" height="276" class="cas-substance-image" xmlns:xlink="http://www.w3.org/1999/xlink" xmlns="http://www.w3.org/2000/svg"><svg class="cas-substance-single-component"><rect y="0" x="0" width="503" stroke="none" ry="7" rx="7" height="276" fill="white" class="cas-substance-group"/><svg y="0" x="0" width="503" viewBox="0 0 503 276" style="fill:black;" height="276" class="cas-substance-single-component-image"><svg><g><g transform="translate(251,137)" style="text-rendering:geometricPrecision; color-rendering:optimizeQuality; color-interpolation:linearRGB; stroke-linecap:butt; image-rendering:optimizeQuality;"><line y2="-77.943" y1="-98.275" x2="-82.986" x1="-71.247" style="fill:none;"/><path style="stroke:none;" d="M-68.8319 0.3162 L-69.4247 1.129 L-68.2442 1.8098 L-67.8366 0.8901 L-68.8319 0.3162 ZM-70.6102 2.7548 L-71.203 3.5676 L-69.4669 4.5688 L-69.0593 3.6491 L-70.6102 2.7548 ZM-72.3885 5.1934 L-72.9813 6.0063 L-70.6895 7.3279 L-70.282 6.4082 L-72.3885 5.1934 ZM-74.1669 7.632 L-74.7596 8.4449 L-71.9122 10.0869 L-71.5047 9.1672 L-74.1669 7.632 ZM-75.9452 10.0706 L-76.538 10.8835 L-73.1349 12.846 L-72.7273 11.9263 L-75.9452 10.0706 ZM-77.7235 12.5093 L-78.3163 13.3221 L-74.3576 15.605 L-74.3576 15.605 L-73.95 14.6853 L-77.7235 12.5093 ZM-79.5019 14.9479 L-80.0946 15.7607 L-80.0946 15.7607 L-75.5802 18.364 L-75.1727 17.4444 L-75.1727 17.4444 L-79.5019 14.9479 ZM-81.2802 17.3865 L-81.873 18.1994 L-76.8029 21.1231 L-76.8029 21.1231 L-76.3954 20.2034 L-81.2802 17.3865 Z"/><path style="stroke:none;" d="M-76.8315 30.7984 L-81.8926 33.717 L-81.8926 33.717 L-81.3003 34.5301 L-76.4236 31.7178 L-76.4236 31.7178 L-76.8315 30.7984 ZM-75.6078 33.5567 L-80.1157 36.1563 L-80.1157 36.1563 L-79.5234 36.9694 L-75.1999 34.4762 L-75.1999 34.4762 L-75.6078 33.5567 ZM-74.3841 36.3151 L-78.3387 38.5956 L-78.3387 38.5956 L-77.7464 39.4087 L-73.9762 37.2345 L-74.3841 36.3151 ZM-73.1604 39.0734 L-76.5618 41.0349 L-76.5618 41.0349 L-75.9695 41.848 L-72.7525 39.9929 L-73.1604 39.0734 ZM-71.9367 41.8318 L-74.7848 43.4742 L-74.1925 44.2873 L-71.5288 42.7512 L-71.9367 41.8318 ZM-70.713 44.5901 L-73.0079 45.9136 L-73.0079 45.9136 L-72.4156 46.7267 L-72.4156 46.7267 L-70.3051 45.5096 L-70.713 44.5901 ZM-69.4893 47.3485 L-71.2309 48.3529 L-71.2309 48.3529 L-70.6386 49.166 L-70.6386 49.166 L-69.0813 48.2679 L-69.0813 48.2679 L-69.4893 47.3485 ZM-68.2655 50.1068 L-69.454 50.7922 L-68.8617 51.6053 L-67.8576 51.0263 L-67.8576 51.0263 L-68.2655 50.1068 Z"/><line y2="-25.98" y1="-5.7217" x2="-112.986" x1="-124.6825" style="fill:none;"/><line y2="-15.0547" y1="-6.696" x2="22.9541" x1="-0.006" style="fill:none;"/><line y2="-11.7658" y1="-4.0984" x2="24.1514" x1="3.0901" style="fill:none;"/></g><g transform="translate(251,137)" style="stroke-linecap:butt; font-size:8.4px; fill:gray; text-rendering:geometricPrecision; image-rendering:optimizeQuality; color-rendering:optimizeQuality; font-family:'Open Sans'; font-style:italic; stroke:gray; color-interpolation:linearRGB;"><path style="stroke:none;" d="M13.363 -1.2668 Q13.363 -2.5949 13.8318 -3.7199 Q14.3005 -4.8449 15.3318 -5.923 L15.9411 -5.923 Q14.9724 -4.8605 14.488 -3.6886 Q14.0036 -2.5168 14.0036 -1.2824 Q14.0036 0.0457 14.4411 1.0614 L13.9255 1.0614 Q13.363 0.0301 13.363 -1.2668 ZM18.6262 -0.2043 L15.7668 -0.2043 L16.9699 -5.923 L19.8449 -5.923 L19.7199 -5.3136 L17.5012 -5.3136 L17.1262 -3.4855 L19.1731 -3.4855 L19.0637 -2.8918 L17.0012 -2.8918 L16.5481 -0.798 L18.7668 -0.798 L18.6262 -0.2043 ZM21.6578 -3.5793 Q21.6578 -2.2511 21.1812 -1.1183 Q20.7046 0.0145 19.689 1.0614 L19.0796 1.0614 Q21.0171 -1.0949 21.0171 -3.5793 Q21.0171 -4.9074 20.5796 -5.923 L21.0953 -5.923 Q21.6578 -4.8605 21.6578 -3.5793 Z"/><line y2="22.848" y1="-6.696" x2="-5.214" x1="-0.006" style="fill:none; stroke:black;"/><path style="fill:black; stroke:none;" d="M-23.3074 -25.597 L-22.6646 -26.363 L3.2489 -7.881 L-0.006 -6.696 L-0.6074 -3.2843 Z"/><line y2="-1.7727" y1="-12.8613" x2="46.2843" x1="33.0687" style="fill:none; stroke:black;"/><line y2="38.0254" y1="22.848" x2="12.8723" x1="-5.214" style="fill:none; stroke:black;"/><line y2="-7.935" y1="0.4212" x2="79.359" x1="56.399" style="fill:none; stroke:black;"/><line y2="11.349" y1="-7.935" x2="102.339" x1="79.359" style="fill:none; stroke:black;"/><line y2="-30.854" y1="-6.636" x2="85.1761" x1="80.907" style="fill:none; stroke:black;"/><line y2="-31.4616" y1="-7.2439" x2="81.7293" x1="77.4602" style="fill:none; stroke:black;"/><line y2="40.893" y1="11.349" x2="97.131" x1="102.339" style="fill:none; stroke:black;"/><line y2="60.177" y1="40.893" x2="120.111" x1="97.131" style="fill:none; stroke:black;"/><line y2="49.917" y1="60.177" x2="148.302" x1="120.111" style="fill:none; stroke:black;"/><line y2="69.201" y1="49.917" x2="171.285" x1="148.302" style="fill:none; stroke:black;"/><line y2="60.8425" y1="69.201" x2="194.2421" x1="171.285" style="fill:none; stroke:black;"/><path style="fill:black; stroke:none;" d="M-7.3465 -42.9035 L-8.0448 -42.1798 L-8.0448 -42.1798 L-4.4397 -37.8819 L-4.4397 -37.8819 L-3.6058 -38.444 L-3.6058 -38.444 L-7.3465 -42.9035 ZM-9.4416 -40.7323 L-10.14 -40.0086 L-6.9415 -36.1955 L-6.9415 -36.1955 L-6.1076 -36.7576 L-6.1076 -36.7576 L-9.4416 -40.7323 ZM-11.5367 -38.5611 L-12.2351 -37.8374 L-12.2351 -37.8374 L-9.4433 -34.5091 L-9.4433 -34.5091 L-8.6094 -35.0712 L-8.6094 -35.0712 L-11.5367 -38.5611 ZM-13.6318 -36.3899 L-14.3302 -35.6662 L-14.3302 -35.6662 L-11.9451 -32.8227 L-11.9451 -32.8227 L-11.1111 -33.3848 L-11.1111 -33.3848 L-13.6318 -36.3899 ZM-15.727 -34.2187 L-16.4253 -33.495 L-16.4253 -33.495 L-14.4469 -31.1363 L-14.4469 -31.1363 L-13.6129 -31.6984 L-13.6129 -31.6984 L-15.727 -34.2187 ZM-17.8221 -32.0475 L-18.5205 -31.3238 L-18.5205 -31.3238 L-16.9487 -29.4499 L-16.1147 -30.0121 L-16.1147 -30.0121 L-17.8221 -32.0475 ZM-19.9172 -29.8763 L-20.6156 -29.1526 L-20.6156 -29.1526 L-19.4505 -27.7635 L-18.6165 -28.3257 L-18.6165 -28.3257 L-19.9172 -29.8763 ZM-22.0123 -27.7051 L-22.7107 -26.9814 L-21.9522 -26.0772 L-21.9522 -26.0772 L-21.1183 -26.6393 L-22.0123 -27.7051 Z"/><line y2="-103.923" y1="-125.1301" x2="-130.0067" x1="-117.7625" style="fill:none; stroke:black;"/><line y2="-102.173" y1="-123.38" x2="-126.9756" x1="-114.7314" style="fill:none; stroke:black;"/><line y2="-51.963" y1="-30.827" x2="-155.9653" x1="-168.1672" style="fill:none; stroke:black;"/><line y2="-53.713" y1="-32.5769" x2="-158.9964" x1="-171.1983" style="fill:none; stroke:black;"/><path style="fill:black; stroke:none;" d="M-68.419 103.673 L-67.553 104.173 L-76.8439 125.2647 L-82.04 122.2647 Z"/><path style="fill:black; stroke:none;" d="M-22.986 78.443 L-22.986 77.443 L7.014 74.943 L7.014 80.943 Z"/><line y2="-51.963" y1="-51.963" x2="-247.986" x1="-223.9235" style="fill:none; stroke:black;"/><line y2="-77.943" y1="-57.6847" x2="-202.986" x1="-214.6825" style="fill:none; stroke:black;"/><path style="fill:black; stroke:none;" d="M-38.419 104.173 L-37.553 103.673 L-23.6949 122.6754 L-28.891 125.6754 Z"/><line y2="32.1811" y1="12.5401" x2="207.1477" x1="191.8012" style="fill:none; stroke:black;"/><line y2="30.0265" y1="10.3851" x2="209.9059" x1="194.5592" style="fill:none; stroke:black;"/><line y2="74.3824" y1="99.1596" x2="226.0506" x1="226.9158" style="fill:none; stroke:black;"/><line y2="74.5045" y1="99.2817" x2="222.5527" x1="223.4179" style="fill:none; stroke:black;"/><line y2="-25.98" y1="-51.963" x2="-82.986" x1="-67.986" style="fill:none; stroke:black;"/><line y2="-29.4799" y1="-51.9628" x2="-85.0069" x1="-72.0275" style="fill:none; stroke:black;"/><line y2="-77.943" y1="-51.963" x2="-82.986" x1="-67.986" style="fill:none; stroke:black;"/><line y2="-51.963" y1="-51.963" x2="-37.986" x1="-67.986" style="fill:none; stroke:black;"/><line y2="0" y1="-25.98" x2="-67.986" x1="-82.986" style="fill:none; stroke:black;"/><line y2="-25.98" y1="-25.98" x2="-112.986" x1="-82.986" style="fill:none; stroke:black;"/><line y2="-77.943" y1="-77.943" x2="-112.986" x1="-82.986" style="fill:none; stroke:black;"/><line y2="-74.443" y1="-74.443" x2="-110.9653" x1="-85.0067" style="fill:none; stroke:black;"/><line y2="-25.98" y1="-51.963" x2="-22.986" x1="-37.986" style="fill:none; stroke:black;"/><line y2="0" y1="0" x2="-37.986" x1="-67.986" style="fill:none; stroke:black;"/><line y2="-51.963" y1="-25.98" x2="-127.986" x1="-112.986" style="fill:none; stroke:black;"/><line y2="-51.9628" y1="-29.4799" x2="-123.9445" x1="-110.9651" style="fill:none; stroke:black;"/><line y2="-51.963" y1="-77.943" x2="-127.986" x1="-112.986" style="fill:none; stroke:black;"/><line y2="-103.923" y1="-77.943" x2="-127.986" x1="-112.986" style="fill:none; stroke:black;"/><line y2="0" y1="-25.98" x2="-37.986" x1="-22.986" style="fill:none; stroke:black;"/><line y2="-51.963" y1="-51.963" x2="-157.986" x1="-127.986" style="fill:none; stroke:black;"/><line y2="-103.923" y1="-103.923" x2="-157.986" x1="-127.986" style="fill:none; stroke:black;"/><line y2="-77.943" y1="-51.963" x2="-172.986" x1="-157.986" style="fill:none; stroke:black;"/><line y2="-77.943" y1="-103.923" x2="-172.986" x1="-157.986" style="fill:none; stroke:black;"/><line y2="-129.903" y1="-103.923" x2="-172.986" x1="-157.986" style="fill:none; stroke:black;"/><line y2="-126.403" y1="-103.9229" x2="-175.0067" x1="-162.0275" style="fill:none; stroke:black;"/><line y2="-77.943" y1="-77.943" x2="-202.986" x1="-172.986" style="fill:none; stroke:black;"/><line y2="-81.443" y1="-81.443" x2="-200.9653" x1="-175.0067" style="fill:none; stroke:black;"/><line y2="-129.903" y1="-129.903" x2="-202.986" x1="-172.986" style="fill:none; stroke:black;"/><line y2="-103.923" y1="-77.943" x2="-217.986" x1="-202.986" style="fill:none; stroke:black;"/><line y2="-103.923" y1="-129.903" x2="-217.986" x1="-202.986" style="fill:none; stroke:black;"/><line y2="-103.9229" y1="-126.403" x2="-213.9445" x1="-200.9653" style="fill:none; stroke:black;"/><line y2="77.943" y1="51.963" x2="-82.986" x1="-67.986" style="fill:none; stroke:black;"/><line y2="51.963" y1="51.963" x2="-43.9235" x1="-67.986" style="fill:none; stroke:black;"/><line y2="103.923" y1="77.943" x2="-67.986" x1="-82.986" style="fill:none; stroke:black;"/><line y2="77.943" y1="57.5987" x2="-22.986" x1="-34.7321" style="fill:none; stroke:black;"/><line y2="103.923" y1="103.923" x2="-37.986" x1="-67.986" style="fill:none; stroke:black;"/><line y2="103.923" y1="77.943" x2="-37.986" x1="-22.986" style="fill:none; stroke:black;"/><line y2="30.102" y1="52.6093" x2="207.744" x1="201.2883" style="fill:none; stroke:black;"/><line y2="75.714" y1="62.3169" x2="224.346" x1="204.4827" style="fill:none; stroke:black;"/><line y2="29.055" y1="30.102" x2="237.726" x1="207.744" style="fill:none; stroke:black;"/><line y2="57.246" y1="75.714" x2="247.986" x1="224.346" style="fill:none; stroke:black;"/><line y2="57.246" y1="29.055" x2="247.986" x1="237.726" style="fill:none; stroke:black;"/><line y2="56.5441" y1="32.1509" x2="244.006" x1="235.1281" style="fill:none; stroke:black;"/></g><g transform="translate(251,137)" style="fill:rgb(230,0,0); text-rendering:geometricPrecision; color-rendering:optimizeQuality; image-rendering:optimizeQuality; font-family:'Open Sans'; stroke:rgb(230,0,0); color-interpolation:linearRGB;"><path style="stroke:none;" d="M-64.0485 -103.9933 Q-64.0485 -101.9308 -65.0876 -100.7511 Q-66.1266 -99.5714 -67.9704 -99.5714 Q-69.861 -99.5714 -70.8923 -100.7355 Q-71.9235 -101.8996 -71.9235 -104.0089 Q-71.9235 -106.1027 -70.8923 -107.2511 Q-69.861 -108.3996 -67.9704 -108.3996 Q-66.111 -108.3996 -65.0798 -107.2277 Q-64.0485 -106.0558 -64.0485 -103.9933 ZM-70.8766 -103.9933 Q-70.8766 -102.2589 -70.1344 -101.3527 Q-69.3923 -100.4464 -67.9704 -100.4464 Q-66.5485 -100.4464 -65.8219 -101.3449 Q-65.0954 -102.2433 -65.0954 -103.9933 Q-65.0954 -105.7277 -65.8219 -106.6183 Q-66.5485 -107.5089 -67.9704 -107.5089 Q-69.3923 -107.5089 -70.1344 -106.6105 Q-70.8766 -105.7121 -70.8766 -103.9933 Z"/><path style="stroke:none;" d="M-56.5329 -99.6964 L-57.5329 -99.6964 L-57.5329 -103.7277 L-62.0485 -103.7277 L-62.0485 -99.6964 L-63.0485 -99.6964 L-63.0485 -108.2589 L-62.0485 -108.2589 L-62.0485 -104.6183 L-57.5329 -104.6183 L-57.5329 -108.2589 L-56.5329 -108.2589 L-56.5329 -99.6964 Z"/><path style="stroke:none;" d="M-79.0485 25.9097 Q-79.0485 27.9722 -80.0876 29.1519 Q-81.1266 30.3316 -82.9704 30.3316 Q-84.861 30.3316 -85.8923 29.1675 Q-86.9235 28.0034 -86.9235 25.8941 Q-86.9235 23.8003 -85.8923 22.6519 Q-84.861 21.5034 -82.9704 21.5034 Q-81.111 21.5034 -80.0798 22.6753 Q-79.0485 23.8472 -79.0485 25.9097 ZM-85.8766 25.9097 Q-85.8766 27.6441 -85.1344 28.5503 Q-84.3923 29.4566 -82.9704 29.4566 Q-81.5485 29.4566 -80.8219 28.5581 Q-80.0954 27.6597 -80.0954 25.9097 Q-80.0954 24.1753 -80.8219 23.2847 Q-81.5485 22.3941 -82.9704 22.3941 Q-84.3923 22.3941 -85.1344 23.2925 Q-85.8766 24.1909 -85.8766 25.9097 Z"/><path style="stroke:none;" d="M-124.0485 -0.0703 Q-124.0485 1.9922 -125.0876 3.1719 Q-126.1266 4.3516 -127.9704 4.3516 Q-129.861 4.3516 -130.8922 3.1875 Q-131.9235 2.0234 -131.9235 -0.0859 Q-131.9235 -2.1797 -130.8922 -3.3281 Q-129.861 -4.4766 -127.9704 -4.4766 Q-126.111 -4.4766 -125.0797 -3.3047 Q-124.0485 -2.1328 -124.0485 -0.0703 ZM-130.8766 -0.0703 Q-130.8766 1.6641 -130.1344 2.5703 Q-129.3922 3.4766 -127.9704 3.4766 Q-126.5485 3.4766 -125.8219 2.5781 Q-125.0954 1.6797 -125.0954 -0.0703 Q-125.0954 -1.8047 -125.8219 -2.6953 Q-126.5485 -3.5859 -127.9704 -3.5859 Q-129.3922 -3.5859 -130.1344 -2.6875 Q-130.8766 -1.7891 -130.8766 -0.0703 Z"/><path style="stroke:none;" d="M-132.9235 4.2266 L-133.9235 4.2266 L-133.9235 0.1953 L-138.4391 0.1953 L-138.4391 4.2266 L-139.4391 4.2266 L-139.4391 -4.3359 L-138.4391 -4.3359 L-138.4391 -0.6953 L-133.9235 -0.6953 L-133.9235 -4.3359 L-132.9235 -4.3359 L-132.9235 4.2266 Z"/><path style="fill:rgb(0,5,255); stroke:none;" d="M31.5366 -12.8027 L30.3959 -12.8027 L25.7084 -19.9902 L25.6616 -19.9902 Q25.7553 -18.7246 25.7553 -17.6777 L25.7553 -12.8027 L24.8334 -12.8027 L24.8334 -21.3652 L25.9584 -21.3652 L30.6303 -14.209 L30.6772 -14.209 Q30.6772 -14.3652 30.6303 -15.2246 Q30.5834 -16.084 30.5991 -16.459 L30.5991 -21.3652 L31.5366 -21.3652 L31.5366 -12.8027 Z"/></g><g transform="translate(251,137)" style="stroke-linecap:butt; text-rendering:geometricPrecision; color-rendering:optimizeQuality; image-rendering:optimizeQuality; font-family:'Open Sans'; color-interpolation:linearRGB; stroke-miterlimit:5;"><path style="fill:none;" d="M-5.1272 22.3556 L-5.214 22.848 L-4.831 23.1694"/><path style="fill:rgb(0,5,255); stroke:none;" d="M54.5196 6.4812 L53.3789 6.4812 L48.6914 -0.7063 L48.6446 -0.7063 Q48.7383 0.5594 48.7383 1.6062 L48.7383 6.4812 L47.8164 6.4812 L47.8164 -2.0813 L48.9414 -2.0813 L53.6133 5.075 L53.6602 5.075 Q53.6602 4.9187 53.6133 4.0594 Q53.5664 3.2 53.5821 2.825 L53.5821 -2.0813 L54.5196 -2.0813 L54.5196 6.4812 Z"/><path style="fill:rgb(0,5,255); stroke:none;" d="M54.4258 16.0438 L53.4258 16.0438 L53.4258 12.0125 L48.9102 12.0125 L48.9102 16.0438 L47.9102 16.0438 L47.9102 7.4813 L48.9102 7.4813 L48.9102 11.1219 L53.4258 11.1219 L53.4258 7.4813 L54.4258 7.4813 L54.4258 16.0438 Z"/><path style="fill:rgb(230,0,0); stroke:none;" d="M21.7035 42.0617 Q21.7035 44.1242 20.6644 45.3039 Q19.6254 46.4836 17.7816 46.4836 Q15.891 46.4836 14.8597 45.3195 Q13.8285 44.1554 13.8285 42.0461 Q13.8285 39.9523 14.8597 38.8039 Q15.891 37.6554 17.7816 37.6554 Q19.641 37.6554 20.6722 38.8273 Q21.7035 39.9992 21.7035 42.0617 ZM14.8754 42.0617 Q14.8754 43.7961 15.6176 44.7023 Q16.3597 45.6086 17.7816 45.6086 Q19.2035 45.6086 19.9301 44.7101 Q20.6566 43.8117 20.6566 42.0617 Q20.6566 40.3273 19.9301 39.4367 Q19.2035 38.5461 17.7816 38.5461 Q16.3597 38.5461 15.6176 39.4445 Q14.8754 40.3429 14.8754 42.0617 Z"/><path style="fill:rgb(230,0,0); stroke:none;" d="M29.2191 46.3586 L28.2191 46.3586 L28.2191 42.3273 L23.7035 42.3273 L23.7035 46.3586 L22.7035 46.3586 L22.7035 37.7961 L23.7035 37.7961 L23.7035 41.4367 L28.2191 41.4367 L28.2191 37.7961 L29.2191 37.7961 L29.2191 46.3586 Z"/><path style="fill:none;" d="M78.8891 -7.764 L79.359 -7.935 L79.742 -7.6136"/><path style="fill:none;" d="M101.956 11.0276 L102.339 11.349 L102.2522 11.8414"/><path style="fill:rgb(230,0,0); stroke:none;" d="M88.5045 -37.5493 Q88.5045 -35.4868 87.4654 -34.3071 Q86.4264 -33.1274 84.5826 -33.1274 Q82.692 -33.1274 81.6608 -34.2915 Q80.6295 -35.4556 80.6295 -37.5649 Q80.6295 -39.6587 81.6608 -40.8071 Q82.692 -41.9556 84.5826 -41.9556 Q86.442 -41.9556 87.4733 -40.7837 Q88.5045 -39.6118 88.5045 -37.5493 ZM81.6764 -37.5493 Q81.6764 -35.8149 82.4186 -34.9087 Q83.1608 -34.0024 84.5826 -34.0024 Q86.0045 -34.0024 86.7311 -34.9009 Q87.4576 -35.7993 87.4576 -37.5493 Q87.4576 -39.2837 86.7311 -40.1743 Q86.0045 -41.0649 84.5826 -41.0649 Q83.1608 -41.0649 82.4186 -40.1665 Q81.6764 -39.2681 81.6764 -37.5493 Z"/><path style="fill:none;" d="M97.2178 40.4006 L97.131 40.893 L97.514 41.2144"/><path style="fill:none;" d="M119.728 59.8556 L120.111 60.177 L120.5808 60.006"/><path style="fill:none;" d="M147.8322 50.088 L148.302 49.917 L148.685 50.2384"/><path style="fill:none;" d="M170.902 68.8796 L171.285 69.201 L171.7548 69.0299"/><path style="fill:rgb(230,0,0); stroke:none;" d="M3.9315 -45.3343 Q3.9315 -43.2718 2.8924 -42.0921 Q1.8534 -40.9124 0.0096 -40.9124 Q-1.881 -40.9124 -2.9123 -42.0765 Q-3.9435 -43.2406 -3.9435 -45.3499 Q-3.9435 -47.4437 -2.9123 -48.5921 Q-1.881 -49.7406 0.0096 -49.7406 Q1.869 -49.7406 2.9002 -48.5687 Q3.9315 -47.3968 3.9315 -45.3343 ZM-2.8966 -45.3343 Q-2.8966 -43.5999 -2.1544 -42.6937 Q-1.4123 -41.7874 0.0096 -41.7874 Q1.4315 -41.7874 2.1581 -42.6859 Q2.8846 -43.5843 2.8846 -45.3343 Q2.8846 -47.0687 2.1581 -47.9593 Q1.4315 -48.8499 0.0096 -48.8499 Q-1.4123 -48.8499 -2.1544 -47.9515 Q-2.8966 -47.0531 -2.8966 -45.3343 Z"/><path style="fill:rgb(230,0,0); stroke:none;" d="M11.4471 -41.0374 L10.4471 -41.0374 L10.4471 -45.0687 L5.9315 -45.0687 L5.9315 -41.0374 L4.9315 -41.0374 L4.9315 -49.5999 L5.9315 -49.5999 L5.9315 -45.9593 L10.4471 -45.9593 L10.4471 -49.5999 L11.4471 -49.5999 L11.4471 -41.0374 Z"/><path style="fill:rgb(230,0,0); stroke:none;" d="M-109.0485 -129.9733 Q-109.0485 -127.9108 -110.0876 -126.7311 Q-111.1266 -125.5514 -112.9704 -125.5514 Q-114.861 -125.5514 -115.8923 -126.7155 Q-116.9235 -127.8796 -116.9235 -129.9889 Q-116.9235 -132.0827 -115.8923 -133.2311 Q-114.861 -134.3796 -112.9704 -134.3796 Q-111.111 -134.3796 -110.0798 -133.2077 Q-109.0485 -132.0358 -109.0485 -129.9733 ZM-115.8766 -129.9733 Q-115.8766 -128.2389 -115.1344 -127.3327 Q-114.3923 -126.4264 -112.9704 -126.4264 Q-111.5485 -126.4264 -110.8219 -127.3249 Q-110.0954 -128.2233 -110.0954 -129.9733 Q-110.0954 -131.7077 -110.8219 -132.5983 Q-111.5485 -133.4889 -112.9704 -133.4889 Q-114.3923 -133.4889 -115.1344 -132.5905 Q-115.8766 -131.6921 -115.8766 -129.9733 Z"/><path style="fill:rgb(230,0,0); stroke:none;" d="M-169.0485 -26.0503 Q-169.0485 -23.9878 -170.0876 -22.8081 Q-171.1266 -21.6284 -172.9704 -21.6284 Q-174.861 -21.6284 -175.8923 -22.7925 Q-176.9235 -23.9566 -176.9235 -26.0659 Q-176.9235 -28.1597 -175.8923 -29.3081 Q-174.861 -30.4566 -172.9704 -30.4566 Q-171.111 -30.4566 -170.0798 -29.2847 Q-169.0485 -28.1128 -169.0485 -26.0503 ZM-175.8766 -26.0503 Q-175.8766 -24.3159 -175.1344 -23.4097 Q-174.3923 -22.5034 -172.9704 -22.5034 Q-171.5485 -22.5034 -170.8219 -23.4019 Q-170.0954 -24.3003 -170.0954 -26.0503 Q-170.0954 -27.7847 -170.8219 -28.6753 Q-171.5485 -29.5659 -172.9704 -29.5659 Q-174.3923 -29.5659 -175.1344 -28.6675 Q-175.8766 -27.7691 -175.8766 -26.0503 Z"/><path style="fill:rgb(0,5,255); stroke:none;" d="M-79.6344 134.0592 L-80.7751 134.0592 L-85.4626 126.8717 L-85.5094 126.8717 Q-85.4157 128.1374 -85.4157 129.1842 L-85.4157 134.0592 L-86.3376 134.0592 L-86.3376 125.4967 L-85.2126 125.4967 L-80.5407 132.653 L-80.4938 132.653 Q-80.4938 132.4967 -80.5407 131.6374 Q-80.5876 130.778 -80.5719 130.403 L-80.5719 125.4967 L-79.6344 125.4967 L-79.6344 134.0592 Z"/><path style="fill:rgb(0,5,255); stroke:none;" d="M-92.0876 134.0592 L-93.0876 134.0592 L-93.0876 130.028 L-97.6032 130.028 L-97.6032 134.0592 L-98.6032 134.0592 L-98.6032 125.4967 L-97.6032 125.4967 L-97.6032 129.1374 L-93.0876 129.1374 L-93.0876 125.4967 L-92.0876 125.4967 L-92.0876 134.0592 Z"/><path style="fill:rgb(0,5,255); stroke:none;" d="M-87.3376 135.8686 L-91.0876 135.8686 L-91.0876 135.3061 L-89.5876 133.7905 Q-88.9001 133.103 -88.6813 132.8061 Q-88.4626 132.5092 -88.3532 132.228 Q-88.2438 131.9467 -88.2438 131.6186 Q-88.2438 131.1655 -88.5173 130.8999 Q-88.7907 130.6342 -89.2907 130.6342 Q-89.6344 130.6342 -89.9548 130.7514 Q-90.2751 130.8686 -90.6657 131.1655 L-91.0094 130.728 Q-90.2282 130.0717 -89.2907 130.0717 Q-88.4938 130.0717 -88.0329 130.4858 Q-87.5719 130.8999 -87.5719 131.5874 Q-87.5719 132.1342 -87.8766 132.6655 Q-88.1813 133.1967 -89.0251 134.0092 L-90.2751 135.228 L-90.2751 135.2592 L-87.3376 135.2592 L-87.3376 135.8686 Z"/><path style="fill:rgb(230,0,0); stroke:none;" d="M-214.0485 -52.0333 Q-214.0485 -49.9708 -215.0876 -48.7911 Q-216.1266 -47.6114 -217.9704 -47.6114 Q-219.861 -47.6114 -220.8923 -48.7755 Q-221.9235 -49.9396 -221.9235 -52.0489 Q-221.9235 -54.1427 -220.8923 -55.2911 Q-219.861 -56.4396 -217.9704 -56.4396 Q-216.111 -56.4396 -215.0798 -55.2677 Q-214.0485 -54.0958 -214.0485 -52.0333 ZM-220.8766 -52.0333 Q-220.8766 -50.2989 -220.1344 -49.3927 Q-219.3923 -48.4864 -217.9704 -48.4864 Q-216.5485 -48.4864 -215.8219 -49.3849 Q-215.0954 -50.2833 -215.0954 -52.0333 Q-215.0954 -53.7677 -215.8219 -54.6583 Q-216.5485 -55.5489 -217.9704 -55.5489 Q-219.3923 -55.5489 -220.1344 -54.6505 Q-220.8766 -53.7521 -220.8766 -52.0333 Z"/><path style="fill:rgb(230,0,0); stroke:none;" d="M-19.0485 129.8327 Q-19.0485 131.8952 -20.0876 133.0749 Q-21.1266 134.2546 -22.9704 134.2546 Q-24.861 134.2546 -25.8923 133.0905 Q-26.9235 131.9264 -26.9235 129.8171 Q-26.9235 127.7233 -25.8923 126.5749 Q-24.861 125.4264 -22.9704 125.4264 Q-21.111 125.4264 -20.0798 126.5983 Q-19.0485 127.7702 -19.0485 129.8327 ZM-25.8766 129.8327 Q-25.8766 131.5671 -25.1344 132.4733 Q-24.3923 133.3796 -22.9704 133.3796 Q-21.5485 133.3796 -20.8219 132.4811 Q-20.0954 131.5827 -20.0954 129.8327 Q-20.0954 128.0983 -20.8219 127.2077 Q-21.5485 126.3171 -22.9704 126.3171 Q-24.3923 126.3171 -25.1344 127.2155 Q-25.8766 128.1139 -25.8766 129.8327 Z"/><path style="fill:rgb(230,0,0); stroke:none;" d="M-11.5329 134.1296 L-12.5329 134.1296 L-12.5329 130.0983 L-17.0485 130.0983 L-17.0485 134.1296 L-18.0485 134.1296 L-18.0485 125.5671 L-17.0485 125.5671 L-17.0485 129.2077 L-12.5329 129.2077 L-12.5329 125.5671 L-11.5329 125.5671 L-11.5329 134.1296 Z"/><path style="fill:rgb(230,0,0); stroke:none;" d="M193.2105 6.3917 Q193.2105 8.4542 192.1714 9.6339 Q191.1324 10.8136 189.2886 10.8136 Q187.398 10.8136 186.3668 9.6495 Q185.3355 8.4854 185.3355 6.3761 Q185.3355 4.2823 186.3668 3.1339 Q187.398 1.9854 189.2886 1.9854 Q191.148 1.9854 192.1793 3.1573 Q193.2105 4.3292 193.2105 6.3917 ZM186.3824 6.3917 Q186.3824 8.1261 187.1246 9.0323 Q187.8668 9.9386 189.2886 9.9386 Q190.7105 9.9386 191.4371 9.0401 Q192.1636 8.1417 192.1636 6.3917 Q192.1636 4.6573 191.4371 3.7667 Q190.7105 2.8761 189.2886 2.8761 Q187.8668 2.8761 187.1246 3.7745 Q186.3824 4.6729 186.3824 6.3917 Z"/><path style="fill:rgb(230,0,0); stroke:none;" d="M229.3305 105.6257 Q229.3305 107.6882 228.2914 108.8679 Q227.2524 110.0476 225.4086 110.0476 Q223.518 110.0476 222.4868 108.8835 Q221.4555 107.7194 221.4555 105.6101 Q221.4555 103.5163 222.4868 102.3679 Q223.518 101.2194 225.4086 101.2194 Q227.268 101.2194 228.2993 102.3913 Q229.3305 103.5632 229.3305 105.6257 ZM222.5024 105.6257 Q222.5024 107.3601 223.2446 108.2663 Q223.9868 109.1726 225.4086 109.1726 Q226.8305 109.1726 227.5571 108.2741 Q228.2836 107.3757 228.2836 105.6257 Q228.2836 103.8913 227.5571 103.0007 Q226.8305 102.1101 225.4086 102.1101 Q223.9868 102.1101 223.2446 103.0085 Q222.5024 103.9069 222.5024 105.6257 Z"/><path style="fill:none;" d="M-68.236 -51.53 L-67.986 -51.963 L-68.236 -52.396"/><path style="fill:none;" d="M-82.736 -26.413 L-82.986 -25.98 L-82.736 -25.547"/><path style="fill:none;" d="M-83.486 -77.943 L-82.986 -77.943 L-82.736 -78.376"/><path style="fill:none;" d="M-38.486 -51.963 L-37.986 -51.963 L-37.736 -51.53"/><path style="fill:none;" d="M-68.236 -0.433 L-67.986 0 L-67.486 0"/></g><g transform="translate(251,137)" style="stroke-linecap:butt; font-size:8.4px; fill:gray; text-rendering:geometricPrecision; image-rendering:optimizeQuality; color-rendering:optimizeQuality; font-family:'Open Sans'; font-style:italic; stroke:gray; color-interpolation:linearRGB; stroke-miterlimit:5;"><path style="stroke:none;" d="M-67.0944 -7.4571 Q-67.0944 -8.7852 -66.6257 -9.9102 Q-66.1569 -11.0352 -65.1257 -12.1133 L-64.5163 -12.1133 Q-65.485 -11.0508 -65.9694 -9.8789 Q-66.4538 -8.7071 -66.4538 -7.4727 Q-66.4538 -6.1446 -66.0163 -5.1289 L-66.5319 -5.1289 Q-67.0944 -6.1602 -67.0944 -7.4571 ZM-61.4718 -8.0508 Q-61.4718 -7.2227 -62.0187 -6.7696 Q-62.5656 -6.3164 -63.5656 -6.3164 Q-63.9718 -6.3164 -64.2843 -6.3711 Q-64.5968 -6.4258 -64.8781 -6.5664 L-64.8781 -7.2227 Q-64.2531 -6.8946 -63.55 -6.8946 Q-62.925 -6.8946 -62.55 -7.1914 Q-62.175 -7.4883 -62.175 -8.0039 Q-62.175 -8.3164 -62.3781 -8.543 Q-62.5812 -8.7696 -63.1437 -9.0977 Q-63.7375 -9.4258 -63.964 -9.7539 Q-64.1906 -10.0821 -64.1906 -10.5352 Q-64.1906 -11.2696 -63.675 -11.7305 Q-63.1593 -12.1914 -62.3156 -12.1914 Q-61.9406 -12.1914 -61.6047 -12.1133 Q-61.2687 -12.0352 -60.8937 -11.8633 L-61.1593 -11.2696 Q-61.4093 -11.4258 -61.7297 -11.5118 Q-62.05 -11.5977 -62.3156 -11.5977 Q-62.8468 -11.5977 -63.1672 -11.3243 Q-63.4875 -11.0508 -63.4875 -10.5821 Q-63.4875 -10.3789 -63.4172 -10.2305 Q-63.3468 -10.0821 -63.2062 -9.9493 Q-63.0656 -9.8164 -62.6437 -9.5664 Q-62.0812 -9.2227 -61.8781 -9.0274 Q-61.675 -8.8321 -61.5734 -8.5977 Q-61.4718 -8.3633 -61.4718 -8.0508 ZM-58.8774 -9.7696 Q-58.8774 -8.4414 -59.3539 -7.3086 Q-59.8305 -6.1758 -60.8461 -5.1289 L-61.4555 -5.1289 Q-59.518 -7.2852 -59.518 -9.7696 Q-59.518 -11.0977 -59.9555 -12.1133 L-59.4399 -12.1133 Q-58.8774 -11.0508 -58.8774 -9.7696 Z"/><path style="fill:none; stroke:black;" d="M-113.236 -26.413 L-112.986 -25.98 L-113.236 -25.547"/><path style="fill:none; stroke:black;" d="M-112.486 -77.943 L-112.986 -77.943 L-113.236 -77.51"/><path style="stroke:none;" d="M-37.0945 -24.7771 Q-37.0945 -26.1052 -36.6258 -27.2302 Q-36.157 -28.3552 -35.1258 -29.4334 L-34.5164 -29.4334 Q-35.4851 -28.3709 -35.9695 -27.199 Q-36.4539 -26.0271 -36.4539 -24.7927 Q-36.4539 -23.4646 -36.0164 -22.449 L-36.532 -22.449 Q-37.0945 -23.4802 -37.0945 -24.7771 ZM-31.472 -25.3709 Q-31.472 -24.5427 -32.0188 -24.0896 Q-32.5657 -23.6365 -33.5657 -23.6365 Q-33.972 -23.6365 -34.2845 -23.6912 Q-34.597 -23.7459 -34.8782 -23.8865 L-34.8782 -24.5427 Q-34.2532 -24.2146 -33.5501 -24.2146 Q-32.9251 -24.2146 -32.5501 -24.5115 Q-32.1751 -24.8084 -32.1751 -25.324 Q-32.1751 -25.6365 -32.3782 -25.8631 Q-32.5813 -26.0896 -33.1438 -26.4177 Q-33.7376 -26.7459 -33.9641 -27.074 Q-34.1907 -27.4021 -34.1907 -27.8552 Q-34.1907 -28.5896 -33.6751 -29.0506 Q-33.1595 -29.5115 -32.3157 -29.5115 Q-31.9407 -29.5115 -31.6048 -29.4334 Q-31.2688 -29.3552 -30.8938 -29.1834 L-31.1595 -28.5896 Q-31.4095 -28.7459 -31.7298 -28.8318 Q-32.0501 -28.9177 -32.3157 -28.9177 Q-32.847 -28.9177 -33.1673 -28.6443 Q-33.4876 -28.3709 -33.4876 -27.9021 Q-33.4876 -27.699 -33.4173 -27.5506 Q-33.347 -27.4021 -33.2063 -27.2693 Q-33.0657 -27.1365 -32.6438 -26.8865 Q-32.0813 -26.5427 -31.8782 -26.3474 Q-31.6751 -26.1521 -31.5735 -25.9177 Q-31.472 -25.6834 -31.472 -25.3709 ZM-28.8775 -27.0896 Q-28.8775 -25.7615 -29.354 -24.6287 Q-29.8306 -23.4959 -30.8462 -22.449 L-31.4556 -22.449 Q-29.5181 -24.6052 -29.5181 -27.0896 Q-29.5181 -28.4177 -29.9556 -29.4334 L-29.44 -29.4334 Q-28.8775 -28.3709 -28.8775 -27.0896 Z"/><path style="fill:none; stroke:black;" d="M-38.486 -0 L-37.986 0 L-37.736 -0.433"/><path style="fill:none; stroke:black;" d="M-127.736 -51.53 L-127.986 -51.963 L-127.736 -52.396"/><path style="fill:none; stroke:black;" d="M-127.736 -103.49 L-127.986 -103.923 L-128.486 -103.923"/><path style="fill:none; stroke:black;" d="M-157.486 -51.963 L-157.986 -51.963 L-158.236 -52.396"/><path style="fill:none; stroke:black;" d="M-158.236 -104.356 L-157.986 -103.923 L-157.486 -103.923"/><path style="fill:none; stroke:black;" d="M-173.486 -77.943 L-172.986 -77.943 L-172.736 -77.51"/><path style="fill:none; stroke:black;" d="M-172.736 -129.47 L-172.986 -129.903 L-173.486 -129.903"/><path style="fill:none; stroke:black;" d="M-202.486 -77.943 L-202.986 -77.943 L-203.236 -77.51"/><path style="fill:none; stroke:black;" d="M-202.486 -129.903 L-202.986 -129.903 L-203.236 -129.47"/><path style="fill:none; stroke:black;" d="M-217.736 -103.49 L-217.986 -103.923 L-217.736 -104.356"/><path style="fill:none; stroke:black;" d="M-68.236 52.396 L-67.986 51.963 L-67.486 51.963"/><path style="stroke:none;" d="M-67.3747 44.4667 Q-67.3747 43.1386 -66.906 42.0136 Q-66.4372 40.8886 -65.406 39.8105 L-64.7966 39.8105 Q-65.7654 40.873 -66.2497 42.0449 Q-66.7341 43.2167 -66.7341 44.4511 Q-66.7341 45.7792 -66.2966 46.7949 L-66.8122 46.7949 Q-67.3747 45.7636 -67.3747 44.4667 ZM-63.8147 43.1542 L-64.3147 45.5292 L-64.9709 45.5292 L-63.7678 39.8105 L-62.5178 39.8105 Q-60.7834 39.8105 -60.7834 41.248 Q-60.7834 42.6074 -62.2209 42.998 L-61.2834 45.5292 L-62.0022 45.5292 L-62.8303 43.1542 L-63.8147 43.1542 ZM-63.2366 40.4042 Q-63.6272 42.3261 -63.6897 42.5761 L-63.0334 42.5761 Q-62.2834 42.5761 -61.8772 42.248 Q-61.4709 41.9199 -61.4709 41.2949 Q-61.4709 40.8261 -61.7288 40.6152 Q-61.9866 40.4042 -62.5803 40.4042 L-63.2366 40.4042 ZM-58.5975 42.1542 Q-58.5975 43.4824 -59.074 44.6152 Q-59.5506 45.748 -60.5662 46.7949 L-61.1756 46.7949 Q-59.2381 44.6386 -59.2381 42.1542 Q-59.2381 40.8261 -59.6756 39.8105 L-59.16 39.8105 Q-58.5975 40.873 -58.5975 42.1542 Z"/><path style="fill:none; stroke:black;" d="M-82.736 77.51 L-82.986 77.943 L-82.736 78.376"/></g><g transform="translate(251,137)" style="stroke-linecap:butt; fill:rgb(230,0,0); text-rendering:geometricPrecision; color-rendering:optimizeQuality; image-rendering:optimizeQuality; font-family:'Open Sans'; stroke:rgb(230,0,0); color-interpolation:linearRGB; stroke-miterlimit:5;"><path style="stroke:none;" d="M-34.0485 51.8927 Q-34.0485 53.9552 -35.0876 55.1349 Q-36.1266 56.3146 -37.9704 56.3146 Q-39.861 56.3146 -40.8923 55.1505 Q-41.9235 53.9864 -41.9235 51.8771 Q-41.9235 49.7833 -40.8923 48.6349 Q-39.861 47.4864 -37.9704 47.4864 Q-36.111 47.4864 -35.0798 48.6583 Q-34.0485 49.8302 -34.0485 51.8927 ZM-40.8766 51.8927 Q-40.8766 53.6271 -40.1344 54.5333 Q-39.3923 55.4396 -37.9704 55.4396 Q-36.5485 55.4396 -35.8219 54.5411 Q-35.0954 53.6427 -35.0954 51.8927 Q-35.0954 50.1583 -35.8219 49.2677 Q-36.5485 48.3771 -37.9704 48.3771 Q-39.3923 48.3771 -40.1344 49.2755 Q-40.8766 50.1739 -40.8766 51.8927 Z"/></g><g transform="translate(251,137)" style="stroke-linecap:butt; font-size:8.4px; fill:gray; text-rendering:geometricPrecision; image-rendering:optimizeQuality; color-rendering:optimizeQuality; font-family:'Open Sans'; font-style:italic; stroke:gray; color-interpolation:linearRGB; stroke-miterlimit:5;"><path style="stroke:none;" d="M-67.0944 96.4659 Q-67.0944 95.1378 -66.6257 94.0128 Q-66.1569 92.8878 -65.1257 91.8097 L-64.5163 91.8097 Q-65.485 92.8722 -65.9694 94.0441 Q-66.4538 95.2159 -66.4538 96.4503 Q-66.4538 97.7784 -66.0163 98.7941 L-66.5319 98.7941 Q-67.0944 97.7628 -67.0944 96.4659 ZM-61.4718 95.8722 Q-61.4718 96.7003 -62.0187 97.1534 Q-62.5656 97.6066 -63.5656 97.6066 Q-63.9718 97.6066 -64.2843 97.5519 Q-64.5968 97.4972 -64.8781 97.3566 L-64.8781 96.7003 Q-64.2531 97.0284 -63.55 97.0284 Q-62.925 97.0284 -62.55 96.7316 Q-62.175 96.4347 -62.175 95.9191 Q-62.175 95.6066 -62.3781 95.38 Q-62.5812 95.1534 -63.1437 94.8253 Q-63.7375 94.4972 -63.964 94.1691 Q-64.1906 93.8409 -64.1906 93.3878 Q-64.1906 92.6534 -63.675 92.1925 Q-63.1593 91.7316 -62.3156 91.7316 Q-61.9406 91.7316 -61.6047 91.8097 Q-61.2687 91.8878 -60.8937 92.0597 L-61.1593 92.6534 Q-61.4093 92.4972 -61.7297 92.4112 Q-62.05 92.3253 -62.3156 92.3253 Q-62.8468 92.3253 -63.1672 92.5987 Q-63.4875 92.8722 -63.4875 93.3409 Q-63.4875 93.5441 -63.4172 93.6925 Q-63.3468 93.8409 -63.2062 93.9737 Q-63.0656 94.1066 -62.6437 94.3566 Q-62.0812 94.7003 -61.8781 94.8956 Q-61.675 95.0909 -61.5734 95.3253 Q-61.4718 95.5597 -61.4718 95.8722 ZM-58.8774 94.1534 Q-58.8774 95.4816 -59.3539 96.6144 Q-59.8305 97.7472 -60.8461 98.7941 L-61.4555 98.7941 Q-59.518 96.6378 -59.518 94.1534 Q-59.518 92.8253 -59.9555 91.8097 L-59.4399 91.8097 Q-58.8774 92.8722 -58.8774 94.1534 Z"/><path style="stroke:none;" d="M-22.0944 70.4859 Q-22.0944 69.1578 -21.6257 68.0328 Q-21.1569 66.9078 -20.1257 65.8297 L-19.5163 65.8297 Q-20.485 66.8922 -20.9694 68.0641 Q-21.4538 69.2359 -21.4538 70.4703 Q-21.4538 71.7984 -21.0163 72.8141 L-21.5319 72.8141 Q-22.0944 71.7828 -22.0944 70.4859 ZM-16.4719 69.8922 Q-16.4719 70.7203 -17.0187 71.1734 Q-17.5656 71.6266 -18.5656 71.6266 Q-18.9719 71.6266 -19.2844 71.5719 Q-19.5969 71.5172 -19.8781 71.3766 L-19.8781 70.7203 Q-19.2531 71.0484 -18.55 71.0484 Q-17.925 71.0484 -17.55 70.7516 Q-17.175 70.4547 -17.175 69.9391 Q-17.175 69.6266 -17.3781 69.4 Q-17.5812 69.1734 -18.1437 68.8453 Q-18.7375 68.5172 -18.964 68.1891 Q-19.1906 67.8609 -19.1906 67.4078 Q-19.1906 66.6734 -18.675 66.2125 Q-18.1594 65.7516 -17.3156 65.7516 Q-16.9406 65.7516 -16.6047 65.8297 Q-16.2687 65.9078 -15.8937 66.0797 L-16.1594 66.6734 Q-16.4094 66.5172 -16.7297 66.4312 Q-17.05 66.3453 -17.3156 66.3453 Q-17.8469 66.3453 -18.1672 66.6187 Q-18.4875 66.8922 -18.4875 67.3609 Q-18.4875 67.5641 -18.4172 67.7125 Q-18.3469 67.8609 -18.2062 67.9937 Q-18.0656 68.1266 -17.6437 68.3766 Q-17.0812 68.7203 -16.8781 68.9156 Q-16.675 69.1109 -16.5734 69.3453 Q-16.4719 69.5797 -16.4719 69.8922 ZM-13.8774 68.1734 Q-13.8774 69.5016 -14.3539 70.6344 Q-14.8305 71.7672 -15.8461 72.8141 L-16.4555 72.8141 Q-14.518 70.6578 -14.518 68.1734 Q-14.518 66.8453 -14.9555 65.8297 L-14.4399 65.8297 Q-13.8774 66.8922 -13.8774 68.1734 Z"/><path style="stroke:none;" d="M-47.0943 96.4657 Q-47.0943 95.1376 -46.6255 94.0126 Q-46.1568 92.8876 -45.1255 91.8095 L-44.5162 91.8095 Q-45.4849 92.872 -45.9693 94.0439 Q-46.4537 95.2157 -46.4537 96.4501 Q-46.4537 97.7782 -46.0162 98.7939 L-46.5318 98.7939 Q-47.0943 97.7626 -47.0943 96.4657 ZM-41.4717 95.872 Q-41.4717 96.7001 -42.0186 97.1532 Q-42.5655 97.6064 -43.5655 97.6064 Q-43.9717 97.6064 -44.2842 97.5517 Q-44.5967 97.497 -44.878 97.3564 L-44.878 96.7001 Q-44.253 97.0282 -43.5499 97.0282 Q-42.9249 97.0282 -42.5499 96.7314 Q-42.1749 96.4345 -42.1749 95.9189 Q-42.1749 95.6064 -42.378 95.3798 Q-42.5811 95.1532 -43.1436 94.8251 Q-43.7374 94.497 -43.9639 94.1689 Q-44.1905 93.8407 -44.1905 93.3876 Q-44.1905 92.6532 -43.6749 92.1923 Q-43.1592 91.7314 -42.3155 91.7314 Q-41.9405 91.7314 -41.6046 91.8095 Q-41.2686 91.8876 -40.8936 92.0595 L-41.1592 92.6532 Q-41.4092 92.497 -41.7296 92.4111 Q-42.0499 92.3251 -42.3155 92.3251 Q-42.8467 92.3251 -43.1671 92.5986 Q-43.4874 92.872 -43.4874 93.3407 Q-43.4874 93.5439 -43.4171 93.6923 Q-43.3467 93.8407 -43.2061 93.9736 Q-43.0655 94.1064 -42.6436 94.3564 Q-42.0811 94.7001 -41.878 94.8954 Q-41.6749 95.0907 -41.5733 95.3251 Q-41.4717 95.5595 -41.4717 95.872 ZM-38.8773 94.1532 Q-38.8773 95.4814 -39.3538 96.6142 Q-39.8304 97.747 -40.846 98.7939 L-41.4554 98.7939 Q-39.5179 96.6376 -39.5179 94.1532 Q-39.5179 92.8251 -39.9554 91.8095 L-39.4398 91.8095 Q-38.8773 92.872 -38.8773 94.1532 Z"/></g><g transform="translate(251,137)" style="stroke-linecap:butt; fill:rgb(0,5,255); text-rendering:geometricPrecision; color-rendering:optimizeQuality; image-rendering:optimizeQuality; font-family:'Open Sans'; stroke:rgb(0,5,255); color-interpolation:linearRGB; stroke-miterlimit:5;"><path style="stroke:none;" d="M202.8246 63.0942 L201.6839 63.0942 L196.9964 55.9067 L196.9496 55.9067 Q197.0433 57.1724 197.0433 58.2192 L197.0433 63.0942 L196.1214 63.0942 L196.1214 54.5317 L197.2464 54.5317 L201.9183 61.688 L201.9652 61.688 Q201.9652 61.5317 201.9183 60.6724 Q201.8714 59.813 201.8871 59.438 L201.8871 54.5317 L202.8246 54.5317 L202.8246 63.0942 Z"/><path style="fill:none; stroke:black;" d="M207.6061 30.5826 L207.744 30.102 L208.2437 30.0845"/><path style="fill:none; stroke:black;" d="M223.9315 75.4344 L224.346 75.714 L224.74 75.4062"/><path style="fill:none; stroke:black;" d="M237.2263 29.0725 L237.726 29.055 L237.897 29.5249"/><path style="fill:none; stroke:black;" d="M247.592 57.5538 L247.986 57.246 L247.815 56.7762"/></g></g></svg></svg></svg></svg>