<svg width="157" viewBox="0 0 157 111" style="fill-opacity:1; color-rendering:auto; color-interpolation:auto; text-rendering:auto; stroke:black; stroke-linecap:square; stroke-miterlimit:10; shape-rendering:auto; stroke-opacity:1; fill:black; stroke-dasharray:none; font-weight:normal; stroke-width:1; font-family:'Open Sans'; font-style:normal; stroke-linejoin:miter; font-size:12; stroke-dashoffset:0; image-rendering:auto;" height="111" class="cas-substance-image" xmlns:xlink="http://www.w3.org/1999/xlink" xmlns="http://www.w3.org/2000/svg"><svg class="cas-substance-single-component"><rect y="0" x="0" width="157" stroke="none" ry="7" rx="7" height="111" fill="white" class="cas-substance-group"/><svg y="0" x="0" width="157" viewBox="0 0 157 111" style="fill:black;" height="111" class="cas-substance-single-component-image"><svg><g><g transform="translate(79,55)" style="text-rendering:geometricPrecision; color-rendering:optimizeQuality; color-interpolation:linearRGB; stroke-linecap:butt; image-rendering:optimizeQuality;"><line y2="51.963" y1="31.616" x2="-15" x1="-26.7464" style="fill:none;"/><line y2="0" y1="20.2583" x2="-15" x1="-26.6965" style="fill:none;"/><line y2="-25.98" y1="-25.98" x2="-30" x1="-54.6484" style="fill:none;"/><line y2="-25.98" y1="-25.98" x2="30" x1="54.6484" style="fill:none;"/><line y2="-25.98" y1="0" x2="-30" x1="-15" style="fill:none;"/><line y2="-25.9801" y1="-3.5" x2="-25.9585" x1="-12.9793" style="fill:none;"/><line y2="0" y1="0" x2="15" x1="-15" style="fill:none;"/><line y2="-51.963" y1="-25.98" x2="-15" x1="-30" style="fill:none;"/><line y2="-25.98" y1="0" x2="30" x1="15" style="fill:none;"/><line y2="-25.9801" y1="-3.5" x2="25.9585" x1="12.9793" style="fill:none;"/><line y2="-51.963" y1="-51.963" x2="15" x1="-15" style="fill:none;"/><line y2="-48.463" y1="-48.463" x2="12.9793" x1="-12.9793" style="fill:none;"/><line y2="-51.963" y1="-25.98" x2="15" x1="30" style="fill:none;"/></g><g transform="translate(79,55)" style="fill:rgb(230,0,0); text-rendering:geometricPrecision; color-rendering:optimizeQuality; image-rendering:optimizeQuality; font-family:'Open Sans'; stroke:rgb(230,0,0); color-interpolation:linearRGB;"><path style="stroke:none;" d="M-26.0625 25.9097 Q-26.0625 27.9722 -27.1016 29.1519 Q-28.1406 30.3316 -29.9844 30.3316 Q-31.875 30.3316 -32.9062 29.1675 Q-33.9375 28.0034 -33.9375 25.8941 Q-33.9375 23.8003 -32.9062 22.6519 Q-31.875 21.5034 -29.9844 21.5034 Q-28.125 21.5034 -27.0938 22.6753 Q-26.0625 23.8472 -26.0625 25.9097 ZM-32.8906 25.9097 Q-32.8906 27.6441 -32.1484 28.5503 Q-31.4062 29.4566 -29.9844 29.4566 Q-28.5625 29.4566 -27.8359 28.5581 Q-27.1094 27.6597 -27.1094 25.9097 Q-27.1094 24.1753 -27.8359 23.2847 Q-28.5625 22.3941 -29.9844 22.3941 Q-31.4062 22.3941 -32.1484 23.2925 Q-32.8906 24.1909 -32.8906 25.9097 Z"/><path style="fill:rgb(0,5,255); stroke:none;" d="M-56.6484 -21.8237 L-57.7891 -21.8237 L-62.4766 -29.0112 L-62.5234 -29.0112 Q-62.4297 -27.7456 -62.4297 -26.6987 L-62.4297 -21.8237 L-63.3516 -21.8237 L-63.3516 -30.3862 L-62.2266 -30.3862 L-57.5547 -23.23 L-57.5078 -23.23 Q-57.5078 -23.3862 -57.5547 -24.2456 Q-57.6016 -25.105 -57.5859 -25.48 L-57.5859 -30.3862 L-56.6484 -30.3862 L-56.6484 -21.8237 Z"/><path style="fill:rgb(0,5,255); stroke:none;" d="M-69.1016 -21.8237 L-70.1016 -21.8237 L-70.1016 -25.855 L-74.6172 -25.855 L-74.6172 -21.8237 L-75.6172 -21.8237 L-75.6172 -30.3862 L-74.6172 -30.3862 L-74.6172 -26.7456 L-70.1016 -26.7456 L-70.1016 -30.3862 L-69.1016 -30.3862 L-69.1016 -21.8237 Z"/><path style="fill:rgb(0,5,255); stroke:none;" d="M-64.3516 -20.0144 L-68.1016 -20.0144 L-68.1016 -20.5769 L-66.6016 -22.0925 Q-65.9141 -22.78 -65.6953 -23.0769 Q-65.4766 -23.3737 -65.3672 -23.655 Q-65.2578 -23.9362 -65.2578 -24.2644 Q-65.2578 -24.7175 -65.5312 -24.9831 Q-65.8047 -25.2487 -66.3047 -25.2487 Q-66.6484 -25.2487 -66.9688 -25.1316 Q-67.2891 -25.0144 -67.6797 -24.7175 L-68.0234 -25.155 Q-67.2422 -25.8112 -66.3047 -25.8112 Q-65.5078 -25.8112 -65.0469 -25.3972 Q-64.5859 -24.9831 -64.5859 -24.2956 Q-64.5859 -23.7487 -64.8906 -23.2175 Q-65.1953 -22.6862 -66.0391 -21.8737 L-67.2891 -20.655 L-67.2891 -20.6237 L-64.3516 -20.6237 L-64.3516 -20.0144 Z"/><path style="fill:rgb(0,5,255); stroke:none;" d="M63.3516 -21.8237 L62.2109 -21.8237 L57.5234 -29.0112 L57.4766 -29.0112 Q57.5703 -27.7456 57.5703 -26.6987 L57.5703 -21.8237 L56.6484 -21.8237 L56.6484 -30.3862 L57.7734 -30.3862 L62.4453 -23.23 L62.4922 -23.23 Q62.4922 -23.3862 62.4453 -24.2456 Q62.3984 -25.105 62.4141 -25.48 L62.4141 -30.3862 L63.3516 -30.3862 L63.3516 -21.8237 Z"/><path style="fill:rgb(0,5,255); stroke:none;" d="M70.8672 -21.8237 L69.8672 -21.8237 L69.8672 -25.855 L65.3516 -25.855 L65.3516 -21.8237 L64.3516 -21.8237 L64.3516 -30.3862 L65.3516 -30.3862 L65.3516 -26.7456 L69.8672 -26.7456 L69.8672 -30.3862 L70.8672 -30.3862 L70.8672 -21.8237 Z"/><path style="fill:rgb(0,5,255); stroke:none;" d="M75.6172 -20.0144 L71.8672 -20.0144 L71.8672 -20.5769 L73.3672 -22.0925 Q74.0547 -22.78 74.2734 -23.0769 Q74.4922 -23.3737 74.6016 -23.655 Q74.7109 -23.9362 74.7109 -24.2644 Q74.7109 -24.7175 74.4375 -24.9831 Q74.1641 -25.2487 73.6641 -25.2487 Q73.3203 -25.2487 73 -25.1316 Q72.6797 -25.0144 72.2891 -24.7175 L71.9453 -25.155 Q72.7266 -25.8112 73.6641 -25.8112 Q74.4609 -25.8112 74.9219 -25.3972 Q75.3828 -24.9831 75.3828 -24.2956 Q75.3828 -23.7487 75.0781 -23.2175 Q74.7734 -22.6862 73.9297 -21.8737 L72.6797 -20.655 L72.6797 -20.6237 L75.6172 -20.6237 L75.6172 -20.0144 Z"/></g><g transform="translate(79,55)" style="stroke-linecap:butt; font-size:8.4px; text-rendering:geometricPrecision; color-rendering:optimizeQuality; image-rendering:optimizeQuality; font-family:'Open Sans'; color-interpolation:linearRGB; stroke-miterlimit:5;"><path style="fill:none;" d="M-15.25 -0.433 L-15 0 L-15.25 0.433"/><path style="fill:none;" d="M-29.75 -25.547 L-30 -25.98 L-30.5 -25.98"/><path style="fill:none;" d="M14.5 -0 L15 0 L15.25 -0.433"/><path style="fill:none;" d="M-15.25 -51.53 L-15 -51.963 L-14.5 -51.963"/><path style="fill:none;" d="M29.75 -25.547 L30 -25.98 L29.75 -26.413"/><path style="fill:none;" d="M14.5 -51.963 L15 -51.963 L15.25 -51.53"/></g></g></svg></svg></svg></svg>