<svg width="195" viewBox="0 0 195 101" style="fill-opacity:1; color-rendering:auto; color-interpolation:auto; text-rendering:auto; stroke:black; stroke-linecap:square; stroke-miterlimit:10; shape-rendering:auto; stroke-opacity:1; fill:black; stroke-dasharray:none; font-weight:normal; stroke-width:1; font-family:'Open Sans'; font-style:normal; stroke-linejoin:miter; font-size:12; stroke-dashoffset:0; image-rendering:auto;" height="101" class="cas-substance-image" xmlns:xlink="http://www.w3.org/1999/xlink" xmlns="http://www.w3.org/2000/svg"><svg class="cas-substance-single-component"><rect y="0" x="0" width="195" stroke="none" ry="7" rx="7" height="101" fill="white" class="cas-substance-group"/><svg y="0" x="0" width="195" viewBox="0 0 195 101" style="fill:black;" height="101" class="cas-substance-single-component-image"><svg><g><g transform="translate(96,50)" style="text-rendering:geometricPrecision; color-rendering:optimizeQuality; color-interpolation:linearRGB; stroke-linecap:butt; image-rendering:optimizeQuality;"><line y2="37.1174" y1="17.01" x2="-53.3436" x1="-64.953" style="fill:none;"/><line y2="29.7044" y1="17.01" x2="-86.9397" x1="-64.953" style="fill:none;"/><line y2="-5.5311" y1="17.01" x2="-77.9675" x1="-64.953" style="fill:none;"/><line y2="2.01" y1="17.01" x2="-38.97" x1="-64.953" style="fill:none;"/><line y2="2.01" y1="13.7627" x2="64.953" x1="85.3087" style="fill:none;"/><line y2="-27.99" y1="2.01" x2="12.99" x1="12.99" style="fill:none;"/><line y2="-25.9693" y1="-0.0107" x2="9.49" x1="9.49" style="fill:none;"/><line y2="17.01" y1="2.01" x2="-12.99" x1="12.99" style="fill:none;"/><line y2="14.0749" y1="2.01" x2="33.8864" x1="12.99" style="fill:none;"/><line y2="-42.99" y1="-27.99" x2="-12.99" x1="12.99" style="fill:none;"/><line y2="-40.0549" y1="-27.99" x2="33.8864" x1="12.99" style="fill:none;"/><line y2="2.01" y1="17.01" x2="-38.97" x1="-12.99" style="fill:none;"/><line y2="-0.0107" y1="12.9685" x2="-35.47" x1="-12.9899" style="fill:none;"/><line y2="2.01" y1="14.0752" x2="64.953" x1="44.0536" style="fill:none;"/><line y2="-0.0109" y1="11.0441" x2="61.4531" x1="42.3038" style="fill:none;"/><line y2="-27.99" y1="-42.99" x2="-38.97" x1="-12.99" style="fill:none;"/><line y2="-25.9693" y1="-38.9485" x2="-35.47" x1="-12.9899" style="fill:none;"/><line y2="-27.99" y1="-40.0552" x2="64.953" x1="44.0536" style="fill:none;"/><line y2="-25.9691" y1="-37.0241" x2="61.4531" x1="42.3038" style="fill:none;"/><line y2="-27.99" y1="2.01" x2="-38.97" x1="-38.97" style="fill:none;"/><line y2="-27.99" y1="2.01" x2="64.953" x1="64.953" style="fill:none;"/></g><g transform="translate(96,50)" style="fill:rgb(0,138,0); text-rendering:geometricPrecision; color-rendering:optimizeQuality; image-rendering:optimizeQuality; font-family:'Open Sans'; stroke:rgb(0,138,0); color-interpolation:linearRGB;"><path style="stroke:none;" d="M-51.3436 47.1462 L-52.3436 47.1462 L-52.3436 38.5837 L-47.5624 38.5837 L-47.5624 39.4587 L-51.3436 39.4587 L-51.3436 42.5994 L-47.7967 42.5994 L-47.7967 43.49 L-51.3436 43.49 L-51.3436 47.1462 Z"/><path style="stroke:none;" d="M-92.3236 36.1663 L-93.3236 36.1663 L-93.3236 27.6038 L-88.5424 27.6038 L-88.5424 28.4788 L-92.3236 28.4788 L-92.3236 31.6194 L-88.7767 31.6194 L-88.7767 32.51 L-92.3236 32.51 L-92.3236 36.1663 Z"/><path style="stroke:none;" d="M-81.3436 -4.8138 L-82.3436 -4.8138 L-82.3436 -13.3763 L-77.5624 -13.3763 L-77.5624 -12.5013 L-81.3436 -12.5013 L-81.3436 -9.3606 L-77.7968 -9.3606 L-77.7968 -8.47 L-81.3436 -8.47 L-81.3436 -4.8138 Z"/><path style="stroke:none;" d="M90.6244 13.6506 Q89.2182 13.6506 88.3978 14.5881 Q87.5775 15.5256 87.5775 17.1662 Q87.5775 18.8381 88.3666 19.76 Q89.1557 20.6819 90.6088 20.6819 Q91.515 20.6819 92.6557 20.3537 L92.6557 21.2287 Q91.765 21.5725 90.4682 21.5725 Q88.5775 21.5725 87.5463 20.4162 Q86.515 19.26 86.515 17.1506 Q86.515 15.8225 87.0072 14.8303 Q87.4994 13.8381 88.4369 13.2991 Q89.3744 12.76 90.64 12.76 Q91.9838 12.76 92.9994 13.2444 L92.5775 14.1037 Q91.5932 13.6506 90.6244 13.6506 ZM95.351 21.4475 L94.3822 21.4475 L94.3822 12.3225 L95.351 12.3225 L95.351 21.4475 Z"/></g><g transform="translate(96,50)" style="stroke-linecap:butt; text-rendering:geometricPrecision; color-rendering:optimizeQuality; image-rendering:optimizeQuality; font-family:'Open Sans'; color-interpolation:linearRGB; stroke-miterlimit:5;"><path style="fill:none;" d="M12.99 1.51 L12.99 2.01 L12.557 2.26"/><path style="fill:none;" d="M12.99 -27.49 L12.99 -27.99 L13.423 -28.24"/><path style="fill:none;" d="M-12.557 16.76 L-12.99 17.01 L-13.423 16.76"/><path style="fill:rgb(0,5,255); stroke:none;" d="M42.3216 21.1662 L41.1809 21.1662 L36.4934 13.9787 L36.4466 13.9787 Q36.5403 15.2444 36.5403 16.2912 L36.5403 21.1662 L35.6184 21.1662 L35.6184 12.6037 L36.7434 12.6037 L41.4153 19.76 L41.4622 19.76 Q41.4622 19.6037 41.4153 18.7444 Q41.3684 17.885 41.3841 17.51 L41.3841 12.6037 L42.3216 12.6037 L42.3216 21.1662 Z"/><path style="fill:none;" d="M-12.557 -42.74 L-12.99 -42.99 L-13.423 -42.74"/><path style="fill:rgb(0,5,255); stroke:none;" d="M42.3216 -38.8337 L41.1809 -38.8337 L36.4934 -46.0212 L36.4466 -46.0212 Q36.5403 -44.7556 36.5403 -43.7087 L36.5403 -38.8337 L35.6184 -38.8337 L35.6184 -47.3962 L36.7434 -47.3962 L41.4153 -40.24 L41.4622 -40.24 Q41.4622 -40.3962 41.4153 -41.2556 Q41.3684 -42.115 41.3841 -42.49 L41.3841 -47.3962 L42.3216 -47.3962 L42.3216 -38.8337 Z"/><path style="fill:none;" d="M-38.537 2.26 L-38.97 2.01 L-39.403 2.26"/><path style="fill:none;" d="M64.52 2.26 L64.953 2.01 L65.386 2.26"/><path style="fill:none;" d="M-38.537 -28.24 L-38.97 -27.99 L-38.97 -27.49"/><path style="fill:none;" d="M64.52 -28.24 L64.953 -27.99 L64.953 -27.49"/></g></g></svg></svg></svg></svg>