<svg xmlns:ns0="http://www.w3.org/2000/svg" xmlns="http://www.w3.org/2000/svg"><g transform="translate(0, 0)"><ns0:svg width="199" viewBox="0 0 199 63" style="fill-opacity:1; color-rendering:auto; color-interpolation:auto; text-rendering:auto; stroke:black; stroke-linecap:square; stroke-miterlimit:10; shape-rendering:auto; stroke-opacity:1; fill:black; stroke-dasharray:none; font-weight:normal; stroke-width:1; font-family:'Open Sans'; font-style:normal; stroke-linejoin:miter; font-size:12; stroke-dashoffset:0; image-rendering:auto;" height="63" class="cas-substance-image"><ns0:svg class="cas-substance-single-component"><ns0:rect y="0" x="0" width="199" stroke="none" ry="7" rx="7" height="63" fill="white" class="cas-substance-group" /><ns0:svg y="0" x="0" width="199" viewBox="0 0 199 63" style="fill:black;" height="63" class="cas-substance-single-component-image"><ns0:svg><ns0:g><ns0:g transform="translate(94,33)" style="text-rendering:geometricPrecision; color-rendering:optimizeQuality; color-interpolation:linearRGB; stroke-linecap:butt; image-rendering:optimizeQuality;"><ns0:line y2="-20.332" y1="0" x2="87.321" x1="75.582" style="fill:none;" /><ns0:line y2="0" y1="0" x2="45.582" x1="75.582" style="fill:none;" /><ns0:line y2="-25.98" y1="0" x2="0.582" x1="-14.418" style="fill:none;" /><ns0:line y2="-22.48" y1="0.0001" x2="2.6027" x1="-10.3765" style="fill:none;" /><ns0:line y2="25.98" y1="0" x2="0.582" x1="-14.418" style="fill:none;" /><ns0:line y2="0" y1="0" x2="-44.418" x1="-14.418" style="fill:none;" /><ns0:line y2="-25.98" y1="-25.98" x2="30.582" x1="0.582" style="fill:none;" /><ns0:line y2="25.98" y1="25.98" x2="30.582" x1="0.582" style="fill:none;" /><ns0:line y2="22.48" y1="22.48" x2="28.5613" x1="2.6027" style="fill:none;" /><ns0:line y2="0" y1="-25.98" x2="45.582" x1="30.582" style="fill:none;" /><ns0:line y2="0.0001" y1="-22.48" x2="41.5406" x1="28.5613" style="fill:none;" /><ns0:line y2="0" y1="25.98" x2="45.582" x1="30.582" style="fill:none;" /><ns0:line y2="24.27" y1="0" x2="-62.052" x1="-44.418" style="fill:none;" /><ns0:line y2="20.5779" y1="-0.4225" x2="-63.6957" x1="-48.4373" style="fill:none;" /><ns0:line y2="-19.1107" y1="0" x2="-58.3034" x1="-44.418" style="fill:none;" /><ns0:line y2="15" y1="24.27" x2="-90.582" x1="-62.052" style="fill:none;" /><ns0:line y2="-15" y1="-22.3726" x2="-90.582" x1="-67.8916" style="fill:none;" /><ns0:line y2="-15" y1="15" x2="-90.582" x1="-90.582" style="fill:none;" /><ns0:line y2="-12.9793" y1="12.9793" x2="-87.082" x1="-87.082" style="fill:none;" /><ns0:path style="fill:none; stroke-miterlimit:5;" d="M75.832 -0.433 L75.582 0 L75.082 -0" /></ns0:g><ns0:g transform="translate(94,33)" style="stroke-linecap:butt; fill:rgb(230,0,0); text-rendering:geometricPrecision; color-rendering:optimizeQuality; image-rendering:optimizeQuality; font-family:'Open Sans'; stroke:rgb(230,0,0); color-interpolation:linearRGB; stroke-miterlimit:5;"><ns0:path style="stroke:none;" d="M94.5195 -26.0503 Q94.5195 -23.9878 93.4804 -22.8081 Q92.4414 -21.6284 90.5976 -21.6284 Q88.707 -21.6284 87.6757 -22.7925 Q86.6445 -23.9566 86.6445 -26.0659 Q86.6445 -28.1597 87.6757 -29.3081 Q88.707 -30.4566 90.5976 -30.4566 Q92.457 -30.4566 93.4882 -29.2847 Q94.5195 -28.1128 94.5195 -26.0503 ZM87.6914 -26.0503 Q87.6914 -24.3159 88.4336 -23.4097 Q89.1757 -22.5034 90.5976 -22.5034 Q92.0195 -22.5034 92.7461 -23.4019 Q93.4726 -24.3003 93.4726 -26.0503 Q93.4726 -27.7847 92.7461 -28.6753 Q92.0195 -29.5659 90.5976 -29.5659 Q89.1757 -29.5659 88.4336 -28.6675 Q87.6914 -27.7691 87.6914 -26.0503 Z" /><ns0:path style="stroke:none;" d="M102.0351 -21.7534 L101.0351 -21.7534 L101.0351 -25.7847 L96.5195 -25.7847 L96.5195 -21.7534 L95.5195 -21.7534 L95.5195 -30.3159 L96.5195 -30.3159 L96.5195 -26.6753 L101.0351 -26.6753 L101.0351 -30.3159 L102.0351 -30.3159 L102.0351 -21.7534 Z" /><ns0:path style="fill:none; stroke:black;" d="M-14.168 -0.433 L-14.418 0 L-14.168 0.433" /><ns0:path style="fill:none; stroke:black;" d="M0.332 -25.547 L0.582 -25.98 L1.082 -25.98" /><ns0:path style="fill:none; stroke:black;" d="M0.332 25.547 L0.582 25.98 L1.082 25.98" /><ns0:path style="fill:none; stroke:black;" d="M30.082 -25.98 L30.582 -25.98 L30.832 -25.547" /><ns0:path style="fill:none; stroke:black;" d="M30.082 25.98 L30.582 25.98 L30.832 25.547" /><ns0:path style="fill:none; stroke:black;" d="M45.332 -0.433 L45.582 0 L46.082 0" /><ns0:path style="fill:none; stroke:black;" d="M-44.7119 0.4045 L-44.418 0 L-43.918 0" /><ns0:path style="fill:none; stroke:black;" d="M-61.7581 23.8655 L-62.052 24.27 L-62.5275 24.1155" /><ns0:path style="stroke:none;" d="M-58.1145 -24.3403 Q-58.1145 -22.2778 -59.1536 -21.0981 Q-60.1926 -19.9184 -62.0364 -19.9184 Q-63.927 -19.9184 -64.9583 -21.0825 Q-65.9895 -22.2466 -65.9895 -24.3559 Q-65.9895 -26.4497 -64.9583 -27.5981 Q-63.927 -28.7466 -62.0364 -28.7466 Q-60.177 -28.7466 -59.1458 -27.5747 Q-58.1145 -26.4028 -58.1145 -24.3403 ZM-64.9426 -24.3403 Q-64.9426 -22.6059 -64.2004 -21.6997 Q-63.4583 -20.7934 -62.0364 -20.7934 Q-60.6145 -20.7934 -59.8879 -21.6919 Q-59.1614 -22.5903 -59.1614 -24.3403 Q-59.1614 -26.0747 -59.8879 -26.9653 Q-60.6145 -27.8559 -62.0364 -27.8559 Q-63.4583 -27.8559 -64.2004 -26.9575 Q-64.9426 -26.0591 -64.9426 -24.3403 Z" /><ns0:path style="fill:none; stroke:black;" d="M-90.1065 15.1545 L-90.582 15 L-90.582 14.5" /><ns0:path style="fill:none; stroke:black;" d="M-90.1065 -15.1545 L-90.582 -15 L-90.582 -14.5" /></ns0:g></ns0:g></ns0:svg></ns0:svg></ns0:svg></ns0:svg></g></svg>