<svg width="156" viewBox="0 0 156 111" style="fill-opacity:1; color-rendering:auto; color-interpolation:auto; text-rendering:auto; stroke:black; stroke-linecap:square; stroke-miterlimit:10; shape-rendering:auto; stroke-opacity:1; fill:black; stroke-dasharray:none; font-weight:normal; stroke-width:1; font-family:'Open Sans'; font-style:normal; stroke-linejoin:miter; font-size:12; stroke-dashoffset:0; image-rendering:auto;" height="111" class="cas-substance-image" xmlns:xlink="http://www.w3.org/1999/xlink" xmlns="http://www.w3.org/2000/svg"><svg class="cas-substance-single-component"><rect y="0" x="0" width="156" stroke="none" ry="7" rx="7" height="111" fill="white" class="cas-substance-group"/><svg y="0" x="0" width="156" viewBox="0 0 156 111" style="fill:black;" height="111" class="cas-substance-single-component-image"><svg><g><g transform="translate(78,54)" style="text-rendering:geometricPrecision; color-rendering:optimizeQuality; color-interpolation:linearRGB; stroke-linecap:butt; image-rendering:optimizeQuality;"><line y2="24.138" y1="43.7668" x2="-4.182" x1="-15.515" style="fill:none;"/><line y2="-7.6321" y1="9.0349" x2="-46.4095" x1="-64.917" style="fill:none;"/><line y2="-10.2334" y1="6.434" x2="-48.7511" x1="-67.2591" style="fill:none;"/><line y2="-1.842" y1="-1.842" x2="40.818" x1="64.4" style="fill:none;"/><line y2="-1.842" y1="-27.825" x2="-19.182" x1="-4.182" style="fill:none;"/><line y2="-27.825" y1="-27.825" x2="25.818" x1="-4.182" style="fill:none;"/><line y2="-24.325" y1="-24.325" x2="23.7973" x1="-2.1613" style="fill:none;"/><line y2="-50.118" y1="-27.825" x2="-24.255" x1="-4.182" style="fill:none;"/><line y2="24.138" y1="-1.842" x2="-4.182" x1="-19.182" style="fill:none;"/><line y2="20.638" y1="-1.8421" x2="-2.1613" x1="-15.1405" style="fill:none;"/><line y2="-8.082" y1="-1.842" x2="-48.525" x1="-19.182" style="fill:none;"/><line y2="-1.842" y1="-27.825" x2="40.818" x1="25.818" style="fill:none;"/><line y2="-37.917" y1="-50.118" x2="-51.66" x1="-24.255" style="fill:none;"/><line y2="24.138" y1="24.138" x2="25.818" x1="-4.182" style="fill:none;"/><line y2="-37.917" y1="-8.082" x2="-51.66" x1="-48.525" style="fill:none;"/><line y2="24.138" y1="-1.842" x2="25.818" x1="40.818" style="fill:none;"/><line y2="20.638" y1="-1.8421" x2="23.7973" x1="36.7766" style="fill:none;"/></g><g transform="translate(78,54)" style="fill:rgb(0,138,0); text-rendering:geometricPrecision; color-rendering:optimizeQuality; image-rendering:optimizeQuality; font-family:'Open Sans'; stroke:rgb(0,138,0); color-interpolation:linearRGB;"><path style="stroke:none;" d="M-19.4906 46.7586 Q-20.8968 46.7586 -21.7172 47.6961 Q-22.5375 48.6336 -22.5375 50.2743 Q-22.5375 51.9461 -21.7484 52.868 Q-20.9593 53.7899 -19.5062 53.7899 Q-18.6 53.7899 -17.4593 53.4618 L-17.4593 54.3368 Q-18.35 54.6805 -19.6468 54.6805 Q-21.5375 54.6805 -22.5687 53.5243 Q-23.6 52.368 -23.6 50.2586 Q-23.6 48.9305 -23.1078 47.9383 Q-22.6156 46.9461 -21.6781 46.4071 Q-20.7406 45.868 -19.475 45.868 Q-18.1312 45.868 -17.1156 46.3524 L-17.5375 47.2118 Q-18.5218 46.7586 -19.4906 46.7586 ZM-14.764 54.5555 L-15.7328 54.5555 L-15.7328 45.4305 L-14.764 45.4305 L-14.764 54.5555 Z"/><path style="fill:rgb(230,0,0); stroke:none;" d="M-66.8805 11.9237 Q-66.8805 13.9862 -67.9196 15.1659 Q-68.9586 16.3456 -70.8024 16.3456 Q-72.693 16.3456 -73.7243 15.1815 Q-74.7555 14.0174 -74.7555 11.9081 Q-74.7555 9.8143 -73.7243 8.6659 Q-72.693 7.5174 -70.8024 7.5174 Q-68.943 7.5174 -67.9118 8.6893 Q-66.8805 9.8612 -66.8805 11.9237 ZM-73.7086 11.9237 Q-73.7086 13.6581 -72.9664 14.5643 Q-72.2243 15.4706 -70.8024 15.4706 Q-69.3805 15.4706 -68.6539 14.5721 Q-67.9274 13.6737 -67.9274 11.9237 Q-67.9274 10.1893 -68.6539 9.2987 Q-69.3805 8.4081 -70.8024 8.4081 Q-72.2243 8.4081 -72.9664 9.3065 Q-73.7086 10.2049 -73.7086 11.9237 Z"/><path style="stroke:none;" d="M70.5094 -5.2014 Q69.1032 -5.2014 68.2828 -4.2639 Q67.4625 -3.3264 67.4625 -1.6858 Q67.4625 -0.0139 68.2516 0.908 Q69.0407 1.8299 70.4938 1.8299 Q71.4 1.8299 72.5407 1.5017 L72.5407 2.3767 Q71.65 2.7205 70.3532 2.7205 Q68.4625 2.7205 67.4313 1.5642 Q66.4 0.408 66.4 -1.7014 Q66.4 -3.0295 66.8922 -4.0217 Q67.3844 -5.0139 68.3219 -5.5529 Q69.2594 -6.092 70.525 -6.092 Q71.8688 -6.092 72.8844 -5.6076 L72.4625 -4.7483 Q71.4782 -5.2014 70.5094 -5.2014 ZM75.236 2.5955 L74.2672 2.5955 L74.2672 -6.5295 L75.236 -6.5295 L75.236 2.5955 Z"/></g><g transform="translate(78,54)" style="stroke-linecap:butt; text-rendering:geometricPrecision; color-rendering:optimizeQuality; image-rendering:optimizeQuality; font-family:'Open Sans'; color-interpolation:linearRGB; stroke-miterlimit:5;"><path style="fill:none;" d="M-3.682 -27.825 L-4.182 -27.825 L-4.432 -27.392"/><path style="fill:none;" d="M-18.932 -1.409 L-19.182 -1.842 L-19.6711 -1.946"/><path style="fill:none;" d="M25.318 -27.825 L25.818 -27.825 L26.068 -27.392"/><path style="fill:none;" d="M-23.9204 -49.7464 L-24.255 -50.118 L-24.7118 -49.9146"/><path style="fill:none;" d="M-4.432 23.705 L-4.182 24.138 L-4.432 24.571"/><path style="fill:none;" d="M-48.0359 -7.978 L-48.525 -8.082 L-48.5772 -8.5793"/><path style="fill:none;" d="M40.568 -1.409 L40.818 -1.842 L41.318 -1.842"/><path style="fill:none;" d="M-51.2032 -38.1204 L-51.66 -37.917 L-51.6077 -37.4197"/><path style="fill:none;" d="M25.318 24.138 L25.818 24.138 L26.068 23.705"/></g></g></svg></svg></svg></svg>