<svg width="403" viewBox="0 0 403 404" style="fill-opacity:1; color-rendering:auto; color-interpolation:auto; text-rendering:auto; stroke:black; stroke-linecap:square; stroke-miterlimit:10; shape-rendering:auto; stroke-opacity:1; fill:black; stroke-dasharray:none; font-weight:normal; stroke-width:1; font-family:'Open Sans'; font-style:normal; stroke-linejoin:miter; font-size:12; stroke-dashoffset:0; image-rendering:auto;" height="404" class="cas-substance-image" xmlns:xlink="http://www.w3.org/1999/xlink" xmlns="http://www.w3.org/2000/svg"><svg class="cas-substance-single-component"><rect y="0" x="0" width="403" stroke="none" ry="7" rx="7" height="404" fill="white" class="cas-substance-group"/><svg y="0" x="0" width="403" viewBox="0 0 403 404" style="fill:black;" height="404" class="cas-substance-single-component-image"><svg><g><g transform="translate(202,202)" style="text-rendering:geometricPrecision; color-rendering:optimizeQuality; color-interpolation:linearRGB; stroke-linecap:butt; image-rendering:optimizeQuality;"><line y2="72.2213" y1="51.963" x2="152.9795" x1="164.676" style="fill:none;"/><line y2="53.713" y1="53.713" x2="188.7385" x1="163.6656" style="fill:none;"/><line y2="50.213" y1="50.213" x2="188.7385" x1="163.6657" style="fill:none;"/><line y2="25.98" y1="51.963" x2="149.676" x1="164.676" style="fill:none;"/><line y2="-188.3244" y1="-164.676" x2="51.963" x1="51.963" style="fill:none;"/><line y2="-151.3994" y1="-163.6658" x2="71.4541" x1="50.213" style="fill:none;"/><line y2="-154.4303" y1="-166.6969" x2="73.2044" x1="51.963" style="fill:none;"/><line y2="-149.676" y1="-164.676" x2="25.98" x1="51.963" style="fill:none;"/><line y2="152.8546" y1="164.676" x2="-72.4376" x1="-51.963" style="fill:none;"/><line y2="188.1994" y1="163.6656" x2="-53.713" x1="-53.713" style="fill:none;"/><line y2="188.1994" y1="163.6657" x2="-50.213" x1="-50.213" style="fill:none;"/><line y2="149.676" y1="164.676" x2="-25.98" x1="-51.963" style="fill:none;"/><line y2="-72.295" y1="-51.963" x2="-152.937" x1="-164.676" style="fill:none;"/><line y2="-53.713" y1="-53.713" x2="-188.7385" x1="-163.6656" style="fill:none;"/><line y2="-50.213" y1="-50.213" x2="-188.7385" x1="-163.6657" style="fill:none;"/><line y2="-25.98" y1="-51.963" x2="-149.676" x1="-164.676" style="fill:none;"/><line y2="-26.73" y1="0" x2="61.053" x1="74.676" style="fill:none;"/><line y2="26.73" y1="0" x2="61.053" x1="74.676" style="fill:none;"/><line y2="23.3403" y1="0.2111" x2="58.8522" x1="70.6401" style="fill:none;"/><line y2="0" y1="0" x2="104.676" x1="74.676" style="fill:none;"/><line y2="-30.5785" y1="-26.73" x2="36.749" x1="61.053" style="fill:none;"/><line y2="-53.46" y1="-26.73" x2="74.673" x1="61.053" style="fill:none;"/><line y2="-53.2485" y1="-30.1195" x2="70.6371" x1="58.8519" style="fill:none;"/><line y2="30.5785" y1="26.73" x2="36.749" x1="61.053" style="fill:none;"/><line y2="53.46" y1="26.73" x2="74.673" x1="61.053" style="fill:none;"/><line y2="-61.053" y1="-37.8036" x2="26.73" x1="30.4115" style="fill:none;"/><line y2="-74.673" y1="-53.46" x2="53.46" x1="74.673" style="fill:none;"/><line y2="61.053" y1="37.5536" x2="26.73" x1="30.4511" style="fill:none;"/><line y2="58.5097" y1="37.0062" x2="23.5891" x1="26.9941" style="fill:none;"/><line y2="74.673" y1="53.46" x2="53.46" x1="74.673" style="fill:none;"/><line y2="70.7692" y1="52.414" x2="52.414" x1="70.7692" style="fill:none;"/><line y2="-74.673" y1="-61.053" x2="53.46" x1="26.73" style="fill:none;"/><line y2="-70.6371" y1="-58.8519" x2="53.2485" x1="30.1195" style="fill:none;"/><line y2="-74.676" y1="-61.053" x2="0" x1="26.73" style="fill:none;"/><line y2="74.673" y1="61.053" x2="53.46" x1="26.73" style="fill:none;"/><line y2="74.676" y1="61.053" x2="0" x1="26.73" style="fill:none;"/><line y2="-61.053" y1="-74.676" x2="-26.73" x1="0" style="fill:none;"/><line y2="-58.8522" y1="-70.6401" x2="-23.3403" x1="-0.2111" style="fill:none;"/><line y2="-104.676" y1="-74.676" x2="0" x1="0" style="fill:none;"/><line y2="61.053" y1="74.676" x2="-26.73" x1="0" style="fill:none;"/><line y2="58.8522" y1="70.6401" x2="-23.3403" x1="-0.2111" style="fill:none;"/><line y2="104.676" y1="74.676" x2="0" x1="0" style="fill:none;"/><line y2="-37.8036" y1="-61.053" x2="-30.4115" x1="-26.73" style="fill:none;"/><line y2="-74.673" y1="-61.053" x2="-53.46" x1="-26.73" style="fill:none;"/><line y2="37.5536" y1="61.053" x2="-30.4511" x1="-26.73" style="fill:none;"/><line y2="74.673" y1="61.053" x2="-53.46" x1="-26.73" style="fill:none;"/><line y2="-26.73" y1="-30.5785" x2="-61.053" x1="-36.749" style="fill:none;"/><line y2="-23.5891" y1="-27.1216" x2="-58.5097" x1="-36.2016" style="fill:none;"/><line y2="-53.46" y1="-74.673" x2="-74.673" x1="-53.46" style="fill:none;"/><line y2="-52.414" y1="-70.7692" x2="-70.7692" x1="-52.414" style="fill:none;"/><line y2="26.73" y1="30.5785" x2="-61.053" x1="-36.749" style="fill:none;"/><line y2="53.46" y1="74.673" x2="-74.673" x1="-53.46" style="fill:none;"/><line y2="52.414" y1="70.7692" x2="-70.7692" x1="-52.414" style="fill:none;"/><line y2="-53.46" y1="-26.73" x2="-74.673" x1="-61.053" style="fill:none;"/><line y2="0" y1="-26.73" x2="-74.676" x1="-61.053" style="fill:none;"/><line y2="53.46" y1="26.73" x2="-74.673" x1="-61.053" style="fill:none;"/><line y2="0" y1="26.73" x2="-74.676" x1="-61.053" style="fill:none;"/><line y2="0.2111" y1="23.3403" x2="-70.6401" x1="-58.8522" style="fill:none;"/><line y2="0" y1="0" x2="-104.676" x1="-74.676" style="fill:none;"/><line y2="25.98" y1="0" x2="119.676" x1="104.676" style="fill:none;"/><line y2="22.48" y1="-0.0001" x2="121.6967" x1="108.7175" style="fill:none;"/><line y2="-25.98" y1="0" x2="119.676" x1="104.676" style="fill:none;"/><line y2="25.98" y1="25.98" x2="149.676" x1="119.676" style="fill:none;"/><line y2="-25.98" y1="-25.98" x2="149.676" x1="119.676" style="fill:none;"/><line y2="-22.48" y1="-22.48" x2="147.6553" x1="121.6967" style="fill:none;"/><line y2="0" y1="25.98" x2="164.676" x1="149.676" style="fill:none;"/><line y2="-0.0001" y1="22.48" x2="160.6346" x1="147.6553" style="fill:none;"/><line y2="0" y1="-25.98" x2="164.676" x1="149.676" style="fill:none;"/><line y2="-119.676" y1="-104.676" x2="25.98" x1="0" style="fill:none;"/><line y2="-121.6967" y1="-108.7175" x2="22.48" x1="-0.0001" style="fill:none;"/><line y2="-119.676" y1="-104.676" x2="-25.98" x1="0" style="fill:none;"/><line y2="-149.676" y1="-119.676" x2="25.98" x1="25.98" style="fill:none;"/><line y2="-149.676" y1="-119.676" x2="-25.98" x1="-25.98" style="fill:none;"/><line y2="-147.6553" y1="-121.6967" x2="-22.48" x1="-22.48" style="fill:none;"/><line y2="-164.676" y1="-149.676" x2="0" x1="25.98" style="fill:none;"/><line y2="-160.6346" y1="-147.6553" x2="-0.0001" x1="22.48" style="fill:none;"/><line y2="-164.676" y1="-149.676" x2="0" x1="-25.98" style="fill:none;"/><line y2="119.676" y1="104.676" x2="-25.98" x1="0" style="fill:none;"/><line y2="121.6967" y1="108.7175" x2="-22.48" x1="0.0001" style="fill:none;"/><line y2="119.676" y1="104.676" x2="25.98" x1="0" style="fill:none;"/><line y2="149.676" y1="119.676" x2="-25.98" x1="-25.98" style="fill:none;"/><line y2="149.676" y1="119.676" x2="25.98" x1="25.98" style="fill:none;"/><line y2="147.6553" y1="121.6967" x2="22.48" x1="22.48" style="fill:none;"/><line y2="164.676" y1="149.676" x2="0" x1="-25.98" style="fill:none;"/><line y2="160.6346" y1="147.6553" x2="0.0001" x1="-22.48" style="fill:none;"/><line y2="164.676" y1="149.676" x2="0" x1="25.98" style="fill:none;"/><line y2="-25.98" y1="0" x2="-119.676" x1="-104.676" style="fill:none;"/><line y2="-22.48" y1="0.0001" x2="-121.6967" x1="-108.7175" style="fill:none;"/><line y2="25.98" y1="0" x2="-119.676" x1="-104.676" style="fill:none;"/><line y2="-25.98" y1="-25.98" x2="-149.676" x1="-119.676" style="fill:none;"/><line y2="25.98" y1="25.98" x2="-149.676" x1="-119.676" style="fill:none;"/><line y2="22.48" y1="22.48" x2="-147.6553" x1="-121.6967" style="fill:none;"/><line y2="0" y1="-25.98" x2="-164.676" x1="-149.676" style="fill:none;"/><line y2="0.0001" y1="-22.48" x2="-160.6346" x1="-147.6553" style="fill:none;"/><line y2="0" y1="25.98" x2="-164.676" x1="-149.676" style="fill:none;"/><path style="fill:none; stroke-miterlimit:5;" d="M164.426 52.396 L164.676 51.963 L164.426 51.53"/></g><g transform="translate(202,202)" style="stroke-linecap:butt; fill:rgb(230,0,0); text-rendering:geometricPrecision; color-rendering:optimizeQuality; image-rendering:optimizeQuality; font-family:'Open Sans'; stroke:rgb(230,0,0); color-interpolation:linearRGB; stroke-miterlimit:5;"><path style="stroke:none;" d="M153.6135 77.8727 Q153.6135 79.9352 152.5744 81.1149 Q151.5354 82.2946 149.6916 82.2946 Q147.801 82.2946 146.7698 81.1305 Q145.7385 79.9664 145.7385 77.8571 Q145.7385 75.7633 146.7698 74.6149 Q147.801 73.4664 149.6916 73.4664 Q151.551 73.4664 152.5823 74.6383 Q153.6135 75.8102 153.6135 77.8727 ZM146.7854 77.8727 Q146.7854 79.6071 147.5276 80.5133 Q148.2698 81.4196 149.6916 81.4196 Q151.1135 81.4196 151.8401 80.5211 Q152.5666 79.6227 152.5666 77.8727 Q152.5666 76.1383 151.8401 75.2477 Q151.1135 74.3571 149.6916 74.3571 Q148.2698 74.3571 147.5276 75.2555 Q146.7854 76.1539 146.7854 77.8727 Z"/><path style="stroke:none;" d="M144.7385 82.1696 L143.7385 82.1696 L143.7385 78.1383 L139.2229 78.1383 L139.2229 82.1696 L138.2229 82.1696 L138.2229 73.6071 L139.2229 73.6071 L139.2229 77.2477 L143.7385 77.2477 L143.7385 73.6071 L144.7385 73.6071 L144.7385 82.1696 Z"/><path style="stroke:none;" d="M198.6135 51.8927 Q198.6135 53.9552 197.5744 55.1349 Q196.5354 56.3146 194.6916 56.3146 Q192.801 56.3146 191.7698 55.1505 Q190.7385 53.9864 190.7385 51.8771 Q190.7385 49.7833 191.7698 48.6349 Q192.801 47.4864 194.6916 47.4864 Q196.551 47.4864 197.5823 48.6583 Q198.6135 49.8302 198.6135 51.8927 ZM191.7854 51.8927 Q191.7854 53.6271 192.5276 54.5333 Q193.2698 55.4396 194.6916 55.4396 Q196.1135 55.4396 196.8401 54.5411 Q197.5666 53.6427 197.5666 51.8927 Q197.5666 50.1583 196.8401 49.2677 Q196.1135 48.3771 194.6916 48.3771 Q193.2698 48.3771 192.5276 49.2755 Q191.7854 50.1739 191.7854 51.8927 Z"/><path style="fill:none; stroke:black;" d="M51.963 -165.176 L51.963 -164.676 L51.53 -164.426"/><path style="stroke:none;" d="M55.9005 -194.7463 Q55.9005 -192.6838 54.8614 -191.5041 Q53.8224 -190.3244 51.9786 -190.3244 Q50.088 -190.3244 49.0568 -191.4885 Q48.0255 -192.6526 48.0255 -194.7619 Q48.0255 -196.8557 49.0568 -198.0041 Q50.088 -199.1526 51.9786 -199.1526 Q53.838 -199.1526 54.8693 -197.9807 Q55.9005 -196.8088 55.9005 -194.7463 ZM49.0724 -194.7463 Q49.0724 -193.0119 49.8146 -192.1057 Q50.5568 -191.1994 51.9786 -191.1994 Q53.4005 -191.1994 54.1271 -192.0979 Q54.8536 -192.9963 54.8536 -194.7463 Q54.8536 -196.4807 54.1271 -197.3713 Q53.4005 -198.2619 51.9786 -198.2619 Q50.5568 -198.2619 49.8146 -197.3635 Q49.0724 -196.4651 49.0724 -194.7463 Z"/><path style="stroke:none;" d="M63.4161 -190.4494 L62.4161 -190.4494 L62.4161 -194.4807 L57.9005 -194.4807 L57.9005 -190.4494 L56.9005 -190.4494 L56.9005 -199.0119 L57.9005 -199.0119 L57.9005 -195.3713 L62.4161 -195.3713 L62.4161 -199.0119 L63.4161 -199.0119 L63.4161 -190.4494 Z"/><path style="stroke:none;" d="M81.8805 -149.7433 Q81.8805 -147.6808 80.8414 -146.5011 Q79.8024 -145.3214 77.9586 -145.3214 Q76.068 -145.3214 75.0368 -146.4855 Q74.0055 -147.6496 74.0055 -149.7589 Q74.0055 -151.8527 75.0368 -153.0011 Q76.068 -154.1496 77.9586 -154.1496 Q79.818 -154.1496 80.8493 -152.9777 Q81.8805 -151.8058 81.8805 -149.7433 ZM75.0524 -149.7433 Q75.0524 -148.0089 75.7946 -147.1027 Q76.5368 -146.1964 77.9586 -146.1964 Q79.3805 -146.1964 80.1071 -147.0949 Q80.8336 -147.9933 80.8336 -149.7433 Q80.8336 -151.4777 80.1071 -152.3683 Q79.3805 -153.2589 77.9586 -153.2589 Q76.5368 -153.2589 75.7946 -152.3605 Q75.0524 -151.4621 75.0524 -149.7433 Z"/><path style="fill:none; stroke:black;" d="M-52.396 164.426 L-51.963 164.676 L-51.53 164.426"/><path style="stroke:none;" d="M-74.0055 149.6057 Q-74.0055 151.6682 -75.0446 152.8479 Q-76.0836 154.0276 -77.9274 154.0276 Q-79.818 154.0276 -80.8493 152.8635 Q-81.8805 151.6994 -81.8805 149.5901 Q-81.8805 147.4963 -80.8493 146.3479 Q-79.818 145.1994 -77.9274 145.1994 Q-76.068 145.1994 -75.0368 146.3713 Q-74.0055 147.5432 -74.0055 149.6057 ZM-80.8336 149.6057 Q-80.8336 151.3401 -80.0914 152.2463 Q-79.3493 153.1526 -77.9274 153.1526 Q-76.5055 153.1526 -75.7789 152.2541 Q-75.0524 151.3557 -75.0524 149.6057 Q-75.0524 147.8713 -75.7789 146.9807 Q-76.5055 146.0901 -77.9274 146.0901 Q-79.3493 146.0901 -80.0914 146.9885 Q-80.8336 147.8869 -80.8336 149.6057 Z"/><path style="stroke:none;" d="M-82.8805 153.9026 L-83.8805 153.9026 L-83.8805 149.8713 L-88.3961 149.8713 L-88.3961 153.9026 L-89.3961 153.9026 L-89.3961 145.3401 L-88.3961 145.3401 L-88.3961 148.9807 L-83.8805 148.9807 L-83.8805 145.3401 L-82.8805 145.3401 L-82.8805 153.9026 Z"/><path style="stroke:none;" d="M-48.0255 194.6057 Q-48.0255 196.6682 -49.0646 197.8479 Q-50.1036 199.0276 -51.9474 199.0276 Q-53.838 199.0276 -54.8693 197.8635 Q-55.9005 196.6994 -55.9005 194.5901 Q-55.9005 192.4963 -54.8693 191.3479 Q-53.838 190.1994 -51.9474 190.1994 Q-50.088 190.1994 -49.0568 191.3713 Q-48.0255 192.5432 -48.0255 194.6057 ZM-54.8536 194.6057 Q-54.8536 196.3401 -54.1114 197.2463 Q-53.3693 198.1526 -51.9474 198.1526 Q-50.5255 198.1526 -49.7989 197.2541 Q-49.0724 196.3557 -49.0724 194.6057 Q-49.0724 192.8713 -49.7989 191.9807 Q-50.5255 191.0901 -51.9474 191.0901 Q-53.3693 191.0901 -54.1114 191.9885 Q-54.8536 192.8869 -54.8536 194.6057 Z"/><path style="fill:none; stroke:black;" d="M-164.426 -52.396 L-164.676 -51.963 L-164.426 -51.53"/><path style="stroke:none;" d="M-145.7385 -78.0133 Q-145.7385 -75.9508 -146.7776 -74.7711 Q-147.8166 -73.5914 -149.6604 -73.5914 Q-151.551 -73.5914 -152.5823 -74.7555 Q-153.6135 -75.9196 -153.6135 -78.0289 Q-153.6135 -80.1227 -152.5823 -81.2711 Q-151.551 -82.4196 -149.6604 -82.4196 Q-147.801 -82.4196 -146.7698 -81.2477 Q-145.7385 -80.0758 -145.7385 -78.0133 ZM-152.5666 -78.0133 Q-152.5666 -76.2789 -151.8244 -75.3727 Q-151.0823 -74.4664 -149.6604 -74.4664 Q-148.2385 -74.4664 -147.5119 -75.3649 Q-146.7854 -76.2633 -146.7854 -78.0133 Q-146.7854 -79.7477 -147.5119 -80.6383 Q-148.2385 -81.5289 -149.6604 -81.5289 Q-151.0823 -81.5289 -151.8244 -80.6305 Q-152.5666 -79.7321 -152.5666 -78.0133 Z"/><path style="stroke:none;" d="M-138.2229 -73.7164 L-139.2229 -73.7164 L-139.2229 -77.7477 L-143.7385 -77.7477 L-143.7385 -73.7164 L-144.7385 -73.7164 L-144.7385 -82.2789 L-143.7385 -82.2789 L-143.7385 -78.6383 L-139.2229 -78.6383 L-139.2229 -82.2789 L-138.2229 -82.2789 L-138.2229 -73.7164 Z"/><path style="stroke:none;" d="M-190.7385 -52.0333 Q-190.7385 -49.9708 -191.7776 -48.7911 Q-192.8166 -47.6114 -194.6604 -47.6114 Q-196.551 -47.6114 -197.5823 -48.7755 Q-198.6135 -49.9396 -198.6135 -52.0489 Q-198.6135 -54.1427 -197.5823 -55.2911 Q-196.551 -56.4396 -194.6604 -56.4396 Q-192.801 -56.4396 -191.7698 -55.2677 Q-190.7385 -54.0958 -190.7385 -52.0333 ZM-197.5666 -52.0333 Q-197.5666 -50.2989 -196.8244 -49.3927 Q-196.0823 -48.4864 -194.6604 -48.4864 Q-193.2385 -48.4864 -192.5119 -49.3849 Q-191.7854 -50.2833 -191.7854 -52.0333 Q-191.7854 -53.7677 -192.5119 -54.6583 Q-193.2385 -55.5489 -194.6604 -55.5489 Q-196.0823 -55.5489 -196.8244 -54.6505 Q-197.5666 -53.7521 -197.5666 -52.0333 Z"/><path style="fill:none; stroke:black;" d="M74.449 0.4455 L74.676 0 L75.176 0"/><path style="fill:none; stroke:black;" d="M61.28 -27.1755 L61.053 -26.73 L60.5592 -26.8082"/><path style="fill:none; stroke:black;" d="M61.28 26.2845 L61.053 26.73 L60.5592 26.8082"/><path style="fill:rgb(0,5,255); stroke:none;" d="M34.7736 -27.2658 L33.6329 -27.2658 L28.9454 -34.4533 L28.8986 -34.4533 Q28.9923 -33.1876 28.9923 -32.1408 L28.9923 -27.2658 L28.0704 -27.2658 L28.0704 -35.8283 L29.1954 -35.8283 L33.8673 -28.672 L33.9142 -28.672 Q33.9142 -28.8283 33.8673 -29.6876 Q33.8204 -30.547 33.8361 -30.922 L33.8361 -35.8283 L34.7736 -35.8283 L34.7736 -27.2658 Z"/><path style="fill:rgb(0,5,255); stroke:none;" d="M27.0704 -27.2658 L26.0704 -27.2658 L26.0704 -31.297 L21.5548 -31.297 L21.5548 -27.2658 L20.5548 -27.2658 L20.5548 -35.8283 L21.5548 -35.8283 L21.5548 -32.1876 L26.0704 -32.1876 L26.0704 -35.8283 L27.0704 -35.8283 L27.0704 -27.2658 Z"/><path style="fill:none; stroke:black;" d="M74.446 -53.0145 L74.673 -53.46 L74.3194 -53.8136"/><path style="fill:rgb(0,5,255); stroke:none;" d="M34.7736 35.5783 L33.6329 35.5783 L28.9454 28.3908 L28.8986 28.3908 Q28.9923 29.6564 28.9923 30.7033 L28.9923 35.5783 L28.0704 35.5783 L28.0704 27.0158 L29.1954 27.0158 L33.8673 34.172 L33.9142 34.172 Q33.9142 34.0158 33.8673 33.1564 Q33.8204 32.297 33.8361 31.922 L33.8361 27.0158 L34.7736 27.0158 L34.7736 35.5783 Z"/><path style="fill:none; stroke:black;" d="M74.446 53.0145 L74.673 53.46 L74.3194 53.8136"/><path style="fill:none; stroke:black;" d="M27.1755 -61.28 L26.73 -61.053 L26.8082 -60.5592"/><path style="fill:none; stroke:black;" d="M53.8136 -74.3194 L53.46 -74.673 L53.0145 -74.446"/><path style="fill:none; stroke:black;" d="M26.8082 60.5592 L26.73 61.053 L26.2845 61.28"/><path style="fill:none; stroke:black;" d="M53.8136 74.3194 L53.46 74.673 L53.0145 74.446"/><path style="fill:none; stroke:black;" d="M-0.4455 -74.449 L0 -74.676 L0 -75.176"/><path style="fill:none; stroke:black;" d="M-0.4455 74.449 L0 74.676 L0.4455 74.449"/><path style="fill:none; stroke:black;" d="M-26.2845 -61.28 L-26.73 -61.053 L-26.8082 -60.5592"/><path style="fill:none; stroke:black;" d="M-26.2845 61.28 L-26.73 61.053 L-26.8082 60.5592"/><path style="fill:rgb(0,5,255); stroke:none;" d="M-28.0704 -27.2658 L-29.2111 -27.2658 L-33.8986 -34.4533 L-33.9454 -34.4533 Q-33.8517 -33.1876 -33.8517 -32.1408 L-33.8517 -27.2658 L-34.7736 -27.2658 L-34.7736 -35.8283 L-33.6486 -35.8283 L-28.9767 -28.672 L-28.9298 -28.672 Q-28.9298 -28.8283 -28.9767 -29.6876 Q-29.0236 -30.547 -29.0079 -30.922 L-29.0079 -35.8283 L-28.0704 -35.8283 L-28.0704 -27.2658 Z"/><path style="fill:none; stroke:black;" d="M-53.0145 -74.446 L-53.46 -74.673 L-53.8136 -74.3194"/><path style="fill:rgb(0,5,255); stroke:none;" d="M-28.0704 35.5783 L-29.2111 35.5783 L-33.8986 28.3908 L-33.9454 28.3908 Q-33.8517 29.6564 -33.8517 30.7033 L-33.8517 35.5783 L-34.7736 35.5783 L-34.7736 27.0158 L-33.6486 27.0158 L-28.9767 34.172 L-28.9298 34.172 Q-28.9298 34.0158 -28.9767 33.1564 Q-29.0236 32.297 -29.0079 31.922 L-29.0079 27.0158 L-28.0704 27.0158 L-28.0704 35.5783 Z"/><path style="fill:rgb(0,5,255); stroke:none;" d="M-20.5548 35.5783 L-21.5548 35.5783 L-21.5548 31.547 L-26.0704 31.547 L-26.0704 35.5783 L-27.0704 35.5783 L-27.0704 27.0158 L-26.0704 27.0158 L-26.0704 30.6564 L-21.5548 30.6564 L-21.5548 27.0158 L-20.5548 27.0158 L-20.5548 35.5783 Z"/><path style="fill:none; stroke:black;" d="M-53.0145 74.446 L-53.46 74.673 L-53.8136 74.3194"/><path style="fill:none; stroke:black;" d="M-60.5592 -26.8082 L-61.053 -26.73 L-61.28 -26.2845"/><path style="fill:none; stroke:black;" d="M-74.3194 -53.8136 L-74.673 -53.46 L-74.446 -53.0145"/><path style="fill:none; stroke:black;" d="M-61.28 26.2845 L-61.053 26.73 L-60.5592 26.8082"/><path style="fill:none; stroke:black;" d="M-74.3194 53.8136 L-74.673 53.46 L-74.446 53.0145"/><path style="fill:none; stroke:black;" d="M-74.449 0.4455 L-74.676 0 L-75.176 -0"/><path style="fill:none; stroke:black;" d="M104.926 0.433 L104.676 0 L104.176 -0"/><path style="fill:none; stroke:black;" d="M119.426 25.547 L119.676 25.98 L120.176 25.98"/><path style="fill:none; stroke:black;" d="M119.426 -25.547 L119.676 -25.98 L120.176 -25.98"/><path style="fill:none; stroke:black;" d="M149.926 25.547 L149.676 25.98 L149.926 26.413"/><path style="fill:none; stroke:black;" d="M149.176 -25.98 L149.676 -25.98 L149.926 -25.547"/><path style="fill:none; stroke:black;" d="M164.426 0.433 L164.676 0 L164.426 -0.433"/><path style="fill:none; stroke:black;" d="M0.433 -104.926 L0 -104.676 L-0 -104.176"/><path style="fill:none; stroke:black;" d="M25.547 -119.426 L25.98 -119.676 L25.98 -120.176"/><path style="fill:none; stroke:black;" d="M-25.547 -119.426 L-25.98 -119.676 L-25.98 -120.176"/><path style="fill:none; stroke:black;" d="M25.547 -149.926 L25.98 -149.676 L26.413 -149.926"/><path style="fill:none; stroke:black;" d="M-25.98 -149.176 L-25.98 -149.676 L-25.547 -149.926"/><path style="fill:none; stroke:black;" d="M0.433 -164.426 L0 -164.676 L-0.433 -164.426"/><path style="fill:none; stroke:black;" d="M-0.433 104.926 L0 104.676 L0 104.176"/><path style="fill:none; stroke:black;" d="M-25.547 119.426 L-25.98 119.676 L-25.98 120.176"/><path style="fill:none; stroke:black;" d="M25.547 119.426 L25.98 119.676 L25.98 120.176"/><path style="fill:none; stroke:black;" d="M-25.547 149.926 L-25.98 149.676 L-26.413 149.926"/><path style="fill:none; stroke:black;" d="M25.98 149.176 L25.98 149.676 L25.547 149.926"/><path style="fill:none; stroke:black;" d="M-0.433 164.426 L0 164.676 L0.433 164.426"/><path style="fill:none; stroke:black;" d="M-104.926 -0.433 L-104.676 0 L-104.176 0"/><path style="fill:none; stroke:black;" d="M-119.426 -25.547 L-119.676 -25.98 L-120.176 -25.98"/><path style="fill:none; stroke:black;" d="M-119.426 25.547 L-119.676 25.98 L-120.176 25.98"/><path style="fill:none; stroke:black;" d="M-149.926 -25.547 L-149.676 -25.98 L-149.926 -26.413"/><path style="fill:none; stroke:black;" d="M-149.176 25.98 L-149.676 25.98 L-149.926 25.547"/><path style="fill:none; stroke:black;" d="M-164.426 -0.433 L-164.676 0 L-164.426 0.433"/></g></g></svg></svg></svg></svg>