<svg width="215" viewBox="0 0 215 135" style="fill-opacity:1; color-rendering:auto; color-interpolation:auto; text-rendering:auto; stroke:black; stroke-linecap:square; stroke-miterlimit:10; shape-rendering:auto; stroke-opacity:1; fill:black; stroke-dasharray:none; font-weight:normal; stroke-width:1; font-family:'Open Sans'; font-style:normal; stroke-linejoin:miter; font-size:12; stroke-dashoffset:0; image-rendering:auto;" height="135" class="cas-substance-image" xmlns:xlink="http://www.w3.org/1999/xlink" xmlns="http://www.w3.org/2000/svg"><svg class="cas-substance-single-component"><rect y="0" x="0" width="215" stroke="none" ry="7" rx="7" height="135" fill="white" class="cas-substance-group"/><svg y="0" x="0" width="215" viewBox="0 0 215 135" style="fill:black;" height="135" class="cas-substance-single-component-image"><svg><g><g transform="translate(105,67)" style="text-rendering:geometricPrecision; color-rendering:optimizeQuality; color-interpolation:linearRGB; stroke-linecap:butt; image-rendering:optimizeQuality;"><line y2="-17.9348" y1="-30" x2="59.8694" x1="38.97" style="fill:none;"/><line y2="-53.6484" y1="-28.9897" x2="40.72" x1="40.72" style="fill:none;"/><line y2="-53.6484" y1="-28.9896" x2="37.22" x1="37.22" style="fill:none;"/><line y2="-15" y1="-30" x2="12.99" x1="38.97" style="fill:none;"/><line y2="-27.0649" y1="-17.9351" x2="85.8494" x1="70.0366" style="fill:none;"/><line y2="-30" y1="-55.2773" x2="-12.99" x1="-12.99" style="fill:none;"/><line y2="53.5234" y1="36.1562" x2="-64.953" x1="-64.953" style="fill:none;"/><line y2="18.1786" y1="27.2859" x2="-85.4276" x1="-69.6538" style="fill:none;"/><line y2="15" y1="27.3645" x2="-38.97" x1="-60.3878" style="fill:none;"/><line y2="-30" y1="-15" x2="-12.99" x1="12.99" style="fill:none;"/><line y2="-25.9585" y1="-12.9793" x2="-12.9901" x1="9.49" style="fill:none;"/><line y2="15" y1="-15" x2="12.99" x1="12.99" style="fill:none;"/><line y2="-15" y1="-30" x2="-38.97" x1="-12.99" style="fill:none;"/><line y2="30" y1="15" x2="-12.99" x1="12.99" style="fill:none;"/><line y2="25.9585" y1="12.9793" x2="-12.9901" x1="9.49" style="fill:none;"/><line y2="15" y1="-15" x2="-38.97" x1="-38.97" style="fill:none;"/><line y2="12.9793" y1="-12.9793" x2="-35.47" x1="-35.47" style="fill:none;"/><line y2="15" y1="30" x2="-38.97" x1="-12.99" style="fill:none;"/><path style="fill:none; stroke-miterlimit:5;" d="M39.403 -29.75 L38.97 -30 L38.537 -29.75"/></g><g transform="translate(105,67)" style="stroke-linecap:butt; fill:rgb(0,5,255); text-rendering:geometricPrecision; color-rendering:optimizeQuality; image-rendering:optimizeQuality; font-family:'Open Sans'; stroke:rgb(0,5,255); color-interpolation:linearRGB; stroke-miterlimit:5;"><path style="stroke:none;" d="M68.3046 -10.8438 L67.1639 -10.8438 L62.4764 -18.0312 L62.4296 -18.0312 Q62.5233 -16.7656 62.5233 -15.7188 L62.5233 -10.8438 L61.6014 -10.8438 L61.6014 -19.4062 L62.7264 -19.4062 L67.3983 -12.25 L67.4452 -12.25 Q67.4452 -12.4062 67.3983 -13.2656 Q67.3514 -14.125 67.3671 -14.5 L67.3671 -19.4062 L68.3046 -19.4062 L68.3046 -10.8438 Z"/><path style="stroke:none;" d="M68.2108 -1.2812 L67.2108 -1.2812 L67.2108 -5.3125 L62.6952 -5.3125 L62.6952 -1.2812 L61.6952 -1.2812 L61.6952 -9.8438 L62.6952 -9.8438 L62.6952 -6.2031 L67.2108 -6.2031 L67.2108 -9.8438 L68.2108 -9.8438 L68.2108 -1.2812 Z"/><path style="fill:rgb(230,0,0); stroke:none;" d="M42.9075 -60.0703 Q42.9075 -58.0078 41.8684 -56.8281 Q40.8294 -55.6484 38.9856 -55.6484 Q37.095 -55.6484 36.0638 -56.8125 Q35.0325 -57.9766 35.0325 -60.0859 Q35.0325 -62.1797 36.0638 -63.3281 Q37.095 -64.4766 38.9856 -64.4766 Q40.845 -64.4766 41.8763 -63.3047 Q42.9075 -62.1328 42.9075 -60.0703 ZM36.0794 -60.0703 Q36.0794 -58.3359 36.8216 -57.4297 Q37.5638 -56.5234 38.9856 -56.5234 Q40.4075 -56.5234 41.1341 -57.4219 Q41.8606 -58.3203 41.8606 -60.0703 Q41.8606 -61.8047 41.1341 -62.6953 Q40.4075 -63.5859 38.9856 -63.5859 Q37.5638 -63.5859 36.8216 -62.6875 Q36.0794 -61.7891 36.0794 -60.0703 Z"/><path style="stroke:none;" d="M94.2846 -25.8438 L93.1439 -25.8438 L88.4564 -33.0312 L88.4096 -33.0312 Q88.5033 -31.7656 88.5033 -30.7188 L88.5033 -25.8438 L87.5814 -25.8438 L87.5814 -34.4062 L88.7064 -34.4062 L93.3783 -27.25 L93.4252 -27.25 Q93.4252 -27.4062 93.3783 -28.2656 Q93.3314 -29.125 93.3471 -29.5 L93.3471 -34.4062 L94.2846 -34.4062 L94.2846 -25.8438 Z"/><path style="stroke:none;" d="M101.8002 -25.8438 L100.8002 -25.8438 L100.8002 -29.875 L96.2846 -29.875 L96.2846 -25.8438 L95.2846 -25.8438 L95.2846 -34.4062 L96.2846 -34.4062 L96.2846 -30.7656 L100.8002 -30.7656 L100.8002 -34.4062 L101.8002 -34.4062 L101.8002 -25.8438 Z"/><path style="stroke:none;" d="M106.5502 -24.0344 L102.8002 -24.0344 L102.8002 -24.5969 L104.3002 -26.1125 Q104.9877 -26.8 105.2064 -27.0969 Q105.4252 -27.3937 105.5346 -27.675 Q105.6439 -27.9562 105.6439 -28.2844 Q105.6439 -28.7375 105.3705 -29.0031 Q105.0971 -29.2687 104.5971 -29.2687 Q104.2533 -29.2687 103.933 -29.1516 Q103.6127 -29.0344 103.2221 -28.7375 L102.8783 -29.175 Q103.6596 -29.8312 104.5971 -29.8312 Q105.3939 -29.8312 105.8549 -29.4172 Q106.3158 -29.0031 106.3158 -28.3156 Q106.3158 -27.7687 106.0111 -27.2375 Q105.7064 -26.7062 104.8627 -25.8937 L103.6127 -24.675 L103.6127 -24.6437 L106.5502 -24.6437 L106.5502 -24.0344 Z"/><path style="fill:rgb(0,138,0); stroke:none;" d="M-14.3806 -55.8438 L-15.3806 -55.8438 L-15.3806 -64.4062 L-10.5994 -64.4062 L-10.5994 -63.5312 L-14.3806 -63.5312 L-14.3806 -60.3906 L-10.8337 -60.3906 L-10.8337 -59.5 L-14.3806 -59.5 L-14.3806 -55.8438 Z"/><path style="fill:black; stroke:none;" d="M-67.9218 25.5938 L-65.4999 25.5938 Q-63.7968 25.5938 -63.0311 26.1016 Q-62.2655 26.6094 -62.2655 27.7031 Q-62.2655 28.4688 -62.6874 28.9688 Q-63.1093 29.4688 -63.9374 29.6094 L-63.9374 29.6719 Q-61.9843 30 -61.9843 31.7188 Q-61.9843 32.8594 -62.7577 33.5078 Q-63.5311 34.1562 -64.9218 34.1562 L-67.9218 34.1562 L-67.9218 25.5938 ZM-66.9218 29.25 L-65.2811 29.25 Q-64.2186 29.25 -63.7577 28.9219 Q-63.2968 28.5938 -63.2968 27.8125 Q-63.2968 27.0938 -63.8124 26.7734 Q-64.328 26.4531 -65.453 26.4531 L-66.9218 26.4531 L-66.9218 29.25 ZM-66.9218 30.0938 L-66.9218 33.3125 L-65.1249 33.3125 Q-64.0936 33.3125 -63.5702 32.9062 Q-63.0468 32.5 -63.0468 31.6406 Q-63.0468 30.8438 -63.5858 30.4688 Q-64.1249 30.0938 -65.2186 30.0938 L-66.9218 30.0938 Z"/><path style="fill:rgb(230,0,0); stroke:none;" d="M-61.0155 59.9297 Q-61.0155 61.9922 -62.0546 63.1719 Q-63.0936 64.3516 -64.9374 64.3516 Q-66.828 64.3516 -67.8593 63.1875 Q-68.8905 62.0234 -68.8905 59.9141 Q-68.8905 57.8203 -67.8593 56.6719 Q-66.828 55.5234 -64.9374 55.5234 Q-63.078 55.5234 -62.0468 56.6953 Q-61.0155 57.8672 -61.0155 59.9297 ZM-67.8436 59.9297 Q-67.8436 61.6641 -67.1014 62.5703 Q-66.3593 63.4766 -64.9374 63.4766 Q-63.5155 63.4766 -62.7889 62.5781 Q-62.0624 61.6797 -62.0624 59.9297 Q-62.0624 58.1953 -62.7889 57.3047 Q-63.5155 56.4141 -64.9374 56.4141 Q-66.3593 56.4141 -67.1014 57.3125 Q-67.8436 58.2109 -67.8436 59.9297 Z"/><path style="fill:rgb(230,0,0); stroke:none;" d="M-53.4999 64.2266 L-54.4999 64.2266 L-54.4999 60.1953 L-59.0155 60.1953 L-59.0155 64.2266 L-60.0155 64.2266 L-60.0155 55.6641 L-59.0155 55.6641 L-59.0155 59.3047 L-54.4999 59.3047 L-54.4999 55.6641 L-53.4999 55.6641 L-53.4999 64.2266 Z"/><path style="fill:rgb(230,0,0); stroke:none;" d="M-86.9955 14.9297 Q-86.9955 16.9922 -88.0346 18.1719 Q-89.0736 19.3516 -90.9174 19.3516 Q-92.808 19.3516 -93.8392 18.1875 Q-94.8705 17.0234 -94.8705 14.9141 Q-94.8705 12.8203 -93.8392 11.6719 Q-92.808 10.5234 -90.9174 10.5234 Q-89.058 10.5234 -88.0267 11.6953 Q-86.9955 12.8672 -86.9955 14.9297 ZM-93.8236 14.9297 Q-93.8236 16.6641 -93.0814 17.5703 Q-92.3392 18.4766 -90.9174 18.4766 Q-89.4955 18.4766 -88.7689 17.5781 Q-88.0424 16.6797 -88.0424 14.9297 Q-88.0424 13.1953 -88.7689 12.3047 Q-89.4955 11.4141 -90.9174 11.4141 Q-92.3392 11.4141 -93.0814 12.3125 Q-93.8236 13.2109 -93.8236 14.9297 Z"/><path style="fill:rgb(230,0,0); stroke:none;" d="M-95.8705 19.2266 L-96.8705 19.2266 L-96.8705 15.1953 L-101.3861 15.1953 L-101.3861 19.2266 L-102.3861 19.2266 L-102.3861 10.6641 L-101.3861 10.6641 L-101.3861 14.3047 L-96.8705 14.3047 L-96.8705 10.6641 L-95.8705 10.6641 L-95.8705 19.2266 Z"/><path style="fill:none; stroke:black;" d="M12.557 -15.25 L12.99 -15 L13.423 -15.25"/><path style="fill:none; stroke:black;" d="M-12.557 -29.75 L-12.99 -30 L-13.423 -29.75"/><path style="fill:none; stroke:black;" d="M12.99 14.5 L12.99 15 L12.557 15.25"/><path style="fill:none; stroke:black;" d="M-38.537 -15.25 L-38.97 -15 L-38.97 -14.5"/><path style="fill:none; stroke:black;" d="M-12.557 29.75 L-12.99 30 L-13.423 29.75"/><path style="fill:none; stroke:black;" d="M-38.97 14.5 L-38.97 15 L-39.403 15.25"/></g></g></svg></svg></svg></svg>