<svg width="163" viewBox="0 0 163 97" style="fill-opacity:1; color-rendering:auto; color-interpolation:auto; text-rendering:auto; stroke:black; stroke-linecap:square; stroke-miterlimit:10; shape-rendering:auto; stroke-opacity:1; fill:black; stroke-dasharray:none; font-weight:normal; stroke-width:1; font-family:'Open Sans'; font-style:normal; stroke-linejoin:miter; font-size:12; stroke-dashoffset:0; image-rendering:auto;" height="97" class="cas-substance-image" xmlns:xlink="http://www.w3.org/1999/xlink" xmlns="http://www.w3.org/2000/svg"><svg class="cas-substance-single-component"><rect y="0" x="0" width="163" stroke="none" ry="7" rx="7" height="97" fill="white" class="cas-substance-group"/><svg y="0" x="0" width="163" viewBox="0 0 163 97" style="fill:black;" height="97" class="cas-substance-single-component-image"><svg><g><g transform="translate(84,49)" style="text-rendering:geometricPrecision; color-rendering:optimizeQuality; color-interpolation:linearRGB; stroke-linecap:butt; image-rendering:optimizeQuality;"><line y2="3.1886" y1="15" x2="59.4298" x1="38.97" style="fill:none;"/><line y2="0" y1="15" x2="12.99" x1="38.97" style="fill:none;"/><line y2="15" y1="45" x2="-12.99" x1="-12.99" style="fill:none;"/><line y2="0" y1="12.0652" x2="-38.97" x1="-59.8694" style="fill:none;"/><line y2="15" y1="0" x2="-12.99" x1="12.99" style="fill:none;"/><line y2="10.9585" y1="-2.0207" x2="-12.9901" x1="9.49" style="fill:none;"/><line y2="-30" y1="0" x2="12.99" x1="12.99" style="fill:none;"/><line y2="0" y1="15" x2="-38.97" x1="-12.99" style="fill:none;"/><line y2="-45" y1="-30" x2="-12.99" x1="12.99" style="fill:none;"/><line y2="-40.9585" y1="-27.9793" x2="-12.9901" x1="9.49" style="fill:none;"/><line y2="-30" y1="0" x2="-38.97" x1="-38.97" style="fill:none;"/><line y2="-27.9793" y1="-2.0207" x2="-35.47" x1="-35.47" style="fill:none;"/><line y2="-30" y1="-45" x2="-38.97" x1="-12.99" style="fill:none;"/><path style="fill:none; stroke-miterlimit:5;" d="M39.403 14.75 L38.97 15 L38.537 14.75"/></g><g transform="translate(84,49)" style="stroke-linecap:butt; fill:rgb(230,0,0); text-rendering:geometricPrecision; color-rendering:optimizeQuality; image-rendering:optimizeQuality; font-family:'Open Sans'; stroke:rgb(230,0,0); color-interpolation:linearRGB; stroke-miterlimit:5;"><path style="stroke:none;" d="M68.8905 -0.0703 Q68.8905 1.9922 67.8514 3.1719 Q66.8124 4.3516 64.9686 4.3516 Q63.078 4.3516 62.0468 3.1875 Q61.0155 2.0234 61.0155 -0.0859 Q61.0155 -2.1797 62.0468 -3.3281 Q63.078 -4.4766 64.9686 -4.4766 Q66.828 -4.4766 67.8593 -3.3047 Q68.8905 -2.1328 68.8905 -0.0703 ZM62.0624 -0.0703 Q62.0624 1.6641 62.8046 2.5703 Q63.5468 3.4766 64.9686 3.4766 Q66.3905 3.4766 67.1171 2.5781 Q67.8436 1.6797 67.8436 -0.0703 Q67.8436 -1.8047 67.1171 -2.6953 Q66.3905 -3.5859 64.9686 -3.5859 Q63.5468 -3.5859 62.8046 -2.6875 Q62.0624 -1.7891 62.0624 -0.0703 Z"/><path style="stroke:none;" d="M76.4061 4.2266 L75.4061 4.2266 L75.4061 0.1953 L70.8905 0.1953 L70.8905 4.2266 L69.8905 4.2266 L69.8905 -4.3359 L70.8905 -4.3359 L70.8905 -0.6953 L75.4061 -0.6953 L75.4061 -4.3359 L76.4061 -4.3359 L76.4061 4.2266 Z"/><path style="fill:rgb(0,5,255); stroke:none;" d="M-61.6014 19.1562 L-62.7421 19.1562 L-67.4296 11.9688 L-67.4764 11.9688 Q-67.3827 13.2344 -67.3827 14.2812 L-67.3827 19.1562 L-68.3046 19.1562 L-68.3046 10.5938 L-67.1796 10.5938 L-62.5077 17.75 L-62.4608 17.75 Q-62.4608 17.5938 -62.5077 16.7344 Q-62.5546 15.875 -62.5389 15.5 L-62.5389 10.5938 L-61.6014 10.5938 L-61.6014 19.1562 Z"/><path style="fill:rgb(0,5,255); stroke:none;" d="M-74.0546 19.1562 L-75.0546 19.1562 L-75.0546 15.125 L-79.5702 15.125 L-79.5702 19.1562 L-80.5702 19.1562 L-80.5702 10.5938 L-79.5702 10.5938 L-79.5702 14.2344 L-75.0546 14.2344 L-75.0546 10.5938 L-74.0546 10.5938 L-74.0546 19.1562 Z"/><path style="fill:rgb(0,5,255); stroke:none;" d="M-69.3046 20.9656 L-73.0546 20.9656 L-73.0546 20.4031 L-71.5546 18.8875 Q-70.8671 18.2 -70.6483 17.9031 Q-70.4296 17.6063 -70.3202 17.325 Q-70.2108 17.0438 -70.2108 16.7156 Q-70.2108 16.2625 -70.4843 15.9969 Q-70.7577 15.7313 -71.2577 15.7313 Q-71.6014 15.7313 -71.9218 15.8484 Q-72.2421 15.9656 -72.6327 16.2625 L-72.9764 15.825 Q-72.1952 15.1688 -71.2577 15.1688 Q-70.4608 15.1688 -69.9999 15.5828 Q-69.5389 15.9969 -69.5389 16.6844 Q-69.5389 17.2313 -69.8436 17.7625 Q-70.1483 18.2938 -70.9921 19.1063 L-72.2421 20.325 L-72.2421 20.3563 L-69.3046 20.3563 L-69.3046 20.9656 Z"/><path style="fill:none; stroke:black;" d="M12.557 0.25 L12.99 0 L12.99 -0.5"/><path style="fill:none; stroke:black;" d="M-12.557 14.75 L-12.99 15 L-12.99 15.5"/><path style="fill:none; stroke:black;" d="M12.99 -29.5 L12.99 -30 L12.557 -30.25"/><path style="fill:none; stroke:black;" d="M-38.97 -0.5 L-38.97 0 L-39.403 0.25"/><path style="fill:none; stroke:black;" d="M-12.557 -44.75 L-12.99 -45 L-13.423 -44.75"/><path style="fill:none; stroke:black;" d="M-38.97 -29.5 L-38.97 -30 L-38.537 -30.25"/></g></g></svg></svg></svg></svg>