<svg width="135" viewBox="0 0 135 122" style="fill-opacity:1; color-rendering:auto; color-interpolation:auto; text-rendering:auto; stroke:black; stroke-linecap:square; stroke-miterlimit:10; shape-rendering:auto; stroke-opacity:1; fill:black; stroke-dasharray:none; font-weight:normal; stroke-width:1; font-family:'Open Sans'; font-style:normal; stroke-linejoin:miter; font-size:12; stroke-dashoffset:0; image-rendering:auto;" height="122" class="cas-substance-image" xmlns:xlink="http://www.w3.org/1999/xlink" xmlns="http://www.w3.org/2000/svg"><svg class="cas-substance-single-component"><rect y="0" x="0" width="135" stroke="none" ry="7" rx="7" height="122" fill="white" class="cas-substance-group"/><svg y="0" x="0" width="135" viewBox="0 0 135 122" style="fill:black;" height="122" class="cas-substance-single-component-image"><svg><g><g transform="translate(68,59)" style="text-rendering:geometricPrecision; color-rendering:optimizeQuality; color-interpolation:linearRGB; stroke-linecap:butt; image-rendering:optimizeQuality;"><line y2="20.109" y1="35.109" x2="16.431" x1="42.411" style="fill:none;"/><line y2="20.109" y1="47.514" x2="16.431" x1="4.227" style="fill:none;"/><line y2="24.8286" y1="49.3624" x2="-36.332" x1="-36.332" style="fill:none;"/><line y2="24.8286" y1="49.3624" x2="-39.832" x1="-39.832" style="fill:none;"/><line y2="-28.431" y1="-55.839" x2="16.431" x1="4.227" style="fill:none;"/><line y2="-28.431" y1="-43.431" x2="16.431" x1="42.411" style="fill:none;"/><line y2="-4.161" y1="-4.161" x2="34.062" x1="64.062" style="fill:none;"/><line y2="-19.161" y1="10.839" x2="-12.102" x1="-12.102" style="fill:none;"/><line y2="-17.1403" y1="8.8183" x2="-8.602" x1="-8.602" style="fill:none;"/><line y2="20.109" y1="10.839" x2="16.431" x1="-12.102" style="fill:none;"/><line y2="25.839" y1="10.839" x2="-38.082" x1="-12.102" style="fill:none;"/><line y2="-28.431" y1="-19.161" x2="16.431" x1="-12.102" style="fill:none;"/><line y2="-34.161" y1="-19.161" x2="-38.082" x1="-12.102" style="fill:none;"/><line y2="-4.161" y1="20.109" x2="34.062" x1="16.431" style="fill:none;"/><line y2="10.839" y1="25.839" x2="-64.062" x1="-38.082" style="fill:none;"/><line y2="-4.161" y1="-28.431" x2="34.062" x1="16.431" style="fill:none;"/><line y2="-19.161" y1="-34.161" x2="-64.062" x1="-38.082" style="fill:none;"/><line y2="-19.161" y1="10.839" x2="-64.062" x1="-64.062" style="fill:none;"/></g><g transform="translate(68,59)" style="fill:rgb(230,0,0); text-rendering:geometricPrecision; color-rendering:optimizeQuality; image-rendering:optimizeQuality; font-family:'Open Sans'; stroke:rgb(230,0,0); color-interpolation:linearRGB;"><path style="stroke:none;" d="M-34.1445 55.7687 Q-34.1445 57.8312 -35.1836 59.0109 Q-36.2226 60.1906 -38.0664 60.1906 Q-39.957 60.1906 -40.9883 59.0265 Q-42.0195 57.8624 -42.0195 55.7531 Q-42.0195 53.6593 -40.9883 52.5109 Q-39.957 51.3624 -38.0664 51.3624 Q-36.207 51.3624 -35.1758 52.5343 Q-34.1445 53.7062 -34.1445 55.7687 ZM-40.9726 55.7687 Q-40.9726 57.5031 -40.2304 58.4093 Q-39.4883 59.3156 -38.0664 59.3156 Q-36.6445 59.3156 -35.9179 58.4171 Q-35.1914 57.5187 -35.1914 55.7687 Q-35.1914 54.0343 -35.9179 53.1437 Q-36.6445 52.2531 -38.0664 52.2531 Q-39.4883 52.2531 -40.2304 53.1515 Q-40.9726 54.0499 -40.9726 55.7687 Z"/></g><g transform="translate(68,59)" style="stroke-linecap:butt; text-rendering:geometricPrecision; color-rendering:optimizeQuality; image-rendering:optimizeQuality; font-family:'Open Sans'; color-interpolation:linearRGB; stroke-miterlimit:5;"><path style="fill:none;" d="M-12.102 10.339 L-12.102 10.839 L-12.535 11.089"/><path style="fill:none;" d="M-12.102 -18.661 L-12.102 -19.161 L-11.6265 -19.3155"/><path style="fill:none;" d="M-37.649 25.589 L-38.082 25.839 L-38.515 25.589"/><path style="fill:none;" d="M-37.649 -33.911 L-38.082 -34.161 L-38.515 -33.911"/><path style="fill:none;" d="M-63.629 11.089 L-64.062 10.839 L-64.062 10.339"/><path style="fill:none;" d="M-63.629 -19.411 L-64.062 -19.161 L-64.062 -18.661"/></g></g></svg></svg></svg></svg>