<svg width="126" viewBox="0 0 126 71" style="fill-opacity:1; color-rendering:auto; color-interpolation:auto; text-rendering:auto; stroke:black; stroke-linecap:square; stroke-miterlimit:10; shape-rendering:auto; stroke-opacity:1; fill:black; stroke-dasharray:none; font-weight:normal; stroke-width:1; font-family:'Open Sans'; font-style:normal; stroke-linejoin:miter; font-size:12; stroke-dashoffset:0; image-rendering:auto;" height="71" class="cas-substance-image" xmlns:xlink="http://www.w3.org/1999/xlink" xmlns="http://www.w3.org/2000/svg"><svg class="cas-substance-single-component"><rect y="0" x="0" width="126" stroke="none" ry="7" rx="7" height="71" fill="white" class="cas-substance-group"/><svg y="0" x="0" width="126" viewBox="0 0 126 71" style="fill:black;" height="71" class="cas-substance-single-component-image"><svg><g><g transform="translate(55,37)" style="text-rendering:geometricPrecision; color-rendering:optimizeQuality; color-interpolation:linearRGB; stroke-linecap:butt; image-rendering:optimizeQuality;"><line y2="-15" y1="-30" x2="-25.98" x1="-51.963" style="fill:none;"/><line y2="-15" y1="-27.0652" x2="25.98" x1="46.8794" style="fill:none;"/><line y2="-15" y1="-27.0649" x2="-25.98" x1="-5.0836" style="fill:none;"/><line y2="-15" y1="-27.0649" x2="25.98" x1="5.0836" style="fill:none;"/><line y2="-12.9793" y1="-24.0338" x2="22.48" x1="3.3336" style="fill:none;"/><line y2="15" y1="-15" x2="-25.98" x1="-25.98" style="fill:none;"/><line y2="12.9793" y1="-12.9793" x2="-22.48" x1="-22.48" style="fill:none;"/><line y2="15" y1="-15" x2="25.98" x1="25.98" style="fill:none;"/><line y2="30" y1="15" x2="0" x1="-25.98" style="fill:none;"/><line y2="30" y1="15" x2="0" x1="25.98" style="fill:none;"/><line y2="25.9585" y1="12.9793" x2="-0.0001" x1="22.48" style="fill:none;"/></g><g transform="translate(55,37)" style="fill:rgb(0,5,255); text-rendering:geometricPrecision; color-rendering:optimizeQuality; image-rendering:optimizeQuality; font-family:'Open Sans'; stroke:rgb(0,5,255); color-interpolation:linearRGB;"><path style="stroke:none;" d="M55.3146 -25.8438 L54.1739 -25.8438 L49.4864 -33.0312 L49.4396 -33.0312 Q49.5333 -31.7656 49.5333 -30.7188 L49.5333 -25.8438 L48.6114 -25.8438 L48.6114 -34.4062 L49.7364 -34.4062 L54.4083 -27.25 L54.4552 -27.25 Q54.4552 -27.4062 54.4083 -28.2656 Q54.3614 -29.125 54.3771 -29.5 L54.3771 -34.4062 L55.3146 -34.4062 L55.3146 -25.8438 Z"/><path style="stroke:none;" d="M62.8302 -25.8438 L61.8302 -25.8438 L61.8302 -29.875 L57.3146 -29.875 L57.3146 -25.8438 L56.3146 -25.8438 L56.3146 -34.4062 L57.3146 -34.4062 L57.3146 -30.7656 L61.8302 -30.7656 L61.8302 -34.4062 L62.8302 -34.4062 L62.8302 -25.8438 Z"/><path style="stroke:none;" d="M67.5802 -24.0344 L63.8302 -24.0344 L63.8302 -24.5969 L65.3302 -26.1125 Q66.0177 -26.8 66.2364 -27.0969 Q66.4552 -27.3937 66.5646 -27.675 Q66.6739 -27.9562 66.6739 -28.2844 Q66.6739 -28.7375 66.4005 -29.0031 Q66.1271 -29.2687 65.6271 -29.2687 Q65.2833 -29.2687 64.963 -29.1516 Q64.6427 -29.0344 64.2521 -28.7375 L63.9083 -29.175 Q64.6896 -29.8312 65.6271 -29.8312 Q66.4239 -29.8312 66.8849 -29.4172 Q67.3458 -29.0031 67.3458 -28.3156 Q67.3458 -27.7687 67.0411 -27.2375 Q66.7364 -26.7062 65.8927 -25.8937 L64.6427 -24.675 L64.6427 -24.6437 L67.5802 -24.6437 L67.5802 -24.0344 Z"/><path style="stroke:none;" d="M3.3516 -25.8438 L2.2109 -25.8438 L-2.4766 -33.0312 L-2.5234 -33.0312 Q-2.4297 -31.7656 -2.4297 -30.7188 L-2.4297 -25.8438 L-3.3516 -25.8438 L-3.3516 -34.4062 L-2.2266 -34.4062 L2.4453 -27.25 L2.4922 -27.25 Q2.4922 -27.4062 2.4453 -28.2656 Q2.3984 -29.125 2.4141 -29.5 L2.4141 -34.4062 L3.3516 -34.4062 L3.3516 -25.8438 Z"/></g><g transform="translate(55,37)" style="stroke-linecap:butt; text-rendering:geometricPrecision; color-rendering:optimizeQuality; image-rendering:optimizeQuality; font-family:'Open Sans'; color-interpolation:linearRGB; stroke-miterlimit:5;"><path style="fill:none;" d="M-25.98 -14.5 L-25.98 -15 L-26.413 -15.25"/><path style="fill:none;" d="M25.547 -15.25 L25.98 -15 L26.413 -15.25"/><path style="fill:none;" d="M-25.98 14.5 L-25.98 15 L-25.547 15.25"/><path style="fill:none;" d="M25.98 14.5 L25.98 15 L25.547 15.25"/><path style="fill:none;" d="M-0.433 29.75 L0 30 L0.433 29.75"/></g></g></svg></svg></svg></svg>