<svg xmlns:ns0="http://www.w3.org/2000/svg" xmlns="http://www.w3.org/2000/svg"><g transform="translate(0, 0)"><ns0:svg width="147" viewBox="0 0 147 113" style="fill-opacity:1; color-rendering:auto; color-interpolation:auto; text-rendering:auto; stroke:black; stroke-linecap:square; stroke-miterlimit:10; shape-rendering:auto; stroke-opacity:1; fill:black; stroke-dasharray:none; font-weight:normal; stroke-width:1; font-family:'Open Sans'; font-style:normal; stroke-linejoin:miter; font-size:12; stroke-dashoffset:0; image-rendering:auto;" height="113" class="cas-substance-image"><ns0:svg class="cas-substance-single-component"><ns0:rect y="0" x="0" width="147" stroke="none" ry="7" rx="7" height="113" fill="white" class="cas-substance-group" /><ns0:svg y="0" x="0" width="147" viewBox="0 0 147 113" style="fill:black;" height="113" class="cas-substance-single-component-image"><ns0:svg><ns0:g><ns0:g transform="translate(73,57)" style="text-rendering:geometricPrecision; color-rendering:optimizeQuality; color-interpolation:linearRGB; stroke-linecap:butt; image-rendering:optimizeQuality;"><ns0:line y2="-8.724" y1="-8.724" x2="63.6824" x1="38.073" style="fill:none;" /><ns0:line y2="14.8698" y1="-8.724" x2="38.073" x1="38.073" style="fill:none;" /><ns0:line y2="-34.0013" y1="-8.724" x2="38.073" x1="38.073" style="fill:none;" /><ns0:line y2="-8.724" y1="-8.724" x2="8.073" x1="38.073" style="fill:none;" /><ns0:line y2="-8.724" y1="-28.5665" x2="8.073" x1="19.998" style="fill:none;" /><ns0:line y2="19.641" y1="43.0277" x2="-1.692" x1="-4.5641" style="fill:none;" /><ns0:line y2="19.641" y1="25.3889" x2="-1.692" x1="23.1977" style="fill:none;" /><ns0:line y2="-26.778" y1="-44.6909" x2="-15.885" x1="0.8203" style="fill:none;" /><ns0:line y2="-26.778" y1="-46.4735" x2="-15.885" x1="-33.0047" style="fill:none;" /><ns0:line y2="19.119" y1="24.0318" x2="-31.689" x1="-56.9634" style="fill:none;" /><ns0:line y2="19.119" y1="42.6064" x2="-31.689" x1="-29.6331" style="fill:none;" /><ns0:line y2="-9.57" y1="-32.3263" x2="-40.458" x1="-53.0747" style="fill:none;" /><ns0:line y2="-9.57" y1="0.4186" x2="-40.458" x1="-63.9914" style="fill:none;" /><ns0:line y2="19.641" y1="-8.724" x2="-1.692" x1="8.073" style="fill:none;" /><ns0:line y2="-26.778" y1="-8.724" x2="-15.885" x1="8.073" style="fill:none;" /><ns0:line y2="19.119" y1="19.641" x2="-31.689" x1="-1.692" style="fill:none;" /><ns0:line y2="-9.57" y1="-26.778" x2="-40.458" x1="-15.885" style="fill:none;" /><ns0:line y2="-9.57" y1="19.119" x2="-40.458" x1="-31.689" style="fill:none;" /></ns0:g><ns0:g transform="translate(73,57)" style="fill:rgb(0,138,0); text-rendering:geometricPrecision; color-rendering:optimizeQuality; image-rendering:optimizeQuality; font-family:'Open Sans'; stroke:rgb(0,138,0); color-interpolation:linearRGB;"><ns0:path style="stroke:none;" d="M66.6824 -4.5677 L65.6824 -4.5677 L65.6824 -13.1302 L70.4636 -13.1302 L70.4636 -12.2552 L66.6824 -12.2552 L66.6824 -9.1146 L70.2292 -9.1146 L70.2292 -8.224 L66.6824 -8.224 L66.6824 -4.5677 Z" /><ns0:path style="stroke:none;" d="M36.6824 25.4323 L35.6824 25.4323 L35.6824 16.8698 L40.4636 16.8698 L40.4636 17.7448 L36.6824 17.7448 L36.6824 20.8854 L40.2292 20.8854 L40.2292 21.776 L36.6824 21.776 L36.6824 25.4323 Z" /><ns0:path style="stroke:none;" d="M36.6824 -34.5677 L35.6824 -34.5677 L35.6824 -43.1302 L40.4636 -43.1302 L40.4636 -42.2552 L36.6824 -42.2552 L36.6824 -39.1146 L40.2292 -39.1146 L40.2292 -38.224 L36.6824 -38.224 L36.6824 -34.5677 Z" /><ns0:path style="stroke:none;" d="M17.8571 -38.8433 L20.2789 -38.8433 Q21.9821 -38.8433 22.7477 -38.3354 Q23.5133 -37.8276 23.5133 -36.7339 Q23.5133 -35.9683 23.0914 -35.4683 Q22.6696 -34.9683 21.8414 -34.8276 L21.8414 -34.7651 Q23.7946 -34.437 23.7946 -32.7183 Q23.7946 -31.5776 23.0211 -30.9292 Q22.2477 -30.2808 20.8571 -30.2808 L17.8571 -30.2808 L17.8571 -38.8433 ZM18.8571 -35.187 L20.4977 -35.187 Q21.5602 -35.187 22.0211 -35.5151 Q22.4821 -35.8433 22.4821 -36.6245 Q22.4821 -37.3433 21.9664 -37.6636 Q21.4508 -37.9839 20.3258 -37.9839 L18.8571 -37.9839 L18.8571 -35.187 ZM18.8571 -34.3433 L18.8571 -31.1245 L20.6539 -31.1245 Q21.6852 -31.1245 22.2086 -31.5308 Q22.7321 -31.937 22.7321 -32.7964 Q22.7321 -33.5933 22.193 -33.9683 Q21.6539 -34.3433 20.5602 -34.3433 L18.8571 -34.3433 ZM28.4293 -36.8276 Q28.8512 -36.8276 29.1949 -36.7495 L29.0543 -35.8433 Q28.6637 -35.937 28.3512 -35.937 Q27.5699 -35.937 27.0153 -35.3042 Q26.4606 -34.6714 26.4606 -33.7339 L26.4606 -30.2808 L25.4918 -30.2808 L25.4918 -36.7026 L26.2887 -36.7026 L26.4137 -35.5151 L26.4606 -35.5151 Q26.8043 -36.1401 27.3121 -36.4839 Q27.8199 -36.8276 28.4293 -36.8276 Z" /><ns0:path style="stroke:none;" d="M-6.7396 53.5752 L-7.7396 53.5752 L-7.7396 45.0127 L-2.9584 45.0127 L-2.9584 45.8877 L-6.7396 45.8877 L-6.7396 49.0284 L-3.1927 49.0284 L-3.1927 49.919 L-6.7396 49.919 L-6.7396 53.5752 Z" /><ns0:path style="stroke:none;" d="M26.1464 30.5473 L25.1464 30.5473 L25.1464 21.9848 L29.9276 21.9848 L29.9276 22.8598 L26.1464 22.8598 L26.1464 26.0004 L29.6933 26.0004 L29.6933 26.891 L26.1464 26.891 L26.1464 30.5473 Z" /><ns0:path style="stroke:none;" d="M3.1844 -44.5608 L2.1844 -44.5608 L2.1844 -53.1233 L6.9656 -53.1233 L6.9656 -52.2483 L3.1844 -52.2483 L3.1844 -49.1076 L6.7313 -49.1076 L6.7313 -48.217 L3.1844 -48.217 L3.1844 -44.5608 Z" /><ns0:path style="stroke:none;" d="M-36.9556 -45.2627 L-37.9556 -45.2627 L-37.9556 -53.8252 L-33.1744 -53.8252 L-33.1744 -52.9502 L-36.9556 -52.9502 L-36.9556 -49.8096 L-33.4088 -49.8096 L-33.4088 -48.919 L-36.9556 -48.919 L-36.9556 -45.2627 Z" /><ns0:path style="stroke:none;" d="M-62.5276 28.9993 L-63.5276 28.9993 L-63.5276 20.4368 L-58.7464 20.4368 L-58.7464 21.3118 L-62.5276 21.3118 L-62.5276 24.4524 L-58.9808 24.4524 L-58.9808 25.343 L-62.5276 25.343 L-62.5276 28.9993 Z" /><ns0:path style="stroke:none;" d="M-30.4636 53.1613 L-31.4636 53.1613 L-31.4636 44.5988 L-26.6824 44.5988 L-26.6824 45.4738 L-30.4636 45.4738 L-30.4636 48.6144 L-26.9167 48.6144 L-26.9167 49.505 L-30.4636 49.505 L-30.4636 53.1613 Z" /><ns0:path style="stroke:none;" d="M-56.3956 -31.6518 L-57.3956 -31.6518 L-57.3956 -40.2143 L-52.6144 -40.2143 L-52.6144 -39.3393 L-56.3956 -39.3393 L-56.3956 -36.1986 L-52.8488 -36.1986 L-52.8488 -35.308 L-56.3956 -35.308 L-56.3956 -31.6518 Z" /><ns0:path style="stroke:none;" d="M-69.4636 6.3073 L-70.4636 6.3073 L-70.4636 -2.2552 L-65.6824 -2.2552 L-65.6824 -1.3802 L-69.4636 -1.3802 L-69.4636 1.7604 L-65.9167 1.7604 L-65.9167 2.651 L-69.4636 2.651 L-69.4636 6.3073 Z" /></ns0:g></ns0:g></ns0:svg></ns0:svg></ns0:svg></ns0:svg></g></svg>