<svg width="255" viewBox="0 0 255 180" style="fill-opacity:1; color-rendering:auto; color-interpolation:auto; text-rendering:auto; stroke:black; stroke-linecap:square; stroke-miterlimit:10; shape-rendering:auto; stroke-opacity:1; fill:black; stroke-dasharray:none; font-weight:normal; stroke-width:1; font-family:'Open Sans'; font-style:normal; stroke-linejoin:miter; font-size:12; stroke-dashoffset:0; image-rendering:auto;" height="180" class="cas-substance-image" xmlns:xlink="http://www.w3.org/1999/xlink" xmlns="http://www.w3.org/2000/svg"><svg class="cas-substance-single-component"><rect y="0" x="0" width="255" stroke="none" ry="7" rx="7" height="180" fill="white" class="cas-substance-group"/><svg y="0" x="0" width="255" viewBox="0 0 255 180" style="fill:black;" height="180" class="cas-substance-single-component-image"><svg><g><g transform="translate(124,90)" style="text-rendering:geometricPrecision; color-rendering:optimizeQuality; color-interpolation:linearRGB; stroke-linecap:butt; image-rendering:optimizeQuality;"><line y2="-40.4351" y1="-52.5" x2="33.8864" x1="12.99" style="fill:none;"/><line y2="-76.1484" y1="-51.4896" x2="14.74" x1="14.74" style="fill:none;"/><line y2="-76.1484" y1="-51.4896" x2="11.24" x1="11.24" style="fill:none;"/><line y2="-37.5" y1="-52.5" x2="-12.99" x1="12.99" style="fill:none;"/><line y2="-52.5" y1="-40.4348" x2="64.953" x1="44.0537" style="fill:none;"/><line y2="-37.5" y1="-52.5" x2="90.933" x1="64.953" style="fill:none;"/><line y2="-49.3112" y1="-37.5" x2="111.39" x1="90.933" style="fill:none;"/><line y2="-7.5" y1="6.2113" x2="-12.99" x1="10.758" style="fill:none;"/><line y2="-52.5" y1="-76.3438" x2="-38.97" x1="-38.97" style="fill:none;"/><line y2="52.5" y1="40.4348" x2="-64.953" x1="-44.0537" style="fill:none;"/><line y2="7.5" y1="31.0938" x2="-38.97" x1="-38.97" style="fill:none;"/><line y2="37.5" y1="52.5" x2="-90.933" x1="-64.953" style="fill:none;"/><line y2="76.0234" y1="51.4896" x2="-66.703" x1="-66.703" style="fill:none;"/><line y2="76.0234" y1="51.4897" x2="-63.203" x1="-63.203" style="fill:none;"/><line y2="-76.1484" y1="-52.5" x2="-90.933" x1="-90.933" style="fill:none;"/><line y2="-42.2416" y1="-54.5207" x2="-112.2005" x1="-90.933" style="fill:none;"/><line y2="-39.2105" y1="-51.4896" x2="-110.4505" x1="-89.183" style="fill:none;"/><line y2="-37.5" y1="-52.5" x2="-64.953" x1="-90.933" style="fill:none;"/><line y2="-7.5" y1="6.2113" x2="-64.953" x1="-88.701" style="fill:none;"/><line y2="-7.5" y1="-37.5" x2="-12.99" x1="-12.99" style="fill:none;"/><line y2="-9.5207" y1="-35.4793" x2="-16.49" x1="-16.49" style="fill:none;"/><line y2="-52.5" y1="-37.5" x2="-38.97" x1="-12.99" style="fill:none;"/><line y2="7.5" y1="-7.5" x2="-38.97" x1="-12.99" style="fill:none;"/><line y2="-37.5" y1="-52.5" x2="-64.953" x1="-38.97" style="fill:none;"/><line y2="-35.4791" y1="-48.4585" x2="-61.4531" x1="-38.9702" style="fill:none;"/><line y2="-7.5" y1="7.5" x2="-64.953" x1="-38.97" style="fill:none;"/><line y2="-9.5209" y1="3.4585" x2="-61.4531" x1="-38.9702" style="fill:none;"/><line y2="-7.5" y1="-37.5" x2="-64.953" x1="-64.953" style="fill:none;"/><path style="fill:none; stroke-miterlimit:5;" d="M13.423 -52.25 L12.99 -52.5 L12.557 -52.25"/></g><g transform="translate(124,90)" style="stroke-linecap:butt; fill:rgb(0,5,255); text-rendering:geometricPrecision; color-rendering:optimizeQuality; image-rendering:optimizeQuality; font-family:'Open Sans'; stroke:rgb(0,5,255); color-interpolation:linearRGB; stroke-miterlimit:5;"><path style="stroke:none;" d="M42.3216 -33.3438 L41.1809 -33.3438 L36.4934 -40.5312 L36.4466 -40.5312 Q36.5403 -39.2656 36.5403 -38.2188 L36.5403 -33.3438 L35.6184 -33.3438 L35.6184 -41.9062 L36.7434 -41.9062 L41.4153 -34.75 L41.4622 -34.75 Q41.4622 -34.9062 41.4153 -35.7656 Q41.3684 -36.625 41.3841 -37 L41.3841 -41.9062 L42.3216 -41.9062 L42.3216 -33.3438 Z"/><path style="stroke:none;" d="M42.2278 -23.7812 L41.2278 -23.7812 L41.2278 -27.8125 L36.7122 -27.8125 L36.7122 -23.7812 L35.7122 -23.7812 L35.7122 -32.3438 L36.7122 -32.3438 L36.7122 -28.7031 L41.2278 -28.7031 L41.2278 -32.3438 L42.2278 -32.3438 L42.2278 -23.7812 Z"/><path style="fill:rgb(230,0,0); stroke:none;" d="M16.9275 -82.5703 Q16.9275 -80.5078 15.8884 -79.3281 Q14.8494 -78.1484 13.0056 -78.1484 Q11.115 -78.1484 10.0837 -79.3125 Q9.0525 -80.4766 9.0525 -82.5859 Q9.0525 -84.6797 10.0837 -85.8281 Q11.115 -86.9766 13.0056 -86.9766 Q14.865 -86.9766 15.8962 -85.8047 Q16.9275 -84.6328 16.9275 -82.5703 ZM10.0994 -82.5703 Q10.0994 -80.8359 10.8416 -79.9297 Q11.5837 -79.0234 13.0056 -79.0234 Q14.4275 -79.0234 15.1541 -79.9219 Q15.8806 -80.8203 15.8806 -82.5703 Q15.8806 -84.3047 15.1541 -85.1953 Q14.4275 -86.0859 13.0056 -86.0859 Q11.5837 -86.0859 10.8416 -85.1875 Q10.0994 -84.2891 10.0994 -82.5703 Z"/><path style="fill:none; stroke:black;" d="M64.52 -52.25 L64.953 -52.5 L65.386 -52.25"/><path style="fill:none; stroke:black;" d="M90.5 -37.75 L90.933 -37.5 L91.366 -37.75"/><path style="fill:rgb(230,0,0); stroke:none;" d="M120.8505 -52.5703 Q120.8505 -50.5078 119.8114 -49.3281 Q118.7724 -48.1484 116.9286 -48.1484 Q115.038 -48.1484 114.0068 -49.3125 Q112.9755 -50.4766 112.9755 -52.5859 Q112.9755 -54.6797 114.0068 -55.8281 Q115.038 -56.9766 116.9286 -56.9766 Q118.788 -56.9766 119.8193 -55.8047 Q120.8505 -54.6328 120.8505 -52.5703 ZM114.0224 -52.5703 Q114.0224 -50.8359 114.7646 -49.9297 Q115.5068 -49.0234 116.9286 -49.0234 Q118.3505 -49.0234 119.0771 -49.9219 Q119.8036 -50.8203 119.8036 -52.5703 Q119.8036 -54.3047 119.0771 -55.1953 Q118.3505 -56.0859 116.9286 -56.0859 Q115.5068 -56.0859 114.7646 -55.1875 Q114.0224 -54.2891 114.0224 -52.5703 Z"/><path style="fill:rgb(230,0,0); stroke:none;" d="M128.3661 -48.2734 L127.3661 -48.2734 L127.3661 -52.3047 L122.8505 -52.3047 L122.8505 -48.2734 L121.8505 -48.2734 L121.8505 -56.8359 L122.8505 -56.8359 L122.8505 -53.1953 L127.3661 -53.1953 L127.3661 -56.8359 L128.3661 -56.8359 L128.3661 -48.2734 Z"/><path style="fill:rgb(0,138,0); stroke:none;" d="M12.49 11.6562 L12.49 3.0938 L13.49 3.0938 L13.49 11.6562 L12.49 11.6562 Z"/><path style="fill:rgb(0,138,0); stroke:none;" d="M-39.47 -78.3438 L-39.47 -86.9062 L-38.47 -86.9062 L-38.47 -78.3438 L-39.47 -78.3438 Z"/><path style="stroke:none;" d="M-35.6184 41.6562 L-36.7591 41.6562 L-41.4466 34.4688 L-41.4934 34.4688 Q-41.3997 35.7344 -41.3997 36.7812 L-41.3997 41.6562 L-42.3216 41.6562 L-42.3216 33.0938 L-41.1966 33.0938 L-36.5247 40.25 L-36.4778 40.25 Q-36.4778 40.0938 -36.5247 39.2344 Q-36.5716 38.375 -36.5559 38 L-36.5559 33.0938 L-35.6184 33.0938 L-35.6184 41.6562 Z"/><path style="stroke:none;" d="M-28.1028 41.6562 L-29.1028 41.6562 L-29.1028 37.625 L-33.6184 37.625 L-33.6184 41.6562 L-34.6184 41.6562 L-34.6184 33.0938 L-33.6184 33.0938 L-33.6184 36.7344 L-29.1028 36.7344 L-29.1028 33.0938 L-28.1028 33.0938 L-28.1028 41.6562 Z"/><path style="fill:none; stroke:black;" d="M-64.52 52.25 L-64.953 52.5 L-65.386 52.25"/><path style="fill:rgb(230,0,0); stroke:none;" d="M-61.0155 82.4297 Q-61.0155 84.4922 -62.0546 85.6719 Q-63.0936 86.8516 -64.9374 86.8516 Q-66.828 86.8516 -67.8593 85.6875 Q-68.8905 84.5234 -68.8905 82.4141 Q-68.8905 80.3203 -67.8593 79.1719 Q-66.828 78.0234 -64.9374 78.0234 Q-63.078 78.0234 -62.0468 79.1953 Q-61.0155 80.3672 -61.0155 82.4297 ZM-67.8436 82.4297 Q-67.8436 84.1641 -67.1014 85.0703 Q-66.3593 85.9766 -64.9374 85.9766 Q-63.5155 85.9766 -62.7889 85.0781 Q-62.0624 84.1797 -62.0624 82.4297 Q-62.0624 80.6953 -62.7889 79.8047 Q-63.5155 78.9141 -64.9374 78.9141 Q-66.3593 78.9141 -67.1014 79.8125 Q-67.8436 80.7109 -67.8436 82.4297 Z"/><path style="fill:none; stroke:black;" d="M-90.933 -53 L-90.933 -52.5 L-90.5 -52.25"/><path style="fill:rgb(230,0,0); stroke:none;" d="M-86.9955 -82.5703 Q-86.9955 -80.5078 -88.0346 -79.3281 Q-89.0736 -78.1484 -90.9174 -78.1484 Q-92.808 -78.1484 -93.8392 -79.3125 Q-94.8705 -80.4766 -94.8705 -82.5859 Q-94.8705 -84.6797 -93.8392 -85.8281 Q-92.808 -86.9766 -90.9174 -86.9766 Q-89.058 -86.9766 -88.0267 -85.8047 Q-86.9955 -84.6328 -86.9955 -82.5703 ZM-93.8236 -82.5703 Q-93.8236 -80.8359 -93.0814 -79.9297 Q-92.3392 -79.0234 -90.9174 -79.0234 Q-89.4955 -79.0234 -88.7689 -79.9219 Q-88.0424 -80.8203 -88.0424 -82.5703 Q-88.0424 -84.3047 -88.7689 -85.1953 Q-89.4955 -86.0859 -90.9174 -86.0859 Q-92.3392 -86.0859 -93.0814 -85.1875 Q-93.8236 -84.2891 -93.8236 -82.5703 Z"/><path style="fill:rgb(230,0,0); stroke:none;" d="M-79.4799 -78.2734 L-80.4799 -78.2734 L-80.4799 -82.3047 L-84.9955 -82.3047 L-84.9955 -78.2734 L-85.9955 -78.2734 L-85.9955 -86.8359 L-84.9955 -86.8359 L-84.9955 -83.1953 L-80.4799 -83.1953 L-80.4799 -86.8359 L-79.4799 -86.8359 L-79.4799 -78.2734 Z"/><path style="fill:rgb(230,0,0); stroke:none;" d="M-112.9755 -37.5703 Q-112.9755 -35.5078 -114.0146 -34.3281 Q-115.0536 -33.1484 -116.8974 -33.1484 Q-118.788 -33.1484 -119.8193 -34.3125 Q-120.8505 -35.4766 -120.8505 -37.5859 Q-120.8505 -39.6797 -119.8193 -40.8281 Q-118.788 -41.9766 -116.8974 -41.9766 Q-115.038 -41.9766 -114.0068 -40.8047 Q-112.9755 -39.6328 -112.9755 -37.5703 ZM-119.8036 -37.5703 Q-119.8036 -35.8359 -119.0614 -34.9297 Q-118.3193 -34.0234 -116.8974 -34.0234 Q-115.4755 -34.0234 -114.7489 -34.9219 Q-114.0224 -35.8203 -114.0224 -37.5703 Q-114.0224 -39.3047 -114.7489 -40.1953 Q-115.4755 -41.0859 -116.8974 -41.0859 Q-118.3193 -41.0859 -119.0614 -40.1875 Q-119.8036 -39.2891 -119.8036 -37.5703 Z"/><path style="fill:rgb(0,138,0); stroke:none;" d="M-91.433 11.6562 L-91.433 3.0938 L-90.433 3.0938 L-90.433 11.6562 L-91.433 11.6562 Z"/><path style="fill:none; stroke:black;" d="M-12.99 -37 L-12.99 -37.5 L-12.557 -37.75"/><path style="fill:none; stroke:black;" d="M-12.99 -8 L-12.99 -7.5 L-12.557 -7.25"/><path style="fill:none; stroke:black;" d="M-39.403 -52.25 L-38.97 -52.5 L-38.97 -53"/><path style="fill:none; stroke:black;" d="M-39.403 7.25 L-38.97 7.5 L-38.537 7.25"/><path style="fill:none; stroke:black;" d="M-64.52 -37.75 L-64.953 -37.5 L-64.953 -37"/><path style="fill:none; stroke:black;" d="M-64.52 -7.25 L-64.953 -7.5 L-65.386 -7.25"/></g></g></svg></svg></svg></svg>