<svg width="131" viewBox="0 0 131 94" style="fill-opacity:1; color-rendering:auto; color-interpolation:auto; text-rendering:auto; stroke:black; stroke-linecap:square; stroke-miterlimit:10; shape-rendering:auto; stroke-opacity:1; fill:black; stroke-dasharray:none; font-weight:normal; stroke-width:1; font-family:'Open Sans'; font-style:normal; stroke-linejoin:miter; font-size:12; stroke-dashoffset:0; image-rendering:auto;" height="94" class="cas-substance-image" xmlns:xlink="http://www.w3.org/1999/xlink" xmlns="http://www.w3.org/2000/svg"><svg class="cas-substance-single-component"><rect y="0" x="0" width="131" stroke="none" ry="7" rx="7" height="94" fill="white" class="cas-substance-group"/><svg y="0" x="0" width="131" viewBox="0 0 131 94" style="fill:black;" height="94" class="cas-substance-single-component-image"><svg><g><g transform="translate(66,45)" style="text-rendering:geometricPrecision; color-rendering:optimizeQuality; color-interpolation:linearRGB; stroke-linecap:butt; image-rendering:optimizeQuality;"><line y2="12.87" y1="37.9591" x2="-44.421" x1="-52.573" style="fill:none;"/><line y2="3.6" y1="18.6" x2="36.072" x1="62.055" style="fill:none;"/><line y2="-26.4" y1="-2.8063" x2="-15.888" x1="-15.888" style="fill:none;"/><line y2="12.87" y1="5.3069" x2="-44.421" x1="-21.1417" style="fill:none;"/><line y2="18.6" y1="6.5351" x2="10.092" x1="-10.8044" style="fill:none;"/><line y2="-41.4" y1="-26.4" x2="10.092" x1="-15.888" style="fill:none;"/><line y2="-33.9656" y1="-26.4" x2="-39.1674" x1="-15.888" style="fill:none;"/><line y2="-30.637" y1="-23.6959" x2="-40.2491" x1="-18.8916" style="fill:none;"/><line y2="-11.4" y1="12.87" x2="-62.055" x1="-44.421" style="fill:none;"/><line y2="-11.8225" y1="9.1779" x2="-58.0357" x1="-42.7773" style="fill:none;"/><line y2="3.6" y1="18.6" x2="36.072" x1="10.092" style="fill:none;"/><line y2="1.5793" y1="14.5585" x2="32.572" x1="10.0919" style="fill:none;"/><line y2="-26.4" y1="-41.4" x2="36.072" x1="10.092" style="fill:none;"/><line y2="-24.3793" y1="-37.3586" x2="32.572" x1="10.0919" style="fill:none;"/><line y2="-11.4" y1="-29.8987" x2="-62.055" x1="-48.616" style="fill:none;"/><line y2="-26.4" y1="3.6" x2="36.072" x1="36.072" style="fill:none;"/></g><g transform="translate(66,45)" style="fill:rgb(0,138,0); text-rendering:geometricPrecision; color-rendering:optimizeQuality; image-rendering:optimizeQuality; font-family:'Open Sans'; stroke:rgb(0,138,0); color-interpolation:linearRGB;"><path style="stroke:none;" d="M-54.191 45.5563 L-54.191 36.9938 L-53.191 36.9938 L-53.191 45.5563 L-54.191 45.5563 Z"/><path style="fill:rgb(0,5,255); stroke:none;" d="M-12.5364 7.7562 L-13.6771 7.7562 L-18.3646 0.5687 L-18.4114 0.5687 Q-18.3177 1.8344 -18.3177 2.8812 L-18.3177 7.7562 L-19.2396 7.7562 L-19.2396 -0.8063 L-18.1146 -0.8063 L-13.4427 6.35 L-13.3958 6.35 Q-13.3958 6.1937 -13.4427 5.3344 Q-13.4896 4.475 -13.4739 4.1 L-13.4739 -0.8063 L-12.5364 -0.8063 L-12.5364 7.7562 Z"/></g><g transform="translate(66,45)" style="stroke-linecap:butt; text-rendering:geometricPrecision; color-rendering:optimizeQuality; image-rendering:optimizeQuality; font-family:'Open Sans'; color-interpolation:linearRGB; stroke-miterlimit:5;"><path style="fill:none;" d="M-16.3635 -26.5545 L-15.888 -26.4 L-15.455 -26.65"/><path style="fill:none;" d="M-44.7149 12.4655 L-44.421 12.87 L-44.5755 13.3455"/><path style="fill:none;" d="M9.659 18.35 L10.092 18.6 L10.525 18.35"/><path style="fill:none;" d="M9.659 -41.15 L10.092 -41.4 L10.525 -41.15"/><path style="fill:rgb(0,5,255); stroke:none;" d="M-41.0694 -31.5168 L-42.2101 -31.5168 L-46.8976 -38.7043 L-46.9444 -38.7043 Q-46.8507 -37.4386 -46.8507 -36.3918 L-46.8507 -31.5168 L-47.7726 -31.5168 L-47.7726 -40.0793 L-46.6476 -40.0793 L-41.9757 -32.923 L-41.9288 -32.923 Q-41.9288 -33.0793 -41.9757 -33.9386 Q-42.0226 -34.798 -42.0069 -35.173 L-42.0069 -40.0793 L-41.0694 -40.0793 L-41.0694 -31.5168 Z"/><path style="fill:none;" d="M-61.7611 -10.9955 L-62.055 -11.4 L-61.7611 -11.8045"/><path style="fill:none;" d="M35.639 3.85 L36.072 3.6 L36.072 3.1"/><path style="fill:none;" d="M35.639 -26.65 L36.072 -26.4 L36.072 -25.9"/></g></g></svg></svg></svg></svg>