<svg xmlns:ns0="http://www.w3.org/2000/svg" xmlns="http://www.w3.org/2000/svg"><g transform="translate(0, 0)"><ns0:svg width="215" viewBox="0 0 215 112" style="fill-opacity:1; color-rendering:auto; color-interpolation:auto; text-rendering:auto; stroke:black; stroke-linecap:square; stroke-miterlimit:10; shape-rendering:auto; stroke-opacity:1; fill:black; stroke-dasharray:none; font-weight:normal; stroke-width:1; font-family:'Open Sans'; font-style:normal; stroke-linejoin:miter; font-size:12; stroke-dashoffset:0; image-rendering:auto;" height="112" class="cas-substance-image"><ns0:svg class="cas-substance-single-component"><ns0:rect y="0" x="0" width="215" stroke="none" ry="7" rx="7" height="112" fill="white" class="cas-substance-group" /><ns0:svg y="0" x="0" width="215" viewBox="0 0 215 112" style="fill:black;" height="112" class="cas-substance-single-component-image"><ns0:svg><ns0:g><ns0:g transform="translate(107,56)" style="text-rendering:geometricPrecision; color-rendering:optimizeQuality; color-interpolation:linearRGB; stroke-linecap:butt; image-rendering:optimizeQuality;"><ns0:line y2="-7.5" y1="4.5649" x2="0" x1="-20.8964" style="fill:none;" /><ns0:line y2="37.5" y1="13.6562" x2="-25.98" x1="-25.98" style="fill:none;" /><ns0:line y2="-7.5" y1="4.5652" x2="-51.963" x1="-31.0637" style="fill:none;" /><ns0:line y2="7.5" y1="-7.5" x2="25.98" x1="0" style="fill:none;" /><ns0:line y2="52.5" y1="37.5" x2="-51.963" x1="-25.98" style="fill:none;" /><ns0:line y2="-7.5" y1="7.5" x2="51.963" x1="25.98" style="fill:none;" /><ns0:line y2="4.2586" y1="-7.5" x2="72.3289" x1="51.963" style="fill:none;" /><ns0:line y2="-31.1484" y1="-6.4896" x2="53.713" x1="53.713" style="fill:none;" /><ns0:line y2="-31.1484" y1="-6.4897" x2="50.213" x1="50.213" style="fill:none;" /><ns0:line y2="-7.5" y1="4.274" x2="103.923" x1="83.5305" style="fill:none;" /><ns0:line y2="-37.5" y1="-7.5" x2="-51.963" x1="-51.963" style="fill:none;" /><ns0:line y2="-35.4793" y1="-9.5207" x2="-55.463" x1="-55.463" style="fill:none;" /><ns0:line y2="7.5" y1="-7.5" x2="-77.943" x1="-51.963" style="fill:none;" /><ns0:line y2="-52.5" y1="-37.5" x2="-77.943" x1="-51.963" style="fill:none;" /><ns0:line y2="-7.5" y1="7.5" x2="-103.923" x1="-77.943" style="fill:none;" /><ns0:line y2="-9.5207" y1="3.4585" x2="-100.423" x1="-77.9429" style="fill:none;" /><ns0:line y2="-37.5" y1="-52.5" x2="-103.923" x1="-77.943" style="fill:none;" /><ns0:line y2="-35.4793" y1="-48.4585" x2="-100.423" x1="-77.9429" style="fill:none;" /><ns0:line y2="-37.5" y1="-7.5" x2="-103.923" x1="-103.923" style="fill:none;" /></ns0:g><ns0:g transform="translate(107,56)" style="fill:rgb(0,5,255); text-rendering:geometricPrecision; color-rendering:optimizeQuality; image-rendering:optimizeQuality; font-family:'Open Sans'; stroke:rgb(0,5,255); color-interpolation:linearRGB;"><ns0:path style="stroke:none;" d="M-22.6284 11.6562 L-23.7691 11.6562 L-28.4566 4.4688 L-28.5034 4.4688 Q-28.4097 5.7344 -28.4097 6.7812 L-28.4097 11.6562 L-29.3316 11.6562 L-29.3316 3.0938 L-28.2066 3.0938 L-23.5347 10.25 L-23.4878 10.25 Q-23.4878 10.0938 -23.5347 9.2344 Q-23.5816 8.375 -23.5659 8 L-23.5659 3.0938 L-22.6284 3.0938 L-22.6284 11.6562 Z" /></ns0:g><ns0:g transform="translate(107,56)" style="stroke-linecap:butt; text-rendering:geometricPrecision; color-rendering:optimizeQuality; image-rendering:optimizeQuality; font-family:'Open Sans'; color-interpolation:linearRGB; stroke-miterlimit:5;"><ns0:path style="fill:none;" d="M-0.433 -7.25 L0 -7.5 L0.433 -7.25" /><ns0:path style="fill:none;" d="M-25.98 37 L-25.98 37.5 L-26.413 37.75" /><ns0:path style="fill:none;" d="M25.547 7.25 L25.98 7.5 L26.413 7.25" /><ns0:path style="fill:none;" d="M51.53 -7.25 L51.963 -7.5 L52.396 -7.25" /><ns0:path style="fill:rgb(230,0,0); stroke:none;" d="M81.8805 7.4297 Q81.8805 9.4922 80.8414 10.6719 Q79.8024 11.8516 77.9586 11.8516 Q76.068 11.8516 75.0368 10.6875 Q74.0055 9.5234 74.0055 7.4141 Q74.0055 5.3203 75.0368 4.1719 Q76.068 3.0234 77.9586 3.0234 Q79.818 3.0234 80.8493 4.1953 Q81.8805 5.3672 81.8805 7.4297 ZM75.0524 7.4297 Q75.0524 9.1641 75.7946 10.0703 Q76.5368 10.9766 77.9586 10.9766 Q79.3805 10.9766 80.1071 10.0781 Q80.8336 9.1797 80.8336 7.4297 Q80.8336 5.6953 80.1071 4.8047 Q79.3805 3.9141 77.9586 3.9141 Q76.5368 3.9141 75.7946 4.8125 Q75.0524 5.7109 75.0524 7.4297 Z" /><ns0:path style="fill:rgb(230,0,0); stroke:none;" d="M55.9005 -37.5703 Q55.9005 -35.5078 54.8614 -34.3281 Q53.8224 -33.1484 51.9786 -33.1484 Q50.088 -33.1484 49.0568 -34.3125 Q48.0255 -35.4766 48.0255 -37.5859 Q48.0255 -39.6797 49.0568 -40.8281 Q50.088 -41.9766 51.9786 -41.9766 Q53.838 -41.9766 54.8693 -40.8047 Q55.9005 -39.6328 55.9005 -37.5703 ZM49.0724 -37.5703 Q49.0724 -35.8359 49.8146 -34.9297 Q50.5568 -34.0234 51.9786 -34.0234 Q53.4005 -34.0234 54.1271 -34.9219 Q54.8536 -35.8203 54.8536 -37.5703 Q54.8536 -39.3047 54.1271 -40.1953 Q53.4005 -41.0859 51.9786 -41.0859 Q50.5568 -41.0859 49.8146 -40.1875 Q49.0724 -39.2891 49.0724 -37.5703 Z" /><ns0:path style="fill:none;" d="M-51.963 -8 L-51.963 -7.5 L-51.53 -7.25" /><ns0:path style="fill:none;" d="M-51.963 -37 L-51.963 -37.5 L-52.396 -37.75" /><ns0:path style="fill:none;" d="M-77.51 7.25 L-77.943 7.5 L-78.376 7.25" /><ns0:path style="fill:none;" d="M-77.51 -52.25 L-77.943 -52.5 L-78.376 -52.25" /><ns0:path style="fill:none;" d="M-103.49 -7.25 L-103.923 -7.5 L-103.923 -8" /><ns0:path style="fill:none;" d="M-103.49 -37.75 L-103.923 -37.5 L-103.923 -37" /></ns0:g></ns0:g></ns0:svg></ns0:svg></ns0:svg></ns0:svg></g></svg>