<svg width="227" viewBox="0 0 227 115" style="fill-opacity:1; color-rendering:auto; color-interpolation:auto; text-rendering:auto; stroke:black; stroke-linecap:square; stroke-miterlimit:10; shape-rendering:auto; stroke-opacity:1; fill:black; stroke-dasharray:none; font-weight:normal; stroke-width:1; font-family:'Open Sans'; font-style:normal; stroke-linejoin:miter; font-size:12; stroke-dashoffset:0; image-rendering:auto;" height="115" class="cas-substance-image" xmlns:xlink="http://www.w3.org/1999/xlink" xmlns="http://www.w3.org/2000/svg"><svg class="cas-substance-single-component"><rect y="0" x="0" width="227" stroke="none" ry="7" rx="7" height="115" fill="white" class="cas-substance-group"/><svg y="0" x="0" width="227" viewBox="0 0 227 115" style="fill:black;" height="115" class="cas-substance-single-component-image"><svg><g><g transform="translate(119,59)" style="text-rendering:geometricPrecision; color-rendering:optimizeQuality; color-interpolation:linearRGB; stroke-linecap:butt; image-rendering:optimizeQuality;"><line y2="-25.98" y1="0" x2="-75" x1="-60" style="fill:none;"/><line y2="25.98" y1="0" x2="-75" x1="-60" style="fill:none;"/><line y2="0" y1="0" x2="-30" x1="-60" style="fill:none;"/><line y2="-25.98" y1="-25.98" x2="-99.0625" x1="-75" style="fill:none;"/><line y2="-45.4399" y1="-24.23" x2="-61.7451" x1="-73.9896" style="fill:none;"/><line y2="-47.1897" y1="-25.98" x2="-64.7763" x1="-77.0207" style="fill:none;"/><line y2="25.98" y1="0" x2="75" x1="60" style="fill:none;"/><line y2="-19.457" y1="1.75" x2="73.2546" x1="61.0104" style="fill:none;"/><line y2="-21.2071" y1="-0" x2="70.2235" x1="57.9793" style="fill:none;"/><line y2="0" y1="0" x2="30" x1="60" style="fill:none;"/><line y2="51.963" y1="25.98" x2="60" x1="75" style="fill:none;"/><line y2="25.98" y1="25.98" x2="105" x1="75" style="fill:none;"/><line y2="25.98" y1="0" x2="-15" x1="-30" style="fill:none;"/><line y2="22.48" y1="-0.0001" x2="-12.9793" x1="-25.9585" style="fill:none;"/><line y2="-25.98" y1="0" x2="-15" x1="-30" style="fill:none;"/><line y2="25.98" y1="25.98" x2="15" x1="-15" style="fill:none;"/><line y2="-25.98" y1="-25.98" x2="15" x1="-15" style="fill:none;"/><line y2="-22.48" y1="-22.48" x2="12.9793" x1="-12.9793" style="fill:none;"/><line y2="0" y1="25.98" x2="30" x1="15" style="fill:none;"/><line y2="-0.0001" y1="22.48" x2="25.9585" x1="12.9793" style="fill:none;"/><line y2="0" y1="-25.98" x2="30" x1="15" style="fill:none;"/><path style="fill:none; stroke-miterlimit:5;" d="M-74.75 -25.547 L-75 -25.98 L-75.5 -25.98"/></g><g transform="translate(119,59)" style="stroke-linecap:butt; fill:rgb(230,0,0); text-rendering:geometricPrecision; color-rendering:optimizeQuality; image-rendering:optimizeQuality; font-family:'Open Sans'; stroke:rgb(230,0,0); color-interpolation:linearRGB; stroke-miterlimit:5;"><path style="stroke:none;" d="M-101.0625 -26.0503 Q-101.0625 -23.9878 -102.1016 -22.8081 Q-103.1406 -21.6284 -104.9844 -21.6284 Q-106.875 -21.6284 -107.9062 -22.7925 Q-108.9375 -23.9566 -108.9375 -26.0659 Q-108.9375 -28.1597 -107.9062 -29.3081 Q-106.875 -30.4566 -104.9844 -30.4566 Q-103.125 -30.4566 -102.0938 -29.2847 Q-101.0625 -28.1128 -101.0625 -26.0503 ZM-107.8906 -26.0503 Q-107.8906 -24.3159 -107.1484 -23.4097 Q-106.4062 -22.5034 -104.9844 -22.5034 Q-103.5625 -22.5034 -102.8359 -23.4019 Q-102.1094 -24.3003 -102.1094 -26.0503 Q-102.1094 -27.7847 -102.8359 -28.6753 Q-103.5625 -29.5659 -104.9844 -29.5659 Q-106.4062 -29.5659 -107.1484 -28.6675 Q-107.8906 -27.7691 -107.8906 -26.0503 Z"/><path style="stroke:none;" d="M-109.9375 -21.7534 L-110.9375 -21.7534 L-110.9375 -25.7847 L-115.4531 -25.7847 L-115.4531 -21.7534 L-116.4531 -21.7534 L-116.4531 -30.3159 L-115.4531 -30.3159 L-115.4531 -26.6753 L-110.9375 -26.6753 L-110.9375 -30.3159 L-109.9375 -30.3159 L-109.9375 -21.7534 Z"/><path style="stroke:none;" d="M-56.0625 -52.0333 Q-56.0625 -49.9708 -57.1016 -48.7911 Q-58.1406 -47.6114 -59.9844 -47.6114 Q-61.875 -47.6114 -62.9062 -48.7755 Q-63.9375 -49.9396 -63.9375 -52.0489 Q-63.9375 -54.1427 -62.9062 -55.2911 Q-61.875 -56.4396 -59.9844 -56.4396 Q-58.125 -56.4396 -57.0938 -55.2677 Q-56.0625 -54.0958 -56.0625 -52.0333 ZM-62.8906 -52.0333 Q-62.8906 -50.2989 -62.1484 -49.3927 Q-61.4062 -48.4864 -59.9844 -48.4864 Q-58.5625 -48.4864 -57.8359 -49.3849 Q-57.1094 -50.2833 -57.1094 -52.0333 Q-57.1094 -53.7677 -57.8359 -54.6583 Q-58.5625 -55.5489 -59.9844 -55.5489 Q-61.4062 -55.5489 -62.1484 -54.6505 Q-62.8906 -53.7521 -62.8906 -52.0333 Z"/><path style="fill:none; stroke:black;" d="M60.25 0.433 L60 0 L59.5 -0"/><path style="stroke:none;" d="M78.9375 -26.0503 Q78.9375 -23.9878 77.8984 -22.8081 Q76.8594 -21.6284 75.0156 -21.6284 Q73.125 -21.6284 72.0938 -22.7925 Q71.0625 -23.9566 71.0625 -26.0659 Q71.0625 -28.1597 72.0938 -29.3081 Q73.125 -30.4566 75.0156 -30.4566 Q76.875 -30.4566 77.9062 -29.2847 Q78.9375 -28.1128 78.9375 -26.0503 ZM72.1094 -26.0503 Q72.1094 -24.3159 72.8516 -23.4097 Q73.5938 -22.5034 75.0156 -22.5034 Q76.4375 -22.5034 77.1641 -23.4019 Q77.8906 -24.3003 77.8906 -26.0503 Q77.8906 -27.7847 77.1641 -28.6753 Q76.4375 -29.5659 75.0156 -29.5659 Q73.5938 -29.5659 72.8516 -28.6675 Q72.1094 -27.7691 72.1094 -26.0503 Z"/><path style="fill:none; stroke:black;" d="M-29.75 0.433 L-30 0 L-30.5 -0"/><path style="fill:none; stroke:black;" d="M-15.25 25.547 L-15 25.98 L-14.5 25.98"/><path style="fill:none; stroke:black;" d="M-15.25 -25.547 L-15 -25.98 L-14.5 -25.98"/><path style="fill:none; stroke:black;" d="M14.5 25.98 L15 25.98 L15.25 25.547"/><path style="fill:none; stroke:black;" d="M14.5 -25.98 L15 -25.98 L15.25 -25.547"/><path style="fill:none; stroke:black;" d="M29.75 0.433 L30 0 L30.5 0"/></g></g></svg></svg></svg></svg>