<svg width="193" viewBox="0 0 193 131" style="fill-opacity:1; color-rendering:auto; color-interpolation:auto; text-rendering:auto; stroke:black; stroke-linecap:square; stroke-miterlimit:10; shape-rendering:auto; stroke-opacity:1; fill:black; stroke-dasharray:none; font-weight:normal; stroke-width:1; font-family:'Open Sans'; font-style:normal; stroke-linejoin:miter; font-size:12; stroke-dashoffset:0; image-rendering:auto;" height="131" class="cas-substance-image" xmlns:xlink="http://www.w3.org/1999/xlink" xmlns="http://www.w3.org/2000/svg"><svg class="cas-substance-single-component"><rect y="0" x="0" width="193" stroke="none" ry="7" rx="7" height="131" fill="white" class="cas-substance-group"/><svg y="0" x="0" width="193" viewBox="0 0 193 131" style="fill:black;" height="131" class="cas-substance-single-component-image"><svg><g><g transform="translate(91,66)" style="text-rendering:geometricPrecision; color-rendering:optimizeQuality; color-interpolation:linearRGB; stroke-linecap:butt; image-rendering:optimizeQuality;"><line y2="7.791" y1="-14.505" x2="-63.567" x1="-83.64" style="fill:none;"/><line y2="7.791" y1="25.422" x2="-63.567" x1="-87.837" style="fill:none;"/><line y2="33.771" y1="45.972" x2="-48.567" x1="-75.972" style="fill:none;"/><line y2="33.771" y1="62.301" x2="-48.567" x1="-39.297" style="fill:none;"/><line y2="-17.301" y1="-5.5424" x2="61.857" x1="82.2229" style="fill:none;"/><line y2="-11.9382" y1="-4.4364" x2="-37.7294" x1="-20.8818" style="fill:none;"/><line y2="21.0684" y1="3.8443" x2="-18.5416" x1="-16.7317" style="fill:none;"/><line y2="-17.301" y1="-4.9367" x2="9.894" x1="-11.5209" style="fill:none;"/><line y2="7.791" y1="-9.8107" x2="-63.567" x1="-47.7203" style="fill:none;"/><line y2="33.771" y1="28.7866" x2="-48.567" x1="-25.1148" style="fill:none;"/><line y2="33.771" y1="7.791" x2="-48.567" x1="-63.567" style="fill:none;"/><line y2="-2.301" y1="-17.301" x2="35.874" x1="9.894" style="fill:none;"/><line y2="-6.3425" y1="-19.3217" x2="35.874" x1="13.394" style="fill:none;"/><line y2="-47.301" y1="-17.301" x2="9.894" x1="9.894" style="fill:none;"/><line y2="-17.301" y1="-2.301" x2="61.857" x1="35.874" style="fill:none;"/><line y2="-62.301" y1="-47.301" x2="35.874" x1="9.894" style="fill:none;"/><line y2="-58.2595" y1="-45.2803" x2="35.874" x1="13.394" style="fill:none;"/><line y2="-47.301" y1="-17.301" x2="61.857" x1="61.857" style="fill:none;"/><line y2="-45.2803" y1="-19.3217" x2="58.357" x1="58.357" style="fill:none;"/><line y2="-47.301" y1="-62.301" x2="61.857" x1="35.874" style="fill:none;"/></g><g transform="translate(91,66)" style="fill:rgb(230,0,0); text-rendering:geometricPrecision; color-rendering:optimizeQuality; image-rendering:optimizeQuality; font-family:'Open Sans'; stroke:rgb(230,0,0); color-interpolation:linearRGB;"><path style="stroke:none;" d="M91.7745 -2.3713 Q91.7745 -0.3088 90.7354 0.8709 Q89.6964 2.0506 87.8526 2.0506 Q85.962 2.0506 84.9308 0.8865 Q83.8995 -0.2776 83.8995 -2.3869 Q83.8995 -4.4807 84.9308 -5.6291 Q85.962 -6.7776 87.8526 -6.7776 Q89.712 -6.7776 90.7433 -5.6057 Q91.7745 -4.4338 91.7745 -2.3713 ZM84.9464 -2.3713 Q84.9464 -0.6369 85.6886 0.2693 Q86.4308 1.1756 87.8526 1.1756 Q89.2745 1.1756 90.0011 0.2771 Q90.7276 -0.6213 90.7276 -2.3713 Q90.7276 -4.1057 90.0011 -4.9963 Q89.2745 -5.8869 87.8526 -5.8869 Q86.4308 -5.8869 85.6886 -4.9885 Q84.9464 -4.0901 84.9464 -2.3713 Z"/><path style="stroke:none;" d="M99.2901 1.9256 L98.2901 1.9256 L98.2901 -2.1057 L93.7745 -2.1057 L93.7745 1.9256 L92.7745 1.9256 L92.7745 -6.6369 L93.7745 -6.6369 L93.7745 -2.9963 L98.2901 -2.9963 L98.2901 -6.6369 L99.2901 -6.6369 L99.2901 1.9256 Z"/><path style="fill:black; stroke:none;" d="M-19.0548 -6.7073 L-16.6329 -6.7073 Q-14.9298 -6.7073 -14.1641 -6.1994 Q-13.3985 -5.6916 -13.3985 -4.5979 Q-13.3985 -3.8323 -13.8204 -3.3323 Q-14.2423 -2.8323 -15.0704 -2.6916 L-15.0704 -2.6291 Q-13.1173 -2.301 -13.1173 -0.5823 Q-13.1173 0.5584 -13.8907 1.2068 Q-14.6641 1.8552 -16.0548 1.8552 L-19.0548 1.8552 L-19.0548 -6.7073 ZM-18.0548 -3.051 L-16.4141 -3.051 Q-15.3516 -3.051 -14.8907 -3.3791 Q-14.4298 -3.7073 -14.4298 -4.4885 Q-14.4298 -5.2073 -14.9454 -5.5276 Q-15.461 -5.8479 -16.586 -5.8479 L-18.0548 -5.8479 L-18.0548 -3.051 ZM-18.0548 -2.2073 L-18.0548 1.0115 L-16.2579 1.0115 Q-15.2266 1.0115 -14.7032 0.6052 Q-14.1798 0.199 -14.1798 -0.6604 Q-14.1798 -1.4573 -14.7188 -1.8323 Q-15.2579 -2.2073 -16.3516 -2.2073 L-18.0548 -2.2073 Z"/><path style="stroke:none;" d="M-39.5565 -14.5753 Q-39.5565 -12.5128 -40.5956 -11.3331 Q-41.6346 -10.1534 -43.4784 -10.1534 Q-45.369 -10.1534 -46.4002 -11.3175 Q-47.4315 -12.4816 -47.4315 -14.5909 Q-47.4315 -16.6847 -46.4002 -17.8331 Q-45.369 -18.9816 -43.4784 -18.9816 Q-41.619 -18.9816 -40.5877 -17.8097 Q-39.5565 -16.6378 -39.5565 -14.5753 ZM-46.3846 -14.5753 Q-46.3846 -12.8409 -45.6424 -11.9347 Q-44.9002 -11.0284 -43.4784 -11.0284 Q-42.0565 -11.0284 -41.3299 -11.9269 Q-40.6034 -12.8253 -40.6034 -14.5753 Q-40.6034 -16.3097 -41.3299 -17.2003 Q-42.0565 -18.0909 -43.4784 -18.0909 Q-44.9002 -18.0909 -45.6424 -17.1925 Q-46.3846 -16.2941 -46.3846 -14.5753 Z"/><path style="stroke:none;" d="M-15.2835 27.4637 Q-15.2835 29.5262 -16.3226 30.7059 Q-17.3616 31.8856 -19.2054 31.8856 Q-21.096 31.8856 -22.1272 30.7215 Q-23.1585 29.5574 -23.1585 27.4481 Q-23.1585 25.3543 -22.1272 24.2059 Q-21.096 23.0574 -19.2054 23.0574 Q-17.346 23.0574 -16.3147 24.2293 Q-15.2835 25.4012 -15.2835 27.4637 ZM-22.1116 27.4637 Q-22.1116 29.1981 -21.3694 30.1043 Q-20.6272 31.0106 -19.2054 31.0106 Q-17.7835 31.0106 -17.0569 30.1121 Q-16.3304 29.2137 -16.3304 27.4637 Q-16.3304 25.7293 -17.0569 24.8387 Q-17.7835 23.9481 -19.2054 23.9481 Q-20.6272 23.9481 -21.3694 24.8465 Q-22.1116 25.7449 -22.1116 27.4637 Z"/></g><g transform="translate(91,66)" style="stroke-linecap:butt; text-rendering:geometricPrecision; color-rendering:optimizeQuality; image-rendering:optimizeQuality; font-family:'Open Sans'; color-interpolation:linearRGB; stroke-miterlimit:5;"><path style="fill:none;" d="M10.327 -17.051 L9.894 -17.301 L9.461 -17.051"/><path style="fill:none;" d="M35.441 -2.551 L35.874 -2.301 L36.307 -2.551"/><path style="fill:none;" d="M9.894 -46.801 L9.894 -47.301 L10.327 -47.551"/><path style="fill:none;" d="M61.857 -17.801 L61.857 -17.301 L62.29 -17.051"/><path style="fill:none;" d="M35.441 -62.051 L35.874 -62.301 L36.307 -62.051"/><path style="fill:none;" d="M61.857 -46.801 L61.857 -47.301 L61.424 -47.551"/></g></g></svg></svg></svg></svg>