<svg width="162" viewBox="0 0 162 90" style="fill-opacity:1; color-rendering:auto; color-interpolation:auto; text-rendering:auto; stroke:black; stroke-linecap:square; stroke-miterlimit:10; shape-rendering:auto; stroke-opacity:1; fill:black; stroke-dasharray:none; font-weight:normal; stroke-width:1; font-family:'Open Sans'; font-style:normal; stroke-linejoin:miter; font-size:12; stroke-dashoffset:0; image-rendering:auto;" height="90" class="cas-substance-image" xmlns:xlink="http://www.w3.org/1999/xlink" xmlns="http://www.w3.org/2000/svg"><svg class="cas-substance-single-component"><rect y="0" x="0" width="162" stroke="none" ry="7" rx="7" height="90" fill="white" class="cas-substance-group"/><svg y="0" x="0" width="162" viewBox="0 0 162 90" style="fill:black;" height="90" class="cas-substance-single-component-image"><svg><g><g transform="translate(81,45)" style="text-rendering:geometricPrecision; color-rendering:optimizeQuality; color-interpolation:linearRGB; stroke-linecap:butt; image-rendering:optimizeQuality;"><line y2="7.5" y1="-7.5" x2="-51.963" x1="-25.98" style="fill:none;"/><line y2="4.2586" y1="-7.5" x2="-5.6141" x1="-25.98" style="fill:none;"/><line y2="-31.1484" y1="-6.4896" x2="-24.23" x1="-24.23" style="fill:none;"/><line y2="-31.1484" y1="-6.4897" x2="-27.73" x1="-27.73" style="fill:none;"/><line y2="-7.5" y1="7.5" x2="-77.943" x1="-51.963" style="fill:none;"/><path style="stroke:none;" d="M-52.463 7.5 L-51.463 7.5 L-48.963 31.0234 L-54.963 31.0234 Z"/><line y2="-7.5" y1="4.274" x2="25.98" x1="5.5875" style="fill:none;"/><line y2="7.5" y1="-7.5" x2="51.963" x1="25.98" style="fill:none;"/><line y2="-7.5" y1="7.5" x2="77.943" x1="51.963" style="fill:none;"/><path style="fill:none; stroke-miterlimit:5;" d="M-26.413 -7.25 L-25.98 -7.5 L-25.547 -7.25"/></g><g transform="translate(81,45)" style="stroke-linecap:butt; font-size:8.4px; fill:gray; text-rendering:geometricPrecision; image-rendering:optimizeQuality; color-rendering:optimizeQuality; font-family:'Open Sans'; font-style:italic; stroke:gray; color-interpolation:linearRGB; stroke-miterlimit:5;"><path style="stroke:none;" d="M-56.0713 -1.2969 Q-56.0713 -2.625 -55.6025 -3.75 Q-55.1338 -4.875 -54.1025 -5.9531 L-53.4931 -5.9531 Q-54.4619 -4.8906 -54.9463 -3.7188 Q-55.4306 -2.5469 -55.4306 -1.3125 Q-55.4306 0.0156 -54.9931 1.0312 L-55.5088 1.0312 Q-56.0713 0 -56.0713 -1.2969 ZM-50.4487 -1.8906 Q-50.4487 -1.0625 -50.9956 -0.6094 Q-51.5425 -0.1562 -52.5425 -0.1562 Q-52.9487 -0.1562 -53.2612 -0.2109 Q-53.5737 -0.2656 -53.855 -0.4062 L-53.855 -1.0625 Q-53.23 -0.7344 -52.5268 -0.7344 Q-51.9018 -0.7344 -51.5268 -1.0312 Q-51.1518 -1.3281 -51.1518 -1.8438 Q-51.1518 -2.1562 -51.355 -2.3828 Q-51.5581 -2.6094 -52.1206 -2.9375 Q-52.7143 -3.2656 -52.9409 -3.5938 Q-53.1675 -3.9219 -53.1675 -4.375 Q-53.1675 -5.1094 -52.6518 -5.5703 Q-52.1362 -6.0312 -51.2925 -6.0312 Q-50.9175 -6.0312 -50.5815 -5.9531 Q-50.2456 -5.875 -49.8706 -5.7031 L-50.1362 -5.1094 Q-50.3862 -5.2656 -50.7065 -5.3516 Q-51.0268 -5.4375 -51.2925 -5.4375 Q-51.8237 -5.4375 -52.144 -5.1641 Q-52.4643 -4.8906 -52.4643 -4.4219 Q-52.4643 -4.2188 -52.394 -4.0703 Q-52.3237 -3.9219 -52.1831 -3.7891 Q-52.0425 -3.6562 -51.6206 -3.4062 Q-51.0581 -3.0625 -50.855 -2.8672 Q-50.6518 -2.6719 -50.5503 -2.4375 Q-50.4487 -2.2031 -50.4487 -1.8906 ZM-47.8542 -3.6094 Q-47.8542 -2.2812 -48.3308 -1.1484 Q-48.8074 -0.0156 -49.823 1.0312 L-50.4324 1.0312 Q-48.4949 -1.125 -48.4949 -3.6094 Q-48.4949 -4.9375 -48.9324 -5.9531 L-48.4167 -5.9531 Q-47.8542 -4.8906 -47.8542 -3.6094 Z"/></g><g transform="translate(81,45)" style="stroke-linecap:butt; fill:rgb(230,0,0); text-rendering:geometricPrecision; color-rendering:optimizeQuality; image-rendering:optimizeQuality; font-family:'Open Sans'; stroke:rgb(230,0,0); color-interpolation:linearRGB; stroke-miterlimit:5;"><path style="stroke:none;" d="M3.9375 7.4297 Q3.9375 9.4922 2.8984 10.6719 Q1.8594 11.8516 0.0156 11.8516 Q-1.875 11.8516 -2.9062 10.6875 Q-3.9375 9.5234 -3.9375 7.4141 Q-3.9375 5.3203 -2.9062 4.1719 Q-1.875 3.0234 0.0156 3.0234 Q1.875 3.0234 2.9062 4.1953 Q3.9375 5.3672 3.9375 7.4297 ZM-2.8906 7.4297 Q-2.8906 9.1641 -2.1484 10.0703 Q-1.4062 10.9766 0.0156 10.9766 Q1.4375 10.9766 2.1641 10.0781 Q2.8906 9.1797 2.8906 7.4297 Q2.8906 5.6953 2.1641 4.8047 Q1.4375 3.9141 0.0156 3.9141 Q-1.4062 3.9141 -2.1484 4.8125 Q-2.8906 5.7109 -2.8906 7.4297 Z"/><path style="stroke:none;" d="M-22.0425 -37.5703 Q-22.0425 -35.5078 -23.0816 -34.3281 Q-24.1206 -33.1484 -25.9644 -33.1484 Q-27.855 -33.1484 -28.8862 -34.3125 Q-29.9175 -35.4766 -29.9175 -37.5859 Q-29.9175 -39.6797 -28.8862 -40.8281 Q-27.855 -41.9766 -25.9644 -41.9766 Q-24.105 -41.9766 -23.0737 -40.8047 Q-22.0425 -39.6328 -22.0425 -37.5703 ZM-28.8706 -37.5703 Q-28.8706 -35.8359 -28.1284 -34.9297 Q-27.3862 -34.0234 -25.9644 -34.0234 Q-24.5425 -34.0234 -23.8159 -34.9219 Q-23.0894 -35.8203 -23.0894 -37.5703 Q-23.0894 -39.3047 -23.8159 -40.1953 Q-24.5425 -41.0859 -25.9644 -41.0859 Q-27.3862 -41.0859 -28.1284 -40.1875 Q-28.8706 -39.2891 -28.8706 -37.5703 Z"/><path style="stroke:none;" d="M-48.0255 37.4297 Q-48.0255 39.4922 -49.0646 40.6719 Q-50.1036 41.8516 -51.9474 41.8516 Q-53.838 41.8516 -54.8693 40.6875 Q-55.9005 39.5234 -55.9005 37.4141 Q-55.9005 35.3203 -54.8693 34.1719 Q-53.838 33.0234 -51.9474 33.0234 Q-50.088 33.0234 -49.0568 34.1953 Q-48.0255 35.3672 -48.0255 37.4297 ZM-54.8536 37.4297 Q-54.8536 39.1641 -54.1114 40.0703 Q-53.3693 40.9766 -51.9474 40.9766 Q-50.5255 40.9766 -49.7989 40.0781 Q-49.0724 39.1797 -49.0724 37.4297 Q-49.0724 35.6953 -49.7989 34.8047 Q-50.5255 33.9141 -51.9474 33.9141 Q-53.3693 33.9141 -54.1114 34.8125 Q-54.8536 35.7109 -54.8536 37.4297 Z"/><path style="stroke:none;" d="M-40.5099 41.7266 L-41.5099 41.7266 L-41.5099 37.6953 L-46.0255 37.6953 L-46.0255 41.7266 L-47.0255 41.7266 L-47.0255 33.1641 L-46.0255 33.1641 L-46.0255 36.8047 L-41.5099 36.8047 L-41.5099 33.1641 L-40.5099 33.1641 L-40.5099 41.7266 Z"/><path style="fill:none; stroke:black;" d="M25.547 -7.25 L25.98 -7.5 L26.413 -7.25"/><path style="fill:none; stroke:black;" d="M51.53 7.25 L51.963 7.5 L52.396 7.25"/></g></g></svg></svg></svg></svg>