<svg width="221" viewBox="0 0 221 156" style="fill-opacity:1; color-rendering:auto; color-interpolation:auto; text-rendering:auto; stroke:black; stroke-linecap:square; stroke-miterlimit:10; shape-rendering:auto; stroke-opacity:1; fill:black; stroke-dasharray:none; font-weight:normal; stroke-width:1; font-family:'Open Sans'; font-style:normal; stroke-linejoin:miter; font-size:12; stroke-dashoffset:0; image-rendering:auto;" height="156" class="cas-substance-image" xmlns:xlink="http://www.w3.org/1999/xlink" xmlns="http://www.w3.org/2000/svg"><svg class="cas-substance-single-component"><rect y="0" x="0" width="221" stroke="none" ry="7" rx="7" height="156" fill="white" class="cas-substance-group"/><svg y="0" x="0" width="221" viewBox="0 0 221 156" style="fill:black;" height="156" class="cas-substance-single-component-image"><svg><g><g transform="translate(110,78)" style="text-rendering:geometricPrecision; color-rendering:optimizeQuality; color-interpolation:linearRGB; stroke-linecap:butt; image-rendering:optimizeQuality;"><line y2="22.884" y1="2.552" x2="2.301" x1="14.04" style="fill:none;"/><line y2="-3.096" y1="-3.096" x2="47.301" x1="23.2385" style="fill:none;"/><line y2="-50.577" y1="-74.847" x2="-52.791" x1="-70.422" style="fill:none;"/><line y2="-50.577" y1="-70.65" x2="-52.791" x1="-30.495" style="fill:none;"/><line y2="-35.577" y1="-26.307" x2="-78.771" x1="-107.301" style="fill:none;"/><line y2="-35.577" y1="-62.982" x2="-78.771" x1="-90.972" style="fill:none;"/><line y2="-24.3696" y1="-8.9166" x2="-33.2254" x1="-40.107" style="fill:none;"/><line y2="-5.6083" y1="-3.617" x2="-66.6074" x1="-47.6568" style="fill:none;"/><line y2="22.884" y1="2.2399" x2="-27.699" x1="-39.6182" style="fill:none;"/><line y2="-50.577" y1="-34.7741" x2="-52.791" x1="-35.2407" style="fill:none;"/><line y2="-35.577" y1="-12.6639" x2="-78.771" x1="-73.9012" style="fill:none;"/><line y2="-35.577" y1="-50.577" x2="-78.771" x1="-52.791" style="fill:none;"/><line y2="22.884" y1="22.884" x2="2.301" x1="-27.699" style="fill:none;"/><line y2="26.384" y1="26.384" x2="0.2803" x1="-25.6783" style="fill:none;"/><line y2="48.867" y1="22.884" x2="-42.699" x1="-27.699" style="fill:none;"/><line y2="42.7287" y1="22.884" x2="13.7573" x1="2.301" style="fill:none;"/><line y2="74.847" y1="48.867" x2="-27.699" x1="-42.699" style="fill:none;"/><line y2="71.347" y1="48.867" x2="-25.6783" x1="-38.6576" style="fill:none;"/><line y2="74.847" y1="54.7553" x2="2.301" x1="13.9013" style="fill:none;"/><line y2="71.347" y1="53.0052" x2="0.2803" x1="10.8702" style="fill:none;"/><line y2="74.847" y1="74.847" x2="2.301" x1="-27.699" style="fill:none;"/><line y2="-29.076" y1="-3.096" x2="62.301" x1="47.301" style="fill:none;"/><line y2="22.884" y1="-3.096" x2="62.301" x1="47.301" style="fill:none;"/><line y2="-29.076" y1="-29.076" x2="92.301" x1="62.301" style="fill:none;"/><line y2="22.884" y1="22.884" x2="92.301" x1="62.301" style="fill:none;"/><line y2="-3.096" y1="-29.076" x2="107.301" x1="92.301" style="fill:none;"/><line y2="-3.096" y1="22.884" x2="107.301" x1="92.301" style="fill:none;"/></g><g transform="translate(110,78)" style="fill:rgb(230,0,0); text-rendering:geometricPrecision; color-rendering:optimizeQuality; image-rendering:optimizeQuality; font-family:'Open Sans'; stroke:rgb(230,0,0); color-interpolation:linearRGB;"><path style="stroke:none;" d="M21.2385 -3.1663 Q21.2385 -1.1038 20.1994 0.0759 Q19.1604 1.2556 17.3166 1.2556 Q15.426 1.2556 14.3947 0.0915 Q13.3635 -1.0726 13.3635 -3.1819 Q13.3635 -5.2757 14.3947 -6.4241 Q15.426 -7.5726 17.3166 -7.5726 Q19.176 -7.5726 20.2072 -6.4007 Q21.2385 -5.2288 21.2385 -3.1663 ZM14.4104 -3.1663 Q14.4104 -1.4319 15.1526 -0.5257 Q15.8947 0.3806 17.3166 0.3806 Q18.7385 0.3806 19.4651 -0.5179 Q20.1916 -1.4163 20.1916 -3.1663 Q20.1916 -4.9007 19.4651 -5.7913 Q18.7385 -6.6819 17.3166 -6.6819 Q15.8947 -6.6819 15.1526 -5.7835 Q14.4104 -4.8851 14.4104 -3.1663 Z"/><path style="fill:black; stroke:none;" d="M-45.6678 -7.5023 L-43.2459 -7.5023 Q-41.5428 -7.5023 -40.7771 -6.9944 Q-40.0115 -6.4866 -40.0115 -5.3929 Q-40.0115 -4.6273 -40.4334 -4.1273 Q-40.8553 -3.6273 -41.6834 -3.4866 L-41.6834 -3.4241 Q-39.7303 -3.096 -39.7303 -1.3773 Q-39.7303 -0.2366 -40.5037 0.4118 Q-41.2771 1.0602 -42.6678 1.0602 L-45.6678 1.0602 L-45.6678 -7.5023 ZM-44.6678 -3.846 L-43.0271 -3.846 Q-41.9646 -3.846 -41.5037 -4.1741 Q-41.0428 -4.5023 -41.0428 -5.2835 Q-41.0428 -6.0023 -41.5584 -6.3226 Q-42.074 -6.6429 -43.199 -6.6429 L-44.6678 -6.6429 L-44.6678 -3.846 ZM-44.6678 -3.0023 L-44.6678 0.2165 L-42.8709 0.2165 Q-41.8396 0.2165 -41.3162 -0.1898 Q-40.7928 -0.596 -40.7928 -1.4554 Q-40.7928 -2.2523 -41.3318 -2.6273 Q-41.8709 -3.0023 -42.9646 -3.0023 L-44.6678 -3.0023 Z"/><path style="stroke:none;" d="M-26.5575 -30.5713 Q-26.5575 -28.5088 -27.5966 -27.3291 Q-28.6356 -26.1494 -30.4794 -26.1494 Q-32.37 -26.1494 -33.4012 -27.3135 Q-34.4325 -28.4776 -34.4325 -30.5869 Q-34.4325 -32.6807 -33.4012 -33.8291 Q-32.37 -34.9776 -30.4794 -34.9776 Q-28.62 -34.9776 -27.5887 -33.8057 Q-26.5575 -32.6338 -26.5575 -30.5713 ZM-33.3856 -30.5713 Q-33.3856 -28.8369 -32.6434 -27.9307 Q-31.9012 -27.0244 -30.4794 -27.0244 Q-29.0575 -27.0244 -28.3309 -27.9229 Q-27.6044 -28.8213 -27.6044 -30.5713 Q-27.6044 -32.3057 -28.3309 -33.1963 Q-29.0575 -34.0869 -30.4794 -34.0869 Q-31.9012 -34.0869 -32.6434 -33.1885 Q-33.3856 -32.2901 -33.3856 -30.5713 Z"/><path style="stroke:none;" d="M-68.5965 -6.3013 Q-68.5965 -4.2388 -69.6356 -3.0591 Q-70.6746 -1.8794 -72.5184 -1.8794 Q-74.409 -1.8794 -75.4402 -3.0435 Q-76.4715 -4.2076 -76.4715 -6.3169 Q-76.4715 -8.4107 -75.4402 -9.5591 Q-74.409 -10.7076 -72.5184 -10.7076 Q-70.659 -10.7076 -69.6277 -9.5357 Q-68.5965 -8.3638 -68.5965 -6.3013 ZM-75.4246 -6.3013 Q-75.4246 -4.5669 -74.6824 -3.6607 Q-73.9402 -2.7544 -72.5184 -2.7544 Q-71.0965 -2.7544 -70.3699 -3.6529 Q-69.6434 -4.5513 -69.6434 -6.3013 Q-69.6434 -8.0357 -70.3699 -8.9263 Q-71.0965 -9.8169 -72.5184 -9.8169 Q-73.9402 -9.8169 -74.6824 -8.9185 Q-75.4246 -8.0201 -75.4246 -6.3013 Z"/></g><g transform="translate(110,78)" style="stroke-linecap:butt; text-rendering:geometricPrecision; color-rendering:optimizeQuality; image-rendering:optimizeQuality; font-family:'Open Sans'; color-interpolation:linearRGB; stroke-miterlimit:5;"><path style="fill:none;" d="M-27.199 22.884 L-27.699 22.884 L-27.949 22.451"/><path style="fill:none;" d="M1.801 22.884 L2.301 22.884 L2.551 22.451"/><path style="fill:none;" d="M-42.449 48.434 L-42.699 48.867 L-42.449 49.3"/><path style="fill:rgb(0,5,255); stroke:none;" d="M20.6526 53.0233 L19.5119 53.0233 L14.8244 45.8358 L14.7776 45.8358 Q14.8713 47.1014 14.8713 48.1483 L14.8713 53.0233 L13.9494 53.0233 L13.9494 44.4608 L15.0744 44.4608 L19.7463 51.617 L19.7932 51.617 Q19.7932 51.4608 19.7463 50.6014 Q19.6994 49.742 19.7151 49.367 L19.7151 44.4608 L20.6526 44.4608 L20.6526 53.0233 Z"/><path style="fill:none;" d="M-27.949 74.414 L-27.699 74.847 L-27.199 74.847"/><path style="fill:none;" d="M2.551 74.414 L2.301 74.847 L1.801 74.847"/><path style="fill:none;" d="M62.051 -28.643 L62.301 -29.076 L62.801 -29.076"/><path style="fill:none;" d="M62.051 22.451 L62.301 22.884 L62.801 22.884"/><path style="fill:none;" d="M91.801 -29.076 L92.301 -29.076 L92.551 -28.643"/><path style="fill:none;" d="M91.801 22.884 L92.301 22.884 L92.551 22.451"/><path style="fill:none;" d="M107.051 -3.529 L107.301 -3.096 L107.051 -2.663"/></g></g></svg></svg></svg></svg>