<svg width="300" viewBox="0 0 300 231" style="fill-opacity:1; color-rendering:auto; color-interpolation:auto; text-rendering:auto; stroke:black; stroke-linecap:square; stroke-miterlimit:10; shape-rendering:auto; stroke-opacity:1; fill:black; stroke-dasharray:none; font-weight:normal; stroke-width:1; font-family:'Open Sans'; font-style:normal; stroke-linejoin:miter; font-size:12; stroke-dashoffset:0; image-rendering:auto;" height="231" class="cas-substance-image" xmlns:xlink="http://www.w3.org/1999/xlink" xmlns="http://www.w3.org/2000/svg"><svg class="cas-substance-single-component"><rect y="0" x="0" width="300" stroke="none" ry="7" rx="7" height="231" fill="white" class="cas-substance-group"/><svg y="0" x="0" width="300" viewBox="0 0 300 216" style="fill:black;" height="216" class="cas-substance-single-component-image"><svg><g><g transform="translate(1404,1131)" style="text-rendering:geometricPrecision; color-rendering:optimizeQuality; color-interpolation:linearRGB; stroke-linecap:butt; image-rendering:optimizeQuality;"><line y2="-1036.7078" y1="-1076.7511" x2="-1283.1812" x1="-1283.1812" style="fill:none;"/><line y2="-980.2989" y1="-965.9211" x2="-1165.2356" x1="-1190.0414" style="fill:none;"/><line y2="-980.2989" y1="-965.9211" x2="-1214.8469" x1="-1190.0414" style="fill:none;"/><line y2="-965.9211" y1="-980.2989" x2="-1140.4299" x1="-1165.2356" style="fill:none;"/><line y2="-977.1015" y1="-965.9211" x2="-1121.1405" x1="-1140.4299" style="fill:none;"/><line y2="-943.7999" y1="-966.9354" x2="-1142.1799" x1="-1142.1799" style="fill:none;"/><line y2="-943.7999" y1="-966.9354" x2="-1138.6799" x1="-1138.6799" style="fill:none;"/><line y2="-962.366" y1="-934.3215" x2="-1231.6738" x1="-1225.7489" style="fill:none;"/><line y2="-1081.0226" y1="-1095.3215" x2="-1165.2356" x1="-1190.0414" style="fill:none;"/><line y2="-1081.0226" y1="-1095.3215" x2="-1214.8469" x1="-1190.0414" style="fill:none;"/><line y2="-1095.3215" y1="-1081.0226" x2="-1140.4299" x1="-1165.2356" style="fill:none;"/><line y2="-1084.2604" y1="-1095.3215" x2="-1121.2411" x1="-1140.4299" style="fill:none;"/><line y2="-1117.6465" y1="-1094.3127" x2="-1138.6799" x1="-1138.6799" style="fill:none;"/><line y2="-1117.6465" y1="-1094.3127" x2="-1142.1799" x1="-1142.1799" style="fill:none;"/><line y2="-1100.0614" y1="-1128.1851" x2="-1232.7798" x1="-1227.3287" style="fill:none;"/><line y2="-919.3907" y1="-933.6895" x2="-1358.3092" x1="-1333.5035" style="fill:none;"/><line y2="-922.423" y1="-935.7126" x2="-1360.0571" x1="-1337.0022" style="fill:none;"/><line y2="-962.366" y1="-933.6895" x2="-1333.5035" x1="-1333.5035" style="fill:none;"/><line y2="-980.2989" y1="-975.3219" x2="-1352.5422" x1="-1380.7449" style="fill:none;"/><line y2="-1081.0226" y1="-1095.3215" x2="-1401.0476" x1="-1376.2419" style="fill:none;"/><line y2="-1077.9904" y1="-1091.2802" x2="-1399.2997" x1="-1376.2448" style="fill:none;"/><line y2="-1081.0226" y1="-1095.3215" x2="-1351.4363" x1="-1376.2419" style="fill:none;"/><line y2="-1100.0614" y1="-1128.264" x2="-1333.5035" x1="-1338.4805" style="fill:none;"/><line y2="-1008.5273" y1="-1025.0043" x2="-1261.0872" x1="-1277.5642" style="fill:none;"/><line y2="-1052.7152" y1="-1034.9382" x2="-1261.0872" x1="-1278.8641" style="fill:none;"/><line y2="-1008.5273" y1="-1025.0272" x2="-1305.275" x1="-1288.7751" style="fill:none;"/><line y2="-1052.7152" y1="-1036.4417" x2="-1305.275" x1="-1289.0016" style="fill:none;"/><line y2="-1003.7616" y1="-1003.7616" x2="-1224.9589" x1="-1250.9698" style="fill:none;"/><line y2="-972.399" y1="-997.6053" x2="-1256.3214" x1="-1256.3214" style="fill:none;"/><line y2="-1057.481" y1="-1057.481" x2="-1224.9589" x1="-1250.9698" style="fill:none;"/><line y2="-1060.981" y1="-1060.981" x2="-1226.9796" x1="-1251.8411" style="fill:none;"/><line y2="-1088.8435" y1="-1063.8872" x2="-1256.3214" x1="-1256.3214" style="fill:none;"/><line y2="-972.399" y1="-997.6053" x2="-1310.0408" x1="-1310.0408" style="fill:none;"/><line y2="-974.4198" y1="-999.2812" x2="-1313.5408" x1="-1313.5408" style="fill:none;"/><line y2="-1003.7616" y1="-1003.7616" x2="-1341.4034" x1="-1315.3923" style="fill:none;"/><line y2="-1057.481" y1="-1057.481" x2="-1341.4034" x1="-1315.3923" style="fill:none;"/><line y2="-1088.8435" y1="-1063.8872" x2="-1310.0408" x1="-1310.0408" style="fill:none;"/><line y2="-1030.6212" y1="-1003.7616" x2="-1209.238" x1="-1224.9589" style="fill:none;"/><line y2="-1030.6451" y1="-1007.2735" x2="-1213.2794" x1="-1226.9587" style="fill:none;"/><line y2="-980.2989" y1="-1003.7616" x2="-1214.8469" x1="-1224.9589" style="fill:none;"/><line y2="-956.7572" y1="-972.399" x2="-1283.1812" x1="-1256.3214" style="fill:none;"/><line y2="-960.7986" y1="-974.4067" x2="-1283.1963" x1="-1259.829" style="fill:none;"/><line y2="-962.366" y1="-972.399" x2="-1231.6738" x1="-1256.3214" style="fill:none;"/><line y2="-1030.6212" y1="-1057.481" x2="-1209.238" x1="-1224.9589" style="fill:none;"/><line y2="-1081.0226" y1="-1057.481" x2="-1214.8469" x1="-1224.9589" style="fill:none;"/><line y2="-1104.5643" y1="-1088.8435" x2="-1283.1812" x1="-1256.3214" style="fill:none;"/><line y2="-1100.5229" y1="-1086.8436" x2="-1283.2051" x1="-1259.8334" style="fill:none;"/><line y2="-1100.0614" y1="-1088.8435" x2="-1232.7798" x1="-1256.3214" style="fill:none;"/><line y2="-956.7572" y1="-972.399" x2="-1283.1812" x1="-1310.0408" style="fill:none;"/><line y2="-962.366" y1="-972.399" x2="-1333.5035" x1="-1310.0408" style="fill:none;"/><line y2="-1030.6212" y1="-1003.7616" x2="-1357.0453" x1="-1341.4034" style="fill:none;"/><line y2="-1030.6364" y1="-1007.2692" x2="-1353.0038" x1="-1339.3959" style="fill:none;"/><line y2="-980.2989" y1="-1003.7616" x2="-1352.5422" x1="-1341.4034" style="fill:none;"/><line y2="-1030.6212" y1="-1057.481" x2="-1357.0453" x1="-1341.4034" style="fill:none;"/><line y2="-1081.0226" y1="-1057.481" x2="-1351.4363" x1="-1341.4034" style="fill:none;"/><line y2="-1080.5358" y1="-1060.7122" x2="-1347.4242" x1="-1338.9758" style="fill:none;"/><line y2="-1104.5643" y1="-1088.8435" x2="-1283.1812" x1="-1310.0408" style="fill:none;"/><line y2="-1100.0614" y1="-1088.8435" x2="-1333.5035" x1="-1310.0408" style="fill:none;"/><line y2="-1096.0322" y1="-1086.5575" x2="-1333.1902" x1="-1313.3737" style="fill:none;"/><line y2="-962.366" y1="-980.2989" x2="-1231.6738" x1="-1214.8469" style="fill:none;"/><line y2="-966.2345" y1="-981.2202" x2="-1232.8435" x1="-1218.782" style="fill:none;"/><line y2="-1100.0614" y1="-1081.0226" x2="-1232.7798" x1="-1214.8469" style="fill:none;"/><line y2="-1096.1907" y1="-1080.0938" x2="-1233.942" x1="-1218.7802" style="fill:none;"/><line y2="-980.2989" y1="-962.366" x2="-1352.5422" x1="-1333.5035" style="fill:none;"/><line y2="-981.4611" y1="-966.2993" x2="-1348.6715" x1="-1332.5747" style="fill:none;"/><line y2="-1100.0614" y1="-1081.0226" x2="-1333.5035" x1="-1351.4363" style="fill:none;"/></g><g transform="translate(1404,1131)" style="fill:rgb(0,138,0); text-rendering:geometricPrecision; color-rendering:optimizeQuality; image-rendering:optimizeQuality; font-family:'Open Sans'; stroke:rgb(0,138,0); color-interpolation:linearRGB;"><path style="stroke:none;" d="M-1283.4897 -1086.673 Q-1284.896 -1086.673 -1285.7163 -1085.7355 Q-1286.5366 -1084.798 -1286.5366 -1083.1573 Q-1286.5366 -1081.4855 -1285.7476 -1080.5636 Q-1284.9585 -1079.6417 -1283.5054 -1079.6417 Q-1282.5991 -1079.6417 -1281.4585 -1079.9698 L-1281.4585 -1079.0948 Q-1282.3491 -1078.7511 -1283.646 -1078.7511 Q-1285.5366 -1078.7511 -1286.5679 -1079.9073 Q-1287.5991 -1081.0636 -1287.5991 -1083.173 Q-1287.5991 -1084.5011 -1287.1069 -1085.4933 Q-1286.6147 -1086.4855 -1285.6772 -1087.0245 Q-1284.7397 -1087.5636 -1283.4741 -1087.5636 Q-1282.1304 -1087.5636 -1281.1147 -1087.0792 L-1281.5366 -1086.2198 Q-1282.521 -1086.673 -1283.4897 -1086.673 ZM-1278.7632 -1078.8761 L-1279.7319 -1078.8761 L-1279.7319 -1088.0011 L-1278.7632 -1088.0011 L-1278.7632 -1078.8761 Z"/><path style="fill:black; stroke:none;" d="M-1277.7632 -1085.7917 L-1277.7632 -1086.3855 L-1274.4038 -1086.3855 L-1274.4038 -1085.7917 L-1277.7632 -1085.7917 Z"/></g><g transform="translate(1404,1131)" style="stroke-linecap:butt; font-size:8.4px; text-rendering:geometricPrecision; color-rendering:optimizeQuality; image-rendering:optimizeQuality; font-family:'Open Sans'; color-interpolation:linearRGB; stroke-miterlimit:5;"><path style="fill:none;" d="M-1189.6088 -966.1718 L-1190.0414 -965.9211 L-1190.474 -966.1718"/><path style="fill:none;" d="M-1165.6682 -980.0482 L-1165.2356 -980.2989 L-1164.803 -980.0482"/><path style="fill:none;" d="M-1140.8625 -966.1718 L-1140.4299 -965.9211 L-1139.9973 -966.1718"/><path style="fill:rgb(230,0,0); stroke:none;" d="M-1111.6866 -980.3692 Q-1111.6866 -978.3067 -1112.7257 -977.127 Q-1113.7648 -975.9473 -1115.6085 -975.9473 Q-1117.4991 -975.9473 -1118.5304 -977.1114 Q-1119.5616 -978.2755 -1119.5616 -980.3848 Q-1119.5616 -982.4786 -1118.5304 -983.627 Q-1117.4991 -984.7755 -1115.6085 -984.7755 Q-1113.7491 -984.7755 -1112.7179 -983.6036 Q-1111.6866 -982.4317 -1111.6866 -980.3692 ZM-1118.5148 -980.3692 Q-1118.5148 -978.6348 -1117.7726 -977.7286 Q-1117.0304 -976.8223 -1115.6085 -976.8223 Q-1114.1866 -976.8223 -1113.4601 -977.7208 Q-1112.7335 -978.6192 -1112.7335 -980.3692 Q-1112.7335 -982.1036 -1113.4601 -982.9942 Q-1114.1866 -983.8848 -1115.6085 -983.8848 Q-1117.0304 -983.8848 -1117.7726 -982.9864 Q-1118.5148 -982.088 -1118.5148 -980.3692 Z"/><path style="stroke:none;" d="M-1110.6866 -982.6505 L-1110.6866 -983.2442 L-1107.3273 -983.2442 L-1107.3273 -982.6505 L-1110.6866 -982.6505 Z"/><path style="fill:rgb(230,0,0); stroke:none;" d="M-1136.4924 -937.3937 Q-1136.4924 -935.3312 -1137.5315 -934.1515 Q-1138.5706 -932.9718 -1140.4143 -932.9718 Q-1142.3049 -932.9718 -1143.3362 -934.1359 Q-1144.3674 -935.2999 -1144.3674 -937.4093 Q-1144.3674 -939.5031 -1143.3362 -940.6515 Q-1142.3049 -941.7999 -1140.4143 -941.7999 Q-1138.5549 -941.7999 -1137.5237 -940.6281 Q-1136.4924 -939.4562 -1136.4924 -937.3937 ZM-1143.3206 -937.3937 Q-1143.3206 -935.6593 -1142.5784 -934.7531 Q-1141.8362 -933.8468 -1140.4143 -933.8468 Q-1138.9924 -933.8468 -1138.2659 -934.7452 Q-1137.5393 -935.6437 -1137.5393 -937.3937 Q-1137.5393 -939.1281 -1138.2659 -940.0187 Q-1138.9924 -940.9093 -1140.4143 -940.9093 Q-1141.8362 -940.9093 -1142.5784 -940.0109 Q-1143.3206 -939.1124 -1143.3206 -937.3937 Z"/><path style="fill:none;" d="M-1189.6082 -1095.0718 L-1190.0414 -1095.3215 L-1190.4746 -1095.0718"/><path style="fill:none;" d="M-1165.6688 -1081.2723 L-1165.2356 -1081.0226 L-1164.8024 -1081.2723"/><path style="fill:none;" d="M-1140.8632 -1095.0718 L-1140.4299 -1095.3215 L-1139.9967 -1095.0718"/><path style="fill:rgb(230,0,0); stroke:none;" d="M-1111.6866 -1081.0929 Q-1111.6866 -1079.0304 -1112.7257 -1077.8507 Q-1113.7648 -1076.671 -1115.6085 -1076.671 Q-1117.4991 -1076.671 -1118.5304 -1077.8351 Q-1119.5616 -1078.9991 -1119.5616 -1081.1085 Q-1119.5616 -1083.2023 -1118.5304 -1084.3507 Q-1117.4991 -1085.4991 -1115.6085 -1085.4991 Q-1113.7491 -1085.4991 -1112.7179 -1084.3273 Q-1111.6866 -1083.1554 -1111.6866 -1081.0929 ZM-1118.5148 -1081.0929 Q-1118.5148 -1079.3585 -1117.7726 -1078.4523 Q-1117.0304 -1077.546 -1115.6085 -1077.546 Q-1114.1866 -1077.546 -1113.4601 -1078.4445 Q-1112.7335 -1079.3429 -1112.7335 -1081.0929 Q-1112.7335 -1082.8273 -1113.4601 -1083.7179 Q-1114.1866 -1084.6085 -1115.6085 -1084.6085 Q-1117.0304 -1084.6085 -1117.7726 -1083.7101 Q-1118.5148 -1082.8116 -1118.5148 -1081.0929 Z"/><path style="stroke:none;" d="M-1110.6866 -1083.3741 L-1110.6866 -1083.9679 L-1107.3273 -1083.9679 L-1107.3273 -1083.3741 L-1110.6866 -1083.3741 Z"/><path style="fill:rgb(230,0,0); stroke:none;" d="M-1136.4924 -1124.0684 Q-1136.4924 -1122.0059 -1137.5315 -1120.8262 Q-1138.5706 -1119.6465 -1140.4143 -1119.6465 Q-1142.3049 -1119.6465 -1143.3362 -1120.8105 Q-1144.3674 -1121.9746 -1144.3674 -1124.084 Q-1144.3674 -1126.1777 -1143.3362 -1127.3262 Q-1142.3049 -1128.4746 -1140.4143 -1128.4746 Q-1138.5549 -1128.4746 -1137.5237 -1127.3027 Q-1136.4924 -1126.1309 -1136.4924 -1124.0684 ZM-1143.3206 -1124.0684 Q-1143.3206 -1122.334 -1142.5784 -1121.4277 Q-1141.8362 -1120.5215 -1140.4143 -1120.5215 Q-1138.9924 -1120.5215 -1138.2659 -1121.4199 Q-1137.5393 -1122.3184 -1137.5393 -1124.0684 Q-1137.5393 -1125.8027 -1138.2659 -1126.6934 Q-1138.9924 -1127.584 -1140.4143 -1127.584 Q-1141.8362 -1127.584 -1142.5784 -1126.6855 Q-1143.3206 -1125.7871 -1143.3206 -1124.0684 Z"/><path style="fill:none;" d="M-1333.9368 -933.4398 L-1333.5035 -933.6895 L-1333.5035 -934.1895"/><path style="fill:none;" d="M-1376.6752 -1095.0718 L-1376.2419 -1095.3215 L-1375.8087 -1095.0718"/><path style="stroke:none;" d="M-1287.7466 -1026.465 L-1288.7466 -1026.465 L-1288.7466 -1035.0275 L-1283.9653 -1035.0275 L-1283.9653 -1034.1525 L-1287.7466 -1034.1525 L-1287.7466 -1031.0118 L-1284.1997 -1031.0118 L-1284.1997 -1030.1212 L-1287.7466 -1030.1212 L-1287.7466 -1026.465 ZM-1279.9751 -1026.34 Q-1281.397 -1026.34 -1282.2251 -1027.215 Q-1283.0532 -1028.09 -1283.0532 -1029.6212 Q-1283.0532 -1031.1837 -1282.2876 -1032.0978 Q-1281.522 -1033.0118 -1280.2251 -1033.0118 Q-1279.022 -1033.0118 -1278.3188 -1032.215 Q-1277.6157 -1031.4181 -1277.6157 -1030.1212 L-1277.6157 -1029.4962 L-1282.0376 -1029.4962 Q-1282.0063 -1028.3712 -1281.4673 -1027.7853 Q-1280.9282 -1027.1993 -1279.9438 -1027.1993 Q-1278.9126 -1027.1993 -1277.897 -1027.6368 L-1277.897 -1026.7618 Q-1278.4126 -1026.5431 -1278.8735 -1026.4415 Q-1279.3345 -1026.34 -1279.9751 -1026.34 ZM-1280.2407 -1032.1837 Q-1281.022 -1032.1837 -1281.4829 -1031.6837 Q-1281.9438 -1031.1837 -1282.022 -1030.2931 L-1278.6626 -1030.2931 Q-1278.6626 -1031.215 -1279.0688 -1031.6993 Q-1279.4751 -1032.1837 -1280.2407 -1032.1837 Z"/><path style="stroke:none;" d="M-1273.0532 -1034.743 Q-1273.0532 -1034.1962 -1273.3657 -1033.8446 Q-1273.6782 -1033.493 -1274.2407 -1033.3837 L-1274.2407 -1033.3524 Q-1273.5532 -1033.2587 -1273.2173 -1032.9071 Q-1272.8813 -1032.5555 -1272.8813 -1031.993 Q-1272.8813 -1031.1649 -1273.4517 -1030.7274 Q-1274.022 -1030.2899 -1275.0532 -1030.2899 Q-1275.5063 -1030.2899 -1275.8892 -1030.3602 Q-1276.272 -1030.4305 -1276.6157 -1030.6024 L-1276.6157 -1031.2118 Q-1276.2563 -1031.0399 -1275.8345 -1030.9384 Q-1275.4126 -1030.8368 -1275.0376 -1030.8368 Q-1273.5532 -1030.8368 -1273.5532 -1032.0087 Q-1273.5532 -1033.0399 -1275.1938 -1033.0399 L-1275.7563 -1033.0399 L-1275.7563 -1033.6024 L-1275.1782 -1033.6024 Q-1274.5063 -1033.6024 -1274.1157 -1033.8993 Q-1273.7251 -1034.1962 -1273.7251 -1034.7118 Q-1273.7251 -1035.1337 -1274.0142 -1035.368 Q-1274.3032 -1035.6024 -1274.8032 -1035.6024 Q-1275.1782 -1035.6024 -1275.5063 -1035.5009 Q-1275.8345 -1035.3993 -1276.2563 -1035.1337 L-1276.5845 -1035.5712 Q-1276.2407 -1035.8524 -1275.7798 -1036.0087 Q-1275.3188 -1036.1649 -1274.8188 -1036.1649 Q-1273.9751 -1036.1649 -1273.5142 -1035.7821 Q-1273.0532 -1035.3993 -1273.0532 -1034.743 Z"/><path style="stroke:none;" d="M-1269.7407 -1033.493 L-1268.1313 -1033.493 L-1268.1313 -1032.9462 L-1269.7407 -1032.9462 L-1269.7407 -1031.2899 L-1270.272 -1031.2899 L-1270.272 -1032.9462 L-1271.8813 -1032.9462 L-1271.8813 -1033.493 L-1270.272 -1033.493 L-1270.272 -1035.1649 L-1269.7407 -1035.1649 L-1269.7407 -1033.493 Z"/><path style="fill:rgb(0,5,255); stroke:none;" d="M-1252.9698 -999.6053 L-1254.1105 -999.6053 L-1258.798 -1006.7928 L-1258.8448 -1006.7928 Q-1258.7511 -1005.5272 -1258.7511 -1004.4803 L-1258.7511 -999.6053 L-1259.673 -999.6053 L-1259.673 -1008.1678 L-1258.548 -1008.1678 L-1253.8761 -1001.0116 L-1253.8292 -1001.0116 Q-1253.8292 -1001.1678 -1253.8761 -1002.0272 Q-1253.923 -1002.8866 -1253.9073 -1003.2616 L-1253.9073 -1008.1678 L-1252.9698 -1008.1678 L-1252.9698 -999.6053 Z"/><path style="stroke:none;" d="M-1251.9698 -1006.0334 L-1251.9698 -1006.6272 L-1248.6105 -1006.6272 L-1248.6105 -1006.0334 L-1251.9698 -1006.0334 Z"/><path style="fill:rgb(0,5,255); stroke:none;" d="M-1252.9698 -1053.3247 L-1254.1105 -1053.3247 L-1258.798 -1060.5122 L-1258.8448 -1060.5122 Q-1258.7511 -1059.2466 -1258.7511 -1058.1997 L-1258.7511 -1053.3247 L-1259.673 -1053.3247 L-1259.673 -1061.8872 L-1258.548 -1061.8872 L-1253.8761 -1054.731 L-1253.8292 -1054.731 Q-1253.8292 -1054.8872 -1253.8761 -1055.7466 Q-1253.923 -1056.606 -1253.9073 -1056.981 L-1253.9073 -1061.8872 L-1252.9698 -1061.8872 L-1252.9698 -1053.3247 Z"/><path style="fill:rgb(0,5,255); stroke:none;" d="M-1306.6892 -999.6053 L-1307.8298 -999.6053 L-1312.5173 -1006.7928 L-1312.5642 -1006.7928 Q-1312.4705 -1005.5272 -1312.4705 -1004.4803 L-1312.4705 -999.6053 L-1313.3923 -999.6053 L-1313.3923 -1008.1678 L-1312.2673 -1008.1678 L-1307.5955 -1001.0116 L-1307.5486 -1001.0116 Q-1307.5486 -1001.1678 -1307.5955 -1002.0272 Q-1307.6423 -1002.8866 -1307.6267 -1003.2616 L-1307.6267 -1008.1678 L-1306.6892 -1008.1678 L-1306.6892 -999.6053 Z"/><path style="fill:rgb(0,5,255); stroke:none;" d="M-1306.6892 -1053.3247 L-1307.8298 -1053.3247 L-1312.5173 -1060.5122 L-1312.5642 -1060.5122 Q-1312.4705 -1059.2466 -1312.4705 -1058.1997 L-1312.4705 -1053.3247 L-1313.3923 -1053.3247 L-1313.3923 -1061.8872 L-1312.2673 -1061.8872 L-1307.5955 -1054.731 L-1307.5486 -1054.731 Q-1307.5486 -1054.8872 -1307.5955 -1055.7466 Q-1307.6423 -1056.606 -1307.6267 -1056.981 L-1307.6267 -1061.8872 L-1306.6892 -1061.8872 L-1306.6892 -1053.3247 Z"/><path style="stroke:none;" d="M-1305.6892 -1059.7528 L-1305.6892 -1060.3466 L-1302.3298 -1060.3466 L-1302.3298 -1059.7528 L-1305.6892 -1059.7528 Z"/><path style="fill:none;" d="M-1224.7063 -1004.1931 L-1224.9589 -1003.7616 L-1225.4589 -1003.7616"/><path style="fill:none;" d="M-1256.7535 -972.1474 L-1256.3214 -972.399 L-1255.8583 -972.2105"/><path style="fill:none;" d="M-1225.4589 -1057.481 L-1224.9589 -1057.481 L-1224.7063 -1057.0494"/><path style="fill:none;" d="M-1256.7529 -1089.0961 L-1256.3214 -1088.8435 L-1256.3214 -1088.3435"/><path style="fill:none;" d="M-1310.0408 -972.899 L-1310.0408 -972.399 L-1309.6086 -972.1474"/><path style="fill:none;" d="M-1341.655 -1004.1937 L-1341.4034 -1003.7616 L-1341.6179 -1003.3099"/><path style="fill:none;" d="M-1341.5995 -1057.9409 L-1341.4034 -1057.481 L-1340.9034 -1057.481"/><path style="fill:none;" d="M-1310.4918 -1089.0592 L-1310.0408 -1088.8435 L-1310.0408 -1088.3435"/><path style="fill:none;" d="M-1209.4906 -1030.1897 L-1209.238 -1030.6212 L-1209.4906 -1031.0527"/><path style="fill:none;" d="M-1215.1891 -979.9343 L-1214.8469 -980.2989 L-1215.0448 -980.7581"/><path style="fill:none;" d="M-1282.749 -957.0089 L-1283.1812 -956.7572 L-1283.6133 -957.0089"/><path style="fill:none;" d="M-1231.3317 -962.7307 L-1231.6738 -962.366 L-1232.137 -962.5546"/><path style="fill:none;" d="M-1215.1897 -1081.3866 L-1214.8469 -1081.0226 L-1215.0443 -1080.5631"/><path style="fill:none;" d="M-1282.7496 -1104.3118 L-1283.1812 -1104.5643 L-1283.6127 -1104.3118"/><path style="fill:none;" d="M-1232.437 -1099.6974 L-1232.7798 -1100.0614 L-1232.6847 -1100.5522"/><path style="fill:none;" d="M-1333.8676 -962.7089 L-1333.5035 -962.366 L-1333.5035 -961.866"/><path style="fill:none;" d="M-1356.7937 -1030.1891 L-1357.0453 -1030.6212 L-1356.7937 -1031.0533"/><path style="fill:none;" d="M-1352.1782 -979.9561 L-1352.5422 -980.2989 L-1353.0347 -980.212"/><path style="fill:none;" d="M-1351.2402 -1080.5626 L-1351.4363 -1081.0226 L-1351.8695 -1081.2723"/><path style="fill:none;" d="M-1333.0525 -1099.8457 L-1333.5035 -1100.0614 L-1333.5905 -1100.5538"/></g></g></svg></svg><svg y="216" x="127" class="cas-substance-saf"><svg y="5" x="0" width="4" style="fill:black;" height="4" class="cas-substance-saf-dot"><circle stroke="none" r="2" fill="black" cy="2" cx="2"/></svg><svg y="0" x="7" width="12" style="fill:black;" height="15" class="cas-substance-saf-coefficient"><svg><g><g transform="translate(6,7)" style="text-rendering:geometricPrecision; font-family:'Open Sans'; color-interpolation:linearRGB; color-rendering:optimizeQuality; image-rendering:optimizeQuality;"><path style="stroke:none;" d="M2.8125 4.2188 L-2.8125 4.2188 L-2.8125 3.375 L-0.5625 1.1094 Q0.4688 0.0625 0.7969 -0.3828 Q1.125 -0.8281 1.2891 -1.25 Q1.4531 -1.6719 1.4531 -2.1562 Q1.4531 -2.8438 1.0391 -3.2422 Q0.625 -3.6406 -0.125 -3.6406 Q-0.6562 -3.6406 -1.1328 -3.4609 Q-1.6094 -3.2812 -2.1875 -2.8281 L-2.7031 -3.4844 Q-1.5312 -4.4688 -0.125 -4.4688 Q1.0781 -4.4688 1.7656 -3.8516 Q2.4531 -3.2344 2.4531 -2.1875 Q2.4531 -1.375 1.9922 -0.5781 Q1.5312 0.2188 0.2812 1.4375 L-1.5938 3.2656 L-1.5938 3.3125 L2.8125 3.3125 L2.8125 4.2188 Z"/></g></g></svg></svg><svg y="0" x="23" width="17" style="fill:black;" height="15" class="cas-substance-saf-image"><svg><g><g transform="translate(6,8)" style="text-rendering:geometricPrecision; font-family:'Open Sans'; color-interpolation:linearRGB; color-rendering:optimizeQuality; image-rendering:optimizeQuality;"><path style="stroke:none;" d="M3.2578 4.1562 L2.2578 4.1562 L2.2578 0.125 L-2.2578 0.125 L-2.2578 4.1562 L-3.2578 4.1562 L-3.2578 -4.4062 L-2.2578 -4.4062 L-2.2578 -0.7656 L2.2578 -0.7656 L2.2578 -4.4062 L3.2578 -4.4062 L3.2578 4.1562 Z"/><path style="stroke:none;" d="M6.3984 -2.8344 L8.0078 -2.8344 L8.0078 -2.2875 L6.3984 -2.2875 L6.3984 -0.6313 L5.8672 -0.6313 L5.8672 -2.2875 L4.2578 -2.2875 L4.2578 -2.8344 L5.8672 -2.8344 L5.8672 -4.5063 L6.3984 -4.5063 L6.3984 -2.8344 Z"/></g></g></svg></svg></svg></svg></svg>