<svg xmlns:ns0="http://www.w3.org/2000/svg" xmlns="http://www.w3.org/2000/svg"><g transform="translate(0, 0)"><ns0:svg width="171" viewBox="0 0 171 72" style="fill-opacity:1; color-rendering:auto; color-interpolation:auto; text-rendering:auto; stroke:black; stroke-linecap:square; stroke-miterlimit:10; shape-rendering:auto; stroke-opacity:1; fill:black; stroke-dasharray:none; font-weight:normal; stroke-width:1; font-family:'Open Sans'; font-style:normal; stroke-linejoin:miter; font-size:12; stroke-dashoffset:0; image-rendering:auto;" height="72" class="cas-substance-image"><ns0:svg class="cas-substance-single-component"><ns0:rect y="0" x="0" width="171" stroke="none" ry="7" rx="7" height="72" fill="white" class="cas-substance-group" /><ns0:svg y="0" x="0" width="171" viewBox="0 0 171 72" style="fill:black;" height="72" class="cas-substance-single-component-image"><ns0:svg><ns0:g><ns0:g transform="translate(84,35)" style="text-rendering:geometricPrecision; color-rendering:optimizeQuality; color-interpolation:linearRGB; stroke-linecap:butt; image-rendering:optimizeQuality;"><ns0:line y2="9.5098" y1="24.1237" x2="55.947" x1="76.0603" style="fill:none;" /><ns0:line y2="12.3414" y1="26.9552" x2="53.8898" x1="74.003" style="fill:none;" /><ns0:line y2="20.943" y1="-3.327" x2="27.417" x1="9.783" style="fill:none;" /><ns0:line y2="-21.8227" y1="-3.327" x2="23.2216" x1="9.783" style="fill:none;" /><ns0:line y2="-19.7654" y1="-2.9045" x2="26.0531" x1="13.8023" style="fill:none;" /><ns0:line y2="-3.327" y1="-3.327" x2="-20.217" x1="9.783" style="fill:none;" /><ns0:line y2="11.673" y1="20.943" x2="55.947" x1="27.417" style="fill:none;" /><ns0:line y2="-20.2244" y1="-25.89" x2="50.1074" x1="32.6707" style="fill:none;" /><ns0:line y2="-11.9754" y1="11.673" x2="55.947" x1="55.947" style="fill:none;" /><ns0:line y2="-29.307" y1="-3.327" x2="-35.217" x1="-20.217" style="fill:none;" /><ns0:line y2="-25.807" y1="-3.3269" x2="-37.2377" x1="-24.2585" style="fill:none;" /><ns0:line y2="22.653" y1="-3.327" x2="-35.217" x1="-20.217" style="fill:none;" /><ns0:line y2="-29.307" y1="-29.307" x2="-65.217" x1="-35.217" style="fill:none;" /><ns0:line y2="22.653" y1="22.653" x2="-65.217" x1="-35.217" style="fill:none;" /><ns0:line y2="19.153" y1="19.153" x2="-63.1963" x1="-37.2377" style="fill:none;" /><ns0:line y2="-3.327" y1="-29.307" x2="-80.217" x1="-65.217" style="fill:none;" /><ns0:line y2="-3.3269" y1="-25.807" x2="-76.1755" x1="-63.1963" style="fill:none;" /><ns0:line y2="-3.327" y1="22.653" x2="-80.217" x1="-65.217" style="fill:none;" /></ns0:g><ns0:g transform="translate(84,35)" style="fill:rgb(230,0,0); text-rendering:geometricPrecision; color-rendering:optimizeQuality; image-rendering:optimizeQuality; font-family:'Open Sans'; stroke:rgb(230,0,0); color-interpolation:linearRGB;"><ns0:path style="stroke:none;" d="M84.1545 29.2367 Q84.1545 31.2992 83.1154 32.4789 Q82.0764 33.6586 80.2326 33.6586 Q78.342 33.6586 77.3107 32.4945 Q76.2795 31.3304 76.2795 29.2211 Q76.2795 27.1273 77.3107 25.9789 Q78.342 24.8304 80.2326 24.8304 Q82.092 24.8304 83.1232 26.0023 Q84.1545 27.1742 84.1545 29.2367 ZM77.3264 29.2367 Q77.3264 30.9711 78.0686 31.8773 Q78.8107 32.7836 80.2326 32.7836 Q81.6545 32.7836 82.3811 31.8851 Q83.1076 30.9867 83.1076 29.2367 Q83.1076 27.5023 82.3811 26.6117 Q81.6545 25.7211 80.2326 25.7211 Q78.8107 25.7211 78.0686 26.6195 Q77.3264 27.5179 77.3264 29.2367 Z" /></ns0:g><ns0:g transform="translate(84,35)" style="stroke-linecap:butt; text-rendering:geometricPrecision; color-rendering:optimizeQuality; image-rendering:optimizeQuality; font-family:'Open Sans'; color-interpolation:linearRGB; stroke-miterlimit:5;"><ns0:path style="fill:none;" d="M10.0769 -3.7315 L9.783 -3.327 L10.0769 -2.9225" /><ns0:path style="fill:none;" d="M27.1231 20.5385 L27.417 20.943 L27.8925 20.7885" /><ns0:path style="fill:rgb(0,5,255); stroke:none;" d="M30.7686 -23.4408 L29.6279 -23.4408 L24.9404 -30.6283 L24.8936 -30.6283 Q24.9873 -29.3626 24.9873 -28.3158 L24.9873 -23.4408 L24.0654 -23.4408 L24.0654 -32.0033 L25.1904 -32.0033 L29.8623 -24.847 L29.9092 -24.847 Q29.9092 -25.0033 29.8623 -25.8626 Q29.8154 -26.722 29.8311 -27.097 L29.8311 -32.0033 L30.7686 -32.0033 L30.7686 -23.4408 Z" /><ns0:path style="fill:none;" d="M55.4715 11.8275 L55.947 11.673 L55.947 11.173" /><ns0:path style="fill:rgb(230,0,0); stroke:none;" d="M59.8845 -18.3973 Q59.8845 -16.3348 58.8454 -15.1551 Q57.8064 -13.9754 55.9626 -13.9754 Q54.072 -13.9754 53.0407 -15.1395 Q52.0095 -16.3036 52.0095 -18.4129 Q52.0095 -20.5067 53.0407 -21.6551 Q54.072 -22.8036 55.9626 -22.8036 Q57.822 -22.8036 58.8532 -21.6317 Q59.8845 -20.4598 59.8845 -18.3973 ZM53.0564 -18.3973 Q53.0564 -16.6629 53.7986 -15.7567 Q54.5407 -14.8504 55.9626 -14.8504 Q57.3845 -14.8504 58.1111 -15.7489 Q58.8376 -16.6473 58.8376 -18.3973 Q58.8376 -20.1317 58.1111 -21.0223 Q57.3845 -21.9129 55.9626 -21.9129 Q54.5407 -21.9129 53.7986 -21.0145 Q53.0564 -20.1161 53.0564 -18.3973 Z" /><ns0:path style="fill:none;" d="M-20.467 -3.76 L-20.217 -3.327 L-19.717 -3.327" /><ns0:path style="fill:none;" d="M-34.967 -28.874 L-35.217 -29.307 L-35.717 -29.307" /><ns0:path style="fill:none;" d="M-34.967 22.22 L-35.217 22.653 L-35.717 22.653" /><ns0:path style="fill:none;" d="M-64.717 -29.307 L-65.217 -29.307 L-65.467 -28.874" /><ns0:path style="fill:none;" d="M-64.717 22.653 L-65.217 22.653 L-65.467 22.22" /><ns0:path style="fill:none;" d="M-79.967 -3.76 L-80.217 -3.327 L-79.967 -2.894" /></ns0:g></ns0:g></ns0:svg></ns0:svg></ns0:svg></ns0:svg></g></svg>