<svg xmlns:ns0="http://www.w3.org/2000/svg" xmlns="http://www.w3.org/2000/svg"><g transform="translate(0, 0)"><ns0:svg width="497" viewBox="0 0 497 58" style="fill-opacity:1; color-rendering:auto; color-interpolation:auto; text-rendering:auto; stroke:black; stroke-linecap:square; stroke-miterlimit:10; shape-rendering:auto; stroke-opacity:1; fill:black; stroke-dasharray:none; font-weight:normal; stroke-width:1; font-family:'Open Sans'; font-style:normal; stroke-linejoin:miter; font-size:12; stroke-dashoffset:0; image-rendering:auto;" height="58" class="cas-substance-image"><ns0:svg class="cas-substance-single-component"><ns0:rect y="0" x="0" width="497" stroke="none" ry="7" rx="7" height="58" fill="white" class="cas-substance-group" /><ns0:svg y="0" x="0" width="497" viewBox="0 0 497 58" style="fill:black;" height="58" class="cas-substance-single-component-image"><ns0:svg><ns0:g><ns0:g transform="translate(248,29)" style="text-rendering:geometricPrecision; color-rendering:optimizeQuality; color-interpolation:linearRGB; stroke-linecap:butt; image-rendering:optimizeQuality;"><ns0:path style="fill:none;" d="M-1.9278 12.6601 L-5.3919 14.6602 L-15.3921 -2.6602 L-11.928 -4.6602 M37.9087 -19.6603 L41.3729 -17.6604 L31.3735 -0.3396 L27.9093 -2.3394" /><ns0:path style="stroke:none;" d="M40.7954 5.6604 L40.7954 1.5042 Q40.7954 0.7229 40.4438 0.3323 Q40.0923 -0.0583 39.3266 -0.0583 Q38.311 -0.0583 37.8423 0.4886 Q37.3735 1.0354 37.3735 2.2854 L37.3735 5.6604 L36.4048 5.6604 L36.4048 -0.7614 L37.2016 -0.7614 L37.3579 0.1136 L37.4048 0.1136 Q37.7016 -0.3552 38.2407 -0.6208 Q38.7798 -0.8864 39.436 -0.8864 Q40.6079 -0.8864 41.1938 -0.3239 Q41.7798 0.2386 41.7798 1.4729 L41.7798 5.6604 L40.7954 5.6604 Z" /><ns0:line y2="11.774" y1="3.3179" x2="-20.3925" x1="-5.7467" style="fill:none;" /><ns0:line y2="-11.8112" y1="-3.3168" x2="20.457" x1="5.7446" style="fill:none;" /><ns0:line y2="25.98" y1="6.0559" x2="15" x1="3.4965" style="fill:none;" /><ns0:line y2="-25.98" y1="-6.0784" x2="-15" x1="-3.5095" style="fill:none;" /><ns0:line y2="3.2846" y1="11.7588" x2="-46.2734" x1="-31.5943" style="fill:none;" /><ns0:line y2="-3.2715" y1="-11.8216" x2="46.2962" x1="31.4856" style="fill:none;" /><ns0:line y2="-15" y1="-3.2718" x2="-77.943" x1="-57.6298" style="fill:none;" /><ns0:line y2="25.98" y1="6.1383" x2="-66.963" x1="-55.507" style="fill:none;" /><ns0:line y2="-25.98" y1="-6.2499" x2="-36.963" x1="-48.3545" style="fill:none;" /><ns0:line y2="15" y1="3.285" x2="77.943" x1="57.6525" style="fill:none;" /><ns0:line y2="25.98" y1="6.1383" x2="36.963" x1="48.419" style="fill:none;" /><ns0:line y2="-25.98" y1="-6.2499" x2="66.963" x1="55.5715" style="fill:none;" /><ns0:line y2="0" y1="-15" x2="-103.923" x1="-77.943" style="fill:none;" /><ns0:line y2="0" y1="15" x2="103.923" x1="77.943" style="fill:none;" /><ns0:line y2="-15" y1="0" x2="-129.903" x1="-103.923" style="fill:none;" /><ns0:line y2="15" y1="0" x2="129.903" x1="103.923" style="fill:none;" /><ns0:line y2="-3.2258" y1="-15" x2="-150.2983" x1="-129.903" style="fill:none;" /><ns0:line y2="3.1886" y1="15" x2="150.3628" x1="129.903" style="fill:none;" /><ns0:line y2="-15" y1="-3.2414" x2="-181.866" x1="-161.5001" style="fill:none;" /><ns0:line y2="15" y1="3.1786" x2="181.866" x1="161.3914" style="fill:none;" /><ns0:line y2="0" y1="-15" x2="-207.846" x1="-181.866" style="fill:none;" /><ns0:line y2="0" y1="15" x2="207.846" x1="181.866" style="fill:none;" /><ns0:line y2="-11.8214" y1="0" x2="-228.3206" x1="-207.846" style="fill:none;" /><ns0:line y2="11.7586" y1="0" x2="228.2119" x1="207.846" style="fill:none;" /><ns0:path style="stroke:none;" d="M1.3633 2 Q1.3633 3.125 0.543 3.7656 Q-0.2773 4.4062 -1.6836 4.4062 Q-3.2148 4.4062 -4.0273 4 L-4.0273 3.0469 Q-3.4961 3.2656 -2.8789 3.3984 Q-2.2617 3.5312 -1.6523 3.5312 Q-0.6523 3.5312 -0.1523 3.1484 Q0.3477 2.7656 0.3477 2.0938 Q0.3477 1.6562 0.168 1.3672 Q-0.0117 1.0781 -0.4258 0.8359 Q-0.8398 0.5938 -1.6992 0.2969 Q-2.8867 -0.125 -3.4023 -0.7109 Q-3.918 -1.2969 -3.918 -2.25 Q-3.918 -3.2344 -3.1758 -3.8203 Q-2.4336 -4.4062 -1.1992 -4.4062 Q0.0664 -4.4062 1.1445 -3.9375 L0.832 -3.0781 Q-0.2305 -3.5156 -1.2305 -3.5156 Q-2.0273 -3.5156 -2.4727 -3.1797 Q-2.918 -2.8438 -2.918 -2.2344 Q-2.918 -1.7969 -2.7539 -1.5078 Q-2.5898 -1.2188 -2.1992 -0.9844 Q-1.8086 -0.75 -0.9961 -0.4531 Q0.3477 0.0156 0.8555 0.5703 Q1.3633 1.125 1.3633 2 ZM3.9336 4.2812 L2.9648 4.2812 L2.9648 -2.1406 L3.9336 -2.1406 L3.9336 4.2812 ZM2.8867 -3.875 Q2.8867 -4.2188 3.0508 -4.375 Q3.2148 -4.5312 3.4648 -4.5312 Q3.6992 -4.5312 3.8633 -4.3672 Q4.0273 -4.2031 4.0273 -3.875 Q4.0273 -3.5469 3.8633 -3.3906 Q3.6992 -3.2344 3.4648 -3.2344 Q3.2148 -3.2344 3.0508 -3.3906 Q2.8867 -3.5469 2.8867 -3.875 Z" /><ns0:path style="fill:rgb(230,0,0); stroke:none;" d="M-22.0425 14.9297 Q-22.0425 16.9922 -23.0816 18.1719 Q-24.1206 19.3516 -25.9644 19.3516 Q-27.855 19.3516 -28.8862 18.1875 Q-29.9175 17.0234 -29.9175 14.9141 Q-29.9175 12.8203 -28.8862 11.6719 Q-27.855 10.5234 -25.9644 10.5234 Q-24.105 10.5234 -23.0737 11.6953 Q-22.0425 12.8672 -22.0425 14.9297 ZM-28.8706 14.9297 Q-28.8706 16.6641 -28.1284 17.5703 Q-27.3862 18.4766 -25.9644 18.4766 Q-24.5425 18.4766 -23.8159 17.5781 Q-23.0894 16.6797 -23.0894 14.9297 Q-23.0894 13.1953 -23.8159 12.3047 Q-24.5425 11.4141 -25.9644 11.4141 Q-27.3862 11.4141 -28.1284 12.3125 Q-28.8706 13.2109 -28.8706 14.9297 Z" /><ns0:path style="fill:rgb(230,0,0); stroke:none;" d="M29.9175 -15.0703 Q29.9175 -13.0078 28.8784 -11.8281 Q27.8394 -10.6484 25.9956 -10.6484 Q24.105 -10.6484 23.0737 -11.8125 Q22.0425 -12.9766 22.0425 -15.0859 Q22.0425 -17.1797 23.0737 -18.3281 Q24.105 -19.4766 25.9956 -19.4766 Q27.855 -19.4766 28.8862 -18.3047 Q29.9175 -17.1328 29.9175 -15.0703 ZM23.0894 -15.0703 Q23.0894 -13.3359 23.8316 -12.4297 Q24.5737 -11.5234 25.9956 -11.5234 Q27.4175 -11.5234 28.1441 -12.4219 Q28.8706 -13.3203 28.8706 -15.0703 Q28.8706 -16.8047 28.1441 -17.6953 Q27.4175 -18.5859 25.9956 -18.5859 Q24.5737 -18.5859 23.8316 -17.6875 Q23.0894 -16.7891 23.0894 -15.0703 Z" /><ns0:path style="stroke:none;" d="M-50.5997 2 Q-50.5997 3.125 -51.42 3.7656 Q-52.2403 4.4062 -53.6466 4.4062 Q-55.1778 4.4062 -55.9903 4 L-55.9903 3.0469 Q-55.4591 3.2656 -54.8419 3.3984 Q-54.2247 3.5312 -53.6153 3.5312 Q-52.6153 3.5312 -52.1153 3.1484 Q-51.6153 2.7656 -51.6153 2.0938 Q-51.6153 1.6562 -51.795 1.3672 Q-51.9747 1.0781 -52.3888 0.8359 Q-52.8028 0.5938 -53.6622 0.2969 Q-54.8497 -0.125 -55.3653 -0.7109 Q-55.881 -1.2969 -55.881 -2.25 Q-55.881 -3.2344 -55.1388 -3.8203 Q-54.3966 -4.4062 -53.1622 -4.4062 Q-51.8966 -4.4062 -50.8185 -3.9375 L-51.131 -3.0781 Q-52.1935 -3.5156 -53.1935 -3.5156 Q-53.9903 -3.5156 -54.4357 -3.1797 Q-54.881 -2.8438 -54.881 -2.2344 Q-54.881 -1.7969 -54.7169 -1.5078 Q-54.5528 -1.2188 -54.1622 -0.9844 Q-53.7716 -0.75 -52.9591 -0.4531 Q-51.6153 0.0156 -51.1075 0.5703 Q-50.5997 1.125 -50.5997 2 ZM-48.0294 4.2812 L-48.9982 4.2812 L-48.9982 -2.1406 L-48.0294 -2.1406 L-48.0294 4.2812 ZM-49.0763 -3.875 Q-49.0763 -4.2188 -48.9122 -4.375 Q-48.7482 -4.5312 -48.4982 -4.5312 Q-48.2638 -4.5312 -48.0997 -4.3672 Q-47.9357 -4.2031 -47.9357 -3.875 Q-47.9357 -3.5469 -48.0997 -3.3906 Q-48.2638 -3.2344 -48.4982 -3.2344 Q-48.7482 -3.2344 -48.9122 -3.3906 Q-49.0763 -3.5469 -49.0763 -3.875 Z" /><ns0:path style="stroke:none;" d="M53.3263 2 Q53.3263 3.125 52.506 3.7656 Q51.6857 4.4062 50.2794 4.4062 Q48.7482 4.4062 47.9357 4 L47.9357 3.0469 Q48.4669 3.2656 49.0841 3.3984 Q49.7013 3.5312 50.3107 3.5312 Q51.3107 3.5312 51.8107 3.1484 Q52.3107 2.7656 52.3107 2.0938 Q52.3107 1.6562 52.131 1.3672 Q51.9513 1.0781 51.5372 0.8359 Q51.1232 0.5938 50.2638 0.2969 Q49.0763 -0.125 48.5607 -0.7109 Q48.045 -1.2969 48.045 -2.25 Q48.045 -3.2344 48.7872 -3.8203 Q49.5294 -4.4062 50.7638 -4.4062 Q52.0294 -4.4062 53.1075 -3.9375 L52.795 -3.0781 Q51.7325 -3.5156 50.7325 -3.5156 Q49.9357 -3.5156 49.4903 -3.1797 Q49.045 -2.8438 49.045 -2.2344 Q49.045 -1.7969 49.2091 -1.5078 Q49.3732 -1.2188 49.7638 -0.9844 Q50.1544 -0.75 50.9669 -0.4531 Q52.3107 0.0156 52.8185 0.5703 Q53.3263 1.125 53.3263 2 ZM55.8966 4.2812 L54.9278 4.2812 L54.9278 -2.1406 L55.8966 -2.1406 L55.8966 4.2812 ZM54.8497 -3.875 Q54.8497 -4.2188 55.0138 -4.375 Q55.1778 -4.5312 55.4278 -4.5312 Q55.6622 -4.5312 55.8263 -4.3672 Q55.9903 -4.2031 55.9903 -3.875 Q55.9903 -3.5469 55.8263 -3.3906 Q55.6622 -3.2344 55.4278 -3.2344 Q55.1778 -3.2344 55.0138 -3.3906 Q54.8497 -3.5469 54.8497 -3.875 Z" /><ns0:path style="fill:none; stroke-miterlimit:5;" d="M-77.51 -14.75 L-77.943 -15 L-78.376 -14.75" /><ns0:path style="fill:none; stroke-miterlimit:5;" d="M77.51 14.75 L77.943 15 L78.376 14.75" /><ns0:path style="fill:none; stroke-miterlimit:5;" d="M-103.49 -0.25 L-103.923 0 L-104.356 -0.25" /><ns0:path style="fill:none; stroke-miterlimit:5;" d="M103.49 0.25 L103.923 0 L104.356 0.25" /><ns0:path style="fill:none; stroke-miterlimit:5;" d="M-129.47 -14.75 L-129.903 -15 L-130.336 -14.75" /><ns0:path style="fill:none; stroke-miterlimit:5;" d="M129.47 14.75 L129.903 15 L130.336 14.75" /></ns0:g><ns0:g transform="translate(248,29)" style="stroke-linecap:butt; fill:rgb(230,0,0); text-rendering:geometricPrecision; color-rendering:optimizeQuality; image-rendering:optimizeQuality; font-family:'Open Sans'; stroke:rgb(230,0,0); color-interpolation:linearRGB; stroke-miterlimit:5;"><ns0:path style="stroke:none;" d="M-151.9485 -0.0703 Q-151.9485 1.9922 -152.9876 3.1719 Q-154.0266 4.3516 -155.8704 4.3516 Q-157.761 4.3516 -158.7923 3.1875 Q-159.8235 2.0234 -159.8235 -0.0859 Q-159.8235 -2.1797 -158.7923 -3.3281 Q-157.761 -4.4766 -155.8704 -4.4766 Q-154.011 -4.4766 -152.9798 -3.3047 Q-151.9485 -2.1328 -151.9485 -0.0703 ZM-158.7766 -0.0703 Q-158.7766 1.6641 -158.0344 2.5703 Q-157.2923 3.4766 -155.8704 3.4766 Q-154.4485 3.4766 -153.7219 2.5781 Q-152.9954 1.6797 -152.9954 -0.0703 Q-152.9954 -1.8047 -153.7219 -2.6953 Q-154.4485 -3.5859 -155.8704 -3.5859 Q-157.2923 -3.5859 -158.0344 -2.6875 Q-158.7766 -1.7891 -158.7766 -0.0703 Z" /><ns0:path style="stroke:none;" d="M159.8235 -0.0703 Q159.8235 1.9922 158.7844 3.1719 Q157.7454 4.3516 155.9016 4.3516 Q154.011 4.3516 152.9798 3.1875 Q151.9485 2.0234 151.9485 -0.0859 Q151.9485 -2.1797 152.9798 -3.3281 Q154.011 -4.4766 155.9016 -4.4766 Q157.761 -4.4766 158.7923 -3.3047 Q159.8235 -2.1328 159.8235 -0.0703 ZM152.9954 -0.0703 Q152.9954 1.6641 153.7376 2.5703 Q154.4798 3.4766 155.9016 3.4766 Q157.3235 3.4766 158.0501 2.5781 Q158.7766 1.6797 158.7766 -0.0703 Q158.7766 -1.8047 158.0501 -2.6953 Q157.3235 -3.5859 155.9016 -3.5859 Q154.4798 -3.5859 153.7376 -2.6875 Q152.9954 -1.7891 152.9954 -0.0703 Z" /><ns0:path style="fill:none; stroke:black;" d="M-181.433 -14.75 L-181.866 -15 L-182.299 -14.75" /><ns0:path style="fill:none; stroke:black;" d="M181.433 14.75 L181.866 15 L182.299 14.75" /><ns0:path style="fill:none; stroke:black;" d="M-207.413 -0.25 L-207.846 0 L-208.279 -0.25" /><ns0:path style="fill:none; stroke:black;" d="M207.413 0.25 L207.846 0 L208.279 0.25" /><ns0:path style="stroke:none;" d="M-229.8885 -15.0703 Q-229.8885 -13.0078 -230.9276 -11.8281 Q-231.9666 -10.6484 -233.8104 -10.6484 Q-235.701 -10.6484 -236.7323 -11.8125 Q-237.7635 -12.9766 -237.7635 -15.0859 Q-237.7635 -17.1797 -236.7323 -18.3281 Q-235.701 -19.4766 -233.8104 -19.4766 Q-231.951 -19.4766 -230.9198 -18.3047 Q-229.8885 -17.1328 -229.8885 -15.0703 ZM-236.7166 -15.0703 Q-236.7166 -13.3359 -235.9744 -12.4297 Q-235.2323 -11.5234 -233.8104 -11.5234 Q-232.3885 -11.5234 -231.6619 -12.4219 Q-230.9354 -13.3203 -230.9354 -15.0703 Q-230.9354 -16.8047 -231.6619 -17.6953 Q-232.3885 -18.5859 -233.8104 -18.5859 Q-235.2323 -18.5859 -235.9744 -17.6875 Q-236.7166 -16.7891 -236.7166 -15.0703 Z" /><ns0:path style="stroke:none;" d="M-238.7635 -10.7734 L-239.7635 -10.7734 L-239.7635 -14.8047 L-244.2791 -14.8047 L-244.2791 -10.7734 L-245.2791 -10.7734 L-245.2791 -19.3359 L-244.2791 -19.3359 L-244.2791 -15.6953 L-239.7635 -15.6953 L-239.7635 -19.3359 L-238.7635 -19.3359 L-238.7635 -10.7734 Z" /><ns0:path style="stroke:none;" d="M237.7635 14.9297 Q237.7635 16.9922 236.7244 18.1719 Q235.6854 19.3516 233.8416 19.3516 Q231.951 19.3516 230.9198 18.1875 Q229.8885 17.0234 229.8885 14.9141 Q229.8885 12.8203 230.9198 11.6719 Q231.951 10.5234 233.8416 10.5234 Q235.701 10.5234 236.7323 11.6953 Q237.7635 12.8672 237.7635 14.9297 ZM230.9354 14.9297 Q230.9354 16.6641 231.6776 17.5703 Q232.4198 18.4766 233.8416 18.4766 Q235.2635 18.4766 235.9901 17.5781 Q236.7166 16.6797 236.7166 14.9297 Q236.7166 13.1953 235.9901 12.3047 Q235.2635 11.4141 233.8416 11.4141 Q232.4198 11.4141 231.6776 12.3125 Q230.9354 13.2109 230.9354 14.9297 Z" /><ns0:path style="stroke:none;" d="M245.2791 19.2266 L244.2791 19.2266 L244.2791 15.1953 L239.7635 15.1953 L239.7635 19.2266 L238.7635 19.2266 L238.7635 10.6641 L239.7635 10.6641 L239.7635 14.3047 L244.2791 14.3047 L244.2791 10.6641 L245.2791 10.6641 L245.2791 19.2266 Z" /></ns0:g></ns0:g></ns0:svg></ns0:svg></ns0:svg></ns0:svg></g></svg>