<svg width="261" viewBox="0 0 261 119" style="fill-opacity:1; color-rendering:auto; color-interpolation:auto; text-rendering:auto; stroke:black; stroke-linecap:square; stroke-miterlimit:10; shape-rendering:auto; stroke-opacity:1; fill:black; stroke-dasharray:none; font-weight:normal; stroke-width:1; font-family:'Open Sans'; font-style:normal; stroke-linejoin:miter; font-size:12; stroke-dashoffset:0; image-rendering:auto;" height="119" class="cas-substance-image" xmlns:xlink="http://www.w3.org/1999/xlink" xmlns="http://www.w3.org/2000/svg"><svg class="cas-substance-single-component"><rect y="0" x="0" width="261" stroke="none" ry="7" rx="7" height="119" fill="white" class="cas-substance-group"/><svg y="0" x="0" width="261" viewBox="0 0 261 119" style="fill:black;" height="119" class="cas-substance-single-component-image"><svg><g><g transform="translate(131,59)" style="text-rendering:geometricPrecision; color-rendering:optimizeQuality; color-interpolation:linearRGB; stroke-linecap:butt; image-rendering:optimizeQuality;"><line y2="5.6357" y1="20.581" x2="11.2909" x1="19.9198" style="fill:none;"/><line y2="47.1101" y1="32.1487" x2="33.2147" x1="24.5775" style="fill:none;"/><line y2="45.3602" y1="30.3988" x2="36.2459" x1="27.6087" style="fill:none;"/><line y2="36.2384" y1="27.0062" x2="1.7695" x1="17.7598" style="fill:none;"/><line y2="39.2695" y1="30.0372" x2="3.5195" x1="19.5098" style="fill:none;"/><line y2="10.98" y1="23.6021" x2="49.02" x1="27.1559" style="fill:none;"/><line y2="0" y1="0" x2="-21.963" x1="2.0995" style="fill:none;"/><line y2="-25.98" y1="0" x2="-36.963" x1="-21.963" style="fill:none;"/><path style="stroke:none;" d="M-36.53 -25.73 L-37.396 -26.23 L-27.8218 -47.8147 L-22.6256 -44.8149 Z"/><line y2="-25.98" y1="-25.98" x2="-66.963" x1="-36.963" style="fill:none;"/><line y2="-19.02" y1="-34.02" x2="100.98" x1="126.963" style="fill:none;"/><line y2="-19.02" y1="10.98" x2="49.02" x1="49.02" style="fill:none;"/><line y2="-16.9993" y1="8.9593" x2="52.52" x1="52.52" style="fill:none;"/><line y2="25.98" y1="10.98" x2="75" x1="49.02" style="fill:none;"/><line y2="-34.02" y1="-19.02" x2="75" x1="49.02" style="fill:none;"/><line y2="10.98" y1="25.98" x2="100.98" x1="75" style="fill:none;"/><line y2="8.9593" y1="21.9385" x2="97.48" x1="74.9999" style="fill:none;"/><line y2="-19.02" y1="-34.02" x2="100.98" x1="75" style="fill:none;"/><line y2="-16.9993" y1="-29.9785" x2="97.48" x1="74.9999" style="fill:none;"/><line y2="-19.02" y1="10.98" x2="100.98" x1="100.98" style="fill:none;"/><line y2="0" y1="-25.98" x2="-81.963" x1="-66.963" style="fill:none;"/><line y2="-3.5" y1="-25.9801" x2="-83.9837" x1="-71.0044" style="fill:none;"/><line y2="-51.963" y1="-25.98" x2="-81.963" x1="-66.963" style="fill:none;"/><line y2="0" y1="0" x2="-111.963" x1="-81.963" style="fill:none;"/><line y2="-51.963" y1="-51.963" x2="-111.963" x1="-81.963" style="fill:none;"/><line y2="-48.463" y1="-48.463" x2="-109.9423" x1="-83.9837" style="fill:none;"/><line y2="-25.98" y1="0" x2="-126.963" x1="-111.963" style="fill:none;"/><line y2="-25.9801" y1="-3.5" x2="-122.9215" x1="-109.9423" style="fill:none;"/><line y2="-25.98" y1="-51.963" x2="-126.963" x1="-111.963" style="fill:none;"/></g><g transform="translate(131,59)" style="fill:rgb(148,108,0); text-rendering:geometricPrecision; color-rendering:optimizeQuality; image-rendering:optimizeQuality; font-family:'Open Sans'; stroke:rgb(148,108,0); color-interpolation:linearRGB;"><path style="stroke:none;" d="M25.7323 27.9175 Q25.7323 29.0425 24.912 29.6831 Q24.0917 30.3237 22.6854 30.3237 Q21.1542 30.3237 20.3417 29.9175 L20.3417 28.9644 Q20.8729 29.1831 21.4901 29.3159 Q22.1073 29.4487 22.7167 29.4487 Q23.7167 29.4487 24.2167 29.0659 Q24.7167 28.6831 24.7167 28.0112 Q24.7167 27.5737 24.537 27.2847 Q24.3573 26.9956 23.9432 26.7534 Q23.5292 26.5112 22.6698 26.2144 Q21.4823 25.7925 20.9667 25.2066 Q20.4511 24.6206 20.4511 23.6675 Q20.4511 22.6831 21.1932 22.0972 Q21.9354 21.5112 23.1698 21.5112 Q24.4354 21.5112 25.5136 21.98 L25.2011 22.8394 Q24.1386 22.4019 23.1386 22.4019 Q22.3417 22.4019 21.8964 22.7378 Q21.4511 23.0737 21.4511 23.6831 Q21.4511 24.1206 21.6151 24.4097 Q21.7792 24.6987 22.1698 24.9331 Q22.5604 25.1675 23.3729 25.4644 Q24.7167 25.9331 25.2245 26.4878 Q25.7323 27.0425 25.7323 27.9175 Z"/><path style="fill:rgb(230,0,0); stroke:none;" d="M11.9745 -0.0703 Q11.9745 1.9922 10.9354 3.1719 Q9.8964 4.3516 8.0526 4.3516 Q6.162 4.3516 5.1307 3.1875 Q4.0995 2.0234 4.0995 -0.0859 Q4.0995 -2.1797 5.1307 -3.3281 Q6.162 -4.4766 8.0526 -4.4766 Q9.912 -4.4766 10.9432 -3.3047 Q11.9745 -2.1328 11.9745 -0.0703 ZM5.1464 -0.0703 Q5.1464 1.6641 5.8886 2.5703 Q6.6307 3.4766 8.0526 3.4766 Q9.4745 3.4766 10.2011 2.5781 Q10.9276 1.6797 10.9276 -0.0703 Q10.9276 -1.8047 10.2011 -2.6953 Q9.4745 -3.5859 8.0526 -3.5859 Q6.6307 -3.5859 5.8886 -2.6875 Q5.1464 -1.7891 5.1464 -0.0703 Z"/><path style="fill:rgb(230,0,0); stroke:none;" d="M41.9745 51.8927 Q41.9745 53.9552 40.9354 55.1349 Q39.8964 56.3146 38.0526 56.3146 Q36.162 56.3146 35.1307 55.1505 Q34.0995 53.9864 34.0995 51.8771 Q34.0995 49.7833 35.1307 48.6349 Q36.162 47.4864 38.0526 47.4864 Q39.912 47.4864 40.9432 48.6583 Q41.9745 49.8302 41.9745 51.8927 ZM35.1464 51.8927 Q35.1464 53.6271 35.8886 54.5333 Q36.6307 55.4396 38.0526 55.4396 Q39.4745 55.4396 40.2011 54.5411 Q40.9276 53.6427 40.9276 51.8927 Q40.9276 50.1583 40.2011 49.2677 Q39.4745 48.3771 38.0526 48.3771 Q36.6307 48.3771 35.8886 49.2755 Q35.1464 50.1739 35.1464 51.8927 Z"/><path style="fill:rgb(230,0,0); stroke:none;" d="M0.9945 40.9097 Q0.9945 42.9722 -0.0446 44.1519 Q-1.0836 45.3316 -2.9274 45.3316 Q-4.818 45.3316 -5.8492 44.1675 Q-6.8805 43.0034 -6.8805 40.8941 Q-6.8805 38.8003 -5.8492 37.6519 Q-4.818 36.5034 -2.9274 36.5034 Q-1.068 36.5034 -0.0367 37.6753 Q0.9945 38.8472 0.9945 40.9097 ZM-5.8336 40.9097 Q-5.8336 42.6441 -5.0914 43.5503 Q-4.3492 44.4566 -2.9274 44.4566 Q-1.5055 44.4566 -0.7789 43.5581 Q-0.0524 42.6597 -0.0524 40.9097 Q-0.0524 39.1753 -0.7789 38.2847 Q-1.5055 37.3941 -2.9274 37.3941 Q-4.3492 37.3941 -5.0914 38.2925 Q-5.8336 39.1909 -5.8336 40.9097 Z"/></g><g transform="translate(131,59)" style="stroke-linecap:butt; text-rendering:geometricPrecision; color-rendering:optimizeQuality; image-rendering:optimizeQuality; font-family:'Open Sans'; color-interpolation:linearRGB; stroke-miterlimit:5;"><path style="fill:none;" d="M-21.463 0 L-21.963 0 L-22.213 -0.433"/></g><g transform="translate(131,59)" style="stroke-linecap:butt; font-size:8px; fill:gray; text-rendering:geometricPrecision; image-rendering:optimizeQuality; color-rendering:optimizeQuality; font-family:'Open Sans'; font-style:italic; stroke:gray; color-interpolation:linearRGB; stroke-miterlimit:5;"><path style="stroke:none;" d="M-46.1919 -33.4759 Q-46.1919 -34.8041 -45.7232 -35.9291 Q-45.2544 -37.0541 -44.2232 -38.1322 L-43.6138 -38.1322 Q-44.5826 -37.0697 -45.0669 -35.8978 Q-45.5513 -34.7259 -45.5513 -33.4916 Q-45.5513 -32.1634 -45.1138 -31.1478 L-45.6294 -31.1478 Q-46.1919 -32.1791 -46.1919 -33.4759 ZM-42.7388 -34.7884 L-43.2388 -32.4134 L-43.8951 -32.4134 L-42.6919 -38.1322 L-41.4419 -38.1322 Q-39.7076 -38.1322 -39.7076 -36.6947 Q-39.7076 -35.3353 -41.1451 -34.9447 L-40.2076 -32.4134 L-40.9263 -32.4134 L-41.7544 -34.7884 L-42.7388 -34.7884 ZM-42.1607 -37.5384 Q-42.5513 -35.6166 -42.6138 -35.3666 L-41.9576 -35.3666 Q-41.2076 -35.3666 -40.8013 -35.6947 Q-40.3951 -36.0228 -40.3951 -36.6478 Q-40.3951 -37.1166 -40.6529 -37.3275 Q-40.9107 -37.5384 -41.5044 -37.5384 L-42.1607 -37.5384 ZM-37.7349 -35.7884 Q-37.7349 -34.4603 -38.2115 -33.3275 Q-38.688 -32.1947 -39.7037 -31.1478 L-40.313 -31.1478 Q-38.3755 -33.3041 -38.3755 -35.7884 Q-38.3755 -37.1166 -38.813 -38.1322 L-38.2974 -38.1322 Q-37.7349 -37.0697 -37.7349 -35.7884 Z"/></g><g transform="translate(131,59)" style="stroke-linecap:butt; fill:rgb(230,0,0); text-rendering:geometricPrecision; color-rendering:optimizeQuality; image-rendering:optimizeQuality; font-family:'Open Sans'; stroke:rgb(230,0,0); color-interpolation:linearRGB; stroke-miterlimit:5;"><path style="stroke:none;" d="M-18.0255 -52.0333 Q-18.0255 -49.9708 -19.0646 -48.7911 Q-20.1036 -47.6114 -21.9474 -47.6114 Q-23.838 -47.6114 -24.8693 -48.7755 Q-25.9005 -49.9396 -25.9005 -52.0489 Q-25.9005 -54.1427 -24.8693 -55.2911 Q-23.838 -56.4396 -21.9474 -56.4396 Q-20.088 -56.4396 -19.0568 -55.2677 Q-18.0255 -54.0958 -18.0255 -52.0333 ZM-24.8536 -52.0333 Q-24.8536 -50.2989 -24.1114 -49.3927 Q-23.3693 -48.4864 -21.9474 -48.4864 Q-20.5255 -48.4864 -19.7989 -49.3849 Q-19.0724 -50.2833 -19.0724 -52.0333 Q-19.0724 -53.7677 -19.7989 -54.6583 Q-20.5255 -55.5489 -21.9474 -55.5489 Q-23.3693 -55.5489 -24.1114 -54.6505 Q-24.8536 -53.7521 -24.8536 -52.0333 Z"/><path style="stroke:none;" d="M-10.5099 -47.7364 L-11.5099 -47.7364 L-11.5099 -51.7677 L-16.0255 -51.7677 L-16.0255 -47.7364 L-17.0255 -47.7364 L-17.0255 -56.2989 L-16.0255 -56.2989 L-16.0255 -52.6583 L-11.5099 -52.6583 L-11.5099 -56.2989 L-10.5099 -56.2989 L-10.5099 -47.7364 Z"/><path style="fill:none; stroke:black;" d="M49.02 10.48 L49.02 10.98 L48.587 11.23"/><path style="fill:none; stroke:black;" d="M49.02 -18.52 L49.02 -19.02 L49.453 -19.27"/><path style="fill:none; stroke:black;" d="M74.567 25.73 L75 25.98 L75.433 25.73"/><path style="fill:none; stroke:black;" d="M74.567 -33.77 L75 -34.02 L75.433 -33.77"/><path style="fill:none; stroke:black;" d="M100.547 11.23 L100.98 10.98 L100.98 10.48"/><path style="fill:none; stroke:black;" d="M100.547 -19.27 L100.98 -19.02 L101.413 -19.27"/><path style="fill:none; stroke:black;" d="M-67.213 -25.547 L-66.963 -25.98 L-67.213 -26.413"/><path style="fill:none; stroke:black;" d="M-81.713 -0.433 L-81.963 0 L-82.463 -0"/><path style="fill:none; stroke:black;" d="M-81.713 -51.53 L-81.963 -51.963 L-82.463 -51.963"/><path style="fill:none; stroke:black;" d="M-111.463 0 L-111.963 0 L-112.213 -0.433"/><path style="fill:none; stroke:black;" d="M-111.463 -51.963 L-111.963 -51.963 L-112.213 -51.53"/><path style="fill:none; stroke:black;" d="M-126.713 -25.547 L-126.963 -25.98 L-126.713 -26.413"/></g></g></svg></svg></svg></svg>