<svg xmlns:ns0="http://www.w3.org/2000/svg" xmlns="http://www.w3.org/2000/svg"><g transform="translate(0, 0)"><ns0:svg width="384" viewBox="0 0 384 111" style="fill-opacity:1; color-rendering:auto; color-interpolation:auto; text-rendering:auto; stroke:black; stroke-linecap:square; stroke-miterlimit:10; shape-rendering:auto; stroke-opacity:1; fill:black; stroke-dasharray:none; font-weight:normal; stroke-width:1; font-family:'Open Sans'; font-style:normal; stroke-linejoin:miter; font-size:12; stroke-dashoffset:0; image-rendering:auto;" height="111" class="cas-substance-image"><ns0:svg class="cas-substance-single-component"><ns0:rect y="0" x="0" width="384" stroke="none" ry="7" rx="7" height="111" fill="white" class="cas-substance-group" /><ns0:svg y="0" x="0" width="384" viewBox="0 0 384 111" style="fill:black;" height="111" class="cas-substance-single-component-image"><ns0:svg><ns0:g><ns0:g transform="translate(194,55)" style="text-rendering:geometricPrecision; color-rendering:optimizeQuality; color-interpolation:linearRGB; stroke-linecap:butt; image-rendering:optimizeQuality;"><ns0:line y2="0" y1="-25.98" x2="67.5" x1="52.5" style="fill:none;" /><ns0:line y2="-25.98" y1="-25.98" x2="22.5" x1="52.5" style="fill:none;" /><ns0:line y2="0" y1="0" x2="97.5" x1="67.5" style="fill:none;" /><ns0:line y2="25.98" y1="0" x2="112.5" x1="97.5" style="fill:none;" /><ns0:line y2="25.98" y1="25.98" x2="142.5" x1="112.5" style="fill:none;" /><ns0:line y2="51.963" y1="25.98" x2="157.5" x1="142.5" style="fill:none;" /><ns0:line y2="51.963" y1="51.963" x2="187.5" x1="157.5" style="fill:none;" /><ns0:line y2="-25.98" y1="-25.98" x2="-182.1484" x1="-157.5" style="fill:none;" /><ns0:line y2="-22.48" y1="-22.48" x2="-182.1484" x1="-157.5" style="fill:none;" /><ns0:line y2="-29.48" y1="-29.48" x2="-182.1484" x1="-157.5" style="fill:none;" /><ns0:line y2="-25.98" y1="-25.98" x2="-127.5" x1="-157.5" style="fill:none;" /><ns0:line y2="0" y1="-25.98" x2="-22.5" x1="-37.5" style="fill:none;" /><ns0:line y2="-3.5" y1="-25.9801" x2="-20.4793" x1="-33.4585" style="fill:none;" /><ns0:line y2="-51.963" y1="-25.98" x2="-22.5" x1="-37.5" style="fill:none;" /><ns0:line y2="-25.98" y1="-25.98" x2="-67.5" x1="-37.5" style="fill:none;" /><ns0:line y2="0" y1="0" x2="7.5" x1="-22.5" style="fill:none;" /><ns0:line y2="-51.963" y1="-51.963" x2="7.5" x1="-22.5" style="fill:none;" /><ns0:line y2="-48.463" y1="-48.463" x2="5.4793" x1="-20.4793" style="fill:none;" /><ns0:line y2="-25.98" y1="0" x2="22.5" x1="7.5" style="fill:none;" /><ns0:line y2="-25.9801" y1="-3.5" x2="18.4585" x1="5.4793" style="fill:none;" /><ns0:line y2="-25.98" y1="-51.963" x2="22.5" x1="7.5" style="fill:none;" /><ns0:line y2="-51.963" y1="-25.98" x2="-82.5" x1="-67.5" style="fill:none;" /><ns0:line y2="-48.4631" y1="-25.9802" x2="-84.5209" x1="-71.5415" style="fill:none;" /><ns0:line y2="0" y1="-25.98" x2="-82.5" x1="-67.5" style="fill:none;" /><ns0:line y2="-51.963" y1="-51.963" x2="-112.5" x1="-82.5" style="fill:none;" /><ns0:line y2="0" y1="0" x2="-112.5" x1="-82.5" style="fill:none;" /><ns0:line y2="-3.5" y1="-3.5" x2="-110.4793" x1="-84.5207" style="fill:none;" /><ns0:line y2="-25.98" y1="-51.963" x2="-127.5" x1="-112.5" style="fill:none;" /><ns0:line y2="-25.9802" y1="-48.4631" x2="-123.4585" x1="-110.4791" style="fill:none;" /><ns0:line y2="-25.98" y1="0" x2="-127.5" x1="-112.5" style="fill:none;" /><ns0:path style="fill:none; stroke-miterlimit:5;" d="M52.75 -25.547 L52.5 -25.98 L52 -25.98" /><ns0:path style="fill:none; stroke-miterlimit:5;" d="M67.25 -0.433 L67.5 0 L68 0" /><ns0:path style="fill:none; stroke-miterlimit:5;" d="M97 -0 L97.5 0 L97.75 0.433" /><ns0:path style="fill:none; stroke-miterlimit:5;" d="M112.25 25.547 L112.5 25.98 L113 25.98" /><ns0:path style="fill:none; stroke-miterlimit:5;" d="M142 25.98 L142.5 25.98 L142.75 26.413" /><ns0:path style="fill:none; stroke-miterlimit:5;" d="M157.25 51.53 L157.5 51.963 L158 51.963" /></ns0:g><ns0:g transform="translate(194,55)" style="stroke-linecap:butt; fill:rgb(0,5,255); text-rendering:geometricPrecision; color-rendering:optimizeQuality; image-rendering:optimizeQuality; font-family:'Open Sans'; stroke:rgb(0,5,255); color-interpolation:linearRGB; stroke-miterlimit:5;"><ns0:path style="stroke:none;" d="M-184.1484 -21.8237 L-185.2891 -21.8237 L-189.9766 -29.0112 L-190.0234 -29.0112 Q-189.9297 -27.7456 -189.9297 -26.6987 L-189.9297 -21.8237 L-190.8516 -21.8237 L-190.8516 -30.3862 L-189.7266 -30.3862 L-185.0547 -23.23 L-185.0078 -23.23 Q-185.0078 -23.3862 -185.0547 -24.2456 Q-185.1016 -25.105 -185.0859 -25.48 L-185.0859 -30.3862 L-184.1484 -30.3862 L-184.1484 -21.8237 Z" /><ns0:path style="fill:none; stroke:black;" d="M-37.25 -25.547 L-37.5 -25.98 L-37.25 -26.413" /><ns0:path style="fill:none; stroke:black;" d="M-22.75 -0.433 L-22.5 0 L-22 0" /><ns0:path style="fill:none; stroke:black;" d="M-22.75 -51.53 L-22.5 -51.963 L-22 -51.963" /><ns0:path style="fill:none; stroke:black;" d="M7 -0 L7.5 0 L7.75 -0.433" /><ns0:path style="fill:none; stroke:black;" d="M7 -51.963 L7.5 -51.963 L7.75 -51.53" /><ns0:path style="fill:none; stroke:black;" d="M22.25 -25.547 L22.5 -25.98 L23 -25.98" /><ns0:path style="fill:none; stroke:black;" d="M-67.75 -26.413 L-67.5 -25.98 L-67 -25.98" /><ns0:path style="fill:none; stroke:black;" d="M-82.25 -51.53 L-82.5 -51.963 L-83 -51.963" /><ns0:path style="fill:none; stroke:black;" d="M-82.25 -0.433 L-82.5 0 L-83 -0" /><ns0:path style="fill:none; stroke:black;" d="M-112 -51.963 L-112.5 -51.963 L-112.75 -51.53" /><ns0:path style="fill:none; stroke:black;" d="M-112 0 L-112.5 0 L-112.75 -0.433" /><ns0:path style="fill:none; stroke:black;" d="M-127.25 -26.413 L-127.5 -25.98 L-128 -25.98" /></ns0:g></ns0:g></ns0:svg></ns0:svg></ns0:svg></ns0:svg></g></svg>