<svg xmlns:ns0="http://www.w3.org/2000/svg" xmlns="http://www.w3.org/2000/svg"><g transform="translate(0, 0)"><ns0:svg width="123" viewBox="0 0 123 82" style="fill-opacity:1; color-rendering:auto; color-interpolation:auto; text-rendering:auto; stroke:black; stroke-linecap:square; stroke-miterlimit:10; shape-rendering:auto; stroke-opacity:1; fill:black; stroke-dasharray:none; font-weight:normal; stroke-width:1; font-family:'Open Sans'; font-style:normal; stroke-linejoin:miter; font-size:12; stroke-dashoffset:0; image-rendering:auto;" height="82" class="cas-substance-image"><ns0:svg class="cas-substance-single-component"><ns0:rect y="0" x="0" width="123" stroke="none" ry="7" rx="7" height="82" fill="white" class="cas-substance-group" /><ns0:svg y="0" x="0" width="123" viewBox="0 0 123 67" style="fill:black;" height="67" class="cas-substance-single-component-image"><ns0:svg><ns0:g><ns0:g transform="translate(67,33)" style="text-rendering:geometricPrecision; color-rendering:optimizeQuality; color-interpolation:linearRGB; stroke-linecap:butt; image-rendering:optimizeQuality;"><ns0:line y2="-20.3443" y1="0" x2="-49.2461" x1="-37.5" style="fill:none;" /><ns0:line y2="19.3833" y1="-1.75" x2="-50.712" x1="-38.5104" style="fill:none;" /><ns0:line y2="21.1333" y1="0" x2="-47.681" x1="-35.4793" style="fill:none;" /><ns0:line y2="0" y1="0" x2="-7.5" x1="-37.5" style="fill:none;" /><ns0:line y2="25.98" y1="0" x2="7.5" x1="-7.5" style="fill:none;" /><ns0:line y2="22.48" y1="-0.0001" x2="9.5207" x1="-3.4585" style="fill:none;" /><ns0:line y2="-25.98" y1="0" x2="7.5" x1="-7.5" style="fill:none;" /><ns0:line y2="25.98" y1="25.98" x2="37.5" x1="7.5" style="fill:none;" /><ns0:line y2="-25.98" y1="-25.98" x2="37.5" x1="7.5" style="fill:none;" /><ns0:line y2="-22.48" y1="-22.48" x2="35.4793" x1="9.5207" style="fill:none;" /><ns0:line y2="0" y1="25.98" x2="52.5" x1="37.5" style="fill:none;" /><ns0:line y2="-0.0001" y1="22.48" x2="48.4585" x1="35.4793" style="fill:none;" /><ns0:line y2="0" y1="-25.98" x2="52.5" x1="37.5" style="fill:none;" /><ns0:path style="fill:none; stroke-miterlimit:5;" d="M-37.75 -0.433 L-37.5 0 L-37 0" /></ns0:g><ns0:g transform="translate(67,33)" style="stroke-linecap:butt; fill:rgb(230,0,0); text-rendering:geometricPrecision; color-rendering:optimizeQuality; image-rendering:optimizeQuality; font-family:'Open Sans'; stroke:rgb(230,0,0); color-interpolation:linearRGB; stroke-miterlimit:5;"><ns0:path style="stroke:none;" d="M-48.5625 -26.0503 Q-48.5625 -23.9878 -49.6016 -22.8081 Q-50.6406 -21.6284 -52.4844 -21.6284 Q-54.375 -21.6284 -55.4062 -22.7925 Q-56.4375 -23.9566 -56.4375 -26.0659 Q-56.4375 -28.1597 -55.4062 -29.3081 Q-54.375 -30.4566 -52.4844 -30.4566 Q-50.625 -30.4566 -49.5938 -29.2847 Q-48.5625 -28.1128 -48.5625 -26.0503 ZM-55.3906 -26.0503 Q-55.3906 -24.3159 -54.6484 -23.4097 Q-53.9062 -22.5034 -52.4844 -22.5034 Q-51.0625 -22.5034 -50.3359 -23.4019 Q-49.6094 -24.3003 -49.6094 -26.0503 Q-49.6094 -27.7847 -50.3359 -28.6753 Q-51.0625 -29.5659 -52.4844 -29.5659 Q-53.9062 -29.5659 -54.6484 -28.6675 Q-55.3906 -27.7691 -55.3906 -26.0503 Z" /><ns0:path style="stroke:none;" d="M-57.4375 -21.7534 L-58.4375 -21.7534 L-58.4375 -25.7847 L-62.9531 -25.7847 L-62.9531 -21.7534 L-63.9531 -21.7534 L-63.9531 -30.3159 L-62.9531 -30.3159 L-62.9531 -26.6753 L-58.4375 -26.6753 L-58.4375 -30.3159 L-57.4375 -30.3159 L-57.4375 -21.7534 Z" /><ns0:path style="stroke:none;" d="M-48.5625 25.9097 Q-48.5625 27.9722 -49.6016 29.1519 Q-50.6406 30.3316 -52.4844 30.3316 Q-54.375 30.3316 -55.4062 29.1675 Q-56.4375 28.0034 -56.4375 25.8941 Q-56.4375 23.8003 -55.4062 22.6519 Q-54.375 21.5034 -52.4844 21.5034 Q-50.625 21.5034 -49.5938 22.6753 Q-48.5625 23.8472 -48.5625 25.9097 ZM-55.3906 25.9097 Q-55.3906 27.6441 -54.6484 28.5503 Q-53.9062 29.4566 -52.4844 29.4566 Q-51.0625 29.4566 -50.3359 28.5581 Q-49.6094 27.6597 -49.6094 25.9097 Q-49.6094 24.1753 -50.3359 23.2847 Q-51.0625 22.3941 -52.4844 22.3941 Q-53.9062 22.3941 -54.6484 23.2925 Q-55.3906 24.1909 -55.3906 25.9097 Z" /><ns0:path style="fill:none; stroke:black;" d="M-7.25 0.433 L-7.5 0 L-8 -0" /><ns0:path style="fill:none; stroke:black;" d="M7.25 25.547 L7.5 25.98 L8 25.98" /><ns0:path style="fill:none; stroke:black;" d="M7.25 -25.547 L7.5 -25.98 L8 -25.98" /><ns0:path style="fill:none; stroke:black;" d="M37 25.98 L37.5 25.98 L37.75 25.547" /><ns0:path style="fill:none; stroke:black;" d="M37 -25.98 L37.5 -25.98 L37.75 -25.547" /><ns0:path style="fill:none; stroke:black;" d="M52.25 0.433 L52.5 0 L52.25 -0.433" /></ns0:g></ns0:g></ns0:svg></ns0:svg><ns0:svg y="67" x="53" class="cas-substance-saf"><ns0:svg y="5" x="0" width="4" style="fill:black;" height="4" class="cas-substance-saf-dot"><ns0:circle stroke="none" r="2" fill="black" cy="2" cx="2" /></ns0:svg><ns0:svg y="0" x="8" width="20" style="fill:black;" height="15" class="cas-substance-saf-image"><ns0:svg><ns0:g><ns0:g transform="translate(10,7)" style="text-rendering:geometricPrecision; font-family:'Open Sans'; color-interpolation:linearRGB; color-rendering:optimizeQuality; image-rendering:optimizeQuality;"><ns0:path style="stroke:none;" d="M-0.0859 4.1562 L-1.2266 4.1562 L-5.9141 -3.0312 L-5.9609 -3.0312 Q-5.8672 -1.7656 -5.8672 -0.7188 L-5.8672 4.1562 L-6.7891 4.1562 L-6.7891 -4.4062 L-5.6641 -4.4062 L-0.9922 2.75 L-0.9453 2.75 Q-0.9453 2.5938 -0.9922 1.7344 Q-1.0391 0.875 -1.0234 0.5 L-1.0234 -4.4062 L-0.0859 -4.4062 L-0.0859 4.1562 ZM6.0703 4.1562 L5.8672 3.2344 L5.8203 3.2344 Q5.3516 3.8438 4.875 4.0625 Q4.3984 4.2812 3.6797 4.2812 Q2.7266 4.2812 2.1797 3.7812 Q1.6328 3.2812 1.6328 2.375 Q1.6328 0.4375 4.7422 0.3438 L5.8359 0.3125 L5.8359 -0.0938 Q5.8359 -0.8438 5.5156 -1.2031 Q5.1953 -1.5625 4.4766 -1.5625 Q3.6641 -1.5625 2.6641 -1.0781 L2.3516 -1.8281 Q2.8359 -2.0781 3.3984 -2.2266 Q3.9609 -2.375 4.5391 -2.375 Q5.6797 -2.375 6.2344 -1.8672 Q6.7891 -1.3594 6.7891 -0.2344 L6.7891 4.1562 L6.0703 4.1562 ZM3.8672 3.4688 Q4.7734 3.4688 5.2969 2.9688 Q5.8203 2.4688 5.8203 1.5781 L5.8203 1 L4.8359 1.0312 Q3.6797 1.0781 3.1719 1.3984 Q2.6641 1.7188 2.6641 2.3906 Q2.6641 2.9219 2.9766 3.1953 Q3.2891 3.4688 3.8672 3.4688 Z" /></ns0:g></ns0:g></ns0:svg></ns0:svg></ns0:svg></ns0:svg></ns0:svg></g></svg>