<svg xmlns:ns0="http://www.w3.org/2000/svg" xmlns="http://www.w3.org/2000/svg"><g transform="translate(0, 0)"><ns0:svg width="114" viewBox="0 0 114 84" style="fill-opacity:1; color-rendering:auto; color-interpolation:auto; text-rendering:auto; stroke:black; stroke-linecap:square; stroke-miterlimit:10; shape-rendering:auto; stroke-opacity:1; fill:black; stroke-dasharray:none; font-weight:normal; stroke-width:1; font-family:'Open Sans'; font-style:normal; stroke-linejoin:miter; font-size:12; stroke-dashoffset:0; image-rendering:auto;" height="84" class="cas-substance-image"><ns0:svg class="cas-substance-single-component"><ns0:rect y="0" x="0" width="114" stroke="none" ry="7" rx="7" height="84" fill="white" class="cas-substance-group" /><ns0:svg y="0" x="0" width="114" viewBox="0 0 114 69" style="fill:black;" height="69" class="cas-substance-single-component-image"><ns0:svg><ns0:g><ns0:g transform="translate(55,40)" style="text-rendering:geometricPrecision; color-rendering:optimizeQuality; color-interpolation:linearRGB; stroke-linecap:butt; image-rendering:optimizeQuality;"><ns0:line y2="-7.5" y1="-19.8413" x2="25.98" x1="4.6048" style="fill:none;" /><ns0:line y2="-7.5" y1="-19.628" x2="-25.98" x1="-4.9742" style="fill:none;" /><ns0:line y2="22.5" y1="-7.5" x2="25.98" x1="25.98" style="fill:none;" /><ns0:line y2="-17.7959" y1="-5.4793" x2="47.3147" x1="25.98" style="fill:none;" /><ns0:line y2="-20.827" y1="-8.5104" x2="45.5648" x1="24.23" style="fill:none;" /><ns0:line y2="-22.5" y1="-7.5" x2="-51.963" x1="-25.98" style="fill:none;" /><ns0:line y2="16.0234" y1="-8.5103" x2="-27.73" x1="-27.73" style="fill:none;" /><ns0:line y2="16.0234" y1="-8.5104" x2="-24.23" x1="-24.23" style="fill:none;" /><ns0:path style="stroke-linecap:square; stroke:none;" d="M0.8672 -26.0781 Q-0.5391 -26.0781 -1.3594 -25.1406 Q-2.1797 -24.2031 -2.1797 -22.5625 Q-2.1797 -20.8906 -1.3906 -19.9688 Q-0.6016 -19.0469 0.8516 -19.0469 Q1.7578 -19.0469 2.8984 -19.375 L2.8984 -18.5 Q2.0078 -18.1562 0.7109 -18.1562 Q-1.1797 -18.1562 -2.2109 -19.3125 Q-3.2422 -20.4688 -3.2422 -22.5781 Q-3.2422 -23.9062 -2.75 -24.8984 Q-2.2578 -25.8906 -1.3203 -26.4297 Q-0.3828 -26.9688 0.8828 -26.9688 Q2.2266 -26.9688 3.2422 -26.4844 L2.8203 -25.625 Q1.8359 -26.0781 0.8672 -26.0781 Z" /><ns0:path style="stroke-linecap:square; stroke:none;" d="M3.2578 -27.9688 L2.2578 -27.9688 L2.2578 -32 L-2.2578 -32 L-2.2578 -27.9688 L-3.2578 -27.9688 L-3.2578 -36.5312 L-2.2578 -36.5312 L-2.2578 -32.8906 L2.2578 -32.8906 L2.2578 -36.5312 L3.2578 -36.5312 L3.2578 -27.9688 Z" /><ns0:path style="stroke-linecap:square; stroke:none;" d="M4.0703 -26.0156 L4.0703 -26.6094 L7.4297 -26.6094 L7.4297 -26.0156 L4.0703 -26.0156 Z" /><ns0:path style="fill:none; stroke-miterlimit:5;" d="M25.547 -7.75 L25.98 -7.5 L25.98 -7" /><ns0:path style="fill:none; stroke-miterlimit:5;" d="M-25.547 -7.75 L-25.98 -7.5 L-26.413 -7.75" /></ns0:g><ns0:g transform="translate(55,40)" style="stroke-linecap:butt; fill:rgb(230,0,0); text-rendering:geometricPrecision; color-rendering:optimizeQuality; image-rendering:optimizeQuality; font-family:'Open Sans'; stroke:rgb(230,0,0); color-interpolation:linearRGB; stroke-miterlimit:5;"><ns0:path style="stroke:none;" d="M55.9005 -22.5703 Q55.9005 -20.5078 54.8614 -19.3281 Q53.8224 -18.1484 51.9786 -18.1484 Q50.088 -18.1484 49.0568 -19.3125 Q48.0255 -20.4766 48.0255 -22.5859 Q48.0255 -24.6797 49.0568 -25.8281 Q50.088 -26.9766 51.9786 -26.9766 Q53.838 -26.9766 54.8693 -25.8047 Q55.9005 -24.6328 55.9005 -22.5703 ZM49.0724 -22.5703 Q49.0724 -20.8359 49.8146 -19.9297 Q50.5568 -19.0234 51.9786 -19.0234 Q53.4005 -19.0234 54.1271 -19.9219 Q54.8536 -20.8203 54.8536 -22.5703 Q54.8536 -24.3047 54.1271 -25.1953 Q53.4005 -26.0859 51.9786 -26.0859 Q50.5568 -26.0859 49.8146 -25.1875 Q49.0724 -24.2891 49.0724 -22.5703 Z" /><ns0:path style="stroke:none;" d="M-22.0425 22.4297 Q-22.0425 24.4922 -23.0816 25.6719 Q-24.1206 26.8516 -25.9644 26.8516 Q-27.855 26.8516 -28.8862 25.6875 Q-29.9175 24.5234 -29.9175 22.4141 Q-29.9175 20.3203 -28.8862 19.1719 Q-27.855 18.0234 -25.9644 18.0234 Q-24.105 18.0234 -23.0737 19.1953 Q-22.0425 20.3672 -22.0425 22.4297 ZM-28.8706 22.4297 Q-28.8706 24.1641 -28.1284 25.0703 Q-27.3862 25.9766 -25.9644 25.9766 Q-24.5425 25.9766 -23.8159 25.0781 Q-23.0894 24.1797 -23.0894 22.4297 Q-23.0894 20.6953 -23.8159 19.8047 Q-24.5425 18.9141 -25.9644 18.9141 Q-27.3862 18.9141 -28.1284 19.8125 Q-28.8706 20.7109 -28.8706 22.4297 Z" /></ns0:g></ns0:g></ns0:svg></ns0:svg><ns0:svg y="69" x="49" class="cas-substance-saf"><ns0:svg y="5" x="0" width="4" style="fill:black;" height="4" class="cas-substance-saf-dot"><ns0:circle stroke="none" r="2" fill="black" cy="2" cx="2" /></ns0:svg><ns0:svg y="0" x="8" width="18" style="fill:black;" height="15" class="cas-substance-saf-image"><ns0:svg><ns0:g><ns0:g transform="translate(7,8)" style="text-rendering:geometricPrecision; font-family:'Open Sans'; color-interpolation:linearRGB; color-rendering:optimizeQuality; image-rendering:optimizeQuality;"><ns0:path style="stroke:none;" d="M-3.5752 4.2812 L-3.5752 -4.2812 L-2.5752 -4.2812 L-2.5752 3.375 L1.2061 3.375 L1.2061 4.2812 L-3.5752 4.2812 ZM3.4814 4.2812 L2.5127 4.2812 L2.5127 -2.1406 L3.4814 -2.1406 L3.4814 4.2812 ZM2.4346 -3.875 Q2.4346 -4.2188 2.5986 -4.375 Q2.7627 -4.5312 3.0127 -4.5312 Q3.2471 -4.5312 3.4111 -4.3672 Q3.5752 -4.2031 3.5752 -3.875 Q3.5752 -3.5469 3.4111 -3.3906 Q3.2471 -3.2344 3.0127 -3.2344 Q2.7627 -3.2344 2.5986 -3.3906 Q2.4346 -3.5469 2.4346 -3.875 Z" /><ns0:path style="stroke:none;" d="M6.7158 -2.9094 L8.3252 -2.9094 L8.3252 -2.3625 L6.7158 -2.3625 L6.7158 -0.7063 L6.1846 -0.7063 L6.1846 -2.3625 L4.5752 -2.3625 L4.5752 -2.9094 L6.1846 -2.9094 L6.1846 -4.5813 L6.7158 -4.5813 L6.7158 -2.9094 Z" /></ns0:g></ns0:g></ns0:svg></ns0:svg></ns0:svg></ns0:svg></ns0:svg></g></svg>