<svg xmlns:ns0="http://www.w3.org/2000/svg" xmlns="http://www.w3.org/2000/svg"><g transform="translate(0, 0)"><ns0:svg width="126" viewBox="0 0 126 106" style="fill-opacity:1; color-rendering:auto; color-interpolation:auto; text-rendering:auto; stroke:black; stroke-linecap:square; stroke-miterlimit:10; shape-rendering:auto; stroke-opacity:1; fill:black; stroke-dasharray:none; font-weight:normal; stroke-width:1; font-family:'Open Sans'; font-style:normal; stroke-linejoin:miter; font-size:12; stroke-dashoffset:0; image-rendering:auto;" height="106" class="cas-substance-image"><ns0:svg class="cas-substance-single-component"><ns0:rect y="0" x="0" width="126" stroke="none" ry="7" rx="7" height="106" fill="white" class="cas-substance-group" /><ns0:svg y="0" x="0" width="126" viewBox="0 0 126 106" style="fill:black;" height="106" class="cas-substance-single-component-image"><ns0:svg><ns0:g><ns0:g transform="translate(55,52)" style="text-rendering:geometricPrecision; color-rendering:optimizeQuality; color-interpolation:linearRGB; stroke-linecap:butt; image-rendering:optimizeQuality;"><ns0:line y2="-30" y1="-45" x2="-25.98" x1="-51.963" style="fill:none;" /><ns0:line y2="-30" y1="-42.0652" x2="25.98" x1="46.8793" style="fill:none;" /><ns0:line y2="15" y1="38.5938" x2="0" x1="0" style="fill:none;" /><ns0:line y2="-30" y1="-42.0649" x2="-25.98" x1="-5.0836" style="fill:none;" /><ns0:line y2="-30" y1="-42.0649" x2="25.98" x1="5.0836" style="fill:none;" /><ns0:line y2="-27.9793" y1="-39.0338" x2="22.48" x1="3.3336" style="fill:none;" /><ns0:line y2="-6.4062" y1="-30" x2="-25.98" x1="-25.98" style="fill:none;" /><ns0:line y2="-6.4062" y1="-27.9793" x2="-22.48" x1="-22.48" style="fill:none;" /><ns0:line y2="-6.4062" y1="-30" x2="25.98" x1="25.98" style="fill:none;" /><ns0:line y2="15" y1="2.9351" x2="0" x1="-20.8964" style="fill:none;" /><ns0:line y2="15" y1="2.9351" x2="0" x1="20.8964" style="fill:none;" /><ns0:line y2="10.9585" y1="-0.096" x2="-0.0001" x1="19.1464" style="fill:none;" /></ns0:g><ns0:g transform="translate(55,52)" style="fill:rgb(0,5,255); text-rendering:geometricPrecision; color-rendering:optimizeQuality; image-rendering:optimizeQuality; font-family:'Open Sans'; stroke:rgb(0,5,255); color-interpolation:linearRGB;"><ns0:path style="stroke:none;" d="M55.3146 -40.8438 L54.1739 -40.8438 L49.4864 -48.0312 L49.4396 -48.0312 Q49.5333 -46.7656 49.5333 -45.7188 L49.5333 -40.8438 L48.6114 -40.8438 L48.6114 -49.4062 L49.7364 -49.4062 L54.4083 -42.25 L54.4552 -42.25 Q54.4552 -42.4062 54.4083 -43.2656 Q54.3614 -44.125 54.3771 -44.5 L54.3771 -49.4062 L55.3146 -49.4062 L55.3146 -40.8438 Z" /><ns0:path style="stroke:none;" d="M62.8302 -40.8438 L61.8302 -40.8438 L61.8302 -44.875 L57.3146 -44.875 L57.3146 -40.8438 L56.3146 -40.8438 L56.3146 -49.4062 L57.3146 -49.4062 L57.3146 -45.7656 L61.8302 -45.7656 L61.8302 -49.4062 L62.8302 -49.4062 L62.8302 -40.8438 Z" /><ns0:path style="stroke:none;" d="M67.5802 -39.0344 L63.8302 -39.0344 L63.8302 -39.5969 L65.3302 -41.1125 Q66.0177 -41.8 66.2364 -42.0969 Q66.4552 -42.3937 66.5646 -42.675 Q66.6739 -42.9562 66.6739 -43.2844 Q66.6739 -43.7375 66.4005 -44.0031 Q66.1271 -44.2687 65.6271 -44.2687 Q65.2833 -44.2687 64.963 -44.1516 Q64.6427 -44.0344 64.2521 -43.7375 L63.9083 -44.175 Q64.6896 -44.8312 65.6271 -44.8312 Q66.4239 -44.8312 66.8849 -44.4172 Q67.3458 -44.0031 67.3458 -43.3156 Q67.3458 -42.7687 67.0411 -42.2375 Q66.7364 -41.7062 65.8927 -40.8937 L64.6427 -39.675 L64.6427 -39.6437 L67.5802 -39.6437 L67.5802 -39.0344 Z" /><ns0:path style="stroke:none;" d="M3.3516 49.1562 L2.2109 49.1562 L-2.4766 41.9688 L-2.5234 41.9688 Q-2.4297 43.2344 -2.4297 44.2812 L-2.4297 49.1562 L-3.3516 49.1562 L-3.3516 40.5938 L-2.2266 40.5938 L2.4453 47.75 L2.4922 47.75 Q2.4922 47.5938 2.4453 46.7344 Q2.3984 45.875 2.4141 45.5 L2.4141 40.5938 L3.3516 40.5938 L3.3516 49.1562 Z" /><ns0:path style="stroke:none;" d="M10.8672 49.1562 L9.8672 49.1562 L9.8672 45.125 L5.3516 45.125 L5.3516 49.1562 L4.3516 49.1562 L4.3516 40.5938 L5.3516 40.5938 L5.3516 44.2344 L9.8672 44.2344 L9.8672 40.5938 L10.8672 40.5938 L10.8672 49.1562 Z" /><ns0:path style="stroke:none;" d="M15.6172 50.9656 L11.8672 50.9656 L11.8672 50.4031 L13.3672 48.8875 Q14.0547 48.2 14.2734 47.9031 Q14.4922 47.6063 14.6016 47.325 Q14.7109 47.0438 14.7109 46.7156 Q14.7109 46.2625 14.4375 45.9969 Q14.1641 45.7313 13.6641 45.7313 Q13.3203 45.7313 13 45.8484 Q12.6797 45.9656 12.2891 46.2625 L11.9453 45.825 Q12.7266 45.1688 13.6641 45.1688 Q14.4609 45.1688 14.9219 45.5828 Q15.3828 45.9969 15.3828 46.6844 Q15.3828 47.2313 15.0781 47.7625 Q14.7734 48.2938 13.9297 49.1063 L12.6797 50.325 L12.6797 50.3563 L15.6172 50.3563 L15.6172 50.9656 Z" /><ns0:path style="stroke:none;" d="M3.3516 -40.8438 L2.2109 -40.8438 L-2.4766 -48.0312 L-2.5234 -48.0312 Q-2.4297 -46.7656 -2.4297 -45.7188 L-2.4297 -40.8438 L-3.3516 -40.8438 L-3.3516 -49.4062 L-2.2266 -49.4062 L2.4453 -42.25 L2.4922 -42.25 Q2.4922 -42.4062 2.4453 -43.2656 Q2.3984 -44.125 2.4141 -44.5 L2.4141 -49.4062 L3.3516 -49.4062 L3.3516 -40.8438 Z" /></ns0:g><ns0:g transform="translate(55,52)" style="stroke-linecap:butt; text-rendering:geometricPrecision; color-rendering:optimizeQuality; image-rendering:optimizeQuality; font-family:'Open Sans'; color-interpolation:linearRGB; stroke-miterlimit:5;"><ns0:path style="fill:none;" d="M-25.98 -29.5 L-25.98 -30 L-26.413 -30.25" /><ns0:path style="fill:none;" d="M25.547 -30.25 L25.98 -30 L26.413 -30.25" /><ns0:path style="fill:rgb(0,5,255); stroke:none;" d="M-22.6284 4.1562 L-23.7691 4.1562 L-28.4566 -3.0312 L-28.5034 -3.0312 Q-28.4097 -1.7656 -28.4097 -0.7188 L-28.4097 4.1562 L-29.3316 4.1562 L-29.3316 -4.4062 L-28.2066 -4.4062 L-23.5347 2.75 L-23.4878 2.75 Q-23.4878 2.5938 -23.5347 1.7344 Q-23.5816 0.875 -23.5659 0.5 L-23.5659 -4.4062 L-22.6284 -4.4062 L-22.6284 4.1562 Z" /><ns0:path style="fill:rgb(0,5,255); stroke:none;" d="M29.3316 4.1562 L28.1909 4.1562 L23.5034 -3.0312 L23.4566 -3.0312 Q23.5503 -1.7656 23.5503 -0.7188 L23.5503 4.1562 L22.6284 4.1562 L22.6284 -4.4062 L23.7534 -4.4062 L28.4253 2.75 L28.4722 2.75 Q28.4722 2.5938 28.4253 1.7344 Q28.3784 0.875 28.3941 0.5 L28.3941 -4.4062 L29.3316 -4.4062 L29.3316 4.1562 Z" /><ns0:path style="fill:none;" d="M0.433 14.75 L0 15 L-0 15.5" /></ns0:g></ns0:g></ns0:svg></ns0:svg></ns0:svg></ns0:svg></g></svg>