<svg width="119" viewBox="0 0 119 110" style="fill-opacity:1; color-rendering:auto; color-interpolation:auto; text-rendering:auto; stroke:black; stroke-linecap:square; stroke-miterlimit:10; shape-rendering:auto; stroke-opacity:1; fill:black; stroke-dasharray:none; font-weight:normal; stroke-width:1; font-family:'Open Sans'; font-style:normal; stroke-linejoin:miter; font-size:12; stroke-dashoffset:0; image-rendering:auto;" height="110" class="cas-substance-image" xmlns:xlink="http://www.w3.org/1999/xlink" xmlns="http://www.w3.org/2000/svg"><svg class="cas-substance-single-component"><rect y="0" x="0" width="119" stroke="none" ry="7" rx="7" height="110" fill="white" class="cas-substance-group"/><svg y="0" x="0" width="119" viewBox="0 0 119 110" style="fill:black;" height="110" class="cas-substance-single-component-image"><svg><g><g transform="translate(59,55)" style="text-rendering:geometricPrecision; color-rendering:optimizeQuality; color-interpolation:linearRGB; stroke-linecap:butt; image-rendering:optimizeQuality;"><line y2="-19.581" y1="-39.657" x2="33.525" x1="55.818" style="fill:none;"/><line y2="28.5676" y1="51.801" x2="7.9559" x1="3.018" style="fill:none;"/><line y2="0.162" y1="-25.818" x2="-10.818" x1="4.182" style="fill:none;"/><line y2="-19.581" y1="-25.818" x2="33.525" x1="4.182" style="fill:none;"/><line y2="-51.801" y1="-25.818" x2="-10.818" x1="4.182" style="fill:none;"/><line y2="-48.3011" y1="-25.8182" x2="-12.8389" x1="0.1405" style="fill:none;"/><line y2="17.2465" y1="0.162" x2="4.5652" x1="-10.818" style="fill:none;"/><line y2="0.162" y1="0.162" x2="-40.818" x1="-10.818" style="fill:none;"/><line y2="-3.338" y1="-3.338" x2="-38.7973" x1="-12.8387" style="fill:none;"/><line y2="10.254" y1="-19.581" x2="36.66" x1="33.525" style="fill:none;"/><line y2="8.6101" y1="-17.2056" x2="32.968" x1="30.2553" style="fill:none;"/><line y2="-51.801" y1="-51.801" x2="-40.818" x1="-10.818" style="fill:none;"/><line y2="10.254" y1="20.1494" x2="36.66" x1="14.4337" style="fill:none;"/><line y2="-25.818" y1="0.162" x2="-55.818" x1="-40.818" style="fill:none;"/><line y2="-25.818" y1="-51.801" x2="-55.818" x1="-40.818" style="fill:none;"/><line y2="-25.8182" y1="-48.3011" x2="-51.7766" x1="-38.7971" style="fill:none;"/><path style="fill:none; stroke-miterlimit:5;" d="M3.932 -26.251 L4.182 -25.818 L4.6711 -25.714"/><path style="fill:none; stroke-miterlimit:5;" d="M-11.318 0.162 L-10.818 0.162 L-10.568 -0.271"/><path style="fill:none; stroke-miterlimit:5;" d="M33.5772 -19.0837 L33.525 -19.581 L33.8965 -19.9156"/><path style="fill:none; stroke-miterlimit:5;" d="M-10.568 -51.368 L-10.818 -51.801 L-11.318 -51.801"/></g><g transform="translate(59,55)" style="stroke-linecap:butt; fill:rgb(0,5,255); text-rendering:geometricPrecision; color-rendering:optimizeQuality; image-rendering:optimizeQuality; font-family:'Open Sans'; stroke:rgb(0,5,255); color-interpolation:linearRGB; stroke-miterlimit:5;"><path style="stroke:none;" d="M12.6066 26.6112 L11.4659 26.6112 L6.7784 19.4237 L6.7316 19.4237 Q6.8253 20.6894 6.8253 21.7362 L6.8253 26.6112 L5.9034 26.6112 L5.9034 18.0487 L7.0284 18.0487 L11.7003 25.205 L11.7472 25.205 Q11.7472 25.0487 11.7003 24.1894 Q11.6534 23.33 11.6691 22.955 L11.6691 18.0487 L12.6066 18.0487 L12.6066 26.6112 Z"/><path style="fill:none; stroke:black;" d="M-40.318 0.162 L-40.818 0.162 L-41.068 -0.271"/><path style="fill:none; stroke:black;" d="M36.6077 9.7567 L36.66 10.254 L36.2032 10.4574"/><path style="fill:none; stroke:black;" d="M-40.318 -51.801 L-40.818 -51.801 L-41.068 -51.368"/><path style="fill:none; stroke:black;" d="M-55.568 -25.385 L-55.818 -25.818 L-55.568 -26.251"/></g></g></svg></svg></svg></svg>