<svg xmlns:ns0="http://www.w3.org/2000/svg" xmlns="http://www.w3.org/2000/svg"><g transform="translate(0, 0)"><ns0:svg width="162" viewBox="0 0 162 110" style="fill-opacity:1; color-rendering:auto; color-interpolation:auto; text-rendering:auto; stroke:black; stroke-linecap:square; stroke-miterlimit:10; shape-rendering:auto; stroke-opacity:1; fill:black; stroke-dasharray:none; font-weight:normal; stroke-width:1; font-family:'Open Sans'; font-style:normal; stroke-linejoin:miter; font-size:12; stroke-dashoffset:0; image-rendering:auto;" height="110" class="cas-substance-image"><ns0:svg class="cas-substance-single-component"><ns0:rect y="0" x="0" width="162" stroke="none" ry="7" rx="7" height="110" fill="white" class="cas-substance-group" /><ns0:svg y="0" x="0" width="162" viewBox="0 0 162 110" style="fill:black;" height="110" class="cas-substance-single-component-image"><ns0:svg><ns0:g><ns0:g transform="translate(74,55)" style="text-rendering:geometricPrecision; color-rendering:optimizeQuality; color-interpolation:linearRGB; stroke-linecap:butt; image-rendering:optimizeQuality;"><ns0:line y2="-32.0914" y1="-39.657" x2="64.8324" x1="41.553" style="fill:none;" /><ns0:line y2="-19.581" y1="-39.657" x2="19.26" x1="41.553" style="fill:none;" /><ns0:line y2="28.5675" y1="51.801" x2="-6.3097" x1="-11.25" style="fill:none;" /><ns0:line y2="0.162" y1="-25.818" x2="-25.086" x1="-10.086" style="fill:none;" /><ns0:line y2="-19.581" y1="-25.818" x2="19.26" x1="-10.086" style="fill:none;" /><ns0:line y2="-51.801" y1="-25.818" x2="-25.086" x1="-10.086" style="fill:none;" /><ns0:line y2="-48.3011" y1="-25.8182" x2="-27.1069" x1="-14.1275" style="fill:none;" /><ns0:line y2="17.2471" y1="0.162" x2="-9.6999" x1="-25.086" style="fill:none;" /><ns0:line y2="0.162" y1="0.162" x2="-55.086" x1="-25.086" style="fill:none;" /><ns0:line y2="-3.338" y1="-3.338" x2="-53.0653" x1="-27.1067" style="fill:none;" /><ns0:line y2="10.254" y1="-19.581" x2="22.395" x1="19.26" style="fill:none;" /><ns0:line y2="8.6101" y1="-17.2056" x2="18.703" x1="15.9903" style="fill:none;" /><ns0:line y2="-51.801" y1="-51.801" x2="-55.086" x1="-25.086" style="fill:none;" /><ns0:line y2="10.254" y1="20.1494" x2="22.395" x1="0.1687" style="fill:none;" /><ns0:line y2="-25.818" y1="0.162" x2="-70.086" x1="-55.086" style="fill:none;" /><ns0:line y2="-25.818" y1="-51.801" x2="-70.086" x1="-55.086" style="fill:none;" /><ns0:line y2="-25.8182" y1="-48.3011" x2="-66.0445" x1="-53.0651" style="fill:none;" /><ns0:path style="fill:none; stroke-miterlimit:5;" d="M42.0285 -39.5025 L41.553 -39.657 L41.1815 -39.3224" /></ns0:g><ns0:g transform="translate(74,55)" style="stroke-linecap:butt; fill:rgb(0,5,255); text-rendering:geometricPrecision; color-rendering:optimizeQuality; image-rendering:optimizeQuality; font-family:'Open Sans'; stroke:rgb(0,5,255); color-interpolation:linearRGB; stroke-miterlimit:5;"><ns0:path style="stroke:none;" d="M73.4376 -26.2277 L72.2969 -26.2277 L67.6094 -33.4152 L67.5626 -33.4152 Q67.6563 -32.1496 67.6563 -31.1027 L67.6563 -26.2277 L66.7344 -26.2277 L66.7344 -34.7902 L67.8594 -34.7902 L72.5313 -27.634 L72.5782 -27.634 Q72.5782 -27.7902 72.5313 -28.6496 Q72.4844 -29.509 72.5001 -29.884 L72.5001 -34.7902 L73.4376 -34.7902 L73.4376 -26.2277 Z" /><ns0:path style="stroke:none;" d="M80.9532 -26.2277 L79.9532 -26.2277 L79.9532 -30.259 L75.4376 -30.259 L75.4376 -26.2277 L74.4376 -26.2277 L74.4376 -34.7902 L75.4376 -34.7902 L75.4376 -31.1496 L79.9532 -31.1496 L79.9532 -34.7902 L80.9532 -34.7902 L80.9532 -26.2277 Z" /><ns0:path style="stroke:none;" d="M85.7032 -24.4184 L81.9532 -24.4184 L81.9532 -24.9809 L83.4532 -26.4965 Q84.1407 -27.184 84.3594 -27.4809 Q84.5782 -27.7777 84.6876 -28.059 Q84.7969 -28.3402 84.7969 -28.6684 Q84.7969 -29.1215 84.5235 -29.3871 Q84.2501 -29.6527 83.7501 -29.6527 Q83.4063 -29.6527 83.086 -29.5356 Q82.7657 -29.4184 82.3751 -29.1215 L82.0313 -29.559 Q82.8126 -30.2152 83.7501 -30.2152 Q84.5469 -30.2152 85.0079 -29.8012 Q85.4688 -29.3871 85.4688 -28.6996 Q85.4688 -28.1527 85.1641 -27.6215 Q84.8594 -27.0902 84.0157 -26.2777 L82.7657 -25.059 L82.7657 -25.0277 L85.7032 -25.0277 L85.7032 -24.4184 Z" /><ns0:path style="fill:none; stroke:black;" d="M-10.336 -26.251 L-10.086 -25.818 L-9.5969 -25.7141" /><ns0:path style="fill:none; stroke:black;" d="M-25.586 0.162 L-25.086 0.162 L-24.836 -0.271" /><ns0:path style="fill:none; stroke:black;" d="M19.3123 -19.0837 L19.26 -19.581 L19.6315 -19.9156" /><ns0:path style="fill:none; stroke:black;" d="M-24.836 -51.368 L-25.086 -51.801 L-25.586 -51.801" /><ns0:path style="stroke:none;" d="M-1.6584 26.6112 L-2.7991 26.6112 L-7.4866 19.4237 L-7.5334 19.4237 Q-7.4397 20.6894 -7.4397 21.7362 L-7.4397 26.6112 L-8.3616 26.6112 L-8.3616 18.0487 L-7.2366 18.0487 L-2.5647 25.205 L-2.5178 25.205 Q-2.5178 25.0487 -2.5647 24.1894 Q-2.6116 23.33 -2.5959 22.955 L-2.5959 18.0487 L-1.6584 18.0487 L-1.6584 26.6112 Z" /><ns0:path style="fill:none; stroke:black;" d="M-54.586 0.162 L-55.086 0.162 L-55.336 -0.271" /><ns0:path style="fill:none; stroke:black;" d="M22.3427 9.7567 L22.395 10.254 L21.9382 10.4574" /><ns0:path style="fill:none; stroke:black;" d="M-54.586 -51.801 L-55.086 -51.801 L-55.336 -51.368" /><ns0:path style="fill:none; stroke:black;" d="M-69.836 -25.385 L-70.086 -25.818 L-69.836 -26.251" /></ns0:g></ns0:g></ns0:svg></ns0:svg></ns0:svg></ns0:svg></g></svg>