<svg width="115" viewBox="0 0 115 89" style="fill-opacity:1; color-rendering:auto; color-interpolation:auto; text-rendering:auto; stroke:black; stroke-linecap:square; stroke-miterlimit:10; shape-rendering:auto; stroke-opacity:1; fill:black; stroke-dasharray:none; font-weight:normal; stroke-width:1; font-family:'Open Sans'; font-style:normal; stroke-linejoin:miter; font-size:12; stroke-dashoffset:0; image-rendering:auto;" height="89" class="cas-substance-image" xmlns:xlink="http://www.w3.org/1999/xlink" xmlns="http://www.w3.org/2000/svg"><svg class="cas-substance-single-component"><rect y="0" x="0" width="115" stroke="none" ry="7" rx="7" height="89" fill="white" class="cas-substance-group"/><svg y="0" x="0" width="115" viewBox="0 0 115 89" style="fill:black;" height="89" class="cas-substance-single-component-image"><svg><g><g transform="translate(56,42)" style="text-rendering:geometricPrecision; color-rendering:optimizeQuality; color-interpolation:linearRGB; stroke-linecap:butt; image-rendering:optimizeQuality;"><line y2="6.8517" y1="-12.99" x2="48.956" x1="37.5" style="fill:none;"/><line y2="8.6018" y1="-9.49" x2="45.9249" x1="35.4793" style="fill:none;"/></g><g transform="translate(56,42)" style="stroke-linecap:butt; font-size:8.4px; fill:gray; text-rendering:geometricPrecision; image-rendering:optimizeQuality; color-rendering:optimizeQuality; font-family:'Open Sans'; font-style:italic; stroke:gray; color-interpolation:linearRGB;"><path style="stroke:none;" d="M32.1107 6.1642 Q32.1107 4.836 32.5794 3.711 Q33.0482 2.586 34.0794 1.5079 L34.6888 1.5079 Q33.72 2.5704 33.2357 3.7423 Q32.7513 4.9142 32.7513 6.1485 Q32.7513 7.4767 33.1888 8.4923 L32.6732 8.4923 Q32.1107 7.461 32.1107 6.1642 ZM37.6238 7.2267 L34.1082 7.2267 L34.2176 6.6954 L37.827 2.1173 L35.2645 2.1173 L35.3895 1.5079 L38.7488 1.5079 L38.6395 2.0548 L35.0301 6.6173 L37.7645 6.6173 L37.6238 7.2267 ZM40.569 3.8517 Q40.569 5.1798 40.0924 6.3126 Q39.6158 7.4454 38.6002 8.4923 L37.9908 8.4923 Q39.9283 6.336 39.9283 3.8517 Q39.9283 2.5235 39.4908 1.5079 L40.0065 1.5079 Q40.569 2.5704 40.569 3.8517 Z"/><line y2="-12.99" y1="-12.99" x2="7.5" x1="37.5" style="fill:none; stroke:black;"/><line y2="33.2483" y1="18.8783" x2="40.8035" x1="49.1003" style="fill:none; stroke:black;"/><line y2="-38.97" y1="-12.99" x2="-7.5" x1="7.5" style="fill:none; stroke:black;"/><line y2="-35.47" y1="-12.9899" x2="-9.5207" x1="3.4585" style="fill:none; stroke:black;"/><line y2="12.99" y1="-12.99" x2="-7.5" x1="7.5" style="fill:none; stroke:black;"/><line y2="-38.97" y1="-38.97" x2="-37.5" x1="-7.5" style="fill:none; stroke:black;"/><line y2="12.99" y1="12.99" x2="-37.5" x1="-7.5" style="fill:none; stroke:black;"/><line y2="9.49" y1="9.49" x2="-35.4793" x1="-9.5207" style="fill:none; stroke:black;"/><line y2="-12.99" y1="-38.97" x2="-52.5" x1="-37.5" style="fill:none; stroke:black;"/><line y2="-12.9899" y1="-35.47" x2="-48.4585" x1="-35.4793" style="fill:none; stroke:black;"/><line y2="-12.99" y1="12.99" x2="-52.5" x1="-37.5" style="fill:none; stroke:black;"/><path style="fill:none; stroke-miterlimit:5; stroke:black;" d="M37.75 -12.557 L37.5 -12.99 L37 -12.99"/></g><g transform="translate(56,42)" style="stroke-linecap:butt; fill:rgb(0,5,255); text-rendering:geometricPrecision; color-rendering:optimizeQuality; image-rendering:optimizeQuality; font-family:'Open Sans'; stroke:rgb(0,5,255); color-interpolation:linearRGB; stroke-miterlimit:5;"><path style="stroke:none;" d="M55.8516 17.1462 L54.7109 17.1462 L50.0234 9.9587 L49.9766 9.9587 Q50.0703 11.2244 50.0703 12.2712 L50.0703 17.1462 L49.1484 17.1462 L49.1484 8.5837 L50.2734 8.5837 L54.9453 15.74 L54.9922 15.74 Q54.9922 15.5837 54.9453 14.7244 Q54.8984 13.865 54.9141 13.49 L54.9141 8.5837 L55.8516 8.5837 L55.8516 17.1462 Z"/><path style="fill:rgb(230,0,0); stroke:none;" d="M41.4375 38.8997 Q41.4375 40.9622 40.3984 42.1419 Q39.3594 43.3216 37.5156 43.3216 Q35.625 43.3216 34.5938 42.1575 Q33.5625 40.9934 33.5625 38.8841 Q33.5625 36.7903 34.5938 35.6419 Q35.625 34.4934 37.5156 34.4934 Q39.375 34.4934 40.4062 35.6653 Q41.4375 36.8372 41.4375 38.8997 ZM34.6094 38.8997 Q34.6094 40.6341 35.3516 41.5403 Q36.0938 42.4466 37.5156 42.4466 Q38.9375 42.4466 39.6641 41.5481 Q40.3906 40.6497 40.3906 38.8997 Q40.3906 37.1653 39.6641 36.2747 Q38.9375 35.3841 37.5156 35.3841 Q36.0938 35.3841 35.3516 36.2825 Q34.6094 37.1809 34.6094 38.8997 Z"/><path style="fill:rgb(230,0,0); stroke:none;" d="M32.5625 43.1966 L31.5625 43.1966 L31.5625 39.1653 L27.0469 39.1653 L27.0469 43.1966 L26.0469 43.1966 L26.0469 34.6341 L27.0469 34.6341 L27.0469 38.2747 L31.5625 38.2747 L31.5625 34.6341 L32.5625 34.6341 L32.5625 43.1966 Z"/><path style="fill:none; stroke:black;" d="M7.25 -13.423 L7.5 -12.99 L8 -12.99"/><path style="fill:none; stroke:black;" d="M-7.25 -38.537 L-7.5 -38.97 L-8 -38.97"/><path style="fill:none; stroke:black;" d="M-7.25 12.557 L-7.5 12.99 L-8 12.99"/><path style="fill:none; stroke:black;" d="M-37 -38.97 L-37.5 -38.97 L-37.75 -38.537"/><path style="fill:none; stroke:black;" d="M-37 12.99 L-37.5 12.99 L-37.75 12.557"/><path style="fill:none; stroke:black;" d="M-52.25 -13.423 L-52.5 -12.99 L-52.25 -12.557"/></g></g></svg></svg></svg></svg>