<svg xmlns:ns0="http://www.w3.org/2000/svg" xmlns="http://www.w3.org/2000/svg"><g transform="translate(0, 0)"><ns0:svg width="214" viewBox="0 0 214 105" style="fill-opacity:1; color-rendering:auto; color-interpolation:auto; text-rendering:auto; stroke:black; stroke-linecap:square; stroke-miterlimit:10; shape-rendering:auto; stroke-opacity:1; fill:black; stroke-dasharray:none; font-weight:normal; stroke-width:1; font-family:'Open Sans'; font-style:normal; stroke-linejoin:miter; font-size:12; stroke-dashoffset:0; image-rendering:auto;" height="105" class="cas-substance-image"><ns0:svg class="cas-substance-single-component"><ns0:rect y="0" x="0" width="214" stroke="none" ry="7" rx="7" height="105" fill="white" class="cas-substance-group" /><ns0:svg y="0" x="0" width="214" viewBox="0 0 214 105" style="fill:black;" height="105" class="cas-substance-single-component-image"><ns0:svg><ns0:g><ns0:g transform="translate(107,52)" style="text-rendering:geometricPrecision; color-rendering:optimizeQuality; color-interpolation:linearRGB; stroke-linecap:butt; image-rendering:optimizeQuality;"><ns0:line y2="-15" y1="0" x2="-25.98" x1="0" style="fill:none;" /><ns0:line y2="-15" y1="0" x2="25.98" x1="0" style="fill:none;" /><ns0:line y2="23.5938" y1="0" x2="0" x1="0" style="fill:none;" /><ns0:line y2="-3.2258" y1="-15" x2="-46.3753" x1="-25.98" style="fill:none;" /><ns0:line y2="-38.6484" y1="-13.9896" x2="-24.23" x1="-24.23" style="fill:none;" /><ns0:line y2="-38.6484" y1="-13.9897" x2="-27.73" x1="-27.73" style="fill:none;" /><ns0:line y2="-3.2412" y1="-15" x2="46.3487" x1="25.98" style="fill:none;" /><ns0:line y2="-38.6484" y1="-13.9897" x2="27.73" x1="27.73" style="fill:none;" /><ns0:line y2="-38.6484" y1="-13.9896" x2="24.23" x1="24.23" style="fill:none;" /><ns0:line y2="43.2741" y1="34.4506" x2="19.4909" x1="4.2086" style="fill:none;" /><ns0:line y2="40.2431" y1="31.4196" x2="21.2409" x1="5.9586" style="fill:none;" /><ns0:line y2="40.2584" y1="31.4196" x2="-21.2675" x1="-5.9586" style="fill:none;" /><ns0:line y2="43.2895" y1="34.4506" x2="-19.5175" x1="-4.2086" style="fill:none;" /><ns0:line y2="-15" y1="-3.2414" x2="-77.943" x1="-57.5771" style="fill:none;" /><ns0:line y2="-15" y1="-3.226" x2="77.943" x1="57.5505" style="fill:none;" /><ns0:line y2="0" y1="-15" x2="-103.923" x1="-77.943" style="fill:none;" /><ns0:line y2="0" y1="-15" x2="103.923" x1="77.943" style="fill:none;" /><ns0:path style="fill:none; stroke-miterlimit:5;" d="M-25.547 -14.75 L-25.98 -15 L-26.413 -14.75" /><ns0:path style="fill:none; stroke-miterlimit:5;" d="M25.547 -14.75 L25.98 -15 L26.413 -14.75" /></ns0:g><ns0:g transform="translate(107,52)" style="stroke-linecap:butt; fill:rgb(0,5,255); text-rendering:geometricPrecision; color-rendering:optimizeQuality; image-rendering:optimizeQuality; font-family:'Open Sans'; stroke:rgb(0,5,255); color-interpolation:linearRGB; stroke-miterlimit:5;"><ns0:path style="stroke:none;" d="M3.3516 34.1562 L2.2109 34.1562 L-2.4766 26.9688 L-2.5234 26.9688 Q-2.4297 28.2344 -2.4297 29.2812 L-2.4297 34.1562 L-3.3516 34.1562 L-3.3516 25.5938 L-2.2266 25.5938 L2.4453 32.75 L2.4922 32.75 Q2.4922 32.5938 2.4453 31.7344 Q2.3984 30.875 2.4141 30.5 L2.4141 25.5938 L3.3516 25.5938 L3.3516 34.1562 Z" /><ns0:path style="fill:rgb(230,0,0); stroke:none;" d="M-48.0255 -0.0703 Q-48.0255 1.9922 -49.0646 3.1719 Q-50.1036 4.3516 -51.9474 4.3516 Q-53.838 4.3516 -54.8693 3.1875 Q-55.9005 2.0234 -55.9005 -0.0859 Q-55.9005 -2.1797 -54.8693 -3.3281 Q-53.838 -4.4766 -51.9474 -4.4766 Q-50.088 -4.4766 -49.0568 -3.3047 Q-48.0255 -2.1328 -48.0255 -0.0703 ZM-54.8536 -0.0703 Q-54.8536 1.6641 -54.1114 2.5703 Q-53.3693 3.4766 -51.9474 3.4766 Q-50.5255 3.4766 -49.7989 2.5781 Q-49.0724 1.6797 -49.0724 -0.0703 Q-49.0724 -1.8047 -49.7989 -2.6953 Q-50.5255 -3.5859 -51.9474 -3.5859 Q-53.3693 -3.5859 -54.1114 -2.6875 Q-54.8536 -1.7891 -54.8536 -0.0703 Z" /><ns0:path style="fill:rgb(230,0,0); stroke:none;" d="M-22.0425 -45.0703 Q-22.0425 -43.0078 -23.0816 -41.8281 Q-24.1206 -40.6484 -25.9644 -40.6484 Q-27.855 -40.6484 -28.8862 -41.8125 Q-29.9175 -42.9766 -29.9175 -45.0859 Q-29.9175 -47.1797 -28.8862 -48.3281 Q-27.855 -49.4766 -25.9644 -49.4766 Q-24.105 -49.4766 -23.0737 -48.3047 Q-22.0425 -47.1328 -22.0425 -45.0703 ZM-28.8706 -45.0703 Q-28.8706 -43.3359 -28.1284 -42.4297 Q-27.3862 -41.5234 -25.9644 -41.5234 Q-24.5425 -41.5234 -23.8159 -42.4219 Q-23.0894 -43.3203 -23.0894 -45.0703 Q-23.0894 -46.8047 -23.8159 -47.6953 Q-24.5425 -48.5859 -25.9644 -48.5859 Q-27.3862 -48.5859 -28.1284 -47.6875 Q-28.8706 -46.7891 -28.8706 -45.0703 Z" /><ns0:path style="fill:rgb(230,0,0); stroke:none;" d="M55.9005 -0.0703 Q55.9005 1.9922 54.8614 3.1719 Q53.8224 4.3516 51.9786 4.3516 Q50.088 4.3516 49.0568 3.1875 Q48.0255 2.0234 48.0255 -0.0859 Q48.0255 -2.1797 49.0568 -3.3281 Q50.088 -4.4766 51.9786 -4.4766 Q53.838 -4.4766 54.8693 -3.3047 Q55.9005 -2.1328 55.9005 -0.0703 ZM49.0724 -0.0703 Q49.0724 1.6641 49.8146 2.5703 Q50.5568 3.4766 51.9786 3.4766 Q53.4005 3.4766 54.1271 2.5781 Q54.8536 1.6797 54.8536 -0.0703 Q54.8536 -1.8047 54.1271 -2.6953 Q53.4005 -3.5859 51.9786 -3.5859 Q50.5568 -3.5859 49.8146 -2.6875 Q49.0724 -1.7891 49.0724 -0.0703 Z" /><ns0:path style="fill:rgb(230,0,0); stroke:none;" d="M29.9175 -45.0703 Q29.9175 -43.0078 28.8784 -41.8281 Q27.8394 -40.6484 25.9956 -40.6484 Q24.105 -40.6484 23.0737 -41.8125 Q22.0425 -42.9766 22.0425 -45.0859 Q22.0425 -47.1797 23.0737 -48.3281 Q24.105 -49.4766 25.9956 -49.4766 Q27.855 -49.4766 28.8862 -48.3047 Q29.9175 -47.1328 29.9175 -45.0703 ZM23.0894 -45.0703 Q23.0894 -43.3359 23.8316 -42.4297 Q24.5737 -41.5234 25.9956 -41.5234 Q27.4175 -41.5234 28.1441 -42.4219 Q28.8706 -43.3203 28.8706 -45.0703 Q28.8706 -46.8047 28.1441 -47.6953 Q27.4175 -48.5859 25.9956 -48.5859 Q24.5737 -48.5859 23.8316 -47.6875 Q23.0894 -46.7891 23.0894 -45.0703 Z" /><ns0:path style="fill:rgb(230,0,0); stroke:none;" d="M29.9175 44.9297 Q29.9175 46.9922 28.8784 48.1719 Q27.8394 49.3516 25.9956 49.3516 Q24.105 49.3516 23.0737 48.1875 Q22.0425 47.0234 22.0425 44.9141 Q22.0425 42.8203 23.0737 41.6719 Q24.105 40.5234 25.9956 40.5234 Q27.855 40.5234 28.8862 41.6953 Q29.9175 42.8672 29.9175 44.9297 ZM23.0894 44.9297 Q23.0894 46.6641 23.8316 47.5703 Q24.5737 48.4766 25.9956 48.4766 Q27.4175 48.4766 28.1441 47.5781 Q28.8706 46.6797 28.8706 44.9297 Q28.8706 43.1953 28.1441 42.3047 Q27.4175 41.4141 25.9956 41.4141 Q24.5737 41.4141 23.8316 42.3125 Q23.0894 43.2109 23.0894 44.9297 Z" /><ns0:path style="fill:rgb(230,0,0); stroke:none;" d="M-22.0425 44.9297 Q-22.0425 46.9922 -23.0816 48.1719 Q-24.1206 49.3516 -25.9644 49.3516 Q-27.855 49.3516 -28.8862 48.1875 Q-29.9175 47.0234 -29.9175 44.9141 Q-29.9175 42.8203 -28.8862 41.6719 Q-27.855 40.5234 -25.9644 40.5234 Q-24.105 40.5234 -23.0737 41.6953 Q-22.0425 42.8672 -22.0425 44.9297 ZM-28.8706 44.9297 Q-28.8706 46.6641 -28.1284 47.5703 Q-27.3862 48.4766 -25.9644 48.4766 Q-24.5425 48.4766 -23.8159 47.5781 Q-23.0894 46.6797 -23.0894 44.9297 Q-23.0894 43.1953 -23.8159 42.3047 Q-24.5425 41.4141 -25.9644 41.4141 Q-27.3862 41.4141 -28.1284 42.3125 Q-28.8706 43.2109 -28.8706 44.9297 Z" /><ns0:path style="fill:none; stroke:black;" d="M-77.51 -14.75 L-77.943 -15 L-78.376 -14.75" /><ns0:path style="fill:none; stroke:black;" d="M77.51 -14.75 L77.943 -15 L78.376 -14.75" /></ns0:g></ns0:g></ns0:svg></ns0:svg></ns0:svg></ns0:svg></g></svg>