<svg width="165" viewBox="0 0 165 103" style="fill-opacity:1; color-rendering:auto; color-interpolation:auto; text-rendering:auto; stroke:black; stroke-linecap:square; stroke-miterlimit:10; shape-rendering:auto; stroke-opacity:1; fill:black; stroke-dasharray:none; font-weight:normal; stroke-width:1; font-family:'Open Sans'; font-style:normal; stroke-linejoin:miter; font-size:12; stroke-dashoffset:0; image-rendering:auto;" height="103" class="cas-substance-image" xmlns:xlink="http://www.w3.org/1999/xlink" xmlns="http://www.w3.org/2000/svg"><svg class="cas-substance-single-component"><rect y="0" x="0" width="165" stroke="none" ry="7" rx="7" height="103" fill="white" class="cas-substance-group"/><svg y="0" x="0" width="165" viewBox="0 0 165 103" style="fill:black;" height="103" class="cas-substance-single-component-image"><svg><g><g transform="translate(84,49)" style="text-rendering:geometricPrecision; color-rendering:optimizeQuality; color-interpolation:linearRGB; stroke-linecap:butt; image-rendering:optimizeQuality;"><line y2="38.5938" y1="15" x2="-51.963" x1="-51.963" style="fill:none;"/><line y2="1.0407" y1="13.9897" x2="-72.6406" x1="-50.2129" style="fill:none;"/><line y2="4.0717" y1="17.0207" x2="-74.3907" x1="-51.963" style="fill:none;"/><line y2="0" y1="15" x2="-25.98" x1="-51.963" style="fill:none;"/><line y2="0" y1="15" x2="77.943" x1="51.963" style="fill:none;"/><line y2="0" y1="15" x2="25.98" x1="51.963" style="fill:none;"/><line y2="15" y1="0" x2="0" x1="-25.98" style="fill:none;"/><line y2="-30" y1="0" x2="-25.98" x1="-25.98" style="fill:none;"/><line y2="-27.9793" y1="-2.0207" x2="-22.48" x1="-22.48" style="fill:none;"/><line y2="0" y1="15" x2="25.98" x1="0" style="fill:none;"/><line y2="-2.0207" y1="10.9585" x2="22.48" x1="-0.0001" style="fill:none;"/><line y2="-45" y1="-30" x2="0" x1="-25.98" style="fill:none;"/><line y2="-23.8438" y1="0" x2="25.98" x1="25.98" style="fill:none;"/><line y2="-32.9351" y1="-45" x2="20.8964" x1="0" style="fill:none;"/><line y2="-29.904" y1="-40.9585" x2="19.1464" x1="-0.0001" style="fill:none;"/><path style="fill:none; stroke-miterlimit:5;" d="M-51.963 15.5 L-51.963 15 L-51.53 14.75"/></g><g transform="translate(84,49)" style="stroke-linecap:butt; fill:rgb(0,5,255); text-rendering:geometricPrecision; color-rendering:optimizeQuality; image-rendering:optimizeQuality; font-family:'Open Sans'; stroke:rgb(0,5,255); color-interpolation:linearRGB; stroke-miterlimit:5;"><path style="stroke:none;" d="M-48.6114 49.1562 L-49.7521 49.1562 L-54.4396 41.9688 L-54.4864 41.9688 Q-54.3927 43.2344 -54.3927 44.2812 L-54.3927 49.1562 L-55.3146 49.1562 L-55.3146 40.5938 L-54.1896 40.5938 L-49.5177 47.75 L-49.4708 47.75 Q-49.4708 47.5938 -49.5177 46.7344 Q-49.5646 45.875 -49.5489 45.5 L-49.5489 40.5938 L-48.6114 40.5938 L-48.6114 49.1562 Z"/><path style="stroke:none;" d="M-41.0958 49.1562 L-42.0958 49.1562 L-42.0958 45.125 L-46.6114 45.125 L-46.6114 49.1562 L-47.6114 49.1562 L-47.6114 40.5938 L-46.6114 40.5938 L-46.6114 44.2344 L-42.0958 44.2344 L-42.0958 40.5938 L-41.0958 40.5938 L-41.0958 49.1562 Z"/><path style="stroke:none;" d="M-36.3458 50.9656 L-40.0958 50.9656 L-40.0958 50.4031 L-38.5958 48.8875 Q-37.9083 48.2 -37.6896 47.9031 Q-37.4708 47.6063 -37.3614 47.325 Q-37.2521 47.0438 -37.2521 46.7156 Q-37.2521 46.2625 -37.5255 45.9969 Q-37.7989 45.7313 -38.2989 45.7313 Q-38.6427 45.7313 -38.963 45.8484 Q-39.2833 45.9656 -39.6739 46.2625 L-40.0177 45.825 Q-39.2364 45.1688 -38.2989 45.1688 Q-37.5021 45.1688 -37.0411 45.5828 Q-36.5802 45.9969 -36.5802 46.6844 Q-36.5802 47.2313 -36.8849 47.7625 Q-37.1896 48.2938 -38.0333 49.1063 L-39.2833 50.325 L-39.2833 50.3563 L-36.3458 50.3563 L-36.3458 50.9656 Z"/><path style="fill:rgb(148,108,0); stroke:none;" d="M-75.2477 1.9375 Q-75.2477 3.0625 -76.068 3.7031 Q-76.8883 4.3438 -78.2946 4.3438 Q-79.8258 4.3438 -80.6383 3.9375 L-80.6383 2.9844 Q-80.1071 3.2031 -79.4899 3.3359 Q-78.8727 3.4688 -78.2633 3.4688 Q-77.2633 3.4688 -76.7633 3.0859 Q-76.2633 2.7031 -76.2633 2.0312 Q-76.2633 1.5938 -76.443 1.3047 Q-76.6227 1.0156 -77.0368 0.7734 Q-77.4508 0.5312 -78.3102 0.2344 Q-79.4977 -0.1875 -80.0133 -0.7734 Q-80.5289 -1.3594 -80.5289 -2.3125 Q-80.5289 -3.2969 -79.7868 -3.8828 Q-79.0446 -4.4688 -77.8102 -4.4688 Q-76.5446 -4.4688 -75.4664 -4 L-75.7789 -3.1406 Q-76.8414 -3.5781 -77.8414 -3.5781 Q-78.6383 -3.5781 -79.0836 -3.2422 Q-79.5289 -2.9062 -79.5289 -2.2969 Q-79.5289 -1.8594 -79.3649 -1.5703 Q-79.2008 -1.2812 -78.8102 -1.0469 Q-78.4196 -0.8125 -77.6071 -0.5156 Q-76.2633 -0.0469 -75.7555 0.5078 Q-75.2477 1.0625 -75.2477 1.9375 Z"/><path style="fill:none; stroke:black;" d="M52.396 14.75 L51.963 15 L51.53 14.75"/><path style="fill:none; stroke:black;" d="M-25.98 -0.5 L-25.98 0 L-26.413 0.25"/><path style="fill:none; stroke:black;" d="M-0.433 14.75 L0 15 L0.433 14.75"/><path style="fill:none; stroke:black;" d="M-25.98 -29.5 L-25.98 -30 L-25.547 -30.25"/><path style="fill:none; stroke:black;" d="M25.547 0.25 L25.98 0 L25.98 -0.5"/><path style="fill:none; stroke:black;" d="M-0.433 -44.75 L0 -45 L0.433 -44.75"/><path style="stroke:none;" d="M29.3316 -25.8438 L28.1909 -25.8438 L23.5034 -33.0312 L23.4566 -33.0312 Q23.5503 -31.7656 23.5503 -30.7188 L23.5503 -25.8438 L22.6284 -25.8438 L22.6284 -34.4062 L23.7534 -34.4062 L28.4253 -27.25 L28.4722 -27.25 Q28.4722 -27.4062 28.4253 -28.2656 Q28.3784 -29.125 28.3941 -29.5 L28.3941 -34.4062 L29.3316 -34.4062 L29.3316 -25.8438 Z"/></g></g></svg></svg></svg></svg>