<svg width="231" viewBox="0 0 231 71" style="fill-opacity:1; color-rendering:auto; color-interpolation:auto; text-rendering:auto; stroke:black; stroke-linecap:square; stroke-miterlimit:10; shape-rendering:auto; stroke-opacity:1; fill:black; stroke-dasharray:none; font-weight:normal; stroke-width:1; font-family:'Open Sans'; font-style:normal; stroke-linejoin:miter; font-size:12; stroke-dashoffset:0; image-rendering:auto;" height="71" class="cas-substance-image" xmlns:xlink="http://www.w3.org/1999/xlink" xmlns="http://www.w3.org/2000/svg"><svg class="cas-substance-single-component"><rect y="0" x="0" width="231" stroke="none" ry="7" rx="7" height="71" fill="white" class="cas-substance-group"/><svg y="0" x="0" width="231" viewBox="0 0 231 71" style="fill:black;" height="71" class="cas-substance-single-component-image"><svg><g><g transform="translate(116,37)" style="text-rendering:geometricPrecision; color-rendering:optimizeQuality; color-interpolation:linearRGB; stroke-linecap:butt; image-rendering:optimizeQuality;"><line y2="20.2583" y1="0" x2="-79.2415" x1="-67.545" style="fill:none;"/><line y2="-21.2193" y1="-0" x2="-77.7756" x1="-65.5243" style="fill:none;"/><line y2="-19.4693" y1="1.75" x2="-80.8066" x1="-68.5554" style="fill:none;"/><line y2="0" y1="0" x2="-37.545" x1="-67.545" style="fill:none;"/><line y2="25.98" y1="25.98" x2="-112.545" x1="-88.4825" style="fill:none;"/><line y2="-15" y1="-26.8216" x2="112.545" x1="92.0676" style="fill:none;"/><line y2="-15" y1="-26.8112" x2="60.582" x1="81.039" style="fill:none;"/><line y2="15" y1="-15" x2="8.622" x1="8.622" style="fill:none;"/><line y2="-22.7844" y1="-15" x2="-15.3382" x1="8.622" style="fill:none;"/><line y2="-30" y1="-15" x2="34.602" x1="8.622" style="fill:none;"/><line y2="-25.9585" y1="-12.9793" x2="34.602" x1="12.122" style="fill:none;"/><line y2="24.27" y1="15" x2="-19.911" x1="8.622" style="fill:none;"/><line y2="30" y1="15" x2="34.602" x1="8.622" style="fill:none;"/><line y2="25.9585" y1="12.9793" x2="34.602" x1="12.122" style="fill:none;"/><line y2="0" y1="-19.2697" x2="-37.545" x1="-23.5441" style="fill:none;"/><line y2="-15" y1="-30" x2="60.582" x1="34.602" style="fill:none;"/><line y2="0" y1="24.27" x2="-37.545" x1="-19.911" style="fill:none;"/><line y2="-0.4225" y1="20.5779" x2="-33.5257" x1="-18.2673" style="fill:none;"/><line y2="15" y1="30" x2="60.582" x1="34.602" style="fill:none;"/><line y2="15" y1="-15" x2="60.582" x1="60.582" style="fill:none;"/><line y2="12.9793" y1="-12.9793" x2="57.082" x1="57.082" style="fill:none;"/><path style="fill:none; stroke-miterlimit:5;" d="M-67.795 0.433 L-67.545 0 L-67.045 0"/></g><g transform="translate(116,37)" style="stroke-linecap:butt; fill:rgb(230,0,0); text-rendering:geometricPrecision; color-rendering:optimizeQuality; image-rendering:optimizeQuality; font-family:'Open Sans'; stroke:rgb(230,0,0); color-interpolation:linearRGB; stroke-miterlimit:5;"><path style="stroke:none;" d="M-78.6075 25.9097 Q-78.6075 27.9722 -79.6466 29.1519 Q-80.6856 30.3316 -82.5294 30.3316 Q-84.42 30.3316 -85.4512 29.1675 Q-86.4825 28.0034 -86.4825 25.8941 Q-86.4825 23.8003 -85.4512 22.6519 Q-84.42 21.5034 -82.5294 21.5034 Q-80.67 21.5034 -79.6387 22.6753 Q-78.6075 23.8472 -78.6075 25.9097 ZM-85.4356 25.9097 Q-85.4356 27.6441 -84.6934 28.5503 Q-83.9512 29.4566 -82.5294 29.4566 Q-81.1075 29.4566 -80.3809 28.5581 Q-79.6544 27.6597 -79.6544 25.9097 Q-79.6544 24.1753 -80.3809 23.2847 Q-81.1075 22.3941 -82.5294 22.3941 Q-83.9512 22.3941 -84.6934 23.2925 Q-85.4356 24.1909 -85.4356 25.9097 Z"/><path style="stroke:none;" d="M-78.6075 -26.0503 Q-78.6075 -23.9878 -79.6466 -22.8081 Q-80.6856 -21.6284 -82.5294 -21.6284 Q-84.42 -21.6284 -85.4512 -22.7925 Q-86.4825 -23.9566 -86.4825 -26.0659 Q-86.4825 -28.1597 -85.4512 -29.3081 Q-84.42 -30.4566 -82.5294 -30.4566 Q-80.67 -30.4566 -79.6387 -29.2847 Q-78.6075 -28.1128 -78.6075 -26.0503 ZM-85.4356 -26.0503 Q-85.4356 -24.3159 -84.6934 -23.4097 Q-83.9512 -22.5034 -82.5294 -22.5034 Q-81.1075 -22.5034 -80.3809 -23.4019 Q-79.6544 -24.3003 -79.6544 -26.0503 Q-79.6544 -27.7847 -80.3809 -28.6753 Q-81.1075 -29.5659 -82.5294 -29.5659 Q-83.9512 -29.5659 -84.6934 -28.6675 Q-85.4356 -27.7691 -85.4356 -26.0503 Z"/><path style="stroke:none;" d="M90.4995 -30.0703 Q90.4995 -28.0078 89.4604 -26.8281 Q88.4214 -25.6484 86.5776 -25.6484 Q84.687 -25.6484 83.6558 -26.8125 Q82.6245 -27.9766 82.6245 -30.0859 Q82.6245 -32.1797 83.6558 -33.3281 Q84.687 -34.4766 86.5776 -34.4766 Q88.437 -34.4766 89.4683 -33.3047 Q90.4995 -32.1328 90.4995 -30.0703 ZM83.6714 -30.0703 Q83.6714 -28.3359 84.4136 -27.4297 Q85.1558 -26.5234 86.5776 -26.5234 Q87.9995 -26.5234 88.7261 -27.4219 Q89.4526 -28.3203 89.4526 -30.0703 Q89.4526 -31.8047 88.7261 -32.6953 Q87.9995 -33.5859 86.5776 -33.5859 Q85.1558 -33.5859 84.4136 -32.6875 Q83.6714 -31.7891 83.6714 -30.0703 Z"/><path style="fill:none; stroke:black;" d="M9.055 -15.25 L8.622 -15 L8.1465 -15.1545"/><path style="fill:none; stroke:black;" d="M9.055 15.25 L8.622 15 L8.622 14.5"/><path style="fill:rgb(148,108,0); stroke:none;" d="M-17.2157 -22.3325 Q-17.2157 -21.2075 -18.036 -20.5669 Q-18.8563 -19.9263 -20.2626 -19.9263 Q-21.7938 -19.9263 -22.6063 -20.3325 L-22.6063 -21.2856 Q-22.0751 -21.0669 -21.4579 -20.9341 Q-20.8407 -20.8013 -20.2313 -20.8013 Q-19.2313 -20.8013 -18.7313 -21.1841 Q-18.2313 -21.5669 -18.2313 -22.2388 Q-18.2313 -22.6763 -18.411 -22.9653 Q-18.5907 -23.2544 -19.0047 -23.4966 Q-19.4188 -23.7388 -20.2782 -24.0356 Q-21.4657 -24.4575 -21.9813 -25.0434 Q-22.4969 -25.6294 -22.4969 -26.5825 Q-22.4969 -27.5669 -21.7547 -28.1528 Q-21.0126 -28.7388 -19.7782 -28.7388 Q-18.5126 -28.7388 -17.4344 -28.27 L-17.7469 -27.4106 Q-18.8094 -27.8481 -19.8094 -27.8481 Q-20.6063 -27.8481 -21.0516 -27.5122 Q-21.4969 -27.1763 -21.4969 -26.5669 Q-21.4969 -26.1294 -21.3329 -25.8403 Q-21.1688 -25.5513 -20.7782 -25.3169 Q-20.3876 -25.0825 -19.5751 -24.7856 Q-18.2313 -24.3169 -17.7235 -23.7622 Q-17.2157 -23.2075 -17.2157 -22.3325 Z"/><path style="fill:none; stroke:black;" d="M34.169 -29.75 L34.602 -30 L35.035 -29.75"/><path style="fill:none; stroke:black;" d="M-19.4355 24.1155 L-19.911 24.27 L-20.2049 23.8655"/><path style="fill:none; stroke:black;" d="M34.169 29.75 L34.602 30 L35.035 29.75"/><path style="fill:none; stroke:black;" d="M-37.2511 0.4045 L-37.545 0 L-38.045 -0"/><path style="fill:none; stroke:black;" d="M60.582 -14.5 L60.582 -15 L61.015 -15.25"/><path style="fill:none; stroke:black;" d="M60.149 15.25 L60.582 15 L60.582 14.5"/></g></g></svg></svg></svg></svg>