<svg xmlns:ns0="http://www.w3.org/2000/svg" xmlns="http://www.w3.org/2000/svg"><g transform="translate(0, 0)"><ns0:svg width="168" viewBox="0 0 168 108" style="fill-opacity:1; color-rendering:auto; color-interpolation:auto; text-rendering:auto; stroke:black; stroke-linecap:square; stroke-miterlimit:10; shape-rendering:auto; stroke-opacity:1; fill:black; stroke-dasharray:none; font-weight:normal; stroke-width:1; font-family:'Open Sans'; font-style:normal; stroke-linejoin:miter; font-size:12; stroke-dashoffset:0; image-rendering:auto;" height="108" class="cas-substance-image"><ns0:svg class="cas-substance-single-component"><ns0:rect y="0" x="0" width="168" stroke="none" ry="7" rx="7" height="108" fill="white" class="cas-substance-group" /><ns0:svg y="0" x="0" width="168" viewBox="0 0 168 93" style="fill:black;" height="93" class="cas-substance-single-component-image"><ns0:svg><ns0:g><ns0:g transform="translate(82,46)" style="text-rendering:geometricPrecision; color-rendering:optimizeQuality; color-interpolation:linearRGB; stroke-linecap:butt; image-rendering:optimizeQuality;"><ns0:line y2="-33.0817" y1="-12.99" x2="64.1003" x1="52.5" style="fill:none;" /><ns0:line y2="-12.99" y1="-12.99" x2="22.5" x1="52.5" style="fill:none;" /><ns0:line y2="12.99" y1="33.2483" x2="-22.5" x1="-34.1965" style="fill:none;" /><ns0:line y2="-12.99" y1="-12.99" x2="-37.5" x1="-61.5625" style="fill:none;" /><ns0:line y2="12.99" y1="-12.99" x2="7.5" x1="22.5" style="fill:none;" /><ns0:line y2="9.49" y1="-12.9901" x2="5.4793" x1="18.4585" style="fill:none;" /><ns0:line y2="-38.97" y1="-12.99" x2="7.5" x1="22.5" style="fill:none;" /><ns0:line y2="12.99" y1="12.99" x2="-22.5" x1="7.5" style="fill:none;" /><ns0:line y2="-38.97" y1="-38.97" x2="-22.5" x1="7.5" style="fill:none;" /><ns0:line y2="-35.47" y1="-35.47" x2="-20.4793" x1="5.4793" style="fill:none;" /><ns0:line y2="-12.99" y1="12.99" x2="-37.5" x1="-22.5" style="fill:none;" /><ns0:line y2="-12.9901" y1="9.49" x2="-33.4585" x1="-20.4793" style="fill:none;" /><ns0:line y2="-12.99" y1="-38.97" x2="-37.5" x1="-22.5" style="fill:none;" /><ns0:path style="fill:none; stroke-miterlimit:5;" d="M52.75 -13.423 L52.5 -12.99 L52 -12.99" /></ns0:g><ns0:g transform="translate(82,46)" style="stroke-linecap:butt; fill:rgb(0,5,255); text-rendering:geometricPrecision; color-rendering:optimizeQuality; image-rendering:optimizeQuality; font-family:'Open Sans'; stroke:rgb(0,5,255); color-interpolation:linearRGB; stroke-miterlimit:5;"><ns0:path style="stroke:none;" d="M70.8516 -34.8138 L69.7109 -34.8138 L65.0234 -42.0013 L64.9766 -42.0013 Q65.0703 -40.7356 65.0703 -39.6888 L65.0703 -34.8138 L64.1484 -34.8138 L64.1484 -43.3763 L65.2734 -43.3763 L69.9453 -36.22 L69.9922 -36.22 Q69.9922 -36.3763 69.9453 -37.2356 Q69.8984 -38.095 69.9141 -38.47 L69.9141 -43.3763 L70.8516 -43.3763 L70.8516 -34.8138 Z" /><ns0:path style="stroke:none;" d="M78.3672 -34.8138 L77.3672 -34.8138 L77.3672 -38.845 L72.8516 -38.845 L72.8516 -34.8138 L71.8516 -34.8138 L71.8516 -43.3763 L72.8516 -43.3763 L72.8516 -39.7356 L77.3672 -39.7356 L77.3672 -43.3763 L78.3672 -43.3763 L78.3672 -34.8138 Z" /><ns0:path style="stroke:none;" d="M83.1172 -33.0044 L79.3672 -33.0044 L79.3672 -33.5669 L80.8672 -35.0825 Q81.5547 -35.77 81.7734 -36.0669 Q81.9922 -36.3638 82.1016 -36.645 Q82.2109 -36.9263 82.2109 -37.2544 Q82.2109 -37.7075 81.9375 -37.9731 Q81.6641 -38.2388 81.1641 -38.2388 Q80.8203 -38.2388 80.5 -38.1216 Q80.1797 -38.0044 79.7891 -37.7075 L79.4453 -38.145 Q80.2266 -38.8013 81.1641 -38.8013 Q81.9609 -38.8013 82.4219 -38.3872 Q82.8828 -37.9731 82.8828 -37.2856 Q82.8828 -36.7388 82.5781 -36.2075 Q82.2734 -35.6763 81.4297 -34.8638 L80.1797 -33.645 L80.1797 -33.6138 L83.1172 -33.6138 L83.1172 -33.0044 Z" /><ns0:path style="fill:rgb(230,0,0); stroke:none;" d="M-33.5625 38.8997 Q-33.5625 40.9622 -34.6016 42.1419 Q-35.6406 43.3216 -37.4844 43.3216 Q-39.375 43.3216 -40.4062 42.1575 Q-41.4375 40.9934 -41.4375 38.8841 Q-41.4375 36.7903 -40.4062 35.6419 Q-39.375 34.4934 -37.4844 34.4934 Q-35.625 34.4934 -34.5938 35.6653 Q-33.5625 36.8372 -33.5625 38.8997 ZM-40.3906 38.8997 Q-40.3906 40.6341 -39.6484 41.5403 Q-38.9062 42.4466 -37.4844 42.4466 Q-36.0625 42.4466 -35.3359 41.5481 Q-34.6094 40.6497 -34.6094 38.8997 Q-34.6094 37.1653 -35.3359 36.2747 Q-36.0625 35.3841 -37.4844 35.3841 Q-38.9062 35.3841 -39.6484 36.2825 Q-40.3906 37.1809 -40.3906 38.8997 Z" /><ns0:path style="fill:rgb(230,0,0); stroke:none;" d="M-42.4375 43.1966 L-43.4375 43.1966 L-43.4375 39.1653 L-47.9531 39.1653 L-47.9531 43.1966 L-48.9531 43.1966 L-48.9531 34.6341 L-47.9531 34.6341 L-47.9531 38.2747 L-43.4375 38.2747 L-43.4375 34.6341 L-42.4375 34.6341 L-42.4375 43.1966 Z" /><ns0:path style="fill:rgb(230,0,0); stroke:none;" d="M-63.5625 -13.0603 Q-63.5625 -10.9978 -64.6016 -9.8181 Q-65.6406 -8.6384 -67.4844 -8.6384 Q-69.375 -8.6384 -70.4062 -9.8025 Q-71.4375 -10.9666 -71.4375 -13.0759 Q-71.4375 -15.1697 -70.4062 -16.3181 Q-69.375 -17.4666 -67.4844 -17.4666 Q-65.625 -17.4666 -64.5938 -16.2947 Q-63.5625 -15.1228 -63.5625 -13.0603 ZM-70.3906 -13.0603 Q-70.3906 -11.3259 -69.6484 -10.4197 Q-68.9062 -9.5134 -67.4844 -9.5134 Q-66.0625 -9.5134 -65.3359 -10.4119 Q-64.6094 -11.3103 -64.6094 -13.0603 Q-64.6094 -14.7947 -65.3359 -15.6853 Q-66.0625 -16.5759 -67.4844 -16.5759 Q-68.9062 -16.5759 -69.6484 -15.6775 Q-70.3906 -14.7791 -70.3906 -13.0603 Z" /><ns0:path style="fill:rgb(230,0,0); stroke:none;" d="M-72.4375 -8.7634 L-73.4375 -8.7634 L-73.4375 -12.7947 L-77.9531 -12.7947 L-77.9531 -8.7634 L-78.9531 -8.7634 L-78.9531 -17.3259 L-77.9531 -17.3259 L-77.9531 -13.6853 L-73.4375 -13.6853 L-73.4375 -17.3259 L-72.4375 -17.3259 L-72.4375 -8.7634 Z" /><ns0:path style="fill:none; stroke:black;" d="M22.25 -12.557 L22.5 -12.99 L23 -12.99" /><ns0:path style="fill:none; stroke:black;" d="M7.75 12.557 L7.5 12.99 L7 12.99" /><ns0:path style="fill:none; stroke:black;" d="M7.75 -38.537 L7.5 -38.97 L7 -38.97" /><ns0:path style="fill:none; stroke:black;" d="M-22.75 12.557 L-22.5 12.99 L-22.75 13.423" /><ns0:path style="fill:none; stroke:black;" d="M-22 -38.97 L-22.5 -38.97 L-22.75 -38.537" /><ns0:path style="fill:none; stroke:black;" d="M-37.25 -12.557 L-37.5 -12.99 L-38 -12.99" /></ns0:g></ns0:g></ns0:svg></ns0:svg><ns0:svg y="93" x="76" class="cas-substance-saf"><ns0:svg y="5" x="0" width="4" style="fill:black;" height="4" class="cas-substance-saf-dot"><ns0:circle stroke="none" r="2" fill="black" cy="2" cx="2" /></ns0:svg><ns0:svg y="0" x="8" width="25" style="fill:black;" height="15" class="cas-substance-saf-image"><ns0:svg><ns0:g><ns0:g transform="translate(6,7)" style="fill:rgb(0,138,0); text-rendering:geometricPrecision; color-rendering:optimizeQuality; image-rendering:optimizeQuality; font-family:'Open Sans'; stroke:rgb(0,138,0); color-interpolation:linearRGB;"><ns0:path style="stroke:none;" d="M3.2578 4.1562 L2.2578 4.1562 L2.2578 0.125 L-2.2578 0.125 L-2.2578 4.1562 L-3.2578 4.1562 L-3.2578 -4.4062 L-2.2578 -4.4062 L-2.2578 -0.7656 L2.2578 -0.7656 L2.2578 -4.4062 L3.2578 -4.4062 L3.2578 4.1562 Z" /><ns0:path style="stroke:none;" d="M4.2578 -4.4062 L6.6797 -4.4062 Q8.3828 -4.4062 9.1484 -3.8984 Q9.9141 -3.3906 9.9141 -2.2969 Q9.9141 -1.5312 9.4922 -1.0312 Q9.0703 -0.5312 8.2422 -0.3906 L8.2422 -0.3281 Q10.1953 0 10.1953 1.7188 Q10.1953 2.8594 9.4219 3.5078 Q8.6484 4.1562 7.2578 4.1562 L4.2578 4.1562 L4.2578 -4.4062 ZM5.2578 -0.75 L6.8984 -0.75 Q7.9609 -0.75 8.4219 -1.0781 Q8.8828 -1.4062 8.8828 -2.1875 Q8.8828 -2.9062 8.3672 -3.2266 Q7.8516 -3.5469 6.7266 -3.5469 L5.2578 -3.5469 L5.2578 -0.75 ZM5.2578 0.0938 L5.2578 3.3125 L7.0547 3.3125 Q8.0859 3.3125 8.6094 2.9062 Q9.1328 2.5 9.1328 1.6406 Q9.1328 0.8438 8.5938 0.4688 Q8.0547 0.0938 6.9609 0.0938 L5.2578 0.0938 ZM14.8301 -2.3906 Q15.252 -2.3906 15.5957 -2.3125 L15.4551 -1.4062 Q15.0645 -1.5 14.752 -1.5 Q13.9707 -1.5 13.416 -0.8672 Q12.8613 -0.2344 12.8613 0.7031 L12.8613 4.1562 L11.8926 4.1562 L11.8926 -2.2656 L12.6895 -2.2656 L12.8145 -1.0781 L12.8613 -1.0781 Q13.2051 -1.7031 13.7129 -2.0469 Q14.2207 -2.3906 14.8301 -2.3906 Z" /></ns0:g></ns0:g></ns0:svg></ns0:svg></ns0:svg></ns0:svg></ns0:svg></g></svg>