<svg width="429" viewBox="0 0 429 114" style="fill-opacity:1; color-rendering:auto; color-interpolation:auto; text-rendering:auto; stroke:black; stroke-linecap:square; stroke-miterlimit:10; shape-rendering:auto; stroke-opacity:1; fill:black; stroke-dasharray:none; font-weight:normal; stroke-width:1; font-family:'Open Sans'; font-style:normal; stroke-linejoin:miter; font-size:12; stroke-dashoffset:0; image-rendering:auto;" height="114" class="cas-substance-image" xmlns:xlink="http://www.w3.org/1999/xlink" xmlns="http://www.w3.org/2000/svg"><svg class="cas-substance-single-component"><rect y="0" x="0" width="429" stroke="none" ry="7" rx="7" height="114" fill="white" class="cas-substance-group"/><svg y="0" x="0" width="429" viewBox="0 0 429 114" style="fill:black;" height="114" class="cas-substance-single-component-image"><svg><g><g transform="translate(211,55)" style="text-rendering:geometricPrecision; color-rendering:optimizeQuality; color-interpolation:linearRGB; stroke-linecap:butt; image-rendering:optimizeQuality;"><path style="fill:none;" d="M-201.4154 -51.9766 L-207.6451 -51.9766 L-207.6451 51.8516 L-201.4154 51.8516"/><path style="fill:none;" d="M201.4154 -51.9766 L207.6451 -51.9766 L207.6451 51.8516 L201.4154 51.8516"/><path style="stroke:none;" d="M213.5357 55.5 L213.5357 51.3438 Q213.5357 50.5625 213.1841 50.1719 Q212.8326 49.7812 212.0669 49.7812 Q211.0513 49.7812 210.5826 50.3281 Q210.1138 50.875 210.1138 52.125 L210.1138 55.5 L209.1451 55.5 L209.1451 49.0781 L209.9419 49.0781 L210.0982 49.9531 L210.1451 49.9531 Q210.4419 49.4844 210.981 49.2188 Q211.5201 48.9531 212.1763 48.9531 Q213.3482 48.9531 213.9341 49.5156 Q214.5201 50.0781 214.5201 51.3125 L214.5201 55.5 L213.5357 55.5 Z"/><line y2="7.5" y1="-7.5" x2="-38.97" x1="-12.99" style="fill:none;"/><line y2="4.5649" y1="-7.5" x2="7.9064" x1="-12.99" style="fill:none;"/><line y2="-31.1484" y1="-6.4896" x2="-11.24" x1="-11.24" style="fill:none;"/><line y2="-31.1484" y1="-6.4896" x2="-14.74" x1="-14.74" style="fill:none;"/><line y2="-7.5" y1="7.5" x2="-64.953" x1="-38.97" style="fill:none;"/><line y2="-7.5" y1="4.5649" x2="38.97" x1="18.0736" style="fill:none;"/><line y2="7.5" y1="-7.5" x2="-90.933" x1="-64.953" style="fill:none;"/><line y2="7.5" y1="-7.5" x2="64.953" x1="38.97" style="fill:none;"/><line y2="-7.5" y1="7.5" x2="-116.913" x1="-90.933" style="fill:none;"/><line y2="-7.5" y1="7.5" x2="90.933" x1="64.953" style="fill:none;"/><line y2="7.5" y1="-7.5" x2="-142.893" x1="-116.913" style="fill:none;"/><line y2="7.5" y1="-7.5" x2="116.913" x1="90.933" style="fill:none;"/><line y2="-4.5652" y1="7.5" x2="-163.7924" x1="-142.893" style="fill:none;"/><line y2="31.0234" y1="6.4897" x2="-144.643" x1="-144.643" style="fill:none;"/><line y2="31.0234" y1="6.4896" x2="-141.143" x1="-141.143" style="fill:none;"/><line y2="-7.5" y1="7.5" x2="142.893" x1="116.913" style="fill:none;"/><line y2="4.9838" y1="-4.5649" x2="-190.4979" x1="-173.9596" style="fill:none;"/><line y2="7.5" y1="-7.5" x2="168.876" x1="142.893" style="fill:none;"/><line y2="-5.876" y1="7.5" x2="192.0432" x1="168.876" style="fill:none;"/><path style="fill:none; stroke-miterlimit:5;" d="M-13.423 -7.25 L-12.99 -7.5 L-12.557 -7.25"/><path style="fill:none; stroke-miterlimit:5;" d="M-38.537 7.25 L-38.97 7.5 L-39.403 7.25"/></g><g transform="translate(211,55)" style="stroke-linecap:butt; fill:rgb(0,5,255); text-rendering:geometricPrecision; color-rendering:optimizeQuality; image-rendering:optimizeQuality; font-family:'Open Sans'; stroke:rgb(0,5,255); color-interpolation:linearRGB; stroke-miterlimit:5;"><path style="stroke:none;" d="M16.3416 11.6562 L15.2009 11.6562 L10.5134 4.4688 L10.4666 4.4688 Q10.5603 5.7344 10.5603 6.7812 L10.5603 11.6562 L9.6384 11.6562 L9.6384 3.0938 L10.7634 3.0938 L15.4353 10.25 L15.4822 10.25 Q15.4822 10.0938 15.4353 9.2344 Q15.3884 8.375 15.4041 8 L15.4041 3.0938 L16.3416 3.0938 L16.3416 11.6562 Z"/><path style="stroke:none;" d="M16.2478 21.2188 L15.2478 21.2188 L15.2478 17.1875 L10.7322 17.1875 L10.7322 21.2188 L9.7322 21.2188 L9.7322 12.6562 L10.7322 12.6562 L10.7322 16.2969 L15.2478 16.2969 L15.2478 12.6562 L16.2478 12.6562 L16.2478 21.2188 Z"/><path style="fill:rgb(230,0,0); stroke:none;" d="M-9.0525 -37.5703 Q-9.0525 -35.5078 -10.0916 -34.3281 Q-11.1306 -33.1484 -12.9744 -33.1484 Q-14.865 -33.1484 -15.8962 -34.3125 Q-16.9275 -35.4766 -16.9275 -37.5859 Q-16.9275 -39.6797 -15.8962 -40.8281 Q-14.865 -41.9766 -12.9744 -41.9766 Q-11.115 -41.9766 -10.0837 -40.8047 Q-9.0525 -39.6328 -9.0525 -37.5703 ZM-15.8806 -37.5703 Q-15.8806 -35.8359 -15.1384 -34.9297 Q-14.3962 -34.0234 -12.9744 -34.0234 Q-11.5525 -34.0234 -10.8259 -34.9219 Q-10.0994 -35.8203 -10.0994 -37.5703 Q-10.0994 -39.3047 -10.8259 -40.1953 Q-11.5525 -41.0859 -12.9744 -41.0859 Q-14.3962 -41.0859 -15.1384 -40.1875 Q-15.8806 -39.2891 -15.8806 -37.5703 Z"/><path style="fill:none; stroke:black;" d="M-64.52 -7.25 L-64.953 -7.5 L-65.386 -7.25"/><path style="fill:none; stroke:black;" d="M38.537 -7.25 L38.97 -7.5 L39.403 -7.25"/><path style="fill:none; stroke:black;" d="M-90.5 7.25 L-90.933 7.5 L-91.366 7.25"/><path style="fill:none; stroke:black;" d="M64.52 7.25 L64.953 7.5 L65.386 7.25"/><path style="fill:none; stroke:black;" d="M-116.48 -7.25 L-116.913 -7.5 L-117.346 -7.25"/><path style="fill:none; stroke:black;" d="M90.5 -7.25 L90.933 -7.5 L91.366 -7.25"/><path style="fill:none; stroke:black;" d="M-142.46 7.25 L-142.893 7.5 L-143.326 7.25"/><path style="fill:none; stroke:black;" d="M116.48 7.25 L116.913 7.5 L117.346 7.25"/><path style="stroke:none;" d="M-165.5244 -3.3438 L-166.6651 -3.3438 L-171.3526 -10.5312 L-171.3994 -10.5312 Q-171.3057 -9.2656 -171.3057 -8.2188 L-171.3057 -3.3438 L-172.2276 -3.3438 L-172.2276 -11.9062 L-171.1026 -11.9062 L-166.4307 -4.75 L-166.3838 -4.75 Q-166.3838 -4.9062 -166.4307 -5.7656 Q-166.4776 -6.625 -166.4619 -7 L-166.4619 -11.9062 L-165.5244 -11.9062 L-165.5244 -3.3438 Z"/><path style="stroke:none;" d="M-165.6182 -12.9062 L-166.6182 -12.9062 L-166.6182 -16.9375 L-171.1338 -16.9375 L-171.1338 -12.9062 L-172.1338 -12.9062 L-172.1338 -21.4688 L-171.1338 -21.4688 L-171.1338 -17.8281 L-166.6182 -17.8281 L-166.6182 -21.4688 L-165.6182 -21.4688 L-165.6182 -12.9062 Z"/><path style="fill:rgb(230,0,0); stroke:none;" d="M-138.9555 37.4297 Q-138.9555 39.4922 -139.9946 40.6719 Q-141.0336 41.8516 -142.8774 41.8516 Q-144.768 41.8516 -145.7993 40.6875 Q-146.8305 39.5234 -146.8305 37.4141 Q-146.8305 35.3203 -145.7993 34.1719 Q-144.768 33.0234 -142.8774 33.0234 Q-141.018 33.0234 -139.9868 34.1953 Q-138.9555 35.3672 -138.9555 37.4297 ZM-145.7836 37.4297 Q-145.7836 39.1641 -145.0414 40.0703 Q-144.2993 40.9766 -142.8774 40.9766 Q-141.4555 40.9766 -140.7289 40.0781 Q-140.0024 39.1797 -140.0024 37.4297 Q-140.0024 35.6953 -140.7289 34.8047 Q-141.4555 33.9141 -142.8774 33.9141 Q-144.2993 33.9141 -145.0414 34.8125 Q-145.7836 35.7109 -145.7836 37.4297 Z"/><path style="fill:none; stroke:black;" d="M142.46 -7.25 L142.893 -7.5 L143.326 -7.25"/><path style="fill:black; stroke:none;" d="M-194.3013 2.8125 L-194.5513 5.1406 L-192.2076 4.4844 L-192.0669 5.5469 L-194.3013 5.7344 L-192.8482 7.6406 L-193.8482 8.1875 L-194.8794 6.0781 L-195.8169 8.1875 L-196.8482 7.6406 L-195.4263 5.7344 L-197.6451 5.5469 L-197.4732 4.4844 L-195.1763 5.1406 L-195.4263 2.8125 L-194.3013 2.8125 Z"/><path style="fill:none; stroke:black;" d="M168.443 7.25 L168.876 7.5 L169.309 7.25"/><path style="fill:black; stroke:none;" d="M195.4107 -12.1875 L195.1607 -9.8594 L197.5044 -10.5156 L197.6451 -9.4531 L195.4107 -9.2656 L196.8638 -7.3594 L195.8638 -6.8125 L194.8326 -8.9219 L193.8951 -6.8125 L192.8638 -7.3594 L194.2857 -9.2656 L192.0669 -9.4531 L192.2388 -10.5156 L194.5357 -9.8594 L194.2857 -12.1875 L195.4107 -12.1875 Z"/></g></g></svg></svg></svg></svg>