<svg width="427" viewBox="0 0 427 164" style="fill-opacity:1; color-rendering:auto; color-interpolation:auto; text-rendering:auto; stroke:black; stroke-linecap:square; stroke-miterlimit:10; shape-rendering:auto; stroke-opacity:1; fill:black; stroke-dasharray:none; font-weight:normal; stroke-width:1; font-family:'Open Sans'; font-style:normal; stroke-linejoin:miter; font-size:12; stroke-dashoffset:0; image-rendering:auto;" height="164" class="cas-substance-image" xmlns:xlink="http://www.w3.org/1999/xlink" xmlns="http://www.w3.org/2000/svg"><svg class="cas-substance-single-component"><rect y="0" x="0" width="427" stroke="none" ry="7" rx="7" height="164" fill="white" class="cas-substance-group"/><svg y="0" x="0" width="427" viewBox="0 0 427 164" style="fill:black;" height="164" class="cas-substance-single-component-image"><svg><g><g transform="translate(215,87)" style="text-rendering:geometricPrecision; color-rendering:optimizeQuality; color-interpolation:linearRGB; stroke-linecap:butt; image-rendering:optimizeQuality;"><line y2="-10.8954" y1="13.6384" x2="158.143" x1="158.143" style="fill:none;"/><line y2="-10.8953" y1="13.6384" x2="154.643" x1="154.643" style="fill:none;"/><line y2="-21.9502" y1="-9.885" x2="31.5707" x1="52.47" style="fill:none;"/><line y2="-24.885" y1="-9.885" x2="78.45" x1="52.47" style="fill:none;"/><line y2="-54.885" y1="-31.2913" x2="26.487" x1="26.487" style="fill:none;"/><line y2="-9.885" y1="-21.9499" x2="0.507" x1="21.4034" style="fill:none;"/><line y2="-54.885" y1="-69.885" x2="182.373" x1="208.353" style="fill:none;"/><line y2="15.3177" y1="-2.928" x2="-90.0659" x1="-76.809" style="fill:none;"/><line y2="-24.9249" y1="-2.7168" x2="-84.6867" x1="-74.7994" style="fill:none;"/><line y2="-23.5014" y1="-1.2932" x2="-87.8841" x1="-77.9968" style="fill:none;"/><line y2="0.207" y1="-2.928" x2="-46.974" x1="-76.809" style="fill:none;"/><line y2="18.207" y1="20.7808" x2="-124.278" x1="-99.7836" style="fill:none;"/><path style="stroke:none;" d="M-134.4938 -8.9892 L-138.6173 -7.1538 L-138.1386 -6.2722 L-132.9471 -8.583 L-133.0338 -8.8356 L-133.0338 -8.8357 L-134.4938 -8.9892 ZM-132.2952 -6.6839 L-137.1812 -4.5092 L-136.7025 -3.6276 L-131.9693 -5.7344 L-132.2952 -6.6839 ZM-131.3174 -3.8353 L-135.745 -1.8645 L-135.2663 -0.983 L-130.9915 -2.8857 L-131.3174 -3.8353 ZM-130.3396 -0.9866 L-134.3088 0.7801 L-133.8301 1.6617 L-130.0137 -0.037 L-130.3396 -0.9866 ZM-129.3618 1.8621 L-132.8727 3.4248 L-132.394 4.3063 L-129.0359 2.8116 L-129.3618 1.8621 ZM-128.384 4.7107 L-131.4365 6.0694 L-130.9578 6.951 L-128.0581 5.6603 L-128.384 4.7107 ZM-127.4062 7.5594 L-130.0003 8.7141 L-129.5216 9.5956 L-127.0803 8.5089 L-127.4062 7.5594 ZM-126.4284 10.408 L-128.5642 11.3587 L-128.0854 12.2402 L-126.1025 11.3576 L-126.4284 10.408 ZM-125.4506 13.2567 L-127.128 14.0033 L-126.6493 14.8849 L-125.1247 14.2063 L-125.4506 13.2567 ZM-124.4728 16.1054 L-125.6918 16.648 L-125.2131 17.5295 L-125.2131 17.5295 L-124.1469 17.0549 L-124.1469 17.0549 L-124.4728 16.1054 Z"/><line y2="42.477" y1="18.207" x2="-141.912" x1="-124.278" style="fill:none;"/><line y2="-12.336" y1="-9.198" x2="-166.317" x1="-136.479" style="fill:none;"/><line y2="39.9648" y1="42.477" x2="-165.8204" x1="-141.912" style="fill:none;"/><line y2="64.3813" y1="42.2658" x2="-134.0743" x1="-143.9217" style="fill:none;"/><line y2="62.9576" y1="40.8423" x2="-130.8769" x1="-140.7243" style="fill:none;"/><line y2="-39.741" y1="-12.336" x2="-178.518" x1="-166.317" style="fill:none;"/><line y2="-58.8394" y1="-39.741" x2="-164.6416" x1="-178.518" style="fill:none;"/><line y2="-43.9937" y1="-41.3758" x2="-202.2436" x1="-177.3302" style="fill:none;"/><line y2="-40.5128" y1="-37.895" x2="-202.6093" x1="-177.6962" style="fill:none;"/><line y2="-54.885" y1="-24.885" x2="130.41" x1="130.41" style="fill:none;"/><line y2="-9.885" y1="-24.885" x2="104.43" x1="130.41" style="fill:none;"/><line y2="-13.9265" y1="-26.9057" x2="104.4299" x1="126.91" style="fill:none;"/><line y2="-9.885" y1="-24.885" x2="156.393" x1="130.41" style="fill:none;"/><line y2="-69.885" y1="-54.885" x2="104.43" x1="130.41" style="fill:none;"/><line y2="-65.8436" y1="-52.8643" x2="104.4299" x1="126.91" style="fill:none;"/><line y2="-66.9502" y1="-54.885" x2="151.3094" x1="130.41" style="fill:none;"/><line y2="-24.885" y1="-9.885" x2="78.45" x1="104.43" style="fill:none;"/><line y2="-21.9499" y1="-9.885" x2="177.2894" x1="156.393" style="fill:none;"/><line y2="-54.885" y1="-69.885" x2="78.45" x1="104.43" style="fill:none;"/><line y2="-54.885" y1="-66.9499" x2="182.373" x1="161.4766" style="fill:none;"/><line y2="-54.885" y1="-24.885" x2="78.45" x1="78.45" style="fill:none;"/><line y2="-52.8643" y1="-26.9057" x2="81.95" x1="81.95" style="fill:none;"/><line y2="-54.885" y1="-31.2913" x2="182.373" x1="182.373" style="fill:none;"/><line y2="-52.8643" y1="-31.2913" x2="178.873" x1="178.873" style="fill:none;"/><line y2="-20.0726" y1="-9.885" x2="-22.3756" x1="0.507" style="fill:none;"/><line y2="19.953" y1="-9.885" x2="-2.628" x1="0.507" style="fill:none;"/><line y2="17.5776" y1="-8.2411" x2="-5.8977" x1="-3.185" style="fill:none;"/><line y2="0.207" y1="-17.6103" x2="-46.974" x1="-30.9286" style="fill:none;"/><line y2="26.19" y1="19.953" x2="-31.974" x1="-2.628" style="fill:none;"/><line y2="26.19" y1="0.207" x2="-31.974" x1="-46.974" style="fill:none;"/><line y2="22.6901" y1="0.2072" x2="-29.9531" x1="-42.9325" style="fill:none;"/></g><g transform="translate(215,87)" style="fill:rgb(230,0,0); text-rendering:geometricPrecision; color-rendering:optimizeQuality; image-rendering:optimizeQuality; font-family:'Open Sans'; stroke:rgb(230,0,0); color-interpolation:linearRGB;"><path style="stroke:none;" d="M160.3305 20.0447 Q160.3305 22.1072 159.2914 23.2869 Q158.2524 24.4666 156.4086 24.4666 Q154.518 24.4666 153.4868 23.3025 Q152.4555 22.1384 152.4555 20.0291 Q152.4555 17.9353 153.4868 16.7869 Q154.518 15.6384 156.4086 15.6384 Q158.268 15.6384 159.2993 16.8103 Q160.3305 17.9822 160.3305 20.0447 ZM153.5024 20.0447 Q153.5024 21.7791 154.2446 22.6853 Q154.9868 23.5916 156.4086 23.5916 Q157.8305 23.5916 158.5571 22.6931 Q159.2836 21.7947 159.2836 20.0447 Q159.2836 18.3103 158.5571 17.4197 Q157.8305 16.5291 156.4086 16.5291 Q154.9868 16.5291 154.2446 17.4275 Q153.5024 18.3259 153.5024 20.0447 Z"/></g><g transform="translate(215,87)" style="stroke-linecap:butt; text-rendering:geometricPrecision; color-rendering:optimizeQuality; image-rendering:optimizeQuality; font-family:'Open Sans'; color-interpolation:linearRGB; stroke-miterlimit:5;"><path style="fill:none;" d="M52.037 -10.135 L52.47 -9.885 L52.903 -10.135"/><path style="fill:rgb(0,5,255); stroke:none;" d="M29.8386 -20.7288 L28.6979 -20.7288 L24.0104 -27.9163 L23.9636 -27.9163 Q24.0573 -26.6506 24.0573 -25.6038 L24.0573 -20.7288 L23.1354 -20.7288 L23.1354 -29.2913 L24.2604 -29.2913 L28.9323 -22.135 L28.9792 -22.135 Q28.9792 -22.2913 28.9323 -23.1506 Q28.8854 -24.01 28.9011 -24.385 L28.9011 -29.2913 L29.8386 -29.2913 L29.8386 -20.7288 Z"/><path style="fill:none;" d="M-77.1029 -2.5235 L-76.809 -2.928 L-76.3117 -2.8757"/><path style="fill:rgb(0,5,255); stroke:none;" d="M-91.0914 25.4982 L-92.2321 25.4982 L-96.9196 18.3107 L-96.9664 18.3107 Q-96.8727 19.5764 -96.8727 20.6232 L-96.8727 25.4982 L-97.7946 25.4982 L-97.7946 16.9357 L-96.6696 16.9357 L-91.9977 24.092 L-91.9508 24.092 Q-91.9508 23.9357 -91.9977 23.0764 Q-92.0446 22.217 -92.0289 21.842 L-92.0289 16.9357 L-91.0914 16.9357 L-91.0914 25.4982 Z"/><path style="fill:rgb(0,5,255); stroke:none;" d="M-91.1852 35.0607 L-92.1852 35.0607 L-92.1852 31.0295 L-96.7008 31.0295 L-96.7008 35.0607 L-97.7008 35.0607 L-97.7008 26.4982 L-96.7008 26.4982 L-96.7008 30.1389 L-92.1852 30.1389 L-92.1852 26.4982 L-91.1852 26.4982 L-91.1852 35.0607 Z"/><path style="fill:rgb(230,0,0); stroke:none;" d="M-85.0725 -30.4033 Q-85.0725 -28.3408 -86.1116 -27.1611 Q-87.1506 -25.9814 -88.9944 -25.9814 Q-90.885 -25.9814 -91.9163 -27.1455 Q-92.9475 -28.3096 -92.9475 -30.4189 Q-92.9475 -32.5127 -91.9163 -33.6611 Q-90.885 -34.8096 -88.9944 -34.8096 Q-87.135 -34.8096 -86.1038 -33.6377 Q-85.0725 -32.4658 -85.0725 -30.4033 ZM-91.9006 -30.4033 Q-91.9006 -28.6689 -91.1584 -27.7627 Q-90.4163 -26.8564 -88.9944 -26.8564 Q-87.5725 -26.8564 -86.8459 -27.7549 Q-86.1194 -28.6533 -86.1194 -30.4033 Q-86.1194 -32.1377 -86.8459 -33.0283 Q-87.5725 -33.9189 -88.9944 -33.9189 Q-90.4163 -33.9189 -91.1584 -33.0205 Q-91.9006 -32.1221 -91.9006 -30.4033 Z"/><path style="fill:none;" d="M-123.7807 18.2593 L-124.278 18.207 L-124.5719 18.6115"/></g><g transform="translate(215,87)" style="stroke-linecap:butt; font-size:8.4px; fill:gray; text-rendering:geometricPrecision; image-rendering:optimizeQuality; color-rendering:optimizeQuality; font-family:'Open Sans'; font-style:italic; stroke:gray; color-interpolation:linearRGB; stroke-miterlimit:5;"><path style="stroke:none;" d="M-138.3317 18.3647 Q-138.3317 17.0365 -137.863 15.9115 Q-137.3942 14.7865 -136.363 13.7084 L-135.7536 13.7084 Q-136.7224 14.7709 -137.2067 15.9428 Q-137.6911 17.1147 -137.6911 18.349 Q-137.6911 19.6772 -137.2536 20.6928 L-137.7692 20.6928 Q-138.3317 19.6615 -138.3317 18.3647 ZM-132.7092 17.7709 Q-132.7092 18.599 -133.256 19.0522 Q-133.8029 19.5053 -134.8029 19.5053 Q-135.2092 19.5053 -135.5217 19.4506 Q-135.8342 19.3959 -136.1154 19.2553 L-136.1154 18.599 Q-135.4904 18.9272 -134.7873 18.9272 Q-134.1623 18.9272 -133.7873 18.6303 Q-133.4123 18.3334 -133.4123 17.8178 Q-133.4123 17.5053 -133.6154 17.2787 Q-133.8185 17.0522 -134.381 16.724 Q-134.9748 16.3959 -135.2014 16.0678 Q-135.4279 15.7397 -135.4279 15.2865 Q-135.4279 14.5522 -134.9123 14.0912 Q-134.3967 13.6303 -133.5529 13.6303 Q-133.1779 13.6303 -132.842 13.7084 Q-132.506 13.7865 -132.131 13.9584 L-132.3967 14.5522 Q-132.6467 14.3959 -132.967 14.31 Q-133.2873 14.224 -133.5529 14.224 Q-134.0842 14.224 -134.4045 14.4975 Q-134.7248 14.7709 -134.7248 15.2397 Q-134.7248 15.4428 -134.6545 15.5912 Q-134.5842 15.7397 -134.4435 15.8725 Q-134.3029 16.0053 -133.881 16.2553 Q-133.3185 16.599 -133.1154 16.7943 Q-132.9123 16.9897 -132.8107 17.224 Q-132.7092 17.4584 -132.7092 17.7709 ZM-130.1147 16.0522 Q-130.1147 17.3803 -130.5912 18.5131 Q-131.0678 19.6459 -132.0834 20.6928 L-132.6928 20.6928 Q-130.7553 18.5365 -130.7553 16.0522 Q-130.7553 14.724 -131.1928 13.7084 L-130.6772 13.7084 Q-130.1147 14.7709 -130.1147 16.0522 Z"/><path style="fill:none; stroke:black;" d="M-141.6181 42.0725 L-141.912 42.477 L-142.4093 42.4248"/><path style="fill:none; stroke:black;" d="M-165.8197 -12.2837 L-166.317 -12.336 L-166.5204 -12.7928"/></g><g transform="translate(215,87)" style="stroke-linecap:butt; fill:rgb(230,0,0); text-rendering:geometricPrecision; color-rendering:optimizeQuality; image-rendering:optimizeQuality; font-family:'Open Sans'; stroke:rgb(230,0,0); color-interpolation:linearRGB; stroke-miterlimit:5;"><path style="stroke:none;" d="M-167.8095 39.2717 Q-167.8095 41.3342 -168.8486 42.5139 Q-169.8876 43.6936 -171.7314 43.6936 Q-173.622 43.6936 -174.6532 42.5295 Q-175.6845 41.3654 -175.6845 39.2561 Q-175.6845 37.1623 -174.6532 36.0139 Q-173.622 34.8654 -171.7314 34.8654 Q-169.872 34.8654 -168.8407 36.0373 Q-167.8095 37.2092 -167.8095 39.2717 ZM-174.6376 39.2717 Q-174.6376 41.0061 -173.8954 41.9123 Q-173.1532 42.8186 -171.7314 42.8186 Q-170.3095 42.8186 -169.5829 41.9201 Q-168.8564 41.0217 -168.8564 39.2717 Q-168.8564 37.5373 -169.5829 36.6467 Q-170.3095 35.7561 -171.7314 35.7561 Q-173.1532 35.7561 -173.8954 36.6545 Q-174.6376 37.5529 -174.6376 39.2717 Z"/><path style="stroke:none;" d="M-176.6845 43.5686 L-177.6845 43.5686 L-177.6845 39.5373 L-182.2001 39.5373 L-182.2001 43.5686 L-183.2001 43.5686 L-183.2001 35.0061 L-182.2001 35.0061 L-182.2001 38.6467 L-177.6845 38.6467 L-177.6845 35.0061 L-176.6845 35.0061 L-176.6845 43.5686 Z"/><path style="stroke:none;" d="M-125.7705 69.8147 Q-125.7705 71.8772 -126.8096 73.0569 Q-127.8486 74.2366 -129.6924 74.2366 Q-131.583 74.2366 -132.6142 73.0725 Q-133.6455 71.9084 -133.6455 69.7991 Q-133.6455 67.7053 -132.6142 66.5569 Q-131.583 65.4084 -129.6924 65.4084 Q-127.833 65.4084 -126.8017 66.5803 Q-125.7705 67.7522 -125.7705 69.8147 ZM-132.5986 69.8147 Q-132.5986 71.5491 -131.8564 72.4553 Q-131.1142 73.3616 -129.6924 73.3616 Q-128.2705 73.3616 -127.5439 72.4631 Q-126.8174 71.5647 -126.8174 69.8147 Q-126.8174 68.0803 -127.5439 67.1897 Q-128.2705 66.2991 -129.6924 66.2991 Q-131.1142 66.2991 -131.8564 67.1975 Q-132.5986 68.0959 -132.5986 69.8147 Z"/><path style="fill:none; stroke:black;" d="M-178.3146 -39.2842 L-178.518 -39.741 L-178.2241 -40.1455"/><path style="stroke:none;" d="M-156.9465 -64.0813 Q-156.9465 -62.0188 -157.9856 -60.8391 Q-159.0246 -59.6594 -160.8684 -59.6594 Q-162.759 -59.6594 -163.7903 -60.8235 Q-164.8215 -61.9876 -164.8215 -64.0969 Q-164.8215 -66.1907 -163.7903 -67.3391 Q-162.759 -68.4876 -160.8684 -68.4876 Q-159.009 -68.4876 -157.9778 -67.3157 Q-156.9465 -66.1438 -156.9465 -64.0813 ZM-163.7746 -64.0813 Q-163.7746 -62.3469 -163.0324 -61.4407 Q-162.2903 -60.5344 -160.8684 -60.5344 Q-159.4465 -60.5344 -158.7199 -61.4329 Q-157.9934 -62.3313 -157.9934 -64.0813 Q-157.9934 -65.8157 -158.7199 -66.7063 Q-159.4465 -67.5969 -160.8684 -67.5969 Q-162.2903 -67.5969 -163.0324 -66.6985 Q-163.7746 -65.8001 -163.7746 -64.0813 Z"/><path style="stroke:none;" d="M-149.4309 -59.7844 L-150.4309 -59.7844 L-150.4309 -63.8157 L-154.9465 -63.8157 L-154.9465 -59.7844 L-155.9465 -59.7844 L-155.9465 -68.3469 L-154.9465 -68.3469 L-154.9465 -64.7063 L-150.4309 -64.7063 L-150.4309 -68.3469 L-149.4309 -68.3469 L-149.4309 -59.7844 Z"/><path style="stroke:none;" d="M-204.4155 -42.9463 Q-204.4155 -40.8838 -205.4546 -39.7041 Q-206.4936 -38.5244 -208.3374 -38.5244 Q-210.228 -38.5244 -211.2592 -39.6885 Q-212.2905 -40.8526 -212.2905 -42.9619 Q-212.2905 -45.0557 -211.2592 -46.2041 Q-210.228 -47.3526 -208.3374 -47.3526 Q-206.478 -47.3526 -205.4467 -46.1807 Q-204.4155 -45.0088 -204.4155 -42.9463 ZM-211.2436 -42.9463 Q-211.2436 -41.2119 -210.5014 -40.3057 Q-209.7592 -39.3994 -208.3374 -39.3994 Q-206.9155 -39.3994 -206.1889 -40.2979 Q-205.4624 -41.1963 -205.4624 -42.9463 Q-205.4624 -44.6807 -206.1889 -45.5713 Q-206.9155 -46.4619 -208.3374 -46.4619 Q-209.7592 -46.4619 -210.5014 -45.5635 Q-211.2436 -44.6651 -211.2436 -42.9463 Z"/><path style="fill:none; stroke:black;" d="M129.977 -24.635 L130.41 -24.885 L130.41 -25.385"/><path style="fill:none; stroke:black;" d="M129.977 -55.135 L130.41 -54.885 L130.41 -54.385"/><path style="fill:none; stroke:black;" d="M104.863 -10.135 L104.43 -9.885 L103.997 -10.135"/><path style="fill:none; stroke:black;" d="M155.96 -10.135 L156.393 -9.885 L156.826 -10.135"/><path style="fill:none; stroke:black;" d="M104.863 -69.635 L104.43 -69.885 L103.997 -69.635"/><path style="fill:rgb(0,5,255); stroke:none;" d="M159.7446 -65.7288 L158.6039 -65.7288 L153.9164 -72.9163 L153.8696 -72.9163 Q153.9633 -71.6506 153.9633 -70.6038 L153.9633 -65.7288 L153.0414 -65.7288 L153.0414 -74.2913 L154.1664 -74.2913 L158.8383 -67.135 L158.8852 -67.135 Q158.8852 -67.2913 158.8383 -68.1506 Q158.7914 -69.01 158.8071 -69.385 L158.8071 -74.2913 L159.7446 -74.2913 L159.7446 -65.7288 Z"/><path style="fill:rgb(0,5,255); stroke:none;" d="M159.6508 -75.2913 L158.6508 -75.2913 L158.6508 -79.3225 L154.1352 -79.3225 L154.1352 -75.2913 L153.1352 -75.2913 L153.1352 -83.8538 L154.1352 -83.8538 L154.1352 -80.2131 L158.6508 -80.2131 L158.6508 -83.8538 L159.6508 -83.8538 L159.6508 -75.2913 Z"/><path style="fill:none; stroke:black;" d="M78.45 -25.385 L78.45 -24.885 L78.883 -24.635"/><path style="fill:rgb(0,5,255); stroke:none;" d="M185.7246 -20.7288 L184.5839 -20.7288 L179.8964 -27.9163 L179.8496 -27.9163 Q179.9433 -26.6506 179.9433 -25.6038 L179.9433 -20.7288 L179.0214 -20.7288 L179.0214 -29.2913 L180.1464 -29.2913 L184.8183 -22.135 L184.8652 -22.135 Q184.8652 -22.2913 184.8183 -23.1506 Q184.7714 -24.01 184.7871 -24.385 L184.7871 -29.2913 L185.7246 -29.2913 L185.7246 -20.7288 Z"/><path style="fill:none; stroke:black;" d="M78.883 -55.135 L78.45 -54.885 L78.45 -54.385"/><path style="fill:none; stroke:black;" d="M182.373 -54.385 L182.373 -54.885 L182.806 -55.135"/><path style="fill:none; stroke:black;" d="M0.4548 -9.3877 L0.507 -9.885 L0.0502 -10.0884"/><path style="fill:rgb(148,108,0); stroke:none;" d="M-24.2027 -20.1485 Q-24.2027 -19.0235 -25.023 -18.3829 Q-25.8433 -17.7422 -27.2496 -17.7422 Q-28.7808 -17.7422 -29.5933 -18.1485 L-29.5933 -19.1016 Q-29.0621 -18.8829 -28.4449 -18.7501 Q-27.8277 -18.6172 -27.2183 -18.6172 Q-26.2183 -18.6172 -25.7183 -19.0001 Q-25.2183 -19.3829 -25.2183 -20.0547 Q-25.2183 -20.4922 -25.398 -20.7813 Q-25.5777 -21.0704 -25.9918 -21.3126 Q-26.4058 -21.5547 -27.2652 -21.8516 Q-28.4527 -22.2735 -28.9683 -22.8594 Q-29.4839 -23.4454 -29.4839 -24.3985 Q-29.4839 -25.3829 -28.7418 -25.9688 Q-27.9996 -26.5547 -26.7652 -26.5547 Q-25.4996 -26.5547 -24.4214 -26.086 L-24.7339 -25.2266 Q-25.7964 -25.6641 -26.7964 -25.6641 Q-27.5933 -25.6641 -28.0386 -25.3282 Q-28.4839 -24.9922 -28.4839 -24.3829 Q-28.4839 -23.9454 -28.3199 -23.6563 Q-28.1558 -23.3672 -27.7652 -23.1329 Q-27.3746 -22.8985 -26.5621 -22.6016 Q-25.2183 -22.1329 -24.7105 -21.5782 Q-24.2027 -21.0235 -24.2027 -20.1485 Z"/><path style="fill:none; stroke:black;" d="M-2.5758 19.4557 L-2.628 19.953 L-3.1171 20.0569"/><path style="fill:none; stroke:black;" d="M-46.724 0.64 L-46.974 0.207 L-47.4713 0.1547"/><path style="fill:none; stroke:black;" d="M-31.4849 26.0861 L-31.974 26.19 L-32.224 25.757"/></g></g></svg></svg></svg></svg>