<svg width="182" viewBox="0 0 182 115" style="fill-opacity:1; color-rendering:auto; color-interpolation:auto; text-rendering:auto; stroke:black; stroke-linecap:square; stroke-miterlimit:10; shape-rendering:auto; stroke-opacity:1; fill:black; stroke-dasharray:none; font-weight:normal; stroke-width:1; font-family:'Open Sans'; font-style:normal; stroke-linejoin:miter; font-size:12; stroke-dashoffset:0; image-rendering:auto;" height="115" class="cas-substance-image" xmlns:xlink="http://www.w3.org/1999/xlink" xmlns="http://www.w3.org/2000/svg"><svg class="cas-substance-single-component"><rect y="0" x="0" width="182" stroke="none" ry="7" rx="7" height="115" fill="white" class="cas-substance-group"/><svg y="0" x="0" width="182" viewBox="0 0 182 115" style="fill:black;" height="115" class="cas-substance-single-component-image"><svg><g><g transform="translate(97,55)" style="text-rendering:geometricPrecision; color-rendering:optimizeQuality; color-interpolation:linearRGB; stroke-linecap:butt; image-rendering:optimizeQuality;"><line y2="0" y1="0" x2="-7.5" x1="-37.5" style="fill:none;"/><line y2="25.98" y1="0" x2="-52.5" x1="-37.5" style="fill:none;"/><line y2="-25.98" y1="0" x2="-52.5" x1="-37.5" style="fill:none;"/><line y2="-25.98" y1="0" x2="7.5" x1="-7.5" style="fill:none;"/><line y2="46.2352" y1="25.98" x2="-40.8067" x1="-52.5" style="fill:none;"/><line y2="-25.98" y1="-25.98" x2="-76.5625" x1="-52.5" style="fill:none;"/><line y2="-25.98" y1="-25.98" x2="37.5" x1="7.5" style="fill:none;"/><line y2="-51.963" y1="-25.98" x2="52.5" x1="37.5" style="fill:none;"/><line y2="-51.963" y1="-51.963" x2="82.5" x1="52.5" style="fill:none;"/><path style="fill:none; stroke-miterlimit:5;" d="M-8 -0 L-7.5 0 L-7.25 -0.433"/><path style="fill:none; stroke-miterlimit:5;" d="M-52.25 25.547 L-52.5 25.98 L-52.25 26.413"/><path style="fill:none; stroke-miterlimit:5;" d="M-52.25 -25.547 L-52.5 -25.98 L-53 -25.98"/><path style="fill:none; stroke-miterlimit:5;" d="M7.25 -25.547 L7.5 -25.98 L8 -25.98"/></g><g transform="translate(97,55)" style="stroke-linecap:butt; fill:rgb(230,0,0); text-rendering:geometricPrecision; color-rendering:optimizeQuality; image-rendering:optimizeQuality; font-family:'Open Sans'; stroke:rgb(230,0,0); color-interpolation:linearRGB; stroke-miterlimit:5;"><path style="stroke:none;" d="M-33.5625 51.8927 Q-33.5625 53.9552 -34.6016 55.1349 Q-35.6406 56.3146 -37.4844 56.3146 Q-39.375 56.3146 -40.4062 55.1505 Q-41.4375 53.9864 -41.4375 51.8771 Q-41.4375 49.7833 -40.4062 48.6349 Q-39.375 47.4864 -37.4844 47.4864 Q-35.625 47.4864 -34.5938 48.6583 Q-33.5625 49.8302 -33.5625 51.8927 ZM-40.3906 51.8927 Q-40.3906 53.6271 -39.6484 54.5333 Q-38.9062 55.4396 -37.4844 55.4396 Q-36.0625 55.4396 -35.3359 54.5411 Q-34.6094 53.6427 -34.6094 51.8927 Q-34.6094 50.1583 -35.3359 49.2677 Q-36.0625 48.3771 -37.4844 48.3771 Q-38.9062 48.3771 -39.6484 49.2755 Q-40.3906 50.1739 -40.3906 51.8927 Z"/><path style="stroke:none;" d="M-26.0469 56.1896 L-27.0469 56.1896 L-27.0469 52.1583 L-31.5625 52.1583 L-31.5625 56.1896 L-32.5625 56.1896 L-32.5625 47.6271 L-31.5625 47.6271 L-31.5625 51.2677 L-27.0469 51.2677 L-27.0469 47.6271 L-26.0469 47.6271 L-26.0469 56.1896 Z"/><path style="stroke:none;" d="M-78.5625 -26.0503 Q-78.5625 -23.9878 -79.6016 -22.8081 Q-80.6406 -21.6284 -82.4844 -21.6284 Q-84.375 -21.6284 -85.4062 -22.7925 Q-86.4375 -23.9566 -86.4375 -26.0659 Q-86.4375 -28.1597 -85.4062 -29.3081 Q-84.375 -30.4566 -82.4844 -30.4566 Q-80.625 -30.4566 -79.5938 -29.2847 Q-78.5625 -28.1128 -78.5625 -26.0503 ZM-85.3906 -26.0503 Q-85.3906 -24.3159 -84.6484 -23.4097 Q-83.9062 -22.5034 -82.4844 -22.5034 Q-81.0625 -22.5034 -80.3359 -23.4019 Q-79.6094 -24.3003 -79.6094 -26.0503 Q-79.6094 -27.7847 -80.3359 -28.6753 Q-81.0625 -29.5659 -82.4844 -29.5659 Q-83.9062 -29.5659 -84.6484 -28.6675 Q-85.3906 -27.7691 -85.3906 -26.0503 Z"/><path style="stroke:none;" d="M-87.4375 -21.7534 L-88.4375 -21.7534 L-88.4375 -25.7847 L-92.9531 -25.7847 L-92.9531 -21.7534 L-93.9531 -21.7534 L-93.9531 -30.3159 L-92.9531 -30.3159 L-92.9531 -26.6753 L-88.4375 -26.6753 L-88.4375 -30.3159 L-87.4375 -30.3159 L-87.4375 -21.7534 Z"/><path style="fill:none; stroke:black;" d="M37 -25.98 L37.5 -25.98 L37.75 -26.413"/><path style="fill:none; stroke:black;" d="M52.25 -51.53 L52.5 -51.963 L53 -51.963"/></g></g></svg></svg></svg></svg>