<svg width="421" viewBox="0 0 421 243" style="fill-opacity:1; color-rendering:auto; color-interpolation:auto; text-rendering:auto; stroke:black; stroke-linecap:square; stroke-miterlimit:10; shape-rendering:auto; stroke-opacity:1; fill:black; stroke-dasharray:none; font-weight:normal; stroke-width:1; font-family:'Open Sans'; font-style:normal; stroke-linejoin:miter; font-size:12; stroke-dashoffset:0; image-rendering:auto;" height="243" class="cas-substance-image" xmlns:xlink="http://www.w3.org/1999/xlink" xmlns="http://www.w3.org/2000/svg"><svg class="cas-substance-single-component"><rect y="0" x="0" width="421" stroke="none" ry="7" rx="7" height="243" fill="white" class="cas-substance-group"/><svg y="0" x="0" width="421" viewBox="0 0 421 243" style="fill:black;" height="243" class="cas-substance-single-component-image"><svg><g><g transform="translate(211,124)" style="text-rendering:geometricPrecision; color-rendering:optimizeQuality; color-interpolation:linearRGB; stroke-linecap:butt; image-rendering:optimizeQuality;"><line y2="1.565" y1="1.565" x2="-98.1895" x1="-73.974" style="fill:none;"/><line y2="5.065" y1="5.065" x2="-98.1895" x1="-74.127" style="fill:none;"/><path style="stroke:none;" d="M-71.366 2.8667 L-74.2323 4.5196 L-74.3386 5.7356 L-70.9291 3.7694 L-71.366 2.8667 ZM-70.0551 5.5749 L-74.5513 8.1677 L-74.5826 8.5258 L-74.5826 8.5258 L-74.1703 9.1027 L-69.6181 6.4776 L-70.0551 5.5749 ZM-68.7442 8.283 L-73.0015 10.738 L-72.4171 11.5557 L-68.3072 9.1857 L-68.7442 8.283 ZM-67.4333 10.9912 L-71.2482 13.1911 L-70.6638 14.0088 L-66.9963 11.8939 L-66.9963 11.8939 L-67.4333 10.9912 ZM-66.1223 13.6993 L-69.495 15.6442 L-68.9106 16.4619 L-65.6853 14.602 L-66.1223 13.6993 ZM-64.8114 16.4075 L-67.7418 18.0973 L-67.1573 18.915 L-67.1573 18.915 L-64.3744 17.3102 L-64.8114 16.4075 ZM-63.5005 19.1156 L-65.9885 20.5504 L-65.4041 21.3681 L-63.0635 20.0183 L-63.0635 20.0183 L-63.5005 19.1156 ZM-62.1895 21.8238 L-64.2353 23.0035 L-64.2353 23.0035 L-63.6509 23.8212 L-63.6509 23.8212 L-61.7526 22.7265 L-62.1895 21.8238 ZM-60.8786 24.5319 L-62.482 25.4566 L-62.482 25.4566 L-61.8976 26.2743 L-60.4416 25.4347 L-60.4416 25.4347 L-60.8786 24.5319 ZM-59.5677 27.2401 L-60.7288 27.9097 L-60.7288 27.9097 L-60.1444 28.7274 L-60.1444 28.7274 L-59.1307 28.1428 L-59.1307 28.1428 L-59.5677 27.2401 Z"/><line y2="-26.571" y1="3.315" x2="-71.514" x1="-74.127" style="fill:none;"/><line y2="-7.941" y1="-19.7624" x2="-4.17" x1="-24.6446" style="fill:none;"/><line y2="37.059" y1="60.5824" x2="21.81" x1="21.81" style="fill:none;"/><line y2="87.252" y1="116.229" x2="-43.599" x1="-35.835" style="fill:none;"/><line y2="63.957" y1="86.5256" x2="-130.533" x1="-124.4861" style="fill:none;"/><line y2="-43.779" y1="-33.782" x2="-96.087" x1="-117.5288" style="fill:none;"/><line y2="27.216" y1="21.0221" x2="-167.274" x1="-190.3847" style="fill:none;"/><line y2="-86.343" y1="-109.8851" x2="-66.285" x1="-64.2243" style="fill:none;"/><line y2="-59.013" y1="-59.013" x2="166.254" x1="190.3165" style="fill:none;"/><line y2="29.295" y1="37.059" x2="-59.127" x1="-30.15" style="fill:none;"/><line y2="66.039" y1="37.059" x2="-22.386" x1="-30.15" style="fill:none;"/><path style="stroke:none;" d="M-6.4197 20.1414 L-7.2466 20.7098 L-4.5423 25.3993 L-4.5423 25.3993 L-3.6367 24.9674 L-3.6367 24.9674 L-6.4197 20.1414 ZM-8.9004 21.8467 L-9.7273 22.4151 L-9.7273 22.4151 L-7.2593 26.6949 L-7.2593 26.6949 L-6.3536 26.263 L-6.3536 26.263 L-8.9004 21.8467 ZM-11.3811 23.552 L-12.2081 24.1204 L-12.2081 24.1204 L-9.9762 27.9906 L-9.9762 27.9906 L-9.0706 27.5587 L-9.0706 27.5587 L-11.3811 23.552 ZM-13.8619 25.2573 L-14.6888 25.8257 L-14.6888 25.8257 L-12.6932 29.2863 L-12.6932 29.2863 L-11.7875 28.8544 L-11.7875 28.8544 L-13.8619 25.2573 ZM-16.3426 26.9626 L-17.1695 27.531 L-15.4101 30.582 L-15.4101 30.582 L-14.5045 30.1501 L-14.5045 30.1501 L-16.3426 26.9626 ZM-18.8233 28.6679 L-19.6502 29.2364 L-19.6502 29.2364 L-18.1271 31.8777 L-18.1271 31.8777 L-17.2214 31.4458 L-17.2214 31.4458 L-18.8233 28.6679 ZM-21.3041 30.3732 L-22.131 30.9417 L-22.131 30.9417 L-20.844 33.1733 L-20.844 33.1733 L-19.9384 32.7414 L-19.9384 32.7414 L-21.3041 30.3732 ZM-23.7848 32.0785 L-24.6117 32.647 L-24.6117 32.647 L-23.561 34.469 L-23.561 34.469 L-22.6553 34.0371 L-23.7848 32.0785 ZM-26.2655 33.7838 L-27.0924 34.3523 L-27.0924 34.3523 L-26.2779 35.7647 L-26.2779 35.7647 L-25.3723 35.3328 L-26.2655 33.7838 ZM-28.7462 35.4892 L-29.5732 36.0576 L-29.5732 36.0576 L-28.9949 37.0604 L-28.9949 37.0604 L-28.0892 36.6285 L-28.0892 36.6285 L-28.7462 35.4892 Z"/><line y2="50.508" y1="29.295" x2="-80.343" x1="-59.127" style="fill:none;"/><line y2="87.252" y1="66.039" x2="-43.599" x1="-22.386" style="fill:none;"/><line y2="83.3483" y1="64.993" x2="-44.645" x1="-26.2897" style="fill:none;"/><line y2="79.485" y1="50.508" x2="-72.576" x1="-80.343" style="fill:none;"/><path style="stroke:none;" d="M-80.2136 50.025 L-80.4724 50.991 L-111.7695 45.1935 L-109.32 42.744 L-110.2165 39.398 Z"/><line y2="79.485" y1="87.252" x2="-72.576" x1="-43.599" style="fill:none;"/><line y2="-7.941" y1="22.059" x2="-4.17" x1="-4.17" style="fill:none;"/><line y2="-5.9203" y1="20.0383" x2="-0.67" x1="-0.67" style="fill:none;"/><line y2="37.059" y1="22.059" x2="21.81" x1="-4.17" style="fill:none;"/><line y2="-22.941" y1="-7.941" x2="21.81" x1="-4.17" style="fill:none;"/><line y2="22.059" y1="37.059" x2="47.793" x1="21.81" style="fill:none;"/><line y2="20.0381" y1="33.0175" x2="44.2931" x1="21.8102" style="fill:none;"/><line y2="-7.941" y1="-22.941" x2="47.793" x1="21.81" style="fill:none;"/><line y2="-5.9201" y1="-18.8995" x2="44.2931" x1="21.8102" style="fill:none;"/><line y2="-7.941" y1="22.059" x2="47.793" x1="47.793" style="fill:none;"/><line y2="-22.941" y1="-7.941" x2="73.773" x1="47.793" style="fill:none;"/><line y2="63.957" y1="42.744" x2="-130.533" x1="-109.32" style="fill:none;"/><line y2="60.0533" y1="41.698" x2="-131.579" x1="-113.2237" style="fill:none;"/><line y2="13.767" y1="42.744" x2="-117.084" x1="-109.32" style="fill:none;"/><line y2="56.193" y1="63.957" x2="-159.51" x1="-130.533" style="fill:none;"/><line y2="6.003" y1="13.767" x2="-146.061" x1="-117.084" style="fill:none;"/><line y2="9.9067" y1="16.6248" x2="-145.015" x1="-119.9417" style="fill:none;"/><line y2="27.216" y1="56.193" x2="-167.274" x1="-159.51" style="fill:none;"/><line y2="28.262" y1="53.3353" x2="-163.3703" x1="-156.6522" style="fill:none;"/><line y2="27.216" y1="6.003" x2="-167.274" x1="-146.061" style="fill:none;"/><line y2="-43.779" y1="-26.571" x2="-96.087" x1="-71.514" style="fill:none;"/><line y2="-45.4868" y1="-30.5971" x2="-92.4241" x1="-71.1616" style="fill:none;"/><line y2="-39.249" y1="-26.571" x2="-44.325" x1="-71.514" style="fill:none;"/><line y2="-73.665" y1="-43.779" x2="-93.474" x1="-96.087" style="fill:none;"/><line y2="-69.135" y1="-39.249" x2="-41.709" x1="-44.325" style="fill:none;"/><line y2="-67.4272" y1="-41.5672" x2="-45.3719" x1="-47.6355" style="fill:none;"/><line y2="-86.343" y1="-73.665" x2="-66.285" x1="-93.474" style="fill:none;"/><line y2="-82.3169" y1="-71.3469" x2="-66.6373" x1="-90.1635" style="fill:none;"/><line y2="-86.343" y1="-69.135" x2="-66.285" x1="-41.709" style="fill:none;"/><line y2="-52.776" y1="-22.941" x2="76.908" x1="73.773" style="fill:none;"/><line y2="-50.4006" y1="-24.5849" x2="80.1777" x1="77.465" style="fill:none;"/><line y2="-13.3041" y1="-22.941" x2="95.4135" x1="73.773" style="fill:none;"/><line y2="-59.013" y1="-52.776" x2="106.254" x1="76.908" style="fill:none;"/><line y2="-33.033" y1="-15.489" x2="121.254" x1="105.4568" style="fill:none;"/><line y2="-33.033" y1="-59.013" x2="121.254" x1="106.254" style="fill:none;"/><line y2="-84.993" y1="-59.013" x2="121.254" x1="106.254" style="fill:none;"/><line y2="-81.493" y1="-59.013" x2="123.2747" x1="110.2954" style="fill:none;"/><line y2="-33.033" y1="-33.033" x2="151.254" x1="121.254" style="fill:none;"/><line y2="-36.533" y1="-36.533" x2="149.2333" x1="123.2747" style="fill:none;"/><line y2="-84.993" y1="-84.993" x2="151.254" x1="121.254" style="fill:none;"/><line y2="-59.013" y1="-33.033" x2="166.254" x1="151.254" style="fill:none;"/><line y2="-59.013" y1="-84.993" x2="166.254" x1="151.254" style="fill:none;"/><line y2="-59.013" y1="-81.493" x2="162.2125" x1="149.2333" style="fill:none;"/></g><g transform="translate(211,124)" style="fill:rgb(230,0,0); text-rendering:geometricPrecision; color-rendering:optimizeQuality; image-rendering:optimizeQuality; font-family:'Open Sans'; stroke:rgb(230,0,0); color-interpolation:linearRGB;"><path style="stroke:none;" d="M-100.1895 3.2447 Q-100.1895 5.3072 -101.2286 6.4869 Q-102.2676 7.6666 -104.1114 7.6666 Q-106.002 7.6666 -107.0332 6.5025 Q-108.0645 5.3384 -108.0645 3.2291 Q-108.0645 1.1353 -107.0332 -0.0131 Q-106.002 -1.1616 -104.1114 -1.1616 Q-102.252 -1.1616 -101.2207 0.0103 Q-100.1895 1.1822 -100.1895 3.2447 ZM-107.0176 3.2447 Q-107.0176 4.9791 -106.2754 5.8853 Q-105.5332 6.7916 -104.1114 6.7916 Q-102.6895 6.7916 -101.9629 5.8931 Q-101.2364 4.9947 -101.2364 3.2447 Q-101.2364 1.5103 -101.9629 0.6197 Q-102.6895 -0.2709 -104.1114 -0.2709 Q-105.5332 -0.2709 -106.2754 0.6275 Q-107.0176 1.5259 -107.0176 3.2447 Z"/><path style="stroke:none;" d="M-26.2125 -23.0113 Q-26.2125 -20.9488 -27.2516 -19.7691 Q-28.2906 -18.5894 -30.1344 -18.5894 Q-32.025 -18.5894 -33.0563 -19.7535 Q-34.0875 -20.9176 -34.0875 -23.0269 Q-34.0875 -25.1207 -33.0563 -26.2691 Q-32.025 -27.4176 -30.1344 -27.4176 Q-28.275 -27.4176 -27.2438 -26.2457 Q-26.2125 -25.0738 -26.2125 -23.0113 ZM-33.0406 -23.0113 Q-33.0406 -21.2769 -32.2984 -20.3707 Q-31.5563 -19.4644 -30.1344 -19.4644 Q-28.7125 -19.4644 -27.9859 -20.3629 Q-27.2594 -21.2613 -27.2594 -23.0113 Q-27.2594 -24.7457 -27.9859 -25.6363 Q-28.7125 -26.5269 -30.1344 -26.5269 Q-31.5563 -26.5269 -32.2984 -25.6285 Q-33.0406 -24.7301 -33.0406 -23.0113 Z"/><path style="stroke:none;" d="M-35.0875 -18.7144 L-36.0875 -18.7144 L-36.0875 -22.7457 L-40.6031 -22.7457 L-40.6031 -18.7144 L-41.6031 -18.7144 L-41.6031 -27.2769 L-40.6031 -27.2769 L-40.6031 -23.6363 L-36.0875 -23.6363 L-36.0875 -27.2769 L-35.0875 -27.2769 L-35.0875 -18.7144 Z"/><path style="stroke:none;" d="M25.7475 66.9887 Q25.7475 69.0512 24.7084 70.2309 Q23.6694 71.4106 21.8256 71.4106 Q19.935 71.4106 18.9037 70.2465 Q17.8725 69.0824 17.8725 66.9731 Q17.8725 64.8793 18.9037 63.7309 Q19.935 62.5824 21.8256 62.5824 Q23.685 62.5824 24.7162 63.7543 Q25.7475 64.9262 25.7475 66.9887 ZM18.9194 66.9887 Q18.9194 68.7231 19.6616 69.6293 Q20.4037 70.5356 21.8256 70.5356 Q23.2475 70.5356 23.9741 69.6371 Q24.7006 68.7387 24.7006 66.9887 Q24.7006 65.2543 23.9741 64.3637 Q23.2475 63.4731 21.8256 63.4731 Q20.4037 63.4731 19.6616 64.3715 Q18.9194 65.2699 18.9194 66.9887 Z"/><path style="stroke:none;" d="M33.2631 71.2856 L32.2631 71.2856 L32.2631 67.2543 L27.7475 67.2543 L27.7475 71.2856 L26.7475 71.2856 L26.7475 62.7231 L27.7475 62.7231 L27.7475 66.3637 L32.2631 66.3637 L32.2631 62.7231 L33.2631 62.7231 L33.2631 71.2856 Z"/><path style="stroke:none;" d="M-118.8315 92.8637 Q-118.8315 94.9262 -119.8706 96.1059 Q-120.9096 97.2856 -122.7534 97.2856 Q-124.644 97.2856 -125.6752 96.1215 Q-126.7065 94.9574 -126.7065 92.8481 Q-126.7065 90.7543 -125.6752 89.6059 Q-124.644 88.4574 -122.7534 88.4574 Q-120.894 88.4574 -119.8627 89.6293 Q-118.8315 90.8012 -118.8315 92.8637 ZM-125.6596 92.8637 Q-125.6596 94.5981 -124.9174 95.5043 Q-124.1752 96.4106 -122.7534 96.4106 Q-121.3315 96.4106 -120.6049 95.5121 Q-119.8784 94.6137 -119.8784 92.8637 Q-119.8784 91.1293 -120.6049 90.2387 Q-121.3315 89.3481 -122.7534 89.3481 Q-124.1752 89.3481 -124.9174 90.2465 Q-125.6596 91.1449 -125.6596 92.8637 Z"/><path style="stroke:none;" d="M-111.3159 97.1606 L-112.3159 97.1606 L-112.3159 93.1293 L-116.8315 93.1293 L-116.8315 97.1606 L-117.8315 97.1606 L-117.8315 88.5981 L-116.8315 88.5981 L-116.8315 92.2387 L-112.3159 92.2387 L-112.3159 88.5981 L-111.3159 88.5981 L-111.3159 97.1606 Z"/><path style="stroke:none;" d="M-119.3415 -31.1713 Q-119.3415 -29.1088 -120.3806 -27.9291 Q-121.4196 -26.7494 -123.2634 -26.7494 Q-125.154 -26.7494 -126.1853 -27.9135 Q-127.2165 -29.0776 -127.2165 -31.1869 Q-127.2165 -33.2807 -126.1853 -34.4291 Q-125.154 -35.5776 -123.2634 -35.5776 Q-121.404 -35.5776 -120.3728 -34.4057 Q-119.3415 -33.2338 -119.3415 -31.1713 ZM-126.1696 -31.1713 Q-126.1696 -29.4369 -125.4274 -28.5307 Q-124.6853 -27.6244 -123.2634 -27.6244 Q-121.8415 -27.6244 -121.1149 -28.5229 Q-120.3884 -29.4213 -120.3884 -31.1713 Q-120.3884 -32.9057 -121.1149 -33.7963 Q-121.8415 -34.6869 -123.2634 -34.6869 Q-124.6853 -34.6869 -125.4274 -33.7885 Q-126.1696 -32.8901 -126.1696 -31.1713 Z"/><path style="stroke:none;" d="M-128.2165 -26.8744 L-129.2165 -26.8744 L-129.2165 -30.9057 L-133.7321 -30.9057 L-133.7321 -26.8744 L-134.7321 -26.8744 L-134.7321 -35.4369 L-133.7321 -35.4369 L-133.7321 -31.7963 L-129.2165 -31.7963 L-129.2165 -35.4369 L-128.2165 -35.4369 L-128.2165 -26.8744 Z"/><path style="stroke:none;" d="M-192.3165 19.3787 Q-192.3165 21.4412 -193.3556 22.6209 Q-194.3946 23.8006 -196.2384 23.8006 Q-198.129 23.8006 -199.1602 22.6365 Q-200.1915 21.4724 -200.1915 19.3631 Q-200.1915 17.2693 -199.1602 16.1209 Q-198.129 14.9724 -196.2384 14.9724 Q-194.379 14.9724 -193.3477 16.1443 Q-192.3165 17.3162 -192.3165 19.3787 ZM-199.1446 19.3787 Q-199.1446 21.1131 -198.4024 22.0193 Q-197.6602 22.9256 -196.2384 22.9256 Q-194.8165 22.9256 -194.0899 22.0271 Q-193.3634 21.1287 -193.3634 19.3787 Q-193.3634 17.6443 -194.0899 16.7537 Q-194.8165 15.8631 -196.2384 15.8631 Q-197.6602 15.8631 -198.4024 16.7615 Q-199.1446 17.6599 -199.1446 19.3787 Z"/><path style="stroke:none;" d="M-201.1915 23.6756 L-202.1915 23.6756 L-202.1915 19.6443 L-206.7071 19.6443 L-206.7071 23.6756 L-207.7071 23.6756 L-207.7071 15.1131 L-206.7071 15.1131 L-206.7071 18.7537 L-202.1915 18.7537 L-202.1915 15.1131 L-201.1915 15.1131 L-201.1915 23.6756 Z"/><path style="stroke:none;" d="M-59.7315 -116.2993 Q-59.7315 -114.2368 -60.7706 -113.0571 Q-61.8096 -111.8774 -63.6534 -111.8774 Q-65.544 -111.8774 -66.5752 -113.0415 Q-67.6065 -114.2056 -67.6065 -116.3149 Q-67.6065 -118.4087 -66.5752 -119.5571 Q-65.544 -120.7056 -63.6534 -120.7056 Q-61.794 -120.7056 -60.7627 -119.5337 Q-59.7315 -118.3618 -59.7315 -116.2993 ZM-66.5596 -116.2993 Q-66.5596 -114.5649 -65.8174 -113.6587 Q-65.0752 -112.7524 -63.6534 -112.7524 Q-62.2315 -112.7524 -61.5049 -113.6509 Q-60.7784 -114.5493 -60.7784 -116.2993 Q-60.7784 -118.0337 -61.5049 -118.9243 Q-62.2315 -119.8149 -63.6534 -119.8149 Q-65.0752 -119.8149 -65.8174 -118.9165 Q-66.5596 -118.0181 -66.5596 -116.2993 Z"/><path style="stroke:none;" d="M-52.2159 -112.0024 L-53.2159 -112.0024 L-53.2159 -116.0337 L-57.7315 -116.0337 L-57.7315 -112.0024 L-58.7315 -112.0024 L-58.7315 -120.5649 L-57.7315 -120.5649 L-57.7315 -116.9243 L-53.2159 -116.9243 L-53.2159 -120.5649 L-52.2159 -120.5649 L-52.2159 -112.0024 Z"/><path style="stroke:none;" d="M200.1915 -59.0833 Q200.1915 -57.0208 199.1524 -55.8411 Q198.1134 -54.6614 196.2696 -54.6614 Q194.379 -54.6614 193.3477 -55.8255 Q192.3165 -56.9896 192.3165 -59.0989 Q192.3165 -61.1927 193.3477 -62.3411 Q194.379 -63.4896 196.2696 -63.4896 Q198.129 -63.4896 199.1602 -62.3177 Q200.1915 -61.1458 200.1915 -59.0833 ZM193.3634 -59.0833 Q193.3634 -57.3489 194.1056 -56.4427 Q194.8477 -55.5364 196.2696 -55.5364 Q197.6915 -55.5364 198.4181 -56.4349 Q199.1446 -57.3333 199.1446 -59.0833 Q199.1446 -60.8177 198.4181 -61.7083 Q197.6915 -62.5989 196.2696 -62.5989 Q194.8477 -62.5989 194.1056 -61.7005 Q193.3634 -60.8021 193.3634 -59.0833 Z"/><path style="stroke:none;" d="M207.7071 -54.7864 L206.7071 -54.7864 L206.7071 -58.8177 L202.1915 -58.8177 L202.1915 -54.7864 L201.1915 -54.7864 L201.1915 -63.3489 L202.1915 -63.3489 L202.1915 -59.7083 L206.7071 -59.7083 L206.7071 -63.3489 L207.7071 -63.3489 L207.7071 -54.7864 Z"/></g><g transform="translate(211,124)" style="stroke-linecap:butt; text-rendering:geometricPrecision; color-rendering:optimizeQuality; image-rendering:optimizeQuality; font-family:'Open Sans'; color-interpolation:linearRGB; stroke-miterlimit:5;"><path style="fill:none;" d="M-30.633 36.9296 L-30.15 37.059 L-30.0206 37.542"/></g><g transform="translate(211,124)" style="stroke-linecap:butt; font-size:8.4px; fill:gray; text-rendering:geometricPrecision; image-rendering:optimizeQuality; color-rendering:optimizeQuality; font-family:'Open Sans'; font-style:italic; stroke:gray; color-interpolation:linearRGB; stroke-miterlimit:5;"><path style="stroke:none;" d="M-35.844 28.3086 Q-35.844 26.9805 -35.3753 25.8555 Q-34.9065 24.7305 -33.8753 23.6524 L-33.2659 23.6524 Q-34.2346 24.7149 -34.719 25.8868 Q-35.2034 27.0586 -35.2034 28.293 Q-35.2034 29.6211 -34.7659 30.6368 L-35.2815 30.6368 Q-35.844 29.6055 -35.844 28.3086 ZM-32.284 26.9961 L-32.784 29.3711 L-33.4402 29.3711 L-32.2371 23.6524 L-30.9871 23.6524 Q-29.2527 23.6524 -29.2527 25.0899 Q-29.2527 26.4493 -30.6902 26.8399 L-29.7527 29.3711 L-30.4715 29.3711 L-31.2996 26.9961 L-32.284 26.9961 ZM-31.7058 24.2461 Q-32.0965 26.168 -32.159 26.418 L-31.5027 26.418 Q-30.7527 26.418 -30.3465 26.0899 Q-29.9402 25.7618 -29.9402 25.1368 Q-29.9402 24.668 -30.198 24.4571 Q-30.4558 24.2461 -31.0496 24.2461 L-31.7058 24.2461 ZM-27.0667 25.9961 Q-27.0667 27.3243 -27.5433 28.4571 Q-28.0199 29.5899 -29.0355 30.6368 L-29.6449 30.6368 Q-27.7074 28.4805 -27.7074 25.9961 Q-27.7074 24.668 -28.1449 23.6524 L-27.6292 23.6524 Q-27.0667 24.7149 -27.0667 25.9961 Z"/><path style="fill:none; stroke:black;" d="M-58.644 29.4244 L-59.127 29.295 L-59.4806 29.6485"/><path style="stroke:none;" d="M-57.148 22.5645 Q-57.148 21.2364 -56.6793 20.1114 Q-56.2105 18.9864 -55.1793 17.9083 L-54.5699 17.9083 Q-55.5386 18.9708 -56.023 20.1426 Q-56.5074 21.3145 -56.5074 22.5489 Q-56.5074 23.877 -56.0699 24.8926 L-56.5855 24.8926 Q-57.148 23.8614 -57.148 22.5645 ZM-51.5254 21.9708 Q-51.5254 22.7989 -52.0723 23.252 Q-52.6192 23.7051 -53.6192 23.7051 Q-54.0254 23.7051 -54.3379 23.6505 Q-54.6504 23.5958 -54.9317 23.4551 L-54.9317 22.7989 Q-54.3067 23.127 -53.6036 23.127 Q-52.9786 23.127 -52.6036 22.8301 Q-52.2286 22.5333 -52.2286 22.0176 Q-52.2286 21.7051 -52.4317 21.4786 Q-52.6348 21.252 -53.1973 20.9239 Q-53.7911 20.5958 -54.0176 20.2676 Q-54.2442 19.9395 -54.2442 19.4864 Q-54.2442 18.752 -53.7286 18.2911 Q-53.2129 17.8301 -52.3692 17.8301 Q-51.9942 17.8301 -51.6583 17.9083 Q-51.3223 17.9864 -50.9473 18.1583 L-51.2129 18.752 Q-51.4629 18.5958 -51.7833 18.5098 Q-52.1036 18.4239 -52.3692 18.4239 Q-52.9004 18.4239 -53.2208 18.6973 Q-53.5411 18.9708 -53.5411 19.4395 Q-53.5411 19.6426 -53.4708 19.7911 Q-53.4004 19.9395 -53.2598 20.0723 Q-53.1192 20.2051 -52.6973 20.4551 Q-52.1348 20.7989 -51.9317 20.9942 Q-51.7286 21.1895 -51.627 21.4239 Q-51.5254 21.6583 -51.5254 21.9708 ZM-48.931 20.252 Q-48.931 21.5801 -49.4075 22.713 Q-49.8841 23.8458 -50.8997 24.8926 L-51.5091 24.8926 Q-49.5716 22.7364 -49.5716 20.252 Q-49.5716 18.9239 -50.0091 17.9083 L-49.4935 17.9083 Q-48.931 18.9708 -48.931 20.252 Z"/><path style="fill:none; stroke:black;" d="M-22.5154 65.556 L-22.386 66.039 L-22.7396 66.3925"/><path style="stroke:none;" d="M-87.3184 42.0124 Q-87.3184 40.6843 -86.8496 39.5593 Q-86.3809 38.4343 -85.3496 37.3562 L-84.7403 37.3562 Q-85.709 38.4187 -86.1934 39.5905 Q-86.6778 40.7624 -86.6778 41.9968 Q-86.6778 43.3249 -86.2403 44.3405 L-86.7559 44.3405 Q-87.3184 43.3093 -87.3184 42.0124 ZM-83.7583 40.6999 L-84.2583 43.0749 L-84.9146 43.0749 L-83.7115 37.3562 L-82.4615 37.3562 Q-80.7271 37.3562 -80.7271 38.7937 Q-80.7271 40.153 -82.1646 40.5437 L-81.2271 43.0749 L-81.9458 43.0749 L-82.774 40.6999 L-83.7583 40.6999 ZM-83.1802 37.9499 Q-83.5708 39.8718 -83.6333 40.1218 L-82.9771 40.1218 Q-82.2271 40.1218 -81.8208 39.7937 Q-81.4146 39.4655 -81.4146 38.8405 Q-81.4146 38.3718 -81.6724 38.1609 Q-81.9302 37.9499 -82.524 37.9499 L-83.1802 37.9499 ZM-78.5411 39.6999 Q-78.5411 41.028 -79.0177 42.1609 Q-79.4942 43.2937 -80.5099 44.3405 L-81.1192 44.3405 Q-79.1817 42.1843 -79.1817 39.6999 Q-79.1817 38.3718 -79.6192 37.3562 L-79.1036 37.3562 Q-78.5411 38.4187 -78.5411 39.6999 Z"/><path style="fill:none; stroke:black;" d="M-43.2454 86.8984 L-43.599 87.252 L-44.082 87.1226"/><path style="fill:none; stroke:black;" d="M-72.7054 79.0021 L-72.576 79.485 L-72.093 79.6144"/><path style="fill:none; stroke:black;" d="M-4.17 21.559 L-4.17 22.059 L-3.737 22.309"/><path style="fill:none; stroke:black;" d="M-4.17 -7.441 L-4.17 -7.941 L-4.603 -8.191"/><path style="fill:none; stroke:black;" d="M22.243 36.809 L21.81 37.059 L21.81 37.559"/><path style="fill:none; stroke:black;" d="M21.377 -22.691 L21.81 -22.941 L22.243 -22.691"/><path style="fill:none; stroke:black;" d="M47.36 22.309 L47.793 22.059 L47.793 21.559"/><path style="fill:none; stroke:black;" d="M47.36 -8.191 L47.793 -7.941 L48.226 -8.191"/><path style="fill:none; stroke:black;" d="M-130.1795 63.6034 L-130.533 63.957 L-130.4036 64.44"/><path style="fill:none; stroke:black;" d="M-116.9546 14.25 L-117.084 13.767 L-117.567 13.6376"/><path style="fill:none; stroke:black;" d="M-159.027 56.3224 L-159.51 56.193 L-159.6394 55.71"/><path style="fill:none; stroke:black;" d="M-145.578 6.1324 L-146.061 6.003 L-146.4146 6.3566"/><path style="fill:none; stroke:black;" d="M-167.1446 27.699 L-167.274 27.216 L-166.9205 26.8624"/><path style="fill:none; stroke:black;" d="M-71.9236 -26.8578 L-71.514 -26.571 L-71.5575 -26.0729"/><path style="fill:none; stroke:black;" d="M-95.6774 -43.4922 L-96.087 -43.779 L-96.0434 -44.2771"/><path style="fill:none; stroke:black;" d="M-44.7782 -39.0377 L-44.325 -39.249 L-44.2814 -39.7471"/><path style="fill:none; stroke:black;" d="M-93.5175 -73.1669 L-93.474 -73.665 L-93.0208 -73.8763"/><path style="fill:none; stroke:black;" d="M-41.7526 -68.6369 L-41.709 -69.135 L-42.1186 -69.4218"/><path style="fill:none; stroke:black;" d="M-66.7382 -86.1317 L-66.285 -86.343 L-66.2414 -86.8411"/><path style="fill:none; stroke:black;" d="M73.8253 -23.4383 L73.773 -22.941 L73.34 -22.691"/><path style="fill:none; stroke:black;" d="M76.8558 -52.2787 L76.908 -52.776 L77.3971 -52.8799"/></g><g transform="translate(211,124)" style="stroke-linecap:butt; fill:rgb(230,0,0); text-rendering:geometricPrecision; color-rendering:optimizeQuality; image-rendering:optimizeQuality; font-family:'Open Sans'; stroke:rgb(230,0,0); color-interpolation:linearRGB; stroke-miterlimit:5;"><path style="stroke:none;" d="M105.1155 -10.8073 Q105.1155 -8.7448 104.0764 -7.5651 Q103.0374 -6.3854 101.1936 -6.3854 Q99.303 -6.3854 98.2718 -7.5495 Q97.2405 -8.7136 97.2405 -10.8229 Q97.2405 -12.9167 98.2718 -14.0651 Q99.303 -15.2136 101.1936 -15.2136 Q103.053 -15.2136 104.0843 -14.0417 Q105.1155 -12.8698 105.1155 -10.8073 ZM98.2874 -10.8073 Q98.2874 -9.0729 99.0296 -8.1667 Q99.7718 -7.2604 101.1936 -7.2604 Q102.6155 -7.2604 103.3421 -8.1589 Q104.0686 -9.0573 104.0686 -10.8073 Q104.0686 -12.5417 103.3421 -13.4323 Q102.6155 -14.3229 101.1936 -14.3229 Q99.7718 -14.3229 99.0296 -13.4245 Q98.2874 -12.5261 98.2874 -10.8073 Z"/><path style="fill:none; stroke:black;" d="M106.504 -59.446 L106.254 -59.013 L105.7649 -58.9091"/><path style="fill:none; stroke:black;" d="M121.754 -33.033 L121.254 -33.033 L120.9194 -32.6614"/><path style="fill:none; stroke:black;" d="M121.004 -84.56 L121.254 -84.993 L121.754 -84.993"/><path style="fill:none; stroke:black;" d="M150.754 -33.033 L151.254 -33.033 L151.504 -33.466"/><path style="fill:none; stroke:black;" d="M150.754 -84.993 L151.254 -84.993 L151.504 -84.56"/><path style="fill:none; stroke:black;" d="M166.004 -59.446 L166.254 -59.013 L166.754 -59.013"/></g></g></svg></svg></svg></svg>