<svg xmlns:ns0="http://www.w3.org/2000/svg" xmlns="http://www.w3.org/2000/svg"><g transform="translate(0, 0)"><ns0:svg width="100" viewBox="0 0 100 75" style="fill-opacity:1; color-rendering:auto; color-interpolation:auto; text-rendering:auto; stroke:black; stroke-linecap:square; stroke-miterlimit:10; shape-rendering:auto; stroke-opacity:1; fill:black; stroke-dasharray:none; font-weight:normal; stroke-width:1; font-family:'Open Sans'; font-style:normal; stroke-linejoin:miter; font-size:12; stroke-dashoffset:0; image-rendering:auto;" height="75" class="cas-substance-image"><ns0:svg class="cas-substance-single-component"><ns0:rect y="0" x="0" width="100" stroke="none" ry="7" rx="7" height="75" fill="white" class="cas-substance-group" /><ns0:svg y="0" x="11" width="77" viewBox="0 0 77 75" style="fill:black;" height="75" class="cas-substance-single-component-image"><ns0:svg><ns0:g><ns0:g transform="translate(33,37)" style="text-rendering:geometricPrecision; color-rendering:optimizeQuality; color-interpolation:linearRGB; stroke-linecap:butt; image-rendering:optimizeQuality;"><ns0:line y2="0" y1="0" x2="-30" x1="-4.6433" style="fill:none;" /><ns0:line y2="-23.6484" y1="-6.4688" x2="1.75" x1="1.75" style="fill:none;" /><ns0:line y2="-23.6484" y1="-6.4688" x2="-1.75" x1="-1.75" style="fill:none;" /><ns0:line y2="23.5234" y1="6.3438" x2="-1.75" x1="-1.75" style="fill:none;" /><ns0:line y2="23.5234" y1="6.3438" x2="1.75" x1="1.75" style="fill:none;" /><ns0:line y2="0" y1="0" x2="24.0625" x1="4.561" style="fill:none;" /></ns0:g><ns0:g transform="translate(33,37)" style="fill:rgb(148,108,0); text-rendering:geometricPrecision; color-rendering:optimizeQuality; image-rendering:optimizeQuality; font-family:'Open Sans'; stroke:rgb(148,108,0); color-interpolation:linearRGB;"><ns0:path style="stroke:none;" d="M2.6953 1.9375 Q2.6953 3.0625 1.875 3.7031 Q1.0547 4.3438 -0.3516 4.3438 Q-1.8828 4.3438 -2.6953 3.9375 L-2.6953 2.9844 Q-2.1641 3.2031 -1.5469 3.3359 Q-0.9297 3.4688 -0.3203 3.4688 Q0.6797 3.4688 1.1797 3.0859 Q1.6797 2.7031 1.6797 2.0312 Q1.6797 1.5938 1.5 1.3047 Q1.3203 1.0156 0.9062 0.7734 Q0.4922 0.5312 -0.3672 0.2344 Q-1.5547 -0.1875 -2.0703 -0.7734 Q-2.5859 -1.3594 -2.5859 -2.3125 Q-2.5859 -3.2969 -1.8438 -3.8828 Q-1.1016 -4.4688 0.1328 -4.4688 Q1.3984 -4.4688 2.4766 -4 L2.1641 -3.1406 Q1.1016 -3.5781 0.1016 -3.5781 Q-0.6953 -3.5781 -1.1406 -3.2422 Q-1.5859 -2.9062 -1.5859 -2.2969 Q-1.5859 -1.8594 -1.4219 -1.5703 Q-1.2578 -1.2812 -0.8672 -1.0469 Q-0.4766 -0.8125 0.3359 -0.5156 Q1.6797 -0.0469 2.1875 0.5078 Q2.6953 1.0625 2.6953 1.9375 Z" /><ns0:path style="fill:rgb(230,0,0); stroke:none;" d="M3.9375 -30.0703 Q3.9375 -28.0078 2.8984 -26.8281 Q1.8594 -25.6484 0.0156 -25.6484 Q-1.875 -25.6484 -2.9062 -26.8125 Q-3.9375 -27.9766 -3.9375 -30.0859 Q-3.9375 -32.1797 -2.9062 -33.3281 Q-1.875 -34.4766 0.0156 -34.4766 Q1.875 -34.4766 2.9062 -33.3047 Q3.9375 -32.1328 3.9375 -30.0703 ZM-2.8906 -30.0703 Q-2.8906 -28.3359 -2.1484 -27.4297 Q-1.4062 -26.5234 0.0156 -26.5234 Q1.4375 -26.5234 2.1641 -27.4219 Q2.8906 -28.3203 2.8906 -30.0703 Q2.8906 -31.8047 2.1641 -32.6953 Q1.4375 -33.5859 0.0156 -33.5859 Q-1.4062 -33.5859 -2.1484 -32.6875 Q-2.8906 -31.7891 -2.8906 -30.0703 Z" /><ns0:path style="fill:rgb(230,0,0); stroke:none;" d="M3.9375 29.9297 Q3.9375 31.9922 2.8984 33.1719 Q1.8594 34.3516 0.0156 34.3516 Q-1.875 34.3516 -2.9062 33.1875 Q-3.9375 32.0234 -3.9375 29.9141 Q-3.9375 27.8203 -2.9062 26.6719 Q-1.875 25.5234 0.0156 25.5234 Q1.875 25.5234 2.9062 26.6953 Q3.9375 27.8672 3.9375 29.9297 ZM-2.8906 29.9297 Q-2.8906 31.6641 -2.1484 32.5703 Q-1.4062 33.4766 0.0156 33.4766 Q1.4375 33.4766 2.1641 32.5781 Q2.8906 31.6797 2.8906 29.9297 Q2.8906 28.1953 2.1641 27.3047 Q1.4375 26.4141 0.0156 26.4141 Q-1.4062 26.4141 -2.1484 27.3125 Q-2.8906 28.2109 -2.8906 29.9297 Z" /><ns0:path style="fill:rgb(230,0,0); stroke:none;" d="M33.9375 -0.0703 Q33.9375 1.9922 32.8984 3.1719 Q31.8594 4.3516 30.0156 4.3516 Q28.125 4.3516 27.0938 3.1875 Q26.0625 2.0234 26.0625 -0.0859 Q26.0625 -2.1797 27.0938 -3.3281 Q28.125 -4.4766 30.0156 -4.4766 Q31.875 -4.4766 32.9062 -3.3047 Q33.9375 -2.1328 33.9375 -0.0703 ZM27.1094 -0.0703 Q27.1094 1.6641 27.8516 2.5703 Q28.5938 3.4766 30.0156 3.4766 Q31.4375 3.4766 32.1641 2.5781 Q32.8906 1.6797 32.8906 -0.0703 Q32.8906 -1.8047 32.1641 -2.6953 Q31.4375 -3.5859 30.0156 -3.5859 Q28.5938 -3.5859 27.8516 -2.6875 Q27.1094 -1.7891 27.1094 -0.0703 Z" /><ns0:path style="fill:rgb(230,0,0); stroke:none;" d="M41.4531 4.2266 L40.4531 4.2266 L40.4531 0.1953 L35.9375 0.1953 L35.9375 4.2266 L34.9375 4.2266 L34.9375 -4.3359 L35.9375 -4.3359 L35.9375 -0.6953 L40.4531 -0.6953 L40.4531 -4.3359 L41.4531 -4.3359 L41.4531 4.2266 Z" /></ns0:g></ns0:g></ns0:svg></ns0:svg></ns0:svg></ns0:svg></g><g transform="translate(100, 0)"><ns0:svg width="385" viewBox="0 0 385 190" style="fill-opacity:1; color-rendering:auto; color-interpolation:auto; text-rendering:auto; stroke:black; stroke-linecap:square; stroke-miterlimit:10; shape-rendering:auto; stroke-opacity:1; fill:black; stroke-dasharray:none; font-weight:normal; stroke-width:1; font-family:'Open Sans'; font-style:normal; stroke-linejoin:miter; font-size:12; stroke-dashoffset:0; image-rendering:auto;" height="190" class="cas-substance-image"><ns0:svg class="cas-substance-single-component"><ns0:rect y="0" x="0" width="385" stroke="none" ry="7" rx="7" height="190" fill="white" class="cas-substance-group" /><ns0:svg y="0" x="0" width="385" viewBox="0 0 385 190" style="fill:black;" height="190" class="cas-substance-single-component-image"><ns0:svg><ns0:g><ns0:g transform="translate(187,95)" style="text-rendering:geometricPrecision; color-rendering:optimizeQuality; color-interpolation:linearRGB; stroke-linecap:butt; image-rendering:optimizeQuality;"><ns0:path style="stroke:none;" d="M-78.9582 44.12 L-80.0127 44.525 L-80.0127 44.525 L-79.7549 45.4971 L-79.7549 45.4971 L-78.4992 45.015 L-78.4992 45.015 L-78.9582 44.12 ZM-77.5812 46.8048 L-79.2392 47.4415 L-79.2392 47.4415 L-78.9814 48.4136 L-78.9814 48.4136 L-77.1222 47.6997 L-77.5812 46.8048 ZM-76.2042 49.4896 L-78.4657 50.358 L-78.2079 51.3301 L-78.2079 51.3301 L-75.7452 50.3845 L-75.7452 50.3845 L-76.2042 49.4896 ZM-74.8272 52.1743 L-77.6922 53.2745 L-77.6922 53.2745 L-77.4344 54.2466 L-77.4344 54.2466 L-74.3682 53.0693 L-74.3682 53.0693 L-74.8272 52.1743 ZM-73.4502 54.8591 L-76.9187 56.1909 L-76.9187 56.1909 L-76.6609 57.1631 L-72.9912 55.754 L-72.9912 55.754 L-73.4502 54.8591 ZM-72.0732 57.5439 L-76.1452 59.1074 L-76.1452 59.1074 L-75.8874 60.0796 L-75.8874 60.0796 L-71.6142 58.4388 L-71.6142 58.4388 L-72.0732 57.5439 ZM-70.6962 60.2286 L-75.3717 62.0239 L-75.3717 62.0239 L-75.1139 62.9961 L-75.1139 62.9961 L-70.2372 61.1235 L-70.2372 61.1235 L-70.6962 60.2286 ZM-69.3192 62.9134 L-74.5982 64.9404 L-74.5982 64.9404 L-74.3404 65.9126 L-74.3404 65.9126 L-68.8602 63.8083 L-69.3192 62.9134 Z" /><ns0:path style="stroke:none;" d="M-108.4658 -30.239 L-108.387 -29.239 L-102.7047 -29.239 L-102.681 -29.5069 L-103.949 -30.239 ZM-108.2294 -27.239 L-108.1506 -26.239 L-102.97 -26.239 L-102.8816 -27.239 ZM-107.993 -24.239 L-107.9143 -23.239 L-103.2353 -23.239 L-103.1469 -24.239 ZM-107.7567 -21.239 L-107.6779 -20.239 L-103.5006 -20.239 L-103.4122 -21.239 ZM-107.5203 -18.239 L-107.4416 -17.239 L-103.766 -17.239 L-103.6775 -18.239 ZM-107.284 -15.239 L-107.2052 -14.239 L-104.0313 -14.239 L-103.9428 -15.239 ZM-107.0476 -12.239 L-106.9688 -11.239 L-104.2966 -11.239 L-104.2082 -12.239 ZM-106.8113 -9.239 L-106.7325 -8.239 L-104.5619 -8.239 L-104.4735 -9.239 ZM-106.5749 -6.239 L-106.4961 -5.239 L-104.8272 -5.239 L-104.7388 -6.239 ZM-106.3386 -3.239 L-106.2598 -2.239 L-105.0926 -2.239 L-105.0041 -3.239 Z" /><ns0:line y2="-46.239" y1="-31.239" x2="-131.661" x1="-105.681" style="fill:none;" /><ns0:line y2="5.1566" y1="-18.3291" x2="-53.2253" x1="-45.5943" style="fill:none;" /><ns0:line y2="6.2381" y1="-17.2475" x2="-49.8966" x1="-42.2656" style="fill:none;" /><ns0:line y2="17.955" y1="10.3919" x2="17.292" x1="-5.9873" style="fill:none;" /><ns0:path style="stroke:none;" d="M-18.5888 11.372 L-19.2606 12.1202 L-19.2606 12.1202 L-15.4939 16.3019 L-15.4939 16.3019 L-14.6796 15.7118 L-18.5888 11.372 ZM-20.6042 13.6166 L-21.276 14.3648 L-17.9366 18.072 L-17.1223 17.482 L-17.1223 17.482 L-20.6042 13.6166 ZM-22.6195 15.8611 L-23.2913 16.6093 L-23.2913 16.6093 L-20.3792 19.8422 L-20.3792 19.8422 L-19.565 19.2521 L-19.565 19.2521 L-22.6195 15.8611 ZM-24.6349 18.1057 L-25.3067 18.8539 L-25.3067 18.8539 L-22.8219 21.6123 L-22.8219 21.6123 L-22.0077 21.0223 L-22.0077 21.0223 L-24.6349 18.1057 ZM-26.6503 20.3502 L-27.322 21.0984 L-25.2646 23.3825 L-24.4504 22.7924 L-26.6503 20.3502 ZM-28.6656 22.5948 L-29.3374 23.343 L-27.7073 25.1526 L-26.8931 24.5626 L-26.8931 24.5626 L-28.6656 22.5948 ZM-30.681 24.8393 L-31.3528 25.5875 L-31.3528 25.5875 L-30.15 26.9228 L-30.15 26.9228 L-29.3358 26.3327 L-29.3358 26.3327 L-30.681 24.8393 ZM-32.6963 27.0839 L-33.3681 27.8321 L-32.5927 28.6929 L-31.7785 28.1028 L-31.7785 28.1028 L-32.6963 27.0839 Z" /><ns0:line y2="41.2319" y1="17.3306" x2="20.45" x1="15.3702" style="fill:none;" /><ns0:line y2="40.5043" y1="17.5912" x2="23.8736" x1="19.0038" style="fill:none;" /><ns0:path style="stroke:none;" d="M39.2504 -2.4896 L39.9196 -1.7464 L20.4321 19.5009 L13.8429 17.3601 Z" /><ns0:path style="stroke:none;" d="M-33.8686 29.1326 L-33.1994 28.3894 L-9.2336 46.6046 L-13.2484 51.0634 Z" /><ns0:line y2="15.7817" y1="3.4549" x2="-131.661" x1="-153.0134" style="fill:none;" /><ns0:line y2="12.7506" y1="0.4238" x2="-129.911" x1="-151.2635" style="fill:none;" /><ns0:line y2="-57.8995" y1="-80.88" x2="54.2886" x1="49.404" style="fill:none;" /><ns0:line y2="19.9172" y1="43.761" x2="-79.701" x1="-79.701" style="fill:none;" /><ns0:line y2="58.761" y1="43.761" x2="-105.681" x1="-79.701" style="fill:none;" /><ns0:line y2="51.1338" y1="43.761" x2="-57.0076" x1="-79.701" style="fill:none;" /><ns0:line y2="-1.239" y1="10.8259" x2="-105.681" x1="-84.7846" style="fill:none;" /><ns0:line y2="4.488" y1="12.0536" x2="-51.168" x1="-74.4474" style="fill:none;" /><ns0:line y2="46.6961" y1="58.761" x2="-126.5774" x1="-105.681" style="fill:none;" /><ns0:line y2="88.104" y1="58.761" x2="-111.918" x1="-105.681" style="fill:none;" /><ns0:line y2="28.761" y1="47.7939" x2="-33.534" x1="-47.3628" style="fill:none;" /><ns0:line y2="13.761" y1="-1.239" x2="-131.661" x1="-105.681" style="fill:none;" /><ns0:line y2="28.761" y1="4.488" x2="-33.534" x1="-51.168" style="fill:none;" /><ns0:line y2="13.761" y1="37.3547" x2="-131.661" x1="-131.661" style="fill:none;" /><ns0:line y2="63.834" y1="48.1166" x2="-153.957" x1="-136.4989" style="fill:none;" /><ns0:line y2="91.239" y1="88.104" x2="-141.753" x1="-111.918" style="fill:none;" /><ns0:line y2="91.239" y1="63.834" x2="-141.753" x1="-153.957" style="fill:none;" /><ns0:line y2="-76.239" y1="-46.239" x2="-131.661" x1="-131.661" style="fill:none;" /><ns0:line y2="-74.2183" y1="-48.2597" x2="-135.161" x1="-135.161" style="fill:none;" /><ns0:line y2="-31.239" y1="-46.239" x2="-157.644" x1="-131.661" style="fill:none;" /><ns0:line y2="-91.239" y1="-76.239" x2="-157.644" x1="-131.661" style="fill:none;" /><ns0:line y2="-46.239" y1="-31.239" x2="-183.624" x1="-157.644" style="fill:none;" /><ns0:line y2="-48.2597" y1="-35.2805" x2="-180.124" x1="-157.6439" style="fill:none;" /><ns0:line y2="-76.239" y1="-91.239" x2="-183.624" x1="-157.644" style="fill:none;" /><ns0:line y2="-74.2183" y1="-87.1975" x2="-180.124" x1="-157.6439" style="fill:none;" /><ns0:line y2="-76.239" y1="-46.239" x2="-183.624" x1="-183.624" style="fill:none;" /><ns0:line y2="7.152" y1="-2.118" x2="68.118" x1="39.585" style="fill:none;" /><ns0:line y2="-31.461" y1="-2.118" x2="33.348" x1="39.585" style="fill:none;" /><ns0:line y2="-12.921" y1="7.152" x2="90.411" x1="68.118" style="fill:none;" /><ns0:line y2="-47.1804" y1="-31.461" x2="50.8033" x1="33.348" style="fill:none;" /><ns0:line y2="-3.222" y1="-12.921" x2="119.031" x1="90.411" style="fill:none;" /><ns0:line y2="-42.264" y1="-12.921" x2="84.174" x1="90.411" style="fill:none;" /><ns0:line y2="-42.264" y1="-49.8296" x2="84.174" x1="60.8946" style="fill:none;" /><ns0:line y2="-23.514" y1="-3.222" x2="140.577" x1="119.031" style="fill:none;" /><ns0:line y2="25.929" y1="-3.222" x2="126.999" x1="119.031" style="fill:none;" /><ns0:line y2="23.057" y1="-2.1956" x2="129.8424" x1="122.9399" style="fill:none;" /><ns0:line y2="-61.944" y1="-42.264" x2="106.797" x1="84.174" style="fill:none;" /><ns0:line y2="-52.41" y1="-23.514" x2="135.531" x1="140.577" style="fill:none;" /><ns0:line y2="-16.743" y1="-23.514" x2="169.119" x1="140.577" style="fill:none;" /><ns0:line y2="-20.6149" y1="-26.4531" x2="167.9607" x1="143.351" style="fill:none;" /><ns0:line y2="33.912" y1="25.929" x2="155.91" x1="126.999" style="fill:none;" /><ns0:line y2="-52.41" y1="-61.944" x2="135.531" x1="106.797" style="fill:none;" /><ns0:line y2="-65.286" y1="-52.41" x2="163.086" x1="135.531" style="fill:none;" /><ns0:line y2="-61.2596" y1="-50.0946" x2="162.737" x1="138.8434" style="fill:none;" /><ns0:line y2="-37.5618" y1="-16.743" x2="180.4151" x1="169.119" style="fill:none;" /><ns0:line y2="12.51" y1="-16.743" x2="176.916" x1="169.119" style="fill:none;" /><ns0:line y2="12.51" y1="33.912" x2="176.916" x1="155.91" style="fill:none;" /><ns0:line y2="11.5005" y1="30.0182" x2="173.0027" x1="154.8276" style="fill:none;" /><ns0:line y2="-48.4912" y1="-65.286" x2="178.9013" x1="163.086" style="fill:none;" /><ns0:path style="stroke:none;" d="M-106.1183 59.0034 L-105.2437 58.5186 L-91.9252 77.3891 L-97.1729 80.2979 Z" /><ns0:path style="stroke:none;" d="M91.1304 -12.3027 L89.9945 -12.0695 L89.9945 -12.0695 L90.0921 -11.0686 L91.4365 -11.3446 L91.1304 -12.3027 ZM92.0486 -9.4282 L90.2873 -9.0666 L90.2873 -9.0666 L90.385 -8.0657 L92.3547 -8.4701 L92.0486 -9.4282 ZM92.9668 -6.5537 L90.5802 -6.0637 L90.6778 -5.0628 L93.2729 -5.5955 L92.9668 -6.5537 ZM93.885 -3.6792 L90.8731 -3.0608 L90.9707 -2.0599 L94.1911 -2.721 L93.885 -3.6792 ZM94.8032 -0.8047 L91.1659 -0.0579 L91.2635 0.943 L95.1093 0.1535 L94.8032 -0.8047 ZM95.7214 2.0698 L91.4588 2.9449 L91.5564 3.9459 L96.0275 3.028 L95.7214 2.0698 ZM96.6396 4.9443 L91.7516 5.9478 L91.8493 6.9488 L96.9457 5.9025 L96.6396 4.9443 ZM97.5578 7.8189 L92.0445 8.9507 L92.1421 9.9517 L97.8639 8.777 L97.5578 7.8189 Z" /><ns0:path style="stroke:none;" d="M84.6639 -42.3638 L83.684 -42.1642 L76.4945 -64.9465 L82.3739 -66.1435 Z" /></ns0:g><ns0:g transform="translate(187,95)" style="fill:rgb(230,0,0); text-rendering:geometricPrecision; color-rendering:optimizeQuality; image-rendering:optimizeQuality; font-family:'Open Sans'; stroke:rgb(230,0,0); color-interpolation:linearRGB;"><ns0:path style="stroke:none;" d="M-65.0115 71.6957 Q-65.0115 73.7582 -66.0506 74.9379 Q-67.0896 76.1176 -68.9334 76.1176 Q-70.824 76.1176 -71.8552 74.9535 Q-72.8865 73.7894 -72.8865 71.6801 Q-72.8865 69.5863 -71.8552 68.4379 Q-70.824 67.2894 -68.9334 67.2894 Q-67.074 67.2894 -66.0427 68.4613 Q-65.0115 69.6332 -65.0115 71.6957 ZM-71.8396 71.6957 Q-71.8396 73.4301 -71.0974 74.3363 Q-70.3552 75.2426 -68.9334 75.2426 Q-67.5115 75.2426 -66.7849 74.3441 Q-66.0584 73.4457 -66.0584 71.6957 Q-66.0584 69.9613 -66.7849 69.0707 Q-67.5115 68.1801 -68.9334 68.1801 Q-70.3552 68.1801 -71.0974 69.0785 Q-71.8396 69.9769 -71.8396 71.6957 Z" /><ns0:path style="stroke:none;" d="M-57.4959 75.9926 L-58.4959 75.9926 L-58.4959 71.9613 L-63.0115 71.9613 L-63.0115 75.9926 L-64.0115 75.9926 L-64.0115 67.4301 L-63.0115 67.4301 L-63.0115 71.0707 L-58.4959 71.0707 L-58.4959 67.4301 L-57.4959 67.4301 L-57.4959 75.9926 Z" /><ns0:path style="stroke:none;" d="M-37.9605 -24.1123 Q-37.9605 -22.0498 -38.9996 -20.8701 Q-40.0386 -19.6904 -41.8824 -19.6904 Q-43.773 -19.6904 -44.8042 -20.8545 Q-45.8355 -22.0186 -45.8355 -24.1279 Q-45.8355 -26.2217 -44.8042 -27.3701 Q-43.773 -28.5186 -41.8824 -28.5186 Q-40.023 -28.5186 -38.9917 -27.3467 Q-37.9605 -26.1748 -37.9605 -24.1123 ZM-44.7886 -24.1123 Q-44.7886 -22.3779 -44.0464 -21.4717 Q-43.3042 -20.5654 -41.8824 -20.5654 Q-40.4605 -20.5654 -39.7339 -21.4639 Q-39.0074 -22.3623 -39.0074 -24.1123 Q-39.0074 -25.8467 -39.7339 -26.7373 Q-40.4605 -27.6279 -41.8824 -27.6279 Q-43.3042 -27.6279 -44.0464 -26.7295 Q-44.7886 -25.8311 -44.7886 -24.1123 Z" /><ns0:path style="fill:rgb(0,5,255); stroke:none;" d="M-7.8894 12.8412 L-9.0301 12.8412 L-13.7176 5.6537 L-13.7644 5.6537 Q-13.6707 6.9194 -13.6707 7.9662 L-13.6707 12.8412 L-14.5926 12.8412 L-14.5926 4.2787 L-13.4676 4.2787 L-8.7957 11.435 L-8.7488 11.435 Q-8.7488 11.2787 -8.7957 10.4194 Q-8.8426 9.56 -8.8269 9.185 L-8.8269 4.2787 L-7.8894 4.2787 L-7.8894 12.8412 Z" /><ns0:path style="fill:rgb(0,5,255); stroke:none;" d="M-7.9832 3.2787 L-8.9832 3.2787 L-8.9832 -0.7525 L-13.4988 -0.7525 L-13.4988 3.2787 L-14.4988 3.2787 L-14.4988 -5.2838 L-13.4988 -5.2838 L-13.4988 -1.6431 L-8.9832 -1.6431 L-8.9832 -5.2838 L-7.9832 -5.2838 L-7.9832 3.2787 Z" /><ns0:path style="stroke:none;" d="M27.4665 47.2307 Q27.4665 49.2932 26.4274 50.4729 Q25.3884 51.6526 23.5446 51.6526 Q21.654 51.6526 20.6228 50.4885 Q19.5915 49.3244 19.5915 47.2151 Q19.5915 45.1213 20.6228 43.9729 Q21.654 42.8244 23.5446 42.8244 Q25.404 42.8244 26.4353 43.9963 Q27.4665 45.1682 27.4665 47.2307 ZM20.6384 47.2307 Q20.6384 48.9651 21.3806 49.8713 Q22.1228 50.7776 23.5446 50.7776 Q24.9665 50.7776 25.6931 49.8791 Q26.4196 48.9807 26.4196 47.2307 Q26.4196 45.4963 25.6931 44.6057 Q24.9665 43.7151 23.5446 43.7151 Q22.1228 43.7151 21.3806 44.6135 Q20.6384 45.5119 20.6384 47.2307 Z" /><ns0:path style="stroke:none;" d="M-153.7065 -1.3093 Q-153.7065 0.7532 -154.7456 1.9329 Q-155.7846 3.1126 -157.6284 3.1126 Q-159.519 3.1126 -160.5502 1.9485 Q-161.5815 0.7844 -161.5815 -1.3249 Q-161.5815 -3.4187 -160.5502 -4.5671 Q-159.519 -5.7156 -157.6284 -5.7156 Q-155.769 -5.7156 -154.7377 -4.5437 Q-153.7065 -3.3718 -153.7065 -1.3093 ZM-160.5346 -1.3093 Q-160.5346 0.4251 -159.7924 1.3313 Q-159.0502 2.2376 -157.6284 2.2376 Q-156.2065 2.2376 -155.4799 1.3391 Q-154.7534 0.4407 -154.7534 -1.3093 Q-154.7534 -3.0437 -155.4799 -3.9343 Q-156.2065 -4.8249 -157.6284 -4.8249 Q-159.0502 -4.8249 -159.7924 -3.9265 Q-160.5346 -3.0281 -160.5346 -1.3093 Z" /></ns0:g><ns0:g transform="translate(187,95)" style="font-size:8.4px; fill:gray; text-rendering:geometricPrecision; image-rendering:optimizeQuality; color-rendering:optimizeQuality; font-family:'Open Sans'; font-style:italic; stroke:gray; color-interpolation:linearRGB;"><ns0:path style="stroke:none;" d="M-92.4698 39.9642 Q-92.4698 38.6361 -92.0011 37.5111 Q-91.5323 36.3861 -90.5011 35.3079 L-89.8917 35.3079 Q-90.8604 36.3704 -91.3448 37.5423 Q-91.8292 38.7142 -91.8292 39.9486 Q-91.8292 41.2767 -91.3917 42.2923 L-91.9073 42.2923 Q-92.4698 41.2611 -92.4698 39.9642 ZM-86.8472 39.3704 Q-86.8472 40.1986 -87.3941 40.6517 Q-87.941 41.1048 -88.941 41.1048 Q-89.3472 41.1048 -89.6597 41.0501 Q-89.9722 40.9954 -90.2535 40.8548 L-90.2535 40.1986 Q-89.6285 40.5267 -88.9254 40.5267 Q-88.3004 40.5267 -87.9254 40.2298 Q-87.5504 39.9329 -87.5504 39.4173 Q-87.5504 39.1048 -87.7535 38.8782 Q-87.9566 38.6517 -88.5191 38.3236 Q-89.1129 37.9954 -89.3394 37.6673 Q-89.566 37.3392 -89.566 36.8861 Q-89.566 36.1517 -89.0504 35.6907 Q-88.5347 35.2298 -87.691 35.2298 Q-87.316 35.2298 -86.9801 35.3079 Q-86.6441 35.3861 -86.2691 35.5579 L-86.5347 36.1517 Q-86.7847 35.9954 -87.1051 35.9095 Q-87.4254 35.8236 -87.691 35.8236 Q-88.2222 35.8236 -88.5426 36.097 Q-88.8629 36.3704 -88.8629 36.8392 Q-88.8629 37.0423 -88.7926 37.1907 Q-88.7222 37.3392 -88.5816 37.472 Q-88.441 37.6048 -88.0191 37.8548 Q-87.4566 38.1986 -87.2535 38.3939 Q-87.0504 38.5892 -86.9488 38.8236 Q-86.8472 39.0579 -86.8472 39.3704 ZM-84.2528 37.6517 Q-84.2528 38.9798 -84.7293 40.1126 Q-85.2059 41.2454 -86.2215 42.2923 L-86.8309 42.2923 Q-84.8934 40.1361 -84.8934 37.6517 Q-84.8934 36.3236 -85.3309 35.3079 L-84.8153 35.3079 Q-84.2528 36.3704 -84.2528 37.6517 Z" /></ns0:g><ns0:g transform="translate(187,95)" style="fill:rgb(0,5,255); text-rendering:geometricPrecision; color-rendering:optimizeQuality; image-rendering:optimizeQuality; font-family:'Open Sans'; stroke:rgb(0,5,255); color-interpolation:linearRGB;"><ns0:path style="stroke:none;" d="M-76.3494 17.9172 L-77.4901 17.9172 L-82.1776 10.7297 L-82.2244 10.7297 Q-82.1307 11.9954 -82.1307 13.0422 L-82.1307 17.9172 L-83.0526 17.9172 L-83.0526 9.3547 L-81.9276 9.3547 L-77.2557 16.511 L-77.2088 16.511 Q-77.2088 16.3547 -77.2557 15.4954 Q-77.3026 14.636 -77.2869 14.261 L-77.2869 9.3547 L-76.3494 9.3547 L-76.3494 17.9172 Z" /></ns0:g><ns0:g transform="translate(187,95)" style="font-size:8.4px; fill:gray; text-rendering:geometricPrecision; image-rendering:optimizeQuality; color-rendering:optimizeQuality; font-family:'Open Sans'; font-style:italic; stroke:gray; color-interpolation:linearRGB;"><ns0:path style="stroke:none;" d="M-109.7895 49.9641 Q-109.7895 48.636 -109.3208 47.511 Q-108.852 46.386 -107.8208 45.3079 L-107.2114 45.3079 Q-108.1801 46.3704 -108.6645 47.5422 Q-109.1489 48.7141 -109.1489 49.9485 Q-109.1489 51.2766 -108.7114 52.2922 L-109.227 52.2922 Q-109.7895 51.261 -109.7895 49.9641 ZM-104.167 49.3704 Q-104.167 50.1985 -104.7138 50.6516 Q-105.2607 51.1047 -106.2607 51.1047 Q-106.667 51.1047 -106.9795 51.0501 Q-107.292 50.9954 -107.5732 50.8547 L-107.5732 50.1985 Q-106.9482 50.5266 -106.2451 50.5266 Q-105.6201 50.5266 -105.2451 50.2297 Q-104.8701 49.9329 -104.8701 49.4172 Q-104.8701 49.1047 -105.0732 48.8782 Q-105.2763 48.6516 -105.8388 48.3235 Q-106.4326 47.9954 -106.6591 47.6672 Q-106.8857 47.3391 -106.8857 46.886 Q-106.8857 46.1516 -106.3701 45.6907 Q-105.8545 45.2297 -105.0107 45.2297 Q-104.6357 45.2297 -104.2998 45.3079 Q-103.9638 45.386 -103.5888 45.5579 L-103.8545 46.1516 Q-104.1045 45.9954 -104.4248 45.9094 Q-104.7451 45.8235 -105.0107 45.8235 Q-105.542 45.8235 -105.8623 46.0969 Q-106.1826 46.3704 -106.1826 46.8391 Q-106.1826 47.0422 -106.1123 47.1907 Q-106.042 47.3391 -105.9013 47.4719 Q-105.7607 47.6047 -105.3388 47.8547 Q-104.7763 48.1985 -104.5732 48.3938 Q-104.3701 48.5891 -104.2685 48.8235 Q-104.167 49.0579 -104.167 49.3704 ZM-101.5725 47.6516 Q-101.5725 48.9797 -102.049 50.1126 Q-102.5256 51.2454 -103.5412 52.2922 L-104.1506 52.2922 Q-102.2131 50.136 -102.2131 47.6516 Q-102.2131 46.3235 -102.6506 45.3079 L-102.135 45.3079 Q-101.5725 46.3704 -101.5725 47.6516 Z" /></ns0:g><ns0:g transform="translate(187,95)" style="fill:rgb(230,0,0); text-rendering:geometricPrecision; color-rendering:optimizeQuality; image-rendering:optimizeQuality; font-family:'Open Sans'; stroke:rgb(230,0,0); color-interpolation:linearRGB;"><ns0:path style="stroke:none;" d="M-47.2305 52.9607 Q-47.2305 55.0232 -48.2696 56.2029 Q-49.3086 57.3826 -51.1524 57.3826 Q-53.043 57.3826 -54.0742 56.2185 Q-55.1055 55.0544 -55.1055 52.9451 Q-55.1055 50.8513 -54.0742 49.7029 Q-53.043 48.5544 -51.1524 48.5544 Q-49.293 48.5544 -48.2617 49.7263 Q-47.2305 50.8982 -47.2305 52.9607 ZM-54.0586 52.9607 Q-54.0586 54.6951 -53.3164 55.6013 Q-52.5742 56.5076 -51.1524 56.5076 Q-49.7305 56.5076 -49.0039 55.6091 Q-48.2774 54.7107 -48.2774 52.9607 Q-48.2774 51.2263 -49.0039 50.3357 Q-49.7305 49.4451 -51.1524 49.4451 Q-52.5742 49.4451 -53.3164 50.3435 Q-54.0586 51.2419 -54.0586 52.9607 Z" /></ns0:g><ns0:g transform="translate(187,95)" style="stroke-linecap:butt; text-rendering:geometricPrecision; color-rendering:optimizeQuality; image-rendering:optimizeQuality; font-family:'Open Sans'; color-interpolation:linearRGB; stroke-miterlimit:5;"><ns0:path style="fill:none;" d="M-105.248 -0.989 L-105.681 -1.239 L-106.114 -0.989" /></ns0:g><ns0:g transform="translate(187,95)" style="stroke-linecap:butt; font-size:8.4px; fill:gray; text-rendering:geometricPrecision; image-rendering:optimizeQuality; color-rendering:optimizeQuality; font-family:'Open Sans'; font-style:italic; stroke:gray; color-interpolation:linearRGB; stroke-miterlimit:5;"><ns0:path style="stroke:none;" d="M-118.4497 -5.036 Q-118.4497 -6.3641 -117.981 -7.4891 Q-117.5122 -8.6141 -116.481 -9.6922 L-115.8716 -9.6922 Q-116.8403 -8.6297 -117.3247 -7.4579 Q-117.8091 -6.286 -117.8091 -5.0516 Q-117.8091 -3.7235 -117.3716 -2.7079 L-117.8872 -2.7079 Q-118.4497 -3.7391 -118.4497 -5.036 ZM-112.8271 -5.6297 Q-112.8271 -4.8016 -113.374 -4.3485 Q-113.9209 -3.8954 -114.9209 -3.8954 Q-115.3271 -3.8954 -115.6396 -3.95 Q-115.9521 -4.0047 -116.2334 -4.1454 L-116.2334 -4.8016 Q-115.6084 -4.4735 -114.9053 -4.4735 Q-114.2803 -4.4735 -113.9053 -4.7704 Q-113.5303 -5.0672 -113.5303 -5.5829 Q-113.5303 -5.8954 -113.7334 -6.1219 Q-113.9365 -6.3485 -114.499 -6.6766 Q-115.0928 -7.0047 -115.3193 -7.3329 Q-115.5459 -7.661 -115.5459 -8.1141 Q-115.5459 -8.8485 -115.0303 -9.3094 Q-114.5146 -9.7704 -113.6709 -9.7704 Q-113.2959 -9.7704 -112.96 -9.6922 Q-112.624 -9.6141 -112.249 -9.4422 L-112.5146 -8.8485 Q-112.7646 -9.0047 -113.085 -9.0907 Q-113.4053 -9.1766 -113.6709 -9.1766 Q-114.2021 -9.1766 -114.5225 -8.9032 Q-114.8428 -8.6297 -114.8428 -8.161 Q-114.8428 -7.9579 -114.7725 -7.8094 Q-114.7021 -7.661 -114.5615 -7.5282 Q-114.4209 -7.3954 -113.999 -7.1454 Q-113.4365 -6.8016 -113.2334 -6.6063 Q-113.0303 -6.411 -112.9287 -6.1766 Q-112.8271 -5.9422 -112.8271 -5.6297 ZM-110.2327 -7.3485 Q-110.2327 -6.0204 -110.7092 -4.8875 Q-111.1858 -3.7547 -112.2014 -2.7079 L-112.8108 -2.7079 Q-110.8733 -4.8641 -110.8733 -7.3485 Q-110.8733 -8.6766 -111.3108 -9.6922 L-110.7952 -9.6922 Q-110.2327 -8.6297 -110.2327 -7.3485 Z" /><ns0:path style="fill:none; stroke:black;" d="M-51.6435 4.6425 L-51.168 4.488 L-50.8741 4.8925" /></ns0:g><ns0:g transform="translate(187,95)" style="stroke-linecap:butt; fill:rgb(0,5,255); text-rendering:geometricPrecision; color-rendering:optimizeQuality; image-rendering:optimizeQuality; font-family:'Open Sans'; stroke:rgb(0,5,255); color-interpolation:linearRGB; stroke-miterlimit:5;"><ns0:path style="stroke:none;" d="M-128.3094 47.9172 L-129.4501 47.9172 L-134.1376 40.7297 L-134.1844 40.7297 Q-134.0907 41.9954 -134.0907 43.0422 L-134.0907 47.9172 L-135.0126 47.9172 L-135.0126 39.3547 L-133.8876 39.3547 L-129.2157 46.511 L-129.1688 46.511 Q-129.1688 46.3547 -129.2157 45.4954 Q-129.2626 44.636 -129.2469 44.261 L-129.2469 39.3547 L-128.3094 39.3547 L-128.3094 47.9172 Z" /><ns0:path style="fill:none; stroke:black;" d="M-111.814 87.6149 L-111.918 88.104 L-112.4153 88.1563" /></ns0:g><ns0:g transform="translate(187,95)" style="stroke-linecap:butt; font-size:8.4px; fill:gray; text-rendering:geometricPrecision; image-rendering:optimizeQuality; color-rendering:optimizeQuality; font-family:'Open Sans'; font-style:italic; stroke:gray; color-interpolation:linearRGB; stroke-miterlimit:5;"><ns0:path style="stroke:none;" d="M-47.9226 29.9248 Q-47.9226 28.5966 -47.4539 27.4716 Q-46.9851 26.3466 -45.9539 25.2685 L-45.3445 25.2685 Q-46.3133 26.331 -46.7976 27.5029 Q-47.282 28.6748 -47.282 29.9091 Q-47.282 31.2373 -46.8445 32.2529 L-47.3601 32.2529 Q-47.9226 31.2216 -47.9226 29.9248 ZM-44.3626 28.6123 L-44.8626 30.9873 L-45.5188 30.9873 L-44.3157 25.2685 L-43.0657 25.2685 Q-41.3313 25.2685 -41.3313 26.706 Q-41.3313 28.0654 -42.7688 28.456 L-41.8313 30.9873 L-42.5501 30.9873 L-43.3782 28.6123 L-44.3626 28.6123 ZM-43.7845 25.8623 Q-44.1751 27.7841 -44.2376 28.0341 L-43.5813 28.0341 Q-42.8313 28.0341 -42.4251 27.706 Q-42.0188 27.3779 -42.0188 26.7529 Q-42.0188 26.2841 -42.2766 26.0732 Q-42.5345 25.8623 -43.1282 25.8623 L-43.7845 25.8623 ZM-39.1454 27.6123 Q-39.1454 28.9404 -39.6219 30.0732 Q-40.0985 31.206 -41.1141 32.2529 L-41.7235 32.2529 Q-39.786 30.0966 -39.786 27.6123 Q-39.786 26.2841 -40.2235 25.2685 L-39.7079 25.2685 Q-39.1454 26.331 -39.1454 27.6123 Z" /><ns0:path style="fill:none; stroke:black;" d="M-131.228 13.511 L-131.661 13.761 L-131.661 14.261" /><ns0:path style="fill:none; stroke:black;" d="M-153.5854 63.4995 L-153.957 63.834 L-153.7536 64.2908" /><ns0:path style="fill:none; stroke:black;" d="M-141.2557 91.1867 L-141.753 91.239 L-141.9564 90.7822" /><ns0:path style="fill:none; stroke:black;" d="M-131.661 -46.739 L-131.661 -46.239 L-131.228 -45.989" /><ns0:path style="fill:none; stroke:black;" d="M-131.661 -75.739 L-131.661 -76.239 L-132.094 -76.489" /><ns0:path style="fill:none; stroke:black;" d="M-157.211 -31.489 L-157.644 -31.239 L-158.077 -31.489" /><ns0:path style="fill:none; stroke:black;" d="M-157.211 -90.989 L-157.644 -91.239 L-158.077 -90.989" /><ns0:path style="fill:none; stroke:black;" d="M-183.191 -45.989 L-183.624 -46.239 L-183.624 -46.739" /><ns0:path style="fill:none; stroke:black;" d="M-183.191 -76.489 L-183.624 -76.239 L-183.624 -75.739" /><ns0:path style="stroke:none;" d="M25.6858 -4.044 Q25.6858 -5.3721 26.1545 -6.4971 Q26.6233 -7.6221 27.6545 -8.7003 L28.2639 -8.7003 Q27.2951 -7.6378 26.8108 -6.4659 Q26.3264 -5.294 26.3264 -4.0596 Q26.3264 -2.7315 26.7639 -1.7159 L26.2483 -1.7159 Q25.6858 -2.7471 25.6858 -4.044 ZM29.2458 -5.3565 L28.7458 -2.9815 L28.0896 -2.9815 L29.2927 -8.7003 L30.5427 -8.7003 Q32.2771 -8.7003 32.2771 -7.2628 Q32.2771 -5.9034 30.8396 -5.5128 L31.7771 -2.9815 L31.0583 -2.9815 L30.2302 -5.3565 L29.2458 -5.3565 ZM29.8239 -8.1065 Q29.4333 -6.1846 29.3708 -5.9346 L30.0271 -5.9346 Q30.7771 -5.9346 31.1833 -6.2628 Q31.5896 -6.5909 31.5896 -7.2159 Q31.5896 -7.6846 31.3318 -7.8956 Q31.0739 -8.1065 30.4802 -8.1065 L29.8239 -8.1065 ZM34.463 -6.3565 Q34.463 -5.0284 33.9865 -3.8956 Q33.5099 -2.7628 32.4943 -1.7159 L31.8849 -1.7159 Q33.8224 -3.8721 33.8224 -6.3565 Q33.8224 -7.6846 33.3849 -8.7003 L33.9005 -8.7003 Q34.463 -7.6378 34.463 -6.3565 Z" /><ns0:path style="fill:none; stroke:black;" d="M67.6425 6.9975 L68.118 7.152 L68.4896 6.8174" /><ns0:path style="fill:none; stroke:black;" d="M33.452 -30.9719 L33.348 -31.461 L33.7195 -31.7956" /><ns0:path style="stroke:none;" d="M76.5118 -14.8471 Q76.5118 -16.1752 76.9805 -17.3002 Q77.4493 -18.4252 78.4805 -19.5033 L79.0899 -19.5033 Q78.1212 -18.4408 77.6368 -17.269 Q77.1524 -16.0971 77.1524 -14.8627 Q77.1524 -13.5346 77.5899 -12.519 L77.0743 -12.519 Q76.5118 -13.5502 76.5118 -14.8471 ZM80.0718 -16.1596 L79.5718 -13.7846 L78.9156 -13.7846 L80.1187 -19.5033 L81.3687 -19.5033 Q83.1031 -19.5033 83.1031 -18.0658 Q83.1031 -16.7065 81.6656 -16.3158 L82.6031 -13.7846 L81.8843 -13.7846 L81.0562 -16.1596 L80.0718 -16.1596 ZM80.65 -18.9096 Q80.2593 -16.9877 80.1968 -16.7377 L80.8531 -16.7377 Q81.6031 -16.7377 82.0093 -17.0658 Q82.4156 -17.394 82.4156 -18.019 Q82.4156 -18.4877 82.1578 -18.6986 Q81.9 -18.9096 81.3062 -18.9096 L80.65 -18.9096 ZM85.2891 -17.1596 Q85.2891 -15.8315 84.8125 -14.6986 Q84.3359 -13.5658 83.3203 -12.519 L82.7109 -12.519 Q84.6484 -14.6752 84.6484 -17.1596 Q84.6484 -18.4877 84.2109 -19.5033 L84.7266 -19.5033 Q85.2891 -18.4408 85.2891 -17.1596 Z" /></ns0:g><ns0:g transform="translate(187,95)" style="stroke-linecap:butt; fill:rgb(0,5,255); text-rendering:geometricPrecision; color-rendering:optimizeQuality; image-rendering:optimizeQuality; font-family:'Open Sans'; stroke:rgb(0,5,255); color-interpolation:linearRGB; stroke-miterlimit:5;"><ns0:path style="stroke:none;" d="M58.9926 -47.3808 L57.8519 -47.3808 L53.1644 -54.5683 L53.1176 -54.5683 Q53.2113 -53.3026 53.2113 -52.2558 L53.2113 -47.3808 L52.2894 -47.3808 L52.2894 -55.9433 L53.4144 -55.9433 L58.0863 -48.787 L58.1332 -48.787 Q58.1332 -48.9433 58.0863 -49.8026 Q58.0394 -50.662 58.0551 -51.037 L58.0551 -55.9433 L58.9926 -55.9433 L58.9926 -47.3808 Z" /><ns0:path style="fill:none; stroke:black;" d="M119.1628 -2.7397 L119.031 -3.222 L118.5574 -3.3825" /></ns0:g><ns0:g transform="translate(187,95)" style="stroke-linecap:butt; font-size:8.4px; fill:gray; text-rendering:geometricPrecision; image-rendering:optimizeQuality; color-rendering:optimizeQuality; font-family:'Open Sans'; font-style:italic; stroke:gray; color-interpolation:linearRGB; stroke-miterlimit:5;"><ns0:path style="stroke:none;" d="M89.2691 -37.9286 Q89.2691 -39.2567 89.7379 -40.3817 Q90.2066 -41.5067 91.2379 -42.5848 L91.8473 -42.5848 Q90.8785 -41.5223 90.3941 -40.3504 Q89.9098 -39.1786 89.9098 -37.9442 Q89.9098 -36.6161 90.3473 -35.6004 L89.8316 -35.6004 Q89.2691 -36.6317 89.2691 -37.9286 ZM92.8292 -39.2411 L92.3292 -36.8661 L91.673 -36.8661 L92.8761 -42.5848 L94.1261 -42.5848 Q95.8605 -42.5848 95.8605 -41.1473 Q95.8605 -39.7879 94.423 -39.3973 L95.3605 -36.8661 L94.6417 -36.8661 L93.8136 -39.2411 L92.8292 -39.2411 ZM93.4073 -41.9911 Q93.0167 -40.0692 92.9542 -39.8192 L93.6105 -39.8192 Q94.3605 -39.8192 94.7667 -40.1473 Q95.173 -40.4754 95.173 -41.1004 Q95.173 -41.5692 94.9151 -41.7801 Q94.6573 -41.9911 94.0636 -41.9911 L93.4073 -41.9911 ZM98.0464 -40.2411 Q98.0464 -38.9129 97.5699 -37.7801 Q97.0933 -36.6473 96.0777 -35.6004 L95.4683 -35.6004 Q97.4058 -37.7567 97.4058 -40.2411 Q97.4058 -41.5692 96.9683 -42.5848 L97.4839 -42.5848 Q98.0464 -41.5223 98.0464 -40.2411 Z" /><ns0:path style="fill:none; stroke:black;" d="M141.0635 -23.3986 L140.577 -23.514 L140.213 -23.1712" /><ns0:path style="fill:none; stroke:black;" d="M126.8672 25.4467 L126.999 25.929 L127.481 26.0621" /><ns0:path style="fill:none; stroke:black;" d="M106.4198 -61.6158 L106.797 -61.944 L107.2716 -61.7865" /><ns0:path style="fill:none; stroke:black;" d="M135.984 -52.6217 L135.531 -52.41 L135.617 -51.9175" /><ns0:path style="fill:none; stroke:black;" d="M168.6325 -16.8584 L169.119 -16.743 L169.2478 -16.2599" /><ns0:path style="fill:none; stroke:black;" d="M155.428 33.7789 L155.91 33.912 L156.2602 33.5552" /><ns0:path style="fill:none; stroke:black;" d="M162.633 -65.0743 L163.086 -65.286 L163.4288 -64.922" /></ns0:g><ns0:g transform="translate(187,95)" style="stroke-linecap:butt; fill:rgb(0,5,255); text-rendering:geometricPrecision; color-rendering:optimizeQuality; image-rendering:optimizeQuality; font-family:'Open Sans'; stroke:rgb(0,5,255); color-interpolation:linearRGB; stroke-miterlimit:5;"><ns0:path style="stroke:none;" d="M186.9756 -39.3198 L185.8349 -39.3198 L181.1474 -46.5073 L181.1006 -46.5073 Q181.1943 -45.2416 181.1943 -44.1948 L181.1943 -39.3198 L180.2724 -39.3198 L180.2724 -47.8823 L181.3974 -47.8823 L186.0693 -40.726 L186.1162 -40.726 Q186.1162 -40.8823 186.0693 -41.7416 Q186.0224 -42.601 186.0381 -42.976 L186.0381 -47.8823 L186.9756 -47.8823 L186.9756 -39.3198 Z" /><ns0:path style="stroke:none;" d="M194.4912 -39.3198 L193.4912 -39.3198 L193.4912 -43.351 L188.9756 -43.351 L188.9756 -39.3198 L187.9756 -39.3198 L187.9756 -47.8823 L188.9756 -47.8823 L188.9756 -44.2416 L193.4912 -44.2416 L193.4912 -47.8823 L194.4912 -47.8823 L194.4912 -39.3198 Z" /><ns0:path style="fill:none; stroke:black;" d="M176.7872 12.0269 L176.916 12.51 L176.5658 12.8668" /><ns0:path style="fill:black; stroke:none;" d="M-87.8792 89.1553 L-88.8792 89.1553 L-88.8792 85.124 L-93.3948 85.124 L-93.3948 89.1553 L-94.3948 89.1553 L-94.3948 80.5928 L-93.3948 80.5928 L-93.3948 84.2334 L-88.8792 84.2334 L-88.8792 80.5928 L-87.8792 80.5928 L-87.8792 89.1553 Z" /><ns0:path style="fill:black; stroke:none;" d="M99.7228 20.6172 L98.7228 20.6172 L98.7228 16.586 L94.2072 16.586 L94.2072 20.6172 L93.2072 20.6172 L93.2072 12.0547 L94.2072 12.0547 L94.2072 15.6954 L98.7228 15.6954 L98.7228 12.0547 L99.7228 12.0547 L99.7228 20.6172 Z" /><ns0:path style="fill:black; stroke:none;" d="M81.4468 -67.5048 L80.4468 -67.5048 L80.4468 -71.536 L75.9312 -71.536 L75.9312 -67.5048 L74.9312 -67.5048 L74.9312 -76.0673 L75.9312 -76.0673 L75.9312 -72.4266 L80.4468 -72.4266 L80.4468 -76.0673 L81.4468 -76.0673 L81.4468 -67.5048 Z" /></ns0:g></ns0:g></ns0:svg></ns0:svg></ns0:svg></ns0:svg></g></svg>