<svg width="634" viewBox="0 0 634 340" style="fill-opacity:1; color-rendering:auto; color-interpolation:auto; text-rendering:auto; stroke:black; stroke-linecap:square; stroke-miterlimit:10; shape-rendering:auto; stroke-opacity:1; fill:black; stroke-dasharray:none; font-weight:normal; stroke-width:1; font-family:'Open Sans'; font-style:normal; stroke-linejoin:miter; font-size:12; stroke-dashoffset:0; image-rendering:auto;" height="340" class="cas-substance-image" xmlns:xlink="http://www.w3.org/1999/xlink" xmlns="http://www.w3.org/2000/svg"><svg class="cas-substance-single-component"><rect y="0" x="0" width="634" stroke="none" ry="7" rx="7" height="340" fill="white" class="cas-substance-group"/><svg y="0" x="0" width="634" viewBox="0 0 634 340" style="fill:black;" height="340" class="cas-substance-single-component-image"><svg><g><g transform="translate(323,170)" style="text-rendering:geometricPrecision; color-rendering:optimizeQuality; color-interpolation:linearRGB; stroke-linecap:butt; image-rendering:optimizeQuality;"><path style="stroke:none;" d="M142.5977 -96.0795 L141.4523 -95.8571 L141.4523 -95.8571 L141.5613 -94.8596 L141.5613 -94.8596 L142.8703 -95.1137 L142.8703 -95.1137 L142.5977 -96.0795 ZM143.4155 -93.1821 L141.7793 -92.8645 L141.7793 -92.8645 L141.8882 -91.8669 L141.8882 -91.8669 L143.6881 -92.2163 L143.4155 -93.1821 ZM144.2333 -90.2847 L142.1062 -89.8718 L142.2152 -88.8742 L144.5059 -89.3189 L144.5059 -89.3189 L144.2333 -90.2847 ZM145.0511 -87.3874 L142.4332 -86.8791 L142.5422 -85.8816 L142.5422 -85.8816 L145.3237 -86.4216 L145.3237 -86.4216 L145.0511 -87.3874 ZM145.8689 -84.49 L142.7602 -83.8865 L142.7602 -83.8865 L142.8692 -82.8889 L142.8692 -82.8889 L146.1415 -83.5242 L145.8689 -84.49 ZM146.6867 -81.5926 L143.0872 -80.8938 L143.0872 -80.8938 L143.1962 -79.8963 L143.1962 -79.8963 L146.9593 -80.6268 L146.9593 -80.6268 L146.6867 -81.5926 ZM147.5045 -78.6952 L143.4141 -77.9012 L143.4141 -77.9012 L143.5231 -76.9036 L143.5231 -76.9036 L147.7771 -77.7294 L147.7771 -77.7294 L147.5045 -78.6952 ZM148.3223 -75.7979 L143.7411 -74.9085 L143.7411 -74.9085 L143.8501 -73.9109 L143.8501 -73.9109 L148.5949 -74.8321 L148.5949 -74.8321 L148.3223 -75.7979 ZM149.1401 -72.9005 L144.0681 -71.9158 L144.0681 -71.9158 L144.1771 -70.9183 L144.1771 -70.9183 L149.4127 -71.9347 L149.4127 -71.9347 L149.1401 -72.9005 ZM149.9579 -70.0031 L144.3951 -68.9232 L144.3951 -68.9232 L144.5041 -67.9256 L144.5041 -67.9256 L150.2305 -69.0373 L150.2305 -69.0373 L149.9579 -70.0031 Z"/><path style="stroke:none;" d="M198.0959 -90.88 L199.0741 -91.088 L207.7565 -62.2647 L201.8876 -61.0173 Z"/><path style="stroke:none;" d="M52.5021 -96.0041 L51.3401 -95.9022 L51.3401 -95.9022 L51.3443 -94.8988 L51.3443 -94.8988 L52.6723 -95.0152 L52.6723 -95.0152 L52.5021 -96.0041 ZM53.0128 -93.0374 L51.3526 -92.8919 L51.3526 -92.8919 L51.3568 -91.8884 L51.3568 -91.8884 L53.183 -92.0485 L53.183 -92.0485 L53.0128 -93.0374 ZM53.5234 -90.0707 L51.3652 -89.8815 L51.3652 -89.8815 L51.3694 -88.878 L51.3694 -88.878 L53.6937 -89.0818 L53.6937 -89.0818 L53.5234 -90.0707 ZM54.0341 -87.104 L51.3777 -86.8711 L51.3777 -86.8711 L51.3819 -85.8677 L51.3819 -85.8677 L54.2044 -86.1151 L54.2044 -86.1151 L54.0341 -87.104 ZM54.5448 -84.1373 L51.3903 -83.8607 L51.3903 -83.8607 L51.3945 -82.8573 L51.3945 -82.8573 L54.715 -83.1484 L54.715 -83.1484 L54.5448 -84.1373 ZM55.0555 -81.1706 L51.4029 -80.8504 L51.4029 -80.8504 L51.407 -79.8469 L51.407 -79.8469 L55.2257 -80.1817 L55.2257 -80.1817 L55.0555 -81.1706 ZM55.5662 -78.2039 L51.4154 -77.84 L51.4154 -77.84 L51.4196 -76.8365 L51.4196 -76.8365 L55.7364 -77.215 L55.7364 -77.215 L55.5662 -78.2039 ZM56.0769 -75.2372 L51.428 -74.8296 L51.428 -74.8296 L51.4321 -73.8262 L51.4321 -73.8262 L56.2471 -74.2483 L56.2471 -74.2483 L56.0769 -75.2372 ZM56.5876 -72.2705 L51.4405 -71.8193 L51.4405 -71.8193 L51.4447 -70.8158 L51.4447 -70.8158 L56.7578 -71.2815 L56.7578 -71.2815 L56.5876 -72.2705 ZM57.0982 -69.3037 L51.4531 -68.8089 L51.4531 -68.8089 L51.4573 -67.8054 L51.4573 -67.8054 L57.2685 -68.3148 L57.2685 -68.3148 L57.0982 -69.3037 Z"/><path style="stroke:none;" d="M278.2788 -106.5097 L278.3833 -107.5043 L308.4795 -106.8556 L307.8525 -100.8884 Z"/><path style="stroke:none;" d="M-10.1972 -97.662 L-10.1972 -96.24 L-10.1972 -96.24 L-9.1972 -96.3439 L-9.1972 -96.3439 L-9.1972 -97.5581 L-9.1972 -97.5581 L-10.1972 -97.662 ZM-13.1972 -97.9737 L-13.1972 -95.9283 L-13.1972 -95.9283 L-12.1972 -96.0322 L-12.1972 -96.0322 L-12.1972 -97.8698 L-12.1972 -97.8698 L-13.1972 -97.9737 ZM-16.1973 -98.2854 L-16.1973 -95.6166 L-16.1973 -95.6166 L-15.1973 -95.7205 L-15.1973 -95.7205 L-15.1973 -98.1815 L-15.1973 -98.1815 L-16.1973 -98.2854 ZM-19.1973 -98.5971 L-19.1973 -95.3049 L-19.1973 -95.3049 L-18.1973 -95.4088 L-18.1973 -95.4088 L-18.1973 -98.4932 L-18.1973 -98.4932 L-19.1973 -98.5971 ZM-22.1973 -98.9088 L-22.1973 -94.9932 L-22.1973 -94.9932 L-21.1973 -95.0971 L-21.1973 -95.0971 L-21.1973 -98.8049 L-21.1973 -98.8049 L-22.1973 -98.9088 ZM-25.1973 -99.2205 L-25.1973 -94.6815 L-25.1973 -94.6815 L-24.1973 -94.7854 L-24.1973 -94.7854 L-24.1973 -99.1166 L-24.1973 -99.1166 L-25.1973 -99.2205 ZM-28.1973 -99.5322 L-28.1973 -94.3698 L-28.1973 -94.3698 L-27.1973 -94.4737 L-27.1973 -94.4737 L-27.1973 -99.4283 L-27.1973 -99.4283 L-28.1973 -99.5322 ZM-31.1973 -99.8439 L-31.1973 -94.0581 L-31.1973 -94.0581 L-30.1973 -94.162 L-30.1973 -94.162 L-30.1973 -99.74 L-30.1973 -99.74 L-31.1973 -99.8439 Z"/><path style="stroke:none;" d="M-52.733 -70.718 L-53.599 -71.218 L-44.0248 -92.8027 L-38.8286 -89.8029 Z"/><path style="stroke:none;" d="M-36.1348 -45.699 L-37.1348 -45.5951 L-37.1348 -45.5951 L-37.1348 -44.3809 L-37.1348 -44.3809 L-36.1348 -44.277 L-36.1348 -44.277 L-36.1348 -45.699 ZM-33.1348 -46.0107 L-34.1348 -45.9068 L-34.1348 -45.9068 L-34.1348 -44.0692 L-34.1348 -44.0692 L-33.1348 -43.9653 L-33.1348 -43.9653 L-33.1348 -46.0107 ZM-30.1348 -46.3224 L-31.1348 -46.2185 L-31.1348 -46.2185 L-31.1348 -43.7575 L-31.1348 -43.7575 L-30.1348 -43.6536 L-30.1348 -43.6536 L-30.1348 -46.3224 ZM-27.1348 -46.6341 L-28.1348 -46.5302 L-28.1348 -46.5302 L-28.1348 -43.4458 L-28.1348 -43.4458 L-27.1348 -43.3419 L-27.1348 -43.3419 L-27.1348 -46.6341 ZM-24.1348 -46.9458 L-25.1348 -46.8419 L-25.1348 -46.8419 L-25.1348 -43.1341 L-25.1348 -43.1341 L-24.1348 -43.0302 L-24.1348 -43.0302 L-24.1348 -46.9458 ZM-21.1348 -47.2575 L-22.1348 -47.1536 L-22.1348 -47.1536 L-22.1348 -42.8224 L-22.1348 -42.8224 L-21.1348 -42.7185 L-21.1348 -42.7185 L-21.1348 -47.2575 ZM-18.1348 -47.5692 L-19.1348 -47.4653 L-19.1348 -47.4653 L-19.1348 -42.5107 L-19.1348 -42.5107 L-18.1348 -42.4068 L-18.1348 -42.4068 L-18.1348 -47.5692 ZM-15.1348 -47.8809 L-16.1348 -47.777 L-16.1348 -47.777 L-16.1348 -42.199 L-16.1348 -42.199 L-15.1348 -42.0951 L-15.1348 -42.0951 L-15.1348 -47.8809 Z"/><line y2="-65.3323" y1="-44.988" x2="-139.9121" x1="-128.166" style="fill:none;"/><path style="stroke:none;" d="M-98.166 -45.488 L-98.166 -44.488 L-126.8669 -41.738 L-130.3311 -47.738 Z"/><path style="stroke:none;" d="M-53.599 -18.758 L-52.733 -19.258 L-38.8745 -0.2527 L-44.0708 2.7471 Z"/><path style="stroke:none;" d="M-83.599 -19.258 L-82.733 -18.758 L-92.2646 2.753 L-97.4609 -0.2468 Z"/><path style="stroke:none;" d="M-128.166 7.475 L-128.166 6.475 L-104.1035 3.975 L-104.1035 9.975 Z"/><path style="stroke:none;" d="M-142.3221 33.2684 L-143.3168 33.8419 L-142.9092 34.7616 L-141.7293 34.0812 L-142.3221 33.2684 ZM-140.5437 35.7069 L-142.0942 36.601 L-141.6866 37.5207 L-139.9509 36.5198 L-140.5437 35.7069 ZM-138.7653 38.1455 L-140.8716 39.3601 L-140.4641 40.2798 L-138.1725 38.9584 L-138.7653 38.1455 ZM-136.9869 40.5841 L-139.649 42.1192 L-139.649 42.1192 L-139.2415 43.0389 L-136.3941 41.3969 L-136.3941 41.3969 L-136.9869 40.5841 ZM-135.2085 43.0227 L-138.4264 44.8783 L-138.0189 45.798 L-134.6157 43.8355 L-135.2085 43.0227 ZM-133.4301 45.4612 L-137.2038 47.6374 L-137.2038 47.6374 L-136.7963 48.5571 L-132.8373 46.2741 L-133.4301 45.4612 ZM-131.6517 47.8998 L-135.9812 50.3965 L-135.5737 51.3162 L-131.0589 48.7127 L-131.0589 48.7127 L-131.6517 47.8998 ZM-129.8733 50.3384 L-134.7586 53.1556 L-134.7586 53.1556 L-134.3511 54.0753 L-129.2805 51.1512 L-129.8733 50.3384 Z"/><path style="stroke:none;" d="M-122.012 63.7514 L-127.0735 66.6702 L-127.0735 66.6702 L-126.4811 67.4833 L-121.6041 64.6708 L-121.6041 64.6708 L-122.012 63.7514 ZM-120.7882 66.5098 L-125.2963 69.1095 L-125.2963 69.1095 L-124.7039 69.9226 L-124.7039 69.9226 L-120.3802 67.4292 L-120.3802 67.4292 L-120.7882 66.5098 ZM-119.5643 69.2681 L-123.5192 71.5488 L-123.5192 71.5488 L-122.9268 72.3618 L-122.9268 72.3618 L-119.1564 70.1876 L-119.5643 69.2681 ZM-118.3405 72.0265 L-121.742 73.988 L-121.742 73.988 L-121.1496 74.8011 L-117.9325 72.946 L-117.9325 72.946 L-118.3405 72.0265 ZM-117.1167 74.7849 L-119.9649 76.4273 L-119.9649 76.4273 L-119.3725 77.2404 L-116.7087 75.7043 L-116.7087 75.7043 L-117.1167 74.7849 ZM-115.8928 77.5432 L-118.1877 78.8666 L-118.1877 78.8666 L-117.5953 79.6797 L-117.5953 79.6797 L-115.4849 78.4627 L-115.4849 78.4627 L-115.8928 77.5432 ZM-114.669 80.3016 L-116.4105 81.3059 L-116.4105 81.3059 L-115.8182 82.119 L-114.261 81.2211 L-114.261 81.2211 L-114.669 80.3016 ZM-113.4451 83.06 L-114.6334 83.7452 L-114.6334 83.7452 L-114.041 84.5583 L-113.0372 83.9794 L-113.0372 83.9794 L-113.4451 83.06 Z"/><path style="stroke:none;" d="M-173.599 32.705 L-172.733 33.205 L-182.2644 54.7134 L-187.4605 51.7133 Z"/><path style="stroke:none;" d="M-218.166 59.435 L-218.166 58.435 L-194.1035 55.935 L-194.1035 61.935 Z"/><line y2="-44.988" y1="-44.988" x2="-212.2285" x1="-188.166" style="fill:none;"/><path style="stroke:none;" d="M-172.733 -19.258 L-173.599 -18.758 L-191.6301 -45.488 L-184.7019 -45.488 Z"/><path style="stroke:none;" d="M-190.1973 6.264 L-190.1973 7.686 L-189.1973 7.5821 L-189.1973 6.3679 L-190.1973 6.264 ZM-193.1973 5.9523 L-193.1973 7.9977 L-192.1973 7.8938 L-192.1973 6.0562 L-193.1973 5.9523 ZM-196.1973 5.6406 L-196.1973 8.3094 L-195.1973 8.2055 L-195.1973 5.7445 L-196.1973 5.6406 ZM-199.1973 5.3289 L-199.1973 8.6211 L-198.1973 8.5172 L-198.1973 5.4328 L-199.1973 5.3289 ZM-202.1973 5.0172 L-202.1973 8.9328 L-201.1973 8.8289 L-201.1973 5.1211 L-202.1973 5.0172 ZM-205.1973 4.7055 L-205.1973 9.2445 L-204.1973 9.1406 L-204.1973 4.8094 L-205.1973 4.7055 ZM-208.1973 4.3938 L-208.1973 9.5562 L-207.1973 9.4523 L-207.1973 4.4977 L-208.1973 4.3938 ZM-211.1973 4.0821 L-211.1973 9.8679 L-210.1973 9.764 L-210.1973 4.186 L-211.1973 4.0821 Z"/><path style="stroke:none;" d="M-128.166 110.398 L-128.166 111.398 L-152.2285 113.898 L-152.2285 107.898 Z"/><path style="stroke:none;" d="M-232.3214 85.2294 L-233.3163 85.8031 L-233.3163 85.8031 L-232.9088 86.7228 L-232.9088 86.7228 L-231.7287 86.0423 L-231.7287 86.0423 L-232.3214 85.2294 ZM-230.5432 87.668 L-232.0938 88.5622 L-232.0938 88.5622 L-231.6864 89.4819 L-231.6864 89.4819 L-229.9505 88.4808 L-230.5432 87.668 ZM-228.765 90.1066 L-230.8714 91.3212 L-230.8714 91.3212 L-230.4639 92.2409 L-230.4639 92.2409 L-228.1723 90.9194 L-228.1723 90.9194 L-228.765 90.1066 ZM-226.9868 92.5452 L-229.6489 94.0803 L-229.6489 94.0803 L-229.2414 95 L-229.2414 95 L-226.3941 93.358 L-226.9868 92.5452 ZM-225.2086 94.9838 L-228.4265 96.8394 L-228.019 97.7591 L-224.6159 95.7966 L-225.2086 94.9838 ZM-223.4305 97.4224 L-227.204 99.5985 L-227.204 99.5985 L-226.7965 100.5182 L-222.8377 98.2352 L-222.8377 98.2352 L-223.4305 97.4224 ZM-221.6523 99.861 L-225.9816 102.3575 L-225.9816 102.3575 L-225.5741 103.2772 L-225.5741 103.2772 L-221.0595 100.6738 L-221.0595 100.6738 L-221.6523 99.861 ZM-219.8741 102.2996 L-224.7591 105.1166 L-224.7591 105.1166 L-224.3516 106.0363 L-224.3516 106.0363 L-219.2813 103.1124 L-219.2813 103.1124 L-219.8741 102.2996 Z"/><line y2="131.1504" y1="110.898" x2="-26.4729" x1="-38.166" style="fill:none;"/><path style="stroke:none;" d="M-66.166 110.2313 L-67.166 110.3147 L-67.166 110.3147 L-67.166 111.4813 L-67.166 111.4813 L-66.166 111.5647 L-66.166 111.5647 L-66.166 110.2313 ZM-63.166 109.9813 L-64.166 110.0647 L-64.166 110.0647 L-64.166 111.7313 L-64.166 111.7313 L-63.166 111.8147 L-63.166 111.8147 L-63.166 109.9813 ZM-60.166 109.7313 L-61.166 109.8147 L-61.166 109.8147 L-61.166 111.9813 L-61.166 111.9813 L-60.166 112.0647 L-60.166 112.0647 L-60.166 109.7313 ZM-57.166 109.4813 L-58.166 109.5647 L-58.166 109.5647 L-58.166 112.2313 L-58.166 112.2313 L-57.166 112.3147 L-57.166 112.3147 L-57.166 109.4813 ZM-54.166 109.2313 L-55.166 109.3147 L-55.166 109.3147 L-55.166 112.4813 L-55.166 112.4813 L-54.166 112.5647 L-54.166 112.5647 L-54.166 109.2313 ZM-51.166 108.9813 L-52.166 109.0647 L-52.166 109.0647 L-52.166 112.7313 L-52.166 112.7313 L-51.166 112.8147 L-51.166 112.8147 L-51.166 108.9813 ZM-48.166 108.7313 L-49.166 108.8147 L-49.166 108.8147 L-49.166 112.9813 L-49.166 112.9813 L-48.166 113.0647 L-48.166 113.0647 L-48.166 108.7313 ZM-45.166 108.4813 L-46.166 108.5647 L-46.166 108.5647 L-46.166 113.2313 L-46.166 113.2313 L-45.166 113.3147 L-45.166 108.4813 ZM-42.166 108.2313 L-43.166 108.3147 L-43.166 108.3147 L-43.166 113.4813 L-43.166 113.4813 L-42.166 113.5647 L-42.166 108.2313 ZM-39.166 107.9813 L-40.166 108.0647 L-40.166 108.0647 L-40.166 113.7313 L-40.166 113.7313 L-39.166 113.8147 L-39.166 107.9813 Z"/><path style="stroke:none;" d="M-114.0119 137.1942 L-114.6046 138.007 L-114.6046 138.007 L-113.4242 138.6878 L-113.4242 138.6878 L-113.0166 137.7681 L-113.0166 137.7681 L-114.0119 137.1942 ZM-115.7902 139.6328 L-116.383 140.4456 L-114.6469 141.4468 L-114.6469 141.4468 L-114.2393 140.5271 L-114.2393 140.5271 L-115.7902 139.6328 ZM-117.5685 142.0714 L-118.1613 142.8843 L-118.1613 142.8843 L-115.8695 144.2059 L-115.8695 144.2059 L-115.462 143.2862 L-115.462 143.2862 L-117.5685 142.0714 ZM-119.3469 144.51 L-119.9396 145.3229 L-119.9396 145.3229 L-117.0922 146.9649 L-117.0922 146.9649 L-116.6847 146.0452 L-116.6847 146.0452 L-119.3469 144.51 ZM-121.1252 146.9486 L-121.718 147.7615 L-121.718 147.7615 L-118.3149 149.724 L-118.3149 149.724 L-117.9073 148.8043 L-117.9073 148.8043 L-121.1252 146.9486 ZM-122.9035 149.3873 L-123.4963 150.2001 L-123.4963 150.2001 L-119.5376 152.483 L-119.5376 152.483 L-119.13 151.5633 L-119.13 151.5633 L-122.9035 149.3873 ZM-124.6819 151.8259 L-125.2746 152.6387 L-125.2746 152.6387 L-120.7602 155.2421 L-120.7602 155.2421 L-120.3527 154.3224 L-120.3527 154.3224 L-124.6819 151.8259 ZM-126.4602 154.2645 L-127.053 155.0774 L-127.053 155.0774 L-121.9829 158.0011 L-121.9829 158.0011 L-121.5754 157.0814 L-121.5754 157.0814 L-126.4602 154.2645 Z"/><path style="stroke:none;" d="M-263.599 84.665 L-262.733 85.165 L-272.2646 106.676 L-277.4609 103.6762 Z"/><path style="stroke:none;" d="M-83.599 137.128 L-82.733 136.628 L-68.8749 155.6304 L-74.071 158.6304 Z"/><path style="stroke:none;" d="M-280.1972 58.224 L-280.1972 59.646 L-279.1972 59.5421 L-279.1972 59.5421 L-279.1972 58.3279 L-280.1972 58.224 ZM-283.1972 57.9123 L-283.1972 59.9577 L-282.1972 59.8538 L-282.1972 58.0162 L-283.1972 57.9123 ZM-286.1972 57.6006 L-286.1972 60.2694 L-286.1972 60.2694 L-285.1972 60.1655 L-285.1972 57.7045 L-286.1972 57.6006 ZM-289.1972 57.2889 L-289.1972 60.5811 L-288.1972 60.4772 L-288.1972 57.3928 L-289.1972 57.2889 ZM-292.1972 56.9772 L-292.1972 60.8928 L-291.1972 60.7889 L-291.1972 57.0811 L-292.1972 56.9772 ZM-295.1972 56.6655 L-295.1972 61.2045 L-294.1972 61.1006 L-294.1972 61.1006 L-294.1972 56.7694 L-294.1972 56.7694 L-295.1972 56.6655 ZM-298.1972 56.3538 L-298.1972 61.5162 L-297.1972 61.4123 L-297.1972 56.4577 L-298.1972 56.3538 ZM-301.1972 56.0421 L-301.1972 61.8279 L-300.1972 61.724 L-300.1972 56.146 L-301.1972 56.0421 Z"/><line y2="-103.188" y1="-96.951" x2="171.18" x1="141.834" style="fill:none;"/><line y2="-122.931" y1="-96.951" x2="126.834" x1="141.834" style="fill:none;"/><line y2="-70.968" y1="-96.951" x2="126.834" x1="141.834" style="fill:none;"/><line y2="-133.023" y1="-103.188" x2="174.315" x1="171.18" style="fill:none;"/><line y2="-90.984" y1="-103.188" x2="198.585" x1="171.18" style="fill:none;"/><line y2="-122.931" y1="-122.931" x2="96.834" x1="126.834" style="fill:none;"/><line y2="-145.224" y1="-122.931" x2="146.907" x1="126.834" style="fill:none;"/><line y2="-70.968" y1="-70.968" x2="96.834" x1="126.834" style="fill:none;"/><line y2="-145.224" y1="-133.023" x2="146.907" x1="174.315" style="fill:none;"/><line y2="-138.0072" y1="-133.023" x2="197.7642" x1="174.315" style="fill:none;"/><line y2="-113.28" y1="-90.984" x2="218.658" x1="198.585" style="fill:none;"/><line y2="-96.948" y1="-122.931" x2="81.834" x1="96.834" style="fill:none;"/><line y2="-148.911" y1="-122.931" x2="81.834" x1="96.834" style="fill:none;"/><line y2="-96.948" y1="-70.968" x2="81.834" x1="96.834" style="fill:none;"/><path style="stroke:none;" d="M219.091 -113.53 L218.225 -113.03 L204.3138 -132.1243 L209.5099 -135.1243 Z"/><line y2="-85.872" y1="-113.28" x2="230.862" x1="218.658" style="fill:none;"/><line y2="-131.7757" y1="-113.28" x2="232.0966" x1="218.658" style="fill:none;"/><line y2="-96.948" y1="-96.948" x2="51.834" x1="81.834" style="fill:none;"/><line y2="-148.911" y1="-148.911" x2="51.834" x1="81.834" style="fill:none;"/><line y2="-82.737" y1="-85.872" x2="260.697" x1="230.862" style="fill:none;"/><line y2="-134.415" y1="-136.9888" x2="266.127" x1="241.6326" style="fill:none;"/><line y2="-122.931" y1="-96.948" x2="36.834" x1="51.834" style="fill:none;"/><line y2="-70.968" y1="-96.948" x2="36.834" x1="51.834" style="fill:none;"/><line y2="-122.931" y1="-148.911" x2="36.834" x1="51.834" style="fill:none;"/><line y2="-107.007" y1="-82.737" x2="278.331" x1="260.697" style="fill:none;"/><line y2="-107.007" y1="-134.415" x2="278.331" x1="266.127" style="fill:none;"/><line y2="-122.931" y1="-122.931" x2="6.834" x1="36.834" style="fill:none;"/><line y2="-70.968" y1="-70.968" x2="6.834" x1="36.834" style="fill:none;"/><line y2="-96.951" y1="-122.931" x2="-8.166" x1="6.834" style="fill:none;"/><line y2="-96.951" y1="-70.968" x2="-8.166" x1="6.834" style="fill:none;"/><line y2="-70.968" y1="-70.968" x2="-77.2285" x1="-53.166" style="fill:none;"/><line y2="-44.988" y1="-70.968" x2="-38.166" x1="-53.166" style="fill:none;"/><line y2="-44.988" y1="-65.32" x2="-98.166" x1="-86.427" style="fill:none;"/><line y2="-19.008" y1="-44.988" x2="-53.166" x1="-38.166" style="fill:none;"/><line y2="-19.008" y1="-44.988" x2="-83.166" x1="-98.166" style="fill:none;"/><line y2="-19.008" y1="-19.008" x2="-83.166" x1="-53.166" style="fill:none;"/><line y2="32.955" y1="6.975" x2="-143.166" x1="-128.166" style="fill:none;"/><line y2="-13.372" y1="6.975" x2="-139.9124" x1="-128.166" style="fill:none;"/><line y2="32.955" y1="32.955" x2="-173.166" x1="-143.166" style="fill:none;"/><line y2="-19.008" y1="-19.008" x2="-173.166" x1="-149.1035" style="fill:none;"/><line y2="6.975" y1="32.955" x2="-188.166" x1="-173.166" style="fill:none;"/><line y2="6.975" y1="-19.008" x2="-188.166" x1="-173.166" style="fill:none;"/><line y2="84.915" y1="84.915" x2="-89.1035" x1="-113.166" style="fill:none;"/><line y2="110.898" y1="84.915" x2="-128.166" x1="-113.166" style="fill:none;"/><line y2="110.898" y1="90.5509" x2="-68.166" x1="-79.9124" style="fill:none;"/><line y2="136.878" y1="110.898" x2="-113.166" x1="-128.166" style="fill:none;"/><line y2="136.878" y1="110.898" x2="-83.166" x1="-68.166" style="fill:none;"/><line y2="136.878" y1="136.878" x2="-83.166" x1="-113.166" style="fill:none;"/><line y2="84.915" y1="58.935" x2="-233.166" x1="-218.166" style="fill:none;"/><line y2="38.5907" y1="58.935" x2="-229.9121" x1="-218.166" style="fill:none;"/><line y2="84.915" y1="84.915" x2="-263.166" x1="-233.166" style="fill:none;"/><line y2="32.955" y1="32.955" x2="-263.166" x1="-239.1035" style="fill:none;"/><line y2="58.935" y1="84.915" x2="-278.166" x1="-263.166" style="fill:none;"/><line y2="58.935" y1="32.955" x2="-278.166" x1="-263.166" style="fill:none;"/><path style="stroke:none;" d="M170.7072 -103.0253 L171.6528 -103.3507 L181.6139 -82.0938 L175.9406 -80.1409 Z"/><path style="stroke:none;" d="M127.3279 -123.0092 L126.3401 -122.8528 L120.1499 -145.9612 L126.076 -146.8996 Z"/><path style="stroke:none;" d="M174.8123 -132.9708 L173.8177 -133.0753 L173.8207 -157.0262 L179.7878 -156.3992 Z"/><path style="stroke:none;" d="M99.9364 -145.7572 L99.7795 -144.7638 L99.7795 -144.7638 L105.2011 -143.317 L105.2011 -143.317 L105.5619 -144.256 L105.5619 -144.256 L99.9364 -145.7572 ZM99.4656 -142.777 L99.3087 -141.7836 L99.3087 -141.7836 L104.1185 -140.5 L104.1185 -140.5 L104.4794 -141.439 L104.4794 -141.439 L99.4656 -142.777 ZM98.9949 -139.7968 L98.8379 -138.8034 L98.8379 -138.8034 L103.036 -137.6831 L103.036 -137.6831 L103.3968 -138.6221 L103.3968 -138.6221 L98.9949 -139.7968 ZM98.5241 -136.8166 L98.3672 -135.8232 L98.3672 -135.8232 L101.9534 -134.8662 L101.9534 -134.8662 L102.3143 -135.8052 L102.3143 -135.8052 L98.5241 -136.8166 ZM98.0533 -133.8364 L97.8964 -132.843 L97.8964 -132.843 L100.8709 -132.0493 L100.8709 -132.0493 L101.2317 -132.9882 L101.2317 -132.9882 L98.0533 -133.8364 ZM97.5825 -130.8562 L97.4256 -129.8628 L97.4256 -129.8628 L99.7883 -129.2323 L99.7883 -129.2323 L100.1491 -130.1713 L100.1491 -130.1713 L97.5825 -130.8562 ZM97.1118 -127.876 L96.9548 -126.8826 L96.9548 -126.8826 L98.7057 -126.4154 L98.7057 -126.4154 L99.0666 -127.3544 L99.0666 -127.3544 L97.1118 -127.876 ZM96.641 -124.8958 L96.484 -123.9024 L96.484 -123.9024 L97.6232 -123.5984 L97.6232 -123.5984 L97.984 -124.5374 L97.984 -124.5374 L96.641 -124.8958 Z"/><path style="stroke:none;" d="M81.351 -97.0774 L82.317 -96.8186 L78.666 -73.5327 L72.8704 -75.0855 Z"/><path style="stroke:none;" d="M37.267 -123.181 L36.401 -122.681 L22.6356 -141.5227 L27.8318 -144.5227 Z"/></g><g transform="translate(323,170)" style="fill:rgb(230,0,0); text-rendering:geometricPrecision; color-rendering:optimizeQuality; image-rendering:optimizeQuality; font-family:'Open Sans'; stroke:rgb(230,0,0); color-interpolation:linearRGB;"><path style="stroke:none;" d="M-34.2285 -97.0213 Q-34.2285 -94.9588 -35.2676 -93.7791 Q-36.3066 -92.5994 -38.1504 -92.5994 Q-40.041 -92.5994 -41.0723 -93.7635 Q-42.1035 -94.9276 -42.1035 -97.0369 Q-42.1035 -99.1307 -41.0723 -100.2791 Q-40.041 -101.4276 -38.1504 -101.4276 Q-36.291 -101.4276 -35.2598 -100.2557 Q-34.2285 -99.0838 -34.2285 -97.0213 ZM-41.0566 -97.0213 Q-41.0566 -95.2869 -40.3144 -94.3807 Q-39.5723 -93.4744 -38.1504 -93.4744 Q-36.7285 -93.4744 -36.0019 -94.3729 Q-35.2754 -95.2713 -35.2754 -97.0213 Q-35.2754 -98.7557 -36.0019 -99.6463 Q-36.7285 -100.5369 -38.1504 -100.5369 Q-39.5723 -100.5369 -40.3144 -99.6385 Q-41.0566 -98.7401 -41.0566 -97.0213 Z"/><path style="stroke:none;" d="M-4.2285 -45.0583 Q-4.2285 -42.9958 -5.2676 -41.8161 Q-6.3066 -40.6364 -8.1504 -40.6364 Q-10.041 -40.6364 -11.0722 -41.8005 Q-12.1035 -42.9646 -12.1035 -45.0739 Q-12.1035 -47.1677 -11.0722 -48.3161 Q-10.041 -49.4646 -8.1504 -49.4646 Q-6.291 -49.4646 -5.2597 -48.2927 Q-4.2285 -47.1208 -4.2285 -45.0583 ZM-11.0566 -45.0583 Q-11.0566 -43.3239 -10.3144 -42.4177 Q-9.5722 -41.5114 -8.1504 -41.5114 Q-6.7285 -41.5114 -6.0019 -42.4099 Q-5.2754 -43.3083 -5.2754 -45.0583 Q-5.2754 -46.7927 -6.0019 -47.6833 Q-6.7285 -48.5739 -8.1504 -48.5739 Q-9.5722 -48.5739 -10.3144 -47.6755 Q-11.0566 -46.7771 -11.0566 -45.0583 Z"/><path style="stroke:none;" d="M3.2871 -40.7614 L2.2871 -40.7614 L2.2871 -44.7927 L-2.2285 -44.7927 L-2.2285 -40.7614 L-3.2285 -40.7614 L-3.2285 -49.3239 L-2.2285 -49.3239 L-2.2285 -45.6833 L2.2871 -45.6833 L2.2871 -49.3239 L3.2871 -49.3239 L3.2871 -40.7614 Z"/><path style="stroke:none;" d="M-139.2285 -71.0383 Q-139.2285 -68.9758 -140.2676 -67.7961 Q-141.3066 -66.6164 -143.1504 -66.6164 Q-145.041 -66.6164 -146.0723 -67.7805 Q-147.1035 -68.9446 -147.1035 -71.0539 Q-147.1035 -73.1477 -146.0723 -74.2961 Q-145.041 -75.4446 -143.1504 -75.4446 Q-141.291 -75.4446 -140.2598 -74.2727 Q-139.2285 -73.1008 -139.2285 -71.0383 ZM-146.0566 -71.0383 Q-146.0566 -69.3039 -145.3144 -68.3977 Q-144.5723 -67.4914 -143.1504 -67.4914 Q-141.7285 -67.4914 -141.0019 -68.3899 Q-140.2754 -69.2883 -140.2754 -71.0383 Q-140.2754 -72.7727 -141.0019 -73.6633 Q-141.7285 -74.5539 -143.1504 -74.5539 Q-144.5723 -74.5539 -145.3144 -73.6555 Q-146.0566 -72.7571 -146.0566 -71.0383 Z"/><path style="stroke:none;" d="M-148.1035 -66.7414 L-149.1035 -66.7414 L-149.1035 -70.7727 L-153.6191 -70.7727 L-153.6191 -66.7414 L-154.6191 -66.7414 L-154.6191 -75.3039 L-153.6191 -75.3039 L-153.6191 -71.6633 L-149.1035 -71.6633 L-149.1035 -75.3039 L-148.1035 -75.3039 L-148.1035 -66.7414 Z"/><path style="stroke:none;" d="M-34.2285 6.9047 Q-34.2285 8.9672 -35.2676 10.1469 Q-36.3066 11.3266 -38.1504 11.3266 Q-40.041 11.3266 -41.0723 10.1625 Q-42.1035 8.9984 -42.1035 6.8891 Q-42.1035 4.7953 -41.0723 3.6469 Q-40.041 2.4984 -38.1504 2.4984 Q-36.291 2.4984 -35.2598 3.6703 Q-34.2285 4.8422 -34.2285 6.9047 ZM-41.0566 6.9047 Q-41.0566 8.6391 -40.3144 9.5453 Q-39.5723 10.4516 -38.1504 10.4516 Q-36.7285 10.4516 -36.0019 9.5531 Q-35.2754 8.6547 -35.2754 6.9047 Q-35.2754 5.1703 -36.0019 4.2797 Q-36.7285 3.3891 -38.1504 3.3891 Q-39.5723 3.3891 -40.3144 4.2875 Q-41.0566 5.1859 -41.0566 6.9047 Z"/><path style="stroke:none;" d="M-26.7129 11.2016 L-27.7129 11.2016 L-27.7129 7.1703 L-32.2285 7.1703 L-32.2285 11.2016 L-33.2285 11.2016 L-33.2285 2.6391 L-32.2285 2.6391 L-32.2285 6.2797 L-27.7129 6.2797 L-27.7129 2.6391 L-26.7129 2.6391 L-26.7129 11.2016 Z"/><path style="stroke:none;" d="M-94.2285 6.9047 Q-94.2285 8.9672 -95.2676 10.1469 Q-96.3066 11.3266 -98.1504 11.3266 Q-100.041 11.3266 -101.0723 10.1625 Q-102.1035 8.9984 -102.1035 6.8891 Q-102.1035 4.7953 -101.0723 3.6469 Q-100.041 2.4984 -98.1504 2.4984 Q-96.291 2.4984 -95.2598 3.6703 Q-94.2285 4.8422 -94.2285 6.9047 ZM-101.0566 6.9047 Q-101.0566 8.6391 -100.3144 9.5453 Q-99.5723 10.4516 -98.1504 10.4516 Q-96.7285 10.4516 -96.0019 9.5531 Q-95.2754 8.6547 -95.2754 6.9047 Q-95.2754 5.1703 -96.0019 4.2797 Q-96.7285 3.3891 -98.1504 3.3891 Q-99.5723 3.3891 -100.3144 4.2875 Q-101.0566 5.1859 -101.0566 6.9047 Z"/><path style="stroke:none;" d="M-124.2285 58.8647 Q-124.2285 60.9272 -125.2676 62.1069 Q-126.3066 63.2866 -128.1504 63.2866 Q-130.041 63.2866 -131.0723 62.1225 Q-132.1035 60.9584 -132.1035 58.8491 Q-132.1035 56.7553 -131.0723 55.6069 Q-130.041 54.4584 -128.1504 54.4584 Q-126.291 54.4584 -125.2598 55.6303 Q-124.2285 56.8022 -124.2285 58.8647 ZM-131.0566 58.8647 Q-131.0566 60.5991 -130.3144 61.5053 Q-129.5723 62.4116 -128.1504 62.4116 Q-126.7285 62.4116 -126.0019 61.5131 Q-125.2754 60.6147 -125.2754 58.8647 Q-125.2754 57.1303 -126.0019 56.2397 Q-126.7285 55.3491 -128.1504 55.3491 Q-129.5723 55.3491 -130.3144 56.2475 Q-131.0566 57.1459 -131.0566 58.8647 Z"/><path style="stroke:none;" d="M-184.2285 58.8647 Q-184.2285 60.9272 -185.2676 62.1069 Q-186.3066 63.2866 -188.1504 63.2866 Q-190.041 63.2866 -191.0723 62.1225 Q-192.1035 60.9584 -192.1035 58.8491 Q-192.1035 56.7553 -191.0723 55.6069 Q-190.041 54.4584 -188.1504 54.4584 Q-186.291 54.4584 -185.2598 55.6303 Q-184.2285 56.8022 -184.2285 58.8647 ZM-191.0566 58.8647 Q-191.0566 60.5991 -190.3144 61.5053 Q-189.5723 62.4116 -188.1504 62.4116 Q-186.7285 62.4116 -186.0019 61.5131 Q-185.2754 60.6147 -185.2754 58.8647 Q-185.2754 57.1303 -186.0019 56.2397 Q-186.7285 55.3491 -188.1504 55.3491 Q-189.5723 55.3491 -190.3144 56.2475 Q-191.0566 57.1459 -191.0566 58.8647 Z"/><path style="stroke:none;" d="M-214.2285 -45.0583 Q-214.2285 -42.9958 -215.2676 -41.8161 Q-216.3066 -40.6364 -218.1504 -40.6364 Q-220.041 -40.6364 -221.0723 -41.8005 Q-222.1035 -42.9646 -222.1035 -45.0739 Q-222.1035 -47.1677 -221.0723 -48.3161 Q-220.041 -49.4646 -218.1504 -49.4646 Q-216.291 -49.4646 -215.2598 -48.2927 Q-214.2285 -47.1208 -214.2285 -45.0583 ZM-221.0566 -45.0583 Q-221.0566 -43.3239 -220.3144 -42.4177 Q-219.5723 -41.5114 -218.1504 -41.5114 Q-216.7285 -41.5114 -216.0019 -42.4099 Q-215.2754 -43.3083 -215.2754 -45.0583 Q-215.2754 -46.7927 -216.0019 -47.6833 Q-216.7285 -48.5739 -218.1504 -48.5739 Q-219.5723 -48.5739 -220.3144 -47.6755 Q-221.0566 -46.7771 -221.0566 -45.0583 Z"/><path style="stroke:none;" d="M-223.1035 -40.7614 L-224.1035 -40.7614 L-224.1035 -44.7927 L-228.6191 -44.7927 L-228.6191 -40.7614 L-229.6191 -40.7614 L-229.6191 -49.3239 L-228.6191 -49.3239 L-228.6191 -45.6833 L-224.1035 -45.6833 L-224.1035 -49.3239 L-223.1035 -49.3239 L-223.1035 -40.7614 Z"/><path style="stroke:none;" d="M-214.2285 6.9047 Q-214.2285 8.9672 -215.2676 10.1469 Q-216.3066 11.3266 -218.1504 11.3266 Q-220.041 11.3266 -221.0723 10.1625 Q-222.1035 8.9984 -222.1035 6.8891 Q-222.1035 4.7953 -221.0723 3.6469 Q-220.041 2.4984 -218.1504 2.4984 Q-216.291 2.4984 -215.2598 3.6703 Q-214.2285 4.8422 -214.2285 6.9047 ZM-221.0566 6.9047 Q-221.0566 8.6391 -220.3144 9.5453 Q-219.5723 10.4516 -218.1504 10.4516 Q-216.7285 10.4516 -216.0019 9.5531 Q-215.2754 8.6547 -215.2754 6.9047 Q-215.2754 5.1703 -216.0019 4.2797 Q-216.7285 3.3891 -218.1504 3.3891 Q-219.5723 3.3891 -220.3144 4.2875 Q-221.0566 5.1859 -221.0566 6.9047 Z"/><path style="stroke:none;" d="M-223.1035 11.2016 L-224.1035 11.2016 L-224.1035 7.1703 L-228.6191 7.1703 L-228.6191 11.2016 L-229.6191 11.2016 L-229.6191 2.6391 L-228.6191 2.6391 L-228.6191 6.2797 L-224.1035 6.2797 L-224.1035 2.6391 L-223.1035 2.6391 L-223.1035 11.2016 Z"/><path style="stroke:none;" d="M-154.2285 110.8277 Q-154.2285 112.8902 -155.2676 114.0699 Q-156.3066 115.2496 -158.1504 115.2496 Q-160.041 115.2496 -161.0723 114.0855 Q-162.1035 112.9214 -162.1035 110.8121 Q-162.1035 108.7183 -161.0723 107.5699 Q-160.041 106.4214 -158.1504 106.4214 Q-156.291 106.4214 -155.2598 107.5933 Q-154.2285 108.7652 -154.2285 110.8277 ZM-161.0566 110.8277 Q-161.0566 112.5621 -160.3144 113.4683 Q-159.5723 114.3746 -158.1504 114.3746 Q-156.7285 114.3746 -156.0019 113.4761 Q-155.2754 112.5777 -155.2754 110.8277 Q-155.2754 109.0933 -156.0019 108.2027 Q-156.7285 107.3121 -158.1504 107.3121 Q-159.5723 107.3121 -160.3144 108.2105 Q-161.0566 109.1089 -161.0566 110.8277 Z"/><path style="stroke:none;" d="M-163.1035 115.1246 L-164.1035 115.1246 L-164.1035 111.0933 L-168.6191 111.0933 L-168.6191 115.1246 L-169.6191 115.1246 L-169.6191 106.5621 L-168.6191 106.5621 L-168.6191 110.2027 L-164.1035 110.2027 L-164.1035 106.5621 L-163.1035 106.5621 L-163.1035 115.1246 Z"/><path style="stroke:none;" d="M-214.2285 110.8277 Q-214.2285 112.8902 -215.2676 114.0699 Q-216.3066 115.2496 -218.1504 115.2496 Q-220.041 115.2496 -221.0723 114.0855 Q-222.1035 112.9214 -222.1035 110.8121 Q-222.1035 108.7183 -221.0723 107.5699 Q-220.041 106.4214 -218.1504 106.4214 Q-216.291 106.4214 -215.2598 107.5933 Q-214.2285 108.7652 -214.2285 110.8277 ZM-221.0566 110.8277 Q-221.0566 112.5621 -220.3144 113.4683 Q-219.5723 114.3746 -218.1504 114.3746 Q-216.7285 114.3746 -216.0019 113.4761 Q-215.2754 112.5777 -215.2754 110.8277 Q-215.2754 109.0933 -216.0019 108.2027 Q-216.7285 107.3121 -218.1504 107.3121 Q-219.5723 107.3121 -220.3144 108.2105 Q-221.0566 109.1089 -221.0566 110.8277 Z"/><path style="stroke:none;" d="M-206.7129 115.1246 L-207.7129 115.1246 L-207.7129 111.0933 L-212.2285 111.0933 L-212.2285 115.1246 L-213.2285 115.1246 L-213.2285 106.5621 L-212.2285 106.5621 L-212.2285 110.2027 L-207.7129 110.2027 L-207.7129 106.5621 L-206.7129 106.5621 L-206.7129 115.1246 Z"/><path style="stroke:none;" d="M-19.2285 136.8077 Q-19.2285 138.8702 -20.2676 140.0499 Q-21.3066 141.2296 -23.1504 141.2296 Q-25.041 141.2296 -26.0723 140.0655 Q-27.1035 138.9014 -27.1035 136.7921 Q-27.1035 134.6983 -26.0723 133.5499 Q-25.041 132.4014 -23.1504 132.4014 Q-21.291 132.4014 -20.2598 133.5733 Q-19.2285 134.7452 -19.2285 136.8077 ZM-26.0566 136.8077 Q-26.0566 138.5421 -25.3144 139.4483 Q-24.5723 140.3546 -23.1504 140.3546 Q-21.7285 140.3546 -21.0019 139.4561 Q-20.2754 138.5577 -20.2754 136.8077 Q-20.2754 135.0733 -21.0019 134.1827 Q-21.7285 133.2921 -23.1504 133.2921 Q-24.5723 133.2921 -25.3144 134.1905 Q-26.0566 135.0889 -26.0566 136.8077 Z"/><path style="stroke:none;" d="M-11.7129 141.1046 L-12.7129 141.1046 L-12.7129 137.0733 L-17.2285 137.0733 L-17.2285 141.1046 L-18.2285 141.1046 L-18.2285 132.5421 L-17.2285 132.5421 L-17.2285 136.1827 L-12.7129 136.1827 L-12.7129 132.5421 L-11.7129 132.5421 L-11.7129 141.1046 Z"/><path style="stroke:none;" d="M-124.2285 162.7877 Q-124.2285 164.8502 -125.2676 166.0299 Q-126.3066 167.2096 -128.1504 167.2096 Q-130.041 167.2096 -131.0723 166.0455 Q-132.1035 164.8814 -132.1035 162.7721 Q-132.1035 160.6783 -131.0723 159.5299 Q-130.041 158.3814 -128.1504 158.3814 Q-126.291 158.3814 -125.2598 159.5533 Q-124.2285 160.7252 -124.2285 162.7877 ZM-131.0566 162.7877 Q-131.0566 164.5221 -130.3144 165.4283 Q-129.5723 166.3346 -128.1504 166.3346 Q-126.7285 166.3346 -126.0019 165.4361 Q-125.2754 164.5377 -125.2754 162.7877 Q-125.2754 161.0533 -126.0019 160.1627 Q-126.7285 159.2721 -128.1504 159.2721 Q-129.5723 159.2721 -130.3144 160.1705 Q-131.0566 161.0689 -131.0566 162.7877 Z"/><path style="stroke:none;" d="M-133.1035 167.0846 L-134.1035 167.0846 L-134.1035 163.0533 L-138.6191 163.0533 L-138.6191 167.0846 L-139.6191 167.0846 L-139.6191 158.5221 L-138.6191 158.5221 L-138.6191 162.1627 L-134.1035 162.1627 L-134.1035 158.5221 L-133.1035 158.5221 L-133.1035 167.0846 Z"/><path style="stroke:none;" d="M-274.2285 110.8277 Q-274.2285 112.8902 -275.2675 114.0699 Q-276.3066 115.2496 -278.1504 115.2496 Q-280.041 115.2496 -281.0722 114.0855 Q-282.1035 112.9214 -282.1035 110.8121 Q-282.1035 108.7183 -281.0722 107.5699 Q-280.041 106.4214 -278.1504 106.4214 Q-276.291 106.4214 -275.2597 107.5933 Q-274.2285 108.7652 -274.2285 110.8277 ZM-281.0566 110.8277 Q-281.0566 112.5621 -280.3144 113.4683 Q-279.5722 114.3746 -278.1504 114.3746 Q-276.7285 114.3746 -276.0019 113.4761 Q-275.2754 112.5777 -275.2754 110.8277 Q-275.2754 109.0933 -276.0019 108.2027 Q-276.7285 107.3121 -278.1504 107.3121 Q-279.5722 107.3121 -280.3144 108.2105 Q-281.0566 109.1089 -281.0566 110.8277 Z"/><path style="stroke:none;" d="M-283.1035 115.1246 L-284.1035 115.1246 L-284.1035 111.0933 L-288.6191 111.0933 L-288.6191 115.1246 L-289.6191 115.1246 L-289.6191 106.5621 L-288.6191 106.5621 L-288.6191 110.2027 L-284.1035 110.2027 L-284.1035 106.5621 L-283.1035 106.5621 L-283.1035 115.1246 Z"/><path style="stroke:none;" d="M-64.2285 162.7877 Q-64.2285 164.8502 -65.2676 166.0299 Q-66.3066 167.2096 -68.1504 167.2096 Q-70.041 167.2096 -71.0723 166.0455 Q-72.1035 164.8814 -72.1035 162.7721 Q-72.1035 160.6783 -71.0723 159.5299 Q-70.041 158.3814 -68.1504 158.3814 Q-66.291 158.3814 -65.2598 159.5533 Q-64.2285 160.7252 -64.2285 162.7877 ZM-71.0566 162.7877 Q-71.0566 164.5221 -70.3144 165.4283 Q-69.5723 166.3346 -68.1504 166.3346 Q-66.7285 166.3346 -66.0019 165.4361 Q-65.2754 164.5377 -65.2754 162.7877 Q-65.2754 161.0533 -66.0019 160.1627 Q-66.7285 159.2721 -68.1504 159.2721 Q-69.5723 159.2721 -70.3144 160.1705 Q-71.0566 161.0689 -71.0566 162.7877 Z"/><path style="stroke:none;" d="M-56.7129 167.0846 L-57.7129 167.0846 L-57.7129 163.0533 L-62.2285 163.0533 L-62.2285 167.0846 L-63.2285 167.0846 L-63.2285 158.5221 L-62.2285 158.5221 L-62.2285 162.1627 L-57.7129 162.1627 L-57.7129 158.5221 L-56.7129 158.5221 L-56.7129 167.0846 Z"/><path style="stroke:none;" d="M-304.2285 58.8647 Q-304.2285 60.9272 -305.2675 62.1069 Q-306.3066 63.2866 -308.1504 63.2866 Q-310.041 63.2866 -311.0722 62.1225 Q-312.1035 60.9584 -312.1035 58.8491 Q-312.1035 56.7553 -311.0722 55.6069 Q-310.041 54.4584 -308.1504 54.4584 Q-306.291 54.4584 -305.2597 55.6303 Q-304.2285 56.8022 -304.2285 58.8647 ZM-311.0566 58.8647 Q-311.0566 60.5991 -310.3144 61.5053 Q-309.5722 62.4116 -308.1504 62.4116 Q-306.7285 62.4116 -306.0019 61.5131 Q-305.2754 60.6147 -305.2754 58.8647 Q-305.2754 57.1303 -306.0019 56.2397 Q-306.7285 55.3491 -308.1504 55.3491 Q-309.5722 55.3491 -310.3144 56.2475 Q-311.0566 57.1459 -311.0566 58.8647 Z"/><path style="stroke:none;" d="M-313.1035 63.1616 L-314.1035 63.1616 L-314.1035 59.1303 L-318.6191 59.1303 L-318.6191 63.1616 L-319.6191 63.1616 L-319.6191 54.5991 L-318.6191 54.5991 L-318.6191 58.2397 L-314.1035 58.2397 L-314.1035 54.5991 L-313.1035 54.5991 L-313.1035 63.1616 Z"/></g><g transform="translate(323,170)" style="font-size:8.4px; fill:gray; text-rendering:geometricPrecision; image-rendering:optimizeQuality; color-rendering:optimizeQuality; font-family:'Open Sans'; font-style:italic; stroke:gray; color-interpolation:linearRGB;"><path style="stroke:none;" d="M127.7255 -95.7476 Q127.7255 -97.0757 128.1942 -98.2007 Q128.663 -99.3257 129.6942 -100.4039 L130.3036 -100.4039 Q129.3349 -99.3414 128.8505 -98.1695 Q128.3661 -96.9976 128.3661 -95.7632 Q128.3661 -94.4351 128.8036 -93.4195 L128.288 -93.4195 Q127.7255 -94.4507 127.7255 -95.7476 ZM133.348 -96.3414 Q133.348 -95.5132 132.8012 -95.0601 Q132.2543 -94.607 131.2543 -94.607 Q130.848 -94.607 130.5355 -94.6617 Q130.223 -94.7164 129.9418 -94.857 L129.9418 -95.5132 Q130.5668 -95.1851 131.2699 -95.1851 Q131.8949 -95.1851 132.2699 -95.482 Q132.6449 -95.7789 132.6449 -96.2945 Q132.6449 -96.607 132.4418 -96.8336 Q132.2387 -97.0601 131.6762 -97.3882 Q131.0824 -97.7164 130.8559 -98.0445 Q130.6293 -98.3726 130.6293 -98.8257 Q130.6293 -99.5601 131.1449 -100.0211 Q131.6605 -100.482 132.5043 -100.482 Q132.8793 -100.482 133.2152 -100.4039 Q133.5512 -100.3257 133.9262 -100.1539 L133.6605 -99.5601 Q133.4105 -99.7164 133.0902 -99.8023 Q132.7699 -99.8882 132.5043 -99.8882 Q131.973 -99.8882 131.6527 -99.6148 Q131.3324 -99.3414 131.3324 -98.8726 Q131.3324 -98.6695 131.4027 -98.5211 Q131.473 -98.3726 131.6137 -98.2398 Q131.7543 -98.107 132.1762 -97.857 Q132.7387 -97.5132 132.9418 -97.3179 Q133.1449 -97.1226 133.2465 -96.8882 Q133.348 -96.6539 133.348 -96.3414 ZM135.9425 -98.0601 Q135.9425 -96.732 135.466 -95.5992 Q134.9894 -94.4664 133.9738 -93.4195 L133.3644 -93.4195 Q135.3019 -95.5757 135.3019 -98.0601 Q135.3019 -99.3882 134.8644 -100.4039 L135.38 -100.4039 Q135.9425 -99.3414 135.9425 -98.0601 Z"/><path style="stroke:none;" d="M175.4517 -107.0237 Q175.4517 -108.3518 175.9205 -109.4768 Q176.3892 -110.6018 177.4205 -111.68 L178.0299 -111.68 Q177.0611 -110.6175 176.5767 -109.4456 Q176.0924 -108.2737 176.0924 -107.0393 Q176.0924 -105.7112 176.5299 -104.6956 L176.0142 -104.6956 Q175.4517 -105.7268 175.4517 -107.0237 ZM179.0118 -108.3362 L178.5118 -105.9612 L177.8555 -105.9612 L179.0587 -111.68 L180.3087 -111.68 Q182.043 -111.68 182.043 -110.2425 Q182.043 -108.8831 180.6055 -108.4925 L181.543 -105.9612 L180.8243 -105.9612 L179.9962 -108.3362 L179.0118 -108.3362 ZM179.5899 -111.0862 Q179.1993 -109.1643 179.1368 -108.9143 L179.793 -108.9143 Q180.543 -108.9143 180.9493 -109.2425 Q181.3555 -109.5706 181.3555 -110.1956 Q181.3555 -110.6643 181.0977 -110.8753 Q180.8399 -111.0862 180.2462 -111.0862 L179.5899 -111.0862 ZM184.229 -109.3362 Q184.229 -108.0081 183.7525 -106.8753 Q183.2759 -105.7425 182.2603 -104.6956 L181.6509 -104.6956 Q183.5884 -106.8518 183.5884 -109.3362 Q183.5884 -110.6643 183.1509 -111.68 L183.6665 -111.68 Q184.229 -110.6175 184.229 -109.3362 Z"/><path style="stroke:none;" d="M117.7255 -113.0676 Q117.7255 -114.3957 118.1943 -115.5207 Q118.663 -116.6457 119.6943 -117.7238 L120.3037 -117.7238 Q119.3349 -116.6613 118.8505 -115.4895 Q118.3662 -114.3176 118.3662 -113.0832 Q118.3662 -111.7551 118.8037 -110.7395 L118.288 -110.7395 Q117.7255 -111.7707 117.7255 -113.0676 ZM123.3481 -113.6613 Q123.3481 -112.8332 122.8012 -112.3801 Q122.2543 -111.927 121.2543 -111.927 Q120.8481 -111.927 120.5356 -111.9817 Q120.2231 -112.0363 119.9418 -112.177 L119.9418 -112.8332 Q120.5668 -112.5051 121.27 -112.5051 Q121.895 -112.5051 122.27 -112.802 Q122.645 -113.0988 122.645 -113.6145 Q122.645 -113.927 122.4418 -114.1535 Q122.2387 -114.3801 121.6762 -114.7082 Q121.0825 -115.0363 120.8559 -115.3645 Q120.6293 -115.6926 120.6293 -116.1457 Q120.6293 -116.8801 121.145 -117.341 Q121.6606 -117.802 122.5043 -117.802 Q122.8793 -117.802 123.2153 -117.7238 Q123.5512 -117.6457 123.9262 -117.4738 L123.6606 -116.8801 Q123.4106 -117.0363 123.0903 -117.1223 Q122.77 -117.2082 122.5043 -117.2082 Q121.9731 -117.2082 121.6528 -116.9348 Q121.3325 -116.6613 121.3325 -116.1926 Q121.3325 -115.9895 121.4028 -115.841 Q121.4731 -115.6926 121.6137 -115.5598 Q121.7543 -115.427 122.1762 -115.177 Q122.7387 -114.8332 122.9418 -114.6379 Q123.145 -114.4426 123.2465 -114.2082 Q123.3481 -113.9738 123.3481 -113.6613 ZM125.9426 -115.3801 Q125.9426 -114.052 125.466 -112.9192 Q124.9894 -111.7863 123.9738 -110.7395 L123.3644 -110.7395 Q125.3019 -112.8957 125.3019 -115.3801 Q125.3019 -116.7082 124.8644 -117.7238 L125.3801 -117.7238 Q125.9426 -116.6613 125.9426 -115.3801 Z"/></g><g transform="translate(323,170)" style="stroke-linecap:butt; font-size:8.4px; text-rendering:geometricPrecision; image-rendering:optimizeQuality; color-rendering:optimizeQuality; font-family:'Open Sans'; font-style:italic; color-interpolation:linearRGB; stroke-miterlimit:5;"><path style="fill:none;" d="M127.084 -71.401 L126.834 -70.968 L126.334 -70.968"/><path style="fill:gray; stroke:none;" d="M161.5464 -126.8195 Q161.5464 -128.1477 162.0152 -129.2727 Q162.4839 -130.3977 163.5152 -131.4758 L164.1246 -131.4758 Q163.1558 -130.4133 162.6714 -129.2414 Q162.1871 -128.0695 162.1871 -126.8352 Q162.1871 -125.507 162.6246 -124.4914 L162.1089 -124.4914 Q161.5464 -125.5227 161.5464 -126.8195 ZM167.169 -127.4133 Q167.169 -126.5852 166.6221 -126.132 Q166.0752 -125.6789 165.0752 -125.6789 Q164.669 -125.6789 164.3565 -125.7336 Q164.044 -125.7883 163.7627 -125.9289 L163.7627 -126.5852 Q164.3877 -126.257 165.0909 -126.257 Q165.7159 -126.257 166.0909 -126.5539 Q166.4659 -126.8508 166.4659 -127.3664 Q166.4659 -127.6789 166.2627 -127.9055 Q166.0596 -128.132 165.4971 -128.4602 Q164.9034 -128.7883 164.6768 -129.1164 Q164.4502 -129.4445 164.4502 -129.8977 Q164.4502 -130.632 164.9659 -131.093 Q165.4815 -131.5539 166.3252 -131.5539 Q166.7002 -131.5539 167.0362 -131.4758 Q167.3721 -131.3977 167.7471 -131.2258 L167.4815 -130.632 Q167.2315 -130.7883 166.9112 -130.8742 Q166.5909 -130.9602 166.3252 -130.9602 Q165.794 -130.9602 165.4737 -130.6867 Q165.1534 -130.4133 165.1534 -129.9445 Q165.1534 -129.7414 165.2237 -129.593 Q165.294 -129.4445 165.4346 -129.3117 Q165.5752 -129.1789 165.9971 -128.9289 Q166.5596 -128.5852 166.7627 -128.3898 Q166.9659 -128.1945 167.0674 -127.9602 Q167.169 -127.7258 167.169 -127.4133 ZM169.7635 -129.132 Q169.7635 -127.8039 169.2869 -126.6711 Q168.8103 -125.5383 167.7947 -124.4914 L167.1853 -124.4914 Q169.1228 -126.6477 169.1228 -129.132 Q169.1228 -130.4602 168.6853 -131.4758 L169.201 -131.4758 Q169.7635 -130.4133 169.7635 -129.132 Z"/><path style="fill:gray; stroke:none;" d="M204.1358 -87.193 Q204.1358 -88.5211 204.6046 -89.6461 Q205.0733 -90.7711 206.1046 -91.8492 L206.7139 -91.8492 Q205.7452 -90.7867 205.2608 -89.6148 Q204.7764 -88.443 204.7764 -87.2086 Q204.7764 -85.8805 205.2139 -84.8648 L204.6983 -84.8648 Q204.1358 -85.8961 204.1358 -87.193 ZM209.7584 -87.7867 Q209.7584 -86.9586 209.2115 -86.5055 Q208.6646 -86.0523 207.6646 -86.0523 Q207.2584 -86.0523 206.9459 -86.107 Q206.6334 -86.1617 206.3521 -86.3023 L206.3521 -86.9586 Q206.9771 -86.6305 207.6803 -86.6305 Q208.3053 -86.6305 208.6803 -86.9273 Q209.0553 -87.2242 209.0553 -87.7398 Q209.0553 -88.0523 208.8521 -88.2789 Q208.649 -88.5055 208.0865 -88.8336 Q207.4928 -89.1617 207.2662 -89.4898 Q207.0396 -89.818 207.0396 -90.2711 Q207.0396 -91.0055 207.5553 -91.4664 Q208.0709 -91.9273 208.9146 -91.9273 Q209.2896 -91.9273 209.6256 -91.8492 Q209.9615 -91.7711 210.3365 -91.5992 L210.0709 -91.0055 Q209.8209 -91.1617 209.5006 -91.2477 Q209.1803 -91.3336 208.9146 -91.3336 Q208.3834 -91.3336 208.0631 -91.0602 Q207.7428 -90.7867 207.7428 -90.318 Q207.7428 -90.1148 207.8131 -89.9664 Q207.8834 -89.818 208.024 -89.6852 Q208.1646 -89.5523 208.5865 -89.3023 Q209.149 -88.9586 209.3521 -88.7633 Q209.5553 -88.568 209.6568 -88.3336 Q209.7584 -88.0992 209.7584 -87.7867 ZM212.3529 -89.5055 Q212.3529 -88.1773 211.8763 -87.0445 Q211.3997 -85.9117 210.3841 -84.8648 L209.7747 -84.8648 Q211.7122 -87.0211 211.7122 -89.5055 Q211.7122 -90.8336 211.2747 -91.8492 L211.7904 -91.8492 Q212.3529 -90.7867 212.3529 -89.5055 Z"/><path style="fill:gray; stroke:none;" d="M82.4454 -121.7667 Q82.4454 -123.0948 82.9141 -124.2198 Q83.3829 -125.3448 84.4141 -126.4229 L85.0235 -126.4229 Q84.0547 -125.3604 83.5704 -124.1886 Q83.086 -123.0167 83.086 -121.7823 Q83.086 -120.4542 83.5235 -119.4386 L83.0079 -119.4386 Q82.4454 -120.4698 82.4454 -121.7667 ZM86.0054 -123.0792 L85.5054 -120.7042 L84.8492 -120.7042 L86.0523 -126.4229 L87.3023 -126.4229 Q89.0367 -126.4229 89.0367 -124.9854 Q89.0367 -123.6261 87.5992 -123.2354 L88.5367 -120.7042 L87.8179 -120.7042 L86.9898 -123.0792 L86.0054 -123.0792 ZM86.5835 -125.8292 Q86.1929 -123.9073 86.1304 -123.6573 L86.7867 -123.6573 Q87.5367 -123.6573 87.9429 -123.9854 Q88.3492 -124.3136 88.3492 -124.9386 Q88.3492 -125.4073 88.0914 -125.6182 Q87.8335 -125.8292 87.2398 -125.8292 L86.5835 -125.8292 ZM91.2226 -124.0792 Q91.2226 -122.7511 90.7461 -121.6182 Q90.2695 -120.4854 89.2539 -119.4386 L88.6445 -119.4386 Q90.582 -121.5948 90.582 -124.0792 Q90.582 -125.4073 90.1445 -126.4229 L90.6601 -126.4229 Q91.2226 -125.3604 91.2226 -124.0792 Z"/><path style="fill:none;" d="M146.5724 -144.8524 L146.907 -145.224 L147.3638 -145.0207"/><path style="fill:none;" d="M97.334 -70.968 L96.834 -70.968 L96.584 -71.401"/></g><g transform="translate(323,170)" style="stroke-linecap:butt; fill:rgb(230,0,0); text-rendering:geometricPrecision; color-rendering:optimizeQuality; image-rendering:optimizeQuality; font-family:'Open Sans'; stroke:rgb(230,0,0); color-interpolation:linearRGB; stroke-miterlimit:5;"><path style="stroke:none;" d="M207.5955 -139.3303 Q207.5955 -137.2678 206.5564 -136.0881 Q205.5174 -134.9084 203.6736 -134.9084 Q201.783 -134.9084 200.7518 -136.0725 Q199.7205 -137.2366 199.7205 -139.3459 Q199.7205 -141.4397 200.7518 -142.5881 Q201.783 -143.7366 203.6736 -143.7366 Q205.533 -143.7366 206.5643 -142.5647 Q207.5955 -141.3928 207.5955 -139.3303 ZM200.7674 -139.3303 Q200.7674 -137.5959 201.5096 -136.6897 Q202.2518 -135.7834 203.6736 -135.7834 Q205.0955 -135.7834 205.8221 -136.6819 Q206.5486 -137.5803 206.5486 -139.3303 Q206.5486 -141.0647 205.8221 -141.9553 Q205.0955 -142.8459 203.6736 -142.8459 Q202.2518 -142.8459 201.5096 -141.9475 Q200.7674 -141.0491 200.7674 -139.3303 Z"/></g><g transform="translate(323,170)" style="stroke-linecap:butt; font-size:8.4px; fill:gray; text-rendering:geometricPrecision; image-rendering:optimizeQuality; color-rendering:optimizeQuality; font-family:'Open Sans'; font-style:italic; stroke:gray; color-interpolation:linearRGB; stroke-miterlimit:5;"><path style="stroke:none;" d="M224.4947 -111.0317 Q224.4947 -112.3598 224.9635 -113.4848 Q225.4322 -114.6098 226.4635 -115.6879 L227.0728 -115.6879 Q226.1041 -114.6254 225.6197 -113.4535 Q225.1353 -112.2817 225.1353 -111.0473 Q225.1353 -109.7192 225.5728 -108.7035 L225.0572 -108.7035 Q224.4947 -109.7348 224.4947 -111.0317 ZM230.1173 -111.6254 Q230.1173 -110.7973 229.5704 -110.3442 Q229.0235 -109.891 228.0235 -109.891 Q227.6173 -109.891 227.3048 -109.9457 Q226.9923 -110.0004 226.711 -110.141 L226.711 -110.7973 Q227.336 -110.4692 228.0391 -110.4692 Q228.6641 -110.4692 229.0391 -110.766 Q229.4141 -111.0629 229.4141 -111.5785 Q229.4141 -111.891 229.211 -112.1176 Q229.0079 -112.3442 228.4454 -112.6723 Q227.8516 -113.0004 227.6251 -113.3285 Q227.3985 -113.6567 227.3985 -114.1098 Q227.3985 -114.8442 227.9141 -115.3051 Q228.4298 -115.766 229.2735 -115.766 Q229.6485 -115.766 229.9845 -115.6879 Q230.3204 -115.6098 230.6954 -115.4379 L230.4298 -114.8442 Q230.1798 -115.0004 229.8595 -115.0863 Q229.5391 -115.1723 229.2735 -115.1723 Q228.7423 -115.1723 228.422 -114.8988 Q228.1016 -114.6254 228.1016 -114.1567 Q228.1016 -113.9535 228.172 -113.8051 Q228.2423 -113.6567 228.3829 -113.5238 Q228.5235 -113.391 228.9454 -113.141 Q229.5079 -112.7973 229.711 -112.602 Q229.9141 -112.4067 230.0157 -112.1723 Q230.1173 -111.9379 230.1173 -111.6254 ZM232.7117 -113.3442 Q232.7117 -112.016 232.2352 -110.8832 Q231.7586 -109.7504 230.743 -108.7035 L230.1336 -108.7035 Q232.0711 -110.8598 232.0711 -113.3442 Q232.0711 -114.6723 231.6336 -115.6879 L232.1492 -115.6879 Q232.7117 -114.6254 232.7117 -113.3442 Z"/><path style="stroke:none;" d="M87.7255 -95.7451 Q87.7255 -97.0732 88.1942 -98.1982 Q88.663 -99.3232 89.6942 -100.4014 L90.3036 -100.4014 Q89.3349 -99.3389 88.8505 -98.167 Q88.3661 -96.9951 88.3661 -95.7607 Q88.3661 -94.4326 88.8036 -93.417 L88.288 -93.417 Q87.7255 -94.4482 87.7255 -95.7451 ZM93.348 -96.3389 Q93.348 -95.5107 92.8012 -95.0576 Q92.2543 -94.6045 91.2543 -94.6045 Q90.848 -94.6045 90.5355 -94.6592 Q90.223 -94.7139 89.9418 -94.8545 L89.9418 -95.5107 Q90.5668 -95.1826 91.2699 -95.1826 Q91.8949 -95.1826 92.2699 -95.4795 Q92.6449 -95.7764 92.6449 -96.292 Q92.6449 -96.6045 92.4418 -96.8311 Q92.2387 -97.0576 91.6762 -97.3857 Q91.0824 -97.7139 90.8559 -98.042 Q90.6293 -98.3701 90.6293 -98.8232 Q90.6293 -99.5576 91.1449 -100.0186 Q91.6605 -100.4795 92.5043 -100.4795 Q92.8793 -100.4795 93.2152 -100.4014 Q93.5512 -100.3232 93.9262 -100.1514 L93.6605 -99.5576 Q93.4105 -99.7139 93.0902 -99.7998 Q92.7699 -99.8857 92.5043 -99.8857 Q91.973 -99.8857 91.6527 -99.6123 Q91.3324 -99.3389 91.3324 -98.8701 Q91.3324 -98.667 91.4027 -98.5186 Q91.473 -98.3701 91.6137 -98.2373 Q91.7543 -98.1045 92.1762 -97.8545 Q92.7387 -97.5107 92.9418 -97.3154 Q93.1449 -97.1201 93.2465 -96.8857 Q93.348 -96.6514 93.348 -96.3389 ZM95.9425 -98.0576 Q95.9425 -96.7295 95.466 -95.5967 Q94.9894 -94.4639 93.9738 -93.417 L93.3644 -93.417 Q95.3019 -95.5732 95.3019 -98.0576 Q95.3019 -99.3857 94.8644 -100.4014 L95.38 -100.4014 Q95.9425 -99.3389 95.9425 -98.0576 Z"/><path style="fill:none; stroke:black;" d="M82.084 -148.478 L81.834 -148.911 L81.334 -148.911"/><path style="fill:none; stroke:black;" d="M230.6586 -86.3288 L230.862 -85.872 L231.3593 -85.8197"/></g><g transform="translate(323,170)" style="stroke-linecap:butt; fill:rgb(0,5,255); text-rendering:geometricPrecision; color-rendering:optimizeQuality; image-rendering:optimizeQuality; font-family:'Open Sans'; stroke:rgb(0,5,255); color-interpolation:linearRGB; stroke-miterlimit:5;"><path style="stroke:none;" d="M239.6436 -133.3938 L238.5029 -133.3938 L233.8154 -140.5813 L233.7686 -140.5813 Q233.8623 -139.3156 233.8623 -138.2688 L233.8623 -133.3938 L232.9404 -133.3938 L232.9404 -141.9563 L234.0654 -141.9563 L238.7373 -134.8 L238.7842 -134.8 Q238.7842 -134.9563 238.7373 -135.8156 Q238.6904 -136.675 238.7061 -137.05 L238.7061 -141.9563 L239.6436 -141.9563 L239.6436 -133.3938 Z"/><path style="stroke:none;" d="M239.5498 -142.9563 L238.5498 -142.9563 L238.5498 -146.9875 L234.0342 -146.9875 L234.0342 -142.9563 L233.0342 -142.9563 L233.0342 -151.5188 L234.0342 -151.5188 L234.0342 -147.8781 L238.5498 -147.8781 L238.5498 -151.5188 L239.5498 -151.5188 L239.5498 -142.9563 Z"/></g><g transform="translate(323,170)" style="stroke-linecap:butt; font-size:8.4px; fill:gray; text-rendering:geometricPrecision; image-rendering:optimizeQuality; color-rendering:optimizeQuality; font-family:'Open Sans'; font-style:italic; stroke:gray; color-interpolation:linearRGB; stroke-miterlimit:5;"><path style="stroke:none;" d="M37.7255 -95.7451 Q37.7255 -97.0732 38.1942 -98.1982 Q38.663 -99.3232 39.6942 -100.4014 L40.3036 -100.4014 Q39.3349 -99.3389 38.8505 -98.167 Q38.3661 -96.9951 38.3661 -95.7607 Q38.3661 -94.4326 38.8036 -93.417 L38.288 -93.417 Q37.7255 -94.4482 37.7255 -95.7451 ZM43.348 -96.3389 Q43.348 -95.5107 42.8012 -95.0576 Q42.2543 -94.6045 41.2543 -94.6045 Q40.848 -94.6045 40.5355 -94.6592 Q40.223 -94.7139 39.9418 -94.8545 L39.9418 -95.5107 Q40.5668 -95.1826 41.2699 -95.1826 Q41.8949 -95.1826 42.2699 -95.4795 Q42.6449 -95.7764 42.6449 -96.292 Q42.6449 -96.6045 42.4418 -96.8311 Q42.2387 -97.0576 41.6762 -97.3857 Q41.0824 -97.7139 40.8559 -98.042 Q40.6293 -98.3701 40.6293 -98.8232 Q40.6293 -99.5576 41.1449 -100.0186 Q41.6605 -100.4795 42.5043 -100.4795 Q42.8793 -100.4795 43.2152 -100.4014 Q43.5512 -100.3232 43.9262 -100.1514 L43.6605 -99.5576 Q43.4105 -99.7139 43.0902 -99.7998 Q42.7699 -99.8857 42.5043 -99.8857 Q41.973 -99.8857 41.6527 -99.6123 Q41.3324 -99.3389 41.3324 -98.8701 Q41.3324 -98.667 41.4027 -98.5186 Q41.473 -98.3701 41.6137 -98.2373 Q41.7543 -98.1045 42.1762 -97.8545 Q42.7387 -97.5107 42.9418 -97.3154 Q43.1449 -97.1201 43.2465 -96.8857 Q43.348 -96.6514 43.348 -96.3389 ZM45.9425 -98.0576 Q45.9425 -96.7295 45.466 -95.5967 Q44.9894 -94.4639 43.9738 -93.417 L43.3644 -93.417 Q45.3019 -95.5732 45.3019 -98.0576 Q45.3019 -99.3857 44.8644 -100.4014 L45.38 -100.4014 Q45.9425 -99.3389 45.9425 -98.0576 Z"/><path style="fill:none; stroke:black;" d="M52.334 -148.911 L51.834 -148.911 L51.584 -148.478"/><path style="fill:none; stroke:black;" d="M260.1998 -82.7893 L260.697 -82.737 L260.9909 -83.1415"/><path style="fill:none; stroke:black;" d="M265.6298 -134.4673 L266.127 -134.415 L266.3304 -133.9582"/><path style="stroke:none;" d="M42.7255 -121.7276 Q42.7255 -123.0557 43.1942 -124.1807 Q43.663 -125.3057 44.6942 -126.3839 L45.3036 -126.3839 Q44.3349 -125.3214 43.8505 -124.1495 Q43.3661 -122.9776 43.3661 -121.7432 Q43.3661 -120.4151 43.8036 -119.3995 L43.288 -119.3995 Q42.7255 -120.4307 42.7255 -121.7276 ZM48.348 -122.3214 Q48.348 -121.4932 47.8012 -121.0401 Q47.2543 -120.587 46.2543 -120.587 Q45.848 -120.587 45.5355 -120.6417 Q45.223 -120.6964 44.9418 -120.837 L44.9418 -121.4932 Q45.5668 -121.1651 46.2699 -121.1651 Q46.8949 -121.1651 47.2699 -121.462 Q47.6449 -121.7589 47.6449 -122.2745 Q47.6449 -122.587 47.4418 -122.8136 Q47.2387 -123.0401 46.6762 -123.3682 Q46.0824 -123.6964 45.8559 -124.0245 Q45.6293 -124.3526 45.6293 -124.8057 Q45.6293 -125.5401 46.1449 -126.0011 Q46.6605 -126.462 47.5043 -126.462 Q47.8793 -126.462 48.2152 -126.3839 Q48.5512 -126.3057 48.9262 -126.1339 L48.6605 -125.5401 Q48.4105 -125.6964 48.0902 -125.7823 Q47.7699 -125.8682 47.5043 -125.8682 Q46.973 -125.8682 46.6527 -125.5948 Q46.3324 -125.3214 46.3324 -124.8526 Q46.3324 -124.6495 46.4027 -124.5011 Q46.473 -124.3526 46.6137 -124.2198 Q46.7543 -124.087 47.1762 -123.837 Q47.7387 -123.4932 47.9418 -123.2979 Q48.1449 -123.1026 48.2465 -122.8682 Q48.348 -122.6339 48.348 -122.3214 ZM50.9425 -124.0401 Q50.9425 -122.712 50.466 -121.5792 Q49.9894 -120.4464 48.9738 -119.3995 L48.3644 -119.3995 Q50.3019 -121.5557 50.3019 -124.0401 Q50.3019 -125.3682 49.8644 -126.3839 L50.38 -126.3839 Q50.9425 -125.3214 50.9425 -124.0401 Z"/><path style="fill:none; stroke:black;" d="M37.084 -71.401 L36.834 -70.968 L36.334 -70.968"/><path style="stroke:none;" d="M264.2773 -106.8491 Q264.2773 -108.1772 264.746 -109.3022 Q265.2148 -110.4272 266.246 -111.5053 L266.8554 -111.5053 Q265.8867 -110.4428 265.4023 -109.271 Q264.9179 -108.0991 264.9179 -106.8647 Q264.9179 -105.5366 265.3554 -104.521 L264.8398 -104.521 Q264.2773 -105.5522 264.2773 -106.8491 ZM269.8998 -107.4428 Q269.8998 -106.6147 269.353 -106.1616 Q268.8061 -105.7085 267.8061 -105.7085 Q267.3998 -105.7085 267.0873 -105.7632 Q266.7748 -105.8178 266.4936 -105.9585 L266.4936 -106.6147 Q267.1186 -106.2866 267.8217 -106.2866 Q268.4467 -106.2866 268.8217 -106.5835 Q269.1967 -106.8803 269.1967 -107.396 Q269.1967 -107.7085 268.9936 -107.935 Q268.7905 -108.1616 268.228 -108.4897 Q267.6342 -108.8178 267.4077 -109.146 Q267.1811 -109.4741 267.1811 -109.9272 Q267.1811 -110.6616 267.6967 -111.1225 Q268.2123 -111.5835 269.0561 -111.5835 Q269.4311 -111.5835 269.767 -111.5053 Q270.103 -111.4272 270.478 -111.2553 L270.2123 -110.6616 Q269.9623 -110.8178 269.642 -110.9038 Q269.3217 -110.9897 269.0561 -110.9897 Q268.5248 -110.9897 268.2045 -110.7163 Q267.8842 -110.4428 267.8842 -109.9741 Q267.8842 -109.771 267.9545 -109.6225 Q268.0248 -109.4741 268.1655 -109.3413 Q268.3061 -109.2085 268.728 -108.9585 Q269.2905 -108.6147 269.4936 -108.4194 Q269.6967 -108.2241 269.7983 -107.9897 Q269.8998 -107.7553 269.8998 -107.4428 ZM272.4943 -109.1616 Q272.4943 -107.8335 272.0178 -106.7007 Q271.5412 -105.5678 270.5256 -104.521 L269.9162 -104.521 Q271.8537 -106.6772 271.8537 -109.1616 Q271.8537 -110.4897 271.4162 -111.5053 L271.9318 -111.5053 Q272.4943 -110.4428 272.4943 -109.1616 Z"/><path style="fill:none; stroke:black;" d="M7.334 -122.931 L6.834 -122.931 L6.584 -122.498"/><path style="fill:none; stroke:black;" d="M7.334 -70.968 L6.834 -70.968 L6.584 -71.401"/><path style="fill:none; stroke:black;" d="M-7.916 -97.384 L-8.166 -96.951 L-7.916 -96.518"/><path style="stroke:none;" d="M-17.2745 -104.4081 Q-17.2745 -105.7363 -16.8058 -106.8613 Q-16.337 -107.9863 -15.3058 -109.0644 L-14.6964 -109.0644 Q-15.6651 -108.0019 -16.1495 -106.83 Q-16.6339 -105.6581 -16.6339 -104.4238 Q-16.6339 -103.0956 -16.1964 -102.08 L-16.712 -102.08 Q-17.2745 -103.1113 -17.2745 -104.4081 ZM-11.652 -105.0019 Q-11.652 -104.1738 -12.1988 -103.7206 Q-12.7457 -103.2675 -13.7457 -103.2675 Q-14.152 -103.2675 -14.4645 -103.3222 Q-14.777 -103.3769 -15.0582 -103.5175 L-15.0582 -104.1738 Q-14.4332 -103.8456 -13.7301 -103.8456 Q-13.1051 -103.8456 -12.7301 -104.1425 Q-12.3551 -104.4394 -12.3551 -104.955 Q-12.3551 -105.2675 -12.5582 -105.4941 Q-12.7613 -105.7206 -13.3238 -106.0488 Q-13.9176 -106.3769 -14.1441 -106.705 Q-14.3707 -107.0331 -14.3707 -107.4863 Q-14.3707 -108.2206 -13.8551 -108.6816 Q-13.3395 -109.1425 -12.4957 -109.1425 Q-12.1207 -109.1425 -11.7848 -109.0644 Q-11.4488 -108.9863 -11.0738 -108.8144 L-11.3395 -108.2206 Q-11.5895 -108.3769 -11.9098 -108.4628 Q-12.2301 -108.5488 -12.4957 -108.5488 Q-13.027 -108.5488 -13.3473 -108.2753 Q-13.6676 -108.0019 -13.6676 -107.5331 Q-13.6676 -107.33 -13.5973 -107.1816 Q-13.527 -107.0331 -13.3863 -106.9003 Q-13.2457 -106.7675 -12.8238 -106.5175 Q-12.2613 -106.1738 -12.0582 -105.9784 Q-11.8551 -105.7831 -11.7535 -105.5488 Q-11.652 -105.3144 -11.652 -105.0019 ZM-9.0575 -106.7206 Q-9.0575 -105.3925 -9.534 -104.2597 Q-10.0106 -103.1269 -11.0262 -102.08 L-11.6356 -102.08 Q-9.6981 -104.2363 -9.6981 -106.7206 Q-9.6981 -108.0488 -10.1356 -109.0644 L-9.62 -109.0644 Q-9.0575 -108.0019 -9.0575 -106.7206 Z"/><path style="stroke:none;" d="M-62.5551 -78.4639 Q-62.5551 -79.7921 -62.0863 -80.9171 Q-61.6176 -82.0421 -60.5863 -83.1202 L-59.9769 -83.1202 Q-60.9457 -82.0577 -61.4301 -80.8858 Q-61.9144 -79.7139 -61.9144 -78.4796 Q-61.9144 -77.1514 -61.4769 -76.1358 L-61.9926 -76.1358 Q-62.5551 -77.1671 -62.5551 -78.4639 ZM-58.995 -79.7764 L-59.495 -77.4014 L-60.1513 -77.4014 L-58.9481 -83.1202 L-57.6981 -83.1202 Q-55.9638 -83.1202 -55.9638 -81.6827 Q-55.9638 -80.3233 -57.4013 -79.9327 L-56.4638 -77.4014 L-57.1825 -77.4014 L-58.0106 -79.7764 L-58.995 -79.7764 ZM-58.4169 -82.5264 Q-58.8075 -80.6046 -58.87 -80.3546 L-58.2138 -80.3546 Q-57.4638 -80.3546 -57.0575 -80.6827 Q-56.6513 -81.0108 -56.6513 -81.6358 Q-56.6513 -82.1046 -56.9091 -82.3155 Q-57.1669 -82.5264 -57.7606 -82.5264 L-58.4169 -82.5264 ZM-53.7778 -80.7764 Q-53.7778 -79.4483 -54.2543 -78.3155 Q-54.7309 -77.1827 -55.7465 -76.1358 L-56.3559 -76.1358 Q-54.4184 -78.2921 -54.4184 -80.7764 Q-54.4184 -82.1046 -54.8559 -83.1202 L-54.3403 -83.1202 Q-53.7778 -82.0577 -53.7778 -80.7764 Z"/></g><g transform="translate(323,170)" style="stroke-linecap:butt; fill:rgb(230,0,0); text-rendering:geometricPrecision; color-rendering:optimizeQuality; image-rendering:optimizeQuality; font-family:'Open Sans'; stroke:rgb(230,0,0); color-interpolation:linearRGB; stroke-miterlimit:5;"><path style="stroke:none;" d="M-79.2285 -71.0383 Q-79.2285 -68.9758 -80.2676 -67.7961 Q-81.3066 -66.6164 -83.1504 -66.6164 Q-85.041 -66.6164 -86.0723 -67.7805 Q-87.1035 -68.9446 -87.1035 -71.0539 Q-87.1035 -73.1477 -86.0723 -74.2961 Q-85.041 -75.4446 -83.1504 -75.4446 Q-81.291 -75.4446 -80.2598 -74.2727 Q-79.2285 -73.1008 -79.2285 -71.0383 ZM-86.0566 -71.0383 Q-86.0566 -69.3039 -85.3144 -68.3977 Q-84.5723 -67.4914 -83.1504 -67.4914 Q-81.7285 -67.4914 -81.0019 -68.3899 Q-80.2754 -69.2883 -80.2754 -71.0383 Q-80.2754 -72.7727 -81.0019 -73.6633 Q-81.7285 -74.5539 -83.1504 -74.5539 Q-84.5723 -74.5539 -85.3144 -73.6555 Q-86.0566 -72.7571 -86.0566 -71.0383 Z"/><path style="fill:none; stroke:black;" d="M-38.416 -45.421 L-38.166 -44.988 L-38.416 -44.555"/></g><g transform="translate(323,170)" style="stroke-linecap:butt; font-size:8.4px; fill:gray; text-rendering:geometricPrecision; image-rendering:optimizeQuality; color-rendering:optimizeQuality; font-family:'Open Sans'; font-style:italic; stroke:gray; color-interpolation:linearRGB; stroke-miterlimit:5;"><path style="stroke:none;" d="M-37.5545 -52.4841 Q-37.5545 -53.8123 -37.0858 -54.9373 Q-36.617 -56.0623 -35.5858 -57.1404 L-34.9764 -57.1404 Q-35.9452 -56.0779 -36.4295 -54.906 Q-36.9139 -53.7341 -36.9139 -52.4998 Q-36.9139 -51.1716 -36.4764 -50.156 L-36.992 -50.156 Q-37.5545 -51.1873 -37.5545 -52.4841 ZM-33.9945 -53.7966 L-34.4945 -51.4216 L-35.1507 -51.4216 L-33.9476 -57.1404 L-32.6976 -57.1404 Q-30.9632 -57.1404 -30.9632 -55.7029 Q-30.9632 -54.3435 -32.4007 -53.9529 L-31.4632 -51.4216 L-32.182 -51.4216 L-33.0101 -53.7966 L-33.9945 -53.7966 ZM-33.4163 -56.5466 Q-33.807 -54.6248 -33.8695 -54.3748 L-33.2132 -54.3748 Q-32.4632 -54.3748 -32.057 -54.7029 Q-31.6507 -55.031 -31.6507 -55.656 Q-31.6507 -56.1248 -31.9085 -56.3357 Q-32.1663 -56.5466 -32.7601 -56.5466 L-33.4163 -56.5466 ZM-28.7772 -54.7966 Q-28.7772 -53.4685 -29.2538 -52.3357 Q-29.7304 -51.2029 -30.746 -50.156 L-31.3554 -50.156 Q-29.4179 -52.3123 -29.4179 -54.7966 Q-29.4179 -56.1248 -29.8554 -57.1404 L-29.3397 -57.1404 Q-28.7772 -56.0779 -28.7772 -54.7966 Z"/><path style="stroke:none;" d="M-107.5544 -52.4843 Q-107.5544 -53.8124 -107.0857 -54.9374 Q-106.6169 -56.0624 -105.5857 -57.1406 L-104.9763 -57.1406 Q-105.945 -56.0781 -106.4294 -54.9062 Q-106.9138 -53.7343 -106.9138 -52.4999 Q-106.9138 -51.1718 -106.4763 -50.1562 L-106.9919 -50.1562 Q-107.5544 -51.1874 -107.5544 -52.4843 ZM-103.9944 -53.7968 L-104.4944 -51.4218 L-105.1506 -51.4218 L-103.9475 -57.1406 L-102.6975 -57.1406 Q-100.9631 -57.1406 -100.9631 -55.7031 Q-100.9631 -54.3437 -102.4006 -53.9531 L-101.4631 -51.4218 L-102.1819 -51.4218 L-103.01 -53.7968 L-103.9944 -53.7968 ZM-103.4162 -56.5468 Q-103.8069 -54.6249 -103.8694 -54.3749 L-103.2131 -54.3749 Q-102.4631 -54.3749 -102.0569 -54.7031 Q-101.6506 -55.0312 -101.6506 -55.6562 Q-101.6506 -56.1249 -101.9084 -56.3359 Q-102.1662 -56.5468 -102.76 -56.5468 L-103.4162 -56.5468 ZM-98.7771 -54.7968 Q-98.7771 -53.4687 -99.2537 -52.3359 Q-99.7303 -51.2031 -100.7459 -50.1562 L-101.3553 -50.1562 Q-99.4178 -52.3124 -99.4178 -54.7968 Q-99.4178 -56.1249 -99.8553 -57.1406 L-99.3396 -57.1406 Q-98.7771 -56.0781 -98.7771 -54.7968 Z"/><path style="stroke:none;" d="M-62.5546 -26.5042 Q-62.5546 -27.8323 -62.0859 -28.9573 Q-61.6171 -30.0823 -60.5859 -31.1604 L-59.9765 -31.1604 Q-60.9453 -30.0979 -61.4296 -28.9261 Q-61.914 -27.7542 -61.914 -26.5198 Q-61.914 -25.1917 -61.4765 -24.1761 L-61.9921 -24.1761 Q-62.5546 -25.2073 -62.5546 -26.5042 ZM-58.9946 -27.8167 L-59.4946 -25.4417 L-60.1508 -25.4417 L-58.9477 -31.1604 L-57.6977 -31.1604 Q-55.9633 -31.1604 -55.9633 -29.7229 Q-55.9633 -28.3636 -57.4008 -27.9729 L-56.4633 -25.4417 L-57.1821 -25.4417 L-58.0102 -27.8167 L-58.9946 -27.8167 ZM-58.4165 -30.5667 Q-58.8071 -28.6448 -58.8696 -28.3948 L-58.2133 -28.3948 Q-57.4633 -28.3948 -57.0571 -28.7229 Q-56.6508 -29.0511 -56.6508 -29.6761 Q-56.6508 -30.1448 -56.9086 -30.3558 Q-57.1665 -30.5667 -57.7602 -30.5667 L-58.4165 -30.5667 ZM-53.7774 -28.8167 Q-53.7774 -27.4886 -54.2539 -26.3558 Q-54.7305 -25.2229 -55.7461 -24.1761 L-56.3555 -24.1761 Q-54.418 -26.3323 -54.418 -28.8167 Q-54.418 -30.1448 -54.8555 -31.1604 L-54.3399 -31.1604 Q-53.7774 -30.0979 -53.7774 -28.8167 Z"/><path style="stroke:none;" d="M-82.5547 -26.5043 Q-82.5547 -27.8324 -82.086 -28.9574 Q-81.6172 -30.0824 -80.586 -31.1605 L-79.9766 -31.1605 Q-80.9454 -30.098 -81.4297 -28.9261 Q-81.9141 -27.7543 -81.9141 -26.5199 Q-81.9141 -25.1918 -81.4766 -24.1761 L-81.9922 -24.1761 Q-82.5547 -25.2074 -82.5547 -26.5043 ZM-78.9947 -27.8168 L-79.4947 -25.4418 L-80.1509 -25.4418 L-78.9478 -31.1605 L-77.6978 -31.1605 Q-75.9634 -31.1605 -75.9634 -29.723 Q-75.9634 -28.3636 -77.4009 -27.973 L-76.4634 -25.4418 L-77.1822 -25.4418 L-78.0103 -27.8168 L-78.9947 -27.8168 ZM-78.4166 -30.5668 Q-78.8072 -28.6449 -78.8697 -28.3949 L-78.2134 -28.3949 Q-77.4634 -28.3949 -77.0572 -28.723 Q-76.6509 -29.0511 -76.6509 -29.6761 Q-76.6509 -30.1449 -76.9088 -30.3558 Q-77.1666 -30.5668 -77.7603 -30.5668 L-78.4166 -30.5668 ZM-73.7775 -28.8168 Q-73.7775 -27.4886 -74.254 -26.3558 Q-74.7306 -25.223 -75.7462 -24.1761 L-76.3556 -24.1761 Q-74.4181 -26.3324 -74.4181 -28.8168 Q-74.4181 -30.1449 -74.8556 -31.1605 L-74.34 -31.1605 Q-73.7775 -30.098 -73.7775 -28.8168 Z"/><path style="stroke:none;" d="M-127.2746 -0.4822 Q-127.2746 -1.8103 -126.8059 -2.9353 Q-126.3371 -4.0603 -125.3059 -5.1384 L-124.6965 -5.1384 Q-125.6653 -4.0759 -126.1496 -2.9041 Q-126.634 -1.7322 -126.634 -0.4978 Q-126.634 0.8303 -126.1965 1.8459 L-126.7121 1.8459 Q-127.2746 0.8147 -127.2746 -0.4822 ZM-121.6521 -1.0759 Q-121.6521 -0.2478 -122.1989 0.2053 Q-122.7458 0.6584 -123.7458 0.6584 Q-124.1521 0.6584 -124.4646 0.6037 Q-124.7771 0.5491 -125.0583 0.4084 L-125.0583 -0.2478 Q-124.4333 0.0803 -123.7302 0.0803 Q-123.1052 0.0803 -122.7302 -0.2166 Q-122.3552 -0.5134 -122.3552 -1.0291 Q-122.3552 -1.3416 -122.5583 -1.5681 Q-122.7614 -1.7947 -123.3239 -2.1228 Q-123.9177 -2.4509 -124.1443 -2.7791 Q-124.3708 -3.1072 -124.3708 -3.5603 Q-124.3708 -4.2947 -123.8552 -4.7556 Q-123.3396 -5.2166 -122.4958 -5.2166 Q-122.1208 -5.2166 -121.7849 -5.1384 Q-121.4489 -5.0603 -121.0739 -4.8884 L-121.3396 -4.2947 Q-121.5896 -4.4509 -121.9099 -4.5369 Q-122.2302 -4.6228 -122.4958 -4.6228 Q-123.0271 -4.6228 -123.3474 -4.3494 Q-123.6677 -4.0759 -123.6677 -3.6072 Q-123.6677 -3.4041 -123.5974 -3.2556 Q-123.5271 -3.1072 -123.3864 -2.9744 Q-123.2458 -2.8416 -122.8239 -2.5916 Q-122.2614 -2.2478 -122.0583 -2.0525 Q-121.8552 -1.8572 -121.7536 -1.6228 Q-121.6521 -1.3884 -121.6521 -1.0759 ZM-119.0576 -2.7947 Q-119.0576 -1.4666 -119.5341 -0.3338 Q-120.0107 0.7991 -121.0263 1.8459 L-121.6357 1.8459 Q-119.6982 -0.3103 -119.6982 -2.7947 Q-119.6982 -4.1228 -120.1357 -5.1384 L-119.6201 -5.1384 Q-119.0576 -4.0759 -119.0576 -2.7947 Z"/><path style="fill:none; stroke:black;" d="M-142.916 32.522 L-143.166 32.955 L-143.666 32.955"/><path style="stroke:none;" d="M-152.5544 25.4587 Q-152.5544 24.1306 -152.0857 23.0056 Q-151.6169 21.8806 -150.5857 20.8024 L-149.9763 20.8024 Q-150.9451 21.8649 -151.4294 23.0368 Q-151.9138 24.2087 -151.9138 25.4431 Q-151.9138 26.7712 -151.4763 27.7868 L-151.9919 27.7868 Q-152.5544 26.7556 -152.5544 25.4587 ZM-148.9944 24.1462 L-149.4944 26.5212 L-150.1506 26.5212 L-148.9475 20.8024 L-147.6975 20.8024 Q-145.9631 20.8024 -145.9631 22.2399 Q-145.9631 23.5993 -147.4006 23.9899 L-146.4631 26.5212 L-147.1819 26.5212 L-148.01 24.1462 L-148.9944 24.1462 ZM-148.4162 21.3962 Q-148.8069 23.3181 -148.8694 23.5681 L-148.2131 23.5681 Q-147.4631 23.5681 -147.0569 23.2399 Q-146.6506 22.9118 -146.6506 22.2868 Q-146.6506 21.8181 -146.9084 21.6071 Q-147.1662 21.3962 -147.76 21.3962 L-148.4162 21.3962 ZM-143.7771 23.1462 Q-143.7771 24.4743 -144.2537 25.6071 Q-144.7303 26.7399 -145.7459 27.7868 L-146.3553 27.7868 Q-144.4178 25.6306 -144.4178 23.1462 Q-144.4178 21.8181 -144.8553 20.8024 L-144.3396 20.8024 Q-143.7771 21.8649 -143.7771 23.1462 Z"/></g><g transform="translate(323,170)" style="stroke-linecap:butt; fill:rgb(230,0,0); text-rendering:geometricPrecision; color-rendering:optimizeQuality; image-rendering:optimizeQuality; font-family:'Open Sans'; stroke:rgb(230,0,0); color-interpolation:linearRGB; stroke-miterlimit:5;"><path style="stroke:none;" d="M-139.2285 -19.0783 Q-139.2285 -17.0158 -140.2676 -15.8361 Q-141.3066 -14.6564 -143.1504 -14.6564 Q-145.041 -14.6564 -146.0723 -15.8205 Q-147.1035 -16.9846 -147.1035 -19.0939 Q-147.1035 -21.1877 -146.0723 -22.3361 Q-145.041 -23.4846 -143.1504 -23.4846 Q-141.291 -23.4846 -140.2598 -22.3127 Q-139.2285 -21.1408 -139.2285 -19.0783 ZM-146.0566 -19.0783 Q-146.0566 -17.3439 -145.3144 -16.4377 Q-144.5723 -15.5314 -143.1504 -15.5314 Q-141.7285 -15.5314 -141.0019 -16.4299 Q-140.2754 -17.3283 -140.2754 -19.0783 Q-140.2754 -20.8127 -141.0019 -21.7033 Q-141.7285 -22.5939 -143.1504 -22.5939 Q-144.5723 -22.5939 -145.3144 -21.6955 Q-146.0566 -20.7971 -146.0566 -19.0783 Z"/></g><g transform="translate(323,170)" style="stroke-linecap:butt; font-size:8.4px; fill:gray; text-rendering:geometricPrecision; image-rendering:optimizeQuality; color-rendering:optimizeQuality; font-family:'Open Sans'; font-style:italic; stroke:gray; color-interpolation:linearRGB; stroke-miterlimit:5;"><path style="stroke:none;" d="M-172.2744 25.4979 Q-172.2744 24.1698 -171.8057 23.0448 Q-171.3369 21.9198 -170.3057 20.8417 L-169.6963 20.8417 Q-170.665 21.9042 -171.1494 23.0761 Q-171.6338 24.2479 -171.6338 25.4823 Q-171.6338 26.8104 -171.1963 27.8261 L-171.7119 27.8261 Q-172.2744 26.7948 -172.2744 25.4979 ZM-166.6519 24.9042 Q-166.6519 25.7323 -167.1987 26.1854 Q-167.7456 26.6386 -168.7456 26.6386 Q-169.1519 26.6386 -169.4644 26.5839 Q-169.7769 26.5292 -170.0581 26.3886 L-170.0581 25.7323 Q-169.4331 26.0604 -168.73 26.0604 Q-168.105 26.0604 -167.73 25.7636 Q-167.355 25.4667 -167.355 24.9511 Q-167.355 24.6386 -167.5581 24.412 Q-167.7612 24.1854 -168.3237 23.8573 Q-168.9175 23.5292 -169.144 23.2011 Q-169.3706 22.8729 -169.3706 22.4198 Q-169.3706 21.6854 -168.855 21.2245 Q-168.3394 20.7636 -167.4956 20.7636 Q-167.1206 20.7636 -166.7847 20.8417 Q-166.4487 20.9198 -166.0737 21.0917 L-166.3394 21.6854 Q-166.5894 21.5292 -166.9097 21.4432 Q-167.23 21.3573 -167.4956 21.3573 Q-168.0269 21.3573 -168.3472 21.6307 Q-168.6675 21.9042 -168.6675 22.3729 Q-168.6675 22.5761 -168.5972 22.7245 Q-168.5269 22.8729 -168.3862 23.0057 Q-168.2456 23.1386 -167.8237 23.3886 Q-167.2612 23.7323 -167.0581 23.9276 Q-166.855 24.1229 -166.7534 24.3573 Q-166.6519 24.5917 -166.6519 24.9042 ZM-164.0574 23.1854 Q-164.0574 24.5136 -164.5339 25.6464 Q-165.0105 26.7792 -166.0261 27.8261 L-166.6355 27.8261 Q-164.698 25.6698 -164.698 23.1854 Q-164.698 21.8573 -165.1355 20.8417 L-164.6199 20.8417 Q-164.0574 21.9042 -164.0574 23.1854 Z"/><path style="stroke:none;" d="M-172.5547 -26.5043 Q-172.5547 -27.8324 -172.086 -28.9574 Q-171.6172 -30.0824 -170.586 -31.1605 L-169.9766 -31.1605 Q-170.9454 -30.098 -171.4297 -28.9261 Q-171.9141 -27.7543 -171.9141 -26.5199 Q-171.9141 -25.1918 -171.4766 -24.1761 L-171.9922 -24.1761 Q-172.5547 -25.2074 -172.5547 -26.5043 ZM-168.9947 -27.8168 L-169.4947 -25.4418 L-170.1509 -25.4418 L-168.9478 -31.1605 L-167.6978 -31.1605 Q-165.9634 -31.1605 -165.9634 -29.723 Q-165.9634 -28.3636 -167.4009 -27.973 L-166.4634 -25.4418 L-167.1822 -25.4418 L-168.0103 -27.8168 L-168.9947 -27.8168 ZM-168.4166 -30.5668 Q-168.8072 -28.6449 -168.8697 -28.3949 L-168.2134 -28.3949 Q-167.4634 -28.3949 -167.0572 -28.723 Q-166.6509 -29.0511 -166.6509 -29.6761 Q-166.6509 -30.1449 -166.9088 -30.3558 Q-167.1666 -30.5668 -167.7603 -30.5668 L-168.4166 -30.5668 ZM-163.7775 -28.8168 Q-163.7775 -27.4886 -164.254 -26.3558 Q-164.7306 -25.223 -165.7462 -24.1761 L-166.3556 -24.1761 Q-164.4181 -26.3324 -164.4181 -28.8168 Q-164.4181 -30.1449 -164.8556 -31.1605 L-164.34 -31.1605 Q-163.7775 -30.098 -163.7775 -28.8168 Z"/><path style="fill:none; stroke:black;" d="M-187.916 7.408 L-188.166 6.975 L-187.916 6.542"/><path style="stroke:none;" d="M-197.5551 -0.5209 Q-197.5551 -1.8491 -197.0863 -2.9741 Q-196.6176 -4.0991 -195.5863 -5.1772 L-194.9769 -5.1772 Q-195.9457 -4.1147 -196.4301 -2.9428 Q-196.9144 -1.7709 -196.9144 -0.5366 Q-196.9144 0.7916 -196.4769 1.8072 L-196.9926 1.8072 Q-197.5551 0.7759 -197.5551 -0.5209 ZM-193.995 -1.8334 L-194.495 0.5416 L-195.1513 0.5416 L-193.9481 -5.1772 L-192.6981 -5.1772 Q-190.9638 -5.1772 -190.9638 -3.7397 Q-190.9638 -2.3803 -192.4013 -1.9897 L-191.4638 0.5416 L-192.1825 0.5416 L-193.0106 -1.8334 L-193.995 -1.8334 ZM-193.4169 -4.5834 Q-193.8075 -2.6616 -193.87 -2.4116 L-193.2138 -2.4116 Q-192.4638 -2.4116 -192.0575 -2.7397 Q-191.6513 -3.0678 -191.6513 -3.6928 Q-191.6513 -4.1616 -191.9091 -4.3725 Q-192.1669 -4.5834 -192.7606 -4.5834 L-193.4169 -4.5834 ZM-188.7778 -2.8334 Q-188.7778 -1.5053 -189.2543 -0.3725 Q-189.7309 0.7603 -190.7465 1.8072 L-191.3559 1.8072 Q-189.4184 -0.3491 -189.4184 -2.8334 Q-189.4184 -4.1616 -189.8559 -5.1772 L-189.3403 -5.1772 Q-188.7778 -4.1147 -188.7778 -2.8334 Z"/><path style="fill:none; stroke:black;" d="M-112.666 84.915 L-113.166 84.915 L-113.416 85.348"/><path style="stroke:none;" d="M-112.2746 77.4578 Q-112.2746 76.1297 -111.8059 75.0047 Q-111.3371 73.8797 -110.3059 72.8016 L-109.6965 72.8016 Q-110.6653 73.8641 -111.1496 75.0359 Q-111.634 76.2078 -111.634 77.4422 Q-111.634 78.7703 -111.1965 79.7859 L-111.7121 79.7859 Q-112.2746 78.7547 -112.2746 77.4578 ZM-106.6521 76.8641 Q-106.6521 77.6922 -107.1989 78.1453 Q-107.7458 78.5984 -108.7458 78.5984 Q-109.1521 78.5984 -109.4646 78.5437 Q-109.7771 78.4891 -110.0583 78.3484 L-110.0583 77.6922 Q-109.4333 78.0203 -108.7302 78.0203 Q-108.1052 78.0203 -107.7302 77.7234 Q-107.3552 77.4266 -107.3552 76.9109 Q-107.3552 76.5984 -107.5583 76.3719 Q-107.7614 76.1453 -108.3239 75.8172 Q-108.9177 75.4891 -109.1443 75.1609 Q-109.3708 74.8328 -109.3708 74.3797 Q-109.3708 73.6453 -108.8552 73.1844 Q-108.3396 72.7234 -107.4958 72.7234 Q-107.1208 72.7234 -106.7849 72.8016 Q-106.4489 72.8797 -106.0739 73.0516 L-106.3396 73.6453 Q-106.5896 73.4891 -106.9099 73.4031 Q-107.2302 73.3172 -107.4958 73.3172 Q-108.0271 73.3172 -108.3474 73.5906 Q-108.6677 73.8641 -108.6677 74.3328 Q-108.6677 74.5359 -108.5974 74.6844 Q-108.5271 74.8328 -108.3864 74.9656 Q-108.2458 75.0984 -107.8239 75.3484 Q-107.2614 75.6922 -107.0583 75.8875 Q-106.8552 76.0828 -106.7536 76.3172 Q-106.6521 76.5516 -106.6521 76.8641 ZM-104.0576 75.1453 Q-104.0576 76.4734 -104.5341 77.6062 Q-105.0107 78.7391 -106.0263 79.7859 L-106.6357 79.7859 Q-104.6982 77.6297 -104.6982 75.1453 Q-104.6982 73.8172 -105.1357 72.8016 L-104.6201 72.8016 Q-104.0576 73.8641 -104.0576 75.1453 Z"/></g><g transform="translate(323,170)" style="stroke-linecap:butt; fill:rgb(230,0,0); text-rendering:geometricPrecision; color-rendering:optimizeQuality; image-rendering:optimizeQuality; font-family:'Open Sans'; stroke:rgb(230,0,0); color-interpolation:linearRGB; stroke-miterlimit:5;"><path style="stroke:none;" d="M-79.2285 84.8447 Q-79.2285 86.9072 -80.2676 88.0869 Q-81.3066 89.2666 -83.1504 89.2666 Q-85.041 89.2666 -86.0723 88.1025 Q-87.1035 86.9384 -87.1035 84.8291 Q-87.1035 82.7353 -86.0723 81.5869 Q-85.041 80.4384 -83.1504 80.4384 Q-81.291 80.4384 -80.2598 81.6103 Q-79.2285 82.7822 -79.2285 84.8447 ZM-86.0566 84.8447 Q-86.0566 86.5791 -85.3144 87.4853 Q-84.5723 88.3916 -83.1504 88.3916 Q-81.7285 88.3916 -81.0019 87.4931 Q-80.2754 86.5947 -80.2754 84.8447 Q-80.2754 83.1103 -81.0019 82.2197 Q-81.7285 81.3291 -83.1504 81.3291 Q-84.5723 81.3291 -85.3144 82.2275 Q-86.0566 83.1259 -86.0566 84.8447 Z"/></g><g transform="translate(323,170)" style="stroke-linecap:butt; font-size:8.4px; fill:gray; text-rendering:geometricPrecision; image-rendering:optimizeQuality; color-rendering:optimizeQuality; font-family:'Open Sans'; font-style:italic; stroke:gray; color-interpolation:linearRGB; stroke-miterlimit:5;"><path style="stroke:none;" d="M-137.5551 103.4021 Q-137.5551 102.0739 -137.0863 100.9489 Q-136.6176 99.8239 -135.5863 98.7458 L-134.9769 98.7458 Q-135.9457 99.8083 -136.4301 100.9802 Q-136.9144 102.1521 -136.9144 103.3864 Q-136.9144 104.7146 -136.4769 105.7302 L-136.9926 105.7302 Q-137.5551 104.6989 -137.5551 103.4021 ZM-133.995 102.0896 L-134.495 104.4646 L-135.1513 104.4646 L-133.9481 98.7458 L-132.6981 98.7458 Q-130.9638 98.7458 -130.9638 100.1833 Q-130.9638 101.5427 -132.4013 101.9333 L-131.4638 104.4646 L-132.1825 104.4646 L-133.0106 102.0896 L-133.995 102.0896 ZM-133.4169 99.3396 Q-133.8075 101.2614 -133.87 101.5114 L-133.2138 101.5114 Q-132.4638 101.5114 -132.0575 101.1833 Q-131.6513 100.8552 -131.6513 100.2302 Q-131.6513 99.7614 -131.9091 99.5505 Q-132.1669 99.3396 -132.7606 99.3396 L-133.4169 99.3396 ZM-128.7778 101.0896 Q-128.7778 102.4177 -129.2543 103.5505 Q-129.7309 104.6833 -130.7465 105.7302 L-131.3559 105.7302 Q-129.4184 103.5739 -129.4184 101.0896 Q-129.4184 99.7614 -129.8559 98.7458 L-129.3403 98.7458 Q-128.7778 99.8083 -128.7778 101.0896 Z"/><path style="fill:none; stroke:black;" d="M-68.416 110.465 L-68.166 110.898 L-68.416 111.331"/><path style="stroke:none;" d="M-67.5547 103.4017 Q-67.5547 102.0736 -67.086 100.9486 Q-66.6172 99.8236 -65.586 98.7455 L-64.9766 98.7455 Q-65.9454 99.808 -66.4297 100.9799 Q-66.9141 102.1517 -66.9141 103.3861 Q-66.9141 104.7142 -66.4766 105.7299 L-66.9922 105.7299 Q-67.5547 104.6986 -67.5547 103.4017 ZM-63.9947 102.0892 L-64.4947 104.4642 L-65.1509 104.4642 L-63.9478 98.7455 L-62.6978 98.7455 Q-60.9634 98.7455 -60.9634 100.183 Q-60.9634 101.5424 -62.4009 101.933 L-61.4634 104.4642 L-62.1822 104.4642 L-63.0103 102.0892 L-63.9947 102.0892 ZM-63.4166 99.3392 Q-63.8072 101.2611 -63.8697 101.5111 L-63.2134 101.5111 Q-62.4634 101.5111 -62.0572 101.183 Q-61.6509 100.8549 -61.6509 100.2299 Q-61.6509 99.7611 -61.9088 99.5502 Q-62.1666 99.3392 -62.7603 99.3392 L-63.4166 99.3392 ZM-58.7775 101.0892 Q-58.7775 102.4174 -59.254 103.5502 Q-59.7306 104.683 -60.7462 105.7299 L-61.3556 105.7299 Q-59.4181 103.5736 -59.4181 101.0892 Q-59.4181 99.7611 -59.8556 98.7455 L-59.34 98.7455 Q-58.7775 99.808 -58.7775 101.0892 Z"/><path style="fill:none; stroke:black;" d="M-113.416 136.445 L-113.166 136.878 L-112.666 136.878"/><path style="stroke:none;" d="M-112.2744 129.4209 Q-112.2744 128.0928 -111.8057 126.9678 Q-111.3369 125.8428 -110.3057 124.7647 L-109.6963 124.7647 Q-110.665 125.8272 -111.1494 126.9991 Q-111.6338 128.1709 -111.6338 129.4053 Q-111.6338 130.7334 -111.1963 131.7491 L-111.7119 131.7491 Q-112.2744 130.7178 -112.2744 129.4209 ZM-106.6519 128.8272 Q-106.6519 129.6553 -107.1987 130.1084 Q-107.7456 130.5616 -108.7456 130.5616 Q-109.1519 130.5616 -109.4644 130.5069 Q-109.7769 130.4522 -110.0581 130.3116 L-110.0581 129.6553 Q-109.4331 129.9834 -108.73 129.9834 Q-108.105 129.9834 -107.73 129.6866 Q-107.355 129.3897 -107.355 128.8741 Q-107.355 128.5616 -107.5581 128.335 Q-107.7612 128.1084 -108.3237 127.7803 Q-108.9175 127.4522 -109.144 127.1241 Q-109.3706 126.7959 -109.3706 126.3428 Q-109.3706 125.6084 -108.855 125.1475 Q-108.3394 124.6866 -107.4956 124.6866 Q-107.1206 124.6866 -106.7847 124.7647 Q-106.4487 124.8428 -106.0737 125.0147 L-106.3394 125.6084 Q-106.5894 125.4522 -106.9097 125.3663 Q-107.23 125.2803 -107.4956 125.2803 Q-108.0269 125.2803 -108.3472 125.5538 Q-108.6675 125.8272 -108.6675 126.2959 Q-108.6675 126.4991 -108.5972 126.6475 Q-108.5269 126.7959 -108.3862 126.9288 Q-108.2456 127.0616 -107.8237 127.3116 Q-107.2612 127.6553 -107.0581 127.8506 Q-106.855 128.0459 -106.7534 128.2803 Q-106.6519 128.5147 -106.6519 128.8272 ZM-104.0574 127.1084 Q-104.0574 128.4366 -104.5339 129.5694 Q-105.0105 130.7022 -106.0261 131.7491 L-106.6355 131.7491 Q-104.698 129.5928 -104.698 127.1084 Q-104.698 125.7803 -105.1355 124.7647 L-104.6199 124.7647 Q-104.0574 125.8272 -104.0574 127.1084 Z"/><path style="stroke:none;" d="M-92.2743 129.4207 Q-92.2743 128.0926 -91.8055 126.9676 Q-91.3368 125.8426 -90.3055 124.7645 L-89.6962 124.7645 Q-90.6649 125.827 -91.1493 126.9989 Q-91.6337 128.1707 -91.6337 129.4051 Q-91.6337 130.7332 -91.1962 131.7489 L-91.7118 131.7489 Q-92.2743 130.7176 -92.2743 129.4207 ZM-86.6517 128.827 Q-86.6517 129.6551 -87.1986 130.1082 Q-87.7455 130.5614 -88.7455 130.5614 Q-89.1517 130.5614 -89.4642 130.5067 Q-89.7767 130.452 -90.058 130.3114 L-90.058 129.6551 Q-89.433 129.9832 -88.7299 129.9832 Q-88.1049 129.9832 -87.7299 129.6864 Q-87.3549 129.3895 -87.3549 128.8739 Q-87.3549 128.5614 -87.558 128.3348 Q-87.7611 128.1082 -88.3236 127.7801 Q-88.9174 127.452 -89.1439 127.1239 Q-89.3705 126.7957 -89.3705 126.3426 Q-89.3705 125.6082 -88.8549 125.1473 Q-88.3392 124.6864 -87.4955 124.6864 Q-87.1205 124.6864 -86.7846 124.7645 Q-86.4486 124.8426 -86.0736 125.0145 L-86.3392 125.6082 Q-86.5892 125.452 -86.9096 125.3661 Q-87.2299 125.2801 -87.4955 125.2801 Q-88.0267 125.2801 -88.3471 125.5536 Q-88.6674 125.827 -88.6674 126.2957 Q-88.6674 126.4989 -88.5971 126.6473 Q-88.5267 126.7957 -88.3861 126.9286 Q-88.2455 127.0614 -87.8236 127.3114 Q-87.2611 127.6551 -87.058 127.8504 Q-86.8549 128.0457 -86.7533 128.2801 Q-86.6517 128.5145 -86.6517 128.827 ZM-84.0573 127.1082 Q-84.0573 128.4364 -84.5338 129.5692 Q-85.0104 130.702 -86.026 131.7489 L-86.6354 131.7489 Q-84.6979 129.5926 -84.6979 127.1082 Q-84.6979 125.7801 -85.1354 124.7645 L-84.6198 124.7645 Q-84.0573 125.827 -84.0573 127.1082 Z"/><path style="stroke:none;" d="M-217.2744 51.4779 Q-217.2744 50.1498 -216.8057 49.0248 Q-216.3369 47.8998 -215.3057 46.8217 L-214.6963 46.8217 Q-215.665 47.8842 -216.1494 49.0561 Q-216.6338 50.2279 -216.6338 51.4623 Q-216.6338 52.7904 -216.1963 53.8061 L-216.7119 53.8061 Q-217.2744 52.7748 -217.2744 51.4779 ZM-211.6519 50.8842 Q-211.6519 51.7123 -212.1987 52.1654 Q-212.7456 52.6186 -213.7456 52.6186 Q-214.1519 52.6186 -214.4644 52.5639 Q-214.7769 52.5092 -215.0581 52.3686 L-215.0581 51.7123 Q-214.4331 52.0404 -213.73 52.0404 Q-213.105 52.0404 -212.73 51.7436 Q-212.355 51.4467 -212.355 50.9311 Q-212.355 50.6186 -212.5581 50.392 Q-212.7612 50.1654 -213.3237 49.8373 Q-213.9175 49.5092 -214.144 49.1811 Q-214.3706 48.8529 -214.3706 48.3998 Q-214.3706 47.6654 -213.855 47.2045 Q-213.3394 46.7436 -212.4956 46.7436 Q-212.1206 46.7436 -211.7847 46.8217 Q-211.4487 46.8998 -211.0737 47.0717 L-211.3394 47.6654 Q-211.5894 47.5092 -211.9097 47.4232 Q-212.23 47.3373 -212.4956 47.3373 Q-213.0269 47.3373 -213.3472 47.6107 Q-213.6675 47.8842 -213.6675 48.3529 Q-213.6675 48.5561 -213.5972 48.7045 Q-213.5269 48.8529 -213.3862 48.9857 Q-213.2456 49.1186 -212.8237 49.3686 Q-212.2612 49.7123 -212.0581 49.9076 Q-211.855 50.1029 -211.7534 50.3373 Q-211.6519 50.5717 -211.6519 50.8842 ZM-209.0574 49.1654 Q-209.0574 50.4936 -209.5339 51.6264 Q-210.0105 52.7592 -211.0261 53.8061 L-211.6355 53.8061 Q-209.698 51.6498 -209.698 49.1654 Q-209.698 47.8373 -210.1355 46.8217 L-209.6199 46.8217 Q-209.0574 47.8842 -209.0574 49.1654 Z"/><path style="fill:none; stroke:black;" d="M-232.916 84.482 L-233.166 84.915 L-233.666 84.915"/><path style="stroke:none;" d="M-242.5546 77.4188 Q-242.5546 76.0907 -242.0859 74.9657 Q-241.6171 73.8407 -240.5859 72.7626 L-239.9765 72.7626 Q-240.9453 73.8251 -241.4296 74.9969 Q-241.914 76.1688 -241.914 77.4032 Q-241.914 78.7313 -241.4765 79.7469 L-241.9921 79.7469 Q-242.5546 78.7157 -242.5546 77.4188 ZM-238.9946 76.1063 L-239.4946 78.4813 L-240.1508 78.4813 L-238.9477 72.7626 L-237.6977 72.7626 Q-235.9633 72.7626 -235.9633 74.2001 Q-235.9633 75.5594 -237.4008 75.9501 L-236.4633 78.4813 L-237.1821 78.4813 L-238.0102 76.1063 L-238.9946 76.1063 ZM-238.4165 73.3563 Q-238.8071 75.2782 -238.8696 75.5282 L-238.2133 75.5282 Q-237.4633 75.5282 -237.0571 75.2001 Q-236.6508 74.8719 -236.6508 74.2469 Q-236.6508 73.7782 -236.9086 73.5672 Q-237.1665 73.3563 -237.7602 73.3563 L-238.4165 73.3563 ZM-233.7774 75.1063 Q-233.7774 76.4344 -234.2539 77.5672 Q-234.7305 78.7001 -235.7461 79.7469 L-236.3555 79.7469 Q-234.418 77.5907 -234.418 75.1063 Q-234.418 73.7782 -234.8555 72.7626 L-234.3399 72.7626 Q-233.7774 73.8251 -233.7774 75.1063 Z"/></g><g transform="translate(323,170)" style="stroke-linecap:butt; fill:rgb(230,0,0); text-rendering:geometricPrecision; color-rendering:optimizeQuality; image-rendering:optimizeQuality; font-family:'Open Sans'; stroke:rgb(230,0,0); color-interpolation:linearRGB; stroke-miterlimit:5;"><path style="stroke:none;" d="M-229.2285 32.8847 Q-229.2285 34.9472 -230.2676 36.1269 Q-231.3066 37.3066 -233.1504 37.3066 Q-235.041 37.3066 -236.0723 36.1425 Q-237.1035 34.9784 -237.1035 32.8691 Q-237.1035 30.7753 -236.0723 29.6269 Q-235.041 28.4784 -233.1504 28.4784 Q-231.291 28.4784 -230.2598 29.6503 Q-229.2285 30.8222 -229.2285 32.8847 ZM-236.0566 32.8847 Q-236.0566 34.6191 -235.3144 35.5253 Q-234.5723 36.4316 -233.1504 36.4316 Q-231.7285 36.4316 -231.0019 35.5331 Q-230.2754 34.6347 -230.2754 32.8847 Q-230.2754 31.1503 -231.0019 30.2597 Q-231.7285 29.3691 -233.1504 29.3691 Q-234.5723 29.3691 -235.3144 30.2675 Q-236.0566 31.1659 -236.0566 32.8847 Z"/></g><g transform="translate(323,170)" style="stroke-linecap:butt; font-size:8.4px; fill:gray; text-rendering:geometricPrecision; image-rendering:optimizeQuality; color-rendering:optimizeQuality; font-family:'Open Sans'; font-style:italic; stroke:gray; color-interpolation:linearRGB; stroke-miterlimit:5;"><path style="stroke:none;" d="M-262.2746 77.4578 Q-262.2746 76.1297 -261.8058 75.0047 Q-261.3371 73.8797 -260.3058 72.8016 L-259.6965 72.8016 Q-260.6652 73.8641 -261.1496 75.0359 Q-261.634 76.2078 -261.634 77.4422 Q-261.634 78.7703 -261.1965 79.7859 L-261.7121 79.7859 Q-262.2746 78.7547 -262.2746 77.4578 ZM-256.652 76.8641 Q-256.652 77.6922 -257.1989 78.1453 Q-257.7458 78.5984 -258.7458 78.5984 Q-259.152 78.5984 -259.4645 78.5437 Q-259.777 78.4891 -260.0583 78.3484 L-260.0583 77.6922 Q-259.4333 78.0203 -258.7302 78.0203 Q-258.1052 78.0203 -257.7302 77.7234 Q-257.3552 77.4266 -257.3552 76.9109 Q-257.3552 76.5984 -257.5583 76.3719 Q-257.7614 76.1453 -258.3239 75.8172 Q-258.9177 75.4891 -259.1442 75.1609 Q-259.3708 74.8328 -259.3708 74.3797 Q-259.3708 73.6453 -258.8552 73.1844 Q-258.3395 72.7234 -257.4958 72.7234 Q-257.1208 72.7234 -256.7849 72.8016 Q-256.4489 72.8797 -256.0739 73.0516 L-256.3395 73.6453 Q-256.5895 73.4891 -256.9099 73.4031 Q-257.2302 73.3172 -257.4958 73.3172 Q-258.027 73.3172 -258.3474 73.5906 Q-258.6677 73.8641 -258.6677 74.3328 Q-258.6677 74.5359 -258.5974 74.6844 Q-258.527 74.8328 -258.3864 74.9656 Q-258.2458 75.0984 -257.8239 75.3484 Q-257.2614 75.6922 -257.0583 75.8875 Q-256.8552 76.0828 -256.7536 76.3172 Q-256.652 76.5516 -256.652 76.8641 ZM-254.0576 75.1453 Q-254.0576 76.4734 -254.5341 77.6062 Q-255.0107 78.7391 -256.0263 79.7859 L-256.6357 79.7859 Q-254.6982 77.6297 -254.6982 75.1453 Q-254.6982 73.8172 -255.1357 72.8016 L-254.6201 72.8016 Q-254.0576 73.8641 -254.0576 75.1453 Z"/><path style="fill:none; stroke:black;" d="M-262.666 32.955 L-263.166 32.955 L-263.416 33.388"/><path style="fill:none; stroke:black;" d="M-277.916 59.368 L-278.166 58.935 L-277.916 58.502"/><path style="stroke:none;" d="M-287.5544 51.4387 Q-287.5544 50.1106 -287.0857 48.9856 Q-286.6169 47.8606 -285.5857 46.7824 L-284.9763 46.7824 Q-285.945 47.8449 -286.4294 49.0168 Q-286.9138 50.1887 -286.9138 51.4231 Q-286.9138 52.7512 -286.4763 53.7668 L-286.9919 53.7668 Q-287.5544 52.7356 -287.5544 51.4387 ZM-283.9944 50.1262 L-284.4944 52.5012 L-285.1506 52.5012 L-283.9475 46.7824 L-282.6975 46.7824 Q-280.9631 46.7824 -280.9631 48.2199 Q-280.9631 49.5793 -282.4006 49.9699 L-281.4631 52.5012 L-282.1819 52.5012 L-283.01 50.1262 L-283.9944 50.1262 ZM-283.4162 47.3762 Q-283.8069 49.2981 -283.8694 49.5481 L-283.2131 49.5481 Q-282.4631 49.5481 -282.0569 49.2199 Q-281.6506 48.8918 -281.6506 48.2668 Q-281.6506 47.7981 -281.9084 47.5871 Q-282.1662 47.3762 -282.76 47.3762 L-283.4162 47.3762 ZM-278.7771 49.1262 Q-278.7771 50.4543 -279.2537 51.5871 Q-279.7303 52.7199 -280.7459 53.7668 L-281.3553 53.7668 Q-279.4178 51.6106 -279.4178 49.1262 Q-279.4178 47.7981 -279.8553 46.7824 L-279.3396 46.7824 Q-278.7771 47.8449 -278.7771 49.1262 Z"/></g><g transform="translate(323,170)" style="stroke-linecap:butt; text-rendering:geometricPrecision; color-rendering:optimizeQuality; image-rendering:optimizeQuality; font-family:'Open Sans'; color-interpolation:linearRGB; stroke-miterlimit:5;"><path style="stroke:none;" d="M184.2028 -70.6637 L183.2028 -70.6637 L183.2028 -74.695 L178.6872 -74.695 L178.6872 -70.6637 L177.6872 -70.6637 L177.6872 -79.2262 L178.6872 -79.2262 L178.6872 -75.5856 L183.2028 -75.5856 L183.2028 -79.2262 L184.2028 -79.2262 L184.2028 -70.6637 Z"/><path style="stroke:none;" d="M125.3998 -148.4057 L124.3998 -148.4057 L124.3998 -152.437 L119.8842 -152.437 L119.8842 -148.4057 L118.8842 -148.4057 L118.8842 -156.9682 L119.8842 -156.9682 L119.8842 -153.3276 L124.3998 -153.3276 L124.3998 -156.9682 L125.3998 -156.9682 L125.3998 -148.4057 Z"/><path style="stroke:none;" d="M180.7078 -158.7018 L179.7078 -158.7018 L179.7078 -162.733 L175.1922 -162.733 L175.1922 -158.7018 L174.1922 -158.7018 L174.1922 -167.2643 L175.1922 -167.2643 L175.1922 -163.6236 L179.7078 -163.6236 L179.7078 -167.2643 L180.7078 -167.2643 L180.7078 -158.7018 Z"/><path style="stroke:none;" d="M107.8558 -147.7518 L106.8558 -147.7518 L106.8558 -151.783 L102.3402 -151.783 L102.3402 -147.7518 L101.3402 -147.7518 L101.3402 -156.3143 L102.3402 -156.3143 L102.3402 -152.6736 L106.8558 -152.6736 L106.8558 -156.3143 L107.8558 -156.3143 L107.8558 -147.7518 Z"/><path style="stroke:none;" d="M77.3278 -63.8148 L76.3278 -63.8148 L76.3278 -67.846 L71.8122 -67.846 L71.8122 -63.8148 L70.8122 -63.8148 L70.8122 -72.3773 L71.8122 -72.3773 L71.8122 -68.7366 L76.3278 -68.7366 L76.3278 -72.3773 L77.3278 -72.3773 L77.3278 -63.8148 Z"/><path style="stroke:none;" d="M25.0918 -144.7547 L24.0918 -144.7547 L24.0918 -148.786 L19.5762 -148.786 L19.5762 -144.7547 L18.5762 -144.7547 L18.5762 -153.3172 L19.5762 -153.3172 L19.5762 -149.6766 L24.0918 -149.6766 L24.0918 -153.3172 L25.0918 -153.3172 L25.0918 -144.7547 Z"/></g></g></svg></svg></svg></svg>