<svg xmlns:ns0="http://www.w3.org/2000/svg" xmlns="http://www.w3.org/2000/svg"><g transform="translate(0, 0)"><ns0:svg width="473" viewBox="0 0 473 388" style="fill-opacity:1; color-rendering:auto; color-interpolation:auto; text-rendering:auto; stroke:black; stroke-linecap:square; stroke-miterlimit:10; shape-rendering:auto; stroke-opacity:1; fill:black; stroke-dasharray:none; font-weight:normal; stroke-width:1; font-family:'Open Sans'; font-style:normal; stroke-linejoin:miter; font-size:12; stroke-dashoffset:0; image-rendering:auto;" height="388" class="cas-substance-image"><ns0:svg class="cas-substance-single-component"><ns0:rect y="0" x="0" width="473" stroke="none" ry="7" rx="7" height="388" fill="white" class="cas-substance-group" /><ns0:svg y="0" x="0" width="473" viewBox="0 0 473 373" style="fill:black;" height="373" class="cas-substance-single-component-image"><ns0:svg><ns0:g><ns0:g transform="translate(237,187)" style="text-rendering:geometricPrecision; color-rendering:optimizeQuality; color-interpolation:linearRGB; stroke-linecap:butt; image-rendering:optimizeQuality;"><ns0:line y2="-63.765" y1="-41.6107" x2="-74.895" x1="-82.0926" style="fill:none;" /><ns0:line y2="-12.939" y1="-30.55" x2="-64.092" x1="-79.9493" style="fill:none;" /><ns0:line y2="172.5452" y1="158.1724" x2="-68.1213" x1="-59.8239" style="fill:none;" /><ns0:line y2="174.295" y1="159.9223" x2="-65.0902" x1="-56.7928" style="fill:none;" /><ns0:line y2="154.909" y1="154.909" x2="-30.8465" x1="-49.5574" style="fill:none;" /><ns0:line y2="151.409" y1="151.409" x2="-30.8465" x1="-49.5574" style="fill:none;" /><ns0:line y2="127.179" y1="147.0207" x2="-69.909" x1="-58.453" style="fill:none;" /><ns0:line y2="63.765" y1="41.4857" x2="74.895" x1="82.1333" style="fill:none;" /><ns0:line y2="12.939" y1="30.4679" x2="64.092" x1="79.8753" style="fill:none;" /><ns0:line y2="-154.909" y1="-154.909" x2="30.8465" x1="49.5574" style="fill:none;" /><ns0:line y2="-151.409" y1="-151.409" x2="30.8465" x1="49.5574" style="fill:none;" /><ns0:line y2="-172.6189" y1="-158.4224" x2="68.1639" x1="59.9682" style="fill:none;" /><ns0:line y2="-174.3687" y1="-160.1723" x2="65.1327" x1="56.9371" style="fill:none;" /><ns0:line y2="-127.179" y1="-147.2707" x2="69.909" x1="58.3087" style="fill:none;" /><ns0:line y2="43.0027" y1="27.8143" x2="-112.1332" x1="-105.3695" style="fill:none;" /><ns0:line y2="6.1136" y1="17.4754" x2="-120.1631" x1="-107.5429" style="fill:none;" /><ns0:line y2="15.594" y1="20.7028" x2="-73.362" x1="-97.3971" style="fill:none;" /><ns0:line y2="44.9218" y1="46.9344" x2="-139.2205" x1="-120.0667" style="fill:none;" /><ns0:line y2="48.4026" y1="50.4152" x2="-139.5863" x1="-120.4325" style="fill:none;" /><ns0:line y2="75.219" y1="55.1243" x2="-99.909" x1="-111.5097" style="fill:none;" /><ns0:line y2="16.758" y1="4.6931" x2="-150.981" x1="-130.0846" style="fill:none;" /><ns0:line y2="18.7787" y1="7.7242" x2="-147.481" x1="-128.3346" style="fill:none;" /><ns0:line y2="16.758" y1="39.7385" x2="-150.981" x1="-146.0964" style="fill:none;" /><ns0:line y2="4.554" y1="16.758" x2="-178.386" x1="-150.981" style="fill:none;" /><ns0:line y2="-12.939" y1="15.594" x2="-64.092" x1="-73.362" style="fill:none;" /><ns0:line y2="-9.9357" y1="14.7536" x2="-61.3877" x1="-69.4089" style="fill:none;" /><ns0:line y2="37.887" y1="15.594" x2="-53.286" x1="-73.362" style="fill:none;" /><ns0:line y2="-19.176" y1="-12.939" x2="-34.746" x1="-64.092" style="fill:none;" /><ns0:line y2="31.65" y1="37.887" x2="-23.943" x1="-53.286" style="fill:none;" /><ns0:line y2="28.6466" y1="34.0434" x2="-26.6473" x1="-52.0371" style="fill:none;" /><ns0:line y2="3.12" y1="-19.176" x2="-14.673" x1="-34.746" style="fill:none;" /><ns0:line y2="3.96" y1="-15.3324" x2="-18.6262" x1="-35.9951" style="fill:none;" /><ns0:line y2="3.12" y1="31.65" x2="-14.673" x1="-23.943" style="fill:none;" /><ns0:line y2="-3.12" y1="3.12" x2="14.673" x1="-14.673" style="fill:none;" /><ns0:line y2="101.199" y1="75.219" x2="-114.909" x1="-99.909" style="fill:none;" /><ns0:line y2="101.1991" y1="78.719" x2="-110.8676" x1="-97.8883" style="fill:none;" /><ns0:line y2="75.219" y1="75.219" x2="-69.909" x1="-99.909" style="fill:none;" /><ns0:line y2="127.179" y1="101.199" x2="-99.909" x1="-114.909" style="fill:none;" /><ns0:line y2="101.199" y1="75.219" x2="-54.909" x1="-69.909" style="fill:none;" /><ns0:line y2="101.1991" y1="78.719" x2="-58.9505" x1="-71.9297" style="fill:none;" /><ns0:line y2="127.179" y1="127.179" x2="-69.909" x1="-99.909" style="fill:none;" /><ns0:line y2="123.679" y1="123.679" x2="-71.9297" x1="-97.8883" style="fill:none;" /><ns0:line y2="127.179" y1="101.199" x2="-69.909" x1="-54.909" style="fill:none;" /><ns0:line y2="-25.281" y1="4.554" x2="-181.524" x1="-178.386" style="fill:none;" /><ns0:line y2="-22.9053" y1="2.9105" x2="-184.7934" x1="-182.0782" style="fill:none;" /><ns0:line y2="22.188" y1="4.554" x2="-202.656" x1="-178.386" style="fill:none;" /><ns0:line y2="-37.482" y1="-25.281" x2="-208.929" x1="-181.524" style="fill:none;" /><ns0:line y2="9.987" y1="22.188" x2="-230.064" x1="-202.656" style="fill:none;" /><ns0:line y2="7.6113" y1="18.1687" x2="-226.7945" x1="-203.0787" style="fill:none;" /><ns0:line y2="-19.848" y1="-37.482" x2="-233.199" x1="-208.929" style="fill:none;" /><ns0:line y2="-18.2043" y1="-33.4627" x2="-229.5069" x1="-208.5065" style="fill:none;" /><ns0:line y2="-19.848" y1="9.987" x2="-233.199" x1="-230.064" style="fill:none;" /><ns0:line y2="19.176" y1="-3.12" x2="34.746" x1="14.673" style="fill:none;" /><ns0:line y2="15.3324" y1="-3.96" x2="35.9951" x1="18.6262" style="fill:none;" /><ns0:line y2="-31.65" y1="-3.12" x2="23.943" x1="14.673" style="fill:none;" /><ns0:line y2="12.939" y1="19.176" x2="64.092" x1="34.746" style="fill:none;" /><ns0:line y2="-37.887" y1="-31.65" x2="53.286" x1="23.943" style="fill:none;" /><ns0:line y2="-34.0434" y1="-28.6466" x2="52.0371" x1="26.6473" style="fill:none;" /><ns0:line y2="-15.594" y1="12.939" x2="73.362" x1="64.092" style="fill:none;" /><ns0:line y2="-14.7536" y1="9.9357" x2="69.4089" x1="61.3877" style="fill:none;" /><ns0:line y2="-15.594" y1="-37.887" x2="73.362" x1="53.286" style="fill:none;" /><ns0:line y2="-20.7028" y1="-15.594" x2="97.3971" x1="73.362" style="fill:none;" /><ns0:line y2="-43.2527" y1="-28.0643" x2="112.2445" x1="105.4808" style="fill:none;" /><ns0:line y2="-6.1136" y1="-17.4754" x2="120.1631" x1="107.5429" style="fill:none;" /><ns0:line y2="-44.9218" y1="-46.9344" x2="139.2205" x1="120.0667" style="fill:none;" /><ns0:line y2="-48.4026" y1="-50.4152" x2="139.5863" x1="120.4325" style="fill:none;" /><ns0:line y2="-75.219" y1="-55.3743" x2="99.909" x1="111.3653" style="fill:none;" /><ns0:line y2="-16.758" y1="-4.6931" x2="150.981" x1="130.0846" style="fill:none;" /><ns0:line y2="-18.7787" y1="-7.7242" x2="147.481" x1="128.3346" style="fill:none;" /><ns0:line y2="-16.758" y1="-39.9885" x2="150.981" x1="146.0433" style="fill:none;" /><ns0:line y2="-4.554" y1="-16.758" x2="178.386" x1="150.981" style="fill:none;" /><ns0:line y2="-75.219" y1="-75.219" x2="69.909" x1="99.909" style="fill:none;" /><ns0:line y2="-78.719" y1="-78.719" x2="71.9297" x1="97.8883" style="fill:none;" /><ns0:line y2="-101.199" y1="-75.219" x2="114.909" x1="99.909" style="fill:none;" /><ns0:line y2="-101.199" y1="-75.219" x2="54.909" x1="69.909" style="fill:none;" /><ns0:line y2="-127.179" y1="-101.199" x2="99.909" x1="114.909" style="fill:none;" /><ns0:line y2="-123.679" y1="-101.199" x2="97.8883" x1="110.8676" style="fill:none;" /><ns0:line y2="-127.179" y1="-101.199" x2="69.909" x1="54.909" style="fill:none;" /><ns0:line y2="-123.679" y1="-101.199" x2="71.9297" x1="58.9505" style="fill:none;" /><ns0:line y2="-127.179" y1="-127.179" x2="69.909" x1="99.909" style="fill:none;" /><ns0:line y2="25.281" y1="-4.554" x2="181.524" x1="178.386" style="fill:none;" /><ns0:line y2="22.9053" y1="-2.9105" x2="184.7934" x1="182.0782" style="fill:none;" /><ns0:line y2="-22.188" y1="-4.554" x2="202.656" x1="178.386" style="fill:none;" /><ns0:line y2="37.482" y1="25.281" x2="208.929" x1="181.524" style="fill:none;" /><ns0:line y2="-9.987" y1="-22.188" x2="230.064" x1="202.656" style="fill:none;" /><ns0:line y2="-7.6113" y1="-18.1687" x2="226.7945" x1="203.0787" style="fill:none;" /><ns0:line y2="19.848" y1="37.482" x2="233.199" x1="208.929" style="fill:none;" /><ns0:line y2="18.2043" y1="33.4627" x2="229.5069" x1="208.5065" style="fill:none;" /><ns0:line y2="19.848" y1="-9.987" x2="233.199" x1="230.064" style="fill:none;" /></ns0:g><ns0:g transform="translate(237,187)" style="fill:rgb(230,0,0); text-rendering:geometricPrecision; color-rendering:optimizeQuality; image-rendering:optimizeQuality; font-family:'Open Sans'; stroke:rgb(230,0,0); color-interpolation:linearRGB;"><ns0:path style="stroke:none;" d="M-80.2275 -35.3023 Q-80.2275 -33.2398 -81.2666 -32.0601 Q-82.3056 -30.8804 -84.1494 -30.8804 Q-86.04 -30.8804 -87.0713 -32.0445 Q-88.1025 -33.2086 -88.1025 -35.3179 Q-88.1025 -37.4117 -87.0713 -38.5601 Q-86.04 -39.7086 -84.1494 -39.7086 Q-82.29 -39.7086 -81.2588 -38.5367 Q-80.2275 -37.3648 -80.2275 -35.3023 ZM-87.0556 -35.3023 Q-87.0556 -33.5679 -86.3134 -32.6617 Q-85.5713 -31.7554 -84.1494 -31.7554 Q-82.7275 -31.7554 -82.0009 -32.6539 Q-81.2744 -33.5523 -81.2744 -35.3023 Q-81.2744 -37.0367 -82.0009 -37.9273 Q-82.7275 -38.8179 -84.1494 -38.8179 Q-85.5713 -38.8179 -86.3134 -37.9195 Q-87.0556 -37.0211 -87.0556 -35.3023 Z" /><ns0:path style="fill:rgb(0,5,255); stroke:none;" d="M-51.5574 157.3152 L-52.6981 157.3152 L-57.3856 150.1277 L-57.4324 150.1277 Q-57.3387 151.3934 -57.3387 152.4402 L-57.3387 157.3152 L-58.2606 157.3152 L-58.2606 148.7527 L-57.1356 148.7527 L-52.4637 155.909 L-52.4168 155.909 Q-52.4168 155.7527 -52.4637 154.8934 Q-52.5106 154.034 -52.4949 153.659 L-52.4949 148.7527 L-51.5574 148.7527 L-51.5574 157.3152 Z" /><ns0:path style="stroke:none;" d="M-65.9715 179.0717 Q-65.9715 181.1342 -67.0106 182.3139 Q-68.0496 183.4936 -69.8934 183.4936 Q-71.784 183.4936 -72.8153 182.3295 Q-73.8465 181.1654 -73.8465 179.0561 Q-73.8465 176.9623 -72.8153 175.8139 Q-71.784 174.6654 -69.8934 174.6654 Q-68.034 174.6654 -67.0028 175.8373 Q-65.9715 177.0092 -65.9715 179.0717 ZM-72.7996 179.0717 Q-72.7996 180.8061 -72.0574 181.7123 Q-71.3153 182.6186 -69.8934 182.6186 Q-68.4715 182.6186 -67.7449 181.7201 Q-67.0184 180.8217 -67.0184 179.0717 Q-67.0184 177.3373 -67.7449 176.4467 Q-68.4715 175.5561 -69.8934 175.5561 Q-71.3153 175.5561 -72.0574 176.4545 Q-72.7996 177.3529 -72.7996 179.0717 Z" /><ns0:path style="stroke:none;" d="M-20.9715 153.0887 Q-20.9715 155.1512 -22.0106 156.3309 Q-23.0496 157.5106 -24.8934 157.5106 Q-26.784 157.5106 -27.8152 156.3465 Q-28.8465 155.1824 -28.8465 153.0731 Q-28.8465 150.9793 -27.8152 149.8309 Q-26.784 148.6824 -24.8934 148.6824 Q-23.034 148.6824 -22.0027 149.8543 Q-20.9715 151.0262 -20.9715 153.0887 ZM-27.7996 153.0887 Q-27.7996 154.8231 -27.0574 155.7293 Q-26.3152 156.6356 -24.8934 156.6356 Q-23.4715 156.6356 -22.7449 155.7371 Q-22.0184 154.8387 -22.0184 153.0887 Q-22.0184 151.3543 -22.7449 150.4637 Q-23.4715 149.5731 -24.8934 149.5731 Q-26.3152 149.5731 -27.0574 150.4715 Q-27.7996 151.3699 -27.7996 153.0887 Z" /><ns0:path style="stroke:none;" d="M88.1025 35.1617 Q88.1025 37.2242 87.0634 38.4039 Q86.0244 39.5836 84.1806 39.5836 Q82.29 39.5836 81.2588 38.4195 Q80.2275 37.2554 80.2275 35.1461 Q80.2275 33.0523 81.2588 31.9039 Q82.29 30.7554 84.1806 30.7554 Q86.04 30.7554 87.0713 31.9273 Q88.1025 33.0992 88.1025 35.1617 ZM81.2744 35.1617 Q81.2744 36.8961 82.0166 37.8023 Q82.7588 38.7086 84.1806 38.7086 Q85.6025 38.7086 86.3291 37.8101 Q87.0556 36.9117 87.0556 35.1617 Q87.0556 33.4273 86.3291 32.5367 Q85.6025 31.6461 84.1806 31.6461 Q82.7588 31.6461 82.0166 32.5445 Q81.2744 33.4429 81.2744 35.1617 Z" /><ns0:path style="fill:rgb(0,5,255); stroke:none;" d="M58.2606 -149.0027 L57.1199 -149.0027 L52.4324 -156.1902 L52.3856 -156.1902 Q52.4793 -154.9246 52.4793 -153.8777 L52.4793 -149.0027 L51.5574 -149.0027 L51.5574 -157.5652 L52.6824 -157.5652 L57.3543 -150.409 L57.4012 -150.409 Q57.4012 -150.5652 57.3543 -151.4246 Q57.3074 -152.284 57.3231 -152.659 L57.3231 -157.5652 L58.2606 -157.5652 L58.2606 -149.0027 Z" /><ns0:path style="stroke:none;" d="M28.8465 -153.2293 Q28.8465 -151.1668 27.8074 -149.9871 Q26.7684 -148.8074 24.9246 -148.8074 Q23.034 -148.8074 22.0027 -149.9715 Q20.9715 -151.1356 20.9715 -153.2449 Q20.9715 -155.3387 22.0027 -156.4871 Q23.034 -157.6356 24.9246 -157.6356 Q26.784 -157.6356 27.8152 -156.4637 Q28.8465 -155.2918 28.8465 -153.2293 ZM22.0184 -153.2293 Q22.0184 -151.4949 22.7606 -150.5887 Q23.5027 -149.6824 24.9246 -149.6824 Q26.3465 -149.6824 27.0731 -150.5809 Q27.7996 -151.4793 27.7996 -153.2293 Q27.7996 -154.9637 27.0731 -155.8543 Q26.3465 -156.7449 24.9246 -156.7449 Q23.5027 -156.7449 22.7606 -155.8465 Q22.0184 -154.9481 22.0184 -153.2293 Z" /><ns0:path style="stroke:none;" d="M73.8465 -179.2123 Q73.8465 -177.1498 72.8074 -175.9701 Q71.7684 -174.7904 69.9246 -174.7904 Q68.034 -174.7904 67.0028 -175.9545 Q65.9715 -177.1186 65.9715 -179.2279 Q65.9715 -181.3217 67.0028 -182.4701 Q68.034 -183.6186 69.9246 -183.6186 Q71.784 -183.6186 72.8153 -182.4467 Q73.8465 -181.2748 73.8465 -179.2123 ZM67.0184 -179.2123 Q67.0184 -177.4779 67.7606 -176.5717 Q68.5028 -175.6654 69.9246 -175.6654 Q71.3465 -175.6654 72.0731 -176.5639 Q72.7996 -177.4623 72.7996 -179.2123 Q72.7996 -180.9467 72.0731 -181.8373 Q71.3465 -182.7279 69.9246 -182.7279 Q68.5028 -182.7279 67.7606 -181.8295 Q67.0184 -180.9311 67.0184 -179.2123 Z" /><ns0:path style="fill:rgb(0,5,255); stroke:none;" d="M-99.3534 25.9872 L-100.4941 25.9872 L-105.1816 18.7997 L-105.2284 18.7997 Q-105.1347 20.0654 -105.1347 21.1122 L-105.1347 25.9872 L-106.0566 25.9872 L-106.0566 17.4247 L-104.9316 17.4247 L-100.2597 24.581 L-100.2128 24.581 Q-100.2128 24.4247 -100.2597 23.5654 Q-100.3066 22.706 -100.2909 22.331 L-100.2909 17.4247 L-99.3534 17.4247 L-99.3534 25.9872 Z" /><ns0:path style="fill:rgb(0,5,255); stroke:none;" d="M-111.5574 53.3923 L-112.6981 53.3923 L-117.3856 46.2048 L-117.4324 46.2048 Q-117.3387 47.4704 -117.3387 48.5173 L-117.3387 53.3923 L-118.2606 53.3923 L-118.2606 44.8298 L-117.1356 44.8298 L-112.4637 51.986 L-112.4168 51.986 Q-112.4168 51.8298 -112.4637 50.9704 Q-112.5106 50.111 -112.4949 49.736 L-112.4949 44.8298 L-111.5574 44.8298 L-111.5574 53.3923 Z" /><ns0:path style="fill:black; stroke:none;" d="M-108.4168 46.4016 L-106.8074 46.4016 L-106.8074 46.9485 L-108.4168 46.9485 L-108.4168 48.6048 L-108.9481 48.6048 L-108.9481 46.9485 L-110.5574 46.9485 L-110.5574 46.4016 L-108.9481 46.4016 L-108.9481 44.7298 L-108.4168 44.7298 L-108.4168 46.4016 Z" /><ns0:path style="fill:rgb(0,5,255); stroke:none;" d="M-121.6494 5.9142 L-122.7901 5.9142 L-127.4776 -1.2733 L-127.5244 -1.2733 Q-127.4307 -0.0076 -127.4307 1.0392 L-127.4307 5.9142 L-128.3526 5.9142 L-128.3526 -2.6483 L-127.2276 -2.6483 L-122.5557 4.508 L-122.5088 4.508 Q-122.5088 4.3517 -122.5557 3.4924 Q-122.6026 2.633 -122.5869 2.258 L-122.5869 -2.6483 L-121.6494 -2.6483 L-121.6494 5.9142 Z" /><ns0:path style="fill:rgb(0,5,255); stroke:none;" d="M-141.3924 50.2573 L-142.5331 50.2573 L-147.2206 43.0698 L-147.2674 43.0698 Q-147.1737 44.3354 -147.1737 45.3823 L-147.1737 50.2573 L-148.0956 50.2573 L-148.0956 41.6948 L-146.9706 41.6948 L-142.2987 48.851 L-142.2518 48.851 Q-142.2518 48.6948 -142.2987 47.8354 Q-142.3456 46.976 -142.3299 46.601 L-142.3299 41.6948 L-141.3924 41.6948 L-141.3924 50.2573 Z" /></ns0:g><ns0:g transform="translate(237,187)" style="stroke-linecap:butt; text-rendering:geometricPrecision; color-rendering:optimizeQuality; image-rendering:optimizeQuality; font-family:'Open Sans'; color-interpolation:linearRGB; stroke-miterlimit:5;"><ns0:path style="fill:none;" d="M-150.548 16.508 L-150.981 16.758 L-150.877 17.2471" /><ns0:path style="fill:none;" d="M-73.2075 15.1185 L-73.362 15.594 L-73.8511 15.698" /><ns0:path style="fill:none;" d="M-64.2465 -12.4635 L-64.092 -12.939 L-63.6029 -13.0429" /><ns0:path style="fill:none;" d="M-53.6206 37.5155 L-53.286 37.887 L-52.7969 37.783" /><ns0:path style="fill:none;" d="M-35.2351 -19.0721 L-34.746 -19.176 L-34.4115 -18.8044" /><ns0:path style="fill:none;" d="M-24.4321 31.754 L-23.943 31.65 L-23.7885 31.1745" /><ns0:path style="fill:none;" d="M-15.0075 2.7484 L-14.673 3.12 L-14.8275 3.5955" /><ns0:path style="fill:none;" d="M-100.159 75.652 L-99.909 75.219 L-100.159 74.786" /><ns0:path style="fill:none;" d="M-114.659 100.766 L-114.909 101.199 L-114.659 101.632" /><ns0:path style="fill:none;" d="M-70.409 75.219 L-69.909 75.219 L-69.659 75.652" /><ns0:path style="fill:none;" d="M-100.159 126.746 L-99.909 127.179 L-99.409 127.179" /><ns0:path style="fill:none;" d="M-55.159 100.766 L-54.909 101.199 L-55.159 101.632" /><ns0:path style="fill:none;" d="M-70.409 127.179 L-69.909 127.179 L-69.659 127.612" /><ns0:path style="fill:none;" d="M-178.4383 4.0567 L-178.386 4.554 L-177.9292 4.7574" /><ns0:path style="fill:none;" d="M-181.4717 -24.7837 L-181.524 -25.281 L-181.9808 -25.4844" /><ns0:path style="fill:none;" d="M-202.2515 21.8941 L-202.656 22.188 L-203.1128 21.9847" /><ns0:path style="fill:none;" d="M-208.4722 -37.2786 L-208.929 -37.482 L-209.3335 -37.1881" /><ns0:path style="fill:none;" d="M-229.6072 10.1903 L-230.064 9.987 L-230.1162 9.4897" /><ns0:path style="fill:none;" d="M-232.7945 -20.1419 L-233.199 -19.848 L-233.1468 -19.3507" /><ns0:path style="fill:none;" d="M15.0075 -2.7484 L14.673 -3.12 L14.8275 -3.5955" /><ns0:path style="fill:none;" d="M34.4115 18.8044 L34.746 19.176 L35.2351 19.0721" /><ns0:path style="fill:none;" d="M23.7885 -31.1745 L23.943 -31.65 L24.4321 -31.754" /><ns0:path style="fill:none;" d="M64.2465 12.4635 L64.092 12.939 L64.4266 13.3106" /><ns0:path style="fill:none;" d="M52.7969 -37.783 L53.286 -37.887 L53.6206 -37.5155" /><ns0:path style="fill:none;" d="M73.2075 -15.1185 L73.362 -15.594 L73.0274 -15.9655" /><ns0:path style="fill:rgb(0,5,255); stroke:none;" d="M106.0566 -17.6747 L104.9159 -17.6747 L100.2284 -24.8622 L100.1816 -24.8622 Q100.2753 -23.5966 100.2753 -22.5497 L100.2753 -17.6747 L99.3534 -17.6747 L99.3534 -26.2372 L100.4784 -26.2372 L105.1503 -19.081 L105.1972 -19.081 Q105.1972 -19.2372 105.1503 -20.0966 Q105.1034 -20.956 105.1191 -21.331 L105.1191 -26.2372 L106.0566 -26.2372 L106.0566 -17.6747 Z" /><ns0:path style="fill:rgb(0,5,255); stroke:none;" d="M118.2606 -45.0798 L117.1199 -45.0798 L112.4324 -52.2673 L112.3856 -52.2673 Q112.4793 -51.0016 112.4793 -49.9548 L112.4793 -45.0798 L111.5574 -45.0798 L111.5574 -53.6423 L112.6824 -53.6423 L117.3543 -46.486 L117.4012 -46.486 Q117.4012 -46.6423 117.3543 -47.5016 Q117.3074 -48.361 117.3231 -48.736 L117.3231 -53.6423 L118.2606 -53.6423 L118.2606 -45.0798 Z" /><ns0:path style="stroke:none;" d="M121.4012 -52.0704 L123.0106 -52.0704 L123.0106 -51.5235 L121.4012 -51.5235 L121.4012 -49.8672 L120.8699 -49.8672 L120.8699 -51.5235 L119.2606 -51.5235 L119.2606 -52.0704 L120.8699 -52.0704 L120.8699 -53.7422 L121.4012 -53.7422 L121.4012 -52.0704 Z" /><ns0:path style="fill:rgb(0,5,255); stroke:none;" d="M128.3526 2.3983 L127.2119 2.3983 L122.5244 -4.7892 L122.4776 -4.7892 Q122.5713 -3.5236 122.5713 -2.4767 L122.5713 2.3983 L121.6494 2.3983 L121.6494 -6.1642 L122.7744 -6.1642 L127.4463 0.992 L127.4932 0.992 Q127.4932 0.8358 127.4463 -0.0236 Q127.3994 -0.883 127.4151 -1.258 L127.4151 -6.1642 L128.3526 -6.1642 L128.3526 2.3983 Z" /><ns0:path style="fill:rgb(0,5,255); stroke:none;" d="M148.0956 -41.9448 L146.9549 -41.9448 L142.2674 -49.1323 L142.2206 -49.1323 Q142.3143 -47.8666 142.3143 -46.8198 L142.3143 -41.9448 L141.3924 -41.9448 L141.3924 -50.5073 L142.5174 -50.5073 L147.1893 -43.351 L147.2362 -43.351 Q147.2362 -43.5073 147.1893 -44.3666 Q147.1424 -45.226 147.1581 -45.601 L147.1581 -50.5073 L148.0956 -50.5073 L148.0956 -41.9448 Z" /><ns0:path style="fill:none;" d="M150.548 -16.508 L150.981 -16.758 L150.877 -17.2471" /><ns0:path style="fill:none;" d="M99.409 -75.219 L99.909 -75.219 L100.159 -74.786" /><ns0:path style="fill:none;" d="M70.409 -75.219 L69.909 -75.219 L69.659 -75.652" /><ns0:path style="fill:none;" d="M114.659 -100.766 L114.909 -101.199 L114.659 -101.632" /><ns0:path style="fill:none;" d="M55.159 -100.766 L54.909 -101.199 L55.159 -101.632" /><ns0:path style="fill:none;" d="M100.159 -126.746 L99.909 -127.179 L99.409 -127.179" /><ns0:path style="fill:none;" d="M69.659 -126.746 L69.909 -127.179 L69.659 -127.612" /><ns0:path style="fill:none;" d="M178.4383 -4.0567 L178.386 -4.554 L177.9292 -4.7574" /><ns0:path style="fill:none;" d="M181.4717 24.7837 L181.524 25.281 L181.9808 25.4844" /><ns0:path style="fill:none;" d="M202.2515 -21.8941 L202.656 -22.188 L203.1128 -21.9847" /><ns0:path style="fill:none;" d="M208.4722 37.2786 L208.929 37.482 L209.3335 37.1881" /><ns0:path style="fill:none;" d="M229.6072 -10.1903 L230.064 -9.987 L230.1162 -9.4897" /><ns0:path style="fill:none;" d="M232.7945 20.1419 L233.199 19.848 L233.1468 19.3507" /></ns0:g></ns0:g></ns0:svg></ns0:svg><ns0:svg y="373" x="213" class="cas-substance-saf"><ns0:svg y="5" x="0" width="4" style="fill:black;" height="4" class="cas-substance-saf-dot"><ns0:circle stroke="none" r="2" fill="black" cy="2" cx="2" /></ns0:svg><ns0:svg y="0" x="7" width="12" style="fill:black;" height="15" class="cas-substance-saf-coefficient"><ns0:svg><ns0:g><ns0:g transform="translate(6,7)" style="text-rendering:geometricPrecision; font-family:'Open Sans'; color-interpolation:linearRGB; color-rendering:optimizeQuality; image-rendering:optimizeQuality;"><ns0:path style="stroke:none;" d="M2.8125 4.2188 L-2.8125 4.2188 L-2.8125 3.375 L-0.5625 1.1094 Q0.4688 0.0625 0.7969 -0.3828 Q1.125 -0.8281 1.2891 -1.25 Q1.4531 -1.6719 1.4531 -2.1562 Q1.4531 -2.8438 1.0391 -3.2422 Q0.625 -3.6406 -0.125 -3.6406 Q-0.6562 -3.6406 -1.1328 -3.4609 Q-1.6094 -3.2812 -2.1875 -2.8281 L-2.7031 -3.4844 Q-1.5312 -4.4688 -0.125 -4.4688 Q1.0781 -4.4688 1.7656 -3.8516 Q2.4531 -3.2344 2.4531 -2.1875 Q2.4531 -1.375 1.9922 -0.5781 Q1.5312 0.2188 0.2812 1.4375 L-1.5938 3.2656 L-1.5938 3.3125 L2.8125 3.3125 L2.8125 4.2188 Z" /></ns0:g></ns0:g></ns0:svg></ns0:svg><ns0:svg y="0" x="23" width="19" style="fill:black;" height="15" class="cas-substance-saf-image"><ns0:svg><ns0:g><ns0:g transform="translate(7,8)" style="fill:rgb(0,138,0); text-rendering:geometricPrecision; color-rendering:optimizeQuality; image-rendering:optimizeQuality; font-family:'Open Sans'; stroke:rgb(0,138,0); color-interpolation:linearRGB;"><ns0:path style="stroke:none;" d="M-0.3086 -3.3594 Q-1.7148 -3.3594 -2.5352 -2.4219 Q-3.3555 -1.4844 -3.3555 0.1562 Q-3.3555 1.8281 -2.5664 2.75 Q-1.7773 3.6719 -0.3242 3.6719 Q0.582 3.6719 1.7227 3.3438 L1.7227 4.2188 Q0.832 4.5625 -0.4648 4.5625 Q-2.3555 4.5625 -3.3867 3.4062 Q-4.418 2.25 -4.418 0.1406 Q-4.418 -1.1875 -3.9258 -2.1797 Q-3.4336 -3.1719 -2.4961 -3.7109 Q-1.5586 -4.25 -0.293 -4.25 Q1.0508 -4.25 2.0664 -3.7656 L1.6445 -2.9062 Q0.6602 -3.3594 -0.3086 -3.3594 ZM4.418 4.4375 L3.4492 4.4375 L3.4492 -4.6875 L4.418 -4.6875 L4.418 4.4375 Z" /><ns0:path style="fill:black; stroke:none;" d="M5.418 -2.4781 L5.418 -3.0719 L8.7773 -3.0719 L8.7773 -2.4781 L5.418 -2.4781 Z" /></ns0:g></ns0:g></ns0:svg></ns0:svg></ns0:svg></ns0:svg></ns0:svg></g></svg>