<svg width="100" viewBox="0 0 100 82" style="fill-opacity:1; color-rendering:auto; color-interpolation:auto; text-rendering:auto; stroke:black; stroke-linecap:square; stroke-miterlimit:10; shape-rendering:auto; stroke-opacity:1; fill:black; stroke-dasharray:none; font-weight:normal; stroke-width:1; font-family:'Open Sans'; font-style:normal; stroke-linejoin:miter; font-size:12; stroke-dashoffset:0; image-rendering:auto;" height="82" class="cas-substance-image" xmlns:xlink="http://www.w3.org/1999/xlink" xmlns="http://www.w3.org/2000/svg"><svg class="cas-substance-single-component"><rect y="0" x="0" width="100" stroke="none" ry="7" rx="7" height="82" fill="white" class="cas-substance-group"/><svg y="0" x="6" width="87" viewBox="0 0 87 82" style="fill:black;" height="82" class="cas-substance-single-component-image"><svg><g><g transform="translate(42,41)" style="text-rendering:geometricPrecision; color-rendering:optimizeQuality; color-interpolation:linearRGB; stroke-linecap:butt; image-rendering:optimizeQuality;"><line y2="-1.75" y1="-1.75" x2="6.8105" x1="32.1445" style="fill:none;"/><line y2="1.75" y1="1.75" x2="6.8105" x1="32.1445" style="fill:none;"/><line y2="-18.4957" y1="0" x2="-5.3566" x1="8.082" style="fill:none;"/><line y2="18.2457" y1="0" x2="-5.1749" x1="8.082" style="fill:none;"/><line y2="-15" y1="-22.563" x2="-38.082" x1="-14.8057" style="fill:none;"/><line y2="15" y1="22.563" x2="-38.082" x1="-14.8057" style="fill:none;"/><line y2="15" y1="-15" x2="-38.082" x1="-38.082" style="fill:none;"/></g><g transform="translate(42,41)" style="fill:rgb(230,0,0); text-rendering:geometricPrecision; color-rendering:optimizeQuality; image-rendering:optimizeQuality; font-family:'Open Sans'; stroke:rgb(230,0,0); color-interpolation:linearRGB;"><path style="stroke:none;" d="M42.0195 -0.0703 Q42.0195 1.9922 40.9804 3.1719 Q39.9414 4.3516 38.0976 4.3516 Q36.207 4.3516 35.1758 3.1875 Q34.1445 2.0234 34.1445 -0.0859 Q34.1445 -2.1797 35.1758 -3.3281 Q36.207 -4.4766 38.0976 -4.4766 Q39.957 -4.4766 40.9883 -3.3047 Q42.0195 -2.1328 42.0195 -0.0703 ZM35.1914 -0.0703 Q35.1914 1.6641 35.9336 2.5703 Q36.6758 3.4766 38.0976 3.4766 Q39.5195 3.4766 40.2461 2.5781 Q40.9726 1.6797 40.9726 -0.0703 Q40.9726 -1.8047 40.2461 -2.6953 Q39.5195 -3.5859 38.0976 -3.5859 Q36.6758 -3.5859 35.9336 -2.6875 Q35.1914 -1.7891 35.1914 -0.0703 Z"/></g><g transform="translate(42,41)" style="stroke-linecap:butt; text-rendering:geometricPrecision; color-rendering:optimizeQuality; image-rendering:optimizeQuality; font-family:'Open Sans'; color-interpolation:linearRGB; stroke-miterlimit:5;"><path style="fill:none;" d="M7.7881 -0.4045 L8.082 0 L7.7881 0.4045"/><path style="fill:rgb(0,5,255); stroke:none;" d="M-6.2004 -20.1138 L-7.3411 -20.1138 L-12.0286 -27.3013 L-12.0754 -27.3013 Q-11.9817 -26.0356 -11.9817 -24.9888 L-11.9817 -20.1138 L-12.9036 -20.1138 L-12.9036 -28.6763 L-11.7786 -28.6763 L-7.1067 -21.52 L-7.0598 -21.52 Q-7.0598 -21.6763 -7.1067 -22.5356 Q-7.1536 -23.395 -7.1379 -23.77 L-7.1379 -28.6763 L-6.2004 -28.6763 L-6.2004 -20.1138 Z"/><path style="fill:rgb(0,5,255); stroke:none;" d="M-6.2942 -29.6763 L-7.2942 -29.6763 L-7.2942 -33.7075 L-11.8098 -33.7075 L-11.8098 -29.6763 L-12.8098 -29.6763 L-12.8098 -38.2388 L-11.8098 -38.2388 L-11.8098 -34.5981 L-7.2942 -34.5981 L-7.2942 -38.2388 L-6.2942 -38.2388 L-6.2942 -29.6763 Z"/><path style="fill:rgb(0,5,255); stroke:none;" d="M-6.2004 28.4263 L-7.3411 28.4263 L-12.0286 21.2388 L-12.0754 21.2388 Q-11.9817 22.5044 -11.9817 23.5513 L-11.9817 28.4263 L-12.9036 28.4263 L-12.9036 19.8638 L-11.7786 19.8638 L-7.1067 27.02 L-7.0598 27.02 Q-7.0598 26.8638 -7.1067 26.0044 Q-7.1536 25.145 -7.1379 24.77 L-7.1379 19.8638 L-6.2004 19.8638 L-6.2004 28.4263 Z"/><path style="fill:rgb(0,5,255); stroke:none;" d="M-6.2942 37.9888 L-7.2942 37.9888 L-7.2942 33.9575 L-11.8098 33.9575 L-11.8098 37.9888 L-12.8098 37.9888 L-12.8098 29.4263 L-11.8098 29.4263 L-11.8098 33.0669 L-7.2942 33.0669 L-7.2942 29.4263 L-6.2942 29.4263 L-6.2942 37.9888 Z"/><path style="fill:none;" d="M-37.6065 -15.1545 L-38.082 -15 L-38.082 -14.5"/><path style="fill:none;" d="M-37.6065 15.1545 L-38.082 15 L-38.082 14.5"/></g></g></svg></svg></svg></svg>