<svg xmlns:ns0="http://www.w3.org/2000/svg" xmlns="http://www.w3.org/2000/svg"><g transform="translate(0, 0)"><ns0:svg width="634" viewBox="0 0 634 231" style="fill-opacity:1; color-rendering:auto; color-interpolation:auto; text-rendering:auto; stroke:black; stroke-linecap:square; stroke-miterlimit:10; shape-rendering:auto; stroke-opacity:1; fill:black; stroke-dasharray:none; font-weight:normal; stroke-width:1; font-family:'Open Sans'; font-style:normal; stroke-linejoin:miter; font-size:12; stroke-dashoffset:0; image-rendering:auto;" height="231" class="cas-substance-image"><ns0:svg class="cas-substance-single-component"><ns0:rect y="0" x="0" width="634" stroke="none" ry="7" rx="7" height="231" fill="white" class="cas-substance-group" /><ns0:svg y="0" x="0" width="634" viewBox="0 0 634 231" style="fill:black;" height="231" class="cas-substance-single-component-image"><ns0:svg><ns0:g><ns0:g transform="translate(317,115)" style="text-rendering:geometricPrecision; color-rendering:optimizeQuality; color-interpolation:linearRGB; stroke-linecap:butt; image-rendering:optimizeQuality;"><ns0:path style="fill:none;" d="M-50.8987 12.1603 L-54.3629 10.1604 L-44.3635 -7.1604 L-40.8993 -5.1606 M14.9178 -5.1601 L18.3819 -7.1602 L28.3821 10.1602 L24.918 12.1602" /><ns0:path style="stroke:none;" d="M37.804 16.1602 L37.804 12.0039 Q37.804 11.2227 37.4524 10.8321 Q37.1009 10.4414 36.3352 10.4414 Q35.3196 10.4414 34.8509 10.9883 Q34.3821 11.5352 34.3821 12.7852 L34.3821 16.1602 L33.4134 16.1602 L33.4134 9.7383 L34.2102 9.7383 L34.3665 10.6133 L34.4134 10.6133 Q34.7102 10.1446 35.2493 9.8789 Q35.7884 9.6133 36.4446 9.6133 Q37.6165 9.6133 38.2024 10.1758 Q38.7884 10.7383 38.7884 11.9727 L38.7884 16.1602 L37.804 16.1602 Z" /><ns0:line y2="37.5" y1="49.274" x2="-194.856" x1="-215.2485" style="fill:none;" /><ns0:line y2="7.5" y1="-7.5" x2="-90.933" x1="-116.913" style="fill:none;" /><ns0:line y2="7.5" y1="-7.5" x2="-142.893" x1="-116.913" style="fill:none;" /><ns0:line y2="-7.5" y1="7.5" x2="-64.953" x1="-90.933" style="fill:none;" /><ns0:line y2="4.2588" y1="-7.5" x2="-44.5843" x1="-64.953" style="fill:none;" /><ns0:line y2="-31.1484" y1="-6.4897" x2="-63.203" x1="-63.203" style="fill:none;" /><ns0:line y2="-31.1484" y1="-6.4896" x2="-66.703" x1="-66.703" style="fill:none;" /><ns0:line y2="-7.5" y1="4.274" x2="-12.99" x1="-33.3825" style="fill:none;" /><ns0:line y2="7.5" y1="-7.5" x2="12.99" x1="-12.99" style="fill:none;" /><ns0:line y2="-4.3112" y1="7.5" x2="33.447" x1="12.99" style="fill:none;" /><ns0:line y2="7.5" y1="-4.3216" x2="64.953" x1="44.4756" style="fill:none;" /><ns0:line y2="-7.5" y1="7.5" x2="90.933" x1="64.953" style="fill:none;" /><ns0:line y2="31.0234" y1="6.4897" x2="63.203" x1="63.203" style="fill:none;" /><ns0:line y2="31.0234" y1="6.4896" x2="66.703" x1="66.703" style="fill:none;" /><ns0:line y2="7.5" y1="-7.5" x2="116.913" x1="90.933" style="fill:none;" /><ns0:line y2="-7.5" y1="7.5" x2="142.893" x1="116.913" style="fill:none;" /><ns0:line y2="82.5" y1="82.5" x2="-138.876" x1="-168.876" style="fill:none;" /><ns0:line y2="112.5" y1="82.5" x2="-168.876" x1="-168.876" style="fill:none;" /><ns0:line y2="82.5" y1="82.5" x2="-198.876" x1="-168.876" style="fill:none;" /><ns0:line y2="52.5" y1="82.5" x2="-168.876" x1="-168.876" style="fill:none;" /><ns0:line y2="-97.5" y1="-82.5" x2="142.893" x1="168.876" style="fill:none;" /><ns0:line y2="-112.5" y1="-82.5" x2="168.876" x1="168.876" style="fill:none;" /><ns0:line y2="-97.5" y1="-82.5" x2="194.856" x1="168.876" style="fill:none;" /><ns0:line y2="-52.5" y1="-82.5" x2="168.876" x1="168.876" style="fill:none;" /><ns0:line y2="-37.5" y1="-49.3112" x2="194.856" x1="215.313" style="fill:none;" /><ns0:line y2="-7.5" y1="7.5" x2="-168.876" x1="-194.856" style="fill:none;" /><ns0:line y2="-3.4585" y1="9.5207" x2="-168.8759" x1="-191.356" style="fill:none;" /><ns0:line y2="37.5" y1="7.5" x2="-194.856" x1="-194.856" style="fill:none;" /><ns0:line y2="-4.5649" y1="7.5" x2="-215.7524" x1="-194.856" style="fill:none;" /><ns0:line y2="7.5" y1="-7.5" x2="-142.893" x1="-168.876" style="fill:none;" /><ns0:line y2="52.5" y1="37.5" x2="-168.876" x1="-194.856" style="fill:none;" /><ns0:line y2="48.4585" y1="35.4793" x2="-168.8759" x1="-191.356" style="fill:none;" /><ns0:line y2="37.5" y1="7.5" x2="-142.893" x1="-142.893" style="fill:none;" /><ns0:line y2="35.4793" y1="9.5207" x2="-146.393" x1="-146.393" style="fill:none;" /><ns0:line y2="37.5" y1="52.5" x2="-142.893" x1="-168.876" style="fill:none;" /><ns0:line y2="2.3956" y1="-5.1946" x2="-243.0653" x1="-226.0147" style="fill:none;" /><ns0:line y2="-31.1897" y1="-13.8953" x2="-223.3253" x1="-221.508" style="fill:none;" /><ns0:line y2="-17.592" y1="-0.5075" x2="-268.317" x1="-252.9338" style="fill:none;" /><ns0:line y2="-18.4323" y1="-2.8495" x2="-264.3639" x1="-250.3329" style="fill:none;" /><ns0:line y2="-43.572" y1="-38.4631" x2="-253.317" x1="-229.2789" style="fill:none;" /><ns0:line y2="-39.7284" y1="-35.0396" x2="-252.068" x1="-230.0065" style="fill:none;" /><ns0:line y2="-43.572" y1="-17.592" x2="-253.317" x1="-268.317" style="fill:none;" /><ns0:line y2="-17.592" y1="-17.592" x2="-298.317" x1="-268.317" style="fill:none;" /><ns0:line y2="-69.555" y1="-43.572" x2="-268.317" x1="-253.317" style="fill:none;" /><ns0:line y2="-43.572" y1="-17.592" x2="-313.317" x1="-298.317" style="fill:none;" /><ns0:line y2="-43.572" y1="-21.092" x2="-309.2756" x1="-296.2963" style="fill:none;" /><ns0:line y2="-69.555" y1="-69.555" x2="-298.317" x1="-268.317" style="fill:none;" /><ns0:line y2="-66.055" y1="-66.055" x2="-296.2963" x1="-270.3377" style="fill:none;" /><ns0:line y2="-69.555" y1="-43.572" x2="-298.317" x1="-313.317" style="fill:none;" /><ns0:line y2="7.5" y1="-7.5" x2="168.876" x1="142.893" style="fill:none;" /><ns0:line y2="3.4585" y1="-9.5209" x2="168.8759" x1="146.3929" style="fill:none;" /><ns0:line y2="-37.5" y1="-7.5" x2="142.893" x1="142.893" style="fill:none;" /><ns0:line y2="-7.5" y1="7.5" x2="194.856" x1="168.876" style="fill:none;" /><ns0:line y2="-52.5" y1="-37.5" x2="168.876" x1="142.893" style="fill:none;" /><ns0:line y2="-48.4585" y1="-35.4791" x2="168.8759" x1="146.3929" style="fill:none;" /><ns0:line y2="-37.5" y1="-7.5" x2="194.856" x1="194.856" style="fill:none;" /><ns0:line y2="-35.4793" y1="-9.5207" x2="191.356" x1="191.356" style="fill:none;" /><ns0:line y2="4.5649" y1="-7.5" x2="215.7524" x1="194.856" style="fill:none;" /><ns0:line y2="-37.5" y1="-52.5" x2="194.856" x1="168.876" style="fill:none;" /><ns0:line y2="-2.3956" y1="5.1946" x2="243.0653" x1="226.0147" style="fill:none;" /><ns0:line y2="30.9397" y1="13.6453" x2="223.299" x1="221.4817" style="fill:none;" /><ns0:line y2="17.592" y1="0.5075" x2="268.317" x1="252.9338" style="fill:none;" /><ns0:line y2="18.4323" y1="2.8495" x2="264.3639" x1="250.3329" style="fill:none;" /><ns0:line y2="43.572" y1="38.4631" x2="253.317" x1="229.2789" style="fill:none;" /><ns0:line y2="39.7284" y1="35.0396" x2="252.068" x1="230.0065" style="fill:none;" /><ns0:line y2="43.572" y1="17.592" x2="253.317" x1="268.317" style="fill:none;" /><ns0:line y2="17.592" y1="17.592" x2="298.317" x1="268.317" style="fill:none;" /><ns0:line y2="69.555" y1="43.572" x2="268.317" x1="253.317" style="fill:none;" /><ns0:line y2="43.572" y1="17.592" x2="313.317" x1="298.317" style="fill:none;" /><ns0:line y2="43.572" y1="21.092" x2="309.2756" x1="296.2963" style="fill:none;" /><ns0:line y2="69.555" y1="69.555" x2="298.317" x1="268.317" style="fill:none;" /><ns0:line y2="66.055" y1="66.055" x2="296.2963" x1="270.3377" style="fill:none;" /><ns0:line y2="69.555" y1="43.572" x2="298.317" x1="313.317" style="fill:none;" /><ns0:path style="fill:rgb(230,0,0); stroke:none;" d="M-216.8985 52.4297 Q-216.8985 54.4922 -217.9376 55.6719 Q-218.9766 56.8516 -220.8204 56.8516 Q-222.711 56.8516 -223.7422 55.6875 Q-224.7735 54.5234 -224.7735 52.4141 Q-224.7735 50.3203 -223.7422 49.1719 Q-222.711 48.0234 -220.8204 48.0234 Q-218.961 48.0234 -217.9297 49.1953 Q-216.8985 50.3672 -216.8985 52.4297 ZM-223.7266 52.4297 Q-223.7266 54.1641 -222.9844 55.0703 Q-222.2422 55.9766 -220.8204 55.9766 Q-219.3985 55.9766 -218.6719 55.0781 Q-217.9454 54.1797 -217.9454 52.4297 Q-217.9454 50.6953 -218.6719 49.8047 Q-219.3985 48.9141 -220.8204 48.9141 Q-222.2422 48.9141 -222.9844 49.8125 Q-223.7266 50.7109 -223.7266 52.4297 Z" /><ns0:path style="fill:rgb(230,0,0); stroke:none;" d="M-225.7735 56.7266 L-226.7735 56.7266 L-226.7735 52.6953 L-231.2891 52.6953 L-231.2891 56.7266 L-232.2891 56.7266 L-232.2891 48.1641 L-231.2891 48.1641 L-231.2891 51.8047 L-226.7735 51.8047 L-226.7735 48.1641 L-225.7735 48.1641 L-225.7735 56.7266 Z" /><ns0:path style="fill:none; stroke-miterlimit:5;" d="M-116.48 -7.25 L-116.913 -7.5 L-117.346 -7.25" /><ns0:path style="fill:none; stroke-miterlimit:5;" d="M-91.366 7.25 L-90.933 7.5 L-90.5 7.25" /><ns0:path style="fill:none; stroke-miterlimit:5;" d="M-65.386 -7.25 L-64.953 -7.5 L-64.52 -7.25" /></ns0:g><ns0:g transform="translate(317,115)" style="stroke-linecap:butt; fill:rgb(230,0,0); text-rendering:geometricPrecision; color-rendering:optimizeQuality; image-rendering:optimizeQuality; font-family:'Open Sans'; stroke:rgb(230,0,0); color-interpolation:linearRGB; stroke-miterlimit:5;"><ns0:path style="stroke:none;" d="M-35.0325 7.4297 Q-35.0325 9.4922 -36.0716 10.6719 Q-37.1106 11.8516 -38.9544 11.8516 Q-40.845 11.8516 -41.8763 10.6875 Q-42.9075 9.5234 -42.9075 7.4141 Q-42.9075 5.3203 -41.8763 4.1719 Q-40.845 3.0234 -38.9544 3.0234 Q-37.095 3.0234 -36.0638 4.1953 Q-35.0325 5.3672 -35.0325 7.4297 ZM-41.8606 7.4297 Q-41.8606 9.1641 -41.1184 10.0703 Q-40.3763 10.9766 -38.9544 10.9766 Q-37.5325 10.9766 -36.8059 10.0781 Q-36.0794 9.1797 -36.0794 7.4297 Q-36.0794 5.6953 -36.8059 4.8047 Q-37.5325 3.9141 -38.9544 3.9141 Q-40.3763 3.9141 -41.1184 4.8125 Q-41.8606 5.7109 -41.8606 7.4297 Z" /><ns0:path style="stroke:none;" d="M-61.0155 -37.5703 Q-61.0155 -35.5078 -62.0546 -34.3281 Q-63.0936 -33.1484 -64.9374 -33.1484 Q-66.828 -33.1484 -67.8593 -34.3125 Q-68.8905 -35.4766 -68.8905 -37.5859 Q-68.8905 -39.6797 -67.8593 -40.8281 Q-66.828 -41.9766 -64.9374 -41.9766 Q-63.078 -41.9766 -62.0468 -40.8047 Q-61.0155 -39.6328 -61.0155 -37.5703 ZM-67.8436 -37.5703 Q-67.8436 -35.8359 -67.1014 -34.9297 Q-66.3593 -34.0234 -64.9374 -34.0234 Q-63.5155 -34.0234 -62.7889 -34.9219 Q-62.0624 -35.8203 -62.0624 -37.5703 Q-62.0624 -39.3047 -62.7889 -40.1953 Q-63.5155 -41.0859 -64.9374 -41.0859 Q-66.3593 -41.0859 -67.1014 -40.1875 Q-67.8436 -39.2891 -67.8436 -37.5703 Z" /><ns0:path style="fill:none; stroke:black;" d="M-13.423 -7.25 L-12.99 -7.5 L-12.557 -7.25" /><ns0:path style="fill:none; stroke:black;" d="M12.557 7.25 L12.99 7.5 L13.423 7.25" /><ns0:path style="stroke:none;" d="M42.9075 -7.5703 Q42.9075 -5.5078 41.8684 -4.3281 Q40.8294 -3.1484 38.9856 -3.1484 Q37.095 -3.1484 36.0638 -4.3125 Q35.0325 -5.4766 35.0325 -7.5859 Q35.0325 -9.6797 36.0638 -10.8281 Q37.095 -11.9766 38.9856 -11.9766 Q40.845 -11.9766 41.8763 -10.8047 Q42.9075 -9.6328 42.9075 -7.5703 ZM36.0794 -7.5703 Q36.0794 -5.8359 36.8216 -4.9297 Q37.5638 -4.0234 38.9856 -4.0234 Q40.4075 -4.0234 41.1341 -4.9219 Q41.8606 -5.8203 41.8606 -7.5703 Q41.8606 -9.3047 41.1341 -10.1953 Q40.4075 -11.0859 38.9856 -11.0859 Q37.5638 -11.0859 36.8216 -10.1875 Q36.0794 -9.2891 36.0794 -7.5703 Z" /><ns0:path style="fill:none; stroke:black;" d="M64.52 7.25 L64.953 7.5 L65.386 7.25" /><ns0:path style="fill:none; stroke:black;" d="M90.5 -7.25 L90.933 -7.5 L91.366 -7.25" /><ns0:path style="stroke:none;" d="M68.8905 37.4297 Q68.8905 39.4922 67.8514 40.6719 Q66.8124 41.8516 64.9686 41.8516 Q63.078 41.8516 62.0468 40.6875 Q61.0155 39.5234 61.0155 37.4141 Q61.0155 35.3203 62.0468 34.1719 Q63.078 33.0234 64.9686 33.0234 Q66.828 33.0234 67.8593 34.1953 Q68.8905 35.3672 68.8905 37.4297 ZM62.0624 37.4297 Q62.0624 39.1641 62.8046 40.0703 Q63.5468 40.9766 64.9686 40.9766 Q66.3905 40.9766 67.1171 40.0781 Q67.8436 39.1797 67.8436 37.4297 Q67.8436 35.6953 67.1171 34.8047 Q66.3905 33.9141 64.9686 33.9141 Q63.5468 33.9141 62.8046 34.8125 Q62.0624 35.7109 62.0624 37.4297 Z" /><ns0:path style="fill:none; stroke:black;" d="M116.48 7.25 L116.913 7.5 L117.346 7.25" /><ns0:path style="stroke:none;" d="M224.7735 -52.5703 Q224.7735 -50.5078 223.7344 -49.3281 Q222.6954 -48.1484 220.8516 -48.1484 Q218.961 -48.1484 217.9297 -49.3125 Q216.8985 -50.4766 216.8985 -52.5859 Q216.8985 -54.6797 217.9297 -55.8281 Q218.961 -56.9766 220.8516 -56.9766 Q222.711 -56.9766 223.7422 -55.8047 Q224.7735 -54.6328 224.7735 -52.5703 ZM217.9454 -52.5703 Q217.9454 -50.8359 218.6876 -49.9297 Q219.4297 -49.0234 220.8516 -49.0234 Q222.2735 -49.0234 223.0001 -49.9219 Q223.7266 -50.8203 223.7266 -52.5703 Q223.7266 -54.3047 223.0001 -55.1953 Q222.2735 -56.0859 220.8516 -56.0859 Q219.4297 -56.0859 218.6876 -55.1875 Q217.9454 -54.2891 217.9454 -52.5703 Z" /><ns0:path style="stroke:none;" d="M232.2891 -48.2734 L231.2891 -48.2734 L231.2891 -52.3047 L226.7735 -52.3047 L226.7735 -48.2734 L225.7735 -48.2734 L225.7735 -56.8359 L226.7735 -56.8359 L226.7735 -53.1953 L231.2891 -53.1953 L231.2891 -56.8359 L232.2891 -56.8359 L232.2891 -48.2734 Z" /><ns0:path style="fill:none; stroke:black;" d="M-194.423 7.25 L-194.856 7.5 L-194.856 8" /><ns0:path style="fill:none; stroke:black;" d="M-169.309 -7.25 L-168.876 -7.5 L-168.443 -7.25" /><ns0:path style="fill:none; stroke:black;" d="M-194.423 37.75 L-194.856 37.5 L-195.289 37.75" /><ns0:path style="fill:none; stroke:black;" d="M-142.893 8 L-142.893 7.5 L-142.46 7.25" /><ns0:path style="fill:none; stroke:black;" d="M-169.309 52.25 L-168.876 52.5 L-168.443 52.25" /><ns0:path style="fill:none; stroke:black;" d="M-142.893 37 L-142.893 37.5 L-143.326 37.75" /><ns0:path style="fill:rgb(0,5,255); stroke:none;" d="M-217.4844 -3.3438 L-218.6251 -3.3438 L-223.3126 -10.5312 L-223.3594 -10.5312 Q-223.2657 -9.2656 -223.2657 -8.2188 L-223.2657 -3.3438 L-224.1876 -3.3438 L-224.1876 -11.9062 L-223.0626 -11.9062 L-218.3907 -4.75 L-218.3438 -4.75 Q-218.3438 -4.9062 -218.3907 -5.7656 Q-218.4376 -6.625 -218.4219 -7 L-218.4219 -11.9062 L-217.4844 -11.9062 L-217.4844 -3.3438 Z" /><ns0:path style="fill:rgb(0,5,255); stroke:none;" d="M-244.8924 8.8573 L-246.0331 8.8573 L-250.7206 1.6698 L-250.7674 1.6698 Q-250.6737 2.9354 -250.6737 3.9823 L-250.6737 8.8573 L-251.5956 8.8573 L-251.5956 0.2948 L-250.4706 0.2948 L-245.7987 7.451 L-245.7518 7.451 Q-245.7518 7.2948 -245.7987 6.4354 Q-245.8456 5.576 -245.8299 5.201 L-245.8299 0.2948 L-244.8924 0.2948 L-244.8924 8.8573 Z" /><ns0:path style="fill:rgb(0,5,255); stroke:none;" d="M-220.6194 -33.1788 L-221.7601 -33.1788 L-226.4476 -40.3663 L-226.4944 -40.3663 Q-226.4007 -39.1006 -226.4007 -38.0538 L-226.4007 -33.1788 L-227.3226 -33.1788 L-227.3226 -41.7413 L-226.1976 -41.7413 L-221.5257 -34.585 L-221.4788 -34.585 Q-221.4788 -34.7413 -221.5257 -35.6006 Q-221.5726 -36.46 -221.5569 -36.835 L-221.5569 -41.7413 L-220.6194 -41.7413 L-220.6194 -33.1788 Z" /><ns0:path style="fill:none; stroke:black;" d="M-267.9825 -17.2204 L-268.317 -17.592 L-268.817 -17.592" /><ns0:path style="fill:none; stroke:black;" d="M-252.8279 -43.4681 L-253.317 -43.572 L-253.567 -43.139" /><ns0:path style="fill:none; stroke:black;" d="M-297.817 -17.592 L-298.317 -17.592 L-298.567 -18.025" /><ns0:path style="fill:none; stroke:black;" d="M-268.067 -69.122 L-268.317 -69.555 L-268.817 -69.555" /><ns0:path style="fill:none; stroke:black;" d="M-313.067 -43.139 L-313.317 -43.572 L-313.067 -44.005" /><ns0:path style="fill:none; stroke:black;" d="M-297.817 -69.555 L-298.317 -69.555 L-298.567 -69.122" /><ns0:path style="fill:none; stroke:black;" d="M143.326 -7.25 L142.893 -7.5 L142.46 -7.25" /><ns0:path style="fill:none; stroke:black;" d="M168.443 7.25 L168.876 7.5 L169.309 7.25" /><ns0:path style="fill:none; stroke:black;" d="M142.893 -37 L142.893 -37.5 L143.326 -37.75" /><ns0:path style="fill:none; stroke:black;" d="M194.856 -8 L194.856 -7.5 L194.423 -7.25" /><ns0:path style="fill:none; stroke:black;" d="M168.443 -52.25 L168.876 -52.5 L168.876 -53" /><ns0:path style="fill:none; stroke:black;" d="M194.856 -37 L194.856 -37.5 L195.289 -37.75" /><ns0:path style="fill:rgb(0,5,255); stroke:none;" d="M224.1876 11.6562 L223.0469 11.6562 L218.3594 4.4688 L218.3126 4.4688 Q218.4063 5.7344 218.4063 6.7812 L218.4063 11.6562 L217.4844 11.6562 L217.4844 3.0938 L218.6094 3.0938 L223.2813 10.25 L223.3282 10.25 Q223.3282 10.0938 223.2813 9.2344 Q223.2344 8.375 223.2501 8 L223.2501 3.0938 L224.1876 3.0938 L224.1876 11.6562 Z" /><ns0:path style="fill:rgb(0,5,255); stroke:none;" d="M251.5956 -0.5448 L250.4549 -0.5448 L245.7674 -7.7323 L245.7206 -7.7323 Q245.8143 -6.4666 245.8143 -5.4198 L245.8143 -0.5448 L244.8924 -0.5448 L244.8924 -9.1073 L246.0174 -9.1073 L250.6893 -1.951 L250.7362 -1.951 Q250.7362 -2.1073 250.6893 -2.9666 Q250.6424 -3.826 250.6581 -4.201 L250.6581 -9.1073 L251.5956 -9.1073 L251.5956 -0.5448 Z" /><ns0:path style="fill:rgb(0,5,255); stroke:none;" d="M227.3226 41.4913 L226.1819 41.4913 L221.4944 34.3038 L221.4476 34.3038 Q221.5413 35.5694 221.5413 36.6163 L221.5413 41.4913 L220.6194 41.4913 L220.6194 32.9288 L221.7444 32.9288 L226.4163 40.085 L226.4632 40.085 Q226.4632 39.9288 226.4163 39.0694 Q226.3694 38.21 226.3851 37.835 L226.3851 32.9288 L227.3226 32.9288 L227.3226 41.4913 Z" /><ns0:path style="fill:none; stroke:black;" d="M267.9825 17.2204 L268.317 17.592 L268.067 18.025" /><ns0:path style="fill:none; stroke:black;" d="M252.8279 43.4681 L253.317 43.572 L253.567 43.139" /><ns0:path style="fill:none; stroke:black;" d="M297.817 17.592 L298.317 17.592 L298.567 18.025" /><ns0:path style="fill:none; stroke:black;" d="M268.067 69.122 L268.317 69.555 L268.817 69.555" /><ns0:path style="fill:none; stroke:black;" d="M313.067 43.139 L313.317 43.572 L313.067 44.005" /><ns0:path style="fill:none; stroke:black;" d="M297.817 69.555 L298.317 69.555 L298.567 69.122" /></ns0:g></ns0:g></ns0:svg></ns0:svg></ns0:svg></ns0:svg></g></svg>