<svg width="147" viewBox="0 0 147 115" style="fill-opacity:1; color-rendering:auto; color-interpolation:auto; text-rendering:auto; stroke:black; stroke-linecap:square; stroke-miterlimit:10; shape-rendering:auto; stroke-opacity:1; fill:black; stroke-dasharray:none; font-weight:normal; stroke-width:1; font-family:'Open Sans'; font-style:normal; stroke-linejoin:miter; font-size:12; stroke-dashoffset:0; image-rendering:auto;" height="115" class="cas-substance-image" xmlns:xlink="http://www.w3.org/1999/xlink" xmlns="http://www.w3.org/2000/svg"><svg class="cas-substance-single-component"><rect y="0" x="0" width="147" stroke="none" ry="7" rx="7" height="115" fill="white" class="cas-substance-group"/><svg y="0" x="0" width="147" viewBox="0 0 147 115" style="fill:black;" height="115" class="cas-substance-single-component-image"><svg><g><g transform="translate(74,59)" style="text-rendering:geometricPrecision; color-rendering:optimizeQuality; color-interpolation:linearRGB; stroke-linecap:butt; image-rendering:optimizeQuality;"><line y2="-25.98" y1="-25.98" x2="37.5" x1="13.4375" style="fill:none;"/><line y2="0" y1="-20.332" x2="-7.5" x1="4.239" style="fill:none;"/><line y2="-5.8726" y1="-25.98" x2="49.1094" x1="37.5" style="fill:none;"/><line y2="-25.98" y1="-25.98" x2="63.1094" x1="37.5" style="fill:none;"/><line y2="-46.0899" y1="-25.98" x2="49.1094" x1="37.5" style="fill:none;"/><line y2="-46.0747" y1="-25.98" x2="-64.1007" x1="-52.5" style="fill:none;"/><line y2="-44.3248" y1="-24.2301" x2="-67.1318" x1="-55.5312" style="fill:none;"/><line y2="-47.8245" y1="-27.7299" x2="-61.0695" x1="-49.4688" style="fill:none;"/><line y2="0" y1="-25.98" x2="-37.5" x1="-52.5" style="fill:none;"/><line y2="0" y1="0" x2="-37.5" x1="-7.5" style="fill:none;"/><line y2="3.5" y1="3.5" x2="-35.4793" x1="-9.5207" style="fill:none;"/><line y2="25.98" y1="0" x2="7.5" x1="-7.5" style="fill:none;"/><line y2="25.98" y1="0" x2="-52.5" x1="-37.5" style="fill:none;"/><line y2="51.963" y1="25.98" x2="-7.5" x1="7.5" style="fill:none;"/><line y2="48.4631" y1="25.9802" x2="-9.5209" x1="3.4585" style="fill:none;"/><line y2="51.963" y1="25.98" x2="-37.5" x1="-52.5" style="fill:none;"/><line y2="48.4631" y1="25.9802" x2="-35.4791" x1="-48.4585" style="fill:none;"/><line y2="51.963" y1="51.963" x2="-37.5" x1="-7.5" style="fill:none;"/></g><g transform="translate(74,59)" style="fill:rgb(230,0,0); text-rendering:geometricPrecision; color-rendering:optimizeQuality; image-rendering:optimizeQuality; font-family:'Open Sans'; stroke:rgb(230,0,0); color-interpolation:linearRGB;"><path style="stroke:none;" d="M11.4375 -26.0503 Q11.4375 -23.9878 10.3984 -22.8081 Q9.3594 -21.6284 7.5156 -21.6284 Q5.625 -21.6284 4.5938 -22.7925 Q3.5625 -23.9566 3.5625 -26.0659 Q3.5625 -28.1597 4.5938 -29.3081 Q5.625 -30.4566 7.5156 -30.4566 Q9.375 -30.4566 10.4062 -29.2847 Q11.4375 -28.1128 11.4375 -26.0503 ZM4.6094 -26.0503 Q4.6094 -24.3159 5.3516 -23.4097 Q6.0938 -22.5034 7.5156 -22.5034 Q8.9375 -22.5034 9.6641 -23.4019 Q10.3906 -24.3003 10.3906 -26.0503 Q10.3906 -27.7847 9.6641 -28.6753 Q8.9375 -29.5659 7.5156 -29.5659 Q6.0938 -29.5659 5.3516 -28.6675 Q4.6094 -27.7691 4.6094 -26.0503 Z"/><path style="fill:rgb(0,138,0); stroke:none;" d="M51.1094 4.1562 L50.1094 4.1562 L50.1094 -4.4062 L54.8906 -4.4062 L54.8906 -3.5312 L51.1094 -3.5312 L51.1094 -0.3906 L54.6562 -0.3906 L54.6562 0.5 L51.1094 0.5 L51.1094 4.1562 Z"/><path style="fill:rgb(0,138,0); stroke:none;" d="M66.1094 -21.8237 L65.1094 -21.8237 L65.1094 -30.3862 L69.8906 -30.3862 L69.8906 -29.5112 L66.1094 -29.5112 L66.1094 -26.3706 L69.6562 -26.3706 L69.6562 -25.48 L66.1094 -25.48 L66.1094 -21.8237 Z"/><path style="fill:rgb(0,138,0); stroke:none;" d="M51.1094 -47.8068 L50.1094 -47.8068 L50.1094 -56.3693 L54.8906 -56.3693 L54.8906 -55.4943 L51.1094 -55.4943 L51.1094 -52.3536 L54.6562 -52.3536 L54.6562 -51.463 L51.1094 -51.463 L51.1094 -47.8068 Z"/><path style="fill:rgb(0,5,255); stroke:none;" d="M-64.1484 -47.8068 L-65.2891 -47.8068 L-69.9766 -54.9943 L-70.0234 -54.9943 Q-69.9297 -53.7286 -69.9297 -52.6818 L-69.9297 -47.8068 L-70.8516 -47.8068 L-70.8516 -56.3693 L-69.7266 -56.3693 L-65.0547 -49.213 L-65.0078 -49.213 Q-65.0078 -49.3693 -65.0547 -50.2286 Q-65.1016 -51.088 -65.0859 -51.463 L-65.0859 -56.3693 L-64.1484 -56.3693 L-64.1484 -47.8068 Z"/></g><g transform="translate(74,59)" style="stroke-linecap:butt; text-rendering:geometricPrecision; color-rendering:optimizeQuality; image-rendering:optimizeQuality; font-family:'Open Sans'; color-interpolation:linearRGB; stroke-miterlimit:5;"><path style="fill:none;" d="M-8 -0 L-7.5 0 L-7.25 -0.433"/><path style="fill:none;" d="M-37 0 L-37.5 0 L-37.75 -0.433"/><path style="fill:none;" d="M7.25 25.547 L7.5 25.98 L7.25 26.413"/><path style="fill:none;" d="M-52.25 25.547 L-52.5 25.98 L-52.25 26.413"/><path style="fill:none;" d="M-7.25 51.53 L-7.5 51.963 L-8 51.963"/><path style="fill:none;" d="M-37.75 51.53 L-37.5 51.963 L-37 51.963"/></g></g></svg></svg></svg></svg>