<svg xmlns:ns0="http://www.w3.org/2000/svg" xmlns="http://www.w3.org/2000/svg"><g transform="translate(0, 0)"><ns0:svg width="186" viewBox="0 0 186 167" style="fill-opacity:1; color-rendering:auto; color-interpolation:auto; text-rendering:auto; stroke:black; stroke-linecap:square; stroke-miterlimit:10; shape-rendering:auto; stroke-opacity:1; fill:black; stroke-dasharray:none; font-weight:normal; stroke-width:1; font-family:'Open Sans'; font-style:normal; stroke-linejoin:miter; font-size:12; stroke-dashoffset:0; image-rendering:auto;" height="167" class="cas-substance-image"><ns0:svg class="cas-substance-single-component"><ns0:rect y="0" x="0" width="186" stroke="none" ry="7" rx="7" height="167" fill="white" class="cas-substance-group" /><ns0:svg y="0" x="0" width="186" viewBox="0 0 186 167" style="fill:black;" height="167" class="cas-substance-single-component-image"><ns0:svg><ns0:g><ns0:g transform="translate(93,85)" style="text-rendering:geometricPrecision; color-rendering:optimizeQuality; color-interpolation:linearRGB; stroke-linecap:butt; image-rendering:optimizeQuality;"><ns0:line y2="-25.98" y1="-25.98" x2="-30" x1="0" style="fill:none;" /><ns0:line y2="-51.963" y1="-25.98" x2="15" x1="0" style="fill:none;" /><ns0:line y2="0" y1="-25.98" x2="15" x1="0" style="fill:none;" /><ns0:line y2="-51.963" y1="-25.98" x2="-45" x1="-30" style="fill:none;" /><ns0:line y2="0" y1="-25.98" x2="-45" x1="-30" style="fill:none;" /><ns0:line y2="-51.963" y1="-51.963" x2="39.0625" x1="15" style="fill:none;" /><ns0:line y2="-73.1823" y1="-51.963" x2="4.7694" x1="17.0207" style="fill:none;" /><ns0:line y2="-71.4323" y1="-50.2129" x2="1.7383" x1="13.9897" style="fill:none;" /><ns0:line y2="20.2583" y1="0" x2="3.3035" x1="15" style="fill:none;" /><ns0:line y2="1.75" y1="1.75" x2="39.0625" x1="13.9896" style="fill:none;" /><ns0:line y2="-1.75" y1="-1.75" x2="39.0625" x1="13.9896" style="fill:none;" /><ns0:line y2="-51.963" y1="-51.963" x2="-75" x1="-45" style="fill:none;" /><ns0:line y2="-77.943" y1="-57.6847" x2="60" x1="48.3035" style="fill:none;" /><ns0:line y2="51.963" y1="31.616" x2="15" x1="3.2536" style="fill:none;" /><ns0:line y2="-77.943" y1="-51.963" x2="-90" x1="-75" style="fill:none;" /><ns0:line y2="-77.943" y1="-77.943" x2="90" x1="60" style="fill:none;" /><ns0:line y2="77.943" y1="51.963" x2="0" x1="15" style="fill:none;" /><ns0:path style="fill:none; stroke-miterlimit:5;" d="M14.75 -51.53 L15 -51.963 L15.5 -51.963" /><ns0:path style="fill:none; stroke-miterlimit:5;" d="M14.75 -0.433 L15 0 L14.75 0.433" /><ns0:path style="fill:none; stroke-miterlimit:5;" d="M-44.75 -51.53 L-45 -51.963 L-45.5 -51.963" /></ns0:g><ns0:g transform="translate(93,85)" style="stroke-linecap:butt; fill:rgb(230,0,0); text-rendering:geometricPrecision; color-rendering:optimizeQuality; image-rendering:optimizeQuality; font-family:'Open Sans'; stroke:rgb(230,0,0); color-interpolation:linearRGB; stroke-miterlimit:5;"><ns0:path style="stroke:none;" d="M48.9375 -52.0333 Q48.9375 -49.9708 47.8984 -48.7911 Q46.8594 -47.6114 45.0156 -47.6114 Q43.125 -47.6114 42.0938 -48.7755 Q41.0625 -49.9396 41.0625 -52.0489 Q41.0625 -54.1427 42.0938 -55.2911 Q43.125 -56.4396 45.0156 -56.4396 Q46.875 -56.4396 47.9062 -55.2677 Q48.9375 -54.0958 48.9375 -52.0333 ZM42.1094 -52.0333 Q42.1094 -50.2989 42.8516 -49.3927 Q43.5938 -48.4864 45.0156 -48.4864 Q46.4375 -48.4864 47.1641 -49.3849 Q47.8906 -50.2833 47.8906 -52.0333 Q47.8906 -53.7677 47.1641 -54.6583 Q46.4375 -55.5489 45.0156 -55.5489 Q43.5938 -55.5489 42.8516 -54.6505 Q42.1094 -53.7521 42.1094 -52.0333 Z" /><ns0:path style="stroke:none;" d="M3.9375 -78.0133 Q3.9375 -75.9508 2.8984 -74.7711 Q1.8594 -73.5914 0.0156 -73.5914 Q-1.875 -73.5914 -2.9062 -74.7555 Q-3.9375 -75.9196 -3.9375 -78.0289 Q-3.9375 -80.1227 -2.9062 -81.2711 Q-1.875 -82.4196 0.0156 -82.4196 Q1.875 -82.4196 2.9062 -81.2477 Q3.9375 -80.0758 3.9375 -78.0133 ZM-2.8906 -78.0133 Q-2.8906 -76.2789 -2.1484 -75.3727 Q-1.4062 -74.4664 0.0156 -74.4664 Q1.4375 -74.4664 2.1641 -75.3649 Q2.8906 -76.2633 2.8906 -78.0133 Q2.8906 -79.7477 2.1641 -80.6383 Q1.4375 -81.5289 0.0156 -81.5289 Q-1.4062 -81.5289 -2.1484 -80.6305 Q-2.8906 -79.7321 -2.8906 -78.0133 Z" /><ns0:path style="stroke:none;" d="M3.9375 25.9097 Q3.9375 27.9722 2.8984 29.1519 Q1.8594 30.3316 0.0156 30.3316 Q-1.875 30.3316 -2.9062 29.1675 Q-3.9375 28.0034 -3.9375 25.8941 Q-3.9375 23.8003 -2.9062 22.6519 Q-1.875 21.5034 0.0156 21.5034 Q1.875 21.5034 2.9062 22.6753 Q3.9375 23.8472 3.9375 25.9097 ZM-2.8906 25.9097 Q-2.8906 27.6441 -2.1484 28.5503 Q-1.4062 29.4566 0.0156 29.4566 Q1.4375 29.4566 2.1641 28.5581 Q2.8906 27.6597 2.8906 25.9097 Q2.8906 24.1753 2.1641 23.2847 Q1.4375 22.3941 0.0156 22.3941 Q-1.4062 22.3941 -2.1484 23.2925 Q-2.8906 24.1909 -2.8906 25.9097 Z" /><ns0:path style="stroke:none;" d="M48.9375 -0.0703 Q48.9375 1.9922 47.8984 3.1719 Q46.8594 4.3516 45.0156 4.3516 Q43.125 4.3516 42.0938 3.1875 Q41.0625 2.0234 41.0625 -0.0859 Q41.0625 -2.1797 42.0938 -3.3281 Q43.125 -4.4766 45.0156 -4.4766 Q46.875 -4.4766 47.9062 -3.3047 Q48.9375 -2.1328 48.9375 -0.0703 ZM42.1094 -0.0703 Q42.1094 1.6641 42.8516 2.5703 Q43.5938 3.4766 45.0156 3.4766 Q46.4375 3.4766 47.1641 2.5781 Q47.8906 1.6797 47.8906 -0.0703 Q47.8906 -1.8047 47.1641 -2.6953 Q46.4375 -3.5859 45.0156 -3.5859 Q43.5938 -3.5859 42.8516 -2.6875 Q42.1094 -1.7891 42.1094 -0.0703 Z" /><ns0:path style="fill:none; stroke:black;" d="M-74.5 -51.963 L-75 -51.963 L-75.25 -52.396" /><ns0:path style="fill:none; stroke:black;" d="M59.75 -77.51 L60 -77.943 L60.5 -77.943" /><ns0:path style="fill:none; stroke:black;" d="M14.75 51.53 L15 51.963 L14.75 52.396" /></ns0:g></ns0:g></ns0:svg></ns0:svg></ns0:svg></ns0:svg></g></svg>