<svg xmlns:ns0="http://www.w3.org/2000/svg" xmlns="http://www.w3.org/2000/svg"><g transform="translate(0, 0)"><ns0:svg width="136" viewBox="0 0 136 90" style="fill-opacity:1; color-rendering:auto; color-interpolation:auto; text-rendering:auto; stroke:black; stroke-linecap:square; stroke-miterlimit:10; shape-rendering:auto; stroke-opacity:1; fill:black; stroke-dasharray:none; font-weight:normal; stroke-width:1; font-family:'Open Sans'; font-style:normal; stroke-linejoin:miter; font-size:12; stroke-dashoffset:0; image-rendering:auto;" height="90" class="cas-substance-image"><ns0:svg class="cas-substance-single-component"><ns0:rect y="0" x="0" width="136" stroke="none" ry="7" rx="7" height="90" fill="white" class="cas-substance-group" /><ns0:svg y="0" x="0" width="136" viewBox="0 0 136 90" style="fill:black;" height="90" class="cas-substance-single-component-image"><ns0:svg><ns0:g><ns0:g transform="translate(66,45)" style="text-rendering:geometricPrecision; color-rendering:optimizeQuality; color-interpolation:linearRGB; stroke-linecap:butt; image-rendering:optimizeQuality;"><ns0:line y2="18.9284" y1="41.4" x2="-46.3895" x1="-53.691" style="fill:none;" /><ns0:line y2="3.6" y1="14.3274" x2="36.072" x1="54.654" style="fill:none;" /><ns0:line y2="-26.4" y1="3.6" x2="-15.888" x1="-15.888" style="fill:none;" /><ns0:line y2="11.1631" y1="3.6" x2="-39.1673" x1="-15.888" style="fill:none;" /><ns0:line y2="18.6" y1="3.6" x2="10.092" x1="-15.888" style="fill:none;" /><ns0:line y2="14.5585" y1="1.5793" x2="10.0921" x1="-12.388" style="fill:none;" /><ns0:line y2="-41.4" y1="-26.4" x2="10.092" x1="-15.888" style="fill:none;" /><ns0:line y2="-37.3586" y1="-24.3793" x2="10.0921" x1="-12.388" style="fill:none;" /><ns0:line y2="-33.9656" y1="-26.4" x2="-39.1674" x1="-15.888" style="fill:none;" /><ns0:line y2="-11.4" y1="6.8457" x2="-62.055" x1="-48.7981" style="fill:none;" /><ns0:line y2="3.6" y1="18.6" x2="36.072" x1="10.092" style="fill:none;" /><ns0:line y2="-26.4" y1="-41.4" x2="36.072" x1="10.092" style="fill:none;" /><ns0:line y2="-11.4" y1="-29.8987" x2="-62.055" x1="-48.616" style="fill:none;" /><ns0:line y2="-10.9777" y1="-27.8415" x2="-58.0357" x1="-45.7843" style="fill:none;" /><ns0:line y2="-26.4" y1="3.6" x2="36.072" x1="36.072" style="fill:none;" /><ns0:line y2="-24.3793" y1="1.5793" x2="32.572" x1="32.572" style="fill:none;" /></ns0:g><ns0:g transform="translate(66,45)" style="fill:rgb(0,138,0); text-rendering:geometricPrecision; color-rendering:optimizeQuality; image-rendering:optimizeQuality; font-family:'Open Sans'; stroke:rgb(0,138,0); color-interpolation:linearRGB;"><ns0:path style="stroke:none;" d="M56.3861 14.1938 L58.8079 14.1938 Q60.5111 14.1938 61.2767 14.7016 Q62.0423 15.2094 62.0423 16.3031 Q62.0423 17.0688 61.6204 17.5688 Q61.1986 18.0688 60.3704 18.2094 L60.3704 18.2719 Q62.3236 18.6 62.3236 20.3188 Q62.3236 21.4594 61.5501 22.1078 Q60.7767 22.7563 59.3861 22.7563 L56.3861 22.7563 L56.3861 14.1938 ZM57.3861 17.85 L59.0267 17.85 Q60.0892 17.85 60.5501 17.5219 Q61.0111 17.1938 61.0111 16.4125 Q61.0111 15.6938 60.4954 15.3734 Q59.9798 15.0531 58.8548 15.0531 L57.3861 15.0531 L57.3861 17.85 ZM57.3861 18.6938 L57.3861 21.9125 L59.1829 21.9125 Q60.2142 21.9125 60.7376 21.5063 Q61.2611 21.1 61.2611 20.2406 Q61.2611 19.4438 60.722 19.0688 Q60.1829 18.6938 59.0892 18.6938 L57.3861 18.6938 ZM66.9583 16.2094 Q67.3802 16.2094 67.7239 16.2875 L67.5833 17.1938 Q67.1927 17.1 66.8802 17.1 Q66.0989 17.1 65.5443 17.7328 Q64.9896 18.3656 64.9896 19.3031 L64.9896 22.7563 L64.0208 22.7563 L64.0208 16.3344 L64.8177 16.3344 L64.9427 17.5219 L64.9896 17.5219 Q65.3333 16.8969 65.8411 16.5531 Q66.3489 16.2094 66.9583 16.2094 Z" /></ns0:g><ns0:g transform="translate(66,45)" style="stroke-linecap:butt; text-rendering:geometricPrecision; color-rendering:optimizeQuality; image-rendering:optimizeQuality; font-family:'Open Sans'; color-interpolation:linearRGB; stroke-miterlimit:5;"><ns0:path style="fill:none;" d="M-15.455 3.85 L-15.888 3.6 L-16.3635 3.7545" /><ns0:path style="fill:none;" d="M-15.455 -26.65 L-15.888 -26.4 L-15.888 -25.9" /><ns0:path style="fill:rgb(0,5,255); stroke:none;" d="M-41.0694 17.0262 L-42.2101 17.0262 L-46.8976 9.8387 L-46.9444 9.8387 Q-46.8507 11.1044 -46.8507 12.1512 L-46.8507 17.0262 L-47.7726 17.0262 L-47.7726 8.4637 L-46.6476 8.4637 L-41.9757 15.62 L-41.9288 15.62 Q-41.9288 15.4637 -41.9757 14.6044 Q-42.0226 13.745 -42.0069 13.37 L-42.0069 8.4637 L-41.0694 8.4637 L-41.0694 17.0262 Z" /><ns0:path style="fill:none;" d="M9.659 18.35 L10.092 18.6 L10.525 18.35" /><ns0:path style="fill:none;" d="M9.659 -41.15 L10.092 -41.4 L10.525 -41.15" /><ns0:path style="fill:rgb(0,5,255); stroke:none;" d="M-41.0694 -31.5168 L-42.2101 -31.5168 L-46.8976 -38.7043 L-46.9444 -38.7043 Q-46.8507 -37.4386 -46.8507 -36.3918 L-46.8507 -31.5168 L-47.7726 -31.5168 L-47.7726 -40.0793 L-46.6476 -40.0793 L-41.9757 -32.923 L-41.9288 -32.923 Q-41.9288 -33.0793 -41.9757 -33.9386 Q-42.0226 -34.798 -42.0069 -35.173 L-42.0069 -40.0793 L-41.0694 -40.0793 L-41.0694 -31.5168 Z" /><ns0:path style="fill:none;" d="M-61.7611 -10.9955 L-62.055 -11.4 L-61.7611 -11.8045" /><ns0:path style="fill:none;" d="M36.072 3.1 L36.072 3.6 L36.505 3.85" /><ns0:path style="fill:none;" d="M35.639 -26.65 L36.072 -26.4 L36.072 -25.9" /></ns0:g></ns0:g></ns0:svg></ns0:svg></ns0:svg></ns0:svg></g></svg>