<svg width="292" viewBox="0 0 292 212" style="fill-opacity:1; color-rendering:auto; color-interpolation:auto; text-rendering:auto; stroke:black; stroke-linecap:square; stroke-miterlimit:10; shape-rendering:auto; stroke-opacity:1; fill:black; stroke-dasharray:none; font-weight:normal; stroke-width:1; font-family:'Open Sans'; font-style:normal; stroke-linejoin:miter; font-size:12; stroke-dashoffset:0; image-rendering:auto;" height="212" class="cas-substance-image" xmlns:xlink="http://www.w3.org/1999/xlink" xmlns="http://www.w3.org/2000/svg"><svg class="cas-substance-single-component"><rect y="0" x="0" width="292" stroke="none" ry="7" rx="7" height="212" fill="white" class="cas-substance-group"/><svg y="0" x="0" width="292" viewBox="0 0 292 212" style="fill:black;" height="212" class="cas-substance-single-component-image"><svg><g><g transform="translate(148,106)" style="text-rendering:geometricPrecision; color-rendering:optimizeQuality; color-interpolation:linearRGB; stroke-linecap:butt; image-rendering:optimizeQuality;"><path style="stroke:none;" d="M15.5213 8.7223 L14.5267 8.6177 L15.1754 -21.4785 L21.1426 -20.8515 Z"/><line y2="-35.37" y1="-29.133" x2="82.17" x1="52.827" style="fill:none;"/><line y2="-47.915" y1="-29.5531" x2="38.2702" x1="54.8036" style="fill:none;"/><line y2="-45.573" y1="-27.2111" x2="35.6692" x1="52.2026" style="fill:none;"/><line y2="-0.6" y1="-29.133" x2="43.557" x1="52.827" style="fill:none;"/><line y2="-57.6464" y1="-35.37" x2="89.4104" x1="82.17" style="fill:none;"/><line y2="-70.137" y1="-65.1528" x2="120.786" x1="97.3368" style="fill:none;"/><line y2="-47.844" y1="-70.137" x2="140.859" x1="120.786" style="fill:none;"/><line y2="-91.8756" y1="-68.6353" x2="129.6886" x1="122.1382" style="fill:none;"/><line y2="-92.957" y1="-69.7169" x2="126.3599" x1="118.8095" style="fill:none;"/><path style="stroke:none;" d="M-62.419 53.67 L-63.419 53.67 L-65.919 23.67 L-59.919 23.67 Z"/><line y2="84.6804" y1="96.9595" x2="-113.129" x1="-134.3965" style="fill:none;"/><line y2="81.6493" y1="93.9284" x2="-114.879" x1="-136.1465" style="fill:none;"/><line y2="53.67" y1="38.67" x2="-10.956" x1="15.024" style="fill:none;"/><line y2="8.67" y1="38.67" x2="15.024" x1="15.024" style="fill:none;"/><line y2="47.94" y1="38.67" x2="43.557" x1="15.024" style="fill:none;"/><line y2="38.67" y1="53.67" x2="-36.936" x1="-10.956" style="fill:none;"/><line y2="83.67" y1="53.67" x2="-10.956" x1="-10.956" style="fill:none;"/><line y2="-0.6" y1="8.67" x2="43.557" x1="15.024" style="fill:none;"/><line y2="-6.33" y1="8.67" x2="-10.956" x1="15.024" style="fill:none;"/><line y2="23.67" y1="47.94" x2="61.191" x1="43.557" style="fill:none;"/><line y2="53.67" y1="38.67" x2="-62.919" x1="-36.936" style="fill:none;"/><line y2="8.67" y1="38.67" x2="-36.936" x1="-36.936" style="fill:none;"/><line y2="10.6907" y1="36.6493" x2="-33.436" x1="-33.436" style="fill:none;"/><line y2="98.67" y1="83.67" x2="-36.936" x1="-10.956" style="fill:none;"/><line y2="23.67" y1="-0.6" x2="61.191" x1="43.557" style="fill:none;"/><line y2="24.0925" y1="3.0921" x2="57.1717" x1="41.9133" style="fill:none;"/><line y2="8.67" y1="-6.33" x2="-36.936" x1="-10.956" style="fill:none;"/><line y2="83.67" y1="53.67" x2="-62.919" x1="-62.919" style="fill:none;"/><line y2="38.67" y1="53.67" x2="-88.899" x1="-62.919" style="fill:none;"/><line y2="83.67" y1="98.67" x2="-62.919" x1="-36.936" style="fill:none;"/><line y2="98.67" y1="83.67" x2="-88.899" x1="-62.919" style="fill:none;"/><line y2="94.6285" y1="81.6493" x2="-88.8991" x1="-66.419" style="fill:none;"/><line y2="53.67" y1="38.67" x2="-114.879" x1="-88.899" style="fill:none;"/><line y2="55.6907" y1="42.7115" x2="-111.379" x1="-88.8989" style="fill:none;"/><line y2="83.67" y1="98.67" x2="-114.879" x1="-88.899" style="fill:none;"/><line y2="83.67" y1="53.67" x2="-114.879" x1="-114.879" style="fill:none;"/><path style="stroke:none;" d="M16.6275 39.9579 L15.4088 40.6909 L15.83 41.6042 L15.83 41.6042 L17.2361 40.7585 L17.2361 40.7585 L16.6275 39.9579 ZM18.4534 42.3597 L16.6725 43.4308 L16.6725 43.4308 L17.0938 44.3441 L19.062 43.1603 L19.062 43.1603 L18.4534 42.3597 ZM20.2792 44.7615 L17.9363 46.1707 L17.9363 46.1707 L18.3575 47.084 L18.3575 47.084 L20.8879 45.5621 L20.2792 44.7615 ZM22.1051 47.1633 L19.2 48.9105 L19.2 48.9105 L19.6213 49.8238 L19.6213 49.8238 L22.7137 47.9638 L22.7137 47.9638 L22.1051 47.1633 ZM23.931 49.565 L20.4638 51.6504 L20.4638 51.6504 L20.885 52.5637 L20.885 52.5637 L24.5396 50.3656 L24.5396 50.3656 L23.931 49.565 ZM25.7569 51.9668 L21.7275 54.3903 L21.7275 54.3903 L22.1488 55.3036 L26.3655 52.7674 L26.3655 52.7674 L25.7569 51.9668 ZM27.5828 54.3686 L22.9913 57.1302 L22.9913 57.1302 L23.4125 58.0435 L28.1914 55.1692 L28.1914 55.1692 L27.5828 54.3686 Z"/><path style="stroke:none;" d="M-11.3096 54.0236 L-10.6024 53.3164 L7.7063 68.0896 L3.4637 72.3323 Z"/><path style="fill:none; stroke-miterlimit:5;" d="M53.3161 -29.237 L52.827 -29.133 L52.6725 -28.6575"/><path style="fill:none; stroke-miterlimit:5;" d="M81.6809 -35.266 L82.17 -35.37 L82.3246 -35.8455"/></g><g transform="translate(148,106)" style="stroke-linecap:butt; fill:rgb(230,0,0); text-rendering:geometricPrecision; color-rendering:optimizeQuality; image-rendering:optimizeQuality; font-family:'Open Sans'; stroke:rgb(230,0,0); color-interpolation:linearRGB; stroke-miterlimit:5;"><path style="stroke:none;" d="M36.6915 -51.4963 Q36.6915 -49.4338 35.6524 -48.2541 Q34.6134 -47.0744 32.7696 -47.0744 Q30.879 -47.0744 29.8477 -48.2385 Q28.8165 -49.4026 28.8165 -51.5119 Q28.8165 -53.6057 29.8477 -54.7541 Q30.879 -55.9026 32.7696 -55.9026 Q34.629 -55.9026 35.6602 -54.7307 Q36.6915 -53.5588 36.6915 -51.4963 ZM29.8634 -51.4963 Q29.8634 -49.7619 30.6056 -48.8557 Q31.3477 -47.9494 32.7696 -47.9494 Q34.1915 -47.9494 34.9181 -48.8479 Q35.6446 -49.7463 35.6446 -51.4963 Q35.6446 -53.2307 34.9181 -54.1213 Q34.1915 -55.0119 32.7696 -55.0119 Q31.3477 -55.0119 30.6056 -54.1135 Q29.8634 -53.2151 29.8634 -51.4963 Z"/><path style="stroke:none;" d="M95.3805 -63.9703 Q95.3805 -61.9078 94.3414 -60.7281 Q93.3024 -59.5484 91.4586 -59.5484 Q89.568 -59.5484 88.5368 -60.7125 Q87.5055 -61.8766 87.5055 -63.9859 Q87.5055 -66.0797 88.5368 -67.2281 Q89.568 -68.3766 91.4586 -68.3766 Q93.318 -68.3766 94.3493 -67.2047 Q95.3805 -66.0328 95.3805 -63.9703 ZM88.5524 -63.9703 Q88.5524 -62.2359 89.2946 -61.3297 Q90.0368 -60.4234 91.4586 -60.4234 Q92.8805 -60.4234 93.6071 -61.3219 Q94.3336 -62.2203 94.3336 -63.9703 Q94.3336 -65.7047 93.6071 -66.5953 Q92.8805 -67.4859 91.4586 -67.4859 Q90.0368 -67.4859 89.2946 -66.5875 Q88.5524 -65.6891 88.5524 -63.9703 Z"/><path style="fill:none; stroke:black;" d="M120.2969 -70.033 L120.786 -70.137 L121.1206 -69.7654"/><path style="stroke:none;" d="M133.9935 -98.7403 Q133.9935 -96.6778 132.9544 -95.4981 Q131.9154 -94.3184 130.0716 -94.3184 Q128.181 -94.3184 127.1497 -95.4825 Q126.1185 -96.6466 126.1185 -98.7559 Q126.1185 -100.8497 127.1497 -101.9981 Q128.181 -103.1466 130.0716 -103.1466 Q131.931 -103.1466 132.9622 -101.9747 Q133.9935 -100.8028 133.9935 -98.7403 ZM127.1654 -98.7403 Q127.1654 -97.0059 127.9076 -96.0997 Q128.6497 -95.1934 130.0716 -95.1934 Q131.4935 -95.1934 132.2201 -96.0919 Q132.9466 -96.9903 132.9466 -98.7403 Q132.9466 -100.4747 132.2201 -101.3653 Q131.4935 -102.2559 130.0716 -102.2559 Q128.6497 -102.2559 127.9076 -101.3575 Q127.1654 -100.4591 127.1654 -98.7403 Z"/><path style="stroke:none;" d="M-136.9215 98.5997 Q-136.9215 100.6622 -137.9606 101.8419 Q-138.9996 103.0216 -140.8434 103.0216 Q-142.734 103.0216 -143.7653 101.8575 Q-144.7965 100.6934 -144.7965 98.5841 Q-144.7965 96.4903 -143.7653 95.3419 Q-142.734 94.1934 -140.8434 94.1934 Q-138.984 94.1934 -137.9528 95.3653 Q-136.9215 96.5372 -136.9215 98.5997 ZM-143.7496 98.5997 Q-143.7496 100.3341 -143.0074 101.2403 Q-142.2653 102.1466 -140.8434 102.1466 Q-139.4215 102.1466 -138.6949 101.2481 Q-137.9684 100.3497 -137.9684 98.5997 Q-137.9684 96.8653 -138.6949 95.9747 Q-139.4215 95.0841 -140.8434 95.0841 Q-142.2653 95.0841 -143.0074 95.9825 Q-143.7496 96.8809 -143.7496 98.5997 Z"/></g><g transform="translate(148,106)" style="stroke-linecap:butt; font-size:8.4px; fill:gray; text-rendering:geometricPrecision; image-rendering:optimizeQuality; color-rendering:optimizeQuality; font-family:'Open Sans'; font-style:italic; stroke:gray; color-interpolation:linearRGB; stroke-miterlimit:5;"><path style="stroke:none;" d="M2.2552 34.8732 Q2.2552 33.5451 2.7239 32.4201 Q3.1927 31.2951 4.2239 30.2169 L4.8333 30.2169 Q3.8646 31.2794 3.3802 32.4513 Q2.8958 33.6232 2.8958 34.8576 Q2.8958 36.1857 3.3333 37.2013 L2.8177 37.2013 Q2.2552 36.1701 2.2552 34.8732 ZM7.8778 34.2794 Q7.8778 35.1076 7.3309 35.5607 Q6.784 36.0138 5.784 36.0138 Q5.3778 36.0138 5.0653 35.9591 Q4.7528 35.9044 4.4715 35.7638 L4.4715 35.1076 Q5.0965 35.4357 5.7996 35.4357 Q6.4246 35.4357 6.7996 35.1388 Q7.1746 34.8419 7.1746 34.3263 Q7.1746 34.0138 6.9715 33.7872 Q6.7684 33.5607 6.2059 33.2326 Q5.6121 32.9044 5.3856 32.5763 Q5.159 32.2482 5.159 31.7951 Q5.159 31.0607 5.6746 30.5997 Q6.1903 30.1388 7.034 30.1388 Q7.409 30.1388 7.7449 30.2169 Q8.0809 30.2951 8.4559 30.4669 L8.1903 31.0607 Q7.9403 30.9044 7.6199 30.8185 Q7.2996 30.7326 7.034 30.7326 Q6.5028 30.7326 6.1824 31.006 Q5.8621 31.2794 5.8621 31.7482 Q5.8621 31.9513 5.9324 32.0997 Q6.0028 32.2482 6.1434 32.381 Q6.284 32.5138 6.7059 32.7638 Q7.2684 33.1076 7.4715 33.3029 Q7.6746 33.4982 7.7762 33.7326 Q7.8778 33.9669 7.8778 34.2794 ZM10.4722 32.5607 Q10.4722 33.8888 9.9957 35.0216 Q9.5191 36.1544 8.5035 37.2013 L7.8941 37.2013 Q9.8316 35.0451 9.8316 32.5607 Q9.8316 31.2326 9.3941 30.2169 L9.9097 30.2169 Q10.4722 31.2794 10.4722 32.5607 Z"/><path style="stroke:none;" d="M-15.0645 44.8731 Q-15.0645 43.545 -14.5958 42.42 Q-14.127 41.295 -13.0958 40.2169 L-12.4864 40.2169 Q-13.4551 41.2794 -13.9395 42.4513 Q-14.4239 43.6231 -14.4239 44.8575 Q-14.4239 46.1856 -13.9864 47.2013 L-14.502 47.2013 Q-15.0645 46.17 -15.0645 44.8731 ZM-9.442 44.2794 Q-9.442 45.1075 -9.9888 45.5606 Q-10.5357 46.0138 -11.5357 46.0138 Q-11.942 46.0138 -12.2545 45.9591 Q-12.567 45.9044 -12.8482 45.7638 L-12.8482 45.1075 Q-12.2232 45.4356 -11.5201 45.4356 Q-10.8951 45.4356 -10.5201 45.1388 Q-10.1451 44.8419 -10.1451 44.3263 Q-10.1451 44.0138 -10.3482 43.7872 Q-10.5513 43.5606 -11.1138 43.2325 Q-11.7076 42.9044 -11.9341 42.5763 Q-12.1607 42.2481 -12.1607 41.795 Q-12.1607 41.0606 -11.6451 40.5997 Q-11.1295 40.1388 -10.2857 40.1388 Q-9.9107 40.1388 -9.5748 40.2169 Q-9.2388 40.295 -8.8638 40.4669 L-9.1295 41.0606 Q-9.3795 40.9044 -9.6998 40.8184 Q-10.0201 40.7325 -10.2857 40.7325 Q-10.817 40.7325 -11.1373 41.0059 Q-11.4576 41.2794 -11.4576 41.7481 Q-11.4576 41.9513 -11.3873 42.0997 Q-11.317 42.2481 -11.1763 42.3809 Q-11.0357 42.5138 -10.6138 42.7638 Q-10.0513 43.1075 -9.8482 43.3028 Q-9.6451 43.4981 -9.5435 43.7325 Q-9.442 43.9669 -9.442 44.2794 ZM-6.8475 42.5606 Q-6.8475 43.8888 -7.324 45.0216 Q-7.8006 46.1544 -8.8162 47.2013 L-9.4256 47.2013 Q-7.4881 45.045 -7.4881 42.5606 Q-7.4881 41.2325 -7.9256 40.2169 L-7.41 40.2169 Q-6.8475 41.2794 -6.8475 42.5606 Z"/><path style="stroke:none;" d="M2.2552 14.8731 Q2.2552 13.5449 2.7239 12.4199 Q3.1927 11.2949 4.2239 10.2168 L4.8333 10.2168 Q3.8646 11.2793 3.3802 12.4512 Q2.8958 13.6231 2.8958 14.8574 Q2.8958 16.1856 3.3333 17.2012 L2.8177 17.2012 Q2.2552 16.1699 2.2552 14.8731 ZM7.8778 14.2793 Q7.8778 15.1074 7.3309 15.5606 Q6.784 16.0137 5.784 16.0137 Q5.3778 16.0137 5.0653 15.959 Q4.7528 15.9043 4.4715 15.7637 L4.4715 15.1074 Q5.0965 15.4356 5.7996 15.4356 Q6.4246 15.4356 6.7996 15.1387 Q7.1746 14.8418 7.1746 14.3262 Q7.1746 14.0137 6.9715 13.7871 Q6.7684 13.5606 6.2059 13.2324 Q5.6121 12.9043 5.3856 12.5762 Q5.159 12.2481 5.159 11.7949 Q5.159 11.0606 5.6746 10.5996 Q6.1903 10.1387 7.034 10.1387 Q7.409 10.1387 7.7449 10.2168 Q8.0809 10.2949 8.4559 10.4668 L8.1903 11.0606 Q7.9403 10.9043 7.6199 10.8184 Q7.2996 10.7324 7.034 10.7324 Q6.5028 10.7324 6.1824 11.0059 Q5.8621 11.2793 5.8621 11.7481 Q5.8621 11.9512 5.9324 12.0996 Q6.0028 12.2481 6.1434 12.3809 Q6.284 12.5137 6.7059 12.7637 Q7.2684 13.1074 7.4715 13.3028 Q7.6746 13.4981 7.7762 13.7324 Q7.8778 13.9668 7.8778 14.2793 ZM10.4722 12.5606 Q10.4722 13.8887 9.9957 15.0215 Q9.5191 16.1543 8.5035 17.2012 L7.8941 17.2012 Q9.8316 15.0449 9.8316 12.5606 Q9.8316 11.2324 9.3941 10.2168 L9.9097 10.2168 Q10.4722 11.2793 10.4722 12.5606 Z"/><path style="fill:none; stroke:black;" d="M43.0815 47.7855 L43.557 47.94 L43.8509 47.5355"/><path style="fill:none; stroke:black;" d="M-36.936 38.17 L-36.936 38.67 L-36.503 38.92"/><path style="fill:none; stroke:black;" d="M-10.956 83.17 L-10.956 83.67 L-11.389 83.92"/><path style="fill:none; stroke:black;" d="M43.8509 -0.1955 L43.557 -0.6 L43.7115 -1.0755"/><path style="fill:none; stroke:black;" d="M-10.523 -6.08 L-10.956 -6.33 L-11.389 -6.08"/><path style="fill:none; stroke:black;" d="M60.8971 24.0745 L61.191 23.67 L60.8971 23.2655"/><path style="stroke:none;" d="M-58.3674 59.8733 Q-58.3674 58.5452 -57.8986 57.4202 Q-57.4299 56.2952 -56.3986 55.217 L-55.7892 55.217 Q-56.758 56.2795 -57.2424 57.4514 Q-57.7267 58.6233 -57.7267 59.8577 Q-57.7267 61.1858 -57.2892 62.2014 L-57.8049 62.2014 Q-58.3674 61.1702 -58.3674 59.8733 ZM-52.7448 59.2795 Q-52.7448 60.1077 -53.2917 60.5608 Q-53.8386 61.0139 -54.8386 61.0139 Q-55.2448 61.0139 -55.5573 60.9592 Q-55.8698 60.9045 -56.1511 60.7639 L-56.1511 60.1077 Q-55.5261 60.4358 -54.8229 60.4358 Q-54.1979 60.4358 -53.8229 60.1389 Q-53.4479 59.842 -53.4479 59.3264 Q-53.4479 59.0139 -53.6511 58.7873 Q-53.8542 58.5608 -54.4167 58.2327 Q-55.0104 57.9045 -55.237 57.5764 Q-55.4636 57.2483 -55.4636 56.7952 Q-55.4636 56.0608 -54.9479 55.5998 Q-54.4323 55.1389 -53.5886 55.1389 Q-53.2136 55.1389 -52.8776 55.217 Q-52.5417 55.2952 -52.1667 55.467 L-52.4323 56.0608 Q-52.6823 55.9045 -53.0026 55.8186 Q-53.3229 55.7327 -53.5886 55.7327 Q-54.1198 55.7327 -54.4401 56.0061 Q-54.7604 56.2795 -54.7604 56.7483 Q-54.7604 56.9514 -54.6901 57.0998 Q-54.6198 57.2483 -54.4792 57.3811 Q-54.3386 57.5139 -53.9167 57.7639 Q-53.3542 58.1077 -53.1511 58.303 Q-52.9479 58.4983 -52.8464 58.7327 Q-52.7448 58.967 -52.7448 59.2795 ZM-50.1503 57.5608 Q-50.1503 58.8889 -50.6269 60.0217 Q-51.1034 61.1545 -52.1191 62.2014 L-52.7284 62.2014 Q-50.7909 60.0452 -50.7909 57.5608 Q-50.7909 56.2327 -51.2284 55.217 L-50.7128 55.217 Q-50.1503 56.2795 -50.1503 57.5608 Z"/><path style="fill:none; stroke:black;" d="M-36.936 9.17 L-36.936 8.67 L-36.503 8.42"/><path style="fill:none; stroke:black;" d="M-36.503 98.42 L-36.936 98.67 L-37.369 98.42"/><path style="fill:none; stroke:black;" d="M-63.352 83.92 L-62.919 83.67 L-62.919 83.17"/><path style="fill:none; stroke:black;" d="M-88.466 38.92 L-88.899 38.67 L-89.332 38.92"/><path style="fill:none; stroke:black;" d="M-88.466 98.42 L-88.899 98.67 L-89.332 98.42"/><path style="fill:none; stroke:black;" d="M-114.446 53.42 L-114.879 53.67 L-114.879 54.17"/><path style="fill:none; stroke:black;" d="M-114.446 83.92 L-114.879 83.67 L-114.879 83.17"/></g><g transform="translate(148,106)" style="stroke-linecap:butt; text-rendering:geometricPrecision; color-rendering:optimizeQuality; image-rendering:optimizeQuality; font-family:'Open Sans'; color-interpolation:linearRGB; stroke-miterlimit:5;"><path style="stroke:none;" d="M33.7348 68.5423 L32.7348 68.5423 L32.7348 64.511 L28.2192 64.511 L28.2192 68.5423 L27.2192 68.5423 L27.2192 59.9798 L28.2192 59.9798 L28.2192 63.6204 L32.7348 63.6204 L32.7348 59.9798 L33.7348 59.9798 L33.7348 68.5423 Z"/><path style="stroke:none;" d="M13.5148 79.0392 L12.5148 79.0392 L12.5148 75.008 L7.9992 75.008 L7.9992 79.0392 L6.9992 79.0392 L6.9992 70.4767 L7.9992 70.4767 L7.9992 74.1174 L12.5148 74.1174 L12.5148 70.4767 L13.5148 70.4767 L13.5148 79.0392 Z"/></g></g></svg></svg></svg></svg>