<svg xmlns:ns0="http://www.w3.org/2000/svg" xmlns="http://www.w3.org/2000/svg"><g transform="translate(0, 0)"><ns0:svg width="158" viewBox="0 0 158 115" style="fill-opacity:1; color-rendering:auto; color-interpolation:auto; text-rendering:auto; stroke:black; stroke-linecap:square; stroke-miterlimit:10; shape-rendering:auto; stroke-opacity:1; fill:black; stroke-dasharray:none; font-weight:normal; stroke-width:1; font-family:'Open Sans'; font-style:normal; stroke-linejoin:miter; font-size:12; stroke-dashoffset:0; image-rendering:auto;" height="115" class="cas-substance-image"><ns0:svg class="cas-substance-single-component"><ns0:rect y="0" x="0" width="158" stroke="none" ry="7" rx="7" height="115" fill="white" class="cas-substance-group" /><ns0:svg y="0" x="0" width="158" viewBox="0 0 158 115" style="fill:black;" height="115" class="cas-substance-single-component-image"><ns0:svg><ns0:g><ns0:g transform="translate(80,59)" style="text-rendering:geometricPrecision; color-rendering:optimizeQuality; color-interpolation:linearRGB; stroke-linecap:butt; image-rendering:optimizeQuality;"><ns0:line y2="-11.8214" y1="-3.2718" x2="2.0254" x1="16.8332" style="fill:none;" /><ns0:line y2="15" y1="3.285" x2="48.48" x1="28.1895" style="fill:none;" /><ns0:line y2="-25.98" y1="-6.2499" x2="37.5" x1="26.1085" style="fill:none;" /><ns0:line y2="25.98" y1="6.1383" x2="7.5" x1="18.956" style="fill:none;" /><ns0:line y2="-2.3779" y1="-11.8114" x2="-25.3441" x1="-9.0032" style="fill:none;" /><ns0:line y2="0" y1="15" x2="74.463" x1="48.48" style="fill:none;" /><ns0:line y2="-51.963" y1="-25.98" x2="22.5" x1="37.5" style="fill:none;" /><ns0:line y2="51.963" y1="25.98" x2="22.5" x1="7.5" style="fill:none;" /><ns0:line y2="-25.98" y1="-5.399" x2="-44.463" x1="-32.5802" style="fill:none;" /><ns0:line y2="10.2584" y1="1.0262" x2="-50.7305" x1="-34.7402" style="fill:none;" /><ns0:line y2="13.2895" y1="4.0572" x2="-48.9805" x1="-32.9902" style="fill:none;" /><ns0:line y2="21.1274" y1="6.1686" x2="-19.2855" x1="-27.9222" style="fill:none;" /><ns0:line y2="19.3774" y1="4.4185" x2="-16.2544" x1="-24.8911" style="fill:none;" /><ns0:line y2="-25.98" y1="-25.98" x2="-70.2777" x1="-44.463" style="fill:none;" /><ns0:line y2="-48.524" y1="-25.98" x2="-57.4776" x1="-44.463" style="fill:none;" /><ns0:line y2="-46.0899" y1="-25.98" x2="-32.8536" x1="-44.463" style="fill:none;" /><ns0:path style="stroke-linecap:square; stroke:none;" d="M23.8633 2 Q23.8633 3.125 23.043 3.7656 Q22.2227 4.4062 20.8164 4.4062 Q19.2852 4.4062 18.4727 4 L18.4727 3.0469 Q19.0039 3.2656 19.6211 3.3984 Q20.2383 3.5312 20.8477 3.5312 Q21.8477 3.5312 22.3477 3.1484 Q22.8477 2.7656 22.8477 2.0938 Q22.8477 1.6562 22.668 1.3672 Q22.4883 1.0781 22.0742 0.8359 Q21.6602 0.5938 20.8008 0.2969 Q19.6133 -0.125 19.0977 -0.7109 Q18.582 -1.2969 18.582 -2.25 Q18.582 -3.2344 19.3242 -3.8203 Q20.0664 -4.4062 21.3008 -4.4062 Q22.5664 -4.4062 23.6445 -3.9375 L23.332 -3.0781 Q22.2695 -3.5156 21.2695 -3.5156 Q20.4727 -3.5156 20.0273 -3.1797 Q19.582 -2.8438 19.582 -2.2344 Q19.582 -1.7969 19.7461 -1.5078 Q19.9102 -1.2188 20.3008 -0.9844 Q20.6914 -0.75 21.5039 -0.4531 Q22.8477 0.0156 23.3555 0.5703 Q23.8633 1.125 23.8633 2 ZM26.4336 4.2812 L25.4648 4.2812 L25.4648 -2.1406 L26.4336 -2.1406 L26.4336 4.2812 ZM25.3867 -3.875 Q25.3867 -4.2188 25.5508 -4.375 Q25.7148 -4.5312 25.9648 -4.5312 Q26.1992 -4.5312 26.3633 -4.3672 Q26.5273 -4.2031 26.5273 -3.875 Q26.5273 -3.5469 26.3633 -3.3906 Q26.1992 -3.2344 25.9648 -3.2344 Q25.7148 -3.2344 25.5508 -3.3906 Q25.3867 -3.5469 25.3867 -3.875 Z" /></ns0:g><ns0:g transform="translate(80,59)" style="fill:rgb(230,0,0); text-rendering:geometricPrecision; color-rendering:optimizeQuality; image-rendering:optimizeQuality; font-family:'Open Sans'; stroke:rgb(230,0,0); color-interpolation:linearRGB;"><ns0:path style="stroke:none;" d="M0.4575 -15.0703 Q0.4575 -13.0078 -0.5816 -11.8281 Q-1.6206 -10.6484 -3.4644 -10.6484 Q-5.355 -10.6484 -6.3862 -11.8125 Q-7.4175 -12.9766 -7.4175 -15.0859 Q-7.4175 -17.1797 -6.3862 -18.3281 Q-5.355 -19.4766 -3.4644 -19.4766 Q-1.605 -19.4766 -0.5737 -18.3047 Q0.4575 -17.1328 0.4575 -15.0703 ZM-6.3706 -15.0703 Q-6.3706 -13.3359 -5.6284 -12.4297 Q-4.8862 -11.5234 -3.4644 -11.5234 Q-2.0425 -11.5234 -1.3159 -12.4219 Q-0.5894 -13.3203 -0.5894 -15.0703 Q-0.5894 -16.8047 -1.3159 -17.6953 Q-2.0425 -18.5859 -3.4644 -18.5859 Q-4.8862 -18.5859 -5.6284 -17.6875 Q-6.3706 -16.7891 -6.3706 -15.0703 Z" /></ns0:g><ns0:g transform="translate(80,59)" style="stroke-linecap:butt; text-rendering:geometricPrecision; color-rendering:optimizeQuality; image-rendering:optimizeQuality; font-family:'Open Sans'; color-interpolation:linearRGB; stroke-miterlimit:5;"><ns0:path style="fill:none;" d="M48.047 14.75 L48.48 15 L48.913 14.75" /><ns0:path style="fill:none;" d="M37.25 -25.547 L37.5 -25.98 L37.25 -26.413" /><ns0:path style="fill:none;" d="M7.75 25.547 L7.5 25.98 L7.75 26.413" /><ns0:path style="fill:rgb(148,108,0); stroke:none;" d="M-26.7677 1.9375 Q-26.7677 3.0625 -27.588 3.7031 Q-28.4083 4.3438 -29.8146 4.3438 Q-31.3458 4.3438 -32.1583 3.9375 L-32.1583 2.9844 Q-31.6271 3.2031 -31.0099 3.3359 Q-30.3927 3.4688 -29.7833 3.4688 Q-28.7833 3.4688 -28.2833 3.0859 Q-27.7833 2.7031 -27.7833 2.0312 Q-27.7833 1.5938 -27.963 1.3047 Q-28.1427 1.0156 -28.5568 0.7734 Q-28.9708 0.5312 -29.8302 0.2344 Q-31.0177 -0.1875 -31.5333 -0.7734 Q-32.0489 -1.3594 -32.0489 -2.3125 Q-32.0489 -3.2969 -31.3068 -3.8828 Q-30.5646 -4.4688 -29.3302 -4.4688 Q-28.0646 -4.4688 -26.9864 -4 L-27.2989 -3.1406 Q-28.3614 -3.5781 -29.3614 -3.5781 Q-30.1583 -3.5781 -30.6036 -3.2422 Q-31.0489 -2.9062 -31.0489 -2.2969 Q-31.0489 -1.8594 -30.8849 -1.5703 Q-30.7208 -1.2812 -30.3302 -1.0469 Q-29.9396 -0.8125 -29.1271 -0.5156 Q-27.7833 -0.0469 -27.2755 0.5078 Q-26.7677 1.0625 -26.7677 1.9375 Z" /><ns0:path style="fill:rgb(230,0,0); stroke:none;" d="M-51.5055 14.9297 Q-51.5055 16.9922 -52.5446 18.1719 Q-53.5836 19.3516 -55.4274 19.3516 Q-57.318 19.3516 -58.3492 18.1875 Q-59.3805 17.0234 -59.3805 14.9141 Q-59.3805 12.8203 -58.3492 11.6719 Q-57.318 10.5234 -55.4274 10.5234 Q-53.568 10.5234 -52.5367 11.6953 Q-51.5055 12.8672 -51.5055 14.9297 ZM-58.3336 14.9297 Q-58.3336 16.6641 -57.5914 17.5703 Q-56.8492 18.4766 -55.4274 18.4766 Q-54.0055 18.4766 -53.2789 17.5781 Q-52.5524 16.6797 -52.5524 14.9297 Q-52.5524 13.1953 -53.2789 12.3047 Q-54.0055 11.4141 -55.4274 11.4141 Q-56.8492 11.4141 -57.5914 12.3125 Q-58.3336 13.2109 -58.3336 14.9297 Z" /><ns0:path style="fill:rgb(230,0,0); stroke:none;" d="M-10.5255 25.9097 Q-10.5255 27.9722 -11.5646 29.1519 Q-12.6036 30.3316 -14.4474 30.3316 Q-16.338 30.3316 -17.3693 29.1675 Q-18.4005 28.0034 -18.4005 25.8941 Q-18.4005 23.8003 -17.3693 22.6519 Q-16.338 21.5034 -14.4474 21.5034 Q-12.588 21.5034 -11.5568 22.6753 Q-10.5255 23.8472 -10.5255 25.9097 ZM-17.3536 25.9097 Q-17.3536 27.6441 -16.6114 28.5503 Q-15.8693 29.4566 -14.4474 29.4566 Q-13.0255 29.4566 -12.2989 28.5581 Q-11.5724 27.6597 -11.5724 25.9097 Q-11.5724 24.1753 -12.2989 23.2847 Q-13.0255 22.3941 -14.4474 22.3941 Q-15.8693 22.3941 -16.6114 23.2925 Q-17.3536 24.1909 -17.3536 25.9097 Z" /><ns0:path style="fill:rgb(0,138,0); stroke:none;" d="M-75.8536 -21.8237 L-76.8536 -21.8237 L-76.8536 -30.3862 L-72.0724 -30.3862 L-72.0724 -29.5112 L-75.8536 -29.5112 L-75.8536 -26.3706 L-72.3067 -26.3706 L-72.3067 -25.48 L-75.8536 -25.48 L-75.8536 -21.8237 Z" /><ns0:path style="fill:rgb(0,138,0); stroke:none;" d="M-60.8536 -47.8068 L-61.8536 -47.8068 L-61.8536 -56.3693 L-57.0724 -56.3693 L-57.0724 -55.4943 L-60.8536 -55.4943 L-60.8536 -52.3536 L-57.3068 -52.3536 L-57.3068 -51.463 L-60.8536 -51.463 L-60.8536 -47.8068 Z" /><ns0:path style="fill:rgb(0,138,0); stroke:none;" d="M-30.8536 -47.8068 L-31.8536 -47.8068 L-31.8536 -56.3693 L-27.0724 -56.3693 L-27.0724 -55.4943 L-30.8536 -55.4943 L-30.8536 -52.3536 L-27.3068 -52.3536 L-27.3068 -51.463 L-30.8536 -51.463 L-30.8536 -47.8068 Z" /></ns0:g></ns0:g></ns0:svg></ns0:svg></ns0:svg></ns0:svg></g></svg>