<svg width="220" viewBox="0 0 220 63" style="fill-opacity:1; color-rendering:auto; color-interpolation:auto; text-rendering:auto; stroke:black; stroke-linecap:square; stroke-miterlimit:10; shape-rendering:auto; stroke-opacity:1; fill:black; stroke-dasharray:none; font-weight:normal; stroke-width:1; font-family:'Open Sans'; font-style:normal; stroke-linejoin:miter; font-size:12; stroke-dashoffset:0; image-rendering:auto;" height="63" class="cas-substance-image" xmlns:xlink="http://www.w3.org/1999/xlink" xmlns="http://www.w3.org/2000/svg"><svg class="cas-substance-single-component"><rect y="0" x="0" width="220" stroke="none" ry="7" rx="7" height="63" fill="white" class="cas-substance-group"/><svg y="0" x="0" width="220" viewBox="0 0 220 63" style="fill:black;" height="63" class="cas-substance-single-component-image"><svg><g><g transform="translate(108,33)" style="text-rendering:geometricPrecision; color-rendering:optimizeQuality; color-interpolation:linearRGB; stroke-linecap:butt; image-rendering:optimizeQuality;"><line y2="25.98" y1="5.8883" x2="-105" x1="-93.3997" style="fill:none;"/><line y2="-25.98" y1="-6.1383" x2="-105" x1="-93.544" style="fill:none;"/><line y2="0" y1="0" x2="-60" x1="-84.6484" style="fill:none;"/><line y2="-25.98" y1="0" x2="45" x1="30" style="fill:none;"/><line y2="-25.9801" y1="-3.5" x2="40.9585" x1="27.9793" style="fill:none;"/><line y2="0" y1="0" x2="0" x1="30" style="fill:none;"/><line y2="-25.98" y1="-25.98" x2="75" x1="45" style="fill:none;"/><line y2="-25.98" y1="-25.98" x2="99.6484" x1="75" style="fill:none;"/><line y2="-29.48" y1="-29.48" x2="99.6484" x1="75" style="fill:none;"/><line y2="-22.48" y1="-22.48" x2="99.6484" x1="75" style="fill:none;"/><line y2="-25.98" y1="0" x2="-45" x1="-60" style="fill:none;"/><line y2="-22.48" y1="0.0001" x2="-42.9793" x1="-55.9585" style="fill:none;"/><line y2="25.98" y1="0" x2="-45" x1="-60" style="fill:none;"/><line y2="-25.98" y1="-25.98" x2="-15" x1="-45" style="fill:none;"/><line y2="25.98" y1="25.98" x2="-15" x1="-45" style="fill:none;"/><line y2="22.48" y1="22.48" x2="-17.0207" x1="-42.9793" style="fill:none;"/><line y2="0" y1="-25.98" x2="0" x1="-15" style="fill:none;"/><line y2="0.0001" y1="-22.48" x2="-4.0415" x1="-17.0207" style="fill:none;"/><line y2="0" y1="25.98" x2="0" x1="-15" style="fill:none;"/></g><g transform="translate(108,33)" style="fill:rgb(0,5,255); text-rendering:geometricPrecision; color-rendering:optimizeQuality; image-rendering:optimizeQuality; font-family:'Open Sans'; stroke:rgb(0,5,255); color-interpolation:linearRGB;"><path style="stroke:none;" d="M-86.6484 4.1562 L-87.7891 4.1562 L-92.4766 -3.0312 L-92.5234 -3.0312 Q-92.4297 -1.7656 -92.4297 -0.7188 L-92.4297 4.1562 L-93.3516 4.1562 L-93.3516 -4.4062 L-92.2266 -4.4062 L-87.5547 2.75 L-87.5078 2.75 Q-87.5078 2.5938 -87.5547 1.7344 Q-87.6016 0.875 -87.5859 0.5 L-87.5859 -4.4062 L-86.6484 -4.4062 L-86.6484 4.1562 Z"/></g><g transform="translate(108,33)" style="stroke-linecap:butt; text-rendering:geometricPrecision; color-rendering:optimizeQuality; image-rendering:optimizeQuality; font-family:'Open Sans'; color-interpolation:linearRGB; stroke-miterlimit:5;"><path style="fill:none;" d="M30.25 -0.433 L30 0 L29.5 -0"/><path style="fill:none;" d="M44.75 -25.547 L45 -25.98 L45.5 -25.98"/><path style="fill:rgb(0,5,255); stroke:none;" d="M108.3516 -21.8237 L107.2109 -21.8237 L102.5234 -29.0112 L102.4766 -29.0112 Q102.5703 -27.7456 102.5703 -26.6987 L102.5703 -21.8237 L101.6484 -21.8237 L101.6484 -30.3862 L102.7734 -30.3862 L107.4453 -23.23 L107.4922 -23.23 Q107.4922 -23.3862 107.4453 -24.2456 Q107.3984 -25.105 107.4141 -25.48 L107.4141 -30.3862 L108.3516 -30.3862 L108.3516 -21.8237 Z"/><path style="fill:none;" d="M-59.75 -0.433 L-60 0 L-60.5 -0"/><path style="fill:none;" d="M-45.25 -25.547 L-45 -25.98 L-44.5 -25.98"/><path style="fill:none;" d="M-45.25 25.547 L-45 25.98 L-44.5 25.98"/><path style="fill:none;" d="M-15.5 -25.98 L-15 -25.98 L-14.75 -25.547"/><path style="fill:none;" d="M-15.5 25.98 L-15 25.98 L-14.75 25.547"/><path style="fill:none;" d="M-0.25 -0.433 L0 0 L0.5 0"/></g></g></svg></svg></svg></svg>