<svg xmlns:ns0="http://www.w3.org/2000/svg" xmlns="http://www.w3.org/2000/svg"><g transform="translate(0, 0)"><ns0:svg width="318" viewBox="0 0 318 178" style="fill-opacity:1; color-rendering:auto; color-interpolation:auto; text-rendering:auto; stroke:black; stroke-linecap:square; stroke-miterlimit:10; shape-rendering:auto; stroke-opacity:1; fill:black; stroke-dasharray:none; font-weight:normal; stroke-width:1; font-family:'Open Sans'; font-style:normal; stroke-linejoin:miter; font-size:12; stroke-dashoffset:0; image-rendering:auto;" height="178" class="cas-substance-image"><ns0:svg class="cas-substance-single-component"><ns0:rect y="0" x="0" width="318" stroke="none" ry="7" rx="7" height="178" fill="white" class="cas-substance-group" /><ns0:svg y="0" x="0" width="318" viewBox="0 0 318 163" style="fill:black;" height="163" class="cas-substance-single-component-image"><ns0:svg><ns0:g><ns0:g transform="translate(154,81)" style="text-rendering:geometricPrecision; color-rendering:optimizeQuality; color-interpolation:linearRGB; stroke-linecap:butt; image-rendering:optimizeQuality;"><ns0:line y2="-1.75" y1="-1.75" x2="-39.6484" x1="-20.3516" style="fill:none;" /><ns0:line y2="1.75" y1="1.75" x2="-39.6484" x1="-20.3516" style="fill:none;" /><ns0:line y2="-25.98" y1="-6.1383" x2="0" x1="-11.456" style="fill:none;" /><ns0:line y2="25.98" y1="5.8883" x2="-60" x1="-48.3997" style="fill:none;" /><ns0:line y2="12.6431" y1="21.9535" x2="10.4004" x1="26.5259" style="fill:none;" /><ns0:line y2="15.6741" y1="24.9845" x2="8.6503" x1="24.7759" style="fill:none;" /><ns0:line y2="39.2541" y1="30.0517" x2="49.4909" x1="33.5523" style="fill:none;" /><ns0:line y2="36.2231" y1="27.0207" x2="51.2409" x1="35.3024" style="fill:none;" /><ns0:line y2="46.2411" y1="31.5241" x2="18.3033" x1="26.7994" style="fill:none;" /><ns0:line y2="0" y1="20.8033" x2="45" x1="32.9888" style="fill:none;" /><ns0:line y2="-51.963" y1="-51.963" x2="-15" x1="-39.0625" style="fill:none;" /><ns0:line y2="-49.6284" y1="-32.4487" x2="121.75" x1="121.75" style="fill:none;" /><ns0:line y2="-49.6284" y1="-32.4487" x2="118.25" x1="118.25" style="fill:none;" /><ns0:line y2="-2.4566" y1="-19.6362" x2="118.25" x1="118.25" style="fill:none;" /><ns0:line y2="-2.4566" y1="-19.6362" x2="121.75" x1="121.75" style="fill:none;" /><ns0:line y2="-25.98" y1="-25.98" x2="144.0625" x1="124.561" style="fill:none;" /><ns0:line y2="-25.98" y1="-25.98" x2="90" x1="115.3567" style="fill:none;" /><ns0:line y2="-51.963" y1="-25.98" x2="45" x1="30" style="fill:none;" /><ns0:line y2="-51.9628" y1="-29.4799" x2="40.9585" x1="27.9791" style="fill:none;" /><ns0:line y2="-25.98" y1="-25.98" x2="0" x1="30" style="fill:none;" /><ns0:line y2="0" y1="-25.98" x2="45" x1="30" style="fill:none;" /><ns0:line y2="-51.963" y1="-51.963" x2="75" x1="45" style="fill:none;" /><ns0:line y2="-77.943" y1="-51.963" x2="30" x1="45" style="fill:none;" /><ns0:line y2="-51.963" y1="-25.98" x2="-15" x1="0" style="fill:none;" /><ns0:line y2="-51.9628" y1="-29.4799" x2="-10.9585" x1="2.0209" style="fill:none;" /><ns0:line y2="0" y1="0" x2="75" x1="45" style="fill:none;" /><ns0:line y2="-3.5" y1="-3.5" x2="72.9793" x1="47.0207" style="fill:none;" /><ns0:line y2="-25.98" y1="-51.963" x2="90" x1="75" style="fill:none;" /><ns0:line y2="-25.9802" y1="-48.4631" x2="85.9585" x1="72.9791" style="fill:none;" /><ns0:line y2="-77.943" y1="-77.943" x2="0" x1="30" style="fill:none;" /><ns0:line y2="-74.443" y1="-74.443" x2="2.0207" x1="27.9793" style="fill:none;" /><ns0:line y2="-77.943" y1="-51.963" x2="0" x1="-15" style="fill:none;" /><ns0:line y2="-25.98" y1="0" x2="90" x1="75" style="fill:none;" /><ns0:line y2="25.98" y1="25.98" x2="-90" x1="-60" style="fill:none;" /><ns0:line y2="51.963" y1="25.98" x2="-45" x1="-60" style="fill:none;" /><ns0:line y2="51.9628" y1="29.4799" x2="-49.0415" x1="-62.0209" style="fill:none;" /><ns0:line y2="51.963" y1="25.98" x2="-105" x1="-90" style="fill:none;" /><ns0:line y2="51.9628" y1="29.4799" x2="-100.9585" x1="-87.9791" style="fill:none;" /><ns0:line y2="0" y1="25.98" x2="-105" x1="-90" style="fill:none;" /><ns0:line y2="77.943" y1="51.963" x2="-60" x1="-45" style="fill:none;" /><ns0:line y2="77.943" y1="51.963" x2="-90" x1="-105" style="fill:none;" /><ns0:line y2="51.963" y1="51.963" x2="-135" x1="-105" style="fill:none;" /><ns0:line y2="0" y1="0" x2="-135" x1="-105" style="fill:none;" /><ns0:line y2="3.5" y1="3.5" x2="-132.9793" x1="-107.0207" style="fill:none;" /><ns0:line y2="77.943" y1="77.943" x2="-90" x1="-60" style="fill:none;" /><ns0:line y2="74.443" y1="74.443" x2="-87.9793" x1="-62.0207" style="fill:none;" /><ns0:line y2="25.98" y1="51.963" x2="-150" x1="-135" style="fill:none;" /><ns0:line y2="25.9802" y1="48.4631" x2="-145.9585" x1="-132.9791" style="fill:none;" /><ns0:line y2="25.98" y1="0" x2="-150" x1="-135" style="fill:none;" /></ns0:g><ns0:g transform="translate(154,81)" style="fill:rgb(0,5,255); text-rendering:geometricPrecision; color-rendering:optimizeQuality; image-rendering:optimizeQuality; font-family:'Open Sans'; stroke:rgb(0,5,255); color-interpolation:linearRGB;"><ns0:path style="stroke:none;" d="M-11.6484 4.1562 L-12.7891 4.1562 L-17.4766 -3.0312 L-17.5234 -3.0312 Q-17.4297 -1.7656 -17.4297 -0.7188 L-17.4297 4.1562 L-18.3516 4.1562 L-18.3516 -4.4062 L-17.2266 -4.4062 L-12.5547 2.75 L-12.5078 2.75 Q-12.5078 2.5938 -12.5547 1.7344 Q-12.6016 0.875 -12.5859 0.5 L-12.5859 -4.4062 L-11.6484 -4.4062 L-11.6484 4.1562 Z" /><ns0:path style="stroke:none;" d="M-41.6484 4.1562 L-42.7891 4.1562 L-47.4766 -3.0312 L-47.5234 -3.0312 Q-47.4297 -1.7656 -47.4297 -0.7188 L-47.4297 4.1562 L-48.3516 4.1562 L-48.3516 -4.4062 L-47.2266 -4.4062 L-42.5547 2.75 L-42.5078 2.75 Q-42.5078 2.5938 -42.5547 1.7344 Q-42.6016 0.875 -42.5859 0.5 L-42.5859 -4.4062 L-41.6484 -4.4062 L-41.6484 4.1562 Z" /><ns0:path style="fill:rgb(148,108,0); stroke:none;" d="M32.6953 27.9175 Q32.6953 29.0425 31.875 29.6831 Q31.0547 30.3237 29.6484 30.3237 Q28.1172 30.3237 27.3047 29.9175 L27.3047 28.9644 Q27.8359 29.1831 28.4531 29.3159 Q29.0703 29.4487 29.6797 29.4487 Q30.6797 29.4487 31.1797 29.0659 Q31.6797 28.6831 31.6797 28.0112 Q31.6797 27.5737 31.5 27.2847 Q31.3203 26.9956 30.9062 26.7534 Q30.4922 26.5112 29.6328 26.2144 Q28.4453 25.7925 27.9297 25.2066 Q27.4141 24.6206 27.4141 23.6675 Q27.4141 22.6831 28.1562 22.0972 Q28.8984 21.5112 30.1328 21.5112 Q31.3984 21.5112 32.4766 21.98 L32.1641 22.8394 Q31.1016 22.4019 30.1016 22.4019 Q29.3047 22.4019 28.8594 22.7378 Q28.4141 23.0737 28.4141 23.6831 Q28.4141 24.1206 28.5781 24.4097 Q28.7422 24.6987 29.1328 24.9331 Q29.5234 25.1675 30.3359 25.4644 Q31.6797 25.9331 32.1875 26.4878 Q32.6953 27.0425 32.6953 27.9175 Z" /><ns0:path style="fill:rgb(230,0,0); stroke:none;" d="M7.9575 10.9097 Q7.9575 12.9722 6.9184 14.1519 Q5.8794 15.3316 4.0356 15.3316 Q2.145 15.3316 1.1137 14.1675 Q0.0825 13.0034 0.0825 10.8941 Q0.0825 8.8003 1.1137 7.6519 Q2.145 6.5034 4.0356 6.5034 Q5.895 6.5034 6.9262 7.6753 Q7.9575 8.8472 7.9575 10.9097 ZM1.1294 10.9097 Q1.1294 12.6441 1.8716 13.5503 Q2.6137 14.4566 4.0356 14.4566 Q5.4575 14.4566 6.1841 13.5581 Q6.9106 12.6597 6.9106 10.9097 Q6.9106 9.1753 6.1841 8.2847 Q5.4575 7.3941 4.0356 7.3941 Q2.6137 7.3941 1.8716 8.2925 Q1.1294 9.1909 1.1294 10.9097 Z" /><ns0:path style="fill:rgb(230,0,0); stroke:none;" d="M59.9175 40.9097 Q59.9175 42.9722 58.8784 44.1519 Q57.8394 45.3316 55.9956 45.3316 Q54.105 45.3316 53.0738 44.1675 Q52.0425 43.0034 52.0425 40.8941 Q52.0425 38.8003 53.0738 37.6519 Q54.105 36.5034 55.9956 36.5034 Q57.855 36.5034 58.8863 37.6753 Q59.9175 38.8472 59.9175 40.9097 ZM53.0894 40.9097 Q53.0894 42.6441 53.8316 43.5503 Q54.5738 44.4566 55.9956 44.4566 Q57.4175 44.4566 58.1441 43.5581 Q58.8706 42.6597 58.8706 40.9097 Q58.8706 39.1753 58.1441 38.2847 Q57.4175 37.3941 55.9956 37.3941 Q54.5738 37.3941 53.8316 38.2925 Q53.0894 39.1909 53.0894 40.9097 Z" /><ns0:path style="fill:rgb(230,0,0); stroke:none;" d="M18.9375 51.8927 Q18.9375 53.9552 17.8984 55.1349 Q16.8594 56.3146 15.0156 56.3146 Q13.125 56.3146 12.0938 55.1505 Q11.0625 53.9864 11.0625 51.8771 Q11.0625 49.7833 12.0938 48.6349 Q13.125 47.4864 15.0156 47.4864 Q16.875 47.4864 17.9062 48.6583 Q18.9375 49.8302 18.9375 51.8927 ZM12.1094 51.8927 Q12.1094 53.6271 12.8516 54.5333 Q13.5938 55.4396 15.0156 55.4396 Q16.4375 55.4396 17.1641 54.5411 Q17.8906 53.6427 17.8906 51.8927 Q17.8906 50.1583 17.1641 49.2677 Q16.4375 48.3771 15.0156 48.3771 Q13.5938 48.3771 12.8516 49.2755 Q12.1094 50.1739 12.1094 51.8927 Z" /><ns0:path style="fill:rgb(230,0,0); stroke:none;" d="M10.0625 56.1896 L9.0625 56.1896 L9.0625 52.1583 L4.5469 52.1583 L4.5469 56.1896 L3.5469 56.1896 L3.5469 47.6271 L4.5469 47.6271 L4.5469 51.2677 L9.0625 51.2677 L9.0625 47.6271 L10.0625 47.6271 L10.0625 56.1896 Z" /><ns0:path style="fill:rgb(230,0,0); stroke:none;" d="M-41.0625 -52.0333 Q-41.0625 -49.9708 -42.1016 -48.7911 Q-43.1406 -47.6114 -44.9844 -47.6114 Q-46.875 -47.6114 -47.9062 -48.7755 Q-48.9375 -49.9396 -48.9375 -52.0489 Q-48.9375 -54.1427 -47.9062 -55.2911 Q-46.875 -56.4396 -44.9844 -56.4396 Q-43.125 -56.4396 -42.0938 -55.2677 Q-41.0625 -54.0958 -41.0625 -52.0333 ZM-47.8906 -52.0333 Q-47.8906 -50.2989 -47.1484 -49.3927 Q-46.4062 -48.4864 -44.9844 -48.4864 Q-43.5625 -48.4864 -42.8359 -49.3849 Q-42.1094 -50.2833 -42.1094 -52.0333 Q-42.1094 -53.7677 -42.8359 -54.6583 Q-43.5625 -55.5489 -44.9844 -55.5489 Q-46.4062 -55.5489 -47.1484 -54.6505 Q-47.8906 -53.7521 -47.8906 -52.0333 Z" /><ns0:path style="fill:rgb(230,0,0); stroke:none;" d="M-49.9375 -47.7364 L-50.9375 -47.7364 L-50.9375 -51.7677 L-55.4531 -51.7677 L-55.4531 -47.7364 L-56.4531 -47.7364 L-56.4531 -56.2989 L-55.4531 -56.2989 L-55.4531 -52.6583 L-50.9375 -52.6583 L-50.9375 -56.2989 L-49.9375 -56.2989 L-49.9375 -47.7364 Z" /><ns0:path style="fill:rgb(148,108,0); stroke:none;" d="M122.6953 -24.0425 Q122.6953 -22.9175 121.875 -22.2769 Q121.0547 -21.6362 119.6484 -21.6362 Q118.1172 -21.6362 117.3047 -22.0425 L117.3047 -22.9956 Q117.8359 -22.7769 118.4531 -22.6441 Q119.0703 -22.5112 119.6797 -22.5112 Q120.6797 -22.5112 121.1797 -22.8941 Q121.6797 -23.2769 121.6797 -23.9487 Q121.6797 -24.3862 121.5 -24.6753 Q121.3203 -24.9644 120.9062 -25.2066 Q120.4922 -25.4487 119.6328 -25.7456 Q118.4453 -26.1675 117.9297 -26.7534 Q117.4141 -27.3394 117.4141 -28.2925 Q117.4141 -29.2769 118.1562 -29.8628 Q118.8984 -30.4487 120.1328 -30.4487 Q121.3984 -30.4487 122.4766 -29.98 L122.1641 -29.1206 Q121.1016 -29.5581 120.1016 -29.5581 Q119.3047 -29.5581 118.8594 -29.2222 Q118.4141 -28.8862 118.4141 -28.2769 Q118.4141 -27.8394 118.5781 -27.5503 Q118.7422 -27.2612 119.1328 -27.0269 Q119.5234 -26.7925 120.3359 -26.4956 Q121.6797 -26.0269 122.1875 -25.4722 Q122.6953 -24.9175 122.6953 -24.0425 Z" /><ns0:path style="fill:rgb(230,0,0); stroke:none;" d="M123.9375 -56.0503 Q123.9375 -53.9878 122.8984 -52.8081 Q121.8594 -51.6284 120.0156 -51.6284 Q118.125 -51.6284 117.0938 -52.7925 Q116.0625 -53.9566 116.0625 -56.0659 Q116.0625 -58.1597 117.0938 -59.3081 Q118.125 -60.4566 120.0156 -60.4566 Q121.875 -60.4566 122.9062 -59.2847 Q123.9375 -58.1128 123.9375 -56.0503 ZM117.1094 -56.0503 Q117.1094 -54.3159 117.8516 -53.4097 Q118.5938 -52.5034 120.0156 -52.5034 Q121.4375 -52.5034 122.1641 -53.4019 Q122.8906 -54.3003 122.8906 -56.0503 Q122.8906 -57.7847 122.1641 -58.6753 Q121.4375 -59.5659 120.0156 -59.5659 Q118.5938 -59.5659 117.8516 -58.6675 Q117.1094 -57.7691 117.1094 -56.0503 Z" /><ns0:path style="fill:rgb(230,0,0); stroke:none;" d="M123.9375 3.9497 Q123.9375 6.0122 122.8984 7.1919 Q121.8594 8.3716 120.0156 8.3716 Q118.125 8.3716 117.0938 7.2075 Q116.0625 6.0434 116.0625 3.9341 Q116.0625 1.8403 117.0938 0.6919 Q118.125 -0.4566 120.0156 -0.4566 Q121.875 -0.4566 122.9062 0.7153 Q123.9375 1.8872 123.9375 3.9497 ZM117.1094 3.9497 Q117.1094 5.6841 117.8516 6.5903 Q118.5938 7.4966 120.0156 7.4966 Q121.4375 7.4966 122.1641 6.5981 Q122.8906 5.6997 122.8906 3.9497 Q122.8906 2.2153 122.1641 1.3247 Q121.4375 0.4341 120.0156 0.4341 Q118.5938 0.4341 117.8516 1.3325 Q117.1094 2.2309 117.1094 3.9497 Z" /><ns0:path style="fill:rgb(230,0,0); stroke:none;" d="M153.9375 -26.0503 Q153.9375 -23.9878 152.8984 -22.8081 Q151.8594 -21.6284 150.0156 -21.6284 Q148.125 -21.6284 147.0938 -22.7925 Q146.0625 -23.9566 146.0625 -26.0659 Q146.0625 -28.1597 147.0938 -29.3081 Q148.125 -30.4566 150.0156 -30.4566 Q151.875 -30.4566 152.9062 -29.2847 Q153.9375 -28.1128 153.9375 -26.0503 ZM147.1094 -26.0503 Q147.1094 -24.3159 147.8516 -23.4097 Q148.5938 -22.5034 150.0156 -22.5034 Q151.4375 -22.5034 152.1641 -23.4019 Q152.8906 -24.3003 152.8906 -26.0503 Q152.8906 -27.7847 152.1641 -28.6753 Q151.4375 -29.5659 150.0156 -29.5659 Q148.5938 -29.5659 147.8516 -28.6675 Q147.1094 -27.7691 147.1094 -26.0503 Z" /><ns0:path style="fill:rgb(230,0,0); stroke:none;" d="M161.4531 -21.7534 L160.4531 -21.7534 L160.4531 -25.7847 L155.9375 -25.7847 L155.9375 -21.7534 L154.9375 -21.7534 L154.9375 -30.3159 L155.9375 -30.3159 L155.9375 -26.6753 L160.4531 -26.6753 L160.4531 -30.3159 L161.4531 -30.3159 L161.4531 -21.7534 Z" /></ns0:g><ns0:g transform="translate(154,81)" style="stroke-linecap:butt; text-rendering:geometricPrecision; color-rendering:optimizeQuality; image-rendering:optimizeQuality; font-family:'Open Sans'; color-interpolation:linearRGB; stroke-miterlimit:5;"><ns0:path style="fill:none;" d="M30.25 -26.413 L30 -25.98 L29.5 -25.98" /><ns0:path style="fill:none;" d="M44.75 -51.53 L45 -51.963 L45.5 -51.963" /><ns0:path style="fill:none;" d="M-0.25 -26.413 L0 -25.98 L-0.25 -25.547" /><ns0:path style="fill:none;" d="M45.5 0 L45 0 L44.75 0.433" /><ns0:path style="fill:none;" d="M74.5 -51.963 L75 -51.963 L75.25 -51.53" /><ns0:path style="fill:none;" d="M30.25 -77.51 L30 -77.943 L29.5 -77.943" /><ns0:path style="fill:none;" d="M-14.75 -51.53 L-15 -51.963 L-15.5 -51.963" /><ns0:path style="fill:none;" d="M74.5 -0 L75 0 L75.25 -0.433" /><ns0:path style="fill:none;" d="M89.75 -26.413 L90 -25.98 L90.5 -25.98" /><ns0:path style="fill:none;" d="M0.5 -77.943 L0 -77.943 L-0.25 -77.51" /><ns0:path style="fill:none;" d="M-59.75 26.413 L-60 25.98 L-59.75 25.547" /><ns0:path style="fill:none;" d="M-90.25 26.413 L-90 25.98 L-89.5 25.98" /><ns0:path style="fill:none;" d="M-45.25 51.53 L-45 51.963 L-45.25 52.396" /><ns0:path style="fill:none;" d="M-104.75 51.53 L-105 51.963 L-104.75 52.396" /><ns0:path style="fill:none;" d="M-104.75 0.433 L-105 0 L-105.5 -0" /><ns0:path style="fill:none;" d="M-59.75 77.51 L-60 77.943 L-60.5 77.943" /><ns0:path style="fill:none;" d="M-90.25 77.51 L-90 77.943 L-89.5 77.943" /><ns0:path style="fill:none;" d="M-134.5 51.963 L-135 51.963 L-135.25 51.53" /><ns0:path style="fill:none;" d="M-134.5 0 L-135 0 L-135.25 0.433" /><ns0:path style="fill:none;" d="M-149.75 26.413 L-150 25.98 L-149.75 25.547" /></ns0:g></ns0:g></ns0:svg></ns0:svg><ns0:svg y="163" x="136" class="cas-substance-saf"><ns0:svg y="5" x="0" width="4" style="fill:black;" height="4" class="cas-substance-saf-dot"><ns0:circle stroke="none" r="2" fill="black" cy="2" cx="2" /></ns0:svg><ns0:svg y="0" x="7" width="12" style="fill:black;" height="15" class="cas-substance-saf-coefficient"><ns0:svg><ns0:g><ns0:g transform="translate(6,7)" style="text-rendering:geometricPrecision; font-family:'Open Sans'; color-interpolation:linearRGB; color-rendering:optimizeQuality; image-rendering:optimizeQuality;"><ns0:path style="stroke:none;" d="M2.8125 4.2188 L-2.8125 4.2188 L-2.8125 3.375 L-0.5625 1.1094 Q0.4688 0.0625 0.7969 -0.3828 Q1.125 -0.8281 1.2891 -1.25 Q1.4531 -1.6719 1.4531 -2.1562 Q1.4531 -2.8438 1.0391 -3.2422 Q0.625 -3.6406 -0.125 -3.6406 Q-0.6562 -3.6406 -1.1328 -3.4609 Q-1.6094 -3.2812 -2.1875 -2.8281 L-2.7031 -3.4844 Q-1.5312 -4.4688 -0.125 -4.4688 Q1.0781 -4.4688 1.7656 -3.8516 Q2.4531 -3.2344 2.4531 -2.1875 Q2.4531 -1.375 1.9922 -0.5781 Q1.5312 0.2188 0.2812 1.4375 L-1.5938 3.2656 L-1.5938 3.3125 L2.8125 3.3125 L2.8125 4.2188 Z" /></ns0:g></ns0:g></ns0:svg></ns0:svg><ns0:svg y="0" x="23" width="20" style="fill:black;" height="15" class="cas-substance-saf-image"><ns0:svg><ns0:g><ns0:g transform="translate(10,7)" style="text-rendering:geometricPrecision; font-family:'Open Sans'; color-interpolation:linearRGB; color-rendering:optimizeQuality; image-rendering:optimizeQuality;"><ns0:path style="stroke:none;" d="M-0.0859 4.1562 L-1.2266 4.1562 L-5.9141 -3.0312 L-5.9609 -3.0312 Q-5.8672 -1.7656 -5.8672 -0.7188 L-5.8672 4.1562 L-6.7891 4.1562 L-6.7891 -4.4062 L-5.6641 -4.4062 L-0.9922 2.75 L-0.9453 2.75 Q-0.9453 2.5938 -0.9922 1.7344 Q-1.0391 0.875 -1.0234 0.5 L-1.0234 -4.4062 L-0.0859 -4.4062 L-0.0859 4.1562 ZM6.0703 4.1562 L5.8672 3.2344 L5.8203 3.2344 Q5.3516 3.8438 4.875 4.0625 Q4.3984 4.2812 3.6797 4.2812 Q2.7266 4.2812 2.1797 3.7812 Q1.6328 3.2812 1.6328 2.375 Q1.6328 0.4375 4.7422 0.3438 L5.8359 0.3125 L5.8359 -0.0938 Q5.8359 -0.8438 5.5156 -1.2031 Q5.1953 -1.5625 4.4766 -1.5625 Q3.6641 -1.5625 2.6641 -1.0781 L2.3516 -1.8281 Q2.8359 -2.0781 3.3984 -2.2266 Q3.9609 -2.375 4.5391 -2.375 Q5.6797 -2.375 6.2344 -1.8672 Q6.7891 -1.3594 6.7891 -0.2344 L6.7891 4.1562 L6.0703 4.1562 ZM3.8672 3.4688 Q4.7734 3.4688 5.2969 2.9688 Q5.8203 2.4688 5.8203 1.5781 L5.8203 1 L4.8359 1.0312 Q3.6797 1.0781 3.1719 1.3984 Q2.6641 1.7188 2.6641 2.3906 Q2.6641 2.9219 2.9766 3.1953 Q3.2891 3.4688 3.8672 3.4688 Z" /></ns0:g></ns0:g></ns0:svg></ns0:svg></ns0:svg></ns0:svg></ns0:svg></g></svg>