<svg width="185" viewBox="0 0 185 115" style="fill-opacity:1; color-rendering:auto; color-interpolation:auto; text-rendering:auto; stroke:black; stroke-linecap:square; stroke-miterlimit:10; shape-rendering:auto; stroke-opacity:1; fill:black; stroke-dasharray:none; font-weight:normal; stroke-width:1; font-family:'Open Sans'; font-style:normal; stroke-linejoin:miter; font-size:12; stroke-dashoffset:0; image-rendering:auto;" height="115" class="cas-substance-image" xmlns:xlink="http://www.w3.org/1999/xlink" xmlns="http://www.w3.org/2000/svg"><svg class="cas-substance-single-component"><rect y="0" x="0" width="185" stroke="none" ry="7" rx="7" height="115" fill="white" class="cas-substance-group"/><svg y="0" x="0" width="185" viewBox="0 0 185 115" style="fill:black;" height="115" class="cas-substance-single-component-image"><svg><g><g transform="translate(96,55)" style="text-rendering:geometricPrecision; color-rendering:optimizeQuality; color-interpolation:linearRGB; stroke-linecap:butt; image-rendering:optimizeQuality;"><line y2="25.98" y1="25.98" x2="-66.732" x1="-36.732" style="fill:none;"/><line y2="0" y1="25.98" x2="-21.732" x1="-36.732" style="fill:none;"/><line y2="46.2411" y1="25.98" x2="-78.4287" x1="-66.732" style="fill:none;"/><line y2="7.9408" y1="20.3353" x2="55.523" x1="76.9926" style="fill:none;"/><line y2="10.9718" y1="23.3664" x2="53.7728" x1="75.2427" style="fill:none;"/><line y2="-25.98" y1="0" x2="23.268" x1="8.268" style="fill:none;"/><line y2="0" y1="0" x2="-21.732" x1="8.268" style="fill:none;"/><line y2="-3.5" y1="-3.5" x2="-19.7113" x1="6.2473" style="fill:none;"/><line y2="22.293" y1="0" x2="28.344" x1="8.268" style="fill:none;"/><line y2="-20.8711" y1="-25.98" x2="47.3061" x1="23.268" style="fill:none;"/><line y2="-51.963" y1="-25.98" x2="8.268" x1="23.268" style="fill:none;"/><line y2="-48.4631" y1="-25.9802" x2="6.2471" x1="19.2265" style="fill:none;"/><line y2="-25.98" y1="0" x2="-36.732" x1="-21.732" style="fill:none;"/><line y2="10.092" y1="22.293" x2="55.749" x1="28.344" style="fill:none;"/><line y2="10.092" y1="-13.5977" x2="55.749" x1="53.2597" style="fill:none;"/><line y2="-51.963" y1="-51.963" x2="-21.732" x1="8.268" style="fill:none;"/><line y2="-51.963" y1="-25.98" x2="-21.732" x1="-36.732" style="fill:none;"/><line y2="-48.4631" y1="-25.9802" x2="-19.7111" x1="-32.6906" style="fill:none;"/><path style="fill:none; stroke-miterlimit:5;" d="M-37.232 25.98 L-36.732 25.98 L-36.482 25.547"/><path style="fill:none; stroke-miterlimit:5;" d="M-66.232 25.98 L-66.732 25.98 L-66.982 26.413"/></g><g transform="translate(96,55)" style="stroke-linecap:butt; fill:rgb(230,0,0); text-rendering:geometricPrecision; color-rendering:optimizeQuality; image-rendering:optimizeQuality; font-family:'Open Sans'; stroke:rgb(230,0,0); color-interpolation:linearRGB; stroke-miterlimit:5;"><path style="stroke:none;" d="M-77.7945 51.8927 Q-77.7945 53.9552 -78.8336 55.1349 Q-79.8726 56.3146 -81.7164 56.3146 Q-83.607 56.3146 -84.6383 55.1505 Q-85.6695 53.9864 -85.6695 51.8771 Q-85.6695 49.7833 -84.6383 48.6349 Q-83.607 47.4864 -81.7164 47.4864 Q-79.857 47.4864 -78.8258 48.6583 Q-77.7945 49.8302 -77.7945 51.8927 ZM-84.6226 51.8927 Q-84.6226 53.6271 -83.8804 54.5333 Q-83.1383 55.4396 -81.7164 55.4396 Q-80.2945 55.4396 -79.5679 54.5411 Q-78.8414 53.6427 -78.8414 51.8927 Q-78.8414 50.1583 -79.5679 49.2677 Q-80.2945 48.3771 -81.7164 48.3771 Q-83.1383 48.3771 -83.8804 49.2755 Q-84.6226 50.1739 -84.6226 51.8927 Z"/><path style="stroke:none;" d="M-86.6695 56.1896 L-87.6695 56.1896 L-87.6695 52.1583 L-92.1851 52.1583 L-92.1851 56.1896 L-93.1851 56.1896 L-93.1851 47.6271 L-92.1851 47.6271 L-92.1851 51.2677 L-87.6695 51.2677 L-87.6695 47.6271 L-86.6695 47.6271 L-86.6695 56.1896 Z"/><path style="stroke:none;" d="M85.6695 25.0217 Q85.6695 27.0842 84.6304 28.2639 Q83.5914 29.4436 81.7476 29.4436 Q79.857 29.4436 78.8258 28.2795 Q77.7945 27.1154 77.7945 25.0061 Q77.7945 22.9123 78.8258 21.7639 Q79.857 20.6154 81.7476 20.6154 Q83.607 20.6154 84.6383 21.7873 Q85.6695 22.9592 85.6695 25.0217 ZM78.8414 25.0217 Q78.8414 26.7561 79.5836 27.6623 Q80.3258 28.5686 81.7476 28.5686 Q83.1695 28.5686 83.8961 27.6701 Q84.6226 26.7717 84.6226 25.0217 Q84.6226 23.2873 83.8961 22.3967 Q83.1695 21.5061 81.7476 21.5061 Q80.3258 21.5061 79.5836 22.4045 Q78.8414 23.3029 78.8414 25.0217 Z"/><path style="fill:none; stroke:black;" d="M7.768 -0 L8.268 0 L8.518 -0.433"/><path style="fill:none; stroke:black;" d="M23.018 -26.413 L23.268 -25.98 L23.7571 -25.8761"/><path style="fill:none; stroke:black;" d="M-21.232 0 L-21.732 0 L-21.982 0.433"/><path style="fill:none; stroke:black;" d="M28.0094 21.9215 L28.344 22.293 L28.8008 22.0896"/><path style="fill:rgb(0,5,255); stroke:none;" d="M55.9656 -15.5868 L54.8249 -15.5868 L50.1374 -22.7743 L50.0906 -22.7743 Q50.1843 -21.5086 50.1843 -20.4618 L50.1843 -15.5868 L49.2624 -15.5868 L49.2624 -24.1493 L50.3874 -24.1493 L55.0593 -16.993 L55.1062 -16.993 Q55.1062 -17.1493 55.0593 -18.0086 Q55.0124 -18.868 55.0281 -19.243 L55.0281 -24.1493 L55.9656 -24.1493 L55.9656 -15.5868 Z"/><path style="fill:rgb(0,5,255); stroke:none;" d="M63.4812 -15.5868 L62.4812 -15.5868 L62.4812 -19.618 L57.9656 -19.618 L57.9656 -15.5868 L56.9656 -15.5868 L56.9656 -24.1493 L57.9656 -24.1493 L57.9656 -20.5086 L62.4812 -20.5086 L62.4812 -24.1493 L63.4812 -24.1493 L63.4812 -15.5868 Z"/><path style="fill:none; stroke:black;" d="M8.518 -51.53 L8.268 -51.963 L7.768 -51.963"/><path style="fill:none; stroke:black;" d="M-36.482 -25.547 L-36.732 -25.98 L-36.482 -26.413"/><path style="fill:none; stroke:black;" d="M55.2922 10.2954 L55.749 10.092 L55.6968 9.5947"/><path style="fill:none; stroke:black;" d="M-21.232 -51.963 L-21.732 -51.963 L-21.982 -51.53"/></g></g></svg></svg></svg></svg>