<svg xmlns:ns0="http://www.w3.org/2000/svg" xmlns="http://www.w3.org/2000/svg"><g transform="translate(0, 0)"><ns0:svg width="227" viewBox="0 0 227 66" style="fill-opacity:1; color-rendering:auto; color-interpolation:auto; text-rendering:auto; stroke:black; stroke-linecap:square; stroke-miterlimit:10; shape-rendering:auto; stroke-opacity:1; fill:black; stroke-dasharray:none; font-weight:normal; stroke-width:1; font-family:'Open Sans'; font-style:normal; stroke-linejoin:miter; font-size:12; stroke-dashoffset:0; image-rendering:auto;" height="66" class="cas-substance-image"><ns0:svg class="cas-substance-single-component"><ns0:rect y="0" x="0" width="227" stroke="none" ry="7" rx="7" height="66" fill="white" class="cas-substance-group" /><ns0:svg y="0" x="0" width="227" viewBox="0 0 227 66" style="fill:black;" height="66" class="cas-substance-single-component-image"><ns0:svg><ns0:g><ns0:g transform="translate(114,33)" style="text-rendering:geometricPrecision; color-rendering:optimizeQuality; color-interpolation:linearRGB; stroke-linecap:butt; image-rendering:optimizeQuality;"><ns0:line y2="-3.327" y1="-3.327" x2="-20.217" x1="9.783" style="fill:none;" /><ns0:line y2="0.173" y1="0.173" x2="-20.217" x1="9.783" style="fill:none;" /><ns0:line y2="-6.827" y1="-6.827" x2="-20.217" x1="9.783" style="fill:none;" /><ns0:line y2="-3.327" y1="-3.327" x2="39.783" x1="9.783" style="fill:none;" /><ns0:line y2="-3.327" y1="-3.327" x2="-50.217" x1="-20.217" style="fill:none;" /><ns0:line y2="11.673" y1="29.307" x2="85.947" x1="110.217" style="fill:none;" /><ns0:line y2="-27.597" y1="-3.327" x2="57.417" x1="39.783" style="fill:none;" /><ns0:line y2="-23.9049" y1="-2.9045" x2="59.0607" x1="43.8023" style="fill:none;" /><ns0:line y2="14.9187" y1="-3.327" x2="53.0399" x1="39.783" style="fill:none;" /><ns0:line y2="-19.7991" y1="-27.597" x2="81.4164" x1="57.417" style="fill:none;" /><ns0:line y2="11.673" y1="19.236" x2="85.947" x1="62.6707" style="fill:none;" /><ns0:line y2="8.9687" y1="15.9073" x2="82.9436" x1="61.5891" style="fill:none;" /><ns0:line y2="11.673" y1="-11.9832" x2="85.947" x1="85.947" style="fill:none;" /><ns0:line y2="-29.307" y1="-3.327" x2="-65.217" x1="-50.217" style="fill:none;" /><ns0:line y2="22.653" y1="-3.327" x2="-65.217" x1="-50.217" style="fill:none;" /><ns0:line y2="19.153" y1="-3.3271" x2="-67.2377" x1="-54.2584" style="fill:none;" /><ns0:line y2="-29.307" y1="-29.307" x2="-95.217" x1="-65.217" style="fill:none;" /><ns0:line y2="-25.807" y1="-25.807" x2="-93.1963" x1="-67.2377" style="fill:none;" /><ns0:line y2="22.653" y1="22.653" x2="-89.8654" x1="-65.217" style="fill:none;" /><ns0:line y2="-3.327" y1="-29.307" x2="-110.217" x1="-95.217" style="fill:none;" /><ns0:line y2="-3.327" y1="16.5147" x2="-110.217" x1="-98.761" style="fill:none;" /><ns0:line y2="-3.3271" y1="14.7647" x2="-106.1755" x1="-95.73" style="fill:none;" /><ns0:path style="fill:none; stroke-miterlimit:5;" d="M40.0769 -3.7315 L39.783 -3.327 L39.283 -3.327" /><ns0:path style="fill:none; stroke-miterlimit:5;" d="M57.1231 -27.1925 L57.417 -27.597 L57.8925 -27.4425" /></ns0:g><ns0:g transform="translate(114,33)" style="stroke-linecap:butt; fill:rgb(0,5,255); text-rendering:geometricPrecision; color-rendering:optimizeQuality; image-rendering:optimizeQuality; font-family:'Open Sans'; stroke:rgb(0,5,255); color-interpolation:linearRGB; stroke-miterlimit:5;"><ns0:path style="stroke:none;" d="M60.7686 25.0992 L59.6279 25.0992 L54.9404 17.9117 L54.8936 17.9117 Q54.9873 19.1774 54.9873 20.2242 L54.9873 25.0992 L54.0654 25.0992 L54.0654 16.5367 L55.1904 16.5367 L59.8623 23.693 L59.9092 23.693 Q59.9092 23.5367 59.8623 22.6774 Q59.8154 21.818 59.8311 21.443 L59.8311 16.5367 L60.7686 16.5367 L60.7686 25.0992 Z" /><ns0:path style="fill:rgb(148,108,0); stroke:none;" d="M88.6423 -16.3895 Q88.6423 -15.2645 87.822 -14.6239 Q87.0017 -13.9832 85.5954 -13.9832 Q84.0642 -13.9832 83.2517 -14.3895 L83.2517 -15.3426 Q83.7829 -15.1239 84.4001 -14.9911 Q85.0173 -14.8582 85.6267 -14.8582 Q86.6267 -14.8582 87.1267 -15.2411 Q87.6267 -15.6239 87.6267 -16.2957 Q87.6267 -16.7332 87.447 -17.0223 Q87.2673 -17.3114 86.8533 -17.5536 Q86.4392 -17.7957 85.5798 -18.0926 Q84.3923 -18.5145 83.8767 -19.1004 Q83.3611 -19.6864 83.3611 -20.6395 Q83.3611 -21.6239 84.1033 -22.2098 Q84.8454 -22.7957 86.0798 -22.7957 Q87.3454 -22.7957 88.4236 -22.327 L88.1111 -21.4676 Q87.0486 -21.9051 86.0486 -21.9051 Q85.2517 -21.9051 84.8064 -21.5692 Q84.3611 -21.2332 84.3611 -20.6239 Q84.3611 -20.1864 84.5251 -19.8973 Q84.6892 -19.6082 85.0798 -19.3739 Q85.4704 -19.1395 86.2829 -18.8426 Q87.6267 -18.3739 88.1345 -17.8192 Q88.6423 -17.2645 88.6423 -16.3895 Z" /><ns0:path style="fill:none; stroke:black;" d="M85.4715 11.8275 L85.947 11.673 L86.3515 11.9669" /><ns0:path style="fill:none; stroke:black;" d="M-50.467 -2.894 L-50.217 -3.327 L-49.717 -3.327" /><ns0:path style="fill:none; stroke:black;" d="M-64.967 -28.874 L-65.217 -29.307 L-65.717 -29.307" /><ns0:path style="fill:none; stroke:black;" d="M-64.967 22.22 L-65.217 22.653 L-65.717 22.653" /><ns0:path style="fill:none; stroke:black;" d="M-94.717 -29.307 L-95.217 -29.307 L-95.467 -28.874" /><ns0:path style="stroke:none;" d="M-91.8654 26.8092 L-93.0061 26.8092 L-97.6936 19.6217 L-97.7404 19.6217 Q-97.6467 20.8874 -97.6467 21.9342 L-97.6467 26.8092 L-98.5686 26.8092 L-98.5686 18.2467 L-97.4436 18.2467 L-92.7717 25.403 L-92.7248 25.403 Q-92.7248 25.2467 -92.7717 24.3874 Q-92.8186 23.528 -92.8029 23.153 L-92.8029 18.2467 L-91.8654 18.2467 L-91.8654 26.8092 Z" /><ns0:path style="fill:none; stroke:black;" d="M-109.967 -3.76 L-110.217 -3.327 L-109.967 -2.894" /></ns0:g></ns0:g></ns0:svg></ns0:svg></ns0:svg></ns0:svg></g></svg>