<svg xmlns:ns0="http://www.w3.org/2000/svg" xmlns="http://www.w3.org/2000/svg"><g transform="translate(0, 0)"><ns0:svg width="367" viewBox="0 0 367 163" style="fill-opacity:1; color-rendering:auto; color-interpolation:auto; text-rendering:auto; stroke:black; stroke-linecap:square; stroke-miterlimit:10; shape-rendering:auto; stroke-opacity:1; fill:black; stroke-dasharray:none; font-weight:normal; stroke-width:1; font-family:'Open Sans'; font-style:normal; stroke-linejoin:miter; font-size:12; stroke-dashoffset:0; image-rendering:auto;" height="163" class="cas-substance-image"><ns0:svg class="cas-substance-single-component"><ns0:rect y="0" x="0" width="367" stroke="none" ry="7" rx="7" height="163" fill="white" class="cas-substance-group" /><ns0:svg y="0" x="0" width="367" viewBox="0 0 367 163" style="fill:black;" height="163" class="cas-substance-single-component-image"><ns0:svg><ns0:g><ns0:g transform="translate(184,81)" style="text-rendering:geometricPrecision; color-rendering:optimizeQuality; color-interpolation:linearRGB; stroke-linecap:butt; image-rendering:optimizeQuality;"><ns0:line y2="0" y1="0" x2="90" x1="60" style="fill:none;" /><ns0:line y2="-3.5" y1="-3.5" x2="90" x1="60" style="fill:none;" /><ns0:line y2="3.5" y1="3.5" x2="90" x1="60" style="fill:none;" /><ns0:line y2="0" y1="0" x2="30" x1="60" style="fill:none;" /><ns0:line y2="0" y1="0" x2="120" x1="90" style="fill:none;" /><ns0:line y2="0" y1="0" x2="-90" x1="-60" style="fill:none;" /><ns0:line y2="3.5" y1="3.5" x2="-90" x1="-60" style="fill:none;" /><ns0:line y2="-3.5" y1="-3.5" x2="-90" x1="-60" style="fill:none;" /><ns0:line y2="0" y1="0" x2="-30" x1="-60" style="fill:none;" /><ns0:line y2="0" y1="0" x2="-120" x1="-90" style="fill:none;" /><ns0:line y2="-51.963" y1="-51.963" x2="-30" x1="-53.582" style="fill:none;" /><ns0:line y2="-25.98" y1="-25.98" x2="-15" x1="15" style="fill:none;" /><ns0:line y2="-22.48" y1="-22.48" x2="-12.9793" x1="12.9793" style="fill:none;" /><ns0:line y2="0" y1="-25.98" x2="30" x1="15" style="fill:none;" /><ns0:line y2="-51.963" y1="-25.98" x2="30" x1="15" style="fill:none;" /><ns0:line y2="0" y1="-25.98" x2="-30" x1="-15" style="fill:none;" /><ns0:line y2="-51.963" y1="-25.98" x2="-30" x1="-15" style="fill:none;" /><ns0:line y2="25.98" y1="0" x2="15" x1="30" style="fill:none;" /><ns0:line y2="22.48" y1="-0.0001" x2="12.9793" x1="25.9585" style="fill:none;" /><ns0:line y2="-77.943" y1="-51.963" x2="15" x1="30" style="fill:none;" /><ns0:line y2="-74.443" y1="-51.963" x2="12.9793" x1="25.9585" style="fill:none;" /><ns0:line y2="25.98" y1="0" x2="-15" x1="-30" style="fill:none;" /><ns0:line y2="22.48" y1="-0.0001" x2="-12.9793" x1="-25.9585" style="fill:none;" /><ns0:line y2="-77.943" y1="-51.963" x2="-15" x1="-30" style="fill:none;" /><ns0:line y2="-74.443" y1="-51.963" x2="-12.9793" x1="-25.9585" style="fill:none;" /><ns0:line y2="25.98" y1="25.98" x2="-15" x1="15" style="fill:none;" /><ns0:line y2="51.963" y1="25.98" x2="30" x1="15" style="fill:none;" /><ns0:line y2="-77.943" y1="-77.943" x2="-15" x1="15" style="fill:none;" /><ns0:line y2="51.963" y1="25.98" x2="-30" x1="-15" style="fill:none;" /><ns0:line y2="77.943" y1="51.963" x2="15" x1="30" style="fill:none;" /><ns0:line y2="74.443" y1="51.963" x2="12.9793" x1="25.9585" style="fill:none;" /><ns0:line y2="77.943" y1="51.963" x2="-15" x1="-30" style="fill:none;" /><ns0:line y2="74.443" y1="51.963" x2="-12.9793" x1="-25.9585" style="fill:none;" /><ns0:line y2="77.943" y1="77.943" x2="-15" x1="15" style="fill:none;" /><ns0:line y2="-25.98" y1="0" x2="135" x1="120" style="fill:none;" /><ns0:line y2="-22.48" y1="0.0001" x2="137.0207" x1="124.0415" style="fill:none;" /><ns0:line y2="25.98" y1="0" x2="135" x1="120" style="fill:none;" /><ns0:line y2="-25.98" y1="-25.98" x2="165" x1="135" style="fill:none;" /><ns0:line y2="25.98" y1="25.98" x2="165" x1="135" style="fill:none;" /><ns0:line y2="22.48" y1="22.48" x2="162.9793" x1="137.0207" style="fill:none;" /><ns0:line y2="0" y1="-25.98" x2="180" x1="165" style="fill:none;" /><ns0:line y2="0.0001" y1="-22.48" x2="175.9585" x1="162.9793" style="fill:none;" /><ns0:line y2="0" y1="25.98" x2="180" x1="165" style="fill:none;" /><ns0:line y2="25.98" y1="0" x2="-135" x1="-120" style="fill:none;" /><ns0:line y2="22.48" y1="-0.0001" x2="-137.0207" x1="-124.0415" style="fill:none;" /><ns0:line y2="-25.98" y1="0" x2="-135" x1="-120" style="fill:none;" /><ns0:line y2="25.98" y1="25.98" x2="-165" x1="-135" style="fill:none;" /><ns0:line y2="-25.98" y1="-25.98" x2="-165" x1="-135" style="fill:none;" /><ns0:line y2="-22.48" y1="-22.48" x2="-162.9793" x1="-137.0207" style="fill:none;" /><ns0:line y2="0" y1="25.98" x2="-180" x1="-165" style="fill:none;" /><ns0:line y2="-0.0001" y1="22.48" x2="-175.9585" x1="-162.9793" style="fill:none;" /><ns0:line y2="0" y1="-25.98" x2="-180" x1="-165" style="fill:none;" /></ns0:g><ns0:g transform="translate(184,81)" style="fill:rgb(0,138,0); text-rendering:geometricPrecision; color-rendering:optimizeQuality; image-rendering:optimizeQuality; font-family:'Open Sans'; stroke:rgb(0,138,0); color-interpolation:linearRGB;"><ns0:path style="stroke:none;" d="M-60.3086 -55.3224 Q-61.7148 -55.3224 -62.5352 -54.3849 Q-63.3555 -53.4474 -63.3555 -51.8068 Q-63.3555 -50.1349 -62.5664 -49.213 Q-61.7773 -48.2911 -60.3242 -48.2911 Q-59.418 -48.2911 -58.2773 -48.6193 L-58.2773 -47.7443 Q-59.168 -47.4005 -60.4648 -47.4005 Q-62.3555 -47.4005 -63.3867 -48.5568 Q-64.418 -49.713 -64.418 -51.8224 Q-64.418 -53.1505 -63.9258 -54.1427 Q-63.4336 -55.1349 -62.4961 -55.6739 Q-61.5586 -56.213 -60.293 -56.213 Q-58.9492 -56.213 -57.9336 -55.7286 L-58.3555 -54.8693 Q-59.3398 -55.3224 -60.3086 -55.3224 ZM-55.582 -47.5255 L-56.5508 -47.5255 L-56.5508 -56.6505 L-55.582 -56.6505 L-55.582 -47.5255 Z" /></ns0:g><ns0:g transform="translate(184,81)" style="stroke-linecap:butt; text-rendering:geometricPrecision; color-rendering:optimizeQuality; image-rendering:optimizeQuality; font-family:'Open Sans'; color-interpolation:linearRGB; stroke-miterlimit:5;"><ns0:path style="fill:none;" d="M14.5 -25.98 L15 -25.98 L15.25 -25.547" /><ns0:path style="fill:none;" d="M-14.5 -25.98 L-15 -25.98 L-15.25 -25.547" /><ns0:path style="fill:none;" d="M29.75 0.433 L30 0 L30.5 0" /><ns0:path style="fill:none;" d="M29.75 -51.53 L30 -51.963 L29.75 -52.396" /><ns0:path style="fill:none;" d="M-29.75 0.433 L-30 0 L-30.5 -0" /><ns0:path style="fill:none;" d="M-29.75 -52.396 L-30 -51.963 L-30.5 -51.963" /><ns0:path style="fill:none;" d="M15.25 25.547 L15 25.98 L14.5 25.98" /><ns0:path style="fill:none;" d="M15.25 -77.51 L15 -77.943 L14.5 -77.943" /><ns0:path style="fill:none;" d="M-15.25 25.547 L-15 25.98 L-14.5 25.98" /><ns0:path style="fill:none;" d="M-15.25 -77.51 L-15 -77.943 L-14.5 -77.943" /><ns0:path style="fill:none;" d="M29.75 51.53 L30 51.963 L29.75 52.396" /><ns0:path style="fill:none;" d="M-29.75 51.53 L-30 51.963 L-29.75 52.396" /><ns0:path style="fill:none;" d="M15.25 77.51 L15 77.943 L14.5 77.943" /><ns0:path style="fill:none;" d="M-15.25 77.51 L-15 77.943 L-14.5 77.943" /><ns0:path style="fill:none;" d="M120.25 -0.433 L120 0 L119.5 -0" /><ns0:path style="fill:none;" d="M134.75 -25.547 L135 -25.98 L135.5 -25.98" /><ns0:path style="fill:none;" d="M134.75 25.547 L135 25.98 L135.5 25.98" /><ns0:path style="fill:none;" d="M164.5 -25.98 L165 -25.98 L165.25 -25.547" /><ns0:path style="fill:none;" d="M164.5 25.98 L165 25.98 L165.25 25.547" /><ns0:path style="fill:none;" d="M179.75 -0.433 L180 0 L179.75 0.433" /><ns0:path style="fill:none;" d="M-120.25 0.433 L-120 0 L-119.5 0" /><ns0:path style="fill:none;" d="M-134.75 25.547 L-135 25.98 L-135.5 25.98" /><ns0:path style="fill:none;" d="M-134.75 -25.547 L-135 -25.98 L-135.5 -25.98" /><ns0:path style="fill:none;" d="M-164.5 25.98 L-165 25.98 L-165.25 25.547" /><ns0:path style="fill:none;" d="M-164.5 -25.98 L-165 -25.98 L-165.25 -25.547" /><ns0:path style="fill:none;" d="M-179.75 0.433 L-180 0 L-179.75 -0.433" /></ns0:g></ns0:g></ns0:svg></ns0:svg></ns0:svg></ns0:svg></g></svg>