<svg xmlns:ns0="http://www.w3.org/2000/svg" xmlns="http://www.w3.org/2000/svg"><g transform="translate(0, 0)"><ns0:svg width="136" viewBox="0 0 136 85" style="fill-opacity:1; color-rendering:auto; color-interpolation:auto; text-rendering:auto; stroke:black; stroke-linecap:square; stroke-miterlimit:10; shape-rendering:auto; stroke-opacity:1; fill:black; stroke-dasharray:none; font-weight:normal; stroke-width:1; font-family:'Open Sans'; font-style:normal; stroke-linejoin:miter; font-size:12; stroke-dashoffset:0; image-rendering:auto;" height="85" class="cas-substance-image"><ns0:svg class="cas-substance-single-component"><ns0:rect y="0" x="0" width="136" stroke="none" ry="7" rx="7" height="85" fill="white" class="cas-substance-group" /><ns0:svg y="0" x="0" width="136" viewBox="0 0 136 85" style="fill:black;" height="85" class="cas-substance-single-component-image"><ns0:svg><ns0:g><ns0:g transform="translate(66,42)" style="text-rendering:geometricPrecision; color-rendering:optimizeQuality; color-interpolation:linearRGB; stroke-linecap:butt; image-rendering:optimizeQuality;"><ns0:line y2="-8.651" y1="4.1438" x2="60.3763" x1="50.5585" style="fill:none;" /><ns0:line y2="-10.7817" y1="2.0131" x2="57.5996" x1="47.7817" style="fill:none;" /><ns0:line y2="5.8177" y1="8.3303" x2="20.1934" x1="39.2666" style="fill:none;" /><ns0:line y2="31.098" y1="11.0033" x2="-0.141" x1="11.4597" style="fill:none;" /><ns0:line y2="-23.862" y1="-1.2231" x2="7.095" x1="13.1608" style="fill:none;" /><ns0:line y2="38.862" y1="31.098" x2="-29.118" x1="-0.141" style="fill:none;" /><ns0:line y2="-38.862" y1="-23.862" x2="-18.888" x1="7.095" style="fill:none;" /><ns0:line y2="23.862" y1="38.862" x2="-55.101" x1="-29.118" style="fill:none;" /><ns0:line y2="-31.098" y1="-38.862" x2="-47.865" x1="-18.888" style="fill:none;" /><ns0:line y2="-5.115" y1="23.862" x2="-62.865" x1="-55.101" style="fill:none;" /><ns0:line y2="-5.115" y1="-31.098" x2="-62.865" x1="-47.865" style="fill:none;" /></ns0:g><ns0:g transform="translate(66,42)" style="fill:rgb(0,5,255); text-rendering:geometricPrecision; color-rendering:optimizeQuality; image-rendering:optimizeQuality; font-family:'Open Sans'; stroke:rgb(0,5,255); color-interpolation:linearRGB;"><ns0:path style="stroke:none;" d="M47.9526 13.1892 L46.8119 13.1892 L42.1244 6.0017 L42.0776 6.0017 Q42.1713 7.2674 42.1713 8.3142 L42.1713 13.1892 L41.2494 13.1892 L41.2494 4.6267 L42.3744 4.6267 L47.0463 11.783 L47.0932 11.783 Q47.0932 11.6267 47.0463 10.7674 Q46.9994 9.908 47.0151 9.533 L47.0151 4.6267 L47.9526 4.6267 L47.9526 13.1892 Z" /><ns0:path style="fill:rgb(230,0,0); stroke:none;" d="M66.8025 -14.8393 Q66.8025 -12.7768 65.7634 -11.5971 Q64.7244 -10.4174 62.8806 -10.4174 Q60.99 -10.4174 59.9587 -11.5815 Q58.9275 -12.7456 58.9275 -14.8549 Q58.9275 -16.9487 59.9587 -18.0971 Q60.99 -19.2456 62.8806 -19.2456 Q64.74 -19.2456 65.7712 -18.0737 Q66.8025 -16.9018 66.8025 -14.8393 ZM59.9744 -14.8393 Q59.9744 -13.1049 60.7166 -12.1987 Q61.4587 -11.2924 62.8806 -11.2924 Q64.3025 -11.2924 65.0291 -12.1909 Q65.7556 -13.0893 65.7556 -14.8393 Q65.7556 -16.5737 65.0291 -17.4643 Q64.3025 -18.3549 62.8806 -18.3549 Q61.4587 -18.3549 60.7166 -17.4565 Q59.9744 -16.5581 59.9744 -14.8393 Z" /><ns0:path style="stroke:none;" d="M18.2106 9.2712 L17.0699 9.2712 L12.3824 2.0837 L12.3356 2.0837 Q12.4293 3.3494 12.4293 4.3962 L12.4293 9.2712 L11.5074 9.2712 L11.5074 0.7087 L12.6324 0.7087 L17.3043 7.865 L17.3512 7.865 Q17.3512 7.7087 17.3043 6.8494 Q17.2574 5.99 17.2731 5.615 L17.2731 0.7087 L18.2106 0.7087 L18.2106 9.2712 Z" /></ns0:g><ns0:g transform="translate(66,42)" style="stroke-linecap:butt; text-rendering:geometricPrecision; color-rendering:optimizeQuality; image-rendering:optimizeQuality; font-family:'Open Sans'; color-interpolation:linearRGB; stroke-miterlimit:5;"><ns0:path style="fill:none;" d="M0.109 30.665 L-0.141 31.098 L-0.624 31.2274" /><ns0:path style="fill:none;" d="M7.2244 -23.379 L7.095 -23.862 L6.662 -24.112" /><ns0:path style="fill:none;" d="M-28.635 38.7326 L-29.118 38.862 L-29.551 38.612" /><ns0:path style="fill:none;" d="M-18.455 -38.612 L-18.888 -38.862 L-19.371 -38.7326" /><ns0:path style="fill:none;" d="M-54.668 24.112 L-55.101 23.862 L-55.2304 23.379" /><ns0:path style="fill:none;" d="M-47.382 -31.2274 L-47.865 -31.098 L-48.115 -30.665" /><ns0:path style="fill:none;" d="M-62.7356 -4.632 L-62.865 -5.115 L-62.615 -5.548" /></ns0:g></ns0:g></ns0:svg></ns0:svg></ns0:svg></ns0:svg></g></svg>