<svg width="171" viewBox="0 0 171 115" style="fill-opacity:1; color-rendering:auto; color-interpolation:auto; text-rendering:auto; stroke:black; stroke-linecap:square; stroke-miterlimit:10; shape-rendering:auto; stroke-opacity:1; fill:black; stroke-dasharray:none; font-weight:normal; stroke-width:1; font-family:'Open Sans'; font-style:normal; stroke-linejoin:miter; font-size:12; stroke-dashoffset:0; image-rendering:auto;" height="115" class="cas-substance-image" xmlns:xlink="http://www.w3.org/1999/xlink" xmlns="http://www.w3.org/2000/svg"><svg class="cas-substance-single-component"><rect y="0" x="0" width="171" stroke="none" ry="7" rx="7" height="115" fill="white" class="cas-substance-group"/><svg y="0" x="0" width="171" viewBox="0 0 171 115" style="fill:black;" height="115" class="cas-substance-single-component-image"><svg><g><g transform="translate(87,56)" style="text-rendering:geometricPrecision; color-rendering:optimizeQuality; color-interpolation:linearRGB; stroke-linecap:butt; image-rendering:optimizeQuality;"><line y2="-26.4" y1="-0.42" x2="35.217" x1="20.217" style="fill:none;"/><line y2="-0.42" y1="-0.42" x2="-9.783" x1="20.217" style="fill:none;"/><line y2="-26.4" y1="-26.4" x2="60.5737" x1="35.217" style="fill:none;"/><line y2="-52.383" y1="-31.5769" x2="80.217" x1="68.2056" style="fill:none;"/><line y2="22.1001" y1="45.4635" x2="-26.1456" x1="-18.5527" style="fill:none;"/><line y2="23.1815" y1="46.5453" x2="-29.4743" x1="-21.8813" style="fill:none;"/><line y2="-13.2568" y1="-27.9407" x2="-55.947" x1="-76.1567" style="fill:none;"/><line y2="-16.0884" y1="-30.7723" x2="-53.8898" x1="-74.0994" style="fill:none;"/><line y2="-18.9157" y1="-0.42" x2="-23.2216" x1="-9.783" style="fill:none;"/><line y2="23.85" y1="-0.42" x2="-27.417" x1="-9.783" style="fill:none;"/><line y2="-15.42" y1="-22.983" x2="-55.947" x1="-32.6707" style="fill:none;"/><line y2="16.287" y1="23.85" x2="-50.6933" x1="-27.417" style="fill:none;"/><line y2="8.1737" y1="-15.42" x2="-55.947" x1="-55.947" style="fill:none;"/><path style="fill:none; stroke-miterlimit:5;" d="M20.467 -0.853 L20.217 -0.42 L19.717 -0.42"/><path style="fill:none; stroke-miterlimit:5;" d="M34.967 -25.967 L35.217 -26.4 L35.717 -26.4"/></g><g transform="translate(87,56)" style="stroke-linecap:butt; fill:rgb(148,108,0); text-rendering:geometricPrecision; color-rendering:optimizeQuality; image-rendering:optimizeQuality; font-family:'Open Sans'; stroke:rgb(148,108,0); color-interpolation:linearRGB; stroke-miterlimit:5;"><path style="stroke:none;" d="M67.9123 -24.4625 Q67.9123 -23.3375 67.092 -22.6969 Q66.2717 -22.0562 64.8654 -22.0562 Q63.3342 -22.0562 62.5217 -22.4625 L62.5217 -23.4156 Q63.0529 -23.1969 63.6701 -23.0641 Q64.2873 -22.9312 64.8967 -22.9312 Q65.8967 -22.9312 66.3967 -23.3141 Q66.8967 -23.6969 66.8967 -24.3687 Q66.8967 -24.8062 66.717 -25.0953 Q66.5373 -25.3844 66.1232 -25.6266 Q65.7092 -25.8687 64.8498 -26.1656 Q63.6623 -26.5875 63.1467 -27.1734 Q62.6311 -27.7594 62.6311 -28.7125 Q62.6311 -29.6969 63.3732 -30.2828 Q64.1154 -30.8687 65.3498 -30.8687 Q66.6154 -30.8687 67.6936 -30.4 L67.3811 -29.5406 Q66.3186 -29.9781 65.3186 -29.9781 Q64.5217 -29.9781 64.0764 -29.6422 Q63.6311 -29.3062 63.6311 -28.6969 Q63.6311 -28.2594 63.7951 -27.9703 Q63.9592 -27.6812 64.3498 -27.4469 Q64.7404 -27.2125 65.5529 -26.9156 Q66.8967 -26.4469 67.4045 -25.8922 Q67.9123 -25.3375 67.9123 -24.4625 Z"/><path style="fill:rgb(230,0,0); stroke:none;" d="M-14.2065 52.3127 Q-14.2065 54.3752 -15.2456 55.5549 Q-16.2846 56.7346 -18.1284 56.7346 Q-20.019 56.7346 -21.0502 55.5705 Q-22.0815 54.4064 -22.0815 52.2971 Q-22.0815 50.2033 -21.0502 49.0549 Q-20.019 47.9064 -18.1284 47.9064 Q-16.269 47.9064 -15.2377 49.0783 Q-14.2065 50.2502 -14.2065 52.3127 ZM-21.0346 52.3127 Q-21.0346 54.0471 -20.2924 54.9533 Q-19.5502 55.8596 -18.1284 55.8596 Q-16.7065 55.8596 -15.9799 54.9611 Q-15.2534 54.0627 -15.2534 52.3127 Q-15.2534 50.5783 -15.9799 49.6877 Q-16.7065 48.7971 -18.1284 48.7971 Q-19.5502 48.7971 -20.2924 49.6955 Q-21.0346 50.5939 -21.0346 52.3127 Z"/><path style="fill:rgb(230,0,0); stroke:none;" d="M-76.2795 -33.1243 Q-76.2795 -31.0618 -77.3186 -29.8821 Q-78.3576 -28.7024 -80.2014 -28.7024 Q-82.092 -28.7024 -83.1232 -29.8665 Q-84.1545 -31.0306 -84.1545 -33.1399 Q-84.1545 -35.2337 -83.1232 -36.3821 Q-82.092 -37.5306 -80.2014 -37.5306 Q-78.342 -37.5306 -77.3107 -36.3587 Q-76.2795 -35.1868 -76.2795 -33.1243 ZM-83.1076 -33.1243 Q-83.1076 -31.3899 -82.3654 -30.4837 Q-81.6232 -29.5774 -80.2014 -29.5774 Q-78.7795 -29.5774 -78.0529 -30.4759 Q-77.3264 -31.3743 -77.3264 -33.1243 Q-77.3264 -34.8587 -78.0529 -35.7493 Q-78.7795 -36.6399 -80.2014 -36.6399 Q-81.6232 -36.6399 -82.3654 -35.7415 Q-83.1076 -34.8431 -83.1076 -33.1243 Z"/><path style="fill:rgb(0,5,255); stroke:none;" d="M-24.0654 -20.5338 L-25.2061 -20.5338 L-29.8936 -27.7213 L-29.9404 -27.7213 Q-29.8467 -26.4556 -29.8467 -25.4088 L-29.8467 -20.5338 L-30.7686 -20.5338 L-30.7686 -29.0963 L-29.6436 -29.0963 L-24.9717 -21.94 L-24.9248 -21.94 Q-24.9248 -22.0963 -24.9717 -22.9556 Q-25.0186 -23.815 -25.0029 -24.19 L-25.0029 -29.0963 L-24.0654 -29.0963 L-24.0654 -20.5338 Z"/><path style="fill:rgb(0,5,255); stroke:none;" d="M-24.1592 -30.0963 L-25.1592 -30.0963 L-25.1592 -34.1275 L-29.6748 -34.1275 L-29.6748 -30.0963 L-30.6748 -30.0963 L-30.6748 -38.6588 L-29.6748 -38.6588 L-29.6748 -35.0181 L-25.1592 -35.0181 L-25.1592 -38.6588 L-24.1592 -38.6588 L-24.1592 -30.0963 Z"/><path style="fill:none; stroke:black;" d="M-27.1231 23.4455 L-27.417 23.85 L-27.8925 23.6955"/><path style="fill:none; stroke:black;" d="M-55.4715 -15.5745 L-55.947 -15.42 L-55.947 -14.92"/><path style="fill:rgb(0,5,255); stroke:none;" d="M-52.5954 18.7362 L-53.7361 18.7362 L-58.4236 11.5487 L-58.4704 11.5487 Q-58.3767 12.8144 -58.3767 13.8612 L-58.3767 18.7362 L-59.2986 18.7362 L-59.2986 10.1737 L-58.1736 10.1737 L-53.5017 17.33 L-53.4548 17.33 Q-53.4548 17.1737 -53.5017 16.3144 Q-53.5486 15.455 -53.5329 15.08 L-53.5329 10.1737 L-52.5954 10.1737 L-52.5954 18.7362 Z"/><path style="fill:rgb(0,5,255); stroke:none;" d="M-60.2986 18.7362 L-61.2986 18.7362 L-61.2986 14.705 L-65.8142 14.705 L-65.8142 18.7362 L-66.8142 18.7362 L-66.8142 10.1737 L-65.8142 10.1737 L-65.8142 13.8144 L-61.2986 13.8144 L-61.2986 10.1737 L-60.2986 10.1737 L-60.2986 18.7362 Z"/></g></g></svg></svg></svg></svg>