<svg width="192" viewBox="0 0 192 90" style="fill-opacity:1; color-rendering:auto; color-interpolation:auto; text-rendering:auto; stroke:black; stroke-linecap:square; stroke-miterlimit:10; shape-rendering:auto; stroke-opacity:1; fill:black; stroke-dasharray:none; font-weight:normal; stroke-width:1; font-family:'Open Sans'; font-style:normal; stroke-linejoin:miter; font-size:12; stroke-dashoffset:0; image-rendering:auto;" height="90" class="cas-substance-image" xmlns:xlink="http://www.w3.org/1999/xlink" xmlns="http://www.w3.org/2000/svg"><svg class="cas-substance-single-component"><rect y="0" x="0" width="192" stroke="none" ry="7" rx="7" height="90" fill="white" class="cas-substance-group"/><svg y="0" x="0" width="192" viewBox="0 0 192 90" style="fill:black;" height="90" class="cas-substance-single-component-image"><svg><g><g transform="translate(94,45)" style="text-rendering:geometricPrecision; color-rendering:optimizeQuality; color-interpolation:linearRGB; stroke-linecap:butt; image-rendering:optimizeQuality;"><line y2="-7.5" y1="4.5649" x2="-12.99" x1="7.9064" style="fill:none;"/><line y2="-7.5" y1="4.5649" x2="38.97" x1="18.0736" style="fill:none;"/><line y2="4.274" y1="-7.5" x2="-33.3825" x1="-12.99" style="fill:none;"/><line y2="-31.1484" y1="-6.4896" x2="-11.24" x1="-11.24" style="fill:none;"/><line y2="-31.1484" y1="-6.4896" x2="-14.74" x1="-14.74" style="fill:none;"/><line y2="7.5" y1="-7.5" x2="64.953" x1="38.97" style="fill:none;"/><path style="stroke:none;" d="M39.47 -7.5 L38.47 -7.5 L35.97 -37.5 L41.97 -37.5 Z"/><line y2="-7.5" y1="4.2588" x2="-64.953" x1="-44.5843" style="fill:none;"/><line y2="31.0234" y1="7.5" x2="64.953" x1="64.953" style="fill:none;"/><line y2="-2.7956" y1="9.5207" x2="86.285" x1="64.953" style="fill:none;"/><line y2="-5.8267" y1="6.4897" x2="84.5349" x1="63.2029" style="fill:none;"/><line y2="18.48" y1="-7.5" x2="-79.953" x1="-64.953" style="fill:none;"/><line y2="-22.5" y1="-7.5" x2="-90.933" x1="-64.953" style="fill:none;"/><line y2="-33.48" y1="-7.5" x2="-49.953" x1="-64.953" style="fill:none;"/></g><g transform="translate(94,45)" style="fill:rgb(0,5,255); text-rendering:geometricPrecision; color-rendering:optimizeQuality; image-rendering:optimizeQuality; font-family:'Open Sans'; stroke:rgb(0,5,255); color-interpolation:linearRGB;"><path style="stroke:none;" d="M16.3416 11.6562 L15.2009 11.6562 L10.5134 4.4688 L10.4666 4.4688 Q10.5603 5.7344 10.5603 6.7812 L10.5603 11.6562 L9.6384 11.6562 L9.6384 3.0938 L10.7634 3.0938 L15.4353 10.25 L15.4822 10.25 Q15.4822 10.0938 15.4353 9.2344 Q15.3884 8.375 15.4041 8 L15.4041 3.0938 L16.3416 3.0938 L16.3416 11.6562 Z"/><path style="stroke:none;" d="M16.2478 21.2188 L15.2478 21.2188 L15.2478 17.1875 L10.7322 17.1875 L10.7322 21.2188 L9.7322 21.2188 L9.7322 12.6562 L10.7322 12.6562 L10.7322 16.2969 L15.2478 16.2969 L15.2478 12.6562 L16.2478 12.6562 L16.2478 21.2188 Z"/></g><g transform="translate(94,45)" style="stroke-linecap:butt; text-rendering:geometricPrecision; color-rendering:optimizeQuality; image-rendering:optimizeQuality; font-family:'Open Sans'; color-interpolation:linearRGB; stroke-miterlimit:5;"><path style="fill:none;" d="M-12.557 -7.25 L-12.99 -7.5 L-13.423 -7.25"/></g><g transform="translate(94,45)" style="stroke-linecap:butt; font-size:8.4px; fill:gray; text-rendering:geometricPrecision; image-rendering:optimizeQuality; color-rendering:optimizeQuality; font-family:'Open Sans'; font-style:italic; stroke:gray; color-interpolation:linearRGB; stroke-miterlimit:5;"><path style="stroke:none;" d="M26.2012 -11.2968 Q26.2012 -12.6249 26.6699 -13.7499 Q27.1387 -14.8749 28.1699 -15.953 L28.7793 -15.953 Q27.8105 -14.8905 27.3262 -13.7186 Q26.8418 -12.5468 26.8418 -11.3124 Q26.8418 -9.9843 27.2793 -8.9686 L26.7637 -8.9686 Q26.2012 -9.9999 26.2012 -11.2968 ZM31.8237 -11.8905 Q31.8237 -11.0624 31.2768 -10.6093 Q30.73 -10.1561 29.73 -10.1561 Q29.3237 -10.1561 29.0112 -10.2108 Q28.6987 -10.2655 28.4175 -10.4061 L28.4175 -11.0624 Q29.0425 -10.7343 29.7456 -10.7343 Q30.3706 -10.7343 30.7456 -11.0311 Q31.1206 -11.328 31.1206 -11.8436 Q31.1206 -12.1561 30.9175 -12.3827 Q30.7143 -12.6093 30.1518 -12.9374 Q29.5581 -13.2655 29.3315 -13.5936 Q29.105 -13.9218 29.105 -14.3749 Q29.105 -15.1093 29.6206 -15.5702 Q30.1362 -16.0311 30.98 -16.0311 Q31.355 -16.0311 31.6909 -15.953 Q32.0268 -15.8749 32.4018 -15.703 L32.1362 -15.1093 Q31.8862 -15.2655 31.5659 -15.3515 Q31.2456 -15.4374 30.98 -15.4374 Q30.4487 -15.4374 30.1284 -15.164 Q29.8081 -14.8905 29.8081 -14.4218 Q29.8081 -14.2186 29.8784 -14.0702 Q29.9487 -13.9218 30.0893 -13.789 Q30.23 -13.6561 30.6518 -13.4061 Q31.2143 -13.0624 31.4175 -12.8671 Q31.6206 -12.6718 31.7222 -12.4374 Q31.8237 -12.203 31.8237 -11.8905 ZM34.4182 -13.6093 Q34.4182 -12.2811 33.9416 -11.1483 Q33.4651 -10.0155 32.4495 -8.9686 L31.8401 -8.9686 Q33.7776 -11.1249 33.7776 -13.6093 Q33.7776 -14.9374 33.3401 -15.953 L33.8557 -15.953 Q34.4182 -14.8905 34.4182 -13.6093 Z"/></g><g transform="translate(94,45)" style="stroke-linecap:butt; fill:rgb(230,0,0); text-rendering:geometricPrecision; color-rendering:optimizeQuality; image-rendering:optimizeQuality; font-family:'Open Sans'; stroke:rgb(230,0,0); color-interpolation:linearRGB; stroke-miterlimit:5;"><path style="stroke:none;" d="M-35.0325 7.4297 Q-35.0325 9.4922 -36.0716 10.6719 Q-37.1106 11.8516 -38.9544 11.8516 Q-40.845 11.8516 -41.8763 10.6875 Q-42.9075 9.5234 -42.9075 7.4141 Q-42.9075 5.3203 -41.8763 4.1719 Q-40.845 3.0234 -38.9544 3.0234 Q-37.095 3.0234 -36.0638 4.1953 Q-35.0325 5.3672 -35.0325 7.4297 ZM-41.8606 7.4297 Q-41.8606 9.1641 -41.1184 10.0703 Q-40.3763 10.9766 -38.9544 10.9766 Q-37.5325 10.9766 -36.8059 10.0781 Q-36.0794 9.1797 -36.0794 7.4297 Q-36.0794 5.6953 -36.8059 4.8047 Q-37.5325 3.9141 -38.9544 3.9141 Q-40.3763 3.9141 -41.1184 4.8125 Q-41.8606 5.7109 -41.8606 7.4297 Z"/><path style="stroke:none;" d="M-9.0525 -37.5703 Q-9.0525 -35.5078 -10.0916 -34.3281 Q-11.1306 -33.1484 -12.9744 -33.1484 Q-14.865 -33.1484 -15.8962 -34.3125 Q-16.9275 -35.4766 -16.9275 -37.5859 Q-16.9275 -39.6797 -15.8962 -40.8281 Q-14.865 -41.9766 -12.9744 -41.9766 Q-11.115 -41.9766 -10.0837 -40.8047 Q-9.0525 -39.6328 -9.0525 -37.5703 ZM-15.8806 -37.5703 Q-15.8806 -35.8359 -15.1384 -34.9297 Q-14.3962 -34.0234 -12.9744 -34.0234 Q-11.5525 -34.0234 -10.8259 -34.9219 Q-10.0994 -35.8203 -10.0994 -37.5703 Q-10.0994 -39.3047 -10.8259 -40.1953 Q-11.5525 -41.0859 -12.9744 -41.0859 Q-14.3962 -41.0859 -15.1384 -40.1875 Q-15.8806 -39.2891 -15.8806 -37.5703 Z"/><path style="fill:none; stroke:black;" d="M64.52 7.25 L64.953 7.5 L64.953 8"/><path style="stroke:none;" d="M68.8905 37.4297 Q68.8905 39.4922 67.8514 40.6719 Q66.8124 41.8516 64.9686 41.8516 Q63.078 41.8516 62.0468 40.6875 Q61.0155 39.5234 61.0155 37.4141 Q61.0155 35.3203 62.0468 34.1719 Q63.078 33.0234 64.9686 33.0234 Q66.828 33.0234 67.8593 34.1953 Q68.8905 35.3672 68.8905 37.4297 ZM62.0624 37.4297 Q62.0624 39.1641 62.8046 40.0703 Q63.5468 40.9766 64.9686 40.9766 Q66.3905 40.9766 67.1171 40.0781 Q67.8436 39.1797 67.8436 37.4297 Q67.8436 35.6953 67.1171 34.8047 Q66.3905 33.9141 64.9686 33.9141 Q63.5468 33.9141 62.8046 34.8125 Q62.0624 35.7109 62.0624 37.4297 Z"/><path style="stroke:none;" d="M76.4061 41.7266 L75.4061 41.7266 L75.4061 37.6953 L70.8905 37.6953 L70.8905 41.7266 L69.8905 41.7266 L69.8905 33.1641 L70.8905 33.1641 L70.8905 36.8047 L75.4061 36.8047 L75.4061 33.1641 L76.4061 33.1641 L76.4061 41.7266 Z"/><path style="stroke:none;" d="M94.8705 -7.5703 Q94.8705 -5.5078 93.8314 -4.3281 Q92.7924 -3.1484 90.9486 -3.1484 Q89.058 -3.1484 88.0267 -4.3125 Q86.9955 -5.4766 86.9955 -7.5859 Q86.9955 -9.6797 88.0267 -10.8281 Q89.058 -11.9766 90.9486 -11.9766 Q92.808 -11.9766 93.8392 -10.8047 Q94.8705 -9.6328 94.8705 -7.5703 ZM88.0424 -7.5703 Q88.0424 -5.8359 88.7846 -4.9297 Q89.5267 -4.0234 90.9486 -4.0234 Q92.3705 -4.0234 93.0971 -4.9219 Q93.8236 -5.8203 93.8236 -7.5703 Q93.8236 -9.3047 93.0971 -10.1953 Q92.3705 -11.0859 90.9486 -11.0859 Q89.5267 -11.0859 88.7846 -10.1875 Q88.0424 -9.2891 88.0424 -7.5703 Z"/></g></g></svg></svg></svg></svg>