<svg xmlns:ns0="http://www.w3.org/2000/svg" xmlns="http://www.w3.org/2000/svg"><g transform="translate(0, 0)"><ns0:svg width="329" viewBox="0 0 329 223" style="fill-opacity:1; color-rendering:auto; color-interpolation:auto; text-rendering:auto; stroke:black; stroke-linecap:square; stroke-miterlimit:10; shape-rendering:auto; stroke-opacity:1; fill:black; stroke-dasharray:none; font-weight:normal; stroke-width:1; font-family:'Open Sans'; font-style:normal; stroke-linejoin:miter; font-size:12; stroke-dashoffset:0; image-rendering:auto;" height="223" class="cas-substance-image"><ns0:svg class="cas-substance-single-component"><ns0:rect y="0" x="0" width="329" stroke="none" ry="7" rx="7" height="223" fill="white" class="cas-substance-group" /><ns0:svg y="0" x="0" width="329" viewBox="0 0 329 223" style="fill:black;" height="223" class="cas-substance-single-component-image"><ns0:svg><ns0:g><ns0:g transform="translate(164,111)" style="text-rendering:geometricPrecision; color-rendering:optimizeQuality; color-interpolation:linearRGB; stroke-linecap:butt; image-rendering:optimizeQuality;"><ns0:path style="stroke:none;" d="M-30 51.463 L-30 52.463 L-58.7011 55.213 L-62.1649 49.213 Z" /><ns0:line y2="25.98" y1="51.963" x2="-75" x1="-60" style="fill:none;" /><ns0:line y2="31.6282" y1="51.963" x2="-18.2607" x1="-30" style="fill:none;" /><ns0:line y2="77.943" y1="51.963" x2="-15" x1="-30" style="fill:none;" /><ns0:line y2="25.98" y1="25.98" x2="15" x1="-9.0625" style="fill:none;" /><ns0:line y2="98.2013" y1="77.943" x2="-26.6965" x1="-15" style="fill:none;" /><ns0:line y2="79.693" y1="79.693" x2="9.0625" x1="-16.0104" style="fill:none;" /><ns0:line y2="76.193" y1="76.193" x2="9.0625" x1="-16.0104" style="fill:none;" /><ns0:line y2="0" y1="25.98" x2="30" x1="15" style="fill:none;" /><ns0:line y2="47.1101" y1="25.98" x2="25.1777" x1="12.9793" style="fill:none;" /><ns0:line y2="45.3602" y1="24.23" x2="28.2089" x1="16.0104" style="fill:none;" /><ns0:line y2="0" y1="0" x2="60" x1="30" style="fill:none;" /><ns0:line y2="-3.5" y1="-3.5" x2="57.9793" x1="32.0207" style="fill:none;" /></ns0:g><ns0:g transform="translate(164,111)" style="stroke-linecap:butt; font-size:8.4px; fill:gray; text-rendering:geometricPrecision; image-rendering:optimizeQuality; color-rendering:optimizeQuality; font-family:'Open Sans'; font-style:italic; stroke:gray; color-interpolation:linearRGB;"><ns0:path style="stroke:none;" d="M40.8526 11.1641 Q40.8526 9.8359 41.3214 8.7109 Q41.7901 7.5859 42.8214 6.5078 L43.4308 6.5078 Q42.462 7.5703 41.9776 8.7422 Q41.4933 9.9141 41.4933 11.1484 Q41.4933 12.4766 41.9308 13.4922 L41.4151 13.4922 Q40.8526 12.4609 40.8526 11.1641 ZM46.1158 12.2266 L43.2564 12.2266 L44.4596 6.5078 L47.3346 6.5078 L47.2096 7.1172 L44.9908 7.1172 L44.6158 8.9453 L46.6627 8.9453 L46.5533 9.5391 L44.4908 9.5391 L44.0377 11.6328 L46.2564 11.6328 L46.1158 12.2266 ZM49.1474 8.8516 Q49.1474 10.1797 48.6708 11.3125 Q48.1942 12.4453 47.1786 13.4922 L46.5692 13.4922 Q48.5067 11.3359 48.5067 8.8516 Q48.5067 7.5234 48.0692 6.5078 L48.5849 6.5078 Q49.1474 7.5703 49.1474 8.8516 Z" /><ns0:line y2="-25.98" y1="0" x2="75" x1="60" style="fill:none; stroke:black;" /><ns0:line y2="0" y1="0" x2="-120" x1="-144.0625" style="fill:none; stroke:black;" /><ns0:line y2="-25.98" y1="-46.327" x2="-105" x1="-116.7464" style="fill:none; stroke:black;" /><ns0:line y2="-51.963" y1="-51.963" x2="120" x1="144.0625" style="fill:none; stroke:black;" /><ns0:line y2="-77.943" y1="-98.275" x2="105" x1="116.739" style="fill:none; stroke:black;" /><ns0:line y2="25.98" y1="25.98" x2="-105" x1="-75" style="fill:none; stroke:black;" /><ns0:line y2="22.48" y1="22.48" x2="-102.9793" x1="-77.0207" style="fill:none; stroke:black;" /><ns0:line y2="0" y1="25.98" x2="-60" x1="-75" style="fill:none; stroke:black;" /><ns0:line y2="0" y1="25.98" x2="-120" x1="-105" style="fill:none; stroke:black;" /><ns0:line y2="-25.98" y1="0" x2="-75" x1="-60" style="fill:none; stroke:black;" /><ns0:line y2="-22.48" y1="0.0001" x2="-77.0207" x1="-64.0415" style="fill:none; stroke:black;" /><ns0:line y2="-25.98" y1="0" x2="-105" x1="-120" style="fill:none; stroke:black;" /><ns0:line y2="-22.48" y1="0.0001" x2="-102.9793" x1="-115.9585" style="fill:none; stroke:black;" /><ns0:line y2="-25.98" y1="-25.98" x2="-105" x1="-75" style="fill:none; stroke:black;" /><ns0:line y2="-25.98" y1="-25.98" x2="105" x1="75" style="fill:none; stroke:black;" /><ns0:line y2="-29.48" y1="-29.48" x2="102.9793" x1="77.0207" style="fill:none; stroke:black;" /><ns0:line y2="-51.963" y1="-25.98" x2="60" x1="75" style="fill:none; stroke:black;" /><ns0:line y2="-51.963" y1="-25.98" x2="120" x1="105" style="fill:none; stroke:black;" /><ns0:line y2="-77.943" y1="-51.963" x2="75" x1="60" style="fill:none; stroke:black;" /><ns0:line y2="-74.443" y1="-51.963" x2="77.0207" x1="64.0415" style="fill:none; stroke:black;" /><ns0:line y2="-77.943" y1="-51.963" x2="105" x1="120" style="fill:none; stroke:black;" /><ns0:line y2="-74.443" y1="-51.963" x2="102.9793" x1="115.9585" style="fill:none; stroke:black;" /><ns0:line y2="-77.943" y1="-77.943" x2="105" x1="75" style="fill:none; stroke:black;" /><ns0:path style="stroke-linecap:square; stroke:none;" d="M-39.3891 44.4671 Q-39.3891 43.1389 -38.9203 42.0139 Q-38.4516 40.8889 -37.4203 39.8108 L-36.8109 39.8108 Q-37.7797 40.8733 -38.2641 42.0452 Q-38.7484 43.2171 -38.7484 44.4514 Q-38.7484 45.7796 -38.3109 46.7952 L-38.8266 46.7952 Q-39.3891 45.7639 -39.3891 44.4671 ZM-35.829 43.1546 L-36.329 45.5296 L-36.9853 45.5296 L-35.7821 39.8108 L-34.5321 39.8108 Q-32.7978 39.8108 -32.7978 41.2483 Q-32.7978 42.6077 -34.2353 42.9983 L-33.2978 45.5296 L-34.0165 45.5296 L-34.8446 43.1546 L-35.829 43.1546 ZM-35.2509 40.4046 Q-35.6415 42.3264 -35.704 42.5764 L-35.0478 42.5764 Q-34.2978 42.5764 -33.8915 42.2483 Q-33.4853 41.9202 -33.4853 41.2952 Q-33.4853 40.8264 -33.7431 40.6155 Q-34.0009 40.4046 -34.5946 40.4046 L-35.2509 40.4046 ZM-30.6118 42.1546 Q-30.6118 43.4827 -31.0884 44.6155 Q-31.5649 45.7483 -32.5805 46.7952 L-33.1899 46.7952 Q-31.2524 44.6389 -31.2524 42.1546 Q-31.2524 40.8264 -31.6899 39.8108 L-31.1743 39.8108 Q-30.6118 40.8733 -30.6118 42.1546 Z" /></ns0:g><ns0:g transform="translate(164,111)" style="fill:rgb(230,0,0); text-rendering:geometricPrecision; color-rendering:optimizeQuality; image-rendering:optimizeQuality; font-family:'Open Sans'; stroke:rgb(230,0,0); color-interpolation:linearRGB;"><ns0:path style="stroke:none;" d="M-11.0625 25.9097 Q-11.0625 27.9722 -12.1016 29.1519 Q-13.1406 30.3316 -14.9844 30.3316 Q-16.875 30.3316 -17.9062 29.1675 Q-18.9375 28.0034 -18.9375 25.8941 Q-18.9375 23.8003 -17.9062 22.6519 Q-16.875 21.5034 -14.9844 21.5034 Q-13.125 21.5034 -12.0938 22.6753 Q-11.0625 23.8472 -11.0625 25.9097 ZM-17.8906 25.9097 Q-17.8906 27.6441 -17.1484 28.5503 Q-16.4062 29.4566 -14.9844 29.4566 Q-13.5625 29.4566 -12.8359 28.5581 Q-12.1094 27.6597 -12.1094 25.9097 Q-12.1094 24.1753 -12.8359 23.2847 Q-13.5625 22.3941 -14.9844 22.3941 Q-16.4062 22.3941 -17.1484 23.2925 Q-17.8906 24.1909 -17.8906 25.9097 Z" /></ns0:g><ns0:g transform="translate(164,111)" style="stroke-linecap:butt; text-rendering:geometricPrecision; color-rendering:optimizeQuality; image-rendering:optimizeQuality; font-family:'Open Sans'; color-interpolation:linearRGB; stroke-miterlimit:5;"><ns0:path style="fill:none;" d="M-15.25 77.51 L-15 77.943 L-15.25 78.376" /><ns0:path style="fill:none;" d="M14.5 25.98 L15 25.98 L15.25 25.547" /><ns0:path style="fill:rgb(230,0,0); stroke:none;" d="M-26.0625 103.8527 Q-26.0625 105.9152 -27.1016 107.0949 Q-28.1406 108.2746 -29.9844 108.2746 Q-31.875 108.2746 -32.9062 107.1105 Q-33.9375 105.9464 -33.9375 103.8371 Q-33.9375 101.7433 -32.9062 100.5949 Q-31.875 99.4464 -29.9844 99.4464 Q-28.125 99.4464 -27.0938 100.6183 Q-26.0625 101.7902 -26.0625 103.8527 ZM-32.8906 103.8527 Q-32.8906 105.5871 -32.1484 106.4933 Q-31.4062 107.3996 -29.9844 107.3996 Q-28.5625 107.3996 -27.8359 106.5011 Q-27.1094 105.6027 -27.1094 103.8527 Q-27.1094 102.1183 -27.8359 101.2277 Q-28.5625 100.3371 -29.9844 100.3371 Q-31.4062 100.3371 -32.1484 101.2355 Q-32.8906 102.1339 -32.8906 103.8527 Z" /><ns0:path style="fill:rgb(230,0,0); stroke:none;" d="M-34.9375 108.1496 L-35.9375 108.1496 L-35.9375 104.1183 L-40.4531 104.1183 L-40.4531 108.1496 L-41.4531 108.1496 L-41.4531 99.5871 L-40.4531 99.5871 L-40.4531 103.2277 L-35.9375 103.2277 L-35.9375 99.5871 L-34.9375 99.5871 L-34.9375 108.1496 Z" /><ns0:path style="fill:rgb(230,0,0); stroke:none;" d="M18.9375 77.8727 Q18.9375 79.9352 17.8984 81.1149 Q16.8594 82.2946 15.0156 82.2946 Q13.125 82.2946 12.0938 81.1305 Q11.0625 79.9664 11.0625 77.8571 Q11.0625 75.7633 12.0938 74.6149 Q13.125 73.4664 15.0156 73.4664 Q16.875 73.4664 17.9062 74.6383 Q18.9375 75.8102 18.9375 77.8727 ZM12.1094 77.8727 Q12.1094 79.6071 12.8516 80.5133 Q13.5938 81.4196 15.0156 81.4196 Q16.4375 81.4196 17.1641 80.5211 Q17.8906 79.6227 17.8906 77.8727 Q17.8906 76.1383 17.1641 75.2477 Q16.4375 74.3571 15.0156 74.3571 Q13.5938 74.3571 12.8516 75.2555 Q12.1094 76.1539 12.1094 77.8727 Z" /><ns0:path style="fill:none;" d="M29.75 0.433 L30 0 L30.5 0" /><ns0:path style="fill:rgb(230,0,0); stroke:none;" d="M33.9375 51.8927 Q33.9375 53.9552 32.8984 55.1349 Q31.8594 56.3146 30.0156 56.3146 Q28.125 56.3146 27.0938 55.1505 Q26.0625 53.9864 26.0625 51.8771 Q26.0625 49.7833 27.0938 48.6349 Q28.125 47.4864 30.0156 47.4864 Q31.875 47.4864 32.9062 48.6583 Q33.9375 49.8302 33.9375 51.8927 ZM27.1094 51.8927 Q27.1094 53.6271 27.8516 54.5333 Q28.5938 55.4396 30.0156 55.4396 Q31.4375 55.4396 32.1641 54.5411 Q32.8906 53.6427 32.8906 51.8927 Q32.8906 50.1583 32.1641 49.2677 Q31.4375 48.3771 30.0156 48.3771 Q28.5938 48.3771 27.8516 49.2755 Q27.1094 50.1739 27.1094 51.8927 Z" /><ns0:path style="fill:none;" d="M59.5 -0 L60 0 L60.25 -0.433" /><ns0:path style="fill:rgb(230,0,0); stroke:none;" d="M-146.0625 -0.0703 Q-146.0625 1.9922 -147.1016 3.1719 Q-148.1406 4.3516 -149.9844 4.3516 Q-151.875 4.3516 -152.9062 3.1875 Q-153.9375 2.0234 -153.9375 -0.0859 Q-153.9375 -2.1797 -152.9062 -3.3281 Q-151.875 -4.4766 -149.9844 -4.4766 Q-148.125 -4.4766 -147.0938 -3.3047 Q-146.0625 -2.1328 -146.0625 -0.0703 ZM-152.8906 -0.0703 Q-152.8906 1.6641 -152.1484 2.5703 Q-151.4062 3.4766 -149.9844 3.4766 Q-148.5625 3.4766 -147.8359 2.5781 Q-147.1094 1.6797 -147.1094 -0.0703 Q-147.1094 -1.8047 -147.8359 -2.6953 Q-148.5625 -3.5859 -149.9844 -3.5859 Q-151.4062 -3.5859 -152.1484 -2.6875 Q-152.8906 -1.7891 -152.8906 -0.0703 Z" /><ns0:path style="fill:rgb(230,0,0); stroke:none;" d="M-154.9375 4.2266 L-155.9375 4.2266 L-155.9375 0.1953 L-160.4531 0.1953 L-160.4531 4.2266 L-161.4531 4.2266 L-161.4531 -4.3359 L-160.4531 -4.3359 L-160.4531 -0.6953 L-155.9375 -0.6953 L-155.9375 -4.3359 L-154.9375 -4.3359 L-154.9375 4.2266 Z" /><ns0:path style="fill:rgb(230,0,0); stroke:none;" d="M-116.0625 -52.0333 Q-116.0625 -49.9708 -117.1016 -48.7911 Q-118.1406 -47.6114 -119.9844 -47.6114 Q-121.875 -47.6114 -122.9062 -48.7755 Q-123.9375 -49.9396 -123.9375 -52.0489 Q-123.9375 -54.1427 -122.9062 -55.2911 Q-121.875 -56.4396 -119.9844 -56.4396 Q-118.125 -56.4396 -117.0938 -55.2677 Q-116.0625 -54.0958 -116.0625 -52.0333 ZM-122.8906 -52.0333 Q-122.8906 -50.2989 -122.1484 -49.3927 Q-121.4062 -48.4864 -119.9844 -48.4864 Q-118.5625 -48.4864 -117.8359 -49.3849 Q-117.1094 -50.2833 -117.1094 -52.0333 Q-117.1094 -53.7677 -117.8359 -54.6583 Q-118.5625 -55.5489 -119.9844 -55.5489 Q-121.4062 -55.5489 -122.1484 -54.6505 Q-122.8906 -53.7521 -122.8906 -52.0333 Z" /><ns0:path style="fill:rgb(230,0,0); stroke:none;" d="M-124.9375 -47.7364 L-125.9375 -47.7364 L-125.9375 -51.7677 L-130.4531 -51.7677 L-130.4531 -47.7364 L-131.4531 -47.7364 L-131.4531 -56.2989 L-130.4531 -56.2989 L-130.4531 -52.6583 L-125.9375 -52.6583 L-125.9375 -56.2989 L-124.9375 -56.2989 L-124.9375 -47.7364 Z" /><ns0:path style="fill:rgb(230,0,0); stroke:none;" d="M153.9375 -52.0333 Q153.9375 -49.9708 152.8984 -48.7911 Q151.8594 -47.6114 150.0156 -47.6114 Q148.125 -47.6114 147.0938 -48.7755 Q146.0625 -49.9396 146.0625 -52.0489 Q146.0625 -54.1427 147.0938 -55.2911 Q148.125 -56.4396 150.0156 -56.4396 Q151.875 -56.4396 152.9062 -55.2677 Q153.9375 -54.0958 153.9375 -52.0333 ZM147.1094 -52.0333 Q147.1094 -50.2989 147.8516 -49.3927 Q148.5938 -48.4864 150.0156 -48.4864 Q151.4375 -48.4864 152.1641 -49.3849 Q152.8906 -50.2833 152.8906 -52.0333 Q152.8906 -53.7677 152.1641 -54.6583 Q151.4375 -55.5489 150.0156 -55.5489 Q148.5938 -55.5489 147.8516 -54.6505 Q147.1094 -53.7521 147.1094 -52.0333 Z" /><ns0:path style="fill:rgb(230,0,0); stroke:none;" d="M161.4531 -47.7364 L160.4531 -47.7364 L160.4531 -51.7677 L155.9375 -51.7677 L155.9375 -47.7364 L154.9375 -47.7364 L154.9375 -56.2989 L155.9375 -56.2989 L155.9375 -52.6583 L160.4531 -52.6583 L160.4531 -56.2989 L161.4531 -56.2989 L161.4531 -47.7364 Z" /><ns0:path style="fill:rgb(230,0,0); stroke:none;" d="M123.9375 -103.9933 Q123.9375 -101.9308 122.8984 -100.7511 Q121.8594 -99.5714 120.0156 -99.5714 Q118.125 -99.5714 117.0938 -100.7355 Q116.0625 -101.8996 116.0625 -104.0089 Q116.0625 -106.1027 117.0938 -107.2511 Q118.125 -108.3996 120.0156 -108.3996 Q121.875 -108.3996 122.9062 -107.2277 Q123.9375 -106.0558 123.9375 -103.9933 ZM117.1094 -103.9933 Q117.1094 -102.2589 117.8516 -101.3527 Q118.5938 -100.4464 120.0156 -100.4464 Q121.4375 -100.4464 122.1641 -101.3449 Q122.8906 -102.2433 122.8906 -103.9933 Q122.8906 -105.7277 122.1641 -106.6183 Q121.4375 -107.5089 120.0156 -107.5089 Q118.5938 -107.5089 117.8516 -106.6105 Q117.1094 -105.7121 117.1094 -103.9933 Z" /><ns0:path style="fill:rgb(230,0,0); stroke:none;" d="M131.4531 -99.6964 L130.4531 -99.6964 L130.4531 -103.7277 L125.9375 -103.7277 L125.9375 -99.6964 L124.9375 -99.6964 L124.9375 -108.2589 L125.9375 -108.2589 L125.9375 -104.6183 L130.4531 -104.6183 L130.4531 -108.2589 L131.4531 -108.2589 L131.4531 -99.6964 Z" /><ns0:path style="fill:none;" d="M-75.5 25.98 L-75 25.98 L-74.75 26.413" /><ns0:path style="fill:none;" d="M-104.5 25.98 L-105 25.98 L-105.25 25.547" /><ns0:path style="fill:none;" d="M-60.25 0.433 L-60 0 L-60.25 -0.433" /><ns0:path style="fill:none;" d="M-119.75 -0.433 L-120 0 L-120.5 -0" /><ns0:path style="fill:none;" d="M-74.75 -25.547 L-75 -25.98 L-75.5 -25.98" /><ns0:path style="fill:none;" d="M-105.25 -25.547 L-105 -25.98 L-105.25 -26.413" /><ns0:path style="fill:none;" d="M75.5 -25.98 L75 -25.98 L74.75 -25.547" /><ns0:path style="fill:none;" d="M104.5 -25.98 L105 -25.98 L105.25 -26.413" /><ns0:path style="fill:none;" d="M60.25 -51.53 L60 -51.963 L60.25 -52.396" /><ns0:path style="fill:none;" d="M119.75 -52.396 L120 -51.963 L120.5 -51.963" /><ns0:path style="fill:none;" d="M74.75 -77.51 L75 -77.943 L75.5 -77.943" /><ns0:path style="fill:none;" d="M105.25 -77.51 L105 -77.943 L105.25 -78.376" /></ns0:g></ns0:g></ns0:svg></ns0:svg></ns0:svg></ns0:svg></g></svg>