<svg xmlns:ns0="http://www.w3.org/2000/svg" xmlns="http://www.w3.org/2000/svg"><g transform="translate(0, 0)"><ns0:svg width="282" viewBox="0 0 282 105" style="fill-opacity:1; color-rendering:auto; color-interpolation:auto; text-rendering:auto; stroke:black; stroke-linecap:square; stroke-miterlimit:10; shape-rendering:auto; stroke-opacity:1; fill:black; stroke-dasharray:none; font-weight:normal; stroke-width:1; font-family:'Open Sans'; font-style:normal; stroke-linejoin:miter; font-size:12; stroke-dashoffset:0; image-rendering:auto;" height="105" class="cas-substance-image"><ns0:svg class="cas-substance-single-component"><ns0:rect y="0" x="0" width="282" stroke="none" ry="7" rx="7" height="105" fill="white" class="cas-substance-group" /><ns0:svg y="0" x="0" width="282" viewBox="0 0 282 105" style="fill:black;" height="105" class="cas-substance-single-component-image"><ns0:svg><ns0:g><ns0:g transform="translate(133,52)" style="text-rendering:geometricPrecision; color-rendering:optimizeQuality; color-interpolation:linearRGB; stroke-linecap:butt; image-rendering:optimizeQuality;"><ns0:line y2="-12.0649" y1="0" x2="-57.0466" x1="-77.943" style="fill:none;" /><ns0:path style="stroke:none;" d="M-101.6733 -16.9176 L-104.4563 -12.0916 L-103.5507 -11.6597 L-100.8464 -16.3492 L-100.8464 -16.3492 L-101.6733 -16.9176 ZM-99.1926 -15.2123 L-101.7394 -10.796 L-101.7394 -10.796 L-100.8337 -10.3641 L-98.3657 -14.6439 L-99.1926 -15.2123 ZM-96.7118 -13.507 L-99.0224 -9.5003 L-99.0224 -9.5003 L-98.1168 -9.0684 L-95.8849 -12.9386 L-96.7118 -13.507 ZM-94.2311 -11.8017 L-96.3055 -8.2046 L-95.3998 -7.7727 L-93.4042 -11.2333 L-94.2311 -11.8017 ZM-91.7504 -10.0964 L-93.5885 -6.9089 L-92.6829 -6.477 L-90.9235 -9.528 L-91.7504 -10.0964 ZM-89.2697 -8.3911 L-90.8716 -5.6132 L-90.8716 -5.6132 L-89.9659 -5.1813 L-88.4427 -7.8226 L-88.4427 -7.8226 L-89.2697 -8.3911 ZM-86.7889 -6.6858 L-88.1546 -4.3176 L-87.249 -3.8857 L-85.962 -6.1173 L-86.7889 -6.6858 ZM-84.3082 -4.9805 L-85.4377 -3.0219 L-85.4377 -3.0219 L-84.532 -2.59 L-83.4813 -4.412 L-84.3082 -4.9805 ZM-81.8275 -3.2752 L-82.7207 -1.7262 L-81.8151 -1.2943 L-81.0006 -2.7067 L-81.8275 -3.2752 ZM-79.3468 -1.5698 L-80.0038 -0.4305 L-79.0981 0.0014 L-78.5198 -1.0014 L-79.3468 -1.5698 Z" /><ns0:line y2="30" y1="0" x2="-77.943" x1="-77.943" style="fill:none;" /><ns0:line y2="0" y1="-12.0652" x2="-25.98" x1="-46.8794" style="fill:none;" /><ns0:line y2="0" y1="-15" x2="-129.903" x1="-103.923" style="fill:none;" /><ns0:line y2="-45" y1="-15" x2="-103.923" x1="-103.923" style="fill:none;" /><ns0:line y2="41.774" y1="30" x2="-98.3355" x1="-77.943" style="fill:none;" /><ns0:line y2="43.2741" y1="31.0104" x2="-58.4522" x1="-79.693" style="fill:none;" /><ns0:line y2="40.2431" y1="27.9793" x2="-56.7021" x1="-77.943" style="fill:none;" /><ns0:line y2="-15" y1="0" x2="0" x1="-25.98" style="fill:none;" /><ns0:line y2="23.5234" y1="-1.0103" x2="-27.73" x1="-27.73" style="fill:none;" /><ns0:line y2="23.5234" y1="-1.0104" x2="-24.23" x1="-24.23" style="fill:none;" /><ns0:line y2="0" y1="-15" x2="25.98" x1="0" style="fill:none;" /><ns0:path style="stroke:none;" d="M0.5 -15 L-0.5 -15 L-3 -38.8438 L3 -38.8438 Z" /><ns0:line y2="-15" y1="0" x2="51.963" x1="25.98" style="fill:none;" /><ns0:line y2="0" y1="-15" x2="77.943" x1="51.963" style="fill:none;" /><ns0:line y2="-15" y1="0" x2="103.923" x1="77.943" style="fill:none;" /><ns0:line y2="-2.9351" y1="-15" x2="124.8194" x1="103.923" style="fill:none;" /><ns0:path style="fill:none; stroke-miterlimit:5;" d="M-77.51 -0.25 L-77.943 0 L-77.943 0.5" /></ns0:g><ns0:g transform="translate(133,52)" style="stroke-linecap:butt; font-size:8.4px; fill:gray; text-rendering:geometricPrecision; image-rendering:optimizeQuality; color-rendering:optimizeQuality; font-family:'Open Sans'; font-style:italic; stroke:gray; color-interpolation:linearRGB; stroke-miterlimit:5;"><ns0:path style="stroke:none;" d="M-82.0515 -8.7969 Q-82.0515 -10.125 -81.5828 -11.25 Q-81.114 -12.375 -80.0828 -13.4531 L-79.4734 -13.4531 Q-80.4421 -12.3906 -80.9265 -11.2188 Q-81.4109 -10.0469 -81.4109 -8.8125 Q-81.4109 -7.4844 -80.9734 -6.4688 L-81.489 -6.4688 Q-82.0515 -7.5 -82.0515 -8.7969 ZM-76.429 -9.3906 Q-76.429 -8.5625 -76.9758 -8.1094 Q-77.5227 -7.6562 -78.5227 -7.6562 Q-78.929 -7.6562 -79.2415 -7.7109 Q-79.554 -7.7656 -79.8352 -7.9062 L-79.8352 -8.5625 Q-79.2102 -8.2344 -78.5071 -8.2344 Q-77.8821 -8.2344 -77.5071 -8.5312 Q-77.1321 -8.8281 -77.1321 -9.3438 Q-77.1321 -9.6562 -77.3352 -9.8828 Q-77.5383 -10.1094 -78.1008 -10.4375 Q-78.6946 -10.7656 -78.9212 -11.0938 Q-79.1477 -11.4219 -79.1477 -11.875 Q-79.1477 -12.6094 -78.6321 -13.0703 Q-78.1165 -13.5312 -77.2727 -13.5312 Q-76.8977 -13.5312 -76.5618 -13.4531 Q-76.2258 -13.375 -75.8508 -13.2031 L-76.1165 -12.6094 Q-76.3665 -12.7656 -76.6868 -12.8516 Q-77.0071 -12.9375 -77.2727 -12.9375 Q-77.804 -12.9375 -78.1243 -12.6641 Q-78.4446 -12.3906 -78.4446 -11.9219 Q-78.4446 -11.7188 -78.3743 -11.5703 Q-78.304 -11.4219 -78.1633 -11.2891 Q-78.0227 -11.1562 -77.6008 -10.9062 Q-77.0383 -10.5625 -76.8352 -10.3672 Q-76.6321 -10.1719 -76.5305 -9.9375 Q-76.429 -9.7031 -76.429 -9.3906 ZM-73.8345 -11.1094 Q-73.8345 -9.7812 -74.311 -8.6484 Q-74.7876 -7.5156 -75.8032 -6.4688 L-76.4126 -6.4688 Q-74.4751 -8.625 -74.4751 -11.1094 Q-74.4751 -12.4375 -74.9126 -13.4531 L-74.397 -13.4531 Q-73.8345 -12.3906 -73.8345 -11.1094 Z" /></ns0:g><ns0:g transform="translate(133,52)" style="stroke-linecap:butt; fill:rgb(0,5,255); text-rendering:geometricPrecision; color-rendering:optimizeQuality; image-rendering:optimizeQuality; font-family:'Open Sans'; stroke:rgb(0,5,255); color-interpolation:linearRGB; stroke-miterlimit:5;"><ns0:path style="stroke:none;" d="M-48.6114 -10.8438 L-49.7521 -10.8438 L-54.4396 -18.0312 L-54.4864 -18.0312 Q-54.3927 -16.7656 -54.3927 -15.7188 L-54.3927 -10.8438 L-55.3146 -10.8438 L-55.3146 -19.4062 L-54.1896 -19.4062 L-49.5177 -12.25 L-49.4708 -12.25 Q-49.4708 -12.4062 -49.5177 -13.2656 Q-49.5646 -14.125 -49.5489 -14.5 L-49.5489 -19.4062 L-48.6114 -19.4062 L-48.6114 -10.8438 Z" /><ns0:path style="stroke:none;" d="M-48.7052 -20.4062 L-49.7052 -20.4062 L-49.7052 -24.4375 L-54.2208 -24.4375 L-54.2208 -20.4062 L-55.2208 -20.4062 L-55.2208 -28.9688 L-54.2208 -28.9688 L-54.2208 -25.3281 L-49.7052 -25.3281 L-49.7052 -28.9688 L-48.7052 -28.9688 L-48.7052 -20.4062 Z" /><ns0:path style="fill:none; stroke:black;" d="M-104.356 -14.75 L-103.923 -15 L-103.923 -15.5" /><ns0:path style="fill:none; stroke:black;" d="M-77.943 29.5 L-77.943 30 L-78.376 30.25" /><ns0:path style="fill:none; stroke:black;" d="M-26.413 -0.25 L-25.98 0 L-25.547 -0.25" /><ns0:path style="fill:rgb(230,0,0); stroke:none;" d="M-99.9855 44.9297 Q-99.9855 46.9922 -101.0246 48.1719 Q-102.0636 49.3516 -103.9074 49.3516 Q-105.798 49.3516 -106.8292 48.1875 Q-107.8605 47.0234 -107.8605 44.9141 Q-107.8605 42.8203 -106.8292 41.6719 Q-105.798 40.5234 -103.9074 40.5234 Q-102.048 40.5234 -101.0167 41.6953 Q-99.9855 42.8672 -99.9855 44.9297 ZM-106.8136 44.9297 Q-106.8136 46.6641 -106.0714 47.5703 Q-105.3292 48.4766 -103.9074 48.4766 Q-102.4855 48.4766 -101.7589 47.5781 Q-101.0324 46.6797 -101.0324 44.9297 Q-101.0324 43.1953 -101.7589 42.3047 Q-102.4855 41.4141 -103.9074 41.4141 Q-105.3292 41.4141 -106.0714 42.3125 Q-106.8136 43.2109 -106.8136 44.9297 Z" /><ns0:path style="fill:rgb(230,0,0); stroke:none;" d="M-108.8605 49.2266 L-109.8605 49.2266 L-109.8605 45.1953 L-114.3761 45.1953 L-114.3761 49.2266 L-115.3761 49.2266 L-115.3761 40.6641 L-114.3761 40.6641 L-114.3761 44.3047 L-109.8605 44.3047 L-109.8605 40.6641 L-108.8605 40.6641 L-108.8605 49.2266 Z" /><ns0:path style="fill:rgb(230,0,0); stroke:none;" d="M-48.0255 44.9297 Q-48.0255 46.9922 -49.0646 48.1719 Q-50.1036 49.3516 -51.9474 49.3516 Q-53.838 49.3516 -54.8693 48.1875 Q-55.9005 47.0234 -55.9005 44.9141 Q-55.9005 42.8203 -54.8693 41.6719 Q-53.838 40.5234 -51.9474 40.5234 Q-50.088 40.5234 -49.0568 41.6953 Q-48.0255 42.8672 -48.0255 44.9297 ZM-54.8536 44.9297 Q-54.8536 46.6641 -54.1114 47.5703 Q-53.3693 48.4766 -51.9474 48.4766 Q-50.5255 48.4766 -49.7989 47.5781 Q-49.0724 46.6797 -49.0724 44.9297 Q-49.0724 43.1953 -49.7989 42.3047 Q-50.5255 41.4141 -51.9474 41.4141 Q-53.3693 41.4141 -54.1114 42.3125 Q-54.8536 43.2109 -54.8536 44.9297 Z" /></ns0:g><ns0:g transform="translate(133,52)" style="stroke-linecap:butt; font-size:8.4px; fill:gray; text-rendering:geometricPrecision; image-rendering:optimizeQuality; color-rendering:optimizeQuality; font-family:'Open Sans'; font-style:italic; stroke:gray; color-interpolation:linearRGB; stroke-miterlimit:5;"><ns0:path style="stroke:none;" d="M-12.7687 -18.797 Q-12.7687 -20.1251 -12.3 -21.2501 Q-11.8312 -22.3751 -10.8 -23.4532 L-10.1906 -23.4532 Q-11.1593 -22.3907 -11.6437 -21.2189 Q-12.1281 -20.047 -12.1281 -18.8126 Q-12.1281 -17.4845 -11.6906 -16.4689 L-12.2062 -16.4689 Q-12.7687 -17.5001 -12.7687 -18.797 ZM-7.1462 -19.3907 Q-7.1462 -18.5626 -7.693 -18.1095 Q-8.2399 -17.6564 -9.2399 -17.6564 Q-9.6462 -17.6564 -9.9587 -17.711 Q-10.2712 -17.7657 -10.5524 -17.9064 L-10.5524 -18.5626 Q-9.9274 -18.2345 -9.2243 -18.2345 Q-8.5993 -18.2345 -8.2243 -18.5314 Q-7.8493 -18.8282 -7.8493 -19.3439 Q-7.8493 -19.6564 -8.0524 -19.8829 Q-8.2555 -20.1095 -8.818 -20.4376 Q-9.4118 -20.7657 -9.6383 -21.0939 Q-9.8649 -21.422 -9.8649 -21.8751 Q-9.8649 -22.6095 -9.3493 -23.0704 Q-8.8337 -23.5314 -7.9899 -23.5314 Q-7.6149 -23.5314 -7.279 -23.4532 Q-6.943 -23.3751 -6.568 -23.2032 L-6.8337 -22.6095 Q-7.0837 -22.7657 -7.404 -22.8517 Q-7.7243 -22.9376 -7.9899 -22.9376 Q-8.5212 -22.9376 -8.8415 -22.6642 Q-9.1618 -22.3907 -9.1618 -21.922 Q-9.1618 -21.7189 -9.0915 -21.5704 Q-9.0212 -21.422 -8.8805 -21.2892 Q-8.7399 -21.1564 -8.318 -20.9064 Q-7.7555 -20.5626 -7.5524 -20.3673 Q-7.3493 -20.172 -7.2477 -19.9376 Q-7.1462 -19.7032 -7.1462 -19.3907 ZM-4.5517 -21.1095 Q-4.5517 -19.7814 -5.0282 -18.6485 Q-5.5048 -17.5157 -6.5204 -16.4689 L-7.1298 -16.4689 Q-5.1923 -18.6251 -5.1923 -21.1095 Q-5.1923 -22.4376 -5.6298 -23.4532 L-5.1142 -23.4532 Q-4.5517 -22.3907 -4.5517 -21.1095 Z" /></ns0:g><ns0:g transform="translate(133,52)" style="stroke-linecap:butt; fill:rgb(230,0,0); text-rendering:geometricPrecision; color-rendering:optimizeQuality; image-rendering:optimizeQuality; font-family:'Open Sans'; stroke:rgb(230,0,0); color-interpolation:linearRGB; stroke-miterlimit:5;"><ns0:path style="stroke:none;" d="M-22.0425 29.9297 Q-22.0425 31.9922 -23.0816 33.1719 Q-24.1206 34.3516 -25.9644 34.3516 Q-27.855 34.3516 -28.8862 33.1875 Q-29.9175 32.0234 -29.9175 29.9141 Q-29.9175 27.8203 -28.8862 26.6719 Q-27.855 25.5234 -25.9644 25.5234 Q-24.105 25.5234 -23.0737 26.6953 Q-22.0425 27.8672 -22.0425 29.9297 ZM-28.8706 29.9297 Q-28.8706 31.6641 -28.1284 32.5703 Q-27.3862 33.4766 -25.9644 33.4766 Q-24.5425 33.4766 -23.8159 32.5781 Q-23.0894 31.6797 -23.0894 29.9297 Q-23.0894 28.1953 -23.8159 27.3047 Q-24.5425 26.4141 -25.9644 26.4141 Q-27.3862 26.4141 -28.1284 27.3125 Q-28.8706 28.2109 -28.8706 29.9297 Z" /><ns0:path style="fill:none; stroke:black;" d="M25.547 -0.25 L25.98 0 L26.413 -0.25" /><ns0:path style="fill:rgb(0,5,255); stroke:none;" d="M3.3516 -40.8438 L2.2109 -40.8438 L-2.4766 -48.0312 L-2.5234 -48.0312 Q-2.4297 -46.7656 -2.4297 -45.7188 L-2.4297 -40.8438 L-3.3516 -40.8438 L-3.3516 -49.4062 L-2.2266 -49.4062 L2.4453 -42.25 L2.4922 -42.25 Q2.4922 -42.4062 2.4453 -43.2656 Q2.3984 -44.125 2.4141 -44.5 L2.4141 -49.4062 L3.3516 -49.4062 L3.3516 -40.8438 Z" /><ns0:path style="fill:rgb(0,5,255); stroke:none;" d="M10.8672 -40.8438 L9.8672 -40.8438 L9.8672 -44.875 L5.3516 -44.875 L5.3516 -40.8438 L4.3516 -40.8438 L4.3516 -49.4062 L5.3516 -49.4062 L5.3516 -45.7656 L9.8672 -45.7656 L9.8672 -49.4062 L10.8672 -49.4062 L10.8672 -40.8438 Z" /><ns0:path style="fill:rgb(0,5,255); stroke:none;" d="M15.6172 -39.0344 L11.8672 -39.0344 L11.8672 -39.5969 L13.3672 -41.1125 Q14.0547 -41.8 14.2734 -42.0969 Q14.4922 -42.3937 14.6016 -42.675 Q14.7109 -42.9562 14.7109 -43.2844 Q14.7109 -43.7375 14.4375 -44.0031 Q14.1641 -44.2687 13.6641 -44.2687 Q13.3203 -44.2687 13 -44.1516 Q12.6797 -44.0344 12.2891 -43.7375 L11.9453 -44.175 Q12.7266 -44.8312 13.6641 -44.8312 Q14.4609 -44.8312 14.9219 -44.4172 Q15.3828 -44.0031 15.3828 -43.3156 Q15.3828 -42.7687 15.0781 -42.2375 Q14.7734 -41.7062 13.9297 -40.8937 L12.6797 -39.675 L12.6797 -39.6437 L15.6172 -39.6437 L15.6172 -39.0344 Z" /><ns0:path style="fill:none; stroke:black;" d="M51.53 -14.75 L51.963 -15 L52.396 -14.75" /><ns0:path style="fill:none; stroke:black;" d="M77.51 -0.25 L77.943 0 L78.376 -0.25" /><ns0:path style="fill:none; stroke:black;" d="M103.49 -14.75 L103.923 -15 L104.356 -14.75" /><ns0:path style="fill:rgb(0,5,255); stroke:none;" d="M133.2546 4.1562 L132.1139 4.1562 L127.4264 -3.0312 L127.3796 -3.0312 Q127.4733 -1.7656 127.4733 -0.7188 L127.4733 4.1562 L126.5514 4.1562 L126.5514 -4.4062 L127.6764 -4.4062 L132.3483 2.75 L132.3952 2.75 Q132.3952 2.5938 132.3483 1.7344 Q132.3014 0.875 132.3171 0.5 L132.3171 -4.4062 L133.2546 -4.4062 L133.2546 4.1562 Z" /><ns0:path style="fill:rgb(0,5,255); stroke:none;" d="M140.7702 4.1562 L139.7702 4.1562 L139.7702 0.125 L135.2546 0.125 L135.2546 4.1562 L134.2546 4.1562 L134.2546 -4.4062 L135.2546 -4.4062 L135.2546 -0.7656 L139.7702 -0.7656 L139.7702 -4.4062 L140.7702 -4.4062 L140.7702 4.1562 Z" /><ns0:path style="fill:rgb(0,5,255); stroke:none;" d="M145.5202 5.9656 L141.7702 5.9656 L141.7702 5.4031 L143.2702 3.8875 Q143.9577 3.2 144.1764 2.9031 Q144.3952 2.6062 144.5046 2.325 Q144.6139 2.0437 144.6139 1.7156 Q144.6139 1.2625 144.3405 0.9969 Q144.0671 0.7312 143.5671 0.7312 Q143.2233 0.7312 142.903 0.8484 Q142.5827 0.9656 142.1921 1.2625 L141.8483 0.825 Q142.6296 0.1687 143.5671 0.1687 Q144.3639 0.1687 144.8249 0.5828 Q145.2858 0.9969 145.2858 1.6844 Q145.2858 2.2312 144.9811 2.7625 Q144.6764 3.2937 143.8327 4.1062 L142.5827 5.325 L142.5827 5.3562 L145.5202 5.3562 L145.5202 5.9656 Z" /></ns0:g></ns0:g></ns0:svg></ns0:svg></ns0:svg></ns0:svg></g></svg>