<svg width="219" viewBox="0 0 219 63" style="fill-opacity:1; color-rendering:auto; color-interpolation:auto; text-rendering:auto; stroke:black; stroke-linecap:square; stroke-miterlimit:10; shape-rendering:auto; stroke-opacity:1; fill:black; stroke-dasharray:none; font-weight:normal; stroke-width:1; font-family:'Open Sans'; font-style:normal; stroke-linejoin:miter; font-size:12; stroke-dashoffset:0; image-rendering:auto;" height="63" class="cas-substance-image" xmlns:xlink="http://www.w3.org/1999/xlink" xmlns="http://www.w3.org/2000/svg"><svg class="cas-substance-single-component"><rect y="0" x="0" width="219" stroke="none" ry="7" rx="7" height="63" fill="white" class="cas-substance-group"/><svg y="0" x="0" width="219" viewBox="0 0 219 63" style="fill:black;" height="63" class="cas-substance-single-component-image"><svg><g><g transform="translate(108,33)" style="text-rendering:geometricPrecision; color-rendering:optimizeQuality; color-interpolation:linearRGB; stroke-linecap:butt; image-rendering:optimizeQuality;"><line y2="-20.0917" y1="0" x2="41.6003" x1="30" style="fill:none;"/><line y2="0" y1="0" x2="0" x1="30" style="fill:none;"/><line y2="-24.23" y1="-24.23" x2="69.7578" x1="50.3516" style="fill:none;"/><line y2="-27.73" y1="-27.73" x2="69.7578" x1="50.3516" style="fill:none;"/><line y2="-24.23" y1="-24.23" x2="100.3567" x1="79.8546" style="fill:none;"/><line y2="-27.73" y1="-27.73" x2="100.3567" x1="79.8546" style="fill:none;"/><line y2="25.98" y1="5.648" x2="-105" x1="-93.261" style="fill:none;"/><line y2="0" y1="0" x2="-60" x1="-84.0625" style="fill:none;"/><line y2="-25.98" y1="0" x2="-15" x1="0" style="fill:none;"/><line y2="-22.48" y1="0.0001" x2="-17.0207" x1="-4.0415" style="fill:none;"/><line y2="25.98" y1="0" x2="-15" x1="0" style="fill:none;"/><line y2="-25.98" y1="-25.98" x2="-45" x1="-15" style="fill:none;"/><line y2="25.98" y1="25.98" x2="-45" x1="-15" style="fill:none;"/><line y2="22.48" y1="22.48" x2="-42.9793" x1="-17.0207" style="fill:none;"/><line y2="0" y1="-25.98" x2="-60" x1="-45" style="fill:none;"/><line y2="0.0001" y1="-22.48" x2="-55.9585" x1="-42.9793" style="fill:none;"/><line y2="0" y1="25.98" x2="-60" x1="-45" style="fill:none;"/><path style="fill:none; stroke-miterlimit:5;" d="M30.25 -0.433 L30 0 L29.5 -0"/></g><g transform="translate(108,33)" style="stroke-linecap:butt; fill:rgb(0,5,255); text-rendering:geometricPrecision; color-rendering:optimizeQuality; image-rendering:optimizeQuality; font-family:'Open Sans'; stroke:rgb(0,5,255); color-interpolation:linearRGB; stroke-miterlimit:5;"><path style="stroke:none;" d="M48.3516 -21.8237 L47.2109 -21.8237 L42.5234 -29.0112 L42.4766 -29.0112 Q42.5703 -27.7456 42.5703 -26.6987 L42.5703 -21.8237 L41.6484 -21.8237 L41.6484 -30.3862 L42.7734 -30.3862 L47.4453 -23.23 L47.4922 -23.23 Q47.4922 -23.3862 47.4453 -24.2456 Q47.3984 -25.105 47.4141 -25.48 L47.4141 -30.3862 L48.3516 -30.3862 L48.3516 -21.8237 Z"/><path style="fill:black; stroke:none;" d="M75.8672 -29.5581 Q74.4609 -29.5581 73.6406 -28.6206 Q72.8203 -27.6831 72.8203 -26.0425 Q72.8203 -24.3706 73.6094 -23.4487 Q74.3984 -22.5269 75.8516 -22.5269 Q76.7578 -22.5269 77.8984 -22.855 L77.8984 -21.98 Q77.0078 -21.6362 75.7109 -21.6362 Q73.8203 -21.6362 72.7891 -22.7925 Q71.7578 -23.9487 71.7578 -26.0581 Q71.7578 -27.3862 72.25 -28.3784 Q72.7422 -29.3706 73.6797 -29.9097 Q74.6172 -30.4487 75.8828 -30.4487 Q77.2266 -30.4487 78.2422 -29.9644 L77.8203 -29.105 Q76.8359 -29.5581 75.8672 -29.5581 Z"/><path style="fill:rgb(148,108,0); stroke:none;" d="M107.6953 -24.0425 Q107.6953 -22.9175 106.875 -22.2769 Q106.0547 -21.6362 104.6484 -21.6362 Q103.1172 -21.6362 102.3047 -22.0425 L102.3047 -22.9956 Q102.8359 -22.7769 103.4531 -22.6441 Q104.0703 -22.5112 104.6797 -22.5112 Q105.6797 -22.5112 106.1797 -22.8941 Q106.6797 -23.2769 106.6797 -23.9487 Q106.6797 -24.3862 106.5 -24.6753 Q106.3203 -24.9644 105.9062 -25.2066 Q105.4922 -25.4487 104.6328 -25.7456 Q103.4453 -26.1675 102.9297 -26.7534 Q102.4141 -27.3394 102.4141 -28.2925 Q102.4141 -29.2769 103.1562 -29.8628 Q103.8984 -30.4487 105.1328 -30.4487 Q106.3984 -30.4487 107.4766 -29.98 L107.1641 -29.1206 Q106.1016 -29.5581 105.1016 -29.5581 Q104.3047 -29.5581 103.8594 -29.2222 Q103.4141 -28.8862 103.4141 -28.2769 Q103.4141 -27.8394 103.5781 -27.5503 Q103.7422 -27.2612 104.1328 -27.0269 Q104.5234 -26.7925 105.3359 -26.4956 Q106.6797 -26.0269 107.1875 -25.4722 Q107.6953 -24.9175 107.6953 -24.0425 Z"/><path style="fill:rgb(230,0,0); stroke:none;" d="M-86.0625 -0.0703 Q-86.0625 1.9922 -87.1016 3.1719 Q-88.1406 4.3516 -89.9844 4.3516 Q-91.875 4.3516 -92.9062 3.1875 Q-93.9375 2.0234 -93.9375 -0.0859 Q-93.9375 -2.1797 -92.9062 -3.3281 Q-91.875 -4.4766 -89.9844 -4.4766 Q-88.125 -4.4766 -87.0938 -3.3047 Q-86.0625 -2.1328 -86.0625 -0.0703 ZM-92.8906 -0.0703 Q-92.8906 1.6641 -92.1484 2.5703 Q-91.4062 3.4766 -89.9844 3.4766 Q-88.5625 3.4766 -87.8359 2.5781 Q-87.1094 1.6797 -87.1094 -0.0703 Q-87.1094 -1.8047 -87.8359 -2.6953 Q-88.5625 -3.5859 -89.9844 -3.5859 Q-91.4062 -3.5859 -92.1484 -2.6875 Q-92.8906 -1.7891 -92.8906 -0.0703 Z"/><path style="fill:none; stroke:black;" d="M-0.25 -0.433 L0 0 L0.5 0"/><path style="fill:none; stroke:black;" d="M-14.75 -25.547 L-15 -25.98 L-15.5 -25.98"/><path style="fill:none; stroke:black;" d="M-14.75 25.547 L-15 25.98 L-15.5 25.98"/><path style="fill:none; stroke:black;" d="M-44.5 -25.98 L-45 -25.98 L-45.25 -25.547"/><path style="fill:none; stroke:black;" d="M-44.5 25.98 L-45 25.98 L-45.25 25.547"/><path style="fill:none; stroke:black;" d="M-59.75 -0.433 L-60 0 L-60.5 -0"/></g></g></svg></svg></svg></svg>