<svg xmlns:ns0="http://www.w3.org/2000/svg" xmlns="http://www.w3.org/2000/svg"><g transform="translate(0, 0)"><ns0:svg width="329" viewBox="0 0 329 188" style="fill-opacity:1; color-rendering:auto; color-interpolation:auto; text-rendering:auto; stroke:black; stroke-linecap:square; stroke-miterlimit:10; shape-rendering:auto; stroke-opacity:1; fill:black; stroke-dasharray:none; font-weight:normal; stroke-width:1; font-family:'Open Sans'; font-style:normal; stroke-linejoin:miter; font-size:12; stroke-dashoffset:0; image-rendering:auto;" height="188" class="cas-substance-image"><ns0:svg class="cas-substance-single-component"><ns0:rect y="0" x="0" width="329" stroke="none" ry="7" rx="7" height="188" fill="white" class="cas-substance-group" /><ns0:svg y="0" x="0" width="329" viewBox="0 0 329 188" style="fill:black;" height="188" class="cas-substance-single-component-image"><ns0:svg><ns0:g><ns0:g transform="translate(164,92)" style="text-rendering:geometricPrecision; color-rendering:optimizeQuality; color-interpolation:linearRGB; stroke-linecap:butt; image-rendering:optimizeQuality;"><ns0:line y2="1.6376" y1="13.449" x2="-27.4262" x1="-47.886" style="fill:none;" /><ns0:line y2="-1.551" y1="13.449" x2="-73.866" x1="-47.886" style="fill:none;" /><ns0:line y2="13.449" y1="1.6276" x2="4.077" x1="-16.3976" style="fill:none;" /><ns0:line y2="1.3841" y1="13.449" x2="24.9734" x1="4.077" style="fill:none;" /><ns0:line y2="36.9724" y1="12.4386" x2="2.327" x1="2.327" style="fill:none;" /><ns0:line y2="36.9724" y1="12.4386" x2="5.827" x1="5.827" style="fill:none;" /><ns0:line y2="13.449" y1="1.3841" x2="56.037" x1="35.1406" style="fill:none;" /><ns0:path style="stroke:none;" d="M55.4486 14.449 L55.3601 15.449 L56.6946 15.449 L56.6158 14.449 ZM55.1832 17.449 L55.0948 18.449 L56.9309 18.449 L56.8521 17.449 ZM54.9179 20.449 L54.8295 21.449 L57.1673 21.449 L57.0885 20.449 ZM54.6526 23.449 L54.5642 24.449 L57.4036 24.449 L57.3248 23.449 ZM54.3873 26.449 L54.2989 27.449 L57.64 27.449 L57.5612 26.449 ZM54.122 29.449 L54.0335 30.449 L57.8763 30.449 L57.7976 29.449 ZM53.8567 32.449 L53.7682 33.449 L58.1127 33.449 L58.0339 32.449 ZM53.5913 35.449 L53.5029 36.449 L58.3491 36.449 L58.2703 35.449 ZM53.326 38.449 L53.2376 39.449 L58.5854 39.449 L58.5066 38.449 ZM53.0607 41.449 L53.037 41.7171 L54.3048 42.449 L58.8218 42.449 L58.743 41.449 Z" /><ns0:line y2="-1.551" y1="13.449" x2="82.02" x1="56.037" style="fill:none;" /><ns0:line y2="58.449" y1="43.449" x2="82.02" x1="56.037" style="fill:none;" /><ns0:line y2="81.9724" y1="58.449" x2="82.02" x1="82.02" style="fill:none;" /><ns0:line y2="48.1534" y1="60.4697" x2="103.352" x1="82.02" style="fill:none;" /><ns0:line y2="45.1223" y1="57.4387" x2="101.6019" x1="80.2699" style="fill:none;" /><ns0:line y2="-31.551" y1="-44.1707" x2="133.98" x1="155.8373" style="fill:none;" /><ns0:line y2="-1.551" y1="10.653" x2="-73.866" x1="-101.271" style="fill:none;" /><ns0:line y2="-11.643" y1="10.653" x2="-121.347" x1="-101.271" style="fill:none;" /><ns0:line y2="39.183" y1="10.653" x2="-110.544" x1="-101.271" style="fill:none;" /><ns0:line y2="36.1794" y1="11.4929" x2="-113.248" x1="-105.2242" style="fill:none;" /><ns0:line y2="-31.386" y1="-1.551" x2="-77.001" x1="-73.866" style="fill:none;" /><ns0:line y2="-37.623" y1="-11.643" x2="-106.347" x1="-121.347" style="fill:none;" /><ns0:line y2="-5.406" y1="-11.643" x2="-150.69" x1="-121.347" style="fill:none;" /><ns0:line y2="-2.4026" y1="-7.7994" x2="-147.9857" x1="-122.5959" style="fill:none;" /><ns0:line y2="45.42" y1="39.183" x2="-139.887" x1="-110.544" style="fill:none;" /><ns0:line y2="-37.623" y1="-31.386" x2="-106.347" x1="-77.001" style="fill:none;" /><ns0:line y2="-53.679" y1="-31.386" x2="-56.928" x1="-77.001" style="fill:none;" /><ns0:line y2="-54.5193" y1="-35.2297" x2="-60.8811" x1="-78.2498" style="fill:none;" /><ns0:line y2="-66.156" y1="-37.623" x2="-115.617" x1="-106.347" style="fill:none;" /><ns0:line y2="-65.3156" y1="-40.6263" x2="-111.6639" x1="-103.6427" style="fill:none;" /><ns0:line y2="23.127" y1="-5.406" x2="-159.96" x1="-150.69" style="fill:none;" /><ns0:line y2="23.127" y1="45.42" x2="-159.96" x1="-139.887" style="fill:none;" /><ns0:line y2="22.2867" y1="41.5763" x2="-156.0069" x1="-138.6382" style="fill:none;" /><ns0:line y2="-82.212" y1="-53.679" x2="-66.198" x1="-56.928" style="fill:none;" /><ns0:line y2="-88.449" y1="-66.156" x2="-95.544" x1="-115.617" style="fill:none;" /><ns0:line y2="-88.449" y1="-82.212" x2="-95.544" x1="-66.198" style="fill:none;" /><ns0:line y2="-84.6054" y1="-79.2086" x2="-94.295" x1="-68.9022" style="fill:none;" /><ns0:line y2="13.449" y1="-1.551" x2="108" x1="82.02" style="fill:none;" /><ns0:line y2="9.4075" y1="-3.5717" x2="108.0001" x1="85.52" style="fill:none;" /><ns0:line y2="-31.551" y1="-1.551" x2="82.02" x1="82.02" style="fill:none;" /><ns0:line y2="-1.551" y1="13.449" x2="133.98" x1="108" style="fill:none;" /><ns0:line y2="-46.551" y1="-31.551" x2="108" x1="82.02" style="fill:none;" /><ns0:line y2="-42.5095" y1="-29.5303" x2="108.0001" x1="85.52" style="fill:none;" /><ns0:line y2="-31.551" y1="-1.551" x2="133.98" x1="133.98" style="fill:none;" /><ns0:line y2="-29.5303" y1="-3.5717" x2="130.48" x1="130.48" style="fill:none;" /><ns0:line y2="-31.551" y1="-46.551" x2="133.98" x1="108" style="fill:none;" /><ns0:path style="fill:none; stroke-miterlimit:5;" d="M-47.453 13.199 L-47.886 13.449 L-48.319 13.199" /></ns0:g><ns0:g transform="translate(164,92)" style="stroke-linecap:butt; fill:rgb(230,0,0); text-rendering:geometricPrecision; color-rendering:optimizeQuality; image-rendering:optimizeQuality; font-family:'Open Sans'; stroke:rgb(230,0,0); color-interpolation:linearRGB; stroke-miterlimit:5;"><ns0:path style="stroke:none;" d="M-17.9655 -1.6213 Q-17.9655 0.4412 -19.0046 1.6209 Q-20.0436 2.8006 -21.8874 2.8006 Q-23.778 2.8006 -24.8092 1.6365 Q-25.8405 0.4724 -25.8405 -1.6369 Q-25.8405 -3.7307 -24.8092 -4.8791 Q-23.778 -6.0276 -21.8874 -6.0276 Q-20.028 -6.0276 -18.9967 -4.8557 Q-17.9655 -3.6838 -17.9655 -1.6213 ZM-24.7936 -1.6213 Q-24.7936 0.1131 -24.0514 1.0193 Q-23.3092 1.9256 -21.8874 1.9256 Q-20.4655 1.9256 -19.7389 1.0271 Q-19.0124 0.1287 -19.0124 -1.6213 Q-19.0124 -3.3557 -19.7389 -4.2463 Q-20.4655 -5.1369 -21.8874 -5.1369 Q-23.3092 -5.1369 -24.0514 -4.2385 Q-24.7936 -3.3401 -24.7936 -1.6213 Z" /><ns0:path style="fill:none; stroke:black;" d="M3.644 13.199 L4.077 13.449 L4.51 13.199" /><ns0:path style="fill:rgb(0,5,255); stroke:none;" d="M33.4086 2.6052 L32.2679 2.6052 L27.5804 -4.5823 L27.5336 -4.5823 Q27.6273 -3.3166 27.6273 -2.2698 L27.6273 2.6052 L26.7054 2.6052 L26.7054 -5.9573 L27.8304 -5.9573 L32.5023 1.199 L32.5492 1.199 Q32.5492 1.0427 32.5023 0.1834 Q32.4554 -0.676 32.4711 -1.051 L32.4711 -5.9573 L33.4086 -5.9573 L33.4086 2.6052 Z" /><ns0:path style="fill:rgb(0,5,255); stroke:none;" d="M33.3148 -6.9573 L32.3148 -6.9573 L32.3148 -10.9885 L27.7992 -10.9885 L27.7992 -6.9573 L26.7992 -6.9573 L26.7992 -15.5198 L27.7992 -15.5198 L27.7992 -11.8791 L32.3148 -11.8791 L32.3148 -15.5198 L33.3148 -15.5198 L33.3148 -6.9573 Z" /><ns0:path style="stroke:none;" d="M8.0145 43.3787 Q8.0145 45.4412 6.9754 46.6209 Q5.9364 47.8006 4.0926 47.8006 Q2.202 47.8006 1.1708 46.6365 Q0.1395 45.4724 0.1395 43.3631 Q0.1395 41.2693 1.1708 40.1209 Q2.202 38.9724 4.0926 38.9724 Q5.952 38.9724 6.9833 40.1443 Q8.0145 41.3162 8.0145 43.3787 ZM1.1864 43.3787 Q1.1864 45.1131 1.9286 46.0193 Q2.6708 46.9256 4.0926 46.9256 Q5.5145 46.9256 6.2411 46.0271 Q6.9676 45.1287 6.9676 43.3787 Q6.9676 41.6443 6.2411 40.7537 Q5.5145 39.8631 4.0926 39.8631 Q2.6708 39.8631 1.9286 40.7615 Q1.1864 41.6599 1.1864 43.3787 Z" /><ns0:path style="fill:none; stroke:black;" d="M55.604 13.199 L56.037 13.449 L56.47 13.199" /></ns0:g><ns0:g transform="translate(164,92)" style="stroke-linecap:butt; font-size:8.4px; fill:gray; text-rendering:geometricPrecision; image-rendering:optimizeQuality; color-rendering:optimizeQuality; font-family:'Open Sans'; font-style:italic; stroke:gray; color-interpolation:linearRGB; stroke-miterlimit:5;"><ns0:path style="stroke:none;" d="M51.9287 4.6521 Q51.9287 3.324 52.3975 2.199 Q52.8662 1.074 53.8975 -0.0041 L54.5069 -0.0041 Q53.5381 1.0584 53.0537 2.2303 Q52.5694 3.4021 52.5694 4.6365 Q52.5694 5.9646 53.0069 6.9803 L52.4912 6.9803 Q51.9287 5.949 51.9287 4.6521 ZM57.5513 4.0584 Q57.5513 4.8865 57.0044 5.3396 Q56.4575 5.7928 55.4575 5.7928 Q55.0513 5.7928 54.7388 5.7381 Q54.4263 5.6834 54.145 5.5428 L54.145 4.8865 Q54.77 5.2146 55.4732 5.2146 Q56.0982 5.2146 56.4732 4.9178 Q56.8482 4.6209 56.8482 4.1053 Q56.8482 3.7928 56.645 3.5662 Q56.4419 3.3396 55.8794 3.0115 Q55.2857 2.6834 55.0591 2.3553 Q54.8325 2.0271 54.8325 1.574 Q54.8325 0.8396 55.3482 0.3787 Q55.8638 -0.0822 56.7075 -0.0822 Q57.0825 -0.0822 57.4185 -0.0041 Q57.7544 0.074 58.1294 0.2459 L57.8638 0.8396 Q57.6138 0.6834 57.2935 0.5974 Q56.9732 0.5115 56.7075 0.5115 Q56.1763 0.5115 55.856 0.7849 Q55.5357 1.0584 55.5357 1.5271 Q55.5357 1.7303 55.606 1.8787 Q55.6763 2.0271 55.8169 2.1599 Q55.9575 2.2928 56.3794 2.5428 Q56.9419 2.8865 57.145 3.0818 Q57.3482 3.2771 57.4497 3.5115 Q57.5513 3.7459 57.5513 4.0584 ZM60.1458 2.3396 Q60.1458 3.6678 59.6692 4.8006 Q59.1926 5.9334 58.177 6.9803 L57.5676 6.9803 Q59.5051 4.824 59.5051 2.3396 Q59.5051 1.0115 59.0676 -0.0041 L59.5833 -0.0041 Q60.1458 1.0584 60.1458 2.3396 Z" /><ns0:path style="fill:none; stroke:black;" d="M81.587 58.199 L82.02 58.449 L82.02 58.949" /></ns0:g><ns0:g transform="translate(164,92)" style="stroke-linecap:butt; fill:rgb(230,0,0); text-rendering:geometricPrecision; color-rendering:optimizeQuality; image-rendering:optimizeQuality; font-family:'Open Sans'; stroke:rgb(230,0,0); color-interpolation:linearRGB; stroke-miterlimit:5;"><ns0:path style="stroke:none;" d="M85.9575 88.3787 Q85.9575 90.4412 84.9184 91.6209 Q83.8794 92.8006 82.0356 92.8006 Q80.145 92.8006 79.1137 91.6365 Q78.0825 90.4724 78.0825 88.3631 Q78.0825 86.2693 79.1137 85.1209 Q80.145 83.9724 82.0356 83.9724 Q83.895 83.9724 84.9262 85.1443 Q85.9575 86.3162 85.9575 88.3787 ZM79.1294 88.3787 Q79.1294 90.1131 79.8716 91.0193 Q80.6137 91.9256 82.0356 91.9256 Q83.4575 91.9256 84.1841 91.0271 Q84.9106 90.1287 84.9106 88.3787 Q84.9106 86.6443 84.1841 85.7537 Q83.4575 84.8631 82.0356 84.8631 Q80.6137 84.8631 79.8716 85.7615 Q79.1294 86.6599 79.1294 88.3787 Z" /><ns0:path style="stroke:none;" d="M93.4731 92.6756 L92.4731 92.6756 L92.4731 88.6443 L87.9575 88.6443 L87.9575 92.6756 L86.9575 92.6756 L86.9575 84.1131 L87.9575 84.1131 L87.9575 87.7537 L92.4731 87.7537 L92.4731 84.1131 L93.4731 84.1131 L93.4731 92.6756 Z" /><ns0:path style="stroke:none;" d="M111.9375 43.3787 Q111.9375 45.4412 110.8984 46.6209 Q109.8594 47.8006 108.0156 47.8006 Q106.125 47.8006 105.0938 46.6365 Q104.0625 45.4724 104.0625 43.3631 Q104.0625 41.2693 105.0938 40.1209 Q106.125 38.9724 108.0156 38.9724 Q109.875 38.9724 110.9062 40.1443 Q111.9375 41.3162 111.9375 43.3787 ZM105.1094 43.3787 Q105.1094 45.1131 105.8516 46.0193 Q106.5938 46.9256 108.0156 46.9256 Q109.4375 46.9256 110.1641 46.0271 Q110.8906 45.1287 110.8906 43.3787 Q110.8906 41.6443 110.1641 40.7537 Q109.4375 39.8631 108.0156 39.8631 Q106.5938 39.8631 105.8516 40.7615 Q105.1094 41.6599 105.1094 43.3787 Z" /><ns0:path style="fill:rgb(0,138,0); stroke:none;" d="M158.5694 -42.3947 L157.5694 -42.3947 L157.5694 -50.9572 L162.3506 -50.9572 L162.3506 -50.0822 L158.5694 -50.0822 L158.5694 -46.9416 L162.1162 -46.9416 L162.1162 -46.051 L158.5694 -46.051 L158.5694 -42.3947 Z" /><ns0:path style="fill:none; stroke:black;" d="M-101.4256 11.1285 L-101.271 10.653 L-101.6056 10.2814" /><ns0:path style="fill:none; stroke:black;" d="M-121.8361 -11.539 L-121.347 -11.643 L-121.097 -12.076" /><ns0:path style="fill:none; stroke:black;" d="M-110.3894 38.7075 L-110.544 39.183 L-111.0331 39.287" /><ns0:path style="fill:none; stroke:black;" d="M-76.6664 -31.7576 L-77.001 -31.386 L-77.4901 -31.4899" /><ns0:path style="fill:none; stroke:black;" d="M-106.5015 -38.0985 L-106.347 -37.623 L-105.8579 -37.5191" /><ns0:path style="fill:none; stroke:black;" d="M-150.2009 -5.51 L-150.69 -5.406 L-150.8445 -4.9305" /><ns0:path style="fill:none; stroke:black;" d="M-139.3979 45.316 L-139.887 45.42 L-140.2216 45.0484" /><ns0:path style="fill:none; stroke:black;" d="M-57.2626 -53.3074 L-56.928 -53.679 L-57.0825 -54.1545" /><ns0:path style="fill:none; stroke:black;" d="M-115.4625 -65.6805 L-115.617 -66.156 L-115.2824 -66.5276" /><ns0:path style="fill:none; stroke:black;" d="M-159.8055 22.6515 L-159.96 23.127 L-159.6254 23.4986" /><ns0:path style="fill:none; stroke:black;" d="M-66.0435 -81.7365 L-66.198 -82.212 L-66.6871 -82.3159" /><ns0:path style="fill:none; stroke:black;" d="M-95.8786 -88.0774 L-95.544 -88.449 L-95.0549 -88.3451" /><ns0:path style="fill:none; stroke:black;" d="M82.453 -1.301 L82.02 -1.551 L82.02 -2.051" /><ns0:path style="fill:none; stroke:black;" d="M107.567 13.199 L108 13.449 L108.433 13.199" /><ns0:path style="fill:none; stroke:black;" d="M82.02 -31.051 L82.02 -31.551 L82.453 -31.801" /><ns0:path style="fill:none; stroke:black;" d="M133.547 -1.301 L133.98 -1.551 L133.98 -2.051" /><ns0:path style="fill:none; stroke:black;" d="M107.567 -46.301 L108 -46.551 L108.433 -46.301" /><ns0:path style="fill:none; stroke:black;" d="M133.98 -31.051 L133.98 -31.551 L134.413 -31.801" /></ns0:g></ns0:g></ns0:svg></ns0:svg></ns0:svg></ns0:svg></g></svg>