<svg width="167" viewBox="0 0 167 94" style="fill-opacity:1; color-rendering:auto; color-interpolation:auto; text-rendering:auto; stroke:black; stroke-linecap:square; stroke-miterlimit:10; shape-rendering:auto; stroke-opacity:1; fill:black; stroke-dasharray:none; font-weight:normal; stroke-width:1; font-family:'Open Sans'; font-style:normal; stroke-linejoin:miter; font-size:12; stroke-dashoffset:0; image-rendering:auto;" height="94" class="cas-substance-image" xmlns:xlink="http://www.w3.org/1999/xlink" xmlns="http://www.w3.org/2000/svg"><svg class="cas-substance-single-component"><rect y="0" x="0" width="167" stroke="none" ry="7" rx="7" height="94" fill="white" class="cas-substance-group"/><svg y="0" x="0" width="167" viewBox="0 0 167 94" style="fill:black;" height="94" class="cas-substance-single-component-image"><svg><g><g transform="translate(78,41)" style="text-rendering:geometricPrecision; color-rendering:optimizeQuality; color-interpolation:linearRGB; stroke-linecap:butt; image-rendering:optimizeQuality;"><line y2="-2.7597" y1="-19.4868" x2="-48.751" x1="-67.3282" style="fill:none;"/><line y2="-5.3607" y1="-22.0878" x2="-46.4092" x1="-64.9862" style="fill:none;"/><line y2="-11.148" y1="-11.148" x2="40.818" x1="65.4664" style="fill:none;"/><line y2="-11.148" y1="14.835" x2="-19.182" x1="-4.182" style="fill:none;"/><line y2="31.9195" y1="14.835" x2="-19.5652" x1="-4.182" style="fill:none;"/><line y2="14.835" y1="14.835" x2="25.818" x1="-4.182" style="fill:none;"/><line y2="11.335" y1="11.335" x2="23.7973" x1="-2.1613" style="fill:none;"/><line y2="-4.911" y1="-11.148" x2="-48.525" x1="-19.182" style="fill:none;"/><line y2="-37.128" y1="-11.148" x2="-4.182" x1="-19.182" style="fill:none;"/><line y2="-33.628" y1="-11.1479" x2="-2.1613" x1="-15.1405" style="fill:none;"/><line y2="27.2326" y1="34.8224" x2="-46.4813" x1="-29.4337" style="fill:none;"/><line y2="-11.148" y1="14.835" x2="40.818" x1="25.818" style="fill:none;"/><line y2="18.5317" y1="-4.911" x2="-50.9881" x1="-48.525" style="fill:none;"/><line y2="-37.128" y1="-37.128" x2="25.818" x1="-4.182" style="fill:none;"/><line y2="-37.128" y1="-11.148" x2="25.818" x1="40.818" style="fill:none;"/><line y2="-33.628" y1="-11.1479" x2="23.7973" x1="36.7766" style="fill:none;"/></g><g transform="translate(78,41)" style="fill:rgb(230,0,0); text-rendering:geometricPrecision; color-rendering:optimizeQuality; image-rendering:optimizeQuality; font-family:'Open Sans'; stroke:rgb(230,0,0); color-interpolation:linearRGB;"><path style="stroke:none;" d="M-66.8805 -25.0543 Q-66.8805 -22.9918 -67.9196 -21.8121 Q-68.9586 -20.6324 -70.8024 -20.6324 Q-72.693 -20.6324 -73.7243 -21.7965 Q-74.7555 -22.9606 -74.7555 -25.0699 Q-74.7555 -27.1637 -73.7243 -28.3121 Q-72.693 -29.4606 -70.8024 -29.4606 Q-68.943 -29.4606 -67.9118 -28.2887 Q-66.8805 -27.1168 -66.8805 -25.0543 ZM-73.7086 -25.0543 Q-73.7086 -23.3199 -72.9664 -22.4137 Q-72.2243 -21.5074 -70.8024 -21.5074 Q-69.3805 -21.5074 -68.6539 -22.4059 Q-67.9274 -23.3043 -67.9274 -25.0543 Q-67.9274 -26.7887 -68.6539 -27.6793 Q-69.3805 -28.5699 -70.8024 -28.5699 Q-72.2243 -28.5699 -72.9664 -27.6715 Q-73.7086 -26.7731 -73.7086 -25.0543 Z"/><path style="fill:rgb(0,5,255); stroke:none;" d="M74.1696 -6.9917 L73.0289 -6.9917 L68.3414 -14.1792 L68.2946 -14.1792 Q68.3883 -12.9136 68.3883 -11.8667 L68.3883 -6.9917 L67.4664 -6.9917 L67.4664 -15.5542 L68.5914 -15.5542 L73.2633 -8.398 L73.3102 -8.398 Q73.3102 -8.5542 73.2633 -9.4136 Q73.2164 -10.273 73.2321 -10.648 L73.2321 -15.5542 L74.1696 -15.5542 L74.1696 -6.9917 Z"/><path style="fill:rgb(0,5,255); stroke:none;" d="M81.6852 -6.9917 L80.6852 -6.9917 L80.6852 -11.023 L76.1696 -11.023 L76.1696 -6.9917 L75.1696 -6.9917 L75.1696 -15.5542 L76.1696 -15.5542 L76.1696 -11.9136 L80.6852 -11.9136 L80.6852 -15.5542 L81.6852 -15.5542 L81.6852 -6.9917 Z"/><path style="fill:rgb(0,5,255); stroke:none;" d="M86.4352 -5.1824 L82.6852 -5.1824 L82.6852 -5.7449 L84.1852 -7.2605 Q84.8727 -7.948 85.0914 -8.2449 Q85.3102 -8.5417 85.4196 -8.823 Q85.5289 -9.1042 85.5289 -9.4324 Q85.5289 -9.8855 85.2555 -10.1511 Q84.9821 -10.4167 84.4821 -10.4167 Q84.1383 -10.4167 83.818 -10.2996 Q83.4977 -10.1824 83.1071 -9.8855 L82.7633 -10.323 Q83.5446 -10.9792 84.4821 -10.9792 Q85.2789 -10.9792 85.7399 -10.5652 Q86.2008 -10.1511 86.2008 -9.4636 Q86.2008 -8.9167 85.8961 -8.3855 Q85.5914 -7.8542 84.7477 -7.0417 L83.4977 -5.823 L83.4977 -5.7917 L86.4352 -5.7917 L86.4352 -5.1824 Z"/></g><g transform="translate(78,41)" style="stroke-linecap:butt; font-size:8.4px; text-rendering:geometricPrecision; color-rendering:optimizeQuality; image-rendering:optimizeQuality; font-family:'Open Sans'; color-interpolation:linearRGB; stroke-miterlimit:5;"><path style="fill:none;" d="M-3.682 14.835 L-4.182 14.835 L-4.432 14.402"/><path style="fill:none;" d="M-18.932 -11.581 L-19.182 -11.148 L-18.932 -10.715"/><path style="fill:rgb(0,5,255); stroke:none;" d="M-20.9034 41.2842 L-22.0441 41.2842 L-26.7316 34.0967 L-26.7784 34.0967 Q-26.6847 35.3624 -26.6847 36.4092 L-26.6847 41.2842 L-27.6066 41.2842 L-27.6066 32.7217 L-26.4816 32.7217 L-21.8097 39.878 L-21.7628 39.878 Q-21.7628 39.7217 -21.8097 38.8624 Q-21.8566 38.003 -21.8409 37.628 L-21.8409 32.7217 L-20.9034 32.7217 L-20.9034 41.2842 Z"/><path style="fill:rgb(0,5,255); stroke:none;" d="M-20.9972 50.8467 L-21.9972 50.8467 L-21.9972 46.8155 L-26.5128 46.8155 L-26.5128 50.8467 L-27.5128 50.8467 L-27.5128 42.2842 L-26.5128 42.2842 L-26.5128 45.9249 L-21.9972 45.9249 L-21.9972 42.2842 L-20.9972 42.2842 L-20.9972 50.8467 Z"/><path style="fill:none;" d="M25.318 14.835 L25.818 14.835 L26.068 14.402"/><path style="fill:none;" d="M-48.0359 -5.015 L-48.525 -4.911 L-48.5772 -4.4137"/><path style="fill:none;" d="M-4.432 -36.695 L-4.182 -37.128 L-3.682 -37.128"/><path style="fill:rgb(0,5,255); stroke:none;" d="M-48.3084 29.0833 L-49.4491 29.0833 L-54.1366 21.8958 L-54.1834 21.8958 Q-54.0897 23.1614 -54.0897 24.2083 L-54.0897 29.0833 L-55.0116 29.0833 L-55.0116 20.5208 L-53.8866 20.5208 L-49.2147 27.677 L-49.1678 27.677 Q-49.1678 27.5208 -49.2147 26.6614 Q-49.2616 25.802 -49.2459 25.427 L-49.2459 20.5208 L-48.3084 20.5208 L-48.3084 29.0833 Z"/><path style="fill:rgb(0,5,255); stroke:none;" d="M-56.0116 29.0833 L-57.0116 29.0833 L-57.0116 25.052 L-61.5272 25.052 L-61.5272 29.0833 L-62.5272 29.0833 L-62.5272 20.5208 L-61.5272 20.5208 L-61.5272 24.1614 L-57.0116 24.1614 L-57.0116 20.5208 L-56.0116 20.5208 L-56.0116 29.0833 Z"/><path style="fill:none;" d="M40.568 -11.581 L40.818 -11.148 L40.568 -10.715"/><path style="fill:none;" d="M25.318 -37.128 L25.818 -37.128 L26.068 -36.695"/></g></g></svg></svg></svg></svg>