<svg width="350" viewBox="0 0 350 171" style="fill-opacity:1; color-rendering:auto; color-interpolation:auto; text-rendering:auto; stroke:black; stroke-linecap:square; stroke-miterlimit:10; shape-rendering:auto; stroke-opacity:1; fill:black; stroke-dasharray:none; font-weight:normal; stroke-width:1; font-family:'Open Sans'; font-style:normal; stroke-linejoin:miter; font-size:12; stroke-dashoffset:0; image-rendering:auto;" height="171" class="cas-substance-image" xmlns:xlink="http://www.w3.org/1999/xlink" xmlns="http://www.w3.org/2000/svg"><svg class="cas-substance-single-component"><rect y="0" x="0" width="350" stroke="none" ry="7" rx="7" height="171" fill="white" class="cas-substance-group"/><svg y="0" x="0" width="350" viewBox="0 0 350 171" style="fill:black;" height="171" class="cas-substance-single-component-image"><svg><g><g transform="translate(175,85)" style="text-rendering:geometricPrecision; color-rendering:optimizeQuality; color-interpolation:linearRGB; stroke-linecap:butt; image-rendering:optimizeQuality;"><line y2="0" y1="-20.3443" x2="-4.413" x1="-16.1591" style="fill:none;"/><path style="stroke:none;" d="M-47.3817 -26.691 L-48.3817 -26.5871 L-48.3817 -26.5871 L-48.3817 -25.3729 L-48.3817 -25.3729 L-47.3817 -25.269 L-47.3817 -25.269 L-47.3817 -26.691 ZM-44.3817 -27.0027 L-45.3817 -26.8988 L-45.3817 -25.0612 L-44.3817 -24.9573 L-44.3817 -24.9573 L-44.3817 -27.0027 ZM-41.3817 -27.3144 L-42.3817 -27.2105 L-42.3817 -27.2105 L-42.3817 -24.7495 L-42.3817 -24.7495 L-41.3817 -24.6456 L-41.3817 -27.3144 ZM-38.3817 -27.6261 L-39.3817 -27.5222 L-39.3817 -27.5222 L-39.3817 -24.4378 L-39.3817 -24.4378 L-38.3817 -24.3339 L-38.3817 -24.3339 L-38.3817 -27.6261 ZM-35.3817 -27.9378 L-36.3817 -27.8339 L-36.3817 -27.8339 L-36.3817 -24.1261 L-36.3817 -24.1261 L-35.3817 -24.0222 L-35.3817 -24.0222 L-35.3817 -27.9378 ZM-32.3817 -28.2495 L-33.3817 -28.1456 L-33.3817 -23.8144 L-32.3817 -23.7105 L-32.3817 -23.7105 L-32.3817 -28.2495 ZM-29.3817 -28.5612 L-30.3817 -28.4573 L-30.3817 -28.4573 L-30.3817 -23.5027 L-30.3817 -23.5027 L-29.3817 -23.3988 L-29.3817 -23.3988 L-29.3817 -28.5612 ZM-26.3817 -28.8729 L-27.3817 -28.769 L-27.3817 -28.769 L-27.3817 -23.191 L-27.3817 -23.191 L-26.3817 -23.0871 L-26.3817 -23.0871 L-26.3817 -28.8729 Z"/><line y2="0" y1="0" x2="25.587" x1="-4.413" style="fill:none;"/><line y2="19.3833" y1="-1.75" x2="-17.625" x1="-5.4234" style="fill:none;"/><line y2="21.1333" y1="0" x2="-14.594" x1="-2.3923" style="fill:none;"/><line y2="25.98" y1="0" x2="40.587" x1="25.587" style="fill:none;"/><line y2="22.48" y1="-0.0001" x2="42.6077" x1="29.6285" style="fill:none;"/><line y2="25.98" y1="25.98" x2="70.587" x1="40.587" style="fill:none;"/><path style="stroke:none;" d="M-63.5691 0.3134 L-64.5638 0.8869 L-64.1562 1.8066 L-62.9763 1.1262 L-63.5691 0.3134 ZM-61.7907 2.7519 L-63.3412 3.646 L-62.9337 4.5657 L-62.9337 4.5657 L-61.1979 3.5648 L-61.1979 3.5648 L-61.7907 2.7519 ZM-60.0123 5.1905 L-62.1186 6.4051 L-61.7111 7.3248 L-59.4195 6.0034 L-60.0123 5.1905 ZM-58.2339 7.6291 L-60.896 9.1642 L-60.4885 10.0839 L-60.4885 10.0839 L-57.6411 8.4419 L-57.6411 8.4419 L-58.2339 7.6291 ZM-56.4555 10.0677 L-59.6734 11.9233 L-59.2659 12.843 L-55.8627 10.8805 L-56.4555 10.0677 ZM-54.6771 12.5062 L-58.4508 14.6824 L-58.4508 14.6824 L-58.0433 15.6021 L-54.0843 13.3191 L-54.6771 12.5062 ZM-52.8987 14.9448 L-57.2282 17.4415 L-56.8207 18.3612 L-56.8207 18.3612 L-52.3059 15.7577 L-52.3059 15.7577 L-52.8987 14.9448 ZM-51.1203 17.3834 L-56.0056 20.2006 L-55.5981 21.1203 L-55.5981 21.1203 L-50.5275 18.1962 L-50.5275 18.1962 L-51.1203 17.3834 Z"/><path style="stroke:none;" d="M-63.98 -51.713 L-64.846 -52.213 L-55.272 -73.7951 L-50.0759 -70.795 Z"/><line y2="-37.121" y1="-45.264" x2="-154.7701" x1="-132.396" style="fill:none;"/><line y2="-68.1829" y1="-44.96" x2="-126.5765" x1="-130.6726" style="fill:none;"/><line y2="-68.7908" y1="-44.5729" x2="-130.0233" x1="-134.2949" style="fill:none;"/><path style="stroke:none;" d="M-109.0916 -26.363 L-109.7344 -25.597 L-135.8223 -44.5491 L-129.3117 -46.9186 Z"/><path style="stroke:none;" d="M-110.4164 -25.9037 L-111.2505 -25.3419 L-110.3607 -24.2811 L-109.6626 -25.005 L-109.6626 -25.005 L-110.4164 -25.9037 ZM-112.9188 -24.2183 L-113.7529 -23.6565 L-113.7529 -23.6565 L-112.4552 -22.1094 L-112.4552 -22.1094 L-111.7571 -22.8333 L-112.9188 -24.2183 ZM-115.4212 -22.5329 L-116.2554 -21.9711 L-116.2554 -21.9711 L-114.5497 -19.9377 L-113.8516 -20.6616 L-113.8516 -20.6616 L-115.4212 -22.5329 ZM-117.9236 -20.8475 L-118.7578 -20.2857 L-116.6442 -17.766 L-115.9461 -18.4899 L-117.9236 -20.8475 ZM-120.426 -19.1621 L-121.2602 -18.6003 L-118.7387 -15.5944 L-118.0406 -16.3183 L-120.426 -19.1621 ZM-122.9285 -17.4767 L-123.7626 -16.9149 L-120.8333 -13.4227 L-120.1351 -14.1466 L-122.9285 -17.4767 ZM-125.4309 -15.7913 L-126.265 -15.2295 L-126.265 -15.2295 L-122.9278 -11.251 L-122.9278 -11.251 L-122.2296 -11.9749 L-125.4309 -15.7913 ZM-127.9333 -14.1059 L-128.7674 -13.5441 L-125.0223 -9.0793 L-125.0223 -9.0793 L-124.3241 -9.8032 L-127.9333 -14.1059 Z"/><line y2="51.963" y1="72.2154" x2="115.587" x1="127.2801" style="fill:none;"/><line y2="25.98" y1="25.98" x2="130.587" x1="154.6495" style="fill:none;"/><line y2="0" y1="-25.98" x2="-64.413" x1="-49.413" style="fill:none;"/><line y2="-51.963" y1="-25.98" x2="-64.413" x1="-49.413" style="fill:none;"/><line y2="0" y1="0" x2="-94.413" x1="-64.413" style="fill:none;"/><line y2="-51.96" y1="-51.963" x2="-94.413" x1="-64.413" style="fill:none;"/><line y2="-25.98" y1="0" x2="-109.413" x1="-94.413" style="fill:none;"/><line y2="-25.98" y1="-51.96" x2="-109.413" x1="-94.413" style="fill:none;"/><line y2="51.963" y1="25.98" x2="85.587" x1="70.587" style="fill:none;"/><line y2="48.4631" y1="25.9802" x2="87.6078" x1="74.6284" style="fill:none;"/><line y2="0" y1="25.98" x2="85.587" x1="70.587" style="fill:none;"/><line y2="51.963" y1="51.963" x2="115.587" x1="85.587" style="fill:none;"/><line y2="0" y1="0" x2="115.587" x1="85.587" style="fill:none;"/><line y2="3.5" y1="3.5" x2="113.5663" x1="87.6077" style="fill:none;"/><line y2="25.98" y1="51.963" x2="130.587" x1="115.587" style="fill:none;"/><line y2="25.9802" y1="48.4631" x2="126.5456" x1="113.5661" style="fill:none;"/><line y2="25.98" y1="0" x2="130.587" x1="115.587" style="fill:none;"/></g><g transform="translate(175,85)" style="fill:rgb(230,0,0); text-rendering:geometricPrecision; color-rendering:optimizeQuality; image-rendering:optimizeQuality; font-family:'Open Sans'; stroke:rgb(230,0,0); color-interpolation:linearRGB;"><path style="stroke:none;" d="M-15.4755 -26.0503 Q-15.4755 -23.9878 -16.5146 -22.8081 Q-17.5536 -21.6284 -19.3974 -21.6284 Q-21.288 -21.6284 -22.3192 -22.7925 Q-23.3505 -23.9566 -23.3505 -26.0659 Q-23.3505 -28.1597 -22.3192 -29.3081 Q-21.288 -30.4566 -19.3974 -30.4566 Q-17.538 -30.4566 -16.5067 -29.2847 Q-15.4755 -28.1128 -15.4755 -26.0503 ZM-22.3036 -26.0503 Q-22.3036 -24.3159 -21.5614 -23.4097 Q-20.8192 -22.5034 -19.3974 -22.5034 Q-17.9755 -22.5034 -17.2489 -23.4019 Q-16.5224 -24.3003 -16.5224 -26.0503 Q-16.5224 -27.7847 -17.2489 -28.6753 Q-17.9755 -29.5659 -19.3974 -29.5659 Q-20.8192 -29.5659 -21.5614 -28.6675 Q-22.3036 -27.7691 -22.3036 -26.0503 Z"/></g><g transform="translate(175,85)" style="stroke-linecap:butt; text-rendering:geometricPrecision; color-rendering:optimizeQuality; image-rendering:optimizeQuality; font-family:'Open Sans'; color-interpolation:linearRGB; stroke-miterlimit:5;"><path style="fill:none;" d="M-4.663 -0.433 L-4.413 0 L-3.913 0"/><path style="fill:none;" d="M25.087 -0 L25.587 0 L25.837 0.433"/><path style="fill:rgb(230,0,0); stroke:none;" d="M-15.4755 25.9097 Q-15.4755 27.9722 -16.5146 29.1519 Q-17.5536 30.3316 -19.3974 30.3316 Q-21.288 30.3316 -22.3192 29.1675 Q-23.3505 28.0034 -23.3505 25.8941 Q-23.3505 23.8003 -22.3192 22.6519 Q-21.288 21.5034 -19.3974 21.5034 Q-17.538 21.5034 -16.5067 22.6753 Q-15.4755 23.8472 -15.4755 25.9097 ZM-22.3036 25.9097 Q-22.3036 27.6441 -21.5614 28.5503 Q-20.8192 29.4566 -19.3974 29.4566 Q-17.9755 29.4566 -17.2489 28.5581 Q-16.5224 27.6597 -16.5224 25.9097 Q-16.5224 24.1753 -17.2489 23.2847 Q-17.9755 22.3941 -19.3974 22.3941 Q-20.8192 22.3941 -21.5614 23.2925 Q-22.3036 24.1909 -22.3036 25.9097 Z"/><path style="fill:none;" d="M40.337 25.547 L40.587 25.98 L41.087 25.98"/><path style="fill:rgb(230,0,0); stroke:none;" d="M-45.4755 25.9097 Q-45.4755 27.9722 -46.5146 29.1519 Q-47.5536 30.3316 -49.3974 30.3316 Q-51.288 30.3316 -52.3192 29.1675 Q-53.3505 28.0034 -53.3505 25.8941 Q-53.3505 23.8003 -52.3192 22.6519 Q-51.288 21.5034 -49.3974 21.5034 Q-47.538 21.5034 -46.5067 22.6753 Q-45.4755 23.8472 -45.4755 25.9097 ZM-52.3036 25.9097 Q-52.3036 27.6441 -51.5614 28.5503 Q-50.8192 29.4566 -49.3974 29.4566 Q-47.9755 29.4566 -47.2489 28.5581 Q-46.5224 27.6597 -46.5224 25.9097 Q-46.5224 24.1753 -47.2489 23.2847 Q-47.9755 22.3941 -49.3974 22.3941 Q-50.8192 22.3941 -51.5614 23.2925 Q-52.3036 24.1909 -52.3036 25.9097 Z"/><path style="fill:rgb(230,0,0); stroke:none;" d="M-37.9599 30.2066 L-38.9599 30.2066 L-38.9599 26.1753 L-43.4755 26.1753 L-43.4755 30.2066 L-44.4755 30.2066 L-44.4755 21.6441 L-43.4755 21.6441 L-43.4755 25.2847 L-38.9599 25.2847 L-38.9599 21.6441 L-37.9599 21.6441 L-37.9599 30.2066 Z"/><path style="fill:rgb(230,0,0); stroke:none;" d="M-45.4755 -78.0133 Q-45.4755 -75.9508 -46.5146 -74.7711 Q-47.5536 -73.5914 -49.3974 -73.5914 Q-51.288 -73.5914 -52.3192 -74.7555 Q-53.3505 -75.9196 -53.3505 -78.0289 Q-53.3505 -80.1227 -52.3192 -81.2711 Q-51.288 -82.4196 -49.3974 -82.4196 Q-47.538 -82.4196 -46.5067 -81.2477 Q-45.4755 -80.0758 -45.4755 -78.0133 ZM-52.3036 -78.0133 Q-52.3036 -76.2789 -51.5614 -75.3727 Q-50.8192 -74.4664 -49.3974 -74.4664 Q-47.9755 -74.4664 -47.2489 -75.3649 Q-46.5224 -76.2633 -46.5224 -78.0133 Q-46.5224 -79.7477 -47.2489 -80.6383 Q-47.9755 -81.5289 -49.3974 -81.5289 Q-50.8192 -81.5289 -51.5614 -80.6305 Q-52.3036 -79.7321 -52.3036 -78.0133 Z"/><path style="fill:rgb(230,0,0); stroke:none;" d="M-37.9599 -73.7164 L-38.9599 -73.7164 L-38.9599 -77.7477 L-43.4755 -77.7477 L-43.4755 -73.7164 L-44.4755 -73.7164 L-44.4755 -82.2789 L-43.4755 -82.2789 L-43.4755 -78.6383 L-38.9599 -78.6383 L-38.9599 -82.2789 L-37.9599 -82.2789 L-37.9599 -73.7164 Z"/><path style="fill:rgb(230,0,0); stroke:none;" d="M-156.6495 -35.0743 Q-156.6495 -33.0118 -157.6886 -31.8321 Q-158.7276 -30.6524 -160.5714 -30.6524 Q-162.462 -30.6524 -163.4933 -31.8165 Q-164.5245 -32.9806 -164.5245 -35.0899 Q-164.5245 -37.1837 -163.4933 -38.3321 Q-162.462 -39.4806 -160.5714 -39.4806 Q-158.712 -39.4806 -157.6808 -38.3087 Q-156.6495 -37.1368 -156.6495 -35.0743 ZM-163.4776 -35.0743 Q-163.4776 -33.3399 -162.7354 -32.4337 Q-161.9933 -31.5274 -160.5714 -31.5274 Q-159.1495 -31.5274 -158.4229 -32.4259 Q-157.6964 -33.3243 -157.6964 -35.0743 Q-157.6964 -36.8087 -158.4229 -37.6993 Q-159.1495 -38.5899 -160.5714 -38.5899 Q-161.9933 -38.5899 -162.7354 -37.6915 Q-163.4776 -36.7931 -163.4776 -35.0743 Z"/><path style="fill:rgb(230,0,0); stroke:none;" d="M-165.5245 -30.7774 L-166.5245 -30.7774 L-166.5245 -34.8087 L-171.0401 -34.8087 L-171.0401 -30.7774 L-172.0401 -30.7774 L-172.0401 -39.3399 L-171.0401 -39.3399 L-171.0401 -35.6993 L-166.5245 -35.6993 L-166.5245 -39.3399 L-165.5245 -39.3399 L-165.5245 -30.7774 Z"/><path style="fill:rgb(230,0,0); stroke:none;" d="M-123.2475 -74.8783 Q-123.2475 -72.8158 -124.2866 -71.6361 Q-125.3256 -70.4564 -127.1694 -70.4564 Q-129.06 -70.4564 -130.0912 -71.6205 Q-131.1225 -72.7846 -131.1225 -74.8939 Q-131.1225 -76.9877 -130.0912 -78.1361 Q-129.06 -79.2846 -127.1694 -79.2846 Q-125.31 -79.2846 -124.2787 -78.1127 Q-123.2475 -76.9408 -123.2475 -74.8783 ZM-130.0756 -74.8783 Q-130.0756 -73.1439 -129.3334 -72.2377 Q-128.5912 -71.3314 -127.1694 -71.3314 Q-125.7475 -71.3314 -125.0209 -72.2299 Q-124.2944 -73.1283 -124.2944 -74.8783 Q-124.2944 -76.6127 -125.0209 -77.5033 Q-125.7475 -78.3939 -127.1694 -78.3939 Q-128.5912 -78.3939 -129.3334 -77.4955 Q-130.0756 -76.5971 -130.0756 -74.8783 Z"/><path style="fill:rgb(230,0,0); stroke:none;" d="M-128.4585 -6.7663 Q-128.4585 -4.7038 -129.4976 -3.5241 Q-130.5366 -2.3444 -132.3804 -2.3444 Q-134.271 -2.3444 -135.3022 -3.5085 Q-136.3335 -4.6726 -136.3335 -6.7819 Q-136.3335 -8.8757 -135.3022 -10.0241 Q-134.271 -11.1726 -132.3804 -11.1726 Q-130.521 -11.1726 -129.4897 -10.0007 Q-128.4585 -8.8288 -128.4585 -6.7663 ZM-135.2866 -6.7663 Q-135.2866 -5.0319 -134.5444 -4.1257 Q-133.8022 -3.2194 -132.3804 -3.2194 Q-130.9585 -3.2194 -130.2319 -4.1179 Q-129.5054 -5.0163 -129.5054 -6.7663 Q-129.5054 -8.5007 -130.2319 -9.3913 Q-130.9585 -10.2819 -132.3804 -10.2819 Q-133.8022 -10.2819 -134.5444 -9.3835 Q-135.2866 -8.4851 -135.2866 -6.7663 Z"/><path style="fill:rgb(230,0,0); stroke:none;" d="M-137.3335 -2.4694 L-138.3335 -2.4694 L-138.3335 -6.5007 L-142.8491 -6.5007 L-142.8491 -2.4694 L-143.8491 -2.4694 L-143.8491 -11.0319 L-142.8491 -11.0319 L-142.8491 -7.3913 L-138.3335 -7.3913 L-138.3335 -11.0319 L-137.3335 -11.0319 L-137.3335 -2.4694 Z"/><path style="fill:rgb(230,0,0); stroke:none;" d="M134.5245 77.8727 Q134.5245 79.9352 133.4854 81.1149 Q132.4464 82.2946 130.6026 82.2946 Q128.712 82.2946 127.6808 81.1305 Q126.6495 79.9664 126.6495 77.8571 Q126.6495 75.7633 127.6808 74.6149 Q128.712 73.4664 130.6026 73.4664 Q132.462 73.4664 133.4933 74.6383 Q134.5245 75.8102 134.5245 77.8727 ZM127.6964 77.8727 Q127.6964 79.6071 128.4386 80.5133 Q129.1808 81.4196 130.6026 81.4196 Q132.0245 81.4196 132.7511 80.5211 Q133.4776 79.6227 133.4776 77.8727 Q133.4776 76.1383 132.7511 75.2477 Q132.0245 74.3571 130.6026 74.3571 Q129.1808 74.3571 128.4386 75.2555 Q127.6964 76.1539 127.6964 77.8727 Z"/><path style="fill:rgb(230,0,0); stroke:none;" d="M142.0401 82.1696 L141.0401 82.1696 L141.0401 78.1383 L136.5245 78.1383 L136.5245 82.1696 L135.5245 82.1696 L135.5245 73.6071 L136.5245 73.6071 L136.5245 77.2477 L141.0401 77.2477 L141.0401 73.6071 L142.0401 73.6071 L142.0401 82.1696 Z"/><path style="fill:rgb(230,0,0); stroke:none;" d="M164.5245 25.9097 Q164.5245 27.9722 163.4854 29.1519 Q162.4464 30.3316 160.6026 30.3316 Q158.712 30.3316 157.6808 29.1675 Q156.6495 28.0034 156.6495 25.8941 Q156.6495 23.8003 157.6808 22.6519 Q158.712 21.5034 160.6026 21.5034 Q162.462 21.5034 163.4933 22.6753 Q164.5245 23.8472 164.5245 25.9097 ZM157.6964 25.9097 Q157.6964 27.6441 158.4386 28.5503 Q159.1808 29.4566 160.6026 29.4566 Q162.0245 29.4566 162.7511 28.5581 Q163.4776 27.6597 163.4776 25.9097 Q163.4776 24.1753 162.7511 23.2847 Q162.0245 22.3941 160.6026 22.3941 Q159.1808 22.3941 158.4386 23.2925 Q157.6964 24.1909 157.6964 25.9097 Z"/><path style="fill:rgb(230,0,0); stroke:none;" d="M172.0401 30.2066 L171.0401 30.2066 L171.0401 26.1753 L166.5245 26.1753 L166.5245 30.2066 L165.5245 30.2066 L165.5245 21.6441 L166.5245 21.6441 L166.5245 25.2847 L171.0401 25.2847 L171.0401 21.6441 L172.0401 21.6441 L172.0401 30.2066 Z"/><path style="fill:none;" d="M-49.663 -25.547 L-49.413 -25.98 L-49.663 -26.413"/><path style="fill:none;" d="M-64.163 -0.433 L-64.413 0 L-64.913 -0"/></g><g transform="translate(175,85)" style="stroke-linecap:butt; font-size:8.4px; fill:gray; text-rendering:geometricPrecision; image-rendering:optimizeQuality; color-rendering:optimizeQuality; font-family:'Open Sans'; font-style:italic; stroke:gray; color-interpolation:linearRGB; stroke-miterlimit:5;"><path style="stroke:none;" d="M-73.8014 -7.4963 Q-73.8014 -8.8244 -73.3327 -9.9494 Q-72.8639 -11.0744 -71.8327 -12.1526 L-71.2233 -12.1526 Q-72.192 -11.0901 -72.6764 -9.9182 Q-73.1608 -8.7463 -73.1608 -7.5119 Q-73.1608 -6.1838 -72.7233 -5.1682 L-73.2389 -5.1682 Q-73.8014 -6.1994 -73.8014 -7.4963 ZM-70.2414 -8.8088 L-70.7414 -6.4338 L-71.3976 -6.4338 L-70.1945 -12.1526 L-68.9445 -12.1526 Q-67.2101 -12.1526 -67.2101 -10.7151 Q-67.2101 -9.3557 -68.6476 -8.9651 L-67.7101 -6.4338 L-68.4289 -6.4338 L-69.257 -8.8088 L-70.2414 -8.8088 ZM-69.6632 -11.5588 Q-70.0539 -9.6369 -70.1164 -9.3869 L-69.4601 -9.3869 Q-68.7101 -9.3869 -68.3039 -9.7151 Q-67.8976 -10.0432 -67.8976 -10.6682 Q-67.8976 -11.1369 -68.1554 -11.3479 Q-68.4132 -11.5588 -69.007 -11.5588 L-69.6632 -11.5588 ZM-65.0241 -9.8088 Q-65.0241 -8.4807 -65.5007 -7.3479 Q-65.9773 -6.2151 -66.9929 -5.1682 L-67.6023 -5.1682 Q-65.6648 -7.3244 -65.6648 -9.8088 Q-65.6648 -11.1369 -66.1023 -12.1526 L-65.5866 -12.1526 Q-65.0241 -11.0901 -65.0241 -9.8088 Z"/><path style="stroke:none;" d="M-73.8016 -59.4592 Q-73.8016 -60.7873 -73.3329 -61.9123 Q-72.8641 -63.0373 -71.8329 -64.1154 L-71.2235 -64.1154 Q-72.1923 -63.0529 -72.6766 -61.8811 Q-73.161 -60.7092 -73.161 -59.4748 Q-73.161 -58.1467 -72.7235 -57.1311 L-73.2391 -57.1311 Q-73.8016 -58.1623 -73.8016 -59.4592 ZM-70.2416 -60.7717 L-70.7416 -58.3967 L-71.3978 -58.3967 L-70.1947 -64.1154 L-68.9447 -64.1154 Q-67.2103 -64.1154 -67.2103 -62.6779 Q-67.2103 -61.3186 -68.6478 -60.9279 L-67.7103 -58.3967 L-68.4291 -58.3967 L-69.2572 -60.7717 L-70.2416 -60.7717 ZM-69.6635 -63.5217 Q-70.0541 -61.5998 -70.1166 -61.3498 L-69.4603 -61.3498 Q-68.7103 -61.3498 -68.3041 -61.6779 Q-67.8978 -62.0061 -67.8978 -62.6311 Q-67.8978 -63.0998 -68.1556 -63.3108 Q-68.4135 -63.5217 -69.0072 -63.5217 L-69.6635 -63.5217 ZM-65.0244 -61.7717 Q-65.0244 -60.4436 -65.5009 -59.3108 Q-65.9775 -58.1779 -66.9931 -57.1311 L-67.6025 -57.1311 Q-65.665 -59.2873 -65.665 -61.7717 Q-65.665 -63.0998 -66.1025 -64.1154 L-65.5869 -64.1154 Q-65.0244 -63.0529 -65.0244 -61.7717 Z"/><path style="fill:none; stroke:black;" d="M-93.913 0 L-94.413 0 L-94.663 -0.433"/><path style="fill:none; stroke:black;" d="M-93.913 -51.96 L-94.413 -51.96 L-94.663 -51.527"/><path style="fill:none; stroke:black;" d="M70.837 26.413 L70.587 25.98 L70.087 25.98"/><path style="fill:none; stroke:black;" d="M85.337 51.53 L85.587 51.963 L86.087 51.963"/><path style="fill:none; stroke:black;" d="M85.337 0.433 L85.587 0 L86.087 0"/><path style="fill:none; stroke:black;" d="M115.837 51.53 L115.587 51.963 L115.837 52.396"/><path style="fill:none; stroke:black;" d="M115.087 -0 L115.587 0 L115.837 0.433"/><path style="fill:none; stroke:black;" d="M130.337 26.413 L130.587 25.98 L131.087 25.98"/></g></g></svg></svg></svg></svg>