<svg xmlns:ns0="http://www.w3.org/2000/svg" xmlns="http://www.w3.org/2000/svg"><g transform="translate(0, 0)"><ns0:svg width="161" viewBox="0 0 161 84" style="fill-opacity:1; color-rendering:auto; color-interpolation:auto; text-rendering:auto; stroke:black; stroke-linecap:square; stroke-miterlimit:10; shape-rendering:auto; stroke-opacity:1; fill:black; stroke-dasharray:none; font-weight:normal; stroke-width:1; font-family:'Open Sans'; font-style:normal; stroke-linejoin:miter; font-size:12; stroke-dashoffset:0; image-rendering:auto;" height="84" class="cas-substance-image"><ns0:svg class="cas-substance-single-component"><ns0:rect y="0" x="0" width="161" stroke="none" ry="7" rx="7" height="84" fill="white" class="cas-substance-group" /><ns0:svg y="0" x="0" width="161" viewBox="0 0 161 84" style="fill:black;" height="84" class="cas-substance-single-component-image"><ns0:svg><ns0:g><ns0:g transform="translate(82,42)" style="text-rendering:geometricPrecision; color-rendering:optimizeQuality; color-interpolation:linearRGB; stroke-linecap:butt; image-rendering:optimizeQuality;"><ns0:line y2="-2.736" y1="12.264" x2="23.739" x1="-2.241" style="fill:none;" /><ns0:line y2="0.1991" y1="12.264" x2="-23.1374" x1="-2.241" style="fill:none;" /><ns0:line y2="12.264" y1="-2.736" x2="49.722" x1="23.739" style="fill:none;" /><ns0:line y2="-2.736" y1="12.264" x2="75.702" x1="49.722" style="fill:none;" /><ns0:line y2="9.465" y1="38.811" x2="-55.629" x1="-61.866" style="fill:none;" /><ns0:line y2="9.465" y1="-0.4306" x2="-55.629" x1="-33.3997" style="fill:none;" /><ns0:line y2="-32.571" y1="-9.1313" x2="-31.356" x1="-28.893" style="fill:none;" /><ns0:line y2="-7.6195" y1="9.465" x2="-71.0122" x1="-55.629" style="fill:none;" /><ns0:line y2="-9.9615" y1="5.6213" x2="-68.4112" x1="-54.3801" style="fill:none;" /><ns0:line y2="-38.811" y1="-32.571" x2="-60.702" x1="-31.356" style="fill:none;" /><ns0:line y2="-34.9673" y1="-29.5678" x2="-59.4534" x1="-34.0605" style="fill:none;" /><ns0:line y2="-38.811" y1="-18.9663" x2="-60.702" x1="-72.1583" style="fill:none;" /><ns0:path style="fill:none; stroke-miterlimit:5;" d="M-1.808 12.014 L-2.241 12.264 L-2.674 12.014" /><ns0:path style="fill:none; stroke-miterlimit:5;" d="M23.306 -2.486 L23.739 -2.736 L24.172 -2.486" /><ns0:path style="fill:none; stroke-miterlimit:5;" d="M49.289 12.014 L49.722 12.264 L50.155 12.014" /></ns0:g><ns0:g transform="translate(82,42)" style="stroke-linecap:butt; fill:rgb(0,5,255); text-rendering:geometricPrecision; color-rendering:optimizeQuality; image-rendering:optimizeQuality; font-family:'Open Sans'; stroke:rgb(0,5,255); color-interpolation:linearRGB; stroke-miterlimit:5;"><ns0:path style="stroke:none;" d="M-24.8694 1.4202 L-26.0101 1.4202 L-30.6976 -5.7673 L-30.7444 -5.7673 Q-30.6507 -4.5016 -30.6507 -3.4548 L-30.6507 1.4202 L-31.5726 1.4202 L-31.5726 -7.1423 L-30.4476 -7.1423 L-25.7757 0.014 L-25.7288 0.014 Q-25.7288 -0.1423 -25.7757 -1.0016 Q-25.8226 -1.861 -25.8069 -2.236 L-25.8069 -7.1423 L-24.8694 -7.1423 L-24.8694 1.4202 Z" /><ns0:path style="fill:none; stroke:black;" d="M-55.9636 9.0934 L-55.629 9.465 L-55.7329 9.9541" /><ns0:path style="fill:none; stroke:black;" d="M-31.3037 -32.0737 L-31.356 -32.571 L-31.8451 -32.675" /><ns0:path style="stroke:none;" d="M-72.3504 -8.6718 L-73.4911 -8.6718 L-78.1786 -15.8593 L-78.2254 -15.8593 Q-78.1317 -14.5936 -78.1317 -13.5468 L-78.1317 -8.6718 L-79.0536 -8.6718 L-79.0536 -17.2342 L-77.9286 -17.2342 L-73.2567 -10.078 L-73.2098 -10.078 Q-73.2098 -10.2343 -73.2567 -11.0936 Q-73.3036 -11.953 -73.2879 -12.328 L-73.2879 -17.2342 L-72.3504 -17.2342 L-72.3504 -8.6718 Z" /><ns0:path style="fill:none; stroke:black;" d="M-60.2129 -38.707 L-60.702 -38.811 L-60.952 -38.378" /></ns0:g></ns0:g></ns0:svg></ns0:svg></ns0:svg></ns0:svg></g></svg>