<svg width="226" viewBox="0 0 226 72" style="fill-opacity:1; color-rendering:auto; color-interpolation:auto; text-rendering:auto; stroke:black; stroke-linecap:square; stroke-miterlimit:10; shape-rendering:auto; stroke-opacity:1; fill:black; stroke-dasharray:none; font-weight:normal; stroke-width:1; font-family:'Open Sans'; font-style:normal; stroke-linejoin:miter; font-size:12; stroke-dashoffset:0; image-rendering:auto;" height="72" class="cas-substance-image" xmlns:xlink="http://www.w3.org/1999/xlink" xmlns="http://www.w3.org/2000/svg"><svg class="cas-substance-single-component"><rect y="0" x="0" width="226" stroke="none" ry="7" rx="7" height="72" fill="white" class="cas-substance-group"/><svg y="0" x="0" width="226" viewBox="0 0 226 72" style="fill:black;" height="72" class="cas-substance-single-component-image"><svg><g><g transform="translate(107,38)" style="text-rendering:geometricPrecision; color-rendering:optimizeQuality; color-interpolation:linearRGB; stroke-linecap:butt; image-rendering:optimizeQuality;"><path style="fill:none;" d="M24.0522 -17.3399 L20.5881 -15.3398 L10.5879 -32.6602 L14.052 -34.6602 M89.871 -34.6602 L93.3351 -32.6602 L83.3349 -15.3398 L79.8708 -17.3399"/><path style="stroke:none;" d="M102.757 -26.6602 L102.757 -30.8164 Q102.757 -31.5977 102.4054 -31.9883 Q102.0539 -32.3789 101.2882 -32.3789 Q100.2726 -32.3789 99.8039 -31.8321 Q99.3351 -31.2852 99.3351 -30.0352 L99.3351 -26.6602 L98.3664 -26.6602 L98.3664 -33.0821 L99.1632 -33.0821 L99.3195 -32.2071 L99.3664 -32.2071 Q99.6632 -32.6758 100.2023 -32.9414 Q100.7414 -33.2071 101.3976 -33.2071 Q102.5695 -33.2071 103.1554 -32.6446 Q103.7414 -32.0821 103.7414 -30.8477 L103.7414 -26.6602 L102.757 -26.6602 Z"/><line y2="-15" y1="-26.8216" x2="51.963" x1="31.4856" style="fill:none;"/><line y2="-15" y1="-26.8112" x2="0" x1="20.457" style="fill:none;"/><line y2="-30" y1="-15" x2="77.943" x1="51.963" style="fill:none;"/><line y2="-18.2414" y1="-30" x2="98.3089" x1="77.943" style="fill:none;"/><line y2="15" y1="-15" x2="-51.963" x1="-51.963" style="fill:none;"/><line y2="12.9793" y1="-12.9793" x2="-48.463" x1="-48.463" style="fill:none;"/><line y2="-30" y1="-15" x2="-25.98" x1="-51.963" style="fill:none;"/><line y2="-30" y1="-15" x2="-77.943" x1="-51.963" style="fill:none;"/><line y2="30" y1="15" x2="-25.98" x1="-51.963" style="fill:none;"/><line y2="30" y1="15" x2="-77.943" x1="-51.963" style="fill:none;"/><line y2="-15" y1="-30" x2="0" x1="-25.98" style="fill:none;"/><line y2="-12.9793" y1="-25.9585" x2="-3.5" x1="-25.9801" style="fill:none;"/><line y2="-15" y1="-30" x2="-103.923" x1="-77.943" style="fill:none;"/><line y2="-12.9793" y1="-25.9585" x2="-100.423" x1="-77.9429" style="fill:none;"/><line y2="15" y1="30" x2="0" x1="-25.98" style="fill:none;"/><line y2="12.9793" y1="25.9585" x2="-3.5" x1="-25.9801" style="fill:none;"/><line y2="15" y1="30" x2="-103.923" x1="-77.943" style="fill:none;"/><line y2="12.9793" y1="25.9585" x2="-100.423" x1="-77.9429" style="fill:none;"/><line y2="15" y1="-15" x2="0" x1="0" style="fill:none;"/><line y2="15" y1="-15" x2="-103.923" x1="-103.923" style="fill:none;"/><path style="fill:rgb(230,0,0); stroke:none;" d="M29.9175 -30.0703 Q29.9175 -28.0078 28.8784 -26.8281 Q27.8394 -25.6484 25.9956 -25.6484 Q24.105 -25.6484 23.0737 -26.8125 Q22.0425 -27.9766 22.0425 -30.0859 Q22.0425 -32.1797 23.0737 -33.3281 Q24.105 -34.4766 25.9956 -34.4766 Q27.855 -34.4766 28.8862 -33.3047 Q29.9175 -32.1328 29.9175 -30.0703 ZM23.0894 -30.0703 Q23.0894 -28.3359 23.8316 -27.4297 Q24.5737 -26.5234 25.9956 -26.5234 Q27.4175 -26.5234 28.1441 -27.4219 Q28.8706 -28.3203 28.8706 -30.0703 Q28.8706 -31.8047 28.1441 -32.6953 Q27.4175 -33.5859 25.9956 -33.5859 Q24.5737 -33.5859 23.8316 -32.6875 Q23.0894 -31.7891 23.0894 -30.0703 Z"/><path style="fill:none; stroke-miterlimit:5;" d="M51.53 -15.25 L51.963 -15 L52.396 -15.25"/><path style="fill:none; stroke-miterlimit:5;" d="M77.51 -29.75 L77.943 -30 L78.376 -29.75"/></g><g transform="translate(107,38)" style="stroke-linecap:butt; fill:rgb(230,0,0); text-rendering:geometricPrecision; color-rendering:optimizeQuality; image-rendering:optimizeQuality; font-family:'Open Sans'; stroke:rgb(230,0,0); color-interpolation:linearRGB; stroke-miterlimit:5;"><path style="stroke:none;" d="M107.8605 -15.0703 Q107.8605 -13.0078 106.8214 -11.8281 Q105.7824 -10.6484 103.9386 -10.6484 Q102.048 -10.6484 101.0167 -11.8125 Q99.9855 -12.9766 99.9855 -15.0859 Q99.9855 -17.1797 101.0167 -18.3281 Q102.048 -19.4766 103.9386 -19.4766 Q105.798 -19.4766 106.8292 -18.3047 Q107.8605 -17.1328 107.8605 -15.0703 ZM101.0324 -15.0703 Q101.0324 -13.3359 101.7746 -12.4297 Q102.5167 -11.5234 103.9386 -11.5234 Q105.3605 -11.5234 106.0871 -12.4219 Q106.8136 -13.3203 106.8136 -15.0703 Q106.8136 -16.8047 106.0871 -17.6953 Q105.3605 -18.5859 103.9386 -18.5859 Q102.5167 -18.5859 101.7746 -17.6875 Q101.0324 -16.7891 101.0324 -15.0703 Z"/><path style="stroke:none;" d="M115.3761 -10.7734 L114.3761 -10.7734 L114.3761 -14.8047 L109.8605 -14.8047 L109.8605 -10.7734 L108.8605 -10.7734 L108.8605 -19.3359 L109.8605 -19.3359 L109.8605 -15.6953 L114.3761 -15.6953 L114.3761 -19.3359 L115.3761 -19.3359 L115.3761 -10.7734 Z"/><path style="fill:none; stroke:black;" d="M-51.963 -14.5 L-51.963 -15 L-51.53 -15.25"/><path style="fill:none; stroke:black;" d="M-51.963 14.5 L-51.963 15 L-51.53 15.25"/><path style="fill:none; stroke:black;" d="M-26.413 -29.75 L-25.98 -30 L-25.547 -29.75"/><path style="fill:none; stroke:black;" d="M-77.51 -29.75 L-77.943 -30 L-78.376 -29.75"/><path style="fill:none; stroke:black;" d="M-26.413 29.75 L-25.98 30 L-25.547 29.75"/><path style="fill:none; stroke:black;" d="M-77.51 29.75 L-77.943 30 L-78.376 29.75"/><path style="fill:none; stroke:black;" d="M-0.433 -15.25 L0 -15 L0.433 -15.25"/><path style="fill:none; stroke:black;" d="M-103.49 -15.25 L-103.923 -15 L-103.923 -14.5"/><path style="fill:none; stroke:black;" d="M-0.433 15.25 L0 15 L0 14.5"/><path style="fill:none; stroke:black;" d="M-103.49 15.25 L-103.923 15 L-103.923 14.5"/></g></g></svg></svg></svg></svg>