<svg width="141" viewBox="0 0 141 115" style="fill-opacity:1; color-rendering:auto; color-interpolation:auto; text-rendering:auto; stroke:black; stroke-linecap:square; stroke-miterlimit:10; shape-rendering:auto; stroke-opacity:1; fill:black; stroke-dasharray:none; font-weight:normal; stroke-width:1; font-family:'Open Sans'; font-style:normal; stroke-linejoin:miter; font-size:12; stroke-dashoffset:0; image-rendering:auto;" height="115" class="cas-substance-image" xmlns:xlink="http://www.w3.org/1999/xlink" xmlns="http://www.w3.org/2000/svg"><svg class="cas-substance-single-component"><rect y="0" x="0" width="141" stroke="none" ry="7" rx="7" height="115" fill="white" class="cas-substance-group"/><svg y="0" x="0" width="141" viewBox="0 0 141 115" style="fill:black;" height="115" class="cas-substance-single-component-image"><svg><g><g transform="translate(71,55)" style="text-rendering:geometricPrecision; color-rendering:optimizeQuality; color-interpolation:linearRGB; stroke-linecap:butt; image-rendering:optimizeQuality;"><line y2="0" y1="0" x2="22.5" x1="-2.1484" style="fill:none;"/><line y2="-25.98" y1="-6.1383" x2="-22.5" x1="-11.044" style="fill:none;"/><line y2="19.8417" y1="5.8883" x2="-18.956" x1="-10.8997" style="fill:none;"/><line y2="-25.98" y1="0" x2="37.5" x1="22.5" style="fill:none;"/><line y2="-25.98" y1="-25.98" x2="-52.5" x1="-22.5" style="fill:none;"/><line y2="47.1101" y1="32.7433" x2="-12.3223" x1="-20.6162" style="fill:none;"/><line y2="45.3602" y1="30.9934" x2="-9.2911" x1="-17.5851" style="fill:none;"/><line y2="-25.98" y1="-25.98" x2="67.5" x1="37.5" style="fill:none;"/><line y2="-51.963" y1="-25.98" x2="22.5" x1="37.5" style="fill:none;"/><line y2="-51.963" y1="-25.98" x2="-67.5" x1="-52.5" style="fill:none;"/><line y2="0" y1="-25.98" x2="-67.5" x1="-52.5" style="fill:none;"/></g><g transform="translate(71,55)" style="fill:rgb(0,5,255); text-rendering:geometricPrecision; color-rendering:optimizeQuality; image-rendering:optimizeQuality; font-family:'Open Sans'; stroke:rgb(0,5,255); color-interpolation:linearRGB;"><path style="stroke:none;" d="M-4.1484 4.1562 L-5.2891 4.1562 L-9.9766 -3.0312 L-10.0234 -3.0312 Q-9.9297 -1.7656 -9.9297 -0.7188 L-9.9297 4.1562 L-10.8516 4.1562 L-10.8516 -4.4062 L-9.7266 -4.4062 L-5.0547 2.75 L-5.0078 2.75 Q-5.0078 2.5938 -5.0547 1.7344 Q-5.1016 0.875 -5.0859 0.5 L-5.0859 -4.4062 L-4.1484 -4.4062 L-4.1484 4.1562 Z"/></g><g transform="translate(71,55)" style="stroke-linecap:butt; text-rendering:geometricPrecision; color-rendering:optimizeQuality; image-rendering:optimizeQuality; font-family:'Open Sans'; color-interpolation:linearRGB; stroke-miterlimit:5;"><path style="fill:none;" d="M22 -0 L22.5 0 L22.75 -0.433"/><path style="fill:none;" d="M-22.25 -25.547 L-22.5 -25.98 L-23 -25.98"/><path style="fill:rgb(0,5,255); stroke:none;" d="M-19.1484 30.1362 L-20.2891 30.1362 L-24.9766 22.9487 L-25.0234 22.9487 Q-24.9297 24.2144 -24.9297 25.2612 L-24.9297 30.1362 L-25.8516 30.1362 L-25.8516 21.5737 L-24.7266 21.5737 L-20.0547 28.73 L-20.0078 28.73 Q-20.0078 28.5737 -20.0547 27.7144 Q-20.1016 26.855 -20.0859 26.48 L-20.0859 21.5737 L-19.1484 21.5737 L-19.1484 30.1362 Z"/><path style="fill:rgb(230,0,0); stroke:none;" d="M-3.5625 51.8927 Q-3.5625 53.9552 -4.6016 55.1349 Q-5.6406 56.3146 -7.4844 56.3146 Q-9.375 56.3146 -10.4062 55.1505 Q-11.4375 53.9864 -11.4375 51.8771 Q-11.4375 49.7833 -10.4062 48.6349 Q-9.375 47.4864 -7.4844 47.4864 Q-5.625 47.4864 -4.5938 48.6583 Q-3.5625 49.8302 -3.5625 51.8927 ZM-10.3906 51.8927 Q-10.3906 53.6271 -9.6484 54.5333 Q-8.9062 55.4396 -7.4844 55.4396 Q-6.0625 55.4396 -5.3359 54.5411 Q-4.6094 53.6427 -4.6094 51.8927 Q-4.6094 50.1583 -5.3359 49.2677 Q-6.0625 48.3771 -7.4844 48.3771 Q-8.9062 48.3771 -9.6484 49.2755 Q-10.3906 50.1739 -10.3906 51.8927 Z"/></g></g></svg></svg></svg></svg>