<svg xmlns:ns0="http://www.w3.org/2000/svg" xmlns="http://www.w3.org/2000/svg"><g transform="translate(0, 0)"><ns0:svg width="144" viewBox="0 0 144 59" style="fill-opacity:1; color-rendering:auto; color-interpolation:auto; text-rendering:auto; stroke:black; stroke-linecap:square; stroke-miterlimit:10; shape-rendering:auto; stroke-opacity:1; fill:black; stroke-dasharray:none; font-weight:normal; stroke-width:1; font-family:'Open Sans'; font-style:normal; stroke-linejoin:miter; font-size:12; stroke-dashoffset:0; image-rendering:auto;" height="59" class="cas-substance-image"><ns0:svg class="cas-substance-single-component"><ns0:rect y="0" x="0" width="144" stroke="none" ry="7" rx="7" height="59" fill="white" class="cas-substance-group" /><ns0:svg y="0" x="0" width="144" viewBox="0 0 144 59" style="fill:black;" height="59" class="cas-substance-single-component-image"><ns0:svg><ns0:g><ns0:g transform="translate(71,29)" style="text-rendering:geometricPrecision; color-rendering:optimizeQuality; color-interpolation:linearRGB; stroke-linecap:butt; image-rendering:optimizeQuality;"><ns0:line y2="25.98" y1="0" x2="-67.5" x1="-52.5" style="fill:none;" /><ns0:line y2="-25.98" y1="0" x2="-67.5" x1="-52.5" style="fill:none;" /><ns0:line y2="0" y1="0" x2="-22.5" x1="-52.5" style="fill:none;" /><ns0:line y2="0" y1="0" x2="37.5" x1="63.1094" style="fill:none;" /><ns0:line y2="-25.98" y1="0" x2="-7.5" x1="-22.5" style="fill:none;" /><ns0:line y2="-22.48" y1="0.0001" x2="-5.4793" x1="-18.4585" style="fill:none;" /><ns0:line y2="25.98" y1="0" x2="-7.5" x1="-22.5" style="fill:none;" /><ns0:line y2="-25.98" y1="-25.98" x2="22.5" x1="-7.5" style="fill:none;" /><ns0:line y2="25.98" y1="25.98" x2="22.5" x1="-7.5" style="fill:none;" /><ns0:line y2="22.48" y1="22.48" x2="20.4793" x1="-5.4793" style="fill:none;" /><ns0:line y2="0" y1="-25.98" x2="37.5" x1="22.5" style="fill:none;" /><ns0:line y2="0.0001" y1="-22.48" x2="33.4585" x1="20.4793" style="fill:none;" /><ns0:line y2="0" y1="25.98" x2="37.5" x1="22.5" style="fill:none;" /></ns0:g><ns0:g transform="translate(71,29)" style="fill:rgb(0,138,0); text-rendering:geometricPrecision; color-rendering:optimizeQuality; image-rendering:optimizeQuality; font-family:'Open Sans'; stroke:rgb(0,138,0); color-interpolation:linearRGB;"><ns0:path style="stroke:none;" d="M66.1094 4.1562 L65.1094 4.1562 L65.1094 -4.4062 L69.8906 -4.4062 L69.8906 -3.5312 L66.1094 -3.5312 L66.1094 -0.3906 L69.6562 -0.3906 L69.6562 0.5 L66.1094 0.5 L66.1094 4.1562 Z" /></ns0:g><ns0:g transform="translate(71,29)" style="stroke-linecap:butt; text-rendering:geometricPrecision; color-rendering:optimizeQuality; image-rendering:optimizeQuality; font-family:'Open Sans'; color-interpolation:linearRGB; stroke-miterlimit:5;"><ns0:path style="fill:none;" d="M-22.25 -0.433 L-22.5 0 L-23 -0" /><ns0:path style="fill:none;" d="M-7.75 -25.547 L-7.5 -25.98 L-7 -25.98" /><ns0:path style="fill:none;" d="M-7.75 25.547 L-7.5 25.98 L-7 25.98" /><ns0:path style="fill:none;" d="M22 -25.98 L22.5 -25.98 L22.75 -25.547" /><ns0:path style="fill:none;" d="M22 25.98 L22.5 25.98 L22.75 25.547" /><ns0:path style="fill:none;" d="M37.25 -0.433 L37.5 0 L38 0" /></ns0:g></ns0:g></ns0:svg></ns0:svg></ns0:svg></ns0:svg></g></svg>