<svg width="175" viewBox="0 0 175 63" style="fill-opacity:1; color-rendering:auto; color-interpolation:auto; text-rendering:auto; stroke:black; stroke-linecap:square; stroke-miterlimit:10; shape-rendering:auto; stroke-opacity:1; fill:black; stroke-dasharray:none; font-weight:normal; stroke-width:1; font-family:'Open Sans'; font-style:normal; stroke-linejoin:miter; font-size:12; stroke-dashoffset:0; image-rendering:auto;" height="63" class="cas-substance-image" xmlns:xlink="http://www.w3.org/1999/xlink" xmlns="http://www.w3.org/2000/svg"><svg class="cas-substance-single-component"><rect y="0" x="0" width="175" stroke="none" ry="7" rx="7" height="63" fill="white" class="cas-substance-group"/><svg y="0" x="0" width="175" viewBox="0 0 175 63" style="fill:black;" height="63" class="cas-substance-single-component-image"><svg><g><g transform="translate(86,29)" style="text-rendering:geometricPrecision; color-rendering:optimizeQuality; color-interpolation:linearRGB; stroke-linecap:butt; image-rendering:optimizeQuality;"><line y2="0" y1="0" x2="77.1484" x1="52.5" style="fill:none;"/><line y2="-3.5" y1="-3.5" x2="77.1484" x1="52.5" style="fill:none;"/><line y2="3.5" y1="3.5" x2="77.1484" x1="52.5" style="fill:none;"/><line y2="0" y1="0" x2="22.5" x1="52.5" style="fill:none;"/><line y2="-25.98" y1="-6.1383" x2="-82.5" x1="-71.044" style="fill:none;"/><line y2="0" y1="0" x2="-37.5" x1="-62.1484" style="fill:none;"/><line y2="-25.98" y1="0" x2="7.5" x1="22.5" style="fill:none;"/><line y2="25.98" y1="0" x2="7.5" x1="22.5" style="fill:none;"/><line y2="22.48" y1="-0.0001" x2="5.4793" x1="18.4585" style="fill:none;"/><line y2="-25.98" y1="-25.98" x2="-22.5" x1="7.5" style="fill:none;"/><line y2="-22.48" y1="-22.48" x2="-20.4793" x1="5.4793" style="fill:none;"/><line y2="25.98" y1="25.98" x2="-17.1484" x1="7.5" style="fill:none;"/><line y2="0" y1="-25.98" x2="-37.5" x1="-22.5" style="fill:none;"/><line y2="0" y1="19.8417" x2="-37.5" x1="-26.044" style="fill:none;"/><line y2="-0.0001" y1="18.0917" x2="-33.4585" x1="-23.013" style="fill:none;"/></g><g transform="translate(86,29)" style="fill:rgb(0,5,255); text-rendering:geometricPrecision; color-rendering:optimizeQuality; image-rendering:optimizeQuality; font-family:'Open Sans'; stroke:rgb(0,5,255); color-interpolation:linearRGB;"><path style="stroke:none;" d="M85.8516 4.1562 L84.7109 4.1562 L80.0234 -3.0312 L79.9766 -3.0312 Q80.0703 -1.7656 80.0703 -0.7188 L80.0703 4.1562 L79.1484 4.1562 L79.1484 -4.4062 L80.2734 -4.4062 L84.9453 2.75 L84.9922 2.75 Q84.9922 2.5938 84.9453 1.7344 Q84.8984 0.875 84.9141 0.5 L84.9141 -4.4062 L85.8516 -4.4062 L85.8516 4.1562 Z"/><path style="stroke:none;" d="M-64.1484 4.1562 L-65.2891 4.1562 L-69.9766 -3.0312 L-70.0234 -3.0312 Q-69.9297 -1.7656 -69.9297 -0.7188 L-69.9297 4.1562 L-70.8516 4.1562 L-70.8516 -4.4062 L-69.7266 -4.4062 L-65.0547 2.75 L-65.0078 2.75 Q-65.0078 2.5938 -65.0547 1.7344 Q-65.1016 0.875 -65.0859 0.5 L-65.0859 -4.4062 L-64.1484 -4.4062 L-64.1484 4.1562 Z"/><path style="stroke:none;" d="M-64.2422 13.7188 L-65.2422 13.7188 L-65.2422 9.6875 L-69.7578 9.6875 L-69.7578 13.7188 L-70.7578 13.7188 L-70.7578 5.1562 L-69.7578 5.1562 L-69.7578 8.7969 L-65.2422 8.7969 L-65.2422 5.1562 L-64.2422 5.1562 L-64.2422 13.7188 Z"/></g><g transform="translate(86,29)" style="stroke-linecap:butt; text-rendering:geometricPrecision; color-rendering:optimizeQuality; image-rendering:optimizeQuality; font-family:'Open Sans'; color-interpolation:linearRGB; stroke-miterlimit:5;"><path style="fill:none;" d="M22.25 0.433 L22.5 0 L23 0"/><path style="fill:none;" d="M7.75 -25.547 L7.5 -25.98 L7 -25.98"/><path style="fill:none;" d="M7.75 25.547 L7.5 25.98 L7 25.98"/><path style="fill:none;" d="M-22 -25.98 L-22.5 -25.98 L-22.75 -25.547"/><path style="fill:rgb(0,5,255); stroke:none;" d="M-19.1484 30.1362 L-20.2891 30.1362 L-24.9766 22.9487 L-25.0234 22.9487 Q-24.9297 24.2144 -24.9297 25.2612 L-24.9297 30.1362 L-25.8516 30.1362 L-25.8516 21.5737 L-24.7266 21.5737 L-20.0547 28.73 L-20.0078 28.73 Q-20.0078 28.5737 -20.0547 27.7144 Q-20.1016 26.855 -20.0859 26.48 L-20.0859 21.5737 L-19.1484 21.5737 L-19.1484 30.1362 Z"/><path style="fill:none;" d="M-37.25 0.433 L-37.5 0 L-38 -0"/></g></g></svg></svg></svg></svg>