<svg width="172" viewBox="0 0 172 71" style="fill-opacity:1; color-rendering:auto; color-interpolation:auto; text-rendering:auto; stroke:black; stroke-linecap:square; stroke-miterlimit:10; shape-rendering:auto; stroke-opacity:1; fill:black; stroke-dasharray:none; font-weight:normal; stroke-width:1; font-family:'Open Sans'; font-style:normal; stroke-linejoin:miter; font-size:12; stroke-dashoffset:0; image-rendering:auto;" height="71" class="cas-substance-image" xmlns:xlink="http://www.w3.org/1999/xlink" xmlns="http://www.w3.org/2000/svg"><svg class="cas-substance-single-component"><rect y="0" x="0" width="172" stroke="none" ry="7" rx="7" height="71" fill="white" class="cas-substance-group"/><svg y="0" x="0" width="172" viewBox="0 0 172 71" style="fill:black;" height="71" class="cas-substance-single-component-image"><svg><g><g transform="translate(92,37)" style="text-rendering:geometricPrecision; color-rendering:optimizeQuality; color-interpolation:linearRGB; stroke-linecap:butt; image-rendering:optimizeQuality;"><line y2="0" y1="0" x2="47.055" x1="77.055" style="fill:none;"/><line y2="-15" y1="-26.8216" x2="-51.072" x1="-71.5494" style="fill:none;"/><line y2="-15" y1="15" x2="0.888" x1="0.888" style="fill:none;"/><line y2="22.3728" y1="15" x2="23.5814" x1="0.888" style="fill:none;"/><line y2="30" y1="15" x2="-25.092" x1="0.888" style="fill:none;"/><line y2="25.9585" y1="12.9793" x2="-25.0921" x1="-2.612" style="fill:none;"/><line y2="-22.5631" y1="-15" x2="24.1673" x1="0.888" style="fill:none;"/><line y2="-30" y1="-15" x2="-25.092" x1="0.888" style="fill:none;"/><line y2="-25.9585" y1="-12.9793" x2="-25.0921" x1="-2.612" style="fill:none;"/><line y2="0" y1="19.0329" x2="47.055" x1="33.2262" style="fill:none;"/><line y2="15" y1="30" x2="-51.072" x1="-25.092" style="fill:none;"/><line y2="0" y1="-18.4957" x2="47.055" x1="33.6164" style="fill:none;"/><line y2="0.4225" y1="-16.4384" x2="43.0357" x1="30.7849" style="fill:none;"/><line y2="-15" y1="-30" x2="-51.072" x1="-25.092" style="fill:none;"/><line y2="-15" y1="15" x2="-51.072" x1="-51.072" style="fill:none;"/><line y2="-12.9793" y1="12.9793" x2="-47.572" x1="-47.572" style="fill:none;"/></g><g transform="translate(92,37)" style="fill:rgb(230,0,0); text-rendering:geometricPrecision; color-rendering:optimizeQuality; image-rendering:optimizeQuality; font-family:'Open Sans'; stroke:rgb(230,0,0); color-interpolation:linearRGB;"><path style="stroke:none;" d="M-73.1175 -30.0703 Q-73.1175 -28.0078 -74.1566 -26.8281 Q-75.1956 -25.6484 -77.0394 -25.6484 Q-78.93 -25.6484 -79.9613 -26.8125 Q-80.9925 -27.9766 -80.9925 -30.0859 Q-80.9925 -32.1797 -79.9613 -33.3281 Q-78.93 -34.4766 -77.0394 -34.4766 Q-75.18 -34.4766 -74.1488 -33.3047 Q-73.1175 -32.1328 -73.1175 -30.0703 ZM-79.9456 -30.0703 Q-79.9456 -28.3359 -79.2034 -27.4297 Q-78.4613 -26.5234 -77.0394 -26.5234 Q-75.6175 -26.5234 -74.8909 -27.4219 Q-74.1644 -28.3203 -74.1644 -30.0703 Q-74.1644 -31.8047 -74.8909 -32.6953 Q-75.6175 -33.5859 -77.0394 -33.5859 Q-78.4613 -33.5859 -79.2034 -32.6875 Q-79.9456 -31.7891 -79.9456 -30.0703 Z"/><path style="stroke:none;" d="M-81.9925 -25.7734 L-82.9925 -25.7734 L-82.9925 -29.8047 L-87.5081 -29.8047 L-87.5081 -25.7734 L-88.5081 -25.7734 L-88.5081 -34.3359 L-87.5081 -34.3359 L-87.5081 -30.6953 L-82.9925 -30.6953 L-82.9925 -34.3359 L-81.9925 -34.3359 L-81.9925 -25.7734 Z"/></g><g transform="translate(92,37)" style="stroke-linecap:butt; text-rendering:geometricPrecision; color-rendering:optimizeQuality; image-rendering:optimizeQuality; font-family:'Open Sans'; color-interpolation:linearRGB; stroke-miterlimit:5;"><path style="fill:none;" d="M0.455 15.25 L0.888 15 L1.3635 15.1545"/><path style="fill:none;" d="M0.455 -15.25 L0.888 -15 L0.888 -14.5"/><path style="fill:rgb(230,0,0); stroke:none;" d="M33.3585 24.1997 Q33.3585 26.2622 32.3194 27.4419 Q31.2804 28.6216 29.4366 28.6216 Q27.546 28.6216 26.5148 27.4575 Q25.4835 26.2934 25.4835 24.1841 Q25.4835 22.0903 26.5148 20.9419 Q27.546 19.7934 29.4366 19.7934 Q31.296 19.7934 32.3273 20.9653 Q33.3585 22.1372 33.3585 24.1997 ZM26.5304 24.1997 Q26.5304 25.9341 27.2726 26.8403 Q28.0148 27.7466 29.4366 27.7466 Q30.8585 27.7466 31.5851 26.8481 Q32.3116 25.9497 32.3116 24.1997 Q32.3116 22.4653 31.5851 21.5747 Q30.8585 20.6841 29.4366 20.6841 Q28.0148 20.6841 27.2726 21.5825 Q26.5304 22.4809 26.5304 24.1997 Z"/><path style="fill:none;" d="M-24.659 29.75 L-25.092 30 L-25.525 29.75"/><path style="fill:rgb(0,5,255); stroke:none;" d="M32.7726 -20.1138 L31.6319 -20.1138 L26.9444 -27.3013 L26.8976 -27.3013 Q26.9913 -26.0356 26.9913 -24.9888 L26.9913 -20.1138 L26.0694 -20.1138 L26.0694 -28.6763 L27.1944 -28.6763 L31.8663 -21.52 L31.9132 -21.52 Q31.9132 -21.6763 31.8663 -22.5356 Q31.8194 -23.395 31.8351 -23.77 L31.8351 -28.6763 L32.7726 -28.6763 L32.7726 -20.1138 Z"/><path style="fill:none;" d="M-24.659 -29.75 L-25.092 -30 L-25.525 -29.75"/><path style="fill:none;" d="M46.7611 -0.4045 L47.055 0 L46.7611 0.4045"/><path style="fill:none;" d="M-50.639 15.25 L-51.072 15 L-51.072 14.5"/><path style="fill:none;" d="M-51.072 -14.5 L-51.072 -15 L-51.505 -15.25"/></g></g></svg></svg></svg></svg>