<svg width="258" viewBox="0 0 258 145" style="fill-opacity:1; color-rendering:auto; color-interpolation:auto; text-rendering:auto; stroke:black; stroke-linecap:square; stroke-miterlimit:10; shape-rendering:auto; stroke-opacity:1; fill:black; stroke-dasharray:none; font-weight:normal; stroke-width:1; font-family:'Open Sans'; font-style:normal; stroke-linejoin:miter; font-size:12; stroke-dashoffset:0; image-rendering:auto;" height="145" class="cas-substance-image" xmlns:xlink="http://www.w3.org/1999/xlink" xmlns="http://www.w3.org/2000/svg"><svg class="cas-substance-single-component"><rect y="0" x="0" width="258" stroke="none" ry="7" rx="7" height="145" fill="white" class="cas-substance-group"/><svg y="0" x="0" width="258" viewBox="0 0 258 145" style="fill:black;" height="145" class="cas-substance-single-component-image"><svg><g><g transform="translate(134,72)" style="text-rendering:geometricPrecision; color-rendering:optimizeQuality; color-interpolation:linearRGB; stroke-linecap:butt; image-rendering:optimizeQuality;"><line y2="-37.22" y1="-58.4421" x2="-61.0104" x1="-73.2619" style="fill:none;"/><line y2="-38.97" y1="-60.192" x2="-57.9793" x1="-70.2308" style="fill:none;"/><line y2="-12.99" y1="-33.3343" x2="-105" x1="-116.7461" style="fill:none;"/><line y2="-38.97" y1="-59.3048" x2="-30" x1="-18.2607" style="fill:none;"/><line y2="38.97" y1="59.2311" x2="-105" x1="-116.6967" style="fill:none;"/><line y2="12.99" y1="33.2424" x2="60" x1="71.6931" style="fill:none;"/><line y2="-38.97" y1="-59.3048" x2="60" x1="71.7393" style="fill:none;"/><line y2="12.99" y1="-7.3543" x2="120" x1="108.2539" style="fill:none;"/><line y2="-12.99" y1="-12.99" x2="75" x1="99.0625" style="fill:none;"/><line y2="12.99" y1="-12.99" x2="-60" x1="-75" style="fill:none;"/><line y2="-38.97" y1="-12.99" x2="-60" x1="-75" style="fill:none;"/><line y2="-12.99" y1="-12.99" x2="-105" x1="-75" style="fill:none;"/><line y2="-9.49" y1="-9.49" x2="-102.9793" x1="-77.0207" style="fill:none;"/><line y2="12.99" y1="12.99" x2="-35.9375" x1="-60" style="fill:none;"/><line y2="38.97" y1="12.99" x2="-75" x1="-60" style="fill:none;"/><line y2="35.47" y1="12.9899" x2="-77.0207" x1="-64.0415" style="fill:none;"/><line y2="-38.97" y1="-38.97" x2="-30" x1="-60" style="fill:none;"/><line y2="12.99" y1="-12.99" x2="-120" x1="-105" style="fill:none;"/><line y2="-12.99" y1="7.2683" x2="-15" x1="-26.6965" style="fill:none;"/><line y2="38.97" y1="38.97" x2="-105" x1="-75" style="fill:none;"/><line y2="-12.99" y1="-38.97" x2="-15" x1="-30" style="fill:none;"/><line y2="-12.9899" y1="-35.47" x2="-19.0415" x1="-32.0207" style="fill:none;"/><line y2="38.97" y1="12.99" x2="-105" x1="-120" style="fill:none;"/><line y2="35.47" y1="12.9899" x2="-102.9793" x1="-115.9585" style="fill:none;"/><line y2="-12.99" y1="-12.99" x2="15" x1="-15" style="fill:none;"/><line y2="12.99" y1="-12.99" x2="30" x1="15" style="fill:none;"/><line y2="9.49" y1="-12.9901" x2="32.0207" x1="19.0415" style="fill:none;"/><line y2="-38.97" y1="-12.99" x2="30" x1="15" style="fill:none;"/><line y2="12.99" y1="12.99" x2="60" x1="30" style="fill:none;"/><line y2="-38.97" y1="-38.97" x2="60" x1="30" style="fill:none;"/><line y2="-35.47" y1="-35.47" x2="57.9793" x1="32.0207" style="fill:none;"/><line y2="-12.99" y1="12.99" x2="75" x1="60" style="fill:none;"/><line y2="-12.9901" y1="9.49" x2="70.9585" x1="57.9793" style="fill:none;"/><line y2="-12.99" y1="-38.97" x2="75" x1="60" style="fill:none;"/></g><g transform="translate(134,72)" style="fill:rgb(230,0,0); text-rendering:geometricPrecision; color-rendering:optimizeQuality; image-rendering:optimizeQuality; font-family:'Open Sans'; stroke:rgb(230,0,0); color-interpolation:linearRGB;"><path style="stroke:none;" d="M-71.0625 -65.0233 Q-71.0625 -62.9608 -72.1016 -61.7811 Q-73.1406 -60.6014 -74.9844 -60.6014 Q-76.875 -60.6014 -77.9062 -61.7655 Q-78.9375 -62.9296 -78.9375 -65.0389 Q-78.9375 -67.1327 -77.9062 -68.2811 Q-76.875 -69.4296 -74.9844 -69.4296 Q-73.125 -69.4296 -72.0938 -68.2577 Q-71.0625 -67.0858 -71.0625 -65.0233 ZM-77.8906 -65.0233 Q-77.8906 -63.2889 -77.1484 -62.3827 Q-76.4062 -61.4764 -74.9844 -61.4764 Q-73.5625 -61.4764 -72.8359 -62.3749 Q-72.1094 -63.2733 -72.1094 -65.0233 Q-72.1094 -66.7577 -72.8359 -67.6483 Q-73.5625 -68.5389 -74.9844 -68.5389 Q-76.4062 -68.5389 -77.1484 -67.6405 Q-77.8906 -66.7421 -77.8906 -65.0233 Z"/><path style="stroke:none;" d="M-116.0625 -39.0403 Q-116.0625 -36.9778 -117.1016 -35.7981 Q-118.1406 -34.6184 -119.9844 -34.6184 Q-121.875 -34.6184 -122.9062 -35.7825 Q-123.9375 -36.9466 -123.9375 -39.0559 Q-123.9375 -41.1497 -122.9062 -42.2981 Q-121.875 -43.4466 -119.9844 -43.4466 Q-118.125 -43.4466 -117.0938 -42.2747 Q-116.0625 -41.1028 -116.0625 -39.0403 ZM-122.8906 -39.0403 Q-122.8906 -37.3059 -122.1484 -36.3997 Q-121.4062 -35.4934 -119.9844 -35.4934 Q-118.5625 -35.4934 -117.8359 -36.3919 Q-117.1094 -37.2903 -117.1094 -39.0403 Q-117.1094 -40.7747 -117.8359 -41.6653 Q-118.5625 -42.5559 -119.9844 -42.5559 Q-121.4062 -42.5559 -122.1484 -41.6575 Q-122.8906 -40.7591 -122.8906 -39.0403 Z"/><path style="stroke:none;" d="M-124.9375 -34.7434 L-125.9375 -34.7434 L-125.9375 -38.7747 L-130.4531 -38.7747 L-130.4531 -34.7434 L-131.4531 -34.7434 L-131.4531 -43.3059 L-130.4531 -43.3059 L-130.4531 -39.6653 L-125.9375 -39.6653 L-125.9375 -43.3059 L-124.9375 -43.3059 L-124.9375 -34.7434 Z"/><path style="stroke:none;" d="M-11.0625 -65.0233 Q-11.0625 -62.9608 -12.1016 -61.7811 Q-13.1406 -60.6014 -14.9844 -60.6014 Q-16.875 -60.6014 -17.9062 -61.7655 Q-18.9375 -62.9296 -18.9375 -65.0389 Q-18.9375 -67.1327 -17.9062 -68.2811 Q-16.875 -69.4296 -14.9844 -69.4296 Q-13.125 -69.4296 -12.0938 -68.2577 Q-11.0625 -67.0858 -11.0625 -65.0233 ZM-17.8906 -65.0233 Q-17.8906 -63.2889 -17.1484 -62.3827 Q-16.4062 -61.4764 -14.9844 -61.4764 Q-13.5625 -61.4764 -12.8359 -62.3749 Q-12.1094 -63.2733 -12.1094 -65.0233 Q-12.1094 -66.7577 -12.8359 -67.6483 Q-13.5625 -68.5389 -14.9844 -68.5389 Q-16.4062 -68.5389 -17.1484 -67.6405 Q-17.8906 -66.7421 -17.8906 -65.0233 Z"/><path style="stroke:none;" d="M-3.5469 -60.7264 L-4.5469 -60.7264 L-4.5469 -64.7577 L-9.0625 -64.7577 L-9.0625 -60.7264 L-10.0625 -60.7264 L-10.0625 -69.2889 L-9.0625 -69.2889 L-9.0625 -65.6483 L-4.5469 -65.6483 L-4.5469 -69.2889 L-3.5469 -69.2889 L-3.5469 -60.7264 Z"/><path style="stroke:none;" d="M-116.0625 64.8827 Q-116.0625 66.9452 -117.1016 68.1249 Q-118.1406 69.3046 -119.9844 69.3046 Q-121.875 69.3046 -122.9062 68.1405 Q-123.9375 66.9764 -123.9375 64.8671 Q-123.9375 62.7733 -122.9062 61.6249 Q-121.875 60.4764 -119.9844 60.4764 Q-118.125 60.4764 -117.0938 61.6483 Q-116.0625 62.8202 -116.0625 64.8827 ZM-122.8906 64.8827 Q-122.8906 66.6171 -122.1484 67.5233 Q-121.4062 68.4296 -119.9844 68.4296 Q-118.5625 68.4296 -117.8359 67.5311 Q-117.1094 66.6327 -117.1094 64.8827 Q-117.1094 63.1483 -117.8359 62.2577 Q-118.5625 61.3671 -119.9844 61.3671 Q-121.4062 61.3671 -122.1484 62.2655 Q-122.8906 63.1639 -122.8906 64.8827 Z"/><path style="stroke:none;" d="M-124.9375 69.1796 L-125.9375 69.1796 L-125.9375 65.1483 L-130.4531 65.1483 L-130.4531 69.1796 L-131.4531 69.1796 L-131.4531 60.6171 L-130.4531 60.6171 L-130.4531 64.2577 L-125.9375 64.2577 L-125.9375 60.6171 L-124.9375 60.6171 L-124.9375 69.1796 Z"/><path style="stroke:none;" d="M78.9375 38.8997 Q78.9375 40.9622 77.8984 42.1419 Q76.8594 43.3216 75.0156 43.3216 Q73.125 43.3216 72.0938 42.1575 Q71.0625 40.9934 71.0625 38.8841 Q71.0625 36.7903 72.0938 35.6419 Q73.125 34.4934 75.0156 34.4934 Q76.875 34.4934 77.9062 35.6653 Q78.9375 36.8372 78.9375 38.8997 ZM72.1094 38.8997 Q72.1094 40.6341 72.8516 41.5403 Q73.5938 42.4466 75.0156 42.4466 Q76.4375 42.4466 77.1641 41.5481 Q77.8906 40.6497 77.8906 38.8997 Q77.8906 37.1653 77.1641 36.2747 Q76.4375 35.3841 75.0156 35.3841 Q73.5938 35.3841 72.8516 36.2825 Q72.1094 37.1809 72.1094 38.8997 Z"/><path style="stroke:none;" d="M86.4531 43.1966 L85.4531 43.1966 L85.4531 39.1653 L80.9375 39.1653 L80.9375 43.1966 L79.9375 43.1966 L79.9375 34.6341 L80.9375 34.6341 L80.9375 38.2747 L85.4531 38.2747 L85.4531 34.6341 L86.4531 34.6341 L86.4531 43.1966 Z"/><path style="stroke:none;" d="M78.9375 -65.0233 Q78.9375 -62.9608 77.8984 -61.7811 Q76.8594 -60.6014 75.0156 -60.6014 Q73.125 -60.6014 72.0938 -61.7655 Q71.0625 -62.9296 71.0625 -65.0389 Q71.0625 -67.1327 72.0938 -68.2811 Q73.125 -69.4296 75.0156 -69.4296 Q76.875 -69.4296 77.9062 -68.2577 Q78.9375 -67.0858 78.9375 -65.0233 ZM72.1094 -65.0233 Q72.1094 -63.2889 72.8516 -62.3827 Q73.5938 -61.4764 75.0156 -61.4764 Q76.4375 -61.4764 77.1641 -62.3749 Q77.8906 -63.2733 77.8906 -65.0233 Q77.8906 -66.7577 77.1641 -67.6483 Q76.4375 -68.5389 75.0156 -68.5389 Q73.5938 -68.5389 72.8516 -67.6405 Q72.1094 -66.7421 72.1094 -65.0233 Z"/><path style="stroke:none;" d="M86.4531 -60.7264 L85.4531 -60.7264 L85.4531 -64.7577 L80.9375 -64.7577 L80.9375 -60.7264 L79.9375 -60.7264 L79.9375 -69.2889 L80.9375 -69.2889 L80.9375 -65.6483 L85.4531 -65.6483 L85.4531 -69.2889 L86.4531 -69.2889 L86.4531 -60.7264 Z"/><path style="stroke:none;" d="M108.9375 -13.0603 Q108.9375 -10.9978 107.8984 -9.8181 Q106.8594 -8.6384 105.0156 -8.6384 Q103.125 -8.6384 102.0938 -9.8025 Q101.0625 -10.9666 101.0625 -13.0759 Q101.0625 -15.1697 102.0938 -16.3181 Q103.125 -17.4666 105.0156 -17.4666 Q106.875 -17.4666 107.9062 -16.2947 Q108.9375 -15.1228 108.9375 -13.0603 ZM102.1094 -13.0603 Q102.1094 -11.3259 102.8516 -10.4197 Q103.5938 -9.5134 105.0156 -9.5134 Q106.4375 -9.5134 107.1641 -10.4119 Q107.8906 -11.3103 107.8906 -13.0603 Q107.8906 -14.7947 107.1641 -15.6853 Q106.4375 -16.5759 105.0156 -16.5759 Q103.5938 -16.5759 102.8516 -15.6775 Q102.1094 -14.7791 102.1094 -13.0603 Z"/></g><g transform="translate(134,72)" style="stroke-linecap:butt; text-rendering:geometricPrecision; color-rendering:optimizeQuality; image-rendering:optimizeQuality; font-family:'Open Sans'; color-interpolation:linearRGB; stroke-miterlimit:5;"><path style="fill:none;" d="M-75.5 -12.99 L-75 -12.99 L-74.75 -12.557"/><path style="fill:none;" d="M-60.25 13.423 L-60 12.99 L-60.25 12.557"/><path style="fill:none;" d="M-60.25 -38.537 L-60 -38.97 L-59.5 -38.97"/><path style="fill:none;" d="M-104.5 -12.99 L-105 -12.99 L-105.25 -13.423"/><path style="fill:rgb(230,0,0); stroke:none;" d="M-26.0625 12.9197 Q-26.0625 14.9822 -27.1016 16.1619 Q-28.1406 17.3416 -29.9844 17.3416 Q-31.875 17.3416 -32.9062 16.1775 Q-33.9375 15.0134 -33.9375 12.9041 Q-33.9375 10.8103 -32.9062 9.6619 Q-31.875 8.5134 -29.9844 8.5134 Q-28.125 8.5134 -27.0938 9.6853 Q-26.0625 10.8572 -26.0625 12.9197 ZM-32.8906 12.9197 Q-32.8906 14.6541 -32.1484 15.5603 Q-31.4062 16.4666 -29.9844 16.4666 Q-28.5625 16.4666 -27.8359 15.5681 Q-27.1094 14.6697 -27.1094 12.9197 Q-27.1094 11.1853 -27.8359 10.2947 Q-28.5625 9.4041 -29.9844 9.4041 Q-31.4062 9.4041 -32.1484 10.3025 Q-32.8906 11.2009 -32.8906 12.9197 Z"/><path style="fill:none;" d="M-74.75 38.537 L-75 38.97 L-75.5 38.97"/><path style="fill:none;" d="M-29.75 -38.537 L-30 -38.97 L-29.75 -39.403"/><path style="fill:none;" d="M-119.75 12.557 L-120 12.99 L-119.75 13.423"/><path style="fill:none;" d="M-15.25 -13.423 L-15 -12.99 L-15.25 -12.557"/><path style="fill:none;" d="M-105.25 38.537 L-105 38.97 L-105.25 39.403"/><path style="fill:none;" d="M15.25 -12.557 L15 -12.99 L14.5 -12.99"/><path style="fill:none;" d="M29.75 12.557 L30 12.99 L30.5 12.99"/><path style="fill:none;" d="M29.75 -38.537 L30 -38.97 L30.5 -38.97"/><path style="fill:none;" d="M60.25 12.557 L60 12.99 L59.5 12.99"/><path style="fill:none;" d="M59.5 -38.97 L60 -38.97 L60.25 -39.403"/><path style="fill:none;" d="M74.75 -12.557 L75 -12.99 L75.5 -12.99"/></g></g></svg></svg></svg></svg>