<svg width="253" viewBox="0 0 253 180" style="fill-opacity:1; color-rendering:auto; color-interpolation:auto; text-rendering:auto; stroke:black; stroke-linecap:square; stroke-miterlimit:10; shape-rendering:auto; stroke-opacity:1; fill:black; stroke-dasharray:none; font-weight:normal; stroke-width:1; font-family:'Open Sans'; font-style:normal; stroke-linejoin:miter; font-size:12; stroke-dashoffset:0; image-rendering:auto;" height="180" class="cas-substance-image" xmlns:xlink="http://www.w3.org/1999/xlink" xmlns="http://www.w3.org/2000/svg"><svg class="cas-substance-single-component"><rect y="0" x="0" width="253" stroke="none" ry="7" rx="7" height="180" fill="white" class="cas-substance-group"/><svg y="0" x="0" width="253" viewBox="0 0 253 180" style="fill:black;" height="180" class="cas-substance-single-component-image"><svg><g><g transform="translate(125,90)" style="text-rendering:geometricPrecision; color-rendering:optimizeQuality; color-interpolation:linearRGB; stroke-linecap:butt; image-rendering:optimizeQuality;"><line y2="-45.0198" y1="-68.5086" x2="-38.3544" x1="-45.9856" style="fill:none;"/><line y2="-46.1017" y1="-69.59" x2="-35.0258" x1="-42.6569" style="fill:none;"/><line y2="-52.5" y1="-75.9375" x2="17.43" x1="17.43" style="fill:none;"/><path style="stroke:none;" d="M-54.3795 -22.8716 L-55.0485 -22.1284 L-79.0173 -40.3434 L-75.0027 -44.8026 Z"/><line y2="-37.5" y1="-49.0514" x2="43.413" x1="63.4201" style="fill:none;"/><line y2="37.5" y1="13.8516" x2="69.393" x1="69.393" style="fill:none;"/><line y2="-7.5" y1="4.2586" x2="43.413" x1="63.7789" style="fill:none;"/><line y2="52.5" y1="37.5" x2="95.373" x1="69.393" style="fill:none;"/><line y2="76.0234" y1="52.5" x2="95.373" x1="95.373" style="fill:none;"/><line y2="42.2044" y1="54.5207" x2="116.705" x1="95.373" style="fill:none;"/><line y2="39.1733" y1="51.4896" x2="114.9549" x1="93.623" style="fill:none;"/><line y2="-7.5" y1="-37.5" x2="-8.55" x1="-8.55" style="fill:none;"/><line y2="-46.77" y1="-37.5" x2="-37.083" x1="-8.55" style="fill:none;"/><line y2="-52.5" y1="-37.5" x2="17.43" x1="-8.55" style="fill:none;"/><line y2="-48.4585" y1="-35.4793" x2="17.43" x1="-5.05" style="fill:none;"/><line y2="1.77" y1="-7.5" x2="-37.083" x1="-8.55" style="fill:none;"/><line y2="7.5" y1="-7.5" x2="17.43" x1="-8.55" style="fill:none;"/><line y2="3.4585" y1="-9.5207" x2="17.43" x1="-5.05" style="fill:none;"/><line y2="-22.5" y1="-46.77" x2="-54.714" x1="-37.083" style="fill:none;"/><line y2="-37.5" y1="-52.5" x2="43.413" x1="17.43" style="fill:none;"/><line y2="-22.5" y1="1.77" x2="-54.714" x1="-37.083" style="fill:none;"/><line y2="-7.5" y1="7.5" x2="43.413" x1="17.43" style="fill:none;"/><path style="stroke:none;" d="M-55.8439 -22.2601 L-56.6389 -21.6489 L-56.6389 -21.6489 L-55.7616 -20.675 L-55.0706 -21.4016 L-55.0706 -21.4016 L-55.8439 -22.2601 ZM-58.2289 -20.4265 L-59.0238 -19.8152 L-57.8347 -18.4951 L-57.8347 -18.4951 L-57.1437 -19.2217 L-58.2289 -20.4265 ZM-60.6138 -18.5928 L-61.4088 -17.9816 L-61.4088 -17.9816 L-59.9078 -16.3152 L-59.9078 -16.3152 L-59.2168 -17.0418 L-60.6138 -18.5928 ZM-62.9988 -16.7591 L-63.7938 -16.1479 L-63.7938 -16.1479 L-61.9809 -14.1353 L-61.2898 -14.8619 L-62.9988 -16.7591 ZM-65.3838 -14.9255 L-66.1788 -14.3143 L-64.0539 -11.9554 L-63.3629 -12.682 L-65.3838 -14.9255 ZM-67.7687 -13.0918 L-68.5637 -12.4806 L-66.127 -9.7755 L-65.436 -10.5021 L-67.7687 -13.0918 ZM-70.1537 -11.2582 L-70.9487 -10.647 L-68.2001 -7.5956 L-67.5091 -8.3222 L-70.1537 -11.2582 ZM-72.5387 -9.4245 L-73.3337 -8.8133 L-70.2732 -5.4157 L-69.5822 -6.1423 L-69.5822 -6.1423 L-72.5387 -9.4245 ZM-74.9237 -7.5909 L-75.7187 -6.9797 L-72.3463 -3.2358 L-71.6552 -3.9624 L-74.9237 -7.5909 ZM-77.3086 -5.7572 L-78.1036 -5.146 L-74.4193 -1.0559 L-73.7283 -1.7825 L-77.3086 -5.7572 Z"/><line y2="-7.5" y1="-37.5" x2="43.413" x1="43.413" style="fill:none;"/><line y2="-9.5207" y1="-35.4793" x2="39.913" x1="39.913" style="fill:none;"/><line y2="27.411" y1="-2.427" x2="-73.875" x1="-77.01" style="fill:none;"/><line y2="-8.664" y1="-2.427" x2="-106.353" x1="-77.01" style="fill:none;"/><line y2="39.612" y1="27.411" x2="-101.28" x1="-73.875" style="fill:none;"/><line y2="17.316" y1="-8.664" x2="-121.353" x1="-106.353" style="fill:none;"/><line y2="17.316" y1="39.612" x2="-121.353" x1="-101.28" style="fill:none;"/></g><g transform="translate(125,90)" style="fill:rgb(230,0,0); text-rendering:geometricPrecision; color-rendering:optimizeQuality; image-rendering:optimizeQuality; font-family:'Open Sans'; stroke:rgb(230,0,0); color-interpolation:linearRGB;"><path style="stroke:none;" d="M-42.4155 -75.3733 Q-42.4155 -73.3108 -43.4546 -72.1311 Q-44.4936 -70.9514 -46.3374 -70.9514 Q-48.228 -70.9514 -49.2593 -72.1155 Q-50.2905 -73.2796 -50.2905 -75.3889 Q-50.2905 -77.4827 -49.2593 -78.6311 Q-48.228 -79.7796 -46.3374 -79.7796 Q-44.478 -79.7796 -43.4468 -78.6077 Q-42.4155 -77.4358 -42.4155 -75.3733 ZM-49.2436 -75.3733 Q-49.2436 -73.6389 -48.5014 -72.7327 Q-47.7593 -71.8264 -46.3374 -71.8264 Q-44.9155 -71.8264 -44.1889 -72.7249 Q-43.4624 -73.6233 -43.4624 -75.3733 Q-43.4624 -77.1077 -44.1889 -77.9983 Q-44.9155 -78.8889 -46.3374 -78.8889 Q-47.7593 -78.8889 -48.5014 -77.9905 Q-49.2436 -77.0921 -49.2436 -75.3733 Z"/><path style="fill:rgb(0,138,0); stroke:none;" d="M17.1214 -85.8594 Q15.7152 -85.8594 14.8948 -84.9219 Q14.0745 -83.9844 14.0745 -82.3438 Q14.0745 -80.6719 14.8636 -79.75 Q15.6527 -78.8281 17.1058 -78.8281 Q18.012 -78.8281 19.1527 -79.1562 L19.1527 -78.2812 Q18.262 -77.9375 16.9652 -77.9375 Q15.0745 -77.9375 14.0433 -79.0938 Q13.012 -80.25 13.012 -82.3594 Q13.012 -83.6875 13.5042 -84.6797 Q13.9964 -85.6719 14.9339 -86.2109 Q15.8714 -86.75 17.137 -86.75 Q18.4808 -86.75 19.4964 -86.2656 L19.0745 -85.4062 Q18.0902 -85.8594 17.1214 -85.8594 ZM21.848 -78.0625 L20.8792 -78.0625 L20.8792 -87.1875 L21.848 -87.1875 L21.848 -78.0625 Z"/><path style="fill:rgb(0,138,0); stroke:none;" d="M69.0844 -55.8594 Q67.6782 -55.8594 66.8578 -54.9219 Q66.0375 -53.9844 66.0375 -52.3438 Q66.0375 -50.6719 66.8266 -49.75 Q67.6157 -48.8281 69.0688 -48.8281 Q69.975 -48.8281 71.1157 -49.1562 L71.1157 -48.2812 Q70.225 -47.9375 68.9282 -47.9375 Q67.0375 -47.9375 66.0063 -49.0938 Q64.975 -50.25 64.975 -52.3594 Q64.975 -53.6875 65.4672 -54.6797 Q65.9594 -55.6719 66.8969 -56.2109 Q67.8344 -56.75 69.1 -56.75 Q70.4438 -56.75 71.4594 -56.2656 L71.0375 -55.4062 Q70.0532 -55.8594 69.0844 -55.8594 ZM73.811 -48.0625 L72.8422 -48.0625 L72.8422 -57.1875 L73.811 -57.1875 L73.811 -48.0625 Z"/><path style="stroke:none;" d="M73.3305 7.4297 Q73.3305 9.4922 72.2914 10.6719 Q71.2524 11.8516 69.4086 11.8516 Q67.518 11.8516 66.4868 10.6875 Q65.4555 9.5234 65.4555 7.4141 Q65.4555 5.3203 66.4868 4.1719 Q67.518 3.0234 69.4086 3.0234 Q71.268 3.0234 72.2993 4.1953 Q73.3305 5.3672 73.3305 7.4297 ZM66.5024 7.4297 Q66.5024 9.1641 67.2446 10.0703 Q67.9868 10.9766 69.4086 10.9766 Q70.8305 10.9766 71.5571 10.0781 Q72.2836 9.1797 72.2836 7.4297 Q72.2836 5.6953 71.5571 4.8047 Q70.8305 3.9141 69.4086 3.9141 Q67.9868 3.9141 67.2446 4.8125 Q66.5024 5.7109 66.5024 7.4297 Z"/></g><g transform="translate(125,90)" style="stroke-linecap:butt; text-rendering:geometricPrecision; color-rendering:optimizeQuality; image-rendering:optimizeQuality; font-family:'Open Sans'; color-interpolation:linearRGB; stroke-miterlimit:5;"><path style="fill:none;" d="M69.393 37 L69.393 37.5 L69.826 37.75"/><path style="fill:none;" d="M94.94 52.25 L95.373 52.5 L95.373 53"/><path style="fill:rgb(230,0,0); stroke:none;" d="M99.3105 82.4297 Q99.3105 84.4922 98.2714 85.6719 Q97.2324 86.8516 95.3886 86.8516 Q93.498 86.8516 92.4668 85.6875 Q91.4355 84.5234 91.4355 82.4141 Q91.4355 80.3203 92.4668 79.1719 Q93.498 78.0234 95.3886 78.0234 Q97.248 78.0234 98.2793 79.1953 Q99.3105 80.3672 99.3105 82.4297 ZM92.4824 82.4297 Q92.4824 84.1641 93.2246 85.0703 Q93.9668 85.9766 95.3886 85.9766 Q96.8105 85.9766 97.5371 85.0781 Q98.2636 84.1797 98.2636 82.4297 Q98.2636 80.6953 97.5371 79.8047 Q96.8105 78.9141 95.3886 78.9141 Q93.9668 78.9141 93.2246 79.8125 Q92.4824 80.7109 92.4824 82.4297 Z"/><path style="fill:rgb(230,0,0); stroke:none;" d="M106.8261 86.7266 L105.8261 86.7266 L105.8261 82.6953 L101.3105 82.6953 L101.3105 86.7266 L100.3105 86.7266 L100.3105 78.1641 L101.3105 78.1641 L101.3105 81.8047 L105.8261 81.8047 L105.8261 78.1641 L106.8261 78.1641 L106.8261 86.7266 Z"/><path style="fill:rgb(230,0,0); stroke:none;" d="M125.2905 37.4297 Q125.2905 39.4922 124.2514 40.6719 Q123.2124 41.8516 121.3686 41.8516 Q119.478 41.8516 118.4468 40.6875 Q117.4155 39.5234 117.4155 37.4141 Q117.4155 35.3203 118.4468 34.1719 Q119.478 33.0234 121.3686 33.0234 Q123.228 33.0234 124.2593 34.1953 Q125.2905 35.3672 125.2905 37.4297 ZM118.4624 37.4297 Q118.4624 39.1641 119.2046 40.0703 Q119.9468 40.9766 121.3686 40.9766 Q122.7905 40.9766 123.5171 40.0781 Q124.2436 39.1797 124.2436 37.4297 Q124.2436 35.6953 123.5171 34.8047 Q122.7905 33.9141 121.3686 33.9141 Q119.9468 33.9141 119.2046 34.8125 Q118.4624 35.7109 118.4624 37.4297 Z"/><path style="fill:none;" d="M-8.117 -37.75 L-8.55 -37.5 L-9.0255 -37.6545"/><path style="fill:none;" d="M-8.117 -7.25 L-8.55 -7.5 L-9.0255 -7.3455"/><path style="fill:none;" d="M-36.6075 -46.6155 L-37.083 -46.77 L-37.3769 -46.3655"/><path style="fill:none;" d="M16.997 -52.25 L17.43 -52.5 L17.43 -53"/><path style="fill:none;" d="M-36.6075 1.6155 L-37.083 1.77 L-37.3769 1.3655"/><path style="fill:none;" d="M16.997 7.25 L17.43 7.5 L17.863 7.25"/></g><g transform="translate(125,90)" style="stroke-linecap:butt; font-size:8.4px; fill:gray; text-rendering:geometricPrecision; image-rendering:optimizeQuality; color-rendering:optimizeQuality; font-family:'Open Sans'; font-style:italic; stroke:gray; color-interpolation:linearRGB; stroke-miterlimit:5;"><path style="stroke:none;" d="M-49.1026 -21.3359 Q-49.1026 -22.6641 -48.6339 -23.7891 Q-48.1651 -24.9141 -47.1339 -25.9922 L-46.5245 -25.9922 Q-47.4933 -24.9297 -47.9776 -23.7578 Q-48.462 -22.5859 -48.462 -21.3516 Q-48.462 -20.0234 -48.0245 -19.0078 L-48.5401 -19.0078 Q-49.1026 -20.0391 -49.1026 -21.3359 ZM-45.5426 -22.6484 L-46.0426 -20.2734 L-46.6988 -20.2734 L-45.4957 -25.9922 L-44.2457 -25.9922 Q-42.5113 -25.9922 -42.5113 -24.5547 Q-42.5113 -23.1953 -43.9488 -22.8047 L-43.0113 -20.2734 L-43.7301 -20.2734 L-44.5582 -22.6484 L-45.5426 -22.6484 ZM-44.9645 -25.3984 Q-45.3551 -23.4766 -45.4176 -23.2266 L-44.7613 -23.2266 Q-44.0113 -23.2266 -43.6051 -23.5547 Q-43.1988 -23.8828 -43.1988 -24.5078 Q-43.1988 -24.9766 -43.4566 -25.1875 Q-43.7145 -25.3984 -44.3082 -25.3984 L-44.9645 -25.3984 ZM-40.3254 -23.6484 Q-40.3254 -22.3203 -40.8019 -21.1875 Q-41.2785 -20.0547 -42.2941 -19.0078 L-42.9035 -19.0078 Q-40.966 -21.1641 -40.966 -23.6484 Q-40.966 -24.9766 -41.4035 -25.9922 L-40.8879 -25.9922 Q-40.3254 -24.9297 -40.3254 -23.6484 Z"/><path style="fill:none; stroke:black;" d="M43.413 -37 L43.413 -37.5 L43.846 -37.75"/><path style="fill:none; stroke:black;" d="M43.413 -8 L43.413 -7.5 L43.846 -7.25"/><path style="fill:none; stroke:black;" d="M-76.9577 -1.9297 L-77.01 -2.427 L-77.4991 -2.531"/><path style="fill:none; stroke:black;" d="M-73.9272 26.9137 L-73.875 27.411 L-74.3318 27.6144"/><path style="fill:none; stroke:black;" d="M-105.8639 -8.56 L-106.353 -8.664 L-106.603 -8.231"/><path style="fill:none; stroke:black;" d="M-100.8232 39.4086 L-101.28 39.612 L-101.6145 39.2404"/><path style="fill:none; stroke:black;" d="M-121.103 16.883 L-121.353 17.316 L-121.0185 17.6876"/></g></g></svg></svg></svg></svg>