<svg xmlns:ns0="http://www.w3.org/2000/svg" xmlns="http://www.w3.org/2000/svg"><g transform="translate(0, 0)"><ns0:svg width="354" viewBox="0 0 354 205" style="fill-opacity:1; color-rendering:auto; color-interpolation:auto; text-rendering:auto; stroke:black; stroke-linecap:square; stroke-miterlimit:10; shape-rendering:auto; stroke-opacity:1; fill:black; stroke-dasharray:none; font-weight:normal; stroke-width:1; font-family:'Open Sans'; font-style:normal; stroke-linejoin:miter; font-size:12; stroke-dashoffset:0; image-rendering:auto;" height="205" class="cas-substance-image"><ns0:svg class="cas-substance-single-component"><ns0:rect y="0" x="0" width="354" stroke="none" ry="7" rx="7" height="205" fill="white" class="cas-substance-group" /><ns0:svg y="0" x="0" width="354" viewBox="0 0 354 205" style="fill:black;" height="205" class="cas-substance-single-component-image"><ns0:svg><ns0:g><ns0:g transform="translate(177,104)" style="text-rendering:geometricPrecision; color-rendering:optimizeQuality; color-interpolation:linearRGB; stroke-linecap:butt; image-rendering:optimizeQuality;"><ns0:line y2="-18.777" y1="-18.777" x2="28.8385" x1="4.776" style="fill:none;" /><ns0:path style="stroke:none;" d="M-9.791 7.453 L-10.657 6.953 L1.3119 -19.277 L8.2401 -19.277 Z" /><ns0:line y2="-44.76" y1="-24.4989" x2="49.776" x1="38.0793" style="fill:none;" /><ns0:line y2="-44.76" y1="-44.76" x2="79.776" x1="49.776" style="fill:none;" /><ns0:line y2="-5.718" y1="-10.7022" x2="-89.478" x1="-66.0288" style="fill:none;" /><ns0:path style="stroke:none;" d="M-53.1862 -8.5867 L-57.5105 -4.6915 L-56.7631 -4.019 L-52.5956 -7.7731 L-52.5956 -7.7731 L-53.1862 -8.5867 ZM-51.4143 -6.1459 L-55.2684 -2.6742 L-54.521 -2.0018 L-50.8236 -5.3323 L-50.8236 -5.3323 L-51.4143 -6.1459 ZM-49.6423 -3.7051 L-53.0262 -0.657 L-52.2788 0.0155 L-49.0517 -2.8915 L-49.6423 -3.7051 ZM-47.8704 -1.2643 L-50.7841 1.3603 L-50.0367 2.0327 L-47.2797 -0.4507 L-47.8704 -1.2643 ZM-46.0984 1.1765 L-48.5419 3.3775 L-47.7945 4.05 L-45.5078 1.9901 L-46.0984 1.1765 ZM-44.3265 3.6173 L-46.2998 5.3948 L-45.5524 6.0672 L-43.7359 4.4309 L-44.3265 3.6173 ZM-42.5546 6.0581 L-44.0576 7.412 L-44.0576 7.412 L-43.3102 8.0845 L-41.9639 6.8717 L-41.9639 6.8717 L-42.5546 6.0581 ZM-40.7826 8.499 L-41.8155 9.4293 L-41.0681 10.1017 L-40.192 9.3126 L-40.7826 8.499 Z" /><ns0:line y2="-28.014" y1="-5.718" x2="-109.554" x1="-89.478" style="fill:none;" /><ns0:line y2="40.7655" y1="50.9173" x2="-44.4256" x1="-67.2276" style="fill:none;" /><ns0:line y2="37.5682" y1="47.7198" x2="-45.8493" x1="-68.6512" style="fill:none;" /><ns0:line y2="96.72" y1="87.0855" x2="10.224" x1="-11.4164" style="fill:none;" /><ns0:path style="stroke:none;" d="M-19.6614 55.3676 L-20.8142 55.4901 L-20.8142 55.4901 L-20.8155 56.4957 L-20.8155 56.4957 L-19.4511 56.3508 L-19.4511 56.3508 L-19.6614 55.3676 ZM-19.0306 58.3171 L-20.8182 58.507 L-20.8182 58.507 L-20.8195 59.5127 L-20.8195 59.5127 L-18.8203 59.3003 L-18.8203 59.3003 L-19.0306 58.3171 ZM-18.3998 61.2666 L-20.8221 61.5239 L-20.8221 61.5239 L-20.8234 62.5296 L-20.8234 62.5296 L-18.1895 62.2498 L-18.1895 62.2498 L-18.3998 61.2666 ZM-17.769 64.2161 L-20.826 64.5409 L-20.826 64.5409 L-20.8273 65.5465 L-20.8273 65.5465 L-17.5588 65.1993 L-17.5588 65.1993 L-17.769 64.2161 ZM-17.1382 67.1656 L-20.8299 67.5578 L-20.8299 67.5578 L-20.8312 68.5634 L-20.8312 68.5634 L-16.928 68.1488 L-16.928 68.1488 L-17.1382 67.1656 ZM-16.5075 70.1151 L-20.8338 70.5747 L-20.8338 70.5747 L-20.8351 71.5804 L-20.8351 71.5804 L-16.2972 71.0983 L-16.2972 71.0983 L-16.5075 70.1151 ZM-15.8767 73.0646 L-20.8378 73.5917 L-20.8378 73.5917 L-20.8391 74.5973 L-20.8391 74.5973 L-15.6664 74.0478 L-15.6664 74.0478 L-15.8767 73.0646 ZM-15.2459 76.0141 L-20.8417 76.6086 L-20.8417 76.6086 L-20.843 77.6142 L-20.843 77.6142 L-15.0356 76.9973 L-15.0356 76.9973 L-15.2459 76.0141 Z" /><ns0:line y2="-21.777" y1="0.3396" x2="-138.897" x1="-146.0824" style="fill:none;" /><ns0:line y2="-70.74" y1="-90.487" x2="94.776" x1="83.3747" style="fill:none;" /><ns0:line y2="-72.603" y1="-88.9581" x2="-149.7" x1="-164.4286" style="fill:none;" /><ns0:line y2="-44.76" y1="-44.76" x2="139.776" x1="163.358" style="fill:none;" /><ns0:line y2="10.338" y1="7.203" x2="-40.062" x1="-10.224" style="fill:none;" /><ns0:line y2="28.3922" y1="7.203" x2="-0.7903" x1="-10.224" style="fill:none;" /><ns0:line y2="39.684" y1="10.338" x2="-46.299" x1="-40.062" style="fill:none;" /><ns0:line y2="54.684" y1="38.8167" x2="-20.316" x1="-2.6964" style="fill:none;" /><ns0:line y2="54.684" y1="39.684" x2="-20.316" x1="-46.299" style="fill:none;" /><ns0:line y2="-21.777" y1="-28.014" x2="-138.897" x1="-109.554" style="fill:none;" /><ns0:line y2="-25.6206" y1="-31.0174" x2="-137.6481" x1="-112.2583" style="fill:none;" /><ns0:line y2="-56.544" y1="-28.014" x2="-100.284" x1="-109.554" style="fill:none;" /><ns0:line y2="-44.07" y1="-21.777" x2="-158.97" x1="-138.897" style="fill:none;" /><ns0:line y2="-78.84" y1="-56.544" x2="-120.357" x1="-100.284" style="fill:none;" /><ns0:line y2="-74.9964" y1="-55.704" x2="-121.6061" x1="-104.2372" style="fill:none;" /><ns0:line y2="-72.603" y1="-44.07" x2="-149.7" x1="-158.97" style="fill:none;" /><ns0:line y2="-69.5997" y1="-44.9104" x2="-146.9957" x1="-155.0169" style="fill:none;" /><ns0:line y2="-72.603" y1="-78.84" x2="-149.7" x1="-120.357" style="fill:none;" /><ns0:line y2="-70.74" y1="-44.76" x2="94.776" x1="79.776" style="fill:none;" /><ns0:line y2="-67.24" y1="-44.7599" x2="96.7967" x1="83.8175" style="fill:none;" /><ns0:line y2="-18.777" y1="-44.76" x2="94.776" x1="79.776" style="fill:none;" /><ns0:line y2="-70.74" y1="-70.74" x2="124.776" x1="94.776" style="fill:none;" /><ns0:line y2="-18.777" y1="-18.777" x2="124.776" x1="94.776" style="fill:none;" /><ns0:line y2="-22.277" y1="-22.277" x2="122.7553" x1="96.7967" style="fill:none;" /><ns0:line y2="-44.76" y1="-70.74" x2="139.776" x1="124.776" style="fill:none;" /><ns0:line y2="-44.7599" y1="-67.24" x2="135.7345" x1="122.7553" style="fill:none;" /><ns0:line y2="-44.76" y1="-18.777" x2="139.776" x1="124.776" style="fill:none;" /></ns0:g><ns0:g transform="translate(177,104)" style="fill:rgb(230,0,0); text-rendering:geometricPrecision; color-rendering:optimizeQuality; image-rendering:optimizeQuality; font-family:'Open Sans'; stroke:rgb(230,0,0); color-interpolation:linearRGB;"><ns0:path style="stroke:none;" d="M38.7135 -18.8473 Q38.7135 -16.7848 37.6744 -15.6051 Q36.6354 -14.4254 34.7916 -14.4254 Q32.901 -14.4254 31.8697 -15.5895 Q30.8385 -16.7536 30.8385 -18.8629 Q30.8385 -20.9567 31.8697 -22.1051 Q32.901 -23.2536 34.7916 -23.2536 Q36.651 -23.2536 37.6822 -22.0817 Q38.7135 -20.9098 38.7135 -18.8473 ZM31.8854 -18.8473 Q31.8854 -17.1129 32.6276 -16.2067 Q33.3697 -15.3004 34.7916 -15.3004 Q36.2135 -15.3004 36.9401 -16.1989 Q37.6666 -17.0973 37.6666 -18.8473 Q37.6666 -20.5817 36.9401 -21.4723 Q36.2135 -22.3629 34.7916 -22.3629 Q33.3697 -22.3629 32.6276 -21.4645 Q31.8854 -20.5661 31.8854 -18.8473 Z" /></ns0:g><ns0:g transform="translate(177,104)" style="stroke-linecap:butt; text-rendering:geometricPrecision; color-rendering:optimizeQuality; image-rendering:optimizeQuality; font-family:'Open Sans'; color-interpolation:linearRGB; stroke-miterlimit:5;"><ns0:path style="fill:none;" d="M49.526 -44.327 L49.776 -44.76 L50.276 -44.76" /><ns0:path style="fill:rgb(230,0,0); stroke:none;" d="M-56.1975 -12.0253 Q-56.1975 -9.9628 -57.2366 -8.7831 Q-58.2756 -7.6034 -60.1194 -7.6034 Q-62.01 -7.6034 -63.0412 -8.7675 Q-64.0725 -9.9316 -64.0725 -12.0409 Q-64.0725 -14.1347 -63.0412 -15.2831 Q-62.01 -16.4316 -60.1194 -16.4316 Q-58.26 -16.4316 -57.2287 -15.2597 Q-56.1975 -14.0878 -56.1975 -12.0253 ZM-63.0256 -12.0253 Q-63.0256 -10.2909 -62.2834 -9.3847 Q-61.5412 -8.4784 -60.1194 -8.4784 Q-58.6975 -8.4784 -57.9709 -9.3769 Q-57.2444 -10.2753 -57.2444 -12.0253 Q-57.2444 -13.7597 -57.9709 -14.6503 Q-58.6975 -15.5409 -60.1194 -15.5409 Q-61.5412 -15.5409 -62.2834 -14.6425 Q-63.0256 -13.7441 -63.0256 -12.0253 Z" /><ns0:path style="fill:none;" d="M-88.9889 -5.822 L-89.478 -5.718 L-89.8126 -6.0896" /><ns0:path style="fill:rgb(230,0,0); stroke:none;" d="M-69.7665 51.8147 Q-69.7665 53.8772 -70.8056 55.0569 Q-71.8446 56.2366 -73.6884 56.2366 Q-75.579 56.2366 -76.6103 55.0725 Q-77.6415 53.9084 -77.6415 51.7991 Q-77.6415 49.7053 -76.6103 48.5569 Q-75.579 47.4084 -73.6884 47.4084 Q-71.829 47.4084 -70.7978 48.5803 Q-69.7665 49.7522 -69.7665 51.8147 ZM-76.5946 51.8147 Q-76.5946 53.5491 -75.8524 54.4553 Q-75.1103 55.3616 -73.6884 55.3616 Q-72.2665 55.3616 -71.5399 54.4631 Q-70.8134 53.5647 -70.8134 51.8147 Q-70.8134 50.0803 -71.5399 49.1897 Q-72.2665 48.2991 -73.6884 48.2991 Q-75.1103 48.2991 -75.8524 49.1975 Q-76.5946 50.0959 -76.5946 51.8147 Z" /><ns0:path style="fill:rgb(230,0,0); stroke:none;" d="M-13.2435 84.4487 Q-13.2435 86.5112 -14.2826 87.6909 Q-15.3216 88.8706 -17.1654 88.8706 Q-19.056 88.8706 -20.0872 87.7065 Q-21.1185 86.5424 -21.1185 84.4331 Q-21.1185 82.3393 -20.0872 81.1909 Q-19.056 80.0424 -17.1654 80.0424 Q-15.306 80.0424 -14.2747 81.2143 Q-13.2435 82.3862 -13.2435 84.4487 ZM-20.0716 84.4487 Q-20.0716 86.1831 -19.3294 87.0893 Q-18.5872 87.9956 -17.1654 87.9956 Q-15.7435 87.9956 -15.0169 87.0971 Q-14.2904 86.1987 -14.2904 84.4487 Q-14.2904 82.7143 -15.0169 81.8237 Q-15.7435 80.9331 -17.1654 80.9331 Q-18.5872 80.9331 -19.3294 81.8315 Q-20.0716 82.7299 -20.0716 84.4487 Z" /><ns0:path style="fill:rgb(0,138,0); stroke:none;" d="M-148.4756 3.3966 Q-149.8818 3.3966 -150.7021 4.3341 Q-151.5225 5.2716 -151.5225 6.9123 Q-151.5225 8.5841 -150.7334 9.506 Q-149.9443 10.4279 -148.4912 10.4279 Q-147.585 10.4279 -146.4443 10.0998 L-146.4443 10.9748 Q-147.335 11.3185 -148.6318 11.3185 Q-150.5225 11.3185 -151.5537 10.1623 Q-152.585 9.006 -152.585 6.8966 Q-152.585 5.5685 -152.0928 4.5763 Q-151.6006 3.5841 -150.6631 3.0451 Q-149.7256 2.506 -148.46 2.506 Q-147.1162 2.506 -146.1006 2.9904 L-146.5225 3.8498 Q-147.5068 3.3966 -148.4756 3.3966 ZM-143.749 11.1935 L-144.7178 11.1935 L-144.7178 2.0685 L-143.749 2.0685 L-143.749 11.1935 Z" /><ns0:path style="fill:rgb(0,138,0); stroke:none;" d="M79.4674 -100.0794 Q78.0612 -100.0794 77.2408 -99.1419 Q76.4205 -98.2044 76.4205 -96.5638 Q76.4205 -94.8919 77.2096 -93.97 Q77.9987 -93.0481 79.4518 -93.0481 Q80.358 -93.0481 81.4987 -93.3763 L81.4987 -92.5013 Q80.608 -92.1575 79.3112 -92.1575 Q77.4205 -92.1575 76.3893 -93.3138 Q75.358 -94.47 75.358 -96.5794 Q75.358 -97.9075 75.8502 -98.8997 Q76.3424 -99.8919 77.2799 -100.4309 Q78.2174 -100.97 79.483 -100.97 Q80.8268 -100.97 81.8424 -100.4856 L81.4205 -99.6263 Q80.4362 -100.0794 79.4674 -100.0794 ZM84.194 -92.2825 L83.2252 -92.2825 L83.2252 -101.4075 L84.194 -101.4075 L84.194 -92.2825 Z" /><ns0:path style="fill:rgb(0,138,0); stroke:none;" d="M-170.0846 -98.2554 Q-171.4908 -98.2554 -172.3112 -97.3179 Q-173.1315 -96.3804 -173.1315 -94.7397 Q-173.1315 -93.0679 -172.3424 -92.146 Q-171.5533 -91.2241 -170.1002 -91.2241 Q-169.194 -91.2241 -168.0533 -91.5522 L-168.0533 -90.6772 Q-168.944 -90.3335 -170.2408 -90.3335 Q-172.1315 -90.3335 -173.1627 -91.4897 Q-174.194 -92.646 -174.194 -94.7554 Q-174.194 -96.0835 -173.7018 -97.0757 Q-173.2096 -98.0679 -172.2721 -98.6069 Q-171.3346 -99.146 -170.069 -99.146 Q-168.7252 -99.146 -167.7096 -98.6616 L-168.1315 -97.8022 Q-169.1158 -98.2554 -170.0846 -98.2554 ZM-165.358 -90.4585 L-166.3268 -90.4585 L-166.3268 -99.5835 L-165.358 -99.5835 L-165.358 -90.4585 Z" /><ns0:path style="fill:rgb(0,138,0); stroke:none;" d="M169.4674 -48.1194 Q168.0612 -48.1194 167.2408 -47.1819 Q166.4205 -46.2444 166.4205 -44.6037 Q166.4205 -42.9319 167.2096 -42.01 Q167.9987 -41.0881 169.4518 -41.0881 Q170.358 -41.0881 171.4987 -41.4162 L171.4987 -40.5412 Q170.608 -40.1975 169.3112 -40.1975 Q167.4205 -40.1975 166.3893 -41.3537 Q165.358 -42.51 165.358 -44.6194 Q165.358 -45.9475 165.8502 -46.9397 Q166.3424 -47.9319 167.2799 -48.4709 Q168.2174 -49.01 169.483 -49.01 Q170.8268 -49.01 171.8424 -48.5256 L171.4205 -47.6662 Q170.4362 -48.1194 169.4674 -48.1194 ZM174.194 -40.3225 L173.2252 -40.3225 L173.2252 -49.4475 L174.194 -49.4475 L174.194 -40.3225 Z" /></ns0:g><ns0:g transform="translate(177,104)" style="stroke-linecap:butt; font-size:8.4px; fill:gray; text-rendering:geometricPrecision; image-rendering:optimizeQuality; color-rendering:optimizeQuality; font-family:'Open Sans'; font-style:italic; stroke:gray; color-interpolation:linearRGB; stroke-miterlimit:5;"><ns0:path style="stroke:none;" d="M-4.6264 8.8906 Q-4.6264 7.5624 -4.1576 6.4374 Q-3.6889 5.3124 -2.6576 4.2343 L-2.0482 4.2343 Q-3.017 5.2968 -3.5014 6.4687 Q-3.9857 7.6406 -3.9857 8.8749 Q-3.9857 10.2031 -3.5482 11.2187 L-4.0639 11.2187 Q-4.6264 10.1874 -4.6264 8.8906 ZM-1.0663 7.5781 L-1.5663 9.9531 L-2.2225 9.9531 L-1.0194 4.2343 L0.2306 4.2343 Q1.965 4.2343 1.965 5.6718 Q1.965 7.0312 0.5275 7.4218 L1.465 9.9531 L0.7462 9.9531 L-0.0819 7.5781 L-1.0663 7.5781 ZM-0.4882 4.8281 Q-0.8788 6.7499 -0.9413 6.9999 L-0.285 6.9999 Q0.465 6.9999 0.8712 6.6718 Q1.2775 6.3437 1.2775 5.7187 Q1.2775 5.2499 1.0196 5.039 Q0.7618 4.8281 0.1681 4.8281 L-0.4882 4.8281 ZM4.1509 6.5781 Q4.1509 7.9062 3.6744 9.039 Q3.1978 10.1718 2.1822 11.2187 L1.5728 11.2187 Q3.5103 9.0624 3.5103 6.5781 Q3.5103 5.2499 3.0728 4.2343 L3.5884 4.2343 Q4.1509 5.2968 4.1509 6.5781 Z" /><ns0:path style="fill:none; stroke:black;" d="M-39.5647 10.2858 L-40.062 10.338 L-40.1659 10.8271" /><ns0:path style="stroke:none;" d="M-54.1099 14.0904 Q-54.1099 12.7623 -53.6411 11.6373 Q-53.1724 10.5123 -52.1411 9.4341 L-51.5317 9.4341 Q-52.5005 10.4966 -52.9849 11.6685 Q-53.4692 12.8404 -53.4692 14.0748 Q-53.4692 15.4029 -53.0317 16.4185 L-53.5474 16.4185 Q-54.1099 15.3873 -54.1099 14.0904 ZM-50.5498 12.7779 L-51.0498 15.1529 L-51.7061 15.1529 L-50.5029 9.4341 L-49.2529 9.4341 Q-47.5186 9.4341 -47.5186 10.8716 Q-47.5186 12.231 -48.9561 12.6216 L-48.0186 15.1529 L-48.7373 15.1529 L-49.5654 12.7779 L-50.5498 12.7779 ZM-49.9717 10.0279 Q-50.3623 11.9498 -50.4248 12.1998 L-49.7686 12.1998 Q-49.0186 12.1998 -48.6123 11.8716 Q-48.2061 11.5435 -48.2061 10.9185 Q-48.2061 10.4498 -48.4639 10.2388 Q-48.7217 10.0279 -49.3154 10.0279 L-49.9717 10.0279 ZM-45.3326 11.7779 Q-45.3326 13.106 -45.8091 14.2388 Q-46.2857 15.3716 -47.3013 16.4185 L-47.9107 16.4185 Q-45.9732 14.2623 -45.9732 11.7779 Q-45.9732 10.4498 -46.4107 9.4341 L-45.8951 9.4341 Q-45.3326 10.4966 -45.3326 11.7779 Z" /></ns0:g><ns0:g transform="translate(177,104)" style="stroke-linecap:butt; fill:rgb(230,0,0); text-rendering:geometricPrecision; color-rendering:optimizeQuality; image-rendering:optimizeQuality; font-family:'Open Sans'; stroke:rgb(230,0,0); color-interpolation:linearRGB; stroke-miterlimit:5;"><ns0:path style="stroke:none;" d="M5.9145 34.5377 Q5.9145 36.6002 4.8754 37.7799 Q3.8364 38.9596 1.9926 38.9596 Q0.102 38.9596 -0.9293 37.7955 Q-1.9605 36.6314 -1.9605 34.5221 Q-1.9605 32.4283 -0.9293 31.2799 Q0.102 30.1314 1.9926 30.1314 Q3.852 30.1314 4.8833 31.3033 Q5.9145 32.4752 5.9145 34.5377 ZM-0.9136 34.5377 Q-0.9136 36.2721 -0.1714 37.1783 Q0.5707 38.0846 1.9926 38.0846 Q3.4145 38.0846 4.1411 37.1861 Q4.8676 36.2877 4.8676 34.5377 Q4.8676 32.8033 4.1411 31.9127 Q3.4145 31.0221 1.9926 31.0221 Q0.5707 31.0221 -0.1714 31.9205 Q-0.9136 32.8189 -0.9136 34.5377 Z" /><ns0:path style="fill:none; stroke:black;" d="M-46.1951 39.1949 L-46.299 39.684 L-45.866 39.934" /><ns0:path style="fill:none; stroke:black;" d="M-19.9445 54.3494 L-20.316 54.684 L-20.749 54.434" /></ns0:g><ns0:g transform="translate(177,104)" style="stroke-linecap:butt; font-size:8.4px; fill:gray; text-rendering:geometricPrecision; image-rendering:optimizeQuality; color-rendering:optimizeQuality; font-family:'Open Sans'; font-style:italic; stroke:gray; color-interpolation:linearRGB; stroke-miterlimit:5;"><ns0:path style="stroke:none;" d="M-15.0886 59.4705 Q-15.0886 58.1424 -14.6199 57.0174 Q-14.1511 55.8924 -13.1199 54.8143 L-12.5105 54.8143 Q-13.4792 55.8768 -13.9636 57.0487 Q-14.448 58.2205 -14.448 59.4549 Q-14.448 60.783 -14.0105 61.7987 L-14.5261 61.7987 Q-15.0886 60.7674 -15.0886 59.4705 ZM-9.4661 58.8768 Q-9.4661 59.7049 -10.0129 60.158 Q-10.5598 60.6112 -11.5598 60.6112 Q-11.9661 60.6112 -12.2786 60.5565 Q-12.5911 60.5018 -12.8723 60.3612 L-12.8723 59.7049 Q-12.2473 60.033 -11.5442 60.033 Q-10.9192 60.033 -10.5442 59.7362 Q-10.1692 59.4393 -10.1692 58.9237 Q-10.1692 58.6112 -10.3723 58.3846 Q-10.5754 58.158 -11.1379 57.8299 Q-11.7317 57.5018 -11.9582 57.1737 Q-12.1848 56.8455 -12.1848 56.3924 Q-12.1848 55.658 -11.6692 55.1971 Q-11.1536 54.7362 -10.3098 54.7362 Q-9.9348 54.7362 -9.5989 54.8143 Q-9.2629 54.8924 -8.8879 55.0643 L-9.1536 55.658 Q-9.4036 55.5018 -9.7239 55.4159 Q-10.0442 55.3299 -10.3098 55.3299 Q-10.8411 55.3299 -11.1614 55.6034 Q-11.4817 55.8768 -11.4817 56.3455 Q-11.4817 56.5487 -11.4114 56.6971 Q-11.3411 56.8455 -11.2004 56.9784 Q-11.0598 57.1112 -10.6379 57.3612 Q-10.0754 57.7049 -9.8723 57.9002 Q-9.6692 58.0955 -9.5676 58.3299 Q-9.4661 58.5643 -9.4661 58.8768 ZM-6.8716 57.158 Q-6.8716 58.4862 -7.3481 59.619 Q-7.8247 60.7518 -8.8403 61.7987 L-9.4497 61.7987 Q-7.5122 59.6424 -7.5122 57.158 Q-7.5122 55.8299 -7.9497 54.8143 L-7.4341 54.8143 Q-6.8716 55.8768 -6.8716 57.158 Z" /><ns0:path style="fill:none; stroke:black;" d="M-110.0431 -27.91 L-109.554 -28.014 L-109.2194 -27.6424" /><ns0:path style="fill:none; stroke:black;" d="M-138.4079 -21.881 L-138.897 -21.777 L-139.0515 -21.3015" /><ns0:path style="fill:none; stroke:black;" d="M-100.4385 -56.0685 L-100.284 -56.544 L-100.6185 -56.9156" /><ns0:path style="fill:none; stroke:black;" d="M-158.6354 -43.6984 L-158.97 -44.07 L-158.8155 -44.5455" /><ns0:path style="fill:none; stroke:black;" d="M-120.0225 -78.4684 L-120.357 -78.84 L-120.8461 -78.736" /><ns0:path style="fill:none; stroke:black;" d="M-149.8545 -72.1275 L-149.7 -72.603 L-149.2109 -72.707" /><ns0:path style="fill:none; stroke:black;" d="M80.026 -45.193 L79.776 -44.76 L79.276 -44.76" /><ns0:path style="fill:none; stroke:black;" d="M94.526 -70.307 L94.776 -70.74 L94.526 -71.173" /><ns0:path style="fill:none; stroke:black;" d="M94.526 -19.21 L94.776 -18.777 L95.276 -18.777" /><ns0:path style="fill:none; stroke:black;" d="M124.276 -70.74 L124.776 -70.74 L125.026 -70.307" /><ns0:path style="fill:none; stroke:black;" d="M124.276 -18.777 L124.776 -18.777 L125.026 -19.21" /><ns0:path style="fill:none; stroke:black;" d="M139.526 -45.193 L139.776 -44.76 L140.276 -44.76" /></ns0:g></ns0:g></ns0:svg></ns0:svg></ns0:svg></ns0:svg></g></svg>