<svg width="250" viewBox="0 0 250 72" style="fill-opacity:1; color-rendering:auto; color-interpolation:auto; text-rendering:auto; stroke:black; stroke-linecap:square; stroke-miterlimit:10; shape-rendering:auto; stroke-opacity:1; fill:black; stroke-dasharray:none; font-weight:normal; stroke-width:1; font-family:'Open Sans'; font-style:normal; stroke-linejoin:miter; font-size:12; stroke-dashoffset:0; image-rendering:auto;" height="72" class="cas-substance-image" xmlns:xlink="http://www.w3.org/1999/xlink" xmlns="http://www.w3.org/2000/svg"><svg class="cas-substance-single-component"><rect y="0" x="0" width="250" stroke="none" ry="7" rx="7" height="72" fill="white" class="cas-substance-group"/><svg y="0" x="0" width="250" viewBox="0 0 250 72" style="fill:black;" height="72" class="cas-substance-single-component-image"><svg><g><g transform="translate(119,40)" style="text-rendering:geometricPrecision; color-rendering:optimizeQuality; color-interpolation:linearRGB; stroke-linecap:butt; image-rendering:optimizeQuality;"><line y2="17.1492" y1="3.8906" x2="-110.0386" x1="-100.4052" style="fill:none;"/><line y2="19.2065" y1="5.9479" x2="-107.2071" x1="-97.5737" style="fill:none;"/><line y2="-22.8519" y1="-7.8001" x2="-102.6717" x1="-95.9704" style="fill:none;"/><line y2="-21.4284" y1="-6.3766" x2="-105.8691" x1="-99.1679" style="fill:none;"/><line y2="2.28" y1="-0.2939" x2="-64.956" x1="-89.4534" style="fill:none;"/><line y2="-10.7471" y1="-22.812" x2="29.4014" x1="8.505" style="fill:none;"/><line y2="-13.7782" y1="-24.8327" x2="31.1514" x1="12.005" style="fill:none;"/><line y2="-7.812" y1="-22.812" x2="-17.478" x1="8.505" style="fill:none;"/><line y2="-19.8769" y1="-10.7471" x2="55.3814" x1="39.5686" style="fill:none;"/><line y2="-7.812" y1="-19.8769" x2="86.445" x1="65.5486" style="fill:none;"/><line y2="-19.8772" y1="-7.812" x2="107.3444" x1="86.445" style="fill:none;"/><line y2="15.7114" y1="-8.8224" x2="84.695" x1="84.695" style="fill:none;"/><line y2="15.7114" y1="-8.8223" x2="88.195" x1="88.195" style="fill:none;"/><line y2="-15.319" y1="2.28" x2="-49.1096" x1="-64.956" style="fill:none;"/><line y2="28.26" y1="2.28" x2="-49.956" x1="-64.956" style="fill:none;"/><line y2="24.76" y1="2.2799" x2="-47.9353" x1="-60.9146" style="fill:none;"/><line y2="-7.812" y1="-17.4465" x2="-17.478" x1="-39.1184" style="fill:none;"/><line y2="22.023" y1="28.26" x2="-20.613" x1="-49.956" style="fill:none;"/><line y2="22.023" y1="-7.812" x2="-20.613" x1="-17.478" style="fill:none;"/><line y2="19.6476" y1="-6.1681" x2="-23.8827" x1="-21.17" style="fill:none;"/></g><g transform="translate(119,40)" style="fill:rgb(0,5,255); text-rendering:geometricPrecision; color-rendering:optimizeQuality; image-rendering:optimizeQuality; font-family:'Open Sans'; stroke:rgb(0,5,255); color-interpolation:linearRGB;"><path style="stroke:none;" d="M-91.4424 3.3012 L-92.5831 3.3012 L-97.2706 -3.8863 L-97.3174 -3.8863 Q-97.2237 -2.6206 -97.2237 -1.5738 L-97.2237 3.3012 L-98.1456 3.3012 L-98.1456 -5.2613 L-97.0206 -5.2613 L-92.3487 1.895 L-92.3018 1.895 Q-92.3018 1.7387 -92.3487 0.8794 Q-92.3956 0.02 -92.3799 -0.355 L-92.3799 -5.2613 L-91.4424 -5.2613 L-91.4424 3.3012 Z"/><path style="fill:rgb(230,0,0); stroke:none;" d="M-108.4905 23.3447 Q-108.4905 25.4072 -109.5296 26.5869 Q-110.5686 27.7666 -112.4124 27.7666 Q-114.303 27.7666 -115.3343 26.6025 Q-116.3655 25.4384 -116.3655 23.3291 Q-116.3655 21.2353 -115.3343 20.0869 Q-114.303 18.9384 -112.4124 18.9384 Q-110.553 18.9384 -109.5218 20.1103 Q-108.4905 21.2822 -108.4905 23.3447 ZM-115.3186 23.3447 Q-115.3186 25.0791 -114.5764 25.9853 Q-113.8343 26.8916 -112.4124 26.8916 Q-110.9905 26.8916 -110.2639 25.9931 Q-109.5374 25.0947 -109.5374 23.3447 Q-109.5374 21.6103 -110.2639 20.7197 Q-110.9905 19.8291 -112.4124 19.8291 Q-113.8343 19.8291 -114.5764 20.7275 Q-115.3186 21.6259 -115.3186 23.3447 Z"/><path style="fill:rgb(230,0,0); stroke:none;" d="M-103.0575 -28.3303 Q-103.0575 -26.2678 -104.0966 -25.0881 Q-105.1356 -23.9084 -106.9794 -23.9084 Q-108.87 -23.9084 -109.9012 -25.0725 Q-110.9325 -26.2366 -110.9325 -28.3459 Q-110.9325 -30.4397 -109.9012 -31.5881 Q-108.87 -32.7366 -106.9794 -32.7366 Q-105.12 -32.7366 -104.0887 -31.5647 Q-103.0575 -30.3928 -103.0575 -28.3303 ZM-109.8856 -28.3303 Q-109.8856 -26.5959 -109.1434 -25.6897 Q-108.4012 -24.7834 -106.9794 -24.7834 Q-105.5575 -24.7834 -104.8309 -25.6819 Q-104.1044 -26.5803 -104.1044 -28.3303 Q-104.1044 -30.0647 -104.8309 -30.9553 Q-105.5575 -31.8459 -106.9794 -31.8459 Q-108.4012 -31.8459 -109.1434 -30.9475 Q-109.8856 -30.0491 -109.8856 -28.3303 Z"/></g><g transform="translate(119,40)" style="stroke-linecap:butt; text-rendering:geometricPrecision; color-rendering:optimizeQuality; image-rendering:optimizeQuality; font-family:'Open Sans'; color-interpolation:linearRGB; stroke-miterlimit:5;"><path style="fill:none;" d="M8.938 -22.562 L8.505 -22.812 L8.072 -22.562"/><path style="fill:rgb(0,5,255); stroke:none;" d="M37.8366 -3.6557 L36.6959 -3.6557 L32.0084 -10.8433 L31.9616 -10.8433 Q32.0553 -9.5776 32.0553 -8.5308 L32.0553 -3.6557 L31.1334 -3.6557 L31.1334 -12.2183 L32.2584 -12.2183 L36.9303 -5.062 L36.9772 -5.062 Q36.9772 -5.2182 36.9303 -6.0776 Q36.8834 -6.937 36.8991 -7.312 L36.8991 -12.2183 L37.8366 -12.2183 L37.8366 -3.6557 Z"/><path style="fill:rgb(0,5,255); stroke:none;" d="M63.8166 -18.6558 L62.6759 -18.6558 L57.9884 -25.8433 L57.9416 -25.8433 Q58.0353 -24.5776 58.0353 -23.5308 L58.0353 -18.6558 L57.1134 -18.6558 L57.1134 -27.2183 L58.2384 -27.2183 L62.9103 -20.062 L62.9572 -20.062 Q62.9572 -20.2183 62.9103 -21.0776 Q62.8634 -21.937 62.8791 -22.312 L62.8791 -27.2183 L63.8166 -27.2183 L63.8166 -18.6558 Z"/><path style="fill:rgb(0,5,255); stroke:none;" d="M63.7228 -28.2183 L62.7228 -28.2183 L62.7228 -32.2495 L58.2072 -32.2495 L58.2072 -28.2183 L57.2072 -28.2183 L57.2072 -36.7808 L58.2072 -36.7808 L58.2072 -33.1401 L62.7228 -33.1401 L62.7228 -36.7808 L63.7228 -36.7808 L63.7228 -28.2183 Z"/><path style="fill:none;" d="M86.012 -8.062 L86.445 -7.812 L86.878 -8.062"/><path style="fill:rgb(0,5,255); stroke:none;" d="M115.7796 -18.6558 L114.6389 -18.6558 L109.9514 -25.8433 L109.9046 -25.8433 Q109.9983 -24.5776 109.9983 -23.5308 L109.9983 -18.6558 L109.0764 -18.6558 L109.0764 -27.2183 L110.2014 -27.2183 L114.8733 -20.062 L114.9202 -20.062 Q114.9202 -20.2183 114.8733 -21.0776 Q114.8264 -21.937 114.8421 -22.312 L114.8421 -27.2183 L115.7796 -27.2183 L115.7796 -18.6558 Z"/><path style="fill:rgb(0,5,255); stroke:none;" d="M123.2952 -18.6558 L122.2952 -18.6558 L122.2952 -22.687 L117.7796 -22.687 L117.7796 -18.6558 L116.7796 -18.6558 L116.7796 -27.2183 L117.7796 -27.2183 L117.7796 -23.5776 L122.2952 -23.5776 L122.2952 -27.2183 L123.2952 -27.2183 L123.2952 -18.6558 Z"/><path style="fill:rgb(0,5,255); stroke:none;" d="M128.0452 -16.8464 L124.2952 -16.8464 L124.2952 -17.4089 L125.7952 -18.9245 Q126.4827 -19.612 126.7014 -19.9089 Q126.9202 -20.2057 127.0296 -20.487 Q127.1389 -20.7682 127.1389 -21.0964 Q127.1389 -21.5495 126.8655 -21.8151 Q126.5921 -22.0807 126.0921 -22.0807 Q125.7483 -22.0807 125.428 -21.9636 Q125.1077 -21.8464 124.7171 -21.5495 L124.3733 -21.987 Q125.1546 -22.6432 126.0921 -22.6432 Q126.8889 -22.6432 127.3499 -22.2292 Q127.8108 -21.8151 127.8108 -21.1276 Q127.8108 -20.5807 127.5061 -20.0495 Q127.2014 -19.5182 126.3577 -18.7057 L125.1077 -17.487 L125.1077 -17.4557 L128.0452 -17.4557 L128.0452 -16.8464 Z"/><path style="fill:rgb(230,0,0); stroke:none;" d="M90.3825 22.1177 Q90.3825 24.1802 89.3434 25.3599 Q88.3044 26.5396 86.4606 26.5396 Q84.57 26.5396 83.5387 25.3755 Q82.5075 24.2114 82.5075 22.1021 Q82.5075 20.0083 83.5387 18.8599 Q84.57 17.7114 86.4606 17.7114 Q88.32 17.7114 89.3512 18.8833 Q90.3825 20.0552 90.3825 22.1177 ZM83.5544 22.1177 Q83.5544 23.8521 84.2966 24.7583 Q85.0387 25.6646 86.4606 25.6646 Q87.8825 25.6646 88.6091 24.7661 Q89.3356 23.8677 89.3356 22.1177 Q89.3356 20.3833 88.6091 19.4927 Q87.8825 18.6021 86.4606 18.6021 Q85.0387 18.6021 84.2966 19.5005 Q83.5544 20.3989 83.5544 22.1177 Z"/><path style="fill:none;" d="M-64.706 2.713 L-64.956 2.28 L-65.4533 2.2278"/><path style="fill:rgb(230,0,0); stroke:none;" d="M-40.9455 -20.0833 Q-40.9455 -18.0208 -41.9846 -16.8411 Q-43.0236 -15.6614 -44.8674 -15.6614 Q-46.758 -15.6614 -47.7892 -16.8255 Q-48.8205 -17.9896 -48.8205 -20.0989 Q-48.8205 -22.1927 -47.7892 -23.3411 Q-46.758 -24.4896 -44.8674 -24.4896 Q-43.008 -24.4896 -41.9767 -23.3177 Q-40.9455 -22.1458 -40.9455 -20.0833 ZM-47.7736 -20.0833 Q-47.7736 -18.3489 -47.0314 -17.4427 Q-46.2892 -16.5364 -44.8674 -16.5364 Q-43.4455 -16.5364 -42.7189 -17.4349 Q-41.9924 -18.3333 -41.9924 -20.0833 Q-41.9924 -21.8177 -42.7189 -22.7083 Q-43.4455 -23.5989 -44.8674 -23.5989 Q-46.2892 -23.5989 -47.0314 -22.7005 Q-47.7736 -21.8021 -47.7736 -20.0833 Z"/><path style="fill:none;" d="M-50.206 27.827 L-49.956 28.26 L-49.4669 28.156"/><path style="fill:none;" d="M-17.5303 -7.3147 L-17.478 -7.812 L-17.9348 -8.0154"/><path style="fill:none;" d="M-21.1021 22.127 L-20.613 22.023 L-20.5607 21.5257"/></g></g></svg></svg></svg></svg>