<svg xmlns:ns0="http://www.w3.org/2000/svg" xmlns="http://www.w3.org/2000/svg"><g transform="translate(0, 0)"><ns0:svg width="187" viewBox="0 0 187 75" style="fill-opacity:1; color-rendering:auto; color-interpolation:auto; text-rendering:auto; stroke:black; stroke-linecap:square; stroke-miterlimit:10; shape-rendering:auto; stroke-opacity:1; fill:black; stroke-dasharray:none; font-weight:normal; stroke-width:1; font-family:'Open Sans'; font-style:normal; stroke-linejoin:miter; font-size:12; stroke-dashoffset:0; image-rendering:auto;" height="75" class="cas-substance-image"><ns0:svg class="cas-substance-single-component"><ns0:rect y="0" x="0" width="187" stroke="none" ry="7" rx="7" height="75" fill="white" class="cas-substance-group" /><ns0:svg y="0" x="0" width="187" viewBox="0 0 187 75" style="fill:black;" height="75" class="cas-substance-single-component-image"><ns0:svg><ns0:g><ns0:g transform="translate(92,41)" style="text-rendering:geometricPrecision; color-rendering:optimizeQuality; color-interpolation:linearRGB; stroke-linecap:butt; image-rendering:optimizeQuality;"><ns0:line y2="-15" y1="-30" x2="62.055" x1="36.072" style="fill:none;" /><ns0:line y2="-15" y1="-30" x2="10.092" x1="36.072" style="fill:none;" /><ns0:line y2="8.5234" y1="-15" x2="62.055" x1="62.055" style="fill:none;" /><ns0:line y2="-25.2956" y1="-12.9793" x2="83.387" x1="62.055" style="fill:none;" /><ns0:line y2="-28.3267" y1="-16.0103" x2="81.6369" x1="60.3049" style="fill:none;" /><ns0:line y2="15" y1="-15" x2="-41.868" x1="-41.868" style="fill:none;" /><ns0:line y2="-30" y1="-15" x2="-15.888" x1="-41.868" style="fill:none;" /><ns0:line y2="-25.9585" y1="-12.9793" x2="-15.8879" x1="-38.368" style="fill:none;" /><ns0:line y2="-22.5631" y1="-15" x2="-65.1473" x1="-41.868" style="fill:none;" /><ns0:line y2="30" y1="15" x2="-15.888" x1="-41.868" style="fill:none;" /><ns0:line y2="25.9585" y1="12.9793" x2="-15.8879" x1="-38.368" style="fill:none;" /><ns0:line y2="24.27" y1="15" x2="-70.401" x1="-41.868" style="fill:none;" /><ns0:line y2="-15" y1="-30" x2="10.092" x1="-15.888" style="fill:none;" /><ns0:line y2="0" y1="-18.4957" x2="-88.035" x1="-74.5964" style="fill:none;" /><ns0:line y2="15" y1="30" x2="10.092" x1="-15.888" style="fill:none;" /><ns0:line y2="0" y1="24.27" x2="-88.035" x1="-70.401" style="fill:none;" /><ns0:line y2="-0.4225" y1="20.5779" x2="-84.0157" x1="-68.7573" style="fill:none;" /><ns0:line y2="15" y1="-15" x2="10.092" x1="10.092" style="fill:none;" /><ns0:line y2="12.9793" y1="-12.9793" x2="6.592" x1="6.592" style="fill:none;" /><ns0:path style="fill:none; stroke-miterlimit:5;" d="M36.505 -29.75 L36.072 -30 L35.639 -29.75" /><ns0:path style="fill:none; stroke-miterlimit:5;" d="M61.622 -15.25 L62.055 -15 L62.055 -14.5" /></ns0:g><ns0:g transform="translate(92,41)" style="stroke-linecap:butt; fill:rgb(230,0,0); text-rendering:geometricPrecision; color-rendering:optimizeQuality; image-rendering:optimizeQuality; font-family:'Open Sans'; stroke:rgb(230,0,0); color-interpolation:linearRGB; stroke-miterlimit:5;"><ns0:path style="stroke:none;" d="M65.9925 14.9297 Q65.9925 16.9922 64.9534 18.1719 Q63.9144 19.3516 62.0706 19.3516 Q60.18 19.3516 59.1488 18.1875 Q58.1175 17.0234 58.1175 14.9141 Q58.1175 12.8203 59.1488 11.6719 Q60.18 10.5234 62.0706 10.5234 Q63.93 10.5234 64.9613 11.6953 Q65.9925 12.8672 65.9925 14.9297 ZM59.1644 14.9297 Q59.1644 16.6641 59.9066 17.5703 Q60.6488 18.4766 62.0706 18.4766 Q63.4925 18.4766 64.2191 17.5781 Q64.9456 16.6797 64.9456 14.9297 Q64.9456 13.1953 64.2191 12.3047 Q63.4925 11.4141 62.0706 11.4141 Q60.6488 11.4141 59.9066 12.3125 Q59.1644 13.2109 59.1644 14.9297 Z" /><ns0:path style="stroke:none;" d="M73.5081 19.2266 L72.5081 19.2266 L72.5081 15.1953 L67.9925 15.1953 L67.9925 19.2266 L66.9925 19.2266 L66.9925 10.6641 L67.9925 10.6641 L67.9925 14.3047 L72.5081 14.3047 L72.5081 10.6641 L73.5081 10.6641 L73.5081 19.2266 Z" /><ns0:path style="stroke:none;" d="M91.9725 -30.0703 Q91.9725 -28.0078 90.9334 -26.8281 Q89.8944 -25.6484 88.0506 -25.6484 Q86.16 -25.6484 85.1287 -26.8125 Q84.0975 -27.9766 84.0975 -30.0859 Q84.0975 -32.1797 85.1287 -33.3281 Q86.16 -34.4766 88.0506 -34.4766 Q89.91 -34.4766 90.9412 -33.3047 Q91.9725 -32.1328 91.9725 -30.0703 ZM85.1444 -30.0703 Q85.1444 -28.3359 85.8866 -27.4297 Q86.6287 -26.5234 88.0506 -26.5234 Q89.4725 -26.5234 90.1991 -27.4219 Q90.9256 -28.3203 90.9256 -30.0703 Q90.9256 -31.8047 90.1991 -32.6953 Q89.4725 -33.5859 88.0506 -33.5859 Q86.6287 -33.5859 85.8866 -32.6875 Q85.1444 -31.7891 85.1444 -30.0703 Z" /><ns0:path style="fill:none; stroke:black;" d="M-41.435 -15.25 L-41.868 -15 L-42.3435 -15.1545" /><ns0:path style="fill:none; stroke:black;" d="M-41.435 15.25 L-41.868 15 L-42.3435 15.1545" /><ns0:path style="fill:none; stroke:black;" d="M-16.321 -29.75 L-15.888 -30 L-15.455 -29.75" /><ns0:path style="fill:rgb(0,5,255); stroke:none;" d="M-67.0494 -20.1138 L-68.1901 -20.1138 L-72.8776 -27.3013 L-72.9244 -27.3013 Q-72.8307 -26.0356 -72.8307 -24.9888 L-72.8307 -20.1138 L-73.7526 -20.1138 L-73.7526 -28.6763 L-72.6276 -28.6763 L-67.9557 -21.52 L-67.9088 -21.52 Q-67.9088 -21.6763 -67.9557 -22.5356 Q-68.0026 -23.395 -67.9869 -23.77 L-67.9869 -28.6763 L-67.0494 -28.6763 L-67.0494 -20.1138 Z" /><ns0:path style="fill:rgb(0,5,255); stroke:none;" d="M-67.1432 -29.6763 L-68.1432 -29.6763 L-68.1432 -33.7075 L-72.6588 -33.7075 L-72.6588 -29.6763 L-73.6588 -29.6763 L-73.6588 -38.2388 L-72.6588 -38.2388 L-72.6588 -34.5981 L-68.1432 -34.5981 L-68.1432 -38.2388 L-67.1432 -38.2388 L-67.1432 -29.6763 Z" /><ns0:path style="fill:none; stroke:black;" d="M-16.321 29.75 L-15.888 30 L-15.455 29.75" /><ns0:path style="fill:none; stroke:black;" d="M-69.9255 24.1155 L-70.401 24.27 L-70.6949 23.8655" /><ns0:path style="fill:none; stroke:black;" d="M10.092 -14.5 L10.092 -15 L10.525 -15.25" /><ns0:path style="fill:none; stroke:black;" d="M-87.7411 -0.4045 L-88.035 0 L-87.7411 0.4045" /><ns0:path style="fill:none; stroke:black;" d="M9.659 15.25 L10.092 15 L10.092 14.5" /></ns0:g></ns0:g></ns0:svg></ns0:svg></ns0:svg></ns0:svg></g></svg>