<svg xmlns:ns0="http://www.w3.org/2000/svg" xmlns="http://www.w3.org/2000/svg"><g transform="translate(0, 0)"><ns0:svg width="208" viewBox="0 0 208 152" style="fill-opacity:1; color-rendering:auto; color-interpolation:auto; text-rendering:auto; stroke:black; stroke-linecap:square; stroke-miterlimit:10; shape-rendering:auto; stroke-opacity:1; fill:black; stroke-dasharray:none; font-weight:normal; stroke-width:1; font-family:'Open Sans'; font-style:normal; stroke-linejoin:miter; font-size:12; stroke-dashoffset:0; image-rendering:auto;" height="152" class="cas-substance-image"><ns0:svg class="cas-substance-single-component"><ns0:rect y="0" x="0" width="208" stroke="none" ry="7" rx="7" height="152" fill="white" class="cas-substance-group" /><ns0:svg y="0" x="0" width="208" viewBox="0 0 208 152" style="fill:black;" height="152" class="cas-substance-single-component-image"><ns0:svg><ns0:g><ns0:g transform="translate(110,75)" style="text-rendering:geometricPrecision; color-rendering:optimizeQuality; color-interpolation:linearRGB; stroke-linecap:butt; image-rendering:optimizeQuality;"><ns0:line y2="-52.5" y1="-63.9492" x2="12.99" x1="-6.84" style="fill:none;" /><ns0:line y2="37.5" y1="61.0938" x2="-38.97" x1="-38.97" style="fill:none;" /><ns0:line y2="-7.5" y1="-19.5649" x2="-64.953" x1="-85.8494" style="fill:none;" /><ns0:line y2="-22.5" y1="-10.7473" x2="64.953" x1="85.3087" style="fill:none;" /><ns0:line y2="16.0938" y1="-7.5" x2="-12.99" x1="-12.99" style="fill:none;" /><ns0:line y2="-19.5649" y1="-7.5" x2="-33.8864" x1="-12.99" style="fill:none;" /><ns0:line y2="-16.5338" y1="-5.4793" x2="-35.6364" x1="-16.49" style="fill:none;" /><ns0:line y2="-22.5" y1="-7.5" x2="12.99" x1="-12.99" style="fill:none;" /><ns0:line y2="37.5" y1="25.4351" x2="-38.97" x1="-18.0736" style="fill:none;" /><ns0:line y2="33.4585" y1="22.404" x2="-38.9701" x1="-19.8236" style="fill:none;" /><ns0:line y2="-7.5" y1="-19.5652" x2="-64.953" x1="-44.0536" style="fill:none;" /><ns0:line y2="25.4348" y1="37.5" x2="-59.8694" x1="-38.97" style="fill:none;" /><ns0:line y2="16.0938" y1="-7.5" x2="-64.953" x1="-64.953" style="fill:none;" /><ns0:line y2="16.0938" y1="-5.4793" x2="-61.453" x1="-61.453" style="fill:none;" /><ns0:line y2="-52.5" y1="-22.5" x2="12.99" x1="12.99" style="fill:none;" /><ns0:line y2="-50.4793" y1="-24.5207" x2="16.49" x1="16.49" style="fill:none;" /><ns0:line y2="-7.5" y1="-22.5" x2="38.97" x1="12.99" style="fill:none;" /><ns0:line y2="-67.5" y1="-52.5" x2="38.97" x1="12.99" style="fill:none;" /><ns0:line y2="-22.5" y1="-7.5" x2="64.953" x1="38.97" style="fill:none;" /><ns0:line y2="-24.5209" y1="-11.5415" x2="61.4531" x1="38.9702" style="fill:none;" /><ns0:line y2="-52.5" y1="-67.5" x2="64.953" x1="38.97" style="fill:none;" /><ns0:line y2="-50.4791" y1="-63.4585" x2="61.4531" x1="38.9702" style="fill:none;" /><ns0:line y2="-52.5" y1="-22.5" x2="64.953" x1="64.953" style="fill:none;" /></ns0:g><ns0:g transform="translate(110,75)" style="fill:rgb(0,138,0); text-rendering:geometricPrecision; color-rendering:optimizeQuality; image-rendering:optimizeQuality; font-family:'Open Sans'; stroke:rgb(0,138,0); color-interpolation:linearRGB;"><ns0:path style="stroke:none;" d="M-13.2986 -70.8594 Q-14.7048 -70.8594 -15.5252 -69.9219 Q-16.3455 -68.9844 -16.3455 -67.3438 Q-16.3455 -65.6719 -15.5564 -64.75 Q-14.7673 -63.8281 -13.3142 -63.8281 Q-12.408 -63.8281 -11.2673 -64.1562 L-11.2673 -63.2812 Q-12.158 -62.9375 -13.4548 -62.9375 Q-15.3455 -62.9375 -16.3767 -64.0938 Q-17.408 -65.25 -17.408 -67.3594 Q-17.408 -68.6875 -16.9158 -69.6797 Q-16.4236 -70.6719 -15.4861 -71.2109 Q-14.5486 -71.75 -13.283 -71.75 Q-11.9392 -71.75 -10.9236 -71.2656 L-11.3455 -70.4062 Q-12.3298 -70.8594 -13.2986 -70.8594 ZM-8.572 -63.0625 L-9.5408 -63.0625 L-9.5408 -72.1875 L-8.572 -72.1875 L-8.572 -63.0625 Z" /><ns0:path style="fill:rgb(0,5,255); stroke:none;" d="M-35.6184 71.6562 L-36.7591 71.6562 L-41.4466 64.4688 L-41.4934 64.4688 Q-41.3997 65.7344 -41.3997 66.7812 L-41.3997 71.6562 L-42.3216 71.6562 L-42.3216 63.0938 L-41.1966 63.0938 L-36.5247 70.25 L-36.4778 70.25 Q-36.4778 70.0938 -36.5247 69.2344 Q-36.5716 68.375 -36.5559 68 L-36.5559 63.0938 L-35.6184 63.0938 L-35.6184 71.6562 Z" /><ns0:path style="fill:rgb(0,5,255); stroke:none;" d="M-28.1028 71.6562 L-29.1028 71.6562 L-29.1028 67.625 L-33.6184 67.625 L-33.6184 71.6562 L-34.6184 71.6562 L-34.6184 63.0938 L-33.6184 63.0938 L-33.6184 66.7344 L-29.1028 66.7344 L-29.1028 63.0938 L-28.1028 63.0938 L-28.1028 71.6562 Z" /><ns0:path style="fill:rgb(0,5,255); stroke:none;" d="M-23.3528 73.4656 L-27.1028 73.4656 L-27.1028 72.9031 L-25.6028 71.3875 Q-24.9153 70.7 -24.6966 70.4031 Q-24.4778 70.1062 -24.3684 69.825 Q-24.2591 69.5437 -24.2591 69.2156 Q-24.2591 68.7625 -24.5325 68.4969 Q-24.8059 68.2312 -25.3059 68.2312 Q-25.6497 68.2312 -25.97 68.3484 Q-26.2903 68.4656 -26.6809 68.7625 L-27.0247 68.325 Q-26.2434 67.6687 -25.3059 67.6687 Q-24.5091 67.6687 -24.0481 68.0828 Q-23.5872 68.4969 -23.5872 69.1844 Q-23.5872 69.7312 -23.8919 70.2625 Q-24.1966 70.7937 -25.0403 71.6062 L-26.2903 72.825 L-26.2903 72.8562 L-23.3528 72.8562 L-23.3528 73.4656 Z" /><ns0:path style="fill:rgb(0,5,255); stroke:none;" d="M-87.5814 -18.3438 L-88.7221 -18.3438 L-93.4096 -25.5312 L-93.4564 -25.5312 Q-93.3627 -24.2656 -93.3627 -23.2188 L-93.3627 -18.3438 L-94.2846 -18.3438 L-94.2846 -26.9062 L-93.1596 -26.9062 L-88.4877 -19.75 L-88.4408 -19.75 Q-88.4408 -19.9062 -88.4877 -20.7656 Q-88.5346 -21.625 -88.5189 -22 L-88.5189 -26.9062 L-87.5814 -26.9062 L-87.5814 -18.3438 Z" /><ns0:path style="fill:rgb(0,5,255); stroke:none;" d="M-100.0346 -18.3438 L-101.0346 -18.3438 L-101.0346 -22.375 L-105.5502 -22.375 L-105.5502 -18.3438 L-106.5502 -18.3438 L-106.5502 -26.9062 L-105.5502 -26.9062 L-105.5502 -23.2656 L-101.0346 -23.2656 L-101.0346 -26.9062 L-100.0346 -26.9062 L-100.0346 -18.3438 Z" /><ns0:path style="fill:rgb(0,5,255); stroke:none;" d="M-95.2846 -16.5344 L-99.0346 -16.5344 L-99.0346 -17.0969 L-97.5346 -18.6125 Q-96.8471 -19.3 -96.6283 -19.5969 Q-96.4096 -19.8937 -96.3002 -20.175 Q-96.1908 -20.4562 -96.1908 -20.7844 Q-96.1908 -21.2375 -96.4642 -21.5031 Q-96.7377 -21.7687 -97.2377 -21.7687 Q-97.5814 -21.7687 -97.9017 -21.6516 Q-98.2221 -21.5344 -98.6127 -21.2375 L-98.9564 -21.675 Q-98.1752 -22.3312 -97.2377 -22.3312 Q-96.4408 -22.3312 -95.9799 -21.9172 Q-95.5189 -21.5031 -95.5189 -20.8156 Q-95.5189 -20.2687 -95.8236 -19.7375 Q-96.1283 -19.2062 -96.9721 -18.3937 L-98.2221 -17.175 L-98.2221 -17.1437 L-95.2846 -17.1437 L-95.2846 -16.5344 Z" /><ns0:path style="stroke:none;" d="M90.6244 -10.8594 Q89.2182 -10.8594 88.3978 -9.9219 Q87.5775 -8.9844 87.5775 -7.3438 Q87.5775 -5.6719 88.3666 -4.75 Q89.1557 -3.8281 90.6088 -3.8281 Q91.515 -3.8281 92.6557 -4.1562 L92.6557 -3.2812 Q91.765 -2.9375 90.4682 -2.9375 Q88.5775 -2.9375 87.5463 -4.0938 Q86.515 -5.25 86.515 -7.3594 Q86.515 -8.6875 87.0072 -9.6797 Q87.4994 -10.6719 88.4369 -11.2109 Q89.3744 -11.75 90.64 -11.75 Q91.9838 -11.75 92.9994 -11.2656 L92.5775 -10.4062 Q91.5932 -10.8594 90.6244 -10.8594 ZM95.351 -3.0625 L94.3822 -3.0625 L94.3822 -12.1875 L95.351 -12.1875 L95.351 -3.0625 Z" /></ns0:g><ns0:g transform="translate(110,75)" style="stroke-linecap:butt; text-rendering:geometricPrecision; color-rendering:optimizeQuality; image-rendering:optimizeQuality; font-family:'Open Sans'; color-interpolation:linearRGB; stroke-miterlimit:5;"><ns0:path style="fill:none;" d="M-13.423 -7.75 L-12.99 -7.5 L-12.557 -7.75" /><ns0:path style="fill:rgb(0,5,255); stroke:none;" d="M-9.6384 26.6562 L-10.7791 26.6562 L-15.4666 19.4688 L-15.5134 19.4688 Q-15.4197 20.7344 -15.4197 21.7812 L-15.4197 26.6562 L-16.3416 26.6562 L-16.3416 18.0938 L-15.2166 18.0938 L-10.5447 25.25 L-10.4978 25.25 Q-10.4978 25.0938 -10.5447 24.2344 Q-10.5916 23.375 -10.5759 23 L-10.5759 18.0938 L-9.6384 18.0938 L-9.6384 26.6562 Z" /><ns0:path style="fill:rgb(0,5,255); stroke:none;" d="M-35.6184 -18.3438 L-36.7591 -18.3438 L-41.4466 -25.5312 L-41.4934 -25.5312 Q-41.3997 -24.2656 -41.3997 -23.2188 L-41.3997 -18.3438 L-42.3216 -18.3438 L-42.3216 -26.9062 L-41.1966 -26.9062 L-36.5247 -19.75 L-36.4778 -19.75 Q-36.4778 -19.9062 -36.5247 -20.7656 Q-36.5716 -21.625 -36.5559 -22 L-36.5559 -26.9062 L-35.6184 -26.9062 L-35.6184 -18.3438 Z" /><ns0:path style="fill:none;" d="M-38.537 37.25 L-38.97 37.5 L-38.97 38" /><ns0:path style="fill:none;" d="M-64.953 -7 L-64.953 -7.5 L-65.386 -7.75" /><ns0:path style="fill:rgb(0,5,255); stroke:none;" d="M-61.6014 26.6562 L-62.7421 26.6562 L-67.4296 19.4688 L-67.4764 19.4688 Q-67.3827 20.7344 -67.3827 21.7812 L-67.3827 26.6562 L-68.3046 26.6562 L-68.3046 18.0938 L-67.1796 18.0938 L-62.5077 25.25 L-62.4608 25.25 Q-62.4608 25.0938 -62.5077 24.2344 Q-62.5546 23.375 -62.5389 23 L-62.5389 18.0938 L-61.6014 18.0938 L-61.6014 26.6562 Z" /><ns0:path style="fill:none;" d="M12.99 -23 L12.99 -22.5 L12.557 -22.25" /><ns0:path style="fill:none;" d="M12.99 -52 L12.99 -52.5 L12.557 -52.75" /><ns0:path style="fill:none;" d="M38.537 -7.75 L38.97 -7.5 L39.403 -7.75" /><ns0:path style="fill:none;" d="M38.537 -67.25 L38.97 -67.5 L39.403 -67.25" /><ns0:path style="fill:none;" d="M64.52 -22.25 L64.953 -22.5 L64.953 -23" /><ns0:path style="fill:none;" d="M64.52 -52.75 L64.953 -52.5 L64.953 -52" /></ns0:g></ns0:g></ns0:svg></ns0:svg></ns0:svg></ns0:svg></g></svg>