<svg xmlns:ns0="http://www.w3.org/2000/svg" xmlns="http://www.w3.org/2000/svg"><g transform="translate(0, 0)"><ns0:svg width="170" viewBox="0 0 170 124" style="fill-opacity:1; color-rendering:auto; color-interpolation:auto; text-rendering:auto; stroke:black; stroke-linecap:square; stroke-miterlimit:10; shape-rendering:auto; stroke-opacity:1; fill:black; stroke-dasharray:none; font-weight:normal; stroke-width:1; font-family:'Open Sans'; font-style:normal; stroke-linejoin:miter; font-size:12; stroke-dashoffset:0; image-rendering:auto;" height="124" class="cas-substance-image"><ns0:svg class="cas-substance-single-component"><ns0:rect y="0" x="0" width="170" stroke="none" ry="7" rx="7" height="124" fill="white" class="cas-substance-group" /><ns0:svg y="0" x="0" width="170" viewBox="0 0 170 124" style="fill:black;" height="124" class="cas-substance-single-component-image"><ns0:svg><ns0:g><ns0:g transform="translate(77,62)" style="text-rendering:geometricPrecision; color-rendering:optimizeQuality; color-interpolation:linearRGB; stroke-linecap:butt; image-rendering:optimizeQuality;"><ns0:line y2="-31.1951" y1="-49.739" x2="13.5027" x1="30.1999" style="fill:none;" /><ns0:line y2="-28.8532" y1="-47.397" x2="16.1037" x1="32.8009" style="fill:none;" /><ns0:line y2="13.374" y1="1.3088" x2="47.871" x1="68.7704" style="fill:none;" /><ns0:line y2="-6.699" y1="13.374" x2="-26.385" x1="-4.089" style="fill:none;" /><ns0:line y2="-1.626" y1="13.374" x2="21.891" x1="-4.089" style="fill:none;" /><ns0:line y2="43.374" y1="13.374" x2="-4.089" x1="-4.089" style="fill:none;" /><ns0:line y2="41.3533" y1="15.3947" x2="-0.589" x1="-0.589" style="fill:none;" /><ns0:line y2="-34.104" y1="-6.699" x2="-14.181" x1="-26.385" style="fill:none;" /><ns0:line y2="-3.564" y1="-6.699" x2="-56.22" x1="-26.385" style="fill:none;" /><ns0:line y2="-7.256" y1="-9.9687" x2="-54.5761" x1="-28.7604" style="fill:none;" /><ns0:line y2="-30.969" y1="-1.626" x2="15.654" x1="21.891" style="fill:none;" /><ns0:line y2="13.374" y1="-1.626" x2="47.871" x1="21.891" style="fill:none;" /><ns0:line y2="15.3947" y1="2.4155" x2="44.371" x1="21.8909" style="fill:none;" /><ns0:line y2="58.374" y1="43.374" x2="21.891" x1="-4.089" style="fill:none;" /><ns0:line y2="-30.969" y1="-34.104" x2="15.654" x1="-14.181" style="fill:none;" /><ns0:line y2="-58.374" y1="-34.104" x2="-31.815" x1="-14.181" style="fill:none;" /><ns0:line y2="-54.6819" y1="-33.6815" x2="-33.4587" x1="-18.2003" style="fill:none;" /><ns0:line y2="-27.834" y1="-3.564" x2="-73.854" x1="-56.22" style="fill:none;" /><ns0:line y2="43.374" y1="13.374" x2="47.871" x1="47.871" style="fill:none;" /><ns0:line y2="43.374" y1="58.374" x2="47.871" x1="21.891" style="fill:none;" /><ns0:line y2="41.3533" y1="54.3325" x2="44.371" x1="21.8909" style="fill:none;" /><ns0:line y2="-55.239" y1="-58.374" x2="-61.65" x1="-31.815" style="fill:none;" /><ns0:line y2="-55.239" y1="-27.834" x2="-61.65" x1="-73.854" style="fill:none;" /><ns0:line y2="-51.9692" y1="-28.2561" x2="-59.2747" x1="-69.8347" style="fill:none;" /></ns0:g><ns0:g transform="translate(77,62)" style="fill:rgb(230,0,0); text-rendering:geometricPrecision; color-rendering:optimizeQuality; image-rendering:optimizeQuality; font-family:'Open Sans'; stroke:rgb(230,0,0); color-interpolation:linearRGB;"><ns0:path style="stroke:none;" d="M39.6645 -53.3323 Q39.6645 -51.2698 38.6254 -50.0901 Q37.5864 -48.9104 35.7426 -48.9104 Q33.852 -48.9104 32.8207 -50.0745 Q31.7895 -51.2386 31.7895 -53.3479 Q31.7895 -55.4417 32.8207 -56.5901 Q33.852 -57.7386 35.7426 -57.7386 Q37.602 -57.7386 38.6332 -56.5667 Q39.6645 -55.3948 39.6645 -53.3323 ZM32.8364 -53.3323 Q32.8364 -51.5979 33.5786 -50.6917 Q34.3207 -49.7854 35.7426 -49.7854 Q37.1645 -49.7854 37.8911 -50.6839 Q38.6176 -51.5823 38.6176 -53.3323 Q38.6176 -55.0667 37.8911 -55.9573 Q37.1645 -56.8479 35.7426 -56.8479 Q34.3207 -56.8479 33.5786 -55.9495 Q32.8364 -55.0511 32.8364 -53.3323 Z" /><ns0:path style="fill:rgb(0,5,255); stroke:none;" d="M77.2056 2.5303 L76.0649 2.5303 L71.3774 -4.6572 L71.3306 -4.6572 Q71.4243 -3.3916 71.4243 -2.3447 L71.4243 2.5303 L70.5024 2.5303 L70.5024 -6.0322 L71.6274 -6.0322 L76.2993 1.124 L76.3462 1.124 Q76.3462 0.9678 76.2993 0.1084 Q76.2524 -0.751 76.2681 -1.126 L76.2681 -6.0322 L77.2056 -6.0322 L77.2056 2.5303 Z" /><ns0:path style="fill:rgb(0,5,255); stroke:none;" d="M84.7212 2.5303 L83.7212 2.5303 L83.7212 -1.501 L79.2056 -1.501 L79.2056 2.5303 L78.2056 2.5303 L78.2056 -6.0322 L79.2056 -6.0322 L79.2056 -2.3916 L83.7212 -2.3916 L83.7212 -6.0322 L84.7212 -6.0322 L84.7212 2.5303 Z" /><ns0:path style="fill:rgb(0,5,255); stroke:none;" d="M89.4712 4.3396 L85.7212 4.3396 L85.7212 3.7771 L87.2212 2.2615 Q87.9087 1.574 88.1274 1.2771 Q88.3462 0.9803 88.4556 0.699 Q88.5649 0.4178 88.5649 0.0896 Q88.5649 -0.3635 88.2915 -0.6291 Q88.0181 -0.8947 87.5181 -0.8947 Q87.1743 -0.8947 86.854 -0.7776 Q86.5337 -0.6604 86.1431 -0.3635 L85.7993 -0.801 Q86.5806 -1.4572 87.5181 -1.4572 Q88.3149 -1.4572 88.7759 -1.0432 Q89.2368 -0.6291 89.2368 0.0584 Q89.2368 0.6053 88.9321 1.1365 Q88.6274 1.6678 87.7837 2.4803 L86.5337 3.699 L86.5337 3.7303 L89.4712 3.7303 L89.4712 4.3396 Z" /></ns0:g><ns0:g transform="translate(77,62)" style="stroke-linecap:butt; font-size:8.4px; text-rendering:geometricPrecision; color-rendering:optimizeQuality; image-rendering:optimizeQuality; font-family:'Open Sans'; color-interpolation:linearRGB; stroke-miterlimit:5;"><ns0:path style="fill:none;" d="M-4.089 13.874 L-4.089 13.374 L-4.4606 13.0395" /><ns0:path style="fill:none;" d="M-26.8823 -6.6467 L-26.385 -6.699 L-26.1816 -7.1558" /><ns0:path style="fill:none;" d="M22.324 -1.376 L21.891 -1.626 L21.458 -1.376" /><ns0:path style="fill:none;" d="M-4.089 42.874 L-4.089 43.374 L-3.656 43.624" /><ns0:path style="fill:none;" d="M-14.4749 -34.5085 L-14.181 -34.104 L-14.3844 -33.6472" /><ns0:path style="fill:none;" d="M-55.7227 -3.6163 L-56.22 -3.564 L-56.5139 -3.9685" /><ns0:path style="fill:none;" d="M15.758 -30.4799 L15.654 -30.969 L15.1567 -31.0213" /><ns0:path style="fill:none;" d="M47.438 13.124 L47.871 13.374 L47.871 13.874" /><ns0:path style="fill:none;" d="M21.458 58.124 L21.891 58.374 L22.324 58.124" /><ns0:path style="fill:none;" d="M-31.5211 -57.9695 L-31.815 -58.374 L-32.3123 -58.3217" /><ns0:path style="fill:none;" d="M-73.5601 -27.4295 L-73.854 -27.834 L-73.6506 -28.2908" /><ns0:path style="fill:none;" d="M47.871 42.874 L47.871 43.374 L47.438 43.624" /><ns0:path style="fill:none;" d="M-61.1527 -55.2912 L-61.65 -55.239 L-61.8534 -54.7822" /></ns0:g></ns0:g></ns0:svg></ns0:svg></ns0:svg></ns0:svg></g></svg>