<svg xmlns:ns0="http://www.w3.org/2000/svg" xmlns="http://www.w3.org/2000/svg"><g transform="translate(0, 0)"><ns0:svg width="233" viewBox="0 0 233 172" style="fill-opacity:1; color-rendering:auto; color-interpolation:auto; text-rendering:auto; stroke:black; stroke-linecap:square; stroke-miterlimit:10; shape-rendering:auto; stroke-opacity:1; fill:black; stroke-dasharray:none; font-weight:normal; stroke-width:1; font-family:'Open Sans'; font-style:normal; stroke-linejoin:miter; font-size:12; stroke-dashoffset:0; image-rendering:auto;" height="172" class="cas-substance-image"><ns0:svg class="cas-substance-single-component"><ns0:rect y="0" x="0" width="233" stroke="none" ry="7" rx="7" height="172" fill="white" class="cas-substance-group" /><ns0:svg y="0" x="0" width="233" viewBox="0 0 233 172" style="fill:black;" height="172" class="cas-substance-single-component-image"><ns0:svg><ns0:g><ns0:g transform="translate(122,86)" style="text-rendering:geometricPrecision; color-rendering:optimizeQuality; color-interpolation:linearRGB; stroke-linecap:butt; image-rendering:optimizeQuality;"><ns0:path style="stroke:none;" d="M-62.6182 -19.2683 L-63.5318 -18.8617 L-75.2923 -39.1329 L-69.8109 -41.573 Z" /><ns0:line y2="-52.647" y1="-73.6137" x2="60.8893" x1="72.9948" style="fill:none;" /><ns0:line y2="-50.897" y1="-71.8637" x2="63.9204" x1="76.0258" style="fill:none;" /><ns0:line y2="74.3539" y1="58.554" x2="-46.6887" x1="-64.236" style="fill:none;" /><ns0:path style="stroke:none;" d="M-58.7825 30.064 L-59.0768 31.0235 L-59.0768 31.0235 L-57.7717 31.3019 L-57.7717 31.3019 L-57.6409 30.3075 L-58.7825 30.064 ZM-59.6655 32.9426 L-59.9598 33.9022 L-58.1642 34.2852 L-58.1642 34.2852 L-58.0333 33.2908 L-58.0333 33.2908 L-59.6655 32.9426 ZM-60.5485 35.8213 L-60.8428 36.7808 L-60.8428 36.7808 L-58.5566 37.2685 L-58.5566 37.2685 L-58.4258 36.2741 L-58.4258 36.2741 L-60.5485 35.8213 ZM-61.4315 38.6999 L-61.7258 39.6595 L-61.7258 39.6595 L-58.9491 40.2518 L-58.9491 40.2518 L-58.8182 39.2574 L-58.8182 39.2574 L-61.4315 38.6999 ZM-62.3144 41.5786 L-62.6088 42.5382 L-62.6088 42.5382 L-59.3415 43.2351 L-59.3415 43.2351 L-59.2107 42.2406 L-59.2107 42.2406 L-62.3144 41.5786 ZM-63.1974 44.4573 L-63.4917 45.4168 L-63.4917 45.4168 L-59.734 46.2184 L-59.734 46.2184 L-59.6031 45.2239 L-59.6031 45.2239 L-63.1974 44.4573 ZM-64.0804 47.3359 L-64.3747 48.2955 L-64.3747 48.2955 L-60.1264 49.2017 L-60.1264 49.2017 L-59.9956 48.2072 L-59.9956 48.2072 L-64.0804 47.3359 ZM-64.9634 50.2146 L-65.2577 51.1741 L-60.5189 52.185 L-60.3881 51.1905 L-60.3881 51.1905 L-64.9634 50.2146 ZM-65.8464 53.0933 L-66.1407 54.0528 L-66.1407 54.0528 L-60.9113 55.1683 L-60.9113 55.1683 L-60.7805 54.1738 L-60.7805 54.1738 L-65.8464 53.0933 ZM-66.7293 55.9719 L-66.8104 56.236 L-65.732 57.207 L-61.3038 58.1516 L-61.3038 58.1516 L-61.173 57.1571 L-61.173 57.1571 L-66.7293 55.9719 Z" /><ns0:path style="stroke:none;" d="M-78.1273 6.4177 L-78.0227 7.4123 L-101.6699 12.4108 L-102.297 6.4437 Z" /><ns0:line y2="-26.667" y1="-26.667" x2="83.2616" x1="107.91" style="fill:none;" /><ns0:line y2="-26.667" y1="-31.7759" x2="17.91" x1="-6.1281" style="fill:none;" /><ns0:line y2="-62.739" y1="-39.2993" x2="-14.571" x1="-12.108" style="fill:none;" /><ns0:path style="stroke:none;" d="M-18.7838 -30.217 L-19.4556 -29.4688 L-15.6889 -25.2871 L-15.6889 -25.2871 L-14.8746 -25.8772 L-14.8746 -25.8772 L-18.7838 -30.217 ZM-20.7992 -27.9724 L-21.471 -27.2242 L-21.471 -27.2242 L-18.1316 -23.517 L-18.1316 -23.517 L-17.3173 -24.107 L-17.3173 -24.107 L-20.7992 -27.9724 ZM-22.8145 -25.7279 L-23.4863 -24.9797 L-20.5742 -21.7468 L-19.76 -22.3369 L-19.76 -22.3369 L-22.8145 -25.7279 ZM-24.8299 -23.4833 L-25.5017 -22.7351 L-23.0169 -19.9767 L-23.0169 -19.9767 L-22.2027 -20.5667 L-22.2027 -20.5667 L-24.8299 -23.4833 ZM-26.8453 -21.2388 L-27.517 -20.4906 L-27.517 -20.4906 L-25.4596 -18.2065 L-24.6454 -18.7966 L-24.6454 -18.7966 L-26.8453 -21.2388 ZM-28.8606 -18.9942 L-29.5324 -18.246 L-29.5324 -18.246 L-27.9023 -16.4364 L-27.9023 -16.4364 L-27.0881 -17.0264 L-27.0881 -17.0264 L-28.8606 -18.9942 ZM-30.876 -16.7497 L-31.5478 -16.0015 L-31.5478 -16.0015 L-30.345 -14.6662 L-30.345 -14.6662 L-29.5308 -15.2563 L-30.876 -16.7497 ZM-32.8913 -14.5051 L-33.5631 -13.7569 L-32.7877 -12.8961 L-32.7877 -12.8961 L-31.9735 -13.4862 L-32.8913 -14.5051 Z" /><ns0:line y2="-52.647" y1="-26.667" x2="32.91" x1="17.91" style="fill:none;" /><ns0:line y2="-52.647" y1="-30.167" x2="28.8685" x1="15.8893" style="fill:none;" /><ns0:line y2="-6.8223" y1="-26.667" x2="29.3663" x1="17.91" style="fill:none;" /><ns0:line y2="-72.6344" y1="-62.739" x2="7.6553" x1="-14.571" style="fill:none;" /><ns0:line y2="-69.437" y1="-60.3634" x2="9.0789" x1="-11.3014" style="fill:none;" /><ns0:line y2="-69.7321" y1="-52.647" x2="17.5239" x1="32.91" style="fill:none;" /><ns0:line y2="-52.647" y1="-52.647" x2="62.91" x1="32.91" style="fill:none;" /><ns0:line y2="-0.684" y1="-0.684" x2="62.91" x1="38.2616" style="fill:none;" /><ns0:line y2="-4.184" y1="-4.184" x2="60.8893" x1="38.2616" style="fill:none;" /><ns0:line y2="-32.8053" y1="-52.647" x2="74.366" x1="62.91" style="fill:none;" /><ns0:line y2="-20.7787" y1="-0.684" x2="74.5107" x1="62.91" style="fill:none;" /><ns0:line y2="10.5414" y1="-12.828" x2="-31.2734" x1="-33.729" style="fill:none;" /><ns0:line y2="-19.065" y1="-12.828" x2="-63.075" x1="-33.729" style="fill:none;" /><ns0:line y2="29.208" y1="19.5735" x2="-57.999" x1="-36.3586" style="fill:none;" /><ns0:line y2="6.915" y1="-19.065" x2="-78.075" x1="-63.075" style="fill:none;" /><ns0:line y2="6.915" y1="29.208" x2="-78.075" x1="-57.999" style="fill:none;" /></ns0:g><ns0:g transform="translate(122,86)" style="fill:rgb(230,0,0); text-rendering:geometricPrecision; color-rendering:optimizeQuality; image-rendering:optimizeQuality; font-family:'Open Sans'; stroke:rgb(230,0,0); color-interpolation:linearRGB;"><ns0:path style="stroke:none;" d="M-71.3385 -46.5433 Q-71.3385 -44.4808 -72.3776 -43.3011 Q-73.4166 -42.1214 -75.2604 -42.1214 Q-77.151 -42.1214 -78.1823 -43.2855 Q-79.2135 -44.4496 -79.2135 -46.5589 Q-79.2135 -48.6527 -78.1823 -49.8011 Q-77.151 -50.9496 -75.2604 -50.9496 Q-73.401 -50.9496 -72.3698 -49.7777 Q-71.3385 -48.6058 -71.3385 -46.5433 ZM-78.1666 -46.5433 Q-78.1666 -44.8089 -77.4244 -43.9027 Q-76.6823 -42.9964 -75.2604 -42.9964 Q-73.8385 -42.9964 -73.1119 -43.8949 Q-72.3854 -44.7933 -72.3854 -46.5433 Q-72.3854 -48.2777 -73.1119 -49.1683 Q-73.8385 -50.0589 -75.2604 -50.0589 Q-76.6823 -50.0589 -77.4244 -49.1605 Q-78.1666 -48.2621 -78.1666 -46.5433 Z" /><ns0:path style="stroke:none;" d="M-80.2135 -42.2464 L-81.2135 -42.2464 L-81.2135 -46.2777 L-85.7291 -46.2777 L-85.7291 -42.2464 L-86.7291 -42.2464 L-86.7291 -50.8089 L-85.7291 -50.8089 L-85.7291 -47.1683 L-81.2135 -47.1683 L-81.2135 -50.8089 L-80.2135 -50.8089 L-80.2135 -42.2464 Z" /><ns0:path style="fill:rgb(0,5,255); stroke:none;" d="M81.2616 -74.4707 L80.1209 -74.4707 L75.4334 -81.6582 L75.3866 -81.6582 Q75.4803 -80.3926 75.4803 -79.3457 L75.4803 -74.4707 L74.5584 -74.4707 L74.5584 -83.0332 L75.6834 -83.0332 L80.3553 -75.877 L80.4022 -75.877 Q80.4022 -76.0332 80.3553 -76.8926 Q80.3084 -77.752 80.3241 -78.127 L80.3241 -83.0332 L81.2616 -83.0332 L81.2616 -74.4707 Z" /><ns0:path style="fill:rgb(0,5,255); stroke:none;" d="M88.7772 -74.4707 L87.7772 -74.4707 L87.7772 -78.502 L83.2616 -78.502 L83.2616 -74.4707 L82.2616 -74.4707 L82.2616 -83.0332 L83.2616 -83.0332 L83.2616 -79.3926 L87.7772 -79.3926 L87.7772 -83.0332 L88.7772 -83.0332 L88.7772 -74.4707 Z" /><ns0:path style="stroke:none;" d="M-38.0055 78.5567 Q-38.0055 80.6192 -39.0446 81.7989 Q-40.0836 82.9786 -41.9274 82.9786 Q-43.818 82.9786 -44.8493 81.8145 Q-45.8805 80.6504 -45.8805 78.5411 Q-45.8805 76.4473 -44.8493 75.2989 Q-43.818 74.1504 -41.9274 74.1504 Q-40.068 74.1504 -39.0368 75.3223 Q-38.0055 76.4942 -38.0055 78.5567 ZM-44.8336 78.5567 Q-44.8336 80.2911 -44.0914 81.1973 Q-43.3493 82.1036 -41.9274 82.1036 Q-40.5055 82.1036 -39.7789 81.2051 Q-39.0524 80.3067 -39.0524 78.5567 Q-39.0524 76.8223 -39.7789 75.9317 Q-40.5055 75.0411 -41.9274 75.0411 Q-43.3493 75.0411 -44.0914 75.9395 Q-44.8336 76.8379 -44.8336 78.5567 Z" /><ns0:path style="stroke:none;" d="M-30.4899 82.8536 L-31.4899 82.8536 L-31.4899 78.8223 L-36.0055 78.8223 L-36.0055 82.8536 L-37.0055 82.8536 L-37.0055 74.2911 L-36.0055 74.2911 L-36.0055 77.9317 L-31.4899 77.9317 L-31.4899 74.2911 L-30.4899 74.2911 L-30.4899 82.8536 Z" /><ns0:path style="stroke:none;" d="M-103.9725 9.9797 Q-103.9725 12.0422 -105.0116 13.2219 Q-106.0506 14.4016 -107.8944 14.4016 Q-109.785 14.4016 -110.8162 13.2375 Q-111.8475 12.0734 -111.8475 9.9641 Q-111.8475 7.8703 -110.8162 6.7219 Q-109.785 5.5734 -107.8944 5.5734 Q-106.035 5.5734 -105.0037 6.7453 Q-103.9725 7.9172 -103.9725 9.9797 ZM-110.8006 9.9797 Q-110.8006 11.7141 -110.0584 12.6203 Q-109.3162 13.5266 -107.8944 13.5266 Q-106.4725 13.5266 -105.7459 12.6281 Q-105.0194 11.7297 -105.0194 9.9797 Q-105.0194 8.2453 -105.7459 7.3547 Q-106.4725 6.4641 -107.8944 6.4641 Q-109.3162 6.4641 -110.0584 7.3625 Q-110.8006 8.2609 -110.8006 9.9797 Z" /><ns0:path style="stroke:none;" d="M-112.8475 14.2766 L-113.8475 14.2766 L-113.8475 10.2453 L-118.3631 10.2453 L-118.3631 14.2766 L-119.3631 14.2766 L-119.3631 5.7141 L-118.3631 5.7141 L-118.3631 9.3547 L-113.8475 9.3547 L-113.8475 5.7141 L-112.8475 5.7141 L-112.8475 14.2766 Z" /><ns0:path style="fill:rgb(0,5,255); stroke:none;" d="M-8.0844 -28.7477 L-9.2251 -28.7477 L-13.9126 -35.9352 L-13.9594 -35.9352 Q-13.8657 -34.6696 -13.8657 -33.6227 L-13.8657 -28.7477 L-14.7876 -28.7477 L-14.7876 -37.3102 L-13.6626 -37.3102 L-8.9907 -30.154 L-8.9438 -30.154 Q-8.9438 -30.3102 -8.9907 -31.1696 Q-9.0376 -32.029 -9.0219 -32.404 L-9.0219 -37.3102 L-8.0844 -37.3102 L-8.0844 -28.7477 Z" /></ns0:g><ns0:g transform="translate(122,86)" style="stroke-linecap:butt; text-rendering:geometricPrecision; color-rendering:optimizeQuality; image-rendering:optimizeQuality; font-family:'Open Sans'; color-interpolation:linearRGB; stroke-miterlimit:5;"><ns0:path style="fill:none;" d="M18.16 -27.1 L17.91 -26.667 L17.4209 -26.7709" /><ns0:path style="fill:none;" d="M-14.5187 -62.2417 L-14.571 -62.739 L-14.1142 -62.9424" /><ns0:path style="fill:none;" d="M32.66 -52.214 L32.91 -52.647 L32.5754 -53.0185" /><ns0:path style="fill:rgb(0,5,255); stroke:none;" d="M36.2616 3.4722 L35.1209 3.4722 L30.4334 -3.7153 L30.3866 -3.7153 Q30.4803 -2.4496 30.4803 -1.4028 L30.4803 3.4722 L29.5584 3.4722 L29.5584 -5.0903 L30.6834 -5.0903 L35.3553 2.066 L35.4022 2.066 Q35.4022 1.9097 35.3553 1.0504 Q35.3084 0.191 35.3241 -0.184 L35.3241 -5.0903 L36.2616 -5.0903 L36.2616 3.4722 Z" /><ns0:path style="fill:rgb(0,5,255); stroke:none;" d="M16.1856 -70.7837 L15.0449 -70.7837 L10.3574 -77.9712 L10.3106 -77.9712 Q10.4043 -76.7056 10.4043 -75.6587 L10.4043 -70.7837 L9.4824 -70.7837 L9.4824 -79.3462 L10.6074 -79.3462 L15.2793 -72.19 L15.3262 -72.19 Q15.3262 -72.3462 15.2793 -73.2056 Q15.2324 -74.065 15.2481 -74.44 L15.2481 -79.3462 L16.1856 -79.3462 L16.1856 -70.7837 Z" /><ns0:path style="fill:none;" d="M62.41 -52.647 L62.91 -52.647 L63.16 -52.214" /><ns0:path style="fill:none;" d="M62.41 -0.684 L62.91 -0.684 L63.16 -1.117" /><ns0:path style="fill:rgb(0,5,255); stroke:none;" d="M81.2616 -22.5107 L80.1209 -22.5107 L75.4334 -29.6982 L75.3866 -29.6982 Q75.4803 -28.4326 75.4803 -27.3857 L75.4803 -22.5107 L74.5584 -22.5107 L74.5584 -31.0732 L75.6834 -31.0732 L80.3553 -23.917 L80.4022 -23.917 Q80.4022 -24.0732 80.3553 -24.9326 Q80.3084 -25.792 80.3241 -26.167 L80.3241 -31.0732 L81.2616 -31.0732 L81.2616 -22.5107 Z" /><ns0:path style="fill:none;" d="M-33.6768 -12.3307 L-33.729 -12.828 L-34.2181 -12.9319" /></ns0:g><ns0:g transform="translate(122,86)" style="stroke-linecap:butt; font-size:8.4px; fill:gray; text-rendering:geometricPrecision; image-rendering:optimizeQuality; color-rendering:optimizeQuality; font-family:'Open Sans'; font-style:italic; stroke:gray; color-interpolation:linearRGB; stroke-miterlimit:5;"><ns0:path style="stroke:none;" d="M-40.7063 -21.3231 Q-40.7063 -22.6512 -40.2376 -23.7762 Q-39.7688 -24.9012 -38.7376 -25.9793 L-38.1282 -25.9793 Q-39.097 -24.9168 -39.5813 -23.7449 Q-40.0657 -22.5731 -40.0657 -21.3387 Q-40.0657 -20.0106 -39.6282 -18.9949 L-40.1438 -18.9949 Q-40.7063 -20.0262 -40.7063 -21.3231 ZM-37.1463 -22.6356 L-37.6463 -20.2606 L-38.3025 -20.2606 L-37.0994 -25.9793 L-35.8494 -25.9793 Q-34.115 -25.9793 -34.115 -24.5418 Q-34.115 -23.1824 -35.5525 -22.7918 L-34.615 -20.2606 L-35.3338 -20.2606 L-36.1619 -22.6356 L-37.1463 -22.6356 ZM-36.5681 -25.3856 Q-36.9588 -23.4637 -37.0213 -23.2137 L-36.365 -23.2137 Q-35.615 -23.2137 -35.2088 -23.5418 Q-34.8025 -23.8699 -34.8025 -24.4949 Q-34.8025 -24.9637 -35.0603 -25.1746 Q-35.3181 -25.3856 -35.9119 -25.3856 L-36.5681 -25.3856 ZM-31.9291 -23.6356 Q-31.9291 -22.3074 -32.4056 -21.1746 Q-32.8822 -20.0418 -33.8978 -18.9949 L-34.5072 -18.9949 Q-32.5697 -21.1512 -32.5697 -23.6356 Q-32.5697 -24.9637 -33.0072 -25.9793 L-32.4916 -25.9793 Q-31.9291 -24.9168 -31.9291 -23.6356 Z" /></ns0:g><ns0:g transform="translate(122,86)" style="stroke-linecap:butt; fill:rgb(230,0,0); text-rendering:geometricPrecision; color-rendering:optimizeQuality; image-rendering:optimizeQuality; font-family:'Open Sans'; stroke:rgb(230,0,0); color-interpolation:linearRGB; stroke-miterlimit:5;"><ns0:path style="stroke:none;" d="M-26.6565 16.9367 Q-26.6565 18.9992 -27.6956 20.1789 Q-28.7346 21.3586 -30.5784 21.3586 Q-32.469 21.3586 -33.5002 20.1945 Q-34.5315 19.0304 -34.5315 16.9211 Q-34.5315 14.8273 -33.5002 13.6789 Q-32.469 12.5304 -30.5784 12.5304 Q-28.719 12.5304 -27.6877 13.7023 Q-26.6565 14.8742 -26.6565 16.9367 ZM-33.4846 16.9367 Q-33.4846 18.6711 -32.7424 19.5773 Q-32.0002 20.4836 -30.5784 20.4836 Q-29.1565 20.4836 -28.4299 19.5851 Q-27.7034 18.6867 -27.7034 16.9367 Q-27.7034 15.2023 -28.4299 14.3117 Q-29.1565 13.4211 -30.5784 13.4211 Q-32.0002 13.4211 -32.7424 14.3195 Q-33.4846 15.2179 -33.4846 16.9367 Z" /></ns0:g><ns0:g transform="translate(122,86)" style="stroke-linecap:butt; font-size:8.4px; fill:gray; text-rendering:geometricPrecision; image-rendering:optimizeQuality; color-rendering:optimizeQuality; font-family:'Open Sans'; font-style:italic; stroke:gray; color-interpolation:linearRGB; stroke-miterlimit:5;"><ns0:path style="stroke:none;" d="M-77.4499 -18.4246 Q-77.4499 -19.7528 -76.9812 -20.8778 Q-76.5124 -22.0028 -75.4812 -23.0809 L-74.8718 -23.0809 Q-75.8405 -22.0184 -76.3249 -20.8465 Q-76.8093 -19.6746 -76.8093 -18.4403 Q-76.8093 -17.1121 -76.3718 -16.0965 L-76.8874 -16.0965 Q-77.4499 -17.1278 -77.4499 -18.4246 ZM-73.8899 -19.7371 L-74.3899 -17.3621 L-75.0461 -17.3621 L-73.843 -23.0809 L-72.593 -23.0809 Q-70.8586 -23.0809 -70.8586 -21.6434 Q-70.8586 -20.284 -72.2961 -19.8934 L-71.3586 -17.3621 L-72.0774 -17.3621 L-72.9055 -19.7371 L-73.8899 -19.7371 ZM-73.3117 -22.4871 Q-73.7024 -20.5653 -73.7649 -20.3153 L-73.1086 -20.3153 Q-72.3586 -20.3153 -71.9524 -20.6434 Q-71.5461 -20.9715 -71.5461 -21.5965 Q-71.5461 -22.0653 -71.8039 -22.2762 Q-72.0617 -22.4871 -72.6555 -22.4871 L-73.3117 -22.4871 ZM-68.6726 -20.7371 Q-68.6726 -19.409 -69.1492 -18.2762 Q-69.6258 -17.1434 -70.6414 -16.0965 L-71.2508 -16.0965 Q-69.3133 -18.2528 -69.3133 -20.7371 Q-69.3133 -22.0653 -69.7508 -23.0809 L-69.2351 -23.0809 Q-68.6726 -22.0184 -68.6726 -20.7371 Z" /><ns0:path style="fill:none; stroke:black;" d="M-57.5422 29.0046 L-57.999 29.208 L-58.3336 28.8365" /><ns0:path style="stroke:none;" d="M-72.0468 32.9608 Q-72.0468 31.6326 -71.578 30.5076 Q-71.1093 29.3826 -70.078 28.3045 L-69.4686 28.3045 Q-70.4374 29.367 -70.9218 30.5389 Q-71.4061 31.7108 -71.4061 32.9451 Q-71.4061 34.2733 -70.9686 35.2889 L-71.4843 35.2889 Q-72.0468 34.2576 -72.0468 32.9608 ZM-68.4867 31.6483 L-68.9867 34.0233 L-69.643 34.0233 L-68.4398 28.3045 L-67.1898 28.3045 Q-65.4555 28.3045 -65.4555 29.742 Q-65.4555 31.1014 -66.893 31.492 L-65.9555 34.0233 L-66.6742 34.0233 L-67.5023 31.6483 L-68.4867 31.6483 ZM-67.9086 28.8983 Q-68.2992 30.8201 -68.3617 31.0701 L-67.7055 31.0701 Q-66.9555 31.0701 -66.5492 30.742 Q-66.143 30.4139 -66.143 29.7889 Q-66.143 29.3201 -66.4008 29.1092 Q-66.6586 28.8983 -67.2523 28.8983 L-67.9086 28.8983 ZM-63.2695 30.6483 Q-63.2695 31.9764 -63.746 33.1092 Q-64.2226 34.242 -65.2382 35.2889 L-65.8476 35.2889 Q-63.9101 33.1326 -63.9101 30.6483 Q-63.9101 29.3201 -64.3476 28.3045 L-63.832 28.3045 Q-63.2695 29.367 -63.2695 30.6483 Z" /><ns0:path style="stroke:none;" d="M-85.7669 17.454 Q-85.7669 16.1259 -85.2982 15.0009 Q-84.8294 13.8759 -83.7982 12.7978 L-83.1888 12.7978 Q-84.1576 13.8603 -84.6419 15.0322 Q-85.1263 16.204 -85.1263 17.4384 Q-85.1263 18.7665 -84.6888 19.7822 L-85.2044 19.7822 Q-85.7669 18.7509 -85.7669 17.454 ZM-80.1444 16.8603 Q-80.1444 17.6884 -80.6913 18.1415 Q-81.2381 18.5947 -82.2381 18.5947 Q-82.6444 18.5947 -82.9569 18.54 Q-83.2694 18.4853 -83.5506 18.3447 L-83.5506 17.6884 Q-82.9256 18.0165 -82.2225 18.0165 Q-81.5975 18.0165 -81.2225 17.7197 Q-80.8475 17.4228 -80.8475 16.9072 Q-80.8475 16.5947 -81.0506 16.3681 Q-81.2538 16.1415 -81.8163 15.8134 Q-82.41 15.4853 -82.6366 15.1572 Q-82.8631 14.829 -82.8631 14.3759 Q-82.8631 13.6415 -82.3475 13.1806 Q-81.8319 12.7197 -80.9881 12.7197 Q-80.6131 12.7197 -80.2772 12.7978 Q-79.9413 12.8759 -79.5663 13.0478 L-79.8319 13.6415 Q-80.0819 13.4853 -80.4022 13.3993 Q-80.7225 13.3134 -80.9881 13.3134 Q-81.5194 13.3134 -81.8397 13.5868 Q-82.16 13.8603 -82.16 14.329 Q-82.16 14.5322 -82.0897 14.6806 Q-82.0194 14.829 -81.8788 14.9618 Q-81.7381 15.0947 -81.3163 15.3447 Q-80.7538 15.6884 -80.5506 15.8837 Q-80.3475 16.079 -80.2459 16.3134 Q-80.1444 16.5478 -80.1444 16.8603 ZM-77.5499 15.1415 Q-77.5499 16.4697 -78.0265 17.6025 Q-78.503 18.7353 -79.5186 19.7822 L-80.128 19.7822 Q-78.1905 17.6259 -78.1905 15.1415 Q-78.1905 13.8134 -78.628 12.7978 L-78.1124 12.7978 Q-77.5499 13.8603 -77.5499 15.1415 Z" /></ns0:g></ns0:g></ns0:svg></ns0:svg></ns0:svg></ns0:svg></g></svg>