<svg xmlns:ns0="http://www.w3.org/2000/svg" xmlns="http://www.w3.org/2000/svg"><g transform="translate(0, 0)"><ns0:svg width="219" viewBox="0 0 219 60" style="fill-opacity:1; color-rendering:auto; color-interpolation:auto; text-rendering:auto; stroke:black; stroke-linecap:square; stroke-miterlimit:10; shape-rendering:auto; stroke-opacity:1; fill:black; stroke-dasharray:none; font-weight:normal; stroke-width:1; font-family:'Open Sans'; font-style:normal; stroke-linejoin:miter; font-size:12; stroke-dashoffset:0; image-rendering:auto;" height="60" class="cas-substance-image"><ns0:svg class="cas-substance-single-component"><ns0:rect y="0" x="0" width="219" stroke="none" ry="7" rx="7" height="60" fill="white" class="cas-substance-group" /><ns0:svg y="0" x="0" width="219" viewBox="0 0 219 60" style="fill:black;" height="60" class="cas-substance-single-component-image"><ns0:svg><ns0:g><ns0:g transform="translate(110,30)" style="text-rendering:geometricPrecision; color-rendering:optimizeQuality; color-interpolation:linearRGB; stroke-linecap:butt; image-rendering:optimizeQuality;"><ns0:line y2="-22.5" y1="-7.5" x2="-38.97" x1="-12.99" style="fill:none;" /><ns0:line y2="-22.5" y1="-7.5" x2="12.99" x1="-12.99" style="fill:none;" /><ns0:line y2="-7.5" y1="-22.5" x2="-64.953" x1="-38.97" style="fill:none;" /><ns0:line y2="-7.5" y1="-22.5" x2="38.97" x1="12.99" style="fill:none;" /><ns0:line y2="-19.5649" y1="-7.5" x2="-85.8494" x1="-64.953" style="fill:none;" /><ns0:line y2="16.0234" y1="-8.5104" x2="-66.703" x1="-66.703" style="fill:none;" /><ns0:line y2="16.0234" y1="-8.5103" x2="-63.203" x1="-63.203" style="fill:none;" /><ns0:line y2="-22.5" y1="-7.5" x2="64.953" x1="38.97" style="fill:none;" /><ns0:line y2="-10.4351" y1="-22.5" x2="85.8494" x1="64.953" style="fill:none;" /><ns0:path style="fill:none; stroke-miterlimit:5;" d="M-13.423 -7.75 L-12.99 -7.5 L-12.557 -7.75" /><ns0:path style="fill:none; stroke-miterlimit:5;" d="M-38.537 -22.25 L-38.97 -22.5 L-39.403 -22.25" /><ns0:path style="fill:none; stroke-miterlimit:5;" d="M12.557 -22.25 L12.99 -22.5 L13.423 -22.25" /><ns0:path style="fill:none; stroke-miterlimit:5;" d="M-64.52 -7.75 L-64.953 -7.5 L-65.386 -7.75" /><ns0:path style="fill:none; stroke-miterlimit:5;" d="M38.537 -7.75 L38.97 -7.5 L39.403 -7.75" /></ns0:g><ns0:g transform="translate(110,30)" style="stroke-linecap:butt; fill:rgb(0,5,255); text-rendering:geometricPrecision; color-rendering:optimizeQuality; image-rendering:optimizeQuality; font-family:'Open Sans'; stroke:rgb(0,5,255); color-interpolation:linearRGB; stroke-miterlimit:5;"><ns0:path style="stroke:none;" d="M-87.5814 -18.3438 L-88.7221 -18.3438 L-93.4096 -25.5312 L-93.4564 -25.5312 Q-93.3627 -24.2656 -93.3627 -23.2188 L-93.3627 -18.3438 L-94.2846 -18.3438 L-94.2846 -26.9062 L-93.1596 -26.9062 L-88.4877 -19.75 L-88.4408 -19.75 Q-88.4408 -19.9062 -88.4877 -20.7656 Q-88.5346 -21.625 -88.5189 -22 L-88.5189 -26.9062 L-87.5814 -26.9062 L-87.5814 -18.3438 Z" /><ns0:path style="stroke:none;" d="M-100.0346 -18.3438 L-101.0346 -18.3438 L-101.0346 -22.375 L-105.5502 -22.375 L-105.5502 -18.3438 L-106.5502 -18.3438 L-106.5502 -26.9062 L-105.5502 -26.9062 L-105.5502 -23.2656 L-101.0346 -23.2656 L-101.0346 -26.9062 L-100.0346 -26.9062 L-100.0346 -18.3438 Z" /><ns0:path style="stroke:none;" d="M-95.2846 -16.5344 L-99.0346 -16.5344 L-99.0346 -17.0969 L-97.5346 -18.6125 Q-96.8471 -19.3 -96.6283 -19.5969 Q-96.4096 -19.8937 -96.3002 -20.175 Q-96.1908 -20.4562 -96.1908 -20.7844 Q-96.1908 -21.2375 -96.4642 -21.5031 Q-96.7377 -21.7687 -97.2377 -21.7687 Q-97.5814 -21.7687 -97.9017 -21.6516 Q-98.2221 -21.5344 -98.6127 -21.2375 L-98.9564 -21.675 Q-98.1752 -22.3312 -97.2377 -22.3312 Q-96.4408 -22.3312 -95.9799 -21.9172 Q-95.5189 -21.5031 -95.5189 -20.8156 Q-95.5189 -20.2687 -95.8236 -19.7375 Q-96.1283 -19.2062 -96.9721 -18.3937 L-98.2221 -17.175 L-98.2221 -17.1437 L-95.2846 -17.1437 L-95.2846 -16.5344 Z" /><ns0:path style="fill:rgb(230,0,0); stroke:none;" d="M-61.0155 22.4297 Q-61.0155 24.4922 -62.0546 25.6719 Q-63.0936 26.8516 -64.9374 26.8516 Q-66.828 26.8516 -67.8593 25.6875 Q-68.8905 24.5234 -68.8905 22.4141 Q-68.8905 20.3203 -67.8593 19.1719 Q-66.828 18.0234 -64.9374 18.0234 Q-63.078 18.0234 -62.0468 19.1953 Q-61.0155 20.3672 -61.0155 22.4297 ZM-67.8436 22.4297 Q-67.8436 24.1641 -67.1014 25.0703 Q-66.3593 25.9766 -64.9374 25.9766 Q-63.5155 25.9766 -62.7889 25.0781 Q-62.0624 24.1797 -62.0624 22.4297 Q-62.0624 20.6953 -62.7889 19.8047 Q-63.5155 18.9141 -64.9374 18.9141 Q-66.3593 18.9141 -67.1014 19.8125 Q-67.8436 20.7109 -67.8436 22.4297 Z" /><ns0:path style="fill:none; stroke:black;" d="M64.52 -22.25 L64.953 -22.5 L65.386 -22.25" /><ns0:path style="stroke:none;" d="M94.2846 -3.3438 L93.1439 -3.3438 L88.4564 -10.5312 L88.4096 -10.5312 Q88.5033 -9.2656 88.5033 -8.2188 L88.5033 -3.3438 L87.5814 -3.3438 L87.5814 -11.9062 L88.7064 -11.9062 L93.3783 -4.75 L93.4252 -4.75 Q93.4252 -4.9062 93.3783 -5.7656 Q93.3314 -6.625 93.3471 -7 L93.3471 -11.9062 L94.2846 -11.9062 L94.2846 -3.3438 Z" /><ns0:path style="stroke:none;" d="M101.8002 -3.3438 L100.8002 -3.3438 L100.8002 -7.375 L96.2846 -7.375 L96.2846 -3.3438 L95.2846 -3.3438 L95.2846 -11.9062 L96.2846 -11.9062 L96.2846 -8.2656 L100.8002 -8.2656 L100.8002 -11.9062 L101.8002 -11.9062 L101.8002 -3.3438 Z" /><ns0:path style="stroke:none;" d="M106.5502 -1.5344 L102.8002 -1.5344 L102.8002 -2.0969 L104.3002 -3.6125 Q104.9877 -4.3 105.2064 -4.5969 Q105.4252 -4.8938 105.5346 -5.175 Q105.6439 -5.4563 105.6439 -5.7844 Q105.6439 -6.2375 105.3705 -6.5031 Q105.0971 -6.7688 104.5971 -6.7688 Q104.2533 -6.7688 103.933 -6.6516 Q103.6127 -6.5344 103.2221 -6.2375 L102.8783 -6.675 Q103.6596 -7.3313 104.5971 -7.3313 Q105.3939 -7.3313 105.8549 -6.9172 Q106.3158 -6.5031 106.3158 -5.8156 Q106.3158 -5.2688 106.0111 -4.7375 Q105.7064 -4.2063 104.8627 -3.3937 L103.6127 -2.175 L103.6127 -2.1437 L106.5502 -2.1437 L106.5502 -1.5344 Z" /></ns0:g></ns0:g></ns0:svg></ns0:svg></ns0:svg></ns0:svg></g></svg>