<svg xmlns:ns0="http://www.w3.org/2000/svg" xmlns="http://www.w3.org/2000/svg"><g transform="translate(0, 0)"><ns0:svg width="212" viewBox="0 0 212 141" style="fill-opacity:1; color-rendering:auto; color-interpolation:auto; text-rendering:auto; stroke:black; stroke-linecap:square; stroke-miterlimit:10; shape-rendering:auto; stroke-opacity:1; fill:black; stroke-dasharray:none; font-weight:normal; stroke-width:1; font-family:'Open Sans'; font-style:normal; stroke-linejoin:miter; font-size:12; stroke-dashoffset:0; image-rendering:auto;" height="141" class="cas-substance-image"><ns0:svg class="cas-substance-single-component"><ns0:rect y="0" x="0" width="212" stroke="none" ry="7" rx="7" height="141" fill="white" class="cas-substance-group" /><ns0:svg y="0" x="0" width="212" viewBox="0 0 212 141" style="fill:black;" height="141" class="cas-substance-single-component-image"><ns0:svg><ns0:g><ns0:g transform="translate(111,72)" style="text-rendering:geometricPrecision; color-rendering:optimizeQuality; color-interpolation:linearRGB; stroke-linecap:butt; image-rendering:optimizeQuality;"><ns0:line y2="-12.99" y1="12.99" x2="-7.5" x1="7.5" style="fill:none;" /><ns0:line y2="12.99" y1="12.99" x2="37.5" x1="7.5" style="fill:none;" /><ns0:line y2="38.97" y1="12.99" x2="-7.5" x1="7.5" style="fill:none;" /><ns0:line y2="-12.99" y1="-12.99" x2="-31.5625" x1="-7.5" style="fill:none;" /><ns0:line y2="-12.99" y1="12.99" x2="52.5" x1="37.5" style="fill:none;" /><ns0:line y2="64.953" y1="38.97" x2="7.5" x1="-7.5" style="fill:none;" /><ns0:line y2="-38.97" y1="-18.7176" x2="-52.5" x1="-40.8069" style="fill:none;" /><ns0:line y2="-12.99" y1="-12.99" x2="82.5" x1="52.5" style="fill:none;" /><ns0:line y2="-38.97" y1="-38.97" x2="-82.5" x1="-52.5" style="fill:none;" /><ns0:line y2="-58.4299" y1="-37.22" x2="-39.2451" x1="-51.4896" style="fill:none;" /><ns0:line y2="-60.1797" y1="-38.97" x2="-42.2763" x1="-54.5207" style="fill:none;" /><ns0:line y2="-38.97" y1="-12.99" x2="97.5" x1="82.5" style="fill:none;" /><ns0:line y2="-59.6593" y1="-38.97" x2="-94.4439" x1="-82.5" style="fill:none;" /><ns0:path style="fill:none; stroke-miterlimit:5;" d="M-7.25 -12.557 L-7.5 -12.99 L-8 -12.99" /><ns0:path style="fill:none; stroke-miterlimit:5;" d="M37 12.99 L37.5 12.99 L37.75 12.557" /><ns0:path style="fill:none; stroke-miterlimit:5;" d="M-7.25 38.537 L-7.5 38.97 L-7.25 39.403" /></ns0:g><ns0:g transform="translate(111,72)" style="stroke-linecap:butt; fill:rgb(230,0,0); text-rendering:geometricPrecision; color-rendering:optimizeQuality; image-rendering:optimizeQuality; font-family:'Open Sans'; stroke:rgb(230,0,0); color-interpolation:linearRGB; stroke-miterlimit:5;"><ns0:path style="stroke:none;" d="M-33.5625 -13.0603 Q-33.5625 -10.9978 -34.6016 -9.8181 Q-35.6406 -8.6384 -37.4844 -8.6384 Q-39.375 -8.6384 -40.4062 -9.8025 Q-41.4375 -10.9666 -41.4375 -13.0759 Q-41.4375 -15.1697 -40.4062 -16.3181 Q-39.375 -17.4666 -37.4844 -17.4666 Q-35.625 -17.4666 -34.5938 -16.2947 Q-33.5625 -15.1228 -33.5625 -13.0603 ZM-40.3906 -13.0603 Q-40.3906 -11.3259 -39.6484 -10.4197 Q-38.9062 -9.5134 -37.4844 -9.5134 Q-36.0625 -9.5134 -35.3359 -10.4119 Q-34.6094 -11.3103 -34.6094 -13.0603 Q-34.6094 -14.7947 -35.3359 -15.6853 Q-36.0625 -16.5759 -37.4844 -16.5759 Q-38.9062 -16.5759 -39.6484 -15.6775 Q-40.3906 -14.7791 -40.3906 -13.0603 Z" /><ns0:path style="fill:none; stroke:black;" d="M52.25 -12.557 L52.5 -12.99 L53 -12.99" /><ns0:path style="fill:none; stroke:black;" d="M-52.25 -38.537 L-52.5 -38.97 L-53 -38.97" /><ns0:path style="fill:none; stroke:black;" d="M82 -12.99 L82.5 -12.99 L82.75 -13.423" /><ns0:path style="fill:none; stroke:black;" d="M-82 -38.97 L-82.5 -38.97 L-82.75 -39.403" /><ns0:path style="stroke:none;" d="M-33.5625 -65.0233 Q-33.5625 -62.9608 -34.6016 -61.7811 Q-35.6406 -60.6014 -37.4844 -60.6014 Q-39.375 -60.6014 -40.4062 -61.7655 Q-41.4375 -62.9296 -41.4375 -65.0389 Q-41.4375 -67.1327 -40.4062 -68.2811 Q-39.375 -69.4296 -37.4844 -69.4296 Q-35.625 -69.4296 -34.5938 -68.2577 Q-33.5625 -67.0858 -33.5625 -65.0233 ZM-40.3906 -65.0233 Q-40.3906 -63.2889 -39.6484 -62.3827 Q-38.9062 -61.4764 -37.4844 -61.4764 Q-36.0625 -61.4764 -35.3359 -62.3749 Q-34.6094 -63.2733 -34.6094 -65.0233 Q-34.6094 -66.7577 -35.3359 -67.6483 Q-36.0625 -68.5389 -37.4844 -68.5389 Q-38.9062 -68.5389 -39.6484 -67.6405 Q-40.3906 -66.7421 -40.3906 -65.0233 Z" /><ns0:path style="fill:rgb(148,108,0); stroke:none;" d="M-94.8047 -63.0155 Q-94.8047 -61.8905 -95.625 -61.2499 Q-96.4453 -60.6093 -97.8516 -60.6093 Q-99.3828 -60.6093 -100.1953 -61.0155 L-100.1953 -61.9686 Q-99.6641 -61.7499 -99.0469 -61.6171 Q-98.4297 -61.4843 -97.8203 -61.4843 Q-96.8203 -61.4843 -96.3203 -61.8671 Q-95.8203 -62.2499 -95.8203 -62.9218 Q-95.8203 -63.3593 -96 -63.6483 Q-96.1797 -63.9374 -96.5938 -64.1796 Q-97.0078 -64.4218 -97.8672 -64.7186 Q-99.0547 -65.1405 -99.5703 -65.7264 Q-100.0859 -66.3124 -100.0859 -67.2655 Q-100.0859 -68.2499 -99.3438 -68.8358 Q-98.6016 -69.4218 -97.3672 -69.4218 Q-96.1016 -69.4218 -95.0234 -68.953 L-95.3359 -68.0936 Q-96.3984 -68.5311 -97.3984 -68.5311 Q-98.1953 -68.5311 -98.6406 -68.1952 Q-99.0859 -67.8593 -99.0859 -67.2499 Q-99.0859 -66.8124 -98.9219 -66.5233 Q-98.7578 -66.2343 -98.3672 -65.9999 Q-97.9766 -65.7655 -97.1641 -65.4686 Q-95.8203 -64.9999 -95.3125 -64.4452 Q-94.8047 -63.8905 -94.8047 -63.0155 Z" /><ns0:path style="fill:rgb(148,108,0); stroke:none;" d="M-101.1953 -60.7343 L-102.1953 -60.7343 L-102.1953 -64.7655 L-106.7109 -64.7655 L-106.7109 -60.7343 L-107.7109 -60.7343 L-107.7109 -69.2968 L-106.7109 -69.2968 L-106.7109 -65.6561 L-102.1953 -65.6561 L-102.1953 -69.2968 L-101.1953 -69.2968 L-101.1953 -60.7343 Z" /></ns0:g></ns0:g></ns0:svg></ns0:svg></ns0:svg></ns0:svg></g></svg>