<svg width="554" viewBox="0 0 554 271" style="fill-opacity:1; color-rendering:auto; color-interpolation:auto; text-rendering:auto; stroke:black; stroke-linecap:square; stroke-miterlimit:10; shape-rendering:auto; stroke-opacity:1; fill:black; stroke-dasharray:none; font-weight:normal; stroke-width:1; font-family:'Open Sans'; font-style:normal; stroke-linejoin:miter; font-size:12; stroke-dashoffset:0; image-rendering:auto;" height="271" class="cas-substance-image" xmlns:xlink="http://www.w3.org/1999/xlink" xmlns="http://www.w3.org/2000/svg"><svg class="cas-substance-single-component"><rect y="0" x="0" width="554" stroke="none" ry="7" rx="7" height="271" fill="white" class="cas-substance-group"/><svg y="0" x="0" width="554" viewBox="0 0 554 271" style="fill:black;" height="271" class="cas-substance-single-component-image"><svg><g><g transform="translate(277,133)" style="text-rendering:geometricPrecision; color-rendering:optimizeQuality; color-interpolation:linearRGB; stroke-linecap:butt; image-rendering:optimizeQuality;"><line y2="0" y1="0" x2="-127.5" x1="-103.4375" style="fill:none;"/><path style="stroke:none;" d="M-83.3459 -25.6638 L-83.9387 -24.851 L-83.9387 -24.851 L-82.7582 -24.1702 L-82.3506 -25.0899 L-83.3459 -25.6638 ZM-85.1242 -23.2252 L-85.717 -22.4123 L-85.717 -22.4123 L-83.9809 -21.4112 L-83.5733 -22.3309 L-85.1242 -23.2252 ZM-86.9025 -20.7866 L-87.4953 -19.9737 L-85.2035 -18.6521 L-84.796 -19.5718 L-86.9025 -20.7866 ZM-88.6809 -18.348 L-89.2736 -17.5351 L-86.4262 -15.8931 L-86.0187 -16.8128 L-88.6809 -18.348 ZM-90.4592 -15.9094 L-91.052 -15.0965 L-91.052 -15.0965 L-87.6489 -13.134 L-87.2413 -14.0537 L-90.4592 -15.9094 ZM-92.2375 -13.4707 L-92.8303 -12.6579 L-88.8716 -10.375 L-88.464 -11.2947 L-92.2375 -13.4707 ZM-94.0159 -11.0321 L-94.6086 -10.2193 L-90.0942 -7.616 L-89.6867 -8.5356 L-94.0159 -11.0321 ZM-95.7942 -8.5935 L-96.387 -7.7806 L-96.387 -7.7806 L-91.3169 -4.8569 L-90.9094 -5.7766 L-95.7942 -8.5935 Z"/><line y2="-25.98" y1="-47.1897" x2="-144.5207" x1="-132.2763" style="fill:none;"/><line y2="-24.23" y1="-45.4399" x2="-141.4896" x1="-129.2451" style="fill:none;"/><line y2="-51.963" y1="-72.295" x2="-187.5" x1="-175.761" style="fill:none;"/><path style="stroke:none;" d="M-52.933 -25.73 L-52.067 -26.23 L-38.2089 -7.2276 L-43.405 -4.2276 Z"/><path style="stroke:none;" d="M-9.5312 -0.711 L-9.5312 0.711 L-8.5312 0.6071 L-8.5312 -0.6071 L-9.5312 -0.711 ZM-12.5312 -1.0227 L-12.5312 1.0227 L-11.5312 0.9188 L-11.5312 -0.9188 L-11.5312 -0.9188 L-12.5312 -1.0227 ZM-15.5312 -1.3344 L-15.5312 1.3344 L-15.5312 1.3344 L-14.5312 1.2305 L-14.5312 -1.2305 L-15.5312 -1.3344 ZM-18.5312 -1.6461 L-18.5312 1.6461 L-17.5312 1.5422 L-17.5312 -1.5422 L-18.5312 -1.6461 ZM-21.5312 -1.9578 L-21.5312 1.9578 L-20.5312 1.8539 L-20.5312 -1.8539 L-21.5312 -1.9578 ZM-24.5312 -2.2695 L-24.5312 2.2695 L-24.5312 2.2695 L-23.5312 2.1656 L-23.5312 -2.1656 L-24.5312 -2.2695 ZM-27.5312 -2.5812 L-27.5312 2.5812 L-27.5312 2.5812 L-26.5312 2.4773 L-26.5312 2.4773 L-26.5312 -2.4773 L-27.5312 -2.5812 ZM-30.5312 -2.8929 L-30.5312 2.8929 L-29.5312 2.789 L-29.5312 -2.789 L-30.5312 -2.8929 Z"/><line y2="103.923" y1="124.1754" x2="-97.5" x1="-85.8069" style="fill:none;"/><line y2="-25.98" y1="-25.98" x2="-232.5" x1="-256.5625" style="fill:none;"/><path style="stroke:none;" d="M-37.5 -51.463 L-37.5 -52.463 L-13.4375 -54.963 L-13.4375 -48.963 Z"/><path style="stroke:none;" d="M-82.067 -78.193 L-82.933 -77.693 L-100.0981 -102.423 L-94.9019 -105.423 Z"/><path style="stroke:none;" d="M-43.6581 -99.1008 L-44.066 -98.1813 L-44.066 -98.1813 L-39.1879 -95.3683 L-39.1879 -95.3683 L-38.5954 -96.1814 L-38.5954 -96.1814 L-43.6581 -99.1008 ZM-44.8818 -96.3424 L-45.2897 -95.4229 L-45.2897 -95.4229 L-40.9652 -92.9291 L-40.9652 -92.9291 L-40.3728 -93.7422 L-40.3728 -93.7422 L-44.8818 -96.3424 ZM-46.1055 -93.5839 L-46.5134 -92.6644 L-42.7425 -90.4899 L-42.7425 -90.4899 L-42.1501 -91.303 L-42.1501 -91.303 L-46.1055 -93.5839 ZM-47.3291 -90.8254 L-47.737 -89.9059 L-47.737 -89.9059 L-44.5199 -88.0507 L-44.5199 -88.0507 L-43.9274 -88.8638 L-43.9274 -88.8638 L-47.3291 -90.8254 ZM-48.5528 -88.067 L-48.9607 -87.1475 L-48.9607 -87.1475 L-46.2972 -85.6115 L-45.7047 -86.4246 L-45.7047 -86.4246 L-48.5528 -88.067 ZM-49.7765 -85.3085 L-50.1844 -84.389 L-50.1844 -84.389 L-48.0745 -83.1723 L-48.0745 -83.1723 L-47.4821 -83.9854 L-47.4821 -83.9854 L-49.7765 -85.3085 ZM-51.0002 -82.55 L-51.4081 -81.6305 L-51.4081 -81.6305 L-49.8518 -80.7331 L-49.8518 -80.7331 L-49.2594 -81.5462 L-49.2594 -81.5462 L-51.0002 -82.55 ZM-52.2239 -79.7916 L-52.6318 -78.8721 L-52.6318 -78.8721 L-51.6291 -78.2939 L-51.0367 -79.107 L-51.0367 -79.107 L-52.2239 -79.7916 Z"/><path style="stroke:none;" d="M7.067 25.73 L7.933 26.23 L-1.5986 47.741 L-6.7949 44.7412 Z"/><line y2="-51.963" y1="-51.963" x2="76.5625" x1="52.5" style="fill:none;"/><path style="stroke:none;" d="M49.036 -51.963 L49.036 -51.963 L48.9247 -51.7238 L48.9247 -51.7238 L53.8481 -48.8846 L54.4165 -49.7115 L50.5122 -51.963 ZM48.0777 -49.9028 L47.6543 -48.9924 L47.6543 -48.9924 L52.143 -46.4039 L52.143 -46.4039 L52.7114 -47.2308 L52.7114 -47.2308 L48.0777 -49.9028 ZM46.8073 -47.1714 L46.3838 -46.261 L46.3838 -46.261 L50.4379 -43.9231 L51.0063 -44.75 L46.8073 -47.1714 ZM45.5369 -44.44 L45.1134 -43.5296 L48.7328 -41.4424 L49.3011 -42.2693 L45.5369 -44.44 ZM44.2664 -41.7086 L43.843 -40.7981 L47.0277 -38.9616 L47.0277 -38.9616 L47.596 -39.7885 L47.596 -39.7885 L44.2664 -41.7086 ZM42.996 -38.9772 L42.5725 -38.0667 L45.3225 -36.4809 L45.8909 -37.3078 L42.996 -38.9772 ZM41.7256 -36.2458 L41.3021 -35.3353 L41.3021 -35.3353 L43.6174 -34.0001 L43.6174 -34.0001 L44.1858 -34.8271 L44.1858 -34.8271 L41.7256 -36.2458 ZM40.4551 -33.5144 L40.0316 -32.6039 L41.9123 -31.5194 L42.4807 -32.3463 L40.4551 -33.5144 ZM39.1847 -30.783 L38.7612 -29.8725 L38.7612 -29.8725 L40.2072 -29.0387 L40.7756 -29.8656 L40.7756 -29.8656 L39.1847 -30.783 ZM37.9142 -28.0516 L37.4908 -27.1411 L38.5021 -26.5579 L39.0704 -27.3848 L39.0704 -27.3848 L37.9142 -28.0516 Z"/><line y2="-77.943" y1="-57.6847" x2="97.5" x1="85.8035" style="fill:none;"/><line y2="-77.943" y1="-77.943" x2="127.5" x1="97.5" style="fill:none;"/><line y2="-99.1623" y1="-77.943" x2="87.2694" x1="99.5207" style="fill:none;"/><line y2="-97.4122" y1="-76.193" x2="84.2383" x1="96.4896" style="fill:none;"/><line y2="-103.923" y1="-77.943" x2="142.5" x1="127.5" style="fill:none;"/><line y2="-103.923" y1="-81.443" x2="138.4585" x1="125.4793" style="fill:none;"/></g><g transform="translate(277,133)" style="stroke-linecap:butt; font-size:8.4px; fill:gray; text-rendering:geometricPrecision; image-rendering:optimizeQuality; color-rendering:optimizeQuality; font-family:'Open Sans'; font-style:italic; stroke:gray; color-interpolation:linearRGB;"><path style="stroke:none;" d="M139.5128 -84.7688 Q139.5128 -86.097 139.9816 -87.222 Q140.4503 -88.347 141.4816 -89.4251 L142.0909 -89.4251 Q141.1222 -88.3626 140.6378 -87.1907 Q140.1534 -86.0188 140.1534 -84.7845 Q140.1534 -83.4563 140.5909 -82.4407 L140.0753 -82.4407 Q139.5128 -83.472 139.5128 -84.7688 ZM144.776 -83.7063 L141.9166 -83.7063 L143.1198 -89.4251 L145.9948 -89.4251 L145.8698 -88.8157 L143.651 -88.8157 L143.276 -86.9876 L145.3229 -86.9876 L145.2135 -86.3938 L143.151 -86.3938 L142.6979 -84.3001 L144.9166 -84.3001 L144.776 -83.7063 ZM147.8076 -87.0813 Q147.8076 -85.7532 147.331 -84.6204 Q146.8544 -83.4876 145.8388 -82.4407 L145.2294 -82.4407 Q147.1669 -84.597 147.1669 -87.0813 Q147.1669 -88.4095 146.7294 -89.4251 L147.2451 -89.4251 Q147.8076 -88.3626 147.8076 -87.0813 Z"/><line y2="-103.923" y1="-103.923" x2="172.5" x1="142.5" style="fill:none; stroke:black;"/><path style="fill:black; stroke:none;" d="M38.3446 26.2944 L37.3497 26.8681 L37.3497 26.8681 L37.7572 27.7878 L38.9373 27.1073 L38.3446 26.2944 ZM40.1228 28.733 L38.5722 29.6272 L38.9796 30.5469 L38.9796 30.5469 L40.7155 29.5459 L40.7155 29.5459 L40.1228 28.733 ZM41.901 31.1716 L39.7946 32.3862 L39.7946 32.3862 L40.2021 33.3059 L40.2021 33.3059 L42.4937 31.9845 L41.901 31.1716 ZM43.6792 33.6102 L41.0171 35.1453 L41.0171 35.1453 L41.4246 36.065 L44.2719 34.423 L43.6792 33.6102 ZM45.4574 36.0488 L42.2395 37.9044 L42.2395 37.9044 L42.647 38.8241 L42.647 38.8241 L46.0501 36.8616 L45.4574 36.0488 ZM47.2356 38.4874 L43.462 40.6635 L43.8695 41.5832 L43.8695 41.5832 L47.8283 39.3002 L47.8283 39.3002 L47.2356 38.4874 ZM49.0138 40.926 L44.6844 43.4225 L45.0919 44.3422 L45.0919 44.3422 L49.6065 41.7388 L49.0138 40.926 ZM50.792 43.3646 L45.9069 46.1816 L45.9069 46.1816 L46.3144 47.1013 L46.3144 47.1013 L51.3847 44.1774 L51.3847 44.1774 L50.792 43.3646 Z"/><path style="fill:black; stroke:none;" d="M52.5 0.5 L52.5 -0.5 L76.5625 -3 L76.5625 3 Z"/><line y2="-103.923" y1="-103.923" x2="232.5" x1="256.5625" style="fill:none; stroke:black;"/><line y2="0" y1="25.98" x2="-127.5" x1="-142.5" style="fill:none; stroke:black;"/><line y2="-0.0001" y1="22.48" x2="-131.5415" x1="-144.5207" style="fill:none; stroke:black;"/><line y2="25.98" y1="25.98" x2="-166.5625" x1="-142.5" style="fill:none; stroke:black;"/><line y2="51.963" y1="25.98" x2="-127.5" x1="-142.5" style="fill:none; stroke:black;"/><line y2="-25.98" y1="0" x2="-142.5" x1="-127.5" style="fill:none; stroke:black;"/><line y2="0" y1="20.2524" x2="-187.5" x1="-175.8069" style="fill:none; stroke:black;"/><line y2="-25.98" y1="-25.98" x2="-172.5" x1="-142.5" style="fill:none; stroke:black;"/><line y2="-25.98" y1="0" x2="-172.5" x1="-187.5" style="fill:none; stroke:black;"/><line y2="0" y1="0" x2="-217.5" x1="-187.5" style="fill:none; stroke:black;"/><line y2="-3.5" y1="-3.5" x2="-215.4793" x1="-189.5207" style="fill:none; stroke:black;"/><line y2="-51.963" y1="-25.98" x2="-187.5" x1="-172.5" style="fill:none; stroke:black;"/><line y2="-48.4631" y1="-25.9802" x2="-189.5209" x1="-176.5415" style="fill:none; stroke:black;"/><line y2="-25.98" y1="0" x2="-232.5" x1="-217.5" style="fill:none; stroke:black;"/><line y2="-51.963" y1="-51.963" x2="-217.5" x1="-187.5" style="fill:none; stroke:black;"/><line y2="-51.963" y1="-25.98" x2="-217.5" x1="-232.5" style="fill:none; stroke:black;"/><line y2="-48.4631" y1="-25.9802" x2="-215.4791" x1="-228.4585" style="fill:none; stroke:black;"/><line y2="51.963" y1="51.963" x2="-97.5" x1="-127.5" style="fill:none; stroke:black;"/><line y2="55.463" y1="55.463" x2="-99.5207" x1="-125.4793" style="fill:none; stroke:black;"/><line y2="77.943" y1="51.963" x2="-142.5" x1="-127.5" style="fill:none; stroke:black;"/><line y2="77.943" y1="51.963" x2="-82.5" x1="-97.5" style="fill:none; stroke:black;"/><line y2="103.923" y1="77.943" x2="-127.5" x1="-142.5" style="fill:none; stroke:black;"/><line y2="100.423" y1="77.9429" x2="-125.4793" x1="-138.4585" style="fill:none; stroke:black;"/><line y2="103.923" y1="77.943" x2="-97.5" x1="-82.5" style="fill:none; stroke:black;"/><line y2="100.423" y1="77.9429" x2="-99.5207" x1="-86.5415" style="fill:none; stroke:black;"/><line y2="103.923" y1="103.923" x2="-97.5" x1="-127.5" style="fill:none; stroke:black;"/><line y2="-25.98" y1="-25.98" x2="-52.5" x1="-82.5" style="fill:none; stroke:black;"/><line y2="-46.327" y1="-25.98" x2="-94.2464" x1="-82.5" style="fill:none; stroke:black;"/><line y2="-51.963" y1="-25.98" x2="-37.5" x1="-52.5" style="fill:none; stroke:black;"/><line y2="-77.943" y1="-57.6847" x2="-82.5" x1="-94.1965" style="fill:none; stroke:black;"/><line y2="-77.943" y1="-51.963" x2="-52.5" x1="-37.5" style="fill:none; stroke:black;"/><line y2="-77.943" y1="-77.943" x2="-52.5" x1="-82.5" style="fill:none; stroke:black;"/><line y2="-20.332" y1="0" x2="4.239" x1="-7.5" style="fill:none; stroke:black;"/><line y2="25.98" y1="0" x2="7.5" x1="-7.5" style="fill:none; stroke:black;"/><line y2="-25.98" y1="-25.98" x2="37.5" x1="13.4375" style="fill:none; stroke:black;"/><line y2="25.98" y1="25.98" x2="37.5" x1="7.5" style="fill:none; stroke:black;"/><line y2="0" y1="-25.98" x2="52.5" x1="37.5" style="fill:none; stroke:black;"/><line y2="0" y1="25.98" x2="52.5" x1="37.5" style="fill:none; stroke:black;"/><line y2="-77.943" y1="-103.923" x2="187.5" x1="172.5" style="fill:none; stroke:black;"/><line y2="-81.443" y1="-103.923" x2="189.5207" x1="176.5415" style="fill:none; stroke:black;"/><line y2="-129.903" y1="-103.923" x2="187.5" x1="172.5" style="fill:none; stroke:black;"/><line y2="-77.943" y1="-77.943" x2="217.5" x1="187.5" style="fill:none; stroke:black;"/><line y2="-129.903" y1="-129.903" x2="217.5" x1="187.5" style="fill:none; stroke:black;"/><line y2="-126.403" y1="-126.403" x2="215.4793" x1="189.5207" style="fill:none; stroke:black;"/><line y2="-103.923" y1="-77.943" x2="232.5" x1="217.5" style="fill:none; stroke:black;"/><line y2="-103.923" y1="-81.443" x2="228.4585" x1="215.4793" style="fill:none; stroke:black;"/><line y2="-103.923" y1="-129.903" x2="232.5" x1="217.5" style="fill:none; stroke:black;"/></g><g transform="translate(277,133)" style="fill:rgb(230,0,0); text-rendering:geometricPrecision; color-rendering:optimizeQuality; image-rendering:optimizeQuality; font-family:'Open Sans'; stroke:rgb(230,0,0); color-interpolation:linearRGB;"><path style="stroke:none;" d="M-93.5625 -0.0703 Q-93.5625 1.9922 -94.6016 3.1719 Q-95.6406 4.3516 -97.4844 4.3516 Q-99.375 4.3516 -100.4062 3.1875 Q-101.4375 2.0234 -101.4375 -0.0859 Q-101.4375 -2.1797 -100.4062 -3.3281 Q-99.375 -4.4766 -97.4844 -4.4766 Q-95.625 -4.4766 -94.5938 -3.3047 Q-93.5625 -2.1328 -93.5625 -0.0703 ZM-100.3906 -0.0703 Q-100.3906 1.6641 -99.6484 2.5703 Q-98.9062 3.4766 -97.4844 3.4766 Q-96.0625 3.4766 -95.3359 2.5781 Q-94.6094 1.6797 -94.6094 -0.0703 Q-94.6094 -1.8047 -95.3359 -2.6953 Q-96.0625 -3.5859 -97.4844 -3.5859 Q-98.9062 -3.5859 -99.6484 -2.6875 Q-100.3906 -1.7891 -100.3906 -0.0703 Z"/><path style="stroke:none;" d="M-123.5625 -52.0333 Q-123.5625 -49.9708 -124.6016 -48.7911 Q-125.6406 -47.6114 -127.4844 -47.6114 Q-129.375 -47.6114 -130.4062 -48.7755 Q-131.4375 -49.9396 -131.4375 -52.0489 Q-131.4375 -54.1427 -130.4062 -55.2911 Q-129.375 -56.4396 -127.4844 -56.4396 Q-125.625 -56.4396 -124.5938 -55.2677 Q-123.5625 -54.0958 -123.5625 -52.0333 ZM-130.3906 -52.0333 Q-130.3906 -50.2989 -129.6484 -49.3927 Q-128.9062 -48.4864 -127.4844 -48.4864 Q-126.0625 -48.4864 -125.3359 -49.3849 Q-124.6094 -50.2833 -124.6094 -52.0333 Q-124.6094 -53.7677 -125.3359 -54.6583 Q-126.0625 -55.5489 -127.4844 -55.5489 Q-128.9062 -55.5489 -129.6484 -54.6505 Q-130.3906 -53.7521 -130.3906 -52.0333 Z"/><path style="stroke:none;" d="M-168.5625 -78.0133 Q-168.5625 -75.9508 -169.6016 -74.7711 Q-170.6406 -73.5914 -172.4844 -73.5914 Q-174.375 -73.5914 -175.4062 -74.7555 Q-176.4375 -75.9196 -176.4375 -78.0289 Q-176.4375 -80.1227 -175.4062 -81.2711 Q-174.375 -82.4196 -172.4844 -82.4196 Q-170.625 -82.4196 -169.5938 -81.2477 Q-168.5625 -80.0758 -168.5625 -78.0133 ZM-175.3906 -78.0133 Q-175.3906 -76.2789 -174.6484 -75.3727 Q-173.9062 -74.4664 -172.4844 -74.4664 Q-171.0625 -74.4664 -170.3359 -75.3649 Q-169.6094 -76.2633 -169.6094 -78.0133 Q-169.6094 -79.7477 -170.3359 -80.6383 Q-171.0625 -81.5289 -172.4844 -81.5289 Q-173.9062 -81.5289 -174.6484 -80.6305 Q-175.3906 -79.7321 -175.3906 -78.0133 Z"/><path style="stroke:none;" d="M-161.0469 -73.7164 L-162.0469 -73.7164 L-162.0469 -77.7477 L-166.5625 -77.7477 L-166.5625 -73.7164 L-167.5625 -73.7164 L-167.5625 -82.2789 L-166.5625 -82.2789 L-166.5625 -78.6383 L-162.0469 -78.6383 L-162.0469 -82.2789 L-161.0469 -82.2789 L-161.0469 -73.7164 Z"/><path style="stroke:none;" d="M-33.5625 -0.0703 Q-33.5625 1.9922 -34.6016 3.1719 Q-35.6406 4.3516 -37.4844 4.3516 Q-39.375 4.3516 -40.4062 3.1875 Q-41.4375 2.0234 -41.4375 -0.0859 Q-41.4375 -2.1797 -40.4062 -3.3281 Q-39.375 -4.4766 -37.4844 -4.4766 Q-35.625 -4.4766 -34.5938 -3.3047 Q-33.5625 -2.1328 -33.5625 -0.0703 ZM-40.3906 -0.0703 Q-40.3906 1.6641 -39.6484 2.5703 Q-38.9062 3.4766 -37.4844 3.4766 Q-36.0625 3.4766 -35.3359 2.5781 Q-34.6094 1.6797 -34.6094 -0.0703 Q-34.6094 -1.8047 -35.3359 -2.6953 Q-36.0625 -3.5859 -37.4844 -3.5859 Q-38.9062 -3.5859 -39.6484 -2.6875 Q-40.3906 -1.7891 -40.3906 -0.0703 Z"/><path style="stroke:none;" d="M-78.5625 129.8327 Q-78.5625 131.8952 -79.6016 133.0749 Q-80.6406 134.2546 -82.4844 134.2546 Q-84.375 134.2546 -85.4062 133.0905 Q-86.4375 131.9264 -86.4375 129.8171 Q-86.4375 127.7233 -85.4062 126.5749 Q-84.375 125.4264 -82.4844 125.4264 Q-80.625 125.4264 -79.5938 126.5983 Q-78.5625 127.7702 -78.5625 129.8327 ZM-85.3906 129.8327 Q-85.3906 131.5671 -84.6484 132.4733 Q-83.9062 133.3796 -82.4844 133.3796 Q-81.0625 133.3796 -80.3359 132.4811 Q-79.6094 131.5827 -79.6094 129.8327 Q-79.6094 128.0983 -80.3359 127.2077 Q-81.0625 126.3171 -82.4844 126.3171 Q-83.9062 126.3171 -84.6484 127.2155 Q-85.3906 128.1139 -85.3906 129.8327 Z"/><path style="stroke:none;" d="M-71.0469 134.1296 L-72.0469 134.1296 L-72.0469 130.0983 L-76.5625 130.0983 L-76.5625 134.1296 L-77.5625 134.1296 L-77.5625 125.5671 L-76.5625 125.5671 L-76.5625 129.2077 L-72.0469 129.2077 L-72.0469 125.5671 L-71.0469 125.5671 L-71.0469 134.1296 Z"/><path style="stroke:none;" d="M-258.5625 -26.0503 Q-258.5625 -23.9878 -259.6016 -22.8081 Q-260.6406 -21.6284 -262.4844 -21.6284 Q-264.375 -21.6284 -265.4062 -22.7925 Q-266.4375 -23.9566 -266.4375 -26.0659 Q-266.4375 -28.1597 -265.4062 -29.3081 Q-264.375 -30.4566 -262.4844 -30.4566 Q-260.625 -30.4566 -259.5938 -29.2847 Q-258.5625 -28.1128 -258.5625 -26.0503 ZM-265.3906 -26.0503 Q-265.3906 -24.3159 -264.6484 -23.4097 Q-263.9062 -22.5034 -262.4844 -22.5034 Q-261.0625 -22.5034 -260.3359 -23.4019 Q-259.6094 -24.3003 -259.6094 -26.0503 Q-259.6094 -27.7847 -260.3359 -28.6753 Q-261.0625 -29.5659 -262.4844 -29.5659 Q-263.9062 -29.5659 -264.6484 -28.6675 Q-265.3906 -27.7691 -265.3906 -26.0503 Z"/><path style="stroke:none;" d="M-267.4375 -21.7534 L-268.4375 -21.7534 L-268.4375 -25.7847 L-272.9531 -25.7847 L-272.9531 -21.7534 L-273.9531 -21.7534 L-273.9531 -30.3159 L-272.9531 -30.3159 L-272.9531 -26.6753 L-268.4375 -26.6753 L-268.4375 -30.3159 L-267.4375 -30.3159 L-267.4375 -21.7534 Z"/><path style="stroke:none;" d="M-3.5625 -52.0333 Q-3.5625 -49.9708 -4.6016 -48.7911 Q-5.6406 -47.6114 -7.4844 -47.6114 Q-9.375 -47.6114 -10.4062 -48.7755 Q-11.4375 -49.9396 -11.4375 -52.0489 Q-11.4375 -54.1427 -10.4062 -55.2911 Q-9.375 -56.4396 -7.4844 -56.4396 Q-5.625 -56.4396 -4.5938 -55.2677 Q-3.5625 -54.0958 -3.5625 -52.0333 ZM-10.3906 -52.0333 Q-10.3906 -50.2989 -9.6484 -49.3927 Q-8.9062 -48.4864 -7.4844 -48.4864 Q-6.0625 -48.4864 -5.3359 -49.3849 Q-4.6094 -50.2833 -4.6094 -52.0333 Q-4.6094 -53.7677 -5.3359 -54.6583 Q-6.0625 -55.5489 -7.4844 -55.5489 Q-8.9062 -55.5489 -9.6484 -54.6505 Q-10.3906 -53.7521 -10.3906 -52.0333 Z"/><path style="stroke:none;" d="M3.9531 -47.7364 L2.9531 -47.7364 L2.9531 -51.7677 L-1.5625 -51.7677 L-1.5625 -47.7364 L-2.5625 -47.7364 L-2.5625 -56.2989 L-1.5625 -56.2989 L-1.5625 -52.6583 L2.9531 -52.6583 L2.9531 -56.2989 L3.9531 -56.2989 L3.9531 -47.7364 Z"/><path style="stroke:none;" d="M-33.5625 -103.9933 Q-33.5625 -101.9308 -34.6016 -100.7511 Q-35.6406 -99.5714 -37.4844 -99.5714 Q-39.375 -99.5714 -40.4062 -100.7355 Q-41.4375 -101.8996 -41.4375 -104.0089 Q-41.4375 -106.1027 -40.4062 -107.2511 Q-39.375 -108.3996 -37.4844 -108.3996 Q-35.625 -108.3996 -34.5938 -107.2277 Q-33.5625 -106.0558 -33.5625 -103.9933 ZM-40.3906 -103.9933 Q-40.3906 -102.2589 -39.6484 -101.3527 Q-38.9062 -100.4464 -37.4844 -100.4464 Q-36.0625 -100.4464 -35.3359 -101.3449 Q-34.6094 -102.2433 -34.6094 -103.9933 Q-34.6094 -105.7277 -35.3359 -106.6183 Q-36.0625 -107.5089 -37.4844 -107.5089 Q-38.9062 -107.5089 -39.6484 -106.6105 Q-40.3906 -105.7121 -40.3906 -103.9933 Z"/><path style="stroke:none;" d="M-26.0469 -99.6964 L-27.0469 -99.6964 L-27.0469 -103.7277 L-31.5625 -103.7277 L-31.5625 -99.6964 L-32.5625 -99.6964 L-32.5625 -108.2589 L-31.5625 -108.2589 L-31.5625 -104.6183 L-27.0469 -104.6183 L-27.0469 -108.2589 L-26.0469 -108.2589 L-26.0469 -99.6964 Z"/><path style="stroke:none;" d="M-3.5625 51.8927 Q-3.5625 53.9552 -4.6016 55.1349 Q-5.6406 56.3146 -7.4844 56.3146 Q-9.375 56.3146 -10.4062 55.1505 Q-11.4375 53.9864 -11.4375 51.8771 Q-11.4375 49.7833 -10.4062 48.6349 Q-9.375 47.4864 -7.4844 47.4864 Q-5.625 47.4864 -4.5938 48.6583 Q-3.5625 49.8302 -3.5625 51.8927 ZM-10.3906 51.8927 Q-10.3906 53.6271 -9.6484 54.5333 Q-8.9062 55.4396 -7.4844 55.4396 Q-6.0625 55.4396 -5.3359 54.5411 Q-4.6094 53.6427 -4.6094 51.8927 Q-4.6094 50.1583 -5.3359 49.2677 Q-6.0625 48.3771 -7.4844 48.3771 Q-8.9062 48.3771 -9.6484 49.2755 Q-10.3906 50.1739 -10.3906 51.8927 Z"/><path style="stroke:none;" d="M-12.4375 56.1896 L-13.4375 56.1896 L-13.4375 52.1583 L-17.9531 52.1583 L-17.9531 56.1896 L-18.9531 56.1896 L-18.9531 47.6271 L-17.9531 47.6271 L-17.9531 51.2677 L-13.4375 51.2677 L-13.4375 47.6271 L-12.4375 47.6271 L-12.4375 56.1896 Z"/><path style="stroke:none;" d="M86.4375 -52.0333 Q86.4375 -49.9708 85.3984 -48.7911 Q84.3594 -47.6114 82.5156 -47.6114 Q80.625 -47.6114 79.5938 -48.7755 Q78.5625 -49.9396 78.5625 -52.0489 Q78.5625 -54.1427 79.5938 -55.2911 Q80.625 -56.4396 82.5156 -56.4396 Q84.375 -56.4396 85.4062 -55.2677 Q86.4375 -54.0958 86.4375 -52.0333 ZM79.6094 -52.0333 Q79.6094 -50.2989 80.3516 -49.3927 Q81.0938 -48.4864 82.5156 -48.4864 Q83.9375 -48.4864 84.6641 -49.3849 Q85.3906 -50.2833 85.3906 -52.0333 Q85.3906 -53.7677 84.6641 -54.6583 Q83.9375 -55.5489 82.5156 -55.5489 Q81.0938 -55.5489 80.3516 -54.6505 Q79.6094 -53.7521 79.6094 -52.0333 Z"/></g><g transform="translate(277,133)" style="stroke-linecap:butt; text-rendering:geometricPrecision; color-rendering:optimizeQuality; image-rendering:optimizeQuality; font-family:'Open Sans'; color-interpolation:linearRGB; stroke-miterlimit:5;"><path style="fill:none;" d="M97.25 -77.51 L97.5 -77.943 L98 -77.943"/><path style="fill:none;" d="M127 -77.943 L127.5 -77.943 L127.75 -78.376"/><path style="fill:rgb(230,0,0); stroke:none;" d="M86.4375 -103.9933 Q86.4375 -101.9308 85.3984 -100.7511 Q84.3594 -99.5714 82.5156 -99.5714 Q80.625 -99.5714 79.5938 -100.7355 Q78.5625 -101.8996 78.5625 -104.0089 Q78.5625 -106.1027 79.5938 -107.2511 Q80.625 -108.3996 82.5156 -108.3996 Q84.375 -108.3996 85.4062 -107.2277 Q86.4375 -106.0558 86.4375 -103.9933 ZM79.6094 -103.9933 Q79.6094 -102.2589 80.3516 -101.3527 Q81.0938 -100.4464 82.5156 -100.4464 Q83.9375 -100.4464 84.6641 -101.3449 Q85.3906 -102.2433 85.3906 -103.9933 Q85.3906 -105.7277 84.6641 -106.6183 Q83.9375 -107.5089 82.5156 -107.5089 Q81.0938 -107.5089 80.3516 -106.6105 Q79.6094 -105.7121 79.6094 -103.9933 Z"/><path style="fill:none;" d="M142.25 -103.49 L142.5 -103.923 L143 -103.923"/><path style="fill:rgb(230,0,0); stroke:none;" d="M56.4375 51.8927 Q56.4375 53.9552 55.3984 55.1349 Q54.3594 56.3146 52.5156 56.3146 Q50.625 56.3146 49.5938 55.1505 Q48.5625 53.9864 48.5625 51.8771 Q48.5625 49.7833 49.5938 48.6349 Q50.625 47.4864 52.5156 47.4864 Q54.375 47.4864 55.4062 48.6583 Q56.4375 49.8302 56.4375 51.8927 ZM49.6094 51.8927 Q49.6094 53.6271 50.3516 54.5333 Q51.0938 55.4396 52.5156 55.4396 Q53.9375 55.4396 54.6641 54.5411 Q55.3906 53.6427 55.3906 51.8927 Q55.3906 50.1583 54.6641 49.2677 Q53.9375 48.3771 52.5156 48.3771 Q51.0938 48.3771 50.3516 49.2755 Q49.6094 50.1739 49.6094 51.8927 Z"/><path style="fill:rgb(230,0,0); stroke:none;" d="M63.9531 56.1896 L62.9531 56.1896 L62.9531 52.1583 L58.4375 52.1583 L58.4375 56.1896 L57.4375 56.1896 L57.4375 47.6271 L58.4375 47.6271 L58.4375 51.2677 L62.9531 51.2677 L62.9531 47.6271 L63.9531 47.6271 L63.9531 56.1896 Z"/><path style="fill:rgb(230,0,0); stroke:none;" d="M86.4375 -0.0703 Q86.4375 1.9922 85.3984 3.1719 Q84.3594 4.3516 82.5156 4.3516 Q80.625 4.3516 79.5938 3.1875 Q78.5625 2.0234 78.5625 -0.0859 Q78.5625 -2.1797 79.5938 -3.3281 Q80.625 -4.4766 82.5156 -4.4766 Q84.375 -4.4766 85.4062 -3.3047 Q86.4375 -2.1328 86.4375 -0.0703 ZM79.6094 -0.0703 Q79.6094 1.6641 80.3516 2.5703 Q81.0938 3.4766 82.5156 3.4766 Q83.9375 3.4766 84.6641 2.5781 Q85.3906 1.6797 85.3906 -0.0703 Q85.3906 -1.8047 84.6641 -2.6953 Q83.9375 -3.5859 82.5156 -3.5859 Q81.0938 -3.5859 80.3516 -2.6875 Q79.6094 -1.7891 79.6094 -0.0703 Z"/><path style="fill:rgb(230,0,0); stroke:none;" d="M93.9531 4.2266 L92.9531 4.2266 L92.9531 0.1953 L88.4375 0.1953 L88.4375 4.2266 L87.4375 4.2266 L87.4375 -4.3359 L88.4375 -4.3359 L88.4375 -0.6953 L92.9531 -0.6953 L92.9531 -4.3359 L93.9531 -4.3359 L93.9531 4.2266 Z"/><path style="fill:rgb(230,0,0); stroke:none;" d="M266.4375 -103.9933 Q266.4375 -101.9308 265.3984 -100.7511 Q264.3594 -99.5714 262.5156 -99.5714 Q260.625 -99.5714 259.5938 -100.7355 Q258.5625 -101.8996 258.5625 -104.0089 Q258.5625 -106.1027 259.5938 -107.2511 Q260.625 -108.3996 262.5156 -108.3996 Q264.375 -108.3996 265.4062 -107.2277 Q266.4375 -106.0558 266.4375 -103.9933 ZM259.6094 -103.9933 Q259.6094 -102.2589 260.3516 -101.3527 Q261.0938 -100.4464 262.5156 -100.4464 Q263.9375 -100.4464 264.6641 -101.3449 Q265.3906 -102.2433 265.3906 -103.9933 Q265.3906 -105.7277 264.6641 -106.6183 Q263.9375 -107.5089 262.5156 -107.5089 Q261.0938 -107.5089 260.3516 -106.6105 Q259.6094 -105.7121 259.6094 -103.9933 Z"/><path style="fill:rgb(230,0,0); stroke:none;" d="M273.9531 -99.6964 L272.9531 -99.6964 L272.9531 -103.7277 L268.4375 -103.7277 L268.4375 -99.6964 L267.4375 -99.6964 L267.4375 -108.2589 L268.4375 -108.2589 L268.4375 -104.6183 L272.9531 -104.6183 L272.9531 -108.2589 L273.9531 -108.2589 L273.9531 -99.6964 Z"/><path style="fill:none;" d="M-142.25 25.547 L-142.5 25.98 L-143 25.98"/><path style="fill:none;" d="M-127.75 0.433 L-127.5 0 L-127 0"/><path style="fill:rgb(230,0,0); stroke:none;" d="M-168.5625 25.9097 Q-168.5625 27.9722 -169.6016 29.1519 Q-170.6406 30.3316 -172.4844 30.3316 Q-174.375 30.3316 -175.4062 29.1675 Q-176.4375 28.0034 -176.4375 25.8941 Q-176.4375 23.8003 -175.4062 22.6519 Q-174.375 21.5034 -172.4844 21.5034 Q-170.625 21.5034 -169.5938 22.6753 Q-168.5625 23.8472 -168.5625 25.9097 ZM-175.3906 25.9097 Q-175.3906 27.6441 -174.6484 28.5503 Q-173.9062 29.4566 -172.4844 29.4566 Q-171.0625 29.4566 -170.3359 28.5581 Q-169.6094 27.6597 -169.6094 25.9097 Q-169.6094 24.1753 -170.3359 23.2847 Q-171.0625 22.3941 -172.4844 22.3941 Q-173.9062 22.3941 -174.6484 23.2925 Q-175.3906 24.1909 -175.3906 25.9097 Z"/><path style="fill:none;" d="M-142.25 -25.547 L-142.5 -25.98 L-143 -25.98"/><path style="fill:none;" d="M-188 -0 L-187.5 0 L-187.25 0.433"/><path style="fill:none;" d="M-172.75 -26.413 L-172.5 -25.98 L-172 -25.98"/><path style="fill:none;" d="M-217 0 L-217.5 0 L-217.75 -0.433"/><path style="fill:none;" d="M-187.25 -51.53 L-187.5 -51.963 L-187.25 -52.396"/><path style="fill:none;" d="M-232.25 -26.413 L-232.5 -25.98 L-233 -25.98"/><path style="fill:none;" d="M-217 -51.963 L-217.5 -51.963 L-217.75 -51.53"/><path style="fill:none;" d="M-127 51.963 L-127.5 51.963 L-127.75 51.53"/><path style="fill:none;" d="M-98 51.963 L-97.5 51.963 L-97.25 52.396"/><path style="fill:none;" d="M-142.25 77.51 L-142.5 77.943 L-142.25 78.376"/><path style="fill:none;" d="M-82.75 77.51 L-82.5 77.943 L-82.75 78.376"/><path style="fill:none;" d="M-127.75 103.49 L-127.5 103.923 L-127 103.923"/><path style="fill:none;" d="M-97.25 103.49 L-97.5 103.923 L-97.25 104.356"/><path style="fill:none;" d="M-82 -25.98 L-82.5 -25.98 L-82.75 -26.413"/></g><g transform="translate(277,133)" style="stroke-linecap:butt; font-size:8.4px; fill:gray; text-rendering:geometricPrecision; image-rendering:optimizeQuality; color-rendering:optimizeQuality; font-family:'Open Sans'; font-style:italic; stroke:gray; color-interpolation:linearRGB; stroke-miterlimit:5;"><path style="stroke:none;" d="M-81.6086 -33.4372 Q-81.6086 -34.7653 -81.1399 -35.8903 Q-80.6711 -37.0153 -79.6399 -38.0934 L-79.0305 -38.0934 Q-79.9993 -37.0309 -80.4836 -35.8591 Q-80.968 -34.6872 -80.968 -33.4528 Q-80.968 -32.1247 -80.5305 -31.1091 L-81.0461 -31.1091 Q-81.6086 -32.1403 -81.6086 -33.4372 ZM-75.9861 -34.0309 Q-75.9861 -33.2028 -76.5329 -32.7497 Q-77.0798 -32.2966 -78.0798 -32.2966 Q-78.4861 -32.2966 -78.7986 -32.3513 Q-79.1111 -32.4059 -79.3923 -32.5466 L-79.3923 -33.2028 Q-78.7673 -32.8747 -78.0642 -32.8747 Q-77.4392 -32.8747 -77.0642 -33.1716 Q-76.6892 -33.4684 -76.6892 -33.9841 Q-76.6892 -34.2966 -76.8923 -34.5231 Q-77.0954 -34.7497 -77.6579 -35.0778 Q-78.2517 -35.4059 -78.4783 -35.7341 Q-78.7048 -36.0622 -78.7048 -36.5153 Q-78.7048 -37.2497 -78.1892 -37.7106 Q-77.6736 -38.1716 -76.8298 -38.1716 Q-76.4548 -38.1716 -76.1189 -38.0934 Q-75.7829 -38.0153 -75.4079 -37.8434 L-75.6736 -37.2497 Q-75.9236 -37.4059 -76.2439 -37.4919 Q-76.5642 -37.5778 -76.8298 -37.5778 Q-77.3611 -37.5778 -77.6814 -37.3044 Q-78.0017 -37.0309 -78.0017 -36.5622 Q-78.0017 -36.3591 -77.9314 -36.2106 Q-77.8611 -36.0622 -77.7204 -35.9294 Q-77.5798 -35.7966 -77.1579 -35.5466 Q-76.5954 -35.2028 -76.3923 -35.0075 Q-76.1892 -34.8122 -76.0876 -34.5778 Q-75.9861 -34.3434 -75.9861 -34.0309 ZM-73.3916 -35.7497 Q-73.3916 -34.4216 -73.8681 -33.2888 Q-74.3447 -32.1559 -75.3603 -31.1091 L-75.9697 -31.1091 Q-74.0322 -33.2653 -74.0322 -35.7497 Q-74.0322 -37.0778 -74.4697 -38.0934 L-73.9541 -38.0934 Q-73.3916 -37.0309 -73.3916 -35.7497 Z"/><path style="stroke:none;" d="M-61.8891 -33.4759 Q-61.8891 -34.8041 -61.4203 -35.9291 Q-60.9516 -37.0541 -59.9203 -38.1322 L-59.3109 -38.1322 Q-60.2797 -37.0697 -60.7641 -35.8978 Q-61.2484 -34.7259 -61.2484 -33.4916 Q-61.2484 -32.1634 -60.8109 -31.1478 L-61.3266 -31.1478 Q-61.8891 -32.1791 -61.8891 -33.4759 ZM-58.329 -34.7884 L-58.829 -32.4134 L-59.4853 -32.4134 L-58.2821 -38.1322 L-57.0321 -38.1322 Q-55.2978 -38.1322 -55.2978 -36.6947 Q-55.2978 -35.3353 -56.7353 -34.9447 L-55.7978 -32.4134 L-56.5165 -32.4134 L-57.3446 -34.7884 L-58.329 -34.7884 ZM-57.7509 -37.5384 Q-58.1415 -35.6166 -58.204 -35.3666 L-57.5478 -35.3666 Q-56.7978 -35.3666 -56.3915 -35.6947 Q-55.9853 -36.0228 -55.9853 -36.6478 Q-55.9853 -37.1166 -56.2431 -37.3275 Q-56.5009 -37.5384 -57.0946 -37.5384 L-57.7509 -37.5384 ZM-53.1118 -35.7884 Q-53.1118 -34.4603 -53.5884 -33.3275 Q-54.0649 -32.1947 -55.0805 -31.1478 L-55.6899 -31.1478 Q-53.7524 -33.3041 -53.7524 -35.7884 Q-53.7524 -37.1166 -54.1899 -38.1322 L-53.6743 -38.1322 Q-53.1118 -37.0697 -53.1118 -35.7884 Z"/></g><g transform="translate(277,133)" style="stroke-linecap:butt; fill:rgb(230,0,0); text-rendering:geometricPrecision; color-rendering:optimizeQuality; image-rendering:optimizeQuality; font-family:'Open Sans'; stroke:rgb(230,0,0); color-interpolation:linearRGB; stroke-miterlimit:5;"><path style="stroke:none;" d="M-93.5625 -52.0333 Q-93.5625 -49.9708 -94.6016 -48.7911 Q-95.6406 -47.6114 -97.4844 -47.6114 Q-99.375 -47.6114 -100.4062 -48.7755 Q-101.4375 -49.9396 -101.4375 -52.0489 Q-101.4375 -54.1427 -100.4062 -55.2911 Q-99.375 -56.4396 -97.4844 -56.4396 Q-95.625 -56.4396 -94.5938 -55.2677 Q-93.5625 -54.0958 -93.5625 -52.0333 ZM-100.3906 -52.0333 Q-100.3906 -50.2989 -99.6484 -49.3927 Q-98.9062 -48.4864 -97.4844 -48.4864 Q-96.0625 -48.4864 -95.3359 -49.3849 Q-94.6094 -50.2833 -94.6094 -52.0333 Q-94.6094 -53.7677 -95.3359 -54.6583 Q-96.0625 -55.5489 -97.4844 -55.5489 Q-98.9062 -55.5489 -99.6484 -54.6505 Q-100.3906 -53.7521 -100.3906 -52.0333 Z"/></g><g transform="translate(277,133)" style="stroke-linecap:butt; font-size:8.4px; fill:gray; text-rendering:geometricPrecision; image-rendering:optimizeQuality; color-rendering:optimizeQuality; font-family:'Open Sans'; font-style:italic; stroke:gray; color-interpolation:linearRGB; stroke-miterlimit:5;"><path style="stroke:none;" d="M-36.8887 -59.4593 Q-36.8887 -60.7874 -36.42 -61.9124 Q-35.9512 -63.0374 -34.92 -64.1155 L-34.3106 -64.1155 Q-35.2794 -63.053 -35.7637 -61.8811 Q-36.2481 -60.7093 -36.2481 -59.4749 Q-36.2481 -58.1468 -35.8106 -57.1311 L-36.3262 -57.1311 Q-36.8887 -58.1624 -36.8887 -59.4593 ZM-33.3287 -60.7718 L-33.8287 -58.3968 L-34.4849 -58.3968 L-33.2818 -64.1155 L-32.0318 -64.1155 Q-30.2974 -64.1155 -30.2974 -62.678 Q-30.2974 -61.3186 -31.7349 -60.928 L-30.7974 -58.3968 L-31.5162 -58.3968 L-32.3443 -60.7718 L-33.3287 -60.7718 ZM-32.7506 -63.5218 Q-33.1412 -61.5999 -33.2037 -61.3499 L-32.5474 -61.3499 Q-31.7974 -61.3499 -31.3912 -61.678 Q-30.9849 -62.0061 -30.9849 -62.6311 Q-30.9849 -63.0999 -31.2428 -63.3108 Q-31.5006 -63.5218 -32.0943 -63.5218 L-32.7506 -63.5218 ZM-28.1115 -61.7718 Q-28.1115 -60.4436 -28.588 -59.3108 Q-29.0646 -58.178 -30.0802 -57.1311 L-30.6896 -57.1311 Q-28.7521 -59.2874 -28.7521 -61.7718 Q-28.7521 -63.0999 -29.1896 -64.1155 L-28.674 -64.1155 Q-28.1115 -63.053 -28.1115 -61.7718 Z"/><path style="stroke:none;" d="M-81.6084 -85.4001 Q-81.6084 -86.7282 -81.1397 -87.8532 Q-80.6709 -88.9782 -79.6397 -90.0563 L-79.0303 -90.0563 Q-79.999 -88.9938 -80.4834 -87.8219 Q-80.9678 -86.6501 -80.9678 -85.4157 Q-80.9678 -84.0876 -80.5303 -83.0719 L-81.0459 -83.0719 Q-81.6084 -84.1032 -81.6084 -85.4001 ZM-75.9859 -85.9938 Q-75.9859 -85.1657 -76.5327 -84.7126 Q-77.0796 -84.2594 -78.0796 -84.2594 Q-78.4859 -84.2594 -78.7984 -84.3141 Q-79.1109 -84.3688 -79.3921 -84.5094 L-79.3921 -85.1657 Q-78.7671 -84.8376 -78.064 -84.8376 Q-77.439 -84.8376 -77.064 -85.1344 Q-76.689 -85.4313 -76.689 -85.9469 Q-76.689 -86.2594 -76.8921 -86.486 Q-77.0952 -86.7126 -77.6577 -87.0407 Q-78.2515 -87.3688 -78.478 -87.6969 Q-78.7046 -88.0251 -78.7046 -88.4782 Q-78.7046 -89.2126 -78.189 -89.6735 Q-77.6734 -90.1344 -76.8296 -90.1344 Q-76.4546 -90.1344 -76.1187 -90.0563 Q-75.7827 -89.9782 -75.4077 -89.8063 L-75.6734 -89.2126 Q-75.9234 -89.3688 -76.2437 -89.4548 Q-76.564 -89.5407 -76.8296 -89.5407 Q-77.3609 -89.5407 -77.6812 -89.2673 Q-78.0015 -88.9938 -78.0015 -88.5251 Q-78.0015 -88.3219 -77.9312 -88.1735 Q-77.8609 -88.0251 -77.7202 -87.8923 Q-77.5796 -87.7594 -77.1577 -87.5094 Q-76.5952 -87.1657 -76.3921 -86.9704 Q-76.189 -86.7751 -76.0874 -86.5407 Q-75.9859 -86.3063 -75.9859 -85.9938 ZM-73.3914 -87.7126 Q-73.3914 -86.3844 -73.8679 -85.2516 Q-74.3445 -84.1188 -75.3601 -83.0719 L-75.9695 -83.0719 Q-74.032 -85.2282 -74.032 -87.7126 Q-74.032 -89.0407 -74.4695 -90.0563 L-73.9539 -90.0563 Q-73.3914 -88.9938 -73.3914 -87.7126 Z"/><path style="fill:none; stroke:black;" d="M-52.25 -77.51 L-52.5 -77.943 L-53 -77.943"/><path style="stroke:none;" d="M-61.8884 -85.4393 Q-61.8884 -86.7674 -61.4197 -87.8924 Q-60.9509 -89.0174 -59.9197 -90.0956 L-59.3103 -90.0956 Q-60.279 -89.0331 -60.7634 -87.8612 Q-61.2478 -86.6893 -61.2478 -85.4549 Q-61.2478 -84.1268 -60.8103 -83.1112 L-61.3259 -83.1112 Q-61.8884 -84.1424 -61.8884 -85.4393 ZM-58.3284 -86.7518 L-58.8284 -84.3768 L-59.4846 -84.3768 L-58.2815 -90.0956 L-57.0315 -90.0956 Q-55.2971 -90.0956 -55.2971 -88.6581 Q-55.2971 -87.2987 -56.7346 -86.9081 L-55.7971 -84.3768 L-56.5159 -84.3768 L-57.344 -86.7518 L-58.3284 -86.7518 ZM-57.7502 -89.5018 Q-58.1409 -87.5799 -58.2034 -87.3299 L-57.5471 -87.3299 Q-56.7971 -87.3299 -56.3909 -87.6581 Q-55.9846 -87.9862 -55.9846 -88.6112 Q-55.9846 -89.0799 -56.2424 -89.2909 Q-56.5002 -89.5018 -57.094 -89.5018 L-57.7502 -89.5018 ZM-53.1111 -87.7518 Q-53.1111 -86.4237 -53.5877 -85.2909 Q-54.0643 -84.1581 -55.0799 -83.1112 L-55.6893 -83.1112 Q-53.7518 -85.2674 -53.7518 -87.7518 Q-53.7518 -89.0799 -54.1893 -90.0956 L-53.6736 -90.0956 Q-53.1111 -89.0331 -53.1111 -87.7518 Z"/><path style="fill:none; stroke:black;" d="M-7.25 -0.433 L-7.5 0 L-7.25 0.433"/><path style="stroke:none;" d="M-16.6083 -7.4573 Q-16.6083 -8.7854 -16.1396 -9.9104 Q-15.6708 -11.0354 -14.6396 -12.1135 L-14.0302 -12.1135 Q-14.9989 -11.051 -15.4833 -9.8791 Q-15.9677 -8.7073 -15.9677 -7.4729 Q-15.9677 -6.1448 -15.5302 -5.1291 L-16.0458 -5.1291 Q-16.6083 -6.1604 -16.6083 -7.4573 ZM-10.9857 -8.051 Q-10.9857 -7.2229 -11.5326 -6.7698 Q-12.0795 -6.3166 -13.0795 -6.3166 Q-13.4857 -6.3166 -13.7982 -6.3713 Q-14.1107 -6.426 -14.392 -6.5666 L-14.392 -7.2229 Q-13.767 -6.8948 -13.0639 -6.8948 Q-12.4389 -6.8948 -12.0639 -7.1916 Q-11.6889 -7.4885 -11.6889 -8.0041 Q-11.6889 -8.3166 -11.892 -8.5432 Q-12.0951 -8.7698 -12.6576 -9.0979 Q-13.2514 -9.426 -13.4779 -9.7541 Q-13.7045 -10.0823 -13.7045 -10.5354 Q-13.7045 -11.2698 -13.1889 -11.7307 Q-12.6732 -12.1916 -11.8295 -12.1916 Q-11.4545 -12.1916 -11.1186 -12.1135 Q-10.7826 -12.0354 -10.4076 -11.8635 L-10.6732 -11.2698 Q-10.9232 -11.426 -11.2436 -11.5119 Q-11.5639 -11.5979 -11.8295 -11.5979 Q-12.3607 -11.5979 -12.6811 -11.3244 Q-13.0014 -11.051 -13.0014 -10.5823 Q-13.0014 -10.3791 -12.9311 -10.2307 Q-12.8607 -10.0823 -12.7201 -9.9494 Q-12.5795 -9.8166 -12.1576 -9.5666 Q-11.5951 -9.2229 -11.392 -9.0276 Q-11.1889 -8.8323 -11.0873 -8.5979 Q-10.9857 -8.3635 -10.9857 -8.051 ZM-8.3913 -9.7698 Q-8.3913 -8.4416 -8.8678 -7.3088 Q-9.3444 -6.176 -10.36 -5.1291 L-10.9694 -5.1291 Q-9.0319 -7.2854 -9.0319 -9.7698 Q-9.0319 -11.0979 -9.4694 -12.1135 L-8.9538 -12.1135 Q-8.3913 -11.051 -8.3913 -9.7698 Z"/></g><g transform="translate(277,133)" style="stroke-linecap:butt; fill:rgb(230,0,0); text-rendering:geometricPrecision; color-rendering:optimizeQuality; image-rendering:optimizeQuality; font-family:'Open Sans'; stroke:rgb(230,0,0); color-interpolation:linearRGB; stroke-miterlimit:5;"><path style="stroke:none;" d="M11.4375 -26.0503 Q11.4375 -23.9878 10.3984 -22.8081 Q9.3594 -21.6284 7.5156 -21.6284 Q5.625 -21.6284 4.5938 -22.7925 Q3.5625 -23.9566 3.5625 -26.0659 Q3.5625 -28.1597 4.5938 -29.3081 Q5.625 -30.4566 7.5156 -30.4566 Q9.375 -30.4566 10.4062 -29.2847 Q11.4375 -28.1128 11.4375 -26.0503 ZM4.6094 -26.0503 Q4.6094 -24.3159 5.3516 -23.4097 Q6.0938 -22.5034 7.5156 -22.5034 Q8.9375 -22.5034 9.6641 -23.4019 Q10.3906 -24.3003 10.3906 -26.0503 Q10.3906 -27.7847 9.6641 -28.6753 Q8.9375 -29.5659 7.5156 -29.5659 Q6.0938 -29.5659 5.3516 -28.6675 Q4.6094 -27.7691 4.6094 -26.0503 Z"/></g><g transform="translate(277,133)" style="stroke-linecap:butt; font-size:8.4px; fill:gray; text-rendering:geometricPrecision; image-rendering:optimizeQuality; color-rendering:optimizeQuality; font-family:'Open Sans'; font-style:italic; stroke:gray; color-interpolation:linearRGB; stroke-miterlimit:5;"><path style="stroke:none;" d="M8.1113 18.4837 Q8.1113 17.1556 8.58 16.0306 Q9.0488 14.9056 10.08 13.8275 L10.6894 13.8275 Q9.7206 14.89 9.2363 16.0619 Q8.7519 17.2337 8.7519 18.4681 Q8.7519 19.7962 9.1894 20.8119 L8.6738 20.8119 Q8.1113 19.7806 8.1113 18.4837 ZM11.6713 17.1712 L11.1713 19.5462 L10.5151 19.5462 L11.7182 13.8275 L12.9682 13.8275 Q14.7026 13.8275 14.7026 15.265 Q14.7026 16.6244 13.2651 17.015 L14.2026 19.5462 L13.4838 19.5462 L12.6557 17.1712 L11.6713 17.1712 ZM12.2494 14.4212 Q11.8588 16.3431 11.7963 16.5931 L12.4526 16.5931 Q13.2026 16.5931 13.6088 16.265 Q14.0151 15.9369 14.0151 15.3119 Q14.0151 14.8431 13.7572 14.6322 Q13.4994 14.4212 12.9057 14.4212 L12.2494 14.4212 ZM16.8885 16.1712 Q16.8885 17.4994 16.412 18.6322 Q15.9354 19.765 14.9198 20.8119 L14.3104 20.8119 Q16.2479 18.6556 16.2479 16.1712 Q16.2479 14.8431 15.8104 13.8275 L16.326 13.8275 Q16.8885 14.89 16.8885 16.1712 Z"/><path style="fill:none; stroke:black;" d="M37 -25.98 L37.5 -25.98 L37.75 -25.547"/><path style="stroke:none;" d="M28.1109 -33.4759 Q28.1109 -34.8041 28.5797 -35.9291 Q29.0484 -37.0541 30.0797 -38.1322 L30.6891 -38.1322 Q29.7203 -37.0697 29.2359 -35.8978 Q28.7516 -34.7259 28.7516 -33.4916 Q28.7516 -32.1634 29.1891 -31.1478 L28.6734 -31.1478 Q28.1109 -32.1791 28.1109 -33.4759 ZM31.671 -34.7884 L31.171 -32.4134 L30.5147 -32.4134 L31.7179 -38.1322 L32.9679 -38.1322 Q34.7022 -38.1322 34.7022 -36.6947 Q34.7022 -35.3353 33.2647 -34.9447 L34.2022 -32.4134 L33.4835 -32.4134 L32.6554 -34.7884 L31.671 -34.7884 ZM32.2491 -37.5384 Q31.8585 -35.6166 31.796 -35.3666 L32.4522 -35.3666 Q33.2022 -35.3666 33.6085 -35.6947 Q34.0147 -36.0228 34.0147 -36.6478 Q34.0147 -37.1166 33.7569 -37.3275 Q33.4991 -37.5384 32.9054 -37.5384 L32.2491 -37.5384 ZM36.8882 -35.7884 Q36.8882 -34.4603 36.4116 -33.3275 Q35.9351 -32.1947 34.9195 -31.1478 L34.3101 -31.1478 Q36.2476 -33.3041 36.2476 -35.7884 Q36.2476 -37.1166 35.8101 -38.1322 L36.3257 -38.1322 Q36.8882 -37.0697 36.8882 -35.7884 Z"/><path style="fill:none; stroke:black;" d="M37 25.98 L37.5 25.98 L37.75 25.547"/><path style="stroke:none;" d="M28.3915 18.5229 Q28.3915 17.1947 28.8602 16.0697 Q29.329 14.9447 30.3602 13.8666 L30.9696 13.8666 Q30.0009 14.9291 29.5165 16.101 Q29.0321 17.2729 29.0321 18.5072 Q29.0321 19.8354 29.4696 20.851 L28.954 20.851 Q28.3915 19.8197 28.3915 18.5229 ZM34.014 17.9291 Q34.014 18.7572 33.4672 19.2104 Q32.9203 19.6635 31.9203 19.6635 Q31.514 19.6635 31.2015 19.6088 Q30.889 19.5541 30.6078 19.4135 L30.6078 18.7572 Q31.2328 19.0854 31.9359 19.0854 Q32.5609 19.0854 32.9359 18.7885 Q33.3109 18.4916 33.3109 17.976 Q33.3109 17.6635 33.1078 17.4369 Q32.9047 17.2104 32.3422 16.8822 Q31.7484 16.5541 31.5219 16.226 Q31.2953 15.8979 31.2953 15.4447 Q31.2953 14.7104 31.8109 14.2494 Q32.3265 13.7885 33.1703 13.7885 Q33.5453 13.7885 33.8812 13.8666 Q34.2172 13.9447 34.5922 14.1166 L34.3265 14.7104 Q34.0765 14.5541 33.7562 14.4682 Q33.4359 14.3822 33.1703 14.3822 Q32.639 14.3822 32.3187 14.6557 Q31.9984 14.9291 31.9984 15.3979 Q31.9984 15.601 32.0687 15.7494 Q32.139 15.8979 32.2797 16.0307 Q32.4203 16.1635 32.8422 16.4135 Q33.4047 16.7572 33.6078 16.9526 Q33.8109 17.1479 33.9125 17.3822 Q34.014 17.6166 34.014 17.9291 ZM36.6085 16.2104 Q36.6085 17.5385 36.132 18.6713 Q35.6554 19.8041 34.6398 20.851 L34.0304 20.851 Q35.9679 18.6947 35.9679 16.2104 Q35.9679 14.8822 35.5304 13.8666 L36.046 13.8666 Q36.6085 14.9291 36.6085 16.2104 Z"/><path style="stroke:none;" d="M53.3916 -7.4571 Q53.3916 -8.7852 53.8603 -9.9102 Q54.3291 -11.0352 55.3603 -12.1133 L55.9697 -12.1133 Q55.001 -11.0508 54.5166 -9.8789 Q54.0322 -8.7071 54.0322 -7.4727 Q54.0322 -6.1446 54.4697 -5.1289 L53.9541 -5.1289 Q53.3916 -6.1602 53.3916 -7.4571 ZM59.0141 -8.0508 Q59.0141 -7.2227 58.4673 -6.7696 Q57.9204 -6.3164 56.9204 -6.3164 Q56.5141 -6.3164 56.2016 -6.3711 Q55.8891 -6.4258 55.6079 -6.5664 L55.6079 -7.2227 Q56.2329 -6.8946 56.936 -6.8946 Q57.561 -6.8946 57.936 -7.1914 Q58.311 -7.4883 58.311 -8.0039 Q58.311 -8.3164 58.1079 -8.543 Q57.9048 -8.7696 57.3423 -9.0977 Q56.7485 -9.4258 56.522 -9.7539 Q56.2954 -10.0821 56.2954 -10.5352 Q56.2954 -11.2696 56.811 -11.7305 Q57.3266 -12.1914 58.1704 -12.1914 Q58.5454 -12.1914 58.8813 -12.1133 Q59.2173 -12.0352 59.5923 -11.8633 L59.3266 -11.2696 Q59.0766 -11.4258 58.7563 -11.5118 Q58.436 -11.5977 58.1704 -11.5977 Q57.6391 -11.5977 57.3188 -11.3243 Q56.9985 -11.0508 56.9985 -10.5821 Q56.9985 -10.3789 57.0688 -10.2305 Q57.1391 -10.0821 57.2798 -9.9493 Q57.4204 -9.8164 57.8423 -9.5664 Q58.4048 -9.2227 58.6079 -9.0274 Q58.811 -8.8321 58.9126 -8.5977 Q59.0141 -8.3633 59.0141 -8.0508 ZM61.6086 -9.7696 Q61.6086 -8.4414 61.1321 -7.3086 Q60.6555 -6.1758 59.6399 -5.1289 L59.0305 -5.1289 Q60.968 -7.2852 60.968 -9.7696 Q60.968 -11.0977 60.5305 -12.1133 L61.0461 -12.1133 Q61.6086 -11.0508 61.6086 -9.7696 Z"/><path style="fill:none; stroke:black;" d="M172.75 -103.49 L172.5 -103.923 L172 -103.923"/><path style="fill:none; stroke:black;" d="M187.25 -78.376 L187.5 -77.943 L188 -77.943"/><path style="fill:none; stroke:black;" d="M187.25 -129.47 L187.5 -129.903 L188 -129.903"/><path style="fill:none; stroke:black;" d="M217 -77.943 L217.5 -77.943 L217.75 -78.376"/><path style="fill:none; stroke:black;" d="M217 -129.903 L217.5 -129.903 L217.75 -129.47"/><path style="fill:none; stroke:black;" d="M232.25 -103.49 L232.5 -103.923 L233 -103.923"/></g></g></svg></svg></svg></svg>