<svg width="214" viewBox="0 0 214 59" style="fill-opacity:1; color-rendering:auto; color-interpolation:auto; text-rendering:auto; stroke:black; stroke-linecap:square; stroke-miterlimit:10; shape-rendering:auto; stroke-opacity:1; fill:black; stroke-dasharray:none; font-weight:normal; stroke-width:1; font-family:'Open Sans'; font-style:normal; stroke-linejoin:miter; font-size:12; stroke-dashoffset:0; image-rendering:auto;" height="59" class="cas-substance-image" xmlns:xlink="http://www.w3.org/1999/xlink" xmlns="http://www.w3.org/2000/svg"><svg class="cas-substance-single-component"><rect y="0" x="0" width="214" stroke="none" ry="7" rx="7" height="59" fill="white" class="cas-substance-group"/><svg y="0" x="0" width="214" viewBox="0 0 214 59" style="fill:black;" height="59" class="cas-substance-single-component-image"><svg><g><g transform="translate(107,30)" style="text-rendering:geometricPrecision; color-rendering:optimizeQuality; color-interpolation:linearRGB; stroke-linecap:butt; image-rendering:optimizeQuality;"><line y2="-10.536" y1="-25.536" x2="25.668" x1="-0.312" style="fill:none;"/><line y2="-10.536" y1="-25.536" x2="-26.295" x1="-0.312" style="fill:none;"/><line y2="-25.536" y1="-10.536" x2="51.648" x1="25.668" style="fill:none;"/><line y2="-10.536" y1="-25.536" x2="77.628" x1="51.648" style="fill:none;"/><line y2="-25.536" y1="-10.536" x2="103.611" x1="77.628" style="fill:none;"/><line y2="-0.444" y1="-3.579" x2="-73.773" x1="-103.611" style="fill:none;"/><line y2="-20.1729" y1="-10.536" x2="-47.9355" x1="-26.295" style="fill:none;"/><line y2="12.8334" y1="-10.536" x2="-28.7506" x1="-26.295" style="fill:none;"/><line y2="-0.444" y1="-18.0457" x2="-73.773" x1="-57.9263" style="fill:none;"/><line y2="25.536" y1="20.5518" x2="-58.773" x1="-35.3238" style="fill:none;"/><line y2="25.536" y1="-0.444" x2="-58.773" x1="-73.773" style="fill:none;"/><path style="fill:none; stroke-miterlimit:5;" d="M0.121 -25.286 L-0.312 -25.536 L-0.745 -25.286"/><path style="fill:none; stroke-miterlimit:5;" d="M25.235 -10.786 L25.668 -10.536 L26.101 -10.786"/><path style="fill:none; stroke-miterlimit:5;" d="M51.215 -25.286 L51.648 -25.536 L52.081 -25.286"/><path style="fill:none; stroke-miterlimit:5;" d="M77.195 -10.786 L77.628 -10.536 L78.061 -10.786"/></g><g transform="translate(107,30)" style="stroke-linecap:butt; fill:rgb(230,0,0); text-rendering:geometricPrecision; color-rendering:optimizeQuality; image-rendering:optimizeQuality; font-family:'Open Sans'; stroke:rgb(230,0,0); color-interpolation:linearRGB; stroke-miterlimit:5;"><path style="stroke:none;" d="M-49.7625 -22.8103 Q-49.7625 -20.7478 -50.8016 -19.5681 Q-51.8406 -18.3884 -53.6844 -18.3884 Q-55.575 -18.3884 -56.6062 -19.5525 Q-57.6375 -20.7166 -57.6375 -22.8259 Q-57.6375 -24.9197 -56.6062 -26.0681 Q-55.575 -27.2166 -53.6844 -27.2166 Q-51.825 -27.2166 -50.7937 -26.0447 Q-49.7625 -24.8728 -49.7625 -22.8103 ZM-56.5906 -22.8103 Q-56.5906 -21.0759 -55.8484 -20.1697 Q-55.1062 -19.2634 -53.6844 -19.2634 Q-52.2625 -19.2634 -51.5359 -20.1619 Q-50.8094 -21.0603 -50.8094 -22.8103 Q-50.8094 -24.5447 -51.5359 -25.4353 Q-52.2625 -26.3259 -53.6844 -26.3259 Q-55.1062 -26.3259 -55.8484 -25.4275 Q-56.5906 -24.5291 -56.5906 -22.8103 Z"/><path style="stroke:none;" d="M-25.4925 19.2287 Q-25.4925 21.2912 -26.5316 22.4709 Q-27.5706 23.6506 -29.4144 23.6506 Q-31.305 23.6506 -32.3363 22.4865 Q-33.3675 21.3224 -33.3675 19.2131 Q-33.3675 17.1193 -32.3363 15.9709 Q-31.305 14.8224 -29.4144 14.8224 Q-27.555 14.8224 -26.5238 15.9943 Q-25.4925 17.1662 -25.4925 19.2287 ZM-32.3206 19.2287 Q-32.3206 20.9631 -31.5784 21.8693 Q-30.8363 22.7756 -29.4144 22.7756 Q-27.9925 22.7756 -27.2659 21.8771 Q-26.5394 20.9787 -26.5394 19.2287 Q-26.5394 17.4943 -27.2659 16.6037 Q-27.9925 15.7131 -29.4144 15.7131 Q-30.8363 15.7131 -31.5784 16.6115 Q-32.3206 17.5099 -32.3206 19.2287 Z"/><path style="fill:none; stroke:black;" d="M-58.2839 25.432 L-58.773 25.536 L-59.023 25.103"/></g></g></svg></svg></svg></svg>