<svg xmlns:ns0="http://www.w3.org/2000/svg" xmlns="http://www.w3.org/2000/svg"><g transform="translate(0, 0)"><ns0:svg width="199" viewBox="0 0 199 137" style="fill-opacity:1; color-rendering:auto; color-interpolation:auto; text-rendering:auto; stroke:black; stroke-linecap:square; stroke-miterlimit:10; shape-rendering:auto; stroke-opacity:1; fill:black; stroke-dasharray:none; font-weight:normal; stroke-width:1; font-family:'Open Sans'; font-style:normal; stroke-linejoin:miter; font-size:12; stroke-dashoffset:0; image-rendering:auto;" height="137" class="cas-substance-image"><ns0:svg class="cas-substance-single-component"><ns0:rect y="0" x="0" width="199" stroke="none" ry="7" rx="7" height="137" fill="white" class="cas-substance-group" /><ns0:svg y="0" x="0" width="199" viewBox="0 0 199 137" style="fill:black;" height="137" class="cas-substance-single-component-image"><ns0:svg><ns0:g><ns0:g transform="translate(100,68)" style="text-rendering:geometricPrecision; color-rendering:optimizeQuality; color-interpolation:linearRGB; stroke-linecap:butt; image-rendering:optimizeQuality;"><ns0:line y2="12.4277" y1="35.7885" x2="37.6643" x1="45.2548" style="fill:none;" /><ns0:line y2="13.5094" y1="36.8701" x2="34.3357" x1="41.9261" style="fill:none;" /><ns0:line y2="-1.5013" y1="-25.095" x2="7.86" x1="7.86" style="fill:none;" /><ns0:line y2="-34.365" y1="-25.095" x2="36.393" x1="7.86" style="fill:none;" /><ns0:line y2="-37.1599" y1="-25.095" x2="-13.0364" x1="7.86" style="fill:none;" /><ns0:line y2="-34.1288" y1="-23.0743" x2="-14.7864" x1="4.36" style="fill:none;" /><ns0:line y2="19.905" y1="7.8401" x2="-18.12" x1="2.7764" style="fill:none;" /><ns0:line y2="14.178" y1="6.6124" x2="36.393" x1="13.1136" style="fill:none;" /><ns0:line y2="-10.095" y1="-34.365" x2="54.024" x1="36.393" style="fill:none;" /><ns0:line y2="-61.77" y1="-34.365" x2="48.594" x1="36.393" style="fill:none;" /><ns0:line y2="-58.5004" y1="-34.7875" x2="50.9696" x1="40.4123" style="fill:none;" /><ns0:line y2="-25.095" y1="-37.1599" x2="-44.1" x1="-23.2036" style="fill:none;" /><ns0:line y2="4.905" y1="19.905" x2="-44.1" x1="-18.12" style="fill:none;" /><ns0:line y2="8.9465" y1="21.9257" x2="-44.1001" x1="-21.62" style="fill:none;" /><ns0:line y2="49.905" y1="19.905" x2="-18.12" x1="-18.12" style="fill:none;" /><ns0:line y2="-10.095" y1="14.178" x2="54.024" x1="36.393" style="fill:none;" /><ns0:line y2="-13.23" y1="-10.095" x2="83.862" x1="54.024" style="fill:none;" /><ns0:line y2="-16.4997" y1="-13.787" x2="81.4866" x1="55.6679" style="fill:none;" /><ns0:line y2="-64.905" y1="-61.77" x2="78.429" x1="48.594" style="fill:none;" /><ns0:line y2="4.905" y1="-25.095" x2="-44.1" x1="-44.1" style="fill:none;" /><ns0:line y2="-40.095" y1="-25.095" x2="-70.083" x1="-44.1" style="fill:none;" /><ns0:line y2="-36.0535" y1="-23.0741" x2="-70.0828" x1="-47.5999" style="fill:none;" /><ns0:line y2="19.905" y1="4.905" x2="-70.083" x1="-44.1" style="fill:none;" /><ns0:line y2="64.905" y1="49.905" x2="-44.1" x1="-18.12" style="fill:none;" /><ns0:line y2="60.8635" y1="47.8843" x2="-44.1001" x1="-21.62" style="fill:none;" /><ns0:line y2="-40.635" y1="-13.23" x2="96.063" x1="83.862" style="fill:none;" /><ns0:line y2="-40.635" y1="-64.905" x2="96.063" x1="78.429" style="fill:none;" /><ns0:line y2="-40.2125" y1="-61.2129" x2="92.0437" x1="76.7853" style="fill:none;" /><ns0:line y2="-25.095" y1="-40.095" x2="-96.063" x1="-70.083" style="fill:none;" /><ns0:line y2="49.905" y1="19.905" x2="-70.083" x1="-70.083" style="fill:none;" /><ns0:line y2="47.8843" y1="21.9257" x2="-66.583" x1="-66.583" style="fill:none;" /><ns0:line y2="4.905" y1="19.905" x2="-96.063" x1="-70.083" style="fill:none;" /><ns0:line y2="49.905" y1="64.905" x2="-70.083" x1="-44.1" style="fill:none;" /><ns0:line y2="4.905" y1="-25.095" x2="-96.063" x1="-96.063" style="fill:none;" /><ns0:line y2="2.8843" y1="-23.0743" x2="-92.563" x1="-92.563" style="fill:none;" /></ns0:g><ns0:g transform="translate(100,68)" style="fill:rgb(230,0,0); text-rendering:geometricPrecision; color-rendering:optimizeQuality; image-rendering:optimizeQuality; font-family:'Open Sans'; stroke:rgb(230,0,0); color-interpolation:linearRGB;"><ns0:path style="stroke:none;" d="M49.6005 42.6377 Q49.6005 44.7002 48.5614 45.8799 Q47.5224 47.0596 45.6786 47.0596 Q43.788 47.0596 42.7567 45.8955 Q41.7255 44.7314 41.7255 42.6221 Q41.7255 40.5283 42.7567 39.3799 Q43.788 38.2314 45.6786 38.2314 Q47.538 38.2314 48.5692 39.4033 Q49.6005 40.5752 49.6005 42.6377 ZM42.7724 42.6377 Q42.7724 44.3721 43.5146 45.2783 Q44.2567 46.1846 45.6786 46.1846 Q47.1005 46.1846 47.8271 45.2861 Q48.5536 44.3877 48.5536 42.6377 Q48.5536 40.9033 47.8271 40.0127 Q47.1005 39.1221 45.6786 39.1221 Q44.2567 39.1221 43.5146 40.0205 Q42.7724 40.9189 42.7724 42.6377 Z" /></ns0:g><ns0:g transform="translate(100,68)" style="stroke-linecap:butt; text-rendering:geometricPrecision; color-rendering:optimizeQuality; image-rendering:optimizeQuality; font-family:'Open Sans'; color-interpolation:linearRGB; stroke-miterlimit:5;"><ns0:path style="fill:none;" d="M7.427 -25.345 L7.86 -25.095 L7.86 -24.595" /><ns0:path style="fill:rgb(0,5,255); stroke:none;" d="M11.2116 9.0612 L10.0709 9.0612 L5.3834 1.8737 L5.3366 1.8737 Q5.4303 3.1394 5.4303 4.1862 L5.4303 9.0612 L4.5084 9.0612 L4.5084 0.4987 L5.6334 0.4987 L10.3053 7.655 L10.3522 7.655 Q10.3522 7.4987 10.3053 6.6394 Q10.2584 5.78 10.2741 5.405 L10.2741 0.4987 L11.2116 0.4987 L11.2116 9.0612 Z" /><ns0:path style="fill:none;" d="M36.5964 -34.8218 L36.393 -34.365 L35.9175 -34.2105" /><ns0:path style="fill:rgb(0,5,255); stroke:none;" d="M-14.7684 -35.9388 L-15.9091 -35.9388 L-20.5966 -43.1263 L-20.6434 -43.1263 Q-20.5497 -41.8606 -20.5497 -40.8138 L-20.5497 -35.9388 L-21.4716 -35.9388 L-21.4716 -44.5013 L-20.3466 -44.5013 L-15.6747 -37.345 L-15.6278 -37.345 Q-15.6278 -37.5013 -15.6747 -38.3606 Q-15.7216 -39.22 -15.7059 -39.595 L-15.7059 -44.5013 L-14.7684 -44.5013 L-14.7684 -35.9388 Z" /><ns0:path style="fill:none;" d="M-18.553 19.655 L-18.12 19.905 L-17.687 19.655" /><ns0:path style="fill:none;" d="M35.9175 14.0235 L36.393 14.178 L36.6868 13.7735" /><ns0:path style="fill:none;" d="M54.5213 -10.1472 L54.024 -10.095 L53.7301 -10.4995" /><ns0:path style="fill:none;" d="M48.3906 -61.3132 L48.594 -61.77 L49.0913 -61.8223" /><ns0:path style="fill:none;" d="M-44.533 -25.345 L-44.1 -25.095 L-43.667 -25.345" /><ns0:path style="fill:none;" d="M-43.667 5.155 L-44.1 4.905 L-44.1 4.405" /><ns0:path style="fill:none;" d="M-18.12 49.405 L-18.12 49.905 L-18.553 50.155" /><ns0:path style="fill:none;" d="M83.3647 -13.1778 L83.862 -13.23 L84.0654 -13.6868" /><ns0:path style="fill:none;" d="M77.9317 -64.8527 L78.429 -64.905 L78.7229 -64.5005" /><ns0:path style="fill:none;" d="M-69.65 -39.845 L-70.083 -40.095 L-70.516 -39.845" /><ns0:path style="fill:none;" d="M-70.083 20.405 L-70.083 19.905 L-69.65 19.655" /><ns0:path style="fill:none;" d="M-43.667 64.655 L-44.1 64.905 L-44.533 64.655" /><ns0:path style="fill:none;" d="M95.8596 -40.1782 L96.063 -40.635 L95.7691 -41.0395" /><ns0:path style="fill:none;" d="M-95.63 -25.345 L-96.063 -25.095 L-96.063 -24.595" /><ns0:path style="fill:none;" d="M-70.083 49.405 L-70.083 49.905 L-69.65 50.155" /><ns0:path style="fill:none;" d="M-95.63 5.155 L-96.063 4.905 L-96.063 4.405" /></ns0:g></ns0:g></ns0:svg></ns0:svg></ns0:svg></ns0:svg></g></svg>