<svg xmlns:ns0="http://www.w3.org/2000/svg" xmlns="http://www.w3.org/2000/svg"><g transform="translate(0, 0)"><ns0:svg width="163" viewBox="0 0 163 90" style="fill-opacity:1; color-rendering:auto; color-interpolation:auto; text-rendering:auto; stroke:black; stroke-linecap:square; stroke-miterlimit:10; shape-rendering:auto; stroke-opacity:1; fill:black; stroke-dasharray:none; font-weight:normal; stroke-width:1; font-family:'Open Sans'; font-style:normal; stroke-linejoin:miter; font-size:12; stroke-dashoffset:0; image-rendering:auto;" height="90" class="cas-substance-image"><ns0:svg class="cas-substance-single-component"><ns0:rect y="0" x="0" width="163" stroke="none" ry="7" rx="7" height="90" fill="white" class="cas-substance-group" /><ns0:svg y="0" x="0" width="163" viewBox="0 0 163 90" style="fill:black;" height="90" class="cas-substance-single-component-image"><ns0:svg><ns0:g><ns0:g transform="translate(79,45)" style="text-rendering:geometricPrecision; color-rendering:optimizeQuality; color-interpolation:linearRGB; stroke-linecap:butt; image-rendering:optimizeQuality;"><ns0:line y2="4.5649" y1="-7.5" x2="7.9064" x1="-12.99" style="fill:none;" /><ns0:line y2="7.5" y1="-7.5" x2="-38.97" x1="-12.99" style="fill:none;" /><ns0:line y2="-7.5" y1="4.5649" x2="38.97" x1="18.0736" style="fill:none;" /><ns0:line y2="-4.3216" y1="7.5" x2="-59.4475" x1="-38.97" style="fill:none;" /><ns0:line y2="31.0234" y1="6.4897" x2="-40.72" x1="-40.72" style="fill:none;" /><ns0:line y2="31.0234" y1="6.4896" x2="-37.22" x1="-37.22" style="fill:none;" /><ns0:line y2="4.5652" y1="-7.5" x2="59.8694" x1="38.97" style="fill:none;" /><ns0:line y2="-31.1484" y1="-6.4897" x2="40.72" x1="40.72" style="fill:none;" /><ns0:line y2="-31.1484" y1="-6.4896" x2="37.22" x1="37.22" style="fill:none;" /><ns0:path style="fill:none; stroke-miterlimit:5;" d="M-12.557 -7.25 L-12.99 -7.5 L-13.423 -7.25" /></ns0:g><ns0:g transform="translate(79,45)" style="stroke-linecap:butt; fill:rgb(0,5,255); text-rendering:geometricPrecision; color-rendering:optimizeQuality; image-rendering:optimizeQuality; font-family:'Open Sans'; stroke:rgb(0,5,255); color-interpolation:linearRGB; stroke-miterlimit:5;"><ns0:path style="stroke:none;" d="M16.3416 11.6562 L15.2009 11.6562 L10.5134 4.4688 L10.4666 4.4688 Q10.5603 5.7344 10.5603 6.7812 L10.5603 11.6562 L9.6384 11.6562 L9.6384 3.0938 L10.7634 3.0938 L15.4353 10.25 L15.4822 10.25 Q15.4822 10.0938 15.4353 9.2344 Q15.3884 8.375 15.4041 8 L15.4041 3.0938 L16.3416 3.0938 L16.3416 11.6562 Z" /><ns0:path style="stroke:none;" d="M16.2478 21.2188 L15.2478 21.2188 L15.2478 17.1875 L10.7322 17.1875 L10.7322 21.2188 L9.7322 21.2188 L9.7322 12.6562 L10.7322 12.6562 L10.7322 16.2969 L15.2478 16.2969 L15.2478 12.6562 L16.2478 12.6562 L16.2478 21.2188 Z" /><ns0:path style="fill:none; stroke:black;" d="M-38.537 7.25 L-38.97 7.5 L-39.403 7.25" /><ns0:path style="fill:none; stroke:black;" d="M38.537 -7.25 L38.97 -7.5 L39.403 -7.25" /><ns0:path style="fill:rgb(230,0,0); stroke:none;" d="M-61.0155 -7.5703 Q-61.0155 -5.5078 -62.0546 -4.3281 Q-63.0936 -3.1484 -64.9374 -3.1484 Q-66.828 -3.1484 -67.8593 -4.3125 Q-68.8905 -5.4766 -68.8905 -7.5859 Q-68.8905 -9.6797 -67.8593 -10.8281 Q-66.828 -11.9766 -64.9374 -11.9766 Q-63.078 -11.9766 -62.0468 -10.8047 Q-61.0155 -9.6328 -61.0155 -7.5703 ZM-67.8436 -7.5703 Q-67.8436 -5.8359 -67.1014 -4.9297 Q-66.3593 -4.0234 -64.9374 -4.0234 Q-63.5155 -4.0234 -62.7889 -4.9219 Q-62.0624 -5.8203 -62.0624 -7.5703 Q-62.0624 -9.3047 -62.7889 -10.1953 Q-63.5155 -11.0859 -64.9374 -11.0859 Q-66.3593 -11.0859 -67.1014 -10.1875 Q-67.8436 -9.2891 -67.8436 -7.5703 Z" /><ns0:path style="fill:rgb(230,0,0); stroke:none;" d="M-69.8905 -3.2734 L-70.8905 -3.2734 L-70.8905 -7.3047 L-75.4061 -7.3047 L-75.4061 -3.2734 L-76.4061 -3.2734 L-76.4061 -11.8359 L-75.4061 -11.8359 L-75.4061 -8.1953 L-70.8905 -8.1953 L-70.8905 -11.8359 L-69.8905 -11.8359 L-69.8905 -3.2734 Z" /><ns0:path style="fill:rgb(230,0,0); stroke:none;" d="M-35.0325 37.4297 Q-35.0325 39.4922 -36.0716 40.6719 Q-37.1106 41.8516 -38.9544 41.8516 Q-40.845 41.8516 -41.8763 40.6875 Q-42.9075 39.5234 -42.9075 37.4141 Q-42.9075 35.3203 -41.8763 34.1719 Q-40.845 33.0234 -38.9544 33.0234 Q-37.095 33.0234 -36.0638 34.1953 Q-35.0325 35.3672 -35.0325 37.4297 ZM-41.8606 37.4297 Q-41.8606 39.1641 -41.1184 40.0703 Q-40.3763 40.9766 -38.9544 40.9766 Q-37.5325 40.9766 -36.8059 40.0781 Q-36.0794 39.1797 -36.0794 37.4297 Q-36.0794 35.6953 -36.8059 34.8047 Q-37.5325 33.9141 -38.9544 33.9141 Q-40.3763 33.9141 -41.1184 34.8125 Q-41.8606 35.7109 -41.8606 37.4297 Z" /><ns0:path style="stroke:none;" d="M68.3046 11.6562 L67.1639 11.6562 L62.4764 4.4688 L62.4296 4.4688 Q62.5233 5.7344 62.5233 6.7812 L62.5233 11.6562 L61.6014 11.6562 L61.6014 3.0938 L62.7264 3.0938 L67.3983 10.25 L67.4452 10.25 Q67.4452 10.0938 67.3983 9.2344 Q67.3514 8.375 67.3671 8 L67.3671 3.0938 L68.3046 3.0938 L68.3046 11.6562 Z" /><ns0:path style="stroke:none;" d="M75.8202 11.6562 L74.8202 11.6562 L74.8202 7.625 L70.3046 7.625 L70.3046 11.6562 L69.3046 11.6562 L69.3046 3.0938 L70.3046 3.0938 L70.3046 6.7344 L74.8202 6.7344 L74.8202 3.0938 L75.8202 3.0938 L75.8202 11.6562 Z" /><ns0:path style="stroke:none;" d="M80.5702 13.4656 L76.8202 13.4656 L76.8202 12.9031 L78.3202 11.3875 Q79.0077 10.7 79.2264 10.4031 Q79.4452 10.1062 79.5546 9.825 Q79.6639 9.5437 79.6639 9.2156 Q79.6639 8.7625 79.3905 8.4969 Q79.1171 8.2312 78.6171 8.2312 Q78.2733 8.2312 77.953 8.3484 Q77.6327 8.4656 77.2421 8.7625 L76.8983 8.325 Q77.6796 7.6687 78.6171 7.6687 Q79.4139 7.6687 79.8749 8.0828 Q80.3358 8.4969 80.3358 9.1844 Q80.3358 9.7312 80.0311 10.2625 Q79.7264 10.7937 78.8827 11.6062 L77.6327 12.825 L77.6327 12.8562 L80.5702 12.8562 L80.5702 13.4656 Z" /><ns0:path style="fill:rgb(230,0,0); stroke:none;" d="M42.9075 -37.5703 Q42.9075 -35.5078 41.8684 -34.3281 Q40.8294 -33.1484 38.9856 -33.1484 Q37.095 -33.1484 36.0638 -34.3125 Q35.0325 -35.4766 35.0325 -37.5859 Q35.0325 -39.6797 36.0638 -40.8281 Q37.095 -41.9766 38.9856 -41.9766 Q40.845 -41.9766 41.8763 -40.8047 Q42.9075 -39.6328 42.9075 -37.5703 ZM36.0794 -37.5703 Q36.0794 -35.8359 36.8216 -34.9297 Q37.5638 -34.0234 38.9856 -34.0234 Q40.4075 -34.0234 41.1341 -34.9219 Q41.8606 -35.8203 41.8606 -37.5703 Q41.8606 -39.3047 41.1341 -40.1953 Q40.4075 -41.0859 38.9856 -41.0859 Q37.5638 -41.0859 36.8216 -40.1875 Q36.0794 -39.2891 36.0794 -37.5703 Z" /></ns0:g></ns0:g></ns0:svg></ns0:svg></ns0:svg></ns0:svg></g></svg>