<svg width="164" viewBox="0 0 164 136" style="fill-opacity:1; color-rendering:auto; color-interpolation:auto; text-rendering:auto; stroke:black; stroke-linecap:square; stroke-miterlimit:10; shape-rendering:auto; stroke-opacity:1; fill:black; stroke-dasharray:none; font-weight:normal; stroke-width:1; font-family:'Open Sans'; font-style:normal; stroke-linejoin:miter; font-size:12; stroke-dashoffset:0; image-rendering:auto;" height="136" class="cas-substance-image" xmlns:xlink="http://www.w3.org/1999/xlink" xmlns="http://www.w3.org/2000/svg"><svg class="cas-substance-single-component"><rect y="0" x="0" width="164" stroke="none" ry="7" rx="7" height="136" fill="white" class="cas-substance-group"/><svg y="0" x="0" width="164" viewBox="0 0 164 136" style="fill:black;" height="136" class="cas-substance-single-component-image"><svg><g><g transform="translate(82,68)" style="text-rendering:geometricPrecision; color-rendering:optimizeQuality; color-interpolation:linearRGB; stroke-linecap:butt; image-rendering:optimizeQuality;"><line y2="12.99" y1="12.99" x2="7.5" x1="-22.5" style="fill:none;"/><line y2="38.97" y1="12.99" x2="-37.5" x1="-22.5" style="fill:none;"/><line y2="-12.99" y1="12.99" x2="-37.5" x1="-22.5" style="fill:none;"/><line y2="-12.99" y1="12.99" x2="22.5" x1="7.5" style="fill:none;"/><line y2="64.953" y1="38.97" x2="-22.5" x1="-37.5" style="fill:none;"/><line y2="-12.99" y1="-12.99" x2="-61.5625" x1="-37.5" style="fill:none;"/><line y2="-38.97" y1="-12.99" x2="7.5" x1="22.5" style="fill:none;"/><line y2="-12.99" y1="-12.99" x2="52.5" x1="22.5" style="fill:none;"/><line y2="-64.953" y1="-38.97" x2="22.5" x1="7.5" style="fill:none;"/><line y2="7.2624" y1="-12.99" x2="64.1931" x1="52.5" style="fill:none;"/><path style="fill:none; stroke-miterlimit:5;" d="M7 12.99 L7.5 12.99 L7.75 12.557"/><path style="fill:none; stroke-miterlimit:5;" d="M-37.25 38.537 L-37.5 38.97 L-37.25 39.403"/><path style="fill:none; stroke-miterlimit:5;" d="M-37.25 -12.557 L-37.5 -12.99 L-38 -12.99"/></g><g transform="translate(82,68)" style="stroke-linecap:butt; fill:rgb(230,0,0); text-rendering:geometricPrecision; color-rendering:optimizeQuality; image-rendering:optimizeQuality; font-family:'Open Sans'; stroke:rgb(230,0,0); color-interpolation:linearRGB; stroke-miterlimit:5;"><path style="stroke:none;" d="M-63.5625 -13.0603 Q-63.5625 -10.9978 -64.6016 -9.8181 Q-65.6406 -8.6384 -67.4844 -8.6384 Q-69.375 -8.6384 -70.4062 -9.8025 Q-71.4375 -10.9666 -71.4375 -13.0759 Q-71.4375 -15.1697 -70.4062 -16.3181 Q-69.375 -17.4666 -67.4844 -17.4666 Q-65.625 -17.4666 -64.5938 -16.2947 Q-63.5625 -15.1228 -63.5625 -13.0603 ZM-70.3906 -13.0603 Q-70.3906 -11.3259 -69.6484 -10.4197 Q-68.9062 -9.5134 -67.4844 -9.5134 Q-66.0625 -9.5134 -65.3359 -10.4119 Q-64.6094 -11.3103 -64.6094 -13.0603 Q-64.6094 -14.7947 -65.3359 -15.6853 Q-66.0625 -16.5759 -67.4844 -16.5759 Q-68.9062 -16.5759 -69.6484 -15.6775 Q-70.3906 -14.7791 -70.3906 -13.0603 Z"/><path style="stroke:none;" d="M-72.4375 -8.7634 L-73.4375 -8.7634 L-73.4375 -12.7947 L-77.9531 -12.7947 L-77.9531 -8.7634 L-78.9531 -8.7634 L-78.9531 -17.3259 L-77.9531 -17.3259 L-77.9531 -13.6853 L-73.4375 -13.6853 L-73.4375 -17.3259 L-72.4375 -17.3259 L-72.4375 -8.7634 Z"/><path style="fill:none; stroke:black;" d="M7.75 -38.537 L7.5 -38.97 L7.75 -39.403"/><path style="fill:none; stroke:black;" d="M52 -12.99 L52.5 -12.99 L52.75 -12.557"/><path style="stroke:none;" d="M71.4375 12.9197 Q71.4375 14.9822 70.3984 16.1619 Q69.3594 17.3416 67.5156 17.3416 Q65.625 17.3416 64.5938 16.1775 Q63.5625 15.0134 63.5625 12.9041 Q63.5625 10.8103 64.5938 9.6619 Q65.625 8.5134 67.5156 8.5134 Q69.375 8.5134 70.4062 9.6853 Q71.4375 10.8572 71.4375 12.9197 ZM64.6094 12.9197 Q64.6094 14.6541 65.3516 15.5603 Q66.0938 16.4666 67.5156 16.4666 Q68.9375 16.4666 69.6641 15.5681 Q70.3906 14.6697 70.3906 12.9197 Q70.3906 11.1853 69.6641 10.2947 Q68.9375 9.4041 67.5156 9.4041 Q66.0938 9.4041 65.3516 10.3025 Q64.6094 11.2009 64.6094 12.9197 Z"/><path style="stroke:none;" d="M78.9531 17.2166 L77.9531 17.2166 L77.9531 13.1853 L73.4375 13.1853 L73.4375 17.2166 L72.4375 17.2166 L72.4375 8.6541 L73.4375 8.6541 L73.4375 12.2947 L77.9531 12.2947 L77.9531 8.6541 L78.9531 8.6541 L78.9531 17.2166 Z"/></g></g></svg></svg></svg></svg>