<svg width="170" viewBox="0 0 170 135" style="fill-opacity:1; color-rendering:auto; color-interpolation:auto; text-rendering:auto; stroke:black; stroke-linecap:square; stroke-miterlimit:10; shape-rendering:auto; stroke-opacity:1; fill:black; stroke-dasharray:none; font-weight:normal; stroke-width:1; font-family:'Open Sans'; font-style:normal; stroke-linejoin:miter; font-size:12; stroke-dashoffset:0; image-rendering:auto;" height="135" class="cas-substance-image" xmlns:xlink="http://www.w3.org/1999/xlink" xmlns="http://www.w3.org/2000/svg"><svg class="cas-substance-single-component"><rect y="0" x="0" width="170" stroke="none" ry="7" rx="7" height="135" fill="white" class="cas-substance-group"/><svg y="0" x="0" width="170" viewBox="0 0 170 135" style="fill:black;" height="135" class="cas-substance-single-component-image"><svg><g><g transform="translate(85,67)" style="text-rendering:geometricPrecision; color-rendering:optimizeQuality; color-interpolation:linearRGB; stroke-linecap:butt; image-rendering:optimizeQuality;"><line y2="-53.6484" y1="-36.4062" x2="-50.213" x1="-50.213" style="fill:none;"/><line y2="-53.6484" y1="-36.4062" x2="-53.713" x1="-53.713" style="fill:none;"/><line y2="-19.7416" y1="-28.5804" x2="-73.2305" x1="-57.9216" style="fill:none;"/><line y2="-16.7105" y1="-25.5494" x2="-71.4805" x1="-56.1716" style="fill:none;"/><line y2="-15" y1="-27.0652" x2="-25.98" x1="-46.8794" style="fill:none;"/><line y2="15" y1="27.0652" x2="-25.98" x1="-46.8794" style="fill:none;"/><line y2="-53.6484" y1="-36.4062" x2="53.713" x1="53.713" style="fill:none;"/><line y2="-53.6484" y1="-36.4062" x2="50.213" x1="50.213" style="fill:none;"/><line y2="-16.7259" y1="-25.5494" x2="71.4538" x1="56.1716" style="fill:none;"/><line y2="-19.757" y1="-28.5804" x2="73.2039" x1="57.9216" style="fill:none;"/><line y2="-15" y1="-27.0652" x2="25.98" x1="46.8794" style="fill:none;"/><line y2="30" y1="53.6138" x2="0" x1="0" style="fill:none;"/><line y2="-30" y1="-15" x2="0" x1="-25.98" style="fill:none;"/><line y2="-25.9585" y1="-12.9793" x2="0.0001" x1="-22.48" style="fill:none;"/><line y2="15" y1="-15" x2="-25.98" x1="-25.98" style="fill:none;"/><line y2="-15" y1="-30" x2="25.98" x1="0" style="fill:none;"/><line y2="30" y1="15" x2="0" x1="-25.98" style="fill:none;"/><line y2="25.9585" y1="12.9793" x2="0.0001" x1="-22.48" style="fill:none;"/><line y2="15" y1="-15" x2="25.98" x1="25.98" style="fill:none;"/><line y2="12.9793" y1="-12.9793" x2="22.48" x1="22.48" style="fill:none;"/><line y2="15" y1="30" x2="25.98" x1="0" style="fill:none;"/></g><g transform="translate(85,67)" style="fill:rgb(0,5,255); text-rendering:geometricPrecision; color-rendering:optimizeQuality; image-rendering:optimizeQuality; font-family:'Open Sans'; stroke:rgb(0,5,255); color-interpolation:linearRGB;"><path style="stroke:none;" d="M-48.6114 -25.8438 L-49.7521 -25.8438 L-54.4396 -33.0312 L-54.4864 -33.0312 Q-54.3927 -31.7656 -54.3927 -30.7188 L-54.3927 -25.8438 L-55.3146 -25.8438 L-55.3146 -34.4062 L-54.1896 -34.4062 L-49.5177 -27.25 L-49.4708 -27.25 Q-49.4708 -27.4062 -49.5177 -28.2656 Q-49.5646 -29.125 -49.5489 -29.5 L-49.5489 -34.4062 L-48.6114 -34.4062 L-48.6114 -25.8438 Z"/><path style="fill:rgb(230,0,0); stroke:none;" d="M-48.0255 -60.0703 Q-48.0255 -58.0078 -49.0646 -56.8281 Q-50.1036 -55.6484 -51.9474 -55.6484 Q-53.838 -55.6484 -54.8693 -56.8125 Q-55.9005 -57.9766 -55.9005 -60.0859 Q-55.9005 -62.1797 -54.8693 -63.3281 Q-53.838 -64.4766 -51.9474 -64.4766 Q-50.088 -64.4766 -49.0568 -63.3047 Q-48.0255 -62.1328 -48.0255 -60.0703 ZM-54.8536 -60.0703 Q-54.8536 -58.3359 -54.1114 -57.4297 Q-53.3693 -56.5234 -51.9474 -56.5234 Q-50.5255 -56.5234 -49.7989 -57.4219 Q-49.0724 -58.3203 -49.0724 -60.0703 Q-49.0724 -61.8047 -49.7989 -62.6953 Q-50.5255 -63.5859 -51.9474 -63.5859 Q-53.3693 -63.5859 -54.1114 -62.6875 Q-54.8536 -61.7891 -54.8536 -60.0703 Z"/><path style="fill:rgb(230,0,0); stroke:none;" d="M-74.0055 -15.0703 Q-74.0055 -13.0078 -75.0446 -11.8281 Q-76.0836 -10.6484 -77.9274 -10.6484 Q-79.818 -10.6484 -80.8493 -11.8125 Q-81.8805 -12.9766 -81.8805 -15.0859 Q-81.8805 -17.1797 -80.8493 -18.3281 Q-79.818 -19.4766 -77.9274 -19.4766 Q-76.068 -19.4766 -75.0368 -18.3047 Q-74.0055 -17.1328 -74.0055 -15.0703 ZM-80.8336 -15.0703 Q-80.8336 -13.3359 -80.0914 -12.4297 Q-79.3493 -11.5234 -77.9274 -11.5234 Q-76.5055 -11.5234 -75.7789 -12.4219 Q-75.0524 -13.3203 -75.0524 -15.0703 Q-75.0524 -16.8047 -75.7789 -17.6953 Q-76.5055 -18.5859 -77.9274 -18.5859 Q-79.3493 -18.5859 -80.0914 -17.6875 Q-80.8336 -16.7891 -80.8336 -15.0703 Z"/><path style="stroke:none;" d="M-48.6114 34.1562 L-49.7521 34.1562 L-54.4396 26.9688 L-54.4864 26.9688 Q-54.3927 28.2344 -54.3927 29.2812 L-54.3927 34.1562 L-55.3146 34.1562 L-55.3146 25.5938 L-54.1896 25.5938 L-49.5177 32.75 L-49.4708 32.75 Q-49.4708 32.5938 -49.5177 31.7344 Q-49.5646 30.875 -49.5489 30.5 L-49.5489 25.5938 L-48.6114 25.5938 L-48.6114 34.1562 Z"/><path style="stroke:none;" d="M-61.0646 34.1562 L-62.0646 34.1562 L-62.0646 30.125 L-66.5802 30.125 L-66.5802 34.1562 L-67.5802 34.1562 L-67.5802 25.5938 L-66.5802 25.5938 L-66.5802 29.2344 L-62.0646 29.2344 L-62.0646 25.5938 L-61.0646 25.5938 L-61.0646 34.1562 Z"/><path style="stroke:none;" d="M-56.3146 35.9656 L-60.0646 35.9656 L-60.0646 35.4031 L-58.5646 33.8875 Q-57.8771 33.2 -57.6583 32.9031 Q-57.4396 32.6063 -57.3302 32.325 Q-57.2208 32.0438 -57.2208 31.7156 Q-57.2208 31.2625 -57.4943 30.9969 Q-57.7677 30.7313 -58.2677 30.7313 Q-58.6114 30.7313 -58.9318 30.8484 Q-59.2521 30.9656 -59.6427 31.2625 L-59.9864 30.825 Q-59.2052 30.1688 -58.2677 30.1688 Q-57.4708 30.1688 -57.0099 30.5828 Q-56.5489 30.9969 -56.5489 31.6844 Q-56.5489 32.2313 -56.8536 32.7625 Q-57.1583 33.2938 -58.0021 34.1063 L-59.2521 35.325 L-59.2521 35.3563 L-56.3146 35.3563 L-56.3146 35.9656 Z"/><path style="stroke:none;" d="M55.3146 -25.8438 L54.1739 -25.8438 L49.4864 -33.0312 L49.4396 -33.0312 Q49.5333 -31.7656 49.5333 -30.7188 L49.5333 -25.8438 L48.6114 -25.8438 L48.6114 -34.4062 L49.7364 -34.4062 L54.4083 -27.25 L54.4552 -27.25 Q54.4552 -27.4062 54.4083 -28.2656 Q54.3614 -29.125 54.3771 -29.5 L54.3771 -34.4062 L55.3146 -34.4062 L55.3146 -25.8438 Z"/><path style="fill:rgb(230,0,0); stroke:none;" d="M55.9005 -60.0703 Q55.9005 -58.0078 54.8614 -56.8281 Q53.8224 -55.6484 51.9786 -55.6484 Q50.088 -55.6484 49.0568 -56.8125 Q48.0255 -57.9766 48.0255 -60.0859 Q48.0255 -62.1797 49.0568 -63.3281 Q50.088 -64.4766 51.9786 -64.4766 Q53.838 -64.4766 54.8693 -63.3047 Q55.9005 -62.1328 55.9005 -60.0703 ZM49.0724 -60.0703 Q49.0724 -58.3359 49.8146 -57.4297 Q50.5568 -56.5234 51.9786 -56.5234 Q53.4005 -56.5234 54.1271 -57.4219 Q54.8536 -58.3203 54.8536 -60.0703 Q54.8536 -61.8047 54.1271 -62.6953 Q53.4005 -63.5859 51.9786 -63.5859 Q50.5568 -63.5859 49.8146 -62.6875 Q49.0724 -61.7891 49.0724 -60.0703 Z"/><path style="fill:rgb(230,0,0); stroke:none;" d="M81.8805 -15.0703 Q81.8805 -13.0078 80.8414 -11.8281 Q79.8024 -10.6484 77.9586 -10.6484 Q76.068 -10.6484 75.0368 -11.8125 Q74.0055 -12.9766 74.0055 -15.0859 Q74.0055 -17.1797 75.0368 -18.3281 Q76.068 -19.4766 77.9586 -19.4766 Q79.818 -19.4766 80.8493 -18.3047 Q81.8805 -17.1328 81.8805 -15.0703 ZM75.0524 -15.0703 Q75.0524 -13.3359 75.7946 -12.4297 Q76.5368 -11.5234 77.9586 -11.5234 Q79.3805 -11.5234 80.1071 -12.4219 Q80.8336 -13.3203 80.8336 -15.0703 Q80.8336 -16.8047 80.1071 -17.6953 Q79.3805 -18.5859 77.9586 -18.5859 Q76.5368 -18.5859 75.7946 -17.6875 Q75.0524 -16.7891 75.0524 -15.0703 Z"/><path style="fill:rgb(0,138,0); stroke:none;" d="M-0.3086 56.6406 Q-1.7148 56.6406 -2.5352 57.5781 Q-3.3555 58.5156 -3.3555 60.1562 Q-3.3555 61.8281 -2.5664 62.75 Q-1.7773 63.6719 -0.3242 63.6719 Q0.582 63.6719 1.7227 63.3438 L1.7227 64.2188 Q0.832 64.5625 -0.4648 64.5625 Q-2.3555 64.5625 -3.3867 63.4062 Q-4.418 62.25 -4.418 60.1406 Q-4.418 58.8125 -3.9258 57.8203 Q-3.4336 56.8281 -2.4961 56.2891 Q-1.5586 55.75 -0.293 55.75 Q1.0508 55.75 2.0664 56.2344 L1.6445 57.0938 Q0.6602 56.6406 -0.3086 56.6406 ZM4.418 64.4375 L3.4492 64.4375 L3.4492 55.3125 L4.418 55.3125 L4.418 64.4375 Z"/></g><g transform="translate(85,67)" style="stroke-linecap:butt; text-rendering:geometricPrecision; color-rendering:optimizeQuality; image-rendering:optimizeQuality; font-family:'Open Sans'; color-interpolation:linearRGB; stroke-miterlimit:5;"><path style="fill:none;" d="M-25.547 -15.25 L-25.98 -15 L-25.98 -14.5"/><path style="fill:none;" d="M-0.433 -29.75 L0 -30 L0.433 -29.75"/><path style="fill:none;" d="M-25.547 15.25 L-25.98 15 L-26.413 15.25"/><path style="fill:none;" d="M25.98 -14.5 L25.98 -15 L26.413 -15.25"/><path style="fill:none;" d="M-0.433 29.75 L0 30 L0.433 29.75"/><path style="fill:none;" d="M25.98 14.5 L25.98 15 L25.547 15.25"/></g></g></svg></svg></svg></svg>