<svg xmlns:ns0="http://www.w3.org/2000/svg" xmlns="http://www.w3.org/2000/svg"><g transform="translate(0, 0)"><ns0:svg width="134" viewBox="0 0 134 85" style="fill-opacity:1; color-rendering:auto; color-interpolation:auto; text-rendering:auto; stroke:black; stroke-linecap:square; stroke-miterlimit:10; shape-rendering:auto; stroke-opacity:1; fill:black; stroke-dasharray:none; font-weight:normal; stroke-width:1; font-family:'Open Sans'; font-style:normal; stroke-linejoin:miter; font-size:12; stroke-dashoffset:0; image-rendering:auto;" height="85" class="cas-substance-image"><ns0:svg class="cas-substance-single-component"><ns0:rect y="0" x="0" width="134" stroke="none" ry="7" rx="7" height="85" fill="white" class="cas-substance-group" /><ns0:svg y="0" x="0" width="134" viewBox="0 0 134 85" style="fill:black;" height="85" class="cas-substance-single-component-image"><ns0:svg><ns0:g><ns0:g transform="translate(59,41)" style="text-rendering:geometricPrecision; color-rendering:optimizeQuality; color-interpolation:linearRGB; stroke-linecap:butt; image-rendering:optimizeQuality;"><ns0:line y2="-9.2671" y1="-20.6279" x2="38.3628" x1="50.9802" style="fill:none;" /><ns0:line y2="14.835" y1="-11.148" x2="-10.818" x1="4.182" style="fill:none;" /><ns0:line y2="-6.0392" y1="-11.148" x2="28.2171" x1="4.182" style="fill:none;" /><ns0:line y2="-37.128" y1="-11.148" x2="-10.818" x1="4.182" style="fill:none;" /><ns0:line y2="-33.628" y1="-11.1479" x2="-12.8387" x1="0.1405" style="fill:none;" /><ns0:line y2="14.835" y1="14.835" x2="-40.818" x1="-10.818" style="fill:none;" /><ns0:line y2="11.335" y1="11.335" x2="-38.7973" x1="-12.8387" style="fill:none;" /><ns0:line y2="31.9195" y1="14.835" x2="4.5652" x1="-10.818" style="fill:none;" /><ns0:line y2="18.5317" y1="1.2343" x2="35.9881" x1="34.1707" style="fill:none;" /><ns0:line y2="-37.128" y1="-37.128" x2="-40.818" x1="-10.818" style="fill:none;" /><ns0:line y2="-11.148" y1="14.835" x2="-55.818" x1="-40.818" style="fill:none;" /><ns0:line y2="28.8313" y1="36.4211" x2="32.1931" x1="15.1454" style="fill:none;" /><ns0:line y2="25.6339" y1="33.2237" x2="30.7696" x1="13.7219" style="fill:none;" /><ns0:line y2="-11.148" y1="-37.128" x2="-55.818" x1="-40.818" style="fill:none;" /><ns0:line y2="-11.1479" y1="-33.628" x2="-51.7766" x1="-38.7973" style="fill:none;" /></ns0:g><ns0:g transform="translate(59,41)" style="fill:rgb(0,5,255); text-rendering:geometricPrecision; color-rendering:optimizeQuality; image-rendering:optimizeQuality; font-family:'Open Sans'; stroke:rgb(0,5,255); color-interpolation:linearRGB;"><ns0:path style="stroke:none;" d="M59.1696 -20.8277 L58.0289 -20.8277 L53.3414 -28.0152 L53.2946 -28.0152 Q53.3883 -26.7496 53.3883 -25.7027 L53.3883 -20.8277 L52.4664 -20.8277 L52.4664 -29.3902 L53.5914 -29.3902 L58.2633 -22.234 L58.3102 -22.234 Q58.3102 -22.3902 58.2633 -23.2496 Q58.2164 -24.109 58.2321 -24.484 L58.2321 -29.3902 L59.1696 -29.3902 L59.1696 -20.8277 Z" /><ns0:path style="stroke:none;" d="M66.6852 -20.8277 L65.6852 -20.8277 L65.6852 -24.859 L61.1696 -24.859 L61.1696 -20.8277 L60.1696 -20.8277 L60.1696 -29.3902 L61.1696 -29.3902 L61.1696 -25.7496 L65.6852 -25.7496 L65.6852 -29.3902 L66.6852 -29.3902 L66.6852 -20.8277 Z" /><ns0:path style="stroke:none;" d="M71.4352 -19.0184 L67.6852 -19.0184 L67.6852 -19.5809 L69.1852 -21.0965 Q69.8727 -21.784 70.0914 -22.0809 Q70.3102 -22.3777 70.4196 -22.659 Q70.5289 -22.9402 70.5289 -23.2684 Q70.5289 -23.7215 70.2555 -23.9871 Q69.9821 -24.2527 69.4821 -24.2527 Q69.1383 -24.2527 68.818 -24.1356 Q68.4977 -24.0184 68.1071 -23.7215 L67.7633 -24.159 Q68.5446 -24.8152 69.4821 -24.8152 Q70.2789 -24.8152 70.7399 -24.4012 Q71.2008 -23.9871 71.2008 -23.2996 Q71.2008 -22.7527 70.8961 -22.2215 Q70.5914 -21.6902 69.7477 -20.8777 L68.4977 -19.659 L68.4977 -19.6277 L71.4352 -19.6277 L71.4352 -19.0184 Z" /></ns0:g><ns0:g transform="translate(59,41)" style="stroke-linecap:butt; font-size:8.4px; text-rendering:geometricPrecision; color-rendering:optimizeQuality; image-rendering:optimizeQuality; font-family:'Open Sans'; color-interpolation:linearRGB; stroke-miterlimit:5;"><ns0:path style="fill:none;" d="M3.932 -11.581 L4.182 -11.148 L4.6711 -11.044" /><ns0:path style="fill:none;" d="M-11.318 14.835 L-10.818 14.835 L-10.568 14.402" /><ns0:path style="fill:rgb(0,5,255); stroke:none;" d="M36.8766 -0.7547 L35.7359 -0.7547 L31.0484 -7.9422 L31.0016 -7.9422 Q31.0953 -6.6766 31.0953 -5.6297 L31.0953 -0.7547 L30.1734 -0.7547 L30.1734 -9.3172 L31.2984 -9.3172 L35.9703 -2.161 L36.0172 -2.161 Q36.0172 -2.3172 35.9703 -3.1766 Q35.9234 -4.036 35.9391 -4.411 L35.9391 -9.3172 L36.8766 -9.3172 L36.8766 -0.7547 Z" /><ns0:path style="fill:none;" d="M-10.568 -36.695 L-10.818 -37.128 L-11.318 -37.128" /><ns0:path style="fill:none;" d="M-40.318 14.835 L-40.818 14.835 L-41.068 14.402" /><ns0:path style="fill:rgb(0,5,255); stroke:none;" d="M12.6066 41.2842 L11.4659 41.2842 L6.7784 34.0967 L6.7316 34.0967 Q6.8253 35.3624 6.8253 36.4092 L6.8253 41.2842 L5.9034 41.2842 L5.9034 32.7217 L7.0284 32.7217 L11.7003 39.878 L11.7472 39.878 Q11.7472 39.7217 11.7003 38.8624 Q11.6534 38.003 11.6691 37.628 L11.6691 32.7217 L12.6066 32.7217 L12.6066 41.2842 Z" /><ns0:path style="fill:rgb(0,5,255); stroke:none;" d="M40.0116 29.0833 L38.8709 29.0833 L34.1834 21.8958 L34.1366 21.8958 Q34.2303 23.1614 34.2303 24.2083 L34.2303 29.0833 L33.3084 29.0833 L33.3084 20.5208 L34.4334 20.5208 L39.1053 27.677 L39.1522 27.677 Q39.1522 27.5208 39.1053 26.6614 Q39.0584 25.802 39.0741 25.427 L39.0741 20.5208 L40.0116 20.5208 L40.0116 29.0833 Z" /><ns0:path style="fill:none;" d="M-40.318 -37.128 L-40.818 -37.128 L-41.068 -36.695" /><ns0:path style="fill:none;" d="M-55.568 -10.715 L-55.818 -11.148 L-55.568 -11.581" /></ns0:g></ns0:g></ns0:svg></ns0:svg></ns0:svg></ns0:svg></g></svg>