<svg xmlns:ns0="http://www.w3.org/2000/svg" xmlns="http://www.w3.org/2000/svg"><g transform="translate(0, 0)"><ns0:svg width="157" viewBox="0 0 157 63" style="fill-opacity:1; color-rendering:auto; color-interpolation:auto; text-rendering:auto; stroke:black; stroke-linecap:square; stroke-miterlimit:10; shape-rendering:auto; stroke-opacity:1; fill:black; stroke-dasharray:none; font-weight:normal; stroke-width:1; font-family:'Open Sans'; font-style:normal; stroke-linejoin:miter; font-size:12; stroke-dashoffset:0; image-rendering:auto;" height="63" class="cas-substance-image"><ns0:svg class="cas-substance-single-component"><ns0:rect y="0" x="0" width="157" stroke="none" ry="7" rx="7" height="63" fill="white" class="cas-substance-group" /><ns0:svg y="0" x="0" width="157" viewBox="0 0 157 63" style="fill:black;" height="63" class="cas-substance-single-component-image"><ns0:svg><ns0:g><ns0:g transform="translate(86,33)" style="text-rendering:geometricPrecision; color-rendering:optimizeQuality; color-interpolation:linearRGB; stroke-linecap:butt; image-rendering:optimizeQuality;"><ns0:line y2="-20.0917" y1="-6.1383" x2="-64.1003" x1="-56.044" style="fill:none;" /><ns0:line y2="0" y1="0" x2="-22.5" x1="-47.1484" style="fill:none;" /><ns0:line y2="0" y1="0" x2="37.5" x1="67.5" style="fill:none;" /><ns0:line y2="-25.98" y1="0" x2="-7.5" x1="-22.5" style="fill:none;" /><ns0:line y2="-22.48" y1="0.0001" x2="-5.4793" x1="-18.4585" style="fill:none;" /><ns0:line y2="25.98" y1="0" x2="-7.5" x1="-22.5" style="fill:none;" /><ns0:line y2="-25.98" y1="-25.98" x2="22.5" x1="-7.5" style="fill:none;" /><ns0:line y2="25.98" y1="25.98" x2="22.5" x1="-7.5" style="fill:none;" /><ns0:line y2="22.48" y1="22.48" x2="20.4793" x1="-5.4793" style="fill:none;" /><ns0:line y2="0" y1="-25.98" x2="37.5" x1="22.5" style="fill:none;" /><ns0:line y2="0.0001" y1="-22.48" x2="33.4585" x1="20.4793" style="fill:none;" /><ns0:line y2="0" y1="25.98" x2="37.5" x1="22.5" style="fill:none;" /></ns0:g><ns0:g transform="translate(86,33)" style="fill:rgb(0,5,255); text-rendering:geometricPrecision; color-rendering:optimizeQuality; image-rendering:optimizeQuality; font-family:'Open Sans'; stroke:rgb(0,5,255); color-interpolation:linearRGB;"><ns0:path style="stroke:none;" d="M-49.1484 4.1562 L-50.2891 4.1562 L-54.9766 -3.0312 L-55.0234 -3.0312 Q-54.9297 -1.7656 -54.9297 -0.7188 L-54.9297 4.1562 L-55.8516 4.1562 L-55.8516 -4.4062 L-54.7266 -4.4062 L-50.0547 2.75 L-50.0078 2.75 Q-50.0078 2.5938 -50.0547 1.7344 Q-50.1016 0.875 -50.0859 0.5 L-50.0859 -4.4062 L-49.1484 -4.4062 L-49.1484 4.1562 Z" /><ns0:path style="stroke:none;" d="M-49.2422 13.7188 L-50.2422 13.7188 L-50.2422 9.6875 L-54.7578 9.6875 L-54.7578 13.7188 L-55.7578 13.7188 L-55.7578 5.1562 L-54.7578 5.1562 L-54.7578 8.7969 L-50.2422 8.7969 L-50.2422 5.1562 L-49.2422 5.1562 L-49.2422 13.7188 Z" /><ns0:path style="stroke:none;" d="M-64.1484 -21.8237 L-65.2891 -21.8237 L-69.9766 -29.0112 L-70.0234 -29.0112 Q-69.9297 -27.7456 -69.9297 -26.6987 L-69.9297 -21.8237 L-70.8516 -21.8237 L-70.8516 -30.3862 L-69.7266 -30.3862 L-65.0547 -23.23 L-65.0078 -23.23 Q-65.0078 -23.3862 -65.0547 -24.2456 Q-65.1016 -25.105 -65.0859 -25.48 L-65.0859 -30.3862 L-64.1484 -30.3862 L-64.1484 -21.8237 Z" /><ns0:path style="stroke:none;" d="M-76.6016 -21.8237 L-77.6016 -21.8237 L-77.6016 -25.855 L-82.1172 -25.855 L-82.1172 -21.8237 L-83.1172 -21.8237 L-83.1172 -30.3862 L-82.1172 -30.3862 L-82.1172 -26.7456 L-77.6016 -26.7456 L-77.6016 -30.3862 L-76.6016 -30.3862 L-76.6016 -21.8237 Z" /><ns0:path style="stroke:none;" d="M-71.8516 -20.0144 L-75.6016 -20.0144 L-75.6016 -20.5769 L-74.1016 -22.0925 Q-73.4141 -22.78 -73.1953 -23.0769 Q-72.9766 -23.3737 -72.8672 -23.655 Q-72.7578 -23.9362 -72.7578 -24.2644 Q-72.7578 -24.7175 -73.0312 -24.9831 Q-73.3047 -25.2487 -73.8047 -25.2487 Q-74.1484 -25.2487 -74.4688 -25.1316 Q-74.7891 -25.0144 -75.1797 -24.7175 L-75.5234 -25.155 Q-74.7422 -25.8112 -73.8047 -25.8112 Q-73.0078 -25.8112 -72.5469 -25.3972 Q-72.0859 -24.9831 -72.0859 -24.2956 Q-72.0859 -23.7487 -72.3906 -23.2175 Q-72.6953 -22.6862 -73.5391 -21.8737 L-74.7891 -20.655 L-74.7891 -20.6237 L-71.8516 -20.6237 L-71.8516 -20.0144 Z" /></ns0:g><ns0:g transform="translate(86,33)" style="stroke-linecap:butt; font-size:8.4px; text-rendering:geometricPrecision; color-rendering:optimizeQuality; image-rendering:optimizeQuality; font-family:'Open Sans'; color-interpolation:linearRGB; stroke-miterlimit:5;"><ns0:path style="fill:none;" d="M-22.25 -0.433 L-22.5 0 L-23 -0" /><ns0:path style="fill:none;" d="M-7.75 -25.547 L-7.5 -25.98 L-7 -25.98" /><ns0:path style="fill:none;" d="M-7.75 25.547 L-7.5 25.98 L-7 25.98" /><ns0:path style="fill:none;" d="M22 -25.98 L22.5 -25.98 L22.75 -25.547" /><ns0:path style="fill:none;" d="M22 25.98 L22.5 25.98 L22.75 25.547" /><ns0:path style="fill:none;" d="M37.25 -0.433 L37.5 0 L38 0" /></ns0:g></ns0:g></ns0:svg></ns0:svg></ns0:svg></ns0:svg></g></svg>