<svg xmlns:ns0="http://www.w3.org/2000/svg" xmlns="http://www.w3.org/2000/svg"><g transform="translate(0, 0)"><ns0:svg width="268" viewBox="0 0 268 138" style="fill-opacity:1; color-rendering:auto; color-interpolation:auto; text-rendering:auto; stroke:black; stroke-linecap:square; stroke-miterlimit:10; shape-rendering:auto; stroke-opacity:1; fill:black; stroke-dasharray:none; font-weight:normal; stroke-width:1; font-family:'Open Sans'; font-style:normal; stroke-linejoin:miter; font-size:12; stroke-dashoffset:0; image-rendering:auto;" height="138" class="cas-substance-image"><ns0:svg class="cas-substance-single-component"><ns0:rect y="0" x="0" width="268" stroke="none" ry="7" rx="7" height="138" fill="white" class="cas-substance-group" /><ns0:svg y="0" x="0" width="268" viewBox="0 0 268 138" style="fill:black;" height="138" class="cas-substance-single-component-image"><ns0:svg><ns0:g><ns0:g transform="translate(134,69)" style="text-rendering:geometricPrecision; color-rendering:optimizeQuality; color-interpolation:linearRGB; stroke-linecap:butt; image-rendering:optimizeQuality;"><ns0:path style="stroke:none;" d="M-17.7546 16.4557 L-18.3374 17.4663 L-18.3374 17.4663 L-17.5128 18.0387 L-17.5128 18.0387 L-16.8467 16.8836 L-16.8467 16.8836 L-17.7546 16.4557 ZM-15.0308 17.7395 L-15.8635 19.1835 L-15.8635 19.1835 L-15.0389 19.7559 L-15.0389 19.7559 L-14.1229 18.1675 L-14.1229 18.1675 L-15.0308 17.7395 ZM-12.3071 19.0234 L-13.3896 20.9006 L-13.3896 20.9006 L-12.565 21.473 L-12.565 21.473 L-11.3992 19.4514 L-11.3992 19.4514 L-12.3071 19.0234 ZM-9.5833 20.3073 L-10.9157 22.6178 L-10.9157 22.6178 L-10.0911 23.1901 L-10.0911 23.1901 L-8.6754 20.7352 L-8.6754 20.7352 L-9.5833 20.3073 ZM-6.8595 21.5911 L-8.4418 24.3349 L-8.4418 24.3349 L-7.6172 24.9073 L-7.6172 24.9073 L-5.9516 22.0191 L-5.9516 22.0191 L-6.8595 21.5911 ZM-4.1358 22.875 L-5.9679 26.052 L-5.1433 26.6244 L-5.1433 26.6244 L-3.2278 23.3029 L-3.2278 23.3029 L-4.1358 22.875 ZM-1.412 24.1588 L-3.494 27.7692 L-3.494 27.7692 L-2.6693 28.3415 L-2.6693 28.3415 L-0.5041 24.5868 L-0.5041 24.5868 L-1.412 24.1588 ZM1.3118 25.4427 L-1.0201 29.4863 L-0.1954 30.0587 L-0.1954 30.0587 L2.2197 25.8706 L2.2197 25.8706 L1.3118 25.4427 ZM4.0355 26.7265 L1.4538 31.2034 L1.4538 31.2034 L2.2785 31.7758 L2.2785 31.7758 L4.9435 27.1545 L4.9435 27.1545 L4.0355 26.7265 ZM6.7593 28.0104 L3.9277 32.9206 L3.9277 32.9206 L4.7524 33.493 L4.7524 33.493 L7.6672 28.4383 L7.6672 28.4383 L6.7593 28.0104 Z" /><ns0:line y2="3.5305" y1="21.669" x2="-115.6401" x1="-100.419" style="fill:none;" /><ns0:path style="stroke:none;" d="M-70.9618 15.9686 L-70.7882 16.9534 L-98.5751 24.6441 L-103.0289 19.3367 Z" /><ns0:path style="stroke:none;" d="M-78.0508 -11.7826 L-83.5298 -9.7842 L-83.5298 -9.7842 L-83.1096 -8.8732 L-77.7872 -10.8146 L-78.0508 -11.7826 ZM-77.2599 -8.8786 L-82.2693 -7.0514 L-81.8491 -6.1405 L-76.9962 -7.9106 L-77.2599 -8.8786 ZM-76.469 -5.9745 L-81.0088 -4.3187 L-80.5886 -3.4078 L-76.2053 -5.0065 L-76.469 -5.9745 ZM-75.678 -3.0705 L-79.7482 -1.5859 L-79.328 -0.675 L-75.4144 -2.1025 L-75.678 -3.0705 ZM-74.8871 -0.1665 L-78.4877 1.1468 L-78.0675 2.0577 L-74.6235 0.8015 L-74.8871 -0.1665 ZM-74.0962 2.7375 L-77.2272 3.8795 L-76.807 4.7904 L-73.8326 3.7055 L-74.0962 2.7375 ZM-73.3053 5.6416 L-75.9666 6.6123 L-75.5465 7.5232 L-73.0416 6.6096 L-73.3053 5.6416 ZM-72.5144 8.5456 L-74.7061 9.345 L-74.7061 9.345 L-74.2859 10.2559 L-74.2859 10.2559 L-72.2507 9.5136 L-72.5144 8.5456 ZM-71.7234 11.4496 L-73.4456 12.0778 L-73.0254 12.9887 L-71.4598 12.4176 L-71.7234 11.4496 ZM-70.9325 14.3536 L-72.1851 14.8105 L-71.7649 15.7214 L-71.7649 15.7214 L-70.6689 15.3216 L-70.9325 14.3536 Z" /><ns0:line y2="-25.8748" y1="-33.75" x2="113.8779" x1="91.389" style="fill:none;" /><ns0:path style="stroke:none;" d="M68.9721 -13.8079 L68.3199 -14.5661 L88.2848 -35.3668 L94.8237 -33.077 Z" /><ns0:path style="stroke:none;" d="M69.6337 -14.1831 L68.9389 -13.2432 L69.68 -12.563 L70.5008 -13.6733 L69.6337 -14.1831 ZM72.2351 -12.6537 L71.1622 -11.2024 L71.9033 -10.5221 L73.1022 -12.1439 L72.2351 -12.6537 ZM74.8365 -11.1243 L73.3855 -9.1616 L74.1266 -8.4813 L75.7036 -10.6145 L74.8365 -11.1243 ZM77.4379 -9.5949 L75.6088 -7.1207 L76.3499 -6.4405 L76.3499 -6.4405 L78.305 -9.0851 L77.4379 -9.5949 ZM80.0393 -8.0655 L77.8321 -5.0799 L78.5732 -4.3996 L80.9064 -7.5557 L80.0393 -8.0655 ZM82.6407 -6.5361 L80.0554 -3.0391 L80.7965 -2.3588 L83.5078 -6.0263 L83.5078 -6.0263 L82.6407 -6.5361 ZM85.2421 -5.0067 L82.2787 -0.9982 L83.0198 -0.3179 L86.1092 -4.4969 L85.2421 -5.0067 ZM87.8434 -3.4772 L84.502 1.0426 L85.2431 1.7229 L88.7106 -2.9674 L88.7106 -2.9674 L87.8434 -3.4772 Z" /><ns0:path style="stroke:none;" d="M-71.125 46.028 L-70.625 46.894 L-89.7674 60.833 L-92.7675 55.6369 Z" /><ns0:line y2="16.461" y1="1.461" x2="-18.912" x1="7.068" style="fill:none;" /><ns0:line y2="-28.539" y1="1.461" x2="7.068" x1="7.068" style="fill:none;" /><ns0:path style="stroke:none;" d="M36.4294 -12.7928 L35.5209 -12.3688 L37.523 -7.1065 L38.4838 -7.3932 L38.4838 -7.3932 L36.4294 -12.7928 ZM33.7039 -11.5208 L32.7953 -11.0967 L34.6407 -6.2465 L35.6015 -6.5332 L33.7039 -11.5208 ZM30.9783 -10.2487 L30.0698 -9.8247 L30.0698 -9.8247 L31.7584 -5.3864 L31.7584 -5.3864 L32.7192 -5.6731 L30.9783 -10.2487 ZM28.2528 -8.9766 L27.3442 -8.5526 L27.3442 -8.5526 L28.8761 -4.5263 L28.8761 -4.5263 L29.8369 -4.813 L28.2528 -8.9766 ZM25.5272 -7.7046 L24.6187 -7.2805 L25.9938 -3.6662 L26.9546 -3.9529 L25.5272 -7.7046 ZM22.8017 -6.4325 L21.8932 -6.0085 L23.1115 -2.8061 L24.0723 -3.0928 L22.8017 -6.4325 ZM20.0761 -5.1604 L19.1676 -4.7364 L20.2293 -1.946 L21.19 -2.2327 L21.19 -2.2327 L20.0761 -5.1604 ZM17.3506 -3.8884 L16.4421 -3.4643 L16.4421 -3.4643 L17.347 -1.0859 L17.347 -1.0859 L18.3077 -1.3726 L17.3506 -3.8884 ZM14.625 -2.6163 L13.7165 -2.1923 L13.7165 -2.1923 L14.4647 -0.2258 L14.4647 -0.2258 L15.4254 -0.5125 L14.625 -2.6163 ZM11.8995 -1.3442 L10.991 -0.9202 L10.991 -0.9202 L11.5824 0.6343 L11.5824 0.6343 L12.5432 0.3476 L12.5432 0.3476 L11.8995 -1.3442 ZM9.1739 -0.0722 L8.2654 0.3519 L8.2654 0.3519 L8.7001 1.4944 L8.7001 1.4944 L9.6609 1.2077 L9.6609 1.2077 L9.1739 -0.0722 Z" /><ns0:line y2="19.785" y1="1.461" x2="30.822" x1="7.068" style="fill:none;" /><ns0:line y2="1.461" y1="16.461" x2="-44.895" x1="-18.912" style="fill:none;" /><ns0:line y2="46.461" y1="16.461" x2="-18.912" x1="-18.912" style="fill:none;" /><ns0:line y2="-43.626" y1="-28.539" x2="30.483" x1="7.068" style="fill:none;" /><ns0:line y2="-43.539" y1="-28.539" x2="-18.912" x1="7.068" style="fill:none;" /><ns0:path style="stroke:none;" d="M55.4443 -37.4976 L54.8389 -36.6972 L54.8389 -36.6972 L55.886 -36.0273 L55.886 -36.0273 L56.3602 -36.9117 L55.4443 -37.4976 ZM53.628 -35.0963 L53.0226 -34.2959 L53.0226 -34.2959 L54.4633 -33.3743 L54.9375 -34.2586 L54.9375 -34.2586 L53.628 -35.0963 ZM51.8118 -32.6951 L51.2064 -31.8947 L53.0406 -30.7213 L53.5149 -31.6056 L53.5149 -31.6056 L51.8118 -32.6951 ZM49.9955 -30.2938 L49.3901 -29.4934 L49.3901 -29.4934 L51.618 -28.0682 L52.0922 -28.9526 L49.9955 -30.2938 ZM48.1793 -27.8926 L47.5739 -27.0922 L50.1953 -25.4152 L50.1953 -25.4152 L50.6695 -26.2995 L48.1793 -27.8926 ZM46.363 -25.4913 L45.7576 -24.6909 L45.7576 -24.6909 L48.7726 -22.7622 L49.2468 -23.6465 L49.2468 -23.6465 L46.363 -25.4913 ZM44.5468 -23.0901 L43.9414 -22.2896 L47.3499 -20.1092 L47.8242 -20.9935 L44.5468 -23.0901 ZM42.7305 -20.6888 L42.1251 -19.8884 L45.9273 -17.4561 L45.9273 -17.4561 L46.4015 -18.3405 L42.7305 -20.6888 ZM40.9143 -18.2876 L40.3089 -17.4871 L44.5046 -14.8031 L44.5046 -14.8031 L44.9788 -15.6874 L44.9788 -15.6874 L40.9143 -18.2876 ZM39.0981 -15.8863 L38.4926 -15.0859 L43.0819 -12.1501 L43.5561 -13.0344 L43.5561 -13.0344 L39.0981 -15.8863 ZM37.2818 -13.485 L36.9376 -13.03 L37.8023 -11.9644 L41.6592 -9.4971 L42.1335 -10.3814 L37.2818 -13.485 Z" /><ns0:line y2="13.173" y1="19.785" x2="56.631" x1="30.822" style="fill:none;" /><ns0:line y2="16.461" y1="1.461" x2="-70.875" x1="-44.895" style="fill:none;" /><ns0:line y2="-28.539" y1="1.461" x2="-44.895" x1="-44.895" style="fill:none;" /><ns0:line y2="61.461" y1="46.461" x2="-44.895" x1="-18.912" style="fill:none;" /><ns0:line y2="-37.677" y1="-43.626" x2="56.205" x1="30.483" style="fill:none;" /><ns0:line y2="-28.539" y1="-43.539" x2="-44.895" x1="-18.912" style="fill:none;" /><ns0:line y2="-14.187" y1="-37.677" x2="68.646" x1="56.205" style="fill:none;" /><ns0:line y2="-14.187" y1="13.173" x2="68.646" x1="56.631" style="fill:none;" /><ns0:line y2="46.461" y1="16.461" x2="-70.875" x1="-70.875" style="fill:none;" /><ns0:line y2="46.461" y1="61.461" x2="-70.875" x1="-44.895" style="fill:none;" /><ns0:path style="stroke:none;" d="M9.4113 -51.5246 L3.6062 -51.3821 L3.6062 -51.3821 L3.7355 -50.3849 L3.7355 -50.3849 L9.3309 -50.5223 L9.3309 -50.5223 L9.4113 -51.5246 ZM9.17 -48.5178 L3.9939 -48.3907 L3.9939 -48.3907 L4.1231 -47.3936 L4.1231 -47.3936 L9.0896 -47.5155 L9.0896 -47.5155 L9.17 -48.5178 ZM8.9287 -45.5109 L4.3816 -45.3993 L4.3816 -45.3993 L4.5108 -44.4022 L4.5108 -44.4022 L8.8483 -44.5087 L8.8483 -44.5087 L8.9287 -45.5109 ZM8.6875 -42.5041 L4.7692 -42.4079 L4.7692 -42.4079 L4.8985 -41.4108 L4.8985 -41.4108 L8.607 -41.5019 L8.607 -41.5019 L8.6875 -42.5041 ZM8.4462 -39.4973 L5.1569 -39.4166 L5.1569 -39.4166 L5.2861 -38.4194 L5.2861 -38.4194 L8.3658 -38.495 L8.3658 -38.495 L8.4462 -39.4973 ZM8.2049 -36.4905 L5.5446 -36.4252 L5.5446 -36.4252 L5.6738 -35.4281 L5.6738 -35.4281 L8.1245 -35.4882 L8.1245 -35.4882 L8.2049 -36.4905 ZM7.9636 -33.4837 L5.9322 -33.4338 L5.9322 -33.4338 L6.0615 -32.4367 L6.0615 -32.4367 L7.8832 -32.4814 L7.8832 -32.4814 L7.9636 -33.4837 ZM7.7224 -30.4769 L6.3199 -30.4424 L6.3199 -30.4424 L6.4491 -29.4453 L6.4491 -29.4453 L7.6419 -29.4746 L7.6419 -29.4746 L7.7224 -30.4769 Z" /><ns0:path style="stroke:none;" d="M-44.645 1.028 L-45.145 1.894 L-67.3852 -8.06 L-64.3851 -13.2561 Z" /><ns0:line y2="-55.7193" y1="-37.677" x2="70.0781" x1="56.205" style="fill:none;" /></ns0:g><ns0:g transform="translate(134,69)" style="fill:rgb(230,0,0); text-rendering:geometricPrecision; color-rendering:optimizeQuality; image-rendering:optimizeQuality; font-family:'Open Sans'; stroke:rgb(230,0,0); color-interpolation:linearRGB;"><ns0:path style="stroke:none;" d="M-115.7655 -1.3813 Q-115.7655 0.6812 -116.8046 1.8609 Q-117.8436 3.0406 -119.6874 3.0406 Q-121.578 3.0406 -122.6092 1.8765 Q-123.6405 0.7124 -123.6405 -1.3969 Q-123.6405 -3.4907 -122.6092 -4.6391 Q-121.578 -5.7876 -119.6874 -5.7876 Q-117.828 -5.7876 -116.7967 -4.6157 Q-115.7655 -3.4438 -115.7655 -1.3813 ZM-122.5936 -1.3813 Q-122.5936 0.3531 -121.8514 1.2593 Q-121.1092 2.1656 -119.6874 2.1656 Q-118.2655 2.1656 -117.5389 1.2671 Q-116.8124 0.3687 -116.8124 -1.3813 Q-116.8124 -3.1157 -117.5389 -4.0063 Q-118.2655 -4.8969 -119.6874 -4.8969 Q-121.1092 -4.8969 -121.8514 -3.9985 Q-122.5936 -3.1001 -122.5936 -1.3813 Z" /><ns0:path style="stroke:none;" d="M-124.6405 2.9156 L-125.6405 2.9156 L-125.6405 -1.1157 L-130.1561 -1.1157 L-130.1561 2.9156 L-131.1561 2.9156 L-131.1561 -5.6469 L-130.1561 -5.6469 L-130.1561 -2.0063 L-125.6405 -2.0063 L-125.6405 -5.6469 L-124.6405 -5.6469 L-124.6405 2.9156 Z" /><ns0:path style="stroke:none;" d="M123.6405 -23.9053 Q123.6405 -21.8428 122.6014 -20.6631 Q121.5624 -19.4834 119.7186 -19.4834 Q117.828 -19.4834 116.7967 -20.6475 Q115.7655 -21.8116 115.7655 -23.9209 Q115.7655 -26.0147 116.7967 -27.1631 Q117.828 -28.3116 119.7186 -28.3116 Q121.578 -28.3116 122.6092 -27.1397 Q123.6405 -25.9678 123.6405 -23.9053 ZM116.8124 -23.9053 Q116.8124 -22.1709 117.5546 -21.2647 Q118.2967 -20.3584 119.7186 -20.3584 Q121.1405 -20.3584 121.8671 -21.2569 Q122.5936 -22.1553 122.5936 -23.9053 Q122.5936 -25.6397 121.8671 -26.5303 Q121.1405 -27.4209 119.7186 -27.4209 Q118.2967 -27.4209 117.5546 -26.5225 Q116.8124 -25.6241 116.8124 -23.9053 Z" /><ns0:path style="stroke:none;" d="M131.1561 -19.6084 L130.1561 -19.6084 L130.1561 -23.6397 L125.6405 -23.6397 L125.6405 -19.6084 L124.6405 -19.6084 L124.6405 -28.1709 L125.6405 -28.1709 L125.6405 -24.5303 L130.1561 -24.5303 L130.1561 -28.1709 L131.1561 -28.1709 L131.1561 -19.6084 Z" /><ns0:path style="stroke:none;" d="M96.6975 3.5867 Q96.6975 5.6492 95.6584 6.8289 Q94.6194 8.0086 92.7756 8.0086 Q90.885 8.0086 89.8538 6.8445 Q88.8225 5.6804 88.8225 3.5711 Q88.8225 1.4773 89.8538 0.3289 Q90.885 -0.8196 92.7756 -0.8196 Q94.635 -0.8196 95.6663 0.3523 Q96.6975 1.5242 96.6975 3.5867 ZM89.8694 3.5867 Q89.8694 5.3211 90.6116 6.2273 Q91.3538 7.1336 92.7756 7.1336 Q94.1975 7.1336 94.9241 6.2351 Q95.6506 5.3367 95.6506 3.5867 Q95.6506 1.8523 94.9241 0.9617 Q94.1975 0.0711 92.7756 0.0711 Q91.3538 0.0711 90.6116 0.9695 Q89.8694 1.8679 89.8694 3.5867 Z" /><ns0:path style="stroke:none;" d="M104.2131 7.8836 L103.2131 7.8836 L103.2131 3.8523 L98.6975 3.8523 L98.6975 7.8836 L97.6975 7.8836 L97.6975 -0.6789 L98.6975 -0.6789 L98.6975 2.9617 L103.2131 2.9617 L103.2131 -0.6789 L104.2131 -0.6789 L104.2131 7.8836 Z" /><ns0:path style="stroke:none;" d="M-92.9175 61.3907 Q-92.9175 63.4532 -93.9566 64.6329 Q-94.9956 65.8126 -96.8394 65.8126 Q-98.73 65.8126 -99.7612 64.6485 Q-100.7925 63.4844 -100.7925 61.3751 Q-100.7925 59.2813 -99.7612 58.1329 Q-98.73 56.9844 -96.8394 56.9844 Q-94.98 56.9844 -93.9487 58.1563 Q-92.9175 59.3282 -92.9175 61.3907 ZM-99.7456 61.3907 Q-99.7456 63.1251 -99.0034 64.0313 Q-98.2612 64.9376 -96.8394 64.9376 Q-95.4175 64.9376 -94.6909 64.0391 Q-93.9644 63.1407 -93.9644 61.3907 Q-93.9644 59.6563 -94.6909 58.7657 Q-95.4175 57.8751 -96.8394 57.8751 Q-98.2612 57.8751 -99.0034 58.7735 Q-99.7456 59.6719 -99.7456 61.3907 Z" /><ns0:path style="stroke:none;" d="M-101.7925 65.6876 L-102.7925 65.6876 L-102.7925 61.6563 L-107.3081 61.6563 L-107.3081 65.6876 L-108.3081 65.6876 L-108.3081 57.1251 L-107.3081 57.1251 L-107.3081 60.7657 L-102.7925 60.7657 L-102.7925 57.1251 L-101.7925 57.1251 L-101.7925 65.6876 Z" /></ns0:g><ns0:g transform="translate(134,69)" style="font-size:8.4px; fill:gray; text-rendering:geometricPrecision; image-rendering:optimizeQuality; color-rendering:optimizeQuality; font-family:'Open Sans'; font-style:italic; stroke:gray; color-interpolation:linearRGB;"><ns0:path style="stroke:none;" d="M-5.7008 -2.3358 Q-5.7008 -3.6639 -5.2321 -4.7889 Q-4.7633 -5.9139 -3.7321 -6.9921 L-3.1227 -6.9921 Q-4.0914 -5.9296 -4.5758 -4.7577 Q-5.0602 -3.5858 -5.0602 -2.3514 Q-5.0602 -1.0233 -4.6227 -0.0077 L-5.1383 -0.0077 Q-5.7008 -1.0389 -5.7008 -2.3358 ZM-0.0782 -2.9296 Q-0.0782 -2.1014 -0.6251 -1.6483 Q-1.172 -1.1952 -2.172 -1.1952 Q-2.5782 -1.1952 -2.8907 -1.2499 Q-3.2032 -1.3046 -3.4845 -1.4452 L-3.4845 -2.1014 Q-2.8595 -1.7733 -2.1564 -1.7733 Q-1.5314 -1.7733 -1.1564 -2.0702 Q-0.7814 -2.3671 -0.7814 -2.8827 Q-0.7814 -3.1952 -0.9845 -3.4218 Q-1.1876 -3.6483 -1.7501 -3.9764 Q-2.3439 -4.3046 -2.5704 -4.6327 Q-2.797 -4.9608 -2.797 -5.4139 Q-2.797 -6.1483 -2.2814 -6.6093 Q-1.7657 -7.0702 -0.922 -7.0702 Q-0.547 -7.0702 -0.2111 -6.9921 Q0.1249 -6.9139 0.4999 -6.7421 L0.2343 -6.1483 Q-0.0157 -6.3046 -0.3361 -6.3905 Q-0.6564 -6.4764 -0.922 -6.4764 Q-1.4532 -6.4764 -1.7736 -6.203 Q-2.0939 -5.9296 -2.0939 -5.4608 Q-2.0939 -5.2577 -2.0236 -5.1093 Q-1.9532 -4.9608 -1.8126 -4.828 Q-1.672 -4.6952 -1.2501 -4.4452 Q-0.6876 -4.1014 -0.4845 -3.9061 Q-0.2814 -3.7108 -0.1798 -3.4764 Q-0.0782 -3.2421 -0.0782 -2.9296 ZM2.5162 -4.6483 Q2.5162 -3.3202 2.0397 -2.1874 Q1.5631 -1.0546 0.5475 -0.0077 L-0.0619 -0.0077 Q1.8756 -2.1639 1.8756 -4.6483 Q1.8756 -5.9764 1.4381 -6.9921 L1.9537 -6.9921 Q2.5162 -5.9296 2.5162 -4.6483 Z" /><ns0:path style="stroke:none;" d="M-23.0208 7.6641 Q-23.0208 6.336 -22.552 5.211 Q-22.0833 4.086 -21.052 3.0079 L-20.4426 3.0079 Q-21.4114 4.0704 -21.8958 5.2422 Q-22.3801 6.4141 -22.3801 7.6485 Q-22.3801 8.9766 -21.9426 9.9922 L-22.4583 9.9922 Q-23.0208 8.961 -23.0208 7.6641 ZM-17.3982 7.0704 Q-17.3982 7.8985 -17.9451 8.3516 Q-18.492 8.8047 -19.492 8.8047 Q-19.8982 8.8047 -20.2107 8.7501 Q-20.5232 8.6954 -20.8045 8.5547 L-20.8045 7.8985 Q-20.1795 8.2266 -19.4763 8.2266 Q-18.8513 8.2266 -18.4763 7.9297 Q-18.1013 7.6329 -18.1013 7.1172 Q-18.1013 6.8047 -18.3045 6.5782 Q-18.5076 6.3516 -19.0701 6.0235 Q-19.6638 5.6954 -19.8904 5.3672 Q-20.117 5.0391 -20.117 4.586 Q-20.117 3.8516 -19.6013 3.3907 Q-19.0857 2.9297 -18.242 2.9297 Q-17.867 2.9297 -17.531 3.0079 Q-17.1951 3.086 -16.8201 3.2579 L-17.0857 3.8516 Q-17.3357 3.6954 -17.656 3.6094 Q-17.9763 3.5235 -18.242 3.5235 Q-18.7732 3.5235 -19.0935 3.7969 Q-19.4138 4.0704 -19.4138 4.5391 Q-19.4138 4.7422 -19.3435 4.8907 Q-19.2732 5.0391 -19.1326 5.1719 Q-18.992 5.3047 -18.5701 5.5547 Q-18.0076 5.8985 -17.8045 6.0938 Q-17.6013 6.2891 -17.4998 6.5235 Q-17.3982 6.7579 -17.3982 7.0704 ZM-14.8037 5.3516 Q-14.8037 6.6797 -15.2803 7.8126 Q-15.7569 8.9454 -16.7725 9.9922 L-17.3819 9.9922 Q-15.4444 7.836 -15.4444 5.3516 Q-15.4444 4.0235 -15.8819 3.0079 L-15.3662 3.0079 Q-14.8037 4.0704 -14.8037 5.3516 Z" /><ns0:path style="stroke:none;" d="M11.7391 -22.5486 Q11.7391 -23.8767 12.2078 -25.0017 Q12.6766 -26.1267 13.7078 -27.2048 L14.3172 -27.2048 Q13.3485 -26.1423 12.8641 -24.9704 Q12.3797 -23.7986 12.3797 -22.5642 Q12.3797 -21.2361 12.8172 -20.2204 L12.3016 -20.2204 Q11.7391 -21.2517 11.7391 -22.5486 ZM17.3617 -23.1423 Q17.3617 -22.3142 16.8148 -21.8611 Q16.2679 -21.4079 15.2679 -21.4079 Q14.8617 -21.4079 14.5492 -21.4626 Q14.2367 -21.5173 13.9554 -21.6579 L13.9554 -22.3142 Q14.5804 -21.9861 15.2835 -21.9861 Q15.9085 -21.9861 16.2835 -22.2829 Q16.6585 -22.5798 16.6585 -23.0954 Q16.6585 -23.4079 16.4554 -23.6345 Q16.2523 -23.8611 15.6898 -24.1892 Q15.096 -24.5173 14.8695 -24.8454 Q14.6429 -25.1736 14.6429 -25.6267 Q14.6429 -26.3611 15.1585 -26.822 Q15.6742 -27.2829 16.5179 -27.2829 Q16.8929 -27.2829 17.2288 -27.2048 Q17.5648 -27.1267 17.9398 -26.9548 L17.6742 -26.3611 Q17.4242 -26.5173 17.1038 -26.6033 Q16.7835 -26.6892 16.5179 -26.6892 Q15.9867 -26.6892 15.6663 -26.4158 Q15.346 -26.1423 15.346 -25.6736 Q15.346 -25.4704 15.4163 -25.322 Q15.4867 -25.1736 15.6273 -25.0408 Q15.7679 -24.9079 16.1898 -24.6579 Q16.7523 -24.3142 16.9554 -24.1189 Q17.1585 -23.9236 17.2601 -23.6892 Q17.3617 -23.4548 17.3617 -23.1423 ZM19.9561 -24.8611 Q19.9561 -23.5329 19.4796 -22.4001 Q19.003 -21.2673 17.9874 -20.2204 L17.378 -20.2204 Q19.3155 -22.3767 19.3155 -24.8611 Q19.3155 -26.1892 18.878 -27.2048 L19.3936 -27.2048 Q19.9561 -26.1423 19.9561 -24.8611 Z" /></ns0:g><ns0:g transform="translate(134,69)" style="stroke-linecap:butt; font-size:8.4px; text-rendering:geometricPrecision; image-rendering:optimizeQuality; color-rendering:optimizeQuality; font-family:'Open Sans'; font-style:italic; color-interpolation:linearRGB; stroke-miterlimit:5;"><ns0:path style="fill:none;" d="M30.4261 19.4796 L30.822 19.785 L31.3064 19.6609" /><ns0:path style="fill:gray; stroke:none;" d="M-49.2834 12.6251 Q-49.2834 11.2969 -48.8146 10.1719 Q-48.3459 9.0469 -47.3146 7.9688 L-46.7053 7.9688 Q-47.674 9.0313 -48.1584 10.2032 Q-48.6428 11.3751 -48.6428 12.6094 Q-48.6428 13.9376 -48.2053 14.9532 L-48.7209 14.9532 Q-49.2834 13.9219 -49.2834 12.6251 ZM-45.7233 11.3126 L-46.2233 13.6876 L-46.8796 13.6876 L-45.6765 7.9688 L-44.4265 7.9688 Q-42.6921 7.9688 -42.6921 9.4063 Q-42.6921 10.7657 -44.1296 11.1563 L-43.1921 13.6876 L-43.9108 13.6876 L-44.739 11.3126 L-45.7233 11.3126 ZM-45.1452 8.5626 Q-45.5358 10.4844 -45.5983 10.7344 L-44.9421 10.7344 Q-44.1921 10.7344 -43.7858 10.4063 Q-43.3796 10.0782 -43.3796 9.4532 Q-43.3796 8.9844 -43.6374 8.7735 Q-43.8952 8.5626 -44.489 8.5626 L-45.1452 8.5626 ZM-40.5061 10.3126 Q-40.5061 11.6407 -40.9827 12.7735 Q-41.4592 13.9063 -42.4749 14.9532 L-43.0842 14.9532 Q-41.1467 12.7969 -41.1467 10.3126 Q-41.1467 8.9844 -41.5842 7.9688 L-41.0686 7.9688 Q-40.5061 9.0313 -40.5061 10.3126 Z" /><ns0:path style="fill:none;" d="M-18.912 45.961 L-18.912 46.461 L-19.345 46.711" /><ns0:path style="fill:none;" d="M30.0627 -43.3552 L30.483 -43.626 L30.9701 -43.5133" /><ns0:path style="fill:none;" d="M-18.479 -43.289 L-18.912 -43.539 L-19.345 -43.289" /><ns0:path style="fill:gray; stroke:none;" d="M61.7809 -35.6718 Q61.7809 -36.9999 62.2497 -38.1249 Q62.7184 -39.2499 63.7497 -40.328 L64.359 -40.328 Q63.3903 -39.2655 62.9059 -38.0937 Q62.4215 -36.9218 62.4215 -35.6874 Q62.4215 -34.3593 62.859 -33.3437 L62.3434 -33.3437 Q61.7809 -34.3749 61.7809 -35.6718 ZM65.341 -36.9843 L64.841 -34.6093 L64.1847 -34.6093 L65.3878 -40.328 L66.6378 -40.328 Q68.3722 -40.328 68.3722 -38.8905 Q68.3722 -37.5312 66.9347 -37.1405 L67.8722 -34.6093 L67.1535 -34.6093 L66.3253 -36.9843 L65.341 -36.9843 ZM65.9191 -39.7343 Q65.5285 -37.8124 65.466 -37.5624 L66.1222 -37.5624 Q66.8722 -37.5624 67.2785 -37.8905 Q67.6847 -38.2187 67.6847 -38.8437 Q67.6847 -39.3124 67.4269 -39.5233 Q67.1691 -39.7343 66.5753 -39.7343 L65.9191 -39.7343 ZM70.5582 -37.9843 Q70.5582 -36.6562 70.0816 -35.5233 Q69.6051 -34.3905 68.5894 -33.3437 L67.9801 -33.3437 Q69.9176 -35.4999 69.9176 -37.9843 Q69.9176 -39.3124 69.4801 -40.328 L69.9957 -40.328 Q70.5582 -39.2655 70.5582 -37.9843 Z" /><ns0:path style="fill:none;" d="M56.1466 13.2971 L56.631 13.173 L56.832 12.7152" /><ns0:path style="fill:gray; stroke:none;" d="M-66.6034 22.625 Q-66.6034 21.2969 -66.1346 20.1719 Q-65.6659 19.0469 -64.6346 17.9688 L-64.0252 17.9688 Q-64.994 19.0313 -65.4784 20.2031 Q-65.9627 21.375 -65.9627 22.6094 Q-65.9627 23.9375 -65.5252 24.9531 L-66.0409 24.9531 Q-66.6034 23.9219 -66.6034 22.625 ZM-63.0433 21.3125 L-63.5433 23.6875 L-64.1995 23.6875 L-62.9964 17.9688 L-61.7464 17.9688 Q-60.012 17.9688 -60.012 19.4063 Q-60.012 20.7656 -61.4495 21.1563 L-60.512 23.6875 L-61.2308 23.6875 L-62.0589 21.3125 L-63.0433 21.3125 ZM-62.4652 18.5625 Q-62.8558 20.4844 -62.9183 20.7344 L-62.262 20.7344 Q-61.512 20.7344 -61.1058 20.4063 Q-60.6995 20.0781 -60.6995 19.4531 Q-60.6995 18.9844 -60.9574 18.7734 Q-61.2152 18.5625 -61.8089 18.5625 L-62.4652 18.5625 ZM-57.8261 20.3125 Q-57.8261 21.6406 -58.3026 22.7734 Q-58.7792 23.9063 -59.7948 24.9531 L-60.4042 24.9531 Q-58.4667 22.7969 -58.4667 20.3125 Q-58.4667 18.9844 -58.9042 17.9688 L-58.3886 17.9688 Q-57.8261 19.0313 -57.8261 20.3125 Z" /><ns0:path style="fill:none;" d="M-44.895 -28.039 L-44.895 -28.539 L-44.462 -28.789" /><ns0:path style="fill:none;" d="M-44.462 61.211 L-44.895 61.461 L-45.328 61.211" /><ns0:path style="fill:gray; stroke:none;" d="M54.2641 -12.6566 Q54.2641 -13.9847 54.7328 -15.1097 Q55.2016 -16.2347 56.2328 -17.3129 L56.8422 -17.3129 Q55.8734 -16.2504 55.3891 -15.0785 Q54.9047 -13.9066 54.9047 -12.6722 Q54.9047 -11.3441 55.3422 -10.3285 L54.8266 -10.3285 Q54.2641 -11.3597 54.2641 -12.6566 ZM57.8241 -13.9691 L57.3241 -11.5941 L56.6679 -11.5941 L57.871 -17.3129 L59.121 -17.3129 Q60.8554 -17.3129 60.8554 -15.8754 Q60.8554 -14.516 59.4179 -14.1254 L60.3554 -11.5941 L59.6366 -11.5941 L58.8085 -13.9691 L57.8241 -13.9691 ZM58.4023 -16.7191 Q58.0116 -14.7972 57.9491 -14.5472 L58.6054 -14.5472 Q59.3554 -14.5472 59.7616 -14.8754 Q60.1679 -15.2035 60.1679 -15.8285 Q60.1679 -16.2972 59.9101 -16.5082 Q59.6523 -16.7191 59.0585 -16.7191 L58.4023 -16.7191 ZM63.0414 -14.9691 Q63.0414 -13.641 62.5648 -12.5082 Q62.0882 -11.3754 61.0726 -10.3285 L60.4632 -10.3285 Q62.4007 -12.4847 62.4007 -14.9691 Q62.4007 -16.2972 61.9632 -17.3129 L62.4789 -17.3129 Q63.0414 -16.2504 63.0414 -14.9691 Z" /><ns0:path style="fill:gray; stroke:none;" d="M-83.9238 42.625 Q-83.9238 41.2968 -83.4551 40.1718 Q-82.9863 39.0468 -81.9551 37.9687 L-81.3457 37.9687 Q-82.3145 39.0312 -82.7988 40.2031 Q-83.2832 41.375 -83.2832 42.6093 Q-83.2832 43.9375 -82.8457 44.9531 L-83.3613 44.9531 Q-83.9238 43.9218 -83.9238 42.625 ZM-80.3638 41.3125 L-80.8638 43.6875 L-81.52 43.6875 L-80.3169 37.9687 L-79.0669 37.9687 Q-77.3325 37.9687 -77.3325 39.4062 Q-77.3325 40.7656 -78.77 41.1562 L-77.8325 43.6875 L-78.5513 43.6875 L-79.3794 41.3125 L-80.3638 41.3125 ZM-79.7856 38.5625 Q-80.1763 40.4843 -80.2388 40.7343 L-79.5825 40.7343 Q-78.8325 40.7343 -78.4263 40.4062 Q-78.02 40.0781 -78.02 39.4531 Q-78.02 38.9843 -78.2778 38.7734 Q-78.5356 38.5625 -79.1294 38.5625 L-79.7856 38.5625 ZM-75.1465 40.3125 Q-75.1465 41.6406 -75.6231 42.7734 Q-76.0997 43.9062 -77.1153 44.9531 L-77.7247 44.9531 Q-75.7872 42.7968 -75.7872 40.3125 Q-75.7872 38.9843 -76.2247 37.9687 L-75.709 37.9687 Q-75.1465 39.0312 -75.1465 40.3125 Z" /><ns0:path style="stroke:none;" d="M9.5938 -54.3737 L8.5938 -54.3737 L8.5938 -58.405 L4.0782 -58.405 L4.0782 -54.3737 L3.0782 -54.3737 L3.0782 -62.9362 L4.0782 -62.9362 L4.0782 -59.2956 L8.5938 -59.2956 L8.5938 -62.9362 L9.5938 -62.9362 L9.5938 -54.3737 Z" /><ns0:path style="stroke:none;" d="M-67.6172 -9.3827 L-68.6172 -9.3827 L-68.6172 -13.414 L-73.1328 -13.414 L-73.1328 -9.3827 L-74.1328 -9.3827 L-74.1328 -17.9452 L-73.1328 -17.9452 L-73.1328 -14.3046 L-68.6172 -14.3046 L-68.6172 -17.9452 L-67.6172 -17.9452 L-67.6172 -9.3827 Z" /><ns0:path style="stroke:none;" d="M77.7508 -57.3048 L76.7508 -57.3048 L76.7508 -61.336 L72.2352 -61.336 L72.2352 -57.3048 L71.2352 -57.3048 L71.2352 -65.8672 L72.2352 -65.8672 L72.2352 -62.2266 L76.7508 -62.2266 L76.7508 -65.8672 L77.7508 -65.8672 L77.7508 -57.3048 Z" /></ns0:g></ns0:g></ns0:svg></ns0:svg></ns0:svg></ns0:svg></g></svg>