<svg width="294" viewBox="0 0 294 157" style="fill-opacity:1; color-rendering:auto; color-interpolation:auto; text-rendering:auto; stroke:black; stroke-linecap:square; stroke-miterlimit:10; shape-rendering:auto; stroke-opacity:1; fill:black; stroke-dasharray:none; font-weight:normal; stroke-width:1; font-family:'Open Sans'; font-style:normal; stroke-linejoin:miter; font-size:12; stroke-dashoffset:0; image-rendering:auto;" height="157" class="cas-substance-image" xmlns:xlink="http://www.w3.org/1999/xlink" xmlns="http://www.w3.org/2000/svg"><svg class="cas-substance-single-component"><rect y="0" x="0" width="294" stroke="none" ry="7" rx="7" height="157" fill="white" class="cas-substance-group"/><svg y="0" x="0" width="294" viewBox="0 0 294 157" style="fill:black;" height="157" class="cas-substance-single-component-image"><svg><g><g transform="translate(146,79)" style="text-rendering:geometricPrecision; color-rendering:optimizeQuality; color-interpolation:linearRGB; stroke-linecap:butt; image-rendering:optimizeQuality;"><line y2="30" y1="15" x2="-38.97" x1="-64.953" style="fill:none;"/><line y2="30" y1="15" x2="-90.933" x1="-64.953" style="fill:none;"/><line y2="25.9585" y1="12.9793" x2="-90.9331" x1="-68.453" style="fill:none;"/></g><g transform="translate(146,79)" style="stroke-linecap:butt; font-size:8.4px; fill:gray; text-rendering:geometricPrecision; image-rendering:optimizeQuality; color-rendering:optimizeQuality; font-family:'Open Sans'; font-style:italic; stroke:gray; color-interpolation:linearRGB;"><path style="stroke:none;" d="M-87.0905 15.0039 Q-87.0905 13.6757 -86.6217 12.5507 Q-86.153 11.4257 -85.1217 10.3476 L-84.5124 10.3476 Q-85.4811 11.4101 -85.9655 12.582 Q-86.4499 13.7539 -86.4499 14.9882 Q-86.4499 16.3164 -86.0124 17.332 L-86.528 17.332 Q-87.0905 16.3007 -87.0905 15.0039 ZM-81.8273 16.0664 L-84.6867 16.0664 L-83.4836 10.3476 L-80.6086 10.3476 L-80.7336 10.957 L-82.9523 10.957 L-83.3273 12.7851 L-81.2804 12.7851 L-81.3898 13.3789 L-83.4523 13.3789 L-83.9054 15.4726 L-81.6867 15.4726 L-81.8273 16.0664 ZM-78.7957 12.6914 Q-78.7957 14.0195 -79.2723 15.1523 Q-79.7489 16.2851 -80.7645 17.332 L-81.3739 17.332 Q-79.4364 15.1757 -79.4364 12.6914 Q-79.4364 11.3632 -79.8739 10.3476 L-79.3582 10.3476 Q-78.7957 11.4101 -78.7957 12.6914 Z"/><line y2="-15" y1="15" x2="-64.953" x1="-64.953" style="fill:none; stroke:black;"/><line y2="53.5234" y1="30" x2="-38.97" x1="-38.97" style="fill:none; stroke:black;"/><line y2="19.7044" y1="32.0207" x2="-17.638" x1="-38.97" style="fill:none; stroke:black;"/><line y2="16.6733" y1="28.9897" x2="-19.3881" x1="-40.7201" style="fill:none; stroke:black;"/><line y2="18.1786" y1="30" x2="-111.4076" x1="-90.933" style="fill:none; stroke:black;"/><line y2="75" y1="63.1786" x2="-12.99" x1="-33.4646" style="fill:none; stroke:black;"/><line y2="30" y1="18.1888" x2="-142.893" x1="-122.436" style="fill:none; stroke:black;"/><line y2="-26.8112" y1="-15" x2="7.467" x1="-12.99" style="fill:none; stroke:black;"/><line y2="-30" y1="-15" x2="-38.97" x1="-12.99" style="fill:none; stroke:black;"/><line y2="-15" y1="-26.8214" x2="38.97" x1="18.4954" style="fill:none; stroke:black;"/><line y2="-9.8926" y1="-30" x2="128.5224" x1="116.913" style="fill:none; stroke:black;"/><line y2="-42.6197" y1="-30" x2="138.7703" x1="116.913" style="fill:none; stroke:black;"/><line y2="-52.5411" y1="-30" x2="103.8985" x1="116.913" style="fill:none; stroke:black;"/><line y2="-15" y1="-30" x2="90.933" x1="116.913" style="fill:none; stroke:black;"/><line y2="-30" y1="-15" x2="-38.97" x1="-64.953" style="fill:none; stroke:black;"/><line y2="-32.0209" y1="-19.0415" x2="-42.4699" x1="-64.9529" style="fill:none; stroke:black;"/><line y2="-30" y1="-15" x2="-90.933" x1="-64.953" style="fill:none; stroke:black;"/><line y2="-60" y1="-30" x2="-38.97" x1="-38.97" style="fill:none; stroke:black;"/><line y2="-60" y1="-30" x2="-90.933" x1="-90.933" style="fill:none; stroke:black;"/><line y2="-57.9793" y1="-32.0207" x2="-87.433" x1="-87.433" style="fill:none; stroke:black;"/><line y2="-75" y1="-60" x2="-64.953" x1="-38.97" style="fill:none; stroke:black;"/><line y2="-70.9585" y1="-57.9791" x2="-64.9529" x1="-42.4699" style="fill:none; stroke:black;"/><line y2="-75" y1="-60" x2="-64.953" x1="-90.933" style="fill:none; stroke:black;"/><line y2="-27.0652" y1="-15" x2="59.8694" x1="38.97" style="fill:none; stroke:black;"/><line y2="15" y1="-15" x2="38.97" x1="38.97" style="fill:none; stroke:black;"/><line y2="12.9793" y1="-12.9793" x2="42.47" x1="42.47" style="fill:none; stroke:black;"/><line y2="-15" y1="-27.0649" x2="90.933" x1="70.0366" style="fill:none; stroke:black;"/><line y2="-12.9793" y1="-24.0338" x2="87.433" x1="68.2866" style="fill:none; stroke:black;"/><line y2="30" y1="15" x2="64.953" x1="38.97" style="fill:none; stroke:black;"/><line y2="15" y1="-15" x2="90.933" x1="90.933" style="fill:none; stroke:black;"/><line y2="15" y1="30" x2="90.933" x1="64.953" style="fill:none; stroke:black;"/><line y2="12.9793" y1="25.9585" x2="87.433" x1="64.9529" style="fill:none; stroke:black;"/><path style="fill:none; stroke-miterlimit:5; stroke:black;" d="M-65.386 15.25 L-64.953 15 L-64.953 14.5"/><path style="fill:none; stroke-miterlimit:5; stroke:black;" d="M-39.403 29.75 L-38.97 30 L-38.97 30.5"/><path style="fill:none; stroke-miterlimit:5; stroke:black;" d="M-90.5 29.75 L-90.933 30 L-91.366 29.75"/></g><g transform="translate(146,79)" style="stroke-linecap:butt; fill:rgb(230,0,0); text-rendering:geometricPrecision; color-rendering:optimizeQuality; image-rendering:optimizeQuality; font-family:'Open Sans'; stroke:rgb(230,0,0); color-interpolation:linearRGB; stroke-miterlimit:5;"><path style="stroke:none;" d="M-35.0325 59.9297 Q-35.0325 61.9922 -36.0716 63.1719 Q-37.1106 64.3516 -38.9544 64.3516 Q-40.845 64.3516 -41.8763 63.1875 Q-42.9075 62.0234 -42.9075 59.9141 Q-42.9075 57.8203 -41.8763 56.6719 Q-40.845 55.5234 -38.9544 55.5234 Q-37.095 55.5234 -36.0638 56.6953 Q-35.0325 57.8672 -35.0325 59.9297 ZM-41.8606 59.9297 Q-41.8606 61.6641 -41.1184 62.5703 Q-40.3763 63.4766 -38.9544 63.4766 Q-37.5325 63.4766 -36.8059 62.5781 Q-36.0794 61.6797 -36.0794 59.9297 Q-36.0794 58.1953 -36.8059 57.3047 Q-37.5325 56.4141 -38.9544 56.4141 Q-40.3763 56.4141 -41.1184 57.3125 Q-41.8606 58.2109 -41.8606 59.9297 Z"/><path style="stroke:none;" d="M-9.0525 14.9297 Q-9.0525 16.9922 -10.0916 18.1719 Q-11.1306 19.3516 -12.9744 19.3516 Q-14.865 19.3516 -15.8962 18.1875 Q-16.9275 17.0234 -16.9275 14.9141 Q-16.9275 12.8203 -15.8962 11.6719 Q-14.865 10.5234 -12.9744 10.5234 Q-11.115 10.5234 -10.0837 11.6953 Q-9.0525 12.8672 -9.0525 14.9297 ZM-15.8806 14.9297 Q-15.8806 16.6641 -15.1384 17.5703 Q-14.3962 18.4766 -12.9744 18.4766 Q-11.5525 18.4766 -10.8259 17.5781 Q-10.0994 16.6797 -10.0994 14.9297 Q-10.0994 13.1953 -10.8259 12.3047 Q-11.5525 11.4141 -12.9744 11.4141 Q-14.3962 11.4141 -15.1384 12.3125 Q-15.8806 13.2109 -15.8806 14.9297 Z"/><path style="stroke:none;" d="M-112.9755 14.9297 Q-112.9755 16.9922 -114.0146 18.1719 Q-115.0536 19.3516 -116.8974 19.3516 Q-118.788 19.3516 -119.8193 18.1875 Q-120.8505 17.0234 -120.8505 14.9141 Q-120.8505 12.8203 -119.8193 11.6719 Q-118.788 10.5234 -116.8974 10.5234 Q-115.038 10.5234 -114.0068 11.6953 Q-112.9755 12.8672 -112.9755 14.9297 ZM-119.8036 14.9297 Q-119.8036 16.6641 -119.0614 17.5703 Q-118.3193 18.4766 -116.8974 18.4766 Q-115.4755 18.4766 -114.7489 17.5781 Q-114.0224 16.6797 -114.0224 14.9297 Q-114.0224 13.1953 -114.7489 12.3047 Q-115.4755 11.4141 -116.8974 11.4141 Q-118.3193 11.4141 -119.0614 12.3125 Q-119.8036 13.2109 -119.8036 14.9297 Z"/><path style="fill:none; stroke:black;" d="M-12.557 -15.25 L-12.99 -15 L-13.423 -15.25"/><path style="stroke:none;" d="M16.9275 -30.0703 Q16.9275 -28.0078 15.8884 -26.8281 Q14.8494 -25.6484 13.0056 -25.6484 Q11.115 -25.6484 10.0837 -26.8125 Q9.0525 -27.9766 9.0525 -30.0859 Q9.0525 -32.1797 10.0837 -33.3281 Q11.115 -34.4766 13.0056 -34.4766 Q14.865 -34.4766 15.8962 -33.3047 Q16.9275 -32.1328 16.9275 -30.0703 ZM10.0994 -30.0703 Q10.0994 -28.3359 10.8416 -27.4297 Q11.5837 -26.5234 13.0056 -26.5234 Q14.4275 -26.5234 15.1541 -27.4219 Q15.8806 -28.3203 15.8806 -30.0703 Q15.8806 -31.8047 15.1541 -32.6953 Q14.4275 -33.5859 13.0056 -33.5859 Q11.5837 -33.5859 10.8416 -32.6875 Q10.0994 -31.7891 10.0994 -30.0703 Z"/><path style="fill:rgb(0,138,0); stroke:none;" d="M130.5224 0.1363 L129.5224 0.1363 L129.5224 -8.4263 L134.3036 -8.4263 L134.3036 -7.5512 L130.5224 -7.5512 L130.5224 -4.4106 L134.0692 -4.4106 L134.0692 -3.52 L130.5224 -3.52 L130.5224 0.1363 Z"/><path style="fill:rgb(0,138,0); stroke:none;" d="M141.5024 -40.8438 L140.5024 -40.8438 L140.5024 -49.4062 L145.2836 -49.4062 L145.2836 -48.5312 L141.5024 -48.5312 L141.5024 -45.3906 L145.0493 -45.3906 L145.0493 -44.5 L141.5024 -44.5 L141.5024 -40.8438 Z"/><path style="fill:rgb(0,138,0); stroke:none;" d="M100.5224 -51.8238 L99.5224 -51.8238 L99.5224 -60.3863 L104.3036 -60.3863 L104.3036 -59.5113 L100.5224 -59.5113 L100.5224 -56.3706 L104.0693 -56.3706 L104.0693 -55.48 L100.5224 -55.48 L100.5224 -51.8238 Z"/><path style="fill:none; stroke:black;" d="M-64.52 -15.25 L-64.953 -15 L-64.953 -14.5"/><path style="fill:none; stroke:black;" d="M-39.403 -29.75 L-38.97 -30 L-38.97 -30.5"/><path style="fill:none; stroke:black;" d="M-90.5 -29.75 L-90.933 -30 L-90.933 -30.5"/><path style="fill:none; stroke:black;" d="M-38.97 -59.5 L-38.97 -60 L-39.403 -60.25"/><path style="fill:none; stroke:black;" d="M-90.933 -59.5 L-90.933 -60 L-90.5 -60.25"/><path style="fill:none; stroke:black;" d="M-64.52 -74.75 L-64.953 -75 L-65.386 -74.75"/><path style="fill:none; stroke:black;" d="M38.97 -14.5 L38.97 -15 L38.537 -15.25"/><path style="fill:rgb(0,5,255); stroke:none;" d="M68.3046 -25.8438 L67.1639 -25.8438 L62.4764 -33.0312 L62.4296 -33.0312 Q62.5233 -31.7656 62.5233 -30.7188 L62.5233 -25.8438 L61.6014 -25.8438 L61.6014 -34.4062 L62.7264 -34.4062 L67.3983 -27.25 L67.4452 -27.25 Q67.4452 -27.4062 67.3983 -28.2656 Q67.3514 -29.125 67.3671 -29.5 L67.3671 -34.4062 L68.3046 -34.4062 L68.3046 -25.8438 Z"/><path style="fill:none; stroke:black;" d="M38.97 14.5 L38.97 15 L39.403 15.25"/><path style="fill:none; stroke:black;" d="M90.5 -15.25 L90.933 -15 L91.366 -15.25"/><path style="fill:none; stroke:black;" d="M64.52 29.75 L64.953 30 L65.386 29.75"/><path style="fill:none; stroke:black;" d="M90.933 14.5 L90.933 15 L90.5 15.25"/></g></g></svg></svg></svg></svg>