<svg xmlns:ns0="http://www.w3.org/2000/svg" xmlns="http://www.w3.org/2000/svg"><g transform="translate(0, 0)"><ns0:svg width="199" viewBox="0 0 199 140" style="fill-opacity:1; color-rendering:auto; color-interpolation:auto; text-rendering:auto; stroke:black; stroke-linecap:square; stroke-miterlimit:10; shape-rendering:auto; stroke-opacity:1; fill:black; stroke-dasharray:none; font-weight:normal; stroke-width:1; font-family:'Open Sans'; font-style:normal; stroke-linejoin:miter; font-size:12; stroke-dashoffset:0; image-rendering:auto;" height="140" class="cas-substance-image"><ns0:svg class="cas-substance-single-component"><ns0:rect y="0" x="0" width="199" stroke="none" ry="7" rx="7" height="140" fill="white" class="cas-substance-group" /><ns0:svg y="0" x="0" width="199" viewBox="0 0 199 140" style="fill:black;" height="140" class="cas-substance-single-component-image"><ns0:svg><ns0:g><ns0:g transform="translate(99,68)" style="text-rendering:geometricPrecision; color-rendering:optimizeQuality; color-interpolation:linearRGB; stroke-linecap:butt; image-rendering:optimizeQuality;"><ns0:line y2="-18.8163" y1="-38.658" x2="-5.507" x1="5.949" style="fill:none;" /><ns0:line y2="-38.658" y1="-38.658" x2="35.949" x1="5.949" style="fill:none;" /><ns0:line y2="33.3557" y1="57.9895" x2="-17.5354" x1="-14.947" style="fill:none;" /><ns0:line y2="33.7214" y1="58.3553" x2="-21.0163" x1="-18.4278" style="fill:none;" /><ns0:line y2="-12.1163" y1="-9.54" x2="-14.3916" x1="-38.886" style="fill:none;" /><ns0:line y2="19.803" y1="-9.54" x2="-45.123" x1="-38.886" style="fill:none;" /><ns0:line y2="-29.616" y1="-9.54" x2="-61.179" x1="-38.886" style="fill:none;" /><ns0:line y2="-25.6629" y1="-8.2914" x2="-62.0196" x1="-42.7298" style="fill:none;" /><ns0:line y2="8.4967" y1="-6.6947" x2="0.3775" x1="-6.3868" style="fill:none;" /><ns0:line y2="34.803" y1="19.803" x2="-19.143" x1="-45.123" style="fill:none;" /><ns0:line y2="29.073" y1="19.803" x2="-73.656" x1="-45.123" style="fill:none;" /><ns0:line y2="25.1199" y1="17.0987" x2="-72.8156" x1="-48.1263" style="fill:none;" /><ns0:line y2="-20.346" y1="-29.616" x2="-89.712" x1="-61.179" style="fill:none;" /><ns0:line y2="34.803" y1="19.0856" x2="-19.143" x1="-1.6849" style="fill:none;" /><ns0:line y2="9" y1="29.073" x2="-95.949" x1="-73.656" style="fill:none;" /><ns0:line y2="9" y1="-20.346" x2="-95.949" x1="-89.712" style="fill:none;" /><ns0:line y2="7.751" y1="-17.6418" x2="-92.1054" x1="-86.7086" style="fill:none;" /><ns0:line y2="-64.638" y1="-38.658" x2="50.949" x1="35.949" style="fill:none;" /><ns0:line y2="-61.138" y1="-38.6579" x2="52.9697" x1="39.9905" style="fill:none;" /><ns0:line y2="-12.678" y1="-38.658" x2="50.949" x1="35.949" style="fill:none;" /><ns0:line y2="-64.638" y1="-64.638" x2="80.949" x1="50.949" style="fill:none;" /><ns0:line y2="-12.678" y1="-12.678" x2="80.949" x1="50.949" style="fill:none;" /><ns0:line y2="-16.178" y1="-16.178" x2="78.9283" x1="52.9697" style="fill:none;" /><ns0:line y2="-38.658" y1="-64.638" x2="95.949" x1="80.949" style="fill:none;" /><ns0:line y2="-38.6579" y1="-61.138" x2="91.9075" x1="78.9283" style="fill:none;" /><ns0:line y2="-38.658" y1="-12.678" x2="95.949" x1="80.949" style="fill:none;" /><ns0:path style="fill:none; stroke-miterlimit:5;" d="M5.699 -38.225 L5.949 -38.658 L6.449 -38.658" /></ns0:g><ns0:g transform="translate(99,68)" style="stroke-linecap:butt; fill:rgb(230,0,0); text-rendering:geometricPrecision; color-rendering:optimizeQuality; image-rendering:optimizeQuality; font-family:'Open Sans'; stroke:rgb(230,0,0); color-interpolation:linearRGB; stroke-miterlimit:5;"><ns0:path style="stroke:none;" d="M-12.0705 64.5677 Q-12.0705 66.6302 -13.1096 67.8099 Q-14.1486 68.9896 -15.9924 68.9896 Q-17.883 68.9896 -18.9142 67.8255 Q-19.9455 66.6614 -19.9455 64.5521 Q-19.9455 62.4583 -18.9142 61.3099 Q-17.883 60.1614 -15.9924 60.1614 Q-14.133 60.1614 -13.1017 61.3333 Q-12.0705 62.5052 -12.0705 64.5677 ZM-18.8986 64.5677 Q-18.8986 66.3021 -18.1564 67.2083 Q-17.4142 68.1146 -15.9924 68.1146 Q-14.5705 68.1146 -13.8439 67.2161 Q-13.1174 66.3177 -13.1174 64.5677 Q-13.1174 62.8333 -13.8439 61.9427 Q-14.5705 61.0521 -15.9924 61.0521 Q-17.4142 61.0521 -18.1564 61.9505 Q-18.8986 62.8489 -18.8986 64.5677 Z" /><ns0:path style="fill:none; stroke:black;" d="M-39.2575 -9.8746 L-38.886 -9.54 L-38.99 -9.0509" /><ns0:path style="fill:rgb(0,5,255); stroke:none;" d="M-5.6994 -8.5218 L-6.8401 -8.5218 L-11.5276 -15.7093 L-11.5744 -15.7093 Q-11.4807 -14.4436 -11.4807 -13.3968 L-11.4807 -8.5218 L-12.4026 -8.5218 L-12.4026 -17.0843 L-11.2776 -17.0843 L-6.6057 -9.928 L-6.5588 -9.928 Q-6.5588 -10.0843 -6.6057 -10.9436 Q-6.6526 -11.803 -6.6369 -12.178 L-6.6369 -17.0843 L-5.6994 -17.0843 L-5.6994 -8.5218 Z" /><ns0:path style="fill:none; stroke:black;" d="M-45.5985 19.9575 L-45.123 19.803 L-45.019 19.3139" /><ns0:path style="fill:none; stroke:black;" d="M-60.8075 -29.2814 L-61.179 -29.616 L-61.6545 -29.4615" /><ns0:path style="fill:rgb(0,5,255); stroke:none;" d="M6.5046 18.8862 L5.3639 18.8862 L0.6764 11.6987 L0.6296 11.6987 Q0.7233 12.9644 0.7233 14.0112 L0.7233 18.8862 L-0.1986 18.8862 L-0.1986 10.3237 L0.9264 10.3237 L5.5983 17.48 L5.6452 17.48 Q5.6452 17.3237 5.5983 16.4644 Q5.5514 15.605 5.5671 15.23 L5.5671 10.3237 L6.5046 10.3237 L6.5046 18.8862 Z" /><ns0:path style="fill:rgb(0,5,255); stroke:none;" d="M14.0202 18.8862 L13.0202 18.8862 L13.0202 14.855 L8.5046 14.855 L8.5046 18.8862 L7.5046 18.8862 L7.5046 10.3237 L8.5046 10.3237 L8.5046 13.9644 L13.0202 13.9644 L13.0202 10.3237 L14.0202 10.3237 L14.0202 18.8862 Z" /><ns0:path style="fill:none; stroke:black;" d="M-19.576 34.553 L-19.143 34.803 L-18.7714 34.4685" /><ns0:path style="fill:none; stroke:black;" d="M-73.1805 28.9185 L-73.656 29.073 L-74.0276 28.7384" /><ns0:path style="fill:none; stroke:black;" d="M-89.2365 -20.5005 L-89.712 -20.346 L-89.8159 -19.8569" /><ns0:path style="fill:none; stroke:black;" d="M-95.5774 9.3346 L-95.949 9 L-95.8451 8.5109" /><ns0:path style="fill:none; stroke:black;" d="M36.199 -39.091 L35.949 -38.658 L35.449 -38.658" /><ns0:path style="fill:none; stroke:black;" d="M50.699 -64.205 L50.949 -64.638 L51.449 -64.638" /><ns0:path style="fill:none; stroke:black;" d="M50.699 -13.111 L50.949 -12.678 L51.449 -12.678" /><ns0:path style="fill:none; stroke:black;" d="M80.449 -64.638 L80.949 -64.638 L81.199 -64.205" /><ns0:path style="fill:none; stroke:black;" d="M80.449 -12.678 L80.949 -12.678 L81.199 -13.111" /><ns0:path style="fill:none; stroke:black;" d="M95.699 -39.091 L95.949 -38.658 L95.699 -38.225" /></ns0:g></ns0:g></ns0:svg></ns0:svg></ns0:svg></ns0:svg></g></svg>