<svg width="282" viewBox="0 0 282 76" style="fill-opacity:1; color-rendering:auto; color-interpolation:auto; text-rendering:auto; stroke:black; stroke-linecap:square; stroke-miterlimit:10; shape-rendering:auto; stroke-opacity:1; fill:black; stroke-dasharray:none; font-weight:normal; stroke-width:1; font-family:'Open Sans'; font-style:normal; stroke-linejoin:miter; font-size:12; stroke-dashoffset:0; image-rendering:auto;" height="76" class="cas-substance-image" xmlns:xlink="http://www.w3.org/1999/xlink" xmlns="http://www.w3.org/2000/svg"><svg class="cas-substance-single-component"><rect y="0" x="0" width="282" stroke="none" ry="7" rx="7" height="76" fill="white" class="cas-substance-group"/><svg y="0" x="0" width="282" viewBox="0 0 282 76" style="fill:black;" height="76" class="cas-substance-single-component-image"><svg><g><g transform="translate(149,37)" style="text-rendering:geometricPrecision; color-rendering:optimizeQuality; color-interpolation:linearRGB; stroke-linecap:butt; image-rendering:optimizeQuality;"><line y2="-15" y1="-26.8214" x2="0" x1="-20.4746" style="fill:none;"/><line y2="-15" y1="-26.8114" x2="-51.963" x1="-31.5032" style="fill:none;"/><line y2="-30" y1="-15" x2="25.98" x1="0" style="fill:none;"/><line y2="-15" y1="-30" x2="51.963" x1="25.98" style="fill:none;"/><line y2="-30" y1="-15" x2="77.943" x1="51.963" style="fill:none;"/><line y2="-15" y1="-30" x2="103.923" x1="77.943" style="fill:none;"/><line y2="-30" y1="-15" x2="129.903" x1="103.923" style="fill:none;"/><line y2="15" y1="27.0649" x2="-103.923" x1="-124.8194" style="fill:none;"/><line y2="-30" y1="-15" x2="-77.943" x1="-51.963" style="fill:none;"/><line y2="-25.9585" y1="-12.9793" x2="-77.9431" x1="-55.463" style="fill:none;"/><line y2="15" y1="-15" x2="-51.963" x1="-51.963" style="fill:none;"/><line y2="-15" y1="-30" x2="-103.923" x1="-77.943" style="fill:none;"/><line y2="30" y1="15" x2="-77.943" x1="-51.963" style="fill:none;"/><line y2="25.9585" y1="12.9793" x2="-77.9431" x1="-55.463" style="fill:none;"/><line y2="15" y1="-15" x2="-103.923" x1="-103.923" style="fill:none;"/><line y2="12.9793" y1="-12.9793" x2="-100.423" x1="-100.423" style="fill:none;"/><line y2="15" y1="30" x2="-103.923" x1="-77.943" style="fill:none;"/></g><g transform="translate(149,37)" style="fill:rgb(230,0,0); text-rendering:geometricPrecision; color-rendering:optimizeQuality; image-rendering:optimizeQuality; font-family:'Open Sans'; stroke:rgb(230,0,0); color-interpolation:linearRGB;"><path style="stroke:none;" d="M-22.0425 -30.0703 Q-22.0425 -28.0078 -23.0816 -26.8281 Q-24.1206 -25.6484 -25.9644 -25.6484 Q-27.855 -25.6484 -28.8862 -26.8125 Q-29.9175 -27.9766 -29.9175 -30.0859 Q-29.9175 -32.1797 -28.8862 -33.3281 Q-27.855 -34.4766 -25.9644 -34.4766 Q-24.105 -34.4766 -23.0737 -33.3047 Q-22.0425 -32.1328 -22.0425 -30.0703 ZM-28.8706 -30.0703 Q-28.8706 -28.3359 -28.1284 -27.4297 Q-27.3862 -26.5234 -25.9644 -26.5234 Q-24.5425 -26.5234 -23.8159 -27.4219 Q-23.0894 -28.3203 -23.0894 -30.0703 Q-23.0894 -31.8047 -23.8159 -32.6953 Q-24.5425 -33.5859 -25.9644 -33.5859 Q-27.3862 -33.5859 -28.1284 -32.6875 Q-28.8706 -31.7891 -28.8706 -30.0703 Z"/></g><g transform="translate(149,37)" style="stroke-linecap:butt; text-rendering:geometricPrecision; color-rendering:optimizeQuality; image-rendering:optimizeQuality; font-family:'Open Sans'; color-interpolation:linearRGB; stroke-miterlimit:5;"><path style="fill:none;" d="M-0.433 -15.25 L0 -15 L0.433 -15.25"/><path style="fill:none;" d="M25.547 -29.75 L25.98 -30 L26.413 -29.75"/><path style="fill:none;" d="M51.53 -15.25 L51.963 -15 L52.396 -15.25"/><path style="fill:none;" d="M77.51 -29.75 L77.943 -30 L78.376 -29.75"/><path style="fill:none;" d="M103.49 -15.25 L103.923 -15 L104.356 -15.25"/><path style="fill:rgb(0,5,255); stroke:none;" d="M-126.5514 34.1562 L-127.6921 34.1562 L-132.3796 26.9688 L-132.4264 26.9688 Q-132.3327 28.2344 -132.3327 29.2812 L-132.3327 34.1562 L-133.2546 34.1562 L-133.2546 25.5938 L-132.1296 25.5938 L-127.4577 32.75 L-127.4108 32.75 Q-127.4108 32.5938 -127.4577 31.7344 Q-127.5046 30.875 -127.4889 30.5 L-127.4889 25.5938 L-126.5514 25.5938 L-126.5514 34.1562 Z"/><path style="fill:rgb(0,5,255); stroke:none;" d="M-139.0046 34.1562 L-140.0046 34.1562 L-140.0046 30.125 L-144.5202 30.125 L-144.5202 34.1562 L-145.5202 34.1562 L-145.5202 25.5938 L-144.5202 25.5938 L-144.5202 29.2344 L-140.0046 29.2344 L-140.0046 25.5938 L-139.0046 25.5938 L-139.0046 34.1562 Z"/><path style="fill:rgb(0,5,255); stroke:none;" d="M-134.2546 35.9656 L-138.0046 35.9656 L-138.0046 35.4031 L-136.5046 33.8875 Q-135.8171 33.2 -135.5983 32.9031 Q-135.3796 32.6063 -135.2702 32.325 Q-135.1608 32.0438 -135.1608 31.7156 Q-135.1608 31.2625 -135.4342 30.9969 Q-135.7077 30.7313 -136.2077 30.7313 Q-136.5514 30.7313 -136.8717 30.8484 Q-137.1921 30.9656 -137.5827 31.2625 L-137.9264 30.825 Q-137.1452 30.1688 -136.2077 30.1688 Q-135.4108 30.1688 -134.9499 30.5828 Q-134.4889 30.9969 -134.4889 31.6844 Q-134.4889 32.2313 -134.7936 32.7625 Q-135.0983 33.2938 -135.9421 34.1063 L-137.1921 35.325 L-137.1921 35.3563 L-134.2546 35.3563 L-134.2546 35.9656 Z"/><path style="fill:none;" d="M-52.396 -15.25 L-51.963 -15 L-51.53 -15.25"/><path style="fill:none;" d="M-77.51 -29.75 L-77.943 -30 L-78.376 -29.75"/><path style="fill:none;" d="M-51.963 14.5 L-51.963 15 L-52.396 15.25"/><path style="fill:none;" d="M-103.49 -15.25 L-103.923 -15 L-103.923 -14.5"/><path style="fill:none;" d="M-77.51 29.75 L-77.943 30 L-78.376 29.75"/><path style="fill:none;" d="M-103.923 14.5 L-103.923 15 L-104.356 15.25"/></g></g></svg></svg></svg></svg>