<svg width="223" viewBox="0 0 223 59" style="fill-opacity:1; color-rendering:auto; color-interpolation:auto; text-rendering:auto; stroke:black; stroke-linecap:square; stroke-miterlimit:10; shape-rendering:auto; stroke-opacity:1; fill:black; stroke-dasharray:none; font-weight:normal; stroke-width:1; font-family:'Open Sans'; font-style:normal; stroke-linejoin:miter; font-size:12; stroke-dashoffset:0; image-rendering:auto;" height="59" class="cas-substance-image" xmlns:xlink="http://www.w3.org/1999/xlink" xmlns="http://www.w3.org/2000/svg"><svg class="cas-substance-single-component"><rect y="0" x="0" width="223" stroke="none" ry="7" rx="7" height="59" fill="white" class="cas-substance-group"/><svg y="0" x="0" width="223" viewBox="0 0 223 59" style="fill:black;" height="59" class="cas-substance-single-component-image"><svg><g><g transform="translate(112,29)" style="text-rendering:geometricPrecision; color-rendering:optimizeQuality; color-interpolation:linearRGB; stroke-linecap:butt; image-rendering:optimizeQuality;"><line y2="0" y1="0" x2="99.6484" x1="75" style="fill:none;"/><line y2="-3.5" y1="-3.5" x2="99.6484" x1="75" style="fill:none;"/><line y2="3.5" y1="3.5" x2="99.6484" x1="75" style="fill:none;"/><line y2="0" y1="0" x2="45" x1="75" style="fill:none;"/><line y2="25.98" y1="0" x2="0" x1="-15" style="fill:none;"/><line y2="22.48" y1="-0.0001" x2="2.0207" x1="-10.9585" style="fill:none;"/><line y2="-25.98" y1="0" x2="0" x1="-15" style="fill:none;"/><line y2="0" y1="0" x2="-39.6484" x1="-15" style="fill:none;"/><line y2="25.98" y1="25.98" x2="30" x1="0" style="fill:none;"/><line y2="-25.98" y1="-25.98" x2="30" x1="0" style="fill:none;"/><line y2="-22.48" y1="-22.48" x2="27.9793" x1="2.0207" style="fill:none;"/><line y2="0" y1="25.98" x2="45" x1="30" style="fill:none;"/><line y2="-0.0001" y1="22.48" x2="40.9585" x1="27.9793" style="fill:none;"/><line y2="0" y1="-25.98" x2="45" x1="30" style="fill:none;"/><line y2="-25.98" y1="-6.1383" x2="-60" x1="-48.544" style="fill:none;"/><line y2="25.98" y1="5.8883" x2="-60" x1="-48.3997" style="fill:none;"/><line y2="-25.98" y1="-25.98" x2="-90" x1="-60" style="fill:none;"/><line y2="25.98" y1="25.98" x2="-90" x1="-60" style="fill:none;"/><line y2="-5.7217" y1="-25.98" x2="-101.6965" x1="-90" style="fill:none;"/><line y2="5.6357" y1="25.98" x2="-101.7461" x1="-90" style="fill:none;"/></g><g transform="translate(112,29)" style="fill:rgb(0,5,255); text-rendering:geometricPrecision; color-rendering:optimizeQuality; image-rendering:optimizeQuality; font-family:'Open Sans'; stroke:rgb(0,5,255); color-interpolation:linearRGB;"><path style="stroke:none;" d="M108.3516 4.1562 L107.2109 4.1562 L102.5234 -3.0312 L102.4766 -3.0312 Q102.5703 -1.7656 102.5703 -0.7188 L102.5703 4.1562 L101.6484 4.1562 L101.6484 -4.4062 L102.7734 -4.4062 L107.4453 2.75 L107.4922 2.75 Q107.4922 2.5938 107.4453 1.7344 Q107.3984 0.875 107.4141 0.5 L107.4141 -4.4062 L108.3516 -4.4062 L108.3516 4.1562 Z"/></g><g transform="translate(112,29)" style="stroke-linecap:butt; text-rendering:geometricPrecision; color-rendering:optimizeQuality; image-rendering:optimizeQuality; font-family:'Open Sans'; color-interpolation:linearRGB; stroke-miterlimit:5;"><path style="fill:none;" d="M-14.75 0.433 L-15 0 L-14.75 -0.433"/><path style="fill:none;" d="M-0.25 25.547 L0 25.98 L0.5 25.98"/><path style="fill:none;" d="M-0.25 -25.547 L0 -25.98 L0.5 -25.98"/><path style="fill:none;" d="M29.5 25.98 L30 25.98 L30.25 25.547"/><path style="fill:none;" d="M29.5 -25.98 L30 -25.98 L30.25 -25.547"/><path style="fill:none;" d="M44.75 0.433 L45 0 L45.5 0"/><path style="fill:rgb(0,5,255); stroke:none;" d="M-41.6484 4.1562 L-42.7891 4.1562 L-47.4766 -3.0312 L-47.5234 -3.0312 Q-47.4297 -1.7656 -47.4297 -0.7188 L-47.4297 4.1562 L-48.3516 4.1562 L-48.3516 -4.4062 L-47.2266 -4.4062 L-42.5547 2.75 L-42.5078 2.75 Q-42.5078 2.5938 -42.5547 1.7344 Q-42.6016 0.875 -42.5859 0.5 L-42.5859 -4.4062 L-41.6484 -4.4062 L-41.6484 4.1562 Z"/><path style="fill:none;" d="M-59.75 -25.547 L-60 -25.98 L-60.5 -25.98"/><path style="fill:none;" d="M-59.75 25.547 L-60 25.98 L-60.5 25.98"/><path style="fill:none;" d="M-89.5 -25.98 L-90 -25.98 L-90.25 -25.547"/><path style="fill:none;" d="M-89.5 25.98 L-90 25.98 L-90.25 25.547"/><path style="fill:rgb(230,0,0); stroke:none;" d="M-101.0625 -0.0703 Q-101.0625 1.9922 -102.1016 3.1719 Q-103.1406 4.3516 -104.9844 4.3516 Q-106.875 4.3516 -107.9062 3.1875 Q-108.9375 2.0234 -108.9375 -0.0859 Q-108.9375 -2.1797 -107.9062 -3.3281 Q-106.875 -4.4766 -104.9844 -4.4766 Q-103.125 -4.4766 -102.0938 -3.3047 Q-101.0625 -2.1328 -101.0625 -0.0703 ZM-107.8906 -0.0703 Q-107.8906 1.6641 -107.1484 2.5703 Q-106.4062 3.4766 -104.9844 3.4766 Q-103.5625 3.4766 -102.8359 2.5781 Q-102.1094 1.6797 -102.1094 -0.0703 Q-102.1094 -1.8047 -102.8359 -2.6953 Q-103.5625 -3.5859 -104.9844 -3.5859 Q-106.4062 -3.5859 -107.1484 -2.6875 Q-107.8906 -1.7891 -107.8906 -0.0703 Z"/></g></g></svg></svg></svg></svg>