<svg xmlns:ns0="http://www.w3.org/2000/svg" xmlns="http://www.w3.org/2000/svg"><g transform="translate(0, 0)"><ns0:svg width="310" viewBox="0 0 310 193" style="fill-opacity:1; color-rendering:auto; color-interpolation:auto; text-rendering:auto; stroke:black; stroke-linecap:square; stroke-miterlimit:10; shape-rendering:auto; stroke-opacity:1; fill:black; stroke-dasharray:none; font-weight:normal; stroke-width:1; font-family:'Open Sans'; font-style:normal; stroke-linejoin:miter; font-size:12; stroke-dashoffset:0; image-rendering:auto;" height="193" class="cas-substance-image"><ns0:svg class="cas-substance-single-component"><ns0:rect y="0" x="0" width="310" stroke="none" ry="7" rx="7" height="193" fill="white" class="cas-substance-group" /><ns0:svg y="0" x="0" width="310" viewBox="0 0 310 193" style="fill:black;" height="193" class="cas-substance-single-component-image"><ns0:svg><ns0:g><ns0:g transform="translate(157,98)" style="text-rendering:geometricPrecision; color-rendering:optimizeQuality; color-interpolation:linearRGB; stroke-linecap:butt; image-rendering:optimizeQuality;"><ns0:line y2="-12.99" y1="-12.99" x2="15" x1="-9.6484" style="fill:none;" /><ns0:line y2="-38.97" y1="-19.1283" x2="-30" x1="-18.544" style="fill:none;" /><ns0:line y2="12.99" y1="-12.99" x2="30" x1="15" style="fill:none;" /><ns0:line y2="-38.97" y1="-12.99" x2="30" x1="15" style="fill:none;" /><ns0:line y2="12.99" y1="12.99" x2="60" x1="30" style="fill:none;" /><ns0:line y2="38.97" y1="12.99" x2="75" x1="60" style="fill:none;" /><ns0:line y2="38.97" y1="38.97" x2="99.6484" x1="75" style="fill:none;" /><ns0:line y2="12.99" y1="32.8317" x2="120" x1="108.544" style="fill:none;" /><ns0:line y2="64.953" y1="44.8583" x2="120" x1="108.3993" style="fill:none;" /><ns0:line y2="12.99" y1="12.99" x2="150" x1="120" style="fill:none;" /><ns0:line y2="90.933" y1="64.953" x2="105" x1="120" style="fill:none;" /><ns0:line y2="-38.97" y1="-38.97" x2="-120" x1="-143.582" style="fill:none;" /><ns0:line y2="-64.953" y1="-38.97" x2="-75" x1="-60" style="fill:none;" /><ns0:line y2="-61.4531" y1="-38.9702" x2="-77.0209" x1="-64.0415" style="fill:none;" /><ns0:line y2="-38.97" y1="-38.97" x2="-30" x1="-60" style="fill:none;" /><ns0:line y2="-12.99" y1="-38.97" x2="-75" x1="-60" style="fill:none;" /><ns0:line y2="-85.0447" y1="-64.953" x2="-63.3997" x1="-75" style="fill:none;" /><ns0:line y2="-64.953" y1="-64.953" x2="-105" x1="-75" style="fill:none;" /><ns0:line y2="-64.953" y1="-38.97" x2="-15" x1="-30" style="fill:none;" /><ns0:line y2="-64.9529" y1="-42.4699" x2="-19.0415" x1="-32.0209" style="fill:none;" /><ns0:line y2="-12.99" y1="-12.99" x2="-105" x1="-75" style="fill:none;" /><ns0:line y2="-16.49" y1="-16.49" x2="-102.9793" x1="-77.0207" style="fill:none;" /><ns0:line y2="-90.933" y1="-90.933" x2="-30" x1="-54.6484" style="fill:none;" /><ns0:line y2="-87.433" y1="-87.433" x2="-32.0207" x1="-54.6484" style="fill:none;" /><ns0:line y2="-38.97" y1="-64.953" x2="-120" x1="-105" style="fill:none;" /><ns0:line y2="-38.9702" y1="-61.4531" x2="-115.9585" x1="-102.9791" style="fill:none;" /><ns0:line y2="-90.933" y1="-64.953" x2="-30" x1="-15" style="fill:none;" /><ns0:line y2="-38.97" y1="-12.99" x2="-120" x1="-105" style="fill:none;" /></ns0:g><ns0:g transform="translate(157,98)" style="fill:rgb(0,5,255); text-rendering:geometricPrecision; color-rendering:optimizeQuality; image-rendering:optimizeQuality; font-family:'Open Sans'; stroke:rgb(0,5,255); color-interpolation:linearRGB;"><ns0:path style="stroke:none;" d="M-11.6484 -8.8337 L-12.7891 -8.8337 L-17.4766 -16.0212 L-17.5234 -16.0212 Q-17.4297 -14.7556 -17.4297 -13.7087 L-17.4297 -8.8337 L-18.3516 -8.8337 L-18.3516 -17.3962 L-17.2266 -17.3962 L-12.5547 -10.24 L-12.5078 -10.24 Q-12.5078 -10.3962 -12.5547 -11.2556 Q-12.6016 -12.115 -12.5859 -12.49 L-12.5859 -17.3962 L-11.6484 -17.3962 L-11.6484 -8.8337 Z" /><ns0:path style="stroke:none;" d="M-11.7422 0.7288 L-12.7422 0.7288 L-12.7422 -3.3025 L-17.2578 -3.3025 L-17.2578 0.7288 L-18.2578 0.7288 L-18.2578 -7.8337 L-17.2578 -7.8337 L-17.2578 -4.1931 L-12.7422 -4.1931 L-12.7422 -7.8337 L-11.7422 -7.8337 L-11.7422 0.7288 Z" /></ns0:g><ns0:g transform="translate(157,98)" style="stroke-linecap:butt; text-rendering:geometricPrecision; color-rendering:optimizeQuality; image-rendering:optimizeQuality; font-family:'Open Sans'; color-interpolation:linearRGB; stroke-miterlimit:5;"><ns0:path style="fill:none;" d="M29.75 12.557 L30 12.99 L30.5 12.99" /><ns0:path style="fill:none;" d="M59.5 12.99 L60 12.99 L60.25 13.423" /><ns0:path style="fill:none;" d="M74.75 38.537 L75 38.97 L75.5 38.97" /><ns0:path style="fill:rgb(0,5,255); stroke:none;" d="M108.3516 43.1263 L107.2109 43.1263 L102.5234 35.9388 L102.4766 35.9388 Q102.5703 37.2044 102.5703 38.2513 L102.5703 43.1263 L101.6484 43.1263 L101.6484 34.5638 L102.7734 34.5638 L107.4453 41.72 L107.4922 41.72 Q107.4922 41.5638 107.4453 40.7044 Q107.3984 39.845 107.4141 39.47 L107.4141 34.5638 L108.3516 34.5638 L108.3516 43.1263 Z" /><ns0:path style="fill:none;" d="M119.75 13.423 L120 12.99 L120.5 12.99" /><ns0:path style="fill:none;" d="M119.75 64.52 L120 64.953 L119.75 65.386" /><ns0:path style="fill:rgb(0,138,0); stroke:none;" d="M-150.3086 -42.3294 Q-151.7148 -42.3294 -152.5352 -41.3919 Q-153.3555 -40.4544 -153.3555 -38.8138 Q-153.3555 -37.1419 -152.5664 -36.22 Q-151.7773 -35.2981 -150.3242 -35.2981 Q-149.418 -35.2981 -148.2773 -35.6263 L-148.2773 -34.7513 Q-149.168 -34.4075 -150.4648 -34.4075 Q-152.3555 -34.4075 -153.3867 -35.5638 Q-154.418 -36.72 -154.418 -38.8294 Q-154.418 -40.1575 -153.9258 -41.1497 Q-153.4336 -42.1419 -152.4961 -42.6809 Q-151.5586 -43.22 -150.293 -43.22 Q-148.9492 -43.22 -147.9336 -42.7356 L-148.3555 -41.8763 Q-149.3398 -42.3294 -150.3086 -42.3294 ZM-145.582 -34.5325 L-146.5508 -34.5325 L-146.5508 -43.6575 L-145.582 -43.6575 L-145.582 -34.5325 Z" /><ns0:path style="fill:none;" d="M-60.25 -39.403 L-60 -38.97 L-60.25 -38.537" /><ns0:path style="fill:none;" d="M-74.75 -64.52 L-75 -64.953 L-74.75 -65.386" /><ns0:path style="fill:none;" d="M-29.75 -39.403 L-30 -38.97 L-30.5 -38.97" /><ns0:path style="fill:none;" d="M-74.75 -13.423 L-75 -12.99 L-75.5 -12.99" /><ns0:path style="fill:rgb(0,5,255); stroke:none;" d="M-56.6484 -86.7767 L-57.7891 -86.7767 L-62.4766 -93.9642 L-62.5234 -93.9642 Q-62.4297 -92.6986 -62.4297 -91.6517 L-62.4297 -86.7767 L-63.3516 -86.7767 L-63.3516 -95.3392 L-62.2266 -95.3392 L-57.5547 -88.183 L-57.5078 -88.183 Q-57.5078 -88.3392 -57.5547 -89.1986 Q-57.6016 -90.058 -57.5859 -90.433 L-57.5859 -95.3392 L-56.6484 -95.3392 L-56.6484 -86.7767 Z" /><ns0:path style="fill:none;" d="M-104.5 -64.953 L-105 -64.953 L-105.25 -64.52" /><ns0:path style="fill:none;" d="M-15.25 -64.52 L-15 -64.953 L-15.25 -65.386" /><ns0:path style="fill:none;" d="M-104.5 -12.99 L-105 -12.99 L-105.25 -13.423" /><ns0:path style="fill:none;" d="M-30.5 -90.933 L-30 -90.933 L-29.75 -90.5" /><ns0:path style="fill:none;" d="M-119.75 -39.403 L-120 -38.97 L-120.5 -38.97" /></ns0:g></ns0:g></ns0:svg></ns0:svg></ns0:svg></ns0:svg></g><g transform="translate(310, 0)"><ns0:svg width="100" viewBox="0 0 100 75" style="fill-opacity:1; color-rendering:auto; color-interpolation:auto; text-rendering:auto; stroke:black; stroke-linecap:square; stroke-miterlimit:10; shape-rendering:auto; stroke-opacity:1; fill:black; stroke-dasharray:none; font-weight:normal; stroke-width:1; font-family:'Open Sans'; font-style:normal; stroke-linejoin:miter; font-size:12; stroke-dashoffset:0; image-rendering:auto;" height="75" class="cas-substance-image"><ns0:svg class="cas-substance-single-component"><ns0:rect y="0" x="0" width="100" stroke="none" ry="7" rx="7" height="75" fill="white" class="cas-substance-group" /><ns0:svg y="0" x="9" width="81" viewBox="0 0 81 75" style="fill:black;" height="75" class="cas-substance-single-component-image"><ns0:svg><ns0:g><ns0:g transform="translate(37,37)" style="text-rendering:geometricPrecision; color-rendering:optimizeQuality; color-interpolation:linearRGB; stroke-linecap:butt; image-rendering:optimizeQuality;"><ns0:line y2="-1.75" y1="-1.75" x2="-24.0625" x1="-4.7188" style="fill:none;" /><ns0:line y2="1.75" y1="1.75" x2="-24.0625" x1="-4.7188" style="fill:none;" /><ns0:line y2="0" y1="0" x2="24.0625" x1="4.1513" style="fill:none;" /><ns0:line y2="23.5234" y1="4.3104" x2="0" x1="0" style="fill:none;" /><ns0:line y2="-23.6484" y1="-6.4062" x2="0" x1="0" style="fill:none;" /></ns0:g><ns0:g transform="translate(37,37)" style="fill:rgb(111,5,255); text-rendering:geometricPrecision; color-rendering:optimizeQuality; image-rendering:optimizeQuality; font-family:'Open Sans'; stroke:rgb(111,5,255); color-interpolation:linearRGB;"><ns0:path style="stroke:none;" d="M2.7188 -1.9219 Q2.7188 -0.6094 1.8281 0.0859 Q0.9375 0.7812 -0.7031 0.7812 L-1.7188 0.7812 L-1.7188 4.1562 L-2.7188 4.1562 L-2.7188 -4.4062 L-0.4844 -4.4062 Q2.7188 -4.4062 2.7188 -1.9219 ZM-1.7188 -0.0625 L-0.8125 -0.0625 Q0.5 -0.0625 1.0938 -0.4922 Q1.6875 -0.9219 1.6875 -1.875 Q1.6875 -2.7188 1.1328 -3.1328 Q0.5781 -3.5469 -0.6094 -3.5469 L-1.7188 -3.5469 L-1.7188 -0.0625 Z" /><ns0:path style="fill:rgb(230,0,0); stroke:none;" d="M-26.0625 -0.0703 Q-26.0625 1.9922 -27.1016 3.1719 Q-28.1406 4.3516 -29.9844 4.3516 Q-31.875 4.3516 -32.9062 3.1875 Q-33.9375 2.0234 -33.9375 -0.0859 Q-33.9375 -2.1797 -32.9062 -3.3281 Q-31.875 -4.4766 -29.9844 -4.4766 Q-28.125 -4.4766 -27.0938 -3.3047 Q-26.0625 -2.1328 -26.0625 -0.0703 ZM-32.8906 -0.0703 Q-32.8906 1.6641 -32.1484 2.5703 Q-31.4062 3.4766 -29.9844 3.4766 Q-28.5625 3.4766 -27.8359 2.5781 Q-27.1094 1.6797 -27.1094 -0.0703 Q-27.1094 -1.8047 -27.8359 -2.6953 Q-28.5625 -3.5859 -29.9844 -3.5859 Q-31.4062 -3.5859 -32.1484 -2.6875 Q-32.8906 -1.7891 -32.8906 -0.0703 Z" /><ns0:path style="fill:rgb(230,0,0); stroke:none;" d="M33.9375 -0.0703 Q33.9375 1.9922 32.8984 3.1719 Q31.8594 4.3516 30.0156 4.3516 Q28.125 4.3516 27.0938 3.1875 Q26.0625 2.0234 26.0625 -0.0859 Q26.0625 -2.1797 27.0938 -3.3281 Q28.125 -4.4766 30.0156 -4.4766 Q31.875 -4.4766 32.9062 -3.3047 Q33.9375 -2.1328 33.9375 -0.0703 ZM27.1094 -0.0703 Q27.1094 1.6641 27.8516 2.5703 Q28.5938 3.4766 30.0156 3.4766 Q31.4375 3.4766 32.1641 2.5781 Q32.8906 1.6797 32.8906 -0.0703 Q32.8906 -1.8047 32.1641 -2.6953 Q31.4375 -3.5859 30.0156 -3.5859 Q28.5938 -3.5859 27.8516 -2.6875 Q27.1094 -1.7891 27.1094 -0.0703 Z" /><ns0:path style="fill:rgb(230,0,0); stroke:none;" d="M41.4531 4.2266 L40.4531 4.2266 L40.4531 0.1953 L35.9375 0.1953 L35.9375 4.2266 L34.9375 4.2266 L34.9375 -4.3359 L35.9375 -4.3359 L35.9375 -0.6953 L40.4531 -0.6953 L40.4531 -4.3359 L41.4531 -4.3359 L41.4531 4.2266 Z" /><ns0:path style="fill:rgb(230,0,0); stroke:none;" d="M3.9375 29.9297 Q3.9375 31.9922 2.8984 33.1719 Q1.8594 34.3516 0.0156 34.3516 Q-1.875 34.3516 -2.9062 33.1875 Q-3.9375 32.0234 -3.9375 29.9141 Q-3.9375 27.8203 -2.9062 26.6719 Q-1.875 25.5234 0.0156 25.5234 Q1.875 25.5234 2.9062 26.6953 Q3.9375 27.8672 3.9375 29.9297 ZM-2.8906 29.9297 Q-2.8906 31.6641 -2.1484 32.5703 Q-1.4062 33.4766 0.0156 33.4766 Q1.4375 33.4766 2.1641 32.5781 Q2.8906 31.6797 2.8906 29.9297 Q2.8906 28.1953 2.1641 27.3047 Q1.4375 26.4141 0.0156 26.4141 Q-1.4062 26.4141 -2.1484 27.3125 Q-2.8906 28.2109 -2.8906 29.9297 Z" /><ns0:path style="fill:rgb(230,0,0); stroke:none;" d="M11.4531 34.2266 L10.4531 34.2266 L10.4531 30.1953 L5.9375 30.1953 L5.9375 34.2266 L4.9375 34.2266 L4.9375 25.6641 L5.9375 25.6641 L5.9375 29.3047 L10.4531 29.3047 L10.4531 25.6641 L11.4531 25.6641 L11.4531 34.2266 Z" /><ns0:path style="fill:rgb(230,0,0); stroke:none;" d="M3.9375 -30.0703 Q3.9375 -28.0078 2.8984 -26.8281 Q1.8594 -25.6484 0.0156 -25.6484 Q-1.875 -25.6484 -2.9062 -26.8125 Q-3.9375 -27.9766 -3.9375 -30.0859 Q-3.9375 -32.1797 -2.9062 -33.3281 Q-1.875 -34.4766 0.0156 -34.4766 Q1.875 -34.4766 2.9062 -33.3047 Q3.9375 -32.1328 3.9375 -30.0703 ZM-2.8906 -30.0703 Q-2.8906 -28.3359 -2.1484 -27.4297 Q-1.4062 -26.5234 0.0156 -26.5234 Q1.4375 -26.5234 2.1641 -27.4219 Q2.8906 -28.3203 2.8906 -30.0703 Q2.8906 -31.8047 2.1641 -32.6953 Q1.4375 -33.5859 0.0156 -33.5859 Q-1.4062 -33.5859 -2.1484 -32.6875 Q-2.8906 -31.7891 -2.8906 -30.0703 Z" /><ns0:path style="fill:rgb(230,0,0); stroke:none;" d="M11.4531 -25.7734 L10.4531 -25.7734 L10.4531 -29.8047 L5.9375 -29.8047 L5.9375 -25.7734 L4.9375 -25.7734 L4.9375 -34.3359 L5.9375 -34.3359 L5.9375 -30.6953 L10.4531 -30.6953 L10.4531 -34.3359 L11.4531 -34.3359 L11.4531 -25.7734 Z" /></ns0:g></ns0:g></ns0:svg></ns0:svg></ns0:svg></ns0:svg></g></svg>