<svg width="347" viewBox="0 0 347 71" style="fill-opacity:1; color-rendering:auto; color-interpolation:auto; text-rendering:auto; stroke:black; stroke-linecap:square; stroke-miterlimit:10; shape-rendering:auto; stroke-opacity:1; fill:black; stroke-dasharray:none; font-weight:normal; stroke-width:1; font-family:'Open Sans'; font-style:normal; stroke-linejoin:miter; font-size:12; stroke-dashoffset:0; image-rendering:auto;" height="71" class="cas-substance-image" xmlns:xlink="http://www.w3.org/1999/xlink" xmlns="http://www.w3.org/2000/svg"><svg class="cas-substance-single-component"><rect y="0" x="0" width="347" stroke="none" ry="7" rx="7" height="71" fill="white" class="cas-substance-group"/><svg y="0" x="0" width="347" viewBox="0 0 347 71" style="fill:black;" height="71" class="cas-substance-single-component-image"><svg><g><g transform="translate(175,37)" style="text-rendering:geometricPrecision; color-rendering:optimizeQuality; color-interpolation:linearRGB; stroke-linecap:butt; image-rendering:optimizeQuality;"><line y2="-15" y1="-26.8214" x2="-12.99" x1="-33.4646" style="fill:none;"/><line y2="-15" y1="-26.8114" x2="-64.953" x1="-44.4932" style="fill:none;"/><line y2="-30" y1="-15" x2="12.99" x1="-12.99" style="fill:none;"/><line y2="-15" y1="-30" x2="38.97" x1="12.99" style="fill:none;"/><line y2="-30" y1="-15" x2="64.953" x1="38.97" style="fill:none;"/><line y2="-15" y1="-30" x2="90.933" x1="64.953" style="fill:none;"/><line y2="-30" y1="-15" x2="116.913" x1="90.933" style="fill:none;"/><line y2="-15" y1="-30" x2="142.893" x1="116.913" style="fill:none;"/><line y2="-30" y1="-15" x2="168.876" x1="142.893" style="fill:none;"/><line y2="18.1784" y1="30" x2="-163.3705" x1="-142.893" style="fill:none;"/><line y2="15.1472" y1="25.9585" x2="-161.6206" x1="-142.8931" style="fill:none;"/><line y2="15" y1="30" x2="-116.913" x1="-142.893" style="fill:none;"/><line y2="-30" y1="-15" x2="-90.933" x1="-64.953" style="fill:none;"/><line y2="-25.9585" y1="-12.9793" x2="-90.9331" x1="-68.453" style="fill:none;"/><line y2="15" y1="-15" x2="-64.953" x1="-64.953" style="fill:none;"/><line y2="-15" y1="-30" x2="-116.913" x1="-90.933" style="fill:none;"/><line y2="30" y1="15" x2="-90.933" x1="-64.953" style="fill:none;"/><line y2="25.9585" y1="12.9793" x2="-90.9331" x1="-68.453" style="fill:none;"/><line y2="15" y1="-15" x2="-116.913" x1="-116.913" style="fill:none;"/><line y2="12.9793" y1="-12.9793" x2="-113.413" x1="-113.413" style="fill:none;"/><line y2="15" y1="30" x2="-116.913" x1="-90.933" style="fill:none;"/></g><g transform="translate(175,37)" style="fill:rgb(230,0,0); text-rendering:geometricPrecision; color-rendering:optimizeQuality; image-rendering:optimizeQuality; font-family:'Open Sans'; stroke:rgb(230,0,0); color-interpolation:linearRGB;"><path style="stroke:none;" d="M-35.0325 -30.0703 Q-35.0325 -28.0078 -36.0716 -26.8281 Q-37.1106 -25.6484 -38.9544 -25.6484 Q-40.845 -25.6484 -41.8763 -26.8125 Q-42.9075 -27.9766 -42.9075 -30.0859 Q-42.9075 -32.1797 -41.8763 -33.3281 Q-40.845 -34.4766 -38.9544 -34.4766 Q-37.095 -34.4766 -36.0638 -33.3047 Q-35.0325 -32.1328 -35.0325 -30.0703 ZM-41.8606 -30.0703 Q-41.8606 -28.3359 -41.1184 -27.4297 Q-40.3763 -26.5234 -38.9544 -26.5234 Q-37.5325 -26.5234 -36.8059 -27.4219 Q-36.0794 -28.3203 -36.0794 -30.0703 Q-36.0794 -31.8047 -36.8059 -32.6953 Q-37.5325 -33.5859 -38.9544 -33.5859 Q-40.3763 -33.5859 -41.1184 -32.6875 Q-41.8606 -31.7891 -41.8606 -30.0703 Z"/></g><g transform="translate(175,37)" style="stroke-linecap:butt; text-rendering:geometricPrecision; color-rendering:optimizeQuality; image-rendering:optimizeQuality; font-family:'Open Sans'; color-interpolation:linearRGB; stroke-miterlimit:5;"><path style="fill:none;" d="M-13.423 -15.25 L-12.99 -15 L-12.557 -15.25"/><path style="fill:none;" d="M12.557 -29.75 L12.99 -30 L13.423 -29.75"/><path style="fill:none;" d="M38.537 -15.25 L38.97 -15 L39.403 -15.25"/><path style="fill:none;" d="M64.52 -29.75 L64.953 -30 L65.386 -29.75"/><path style="fill:none;" d="M90.5 -15.25 L90.933 -15 L91.366 -15.25"/><path style="fill:none;" d="M116.48 -29.75 L116.913 -30 L117.346 -29.75"/><path style="fill:none;" d="M142.46 -15.25 L142.893 -15 L143.326 -15.25"/><path style="fill:none;" d="M-143.326 29.75 L-142.893 30 L-142.46 29.75"/><path transform="translate(0.8749,-1.5156)" style="fill:rgb(230,0,0); stroke:none;" d="M-164.9385 14.9297 Q-164.9385 16.9922 -165.9776 18.1719 Q-167.0166 19.3516 -168.8604 19.3516 Q-170.751 19.3516 -171.7823 18.1875 Q-172.8135 17.0234 -172.8135 14.9141 Q-172.8135 12.8203 -171.7823 11.6719 Q-170.751 10.5234 -168.8604 10.5234 Q-167.001 10.5234 -165.9698 11.6953 Q-164.9385 12.8672 -164.9385 14.9297 ZM-171.7666 14.9297 Q-171.7666 16.6641 -171.0244 17.5703 Q-170.2823 18.4766 -168.8604 18.4766 Q-167.4385 18.4766 -166.7119 17.5781 Q-165.9854 16.6797 -165.9854 14.9297 Q-165.9854 13.1953 -166.7119 12.3047 Q-167.4385 11.4141 -168.8604 11.4141 Q-170.2823 11.4141 -171.0244 12.3125 Q-171.7666 13.2109 -171.7666 14.9297 Z"/></g><g transform="matrix(1,0,0,1,175,37)" style="stroke-linecap:butt; text-rendering:geometricPrecision; color-rendering:optimizeQuality; image-rendering:optimizeQuality; font-family:'Open Sans'; color-interpolation:linearRGB; stroke-miterlimit:5;"><path style="fill:none;" d="M-65.386 -15.25 L-64.953 -15 L-64.52 -15.25"/><path style="fill:none;" d="M-90.5 -29.75 L-90.933 -30 L-91.366 -29.75"/><path style="fill:none;" d="M-64.953 14.5 L-64.953 15 L-65.386 15.25"/><path style="fill:none;" d="M-116.48 -15.25 L-116.913 -15 L-116.913 -14.5"/><path style="fill:none;" d="M-90.5 29.75 L-90.933 30 L-91.366 29.75"/><path style="fill:none;" d="M-116.913 14.5 L-116.913 15 L-117.346 15.25"/></g></g></svg></svg></svg></svg>