<svg xmlns:ns0="http://www.w3.org/2000/svg" xmlns="http://www.w3.org/2000/svg"><g transform="translate(0, 0)"><ns0:svg width="281" viewBox="0 0 281 149" style="fill-opacity:1; color-rendering:auto; color-interpolation:auto; text-rendering:auto; stroke:black; stroke-linecap:square; stroke-miterlimit:10; shape-rendering:auto; stroke-opacity:1; fill:black; stroke-dasharray:none; font-weight:normal; stroke-width:1; font-family:'Open Sans'; font-style:normal; stroke-linejoin:miter; font-size:12; stroke-dashoffset:0; image-rendering:auto;" height="149" class="cas-substance-image"><ns0:svg class="cas-substance-single-component"><ns0:rect y="0" x="0" width="281" stroke="none" ry="7" rx="7" height="149" fill="white" class="cas-substance-group" /><ns0:svg y="0" x="0" width="281" viewBox="0 0 281 149" style="fill:black;" height="149" class="cas-substance-single-component-image"><ns0:svg><ns0:g><ns0:g transform="translate(146,77)" style="text-rendering:geometricPrecision; color-rendering:optimizeQuality; color-interpolation:linearRGB; stroke-linecap:butt; image-rendering:optimizeQuality;"><ns0:line y2="-62.504" y1="-41.297" x2="1.4196" x1="-10.8246" style="fill:none;" /><ns0:line y2="-64.2541" y1="-43.047" x2="-1.6115" x1="-13.8557" style="fill:none;" /><ns0:line y2="-17.067" y1="-43.047" x2="3.165" x1="-11.835" style="fill:none;" /><ns0:line y2="-43.047" y1="-43.047" x2="-41.835" x1="-11.835" style="fill:none;" /><ns0:line y2="-29.988" y1="-36.225" x2="82.419" x1="53.073" style="fill:none;" /><ns0:line y2="-13.932" y1="-36.225" x2="33" x1="53.073" style="fill:none;" /><ns0:line y2="-52.281" y1="-29.988" x2="102.492" x1="82.419" style="fill:none;" /><ns0:line y2="-46.044" y1="-52.281" x2="131.835" x1="102.492" style="fill:none;" /><ns0:line y2="-43.047" y1="-43.047" x2="-101.835" x1="-125.8975" style="fill:none;" /><ns0:line y2="10.341" y1="-17.067" x2="-9.039" x1="3.165" style="fill:none;" /><ns0:line y2="-13.932" y1="-17.067" x2="33" x1="3.165" style="fill:none;" /><ns0:line y2="-10.6623" y1="-13.375" x2="30.6246" x1="4.8089" style="fill:none;" /><ns0:line y2="30.414" y1="10.341" x2="13.257" x1="-9.039" style="fill:none;" /><ns0:line y2="19.611" y1="10.341" x2="-37.569" x1="-9.039" style="fill:none;" /><ns0:line y2="22.3153" y1="14.2941" x2="-34.5656" x1="-9.8793" style="fill:none;" /><ns0:line y2="8.9811" y1="-13.932" x2="37.8698" x1="33" style="fill:none;" /><ns0:line y2="18.6028" y1="30.414" x2="33.714" x1="13.257" style="fill:none;" /><ns0:line y2="59.757" y1="30.414" x2="7.02" x1="13.257" style="fill:none;" /><ns0:line y2="57.0527" y1="31.6629" x2="4.0166" x1="9.4134" style="fill:none;" /><ns0:line y2="48.954" y1="19.611" x2="-43.806" x1="-37.569" style="fill:none;" /><ns0:line y2="69.027" y1="59.757" x2="-21.513" x1="7.02" style="fill:none;" /><ns0:line y2="69.027" y1="48.954" x2="-21.513" x1="-43.806" style="fill:none;" /><ns0:line y2="65.0739" y1="47.7052" x2="-20.6727" x1="-39.9623" style="fill:none;" /><ns0:line y2="-69.027" y1="-43.047" x2="-56.835" x1="-41.835" style="fill:none;" /><ns0:line y2="-65.527" y1="-43.047" x2="-58.8557" x1="-45.8764" style="fill:none;" /><ns0:line y2="-17.067" y1="-43.047" x2="-56.835" x1="-41.835" style="fill:none;" /><ns0:line y2="-69.027" y1="-69.027" x2="-86.835" x1="-56.835" style="fill:none;" /><ns0:line y2="-17.067" y1="-17.067" x2="-86.835" x1="-56.835" style="fill:none;" /><ns0:line y2="-20.567" y1="-20.567" x2="-84.8143" x1="-58.8557" style="fill:none;" /><ns0:line y2="-43.047" y1="-69.027" x2="-101.835" x1="-86.835" style="fill:none;" /><ns0:line y2="-43.047" y1="-65.527" x2="-97.7935" x1="-84.8143" style="fill:none;" /><ns0:line y2="-43.047" y1="-17.067" x2="-101.835" x1="-86.835" style="fill:none;" /><ns0:path style="fill:none; stroke-miterlimit:5;" d="M-11.585 -42.614 L-11.835 -43.047 L-12.335 -43.047" /></ns0:g><ns0:g transform="translate(146,77)" style="stroke-linecap:butt; fill:rgb(230,0,0); text-rendering:geometricPrecision; color-rendering:optimizeQuality; image-rendering:optimizeQuality; font-family:'Open Sans'; stroke:rgb(230,0,0); color-interpolation:linearRGB; stroke-miterlimit:5;"><ns0:path style="stroke:none;" d="M7.1025 -69.0973 Q7.1025 -67.0348 6.0634 -65.8551 Q5.0244 -64.6754 3.1806 -64.6754 Q1.29 -64.6754 0.2587 -65.8395 Q-0.7725 -67.0036 -0.7725 -69.1129 Q-0.7725 -71.2067 0.2587 -72.3551 Q1.29 -73.5036 3.1806 -73.5036 Q5.04 -73.5036 6.0712 -72.3317 Q7.1025 -71.1598 7.1025 -69.0973 ZM0.2744 -69.0973 Q0.2744 -67.3629 1.0166 -66.4567 Q1.7587 -65.5504 3.1806 -65.5504 Q4.6025 -65.5504 5.3291 -66.4489 Q6.0556 -67.3473 6.0556 -69.0973 Q6.0556 -70.8317 5.3291 -71.7223 Q4.6025 -72.6129 3.1806 -72.6129 Q1.7587 -72.6129 1.0166 -71.7145 Q0.2744 -70.8161 0.2744 -69.0973 Z" /><ns0:path style="fill:none; stroke:black;" d="M53.5621 -36.1211 L53.073 -36.225 L52.7384 -35.8534" /><ns0:path style="fill:none; stroke:black;" d="M81.9299 -30.0919 L82.419 -29.988 L82.7536 -30.3596" /><ns0:path style="fill:none; stroke:black;" d="M102.1574 -51.9094 L102.492 -52.281 L102.9811 -52.177" /><ns0:path style="stroke:none;" d="M-127.8975 -43.1173 Q-127.8975 -41.0548 -128.9366 -39.8751 Q-129.9756 -38.6954 -131.8194 -38.6954 Q-133.71 -38.6954 -134.7412 -39.8595 Q-135.7725 -41.0236 -135.7725 -43.1329 Q-135.7725 -45.2267 -134.7412 -46.3751 Q-133.71 -47.5236 -131.8194 -47.5236 Q-129.96 -47.5236 -128.9287 -46.3517 Q-127.8975 -45.1798 -127.8975 -43.1173 ZM-134.7256 -43.1173 Q-134.7256 -41.3829 -133.9834 -40.4767 Q-133.2412 -39.5704 -131.8194 -39.5704 Q-130.3975 -39.5704 -129.6709 -40.4689 Q-128.9444 -41.3673 -128.9444 -43.1173 Q-128.9444 -44.8517 -129.6709 -45.7423 Q-130.3975 -46.6329 -131.8194 -46.6329 Q-133.2412 -46.6329 -133.9834 -45.7345 Q-134.7256 -44.8361 -134.7256 -43.1173 Z" /><ns0:path style="stroke:none;" d="M-136.7725 -38.8204 L-137.7725 -38.8204 L-137.7725 -42.8517 L-142.2881 -42.8517 L-142.2881 -38.8204 L-143.2881 -38.8204 L-143.2881 -47.3829 L-142.2881 -47.3829 L-142.2881 -43.7423 L-137.7725 -43.7423 L-137.7725 -47.3829 L-136.7725 -47.3829 L-136.7725 -38.8204 Z" /><ns0:path style="fill:none; stroke:black;" d="M3.6623 -17.0147 L3.165 -17.067 L2.915 -17.5" /><ns0:path style="fill:none; stroke:black;" d="M-9.5145 10.4955 L-9.039 10.341 L-8.8356 9.8842" /><ns0:path style="fill:none; stroke:black;" d="M32.5027 -13.9843 L33 -13.932 L33.1039 -13.4429" /><ns0:path style="fill:none; stroke:black;" d="M13.153 30.9031 L13.257 30.414 L12.8854 30.0795" /><ns0:path style="fill:none; stroke:black;" d="M-37.0935 19.4565 L-37.569 19.611 L-37.673 20.1001" /><ns0:path style="stroke:none;" d="M43.1745 15.3437 Q43.1745 17.4062 42.1354 18.5859 Q41.0964 19.7656 39.2526 19.7656 Q37.362 19.7656 36.3307 18.6015 Q35.2995 17.4374 35.2995 15.3281 Q35.2995 13.2343 36.3307 12.0859 Q37.362 10.9374 39.2526 10.9374 Q41.112 10.9374 42.1432 12.1093 Q43.1745 13.2812 43.1745 15.3437 ZM36.3464 15.3437 Q36.3464 17.0781 37.0886 17.9843 Q37.8307 18.8906 39.2526 18.8906 Q40.6745 18.8906 41.4011 17.9921 Q42.1276 17.0937 42.1276 15.3437 Q42.1276 13.6093 41.4011 12.7187 Q40.6745 11.8281 39.2526 11.8281 Q37.8307 11.8281 37.0886 12.7265 Q36.3464 13.6249 36.3464 15.3437 Z" /><ns0:path style="fill:none; stroke:black;" d="M7.124 59.2679 L7.02 59.757 L6.5445 59.9115" /><ns0:path style="fill:none; stroke:black;" d="M-43.702 48.4649 L-43.806 48.954 L-43.4344 49.2886" /><ns0:path style="fill:none; stroke:black;" d="M-21.0375 68.8725 L-21.513 69.027 L-21.8846 68.6924" /><ns0:path style="fill:none; stroke:black;" d="M-42.085 -43.48 L-41.835 -43.047 L-42.085 -42.614" /><ns0:path style="fill:none; stroke:black;" d="M-56.585 -68.594 L-56.835 -69.027 L-57.335 -69.027" /><ns0:path style="fill:none; stroke:black;" d="M-56.585 -17.5 L-56.835 -17.067 L-57.335 -17.067" /><ns0:path style="fill:none; stroke:black;" d="M-86.335 -69.027 L-86.835 -69.027 L-87.085 -68.594" /><ns0:path style="fill:none; stroke:black;" d="M-86.335 -17.067 L-86.835 -17.067 L-87.085 -17.5" /><ns0:path style="fill:none; stroke:black;" d="M-101.585 -43.48 L-101.835 -43.047 L-102.335 -43.047" /></ns0:g></ns0:g></ns0:svg></ns0:svg></ns0:svg></ns0:svg></g></svg>