<svg xmlns:ns0="http://www.w3.org/2000/svg" xmlns="http://www.w3.org/2000/svg"><g transform="translate(0, 0)"><ns0:svg width="188" viewBox="0 0 188 157" style="fill-opacity:1; color-rendering:auto; color-interpolation:auto; text-rendering:auto; stroke:black; stroke-linecap:square; stroke-miterlimit:10; shape-rendering:auto; stroke-opacity:1; fill:black; stroke-dasharray:none; font-weight:normal; stroke-width:1; font-family:'Open Sans'; font-style:normal; stroke-linejoin:miter; font-size:12; stroke-dashoffset:0; image-rendering:auto;" height="157" class="cas-substance-image"><ns0:svg class="cas-substance-single-component"><ns0:rect y="0" x="0" width="188" stroke="none" ry="7" rx="7" height="157" fill="white" class="cas-substance-group" /><ns0:svg y="0" x="0" width="188" viewBox="0 0 188 157" style="fill:black;" height="157" class="cas-substance-single-component-image"><ns0:svg><ns0:g><ns0:g transform="translate(94,78)" style="text-rendering:geometricPrecision; color-rendering:optimizeQuality; color-interpolation:linearRGB; stroke-linecap:butt; image-rendering:optimizeQuality;"><ns0:line y2="-15" y1="-27.0652" x2="64.953" x1="44.0536" style="fill:none;" /><ns0:line y2="-15" y1="-27.0649" x2="12.99" x1="33.8864" style="fill:none;" /><ns0:line y2="-30" y1="-15" x2="90.933" x1="64.953" style="fill:none;" /><ns0:line y2="-60" y1="-36.4062" x2="-64.953" x1="-64.953" style="fill:none;" /><ns0:line y2="-15" y1="-27.0652" x2="-38.97" x1="-59.8694" style="fill:none;" /><ns0:line y2="-75" y1="-60" x2="-90.933" x1="-64.953" style="fill:none;" /><ns0:line y2="75" y1="62.5417" x2="-38.97" x1="-17.3922" style="fill:none;" /><ns0:line y2="30" y1="53.5312" x2="-12.99" x1="-12.99" style="fill:none;" /><ns0:line y2="-27.0649" y1="-15" x2="-7.9064" x1="12.99" style="fill:none;" /><ns0:line y2="8.5938" y1="-15" x2="12.99" x1="12.99" style="fill:none;" /><ns0:line y2="8.5938" y1="-12.9793" x2="9.49" x1="9.49" style="fill:none;" /><ns0:line y2="-15" y1="-27.0649" x2="-38.97" x1="-18.0736" style="fill:none;" /><ns0:line y2="-12.9793" y1="-24.0338" x2="-35.47" x1="-16.3236" style="fill:none;" /><ns0:line y2="30" y1="17.9351" x2="-12.99" x1="7.9064" style="fill:none;" /><ns0:line y2="8.5938" y1="-15" x2="-38.97" x1="-38.97" style="fill:none;" /><ns0:line y2="17.9351" y1="30" x2="-33.8864" x1="-12.99" style="fill:none;" /><ns0:line y2="14.904" y1="25.9585" x2="-32.1364" x1="-12.9899" style="fill:none;" /></ns0:g><ns0:g transform="translate(94,78)" style="fill:rgb(0,5,255); text-rendering:geometricPrecision; color-rendering:optimizeQuality; image-rendering:optimizeQuality; font-family:'Open Sans'; stroke:rgb(0,5,255); color-interpolation:linearRGB;"><ns0:path style="stroke:none;" d="M42.3216 -25.8438 L41.1809 -25.8438 L36.4934 -33.0312 L36.4466 -33.0312 Q36.5403 -31.7656 36.5403 -30.7188 L36.5403 -25.8438 L35.6184 -25.8438 L35.6184 -34.4062 L36.7434 -34.4062 L41.4153 -27.25 L41.4622 -27.25 Q41.4622 -27.4062 41.4153 -28.2656 Q41.3684 -29.125 41.3841 -29.5 L41.3841 -34.4062 L42.3216 -34.4062 L42.3216 -25.8438 Z" /><ns0:path style="stroke:none;" d="M42.2278 -35.4062 L41.2278 -35.4062 L41.2278 -39.4375 L36.7122 -39.4375 L36.7122 -35.4062 L35.7122 -35.4062 L35.7122 -43.9688 L36.7122 -43.9688 L36.7122 -40.3281 L41.2278 -40.3281 L41.2278 -43.9688 L42.2278 -43.9688 L42.2278 -35.4062 Z" /></ns0:g><ns0:g transform="translate(94,78)" style="stroke-linecap:butt; text-rendering:geometricPrecision; color-rendering:optimizeQuality; image-rendering:optimizeQuality; font-family:'Open Sans'; color-interpolation:linearRGB; stroke-miterlimit:5;"><ns0:path style="fill:none;" d="M64.52 -15.25 L64.953 -15 L65.386 -15.25" /><ns0:path style="fill:rgb(0,5,255); stroke:none;" d="M-61.6014 -25.8438 L-62.7421 -25.8438 L-67.4296 -33.0312 L-67.4764 -33.0312 Q-67.3827 -31.7656 -67.3827 -30.7188 L-67.3827 -25.8438 L-68.3046 -25.8438 L-68.3046 -34.4062 L-67.1796 -34.4062 L-62.5077 -27.25 L-62.4608 -27.25 Q-62.4608 -27.4062 -62.5077 -28.2656 Q-62.5546 -29.125 -62.5389 -29.5 L-62.5389 -34.4062 L-61.6014 -34.4062 L-61.6014 -25.8438 Z" /><ns0:path style="fill:rgb(0,5,255); stroke:none;" d="M-69.3046 -25.8438 L-70.3046 -25.8438 L-70.3046 -29.875 L-74.8202 -29.875 L-74.8202 -25.8438 L-75.8202 -25.8438 L-75.8202 -34.4062 L-74.8202 -34.4062 L-74.8202 -30.7656 L-70.3046 -30.7656 L-70.3046 -34.4062 L-69.3046 -34.4062 L-69.3046 -25.8438 Z" /><ns0:path style="fill:none;" d="M-64.953 -59.5 L-64.953 -60 L-65.386 -60.25" /><ns0:path style="fill:rgb(148,108,0); stroke:none;" d="M-10.2947 61.9375 Q-10.2947 63.0625 -11.115 63.7031 Q-11.9353 64.3438 -13.3416 64.3438 Q-14.8728 64.3438 -15.6853 63.9375 L-15.6853 62.9844 Q-15.1541 63.2031 -14.5369 63.3359 Q-13.9197 63.4688 -13.3103 63.4688 Q-12.3103 63.4688 -11.8103 63.0859 Q-11.3103 62.7031 -11.3103 62.0312 Q-11.3103 61.5938 -11.49 61.3047 Q-11.6697 61.0156 -12.0837 60.7734 Q-12.4978 60.5312 -13.3572 60.2344 Q-14.5447 59.8125 -15.0603 59.2266 Q-15.5759 58.6406 -15.5759 57.6875 Q-15.5759 56.7031 -14.8337 56.1172 Q-14.0916 55.5312 -12.8572 55.5312 Q-11.5916 55.5312 -10.5134 56 L-10.8259 56.8594 Q-11.8884 56.4219 -12.8884 56.4219 Q-13.6853 56.4219 -14.1306 56.7578 Q-14.5759 57.0938 -14.5759 57.7031 Q-14.5759 58.1406 -14.4119 58.4297 Q-14.2478 58.7188 -13.8572 58.9531 Q-13.4666 59.1875 -12.6541 59.4844 Q-11.3103 59.9531 -10.8025 60.5078 Q-10.2947 61.0625 -10.2947 61.9375 Z" /><ns0:path style="fill:none;" d="M12.99 -14.5 L12.99 -15 L13.423 -15.25" /><ns0:path style="fill:rgb(0,5,255); stroke:none;" d="M-9.6384 -25.8438 L-10.7791 -25.8438 L-15.4666 -33.0312 L-15.5134 -33.0312 Q-15.4197 -31.7656 -15.4197 -30.7188 L-15.4197 -25.8438 L-16.3416 -25.8438 L-16.3416 -34.4062 L-15.2166 -34.4062 L-10.5447 -27.25 L-10.4978 -27.25 Q-10.4978 -27.4062 -10.5447 -28.2656 Q-10.5916 -29.125 -10.5759 -29.5 L-10.5759 -34.4062 L-9.6384 -34.4062 L-9.6384 -25.8438 Z" /><ns0:path style="fill:rgb(0,5,255); stroke:none;" d="M16.3416 19.1562 L15.2009 19.1562 L10.5134 11.9688 L10.4666 11.9688 Q10.5603 13.2344 10.5603 14.2812 L10.5603 19.1562 L9.6384 19.1562 L9.6384 10.5938 L10.7634 10.5938 L15.4353 17.75 L15.4822 17.75 Q15.4822 17.5938 15.4353 16.7344 Q15.3884 15.875 15.4041 15.5 L15.4041 10.5938 L16.3416 10.5938 L16.3416 19.1562 Z" /><ns0:path style="fill:none;" d="M-38.537 -15.25 L-38.97 -15 L-38.97 -14.5" /><ns0:path style="fill:none;" d="M-13.423 29.75 L-12.99 30 L-12.557 29.75" /><ns0:path style="fill:rgb(0,5,255); stroke:none;" d="M-35.6184 19.1562 L-36.7591 19.1562 L-41.4466 11.9688 L-41.4934 11.9688 Q-41.3997 13.2344 -41.3997 14.2812 L-41.3997 19.1562 L-42.3216 19.1562 L-42.3216 10.5938 L-41.1966 10.5938 L-36.5247 17.75 L-36.4778 17.75 Q-36.4778 17.5938 -36.5247 16.7344 Q-36.5716 15.875 -36.5559 15.5 L-36.5559 10.5938 L-35.6184 10.5938 L-35.6184 19.1562 Z" /></ns0:g></ns0:g></ns0:svg></ns0:svg></ns0:svg></ns0:svg></g></svg>