<svg width="238" viewBox="0 0 238 68" style="fill-opacity:1; color-rendering:auto; color-interpolation:auto; text-rendering:auto; stroke:black; stroke-linecap:square; stroke-miterlimit:10; shape-rendering:auto; stroke-opacity:1; fill:black; stroke-dasharray:none; font-weight:normal; stroke-width:1; font-family:'Open Sans'; font-style:normal; stroke-linejoin:miter; font-size:12; stroke-dashoffset:0; image-rendering:auto;" height="68" class="cas-substance-image" xmlns:xlink="http://www.w3.org/1999/xlink" xmlns="http://www.w3.org/2000/svg"><svg class="cas-substance-single-component"><rect y="0" x="0" width="238" stroke="none" ry="7" rx="7" height="68" fill="white" class="cas-substance-group"/><svg y="0" x="0" width="238" viewBox="0 0 238 68" style="fill:black;" height="68" class="cas-substance-single-component-image"><svg><g><g transform="translate(114,33)" style="text-rendering:geometricPrecision; color-rendering:optimizeQuality; color-interpolation:linearRGB; stroke-linecap:butt; image-rendering:optimizeQuality;"><line y2="-19.6725" y1="-29.307" x2="103.1564" x1="81.516" style="fill:none;"/><line y2="-11.673" y1="-29.307" x2="57.243" x1="81.516" style="fill:none;"/><line y2="3.327" y1="3.327" x2="-78.921" x1="-104.7357" style="fill:none;"/><line y2="-20.943" y1="3.327" x2="28.713" x1="11.079" style="fill:none;"/><line y2="21.5727" y1="3.327" x2="24.3359" x1="11.079" style="fill:none;"/><line y2="19.5154" y1="2.9045" x2="27.1674" x1="15.0983" style="fill:none;"/><line y2="3.327" y1="3.327" x2="-18.921" x1="11.079" style="fill:none;"/><line y2="-11.673" y1="-20.943" x2="57.243" x1="28.713" style="fill:none;"/><line y2="-8.9687" y1="-16.9899" x2="54.2396" x1="29.5533" style="fill:none;"/><line y2="20.2244" y1="25.89" x2="51.4034" x1="33.9667" style="fill:none;"/><line y2="11.8504" y1="-11.673" x2="57.243" x1="57.243" style="fill:none;"/><line y2="-22.653" y1="3.327" x2="-33.921" x1="-18.921" style="fill:none;"/><line y2="-19.153" y1="3.3271" x2="-35.9417" x1="-22.9625" style="fill:none;"/><line y2="29.307" y1="3.327" x2="-33.921" x1="-18.921" style="fill:none;"/><line y2="-22.653" y1="-22.653" x2="-63.921" x1="-33.921" style="fill:none;"/><line y2="29.307" y1="29.307" x2="-63.921" x1="-33.921" style="fill:none;"/><line y2="25.807" y1="25.807" x2="-61.9003" x1="-35.9417" style="fill:none;"/><line y2="3.327" y1="-22.653" x2="-78.921" x1="-63.921" style="fill:none;"/><line y2="3.3271" y1="-19.153" x2="-74.8796" x1="-61.9003" style="fill:none;"/><line y2="3.327" y1="29.307" x2="-78.921" x1="-63.921" style="fill:none;"/><path style="fill:none; stroke-miterlimit:5;" d="M81.9728 -29.1036 L81.516 -29.307 L81.1115 -29.0131"/></g><g transform="translate(114,33)" style="stroke-linecap:butt; fill:rgb(230,0,0); text-rendering:geometricPrecision; color-rendering:optimizeQuality; image-rendering:optimizeQuality; font-family:'Open Sans'; stroke:rgb(230,0,0); color-interpolation:linearRGB; stroke-miterlimit:5;"><path style="stroke:none;" d="M112.8585 -17.1763 Q112.8585 -15.1138 111.8194 -13.9341 Q110.7804 -12.7544 108.9366 -12.7544 Q107.046 -12.7544 106.0148 -13.9185 Q104.9835 -15.0826 104.9835 -17.1919 Q104.9835 -19.2857 106.0148 -20.4341 Q107.046 -21.5826 108.9366 -21.5826 Q110.796 -21.5826 111.8273 -20.4107 Q112.8585 -19.2388 112.8585 -17.1763 ZM106.0304 -17.1763 Q106.0304 -15.4419 106.7726 -14.5357 Q107.5148 -13.6294 108.9366 -13.6294 Q110.3585 -13.6294 111.0851 -14.5279 Q111.8116 -15.4263 111.8116 -17.1763 Q111.8116 -18.9107 111.0851 -19.8013 Q110.3585 -20.6919 108.9366 -20.6919 Q107.5148 -20.6919 106.7726 -19.7935 Q106.0304 -18.8951 106.0304 -17.1763 Z"/><path style="stroke:none;" d="M120.3741 -12.8794 L119.3741 -12.8794 L119.3741 -16.9107 L114.8585 -16.9107 L114.8585 -12.8794 L113.8585 -12.8794 L113.8585 -21.4419 L114.8585 -21.4419 L114.8585 -17.8013 L119.3741 -17.8013 L119.3741 -21.4419 L120.3741 -21.4419 L120.3741 -12.8794 Z"/><path style="fill:rgb(0,138,0); stroke:none;" d="M-110.3116 7.4832 L-111.3116 7.4832 L-111.3116 -1.0793 L-106.5304 -1.0793 L-106.5304 -0.2043 L-110.3116 -0.2043 L-110.3116 2.9364 L-106.7648 2.9364 L-106.7648 3.827 L-110.3116 3.827 L-110.3116 7.4832 Z"/><path style="fill:none; stroke:black;" d="M11.3729 3.7315 L11.079 3.327 L11.3729 2.9225"/><path style="fill:none; stroke:black;" d="M28.4191 -20.5385 L28.713 -20.943 L29.1885 -20.7885"/><path style="fill:rgb(0,5,255); stroke:none;" d="M32.0646 31.7533 L30.9239 31.7533 L26.2364 24.5658 L26.1896 24.5658 Q26.2833 25.8314 26.2833 26.8783 L26.2833 31.7533 L25.3614 31.7533 L25.3614 23.1908 L26.4864 23.1908 L31.1583 30.347 L31.2052 30.347 Q31.2052 30.1908 31.1583 29.3314 Q31.1114 28.472 31.1271 28.097 L31.1271 23.1908 L32.0646 23.1908 L32.0646 31.7533 Z"/><path style="fill:none; stroke:black;" d="M56.7675 -11.8275 L57.243 -11.673 L57.6475 -11.9669"/><path style="stroke:none;" d="M61.1805 18.2567 Q61.1805 20.3192 60.1414 21.4989 Q59.1024 22.6786 57.2586 22.6786 Q55.368 22.6786 54.3368 21.5145 Q53.3055 20.3504 53.3055 18.2411 Q53.3055 16.1473 54.3368 14.9989 Q55.368 13.8504 57.2586 13.8504 Q59.118 13.8504 60.1493 15.0223 Q61.1805 16.1942 61.1805 18.2567 ZM54.3524 18.2567 Q54.3524 19.9911 55.0946 20.8973 Q55.8368 21.8036 57.2586 21.8036 Q58.6805 21.8036 59.4071 20.9051 Q60.1336 20.0067 60.1336 18.2567 Q60.1336 16.5223 59.4071 15.6317 Q58.6805 14.7411 57.2586 14.7411 Q55.8368 14.7411 55.0946 15.6395 Q54.3524 16.5379 54.3524 18.2567 Z"/><path style="fill:none; stroke:black;" d="M-19.171 2.894 L-18.921 3.327 L-18.421 3.327"/><path style="fill:none; stroke:black;" d="M-33.671 -22.22 L-33.921 -22.653 L-34.421 -22.653"/><path style="fill:none; stroke:black;" d="M-33.671 28.874 L-33.921 29.307 L-34.421 29.307"/><path style="fill:none; stroke:black;" d="M-63.421 -22.653 L-63.921 -22.653 L-64.171 -22.22"/><path style="fill:none; stroke:black;" d="M-63.421 29.307 L-63.921 29.307 L-64.171 28.874"/><path style="fill:none; stroke:black;" d="M-78.671 2.894 L-78.921 3.327 L-79.421 3.327"/></g></g></svg></svg></svg></svg>