<svg width="216" viewBox="0 0 216 97" style="fill-opacity:1; color-rendering:auto; color-interpolation:auto; text-rendering:auto; stroke:black; stroke-linecap:square; stroke-miterlimit:10; shape-rendering:auto; stroke-opacity:1; fill:black; stroke-dasharray:none; font-weight:normal; stroke-width:1; font-family:'Open Sans'; font-style:normal; stroke-linejoin:miter; font-size:12; stroke-dashoffset:0; image-rendering:auto;" height="97" class="cas-substance-image" xmlns:xlink="http://www.w3.org/1999/xlink" xmlns="http://www.w3.org/2000/svg"><svg class="cas-substance-single-component"><rect y="0" x="0" width="216" stroke="none" ry="7" rx="7" height="97" fill="white" class="cas-substance-group"/><svg y="0" x="0" width="216" viewBox="0 0 216 97" style="fill:black;" height="97" class="cas-substance-single-component-image"><svg><g><g transform="translate(109,48)" style="text-rendering:geometricPrecision; color-rendering:optimizeQuality; color-interpolation:linearRGB; stroke-linecap:butt; image-rendering:optimizeQuality;"><line y2="0" y1="-12.0652" x2="51.963" x1="31.0637" style="fill:none;"/><line y2="0" y1="-12.0649" x2="0" x1="20.8964" style="fill:none;"/><line y2="-15" y1="0" x2="77.943" x1="51.963" style="fill:none;"/><line y2="23.5234" y1="-1.0103" x2="50.213" x1="50.213" style="fill:none;"/><line y2="23.5234" y1="-1.0104" x2="53.713" x1="53.713" style="fill:none;"/><line y2="-45" y1="-15" x2="77.943" x1="77.943" style="fill:none;"/><line y2="0" y1="-15" x2="103.923" x1="77.943" style="fill:none;"/><line y2="-35.1074" y1="-15" x2="-66.3336" x1="-77.943" style="fill:none;"/><line y2="-28.0225" y1="-15" x2="-100.4979" x1="-77.943" style="fill:none;"/><line y2="5.1074" y1="-15" x2="-89.5524" x1="-77.943" style="fill:none;"/><line y2="0" y1="-15" x2="-51.963" x1="-77.943" style="fill:none;"/><line y2="-15" y1="0" x2="-25.98" x1="0" style="fill:none;"/><line y2="-10.9585" y1="2.0207" x2="-25.9801" x1="-3.5" style="fill:none;"/><line y2="30" y1="0" x2="0" x1="0" style="fill:none;"/><line y2="0" y1="-15" x2="-51.963" x1="-25.98" style="fill:none;"/><line y2="45" y1="30" x2="-25.98" x1="0" style="fill:none;"/><line y2="40.9585" y1="27.9793" x2="-25.9801" x1="-3.5" style="fill:none;"/><line y2="30" y1="0" x2="-51.963" x1="-51.963" style="fill:none;"/><line y2="27.9793" y1="2.0207" x2="-48.463" x1="-48.463" style="fill:none;"/><line y2="30" y1="45" x2="-51.963" x1="-25.98" style="fill:none;"/></g><g transform="translate(109,48)" style="fill:rgb(0,5,255); text-rendering:geometricPrecision; color-rendering:optimizeQuality; image-rendering:optimizeQuality; font-family:'Open Sans'; stroke:rgb(0,5,255); color-interpolation:linearRGB;"><path style="stroke:none;" d="M29.3316 -10.8438 L28.1909 -10.8438 L23.5034 -18.0312 L23.4566 -18.0312 Q23.5503 -16.7656 23.5503 -15.7188 L23.5503 -10.8438 L22.6284 -10.8438 L22.6284 -19.4062 L23.7534 -19.4062 L28.4253 -12.25 L28.4722 -12.25 Q28.4722 -12.4062 28.4253 -13.2656 Q28.3784 -14.125 28.3941 -14.5 L28.3941 -19.4062 L29.3316 -19.4062 L29.3316 -10.8438 Z"/><path style="stroke:none;" d="M29.2378 -20.4062 L28.2378 -20.4062 L28.2378 -24.4375 L23.7222 -24.4375 L23.7222 -20.4062 L22.7222 -20.4062 L22.7222 -28.9688 L23.7222 -28.9688 L23.7222 -25.3281 L28.2378 -25.3281 L28.2378 -28.9688 L29.2378 -28.9688 L29.2378 -20.4062 Z"/></g><g transform="translate(109,48)" style="stroke-linecap:butt; text-rendering:geometricPrecision; color-rendering:optimizeQuality; image-rendering:optimizeQuality; font-family:'Open Sans'; color-interpolation:linearRGB; stroke-miterlimit:5;"><path style="fill:none;" d="M51.53 -0.25 L51.963 0 L52.396 -0.25"/><path style="fill:rgb(230,0,0); stroke:none;" d="M55.9005 29.9297 Q55.9005 31.9922 54.8614 33.1719 Q53.8224 34.3516 51.9786 34.3516 Q50.088 34.3516 49.0568 33.1875 Q48.0255 32.0234 48.0255 29.9141 Q48.0255 27.8203 49.0568 26.6719 Q50.088 25.5234 51.9786 25.5234 Q53.838 25.5234 54.8693 26.6953 Q55.9005 27.8672 55.9005 29.9297 ZM49.0724 29.9297 Q49.0724 31.6641 49.8146 32.5703 Q50.5568 33.4766 51.9786 33.4766 Q53.4005 33.4766 54.1271 32.5781 Q54.8536 31.6797 54.8536 29.9297 Q54.8536 28.1953 54.1271 27.3047 Q53.4005 26.4141 51.9786 26.4141 Q50.5568 26.4141 49.8146 27.3125 Q49.0724 28.2109 49.0724 29.9297 Z"/><path style="fill:rgb(0,138,0); stroke:none;" d="M-64.3336 -36.8238 L-65.3336 -36.8238 L-65.3336 -45.3863 L-60.5524 -45.3863 L-60.5524 -44.5113 L-64.3336 -44.5113 L-64.3336 -41.3706 L-60.7867 -41.3706 L-60.7867 -40.48 L-64.3336 -40.48 L-64.3336 -36.8238 Z"/><path style="fill:rgb(0,138,0); stroke:none;" d="M-105.3136 -25.8438 L-106.3136 -25.8438 L-106.3136 -34.4062 L-101.5324 -34.4062 L-101.5324 -33.5312 L-105.3136 -33.5312 L-105.3136 -30.3906 L-101.7667 -30.3906 L-101.7667 -29.5 L-105.3136 -29.5 L-105.3136 -25.8438 Z"/><path style="fill:rgb(0,138,0); stroke:none;" d="M-94.3336 15.1362 L-95.3336 15.1362 L-95.3336 6.5737 L-90.5524 6.5737 L-90.5524 7.4487 L-94.3336 7.4487 L-94.3336 10.5894 L-90.7868 10.5894 L-90.7868 11.48 L-94.3336 11.48 L-94.3336 15.1362 Z"/><path style="fill:none;" d="M-0.433 -0.25 L0 0 L0.433 -0.25"/><path style="fill:none;" d="M-25.547 -14.75 L-25.98 -15 L-26.413 -14.75"/><path style="fill:none;" d="M0 29.5 L0 30 L-0.433 30.25"/><path style="fill:none;" d="M-51.963 0.5 L-51.963 0 L-52.396 -0.25"/><path style="fill:none;" d="M-25.547 44.75 L-25.98 45 L-26.413 44.75"/><path style="fill:none;" d="M-51.963 29.5 L-51.963 30 L-51.53 30.25"/></g></g></svg></svg></svg></svg>