<svg width="129" viewBox="0 0 129 75" style="fill-opacity:1; color-rendering:auto; color-interpolation:auto; text-rendering:auto; stroke:black; stroke-linecap:square; stroke-miterlimit:10; shape-rendering:auto; stroke-opacity:1; fill:black; stroke-dasharray:none; font-weight:normal; stroke-width:1; font-family:'Open Sans'; font-style:normal; stroke-linejoin:miter; font-size:12; stroke-dashoffset:0; image-rendering:auto;" height="75" class="cas-substance-image" xmlns:xlink="http://www.w3.org/1999/xlink" xmlns="http://www.w3.org/2000/svg"><svg class="cas-substance-single-component"><rect y="0" x="0" width="129" stroke="none" ry="7" rx="7" height="75" fill="white" class="cas-substance-group"/><svg y="0" x="0" width="129" viewBox="0 0 129 75" style="fill:black;" height="75" class="cas-substance-single-component-image"><svg><g><g transform="translate(64,37)" style="text-rendering:geometricPrecision; color-rendering:optimizeQuality; color-interpolation:linearRGB; stroke-linecap:butt; image-rendering:optimizeQuality;"><line y2="-25.2773" y1="0" x2="30" x1="30" style="fill:none;"/><line y2="0" y1="0" x2="55.6094" x1="30" style="fill:none;"/><line y2="23.5938" y1="0" x2="30" x1="30" style="fill:none;"/><line y2="0" y1="0" x2="0" x1="30" style="fill:none;"/><line y2="25.98" y1="0" x2="-15" x1="0" style="fill:none;"/><line y2="22.48" y1="-0.0001" x2="-17.0207" x1="-4.0415" style="fill:none;"/><line y2="-20.0917" y1="0" x2="-11.6003" x1="0" style="fill:none;"/><line y2="25.98" y1="25.98" x2="-45" x1="-15" style="fill:none;"/><line y2="-25.98" y1="-25.98" x2="-45" x1="-20.3516" style="fill:none;"/><line y2="-22.48" y1="-22.48" x2="-42.9793" x1="-20.3516" style="fill:none;"/><line y2="0" y1="25.98" x2="-60" x1="-45" style="fill:none;"/><line y2="-0.0001" y1="22.48" x2="-55.9585" x1="-42.9793" style="fill:none;"/><line y2="0" y1="-25.98" x2="-60" x1="-45" style="fill:none;"/></g><g transform="translate(64,37)" style="fill:rgb(0,138,0); text-rendering:geometricPrecision; color-rendering:optimizeQuality; image-rendering:optimizeQuality; font-family:'Open Sans'; stroke:rgb(0,138,0); color-interpolation:linearRGB;"><path style="stroke:none;" d="M28.6094 -25.8438 L27.6094 -25.8438 L27.6094 -34.4062 L32.3906 -34.4062 L32.3906 -33.5312 L28.6094 -33.5312 L28.6094 -30.3906 L32.1562 -30.3906 L32.1562 -29.5 L28.6094 -29.5 L28.6094 -25.8438 Z"/><path style="stroke:none;" d="M58.6094 4.1562 L57.6094 4.1562 L57.6094 -4.4062 L62.3906 -4.4062 L62.3906 -3.5312 L58.6094 -3.5312 L58.6094 -0.3906 L62.1562 -0.3906 L62.1562 0.5 L58.6094 0.5 L58.6094 4.1562 Z"/><path style="stroke:none;" d="M28.6094 34.1562 L27.6094 34.1562 L27.6094 25.5938 L32.3906 25.5938 L32.3906 26.4688 L28.6094 26.4688 L28.6094 29.6094 L32.1562 29.6094 L32.1562 30.5 L28.6094 30.5 L28.6094 34.1562 Z"/></g><g transform="translate(64,37)" style="stroke-linecap:butt; text-rendering:geometricPrecision; color-rendering:optimizeQuality; image-rendering:optimizeQuality; font-family:'Open Sans'; color-interpolation:linearRGB; stroke-miterlimit:5;"><path style="fill:none;" d="M-0.25 0.433 L0 0 L0.5 0"/><path style="fill:none;" d="M-14.75 25.547 L-15 25.98 L-15.5 25.98"/><path style="fill:rgb(0,5,255); stroke:none;" d="M-11.6484 -21.8237 L-12.7891 -21.8237 L-17.4766 -29.0112 L-17.5234 -29.0112 Q-17.4297 -27.7456 -17.4297 -26.6987 L-17.4297 -21.8237 L-18.3516 -21.8237 L-18.3516 -30.3862 L-17.2266 -30.3862 L-12.5547 -23.23 L-12.5078 -23.23 Q-12.5078 -23.3862 -12.5547 -24.2456 Q-12.6016 -25.105 -12.5859 -25.48 L-12.5859 -30.3862 L-11.6484 -30.3862 L-11.6484 -21.8237 Z"/><path style="fill:none;" d="M-44.5 25.98 L-45 25.98 L-45.25 25.547"/><path style="fill:none;" d="M-44.5 -25.98 L-45 -25.98 L-45.25 -25.547"/><path style="fill:none;" d="M-59.75 0.433 L-60 0 L-59.75 -0.433"/></g></g></svg></svg></svg></svg>