<svg xmlns:ns0="http://www.w3.org/2000/svg" xmlns="http://www.w3.org/2000/svg"><g transform="translate(0, 0)"><ns0:svg width="171" viewBox="0 0 171 118" style="fill-opacity:1; color-rendering:auto; color-interpolation:auto; text-rendering:auto; stroke:black; stroke-linecap:square; stroke-miterlimit:10; shape-rendering:auto; stroke-opacity:1; fill:black; stroke-dasharray:none; font-weight:normal; stroke-width:1; font-family:'Open Sans'; font-style:normal; stroke-linejoin:miter; font-size:12; stroke-dashoffset:0; image-rendering:auto;" height="118" class="cas-substance-image"><ns0:svg class="cas-substance-single-component"><ns0:rect y="0" x="0" width="171" stroke="none" ry="7" rx="7" height="118" fill="white" class="cas-substance-group" /><ns0:svg y="0" x="0" width="171" viewBox="0 0 171 118" style="fill:black;" height="118" class="cas-substance-single-component-image"><ns0:svg><ns0:g><ns0:g transform="translate(86,56)" style="text-rendering:geometricPrecision; color-rendering:optimizeQuality; color-interpolation:linearRGB; stroke-linecap:butt; image-rendering:optimizeQuality;"><ns0:line y2="-22.419" y1="3.564" x2="52.173" x1="37.173" style="fill:none;" /><ns0:line y2="3.564" y1="3.564" x2="7.173" x1="37.173" style="fill:none;" /><ns0:line y2="-22.419" y1="-22.419" x2="82.173" x1="52.173" style="fill:none;" /><ns0:line y2="-43.6383" y1="-22.419" x2="41.9424" x1="54.1937" style="fill:none;" /><ns0:line y2="-41.8883" y1="-20.6689" x2="38.9114" x1="51.1627" style="fill:none;" /><ns0:line y2="3.564" y1="-19.9334" x2="7.173" x1="9.6418" style="fill:none;" /><ns0:line y2="31.2477" y1="43.6421" x2="10.082" x1="31.5489" style="fill:none;" /><ns0:line y2="34.2788" y1="46.6731" x2="8.3319" x1="29.7988" style="fill:none;" /><ns0:line y2="3.564" y1="-2.673" x2="7.173" x1="-22.173" style="fill:none;" /><ns0:line y2="23.307" y1="-2.673" x2="-37.173" x1="-22.173" style="fill:none;" /><ns0:line y2="-28.656" y1="-2.673" x2="-37.173" x1="-22.173" style="fill:none;" /><ns0:line y2="-25.1561" y1="-2.6732" x2="-39.1939" x1="-26.2145" style="fill:none;" /><ns0:line y2="33.399" y1="3.564" x2="10.308" x1="7.173" style="fill:none;" /><ns0:line y2="40.3921" y1="23.307" x2="-21.7869" x1="-37.173" style="fill:none;" /><ns0:line y2="23.307" y1="23.307" x2="-67.173" x1="-37.173" style="fill:none;" /><ns0:line y2="19.807" y1="19.807" x2="-65.1523" x1="-39.1937" style="fill:none;" /><ns0:line y2="-28.656" y1="-28.656" x2="-67.173" x1="-37.173" style="fill:none;" /><ns0:line y2="43.2944" y1="33.399" x2="-11.9183" x1="10.308" style="fill:none;" /><ns0:line y2="-2.673" y1="23.307" x2="-82.173" x1="-67.173" style="fill:none;" /><ns0:line y2="-2.673" y1="-28.656" x2="-82.173" x1="-67.173" style="fill:none;" /><ns0:line y2="-2.6732" y1="-25.1561" x2="-78.1315" x1="-65.1521" style="fill:none;" /><ns0:path style="fill:none; stroke-miterlimit:5;" d="M37.423 3.131 L37.173 3.564 L36.673 3.564" /><ns0:path style="fill:none; stroke-miterlimit:5;" d="M51.923 -21.986 L52.173 -22.419 L52.673 -22.419" /></ns0:g><ns0:g transform="translate(86,56)" style="stroke-linecap:butt; fill:rgb(230,0,0); text-rendering:geometricPrecision; color-rendering:optimizeQuality; image-rendering:optimizeQuality; font-family:'Open Sans'; stroke:rgb(230,0,0); color-interpolation:linearRGB; stroke-miterlimit:5;"><ns0:path style="stroke:none;" d="M41.1105 -48.4693 Q41.1105 -46.4068 40.0714 -45.2271 Q39.0324 -44.0474 37.1886 -44.0474 Q35.298 -44.0474 34.2668 -45.2115 Q33.2355 -46.3756 33.2355 -48.4849 Q33.2355 -50.5787 34.2668 -51.7271 Q35.298 -52.8756 37.1886 -52.8756 Q39.048 -52.8756 40.0793 -51.7037 Q41.1105 -50.5318 41.1105 -48.4693 ZM34.2824 -48.4693 Q34.2824 -46.7349 35.0246 -45.8287 Q35.7668 -44.9224 37.1886 -44.9224 Q38.6105 -44.9224 39.3371 -45.8209 Q40.0636 -46.7193 40.0636 -48.4693 Q40.0636 -50.2037 39.3371 -51.0943 Q38.6105 -51.9849 37.1886 -51.9849 Q35.7668 -51.9849 35.0246 -51.0865 Q34.2824 -50.1881 34.2824 -48.4693 Z" /><ns0:path style="stroke:none;" d="M14.2455 -26.3443 Q14.2455 -24.2818 13.2064 -23.1021 Q12.1674 -21.9224 10.3236 -21.9224 Q8.433 -21.9224 7.4018 -23.0865 Q6.3705 -24.2506 6.3705 -26.3599 Q6.3705 -28.4537 7.4018 -29.6021 Q8.433 -30.7506 10.3236 -30.7506 Q12.183 -30.7506 13.2143 -29.5787 Q14.2455 -28.4068 14.2455 -26.3443 ZM7.4174 -26.3443 Q7.4174 -24.6099 8.1596 -23.7037 Q8.9018 -22.7974 10.3236 -22.7974 Q11.7455 -22.7974 12.4721 -23.6959 Q13.1986 -24.5943 13.1986 -26.3443 Q13.1986 -28.0787 12.4721 -28.9693 Q11.7455 -29.8599 10.3236 -29.8599 Q8.9018 -29.8599 8.1596 -28.9615 Q7.4174 -28.0631 7.4174 -26.3443 Z" /><ns0:path style="stroke:none;" d="M21.7611 -22.0474 L20.7611 -22.0474 L20.7611 -26.0787 L16.2455 -26.0787 L16.2455 -22.0474 L15.2455 -22.0474 L15.2455 -30.6099 L16.2455 -30.6099 L16.2455 -26.9693 L20.7611 -26.9693 L20.7611 -30.6099 L21.7611 -30.6099 L21.7611 -22.0474 Z" /><ns0:path style="stroke:none;" d="M40.2255 48.3287 Q40.2255 50.3912 39.1864 51.5709 Q38.1474 52.7506 36.3036 52.7506 Q34.413 52.7506 33.3817 51.5865 Q32.3505 50.4224 32.3505 48.3131 Q32.3505 46.2193 33.3817 45.0709 Q34.413 43.9224 36.3036 43.9224 Q38.163 43.9224 39.1942 45.0943 Q40.2255 46.2662 40.2255 48.3287 ZM33.3974 48.3287 Q33.3974 50.0631 34.1396 50.9693 Q34.8817 51.8756 36.3036 51.8756 Q37.7255 51.8756 38.4521 50.9771 Q39.1786 50.0787 39.1786 48.3287 Q39.1786 46.5943 38.4521 45.7037 Q37.7255 44.8131 36.3036 44.8131 Q34.8817 44.8131 34.1396 45.7115 Q33.3974 46.6099 33.3974 48.3287 Z" /><ns0:path style="fill:none; stroke:black;" d="M-22.423 -3.106 L-22.173 -2.673 L-22.423 -2.24" /><ns0:path style="fill:none; stroke:black;" d="M-37.673 23.307 L-37.173 23.307 L-36.923 22.874" /><ns0:path style="fill:none; stroke:black;" d="M-36.923 -28.223 L-37.173 -28.656 L-37.673 -28.656" /><ns0:path style="fill:none; stroke:black;" d="M10.2557 32.9017 L10.308 33.399 L9.8512 33.6024" /><ns0:path style="fill:rgb(0,5,255); stroke:none;" d="M-13.7454 49.7562 L-14.8861 49.7562 L-19.5736 42.5687 L-19.6204 42.5687 Q-19.5267 43.8344 -19.5267 44.8812 L-19.5267 49.7562 L-20.4486 49.7562 L-20.4486 41.1937 L-19.3236 41.1937 L-14.6517 48.35 L-14.6048 48.35 Q-14.6048 48.1937 -14.6517 47.3344 Q-14.6986 46.475 -14.6829 46.1 L-14.6829 41.1937 L-13.7454 41.1937 L-13.7454 49.7562 Z" /><ns0:path style="fill:rgb(0,5,255); stroke:none;" d="M-13.8392 59.3187 L-14.8392 59.3187 L-14.8392 55.2875 L-19.3548 55.2875 L-19.3548 59.3187 L-20.3548 59.3187 L-20.3548 50.7562 L-19.3548 50.7562 L-19.3548 54.3969 L-14.8392 54.3969 L-14.8392 50.7562 L-13.8392 50.7562 L-13.8392 59.3187 Z" /><ns0:path style="fill:none; stroke:black;" d="M-66.673 23.307 L-67.173 23.307 L-67.423 22.874" /><ns0:path style="fill:none; stroke:black;" d="M-66.673 -28.656 L-67.173 -28.656 L-67.423 -28.223" /><ns0:path style="fill:none; stroke:black;" d="M-81.923 -2.24 L-82.173 -2.673 L-81.923 -3.106" /></ns0:g></ns0:g></ns0:svg></ns0:svg></ns0:svg></ns0:svg></g></svg>