<svg xmlns:ns0="http://www.w3.org/2000/svg" xmlns="http://www.w3.org/2000/svg"><g transform="translate(0, 0)"><ns0:svg width="174" viewBox="0 0 174 101" style="fill-opacity:1; color-rendering:auto; color-interpolation:auto; text-rendering:auto; stroke:black; stroke-linecap:square; stroke-miterlimit:10; shape-rendering:auto; stroke-opacity:1; fill:black; stroke-dasharray:none; font-weight:normal; stroke-width:1; font-family:'Open Sans'; font-style:normal; stroke-linejoin:miter; font-size:12; stroke-dashoffset:0; image-rendering:auto;" height="101" class="cas-substance-image"><ns0:svg class="cas-substance-single-component"><ns0:rect y="0" x="0" width="174" stroke="none" ry="7" rx="7" height="101" fill="white" class="cas-substance-group" /><ns0:svg y="0" x="0" width="174" viewBox="0 0 174 101" style="fill:black;" height="101" class="cas-substance-single-component-image"><ns0:svg><ns0:g><ns0:g transform="translate(92,49)" style="text-rendering:geometricPrecision; color-rendering:optimizeQuality; color-interpolation:linearRGB; stroke-linecap:butt; image-rendering:optimizeQuality;"><ns0:line y2="0" y1="15" x2="51.963" x1="25.98" style="fill:none;" /><ns0:line y2="38.5234" y1="13.9896" x2="24.23" x1="24.23" style="fill:none;" /><ns0:line y2="38.5234" y1="13.9897" x2="27.73" x1="27.73" style="fill:none;" /><ns0:line y2="0" y1="15" x2="0" x1="25.98" style="fill:none;" /><ns0:line y2="15" y1="0" x2="77.943" x1="51.963" style="fill:none;" /><ns0:line y2="0" y1="11.774" x2="-51.963" x1="-72.3555" style="fill:none;" /><ns0:line y2="15" y1="0" x2="-25.98" x1="0" style="fill:none;" /><ns0:line y2="10.9585" y1="-2.0207" x2="-25.9801" x1="-3.5" style="fill:none;" /><ns0:line y2="-30" y1="0" x2="0" x1="0" style="fill:none;" /><ns0:line y2="0" y1="15" x2="-51.963" x1="-25.98" style="fill:none;" /><ns0:line y2="-45" y1="-30" x2="-25.98" x1="0" style="fill:none;" /><ns0:line y2="-40.9585" y1="-27.9793" x2="-25.9801" x1="-3.5" style="fill:none;" /><ns0:line y2="-30" y1="0" x2="-51.963" x1="-51.963" style="fill:none;" /><ns0:line y2="-27.9793" y1="-2.0207" x2="-48.463" x1="-48.463" style="fill:none;" /><ns0:line y2="-30" y1="-45" x2="-51.963" x1="-25.98" style="fill:none;" /><ns0:path style="fill:none; stroke-miterlimit:5;" d="M26.413 14.75 L25.98 15 L25.547 14.75" /><ns0:path style="fill:none; stroke-miterlimit:5;" d="M51.53 0.25 L51.963 0 L52.396 0.25" /></ns0:g><ns0:g transform="translate(92,49)" style="stroke-linecap:butt; fill:rgb(230,0,0); text-rendering:geometricPrecision; color-rendering:optimizeQuality; image-rendering:optimizeQuality; font-family:'Open Sans'; stroke:rgb(230,0,0); color-interpolation:linearRGB; stroke-miterlimit:5;"><ns0:path style="stroke:none;" d="M29.9175 44.9297 Q29.9175 46.9922 28.8784 48.1719 Q27.8394 49.3516 25.9956 49.3516 Q24.105 49.3516 23.0737 48.1875 Q22.0425 47.0234 22.0425 44.9141 Q22.0425 42.8203 23.0737 41.6719 Q24.105 40.5234 25.9956 40.5234 Q27.855 40.5234 28.8862 41.6953 Q29.9175 42.8672 29.9175 44.9297 ZM23.0894 44.9297 Q23.0894 46.6641 23.8316 47.5703 Q24.5737 48.4766 25.9956 48.4766 Q27.4175 48.4766 28.1441 47.5781 Q28.8706 46.6797 28.8706 44.9297 Q28.8706 43.1953 28.1441 42.3047 Q27.4175 41.4141 25.9956 41.4141 Q24.5737 41.4141 23.8316 42.3125 Q23.0894 43.2109 23.0894 44.9297 Z" /><ns0:path style="stroke:none;" d="M-74.0055 14.9297 Q-74.0055 16.9922 -75.0446 18.1719 Q-76.0836 19.3516 -77.9274 19.3516 Q-79.818 19.3516 -80.8493 18.1875 Q-81.8805 17.0234 -81.8805 14.9141 Q-81.8805 12.8203 -80.8493 11.6719 Q-79.818 10.5234 -77.9274 10.5234 Q-76.068 10.5234 -75.0368 11.6953 Q-74.0055 12.8672 -74.0055 14.9297 ZM-80.8336 14.9297 Q-80.8336 16.6641 -80.0914 17.5703 Q-79.3493 18.4766 -77.9274 18.4766 Q-76.5055 18.4766 -75.7789 17.5781 Q-75.0524 16.6797 -75.0524 14.9297 Q-75.0524 13.1953 -75.7789 12.3047 Q-76.5055 11.4141 -77.9274 11.4141 Q-79.3493 11.4141 -80.0914 12.3125 Q-80.8336 13.2109 -80.8336 14.9297 Z" /><ns0:path style="stroke:none;" d="M-82.8805 19.2266 L-83.8805 19.2266 L-83.8805 15.1953 L-88.3961 15.1953 L-88.3961 19.2266 L-89.3961 19.2266 L-89.3961 10.6641 L-88.3961 10.6641 L-88.3961 14.3047 L-83.8805 14.3047 L-83.8805 10.6641 L-82.8805 10.6641 L-82.8805 19.2266 Z" /><ns0:path style="fill:none; stroke:black;" d="M-0.433 0.25 L0 0 L0 -0.5" /><ns0:path style="fill:none; stroke:black;" d="M-25.547 14.75 L-25.98 15 L-26.413 14.75" /><ns0:path style="fill:none; stroke:black;" d="M-0 -29.5 L0 -30 L-0.433 -30.25" /><ns0:path style="fill:none; stroke:black;" d="M-51.963 -0.5 L-51.963 0 L-52.396 0.25" /><ns0:path style="fill:none; stroke:black;" d="M-25.547 -44.75 L-25.98 -45 L-26.413 -44.75" /><ns0:path style="fill:none; stroke:black;" d="M-51.963 -29.5 L-51.963 -30 L-51.53 -30.25" /></ns0:g></ns0:g></ns0:svg></ns0:svg></ns0:svg></ns0:svg></g></svg>