<svg width="192" viewBox="0 0 192 251" style="fill-opacity:1; color-rendering:auto; color-interpolation:auto; text-rendering:auto; stroke:black; stroke-linecap:square; stroke-miterlimit:10; shape-rendering:auto; stroke-opacity:1; fill:black; stroke-dasharray:none; font-weight:normal; stroke-width:1; font-family:'Open Sans'; font-style:normal; stroke-linejoin:miter; font-size:12; stroke-dashoffset:0; image-rendering:auto;" height="251" class="cas-substance-image" xmlns:xlink="http://www.w3.org/1999/xlink" xmlns="http://www.w3.org/2000/svg"><svg class="cas-substance-single-component"><rect y="0" x="0" width="192" stroke="none" ry="7" rx="7" height="251" fill="white" class="cas-substance-group"/><svg y="0" x="0" width="192" viewBox="0 0 192 251" style="fill:black;" height="251" class="cas-substance-single-component-image"><svg><g><g transform="translate(98,118)" style="text-rendering:geometricPrecision; color-rendering:optimizeQuality; color-interpolation:linearRGB; stroke-linecap:butt; image-rendering:optimizeQuality;"><path style="fill:none;" d="M-39.5351 55.1234 L-43.9648 55.1234 L-43.9648 128.9516 L-39.5351 128.9516"/><path style="fill:none;" d="M33.3878 55.1234 L37.8175 55.1234 L37.8175 128.9516 L33.3878 128.9516"/><path style="stroke:none;" d="M-49.4648 96.1938 L-50.418 96.1938 L-50.418 90.0844 Q-50.418 89.3188 -50.3711 88.6469 Q-50.4805 88.7719 -50.6367 88.9047 Q-50.793 89.0375 -52.0273 90.0531 L-52.543 89.3813 L-50.2773 87.6313 L-49.4648 87.6313 L-49.4648 96.1938 Z"/><path style="fill:none;" d="M-32.8322 14.6257 L-34.6678 14.6257 L-34.6678 45.2195 L-32.8322 45.2195"/><path style="fill:none;" d="M50.7217 14.6257 L52.5573 14.6257 L52.5573 45.2195 L50.7217 45.2195"/><path style="stroke:none;" d="M-40.1678 34.0789 L-41.121 34.0789 L-41.121 27.9695 Q-41.121 27.2039 -41.0741 26.532 Q-41.1835 26.657 -41.3397 26.7898 Q-41.496 26.9226 -42.7303 27.9382 L-43.246 27.2664 L-40.9803 25.5164 L-40.1678 25.5164 L-40.1678 34.0789 Z"/><line y2="-69.6" y1="-57.826" x2="12.99" x1="-7.4025" style="fill:none;"/><line y2="-69.6" y1="-57.8414" x2="-38.97" x1="-18.6041" style="fill:none;"/><line y2="-54.6" y1="-69.6" x2="38.97" x1="12.99" style="fill:none;"/><line y2="-93.2484" y1="-68.5896" x2="14.74" x1="14.74" style="fill:none;"/><line y2="-93.2484" y1="-68.5896" x2="11.24" x1="11.24" style="fill:none;"/><line y2="-69.6" y1="-54.6" x2="64.953" x1="38.97" style="fill:none;"/><line y2="-71.6208" y1="-58.6415" x2="61.4531" x1="38.9702" style="fill:none;"/><line y2="-54.6" y1="-69.6" x2="90.933" x1="64.953" style="fill:none;"/><line y2="-11.3256" y1="-20.1496" x2="-45.4593" x1="-60.7443" style="fill:none;"/><line y2="-14.3567" y1="-23.1808" x2="-43.7094" x1="-58.9944" style="fill:none;"/><line y2="-14.3416" y1="-23.1804" x2="-86.2205" x1="-70.9116" style="fill:none;"/><line y2="-11.3105" y1="-20.1494" x2="-84.4705" x1="-69.1616" style="fill:none;"/><line y2="-54.6" y1="-31.0063" x2="-64.953" x1="-64.953" style="fill:none;"/><line y2="73.996" y1="81.6649" x2="-20.4691" x1="-7.1866" style="fill:none;"/><line y2="74.3041" y1="83.1808" x2="19.2317" x1="3.8556" style="fill:none;"/><line y2="71.273" y1="80.1496" x2="17.4818" x1="2.1057" style="fill:none;"/><line y2="108.1234" y1="90.7562" x2="-3.853" x1="-3.853" style="fill:none;"/><line y2="108.1234" y1="90.7562" x2="-0.353" x1="-0.353" style="fill:none;"/><line y2="29.157" y1="29.157" x2="5.1593" x1="-10.9042" style="fill:none;"/><line y2="-54.6" y1="-69.6" x2="-64.953" x1="-38.97" style="fill:none;"/><line y2="-58.6415" y1="-71.6208" x2="-64.9529" x1="-42.4699" style="fill:none;"/><line y2="-99.6" y1="-69.6" x2="-38.97" x1="-38.97" style="fill:none;"/><line y2="-69.6" y1="-54.6" x2="-90.933" x1="-64.953" style="fill:none;"/><line y2="-114.6" y1="-99.6" x2="-64.953" x1="-38.97" style="fill:none;"/><line y2="-110.5585" y1="-97.5791" x2="-64.9529" x1="-42.4699" style="fill:none;"/><line y2="-99.6" y1="-69.6" x2="-90.933" x1="-90.933" style="fill:none;"/><line y2="-97.5793" y1="-71.6207" x2="-87.433" x1="-87.433" style="fill:none;"/><line y2="-99.6" y1="-114.6" x2="-90.933" x1="-64.953" style="fill:none;"/><path style="fill:rgb(230,0,0); stroke:none;" d="M-9.0525 -54.6703 Q-9.0525 -52.6078 -10.0916 -51.4281 Q-11.1306 -50.2484 -12.9744 -50.2484 Q-14.865 -50.2484 -15.8962 -51.4125 Q-16.9275 -52.5766 -16.9275 -54.6859 Q-16.9275 -56.7797 -15.8962 -57.9281 Q-14.865 -59.0766 -12.9744 -59.0766 Q-11.115 -59.0766 -10.0837 -57.9047 Q-9.0525 -56.7328 -9.0525 -54.6703 ZM-15.8806 -54.6703 Q-15.8806 -52.9359 -15.1384 -52.0297 Q-14.3962 -51.1234 -12.9744 -51.1234 Q-11.5525 -51.1234 -10.8259 -52.0219 Q-10.0994 -52.9203 -10.0994 -54.6703 Q-10.0994 -56.4047 -10.8259 -57.2953 Q-11.5525 -58.1859 -12.9744 -58.1859 Q-14.3962 -58.1859 -15.1384 -57.2875 Q-15.8806 -56.3891 -15.8806 -54.6703 Z"/><path style="fill:none; stroke-miterlimit:5;" d="M12.557 -69.35 L12.99 -69.6 L13.423 -69.35"/><path style="fill:none; stroke-miterlimit:5;" d="M38.537 -54.85 L38.97 -54.6 L39.403 -54.85"/></g><g transform="translate(98,118)" style="stroke-linecap:butt; fill:rgb(230,0,0); text-rendering:geometricPrecision; color-rendering:optimizeQuality; image-rendering:optimizeQuality; font-family:'Open Sans'; stroke:rgb(230,0,0); color-interpolation:linearRGB; stroke-miterlimit:5;"><path style="stroke:none;" d="M16.9275 -99.6703 Q16.9275 -97.6078 15.8884 -96.4281 Q14.8494 -95.2484 13.0056 -95.2484 Q11.115 -95.2484 10.0837 -96.4125 Q9.0525 -97.5766 9.0525 -99.6859 Q9.0525 -101.7797 10.0837 -102.9281 Q11.115 -104.0766 13.0056 -104.0766 Q14.865 -104.0766 15.8962 -102.9047 Q16.9275 -101.7328 16.9275 -99.6703 ZM10.0994 -99.6703 Q10.0994 -97.9359 10.8416 -97.0297 Q11.5837 -96.1234 13.0056 -96.1234 Q14.4275 -96.1234 15.1541 -97.0219 Q15.8806 -97.9203 15.8806 -99.6703 Q15.8806 -101.4047 15.1541 -102.2953 Q14.4275 -103.1859 13.0056 -103.1859 Q11.5837 -103.1859 10.8416 -102.2875 Q10.0994 -101.3891 10.0994 -99.6703 Z"/><path style="fill:none; stroke:black;" d="M64.52 -69.35 L64.953 -69.6 L65.386 -69.35"/><path style="fill:rgb(0,5,255); stroke:none;" d="M-61.6014 -20.4438 L-62.7421 -20.4438 L-67.4296 -27.6313 L-67.4764 -27.6313 Q-67.3827 -26.3656 -67.3827 -25.3188 L-67.3827 -20.4438 L-68.3046 -20.4438 L-68.3046 -29.0063 L-67.1796 -29.0063 L-62.5077 -21.85 L-62.4608 -21.85 Q-62.4608 -22.0063 -62.5077 -22.8656 Q-62.5546 -23.725 -62.5389 -24.1 L-62.5389 -29.0063 L-61.6014 -29.0063 L-61.6014 -20.4438 Z"/><path style="stroke:none;" d="M-35.0325 -9.6703 Q-35.0325 -7.6078 -36.0716 -6.4281 Q-37.1106 -5.2484 -38.9544 -5.2484 Q-40.845 -5.2484 -41.8763 -6.4125 Q-42.9075 -7.5766 -42.9075 -9.6859 Q-42.9075 -11.7797 -41.8763 -12.9281 Q-40.845 -14.0766 -38.9544 -14.0766 Q-37.095 -14.0766 -36.0638 -12.9047 Q-35.0325 -11.7328 -35.0325 -9.6703 ZM-41.8606 -9.6703 Q-41.8606 -7.9359 -41.1184 -7.0297 Q-40.3763 -6.1234 -38.9544 -6.1234 Q-37.5325 -6.1234 -36.8059 -7.0219 Q-36.0794 -7.9203 -36.0794 -9.6703 Q-36.0794 -11.4047 -36.8059 -12.2953 Q-37.5325 -13.1859 -38.9544 -13.1859 Q-40.3763 -13.1859 -41.1184 -12.2875 Q-41.8606 -11.3891 -41.8606 -9.6703 Z"/><path style="stroke:none;" d="M-86.9955 -9.6703 Q-86.9955 -7.6078 -88.0346 -6.4281 Q-89.0736 -5.2484 -90.9174 -5.2484 Q-92.808 -5.2484 -93.8392 -6.4125 Q-94.8705 -7.5766 -94.8705 -9.6859 Q-94.8705 -11.7797 -93.8392 -12.9281 Q-92.808 -14.0766 -90.9174 -14.0766 Q-89.058 -14.0766 -88.0267 -12.9047 Q-86.9955 -11.7328 -86.9955 -9.6703 ZM-93.8236 -9.6703 Q-93.8236 -7.9359 -93.0814 -7.0297 Q-92.3392 -6.1234 -90.9174 -6.1234 Q-89.4955 -6.1234 -88.7689 -7.0219 Q-88.0424 -7.9203 -88.0424 -9.6703 Q-88.0424 -11.4047 -88.7689 -12.2953 Q-89.4955 -13.1859 -90.9174 -13.1859 Q-92.3392 -13.1859 -93.0814 -12.2875 Q-93.8236 -11.3891 -93.8236 -9.6703 Z"/><path style="fill:rgb(0,5,255); stroke:none;" d="M1.2486 88.7562 L0.1079 88.7562 L-4.5796 81.5687 L-4.6264 81.5687 Q-4.5327 82.8344 -4.5327 83.8812 L-4.5327 88.7562 L-5.4546 88.7562 L-5.4546 80.1937 L-4.3296 80.1937 L0.3423 87.35 L0.3892 87.35 Q0.3892 87.1937 0.3423 86.3344 Q0.2954 85.475 0.3111 85.1 L0.3111 80.1937 L1.2486 80.1937 L1.2486 88.7562 Z"/><path style="fill:black; stroke:none;" d="M-27.1211 69.3969 Q-27.1211 71.5062 -28.2695 72.6312 Q-29.418 73.7562 -31.5898 73.7562 L-33.9648 73.7562 L-33.9648 65.1937 L-31.3398 65.1937 Q-29.3398 65.1937 -28.2305 66.2953 Q-27.1211 67.3969 -27.1211 69.3969 ZM-28.168 69.4281 Q-28.168 67.7562 -29.0117 66.9047 Q-29.8555 66.0531 -31.5117 66.0531 L-32.9648 66.0531 L-32.9648 72.8969 L-31.7461 72.8969 Q-29.9648 72.8969 -29.0664 72.0219 Q-28.168 71.1469 -28.168 69.4281 ZM-22.2012 73.7562 L-23.1543 73.7562 L-23.1543 67.6469 Q-23.1543 66.8812 -23.1074 66.2094 Q-23.2168 66.3344 -23.373 66.4672 Q-23.5293 66.6 -24.7637 67.6156 L-25.2793 66.9437 L-23.0137 65.1937 L-22.2012 65.1937 L-22.2012 73.7562 Z"/><path style="stroke:none;" d="M27.8175 69.5297 Q27.8175 71.5922 26.7784 72.7719 Q25.7394 73.9516 23.8956 73.9516 Q22.005 73.9516 20.9738 72.7875 Q19.9425 71.6234 19.9425 69.5141 Q19.9425 67.4203 20.9738 66.2719 Q22.005 65.1234 23.8956 65.1234 Q25.755 65.1234 26.7863 66.2953 Q27.8175 67.4672 27.8175 69.5297 ZM20.9894 69.5297 Q20.9894 71.2641 21.7316 72.1703 Q22.4738 73.0766 23.8956 73.0766 Q25.3175 73.0766 26.0441 72.1781 Q26.7706 71.2797 26.7706 69.5297 Q26.7706 67.7953 26.0441 66.9047 Q25.3175 66.0141 23.8956 66.0141 Q22.4738 66.0141 21.7316 66.9125 Q20.9894 67.8109 20.9894 69.5297 Z"/><path style="stroke:none;" d="M1.8345 114.5297 Q1.8345 116.5922 0.7954 117.7719 Q-0.2436 118.9516 -2.0874 118.9516 Q-3.978 118.9516 -5.0093 117.7875 Q-6.0405 116.6234 -6.0405 114.5141 Q-6.0405 112.4203 -5.0093 111.2719 Q-3.978 110.1234 -2.0874 110.1234 Q-0.228 110.1234 0.8032 111.2953 Q1.8345 112.4672 1.8345 114.5297 ZM-4.9936 114.5297 Q-4.9936 116.2641 -4.2514 117.1703 Q-3.5093 118.0766 -2.0874 118.0766 Q-0.6655 118.0766 0.0611 117.1781 Q0.7876 116.2797 0.7876 114.5297 Q0.7876 112.7953 0.0611 111.9047 Q-0.6655 111.0141 -2.0874 111.0141 Q-3.5093 111.0141 -4.2514 111.9125 Q-4.9936 112.8109 -4.9936 114.5297 Z"/><path style="fill:black; stroke:none;" d="M-17.8241 28.9539 Q-17.8241 31.0632 -18.9725 32.1882 Q-20.121 33.3132 -22.2928 33.3132 L-24.6678 33.3132 L-24.6678 24.7507 L-22.0428 24.7507 Q-20.0428 24.7507 -18.9335 25.8523 Q-17.8241 26.9539 -17.8241 28.9539 ZM-18.871 28.9851 Q-18.871 27.3132 -19.7147 26.4617 Q-20.5585 25.6101 -22.2147 25.6101 L-23.6678 25.6101 L-23.6678 32.4539 L-22.4491 32.4539 Q-20.6678 32.4539 -19.7694 31.5789 Q-18.871 30.7039 -18.871 28.9851 ZM-12.9042 33.3132 L-13.8573 33.3132 L-13.8573 27.2039 Q-13.8573 26.4382 -13.8104 25.7664 Q-13.9198 25.8914 -14.076 26.0242 Q-14.2323 26.157 -15.4667 27.1726 L-15.9823 26.5007 L-13.7167 24.7507 L-12.9042 24.7507 L-12.9042 33.3132 Z"/><path style="fill:black; stroke:none;" d="M7.1593 30.032 Q7.1593 28.4695 7.6124 27.1179 Q8.0656 25.7664 8.9249 24.7507 L9.8624 24.7507 Q9.0187 25.8757 8.5968 27.2273 Q8.1749 28.5789 8.1749 30.0164 Q8.1749 31.4226 8.6124 32.7664 Q9.0499 34.1101 9.8624 35.2195 L8.9249 35.2195 Q8.0656 34.2195 7.6124 32.8836 Q7.1593 31.5476 7.1593 30.032 Z"/><path style="fill:black; stroke:none;" d="M14.9718 25.5164 Q13.5656 25.5164 12.7453 26.4539 Q11.9249 27.3914 11.9249 29.032 Q11.9249 30.7039 12.714 31.6257 Q13.5031 32.5476 14.9562 32.5476 Q15.8624 32.5476 17.0031 32.2195 L17.0031 33.0945 Q16.1124 33.4382 14.8156 33.4382 Q12.9249 33.4382 11.8937 32.282 Q10.8624 31.1257 10.8624 29.0164 Q10.8624 27.6882 11.3546 26.6961 Q11.8468 25.7039 12.7843 25.1648 Q13.7218 24.6257 14.9874 24.6257 Q16.3312 24.6257 17.3468 25.1101 L16.9249 25.9695 Q15.9406 25.5164 14.9718 25.5164 Z"/><path style="fill:black; stroke:none;" d="M20.2218 29.3257 Q21.0031 29.3257 21.464 29.6929 Q21.9249 30.0601 21.9249 30.7007 Q21.9249 31.1226 21.6593 31.4664 Q21.3937 31.8101 20.8156 32.0914 Q21.5187 32.4351 21.8078 32.7945 Q22.0968 33.1539 22.0968 33.6382 Q22.0968 34.357 21.6046 34.7789 Q21.1124 35.2007 20.2531 35.2007 Q19.3312 35.2007 18.839 34.8023 Q18.3468 34.4039 18.3468 33.6695 Q18.3468 32.6851 19.5499 32.1382 Q19.0031 31.8257 18.7687 31.4742 Q18.5343 31.1226 18.5343 30.6851 Q18.5343 30.0601 18.9953 29.6929 Q19.4562 29.3257 20.2218 29.3257 ZM18.9874 33.6851 Q18.9874 34.1539 19.3156 34.4117 Q19.6437 34.6695 20.2374 34.6695 Q20.8156 34.6695 21.1359 34.3961 Q21.4562 34.1226 21.4562 33.6539 Q21.4562 33.2632 21.1515 32.9742 Q20.8468 32.6851 20.0968 32.4039 Q19.5187 32.6539 19.2531 32.9586 Q18.9874 33.2632 18.9874 33.6851 ZM20.2218 29.857 Q19.7218 29.857 19.4484 30.0914 Q19.1749 30.3257 19.1749 30.7164 Q19.1749 31.0757 19.4015 31.3336 Q19.6281 31.5914 20.2531 31.8414 Q20.8156 31.607 21.0499 31.3414 Q21.2843 31.0757 21.2843 30.7164 Q21.2843 30.3257 20.9953 30.0914 Q20.7062 29.857 20.2218 29.857 Z"/><path style="fill:black; stroke:none;" d="M29.6124 33.3132 L28.6124 33.3132 L28.6124 29.282 L24.0968 29.282 L24.0968 33.3132 L23.0968 33.3132 L23.0968 24.7507 L24.0968 24.7507 L24.0968 28.3914 L28.6124 28.3914 L28.6124 24.7507 L29.6124 24.7507 L29.6124 33.3132 Z"/><path style="fill:black; stroke:none;" d="M32.6749 35.1226 L32.0343 35.1226 L32.0343 31.0445 Q32.0343 30.5445 32.0656 30.0914 Q31.9874 30.1695 31.8859 30.2632 Q31.7843 30.357 30.9562 31.0289 L30.6124 30.5757 L32.1281 29.4039 L32.6749 29.4039 L32.6749 35.1226 ZM35.7761 35.1226 L38.1511 30.0132 L35.0417 30.0132 L35.0417 29.4039 L38.8386 29.4039 L38.8386 29.9351 L36.4948 35.1226 L35.7761 35.1226 Z"/><path style="fill:black; stroke:none;" d="M42.5573 30.032 Q42.5573 31.5632 42.0964 32.8992 Q41.6354 34.2351 40.7917 35.2195 L39.8542 35.2195 Q40.6667 34.1101 41.0964 32.7664 Q41.5261 31.4226 41.5261 30.0164 Q41.5261 28.5789 41.1042 27.2273 Q40.6823 25.8757 39.8386 24.7507 L40.7917 24.7507 Q41.6511 25.7664 42.1042 27.1257 Q42.5573 28.4851 42.5573 30.032 Z"/><path style="fill:none; stroke:black;" d="M-39.403 -69.35 L-38.97 -69.6 L-38.537 -69.35"/><path style="fill:none; stroke:black;" d="M-64.52 -54.85 L-64.953 -54.6 L-64.953 -54.1"/><path style="fill:none; stroke:black;" d="M-38.97 -99.1 L-38.97 -99.6 L-39.403 -99.85"/><path style="fill:none; stroke:black;" d="M-90.5 -69.35 L-90.933 -69.6 L-90.933 -70.1"/><path style="fill:none; stroke:black;" d="M-64.52 -114.35 L-64.953 -114.6 L-65.386 -114.35"/><path style="fill:none; stroke:black;" d="M-90.933 -99.1 L-90.933 -99.6 L-90.5 -99.85"/></g></g></svg></svg></svg></svg>