<svg xmlns:ns0="http://www.w3.org/2000/svg" xmlns="http://www.w3.org/2000/svg"><g transform="translate(0, 0)"><ns0:svg width="159" viewBox="0 0 159 119" style="fill-opacity:1; color-rendering:auto; color-interpolation:auto; text-rendering:auto; stroke:black; stroke-linecap:square; stroke-miterlimit:10; shape-rendering:auto; stroke-opacity:1; fill:black; stroke-dasharray:none; font-weight:normal; stroke-width:1; font-family:'Open Sans'; font-style:normal; stroke-linejoin:miter; font-size:12; stroke-dashoffset:0; image-rendering:auto;" height="119" class="cas-substance-image"><ns0:svg class="cas-substance-single-component"><ns0:rect y="0" x="0" width="159" stroke="none" ry="7" rx="7" height="119" fill="white" class="cas-substance-group" /><ns0:svg y="0" x="0" width="159" viewBox="0 0 159 119" style="fill:black;" height="119" class="cas-substance-single-component-image"><ns0:svg><ns0:g><ns0:g transform="translate(78,60)" style="text-rendering:geometricPrecision; color-rendering:optimizeQuality; color-interpolation:linearRGB; stroke-linecap:butt; image-rendering:optimizeQuality;"><ns0:line y2="0" y1="0" x2="69.6484" x1="45" style="fill:none;" /><ns0:line y2="-3.5" y1="-3.5" x2="69.6484" x1="45" style="fill:none;" /><ns0:line y2="3.5" y1="3.5" x2="69.6484" x1="45" style="fill:none;" /><ns0:line y2="0" y1="0" x2="15" x1="45" style="fill:none;" /><ns0:line y2="-25.98" y1="-51.963" x2="0" x1="15" style="fill:none;" /><ns0:line y2="25.98" y1="46.3673" x2="0" x1="11.7696" style="fill:none;" /><ns0:line y2="-25.98" y1="-45.73" x2="-30" x1="-41.4017" style="fill:none;" /><ns0:line y2="0" y1="0" x2="-45" x1="-75" style="fill:none;" /><ns0:line y2="-25.98" y1="0" x2="0" x1="15" style="fill:none;" /><ns0:line y2="25.98" y1="0" x2="0" x1="15" style="fill:none;" /><ns0:line y2="22.48" y1="-0.0001" x2="-2.0207" x1="10.9585" style="fill:none;" /><ns0:line y2="-25.98" y1="-25.98" x2="-30" x1="0" style="fill:none;" /><ns0:line y2="-22.48" y1="-22.48" x2="-27.9793" x1="-2.0207" style="fill:none;" /><ns0:line y2="25.98" y1="25.98" x2="-24.6484" x1="0" style="fill:none;" /><ns0:line y2="0" y1="-25.98" x2="-45" x1="-30" style="fill:none;" /><ns0:line y2="0" y1="19.8417" x2="-45" x1="-33.544" style="fill:none;" /><ns0:line y2="-0.0001" y1="18.0917" x2="-40.9585" x1="-30.513" style="fill:none;" /></ns0:g><ns0:g transform="translate(78,60)" style="fill:rgb(0,5,255); text-rendering:geometricPrecision; color-rendering:optimizeQuality; image-rendering:optimizeQuality; font-family:'Open Sans'; stroke:rgb(0,5,255); color-interpolation:linearRGB;"><ns0:path style="stroke:none;" d="M78.3516 4.1562 L77.2109 4.1562 L72.5234 -3.0312 L72.4766 -3.0312 Q72.5703 -1.7656 72.5703 -0.7188 L72.5703 4.1562 L71.6484 4.1562 L71.6484 -4.4062 L72.7734 -4.4062 L77.4453 2.75 L77.4922 2.75 Q77.4922 2.5938 77.4453 1.7344 Q77.3984 0.875 77.4141 0.5 L77.4141 -4.4062 L78.3516 -4.4062 L78.3516 4.1562 Z" /><ns0:path style="fill:rgb(0,138,0); stroke:none;" d="M14.6914 48.6036 Q13.2852 48.6036 12.4648 49.5411 Q11.6445 50.4786 11.6445 52.1193 Q11.6445 53.7911 12.4336 54.713 Q13.2227 55.6349 14.6758 55.6349 Q15.582 55.6349 16.7227 55.3068 L16.7227 56.1818 Q15.832 56.5255 14.5352 56.5255 Q12.6445 56.5255 11.6133 55.3693 Q10.582 54.213 10.582 52.1036 Q10.582 50.7755 11.0742 49.7833 Q11.5664 48.7911 12.5039 48.2521 Q13.4414 47.713 14.707 47.713 Q16.0508 47.713 17.0664 48.1974 L16.6445 49.0568 Q15.6602 48.6036 14.6914 48.6036 ZM19.418 56.4005 L18.4492 56.4005 L18.4492 47.2755 L19.418 47.2755 L19.418 56.4005 Z" /><ns0:path style="fill:rgb(0,138,0); stroke:none;" d="M-45.3086 -55.3224 Q-46.7148 -55.3224 -47.5352 -54.3849 Q-48.3555 -53.4474 -48.3555 -51.8068 Q-48.3555 -50.1349 -47.5664 -49.213 Q-46.7773 -48.2911 -45.3242 -48.2911 Q-44.418 -48.2911 -43.2773 -48.6193 L-43.2773 -47.7443 Q-44.168 -47.4005 -45.4648 -47.4005 Q-47.3555 -47.4005 -48.3867 -48.5568 Q-49.418 -49.713 -49.418 -51.8224 Q-49.418 -53.1505 -48.9258 -54.1427 Q-48.4336 -55.1349 -47.4961 -55.6739 Q-46.5586 -56.213 -45.293 -56.213 Q-43.9492 -56.213 -42.9336 -55.7286 L-43.3555 -54.8693 Q-44.3398 -55.3224 -45.3086 -55.3224 ZM-40.582 -47.5255 L-41.5508 -47.5255 L-41.5508 -56.6505 L-40.582 -56.6505 L-40.582 -47.5255 Z" /></ns0:g><ns0:g transform="translate(78,60)" style="stroke-linecap:butt; text-rendering:geometricPrecision; color-rendering:optimizeQuality; image-rendering:optimizeQuality; font-family:'Open Sans'; color-interpolation:linearRGB; stroke-miterlimit:5;"><ns0:path style="fill:none;" d="M14.75 0.433 L15 0 L15.5 0" /><ns0:path style="fill:none;" d="M-0.5 -25.98 L0 -25.98 L0.25 -26.413" /><ns0:path style="fill:none;" d="M0.25 25.547 L0 25.98 L0.25 26.413" /><ns0:path style="fill:none;" d="M-29.5 -25.98 L-30 -25.98 L-30.25 -26.413" /><ns0:path style="fill:rgb(0,5,255); stroke:none;" d="M-26.6484 30.1362 L-27.7891 30.1362 L-32.4766 22.9487 L-32.5234 22.9487 Q-32.4297 24.2144 -32.4297 25.2612 L-32.4297 30.1362 L-33.3516 30.1362 L-33.3516 21.5737 L-32.2266 21.5737 L-27.5547 28.73 L-27.5078 28.73 Q-27.5078 28.5737 -27.5547 27.7144 Q-27.6016 26.855 -27.5859 26.48 L-27.5859 21.5737 L-26.6484 21.5737 L-26.6484 30.1362 Z" /><ns0:path style="fill:none;" d="M-44.75 0.433 L-45 0 L-45.5 -0" /></ns0:g></ns0:g></ns0:svg></ns0:svg></ns0:svg></ns0:svg></g></svg>