<svg xmlns:ns0="http://www.w3.org/2000/svg" xmlns="http://www.w3.org/2000/svg"><g transform="translate(0, 0)"><ns0:svg width="244" viewBox="0 0 244 220" style="fill-opacity:1; color-rendering:auto; color-interpolation:auto; text-rendering:auto; stroke:black; stroke-linecap:square; stroke-miterlimit:10; shape-rendering:auto; stroke-opacity:1; fill:black; stroke-dasharray:none; font-weight:normal; stroke-width:1; font-family:'Open Sans'; font-style:normal; stroke-linejoin:miter; font-size:12; stroke-dashoffset:0; image-rendering:auto;" height="220" class="cas-substance-image"><ns0:svg class="cas-substance-single-component"><ns0:rect y="0" x="0" width="244" stroke="none" ry="7" rx="7" height="220" fill="white" class="cas-substance-group" /><ns0:svg y="0" x="0" width="244" viewBox="0 0 244 220" style="fill:black;" height="220" class="cas-substance-single-component-image"><ns0:svg><ns0:g><ns0:g transform="translate(124,112)" style="text-rendering:geometricPrecision; color-rendering:optimizeQuality; color-interpolation:linearRGB; stroke-linecap:butt; image-rendering:optimizeQuality;"><ns0:line y2="-75" y1="-63.2414" x2="-38.97" x1="-18.6041" style="fill:none;" /><ns0:path style="stroke:none;" d="M-15.9029 -52.8242 L-15.7972 -51.8242 L-10.1828 -51.8242 L-10.0771 -52.8242 ZM-15.5857 -49.8242 L-15.48 -48.8242 L-10.5 -48.8242 L-10.3943 -49.8242 ZM-15.2686 -46.8242 L-15.1629 -45.8242 L-10.8171 -45.8242 L-10.7114 -46.8242 ZM-14.9514 -43.8242 L-14.8457 -42.8242 L-11.1343 -42.8242 L-11.0286 -43.8242 ZM-14.6343 -40.8242 L-14.5286 -39.8242 L-11.4514 -39.8242 L-11.3457 -40.8242 ZM-14.3171 -37.8242 L-14.2114 -36.8242 L-11.7686 -36.8242 L-11.6629 -37.8242 ZM-14 -34.8242 L-13.8943 -33.8242 L-12.0857 -33.8242 L-11.98 -34.8242 ZM-13.6828 -31.8242 L-13.5771 -30.8242 L-12.4029 -30.8242 L-12.2972 -31.8242 Z" /><ns0:line y2="-60" y1="-75" x2="-64.953" x1="-38.97" style="fill:none;" /><ns0:line y2="-98.6484" y1="-73.9896" x2="-37.22" x1="-37.22" style="fill:none;" /><ns0:line y2="-98.6484" y1="-73.9897" x2="-40.72" x1="-40.72" style="fill:none;" /><ns0:line y2="-15" y1="-26.8112" x2="-90.933" x1="-70.476" style="fill:none;" /><ns0:path style="stroke:none;" d="M-38.72 -15.433 L-39.22 -14.567 L-60.9474 -24.2235 L-57.9475 -29.4198 Z" /><ns0:line y2="15" y1="-15" x2="-90.933" x1="-90.933" style="fill:none;" /><ns0:line y2="-28.3369" y1="-16.0104" x2="-110.5326" x1="-89.183" style="fill:none;" /><ns0:line y2="-25.3059" y1="-12.9793" x2="-112.2827" x1="-90.933" style="fill:none;" /><ns0:line y2="-18.2412" y1="-30" x2="59.3387" x1="38.97" style="fill:none;" /><ns0:path style="stroke:none;" d="M13.24 -14.567 L12.74 -15.433 L36.2199 -32.165 L42.2201 -28.7011 Z" /><ns0:line y2="-30" y1="-18.226" x2="90.933" x1="70.5405" style="fill:none;" /><ns0:line y2="-15" y1="-30" x2="116.913" x1="90.933" style="fill:none;" /><ns0:line y2="-53.6484" y1="-28.9896" x2="92.683" x1="92.683" style="fill:none;" /><ns0:line y2="-53.6484" y1="-28.9896" x2="89.183" x1="89.183" style="fill:none;" /><ns0:path style="stroke:none;" d="M-39.22 14.567 L-38.72 15.433 L-57.8654 29.3723 L-60.8652 24.1761 Z" /><ns0:line y2="75" y1="63.1786" x2="12.99" x1="-7.4846" style="fill:none;" /><ns0:path style="stroke:none;" d="M-13.49 30 L-12.49 30 L-9.99 53.5234 L-15.99 53.5234 Z" /><ns0:line y2="105" y1="75" x2="12.99" x1="12.99" style="fill:none;" /><ns0:line y2="64.7044" y1="77.0207" x2="34.322" x1="12.99" style="fill:none;" /><ns0:line y2="61.6733" y1="73.9896" x2="32.5719" x1="11.24" style="fill:none;" /><ns0:line y2="-15" y1="-30" x2="-38.97" x1="-12.99" style="fill:none;" /><ns0:line y2="-15" y1="-30" x2="12.99" x1="-12.99" style="fill:none;" /><ns0:line y2="15" y1="-15" x2="-38.97" x1="-38.97" style="fill:none;" /><ns0:line y2="8.5234" y1="-15" x2="12.99" x1="12.99" style="fill:none;" /><ns0:line y2="30" y1="15" x2="-12.99" x1="-38.97" style="fill:none;" /><ns0:line y2="30" y1="18.1888" x2="-12.99" x1="7.467" style="fill:none;" /></ns0:g><ns0:g transform="translate(124,112)" style="fill:rgb(230,0,0); text-rendering:geometricPrecision; color-rendering:optimizeQuality; image-rendering:optimizeQuality; font-family:'Open Sans'; stroke:rgb(230,0,0); color-interpolation:linearRGB;"><ns0:path style="stroke:none;" d="M-9.0525 -60.0703 Q-9.0525 -58.0078 -10.0916 -56.8281 Q-11.1306 -55.6484 -12.9744 -55.6484 Q-14.865 -55.6484 -15.8962 -56.8125 Q-16.9275 -57.9766 -16.9275 -60.0859 Q-16.9275 -62.1797 -15.8962 -63.3281 Q-14.865 -64.4766 -12.9744 -64.4766 Q-11.115 -64.4766 -10.0837 -63.3047 Q-9.0525 -62.1328 -9.0525 -60.0703 ZM-15.8806 -60.0703 Q-15.8806 -58.3359 -15.1384 -57.4297 Q-14.3962 -56.5234 -12.9744 -56.5234 Q-11.5525 -56.5234 -10.8259 -57.4219 Q-10.0994 -58.3203 -10.0994 -60.0703 Q-10.0994 -61.8047 -10.8259 -62.6953 Q-11.5525 -63.5859 -12.9744 -63.5859 Q-14.3962 -63.5859 -15.1384 -62.6875 Q-15.8806 -61.7891 -15.8806 -60.0703 Z" /></ns0:g><ns0:g transform="translate(124,112)" style="stroke-linecap:butt; text-rendering:geometricPrecision; color-rendering:optimizeQuality; image-rendering:optimizeQuality; font-family:'Open Sans'; color-interpolation:linearRGB; stroke-miterlimit:5;"><ns0:path style="fill:none;" d="M-38.537 -74.75 L-38.97 -75 L-39.403 -74.75" /><ns0:path style="fill:rgb(230,0,0); stroke:none;" d="M-35.0325 -105.0703 Q-35.0325 -103.0078 -36.0716 -101.8281 Q-37.1106 -100.6484 -38.9544 -100.6484 Q-40.845 -100.6484 -41.8763 -101.8125 Q-42.9075 -102.9766 -42.9075 -105.0859 Q-42.9075 -107.1797 -41.8763 -108.3281 Q-40.845 -109.4766 -38.9544 -109.4766 Q-37.095 -109.4766 -36.0638 -108.3047 Q-35.0325 -107.1328 -35.0325 -105.0703 ZM-41.8606 -105.0703 Q-41.8606 -103.3359 -41.1184 -102.4297 Q-40.3763 -101.5234 -38.9544 -101.5234 Q-37.5325 -101.5234 -36.8059 -102.4219 Q-36.0794 -103.3203 -36.0794 -105.0703 Q-36.0794 -106.8047 -36.8059 -107.6953 Q-37.5325 -108.5859 -38.9544 -108.5859 Q-40.3763 -108.5859 -41.1184 -107.6875 Q-41.8606 -106.7891 -41.8606 -105.0703 Z" /><ns0:path style="fill:rgb(230,0,0); stroke:none;" d="M-61.0155 -30.0703 Q-61.0155 -28.0078 -62.0546 -26.8281 Q-63.0936 -25.6484 -64.9374 -25.6484 Q-66.828 -25.6484 -67.8593 -26.8125 Q-68.8905 -27.9766 -68.8905 -30.0859 Q-68.8905 -32.1797 -67.8593 -33.3281 Q-66.828 -34.4766 -64.9374 -34.4766 Q-63.078 -34.4766 -62.0468 -33.3047 Q-61.0155 -32.1328 -61.0155 -30.0703 ZM-67.8436 -30.0703 Q-67.8436 -28.3359 -67.1014 -27.4297 Q-66.3593 -26.5234 -64.9374 -26.5234 Q-63.5155 -26.5234 -62.7889 -27.4219 Q-62.0624 -28.3203 -62.0624 -30.0703 Q-62.0624 -31.8047 -62.7889 -32.6953 Q-63.5155 -33.5859 -64.9374 -33.5859 Q-66.3593 -33.5859 -67.1014 -32.6875 Q-67.8436 -31.7891 -67.8436 -30.0703 Z" /><ns0:path style="fill:none;" d="M-90.5 -15.25 L-90.933 -15 L-90.933 -14.5" /><ns0:path style="fill:rgb(230,0,0); stroke:none;" d="M-112.9755 -30.0703 Q-112.9755 -28.0078 -114.0146 -26.8281 Q-115.0536 -25.6484 -116.8974 -25.6484 Q-118.788 -25.6484 -119.8193 -26.8125 Q-120.8505 -27.9766 -120.8505 -30.0859 Q-120.8505 -32.1797 -119.8193 -33.3281 Q-118.788 -34.4766 -116.8974 -34.4766 Q-115.038 -34.4766 -114.0068 -33.3047 Q-112.9755 -32.1328 -112.9755 -30.0703 ZM-119.8036 -30.0703 Q-119.8036 -28.3359 -119.0614 -27.4297 Q-118.3193 -26.5234 -116.8974 -26.5234 Q-115.4755 -26.5234 -114.7489 -27.4219 Q-114.0224 -28.3203 -114.0224 -30.0703 Q-114.0224 -31.8047 -114.7489 -32.6953 Q-115.4755 -33.5859 -116.8974 -33.5859 Q-118.3193 -33.5859 -119.0614 -32.6875 Q-119.8036 -31.7891 -119.8036 -30.0703 Z" /><ns0:path style="fill:rgb(230,0,0); stroke:none;" d="M68.8905 -15.0703 Q68.8905 -13.0078 67.8514 -11.8281 Q66.8124 -10.6484 64.9686 -10.6484 Q63.078 -10.6484 62.0468 -11.8125 Q61.0155 -12.9766 61.0155 -15.0859 Q61.0155 -17.1797 62.0468 -18.3281 Q63.078 -19.4766 64.9686 -19.4766 Q66.828 -19.4766 67.8593 -18.3047 Q68.8905 -17.1328 68.8905 -15.0703 ZM62.0624 -15.0703 Q62.0624 -13.3359 62.8046 -12.4297 Q63.5468 -11.5234 64.9686 -11.5234 Q66.3905 -11.5234 67.1171 -12.4219 Q67.8436 -13.3203 67.8436 -15.0703 Q67.8436 -16.8047 67.1171 -17.6953 Q66.3905 -18.5859 64.9686 -18.5859 Q63.5468 -18.5859 62.8046 -17.6875 Q62.0624 -16.7891 62.0624 -15.0703 Z" /><ns0:path style="fill:none;" d="M90.5 -29.75 L90.933 -30 L91.366 -29.75" /><ns0:path style="fill:rgb(230,0,0); stroke:none;" d="M94.8705 -60.0703 Q94.8705 -58.0078 93.8314 -56.8281 Q92.7924 -55.6484 90.9486 -55.6484 Q89.058 -55.6484 88.0267 -56.8125 Q86.9955 -57.9766 86.9955 -60.0859 Q86.9955 -62.1797 88.0267 -63.3281 Q89.058 -64.4766 90.9486 -64.4766 Q92.808 -64.4766 93.8392 -63.3047 Q94.8705 -62.1328 94.8705 -60.0703 ZM88.0424 -60.0703 Q88.0424 -58.3359 88.7846 -57.4297 Q89.5267 -56.5234 90.9486 -56.5234 Q92.3705 -56.5234 93.0971 -57.4219 Q93.8236 -58.3203 93.8236 -60.0703 Q93.8236 -61.8047 93.0971 -62.6953 Q92.3705 -63.5859 90.9486 -63.5859 Q89.5267 -63.5859 88.7846 -62.6875 Q88.0424 -61.7891 88.0424 -60.0703 Z" /><ns0:path style="fill:rgb(230,0,0); stroke:none;" d="M-61.0155 29.9297 Q-61.0155 31.9922 -62.0546 33.1719 Q-63.0936 34.3516 -64.9374 34.3516 Q-66.828 34.3516 -67.8593 33.1875 Q-68.8905 32.0234 -68.8905 29.9141 Q-68.8905 27.8203 -67.8593 26.6719 Q-66.828 25.5234 -64.9374 25.5234 Q-63.078 25.5234 -62.0468 26.6953 Q-61.0155 27.8672 -61.0155 29.9297 ZM-67.8436 29.9297 Q-67.8436 31.6641 -67.1014 32.5703 Q-66.3593 33.4766 -64.9374 33.4766 Q-63.5155 33.4766 -62.7889 32.5781 Q-62.0624 31.6797 -62.0624 29.9297 Q-62.0624 28.1953 -62.7889 27.3047 Q-63.5155 26.4141 -64.9374 26.4141 Q-66.3593 26.4141 -67.1014 27.3125 Q-67.8436 28.2109 -67.8436 29.9297 Z" /><ns0:path style="fill:rgb(230,0,0); stroke:none;" d="M-69.8905 34.2266 L-70.8905 34.2266 L-70.8905 30.1953 L-75.4061 30.1953 L-75.4061 34.2266 L-76.4061 34.2266 L-76.4061 25.6641 L-75.4061 25.6641 L-75.4061 29.3047 L-70.8905 29.3047 L-70.8905 25.6641 L-69.8905 25.6641 L-69.8905 34.2266 Z" /><ns0:path style="fill:rgb(230,0,0); stroke:none;" d="M-9.0525 59.9297 Q-9.0525 61.9922 -10.0916 63.1719 Q-11.1306 64.3516 -12.9744 64.3516 Q-14.865 64.3516 -15.8962 63.1875 Q-16.9275 62.0234 -16.9275 59.9141 Q-16.9275 57.8203 -15.8962 56.6719 Q-14.865 55.5234 -12.9744 55.5234 Q-11.115 55.5234 -10.0837 56.6953 Q-9.0525 57.8672 -9.0525 59.9297 ZM-15.8806 59.9297 Q-15.8806 61.6641 -15.1384 62.5703 Q-14.3962 63.4766 -12.9744 63.4766 Q-11.5525 63.4766 -10.8259 62.5781 Q-10.0994 61.6797 -10.0994 59.9297 Q-10.0994 58.1953 -10.8259 57.3047 Q-11.5525 56.4141 -12.9744 56.4141 Q-14.3962 56.4141 -15.1384 57.3125 Q-15.8806 58.2109 -15.8806 59.9297 Z" /><ns0:path style="fill:none;" d="M12.557 74.75 L12.99 75 L12.99 75.5" /><ns0:path style="fill:rgb(230,0,0); stroke:none;" d="M42.9075 59.9297 Q42.9075 61.9922 41.8684 63.1719 Q40.8294 64.3516 38.9856 64.3516 Q37.095 64.3516 36.0638 63.1875 Q35.0325 62.0234 35.0325 59.9141 Q35.0325 57.8203 36.0638 56.6719 Q37.095 55.5234 38.9856 55.5234 Q40.845 55.5234 41.8763 56.6953 Q42.9075 57.8672 42.9075 59.9297 ZM36.0794 59.9297 Q36.0794 61.6641 36.8216 62.5703 Q37.5638 63.4766 38.9856 63.4766 Q40.4075 63.4766 41.1341 62.5781 Q41.8606 61.6797 41.8606 59.9297 Q41.8606 58.1953 41.1341 57.3047 Q40.4075 56.4141 38.9856 56.4141 Q37.5638 56.4141 36.8216 57.3125 Q36.0794 58.2109 36.0794 59.9297 Z" /><ns0:path style="fill:none;" d="M-13.423 -29.75 L-12.99 -30 L-12.557 -29.75" /></ns0:g><ns0:g transform="translate(124,112)" style="stroke-linecap:butt; font-size:8.4px; fill:gray; text-rendering:geometricPrecision; image-rendering:optimizeQuality; color-rendering:optimizeQuality; font-family:'Open Sans'; font-style:italic; stroke:gray; color-interpolation:linearRGB; stroke-miterlimit:5;"><ns0:path style="stroke:none;" d="M-26.0388 -33.836 Q-26.0388 -35.1642 -25.5701 -36.2892 Q-25.1013 -37.4142 -24.0701 -38.4923 L-23.4607 -38.4923 Q-24.4295 -37.4298 -24.9138 -36.2579 Q-25.3982 -35.086 -25.3982 -33.8517 Q-25.3982 -32.5235 -24.9607 -31.5079 L-25.4763 -31.5079 Q-26.0388 -32.5392 -26.0388 -33.836 ZM-22.4788 -35.1485 L-22.9788 -32.7735 L-23.635 -32.7735 L-22.4319 -38.4923 L-21.1819 -38.4923 Q-19.4475 -38.4923 -19.4475 -37.0548 Q-19.4475 -35.6954 -20.885 -35.3048 L-19.9475 -32.7735 L-20.6663 -32.7735 L-21.4944 -35.1485 L-22.4788 -35.1485 ZM-21.9006 -37.8985 Q-22.2913 -35.9767 -22.3538 -35.7267 L-21.6975 -35.7267 Q-20.9475 -35.7267 -20.5413 -36.0548 Q-20.135 -36.3829 -20.135 -37.0079 Q-20.135 -37.4767 -20.3928 -37.6876 Q-20.6506 -37.8985 -21.2444 -37.8985 L-21.9006 -37.8985 ZM-17.2615 -36.1485 Q-17.2615 -34.8204 -17.7381 -33.6876 Q-18.2147 -32.5548 -19.2303 -31.5079 L-19.8397 -31.5079 Q-17.9022 -33.6642 -17.9022 -36.1485 Q-17.9022 -37.4767 -18.3397 -38.4923 L-17.824 -38.4923 Q-17.2615 -37.4298 -17.2615 -36.1485 Z" /><ns0:path style="stroke:none;" d="M-43.3589 -23.8359 Q-43.3589 -25.1641 -42.8901 -26.2891 Q-42.4214 -27.4141 -41.3901 -28.4922 L-40.7808 -28.4922 Q-41.7495 -27.4297 -42.2339 -26.2578 Q-42.7183 -25.0859 -42.7183 -23.8516 Q-42.7183 -22.5234 -42.2808 -21.5078 L-42.7964 -21.5078 Q-43.3589 -22.5391 -43.3589 -23.8359 ZM-39.7988 -25.1484 L-40.2988 -22.7734 L-40.9551 -22.7734 L-39.752 -28.4922 L-38.502 -28.4922 Q-36.7676 -28.4922 -36.7676 -27.0547 Q-36.7676 -25.6953 -38.2051 -25.3047 L-37.2676 -22.7734 L-37.9863 -22.7734 L-38.8145 -25.1484 L-39.7988 -25.1484 ZM-39.2207 -27.8984 Q-39.6113 -25.9766 -39.6738 -25.7266 L-39.0176 -25.7266 Q-38.2676 -25.7266 -37.8613 -26.0547 Q-37.4551 -26.3828 -37.4551 -27.0078 Q-37.4551 -27.4766 -37.7129 -27.6875 Q-37.9707 -27.8984 -38.5645 -27.8984 L-39.2207 -27.8984 ZM-34.5816 -26.1484 Q-34.5816 -24.8203 -35.0582 -23.6875 Q-35.5347 -22.5547 -36.5504 -21.5078 L-37.1597 -21.5078 Q-35.2222 -23.6641 -35.2222 -26.1484 Q-35.2222 -27.4766 -35.6597 -28.4922 L-35.1441 -28.4922 Q-34.5816 -27.4297 -34.5816 -26.1484 Z" /><ns0:path style="stroke:none;" d="M8.6014 -23.8359 Q8.6014 -25.1641 9.0701 -26.2891 Q9.5389 -27.4141 10.5701 -28.4922 L11.1795 -28.4922 Q10.2107 -27.4297 9.7264 -26.2578 Q9.242 -25.0859 9.242 -23.8516 Q9.242 -22.5234 9.6795 -21.5078 L9.1639 -21.5078 Q8.6014 -22.5391 8.6014 -23.8359 ZM12.1614 -25.1484 L11.6614 -22.7734 L11.0052 -22.7734 L12.2083 -28.4922 L13.4583 -28.4922 Q15.1927 -28.4922 15.1927 -27.0547 Q15.1927 -25.6953 13.7552 -25.3047 L14.6927 -22.7734 L13.9739 -22.7734 L13.1458 -25.1484 L12.1614 -25.1484 ZM12.7395 -27.8984 Q12.3489 -25.9766 12.2864 -25.7266 L12.9427 -25.7266 Q13.6927 -25.7266 14.0989 -26.0547 Q14.5052 -26.3828 14.5052 -27.0078 Q14.5052 -27.4766 14.2474 -27.6875 Q13.9895 -27.8984 13.3958 -27.8984 L12.7395 -27.8984 ZM17.3786 -26.1484 Q17.3786 -24.8203 16.9021 -23.6875 Q16.4255 -22.5547 15.4099 -21.5078 L14.8005 -21.5078 Q16.738 -23.6641 16.738 -26.1484 Q16.738 -27.4766 16.3005 -28.4922 L16.8161 -28.4922 Q17.3786 -27.4297 17.3786 -26.1484 Z" /><ns0:path style="stroke:none;" d="M-51.7388 11.2032 Q-51.7388 9.8751 -51.2701 8.7501 Q-50.8013 7.6251 -49.7701 6.547 L-49.1607 6.547 Q-50.1295 7.6095 -50.6138 8.7814 Q-51.0982 9.9532 -51.0982 11.1876 Q-51.0982 12.5157 -50.6607 13.5314 L-51.1763 13.5314 Q-51.7388 12.5001 -51.7388 11.2032 ZM-46.1163 10.6095 Q-46.1163 11.4376 -46.6632 11.8907 Q-47.21 12.3439 -48.21 12.3439 Q-48.6163 12.3439 -48.9288 12.2892 Q-49.2413 12.2345 -49.5225 12.0939 L-49.5225 11.4376 Q-48.8975 11.7657 -48.1944 11.7657 Q-47.5694 11.7657 -47.1944 11.4689 Q-46.8194 11.172 -46.8194 10.6564 Q-46.8194 10.3439 -47.0225 10.1173 Q-47.2257 9.8907 -47.7882 9.5626 Q-48.3819 9.2345 -48.6085 8.9064 Q-48.835 8.5782 -48.835 8.1251 Q-48.835 7.3907 -48.3194 6.9298 Q-47.8038 6.4689 -46.96 6.4689 Q-46.585 6.4689 -46.2491 6.547 Q-45.9132 6.6251 -45.5382 6.797 L-45.8038 7.3907 Q-46.0538 7.2345 -46.3741 7.1485 Q-46.6944 7.0626 -46.96 7.0626 Q-47.4913 7.0626 -47.8116 7.336 Q-48.1319 7.6095 -48.1319 8.0782 Q-48.1319 8.2814 -48.0616 8.4298 Q-47.9913 8.5782 -47.8507 8.711 Q-47.71 8.8439 -47.2882 9.0939 Q-46.7257 9.4376 -46.5225 9.6329 Q-46.3194 9.8282 -46.2178 10.0626 Q-46.1163 10.297 -46.1163 10.6095 ZM-43.5218 8.8907 Q-43.5218 10.2189 -43.9984 11.3517 Q-44.4749 12.4845 -45.4905 13.5314 L-46.0999 13.5314 Q-44.1624 11.3751 -44.1624 8.8907 Q-44.1624 7.5626 -44.5999 6.547 L-44.0843 6.547 Q-43.5218 7.6095 -43.5218 8.8907 Z" /></ns0:g><ns0:g transform="translate(124,112)" style="stroke-linecap:butt; fill:rgb(230,0,0); text-rendering:geometricPrecision; color-rendering:optimizeQuality; image-rendering:optimizeQuality; font-family:'Open Sans'; stroke:rgb(230,0,0); color-interpolation:linearRGB; stroke-miterlimit:5;"><ns0:path style="stroke:none;" d="M16.9275 14.9297 Q16.9275 16.9922 15.8884 18.1719 Q14.8494 19.3516 13.0056 19.3516 Q11.115 19.3516 10.0837 18.1875 Q9.0525 17.0234 9.0525 14.9141 Q9.0525 12.8203 10.0837 11.6719 Q11.115 10.5234 13.0056 10.5234 Q14.865 10.5234 15.8962 11.6953 Q16.9275 12.8672 16.9275 14.9297 ZM10.0994 14.9297 Q10.0994 16.6641 10.8416 17.5703 Q11.5837 18.4766 13.0056 18.4766 Q14.4275 18.4766 15.1541 17.5781 Q15.8806 16.6797 15.8806 14.9297 Q15.8806 13.1953 15.1541 12.3047 Q14.4275 11.4141 13.0056 11.4141 Q11.5837 11.4141 10.8416 12.3125 Q10.0994 13.2109 10.0994 14.9297 Z" /></ns0:g><ns0:g transform="translate(124,112)" style="stroke-linecap:butt; font-size:8.4px; fill:gray; text-rendering:geometricPrecision; image-rendering:optimizeQuality; color-rendering:optimizeQuality; font-family:'Open Sans'; font-style:italic; stroke:gray; color-interpolation:linearRGB; stroke-miterlimit:5;"><ns0:path style="stroke:none;" d="M-17.0985 21.2031 Q-17.0985 19.875 -16.6298 18.75 Q-16.161 17.625 -15.1298 16.5469 L-14.5204 16.5469 Q-15.4891 17.6094 -15.9735 18.7812 Q-16.4579 19.9531 -16.4579 21.1875 Q-16.4579 22.5156 -16.0204 23.5312 L-16.536 23.5312 Q-17.0985 22.5 -17.0985 21.2031 ZM-11.476 20.6094 Q-11.476 21.4375 -12.0228 21.8906 Q-12.5697 22.3438 -13.5697 22.3438 Q-13.976 22.3438 -14.2885 22.2891 Q-14.601 22.2344 -14.8822 22.0938 L-14.8822 21.4375 Q-14.2572 21.7656 -13.5541 21.7656 Q-12.9291 21.7656 -12.5541 21.4688 Q-12.1791 21.1719 -12.1791 20.6562 Q-12.1791 20.3438 -12.3822 20.1172 Q-12.5853 19.8906 -13.1478 19.5625 Q-13.7416 19.2344 -13.9681 18.9062 Q-14.1947 18.5781 -14.1947 18.125 Q-14.1947 17.3906 -13.6791 16.9297 Q-13.1635 16.4688 -12.3197 16.4688 Q-11.9447 16.4688 -11.6088 16.5469 Q-11.2728 16.625 -10.8978 16.7969 L-11.1635 17.3906 Q-11.4135 17.2344 -11.7338 17.1484 Q-12.0541 17.0625 -12.3197 17.0625 Q-12.851 17.0625 -13.1713 17.3359 Q-13.4916 17.6094 -13.4916 18.0781 Q-13.4916 18.2812 -13.4213 18.4297 Q-13.351 18.5781 -13.2103 18.7109 Q-13.0697 18.8438 -12.6478 19.0938 Q-12.0853 19.4375 -11.8822 19.6328 Q-11.6791 19.8281 -11.5775 20.0625 Q-11.476 20.2969 -11.476 20.6094 ZM-8.8815 18.8906 Q-8.8815 20.2188 -9.358 21.3516 Q-9.8346 22.4844 -10.8502 23.5312 L-11.4596 23.5312 Q-9.5221 21.375 -9.5221 18.8906 Q-9.5221 17.5625 -9.9596 16.5469 L-9.444 16.5469 Q-8.8815 17.6094 -8.8815 18.8906 Z" /></ns0:g></ns0:g></ns0:svg></ns0:svg></ns0:svg></ns0:svg></g></svg>