<svg width="113" viewBox="0 0 113 110" style="fill-opacity:1; color-rendering:auto; color-interpolation:auto; text-rendering:auto; stroke:black; stroke-linecap:square; stroke-miterlimit:10; shape-rendering:auto; stroke-opacity:1; fill:black; stroke-dasharray:none; font-weight:normal; stroke-width:1; font-family:'Open Sans'; font-style:normal; stroke-linejoin:miter; font-size:12; stroke-dashoffset:0; image-rendering:auto;" height="110" class="cas-substance-image" xmlns:xlink="http://www.w3.org/1999/xlink" xmlns="http://www.w3.org/2000/svg"><svg class="cas-substance-single-component"><rect y="0" x="0" width="113" stroke="none" ry="7" rx="7" height="110" fill="white" class="cas-substance-group"/><svg y="0" x="0" width="113" viewBox="0 0 113 110" style="fill:black;" height="110" class="cas-substance-single-component-image"><svg><g><g transform="translate(56,62)" style="text-rendering:geometricPrecision; color-rendering:optimizeQuality; color-interpolation:linearRGB; stroke-linecap:butt; image-rendering:optimizeQuality;"><path style="stroke:none;" d="M-25.73 -30.433 L-26.23 -29.567 L-53.4629 -42.4019 L-50.4631 -47.5981 Z"/><path style="stroke:none;" d="M26.23 -29.567 L25.73 -30.433 L50.4631 -47.5981 L53.4629 -42.4019 Z"/><path style="stroke:none;" d="M-0.5 15 L0.5 15 L3 45 L-3 45 Z"/><line y2="-30" y1="-42.0649" x2="-25.98" x1="-5.0836" style="fill:none;"/><line y2="-30" y1="-42.0649" x2="25.98" x1="5.0836" style="fill:none;"/><line y2="-6.4688" y1="-30" x2="-25.98" x1="-25.98" style="fill:none;"/><line y2="-6.4688" y1="-30" x2="25.98" x1="25.98" style="fill:none;"/><line y2="15" y1="2.5562" x2="0" x1="-21.5526" style="fill:none;"/><line y2="15" y1="2.5417" x2="0" x1="21.5778" style="fill:none;"/></g><g transform="translate(56,62)" style="fill:rgb(0,5,255); text-rendering:geometricPrecision; color-rendering:optimizeQuality; image-rendering:optimizeQuality; font-family:'Open Sans'; stroke:rgb(0,5,255); color-interpolation:linearRGB;"><path style="stroke:none;" d="M3.3516 -40.8438 L2.2109 -40.8438 L-2.4766 -48.0312 L-2.5234 -48.0312 Q-2.4297 -46.7656 -2.4297 -45.7188 L-2.4297 -40.8438 L-3.3516 -40.8438 L-3.3516 -49.4062 L-2.2266 -49.4062 L2.4453 -42.25 L2.4922 -42.25 Q2.4922 -42.4062 2.4453 -43.2656 Q2.3984 -44.125 2.4141 -44.5 L2.4141 -49.4062 L3.3516 -49.4062 L3.3516 -40.8438 Z"/><path style="stroke:none;" d="M3.2578 -50.4062 L2.2578 -50.4062 L2.2578 -54.4375 L-2.2578 -54.4375 L-2.2578 -50.4062 L-3.2578 -50.4062 L-3.2578 -58.9688 L-2.2578 -58.9688 L-2.2578 -55.3281 L2.2578 -55.3281 L2.2578 -58.9688 L3.2578 -58.9688 L3.2578 -50.4062 Z"/></g><g transform="translate(56,62)" style="font-size:8.4px; fill:gray; text-rendering:geometricPrecision; image-rendering:optimizeQuality; color-rendering:optimizeQuality; font-family:'Open Sans'; font-style:italic; stroke:gray; color-interpolation:linearRGB;"><path style="stroke:none;" d="M-30.0888 -38.7969 Q-30.0888 -40.125 -29.62 -41.25 Q-29.1513 -42.375 -28.12 -43.4531 L-27.5106 -43.4531 Q-28.4794 -42.3906 -28.9638 -41.2188 Q-29.4481 -40.0469 -29.4481 -38.8125 Q-29.4481 -37.4844 -29.0106 -36.4688 L-29.5263 -36.4688 Q-30.0888 -37.5 -30.0888 -38.7969 ZM-24.4662 -39.3906 Q-24.4662 -38.5625 -25.0131 -38.1094 Q-25.56 -37.6562 -26.56 -37.6562 Q-26.9662 -37.6562 -27.2787 -37.7109 Q-27.5912 -37.7656 -27.8725 -37.9062 L-27.8725 -38.5625 Q-27.2475 -38.2344 -26.5443 -38.2344 Q-25.9193 -38.2344 -25.5443 -38.5312 Q-25.1693 -38.8281 -25.1693 -39.3438 Q-25.1693 -39.6562 -25.3725 -39.8828 Q-25.5756 -40.1094 -26.1381 -40.4375 Q-26.7318 -40.7656 -26.9584 -41.0938 Q-27.185 -41.4219 -27.185 -41.875 Q-27.185 -42.6094 -26.6693 -43.0703 Q-26.1537 -43.5312 -25.31 -43.5312 Q-24.935 -43.5312 -24.599 -43.4531 Q-24.2631 -43.375 -23.8881 -43.2031 L-24.1537 -42.6094 Q-24.4037 -42.7656 -24.724 -42.8516 Q-25.0443 -42.9375 -25.31 -42.9375 Q-25.8412 -42.9375 -26.1615 -42.6641 Q-26.4818 -42.3906 -26.4818 -41.9219 Q-26.4818 -41.7188 -26.4115 -41.5703 Q-26.3412 -41.4219 -26.2006 -41.2891 Q-26.06 -41.1562 -25.6381 -40.9062 Q-25.0756 -40.5625 -24.8725 -40.3672 Q-24.6693 -40.1719 -24.5678 -39.9375 Q-24.4662 -39.7031 -24.4662 -39.3906 ZM-21.8717 -41.1094 Q-21.8717 -39.7812 -22.3483 -38.6484 Q-22.8249 -37.5156 -23.8405 -36.4688 L-24.4499 -36.4688 Q-22.5124 -38.625 -22.5124 -41.1094 Q-22.5124 -42.4375 -22.9499 -43.4531 L-22.4342 -43.4531 Q-21.8717 -42.3906 -21.8717 -41.1094 Z"/><path style="stroke:none;" d="M21.5916 -38.8359 Q21.5916 -40.1641 22.0604 -41.2891 Q22.5291 -42.4141 23.5604 -43.4922 L24.1697 -43.4922 Q23.201 -42.4297 22.7166 -41.2578 Q22.2322 -40.0859 22.2322 -38.8516 Q22.2322 -37.5234 22.6697 -36.5078 L22.1541 -36.5078 Q21.5916 -37.5391 21.5916 -38.8359 ZM25.1517 -40.1484 L24.6517 -37.7734 L23.9954 -37.7734 L25.1985 -43.4922 L26.4485 -43.4922 Q28.1829 -43.4922 28.1829 -42.0547 Q28.1829 -40.6953 26.7454 -40.3047 L27.6829 -37.7734 L26.9642 -37.7734 L26.136 -40.1484 L25.1517 -40.1484 ZM25.7298 -42.8984 Q25.3392 -40.9766 25.2767 -40.7266 L25.9329 -40.7266 Q26.6829 -40.7266 27.0892 -41.0547 Q27.4954 -41.3828 27.4954 -42.0078 Q27.4954 -42.4766 27.2376 -42.6875 Q26.9798 -42.8984 26.386 -42.8984 L25.7298 -42.8984 ZM30.3689 -41.1484 Q30.3689 -39.8203 29.8923 -38.6875 Q29.4158 -37.5547 28.4001 -36.5078 L27.7908 -36.5078 Q29.7283 -38.6641 29.7283 -41.1484 Q29.7283 -42.4766 29.2908 -43.4922 L29.8064 -43.4922 Q30.3689 -42.4297 30.3689 -41.1484 Z"/></g><g transform="translate(56,62)" style="fill:rgb(148,108,0); text-rendering:geometricPrecision; color-rendering:optimizeQuality; image-rendering:optimizeQuality; font-family:'Open Sans'; stroke:rgb(148,108,0); color-interpolation:linearRGB;"><path style="stroke:none;" d="M-23.2847 1.9375 Q-23.2847 3.0625 -24.105 3.7031 Q-24.9253 4.3438 -26.3316 4.3438 Q-27.8628 4.3438 -28.6753 3.9375 L-28.6753 2.9844 Q-28.1441 3.2031 -27.5269 3.3359 Q-26.9097 3.4688 -26.3003 3.4688 Q-25.3003 3.4688 -24.8003 3.0859 Q-24.3003 2.7031 -24.3003 2.0312 Q-24.3003 1.5938 -24.48 1.3047 Q-24.6597 1.0156 -25.0737 0.7734 Q-25.4878 0.5312 -26.3472 0.2344 Q-27.5347 -0.1875 -28.0503 -0.7734 Q-28.5659 -1.3594 -28.5659 -2.3125 Q-28.5659 -3.2969 -27.8237 -3.8828 Q-27.0816 -4.4688 -25.8472 -4.4688 Q-24.5816 -4.4688 -23.5034 -4 L-23.8159 -3.1406 Q-24.8784 -3.5781 -25.8784 -3.5781 Q-26.6753 -3.5781 -27.1206 -3.2422 Q-27.5659 -2.9062 -27.5659 -2.2969 Q-27.5659 -1.8594 -27.4019 -1.5703 Q-27.2378 -1.2812 -26.8472 -1.0469 Q-26.4566 -0.8125 -25.6441 -0.5156 Q-24.3003 -0.0469 -23.7925 0.5078 Q-23.2847 1.0625 -23.2847 1.9375 Z"/><path style="stroke:none;" d="M28.6753 1.9375 Q28.6753 3.0625 27.855 3.7031 Q27.0347 4.3438 25.6284 4.3438 Q24.0972 4.3438 23.2847 3.9375 L23.2847 2.9844 Q23.8159 3.2031 24.4331 3.3359 Q25.0503 3.4688 25.6597 3.4688 Q26.6597 3.4688 27.1597 3.0859 Q27.6597 2.7031 27.6597 2.0312 Q27.6597 1.5938 27.48 1.3047 Q27.3003 1.0156 26.8862 0.7734 Q26.4722 0.5312 25.6128 0.2344 Q24.4253 -0.1875 23.9097 -0.7734 Q23.3941 -1.3594 23.3941 -2.3125 Q23.3941 -3.2969 24.1362 -3.8828 Q24.8784 -4.4688 26.1128 -4.4688 Q27.3784 -4.4688 28.4566 -4 L28.1441 -3.1406 Q27.0816 -3.5781 26.0816 -3.5781 Q25.2847 -3.5781 24.8394 -3.2422 Q24.3941 -2.9062 24.3941 -2.2969 Q24.3941 -1.8594 24.5581 -1.5703 Q24.7222 -1.2812 25.1128 -1.0469 Q25.5034 -0.8125 26.3159 -0.5156 Q27.6597 -0.0469 28.1675 0.5078 Q28.6753 1.0625 28.6753 1.9375 Z"/></g></g></svg></svg></svg></svg>