<svg width="171" viewBox="0 0 171 141" style="fill-opacity:1; color-rendering:auto; color-interpolation:auto; text-rendering:auto; stroke:black; stroke-linecap:square; stroke-miterlimit:10; shape-rendering:auto; stroke-opacity:1; fill:black; stroke-dasharray:none; font-weight:normal; stroke-width:1; font-family:'Open Sans'; font-style:normal; stroke-linejoin:miter; font-size:12; stroke-dashoffset:0; image-rendering:auto;" height="141" class="cas-substance-image" xmlns:xlink="http://www.w3.org/1999/xlink" xmlns="http://www.w3.org/2000/svg"><svg class="cas-substance-single-component"><rect y="0" x="0" width="171" stroke="none" ry="7" rx="7" height="141" fill="white" class="cas-substance-group"/><svg y="0" x="0" width="171" viewBox="0 0 171 141" style="fill:black;" height="141" class="cas-substance-single-component-image"><svg><g><g transform="translate(85,72)" style="text-rendering:geometricPrecision; color-rendering:optimizeQuality; color-interpolation:linearRGB; stroke-linecap:butt; image-rendering:optimizeQuality;"><line y2="-38.97" y1="-19.1283" x2="52.5" x1="41.044" style="fill:none;"/><line y2="-12.99" y1="-12.99" x2="7.5" x1="32.1484" style="fill:none;"/><line y2="-38.97" y1="-38.97" x2="82.5" x1="52.5" style="fill:none;"/><line y2="-60.192" y1="-38.97" x2="42.2692" x1="54.5207" style="fill:none;"/><line y2="-58.4421" y1="-37.22" x2="39.2381" x1="51.4896" style="fill:none;"/><line y2="64.953" y1="44.6182" x2="-7.5" x1="4.2393" style="fill:none;"/><line y2="12.99" y1="33.2424" x2="-7.5" x1="4.1931" style="fill:none;"/><line y2="-64.953" y1="-64.953" x2="-82.5" x1="-58.4375" style="fill:none;"/><line y2="-38.97" y1="-59.317" x2="-37.5" x1="-49.2464" style="fill:none;"/><line y2="12.99" y1="-12.99" x2="-7.5" x1="7.5" style="fill:none;"/><line y2="9.49" y1="-12.9901" x2="-9.5207" x1="3.4585" style="fill:none;"/><line y2="-38.97" y1="-12.99" x2="-7.5" x1="7.5" style="fill:none;"/><line y2="12.99" y1="12.99" x2="-37.5" x1="-7.5" style="fill:none;"/><line y2="-38.97" y1="-38.97" x2="-37.5" x1="-7.5" style="fill:none;"/><line y2="-35.47" y1="-35.47" x2="-35.4793" x1="-9.5207" style="fill:none;"/><line y2="-12.99" y1="12.99" x2="-52.5" x1="-37.5" style="fill:none;"/><line y2="-12.9901" y1="9.49" x2="-48.4585" x1="-35.4793" style="fill:none;"/><line y2="-12.99" y1="-38.97" x2="-52.5" x1="-37.5" style="fill:none;"/></g><g transform="translate(85,72)" style="fill:rgb(0,5,255); text-rendering:geometricPrecision; color-rendering:optimizeQuality; image-rendering:optimizeQuality; font-family:'Open Sans'; stroke:rgb(0,5,255); color-interpolation:linearRGB;"><path style="stroke:none;" d="M40.8516 -8.8337 L39.7109 -8.8337 L35.0234 -16.0212 L34.9766 -16.0212 Q35.0703 -14.7556 35.0703 -13.7087 L35.0703 -8.8337 L34.1484 -8.8337 L34.1484 -17.3962 L35.2734 -17.3962 L39.9453 -10.24 L39.9922 -10.24 Q39.9922 -10.3962 39.9453 -11.2556 Q39.8984 -12.115 39.9141 -12.49 L39.9141 -17.3962 L40.8516 -17.3962 L40.8516 -8.8337 Z"/><path style="stroke:none;" d="M40.7578 0.7288 L39.7578 0.7288 L39.7578 -3.3025 L35.2422 -3.3025 L35.2422 0.7288 L34.2422 0.7288 L34.2422 -7.8337 L35.2422 -7.8337 L35.2422 -4.1931 L39.7578 -4.1931 L39.7578 -7.8337 L40.7578 -7.8337 L40.7578 0.7288 Z"/></g><g transform="translate(85,72)" style="stroke-linecap:butt; text-rendering:geometricPrecision; color-rendering:optimizeQuality; image-rendering:optimizeQuality; font-family:'Open Sans'; color-interpolation:linearRGB; stroke-miterlimit:5;"><path style="fill:none;" d="M52.25 -38.537 L52.5 -38.97 L53 -38.97"/><path style="fill:rgb(230,0,0); stroke:none;" d="M41.4375 -65.0233 Q41.4375 -62.9608 40.3984 -61.7811 Q39.3594 -60.6014 37.5156 -60.6014 Q35.625 -60.6014 34.5938 -61.7655 Q33.5625 -62.9296 33.5625 -65.0389 Q33.5625 -67.1327 34.5938 -68.2811 Q35.625 -69.4296 37.5156 -69.4296 Q39.375 -69.4296 40.4062 -68.2577 Q41.4375 -67.0858 41.4375 -65.0233 ZM34.6094 -65.0233 Q34.6094 -63.2889 35.3516 -62.3827 Q36.0938 -61.4764 37.5156 -61.4764 Q38.9375 -61.4764 39.6641 -62.3749 Q40.3906 -63.2733 40.3906 -65.0233 Q40.3906 -66.7577 39.6641 -67.6483 Q38.9375 -68.5389 37.5156 -68.5389 Q36.0938 -68.5389 35.3516 -67.6405 Q34.6094 -66.7421 34.6094 -65.0233 Z"/><path style="fill:rgb(230,0,0); stroke:none;" d="M11.4375 38.8997 Q11.4375 40.9622 10.3984 42.1419 Q9.3594 43.3216 7.5156 43.3216 Q5.625 43.3216 4.5938 42.1575 Q3.5625 40.9934 3.5625 38.8841 Q3.5625 36.7903 4.5938 35.6419 Q5.625 34.4934 7.5156 34.4934 Q9.375 34.4934 10.4062 35.6653 Q11.4375 36.8372 11.4375 38.8997 ZM4.6094 38.8997 Q4.6094 40.6341 5.3516 41.5403 Q6.0938 42.4466 7.5156 42.4466 Q8.9375 42.4466 9.6641 41.5481 Q10.3906 40.6497 10.3906 38.8997 Q10.3906 37.1653 9.6641 36.2747 Q8.9375 35.3841 7.5156 35.3841 Q6.0938 35.3841 5.3516 36.2825 Q4.6094 37.1809 4.6094 38.8997 Z"/><path style="fill:rgb(230,0,0); stroke:none;" d="M-48.5625 -65.0233 Q-48.5625 -62.9608 -49.6016 -61.7811 Q-50.6406 -60.6014 -52.4844 -60.6014 Q-54.375 -60.6014 -55.4062 -61.7655 Q-56.4375 -62.9296 -56.4375 -65.0389 Q-56.4375 -67.1327 -55.4062 -68.2811 Q-54.375 -69.4296 -52.4844 -69.4296 Q-50.625 -69.4296 -49.5938 -68.2577 Q-48.5625 -67.0858 -48.5625 -65.0233 ZM-55.3906 -65.0233 Q-55.3906 -63.2889 -54.6484 -62.3827 Q-53.9062 -61.4764 -52.4844 -61.4764 Q-51.0625 -61.4764 -50.3359 -62.3749 Q-49.6094 -63.2733 -49.6094 -65.0233 Q-49.6094 -66.7577 -50.3359 -67.6483 Q-51.0625 -68.5389 -52.4844 -68.5389 Q-53.9062 -68.5389 -54.6484 -67.6405 Q-55.3906 -66.7421 -55.3906 -65.0233 Z"/><path style="fill:none;" d="M7.25 -12.557 L7.5 -12.99 L8 -12.99"/><path style="fill:none;" d="M-7.25 12.557 L-7.5 12.99 L-8 12.99"/><path style="fill:none;" d="M-7.25 -38.537 L-7.5 -38.97 L-8 -38.97"/><path style="fill:none;" d="M-37 12.99 L-37.5 12.99 L-37.75 12.557"/><path style="fill:none;" d="M-37 -38.97 L-37.5 -38.97 L-37.75 -38.537"/><path style="fill:none;" d="M-52.25 -12.557 L-52.5 -12.99 L-52.25 -13.423"/></g></g></svg></svg></svg></svg>