<svg width="231" viewBox="0 0 231 92" style="fill-opacity:1; color-rendering:auto; color-interpolation:auto; text-rendering:auto; stroke:black; stroke-linecap:square; stroke-miterlimit:10; shape-rendering:auto; stroke-opacity:1; fill:black; stroke-dasharray:none; font-weight:normal; stroke-width:1; font-family:'Open Sans'; font-style:normal; stroke-linejoin:miter; font-size:12; stroke-dashoffset:0; image-rendering:auto;" height="92" class="cas-substance-image" xmlns:xlink="http://www.w3.org/1999/xlink" xmlns="http://www.w3.org/2000/svg"><svg class="cas-substance-single-component"><rect y="0" x="0" width="231" stroke="none" ry="7" rx="7" height="92" fill="white" class="cas-substance-group"/><svg y="0" x="0" width="231" viewBox="0 0 231 92" style="fill:black;" height="92" class="cas-substance-single-component-image"><svg><g><g transform="translate(113,47)" style="text-rendering:geometricPrecision; color-rendering:optimizeQuality; color-interpolation:linearRGB; stroke-linecap:butt; image-rendering:optimizeQuality;"><line y2="2.222" y1="-9.552" x2="-52.1325" x1="-31.74" style="fill:none;"/><line y2="-33.2004" y1="-8.5417" x2="-29.99" x1="-29.99" style="fill:none;"/><line y2="-33.2004" y1="-8.5416" x2="-33.49" x1="-33.49" style="fill:none;"/><line y2="2.5132" y1="-9.552" x2="-10.8407" x1="-31.74" style="fill:none;"/><line y2="-9.552" y1="2.2066" x2="-83.7" x1="-63.3341" style="fill:none;"/><line y2="16.431" y1="-9.552" x2="-98.7" x1="-83.7" style="fill:none;"/><line y2="-24.552" y1="-9.552" x2="-109.68" x1="-83.7" style="fill:none;"/><line y2="-35.532" y1="-9.552" x2="-68.7" x1="-83.7" style="fill:none;"/><line y2="-19.227" y1="-23.8432" x2="80.337" x1="102.0548" style="fill:none;"/><line y2="3.1424" y1="-6.753" x2="-0.5783" x1="21.648" style="fill:none;"/><line y2="15.54" y1="-6.753" x2="41.721" x1="21.648" style="fill:none;"/><line y2="-29.2276" y1="-6.753" x2="28.9497" x1="21.648" style="fill:none;"/><line y2="-28.1462" y1="-7.5934" x2="32.2784" x1="25.6011" style="fill:none;"/><line y2="28.8907" y1="11.5933" x2="-3.2939" x1="-5.1113" style="fill:none;"/><line y2="41.523" y1="15.54" x2="26.721" x1="41.721" style="fill:none;"/><line y2="9.303" y1="15.54" x2="71.067" x1="41.721" style="fill:none;"/><line y2="6.2996" y1="11.6964" x2="68.3628" x1="42.97" style="fill:none;"/><line y2="-41.523" y1="-36.4141" x2="60.264" x1="36.2259" style="fill:none;"/><line y2="41.523" y1="36.4142" x2="26.721" x1="2.6859" style="fill:none;"/><line y2="37.6794" y1="32.9907" x2="25.4721" x1="3.4135" style="fill:none;"/><line y2="-19.227" y1="9.303" x2="80.337" x1="71.067" style="fill:none;"/><line y2="-19.227" y1="-41.523" x2="80.337" x1="60.264" style="fill:none;"/><line y2="-18.387" y1="-37.6794" x2="76.3838" x1="59.0149" style="fill:none;"/><path style="fill:none; stroke-miterlimit:5;" d="M-32.173 -9.302 L-31.74 -9.552 L-31.307 -9.302"/></g><g transform="translate(113,47)" style="stroke-linecap:butt; fill:rgb(230,0,0); text-rendering:geometricPrecision; color-rendering:optimizeQuality; image-rendering:optimizeQuality; font-family:'Open Sans'; stroke:rgb(230,0,0); color-interpolation:linearRGB; stroke-miterlimit:5;"><path style="stroke:none;" d="M-53.7825 5.3777 Q-53.7825 7.4402 -54.8216 8.6199 Q-55.8606 9.7996 -57.7044 9.7996 Q-59.595 9.7996 -60.6263 8.6355 Q-61.6575 7.4714 -61.6575 5.3621 Q-61.6575 3.2683 -60.6263 2.1199 Q-59.595 0.9714 -57.7044 0.9714 Q-55.845 0.9714 -54.8138 2.1433 Q-53.7825 3.3152 -53.7825 5.3777 ZM-60.6106 5.3777 Q-60.6106 7.1121 -59.8684 8.0183 Q-59.1263 8.9246 -57.7044 8.9246 Q-56.2825 8.9246 -55.5559 8.0261 Q-54.8294 7.1277 -54.8294 5.3777 Q-54.8294 3.6433 -55.5559 2.7527 Q-56.2825 1.8621 -57.7044 1.8621 Q-59.1263 1.8621 -59.8684 2.7605 Q-60.6106 3.6589 -60.6106 5.3777 Z"/><path style="stroke:none;" d="M-27.8025 -39.6223 Q-27.8025 -37.5598 -28.8416 -36.3801 Q-29.8806 -35.2004 -31.7244 -35.2004 Q-33.615 -35.2004 -34.6462 -36.3645 Q-35.6775 -37.5286 -35.6775 -39.6379 Q-35.6775 -41.7317 -34.6462 -42.8801 Q-33.615 -44.0286 -31.7244 -44.0286 Q-29.865 -44.0286 -28.8337 -42.8567 Q-27.8025 -41.6848 -27.8025 -39.6223 ZM-34.6306 -39.6223 Q-34.6306 -37.8879 -33.8884 -36.9817 Q-33.1462 -36.0754 -31.7244 -36.0754 Q-30.3025 -36.0754 -29.5759 -36.9739 Q-28.8494 -37.8723 -28.8494 -39.6223 Q-28.8494 -41.3567 -29.5759 -42.2473 Q-30.3025 -43.1379 -31.7244 -43.1379 Q-33.1462 -43.1379 -33.8884 -42.2395 Q-34.6306 -41.3411 -34.6306 -39.6223 Z"/><path style="fill:rgb(0,138,0); stroke:none;" d="M104.0111 -29.8703 L106.4329 -29.8703 Q108.1361 -29.8703 108.9017 -29.3624 Q109.6673 -28.8546 109.6673 -27.7609 Q109.6673 -26.9953 109.2454 -26.4953 Q108.8236 -25.9953 107.9954 -25.8546 L107.9954 -25.7921 Q109.9486 -25.464 109.9486 -23.7453 Q109.9486 -22.6046 109.1751 -21.9562 Q108.4017 -21.3078 107.0111 -21.3078 L104.0111 -21.3078 L104.0111 -29.8703 ZM105.0111 -26.214 L106.6517 -26.214 Q107.7142 -26.214 108.1751 -26.5421 Q108.6361 -26.8703 108.6361 -27.6515 Q108.6361 -28.3703 108.1204 -28.6906 Q107.6048 -29.0109 106.4798 -29.0109 L105.0111 -29.0109 L105.0111 -26.214 ZM105.0111 -25.3703 L105.0111 -22.1515 L106.8079 -22.1515 Q107.8392 -22.1515 108.3626 -22.5578 Q108.8861 -22.964 108.8861 -23.8234 Q108.8861 -24.6203 108.347 -24.9953 Q107.8079 -25.3703 106.7142 -25.3703 L105.0111 -25.3703 ZM114.5833 -27.8546 Q115.0052 -27.8546 115.3489 -27.7765 L115.2083 -26.8703 Q114.8177 -26.964 114.5052 -26.964 Q113.7239 -26.964 113.1693 -26.3312 Q112.6146 -25.6984 112.6146 -24.7609 L112.6146 -21.3078 L111.6458 -21.3078 L111.6458 -27.7296 L112.4427 -27.7296 L112.5677 -26.5421 L112.6146 -26.5421 Q112.9583 -27.1671 113.4661 -27.5109 Q113.9739 -27.8546 114.5833 -27.8546 Z"/><path style="fill:none; stroke:black;" d="M21.8025 -7.2285 L21.648 -6.753 L21.9826 -6.3814"/><path style="fill:rgb(0,5,255); stroke:none;" d="M-2.4054 9.6042 L-3.5461 9.6042 L-8.2336 2.4167 L-8.2804 2.4167 Q-8.1867 3.6824 -8.1867 4.7292 L-8.1867 9.6042 L-9.1086 9.6042 L-9.1086 1.0417 L-7.9836 1.0417 L-3.3117 8.198 L-3.2648 8.198 Q-3.2648 8.0417 -3.3117 7.1824 Q-3.3586 6.323 -3.3429 5.948 L-3.3429 1.0417 L-2.4054 1.0417 L-2.4054 9.6042 Z"/><path style="fill:none; stroke:black;" d="M42.2101 15.4361 L41.721 15.54 L41.471 15.973"/><path style="fill:rgb(0,5,255); stroke:none;" d="M34.2696 -31.1297 L33.1289 -31.1297 L28.4414 -38.3172 L28.3946 -38.3172 Q28.4883 -37.0516 28.4883 -36.0047 L28.4883 -31.1297 L27.5664 -31.1297 L27.5664 -39.6922 L28.6914 -39.6922 L33.3633 -32.536 L33.4102 -32.536 Q33.4102 -32.6922 33.3633 -33.5516 Q33.3164 -34.411 33.3321 -34.786 L33.3321 -39.6922 L34.2696 -39.6922 L34.2696 -31.1297 Z"/><path style="fill:rgb(0,5,255); stroke:none;" d="M0.7296 39.4422 L-0.4111 39.4422 L-5.0986 32.2547 L-5.1454 32.2547 Q-5.0517 33.5204 -5.0517 34.5672 L-5.0517 39.4422 L-5.9736 39.4422 L-5.9736 30.8797 L-4.8486 30.8797 L-0.1767 38.036 L-0.1298 38.036 Q-0.1298 37.8797 -0.1767 37.0204 Q-0.2236 36.161 -0.2079 35.786 L-0.2079 30.8797 L0.7296 30.8797 L0.7296 39.4422 Z"/><path style="fill:none; stroke:black;" d="M26.971 41.09 L26.721 41.523 L26.2319 41.419"/><path style="fill:none; stroke:black;" d="M70.5779 9.4069 L71.067 9.303 L71.2215 8.8275"/><path style="fill:none; stroke:black;" d="M59.7749 -41.4191 L60.264 -41.523 L60.5985 -41.1514"/><path style="fill:none; stroke:black;" d="M80.0025 -19.5986 L80.337 -19.227 L80.1825 -18.7515"/></g></g></svg></svg></svg></svg>