<svg width="403" viewBox="0 0 403 186" style="fill-opacity:1; color-rendering:auto; color-interpolation:auto; text-rendering:auto; stroke:black; stroke-linecap:square; stroke-miterlimit:10; shape-rendering:auto; stroke-opacity:1; fill:black; stroke-dasharray:none; font-weight:normal; stroke-width:1; font-family:'Open Sans'; font-style:normal; stroke-linejoin:miter; font-size:12; stroke-dashoffset:0; image-rendering:auto;" height="186" class="cas-substance-image" xmlns:xlink="http://www.w3.org/1999/xlink" xmlns="http://www.w3.org/2000/svg"><svg class="cas-substance-single-component"><rect y="0" x="0" width="403" stroke="none" ry="7" rx="7" height="186" fill="white" class="cas-substance-group"/><svg y="0" x="0" width="403" viewBox="0 0 403 186" style="fill:black;" height="186" class="cas-substance-single-component-image"><svg><g><g transform="translate(200,95)" style="text-rendering:geometricPrecision; color-rendering:optimizeQuality; color-interpolation:linearRGB; stroke-linecap:butt; image-rendering:optimizeQuality;"><line y2="-58.9074" y1="-35.259" x2="-73.761" x1="-73.761" style="fill:none;"/><line y2="-35.259" y1="-35.259" x2="-103.761" x1="-73.761" style="fill:none;"/><line y2="-5.259" y1="-35.259" x2="-73.761" x1="-73.761" style="fill:none;"/><line y2="-35.259" y1="-35.259" x2="-43.761" x1="-73.761" style="fill:none;"/><line y2="-55.591" y1="-35.259" x2="57.9781" x1="46.239" style="fill:none;"/><line y2="-14.1316" y1="-35.259" x2="56.4165" x1="44.2183" style="fill:none;"/><line y2="-15.8816" y1="-37.009" x2="59.4476" x1="47.2494" style="fill:none;"/><line y2="-35.259" y1="-35.259" x2="21.5906" x1="46.239" style="fill:none;"/><line y2="-61.239" y1="-61.239" x2="91.239" x1="67.1765" style="fill:none;"/><line y2="-40.1116" y1="-54.4757" x2="191.4165" x1="183.1232" style="fill:none;"/><line y2="-41.8616" y1="-56.2257" x2="194.4476" x1="186.1542" style="fill:none;"/><line y2="-80.6989" y1="-66.5024" x2="194.4939" x1="186.2982" style="fill:none;"/><line y2="-82.4488" y1="-68.2523" x2="191.4627" x1="183.2671" style="fill:none;"/><line y2="-61.239" y1="-61.239" x2="151.239" x1="175.8874" style="fill:none;"/><line y2="-61.239" y1="-35.259" x2="-118.761" x1="-103.761" style="fill:none;"/><line y2="-9.279" y1="-35.259" x2="-118.761" x1="-103.761" style="fill:none;"/><line y2="-12.779" y1="-35.259" x2="-120.7817" x1="-107.8025" style="fill:none;"/><line y2="-61.239" y1="-61.239" x2="-148.761" x1="-118.761" style="fill:none;"/><line y2="-57.739" y1="-57.739" x2="-146.7403" x1="-120.7817" style="fill:none;"/><line y2="-9.279" y1="-9.279" x2="-148.761" x1="-118.761" style="fill:none;"/><line y2="-35.259" y1="-61.239" x2="-163.761" x1="-148.761" style="fill:none;"/><line y2="-78.8527" y1="-61.239" x2="-164.6186" x1="-148.761" style="fill:none;"/><line y2="-35.259" y1="-9.279" x2="-163.761" x1="-148.761" style="fill:none;"/><line y2="-35.259" y1="-12.779" x2="-159.7195" x1="-146.7403" style="fill:none;"/><line y2="-40.2432" y1="-35.259" x2="-187.2102" x1="-163.761" style="fill:none;"/><line y2="-71.331" y1="-80.9679" x2="-196.239" x1="-174.5985" style="fill:none;"/><line y2="-71.331" y1="-47.9616" x2="-196.239" x1="-193.7834" style="fill:none;"/><line y2="9.741" y1="-5.259" x2="-99.741" x1="-73.761" style="fill:none;"/><line y2="9.741" y1="-5.259" x2="-47.778" x1="-73.761" style="fill:none;"/><line y2="11.7619" y1="-1.2175" x2="-51.2779" x1="-73.7608" style="fill:none;"/><line y2="39.741" y1="9.741" x2="-99.741" x1="-99.741" style="fill:none;"/><line y2="37.7203" y1="11.7617" x2="-96.241" x1="-96.241" style="fill:none;"/><line y2="39.741" y1="9.741" x2="-47.778" x1="-47.778" style="fill:none;"/><line y2="54.741" y1="39.741" x2="-73.761" x1="-99.741" style="fill:none;"/><line y2="55.5548" y1="39.741" x2="-117.3038" x1="-99.741" style="fill:none;"/><line y2="54.741" y1="39.741" x2="-73.761" x1="-47.778" style="fill:none;"/><line y2="50.6996" y1="37.7201" x2="-73.7608" x1="-51.2779" style="fill:none;"/><line y2="77.6511" y1="54.741" x2="-78.6307" x1="-73.761" style="fill:none;"/><line y2="87.222" y1="65.934" x2="-109.833" x1="-119.3096" style="fill:none;"/><line y2="87.222" y1="84.7073" x2="-109.833" x1="-85.9245" style="fill:none;"/><line y2="-61.239" y1="-35.259" x2="-28.761" x1="-43.761" style="fill:none;"/><line y2="-9.279" y1="-35.259" x2="-28.761" x1="-43.761" style="fill:none;"/><line y2="-61.239" y1="-61.239" x2="1.239" x1="-28.761" style="fill:none;"/><line y2="-9.279" y1="-9.279" x2="1.239" x1="-28.761" style="fill:none;"/><line y2="-41.3973" y1="-61.239" x2="12.695" x1="1.239" style="fill:none;"/><line y2="-29.3707" y1="-9.279" x2="12.8393" x1="1.239" style="fill:none;"/><line y2="-87.222" y1="-61.239" x2="106.239" x1="91.239" style="fill:none;"/><line y2="-83.7221" y1="-61.2392" x2="108.2598" x1="95.2804" style="fill:none;"/><line y2="-35.259" y1="-61.239" x2="106.239" x1="91.239" style="fill:none;"/><line y2="-87.222" y1="-87.222" x2="136.239" x1="106.239" style="fill:none;"/><line y2="-35.259" y1="-35.259" x2="136.239" x1="106.239" style="fill:none;"/><line y2="-38.759" y1="-38.759" x2="134.2183" x1="108.2597" style="fill:none;"/><line y2="-61.239" y1="-87.222" x2="151.239" x1="136.239" style="fill:none;"/><line y2="-61.2392" y1="-83.7221" x2="147.1975" x1="134.2181" style="fill:none;"/><line y2="-61.239" y1="-35.259" x2="151.239" x1="136.239" style="fill:none;"/></g><g transform="translate(200,95)" style="fill:rgb(230,0,0); text-rendering:geometricPrecision; color-rendering:optimizeQuality; image-rendering:optimizeQuality; font-family:'Open Sans'; stroke:rgb(230,0,0); color-interpolation:linearRGB;"><path style="stroke:none;" d="M-69.8235 -65.3293 Q-69.8235 -63.2668 -70.8626 -62.0871 Q-71.9016 -60.9074 -73.7454 -60.9074 Q-75.636 -60.9074 -76.6673 -62.0715 Q-77.6985 -63.2356 -77.6985 -65.3449 Q-77.6985 -67.4387 -76.6673 -68.5871 Q-75.636 -69.7356 -73.7454 -69.7356 Q-71.886 -69.7356 -70.8548 -68.5637 Q-69.8235 -67.3918 -69.8235 -65.3293 ZM-76.6516 -65.3293 Q-76.6516 -63.5949 -75.9094 -62.6887 Q-75.1673 -61.7824 -73.7454 -61.7824 Q-72.3235 -61.7824 -71.5969 -62.6809 Q-70.8704 -63.5793 -70.8704 -65.3293 Q-70.8704 -67.0637 -71.5969 -67.9543 Q-72.3235 -68.8449 -73.7454 -68.8449 Q-75.1673 -68.8449 -75.9094 -67.9465 Q-76.6516 -67.0481 -76.6516 -65.3293 Z"/><path style="stroke:none;" d="M-62.3079 -61.0324 L-63.3079 -61.0324 L-63.3079 -65.0637 L-67.8235 -65.0637 L-67.8235 -61.0324 L-68.8235 -61.0324 L-68.8235 -69.5949 L-67.8235 -69.5949 L-67.8235 -65.9543 L-63.3079 -65.9543 L-63.3079 -69.5949 L-62.3079 -69.5949 L-62.3079 -61.0324 Z"/></g><g transform="translate(200,95)" style="stroke-linecap:butt; text-rendering:geometricPrecision; color-rendering:optimizeQuality; image-rendering:optimizeQuality; font-family:'Open Sans'; color-interpolation:linearRGB; stroke-miterlimit:5;"><path style="fill:none;" d="M46.489 -35.692 L46.239 -35.259 L45.739 -35.259"/><path style="fill:rgb(230,0,0); stroke:none;" d="M65.1765 -61.3093 Q65.1765 -59.2468 64.1374 -58.0671 Q63.0984 -56.8874 61.2546 -56.8874 Q59.364 -56.8874 58.3328 -58.0515 Q57.3015 -59.2156 57.3015 -61.3249 Q57.3015 -63.4187 58.3328 -64.5671 Q59.364 -65.7156 61.2546 -65.7156 Q63.114 -65.7156 64.1452 -64.5437 Q65.1765 -63.3718 65.1765 -61.3093 ZM58.3484 -61.3093 Q58.3484 -59.5749 59.0906 -58.6687 Q59.8328 -57.7624 61.2546 -57.7624 Q62.6765 -57.7624 63.4031 -58.6609 Q64.1296 -59.5593 64.1296 -61.3093 Q64.1296 -63.0437 63.4031 -63.9343 Q62.6765 -64.8249 61.2546 -64.8249 Q59.8328 -64.8249 59.0906 -63.9265 Q58.3484 -63.0281 58.3484 -61.3093 Z"/><path style="fill:rgb(230,0,0); stroke:none;" d="M65.1765 -9.3493 Q65.1765 -7.2868 64.1374 -6.1071 Q63.0984 -4.9274 61.2546 -4.9274 Q59.364 -4.9274 58.3328 -6.0915 Q57.3015 -7.2556 57.3015 -9.3649 Q57.3015 -11.4587 58.3328 -12.6071 Q59.364 -13.7556 61.2546 -13.7556 Q63.114 -13.7556 64.1452 -12.5837 Q65.1765 -11.4118 65.1765 -9.3493 ZM58.3484 -9.3493 Q58.3484 -7.6149 59.0906 -6.7087 Q59.8328 -5.8024 61.2546 -5.8024 Q62.6765 -5.8024 63.4031 -6.7009 Q64.1296 -7.5993 64.1296 -9.3493 Q64.1296 -11.0837 63.4031 -11.9743 Q62.6765 -12.8649 61.2546 -12.8649 Q59.8328 -12.8649 59.0906 -11.9665 Q58.3484 -11.0681 58.3484 -9.3493 Z"/><path style="fill:rgb(0,5,255); stroke:none;" d="M184.5906 -57.0828 L183.4499 -57.0828 L178.7624 -64.2702 L178.7156 -64.2702 Q178.8093 -63.0046 178.8093 -61.9578 L178.8093 -57.0828 L177.8874 -57.0828 L177.8874 -65.6452 L179.0124 -65.6452 L183.6843 -58.489 L183.7312 -58.489 Q183.7312 -58.6453 183.6843 -59.5046 Q183.6374 -60.364 183.6531 -60.739 L183.6531 -65.6452 L184.5906 -65.6452 L184.5906 -57.0828 Z"/><path style="fill:rgb(230,0,0); stroke:none;" d="M200.1765 -35.3293 Q200.1765 -33.2668 199.1374 -32.0871 Q198.0984 -30.9074 196.2546 -30.9074 Q194.364 -30.9074 193.3327 -32.0715 Q192.3015 -33.2356 192.3015 -35.3449 Q192.3015 -37.4387 193.3327 -38.5871 Q194.364 -39.7356 196.2546 -39.7356 Q198.114 -39.7356 199.1452 -38.5637 Q200.1765 -37.3918 200.1765 -35.3293 ZM193.3484 -35.3293 Q193.3484 -33.5949 194.0906 -32.6887 Q194.8327 -31.7824 196.2546 -31.7824 Q197.6765 -31.7824 198.4031 -32.6809 Q199.1296 -33.5793 199.1296 -35.3293 Q199.1296 -37.0637 198.4031 -37.9543 Q197.6765 -38.8449 196.2546 -38.8449 Q194.8327 -38.8449 194.0906 -37.9465 Q193.3484 -37.0481 193.3484 -35.3293 Z"/><path style="fill:rgb(230,0,0); stroke:none;" d="M200.1765 -87.2923 Q200.1765 -85.2298 199.1374 -84.0501 Q198.0984 -82.8704 196.2546 -82.8704 Q194.364 -82.8704 193.3327 -84.0345 Q192.3015 -85.1986 192.3015 -87.3079 Q192.3015 -89.4017 193.3327 -90.5501 Q194.364 -91.6986 196.2546 -91.6986 Q198.114 -91.6986 199.1452 -90.5267 Q200.1765 -89.3548 200.1765 -87.2923 ZM193.3484 -87.2923 Q193.3484 -85.5579 194.0906 -84.6517 Q194.8327 -83.7454 196.2546 -83.7454 Q197.6765 -83.7454 198.4031 -84.6439 Q199.1296 -85.5423 199.1296 -87.2923 Q199.1296 -89.0267 198.4031 -89.9173 Q197.6765 -90.8079 196.2546 -90.8079 Q194.8327 -90.8079 194.0906 -89.9095 Q193.3484 -89.0111 193.3484 -87.2923 Z"/><path style="fill:none;" d="M-104.011 -34.826 L-103.761 -35.259 L-103.261 -35.259"/><path style="fill:none;" d="M-118.511 -60.806 L-118.761 -61.239 L-119.261 -61.239"/><path style="fill:none;" d="M-118.511 -9.712 L-118.761 -9.279 L-119.261 -9.279"/><path style="fill:none;" d="M-148.261 -61.239 L-148.761 -61.239 L-149.011 -60.806"/><path style="fill:none;" d="M-148.261 -9.279 L-148.761 -9.279 L-149.011 -9.712"/><path style="fill:none;" d="M-163.511 -34.826 L-163.761 -35.259 L-163.511 -35.692"/><path style="fill:rgb(230,0,0); stroke:none;" d="M-164.8965 -83.6053 Q-164.8965 -81.5428 -165.9356 -80.3631 Q-166.9746 -79.1834 -168.8184 -79.1834 Q-170.709 -79.1834 -171.7402 -80.3475 Q-172.7715 -81.5116 -172.7715 -83.6209 Q-172.7715 -85.7147 -171.7402 -86.8631 Q-170.709 -88.0116 -168.8184 -88.0116 Q-166.959 -88.0116 -165.9277 -86.8397 Q-164.8965 -85.6678 -164.8965 -83.6053 ZM-171.7246 -83.6053 Q-171.7246 -81.8709 -170.9824 -80.9647 Q-170.2402 -80.0584 -168.8184 -80.0584 Q-167.3965 -80.0584 -166.6699 -80.9569 Q-165.9434 -81.8553 -165.9434 -83.6053 Q-165.9434 -85.3397 -166.6699 -86.2303 Q-167.3965 -87.1209 -168.8184 -87.1209 Q-170.2402 -87.1209 -170.9824 -86.2225 Q-171.7246 -85.3241 -171.7246 -83.6053 Z"/><path style="fill:rgb(230,0,0); stroke:none;" d="M-189.1665 -41.5663 Q-189.1665 -39.5038 -190.2056 -38.3241 Q-191.2446 -37.1444 -193.0884 -37.1444 Q-194.979 -37.1444 -196.0103 -38.3085 Q-197.0415 -39.4726 -197.0415 -41.5819 Q-197.0415 -43.6757 -196.0103 -44.8241 Q-194.979 -45.9726 -193.0884 -45.9726 Q-191.229 -45.9726 -190.1978 -44.8007 Q-189.1665 -43.6288 -189.1665 -41.5663 ZM-195.9946 -41.5663 Q-195.9946 -39.8319 -195.2524 -38.9257 Q-194.5103 -38.0194 -193.0884 -38.0194 Q-191.6665 -38.0194 -190.9399 -38.9179 Q-190.2134 -39.8163 -190.2134 -41.5663 Q-190.2134 -43.3007 -190.9399 -44.1913 Q-191.6665 -45.0819 -193.0884 -45.0819 Q-194.5103 -45.0819 -195.2524 -44.1835 Q-195.9946 -43.2851 -195.9946 -41.5663 Z"/><path style="fill:none;" d="M-195.7822 -71.5344 L-196.239 -71.331 L-196.1868 -70.8337"/><path style="fill:none;" d="M-73.328 -5.009 L-73.761 -5.259 L-74.194 -5.009"/><path style="fill:none;" d="M-99.308 9.491 L-99.741 9.741 L-99.741 10.241"/><path style="fill:none;" d="M-48.211 9.491 L-47.778 9.741 L-47.778 10.241"/><path style="fill:none;" d="M-99.741 39.241 L-99.741 39.741 L-99.308 39.991"/><path style="fill:none;" d="M-47.778 39.241 L-47.778 39.741 L-48.211 39.991"/><path style="fill:none;" d="M-73.328 54.491 L-73.761 54.741 L-73.865 55.2301"/><path style="fill:rgb(230,0,0); stroke:none;" d="M-118.0965 59.7437 Q-118.0965 61.8062 -119.1356 62.9859 Q-120.1746 64.1656 -122.0184 64.1656 Q-123.909 64.1656 -124.9403 63.0015 Q-125.9715 61.8374 -125.9715 59.7281 Q-125.9715 57.6343 -124.9403 56.4859 Q-123.909 55.3374 -122.0184 55.3374 Q-120.159 55.3374 -119.1278 56.5093 Q-118.0965 57.6812 -118.0965 59.7437 ZM-124.9246 59.7437 Q-124.9246 61.4781 -124.1824 62.3843 Q-123.4403 63.2906 -122.0184 63.2906 Q-120.5965 63.2906 -119.8699 62.3921 Q-119.1434 61.4937 -119.1434 59.7437 Q-119.1434 58.0093 -119.8699 57.1187 Q-120.5965 56.2281 -122.0184 56.2281 Q-123.4403 56.2281 -124.1824 57.1265 Q-124.9246 58.0249 -124.9246 59.7437 Z"/><path style="fill:rgb(230,0,0); stroke:none;" d="M-76.0605 84.0137 Q-76.0605 86.0762 -77.0996 87.2559 Q-78.1386 88.4356 -79.9824 88.4356 Q-81.873 88.4356 -82.9043 87.2715 Q-83.9355 86.1074 -83.9355 83.9981 Q-83.9355 81.9043 -82.9043 80.7559 Q-81.873 79.6074 -79.9824 79.6074 Q-78.123 79.6074 -77.0918 80.7793 Q-76.0605 81.9512 -76.0605 84.0137 ZM-82.8886 84.0137 Q-82.8886 85.7481 -82.1464 86.6543 Q-81.4043 87.5606 -79.9824 87.5606 Q-78.5605 87.5606 -77.8339 86.6621 Q-77.1074 85.7637 -77.1074 84.0137 Q-77.1074 82.2793 -77.8339 81.3887 Q-78.5605 80.4981 -79.9824 80.4981 Q-81.4043 80.4981 -82.1464 81.3965 Q-82.8886 82.2949 -82.8886 84.0137 Z"/><path style="fill:none;" d="M-110.0363 86.7652 L-109.833 87.222 L-109.3357 87.1697"/><path style="fill:none;" d="M-29.011 -60.806 L-28.761 -61.239 L-28.261 -61.239"/><path style="fill:none;" d="M-29.011 -9.712 L-28.761 -9.279 L-28.261 -9.279"/><path style="fill:none;" d="M0.739 -61.239 L1.239 -61.239 L1.489 -60.806"/><path style="fill:none;" d="M0.739 -9.279 L1.239 -9.279 L1.489 -9.712"/><path style="fill:rgb(0,5,255); stroke:none;" d="M19.5906 -31.1027 L18.4499 -31.1027 L13.7624 -38.2902 L13.7156 -38.2902 Q13.8093 -37.0246 13.8093 -35.9777 L13.8093 -31.1027 L12.8874 -31.1027 L12.8874 -39.6652 L14.0124 -39.6652 L18.6843 -32.509 L18.7312 -32.509 Q18.7312 -32.6652 18.6843 -33.5246 Q18.6374 -34.384 18.6531 -34.759 L18.6531 -39.6652 L19.5906 -39.6652 L19.5906 -31.1027 Z"/><path style="fill:none;" d="M91.489 -61.672 L91.239 -61.239 L90.739 -61.239"/><path style="fill:none;" d="M105.989 -86.789 L106.239 -87.222 L106.739 -87.222"/><path style="fill:none;" d="M105.989 -35.692 L106.239 -35.259 L106.739 -35.259"/><path style="fill:none;" d="M135.739 -87.222 L136.239 -87.222 L136.489 -86.789"/><path style="fill:none;" d="M135.739 -35.259 L136.239 -35.259 L136.489 -35.692"/><path style="fill:none;" d="M150.989 -61.672 L151.239 -61.239 L151.739 -61.239"/></g></g></svg></svg></svg></svg>