<svg width="119" viewBox="0 0 119 118" style="fill-opacity:1; color-rendering:auto; color-interpolation:auto; text-rendering:auto; stroke:black; stroke-linecap:square; stroke-miterlimit:10; shape-rendering:auto; stroke-opacity:1; fill:black; stroke-dasharray:none; font-weight:normal; stroke-width:1; font-family:'Open Sans'; font-style:normal; stroke-linejoin:miter; font-size:12; stroke-dashoffset:0; image-rendering:auto;" height="118" class="cas-substance-image" xmlns:xlink="http://www.w3.org/1999/xlink" xmlns="http://www.w3.org/2000/svg"><svg class="cas-substance-single-component"><rect y="0" x="0" width="119" stroke="none" ry="7" rx="7" height="118" fill="white" class="cas-substance-group"/><svg y="0" x="0" width="119" viewBox="0 0 119 118" style="fill:black;" height="118" class="cas-substance-single-component-image"><svg><g><g transform="translate(59,56)" style="text-rendering:geometricPrecision; color-rendering:optimizeQuality; color-interpolation:linearRGB; stroke-linecap:butt; image-rendering:optimizeQuality;"><line y2="0" y1="0" x2="47.7304" x1="23.082" style="fill:none;"/><line y2="-3.5" y1="-3.5" x2="47.7304" x1="23.082" style="fill:none;"/><line y2="3.5" y1="3.5" x2="47.7304" x1="23.082" style="fill:none;"/><line y2="0" y1="0" x2="-6.918" x1="23.082" style="fill:none;"/><line y2="-24.27" y1="-52.803" x2="-24.552" x1="-15.279" style="fill:none;"/><line y2="24.27" y1="46.4947" x2="-24.552" x1="-17.3292" style="fill:none;"/><line y2="-24.27" y1="0" x2="-24.552" x1="-6.918" style="fill:none;"/><line y2="24.27" y1="0" x2="-24.552" x1="-6.918" style="fill:none;"/><line y2="20.5779" y1="-0.4225" x2="-26.1957" x1="-10.9373" style="fill:none;"/><line y2="-16.707" y1="-24.27" x2="-47.8283" x1="-24.552" style="fill:none;"/><line y2="-13.3783" y1="-20.3169" x2="-46.7468" x1="-25.3923" style="fill:none;"/><line y2="16.4858" y1="24.27" x2="-48.5092" x1="-24.552" style="fill:none;"/><line y2="8.5312" y1="-8.8438" x2="-53.082" x1="-53.082" style="fill:none;"/></g><g transform="translate(59,56)" style="fill:rgb(0,5,255); text-rendering:geometricPrecision; color-rendering:optimizeQuality; image-rendering:optimizeQuality; font-family:'Open Sans'; stroke:rgb(0,5,255); color-interpolation:linearRGB;"><path style="stroke:none;" d="M56.4336 4.1562 L55.2929 4.1562 L50.6054 -3.0312 L50.5586 -3.0312 Q50.6523 -1.7656 50.6523 -0.7188 L50.6523 4.1562 L49.7304 4.1562 L49.7304 -4.4062 L50.8554 -4.4062 L55.5273 2.75 L55.5742 2.75 Q55.5742 2.5938 55.5273 1.7344 Q55.4804 0.875 55.4961 0.5 L55.4961 -4.4062 L56.4336 -4.4062 L56.4336 4.1562 Z"/><path style="stroke:none;" d="M-11.9274 56.9593 L-13.0681 56.9593 L-17.7556 49.7718 L-17.8024 49.7718 Q-17.7087 51.0374 -17.7087 52.0843 L-17.7087 56.9593 L-18.6306 56.9593 L-18.6306 48.3968 L-17.5056 48.3968 L-12.8337 55.553 L-12.7868 55.553 Q-12.7868 55.3968 -12.8337 54.5374 Q-12.8806 53.678 -12.8649 53.303 L-12.8649 48.3968 L-11.9274 48.3968 L-11.9274 56.9593 Z"/><path style="stroke:none;" d="M-4.4118 56.9593 L-5.4118 56.9593 L-5.4118 52.928 L-9.9274 52.928 L-9.9274 56.9593 L-10.9274 56.9593 L-10.9274 48.3968 L-9.9274 48.3968 L-9.9274 52.0374 L-5.4118 52.0374 L-5.4118 48.3968 L-4.4118 48.3968 L-4.4118 56.9593 Z"/><path style="stroke:none;" d="M0.3382 58.7686 L-3.4118 58.7686 L-3.4118 58.2061 L-1.9118 56.6905 Q-1.2243 56.003 -1.0056 55.7061 Q-0.7868 55.4093 -0.6774 55.128 Q-0.5681 54.8468 -0.5681 54.5186 Q-0.5681 54.0655 -0.8415 53.7999 Q-1.1149 53.5343 -1.6149 53.5343 Q-1.9587 53.5343 -2.279 53.6514 Q-2.5993 53.7686 -2.9899 54.0655 L-3.3337 53.628 Q-2.5524 52.9718 -1.6149 52.9718 Q-0.8181 52.9718 -0.3571 53.3858 Q0.1038 53.7999 0.1038 54.4874 Q0.1038 55.0343 -0.2009 55.5655 Q-0.5056 56.0968 -1.3493 56.9093 L-2.5993 58.128 L-2.5993 58.1593 L0.3382 58.1593 L0.3382 58.7686 Z"/></g><g transform="translate(59,56)" style="stroke-linecap:butt; font-size:8.4px; text-rendering:geometricPrecision; color-rendering:optimizeQuality; image-rendering:optimizeQuality; font-family:'Open Sans'; color-interpolation:linearRGB; stroke-miterlimit:5;"><path style="fill:none;" d="M-7.2119 0.4045 L-6.918 0 L-6.418 0"/><path style="fill:none;" d="M-25.0275 -24.1155 L-24.552 -24.27 L-24.3975 -24.7455"/><path style="fill:none;" d="M-24.2581 23.8655 L-24.552 24.27 L-25.0275 24.1155"/><path style="fill:rgb(0,5,255); stroke:none;" d="M-49.7304 -10.8438 L-50.8711 -10.8438 L-55.5586 -18.0312 L-55.6054 -18.0312 Q-55.5117 -16.7656 -55.5117 -15.7188 L-55.5117 -10.8438 L-56.4336 -10.8438 L-56.4336 -19.4062 L-55.3086 -19.4062 L-50.6367 -12.25 L-50.5898 -12.25 Q-50.5898 -12.4062 -50.6367 -13.2656 Q-50.6836 -14.125 -50.6679 -14.5 L-50.6679 -19.4062 L-49.7304 -19.4062 L-49.7304 -10.8438 Z"/><path style="fill:rgb(148,108,0); stroke:none;" d="M-50.3867 16.9375 Q-50.3867 18.0625 -51.207 18.7031 Q-52.0273 19.3438 -53.4336 19.3438 Q-54.9648 19.3438 -55.7773 18.9375 L-55.7773 17.9844 Q-55.2461 18.2031 -54.6289 18.3359 Q-54.0117 18.4688 -53.4023 18.4688 Q-52.4023 18.4688 -51.9023 18.0859 Q-51.4023 17.7031 -51.4023 17.0312 Q-51.4023 16.5938 -51.582 16.3047 Q-51.7617 16.0156 -52.1758 15.7734 Q-52.5898 15.5312 -53.4492 15.2344 Q-54.6367 14.8125 -55.1523 14.2266 Q-55.6679 13.6406 -55.6679 12.6875 Q-55.6679 11.7031 -54.9258 11.1172 Q-54.1836 10.5312 -52.9492 10.5312 Q-51.6836 10.5312 -50.6054 11 L-50.9179 11.8594 Q-51.9804 11.4219 -52.9804 11.4219 Q-53.7773 11.4219 -54.2226 11.7578 Q-54.6679 12.0938 -54.6679 12.7031 Q-54.6679 13.1406 -54.5039 13.4297 Q-54.3398 13.7188 -53.9492 13.9531 Q-53.5586 14.1875 -52.7461 14.4844 Q-51.4023 14.9531 -50.8945 15.5078 Q-50.3867 16.0625 -50.3867 16.9375 Z"/></g></g></svg></svg></svg></svg>