<svg width="266" viewBox="0 0 266 187" style="fill-opacity:1; color-rendering:auto; color-interpolation:auto; text-rendering:auto; stroke:black; stroke-linecap:square; stroke-miterlimit:10; shape-rendering:auto; stroke-opacity:1; fill:black; stroke-dasharray:none; font-weight:normal; stroke-width:1; font-family:'Open Sans'; font-style:normal; stroke-linejoin:miter; font-size:12; stroke-dashoffset:0; image-rendering:auto;" height="187" class="cas-substance-image" xmlns:xlink="http://www.w3.org/1999/xlink" xmlns="http://www.w3.org/2000/svg"><svg class="cas-substance-single-component"><rect y="0" x="0" width="266" stroke="none" ry="7" rx="7" height="187" fill="white" class="cas-substance-group"/><svg y="0" x="0" width="266" viewBox="0 0 266 187" style="fill:black;" height="187" class="cas-substance-single-component-image"><svg><g><g transform="translate(133,93)" style="text-rendering:geometricPrecision; color-rendering:optimizeQuality; color-interpolation:linearRGB; stroke-linecap:butt; image-rendering:optimizeQuality;"><line y2="43.2741" y1="31.0104" x2="19.4909" x1="-1.75" style="fill:none;"/><line y2="40.2431" y1="27.9793" x2="21.2409" x1="-0" style="fill:none;"/><line y2="6.1562" y1="30" x2="0" x1="0" style="fill:none;"/><line y2="45" y1="30" x2="-25.98" x1="0" style="fill:none;"/><line y2="-90" y1="-66.4062" x2="-103.923" x1="-103.923" style="fill:none;"/><line y2="-45" y1="-57.0649" x2="-129.903" x1="-109.0066" style="fill:none;"/><line y2="-45" y1="-57.0649" x2="-77.943" x1="-98.8394" style="fill:none;"/><line y2="-45" y1="-57.0649" x2="129.903" x1="109.0066" style="fill:none;"/><line y2="-90" y1="-66.4062" x2="103.923" x1="103.923" style="fill:none;"/><line y2="-45" y1="-57.0649" x2="77.943" x1="98.8394" style="fill:none;"/><line y2="-15" y1="-2.9351" x2="-25.98" x1="-5.0836" style="fill:none;"/><line y2="-15" y1="-2.9351" x2="25.98" x1="5.0836" style="fill:none;"/><line y2="-45" y1="-15" x2="-25.98" x1="-25.98" style="fill:none;"/><line y2="0" y1="-15" x2="-51.96" x1="-25.98" style="fill:none;"/><line y2="-4.0415" y1="-17.0207" x2="-51.96" x1="-29.48" style="fill:none;"/><line y2="-45" y1="-15" x2="25.98" x1="25.98" style="fill:none;"/><line y2="0" y1="-15" x2="51.963" x1="25.98" style="fill:none;"/><line y2="-4.0415" y1="-17.0209" x2="51.9628" x1="29.4799" style="fill:none;"/><line y2="-57.4583" y1="-45" x2="-4.4022" x1="-25.98" style="fill:none;"/><line y2="-60" y1="-45" x2="-51.963" x1="-25.98" style="fill:none;"/><line y2="-55.9585" y1="-42.9791" x2="-51.9628" x1="-29.4799" style="fill:none;"/><line y2="-15" y1="0" x2="-77.943" x1="-51.96" style="fill:none;"/><line y2="-57.4438" y1="-45" x2="4.4274" x1="25.98" style="fill:none;"/><line y2="-60" y1="-45" x2="51.963" x1="25.98" style="fill:none;"/><line y2="-55.9585" y1="-42.9791" x2="51.9628" x1="29.4799" style="fill:none;"/><line y2="-15" y1="0" x2="77.943" x1="51.963" style="fill:none;"/><line y2="-45" y1="-60" x2="-77.943" x1="-51.963" style="fill:none;"/><line y2="-45" y1="-15" x2="-77.943" x1="-77.943" style="fill:none;"/><line y2="-42.9793" y1="-17.0207" x2="-74.443" x1="-74.443" style="fill:none;"/><line y2="-45" y1="-60" x2="77.943" x1="51.963" style="fill:none;"/><line y2="-45" y1="-15" x2="77.943" x1="77.943" style="fill:none;"/><line y2="-42.9793" y1="-17.0207" x2="74.443" x1="74.443" style="fill:none;"/><line y2="30" y1="45" x2="-51.96" x1="-25.98" style="fill:none;"/><line y2="34.0415" y1="47.0207" x2="-51.96" x1="-29.48" style="fill:none;"/><line y2="75" y1="45" x2="-25.98" x1="-25.98" style="fill:none;"/><line y2="45" y1="30" x2="-77.943" x1="-51.96" style="fill:none;"/><line y2="90" y1="75" x2="-51.96" x1="-25.98" style="fill:none;"/><line y2="85.9585" y1="72.9793" x2="-51.96" x1="-29.48" style="fill:none;"/><line y2="75" y1="45" x2="-77.943" x1="-77.943" style="fill:none;"/><line y2="72.9793" y1="47.0207" x2="-74.443" x1="-74.443" style="fill:none;"/><line y2="75" y1="90" x2="-77.943" x1="-51.96" style="fill:none;"/><path style="fill:none; stroke-miterlimit:5;" d="M0 29.5 L0 30 L-0.433 30.25"/></g><g transform="translate(133,93)" style="stroke-linecap:butt; fill:rgb(230,0,0); text-rendering:geometricPrecision; color-rendering:optimizeQuality; image-rendering:optimizeQuality; font-family:'Open Sans'; stroke:rgb(230,0,0); color-interpolation:linearRGB; stroke-miterlimit:5;"><path style="stroke:none;" d="M29.9175 44.9297 Q29.9175 46.9922 28.8784 48.1719 Q27.8394 49.3516 25.9956 49.3516 Q24.105 49.3516 23.0737 48.1875 Q22.0425 47.0234 22.0425 44.9141 Q22.0425 42.8203 23.0737 41.6719 Q24.105 40.5234 25.9956 40.5234 Q27.855 40.5234 28.8862 41.6953 Q29.9175 42.8672 29.9175 44.9297 ZM23.0894 44.9297 Q23.0894 46.6641 23.8316 47.5703 Q24.5737 48.4766 25.9956 48.4766 Q27.4175 48.4766 28.1441 47.5781 Q28.8706 46.6797 28.8706 44.9297 Q28.8706 43.1953 28.1441 42.3047 Q27.4175 41.4141 25.9956 41.4141 Q24.5737 41.4141 23.8316 42.3125 Q23.0894 43.2109 23.0894 44.9297 Z"/><path style="fill:rgb(0,5,255); stroke:none;" d="M-100.5714 -55.8438 L-101.7121 -55.8438 L-106.3996 -63.0312 L-106.4464 -63.0312 Q-106.3527 -61.7656 -106.3527 -60.7188 L-106.3527 -55.8438 L-107.2746 -55.8438 L-107.2746 -64.4062 L-106.1496 -64.4062 L-101.4777 -57.25 L-101.4308 -57.25 Q-101.4308 -57.4062 -101.4777 -58.2656 Q-101.5246 -59.125 -101.5089 -59.5 L-101.5089 -64.4062 L-100.5714 -64.4062 L-100.5714 -55.8438 Z"/><path style="fill:rgb(0,5,255); stroke:none;" d="M107.2746 -55.8438 L106.1339 -55.8438 L101.4464 -63.0312 L101.3996 -63.0312 Q101.4933 -61.7656 101.4933 -60.7188 L101.4933 -55.8438 L100.5714 -55.8438 L100.5714 -64.4062 L101.6964 -64.4062 L106.3683 -57.25 L106.4152 -57.25 Q106.4152 -57.4062 106.3683 -58.2656 Q106.3214 -59.125 106.3371 -59.5 L106.3371 -64.4062 L107.2746 -64.4062 L107.2746 -55.8438 Z"/><path style="fill:rgb(0,5,255); stroke:none;" d="M3.3516 4.1562 L2.2109 4.1562 L-2.4766 -3.0312 L-2.5234 -3.0312 Q-2.4297 -1.7656 -2.4297 -0.7188 L-2.4297 4.1562 L-3.3516 4.1562 L-3.3516 -4.4062 L-2.2266 -4.4062 L2.4453 2.75 L2.4922 2.75 Q2.4922 2.5938 2.4453 1.7344 Q2.3984 0.875 2.4141 0.5 L2.4141 -4.4062 L3.3516 -4.4062 L3.3516 4.1562 Z"/><path style="fill:none; stroke:black;" d="M-26.413 -14.75 L-25.98 -15 L-25.98 -15.5"/><path style="fill:none; stroke:black;" d="M26.413 -14.75 L25.98 -15 L25.547 -14.75"/><path style="fill:none; stroke:black;" d="M-26.413 -45.25 L-25.98 -45 L-25.547 -45.25"/><path style="fill:none; stroke:black;" d="M-51.527 -0.25 L-51.96 0 L-52.393 -0.25"/><path style="fill:none; stroke:black;" d="M26.413 -45.25 L25.98 -45 L25.98 -44.5"/><path style="fill:none; stroke:black;" d="M51.53 -0.25 L51.963 0 L52.396 -0.25"/><path style="fill:rgb(148,108,0); stroke:none;" d="M2.6953 -58.0625 Q2.6953 -56.9375 1.875 -56.2969 Q1.0547 -55.6562 -0.3516 -55.6562 Q-1.8828 -55.6562 -2.6953 -56.0625 L-2.6953 -57.0156 Q-2.1641 -56.7969 -1.5469 -56.6641 Q-0.9297 -56.5312 -0.3203 -56.5312 Q0.6797 -56.5312 1.1797 -56.9141 Q1.6797 -57.2969 1.6797 -57.9688 Q1.6797 -58.4062 1.5 -58.6953 Q1.3203 -58.9844 0.9062 -59.2266 Q0.4922 -59.4688 -0.3672 -59.7656 Q-1.5547 -60.1875 -2.0703 -60.7734 Q-2.5859 -61.3594 -2.5859 -62.3125 Q-2.5859 -63.2969 -1.8438 -63.8828 Q-1.1016 -64.4688 0.1328 -64.4688 Q1.3984 -64.4688 2.4766 -64 L2.1641 -63.1406 Q1.1016 -63.5781 0.1016 -63.5781 Q-0.6953 -63.5781 -1.1406 -63.2422 Q-1.5859 -62.9062 -1.5859 -62.2969 Q-1.5859 -61.8594 -1.4219 -61.5703 Q-1.2578 -61.2812 -0.8672 -61.0469 Q-0.4766 -60.8125 0.3359 -60.5156 Q1.6797 -60.0469 2.1875 -59.4922 Q2.6953 -58.9375 2.6953 -58.0625 Z"/><path style="fill:none; stroke:black;" d="M-51.53 -59.75 L-51.963 -60 L-52.396 -59.75"/><path style="fill:none; stroke:black;" d="M-77.51 -14.75 L-77.943 -15 L-77.943 -15.5"/><path style="fill:none; stroke:black;" d="M51.53 -59.75 L51.963 -60 L52.396 -59.75"/><path style="fill:none; stroke:black;" d="M77.51 -14.75 L77.943 -15 L77.943 -15.5"/><path style="fill:none; stroke:black;" d="M-77.943 -44.5 L-77.943 -45 L-78.376 -45.25"/><path style="fill:none; stroke:black;" d="M77.943 -44.5 L77.943 -45 L78.376 -45.25"/><path style="fill:none; stroke:black;" d="M-26.413 44.75 L-25.98 45 L-25.547 44.75"/><path style="fill:none; stroke:black;" d="M-51.527 30.25 L-51.96 30 L-52.393 30.25"/><path style="fill:none; stroke:black;" d="M-25.98 74.5 L-25.98 75 L-26.413 75.25"/><path style="fill:none; stroke:black;" d="M-77.51 44.75 L-77.943 45 L-77.943 45.5"/><path style="fill:none; stroke:black;" d="M-51.527 89.75 L-51.96 90 L-52.393 89.75"/><path style="fill:none; stroke:black;" d="M-77.943 74.5 L-77.943 75 L-77.51 75.25"/></g></g></svg></svg></svg></svg>