<svg xmlns:ns0="http://www.w3.org/2000/svg" xmlns="http://www.w3.org/2000/svg"><g transform="translate(0, 0)"><ns0:svg width="221" viewBox="0 0 221 97" style="fill-opacity:1; color-rendering:auto; color-interpolation:auto; text-rendering:auto; stroke:black; stroke-linecap:square; stroke-miterlimit:10; shape-rendering:auto; stroke-opacity:1; fill:black; stroke-dasharray:none; font-weight:normal; stroke-width:1; font-family:'Open Sans'; font-style:normal; stroke-linejoin:miter; font-size:12; stroke-dashoffset:0; image-rendering:auto;" height="97" class="cas-substance-image"><ns0:svg class="cas-substance-single-component"><ns0:rect y="0" x="0" width="221" stroke="none" ry="7" rx="7" height="97" fill="white" class="cas-substance-group" /><ns0:svg y="0" x="0" width="221" viewBox="0 0 221 97" style="fill:black;" height="97" class="cas-substance-single-component-image"><ns0:svg><ns0:g><ns0:g transform="translate(110,49)" style="text-rendering:geometricPrecision; color-rendering:optimizeQuality; color-interpolation:linearRGB; stroke-linecap:butt; image-rendering:optimizeQuality;"><ns0:line y2="0" y1="12.0652" x2="51.963" x1="31.0637" style="fill:none;" /><ns0:line y2="45" y1="21.1562" x2="25.98" x1="25.98" style="fill:none;" /><ns0:line y2="0" y1="12.0649" x2="0" x1="20.8964" style="fill:none;" /><ns0:line y2="15" y1="0" x2="77.943" x1="51.963" style="fill:none;" /><ns0:line y2="3.4486" y1="15" x2="97.9501" x1="77.943" style="fill:none;" /><ns0:line y2="-33.226" y1="-45" x2="-98.3355" x1="-77.943" style="fill:none;" /><ns0:line y2="-30.195" y1="-40.9585" x2="-96.5854" x1="-77.9429" style="fill:none;" /><ns0:line y2="-30" y1="-45" x2="-51.963" x1="-77.943" style="fill:none;" /><ns0:line y2="15" y1="0" x2="-25.98" x1="0" style="fill:none;" /><ns0:line y2="10.9585" y1="-2.0207" x2="-25.9801" x1="-3.5" style="fill:none;" /><ns0:line y2="-30" y1="0" x2="0" x1="0" style="fill:none;" /><ns0:line y2="0" y1="15" x2="-51.963" x1="-25.98" style="fill:none;" /><ns0:line y2="-45" y1="-30" x2="-25.98" x1="0" style="fill:none;" /><ns0:line y2="-40.9585" y1="-27.9793" x2="-25.9801" x1="-3.5" style="fill:none;" /><ns0:line y2="-30" y1="0" x2="-51.963" x1="-51.963" style="fill:none;" /><ns0:line y2="-27.9793" y1="-2.0207" x2="-48.463" x1="-48.463" style="fill:none;" /><ns0:line y2="-30" y1="-45" x2="-51.963" x1="-25.98" style="fill:none;" /></ns0:g><ns0:g transform="translate(110,49)" style="fill:rgb(0,5,255); text-rendering:geometricPrecision; color-rendering:optimizeQuality; image-rendering:optimizeQuality; font-family:'Open Sans'; stroke:rgb(0,5,255); color-interpolation:linearRGB;"><ns0:path style="stroke:none;" d="M29.3316 19.1562 L28.1909 19.1562 L23.5034 11.9688 L23.4566 11.9688 Q23.5503 13.2344 23.5503 14.2812 L23.5503 19.1562 L22.6284 19.1562 L22.6284 10.5938 L23.7534 10.5938 L28.4253 17.75 L28.4722 17.75 Q28.4722 17.5938 28.4253 16.7344 Q28.3784 15.875 28.3941 15.5 L28.3941 10.5938 L29.3316 10.5938 L29.3316 19.1562 Z" /></ns0:g><ns0:g transform="translate(110,49)" style="stroke-linecap:butt; text-rendering:geometricPrecision; color-rendering:optimizeQuality; image-rendering:optimizeQuality; font-family:'Open Sans'; color-interpolation:linearRGB; stroke-miterlimit:5;"><ns0:path style="fill:none;" d="M51.53 0.25 L51.963 0 L52.396 0.25" /><ns0:path style="fill:none;" d="M77.51 14.75 L77.943 15 L78.376 14.75" /><ns0:path style="fill:rgb(0,138,0); stroke:none;" d="M103.6144 -3.3594 Q102.2082 -3.3594 101.3878 -2.4219 Q100.5675 -1.4844 100.5675 0.1562 Q100.5675 1.8281 101.3566 2.75 Q102.1457 3.6719 103.5988 3.6719 Q104.505 3.6719 105.6457 3.3438 L105.6457 4.2188 Q104.755 4.5625 103.4582 4.5625 Q101.5675 4.5625 100.5363 3.4062 Q99.505 2.25 99.505 0.1406 Q99.505 -1.1875 99.9972 -2.1797 Q100.4894 -3.1719 101.4269 -3.7109 Q102.3644 -4.25 103.63 -4.25 Q104.9738 -4.25 105.9894 -3.7656 L105.5675 -2.9062 Q104.5832 -3.3594 103.6144 -3.3594 ZM108.341 4.4375 L107.3722 4.4375 L107.3722 -4.6875 L108.341 -4.6875 L108.341 4.4375 Z" /><ns0:path style="fill:none;" d="M-78.376 -44.75 L-77.943 -45 L-77.51 -44.75" /><ns0:path transform="translate(0.875,1.5155)" style="fill:rgb(230,0,0); stroke:none;" d="M-99.9855 -30.0703 Q-99.9855 -28.0078 -101.0246 -26.8281 Q-102.0636 -25.6484 -103.9074 -25.6484 Q-105.798 -25.6484 -106.8292 -26.8125 Q-107.8605 -27.9766 -107.8605 -30.0859 Q-107.8605 -32.1797 -106.8292 -33.3281 Q-105.798 -34.4766 -103.9074 -34.4766 Q-102.048 -34.4766 -101.0167 -33.3047 Q-99.9855 -32.1328 -99.9855 -30.0703 ZM-106.8136 -30.0703 Q-106.8136 -28.3359 -106.0714 -27.4297 Q-105.3292 -26.5234 -103.9074 -26.5234 Q-102.4855 -26.5234 -101.7589 -27.4219 Q-101.0324 -28.3203 -101.0324 -30.0703 Q-101.0324 -31.8047 -101.7589 -32.6953 Q-102.4855 -33.5859 -103.9074 -33.5859 Q-105.3292 -33.5859 -106.0714 -32.6875 Q-106.8136 -31.7891 -106.8136 -30.0703 Z" /></ns0:g><ns0:g transform="matrix(1,0,0,1,110,49)" style="stroke-linecap:butt; text-rendering:geometricPrecision; color-rendering:optimizeQuality; image-rendering:optimizeQuality; font-family:'Open Sans'; color-interpolation:linearRGB; stroke-miterlimit:5;"><ns0:path style="fill:none;" d="M-0.433 0.25 L0 0 L0 -0.5" /><ns0:path style="fill:none;" d="M-25.547 14.75 L-25.98 15 L-26.413 14.75" /><ns0:path style="fill:none;" d="M-0 -29.5 L0 -30 L-0.433 -30.25" /><ns0:path style="fill:none;" d="M-51.53 0.25 L-51.963 0 L-51.963 -0.5" /><ns0:path style="fill:none;" d="M-25.547 -44.75 L-25.98 -45 L-26.413 -44.75" /><ns0:path style="fill:none;" d="M-51.963 -29.5 L-51.963 -30 L-52.396 -30.25" /></ns0:g></ns0:g></ns0:svg></ns0:svg></ns0:svg></ns0:svg></g></svg>