<svg xmlns:ns0="http://www.w3.org/2000/svg" xmlns="http://www.w3.org/2000/svg"><g transform="translate(0, 0)"><ns0:svg width="441" viewBox="0 0 441 202" style="fill-opacity:1; color-rendering:auto; color-interpolation:auto; text-rendering:auto; stroke:black; stroke-linecap:square; stroke-miterlimit:10; shape-rendering:auto; stroke-opacity:1; fill:black; stroke-dasharray:none; font-weight:normal; stroke-width:1; font-family:'Open Sans'; font-style:normal; stroke-linejoin:miter; font-size:12; stroke-dashoffset:0; image-rendering:auto;" height="202" class="cas-substance-image"><ns0:svg class="cas-substance-single-component"><ns0:rect y="0" x="0" width="441" stroke="none" ry="7" rx="7" height="202" fill="white" class="cas-substance-group" /><ns0:svg y="0" x="0" width="441" viewBox="0 0 441 202" style="fill:black;" height="202" class="cas-substance-single-component-image"><ns0:svg><ns0:g><ns0:g transform="translate(220,101)" style="text-rendering:geometricPrecision; color-rendering:optimizeQuality; color-interpolation:linearRGB; stroke-linecap:butt; image-rendering:optimizeQuality;"><ns0:line y2="-29.1278" y1="-41.193" x2="46.4326" x1="67.332" style="fill:none;" /><ns0:path style="stroke:none;" d="M70.3321 -42.925 L69.0467 -42.1829 L66.7987 -38.2846 L67.7043 -37.8528 L67.7043 -37.8528 L70.5437 -42.7765 L70.3321 -42.925 ZM72.1879 -41.6229 L69.5156 -36.989 L70.4213 -36.5571 L70.4213 -36.5571 L73.01 -41.0461 L72.1879 -41.6229 ZM74.6541 -39.8925 L72.2326 -35.6933 L73.1382 -35.2614 L75.4762 -39.3157 L75.4762 -39.3157 L74.6541 -39.8925 ZM77.1204 -38.1621 L74.9495 -34.3976 L75.8552 -33.9657 L77.9425 -37.5853 L77.1204 -38.1621 ZM79.5866 -36.4316 L77.6665 -33.1019 L77.6665 -33.1019 L78.5721 -32.67 L78.5721 -32.67 L80.4087 -35.8548 L80.4087 -35.8548 L79.5866 -36.4316 ZM82.0529 -34.7012 L80.3834 -31.8062 L81.2891 -31.3743 L81.2891 -31.3743 L82.875 -34.1244 L82.0529 -34.7012 ZM84.5191 -32.9708 L83.1004 -30.5106 L83.1004 -30.5106 L84.006 -30.0787 L85.3412 -32.394 L84.5191 -32.9708 ZM86.9854 -31.2404 L85.8173 -29.2149 L86.723 -28.783 L87.8075 -30.6636 L86.9854 -31.2404 ZM89.4516 -29.51 L88.5343 -27.9192 L88.5343 -27.9192 L89.4399 -27.4873 L90.2737 -28.9332 L90.2737 -28.9332 L89.4516 -29.51 ZM91.9179 -27.7796 L91.2512 -26.6235 L92.1569 -26.1916 L92.1569 -26.1916 L92.74 -27.2028 L91.9179 -27.7796 Z" /><ns0:line y2="-41.193" y1="-29.1281" x2="15.369" x1="36.2654" style="fill:none;" /><ns0:line y2="3.807" y1="-20.0367" x2="41.349" x1="41.349" style="fill:none;" /><ns0:line y2="-26.193" y1="-41.193" x2="-10.611" x1="15.369" style="fill:none;" /><ns0:line y2="-41.193" y1="-26.193" x2="-36.591" x1="-10.611" style="fill:none;" /><ns0:line y2="-29.1278" y1="-41.193" x2="-57.4903" x1="-36.591" style="fill:none;" /><ns0:line y2="-97.599" y1="-75.0274" x2="185.928" x1="191.9775" style="fill:none;" /><ns0:line y2="-47.406" y1="-64.1664" x2="172.482" x1="189.2424" style="fill:none;" /><ns0:line y2="18.312" y1="-4.3816" x2="216.987" x1="210.9066" style="fill:none;" /><ns0:line y2="-18.429" y1="-12.2376" x2="180.246" x1="203.3537" style="fill:none;" /><ns0:line y2="-42.5224" y1="-66.6905" x2="-89.216" x1="-85.5742" style="fill:none;" /><ns0:line y2="-42.0006" y1="-66.169" x2="-85.7552" x1="-82.1133" style="fill:none;" /><ns0:line y2="-6.324" y1="13.9284" x2="-216.987" x1="-205.2939" style="fill:none;" /><ns0:line y2="19.656" y1="19.656" x2="-171.987" x1="-196.0495" style="fill:none;" /><ns0:line y2="97.599" y1="77.2547" x2="-156.987" x1="-168.7331" style="fill:none;" /><ns0:line y2="45.636" y1="65.8971" x2="-156.987" x1="-168.6837" style="fill:none;" /><ns0:line y2="-4.98" y1="-33.96" x2="130.053" x1="122.289" style="fill:none;" /><ns0:line y2="-26.193" y1="-33.96" x2="93.312" x1="122.289" style="fill:none;" /><ns0:line y2="-55.173" y1="-33.96" x2="143.502" x1="122.289" style="fill:none;" /><ns0:line y2="-51.2693" y1="-32.914" x2="144.548" x1="126.1927" style="fill:none;" /><ns0:line y2="2.784" y1="-4.98" x2="101.076" x1="130.053" style="fill:none;" /><ns0:line y2="2.784" y1="-4.98" x2="159.033" x1="130.053" style="fill:none;" /><ns0:line y2="-1.1197" y1="-7.8378" x2="157.9868" x1="132.9106" style="fill:none;" /><ns0:line y2="2.784" y1="-26.193" x2="101.076" x1="93.312" style="fill:none;" /><ns0:line y2="-47.406" y1="-55.173" x2="172.482" x1="143.502" style="fill:none;" /><ns0:line y2="-18.429" y1="2.784" x2="180.246" x1="159.033" style="fill:none;" /><ns0:line y2="-18.429" y1="-47.406" x2="180.246" x1="172.482" style="fill:none;" /><ns0:line y2="-19.4751" y1="-44.5483" x2="176.3423" x1="169.6242" style="fill:none;" /><ns0:line y2="-43.095" y1="-29.6053" x2="-87.36" x1="-67.5779" style="fill:none;" /><ns0:line y2="3.723" y1="-20.0424" x2="-60.33" x1="-62.1126" style="fill:none;" /><ns0:line y2="-34.251" y1="-43.095" x2="-116.028" x1="-87.36" style="fill:none;" /><ns0:line y2="24.126" y1="3.723" x2="-82.323" x1="-60.33" style="fill:none;" /><ns0:line y2="-6.324" y1="-34.251" x2="-126.987" x1="-116.028" style="fill:none;" /><ns0:line y2="19.656" y1="24.126" x2="-111.987" x1="-82.323" style="fill:none;" /><ns0:line y2="19.656" y1="-6.324" x2="-111.987" x1="-126.987" style="fill:none;" /><ns0:line y2="-6.324" y1="-6.324" x2="-156.987" x1="-126.987" style="fill:none;" /><ns0:line y2="-2.824" y1="-2.824" x2="-154.9663" x1="-129.0077" style="fill:none;" /><ns0:line y2="45.636" y1="19.656" x2="-126.987" x1="-111.987" style="fill:none;" /><ns0:line y2="42.136" y1="19.6559" x2="-129.0077" x1="-116.0285" style="fill:none;" /><ns0:line y2="19.656" y1="-6.324" x2="-171.987" x1="-156.987" style="fill:none;" /><ns0:line y2="45.636" y1="45.636" x2="-156.987" x1="-126.987" style="fill:none;" /><ns0:line y2="45.636" y1="19.656" x2="-156.987" x1="-171.987" style="fill:none;" /><ns0:line y2="42.136" y1="19.6559" x2="-154.9663" x1="-167.9455" style="fill:none;" /></ns0:g><ns0:g transform="translate(220,101)" style="fill:rgb(0,5,255); text-rendering:geometricPrecision; color-rendering:optimizeQuality; image-rendering:optimizeQuality; font-family:'Open Sans'; stroke:rgb(0,5,255); color-interpolation:linearRGB;"><ns0:path style="stroke:none;" d="M44.7006 -22.0367 L43.5599 -22.0367 L38.8724 -29.2242 L38.8256 -29.2242 Q38.9193 -27.9586 38.9193 -26.9117 L38.9193 -22.0367 L37.9974 -22.0367 L37.9974 -30.5992 L39.1224 -30.5992 L43.7943 -23.443 L43.8412 -23.443 Q43.8412 -23.5992 43.7943 -24.4586 Q43.7474 -25.318 43.7631 -25.693 L43.7631 -30.5992 L44.7006 -30.5992 L44.7006 -22.0367 Z" /></ns0:g><ns0:g transform="translate(220,101)" style="stroke-linecap:butt; text-rendering:geometricPrecision; color-rendering:optimizeQuality; image-rendering:optimizeQuality; font-family:'Open Sans'; color-interpolation:linearRGB; stroke-miterlimit:5;"><ns0:path style="fill:none;" d="M15.802 -40.943 L15.369 -41.193 L14.936 -40.943" /><ns0:path style="fill:none;" d="M-10.178 -26.443 L-10.611 -26.193 L-11.044 -26.443" /><ns0:path style="fill:none;" d="M-36.158 -40.943 L-36.591 -41.193 L-37.024 -40.943" /><ns0:path style="fill:rgb(230,0,0); stroke:none;" d="M197.6325 -68.6893 Q197.6325 -66.6268 196.5934 -65.4471 Q195.5544 -64.2674 193.7106 -64.2674 Q191.82 -64.2674 190.7888 -65.4315 Q189.7575 -66.5956 189.7575 -68.7049 Q189.7575 -70.7987 190.7888 -71.9471 Q191.82 -73.0956 193.7106 -73.0956 Q195.57 -73.0956 196.6013 -71.9237 Q197.6325 -70.7518 197.6325 -68.6893 ZM190.8044 -68.6893 Q190.8044 -66.9549 191.5466 -66.0487 Q192.2888 -65.1424 193.7106 -65.1424 Q195.1325 -65.1424 195.8591 -66.0409 Q196.5856 -66.9393 196.5856 -68.6893 Q196.5856 -70.4237 195.8591 -71.3143 Q195.1325 -72.2049 193.7106 -72.2049 Q192.2888 -72.2049 191.5466 -71.3065 Q190.8044 -70.4081 190.8044 -68.6893 Z" /><ns0:path style="fill:rgb(230,0,0); stroke:none;" d="M213.1605 -10.7353 Q213.1605 -8.6728 212.1214 -7.4931 Q211.0824 -6.3134 209.2386 -6.3134 Q207.348 -6.3134 206.3168 -7.4775 Q205.2855 -8.6416 205.2855 -10.7509 Q205.2855 -12.8447 206.3168 -13.9931 Q207.348 -15.1416 209.2386 -15.1416 Q211.098 -15.1416 212.1293 -13.9697 Q213.1605 -12.7978 213.1605 -10.7353 ZM206.3324 -10.7353 Q206.3324 -9.0009 207.0746 -8.0947 Q207.8168 -7.1884 209.2386 -7.1884 Q210.6605 -7.1884 211.3871 -8.0869 Q212.1136 -8.9853 212.1136 -10.7353 Q212.1136 -12.4697 211.3871 -13.3603 Q210.6605 -14.2509 209.2386 -14.2509 Q207.8168 -14.2509 207.0746 -13.3525 Q206.3324 -12.4541 206.3324 -10.7353 Z" /><ns0:path style="fill:rgb(230,0,0); stroke:none;" d="M-78.9525 -72.8293 Q-78.9525 -70.7668 -79.9916 -69.5871 Q-81.0306 -68.4074 -82.8744 -68.4074 Q-84.765 -68.4074 -85.7962 -69.5715 Q-86.8275 -70.7356 -86.8275 -72.8449 Q-86.8275 -74.9387 -85.7962 -76.0871 Q-84.765 -77.2356 -82.8744 -77.2356 Q-81.015 -77.2356 -79.9837 -76.0637 Q-78.9525 -74.8918 -78.9525 -72.8293 ZM-85.7806 -72.8293 Q-85.7806 -71.0949 -85.0384 -70.1887 Q-84.2962 -69.2824 -82.8744 -69.2824 Q-81.4525 -69.2824 -80.7259 -70.1809 Q-79.9994 -71.0793 -79.9994 -72.8293 Q-79.9994 -74.5637 -80.7259 -75.4543 Q-81.4525 -76.3449 -82.8744 -76.3449 Q-84.2962 -76.3449 -85.0384 -75.4465 Q-85.7806 -74.5481 -85.7806 -72.8293 Z" /><ns0:path style="fill:rgb(230,0,0); stroke:none;" d="M-198.0495 19.5857 Q-198.0495 21.6482 -199.0886 22.8279 Q-200.1276 24.0076 -201.9714 24.0076 Q-203.862 24.0076 -204.8932 22.8435 Q-205.9245 21.6794 -205.9245 19.5701 Q-205.9245 17.4763 -204.8932 16.3279 Q-203.862 15.1794 -201.9714 15.1794 Q-200.112 15.1794 -199.0807 16.3513 Q-198.0495 17.5232 -198.0495 19.5857 ZM-204.8776 19.5857 Q-204.8776 21.3201 -204.1354 22.2263 Q-203.3932 23.1326 -201.9714 23.1326 Q-200.5495 23.1326 -199.8229 22.2341 Q-199.0964 21.3357 -199.0964 19.5857 Q-199.0964 17.8513 -199.8229 16.9607 Q-200.5495 16.0701 -201.9714 16.0701 Q-203.3932 16.0701 -204.1354 16.9685 Q-204.8776 17.8669 -204.8776 19.5857 Z" /><ns0:path style="fill:rgb(230,0,0); stroke:none;" d="M-168.0495 71.5487 Q-168.0495 73.6112 -169.0886 74.7909 Q-170.1276 75.9706 -171.9714 75.9706 Q-173.862 75.9706 -174.8932 74.8065 Q-175.9245 73.6424 -175.9245 71.5331 Q-175.9245 69.4393 -174.8932 68.2909 Q-173.862 67.1424 -171.9714 67.1424 Q-170.112 67.1424 -169.0807 68.3143 Q-168.0495 69.4862 -168.0495 71.5487 ZM-174.8776 71.5487 Q-174.8776 73.2831 -174.1354 74.1893 Q-173.3932 75.0956 -171.9714 75.0956 Q-170.5495 75.0956 -169.8229 74.1971 Q-169.0964 73.2987 -169.0964 71.5487 Q-169.0964 69.8143 -169.8229 68.9237 Q-170.5495 68.0331 -171.9714 68.0331 Q-173.3932 68.0331 -174.1354 68.9315 Q-174.8776 69.8299 -174.8776 71.5487 Z" /><ns0:path style="fill:none;" d="M122.6426 -34.3136 L122.289 -33.96 L122.4184 -33.477" /><ns0:path style="fill:none;" d="M130.536 -4.8506 L130.053 -4.98 L129.57 -4.8506" /><ns0:path style="fill:none;" d="M93.7949 -26.3224 L93.312 -26.193 L93.4414 -25.71" /></ns0:g><ns0:g transform="translate(220,101)" style="stroke-linecap:butt; font-size:8.4px; fill:gray; text-rendering:geometricPrecision; image-rendering:optimizeQuality; color-rendering:optimizeQuality; font-family:'Open Sans'; font-style:italic; stroke:gray; color-interpolation:linearRGB; stroke-miterlimit:5;"><ns0:path style="stroke:none;" d="M90.5084 -34.9044 Q90.5084 -36.2325 90.9771 -37.3575 Q91.4459 -38.4825 92.4771 -39.5606 L93.0865 -39.5606 Q92.1178 -38.4981 91.6334 -37.3262 Q91.149 -36.1544 91.149 -34.92 Q91.149 -33.5919 91.5865 -32.5762 L91.0709 -32.5762 Q90.5084 -33.6075 90.5084 -34.9044 ZM96.1309 -35.4981 Q96.1309 -34.67 95.5841 -34.2169 Q95.0372 -33.7637 94.0372 -33.7637 Q93.6309 -33.7637 93.3184 -33.8184 Q93.0059 -33.8731 92.7247 -34.0137 L92.7247 -34.67 Q93.3497 -34.3419 94.0528 -34.3419 Q94.6778 -34.3419 95.0528 -34.6387 Q95.4278 -34.9356 95.4278 -35.4512 Q95.4278 -35.7637 95.2247 -35.9903 Q95.0216 -36.2169 94.4591 -36.545 Q93.8653 -36.8731 93.6387 -37.2012 Q93.4122 -37.5294 93.4122 -37.9825 Q93.4122 -38.7169 93.9278 -39.1778 Q94.4434 -39.6387 95.2872 -39.6387 Q95.6622 -39.6387 95.9981 -39.5606 Q96.3341 -39.4825 96.7091 -39.3106 L96.4434 -38.7169 Q96.1934 -38.8731 95.8731 -38.9591 Q95.5528 -39.045 95.2872 -39.045 Q94.7559 -39.045 94.4356 -38.7716 Q94.1153 -38.4981 94.1153 -38.0294 Q94.1153 -37.8262 94.1856 -37.6778 Q94.2559 -37.5294 94.3966 -37.3966 Q94.5372 -37.2637 94.9591 -37.0137 Q95.5216 -36.67 95.7247 -36.4747 Q95.9278 -36.2794 96.0294 -36.045 Q96.1309 -35.8106 96.1309 -35.4981 ZM98.7254 -37.2169 Q98.7254 -35.8887 98.2489 -34.7559 Q97.7723 -33.6231 96.7567 -32.5762 L96.1473 -32.5762 Q98.0848 -34.7325 98.0848 -37.2169 Q98.0848 -38.545 97.6473 -39.5606 L98.1629 -39.5606 Q98.7254 -38.4981 98.7254 -37.2169 Z" /><ns0:path style="fill:none; stroke:black;" d="M143.1485 -54.8194 L143.502 -55.173 L143.985 -55.0436" /><ns0:path style="fill:none; stroke:black;" d="M101.559 2.6546 L101.076 2.784 L100.9466 2.301" /><ns0:path style="fill:none; stroke:black;" d="M158.55 2.6546 L159.033 2.784 L159.3865 2.4304" /><ns0:path style="fill:none; stroke:black;" d="M172.6114 -46.923 L172.482 -47.406 L172.8356 -47.7596" /><ns0:path style="fill:none; stroke:black;" d="M180.1166 -18.912 L180.246 -18.429 L180.729 -18.2996" /></ns0:g><ns0:g transform="translate(220,101)" style="stroke-linecap:butt; fill:rgb(0,5,255); text-rendering:geometricPrecision; color-rendering:optimizeQuality; image-rendering:optimizeQuality; font-family:'Open Sans'; stroke:rgb(0,5,255); color-interpolation:linearRGB; stroke-miterlimit:5;"><ns0:path style="stroke:none;" d="M-59.2224 -22.0367 L-60.3631 -22.0367 L-65.0506 -29.2242 L-65.0974 -29.2242 Q-65.0037 -27.9586 -65.0037 -26.9117 L-65.0037 -22.0367 L-65.9256 -22.0367 L-65.9256 -30.5992 L-64.8006 -30.5992 L-60.1287 -23.443 L-60.0818 -23.443 Q-60.0818 -23.5992 -60.1287 -24.4586 Q-60.1756 -25.318 -60.1599 -25.693 L-60.1599 -30.5992 L-59.2224 -30.5992 L-59.2224 -22.0367 Z" /><ns0:path style="fill:none; stroke:black;" d="M-86.9469 -42.8133 L-87.36 -43.095 L-87.8378 -42.9476" /><ns0:path style="fill:none; stroke:black;" d="M-60.3674 3.2244 L-60.33 3.723 L-60.6966 4.0631" /><ns0:path style="fill:none; stroke:black;" d="M-115.5502 -34.3984 L-116.028 -34.251 L-116.2106 -33.7856" /><ns0:path style="fill:none; stroke:black;" d="M-81.9565 23.7859 L-82.323 24.126 L-82.8174 24.0515" /><ns0:path style="fill:none; stroke:black;" d="M-127.487 -6.324 L-126.987 -6.324 L-126.8044 -6.7894" /><ns0:path style="fill:none; stroke:black;" d="M-112.237 20.089 L-111.987 19.656 L-111.4926 19.7305" /><ns0:path style="fill:none; stroke:black;" d="M-156.487 -6.324 L-156.987 -6.324 L-157.237 -5.891" /><ns0:path style="fill:none; stroke:black;" d="M-126.737 45.203 L-126.987 45.636 L-127.487 45.636" /><ns0:path style="fill:none; stroke:black;" d="M-171.737 20.089 L-171.987 19.656 L-172.487 19.656" /><ns0:path style="fill:none; stroke:black;" d="M-157.237 45.203 L-156.987 45.636 L-157.237 46.069" /></ns0:g></ns0:g></ns0:svg></ns0:svg></ns0:svg></ns0:svg></g></svg>