<svg xmlns:ns0="http://www.w3.org/2000/svg" xmlns="http://www.w3.org/2000/svg"><g transform="translate(0, 0)"><ns0:svg width="451" viewBox="0 0 451 131" style="fill-opacity:1; color-rendering:auto; color-interpolation:auto; text-rendering:auto; stroke:black; stroke-linecap:square; stroke-miterlimit:10; shape-rendering:auto; stroke-opacity:1; fill:black; stroke-dasharray:none; font-weight:normal; stroke-width:1; font-family:'Open Sans'; font-style:normal; stroke-linejoin:miter; font-size:12; stroke-dashoffset:0; image-rendering:auto;" height="131" class="cas-substance-image"><ns0:svg class="cas-substance-single-component"><ns0:rect y="0" x="0" width="451" stroke="none" ry="7" rx="7" height="131" fill="white" class="cas-substance-group" /><ns0:svg y="0" x="0" width="451" viewBox="0 0 451 131" style="fill:black;" height="131" class="cas-substance-single-component-image"><ns0:svg><ns0:g><ns0:g transform="translate(227,64)" style="text-rendering:geometricPrecision; color-rendering:optimizeQuality; color-interpolation:linearRGB; stroke-linecap:butt; image-rendering:optimizeQuality;"><ns0:line y2="-45" y1="-60" x2="12.99" x1="-12.99" style="fill:none;" /><ns0:line y2="-45" y1="-60" x2="-38.97" x1="-12.99" style="fill:none;" /><ns0:line y2="-60" y1="-45" x2="38.97" x1="12.99" style="fill:none;" /><ns0:line y2="-45" y1="-60" x2="64.953" x1="38.97" style="fill:none;" /><ns0:line y2="-60" y1="-45" x2="90.933" x1="64.953" style="fill:none;" /><ns0:line y2="-45" y1="-60" x2="116.913" x1="90.933" style="fill:none;" /><ns0:line y2="-60" y1="-45" x2="142.893" x1="116.913" style="fill:none;" /><ns0:line y2="-45" y1="-60" x2="168.876" x1="142.893" style="fill:none;" /><ns0:line y2="-60" y1="-45" x2="194.856" x1="168.876" style="fill:none;" /><ns0:line y2="-45" y1="-60" x2="220.836" x1="194.856" style="fill:none;" /><ns0:line y2="57.0649" y1="45" x2="-215.7524" x1="-194.856" style="fill:none;" /><ns0:line y2="60.096" y1="48.0311" x2="-214.0023" x1="-193.106" style="fill:none;" /><ns0:line y2="54.0338" y1="41.9689" x2="-217.5024" x1="-196.606" style="fill:none;" /><ns0:line y2="30" y1="45" x2="-168.876" x1="-194.856" style="fill:none;" /><ns0:line y2="-45" y1="-15" x2="-90.933" x1="-90.933" style="fill:none;" /><ns0:line y2="-42.9793" y1="-17.0207" x2="-87.433" x1="-87.433" style="fill:none;" /><ns0:line y2="0" y1="-15" x2="-64.953" x1="-90.933" style="fill:none;" /><ns0:line y2="0" y1="-15" x2="-116.913" x1="-90.933" style="fill:none;" /><ns0:line y2="-60" y1="-45" x2="-64.953" x1="-90.933" style="fill:none;" /><ns0:line y2="-15" y1="0" x2="-38.97" x1="-64.953" style="fill:none;" /><ns0:line y2="-17.0209" y1="-4.0415" x2="-42.4699" x1="-64.9529" style="fill:none;" /><ns0:line y2="-45" y1="-60" x2="-38.97" x1="-64.953" style="fill:none;" /><ns0:line y2="-42.9791" y1="-55.9585" x2="-42.4699" x1="-64.9529" style="fill:none;" /><ns0:line y2="-45" y1="-15" x2="-38.97" x1="-38.97" style="fill:none;" /><ns0:line y2="-15" y1="0" x2="-142.893" x1="-116.913" style="fill:none;" /><ns0:line y2="-10.9585" y1="2.0207" x2="-142.8931" x1="-120.413" style="fill:none;" /><ns0:line y2="30" y1="0" x2="-116.913" x1="-116.913" style="fill:none;" /><ns0:line y2="0" y1="-15" x2="-168.876" x1="-142.893" style="fill:none;" /><ns0:line y2="45" y1="30" x2="-142.893" x1="-116.913" style="fill:none;" /><ns0:line y2="40.9585" y1="27.9793" x2="-142.8931" x1="-120.413" style="fill:none;" /><ns0:line y2="30" y1="0" x2="-168.876" x1="-168.876" style="fill:none;" /><ns0:line y2="27.9793" y1="2.0207" x2="-165.376" x1="-165.376" style="fill:none;" /><ns0:line y2="30" y1="45" x2="-168.876" x1="-142.893" style="fill:none;" /><ns0:path style="fill:none; stroke-miterlimit:5;" d="M-12.557 -59.75 L-12.99 -60 L-13.423 -59.75" /><ns0:path style="fill:none; stroke-miterlimit:5;" d="M12.557 -45.25 L12.99 -45 L13.423 -45.25" /><ns0:path style="fill:none; stroke-miterlimit:5;" d="M38.537 -59.75 L38.97 -60 L39.403 -59.75" /><ns0:path style="fill:none; stroke-miterlimit:5;" d="M64.52 -45.25 L64.953 -45 L65.386 -45.25" /><ns0:path style="fill:none; stroke-miterlimit:5;" d="M90.5 -59.75 L90.933 -60 L91.366 -59.75" /><ns0:path style="fill:none; stroke-miterlimit:5;" d="M116.48 -45.25 L116.913 -45 L117.346 -45.25" /><ns0:path style="fill:none; stroke-miterlimit:5;" d="M142.46 -59.75 L142.893 -60 L143.326 -59.75" /><ns0:path style="fill:none; stroke-miterlimit:5;" d="M168.443 -45.25 L168.876 -45 L169.309 -45.25" /><ns0:path style="fill:none; stroke-miterlimit:5;" d="M194.423 -59.75 L194.856 -60 L195.289 -59.75" /></ns0:g><ns0:g transform="translate(227,64)" style="stroke-linecap:butt; fill:rgb(0,5,255); text-rendering:geometricPrecision; color-rendering:optimizeQuality; image-rendering:optimizeQuality; font-family:'Open Sans'; stroke:rgb(0,5,255); color-interpolation:linearRGB; stroke-miterlimit:5;"><ns0:path style="stroke:none;" d="M-217.4844 64.1562 L-218.6251 64.1562 L-223.3126 56.9688 L-223.3594 56.9688 Q-223.2657 58.2344 -223.2657 59.2812 L-223.2657 64.1562 L-224.1876 64.1562 L-224.1876 55.5938 L-223.0626 55.5938 L-218.3907 62.75 L-218.3438 62.75 Q-218.3438 62.5938 -218.3907 61.7344 Q-218.4376 60.875 -218.4219 60.5 L-218.4219 55.5938 L-217.4844 55.5938 L-217.4844 64.1562 Z" /><ns0:path style="fill:none; stroke:black;" d="M-90.933 -15.5 L-90.933 -15 L-90.5 -14.75" /><ns0:path style="fill:none; stroke:black;" d="M-90.933 -44.5 L-90.933 -45 L-90.5 -45.25" /><ns0:path style="fill:none; stroke:black;" d="M-65.386 -0.25 L-64.953 0 L-64.52 -0.25" /><ns0:path style="fill:none; stroke:black;" d="M-65.386 -59.75 L-64.953 -60 L-64.52 -59.75" /><ns0:path style="fill:none; stroke:black;" d="M-39.403 -14.75 L-38.97 -15 L-38.97 -15.5" /><ns0:path style="fill:none; stroke:black;" d="M-39.403 -45.25 L-38.97 -45 L-38.537 -45.25" /><ns0:path style="fill:none; stroke:black;" d="M-117.346 -0.25 L-116.913 0 L-116.48 -0.25" /><ns0:path style="fill:none; stroke:black;" d="M-142.46 -14.75 L-142.893 -15 L-143.326 -14.75" /><ns0:path style="fill:none; stroke:black;" d="M-116.913 29.5 L-116.913 30 L-117.346 30.25" /><ns0:path style="fill:none; stroke:black;" d="M-168.443 -0.25 L-168.876 0 L-168.876 0.5" /><ns0:path style="fill:none; stroke:black;" d="M-142.46 44.75 L-142.893 45 L-143.326 44.75" /><ns0:path style="fill:none; stroke:black;" d="M-168.876 29.5 L-168.876 30 L-169.309 30.25" /></ns0:g></ns0:g></ns0:svg></ns0:svg></ns0:svg></ns0:svg></g></svg>