<svg xmlns:ns0="http://www.w3.org/2000/svg" xmlns="http://www.w3.org/2000/svg"><g transform="translate(0, 0)"><ns0:svg width="697" viewBox="0 0 697 643" style="fill-opacity:1; color-rendering:auto; color-interpolation:auto; text-rendering:auto; stroke:black; stroke-linecap:square; stroke-miterlimit:10; shape-rendering:auto; stroke-opacity:1; fill:black; stroke-dasharray:none; font-weight:normal; stroke-width:1; font-family:'Open Sans'; font-style:normal; stroke-linejoin:miter; font-size:12; stroke-dashoffset:0; image-rendering:auto;" height="643" class="cas-substance-image"><ns0:svg class="cas-substance-single-component"><ns0:rect y="0" x="0" width="697" stroke="none" ry="7" rx="7" height="643" fill="white" class="cas-substance-group" /><ns0:svg y="0" x="0" width="697" viewBox="0 0 697 643" style="fill:black;" height="643" class="cas-substance-single-component-image"><ns0:svg><ns0:g><ns0:g transform="translate(349,315)" style="text-rendering:geometricPrecision; color-rendering:optimizeQuality; color-interpolation:linearRGB; stroke-linecap:butt; image-rendering:optimizeQuality;"><ns0:line y2="-31.7019" y1="-51.963" x2="-26.6967" x1="-15" style="fill:none;" /><ns0:line y2="-51.963" y1="-51.963" x2="15" x1="-15" style="fill:none;" /><ns0:line y2="-77.943" y1="-51.963" x2="-30" x1="-15" style="fill:none;" /><ns0:line y2="0" y1="-20.3443" x2="-15" x1="-26.7461" style="fill:none;" /><ns0:line y2="-72.295" y1="-51.963" x2="26.739" x1="15" style="fill:none;" /><ns0:line y2="-77.943" y1="-77.943" x2="-54.0625" x1="-30" style="fill:none;" /><ns0:line y2="25.98" y1="0" x2="-30" x1="-15" style="fill:none;" /><ns0:line y2="1.75" y1="1.75" x2="9.0625" x1="-16.0104" style="fill:none;" /><ns0:line y2="-1.75" y1="-1.75" x2="9.0625" x1="-16.0104" style="fill:none;" /><ns0:line y2="-77.943" y1="-77.943" x2="60" x1="35.9375" style="fill:none;" /><ns0:line y2="-103.923" y1="-83.6706" x2="-75" x1="-63.3069" style="fill:none;" /><ns0:line y2="51.963" y1="25.98" x2="-15" x1="-30" style="fill:none;" /><ns0:line y2="-103.923" y1="-77.943" x2="75" x1="60" style="fill:none;" /><ns0:line y2="-56.8156" y1="-77.943" x2="70.1775" x1="57.9793" style="fill:none;" /><ns0:line y2="-58.5656" y1="-79.693" x2="73.2086" x1="61.0104" style="fill:none;" /><ns0:line y2="-103.923" y1="-103.923" x2="-105" x1="-75" style="fill:none;" /><ns0:line y2="-123.38" y1="-102.173" x2="-61.7454" x1="-73.9896" style="fill:none;" /><ns0:line y2="-125.1301" y1="-103.923" x2="-64.7765" x1="-77.0207" style="fill:none;" /><ns0:line y2="77.943" y1="51.963" x2="-30" x1="-15" style="fill:none;" /><ns0:line y2="-103.923" y1="-103.923" x2="105" x1="75" style="fill:none;" /><ns0:line y2="-129.903" y1="-103.923" x2="-120" x1="-105" style="fill:none;" /><ns0:line y2="103.923" y1="77.943" x2="-15" x1="-30" style="fill:none;" /><ns0:line y2="-129.903" y1="-103.923" x2="120" x1="105" style="fill:none;" /><ns0:line y2="-129.903" y1="-129.903" x2="-150" x1="-120" style="fill:none;" /><ns0:line y2="129.903" y1="103.923" x2="-30" x1="-15" style="fill:none;" /><ns0:line y2="-129.903" y1="-129.903" x2="150" x1="120" style="fill:none;" /><ns0:line y2="-155.886" y1="-129.903" x2="-165" x1="-150" style="fill:none;" /><ns0:line y2="155.886" y1="129.903" x2="-15" x1="-30" style="fill:none;" /><ns0:line y2="-155.886" y1="-129.903" x2="165" x1="150" style="fill:none;" /><ns0:line y2="-155.883" y1="-155.886" x2="-195" x1="-165" style="fill:none;" /><ns0:line y2="181.866" y1="155.886" x2="-30" x1="-15" style="fill:none;" /><ns0:line y2="-155.886" y1="-155.886" x2="195" x1="165" style="fill:none;" /><ns0:line y2="-181.866" y1="-155.883" x2="-210" x1="-195" style="fill:none;" /><ns0:line y2="181.866" y1="181.866" x2="-60" x1="-30" style="fill:none;" /><ns0:line y2="-181.866" y1="-155.886" x2="210" x1="195" style="fill:none;" /><ns0:line y2="-181.866" y1="-181.866" x2="-240" x1="-210" style="fill:none;" /><ns0:line y2="207.846" y1="181.866" x2="-75" x1="-60" style="fill:none;" /><ns0:line y2="207.8461" y1="185.366" x2="-70.9585" x1="-57.9793" style="fill:none;" /></ns0:g><ns0:g transform="translate(349,315)" style="stroke-linecap:butt; font-size:8.4px; fill:gray; text-rendering:geometricPrecision; image-rendering:optimizeQuality; color-rendering:optimizeQuality; font-family:'Open Sans'; font-style:italic; stroke:gray; color-interpolation:linearRGB;"><ns0:path style="stroke:none;" d="M-80.3893 191.0199 Q-80.3893 189.6918 -79.9206 188.5668 Q-79.4518 187.4418 -78.4206 186.3637 L-77.8112 186.3637 Q-78.78 187.4262 -79.2643 188.5981 Q-79.7487 189.7699 -79.7487 191.0043 Q-79.7487 192.3324 -79.3112 193.3481 L-79.8268 193.3481 Q-80.3893 192.3168 -80.3893 191.0199 ZM-74.8762 192.0824 L-78.3918 192.0824 L-78.2824 191.5512 L-74.673 186.9731 L-77.2355 186.9731 L-77.1105 186.3637 L-73.7512 186.3637 L-73.8605 186.9106 L-77.4699 191.4731 L-74.7355 191.4731 L-74.8762 192.0824 ZM-71.931 188.7074 Q-71.931 190.0356 -72.4076 191.1684 Q-72.8842 192.3012 -73.8998 193.3481 L-74.5092 193.3481 Q-72.5717 191.1918 -72.5717 188.7074 Q-72.5717 187.3793 -73.0092 186.3637 L-72.4935 186.3637 Q-71.931 187.4262 -71.931 188.7074 Z" /><ns0:line y2="-207.846" y1="-181.866" x2="195" x1="210" style="fill:none; stroke:black;" /><ns0:line y2="-155.886" y1="-181.866" x2="-255" x1="-240" style="fill:none; stroke:black;" /><ns0:line y2="233.826" y1="207.846" x2="-60" x1="-75" style="fill:none; stroke:black;" /><ns0:line y2="-233.826" y1="-207.846" x2="210" x1="195" style="fill:none; stroke:black;" /><ns0:line y2="-230.326" y1="-207.8459" x2="212.0207" x1="199.0415" style="fill:none; stroke:black;" /><ns0:path style="stroke:none;" d="M206.931 -214.6718 Q206.931 -216 207.3998 -217.125 Q207.8685 -218.25 208.8998 -219.3281 L209.5092 -219.3281 Q208.5404 -218.2656 208.056 -217.0937 Q207.5717 -215.9218 207.5717 -214.6875 Q207.5717 -213.3593 208.0092 -212.3437 L207.4935 -212.3437 Q206.931 -213.375 206.931 -214.6718 ZM212.4442 -213.6093 L208.9286 -213.6093 L209.038 -214.1406 L212.6473 -218.7187 L210.0848 -218.7187 L210.2098 -219.3281 L213.5692 -219.3281 L213.4598 -218.7812 L209.8505 -214.2187 L212.5848 -214.2187 L212.4442 -213.6093 ZM215.3893 -216.9843 Q215.3893 -215.6562 214.9128 -214.5234 Q214.4362 -213.3906 213.4206 -212.3437 L212.8112 -212.3437 Q214.7487 -214.5 214.7487 -216.9843 Q214.7487 -218.3125 214.3112 -219.3281 L214.8268 -219.3281 Q215.3893 -218.2656 215.3893 -216.9843 Z" /><ns0:line y2="-155.886" y1="-155.886" x2="-285" x1="-255" style="fill:none; stroke:black;" /><ns0:line y2="-159.386" y1="-159.386" x2="-282.9793" x1="-257.0207" style="fill:none; stroke:black;" /><ns0:path style="stroke:none;" d="M-274.2292 -164.7219 Q-274.2292 -166.0501 -273.7604 -167.1751 Q-273.2917 -168.3001 -272.2604 -169.3782 L-271.651 -169.3782 Q-272.6198 -168.3157 -273.1042 -167.1438 Q-273.5885 -165.9719 -273.5885 -164.7376 Q-273.5885 -163.4094 -273.151 -162.3938 L-273.6667 -162.3938 Q-274.2292 -163.4251 -274.2292 -164.7219 ZM-268.716 -163.6594 L-272.2316 -163.6594 L-272.1222 -164.1907 L-268.5128 -168.7688 L-271.0753 -168.7688 L-270.9503 -169.3782 L-267.591 -169.3782 L-267.7003 -168.8313 L-271.3097 -164.2688 L-268.5753 -164.2688 L-268.716 -163.6594 ZM-265.7708 -167.0344 Q-265.7708 -165.7063 -266.2474 -164.5735 Q-266.724 -163.4407 -267.7396 -162.3938 L-268.349 -162.3938 Q-266.4115 -164.5501 -266.4115 -167.0344 Q-266.4115 -168.3626 -266.849 -169.3782 L-266.3333 -169.3782 Q-265.7708 -168.3157 -265.7708 -167.0344 Z" /><ns0:line y2="259.809" y1="233.826" x2="-75" x1="-60" style="fill:none; stroke:black;" /><ns0:line y2="-233.826" y1="-233.826" x2="240" x1="210" style="fill:none; stroke:black;" /><ns0:line y2="-181.866" y1="-155.886" x2="-300" x1="-285" style="fill:none; stroke:black;" /><ns0:line y2="285.789" y1="259.809" x2="-60" x1="-75" style="fill:none; stroke:black;" /><ns0:line y2="282.289" y1="259.809" x2="-57.9793" x1="-70.9585" style="fill:none; stroke:black;" /><ns0:path style="stroke:none;" d="M-80.3893 278.9632 Q-80.3893 277.6351 -79.9206 276.5101 Q-79.4518 275.3851 -78.4206 274.3069 L-77.8112 274.3069 Q-78.78 275.3694 -79.2643 276.5413 Q-79.7487 277.7132 -79.7487 278.9476 Q-79.7487 280.2757 -79.3112 281.2913 L-79.8268 281.2913 Q-80.3893 280.2601 -80.3893 278.9632 ZM-74.8762 280.0257 L-78.3918 280.0257 L-78.2824 279.4944 L-74.673 274.9163 L-77.2355 274.9163 L-77.1105 274.3069 L-73.7512 274.3069 L-73.8605 274.8538 L-77.4699 279.4163 L-74.7355 279.4163 L-74.8762 280.0257 ZM-71.931 276.6507 Q-71.931 277.9788 -72.4076 279.1116 Q-72.8842 280.2444 -73.8998 281.2913 L-74.5092 281.2913 Q-72.5717 279.1351 -72.5717 276.6507 Q-72.5717 275.3226 -73.0092 274.3069 L-72.4935 274.3069 Q-71.931 275.3694 -71.931 276.6507 Z" /><ns0:line y2="-259.809" y1="-233.826" x2="255" x1="240" style="fill:none; stroke:black;" /><ns0:line y2="-181.866" y1="-181.866" x2="-330" x1="-300" style="fill:none; stroke:black;" /><ns0:line y2="285.789" y1="285.789" x2="-30" x1="-60" style="fill:none; stroke:black;" /><ns0:line y2="-259.809" y1="-259.809" x2="285" x1="255" style="fill:none; stroke:black;" /><ns0:line y2="-256.309" y1="-256.309" x2="282.9793" x1="257.0207" style="fill:none; stroke:black;" /><ns0:path style="stroke:none;" d="M265.7708 -248.645 Q265.7708 -249.9731 266.2396 -251.0981 Q266.7083 -252.2231 267.7396 -253.3012 L268.349 -253.3012 Q267.3802 -252.2387 266.8958 -251.0668 Q266.4115 -249.895 266.4115 -248.6606 Q266.4115 -247.3325 266.849 -246.3168 L266.3333 -246.3168 Q265.7708 -247.3481 265.7708 -248.645 ZM271.284 -247.5825 L267.7684 -247.5825 L267.8778 -248.1137 L271.4872 -252.6918 L268.9247 -252.6918 L269.0497 -253.3012 L272.409 -253.3012 L272.2997 -252.7543 L268.6903 -248.1918 L271.4247 -248.1918 L271.284 -247.5825 ZM274.2292 -250.9575 Q274.2292 -249.6293 273.7526 -248.4965 Q273.276 -247.3637 272.2604 -246.3168 L271.651 -246.3168 Q273.5885 -248.4731 273.5885 -250.9575 Q273.5885 -252.2856 273.151 -253.3012 L273.6667 -253.3012 Q274.2292 -252.2387 274.2292 -250.9575 Z" /><ns0:line y2="-207.846" y1="-181.866" x2="-345" x1="-330" style="fill:none; stroke:black;" /><ns0:line y2="-207.8461" y1="-185.366" x2="-340.9586" x1="-327.9793" style="fill:none; stroke:black;" /><ns0:path style="stroke:none;" d="M-333.069 -198.692 Q-333.069 -200.0202 -332.6002 -201.1452 Q-332.1315 -202.2702 -331.1002 -203.3483 L-330.4908 -203.3483 Q-331.4596 -202.2858 -331.944 -201.1139 Q-332.4283 -199.942 -332.4283 -198.7077 Q-332.4283 -197.3795 -331.9908 -196.3639 L-332.5065 -196.3639 Q-333.069 -197.3952 -333.069 -198.692 ZM-327.5558 -197.6295 L-331.0714 -197.6295 L-330.962 -198.1608 L-327.3527 -202.7389 L-329.9152 -202.7389 L-329.7902 -203.3483 L-326.4308 -203.3483 L-326.5402 -202.8014 L-330.1495 -198.2389 L-327.4152 -198.2389 L-327.5558 -197.6295 ZM-324.6107 -201.0045 Q-324.6107 -199.6764 -325.0872 -198.5436 Q-325.5638 -197.4108 -326.5794 -196.3639 L-327.1888 -196.3639 Q-325.2513 -198.5202 -325.2513 -201.0045 Q-325.2513 -202.3327 -325.6888 -203.3483 L-325.1732 -203.3483 Q-324.6107 -202.2858 -324.6107 -201.0045 Z" /><ns0:line y2="311.769" y1="285.789" x2="-15" x1="-30" style="fill:none; stroke:black;" /><ns0:line y2="-233.826" y1="-259.809" x2="300" x1="285" style="fill:none; stroke:black;" /><ns0:line y2="-233.826" y1="-207.846" x2="-330" x1="-345" style="fill:none; stroke:black;" /><ns0:line y2="311.769" y1="311.769" x2="15" x1="-15" style="fill:none; stroke:black;" /><ns0:line y2="308.269" y1="308.269" x2="12.9793" x1="-12.9793" style="fill:none; stroke:black;" /><ns0:path style="stroke:none;" d="M-4.2292 322.933 Q-4.2292 321.6049 -3.7604 320.4799 Q-3.2917 319.3549 -2.2604 318.2768 L-1.651 318.2768 Q-2.6198 319.3393 -3.1042 320.5112 Q-3.5885 321.683 -3.5885 322.9174 Q-3.5885 324.2455 -3.151 325.2612 L-3.6667 325.2612 Q-4.2292 324.2299 -4.2292 322.933 ZM1.284 323.9955 L-2.2316 323.9955 L-2.1222 323.4643 L1.4872 318.8862 L-1.0753 318.8862 L-0.9503 318.2768 L2.409 318.2768 L2.2997 318.8237 L-1.3097 323.3862 L1.4247 323.3862 L1.284 323.9955 ZM4.2292 320.6205 Q4.2292 321.9487 3.7526 323.0815 Q3.276 324.2143 2.2604 325.2612 L1.651 325.2612 Q3.5885 323.1049 3.5885 320.6205 Q3.5885 319.2924 3.151 318.2768 L3.6667 318.2768 Q4.2292 319.3393 4.2292 320.6205 Z" /><ns0:line y2="-233.826" y1="-233.826" x2="330" x1="300" style="fill:none; stroke:black;" /><ns0:line y2="-259.809" y1="-233.826" x2="-345" x1="-330" style="fill:none; stroke:black;" /><ns0:line y2="285.789" y1="311.769" x2="30" x1="15" style="fill:none; stroke:black;" /><ns0:line y2="-207.846" y1="-233.826" x2="345" x1="330" style="fill:none; stroke:black;" /><ns0:line y2="-207.8459" y1="-230.326" x2="340.9586" x1="327.9793" style="fill:none; stroke:black;" /><ns0:path style="stroke:none;" d="M324.6107 -214.6718 Q324.6107 -216 325.0794 -217.125 Q325.5482 -218.25 326.5794 -219.3281 L327.1888 -219.3281 Q326.22 -218.2656 325.7357 -217.0937 Q325.2513 -215.9218 325.2513 -214.6875 Q325.2513 -213.3593 325.6888 -212.3437 L325.1732 -212.3437 Q324.6107 -213.375 324.6107 -214.6718 ZM330.1238 -213.6093 L326.6082 -213.6093 L326.7176 -214.1406 L330.327 -218.7187 L327.7645 -218.7187 L327.8895 -219.3281 L331.2488 -219.3281 L331.1395 -218.7812 L327.5301 -214.2187 L330.2645 -214.2187 L330.1238 -213.6093 ZM333.069 -216.9843 Q333.069 -215.6562 332.5924 -214.5234 Q332.1158 -213.3906 331.1002 -212.3437 L330.4908 -212.3437 Q332.4283 -214.5 332.4283 -216.9843 Q332.4283 -218.3125 331.9908 -219.3281 L332.5065 -219.3281 Q333.069 -218.2656 333.069 -216.9843 Z" /><ns0:line y2="-285.789" y1="-259.809" x2="-330" x1="-345" style="fill:none; stroke:black;" /><ns0:line y2="-282.289" y1="-259.809" x2="-327.9793" x1="-340.9586" style="fill:none; stroke:black;" /><ns0:path style="stroke:none;" d="M-333.069 -266.6348 Q-333.069 -267.963 -332.6002 -269.088 Q-332.1315 -270.213 -331.1002 -271.2911 L-330.4908 -271.2911 Q-331.4596 -270.2286 -331.944 -269.0567 Q-332.4283 -267.8848 -332.4283 -266.6505 Q-332.4283 -265.3223 -331.9908 -264.3067 L-332.5065 -264.3067 Q-333.069 -265.338 -333.069 -266.6348 ZM-327.5558 -265.5723 L-331.0714 -265.5723 L-330.962 -266.1036 L-327.3527 -270.6817 L-329.9152 -270.6817 L-329.7902 -271.2911 L-326.4308 -271.2911 L-326.5402 -270.7442 L-330.1495 -266.1817 L-327.4152 -266.1817 L-327.5558 -265.5723 ZM-324.6107 -268.9473 Q-324.6107 -267.6192 -325.0872 -266.4864 Q-325.5638 -265.3536 -326.5794 -264.3067 L-327.1888 -264.3067 Q-325.2513 -266.463 -325.2513 -268.9473 Q-325.2513 -270.2755 -325.6888 -271.2911 L-325.1732 -271.2911 Q-324.6107 -270.2286 -324.6107 -268.9473 Z" /><ns0:line y2="285.789" y1="285.789" x2="60" x1="30" style="fill:none; stroke:black;" /><ns0:line y2="-181.866" y1="-207.846" x2="330" x1="345" style="fill:none; stroke:black;" /><ns0:line y2="-285.789" y1="-285.789" x2="-300" x1="-330" style="fill:none; stroke:black;" /><ns0:line y2="-155.883" y1="-181.866" x2="345" x1="330" style="fill:none; stroke:black;" /><ns0:line y2="-311.769" y1="-285.789" x2="-285" x1="-300" style="fill:none; stroke:black;" /></ns0:g><ns0:g transform="translate(349,315)" style="fill:rgb(230,0,0); text-rendering:geometricPrecision; color-rendering:optimizeQuality; image-rendering:optimizeQuality; font-family:'Open Sans'; stroke:rgb(230,0,0); color-interpolation:linearRGB;"><ns0:path style="stroke:none;" d="M-26.0625 -26.0503 Q-26.0625 -23.9878 -27.1016 -22.8081 Q-28.1406 -21.6284 -29.9844 -21.6284 Q-31.875 -21.6284 -32.9062 -22.7925 Q-33.9375 -23.9566 -33.9375 -26.0659 Q-33.9375 -28.1597 -32.9062 -29.3081 Q-31.875 -30.4566 -29.9844 -30.4566 Q-28.125 -30.4566 -27.0938 -29.2847 Q-26.0625 -28.1128 -26.0625 -26.0503 ZM-32.8906 -26.0503 Q-32.8906 -24.3159 -32.1484 -23.4097 Q-31.4062 -22.5034 -29.9844 -22.5034 Q-28.5625 -22.5034 -27.8359 -23.4019 Q-27.1094 -24.3003 -27.1094 -26.0503 Q-27.1094 -27.7847 -27.8359 -28.6753 Q-28.5625 -29.5659 -29.9844 -29.5659 Q-31.4062 -29.5659 -32.1484 -28.6675 Q-32.8906 -27.7691 -32.8906 -26.0503 Z" /></ns0:g><ns0:g transform="translate(349,315)" style="stroke-linecap:butt; text-rendering:geometricPrecision; color-rendering:optimizeQuality; image-rendering:optimizeQuality; font-family:'Open Sans'; color-interpolation:linearRGB; stroke-miterlimit:5;"><ns0:path style="fill:none;" d="M14.5 -51.963 L15 -51.963 L15.25 -52.396" /><ns0:path style="fill:none;" d="M-29.75 -77.51 L-30 -77.943 L-30.5 -77.943" /><ns0:path style="fill:none;" d="M-15.25 -0.433 L-15 0 L-15.25 0.433" /><ns0:path style="fill:rgb(230,0,0); stroke:none;" d="M33.9375 -78.0133 Q33.9375 -75.9508 32.8984 -74.7711 Q31.8594 -73.5914 30.0156 -73.5914 Q28.125 -73.5914 27.0938 -74.7555 Q26.0625 -75.9196 26.0625 -78.0289 Q26.0625 -80.1227 27.0938 -81.2711 Q28.125 -82.4196 30.0156 -82.4196 Q31.875 -82.4196 32.9062 -81.2477 Q33.9375 -80.0758 33.9375 -78.0133 ZM27.1094 -78.0133 Q27.1094 -76.2789 27.8516 -75.3727 Q28.5938 -74.4664 30.0156 -74.4664 Q31.4375 -74.4664 32.1641 -75.3649 Q32.8906 -76.2633 32.8906 -78.0133 Q32.8906 -79.7477 32.1641 -80.6383 Q31.4375 -81.5289 30.0156 -81.5289 Q28.5938 -81.5289 27.8516 -80.6305 Q27.1094 -79.7321 27.1094 -78.0133 Z" /><ns0:path style="fill:rgb(230,0,0); stroke:none;" d="M-56.0625 -78.0133 Q-56.0625 -75.9508 -57.1016 -74.7711 Q-58.1406 -73.5914 -59.9844 -73.5914 Q-61.875 -73.5914 -62.9062 -74.7555 Q-63.9375 -75.9196 -63.9375 -78.0289 Q-63.9375 -80.1227 -62.9062 -81.2711 Q-61.875 -82.4196 -59.9844 -82.4196 Q-58.125 -82.4196 -57.0938 -81.2477 Q-56.0625 -80.0758 -56.0625 -78.0133 ZM-62.8906 -78.0133 Q-62.8906 -76.2789 -62.1484 -75.3727 Q-61.4062 -74.4664 -59.9844 -74.4664 Q-58.5625 -74.4664 -57.8359 -75.3649 Q-57.1094 -76.2633 -57.1094 -78.0133 Q-57.1094 -79.7477 -57.8359 -80.6383 Q-58.5625 -81.5289 -59.9844 -81.5289 Q-61.4062 -81.5289 -62.1484 -80.6305 Q-62.8906 -79.7321 -62.8906 -78.0133 Z" /><ns0:path style="fill:none;" d="M-29.75 25.547 L-30 25.98 L-29.75 26.413" /><ns0:path style="fill:rgb(230,0,0); stroke:none;" d="M18.9375 -0.0703 Q18.9375 1.9922 17.8984 3.1719 Q16.8594 4.3516 15.0156 4.3516 Q13.125 4.3516 12.0938 3.1875 Q11.0625 2.0234 11.0625 -0.0859 Q11.0625 -2.1797 12.0938 -3.3281 Q13.125 -4.4766 15.0156 -4.4766 Q16.875 -4.4766 17.9062 -3.3047 Q18.9375 -2.1328 18.9375 -0.0703 ZM12.1094 -0.0703 Q12.1094 1.6641 12.8516 2.5703 Q13.5938 3.4766 15.0156 3.4766 Q16.4375 3.4766 17.1641 2.5781 Q17.8906 1.6797 17.8906 -0.0703 Q17.8906 -1.8047 17.1641 -2.6953 Q16.4375 -3.5859 15.0156 -3.5859 Q13.5938 -3.5859 12.8516 -2.6875 Q12.1094 -1.7891 12.1094 -0.0703 Z" /><ns0:path style="fill:none;" d="M59.5 -77.943 L60 -77.943 L60.25 -78.376" /><ns0:path style="fill:none;" d="M-74.75 -103.49 L-75 -103.923 L-75.5 -103.923" /><ns0:path style="fill:none;" d="M-15.25 51.53 L-15 51.963 L-15.25 52.396" /><ns0:path style="fill:none;" d="M74.75 -103.49 L75 -103.923 L75.5 -103.923" /><ns0:path style="fill:rgb(230,0,0); stroke:none;" d="M78.9375 -52.0333 Q78.9375 -49.9708 77.8984 -48.7911 Q76.8594 -47.6114 75.0156 -47.6114 Q73.125 -47.6114 72.0938 -48.7755 Q71.0625 -49.9396 71.0625 -52.0489 Q71.0625 -54.1427 72.0938 -55.2911 Q73.125 -56.4396 75.0156 -56.4396 Q76.875 -56.4396 77.9062 -55.2677 Q78.9375 -54.0958 78.9375 -52.0333 ZM72.1094 -52.0333 Q72.1094 -50.2989 72.8516 -49.3927 Q73.5938 -48.4864 75.0156 -48.4864 Q76.4375 -48.4864 77.1641 -49.3849 Q77.8906 -50.2833 77.8906 -52.0333 Q77.8906 -53.7677 77.1641 -54.6583 Q76.4375 -55.5489 75.0156 -55.5489 Q73.5938 -55.5489 72.8516 -54.6505 Q72.1094 -53.7521 72.1094 -52.0333 Z" /><ns0:path style="fill:none;" d="M-104.5 -103.923 L-105 -103.923 L-105.25 -104.356" /><ns0:path style="fill:rgb(230,0,0); stroke:none;" d="M-56.0625 -129.9733 Q-56.0625 -127.9108 -57.1016 -126.7311 Q-58.1406 -125.5514 -59.9844 -125.5514 Q-61.875 -125.5514 -62.9062 -126.7155 Q-63.9375 -127.8796 -63.9375 -129.9889 Q-63.9375 -132.0827 -62.9062 -133.2311 Q-61.875 -134.3796 -59.9844 -134.3796 Q-58.125 -134.3796 -57.0938 -133.2077 Q-56.0625 -132.0358 -56.0625 -129.9733 ZM-62.8906 -129.9733 Q-62.8906 -128.2389 -62.1484 -127.3327 Q-61.4062 -126.4264 -59.9844 -126.4264 Q-58.5625 -126.4264 -57.8359 -127.3249 Q-57.1094 -128.2233 -57.1094 -129.9733 Q-57.1094 -131.7077 -57.8359 -132.5983 Q-58.5625 -133.4889 -59.9844 -133.4889 Q-61.4062 -133.4889 -62.1484 -132.5905 Q-62.8906 -131.6921 -62.8906 -129.9733 Z" /><ns0:path style="fill:none;" d="M-29.75 77.51 L-30 77.943 L-29.75 78.376" /><ns0:path style="fill:none;" d="M104.5 -103.923 L105 -103.923 L105.25 -104.356" /><ns0:path style="fill:none;" d="M-119.75 -129.47 L-120 -129.903 L-120.5 -129.903" /><ns0:path style="fill:none;" d="M-15.25 103.49 L-15 103.923 L-15.25 104.356" /><ns0:path style="fill:none;" d="M119.75 -129.47 L120 -129.903 L120.5 -129.903" /><ns0:path style="fill:none;" d="M-149.5 -129.903 L-150 -129.903 L-150.25 -130.336" /><ns0:path style="fill:none;" d="M-29.75 129.47 L-30 129.903 L-29.75 130.336" /><ns0:path style="fill:none;" d="M149.5 -129.903 L150 -129.903 L150.25 -130.336" /><ns0:path style="fill:none;" d="M-164.75 -155.453 L-165 -155.886 L-165.5 -155.886" /><ns0:path style="fill:none;" d="M-15.25 155.453 L-15 155.886 L-15.25 156.319" /><ns0:path style="fill:none;" d="M164.75 -155.453 L165 -155.886 L165.5 -155.886" /><ns0:path style="fill:none;" d="M-194.5 -155.8831 L-195 -155.883 L-195.25 -156.316" /><ns0:path style="fill:none;" d="M-29.75 181.433 L-30 181.866 L-30.5 181.866" /><ns0:path style="fill:none;" d="M194.5 -155.886 L195 -155.886 L195.25 -156.319" /><ns0:path style="fill:none;" d="M-209.75 -181.433 L-210 -181.866 L-210.5 -181.866" /><ns0:path style="fill:none;" d="M-59.5 181.866 L-60 181.866 L-60.25 182.299" /><ns0:path style="fill:none;" d="M209.75 -181.433 L210 -181.866 L209.75 -182.299" /><ns0:path style="fill:none;" d="M-239.5 -181.866 L-240 -181.866 L-240.25 -181.433" /><ns0:path style="fill:none;" d="M-74.75 207.413 L-75 207.846 L-74.75 208.279" /><ns0:path style="fill:none;" d="M195.25 -207.413 L195 -207.846 L195.25 -208.279" /><ns0:path style="fill:none;" d="M-254.75 -156.319 L-255 -155.886 L-255.5 -155.886" /><ns0:path style="fill:none;" d="M-60.25 233.393 L-60 233.826 L-60.25 234.259" /><ns0:path style="fill:none;" d="M209.75 -233.393 L210 -233.826 L210.5 -233.826" /><ns0:path style="fill:none;" d="M-284.5 -155.886 L-285 -155.886 L-285.25 -156.319" /><ns0:path style="fill:none;" d="M-74.75 259.376 L-75 259.809 L-74.75 260.242" /><ns0:path style="fill:none;" d="M239.5 -233.826 L240 -233.826 L240.25 -234.259" /><ns0:path style="fill:none;" d="M-299.75 -181.433 L-300 -181.866 L-300.5 -181.866" /><ns0:path style="fill:none;" d="M-60.25 285.356 L-60 285.789 L-59.5 285.789" /><ns0:path style="fill:none;" d="M254.75 -259.376 L255 -259.809 L255.5 -259.809" /><ns0:path style="fill:none;" d="M-329.5 -181.866 L-330 -181.866 L-330.25 -182.299" /><ns0:path style="fill:none;" d="M-30.5 285.789 L-30 285.789 L-29.75 286.222" /><ns0:path style="fill:none;" d="M284.5 -259.809 L285 -259.809 L285.25 -259.376" /><ns0:path style="fill:none;" d="M-344.75 -207.413 L-345 -207.846 L-344.75 -208.279" /><ns0:path style="fill:none;" d="M-15.25 311.336 L-15 311.769 L-14.5 311.769" /><ns0:path style="fill:none;" d="M299.75 -234.259 L300 -233.826 L300.5 -233.826" /><ns0:path style="fill:none;" d="M-330.25 -233.393 L-330 -233.826 L-330.25 -234.259" /><ns0:path style="fill:none;" d="M14.5 311.769 L15 311.769 L15.25 311.336" /><ns0:path style="fill:none;" d="M329.5 -233.826 L330 -233.826 L330.25 -233.393" /><ns0:path style="fill:none;" d="M-344.75 -259.376 L-345 -259.809 L-344.75 -260.242" /><ns0:path style="fill:none;" d="M29.75 286.222 L30 285.789 L30.5 285.789" /><ns0:path style="fill:none;" d="M344.75 -208.279 L345 -207.846 L344.75 -207.413" /><ns0:path style="fill:none;" d="M-330.25 -285.356 L-330 -285.789 L-329.5 -285.789" /><ns0:path style="fill:none;" d="M330.25 -182.299 L330 -181.866 L330.25 -181.433" /><ns0:path style="fill:none;" d="M-300.5 -285.789 L-300 -285.789 L-299.75 -286.222" /></ns0:g></ns0:g></ns0:svg></ns0:svg></ns0:svg></ns0:svg></g></svg>