<svg xmlns:ns0="http://www.w3.org/2000/svg" xmlns="http://www.w3.org/2000/svg"><g transform="translate(0, 0)"><ns0:svg width="292" viewBox="0 0 292 85" style="fill-opacity:1; color-rendering:auto; color-interpolation:auto; text-rendering:auto; stroke:black; stroke-linecap:square; stroke-miterlimit:10; shape-rendering:auto; stroke-opacity:1; fill:black; stroke-dasharray:none; font-weight:normal; stroke-width:1; font-family:'Open Sans'; font-style:normal; stroke-linejoin:miter; font-size:12; stroke-dashoffset:0; image-rendering:auto;" height="85" class="cas-substance-image"><ns0:svg class="cas-substance-single-component"><ns0:rect y="0" x="0" width="292" stroke="none" ry="7" rx="7" height="85" fill="white" class="cas-substance-group" /><ns0:svg y="0" x="0" width="292" viewBox="0 0 292 85" style="fill:black;" height="85" class="cas-substance-single-component-image"><ns0:svg><ns0:g><ns0:g transform="translate(146,45)" style="text-rendering:geometricPrecision; color-rendering:optimizeQuality; color-interpolation:linearRGB; stroke-linecap:butt; image-rendering:optimizeQuality;"><ns0:line y2="4.2586" y1="-7.5" x2="-70.5671" x1="-90.933" style="fill:none;" /><ns0:line y2="7.5" y1="-7.5" x2="-116.913" x1="-90.933" style="fill:none;" /><ns0:line y2="-31.1484" y1="-6.4896" x2="-89.183" x1="-89.183" style="fill:none;" /><ns0:line y2="-31.1484" y1="-6.4896" x2="-92.683" x1="-92.683" style="fill:none;" /><ns0:line y2="-7.5" y1="4.2742" x2="-38.97" x1="-59.3653" style="fill:none;" /><ns0:line y2="-7.5" y1="7.5" x2="-142.893" x1="-116.913" style="fill:none;" /><ns0:line y2="37.5" y1="7.5" x2="-116.913" x1="-116.913" style="fill:none;" /><ns0:line y2="7.5" y1="-7.5" x2="-12.99" x1="-38.97" style="fill:none;" /><ns0:line y2="-7.5" y1="7.5" x2="12.99" x1="-12.99" style="fill:none;" /><ns0:line y2="-9.5207" y1="3.4585" x2="9.49" x1="-12.9901" style="fill:none;" /></ns0:g><ns0:g transform="translate(146,45)" style="stroke-linecap:butt; font-size:8.4px; fill:gray; text-rendering:geometricPrecision; image-rendering:optimizeQuality; color-rendering:optimizeQuality; font-family:'Open Sans'; font-style:italic; stroke:gray; color-interpolation:linearRGB;"><ns0:path style="stroke:none;" d="M0.8527 9.8243 Q0.8527 8.4961 1.3215 7.3711 Q1.7902 6.2461 2.8215 5.168 L3.4309 5.168 Q2.4621 6.2305 1.9777 7.4024 Q1.4934 8.5743 1.4934 9.8086 Q1.4934 11.1368 1.9309 12.1524 L1.4152 12.1524 Q0.8527 11.1211 0.8527 9.8243 ZM6.1159 10.8868 L3.2565 10.8868 L4.4597 5.168 L7.3347 5.168 L7.2097 5.7774 L4.9909 5.7774 L4.6159 7.6055 L6.6628 7.6055 L6.5534 8.1993 L4.4909 8.1993 L4.0378 10.293 L6.2565 10.293 L6.1159 10.8868 ZM9.1475 7.5118 Q9.1475 8.8399 8.6709 9.9727 Q8.1944 11.1055 7.1787 12.1524 L6.5694 12.1524 Q8.5069 9.9961 8.5069 7.5118 Q8.5069 6.1836 8.0694 5.168 L8.585 5.168 Q9.1475 6.2305 9.1475 7.5118 Z" /><ns0:line y2="7.5" y1="-7.5" x2="38.97" x1="12.99" style="fill:none; stroke:black;" /><ns0:line y2="-37.5" y1="-7.5" x2="12.99" x1="12.99" style="fill:none; stroke:black;" /><ns0:line y2="-7.5" y1="7.5" x2="64.953" x1="38.97" style="fill:none; stroke:black;" /><ns0:line y2="7.5" y1="-7.5" x2="90.933" x1="64.953" style="fill:none; stroke:black;" /><ns0:line y2="-7.5" y1="7.5" x2="116.913" x1="90.933" style="fill:none; stroke:black;" /><ns0:line y2="-9.5207" y1="3.4585" x2="113.413" x1="90.9329" style="fill:none; stroke:black;" /><ns0:line y2="7.5" y1="-7.5" x2="142.893" x1="116.913" style="fill:none; stroke:black;" /><ns0:line y2="-37.5" y1="-7.5" x2="116.913" x1="116.913" style="fill:none; stroke:black;" /><ns0:path style="fill:none; stroke-miterlimit:5; stroke:black;" d="M-90.5 -7.25 L-90.933 -7.5 L-91.366 -7.25" /></ns0:g><ns0:g transform="translate(146,45)" style="stroke-linecap:butt; fill:rgb(230,0,0); text-rendering:geometricPrecision; color-rendering:optimizeQuality; image-rendering:optimizeQuality; font-family:'Open Sans'; stroke:rgb(230,0,0); color-interpolation:linearRGB; stroke-miterlimit:5;"><ns0:path style="stroke:none;" d="M-61.0155 7.4297 Q-61.0155 9.4922 -62.0546 10.6719 Q-63.0936 11.8516 -64.9374 11.8516 Q-66.828 11.8516 -67.8593 10.6875 Q-68.8905 9.5234 -68.8905 7.4141 Q-68.8905 5.3203 -67.8593 4.1719 Q-66.828 3.0234 -64.9374 3.0234 Q-63.078 3.0234 -62.0468 4.1953 Q-61.0155 5.3672 -61.0155 7.4297 ZM-67.8436 7.4297 Q-67.8436 9.1641 -67.1014 10.0703 Q-66.3593 10.9766 -64.9374 10.9766 Q-63.5155 10.9766 -62.7889 10.0781 Q-62.0624 9.1797 -62.0624 7.4297 Q-62.0624 5.6953 -62.7889 4.8047 Q-63.5155 3.9141 -64.9374 3.9141 Q-66.3593 3.9141 -67.1014 4.8125 Q-67.8436 5.7109 -67.8436 7.4297 Z" /><ns0:path style="stroke:none;" d="M-86.9955 -37.5703 Q-86.9955 -35.5078 -88.0346 -34.3281 Q-89.0736 -33.1484 -90.9174 -33.1484 Q-92.808 -33.1484 -93.8392 -34.3125 Q-94.8705 -35.4766 -94.8705 -37.5859 Q-94.8705 -39.6797 -93.8392 -40.8281 Q-92.808 -41.9766 -90.9174 -41.9766 Q-89.058 -41.9766 -88.0267 -40.8047 Q-86.9955 -39.6328 -86.9955 -37.5703 ZM-93.8236 -37.5703 Q-93.8236 -35.8359 -93.0814 -34.9297 Q-92.3392 -34.0234 -90.9174 -34.0234 Q-89.4955 -34.0234 -88.7689 -34.9219 Q-88.0424 -35.8203 -88.0424 -37.5703 Q-88.0424 -39.3047 -88.7689 -40.1953 Q-89.4955 -41.0859 -90.9174 -41.0859 Q-92.3392 -41.0859 -93.0814 -40.1875 Q-93.8236 -39.2891 -93.8236 -37.5703 Z" /><ns0:path style="fill:none; stroke:black;" d="M-39.403 -7.25 L-38.97 -7.5 L-38.537 -7.25" /><ns0:path style="fill:none; stroke:black;" d="M-13.423 7.25 L-12.99 7.5 L-12.557 7.25" /><ns0:path style="fill:none; stroke:black;" d="M12.557 -7.25 L12.99 -7.5 L12.99 -8" /><ns0:path style="fill:none; stroke:black;" d="M38.537 7.25 L38.97 7.5 L39.403 7.25" /><ns0:path style="fill:none; stroke:black;" d="M64.52 -7.25 L64.953 -7.5 L65.386 -7.25" /><ns0:path style="fill:none; stroke:black;" d="M90.5 7.25 L90.933 7.5 L91.366 7.25" /><ns0:path style="fill:none; stroke:black;" d="M116.48 -7.25 L116.913 -7.5 L116.913 -8" /></ns0:g></ns0:g></ns0:svg></ns0:svg></ns0:svg></ns0:svg></g></svg>