<svg xmlns:ns0="http://www.w3.org/2000/svg" xmlns="http://www.w3.org/2000/svg"><g transform="translate(0, 0)"><ns0:svg width="189" viewBox="0 0 189 69" style="fill-opacity:1; color-rendering:auto; color-interpolation:auto; text-rendering:auto; stroke:black; stroke-linecap:square; stroke-miterlimit:10; shape-rendering:auto; stroke-opacity:1; fill:black; stroke-dasharray:none; font-weight:normal; stroke-width:1; font-family:'Open Sans'; font-style:normal; stroke-linejoin:miter; font-size:12; stroke-dashoffset:0; image-rendering:auto;" height="69" class="cas-substance-image"><ns0:svg class="cas-substance-single-component"><ns0:rect y="0" x="0" width="189" stroke="none" ry="7" rx="7" height="69" fill="white" class="cas-substance-group" /><ns0:svg y="0" x="0" width="189" viewBox="0 0 189 69" style="fill:black;" height="69" class="cas-substance-single-component-image"><ns0:svg><ns0:g><ns0:g transform="translate(92,39)" style="text-rendering:geometricPrecision; color-rendering:optimizeQuality; color-interpolation:linearRGB; stroke-linecap:butt; image-rendering:optimizeQuality;"><ns0:line y2="-22.5" y1="-7.5" x2="-25.98" x1="0" style="fill:none;" /><ns0:line y2="-19.5649" y1="-7.5" x2="20.8964" x1="0" style="fill:none;" /><ns0:line y2="-7.5" y1="-22.5" x2="-51.963" x1="-25.98" style="fill:none;" /><ns0:line y2="-7.5" y1="-19.5652" x2="51.963" x1="31.0637" style="fill:none;" /><ns0:line y2="-19.3214" y1="-7.5" x2="-72.4376" x1="-51.963" style="fill:none;" /><ns0:line y2="16.0234" y1="-8.5104" x2="-53.713" x1="-53.713" style="fill:none;" /><ns0:line y2="16.0234" y1="-8.5103" x2="-50.213" x1="-50.213" style="fill:none;" /><ns0:line y2="16.0938" y1="-8.5103" x2="50.213" x1="50.213" style="fill:none;" /><ns0:line y2="16.0938" y1="-8.5104" x2="53.713" x1="53.713" style="fill:none;" /><ns0:line y2="-19.5649" y1="-7.5" x2="72.8594" x1="51.963" style="fill:none;" /><ns0:path style="fill:none; stroke-miterlimit:5;" d="M-0.433 -7.75 L0 -7.5 L0.433 -7.75" /><ns0:path style="fill:none; stroke-miterlimit:5;" d="M-25.547 -22.25 L-25.98 -22.5 L-26.413 -22.25" /></ns0:g><ns0:g transform="translate(92,39)" style="stroke-linecap:butt; fill:rgb(0,5,255); text-rendering:geometricPrecision; color-rendering:optimizeQuality; image-rendering:optimizeQuality; font-family:'Open Sans'; stroke:rgb(0,5,255); color-interpolation:linearRGB; stroke-miterlimit:5;"><ns0:path style="stroke:none;" d="M29.3316 -18.3438 L28.1909 -18.3438 L23.5034 -25.5312 L23.4566 -25.5312 Q23.5503 -24.2656 23.5503 -23.2188 L23.5503 -18.3438 L22.6284 -18.3438 L22.6284 -26.9062 L23.7534 -26.9062 L28.4253 -19.75 L28.4722 -19.75 Q28.4722 -19.9062 28.4253 -20.7656 Q28.3784 -21.625 28.3941 -22 L28.3941 -26.9062 L29.3316 -26.9062 L29.3316 -18.3438 Z" /><ns0:path style="stroke:none;" d="M29.2378 -27.9062 L28.2378 -27.9062 L28.2378 -31.9375 L23.7222 -31.9375 L23.7222 -27.9062 L22.7222 -27.9062 L22.7222 -36.4688 L23.7222 -36.4688 L23.7222 -32.8281 L28.2378 -32.8281 L28.2378 -36.4688 L29.2378 -36.4688 L29.2378 -27.9062 Z" /><ns0:path style="fill:none; stroke:black;" d="M-51.53 -7.75 L-51.963 -7.5 L-52.396 -7.75" /><ns0:path style="fill:none; stroke:black;" d="M51.53 -7.75 L51.963 -7.5 L52.396 -7.75" /><ns0:path style="fill:rgb(230,0,0); stroke:none;" d="M-74.0055 -22.5703 Q-74.0055 -20.5078 -75.0446 -19.3281 Q-76.0836 -18.1484 -77.9274 -18.1484 Q-79.818 -18.1484 -80.8493 -19.3125 Q-81.8805 -20.4766 -81.8805 -22.5859 Q-81.8805 -24.6797 -80.8493 -25.8281 Q-79.818 -26.9766 -77.9274 -26.9766 Q-76.068 -26.9766 -75.0368 -25.8047 Q-74.0055 -24.6328 -74.0055 -22.5703 ZM-80.8336 -22.5703 Q-80.8336 -20.8359 -80.0914 -19.9297 Q-79.3493 -19.0234 -77.9274 -19.0234 Q-76.5055 -19.0234 -75.7789 -19.9219 Q-75.0524 -20.8203 -75.0524 -22.5703 Q-75.0524 -24.3047 -75.7789 -25.1953 Q-76.5055 -26.0859 -77.9274 -26.0859 Q-79.3493 -26.0859 -80.0914 -25.1875 Q-80.8336 -24.2891 -80.8336 -22.5703 Z" /><ns0:path style="fill:rgb(230,0,0); stroke:none;" d="M-82.8805 -18.2734 L-83.8805 -18.2734 L-83.8805 -22.3047 L-88.3961 -22.3047 L-88.3961 -18.2734 L-89.3961 -18.2734 L-89.3961 -26.8359 L-88.3961 -26.8359 L-88.3961 -23.1953 L-83.8805 -23.1953 L-83.8805 -26.8359 L-82.8805 -26.8359 L-82.8805 -18.2734 Z" /><ns0:path style="fill:rgb(230,0,0); stroke:none;" d="M-48.0255 22.4297 Q-48.0255 24.4922 -49.0646 25.6719 Q-50.1036 26.8516 -51.9474 26.8516 Q-53.838 26.8516 -54.8693 25.6875 Q-55.9005 24.5234 -55.9005 22.4141 Q-55.9005 20.3203 -54.8693 19.1719 Q-53.838 18.0234 -51.9474 18.0234 Q-50.088 18.0234 -49.0568 19.1953 Q-48.0255 20.3672 -48.0255 22.4297 ZM-54.8536 22.4297 Q-54.8536 24.1641 -54.1114 25.0703 Q-53.3693 25.9766 -51.9474 25.9766 Q-50.5255 25.9766 -49.7989 25.0781 Q-49.0724 24.1797 -49.0724 22.4297 Q-49.0724 20.6953 -49.7989 19.8047 Q-50.5255 18.9141 -51.9474 18.9141 Q-53.3693 18.9141 -54.1114 19.8125 Q-54.8536 20.7109 -54.8536 22.4297 Z" /><ns0:path style="stroke:none;" d="M55.3146 26.6562 L54.1739 26.6562 L49.4864 19.4688 L49.4396 19.4688 Q49.5333 20.7344 49.5333 21.7812 L49.5333 26.6562 L48.6114 26.6562 L48.6114 18.0938 L49.7364 18.0938 L54.4083 25.25 L54.4552 25.25 Q54.4552 25.0938 54.4083 24.2344 Q54.3614 23.375 54.3771 23 L54.3771 18.0938 L55.3146 18.0938 L55.3146 26.6562 Z" /><ns0:path style="stroke:none;" d="M62.8302 26.6562 L61.8302 26.6562 L61.8302 22.625 L57.3146 22.625 L57.3146 26.6562 L56.3146 26.6562 L56.3146 18.0938 L57.3146 18.0938 L57.3146 21.7344 L61.8302 21.7344 L61.8302 18.0938 L62.8302 18.0938 L62.8302 26.6562 Z" /><ns0:path style="stroke:none;" d="M81.2946 -18.3438 L80.1539 -18.3438 L75.4664 -25.5312 L75.4196 -25.5312 Q75.5133 -24.2656 75.5133 -23.2188 L75.5133 -18.3438 L74.5914 -18.3438 L74.5914 -26.9062 L75.7164 -26.9062 L80.3883 -19.75 L80.4352 -19.75 Q80.4352 -19.9062 80.3883 -20.7656 Q80.3414 -21.625 80.3571 -22 L80.3571 -26.9062 L81.2946 -26.9062 L81.2946 -18.3438 Z" /><ns0:path style="stroke:none;" d="M88.8102 -18.3438 L87.8102 -18.3438 L87.8102 -22.375 L83.2946 -22.375 L83.2946 -18.3438 L82.2946 -18.3438 L82.2946 -26.9062 L83.2946 -26.9062 L83.2946 -23.2656 L87.8102 -23.2656 L87.8102 -26.9062 L88.8102 -26.9062 L88.8102 -18.3438 Z" /><ns0:path style="stroke:none;" d="M93.5602 -16.5344 L89.8102 -16.5344 L89.8102 -17.0969 L91.3102 -18.6125 Q91.9977 -19.3 92.2164 -19.5969 Q92.4352 -19.8937 92.5446 -20.175 Q92.6539 -20.4562 92.6539 -20.7844 Q92.6539 -21.2375 92.3805 -21.5031 Q92.1071 -21.7687 91.6071 -21.7687 Q91.2633 -21.7687 90.943 -21.6516 Q90.6227 -21.5344 90.2321 -21.2375 L89.8883 -21.675 Q90.6696 -22.3312 91.6071 -22.3312 Q92.4039 -22.3312 92.8649 -21.9172 Q93.3258 -21.5031 93.3258 -20.8156 Q93.3258 -20.2687 93.0211 -19.7375 Q92.7164 -19.2062 91.8727 -18.3937 L90.6227 -17.175 L90.6227 -17.1437 L93.5602 -17.1437 L93.5602 -16.5344 Z" /></ns0:g></ns0:g></ns0:svg></ns0:svg></ns0:svg></ns0:svg></g></svg>