<svg xmlns:ns0="http://www.w3.org/2000/svg" xmlns="http://www.w3.org/2000/svg"><g transform="translate(0, 0)"><ns0:svg width="331" viewBox="0 0 331 242" style="fill-opacity:1; color-rendering:auto; color-interpolation:auto; text-rendering:auto; stroke:black; stroke-linecap:square; stroke-miterlimit:10; shape-rendering:auto; stroke-opacity:1; fill:black; stroke-dasharray:none; font-weight:normal; stroke-width:1; font-family:'Open Sans'; font-style:normal; stroke-linejoin:miter; font-size:12; stroke-dashoffset:0; image-rendering:auto;" height="242" class="cas-substance-image"><ns0:svg class="cas-substance-single-component"><ns0:rect y="0" x="0" width="331" stroke="none" ry="7" rx="7" height="242" fill="white" class="cas-substance-group" /><ns0:svg y="0" x="0" width="331" viewBox="0 0 331 242" style="fill:black;" height="242" class="cas-substance-single-component-image"><ns0:svg><ns0:g><ns0:g transform="translate(166,121)" style="text-rendering:geometricPrecision; color-rendering:optimizeQuality; color-interpolation:linearRGB; stroke-linecap:butt; image-rendering:optimizeQuality;"><ns0:path style="stroke:none;" d="M56.4511 -66.9973 L51.9992 -66.2107 L51.9992 -66.2107 L52.2505 -65.2397 L52.2505 -65.2397 L57.8456 -66.2282 L57.8456 -66.2282 L57.8222 -66.4983 L56.4511 -66.9973 ZM58.0188 -64.228 L52.7529 -63.2976 L52.7529 -63.2976 L53.0042 -62.3265 L53.0042 -62.3265 L58.1054 -63.2278 L58.1054 -63.2278 L58.0188 -64.228 ZM58.2786 -61.2276 L53.5067 -60.3845 L53.5067 -60.3845 L53.7579 -59.4134 L53.7579 -59.4134 L58.3652 -60.2274 L58.3652 -60.2274 L58.2786 -61.2276 ZM58.5384 -58.2272 L54.2604 -57.4713 L54.2604 -57.4713 L54.5116 -56.5003 L54.5116 -56.5003 L58.625 -57.227 L58.625 -57.227 L58.5384 -58.2272 ZM58.7982 -55.2268 L55.0141 -54.5582 L55.0141 -54.5582 L55.2654 -53.5872 L55.2654 -53.5872 L58.8848 -54.2266 L58.8848 -54.2266 L58.7982 -55.2268 ZM59.0579 -52.2264 L55.7679 -51.6451 L55.7679 -51.6451 L56.0191 -50.674 L56.0191 -50.674 L59.1445 -51.2262 L59.0579 -52.2264 ZM59.3177 -49.226 L56.5216 -48.7319 L56.5216 -48.7319 L56.7728 -47.7609 L56.7728 -47.7609 L59.4043 -48.2258 L59.4043 -48.2258 L59.3177 -49.226 ZM59.5775 -46.2256 L57.2753 -45.8188 L57.5266 -44.8478 L57.5266 -44.8478 L59.6641 -45.2254 L59.6641 -45.2254 L59.5775 -46.2256 ZM59.8373 -43.2252 L58.029 -42.9057 L58.029 -42.9057 L58.2803 -41.9346 L58.2803 -41.9346 L59.9239 -42.225 L59.9239 -42.225 L59.8373 -43.2252 ZM60.0971 -40.2248 L58.7828 -39.9926 L59.034 -39.0215 L60.1837 -39.2246 L60.1837 -39.2246 L60.0971 -40.2248 Z" /><ns0:line y2="-77.943" y1="-67.683" x2="26.376" x1="54.567" style="fill:none;" /><ns0:line y2="-33.2131" y1="-48.399" x2="106.0654" x1="87.969" style="fill:none;" /><ns0:line y2="-71.318" y1="-47.1" x2="93.7861" x1="89.517" style="fill:none;" /><ns0:line y2="-71.9256" y1="-48.7028" x2="90.3393" x1="86.2456" style="fill:none;" /><ns0:path style="stroke:none;" d="M59.949 -37.6662 L59.607 -38.6058 L85.637 -51.0087 L90.9438 -46.5554 Z" /><ns0:line y2="-37.4712" y1="-31.0188" x2="133.909" x1="116.18" style="fill:none;" /><ns0:line y2="0.429" y1="-22.9891" x2="105.741" x1="109.8691" style="fill:none;" /><ns0:line y2="-20.091" y1="-35.2773" x2="162.123" x1="144.0237" style="fill:none;" /><ns0:line y2="-68.919" y1="-45.7508" x2="144.351" x1="140.2646" style="fill:none;" /><ns0:line y2="13.824" y1="-12.156" x2="-30.222" x1="-15.222" style="fill:none;" /><ns0:line y2="-33.3753" y1="-12.156" x2="-25.4526" x1="-13.2013" style="fill:none;" /><ns0:line y2="-31.6253" y1="-10.406" x2="-28.4837" x1="-16.2324" style="fill:none;" /><ns0:line y2="-12.156" y1="-12.156" x2="9.4264" x1="-15.222" style="fill:none;" /><ns0:line y2="13.824" y1="13.824" x2="-60.222" x1="-30.222" style="fill:none;" /><ns0:path style="stroke:none;" d="M-28.6257 15.1617 L-29.8619 15.8746 L-29.8619 15.8746 L-29.4562 16.7954 L-29.4562 16.7954 L-28.031 15.9735 L-28.031 15.9735 L-28.6257 15.1617 ZM-26.8416 17.597 L-28.645 18.637 L-28.645 18.637 L-28.2394 19.5578 L-28.2394 19.5578 L-26.2469 18.4088 L-26.2469 18.4088 L-26.8416 17.597 ZM-25.0574 20.0323 L-27.4282 21.3994 L-27.4282 21.3994 L-27.0226 22.3202 L-27.0226 22.3202 L-24.4627 20.844 L-24.4627 20.844 L-25.0574 20.0323 ZM-23.2732 22.4675 L-26.2113 24.1618 L-26.2113 24.1618 L-25.8057 25.0826 L-22.6785 23.2793 L-22.6785 23.2793 L-23.2732 22.4675 ZM-21.4891 24.9028 L-24.9945 26.9242 L-24.9945 26.9242 L-24.5889 27.845 L-20.8944 25.7145 L-20.8944 25.7145 L-21.4891 24.9028 ZM-19.7049 27.338 L-23.7776 29.6866 L-23.7776 29.6866 L-23.372 30.6074 L-23.372 30.6074 L-19.1102 28.1498 L-19.1102 28.1498 L-19.7049 27.338 ZM-17.9208 29.7733 L-22.5608 32.4491 L-22.5608 32.4491 L-22.1552 33.3699 L-22.1552 33.3699 L-17.326 30.585 L-17.326 30.585 L-17.9208 29.7733 Z" /><ns0:line y2="-12.156" y1="13.824" x2="-75.222" x1="-60.222" style="fill:none;" /><ns0:line y2="65.787" y1="45.6923" x2="-30.222" x1="-18.6213" style="fill:none;" /><ns0:line y2="91.767" y1="65.787" x2="-15.222" x1="-30.222" style="fill:none;" /><ns0:line y2="64.037" y1="64.037" x2="-54.2845" x1="-29.2117" style="fill:none;" /><ns0:line y2="67.537" y1="67.537" x2="-54.2845" x1="-29.2116" style="fill:none;" /><ns0:line y2="106.767" y1="91.767" x2="-41.202" x1="-15.222" style="fill:none;" /><ns0:line y2="117.747" y1="91.767" x2="-0.222" x1="-15.222" style="fill:none;" /><ns0:line y2="79.7021" y1="91.767" x2="5.6744" x1="-15.222" style="fill:none;" /><ns0:line y2="-38.136" y1="-38.136" x2="29.778" x1="59.778" style="fill:none;" /><ns0:line y2="-12.156" y1="-38.136" x2="74.778" x1="59.778" style="fill:none;" /><ns0:line y2="-18.2943" y1="-38.136" x2="18.322" x1="29.778" style="fill:none;" /><ns0:line y2="13.824" y1="-12.156" x2="59.778" x1="74.778" style="fill:none;" /><ns0:line y2="13.824" y1="-6.2677" x2="29.778" x1="18.1777" style="fill:none;" /><ns0:line y2="13.824" y1="13.824" x2="29.778" x1="59.778" style="fill:none;" /><ns0:line y2="-58.659" y1="-77.943" x2="3.396" x1="26.376" style="fill:none;" /><ns0:line y2="-62.639" y1="-79.3251" x2="2.6941" x1="22.5782" style="fill:none;" /><ns0:line y2="-107.487" y1="-77.943" x2="21.168" x1="26.376" style="fill:none;" /><ns0:line y2="-68.919" y1="-58.659" x2="-24.795" x1="3.396" style="fill:none;" /><ns0:line y2="-117.747" y1="-107.487" x2="-7.023" x1="21.168" style="fill:none;" /><ns0:line y2="-113.767" y1="-104.8891" x2="-6.3211" x1="18.0721" style="fill:none;" /><ns0:line y2="-98.463" y1="-68.919" x2="-30.003" x1="-24.795" style="fill:none;" /><ns0:line y2="-97.0806" y1="-71.5167" x2="-26.2053" x1="-21.6989" style="fill:none;" /><ns0:line y2="-98.463" y1="-117.747" x2="-30.003" x1="-7.023" style="fill:none;" /><ns0:line y2="-15.294" y1="-12.156" x2="-105.057" x1="-75.222" style="fill:none;" /><ns0:line y2="-39.564" y1="-12.156" x2="-63.021" x1="-75.222" style="fill:none;" /><ns0:line y2="-39.1413" y1="-15.4255" x2="-67.0403" x1="-77.5977" style="fill:none;" /><ns0:line y2="-44.637" y1="-15.294" x2="-111.297" x1="-105.057" style="fill:none;" /><ns0:line y2="4.782" y1="-15.294" x2="-127.353" x1="-105.057" style="fill:none;" /><ns0:line y2="0.8289" y1="-16.5428" x2="-128.1933" x1="-108.9007" style="fill:none;" /><ns0:line y2="-55.2809" y1="-39.564" x2="-80.4762" x1="-63.021" style="fill:none;" /><ns0:line y2="-56.7022" y1="-44.637" x2="-90.3977" x1="-111.297" style="fill:none;" /><ns0:line y2="-53.907" y1="-44.637" x2="-139.827" x1="-111.297" style="fill:none;" /><ns0:line y2="-49.9539" y1="-41.9327" x2="-138.9867" x1="-114.3004" style="fill:none;" /><ns0:line y2="-4.488" y1="4.782" x2="-155.883" x1="-127.353" style="fill:none;" /><ns0:line y2="-33.834" y1="-53.907" x2="-162.123" x1="-139.827" style="fill:none;" /><ns0:line y2="-33.834" y1="-4.488" x2="-162.123" x1="-155.883" style="fill:none;" /><ns0:line y2="-32.5854" y1="-7.1925" x2="-158.2793" x1="-152.8798" style="fill:none;" /></ns0:g><ns0:g transform="translate(166,121)" style="fill:rgb(0,5,255); text-rendering:geometricPrecision; color-rendering:optimizeQuality; image-rendering:optimizeQuality; font-family:'Open Sans'; stroke:rgb(0,5,255); color-interpolation:linearRGB;"><ns0:path style="stroke:none;" d="M114.3006 -24.9587 L113.1599 -24.9587 L108.4724 -32.1462 L108.4256 -32.1462 Q108.5193 -30.8806 108.5193 -29.8337 L108.5193 -24.9587 L107.5974 -24.9587 L107.5974 -33.5212 L108.7224 -33.5212 L113.3943 -26.365 L113.4412 -26.365 Q113.4412 -26.5212 113.3943 -27.3806 Q113.3474 -28.24 113.3631 -28.615 L113.3631 -33.5212 L114.3006 -33.5212 L114.3006 -24.9587 Z" /><ns0:path style="fill:rgb(230,0,0); stroke:none;" d="M97.1145 -78.0133 Q97.1145 -75.9508 96.0754 -74.7711 Q95.0364 -73.5914 93.1926 -73.5914 Q91.302 -73.5914 90.2708 -74.7555 Q89.2395 -75.9196 89.2395 -78.0289 Q89.2395 -80.1227 90.2708 -81.2711 Q91.302 -82.4196 93.1926 -82.4196 Q95.052 -82.4196 96.0833 -81.2477 Q97.1145 -80.0758 97.1145 -78.0133 ZM90.2864 -78.0133 Q90.2864 -76.2789 91.0286 -75.3727 Q91.7708 -74.4664 93.1926 -74.4664 Q94.6145 -74.4664 95.3411 -75.3649 Q96.0676 -76.2633 96.0676 -78.0133 Q96.0676 -79.7477 95.3411 -80.6383 Q94.6145 -81.5289 93.1926 -81.5289 Q91.7708 -81.5289 91.0286 -80.6305 Q90.2864 -79.7321 90.2864 -78.0133 Z" /><ns0:path style="stroke:none;" d="M142.4916 -35.2188 L141.3509 -35.2188 L136.6634 -42.4062 L136.6166 -42.4062 Q136.7103 -41.1406 136.7103 -40.0938 L136.7103 -35.2188 L135.7884 -35.2188 L135.7884 -43.7812 L136.9134 -43.7812 L141.5853 -36.625 L141.6322 -36.625 Q141.6322 -36.7812 141.5853 -37.6406 Q141.5384 -38.5 141.5541 -38.875 L141.5541 -43.7812 L142.4916 -43.7812 L142.4916 -35.2188 Z" /></ns0:g><ns0:g transform="translate(166,121)" style="stroke-linecap:butt; text-rendering:geometricPrecision; color-rendering:optimizeQuality; image-rendering:optimizeQuality; font-family:'Open Sans'; color-interpolation:linearRGB; stroke-miterlimit:5;"><ns0:path style="fill:none;" d="M-15.472 -11.723 L-15.222 -12.156 L-14.722 -12.156" /><ns0:path style="fill:none;" d="M-29.972 13.391 L-30.222 13.824 L-30.722 13.824" /></ns0:g><ns0:g transform="translate(166,121)" style="stroke-linecap:butt; font-size:8.4px; fill:gray; text-rendering:geometricPrecision; image-rendering:optimizeQuality; color-rendering:optimizeQuality; font-family:'Open Sans'; font-style:italic; stroke:gray; color-interpolation:linearRGB; stroke-miterlimit:5;"><ns0:path style="stroke:none;" d="M-39.6104 6.3277 Q-39.6104 4.9996 -39.1417 3.8746 Q-38.6729 2.7496 -37.6417 1.6714 L-37.0323 1.6714 Q-38.001 2.7339 -38.4854 3.9058 Q-38.9698 5.0777 -38.9698 6.3121 Q-38.9698 7.6402 -38.5323 8.6558 L-39.0479 8.6558 Q-39.6104 7.6246 -39.6104 6.3277 ZM-36.0504 5.0152 L-36.5504 7.3902 L-37.2066 7.3902 L-36.0035 1.6714 L-34.7535 1.6714 Q-33.0191 1.6714 -33.0191 3.1089 Q-33.0191 4.4683 -34.4566 4.8589 L-33.5191 7.3902 L-34.2379 7.3902 L-35.066 5.0152 L-36.0504 5.0152 ZM-35.4722 2.2652 Q-35.8629 4.1871 -35.9254 4.4371 L-35.2691 4.4371 Q-34.5191 4.4371 -34.1129 4.1089 Q-33.7066 3.7808 -33.7066 3.1558 Q-33.7066 2.6871 -33.9644 2.4761 Q-34.2222 2.2652 -34.816 2.2652 L-35.4722 2.2652 ZM-30.8331 4.0152 Q-30.8331 5.3433 -31.3097 6.4761 Q-31.7863 7.6089 -32.8019 8.6558 L-33.4113 8.6558 Q-31.4738 6.4996 -31.4738 4.0152 Q-31.4738 2.6871 -31.9113 1.6714 L-31.3956 1.6714 Q-30.8331 2.7339 -30.8331 4.0152 Z" /></ns0:g><ns0:g transform="translate(166,121)" style="stroke-linecap:butt; fill:rgb(230,0,0); text-rendering:geometricPrecision; color-rendering:optimizeQuality; image-rendering:optimizeQuality; font-family:'Open Sans'; stroke:rgb(230,0,0); color-interpolation:linearRGB; stroke-miterlimit:5;"><ns0:path style="stroke:none;" d="M-26.2845 -38.2063 Q-26.2845 -36.1438 -27.3236 -34.9641 Q-28.3626 -33.7844 -30.2064 -33.7844 Q-32.097 -33.7844 -33.1283 -34.9485 Q-34.1595 -36.1126 -34.1595 -38.2219 Q-34.1595 -40.3157 -33.1283 -41.4641 Q-32.097 -42.6126 -30.2064 -42.6126 Q-28.347 -42.6126 -27.3158 -41.4407 Q-26.2845 -40.2688 -26.2845 -38.2063 ZM-33.1126 -38.2063 Q-33.1126 -36.4719 -32.3704 -35.5657 Q-31.6283 -34.6594 -30.2064 -34.6594 Q-28.7845 -34.6594 -28.0579 -35.5579 Q-27.3314 -36.4563 -27.3314 -38.2063 Q-27.3314 -39.9407 -28.0579 -40.8313 Q-28.7845 -41.7219 -30.2064 -41.7219 Q-31.6283 -41.7219 -32.3704 -40.8235 Q-33.1126 -39.9251 -33.1126 -38.2063 Z" /><ns0:path style="fill:none; stroke:black;" d="M-59.722 13.824 L-60.222 13.824 L-60.472 13.391" /><ns0:path style="fill:rgb(0,5,255); stroke:none;" d="M-11.8704 43.9603 L-13.0111 43.9603 L-17.6986 36.7728 L-17.7454 36.7728 Q-17.6517 38.0384 -17.6517 39.0853 L-17.6517 43.9603 L-18.5736 43.9603 L-18.5736 35.3978 L-17.4486 35.3978 L-12.7767 42.554 L-12.7298 42.554 Q-12.7298 42.3978 -12.7767 41.5384 Q-12.8236 40.679 -12.8079 40.304 L-12.8079 35.3978 L-11.8704 35.3978 L-11.8704 43.9603 Z" /><ns0:path style="fill:rgb(0,5,255); stroke:none;" d="M-4.3548 43.9603 L-5.3548 43.9603 L-5.3548 39.929 L-9.8704 39.929 L-9.8704 43.9603 L-10.8704 43.9603 L-10.8704 35.3978 L-9.8704 35.3978 L-9.8704 39.0384 L-5.3548 39.0384 L-5.3548 35.3978 L-4.3548 35.3978 L-4.3548 43.9603 Z" /><ns0:path style="fill:none; stroke:black;" d="M-29.972 65.354 L-30.222 65.787 L-29.972 66.22" /><ns0:path style="stroke:none;" d="M-56.2845 65.7167 Q-56.2845 67.7792 -57.3236 68.9589 Q-58.3626 70.1386 -60.2064 70.1386 Q-62.097 70.1386 -63.1283 68.9745 Q-64.1595 67.8104 -64.1595 65.7011 Q-64.1595 63.6073 -63.1283 62.4589 Q-62.097 61.3104 -60.2064 61.3104 Q-58.347 61.3104 -57.3158 62.4823 Q-56.2845 63.6542 -56.2845 65.7167 ZM-63.1126 65.7167 Q-63.1126 67.4511 -62.3704 68.3573 Q-61.6283 69.2636 -60.2064 69.2636 Q-58.7845 69.2636 -58.0579 68.3651 Q-57.3314 67.4667 -57.3314 65.7167 Q-57.3314 63.9823 -58.0579 63.0917 Q-58.7845 62.2011 -60.2064 62.2011 Q-61.6283 62.2011 -62.3704 63.0995 Q-63.1126 63.9979 -63.1126 65.7167 Z" /><ns0:path style="fill:rgb(0,5,255); stroke:none;" d="M14.1096 80.9233 L12.9689 80.9233 L8.2814 73.7358 L8.2346 73.7358 Q8.3283 75.0014 8.3283 76.0483 L8.3283 80.9233 L7.4064 80.9233 L7.4064 72.3608 L8.5314 72.3608 L13.2033 79.517 L13.2502 79.517 Q13.2502 79.3608 13.2033 78.5014 Q13.1564 77.642 13.1721 77.267 L13.1721 72.3608 L14.1096 72.3608 L14.1096 80.9233 Z" /><ns0:path style="fill:rgb(0,5,255); stroke:none;" d="M21.6252 80.9233 L20.6252 80.9233 L20.6252 76.892 L16.1096 76.892 L16.1096 80.9233 L15.1096 80.9233 L15.1096 72.3608 L16.1096 72.3608 L16.1096 76.0014 L20.6252 76.0014 L20.6252 72.3608 L21.6252 72.3608 L21.6252 80.9233 Z" /><ns0:path style="fill:rgb(0,5,255); stroke:none;" d="M26.3752 82.7326 L22.6252 82.7326 L22.6252 82.1701 L24.1252 80.6545 Q24.8127 79.967 25.0314 79.6701 Q25.2502 79.3733 25.3596 79.092 Q25.4689 78.8108 25.4689 78.4826 Q25.4689 78.0295 25.1955 77.7639 Q24.9221 77.4983 24.4221 77.4983 Q24.0783 77.4983 23.758 77.6154 Q23.4377 77.7326 23.0471 78.0295 L22.7033 77.592 Q23.4846 76.9358 24.4221 76.9358 Q25.2189 76.9358 25.6799 77.3498 Q26.1408 77.7639 26.1408 78.4514 Q26.1408 78.9983 25.8361 79.5295 Q25.5314 80.0608 24.6877 80.8733 L23.4377 82.092 L23.4377 82.1233 L26.3752 82.1233 L26.3752 82.7326 Z" /></ns0:g><ns0:g transform="translate(166,121)" style="stroke-linecap:butt; font-size:8.4px; fill:gray; text-rendering:geometricPrecision; image-rendering:optimizeQuality; color-rendering:optimizeQuality; font-family:'Open Sans'; font-style:italic; stroke:gray; color-interpolation:linearRGB; stroke-miterlimit:5;"><ns0:path style="stroke:none;" d="M50.3894 -28.3116 Q50.3894 -29.6398 50.8582 -30.7648 Q51.3269 -31.8898 52.3582 -32.9679 L52.9675 -32.9679 Q51.9988 -31.9054 51.5144 -30.7335 Q51.03 -29.5616 51.03 -28.3273 Q51.03 -26.9991 51.4675 -25.9835 L50.9519 -25.9835 Q50.3894 -27.0148 50.3894 -28.3116 ZM53.9495 -29.6241 L53.4495 -27.2491 L52.7932 -27.2491 L53.9963 -32.9679 L55.2463 -32.9679 Q56.9807 -32.9679 56.9807 -31.5304 Q56.9807 -30.171 55.5432 -29.7804 L56.4807 -27.2491 L55.762 -27.2491 L54.9338 -29.6241 L53.9495 -29.6241 ZM54.5276 -32.3741 Q54.137 -30.4523 54.0745 -30.2023 L54.7307 -30.2023 Q55.4807 -30.2023 55.887 -30.5304 Q56.2932 -30.8585 56.2932 -31.4835 Q56.2932 -31.9523 56.0354 -32.1632 Q55.7776 -32.3741 55.1838 -32.3741 L54.5276 -32.3741 ZM59.1667 -30.6241 Q59.1667 -29.296 58.6901 -28.1632 Q58.2136 -27.0304 57.1979 -25.9835 L56.5886 -25.9835 Q58.5261 -28.1398 58.5261 -30.6241 Q58.5261 -31.9523 58.0886 -32.9679 L58.6042 -32.9679 Q59.1667 -31.9054 59.1667 -30.6241 Z" /><ns0:path style="fill:none; stroke:black;" d="M30.278 -38.136 L29.778 -38.136 L29.528 -37.703" /><ns0:path style="fill:none; stroke:black;" d="M74.528 -12.589 L74.778 -12.156 L74.528 -11.723" /></ns0:g><ns0:g transform="translate(166,121)" style="stroke-linecap:butt; fill:rgb(0,5,255); text-rendering:geometricPrecision; color-rendering:optimizeQuality; image-rendering:optimizeQuality; font-family:'Open Sans'; stroke:rgb(0,5,255); color-interpolation:linearRGB; stroke-miterlimit:5;"><ns0:path style="stroke:none;" d="M18.1296 -7.9998 L16.9889 -7.9998 L12.3014 -15.1873 L12.2546 -15.1873 Q12.3483 -13.9216 12.3483 -12.8748 L12.3483 -7.9998 L11.4264 -7.9998 L11.4264 -16.5623 L12.5514 -16.5623 L17.2233 -9.406 L17.2702 -9.406 Q17.2702 -9.5623 17.2233 -10.4216 Q17.1764 -11.281 17.1921 -11.656 L17.1921 -16.5623 L18.1296 -16.5623 L18.1296 -7.9998 Z" /><ns0:path style="fill:none; stroke:black;" d="M60.028 13.391 L59.778 13.824 L59.278 13.824" /><ns0:path style="fill:none; stroke:black;" d="M29.528 13.391 L29.778 13.824 L30.278 13.824" /><ns0:path style="fill:none; stroke:black;" d="M25.993 -77.6216 L26.376 -77.943 L26.2892 -78.4354" /><ns0:path style="fill:none; stroke:black;" d="M3.779 -58.9804 L3.396 -58.659 L2.9262 -58.83" /><ns0:path style="fill:none; stroke:black;" d="M21.2548 -106.9946 L21.168 -107.487 L20.6982 -107.658" /><ns0:path style="fill:none; stroke:black;" d="M-24.3251 -68.748 L-24.795 -68.919 L-24.8818 -69.4114" /><ns0:path style="fill:none; stroke:black;" d="M-6.5531 -117.576 L-7.023 -117.747 L-7.406 -117.4256" /><ns0:path style="fill:none; stroke:black;" d="M-29.9162 -97.9706 L-30.003 -98.463 L-29.62 -98.7844" /><ns0:path style="fill:none; stroke:black;" d="M-75.0187 -12.6128 L-75.222 -12.156 L-74.972 -11.723" /><ns0:path style="fill:none; stroke:black;" d="M-105.4286 -14.9594 L-105.057 -15.294 L-105.161 -15.7831" /><ns0:path style="fill:none; stroke:black;" d="M-63.2243 -39.1072 L-63.021 -39.564 L-63.3926 -39.8986" /><ns0:path style="fill:none; stroke:black;" d="M-111.7725 -44.7915 L-111.297 -44.637 L-110.864 -44.887" /><ns0:path style="fill:none; stroke:black;" d="M-126.9814 4.4474 L-127.353 4.782 L-127.8285 4.6275" /><ns0:path style="stroke:none;" d="M-81.9624 -55.4808 L-83.1031 -55.4808 L-87.7906 -62.6683 L-87.8374 -62.6683 Q-87.7437 -61.4026 -87.7437 -60.3558 L-87.7437 -55.4808 L-88.6656 -55.4808 L-88.6656 -64.0433 L-87.5406 -64.0433 L-82.8687 -56.887 L-82.8218 -56.887 Q-82.8218 -57.0433 -82.8687 -57.9026 Q-82.9156 -58.762 -82.8999 -59.137 L-82.8999 -64.0433 L-81.9624 -64.0433 L-81.9624 -55.4808 Z" /><ns0:path style="stroke:none;" d="M-82.0562 -65.0433 L-83.0562 -65.0433 L-83.0562 -69.0745 L-87.5718 -69.0745 L-87.5718 -65.0433 L-88.5718 -65.0433 L-88.5718 -73.6058 L-87.5718 -73.6058 L-87.5718 -69.9651 L-83.0562 -69.9651 L-83.0562 -73.6058 L-82.0562 -73.6058 L-82.0562 -65.0433 Z" /><ns0:path style="fill:none; stroke:black;" d="M-139.3515 -53.7525 L-139.827 -53.907 L-140.1986 -53.5725" /><ns0:path style="fill:none; stroke:black;" d="M-155.4075 -4.3335 L-155.883 -4.488 L-155.987 -4.9771" /><ns0:path style="fill:none; stroke:black;" d="M-161.7514 -34.1685 L-162.123 -33.834 L-162.019 -33.3449" /></ns0:g></ns0:g></ns0:svg></ns0:svg></ns0:svg></ns0:svg></g></svg>