<svg xmlns:ns0="http://www.w3.org/2000/svg" xmlns="http://www.w3.org/2000/svg"><g transform="translate(0, 0)"><ns0:svg width="190" viewBox="0 0 190 64" style="fill-opacity:1; color-rendering:auto; color-interpolation:auto; text-rendering:auto; stroke:black; stroke-linecap:square; stroke-miterlimit:10; shape-rendering:auto; stroke-opacity:1; fill:black; stroke-dasharray:none; font-weight:normal; stroke-width:1; font-family:'Open Sans'; font-style:normal; stroke-linejoin:miter; font-size:12; stroke-dashoffset:0; image-rendering:auto;" height="64" class="cas-substance-image"><ns0:svg class="cas-substance-single-component"><ns0:rect y="0" x="0" width="190" stroke="none" ry="7" rx="7" height="64" fill="white" class="cas-substance-group" /><ns0:svg y="0" x="0" width="190" viewBox="0 0 190 64" style="fill:black;" height="64" class="cas-substance-single-component-image"><ns0:svg><ns0:g><ns0:g transform="translate(94,34)" style="text-rendering:geometricPrecision; color-rendering:optimizeQuality; color-interpolation:linearRGB; stroke-linecap:butt; image-rendering:optimizeQuality;"><ns0:line y2="-20.332" y1="0" x2="87.321" x1="75.582" style="fill:none;" /><ns0:line y2="-22.0821" y1="-3.5" x2="84.29" x1="73.5613" style="fill:none;" /><ns0:line y2="0" y1="0" x2="45.582" x1="75.582" style="fill:none;" /><ns0:line y2="-25.98" y1="0" x2="0.582" x1="-14.418" style="fill:none;" /><ns0:line y2="-22.48" y1="0.0001" x2="2.6027" x1="-10.3765" style="fill:none;" /><ns0:line y2="25.98" y1="0" x2="0.582" x1="-14.418" style="fill:none;" /><ns0:line y2="0" y1="0" x2="-39.0664" x1="-14.418" style="fill:none;" /><ns0:line y2="-25.98" y1="-25.98" x2="30.582" x1="0.582" style="fill:none;" /><ns0:line y2="25.98" y1="25.98" x2="30.582" x1="0.582" style="fill:none;" /><ns0:line y2="22.48" y1="22.48" x2="28.5613" x1="2.6027" style="fill:none;" /><ns0:line y2="0" y1="-25.98" x2="45.582" x1="30.582" style="fill:none;" /><ns0:line y2="0.0001" y1="-22.48" x2="41.5406" x1="28.5613" style="fill:none;" /><ns0:line y2="0" y1="25.98" x2="45.582" x1="30.582" style="fill:none;" /><ns0:line y2="24.27" y1="5.7743" x2="-62.052" x1="-48.6134" style="fill:none;" /><ns0:line y2="-24.27" y1="-6.0243" x2="-62.052" x1="-48.7951" style="fill:none;" /><ns0:line y2="15" y1="24.27" x2="-90.582" x1="-62.052" style="fill:none;" /><ns0:line y2="-15" y1="-24.27" x2="-90.582" x1="-62.052" style="fill:none;" /><ns0:line y2="-15" y1="15" x2="-90.582" x1="-90.582" style="fill:none;" /><ns0:path style="fill:none; stroke-miterlimit:5;" d="M75.832 -0.433 L75.582 0 L75.082 -0" /></ns0:g><ns0:g transform="translate(92.4845,33.125)" style="stroke-linecap:butt; fill:rgb(230,0,0); text-rendering:geometricPrecision; color-rendering:optimizeQuality; image-rendering:optimizeQuality; font-family:'Open Sans'; stroke:rgb(230,0,0); color-interpolation:linearRGB; stroke-miterlimit:5;"><ns0:path style="stroke:none;" d="M94.5195 -26.0503 Q94.5195 -23.9878 93.4804 -22.8081 Q92.4414 -21.6284 90.5976 -21.6284 Q88.707 -21.6284 87.6757 -22.7925 Q86.6445 -23.9566 86.6445 -26.0659 Q86.6445 -28.1597 87.6757 -29.3081 Q88.707 -30.4566 90.5976 -30.4566 Q92.457 -30.4566 93.4882 -29.2847 Q94.5195 -28.1128 94.5195 -26.0503 ZM87.6914 -26.0503 Q87.6914 -24.3159 88.4336 -23.4097 Q89.1757 -22.5034 90.5976 -22.5034 Q92.0195 -22.5034 92.7461 -23.4019 Q93.4726 -24.3003 93.4726 -26.0503 Q93.4726 -27.7847 92.7461 -28.6753 Q92.0195 -29.5659 90.5976 -29.5659 Q89.1757 -29.5659 88.4336 -28.6675 Q87.6914 -27.7691 87.6914 -26.0503 Z" /></ns0:g><ns0:g transform="matrix(1,0,0,1,94,34)" style="stroke-linecap:butt; text-rendering:geometricPrecision; color-rendering:optimizeQuality; image-rendering:optimizeQuality; font-family:'Open Sans'; color-interpolation:linearRGB; stroke-miterlimit:5;"><ns0:path style="fill:none;" d="M-14.168 -0.433 L-14.418 0 L-14.168 0.433" /><ns0:path style="fill:none;" d="M0.332 -25.547 L0.582 -25.98 L1.082 -25.98" /><ns0:path style="fill:none;" d="M0.332 25.547 L0.582 25.98 L1.082 25.98" /><ns0:path style="fill:none;" d="M30.082 -25.98 L30.582 -25.98 L30.832 -25.547" /><ns0:path style="fill:none;" d="M30.082 25.98 L30.582 25.98 L30.832 25.547" /><ns0:path style="fill:none;" d="M45.332 -0.433 L45.582 0 L46.082 0" /><ns0:path style="fill:rgb(0,5,255); stroke:none;" d="M-41.0664 4.1562 L-42.2071 4.1562 L-46.8946 -3.0312 L-46.9414 -3.0312 Q-46.8477 -1.7656 -46.8477 -0.7188 L-46.8477 4.1562 L-47.7696 4.1562 L-47.7696 -4.4062 L-46.6446 -4.4062 L-41.9727 2.75 L-41.9258 2.75 Q-41.9258 2.5938 -41.9727 1.7344 Q-42.0196 0.875 -42.0039 0.5 L-42.0039 -4.4062 L-41.0664 -4.4062 L-41.0664 4.1562 Z" /><ns0:path style="fill:none;" d="M-61.7581 23.8655 L-62.052 24.27 L-62.5275 24.1155" /><ns0:path style="fill:none;" d="M-61.7581 -23.8655 L-62.052 -24.27 L-62.5275 -24.1155" /><ns0:path style="fill:none;" d="M-90.1065 15.1545 L-90.582 15 L-90.582 14.5" /><ns0:path style="fill:none;" d="M-90.1065 -15.1545 L-90.582 -15 L-90.582 -14.5" /></ns0:g></ns0:g></ns0:svg></ns0:svg></ns0:svg></ns0:svg></g></svg>