<svg xmlns:ns0="http://www.w3.org/2000/svg" xmlns="http://www.w3.org/2000/svg"><g transform="translate(0, 0)"><ns0:svg width="178" viewBox="0 0 178 63" style="fill-opacity:1; color-rendering:auto; color-interpolation:auto; text-rendering:auto; stroke:black; stroke-linecap:square; stroke-miterlimit:10; shape-rendering:auto; stroke-opacity:1; fill:black; stroke-dasharray:none; font-weight:normal; stroke-width:1; font-family:'Open Sans'; font-style:normal; stroke-linejoin:miter; font-size:12; stroke-dashoffset:0; image-rendering:auto;" height="63" class="cas-substance-image"><ns0:svg class="cas-substance-single-component"><ns0:rect y="0" x="0" width="178" stroke="none" ry="7" rx="7" height="63" fill="white" class="cas-substance-group" /><ns0:svg y="0" x="0" width="178" viewBox="0 0 178 63" style="fill:black;" height="63" class="cas-substance-single-component-image"><ns0:svg><ns0:g><ns0:g transform="translate(89,29)" style="text-rendering:geometricPrecision; color-rendering:optimizeQuality; color-interpolation:linearRGB; stroke-linecap:butt; image-rendering:optimizeQuality;"><ns0:line y2="-25.98" y1="0" x2="-82.5" x1="-67.5" style="fill:none;" /><ns0:line y2="19.3833" y1="-1.75" x2="-80.712" x1="-68.5104" style="fill:none;" /><ns0:line y2="21.1333" y1="0" x2="-77.681" x1="-65.4793" style="fill:none;" /><ns0:line y2="0" y1="0" x2="-42.8516" x1="-67.5" style="fill:none;" /><ns0:line y2="0" y1="0" x2="77.1484" x1="52.5" style="fill:none;" /><ns0:line y2="-3.5" y1="-3.5" x2="77.1484" x1="52.5" style="fill:none;" /><ns0:line y2="3.5" y1="3.5" x2="77.1484" x1="52.5" style="fill:none;" /><ns0:line y2="0" y1="0" x2="22.5" x1="52.5" style="fill:none;" /><ns0:line y2="25.98" y1="5.8883" x2="-22.5" x1="-34.1003" style="fill:none;" /><ns0:line y2="-25.98" y1="-6.1383" x2="-22.5" x1="-33.956" style="fill:none;" /><ns0:line y2="25.98" y1="25.98" x2="7.5" x1="-22.5" style="fill:none;" /><ns0:line y2="-25.98" y1="-25.98" x2="7.5" x1="-22.5" style="fill:none;" /><ns0:line y2="0" y1="25.98" x2="22.5" x1="7.5" style="fill:none;" /><ns0:line y2="0" y1="-25.98" x2="22.5" x1="7.5" style="fill:none;" /><ns0:path style="fill:none; stroke-miterlimit:5;" d="M-67.75 -0.433 L-67.5 0 L-67 0" /></ns0:g><ns0:g transform="translate(89,29)" style="stroke-linecap:butt; fill:rgb(230,0,0); text-rendering:geometricPrecision; color-rendering:optimizeQuality; image-rendering:optimizeQuality; font-family:'Open Sans'; stroke:rgb(230,0,0); color-interpolation:linearRGB; stroke-miterlimit:5;"><ns0:path style="stroke:none;" d="M-78.5625 25.9097 Q-78.5625 27.9722 -79.6016 29.1519 Q-80.6406 30.3316 -82.4844 30.3316 Q-84.375 30.3316 -85.4062 29.1675 Q-86.4375 28.0034 -86.4375 25.8941 Q-86.4375 23.8003 -85.4062 22.6519 Q-84.375 21.5034 -82.4844 21.5034 Q-80.625 21.5034 -79.5938 22.6753 Q-78.5625 23.8472 -78.5625 25.9097 ZM-85.3906 25.9097 Q-85.3906 27.6441 -84.6484 28.5503 Q-83.9062 29.4566 -82.4844 29.4566 Q-81.0625 29.4566 -80.3359 28.5581 Q-79.6094 27.6597 -79.6094 25.9097 Q-79.6094 24.1753 -80.3359 23.2847 Q-81.0625 22.3941 -82.4844 22.3941 Q-83.9062 22.3941 -84.6484 23.2925 Q-85.3906 24.1909 -85.3906 25.9097 Z" /><ns0:path style="fill:rgb(0,5,255); stroke:none;" d="M85.8516 4.1562 L84.7109 4.1562 L80.0234 -3.0312 L79.9766 -3.0312 Q80.0703 -1.7656 80.0703 -0.7188 L80.0703 4.1562 L79.1484 4.1562 L79.1484 -4.4062 L80.2734 -4.4062 L84.9453 2.75 L84.9922 2.75 Q84.9922 2.5938 84.9453 1.7344 Q84.8984 0.875 84.9141 0.5 L84.9141 -4.4062 L85.8516 -4.4062 L85.8516 4.1562 Z" /><ns0:path style="fill:rgb(0,5,255); stroke:none;" d="M-34.1484 4.1562 L-35.2891 4.1562 L-39.9766 -3.0312 L-40.0234 -3.0312 Q-39.9297 -1.7656 -39.9297 -0.7188 L-39.9297 4.1562 L-40.8516 4.1562 L-40.8516 -4.4062 L-39.7266 -4.4062 L-35.0547 2.75 L-35.0078 2.75 Q-35.0078 2.5938 -35.0547 1.7344 Q-35.1016 0.875 -35.0859 0.5 L-35.0859 -4.4062 L-34.1484 -4.4062 L-34.1484 4.1562 Z" /><ns0:path style="fill:none; stroke:black;" d="M-22.75 25.547 L-22.5 25.98 L-22 25.98" /><ns0:path style="fill:none; stroke:black;" d="M-22.75 -25.547 L-22.5 -25.98 L-22 -25.98" /><ns0:path style="fill:none; stroke:black;" d="M7 25.98 L7.5 25.98 L7.75 25.547" /><ns0:path style="fill:none; stroke:black;" d="M7 -25.98 L7.5 -25.98 L7.75 -25.547" /></ns0:g></ns0:g></ns0:svg></ns0:svg></ns0:svg></ns0:svg></g></svg>