<svg width="283" viewBox="0 0 283 177" style="fill-opacity:1; color-rendering:auto; color-interpolation:auto; text-rendering:auto; stroke:black; stroke-linecap:square; stroke-miterlimit:10; shape-rendering:auto; stroke-opacity:1; fill:black; stroke-dasharray:none; font-weight:normal; stroke-width:1; font-family:'Open Sans'; font-style:normal; stroke-linejoin:miter; font-size:12; stroke-dashoffset:0; image-rendering:auto;" height="177" class="cas-substance-image" xmlns:xlink="http://www.w3.org/1999/xlink" xmlns="http://www.w3.org/2000/svg"><svg class="cas-substance-single-component"><rect y="0" x="0" width="283" stroke="none" ry="7" rx="7" height="177" fill="white" class="cas-substance-group"/><svg y="0" x="0" width="283" viewBox="0 0 283 162" style="fill:black;" height="162" class="cas-substance-single-component-image"><svg><g><g transform="translate(141,81)" style="text-rendering:geometricPrecision; color-rendering:optimizeQuality; color-interpolation:linearRGB; stroke-linecap:butt; image-rendering:optimizeQuality;"><line y2="77.943" y1="57.5987" x2="-60" x1="-71.7461" style="fill:none;"/><line y2="25.98" y1="46.2411" x2="-60" x1="-71.6967" style="fill:none;"/><line y2="-77.943" y1="-57.6906" x2="60" x1="71.6931" style="fill:none;"/><line y2="-25.98" y1="-46.3148" x2="60" x1="71.7393" style="fill:none;"/><line y2="0" y1="0" x2="-129.6484" x1="-110.3516" style="fill:none;"/><line y2="3.5" y1="3.5" x2="-129.6484" x1="-110.3516" style="fill:none;"/><line y2="-3.5" y1="-3.5" x2="-129.6484" x1="-110.3516" style="fill:none;"/><line y2="0" y1="0" x2="-75" x1="-99.6484" style="fill:none;"/><line y2="0" y1="0" x2="129.6484" x1="110.3516" style="fill:none;"/><line y2="-3.5" y1="-3.5" x2="129.6484" x1="110.3516" style="fill:none;"/><line y2="3.5" y1="3.5" x2="129.6484" x1="110.3516" style="fill:none;"/><line y2="0" y1="0" x2="75" x1="99.6484" style="fill:none;"/><line y2="25.98" y1="0" x2="-30" x1="-15" style="fill:none;"/><line y2="22.48" y1="-0.0001" x2="-32.0207" x1="-19.0415" style="fill:none;"/><line y2="-25.98" y1="0" x2="-30" x1="-15" style="fill:none;"/><line y2="0" y1="0" x2="15" x1="-15" style="fill:none;"/><line y2="25.98" y1="25.98" x2="-60" x1="-30" style="fill:none;"/><line y2="-25.98" y1="-25.98" x2="-60" x1="-30" style="fill:none;"/><line y2="-22.48" y1="-22.48" x2="-57.9793" x1="-32.0207" style="fill:none;"/><line y2="0" y1="25.98" x2="-75" x1="-60" style="fill:none;"/><line y2="-0.0001" y1="22.48" x2="-70.9585" x1="-57.9793" style="fill:none;"/><line y2="0" y1="-25.98" x2="-75" x1="-60" style="fill:none;"/><line y2="-25.98" y1="0" x2="30" x1="15" style="fill:none;"/><line y2="-22.48" y1="0.0001" x2="32.0207" x1="19.0415" style="fill:none;"/><line y2="25.98" y1="0" x2="30" x1="15" style="fill:none;"/><line y2="-25.98" y1="-25.98" x2="60" x1="30" style="fill:none;"/><line y2="25.98" y1="25.98" x2="60" x1="30" style="fill:none;"/><line y2="22.48" y1="22.48" x2="57.9793" x1="32.0207" style="fill:none;"/><line y2="0" y1="-25.98" x2="75" x1="60" style="fill:none;"/><line y2="0.0001" y1="-22.48" x2="70.9585" x1="57.9793" style="fill:none;"/><line y2="0" y1="25.98" x2="75" x1="60" style="fill:none;"/></g><g transform="translate(141,81)" style="fill:rgb(230,0,0); text-rendering:geometricPrecision; color-rendering:optimizeQuality; image-rendering:optimizeQuality; font-family:'Open Sans'; stroke:rgb(230,0,0); color-interpolation:linearRGB;"><path style="stroke:none;" d="M-71.0625 51.8927 Q-71.0625 53.9552 -72.1016 55.1349 Q-73.1406 56.3146 -74.9844 56.3146 Q-76.875 56.3146 -77.9062 55.1505 Q-78.9375 53.9864 -78.9375 51.8771 Q-78.9375 49.7833 -77.9062 48.6349 Q-76.875 47.4864 -74.9844 47.4864 Q-73.125 47.4864 -72.0938 48.6583 Q-71.0625 49.8302 -71.0625 51.8927 ZM-77.8906 51.8927 Q-77.8906 53.6271 -77.1484 54.5333 Q-76.4062 55.4396 -74.9844 55.4396 Q-73.5625 55.4396 -72.8359 54.5411 Q-72.1094 53.6427 -72.1094 51.8927 Q-72.1094 50.1583 -72.8359 49.2677 Q-73.5625 48.3771 -74.9844 48.3771 Q-76.4062 48.3771 -77.1484 49.2755 Q-77.8906 50.1739 -77.8906 51.8927 Z"/><path style="stroke:none;" d="M78.9375 -52.0333 Q78.9375 -49.9708 77.8984 -48.7911 Q76.8594 -47.6114 75.0156 -47.6114 Q73.125 -47.6114 72.0938 -48.7755 Q71.0625 -49.9396 71.0625 -52.0489 Q71.0625 -54.1427 72.0938 -55.2911 Q73.125 -56.4396 75.0156 -56.4396 Q76.875 -56.4396 77.9062 -55.2677 Q78.9375 -54.0958 78.9375 -52.0333 ZM72.1094 -52.0333 Q72.1094 -50.2989 72.8516 -49.3927 Q73.5938 -48.4864 75.0156 -48.4864 Q76.4375 -48.4864 77.1641 -49.3849 Q77.8906 -50.2833 77.8906 -52.0333 Q77.8906 -53.7677 77.1641 -54.6583 Q76.4375 -55.5489 75.0156 -55.5489 Q73.5938 -55.5489 72.8516 -54.6505 Q72.1094 -53.7521 72.1094 -52.0333 Z"/><path style="fill:rgb(0,5,255); stroke:none;" d="M-101.6484 4.1562 L-102.7891 4.1562 L-107.4766 -3.0312 L-107.5234 -3.0312 Q-107.4297 -1.7656 -107.4297 -0.7188 L-107.4297 4.1562 L-108.3516 4.1562 L-108.3516 -4.4062 L-107.2266 -4.4062 L-102.5547 2.75 L-102.5078 2.75 Q-102.5078 2.5938 -102.5547 1.7344 Q-102.6016 0.875 -102.5859 0.5 L-102.5859 -4.4062 L-101.6484 -4.4062 L-101.6484 4.1562 Z"/><path style="fill:black; stroke:none;" d="M-98.5078 -2.8344 L-96.8984 -2.8344 L-96.8984 -2.2875 L-98.5078 -2.2875 L-98.5078 -0.6313 L-99.0391 -0.6313 L-99.0391 -2.2875 L-100.6484 -2.2875 L-100.6484 -2.8344 L-99.0391 -2.8344 L-99.0391 -4.5063 L-98.5078 -4.5063 L-98.5078 -2.8344 Z"/><path style="fill:rgb(0,5,255); stroke:none;" d="M-131.6484 4.1562 L-132.7891 4.1562 L-137.4766 -3.0312 L-137.5234 -3.0312 Q-137.4297 -1.7656 -137.4297 -0.7188 L-137.4297 4.1562 L-138.3516 4.1562 L-138.3516 -4.4062 L-137.2266 -4.4062 L-132.5547 2.75 L-132.5078 2.75 Q-132.5078 2.5938 -132.5547 1.7344 Q-132.6016 0.875 -132.5859 0.5 L-132.5859 -4.4062 L-131.6484 -4.4062 L-131.6484 4.1562 Z"/><path style="fill:rgb(0,5,255); stroke:none;" d="M108.3516 4.1562 L107.2109 4.1562 L102.5234 -3.0312 L102.4766 -3.0312 Q102.5703 -1.7656 102.5703 -0.7188 L102.5703 4.1562 L101.6484 4.1562 L101.6484 -4.4062 L102.7734 -4.4062 L107.4453 2.75 L107.4922 2.75 Q107.4922 2.5938 107.4453 1.7344 Q107.3984 0.875 107.4141 0.5 L107.4141 -4.4062 L108.3516 -4.4062 L108.3516 4.1562 Z"/><path style="fill:black; stroke:none;" d="M111.4922 -2.8344 L113.1016 -2.8344 L113.1016 -2.2875 L111.4922 -2.2875 L111.4922 -0.6313 L110.9609 -0.6313 L110.9609 -2.2875 L109.3516 -2.2875 L109.3516 -2.8344 L110.9609 -2.8344 L110.9609 -4.5063 L111.4922 -4.5063 L111.4922 -2.8344 Z"/><path style="fill:rgb(0,5,255); stroke:none;" d="M138.3516 4.1562 L137.2109 4.1562 L132.5234 -3.0312 L132.4766 -3.0312 Q132.5703 -1.7656 132.5703 -0.7188 L132.5703 4.1562 L131.6484 4.1562 L131.6484 -4.4062 L132.7734 -4.4062 L137.4453 2.75 L137.4922 2.75 Q137.4922 2.5938 137.4453 1.7344 Q137.3984 0.875 137.4141 0.5 L137.4141 -4.4062 L138.3516 -4.4062 L138.3516 4.1562 Z"/></g><g transform="translate(141,81)" style="stroke-linecap:butt; text-rendering:geometricPrecision; color-rendering:optimizeQuality; image-rendering:optimizeQuality; font-family:'Open Sans'; color-interpolation:linearRGB; stroke-miterlimit:5;"><path style="fill:none;" d="M-15.25 0.433 L-15 0 L-15.25 -0.433"/><path style="fill:none;" d="M-29.75 25.547 L-30 25.98 L-30.5 25.98"/><path style="fill:none;" d="M-29.75 -25.547 L-30 -25.98 L-30.5 -25.98"/><path style="fill:none;" d="M-60.25 25.547 L-60 25.98 L-60.25 26.413"/><path style="fill:none;" d="M-59.5 -25.98 L-60 -25.98 L-60.25 -25.547"/><path style="fill:none;" d="M-74.75 0.433 L-75 0 L-75.5 -0"/><path style="fill:none;" d="M15.25 -0.433 L15 0 L14.5 -0"/><path style="fill:none;" d="M29.75 -25.547 L30 -25.98 L30.5 -25.98"/><path style="fill:none;" d="M29.75 25.547 L30 25.98 L30.5 25.98"/><path style="fill:none;" d="M60.25 -25.547 L60 -25.98 L60.25 -26.413"/><path style="fill:none;" d="M59.5 25.98 L60 25.98 L60.25 25.547"/><path style="fill:none;" d="M74.75 -0.433 L75 0 L75.5 0"/></g></g></svg></svg><svg y="162" x="118" class="cas-substance-saf"><svg y="5" x="0" width="4" style="fill:black;" height="4" class="cas-substance-saf-dot"><circle stroke="none" r="2" fill="black" cy="2" cx="2"/></svg><svg y="0" x="7" width="12" style="fill:black;" height="15" class="cas-substance-saf-coefficient"><svg><g><g transform="translate(6,7)" style="text-rendering:geometricPrecision; font-family:'Open Sans'; color-interpolation:linearRGB; color-rendering:optimizeQuality; image-rendering:optimizeQuality;"><path style="stroke:none;" d="M2.8125 4.2188 L-2.8125 4.2188 L-2.8125 3.375 L-0.5625 1.1094 Q0.4688 0.0625 0.7969 -0.3828 Q1.125 -0.8281 1.2891 -1.25 Q1.4531 -1.6719 1.4531 -2.1562 Q1.4531 -2.8438 1.0391 -3.2422 Q0.625 -3.6406 -0.125 -3.6406 Q-0.6562 -3.6406 -1.1328 -3.4609 Q-1.6094 -3.2812 -2.1875 -2.8281 L-2.7031 -3.4844 Q-1.5312 -4.4688 -0.125 -4.4688 Q1.0781 -4.4688 1.7656 -3.8516 Q2.4531 -3.2344 2.4531 -2.1875 Q2.4531 -1.375 1.9922 -0.5781 Q1.5312 0.2188 0.2812 1.4375 L-1.5938 3.2656 L-1.5938 3.3125 L2.8125 3.3125 L2.8125 4.2188 Z"/></g></g></svg></svg><svg y="0" x="23" width="19" style="fill:black;" height="15" class="cas-substance-saf-image"><svg><g><g transform="translate(7,8)" style="fill:rgb(0,138,0); text-rendering:geometricPrecision; color-rendering:optimizeQuality; image-rendering:optimizeQuality; font-family:'Open Sans'; stroke:rgb(0,138,0); color-interpolation:linearRGB;"><path style="stroke:none;" d="M-0.3086 -3.3594 Q-1.7148 -3.3594 -2.5352 -2.4219 Q-3.3555 -1.4844 -3.3555 0.1562 Q-3.3555 1.8281 -2.5664 2.75 Q-1.7773 3.6719 -0.3242 3.6719 Q0.582 3.6719 1.7227 3.3438 L1.7227 4.2188 Q0.832 4.5625 -0.4648 4.5625 Q-2.3555 4.5625 -3.3867 3.4062 Q-4.418 2.25 -4.418 0.1406 Q-4.418 -1.1875 -3.9258 -2.1797 Q-3.4336 -3.1719 -2.4961 -3.7109 Q-1.5586 -4.25 -0.293 -4.25 Q1.0508 -4.25 2.0664 -3.7656 L1.6445 -2.9062 Q0.6602 -3.3594 -0.3086 -3.3594 ZM4.418 4.4375 L3.4492 4.4375 L3.4492 -4.6875 L4.418 -4.6875 L4.418 4.4375 Z"/><path style="fill:black; stroke:none;" d="M5.418 -2.4781 L5.418 -3.0719 L8.7773 -3.0719 L8.7773 -2.4781 L5.418 -2.4781 Z"/></g></g></svg></svg></svg></svg></svg>