<svg xmlns:ns0="http://www.w3.org/2000/svg" xmlns="http://www.w3.org/2000/svg"><g transform="translate(0, 0)"><ns0:svg width="215" viewBox="0 0 215 67" style="fill-opacity:1; color-rendering:auto; color-interpolation:auto; text-rendering:auto; stroke:black; stroke-linecap:square; stroke-miterlimit:10; shape-rendering:auto; stroke-opacity:1; fill:black; stroke-dasharray:none; font-weight:normal; stroke-width:1; font-family:'Open Sans'; font-style:normal; stroke-linejoin:miter; font-size:12; stroke-dashoffset:0; image-rendering:auto;" height="67" class="cas-substance-image"><ns0:svg class="cas-substance-single-component"><ns0:rect y="0" x="0" width="215" stroke="none" ry="7" rx="7" height="67" fill="white" class="cas-substance-group" /><ns0:svg y="0" x="0" width="215" viewBox="0 0 215 67" style="fill:black;" height="67" class="cas-substance-single-component-image"><ns0:svg><ns0:g><ns0:g transform="translate(107,34)" style="text-rendering:geometricPrecision; color-rendering:optimizeQuality; color-interpolation:linearRGB; stroke-linecap:butt; image-rendering:optimizeQuality;"><ns0:line y2="-17.511" y1="-30" x2="-4.3491" x1="-25.98" style="fill:none;" /><ns0:line y2="-15" y1="-30" x2="-51.963" x1="-25.98" style="fill:none;" /><ns0:line y2="-30" y1="-17.3781" x2="25.98" x1="4.1189" style="fill:none;" /><ns0:line y2="8.5234" y1="-8.6562" x2="-1.75" x1="-1.75" style="fill:none;" /><ns0:line y2="8.5234" y1="-8.6562" x2="1.75" x1="1.75" style="fill:none;" /><ns0:line y2="-15" y1="-30" x2="51.963" x1="25.98" style="fill:none;" /><ns0:line y2="-30" y1="-15" x2="-77.943" x1="-51.963" style="fill:none;" /><ns0:line y2="-25.9585" y1="-12.9793" x2="-77.9431" x1="-55.463" style="fill:none;" /><ns0:line y2="15" y1="-15" x2="-51.963" x1="-51.963" style="fill:none;" /><ns0:line y2="-15" y1="-30" x2="-103.923" x1="-77.943" style="fill:none;" /><ns0:line y2="30" y1="15" x2="-77.943" x1="-51.963" style="fill:none;" /><ns0:line y2="25.9585" y1="12.9793" x2="-77.9431" x1="-55.463" style="fill:none;" /><ns0:line y2="15" y1="-15" x2="-103.923" x1="-103.923" style="fill:none;" /><ns0:line y2="12.9793" y1="-12.9793" x2="-100.423" x1="-100.423" style="fill:none;" /><ns0:line y2="15" y1="30" x2="-103.923" x1="-77.943" style="fill:none;" /><ns0:line y2="-30" y1="-15" x2="77.943" x1="51.963" style="fill:none;" /><ns0:line y2="-25.9585" y1="-12.9793" x2="77.9431" x1="55.463" style="fill:none;" /><ns0:line y2="15" y1="-15" x2="51.963" x1="51.963" style="fill:none;" /><ns0:line y2="-15" y1="-30" x2="103.923" x1="77.943" style="fill:none;" /><ns0:line y2="30" y1="15" x2="77.943" x1="51.963" style="fill:none;" /><ns0:line y2="25.9585" y1="12.9793" x2="77.9431" x1="55.463" style="fill:none;" /><ns0:line y2="15" y1="-15" x2="103.923" x1="103.923" style="fill:none;" /><ns0:line y2="12.9793" y1="-12.9793" x2="100.423" x1="100.423" style="fill:none;" /><ns0:line y2="15" y1="30" x2="103.923" x1="77.943" style="fill:none;" /><ns0:path style="fill:none; stroke-miterlimit:5;" d="M-25.547 -29.75 L-25.98 -30 L-26.413 -29.75" /></ns0:g><ns0:g transform="translate(107,34)" style="stroke-linecap:butt; fill:rgb(148,108,0); text-rendering:geometricPrecision; color-rendering:optimizeQuality; image-rendering:optimizeQuality; font-family:'Open Sans'; stroke:rgb(148,108,0); color-interpolation:linearRGB; stroke-miterlimit:5;"><ns0:path style="stroke:none;" d="M2.6953 -13.0625 Q2.6953 -11.9375 1.875 -11.2969 Q1.0547 -10.6562 -0.3516 -10.6562 Q-1.8828 -10.6562 -2.6953 -11.0625 L-2.6953 -12.0156 Q-2.1641 -11.7969 -1.5469 -11.6641 Q-0.9297 -11.5312 -0.3203 -11.5312 Q0.6797 -11.5312 1.1797 -11.9141 Q1.6797 -12.2969 1.6797 -12.9688 Q1.6797 -13.4062 1.5 -13.6953 Q1.3203 -13.9844 0.9062 -14.2266 Q0.4922 -14.4688 -0.3672 -14.7656 Q-1.5547 -15.1875 -2.0703 -15.7734 Q-2.5859 -16.3594 -2.5859 -17.3125 Q-2.5859 -18.2969 -1.8438 -18.8828 Q-1.1016 -19.4688 0.1328 -19.4688 Q1.3984 -19.4688 2.4766 -19 L2.1641 -18.1406 Q1.1016 -18.5781 0.1016 -18.5781 Q-0.6953 -18.5781 -1.1406 -18.2422 Q-1.5859 -17.9062 -1.5859 -17.2969 Q-1.5859 -16.8594 -1.4219 -16.5703 Q-1.2578 -16.2812 -0.8672 -16.0469 Q-0.4766 -15.8125 0.3359 -15.5156 Q1.6797 -15.0469 2.1875 -14.4922 Q2.6953 -13.9375 2.6953 -13.0625 Z" /><ns0:path style="fill:none; stroke:black;" d="M25.547 -29.75 L25.98 -30 L26.413 -29.75" /><ns0:path style="fill:rgb(230,0,0); stroke:none;" d="M3.9375 14.9297 Q3.9375 16.9922 2.8984 18.1719 Q1.8594 19.3516 0.0156 19.3516 Q-1.875 19.3516 -2.9062 18.1875 Q-3.9375 17.0234 -3.9375 14.9141 Q-3.9375 12.8203 -2.9062 11.6719 Q-1.875 10.5234 0.0156 10.5234 Q1.875 10.5234 2.9062 11.6953 Q3.9375 12.8672 3.9375 14.9297 ZM-2.8906 14.9297 Q-2.8906 16.6641 -2.1484 17.5703 Q-1.4062 18.4766 0.0156 18.4766 Q1.4375 18.4766 2.1641 17.5781 Q2.8906 16.6797 2.8906 14.9297 Q2.8906 13.1953 2.1641 12.3047 Q1.4375 11.4141 0.0156 11.4141 Q-1.4062 11.4141 -2.1484 12.3125 Q-2.8906 13.2109 -2.8906 14.9297 Z" /><ns0:path style="fill:none; stroke:black;" d="M-52.396 -15.25 L-51.963 -15 L-51.53 -15.25" /><ns0:path style="fill:none; stroke:black;" d="M-77.51 -29.75 L-77.943 -30 L-78.376 -29.75" /><ns0:path style="fill:none; stroke:black;" d="M-51.963 14.5 L-51.963 15 L-52.396 15.25" /><ns0:path style="fill:none; stroke:black;" d="M-103.49 -15.25 L-103.923 -15 L-103.923 -14.5" /><ns0:path style="fill:none; stroke:black;" d="M-77.51 29.75 L-77.943 30 L-78.376 29.75" /><ns0:path style="fill:none; stroke:black;" d="M-103.923 14.5 L-103.923 15 L-103.49 15.25" /><ns0:path style="fill:none; stroke:black;" d="M52.396 -15.25 L51.963 -15 L51.963 -14.5" /><ns0:path style="fill:none; stroke:black;" d="M77.51 -29.75 L77.943 -30 L78.376 -29.75" /><ns0:path style="fill:none; stroke:black;" d="M51.963 14.5 L51.963 15 L52.396 15.25" /><ns0:path style="fill:none; stroke:black;" d="M103.49 -15.25 L103.923 -15 L103.923 -14.5" /><ns0:path style="fill:none; stroke:black;" d="M77.51 29.75 L77.943 30 L78.376 29.75" /><ns0:path style="fill:none; stroke:black;" d="M103.923 14.5 L103.923 15 L103.49 15.25" /></ns0:g></ns0:g></ns0:svg></ns0:svg></ns0:svg></ns0:svg></g></svg>