<svg width="156" viewBox="0 0 156 236" style="fill-opacity:1; color-rendering:auto; color-interpolation:auto; text-rendering:auto; stroke:black; stroke-linecap:square; stroke-miterlimit:10; shape-rendering:auto; stroke-opacity:1; fill:black; stroke-dasharray:none; font-weight:normal; stroke-width:1; font-family:'Open Sans'; font-style:normal; stroke-linejoin:miter; font-size:12; stroke-dashoffset:0; image-rendering:auto;" height="236" class="cas-substance-image" xmlns:xlink="http://www.w3.org/1999/xlink" xmlns="http://www.w3.org/2000/svg"><svg class="cas-substance-single-component"><rect y="0" x="0" width="156" stroke="none" ry="7" rx="7" height="236" fill="white" class="cas-substance-group"/><svg y="0" x="0" width="156" viewBox="0 0 156 236" style="fill:black;" height="236" class="cas-substance-single-component-image"><svg><g><clipPath id="clipPath_859a735e7b1542d78326f7a6bae11e851" clipPathUnits="userSpaceOnUse"><path d="M-692.2358 -528.9691 L-692.2358 -522.9691 L-726.9575 -522.9691 L-726.9575 -528.9691 ZM-729.9202 -567.2082 L-729.9202 -478.0432 L-689.9202 -478.0432 L-689.9202 -567.2082 Z"/></clipPath><clipPath id="clipPath_859a735e7b1542d78326f7a6bae11e852" clipPathUnits="userSpaceOnUse"><path d="M-693.0987 -441.3507 L-693.0987 -435.3507 L-727.8203 -435.3507 L-727.8203 -441.3507 ZM-729.8813 -485.7453 L-730.7768 -397.2279 L-690.7789 -396.8232 L-689.8834 -485.3407 L-729.8813 -485.7453 Z"/></clipPath><g transform="translate(769,619)" style="text-rendering:geometricPrecision; color-rendering:optimizeQuality; color-interpolation:linearRGB; stroke-linecap:butt; image-rendering:optimizeQuality;"><line y2="-540.6166" y1="-541.8492" x2="-667.6695" x1="-661.835" style="fill:none;"/><line y2="-550.6454" y1="-545.403" x2="-643.6133" x1="-652.7079" style="fill:none;"/><line y2="-527.177" y1="-538.5266" x2="-657.1594" x1="-657.1594" style="fill:none;"/><path style="stroke:none;" d="M-709.6705 -578.685 L-710.1699 -579.5513 L-702.3238 -586.9598 L-699.3273 -581.7615 Z"/><line y2="-586.9266" y1="-579.1182" x2="-723.4664" x1="-709.9202" style="fill:none;"/><line y2="-569.9269" y1="-579.1182" x2="-709.9202" x1="-709.9202" style="fill:none;"/><line y2="-579.1182" y1="-585.1208" x2="-682.828" x1="-693.2415" style="fill:none;"/><line y2="-602.5866" y1="-593.3329" x2="-696.3741" x1="-696.3741" style="fill:none;"/><line y2="-586.9266" y1="-579.1182" x2="-669.2819" x1="-682.828" style="fill:none;"/><line y2="-565.5721" y1="-579.1182" x2="-674.9764" x1="-682.828" style="fill:none;"/><line y2="-565.5721" y1="-579.1182" x2="-690.6364" x1="-682.828" style="fill:none;"/><line y2="-610.3951" y1="-602.5866" x2="-682.828" x1="-696.3741" style="fill:none;"/><line y2="-616.1328" y1="-602.5866" x2="-704.1826" x1="-696.3741" style="fill:none;"/><line y2="-602.5866" y1="-602.5866" x2="-711.991" x1="-696.3741" style="fill:none;"/><line y2="-534.6404" y1="-486.7045" x2="-675.6878" x1="-706.7389" style="fill:none;"/><line y2="-557.1144" y1="-487.8797" x2="-709.9202" x1="-709.9202" style="fill:none; clip-path:url(#clipPath_859a735e7b1542d78326f7a6bae11e851);"/><line y2="-519.8758" y1="-487.3214" x2="-697.9078" x1="-708.1765" style="fill:none;"/><line y2="-533.8052" y1="-487.8866" x2="-743.0294" x1="-713.7991" style="fill:none;"/><line y2="-519.7101" y1="-488.1147" x2="-721.325" x1="-711.8216" style="fill:none;"/><line y2="-430.2041" y1="-475.9195" x2="-743.923" x1="-713.7916" style="fill:none;"/><line y2="-429.825" y1="-475.8293" x2="-676.5317" x1="-706.0886" style="fill:none;"/><line y2="-444.2632" y1="-475.6052" x2="-698.6277" x1="-708.0583" style="fill:none;"/><line y2="-444.7212" y1="-475.664" x2="-721.9954" x1="-711.9166" style="fill:none;"/><line y2="-407.244" y1="-475.5431" x2="-710.6745" x1="-709.9835" style="fill:none; clip-path:url(#clipPath_859a735e7b1542d78326f7a6bae11e852);"/><line y2="-560.5521" y1="-542.5834" x2="-705.3588" x1="-677.1547" style="fill:none;"/><line y2="-528.617" y1="-536.7184" x2="-691.4191" x1="-677.4467" style="fill:none;"/><line y2="-543.9955" y1="-561.7626" x2="-743.1584" x1="-715.7527" style="fill:none;"/><line y2="-541.0586" y1="-558.8257" x2="-741.2545" x1="-713.8488" style="fill:none;"/><line y2="-527.7191" y1="-527.7191" x2="-718.353" x1="-701.228" style="fill:none;"/><line y2="-524.2191" y1="-524.2191" x2="-718.353" x1="-701.228" style="fill:none;"/><line y2="-528.7464" y1="-536.9326" x2="-727.9974" x1="-742.1161" style="fill:none;"/><line y2="-435.4628" y1="-428.6635" x2="-729.0419" x1="-740.7471" style="fill:none;"/><line y2="-403.804" y1="-421.7569" x2="-715.3948" x1="-742.9873" style="fill:none;"/><line y2="-435.6907" y1="-427.4878" x2="-692.2441" x1="-678.0448" style="fill:none;"/><line y2="-405.1372" y1="-423.0603" x2="-707.1616" x1="-679.0981" style="fill:none;"/><line y2="-402.1874" y1="-420.1106" x2="-705.2777" x1="-677.2142" style="fill:none;"/><line y2="-440.1007" y1="-440.1007" x2="-719.2158" x1="-702.0909" style="fill:none;"/><line y2="-436.6007" y1="-436.6007" x2="-719.2158" x1="-702.0909" style="fill:none;"/><line y2="-566.5643" y1="-550.6454" x2="-638.1344" x1="-643.6133" style="fill:none;"/><line y2="-563.5146" y1="-551.4171" x2="-635.4825" x1="-639.6462" style="fill:none;"/><line y2="-544.1673" y1="-550.6454" x2="-635.2535" x1="-643.6133" style="fill:none;"/><line y2="-566.5643" y1="-566.5643" x2="-621.0076" x1="-638.1344" style="fill:none;"/><line y2="-550.6454" y1="-544.0345" x2="-616.0896" x1="-625.0597" style="fill:none;"/><line y2="-550.6454" y1="-566.5643" x2="-616.0896" x1="-621.0076" style="fill:none;"/><line y2="-551.543" y1="-563.6005" x2="-620.0302" x1="-623.7552" style="fill:none;"/><line y2="-516.7802" y1="-527.177" x2="-643.7427" x1="-657.1594" style="fill:none;"/><line y2="-515.2513" y1="-523.1727" x2="-647.4838" x1="-657.706" style="fill:none;"/><line y2="-520.5733" y1="-527.177" x2="-666.0922" x1="-657.1594" style="fill:none;"/><line y2="-500.9044" y1="-516.7802" x2="-649.2215" x1="-643.7427" style="fill:none;"/><line y2="-500.9044" y1="-510.5167" x2="-666.3483" x1="-669.2999" style="fill:none;"/><line y2="-500.9044" y1="-500.9044" x2="-666.3483" x1="-649.2215" style="fill:none;"/><line y2="-504.4044" y1="-504.4044" x2="-664.3276" x1="-651.2422" style="fill:none;"/><path style="stroke:none;" d="M-697.1125 -532.092 L-698.0784 -531.8326 L-701.3033 -534.2023 L-695.5087 -535.7585 Z"/><path style="stroke:none;" d="M-721.0057 -532.2397 L-721.9715 -532.4991 L-723.6847 -535.7585 L-717.89 -534.2023 Z"/></g><g transform="translate(769,619)" style="fill:rgb(111,5,255); text-rendering:geometricPrecision; color-rendering:optimizeQuality; image-rendering:optimizeQuality; font-family:'Open Sans'; stroke:rgb(111,5,255); color-interpolation:linearRGB;"><path style="stroke:none;" d="M-654.4407 -544.7589 Q-654.4407 -543.4464 -655.3313 -542.751 Q-656.2219 -542.0557 -657.8625 -542.0557 L-658.8782 -542.0557 L-658.8782 -538.6807 L-659.8782 -538.6807 L-659.8782 -547.2432 L-657.6438 -547.2432 Q-654.4407 -547.2432 -654.4407 -544.7589 ZM-658.8782 -542.8995 L-657.9719 -542.8995 Q-656.6594 -542.8995 -656.0657 -543.3292 Q-655.4719 -543.7589 -655.4719 -544.712 Q-655.4719 -545.5557 -656.0266 -545.9698 Q-656.5813 -546.3839 -657.7688 -546.3839 L-658.8782 -546.3839 L-658.8782 -542.8995 Z"/></g><g transform="translate(769,619)" style="font-size:8.4px; fill:gray; text-rendering:geometricPrecision; image-rendering:optimizeQuality; color-rendering:optimizeQuality; font-family:'Open Sans'; font-style:italic; stroke:gray; color-interpolation:linearRGB;"><path style="stroke:none;" d="M-714.3088 -587.9541 Q-714.3088 -589.2822 -713.8401 -590.4072 Q-713.3713 -591.5322 -712.3401 -592.6104 L-711.7307 -592.6104 Q-712.6995 -591.5479 -713.1838 -590.376 Q-713.6682 -589.2041 -713.6682 -587.9697 Q-713.6682 -586.6416 -713.2307 -585.626 L-713.7463 -585.626 Q-714.3088 -586.6572 -714.3088 -587.9541 ZM-710.7488 -589.2666 L-711.2488 -586.8916 L-711.905 -586.8916 L-710.7019 -592.6104 L-709.4519 -592.6104 Q-707.7175 -592.6104 -707.7175 -591.1729 Q-707.7175 -589.8135 -709.155 -589.4229 L-708.2175 -586.8916 L-708.9363 -586.8916 L-709.7644 -589.2666 L-710.7488 -589.2666 ZM-710.1707 -592.0166 Q-710.5613 -590.0947 -710.6238 -589.8447 L-709.9675 -589.8447 Q-709.2175 -589.8447 -708.8113 -590.1729 Q-708.405 -590.501 -708.405 -591.126 Q-708.405 -591.5947 -708.6628 -591.8057 Q-708.9207 -592.0166 -709.5144 -592.0166 L-710.1707 -592.0166 ZM-705.5316 -590.2666 Q-705.5316 -588.9385 -706.0081 -587.8057 Q-706.4847 -586.6729 -707.5003 -585.626 L-708.1097 -585.626 Q-706.1722 -587.7822 -706.1722 -590.2666 Q-706.1722 -591.5947 -706.6097 -592.6104 L-706.0941 -592.6104 Q-705.5316 -591.5479 -705.5316 -590.2666 Z"/></g><g transform="translate(769,619)" style="fill:rgb(111,5,255); text-rendering:geometricPrecision; color-rendering:optimizeQuality; image-rendering:optimizeQuality; font-family:'Open Sans'; stroke:rgb(111,5,255); color-interpolation:linearRGB;"><path style="stroke:none;" d="M-693.6553 -588.8485 Q-693.6553 -587.536 -694.546 -586.8407 Q-695.4366 -586.1454 -697.0772 -586.1454 L-698.0928 -586.1454 L-698.0928 -582.7704 L-699.0928 -582.7704 L-699.0928 -591.3329 L-696.8585 -591.3329 Q-693.6553 -591.3329 -693.6553 -588.8485 ZM-698.0928 -586.9891 L-697.1866 -586.9891 Q-695.8741 -586.9891 -695.2803 -587.4188 Q-694.6866 -587.8485 -694.6866 -588.8016 Q-694.6866 -589.6454 -695.2413 -590.0594 Q-695.796 -590.4735 -696.9835 -590.4735 L-698.0928 -590.4735 L-698.0928 -586.9891 Z"/><path style="fill:black; stroke:none;" d="M-714.4857 -477.6369 L-715.4857 -477.6369 L-715.4857 -486.1994 L-710.7044 -486.1994 L-710.7044 -485.3244 L-714.4857 -485.3244 L-714.4857 -482.1838 L-710.9388 -482.1838 L-710.9388 -481.2932 L-714.4857 -481.2932 L-714.4857 -477.6369 ZM-706.7142 -477.5119 Q-708.136 -477.5119 -708.9642 -478.3869 Q-709.7923 -479.2619 -709.7923 -480.7932 Q-709.7923 -482.3557 -709.0267 -483.2697 Q-708.261 -484.1838 -706.9642 -484.1838 Q-705.761 -484.1838 -705.0579 -483.3869 Q-704.3548 -482.5901 -704.3548 -481.2932 L-704.3548 -480.6682 L-708.7767 -480.6682 Q-708.7454 -479.5432 -708.2064 -478.9572 Q-707.6673 -478.3713 -706.6829 -478.3713 Q-705.6517 -478.3713 -704.636 -478.8088 L-704.636 -477.9338 Q-705.1517 -477.7151 -705.6126 -477.6135 Q-706.0735 -477.5119 -706.7142 -477.5119 ZM-706.9798 -483.3557 Q-707.761 -483.3557 -708.222 -482.8557 Q-708.6829 -482.3557 -708.761 -481.4651 L-705.4017 -481.4651 Q-705.4017 -482.3869 -705.8079 -482.8713 Q-706.2142 -483.3557 -706.9798 -483.3557 Z"/><path style="fill:black; stroke:none;" d="M-699.6048 -481.501 L-703.3548 -481.501 L-703.3548 -482.0635 L-701.8548 -483.5791 Q-701.1673 -484.2666 -700.9485 -484.5635 Q-700.7298 -484.8604 -700.6204 -485.1416 Q-700.511 -485.4229 -700.511 -485.751 Q-700.511 -486.2041 -700.7845 -486.4698 Q-701.0579 -486.7354 -701.5579 -486.7354 Q-701.9017 -486.7354 -702.222 -486.6182 Q-702.5423 -486.501 -702.9329 -486.2041 L-703.2767 -486.6416 Q-702.4954 -487.2979 -701.5579 -487.2979 Q-700.761 -487.2979 -700.3001 -486.8838 Q-699.8392 -486.4698 -699.8392 -485.7823 Q-699.8392 -485.2354 -700.1439 -484.7041 Q-700.4485 -484.1729 -701.2923 -483.3604 L-702.5423 -482.1416 L-702.5423 -482.1104 L-699.6048 -482.1104 L-699.6048 -481.501 Z"/><path style="fill:black; stroke:none;" d="M-696.4642 -484.6651 L-694.8548 -484.6651 L-694.8548 -484.1182 L-696.4642 -484.1182 L-696.4642 -482.4619 L-696.9954 -482.4619 L-696.9954 -484.1182 L-698.6048 -484.1182 L-698.6048 -484.6651 L-696.9954 -484.6651 L-696.9954 -486.3369 L-696.4642 -486.3369 L-696.4642 -484.6651 Z"/><path style="fill:black; stroke:none;" d="M-671.6071 -543.1796 Q-673.0133 -543.1796 -673.8336 -542.2421 Q-674.6539 -541.3046 -674.6539 -539.664 Q-674.6539 -537.9921 -673.8649 -537.0703 Q-673.0758 -536.1484 -671.6227 -536.1484 Q-670.7164 -536.1484 -669.5758 -536.4765 L-669.5758 -535.6015 Q-670.4664 -535.2578 -671.7633 -535.2578 Q-673.6539 -535.2578 -674.6852 -536.414 Q-675.7164 -537.5703 -675.7164 -539.6796 Q-675.7164 -541.0078 -675.2242 -541.9999 Q-674.7321 -542.9921 -673.7946 -543.5312 Q-672.8571 -544.0703 -671.5914 -544.0703 Q-670.2477 -544.0703 -669.2321 -543.5859 L-669.6539 -542.7265 Q-670.6383 -543.1796 -671.6071 -543.1796 Z"/><path style="fill:black; stroke:none;" d="M-668.4039 -541.9484 L-668.4039 -542.5421 L-665.0446 -542.5421 L-665.0446 -541.9484 L-668.4039 -541.9484 Z"/></g><g transform="translate(769,619)" style="font-size:8.4px; fill:gray; text-rendering:geometricPrecision; image-rendering:optimizeQuality; color-rendering:optimizeQuality; font-family:'Open Sans'; font-style:italic; stroke:gray; color-interpolation:linearRGB;"><path style="stroke:none;" d="M-674.9353 -549.0588 Q-674.9353 -550.387 -674.4666 -551.512 Q-673.9978 -552.637 -672.9666 -553.7151 L-672.3572 -553.7151 Q-673.3259 -552.6526 -673.8103 -551.4807 Q-674.2947 -550.3088 -674.2947 -549.0745 Q-674.2947 -547.7463 -673.8572 -546.7307 L-674.3728 -546.7307 Q-674.9353 -547.762 -674.9353 -549.0588 ZM-671.3752 -550.3713 L-671.8752 -547.9963 L-672.5315 -547.9963 L-671.3284 -553.7151 L-670.0784 -553.7151 Q-668.344 -553.7151 -668.344 -552.2776 Q-668.344 -550.9182 -669.7815 -550.5276 L-668.844 -547.9963 L-669.5627 -547.9963 L-670.3909 -550.3713 L-671.3752 -550.3713 ZM-670.7971 -553.1213 Q-671.1877 -551.1995 -671.2502 -550.9495 L-670.594 -550.9495 Q-669.844 -550.9495 -669.4377 -551.2776 Q-669.0315 -551.6057 -669.0315 -552.2307 Q-669.0315 -552.6995 -669.2893 -552.9104 Q-669.5471 -553.1213 -670.1409 -553.1213 L-670.7971 -553.1213 ZM-666.158 -551.3713 Q-666.158 -550.0432 -666.6346 -548.9104 Q-667.1111 -547.7776 -668.1268 -546.7307 L-668.7361 -546.7307 Q-666.7986 -548.887 -666.7986 -551.3713 Q-666.7986 -552.6995 -667.2361 -553.7151 L-666.7205 -553.7151 Q-666.158 -552.6526 -666.158 -551.3713 Z"/></g><g transform="translate(769,619)" style="text-rendering:geometricPrecision; font-family:'Open Sans'; color-interpolation:linearRGB; color-rendering:optimizeQuality; image-rendering:optimizeQuality;"><path style="stroke:none;" d="M-709.053 -567.0363 Q-710.4593 -567.0363 -711.2796 -566.0988 Q-712.0999 -565.1613 -712.0999 -563.5207 Q-712.0999 -561.8488 -711.3109 -560.9269 Q-710.5218 -560.0051 -709.0687 -560.0051 Q-708.1624 -560.0051 -707.0218 -560.3332 L-707.0218 -559.4582 Q-707.9124 -559.1144 -709.2093 -559.1144 Q-711.0999 -559.1144 -712.1312 -560.2707 Q-713.1624 -561.4269 -713.1624 -563.5363 Q-713.1624 -564.8644 -712.6702 -565.8566 Q-712.178 -566.8488 -711.2405 -567.3879 Q-710.303 -567.9269 -709.0374 -567.9269 Q-707.6937 -567.9269 -706.678 -567.4426 L-707.0999 -566.5832 Q-708.0843 -567.0363 -709.053 -567.0363 Z"/></g><g transform="translate(769,619)" style="font-size:8.4px; fill:gray; text-rendering:geometricPrecision; image-rendering:optimizeQuality; color-rendering:optimizeQuality; font-family:'Open Sans'; font-style:italic; stroke:gray; color-interpolation:linearRGB;"><path style="stroke:none;" d="M-704.8101 -567.3124 Q-704.8101 -568.6406 -704.3414 -569.7656 Q-703.8726 -570.8906 -702.8414 -571.9687 L-702.232 -571.9687 Q-703.2007 -570.9062 -703.6851 -569.7343 Q-704.1695 -568.5624 -704.1695 -567.3281 Q-704.1695 -565.9999 -703.732 -564.9843 L-704.2476 -564.9843 Q-704.8101 -566.0156 -704.8101 -567.3124 ZM-699.1876 -567.9062 Q-699.1876 -567.0781 -699.7344 -566.6249 Q-700.2813 -566.1718 -701.2813 -566.1718 Q-701.6876 -566.1718 -702.0001 -566.2265 Q-702.3126 -566.2812 -702.5938 -566.4218 L-702.5938 -567.0781 Q-701.9688 -566.7499 -701.2657 -566.7499 Q-700.6407 -566.7499 -700.2657 -567.0468 Q-699.8907 -567.3437 -699.8907 -567.8593 Q-699.8907 -568.1718 -700.0938 -568.3984 Q-700.2969 -568.6249 -700.8594 -568.9531 Q-701.4532 -569.2812 -701.6797 -569.6093 Q-701.9063 -569.9374 -701.9063 -570.3906 Q-701.9063 -571.1249 -701.3907 -571.5859 Q-700.8751 -572.0468 -700.0313 -572.0468 Q-699.6563 -572.0468 -699.3204 -571.9687 Q-698.9844 -571.8906 -698.6094 -571.7187 L-698.8751 -571.1249 Q-699.1251 -571.2812 -699.4454 -571.3671 Q-699.7657 -571.4531 -700.0313 -571.4531 Q-700.5626 -571.4531 -700.8829 -571.1796 Q-701.2032 -570.9062 -701.2032 -570.4374 Q-701.2032 -570.2343 -701.1329 -570.0859 Q-701.0626 -569.9374 -700.9219 -569.8046 Q-700.7813 -569.6718 -700.3594 -569.4218 Q-699.7969 -569.0781 -699.5938 -568.8828 Q-699.3907 -568.6874 -699.2891 -568.4531 Q-699.1876 -568.2187 -699.1876 -567.9062 ZM-696.5931 -569.6249 Q-696.5931 -568.2968 -697.0696 -567.164 Q-697.5462 -566.0312 -698.5618 -564.9843 L-699.1712 -564.9843 Q-697.2337 -567.1406 -697.2337 -569.6249 Q-697.2337 -570.9531 -697.6712 -571.9687 L-697.1556 -571.9687 Q-696.5931 -570.9062 -696.5931 -569.6249 Z"/></g><g transform="translate(769,619)" style="text-rendering:geometricPrecision; font-family:'Open Sans'; color-interpolation:linearRGB; color-rendering:optimizeQuality; image-rendering:optimizeQuality;"><path style="stroke:none;" d="M-695.1187 -529.5472 Q-696.5249 -529.5472 -697.3452 -528.6097 Q-698.1655 -527.6722 -698.1655 -526.0316 Q-698.1655 -524.3597 -697.3765 -523.4379 Q-696.5874 -522.516 -695.1343 -522.516 Q-694.228 -522.516 -693.0874 -522.8441 L-693.0874 -521.9691 Q-693.978 -521.6254 -695.2749 -521.6254 Q-697.1655 -521.6254 -698.1968 -522.7816 Q-699.228 -523.9379 -699.228 -526.0472 Q-699.228 -527.3754 -698.7358 -528.3676 Q-698.2437 -529.3597 -697.3062 -529.8988 Q-696.3687 -530.4379 -695.103 -530.4379 Q-693.7593 -530.4379 -692.7437 -529.9535 L-693.1655 -529.0941 Q-694.1499 -529.5472 -695.1187 -529.5472 Z"/></g><g transform="translate(769,619)" style="font-size:8.4px; fill:gray; text-rendering:geometricPrecision; image-rendering:optimizeQuality; color-rendering:optimizeQuality; font-family:'Open Sans'; font-style:italic; stroke:gray; color-interpolation:linearRGB;"><path style="stroke:none;" d="M-691.9498 -518.0555 Q-691.9498 -519.3837 -691.4811 -520.5087 Q-691.0123 -521.6337 -689.9811 -522.7118 L-689.3717 -522.7118 Q-690.3405 -521.6493 -690.8248 -520.4774 Q-691.3092 -519.3055 -691.3092 -518.0712 Q-691.3092 -516.743 -690.8717 -515.7274 L-691.3873 -515.7274 Q-691.9498 -516.7587 -691.9498 -518.0555 ZM-688.3898 -519.368 L-688.8898 -516.993 L-689.546 -516.993 L-688.3429 -522.7118 L-687.0929 -522.7118 Q-685.3585 -522.7118 -685.3585 -521.2743 Q-685.3585 -519.9149 -686.796 -519.5243 L-685.8585 -516.993 L-686.5773 -516.993 L-687.4054 -519.368 L-688.3898 -519.368 ZM-687.8116 -522.118 Q-688.2023 -520.1962 -688.2648 -519.9462 L-687.6085 -519.9462 Q-686.8585 -519.9462 -686.4523 -520.2743 Q-686.046 -520.6024 -686.046 -521.2274 Q-686.046 -521.6962 -686.3038 -521.9071 Q-686.5616 -522.118 -687.1554 -522.118 L-687.8116 -522.118 ZM-683.1725 -520.368 Q-683.1725 -519.0399 -683.6491 -517.9071 Q-684.1257 -516.7743 -685.1413 -515.7274 L-685.7507 -515.7274 Q-683.8132 -517.8837 -683.8132 -520.368 Q-683.8132 -521.6962 -684.2507 -522.7118 L-683.735 -522.7118 Q-683.1725 -521.6493 -683.1725 -520.368 Z"/></g><g transform="translate(769,619)" style="text-rendering:geometricPrecision; font-family:'Open Sans'; color-interpolation:linearRGB; color-rendering:optimizeQuality; image-rendering:optimizeQuality;"><path style="stroke:none;" d="M-745.8519 -543.1796 Q-747.2582 -543.1796 -748.0785 -542.2421 Q-748.8988 -541.3046 -748.8988 -539.664 Q-748.8988 -537.9921 -748.1097 -537.0703 Q-747.3207 -536.1484 -745.8676 -536.1484 Q-744.9613 -536.1484 -743.8207 -536.4765 L-743.8207 -535.6015 Q-744.7113 -535.2578 -746.0082 -535.2578 Q-747.8988 -535.2578 -748.9301 -536.414 Q-749.9613 -537.5703 -749.9613 -539.6796 Q-749.9613 -541.0078 -749.4691 -541.9999 Q-748.9769 -542.9921 -748.0394 -543.5312 Q-747.1019 -544.0703 -745.8363 -544.0703 Q-744.4926 -544.0703 -743.4769 -543.5859 L-743.8988 -542.7265 Q-744.8832 -543.1796 -745.8519 -543.1796 Z"/><path style="stroke:none;" d="M-750.9613 -535.3828 L-751.9613 -535.3828 L-751.9613 -539.414 L-756.4769 -539.414 L-756.4769 -535.3828 L-757.4769 -535.3828 L-757.4769 -543.9453 L-756.4769 -543.9453 L-756.4769 -540.3046 L-751.9613 -540.3046 L-751.9613 -543.9453 L-750.9613 -543.9453 L-750.9613 -535.3828 Z"/></g><g transform="translate(769,619)" style="font-size:8.4px; fill:gray; text-rendering:geometricPrecision; image-rendering:optimizeQuality; color-rendering:optimizeQuality; font-family:'Open Sans'; font-style:italic; stroke:gray; color-interpolation:linearRGB;"><path style="stroke:none;" d="M-765.9873 -541.6989 Q-765.9873 -543.027 -765.5186 -544.152 Q-765.0498 -545.277 -764.0186 -546.3552 L-763.4092 -546.3552 Q-764.3779 -545.2927 -764.8623 -544.1208 Q-765.3467 -542.9489 -765.3467 -541.7145 Q-765.3467 -540.3864 -764.9092 -539.3708 L-765.4248 -539.3708 Q-765.9873 -540.402 -765.9873 -541.6989 ZM-760.3647 -542.2927 Q-760.3647 -541.4645 -760.9116 -541.0114 Q-761.4585 -540.5583 -762.4585 -540.5583 Q-762.8647 -540.5583 -763.1772 -540.613 Q-763.4897 -540.6677 -763.771 -540.8083 L-763.771 -541.4645 Q-763.146 -541.1364 -762.4429 -541.1364 Q-761.8179 -541.1364 -761.4429 -541.4333 Q-761.0679 -541.7302 -761.0679 -542.2458 Q-761.0679 -542.5583 -761.271 -542.7849 Q-761.4741 -543.0114 -762.0366 -543.3395 Q-762.6304 -543.6677 -762.8569 -543.9958 Q-763.0835 -544.3239 -763.0835 -544.777 Q-763.0835 -545.5114 -762.5679 -545.9724 Q-762.0522 -546.4333 -761.2085 -546.4333 Q-760.8335 -546.4333 -760.4976 -546.3552 Q-760.1616 -546.277 -759.7866 -546.1052 L-760.0522 -545.5114 Q-760.3022 -545.6677 -760.6226 -545.7536 Q-760.9429 -545.8395 -761.2085 -545.8395 Q-761.7397 -545.8395 -762.0601 -545.5661 Q-762.3804 -545.2927 -762.3804 -544.8239 Q-762.3804 -544.6208 -762.3101 -544.4724 Q-762.2397 -544.3239 -762.0991 -544.1911 Q-761.9585 -544.0583 -761.5366 -543.8083 Q-760.9741 -543.4645 -760.771 -543.2692 Q-760.5679 -543.0739 -760.4663 -542.8395 Q-760.3647 -542.6052 -760.3647 -542.2927 ZM-757.7703 -544.0114 Q-757.7703 -542.6833 -758.2468 -541.5505 Q-758.7234 -540.4177 -759.739 -539.3708 L-760.3484 -539.3708 Q-758.4109 -541.527 -758.4109 -544.0114 Q-758.4109 -545.3395 -758.8484 -546.3552 L-758.3328 -546.3552 Q-757.7703 -545.2927 -757.7703 -544.0114 Z"/></g><g transform="translate(769,619)" style="text-rendering:geometricPrecision; font-family:'Open Sans'; color-interpolation:linearRGB; color-rendering:optimizeQuality; image-rendering:optimizeQuality;"><path style="stroke:none;" d="M-722.3403 -529.5472 Q-723.7466 -529.5472 -724.5669 -528.6097 Q-725.3872 -527.6722 -725.3872 -526.0316 Q-725.3872 -524.3597 -724.5981 -523.4379 Q-723.8091 -522.516 -722.356 -522.516 Q-721.4497 -522.516 -720.3091 -522.8441 L-720.3091 -521.9691 Q-721.1997 -521.6254 -722.4966 -521.6254 Q-724.3872 -521.6254 -725.4185 -522.7816 Q-726.4497 -523.9379 -726.4497 -526.0472 Q-726.4497 -527.3754 -725.9575 -528.3676 Q-725.4653 -529.3597 -724.5278 -529.8988 Q-723.5903 -530.4379 -722.3247 -530.4379 Q-720.981 -530.4379 -719.9653 -529.9535 L-720.3872 -529.0941 Q-721.3716 -529.5472 -722.3403 -529.5472 Z"/></g><g transform="translate(769,619)" style="font-size:8.4px; fill:gray; text-rendering:geometricPrecision; image-rendering:optimizeQuality; color-rendering:optimizeQuality; font-family:'Open Sans'; font-style:italic; stroke:gray; color-interpolation:linearRGB;"><path style="stroke:none;" d="M-736.0657 -518.1121 Q-736.0657 -519.4402 -735.5969 -520.5652 Q-735.1282 -521.6902 -734.0969 -522.7683 L-733.4875 -522.7683 Q-734.4563 -521.7058 -734.9407 -520.5339 Q-735.425 -519.3621 -735.425 -518.1277 Q-735.425 -516.7996 -734.9875 -515.7839 L-735.5032 -515.7839 Q-736.0657 -516.8152 -736.0657 -518.1121 ZM-732.5056 -519.4246 L-733.0056 -517.0496 L-733.6619 -517.0496 L-732.4587 -522.7683 L-731.2087 -522.7683 Q-729.4744 -522.7683 -729.4744 -521.3308 Q-729.4744 -519.9714 -730.9119 -519.5808 L-729.9744 -517.0496 L-730.6931 -517.0496 L-731.5212 -519.4246 L-732.5056 -519.4246 ZM-731.9275 -522.1746 Q-732.3181 -520.2527 -732.3806 -520.0027 L-731.7244 -520.0027 Q-730.9744 -520.0027 -730.5681 -520.3308 Q-730.1619 -520.6589 -730.1619 -521.2839 Q-730.1619 -521.7527 -730.4197 -521.9636 Q-730.6775 -522.1746 -731.2712 -522.1746 L-731.9275 -522.1746 ZM-727.2884 -520.4246 Q-727.2884 -519.0964 -727.765 -517.9636 Q-728.2415 -516.8308 -729.2571 -515.7839 L-729.8665 -515.7839 Q-727.929 -517.9402 -727.929 -520.4246 Q-727.929 -521.7527 -728.3665 -522.7683 L-727.8509 -522.7683 Q-727.2884 -521.7058 -727.2884 -520.4246 Z"/></g><g transform="translate(769,619)" style="text-rendering:geometricPrecision; font-family:'Open Sans'; color-interpolation:linearRGB; color-rendering:optimizeQuality; image-rendering:optimizeQuality;"><path style="stroke:none;" d="M-746.6716 -428.2964 Q-748.0778 -428.2964 -748.8981 -427.3589 Q-749.7184 -426.4214 -749.7184 -424.7808 Q-749.7184 -423.1089 -748.9294 -422.1871 Q-748.1403 -421.2652 -746.6872 -421.2652 Q-745.7809 -421.2652 -744.6403 -421.5933 L-744.6403 -420.7183 Q-745.5309 -420.3746 -746.8278 -420.3746 Q-748.7184 -420.3746 -749.7497 -421.5308 Q-750.7809 -422.6871 -750.7809 -424.7964 Q-750.7809 -426.1246 -750.2888 -427.1168 Q-749.7966 -428.1089 -748.8591 -428.648 Q-747.9216 -429.1871 -746.6559 -429.1871 Q-745.3122 -429.1871 -744.2966 -428.7027 L-744.7184 -427.8433 Q-745.7028 -428.2964 -746.6716 -428.2964 Z"/><path style="stroke:none;" d="M-751.7809 -420.4996 L-752.7809 -420.4996 L-752.7809 -424.5308 L-757.2966 -424.5308 L-757.2966 -420.4996 L-758.2966 -420.4996 L-758.2966 -429.0621 L-757.2966 -429.0621 L-757.2966 -425.4214 L-752.7809 -425.4214 L-752.7809 -429.0621 L-751.7809 -429.0621 L-751.7809 -420.4996 Z"/><path style="stroke:none;" d="M-743.4684 -427.0652 L-743.4684 -427.6589 L-740.1091 -427.6589 L-740.1091 -427.0652 L-743.4684 -427.0652 Z"/><path style="stroke:none;" d="M-672.3836 -428.2964 Q-673.7899 -428.2964 -674.6102 -427.3589 Q-675.4305 -426.4214 -675.4305 -424.7808 Q-675.4305 -423.1089 -674.6414 -422.1871 Q-673.8524 -421.2652 -672.3992 -421.2652 Q-671.493 -421.2652 -670.3524 -421.5933 L-670.3524 -420.7183 Q-671.243 -420.3746 -672.5399 -420.3746 Q-674.4305 -420.3746 -675.4617 -421.5308 Q-676.493 -422.6871 -676.493 -424.7964 Q-676.493 -426.1246 -676.0008 -427.1168 Q-675.5086 -428.1089 -674.5711 -428.648 Q-673.6336 -429.1871 -672.368 -429.1871 Q-671.0242 -429.1871 -670.0086 -428.7027 L-670.4305 -427.8433 Q-671.4149 -428.2964 -672.3836 -428.2964 Z"/><path style="stroke:none;" d="M-662.493 -420.4996 L-663.493 -420.4996 L-663.493 -424.5308 L-668.0086 -424.5308 L-668.0086 -420.4996 L-669.0086 -420.4996 L-669.0086 -429.0621 L-668.0086 -429.0621 L-668.0086 -425.4214 L-663.493 -425.4214 L-663.493 -429.0621 L-662.493 -429.0621 L-662.493 -420.4996 Z"/><path style="stroke:none;" d="M-695.9815 -441.9289 Q-697.3878 -441.9289 -698.2081 -440.9914 Q-699.0284 -440.0539 -699.0284 -438.4132 Q-699.0284 -436.7414 -698.2393 -435.8195 Q-697.4503 -434.8976 -695.9971 -434.8976 Q-695.0909 -434.8976 -693.9503 -435.2257 L-693.9503 -434.3507 Q-694.8409 -434.007 -696.1378 -434.007 Q-698.0284 -434.007 -699.0596 -435.1632 Q-700.0909 -436.3195 -700.0909 -438.4289 Q-700.0909 -439.757 -699.5987 -440.7492 Q-699.1065 -441.7414 -698.169 -442.2804 Q-697.2315 -442.8195 -695.9659 -442.8195 Q-694.6221 -442.8195 -693.6065 -442.3351 L-694.0284 -441.4757 Q-695.0128 -441.9289 -695.9815 -441.9289 Z"/><path style="stroke:none;" d="M-693.5909 -424.4445 L-694.5909 -424.4445 L-694.5909 -428.4757 L-699.1065 -428.4757 L-699.1065 -424.4445 L-700.1065 -424.4445 L-700.1065 -433.007 L-699.1065 -433.007 L-699.1065 -429.3664 L-694.5909 -429.3664 L-694.5909 -433.007 L-693.5909 -433.007 L-693.5909 -424.4445 Z"/><path style="stroke:none;" d="M-723.2031 -441.9289 Q-724.6094 -441.9289 -725.4297 -440.9914 Q-726.25 -440.0539 -726.25 -438.4132 Q-726.25 -436.7414 -725.4609 -435.8195 Q-724.6719 -434.8976 -723.2188 -434.8976 Q-722.3125 -434.8976 -721.1719 -435.2257 L-721.1719 -434.3507 Q-722.0625 -434.007 -723.3594 -434.007 Q-725.25 -434.007 -726.2812 -435.1632 Q-727.3125 -436.3195 -727.3125 -438.4289 Q-727.3125 -439.757 -726.8203 -440.7492 Q-726.3281 -441.7414 -725.3906 -442.2804 Q-724.4531 -442.8195 -723.1875 -442.8195 Q-721.8438 -442.8195 -720.8281 -442.3351 L-721.25 -441.4757 Q-722.2344 -441.9289 -723.2031 -441.9289 Z"/><path style="stroke:none;" d="M-720.8125 -424.4445 L-721.8125 -424.4445 L-721.8125 -428.4757 L-726.3281 -428.4757 L-726.3281 -424.4445 L-727.3281 -424.4445 L-727.3281 -433.007 L-726.3281 -433.007 L-726.3281 -429.3664 L-721.8125 -429.3664 L-721.8125 -433.007 L-720.8125 -433.007 L-720.8125 -424.4445 Z"/><path style="stroke:none;" d="M-709.8727 -404.3535 Q-711.279 -404.3535 -712.0993 -403.416 Q-712.9196 -402.4785 -712.9196 -400.8379 Q-712.9196 -399.166 -712.1306 -398.2441 Q-711.3415 -397.3222 -709.8884 -397.3222 Q-708.9821 -397.3222 -707.8415 -397.6504 L-707.8415 -396.7754 Q-708.7321 -396.4316 -710.029 -396.4316 Q-711.9196 -396.4316 -712.9509 -397.5879 Q-713.9821 -398.7441 -713.9821 -400.8535 Q-713.9821 -402.1816 -713.4899 -403.1738 Q-712.9977 -404.166 -712.0602 -404.705 Q-711.1227 -405.2441 -709.8571 -405.2441 Q-708.5134 -405.2441 -707.4977 -404.7597 L-707.9196 -403.9004 Q-708.904 -404.3535 -709.8727 -404.3535 Z"/><path style="stroke:none;" d="M-707.4821 -386.8691 L-708.4821 -386.8691 L-708.4821 -390.9004 L-712.9977 -390.9004 L-712.9977 -386.8691 L-713.9977 -386.8691 L-713.9977 -395.4316 L-712.9977 -395.4316 L-712.9977 -391.791 L-708.4821 -391.791 L-708.4821 -395.4316 L-707.4821 -395.4316 L-707.4821 -386.8691 Z"/><path style="fill:none; stroke-miterlimit:5; stroke-linecap:butt;" d="M-643.4506 -551.1182 L-643.6133 -550.6454 L-644.0464 -550.3958"/><path style="fill:none; stroke-miterlimit:5; stroke-linecap:butt;" d="M-638.2971 -566.0916 L-638.1344 -566.5643 L-637.6344 -566.5643"/></g><g transform="translate(769,619)" style="stroke-linecap:butt; fill:rgb(230,0,0); text-rendering:geometricPrecision; color-rendering:optimizeQuality; image-rendering:optimizeQuality; font-family:'Open Sans'; stroke:rgb(230,0,0); color-interpolation:linearRGB; stroke-miterlimit:5;"><path style="stroke:none;" d="M-626.2591 -540.3189 Q-626.2591 -538.2564 -627.2982 -537.0767 Q-628.3372 -535.897 -630.181 -535.897 Q-632.0716 -535.897 -633.1028 -537.0611 Q-634.1341 -538.2252 -634.1341 -540.3345 Q-634.1341 -542.4283 -633.1028 -543.5767 Q-632.0716 -544.7252 -630.181 -544.7252 Q-628.3216 -544.7252 -627.2903 -543.5533 Q-626.2591 -542.3814 -626.2591 -540.3189 ZM-633.0872 -540.3189 Q-633.0872 -538.5845 -632.345 -537.6783 Q-631.6028 -536.772 -630.181 -536.772 Q-628.7591 -536.772 -628.0325 -537.6705 Q-627.306 -538.5689 -627.306 -540.3189 Q-627.306 -542.0533 -628.0325 -542.9439 Q-628.7591 -543.8345 -630.181 -543.8345 Q-631.6028 -543.8345 -632.345 -542.9361 Q-633.0872 -542.0377 -633.0872 -540.3189 Z"/><path style="fill:none; stroke:black;" d="M-621.5076 -566.5643 L-621.0076 -566.5643 L-620.86 -566.0866"/><path style="fill:none; stroke:black;" d="M-616.4921 -550.3488 L-616.0896 -550.6454 L-616.2372 -551.1232"/><path style="fill:none; stroke:black;" d="M-656.7642 -526.8707 L-657.1594 -527.177 L-657.1594 -527.677"/><path style="fill:none; stroke:black;" d="M-644.1379 -517.0864 L-643.7427 -516.7802 L-643.9058 -516.3075"/><path style="stroke:none;" d="M-667.2856 -516.8505 Q-667.2856 -514.788 -668.3247 -513.6083 Q-669.3638 -512.4286 -671.2075 -512.4286 Q-673.0981 -512.4286 -674.1294 -513.5927 Q-675.1606 -514.7567 -675.1606 -516.8661 Q-675.1606 -518.9598 -674.1294 -520.1083 Q-673.0981 -521.2567 -671.2075 -521.2567 Q-669.3481 -521.2567 -668.3169 -520.0848 Q-667.2856 -518.913 -667.2856 -516.8505 ZM-674.1138 -516.8505 Q-674.1138 -515.1161 -673.3716 -514.2098 Q-672.6294 -513.3036 -671.2075 -513.3036 Q-669.7856 -513.3036 -669.0591 -514.202 Q-668.3325 -515.1005 -668.3325 -516.8505 Q-668.3325 -518.5848 -669.0591 -519.4755 Q-669.7856 -520.3661 -671.2075 -520.3661 Q-672.6294 -520.3661 -673.3716 -519.4677 Q-674.1138 -518.5692 -674.1138 -516.8505 Z"/><path style="fill:none; stroke:black;" d="M-649.0584 -501.3771 L-649.2215 -500.9044 L-649.7215 -500.9044"/><path style="fill:none; stroke:black;" d="M-666.4951 -501.3824 L-666.3483 -500.9044 L-665.8483 -500.9044"/><path style="fill:black; stroke:none;" d="M-696.7832 -536.912 L-697.7832 -536.912 L-697.7832 -540.9432 L-702.2988 -540.9432 L-702.2988 -536.912 L-703.2988 -536.912 L-703.2988 -545.4745 L-702.2988 -545.4745 L-702.2988 -541.8339 L-697.7832 -541.8339 L-697.7832 -545.4745 L-696.7832 -545.4745 L-696.7832 -536.912 Z"/><path style="fill:black; stroke:none;" d="M-715.8945 -536.912 L-716.8945 -536.912 L-716.8945 -540.9432 L-721.4102 -540.9432 L-721.4102 -536.912 L-722.4102 -536.912 L-722.4102 -545.4745 L-721.4102 -545.4745 L-721.4102 -541.8339 L-716.8945 -541.8339 L-716.8945 -545.4745 L-715.8945 -545.4745 L-715.8945 -536.912 Z"/></g></g></svg></svg></svg></svg>