<svg width="195" viewBox="0 0 195 234" style="fill-opacity:1; color-rendering:auto; color-interpolation:auto; text-rendering:auto; stroke:black; stroke-linecap:square; stroke-miterlimit:10; shape-rendering:auto; stroke-opacity:1; fill:black; stroke-dasharray:none; font-weight:normal; stroke-width:1; font-family:'Open Sans'; font-style:normal; stroke-linejoin:miter; font-size:12; stroke-dashoffset:0; image-rendering:auto;" height="234" class="cas-substance-image" xmlns:xlink="http://www.w3.org/1999/xlink" xmlns="http://www.w3.org/2000/svg"><svg class="cas-substance-single-component"><rect y="0" x="0" width="195" stroke="none" ry="7" rx="7" height="234" fill="white" class="cas-substance-group"/><svg y="0" x="0" width="195" viewBox="0 0 195 202" style="fill:black;" height="202" class="cas-substance-single-component-image"><svg><g><clipPath id="clipPath_0354fcf5c3c84ade983827a79a0dc5ec1" clipPathUnits="userSpaceOnUse"><path d="M-916.4926 -840.2867 L-924.0286 -819.4669 L-922.428 -822.2153 L-895.0721 -806.2847 L-898.0916 -801.0997 L-925.004 -816.7722 L-940.7794 -773.189 L-903.1675 -759.5749 L-878.8806 -826.6726 L-916.4926 -840.2867 Z"/></clipPath><g transform="translate(1069,884)" style="text-rendering:geometricPrecision; color-rendering:optimizeQuality; color-interpolation:linearRGB; stroke-linecap:butt; image-rendering:optimizeQuality;"><line y2="-712.1342" y1="-723.247" x2="-943.1682" x1="-962.4465" style="fill:none;"/><line y2="-739.3776" y1="-723.247" x2="-962.4465" x1="-962.4465" style="fill:none;"/><line y2="-720.0617" y1="-712.1342" x2="-929.4155" x1="-943.1682" style="fill:none;"/><line y2="-696.324" y1="-713.143" x2="-944.9182" x1="-944.9182" style="fill:none;"/><line y2="-696.324" y1="-713.143" x2="-941.4182" x1="-941.4182" style="fill:none;"/><line y2="-769.9081" y1="-758.734" x2="-1042.8141" x1="-1023.5357" style="fill:none;"/><line y2="-766.9625" y1="-758.734" x2="-1009.3392" x1="-1023.5357" style="fill:none;"/><line y2="-762.6823" y1="-769.9081" x2="-1055.2806" x1="-1042.8141" style="fill:none;"/><line y2="-785.8433" y1="-768.8937" x2="-1041.0641" x1="-1041.0641" style="fill:none;"/><line y2="-785.8433" y1="-768.8937" x2="-1044.5641" x1="-1044.5641" style="fill:none;"/><line y2="-853.3756" y1="-870.2017" x2="-942.4622" x1="-942.4622" style="fill:none;"/><line y2="-853.3062" y1="-870.2017" x2="-938.9622" x1="-938.9622" style="fill:none;"/><line y2="-806.5945" y1="-815.0229" x2="-901.5656" x1="-886.9438" style="fill:none;"/><line y2="-803.5594" y1="-811.9905" x2="-899.8224" x1="-885.1959" style="fill:none;"/><line y2="-803.5594" y1="-812.0007" x2="-1025.132" x1="-1039.7761" style="fill:none;"/><line y2="-806.5945" y1="-815.0331" x2="-1023.3889" x1="-1038.0283" style="fill:none;"/><line y2="-772.8732" y1="-789.6137" x2="-925.7759" x1="-954.4498" style="fill:none;"/><line y2="-751.9401" y1="-787.9387" x2="-962.4465" x1="-962.4465" style="fill:none;"/><line y2="-772.8692" y1="-790.1757" x2="-999.1779" x1="-969.4911" style="fill:none;"/><line y2="-836.6183" y1="-800.4347" x2="-961.6991" x1="-962.3379" style="fill:none;"/><line y2="-814.6069" y1="-800.8041" x2="-926.2668" x1="-950.8371" style="fill:none;"/><line y2="-814.6202" y1="-798.3182" x2="-998.7031" x1="-969.6412" style="fill:none;"/><line y2="-745.5338" y1="-763.7518" x2="-920.6971" x1="-920.6971" style="fill:none;"/><line y2="-782.0646" y1="-772.8663" x2="-899.8224" x1="-915.6173" style="fill:none;"/><line y2="-829.9536" y1="-776.1949" x2="-898.9629" x1="-918.4215" style="fill:none; clip-path:url(#clipPath_0354fcf5c3c84ade983827a79a0dc5ec1);"/><line y2="-733.3773" y1="-742.5756" x2="-941.5718" x1="-957.3666" style="fill:none;"/><line y2="-733.3773" y1="-742.5756" x2="-983.3212" x1="-967.5263" style="fill:none;"/><line y2="-745.5338" y1="-763.7518" x2="-1004.2573" x1="-1004.2573" style="fill:none;"/><line y2="-782.0646" y1="-772.8663" x2="-1025.132" x1="-1009.3371" style="fill:none;"/><line y2="-854.3278" y1="-846.8708" x2="-940.7122" x1="-954.4171" style="fill:none;"/><line y2="-805.5793" y1="-814.5382" x2="-899.8224" x1="-915.2064" style="fill:none;"/><line y2="-805.5793" y1="-814.528" x2="-1025.132" x1="-1009.7655" style="fill:none;"/><line y2="-733.3773" y1="-745.5338" x2="-941.5718" x1="-920.6971" style="fill:none;"/><line y2="-805.5793" y1="-782.0646" x2="-899.8224" x1="-899.8224" style="fill:none;"/><line y2="-854.3278" y1="-829.9536" x2="-940.7122" x1="-898.9629" style="fill:none;"/><line y2="-745.5338" y1="-733.3773" x2="-1004.2573" x1="-983.3212" style="fill:none;"/><line y2="-805.5793" y1="-782.0646" x2="-1025.132" x1="-1025.132" style="fill:none;"/><path style="fill:none; stroke-miterlimit:5;" d="M-962.0133 -722.9973 L-962.4465 -723.247 L-962.4465 -723.747"/><path style="fill:none; stroke-miterlimit:5;" d="M-943.6013 -712.3839 L-943.1682 -712.1342 L-942.735 -712.3839"/></g><g transform="translate(1069,884)" style="stroke-linecap:butt; fill:rgb(230,0,0); text-rendering:geometricPrecision; color-rendering:optimizeQuality; image-rendering:optimizeQuality; font-family:'Open Sans'; stroke:rgb(230,0,0); color-interpolation:linearRGB; stroke-miterlimit:5;"><path style="stroke:none;" d="M-919.9521 -723.3173 Q-919.9521 -721.2548 -920.9912 -720.0751 Q-922.0303 -718.8954 -923.874 -718.8954 Q-925.7646 -718.8954 -926.7959 -720.0595 Q-927.8271 -721.2236 -927.8271 -723.3329 Q-927.8271 -725.4267 -926.7959 -726.5751 Q-925.7646 -727.7236 -923.874 -727.7236 Q-922.0146 -727.7236 -920.9834 -726.5517 Q-919.9521 -725.3798 -919.9521 -723.3173 ZM-926.7803 -723.3173 Q-926.7803 -721.5829 -926.0381 -720.6767 Q-925.2959 -719.7704 -923.874 -719.7704 Q-922.4521 -719.7704 -921.7256 -720.6689 Q-920.999 -721.5673 -920.999 -723.3173 Q-920.999 -725.0517 -921.7256 -725.9423 Q-922.4521 -726.8329 -923.874 -726.8329 Q-925.2959 -726.8329 -926.0381 -725.9345 Q-926.7803 -725.0361 -926.7803 -723.3173 Z"/><path style="fill:black; stroke:none;" d="M-918.9521 -725.5986 L-918.9521 -726.1923 L-915.5928 -726.1923 L-915.5928 -725.5986 L-918.9521 -725.5986 Z"/><path style="stroke:none;" d="M-939.2307 -689.9178 Q-939.2307 -687.8553 -940.2697 -686.6756 Q-941.3088 -685.4959 -943.1525 -685.4959 Q-945.0432 -685.4959 -946.0744 -686.66 Q-947.1057 -687.824 -947.1057 -689.9334 Q-947.1057 -692.0272 -946.0744 -693.1756 Q-945.0432 -694.324 -943.1525 -694.324 Q-941.2932 -694.324 -940.2619 -693.1522 Q-939.2307 -691.9803 -939.2307 -689.9178 ZM-946.0588 -689.9178 Q-946.0588 -688.1834 -945.3166 -687.2772 Q-944.5744 -686.3709 -943.1525 -686.3709 Q-941.7307 -686.3709 -941.0041 -687.2693 Q-940.2775 -688.1678 -940.2775 -689.9178 Q-940.2775 -691.6522 -941.0041 -692.5428 Q-941.7307 -693.4334 -943.1525 -693.4334 Q-944.5744 -693.4334 -945.3166 -692.535 Q-946.0588 -691.6365 -946.0588 -689.9178 Z"/><path style="fill:none; stroke:black;" d="M-1023.9683 -758.9847 L-1023.5357 -758.734 L-1023.1031 -758.9847"/><path style="fill:none; stroke:black;" d="M-1042.3815 -769.6573 L-1042.8141 -769.9081 L-1043.2467 -769.6573"/><path style="stroke:none;" d="M-1058.155 -758.8043 Q-1058.155 -756.7418 -1059.1941 -755.5621 Q-1060.2332 -754.3824 -1062.0769 -754.3824 Q-1063.9675 -754.3824 -1064.9988 -755.5465 Q-1066.03 -756.7106 -1066.03 -758.8199 Q-1066.03 -760.9137 -1064.9988 -762.0621 Q-1063.9675 -763.2106 -1062.0769 -763.2106 Q-1060.2175 -763.2106 -1059.1863 -762.0387 Q-1058.155 -760.8668 -1058.155 -758.8043 ZM-1064.9832 -758.8043 Q-1064.9832 -757.0699 -1064.241 -756.1637 Q-1063.4988 -755.2574 -1062.0769 -755.2574 Q-1060.655 -755.2574 -1059.9285 -756.1559 Q-1059.2019 -757.0543 -1059.2019 -758.8043 Q-1059.2019 -760.5387 -1059.9285 -761.4293 Q-1060.655 -762.3199 -1062.0769 -762.3199 Q-1063.4988 -762.3199 -1064.241 -761.4215 Q-1064.9832 -760.5231 -1064.9832 -758.8043 Z"/><path style="fill:black; stroke:none;" d="M-1057.155 -761.0856 L-1057.155 -761.6793 L-1053.7957 -761.6793 L-1053.7957 -761.0856 L-1057.155 -761.0856 Z"/><path style="stroke:none;" d="M-1038.8766 -792.2652 Q-1038.8766 -790.2027 -1039.9156 -789.023 Q-1040.9547 -787.8433 -1042.7985 -787.8433 Q-1044.6891 -787.8433 -1045.7203 -789.0074 Q-1046.7516 -790.1714 -1046.7516 -792.2808 Q-1046.7516 -794.3746 -1045.7203 -795.523 Q-1044.6891 -796.6714 -1042.7985 -796.6714 Q-1040.9391 -796.6714 -1039.9078 -795.4996 Q-1038.8766 -794.3277 -1038.8766 -792.2652 ZM-1045.7047 -792.2652 Q-1045.7047 -790.5308 -1044.9625 -789.6246 Q-1044.2203 -788.7183 -1042.7985 -788.7183 Q-1041.3766 -788.7183 -1040.65 -789.6168 Q-1039.9235 -790.5152 -1039.9235 -792.2652 Q-1039.9235 -793.9996 -1040.65 -794.8902 Q-1041.3766 -795.7808 -1042.7985 -795.7808 Q-1044.2203 -795.7808 -1044.9625 -794.8824 Q-1045.7047 -793.9839 -1045.7047 -792.2652 Z"/><path style="stroke:none;" d="M-936.7747 -876.6236 Q-936.7747 -874.5611 -937.8138 -873.3814 Q-938.8528 -872.2017 -940.6966 -872.2017 Q-942.5872 -872.2017 -943.6185 -873.3658 Q-944.6497 -874.5298 -944.6497 -876.6392 Q-944.6497 -878.733 -943.6185 -879.8814 Q-942.5872 -881.0298 -940.6966 -881.0298 Q-938.8372 -881.0298 -937.806 -879.858 Q-936.7747 -878.6861 -936.7747 -876.6236 ZM-943.6028 -876.6236 Q-943.6028 -874.8892 -942.8607 -873.983 Q-942.1185 -873.0767 -940.6966 -873.0767 Q-939.2747 -873.0767 -938.5482 -873.9752 Q-937.8216 -874.8736 -937.8216 -876.6236 Q-937.8216 -878.358 -938.5482 -879.2486 Q-939.2747 -880.1392 -940.6966 -880.1392 Q-942.1185 -880.1392 -942.8607 -879.2408 Q-943.6028 -878.3423 -943.6028 -876.6236 Z"/><path style="stroke:none;" d="M-876.6065 -816.7623 Q-876.6065 -814.6998 -877.6456 -813.5201 Q-878.6846 -812.3404 -880.5284 -812.3404 Q-882.419 -812.3404 -883.4503 -813.5045 Q-884.4815 -814.6685 -884.4815 -816.7779 Q-884.4815 -818.8716 -883.4503 -820.0201 Q-882.419 -821.1685 -880.5284 -821.1685 Q-878.669 -821.1685 -877.6378 -819.9966 Q-876.6065 -818.8248 -876.6065 -816.7623 ZM-883.4346 -816.7623 Q-883.4346 -815.0279 -882.6924 -814.1216 Q-881.9503 -813.2154 -880.5284 -813.2154 Q-879.1065 -813.2154 -878.3799 -814.1138 Q-877.6534 -815.0123 -877.6534 -816.7623 Q-877.6534 -818.4966 -878.3799 -819.3873 Q-879.1065 -820.2779 -880.5284 -820.2779 Q-881.9503 -820.2779 -882.6924 -819.3795 Q-883.4346 -818.481 -883.4346 -816.7623 Z"/><path style="stroke:none;" d="M-1040.4729 -816.7623 Q-1040.4729 -814.6998 -1041.512 -813.5201 Q-1042.551 -812.3404 -1044.3948 -812.3404 Q-1046.2854 -812.3404 -1047.3167 -813.5045 Q-1048.3479 -814.6685 -1048.3479 -816.7779 Q-1048.3479 -818.8716 -1047.3167 -820.0201 Q-1046.2854 -821.1685 -1044.3948 -821.1685 Q-1042.5354 -821.1685 -1041.5042 -819.9966 Q-1040.4729 -818.8248 -1040.4729 -816.7623 ZM-1047.301 -816.7623 Q-1047.301 -815.0279 -1046.5588 -814.1216 Q-1045.8167 -813.2154 -1044.3948 -813.2154 Q-1042.9729 -813.2154 -1042.2463 -814.1138 Q-1041.5198 -815.0123 -1041.5198 -816.7623 Q-1041.5198 -818.4966 -1042.2463 -819.3873 Q-1042.9729 -820.2779 -1044.3948 -820.2779 Q-1045.8167 -820.2779 -1046.5588 -819.3795 Q-1047.301 -818.481 -1047.301 -816.7623 Z"/><path style="fill:black; stroke:none;" d="M-964.6066 -797.8605 Q-966.0129 -797.8605 -966.8332 -796.923 Q-967.6535 -795.9855 -967.6535 -794.3449 Q-967.6535 -792.673 -966.8644 -791.7512 Q-966.0754 -790.8293 -964.6223 -790.8293 Q-963.716 -790.8293 -962.5754 -791.1574 L-962.5754 -790.2824 Q-963.466 -789.9387 -964.7629 -789.9387 Q-966.6535 -789.9387 -967.6848 -791.0949 Q-968.716 -792.2512 -968.716 -794.3605 Q-968.716 -795.6887 -968.2238 -796.6808 Q-967.7316 -797.673 -966.7941 -798.2121 Q-965.8566 -798.7512 -964.591 -798.7512 Q-963.2473 -798.7512 -962.2316 -798.2668 L-962.6535 -797.4074 Q-963.6379 -797.8605 -964.6066 -797.8605 ZM-956.8957 -790.0637 L-957.0988 -790.9855 L-957.1457 -790.9855 Q-957.6144 -790.3762 -958.091 -790.1574 Q-958.5676 -789.9387 -959.2863 -789.9387 Q-960.2394 -789.9387 -960.7863 -790.4387 Q-961.3332 -790.9387 -961.3332 -791.8449 Q-961.3332 -793.7824 -958.2238 -793.8762 L-957.1301 -793.9074 L-957.1301 -794.3137 Q-957.1301 -795.0637 -957.4504 -795.423 Q-957.7707 -795.7824 -958.4894 -795.7824 Q-959.3019 -795.7824 -960.3019 -795.298 L-960.6144 -796.048 Q-960.1301 -796.298 -959.5676 -796.4465 Q-959.0051 -796.5949 -958.4269 -796.5949 Q-957.2863 -796.5949 -956.7316 -796.0871 Q-956.1769 -795.5793 -956.1769 -794.4543 L-956.1769 -790.0637 L-956.8957 -790.0637 ZM-959.0988 -790.7512 Q-958.1926 -790.7512 -957.6691 -791.2512 Q-957.1457 -791.7512 -957.1457 -792.6418 L-957.1457 -793.2199 L-958.1301 -793.1887 Q-959.2863 -793.1418 -959.7941 -792.8215 Q-960.3019 -792.5012 -960.3019 -791.8293 Q-960.3019 -791.298 -959.9894 -791.0246 Q-959.6769 -790.7512 -959.0988 -790.7512 Z"/><path style="fill:black; stroke:none;" d="M-951.4269 -794.0277 L-955.1769 -794.0277 L-955.1769 -794.5902 L-953.6769 -796.1058 Q-952.9894 -796.7933 -952.7707 -797.0902 Q-952.5519 -797.3871 -952.4426 -797.6683 Q-952.3332 -797.9496 -952.3332 -798.2777 Q-952.3332 -798.7308 -952.6066 -798.9965 Q-952.8801 -799.2621 -953.3801 -799.2621 Q-953.7238 -799.2621 -954.0441 -799.1449 Q-954.3644 -799.0277 -954.7551 -798.7308 L-955.0988 -799.1683 Q-954.3176 -799.8246 -953.3801 -799.8246 Q-952.5832 -799.8246 -952.1223 -799.4105 Q-951.6613 -798.9965 -951.6613 -798.309 Q-951.6613 -797.7621 -951.966 -797.2308 Q-952.2707 -796.6996 -953.1144 -795.8871 L-954.3644 -794.6683 L-954.3644 -794.6371 L-951.4269 -794.6371 L-951.4269 -794.0277 Z"/><path style="fill:black; stroke:none;" d="M-948.2863 -797.1918 L-946.6769 -797.1918 L-946.6769 -796.6449 L-948.2863 -796.6449 L-948.2863 -794.9886 L-948.8176 -794.9886 L-948.8176 -796.6449 L-950.4269 -796.6449 L-950.4269 -797.1918 L-948.8176 -797.1918 L-948.8176 -798.8636 L-948.2863 -798.8636 L-948.2863 -797.1918 Z"/><path style="fill:rgb(0,5,255); stroke:none;" d="M-917.3456 -765.7518 L-918.4862 -765.7518 L-923.1737 -772.9393 L-923.2206 -772.9393 Q-923.1268 -771.6737 -923.1268 -770.6268 L-923.1268 -765.7518 L-924.0487 -765.7518 L-924.0487 -774.3143 L-922.9237 -774.3143 L-918.2518 -767.1581 L-918.205 -767.1581 Q-918.205 -767.3143 -918.2518 -768.1737 Q-918.2987 -769.0331 -918.2831 -769.4081 L-918.2831 -774.3143 L-917.3456 -774.3143 L-917.3456 -765.7518 Z"/><path style="fill:rgb(0,5,255); stroke:none;" d="M-959.0949 -741.3776 L-960.2355 -741.3776 L-964.923 -748.5651 L-964.9699 -748.5651 Q-964.8762 -747.2994 -964.8762 -746.2526 L-964.8762 -741.3776 L-965.798 -741.3776 L-965.798 -749.9401 L-964.673 -749.9401 L-960.0012 -742.7838 L-959.9543 -742.7838 Q-959.9543 -742.9401 -960.0012 -743.7994 Q-960.048 -744.6588 -960.0324 -745.0338 L-960.0324 -749.9401 L-959.0949 -749.9401 L-959.0949 -741.3776 Z"/><path style="fill:rgb(0,5,255); stroke:none;" d="M-1000.9057 -765.7518 L-1002.0463 -765.7518 L-1006.7338 -772.9393 L-1006.7807 -772.9393 Q-1006.687 -771.6737 -1006.687 -770.6268 L-1006.687 -765.7518 L-1007.6088 -765.7518 L-1007.6088 -774.3143 L-1006.4838 -774.3143 L-1001.812 -767.1581 L-1001.7651 -767.1581 Q-1001.7651 -767.3143 -1001.812 -768.1737 Q-1001.8588 -769.0331 -1001.8432 -769.4081 L-1001.8432 -774.3143 L-1000.9057 -774.3143 L-1000.9057 -765.7518 Z"/><path style="stroke:none;" d="M-957.6495 -843.0399 Q-957.6495 -840.9774 -958.6885 -839.7977 Q-959.7276 -838.618 -961.5714 -838.618 Q-963.462 -838.618 -964.4932 -839.7821 Q-965.5245 -840.9462 -965.5245 -843.0555 Q-965.5245 -845.1493 -964.4932 -846.2977 Q-963.462 -847.4462 -961.5714 -847.4462 Q-959.712 -847.4462 -958.6807 -846.2743 Q-957.6495 -845.1024 -957.6495 -843.0399 ZM-964.4776 -843.0399 Q-964.4776 -841.3055 -963.7354 -840.3993 Q-962.9932 -839.493 -961.5714 -839.493 Q-960.1495 -839.493 -959.4229 -840.3915 Q-958.6964 -841.2899 -958.6964 -843.0399 Q-958.6964 -844.7743 -959.4229 -845.6649 Q-960.1495 -846.5555 -961.5714 -846.5555 Q-962.9932 -846.5555 -963.7354 -845.6571 Q-964.4776 -844.7587 -964.4776 -843.0399 Z"/><path style="fill:black; stroke:none;" d="M-956.6495 -845.3212 L-956.6495 -845.9149 L-953.2901 -845.9149 L-953.2901 -845.3212 L-956.6495 -845.3212 Z"/><path style="stroke:none;" d="M-916.7596 -817.806 Q-916.7596 -815.7435 -917.7987 -814.5638 Q-918.8378 -813.3842 -920.6815 -813.3842 Q-922.5721 -813.3842 -923.6034 -814.5482 Q-924.6346 -815.7123 -924.6346 -817.8217 Q-924.6346 -819.9154 -923.6034 -821.0638 Q-922.5721 -822.2123 -920.6815 -822.2123 Q-918.8221 -822.2123 -917.7909 -821.0404 Q-916.7596 -819.8685 -916.7596 -817.806 ZM-923.5878 -817.806 Q-923.5878 -816.0717 -922.8456 -815.1654 Q-922.1034 -814.2592 -920.6815 -814.2592 Q-919.2596 -814.2592 -918.5331 -815.1576 Q-917.8065 -816.056 -917.8065 -817.806 Q-917.8065 -819.5404 -918.5331 -820.431 Q-919.2596 -821.3217 -920.6815 -821.3217 Q-922.1034 -821.3217 -922.8456 -820.4232 Q-923.5878 -819.5248 -923.5878 -817.806 Z"/><path style="fill:black; stroke:none;" d="M-915.7596 -820.0873 L-915.7596 -820.681 L-912.4003 -820.681 L-912.4003 -820.0873 L-915.7596 -820.0873 Z"/><path style="stroke:none;" d="M-1000.3198 -817.806 Q-1000.3198 -815.7435 -1001.3588 -814.5638 Q-1002.3979 -813.3842 -1004.2416 -813.3842 Q-1006.1323 -813.3842 -1007.1635 -814.5482 Q-1008.1948 -815.7123 -1008.1948 -817.8217 Q-1008.1948 -819.9154 -1007.1635 -821.0638 Q-1006.1323 -822.2123 -1004.2416 -822.2123 Q-1002.3823 -822.2123 -1001.351 -821.0404 Q-1000.3198 -819.8685 -1000.3198 -817.806 ZM-1007.1479 -817.806 Q-1007.1479 -816.0717 -1006.4057 -815.1654 Q-1005.6635 -814.2592 -1004.2416 -814.2592 Q-1002.8198 -814.2592 -1002.0932 -815.1576 Q-1001.3666 -816.056 -1001.3666 -817.806 Q-1001.3666 -819.5404 -1002.0932 -820.431 Q-1002.8198 -821.3217 -1004.2416 -821.3217 Q-1005.6635 -821.3217 -1006.4057 -820.4232 Q-1007.1479 -819.5248 -1007.1479 -817.806 Z"/><path style="fill:black; stroke:none;" d="M-999.3198 -820.0873 L-999.3198 -820.681 L-995.9604 -820.681 L-995.9604 -820.0873 L-999.3198 -820.0873 Z"/><path style="fill:none; stroke:black;" d="M-920.6971 -746.0338 L-920.6971 -745.5338 L-921.1292 -745.2822"/><path style="fill:none; stroke:black;" d="M-900.2545 -781.8129 L-899.8224 -782.0646 L-899.8224 -782.5646"/><path style="fill:none; stroke:black;" d="M-899.1331 -829.4834 L-898.9629 -829.9536 L-899.3947 -830.2056"/><path style="fill:none; stroke:black;" d="M-942.0038 -733.629 L-941.5718 -733.3773 L-941.1397 -733.629"/><path style="fill:none; stroke:black;" d="M-982.8892 -733.629 L-983.3212 -733.3773 L-983.7536 -733.6284"/><path style="fill:none; stroke:black;" d="M-1004.2573 -746.0338 L-1004.2573 -745.5338 L-1003.8249 -745.2827"/><path style="fill:none; stroke:black;" d="M-1024.6998 -781.8129 L-1025.132 -782.0646 L-1025.132 -782.5646"/><path style="fill:none; stroke:black;" d="M-941.1514 -854.0889 L-940.7122 -854.3278 L-940.2804 -854.0757"/><path style="fill:none; stroke:black;" d="M-900.2545 -805.831 L-899.8224 -805.5793 L-899.8224 -805.0793"/><path style="fill:none; stroke:black;" d="M-1024.6998 -805.831 L-1025.132 -805.5793 L-1025.132 -805.0793"/></g></g></svg></svg><svg y="202" x="74" class="cas-substance-saf"><svg y="5" x="0" width="4" style="fill:black;" height="4" class="cas-substance-saf-dot"><circle stroke="none" r="2" fill="black" cy="2" cx="2"/></svg><svg y="0" x="7" width="12" style="fill:black;" height="15" class="cas-substance-saf-coefficient"><svg><g><g transform="translate(6,7)" style="text-rendering:geometricPrecision; font-family:'Open Sans'; color-interpolation:linearRGB; color-rendering:optimizeQuality; image-rendering:optimizeQuality;"><path style="stroke:none;" d="M2.5391 -2.3281 Q2.5391 -1.5156 2.0781 -0.9922 Q1.6172 -0.4688 0.7734 -0.2969 L0.7734 -0.25 Q1.8047 -0.125 2.3047 0.4062 Q2.8047 0.9375 2.8047 1.7969 Q2.8047 3.0156 1.9531 3.6797 Q1.1016 4.3438 -0.4609 4.3438 Q-1.1328 4.3438 -1.7031 4.2344 Q-2.2734 4.125 -2.8047 3.875 L-2.8047 2.9531 Q-2.2422 3.2188 -1.6094 3.3672 Q-0.9766 3.5156 -0.4141 3.5156 Q1.8047 3.5156 1.8047 1.7656 Q1.8047 0.2031 -0.6484 0.2031 L-1.4922 0.2031 L-1.4922 -0.625 L-0.6328 -0.625 Q0.3672 -0.625 0.9531 -1.0703 Q1.5391 -1.5156 1.5391 -2.2969 Q1.5391 -2.9219 1.1094 -3.2812 Q0.6797 -3.6406 -0.0703 -3.6406 Q-0.6328 -3.6406 -1.125 -3.4844 Q-1.6172 -3.3281 -2.2578 -2.9219 L-2.7578 -3.5781 Q-2.2266 -4 -1.5391 -4.2344 Q-0.8516 -4.4688 -0.0859 -4.4688 Q1.1641 -4.4688 1.8516 -3.8984 Q2.5391 -3.3281 2.5391 -2.3281 Z"/></g></g></svg></svg><svg y="0" x="23" width="24" style="fill:black;" height="15" class="cas-substance-saf-image"><svg><g><g transform="translate(10,8)" style="text-rendering:geometricPrecision; font-family:'Open Sans'; color-interpolation:linearRGB; color-rendering:optimizeQuality; image-rendering:optimizeQuality;"><path style="stroke:none;" d="M-0.0859 4.1562 L-1.2266 4.1562 L-5.9141 -3.0312 L-5.9609 -3.0312 Q-5.8672 -1.7656 -5.8672 -0.7188 L-5.8672 4.1562 L-6.7891 4.1562 L-6.7891 -4.4062 L-5.6641 -4.4062 L-0.9922 2.75 L-0.9453 2.75 Q-0.9453 2.5938 -0.9922 1.7344 Q-1.0391 0.875 -1.0234 0.5 L-1.0234 -4.4062 L-0.0859 -4.4062 L-0.0859 4.1562 ZM6.0703 4.1562 L5.8672 3.2344 L5.8203 3.2344 Q5.3516 3.8438 4.875 4.0625 Q4.3984 4.2812 3.6797 4.2812 Q2.7266 4.2812 2.1797 3.7812 Q1.6328 3.2812 1.6328 2.375 Q1.6328 0.4375 4.7422 0.3438 L5.8359 0.3125 L5.8359 -0.0938 Q5.8359 -0.8438 5.5156 -1.2031 Q5.1953 -1.5625 4.4766 -1.5625 Q3.6641 -1.5625 2.6641 -1.0781 L2.3516 -1.8281 Q2.8359 -2.0781 3.3984 -2.2266 Q3.9609 -2.375 4.5391 -2.375 Q5.6797 -2.375 6.2344 -1.8672 Q6.7891 -1.3594 6.7891 -0.2344 L6.7891 4.1562 L6.0703 4.1562 ZM3.8672 3.4688 Q4.7734 3.4688 5.2969 2.9688 Q5.8203 2.4688 5.8203 1.5781 L5.8203 1 L4.8359 1.0312 Q3.6797 1.0781 3.1719 1.3984 Q2.6641 1.7188 2.6641 2.3906 Q2.6641 2.9219 2.9766 3.1953 Q3.2891 3.4688 3.8672 3.4688 Z"/><path style="stroke:none;" d="M9.9297 -2.8719 L11.5391 -2.8719 L11.5391 -2.325 L9.9297 -2.325 L9.9297 -0.6688 L9.3984 -0.6688 L9.3984 -2.325 L7.7891 -2.325 L7.7891 -2.8719 L9.3984 -2.8719 L9.3984 -4.5437 L9.9297 -4.5437 L9.9297 -2.8719 Z"/></g></g></svg></svg></svg><svg y="217" x="74" class="cas-substance-saf"><svg y="6" x="0" width="4" style="fill:black;" height="4" class="cas-substance-saf-dot"><circle stroke="none" r="2" fill="black" cy="2" cx="2"/></svg><svg y="3" x="7" width="12" style="fill:black;" height="12" class="cas-substance-saf-coefficient"><svg><g><g transform="translate(6,6)" style="text-rendering:geometricPrecision; font-family:'Open Sans'; color-interpolation:linearRGB; color-rendering:optimizeQuality; image-rendering:optimizeQuality;"><path style="stroke:none;" d="M-0.5625 -0.1953 L-2.7969 -3.3359 L-1.6875 -3.3359 L0 -0.8828 L1.6875 -3.3359 L2.7969 -3.3359 L0.5625 -0.1953 L2.9062 3.0859 L1.8125 3.0859 L0 0.4766 L-1.8125 3.0859 L-2.9062 3.0859 L-0.5625 -0.1953 Z"/></g></g></svg></svg><svg y="0" x="23" width="26" style="fill:black;" height="17" class="cas-substance-saf-image"><svg><g><g transform="translate(6,8)" style="fill:rgb(230,0,0); text-rendering:geometricPrecision; color-rendering:optimizeQuality; image-rendering:optimizeQuality; font-family:'Open Sans'; stroke:rgb(230,0,0); color-interpolation:linearRGB;"><path style="stroke:none;" d="M3.2578 4.1562 L2.2578 4.1562 L2.2578 0.125 L-2.2578 0.125 L-2.2578 4.1562 L-3.2578 4.1562 L-3.2578 -4.4062 L-2.2578 -4.4062 L-2.2578 -0.7656 L2.2578 -0.7656 L2.2578 -4.4062 L3.2578 -4.4062 L3.2578 4.1562 Z"/><path style="stroke:none;" d="M8.0078 5.9656 L4.2578 5.9656 L4.2578 5.4031 L5.7578 3.8875 Q6.4453 3.2 6.6641 2.9031 Q6.8828 2.6062 6.9922 2.325 Q7.1016 2.0437 7.1016 1.7156 Q7.1016 1.2625 6.8281 0.9969 Q6.5547 0.7312 6.0547 0.7312 Q5.7109 0.7312 5.3906 0.8484 Q5.0703 0.9656 4.6797 1.2625 L4.3359 0.825 Q5.1172 0.1687 6.0547 0.1687 Q6.8516 0.1687 7.3125 0.5828 Q7.7734 0.9969 7.7734 1.6844 Q7.7734 2.2312 7.4688 2.7625 Q7.1641 3.2937 6.3203 4.1062 L5.0703 5.325 L5.0703 5.3562 L8.0078 5.3562 L8.0078 5.9656 Z"/><path style="stroke:none;" d="M16.8828 -0.1406 Q16.8828 1.9219 15.8438 3.1016 Q14.8047 4.2812 12.9609 4.2812 Q11.0703 4.2812 10.0391 3.1172 Q9.0078 1.9531 9.0078 -0.1562 Q9.0078 -2.25 10.0391 -3.3984 Q11.0703 -4.5469 12.9609 -4.5469 Q14.8203 -4.5469 15.8516 -3.375 Q16.8828 -2.2031 16.8828 -0.1406 ZM10.0547 -0.1406 Q10.0547 1.5938 10.7969 2.5 Q11.5391 3.4062 12.9609 3.4062 Q14.3828 3.4062 15.1094 2.5078 Q15.8359 1.6094 15.8359 -0.1406 Q15.8359 -1.875 15.1094 -2.7656 Q14.3828 -3.6562 12.9609 -3.6562 Q11.5391 -3.6562 10.7969 -2.7578 Q10.0547 -1.8594 10.0547 -0.1406 Z"/></g></g></svg></svg></svg></svg></svg>