<svg width="153" viewBox="0 0 153 145" style="fill-opacity:1; color-rendering:auto; color-interpolation:auto; text-rendering:auto; stroke:black; stroke-linecap:square; stroke-miterlimit:10; shape-rendering:auto; stroke-opacity:1; fill:black; stroke-dasharray:none; font-weight:normal; stroke-width:1; font-family:'Open Sans'; font-style:normal; stroke-linejoin:miter; font-size:12; stroke-dashoffset:0; image-rendering:auto;" height="145" class="cas-substance-image" xmlns:xlink="http://www.w3.org/1999/xlink" xmlns="http://www.w3.org/2000/svg"><svg class="cas-substance-single-component"><rect y="0" x="0" width="153" stroke="none" ry="7" rx="7" height="145" fill="white" class="cas-substance-group"/><svg y="0" x="0" width="153" viewBox="0 0 153 145" style="fill:black;" height="145" class="cas-substance-single-component-image"><svg><g><g transform="translate(82,72)" style="text-rendering:geometricPrecision; color-rendering:optimizeQuality; color-interpolation:linearRGB; stroke-linecap:butt; image-rendering:optimizeQuality;"><line y2="59.2252" y1="38.97" x2="-25.8067" x1="-37.5" style="fill:none;"/><path style="stroke:none;" d="M-23.5098 13.562 L-24.0866 14.3841 L-22.9305 15.0508 L-22.4986 14.1451 L-23.5098 13.562 ZM-25.2402 16.0283 L-25.817 16.8504 L-25.817 16.8504 L-24.2262 17.7677 L-24.2262 17.7677 L-23.7943 16.8621 L-23.7943 16.8621 L-25.2402 16.0283 ZM-26.9706 18.4945 L-27.5474 19.3166 L-25.5219 20.4847 L-25.5219 20.4847 L-25.09 19.579 L-25.09 19.579 L-26.9706 18.4945 ZM-28.701 20.9608 L-29.2778 21.7829 L-29.2778 21.7829 L-26.8176 23.2016 L-26.3857 22.296 L-26.3857 22.296 L-28.701 20.9608 ZM-30.4314 23.427 L-31.0082 24.2491 L-31.0082 24.2491 L-28.1132 25.9186 L-27.6813 25.0129 L-27.6813 25.0129 L-30.4314 23.427 ZM-32.1618 25.8933 L-32.7386 26.7154 L-32.7386 26.7154 L-29.4089 28.6355 L-29.4089 28.6355 L-28.977 27.7299 L-28.977 27.7299 L-32.1618 25.8933 ZM-33.8923 28.3595 L-34.4691 29.1816 L-34.4691 29.1816 L-30.7046 31.3525 L-30.7046 31.3525 L-30.2727 30.4468 L-33.8923 28.3595 ZM-35.6227 30.8258 L-36.1995 31.6479 L-32.0003 34.0694 L-31.5684 33.1638 L-31.5684 33.1638 L-35.6227 30.8258 ZM-37.3531 33.292 L-37.9299 34.1141 L-33.296 36.7864 L-32.8641 35.8807 L-37.3531 33.292 ZM-39.0835 35.7583 L-39.232 35.9699 L-39.232 35.9699 L-38.4899 37.2553 L-38.4899 37.2553 L-34.5916 39.5033 L-34.1598 38.5977 L-39.0835 35.7583 Z"/><path style="stroke:none;" d="M-37.5 -13.49 L-37.5 -12.49 L-61.5625 -9.99 L-61.5625 -15.99 Z"/><line y2="12.99" y1="-7.3543" x2="67.5" x1="55.7539" style="fill:none;"/><path style="stroke:none;" d="M22.5 -12.49 L22.5 -13.49 L46.5625 -15.99 L46.5625 -9.99 Z"/><path style="stroke:none;" d="M-31.3455 -60.1346 L-36.4066 -57.216 L-35.8143 -56.4029 L-30.9376 -59.2152 L-30.9376 -59.2152 L-31.3455 -60.1346 ZM-30.1218 -57.3763 L-34.6297 -54.7767 L-34.0374 -53.9636 L-29.7139 -56.4568 L-29.7139 -56.4568 L-30.1218 -57.3763 ZM-28.8981 -54.6179 L-32.8527 -52.3374 L-32.8527 -52.3374 L-32.2604 -51.5243 L-28.4902 -53.6985 L-28.4902 -53.6985 L-28.8981 -54.6179 ZM-27.6744 -51.8596 L-31.0758 -49.8981 L-31.0758 -49.8981 L-30.4835 -49.085 L-30.4835 -49.085 L-27.2665 -50.9401 L-27.6744 -51.8596 ZM-26.4507 -49.1012 L-29.2988 -47.4588 L-29.2988 -47.4588 L-28.7065 -46.6457 L-28.7065 -46.6457 L-26.0428 -48.1818 L-26.0428 -48.1818 L-26.4507 -49.1012 ZM-25.227 -46.3429 L-27.5219 -45.0194 L-27.5219 -45.0194 L-26.9296 -44.2063 L-26.9296 -44.2063 L-24.8191 -45.4234 L-24.8191 -45.4234 L-25.227 -46.3429 ZM-24.0032 -43.5845 L-25.7449 -42.5801 L-25.1526 -41.767 L-25.1526 -41.767 L-23.5953 -42.6651 L-23.5953 -42.6651 L-24.0032 -43.5845 ZM-22.7795 -40.8262 L-23.968 -40.1408 L-23.3757 -39.3277 L-23.3757 -39.3277 L-22.3716 -39.9067 L-22.3716 -39.9067 L-22.7795 -40.8262 Z"/><path style="stroke:none;" d="M16.3414 -60.1288 L15.9335 -59.2094 L15.9335 -59.2094 L20.8113 -56.3965 L20.8113 -56.3965 L21.4037 -57.2096 L21.4037 -57.2096 L16.3414 -60.1288 ZM15.1178 -57.3704 L14.71 -56.4509 L14.71 -56.4509 L19.0342 -53.9573 L19.6266 -54.7703 L15.1178 -57.3704 ZM13.8943 -54.6119 L13.4864 -53.6925 L13.4864 -53.6925 L17.2571 -51.518 L17.2571 -51.518 L17.8495 -52.3311 L13.8943 -54.6119 ZM12.6707 -51.8535 L12.2629 -50.934 L12.2629 -50.934 L15.48 -49.0788 L15.48 -49.0788 L16.0724 -49.8919 L16.0724 -49.8919 L12.6707 -51.8535 ZM11.4472 -49.0951 L11.0393 -48.1756 L11.0393 -48.1756 L13.7029 -46.6396 L13.7029 -46.6396 L14.2952 -47.4527 L14.2952 -47.4527 L11.4472 -49.0951 ZM10.2236 -46.3366 L9.8158 -45.4171 L9.8158 -45.4171 L11.9258 -44.2004 L11.9258 -44.2004 L12.5181 -45.0135 L12.5181 -45.0135 L10.2236 -46.3366 ZM9.0001 -43.5782 L8.5923 -42.6587 L8.5923 -42.6587 L10.1487 -41.7612 L10.1487 -41.7612 L10.741 -42.5742 L10.741 -42.5742 L9.0001 -43.5782 ZM7.7766 -40.8197 L7.3687 -39.9002 L8.3715 -39.3219 L8.3715 -39.3219 L8.9639 -40.135 L8.9639 -40.135 L7.7766 -40.8197 Z"/><line y2="12.99" y1="12.99" x2="1.5625" x1="-22.5" style="fill:none;"/><line y2="-12.99" y1="12.99" x2="-37.5" x1="-22.5" style="fill:none;"/><line y2="-12.99" y1="7.2683" x2="22.5" x1="10.8035" style="fill:none;"/><line y2="-38.97" y1="-12.99" x2="-22.5" x1="-37.5" style="fill:none;"/><line y2="-38.97" y1="-12.99" x2="7.5" x1="22.5" style="fill:none;"/><line y2="-38.97" y1="-38.97" x2="7.5" x1="-22.5" style="fill:none;"/></g><g transform="translate(82,72)" style="fill:rgb(230,0,0); text-rendering:geometricPrecision; color-rendering:optimizeQuality; image-rendering:optimizeQuality; font-family:'Open Sans'; stroke:rgb(230,0,0); color-interpolation:linearRGB;"><path style="stroke:none;" d="M-18.5625 64.8827 Q-18.5625 66.9452 -19.6016 68.1249 Q-20.6406 69.3046 -22.4844 69.3046 Q-24.375 69.3046 -25.4062 68.1405 Q-26.4375 66.9764 -26.4375 64.8671 Q-26.4375 62.7733 -25.4062 61.6249 Q-24.375 60.4764 -22.4844 60.4764 Q-20.625 60.4764 -19.5938 61.6483 Q-18.5625 62.8202 -18.5625 64.8827 ZM-25.3906 64.8827 Q-25.3906 66.6171 -24.6484 67.5233 Q-23.9062 68.4296 -22.4844 68.4296 Q-21.0625 68.4296 -20.3359 67.5311 Q-19.6094 66.6327 -19.6094 64.8827 Q-19.6094 63.1483 -20.3359 62.2577 Q-21.0625 61.3671 -22.4844 61.3671 Q-23.9062 61.3671 -24.6484 62.2655 Q-25.3906 63.1639 -25.3906 64.8827 Z"/><path style="stroke:none;" d="M-11.0469 69.1796 L-12.0469 69.1796 L-12.0469 65.1483 L-16.5625 65.1483 L-16.5625 69.1796 L-17.5625 69.1796 L-17.5625 60.6171 L-16.5625 60.6171 L-16.5625 64.2577 L-12.0469 64.2577 L-12.0469 60.6171 L-11.0469 60.6171 L-11.0469 69.1796 Z"/><path style="stroke:none;" d="M-63.5625 -13.0603 Q-63.5625 -10.9978 -64.6016 -9.8181 Q-65.6406 -8.6384 -67.4844 -8.6384 Q-69.375 -8.6384 -70.4062 -9.8025 Q-71.4375 -10.9666 -71.4375 -13.0759 Q-71.4375 -15.1697 -70.4062 -16.3181 Q-69.375 -17.4666 -67.4844 -17.4666 Q-65.625 -17.4666 -64.5938 -16.2947 Q-63.5625 -15.1228 -63.5625 -13.0603 ZM-70.3906 -13.0603 Q-70.3906 -11.3259 -69.6484 -10.4197 Q-68.9062 -9.5134 -67.4844 -9.5134 Q-66.0625 -9.5134 -65.3359 -10.4119 Q-64.6094 -11.3103 -64.6094 -13.0603 Q-64.6094 -14.7947 -65.3359 -15.6853 Q-66.0625 -16.5759 -67.4844 -16.5759 Q-68.9062 -16.5759 -69.6484 -15.6775 Q-70.3906 -14.7791 -70.3906 -13.0603 Z"/><path style="stroke:none;" d="M-72.4375 -8.7634 L-73.4375 -8.7634 L-73.4375 -12.7947 L-77.9531 -12.7947 L-77.9531 -8.7634 L-78.9531 -8.7634 L-78.9531 -17.3259 L-77.9531 -17.3259 L-77.9531 -13.6853 L-73.4375 -13.6853 L-73.4375 -17.3259 L-72.4375 -17.3259 L-72.4375 -8.7634 Z"/><path style="stroke:none;" d="M56.4375 -13.0603 Q56.4375 -10.9978 55.3984 -9.8181 Q54.3594 -8.6384 52.5156 -8.6384 Q50.625 -8.6384 49.5938 -9.8025 Q48.5625 -10.9666 48.5625 -13.0759 Q48.5625 -15.1697 49.5938 -16.3181 Q50.625 -17.4666 52.5156 -17.4666 Q54.375 -17.4666 55.4062 -16.2947 Q56.4375 -15.1228 56.4375 -13.0603 ZM49.6094 -13.0603 Q49.6094 -11.3259 50.3516 -10.4197 Q51.0938 -9.5134 52.5156 -9.5134 Q53.9375 -9.5134 54.6641 -10.4119 Q55.3906 -11.3103 55.3906 -13.0603 Q55.3906 -14.7947 54.6641 -15.6853 Q53.9375 -16.5759 52.5156 -16.5759 Q51.0938 -16.5759 50.3516 -15.6775 Q49.6094 -14.7791 49.6094 -13.0603 Z"/><path style="stroke:none;" d="M-33.5625 -65.0233 Q-33.5625 -62.9608 -34.6016 -61.7811 Q-35.6406 -60.6014 -37.4844 -60.6014 Q-39.375 -60.6014 -40.4062 -61.7655 Q-41.4375 -62.9296 -41.4375 -65.0389 Q-41.4375 -67.1327 -40.4062 -68.2811 Q-39.375 -69.4296 -37.4844 -69.4296 Q-35.625 -69.4296 -34.5938 -68.2577 Q-33.5625 -67.0858 -33.5625 -65.0233 ZM-40.3906 -65.0233 Q-40.3906 -63.2889 -39.6484 -62.3827 Q-38.9062 -61.4764 -37.4844 -61.4764 Q-36.0625 -61.4764 -35.3359 -62.3749 Q-34.6094 -63.2733 -34.6094 -65.0233 Q-34.6094 -66.7577 -35.3359 -67.6483 Q-36.0625 -68.5389 -37.4844 -68.5389 Q-38.9062 -68.5389 -39.6484 -67.6405 Q-40.3906 -66.7421 -40.3906 -65.0233 Z"/><path style="stroke:none;" d="M-42.4375 -60.7264 L-43.4375 -60.7264 L-43.4375 -64.7577 L-47.9531 -64.7577 L-47.9531 -60.7264 L-48.9531 -60.7264 L-48.9531 -69.2889 L-47.9531 -69.2889 L-47.9531 -65.6483 L-43.4375 -65.6483 L-43.4375 -69.2889 L-42.4375 -69.2889 L-42.4375 -60.7264 Z"/><path style="stroke:none;" d="M26.4375 -65.0233 Q26.4375 -62.9608 25.3984 -61.7811 Q24.3594 -60.6014 22.5156 -60.6014 Q20.625 -60.6014 19.5938 -61.7655 Q18.5625 -62.9296 18.5625 -65.0389 Q18.5625 -67.1327 19.5938 -68.2811 Q20.625 -69.4296 22.5156 -69.4296 Q24.375 -69.4296 25.4062 -68.2577 Q26.4375 -67.0858 26.4375 -65.0233 ZM19.6094 -65.0233 Q19.6094 -63.2889 20.3516 -62.3827 Q21.0938 -61.4764 22.5156 -61.4764 Q23.9375 -61.4764 24.6641 -62.3749 Q25.3906 -63.2733 25.3906 -65.0233 Q25.3906 -66.7577 24.6641 -67.6483 Q23.9375 -68.5389 22.5156 -68.5389 Q21.0938 -68.5389 20.3516 -67.6405 Q19.6094 -66.7421 19.6094 -65.0233 Z"/><path style="stroke:none;" d="M33.9531 -60.7264 L32.9531 -60.7264 L32.9531 -64.7577 L28.4375 -64.7577 L28.4375 -60.7264 L27.4375 -60.7264 L27.4375 -69.2889 L28.4375 -69.2889 L28.4375 -65.6483 L32.9531 -65.6483 L32.9531 -69.2889 L33.9531 -69.2889 L33.9531 -60.7264 Z"/></g><g transform="translate(82,72)" style="stroke-linecap:butt; text-rendering:geometricPrecision; color-rendering:optimizeQuality; image-rendering:optimizeQuality; font-family:'Open Sans'; color-interpolation:linearRGB; stroke-miterlimit:5;"><path style="fill:none;" d="M-22 12.99 L-22.5 12.99 L-22.75 12.557"/></g><g transform="translate(82,72)" style="stroke-linecap:butt; font-size:8.4px; fill:gray; text-rendering:geometricPrecision; image-rendering:optimizeQuality; color-rendering:optimizeQuality; font-family:'Open Sans'; font-style:italic; stroke:gray; color-interpolation:linearRGB; stroke-miterlimit:5;"><path style="stroke:none;" d="M-21.8885 5.4939 Q-21.8885 4.1657 -21.4198 3.0407 Q-20.951 1.9157 -19.9198 0.8376 L-19.3104 0.8376 Q-20.2792 1.9001 -20.7635 3.072 Q-21.2479 4.2439 -21.2479 5.4782 Q-21.2479 6.8064 -20.8104 7.822 L-21.326 7.822 Q-21.8885 6.7907 -21.8885 5.4939 ZM-18.3285 4.1814 L-18.8285 6.5564 L-19.4847 6.5564 L-18.2816 0.8376 L-17.0316 0.8376 Q-15.2972 0.8376 -15.2972 2.2751 Q-15.2972 3.6345 -16.7347 4.0251 L-15.7972 6.5564 L-16.516 6.5564 L-17.3441 4.1814 L-18.3285 4.1814 ZM-17.7503 1.4314 Q-18.141 3.3532 -18.2035 3.6032 L-17.5472 3.6032 Q-16.7972 3.6032 -16.391 3.2751 Q-15.9847 2.947 -15.9847 2.322 Q-15.9847 1.8532 -16.2425 1.6423 Q-16.5003 1.4314 -17.0941 1.4314 L-17.7503 1.4314 ZM-13.1112 3.1814 Q-13.1112 4.5095 -13.5878 5.6423 Q-14.0644 6.7751 -15.08 7.822 L-15.6894 7.822 Q-13.7519 5.6657 -13.7519 3.1814 Q-13.7519 1.8532 -14.1894 0.8376 L-13.6737 0.8376 Q-13.1112 1.9001 -13.1112 3.1814 Z"/></g><g transform="translate(82,72)" style="stroke-linecap:butt; fill:rgb(230,0,0); text-rendering:geometricPrecision; color-rendering:optimizeQuality; image-rendering:optimizeQuality; font-family:'Open Sans'; stroke:rgb(230,0,0); color-interpolation:linearRGB; stroke-miterlimit:5;"><path style="stroke:none;" d="M11.4375 12.9197 Q11.4375 14.9822 10.3984 16.1619 Q9.3594 17.3416 7.5156 17.3416 Q5.625 17.3416 4.5938 16.1775 Q3.5625 15.0134 3.5625 12.9041 Q3.5625 10.8103 4.5938 9.6619 Q5.625 8.5134 7.5156 8.5134 Q9.375 8.5134 10.4062 9.6853 Q11.4375 10.8572 11.4375 12.9197 ZM4.6094 12.9197 Q4.6094 14.6541 5.3516 15.5603 Q6.0938 16.4666 7.5156 16.4666 Q8.9375 16.4666 9.6641 15.5681 Q10.3906 14.6697 10.3906 12.9197 Q10.3906 11.1853 9.6641 10.2947 Q8.9375 9.4041 7.5156 9.4041 Q6.0938 9.4041 5.3516 10.3025 Q4.6094 11.2009 4.6094 12.9197 Z"/></g><g transform="translate(82,72)" style="stroke-linecap:butt; font-size:8.4px; fill:gray; text-rendering:geometricPrecision; image-rendering:optimizeQuality; color-rendering:optimizeQuality; font-family:'Open Sans'; font-style:italic; stroke:gray; color-interpolation:linearRGB; stroke-miterlimit:5;"><path style="stroke:none;" d="M-46.6083 -20.4473 Q-46.6083 -21.7754 -46.1395 -22.9004 Q-45.6708 -24.0254 -44.6395 -25.1035 L-44.0302 -25.1035 Q-44.9989 -24.041 -45.4833 -22.8691 Q-45.9677 -21.6973 -45.9677 -20.4629 Q-45.9677 -19.1348 -45.5302 -18.1191 L-46.0458 -18.1191 Q-46.6083 -19.1504 -46.6083 -20.4473 ZM-40.9857 -21.041 Q-40.9857 -20.2129 -41.5326 -19.7598 Q-42.0795 -19.3066 -43.0795 -19.3066 Q-43.4857 -19.3066 -43.7982 -19.3613 Q-44.1107 -19.416 -44.392 -19.5566 L-44.392 -20.2129 Q-43.767 -19.8848 -43.0639 -19.8848 Q-42.4389 -19.8848 -42.0639 -20.1816 Q-41.6889 -20.4785 -41.6889 -20.9941 Q-41.6889 -21.3066 -41.892 -21.5332 Q-42.0951 -21.7598 -42.6576 -22.0879 Q-43.2514 -22.416 -43.4779 -22.7441 Q-43.7045 -23.0723 -43.7045 -23.5254 Q-43.7045 -24.2598 -43.1889 -24.7207 Q-42.6732 -25.1816 -41.8295 -25.1816 Q-41.4545 -25.1816 -41.1186 -25.1035 Q-40.7826 -25.0254 -40.4076 -24.8535 L-40.6732 -24.2598 Q-40.9232 -24.416 -41.2436 -24.5019 Q-41.5639 -24.5879 -41.8295 -24.5879 Q-42.3607 -24.5879 -42.6811 -24.3144 Q-43.0014 -24.041 -43.0014 -23.5723 Q-43.0014 -23.3691 -42.9311 -23.2207 Q-42.8607 -23.0723 -42.7201 -22.9394 Q-42.5795 -22.8066 -42.1576 -22.5566 Q-41.5951 -22.2129 -41.392 -22.0176 Q-41.1889 -21.8223 -41.0873 -21.5879 Q-40.9857 -21.3535 -40.9857 -21.041 ZM-38.3913 -22.7598 Q-38.3913 -21.4316 -38.8678 -20.2988 Q-39.3444 -19.166 -40.36 -18.1191 L-40.9694 -18.1191 Q-39.0319 -20.2754 -39.0319 -22.7598 Q-39.0319 -24.0879 -39.4694 -25.1035 L-38.9538 -25.1035 Q-38.3913 -24.041 -38.3913 -22.7598 Z"/><path style="stroke:none;" d="M23.3916 -20.4471 Q23.3916 -21.7752 23.8603 -22.9002 Q24.3291 -24.0252 25.3603 -25.1033 L25.9697 -25.1033 Q25.001 -24.0408 24.5166 -22.8689 Q24.0322 -21.6971 24.0322 -20.4627 Q24.0322 -19.1346 24.4697 -18.1189 L23.9541 -18.1189 Q23.3916 -19.1502 23.3916 -20.4471 ZM29.0141 -21.0408 Q29.0141 -20.2127 28.4673 -19.7596 Q27.9204 -19.3064 26.9204 -19.3064 Q26.5141 -19.3064 26.2016 -19.3611 Q25.8891 -19.4158 25.6079 -19.5564 L25.6079 -20.2127 Q26.2329 -19.8846 26.936 -19.8846 Q27.561 -19.8846 27.936 -20.1814 Q28.311 -20.4783 28.311 -20.9939 Q28.311 -21.3064 28.1079 -21.533 Q27.9048 -21.7596 27.3423 -22.0877 Q26.7485 -22.4158 26.522 -22.7439 Q26.2954 -23.0721 26.2954 -23.5252 Q26.2954 -24.2596 26.811 -24.7205 Q27.3266 -25.1814 28.1704 -25.1814 Q28.5454 -25.1814 28.8813 -25.1033 Q29.2173 -25.0252 29.5923 -24.8533 L29.3266 -24.2596 Q29.0766 -24.4158 28.7563 -24.5018 Q28.436 -24.5877 28.1704 -24.5877 Q27.6391 -24.5877 27.3188 -24.3143 Q26.9985 -24.0408 26.9985 -23.5721 Q26.9985 -23.3689 27.0688 -23.2205 Q27.1391 -23.0721 27.2798 -22.9393 Q27.4204 -22.8064 27.8423 -22.5564 Q28.4048 -22.2127 28.6079 -22.0174 Q28.811 -21.8221 28.9126 -21.5877 Q29.0141 -21.3533 29.0141 -21.0408 ZM31.6086 -22.7596 Q31.6086 -21.4314 31.1321 -20.2986 Q30.6555 -19.1658 29.6399 -18.1189 L29.0305 -18.1189 Q30.968 -20.2752 30.968 -22.7596 Q30.968 -24.0877 30.5305 -25.1033 L31.0461 -25.1033 Q31.6086 -24.0408 31.6086 -22.7596 Z"/><path style="fill:none; stroke:black;" d="M-22.75 -38.537 L-22.5 -38.97 L-22 -38.97"/><path style="stroke:none;" d="M-21.6086 -46.4272 Q-21.6086 -47.7553 -21.1399 -48.8803 Q-20.6711 -50.0053 -19.6399 -51.0834 L-19.0305 -51.0834 Q-19.9993 -50.0209 -20.4836 -48.8491 Q-20.968 -47.6772 -20.968 -46.4428 Q-20.968 -45.1147 -20.5305 -44.0991 L-21.0461 -44.0991 Q-21.6086 -45.1303 -21.6086 -46.4272 ZM-15.9861 -47.0209 Q-15.9861 -46.1928 -16.5329 -45.7397 Q-17.0798 -45.2866 -18.0798 -45.2866 Q-18.4861 -45.2866 -18.7986 -45.3413 Q-19.1111 -45.3959 -19.3923 -45.5366 L-19.3923 -46.1928 Q-18.7673 -45.8647 -18.0642 -45.8647 Q-17.4392 -45.8647 -17.0642 -46.1616 Q-16.6892 -46.4584 -16.6892 -46.9741 Q-16.6892 -47.2866 -16.8923 -47.5131 Q-17.0954 -47.7397 -17.6579 -48.0678 Q-18.2517 -48.3959 -18.4783 -48.7241 Q-18.7048 -49.0522 -18.7048 -49.5053 Q-18.7048 -50.2397 -18.1892 -50.7006 Q-17.6736 -51.1616 -16.8298 -51.1616 Q-16.4548 -51.1616 -16.1189 -51.0834 Q-15.7829 -51.0053 -15.4079 -50.8334 L-15.6736 -50.2397 Q-15.9236 -50.3959 -16.2439 -50.4819 Q-16.5642 -50.5678 -16.8298 -50.5678 Q-17.3611 -50.5678 -17.6814 -50.2944 Q-18.0017 -50.0209 -18.0017 -49.5522 Q-18.0017 -49.3491 -17.9314 -49.2006 Q-17.8611 -49.0522 -17.7204 -48.9194 Q-17.5798 -48.7866 -17.1579 -48.5366 Q-16.5954 -48.1928 -16.3923 -47.9975 Q-16.1892 -47.8022 -16.0876 -47.5678 Q-15.9861 -47.3334 -15.9861 -47.0209 ZM-13.3916 -48.7397 Q-13.3916 -47.4116 -13.8681 -46.2788 Q-14.3447 -45.1459 -15.3603 -44.0991 L-15.9697 -44.0991 Q-14.0322 -46.2553 -14.0322 -48.7397 Q-14.0322 -50.0678 -14.4697 -51.0834 L-13.9541 -51.0834 Q-13.3916 -50.0209 -13.3916 -48.7397 Z"/><path style="fill:none; stroke:black;" d="M7.75 -38.537 L7.5 -38.97 L7 -38.97"/><path style="stroke:none;" d="M-1.609 -46.4269 Q-1.609 -47.755 -1.1402 -48.88 Q-0.6715 -50.005 0.3598 -51.0831 L0.9692 -51.0831 Q0.0004 -50.0206 -0.484 -48.8488 Q-0.9683 -47.6769 -0.9683 -46.4425 Q-0.9683 -45.1144 -0.5308 -44.0988 L-1.0465 -44.0988 Q-1.609 -45.13 -1.609 -46.4269 ZM4.0136 -47.0206 Q4.0136 -46.1925 3.4667 -45.7394 Q2.9199 -45.2863 1.9199 -45.2863 Q1.5136 -45.2863 1.2011 -45.3409 Q0.8886 -45.3956 0.6074 -45.5363 L0.6074 -46.1925 Q1.2324 -45.8644 1.9355 -45.8644 Q2.5605 -45.8644 2.9355 -46.1613 Q3.3105 -46.4581 3.3105 -46.9738 Q3.3105 -47.2863 3.1074 -47.5128 Q2.9042 -47.7394 2.3417 -48.0675 Q1.748 -48.3956 1.5214 -48.7238 Q1.2949 -49.0519 1.2949 -49.505 Q1.2949 -50.2394 1.8105 -50.7003 Q2.3261 -51.1613 3.1699 -51.1613 Q3.5449 -51.1613 3.8808 -51.0831 Q4.2167 -51.005 4.5917 -50.8331 L4.3261 -50.2394 Q4.0761 -50.3956 3.7558 -50.4816 Q3.4355 -50.5675 3.1699 -50.5675 Q2.6386 -50.5675 2.3183 -50.2941 Q1.998 -50.0206 1.998 -49.5519 Q1.998 -49.3488 2.0683 -49.2003 Q2.1386 -49.0519 2.2792 -48.9191 Q2.4199 -48.7863 2.8417 -48.5363 Q3.4042 -48.1925 3.6074 -47.9972 Q3.8105 -47.8019 3.912 -47.5675 Q4.0136 -47.3331 4.0136 -47.0206 ZM6.6081 -48.7394 Q6.6081 -47.4113 6.1315 -46.2784 Q5.655 -45.1456 4.6393 -44.0988 L4.03 -44.0988 Q5.9675 -46.255 5.9675 -48.7394 Q5.9675 -50.0675 5.53 -51.0831 L6.0456 -51.0831 Q6.6081 -50.0206 6.6081 -48.7394 Z"/></g></g></svg></svg></svg></svg>