<svg width="211" viewBox="0 0 211 85" style="fill-opacity:1; color-rendering:auto; color-interpolation:auto; text-rendering:auto; stroke:black; stroke-linecap:square; stroke-miterlimit:10; shape-rendering:auto; stroke-opacity:1; fill:black; stroke-dasharray:none; font-weight:normal; stroke-width:1; font-family:'Open Sans'; font-style:normal; stroke-linejoin:miter; font-size:12; stroke-dashoffset:0; image-rendering:auto;" height="85" class="cas-substance-image" xmlns:xlink="http://www.w3.org/1999/xlink" xmlns="http://www.w3.org/2000/svg"><svg class="cas-substance-single-component"><rect y="0" x="0" width="211" stroke="none" ry="7" rx="7" height="85" fill="white" class="cas-substance-group"/><svg y="0" x="0" width="211" viewBox="0 0 211 85" style="fill:black;" height="85" class="cas-substance-single-component-image"><svg><g><g transform="translate(103,45)" style="text-rendering:geometricPrecision; color-rendering:optimizeQuality; color-interpolation:linearRGB; stroke-linecap:butt; image-rendering:optimizeQuality;"><line y2="-22.5" y1="-10.8168" x2="-29.463" x1="-49.6983" style="fill:none;"/><line y2="4.274" y1="-4.182" x2="-75.8355" x1="-61.1897" style="fill:none;"/><line y2="-27.8443" y1="-13.5784" x2="-67.1891" x1="-58.9525" style="fill:none;"/><line y2="18.48" y1="-1.4441" x2="-40.443" x1="-51.9465" style="fill:none;"/><line y2="-7.5" y1="-22.5" x2="-3.48" x1="-29.463" style="fill:none;"/><line y2="37.5" y1="13.8516" x2="-81.423" x1="-81.423" style="fill:none;"/><line y2="-33.48" y1="-33.48" x2="-100.443" x1="-76.3805" style="fill:none;"/><line y2="-22.5" y1="-7.5" x2="22.5" x1="-3.48" style="fill:none;"/><line y2="-10.4351" y1="-22.5" x2="43.3964" x1="22.5" style="fill:none;"/><line y2="-18.1128" y1="-8.9192" x2="70.3637" x1="54.4386" style="fill:none;"/><line y2="-21.1439" y1="-11.9504" x2="68.6138" x1="52.6887" style="fill:none;"/><line y2="-32.7956" y1="-23.6223" x2="95.795" x1="79.9067" style="fill:none;"/><line y2="-35.8267" y1="-26.6533" x2="94.0449" x1="78.1566" style="fill:none;"/><path style="stroke-linecap:square; stroke:none;" d="M-54.0797 -5.5 Q-54.0797 -4.375 -54.9 -3.7344 Q-55.7203 -3.0938 -57.1266 -3.0938 Q-58.6578 -3.0938 -59.4703 -3.5 L-59.4703 -4.4531 Q-58.9391 -4.2344 -58.3219 -4.1016 Q-57.7047 -3.9688 -57.0953 -3.9688 Q-56.0953 -3.9688 -55.5953 -4.3516 Q-55.0953 -4.7344 -55.0953 -5.4062 Q-55.0953 -5.8438 -55.275 -6.1328 Q-55.4547 -6.4219 -55.8688 -6.6641 Q-56.2828 -6.9062 -57.1422 -7.2031 Q-58.3297 -7.625 -58.8453 -8.2109 Q-59.361 -8.7969 -59.361 -9.75 Q-59.361 -10.7344 -58.6188 -11.3203 Q-57.8766 -11.9062 -56.6422 -11.9062 Q-55.3766 -11.9062 -54.2985 -11.4375 L-54.611 -10.5781 Q-55.6735 -11.0156 -56.6735 -11.0156 Q-57.4703 -11.0156 -57.9157 -10.6797 Q-58.361 -10.3438 -58.361 -9.7344 Q-58.361 -9.2969 -58.1969 -9.0078 Q-58.0328 -8.7188 -57.6422 -8.4844 Q-57.2516 -8.25 -56.4391 -7.9531 Q-55.0953 -7.4844 -54.5875 -6.9297 Q-54.0797 -6.375 -54.0797 -5.5 ZM-51.5094 -3.2188 L-52.4782 -3.2188 L-52.4782 -9.6406 L-51.5094 -9.6406 L-51.5094 -3.2188 ZM-52.5563 -11.375 Q-52.5563 -11.7188 -52.3922 -11.875 Q-52.2282 -12.0312 -51.9782 -12.0312 Q-51.7438 -12.0312 -51.5797 -11.8672 Q-51.4157 -11.7031 -51.4157 -11.375 Q-51.4157 -11.0469 -51.5797 -10.8906 Q-51.7438 -10.7344 -51.9782 -10.7344 Q-52.2282 -10.7344 -52.3922 -10.8906 Q-52.5563 -11.0469 -52.5563 -11.375 Z"/><path style="fill:none; stroke-miterlimit:5;" d="M-29.896 -22.25 L-29.463 -22.5 L-29.03 -22.25"/></g><g transform="translate(103,45)" style="stroke-linecap:butt; fill:rgb(230,0,0); text-rendering:geometricPrecision; color-rendering:optimizeQuality; image-rendering:optimizeQuality; font-family:'Open Sans'; stroke:rgb(230,0,0); color-interpolation:linearRGB; stroke-miterlimit:5;"><path style="stroke:none;" d="M-77.4855 7.4297 Q-77.4855 9.4922 -78.5246 10.6719 Q-79.5636 11.8516 -81.4074 11.8516 Q-83.298 11.8516 -84.3292 10.6875 Q-85.3605 9.5234 -85.3605 7.4141 Q-85.3605 5.3203 -84.3292 4.1719 Q-83.298 3.0234 -81.4074 3.0234 Q-79.548 3.0234 -78.5167 4.1953 Q-77.4855 5.3672 -77.4855 7.4297 ZM-84.3136 7.4297 Q-84.3136 9.1641 -83.5714 10.0703 Q-82.8292 10.9766 -81.4074 10.9766 Q-79.9855 10.9766 -79.2589 10.0781 Q-78.5324 9.1797 -78.5324 7.4297 Q-78.5324 5.6953 -79.2589 4.8047 Q-79.9855 3.9141 -81.4074 3.9141 Q-82.8292 3.9141 -83.5714 4.8125 Q-84.3136 5.7109 -84.3136 7.4297 Z"/><path style="stroke:none;" d="M-66.5055 -33.5503 Q-66.5055 -31.4878 -67.5446 -30.3081 Q-68.5836 -29.1284 -70.4274 -29.1284 Q-72.318 -29.1284 -73.3493 -30.2925 Q-74.3805 -31.4566 -74.3805 -33.5659 Q-74.3805 -35.6597 -73.3493 -36.8081 Q-72.318 -37.9566 -70.4274 -37.9566 Q-68.568 -37.9566 -67.5368 -36.7847 Q-66.5055 -35.6128 -66.5055 -33.5503 ZM-73.3336 -33.5503 Q-73.3336 -31.8159 -72.5914 -30.9097 Q-71.8493 -30.0034 -70.4274 -30.0034 Q-69.0055 -30.0034 -68.2789 -30.9019 Q-67.5524 -31.8003 -67.5524 -33.5503 Q-67.5524 -35.2847 -68.2789 -36.1753 Q-69.0055 -37.0659 -70.4274 -37.0659 Q-71.8493 -37.0659 -72.5914 -36.1675 Q-73.3336 -35.2691 -73.3336 -33.5503 Z"/><path style="fill:none; stroke:black;" d="M-3.913 -7.75 L-3.48 -7.5 L-3.047 -7.75"/><path style="fill:none; stroke:black;" d="M22.067 -22.25 L22.5 -22.5 L22.933 -22.25"/><path style="fill:rgb(0,5,255); stroke:none;" d="M51.8316 -3.3438 L50.6909 -3.3438 L46.0034 -10.5312 L45.9566 -10.5312 Q46.0503 -9.2656 46.0503 -8.2188 L46.0503 -3.3438 L45.1284 -3.3438 L45.1284 -11.9062 L46.2534 -11.9062 L50.9253 -4.75 L50.9722 -4.75 Q50.9722 -4.9062 50.9253 -5.7656 Q50.8784 -6.625 50.8941 -7 L50.8941 -11.9062 L51.8316 -11.9062 L51.8316 -3.3438 Z"/><path style="fill:black; stroke:none;" d="M75.3302 -26.0781 Q73.9239 -26.0781 73.1036 -25.1406 Q72.2833 -24.2031 72.2833 -22.5625 Q72.2833 -20.8906 73.0724 -19.9688 Q73.8614 -19.0469 75.3146 -19.0469 Q76.2208 -19.0469 77.3614 -19.375 L77.3614 -18.5 Q76.4708 -18.1562 75.1739 -18.1562 Q73.2833 -18.1562 72.2521 -19.3125 Q71.2208 -20.4688 71.2208 -22.5781 Q71.2208 -23.9062 71.713 -24.8984 Q72.2052 -25.8906 73.1427 -26.4297 Q74.0802 -26.9688 75.3458 -26.9688 Q76.6896 -26.9688 77.7052 -26.4844 L77.2833 -25.625 Q76.2989 -26.0781 75.3302 -26.0781 Z"/><path style="stroke:none;" d="M104.3805 -37.5703 Q104.3805 -35.5078 103.3414 -34.3281 Q102.3024 -33.1484 100.4586 -33.1484 Q98.568 -33.1484 97.5368 -34.3125 Q96.5055 -35.4766 96.5055 -37.5859 Q96.5055 -39.6797 97.5368 -40.8281 Q98.568 -41.9766 100.4586 -41.9766 Q102.318 -41.9766 103.3493 -40.8047 Q104.3805 -39.6328 104.3805 -37.5703 ZM97.5524 -37.5703 Q97.5524 -35.8359 98.2946 -34.9297 Q99.0368 -34.0234 100.4586 -34.0234 Q101.8805 -34.0234 102.6071 -34.9219 Q103.3336 -35.8203 103.3336 -37.5703 Q103.3336 -39.3047 102.6071 -40.1953 Q101.8805 -41.0859 100.4586 -41.0859 Q99.0368 -41.0859 98.2946 -40.1875 Q97.5524 -39.2891 97.5524 -37.5703 Z"/></g></g></svg></svg></svg></svg>