<svg xmlns:ns0="http://www.w3.org/2000/svg" xmlns="http://www.w3.org/2000/svg"><g transform="translate(0, 0)"><ns0:svg width="261" viewBox="0 0 261 90" style="fill-opacity:1; color-rendering:auto; color-interpolation:auto; text-rendering:auto; stroke:black; stroke-linecap:square; stroke-miterlimit:10; shape-rendering:auto; stroke-opacity:1; fill:black; stroke-dasharray:none; font-weight:normal; stroke-width:1; font-family:'Open Sans'; font-style:normal; stroke-linejoin:miter; font-size:12; stroke-dashoffset:0; image-rendering:auto;" height="90" class="cas-substance-image"><ns0:svg class="cas-substance-single-component"><ns0:rect y="0" x="0" width="261" stroke="none" ry="7" rx="7" height="90" fill="white" class="cas-substance-group" /><ns0:svg y="0" x="0" width="261" viewBox="0 0 261 90" style="fill:black;" height="90" class="cas-substance-single-component-image"><ns0:svg><ns0:g><ns0:g transform="translate(131,45)" style="text-rendering:geometricPrecision; color-rendering:optimizeQuality; color-interpolation:linearRGB; stroke-linecap:butt; image-rendering:optimizeQuality;"><ns0:line y2="7.5" y1="-7.5" x2="38.97" x1="12.99" style="fill:none;" /><ns0:line y2="7.5" y1="-7.5" x2="-12.99" x1="12.99" style="fill:none;" /><ns0:line y2="-7.5" y1="7.5" x2="64.953" x1="38.97" style="fill:none;" /><ns0:line y2="31.0312" y1="7.5" x2="38.97" x1="38.97" style="fill:none;" /><ns0:line y2="-7.5" y1="7.5" x2="-38.97" x1="-12.99" style="fill:none;" /><ns0:line y2="7.5" y1="-7.5" x2="90.933" x1="64.953" style="fill:none;" /><ns0:line y2="7.5" y1="-7.5" x2="-64.953" x1="-38.97" style="fill:none;" /><ns0:line y2="-4.9583" y1="7.5" x2="112.5108" x1="90.933" style="fill:none;" /><ns0:line y2="-7.5" y1="7.5" x2="-90.933" x1="-64.953" style="fill:none;" /><ns0:line y2="4.274" y1="-7.5" x2="-111.3255" x1="-90.933" style="fill:none;" /><ns0:line y2="-31.1484" y1="-6.4896" x2="-89.183" x1="-89.183" style="fill:none;" /><ns0:line y2="-31.1484" y1="-6.4896" x2="-92.683" x1="-92.683" style="fill:none;" /><ns0:path style="fill:none; stroke-miterlimit:5;" d="M13.423 -7.25 L12.99 -7.5 L12.557 -7.25" /><ns0:path style="fill:none; stroke-miterlimit:5;" d="M-12.557 7.25 L-12.99 7.5 L-13.423 7.25" /><ns0:path style="fill:none; stroke-miterlimit:5;" d="M64.52 -7.25 L64.953 -7.5 L65.386 -7.25" /></ns0:g><ns0:g transform="translate(131,45)" style="stroke-linecap:butt; fill:rgb(148,108,0); text-rendering:geometricPrecision; color-rendering:optimizeQuality; image-rendering:optimizeQuality; font-family:'Open Sans'; stroke:rgb(148,108,0); color-interpolation:linearRGB; stroke-miterlimit:5;"><ns0:path style="stroke:none;" d="M41.6653 39.4375 Q41.6653 40.5625 40.845 41.2031 Q40.0247 41.8438 38.6184 41.8438 Q37.0872 41.8438 36.2747 41.4375 L36.2747 40.4844 Q36.8059 40.7031 37.4231 40.8359 Q38.0403 40.9688 38.6497 40.9688 Q39.6497 40.9688 40.1497 40.5859 Q40.6497 40.2031 40.6497 39.5312 Q40.6497 39.0938 40.47 38.8047 Q40.2903 38.5156 39.8763 38.2734 Q39.4622 38.0312 38.6028 37.7344 Q37.4153 37.3125 36.8997 36.7266 Q36.3841 36.1406 36.3841 35.1875 Q36.3841 34.2031 37.1263 33.6172 Q37.8684 33.0312 39.1028 33.0312 Q40.3684 33.0312 41.4466 33.5 L41.1341 34.3594 Q40.0716 33.9219 39.0716 33.9219 Q38.2747 33.9219 37.8294 34.2578 Q37.3841 34.5938 37.3841 35.2031 Q37.3841 35.6406 37.5481 35.9297 Q37.7122 36.2188 38.1028 36.4531 Q38.4934 36.6875 39.3059 36.9844 Q40.6497 37.4531 41.1575 38.0078 Q41.6653 38.5625 41.6653 39.4375 Z" /><ns0:path style="stroke:none;" d="M49.1809 41.7188 L48.1809 41.7188 L48.1809 37.6875 L43.6653 37.6875 L43.6653 41.7188 L42.6653 41.7188 L42.6653 33.1562 L43.6653 33.1562 L43.6653 36.7969 L48.1809 36.7969 L48.1809 33.1562 L49.1809 33.1562 L49.1809 41.7188 Z" /><ns0:path style="fill:none; stroke:black;" d="M-38.537 -7.25 L-38.97 -7.5 L-39.403 -7.25" /><ns0:path style="fill:none; stroke:black;" d="M90.5 7.25 L90.933 7.5 L91.366 7.25" /><ns0:path style="fill:none; stroke:black;" d="M-64.52 7.25 L-64.953 7.5 L-65.386 7.25" /><ns0:path style="stroke:none;" d="M119.6083 -5.5625 Q119.6083 -4.4375 118.788 -3.7969 Q117.9677 -3.1562 116.5614 -3.1562 Q115.0302 -3.1562 114.2177 -3.5625 L114.2177 -4.5156 Q114.7489 -4.2969 115.3661 -4.1641 Q115.9833 -4.0312 116.5927 -4.0312 Q117.5927 -4.0312 118.0927 -4.4141 Q118.5927 -4.7969 118.5927 -5.4688 Q118.5927 -5.9062 118.413 -6.1953 Q118.2333 -6.4844 117.8193 -6.7266 Q117.4052 -6.9688 116.5458 -7.2656 Q115.3583 -7.6875 114.8427 -8.2734 Q114.3271 -8.8594 114.3271 -9.8125 Q114.3271 -10.7969 115.0693 -11.3828 Q115.8114 -11.9688 117.0458 -11.9688 Q118.3114 -11.9688 119.3896 -11.5 L119.0771 -10.6406 Q118.0146 -11.0781 117.0146 -11.0781 Q116.2177 -11.0781 115.7724 -10.7422 Q115.3271 -10.4062 115.3271 -9.7969 Q115.3271 -9.3594 115.4911 -9.0703 Q115.6552 -8.7812 116.0458 -8.5469 Q116.4364 -8.3125 117.2489 -8.0156 Q118.5927 -7.5469 119.1005 -6.9922 Q119.6083 -6.4375 119.6083 -5.5625 Z" /><ns0:path style="stroke:none;" d="M127.1239 -3.2812 L126.1239 -3.2812 L126.1239 -7.3125 L121.6083 -7.3125 L121.6083 -3.2812 L120.6083 -3.2812 L120.6083 -11.8438 L121.6083 -11.8438 L121.6083 -8.2031 L126.1239 -8.2031 L126.1239 -11.8438 L127.1239 -11.8438 L127.1239 -3.2812 Z" /><ns0:path style="fill:none; stroke:black;" d="M-90.5 -7.25 L-90.933 -7.5 L-91.366 -7.25" /><ns0:path style="fill:rgb(230,0,0); stroke:none;" d="M-112.9755 7.4297 Q-112.9755 9.4922 -114.0146 10.6719 Q-115.0536 11.8516 -116.8974 11.8516 Q-118.788 11.8516 -119.8193 10.6875 Q-120.8505 9.5234 -120.8505 7.4141 Q-120.8505 5.3203 -119.8193 4.1719 Q-118.788 3.0234 -116.8974 3.0234 Q-115.038 3.0234 -114.0068 4.1953 Q-112.9755 5.3672 -112.9755 7.4297 ZM-119.8036 7.4297 Q-119.8036 9.1641 -119.0614 10.0703 Q-118.3193 10.9766 -116.8974 10.9766 Q-115.4755 10.9766 -114.7489 10.0781 Q-114.0224 9.1797 -114.0224 7.4297 Q-114.0224 5.6953 -114.7489 4.8047 Q-115.4755 3.9141 -116.8974 3.9141 Q-118.3193 3.9141 -119.0614 4.8125 Q-119.8036 5.7109 -119.8036 7.4297 Z" /><ns0:path style="fill:rgb(230,0,0); stroke:none;" d="M-121.8505 11.7266 L-122.8505 11.7266 L-122.8505 7.6953 L-127.3661 7.6953 L-127.3661 11.7266 L-128.3661 11.7266 L-128.3661 3.1641 L-127.3661 3.1641 L-127.3661 6.8047 L-122.8505 6.8047 L-122.8505 3.1641 L-121.8505 3.1641 L-121.8505 11.7266 Z" /><ns0:path style="fill:rgb(230,0,0); stroke:none;" d="M-86.9955 -37.5703 Q-86.9955 -35.5078 -88.0346 -34.3281 Q-89.0736 -33.1484 -90.9174 -33.1484 Q-92.808 -33.1484 -93.8392 -34.3125 Q-94.8705 -35.4766 -94.8705 -37.5859 Q-94.8705 -39.6797 -93.8392 -40.8281 Q-92.808 -41.9766 -90.9174 -41.9766 Q-89.058 -41.9766 -88.0267 -40.8047 Q-86.9955 -39.6328 -86.9955 -37.5703 ZM-93.8236 -37.5703 Q-93.8236 -35.8359 -93.0814 -34.9297 Q-92.3392 -34.0234 -90.9174 -34.0234 Q-89.4955 -34.0234 -88.7689 -34.9219 Q-88.0424 -35.8203 -88.0424 -37.5703 Q-88.0424 -39.3047 -88.7689 -40.1953 Q-89.4955 -41.0859 -90.9174 -41.0859 Q-92.3392 -41.0859 -93.0814 -40.1875 Q-93.8236 -39.2891 -93.8236 -37.5703 Z" /></ns0:g></ns0:g></ns0:svg></ns0:svg></ns0:svg></ns0:svg></g></svg>