<svg xmlns:ns0="http://www.w3.org/2000/svg" xmlns="http://www.w3.org/2000/svg"><g transform="translate(0, 0)"><ns0:svg width="133" viewBox="0 0 133 105" style="fill-opacity:1; color-rendering:auto; color-interpolation:auto; text-rendering:auto; stroke:black; stroke-linecap:square; stroke-miterlimit:10; shape-rendering:auto; stroke-opacity:1; fill:black; stroke-dasharray:none; font-weight:normal; stroke-width:1; font-family:'Open Sans'; font-style:normal; stroke-linejoin:miter; font-size:12; stroke-dashoffset:0; image-rendering:auto;" height="105" class="cas-substance-image"><ns0:svg class="cas-substance-single-component"><ns0:rect y="0" x="0" width="133" stroke="none" ry="7" rx="7" height="105" fill="white" class="cas-substance-group" /><ns0:svg y="0" x="0" width="133" viewBox="0 0 133 105" style="fill:black;" height="105" class="cas-substance-single-component-image"><ns0:svg><ns0:g><ns0:g transform="translate(66,52)" style="text-rendering:geometricPrecision; color-rendering:optimizeQuality; color-interpolation:linearRGB; stroke-linecap:butt; image-rendering:optimizeQuality;"><ns0:line y2="2.817" y1="2.817" x2="15" x1="-15" style="fill:none;" /><ns0:line y2="-22.983" y1="2.817" x2="-30" x1="-15" style="fill:none;" /><ns0:line y2="31.347" y1="2.817" x2="-24.27" x1="-15" style="fill:none;" /><ns0:line y2="-22.983" y1="2.817" x2="30" x1="15" style="fill:none;" /><ns0:line y2="31.347" y1="2.817" x2="24.27" x1="15" style="fill:none;" /><ns0:path style="stroke:none;" d="M-2.456 -34.425 L-3.3886 -34.0557 L-3.3886 -34.0557 L-1.755 -28.7292 L-1.755 -28.7292 L-0.7756 -28.9462 L-0.7756 -28.9462 L-2.456 -34.425 ZM-5.254 -33.3171 L-6.1867 -32.9478 L-6.1867 -32.9478 L-4.6932 -28.0784 L-4.6932 -28.0784 L-3.7138 -28.2953 L-3.7138 -28.2953 L-5.254 -33.3171 ZM-8.0521 -32.2092 L-8.9847 -31.8399 L-8.9847 -31.8399 L-7.6314 -27.4275 L-7.6314 -27.4275 L-6.652 -27.6444 L-6.652 -27.6444 L-8.0521 -32.2092 ZM-10.8501 -31.1014 L-11.7828 -30.7321 L-10.5697 -26.7766 L-10.5697 -26.7766 L-9.5903 -26.9936 L-9.5903 -26.9936 L-10.8501 -31.1014 ZM-13.6482 -29.9935 L-14.5809 -29.6242 L-14.5809 -29.6242 L-13.5079 -26.1258 L-13.5079 -26.1258 L-12.5285 -26.3427 L-12.5285 -26.3427 L-13.6482 -29.9935 ZM-16.4462 -28.8856 L-17.3789 -28.5163 L-17.3789 -28.5163 L-16.4461 -25.4749 L-16.4461 -25.4749 L-15.4667 -25.6919 L-15.4667 -25.6919 L-16.4462 -28.8856 ZM-19.2443 -27.7777 L-20.177 -27.4084 L-19.3843 -24.824 L-19.3843 -24.824 L-18.4049 -25.041 L-18.4049 -25.041 L-19.2443 -27.7777 ZM-22.0423 -26.6699 L-22.975 -26.3006 L-22.975 -26.3006 L-22.3225 -24.1732 L-21.3431 -24.3901 L-21.3431 -24.3901 L-22.0423 -26.6699 ZM-24.8404 -25.562 L-25.7731 -25.1927 L-25.7731 -25.1927 L-25.2608 -23.5223 L-25.2608 -23.5223 L-24.2814 -23.7393 L-24.2814 -23.7393 L-24.8404 -25.562 ZM-27.6384 -24.4541 L-28.5711 -24.0848 L-28.5711 -24.0848 L-28.199 -22.8715 L-28.199 -22.8715 L-27.2196 -23.0884 L-27.2196 -23.0884 L-27.6384 -24.4541 Z" /><ns0:line y2="-48.981" y1="-22.983" x2="-15" x1="-30" style="fill:none;" /><ns0:line y2="48.981" y1="31.347" x2="0" x1="-24.27" style="fill:none;" /><ns0:path style="stroke:none;" d="M2.456 -34.425 L0.7756 -28.9462 L0.7756 -28.9462 L1.755 -28.7292 L1.755 -28.7292 L3.3886 -34.0557 L3.3886 -34.0557 L2.456 -34.425 ZM5.254 -33.3171 L3.7138 -28.2953 L3.7138 -28.2953 L4.6932 -28.0784 L4.6932 -28.0784 L6.1867 -32.9478 L6.1867 -32.9478 L5.254 -33.3171 ZM8.0521 -32.2092 L6.652 -27.6444 L6.652 -27.6444 L7.6314 -27.4275 L7.6314 -27.4275 L8.9847 -31.8399 L8.9847 -31.8399 L8.0521 -32.2092 ZM10.8501 -31.1014 L9.5903 -26.9936 L9.5903 -26.9936 L10.5697 -26.7766 L10.5697 -26.7766 L11.7828 -30.7321 L10.8501 -31.1014 ZM13.6482 -29.9935 L12.5285 -26.3427 L12.5285 -26.3427 L13.5079 -26.1258 L13.5079 -26.1258 L14.5809 -29.6242 L14.5809 -29.6242 L13.6482 -29.9935 ZM16.4462 -28.8856 L15.4667 -25.6919 L15.4667 -25.6919 L16.4461 -25.4749 L16.4461 -25.4749 L17.3789 -28.5163 L17.3789 -28.5163 L16.4462 -28.8856 ZM19.2443 -27.7777 L18.4049 -25.041 L18.4049 -25.041 L19.3843 -24.824 L19.3843 -24.824 L20.177 -27.4084 L20.177 -27.4084 L19.2443 -27.7777 ZM22.0423 -26.6699 L21.3431 -24.3901 L21.3431 -24.3901 L22.3225 -24.1732 L22.975 -26.3006 L22.975 -26.3006 L22.0423 -26.6699 ZM24.8404 -25.562 L24.2814 -23.7393 L24.2814 -23.7393 L25.2608 -23.5223 L25.2608 -23.5223 L25.7731 -25.1927 L25.7731 -25.1927 L24.8404 -25.562 ZM27.6384 -24.4541 L27.2196 -23.0884 L28.199 -22.8715 L28.199 -22.8715 L28.5711 -24.0848 L28.5711 -24.0848 L27.6384 -24.4541 Z" /><ns0:line y2="-48.981" y1="-22.983" x2="15" x1="30" style="fill:none;" /><ns0:line y2="48.981" y1="31.347" x2="0" x1="24.27" style="fill:none;" /><ns0:line y2="-48.981" y1="-48.981" x2="15" x1="-15" style="fill:none;" /><ns0:path style="stroke:none;" d="M-15.053 2.3198 L-14.947 3.3142 L-39.2675 8.4208 L-39.9034 2.4546 Z" /><ns0:path style="stroke:none;" d="M14.947 3.3142 L15.053 2.3198 L39.9034 2.4546 L39.2675 8.4208 Z" /><ns0:line y2="-22.9434" y1="-22.983" x2="-54.7422" x1="-30" style="fill:none;" /><ns0:line y2="-22.9434" y1="-22.983" x2="54.7422" x1="30" style="fill:none;" /></ns0:g><ns0:g transform="translate(66,52)" style="font-size:8.4px; fill:gray; text-rendering:geometricPrecision; image-rendering:optimizeQuality; color-rendering:optimizeQuality; font-family:'Open Sans'; font-style:italic; stroke:gray; color-interpolation:linearRGB;"><ns0:path style="stroke:none;" d="M-14.4018 -4.6868 Q-14.4018 -6.0149 -13.933 -7.1399 Q-13.4643 -8.2649 -12.433 -9.343 L-11.8236 -9.343 Q-12.7924 -8.2805 -13.2768 -7.1086 Q-13.7611 -5.9368 -13.7611 -4.7024 Q-13.7611 -3.3743 -13.3236 -2.3586 L-13.8393 -2.3586 Q-14.4018 -3.3899 -14.4018 -4.6868 ZM-10.8417 -5.9993 L-11.3417 -3.6243 L-11.998 -3.6243 L-10.7948 -9.343 L-9.5448 -9.343 Q-7.8105 -9.343 -7.8105 -7.9055 Q-7.8105 -6.5461 -9.248 -6.1555 L-8.3105 -3.6243 L-9.0292 -3.6243 L-9.8573 -5.9993 L-10.8417 -5.9993 ZM-10.2636 -8.7493 Q-10.6542 -6.8274 -10.7167 -6.5774 L-10.0605 -6.5774 Q-9.3105 -6.5774 -8.9042 -6.9055 Q-8.498 -7.2336 -8.498 -7.8586 Q-8.498 -8.3274 -8.7558 -8.5383 Q-9.0136 -8.7493 -9.6073 -8.7493 L-10.2636 -8.7493 ZM-5.6245 -6.9993 Q-5.6245 -5.6711 -6.101 -4.5383 Q-6.5776 -3.4055 -7.5932 -2.3586 L-8.2026 -2.3586 Q-6.2651 -4.5149 -6.2651 -6.9993 Q-6.2651 -8.3274 -6.7026 -9.343 L-6.187 -9.343 Q-5.6245 -8.2805 -5.6245 -6.9993 Z" /><ns0:path style="stroke:none;" d="M5.9046 -4.6477 Q5.9046 -5.9758 6.3733 -7.1008 Q6.8421 -8.2258 7.8733 -9.3039 L8.4827 -9.3039 Q7.514 -8.2414 7.0296 -7.0696 Q6.5452 -5.8977 6.5452 -4.6633 Q6.5452 -3.3352 6.9827 -2.3196 L6.4671 -2.3196 Q5.9046 -3.3508 5.9046 -4.6477 ZM11.5272 -5.2414 Q11.5272 -4.4133 10.9803 -3.9602 Q10.4334 -3.5071 9.4334 -3.5071 Q9.0272 -3.5071 8.7147 -3.5618 Q8.4022 -3.6164 8.1209 -3.7571 L8.1209 -4.4133 Q8.7459 -4.0852 9.449 -4.0852 Q10.074 -4.0852 10.449 -4.3821 Q10.824 -4.6789 10.824 -5.1946 Q10.824 -5.5071 10.6209 -5.7336 Q10.4178 -5.9602 9.8553 -6.2883 Q9.2615 -6.6164 9.035 -6.9446 Q8.8084 -7.2727 8.8084 -7.7258 Q8.8084 -8.4602 9.324 -8.9211 Q9.8397 -9.3821 10.6834 -9.3821 Q11.0584 -9.3821 11.3943 -9.3039 Q11.7303 -9.2258 12.1053 -9.0539 L11.8397 -8.4602 Q11.5897 -8.6164 11.2693 -8.7024 Q10.949 -8.7883 10.6834 -8.7883 Q10.1522 -8.7883 9.8318 -8.5149 Q9.5115 -8.2414 9.5115 -7.7727 Q9.5115 -7.5696 9.5818 -7.4211 Q9.6522 -7.2727 9.7928 -7.1399 Q9.9334 -7.0071 10.3553 -6.7571 Q10.9178 -6.4133 11.1209 -6.218 Q11.324 -6.0227 11.4256 -5.7883 Q11.5272 -5.5539 11.5272 -5.2414 ZM14.1216 -6.9602 Q14.1216 -5.6321 13.6451 -4.4993 Q13.1685 -3.3664 12.1529 -2.3196 L11.5435 -2.3196 Q13.481 -4.4758 13.481 -6.9602 Q13.481 -8.2883 13.0435 -9.3039 L13.5591 -9.3039 Q14.1216 -8.2414 14.1216 -6.9602 Z" /><ns0:path style="stroke:none;" d="M-39.1167 -30.4354 Q-39.1167 -31.7635 -38.6479 -32.8885 Q-38.1792 -34.0135 -37.1479 -35.0917 L-36.5386 -35.0917 Q-37.5073 -34.0292 -37.9917 -32.8573 Q-38.4761 -31.6854 -38.4761 -30.451 Q-38.4761 -29.1229 -38.0386 -28.1073 L-38.5542 -28.1073 Q-39.1167 -29.1385 -39.1167 -30.4354 ZM-33.4941 -31.0292 Q-33.4941 -30.201 -34.041 -29.7479 Q-34.5879 -29.2948 -35.5879 -29.2948 Q-35.9941 -29.2948 -36.3066 -29.3495 Q-36.6191 -29.4042 -36.9004 -29.5448 L-36.9004 -30.201 Q-36.2754 -29.8729 -35.5723 -29.8729 Q-34.9473 -29.8729 -34.5723 -30.1698 Q-34.1973 -30.4667 -34.1973 -30.9823 Q-34.1973 -31.2948 -34.4004 -31.5213 Q-34.6035 -31.7479 -35.166 -32.076 Q-35.7598 -32.4042 -35.9863 -32.7323 Q-36.2129 -33.0604 -36.2129 -33.5135 Q-36.2129 -34.2479 -35.6973 -34.7088 Q-35.1816 -35.1698 -34.3379 -35.1698 Q-33.9629 -35.1698 -33.6269 -35.0917 Q-33.291 -35.0135 -32.916 -34.8417 L-33.1816 -34.2479 Q-33.4316 -34.4042 -33.7519 -34.4901 Q-34.0723 -34.576 -34.3379 -34.576 Q-34.8691 -34.576 -35.1894 -34.3026 Q-35.5098 -34.0292 -35.5098 -33.5604 Q-35.5098 -33.3573 -35.4394 -33.2088 Q-35.3691 -33.0604 -35.2285 -32.9276 Q-35.0879 -32.7948 -34.666 -32.5448 Q-34.1035 -32.201 -33.9004 -32.0057 Q-33.6973 -31.8104 -33.5957 -31.576 Q-33.4941 -31.3417 -33.4941 -31.0292 ZM-30.8996 -32.7479 Q-30.8996 -31.4198 -31.3762 -30.287 Q-31.8528 -29.1542 -32.8684 -28.1073 L-33.4778 -28.1073 Q-31.5403 -30.2635 -31.5403 -32.7479 Q-31.5403 -34.076 -31.9778 -35.0917 L-31.4621 -35.0917 Q-30.8996 -34.0292 -30.8996 -32.7479 Z" /></ns0:g><ns0:g transform="translate(66,52)" style="stroke-linecap:butt; font-size:8.4px; text-rendering:geometricPrecision; image-rendering:optimizeQuality; color-rendering:optimizeQuality; font-family:'Open Sans'; font-style:italic; color-interpolation:linearRGB; stroke-miterlimit:5;"><ns0:path style="fill:none;" d="M-24.1155 30.8715 L-24.27 31.347 L-23.8655 31.6409" /><ns0:path style="fill:gray; stroke:none;" d="M30.6195 -30.4745 Q30.6195 -31.8026 31.0883 -32.9276 Q31.557 -34.0526 32.5883 -35.1307 L33.1977 -35.1307 Q32.2289 -34.0682 31.7445 -32.8963 Q31.2602 -31.7245 31.2602 -30.4901 Q31.2602 -29.162 31.6977 -28.1463 L31.182 -28.1463 Q30.6195 -29.1776 30.6195 -30.4745 ZM34.1796 -31.787 L33.6796 -29.412 L33.0233 -29.412 L34.2265 -35.1307 L35.4765 -35.1307 Q37.2108 -35.1307 37.2108 -33.6932 Q37.2108 -32.3338 35.7733 -31.9432 L36.7108 -29.412 L35.9921 -29.412 L35.164 -31.787 L34.1796 -31.787 ZM34.7577 -34.537 Q34.3671 -32.6151 34.3046 -32.3651 L34.9608 -32.3651 Q35.7108 -32.3651 36.1171 -32.6932 Q36.5233 -33.0213 36.5233 -33.6463 Q36.5233 -34.1151 36.2655 -34.326 Q36.0077 -34.537 35.414 -34.537 L34.7577 -34.537 ZM39.3968 -32.787 Q39.3968 -31.4588 38.9202 -30.326 Q38.4437 -29.1932 37.4281 -28.1463 L36.8187 -28.1463 Q38.7562 -30.3026 38.7562 -32.787 Q38.7562 -34.1151 38.3187 -35.1307 L38.8343 -35.1307 Q39.3968 -34.0682 39.3968 -32.787 Z" /><ns0:path style="fill:none;" d="M24.1155 30.8715 L24.27 31.347 L23.8655 31.6409" /><ns0:path style="fill:none;" d="M-15.2499 -48.5479 L-15 -48.981 L-14.5 -48.981" /><ns0:path style="fill:none;" d="M-0.4045 48.6871 L0 48.981 L0.4045 48.6871" /><ns0:path style="fill:none;" d="M15.2499 -48.5479 L15 -48.981 L14.5 -48.981" /><ns0:path style="stroke:none;" d="M-41.5742 10.1532 L-42.5742 10.1532 L-42.5742 6.122 L-47.0898 6.122 L-47.0898 10.1532 L-48.0898 10.1532 L-48.0898 1.5907 L-47.0898 1.5907 L-47.0898 5.2314 L-42.5742 5.2314 L-42.5742 1.5907 L-41.5742 1.5907 L-41.5742 10.1532 Z" /><ns0:path style="stroke:none;" d="M48.0898 10.1532 L47.0898 10.1532 L47.0898 6.122 L42.5742 6.122 L42.5742 10.1532 L41.5742 10.1532 L41.5742 1.5907 L42.5742 1.5907 L42.5742 5.2314 L47.0898 5.2314 L47.0898 1.5907 L48.0898 1.5907 L48.0898 10.1532 Z" /><ns0:path style="stroke:none;" d="M-56.7422 -18.7788 L-57.7422 -18.7788 L-57.7422 -22.81 L-62.2578 -22.81 L-62.2578 -18.7788 L-63.2578 -18.7788 L-63.2578 -27.3413 L-62.2578 -27.3413 L-62.2578 -23.7006 L-57.7422 -23.7006 L-57.7422 -27.3413 L-56.7422 -27.3413 L-56.7422 -18.7788 Z" /><ns0:path style="stroke:none;" d="M63.2578 -18.7788 L62.2578 -18.7788 L62.2578 -22.81 L57.7422 -22.81 L57.7422 -18.7788 L56.7422 -18.7788 L56.7422 -27.3413 L57.7422 -27.3413 L57.7422 -23.7006 L62.2578 -23.7006 L62.2578 -27.3413 L63.2578 -27.3413 L63.2578 -18.7788 Z" /></ns0:g></ns0:g></ns0:svg></ns0:svg></ns0:svg></ns0:svg></g></svg>