<svg width="230" viewBox="0 0 230 169" style="fill-opacity:1; color-rendering:auto; color-interpolation:auto; text-rendering:auto; stroke:black; stroke-linecap:square; stroke-miterlimit:10; shape-rendering:auto; stroke-opacity:1; fill:black; stroke-dasharray:none; font-weight:normal; stroke-width:1; font-family:'Open Sans'; font-style:normal; stroke-linejoin:miter; font-size:12; stroke-dashoffset:0; image-rendering:auto;" height="169" class="cas-substance-image" xmlns:xlink="http://www.w3.org/1999/xlink" xmlns="http://www.w3.org/2000/svg"><svg class="cas-substance-single-component"><rect y="0" x="0" width="230" stroke="none" ry="7" rx="7" height="169" fill="white" class="cas-substance-group"/><svg y="0" x="0" width="230" viewBox="0 0 230 169" style="fill:black;" height="169" class="cas-substance-single-component-image"><svg><g><g transform="translate(115,85)" style="text-rendering:geometricPrecision; color-rendering:optimizeQuality; color-interpolation:linearRGB; stroke-linecap:butt; image-rendering:optimizeQuality;"><line y2="81.144" y1="60.812" x2="-3.375" x1="8.364" style="fill:none;"/><line y2="29.184" y1="49.4364" x2="-3.375" x1="8.3181" style="fill:none;"/><line y2="-48.759" y1="-69.9661" x2="39.6043" x1="51.8485" style="fill:none;"/><line y2="-47.009" y1="-68.216" x2="42.6354" x1="54.8796" style="fill:none;"/><line y2="-16.9918" y1="-33.7076" x2="83.8521" x1="102.4191" style="fill:none;"/><line y2="-14.3908" y1="-31.1064" x2="86.194" x1="104.7609" style="fill:none;"/><line y2="-22.779" y1="-22.779" x2="-3.375" x1="-33.375" style="fill:none;"/><line y2="-45.072" y1="-22.779" x2="-53.451" x1="-33.375" style="fill:none;"/><line y2="3.204" y1="-22.779" x2="-48.375" x1="-33.375" style="fill:none;"/><line y2="3.2038" y1="-19.2791" x2="-44.3335" x1="-31.3541" style="fill:none;"/><line y2="3.204" y1="-22.779" x2="11.625" x1="-3.375" style="fill:none;"/><line y2="-0.2959" y1="-22.7788" x2="13.6459" x1="0.6665" style="fill:none;"/><line y2="-43.111" y1="-22.779" x2="8.364" x1="-3.375" style="fill:none;"/><line y2="-32.871" y1="-45.072" x2="-80.856" x1="-53.451" style="fill:none;"/><line y2="-74.907" y1="-45.072" x2="-56.586" x1="-53.451" style="fill:none;"/><line y2="29.184" y1="3.204" x2="-33.375" x1="-48.375" style="fill:none;"/><line y2="-1.7804" y1="3.204" x2="-71.8272" x1="-48.375" style="fill:none;"/><line y2="3.204" y1="3.204" x2="41.625" x1="11.625" style="fill:none;"/><line y2="29.184" y1="3.204" x2="-3.375" x1="11.625" style="fill:none;"/><line y2="-48.759" y1="-48.759" x2="41.625" x1="17.5625" style="fill:none;"/><line y2="-9.4986" y1="-32.871" x2="-78.4003" x1="-80.856" style="fill:none;"/><line y2="-50.482" y1="-32.871" x2="-96.7133" x1="-80.856" style="fill:none;"/><line y2="-81.144" y1="-74.907" x2="-85.929" x1="-56.586" style="fill:none;"/><line y2="-77.3004" y1="-71.9036" x2="-84.6801" x1="-59.2903" style="fill:none;"/><line y2="29.184" y1="29.184" x2="-3.375" x1="-33.375" style="fill:none;"/><line y2="25.684" y1="25.684" x2="-5.3957" x1="-31.3543" style="fill:none;"/><line y2="-22.779" y1="3.204" x2="56.625" x1="41.625" style="fill:none;"/><line y2="-22.7788" y1="-0.2959" x2="52.5835" x1="39.6041" style="fill:none;"/><line y2="25.497" y1="3.204" x2="61.698" x1="41.625" style="fill:none;"/><line y2="-22.779" y1="-48.759" x2="56.625" x1="41.625" style="fill:none;"/><line y2="-81.144" y1="-60.8857" x2="-85.929" x1="-97.6255" style="fill:none;"/><line y2="-16.542" y1="-22.779" x2="85.968" x1="56.625" style="fill:none;"/><line y2="13.296" y1="25.497" x2="89.103" x1="61.698" style="fill:none;"/><line y2="13.296" y1="-16.542" x2="89.103" x1="85.968" style="fill:none;"/><path style="stroke:none;" d="M-33.4091 -57.1414 L-34.2811 -56.6413 L-34.2811 -56.6413 L-32.0257 -51.5742 L-32.0257 -51.5742 L-31.0705 -51.8874 L-31.0705 -51.8874 L-33.4091 -57.1414 ZM-36.025 -55.6409 L-36.897 -55.1408 L-34.8913 -50.6346 L-33.9361 -50.9478 L-36.025 -55.6409 ZM-38.641 -54.1404 L-39.513 -53.6403 L-39.513 -53.6403 L-37.7568 -49.6949 L-37.7568 -49.6949 L-36.8016 -50.0081 L-36.8016 -50.0081 L-38.641 -54.1404 ZM-41.2569 -52.6399 L-42.1289 -52.1398 L-40.6224 -48.7552 L-39.6672 -49.0684 L-39.6672 -49.0684 L-41.2569 -52.6399 ZM-43.8729 -51.1394 L-44.7448 -50.6393 L-44.7448 -50.6393 L-43.488 -47.8156 L-43.488 -47.8156 L-42.5328 -48.1288 L-42.5328 -48.1288 L-43.8729 -51.1394 ZM-46.4888 -49.6389 L-47.3608 -49.1388 L-47.3608 -49.1388 L-46.3536 -46.8759 L-46.3536 -46.8759 L-45.3984 -47.1891 L-46.4888 -49.6389 ZM-49.1048 -48.1384 L-49.9767 -47.6383 L-49.9767 -47.6383 L-49.2191 -45.9362 L-49.2191 -45.9362 L-48.264 -46.2495 L-49.1048 -48.1384 ZM-51.7207 -46.6379 L-52.5927 -46.1378 L-52.5927 -46.1378 L-52.0847 -44.9966 L-52.0847 -44.9966 L-51.1295 -45.3098 L-51.1295 -45.3098 L-51.7207 -46.6379 Z"/><path style="stroke:none;" d="M-82.2228 -32.9461 L-83.178 -32.6328 L-82.5868 -31.3046 L-81.7148 -31.8049 L-81.7148 -31.8049 L-82.2228 -32.9461 ZM-85.0884 -32.0062 L-86.0436 -31.6929 L-86.0436 -31.6929 L-85.2027 -29.8038 L-84.3307 -30.3041 L-85.0884 -32.0062 ZM-87.9539 -31.0662 L-88.9091 -30.7529 L-88.9091 -30.7529 L-87.8187 -28.303 L-86.9467 -28.8032 L-87.9539 -31.0662 ZM-90.8195 -30.1262 L-91.7747 -29.8129 L-91.7747 -29.8129 L-90.4346 -26.8022 L-89.5626 -27.3024 L-90.8195 -30.1262 ZM-93.6851 -29.1863 L-94.6403 -28.8729 L-93.0505 -25.3014 L-92.1786 -25.8016 L-93.6851 -29.1863 ZM-96.5507 -28.2463 L-97.5059 -27.933 L-97.5059 -27.933 L-95.6665 -23.8006 L-94.7945 -24.3008 L-96.5507 -28.2463 ZM-99.4162 -27.3063 L-100.3714 -26.993 L-100.3714 -26.993 L-98.2824 -22.2998 L-98.2824 -22.2998 L-97.4104 -22.8 L-99.4162 -27.3063 ZM-102.2818 -26.3664 L-103.237 -26.053 L-103.237 -26.053 L-100.8984 -20.799 L-100.0264 -21.2992 L-102.2818 -26.3664 Z"/></g><g transform="translate(115,85)" style="fill:rgb(230,0,0); text-rendering:geometricPrecision; color-rendering:optimizeQuality; image-rendering:optimizeQuality; font-family:'Open Sans'; stroke:rgb(230,0,0); color-interpolation:linearRGB;"><path style="stroke:none;" d="M15.5625 55.0937 Q15.5625 57.1562 14.5234 58.3359 Q13.4844 59.5156 11.6406 59.5156 Q9.75 59.5156 8.7188 58.3515 Q7.6875 57.1874 7.6875 55.0781 Q7.6875 52.9843 8.7188 51.8359 Q9.75 50.6874 11.6406 50.6874 Q13.5 50.6874 14.5312 51.8593 Q15.5625 53.0312 15.5625 55.0937 ZM8.7344 55.0937 Q8.7344 56.8281 9.4766 57.7343 Q10.2188 58.6406 11.6406 58.6406 Q13.0625 58.6406 13.7891 57.7421 Q14.5156 56.8437 14.5156 55.0937 Q14.5156 53.3593 13.7891 52.4687 Q13.0625 51.5781 11.6406 51.5781 Q10.2188 51.5781 9.4766 52.4765 Q8.7344 53.3749 8.7344 55.0937 Z"/><path style="stroke:none;" d="M60.5625 -74.8093 Q60.5625 -72.7468 59.5234 -71.5671 Q58.4844 -70.3874 56.6406 -70.3874 Q54.75 -70.3874 53.7188 -71.5515 Q52.6875 -72.7156 52.6875 -74.8249 Q52.6875 -76.9187 53.7188 -78.0671 Q54.75 -79.2156 56.6406 -79.2156 Q58.5 -79.2156 59.5312 -78.0437 Q60.5625 -76.8718 60.5625 -74.8093 ZM53.7344 -74.8093 Q53.7344 -73.0749 54.4766 -72.1687 Q55.2188 -71.2624 56.6406 -71.2624 Q58.0625 -71.2624 58.7891 -72.1609 Q59.5156 -73.0593 59.5156 -74.8093 Q59.5156 -76.5437 58.7891 -77.4343 Q58.0625 -78.3249 56.6406 -78.3249 Q55.2188 -78.3249 54.4766 -77.4265 Q53.7344 -76.5281 53.7344 -74.8093 Z"/><path style="stroke:none;" d="M112.2015 -36.6853 Q112.2015 -34.6228 111.1624 -33.4431 Q110.1234 -32.2634 108.2796 -32.2634 Q106.389 -32.2634 105.3577 -33.4275 Q104.3265 -34.5916 104.3265 -36.7009 Q104.3265 -38.7947 105.3577 -39.9431 Q106.389 -41.0916 108.2796 -41.0916 Q110.139 -41.0916 111.1702 -39.9197 Q112.2015 -38.7478 112.2015 -36.6853 ZM105.3734 -36.6853 Q105.3734 -34.9509 106.1156 -34.0447 Q106.8577 -33.1384 108.2796 -33.1384 Q109.7015 -33.1384 110.4281 -34.0369 Q111.1546 -34.9353 111.1546 -36.6853 Q111.1546 -38.4197 110.4281 -39.3103 Q109.7015 -40.2009 108.2796 -40.2009 Q106.8577 -40.2009 106.1156 -39.3025 Q105.3734 -38.4041 105.3734 -36.6853 Z"/></g><g transform="translate(115,85)" style="stroke-linecap:butt; text-rendering:geometricPrecision; color-rendering:optimizeQuality; image-rendering:optimizeQuality; font-family:'Open Sans'; color-interpolation:linearRGB; stroke-miterlimit:5;"><path style="fill:none;" d="M-33.625 -22.346 L-33.375 -22.779 L-33.7096 -23.1505"/><path style="fill:none;" d="M-3.125 -22.346 L-3.375 -22.779 L-3.875 -22.779"/></g><g transform="translate(115,85)" style="stroke-linecap:butt; font-size:8.4px; fill:gray; text-rendering:geometricPrecision; image-rendering:optimizeQuality; color-rendering:optimizeQuality; font-family:'Open Sans'; font-style:italic; stroke:gray; color-interpolation:linearRGB; stroke-miterlimit:5;"><path style="stroke:none;" d="M-59.6383 -34.0873 Q-59.6383 -35.4155 -59.1696 -36.5405 Q-58.7008 -37.6655 -57.6696 -38.7436 L-57.0602 -38.7436 Q-58.0289 -37.6811 -58.5133 -36.5092 Q-58.9977 -35.3373 -58.9977 -34.103 Q-58.9977 -32.7748 -58.5602 -31.7592 L-59.0758 -31.7592 Q-59.6383 -32.7905 -59.6383 -34.0873 ZM-54.0158 -34.6811 Q-54.0158 -33.853 -54.5626 -33.3998 Q-55.1095 -32.9467 -56.1095 -32.9467 Q-56.5158 -32.9467 -56.8283 -33.0014 Q-57.1408 -33.0561 -57.422 -33.1967 L-57.422 -33.853 Q-56.797 -33.5248 -56.0939 -33.5248 Q-55.4689 -33.5248 -55.0939 -33.8217 Q-54.7189 -34.1186 -54.7189 -34.6342 Q-54.7189 -34.9467 -54.922 -35.1733 Q-55.1251 -35.3998 -55.6876 -35.728 Q-56.2814 -36.0561 -56.5079 -36.3842 Q-56.7345 -36.7123 -56.7345 -37.1655 Q-56.7345 -37.8998 -56.2189 -38.3608 Q-55.7033 -38.8217 -54.8595 -38.8217 Q-54.4845 -38.8217 -54.1486 -38.7436 Q-53.8126 -38.6655 -53.4376 -38.4936 L-53.7033 -37.8998 Q-53.9533 -38.0561 -54.2736 -38.142 Q-54.5939 -38.228 -54.8595 -38.228 Q-55.3908 -38.228 -55.7111 -37.9545 Q-56.0314 -37.6811 -56.0314 -37.2123 Q-56.0314 -37.0092 -55.9611 -36.8608 Q-55.8908 -36.7123 -55.7501 -36.5795 Q-55.6095 -36.4467 -55.1876 -36.1967 Q-54.6251 -35.853 -54.422 -35.6576 Q-54.2189 -35.4623 -54.1173 -35.228 Q-54.0158 -34.9936 -54.0158 -34.6811 ZM-51.4213 -36.3998 Q-51.4213 -35.0717 -51.8978 -33.9389 Q-52.3744 -32.8061 -53.39 -31.7592 L-53.9994 -31.7592 Q-52.0619 -33.9155 -52.0619 -36.3998 Q-52.0619 -37.728 -52.4994 -38.7436 L-51.9838 -38.7436 Q-51.4213 -37.6811 -51.4213 -36.3998 Z"/><path style="fill:none; stroke:black;" d="M-48.125 2.771 L-48.375 3.204 L-48.125 3.637"/><path style="fill:none; stroke:black;" d="M11.375 2.771 L11.625 3.204 L12.125 3.204"/></g><g transform="translate(115,85)" style="stroke-linecap:butt; fill:rgb(230,0,0); text-rendering:geometricPrecision; color-rendering:optimizeQuality; image-rendering:optimizeQuality; font-family:'Open Sans'; stroke:rgb(230,0,0); color-interpolation:linearRGB; stroke-miterlimit:5;"><path style="stroke:none;" d="M15.5625 -48.8293 Q15.5625 -46.7668 14.5234 -45.5871 Q13.4844 -44.4074 11.6406 -44.4074 Q9.75 -44.4074 8.7188 -45.5715 Q7.6875 -46.7356 7.6875 -48.8449 Q7.6875 -50.9387 8.7188 -52.0871 Q9.75 -53.2356 11.6406 -53.2356 Q13.5 -53.2356 14.5312 -52.0637 Q15.5625 -50.8918 15.5625 -48.8293 ZM8.7344 -48.8293 Q8.7344 -47.0949 9.4766 -46.1887 Q10.2188 -45.2824 11.6406 -45.2824 Q13.0625 -45.2824 13.7891 -46.1809 Q14.5156 -47.0793 14.5156 -48.8293 Q14.5156 -50.5637 13.7891 -51.4543 Q13.0625 -52.3449 11.6406 -52.3449 Q10.2188 -52.3449 9.4766 -51.4465 Q8.7344 -50.5481 8.7344 -48.8293 Z"/></g><g transform="translate(115,85)" style="stroke-linecap:butt; font-size:8.4px; fill:gray; text-rendering:geometricPrecision; image-rendering:optimizeQuality; color-rendering:optimizeQuality; font-family:'Open Sans'; font-style:italic; stroke:gray; color-interpolation:linearRGB; stroke-miterlimit:5;"><path style="stroke:none;" d="M-83.1655 -41.4884 Q-83.1655 -42.8165 -82.6967 -43.9415 Q-82.228 -45.0665 -81.1967 -46.1447 L-80.5874 -46.1447 Q-81.5561 -45.0822 -82.0405 -43.9103 Q-82.5249 -42.7384 -82.5249 -41.504 Q-82.5249 -40.1759 -82.0874 -39.1603 L-82.603 -39.1603 Q-83.1655 -40.1915 -83.1655 -41.4884 ZM-79.6054 -42.8009 L-80.1054 -40.4259 L-80.7617 -40.4259 L-79.5586 -46.1447 L-78.3086 -46.1447 Q-76.5742 -46.1447 -76.5742 -44.7072 Q-76.5742 -43.3478 -78.0117 -42.9572 L-77.0742 -40.4259 L-77.7929 -40.4259 L-78.6211 -42.8009 L-79.6054 -42.8009 ZM-79.0273 -45.5509 Q-79.4179 -43.629 -79.4804 -43.379 L-78.8242 -43.379 Q-78.0742 -43.379 -77.6679 -43.7072 Q-77.2617 -44.0353 -77.2617 -44.6603 Q-77.2617 -45.129 -77.5195 -45.34 Q-77.7773 -45.5509 -78.3711 -45.5509 L-79.0273 -45.5509 ZM-74.3882 -43.8009 Q-74.3882 -42.4728 -74.8648 -41.34 Q-75.3413 -40.2072 -76.357 -39.1603 L-76.9663 -39.1603 Q-75.0288 -41.3165 -75.0288 -43.8009 Q-75.0288 -45.129 -75.4663 -46.1447 L-74.9507 -46.1447 Q-74.3882 -45.0822 -74.3882 -43.8009 Z"/><path style="fill:none; stroke:black;" d="M-56.5337 -74.4097 L-56.586 -74.907 L-57.0751 -75.011"/><path style="fill:none; stroke:black;" d="M-33.625 28.751 L-33.375 29.184 L-32.875 29.184"/></g><g transform="translate(115,85)" style="stroke-linecap:butt; fill:rgb(230,0,0); text-rendering:geometricPrecision; color-rendering:optimizeQuality; image-rendering:optimizeQuality; font-family:'Open Sans'; stroke:rgb(230,0,0); color-interpolation:linearRGB; stroke-miterlimit:5;"><path style="stroke:none;" d="M-73.7835 -3.1033 Q-73.7835 -1.0408 -74.8226 0.1389 Q-75.8616 1.3186 -77.7054 1.3186 Q-79.596 1.3186 -80.6273 0.1545 Q-81.6585 -1.0096 -81.6585 -3.1189 Q-81.6585 -5.2127 -80.6273 -6.3611 Q-79.596 -7.5096 -77.7054 -7.5096 Q-75.846 -7.5096 -74.8148 -6.3377 Q-73.7835 -5.1658 -73.7835 -3.1033 ZM-80.6116 -3.1033 Q-80.6116 -1.3689 -79.8694 -0.4627 Q-79.1273 0.4436 -77.7054 0.4436 Q-76.2835 0.4436 -75.5569 -0.4549 Q-74.8304 -1.3533 -74.8304 -3.1033 Q-74.8304 -4.8377 -75.5569 -5.7283 Q-76.2835 -6.6189 -77.7054 -6.6189 Q-79.1273 -6.6189 -79.8694 -5.7205 Q-80.6116 -4.8221 -80.6116 -3.1033 Z"/><path style="fill:none; stroke:black;" d="M41.875 2.771 L41.625 3.204 L41.125 3.204"/><path style="fill:none; stroke:black;" d="M-3.875 29.184 L-3.375 29.184 L-3.125 29.617"/><path style="fill:none; stroke:black;" d="M41.125 -48.759 L41.625 -48.759 L41.875 -48.326"/><path style="stroke:none;" d="M-96.9915 -55.2343 Q-96.9915 -53.1718 -98.0306 -51.9921 Q-99.0696 -50.8124 -100.9134 -50.8124 Q-102.804 -50.8124 -103.8353 -51.9765 Q-104.8665 -53.1406 -104.8665 -55.2499 Q-104.8665 -57.3437 -103.8353 -58.4921 Q-102.804 -59.6406 -100.9134 -59.6406 Q-99.054 -59.6406 -98.0228 -58.4687 Q-96.9915 -57.2968 -96.9915 -55.2343 ZM-103.8196 -55.2343 Q-103.8196 -53.4999 -103.0774 -52.5937 Q-102.3353 -51.6874 -100.9134 -51.6874 Q-99.4915 -51.6874 -98.7649 -52.5859 Q-98.0384 -53.4843 -98.0384 -55.2343 Q-98.0384 -56.9687 -98.7649 -57.8593 Q-99.4915 -58.7499 -100.9134 -58.7499 Q-102.3353 -58.7499 -103.0774 -57.8515 Q-103.8196 -56.9531 -103.8196 -55.2343 Z"/><path style="fill:none; stroke:black;" d="M-85.4399 -81.04 L-85.929 -81.144 L-86.179 -80.711"/><path style="fill:none; stroke:black;" d="M56.375 -22.346 L56.625 -22.779 L56.375 -23.212"/><path style="fill:none; stroke:black;" d="M61.3634 25.1254 L61.698 25.497 L62.1548 25.2936"/><path style="fill:none; stroke:black;" d="M85.4789 -16.646 L85.968 -16.542 L86.0202 -16.0447"/><path style="fill:none; stroke:black;" d="M88.6462 13.4994 L89.103 13.296 L89.0508 12.7987"/><path style="fill:black; stroke:none;" d="M-22.7852 -53.1168 L-23.7852 -53.1168 L-23.7852 -57.148 L-28.3008 -57.148 L-28.3008 -53.1168 L-29.3008 -53.1168 L-29.3008 -61.6793 L-28.3008 -61.6793 L-28.3008 -58.0386 L-23.7852 -58.0386 L-23.7852 -61.6793 L-22.7852 -61.6793 L-22.7852 -53.1168 Z"/><path style="fill:black; stroke:none;" d="M-105.0062 -16.5107 L-106.0062 -16.5107 L-106.0062 -20.542 L-110.5218 -20.542 L-110.5218 -16.5107 L-111.5218 -16.5107 L-111.5218 -25.0732 L-110.5218 -25.0732 L-110.5218 -21.4326 L-106.0062 -21.4326 L-106.0062 -25.0732 L-105.0062 -25.0732 L-105.0062 -16.5107 Z"/></g></g></svg></svg></svg></svg>