<svg xmlns:ns0="http://www.w3.org/2000/svg" xmlns="http://www.w3.org/2000/svg"><g transform="translate(0, 0)"><ns0:svg width="244" viewBox="0 0 244 105" style="fill-opacity:1; color-rendering:auto; color-interpolation:auto; text-rendering:auto; stroke:black; stroke-linecap:square; stroke-miterlimit:10; shape-rendering:auto; stroke-opacity:1; fill:black; stroke-dasharray:none; font-weight:normal; stroke-width:1; font-family:'Open Sans'; font-style:normal; stroke-linejoin:miter; font-size:12; stroke-dashoffset:0; image-rendering:auto;" height="105" class="cas-substance-image"><ns0:svg class="cas-substance-single-component"><ns0:rect y="0" x="0" width="244" stroke="none" ry="7" rx="7" height="105" fill="white" class="cas-substance-group" /><ns0:svg y="0" x="0" width="244" viewBox="0 0 244 105" style="fill:black;" height="105" class="cas-substance-single-component-image"><ns0:svg><ns0:g><ns0:g transform="translate(124,53)" style="text-rendering:geometricPrecision; color-rendering:optimizeQuality; color-interpolation:linearRGB; stroke-linecap:butt; image-rendering:optimizeQuality;"><ns0:line y2="0" y1="15" x2="12.99" x1="-12.99" style="fill:none;" /><ns0:line y2="-2.0207" y1="10.9585" x2="9.49" x1="-12.9901" style="fill:none;" /></ns0:g><ns0:g transform="translate(124,53)" style="stroke-linecap:butt; font-size:8.4px; fill:gray; text-rendering:geometricPrecision; image-rendering:optimizeQuality; color-rendering:optimizeQuality; font-family:'Open Sans'; font-style:italic; stroke:gray; color-interpolation:linearRGB;"><ns0:path style="stroke:none;" d="M0.8527 17.3243 Q0.8527 15.9961 1.3215 14.8711 Q1.7902 13.7461 2.8215 12.668 L3.4309 12.668 Q2.4621 13.7305 1.9777 14.9024 Q1.4934 16.0743 1.4934 17.3086 Q1.4934 18.6368 1.9309 19.6524 L1.4152 19.6524 Q0.8527 18.6211 0.8527 17.3243 ZM6.1159 18.3868 L3.2565 18.3868 L4.4597 12.668 L7.3347 12.668 L7.2097 13.2774 L4.9909 13.2774 L4.6159 15.1055 L6.6628 15.1055 L6.5534 15.6993 L4.4909 15.6993 L4.0378 17.793 L6.2565 17.793 L6.1159 18.3868 ZM9.1475 15.0118 Q9.1475 16.3399 8.6709 17.4727 Q8.1944 18.6055 7.1787 19.6524 L6.5694 19.6524 Q8.5069 17.4961 8.5069 15.0118 Q8.5069 13.6836 8.0694 12.668 L8.585 12.668 Q9.1475 13.7305 9.1475 15.0118 Z" /><ns0:line y2="0" y1="15" x2="-38.97" x1="-12.99" style="fill:none; stroke:black;" /><ns0:line y2="15" y1="0" x2="38.97" x1="12.99" style="fill:none; stroke:black;" /><ns0:line y2="3.1886" y1="15" x2="59.4298" x1="38.97" style="fill:none; stroke:black;" /><ns0:line y2="38.5234" y1="13.9896" x2="37.22" x1="37.22" style="fill:none; stroke:black;" /><ns0:line y2="38.5234" y1="13.9897" x2="40.72" x1="40.72" style="fill:none; stroke:black;" /><ns0:line y2="15" y1="3.1786" x2="90.933" x1="70.4584" style="fill:none; stroke:black;" /><ns0:line y2="0" y1="15" x2="116.913" x1="90.933" style="fill:none; stroke:black;" /><ns0:line y2="-30" y1="-41.4492" x2="-90.933" x1="-110.763" style="fill:none; stroke:black;" /><ns0:line y2="-30" y1="0" x2="-38.97" x1="-38.97" style="fill:none; stroke:black;" /><ns0:line y2="-27.9793" y1="-2.0207" x2="-42.47" x1="-42.47" style="fill:none; stroke:black;" /><ns0:line y2="15" y1="0" x2="-64.953" x1="-38.97" style="fill:none; stroke:black;" /><ns0:line y2="-45" y1="-30" x2="-64.953" x1="-38.97" style="fill:none; stroke:black;" /><ns0:line y2="0" y1="15" x2="-90.933" x1="-64.953" style="fill:none; stroke:black;" /><ns0:line y2="-2.0207" y1="10.9585" x2="-87.433" x1="-64.9529" style="fill:none; stroke:black;" /><ns0:line y2="-30" y1="-45" x2="-90.933" x1="-64.953" style="fill:none; stroke:black;" /><ns0:line y2="-27.9793" y1="-40.9585" x2="-87.433" x1="-64.9529" style="fill:none; stroke:black;" /><ns0:line y2="-30" y1="0" x2="-90.933" x1="-90.933" style="fill:none; stroke:black;" /><ns0:path style="fill:none; stroke-miterlimit:5; stroke:black;" d="M-12.557 14.75 L-12.99 15 L-13.423 14.75" /><ns0:path style="fill:none; stroke-miterlimit:5; stroke:black;" d="M12.557 0.25 L12.99 0 L13.423 0.25" /><ns0:path style="fill:none; stroke-miterlimit:5; stroke:black;" d="M38.537 14.75 L38.97 15 L39.403 14.75" /></ns0:g><ns0:g transform="translate(124,53)" style="stroke-linecap:butt; fill:rgb(230,0,0); text-rendering:geometricPrecision; color-rendering:optimizeQuality; image-rendering:optimizeQuality; font-family:'Open Sans'; stroke:rgb(230,0,0); color-interpolation:linearRGB; stroke-miterlimit:5;"><ns0:path style="stroke:none;" d="M68.8905 -0.0703 Q68.8905 1.9922 67.8514 3.1719 Q66.8124 4.3516 64.9686 4.3516 Q63.078 4.3516 62.0468 3.1875 Q61.0155 2.0234 61.0155 -0.0859 Q61.0155 -2.1797 62.0468 -3.3281 Q63.078 -4.4766 64.9686 -4.4766 Q66.828 -4.4766 67.8593 -3.3047 Q68.8905 -2.1328 68.8905 -0.0703 ZM62.0624 -0.0703 Q62.0624 1.6641 62.8046 2.5703 Q63.5468 3.4766 64.9686 3.4766 Q66.3905 3.4766 67.1171 2.5781 Q67.8436 1.6797 67.8436 -0.0703 Q67.8436 -1.8047 67.1171 -2.6953 Q66.3905 -3.5859 64.9686 -3.5859 Q63.5468 -3.5859 62.8046 -2.6875 Q62.0624 -1.7891 62.0624 -0.0703 Z" /><ns0:path style="stroke:none;" d="M42.9075 44.9297 Q42.9075 46.9922 41.8684 48.1719 Q40.8294 49.3516 38.9856 49.3516 Q37.095 49.3516 36.0638 48.1875 Q35.0325 47.0234 35.0325 44.9141 Q35.0325 42.8203 36.0638 41.6719 Q37.095 40.5234 38.9856 40.5234 Q40.845 40.5234 41.8763 41.6953 Q42.9075 42.8672 42.9075 44.9297 ZM36.0794 44.9297 Q36.0794 46.6641 36.8216 47.5703 Q37.5638 48.4766 38.9856 48.4766 Q40.4075 48.4766 41.1341 47.5781 Q41.8606 46.6797 41.8606 44.9297 Q41.8606 43.1953 41.1341 42.3047 Q40.4075 41.4141 38.9856 41.4141 Q37.5638 41.4141 36.8216 42.3125 Q36.0794 43.2109 36.0794 44.9297 Z" /><ns0:path style="fill:none; stroke:black;" d="M90.5 14.75 L90.933 15 L91.366 14.75" /><ns0:path style="fill:rgb(0,138,0); stroke:none;" d="M-117.2216 -48.3594 Q-118.6278 -48.3594 -119.4482 -47.4219 Q-120.2685 -46.4844 -120.2685 -44.8438 Q-120.2685 -43.1719 -119.4794 -42.25 Q-118.6903 -41.3281 -117.2372 -41.3281 Q-116.331 -41.3281 -115.1903 -41.6562 L-115.1903 -40.7812 Q-116.081 -40.4375 -117.3778 -40.4375 Q-119.2685 -40.4375 -120.2997 -41.5938 Q-121.331 -42.75 -121.331 -44.8594 Q-121.331 -46.1875 -120.8388 -47.1797 Q-120.3466 -48.1719 -119.4091 -48.7109 Q-118.4716 -49.25 -117.206 -49.25 Q-115.8622 -49.25 -114.8466 -48.7656 L-115.2685 -47.9062 Q-116.2528 -48.3594 -117.2216 -48.3594 ZM-112.495 -40.5625 L-113.4638 -40.5625 L-113.4638 -49.6875 L-112.495 -49.6875 L-112.495 -40.5625 Z" /><ns0:path style="fill:none; stroke:black;" d="M-38.97 -0.5 L-38.97 0 L-38.537 0.25" /><ns0:path style="fill:none; stroke:black;" d="M-38.97 -29.5 L-38.97 -30 L-39.403 -30.25" /><ns0:path style="fill:none; stroke:black;" d="M-64.52 14.75 L-64.953 15 L-65.386 14.75" /><ns0:path style="fill:none; stroke:black;" d="M-64.52 -44.75 L-64.953 -45 L-65.386 -44.75" /><ns0:path style="fill:none; stroke:black;" d="M-90.5 0.25 L-90.933 0 L-90.933 -0.5" /><ns0:path style="fill:none; stroke:black;" d="M-90.5 -30.25 L-90.933 -30 L-90.933 -29.5" /></ns0:g></ns0:g></ns0:svg></ns0:svg></ns0:svg></ns0:svg></g></svg>