<svg width="188" viewBox="0 0 188 101" style="fill-opacity:1; color-rendering:auto; color-interpolation:auto; text-rendering:auto; stroke:black; stroke-linecap:square; stroke-miterlimit:10; shape-rendering:auto; stroke-opacity:1; fill:black; stroke-dasharray:none; font-weight:normal; stroke-width:1; font-family:'Open Sans'; font-style:normal; stroke-linejoin:miter; font-size:12; stroke-dashoffset:0; image-rendering:auto;" height="101" class="cas-substance-image" xmlns:xlink="http://www.w3.org/1999/xlink" xmlns="http://www.w3.org/2000/svg"><svg class="cas-substance-single-component"><rect y="0" x="0" width="188" stroke="none" ry="7" rx="7" height="101" fill="white" class="cas-substance-group"/><svg y="0" x="0" width="188" viewBox="0 0 188 101" style="fill:black;" height="101" class="cas-substance-single-component-image"><svg><g><g transform="translate(94,49)" style="text-rendering:geometricPrecision; color-rendering:optimizeQuality; color-interpolation:linearRGB; stroke-linecap:butt; image-rendering:optimizeQuality;"><line y2="-30" y1="-45" x2="64.953" x1="38.97" style="fill:none;"/><line y2="-30" y1="-45" x2="12.99" x1="38.97" style="fill:none;"/><line y2="0" y1="-30" x2="64.953" x1="64.953" style="fill:none;"/><line y2="-45" y1="-30" x2="90.933" x1="64.953" style="fill:none;"/><line y2="0" y1="15" x2="-90.933" x1="-64.953" style="fill:none;"/><line y2="38.5234" y1="15" x2="-64.953" x1="-64.953" style="fill:none;"/><line y2="0" y1="15" x2="-38.97" x1="-64.953" style="fill:none;"/><line y2="0" y1="-30" x2="12.99" x1="12.99" style="fill:none;"/><line y2="-2.0207" y1="-27.9793" x2="9.49" x1="9.49" style="fill:none;"/><line y2="-45" y1="-30" x2="-12.99" x1="12.99" style="fill:none;"/><line y2="15" y1="0" x2="-12.99" x1="12.99" style="fill:none;"/><line y2="-30" y1="-45" x2="-38.97" x1="-12.99" style="fill:none;"/><line y2="-27.9793" y1="-40.9585" x2="-35.47" x1="-12.9899" style="fill:none;"/><line y2="0" y1="15" x2="-38.97" x1="-12.99" style="fill:none;"/><line y2="-2.0207" y1="10.9585" x2="-35.47" x1="-12.9899" style="fill:none;"/><line y2="0" y1="-30" x2="-38.97" x1="-38.97" style="fill:none;"/><path style="fill:none; stroke-miterlimit:5;" d="M39.403 -44.75 L38.97 -45 L38.537 -44.75"/></g><g transform="translate(94,49)" style="stroke-linecap:butt; fill:rgb(230,0,0); text-rendering:geometricPrecision; color-rendering:optimizeQuality; image-rendering:optimizeQuality; font-family:'Open Sans'; stroke:rgb(230,0,0); color-interpolation:linearRGB; stroke-miterlimit:5;"><path style="stroke:none;" d="M-61.0155 44.9297 Q-61.0155 46.9922 -62.0546 48.1719 Q-63.0936 49.3516 -64.9374 49.3516 Q-66.828 49.3516 -67.8593 48.1875 Q-68.8905 47.0234 -68.8905 44.9141 Q-68.8905 42.8203 -67.8593 41.6719 Q-66.828 40.5234 -64.9374 40.5234 Q-63.078 40.5234 -62.0468 41.6953 Q-61.0155 42.8672 -61.0155 44.9297 ZM-67.8436 44.9297 Q-67.8436 46.6641 -67.1014 47.5703 Q-66.3593 48.4766 -64.9374 48.4766 Q-63.5155 48.4766 -62.7889 47.5781 Q-62.0624 46.6797 -62.0624 44.9297 Q-62.0624 43.1953 -62.7889 42.3047 Q-63.5155 41.4141 -64.9374 41.4141 Q-66.3593 41.4141 -67.1014 42.3125 Q-67.8436 43.2109 -67.8436 44.9297 Z"/><path style="stroke:none;" d="M-53.4999 49.2266 L-54.4999 49.2266 L-54.4999 45.1953 L-59.0155 45.1953 L-59.0155 49.2266 L-60.0155 49.2266 L-60.0155 40.6641 L-59.0155 40.6641 L-59.0155 44.3047 L-54.4999 44.3047 L-54.4999 40.6641 L-53.4999 40.6641 L-53.4999 49.2266 Z"/><path style="fill:none; stroke:black;" d="M12.99 -29.5 L12.99 -30 L13.423 -30.25"/><path style="fill:none; stroke:black;" d="M12.99 -0.5 L12.99 0 L12.557 0.25"/><path style="fill:none; stroke:black;" d="M-12.557 -44.75 L-12.99 -45 L-13.423 -44.75"/><path style="fill:none; stroke:black;" d="M-12.557 14.75 L-12.99 15 L-13.423 14.75"/><path style="fill:none; stroke:black;" d="M-38.537 -30.25 L-38.97 -30 L-38.97 -29.5"/><path style="fill:none; stroke:black;" d="M-38.537 0.25 L-38.97 0 L-39.403 0.25"/></g></g></svg></svg></svg></svg>