<svg xmlns:ns0="http://www.w3.org/2000/svg" xmlns="http://www.w3.org/2000/svg"><g transform="translate(0, 0)"><ns0:svg width="178" viewBox="0 0 178 75" style="fill-opacity:1; color-rendering:auto; color-interpolation:auto; text-rendering:auto; stroke:black; stroke-linecap:square; stroke-miterlimit:10; shape-rendering:auto; stroke-opacity:1; fill:black; stroke-dasharray:none; font-weight:normal; stroke-width:1; font-family:'Open Sans'; font-style:normal; stroke-linejoin:miter; font-size:12; stroke-dashoffset:0; image-rendering:auto;" height="75" class="cas-substance-image"><ns0:svg class="cas-substance-single-component"><ns0:rect y="0" x="0" width="178" stroke="none" ry="7" rx="7" height="75" fill="white" class="cas-substance-group" /><ns0:svg y="0" x="0" width="178" viewBox="0 0 178 75" style="fill:black;" height="75" class="cas-substance-single-component-image"><ns0:svg><ns0:g><ns0:g transform="translate(88,37)" style="text-rendering:geometricPrecision; color-rendering:optimizeQuality; color-interpolation:linearRGB; stroke-linecap:butt; image-rendering:optimizeQuality;"><ns0:line y2="23.5938" y1="0" x2="-52.5" x1="-52.5" style="fill:none;" /><ns0:line y2="0" y1="0" x2="-78.3147" x1="-52.5" style="fill:none;" /><ns0:line y2="-25.2773" y1="0" x2="-52.5" x1="-52.5" style="fill:none;" /><ns0:line y2="0" y1="0" x2="-22.5" x1="-52.5" style="fill:none;" /><ns0:line y2="-19.8752" y1="0" x2="78.9753" x1="67.5" style="fill:none;" /><ns0:line y2="0" y1="0" x2="37.5" x1="67.5" style="fill:none;" /><ns0:line y2="-25.98" y1="0" x2="-7.5" x1="-22.5" style="fill:none;" /><ns0:line y2="-22.48" y1="0.0001" x2="-5.4793" x1="-18.4585" style="fill:none;" /><ns0:line y2="19.8417" y1="0" x2="-11.044" x1="-22.5" style="fill:none;" /><ns0:line y2="-25.98" y1="-25.98" x2="22.5" x1="-7.5" style="fill:none;" /><ns0:line y2="25.98" y1="25.98" x2="22.5" x1="-2.1484" style="fill:none;" /><ns0:line y2="22.48" y1="22.48" x2="20.4793" x1="-2.1484" style="fill:none;" /><ns0:line y2="0" y1="-25.98" x2="37.5" x1="22.5" style="fill:none;" /><ns0:line y2="0.0001" y1="-22.48" x2="33.4585" x1="20.4793" style="fill:none;" /><ns0:line y2="0" y1="25.98" x2="37.5" x1="22.5" style="fill:none;" /></ns0:g><ns0:g transform="translate(88,37)" style="fill:rgb(0,138,0); text-rendering:geometricPrecision; color-rendering:optimizeQuality; image-rendering:optimizeQuality; font-family:'Open Sans'; stroke:rgb(0,138,0); color-interpolation:linearRGB;"><ns0:path style="stroke:none;" d="M-53.8906 34.1562 L-54.8906 34.1562 L-54.8906 25.5938 L-50.1094 25.5938 L-50.1094 26.4688 L-53.8906 26.4688 L-53.8906 29.6094 L-50.3438 29.6094 L-50.3438 30.5 L-53.8906 30.5 L-53.8906 34.1562 Z" /><ns0:path style="stroke:none;" d="M-83.8906 4.1562 L-84.8906 4.1562 L-84.8906 -4.4062 L-80.1094 -4.4062 L-80.1094 -3.5312 L-83.8906 -3.5312 L-83.8906 -0.3906 L-80.3438 -0.3906 L-80.3438 0.5 L-83.8906 0.5 L-83.8906 4.1562 Z" /><ns0:path style="stroke:none;" d="M-53.8906 -25.8438 L-54.8906 -25.8438 L-54.8906 -34.4062 L-50.1094 -34.4062 L-50.1094 -33.5312 L-53.8906 -33.5312 L-53.8906 -30.3906 L-50.3438 -30.3906 L-50.3438 -29.5 L-53.8906 -29.5 L-53.8906 -25.8438 Z" /></ns0:g><ns0:g transform="translate(88,37)" style="stroke-linecap:butt; text-rendering:geometricPrecision; color-rendering:optimizeQuality; image-rendering:optimizeQuality; font-family:'Open Sans'; color-interpolation:linearRGB; stroke-miterlimit:5;"><ns0:path style="fill:none;" d="M67.75 -0.433 L67.5 0 L67 -0" /><ns0:path style="fill:rgb(0,138,0); stroke:none;" d="M82.1914 -29.3394 Q80.7852 -29.3394 79.9648 -28.4019 Q79.1445 -27.4644 79.1445 -25.8237 Q79.1445 -24.1519 79.9336 -23.23 Q80.7227 -22.3081 82.1758 -22.3081 Q83.082 -22.3081 84.2227 -22.6362 L84.2227 -21.7612 Q83.332 -21.4175 82.0352 -21.4175 Q80.1445 -21.4175 79.1133 -22.5737 Q78.082 -23.73 78.082 -25.8394 Q78.082 -27.1675 78.5742 -28.1597 Q79.0664 -29.1519 80.0039 -29.6909 Q80.9414 -30.23 82.207 -30.23 Q83.5508 -30.23 84.5664 -29.7456 L84.1445 -28.8862 Q83.1602 -29.3394 82.1914 -29.3394 ZM86.918 -21.5425 L85.9492 -21.5425 L85.9492 -30.6675 L86.918 -30.6675 L86.918 -21.5425 Z" /><ns0:path style="fill:none;" d="M-22.25 -0.433 L-22.5 0 L-23 -0" /><ns0:path style="fill:none;" d="M-7.75 -25.547 L-7.5 -25.98 L-7 -25.98" /><ns0:path style="fill:rgb(0,5,255); stroke:none;" d="M-4.1484 30.1362 L-5.2891 30.1362 L-9.9766 22.9487 L-10.0234 22.9487 Q-9.9297 24.2144 -9.9297 25.2612 L-9.9297 30.1362 L-10.8516 30.1362 L-10.8516 21.5737 L-9.7266 21.5737 L-5.0547 28.73 L-5.0078 28.73 Q-5.0078 28.5737 -5.0547 27.7144 Q-5.1016 26.855 -5.0859 26.48 L-5.0859 21.5737 L-4.1484 21.5737 L-4.1484 30.1362 Z" /><ns0:path style="fill:none;" d="M22 -25.98 L22.5 -25.98 L22.75 -25.547" /><ns0:path style="fill:none;" d="M22 25.98 L22.5 25.98 L22.75 25.547" /><ns0:path style="fill:none;" d="M37.25 -0.433 L37.5 0 L38 0" /></ns0:g></ns0:g></ns0:svg></ns0:svg></ns0:svg></ns0:svg></g></svg>