<svg xmlns:ns0="http://www.w3.org/2000/svg" xmlns="http://www.w3.org/2000/svg"><g transform="translate(0, 0)"><ns0:svg width="312" viewBox="0 0 312 123" style="fill-opacity:1; color-rendering:auto; color-interpolation:auto; text-rendering:auto; stroke:black; stroke-linecap:square; stroke-miterlimit:10; shape-rendering:auto; stroke-opacity:1; fill:black; stroke-dasharray:none; font-weight:normal; stroke-width:1; font-family:'Open Sans'; font-style:normal; stroke-linejoin:miter; font-size:12; stroke-dashoffset:0; image-rendering:auto;" height="123" class="cas-substance-image"><ns0:svg class="cas-substance-single-component"><ns0:rect y="0" x="0" width="312" stroke="none" ry="7" rx="7" height="123" fill="white" class="cas-substance-group" /><ns0:svg y="0" x="0" width="312" viewBox="0 0 312 123" style="fill:black;" height="123" class="cas-substance-single-component-image"><ns0:svg><ns0:g><ns0:g transform="translate(153,61)" style="text-rendering:geometricPrecision; color-rendering:optimizeQuality; color-interpolation:linearRGB; stroke-linecap:butt; image-rendering:optimizeQuality;"><ns0:line y2="-23.97" y1="-23.97" x2="-84.6484" x1="-64.6433" style="fill:none;" /><ns0:line y2="-0.4466" y1="-17.6263" x2="-61.75" x1="-61.75" style="fill:none;" /><ns0:line y2="-0.4466" y1="-17.6263" x2="-58.25" x1="-58.25" style="fill:none;" /><ns0:line y2="-47.6184" y1="-30.4388" x2="-58.25" x1="-58.25" style="fill:none;" /><ns0:line y2="-47.6184" y1="-30.4388" x2="-61.75" x1="-61.75" style="fill:none;" /><ns0:line y2="-23.97" y1="-23.97" x2="-30" x1="-55.439" style="fill:none;" /><ns0:line y2="2.01" y1="-18.0817" x2="-105" x1="-93.3997" style="fill:none;" /><ns0:path style="stroke:none;" d="M-107 1.3524 L-107 2.6676 L-106 2.5888 L-106 1.4312 L-107 1.3524 ZM-110 1.1161 L-110 2.9039 L-109 2.8251 L-109 1.1949 L-110 1.1161 ZM-113 0.8797 L-113 3.1403 L-112 3.0615 L-112 0.9585 L-113 0.8797 ZM-116 0.6434 L-116 3.3766 L-115 3.2978 L-115 0.7222 L-116 0.6434 ZM-119 0.407 L-119 3.613 L-118 3.5342 L-118 0.4858 L-119 0.407 ZM-122 0.1707 L-122 3.8493 L-121 3.7706 L-121 0.2494 L-122 0.1707 ZM-125 -0.0657 L-125 4.0857 L-124 4.0069 L-124 0.0131 L-125 -0.0657 ZM-128 -0.302 L-128 4.322 L-127 4.2433 L-127 -0.2233 L-128 -0.302 ZM-131 -0.5384 L-131 4.5584 L-130 4.4796 L-130 -0.4596 L-131 -0.5384 ZM-134 -0.7748 L-134 4.7948 L-133 4.716 L-133 -0.696 L-134 -0.7748 Z" /><ns0:line y2="27.99" y1="2.01" x2="-90" x1="-105" style="fill:none;" /><ns0:line y2="-23.97" y1="2.01" x2="-150" x1="-135" style="fill:none;" /><ns0:line y2="27.99" y1="2.01" x2="-150" x1="-135" style="fill:none;" /><ns0:line y2="27.99" y1="27.99" x2="-65.9375" x1="-90" style="fill:none;" /><ns0:line y2="47.3733" y1="26.24" x2="-103.212" x1="-91.0104" style="fill:none;" /><ns0:line y2="49.1233" y1="27.99" x2="-100.181" x1="-87.9793" style="fill:none;" /><ns0:line y2="-23.97" y1="-23.97" x2="120" x1="142.3311" style="fill:none;" /><ns0:line y2="2.01" y1="-23.97" x2="15" x1="30" style="fill:none;" /><ns0:line y2="-1.49" y1="-23.9701" x2="12.9793" x1="25.9585" style="fill:none;" /><ns0:line y2="-49.953" y1="-23.97" x2="15" x1="30" style="fill:none;" /><ns0:line y2="-23.97" y1="-23.97" x2="60" x1="30" style="fill:none;" /><ns0:line y2="2.01" y1="2.01" x2="-15" x1="15" style="fill:none;" /><ns0:line y2="-49.953" y1="-49.953" x2="-15" x1="15" style="fill:none;" /><ns0:line y2="-46.453" y1="-46.453" x2="-12.9793" x1="12.9793" style="fill:none;" /><ns0:line y2="-23.97" y1="2.01" x2="-30" x1="-15" style="fill:none;" /><ns0:line y2="-23.9701" y1="-1.49" x2="-25.9585" x1="-12.9793" style="fill:none;" /><ns0:line y2="-23.97" y1="-49.953" x2="-30" x1="-15" style="fill:none;" /><ns0:line y2="-49.953" y1="-23.97" x2="75" x1="60" style="fill:none;" /><ns0:line y2="-46.4531" y1="-23.9702" x2="77.0209" x1="64.0415" style="fill:none;" /><ns0:line y2="2.01" y1="-23.97" x2="75" x1="60" style="fill:none;" /><ns0:line y2="-49.953" y1="-49.953" x2="105" x1="75" style="fill:none;" /><ns0:line y2="2.01" y1="2.01" x2="105" x1="75" style="fill:none;" /><ns0:line y2="-1.49" y1="-1.49" x2="102.9793" x1="77.0207" style="fill:none;" /><ns0:line y2="-23.97" y1="-49.953" x2="120" x1="105" style="fill:none;" /><ns0:line y2="-23.9702" y1="-46.4531" x2="115.9585" x1="102.9791" style="fill:none;" /><ns0:line y2="-23.97" y1="2.01" x2="120" x1="105" style="fill:none;" /></ns0:g><ns0:g transform="translate(153,61)" style="fill:rgb(148,108,0); text-rendering:geometricPrecision; color-rendering:optimizeQuality; image-rendering:optimizeQuality; font-family:'Open Sans'; stroke:rgb(148,108,0); color-interpolation:linearRGB;"><ns0:path style="stroke:none;" d="M-57.3047 -22.0325 Q-57.3047 -20.9075 -58.125 -20.2669 Q-58.9453 -19.6263 -60.3516 -19.6263 Q-61.8828 -19.6263 -62.6953 -20.0325 L-62.6953 -20.9856 Q-62.1641 -20.7669 -61.5469 -20.6341 Q-60.9297 -20.5013 -60.3203 -20.5013 Q-59.3203 -20.5013 -58.8203 -20.8841 Q-58.3203 -21.2669 -58.3203 -21.9388 Q-58.3203 -22.3763 -58.5 -22.6653 Q-58.6797 -22.9544 -59.0938 -23.1966 Q-59.5078 -23.4388 -60.3672 -23.7356 Q-61.5547 -24.1575 -62.0703 -24.7434 Q-62.5859 -25.3294 -62.5859 -26.2825 Q-62.5859 -27.2669 -61.8438 -27.8528 Q-61.1016 -28.4388 -59.8672 -28.4388 Q-58.6016 -28.4388 -57.5234 -27.97 L-57.8359 -27.1106 Q-58.8984 -27.5481 -59.8984 -27.5481 Q-60.6953 -27.5481 -61.1406 -27.2122 Q-61.5859 -26.8763 -61.5859 -26.2669 Q-61.5859 -25.8294 -61.4219 -25.5403 Q-61.2578 -25.2513 -60.8672 -25.0169 Q-60.4766 -24.7825 -59.6641 -24.4856 Q-58.3203 -24.0169 -57.8125 -23.4622 Q-57.3047 -22.9075 -57.3047 -22.0325 Z" /><ns0:path style="fill:rgb(0,5,255); stroke:none;" d="M-86.6484 -19.8138 L-87.7891 -19.8138 L-92.4766 -27.0013 L-92.5234 -27.0013 Q-92.4297 -25.7356 -92.4297 -24.6888 L-92.4297 -19.8138 L-93.3516 -19.8138 L-93.3516 -28.3763 L-92.2266 -28.3763 L-87.5547 -21.22 L-87.5078 -21.22 Q-87.5078 -21.3763 -87.5547 -22.2356 Q-87.6016 -23.095 -87.5859 -23.47 L-87.5859 -28.3763 L-86.6484 -28.3763 L-86.6484 -19.8138 Z" /><ns0:path style="fill:rgb(0,5,255); stroke:none;" d="M-86.7422 -29.3763 L-87.7422 -29.3763 L-87.7422 -33.4075 L-92.2578 -33.4075 L-92.2578 -29.3763 L-93.2578 -29.3763 L-93.2578 -37.9388 L-92.2578 -37.9388 L-92.2578 -34.2981 L-87.7422 -34.2981 L-87.7422 -37.9388 L-86.7422 -37.9388 L-86.7422 -29.3763 Z" /><ns0:path style="fill:rgb(230,0,0); stroke:none;" d="M-56.0625 5.9597 Q-56.0625 8.0222 -57.1016 9.2019 Q-58.1406 10.3816 -59.9844 10.3816 Q-61.875 10.3816 -62.9062 9.2175 Q-63.9375 8.0534 -63.9375 5.9441 Q-63.9375 3.8503 -62.9062 2.7019 Q-61.875 1.5534 -59.9844 1.5534 Q-58.125 1.5534 -57.0938 2.7253 Q-56.0625 3.8972 -56.0625 5.9597 ZM-62.8906 5.9597 Q-62.8906 7.6941 -62.1484 8.6003 Q-61.4062 9.5066 -59.9844 9.5066 Q-58.5625 9.5066 -57.8359 8.6081 Q-57.1094 7.7097 -57.1094 5.9597 Q-57.1094 4.2253 -57.8359 3.3347 Q-58.5625 2.4441 -59.9844 2.4441 Q-61.4062 2.4441 -62.1484 3.3425 Q-62.8906 4.2409 -62.8906 5.9597 Z" /><ns0:path style="fill:rgb(230,0,0); stroke:none;" d="M-56.0625 -54.0403 Q-56.0625 -51.9778 -57.1016 -50.7981 Q-58.1406 -49.6184 -59.9844 -49.6184 Q-61.875 -49.6184 -62.9062 -50.7825 Q-63.9375 -51.9466 -63.9375 -54.0559 Q-63.9375 -56.1497 -62.9062 -57.2981 Q-61.875 -58.4466 -59.9844 -58.4466 Q-58.125 -58.4466 -57.0938 -57.2747 Q-56.0625 -56.1028 -56.0625 -54.0403 ZM-62.8906 -54.0403 Q-62.8906 -52.3059 -62.1484 -51.3997 Q-61.4062 -50.4934 -59.9844 -50.4934 Q-58.5625 -50.4934 -57.8359 -51.3919 Q-57.1094 -52.2903 -57.1094 -54.0403 Q-57.1094 -55.7747 -57.8359 -56.6653 Q-58.5625 -57.5559 -59.9844 -57.5559 Q-61.4062 -57.5559 -62.1484 -56.6575 Q-62.8906 -55.7591 -62.8906 -54.0403 Z" /></ns0:g><ns0:g transform="translate(153,61)" style="stroke-linecap:butt; text-rendering:geometricPrecision; color-rendering:optimizeQuality; image-rendering:optimizeQuality; font-family:'Open Sans'; color-interpolation:linearRGB; stroke-miterlimit:5;"><ns0:path style="fill:none;" d="M-104.75 1.577 L-105 2.01 L-104.75 2.443" /></ns0:g><ns0:g transform="translate(153,61)" style="stroke-linecap:butt; font-size:8.4px; fill:gray; text-rendering:geometricPrecision; image-rendering:optimizeQuality; color-rendering:optimizeQuality; font-family:'Open Sans'; font-style:italic; stroke:gray; color-interpolation:linearRGB; stroke-miterlimit:5;"><ns0:path style="stroke:none;" d="M-114.1083 -5.4473 Q-114.1083 -6.7754 -113.6395 -7.9004 Q-113.1708 -9.0254 -112.1395 -10.1035 L-111.5302 -10.1035 Q-112.4989 -9.041 -112.9833 -7.8691 Q-113.4677 -6.6973 -113.4677 -5.4629 Q-113.4677 -4.1348 -113.0302 -3.1191 L-113.5458 -3.1191 Q-114.1083 -4.1504 -114.1083 -5.4473 ZM-108.4857 -6.041 Q-108.4857 -5.2129 -109.0326 -4.7598 Q-109.5795 -4.3066 -110.5795 -4.3066 Q-110.9857 -4.3066 -111.2982 -4.3613 Q-111.6107 -4.416 -111.892 -4.5566 L-111.892 -5.2129 Q-111.267 -4.8848 -110.5639 -4.8848 Q-109.9389 -4.8848 -109.5639 -5.1816 Q-109.1889 -5.4785 -109.1889 -5.9941 Q-109.1889 -6.3066 -109.392 -6.5332 Q-109.5951 -6.7598 -110.1576 -7.0879 Q-110.7514 -7.416 -110.9779 -7.7441 Q-111.2045 -8.0723 -111.2045 -8.5254 Q-111.2045 -9.2598 -110.6889 -9.7207 Q-110.1732 -10.1816 -109.3295 -10.1816 Q-108.9545 -10.1816 -108.6186 -10.1035 Q-108.2826 -10.0254 -107.9076 -9.8535 L-108.1732 -9.2598 Q-108.4232 -9.416 -108.7436 -9.5019 Q-109.0639 -9.5879 -109.3295 -9.5879 Q-109.8607 -9.5879 -110.1811 -9.3144 Q-110.5014 -9.041 -110.5014 -8.5723 Q-110.5014 -8.3691 -110.4311 -8.2207 Q-110.3607 -8.0723 -110.2201 -7.9394 Q-110.0795 -7.8066 -109.6576 -7.5566 Q-109.0951 -7.2129 -108.892 -7.0176 Q-108.6889 -6.8223 -108.5873 -6.5879 Q-108.4857 -6.3535 -108.4857 -6.041 ZM-105.8913 -7.7598 Q-105.8913 -6.4316 -106.3678 -5.2988 Q-106.8444 -4.166 -107.86 -3.1191 L-108.4694 -3.1191 Q-106.5319 -5.2754 -106.5319 -7.7598 Q-106.5319 -9.0879 -106.9694 -10.1035 L-106.4538 -10.1035 Q-105.8913 -9.041 -105.8913 -7.7598 Z" /><ns0:path style="fill:none; stroke:black;" d="M-135.25 1.577 L-135 2.01 L-135.25 2.443" /><ns0:path style="fill:none; stroke:black;" d="M-90.25 27.557 L-90 27.99 L-89.5 27.99" /></ns0:g><ns0:g transform="translate(153,61)" style="stroke-linecap:butt; fill:rgb(230,0,0); text-rendering:geometricPrecision; color-rendering:optimizeQuality; image-rendering:optimizeQuality; font-family:'Open Sans'; stroke:rgb(230,0,0); color-interpolation:linearRGB; stroke-miterlimit:5;"><ns0:path style="stroke:none;" d="M-56.0625 27.9197 Q-56.0625 29.9822 -57.1016 31.1619 Q-58.1406 32.3416 -59.9844 32.3416 Q-61.875 32.3416 -62.9062 31.1775 Q-63.9375 30.0134 -63.9375 27.9041 Q-63.9375 25.8103 -62.9062 24.6619 Q-61.875 23.5134 -59.9844 23.5134 Q-58.125 23.5134 -57.0938 24.6853 Q-56.0625 25.8572 -56.0625 27.9197 ZM-62.8906 27.9197 Q-62.8906 29.6541 -62.1484 30.5603 Q-61.4062 31.4666 -59.9844 31.4666 Q-58.5625 31.4666 -57.8359 30.5681 Q-57.1094 29.6697 -57.1094 27.9197 Q-57.1094 26.1853 -57.8359 25.2947 Q-58.5625 24.4041 -59.9844 24.4041 Q-61.4062 24.4041 -62.1484 25.3025 Q-62.8906 26.2009 -62.8906 27.9197 Z" /><ns0:path style="stroke:none;" d="M-48.5469 32.2166 L-49.5469 32.2166 L-49.5469 28.1853 L-54.0625 28.1853 L-54.0625 32.2166 L-55.0625 32.2166 L-55.0625 23.6541 L-54.0625 23.6541 L-54.0625 27.2947 L-49.5469 27.2947 L-49.5469 23.6541 L-48.5469 23.6541 L-48.5469 32.2166 Z" /><ns0:path style="stroke:none;" d="M-101.0625 53.8997 Q-101.0625 55.9622 -102.1016 57.1419 Q-103.1406 58.3216 -104.9844 58.3216 Q-106.875 58.3216 -107.9062 57.1575 Q-108.9375 55.9934 -108.9375 53.8841 Q-108.9375 51.7903 -107.9062 50.6419 Q-106.875 49.4934 -104.9844 49.4934 Q-103.125 49.4934 -102.0938 50.6653 Q-101.0625 51.8372 -101.0625 53.8997 ZM-107.8906 53.8997 Q-107.8906 55.6341 -107.1484 56.5403 Q-106.4062 57.4466 -104.9844 57.4466 Q-103.5625 57.4466 -102.8359 56.5481 Q-102.1094 55.6497 -102.1094 53.8997 Q-102.1094 52.1653 -102.8359 51.2747 Q-103.5625 50.3841 -104.9844 50.3841 Q-106.4062 50.3841 -107.1484 51.2825 Q-107.8906 52.1809 -107.8906 53.8997 Z" /><ns0:path style="fill:rgb(0,138,0); stroke:none;" d="M144.3311 -28.3763 L146.7529 -28.3763 Q148.4561 -28.3763 149.2217 -27.8684 Q149.9873 -27.3606 149.9873 -26.2669 Q149.9873 -25.5013 149.5654 -25.0013 Q149.1436 -24.5013 148.3154 -24.3606 L148.3154 -24.2981 Q150.2686 -23.97 150.2686 -22.2513 Q150.2686 -21.1106 149.4951 -20.4622 Q148.7217 -19.8138 147.3311 -19.8138 L144.3311 -19.8138 L144.3311 -28.3763 ZM145.3311 -24.72 L146.9717 -24.72 Q148.0342 -24.72 148.4951 -25.0481 Q148.9561 -25.3763 148.9561 -26.1575 Q148.9561 -26.8763 148.4404 -27.1966 Q147.9248 -27.5169 146.7998 -27.5169 L145.3311 -27.5169 L145.3311 -24.72 ZM145.3311 -23.8763 L145.3311 -20.6575 L147.1279 -20.6575 Q148.1592 -20.6575 148.6826 -21.0638 Q149.2061 -21.47 149.2061 -22.3294 Q149.2061 -23.1263 148.667 -23.5013 Q148.1279 -23.8763 147.0342 -23.8763 L145.3311 -23.8763 ZM154.9033 -26.3606 Q155.3252 -26.3606 155.6689 -26.2825 L155.5283 -25.3763 Q155.1377 -25.47 154.8252 -25.47 Q154.0439 -25.47 153.4893 -24.8372 Q152.9346 -24.2044 152.9346 -23.2669 L152.9346 -19.8138 L151.9658 -19.8138 L151.9658 -26.2356 L152.7627 -26.2356 L152.8877 -25.0481 L152.9346 -25.0481 Q153.2783 -25.6731 153.7861 -26.0169 Q154.2939 -26.3606 154.9033 -26.3606 Z" /><ns0:path style="fill:none; stroke:black;" d="M29.75 -23.537 L30 -23.97 L29.75 -24.403" /><ns0:path style="fill:none; stroke:black;" d="M15.25 1.577 L15 2.01 L14.5 2.01" /><ns0:path style="fill:none; stroke:black;" d="M15.25 -49.52 L15 -49.953 L14.5 -49.953" /><ns0:path style="fill:none; stroke:black;" d="M-14.5 2.01 L-15 2.01 L-15.25 1.577" /><ns0:path style="fill:none; stroke:black;" d="M-14.5 -49.953 L-15 -49.953 L-15.25 -49.52" /><ns0:path style="fill:none; stroke:black;" d="M-29.75 -23.537 L-30 -23.97 L-29.75 -24.403" /><ns0:path style="fill:none; stroke:black;" d="M60.25 -24.403 L60 -23.97 L59.5 -23.97" /><ns0:path style="fill:none; stroke:black;" d="M74.75 -49.52 L75 -49.953 L75.5 -49.953" /><ns0:path style="fill:none; stroke:black;" d="M74.75 1.577 L75 2.01 L75.5 2.01" /><ns0:path style="fill:none; stroke:black;" d="M104.5 -49.953 L105 -49.953 L105.25 -49.52" /><ns0:path style="fill:none; stroke:black;" d="M104.5 2.01 L105 2.01 L105.25 1.577" /><ns0:path style="fill:none; stroke:black;" d="M119.75 -24.403 L120 -23.97 L119.75 -23.537" /></ns0:g></ns0:g></ns0:svg></ns0:svg></ns0:svg></ns0:svg></g></svg>