<svg xmlns:ns0="http://www.w3.org/2000/svg" xmlns="http://www.w3.org/2000/svg"><g transform="translate(0, 0)"><ns0:svg width="122" viewBox="0 0 122 58" style="fill-opacity:1; color-rendering:auto; color-interpolation:auto; text-rendering:auto; stroke:black; stroke-linecap:square; stroke-miterlimit:10; shape-rendering:auto; stroke-opacity:1; fill:black; stroke-dasharray:none; font-weight:normal; stroke-width:1; font-family:'Open Sans'; font-style:normal; stroke-linejoin:miter; font-size:12; stroke-dashoffset:0; image-rendering:auto;" height="58" class="cas-substance-image"><ns0:svg class="cas-substance-single-component"><ns0:rect y="0" x="0" width="122" stroke="none" ry="7" rx="7" height="58" fill="white" class="cas-substance-group" /><ns0:svg y="0" x="0" width="122" viewBox="0 0 122 58" style="fill:black;" height="58" class="cas-substance-single-component-image"><ns0:svg><ns0:g><ns0:g transform="translate(55,26)" style="text-rendering:geometricPrecision; color-rendering:optimizeQuality; color-interpolation:linearRGB; stroke-linecap:butt; image-rendering:optimizeQuality;"><ns0:line y2="-22.5" y1="-7.5" x2="-25.98" x1="0" style="fill:none;" /><ns0:line y2="-22.5" y1="-7.5" x2="25.98" x1="0" style="fill:none;" /><ns0:line y2="16.0938" y1="-7.5" x2="0" x1="0" style="fill:none;" /><ns0:line y2="-7.5" y1="-22.5" x2="-51.963" x1="-25.98" style="fill:none;" /><ns0:line y2="-10.7412" y1="-22.5" x2="46.3487" x1="25.98" style="fill:none;" /><ns0:path style="fill:none; stroke-miterlimit:5;" d="M-25.547 -22.25 L-25.98 -22.5 L-26.413 -22.25" /><ns0:path style="fill:none; stroke-miterlimit:5;" d="M25.547 -22.25 L25.98 -22.5 L26.413 -22.25" /></ns0:g><ns0:g transform="translate(55,26)" style="stroke-linecap:butt; fill:rgb(0,5,255); text-rendering:geometricPrecision; color-rendering:optimizeQuality; image-rendering:optimizeQuality; font-family:'Open Sans'; stroke:rgb(0,5,255); color-interpolation:linearRGB; stroke-miterlimit:5;"><ns0:path style="stroke:none;" d="M3.3516 26.6562 L2.2109 26.6562 L-2.4766 19.4688 L-2.5234 19.4688 Q-2.4297 20.7344 -2.4297 21.7812 L-2.4297 26.6562 L-3.3516 26.6562 L-3.3516 18.0938 L-2.2266 18.0938 L2.4453 25.25 L2.4922 25.25 Q2.4922 25.0938 2.4453 24.2344 Q2.3984 23.375 2.4141 23 L2.4141 18.0938 L3.3516 18.0938 L3.3516 26.6562 Z" /><ns0:path style="stroke:none;" d="M10.8672 26.6562 L9.8672 26.6562 L9.8672 22.625 L5.3516 22.625 L5.3516 26.6562 L4.3516 26.6562 L4.3516 18.0938 L5.3516 18.0938 L5.3516 21.7344 L9.8672 21.7344 L9.8672 18.0938 L10.8672 18.0938 L10.8672 26.6562 Z" /><ns0:path style="stroke:none;" d="M15.6172 28.4656 L11.8672 28.4656 L11.8672 27.9031 L13.3672 26.3875 Q14.0547 25.7 14.2734 25.4031 Q14.4922 25.1063 14.6016 24.825 Q14.7109 24.5438 14.7109 24.2156 Q14.7109 23.7625 14.4375 23.4969 Q14.1641 23.2313 13.6641 23.2313 Q13.3203 23.2313 13 23.3484 Q12.6797 23.4656 12.2891 23.7625 L11.9453 23.325 Q12.7266 22.6688 13.6641 22.6688 Q14.4609 22.6688 14.9219 23.0828 Q15.3828 23.4969 15.3828 24.1844 Q15.3828 24.7313 15.0781 25.2625 Q14.7734 25.7938 13.9297 26.6063 L12.6797 27.825 L12.6797 27.8563 L15.6172 27.8563 L15.6172 28.4656 Z" /><ns0:path style="fill:rgb(230,0,0); stroke:none;" d="M55.9005 -7.5703 Q55.9005 -5.5078 54.8614 -4.3281 Q53.8224 -3.1484 51.9786 -3.1484 Q50.088 -3.1484 49.0568 -4.3125 Q48.0255 -5.4766 48.0255 -7.5859 Q48.0255 -9.6797 49.0568 -10.8281 Q50.088 -11.9766 51.9786 -11.9766 Q53.838 -11.9766 54.8693 -10.8047 Q55.9005 -9.6328 55.9005 -7.5703 ZM49.0724 -7.5703 Q49.0724 -5.8359 49.8146 -4.9297 Q50.5568 -4.0234 51.9786 -4.0234 Q53.4005 -4.0234 54.1271 -4.9219 Q54.8536 -5.8203 54.8536 -7.5703 Q54.8536 -9.3047 54.1271 -10.1953 Q53.4005 -11.0859 51.9786 -11.0859 Q50.5568 -11.0859 49.8146 -10.1875 Q49.0724 -9.2891 49.0724 -7.5703 Z" /><ns0:path style="fill:rgb(230,0,0); stroke:none;" d="M63.4161 -3.2734 L62.4161 -3.2734 L62.4161 -7.3047 L57.9005 -7.3047 L57.9005 -3.2734 L56.9005 -3.2734 L56.9005 -11.8359 L57.9005 -11.8359 L57.9005 -8.1953 L62.4161 -8.1953 L62.4161 -11.8359 L63.4161 -11.8359 L63.4161 -3.2734 Z" /></ns0:g></ns0:g></ns0:svg></ns0:svg></ns0:svg></ns0:svg></g></svg>