<svg xmlns:ns0="http://www.w3.org/2000/svg" xmlns="http://www.w3.org/2000/svg"><g transform="translate(0, 0)"><ns0:svg width="457" viewBox="0 0 457 101" style="fill-opacity:1; color-rendering:auto; color-interpolation:auto; text-rendering:auto; stroke:black; stroke-linecap:square; stroke-miterlimit:10; shape-rendering:auto; stroke-opacity:1; fill:black; stroke-dasharray:none; font-weight:normal; stroke-width:1; font-family:'Open Sans'; font-style:normal; stroke-linejoin:miter; font-size:12; stroke-dashoffset:0; image-rendering:auto;" height="101" class="cas-substance-image"><ns0:svg class="cas-substance-single-component"><ns0:rect y="0" x="0" width="457" stroke="none" ry="7" rx="7" height="101" fill="white" class="cas-substance-group" /><ns0:svg y="0" x="0" width="457" viewBox="0 0 457 101" style="fill:black;" height="101" class="cas-substance-single-component-image"><ns0:svg><ns0:g><ns0:g transform="translate(229,51)" style="text-rendering:geometricPrecision; color-rendering:optimizeQuality; color-interpolation:linearRGB; stroke-linecap:butt; image-rendering:optimizeQuality;"><ns0:line y2="-2.013" y1="9.7456" x2="39.402" x1="59.7679" style="fill:none;" /><ns0:line y2="-2.013" y1="9.761" x2="91.362" x1="70.9695" style="fill:none;" /><ns0:line y2="12.987" y1="-2.013" x2="13.419" x1="39.402" style="fill:none;" /><ns0:line y2="-2.013" y1="12.987" x2="-12.561" x1="13.419" style="fill:none;" /><ns0:line y2="12.987" y1="-2.013" x2="-38.541" x1="-12.561" style="fill:none;" /><ns0:line y2="0.9221" y1="12.987" x2="-59.4374" x1="-38.541" style="fill:none;" /><ns0:line y2="-4.0337" y1="8.2301" x2="195.285" x1="216.5259" style="fill:none;" /><ns0:line y2="-1.0026" y1="11.2611" x2="193.535" x1="214.7758" style="fill:none;" /><ns0:line y2="-8.6644" y1="-21.2669" x2="-61.2245" x1="-50.6504" style="fill:none;" /><ns0:line y2="-6.4147" y1="-19.0172" x2="-58.5433" x1="-47.9692" style="fill:none;" /><ns0:line y2="-9.366" y1="-31.1151" x2="-172.437" x1="-164.5215" style="fill:none;" /><ns0:line y2="-4.158" y1="-21.1448" x2="-201.984" x1="-216.2365" style="fill:none;" /><ns0:line y2="-32.013" y1="-2.013" x2="143.325" x1="143.325" style="fill:none;" /><ns0:line y2="12.987" y1="-2.013" x2="117.342" x1="143.325" style="fill:none;" /><ns0:line y2="8.9455" y1="-4.0339" x2="117.3422" x1="139.8251" style="fill:none;" /><ns0:line y2="10.0519" y1="-2.013" x2="164.2214" x1="143.325" style="fill:none;" /><ns0:line y2="-47.013" y1="-32.013" x2="117.342" x1="143.325" style="fill:none;" /><ns0:line y2="-42.9715" y1="-29.9921" x2="117.3422" x1="139.8251" style="fill:none;" /><ns0:line y2="-47.013" y1="-32.013" x2="169.305" x1="143.325" style="fill:none;" /><ns0:line y2="-2.013" y1="12.987" x2="91.362" x1="117.342" style="fill:none;" /><ns0:line y2="-2.013" y1="10.0519" x2="195.285" x1="174.3886" style="fill:none;" /><ns0:line y2="-32.013" y1="-47.013" x2="91.362" x1="117.342" style="fill:none;" /><ns0:line y2="-32.013" y1="-47.013" x2="195.285" x1="169.305" style="fill:none;" /><ns0:line y2="-32.013" y1="-2.013" x2="91.362" x1="91.362" style="fill:none;" /><ns0:line y2="-29.9923" y1="-4.0337" x2="94.862" x1="94.862" style="fill:none;" /><ns0:line y2="-32.013" y1="-2.013" x2="195.285" x1="195.285" style="fill:none;" /><ns0:line y2="26.175" y1="4.0226" x2="-74.784" x1="-66.7185" style="fill:none;" /><ns0:line y2="-24.996" y1="-7.5396" x2="-83.805" x1="-69.1581" style="fill:none;" /><ns0:line y2="31.386" y1="26.175" x2="-104.328" x1="-74.784" style="fill:none;" /><ns0:line y2="-19.785" y1="-24.996" x2="-113.349" x1="-83.805" style="fill:none;" /><ns0:line y2="13.932" y1="31.386" x2="-118.9748" x1="-104.328" style="fill:none;" /><ns0:line y2="2.1204" y1="-19.785" x2="-121.3237" x1="-113.349" style="fill:none;" /><ns0:line y2="13.614" y1="9.344" x2="-153.156" x1="-128.9332" style="fill:none;" /><ns0:line y2="-9.366" y1="13.614" x2="-172.437" x1="-153.156" style="fill:none;" /><ns0:line y2="-5.5683" y1="14.3156" x2="-173.8194" x1="-157.1361" style="fill:none;" /><ns0:line y2="41.805" y1="13.614" x2="-163.416" x1="-153.156" style="fill:none;" /><ns0:line y2="-4.158" y1="-9.366" x2="-201.984" x1="-172.437" style="fill:none;" /><ns0:line y2="47.013" y1="41.805" x2="-192.96" x1="-163.416" style="fill:none;" /><ns0:line y2="43.2153" y1="38.709" x2="-191.5776" x1="-166.0136" style="fill:none;" /><ns0:line y2="24.033" y1="-4.158" x2="-212.244" x1="-201.984" style="fill:none;" /><ns0:line y2="23.3311" y1="-1.0621" x2="-208.264" x1="-199.3861" style="fill:none;" /><ns0:line y2="24.033" y1="47.013" x2="-212.244" x1="-192.96" style="fill:none;" /></ns0:g><ns0:g transform="translate(229,51)" style="fill:rgb(230,0,0); text-rendering:geometricPrecision; color-rendering:optimizeQuality; image-rendering:optimizeQuality; font-family:'Open Sans'; stroke:rgb(230,0,0); color-interpolation:linearRGB;"><ns0:path style="stroke:none;" d="M69.3195 12.9167 Q69.3195 14.9792 68.2804 16.1589 Q67.2414 17.3386 65.3976 17.3386 Q63.507 17.3386 62.4757 16.1745 Q61.4445 15.0104 61.4445 12.9011 Q61.4445 10.8073 62.4757 9.6589 Q63.507 8.5104 65.3976 8.5104 Q67.257 8.5104 68.2882 9.6823 Q69.3195 10.8542 69.3195 12.9167 ZM62.4914 12.9167 Q62.4914 14.6511 63.2336 15.5573 Q63.9757 16.4636 65.3976 16.4636 Q66.8195 16.4636 67.5461 15.5651 Q68.2726 14.6667 68.2726 12.9167 Q68.2726 11.1823 67.5461 10.2917 Q66.8195 9.4011 65.3976 9.4011 Q63.9757 9.4011 63.2336 10.2995 Q62.4914 11.1979 62.4914 12.9167 Z" /></ns0:g><ns0:g transform="translate(229,51)" style="stroke-linecap:butt; text-rendering:geometricPrecision; color-rendering:optimizeQuality; image-rendering:optimizeQuality; font-family:'Open Sans'; color-interpolation:linearRGB; stroke-miterlimit:5;"><ns0:path style="fill:none;" d="M39.835 -1.763 L39.402 -2.013 L38.969 -1.763" /><ns0:path style="fill:none;" d="M13.852 12.737 L13.419 12.987 L12.986 12.737" /><ns0:path style="fill:none;" d="M-12.128 -1.763 L-12.561 -2.013 L-12.994 -1.763" /><ns0:path style="fill:none;" d="M-38.108 12.737 L-38.541 12.987 L-38.974 12.737" /><ns0:path style="fill:rgb(230,0,0); stroke:none;" d="M225.2025 12.9167 Q225.2025 14.9792 224.1634 16.1589 Q223.1244 17.3386 221.2806 17.3386 Q219.39 17.3386 218.3587 16.1745 Q217.3275 15.0104 217.3275 12.9011 Q217.3275 10.8073 218.3587 9.6589 Q219.39 8.5104 221.2806 8.5104 Q223.14 8.5104 224.1712 9.6823 Q225.2025 10.8542 225.2025 12.9167 ZM218.3744 12.9167 Q218.3744 14.6511 219.1166 15.5573 Q219.8587 16.4636 221.2806 16.4636 Q222.7025 16.4636 223.4291 15.5651 Q224.1556 14.6667 224.1556 12.9167 Q224.1556 11.1823 223.4291 10.2917 Q222.7025 9.4011 221.2806 9.4011 Q219.8587 9.4011 219.1166 10.2995 Q218.3744 11.1979 218.3744 12.9167 Z" /><ns0:path style="fill:rgb(230,0,0); stroke:none;" d="M-41.2995 -25.0663 Q-41.2995 -23.0038 -42.3386 -21.8241 Q-43.3776 -20.6444 -45.2214 -20.6444 Q-47.112 -20.6444 -48.1432 -21.8085 Q-49.1745 -22.9726 -49.1745 -25.0819 Q-49.1745 -27.1757 -48.1432 -28.3241 Q-47.112 -29.4726 -45.2214 -29.4726 Q-43.362 -29.4726 -42.3307 -28.3007 Q-41.2995 -27.1288 -41.2995 -25.0663 ZM-48.1276 -25.0663 Q-48.1276 -23.3319 -47.3854 -22.4257 Q-46.6432 -21.5194 -45.2214 -21.5194 Q-43.7995 -21.5194 -43.0729 -22.4179 Q-42.3464 -23.3163 -42.3464 -25.0663 Q-42.3464 -26.8007 -43.0729 -27.6913 Q-43.7995 -28.5819 -45.2214 -28.5819 Q-46.6432 -28.5819 -47.3854 -27.6835 Q-48.1276 -26.7851 -48.1276 -25.0663 Z" /><ns0:path style="fill:rgb(0,138,0); stroke:none;" d="M-162.4856 -40.9164 Q-163.8918 -40.9164 -164.7122 -39.9789 Q-165.5325 -39.0414 -165.5325 -37.4007 Q-165.5325 -35.7289 -164.7434 -34.807 Q-163.9543 -33.8851 -162.5012 -33.8851 Q-161.595 -33.8851 -160.4543 -34.2132 L-160.4543 -33.3382 Q-161.345 -32.9945 -162.6418 -32.9945 Q-164.5325 -32.9945 -165.5637 -34.1507 Q-166.595 -35.307 -166.595 -37.4164 Q-166.595 -38.7445 -166.1028 -39.7367 Q-165.6106 -40.7289 -164.6731 -41.2679 Q-163.7356 -41.807 -162.47 -41.807 Q-161.1262 -41.807 -160.1106 -41.3226 L-160.5325 -40.4632 Q-161.5168 -40.9164 -162.4856 -40.9164 ZM-157.759 -33.1195 L-158.7278 -33.1195 L-158.7278 -42.2445 L-157.759 -42.2445 L-157.759 -33.1195 Z" /><ns0:path style="fill:rgb(0,138,0); stroke:none;" d="M-221.5736 -30.4974 Q-222.9798 -30.4974 -223.8002 -29.5599 Q-224.6205 -28.6224 -224.6205 -26.9818 Q-224.6205 -25.3099 -223.8314 -24.388 Q-223.0423 -23.4661 -221.5892 -23.4661 Q-220.683 -23.4661 -219.5423 -23.7943 L-219.5423 -22.9193 Q-220.433 -22.5755 -221.7298 -22.5755 Q-223.6205 -22.5755 -224.6517 -23.7318 Q-225.683 -24.888 -225.683 -26.9974 Q-225.683 -28.3255 -225.1908 -29.3177 Q-224.6986 -30.3099 -223.7611 -30.8489 Q-222.8236 -31.388 -221.558 -31.388 Q-220.2142 -31.388 -219.1986 -30.9036 L-219.6205 -30.0443 Q-220.6048 -30.4974 -221.5736 -30.4974 ZM-216.847 -22.7005 L-217.8158 -22.7005 L-217.8158 -31.8255 L-216.847 -31.8255 L-216.847 -22.7005 Z" /><ns0:path style="fill:none;" d="M142.892 -1.763 L143.325 -2.013 L143.758 -1.763" /><ns0:path style="fill:none;" d="M142.892 -32.263 L143.325 -32.013 L143.325 -31.513" /><ns0:path style="fill:none;" d="M117.775 12.737 L117.342 12.987 L116.909 12.737" /><ns0:path style="fill:rgb(0,5,255); stroke:none;" d="M172.6566 17.1432 L171.5159 17.1432 L166.8284 9.9557 L166.7816 9.9557 Q166.8753 11.2214 166.8753 12.2682 L166.8753 17.1432 L165.9534 17.1432 L165.9534 8.5807 L167.0784 8.5807 L171.7503 15.737 L171.7972 15.737 Q171.7972 15.5807 171.7503 14.7214 Q171.7034 13.862 171.7191 13.487 L171.7191 8.5807 L172.6566 8.5807 L172.6566 17.1432 Z" /><ns0:path style="fill:rgb(0,5,255); stroke:none;" d="M172.5628 26.7057 L171.5628 26.7057 L171.5628 22.6745 L167.0472 22.6745 L167.0472 26.7057 L166.0472 26.7057 L166.0472 18.1432 L167.0472 18.1432 L167.0472 21.7839 L171.5628 21.7839 L171.5628 18.1432 L172.5628 18.1432 L172.5628 26.7057 Z" /><ns0:path style="fill:none;" d="M117.775 -46.763 L117.342 -47.013 L116.909 -46.763" /><ns0:path style="fill:none;" d="M168.872 -46.763 L169.305 -47.013 L169.738 -46.763" /><ns0:path style="fill:none;" d="M91.362 -2.513 L91.362 -2.013 L90.929 -1.763" /><ns0:path style="fill:none;" d="M194.852 -1.763 L195.285 -2.013 L195.285 -2.513" /><ns0:path style="fill:none;" d="M91.795 -32.263 L91.362 -32.013 L91.362 -31.513" /><ns0:path style="fill:none;" d="M194.852 -32.263 L195.285 -32.013 L195.285 -31.513" /><ns0:path style="fill:rgb(0,5,255); stroke:none;" d="M-61.1694 2.1432 L-62.3101 2.1432 L-66.9976 -5.0443 L-67.0444 -5.0443 Q-66.9507 -3.7786 -66.9507 -2.7318 L-66.9507 2.1432 L-67.8726 2.1432 L-67.8726 -6.4193 L-66.7476 -6.4193 L-62.0757 0.737 L-62.0288 0.737 Q-62.0288 0.5807 -62.0757 -0.2786 Q-62.1226 -1.138 -62.1069 -1.513 L-62.1069 -6.4193 L-61.1694 -6.4193 L-61.1694 2.1432 Z" /><ns0:path style="fill:none;" d="M-74.6129 25.7052 L-74.784 26.175 L-75.2764 26.2618" /><ns0:path style="fill:none;" d="M-83.4836 -24.613 L-83.805 -24.996 L-84.2974 -24.9091" /><ns0:path style="fill:none;" d="M-103.8356 31.2992 L-104.328 31.386 L-104.6494 31.003" /><ns0:path style="fill:none;" d="M-112.8566 -19.8718 L-113.349 -19.785 L-113.52 -19.3152" /><ns0:path style="fill:rgb(0,5,255); stroke:none;" d="M-120.2604 12.5623 L-121.4011 12.5623 L-126.0886 5.3748 L-126.1354 5.3748 Q-126.0417 6.6404 -126.0417 7.6873 L-126.0417 12.5623 L-126.9636 12.5623 L-126.9636 3.9998 L-125.8386 3.9998 L-121.1667 11.156 L-121.1198 11.156 Q-121.1198 10.9998 -121.1667 10.1404 Q-121.2136 9.281 -121.1979 8.906 L-121.1979 3.9998 L-120.2604 3.9998 L-120.2604 12.5623 Z" /><ns0:path style="fill:none;" d="M-153.4774 13.231 L-153.156 13.614 L-152.6636 13.5272" /><ns0:path style="fill:none;" d="M-172.1156 -8.983 L-172.437 -9.366 L-172.266 -9.8358" /><ns0:path style="fill:none;" d="M-163.245 41.3352 L-163.416 41.805 L-163.9084 41.8918" /><ns0:path style="fill:none;" d="M-202.155 -3.6881 L-201.984 -4.158 L-202.3054 -4.541" /><ns0:path style="fill:none;" d="M-192.4676 46.9262 L-192.96 47.013 L-193.2814 46.63" /><ns0:path style="fill:none;" d="M-212.073 23.5632 L-212.244 24.033 L-211.9226 24.416" /></ns0:g></ns0:g></ns0:svg></ns0:svg></ns0:svg></ns0:svg></g></svg>