<svg width="389" viewBox="0 0 389 310" style="fill-opacity:1; color-rendering:auto; color-interpolation:auto; text-rendering:auto; stroke:black; stroke-linecap:square; stroke-miterlimit:10; shape-rendering:auto; stroke-opacity:1; fill:black; stroke-dasharray:none; font-weight:normal; stroke-width:1; font-family:'Open Sans'; font-style:normal; stroke-linejoin:miter; font-size:12; stroke-dashoffset:0; image-rendering:auto;" height="310" class="cas-substance-image" xmlns:xlink="http://www.w3.org/1999/xlink" xmlns="http://www.w3.org/2000/svg"><svg class="cas-substance-single-component"><rect y="0" x="0" width="389" stroke="none" ry="7" rx="7" height="310" fill="white" class="cas-substance-group"/><svg y="0" x="0" width="389" viewBox="0 0 389 310" style="fill:black;" height="310" class="cas-substance-single-component-image"><svg><g><clipPath id="clipPath_a380e34125df41f38402438f161411121" clipPathUnits="userSpaceOnUse"><path d="M88.7428 -45.5549 L88.7012 -5.5549 L125.1092 -5.5171 L125.1508 -45.5171 L110.5486 -45.5322 L110.5486 -45.5322 L99.2036 -7.5098 L93.454 -9.2253 L104.2891 -45.5387 L104.2891 -45.5387 L88.7428 -45.5549 Z"/></clipPath><clipPath id="clipPath_a380e34125df41f38402438f161411122" clipPathUnits="userSpaceOnUse"><path d="M-88.7875 42.0603 L-123.4089 62.0942 L-115.622 75.551 L-89.5954 48.014 L-85.2349 52.1353 L-112.4869 80.9689 L-105.1745 93.6057 L-70.5531 73.5718 L-88.7875 42.0603 Z"/></clipPath><g transform="translate(196,155)" style="text-rendering:geometricPrecision; color-rendering:optimizeQuality; color-interpolation:linearRGB; stroke-linecap:butt; image-rendering:optimizeQuality;"><path style="stroke:none;" d="M50.98 3.911 L50.114 4.411 L36.2028 -14.6832 L41.3989 -17.6833 Z"/><line y2="4.161" y1="4.161" x2="80.547" x1="50.547" style="fill:none;"/><line y2="30.141" y1="4.161" x2="35.547" x1="50.547" style="fill:none;"/><line y2="-21.819" y1="-21.819" x2="5.547" x1="29.6095" style="fill:none;"/><line y2="-45.843" y1="-61.959" x2="189.453" x1="164.151" style="fill:none;"/><path style="stroke:none;" d="M137.7719 -47.6645 L137.3102 -48.5515 L161.4976 -64.2419 L167.3416 -60.5196 Z"/><line y2="108.084" y1="87.7397" x2="140.547" x1="128.8009" style="fill:none;"/><line y2="82.104" y1="82.104" x2="95.547" x1="119.6095" style="fill:none;"/><line y2="-75.532" y1="-75.532" x2="4.5366" x1="29.6095" style="fill:none;"/><line y2="-72.032" y1="-72.032" x2="4.5367" x1="29.6095" style="fill:none;"/><path style="stroke:none;" d="M-99.02 4.411 L-99.886 3.911 L-90.312 -17.6711 L-85.1159 -14.671 Z"/><line y2="-21.819" y1="-21.819" x2="-54.453" x1="-78.5155" style="fill:none;"/><line y2="30.141" y1="4.161" x2="-84.453" x1="-99.453" style="fill:none;"/><line y2="4.161" y1="4.161" x2="-129.453" x1="-99.453" style="fill:none;"/><line y2="-72.032" y1="-72.032" x2="-53.4427" x1="-78.5155" style="fill:none;"/><line y2="-75.532" y1="-75.532" x2="-53.4426" x1="-78.5155" style="fill:none;"/><line y2="151.722" y1="135.606" x2="-125.217" x1="-99.915" style="fill:none;"/><path style="stroke:none;" d="M-100.5886 106.6065 L-101.7548 106.6584 L-101.7548 106.6584 L-101.79 107.661 L-101.79 107.661 L-100.4568 107.6016 L-100.4568 107.6016 L-100.5886 106.6065 ZM-100.1931 109.5918 L-101.8604 109.666 L-101.8604 109.666 L-101.8956 110.6685 L-101.8956 110.6685 L-100.0613 110.5868 L-100.0613 110.5868 L-100.1931 109.5918 ZM-99.7976 112.577 L-101.966 112.6735 L-101.966 112.6735 L-102.0012 113.676 L-102.0012 113.676 L-99.6658 113.5721 L-99.6658 113.5721 L-99.7976 112.577 ZM-99.4021 115.5622 L-102.0717 115.6811 L-102.0717 115.6811 L-102.1069 116.6836 L-102.1069 116.6836 L-99.2703 116.5573 L-99.2703 116.5573 L-99.4021 115.5622 ZM-99.0066 118.5475 L-102.1773 118.6886 L-102.1773 118.6886 L-102.2125 119.6911 L-102.2125 119.6911 L-98.8748 119.5425 L-99.0066 118.5475 ZM-98.6111 121.5327 L-102.2829 121.6962 L-102.2829 121.6962 L-102.3181 122.6987 L-102.3181 122.6987 L-98.4793 122.5278 L-98.4793 122.5278 L-98.6111 121.5327 ZM-98.2156 124.5179 L-102.3885 124.7037 L-102.3885 124.7037 L-102.4238 125.7062 L-102.4238 125.7062 L-98.0838 125.513 L-98.0838 125.513 L-98.2156 124.5179 ZM-97.8201 127.5032 L-102.4942 127.7113 L-102.4942 127.7113 L-102.5294 128.7138 L-102.5294 128.7138 L-97.6883 128.4983 L-97.6883 128.4983 L-97.8201 127.5032 ZM-97.4246 130.4884 L-102.5998 130.7188 L-102.5998 130.7188 L-102.635 131.7213 L-102.635 131.7213 L-97.2928 131.4835 L-97.2928 131.4835 L-97.4246 130.4884 ZM-97.0291 133.4737 L-102.7054 133.7263 L-102.7054 133.7263 L-102.7406 134.7289 L-102.7406 134.7289 L-98.2221 134.5277 L-98.2221 134.5277 L-96.9932 133.7449 L-96.9932 133.7449 L-96.9932 133.7449 L-97.0291 133.4737 Z"/><line y2="-125.742" y1="-105.4896" x2="-144.453" x1="-132.7599" style="fill:none;"/><line y2="-73.782" y1="-94.114" x2="-144.453" x1="-132.714" style="fill:none;"/><line y2="-19.5387" y1="4.161" x2="90.0589" x1="80.547" style="fill:none;"/><path style="stroke:none;" d="M80.8926 4.5223 L80.2014 3.7997 L99.6136 -17.6278 L96.1466 -6.0083 Z"/><path style="clip-path:url(#clipPath_a380e34125df41f38402438f161411121); stroke:none;" d="M97.823 -25.0454 L97.8241 -26.0454 L123.9315 -28.2278 L119.6417 -22.2323 Z"/><line y2="-48.792" y1="-30.7467" x2="71.484" x1="87.78" style="fill:none;"/><line y2="-47.805" y1="-11.961" x2="108.096" x1="97.401" style="fill:none;"/><line y2="-48.108" y1="-25.521" x2="137.541" x1="121.38" style="fill:none;"/><line y2="-71.799" y1="-48.792" x2="86.055" x1="71.484" style="fill:none;"/><line y2="-48.108" y1="-47.805" x2="137.541" x1="108.096" style="fill:none;"/><line y2="-71.799" y1="-47.805" x2="86.055" x1="108.096" style="fill:none;"/><line y2="56.124" y1="30.141" x2="50.547" x1="35.547" style="fill:none;"/><line y2="30.141" y1="30.141" x2="5.547" x1="35.547" style="fill:none;"/><line y2="33.641" y1="33.641" x2="7.5677" x1="33.5263" style="fill:none;"/><line y2="82.104" y1="56.124" x2="35.547" x1="50.547" style="fill:none;"/><line y2="82.104" y1="59.624" x2="39.5885" x1="52.5677" style="fill:none;"/><line y2="56.124" y1="56.124" x2="80.547" x1="50.547" style="fill:none;"/><line y2="56.124" y1="30.141" x2="-9.453" x1="5.547" style="fill:none;"/><line y2="108.084" y1="82.104" x2="50.547" x1="35.547" style="fill:none;"/><line y2="82.104" y1="82.104" x2="10.8986" x1="35.547" style="fill:none;"/><line y2="82.104" y1="56.124" x2="95.547" x1="80.547" style="fill:none;"/><line y2="82.104" y1="59.624" x2="91.5056" x1="78.5263" style="fill:none;"/><line y2="75.9657" y1="56.124" x2="2.003" x1="-9.453" style="fill:none;"/><line y2="74.2157" y1="56.124" x2="5.034" x1="-5.4115" style="fill:none;"/><line y2="108.084" y1="108.084" x2="80.547" x1="50.547" style="fill:none;"/><line y2="104.584" y1="104.584" x2="78.5263" x1="52.5677" style="fill:none;"/><line y2="108.084" y1="82.104" x2="80.547" x1="95.547" style="fill:none;"/><line y2="-47.799" y1="-21.819" x2="-9.453" x1="5.547" style="fill:none;"/><line y2="-44.299" y1="-21.8189" x2="-11.4737" x1="1.5055" style="fill:none;"/><line y2="4.161" y1="-21.819" x2="-9.453" x1="5.547" style="fill:none;"/><line y2="-47.799" y1="-47.799" x2="-39.453" x1="-9.453" style="fill:none;"/><line y2="-73.782" y1="-47.799" x2="5.547" x1="-9.453" style="fill:none;"/><line y2="4.161" y1="4.161" x2="-39.453" x1="-9.453" style="fill:none;"/><line y2="0.661" y1="0.661" x2="-37.4323" x1="-11.4737" style="fill:none;"/><line y2="-21.819" y1="-47.799" x2="-54.453" x1="-39.453" style="fill:none;"/><line y2="-21.8189" y1="-44.299" x2="-50.4115" x1="-37.4323" style="fill:none;"/><line y2="-73.782" y1="-47.799" x2="-54.453" x1="-39.453" style="fill:none;"/><line y2="-99.762" y1="-73.782" x2="-9.453" x1="5.547" style="fill:none;"/><line y2="-21.819" y1="4.161" x2="-54.453" x1="-39.453" style="fill:none;"/><line y2="-99.762" y1="-73.782" x2="-39.453" x1="-54.453" style="fill:none;"/><line y2="-99.762" y1="-99.762" x2="-39.453" x1="-9.453" style="fill:none;"/><line y2="-125.742" y1="-99.762" x2="5.547" x1="-9.453" style="fill:none;"/><line y2="-125.7421" y1="-103.262" x2="1.5055" x1="-11.4737" style="fill:none;"/><line y2="-125.742" y1="-99.762" x2="-54.453" x1="-39.453" style="fill:none;"/><line y2="-125.7421" y1="-103.262" x2="-50.4115" x1="-37.4323" style="fill:none;"/><line y2="-151.722" y1="-125.742" x2="-9.453" x1="5.547" style="fill:none;"/><line y2="-151.722" y1="-125.742" x2="-39.453" x1="-54.453" style="fill:none;"/><line y2="-151.722" y1="-151.722" x2="-39.453" x1="-9.453" style="fill:none;"/><line y2="-148.222" y1="-148.222" x2="-37.4323" x1="-11.4737" style="fill:none;"/><line y2="49.4801" y1="30.141" x2="-99.6335" x1="-84.453" style="fill:none;"/><path style="stroke:none;" d="M-85.1525 30.6528 L-85.4749 31.6036 L-84.1384 31.9297 L-84.0355 30.9253 L-84.0355 30.9253 L-85.1525 30.6528 ZM-86.1197 33.5052 L-86.442 34.4559 L-86.442 34.4559 L-84.4472 34.9426 L-84.4472 34.9426 L-84.3443 33.9383 L-84.3443 33.9383 L-86.1197 33.5052 ZM-87.0868 36.3575 L-87.4092 37.3083 L-87.4092 37.3083 L-84.756 37.9556 L-84.756 37.9556 L-84.653 36.9513 L-84.653 36.9513 L-87.0868 36.3575 ZM-88.054 39.2098 L-88.3764 40.1606 L-85.0647 40.9686 L-85.0647 40.9686 L-84.9618 39.9643 L-84.9618 39.9643 L-88.054 39.2098 ZM-89.0211 42.0622 L-89.3435 43.013 L-89.3435 43.013 L-85.3735 43.9815 L-85.3735 43.9815 L-85.2706 42.9772 L-85.2706 42.9772 L-89.0211 42.0622 ZM-89.9883 44.9145 L-90.3107 45.8653 L-90.3107 45.8653 L-85.6823 46.9945 L-85.6823 46.9945 L-85.5793 45.9902 L-85.5793 45.9902 L-89.9883 44.9145 ZM-90.9555 47.7669 L-91.2778 48.7176 L-91.2778 48.7176 L-87.0967 49.7377 L-87.0967 49.7377 L-86.3061 48.9012 L-86.3061 48.9012 L-90.9555 47.7669 ZM-91.9226 50.6192 L-92.245 51.57 L-89.4687 52.2473 L-89.4687 52.2473 L-88.678 51.4108 L-91.9226 50.6192 Z"/><path style="clip-path:url(#clipPath_a380e34125df41f38402438f161411122); stroke:none;" d="M-99.4347 62.2062 L-100.607 62.8847 L-100.1954 63.8018 L-98.8254 63.009 L-98.8254 63.009 L-99.4347 62.2062 ZM-97.607 64.6146 L-99.3722 65.6361 L-99.3722 65.6361 L-98.9606 66.5533 L-98.9606 66.5533 L-96.9978 65.4174 L-96.9978 65.4174 L-97.607 64.6146 ZM-95.7793 67.0229 L-98.1374 68.3876 L-98.1374 68.3876 L-97.7258 69.3048 L-97.7258 69.3048 L-95.1701 67.8257 L-95.1701 67.8257 L-95.7793 67.0229 ZM-93.9517 69.4313 L-96.9026 71.1391 L-96.9026 71.1391 L-96.491 72.0562 L-93.3424 70.2341 L-93.3424 70.2341 L-93.9517 69.4313 ZM-92.124 71.8397 L-95.6678 73.8905 L-95.6678 73.8905 L-95.2562 74.8077 L-91.5148 72.6425 L-91.5148 72.6425 L-92.124 71.8397 ZM-90.2963 74.248 L-94.433 76.642 L-94.433 76.642 L-94.0214 77.5591 L-94.0214 77.5591 L-89.6871 75.0508 L-89.6871 75.0508 L-90.2963 74.248 ZM-88.4686 76.6564 L-93.1982 79.3935 L-93.1982 79.3935 L-92.7866 80.3106 L-92.7866 80.3106 L-88.6375 77.9095 L-88.6375 77.9095 L-88.2184 76.9861 L-88.4686 76.6564 Z"/><line y2="48.768" y1="54.187" x2="-134.844" x1="-109.5273" style="fill:none;"/><line y2="79.983" y1="52.8" x2="-115.683" x1="-89.991" style="fill:none;"/><line y2="105.633" y1="80.343" x2="-101.22" x1="-89.742" style="fill:none;"/><line y2="72.894" y1="48.768" x2="-147.483" x1="-134.844" style="fill:none;"/><line y2="105.633" y1="79.983" x2="-101.22" x1="-115.683" style="fill:none;"/><line y2="72.894" y1="79.983" x2="-147.483" x1="-115.683" style="fill:none;"/><line y2="-21.819" y1="4.161" x2="-144.453" x1="-129.453" style="fill:none;"/><line y2="30.141" y1="4.161" x2="-144.453" x1="-129.453" style="fill:none;"/><line y2="26.641" y1="4.1609" x2="-146.4737" x1="-133.4945" style="fill:none;"/><line y2="-21.819" y1="-21.819" x2="-174.453" x1="-144.453" style="fill:none;"/><line y2="-18.319" y1="-18.319" x2="-172.4323" x1="-146.4737" style="fill:none;"/><line y2="-47.799" y1="-21.819" x2="-129.453" x1="-144.453" style="fill:none;"/><line y2="30.141" y1="30.141" x2="-174.453" x1="-144.453" style="fill:none;"/><line y2="-47.799" y1="-21.819" x2="-189.453" x1="-174.453" style="fill:none;"/><line y2="-1.9773" y1="-21.819" x2="-185.909" x1="-174.453" style="fill:none;"/><line y2="-73.782" y1="-47.799" x2="-144.453" x1="-129.453" style="fill:none;"/><line y2="-70.2821" y1="-47.7992" x2="-146.4739" x1="-133.4945" style="fill:none;"/><line y2="10.0493" y1="30.141" x2="-186.0533" x1="-174.453" style="fill:none;"/><line y2="8.2993" y1="26.641" x2="-183.0222" x1="-172.4323" style="fill:none;"/><line y2="-73.782" y1="-47.799" x2="-174.453" x1="-189.453" style="fill:none;"/><line y2="-70.2821" y1="-47.7992" x2="-172.4321" x1="-185.4115" style="fill:none;"/><line y2="-73.782" y1="-73.782" x2="-174.453" x1="-144.453" style="fill:none;"/><path style="stroke:none;" d="M81.307 4.5313 L80.254 4.9543 L80.5267 5.9223 L81.7792 5.4192 L81.307 4.5313 ZM82.7235 7.1949 L81.072 7.8583 L81.3447 8.8263 L83.1957 8.0828 L82.7235 7.1949 ZM84.1401 9.8585 L81.8901 10.7623 L82.1628 11.7303 L84.6123 10.7464 L84.6123 10.7464 L84.1401 9.8585 ZM85.5566 12.5221 L82.7081 13.6664 L82.9808 14.6344 L86.0288 13.41 L85.5566 12.5221 ZM86.9732 15.1857 L83.5262 16.5704 L83.7988 17.5384 L87.4454 16.0736 L87.4454 16.0736 L86.9732 15.1857 ZM88.3897 17.8493 L84.3442 19.4744 L84.6169 20.4424 L88.8619 18.7372 L88.8619 18.7372 L88.3897 17.8493 ZM89.8063 20.513 L85.1623 22.3784 L85.4349 23.3464 L85.4349 23.3464 L90.2784 21.4008 L90.2784 21.4008 L89.8063 20.513 ZM91.2228 23.1766 L85.9803 25.2824 L85.9803 25.2824 L86.253 26.2504 L86.253 26.2504 L91.695 24.0644 L91.2228 23.1766 Z"/><path style="stroke:none;" d="M108.5548 -47.6063 L107.6372 -48.0037 L114.6727 -70.534 L120.1783 -68.149 Z"/><path style="stroke:none;" d="M-84.3823 30.636 L-84.5237 29.646 L-60.4149 23.6772 L-59.5665 29.617 Z"/><path style="stroke:none;" d="M-117.2951 80.9875 L-117.9802 81.7246 L-117.9802 81.7246 L-116.6838 82.6861 L-116.6838 82.6861 L-116.177 81.8168 L-116.177 81.8168 L-117.2951 80.9875 ZM-119.3504 83.1988 L-120.0356 83.9359 L-118.2044 85.294 L-118.2044 85.294 L-117.6975 84.4247 L-117.6975 84.4247 L-119.3504 83.1988 ZM-121.4058 85.4102 L-122.0909 86.1473 L-122.0909 86.1473 L-119.725 87.9019 L-119.725 87.9019 L-119.2181 87.0326 L-121.4058 85.4102 ZM-123.4611 87.6215 L-124.1462 88.3586 L-124.1462 88.3586 L-121.2455 90.5099 L-120.7387 89.6406 L-120.7387 89.6406 L-123.4611 87.6215 ZM-125.5164 89.8328 L-126.2015 90.5699 L-122.7661 93.1178 L-122.2592 92.2485 L-125.5164 89.8328 ZM-127.5718 92.0441 L-128.2569 92.7812 L-128.2569 92.7812 L-124.2867 95.7257 L-124.2867 95.7257 L-123.7798 94.8564 L-123.7798 94.8564 L-127.5718 92.0441 ZM-129.6271 94.2554 L-130.3122 94.9925 L-130.3122 94.9925 L-125.8072 98.3336 L-125.8072 98.3336 L-125.3004 97.4643 L-125.3004 97.4643 L-129.6271 94.2554 Z"/></g><g transform="translate(196,155)" style="font-size:8.4px; fill:gray; text-rendering:geometricPrecision; image-rendering:optimizeQuality; color-rendering:optimizeQuality; font-family:'Open Sans'; font-style:italic; stroke:gray; color-interpolation:linearRGB;"><path style="stroke:none;" d="M51.1585 -3.3351 Q51.1585 -4.6633 51.6272 -5.7883 Q52.096 -6.9133 53.1272 -7.9914 L53.7366 -7.9914 Q52.7678 -6.9289 52.2835 -5.757 Q51.7991 -4.5851 51.7991 -3.3508 Q51.7991 -2.0226 52.2366 -1.007 L51.721 -1.007 Q51.1585 -2.0383 51.1585 -3.3351 ZM54.7185 -4.6476 L54.2185 -2.2726 L53.5623 -2.2726 L54.7654 -7.9914 L56.0154 -7.9914 Q57.7498 -7.9914 57.7498 -6.5539 Q57.7498 -5.1945 56.3123 -4.8039 L57.2498 -2.2726 L56.531 -2.2726 L55.7029 -4.6476 L54.7185 -4.6476 ZM55.2967 -7.3976 Q54.906 -5.4758 54.8435 -5.2258 L55.4998 -5.2258 Q56.2498 -5.2258 56.656 -5.5539 Q57.0623 -5.882 57.0623 -6.507 Q57.0623 -6.9758 56.8045 -7.1867 Q56.5467 -7.3976 55.9529 -7.3976 L55.2967 -7.3976 ZM59.9358 -5.6476 Q59.9358 -4.3195 59.4592 -3.1867 Q58.9826 -2.0539 57.967 -1.007 L57.3576 -1.007 Q59.2951 -3.1633 59.2951 -5.6476 Q59.2951 -6.9758 58.8576 -7.9914 L59.3733 -7.9914 Q59.9358 -6.9289 59.9358 -5.6476 Z"/></g><g transform="translate(196,155)" style="fill:rgb(230,0,0); text-rendering:geometricPrecision; color-rendering:optimizeQuality; image-rendering:optimizeQuality; font-family:'Open Sans'; stroke:rgb(230,0,0); color-interpolation:linearRGB;"><path style="stroke:none;" d="M39.4845 -21.8893 Q39.4845 -19.8268 38.4454 -18.6471 Q37.4064 -17.4674 35.5626 -17.4674 Q33.672 -17.4674 32.6408 -18.6315 Q31.6095 -19.7956 31.6095 -21.9049 Q31.6095 -23.9987 32.6408 -25.1471 Q33.672 -26.2956 35.5626 -26.2956 Q37.422 -26.2956 38.4533 -25.1237 Q39.4845 -23.9518 39.4845 -21.8893 ZM32.6564 -21.8893 Q32.6564 -20.1549 33.3986 -19.2487 Q34.1408 -18.3424 35.5626 -18.3424 Q36.9845 -18.3424 37.7111 -19.2409 Q38.4376 -20.1393 38.4376 -21.8893 Q38.4376 -23.6237 37.7111 -24.5143 Q36.9845 -25.4049 35.5626 -25.4049 Q34.1408 -25.4049 33.3986 -24.5065 Q32.6564 -23.6081 32.6564 -21.8893 Z"/><path style="stroke:none;" d="M129.4845 82.0337 Q129.4845 84.0962 128.4454 85.2759 Q127.4064 86.4556 125.5626 86.4556 Q123.672 86.4556 122.6407 85.2915 Q121.6095 84.1274 121.6095 82.0181 Q121.6095 79.9243 122.6407 78.7759 Q123.672 77.6274 125.5626 77.6274 Q127.422 77.6274 128.4532 78.7993 Q129.4845 79.9712 129.4845 82.0337 ZM122.6564 82.0337 Q122.6564 83.7681 123.3986 84.6743 Q124.1407 85.5806 125.5626 85.5806 Q126.9845 85.5806 127.7111 84.6821 Q128.4376 83.7837 128.4376 82.0337 Q128.4376 80.2993 127.7111 79.4087 Q126.9845 78.5181 125.5626 78.5181 Q124.1407 78.5181 123.3986 79.4165 Q122.6564 80.3149 122.6564 82.0337 Z"/><path style="stroke:none;" d="M39.4845 -73.8523 Q39.4845 -71.7898 38.4454 -70.6101 Q37.4064 -69.4304 35.5626 -69.4304 Q33.672 -69.4304 32.6408 -70.5945 Q31.6095 -71.7586 31.6095 -73.8679 Q31.6095 -75.9617 32.6408 -77.1101 Q33.672 -78.2586 35.5626 -78.2586 Q37.422 -78.2586 38.4533 -77.0867 Q39.4845 -75.9148 39.4845 -73.8523 ZM32.6564 -73.8523 Q32.6564 -72.1179 33.3986 -71.2117 Q34.1408 -70.3054 35.5626 -70.3054 Q36.9845 -70.3054 37.7111 -71.2039 Q38.4376 -72.1023 38.4376 -73.8523 Q38.4376 -75.5867 37.7111 -76.4773 Q36.9845 -77.3679 35.5626 -77.3679 Q34.1408 -77.3679 33.3986 -76.4695 Q32.6564 -75.5711 32.6564 -73.8523 Z"/><path style="stroke:none;" d="M-80.5155 -21.8893 Q-80.5155 -19.8268 -81.5546 -18.6471 Q-82.5936 -17.4674 -84.4374 -17.4674 Q-86.328 -17.4674 -87.3592 -18.6315 Q-88.3905 -19.7956 -88.3905 -21.9049 Q-88.3905 -23.9987 -87.3592 -25.1471 Q-86.328 -26.2956 -84.4374 -26.2956 Q-82.578 -26.2956 -81.5467 -25.1237 Q-80.5155 -23.9518 -80.5155 -21.8893 ZM-87.3436 -21.8893 Q-87.3436 -20.1549 -86.6014 -19.2487 Q-85.8592 -18.3424 -84.4374 -18.3424 Q-83.0155 -18.3424 -82.2889 -19.2409 Q-81.5624 -20.1393 -81.5624 -21.8893 Q-81.5624 -23.6237 -82.2889 -24.5143 Q-83.0155 -25.4049 -84.4374 -25.4049 Q-85.8592 -25.4049 -86.6014 -24.5065 Q-87.3436 -23.6081 -87.3436 -21.8893 Z"/></g><g transform="translate(196,155)" style="font-size:8.4px; fill:gray; text-rendering:geometricPrecision; image-rendering:optimizeQuality; color-rendering:optimizeQuality; font-family:'Open Sans'; font-style:italic; stroke:gray; color-interpolation:linearRGB;"><path style="stroke:none;" d="M-108.8414 -3.3353 Q-108.8414 -4.6634 -108.3727 -5.7884 Q-107.9039 -6.9134 -106.8727 -7.9916 L-106.2633 -7.9916 Q-107.232 -6.9291 -107.7164 -5.7572 Q-108.2008 -4.5853 -108.2008 -3.3509 Q-108.2008 -2.0228 -107.7633 -1.0072 L-108.2789 -1.0072 Q-108.8414 -2.0384 -108.8414 -3.3353 ZM-105.2814 -4.6478 L-105.7814 -2.2728 L-106.4376 -2.2728 L-105.2345 -7.9916 L-103.9845 -7.9916 Q-102.2501 -7.9916 -102.2501 -6.5541 Q-102.2501 -5.1947 -103.6876 -4.8041 L-102.7501 -2.2728 L-103.4689 -2.2728 L-104.297 -4.6478 L-105.2814 -4.6478 ZM-104.7032 -7.3978 Q-105.0939 -5.4759 -105.1564 -5.2259 L-104.5001 -5.2259 Q-103.7501 -5.2259 -103.3439 -5.5541 Q-102.9376 -5.8822 -102.9376 -6.5072 Q-102.9376 -6.9759 -103.1954 -7.1869 Q-103.4532 -7.3978 -104.047 -7.3978 L-104.7032 -7.3978 ZM-100.0641 -5.6478 Q-100.0641 -4.3197 -100.5407 -3.1869 Q-101.0173 -2.0541 -102.0329 -1.0072 L-102.6423 -1.0072 Q-100.7048 -3.1634 -100.7048 -5.6478 Q-100.7048 -6.9759 -101.1423 -7.9916 L-100.6266 -7.9916 Q-100.0641 -6.9291 -100.0641 -5.6478 Z"/></g><g transform="translate(196,155)" style="fill:rgb(230,0,0); text-rendering:geometricPrecision; color-rendering:optimizeQuality; image-rendering:optimizeQuality; font-family:'Open Sans'; stroke:rgb(230,0,0); color-interpolation:linearRGB;"><path style="stroke:none;" d="M-80.5155 -73.8523 Q-80.5155 -71.7898 -81.5546 -70.6101 Q-82.5936 -69.4304 -84.4374 -69.4304 Q-86.328 -69.4304 -87.3592 -70.5945 Q-88.3905 -71.7586 -88.3905 -73.8679 Q-88.3905 -75.9617 -87.3592 -77.1101 Q-86.328 -78.2586 -84.4374 -78.2586 Q-82.578 -78.2586 -81.5467 -77.0867 Q-80.5155 -75.9148 -80.5155 -73.8523 ZM-87.3436 -73.8523 Q-87.3436 -72.1179 -86.6014 -71.2117 Q-85.8592 -70.3054 -84.4374 -70.3054 Q-83.0155 -70.3054 -82.2889 -71.2039 Q-81.5624 -72.1023 -81.5624 -73.8523 Q-81.5624 -75.5867 -82.2889 -76.4773 Q-83.0155 -77.3679 -84.4374 -77.3679 Q-85.8592 -77.3679 -86.6014 -76.4695 Q-87.3436 -75.5711 -87.3436 -73.8523 Z"/><path style="stroke:none;" d="M-125.5155 -99.8323 Q-125.5155 -97.7698 -126.5546 -96.5901 Q-127.5936 -95.4104 -129.4374 -95.4104 Q-131.328 -95.4104 -132.3593 -96.5745 Q-133.3905 -97.7386 -133.3905 -99.8479 Q-133.3905 -101.9417 -132.3593 -103.0901 Q-131.328 -104.2386 -129.4374 -104.2386 Q-127.578 -104.2386 -126.5468 -103.0667 Q-125.5155 -101.8948 -125.5155 -99.8323 ZM-132.3436 -99.8323 Q-132.3436 -98.0979 -131.6014 -97.1917 Q-130.8593 -96.2854 -129.4374 -96.2854 Q-128.0155 -96.2854 -127.2889 -97.1839 Q-126.5624 -98.0823 -126.5624 -99.8323 Q-126.5624 -101.5667 -127.2889 -102.4573 Q-128.0155 -103.3479 -129.4374 -103.3479 Q-130.8593 -103.3479 -131.6014 -102.4495 Q-132.3436 -101.5511 -132.3436 -99.8323 Z"/></g><g transform="translate(196,155)" style="stroke-linecap:butt; text-rendering:geometricPrecision; color-rendering:optimizeQuality; image-rendering:optimizeQuality; font-family:'Open Sans'; color-interpolation:linearRGB; stroke-miterlimit:5;"><path style="fill:none;" d="M80.7332 4.625 L80.547 4.161 L80.047 4.161"/></g><g transform="translate(196,155)" style="stroke-linecap:butt; font-size:8.4px; fill:gray; text-rendering:geometricPrecision; image-rendering:optimizeQuality; color-rendering:optimizeQuality; font-family:'Open Sans'; font-style:italic; stroke:gray; color-interpolation:linearRGB; stroke-miterlimit:5;"><path style="stroke:none;" d="M86.2126 7.4776 Q86.2126 6.1495 86.6813 5.0245 Q87.1501 3.8995 88.1813 2.8214 L88.7907 2.8214 Q87.822 3.8839 87.3376 5.0558 Q86.8532 6.2276 86.8532 7.462 Q86.8532 8.7901 87.2907 9.8058 L86.7751 9.8058 Q86.2126 8.7745 86.2126 7.4776 ZM91.8351 6.8839 Q91.8351 7.712 91.2883 8.1651 Q90.7414 8.6183 89.7414 8.6183 Q89.3351 8.6183 89.0226 8.5636 Q88.7101 8.5089 88.4289 8.3683 L88.4289 7.712 Q89.0539 8.0401 89.757 8.0401 Q90.382 8.0401 90.757 7.7433 Q91.132 7.4464 91.132 6.9308 Q91.132 6.6183 90.9289 6.3917 Q90.7258 6.1651 90.1633 5.837 Q89.5695 5.5089 89.343 5.1808 Q89.1164 4.8526 89.1164 4.3995 Q89.1164 3.6651 89.632 3.2042 Q90.1476 2.7433 90.9914 2.7433 Q91.3664 2.7433 91.7023 2.8214 Q92.0383 2.8995 92.4133 3.0714 L92.1476 3.6651 Q91.8976 3.5089 91.5773 3.423 Q91.257 3.337 90.9914 3.337 Q90.4601 3.337 90.1398 3.6105 Q89.8195 3.8839 89.8195 4.3526 Q89.8195 4.5558 89.8898 4.7042 Q89.9601 4.8526 90.1008 4.9855 Q90.2414 5.1183 90.6633 5.3683 Q91.2258 5.712 91.4289 5.9073 Q91.632 6.1026 91.7336 6.337 Q91.8351 6.5714 91.8351 6.8839 ZM94.4296 5.1651 Q94.4296 6.4933 93.9531 7.6261 Q93.4765 8.7589 92.4609 9.8058 L91.8515 9.8058 Q93.789 7.6495 93.789 5.1651 Q93.789 3.837 93.3515 2.8214 L93.8671 2.8214 Q94.4296 3.8839 94.4296 5.1651 Z"/></g><g transform="translate(196,155)" style="stroke-linecap:butt; fill:rgb(0,5,255); text-rendering:geometricPrecision; color-rendering:optimizeQuality; image-rendering:optimizeQuality; font-family:'Open Sans'; stroke:rgb(0,5,255); color-interpolation:linearRGB; stroke-miterlimit:5;"><path style="stroke:none;" d="M95.8236 -21.3948 L94.6829 -21.3948 L89.9954 -28.5823 L89.9486 -28.5823 Q90.0423 -27.3166 90.0423 -26.2698 L90.0423 -21.3948 L89.1204 -21.3948 L89.1204 -29.9573 L90.2454 -29.9573 L94.9173 -22.801 L94.9642 -22.801 Q94.9642 -22.9573 94.9173 -23.8166 Q94.8704 -24.676 94.8861 -25.051 L94.8861 -29.9573 L95.8236 -29.9573 L95.8236 -21.3948 Z"/></g><g transform="translate(196,155)" style="stroke-linecap:butt; font-size:8.4px; fill:gray; text-rendering:geometricPrecision; image-rendering:optimizeQuality; color-rendering:optimizeQuality; font-family:'Open Sans'; font-style:italic; stroke:gray; color-interpolation:linearRGB; stroke-miterlimit:5;"><path style="stroke:none;" d="M92.5874 -33.8403 Q92.5874 -35.1684 93.0561 -36.2934 Q93.5249 -37.4184 94.5561 -38.4966 L95.1655 -38.4966 Q94.1967 -37.4341 93.7124 -36.2622 Q93.228 -35.0903 93.228 -33.8559 Q93.228 -32.5278 93.6655 -31.5122 L93.1499 -31.5122 Q92.5874 -32.5434 92.5874 -33.8403 ZM98.2099 -34.4341 Q98.2099 -33.6059 97.663 -33.1528 Q97.1162 -32.6997 96.1162 -32.6997 Q95.7099 -32.6997 95.3974 -32.7544 Q95.0849 -32.8091 94.8037 -32.9497 L94.8037 -33.6059 Q95.4287 -33.2778 96.1318 -33.2778 Q96.7568 -33.2778 97.1318 -33.5747 Q97.5068 -33.8716 97.5068 -34.3872 Q97.5068 -34.6997 97.3037 -34.9262 Q97.1005 -35.1528 96.538 -35.4809 Q95.9443 -35.8091 95.7177 -36.1372 Q95.4912 -36.4653 95.4912 -36.9184 Q95.4912 -37.6528 96.0068 -38.1137 Q96.5224 -38.5747 97.3662 -38.5747 Q97.7412 -38.5747 98.0771 -38.4966 Q98.413 -38.4184 98.788 -38.2466 L98.5224 -37.6528 Q98.2724 -37.8091 97.9521 -37.895 Q97.6318 -37.9809 97.3662 -37.9809 Q96.8349 -37.9809 96.5146 -37.7075 Q96.1943 -37.4341 96.1943 -36.9653 Q96.1943 -36.7622 96.2646 -36.6137 Q96.3349 -36.4653 96.4755 -36.3325 Q96.6162 -36.1997 97.038 -35.9497 Q97.6005 -35.6059 97.8037 -35.4106 Q98.0068 -35.2153 98.1084 -34.9809 Q98.2099 -34.7466 98.2099 -34.4341 ZM100.8044 -36.1528 Q100.8044 -34.8247 100.3278 -33.6919 Q99.8513 -32.5591 98.8356 -31.5122 L98.2263 -31.5122 Q100.1638 -33.6684 100.1638 -36.1528 Q100.1638 -37.4809 99.7263 -38.4966 L100.2419 -38.4966 Q100.8044 -37.4341 100.8044 -36.1528 Z"/><path style="fill:none; stroke:black;" d="M71.8191 -48.4209 L71.484 -48.792 L71.7515 -49.2144"/><path style="stroke:none;" d="M94.2429 -44.356 Q94.2429 -45.6842 94.7117 -46.8092 Q95.1804 -47.9342 96.2117 -49.0123 L96.8211 -49.0123 Q95.8523 -47.9498 95.3679 -46.7779 Q94.8836 -45.606 94.8836 -44.3717 Q94.8836 -43.0435 95.3211 -42.0279 L94.8054 -42.0279 Q94.2429 -43.0592 94.2429 -44.356 ZM99.8655 -44.9498 Q99.8655 -44.1217 99.3186 -43.6685 Q98.7717 -43.2154 97.7717 -43.2154 Q97.3655 -43.2154 97.053 -43.2701 Q96.7405 -43.3248 96.4592 -43.4654 L96.4592 -44.1217 Q97.0842 -43.7935 97.7874 -43.7935 Q98.4124 -43.7935 98.7874 -44.0904 Q99.1624 -44.3873 99.1624 -44.9029 Q99.1624 -45.2154 98.9592 -45.442 Q98.7561 -45.6685 98.1936 -45.9967 Q97.5999 -46.3248 97.3733 -46.6529 Q97.1467 -46.981 97.1467 -47.4342 Q97.1467 -48.1685 97.6624 -48.6295 Q98.178 -49.0904 99.0217 -49.0904 Q99.3967 -49.0904 99.7327 -49.0123 Q100.0686 -48.9342 100.4436 -48.7623 L100.178 -48.1685 Q99.928 -48.3248 99.6077 -48.4107 Q99.2874 -48.4967 99.0217 -48.4967 Q98.4905 -48.4967 98.1702 -48.2232 Q97.8499 -47.9498 97.8499 -47.481 Q97.8499 -47.2779 97.9202 -47.1295 Q97.9905 -46.981 98.1311 -46.8482 Q98.2717 -46.7154 98.6936 -46.4654 Q99.2561 -46.1217 99.4592 -45.9263 Q99.6624 -45.731 99.7639 -45.4967 Q99.8655 -45.2623 99.8655 -44.9498 ZM102.46 -46.6685 Q102.46 -45.3404 101.9834 -44.2076 Q101.5069 -43.0748 100.4912 -42.0279 L99.8819 -42.0279 Q101.8194 -44.1842 101.8194 -46.6685 Q101.8194 -47.9967 101.3819 -49.0123 L101.8975 -49.0123 Q102.46 -47.9498 102.46 -46.6685 Z"/><path style="stroke:none;" d="M130.7257 -56.6451 Q130.7257 -57.9732 131.1945 -59.0982 Q131.6632 -60.2232 132.6945 -61.3013 L133.3039 -61.3013 Q132.3351 -60.2388 131.8507 -59.0669 Q131.3664 -57.8951 131.3664 -56.6607 Q131.3664 -55.3326 131.8039 -54.3169 L131.2882 -54.3169 Q130.7257 -55.3482 130.7257 -56.6451 ZM134.2858 -57.9576 L133.7858 -55.5826 L133.1295 -55.5826 L134.3327 -61.3013 L135.5827 -61.3013 Q137.317 -61.3013 137.317 -59.8638 Q137.317 -58.5044 135.8795 -58.1138 L136.817 -55.5826 L136.0983 -55.5826 L135.2702 -57.9576 L134.2858 -57.9576 ZM134.8639 -60.7076 Q134.4733 -58.7857 134.4108 -58.5357 L135.067 -58.5357 Q135.817 -58.5357 136.2233 -58.8638 Q136.6295 -59.1919 136.6295 -59.8169 Q136.6295 -60.2857 136.3717 -60.4966 Q136.1139 -60.7076 135.5202 -60.7076 L134.8639 -60.7076 ZM139.503 -58.9576 Q139.503 -57.6294 139.0265 -56.4966 Q138.5499 -55.3638 137.5343 -54.3169 L136.9249 -54.3169 Q138.8624 -56.4732 138.8624 -58.9576 Q138.8624 -60.2857 138.4249 -61.3013 L138.9405 -61.3013 Q139.503 -60.2388 139.503 -58.9576 Z"/><path style="fill:none; stroke:black;" d="M85.7875 -71.3766 L86.055 -71.799 L86.3932 -71.4308"/><path style="fill:none; stroke:black;" d="M35.047 30.141 L35.547 30.141 L35.797 29.708"/><path style="fill:none; stroke:black;" d="M50.297 56.557 L50.547 56.124 L50.297 55.691"/><path style="fill:none; stroke:black;" d="M6.047 30.141 L5.547 30.141 L5.297 30.574"/><path style="fill:none; stroke:black;" d="M35.797 81.671 L35.547 82.104 L35.797 82.537"/><path style="fill:none; stroke:black;" d="M80.047 56.124 L80.547 56.124 L80.797 56.557"/><path style="fill:none; stroke:black;" d="M-9.203 55.691 L-9.453 56.124 L-9.203 56.557"/><path style="fill:none; stroke:black;" d="M50.297 107.651 L50.547 108.084 L51.047 108.084"/></g><g transform="translate(196,155)" style="stroke-linecap:butt; fill:rgb(0,5,255); text-rendering:geometricPrecision; color-rendering:optimizeQuality; image-rendering:optimizeQuality; font-family:'Open Sans'; stroke:rgb(0,5,255); color-interpolation:linearRGB; stroke-miterlimit:5;"><path style="stroke:none;" d="M8.8986 86.2602 L7.7579 86.2602 L3.0704 79.0727 L3.0236 79.0727 Q3.1173 80.3384 3.1173 81.3852 L3.1173 86.2602 L2.1954 86.2602 L2.1954 77.6977 L3.3204 77.6977 L7.9923 84.854 L8.0392 84.854 Q8.0392 84.6977 7.9923 83.8384 Q7.9454 82.979 7.9611 82.604 L7.9611 77.6977 L8.8986 77.6977 L8.8986 86.2602 Z"/><path style="fill:none; stroke:black;" d="M95.297 81.671 L95.547 82.104 L96.047 82.104"/><path style="fill:none; stroke:black;" d="M80.047 108.084 L80.547 108.084 L80.797 107.651"/><path style="fill:none; stroke:black;" d="M5.297 -22.252 L5.547 -21.819 L6.047 -21.819"/><path style="fill:none; stroke:black;" d="M-9.203 -47.366 L-9.453 -47.799 L-9.203 -48.232"/><path style="fill:none; stroke:black;" d="M-9.203 3.728 L-9.453 4.161 L-9.953 4.161"/><path style="fill:none; stroke:black;" d="M-39.703 -47.366 L-39.453 -47.799 L-39.703 -48.232"/><path style="fill:none; stroke:black;" d="M5.297 -73.349 L5.547 -73.782 L5.297 -74.215"/><path style="fill:none; stroke:black;" d="M-38.953 4.161 L-39.453 4.161 L-39.703 3.728"/><path style="fill:none; stroke:black;" d="M-54.203 -22.252 L-54.453 -21.819 L-54.953 -21.819"/><path style="fill:none; stroke:black;" d="M-54.203 -73.349 L-54.453 -73.782 L-54.203 -74.215"/><path style="fill:none; stroke:black;" d="M-9.203 -100.195 L-9.453 -99.762 L-9.203 -99.329"/><path style="fill:none; stroke:black;" d="M-39.703 -100.195 L-39.453 -99.762 L-39.703 -99.329"/><path style="fill:none; stroke:black;" d="M5.297 -125.309 L5.547 -125.742 L5.297 -126.175"/><path style="fill:none; stroke:black;" d="M-54.203 -125.309 L-54.453 -125.742 L-54.203 -126.175"/><path style="fill:none; stroke:black;" d="M-9.203 -151.289 L-9.453 -151.722 L-9.953 -151.722"/><path style="fill:none; stroke:black;" d="M-39.703 -151.289 L-39.453 -151.722 L-38.953 -151.722"/></g><g transform="translate(196,155)" style="stroke-linecap:butt; font-size:8.4px; fill:gray; text-rendering:geometricPrecision; image-rendering:optimizeQuality; color-rendering:optimizeQuality; font-family:'Open Sans'; font-style:italic; stroke:gray; color-interpolation:linearRGB; stroke-miterlimit:5;"><path style="stroke:none;" d="M-98.5364 30.6352 Q-98.5364 29.3071 -98.0676 28.1821 Q-97.5989 27.0571 -96.5676 25.979 L-95.9582 25.979 Q-96.927 27.0415 -97.4114 28.2134 Q-97.8957 29.3852 -97.8957 30.6196 Q-97.8957 31.9477 -97.4582 32.9634 L-97.9739 32.9634 Q-98.5364 31.9321 -98.5364 30.6352 ZM-92.9138 30.0415 Q-92.9138 30.8696 -93.4607 31.3227 Q-94.0076 31.7759 -95.0076 31.7759 Q-95.4138 31.7759 -95.7263 31.7212 Q-96.0388 31.6665 -96.3201 31.5259 L-96.3201 30.8696 Q-95.6951 31.1977 -94.9919 31.1977 Q-94.3669 31.1977 -93.9919 30.9009 Q-93.6169 30.604 -93.6169 30.0884 Q-93.6169 29.7759 -93.8201 29.5493 Q-94.0232 29.3227 -94.5857 28.9946 Q-95.1794 28.6665 -95.406 28.3384 Q-95.6326 28.0102 -95.6326 27.5571 Q-95.6326 26.8227 -95.1169 26.3618 Q-94.6013 25.9009 -93.7576 25.9009 Q-93.3826 25.9009 -93.0466 25.979 Q-92.7107 26.0571 -92.3357 26.229 L-92.6013 26.8227 Q-92.8513 26.6665 -93.1716 26.5806 Q-93.4919 26.4946 -93.7576 26.4946 Q-94.2888 26.4946 -94.6091 26.7681 Q-94.9294 27.0415 -94.9294 27.5102 Q-94.9294 27.7134 -94.8591 27.8618 Q-94.7888 28.0102 -94.6482 28.1431 Q-94.5076 28.2759 -94.0857 28.5259 Q-93.5232 28.8696 -93.3201 29.0649 Q-93.1169 29.2602 -93.0154 29.4946 Q-92.9138 29.729 -92.9138 30.0415 ZM-90.3193 28.3227 Q-90.3193 29.6509 -90.7959 30.7837 Q-91.2724 31.9165 -92.2881 32.9634 L-92.8974 32.9634 Q-90.9599 30.8071 -90.9599 28.3227 Q-90.9599 26.9946 -91.3974 25.979 L-90.8818 25.979 Q-90.3193 27.0415 -90.3193 28.3227 Z"/></g><g transform="translate(196,155)" style="stroke-linecap:butt; fill:rgb(0,5,255); text-rendering:geometricPrecision; color-rendering:optimizeQuality; image-rendering:optimizeQuality; font-family:'Open Sans'; stroke:rgb(0,5,255); color-interpolation:linearRGB; stroke-miterlimit:5;"><path style="stroke:none;" d="M-100.8684 59.4792 L-102.0091 59.4792 L-106.6966 52.2917 L-106.7434 52.2917 Q-106.6497 53.5574 -106.6497 54.6042 L-106.6497 59.4792 L-107.5716 59.4792 L-107.5716 50.9167 L-106.4466 50.9167 L-101.7747 58.073 L-101.7278 58.073 Q-101.7278 57.9167 -101.7747 57.0574 Q-101.8216 56.198 -101.8059 55.823 L-101.8059 50.9167 L-100.8684 50.9167 L-100.8684 59.4792 Z"/></g><g transform="translate(196,155)" style="stroke-linecap:butt; font-size:8.4px; fill:gray; text-rendering:geometricPrecision; image-rendering:optimizeQuality; color-rendering:optimizeQuality; font-family:'Open Sans'; font-style:italic; stroke:gray; color-interpolation:linearRGB; stroke-miterlimit:5;"><path style="stroke:none;" d="M-114.4374 64.9303 Q-114.4374 63.6021 -113.9686 62.4771 Q-113.4999 61.3521 -112.4686 60.274 L-111.8592 60.274 Q-112.828 61.3365 -113.3124 62.5084 Q-113.7967 63.6803 -113.7967 64.9146 Q-113.7967 66.2428 -113.3592 67.2584 L-113.8749 67.2584 Q-114.4374 66.2271 -114.4374 64.9303 ZM-108.8148 64.3365 Q-108.8148 65.1646 -109.3617 65.6178 Q-109.9085 66.0709 -110.9085 66.0709 Q-111.3148 66.0709 -111.6273 66.0162 Q-111.9398 65.9615 -112.221 65.8209 L-112.221 65.1646 Q-111.596 65.4928 -110.8929 65.4928 Q-110.2679 65.4928 -109.8929 65.1959 Q-109.5179 64.899 -109.5179 64.3834 Q-109.5179 64.0709 -109.721 63.8443 Q-109.9242 63.6178 -110.4867 63.2896 Q-111.0804 62.9615 -111.307 62.6334 Q-111.5335 62.3053 -111.5335 61.8521 Q-111.5335 61.1178 -111.0179 60.6568 Q-110.5023 60.1959 -109.6585 60.1959 Q-109.2835 60.1959 -108.9476 60.274 Q-108.6117 60.3521 -108.2367 60.524 L-108.5023 61.1178 Q-108.7523 60.9615 -109.0726 60.8756 Q-109.3929 60.7896 -109.6585 60.7896 Q-110.1898 60.7896 -110.5101 61.0631 Q-110.8304 61.3365 -110.8304 61.8053 Q-110.8304 62.0084 -110.7601 62.1568 Q-110.6898 62.3053 -110.5492 62.4381 Q-110.4085 62.5709 -109.9867 62.8209 Q-109.4242 63.1646 -109.221 63.3599 Q-109.0179 63.5553 -108.9164 63.7896 Q-108.8148 64.024 -108.8148 64.3365 ZM-106.2203 62.6178 Q-106.2203 63.9459 -106.6969 65.0787 Q-107.1734 66.2115 -108.1891 67.2584 L-108.7984 67.2584 Q-106.8609 65.1021 -106.8609 62.6178 Q-106.8609 61.2896 -107.2984 60.274 L-106.7828 60.274 Q-106.2203 61.3365 -106.2203 62.6178 Z"/><path style="fill:none; stroke:black;" d="M-134.3551 48.8727 L-134.844 48.768 L-135.076 49.2109"/><path style="stroke:none;" d="M-122.7192 71.6243 Q-122.7192 70.2962 -122.2505 69.1712 Q-121.7817 68.0462 -120.7505 66.9681 L-120.1411 66.9681 Q-121.1099 68.0306 -121.5942 69.2024 Q-122.0786 70.3743 -122.0786 71.6087 Q-122.0786 72.9368 -121.6411 73.9524 L-122.1567 73.9524 Q-122.7192 72.9212 -122.7192 71.6243 ZM-117.0967 71.0306 Q-117.0967 71.8587 -117.6436 72.3118 Q-118.1904 72.7649 -119.1904 72.7649 Q-119.5967 72.7649 -119.9092 72.7102 Q-120.2217 72.6556 -120.5029 72.5149 L-120.5029 71.8587 Q-119.8779 72.1868 -119.1748 72.1868 Q-118.5498 72.1868 -118.1748 71.8899 Q-117.7998 71.5931 -117.7998 71.0774 Q-117.7998 70.7649 -118.0029 70.5384 Q-118.2061 70.3118 -118.7686 69.9837 Q-119.3623 69.6556 -119.5889 69.3274 Q-119.8154 68.9993 -119.8154 68.5462 Q-119.8154 67.8118 -119.2998 67.3509 Q-118.7842 66.8899 -117.9404 66.8899 Q-117.5654 66.8899 -117.2295 66.9681 Q-116.8936 67.0462 -116.5186 67.2181 L-116.7842 67.8118 Q-117.0342 67.6556 -117.3545 67.5696 Q-117.6748 67.4837 -117.9404 67.4837 Q-118.4717 67.4837 -118.792 67.7571 Q-119.1123 68.0306 -119.1123 68.4993 Q-119.1123 68.7024 -119.042 68.8509 Q-118.9717 68.9993 -118.8311 69.1321 Q-118.6904 69.2649 -118.2686 69.5149 Q-117.7061 69.8587 -117.5029 70.054 Q-117.2998 70.2493 -117.1982 70.4837 Q-117.0967 70.7181 -117.0967 71.0306 ZM-114.5022 69.3118 Q-114.5022 70.6399 -114.9788 71.7727 Q-115.4553 72.9056 -116.471 73.9524 L-117.0803 73.9524 Q-115.1428 71.7962 -115.1428 69.3118 Q-115.1428 67.9837 -115.5803 66.9681 L-115.0647 66.9681 Q-114.5022 68.0306 -114.5022 69.3118 Z"/><path style="fill:none; stroke:black;" d="M-101.0134 105.1777 L-101.22 105.633 L-101.4656 105.1975"/><path style="stroke:none;" d="M-95.791 108.6981 Q-95.791 107.37 -95.3223 106.245 Q-94.8535 105.12 -93.8223 104.0419 L-93.2129 104.0419 Q-94.1816 105.1044 -94.666 106.2763 Q-95.1504 107.4481 -95.1504 108.6825 Q-95.1504 110.0106 -94.7129 111.0263 L-95.2285 111.0263 Q-95.791 109.995 -95.791 108.6981 ZM-92.2309 107.3856 L-92.7309 109.7606 L-93.3872 109.7606 L-92.1841 104.0419 L-90.9341 104.0419 Q-89.1997 104.0419 -89.1997 105.4794 Q-89.1997 106.8388 -90.6372 107.2294 L-89.6997 109.7606 L-90.4184 109.7606 L-91.2466 107.3856 L-92.2309 107.3856 ZM-91.6528 104.6356 Q-92.0434 106.5575 -92.1059 106.8075 L-91.4497 106.8075 Q-90.6997 106.8075 -90.2934 106.4794 Q-89.8872 106.1513 -89.8872 105.5263 Q-89.8872 105.0575 -90.145 104.8466 Q-90.4028 104.6356 -90.9966 104.6356 L-91.6528 104.6356 ZM-87.0137 106.3856 Q-87.0137 107.7138 -87.4903 108.8466 Q-87.9669 109.9794 -88.9825 111.0263 L-89.5919 111.0263 Q-87.6544 108.87 -87.6544 106.3856 Q-87.6544 105.0575 -88.0919 104.0419 L-87.5762 104.0419 Q-87.0137 105.1044 -87.0137 106.3856 Z"/><path style="fill:none; stroke:black;" d="M-147.251 72.4511 L-147.483 72.894 L-146.995 73.0028"/><path style="fill:none; stroke:black;" d="M-129.703 4.594 L-129.453 4.161 L-128.953 4.161"/><path style="fill:none; stroke:black;" d="M-144.953 -21.819 L-144.453 -21.819 L-144.203 -21.386"/><path style="fill:none; stroke:black;" d="M-144.203 29.708 L-144.453 30.141 L-144.953 30.141"/><path style="fill:none; stroke:black;" d="M-173.953 -21.819 L-174.453 -21.819 L-174.703 -22.252"/><path style="fill:none; stroke:black;" d="M-129.703 -47.366 L-129.453 -47.799 L-129.703 -48.232"/><path style="fill:none; stroke:black;" d="M-173.953 30.141 L-174.453 30.141 L-174.703 29.708"/><path style="fill:none; stroke:black;" d="M-189.203 -47.366 L-189.453 -47.799 L-189.203 -48.232"/></g><g transform="translate(196,155)" style="stroke-linecap:butt; fill:rgb(0,5,255); text-rendering:geometricPrecision; color-rendering:optimizeQuality; image-rendering:optimizeQuality; font-family:'Open Sans'; stroke:rgb(0,5,255); color-interpolation:linearRGB; stroke-miterlimit:5;"><path style="stroke:none;" d="M-186.1014 8.3172 L-187.2421 8.3172 L-191.9296 1.1297 L-191.9764 1.1297 Q-191.8827 2.3954 -191.8827 3.4422 L-191.8827 8.3172 L-192.8046 8.3172 L-192.8046 -0.2453 L-191.6796 -0.2453 L-187.0077 6.911 L-186.9608 6.911 Q-186.9608 6.7547 -187.0077 5.8954 Q-187.0546 5.036 -187.0389 4.661 L-187.0389 -0.2453 L-186.1014 -0.2453 L-186.1014 8.3172 Z"/><path style="fill:none; stroke:black;" d="M-144.203 -73.349 L-144.453 -73.782 L-144.203 -74.215"/><path style="fill:none; stroke:black;" d="M-174.703 -73.349 L-174.453 -73.782 L-173.953 -73.782"/><path style="fill:black; stroke:none;" d="M94.9798 36.1603 L93.9798 36.1603 L93.9798 32.129 L89.4642 32.129 L89.4642 36.1603 L88.4642 36.1603 L88.4642 27.5978 L89.4642 27.5978 L89.4642 31.2384 L93.9798 31.2384 L93.9798 27.5978 L94.9798 27.5978 L94.9798 36.1603 Z"/><path style="fill:black; stroke:none;" d="M123.2788 -71.1768 L122.2788 -71.1768 L122.2788 -75.208 L117.7632 -75.208 L117.7632 -71.1768 L116.7632 -71.1768 L116.7632 -79.7393 L117.7632 -79.7393 L117.7632 -76.0986 L122.2788 -76.0986 L122.2788 -79.7393 L123.2788 -79.7393 L123.2788 -71.1768 Z"/><path style="fill:black; stroke:none;" d="M-51.4952 30.0553 L-52.4952 30.0553 L-52.4952 26.024 L-57.0108 26.024 L-57.0108 30.0553 L-58.0108 30.0553 L-58.0108 21.4928 L-57.0108 21.4928 L-57.0108 25.1334 L-52.4952 25.1334 L-52.4952 21.4928 L-51.4952 21.4928 L-51.4952 30.0553 Z"/><path style="fill:black; stroke:none;" d="M-130.3022 108.2322 L-131.3022 108.2322 L-131.3022 104.201 L-135.8178 104.201 L-135.8178 108.2322 L-136.8178 108.2322 L-136.8178 99.6697 L-135.8178 99.6697 L-135.8178 103.3104 L-131.3022 103.3104 L-131.3022 99.6697 L-130.3022 99.6697 L-130.3022 108.2322 Z"/></g></g></svg></svg></svg></svg>