<svg xmlns:ns0="http://www.w3.org/2000/svg" xmlns="http://www.w3.org/2000/svg"><g transform="translate(0, 0)"><ns0:svg width="300" viewBox="0 0 300 190" style="fill-opacity:1; color-rendering:auto; color-interpolation:auto; text-rendering:auto; stroke:black; stroke-linecap:square; stroke-miterlimit:10; shape-rendering:auto; stroke-opacity:1; fill:black; stroke-dasharray:none; font-weight:normal; stroke-width:1; font-family:'Open Sans'; font-style:normal; stroke-linejoin:miter; font-size:12; stroke-dashoffset:0; image-rendering:auto;" height="190" class="cas-substance-image"><ns0:svg class="cas-substance-single-component"><ns0:rect y="0" x="0" width="300" stroke="none" ry="7" rx="7" height="190" fill="white" class="cas-substance-group" /><ns0:svg y="0" x="0" width="300" viewBox="0 0 300 190" style="fill:black;" height="190" class="cas-substance-single-component-image"><ns0:svg><ns0:g><ns0:g transform="translate(150,95)" style="text-rendering:geometricPrecision; color-rendering:optimizeQuality; color-interpolation:linearRGB; stroke-linecap:butt; image-rendering:optimizeQuality;"><ns0:line y2="61.3898" y1="81.4417" x2="2.6784" x1="17.2477" style="fill:none;" /><ns0:line y2="63.447" y1="83.4991" x2="-0.1532" x1="14.4162" style="fill:none;" /><ns0:line y2="-72.717" y1="-49.1936" x2="-116.913" x1="-116.913" style="fill:none;" /><ns0:line y2="-27.717" y1="-39.5384" x2="-90.933" x1="-111.4076" style="fill:none;" /><ns0:line y2="-87.717" y1="-72.717" x2="-90.933" x1="-116.913" style="fill:none;" /><ns0:line y2="-86.0539" y1="-73.7274" x2="-136.5126" x1="-115.163" style="fill:none;" /><ns0:line y2="-83.0229" y1="-70.6963" x2="-138.2627" x1="-116.913" style="fill:none;" /><ns0:line y2="-27.717" y1="-39.5384" x2="116.913" x1="96.4384" style="fill:none;" /><ns0:line y2="-27.717" y1="-39.5282" x2="64.953" x1="85.41" style="fill:none;" /><ns0:line y2="2.283" y1="-27.717" x2="116.913" x1="116.913" style="fill:none;" /><ns0:line y2="-38.0126" y1="-25.6963" x2="138.245" x1="116.913" style="fill:none;" /><ns0:line y2="-41.0437" y1="-28.7274" x2="136.4949" x1="115.163" style="fill:none;" /><ns0:line y2="2.283" y1="17.283" x2="-38.97" x1="-12.99" style="fill:none;" /><ns0:line y2="2.283" y1="17.283" x2="12.99" x1="-12.99" style="fill:none;" /><ns0:line y2="34.917" y1="17.283" x2="-37.26" x1="-12.99" style="fill:none;" /><ns0:line y2="31.1495" y1="17.283" x2="6.0947" x1="-12.99" style="fill:none;" /><ns0:line y2="-27.717" y1="2.283" x2="-38.97" x1="-38.97" style="fill:none;" /><ns0:line y2="17.283" y1="2.283" x2="-64.953" x1="-38.97" style="fill:none;" /><ns0:line y2="13.2415" y1="0.2621" x2="-64.9529" x1="-42.4699" style="fill:none;" /><ns0:line y2="-27.717" y1="2.283" x2="12.99" x1="12.99" style="fill:none;" /><ns0:line y2="17.283" y1="2.283" x2="38.97" x1="12.99" style="fill:none;" /><ns0:line y2="13.2415" y1="0.2623" x2="38.9701" x1="16.49" style="fill:none;" /><ns0:line y2="63.447" y1="34.917" x2="-27.99" x1="-37.26" style="fill:none;" /><ns0:line y2="28.677" y1="34.917" x2="-66.606" x1="-37.26" style="fill:none;" /><ns0:line y2="32.5207" y1="37.9202" x2="-65.3574" x1="-39.9645" style="fill:none;" /><ns0:line y2="63.447" y1="41.1707" x2="2.01" x1="9.248" style="fill:none;" /><ns0:line y2="-39.5282" y1="-27.717" x2="-18.513" x1="-38.97" style="fill:none;" /><ns0:line y2="-42.717" y1="-27.717" x2="-64.953" x1="-38.97" style="fill:none;" /><ns0:line y2="-38.6755" y1="-25.6961" x2="-64.9529" x1="-42.4699" style="fill:none;" /><ns0:line y2="2.283" y1="17.283" x2="-90.933" x1="-64.953" style="fill:none;" /><ns0:line y2="-39.5384" y1="-27.717" x2="-7.4846" x1="12.99" style="fill:none;" /><ns0:line y2="-42.717" y1="-27.717" x2="38.97" x1="12.99" style="fill:none;" /><ns0:line y2="-38.6755" y1="-25.6963" x2="38.9701" x1="16.49" style="fill:none;" /><ns0:line y2="2.283" y1="17.283" x2="64.953" x1="38.97" style="fill:none;" /><ns0:line y2="63.447" y1="63.447" x2="2.01" x1="-27.99" style="fill:none;" /><ns0:line y2="85.743" y1="63.447" x2="-48.063" x1="-27.99" style="fill:none;" /><ns0:line y2="81.8994" y1="62.607" x2="-49.3121" x1="-31.9432" style="fill:none;" /><ns0:line y2="50.973" y1="28.677" x2="-86.679" x1="-66.606" style="fill:none;" /><ns0:line y2="-27.717" y1="-42.717" x2="-90.933" x1="-64.953" style="fill:none;" /><ns0:line y2="-27.717" y1="2.283" x2="-90.933" x1="-90.933" style="fill:none;" /><ns0:line y2="-25.6963" y1="0.2623" x2="-87.433" x1="-87.433" style="fill:none;" /><ns0:line y2="-27.717" y1="-42.717" x2="64.953" x1="38.97" style="fill:none;" /><ns0:line y2="-27.717" y1="2.283" x2="64.953" x1="64.953" style="fill:none;" /><ns0:line y2="-25.6963" y1="0.2623" x2="61.453" x1="61.453" style="fill:none;" /><ns0:line y2="79.503" y1="85.743" x2="-77.409" x1="-48.063" style="fill:none;" /><ns0:line y2="79.503" y1="50.973" x2="-77.409" x1="-86.679" style="fill:none;" /><ns0:line y2="76.4996" y1="51.8133" x2="-74.7048" x1="-82.7259" style="fill:none;" /></ns0:g><ns0:g transform="translate(150,95)" style="fill:rgb(230,0,0); text-rendering:geometricPrecision; color-rendering:optimizeQuality; image-rendering:optimizeQuality; font-family:'Open Sans'; stroke:rgb(230,0,0); color-interpolation:linearRGB;"><ns0:path style="stroke:none;" d="M23.5815 87.6467 Q23.5815 89.7092 22.5424 90.8889 Q21.5034 92.0686 19.6596 92.0686 Q17.769 92.0686 16.7377 90.9045 Q15.7065 89.7404 15.7065 87.6311 Q15.7065 85.5373 16.7377 84.3889 Q17.769 83.2404 19.6596 83.2404 Q21.519 83.2404 22.5502 84.4123 Q23.5815 85.5842 23.5815 87.6467 ZM16.7534 87.6467 Q16.7534 89.3811 17.4956 90.2873 Q18.2377 91.1936 19.6596 91.1936 Q21.0815 91.1936 21.8081 90.2951 Q22.5346 89.3967 22.5346 87.6467 Q22.5346 85.9123 21.8081 85.0217 Q21.0815 84.1311 19.6596 84.1311 Q18.2377 84.1311 17.4956 85.0295 Q16.7534 85.9279 16.7534 87.6467 Z" /><ns0:path style="stroke:none;" d="M-112.9755 -42.7873 Q-112.9755 -40.7248 -114.0146 -39.5451 Q-115.0536 -38.3654 -116.8974 -38.3654 Q-118.788 -38.3654 -119.8193 -39.5295 Q-120.8505 -40.6936 -120.8505 -42.8029 Q-120.8505 -44.8967 -119.8193 -46.0451 Q-118.788 -47.1936 -116.8974 -47.1936 Q-115.038 -47.1936 -114.0068 -46.0217 Q-112.9755 -44.8498 -112.9755 -42.7873 ZM-119.8036 -42.7873 Q-119.8036 -41.0529 -119.0614 -40.1467 Q-118.3193 -39.2404 -116.8974 -39.2404 Q-115.4755 -39.2404 -114.7489 -40.1389 Q-114.0224 -41.0373 -114.0224 -42.7873 Q-114.0224 -44.5217 -114.7489 -45.4123 Q-115.4755 -46.3029 -116.8974 -46.3029 Q-118.3193 -46.3029 -119.0614 -45.4045 Q-119.8036 -44.5061 -119.8036 -42.7873 Z" /></ns0:g><ns0:g transform="translate(150,95)" style="stroke-linecap:butt; text-rendering:geometricPrecision; color-rendering:optimizeQuality; image-rendering:optimizeQuality; font-family:'Open Sans'; color-interpolation:linearRGB; stroke-miterlimit:5;"><ns0:path style="fill:none;" d="M-116.913 -72.217 L-116.913 -72.717 L-116.48 -72.967" /><ns0:path style="fill:rgb(230,0,0); stroke:none;" d="M-138.9555 -87.7873 Q-138.9555 -85.7248 -139.9946 -84.5451 Q-141.0336 -83.3654 -142.8774 -83.3654 Q-144.768 -83.3654 -145.7993 -84.5295 Q-146.8305 -85.6936 -146.8305 -87.8029 Q-146.8305 -89.8967 -145.7993 -91.0451 Q-144.768 -92.1936 -142.8774 -92.1936 Q-141.018 -92.1936 -139.9868 -91.0217 Q-138.9555 -89.8498 -138.9555 -87.7873 ZM-145.7836 -87.7873 Q-145.7836 -86.0529 -145.0414 -85.1467 Q-144.2993 -84.2404 -142.8774 -84.2404 Q-141.4555 -84.2404 -140.7289 -85.1389 Q-140.0024 -86.0373 -140.0024 -87.7873 Q-140.0024 -89.5217 -140.7289 -90.4123 Q-141.4555 -91.3029 -142.8774 -91.3029 Q-144.2993 -91.3029 -145.0414 -90.4045 Q-145.7836 -89.5061 -145.7836 -87.7873 Z" /><ns0:path style="fill:rgb(230,0,0); stroke:none;" d="M94.8705 -42.7873 Q94.8705 -40.7248 93.8314 -39.5451 Q92.7924 -38.3654 90.9486 -38.3654 Q89.058 -38.3654 88.0267 -39.5295 Q86.9955 -40.6936 86.9955 -42.8029 Q86.9955 -44.8967 88.0267 -46.0451 Q89.058 -47.1936 90.9486 -47.1936 Q92.808 -47.1936 93.8392 -46.0217 Q94.8705 -44.8498 94.8705 -42.7873 ZM88.0424 -42.7873 Q88.0424 -41.0529 88.7846 -40.1467 Q89.5267 -39.2404 90.9486 -39.2404 Q92.3705 -39.2404 93.0971 -40.1389 Q93.8236 -41.0373 93.8236 -42.7873 Q93.8236 -44.5217 93.0971 -45.4123 Q92.3705 -46.3029 90.9486 -46.3029 Q89.5267 -46.3029 88.7846 -45.4045 Q88.0424 -44.5061 88.0424 -42.7873 Z" /><ns0:path style="fill:none;" d="M116.48 -27.967 L116.913 -27.717 L116.913 -27.217" /><ns0:path style="fill:rgb(230,0,0); stroke:none;" d="M146.8305 -42.7873 Q146.8305 -40.7248 145.7914 -39.5451 Q144.7524 -38.3654 142.9086 -38.3654 Q141.018 -38.3654 139.9868 -39.5295 Q138.9555 -40.6936 138.9555 -42.8029 Q138.9555 -44.8967 139.9868 -46.0451 Q141.018 -47.1936 142.9086 -47.1936 Q144.768 -47.1936 145.7993 -46.0217 Q146.8305 -44.8498 146.8305 -42.7873 ZM140.0024 -42.7873 Q140.0024 -41.0529 140.7446 -40.1467 Q141.4868 -39.2404 142.9086 -39.2404 Q144.3305 -39.2404 145.0571 -40.1389 Q145.7836 -41.0373 145.7836 -42.7873 Q145.7836 -44.5217 145.0571 -45.4123 Q144.3305 -46.3029 142.9086 -46.3029 Q141.4868 -46.3029 140.7446 -45.4045 Q140.0024 -44.5061 140.0024 -42.7873 Z" /><ns0:path style="fill:none;" d="M-39.403 2.533 L-38.97 2.283 L-38.97 1.783" /><ns0:path style="fill:none;" d="M13.423 2.533 L12.99 2.283 L12.557 2.533" /><ns0:path style="fill:none;" d="M-37.7491 34.813 L-37.26 34.917 L-36.8555 34.6231" /><ns0:path style="fill:rgb(230,0,0); stroke:none;" d="M15.2175 34.8467 Q15.2175 36.9092 14.1784 38.0889 Q13.1394 39.2686 11.2956 39.2686 Q9.405 39.2686 8.3737 38.1045 Q7.3425 36.9404 7.3425 34.8311 Q7.3425 32.7373 8.3737 31.5889 Q9.405 30.4404 11.2956 30.4404 Q13.155 30.4404 14.1862 31.6123 Q15.2175 32.7842 15.2175 34.8467 ZM8.3894 34.8467 Q8.3894 36.5811 9.1316 37.4873 Q9.8737 38.3936 11.2956 38.3936 Q12.7175 38.3936 13.4441 37.4951 Q14.1706 36.5967 14.1706 34.8467 Q14.1706 33.1123 13.4441 32.2217 Q12.7175 31.3311 11.2956 31.3311 Q9.8737 31.3311 9.1316 32.2295 Q8.3894 33.1279 8.3894 34.8467 Z" /><ns0:path style="fill:none;" d="M-39.403 -27.967 L-38.97 -27.717 L-38.537 -27.967" /><ns0:path style="fill:none;" d="M-64.52 17.033 L-64.953 17.283 L-65.386 17.033" /><ns0:path style="fill:none;" d="M13.423 -27.967 L12.99 -27.717 L12.99 -27.217" /><ns0:path style="fill:none;" d="M38.537 17.033 L38.97 17.283 L39.403 17.033" /><ns0:path style="fill:none;" d="M-28.3245 63.8186 L-27.99 63.447 L-27.49 63.447" /><ns0:path style="fill:none;" d="M-66.1169 28.781 L-66.606 28.677 L-66.9405 29.0486" /><ns0:path style="fill:none;" d="M2.1645 62.9715 L2.01 63.447 L1.51 63.447" /><ns0:path style="fill:rgb(230,0,0); stroke:none;" d="M-9.0525 -42.7873 Q-9.0525 -40.7248 -10.0916 -39.5451 Q-11.1306 -38.3654 -12.9744 -38.3654 Q-14.865 -38.3654 -15.8962 -39.5295 Q-16.9275 -40.6936 -16.9275 -42.8029 Q-16.9275 -44.8967 -15.8962 -46.0451 Q-14.865 -47.1936 -12.9744 -47.1936 Q-11.115 -47.1936 -10.0837 -46.0217 Q-9.0525 -44.8498 -9.0525 -42.7873 ZM-15.8806 -42.7873 Q-15.8806 -41.0529 -15.1384 -40.1467 Q-14.3962 -39.2404 -12.9744 -39.2404 Q-11.5525 -39.2404 -10.8259 -40.1389 Q-10.0994 -41.0373 -10.0994 -42.7873 Q-10.0994 -44.5217 -10.8259 -45.4123 Q-11.5525 -46.3029 -12.9744 -46.3029 Q-14.3962 -46.3029 -15.1384 -45.4045 Q-15.8806 -44.5061 -15.8806 -42.7873 Z" /><ns0:path style="fill:none;" d="M-64.52 -42.467 L-64.953 -42.717 L-65.386 -42.467" /><ns0:path style="fill:none;" d="M-90.5 2.533 L-90.933 2.283 L-90.933 1.783" /><ns0:path style="fill:none;" d="M38.537 -42.467 L38.97 -42.717 L39.403 -42.467" /><ns0:path style="fill:none;" d="M64.52 2.533 L64.953 2.283 L64.953 1.783" /><ns0:path style="fill:none;" d="M-47.7285 85.3714 L-48.063 85.743 L-48.5521 85.639" /><ns0:path style="fill:none;" d="M-86.3445 50.6014 L-86.679 50.973 L-86.5245 51.4485" /><ns0:path style="fill:none;" d="M-90.933 -27.217 L-90.933 -27.717 L-90.5 -27.967" /><ns0:path style="fill:none;" d="M64.953 -27.217 L64.953 -27.717 L65.386 -27.967" /><ns0:path style="fill:none;" d="M-76.9199 79.607 L-77.409 79.503 L-77.5635 79.0275" /></ns0:g></ns0:g></ns0:svg></ns0:svg></ns0:svg></ns0:svg></g></svg>