<svg xmlns:ns0="http://www.w3.org/2000/svg" xmlns="http://www.w3.org/2000/svg"><g transform="translate(0, 0)"><ns0:svg width="163" viewBox="0 0 163 81" style="fill-opacity:1; color-rendering:auto; color-interpolation:auto; text-rendering:auto; stroke:black; stroke-linecap:square; stroke-miterlimit:10; shape-rendering:auto; stroke-opacity:1; fill:black; stroke-dasharray:none; font-weight:normal; stroke-width:1; font-family:'Open Sans'; font-style:normal; stroke-linejoin:miter; font-size:12; stroke-dashoffset:0; image-rendering:auto;" height="81" class="cas-substance-image"><ns0:svg class="cas-substance-single-component"><ns0:rect y="0" x="0" width="163" stroke="none" ry="7" rx="7" height="81" fill="white" class="cas-substance-group" /><ns0:svg y="0" x="0" width="163" viewBox="0 0 163 81" style="fill:black;" height="81" class="cas-substance-single-component-image"><ns0:svg><ns0:g><ns0:g transform="translate(81,47)" style="text-rendering:geometricPrecision; color-rendering:optimizeQuality; color-interpolation:linearRGB; stroke-linecap:butt; image-rendering:optimizeQuality;"><ns0:line y2="-15" y1="-27.0649" x2="-25.98" x1="-5.0836" style="fill:none;" /><ns0:line y2="-15" y1="-27.0649" x2="25.98" x1="5.0836" style="fill:none;" /><ns0:line y2="-30" y1="-15" x2="-51.963" x1="-25.98" style="fill:none;" /><ns0:line y2="15" y1="-15" x2="-25.98" x1="-25.98" style="fill:none;" /><ns0:line y2="-15" y1="-30" x2="-77.943" x1="-51.963" style="fill:none;" /><ns0:line y2="30" y1="15" x2="-51.963" x1="-25.98" style="fill:none;" /><ns0:line y2="15" y1="-15" x2="-77.943" x1="-77.943" style="fill:none;" /><ns0:line y2="15" y1="30" x2="-77.943" x1="-51.963" style="fill:none;" /><ns0:line y2="-30" y1="-15" x2="51.963" x1="25.98" style="fill:none;" /><ns0:line y2="15" y1="-15" x2="25.98" x1="25.98" style="fill:none;" /><ns0:line y2="-15" y1="-30" x2="77.943" x1="51.963" style="fill:none;" /><ns0:line y2="30" y1="15" x2="51.963" x1="25.98" style="fill:none;" /><ns0:line y2="15" y1="-15" x2="77.943" x1="77.943" style="fill:none;" /><ns0:line y2="15" y1="30" x2="77.943" x1="51.963" style="fill:none;" /></ns0:g><ns0:g transform="translate(81,47)" style="fill:rgb(0,5,255); text-rendering:geometricPrecision; color-rendering:optimizeQuality; image-rendering:optimizeQuality; font-family:'Open Sans'; stroke:rgb(0,5,255); color-interpolation:linearRGB;"><ns0:path style="stroke:none;" d="M3.3516 -25.8438 L2.2109 -25.8438 L-2.4766 -33.0312 L-2.5234 -33.0312 Q-2.4297 -31.7656 -2.4297 -30.7188 L-2.4297 -25.8438 L-3.3516 -25.8438 L-3.3516 -34.4062 L-2.2266 -34.4062 L2.4453 -27.25 L2.4922 -27.25 Q2.4922 -27.4062 2.4453 -28.2656 Q2.3984 -29.125 2.4141 -29.5 L2.4141 -34.4062 L3.3516 -34.4062 L3.3516 -25.8438 Z" /><ns0:path style="stroke:none;" d="M3.2578 -35.4062 L2.2578 -35.4062 L2.2578 -39.4375 L-2.2578 -39.4375 L-2.2578 -35.4062 L-3.2578 -35.4062 L-3.2578 -43.9688 L-2.2578 -43.9688 L-2.2578 -40.3281 L2.2578 -40.3281 L2.2578 -43.9688 L3.2578 -43.9688 L3.2578 -35.4062 Z" /></ns0:g><ns0:g transform="translate(81,47)" style="stroke-linecap:butt; text-rendering:geometricPrecision; color-rendering:optimizeQuality; image-rendering:optimizeQuality; font-family:'Open Sans'; color-interpolation:linearRGB; stroke-miterlimit:5;"><ns0:path style="fill:none;" d="M-51.53 -29.75 L-51.963 -30 L-52.396 -29.75" /><ns0:path style="fill:none;" d="M-25.98 14.5 L-25.98 15 L-26.413 15.25" /><ns0:path style="fill:none;" d="M-77.51 -15.25 L-77.943 -15 L-77.943 -14.5" /><ns0:path style="fill:none;" d="M-51.53 29.75 L-51.963 30 L-52.396 29.75" /><ns0:path style="fill:none;" d="M-77.943 14.5 L-77.943 15 L-77.51 15.25" /><ns0:path style="fill:none;" d="M51.53 -29.75 L51.963 -30 L52.396 -29.75" /><ns0:path style="fill:none;" d="M25.98 14.5 L25.98 15 L26.413 15.25" /><ns0:path style="fill:none;" d="M77.51 -15.25 L77.943 -15 L77.943 -14.5" /><ns0:path style="fill:none;" d="M51.53 29.75 L51.963 30 L52.396 29.75" /><ns0:path style="fill:none;" d="M77.943 14.5 L77.943 15 L77.51 15.25" /></ns0:g></ns0:g></ns0:svg></ns0:svg></ns0:svg></ns0:svg></g><g transform="translate(163, 0)"><ns0:svg width="314" viewBox="0 0 314 155" style="fill-opacity:1; color-rendering:auto; color-interpolation:auto; text-rendering:auto; stroke:black; stroke-linecap:square; stroke-miterlimit:10; shape-rendering:auto; stroke-opacity:1; fill:black; stroke-dasharray:none; font-weight:normal; stroke-width:1; font-family:'Open Sans'; font-style:normal; stroke-linejoin:miter; font-size:12; stroke-dashoffset:0; image-rendering:auto;" height="155" class="cas-substance-image"><ns0:svg class="cas-substance-single-component"><ns0:rect y="0" x="0" width="314" stroke="none" ry="7" rx="7" height="155" fill="white" class="cas-substance-group" /><ns0:svg y="0" x="0" width="314" viewBox="0 0 314 155" style="fill:black;" height="155" class="cas-substance-single-component-image"><ns0:svg><ns0:g><ns0:g transform="translate(157,78)" style="text-rendering:geometricPrecision; color-rendering:optimizeQuality; color-interpolation:linearRGB; stroke-linecap:butt; image-rendering:optimizeQuality;"><ns0:line y2="18.243" y1="-7.737" x2="-37.701" x1="-22.701" style="fill:none;" /><ns0:line y2="-7.737" y1="-7.737" x2="7.299" x1="-22.701" style="fill:none;" /><ns0:path style="stroke:none;" d="M-37.701 17.743 L-37.701 18.743 L-62.3494 21.243 L-62.3494 15.243 Z" /><ns0:line y2="44.226" y1="18.243" x2="-22.701" x1="-37.701" style="fill:none;" /><ns0:line y2="-7.737" y1="12.1047" x2="-82.701" x1="-71.245" style="fill:none;" /><ns0:line y2="64.4843" y1="44.226" x2="-34.3975" x1="-22.701" style="fill:none;" /><ns0:line y2="45.976" y1="45.976" x2="1.3615" x1="-23.7114" style="fill:none;" /><ns0:line y2="42.476" y1="42.476" x2="1.3615" x1="-23.7113" style="fill:none;" /><ns0:line y2="-7.737" y1="-7.737" x2="-106.7635" x1="-82.701" style="fill:none;" /><ns0:line y2="-27.194" y1="-5.987" x2="-69.4464" x1="-81.6906" style="fill:none;" /><ns0:line y2="-28.9441" y1="-7.737" x2="-72.4775" x1="-84.7217" style="fill:none;" /><ns0:line y2="-33.717" y1="-13.4646" x2="-127.701" x1="-116.0079" style="fill:none;" /><ns0:line y2="-18.717" y1="-33.717" x2="-153.681" x1="-127.701" style="fill:none;" /><ns0:line y2="-59.697" y1="-33.717" x2="-142.701" x1="-127.701" style="fill:none;" /><ns0:line y2="-48.717" y1="-33.717" x2="-101.721" x1="-127.701" style="fill:none;" /><ns0:line y2="-30.7341" y1="-40.371" x2="99.3765" x1="77.736" style="fill:none;" /><ns0:line y2="-64.0485" y1="-39.5489" x2="77.0053" x1="79.5821" style="fill:none;" /><ns0:line y2="-63.6824" y1="-39.1834" x2="73.5245" x1="76.1013" style="fill:none;" /><ns0:line y2="-26.3474" y1="-40.371" x2="58.4326" x1="77.736" style="fill:none;" /><ns0:line y2="-45.801" y1="-31.9195" x2="129.411" x1="110.3057" style="fill:none;" /><ns0:line y2="-21.531" y1="-45.801" x2="147.045" x1="129.411" style="fill:none;" /><ns0:line y2="-63.435" y1="-45.801" x2="153.681" x1="129.411" style="fill:none;" /><ns0:line y2="-70.071" y1="-45.801" x2="111.777" x1="129.411" style="fill:none;" /><ns0:line y2="-32.007" y1="-7.737" x2="24.933" x1="7.299" style="fill:none;" /><ns0:line y2="-28.3149" y1="-7.3145" x2="26.5767" x1="11.3183" style="fill:none;" /><ns0:line y2="10.5087" y1="-7.737" x2="20.5559" x1="7.299" style="fill:none;" /><ns0:line y2="-24.444" y1="-32.007" x2="48.2093" x1="24.933" style="fill:none;" /><ns0:line y2="7.263" y1="14.826" x2="53.463" x1="30.1867" style="fill:none;" /><ns0:line y2="4.5587" y1="11.4973" x2="50.4596" x1="29.1051" style="fill:none;" /><ns0:line y2="7.263" y1="-16.5807" x2="53.463" x1="53.463" style="fill:none;" /><ns0:path style="fill:none; stroke-miterlimit:5;" d="M-22.951 -7.304 L-22.701 -7.737 L-22.201 -7.737" /></ns0:g><ns0:g transform="translate(157,78)" style="stroke-linecap:butt; font-size:8.4px; fill:gray; text-rendering:geometricPrecision; image-rendering:optimizeQuality; color-rendering:optimizeQuality; font-family:'Open Sans'; font-style:italic; stroke:gray; color-interpolation:linearRGB; stroke-miterlimit:5;"><ns0:path style="stroke:none;" d="M-46.8095 10.7859 Q-46.8095 9.4577 -46.3408 8.3327 Q-45.872 7.2077 -44.8408 6.1296 L-44.2314 6.1296 Q-45.2001 7.1921 -45.6845 8.364 Q-46.1689 9.5359 -46.1689 10.7702 Q-46.1689 12.0984 -45.7314 13.114 L-46.247 13.114 Q-46.8095 12.0827 -46.8095 10.7859 ZM-41.187 10.1921 Q-41.187 11.0202 -41.7338 11.4734 Q-42.2807 11.9265 -43.2807 11.9265 Q-43.687 11.9265 -43.9995 11.8718 Q-44.312 11.8171 -44.5932 11.6765 L-44.5932 11.0202 Q-43.9682 11.3484 -43.2651 11.3484 Q-42.6401 11.3484 -42.2651 11.0515 Q-41.8901 10.7546 -41.8901 10.239 Q-41.8901 9.9265 -42.0932 9.6999 Q-42.2963 9.4734 -42.8588 9.1452 Q-43.4526 8.8171 -43.6791 8.489 Q-43.9057 8.1609 -43.9057 7.7077 Q-43.9057 6.9734 -43.3901 6.5124 Q-42.8745 6.0515 -42.0307 6.0515 Q-41.6557 6.0515 -41.3198 6.1296 Q-40.9838 6.2077 -40.6088 6.3796 L-40.8745 6.9734 Q-41.1245 6.8171 -41.4448 6.7312 Q-41.7651 6.6452 -42.0307 6.6452 Q-42.562 6.6452 -42.8823 6.9187 Q-43.2026 7.1921 -43.2026 7.6609 Q-43.2026 7.864 -43.1323 8.0124 Q-43.062 8.1609 -42.9213 8.2937 Q-42.7807 8.4265 -42.3588 8.6765 Q-41.7963 9.0202 -41.5932 9.2156 Q-41.3901 9.4109 -41.2885 9.6452 Q-41.187 9.8796 -41.187 10.1921 ZM-38.5925 8.4734 Q-38.5925 9.8015 -39.069 10.9343 Q-39.5456 12.0671 -40.5612 13.114 L-41.1706 13.114 Q-39.2331 10.9577 -39.2331 8.4734 Q-39.2331 7.1452 -39.6706 6.1296 L-39.155 6.1296 Q-38.5925 7.1921 -38.5925 8.4734 Z" /></ns0:g><ns0:g transform="translate(157,78)" style="stroke-linecap:butt; fill:rgb(0,5,255); text-rendering:geometricPrecision; color-rendering:optimizeQuality; image-rendering:optimizeQuality; font-family:'Open Sans'; stroke:rgb(0,5,255); color-interpolation:linearRGB; stroke-miterlimit:5;"><ns0:path style="stroke:none;" d="M-64.3494 22.3993 L-65.4901 22.3993 L-70.1776 15.2118 L-70.2244 15.2118 Q-70.1307 16.4774 -70.1307 17.5243 L-70.1307 22.3993 L-71.0526 22.3993 L-71.0526 13.8368 L-69.9276 13.8368 L-65.2557 20.993 L-65.2088 20.993 Q-65.2088 20.8368 -65.2557 19.9774 Q-65.3026 19.118 -65.2869 18.743 L-65.2869 13.8368 L-64.3494 13.8368 L-64.3494 22.3993 Z" /><ns0:path style="stroke:none;" d="M-64.4432 31.9618 L-65.4432 31.9618 L-65.4432 27.9305 L-69.9588 27.9305 L-69.9588 31.9618 L-70.9588 31.9618 L-70.9588 23.3993 L-69.9588 23.3993 L-69.9588 27.0399 L-65.4432 27.0399 L-65.4432 23.3993 L-64.4432 23.3993 L-64.4432 31.9618 Z" /><ns0:path style="fill:none; stroke:black;" d="M-22.951 43.793 L-22.701 44.226 L-22.951 44.659" /><ns0:path style="fill:none; stroke:black;" d="M-82.451 -7.304 L-82.701 -7.737 L-83.201 -7.737" /><ns0:path style="fill:rgb(230,0,0); stroke:none;" d="M-33.7635 70.1357 Q-33.7635 72.1982 -34.8026 73.3779 Q-35.8416 74.5576 -37.6854 74.5576 Q-39.576 74.5576 -40.6073 73.3935 Q-41.6385 72.2294 -41.6385 70.1201 Q-41.6385 68.0263 -40.6073 66.8779 Q-39.576 65.7294 -37.6854 65.7294 Q-35.826 65.7294 -34.7948 66.9013 Q-33.7635 68.0732 -33.7635 70.1357 ZM-40.5916 70.1357 Q-40.5916 71.8701 -39.8494 72.7763 Q-39.1073 73.6826 -37.6854 73.6826 Q-36.2635 73.6826 -35.5369 72.7841 Q-34.8104 71.8857 -34.8104 70.1357 Q-34.8104 68.4013 -35.5369 67.5107 Q-36.2635 66.6201 -37.6854 66.6201 Q-39.1073 66.6201 -39.8494 67.5185 Q-40.5916 68.4169 -40.5916 70.1357 Z" /><ns0:path style="fill:rgb(230,0,0); stroke:none;" d="M-42.6385 74.4326 L-43.6385 74.4326 L-43.6385 70.4013 L-48.1541 70.4013 L-48.1541 74.4326 L-49.1541 74.4326 L-49.1541 65.8701 L-48.1541 65.8701 L-48.1541 69.5107 L-43.6385 69.5107 L-43.6385 65.8701 L-42.6385 65.8701 L-42.6385 74.4326 Z" /><ns0:path style="fill:rgb(230,0,0); stroke:none;" d="M11.2365 44.1557 Q11.2365 46.2182 10.1974 47.3979 Q9.1584 48.5776 7.3146 48.5776 Q5.424 48.5776 4.3928 47.4135 Q3.3615 46.2494 3.3615 44.1401 Q3.3615 42.0463 4.3928 40.8979 Q5.424 39.7494 7.3146 39.7494 Q9.174 39.7494 10.2052 40.9213 Q11.2365 42.0932 11.2365 44.1557 ZM4.4084 44.1557 Q4.4084 45.8901 5.1506 46.7963 Q5.8928 47.7026 7.3146 47.7026 Q8.7365 47.7026 9.4631 46.8041 Q10.1896 45.9057 10.1896 44.1557 Q10.1896 42.4213 9.4631 41.5307 Q8.7365 40.6401 7.3146 40.6401 Q5.8928 40.6401 5.1506 41.5385 Q4.4084 42.4369 4.4084 44.1557 Z" /><ns0:path style="fill:rgb(230,0,0); stroke:none;" d="M-108.7635 -7.8073 Q-108.7635 -5.7448 -109.8026 -4.5651 Q-110.8416 -3.3854 -112.6854 -3.3854 Q-114.576 -3.3854 -115.6073 -4.5495 Q-116.6385 -5.7136 -116.6385 -7.8229 Q-116.6385 -9.9167 -115.6073 -11.0651 Q-114.576 -12.2136 -112.6854 -12.2136 Q-110.826 -12.2136 -109.7948 -11.0417 Q-108.7635 -9.8698 -108.7635 -7.8073 ZM-115.5916 -7.8073 Q-115.5916 -6.0729 -114.8494 -5.1667 Q-114.1073 -4.2604 -112.6854 -4.2604 Q-111.2635 -4.2604 -110.5369 -5.1589 Q-109.8104 -6.0573 -109.8104 -7.8073 Q-109.8104 -9.5417 -110.5369 -10.4323 Q-111.2635 -11.3229 -112.6854 -11.3229 Q-114.1073 -11.3229 -114.8494 -10.4245 Q-115.5916 -9.5261 -115.5916 -7.8073 Z" /><ns0:path style="fill:rgb(230,0,0); stroke:none;" d="M-63.7635 -33.7873 Q-63.7635 -31.7248 -64.8026 -30.5451 Q-65.8416 -29.3654 -67.6854 -29.3654 Q-69.576 -29.3654 -70.6073 -30.5295 Q-71.6385 -31.6936 -71.6385 -33.8029 Q-71.6385 -35.8967 -70.6073 -37.0451 Q-69.576 -38.1936 -67.6854 -38.1936 Q-65.826 -38.1936 -64.7948 -37.0217 Q-63.7635 -35.8498 -63.7635 -33.7873 ZM-70.5916 -33.7873 Q-70.5916 -32.0529 -69.8494 -31.1467 Q-69.1073 -30.2404 -67.6854 -30.2404 Q-66.2635 -30.2404 -65.5369 -31.1389 Q-64.8104 -32.0373 -64.8104 -33.7873 Q-64.8104 -35.5217 -65.5369 -36.4123 Q-66.2635 -37.3029 -67.6854 -37.3029 Q-69.1073 -37.3029 -69.8494 -36.4045 Q-70.5916 -35.5061 -70.5916 -33.7873 Z" /><ns0:path style="fill:none; stroke:black;" d="M78.1928 -40.1676 L77.736 -40.371 L77.3315 -40.0771" /><ns0:path style="fill:rgb(230,0,0); stroke:none;" d="M109.0785 -28.2373 Q109.0785 -26.1748 108.0394 -24.9951 Q107.0004 -23.8154 105.1566 -23.8154 Q103.266 -23.8154 102.2347 -24.9795 Q101.2035 -26.1436 101.2035 -28.2529 Q101.2035 -30.3467 102.2347 -31.4951 Q103.266 -32.6436 105.1566 -32.6436 Q107.016 -32.6436 108.0472 -31.4717 Q109.0785 -30.2998 109.0785 -28.2373 ZM102.2504 -28.2373 Q102.2504 -26.5029 102.9926 -25.5967 Q103.7347 -24.6904 105.1566 -24.6904 Q106.5785 -24.6904 107.3051 -25.5889 Q108.0316 -26.4873 108.0316 -28.2373 Q108.0316 -29.9717 107.3051 -30.8623 Q106.5785 -31.7529 105.1566 -31.7529 Q103.7347 -31.7529 102.9926 -30.8545 Q102.2504 -29.9561 102.2504 -28.2373 Z" /><ns0:path style="fill:rgb(230,0,0); stroke:none;" d="M78.5355 -70.2763 Q78.5355 -68.2138 77.4964 -67.0341 Q76.4574 -65.8544 74.6136 -65.8544 Q72.723 -65.8544 71.6917 -67.0185 Q70.6605 -68.1826 70.6605 -70.2919 Q70.6605 -72.3857 71.6917 -73.5341 Q72.723 -74.6826 74.6136 -74.6826 Q76.473 -74.6826 77.5042 -73.5107 Q78.5355 -72.3388 78.5355 -70.2763 ZM71.7074 -70.2763 Q71.7074 -68.5419 72.4496 -67.6357 Q73.1917 -66.7294 74.6136 -66.7294 Q76.0355 -66.7294 76.7621 -67.6279 Q77.4886 -68.5263 77.4886 -70.2763 Q77.4886 -72.0107 76.7621 -72.9013 Q76.0355 -73.7919 74.6136 -73.7919 Q73.1917 -73.7919 72.4496 -72.8935 Q71.7074 -71.9951 71.7074 -70.2763 Z" /><ns0:path style="fill:none; stroke:black;" d="M7.5929 -8.1415 L7.299 -7.737 L6.799 -7.737" /><ns0:path style="fill:none; stroke:black;" d="M24.6391 -31.6025 L24.933 -32.007 L25.4085 -31.8525" /><ns0:path style="stroke:none;" d="M28.2846 20.6893 L27.1439 20.6893 L22.4564 13.5018 L22.4096 13.5018 Q22.5033 14.7674 22.5033 15.8143 L22.5033 20.6893 L21.5814 20.6893 L21.5814 12.1268 L22.7064 12.1268 L27.3783 19.283 L27.4252 19.283 Q27.4252 19.1268 27.3783 18.2674 Q27.3314 17.408 27.3471 17.033 L27.3471 12.1268 L28.2846 12.1268 L28.2846 20.6893 Z" /><ns0:path style="stroke:none;" d="M56.8146 -18.5807 L55.6739 -18.5807 L50.9864 -25.7682 L50.9396 -25.7682 Q51.0333 -24.5026 51.0333 -23.4557 L51.0333 -18.5807 L50.1114 -18.5807 L50.1114 -27.1432 L51.2364 -27.1432 L55.9083 -19.987 L55.9552 -19.987 Q55.9552 -20.1432 55.9083 -21.0026 Q55.8614 -21.862 55.8771 -22.237 L55.8771 -27.1432 L56.8146 -27.1432 L56.8146 -18.5807 Z" /><ns0:path style="fill:none; stroke:black;" d="M52.9875 7.4175 L53.463 7.263 L53.463 6.763" /></ns0:g></ns0:g></ns0:svg></ns0:svg></ns0:svg></ns0:svg></g></svg>