<svg xmlns:ns0="http://www.w3.org/2000/svg" xmlns="http://www.w3.org/2000/svg"><g transform="translate(0, 0)"><ns0:svg width="117" viewBox="0 0 117 90" style="fill-opacity:1; color-rendering:auto; color-interpolation:auto; text-rendering:auto; stroke:black; stroke-linecap:square; stroke-miterlimit:10; shape-rendering:auto; stroke-opacity:1; fill:black; stroke-dasharray:none; font-weight:normal; stroke-width:1; font-family:'Open Sans'; font-style:normal; stroke-linejoin:miter; font-size:12; stroke-dashoffset:0; image-rendering:auto;" height="90" class="cas-substance-image"><ns0:svg class="cas-substance-single-component"><ns0:rect y="0" x="0" width="117" stroke="none" ry="7" rx="7" height="90" fill="white" class="cas-substance-group" /><ns0:svg y="0" x="0" width="117" viewBox="0 0 117 90" style="fill:black;" height="90" class="cas-substance-single-component-image"><ns0:svg><ns0:g><ns0:g transform="translate(58,45)" style="text-rendering:geometricPrecision; color-rendering:optimizeQuality; color-interpolation:linearRGB; stroke-linecap:butt; image-rendering:optimizeQuality;"><ns0:line y2="-4.5649" y1="7.5" x2="20.8964" x1="0" style="fill:none;" /><ns0:line y2="-4.5649" y1="7.5" x2="-20.8964" x1="0" style="fill:none;" /><ns0:line y2="31.0234" y1="6.4896" x2="-1.75" x1="-1.75" style="fill:none;" /><ns0:line y2="31.0234" y1="6.4896" x2="1.75" x1="1.75" style="fill:none;" /><ns0:line y2="-31.3438" y1="-13.9062" x2="25.98" x1="25.98" style="fill:none;" /><ns0:line y2="4.5246" y1="-4.5652" x2="46.809" x1="31.0637" style="fill:none;" /><ns0:line y2="4.5246" y1="-4.5652" x2="-46.809" x1="-31.0637" style="fill:none;" /><ns0:line y2="-31.3438" y1="-13.9062" x2="-25.98" x1="-25.98" style="fill:none;" /><ns0:path style="fill:none; stroke-miterlimit:5;" d="M0.433 7.25 L0 7.5 L-0.433 7.25" /></ns0:g><ns0:g transform="translate(58,45)" style="stroke-linecap:butt; fill:rgb(0,5,255); text-rendering:geometricPrecision; color-rendering:optimizeQuality; image-rendering:optimizeQuality; font-family:'Open Sans'; stroke:rgb(0,5,255); color-interpolation:linearRGB; stroke-miterlimit:5;"><ns0:path style="stroke:none;" d="M29.3316 -3.3438 L28.1909 -3.3438 L23.5034 -10.5312 L23.4566 -10.5312 Q23.5503 -9.2656 23.5503 -8.2188 L23.5503 -3.3438 L22.6284 -3.3438 L22.6284 -11.9062 L23.7534 -11.9062 L28.4253 -4.75 L28.4722 -4.75 Q28.4722 -4.9062 28.4253 -5.7656 Q28.3784 -6.625 28.3941 -7 L28.3941 -11.9062 L29.3316 -11.9062 L29.3316 -3.3438 Z" /><ns0:path style="stroke:none;" d="M-22.6284 -3.3438 L-23.7691 -3.3438 L-28.4566 -10.5312 L-28.5034 -10.5312 Q-28.4097 -9.2656 -28.4097 -8.2188 L-28.4097 -3.3438 L-29.3316 -3.3438 L-29.3316 -11.9062 L-28.2066 -11.9062 L-23.5347 -4.75 L-23.4878 -4.75 Q-23.4878 -4.9062 -23.5347 -5.7656 Q-23.5816 -6.625 -23.5659 -7 L-23.5659 -11.9062 L-22.6284 -11.9062 L-22.6284 -3.3438 Z" /><ns0:path style="fill:rgb(230,0,0); stroke:none;" d="M3.9375 37.4297 Q3.9375 39.4922 2.8984 40.6719 Q1.8594 41.8516 0.0156 41.8516 Q-1.875 41.8516 -2.9062 40.6875 Q-3.9375 39.5234 -3.9375 37.4141 Q-3.9375 35.3203 -2.9062 34.1719 Q-1.875 33.0234 0.0156 33.0234 Q1.875 33.0234 2.9062 34.1953 Q3.9375 35.3672 3.9375 37.4297 ZM-2.8906 37.4297 Q-2.8906 39.1641 -2.1484 40.0703 Q-1.4062 40.9766 0.0156 40.9766 Q1.4375 40.9766 2.1641 40.0781 Q2.8906 39.1797 2.8906 37.4297 Q2.8906 35.6953 2.1641 34.8047 Q1.4375 33.9141 0.0156 33.9141 Q-1.4062 33.9141 -2.1484 34.8125 Q-2.8906 35.7109 -2.8906 37.4297 Z" /><ns0:path style="fill:black; stroke:none;" d="M29.4019 -37.7031 Q29.4019 -35.5938 28.2534 -34.4688 Q27.105 -33.3438 24.9331 -33.3438 L22.5581 -33.3438 L22.5581 -41.9062 L25.1831 -41.9062 Q27.1831 -41.9062 28.2925 -40.8047 Q29.4019 -39.7031 29.4019 -37.7031 ZM28.355 -37.6719 Q28.355 -39.3438 27.5112 -40.1953 Q26.6675 -41.0469 25.0112 -41.0469 L23.5581 -41.0469 L23.5581 -34.2031 L24.7769 -34.2031 Q26.5581 -34.2031 27.4566 -35.0781 Q28.355 -35.9531 28.355 -37.6719 Z" /><ns0:path style="fill:black; stroke:none;" d="M55.3849 7.2969 Q55.3849 9.4062 54.2364 10.5312 Q53.088 11.6562 50.9161 11.6562 L48.5411 11.6562 L48.5411 3.0938 L51.1661 3.0938 Q53.1661 3.0938 54.2755 4.1953 Q55.3849 5.2969 55.3849 7.2969 ZM54.338 7.3281 Q54.338 5.6562 53.4943 4.8047 Q52.6505 3.9531 50.9943 3.9531 L49.5411 3.9531 L49.5411 10.7969 L50.7599 10.7969 Q52.5411 10.7969 53.4396 9.9219 Q54.338 9.0469 54.338 7.3281 Z" /><ns0:path style="fill:black; stroke:none;" d="M-48.5411 7.2969 Q-48.5411 9.4062 -49.6896 10.5312 Q-50.838 11.6562 -53.0099 11.6562 L-55.3849 11.6562 L-55.3849 3.0938 L-52.7599 3.0938 Q-50.7599 3.0938 -49.6505 4.1953 Q-48.5411 5.2969 -48.5411 7.2969 ZM-49.588 7.3281 Q-49.588 5.6562 -50.4318 4.8047 Q-51.2755 3.9531 -52.9318 3.9531 L-54.3849 3.9531 L-54.3849 10.7969 L-53.1661 10.7969 Q-51.3849 10.7969 -50.4864 9.9219 Q-49.588 9.0469 -49.588 7.3281 Z" /><ns0:path style="fill:black; stroke:none;" d="M-22.5581 -37.7031 Q-22.5581 -35.5938 -23.7066 -34.4688 Q-24.855 -33.3438 -27.0269 -33.3438 L-29.4019 -33.3438 L-29.4019 -41.9062 L-26.7769 -41.9062 Q-24.7769 -41.9062 -23.6675 -40.8047 Q-22.5581 -39.7031 -22.5581 -37.7031 ZM-23.605 -37.6719 Q-23.605 -39.3438 -24.4487 -40.1953 Q-25.2925 -41.0469 -26.9487 -41.0469 L-28.4019 -41.0469 L-28.4019 -34.2031 L-27.1831 -34.2031 Q-25.4019 -34.2031 -24.5034 -35.0781 Q-23.605 -35.9531 -23.605 -37.6719 Z" /></ns0:g></ns0:g></ns0:svg></ns0:svg></ns0:svg></ns0:svg></g></svg>