<svg width="379" viewBox="0 0 379 158" style="fill-opacity:1; color-rendering:auto; color-interpolation:auto; text-rendering:auto; stroke:black; stroke-linecap:square; stroke-miterlimit:10; shape-rendering:auto; stroke-opacity:1; fill:black; stroke-dasharray:none; font-weight:normal; stroke-width:1; font-family:'Open Sans'; font-style:normal; stroke-linejoin:miter; font-size:12; stroke-dashoffset:0; image-rendering:auto;" height="158" class="cas-substance-image" xmlns:xlink="http://www.w3.org/1999/xlink" xmlns="http://www.w3.org/2000/svg"><svg class="cas-substance-single-component"><rect y="0" x="0" width="379" stroke="none" ry="7" rx="7" height="158" fill="white" class="cas-substance-group"/><svg y="0" x="0" width="379" viewBox="0 0 379 158" style="fill:black;" height="158" class="cas-substance-single-component-image"><svg><g><g transform="translate(190,81)" style="text-rendering:geometricPrecision; color-rendering:optimizeQuality; color-interpolation:linearRGB; stroke-linecap:butt; image-rendering:optimizeQuality;"><line y2="-16.6904" y1="-28.449" x2="-53.5001" x1="-73.866" style="fill:none;"/><line y2="-13.449" y1="-28.449" x2="-99.846" x1="-73.866" style="fill:none;"/><line y2="-28.449" y1="-16.6748" x2="-21.903" x1="-42.2983" style="fill:none;"/><line y2="-16.3841" y1="-28.449" x2="-1.0066" x1="-21.903" style="fill:none;"/><line y2="-52.0974" y1="-27.4386" x2="-20.153" x1="-20.153" style="fill:none;"/><line y2="-52.0974" y1="-27.4387" x2="-23.653" x1="-23.653" style="fill:none;"/><path style="stroke:none;" d="M29.807 -28.882 L30.307 -28.016 L10.6606 -13.786 L7.6606 -18.9822 Z"/><line y2="-13.449" y1="-28.449" x2="56.037" x1="30.057" style="fill:none;"/><line y2="-58.449" y1="-28.449" x2="30.057" x1="30.057" style="fill:none;"/><line y2="-25.2604" y1="-13.449" x2="76.4968" x1="56.037" style="fill:none;"/><path style="stroke:none;" d="M55.537 -13.449 L56.537 -13.449 L59.037 16.551 L53.037 16.551 Z"/><line y2="-70.2602" y1="-58.449" x2="50.514" x1="30.057" style="fill:none;"/><line y2="-71.7859" y1="-59.4594" x2="10.4574" x1="31.807" style="fill:none;"/><line y2="-68.7549" y1="-56.4283" x2="8.7073" x1="30.057" style="fill:none;"/><line y2="-13.449" y1="-25.2704" x2="108" x1="87.5254" style="fill:none;"/><line y2="-28.449" y1="-13.449" x2="133.98" x1="108" style="fill:none;"/><line y2="16.386" y1="-13.449" x2="-102.981" x1="-99.846" style="fill:none;"/><line y2="-25.653" y1="-13.449" x2="-127.254" x1="-99.846" style="fill:none;"/><line y2="22.623" y1="16.386" x2="-132.327" x1="-102.981" style="fill:none;"/><line y2="38.679" y1="16.386" x2="-82.908" x1="-102.981" style="fill:none;"/><line y2="39.5193" y1="20.2297" x2="-86.8611" x1="-104.2298" style="fill:none;"/><line y2="-3.357" y1="-25.653" x2="-147.327" x1="-127.254" style="fill:none;"/><line y2="-54.183" y1="-25.653" x2="-136.524" x1="-127.254" style="fill:none;"/><line y2="-51.1796" y1="-26.4933" x2="-139.2283" x1="-131.2071" style="fill:none;"/><line y2="-3.357" y1="22.623" x2="-147.327" x1="-132.327" style="fill:none;"/><line y2="51.156" y1="22.623" x2="-141.597" x1="-132.327" style="fill:none;"/><line y2="50.3156" y1="25.6263" x2="-137.6439" x1="-129.6227" style="fill:none;"/><line y2="67.212" y1="38.679" x2="-92.178" x1="-82.908" style="fill:none;"/><line y2="-9.594" y1="-3.357" x2="-176.67" x1="-147.327" style="fill:none;"/><line y2="-12.5974" y1="-7.2006" x2="-173.9657" x1="-148.5759" style="fill:none;"/><line y2="-60.42" y1="-54.183" x2="-165.867" x1="-136.524" style="fill:none;"/><line y2="73.449" y1="51.156" x2="-121.524" x1="-141.597" style="fill:none;"/><line y2="73.449" y1="67.212" x2="-121.524" x1="-92.178" style="fill:none;"/><line y2="69.6054" y1="64.2086" x2="-120.275" x1="-94.8822" style="fill:none;"/><line y2="-38.127" y1="-9.594" x2="-185.943" x1="-176.67" style="fill:none;"/><line y2="-38.127" y1="-60.42" x2="-185.943" x1="-165.867" style="fill:none;"/><line y2="-37.2864" y1="-56.5762" x2="-181.9899" x1="-164.6184" style="fill:none;"/><line y2="-13.449" y1="-28.449" x2="159.96" x1="133.98" style="fill:none;"/><line y2="-17.4905" y1="-30.4697" x2="159.9601" x1="137.48" style="fill:none;"/><line y2="-58.449" y1="-28.449" x2="133.98" x1="133.98" style="fill:none;"/><line y2="-28.449" y1="-13.449" x2="185.943" x1="159.96" style="fill:none;"/><line y2="-73.449" y1="-58.449" x2="159.96" x1="133.98" style="fill:none;"/><line y2="-69.4075" y1="-56.4283" x2="159.9601" x1="137.48" style="fill:none;"/><line y2="-58.449" y1="-28.449" x2="185.943" x1="185.943" style="fill:none;"/><line y2="-56.4283" y1="-30.4697" x2="182.443" x1="182.443" style="fill:none;"/><line y2="-58.449" y1="-73.449" x2="185.943" x1="159.96" style="fill:none;"/><path style="fill:none; stroke-miterlimit:5;" d="M-73.433 -28.199 L-73.866 -28.449 L-74.299 -28.199"/></g><g transform="translate(190,81)" style="stroke-linecap:butt; fill:rgb(230,0,0); text-rendering:geometricPrecision; color-rendering:optimizeQuality; image-rendering:optimizeQuality; font-family:'Open Sans'; stroke:rgb(230,0,0); color-interpolation:linearRGB; stroke-miterlimit:5;"><path style="stroke:none;" d="M-43.9485 -13.5193 Q-43.9485 -11.4568 -44.9876 -10.2771 Q-46.0266 -9.0974 -47.8704 -9.0974 Q-49.761 -9.0974 -50.7923 -10.2615 Q-51.8235 -11.4256 -51.8235 -13.5349 Q-51.8235 -15.6287 -50.7923 -16.7771 Q-49.761 -17.9256 -47.8704 -17.9256 Q-46.011 -17.9256 -44.9798 -16.7537 Q-43.9485 -15.5818 -43.9485 -13.5193 ZM-50.7766 -13.5193 Q-50.7766 -11.7849 -50.0344 -10.8787 Q-49.2923 -9.9724 -47.8704 -9.9724 Q-46.4485 -9.9724 -45.7219 -10.8709 Q-44.9954 -11.7693 -44.9954 -13.5193 Q-44.9954 -15.2537 -45.7219 -16.1443 Q-46.4485 -17.0349 -47.8704 -17.0349 Q-49.2923 -17.0349 -50.0344 -16.1365 Q-50.7766 -15.2381 -50.7766 -13.5193 Z"/><path style="fill:none; stroke:black;" d="M-22.336 -28.199 L-21.903 -28.449 L-21.47 -28.199"/><path style="fill:rgb(0,5,255); stroke:none;" d="M7.4286 -9.2928 L6.2879 -9.2928 L1.6004 -16.4803 L1.5536 -16.4803 Q1.6473 -15.2146 1.6473 -14.1678 L1.6473 -9.2928 L0.7254 -9.2928 L0.7254 -17.8553 L1.8504 -17.8553 L6.5223 -10.699 L6.5692 -10.699 Q6.5692 -10.8553 6.5223 -11.7146 Q6.4754 -12.574 6.4911 -12.949 L6.4911 -17.8553 L7.4286 -17.8553 L7.4286 -9.2928 Z"/><path style="fill:rgb(0,5,255); stroke:none;" d="M7.3348 0.2697 L6.3348 0.2697 L6.3348 -3.7615 L1.8192 -3.7615 L1.8192 0.2697 L0.8192 0.2697 L0.8192 -8.2928 L1.8192 -8.2928 L1.8192 -4.6521 L6.3348 -4.6521 L6.3348 -8.2928 L7.3348 -8.2928 L7.3348 0.2697 Z"/><path style="stroke:none;" d="M-17.9655 -58.5193 Q-17.9655 -56.4568 -19.0046 -55.2771 Q-20.0436 -54.0974 -21.8874 -54.0974 Q-23.778 -54.0974 -24.8092 -55.2615 Q-25.8405 -56.4256 -25.8405 -58.5349 Q-25.8405 -60.6287 -24.8092 -61.7771 Q-23.778 -62.9256 -21.8874 -62.9256 Q-20.028 -62.9256 -18.9967 -61.7537 Q-17.9655 -60.5818 -17.9655 -58.5193 ZM-24.7936 -58.5193 Q-24.7936 -56.7849 -24.0514 -55.8787 Q-23.3092 -54.9724 -21.8874 -54.9724 Q-20.4655 -54.9724 -19.7389 -55.8709 Q-19.0124 -56.7693 -19.0124 -58.5193 Q-19.0124 -60.2537 -19.7389 -61.1443 Q-20.4655 -62.0349 -21.8874 -62.0349 Q-23.3092 -62.0349 -24.0514 -61.1365 Q-24.7936 -60.2381 -24.7936 -58.5193 Z"/></g><g transform="translate(190,81)" style="stroke-linecap:butt; font-size:8.4px; fill:gray; text-rendering:geometricPrecision; image-rendering:optimizeQuality; color-rendering:optimizeQuality; font-family:'Open Sans'; font-style:italic; stroke:gray; color-interpolation:linearRGB; stroke-miterlimit:5;"><path style="stroke:none;" d="M17.0082 -32.285 Q17.0082 -33.6132 17.4769 -34.7382 Q17.9457 -35.8632 18.9769 -36.9413 L19.5863 -36.9413 Q18.6175 -35.8788 18.1332 -34.7069 Q17.6488 -33.535 17.6488 -32.3007 Q17.6488 -30.9725 18.0863 -29.9569 L17.5707 -29.9569 Q17.0082 -30.9882 17.0082 -32.285 ZM20.5682 -33.5975 L20.0682 -31.2225 L19.412 -31.2225 L20.6151 -36.9413 L21.8651 -36.9413 Q23.5995 -36.9413 23.5995 -35.5038 Q23.5995 -34.1444 22.162 -33.7538 L23.0995 -31.2225 L22.3807 -31.2225 L21.5526 -33.5975 L20.5682 -33.5975 ZM21.1464 -36.3475 Q20.7557 -34.4257 20.6932 -34.1757 L21.3495 -34.1757 Q22.0995 -34.1757 22.5057 -34.5038 Q22.912 -34.8319 22.912 -35.4569 Q22.912 -35.9257 22.6542 -36.1366 Q22.3964 -36.3475 21.8026 -36.3475 L21.1464 -36.3475 ZM25.7854 -34.5975 Q25.7854 -33.2694 25.3089 -32.1366 Q24.8323 -31.0038 23.8167 -29.9569 L23.2073 -29.9569 Q25.1448 -32.1132 25.1448 -34.5975 Q25.1448 -35.9257 24.7073 -36.9413 L25.2229 -36.9413 Q25.7854 -35.8788 25.7854 -34.5975 Z"/><path style="stroke:none;" d="M51.9287 -22.2459 Q51.9287 -23.574 52.3975 -24.699 Q52.8662 -25.824 53.8975 -26.9021 L54.5069 -26.9021 Q53.5381 -25.8396 53.0537 -24.6678 Q52.5694 -23.4959 52.5694 -22.2615 Q52.5694 -20.9334 53.0069 -19.9178 L52.4912 -19.9178 Q51.9287 -20.949 51.9287 -22.2459 ZM57.5513 -22.8396 Q57.5513 -22.0115 57.0044 -21.5584 Q56.4575 -21.1053 55.4575 -21.1053 Q55.0513 -21.1053 54.7388 -21.1599 Q54.4263 -21.2146 54.145 -21.3553 L54.145 -22.0115 Q54.77 -21.6834 55.4732 -21.6834 Q56.0982 -21.6834 56.4732 -21.9803 Q56.8482 -22.2771 56.8482 -22.7928 Q56.8482 -23.1053 56.645 -23.3318 Q56.4419 -23.5584 55.8794 -23.8865 Q55.2857 -24.2146 55.0591 -24.5428 Q54.8325 -24.8709 54.8325 -25.324 Q54.8325 -26.0584 55.3482 -26.5193 Q55.8638 -26.9803 56.7075 -26.9803 Q57.0825 -26.9803 57.4185 -26.9021 Q57.7544 -26.824 58.1294 -26.6521 L57.8638 -26.0584 Q57.6138 -26.2146 57.2935 -26.3006 Q56.9732 -26.3865 56.7075 -26.3865 Q56.1763 -26.3865 55.856 -26.1131 Q55.5357 -25.8396 55.5357 -25.3709 Q55.5357 -25.1678 55.606 -25.0193 Q55.6763 -24.8709 55.8169 -24.7381 Q55.9575 -24.6053 56.3794 -24.3553 Q56.9419 -24.0115 57.145 -23.8162 Q57.3482 -23.6209 57.4497 -23.3865 Q57.5513 -23.1521 57.5513 -22.8396 ZM60.1458 -24.5584 Q60.1458 -23.2303 59.6692 -22.0974 Q59.1926 -20.9646 58.177 -19.9178 L57.5676 -19.9178 Q59.5051 -22.074 59.5051 -24.5584 Q59.5051 -25.8865 59.0676 -26.9021 L59.5833 -26.9021 Q60.1458 -25.8396 60.1458 -24.5584 Z"/><path style="fill:none; stroke:black;" d="M30.057 -57.949 L30.057 -58.449 L30.49 -58.699"/></g><g transform="translate(190,81)" style="stroke-linecap:butt; fill:rgb(230,0,0); text-rendering:geometricPrecision; color-rendering:optimizeQuality; image-rendering:optimizeQuality; font-family:'Open Sans'; stroke:rgb(230,0,0); color-interpolation:linearRGB; stroke-miterlimit:5;"><path style="stroke:none;" d="M85.9575 -28.5193 Q85.9575 -26.4568 84.9184 -25.2771 Q83.8794 -24.0974 82.0356 -24.0974 Q80.145 -24.0974 79.1137 -25.2615 Q78.0825 -26.4256 78.0825 -28.5349 Q78.0825 -30.6287 79.1137 -31.7771 Q80.145 -32.9256 82.0356 -32.9256 Q83.895 -32.9256 84.9262 -31.7537 Q85.9575 -30.5818 85.9575 -28.5193 ZM79.1294 -28.5193 Q79.1294 -26.7849 79.8716 -25.8787 Q80.6137 -24.9724 82.0356 -24.9724 Q83.4575 -24.9724 84.1841 -25.8709 Q84.9106 -26.7693 84.9106 -28.5193 Q84.9106 -30.2537 84.1841 -31.1443 Q83.4575 -32.0349 82.0356 -32.0349 Q80.6137 -32.0349 79.8716 -31.1365 Q79.1294 -30.2381 79.1294 -28.5193 Z"/><path style="stroke:none;" d="M59.9745 -73.5193 Q59.9745 -71.4568 58.9354 -70.2771 Q57.8964 -69.0974 56.0526 -69.0974 Q54.162 -69.0974 53.1307 -70.2615 Q52.0995 -71.4256 52.0995 -73.5349 Q52.0995 -75.6287 53.1307 -76.7771 Q54.162 -77.9256 56.0526 -77.9256 Q57.912 -77.9256 58.9432 -76.7537 Q59.9745 -75.5818 59.9745 -73.5193 ZM53.1464 -73.5193 Q53.1464 -71.7849 53.8886 -70.8787 Q54.6307 -69.9724 56.0526 -69.9724 Q57.4745 -69.9724 58.2011 -70.8709 Q58.9276 -71.7693 58.9276 -73.5193 Q58.9276 -75.2537 58.2011 -76.1443 Q57.4745 -77.0349 56.0526 -77.0349 Q54.6307 -77.0349 53.8886 -76.1365 Q53.1464 -75.2381 53.1464 -73.5193 Z"/><path style="stroke:none;" d="M67.4901 -69.2224 L66.4901 -69.2224 L66.4901 -73.2537 L61.9745 -73.2537 L61.9745 -69.2224 L60.9745 -69.2224 L60.9745 -77.7849 L61.9745 -77.7849 L61.9745 -74.1443 L66.4901 -74.1443 L66.4901 -77.7849 L67.4901 -77.7849 L67.4901 -69.2224 Z"/><path style="stroke:none;" d="M8.0145 -73.5193 Q8.0145 -71.4568 6.9754 -70.2771 Q5.9364 -69.0974 4.0926 -69.0974 Q2.202 -69.0974 1.1708 -70.2615 Q0.1395 -71.4256 0.1395 -73.5349 Q0.1395 -75.6287 1.1708 -76.7771 Q2.202 -77.9256 4.0926 -77.9256 Q5.952 -77.9256 6.9833 -76.7537 Q8.0145 -75.5818 8.0145 -73.5193 ZM1.1864 -73.5193 Q1.1864 -71.7849 1.9286 -70.8787 Q2.6708 -69.9724 4.0926 -69.9724 Q5.5145 -69.9724 6.2411 -70.8709 Q6.9676 -71.7693 6.9676 -73.5193 Q6.9676 -75.2537 6.2411 -76.1443 Q5.5145 -77.0349 4.0926 -77.0349 Q2.6708 -77.0349 1.9286 -76.1365 Q1.1864 -75.2381 1.1864 -73.5193 Z"/><path style="fill:none; stroke:black;" d="M107.567 -13.699 L108 -13.449 L108.433 -13.699"/><path style="fill:none; stroke:black;" d="M-102.6464 16.7576 L-102.981 16.386 L-102.9287 15.8887"/><path style="fill:none; stroke:black;" d="M-127.4085 -26.1285 L-127.254 -25.653 L-126.7972 -25.4496"/><path style="fill:none; stroke:black;" d="M-132.4815 23.0985 L-132.327 22.623 L-131.8379 22.5191"/><path style="fill:none; stroke:black;" d="M-83.2426 38.3074 L-82.908 38.679 L-83.0625 39.1545"/><path style="fill:none; stroke:black;" d="M-147.8161 -3.461 L-147.327 -3.357 L-146.9924 -3.7286"/><path style="fill:none; stroke:black;" d="M-136.3695 -53.7075 L-136.524 -54.183 L-137.0131 -54.287"/><path style="fill:none; stroke:black;" d="M-141.4425 50.6805 L-141.597 51.156 L-141.2624 51.5276"/><path style="fill:none; stroke:black;" d="M-92.0235 66.7365 L-92.178 67.212 L-92.6671 67.3159"/><path style="fill:none; stroke:black;" d="M-176.1809 -9.49 L-176.67 -9.594 L-176.8245 -10.0695"/><path style="fill:none; stroke:black;" d="M-165.3779 -60.316 L-165.867 -60.42 L-166.2016 -60.0485"/><path style="fill:none; stroke:black;" d="M-121.8586 73.0774 L-121.524 73.449 L-121.0349 73.3451"/><path style="fill:none; stroke:black;" d="M-185.7885 -37.6515 L-185.943 -38.127 L-185.6084 -38.4985"/><path style="fill:none; stroke:black;" d="M134.413 -28.199 L133.98 -28.449 L133.547 -28.199"/><path style="fill:none; stroke:black;" d="M159.527 -13.699 L159.96 -13.449 L160.393 -13.699"/><path style="fill:none; stroke:black;" d="M133.98 -57.949 L133.98 -58.449 L134.413 -58.699"/><path style="fill:none; stroke:black;" d="M185.51 -28.199 L185.943 -28.449 L185.943 -28.949"/><path style="fill:none; stroke:black;" d="M159.527 -73.199 L159.96 -73.449 L160.393 -73.199"/><path style="fill:none; stroke:black;" d="M185.943 -57.949 L185.943 -58.449 L185.51 -58.699"/></g></g></svg></svg></svg></svg>