<svg xmlns:ns0="http://www.w3.org/2000/svg" xmlns="http://www.w3.org/2000/svg"><g transform="translate(0, 0)"><ns0:svg width="197" viewBox="0 0 197 59" style="fill-opacity:1; color-rendering:auto; color-interpolation:auto; text-rendering:auto; stroke:black; stroke-linecap:square; stroke-miterlimit:10; shape-rendering:auto; stroke-opacity:1; fill:black; stroke-dasharray:none; font-weight:normal; stroke-width:1; font-family:'Open Sans'; font-style:normal; stroke-linejoin:miter; font-size:12; stroke-dashoffset:0; image-rendering:auto;" height="59" class="cas-substance-image"><ns0:svg class="cas-substance-single-component"><ns0:rect y="0" x="0" width="197" stroke="none" ry="7" rx="7" height="59" fill="white" class="cas-substance-group" /><ns0:svg y="0" x="0" width="197" viewBox="0 0 197 59" style="fill:black;" height="59" class="cas-substance-single-component-image"><ns0:svg><ns0:g><ns0:g transform="translate(104,29)" style="text-rendering:geometricPrecision; color-rendering:optimizeQuality; color-interpolation:linearRGB; stroke-linecap:butt; image-rendering:optimizeQuality;"><ns0:line y2="0" y1="0" x2="60" x1="90" style="fill:none;" /><ns0:line y2="-25.98" y1="0" x2="15" x1="0" style="fill:none;" /><ns0:line y2="-22.48" y1="0.0001" x2="17.0207" x1="4.0415" style="fill:none;" /><ns0:line y2="25.98" y1="0" x2="15" x1="0" style="fill:none;" /><ns0:line y2="0" y1="0" x2="-24.6484" x1="0" style="fill:none;" /><ns0:line y2="-25.98" y1="-25.98" x2="45" x1="15" style="fill:none;" /><ns0:line y2="25.98" y1="25.98" x2="45" x1="15" style="fill:none;" /><ns0:line y2="22.48" y1="22.48" x2="42.9793" x1="17.0207" style="fill:none;" /><ns0:line y2="0" y1="-25.98" x2="60" x1="45" style="fill:none;" /><ns0:line y2="0.0001" y1="-22.48" x2="55.9585" x1="42.9793" style="fill:none;" /><ns0:line y2="0" y1="25.98" x2="60" x1="45" style="fill:none;" /><ns0:line y2="25.98" y1="5.8883" x2="-45" x1="-33.3997" style="fill:none;" /><ns0:line y2="-25.98" y1="-6.1383" x2="-45" x1="-33.544" style="fill:none;" /><ns0:line y2="25.98" y1="25.98" x2="-75" x1="-45" style="fill:none;" /><ns0:line y2="-25.98" y1="-25.98" x2="-75" x1="-45" style="fill:none;" /><ns0:line y2="5.8883" y1="25.98" x2="-86.6003" x1="-75" style="fill:none;" /><ns0:line y2="-6.1383" y1="-25.98" x2="-86.456" x1="-75" style="fill:none;" /><ns0:path style="fill:none; stroke-miterlimit:5;" d="M0.25 -0.433 L0 0 L0.25 0.433" /><ns0:path style="fill:none; stroke-miterlimit:5;" d="M14.75 -25.547 L15 -25.98 L15.5 -25.98" /><ns0:path style="fill:none; stroke-miterlimit:5;" d="M14.75 25.547 L15 25.98 L15.5 25.98" /><ns0:path style="fill:none; stroke-miterlimit:5;" d="M44.5 -25.98 L45 -25.98 L45.25 -25.547" /><ns0:path style="fill:none; stroke-miterlimit:5;" d="M44.5 25.98 L45 25.98 L45.25 25.547" /><ns0:path style="fill:none; stroke-miterlimit:5;" d="M59.75 -0.433 L60 0 L60.5 0" /></ns0:g><ns0:g transform="translate(104,29)" style="stroke-linecap:butt; fill:rgb(0,5,255); text-rendering:geometricPrecision; color-rendering:optimizeQuality; image-rendering:optimizeQuality; font-family:'Open Sans'; stroke:rgb(0,5,255); color-interpolation:linearRGB; stroke-miterlimit:5;"><ns0:path style="stroke:none;" d="M-26.6484 4.1562 L-27.7891 4.1562 L-32.4766 -3.0312 L-32.5234 -3.0312 Q-32.4297 -1.7656 -32.4297 -0.7188 L-32.4297 4.1562 L-33.3516 4.1562 L-33.3516 -4.4062 L-32.2266 -4.4062 L-27.5547 2.75 L-27.5078 2.75 Q-27.5078 2.5938 -27.5547 1.7344 Q-27.6016 0.875 -27.5859 0.5 L-27.5859 -4.4062 L-26.6484 -4.4062 L-26.6484 4.1562 Z" /><ns0:path style="fill:none; stroke:black;" d="M-44.75 25.547 L-45 25.98 L-45.5 25.98" /><ns0:path style="fill:none; stroke:black;" d="M-44.75 -25.547 L-45 -25.98 L-45.5 -25.98" /><ns0:path style="fill:none; stroke:black;" d="M-74.5 25.98 L-75 25.98 L-75.25 25.547" /><ns0:path style="fill:none; stroke:black;" d="M-74.5 -25.98 L-75 -25.98 L-75.25 -25.547" /><ns0:path style="stroke:none;" d="M-86.6484 4.1562 L-87.7891 4.1562 L-92.4766 -3.0312 L-92.5234 -3.0312 Q-92.4297 -1.7656 -92.4297 -0.7188 L-92.4297 4.1562 L-93.3516 4.1562 L-93.3516 -4.4062 L-92.2266 -4.4062 L-87.5547 2.75 L-87.5078 2.75 Q-87.5078 2.5938 -87.5547 1.7344 Q-87.6016 0.875 -87.5859 0.5 L-87.5859 -4.4062 L-86.6484 -4.4062 L-86.6484 4.1562 Z" /><ns0:path style="stroke:none;" d="M-94.3516 4.1562 L-95.3516 4.1562 L-95.3516 0.125 L-99.8672 0.125 L-99.8672 4.1562 L-100.8672 4.1562 L-100.8672 -4.4062 L-99.8672 -4.4062 L-99.8672 -0.7656 L-95.3516 -0.7656 L-95.3516 -4.4062 L-94.3516 -4.4062 L-94.3516 4.1562 Z" /></ns0:g></ns0:g></ns0:svg></ns0:svg></ns0:svg></ns0:svg></g></svg>