<svg width="210" viewBox="0 0 210 101" style="fill-opacity:1; color-rendering:auto; color-interpolation:auto; text-rendering:auto; stroke:black; stroke-linecap:square; stroke-miterlimit:10; shape-rendering:auto; stroke-opacity:1; fill:black; stroke-dasharray:none; font-weight:normal; stroke-width:1; font-family:'Open Sans'; font-style:normal; stroke-linejoin:miter; font-size:12; stroke-dashoffset:0; image-rendering:auto;" height="101" class="cas-substance-image" xmlns:xlink="http://www.w3.org/1999/xlink" xmlns="http://www.w3.org/2000/svg"><svg class="cas-substance-single-component"><rect y="0" x="0" width="210" stroke="none" ry="7" rx="7" height="101" fill="white" class="cas-substance-group"/><svg y="0" x="0" width="210" viewBox="0 0 210 101" style="fill:black;" height="101" class="cas-substance-single-component-image"><svg><g><g transform="translate(110,52)" style="text-rendering:geometricPrecision; color-rendering:optimizeQuality; color-interpolation:linearRGB; stroke-linecap:butt; image-rendering:optimizeQuality;"><line y2="-3.2414" y1="-15" x2="38.7379" x1="18.372" style="fill:none;"/><line y2="-38.6484" y1="-13.9896" x2="20.122" x1="20.122" style="fill:none;"/><line y2="-38.6484" y1="-13.9897" x2="16.622" x1="16.622" style="fill:none;"/><line y2="-2.9348" y1="-15" x2="-2.5273" x1="18.372" style="fill:none;"/><line y2="-15" y1="-3.226" x2="70.332" x1="49.9395" style="fill:none;"/><line y2="-40.98" y1="-15" x2="55.332" x1="70.332" style="fill:none;"/><line y2="-30" y1="-15" x2="96.312" x1="70.332" style="fill:none;"/><line y2="10.98" y1="-15" x2="85.332" x1="70.332" style="fill:none;"/><line y2="-15" y1="0" x2="-33.591" x1="-59.571" style="fill:none;"/><line y2="-28.977" y1="0" x2="-67.335" x1="-59.571" style="fill:none;"/><line y2="7.764" y1="0" x2="-88.548" x1="-59.571" style="fill:none;"/><line y2="30" y1="0" x2="-59.571" x1="-59.571" style="fill:none;"/><line y2="-2.9351" y1="-15" x2="-12.6946" x1="-33.591" style="fill:none;"/><line y2="-22.6286" y1="-28.977" x2="-91.0286" x1="-67.335" style="fill:none;"/><line y2="-15.1249" y1="7.764" x2="-94.6808" x1="-88.548" style="fill:none;"/><line y2="45" y1="30" x2="-33.591" x1="-59.571" style="fill:none;"/><line y2="30" y1="6.1562" x2="-7.611" x1="-7.611" style="fill:none;"/><line y2="30" y1="45" x2="-7.611" x1="-33.591" style="fill:none;"/><path style="fill:none; stroke-miterlimit:5;" d="M18.805 -14.75 L18.372 -15 L17.939 -14.75"/></g><g transform="translate(110,52)" style="stroke-linecap:butt; fill:rgb(230,0,0); text-rendering:geometricPrecision; color-rendering:optimizeQuality; image-rendering:optimizeQuality; font-family:'Open Sans'; stroke:rgb(230,0,0); color-interpolation:linearRGB; stroke-miterlimit:5;"><path style="stroke:none;" d="M48.2895 -0.0703 Q48.2895 1.9922 47.2504 3.1719 Q46.2114 4.3516 44.3676 4.3516 Q42.477 4.3516 41.4458 3.1875 Q40.4145 2.0234 40.4145 -0.0859 Q40.4145 -2.1797 41.4458 -3.3281 Q42.477 -4.4766 44.3676 -4.4766 Q46.227 -4.4766 47.2583 -3.3047 Q48.2895 -2.1328 48.2895 -0.0703 ZM41.4614 -0.0703 Q41.4614 1.6641 42.2036 2.5703 Q42.9458 3.4766 44.3676 3.4766 Q45.7895 3.4766 46.5161 2.5781 Q47.2426 1.6797 47.2426 -0.0703 Q47.2426 -1.8047 46.5161 -2.6953 Q45.7895 -3.5859 44.3676 -3.5859 Q42.9458 -3.5859 42.2036 -2.6875 Q41.4614 -1.7891 41.4614 -0.0703 Z"/><path style="stroke:none;" d="M22.3095 -45.0703 Q22.3095 -43.0078 21.2704 -41.8281 Q20.2314 -40.6484 18.3876 -40.6484 Q16.497 -40.6484 15.4657 -41.8125 Q14.4345 -42.9766 14.4345 -45.0859 Q14.4345 -47.1797 15.4657 -48.3281 Q16.497 -49.4766 18.3876 -49.4766 Q20.247 -49.4766 21.2782 -48.3047 Q22.3095 -47.1328 22.3095 -45.0703 ZM15.4814 -45.0703 Q15.4814 -43.3359 16.2236 -42.4297 Q16.9657 -41.5234 18.3876 -41.5234 Q19.8095 -41.5234 20.5361 -42.4219 Q21.2626 -43.3203 21.2626 -45.0703 Q21.2626 -46.8047 20.5361 -47.6953 Q19.8095 -48.5859 18.3876 -48.5859 Q16.9657 -48.5859 16.2236 -47.6875 Q15.4814 -46.7891 15.4814 -45.0703 Z"/><path style="fill:none; stroke:black;" d="M-34.024 -14.75 L-33.591 -15 L-33.158 -14.75"/><path style="fill:none; stroke:black;" d="M-67.2056 -28.494 L-67.335 -28.977 L-67.818 -28.8476"/><path style="fill:none; stroke:black;" d="M-88.065 7.6346 L-88.548 7.764 L-88.6774 7.281"/><path style="fill:none; stroke:black;" d="M-59.571 29.5 L-59.571 30 L-59.138 30.25"/><path style="fill:rgb(0,5,255); stroke:none;" d="M-4.2594 4.1562 L-5.4001 4.1562 L-10.0876 -3.0312 L-10.1344 -3.0312 Q-10.0407 -1.7656 -10.0407 -0.7188 L-10.0407 4.1562 L-10.9626 4.1562 L-10.9626 -4.4062 L-9.8376 -4.4062 L-5.1657 2.75 L-5.1188 2.75 Q-5.1188 2.5938 -5.1657 1.7344 Q-5.2126 0.875 -5.1969 0.5 L-5.1969 -4.4062 L-4.2594 -4.4062 L-4.2594 4.1562 Z"/><path style="fill:rgb(0,5,255); stroke:none;" d="M-92.9604 -17.0567 L-94.1011 -17.0567 L-98.7886 -24.2442 L-98.8354 -24.2442 Q-98.7417 -22.9786 -98.7417 -21.9317 L-98.7417 -17.0567 L-99.6636 -17.0567 L-99.6636 -25.6192 L-98.5386 -25.6192 L-93.8667 -18.463 L-93.8198 -18.463 Q-93.8198 -18.6192 -93.8667 -19.4786 Q-93.9136 -20.338 -93.8979 -20.713 L-93.8979 -25.6192 L-92.9604 -25.6192 L-92.9604 -17.0567 Z"/><path style="fill:rgb(0,5,255); stroke:none;" d="M-100.6636 -17.0567 L-101.6636 -17.0567 L-101.6636 -21.088 L-106.1792 -21.088 L-106.1792 -17.0567 L-107.1792 -17.0567 L-107.1792 -25.6192 L-106.1792 -25.6192 L-106.1792 -21.9786 L-101.6636 -21.9786 L-101.6636 -25.6192 L-100.6636 -25.6192 L-100.6636 -17.0567 Z"/><path style="fill:none; stroke:black;" d="M-34.024 44.75 L-33.591 45 L-33.158 44.75"/><path style="fill:none; stroke:black;" d="M-7.611 29.5 L-7.611 30 L-8.044 30.25"/></g></g></svg></svg></svg></svg>