<svg xmlns:ns0="http://www.w3.org/2000/svg" xmlns="http://www.w3.org/2000/svg"><g transform="translate(0, 0)"><ns0:svg width="200" viewBox="0 0 200 100" style="fill-opacity:1; color-rendering:auto; color-interpolation:auto; text-rendering:auto; stroke:black; stroke-linecap:square; stroke-miterlimit:10; shape-rendering:auto; stroke-opacity:1; fill:black; stroke-dasharray:none; font-weight:normal; stroke-width:1; font-family:'Open Sans'; font-style:normal; stroke-linejoin:miter; font-size:12; stroke-dashoffset:0; image-rendering:auto;" height="100" class="cas-substance-image"><ns0:svg class="cas-substance-single-component"><ns0:rect y="0" x="0" width="200" stroke="none" ry="7" rx="7" height="100" fill="white" class="cas-substance-group" /><ns0:svg y="0" x="0" width="200" viewBox="0 0 200 100" style="fill:black;" height="100" class="cas-substance-single-component-image"><ns0:svg><ns0:g><ns0:g transform="translate(94,52)" style="text-rendering:geometricPrecision; color-rendering:optimizeQuality; color-interpolation:linearRGB; stroke-linecap:butt; image-rendering:optimizeQuality;"><ns0:line y2="0" y1="15" x2="-90.933" x1="-64.953" style="fill:none;" /><ns0:line y2="45" y1="13.9896" x2="-66.703" x1="-66.703" style="fill:none;" /><ns0:line y2="45" y1="13.9897" x2="-63.203" x1="-63.203" style="fill:none;" /><ns0:line y2="0" y1="15" x2="-38.97" x1="-64.953" style="fill:none;" /><ns0:line y2="-32.9348" y1="-45" x2="59.8694" x1="38.97" style="fill:none;" /><ns0:line y2="-35.966" y1="-47.0209" x2="61.6192" x1="42.4699" style="fill:none;" /></ns0:g><ns0:g transform="translate(94,52)" style="stroke-linecap:butt; font-size:8.4px; fill:gray; text-rendering:geometricPrecision; image-rendering:optimizeQuality; color-rendering:optimizeQuality; font-family:'Open Sans'; font-style:italic; stroke:gray; color-interpolation:linearRGB;"><ns0:path style="stroke:none;" d="M42.8145 -27.6755 Q42.8145 -29.0036 43.2832 -30.1286 Q43.752 -31.2536 44.7832 -32.3317 L45.3926 -32.3317 Q44.4238 -31.2692 43.9395 -30.0974 Q43.4551 -28.9255 43.4551 -27.6911 Q43.4551 -26.363 43.8926 -25.3474 L43.377 -25.3474 Q42.8145 -26.3786 42.8145 -27.6755 ZM48.0776 -26.613 L45.2183 -26.613 L46.4214 -32.3317 L49.2964 -32.3317 L49.1714 -31.7224 L46.9526 -31.7224 L46.5776 -29.8942 L48.6245 -29.8942 L48.5151 -29.3005 L46.4526 -29.3005 L45.9995 -27.2067 L48.2183 -27.2067 L48.0776 -26.613 ZM51.1092 -29.988 Q51.1092 -28.6599 50.6326 -27.5271 Q50.1561 -26.3942 49.1404 -25.3474 L48.5311 -25.3474 Q50.4686 -27.5036 50.4686 -29.988 Q50.4686 -31.3161 50.0311 -32.3317 L50.5467 -32.3317 Q51.1092 -31.2692 51.1092 -29.988 Z" /><ns0:line y2="-30" y1="-45" x2="12.99" x1="38.97" style="fill:none; stroke:black;" /><ns0:line y2="-41.8112" y1="-32.9351" x2="85.41" x1="70.0366" style="fill:none; stroke:black;" /><ns0:line y2="15" y1="0" x2="-12.99" x1="-38.97" style="fill:none; stroke:black;" /><ns0:line y2="-30" y1="0" x2="-38.97" x1="-38.97" style="fill:none; stroke:black;" /><ns0:line y2="0" y1="15" x2="12.99" x1="-12.99" style="fill:none; stroke:black;" /><ns0:line y2="-45" y1="-30" x2="-12.99" x1="-38.97" style="fill:none; stroke:black;" /><ns0:line y2="-30" y1="0" x2="12.99" x1="12.99" style="fill:none; stroke:black;" /><ns0:line y2="-30" y1="-45" x2="12.99" x1="-12.99" style="fill:none; stroke:black;" /><ns0:line y2="-27.9793" y1="-40.9585" x2="9.49" x1="-12.9901" style="fill:none; stroke:black;" /><ns0:path style="fill:none; stroke-miterlimit:5; stroke:black;" d="M-65.386 14.75 L-64.953 15 L-64.52 14.75" /><ns0:path style="fill:none; stroke-miterlimit:5; stroke:black;" d="M39.403 -44.75 L38.97 -45 L38.537 -44.75" /></ns0:g><ns0:g transform="translate(94,52)" style="stroke-linecap:butt; fill:rgb(0,5,255); text-rendering:geometricPrecision; color-rendering:optimizeQuality; image-rendering:optimizeQuality; font-family:'Open Sans'; stroke:rgb(0,5,255); color-interpolation:linearRGB; stroke-miterlimit:5;"><ns0:path style="stroke:none;" d="M68.3046 -25.8438 L67.1639 -25.8438 L62.4764 -33.0312 L62.4296 -33.0312 Q62.5233 -31.7656 62.5233 -30.7188 L62.5233 -25.8438 L61.6014 -25.8438 L61.6014 -34.4062 L62.7264 -34.4062 L67.3983 -27.25 L67.4452 -27.25 Q67.4452 -27.4062 67.3983 -28.2656 Q67.3514 -29.125 67.3671 -29.5 L67.3671 -34.4062 L68.3046 -34.4062 L68.3046 -25.8438 Z" /><ns0:path style="fill:rgb(230,0,0); stroke:none;" d="M94.8705 -45.0703 Q94.8705 -43.0078 93.8314 -41.8281 Q92.7924 -40.6484 90.9486 -40.6484 Q89.058 -40.6484 88.0267 -41.8125 Q86.9955 -42.9766 86.9955 -45.0859 Q86.9955 -47.1797 88.0267 -48.3281 Q89.058 -49.4766 90.9486 -49.4766 Q92.808 -49.4766 93.8392 -48.3047 Q94.8705 -47.1328 94.8705 -45.0703 ZM88.0424 -45.0703 Q88.0424 -43.3359 88.7846 -42.4297 Q89.5267 -41.5234 90.9486 -41.5234 Q92.3705 -41.5234 93.0971 -42.4219 Q93.8236 -43.3203 93.8236 -45.0703 Q93.8236 -46.8047 93.0971 -47.6953 Q92.3705 -48.5859 90.9486 -48.5859 Q89.5267 -48.5859 88.7846 -47.6875 Q88.0424 -46.7891 88.0424 -45.0703 Z" /><ns0:path style="fill:rgb(230,0,0); stroke:none;" d="M102.3861 -40.7734 L101.3861 -40.7734 L101.3861 -44.8047 L96.8705 -44.8047 L96.8705 -40.7734 L95.8705 -40.7734 L95.8705 -49.3359 L96.8705 -49.3359 L96.8705 -45.6953 L101.3861 -45.6953 L101.3861 -49.3359 L102.3861 -49.3359 L102.3861 -40.7734 Z" /><ns0:path style="fill:none; stroke:black;" d="M-13.423 14.75 L-12.99 15 L-12.557 14.75" /><ns0:path style="fill:none; stroke:black;" d="M-38.97 -29.5 L-38.97 -30 L-38.537 -30.25" /><ns0:path style="fill:none; stroke:black;" d="M12.557 0.25 L12.99 0 L12.99 -0.5" /><ns0:path style="fill:none; stroke:black;" d="M-13.423 -44.75 L-12.99 -45 L-12.557 -44.75" /><ns0:path style="fill:none; stroke:black;" d="M12.557 -30.25 L12.99 -30 L13.423 -30.25" /></ns0:g></ns0:g></ns0:svg></ns0:svg></ns0:svg></ns0:svg></g></svg>