<svg width="272" viewBox="0 0 272 84" style="fill-opacity:1; color-rendering:auto; color-interpolation:auto; text-rendering:auto; stroke:black; stroke-linecap:square; stroke-miterlimit:10; shape-rendering:auto; stroke-opacity:1; fill:black; stroke-dasharray:none; font-weight:normal; stroke-width:1; font-family:'Open Sans'; font-style:normal; stroke-linejoin:miter; font-size:12; stroke-dashoffset:0; image-rendering:auto;" height="84" class="cas-substance-image" xmlns:xlink="http://www.w3.org/1999/xlink" xmlns="http://www.w3.org/2000/svg"><svg class="cas-substance-single-component"><rect y="0" x="0" width="272" stroke="none" ry="7" rx="7" height="84" fill="white" class="cas-substance-group"/><svg y="0" x="0" width="272" viewBox="0 0 272 84" style="fill:black;" height="84" class="cas-substance-single-component-image"><svg><g><g transform="translate(133,41)" style="text-rendering:geometricPrecision; color-rendering:optimizeQuality; color-interpolation:linearRGB; stroke-linecap:butt; image-rendering:optimizeQuality;"><line y2="-9.51" y1="-24.51" x2="0" x1="25.98" style="fill:none;"/><line y2="-9.51" y1="-24.51" x2="51.963" x1="25.98" style="fill:none;"/><line y2="-21.5749" y1="-9.51" x2="-20.8964" x1="0" style="fill:none;"/><line y2="-9.51" y1="-21.5752" x2="-51.963" x1="-31.0637" style="fill:none;"/><line y2="-21.3314" y1="-9.51" x2="-72.4376" x1="-51.963" style="fill:none;"/><line y2="14.0134" y1="-10.5204" x2="-53.713" x1="-53.713" style="fill:none;"/><line y2="14.0134" y1="-10.5203" x2="-50.213" x1="-50.213" style="fill:none;"/><line y2="-9.51" y1="-21.3212" x2="-103.923" x1="-83.466" style="fill:none;"/><line y2="16.47" y1="-9.51" x2="-88.923" x1="-103.923" style="fill:none;"/><line y2="5.49" y1="-9.51" x2="-129.903" x1="-103.923" style="fill:none;"/><line y2="-35.49" y1="-9.51" x2="-118.923" x1="-103.923" style="fill:none;"/><line y2="20.49" y1="31.2169" x2="103.923" x1="122.502" style="fill:none;"/><line y2="-24.51" y1="-9.51" x2="77.943" x1="51.963" style="fill:none;"/><line y2="-20.4685" y1="-7.4893" x2="77.9431" x1="55.463" style="fill:none;"/><line y2="20.49" y1="-9.51" x2="51.963" x1="51.963" style="fill:none;"/><line y2="-9.51" y1="-24.51" x2="103.923" x1="77.943" style="fill:none;"/><line y2="35.49" y1="20.49" x2="77.943" x1="51.963" style="fill:none;"/><line y2="31.4485" y1="18.4693" x2="77.9431" x1="55.463" style="fill:none;"/><line y2="20.49" y1="-9.51" x2="103.923" x1="103.923" style="fill:none;"/><line y2="18.4693" y1="-7.4893" x2="100.423" x1="100.423" style="fill:none;"/><line y2="20.49" y1="35.49" x2="103.923" x1="77.943" style="fill:none;"/><path style="fill:none; stroke-miterlimit:5;" d="M25.547 -24.26 L25.98 -24.51 L26.413 -24.26"/><path style="fill:none; stroke-miterlimit:5;" d="M0.433 -9.76 L0 -9.51 L-0.433 -9.76"/></g><g transform="translate(133,41)" style="stroke-linecap:butt; fill:rgb(0,5,255); text-rendering:geometricPrecision; color-rendering:optimizeQuality; image-rendering:optimizeQuality; font-family:'Open Sans'; stroke:rgb(0,5,255); color-interpolation:linearRGB; stroke-miterlimit:5;"><path style="stroke:none;" d="M-22.6284 -20.3537 L-23.7691 -20.3537 L-28.4566 -27.5412 L-28.5034 -27.5412 Q-28.4097 -26.2756 -28.4097 -25.2287 L-28.4097 -20.3537 L-29.3316 -20.3537 L-29.3316 -28.9162 L-28.2066 -28.9162 L-23.5347 -21.76 L-23.4878 -21.76 Q-23.4878 -21.9162 -23.5347 -22.7756 Q-23.5816 -23.635 -23.5659 -24.01 L-23.5659 -28.9162 L-22.6284 -28.9162 L-22.6284 -20.3537 Z"/><path style="stroke:none;" d="M-22.7222 -29.9162 L-23.7222 -29.9162 L-23.7222 -33.9475 L-28.2378 -33.9475 L-28.2378 -29.9162 L-29.2378 -29.9162 L-29.2378 -38.4787 L-28.2378 -38.4787 L-28.2378 -34.8381 L-23.7222 -34.8381 L-23.7222 -38.4787 L-22.7222 -38.4787 L-22.7222 -29.9162 Z"/><path style="fill:none; stroke:black;" d="M-51.53 -9.76 L-51.963 -9.51 L-52.396 -9.76"/><path style="fill:rgb(230,0,0); stroke:none;" d="M-74.0055 -24.5803 Q-74.0055 -22.5178 -75.0446 -21.3381 Q-76.0836 -20.1584 -77.9274 -20.1584 Q-79.818 -20.1584 -80.8493 -21.3225 Q-81.8805 -22.4866 -81.8805 -24.5959 Q-81.8805 -26.6897 -80.8493 -27.8381 Q-79.818 -28.9866 -77.9274 -28.9866 Q-76.068 -28.9866 -75.0368 -27.8147 Q-74.0055 -26.6428 -74.0055 -24.5803 ZM-80.8336 -24.5803 Q-80.8336 -22.8459 -80.0914 -21.9397 Q-79.3493 -21.0334 -77.9274 -21.0334 Q-76.5055 -21.0334 -75.7789 -21.9319 Q-75.0524 -22.8303 -75.0524 -24.5803 Q-75.0524 -26.3147 -75.7789 -27.2053 Q-76.5055 -28.0959 -77.9274 -28.0959 Q-79.3493 -28.0959 -80.0914 -27.1975 Q-80.8336 -26.2991 -80.8336 -24.5803 Z"/><path style="fill:rgb(230,0,0); stroke:none;" d="M-48.0255 20.4197 Q-48.0255 22.4822 -49.0646 23.6619 Q-50.1036 24.8416 -51.9474 24.8416 Q-53.838 24.8416 -54.8693 23.6775 Q-55.9005 22.5134 -55.9005 20.4041 Q-55.9005 18.3103 -54.8693 17.1619 Q-53.838 16.0134 -51.9474 16.0134 Q-50.088 16.0134 -49.0568 17.1853 Q-48.0255 18.3572 -48.0255 20.4197 ZM-54.8536 20.4197 Q-54.8536 22.1541 -54.1114 23.0603 Q-53.3693 23.9666 -51.9474 23.9666 Q-50.5255 23.9666 -49.7989 23.0681 Q-49.0724 22.1697 -49.0724 20.4197 Q-49.0724 18.6853 -49.7989 17.7947 Q-50.5255 16.9041 -51.9474 16.9041 Q-53.3693 16.9041 -54.1114 17.8025 Q-54.8536 18.7009 -54.8536 20.4197 Z"/><path style="fill:rgb(0,138,0); stroke:none;" d="M124.2341 31.0837 L126.6559 31.0837 Q128.3591 31.0837 129.1247 31.5916 Q129.8903 32.0994 129.8903 33.1931 Q129.8903 33.9587 129.4684 34.4587 Q129.0466 34.9587 128.2184 35.0994 L128.2184 35.1619 Q130.1716 35.49 130.1716 37.2087 Q130.1716 38.3494 129.3981 38.9978 Q128.6247 39.6462 127.2341 39.6462 L124.2341 39.6462 L124.2341 31.0837 ZM125.2341 34.74 L126.8747 34.74 Q127.9372 34.74 128.3981 34.4119 Q128.8591 34.0837 128.8591 33.3025 Q128.8591 32.5837 128.3434 32.2634 Q127.8278 31.9431 126.7028 31.9431 L125.2341 31.9431 L125.2341 34.74 ZM125.2341 35.5837 L125.2341 38.8025 L127.0309 38.8025 Q128.0622 38.8025 128.5856 38.3962 Q129.1091 37.99 129.1091 37.1306 Q129.1091 36.3337 128.57 35.9587 Q128.0309 35.5837 126.9372 35.5837 L125.2341 35.5837 ZM134.8063 33.0994 Q135.2282 33.0994 135.5719 33.1775 L135.4313 34.0837 Q135.0407 33.99 134.7282 33.99 Q133.9469 33.99 133.3923 34.6228 Q132.8376 35.2556 132.8376 36.1931 L132.8376 39.6462 L131.8688 39.6462 L131.8688 33.2244 L132.6657 33.2244 L132.7907 34.4119 L132.8376 34.4119 Q133.1813 33.7869 133.6891 33.4431 Q134.1969 33.0994 134.8063 33.0994 Z"/><path style="fill:none; stroke:black;" d="M52.396 -9.76 L51.963 -9.51 L51.53 -9.76"/><path style="fill:none; stroke:black;" d="M77.51 -24.26 L77.943 -24.51 L78.376 -24.26"/><path style="fill:none; stroke:black;" d="M51.963 19.99 L51.963 20.49 L52.396 20.74"/><path style="fill:none; stroke:black;" d="M103.49 -9.76 L103.923 -9.51 L103.923 -9.01"/><path style="fill:none; stroke:black;" d="M77.51 35.24 L77.943 35.49 L78.376 35.24"/><path style="fill:none; stroke:black;" d="M103.923 19.99 L103.923 20.49 L103.49 20.74"/></g></g></svg></svg></svg></svg>