<svg width="145" viewBox="0 0 145 126" style="fill-opacity:1; color-rendering:auto; color-interpolation:auto; text-rendering:auto; stroke:black; stroke-linecap:square; stroke-miterlimit:10; shape-rendering:auto; stroke-opacity:1; fill:black; stroke-dasharray:none; font-weight:normal; stroke-width:1; font-family:'Open Sans'; font-style:normal; stroke-linejoin:miter; font-size:12; stroke-dashoffset:0; image-rendering:auto;" height="126" class="cas-substance-image" xmlns:xlink="http://www.w3.org/1999/xlink" xmlns="http://www.w3.org/2000/svg"><svg class="cas-substance-single-component"><rect y="0" x="0" width="145" stroke="none" ry="7" rx="7" height="126" fill="white" class="cas-substance-group"/><svg y="0" x="0" width="145" viewBox="0 0 145 126" style="fill:black;" height="126" class="cas-substance-single-component-image"><svg><g><clipPath id="clipPath_1d496e1433274bd0a9ecad614befcb7a1" clipPathUnits="userSpaceOnUse"><path d="M-28.9148 -39.0967 L-45.8751 -5.7163 L-10.2142 12.4027 L2.8523 -13.314 L-31.65 -13.314 L-31.65 -19.314 L2.97 -19.314 L2.97 -13.5457 L6.7461 -20.9777 L-28.9148 -39.0967 Z"/></clipPath><g transform="translate(72,63)" style="text-rendering:geometricPrecision; color-rendering:optimizeQuality; color-interpolation:linearRGB; stroke-linecap:butt; image-rendering:optimizeQuality;"><line y2="-26.694" y1="-49.4129" x2="-12.783" x1="-6.7766" style="fill:none;"/><line y2="0" y1="0" x2="27.903" x1="51.9655" style="fill:none;"/><line y2="-16.314" y1="-16.3116" x2="-27.9" x1="-51.9655" style="fill:none;"/><line y2="26.694" y1="49.2879" x2="-12.786" x1="-18.7593" style="fill:none;"/><line y2="-26.694" y1="-26.694" x2="-12.783" x1="14.337" style="fill:none;"/><line y2="0" y1="-26.694" x2="27.903" x1="14.337" style="fill:none;"/><line y2="-43.002" y1="-26.694" x2="-41.463" x1="-12.783" style="fill:none;"/><line y2="0" y1="-26.694" x2="-26.346" x1="-12.783" style="fill:none; clip-path:url(#clipPath_1d496e1433274bd0a9ecad614befcb7a1);"/><line y2="26.694" y1="0" x2="14.337" x1="27.903" style="fill:none;"/><line y2="-16.314" y1="0" x2="-0.78" x1="27.903" style="fill:none;"/><line y2="-16.314" y1="-43.002" x2="-27.9" x1="-41.463" style="fill:none;"/><line y2="26.694" y1="0" x2="-12.786" x1="-26.346" style="fill:none;"/><line y2="26.694" y1="26.694" x2="-12.786" x1="14.337" style="fill:none;"/><line y2="-16.314" y1="-16.314" x2="-27.9" x1="-0.78" style="fill:none;"/><line y2="10.383" y1="-16.314" x2="-41.466" x1="-27.9" style="fill:none;"/><line y2="10.383" y1="26.694" x2="-41.466" x1="-12.786" style="fill:none;"/></g><g transform="translate(72,63)" style="fill:rgb(230,0,0); text-rendering:geometricPrecision; color-rendering:optimizeQuality; image-rendering:optimizeQuality; font-family:'Open Sans'; stroke:rgb(230,0,0); color-interpolation:linearRGB;"><path style="stroke:none;" d="M-1.1775 -55.7683 Q-1.1775 -53.7058 -2.2166 -52.5261 Q-3.2556 -51.3464 -5.0994 -51.3464 Q-6.99 -51.3464 -8.0212 -52.5105 Q-9.0525 -53.6746 -9.0525 -55.7839 Q-9.0525 -57.8777 -8.0212 -59.0261 Q-6.99 -60.1746 -5.0994 -60.1746 Q-3.24 -60.1746 -2.2087 -59.0027 Q-1.1775 -57.8308 -1.1775 -55.7683 ZM-8.0056 -55.7683 Q-8.0056 -54.0339 -7.2634 -53.1277 Q-6.5212 -52.2214 -5.0994 -52.2214 Q-3.6775 -52.2214 -2.9509 -53.1199 Q-2.2244 -54.0183 -2.2244 -55.7683 Q-2.2244 -57.5027 -2.9509 -58.3933 Q-3.6775 -59.2839 -5.0994 -59.2839 Q-6.5212 -59.2839 -7.2634 -58.3855 Q-8.0056 -57.4871 -8.0056 -55.7683 Z"/><path style="stroke:none;" d="M6.3381 -51.4714 L5.3381 -51.4714 L5.3381 -55.5027 L0.8225 -55.5027 L0.8225 -51.4714 L-0.1775 -51.4714 L-0.1775 -60.0339 L0.8225 -60.0339 L0.8225 -56.3933 L5.3381 -56.3933 L5.3381 -60.0339 L6.3381 -60.0339 L6.3381 -51.4714 Z"/><path style="stroke:none;" d="M61.8405 -0.0703 Q61.8405 1.9922 60.8014 3.1719 Q59.7624 4.3516 57.9186 4.3516 Q56.028 4.3516 54.9967 3.1875 Q53.9655 2.0234 53.9655 -0.0859 Q53.9655 -2.1797 54.9967 -3.3281 Q56.028 -4.4766 57.9186 -4.4766 Q59.778 -4.4766 60.8092 -3.3047 Q61.8405 -2.1328 61.8405 -0.0703 ZM55.0124 -0.0703 Q55.0124 1.6641 55.7546 2.5703 Q56.4967 3.4766 57.9186 3.4766 Q59.3405 3.4766 60.0671 2.5781 Q60.7936 1.6797 60.7936 -0.0703 Q60.7936 -1.8047 60.0671 -2.6953 Q59.3405 -3.5859 57.9186 -3.5859 Q56.4967 -3.5859 55.7546 -2.6875 Q55.0124 -1.7891 55.0124 -0.0703 Z"/><path style="stroke:none;" d="M69.3561 4.2266 L68.3561 4.2266 L68.3561 0.1953 L63.8405 0.1953 L63.8405 4.2266 L62.8405 4.2266 L62.8405 -4.3359 L63.8405 -4.3359 L63.8405 -0.6953 L68.3561 -0.6953 L68.3561 -4.3359 L69.3561 -4.3359 L69.3561 4.2266 Z"/><path style="stroke:none;" d="M-53.9655 -16.3813 Q-53.9655 -14.3188 -55.0046 -13.1391 Q-56.0436 -11.9594 -57.8874 -11.9594 Q-59.778 -11.9594 -60.8092 -13.1235 Q-61.8405 -14.2876 -61.8405 -16.3969 Q-61.8405 -18.4907 -60.8092 -19.6391 Q-59.778 -20.7876 -57.8874 -20.7876 Q-56.028 -20.7876 -54.9967 -19.6157 Q-53.9655 -18.4438 -53.9655 -16.3813 ZM-60.7936 -16.3813 Q-60.7936 -14.6469 -60.0514 -13.7407 Q-59.3092 -12.8344 -57.8874 -12.8344 Q-56.4655 -12.8344 -55.7389 -13.7329 Q-55.0124 -14.6313 -55.0124 -16.3813 Q-55.0124 -18.1157 -55.7389 -19.0063 Q-56.4655 -19.8969 -57.8874 -19.8969 Q-59.3092 -19.8969 -60.0514 -18.9985 Q-60.7936 -18.1001 -60.7936 -16.3813 Z"/><path style="stroke:none;" d="M-62.8405 -12.0844 L-63.8405 -12.0844 L-63.8405 -16.1157 L-68.3561 -16.1157 L-68.3561 -12.0844 L-69.3561 -12.0844 L-69.3561 -20.6469 L-68.3561 -20.6469 L-68.3561 -17.0063 L-63.8405 -17.0063 L-63.8405 -20.6469 L-62.8405 -20.6469 L-62.8405 -12.0844 Z"/><path style="stroke:none;" d="M-16.5165 55.6277 Q-16.5165 57.6902 -17.5556 58.8699 Q-18.5946 60.0496 -20.4384 60.0496 Q-22.329 60.0496 -23.3603 58.8855 Q-24.3915 57.7214 -24.3915 55.6121 Q-24.3915 53.5183 -23.3603 52.3699 Q-22.329 51.2214 -20.4384 51.2214 Q-18.579 51.2214 -17.5478 52.3933 Q-16.5165 53.5652 -16.5165 55.6277 ZM-23.3446 55.6277 Q-23.3446 57.3621 -22.6024 58.2683 Q-21.8603 59.1746 -20.4384 59.1746 Q-19.0165 59.1746 -18.2899 58.2761 Q-17.5634 57.3777 -17.5634 55.6277 Q-17.5634 53.8933 -18.2899 53.0027 Q-19.0165 52.1121 -20.4384 52.1121 Q-21.8603 52.1121 -22.6024 53.0105 Q-23.3446 53.9089 -23.3446 55.6277 Z"/><path style="stroke:none;" d="M-25.3915 59.9246 L-26.3915 59.9246 L-26.3915 55.8933 L-30.9071 55.8933 L-30.9071 59.9246 L-31.9071 59.9246 L-31.9071 51.3621 L-30.9071 51.3621 L-30.9071 55.0027 L-26.3915 55.0027 L-26.3915 51.3621 L-25.3915 51.3621 L-25.3915 59.9246 Z"/></g><g transform="translate(72,63)" style="stroke-linecap:butt; text-rendering:geometricPrecision; color-rendering:optimizeQuality; image-rendering:optimizeQuality; font-family:'Open Sans'; color-interpolation:linearRGB; stroke-miterlimit:5;"><path style="fill:none;" d="M13.837 -26.694 L14.337 -26.694 L14.5635 -26.2483"/><path style="fill:none;" d="M-41.0284 -42.7549 L-41.463 -43.002 L-41.2365 -42.5563"/><path style="fill:none;" d="M-26.1195 -0.4458 L-26.346 0 L-26.1196 0.4458"/><path style="fill:none;" d="M14.5635 26.2483 L14.337 26.694 L13.837 26.694"/><path style="fill:none;" d="M-0.3454 -16.0668 L-0.78 -16.314 L-1.28 -16.314"/><path style="fill:none;" d="M-41.2395 9.9372 L-41.466 10.383 L-41.0314 10.6302"/></g></g></svg></svg></svg></svg>