<svg width="202" viewBox="0 0 202 175" style="fill-opacity:1; color-rendering:auto; color-interpolation:auto; text-rendering:auto; stroke:black; stroke-linecap:square; stroke-miterlimit:10; shape-rendering:auto; stroke-opacity:1; fill:black; stroke-dasharray:none; font-weight:normal; stroke-width:1; font-family:'Open Sans'; font-style:normal; stroke-linejoin:miter; font-size:12; stroke-dashoffset:0; image-rendering:auto;" height="175" class="cas-substance-image" xmlns:xlink="http://www.w3.org/1999/xlink" xmlns="http://www.w3.org/2000/svg"><svg class="cas-substance-single-component"><rect y="0" x="0" width="202" stroke="none" ry="7" rx="7" height="175" fill="white" class="cas-substance-group"/><svg y="0" x="0" width="202" viewBox="0 0 202 175" style="fill:black;" height="175" class="cas-substance-single-component-image"><svg><g><g transform="translate(95,87)" style="text-rendering:geometricPrecision; color-rendering:optimizeQuality; color-interpolation:linearRGB; stroke-linecap:butt; image-rendering:optimizeQuality;"><line y2="-32.01" y1="-12.1683" x2="10.086" x1="-1.37" style="fill:none;"/><line y2="23.97" y1="-1.7196" x2="-4.914" x1="-4.914" style="fill:none;"/><line y2="-13.794" y1="-7.2759" x2="-33.894" x1="-9.5646" style="fill:none;"/><line y2="-24.7988" y1="-14.802" x2="86.0979" x1="64.659" style="fill:none;"/><line y2="8.4626" y1="-15.9612" x2="60.8682" x1="63.0037" style="fill:none;"/><line y2="8.7675" y1="-15.6559" x2="64.3549" x1="66.4903" style="fill:none;"/><line y2="-32.01" y1="-14.802" x2="40.086" x1="64.659" style="fill:none;"/><line y2="-32.01" y1="-32.01" x2="40.086" x1="10.086" style="fill:none;"/><line y2="-35.51" y1="-35.51" x2="38.0653" x1="12.1067" style="fill:none;"/><line y2="-57.99" y1="-32.01" x2="-4.914" x1="10.086" style="fill:none;"/><line y2="-57.99" y1="-32.01" x2="55.086" x1="40.086" style="fill:none;"/><line y2="-83.97" y1="-57.99" x2="10.086" x1="-4.914" style="fill:none;"/><line y2="-80.47" y1="-57.9899" x2="12.1067" x1="-0.8725" style="fill:none;"/><line y2="-83.97" y1="-57.99" x2="40.086" x1="55.086" style="fill:none;"/><line y2="-80.47" y1="-57.9899" x2="38.0653" x1="51.0445" style="fill:none;"/><line y2="-83.97" y1="-83.97" x2="40.086" x1="10.086" style="fill:none;"/><line y2="38.97" y1="23.97" x2="-30.897" x1="-4.914" style="fill:none;"/><line y2="40.9909" y1="28.0115" x2="-27.3971" x1="-4.9142" style="fill:none;"/><line y2="38.97" y1="23.97" x2="21.066" x1="-4.914" style="fill:none;"/><line y2="68.97" y1="38.97" x2="-30.897" x1="-30.897" style="fill:none;"/><line y2="68.97" y1="38.97" x2="21.066" x1="21.066" style="fill:none;"/><line y2="66.9493" y1="40.9907" x2="17.566" x1="17.566" style="fill:none;"/><line y2="83.97" y1="68.97" x2="-4.914" x1="-30.897" style="fill:none;"/><line y2="79.9286" y1="66.9492" x2="-4.9142" x1="-27.3971" style="fill:none;"/><line y2="83.97" y1="68.97" x2="-4.914" x1="21.066" style="fill:none;"/><line y2="7.419" y1="-13.794" x2="-55.107" x1="-33.894" style="fill:none;"/><line y2="3.5153" y1="-14.84" x2="-56.153" x1="-37.7977" style="fill:none;"/><line y2="-42.771" y1="-13.794" x2="-41.658" x1="-33.894" style="fill:none;"/><line y2="-0.345" y1="7.419" x2="-84.084" x1="-55.107" style="fill:none;"/><line y2="-50.535" y1="-42.771" x2="-70.635" x1="-41.658" style="fill:none;"/><line y2="-46.6313" y1="-39.9132" x2="-69.589" x1="-44.5157" style="fill:none;"/><line y2="-29.322" y1="-0.345" x2="-91.848" x1="-84.084" style="fill:none;"/><line y2="-28.2759" y1="-3.2027" x2="-87.9443" x1="-81.2262" style="fill:none;"/><line y2="-29.322" y1="-50.535" x2="-91.848" x1="-70.635" style="fill:none;"/></g><g transform="translate(95,87)" style="fill:rgb(111,5,255); text-rendering:geometricPrecision; color-rendering:optimizeQuality; image-rendering:optimizeQuality; font-family:'Open Sans'; stroke:rgb(111,5,255); color-interpolation:linearRGB;"><path style="stroke:none;" d="M-2.1952 -7.9519 Q-2.1952 -6.6394 -3.0859 -5.9441 Q-3.9765 -5.2488 -5.6171 -5.2488 L-6.6327 -5.2488 L-6.6327 -1.8738 L-7.6327 -1.8738 L-7.6327 -10.4363 L-5.3984 -10.4363 Q-2.1952 -10.4363 -2.1952 -7.9519 ZM-6.6327 -6.0925 L-5.7265 -6.0925 Q-4.414 -6.0925 -3.8202 -6.5222 Q-3.2265 -6.9519 -3.2265 -7.905 Q-3.2265 -8.7488 -3.7812 -9.1628 Q-4.3359 -9.5769 -5.5234 -9.5769 L-6.6327 -9.5769 L-6.6327 -6.0925 Z"/></g><g transform="translate(95,87)" style="stroke-linecap:butt; text-rendering:geometricPrecision; color-rendering:optimizeQuality; image-rendering:optimizeQuality; font-family:'Open Sans'; color-interpolation:linearRGB; stroke-miterlimit:5;"><path style="fill:none;" d="M65.1122 -15.0133 L64.659 -14.802 L64.2494 -15.0888"/><path style="fill:rgb(230,0,0); stroke:none;" d="M95.7855 -27.5503 Q95.7855 -25.4878 94.7464 -24.3081 Q93.7074 -23.1284 91.8636 -23.1284 Q89.973 -23.1284 88.9417 -24.2925 Q87.9105 -25.4566 87.9105 -27.5659 Q87.9105 -29.6597 88.9417 -30.8081 Q89.973 -31.9566 91.8636 -31.9566 Q93.723 -31.9566 94.7542 -30.7847 Q95.7855 -29.6128 95.7855 -27.5503 ZM88.9574 -27.5503 Q88.9574 -25.8159 89.6996 -24.9097 Q90.4417 -24.0034 91.8636 -24.0034 Q93.2855 -24.0034 94.0121 -24.9019 Q94.7386 -25.8003 94.7386 -27.5503 Q94.7386 -29.2847 94.0121 -30.1753 Q93.2855 -31.0659 91.8636 -31.0659 Q90.4417 -31.0659 89.6996 -30.1675 Q88.9574 -29.2691 88.9574 -27.5503 Z"/><path style="fill:rgb(230,0,0); stroke:none;" d="M103.3011 -23.2534 L102.3011 -23.2534 L102.3011 -27.2847 L97.7855 -27.2847 L97.7855 -23.2534 L96.7855 -23.2534 L96.7855 -31.8159 L97.7855 -31.8159 L97.7855 -28.1753 L102.3011 -28.1753 L102.3011 -31.8159 L103.3011 -31.8159 L103.3011 -23.2534 Z"/><path style="fill:rgb(230,0,0); stroke:none;" d="M65.9835 15.0137 Q65.9835 17.0762 64.9444 18.2559 Q63.9054 19.4356 62.0616 19.4356 Q60.171 19.4356 59.1398 18.2715 Q58.1085 17.1074 58.1085 14.9981 Q58.1085 12.9043 59.1398 11.7559 Q60.171 10.6074 62.0616 10.6074 Q63.921 10.6074 64.9523 11.7793 Q65.9835 12.9512 65.9835 15.0137 ZM59.1554 15.0137 Q59.1554 16.7481 59.8976 17.6543 Q60.6398 18.5606 62.0616 18.5606 Q63.4835 18.5606 64.2101 17.6621 Q64.9366 16.7637 64.9366 15.0137 Q64.9366 13.2793 64.2101 12.3887 Q63.4835 11.4981 62.0616 11.4981 Q60.6398 11.4981 59.8976 12.3965 Q59.1554 13.2949 59.1554 15.0137 Z"/><path style="fill:none;" d="M10.586 -32.01 L10.086 -32.01 L9.836 -32.443"/><path style="fill:none;" d="M39.586 -32.01 L40.086 -32.01 L40.4956 -31.7232"/><path style="fill:none;" d="M-4.664 -57.557 L-4.914 -57.99 L-4.664 -58.423"/><path style="fill:none;" d="M54.836 -57.557 L55.086 -57.99 L54.836 -58.423"/><path style="fill:none;" d="M9.836 -83.537 L10.086 -83.97 L10.586 -83.97"/><path style="fill:none;" d="M40.336 -83.537 L40.086 -83.97 L39.586 -83.97"/><path style="fill:none;" d="M-5.347 24.22 L-4.914 23.97 L-4.914 23.47"/><path style="fill:none;" d="M-30.464 38.72 L-30.897 38.97 L-30.897 39.47"/><path style="fill:none;" d="M20.633 38.72 L21.066 38.97 L21.066 39.47"/><path style="fill:none;" d="M-30.897 68.47 L-30.897 68.97 L-30.464 69.22"/><path style="fill:none;" d="M21.066 68.47 L21.066 68.97 L20.633 69.22"/><path style="fill:none;" d="M-5.347 83.72 L-4.914 83.97 L-4.481 83.72"/><path style="fill:none;" d="M-34.2476 -13.4404 L-33.894 -13.794 L-34.0234 -14.277"/><path style="fill:none;" d="M-54.7534 7.0654 L-55.107 7.419 L-55.59 7.2896"/><path style="fill:none;" d="M-41.5286 -42.288 L-41.658 -42.771 L-42.141 -42.9004"/><path style="fill:none;" d="M-83.601 -0.2156 L-84.084 -0.345 L-84.2134 -0.828"/><path style="fill:none;" d="M-70.152 -50.4056 L-70.635 -50.535 L-70.9886 -50.1814"/><path style="fill:none;" d="M-91.7186 -28.839 L-91.848 -29.322 L-91.4944 -29.6756"/></g></g></svg></svg></svg></svg>