<svg xmlns:ns0="http://www.w3.org/2000/svg" xmlns="http://www.w3.org/2000/svg"><g transform="translate(0, 0)"><ns0:svg width="397" viewBox="0 0 397 112" style="fill-opacity:1; color-rendering:auto; color-interpolation:auto; text-rendering:auto; stroke:black; stroke-linecap:square; stroke-miterlimit:10; shape-rendering:auto; stroke-opacity:1; fill:black; stroke-dasharray:none; font-weight:normal; stroke-width:1; font-family:'Open Sans'; font-style:normal; stroke-linejoin:miter; font-size:12; stroke-dashoffset:0; image-rendering:auto;" height="112" class="cas-substance-image"><ns0:svg class="cas-substance-single-component"><ns0:rect y="0" x="0" width="397" stroke="none" ry="7" rx="7" height="112" fill="white" class="cas-substance-group" /><ns0:svg y="0" x="0" width="397" viewBox="0 0 397 112" style="fill:black;" height="112" class="cas-substance-single-component-image"><ns0:svg><ns0:g><ns0:g transform="translate(198,56)" style="text-rendering:geometricPrecision; color-rendering:optimizeQuality; color-interpolation:linearRGB; stroke-linecap:butt; image-rendering:optimizeQuality;"><ns0:line y2="7.5" y1="-4.5649" x2="-90.933" x1="-111.8294" style="fill:none;" /><ns0:line y2="7.5" y1="-4.5649" x2="-142.893" x1="-121.9966" style="fill:none;" /><ns0:line y2="-7.5" y1="7.5" x2="-64.953" x1="-90.933" style="fill:none;" /><ns0:line y2="31.0234" y1="6.4896" x2="-92.683" x1="-92.683" style="fill:none;" /><ns0:line y2="31.0234" y1="6.4896" x2="-89.183" x1="-89.183" style="fill:none;" /><ns0:line y2="7.5" y1="-7.5" x2="-38.97" x1="-64.953" style="fill:none;" /><ns0:line y2="-7.5" y1="7.5" x2="-12.99" x1="-38.97" style="fill:none;" /><ns0:line y2="7.5" y1="-7.5" x2="12.99" x1="-12.99" style="fill:none;" /><ns0:line y2="-7.5" y1="7.5" x2="38.97" x1="12.99" style="fill:none;" /><ns0:line y2="7.5" y1="-7.5" x2="64.953" x1="38.97" style="fill:none;" /><ns0:line y2="-7.5" y1="7.5" x2="90.933" x1="64.953" style="fill:none;" /><ns0:line y2="4.5649" y1="-7.5" x2="111.8294" x1="90.933" style="fill:none;" /><ns0:line y2="-31.1484" y1="-6.4896" x2="92.683" x1="92.683" style="fill:none;" /><ns0:line y2="-31.1484" y1="-6.4896" x2="89.183" x1="89.183" style="fill:none;" /><ns0:line y2="-7.5" y1="4.5649" x2="142.893" x1="121.9966" style="fill:none;" /><ns0:line y2="-7.5" y1="-31.3438" x2="-168.876" x1="-168.876" style="fill:none;" /><ns0:line y2="-7.5" y1="7.5" x2="-168.876" x1="-142.893" style="fill:none;" /><ns0:line y2="-3.4585" y1="9.5209" x2="-168.8759" x1="-146.3929" style="fill:none;" /><ns0:line y2="37.5" y1="7.5" x2="-142.893" x1="-142.893" style="fill:none;" /><ns0:line y2="7.5" y1="-7.5" x2="-194.856" x1="-168.876" style="fill:none;" /><ns0:line y2="52.5" y1="37.5" x2="-168.876" x1="-142.893" style="fill:none;" /><ns0:line y2="48.4585" y1="35.4791" x2="-168.8759" x1="-146.3929" style="fill:none;" /><ns0:line y2="37.5" y1="7.5" x2="-194.856" x1="-194.856" style="fill:none;" /><ns0:line y2="35.4793" y1="9.5207" x2="-191.356" x1="-191.356" style="fill:none;" /><ns0:line y2="37.5" y1="52.5" x2="-194.856" x1="-168.876" style="fill:none;" /><ns0:line y2="7.5" y1="-7.5" x2="168.876" x1="142.893" style="fill:none;" /><ns0:line y2="3.4585" y1="-9.5209" x2="168.8759" x1="146.3929" style="fill:none;" /><ns0:line y2="-37.5" y1="-7.5" x2="142.893" x1="142.893" style="fill:none;" /><ns0:line y2="-7.5" y1="7.5" x2="194.856" x1="168.876" style="fill:none;" /><ns0:line y2="-52.5" y1="-37.5" x2="168.876" x1="142.893" style="fill:none;" /><ns0:line y2="-48.4585" y1="-35.4791" x2="168.8759" x1="146.3929" style="fill:none;" /><ns0:line y2="-37.5" y1="-7.5" x2="194.856" x1="194.856" style="fill:none;" /><ns0:line y2="-35.4793" y1="-9.5207" x2="191.356" x1="191.356" style="fill:none;" /><ns0:line y2="-37.5" y1="-52.5" x2="194.856" x1="168.876" style="fill:none;" /></ns0:g><ns0:g transform="translate(198,56)" style="fill:rgb(0,5,255); text-rendering:geometricPrecision; color-rendering:optimizeQuality; image-rendering:optimizeQuality; font-family:'Open Sans'; stroke:rgb(0,5,255); color-interpolation:linearRGB;"><ns0:path style="stroke:none;" d="M-113.5614 -3.3438 L-114.7021 -3.3438 L-119.3896 -10.5312 L-119.4364 -10.5312 Q-119.3427 -9.2656 -119.3427 -8.2188 L-119.3427 -3.3438 L-120.2646 -3.3438 L-120.2646 -11.9062 L-119.1396 -11.9062 L-114.4677 -4.75 L-114.4208 -4.75 Q-114.4208 -4.9062 -114.4677 -5.7656 Q-114.5146 -6.625 -114.4989 -7 L-114.4989 -11.9062 L-113.5614 -11.9062 L-113.5614 -3.3438 Z" /><ns0:path style="stroke:none;" d="M-113.6552 -12.9062 L-114.6552 -12.9062 L-114.6552 -16.9375 L-119.1708 -16.9375 L-119.1708 -12.9062 L-120.1708 -12.9062 L-120.1708 -21.4688 L-119.1708 -21.4688 L-119.1708 -17.8281 L-114.6552 -17.8281 L-114.6552 -21.4688 L-113.6552 -21.4688 L-113.6552 -12.9062 Z" /></ns0:g><ns0:g transform="translate(198,56)" style="stroke-linecap:butt; text-rendering:geometricPrecision; color-rendering:optimizeQuality; image-rendering:optimizeQuality; font-family:'Open Sans'; color-interpolation:linearRGB; stroke-miterlimit:5;"><ns0:path style="fill:none;" d="M-91.366 7.25 L-90.933 7.5 L-90.5 7.25" /><ns0:path style="fill:none;" d="M-65.386 -7.25 L-64.953 -7.5 L-64.52 -7.25" /><ns0:path style="fill:rgb(230,0,0); stroke:none;" d="M-86.9955 37.4297 Q-86.9955 39.4922 -88.0346 40.6719 Q-89.0736 41.8516 -90.9174 41.8516 Q-92.808 41.8516 -93.8392 40.6875 Q-94.8705 39.5234 -94.8705 37.4141 Q-94.8705 35.3203 -93.8392 34.1719 Q-92.808 33.0234 -90.9174 33.0234 Q-89.058 33.0234 -88.0267 34.1953 Q-86.9955 35.3672 -86.9955 37.4297 ZM-93.8236 37.4297 Q-93.8236 39.1641 -93.0814 40.0703 Q-92.3392 40.9766 -90.9174 40.9766 Q-89.4955 40.9766 -88.7689 40.0781 Q-88.0424 39.1797 -88.0424 37.4297 Q-88.0424 35.6953 -88.7689 34.8047 Q-89.4955 33.9141 -90.9174 33.9141 Q-92.3392 33.9141 -93.0814 34.8125 Q-93.8236 35.7109 -93.8236 37.4297 Z" /><ns0:path style="fill:none;" d="M-39.403 7.25 L-38.97 7.5 L-38.537 7.25" /><ns0:path style="fill:none;" d="M-13.423 -7.25 L-12.99 -7.5 L-12.557 -7.25" /><ns0:path style="fill:none;" d="M12.557 7.25 L12.99 7.5 L13.423 7.25" /><ns0:path style="fill:none;" d="M38.537 -7.25 L38.97 -7.5 L39.403 -7.25" /><ns0:path style="fill:none;" d="M64.52 7.25 L64.953 7.5 L65.386 7.25" /><ns0:path style="fill:none;" d="M90.5 -7.25 L90.933 -7.5 L91.366 -7.25" /><ns0:path style="fill:rgb(0,5,255); stroke:none;" d="M120.2646 11.6562 L119.1239 11.6562 L114.4364 4.4688 L114.3896 4.4688 Q114.4833 5.7344 114.4833 6.7812 L114.4833 11.6562 L113.5614 11.6562 L113.5614 3.0938 L114.6864 3.0938 L119.3583 10.25 L119.4052 10.25 Q119.4052 10.0938 119.3583 9.2344 Q119.3114 8.375 119.3271 8 L119.3271 3.0938 L120.2646 3.0938 L120.2646 11.6562 Z" /><ns0:path style="fill:rgb(0,5,255); stroke:none;" d="M120.1708 21.2188 L119.1708 21.2188 L119.1708 17.1875 L114.6552 17.1875 L114.6552 21.2188 L113.6552 21.2188 L113.6552 12.6562 L114.6552 12.6562 L114.6552 16.2969 L119.1708 16.2969 L119.1708 12.6562 L120.1708 12.6562 L120.1708 21.2188 Z" /><ns0:path style="fill:rgb(230,0,0); stroke:none;" d="M94.8705 -37.5703 Q94.8705 -35.5078 93.8314 -34.3281 Q92.7924 -33.1484 90.9486 -33.1484 Q89.058 -33.1484 88.0267 -34.3125 Q86.9955 -35.4766 86.9955 -37.5859 Q86.9955 -39.6797 88.0267 -40.8281 Q89.058 -41.9766 90.9486 -41.9766 Q92.808 -41.9766 93.8392 -40.8047 Q94.8705 -39.6328 94.8705 -37.5703 ZM88.0424 -37.5703 Q88.0424 -35.8359 88.7846 -34.9297 Q89.5267 -34.0234 90.9486 -34.0234 Q92.3705 -34.0234 93.0971 -34.9219 Q93.8236 -35.8203 93.8236 -37.5703 Q93.8236 -39.3047 93.0971 -40.1953 Q92.3705 -41.0859 90.9486 -41.0859 Q89.5267 -41.0859 88.7846 -40.1875 Q88.0424 -39.2891 88.0424 -37.5703 Z" /><ns0:path style="fill:rgb(0,5,255); stroke:none;" d="M-165.5244 -33.3438 L-166.6651 -33.3438 L-171.3526 -40.5312 L-171.3994 -40.5312 Q-171.3057 -39.2656 -171.3057 -38.2188 L-171.3057 -33.3438 L-172.2276 -33.3438 L-172.2276 -41.9062 L-171.1026 -41.9062 L-166.4307 -34.75 L-166.3838 -34.75 Q-166.3838 -34.9062 -166.4307 -35.7656 Q-166.4776 -36.625 -166.4619 -37 L-166.4619 -41.9062 L-165.5244 -41.9062 L-165.5244 -33.3438 Z" /><ns0:path style="fill:rgb(0,5,255); stroke:none;" d="M-158.0088 -33.3438 L-159.0088 -33.3438 L-159.0088 -37.375 L-163.5244 -37.375 L-163.5244 -33.3438 L-164.5244 -33.3438 L-164.5244 -41.9062 L-163.5244 -41.9062 L-163.5244 -38.2656 L-159.0088 -38.2656 L-159.0088 -41.9062 L-158.0088 -41.9062 L-158.0088 -33.3438 Z" /><ns0:path style="fill:rgb(0,5,255); stroke:none;" d="M-153.2588 -31.5344 L-157.0088 -31.5344 L-157.0088 -32.0969 L-155.5088 -33.6125 Q-154.8213 -34.3 -154.6026 -34.5969 Q-154.3838 -34.8937 -154.2744 -35.175 Q-154.1651 -35.4562 -154.1651 -35.7844 Q-154.1651 -36.2375 -154.4385 -36.5031 Q-154.7119 -36.7687 -155.2119 -36.7687 Q-155.5557 -36.7687 -155.876 -36.6516 Q-156.1963 -36.5344 -156.5869 -36.2375 L-156.9307 -36.675 Q-156.1494 -37.3312 -155.2119 -37.3312 Q-154.4151 -37.3312 -153.9541 -36.9172 Q-153.4932 -36.5031 -153.4932 -35.8156 Q-153.4932 -35.2687 -153.7979 -34.7375 Q-154.1026 -34.2062 -154.9463 -33.3937 L-156.1963 -32.175 L-156.1963 -32.1437 L-153.2588 -32.1437 L-153.2588 -31.5344 Z" /><ns0:path style="fill:none;" d="M-143.326 7.25 L-142.893 7.5 L-142.46 7.25" /><ns0:path style="fill:none;" d="M-168.443 -7.25 L-168.876 -7.5 L-169.309 -7.25" /><ns0:path style="fill:none;" d="M-142.893 37 L-142.893 37.5 L-143.326 37.75" /><ns0:path style="fill:none;" d="M-194.423 7.25 L-194.856 7.5 L-194.856 8" /><ns0:path style="fill:none;" d="M-168.443 52.25 L-168.876 52.5 L-169.309 52.25" /><ns0:path style="fill:none;" d="M-194.856 37 L-194.856 37.5 L-194.423 37.75" /><ns0:path style="fill:none;" d="M143.326 -7.25 L142.893 -7.5 L142.46 -7.25" /><ns0:path style="fill:none;" d="M168.443 7.25 L168.876 7.5 L169.309 7.25" /><ns0:path style="fill:none;" d="M142.893 -37 L142.893 -37.5 L143.326 -37.75" /><ns0:path style="fill:none;" d="M194.423 -7.25 L194.856 -7.5 L194.856 -8" /><ns0:path style="fill:none;" d="M168.443 -52.25 L168.876 -52.5 L169.309 -52.25" /><ns0:path style="fill:none;" d="M194.856 -37 L194.856 -37.5 L194.423 -37.75" /></ns0:g></ns0:g></ns0:svg></ns0:svg></ns0:svg></ns0:svg></g></svg>