<svg xmlns:ns0="http://www.w3.org/2000/svg" xmlns="http://www.w3.org/2000/svg"><g transform="translate(0, 0)"><ns0:svg width="115" viewBox="0 0 115 72" style="fill-opacity:1; color-rendering:auto; color-interpolation:auto; text-rendering:auto; stroke:black; stroke-linecap:square; stroke-miterlimit:10; shape-rendering:auto; stroke-opacity:1; fill:black; stroke-dasharray:none; font-weight:normal; stroke-width:1; font-family:'Open Sans'; font-style:normal; stroke-linejoin:miter; font-size:12; stroke-dashoffset:0; image-rendering:auto;" height="72" class="cas-substance-image"><ns0:svg class="cas-substance-single-component"><ns0:rect y="0" x="0" width="115" stroke="none" ry="7" rx="7" height="72" fill="white" class="cas-substance-group" /><ns0:svg y="0" x="0" width="115" viewBox="0 0 115 72" style="fill:black;" height="72" class="cas-substance-single-component-image"><ns0:svg><ns0:g><ns0:g transform="translate(60,40)" style="text-rendering:geometricPrecision; color-rendering:optimizeQuality; color-interpolation:linearRGB; stroke-linecap:butt; image-rendering:optimizeQuality;"><ns0:line y2="-10.536" y1="-22.3194" x2="-25.668" x1="-46.0769" style="fill:none;" /><ns0:line y2="-0.444" y1="-3.579" x2="21.813" x1="51.648" style="fill:none;" /><ns0:line y2="-10.536" y1="-20.4341" x2="-25.668" x1="-3.4386" style="fill:none;" /><ns0:line y2="-0.444" y1="-17.5309" x2="21.813" x1="6.4297" style="fill:none;" /><ns0:line y2="19.299" y1="-10.536" x2="-22.533" x1="-25.668" style="fill:none;" /><ns0:line y2="16.9236" y1="-8.8921" x2="-19.2633" x1="-21.976" style="fill:none;" /><ns0:line y2="19.3977" y1="-0.444" x2="10.357" x1="21.813" style="fill:none;" /><ns0:line y2="17.6477" y1="-0.4441" x2="7.326" x1="17.7715" style="fill:none;" /><ns0:line y2="24.4079" y1="19.299" x2="1.5051" x1="-22.533" style="fill:none;" /></ns0:g><ns0:g transform="translate(60,40)" style="fill:rgb(0,138,0); text-rendering:geometricPrecision; color-rendering:optimizeQuality; image-rendering:optimizeQuality; font-family:'Open Sans'; stroke:rgb(0,138,0); color-interpolation:linearRGB;"><ns0:path style="stroke:none;" d="M-57.3169 -29.9422 L-54.8951 -29.9422 Q-53.1919 -29.9422 -52.4263 -29.4344 Q-51.6607 -28.9266 -51.6607 -27.8329 Q-51.6607 -27.0672 -52.0826 -26.5672 Q-52.5044 -26.0672 -53.3326 -25.9266 L-53.3326 -25.8641 Q-51.3794 -25.536 -51.3794 -23.8172 Q-51.3794 -22.6766 -52.1529 -22.0282 Q-52.9263 -21.3797 -54.3169 -21.3797 L-57.3169 -21.3797 L-57.3169 -29.9422 ZM-56.3169 -26.286 L-54.6763 -26.286 Q-53.6138 -26.286 -53.1529 -26.6141 Q-52.6919 -26.9422 -52.6919 -27.7235 Q-52.6919 -28.4422 -53.2076 -28.7626 Q-53.7232 -29.0829 -54.8482 -29.0829 L-56.3169 -29.0829 L-56.3169 -26.286 ZM-56.3169 -25.4422 L-56.3169 -22.2235 L-54.5201 -22.2235 Q-53.4888 -22.2235 -52.9654 -22.6297 Q-52.4419 -23.036 -52.4419 -23.8954 Q-52.4419 -24.6922 -52.981 -25.0672 Q-53.5201 -25.4422 -54.6138 -25.4422 L-56.3169 -25.4422 ZM-46.7447 -27.9266 Q-46.3228 -27.9266 -45.9791 -27.8485 L-46.1197 -26.9422 Q-46.5103 -27.036 -46.8228 -27.036 Q-47.6041 -27.036 -48.1587 -26.4032 Q-48.7134 -25.7704 -48.7134 -24.8329 L-48.7134 -21.3797 L-49.6822 -21.3797 L-49.6822 -27.8016 L-48.8853 -27.8016 L-48.7603 -26.6141 L-48.7134 -26.6141 Q-48.3697 -27.2391 -47.8619 -27.5829 Q-47.3541 -27.9266 -46.7447 -27.9266 Z" /><ns0:path style="fill:rgb(0,5,255); stroke:none;" d="M5.0916 -18.5837 L3.9509 -18.5837 L-0.7366 -25.7712 L-0.7834 -25.7712 Q-0.6897 -24.5056 -0.6897 -23.4587 L-0.6897 -18.5837 L-1.6116 -18.5837 L-1.6116 -27.1462 L-0.4866 -27.1462 L4.1853 -19.99 L4.2322 -19.99 Q4.2322 -20.1462 4.1853 -21.0056 Q4.1384 -21.865 4.1541 -22.24 L4.1541 -27.1462 L5.0916 -27.1462 L5.0916 -18.5837 Z" /><ns0:path style="fill:rgb(0,5,255); stroke:none;" d="M4.9978 -28.1462 L3.9978 -28.1462 L3.9978 -32.1775 L-0.5178 -32.1775 L-0.5178 -28.1462 L-1.5178 -28.1462 L-1.5178 -36.7087 L-0.5178 -36.7087 L-0.5178 -33.0681 L3.9978 -33.0681 L3.9978 -36.7087 L4.9978 -36.7087 L4.9978 -28.1462 Z" /></ns0:g><ns0:g transform="translate(60,40)" style="stroke-linecap:butt; text-rendering:geometricPrecision; color-rendering:optimizeQuality; image-rendering:optimizeQuality; font-family:'Open Sans'; color-interpolation:linearRGB; stroke-miterlimit:5;"><ns0:path style="fill:none;" d="M-25.6157 -10.0387 L-25.668 -10.536 L-25.2112 -10.7394" /><ns0:path style="fill:none;" d="M21.563 -0.011 L21.813 -0.444 L21.4785 -0.8156" /><ns0:path style="fill:none;" d="M-22.5853 18.8017 L-22.533 19.299 L-22.0439 19.4029" /><ns0:path style="fill:rgb(0,5,255); stroke:none;" d="M10.1646 29.6922 L9.0239 29.6922 L4.3364 22.5047 L4.2896 22.5047 Q4.3833 23.7704 4.3833 24.8172 L4.3833 29.6922 L3.4614 29.6922 L3.4614 21.1297 L4.5864 21.1297 L9.2583 28.286 L9.3052 28.286 Q9.3052 28.1297 9.2583 27.2704 Q9.2114 26.411 9.2271 26.036 L9.2271 21.1297 L10.1646 21.1297 L10.1646 29.6922 Z" /></ns0:g></ns0:g></ns0:svg></ns0:svg></ns0:svg></ns0:svg></g></svg>