<svg width="100" viewBox="0 0 100 60" style="fill-opacity:1; color-rendering:auto; color-interpolation:auto; text-rendering:auto; stroke:black; stroke-linecap:square; stroke-miterlimit:10; shape-rendering:auto; stroke-opacity:1; fill:black; stroke-dasharray:none; font-weight:normal; stroke-width:1; font-family:'Open Sans'; font-style:normal; stroke-linejoin:miter; font-size:12; stroke-dashoffset:0; image-rendering:auto;" height="60" class="cas-substance-image" xmlns:xlink="http://www.w3.org/1999/xlink" xmlns="http://www.w3.org/2000/svg"><svg class="cas-substance-single-component"><rect y="0" x="0" width="100" stroke="none" ry="7" rx="7" height="60" fill="white" class="cas-substance-group"/><svg y="0" x="15" width="69" viewBox="0 0 69 60" style="fill:black;" height="60" class="cas-substance-single-component-image"><svg><g><g transform="translate(35,30)" style="text-rendering:geometricPrecision; color-rendering:optimizeQuality; color-interpolation:linearRGB; stroke-linecap:butt; image-rendering:optimizeQuality;"><line y2="-19.2834" y1="-12.6166" x2="-20.4089" x1="-8.8619" style="fill:none;"/><line y2="-18.2269" y1="-11.1824" x2="18.579" x1="6.3779" style="fill:none;"/><line y2="16.5468" y1="-1.2582" x2="0" x1="0" style="fill:none;"/><path style="stroke-linecap:square; stroke:none;" d="M-0.6143 -3.3438 L-1.6143 -3.3438 L-1.6143 -7.375 L-6.1299 -7.375 L-6.1299 -3.3438 L-7.1299 -3.3438 L-7.1299 -11.9062 L-6.1299 -11.9062 L-6.1299 -8.2656 L-1.6143 -8.2656 L-1.6143 -11.9062 L-0.6143 -11.9062 L-0.6143 -3.3438 ZM7.1299 -6.5625 Q7.1299 -4.9844 6.3408 -4.1016 Q5.5518 -3.2188 4.1455 -3.2188 Q3.2861 -3.2188 2.6221 -3.625 Q1.958 -4.0312 1.5908 -4.7891 Q1.2236 -5.5469 1.2236 -6.5625 Q1.2236 -8.125 2.0127 -9.0078 Q2.8018 -9.8906 4.1924 -9.8906 Q5.5361 -9.8906 6.333 -8.9922 Q7.1299 -8.0938 7.1299 -6.5625 ZM2.2393 -6.5625 Q2.2393 -5.3281 2.7314 -4.6875 Q3.2236 -4.0469 4.1768 -4.0469 Q5.1299 -4.0469 5.6221 -4.6875 Q6.1143 -5.3281 6.1143 -6.5625 Q6.1143 -7.7812 5.6221 -8.4219 Q5.1299 -9.0625 4.1611 -9.0625 Q3.208 -9.0625 2.7236 -8.4297 Q2.2393 -7.7969 2.2393 -6.5625 Z"/></g><g transform="translate(35,30)" style="fill:rgb(0,138,0); text-rendering:geometricPrecision; color-rendering:optimizeQuality; image-rendering:optimizeQuality; font-family:'Open Sans'; stroke:rgb(0,138,0); color-interpolation:linearRGB;"><path style="stroke:none;" d="M-31.6489 -26.9062 L-29.2271 -26.9062 Q-27.5239 -26.9062 -26.7583 -26.3984 Q-25.9927 -25.8906 -25.9927 -24.7969 Q-25.9927 -24.0312 -26.4146 -23.5312 Q-26.8364 -23.0312 -27.6646 -22.8906 L-27.6646 -22.8281 Q-25.7114 -22.5 -25.7114 -20.7812 Q-25.7114 -19.6406 -26.4849 -18.9922 Q-27.2583 -18.3438 -28.6489 -18.3438 L-31.6489 -18.3438 L-31.6489 -26.9062 ZM-30.6489 -23.25 L-29.0083 -23.25 Q-27.9458 -23.25 -27.4849 -23.5781 Q-27.0239 -23.9062 -27.0239 -24.6875 Q-27.0239 -25.4062 -27.5396 -25.7266 Q-28.0552 -26.0469 -29.1802 -26.0469 L-30.6489 -26.0469 L-30.6489 -23.25 ZM-30.6489 -22.4062 L-30.6489 -19.1875 L-28.8521 -19.1875 Q-27.8208 -19.1875 -27.2974 -19.5938 Q-26.7739 -20 -26.7739 -20.8594 Q-26.7739 -21.6562 -27.313 -22.0312 Q-27.8521 -22.4062 -28.9458 -22.4062 L-30.6489 -22.4062 ZM-21.0767 -24.8906 Q-20.6548 -24.8906 -20.3111 -24.8125 L-20.4517 -23.9062 Q-20.8423 -24 -21.1548 -24 Q-21.9361 -24 -22.4907 -23.3672 Q-23.0454 -22.7344 -23.0454 -21.7969 L-23.0454 -18.3438 L-24.0142 -18.3438 L-24.0142 -24.7656 L-23.2173 -24.7656 L-23.0923 -23.5781 L-23.0454 -23.5781 Q-22.7017 -24.2031 -22.1939 -24.5469 Q-21.6861 -24.8906 -21.0767 -24.8906 Z"/><path style="stroke:none;" d="M20.3111 -26.9062 L22.7329 -26.9062 Q24.4361 -26.9062 25.2017 -26.3984 Q25.9673 -25.8906 25.9673 -24.7969 Q25.9673 -24.0312 25.5454 -23.5312 Q25.1236 -23.0312 24.2954 -22.8906 L24.2954 -22.8281 Q26.2486 -22.5 26.2486 -20.7812 Q26.2486 -19.6406 25.4751 -18.9922 Q24.7017 -18.3438 23.3111 -18.3438 L20.3111 -18.3438 L20.3111 -26.9062 ZM21.3111 -23.25 L22.9517 -23.25 Q24.0142 -23.25 24.4751 -23.5781 Q24.9361 -23.9062 24.9361 -24.6875 Q24.9361 -25.4062 24.4204 -25.7266 Q23.9048 -26.0469 22.7798 -26.0469 L21.3111 -26.0469 L21.3111 -23.25 ZM21.3111 -22.4062 L21.3111 -19.1875 L23.1079 -19.1875 Q24.1392 -19.1875 24.6626 -19.5938 Q25.1861 -20 25.1861 -20.8594 Q25.1861 -21.6562 24.647 -22.0312 Q24.1079 -22.4062 23.0142 -22.4062 L21.3111 -22.4062 ZM30.8833 -24.8906 Q31.3052 -24.8906 31.6489 -24.8125 L31.5083 -23.9062 Q31.1177 -24 30.8052 -24 Q30.0239 -24 29.4693 -23.3672 Q28.9146 -22.7344 28.9146 -21.7969 L28.9146 -18.3438 L27.9458 -18.3438 L27.9458 -24.7656 L28.7427 -24.7656 L28.8677 -23.5781 L28.9146 -23.5781 Q29.2583 -24.2031 29.7661 -24.5469 Q30.2739 -24.8906 30.8833 -24.8906 Z"/><path style="stroke:none;" d="M-5.6689 18.0938 L-3.2471 18.0938 Q-1.5439 18.0938 -0.7783 18.6016 Q-0.0127 19.1094 -0.0127 20.2031 Q-0.0127 20.9688 -0.4346 21.4688 Q-0.8564 21.9688 -1.6846 22.1094 L-1.6846 22.1719 Q0.2686 22.5 0.2686 24.2188 Q0.2686 25.3594 -0.5049 26.0078 Q-1.2783 26.6562 -2.6689 26.6562 L-5.6689 26.6562 L-5.6689 18.0938 ZM-4.6689 21.75 L-3.0283 21.75 Q-1.9658 21.75 -1.5049 21.4219 Q-1.0439 21.0938 -1.0439 20.3125 Q-1.0439 19.5938 -1.5596 19.2734 Q-2.0752 18.9531 -3.2002 18.9531 L-4.6689 18.9531 L-4.6689 21.75 ZM-4.6689 22.5938 L-4.6689 25.8125 L-2.8721 25.8125 Q-1.8408 25.8125 -1.3174 25.4062 Q-0.7939 25 -0.7939 24.1406 Q-0.7939 23.3438 -1.333 22.9688 Q-1.8721 22.5938 -2.9658 22.5938 L-4.6689 22.5938 ZM4.9033 20.1094 Q5.3252 20.1094 5.6689 20.1875 L5.5283 21.0938 Q5.1377 21 4.8252 21 Q4.0439 21 3.4893 21.6328 Q2.9346 22.2656 2.9346 23.2031 L2.9346 26.6562 L1.9658 26.6562 L1.9658 20.2344 L2.7627 20.2344 L2.8877 21.4219 L2.9346 21.4219 Q3.2783 20.7969 3.7861 20.4531 Q4.2939 20.1094 4.9033 20.1094 Z"/></g></g></svg></svg></svg></svg>