<svg xmlns:ns0="http://www.w3.org/2000/svg" xmlns="http://www.w3.org/2000/svg"><g transform="translate(0, 0)"><ns0:svg width="157" viewBox="0 0 157 115" style="fill-opacity:1; color-rendering:auto; color-interpolation:auto; text-rendering:auto; stroke:black; stroke-linecap:square; stroke-miterlimit:10; shape-rendering:auto; stroke-opacity:1; fill:black; stroke-dasharray:none; font-weight:normal; stroke-width:1; font-family:'Open Sans'; font-style:normal; stroke-linejoin:miter; font-size:12; stroke-dashoffset:0; image-rendering:auto;" height="115" class="cas-substance-image"><ns0:svg class="cas-substance-single-component"><ns0:rect y="0" x="0" width="157" stroke="none" ry="7" rx="7" height="115" fill="white" class="cas-substance-group" /><ns0:svg y="0" x="0" width="157" viewBox="0 0 157 115" style="fill:black;" height="115" class="cas-substance-single-component-image"><ns0:svg><ns0:g><ns0:g transform="translate(71,55)" style="text-rendering:geometricPrecision; color-rendering:optimizeQuality; color-interpolation:linearRGB; stroke-linecap:butt; image-rendering:optimizeQuality;"><ns0:line y2="47.1101" y1="32.7433" x2="-12.3223" x1="-20.6162" style="fill:none;" /><ns0:line y2="45.3602" y1="30.9934" x2="-9.2911" x1="-17.5851" style="fill:none;" /><ns0:line y2="24.23" y1="24.23" x2="-46.5625" x1="-27.8516" style="fill:none;" /><ns0:line y2="27.73" y1="27.73" x2="-46.5625" x1="-27.8516" style="fill:none;" /><ns0:line y2="0" y1="19.8417" x2="-7.5" x1="-18.956" style="fill:none;" /><ns0:line y2="-51.963" y1="-31.7078" x2="-67.5" x1="-55.8067" style="fill:none;" /><ns0:line y2="-25.98" y1="-25.98" x2="-22.5" x1="-46.5625" style="fill:none;" /><ns0:line y2="-25.98" y1="-25.98" x2="37.5" x1="62.1484" style="fill:none;" /><ns0:line y2="-25.98" y1="0" x2="-22.5" x1="-7.5" style="fill:none;" /><ns0:line y2="-25.9801" y1="-3.5" x2="-18.4585" x1="-5.4793" style="fill:none;" /><ns0:line y2="0" y1="0" x2="22.5" x1="-7.5" style="fill:none;" /><ns0:line y2="-51.963" y1="-25.98" x2="-7.5" x1="-22.5" style="fill:none;" /><ns0:line y2="-25.98" y1="0" x2="37.5" x1="22.5" style="fill:none;" /><ns0:line y2="-25.9801" y1="-3.5" x2="33.4585" x1="20.4793" style="fill:none;" /><ns0:line y2="-51.963" y1="-51.963" x2="22.5" x1="-7.5" style="fill:none;" /><ns0:line y2="-48.463" y1="-48.463" x2="20.4793" x1="-5.4793" style="fill:none;" /><ns0:line y2="-51.963" y1="-25.98" x2="22.5" x1="37.5" style="fill:none;" /></ns0:g><ns0:g transform="translate(71,55)" style="fill:rgb(0,5,255); text-rendering:geometricPrecision; color-rendering:optimizeQuality; image-rendering:optimizeQuality; font-family:'Open Sans'; stroke:rgb(0,5,255); color-interpolation:linearRGB;"><ns0:path style="stroke:none;" d="M-19.1484 30.1362 L-20.2891 30.1362 L-24.9766 22.9487 L-25.0234 22.9487 Q-24.9297 24.2144 -24.9297 25.2612 L-24.9297 30.1362 L-25.8516 30.1362 L-25.8516 21.5737 L-24.7266 21.5737 L-20.0547 28.73 L-20.0078 28.73 Q-20.0078 28.5737 -20.0547 27.7144 Q-20.1016 26.855 -20.0859 26.48 L-20.0859 21.5737 L-19.1484 21.5737 L-19.1484 30.1362 Z" /><ns0:path style="fill:rgb(230,0,0); stroke:none;" d="M-3.5625 51.8927 Q-3.5625 53.9552 -4.6016 55.1349 Q-5.6406 56.3146 -7.4844 56.3146 Q-9.375 56.3146 -10.4062 55.1505 Q-11.4375 53.9864 -11.4375 51.8771 Q-11.4375 49.7833 -10.4062 48.6349 Q-9.375 47.4864 -7.4844 47.4864 Q-5.625 47.4864 -4.5938 48.6583 Q-3.5625 49.8302 -3.5625 51.8927 ZM-10.3906 51.8927 Q-10.3906 53.6271 -9.6484 54.5333 Q-8.9062 55.4396 -7.4844 55.4396 Q-6.0625 55.4396 -5.3359 54.5411 Q-4.6094 53.6427 -4.6094 51.8927 Q-4.6094 50.1583 -5.3359 49.2677 Q-6.0625 48.3771 -7.4844 48.3771 Q-8.9062 48.3771 -9.6484 49.2755 Q-10.3906 50.1739 -10.3906 51.8927 Z" /><ns0:path style="fill:rgb(230,0,0); stroke:none;" d="M-48.5625 25.9097 Q-48.5625 27.9722 -49.6016 29.1519 Q-50.6406 30.3316 -52.4844 30.3316 Q-54.375 30.3316 -55.4062 29.1675 Q-56.4375 28.0034 -56.4375 25.8941 Q-56.4375 23.8003 -55.4062 22.6519 Q-54.375 21.5034 -52.4844 21.5034 Q-50.625 21.5034 -49.5938 22.6753 Q-48.5625 23.8472 -48.5625 25.9097 ZM-55.3906 25.9097 Q-55.3906 27.6441 -54.6484 28.5503 Q-53.9062 29.4566 -52.4844 29.4566 Q-51.0625 29.4566 -50.3359 28.5581 Q-49.6094 27.6597 -49.6094 25.9097 Q-49.6094 24.1753 -50.3359 23.2847 Q-51.0625 22.3941 -52.4844 22.3941 Q-53.9062 22.3941 -54.6484 23.2925 Q-55.3906 24.1909 -55.3906 25.9097 Z" /><ns0:path style="fill:rgb(230,0,0); stroke:none;" d="M-48.5625 -26.0503 Q-48.5625 -23.9878 -49.6016 -22.8081 Q-50.6406 -21.6284 -52.4844 -21.6284 Q-54.375 -21.6284 -55.4062 -22.7925 Q-56.4375 -23.9566 -56.4375 -26.0659 Q-56.4375 -28.1597 -55.4062 -29.3081 Q-54.375 -30.4566 -52.4844 -30.4566 Q-50.625 -30.4566 -49.5938 -29.2847 Q-48.5625 -28.1128 -48.5625 -26.0503 ZM-55.3906 -26.0503 Q-55.3906 -24.3159 -54.6484 -23.4097 Q-53.9062 -22.5034 -52.4844 -22.5034 Q-51.0625 -22.5034 -50.3359 -23.4019 Q-49.6094 -24.3003 -49.6094 -26.0503 Q-49.6094 -27.7847 -50.3359 -28.6753 Q-51.0625 -29.5659 -52.4844 -29.5659 Q-53.9062 -29.5659 -54.6484 -28.6675 Q-55.3906 -27.7691 -55.3906 -26.0503 Z" /><ns0:path style="stroke:none;" d="M70.8516 -21.8237 L69.7109 -21.8237 L65.0234 -29.0112 L64.9766 -29.0112 Q65.0703 -27.7456 65.0703 -26.6987 L65.0703 -21.8237 L64.1484 -21.8237 L64.1484 -30.3862 L65.2734 -30.3862 L69.9453 -23.23 L69.9922 -23.23 Q69.9922 -23.3862 69.9453 -24.2456 Q69.8984 -25.105 69.9141 -25.48 L69.9141 -30.3862 L70.8516 -30.3862 L70.8516 -21.8237 Z" /><ns0:path style="stroke:none;" d="M78.3672 -21.8237 L77.3672 -21.8237 L77.3672 -25.855 L72.8516 -25.855 L72.8516 -21.8237 L71.8516 -21.8237 L71.8516 -30.3862 L72.8516 -30.3862 L72.8516 -26.7456 L77.3672 -26.7456 L77.3672 -30.3862 L78.3672 -30.3862 L78.3672 -21.8237 Z" /><ns0:path style="stroke:none;" d="M83.1172 -20.0144 L79.3672 -20.0144 L79.3672 -20.5769 L80.8672 -22.0925 Q81.5547 -22.78 81.7734 -23.0769 Q81.9922 -23.3737 82.1016 -23.655 Q82.2109 -23.9362 82.2109 -24.2644 Q82.2109 -24.7175 81.9375 -24.9831 Q81.6641 -25.2487 81.1641 -25.2487 Q80.8203 -25.2487 80.5 -25.1316 Q80.1797 -25.0144 79.7891 -24.7175 L79.4453 -25.155 Q80.2266 -25.8112 81.1641 -25.8112 Q81.9609 -25.8112 82.4219 -25.3972 Q82.8828 -24.9831 82.8828 -24.2956 Q82.8828 -23.7487 82.5781 -23.2175 Q82.2734 -22.6862 81.4297 -21.8737 L80.1797 -20.655 L80.1797 -20.6237 L83.1172 -20.6237 L83.1172 -20.0144 Z" /></ns0:g><ns0:g transform="translate(71,55)" style="stroke-linecap:butt; font-size:8.4px; text-rendering:geometricPrecision; color-rendering:optimizeQuality; image-rendering:optimizeQuality; font-family:'Open Sans'; color-interpolation:linearRGB; stroke-miterlimit:5;"><ns0:path style="fill:none;" d="M-7.75 -0.433 L-7.5 0 L-7.75 0.433" /><ns0:path style="fill:none;" d="M-22.25 -25.547 L-22.5 -25.98 L-23 -25.98" /><ns0:path style="fill:none;" d="M22 -0 L22.5 0 L22.75 -0.433" /><ns0:path style="fill:none;" d="M-7.75 -51.53 L-7.5 -51.963 L-7 -51.963" /><ns0:path style="fill:none;" d="M37.25 -25.547 L37.5 -25.98 L37.25 -26.413" /><ns0:path style="fill:none;" d="M22 -51.963 L22.5 -51.963 L22.75 -51.53" /></ns0:g></ns0:g></ns0:svg></ns0:svg></ns0:svg></ns0:svg></g></svg>