<svg xmlns:ns0="http://www.w3.org/2000/svg" xmlns="http://www.w3.org/2000/svg"><g transform="translate(0, 0)"><ns0:svg width="139" viewBox="0 0 139 75" style="fill-opacity:1; color-rendering:auto; color-interpolation:auto; text-rendering:auto; stroke:black; stroke-linecap:square; stroke-miterlimit:10; shape-rendering:auto; stroke-opacity:1; fill:black; stroke-dasharray:none; font-weight:normal; stroke-width:1; font-family:'Open Sans'; font-style:normal; stroke-linejoin:miter; font-size:12; stroke-dashoffset:0; image-rendering:auto;" height="75" class="cas-substance-image"><ns0:svg class="cas-substance-single-component"><ns0:rect y="0" x="0" width="139" stroke="none" ry="7" rx="7" height="75" fill="white" class="cas-substance-group" /><ns0:svg y="0" x="0" width="139" viewBox="0 0 139 75" style="fill:black;" height="75" class="cas-substance-single-component-image"><ns0:svg><ns0:g><ns0:g transform="translate(68,34)" style="text-rendering:geometricPrecision; color-rendering:optimizeQuality; color-interpolation:linearRGB; stroke-linecap:butt; image-rendering:optimizeQuality;"><ns0:line y2="-1.75" y1="-1.75" x2="32.7907" x1="58.1245" style="fill:none;" /><ns0:line y2="1.75" y1="1.75" x2="32.7907" x1="58.1245" style="fill:none;" /><ns0:line y2="15" y1="-15" x2="-12.102" x1="-12.102" style="fill:none;" /><ns0:line y2="-24.27" y1="-15" x2="16.431" x1="-12.102" style="fill:none;" /><ns0:line y2="-30" y1="-15" x2="-38.082" x1="-12.102" style="fill:none;" /><ns0:line y2="-25.9585" y1="-12.9793" x2="-38.0821" x1="-15.602" style="fill:none;" /><ns0:line y2="22.5631" y1="15" x2="11.1773" x1="-12.102" style="fill:none;" /><ns0:line y2="27.0649" y1="15" x2="-32.9984" x1="-12.102" style="fill:none;" /><ns0:line y2="24.0338" y1="12.9793" x2="-34.7484" x1="-15.602" style="fill:none;" /><ns0:line y2="0" y1="-24.27" x2="34.062" x1="16.431" style="fill:none;" /><ns0:line y2="-15" y1="-30" x2="-64.062" x1="-38.082" style="fill:none;" /><ns0:line y2="0" y1="18.2456" x2="34.062" x1="20.8074" style="fill:none;" /><ns0:line y2="15" y1="27.0649" x2="-64.062" x1="-43.1656" style="fill:none;" /><ns0:line y2="15" y1="-15" x2="-64.062" x1="-64.062" style="fill:none;" /><ns0:line y2="12.9793" y1="-12.9793" x2="-60.562" x1="-60.562" style="fill:none;" /></ns0:g><ns0:g transform="translate(68,34)" style="fill:rgb(230,0,0); text-rendering:geometricPrecision; color-rendering:optimizeQuality; image-rendering:optimizeQuality; font-family:'Open Sans'; stroke:rgb(230,0,0); color-interpolation:linearRGB;"><ns0:path style="stroke:none;" d="M67.9995 -0.0703 Q67.9995 1.9922 66.9604 3.1719 Q65.9214 4.3516 64.0776 4.3516 Q62.187 4.3516 61.1558 3.1875 Q60.1245 2.0234 60.1245 -0.0859 Q60.1245 -2.1797 61.1558 -3.3281 Q62.187 -4.4766 64.0776 -4.4766 Q65.937 -4.4766 66.9683 -3.3047 Q67.9995 -2.1328 67.9995 -0.0703 ZM61.1714 -0.0703 Q61.1714 1.6641 61.9136 2.5703 Q62.6558 3.4766 64.0776 3.4766 Q65.4995 3.4766 66.2261 2.5781 Q66.9526 1.6797 66.9526 -0.0703 Q66.9526 -1.8047 66.2261 -2.6953 Q65.4995 -3.5859 64.0776 -3.5859 Q62.6558 -3.5859 61.9136 -2.6875 Q61.1714 -1.7891 61.1714 -0.0703 Z" /></ns0:g><ns0:g transform="translate(68,34)" style="stroke-linecap:butt; text-rendering:geometricPrecision; color-rendering:optimizeQuality; image-rendering:optimizeQuality; font-family:'Open Sans'; color-interpolation:linearRGB; stroke-miterlimit:5;"><ns0:path style="fill:none;" d="M-12.535 -15.25 L-12.102 -15 L-12.102 -14.5" /><ns0:path style="fill:none;" d="M-12.535 15.25 L-12.102 15 L-11.6265 15.1545" /><ns0:path style="fill:none;" d="M15.9555 -24.1155 L16.431 -24.27 L16.7249 -23.8655" /><ns0:path style="fill:none;" d="M-37.649 -29.75 L-38.082 -30 L-38.515 -29.75" /><ns0:path style="fill:rgb(0,5,255); stroke:none;" d="M19.7826 28.4263 L18.6419 28.4263 L13.9544 21.2388 L13.9076 21.2388 Q14.0013 22.5044 14.0013 23.5513 L14.0013 28.4263 L13.0794 28.4263 L13.0794 19.8638 L14.2044 19.8638 L18.8763 27.02 L18.9232 27.02 Q18.9232 26.8638 18.8763 26.0044 Q18.8294 25.145 18.8451 24.77 L18.8451 19.8638 L19.7826 19.8638 L19.7826 28.4263 Z" /><ns0:path style="fill:rgb(0,5,255); stroke:none;" d="M19.6888 37.9888 L18.6888 37.9888 L18.6888 33.9575 L14.1732 33.9575 L14.1732 37.9888 L13.1732 37.9888 L13.1732 29.4263 L14.1732 29.4263 L14.1732 33.0669 L18.6888 33.0669 L18.6888 29.4263 L19.6888 29.4263 L19.6888 37.9888 Z" /><ns0:path style="fill:rgb(0,5,255); stroke:none;" d="M-34.7304 34.1562 L-35.8711 34.1562 L-40.5586 26.9688 L-40.6054 26.9688 Q-40.5117 28.2344 -40.5117 29.2812 L-40.5117 34.1562 L-41.4336 34.1562 L-41.4336 25.5938 L-40.3086 25.5938 L-35.6367 32.75 L-35.5898 32.75 Q-35.5898 32.5938 -35.6367 31.7344 Q-35.6836 30.875 -35.6679 30.5 L-35.6679 25.5938 L-34.7304 25.5938 L-34.7304 34.1562 Z" /><ns0:path style="fill:none;" d="M33.7681 -0.4045 L34.062 0 L33.7681 0.4045" /><ns0:path style="fill:none;" d="M-63.629 -15.25 L-64.062 -15 L-64.062 -14.5" /><ns0:path style="fill:none;" d="M-63.629 15.25 L-64.062 15 L-64.062 14.5" /></ns0:g></ns0:g></ns0:svg></ns0:svg></ns0:svg></ns0:svg></g></svg>