<svg width="184" viewBox="0 0 184 93" style="fill-opacity:1; color-rendering:auto; color-interpolation:auto; text-rendering:auto; stroke:black; stroke-linecap:square; stroke-miterlimit:10; shape-rendering:auto; stroke-opacity:1; fill:black; stroke-dasharray:none; font-weight:normal; stroke-width:1; font-family:'Open Sans'; font-style:normal; stroke-linejoin:miter; font-size:12; stroke-dashoffset:0; image-rendering:auto;" height="93" class="cas-substance-image" xmlns:xlink="http://www.w3.org/1999/xlink" xmlns="http://www.w3.org/2000/svg"><svg class="cas-substance-single-component"><rect y="0" x="0" width="184" stroke="none" ry="7" rx="7" height="93" fill="white" class="cas-substance-group"/><svg y="0" x="0" width="184" viewBox="0 0 184 93" style="fill:black;" height="93" class="cas-substance-single-component-image"><svg><g><g transform="translate(96,48)" style="text-rendering:geometricPrecision; color-rendering:optimizeQuality; color-interpolation:linearRGB; stroke-linecap:butt; image-rendering:optimizeQuality;"><line y2="-36.2573" y1="-10.98" x2="52.5" x1="52.5" style="fill:none;"/><line y2="-10.98" y1="-10.98" x2="78.1094" x1="52.5" style="fill:none;"/><line y2="12.6138" y1="-10.98" x2="52.5" x1="52.5" style="fill:none;"/><line y2="-10.98" y1="-10.98" x2="22.5" x1="52.5" style="fill:none;"/><line y2="-10.98" y1="15" x2="-37.5" x1="-22.5" style="fill:none;"/><line y2="15" y1="15" x2="7.5" x1="-22.5" style="fill:none;"/><line y2="11.5" y1="11.5" x2="5.4793" x1="-20.4793" style="fill:none;"/><line y2="40.98" y1="15" x2="-37.5" x1="-22.5" style="fill:none;"/><line y2="-36.963" y1="-10.98" x2="-22.5" x1="-37.5" style="fill:none;"/><line y2="-33.4631" y1="-10.9802" x2="-20.4791" x1="-33.4585" style="fill:none;"/><line y2="-10.98" y1="-10.98" x2="-67.5" x1="-37.5" style="fill:none;"/><line y2="-10.98" y1="15" x2="22.5" x1="7.5" style="fill:none;"/><line y2="40.98" y1="40.98" x2="-67.5" x1="-37.5" style="fill:none;"/><line y2="-36.963" y1="-36.963" x2="7.5" x1="-22.5" style="fill:none;"/><line y2="8.8617" y1="-10.98" x2="-78.956" x1="-67.5" style="fill:none;"/><line y2="-36.963" y1="-10.98" x2="7.5" x1="22.5" style="fill:none;"/><line y2="-33.4631" y1="-10.9802" x2="5.4791" x1="18.4585" style="fill:none;"/><line y2="20.8883" y1="40.98" x2="-79.1003" x1="-67.5" style="fill:none;"/></g><g transform="translate(96,48)" style="fill:rgb(0,138,0); text-rendering:geometricPrecision; color-rendering:optimizeQuality; image-rendering:optimizeQuality; font-family:'Open Sans'; stroke:rgb(0,138,0); color-interpolation:linearRGB;"><path style="stroke:none;" d="M51.1094 -36.8238 L50.1094 -36.8238 L50.1094 -45.3863 L54.8906 -45.3863 L54.8906 -44.5113 L51.1094 -44.5113 L51.1094 -41.3706 L54.6562 -41.3706 L54.6562 -40.48 L51.1094 -40.48 L51.1094 -36.8238 Z"/><path style="stroke:none;" d="M81.1094 -6.8237 L80.1094 -6.8237 L80.1094 -15.3862 L84.8906 -15.3862 L84.8906 -14.5112 L81.1094 -14.5112 L81.1094 -11.3706 L84.6562 -11.3706 L84.6562 -10.48 L81.1094 -10.48 L81.1094 -6.8237 Z"/><path style="stroke:none;" d="M51.1094 23.1763 L50.1094 23.1763 L50.1094 14.6138 L54.8906 14.6138 L54.8906 15.4888 L51.1094 15.4888 L51.1094 18.6294 L54.6562 18.6294 L54.6562 19.52 L51.1094 19.52 L51.1094 23.1763 Z"/></g><g transform="translate(96,48)" style="stroke-linecap:butt; text-rendering:geometricPrecision; color-rendering:optimizeQuality; image-rendering:optimizeQuality; font-family:'Open Sans'; color-interpolation:linearRGB; stroke-miterlimit:5;"><path style="fill:none;" d="M-22 15 L-22.5 15 L-22.75 14.567"/><path style="fill:none;" d="M-37.25 -11.413 L-37.5 -10.98 L-37.25 -10.547"/><path style="fill:none;" d="M7 15 L7.5 15 L7.75 14.567"/><path style="fill:none;" d="M-37.25 40.547 L-37.5 40.98 L-38 40.98"/><path style="fill:none;" d="M-22.75 -36.53 L-22.5 -36.963 L-22 -36.963"/><path style="fill:none;" d="M-67 -10.98 L-67.5 -10.98 L-67.75 -10.547"/><path style="fill:none;" d="M22.25 -11.413 L22.5 -10.98 L23 -10.98"/><path style="fill:none;" d="M-67 40.98 L-67.5 40.98 L-67.75 40.547"/><path style="fill:none;" d="M7 -36.963 L7.5 -36.963 L7.75 -36.53"/><path style="fill:rgb(0,5,255); stroke:none;" d="M-79.1484 19.1562 L-80.2891 19.1562 L-84.9766 11.9688 L-85.0234 11.9688 Q-84.9297 13.2344 -84.9297 14.2812 L-84.9297 19.1562 L-85.8516 19.1562 L-85.8516 10.5938 L-84.7266 10.5938 L-80.0547 17.75 L-80.0078 17.75 Q-80.0078 17.5938 -80.0547 16.7344 Q-80.1016 15.875 -80.0859 15.5 L-80.0859 10.5938 L-79.1484 10.5938 L-79.1484 19.1562 Z"/><path style="fill:rgb(0,5,255); stroke:none;" d="M-86.8516 19.1562 L-87.8516 19.1562 L-87.8516 15.125 L-92.3672 15.125 L-92.3672 19.1562 L-93.3672 19.1562 L-93.3672 10.5938 L-92.3672 10.5938 L-92.3672 14.2344 L-87.8516 14.2344 L-87.8516 10.5938 L-86.8516 10.5938 L-86.8516 19.1562 Z"/></g></g></svg></svg></svg></svg>