<svg xmlns:ns0="http://www.w3.org/2000/svg" xmlns="http://www.w3.org/2000/svg"><g transform="translate(0, 0)"><ns0:svg width="126" viewBox="0 0 126 85" style="fill-opacity:1; color-rendering:auto; color-interpolation:auto; text-rendering:auto; stroke:black; stroke-linecap:square; stroke-miterlimit:10; shape-rendering:auto; stroke-opacity:1; fill:black; stroke-dasharray:none; font-weight:normal; stroke-width:1; font-family:'Open Sans'; font-style:normal; stroke-linejoin:miter; font-size:12; stroke-dashoffset:0; image-rendering:auto;" height="85" class="cas-substance-image"><ns0:svg class="cas-substance-single-component"><ns0:rect y="0" x="0" width="126" stroke="none" ry="7" rx="7" height="85" fill="white" class="cas-substance-group" /><ns0:svg y="0" x="0" width="126" viewBox="0 0 126 85" style="fill:black;" height="85" class="cas-substance-single-component-image"><ns0:svg><ns0:g><ns0:g transform="translate(63,42)" style="text-rendering:geometricPrecision; color-rendering:optimizeQuality; color-interpolation:linearRGB; stroke-linecap:butt; image-rendering:optimizeQuality;"><ns0:line y2="-12.99" y1="-12.99" x2="15" x1="-9.6484" style="fill:none;" /><ns0:line y2="12.99" y1="-7.1017" x2="-30" x1="-18.3997" style="fill:none;" /><ns0:line y2="-38.97" y1="-19.1283" x2="-30" x1="-18.544" style="fill:none;" /><ns0:line y2="-38.97" y1="-12.99" x2="30" x1="15" style="fill:none;" /><ns0:line y2="38.97" y1="12.99" x2="-15" x1="-30" style="fill:none;" /><ns0:line y2="-38.97" y1="-38.97" x2="-60" x1="-30" style="fill:none;" /><ns0:line y2="-38.97" y1="-38.97" x2="60" x1="30" style="fill:none;" /><ns0:line y2="-35.47" y1="-35.47" x2="60" x1="32.0207" style="fill:none;" /></ns0:g><ns0:g transform="translate(63,42)" style="fill:rgb(0,5,255); text-rendering:geometricPrecision; color-rendering:optimizeQuality; image-rendering:optimizeQuality; font-family:'Open Sans'; stroke:rgb(0,5,255); color-interpolation:linearRGB;"><ns0:path style="stroke:none;" d="M-11.6484 -8.8337 L-12.7891 -8.8337 L-17.4766 -16.0212 L-17.5234 -16.0212 Q-17.4297 -14.7556 -17.4297 -13.7087 L-17.4297 -8.8337 L-18.3516 -8.8337 L-18.3516 -17.3962 L-17.2266 -17.3962 L-12.5547 -10.24 L-12.5078 -10.24 Q-12.5078 -10.3962 -12.5547 -11.2556 Q-12.6016 -12.115 -12.5859 -12.49 L-12.5859 -17.3962 L-11.6484 -17.3962 L-11.6484 -8.8337 Z" /></ns0:g><ns0:g transform="translate(63,42)" style="stroke-linecap:butt; text-rendering:geometricPrecision; color-rendering:optimizeQuality; image-rendering:optimizeQuality; font-family:'Open Sans'; color-interpolation:linearRGB; stroke-miterlimit:5;"><ns0:path style="fill:none;" d="M14.5 -12.99 L15 -12.99 L15.25 -13.423" /><ns0:path style="fill:none;" d="M-29.75 12.557 L-30 12.99 L-29.75 13.423" /><ns0:path style="fill:none;" d="M-29.75 -38.537 L-30 -38.97 L-30.5 -38.97" /><ns0:path style="fill:none;" d="M29.75 -38.537 L30 -38.97 L30.5 -38.97" /></ns0:g></ns0:g></ns0:svg></ns0:svg></ns0:svg></ns0:svg></g></svg>