<svg width="163" viewBox="0 0 163 157" style="fill-opacity:1; color-rendering:auto; color-interpolation:auto; text-rendering:auto; stroke:black; stroke-linecap:square; stroke-miterlimit:10; shape-rendering:auto; stroke-opacity:1; fill:black; stroke-dasharray:none; font-weight:normal; stroke-width:1; font-family:'Open Sans'; font-style:normal; stroke-linejoin:miter; font-size:12; stroke-dashoffset:0; image-rendering:auto;" height="157" class="cas-substance-image" xmlns:xlink="http://www.w3.org/1999/xlink" xmlns="http://www.w3.org/2000/svg"><svg class="cas-substance-single-component"><rect y="0" x="0" width="163" stroke="none" ry="7" rx="7" height="157" fill="white" class="cas-substance-group"/><svg y="0" x="0" width="163" viewBox="0 0 163 157" style="fill:black;" height="157" class="cas-substance-single-component-image"><svg><g><g transform="translate(81,79)" style="text-rendering:geometricPrecision; color-rendering:optimizeQuality; color-interpolation:linearRGB; stroke-linecap:butt; image-rendering:optimizeQuality;"><line y2="-30" y1="-17.7683" x2="-25.98" x1="-4.7947" style="fill:none;"/><line y2="-30" y1="-20.5152" x2="25.98" x1="9.5524" style="fill:none;"/><line y2="15" y1="-8.6562" x2="0" x1="0" style="fill:none;"/><line y2="-15" y1="-30" x2="-51.963" x1="-25.98" style="fill:none;"/><line y2="-19.0415" y1="-32.0209" x2="-51.9628" x1="-29.4799" style="fill:none;"/><line y2="-60" y1="-30" x2="-25.98" x1="-25.98" style="fill:none;"/><line y2="-30" y1="-15" x2="-77.943" x1="-51.963" style="fill:none;"/><line y2="-75" y1="-60" x2="-51.963" x1="-25.98" style="fill:none;"/><line y2="-70.9585" y1="-57.9791" x2="-51.9628" x1="-29.4799" style="fill:none;"/><line y2="-60" y1="-30" x2="-77.943" x1="-77.943" style="fill:none;"/><line y2="-57.9793" y1="-32.0207" x2="-74.443" x1="-74.443" style="fill:none;"/><line y2="-60" y1="-75" x2="-77.943" x1="-51.963" style="fill:none;"/><line y2="-15" y1="-30" x2="51.963" x1="25.98" style="fill:none;"/><line y2="-19.0415" y1="-32.0209" x2="51.9628" x1="29.4799" style="fill:none;"/><line y2="-60" y1="-30" x2="25.98" x1="25.98" style="fill:none;"/><line y2="-30" y1="-15" x2="77.943" x1="51.963" style="fill:none;"/><line y2="-75" y1="-60" x2="51.963" x1="25.98" style="fill:none;"/><line y2="-70.9585" y1="-57.9791" x2="51.9628" x1="29.4799" style="fill:none;"/><line y2="-60" y1="-30" x2="77.943" x1="77.943" style="fill:none;"/><line y2="-57.9793" y1="-32.0207" x2="74.443" x1="74.443" style="fill:none;"/><line y2="-60" y1="-75" x2="77.943" x1="51.963" style="fill:none;"/><line y2="30" y1="15" x2="-25.98" x1="0" style="fill:none;"/><line y2="32.0207" y1="19.0415" x2="-22.48" x1="0.0001" style="fill:none;"/><line y2="30" y1="15" x2="25.98" x1="0" style="fill:none;"/><line y2="60" y1="30" x2="-25.98" x1="-25.98" style="fill:none;"/><line y2="60" y1="30" x2="25.98" x1="25.98" style="fill:none;"/><line y2="57.9793" y1="32.0207" x2="22.48" x1="22.48" style="fill:none;"/><line y2="75" y1="60" x2="0" x1="-25.98" style="fill:none;"/><line y2="70.9585" y1="57.9793" x2="0.0001" x1="-22.48" style="fill:none;"/><line y2="75" y1="60" x2="0" x1="25.98" style="fill:none;"/><path style="stroke-linecap:square; stroke:none;" d="M0.8672 -18.5781 Q-0.5391 -18.5781 -1.3594 -17.6406 Q-2.1797 -16.7031 -2.1797 -15.0625 Q-2.1797 -13.3906 -1.3906 -12.4688 Q-0.6016 -11.5469 0.8516 -11.5469 Q1.7578 -11.5469 2.8984 -11.875 L2.8984 -11 Q2.0078 -10.6562 0.7109 -10.6562 Q-1.1797 -10.6562 -2.2109 -11.8125 Q-3.2422 -12.9688 -3.2422 -15.0781 Q-3.2422 -16.4062 -2.75 -17.3984 Q-2.2578 -18.3906 -1.3203 -18.9297 Q-0.3828 -19.4688 0.8828 -19.4688 Q2.2266 -19.4688 3.2422 -18.9844 L2.8203 -18.125 Q1.8359 -18.5781 0.8672 -18.5781 Z"/><path style="stroke-linecap:square; stroke:none;" d="M6.2109 -17.9094 L7.8203 -17.9094 L7.8203 -17.3625 L6.2109 -17.3625 L6.2109 -15.7062 L5.6797 -15.7062 L5.6797 -17.3625 L4.0703 -17.3625 L4.0703 -17.9094 L5.6797 -17.9094 L5.6797 -19.5812 L6.2109 -19.5812 L6.2109 -17.9094 Z"/><path style="fill:none; stroke-miterlimit:5;" d="M-26.413 -29.75 L-25.98 -30 L-25.98 -30.5"/><path style="fill:none; stroke-miterlimit:5;" d="M-51.53 -15.25 L-51.963 -15 L-52.396 -15.25"/><path style="fill:none; stroke-miterlimit:5;" d="M-25.98 -59.5 L-25.98 -60 L-26.413 -60.25"/><path style="fill:none; stroke-miterlimit:5;" d="M-77.51 -29.75 L-77.943 -30 L-77.943 -30.5"/><path style="fill:none; stroke-miterlimit:5;" d="M-51.53 -74.75 L-51.963 -75 L-52.396 -74.75"/><path style="fill:none; stroke-miterlimit:5;" d="M-77.943 -59.5 L-77.943 -60 L-77.51 -60.25"/><path style="fill:none; stroke-miterlimit:5;" d="M26.413 -29.75 L25.98 -30 L25.547 -29.75"/><path style="fill:none; stroke-miterlimit:5;" d="M51.53 -15.25 L51.963 -15 L52.396 -15.25"/><path style="fill:none; stroke-miterlimit:5;" d="M25.98 -59.5 L25.98 -60 L26.413 -60.25"/><path style="fill:none; stroke-miterlimit:5;" d="M77.51 -29.75 L77.943 -30 L77.943 -30.5"/><path style="fill:none; stroke-miterlimit:5;" d="M51.53 -74.75 L51.963 -75 L52.396 -74.75"/><path style="fill:none; stroke-miterlimit:5;" d="M77.943 -59.5 L77.943 -60 L77.51 -60.25"/><path style="fill:none; stroke-miterlimit:5;" d="M-0.433 15.25 L0 15 L0 14.5"/><path style="fill:none; stroke-miterlimit:5;" d="M-25.547 29.75 L-25.98 30 L-25.98 30.5"/><path style="fill:none; stroke-miterlimit:5;" d="M25.547 29.75 L25.98 30 L25.98 30.5"/><path style="fill:none; stroke-miterlimit:5;" d="M-25.98 59.5 L-25.98 60 L-25.547 60.25"/><path style="fill:none; stroke-miterlimit:5;" d="M25.98 59.5 L25.98 60 L25.547 60.25"/><path style="fill:none; stroke-miterlimit:5;" d="M-0.433 74.75 L0 75 L0.433 74.75"/></g></g></svg></svg></svg></svg>