<svg xmlns:ns0="http://www.w3.org/2000/svg" xmlns="http://www.w3.org/2000/svg"><g transform="translate(0, 0)"><ns0:svg width="394" viewBox="0 0 394 244" style="fill-opacity:1; color-rendering:auto; color-interpolation:auto; text-rendering:auto; stroke:black; stroke-linecap:square; stroke-miterlimit:10; shape-rendering:auto; stroke-opacity:1; fill:black; stroke-dasharray:none; font-weight:normal; stroke-width:1; font-family:'Open Sans'; font-style:normal; stroke-linejoin:miter; font-size:12; stroke-dashoffset:0; image-rendering:auto;" height="244" class="cas-substance-image"><ns0:svg class="cas-substance-single-component"><ns0:rect y="0" x="0" width="394" stroke="none" ry="7" rx="7" height="244" fill="white" class="cas-substance-group" /><ns0:svg y="0" x="0" width="394" viewBox="0 0 394 244" style="fill:black;" height="244" class="cas-substance-single-component-image"><ns0:svg><ns0:g><ns0:g transform="translate(202,120)" style="text-rendering:geometricPrecision; color-rendering:optimizeQuality; color-interpolation:linearRGB; stroke-linecap:butt; image-rendering:optimizeQuality;"><ns0:line y2="-59.1657" y1="-75.8812" x2="109.2591" x1="127.8233" style="fill:none;" /><ns0:line y2="-56.5647" y1="-73.2802" x2="111.601" x1="130.1652" style="fill:none;" /><ns0:line y2="-90.933" y1="-116.913" x2="67.029" x1="82.029" style="fill:none;" /><ns0:line y2="-90.933" y1="-116.913" x2="37.029" x1="22.029" style="fill:none;" /><ns0:line y2="-38.97" y1="-59.3048" x2="-22.971" x1="-11.2317" style="fill:none;" /><ns0:line y2="-64.953" y1="-64.953" x2="22.029" x1="-2.0335" style="fill:none;" /><ns0:line y2="-38.97" y1="-38.97" x2="-52.971" x1="-22.971" style="fill:none;" /><ns0:line y2="90.933" y1="90.933" x2="-182.0335" x1="-157.971" style="fill:none;" /><ns0:line y2="112.0604" y1="90.933" x2="-147.7935" x1="-159.9917" style="fill:none;" /><ns0:line y2="110.3104" y1="89.183" x2="-144.7624" x1="-156.9606" style="fill:none;" /><ns0:line y2="64.953" y1="90.933" x2="-142.971" x1="-157.971" style="fill:none;" /><ns0:line y2="-38.97" y1="-64.953" x2="67.029" x1="82.029" style="fill:none;" /><ns0:line y2="-58.716" y1="-64.953" x2="111.375" x1="82.029" style="fill:none;" /><ns0:line y2="-90.933" y1="-64.953" x2="67.029" x1="82.029" style="fill:none;" /><ns0:line y2="-87.433" y1="-64.9529" x2="65.0083" x1="77.9875" style="fill:none;" /><ns0:line y2="-16.677" y1="-38.97" x2="87.102" x1="67.029" style="fill:none;" /><ns0:line y2="-38.97" y1="-38.97" x2="37.029" x1="67.029" style="fill:none;" /><ns0:line y2="-42.47" y1="-42.47" x2="39.0497" x1="65.0083" style="fill:none;" /><ns0:line y2="-28.878" y1="-58.716" x2="114.51" x1="111.375" style="fill:none;" /><ns0:line y2="-90.933" y1="-90.933" x2="37.029" x1="67.029" style="fill:none;" /><ns0:line y2="-28.878" y1="-16.677" x2="114.51" x1="87.102" style="fill:none;" /><ns0:line y2="-64.953" y1="-38.97" x2="22.029" x1="37.029" style="fill:none;" /><ns0:line y2="-13.878" y1="-28.878" x2="140.49" x1="114.51" style="fill:none;" /><ns0:line y2="-64.953" y1="-90.933" x2="22.029" x1="37.029" style="fill:none;" /><ns0:line y2="-64.9529" y1="-87.433" x2="26.0705" x1="39.0497" style="fill:none;" /><ns0:line y2="15.957" y1="-13.878" x2="143.625" x1="140.49" style="fill:none;" /><ns0:line y2="-26.082" y1="-13.878" x2="167.898" x1="140.49" style="fill:none;" /><ns0:line y2="22.194" y1="15.957" x2="172.971" x1="143.625" style="fill:none;" /><ns0:line y2="-3.786" y1="-26.082" x2="187.971" x1="167.898" style="fill:none;" /><ns0:line y2="-3.786" y1="22.194" x2="187.971" x1="172.971" style="fill:none;" /><ns0:line y2="-12.99" y1="-38.97" x2="-67.971" x1="-52.971" style="fill:none;" /><ns0:line y2="-16.49" y1="-38.9701" x2="-69.9917" x1="-57.0125" style="fill:none;" /><ns0:line y2="-64.953" y1="-38.97" x2="-67.971" x1="-52.971" style="fill:none;" /><ns0:line y2="-12.99" y1="-12.99" x2="-97.971" x1="-67.971" style="fill:none;" /><ns0:line y2="-64.953" y1="-64.953" x2="-97.971" x1="-67.971" style="fill:none;" /><ns0:line y2="-61.453" y1="-61.453" x2="-95.9503" x1="-69.9917" style="fill:none;" /><ns0:line y2="-38.97" y1="-12.99" x2="-112.971" x1="-97.971" style="fill:none;" /><ns0:line y2="-38.9701" y1="-16.49" x2="-108.9296" x1="-95.9503" style="fill:none;" /><ns0:line y2="12.99" y1="-12.99" x2="-112.971" x1="-97.971" style="fill:none;" /><ns0:line y2="-38.97" y1="-64.953" x2="-112.971" x1="-97.971" style="fill:none;" /><ns0:line y2="38.97" y1="12.99" x2="-97.971" x1="-112.971" style="fill:none;" /><ns0:line y2="38.9701" y1="16.49" x2="-102.0125" x1="-114.9917" style="fill:none;" /><ns0:line y2="12.99" y1="12.99" x2="-142.971" x1="-112.971" style="fill:none;" /><ns0:line y2="64.953" y1="38.97" x2="-112.971" x1="-97.971" style="fill:none;" /><ns0:line y2="38.97" y1="12.99" x2="-157.971" x1="-142.971" style="fill:none;" /><ns0:line y2="38.9701" y1="16.49" x2="-153.9295" x1="-140.9503" style="fill:none;" /><ns0:line y2="64.953" y1="64.953" x2="-142.971" x1="-112.971" style="fill:none;" /><ns0:line y2="61.453" y1="61.453" x2="-140.9503" x1="-114.9917" style="fill:none;" /><ns0:line y2="64.953" y1="38.97" x2="-142.971" x1="-157.971" style="fill:none;" /></ns0:g><ns0:g transform="translate(202,120)" style="fill:rgb(230,0,0); text-rendering:geometricPrecision; color-rendering:optimizeQuality; image-rendering:optimizeQuality; font-family:'Open Sans'; stroke:rgb(230,0,0); color-interpolation:linearRGB;"><ns0:path style="stroke:none;" d="M137.6055 -78.8593 Q137.6055 -76.7968 136.5664 -75.6171 Q135.5274 -74.4374 133.6836 -74.4374 Q131.793 -74.4374 130.7617 -75.6015 Q129.7305 -76.7656 129.7305 -78.8749 Q129.7305 -80.9687 130.7617 -82.1171 Q131.793 -83.2656 133.6836 -83.2656 Q135.543 -83.2656 136.5742 -82.0937 Q137.6055 -80.9218 137.6055 -78.8593 ZM130.7774 -78.8593 Q130.7774 -77.1249 131.5196 -76.2187 Q132.2617 -75.3124 133.6836 -75.3124 Q135.1055 -75.3124 135.8321 -76.2109 Q136.5586 -77.1093 136.5586 -78.8593 Q136.5586 -80.5937 135.8321 -81.4843 Q135.1055 -82.3749 133.6836 -82.3749 Q132.2617 -82.3749 131.5196 -81.4765 Q130.7774 -80.5781 130.7774 -78.8593 Z" /><ns0:path style="stroke:none;" d="M-4.0335 -65.0233 Q-4.0335 -62.9608 -5.0726 -61.7811 Q-6.1116 -60.6014 -7.9554 -60.6014 Q-9.846 -60.6014 -10.8773 -61.7655 Q-11.9085 -62.9296 -11.9085 -65.0389 Q-11.9085 -67.1327 -10.8773 -68.2811 Q-9.846 -69.4296 -7.9554 -69.4296 Q-6.096 -69.4296 -5.0648 -68.2577 Q-4.0335 -67.0858 -4.0335 -65.0233 ZM-10.8616 -65.0233 Q-10.8616 -63.2889 -10.1194 -62.3827 Q-9.3773 -61.4764 -7.9554 -61.4764 Q-6.5335 -61.4764 -5.8069 -62.3749 Q-5.0804 -63.2733 -5.0804 -65.0233 Q-5.0804 -66.7577 -5.8069 -67.6483 Q-6.5335 -68.5389 -7.9554 -68.5389 Q-9.3773 -68.5389 -10.1194 -67.6405 Q-10.8616 -66.7421 -10.8616 -65.0233 Z" /></ns0:g><ns0:g transform="translate(202,120)" style="stroke-linecap:butt; text-rendering:geometricPrecision; color-rendering:optimizeQuality; image-rendering:optimizeQuality; font-family:'Open Sans'; color-interpolation:linearRGB; stroke-miterlimit:5;"><ns0:path style="fill:none;" d="M-22.721 -39.403 L-22.971 -38.97 L-23.471 -38.97" /><ns0:path style="fill:none;" d="M-158.471 90.933 L-157.971 90.933 L-157.721 90.5" /><ns0:path style="fill:rgb(230,0,0); stroke:none;" d="M-184.0335 90.8627 Q-184.0335 92.9252 -185.0726 94.1049 Q-186.1116 95.2846 -187.9554 95.2846 Q-189.846 95.2846 -190.8772 94.1205 Q-191.9085 92.9564 -191.9085 90.8471 Q-191.9085 88.7533 -190.8772 87.6049 Q-189.846 86.4564 -187.9554 86.4564 Q-186.096 86.4564 -185.0647 87.6283 Q-184.0335 88.8002 -184.0335 90.8627 ZM-190.8616 90.8627 Q-190.8616 92.5971 -190.1194 93.5033 Q-189.3772 94.4096 -187.9554 94.4096 Q-186.5335 94.4096 -185.8069 93.5111 Q-185.0804 92.6127 -185.0804 90.8627 Q-185.0804 89.1283 -185.8069 88.2377 Q-186.5335 87.3471 -187.9554 87.3471 Q-189.3772 87.3471 -190.1194 88.2455 Q-190.8616 89.1439 -190.8616 90.8627 Z" /><ns0:path style="fill:rgb(230,0,0); stroke:none;" d="M-192.9085 95.1596 L-193.9085 95.1596 L-193.9085 91.1283 L-198.4241 91.1283 L-198.4241 95.1596 L-199.4241 95.1596 L-199.4241 86.5971 L-198.4241 86.5971 L-198.4241 90.2377 L-193.9085 90.2377 L-193.9085 86.5971 L-192.9085 86.5971 L-192.9085 95.1596 Z" /><ns0:path style="fill:rgb(230,0,0); stroke:none;" d="M-139.0335 116.8427 Q-139.0335 118.9052 -140.0726 120.0849 Q-141.1116 121.2646 -142.9554 121.2646 Q-144.846 121.2646 -145.8772 120.1005 Q-146.9085 118.9364 -146.9085 116.8271 Q-146.9085 114.7333 -145.8772 113.5849 Q-144.846 112.4364 -142.9554 112.4364 Q-141.096 112.4364 -140.0647 113.6083 Q-139.0335 114.7802 -139.0335 116.8427 ZM-145.8616 116.8427 Q-145.8616 118.5771 -145.1194 119.4833 Q-144.3772 120.3896 -142.9554 120.3896 Q-141.5335 120.3896 -140.8069 119.4911 Q-140.0804 118.5927 -140.0804 116.8427 Q-140.0804 115.1083 -140.8069 114.2177 Q-141.5335 113.3271 -142.9554 113.3271 Q-144.3772 113.3271 -145.1194 114.2255 Q-145.8616 115.1239 -145.8616 116.8427 Z" /><ns0:path style="fill:none;" d="M81.779 -65.386 L82.029 -64.953 L82.5181 -64.8491" /><ns0:path style="fill:none;" d="M66.529 -38.97 L67.029 -38.97 L67.279 -39.403" /><ns0:path style="fill:none;" d="M110.8859 -58.82 L111.375 -58.716 L111.4272 -58.2187" /><ns0:path style="fill:none;" d="M67.279 -90.5 L67.029 -90.933 L67.279 -91.366" /><ns0:path style="fill:none;" d="M86.7674 -17.0486 L87.102 -16.677 L87.5588 -16.8803" /><ns0:path style="fill:none;" d="M37.529 -38.97 L37.029 -38.97 L36.779 -39.403" /><ns0:path style="fill:none;" d="M36.779 -90.5 L37.029 -90.933 L37.529 -90.933" /><ns0:path style="fill:none;" d="M22.279 -65.386 L22.029 -64.953 L21.529 -64.953" /><ns0:path style="fill:none;" d="M143.5728 15.4597 L143.625 15.957 L144.1141 16.0609" /><ns0:path style="fill:none;" d="M167.4412 -25.8786 L167.898 -26.082 L168.2325 -25.7104" /><ns0:path style="fill:none;" d="M172.4819 22.0901 L172.971 22.194 L173.221 21.761" /><ns0:path style="fill:none;" d="M187.6364 -4.1576 L187.971 -3.786 L187.721 -3.353" /><ns0:path style="fill:none;" d="M-53.221 -38.537 L-52.971 -38.97 L-53.221 -39.403" /><ns0:path style="fill:none;" d="M-67.721 -13.423 L-67.971 -12.99 L-68.471 -12.99" /><ns0:path style="fill:none;" d="M-67.721 -64.52 L-67.971 -64.953 L-68.471 -64.953" /><ns0:path style="fill:none;" d="M-98.221 -13.423 L-97.971 -12.99 L-97.471 -12.99" /><ns0:path style="fill:none;" d="M-97.471 -64.953 L-97.971 -64.953 L-98.221 -64.52" /><ns0:path style="fill:none;" d="M-112.721 -38.537 L-112.971 -38.97 L-112.721 -39.403" /><ns0:path style="fill:none;" d="M-112.721 13.423 L-112.971 12.99 L-112.721 12.557" /><ns0:path style="fill:none;" d="M-98.221 38.537 L-97.971 38.97 L-98.221 39.403" /><ns0:path style="fill:none;" d="M-142.471 12.99 L-142.971 12.99 L-143.221 13.423" /><ns0:path style="fill:none;" d="M-112.721 64.52 L-112.971 64.953 L-113.471 64.953" /><ns0:path style="fill:none;" d="M-157.721 38.537 L-157.971 38.97 L-157.721 39.403" /><ns0:path style="fill:none;" d="M-142.471 64.953 L-142.971 64.953 L-143.221 65.386" /></ns0:g></ns0:g></ns0:svg></ns0:svg></ns0:svg></ns0:svg></g></svg>