<svg xmlns:ns0="http://www.w3.org/2000/svg" xmlns="http://www.w3.org/2000/svg"><g transform="translate(0, 0)"><ns0:svg width="247" viewBox="0 0 247 163" style="fill-opacity:1; color-rendering:auto; color-interpolation:auto; text-rendering:auto; stroke:black; stroke-linecap:square; stroke-miterlimit:10; shape-rendering:auto; stroke-opacity:1; fill:black; stroke-dasharray:none; font-weight:normal; stroke-width:1; font-family:'Open Sans'; font-style:normal; stroke-linejoin:miter; font-size:12; stroke-dashoffset:0; image-rendering:auto;" height="163" class="cas-substance-image"><ns0:svg class="cas-substance-single-component"><ns0:rect y="0" x="0" width="247" stroke="none" ry="7" rx="7" height="163" fill="white" class="cas-substance-group" /><ns0:svg y="0" x="0" width="247" viewBox="0 0 247 163" style="fill:black;" height="163" class="cas-substance-single-component-image"><ns0:svg><ns0:g><ns0:g transform="translate(124,81)" style="text-rendering:geometricPrecision; color-rendering:optimizeQuality; color-interpolation:linearRGB; stroke-linecap:butt; image-rendering:optimizeQuality;"><ns0:line y2="0" y1="0" x2="-54.6484" x1="-30" style="fill:none;" /><ns0:line y2="-19.457" y1="1.75" x2="-16.7454" x1="-28.9896" style="fill:none;" /><ns0:line y2="-21.2071" y1="-0" x2="-19.7765" x1="-32.0207" style="fill:none;" /><ns0:line y2="25.98" y1="0" x2="-15" x1="-30" style="fill:none;" /><ns0:line y2="-25.98" y1="-6.1383" x2="-75" x1="-63.544" style="fill:none;" /><ns0:line y2="0" y1="0" x2="54.6484" x1="30" style="fill:none;" /><ns0:line y2="-21.2193" y1="-0" x2="19.7694" x1="32.0207" style="fill:none;" /><ns0:line y2="-19.4693" y1="1.75" x2="16.7383" x1="28.9896" style="fill:none;" /><ns0:line y2="25.98" y1="0" x2="15" x1="30" style="fill:none;" /><ns0:line y2="-25.98" y1="-6.1383" x2="75" x1="63.544" style="fill:none;" /><ns0:line y2="25.98" y1="25.98" x2="15" x1="-15" style="fill:none;" /><ns0:line y2="29.48" y1="29.48" x2="12.9793" x1="-12.9793" style="fill:none;" /><ns0:line y2="51.963" y1="25.98" x2="-30" x1="-15" style="fill:none;" /><ns0:line y2="51.963" y1="25.98" x2="30" x1="15" style="fill:none;" /><ns0:line y2="77.943" y1="51.963" x2="-15" x1="-30" style="fill:none;" /><ns0:line y2="74.443" y1="51.963" x2="-12.9793" x1="-25.9585" style="fill:none;" /><ns0:line y2="77.943" y1="51.963" x2="15" x1="30" style="fill:none;" /><ns0:line y2="74.443" y1="51.963" x2="12.9793" x1="25.9585" style="fill:none;" /><ns0:line y2="77.943" y1="77.943" x2="15" x1="-15" style="fill:none;" /><ns0:line y2="-51.963" y1="-25.98" x2="-60" x1="-75" style="fill:none;" /><ns0:line y2="-51.9628" y1="-29.4799" x2="-64.0415" x1="-77.0209" style="fill:none;" /><ns0:line y2="-25.98" y1="-25.98" x2="-105" x1="-75" style="fill:none;" /><ns0:line y2="-77.943" y1="-51.963" x2="-75" x1="-60" style="fill:none;" /><ns0:line y2="-51.963" y1="-25.98" x2="-120" x1="-105" style="fill:none;" /><ns0:line y2="-51.9628" y1="-29.4799" x2="-115.9585" x1="-102.9791" style="fill:none;" /><ns0:line y2="-77.943" y1="-77.943" x2="-105" x1="-75" style="fill:none;" /><ns0:line y2="-74.443" y1="-74.443" x2="-102.9793" x1="-77.0207" style="fill:none;" /><ns0:line y2="-77.943" y1="-51.963" x2="-105" x1="-120" style="fill:none;" /><ns0:line y2="-25.98" y1="-25.98" x2="105" x1="75" style="fill:none;" /><ns0:line y2="-29.48" y1="-29.48" x2="102.9793" x1="77.0207" style="fill:none;" /><ns0:line y2="-51.963" y1="-25.98" x2="60" x1="75" style="fill:none;" /><ns0:line y2="-51.963" y1="-25.98" x2="120" x1="105" style="fill:none;" /><ns0:line y2="-77.943" y1="-51.963" x2="75" x1="60" style="fill:none;" /><ns0:line y2="-74.443" y1="-51.963" x2="77.0207" x1="64.0415" style="fill:none;" /><ns0:line y2="-77.943" y1="-51.963" x2="105" x1="120" style="fill:none;" /><ns0:line y2="-74.443" y1="-51.963" x2="102.9793" x1="115.9585" style="fill:none;" /><ns0:line y2="-77.943" y1="-77.943" x2="105" x1="75" style="fill:none;" /><ns0:path style="fill:none; stroke-miterlimit:5;" d="M-30.5 -0 L-30 0 L-29.75 0.433" /></ns0:g><ns0:g transform="translate(124,81)" style="stroke-linecap:butt; fill:rgb(0,5,255); text-rendering:geometricPrecision; color-rendering:optimizeQuality; image-rendering:optimizeQuality; font-family:'Open Sans'; stroke:rgb(0,5,255); color-interpolation:linearRGB; stroke-miterlimit:5;"><ns0:path style="stroke:none;" d="M-56.6484 4.1562 L-57.7891 4.1562 L-62.4766 -3.0312 L-62.5234 -3.0312 Q-62.4297 -1.7656 -62.4297 -0.7188 L-62.4297 4.1562 L-63.3516 4.1562 L-63.3516 -4.4062 L-62.2266 -4.4062 L-57.5547 2.75 L-57.5078 2.75 Q-57.5078 2.5938 -57.5547 1.7344 Q-57.6016 0.875 -57.5859 0.5 L-57.5859 -4.4062 L-56.6484 -4.4062 L-56.6484 4.1562 Z" /><ns0:path style="stroke:none;" d="M-56.7422 13.7188 L-57.7422 13.7188 L-57.7422 9.6875 L-62.2578 9.6875 L-62.2578 13.7188 L-63.2578 13.7188 L-63.2578 5.1562 L-62.2578 5.1562 L-62.2578 8.7969 L-57.7422 8.7969 L-57.7422 5.1562 L-56.7422 5.1562 L-56.7422 13.7188 Z" /><ns0:path style="fill:rgb(230,0,0); stroke:none;" d="M-11.0625 -26.0503 Q-11.0625 -23.9878 -12.1016 -22.8081 Q-13.1406 -21.6284 -14.9844 -21.6284 Q-16.875 -21.6284 -17.9062 -22.7925 Q-18.9375 -23.9566 -18.9375 -26.0659 Q-18.9375 -28.1597 -17.9062 -29.3081 Q-16.875 -30.4566 -14.9844 -30.4566 Q-13.125 -30.4566 -12.0938 -29.2847 Q-11.0625 -28.1128 -11.0625 -26.0503 ZM-17.8906 -26.0503 Q-17.8906 -24.3159 -17.1484 -23.4097 Q-16.4062 -22.5034 -14.9844 -22.5034 Q-13.5625 -22.5034 -12.8359 -23.4019 Q-12.1094 -24.3003 -12.1094 -26.0503 Q-12.1094 -27.7847 -12.8359 -28.6753 Q-13.5625 -29.5659 -14.9844 -29.5659 Q-16.4062 -29.5659 -17.1484 -28.6675 Q-17.8906 -27.7691 -17.8906 -26.0503 Z" /><ns0:path style="fill:none; stroke:black;" d="M30.5 0 L30 0 L29.75 0.433" /><ns0:path style="stroke:none;" d="M63.3516 4.1562 L62.2109 4.1562 L57.5234 -3.0312 L57.4766 -3.0312 Q57.5703 -1.7656 57.5703 -0.7188 L57.5703 4.1562 L56.6484 4.1562 L56.6484 -4.4062 L57.7734 -4.4062 L62.4453 2.75 L62.4922 2.75 Q62.4922 2.5938 62.4453 1.7344 Q62.3984 0.875 62.4141 0.5 L62.4141 -4.4062 L63.3516 -4.4062 L63.3516 4.1562 Z" /><ns0:path style="stroke:none;" d="M63.2578 13.7188 L62.2578 13.7188 L62.2578 9.6875 L57.7422 9.6875 L57.7422 13.7188 L56.7422 13.7188 L56.7422 5.1562 L57.7422 5.1562 L57.7422 8.7969 L62.2578 8.7969 L62.2578 5.1562 L63.2578 5.1562 L63.2578 13.7188 Z" /><ns0:path style="fill:rgb(230,0,0); stroke:none;" d="M18.9375 -26.0503 Q18.9375 -23.9878 17.8984 -22.8081 Q16.8594 -21.6284 15.0156 -21.6284 Q13.125 -21.6284 12.0938 -22.7925 Q11.0625 -23.9566 11.0625 -26.0659 Q11.0625 -28.1597 12.0938 -29.3081 Q13.125 -30.4566 15.0156 -30.4566 Q16.875 -30.4566 17.9062 -29.2847 Q18.9375 -28.1128 18.9375 -26.0503 ZM12.1094 -26.0503 Q12.1094 -24.3159 12.8516 -23.4097 Q13.5938 -22.5034 15.0156 -22.5034 Q16.4375 -22.5034 17.1641 -23.4019 Q17.8906 -24.3003 17.8906 -26.0503 Q17.8906 -27.7847 17.1641 -28.6753 Q16.4375 -29.5659 15.0156 -29.5659 Q13.5938 -29.5659 12.8516 -28.6675 Q12.1094 -27.7691 12.1094 -26.0503 Z" /><ns0:path style="fill:none; stroke:black;" d="M-14.5 25.98 L-15 25.98 L-15.25 25.547" /><ns0:path style="fill:none; stroke:black;" d="M14.5 25.98 L15 25.98 L15.25 25.547" /><ns0:path style="fill:none; stroke:black;" d="M-29.75 51.53 L-30 51.963 L-29.75 52.396" /><ns0:path style="fill:none; stroke:black;" d="M29.75 51.53 L30 51.963 L29.75 52.396" /><ns0:path style="fill:none; stroke:black;" d="M-15.25 77.51 L-15 77.943 L-14.5 77.943" /><ns0:path style="fill:none; stroke:black;" d="M15.25 77.51 L15 77.943 L14.5 77.943" /><ns0:path style="fill:none; stroke:black;" d="M-74.75 -26.413 L-75 -25.98 L-74.75 -25.547" /><ns0:path style="fill:none; stroke:black;" d="M-60.25 -51.53 L-60 -51.963 L-60.25 -52.396" /><ns0:path style="fill:none; stroke:black;" d="M-104.5 -25.98 L-105 -25.98 L-105.25 -26.413" /><ns0:path style="fill:none; stroke:black;" d="M-74.75 -77.51 L-75 -77.943 L-75.5 -77.943" /><ns0:path style="fill:none; stroke:black;" d="M-119.75 -51.53 L-120 -51.963 L-119.75 -52.396" /><ns0:path style="fill:none; stroke:black;" d="M-104.5 -77.943 L-105 -77.943 L-105.25 -77.51" /><ns0:path style="fill:none; stroke:black;" d="M75.5 -25.98 L75 -25.98 L74.75 -25.547" /><ns0:path style="fill:none; stroke:black;" d="M104.5 -25.98 L105 -25.98 L105.25 -26.413" /><ns0:path style="fill:none; stroke:black;" d="M60.25 -51.53 L60 -51.963 L60.25 -52.396" /><ns0:path style="fill:none; stroke:black;" d="M119.75 -51.53 L120 -51.963 L119.75 -52.396" /><ns0:path style="fill:none; stroke:black;" d="M74.75 -77.51 L75 -77.943 L75.5 -77.943" /><ns0:path style="fill:none; stroke:black;" d="M105.25 -77.51 L105 -77.943 L104.5 -77.943" /></ns0:g></ns0:g></ns0:svg></ns0:svg></ns0:svg></ns0:svg></g></svg>