<svg width="162" viewBox="0 0 162 82" style="fill-opacity:1; color-rendering:auto; color-interpolation:auto; text-rendering:auto; stroke:black; stroke-linecap:square; stroke-miterlimit:10; shape-rendering:auto; stroke-opacity:1; fill:black; stroke-dasharray:none; font-weight:normal; stroke-width:1; font-family:'Open Sans'; font-style:normal; stroke-linejoin:miter; font-size:12; stroke-dashoffset:0; image-rendering:auto;" height="82" class="cas-substance-image" xmlns:xlink="http://www.w3.org/1999/xlink" xmlns="http://www.w3.org/2000/svg"><svg class="cas-substance-single-component"><rect y="0" x="0" width="162" stroke="none" ry="7" rx="7" height="82" fill="white" class="cas-substance-group"/><svg y="0" x="0" width="162" viewBox="0 0 162 82" style="fill:black;" height="82" class="cas-substance-single-component-image"><svg><g><g transform="translate(81,39)" style="text-rendering:geometricPrecision; color-rendering:optimizeQuality; color-interpolation:linearRGB; stroke-linecap:butt; image-rendering:optimizeQuality;"><line y2="5.49" y1="-9.51" x2="25.98" x1="0" style="fill:none;"/><line y2="5.49" y1="-9.51" x2="-25.98" x1="0" style="fill:none;"/><line y2="-9.51" y1="5.49" x2="51.963" x1="25.98" style="fill:none;"/><line y2="29.0134" y1="4.4796" x2="24.23" x1="24.23" style="fill:none;"/><line y2="29.0134" y1="4.4797" x2="27.73" x1="27.73" style="fill:none;"/><line y2="-9.51" y1="5.49" x2="-51.963" x1="-25.98" style="fill:none;"/><line y2="29.0134" y1="4.4797" x2="-27.73" x1="-27.73" style="fill:none;"/><line y2="29.0134" y1="4.4796" x2="-24.23" x1="-24.23" style="fill:none;"/><line y2="16.47" y1="-9.51" x2="66.963" x1="51.963" style="fill:none;"/><line y2="-24.51" y1="-9.51" x2="77.943" x1="51.963" style="fill:none;"/><line y2="-35.49" y1="-9.51" x2="36.963" x1="51.963" style="fill:none;"/><line y2="16.47" y1="-9.51" x2="-66.963" x1="-51.963" style="fill:none;"/><line y2="-24.51" y1="-9.51" x2="-77.943" x1="-51.963" style="fill:none;"/><line y2="-35.49" y1="-9.51" x2="-36.963" x1="-51.963" style="fill:none;"/><path style="fill:none; stroke-miterlimit:5;" d="M0.433 -9.26 L0 -9.51 L-0.433 -9.26"/><path style="fill:none; stroke-miterlimit:5;" d="M25.547 5.24 L25.98 5.49 L26.413 5.24"/><path style="fill:none; stroke-miterlimit:5;" d="M-25.547 5.24 L-25.98 5.49 L-26.413 5.24"/></g><g transform="translate(81,39)" style="stroke-linecap:butt; fill:rgb(230,0,0); text-rendering:geometricPrecision; color-rendering:optimizeQuality; image-rendering:optimizeQuality; font-family:'Open Sans'; stroke:rgb(230,0,0); color-interpolation:linearRGB; stroke-miterlimit:5;"><path style="stroke:none;" d="M29.9175 35.4197 Q29.9175 37.4822 28.8784 38.6619 Q27.8394 39.8416 25.9956 39.8416 Q24.105 39.8416 23.0737 38.6775 Q22.0425 37.5134 22.0425 35.4041 Q22.0425 33.3103 23.0737 32.1619 Q24.105 31.0134 25.9956 31.0134 Q27.855 31.0134 28.8862 32.1853 Q29.9175 33.3572 29.9175 35.4197 ZM23.0894 35.4197 Q23.0894 37.1541 23.8316 38.0603 Q24.5737 38.9666 25.9956 38.9666 Q27.4175 38.9666 28.1441 38.0681 Q28.8706 37.1697 28.8706 35.4197 Q28.8706 33.6853 28.1441 32.7947 Q27.4175 31.9041 25.9956 31.9041 Q24.5737 31.9041 23.8316 32.8025 Q23.0894 33.7009 23.0894 35.4197 Z"/><path style="stroke:none;" d="M-22.0425 35.4197 Q-22.0425 37.4822 -23.0816 38.6619 Q-24.1206 39.8416 -25.9644 39.8416 Q-27.855 39.8416 -28.8862 38.6775 Q-29.9175 37.5134 -29.9175 35.4041 Q-29.9175 33.3103 -28.8862 32.1619 Q-27.855 31.0134 -25.9644 31.0134 Q-24.105 31.0134 -23.0737 32.1853 Q-22.0425 33.3572 -22.0425 35.4197 ZM-28.8706 35.4197 Q-28.8706 37.1541 -28.1284 38.0603 Q-27.3862 38.9666 -25.9644 38.9666 Q-24.5425 38.9666 -23.8159 38.0681 Q-23.0894 37.1697 -23.0894 35.4197 Q-23.0894 33.6853 -23.8159 32.7947 Q-24.5425 31.9041 -25.9644 31.9041 Q-27.3862 31.9041 -28.1284 32.8025 Q-28.8706 33.7009 -28.8706 35.4197 Z"/></g></g></svg></svg></svg></svg>