<svg width="100" viewBox="0 0 100 15" style="fill-opacity:1; color-rendering:auto; color-interpolation:auto; text-rendering:auto; stroke:black; stroke-linecap:square; stroke-miterlimit:10; shape-rendering:auto; stroke-opacity:1; fill:black; stroke-dasharray:none; font-weight:normal; stroke-width:1; font-family:'Open Sans'; font-style:normal; stroke-linejoin:miter; font-size:12; stroke-dashoffset:0; image-rendering:auto;" height="15" class="cas-substance-image" xmlns:xlink="http://www.w3.org/1999/xlink" xmlns="http://www.w3.org/2000/svg"><svg class="cas-substance-single-component"><rect y="0" x="0" width="100" stroke="none" ry="7" rx="7" height="15" fill="white" class="cas-substance-group"/><svg y="0" x="13" width="73" viewBox="0 0 73 15" style="fill:black;" height="15" class="cas-substance-single-component-image"><svg><g><g transform="translate(37,7)" style="text-rendering:geometricPrecision; color-rendering:optimizeQuality; color-interpolation:linearRGB; stroke-linecap:butt; image-rendering:optimizeQuality;"><line y2="-1.75" y1="-1.75" x2="-24.0625" x1="-5.2422" style="fill:none;"/><line y2="1.75" y1="1.75" x2="-24.0625" x1="-5.2422" style="fill:none;"/><line y2="1.75" y1="1.75" x2="25.3567" x1="4.8546" style="fill:none;"/><line y2="-1.75" y1="-1.75" x2="25.3567" x1="4.8546" style="fill:none;"/><path style="stroke-linecap:square; stroke:none;" d="M0.8672 -3.5781 Q-0.5391 -3.5781 -1.3594 -2.6406 Q-2.1797 -1.7031 -2.1797 -0.0625 Q-2.1797 1.6094 -1.3906 2.5312 Q-0.6016 3.4531 0.8516 3.4531 Q1.7578 3.4531 2.8984 3.125 L2.8984 4 Q2.0078 4.3438 0.7109 4.3438 Q-1.1797 4.3438 -2.2109 3.1875 Q-3.2422 2.0312 -3.2422 -0.0781 Q-3.2422 -1.4062 -2.75 -2.3984 Q-2.2578 -3.3906 -1.3203 -3.9297 Q-0.3828 -4.4688 0.8828 -4.4688 Q2.2266 -4.4688 3.2422 -3.9844 L2.8203 -3.125 Q1.8359 -3.5781 0.8672 -3.5781 Z"/></g><g transform="translate(37,7)" style="fill:rgb(230,0,0); text-rendering:geometricPrecision; color-rendering:optimizeQuality; image-rendering:optimizeQuality; font-family:'Open Sans'; stroke:rgb(230,0,0); color-interpolation:linearRGB;"><path style="stroke:none;" d="M-26.0625 -0.0703 Q-26.0625 1.9922 -27.1016 3.1719 Q-28.1406 4.3516 -29.9844 4.3516 Q-31.875 4.3516 -32.9062 3.1875 Q-33.9375 2.0234 -33.9375 -0.0859 Q-33.9375 -2.1797 -32.9062 -3.3281 Q-31.875 -4.4766 -29.9844 -4.4766 Q-28.125 -4.4766 -27.0938 -3.3047 Q-26.0625 -2.1328 -26.0625 -0.0703 ZM-32.8906 -0.0703 Q-32.8906 1.6641 -32.1484 2.5703 Q-31.4062 3.4766 -29.9844 3.4766 Q-28.5625 3.4766 -27.8359 2.5781 Q-27.1094 1.6797 -27.1094 -0.0703 Q-27.1094 -1.8047 -27.8359 -2.6953 Q-28.5625 -3.5859 -29.9844 -3.5859 Q-31.4062 -3.5859 -32.1484 -2.6875 Q-32.8906 -1.7891 -32.8906 -0.0703 Z"/><path style="fill:rgb(148,108,0); stroke:none;" d="M32.6953 1.9375 Q32.6953 3.0625 31.875 3.7031 Q31.0547 4.3438 29.6484 4.3438 Q28.1172 4.3438 27.3047 3.9375 L27.3047 2.9844 Q27.8359 3.2031 28.4531 3.3359 Q29.0703 3.4688 29.6797 3.4688 Q30.6797 3.4688 31.1797 3.0859 Q31.6797 2.7031 31.6797 2.0312 Q31.6797 1.5938 31.5 1.3047 Q31.3203 1.0156 30.9062 0.7734 Q30.4922 0.5312 29.6328 0.2344 Q28.4453 -0.1875 27.9297 -0.7734 Q27.4141 -1.3594 27.4141 -2.3125 Q27.4141 -3.2969 28.1562 -3.8828 Q28.8984 -4.4688 30.1328 -4.4688 Q31.3984 -4.4688 32.4766 -4 L32.1641 -3.1406 Q31.1016 -3.5781 30.1016 -3.5781 Q29.3047 -3.5781 28.8594 -3.2422 Q28.4141 -2.9062 28.4141 -2.2969 Q28.4141 -1.8594 28.5781 -1.5703 Q28.7422 -1.2812 29.1328 -1.0469 Q29.5234 -0.8125 30.3359 -0.5156 Q31.6797 -0.0469 32.1875 0.5078 Q32.6953 1.0625 32.6953 1.9375 Z"/></g></g></svg></svg></svg></svg>