<svg width="145" viewBox="0 0 145 104" style="fill-opacity:1; color-rendering:auto; color-interpolation:auto; text-rendering:auto; stroke:black; stroke-linecap:square; stroke-miterlimit:10; shape-rendering:auto; stroke-opacity:1; fill:black; stroke-dasharray:none; font-weight:normal; stroke-width:1; font-family:'Open Sans'; font-style:normal; stroke-linejoin:miter; font-size:12; stroke-dashoffset:0; image-rendering:auto;" height="104" class="cas-substance-image" xmlns:xlink="http://www.w3.org/1999/xlink" xmlns="http://www.w3.org/2000/svg"><svg class="cas-substance-single-component"><rect y="0" x="0" width="145" stroke="none" ry="7" rx="7" height="104" fill="white" class="cas-substance-group"/><svg y="0" x="0" width="145" viewBox="0 0 145 104" style="fill:black;" height="104" class="cas-substance-single-component-image"><svg><g><g transform="translate(72,54)" style="text-rendering:geometricPrecision; color-rendering:optimizeQuality; color-interpolation:linearRGB; stroke-linecap:butt; image-rendering:optimizeQuality;"><line y2="2.2486" y1="-9.51" x2="37.3759" x1="17.01" style="fill:none;"/><line y2="-33.1584" y1="-8.4996" x2="18.76" x1="18.76" style="fill:none;"/><line y2="-33.1584" y1="-8.4996" x2="15.26" x1="15.26" style="fill:none;"/><line y2="5.49" y1="-9.51" x2="-8.97" x1="17.01" style="fill:none;"/><line y2="-9.51" y1="2.264" x2="68.97" x1="48.5775" style="fill:none;"/><line y2="-20.49" y1="-20.49" x2="-48.0325" x1="-23.97" style="fill:none;"/><line y2="-39.947" y1="-18.74" x2="-10.7154" x1="-22.9596" style="fill:none;"/><line y2="-41.6971" y1="-20.49" x2="-13.7465" x1="-25.9907" style="fill:none;"/><line y2="5.49" y1="-20.49" x2="-8.97" x1="-23.97" style="fill:none;"/><line y2="-46.47" y1="-26.2176" x2="-68.97" x1="-57.2769" style="fill:none;"/><line y2="31.47" y1="5.49" x2="6.03" x1="-8.97" style="fill:none;"/><line y2="20.49" y1="5.49" x2="-34.953" x1="-8.97" style="fill:none;"/><line y2="46.47" y1="31.47" x2="-19.953" x1="6.03" style="fill:none;"/><line y2="46.47" y1="20.49" x2="-19.953" x1="-34.953" style="fill:none;"/><path style="fill:none; stroke-miterlimit:5;" d="M17.443 -9.26 L17.01 -9.51 L16.577 -9.26"/></g><g transform="translate(72,54)" style="stroke-linecap:butt; fill:rgb(230,0,0); text-rendering:geometricPrecision; color-rendering:optimizeQuality; image-rendering:optimizeQuality; font-family:'Open Sans'; stroke:rgb(230,0,0); color-interpolation:linearRGB; stroke-miterlimit:5;"><path style="stroke:none;" d="M46.9275 5.4197 Q46.9275 7.4822 45.8884 8.6619 Q44.8494 9.8416 43.0056 9.8416 Q41.115 9.8416 40.0837 8.6775 Q39.0525 7.5134 39.0525 5.4041 Q39.0525 3.3103 40.0837 2.1619 Q41.115 1.0134 43.0056 1.0134 Q44.865 1.0134 45.8962 2.1853 Q46.9275 3.3572 46.9275 5.4197 ZM40.0994 5.4197 Q40.0994 7.1541 40.8416 8.0603 Q41.5837 8.9666 43.0056 8.9666 Q44.4275 8.9666 45.1541 8.0681 Q45.8806 7.1697 45.8806 5.4197 Q45.8806 3.6853 45.1541 2.7947 Q44.4275 1.9041 43.0056 1.9041 Q41.5837 1.9041 40.8416 2.8025 Q40.0994 3.7009 40.0994 5.4197 Z"/><path style="stroke:none;" d="M20.9475 -39.5803 Q20.9475 -37.5178 19.9084 -36.3381 Q18.8694 -35.1584 17.0256 -35.1584 Q15.135 -35.1584 14.1037 -36.3225 Q13.0725 -37.4866 13.0725 -39.5959 Q13.0725 -41.6897 14.1037 -42.8381 Q15.135 -43.9866 17.0256 -43.9866 Q18.885 -43.9866 19.9162 -42.8147 Q20.9475 -41.6428 20.9475 -39.5803 ZM14.1194 -39.5803 Q14.1194 -37.8459 14.8616 -36.9397 Q15.6037 -36.0334 17.0256 -36.0334 Q18.4475 -36.0334 19.1741 -36.9319 Q19.9006 -37.8303 19.9006 -39.5803 Q19.9006 -41.3147 19.1741 -42.2053 Q18.4475 -43.0959 17.0256 -43.0959 Q15.6037 -43.0959 14.8616 -42.1975 Q14.1194 -41.2991 14.1194 -39.5803 Z"/><path style="fill:none; stroke:black;" d="M-24.47 -20.49 L-23.97 -20.49 L-23.72 -20.057"/><path style="stroke:none;" d="M-50.0325 -20.5603 Q-50.0325 -18.4978 -51.0716 -17.3181 Q-52.1106 -16.1384 -53.9544 -16.1384 Q-55.845 -16.1384 -56.8763 -17.3025 Q-57.9075 -18.4666 -57.9075 -20.5759 Q-57.9075 -22.6697 -56.8763 -23.8181 Q-55.845 -24.9666 -53.9544 -24.9666 Q-52.095 -24.9666 -51.0638 -23.7947 Q-50.0325 -22.6228 -50.0325 -20.5603 ZM-56.8606 -20.5603 Q-56.8606 -18.8259 -56.1184 -17.9197 Q-55.3763 -17.0134 -53.9544 -17.0134 Q-52.5325 -17.0134 -51.8059 -17.9119 Q-51.0794 -18.8103 -51.0794 -20.5603 Q-51.0794 -22.2947 -51.8059 -23.1853 Q-52.5325 -24.0759 -53.9544 -24.0759 Q-55.3763 -24.0759 -56.1184 -23.1775 Q-56.8606 -22.2791 -56.8606 -20.5603 Z"/><path style="stroke:none;" d="M-5.0325 -46.5403 Q-5.0325 -44.4778 -6.0716 -43.2981 Q-7.1106 -42.1184 -8.9544 -42.1184 Q-10.845 -42.1184 -11.8763 -43.2825 Q-12.9075 -44.4466 -12.9075 -46.5559 Q-12.9075 -48.6497 -11.8763 -49.7981 Q-10.845 -50.9466 -8.9544 -50.9466 Q-7.095 -50.9466 -6.0638 -49.7747 Q-5.0325 -48.6028 -5.0325 -46.5403 ZM-11.8606 -46.5403 Q-11.8606 -44.8059 -11.1184 -43.8997 Q-10.3763 -42.9934 -8.9544 -42.9934 Q-7.5325 -42.9934 -6.8059 -43.8919 Q-6.0794 -44.7903 -6.0794 -46.5403 Q-6.0794 -48.2747 -6.8059 -49.1653 Q-7.5325 -50.0559 -8.9544 -50.0559 Q-10.3763 -50.0559 -11.1184 -49.1575 Q-11.8606 -48.2591 -11.8606 -46.5403 Z"/><path style="fill:none; stroke:black;" d="M5.78 31.037 L6.03 31.47 L5.597 31.72"/><path style="fill:none; stroke:black;" d="M-34.52 20.24 L-34.953 20.49 L-34.703 20.923"/><path style="fill:none; stroke:black;" d="M-19.52 46.22 L-19.953 46.47 L-20.203 46.037"/></g></g></svg></svg></svg></svg>