<svg width="464" viewBox="0 0 464 392" style="fill-opacity:1; color-rendering:auto; color-interpolation:auto; text-rendering:auto; stroke:black; stroke-linecap:square; stroke-miterlimit:10; shape-rendering:auto; stroke-opacity:1; fill:black; stroke-dasharray:none; font-weight:normal; stroke-width:1; font-family:'Open Sans'; font-style:normal; stroke-linejoin:miter; font-size:12; stroke-dashoffset:0; image-rendering:auto;" height="392" class="cas-substance-image" xmlns:xlink="http://www.w3.org/1999/xlink" xmlns="http://www.w3.org/2000/svg"><svg class="cas-substance-single-component"><rect y="0" x="0" width="464" stroke="none" ry="7" rx="7" height="392" fill="white" class="cas-substance-group"/><svg y="0" x="0" width="464" viewBox="0 0 464 392" style="fill:black;" height="392" class="cas-substance-single-component-image"><svg><g><g transform="translate(232,196)" style="text-rendering:geometricPrecision; color-rendering:optimizeQuality; color-interpolation:linearRGB; stroke-linecap:butt; image-rendering:optimizeQuality;"><line y2="-99.108" y1="-95.973" x2="-97.311" x1="-67.476" style="fill:none;"/><path style="stroke:none;" d="M-56.4342 -116.1276 L-56.9361 -115.2567 L-56.9361 -115.2567 L-52.3947 -111.9529 L-51.7215 -112.6993 L-56.4342 -116.1276 ZM-57.94 -113.5148 L-58.4419 -112.6439 L-58.4419 -112.6439 L-54.4141 -109.7137 L-53.741 -110.4601 L-53.741 -110.4601 L-57.94 -113.5148 ZM-59.4458 -110.902 L-59.9478 -110.0311 L-59.9478 -110.0311 L-56.4336 -107.4745 L-56.4336 -107.4745 L-55.7604 -108.2209 L-59.4458 -110.902 ZM-60.9517 -108.2892 L-61.4536 -107.4183 L-61.4536 -107.4183 L-58.453 -105.2354 L-57.7798 -105.9818 L-57.7798 -105.9818 L-60.9517 -108.2892 ZM-62.4575 -105.6764 L-62.9595 -104.8055 L-60.4724 -102.9962 L-60.4724 -102.9962 L-59.7993 -103.7426 L-59.7993 -103.7426 L-62.4575 -105.6764 ZM-63.9633 -103.0636 L-64.4653 -102.1927 L-64.4653 -102.1927 L-62.4919 -100.757 L-62.4919 -100.757 L-61.8187 -101.5034 L-61.8187 -101.5034 L-63.9633 -103.0636 ZM-65.4692 -100.4508 L-65.9711 -99.5799 L-64.5113 -98.5179 L-64.5113 -98.5179 L-63.8381 -99.2643 L-63.8381 -99.2643 L-65.4692 -100.4508 ZM-66.975 -97.838 L-67.477 -96.9671 L-67.477 -96.9671 L-66.5307 -96.2787 L-66.5307 -96.2787 L-65.8576 -97.0251 L-65.8576 -97.0251 L-66.975 -97.838 Z"/><line y2="-68.565" y1="-95.973" x2="-55.272" x1="-67.476" style="fill:none;"/><line y2="-126.513" y1="-99.108" x2="-109.512" x1="-97.311" style="fill:none;"/><path style="stroke:none;" d="M-98.2292 -98.8327 L-98.9027 -98.0865 L-98.9027 -98.0865 L-97.7911 -97.2779 L-97.2895 -98.149 L-97.2895 -98.149 L-98.2292 -98.8327 ZM-100.2496 -96.5942 L-100.923 -95.848 L-100.923 -95.848 L-99.2961 -94.6644 L-98.7944 -95.5356 L-98.7944 -95.5356 L-100.2496 -96.5942 ZM-102.2699 -94.3556 L-102.9433 -93.6095 L-102.9433 -93.6095 L-100.801 -92.051 L-100.801 -92.051 L-100.2994 -92.9221 L-102.2699 -94.3556 ZM-104.2902 -92.1171 L-104.9636 -91.3709 L-102.306 -89.4376 L-101.8043 -90.3087 L-104.2902 -92.1171 ZM-106.3105 -89.8786 L-106.984 -89.1324 L-106.984 -89.1324 L-103.811 -86.8241 L-103.811 -86.8241 L-103.3093 -87.6953 L-103.3093 -87.6953 L-106.3105 -89.8786 ZM-108.3308 -87.6401 L-109.0043 -86.8939 L-109.0043 -86.8939 L-105.3159 -84.2107 L-104.8142 -85.0818 L-108.3308 -87.6401 ZM-110.3511 -85.4016 L-111.0246 -84.6554 L-106.8209 -81.5972 L-106.8209 -81.5972 L-106.3192 -82.4684 L-110.3511 -85.4016 ZM-112.3715 -83.163 L-113.0449 -82.4169 L-108.3258 -78.9838 L-108.3258 -78.9838 L-107.8242 -79.8549 L-112.3715 -83.163 Z"/><line y2="-129.651" y1="-126.513" x2="-139.347" x1="-109.512" style="fill:none;"/><path style="stroke:none;" d="M-109.1075 -126.2191 L-109.9165 -126.8069 L-98.0626 -147.3748 L-93.2085 -143.848 Z"/><line y2="-150.9366" y1="-129.651" x2="-148.8259" x1="-139.347" style="fill:none;"/><line y2="7.3444" y1="15.0292" x2="-49.4551" x1="-25.8038" style="fill:none;"/><line y2="10.6731" y1="18.3579" x2="-50.5368" x1="-26.8854" style="fill:none;"/><line y2="-70.275" y1="-90.6193" x2="7.362" x1="-4.3841" style="fill:none;"/><line y2="-18.315" y1="2.821" x2="9.3827" x1="-2.8192" style="fill:none;"/><line y2="-20.065" y1="1.0711" x2="6.3516" x1="-5.8503" style="fill:none;"/><line y2="-9.222" y1="-29.1854" x2="-106.098" x1="-118.5728" style="fill:none;"/><line y2="78.813" y1="58.737" x2="-87.387" x1="-65.091" style="fill:none;"/><line y2="67.7763" y1="60.0891" x2="-42.9415" x1="-66.5926" style="fill:none;"/><line y2="64.4477" y1="56.7603" x2="-41.8596" x1="-65.5114" style="fill:none;"/><line y2="29.394" y1="58.737" x2="-71.331" x1="-65.091" style="fill:none;"/><line y2="108.156" y1="78.813" x2="-81.15" x1="-87.387" style="fill:none;"/><line y2="105.4517" y1="80.0619" x2="-78.1466" x1="-83.5434" style="fill:none;"/></g><g transform="translate(232,196)" style="stroke-linecap:butt; font-size:8.4px; fill:gray; text-rendering:geometricPrecision; image-rendering:optimizeQuality; color-rendering:optimizeQuality; font-family:'Open Sans'; font-style:italic; stroke:gray; color-interpolation:linearRGB;"><path style="stroke:none;" d="M-98.1973 96.7277 Q-98.1973 95.3995 -97.7286 94.2745 Q-97.2598 93.1495 -96.2286 92.0714 L-95.6192 92.0714 Q-96.588 93.1339 -97.0723 94.3058 Q-97.5567 95.4777 -97.5567 96.712 Q-97.5567 98.0402 -97.1192 99.0558 L-97.6348 99.0558 Q-98.1973 98.0245 -98.1973 96.7277 ZM-92.9342 97.7902 L-95.7935 97.7902 L-94.5904 92.0714 L-91.7154 92.0714 L-91.8404 92.6808 L-94.0592 92.6808 L-94.4342 94.5089 L-92.3873 94.5089 L-92.4967 95.1027 L-94.5592 95.1027 L-95.0123 97.1964 L-92.7935 97.1964 L-92.9342 97.7902 ZM-89.9026 94.4152 Q-89.9026 95.7433 -90.3792 96.8761 Q-90.8557 98.0089 -91.8714 99.0558 L-92.4807 99.0558 Q-90.5432 96.8995 -90.5432 94.4152 Q-90.5432 93.087 -90.9807 92.0714 L-90.4651 92.0714 Q-89.9026 93.1339 -89.9026 94.4152 Z"/><line y2="128.232" y1="108.156" x2="-103.443" x1="-81.15" style="fill:none; stroke:black;"/><line y2="-70.275" y1="-78.418" x2="37.362" x1="59.7361" style="fill:none; stroke:black;"/><line y2="7.668" y1="7.668" x2="82.362" x1="52.362" style="fill:none; stroke:black;"/><line y2="27.0513" y1="5.9179" x2="39.15" x1="51.3517" style="fill:none; stroke:black;"/><line y2="28.8013" y1="7.668" x2="42.181" x1="54.3827" style="fill:none; stroke:black;"/><line y2="-18.315" y1="7.668" x2="37.362" x1="52.362" style="fill:none; stroke:black;"/><line y2="33.648" y1="7.668" x2="97.362" x1="82.362" style="fill:none; stroke:black;"/><line y2="30.148" y1="7.6679" x2="99.3827" x1="86.4035" style="fill:none; stroke:black;"/><path style="stroke:none;" d="M77.0544 26.8222 Q77.0544 25.494 77.5232 24.369 Q77.9919 23.244 79.0232 22.1659 L79.6326 22.1659 Q78.6638 23.2284 78.1794 24.4003 Q77.6951 25.5722 77.6951 26.8065 Q77.6951 28.1347 78.1326 29.1503 L77.6169 29.1503 Q77.0544 28.119 77.0544 26.8222 ZM82.3176 27.8847 L79.4583 27.8847 L80.6614 22.1659 L83.5364 22.1659 L83.4114 22.7753 L81.1926 22.7753 L80.8176 24.6034 L82.8645 24.6034 L82.7551 25.1972 L80.6926 25.1972 L80.2395 27.2909 L82.4583 27.2909 L82.3176 27.8847 ZM85.3492 24.5097 Q85.3492 25.8378 84.8726 26.9706 Q84.3961 28.1034 83.3804 29.1503 L82.7711 29.1503 Q84.7086 26.994 84.7086 24.5097 Q84.7086 23.1815 84.2711 22.1659 L84.7867 22.1659 Q85.3492 23.2284 85.3492 24.5097 Z"/><line y2="33.648" y1="33.648" x2="127.362" x1="97.362" style="fill:none; stroke:black;"/><line y2="20.124" y1="35.9381" x2="-99.861" x1="-117.4265" style="fill:none; stroke:black;"/><line y2="-44.295" y1="-44.295" x2="52.362" x1="76.4245" style="fill:none; stroke:black;"/><path style="fill:black; stroke:none;" d="M-157.0589 -16.3824 L-158.0491 -16.5216 L-157.2388 -40.2465 L-151.2973 -39.4113 Z"/><path style="fill:black; stroke:none;" d="M54.963 -118.6331 L55.305 -119.5728 L78.5341 -113.7791 L76.4821 -108.1409 Z"/><line y2="81.57" y1="72.672" x2="-192.1031" x1="-170.079" style="fill:none; stroke:black;"/><path style="fill:black; stroke:none;" d="M-166.6183 43.8731 L-166.8354 44.8524 L-166.8354 44.8524 L-165.5139 45.038 L-165.5139 45.038 L-165.4624 44.0355 L-166.6183 43.8731 ZM-167.2697 46.811 L-167.4868 47.7903 L-167.4868 47.7903 L-165.6685 48.0458 L-165.617 47.0432 L-165.617 47.0432 L-167.2697 46.811 ZM-167.921 49.7489 L-168.1381 50.7282 L-168.1381 50.7282 L-165.823 51.0535 L-165.823 51.0535 L-165.7715 50.0509 L-165.7715 50.0509 L-167.921 49.7489 ZM-168.5723 52.6869 L-168.7895 53.6662 L-168.7895 53.6662 L-165.9776 54.0612 L-165.9776 54.0612 L-165.9261 53.0587 L-168.5723 52.6869 ZM-169.2237 55.6248 L-169.4408 56.6041 L-169.4408 56.6041 L-166.1322 57.069 L-166.1322 57.069 L-166.0807 56.0664 L-166.0807 56.0664 L-169.2237 55.6248 ZM-169.875 58.5627 L-170.0921 59.542 L-170.0921 59.542 L-166.2867 60.0767 L-166.2867 60.0767 L-166.2352 59.0741 L-169.875 58.5627 ZM-170.5264 61.5007 L-170.7435 62.48 L-170.7435 62.48 L-166.4413 63.0844 L-166.4413 63.0844 L-166.3898 62.0819 L-166.3898 62.0819 L-170.5264 61.5007 ZM-171.1777 64.4386 L-171.3948 65.4179 L-171.3948 65.4179 L-166.5959 66.0922 L-166.5959 66.0922 L-166.5443 65.0896 L-166.5443 65.0896 L-171.1777 64.4386 ZM-171.829 67.3765 L-172.0462 68.3558 L-166.7504 69.0999 L-166.7504 69.0999 L-166.6989 68.0973 L-166.6989 68.0973 L-171.829 67.3765 ZM-172.4804 70.3145 L-172.6975 71.2938 L-172.6975 71.2938 L-168.2236 71.9224 L-166.8673 71.3744 L-166.8673 71.3744 L-166.8673 71.3744 L-166.8535 71.1051 L-166.8535 71.1051 L-172.4804 70.3145 Z"/><path style="fill:black; stroke:none;" d="M-201.6015 -21.5901 L-205.1826 -17.0013 L-204.3294 -16.4685 L-200.8781 -20.891 L-201.6015 -21.5901 ZM-199.4311 -19.4928 L-202.623 -15.4027 L-201.7698 -14.8699 L-198.7076 -18.7937 L-199.4311 -19.4928 ZM-197.2607 -17.3955 L-200.0634 -13.8042 L-199.2102 -13.2713 L-196.5372 -16.6964 L-197.2607 -17.3955 ZM-195.0903 -15.2982 L-197.5037 -12.2056 L-196.6505 -11.6728 L-194.3668 -14.5991 L-195.0903 -15.2982 ZM-192.9198 -13.2009 L-194.9441 -10.6071 L-194.0909 -10.0742 L-192.1964 -12.5018 L-192.9198 -13.2009 ZM-190.7494 -11.1036 L-192.3845 -9.0085 L-191.5313 -8.4756 L-190.0259 -10.4045 L-190.0259 -10.4045 L-190.7494 -11.1036 ZM-188.579 -9.0063 L-189.8248 -7.4099 L-188.9716 -6.8771 L-187.8555 -8.3072 L-188.579 -9.0063 ZM-186.4086 -6.909 L-187.2652 -5.8114 L-186.412 -5.2785 L-185.6851 -6.21 L-186.4086 -6.909 Z"/><line y2="-173.1088" y1="-149.886" x2="-33.5351" x1="-29.439" style="fill:none; stroke:black;"/><path style="fill:black; stroke:none;" d="M-27.5383 -152.1569 L-29.0895 -147.9043 L-28.8373 -146.4745 L-28.8373 -146.4745 L-28.8371 -146.4744 L-28.5726 -146.4038 L-28.5726 -146.4038 L-26.6259 -151.741 L-26.6259 -151.741 L-27.5383 -152.1569 ZM-24.8009 -150.9092 L-26.6331 -145.8862 L-26.6331 -145.8862 L-25.6633 -145.6273 L-25.6633 -145.6273 L-23.8885 -150.4933 L-23.8885 -150.4933 L-24.8009 -150.9092 ZM-22.0635 -149.6615 L-23.7238 -145.1096 L-23.7238 -145.1096 L-22.754 -144.8508 L-22.754 -144.8508 L-21.151 -149.2456 L-21.151 -149.2456 L-22.0635 -149.6615 ZM-19.3261 -148.4138 L-20.8145 -144.3331 L-19.8448 -144.0742 L-19.8448 -144.0742 L-18.4136 -147.9979 L-18.4136 -147.9979 L-19.3261 -148.4138 ZM-16.5887 -147.1661 L-17.9052 -143.5566 L-17.9052 -143.5566 L-16.9355 -143.2977 L-16.9355 -143.2977 L-15.6762 -146.7502 L-15.6762 -146.7502 L-16.5887 -147.1661 ZM-13.8513 -145.9184 L-14.996 -142.78 L-14.996 -142.78 L-14.0262 -142.5212 L-14.0262 -142.5212 L-12.9388 -145.5025 L-12.9388 -145.5025 L-13.8513 -145.9184 ZM-11.1139 -144.6707 L-12.0867 -142.0035 L-12.0867 -142.0035 L-11.1169 -141.7447 L-10.2014 -144.2547 L-10.2014 -144.2547 L-11.1139 -144.6707 ZM-8.3764 -143.4229 L-9.1774 -141.227 L-9.1774 -141.227 L-8.2076 -140.9681 L-8.2076 -140.9681 L-7.464 -143.007 L-7.464 -143.007 L-8.3764 -143.4229 ZM-5.639 -142.1752 L-6.2681 -140.4505 L-6.2681 -140.4505 L-5.2984 -140.1916 L-5.2984 -140.1916 L-4.7266 -141.7593 L-4.7266 -141.7593 L-5.639 -142.1752 ZM-2.9016 -140.9275 L-3.3589 -139.6739 L-3.3589 -139.6739 L-2.3891 -139.4151 L-2.3891 -139.4151 L-1.9892 -140.5116 L-1.9892 -140.5116 L-2.9016 -140.9275 Z"/><path style="fill:black; stroke:none;" d="M65.5636 -165.5691 L64.8652 -164.8455 L64.8652 -164.8455 L68.47 -160.5479 L68.47 -160.5479 L69.304 -161.11 L69.304 -161.11 L65.5636 -165.5691 ZM63.4684 -163.3982 L62.77 -162.6746 L62.77 -162.6746 L65.9683 -158.8617 L65.9683 -158.8617 L66.8022 -159.4238 L63.4684 -163.3982 ZM61.3733 -161.2273 L60.6749 -160.5037 L60.6749 -160.5037 L63.4665 -157.1756 L63.4665 -157.1756 L64.3005 -157.7376 L61.3733 -161.2273 ZM59.2781 -159.0564 L58.5797 -158.3328 L58.5797 -158.3328 L60.9648 -155.4894 L60.9648 -155.4894 L61.7987 -156.0515 L61.7987 -156.0515 L59.2781 -159.0564 ZM57.183 -156.8855 L56.4846 -156.1618 L56.4846 -156.1618 L58.463 -153.8032 L59.2969 -154.3653 L59.2969 -154.3653 L57.183 -156.8855 ZM55.0878 -154.7146 L54.3894 -153.9909 L54.3894 -153.9909 L55.9612 -152.1171 L55.9612 -152.1171 L56.7952 -152.6791 L56.7952 -152.6791 L55.0878 -154.7146 ZM52.9926 -152.5437 L52.2943 -151.82 L53.4595 -150.4309 L53.4595 -150.4309 L54.2934 -150.993 L54.2934 -150.993 L52.9926 -152.5437 ZM50.8975 -150.3728 L50.1991 -149.6491 L50.1991 -149.6491 L50.9577 -148.7447 L50.9577 -148.7447 L51.7916 -149.3068 L51.7916 -149.3068 L50.8975 -150.3728 Z"/><path style="fill:black; stroke:none;" d="M-189.7333 24.0314 L-189.3587 24.9586 L-210.4464 36.1746 L-212.6939 30.6114 Z"/><path style="fill:black; stroke:none;" d="M22.2244 -158.9938 L21.2396 -158.8202 L14.6838 -181.609 L20.5927 -182.6506 Z"/><line y2="168.378" y1="184.1921" x2="-148.032" x1="-165.5975" style="fill:none; stroke:black;"/><line y2="33.648" y1="33.648" x2="187.362" x1="211.4245" style="fill:none; stroke:black;"/><line y2="-20.025" y1="-44.295" x2="-55.272" x1="-37.638" style="fill:none; stroke:black;"/><line y2="-68.565" y1="-44.295" x2="-55.272" x1="-37.638" style="fill:none; stroke:black;"/><path style="fill:black; stroke:none;" d="M-37.638 -43.795 L-37.638 -44.795 L-5.9059 -47.295 L-7.638 -44.295 L-5.9059 -41.295 Z"/><line y2="-29.295" y1="-20.025" x2="-83.805" x1="-55.272" style="fill:none; stroke:black;"/><line y2="-31.9993" y1="-23.9781" x2="-80.8017" x1="-56.1124" style="fill:none; stroke:black;"/><line y2="9.321" y1="-20.025" x2="-49.035" x1="-55.272" style="fill:none; stroke:black;"/><line y2="-61.1922" y1="-68.565" x2="-77.9654" x1="-55.272" style="fill:none; stroke:black;"/><line y2="-52.9434" y1="-29.295" x2="-83.805" x1="-83.805" style="fill:none; stroke:black;"/><line y2="-9.222" y1="-29.295" x2="-106.098" x1="-83.805" style="fill:none; stroke:black;"/><line y2="29.394" y1="9.321" x2="-71.331" x1="-49.035" style="fill:none; stroke:black;"/><line y2="20.124" y1="-9.222" x2="-99.861" x1="-106.098" style="fill:none; stroke:black;"/><path style="fill:black; stroke:none;" d="M-108.1281 -11.5949 L-109.0237 -11.1416 L-106.8718 -5.808 L-106.8718 -5.808 L-105.9127 -6.104 L-108.1281 -11.5949 ZM-110.8149 -10.2349 L-111.7105 -9.7815 L-111.7105 -9.7815 L-109.7491 -4.9201 L-108.79 -5.2161 L-110.8149 -10.2349 ZM-113.5018 -8.8748 L-114.3974 -8.4215 L-112.6264 -4.0321 L-111.6673 -4.3281 L-113.5018 -8.8748 ZM-116.1886 -7.5148 L-117.0842 -7.0614 L-115.5037 -3.1442 L-114.5446 -3.4401 L-116.1886 -7.5148 ZM-118.8755 -6.1547 L-119.7711 -5.7014 L-118.381 -2.2562 L-118.381 -2.2562 L-117.4219 -2.5522 L-118.8755 -6.1547 ZM-121.5623 -4.7947 L-122.4579 -4.3413 L-121.2584 -1.3682 L-120.2993 -1.6642 L-121.5623 -4.7947 ZM-124.2492 -3.4346 L-125.1448 -2.9813 L-125.1448 -2.9813 L-124.1357 -0.4803 L-123.1766 -0.7763 L-124.2492 -3.4346 ZM-126.936 -2.0746 L-127.8316 -1.6212 L-127.013 0.4077 L-126.0539 0.1117 L-126.936 -2.0746 ZM-129.6228 -0.7145 L-130.5185 -0.2612 L-129.8903 1.2957 L-128.9312 0.9997 L-129.6228 -0.7145 ZM-132.3097 0.6455 L-133.2053 1.0989 L-132.7676 2.1836 L-131.8085 1.8876 L-132.3097 0.6455 Z"/><line y2="20.124" y1="29.394" x2="-99.861" x1="-71.331" style="fill:none; stroke:black;"/><line y2="17.4197" y1="25.4409" x2="-96.8576" x1="-72.1713" style="fill:none; stroke:black;"/><line y2="-70.275" y1="-44.295" x2="7.362" x1="-7.638" style="fill:none; stroke:black;"/><line y2="-66.775" y1="-44.295" x2="9.3827" x1="-3.5965" style="fill:none; stroke:black;"/><line y2="-18.315" y1="-44.295" x2="7.362" x1="-7.638" style="fill:none; stroke:black;"/><line y2="-70.275" y1="-70.275" x2="37.362" x1="7.362" style="fill:none; stroke:black;"/><line y2="-18.315" y1="-18.315" x2="37.362" x1="7.362" style="fill:none; stroke:black;"/><line y2="-44.295" y1="-70.275" x2="52.362" x1="37.362" style="fill:none; stroke:black;"/><path style="fill:black; stroke:none;" d="M32.9006 -98.936 L31.7488 -98.7325 L31.7488 -98.7325 L31.8389 -97.733 L31.8389 -97.733 L33.1578 -97.966 L33.1578 -97.966 L32.9006 -98.936 ZM33.6722 -96.026 L32.0192 -95.734 L32.0192 -95.734 L32.1094 -94.7345 L32.1094 -94.7345 L33.9295 -95.056 L33.9295 -95.056 L33.6722 -96.026 ZM34.4439 -93.116 L32.2897 -92.7354 L32.2897 -92.7354 L32.3799 -91.7359 L32.3799 -91.7359 L34.7011 -92.146 L34.7011 -92.146 L34.4439 -93.116 ZM35.2156 -90.2061 L32.5602 -89.7369 L32.5602 -89.7369 L32.6503 -88.7374 L32.6503 -88.7374 L35.4728 -89.2361 L35.4728 -89.2361 L35.2156 -90.2061 ZM35.9872 -87.2961 L32.8307 -86.7384 L32.8307 -86.7384 L32.9208 -85.7389 L32.9208 -85.7389 L36.2444 -86.3261 L35.9872 -87.2961 ZM36.7589 -84.3861 L33.1011 -83.7399 L33.1011 -83.7399 L33.1913 -82.7404 L33.1913 -82.7404 L37.0161 -83.4161 L37.0161 -83.4161 L36.7589 -84.3861 ZM37.5305 -81.4761 L33.3716 -80.7413 L33.3716 -80.7413 L33.4618 -79.7418 L33.4618 -79.7418 L37.7878 -80.5061 L37.7878 -80.5061 L37.5305 -81.4761 ZM38.3022 -78.5662 L33.6421 -77.7428 L33.6421 -77.7428 L33.7322 -76.7433 L33.7322 -76.7433 L38.5594 -77.5962 L38.5594 -77.5962 L38.3022 -78.5662 ZM39.0738 -75.6562 L33.9126 -74.7443 L34.0027 -73.7448 L34.0027 -73.7448 L39.3311 -74.6862 L39.3311 -74.6862 L39.0738 -75.6562 ZM39.8455 -72.7462 L34.183 -71.7458 L34.183 -71.7458 L34.2732 -70.7463 L34.2732 -70.7463 L40.1027 -71.7762 L40.1027 -71.7762 L39.8455 -72.7462 Z"/><line y2="-44.295" y1="-18.315" x2="52.362" x1="37.362" style="fill:none; stroke:black;"/><line y2="-44.2951" y1="-21.815" x2="48.3205" x1="35.3413" style="fill:none; stroke:black;"/><line y2="25.2679" y1="2.016" x2="-137.1824" x1="-133.914" style="fill:none; stroke:black;"/><line y2="-16.452" y1="2.016" x2="-157.554" x1="-133.914" style="fill:none; stroke:black;"/><line y2="42.963" y1="34.065" x2="-165.906" x1="-143.8819" style="fill:none; stroke:black;"/><line y2="-5.214" y1="-16.452" x2="-185.37" x1="-157.554" style="fill:none; stroke:black;"/><line y2="24.495" y1="42.963" x2="-189.546" x1="-165.906" style="fill:none; stroke:black;"/><line y2="24.495" y1="-5.214" x2="-189.546" x1="-185.37" style="fill:none; stroke:black;"/><line y2="-107.962" y1="-99.819" x2="9.7769" x1="32.151" style="fill:none; stroke:black;"/><line y2="-119.103" y1="-99.819" x2="55.134" x1="32.151" style="fill:none; stroke:black;"/><line y2="-139.626" y1="-116.5252" x2="-1.248" x1="2.8238" style="fill:none; stroke:black;"/><line y2="-148.647" y1="-119.103" x2="49.923" x1="55.134" style="fill:none; stroke:black;"/><line y2="-158.907" y1="-139.626" x2="21.732" x1="-1.248" style="fill:none; stroke:black;"/><line y2="-158.907" y1="-148.647" x2="21.732" x1="49.923" style="fill:none; stroke:black;"/><line y2="157.575" y1="128.232" x2="-97.206" x1="-103.443" style="fill:none; stroke:black;"/><line y2="156.3261" y1="130.9363" x2="-101.0496" x1="-106.4464" style="fill:none; stroke:black;"/><line y2="118.959" y1="128.232" x2="-131.976" x1="-103.443" style="fill:none; stroke:black;"/><line y2="177.648" y1="157.575" x2="-119.502" x1="-97.206" style="fill:none; stroke:black;"/><line y2="139.035" y1="118.959" x2="-154.269" x1="-131.976" style="fill:none; stroke:black;"/><line y2="140.2836" y1="122.9121" x2="-150.4252" x1="-131.1354" style="fill:none; stroke:black;"/><line y2="168.378" y1="177.648" x2="-148.032" x1="-119.502" style="fill:none; stroke:black;"/><line y2="165.6737" y1="173.6949" x2="-145.0286" x1="-120.3423" style="fill:none; stroke:black;"/><line y2="168.378" y1="139.035" x2="-148.032" x1="-154.269" style="fill:none; stroke:black;"/><line y2="59.628" y1="33.648" x2="142.362" x1="127.362" style="fill:none; stroke:black;"/><line y2="56.128" y1="33.648" x2="144.3827" x1="131.4035" style="fill:none; stroke:black;"/><line y2="7.668" y1="33.648" x2="142.362" x1="127.362" style="fill:none; stroke:black;"/><line y2="59.628" y1="59.628" x2="172.362" x1="142.362" style="fill:none; stroke:black;"/><line y2="7.668" y1="7.668" x2="172.362" x1="142.362" style="fill:none; stroke:black;"/><line y2="11.168" y1="11.168" x2="170.3413" x1="144.3827" style="fill:none; stroke:black;"/><line y2="33.648" y1="59.628" x2="187.362" x1="172.362" style="fill:none; stroke:black;"/><line y2="33.648" y1="56.128" x2="183.3205" x1="170.3413" style="fill:none; stroke:black;"/><line y2="33.648" y1="7.668" x2="187.362" x1="172.362" style="fill:none; stroke:black;"/><path style="fill:black; stroke:none;" d="M-55.022 -68.132 L-55.522 -68.998 L-35.7819 -83.2821 L-32.7818 -78.086 Z"/><path style="fill:none; stroke-miterlimit:5; stroke:black;" d="M-67.9733 -96.0253 L-67.476 -95.973 L-67.2726 -95.5162"/><path style="stroke-miterlimit:5; stroke:none;" d="M-75.6514 -103.9055 Q-75.6514 -105.2337 -75.1827 -106.3587 Q-74.7139 -107.4837 -73.6827 -108.5618 L-73.0733 -108.5618 Q-74.0421 -107.4993 -74.5264 -106.3274 Q-75.0108 -105.1555 -75.0108 -103.9212 Q-75.0108 -102.593 -74.5733 -101.5774 L-75.0889 -101.5774 Q-75.6514 -102.6087 -75.6514 -103.9055 ZM-70.0289 -104.4993 Q-70.0289 -103.6712 -70.5757 -103.218 Q-71.1226 -102.7649 -72.1226 -102.7649 Q-72.5289 -102.7649 -72.8414 -102.8196 Q-73.1539 -102.8743 -73.4351 -103.0149 L-73.4351 -103.6712 Q-72.8101 -103.343 -72.107 -103.343 Q-71.482 -103.343 -71.107 -103.6399 Q-70.732 -103.9368 -70.732 -104.4524 Q-70.732 -104.7649 -70.9351 -104.9915 Q-71.1382 -105.218 -71.7007 -105.5462 Q-72.2945 -105.8743 -72.5211 -106.2024 Q-72.7476 -106.5305 -72.7476 -106.9837 Q-72.7476 -107.718 -72.232 -108.179 Q-71.7164 -108.6399 -70.8726 -108.6399 Q-70.4976 -108.6399 -70.1617 -108.5618 Q-69.8257 -108.4837 -69.4507 -108.3118 L-69.7164 -107.718 Q-69.9664 -107.8743 -70.2867 -107.9602 Q-70.607 -108.0462 -70.8726 -108.0462 Q-71.4039 -108.0462 -71.7242 -107.7727 Q-72.0445 -107.4993 -72.0445 -107.0305 Q-72.0445 -106.8274 -71.9742 -106.679 Q-71.9039 -106.5305 -71.7632 -106.3977 Q-71.6226 -106.2649 -71.2007 -106.0149 Q-70.6382 -105.6712 -70.4351 -105.4758 Q-70.232 -105.2805 -70.1304 -105.0462 Q-70.0289 -104.8118 -70.0289 -104.4993 ZM-67.4344 -106.218 Q-67.4344 -104.8899 -67.9109 -103.7571 Q-68.3875 -102.6243 -69.4031 -101.5774 L-70.0125 -101.5774 Q-68.075 -103.7337 -68.075 -106.218 Q-68.075 -107.5462 -68.5125 -108.5618 L-67.9969 -108.5618 Q-67.4344 -107.4993 -67.4344 -106.218 Z"/><path style="fill:none; stroke-miterlimit:5; stroke:black;" d="M-96.8137 -99.0557 L-97.311 -99.108 L-97.5144 -99.5648"/><path style="stroke-miterlimit:5; stroke:none;" d="M-111.6448 -98.9894 Q-111.6448 -100.3175 -111.1761 -101.4425 Q-110.7073 -102.5675 -109.6761 -103.6457 L-109.0667 -103.6457 Q-110.0355 -102.5832 -110.5198 -101.4113 Q-111.0042 -100.2394 -111.0042 -99.005 Q-111.0042 -97.6769 -110.5667 -96.6613 L-111.0823 -96.6613 Q-111.6448 -97.6925 -111.6448 -98.9894 ZM-108.0848 -100.3019 L-108.5848 -97.9269 L-109.241 -97.9269 L-108.0379 -103.6457 L-106.7879 -103.6457 Q-105.0535 -103.6457 -105.0535 -102.2082 Q-105.0535 -100.8488 -106.491 -100.4582 L-105.5535 -97.9269 L-106.2723 -97.9269 L-107.1004 -100.3019 L-108.0848 -100.3019 ZM-107.5067 -103.0519 Q-107.8973 -101.13 -107.9598 -100.88 L-107.3035 -100.88 Q-106.5535 -100.88 -106.1473 -101.2082 Q-105.741 -101.5363 -105.741 -102.1613 Q-105.741 -102.63 -105.9988 -102.841 Q-106.2567 -103.0519 -106.8504 -103.0519 L-107.5067 -103.0519 ZM-102.8676 -101.3019 Q-102.8676 -99.9738 -103.3441 -98.841 Q-103.8207 -97.7082 -104.8363 -96.6613 L-105.4457 -96.6613 Q-103.5082 -98.8175 -103.5082 -101.3019 Q-103.5082 -102.63 -103.9457 -103.6457 L-103.4301 -103.6457 Q-102.8676 -102.5832 -102.8676 -101.3019 Z"/></g><g transform="translate(232,196)" style="stroke-linecap:butt; fill:rgb(230,0,0); text-rendering:geometricPrecision; color-rendering:optimizeQuality; image-rendering:optimizeQuality; font-family:'Open Sans'; stroke:rgb(230,0,0); color-interpolation:linearRGB; stroke-miterlimit:5;"><path style="stroke:none;" d="M-45.9045 -120.3133 Q-45.9045 -118.2508 -46.9436 -117.0711 Q-47.9826 -115.8914 -49.8264 -115.8914 Q-51.717 -115.8914 -52.7482 -117.0555 Q-53.7795 -118.2196 -53.7795 -120.3289 Q-53.7795 -122.4227 -52.7482 -123.5711 Q-51.717 -124.7196 -49.8264 -124.7196 Q-47.967 -124.7196 -46.9357 -123.5477 Q-45.9045 -122.3758 -45.9045 -120.3133 ZM-52.7326 -120.3133 Q-52.7326 -118.5789 -51.9904 -117.6727 Q-51.2482 -116.7664 -49.8264 -116.7664 Q-48.4045 -116.7664 -47.6779 -117.6649 Q-46.9514 -118.5633 -46.9514 -120.3133 Q-46.9514 -122.0477 -47.6779 -122.9383 Q-48.4045 -123.8289 -49.8264 -123.8289 Q-51.2482 -123.8289 -51.9904 -122.9305 Q-52.7326 -122.0321 -52.7326 -120.3133 Z"/><path style="stroke:none;" d="M-38.3889 -116.0164 L-39.3889 -116.0164 L-39.3889 -120.0477 L-43.9045 -120.0477 L-43.9045 -116.0164 L-44.9045 -116.0164 L-44.9045 -124.5789 L-43.9045 -124.5789 L-43.9045 -120.9383 L-39.3889 -120.9383 L-39.3889 -124.5789 L-38.3889 -124.5789 L-38.3889 -116.0164 Z"/></g><g transform="translate(232,196)" style="stroke-linecap:butt; font-size:8.4px; fill:gray; text-rendering:geometricPrecision; image-rendering:optimizeQuality; color-rendering:optimizeQuality; font-family:'Open Sans'; font-style:italic; stroke:gray; color-interpolation:linearRGB; stroke-miterlimit:5;"><path style="stroke:none;" d="M-117.9678 -134.4845 Q-117.9678 -135.8126 -117.499 -136.9376 Q-117.0303 -138.0626 -115.999 -139.1407 L-115.3896 -139.1407 Q-116.3584 -138.0782 -116.8428 -136.9064 Q-117.3271 -135.7345 -117.3271 -134.5001 Q-117.3271 -133.172 -116.8896 -132.1564 L-117.4053 -132.1564 Q-117.9678 -133.1876 -117.9678 -134.4845 ZM-114.4077 -135.797 L-114.9077 -133.422 L-115.564 -133.422 L-114.3608 -139.1407 L-113.1108 -139.1407 Q-111.3765 -139.1407 -111.3765 -137.7032 Q-111.3765 -136.3439 -112.814 -135.9532 L-111.8765 -133.422 L-112.5952 -133.422 L-113.4233 -135.797 L-114.4077 -135.797 ZM-113.8296 -138.547 Q-114.2202 -136.6251 -114.2827 -136.3751 L-113.6265 -136.3751 Q-112.8765 -136.3751 -112.4702 -136.7032 Q-112.064 -137.0314 -112.064 -137.6564 Q-112.064 -138.1251 -112.3218 -138.3361 Q-112.5796 -138.547 -113.1733 -138.547 L-113.8296 -138.547 ZM-109.1905 -136.797 Q-109.1905 -135.4689 -109.6671 -134.3361 Q-110.1436 -133.2032 -111.1592 -132.1564 L-111.7686 -132.1564 Q-109.8311 -134.3126 -109.8311 -136.797 Q-109.8311 -138.1251 -110.2686 -139.1407 L-109.753 -139.1407 Q-109.1905 -138.0782 -109.1905 -136.797 Z"/></g><g transform="translate(232,196)" style="stroke-linecap:butt; fill:rgb(230,0,0); text-rendering:geometricPrecision; color-rendering:optimizeQuality; image-rendering:optimizeQuality; font-family:'Open Sans'; stroke:rgb(230,0,0); color-interpolation:linearRGB; stroke-miterlimit:5;"><path style="stroke:none;" d="M-111.0075 -74.9083 Q-111.0075 -72.8458 -112.0466 -71.6661 Q-113.0856 -70.4864 -114.9294 -70.4864 Q-116.82 -70.4864 -117.8512 -71.6505 Q-118.8825 -72.8146 -118.8825 -74.9239 Q-118.8825 -77.0177 -117.8512 -78.1661 Q-116.82 -79.3146 -114.9294 -79.3146 Q-113.07 -79.3146 -112.0387 -78.1427 Q-111.0075 -76.9708 -111.0075 -74.9083 ZM-117.8356 -74.9083 Q-117.8356 -73.1739 -117.0934 -72.2677 Q-116.3512 -71.3614 -114.9294 -71.3614 Q-113.5075 -71.3614 -112.7809 -72.2599 Q-112.0544 -73.1583 -112.0544 -74.9083 Q-112.0544 -76.6427 -112.7809 -77.5333 Q-113.5075 -78.4239 -114.9294 -78.4239 Q-116.3512 -78.4239 -117.0934 -77.5255 Q-117.8356 -76.6271 -117.8356 -74.9083 Z"/><path style="stroke:none;" d="M-119.8825 -70.6114 L-120.8825 -70.6114 L-120.8825 -74.6427 L-125.3981 -74.6427 L-125.3981 -70.6114 L-126.3981 -70.6114 L-126.3981 -79.1739 L-125.3981 -79.1739 L-125.3981 -75.5333 L-120.8825 -75.5333 L-120.8825 -79.1739 L-119.8825 -79.1739 L-119.8825 -70.6114 Z"/><path style="fill:none; stroke:black;" d="M-138.8497 -129.5987 L-139.347 -129.651 L-139.5504 -130.1078"/><path style="stroke:none;" d="M-87.9405 -150.8533 Q-87.9405 -148.7908 -88.9796 -147.6111 Q-90.0186 -146.4314 -91.8624 -146.4314 Q-93.753 -146.4314 -94.7842 -147.5955 Q-95.8155 -148.7596 -95.8155 -150.8689 Q-95.8155 -152.9627 -94.7842 -154.1111 Q-93.753 -155.2596 -91.8624 -155.2596 Q-90.003 -155.2596 -88.9717 -154.0877 Q-87.9405 -152.9158 -87.9405 -150.8533 ZM-94.7686 -150.8533 Q-94.7686 -149.1189 -94.0264 -148.2127 Q-93.2842 -147.3064 -91.8624 -147.3064 Q-90.4405 -147.3064 -89.7139 -148.2049 Q-88.9874 -149.1033 -88.9874 -150.8533 Q-88.9874 -152.5877 -89.7139 -153.4783 Q-90.4405 -154.3689 -91.8624 -154.3689 Q-93.2842 -154.3689 -94.0264 -153.4705 Q-94.7686 -152.5721 -94.7686 -150.8533 Z"/><path style="stroke:none;" d="M-80.4249 -146.5564 L-81.4249 -146.5564 L-81.4249 -150.5877 L-85.9405 -150.5877 L-85.9405 -146.5564 L-86.9405 -146.5564 L-86.9405 -155.1189 L-85.9405 -155.1189 L-85.9405 -151.4783 L-81.4249 -151.4783 L-81.4249 -155.1189 L-80.4249 -155.1189 L-80.4249 -146.5564 Z"/><path style="stroke:none;" d="M-147.6135 -157.1263 Q-147.6135 -155.0638 -148.6526 -153.8841 Q-149.6916 -152.7044 -151.5354 -152.7044 Q-153.426 -152.7044 -154.4573 -153.8685 Q-155.4885 -155.0326 -155.4885 -157.1419 Q-155.4885 -159.2357 -154.4573 -160.3841 Q-153.426 -161.5326 -151.5354 -161.5326 Q-149.676 -161.5326 -148.6448 -160.3607 Q-147.6135 -159.1888 -147.6135 -157.1263 ZM-154.4416 -157.1263 Q-154.4416 -155.3919 -153.6994 -154.4857 Q-152.9573 -153.5794 -151.5354 -153.5794 Q-150.1135 -153.5794 -149.3869 -154.4779 Q-148.6604 -155.3763 -148.6604 -157.1263 Q-148.6604 -158.8607 -149.3869 -159.7513 Q-150.1135 -160.6419 -151.5354 -160.6419 Q-152.9573 -160.6419 -153.6994 -159.7435 Q-154.4416 -158.8451 -154.4416 -157.1263 Z"/><path style="stroke:none;" d="M-156.4885 -152.8294 L-157.4885 -152.8294 L-157.4885 -156.8607 L-162.0041 -156.8607 L-162.0041 -152.8294 L-163.0041 -152.8294 L-163.0041 -161.3919 L-162.0041 -161.3919 L-162.0041 -157.7513 L-157.4885 -157.7513 L-157.4885 -161.3919 L-156.4885 -161.3919 L-156.4885 -152.8294 Z"/><path style="stroke:none;" d="M-16.5675 18.5207 Q-16.5675 20.5832 -17.6066 21.7629 Q-18.6456 22.9426 -20.4894 22.9426 Q-22.38 22.9426 -23.4112 21.7785 Q-24.4425 20.6144 -24.4425 18.5051 Q-24.4425 16.4113 -23.4112 15.2629 Q-22.38 14.1144 -20.4894 14.1144 Q-18.63 14.1144 -17.5987 15.2863 Q-16.5675 16.4582 -16.5675 18.5207 ZM-23.3956 18.5207 Q-23.3956 20.2551 -22.6534 21.1613 Q-21.9112 22.0676 -20.4894 22.0676 Q-19.0675 22.0676 -18.3409 21.1691 Q-17.6144 20.2707 -17.6144 18.5207 Q-17.6144 16.7863 -18.3409 15.8957 Q-19.0675 15.0051 -20.4894 15.0051 Q-21.9112 15.0051 -22.6534 15.9035 Q-23.3956 16.8019 -23.3956 18.5207 Z"/><path style="stroke:none;" d="M-3.7005 -96.3253 Q-3.7005 -94.2628 -4.7396 -93.0831 Q-5.7786 -91.9034 -7.6224 -91.9034 Q-9.513 -91.9034 -10.5442 -93.0675 Q-11.5755 -94.2316 -11.5755 -96.3409 Q-11.5755 -98.4347 -10.5442 -99.5831 Q-9.513 -100.7316 -7.6224 -100.7316 Q-5.763 -100.7316 -4.7317 -99.5597 Q-3.7005 -98.3878 -3.7005 -96.3253 ZM-10.5286 -96.3253 Q-10.5286 -94.5909 -9.7864 -93.6847 Q-9.0442 -92.7784 -7.6224 -92.7784 Q-6.2005 -92.7784 -5.4739 -93.6769 Q-4.7474 -94.5753 -4.7474 -96.3253 Q-4.7474 -98.0597 -5.4739 -98.9503 Q-6.2005 -99.8409 -7.6224 -99.8409 Q-9.0442 -99.8409 -9.7864 -98.9425 Q-10.5286 -98.0441 -10.5286 -96.3253 Z"/><path style="stroke:none;" d="M-12.5755 -92.0284 L-13.5755 -92.0284 L-13.5755 -96.0597 L-18.0911 -96.0597 L-18.0911 -92.0284 L-19.0911 -92.0284 L-19.0911 -100.5909 L-18.0911 -100.5909 L-18.0911 -96.9503 L-13.5755 -96.9503 L-13.5755 -100.5909 L-12.5755 -100.5909 L-12.5755 -92.0284 Z"/><path style="stroke:none;" d="M-3.7005 7.5977 Q-3.7005 9.6602 -4.7396 10.8399 Q-5.7786 12.0196 -7.6224 12.0196 Q-9.513 12.0196 -10.5442 10.8555 Q-11.5755 9.6914 -11.5755 7.5821 Q-11.5755 5.4883 -10.5442 4.3399 Q-9.513 3.1914 -7.6224 3.1914 Q-5.763 3.1914 -4.7317 4.3633 Q-3.7005 5.5352 -3.7005 7.5977 ZM-10.5286 7.5977 Q-10.5286 9.3321 -9.7864 10.2383 Q-9.0442 11.1446 -7.6224 11.1446 Q-6.2005 11.1446 -5.4739 10.2461 Q-4.7474 9.3477 -4.7474 7.5977 Q-4.7474 5.8633 -5.4739 4.9727 Q-6.2005 4.0821 -7.6224 4.0821 Q-9.0442 4.0821 -9.7864 4.9805 Q-10.5286 5.8789 -10.5286 7.5977 Z"/><path style="stroke:none;" d="M-118.0575 -34.7323 Q-118.0575 -32.6698 -119.0966 -31.4901 Q-120.1356 -30.3104 -121.9794 -30.3104 Q-123.87 -30.3104 -124.9013 -31.4745 Q-125.9325 -32.6386 -125.9325 -34.7479 Q-125.9325 -36.8417 -124.9013 -37.9901 Q-123.87 -39.1386 -121.9794 -39.1386 Q-120.12 -39.1386 -119.0888 -37.9667 Q-118.0575 -36.7948 -118.0575 -34.7323 ZM-124.8856 -34.7323 Q-124.8856 -32.9979 -124.1434 -32.0917 Q-123.4013 -31.1854 -121.9794 -31.1854 Q-120.5575 -31.1854 -119.8309 -32.0839 Q-119.1044 -32.9823 -119.1044 -34.7323 Q-119.1044 -36.4667 -119.8309 -37.3573 Q-120.5575 -38.2479 -121.9794 -38.2479 Q-123.4013 -38.2479 -124.1434 -37.3495 Q-124.8856 -36.4511 -124.8856 -34.7323 Z"/><path style="stroke:none;" d="M-126.9325 -30.4354 L-127.9325 -30.4354 L-127.9325 -34.4667 L-132.4481 -34.4667 L-132.4481 -30.4354 L-133.4481 -30.4354 L-133.4481 -38.9979 L-132.4481 -38.9979 L-132.4481 -35.3573 L-127.9325 -35.3573 L-127.9325 -38.9979 L-126.9325 -38.9979 L-126.9325 -30.4354 Z"/><path style="fill:none; stroke:black;" d="M-65.4626 59.0716 L-65.091 58.737 L-65.195 58.2479"/><path style="fill:none; stroke:black;" d="M-87.0154 78.4784 L-87.387 78.813 L-87.283 79.3021"/><path style="stroke:none;" d="M-32.6235 67.9397 Q-32.6235 70.0022 -33.6626 71.1819 Q-34.7016 72.3616 -36.5454 72.3616 Q-38.436 72.3616 -39.4673 71.1975 Q-40.4985 70.0334 -40.4985 67.9241 Q-40.4985 65.8303 -39.4673 64.6819 Q-38.436 63.5334 -36.5454 63.5334 Q-34.686 63.5334 -33.6548 64.7053 Q-32.6235 65.8772 -32.6235 67.9397 ZM-39.4516 67.9397 Q-39.4516 69.6741 -38.7094 70.5803 Q-37.9673 71.4866 -36.5454 71.4866 Q-35.1235 71.4866 -34.3969 70.5881 Q-33.6704 69.6897 -33.6704 67.9397 Q-33.6704 66.2053 -34.3969 65.3147 Q-35.1235 64.4241 -36.5454 64.4241 Q-37.9673 64.4241 -38.7094 65.3225 Q-39.4516 66.2209 -39.4516 67.9397 Z"/><path style="fill:none; stroke:black;" d="M-81.254 107.6669 L-81.15 108.156 L-81.5215 108.4906"/><path style="stroke:none;" d="M69.4905 -80.6053 Q69.4905 -78.5428 68.4514 -77.3631 Q67.4124 -76.1834 65.5686 -76.1834 Q63.678 -76.1834 62.6468 -77.3475 Q61.6155 -78.5116 61.6155 -80.6209 Q61.6155 -82.7147 62.6468 -83.8631 Q63.678 -85.0116 65.5686 -85.0116 Q67.428 -85.0116 68.4593 -83.8397 Q69.4905 -82.6678 69.4905 -80.6053 ZM62.6624 -80.6053 Q62.6624 -78.8709 63.4046 -77.9647 Q64.1468 -77.0584 65.5686 -77.0584 Q66.9905 -77.0584 67.7171 -77.9569 Q68.4436 -78.8553 68.4436 -80.6053 Q68.4436 -82.3397 67.7171 -83.2303 Q66.9905 -84.1209 65.5686 -84.1209 Q64.1468 -84.1209 63.4046 -83.2225 Q62.6624 -82.3241 62.6624 -80.6053 Z"/><path style="stroke:none;" d="M77.0061 -76.3084 L76.0061 -76.3084 L76.0061 -80.3397 L71.4905 -80.3397 L71.4905 -76.3084 L70.4905 -76.3084 L70.4905 -84.8709 L71.4905 -84.8709 L71.4905 -81.2303 L76.0061 -81.2303 L76.0061 -84.8709 L77.0061 -84.8709 L77.0061 -76.3084 Z"/><path style="fill:none; stroke:black;" d="M52.862 7.668 L52.362 7.668 L52.112 7.235"/><path style="fill:none; stroke:black;" d="M81.862 7.668 L82.362 7.668 L82.612 8.101"/><path style="stroke:none;" d="M41.2995 33.5777 Q41.2995 35.6402 40.2604 36.8199 Q39.2214 37.9996 37.3776 37.9996 Q35.487 37.9996 34.4557 36.8355 Q33.4245 35.6714 33.4245 33.5621 Q33.4245 31.4683 34.4557 30.3199 Q35.487 29.1714 37.3776 29.1714 Q39.237 29.1714 40.2682 30.3433 Q41.2995 31.5152 41.2995 33.5777 ZM34.4714 33.5777 Q34.4714 35.3121 35.2136 36.2183 Q35.9557 37.1246 37.3776 37.1246 Q38.7995 37.1246 39.5261 36.2261 Q40.2526 35.3277 40.2526 33.5777 Q40.2526 31.8433 39.5261 30.9527 Q38.7995 30.0621 37.3776 30.0621 Q35.9557 30.0621 35.2136 30.9605 Q34.4714 31.8589 34.4714 33.5777 Z"/><path style="fill:none; stroke:black;" d="M97.112 33.215 L97.362 33.648 L97.862 33.648"/><path style="stroke:none;" d="M-118.2195 40.1267 Q-118.2195 42.1892 -119.2586 43.3689 Q-120.2976 44.5486 -122.1414 44.5486 Q-124.032 44.5486 -125.0632 43.3845 Q-126.0945 42.2204 -126.0945 40.1111 Q-126.0945 38.0173 -125.0632 36.8689 Q-124.032 35.7204 -122.1414 35.7204 Q-120.282 35.7204 -119.2507 36.8923 Q-118.2195 38.0642 -118.2195 40.1267 ZM-125.0476 40.1267 Q-125.0476 41.8611 -124.3054 42.7673 Q-123.5632 43.6736 -122.1414 43.6736 Q-120.7195 43.6736 -119.9929 42.7751 Q-119.2664 41.8767 -119.2664 40.1267 Q-119.2664 38.3923 -119.9929 37.5017 Q-120.7195 36.6111 -122.1414 36.6111 Q-123.5632 36.6111 -124.3054 37.5095 Q-125.0476 38.4079 -125.0476 40.1267 Z"/><path style="stroke:none;" d="M-127.0945 44.4236 L-128.0945 44.4236 L-128.0945 40.3923 L-132.6101 40.3923 L-132.6101 44.4236 L-133.6101 44.4236 L-133.6101 35.8611 L-132.6101 35.8611 L-132.6101 39.5017 L-128.0945 39.5017 L-128.0945 35.8611 L-127.0945 35.8611 L-127.0945 44.4236 Z"/><path style="stroke:none;" d="M86.2995 -44.3653 Q86.2995 -42.3028 85.2604 -41.1231 Q84.2214 -39.9434 82.3776 -39.9434 Q80.487 -39.9434 79.4557 -41.1075 Q78.4245 -42.2716 78.4245 -44.3809 Q78.4245 -46.4747 79.4557 -47.6231 Q80.487 -48.7716 82.3776 -48.7716 Q84.237 -48.7716 85.2682 -47.5997 Q86.2995 -46.4278 86.2995 -44.3653 ZM79.4714 -44.3653 Q79.4714 -42.6309 80.2136 -41.7247 Q80.9557 -40.8184 82.3776 -40.8184 Q83.7995 -40.8184 84.5261 -41.7169 Q85.2526 -42.6153 85.2526 -44.3653 Q85.2526 -46.0997 84.5261 -46.9903 Q83.7995 -47.8809 82.3776 -47.8809 Q80.9557 -47.8809 80.2136 -46.9825 Q79.4714 -46.0841 79.4714 -44.3653 Z"/><path style="stroke:none;" d="M93.8151 -40.0684 L92.8151 -40.0684 L92.8151 -44.0997 L88.2995 -44.0997 L88.2995 -40.0684 L87.2995 -40.0684 L87.2995 -48.6309 L88.2995 -48.6309 L88.2995 -44.9903 L92.8151 -44.9903 L92.8151 -48.6309 L93.8151 -48.6309 L93.8151 -40.0684 Z"/><path style="stroke:none;" d="M-149.4405 -46.2313 Q-149.4405 -44.1688 -150.4796 -42.9891 Q-151.5186 -41.8094 -153.3624 -41.8094 Q-155.253 -41.8094 -156.2842 -42.9735 Q-157.3155 -44.1376 -157.3155 -46.2469 Q-157.3155 -48.3407 -156.2842 -49.4891 Q-155.253 -50.6376 -153.3624 -50.6376 Q-151.503 -50.6376 -150.4717 -49.4657 Q-149.4405 -48.2938 -149.4405 -46.2313 ZM-156.2686 -46.2313 Q-156.2686 -44.4969 -155.5264 -43.5907 Q-154.7842 -42.6844 -153.3624 -42.6844 Q-151.9405 -42.6844 -151.2139 -43.5829 Q-150.4874 -44.4813 -150.4874 -46.2313 Q-150.4874 -47.9657 -151.2139 -48.8563 Q-151.9405 -49.7469 -153.3624 -49.7469 Q-154.7842 -49.7469 -155.5264 -48.8485 Q-156.2686 -47.9501 -156.2686 -46.2313 Z"/><path style="stroke:none;" d="M-141.9249 -41.9344 L-142.9249 -41.9344 L-142.9249 -45.9657 L-147.4405 -45.9657 L-147.4405 -41.9344 L-148.4405 -41.9344 L-148.4405 -50.4969 L-147.4405 -50.4969 L-147.4405 -46.8563 L-142.9249 -46.8563 L-142.9249 -50.4969 L-141.9249 -50.4969 L-141.9249 -41.9344 Z"/><path style="stroke:none;" d="M87.2625 -108.9133 Q87.2625 -106.8508 86.2234 -105.6711 Q85.1844 -104.4914 83.3406 -104.4914 Q81.45 -104.4914 80.4187 -105.6555 Q79.3875 -106.8196 79.3875 -108.9289 Q79.3875 -111.0227 80.4187 -112.1711 Q81.45 -113.3196 83.3406 -113.3196 Q85.2 -113.3196 86.2312 -112.1477 Q87.2625 -110.9758 87.2625 -108.9133 ZM80.4344 -108.9133 Q80.4344 -107.1789 81.1766 -106.2727 Q81.9187 -105.3664 83.3406 -105.3664 Q84.7625 -105.3664 85.4891 -106.2649 Q86.2156 -107.1633 86.2156 -108.9133 Q86.2156 -110.6477 85.4891 -111.5383 Q84.7625 -112.4289 83.3406 -112.4289 Q81.9187 -112.4289 81.1766 -111.5305 Q80.4344 -110.6321 80.4344 -108.9133 Z"/><path style="stroke:none;" d="M94.7781 -104.6164 L93.7781 -104.6164 L93.7781 -108.6477 L89.2625 -108.6477 L89.2625 -104.6164 L88.2625 -104.6164 L88.2625 -113.1789 L89.2625 -113.1789 L89.2625 -109.5383 L93.7781 -109.5383 L93.7781 -113.1789 L94.7781 -113.1789 L94.7781 -104.6164 Z"/><path style="stroke:none;" d="M-193.9575 83.8397 Q-193.9575 85.9022 -194.9966 87.0819 Q-196.0356 88.2616 -197.8794 88.2616 Q-199.77 88.2616 -200.8013 87.0975 Q-201.8325 85.9334 -201.8325 83.8241 Q-201.8325 81.7303 -200.8013 80.5819 Q-199.77 79.4334 -197.8794 79.4334 Q-196.02 79.4334 -194.9888 80.6053 Q-193.9575 81.7772 -193.9575 83.8397 ZM-200.7856 83.8397 Q-200.7856 85.5741 -200.0434 86.4803 Q-199.3013 87.3866 -197.8794 87.3866 Q-196.4575 87.3866 -195.7309 86.4881 Q-195.0044 85.5897 -195.0044 83.8397 Q-195.0044 82.1053 -195.7309 81.2147 Q-196.4575 80.3241 -197.8794 80.3241 Q-199.3013 80.3241 -200.0434 81.2225 Q-200.7856 82.1209 -200.7856 83.8397 Z"/><path style="stroke:none;" d="M-202.8325 88.1366 L-203.8325 88.1366 L-203.8325 84.1053 L-208.3481 84.1053 L-208.3481 88.1366 L-209.3481 88.1366 L-209.3481 79.5741 L-208.3481 79.5741 L-208.3481 83.2147 L-203.8325 83.2147 L-203.8325 79.5741 L-202.8325 79.5741 L-202.8325 88.1366 Z"/><path style="stroke:none;" d="M-205.0725 -23.7553 Q-205.0725 -21.6928 -206.1116 -20.5131 Q-207.1506 -19.3334 -208.9944 -19.3334 Q-210.885 -19.3334 -211.9162 -20.4975 Q-212.9475 -21.6616 -212.9475 -23.7709 Q-212.9475 -25.8647 -211.9162 -27.0131 Q-210.885 -28.1616 -208.9944 -28.1616 Q-207.135 -28.1616 -206.1037 -26.9897 Q-205.0725 -25.8178 -205.0725 -23.7553 ZM-211.9006 -23.7553 Q-211.9006 -22.0209 -211.1584 -21.1147 Q-210.4162 -20.2084 -208.9944 -20.2084 Q-207.5725 -20.2084 -206.8459 -21.1069 Q-206.1194 -22.0053 -206.1194 -23.7553 Q-206.1194 -25.4897 -206.8459 -26.3803 Q-207.5725 -27.2709 -208.9944 -27.2709 Q-210.4162 -27.2709 -211.1584 -26.3725 Q-211.9006 -25.4741 -211.9006 -23.7553 Z"/><path style="stroke:none;" d="M-213.9475 -19.4584 L-214.9475 -19.4584 L-214.9475 -23.4897 L-219.4631 -23.4897 L-219.4631 -19.4584 L-220.4631 -19.4584 L-220.4631 -28.0209 L-219.4631 -28.0209 L-219.4631 -24.3803 L-214.9475 -24.3803 L-214.9475 -28.0209 L-213.9475 -28.0209 L-213.9475 -19.4584 Z"/><path style="stroke:none;" d="M-30.7125 -179.5003 Q-30.7125 -177.4378 -31.7516 -176.2581 Q-32.7906 -175.0784 -34.6344 -175.0784 Q-36.525 -175.0784 -37.5562 -176.2425 Q-38.5875 -177.4066 -38.5875 -179.5159 Q-38.5875 -181.6097 -37.5562 -182.7581 Q-36.525 -183.9066 -34.6344 -183.9066 Q-32.775 -183.9066 -31.7437 -182.7347 Q-30.7125 -181.5628 -30.7125 -179.5003 ZM-37.5406 -179.5003 Q-37.5406 -177.7659 -36.7984 -176.8597 Q-36.0562 -175.9534 -34.6344 -175.9534 Q-33.2125 -175.9534 -32.4859 -176.8519 Q-31.7594 -177.7503 -31.7594 -179.5003 Q-31.7594 -181.2347 -32.4859 -182.1253 Q-33.2125 -183.0159 -34.6344 -183.0159 Q-36.0562 -183.0159 -36.7984 -182.1175 Q-37.5406 -181.2191 -37.5406 -179.5003 Z"/><path style="stroke:none;" d="M-39.5875 -175.2034 L-40.5875 -175.2034 L-40.5875 -179.2347 L-45.1031 -179.2347 L-45.1031 -175.2034 L-46.1031 -175.2034 L-46.1031 -183.7659 L-45.1031 -183.7659 L-45.1031 -180.1253 L-40.5875 -180.1253 L-40.5875 -183.7659 L-39.5875 -183.7659 L-39.5875 -175.2034 Z"/><path style="stroke:none;" d="M76.8435 -168.0013 Q76.8435 -165.9388 75.8044 -164.7591 Q74.7654 -163.5794 72.9216 -163.5794 Q71.031 -163.5794 69.9998 -164.7435 Q68.9685 -165.9076 68.9685 -168.0169 Q68.9685 -170.1107 69.9998 -171.2591 Q71.031 -172.4076 72.9216 -172.4076 Q74.781 -172.4076 75.8123 -171.2357 Q76.8435 -170.0638 76.8435 -168.0013 ZM70.0154 -168.0013 Q70.0154 -166.2669 70.7576 -165.3607 Q71.4998 -164.4544 72.9216 -164.4544 Q74.3435 -164.4544 75.0701 -165.3529 Q75.7966 -166.2513 75.7966 -168.0013 Q75.7966 -169.7357 75.0701 -170.6263 Q74.3435 -171.5169 72.9216 -171.5169 Q71.4998 -171.5169 70.7576 -170.6185 Q70.0154 -169.7201 70.0154 -168.0013 Z"/><path style="stroke:none;" d="M84.3591 -163.7044 L83.3591 -163.7044 L83.3591 -167.7357 L78.8435 -167.7357 L78.8435 -163.7044 L77.8435 -163.7044 L77.8435 -172.2669 L78.8435 -172.2669 L78.8435 -168.6263 L83.3591 -168.6263 L83.3591 -172.2669 L84.3591 -172.2669 L84.3591 -163.7044 Z"/><path style="stroke:none;" d="M-213.4245 35.6627 Q-213.4245 37.7252 -214.4636 38.9049 Q-215.5026 40.0846 -217.3464 40.0846 Q-219.237 40.0846 -220.2682 38.9205 Q-221.2995 37.7564 -221.2995 35.6471 Q-221.2995 33.5533 -220.2682 32.4049 Q-219.237 31.2564 -217.3464 31.2564 Q-215.487 31.2564 -214.4557 32.4283 Q-213.4245 33.6002 -213.4245 35.6627 ZM-220.2526 35.6627 Q-220.2526 37.3971 -219.5104 38.3033 Q-218.7682 39.2096 -217.3464 39.2096 Q-215.9245 39.2096 -215.1979 38.3111 Q-214.4714 37.4127 -214.4714 35.6627 Q-214.4714 33.9283 -215.1979 33.0377 Q-215.9245 32.1471 -217.3464 32.1471 Q-218.7682 32.1471 -219.5104 33.0455 Q-220.2526 33.9439 -220.2526 35.6627 Z"/><path style="stroke:none;" d="M-222.2995 39.9596 L-223.2995 39.9596 L-223.2995 35.9283 L-227.8151 35.9283 L-227.8151 39.9596 L-228.8151 39.9596 L-228.8151 31.3971 L-227.8151 31.3971 L-227.8151 35.0377 L-223.2995 35.0377 L-223.2995 31.3971 L-222.2995 31.3971 L-222.2995 39.9596 Z"/><path style="stroke:none;" d="M20.4615 -188.5213 Q20.4615 -186.4588 19.4224 -185.2791 Q18.3834 -184.0994 16.5396 -184.0994 Q14.649 -184.0994 13.6178 -185.2635 Q12.5865 -186.4276 12.5865 -188.5369 Q12.5865 -190.6307 13.6178 -191.7791 Q14.649 -192.9276 16.5396 -192.9276 Q18.399 -192.9276 19.4303 -191.7557 Q20.4615 -190.5838 20.4615 -188.5213 ZM13.6334 -188.5213 Q13.6334 -186.7869 14.3756 -185.8807 Q15.1178 -184.9744 16.5396 -184.9744 Q17.9615 -184.9744 18.6881 -185.8729 Q19.4146 -186.7713 19.4146 -188.5213 Q19.4146 -190.2557 18.6881 -191.1463 Q17.9615 -192.0369 16.5396 -192.0369 Q15.1178 -192.0369 14.3756 -191.1385 Q13.6334 -190.2401 13.6334 -188.5213 Z"/><path style="stroke:none;" d="M11.5865 -184.2244 L10.5865 -184.2244 L10.5865 -188.2557 L6.0709 -188.2557 L6.0709 -184.2244 L5.0709 -184.2244 L5.0709 -192.7869 L6.0709 -192.7869 L6.0709 -189.1463 L10.5865 -189.1463 L10.5865 -192.7869 L11.5865 -192.7869 L11.5865 -184.2244 Z"/><path style="stroke:none;" d="M-166.3905 188.3807 Q-166.3905 190.4432 -167.4296 191.6229 Q-168.4686 192.8026 -170.3124 192.8026 Q-172.203 192.8026 -173.2343 191.6385 Q-174.2655 190.4744 -174.2655 188.3651 Q-174.2655 186.2713 -173.2343 185.1229 Q-172.203 183.9744 -170.3124 183.9744 Q-168.453 183.9744 -167.4218 185.1463 Q-166.3905 186.3182 -166.3905 188.3807 ZM-173.2186 188.3807 Q-173.2186 190.1151 -172.4764 191.0213 Q-171.7343 191.9276 -170.3124 191.9276 Q-168.8905 191.9276 -168.1639 191.0291 Q-167.4374 190.1307 -167.4374 188.3807 Q-167.4374 186.6463 -168.1639 185.7557 Q-168.8905 184.8651 -170.3124 184.8651 Q-171.7343 184.8651 -172.4764 185.7635 Q-173.2186 186.6619 -173.2186 188.3807 Z"/><path style="stroke:none;" d="M-175.2655 192.6776 L-176.2655 192.6776 L-176.2655 188.6463 L-180.7811 188.6463 L-180.7811 192.6776 L-181.7811 192.6776 L-181.7811 184.1151 L-180.7811 184.1151 L-180.7811 187.7557 L-176.2655 187.7557 L-176.2655 184.1151 L-175.2655 184.1151 L-175.2655 192.6776 Z"/><path style="stroke:none;" d="M221.2995 33.5777 Q221.2995 35.6402 220.2604 36.8199 Q219.2214 37.9996 217.3776 37.9996 Q215.487 37.9996 214.4557 36.8355 Q213.4245 35.6714 213.4245 33.5621 Q213.4245 31.4683 214.4557 30.3199 Q215.487 29.1714 217.3776 29.1714 Q219.237 29.1714 220.2682 30.3433 Q221.2995 31.5152 221.2995 33.5777 ZM214.4714 33.5777 Q214.4714 35.3121 215.2136 36.2183 Q215.9557 37.1246 217.3776 37.1246 Q218.7995 37.1246 219.5261 36.2261 Q220.2526 35.3277 220.2526 33.5777 Q220.2526 31.8433 219.5261 30.9527 Q218.7995 30.0621 217.3776 30.0621 Q215.9557 30.0621 215.2136 30.9605 Q214.4714 31.8589 214.4714 33.5777 Z"/><path style="stroke:none;" d="M228.8151 37.8746 L227.8151 37.8746 L227.8151 33.8433 L223.2995 33.8433 L223.2995 37.8746 L222.2995 37.8746 L222.2995 29.3121 L223.2995 29.3121 L223.2995 32.9527 L227.8151 32.9527 L227.8151 29.3121 L228.8151 29.3121 L228.8151 37.8746 Z"/></g><g transform="translate(232,196)" style="stroke-linecap:butt; font-size:8.4px; fill:gray; text-rendering:geometricPrecision; image-rendering:optimizeQuality; color-rendering:optimizeQuality; font-family:'Open Sans'; font-style:italic; stroke:gray; color-interpolation:linearRGB; stroke-miterlimit:5;"><path style="stroke:none;" d="M-37.2067 -52.002 Q-37.2067 -53.3301 -36.738 -54.4551 Q-36.2692 -55.5801 -35.238 -56.6582 L-34.6286 -56.6582 Q-35.5973 -55.5957 -36.0817 -54.4239 Q-36.5661 -53.252 -36.5661 -52.0176 Q-36.5661 -50.6895 -36.1286 -49.6739 L-36.6442 -49.6739 Q-37.2067 -50.7051 -37.2067 -52.002 ZM-31.5842 -52.5957 Q-31.5842 -51.7676 -32.131 -51.3145 Q-32.6779 -50.8614 -33.6779 -50.8614 Q-34.0842 -50.8614 -34.3967 -50.9161 Q-34.7092 -50.9707 -34.9904 -51.1114 L-34.9904 -51.7676 Q-34.3654 -51.4395 -33.6623 -51.4395 Q-33.0373 -51.4395 -32.6623 -51.7364 Q-32.2873 -52.0332 -32.2873 -52.5489 Q-32.2873 -52.8614 -32.4904 -53.0879 Q-32.6935 -53.3145 -33.256 -53.6426 Q-33.8498 -53.9707 -34.0763 -54.2989 Q-34.3029 -54.627 -34.3029 -55.0801 Q-34.3029 -55.8145 -33.7873 -56.2754 Q-33.2717 -56.7364 -32.4279 -56.7364 Q-32.0529 -56.7364 -31.717 -56.6582 Q-31.381 -56.5801 -31.006 -56.4082 L-31.2717 -55.8145 Q-31.5217 -55.9707 -31.842 -56.0567 Q-32.1623 -56.1426 -32.4279 -56.1426 Q-32.9592 -56.1426 -33.2795 -55.8692 Q-33.5998 -55.5957 -33.5998 -55.127 Q-33.5998 -54.9239 -33.5295 -54.7754 Q-33.4592 -54.627 -33.3185 -54.4942 Q-33.1779 -54.3614 -32.756 -54.1114 Q-32.1935 -53.7676 -31.9904 -53.5723 Q-31.7873 -53.377 -31.6857 -53.1426 Q-31.5842 -52.9082 -31.5842 -52.5957 ZM-28.9897 -54.3145 Q-28.9897 -52.9864 -29.4662 -51.8536 Q-29.9428 -50.7207 -30.9584 -49.6739 L-31.5678 -49.6739 Q-29.6303 -51.8301 -29.6303 -54.3145 Q-29.6303 -55.6426 -30.0678 -56.6582 L-29.5522 -56.6582 Q-28.9897 -55.5957 -28.9897 -54.3145 Z"/><path style="fill:none; stroke:black;" d="M-55.7475 -20.1795 L-55.272 -20.025 L-55.1681 -19.5359"/><path style="stroke:none;" d="M-62.4707 -57.8513 Q-62.4707 -59.1795 -62.002 -60.3045 Q-61.5332 -61.4295 -60.502 -62.5076 L-59.8926 -62.5076 Q-60.8614 -61.4451 -61.3457 -60.2732 Q-61.8301 -59.1013 -61.8301 -57.867 Q-61.8301 -56.5388 -61.3926 -55.5232 L-61.9082 -55.5232 Q-62.4707 -56.5545 -62.4707 -57.8513 ZM-56.8482 -58.4451 Q-56.8482 -57.617 -57.395 -57.1638 Q-57.9419 -56.7107 -58.9419 -56.7107 Q-59.3482 -56.7107 -59.6607 -56.7654 Q-59.9732 -56.8201 -60.2544 -56.9607 L-60.2544 -57.617 Q-59.6294 -57.2888 -58.9263 -57.2888 Q-58.3013 -57.2888 -57.9263 -57.5857 Q-57.5513 -57.8826 -57.5513 -58.3982 Q-57.5513 -58.7107 -57.7544 -58.9373 Q-57.9575 -59.1638 -58.52 -59.492 Q-59.1138 -59.8201 -59.3404 -60.1482 Q-59.5669 -60.4763 -59.5669 -60.9295 Q-59.5669 -61.6638 -59.0513 -62.1248 Q-58.5357 -62.5857 -57.6919 -62.5857 Q-57.3169 -62.5857 -56.981 -62.5076 Q-56.645 -62.4295 -56.27 -62.2576 L-56.5357 -61.6638 Q-56.7857 -61.8201 -57.106 -61.906 Q-57.4263 -61.992 -57.6919 -61.992 Q-58.2232 -61.992 -58.5435 -61.7185 Q-58.8638 -61.4451 -58.8638 -60.9763 Q-58.8638 -60.7732 -58.7935 -60.6248 Q-58.7232 -60.4763 -58.5825 -60.3435 Q-58.4419 -60.2107 -58.02 -59.9607 Q-57.4575 -59.617 -57.2544 -59.4216 Q-57.0513 -59.2263 -56.9497 -58.992 Q-56.8482 -58.7576 -56.8482 -58.4451 ZM-54.2537 -60.1638 Q-54.2537 -58.8357 -54.7302 -57.7029 Q-55.2068 -56.5701 -56.2224 -55.5232 L-56.8318 -55.5232 Q-54.8943 -57.6795 -54.8943 -60.1638 Q-54.8943 -61.492 -55.3318 -62.5076 L-54.8162 -62.5076 Q-54.2537 -61.4451 -54.2537 -60.1638 Z"/><path style="fill:none; stroke:black;" d="M-83.3295 -29.1405 L-83.805 -29.295 L-84.1766 -28.9604"/><path style="fill:none; stroke:black;" d="M-49.1389 8.8319 L-49.035 9.321 L-49.4066 9.6555"/></g><g transform="translate(232,196)" style="stroke-linecap:butt; fill:rgb(230,0,0); text-rendering:geometricPrecision; color-rendering:optimizeQuality; image-rendering:optimizeQuality; font-family:'Open Sans'; stroke:rgb(230,0,0); color-interpolation:linearRGB; stroke-miterlimit:5;"><path style="stroke:none;" d="M-79.8675 -59.3653 Q-79.8675 -57.3028 -80.9066 -56.1231 Q-81.9456 -54.9434 -83.7894 -54.9434 Q-85.68 -54.9434 -86.7113 -56.1075 Q-87.7425 -57.2716 -87.7425 -59.3809 Q-87.7425 -61.4747 -86.7113 -62.6231 Q-85.68 -63.7716 -83.7894 -63.7716 Q-81.93 -63.7716 -80.8988 -62.5997 Q-79.8675 -61.4278 -79.8675 -59.3653 ZM-86.6956 -59.3653 Q-86.6956 -57.6309 -85.9534 -56.7247 Q-85.2113 -55.8184 -83.7894 -55.8184 Q-82.3675 -55.8184 -81.6409 -56.7169 Q-80.9144 -57.6153 -80.9144 -59.3653 Q-80.9144 -61.0997 -81.6409 -61.9903 Q-82.3675 -62.8809 -83.7894 -62.8809 Q-85.2113 -62.8809 -85.9534 -61.9825 Q-86.6956 -61.0841 -86.6956 -59.3653 Z"/><path style="fill:none; stroke:black;" d="M-71.8065 29.2395 L-71.331 29.394 L-71.227 29.8831"/><path style="fill:none; stroke:black;" d="M-99.3855 20.2785 L-99.861 20.124 L-99.9649 19.6349"/><path style="fill:none; stroke:black;" d="M7.112 -69.842 L7.362 -70.275 L7.112 -70.708"/><path style="fill:none; stroke:black;" d="M7.112 -18.748 L7.362 -18.315 L7.862 -18.315"/><path style="fill:none; stroke:black;" d="M37.612 -18.748 L37.362 -18.315 L37.612 -17.882"/><path style="fill:none; stroke:black;" d="M52.112 -43.862 L52.362 -44.295 L52.862 -44.295"/><path style="fill:none; stroke:black;" d="M-133.9836 2.5111 L-133.914 2.016 L-134.308 1.7082"/></g><g transform="translate(232,196)" style="stroke-linecap:butt; font-size:8.4px; fill:gray; text-rendering:geometricPrecision; image-rendering:optimizeQuality; color-rendering:optimizeQuality; font-family:'Open Sans'; font-style:italic; stroke:gray; color-interpolation:linearRGB; stroke-miterlimit:5;"><path style="stroke:none;" d="M-136.9111 -6.7226 Q-136.9111 -8.0508 -136.4423 -9.1758 Q-135.9736 -10.3008 -134.9423 -11.3789 L-134.3329 -11.3789 Q-135.3017 -10.3164 -135.7861 -9.1445 Q-136.2704 -7.9726 -136.2704 -6.7383 Q-136.2704 -5.4101 -135.8329 -4.3945 L-136.3486 -4.3945 Q-136.9111 -5.4258 -136.9111 -6.7226 ZM-133.351 -8.0351 L-133.851 -5.6601 L-134.5072 -5.6601 L-133.3041 -11.3789 L-132.0541 -11.3789 Q-130.3197 -11.3789 -130.3197 -9.9414 Q-130.3197 -8.582 -131.7572 -8.1914 L-130.8197 -5.6601 L-131.5385 -5.6601 L-132.3666 -8.0351 L-133.351 -8.0351 ZM-132.7729 -10.7851 Q-133.1635 -8.8633 -133.226 -8.6133 L-132.5697 -8.6133 Q-131.8197 -8.6133 -131.4135 -8.9414 Q-131.0072 -9.2695 -131.0072 -9.8945 Q-131.0072 -10.3633 -131.2651 -10.5742 Q-131.5229 -10.7851 -132.1166 -10.7851 L-132.7729 -10.7851 ZM-128.1338 -9.0351 Q-128.1338 -7.707 -128.6103 -6.5742 Q-129.0869 -5.4414 -130.1025 -4.3945 L-130.7119 -4.3945 Q-128.7744 -6.5508 -128.7744 -9.0351 Q-128.7744 -10.3633 -129.2119 -11.3789 L-128.6963 -11.3789 Q-128.1338 -10.3164 -128.1338 -9.0351 Z"/></g><g transform="translate(232,196)" style="stroke-linecap:butt; fill:rgb(230,0,0); text-rendering:geometricPrecision; color-rendering:optimizeQuality; image-rendering:optimizeQuality; font-family:'Open Sans'; stroke:rgb(230,0,0); color-interpolation:linearRGB; stroke-miterlimit:5;"><path style="stroke:none;" d="M-134.1525 31.6547 Q-134.1525 33.7172 -135.1916 34.8969 Q-136.2306 36.0766 -138.0744 36.0766 Q-139.965 36.0766 -140.9963 34.9125 Q-142.0275 33.7484 -142.0275 31.6391 Q-142.0275 29.5453 -140.9963 28.3969 Q-139.965 27.2484 -138.0744 27.2484 Q-136.215 27.2484 -135.1838 28.4203 Q-134.1525 29.5922 -134.1525 31.6547 ZM-140.9806 31.6547 Q-140.9806 33.3891 -140.2384 34.2953 Q-139.4963 35.2016 -138.0744 35.2016 Q-136.6525 35.2016 -135.9259 34.3031 Q-135.1994 33.4047 -135.1994 31.6547 Q-135.1994 29.9203 -135.9259 29.0297 Q-136.6525 28.1391 -138.0744 28.1391 Q-139.4963 28.1391 -140.2384 29.0375 Q-140.9806 29.9359 -140.9806 31.6547 Z"/></g><g transform="translate(232,196)" style="stroke-linecap:butt; font-size:8.4px; fill:gray; text-rendering:geometricPrecision; image-rendering:optimizeQuality; color-rendering:optimizeQuality; font-family:'Open Sans'; font-style:italic; stroke:gray; color-interpolation:linearRGB; stroke-miterlimit:5;"><path style="stroke:none;" d="M-169.8228 -21.4445 Q-169.8228 -22.7726 -169.354 -23.8976 Q-168.8853 -25.0226 -167.854 -26.1008 L-167.2447 -26.1008 Q-168.2134 -25.0383 -168.6978 -23.8664 Q-169.1822 -22.6945 -169.1822 -21.4601 Q-169.1822 -20.132 -168.7447 -19.1164 L-169.2603 -19.1164 Q-169.8228 -20.1476 -169.8228 -21.4445 ZM-166.2627 -22.757 L-166.7627 -20.382 L-167.419 -20.382 L-166.2159 -26.1008 L-164.9659 -26.1008 Q-163.2315 -26.1008 -163.2315 -24.6633 Q-163.2315 -23.3039 -164.669 -22.9133 L-163.7315 -20.382 L-164.4502 -20.382 L-165.2784 -22.757 L-166.2627 -22.757 ZM-165.6846 -25.507 Q-166.0752 -23.5851 -166.1377 -23.3351 L-165.4815 -23.3351 Q-164.7315 -23.3351 -164.3252 -23.6633 Q-163.919 -23.9914 -163.919 -24.6164 Q-163.919 -25.0851 -164.1768 -25.2961 Q-164.4346 -25.507 -165.0284 -25.507 L-165.6846 -25.507 ZM-161.0455 -23.757 Q-161.0455 -22.4289 -161.5221 -21.2961 Q-161.9986 -20.1633 -163.0143 -19.1164 L-163.6236 -19.1164 Q-161.6861 -21.2726 -161.6861 -23.757 Q-161.6861 -25.0851 -162.1236 -26.1008 L-161.608 -26.1008 Q-161.0455 -25.0383 -161.0455 -23.757 Z"/><path style="fill:none; stroke:black;" d="M-165.4424 42.7757 L-165.906 42.963 L-166.3 42.6552"/><path style="stroke:none;" d="M-168.9031 34.2244 Q-168.9031 32.8962 -168.4343 31.7712 Q-167.9656 30.6462 -166.9343 29.5681 L-166.3249 29.5681 Q-167.2937 30.6306 -167.7781 31.8025 Q-168.2624 32.9744 -168.2624 34.2087 Q-168.2624 35.5369 -167.8249 36.5525 L-168.3406 36.5525 Q-168.9031 35.5212 -168.9031 34.2244 ZM-165.343 32.9119 L-165.843 35.2869 L-166.4993 35.2869 L-165.2961 29.5681 L-164.0461 29.5681 Q-162.3118 29.5681 -162.3118 31.0056 Q-162.3118 32.365 -163.7493 32.7556 L-162.8118 35.2869 L-163.5305 35.2869 L-164.3586 32.9119 L-165.343 32.9119 ZM-164.7649 30.1619 Q-165.1555 32.0837 -165.218 32.3337 L-164.5618 32.3337 Q-163.8118 32.3337 -163.4055 32.0056 Q-162.9993 31.6775 -162.9993 31.0525 Q-162.9993 30.5837 -163.2571 30.3728 Q-163.5149 30.1619 -164.1086 30.1619 L-164.7649 30.1619 ZM-160.1258 31.9119 Q-160.1258 33.24 -160.6023 34.3728 Q-161.0789 35.5056 -162.0945 36.5525 L-162.7039 36.5525 Q-160.7664 34.3962 -160.7664 31.9119 Q-160.7664 30.5837 -161.2039 29.5681 L-160.6883 29.5681 Q-160.1258 30.6306 -160.1258 31.9119 Z"/><path style="fill:none; stroke:black;" d="M-184.9064 -5.4013 L-185.37 -5.214 L-185.4396 -4.7189"/><path style="stroke:none;" d="M-188.0865 -13.9135 Q-188.0865 -15.2416 -187.6178 -16.3666 Q-187.149 -17.4916 -186.1178 -18.5698 L-185.5084 -18.5698 Q-186.4772 -17.5073 -186.9615 -16.3354 Q-187.4459 -15.1635 -187.4459 -13.9291 Q-187.4459 -12.601 -187.0084 -11.5854 L-187.524 -11.5854 Q-188.0865 -12.6166 -188.0865 -13.9135 ZM-182.464 -14.5073 Q-182.464 -13.6791 -183.0109 -13.226 Q-183.5577 -12.7729 -184.5577 -12.7729 Q-184.964 -12.7729 -185.2765 -12.8276 Q-185.589 -12.8823 -185.8702 -13.0229 L-185.8702 -13.6791 Q-185.2452 -13.351 -184.5421 -13.351 Q-183.9171 -13.351 -183.5421 -13.6479 Q-183.1671 -13.9448 -183.1671 -14.4604 Q-183.1671 -14.7729 -183.3702 -14.9995 Q-183.5734 -15.226 -184.1359 -15.5541 Q-184.7296 -15.8823 -184.9562 -16.2104 Q-185.1827 -16.5385 -185.1827 -16.9916 Q-185.1827 -17.726 -184.6671 -18.187 Q-184.1515 -18.6479 -183.3077 -18.6479 Q-182.9327 -18.6479 -182.5968 -18.5698 Q-182.2609 -18.4916 -181.8859 -18.3198 L-182.1515 -17.726 Q-182.4015 -17.8823 -182.7218 -17.9682 Q-183.0421 -18.0541 -183.3077 -18.0541 Q-183.839 -18.0541 -184.1593 -17.7807 Q-184.4796 -17.5073 -184.4796 -17.0385 Q-184.4796 -16.8354 -184.4093 -16.687 Q-184.339 -16.5385 -184.1984 -16.4057 Q-184.0577 -16.2729 -183.6359 -16.0229 Q-183.0734 -15.6791 -182.8702 -15.4838 Q-182.6671 -15.2885 -182.5656 -15.0541 Q-182.464 -14.8198 -182.464 -14.5073 ZM-179.8695 -16.226 Q-179.8695 -14.8979 -180.3461 -13.7651 Q-180.8226 -12.6323 -181.8383 -11.5854 L-182.4476 -11.5854 Q-180.5101 -13.7416 -180.5101 -16.226 Q-180.5101 -17.5541 -180.9476 -18.5698 L-180.432 -18.5698 Q-179.8695 -17.5073 -179.8695 -16.226 Z"/><path style="stroke:none;" d="M-201.5347 19.5415 Q-201.5347 18.2134 -201.0659 17.0884 Q-200.5972 15.9634 -199.5659 14.8853 L-198.9565 14.8853 Q-199.9253 15.9478 -200.4097 17.1197 Q-200.894 18.2915 -200.894 19.5259 Q-200.894 20.854 -200.4565 21.8697 L-200.9722 21.8697 Q-201.5347 20.8384 -201.5347 19.5415 ZM-195.9121 18.9478 Q-195.9121 19.7759 -196.459 20.229 Q-197.0059 20.6822 -198.0059 20.6822 Q-198.4121 20.6822 -198.7246 20.6275 Q-199.0371 20.5728 -199.3184 20.4322 L-199.3184 19.7759 Q-198.6934 20.104 -197.9902 20.104 Q-197.3652 20.104 -196.9902 19.8072 Q-196.6152 19.5103 -196.6152 18.9947 Q-196.6152 18.6822 -196.8184 18.4556 Q-197.0215 18.229 -197.584 17.9009 Q-198.1777 17.5728 -198.4043 17.2447 Q-198.6309 16.9165 -198.6309 16.4634 Q-198.6309 15.729 -198.1152 15.2681 Q-197.5996 14.8072 -196.7559 14.8072 Q-196.3809 14.8072 -196.0449 14.8853 Q-195.709 14.9634 -195.334 15.1353 L-195.5996 15.729 Q-195.8496 15.5728 -196.1699 15.4869 Q-196.4902 15.4009 -196.7559 15.4009 Q-197.2871 15.4009 -197.6074 15.6744 Q-197.9277 15.9478 -197.9277 16.4165 Q-197.9277 16.6197 -197.8574 16.7681 Q-197.7871 16.9165 -197.6465 17.0494 Q-197.5059 17.1822 -197.084 17.4322 Q-196.5215 17.7759 -196.3184 17.9712 Q-196.1152 18.1665 -196.0137 18.4009 Q-195.9121 18.6353 -195.9121 18.9478 ZM-193.3176 17.229 Q-193.3176 18.5572 -193.7942 19.69 Q-194.2708 20.8228 -195.2864 21.8697 L-195.8958 21.8697 Q-193.9583 19.7134 -193.9583 17.229 Q-193.9583 15.9009 -194.3958 14.8853 L-193.8801 14.8853 Q-193.3176 15.9478 -193.3176 17.229 Z"/><path style="fill:none; stroke:black;" d="M31.6812 -99.99 L32.151 -99.819 L32.534 -100.1404"/><path style="stroke:none;" d="M26.0259 -108.503 Q26.0259 -109.8311 26.4947 -110.9561 Q26.9634 -112.0811 27.9947 -113.1593 L28.604 -113.1593 Q27.6353 -112.0968 27.1509 -110.9249 Q26.6665 -109.753 26.6665 -108.5186 Q26.6665 -107.1905 27.104 -106.1749 L26.5884 -106.1749 Q26.0259 -107.2061 26.0259 -108.503 ZM29.586 -109.8155 L29.086 -107.4405 L28.4297 -107.4405 L29.6328 -113.1593 L30.8828 -113.1593 Q32.6172 -113.1593 32.6172 -111.7218 Q32.6172 -110.3624 31.1797 -109.9718 L32.1172 -107.4405 L31.3985 -107.4405 L30.5703 -109.8155 L29.586 -109.8155 ZM30.1641 -112.5655 Q29.7735 -110.6436 29.711 -110.3936 L30.3672 -110.3936 Q31.1172 -110.3936 31.5235 -110.7218 Q31.9297 -111.0499 31.9297 -111.6749 Q31.9297 -112.1436 31.6719 -112.3546 Q31.4141 -112.5655 30.8203 -112.5655 L30.1641 -112.5655 ZM34.8032 -110.8155 Q34.8032 -109.4874 34.3266 -108.3546 Q33.8501 -107.2218 32.8344 -106.1749 L32.2251 -106.1749 Q34.1626 -108.3311 34.1626 -110.8155 Q34.1626 -112.1436 33.7251 -113.1593 L34.2407 -113.1593 Q34.8032 -112.0968 34.8032 -110.8155 Z"/></g><g transform="translate(232,196)" style="stroke-linecap:butt; fill:rgb(230,0,0); text-rendering:geometricPrecision; color-rendering:optimizeQuality; image-rendering:optimizeQuality; font-family:'Open Sans'; stroke:rgb(230,0,0); color-interpolation:linearRGB; stroke-miterlimit:5;"><path style="stroke:none;" d="M7.8975 -110.1493 Q7.8975 -108.0868 6.8584 -106.9071 Q5.8194 -105.7274 3.9756 -105.7274 Q2.085 -105.7274 1.0538 -106.8915 Q0.0225 -108.0556 0.0225 -110.1649 Q0.0225 -112.2587 1.0538 -113.4071 Q2.085 -114.5556 3.9756 -114.5556 Q5.835 -114.5556 6.8663 -113.3837 Q7.8975 -112.2118 7.8975 -110.1493 ZM1.0694 -110.1493 Q1.0694 -108.4149 1.8116 -107.5087 Q2.5538 -106.6024 3.9756 -106.6024 Q5.3975 -106.6024 6.1241 -107.5009 Q6.8506 -108.3993 6.8506 -110.1493 Q6.8506 -111.8837 6.1241 -112.7743 Q5.3975 -113.6649 3.9756 -113.6649 Q2.5538 -113.6649 1.8116 -112.7665 Q1.0694 -111.8681 1.0694 -110.1493 Z"/></g><g transform="translate(232,196)" style="stroke-linecap:butt; font-size:8.4px; fill:gray; text-rendering:geometricPrecision; image-rendering:optimizeQuality; color-rendering:optimizeQuality; font-family:'Open Sans'; font-style:italic; stroke:gray; color-interpolation:linearRGB; stroke-miterlimit:5;"><path style="stroke:none;" d="M41.3482 -121.3584 Q41.3482 -122.6865 41.8169 -123.8115 Q42.2857 -124.9365 43.3169 -126.0147 L43.9263 -126.0147 Q42.9576 -124.9522 42.4732 -123.7803 Q41.9888 -122.6084 41.9888 -121.374 Q41.9888 -120.0459 42.4263 -119.0303 L41.9107 -119.0303 Q41.3482 -120.0615 41.3482 -121.3584 ZM44.9082 -122.6709 L44.4082 -120.2959 L43.752 -120.2959 L44.9551 -126.0147 L46.2051 -126.0147 Q47.9395 -126.0147 47.9395 -124.5772 Q47.9395 -123.2178 46.502 -122.8272 L47.4395 -120.2959 L46.7207 -120.2959 L45.8926 -122.6709 L44.9082 -122.6709 ZM45.4864 -125.4209 Q45.0957 -123.499 45.0332 -123.249 L45.6895 -123.249 Q46.4395 -123.249 46.8457 -123.5772 Q47.252 -123.9053 47.252 -124.5303 Q47.252 -124.999 46.9942 -125.21 Q46.7364 -125.4209 46.1426 -125.4209 L45.4864 -125.4209 ZM50.1255 -123.6709 Q50.1255 -122.3428 49.6489 -121.21 Q49.1723 -120.0772 48.1567 -119.0303 L47.5473 -119.0303 Q49.4848 -121.1865 49.4848 -123.6709 Q49.4848 -124.999 49.0473 -126.0147 L49.563 -126.0147 Q50.1255 -124.9522 50.1255 -123.6709 Z"/><path style="fill:none; stroke:black;" d="M-1.1612 -139.1336 L-1.248 -139.626 L-0.865 -139.9474"/><path style="stroke:none;" d="M-7.373 -148.31 Q-7.373 -149.6382 -6.9043 -150.7632 Q-6.4355 -151.8882 -5.4043 -152.9663 L-4.7949 -152.9663 Q-5.7637 -151.9038 -6.248 -150.7319 Q-6.7324 -149.56 -6.7324 -148.3257 Q-6.7324 -146.9975 -6.2949 -145.9819 L-6.8105 -145.9819 Q-7.373 -147.0132 -7.373 -148.31 ZM-3.813 -149.6225 L-4.313 -147.2475 L-4.9692 -147.2475 L-3.7661 -152.9663 L-2.5161 -152.9663 Q-0.7817 -152.9663 -0.7817 -151.5288 Q-0.7817 -150.1694 -2.2192 -149.7788 L-1.2817 -147.2475 L-2.0005 -147.2475 L-2.8286 -149.6225 L-3.813 -149.6225 ZM-3.2349 -152.3725 Q-3.6255 -150.4507 -3.688 -150.2007 L-3.0317 -150.2007 Q-2.2817 -150.2007 -1.8755 -150.5288 Q-1.4692 -150.8569 -1.4692 -151.4819 Q-1.4692 -151.9507 -1.727 -152.1616 Q-1.9849 -152.3725 -2.5786 -152.3725 L-3.2349 -152.3725 ZM1.4042 -150.6225 Q1.4042 -149.2944 0.9277 -148.1616 Q0.4511 -147.0288 -0.5645 -145.9819 L-1.1739 -145.9819 Q0.7636 -148.1382 0.7636 -150.6225 Q0.7636 -151.9507 0.3261 -152.9663 L0.8417 -152.9663 Q1.4042 -151.9038 1.4042 -150.6225 Z"/><path style="fill:none; stroke:black;" d="M50.0098 -148.1546 L49.923 -148.647 L49.4532 -148.818"/><path style="stroke:none;" d="M44.078 -157.2919 Q44.078 -158.6201 44.5468 -159.7451 Q45.0155 -160.8701 46.0468 -161.9482 L46.6561 -161.9482 Q45.6874 -160.8857 45.203 -159.7138 Q44.7186 -158.5419 44.7186 -157.3076 Q44.7186 -155.9794 45.1561 -154.9638 L44.6405 -154.9638 Q44.078 -155.9951 44.078 -157.2919 ZM49.7006 -157.8857 Q49.7006 -157.0576 49.1537 -156.6044 Q48.6068 -156.1513 47.6068 -156.1513 Q47.2006 -156.1513 46.8881 -156.206 Q46.5756 -156.2607 46.2943 -156.4013 L46.2943 -157.0576 Q46.9193 -156.7294 47.6225 -156.7294 Q48.2475 -156.7294 48.6225 -157.0263 Q48.9975 -157.3232 48.9975 -157.8388 Q48.9975 -158.1513 48.7943 -158.3779 Q48.5912 -158.6044 48.0287 -158.9326 Q47.435 -159.2607 47.2084 -159.5888 Q46.9818 -159.9169 46.9818 -160.3701 Q46.9818 -161.1044 47.4975 -161.5654 Q48.0131 -162.0263 48.8568 -162.0263 Q49.2318 -162.0263 49.5678 -161.9482 Q49.9037 -161.8701 50.2787 -161.6982 L50.0131 -161.1044 Q49.7631 -161.2607 49.4428 -161.3466 Q49.1225 -161.4326 48.8568 -161.4326 Q48.3256 -161.4326 48.0053 -161.1591 Q47.685 -160.8857 47.685 -160.4169 Q47.685 -160.2138 47.7553 -160.0654 Q47.8256 -159.9169 47.9662 -159.7841 Q48.1068 -159.6513 48.5287 -159.4013 Q49.0912 -159.0576 49.2943 -158.8623 Q49.4975 -158.6669 49.599 -158.4326 Q49.7006 -158.1982 49.7006 -157.8857 ZM52.2951 -159.6044 Q52.2951 -158.2763 51.8185 -157.1435 Q51.3419 -156.0107 50.3263 -154.9638 L49.7169 -154.9638 Q51.6544 -157.1201 51.6544 -159.6044 Q51.6544 -160.9326 51.2169 -161.9482 L51.7326 -161.9482 Q52.2951 -160.8857 52.2951 -159.6044 Z"/><path style="stroke:none;" d="M8.2266 -161.1242 Q8.2266 -162.4523 8.6954 -163.5773 Q9.1641 -164.7023 10.1954 -165.7805 L10.8047 -165.7805 Q9.836 -164.718 9.3516 -163.5461 Q8.8672 -162.3742 8.8672 -161.1398 Q8.8672 -159.8117 9.3047 -158.7961 L8.7891 -158.7961 Q8.2266 -159.8273 8.2266 -161.1242 ZM13.8492 -161.718 Q13.8492 -160.8898 13.3023 -160.4367 Q12.7554 -159.9836 11.7554 -159.9836 Q11.3492 -159.9836 11.0367 -160.0383 Q10.7242 -160.093 10.4429 -160.2336 L10.4429 -160.8898 Q11.0679 -160.5617 11.771 -160.5617 Q12.396 -160.5617 12.771 -160.8586 Q13.146 -161.1555 13.146 -161.6711 Q13.146 -161.9836 12.9429 -162.2102 Q12.7398 -162.4367 12.1773 -162.7648 Q11.5835 -163.093 11.357 -163.4211 Q11.1304 -163.7492 11.1304 -164.2023 Q11.1304 -164.9367 11.646 -165.3977 Q12.1617 -165.8586 13.0054 -165.8586 Q13.3804 -165.8586 13.7164 -165.7805 Q14.0523 -165.7023 14.4273 -165.5305 L14.1617 -164.9367 Q13.9117 -165.093 13.5914 -165.1789 Q13.271 -165.2648 13.0054 -165.2648 Q12.4742 -165.2648 12.1539 -164.9914 Q11.8335 -164.718 11.8335 -164.2492 Q11.8335 -164.0461 11.9039 -163.8977 Q11.9742 -163.7492 12.1148 -163.6164 Q12.2554 -163.4836 12.6773 -163.2336 Q13.2398 -162.8898 13.4429 -162.6945 Q13.646 -162.4992 13.7476 -162.2648 Q13.8492 -162.0305 13.8492 -161.718 ZM16.4436 -163.4367 Q16.4436 -162.1086 15.9671 -160.9758 Q15.4905 -159.843 14.4749 -158.7961 L13.8655 -158.7961 Q15.803 -160.9523 15.803 -163.4367 Q15.803 -164.7648 15.3655 -165.7805 L15.8812 -165.7805 Q16.4436 -164.718 16.4436 -163.4367 Z"/><path style="fill:none; stroke:black;" d="M-103.339 128.7211 L-103.443 128.232 L-103.9185 128.0775"/><path style="fill:none; stroke:black;" d="M-97.31 157.0859 L-97.206 157.575 L-97.5776 157.9095"/><path style="fill:none; stroke:black;" d="M-131.5005 119.1135 L-131.976 118.959 L-132.3475 119.2936"/><path style="fill:none; stroke:black;" d="M-119.1304 177.3134 L-119.502 177.648 L-119.9775 177.4935"/><path style="fill:none; stroke:black;" d="M-153.8974 138.7004 L-154.269 139.035 L-154.165 139.5241"/><path style="fill:none; stroke:black;" d="M-147.5565 168.5325 L-148.032 168.378 L-148.4036 168.7125"/><path style="fill:none; stroke:black;" d="M127.612 34.081 L127.362 33.648 L126.862 33.648"/><path style="fill:none; stroke:black;" d="M142.112 59.195 L142.362 59.628 L142.862 59.628"/><path style="fill:none; stroke:black;" d="M142.112 8.101 L142.362 7.668 L142.862 7.668"/><path style="fill:none; stroke:black;" d="M171.862 59.628 L172.362 59.628 L172.612 59.195"/><path style="fill:none; stroke:black;" d="M171.862 7.668 L172.362 7.668 L172.612 8.101"/><path style="fill:none; stroke:black;" d="M187.112 34.081 L187.362 33.648 L187.862 33.648"/></g><g transform="translate(232,196)" style="stroke-linecap:butt; text-rendering:geometricPrecision; color-rendering:optimizeQuality; image-rendering:optimizeQuality; font-family:'Open Sans'; color-interpolation:linearRGB; stroke-miterlimit:5;"><path style="stroke:none;" d="M-26.0342 -79.4088 L-27.0342 -79.4088 L-27.0342 -83.44 L-31.5498 -83.44 L-31.5498 -79.4088 L-32.5498 -79.4088 L-32.5498 -87.9713 L-31.5498 -87.9713 L-31.5498 -84.3306 L-27.0342 -84.3306 L-27.0342 -87.9713 L-26.0342 -87.9713 L-26.0342 -79.4088 Z"/></g></g></svg></svg></svg></svg>