<svg xmlns:ns0="http://www.w3.org/2000/svg" xmlns="http://www.w3.org/2000/svg"><g transform="translate(0, 0)"><ns0:svg width="189" viewBox="0 0 189 135" style="fill-opacity:1; color-rendering:auto; color-interpolation:auto; text-rendering:auto; stroke:black; stroke-linecap:square; stroke-miterlimit:10; shape-rendering:auto; stroke-opacity:1; fill:black; stroke-dasharray:none; font-weight:normal; stroke-width:1; font-family:'Open Sans'; font-style:normal; stroke-linejoin:miter; font-size:12; stroke-dashoffset:0; image-rendering:auto;" height="135" class="cas-substance-image"><ns0:svg class="cas-substance-single-component"><ns0:rect y="0" x="0" width="189" stroke="none" ry="7" rx="7" height="135" fill="white" class="cas-substance-group" /><ns0:svg y="0" x="0" width="189" viewBox="0 0 189 135" style="fill:black;" height="135" class="cas-substance-single-component-image"><ns0:svg><ns0:g><ns0:g transform="translate(94,67)" style="text-rendering:geometricPrecision; color-rendering:optimizeQuality; color-interpolation:linearRGB; stroke-linecap:butt; image-rendering:optimizeQuality;"><ns0:line y2="-28.9896" y1="-53.6484" x2="-14.74" x1="-14.74" style="fill:none;" /><ns0:line y2="-28.9896" y1="-53.6484" x2="-11.24" x1="-11.24" style="fill:none;" /><ns0:line y2="28.9896" y1="53.5234" x2="-11.24" x1="-11.24" style="fill:none;" /><ns0:line y2="28.9896" y1="53.5234" x2="-14.74" x1="-14.74" style="fill:none;" /><ns0:line y2="-15" y1="-30" x2="64.953" x1="90.933" style="fill:none;" /><ns0:line y2="15" y1="-15" x2="12.99" x1="12.99" style="fill:none;" /><ns0:line y2="-30" y1="-15" x2="-12.99" x1="12.99" style="fill:none;" /><ns0:line y2="-30" y1="-15" x2="38.97" x1="12.99" style="fill:none;" /><ns0:line y2="-25.9585" y1="-12.9793" x2="38.9701" x1="16.49" style="fill:none;" /><ns0:line y2="30" y1="15" x2="-12.99" x1="12.99" style="fill:none;" /><ns0:line y2="30" y1="15" x2="38.97" x1="12.99" style="fill:none;" /><ns0:line y2="25.9585" y1="12.9793" x2="38.9701" x1="16.49" style="fill:none;" /><ns0:line y2="-15" y1="-30" x2="-38.97" x1="-12.99" style="fill:none;" /><ns0:line y2="-15" y1="-30" x2="64.953" x1="38.97" style="fill:none;" /><ns0:line y2="15" y1="30" x2="-38.97" x1="-12.99" style="fill:none;" /><ns0:line y2="15" y1="30" x2="64.953" x1="38.97" style="fill:none;" /><ns0:line y2="15" y1="-15" x2="-38.97" x1="-38.97" style="fill:none;" /><ns0:line y2="-30" y1="-15" x2="-64.953" x1="-38.97" style="fill:none;" /><ns0:line y2="-25.9585" y1="-12.9791" x2="-64.9529" x1="-42.4699" style="fill:none;" /><ns0:line y2="15" y1="-15" x2="64.953" x1="64.953" style="fill:none;" /><ns0:line y2="12.9793" y1="-12.9793" x2="61.453" x1="61.453" style="fill:none;" /><ns0:line y2="30" y1="15" x2="-64.953" x1="-38.97" style="fill:none;" /><ns0:line y2="25.9585" y1="12.9791" x2="-64.9529" x1="-42.4699" style="fill:none;" /><ns0:line y2="-15" y1="-30" x2="-90.933" x1="-64.953" style="fill:none;" /><ns0:line y2="15" y1="30" x2="-90.933" x1="-64.953" style="fill:none;" /><ns0:line y2="15" y1="-15" x2="-90.933" x1="-90.933" style="fill:none;" /><ns0:line y2="12.9793" y1="-12.9793" x2="-87.433" x1="-87.433" style="fill:none;" /></ns0:g><ns0:g transform="translate(94,67)" style="fill:rgb(230,0,0); text-rendering:geometricPrecision; color-rendering:optimizeQuality; image-rendering:optimizeQuality; font-family:'Open Sans'; stroke:rgb(230,0,0); color-interpolation:linearRGB;"><ns0:path style="stroke:none;" d="M-9.0525 -60.0703 Q-9.0525 -58.0078 -10.0916 -56.8281 Q-11.1306 -55.6484 -12.9744 -55.6484 Q-14.865 -55.6484 -15.8962 -56.8125 Q-16.9275 -57.9766 -16.9275 -60.0859 Q-16.9275 -62.1797 -15.8962 -63.3281 Q-14.865 -64.4766 -12.9744 -64.4766 Q-11.115 -64.4766 -10.0837 -63.3047 Q-9.0525 -62.1328 -9.0525 -60.0703 ZM-15.8806 -60.0703 Q-15.8806 -58.3359 -15.1384 -57.4297 Q-14.3962 -56.5234 -12.9744 -56.5234 Q-11.5525 -56.5234 -10.8259 -57.4219 Q-10.0994 -58.3203 -10.0994 -60.0703 Q-10.0994 -61.8047 -10.8259 -62.6953 Q-11.5525 -63.5859 -12.9744 -63.5859 Q-14.3962 -63.5859 -15.1384 -62.6875 Q-15.8806 -61.7891 -15.8806 -60.0703 Z" /><ns0:path style="stroke:none;" d="M-9.0525 59.9297 Q-9.0525 61.9922 -10.0916 63.1719 Q-11.1306 64.3516 -12.9744 64.3516 Q-14.865 64.3516 -15.8962 63.1875 Q-16.9275 62.0234 -16.9275 59.9141 Q-16.9275 57.8203 -15.8962 56.6719 Q-14.865 55.5234 -12.9744 55.5234 Q-11.115 55.5234 -10.0837 56.6953 Q-9.0525 57.8672 -9.0525 59.9297 ZM-15.8806 59.9297 Q-15.8806 61.6641 -15.1384 62.5703 Q-14.3962 63.4766 -12.9744 63.4766 Q-11.5525 63.4766 -10.8259 62.5781 Q-10.0994 61.6797 -10.0994 59.9297 Q-10.0994 58.1953 -10.8259 57.3047 Q-11.5525 56.4141 -12.9744 56.4141 Q-14.3962 56.4141 -15.1384 57.3125 Q-15.8806 58.2109 -15.8806 59.9297 Z" /></ns0:g><ns0:g transform="translate(94,67)" style="stroke-linecap:butt; text-rendering:geometricPrecision; color-rendering:optimizeQuality; image-rendering:optimizeQuality; font-family:'Open Sans'; color-interpolation:linearRGB; stroke-miterlimit:5;"><ns0:path style="fill:none;" d="M13.423 -15.25 L12.99 -15 L12.99 -14.5" /><ns0:path style="fill:none;" d="M13.423 15.25 L12.99 15 L12.557 15.25" /><ns0:path style="fill:none;" d="M-12.557 -29.75 L-12.99 -30 L-13.423 -29.75" /><ns0:path style="fill:none;" d="M38.537 -29.75 L38.97 -30 L39.403 -29.75" /><ns0:path style="fill:none;" d="M-12.557 29.75 L-12.99 30 L-13.423 29.75" /><ns0:path style="fill:none;" d="M38.537 29.75 L38.97 30 L39.403 29.75" /><ns0:path style="fill:none;" d="M-39.403 -15.25 L-38.97 -15 L-38.537 -15.25" /><ns0:path style="fill:none;" d="M64.953 -14.5 L64.953 -15 L65.386 -15.25" /><ns0:path style="fill:none;" d="M-39.403 15.25 L-38.97 15 L-38.97 14.5" /><ns0:path style="fill:none;" d="M64.52 15.25 L64.953 15 L64.953 14.5" /><ns0:path style="fill:none;" d="M-64.52 -29.75 L-64.953 -30 L-65.386 -29.75" /><ns0:path style="fill:none;" d="M-64.52 29.75 L-64.953 30 L-65.386 29.75" /><ns0:path style="fill:none;" d="M-90.5 -15.25 L-90.933 -15 L-90.933 -14.5" /><ns0:path style="fill:none;" d="M-90.5 15.25 L-90.933 15 L-90.933 14.5" /></ns0:g></ns0:g></ns0:svg></ns0:svg></ns0:svg></ns0:svg></g></svg>