<svg xmlns:ns0="http://www.w3.org/2000/svg" xmlns="http://www.w3.org/2000/svg"><g transform="translate(0, 0)"><ns0:svg width="438" viewBox="0 0 438 131" style="fill-opacity:1; color-rendering:auto; color-interpolation:auto; text-rendering:auto; stroke:black; stroke-linecap:square; stroke-miterlimit:10; shape-rendering:auto; stroke-opacity:1; fill:black; stroke-dasharray:none; font-weight:normal; stroke-width:1; font-family:'Open Sans'; font-style:normal; stroke-linejoin:miter; font-size:12; stroke-dashoffset:0; image-rendering:auto;" height="131" class="cas-substance-image"><ns0:svg class="cas-substance-single-component"><ns0:rect y="0" x="0" width="438" stroke="none" ry="7" rx="7" height="131" fill="white" class="cas-substance-group" /><ns0:svg y="0" x="0" width="438" viewBox="0 0 438 116" style="fill:black;" height="116" class="cas-substance-single-component-image"><ns0:svg><ns0:g><ns0:g transform="translate(219,56)" style="text-rendering:geometricPrecision; color-rendering:optimizeQuality; color-interpolation:linearRGB; stroke-linecap:butt; image-rendering:optimizeQuality;"><ns0:line y2="7.5" y1="-7.5" x2="46.203" x1="72.183" style="fill:none;" /><ns0:line y2="7.5" y1="-7.5" x2="98.166" x1="72.183" style="fill:none;" /><ns0:line y2="-4.5649" y1="7.5" x2="25.3066" x1="46.203" style="fill:none;" /><ns0:line y2="7.5" y1="-4.5649" x2="-5.757" x1="15.1394" style="fill:none;" /><ns0:line y2="-7.5" y1="7.5" x2="-31.74" x1="-5.757" style="fill:none;" /><ns0:line y2="-17.178" y1="-22.491" x2="184.26" x1="209.2561" style="fill:none;" /><ns0:line y2="-7.5" y1="4.2588" x2="-135.663" x1="-115.2943" style="fill:none;" /><ns0:line y2="-7.5" y1="4.274" x2="-83.7" x1="-104.0925" style="fill:none;" /><ns0:line y2="7.5" y1="-7.5" x2="-161.643" x1="-135.663" style="fill:none;" /><ns0:line y2="22.5" y1="7.5" x2="-187.623" x1="-161.643" style="fill:none;" /><ns0:line y2="27.6074" y1="7.5" x2="-150.0336" x1="-161.643" style="fill:none;" /><ns0:line y2="-15.0411" y1="7.5" x2="-174.6575" x1="-161.643" style="fill:none;" /><ns0:line y2="46.0938" y1="22.5" x2="-187.623" x1="-187.623" style="fill:none;" /><ns0:line y2="9.4775" y1="22.5" x2="-210.1779" x1="-187.623" style="fill:none;" /><ns0:line y2="17.592" y1="-4.701" x2="145.644" x1="125.571" style="fill:none;" /><ns0:line y2="7.5" y1="-4.701" x2="98.166" x1="125.571" style="fill:none;" /><ns0:line y2="-33.234" y1="-4.701" x2="134.841" x1="125.571" style="fill:none;" /><ns0:line y2="-30.2307" y1="-5.5414" x2="137.5454" x1="129.5241" style="fill:none;" /><ns0:line y2="37.4337" y1="17.592" x2="134.1881" x1="145.644" style="fill:none;" /><ns0:line y2="11.355" y1="17.592" x2="174.99" x1="145.644" style="fill:none;" /><ns0:line y2="8.3516" y1="13.7484" x2="172.2858" x1="146.893" style="fill:none;" /><ns0:line y2="37.335" y1="7.5" x2="101.301" x1="98.166" style="fill:none;" /><ns0:line y2="34.9596" y1="9.1439" x2="104.5707" x1="101.858" style="fill:none;" /><ns0:line y2="-39.471" y1="-33.234" x2="164.187" x1="134.841" style="fill:none;" /><ns0:line y2="37.335" y1="42.4438" x2="101.301" x1="125.3362" style="fill:none;" /><ns0:line y2="-17.178" y1="11.355" x2="184.26" x1="174.99" style="fill:none;" /><ns0:line y2="-17.178" y1="-39.471" x2="184.26" x1="164.187" style="fill:none;" /><ns0:line y2="-16.3377" y1="-35.6273" x2="180.3069" x1="162.9382" style="fill:none;" /><ns0:line y2="7.5" y1="-7.5" x2="-57.72" x1="-31.74" style="fill:none;" /><ns0:line y2="3.4585" y1="-9.5207" x2="-57.7201" x1="-35.24" style="fill:none;" /><ns0:line y2="-37.5" y1="-7.5" x2="-31.74" x1="-31.74" style="fill:none;" /><ns0:line y2="-7.5" y1="7.5" x2="-83.7" x1="-57.72" style="fill:none;" /><ns0:line y2="-52.5" y1="-37.5" x2="-57.72" x1="-31.74" style="fill:none;" /><ns0:line y2="-48.4585" y1="-35.4793" x2="-57.7201" x1="-35.24" style="fill:none;" /><ns0:line y2="-37.5" y1="-7.5" x2="-83.7" x1="-83.7" style="fill:none;" /><ns0:line y2="-35.4793" y1="-9.5207" x2="-80.2" x1="-80.2" style="fill:none;" /><ns0:line y2="-37.5" y1="-52.5" x2="-83.7" x1="-57.72" style="fill:none;" /><ns0:path style="fill:none; stroke-miterlimit:5;" d="M71.75 -7.25 L72.183 -7.5 L72.616 -7.25" /><ns0:path style="fill:none; stroke-miterlimit:5;" d="M46.636 7.25 L46.203 7.5 L45.77 7.25" /></ns0:g><ns0:g transform="translate(219,56)" style="stroke-linecap:butt; fill:rgb(0,5,255); text-rendering:geometricPrecision; color-rendering:optimizeQuality; image-rendering:optimizeQuality; font-family:'Open Sans'; stroke:rgb(0,5,255); color-interpolation:linearRGB; stroke-miterlimit:5;"><ns0:path style="stroke:none;" d="M23.5746 -3.3438 L22.4339 -3.3438 L17.7464 -10.5312 L17.6996 -10.5312 Q17.7933 -9.2656 17.7933 -8.2188 L17.7933 -3.3438 L16.8714 -3.3438 L16.8714 -11.9062 L17.9964 -11.9062 L22.6683 -4.75 L22.7152 -4.75 Q22.7152 -4.9062 22.6683 -5.7656 Q22.6214 -6.625 22.6371 -7 L22.6371 -11.9062 L23.5746 -11.9062 L23.5746 -3.3438 Z" /><ns0:path style="stroke:none;" d="M23.4808 -12.9062 L22.4808 -12.9062 L22.4808 -16.9375 L17.9652 -16.9375 L17.9652 -12.9062 L16.9652 -12.9062 L16.9652 -21.4688 L17.9652 -21.4688 L17.9652 -17.8281 L22.4808 -17.8281 L22.4808 -21.4688 L23.4808 -21.4688 L23.4808 -12.9062 Z" /><ns0:path style="fill:none; stroke:black;" d="M-5.324 7.25 L-5.757 7.5 L-6.19 7.25" /><ns0:path style="fill:rgb(0,138,0); stroke:none;" d="M212.2124 -19.2587 L211.2124 -19.2587 L211.2124 -27.8212 L215.9936 -27.8212 L215.9936 -26.9462 L212.2124 -26.9462 L212.2124 -23.8056 L215.7592 -23.8056 L215.7592 -22.915 L212.2124 -22.915 L212.2124 -19.2587 Z" /><ns0:path style="fill:rgb(230,0,0); stroke:none;" d="M-105.7425 7.4297 Q-105.7425 9.4922 -106.7816 10.6719 Q-107.8206 11.8516 -109.6644 11.8516 Q-111.555 11.8516 -112.5863 10.6875 Q-113.6175 9.5234 -113.6175 7.4141 Q-113.6175 5.3203 -112.5863 4.1719 Q-111.555 3.0234 -109.6644 3.0234 Q-107.805 3.0234 -106.7738 4.1953 Q-105.7425 5.3672 -105.7425 7.4297 ZM-112.5706 7.4297 Q-112.5706 9.1641 -111.8284 10.0703 Q-111.0863 10.9766 -109.6644 10.9766 Q-108.2425 10.9766 -107.5159 10.0781 Q-106.7894 9.1797 -106.7894 7.4297 Q-106.7894 5.6953 -107.5159 4.8047 Q-108.2425 3.9141 -109.6644 3.9141 Q-111.0863 3.9141 -111.8284 4.8125 Q-112.5706 5.7109 -112.5706 7.4297 Z" /><ns0:path style="fill:none; stroke:black;" d="M-135.23 -7.25 L-135.663 -7.5 L-136.096 -7.25" /><ns0:path style="fill:rgb(0,138,0); stroke:none;" d="M-148.0336 37.6363 L-149.0336 37.6363 L-149.0336 29.0738 L-144.2524 29.0738 L-144.2524 29.9488 L-148.0336 29.9488 L-148.0336 33.0894 L-144.4868 33.0894 L-144.4868 33.98 L-148.0336 33.98 L-148.0336 37.6363 Z" /><ns0:path style="fill:rgb(0,138,0); stroke:none;" d="M-178.0336 -14.3237 L-179.0336 -14.3237 L-179.0336 -22.8862 L-174.2524 -22.8862 L-174.2524 -22.0112 L-178.0336 -22.0112 L-178.0336 -18.8706 L-174.4868 -18.8706 L-174.4868 -17.98 L-178.0336 -17.98 L-178.0336 -14.3237 Z" /><ns0:path style="fill:rgb(0,138,0); stroke:none;" d="M-189.0136 56.6562 L-190.0136 56.6562 L-190.0136 48.0938 L-185.2324 48.0938 L-185.2324 48.9688 L-189.0136 48.9688 L-189.0136 52.1094 L-185.4668 52.1094 L-185.4668 53 L-189.0136 53 L-189.0136 56.6562 Z" /><ns0:path style="fill:rgb(0,138,0); stroke:none;" d="M-214.9936 11.6562 L-215.9936 11.6562 L-215.9936 3.0938 L-211.2124 3.0938 L-211.2124 3.9688 L-214.9936 3.9688 L-214.9936 7.1094 L-211.4467 7.1094 L-211.4467 8 L-214.9936 8 L-214.9936 11.6562 Z" /><ns0:path style="fill:none; stroke:black;" d="M125.7255 -5.1765 L125.571 -4.701 L125.1142 -4.4976" /><ns0:path style="fill:none; stroke:black;" d="M146.1331 17.4881 L145.644 17.592 L145.3094 17.2204" /><ns0:path style="fill:none; stroke:black;" d="M98.2183 7.9973 L98.166 7.5 L97.733 7.25" /><ns0:path style="fill:none; stroke:black;" d="M134.6865 -32.7585 L134.841 -33.234 L135.3301 -33.3379" /><ns0:path style="stroke:none;" d="M133.9956 47.7282 L132.8549 47.7282 L128.1674 40.5407 L128.1206 40.5407 Q128.2143 41.8064 128.2143 42.8532 L128.2143 47.7282 L127.2924 47.7282 L127.2924 39.1657 L128.4174 39.1657 L133.0893 46.322 L133.1362 46.322 Q133.1362 46.1657 133.0893 45.3064 Q133.0424 44.447 133.0581 44.072 L133.0581 39.1657 L133.9956 39.1657 L133.9956 47.7282 Z" /><ns0:path style="stroke:none;" d="M133.9018 57.2907 L132.9018 57.2907 L132.9018 53.2595 L128.3862 53.2595 L128.3862 57.2907 L127.3862 57.2907 L127.3862 48.7282 L128.3862 48.7282 L128.3862 52.3689 L132.9018 52.3689 L132.9018 48.7282 L133.9018 48.7282 L133.9018 57.2907 Z" /><ns0:path style="fill:none; stroke:black;" d="M174.5009 11.4589 L174.99 11.355 L175.1445 10.8795" /><ns0:path style="fill:none; stroke:black;" d="M101.2487 36.8377 L101.301 37.335 L101.7901 37.439" /><ns0:path style="fill:none; stroke:black;" d="M163.6979 -39.3671 L164.187 -39.471 L164.5216 -39.0994" /><ns0:path style="fill:none; stroke:black;" d="M183.9254 -17.5496 L184.26 -17.178 L184.1055 -16.7025" /><ns0:path style="fill:none; stroke:black;" d="M-32.173 -7.25 L-31.74 -7.5 L-31.307 -7.25" /><ns0:path style="fill:none; stroke:black;" d="M-57.287 7.25 L-57.72 7.5 L-58.153 7.25" /><ns0:path style="fill:none; stroke:black;" d="M-31.74 -37 L-31.74 -37.5 L-32.173 -37.75" /><ns0:path style="fill:none; stroke:black;" d="M-83.7 -8 L-83.7 -7.5 L-84.133 -7.25" /><ns0:path style="fill:none; stroke:black;" d="M-57.287 -52.25 L-57.72 -52.5 L-58.153 -52.25" /><ns0:path style="fill:none; stroke:black;" d="M-83.7 -37 L-83.7 -37.5 L-83.267 -37.75" /></ns0:g></ns0:g></ns0:svg></ns0:svg><ns0:svg y="116" x="211" class="cas-substance-saf"><ns0:svg y="5" x="0" width="4" style="fill:black;" height="4" class="cas-substance-saf-dot"><ns0:circle stroke="none" r="2" fill="black" cy="2" cx="2" /></ns0:svg><ns0:svg y="0" x="8" width="22" style="fill:black;" height="15" class="cas-substance-saf-image"><ns0:svg><ns0:g><ns0:g transform="translate(6,8)" style="fill:rgb(0,138,0); text-rendering:geometricPrecision; color-rendering:optimizeQuality; image-rendering:optimizeQuality; font-family:'Open Sans'; stroke:rgb(0,138,0); color-interpolation:linearRGB;"><ns0:path style="stroke:none;" d="M3.2578 4.1562 L2.2578 4.1562 L2.2578 0.125 L-2.2578 0.125 L-2.2578 4.1562 L-3.2578 4.1562 L-3.2578 -4.4062 L-2.2578 -4.4062 L-2.2578 -0.7656 L2.2578 -0.7656 L2.2578 -4.4062 L3.2578 -4.4062 L3.2578 4.1562 Z" /><ns0:path style="stroke:none;" d="M8.3672 -3.6406 Q6.9609 -3.6406 6.1406 -2.7031 Q5.3203 -1.7656 5.3203 -0.125 Q5.3203 1.5469 6.1094 2.4688 Q6.8984 3.3906 8.3516 3.3906 Q9.2578 3.3906 10.3984 3.0625 L10.3984 3.9375 Q9.5078 4.2812 8.2109 4.2812 Q6.3203 4.2812 5.2891 3.125 Q4.2578 1.9688 4.2578 -0.1406 Q4.2578 -1.4688 4.75 -2.4609 Q5.2422 -3.4531 6.1797 -3.9922 Q7.1172 -4.5312 8.3828 -4.5312 Q9.7266 -4.5312 10.7422 -4.0469 L10.3203 -3.1875 Q9.3359 -3.6406 8.3672 -3.6406 ZM13.0938 4.1562 L12.125 4.1562 L12.125 -4.9688 L13.0938 -4.9688 L13.0938 4.1562 Z" /></ns0:g></ns0:g></ns0:svg></ns0:svg></ns0:svg></ns0:svg></ns0:svg></g></svg>