<svg width="152" viewBox="0 0 152 84" style="fill-opacity:1; color-rendering:auto; color-interpolation:auto; text-rendering:auto; stroke:black; stroke-linecap:square; stroke-miterlimit:10; shape-rendering:auto; stroke-opacity:1; fill:black; stroke-dasharray:none; font-weight:normal; stroke-width:1; font-family:'Open Sans'; font-style:normal; stroke-linejoin:miter; font-size:12; stroke-dashoffset:0; image-rendering:auto;" height="84" class="cas-substance-image" xmlns:xlink="http://www.w3.org/1999/xlink" xmlns="http://www.w3.org/2000/svg"><svg class="cas-substance-single-component"><rect y="0" x="0" width="152" stroke="none" ry="7" rx="7" height="84" fill="white" class="cas-substance-group"/><svg y="0" x="0" width="152" viewBox="0 0 152 67" style="fill:black;" height="67" class="cas-substance-single-component-image"><svg><g><g transform="translate(82,33)" style="text-rendering:geometricPrecision; color-rendering:optimizeQuality; color-interpolation:linearRGB; stroke-linecap:butt; image-rendering:optimizeQuality;"><line y2="20.2583" y1="5.8883" x2="-64.1965" x1="-55.8997" style="fill:none;"/><line y2="-20.3443" y1="-6.1383" x2="-64.2461" x1="-56.044" style="fill:none;"/><line y2="0" y1="0" x2="-22.5" x1="-47.5312" style="fill:none;"/><line y2="0" y1="0" x2="37.5" x1="67.5" style="fill:none;"/><line y2="-25.98" y1="0" x2="-7.5" x1="-22.5" style="fill:none;"/><line y2="25.98" y1="0" x2="-7.5" x1="-22.5" style="fill:none;"/><line y2="22.48" y1="-0.0001" x2="-5.4793" x1="-18.4585" style="fill:none;"/><line y2="-25.98" y1="-25.98" x2="22.5" x1="-7.5" style="fill:none;"/><line y2="-22.48" y1="-22.48" x2="20.4793" x1="-5.4793" style="fill:none;"/><line y2="25.98" y1="25.98" x2="17.1484" x1="-7.5" style="fill:none;"/><line y2="0" y1="-25.98" x2="37.5" x1="22.5" style="fill:none;"/><line y2="0" y1="19.8417" x2="37.5" x1="26.044" style="fill:none;"/><line y2="-0.0001" y1="18.0917" x2="33.4585" x1="23.013" style="fill:none;"/><path style="stroke-linecap:square; stroke:none;" d="M-55.4688 -4.4062 L-53.0469 -4.4062 Q-51.3438 -4.4062 -50.5781 -3.8984 Q-49.8125 -3.3906 -49.8125 -2.2969 Q-49.8125 -1.5312 -50.2344 -1.0312 Q-50.6562 -0.5312 -51.4844 -0.3906 L-51.4844 -0.3281 Q-49.5312 0 -49.5312 1.7188 Q-49.5312 2.8594 -50.3047 3.5078 Q-51.0781 4.1562 -52.4688 4.1562 L-55.4688 4.1562 L-55.4688 -4.4062 ZM-54.4688 -0.75 L-52.8281 -0.75 Q-51.7656 -0.75 -51.3047 -1.0781 Q-50.8438 -1.4062 -50.8438 -2.1875 Q-50.8438 -2.9062 -51.3594 -3.2266 Q-51.875 -3.5469 -53 -3.5469 L-54.4688 -3.5469 L-54.4688 -0.75 ZM-54.4688 0.0938 L-54.4688 3.3125 L-52.6719 3.3125 Q-51.6406 3.3125 -51.1172 2.9062 Q-50.5938 2.5 -50.5938 1.6406 Q-50.5938 0.8438 -51.1328 0.4688 Q-51.6719 0.0938 -52.7656 0.0938 L-54.4688 0.0938 Z"/></g><g transform="translate(82,33)" style="fill:rgb(230,0,0); text-rendering:geometricPrecision; color-rendering:optimizeQuality; image-rendering:optimizeQuality; font-family:'Open Sans'; stroke:rgb(230,0,0); color-interpolation:linearRGB;"><path style="stroke:none;" d="M-63.5625 25.9097 Q-63.5625 27.9722 -64.6016 29.1519 Q-65.6406 30.3316 -67.4844 30.3316 Q-69.375 30.3316 -70.4062 29.1675 Q-71.4375 28.0034 -71.4375 25.8941 Q-71.4375 23.8003 -70.4062 22.6519 Q-69.375 21.5034 -67.4844 21.5034 Q-65.625 21.5034 -64.5938 22.6753 Q-63.5625 23.8472 -63.5625 25.9097 ZM-70.3906 25.9097 Q-70.3906 27.6441 -69.6484 28.5503 Q-68.9062 29.4566 -67.4844 29.4566 Q-66.0625 29.4566 -65.3359 28.5581 Q-64.6094 27.6597 -64.6094 25.9097 Q-64.6094 24.1753 -65.3359 23.2847 Q-66.0625 22.3941 -67.4844 22.3941 Q-68.9062 22.3941 -69.6484 23.2925 Q-70.3906 24.1909 -70.3906 25.9097 Z"/><path style="stroke:none;" d="M-72.4375 30.2066 L-73.4375 30.2066 L-73.4375 26.1753 L-77.9531 26.1753 L-77.9531 30.2066 L-78.9531 30.2066 L-78.9531 21.6441 L-77.9531 21.6441 L-77.9531 25.2847 L-73.4375 25.2847 L-73.4375 21.6441 L-72.4375 21.6441 L-72.4375 30.2066 Z"/><path style="stroke:none;" d="M-63.5625 -26.0503 Q-63.5625 -23.9878 -64.6016 -22.8081 Q-65.6406 -21.6284 -67.4844 -21.6284 Q-69.375 -21.6284 -70.4062 -22.7925 Q-71.4375 -23.9566 -71.4375 -26.0659 Q-71.4375 -28.1597 -70.4062 -29.3081 Q-69.375 -30.4566 -67.4844 -30.4566 Q-65.625 -30.4566 -64.5938 -29.2847 Q-63.5625 -28.1128 -63.5625 -26.0503 ZM-70.3906 -26.0503 Q-70.3906 -24.3159 -69.6484 -23.4097 Q-68.9062 -22.5034 -67.4844 -22.5034 Q-66.0625 -22.5034 -65.3359 -23.4019 Q-64.6094 -24.3003 -64.6094 -26.0503 Q-64.6094 -27.7847 -65.3359 -28.6753 Q-66.0625 -29.5659 -67.4844 -29.5659 Q-68.9062 -29.5659 -69.6484 -28.6675 Q-70.3906 -27.7691 -70.3906 -26.0503 Z"/><path style="stroke:none;" d="M-72.4375 -21.7534 L-73.4375 -21.7534 L-73.4375 -25.7847 L-77.9531 -25.7847 L-77.9531 -21.7534 L-78.9531 -21.7534 L-78.9531 -30.3159 L-77.9531 -30.3159 L-77.9531 -26.6753 L-73.4375 -26.6753 L-73.4375 -30.3159 L-72.4375 -30.3159 L-72.4375 -21.7534 Z"/></g><g transform="translate(82,33)" style="stroke-linecap:butt; text-rendering:geometricPrecision; color-rendering:optimizeQuality; image-rendering:optimizeQuality; font-family:'Open Sans'; color-interpolation:linearRGB; stroke-miterlimit:5;"><path style="fill:none;" d="M-22.25 0.433 L-22.5 0 L-23 -0"/><path style="fill:none;" d="M-7.75 -25.547 L-7.5 -25.98 L-7 -25.98"/><path style="fill:none;" d="M-7.75 25.547 L-7.5 25.98 L-7 25.98"/><path style="fill:none;" d="M22 -25.98 L22.5 -25.98 L22.75 -25.547"/><path style="fill:rgb(0,5,255); stroke:none;" d="M25.8516 30.1362 L24.7109 30.1362 L20.0234 22.9487 L19.9766 22.9487 Q20.0703 24.2144 20.0703 25.2612 L20.0703 30.1362 L19.1484 30.1362 L19.1484 21.5737 L20.2734 21.5737 L24.9453 28.73 L24.9922 28.73 Q24.9922 28.5737 24.9453 27.7144 Q24.8984 26.855 24.9141 26.48 L24.9141 21.5737 L25.8516 21.5737 L25.8516 30.1362 Z"/><path style="fill:none;" d="M37.25 0.433 L37.5 0 L38 0"/></g></g></svg></svg><svg y="67" x="68" class="cas-substance-saf"><svg y="4" x="0" width="4" style="fill:black;" height="4" class="cas-substance-saf-dot"><circle stroke="none" r="2" fill="black" cy="2" cx="2"/></svg><svg y="0" x="8" width="26" style="fill:black;" height="17" class="cas-substance-saf-image"><svg><g><g transform="translate(6,8)" style="fill:rgb(230,0,0); text-rendering:geometricPrecision; color-rendering:optimizeQuality; image-rendering:optimizeQuality; font-family:'Open Sans'; stroke:rgb(230,0,0); color-interpolation:linearRGB;"><path style="stroke:none;" d="M3.2578 4.1562 L2.2578 4.1562 L2.2578 0.125 L-2.2578 0.125 L-2.2578 4.1562 L-3.2578 4.1562 L-3.2578 -4.4062 L-2.2578 -4.4062 L-2.2578 -0.7656 L2.2578 -0.7656 L2.2578 -4.4062 L3.2578 -4.4062 L3.2578 4.1562 Z"/><path style="stroke:none;" d="M8.0078 5.9656 L4.2578 5.9656 L4.2578 5.4031 L5.7578 3.8875 Q6.4453 3.2 6.6641 2.9031 Q6.8828 2.6062 6.9922 2.325 Q7.1016 2.0437 7.1016 1.7156 Q7.1016 1.2625 6.8281 0.9969 Q6.5547 0.7312 6.0547 0.7312 Q5.7109 0.7312 5.3906 0.8484 Q5.0703 0.9656 4.6797 1.2625 L4.3359 0.825 Q5.1172 0.1687 6.0547 0.1687 Q6.8516 0.1687 7.3125 0.5828 Q7.7734 0.9969 7.7734 1.6844 Q7.7734 2.2312 7.4688 2.7625 Q7.1641 3.2937 6.3203 4.1062 L5.0703 5.325 L5.0703 5.3562 L8.0078 5.3562 L8.0078 5.9656 Z"/><path style="stroke:none;" d="M16.8828 -0.1406 Q16.8828 1.9219 15.8438 3.1016 Q14.8047 4.2812 12.9609 4.2812 Q11.0703 4.2812 10.0391 3.1172 Q9.0078 1.9531 9.0078 -0.1562 Q9.0078 -2.25 10.0391 -3.3984 Q11.0703 -4.5469 12.9609 -4.5469 Q14.8203 -4.5469 15.8516 -3.375 Q16.8828 -2.2031 16.8828 -0.1406 ZM10.0547 -0.1406 Q10.0547 1.5938 10.7969 2.5 Q11.5391 3.4062 12.9609 3.4062 Q14.3828 3.4062 15.1094 2.5078 Q15.8359 1.6094 15.8359 -0.1406 Q15.8359 -1.875 15.1094 -2.7656 Q14.3828 -3.6562 12.9609 -3.6562 Q11.5391 -3.6562 10.7969 -2.7578 Q10.0547 -1.8594 10.0547 -0.1406 Z"/></g></g></svg></svg></svg></svg></svg>