<svg width="366" viewBox="0 0 366 275" style="fill-opacity:1; color-rendering:auto; color-interpolation:auto; text-rendering:auto; stroke:black; stroke-linecap:square; stroke-miterlimit:10; shape-rendering:auto; stroke-opacity:1; fill:black; stroke-dasharray:none; font-weight:normal; stroke-width:1; font-family:'Open Sans'; font-style:normal; stroke-linejoin:miter; font-size:12; stroke-dashoffset:0; image-rendering:auto;" height="275" class="cas-substance-image" xmlns:xlink="http://www.w3.org/1999/xlink" xmlns="http://www.w3.org/2000/svg"><svg class="cas-substance-single-component"><rect y="0" x="0" width="366" stroke="none" ry="7" rx="7" height="275" fill="white" class="cas-substance-group"/><svg y="0" x="0" width="366" viewBox="0 0 366 275" style="fill:black;" height="275" class="cas-substance-single-component-image"><svg><g><g transform="translate(182,138)" style="text-rendering:geometricPrecision; color-rendering:optimizeQuality; color-interpolation:linearRGB; stroke-linecap:butt; image-rendering:optimizeQuality;"><line y2="-21.903" y1="-21.903" x2="-52.4885" x1="-76.551" style="fill:none;"/><line y2="-47.886" y1="-21.903" x2="-91.551" x1="-76.551" style="fill:none;"/><line y2="4.077" y1="-16.2673" x2="-31.551" x1="-43.2971" style="fill:none;"/><line y2="4.077" y1="4.077" x2="-6.9026" x1="-31.551" style="fill:none;"/><line y2="23.4603" y1="2.327" x2="-44.763" x1="-32.5614" style="fill:none;"/><line y2="25.2103" y1="4.077" x2="-41.732" x1="-29.5303" style="fill:none;"/><line y2="30.057" y1="9.9653" x2="13.449" x1="1.8487" style="fill:none;"/><line y2="30.057" y1="30.057" x2="43.449" x1="13.449" style="fill:none;"/><path style="stroke:none;" d="M12.4392 30.629 L11.8624 31.4511 L11.8624 31.4511 L13.0185 32.1178 L13.0185 32.1178 L13.4504 31.2121 L13.4504 31.2121 L12.4392 30.629 ZM10.7088 33.0953 L10.132 33.9174 L10.132 33.9174 L11.7228 34.8347 L11.7228 34.8347 L12.1547 33.9291 L12.1547 33.9291 L10.7088 33.0953 ZM8.9784 35.5615 L8.4016 36.3836 L8.4016 36.3836 L10.4271 37.5517 L10.4271 37.5517 L10.859 36.646 L10.859 36.646 L8.9784 35.5615 ZM7.248 38.0278 L6.6712 38.8499 L6.6712 38.8499 L9.1314 40.2686 L9.1314 40.2686 L9.5633 39.363 L7.248 38.0278 ZM5.5176 40.494 L4.9408 41.3161 L4.9408 41.3161 L7.8358 42.9856 L7.8358 42.9856 L8.2676 42.0799 L8.2676 42.0799 L5.5176 40.494 ZM3.7872 42.9603 L3.2104 43.7824 L6.5401 45.7025 L6.5401 45.7025 L6.972 44.7969 L6.972 44.7969 L3.7872 42.9603 ZM2.0567 45.4265 L1.4799 46.2486 L1.4799 46.2486 L5.2444 48.4195 L5.2444 48.4195 L5.6763 47.5138 L5.6763 47.5138 L2.0567 45.4265 ZM0.3263 47.8928 L-0.2505 48.7149 L-0.2505 48.7149 L3.9487 51.1364 L3.9487 51.1364 L4.3806 50.2308 L4.3806 50.2308 L0.3263 47.8928 ZM-1.4041 50.359 L-1.9809 51.1811 L-1.9809 51.1811 L2.653 53.8534 L2.653 53.8534 L3.0849 52.9477 L3.0849 52.9477 L-1.4041 50.359 ZM-3.1345 52.8253 L-3.283 53.0369 L-3.283 53.0369 L-3.283 53.0369 L-2.5409 54.3223 L-2.5409 54.3223 L1.3574 56.5703 L1.3574 56.5703 L1.7892 55.6647 L1.7892 55.6647 L-3.1345 52.8253 Z"/><line y2="9.725" y1="30.057" x2="55.188" x1="43.449" style="fill:none;"/><line y2="51.1844" y1="30.057" x2="53.6265" x1="41.4283" style="fill:none;"/><line y2="49.4344" y1="28.307" x2="56.6576" x1="44.4594" style="fill:none;"/><line y2="82.02" y1="56.037" x2="13.449" x1="-1.551" style="fill:none;"/><line y2="4.077" y1="4.077" x2="88.449" x1="64.3865" style="fill:none;"/><line y2="102.8233" y1="82.02" x2="1.4378" x1="13.449" style="fill:none;"/><line y2="133.98" y1="113.2936" x2="13.449" x1="1.5053" style="fill:none;"/><line y2="-21.903" y1="-44.447" x2="103.449" x1="90.4343" style="fill:none;"/><line y2="30.057" y1="50.1644" x2="103.449" x1="91.8396" style="fill:none;"/><line y2="-21.903" y1="-42.0129" x2="133.449" x1="145.0584" style="fill:none;"/><line y2="30.057" y1="50.1644" x2="133.449" x1="145.0583" style="fill:none;"/><line y2="4.077" y1="4.077" x2="148.449" x1="174.0584" style="fill:none;"/><line y2="-51.021" y1="-47.886" x2="-121.386" x1="-91.551" style="fill:none;"/><line y2="-75.291" y1="-47.886" x2="-79.347" x1="-91.551" style="fill:none;"/><line y2="-80.364" y1="-51.021" x2="-127.623" x1="-121.386" style="fill:none;"/><line y2="-30.948" y1="-51.021" x2="-143.679" x1="-121.386" style="fill:none;"/><line y2="-34.9011" y1="-52.2699" x2="-144.5193" x1="-125.2297" style="fill:none;"/><line y2="-95.364" y1="-75.291" x2="-101.643" x1="-79.347" style="fill:none;"/><line y2="-84.561" y1="-75.291" x2="-50.817" x1="-79.347" style="fill:none;"/><line y2="-87.2653" y1="-79.2441" x2="-53.8204" x1="-78.5067" style="fill:none;"/><line y2="-95.364" y1="-80.364" x2="-101.643" x1="-127.623" style="fill:none;"/><line y2="-89.637" y1="-80.364" x2="-156.156" x1="-127.623" style="fill:none;"/><line y2="-85.6838" y1="-77.6599" x2="-155.316" x1="-130.6266" style="fill:none;"/><line y2="-40.218" y1="-30.948" x2="-172.212" x1="-143.679" style="fill:none;"/><line y2="-124.71" y1="-95.364" x2="-95.406" x1="-101.643" style="fill:none;"/><line y2="-122.0058" y1="-96.613" x2="-92.4026" x1="-97.7994" style="fill:none;"/><line y2="-113.907" y1="-84.561" x2="-44.58" x1="-50.817" style="fill:none;"/><line y2="-69.561" y1="-89.637" x2="-178.449" x1="-156.156" style="fill:none;"/><line y2="-69.561" y1="-40.218" x2="-178.449" x1="-172.212" style="fill:none;"/><line y2="-68.3121" y1="-42.9223" x2="-174.6053" x1="-169.2086" style="fill:none;"/><line y2="-133.98" y1="-124.71" x2="-66.873" x1="-95.406" style="fill:none;"/><line y2="-133.98" y1="-113.907" x2="-66.873" x1="-44.58" style="fill:none;"/><line y2="-130.0269" y1="-112.6581" x2="-67.7133" x1="-48.4237" style="fill:none;"/><line y2="-21.903" y1="4.077" x2="103.449" x1="88.449" style="fill:none;"/><line y2="-18.403" y1="4.0771" x2="105.4697" x1="92.4904" style="fill:none;"/><line y2="30.057" y1="4.077" x2="103.449" x1="88.449" style="fill:none;"/><line y2="-21.903" y1="-21.903" x2="133.449" x1="103.449" style="fill:none;"/><line y2="30.057" y1="30.057" x2="133.449" x1="103.449" style="fill:none;"/><line y2="26.557" y1="26.557" x2="131.4283" x1="105.4697" style="fill:none;"/><line y2="4.077" y1="-21.903" x2="148.449" x1="133.449" style="fill:none;"/><line y2="4.0771" y1="-18.403" x2="144.4075" x1="131.4283" style="fill:none;"/><line y2="4.077" y1="30.057" x2="148.449" x1="133.449" style="fill:none;"/><path style="fill:none; stroke-miterlimit:5;" d="M-76.051 -21.903 L-76.551 -21.903 L-76.801 -22.336"/></g><g transform="translate(182,138)" style="stroke-linecap:butt; fill:rgb(230,0,0); text-rendering:geometricPrecision; color-rendering:optimizeQuality; image-rendering:optimizeQuality; font-family:'Open Sans'; stroke:rgb(230,0,0); color-interpolation:linearRGB; stroke-miterlimit:5;"><path style="stroke:none;" d="M-42.6135 -21.9733 Q-42.6135 -19.9108 -43.6526 -18.7311 Q-44.6916 -17.5514 -46.5354 -17.5514 Q-48.426 -17.5514 -49.4572 -18.7155 Q-50.4885 -19.8796 -50.4885 -21.9889 Q-50.4885 -24.0827 -49.4572 -25.2311 Q-48.426 -26.3796 -46.5354 -26.3796 Q-44.676 -26.3796 -43.6447 -25.2077 Q-42.6135 -24.0358 -42.6135 -21.9733 ZM-49.4416 -21.9733 Q-49.4416 -20.2389 -48.6994 -19.3327 Q-47.9572 -18.4264 -46.5354 -18.4264 Q-45.1135 -18.4264 -44.3869 -19.3249 Q-43.6604 -20.2233 -43.6604 -21.9733 Q-43.6604 -23.7077 -44.3869 -24.5983 Q-45.1135 -25.4889 -46.5354 -25.4889 Q-47.9572 -25.4889 -48.6994 -24.5905 Q-49.4416 -23.6921 -49.4416 -21.9733 Z"/><path style="fill:none; stroke:black;" d="M-31.801 3.644 L-31.551 4.077 L-31.051 4.077"/><path style="fill:rgb(0,5,255); stroke:none;" d="M1.8006 8.2332 L0.6599 8.2332 L-4.0276 1.0457 L-4.0744 1.0457 Q-3.9807 2.3114 -3.9807 3.3582 L-3.9807 8.2332 L-4.9026 8.2332 L-4.9026 -0.3293 L-3.7776 -0.3293 L0.8943 6.827 L0.9412 6.827 Q0.9412 6.6707 0.8943 5.8114 Q0.8474 4.952 0.8631 4.577 L0.8631 -0.3293 L1.8006 -0.3293 L1.8006 8.2332 Z"/><path style="fill:rgb(0,5,255); stroke:none;" d="M1.7068 -1.3293 L0.7068 -1.3293 L0.7068 -5.3605 L-3.8088 -5.3605 L-3.8088 -1.3293 L-4.8088 -1.3293 L-4.8088 -9.8918 L-3.8088 -9.8918 L-3.8088 -6.2511 L0.7068 -6.2511 L0.7068 -9.8918 L1.7068 -9.8918 L1.7068 -1.3293 Z"/><path style="stroke:none;" d="M-42.6135 29.9867 Q-42.6135 32.0492 -43.6526 33.2289 Q-44.6916 34.4086 -46.5354 34.4086 Q-48.426 34.4086 -49.4572 33.2445 Q-50.4885 32.0804 -50.4885 29.9711 Q-50.4885 27.8773 -49.4572 26.7289 Q-48.426 25.5804 -46.5354 25.5804 Q-44.676 25.5804 -43.6447 26.7523 Q-42.6135 27.9242 -42.6135 29.9867 ZM-49.4416 29.9867 Q-49.4416 31.7211 -48.6994 32.6273 Q-47.9572 33.5336 -46.5354 33.5336 Q-45.1135 33.5336 -44.3869 32.6351 Q-43.6604 31.7367 -43.6604 29.9867 Q-43.6604 28.2523 -44.3869 27.3617 Q-45.1135 26.4711 -46.5354 26.4711 Q-47.9572 26.4711 -48.6994 27.3695 Q-49.4416 28.2679 -49.4416 29.9867 Z"/><path style="fill:none; stroke:black;" d="M13.199 29.624 L13.449 30.057 L13.949 30.057"/></g><g transform="translate(182,138)" style="stroke-linecap:butt; font-size:8.4px; fill:gray; text-rendering:geometricPrecision; image-rendering:optimizeQuality; color-rendering:optimizeQuality; font-family:'Open Sans'; font-style:italic; stroke:gray; color-interpolation:linearRGB; stroke-miterlimit:5;"><path style="stroke:none;" d="M14.3406 22.5999 Q14.3406 21.2718 14.8093 20.1468 Q15.2781 19.0218 16.3093 17.9437 L16.9187 17.9437 Q15.95 19.0062 15.4656 20.1781 Q14.9812 21.3499 14.9812 22.5843 Q14.9812 23.9124 15.4187 24.9281 L14.9031 24.9281 Q14.3406 23.8968 14.3406 22.5999 ZM19.9631 22.0062 Q19.9631 22.8343 19.4163 23.2874 Q18.8694 23.7406 17.8694 23.7406 Q17.4631 23.7406 17.1506 23.6859 Q16.8381 23.6312 16.5569 23.4906 L16.5569 22.8343 Q17.1819 23.1624 17.885 23.1624 Q18.51 23.1624 18.885 22.8656 Q19.26 22.5687 19.26 22.0531 Q19.26 21.7406 19.0569 21.514 Q18.8538 21.2874 18.2913 20.9593 Q17.6975 20.6312 17.471 20.3031 Q17.2444 19.9749 17.2444 19.5218 Q17.2444 18.7874 17.76 18.3265 Q18.2756 17.8656 19.1194 17.8656 Q19.4944 17.8656 19.8303 17.9437 Q20.1663 18.0218 20.5413 18.1937 L20.2756 18.7874 Q20.0256 18.6312 19.7053 18.5452 Q19.385 18.4593 19.1194 18.4593 Q18.5881 18.4593 18.2678 18.7327 Q17.9475 19.0062 17.9475 19.4749 Q17.9475 19.6781 18.0178 19.8265 Q18.0881 19.9749 18.2288 20.1077 Q18.3694 20.2406 18.7913 20.4906 Q19.3538 20.8343 19.5569 21.0296 Q19.76 21.2249 19.8616 21.4593 Q19.9631 21.6937 19.9631 22.0062 ZM22.5576 20.2874 Q22.5576 21.6156 22.0811 22.7484 Q21.6045 23.8812 20.5889 24.9281 L19.9795 24.9281 Q21.917 22.7718 21.917 20.2874 Q21.917 18.9593 21.4795 17.9437 L21.9951 17.9437 Q22.5576 19.0062 22.5576 20.2874 Z"/><path style="fill:none; stroke:black;" d="M42.949 30.057 L43.449 30.057 L43.699 29.624"/></g><g transform="translate(182,138)" style="stroke-linecap:butt; fill:rgb(230,0,0); text-rendering:geometricPrecision; color-rendering:optimizeQuality; image-rendering:optimizeQuality; font-family:'Open Sans'; stroke:rgb(230,0,0); color-interpolation:linearRGB; stroke-miterlimit:5;"><path style="stroke:none;" d="M62.3865 4.0067 Q62.3865 6.0692 61.3474 7.2489 Q60.3084 8.4286 58.4646 8.4286 Q56.574 8.4286 55.5428 7.2645 Q54.5115 6.1004 54.5115 3.9911 Q54.5115 1.8973 55.5428 0.7489 Q56.574 -0.3996 58.4646 -0.3996 Q60.324 -0.3996 61.3553 0.7723 Q62.3865 1.9442 62.3865 4.0067 ZM55.5584 4.0067 Q55.5584 5.7411 56.3006 6.6473 Q57.0428 7.5536 58.4646 7.5536 Q59.8865 7.5536 60.6131 6.6551 Q61.3396 5.7567 61.3396 4.0067 Q61.3396 2.2723 60.6131 1.3817 Q59.8865 0.4911 58.4646 0.4911 Q57.0428 0.4911 56.3006 1.3895 Q55.5584 2.2879 55.5584 4.0067 Z"/><path style="stroke:none;" d="M62.3865 55.9667 Q62.3865 58.0292 61.3474 59.2089 Q60.3084 60.3886 58.4646 60.3886 Q56.574 60.3886 55.5428 59.2245 Q54.5115 58.0604 54.5115 55.9511 Q54.5115 53.8573 55.5428 52.7089 Q56.574 51.5604 58.4646 51.5604 Q60.324 51.5604 61.3553 52.7323 Q62.3865 53.9042 62.3865 55.9667 ZM55.5584 55.9667 Q55.5584 57.7011 56.3006 58.6073 Q57.0428 59.5136 58.4646 59.5136 Q59.8865 59.5136 60.6131 58.6151 Q61.3396 57.7167 61.3396 55.9667 Q61.3396 54.2323 60.6131 53.3417 Q59.8865 52.4511 58.4646 52.4511 Q57.0428 52.4511 56.3006 53.3495 Q55.5584 54.2479 55.5584 55.9667 Z"/><path style="fill:none; stroke:black;" d="M13.199 81.587 L13.449 82.02 L13.199 82.453"/><path style="fill:rgb(148,108,0); stroke:none;" d="M1.1443 109.9375 Q1.1443 111.0625 0.324 111.7031 Q-0.4963 112.3438 -1.9026 112.3438 Q-3.4338 112.3438 -4.2463 111.9375 L-4.2463 110.9844 Q-3.7151 111.2031 -3.0979 111.3359 Q-2.4807 111.4688 -1.8713 111.4688 Q-0.8713 111.4688 -0.3713 111.0859 Q0.1287 110.7031 0.1287 110.0312 Q0.1287 109.5938 -0.051 109.3047 Q-0.2307 109.0156 -0.6448 108.7734 Q-1.0588 108.5312 -1.9182 108.2344 Q-3.1057 107.8125 -3.6213 107.2266 Q-4.1369 106.6406 -4.1369 105.6875 Q-4.1369 104.7031 -3.3948 104.1172 Q-2.6526 103.5312 -1.4182 103.5312 Q-0.1526 103.5312 0.9256 104 L0.6131 104.8594 Q-0.4494 104.4219 -1.4494 104.4219 Q-2.2463 104.4219 -2.6916 104.7578 Q-3.1369 105.0938 -3.1369 105.7031 Q-3.1369 106.1406 -2.9729 106.4297 Q-2.8088 106.7188 -2.4182 106.9531 Q-2.0276 107.1875 -1.2151 107.4844 Q0.1287 107.9531 0.6365 108.5078 Q1.1443 109.0625 1.1443 109.9375 Z"/><path style="fill:rgb(0,138,0); stroke:none;" d="M87.0584 -43.7298 L86.0584 -43.7298 L86.0584 -52.2923 L90.8396 -52.2923 L90.8396 -51.4173 L87.0584 -51.4173 L87.0584 -48.2766 L90.6052 -48.2766 L90.6052 -47.386 L87.0584 -47.386 L87.0584 -43.7298 Z"/><path style="fill:rgb(0,138,0); stroke:none;" d="M87.0584 60.1932 L86.0584 60.1932 L86.0584 51.6307 L90.8396 51.6307 L90.8396 52.5057 L87.0584 52.5057 L87.0584 55.6464 L90.6052 55.6464 L90.6052 56.537 L87.0584 56.537 L87.0584 60.1932 Z"/><path style="fill:rgb(0,138,0); stroke:none;" d="M147.0584 -43.7298 L146.0584 -43.7298 L146.0584 -52.2923 L150.8396 -52.2923 L150.8396 -51.4173 L147.0584 -51.4173 L147.0584 -48.2766 L150.6052 -48.2766 L150.6052 -47.386 L147.0584 -47.386 L147.0584 -43.7298 Z"/><path style="fill:rgb(0,138,0); stroke:none;" d="M147.0584 60.1932 L146.0584 60.1932 L146.0584 51.6307 L150.8396 51.6307 L150.8396 52.5057 L147.0584 52.5057 L147.0584 55.6464 L150.6052 55.6464 L150.6052 56.537 L147.0584 56.537 L147.0584 60.1932 Z"/><path style="fill:rgb(0,138,0); stroke:none;" d="M177.0584 8.2332 L176.0584 8.2332 L176.0584 -0.3293 L180.8396 -0.3293 L180.8396 0.5457 L177.0584 0.5457 L177.0584 3.6864 L180.6052 3.6864 L180.6052 4.577 L177.0584 4.577 L177.0584 8.2332 Z"/><path style="fill:none; stroke:black;" d="M-121.7576 -50.6864 L-121.386 -51.021 L-120.8887 -50.9688"/><path style="fill:none; stroke:black;" d="M-78.8715 -75.4455 L-79.347 -75.291 L-79.5504 -74.8342"/><path style="fill:none; stroke:black;" d="M-128.0985 -80.5185 L-127.623 -80.364 L-127.519 -79.8749"/><path style="fill:none; stroke:black;" d="M-143.3074 -31.2826 L-143.679 -30.948 L-144.1545 -31.1025"/><path style="fill:none; stroke:black;" d="M-101.5391 -95.8531 L-101.643 -95.364 L-102.076 -95.114"/><path style="fill:none; stroke:black;" d="M-51.2925 -84.4065 L-50.817 -84.561 L-50.7131 -85.0501"/><path style="fill:none; stroke:black;" d="M-155.6805 -89.4825 L-156.156 -89.637 L-156.5276 -89.3024"/><path style="fill:none; stroke:black;" d="M-171.7365 -40.0635 L-172.212 -40.218 L-172.3159 -40.7071"/><path style="fill:none; stroke:black;" d="M-95.5099 -124.2209 L-95.406 -124.71 L-94.9305 -124.8645"/><path style="fill:none; stroke:black;" d="M-44.6839 -113.4179 L-44.58 -113.907 L-44.9516 -114.2416"/><path style="fill:none; stroke:black;" d="M-178.0774 -69.8956 L-178.449 -69.561 L-178.345 -69.0719"/><path style="fill:none; stroke:black;" d="M-67.3485 -133.8255 L-66.873 -133.98 L-66.5014 -133.6454"/><path style="fill:none; stroke:black;" d="M88.699 3.644 L88.449 4.077 L87.949 4.077"/><path style="fill:none; stroke:black;" d="M103.199 -21.47 L103.449 -21.903 L103.199 -22.336"/><path style="fill:none; stroke:black;" d="M103.949 30.057 L103.449 30.057 L103.199 30.49"/><path style="fill:none; stroke:black;" d="M133.699 -21.47 L133.449 -21.903 L133.699 -22.336"/><path style="fill:none; stroke:black;" d="M132.949 30.057 L133.449 30.057 L133.699 30.49"/><path style="fill:none; stroke:black;" d="M148.199 3.644 L148.449 4.077 L148.949 4.077"/></g></g></svg></svg></svg></svg>