<svg xmlns:ns0="http://www.w3.org/2000/svg" xmlns="http://www.w3.org/2000/svg"><g transform="translate(0, 0)"><ns0:svg width="292" viewBox="0 0 292 235" style="fill-opacity:1; color-rendering:auto; color-interpolation:auto; text-rendering:auto; stroke:black; stroke-linecap:square; stroke-miterlimit:10; shape-rendering:auto; stroke-opacity:1; fill:black; stroke-dasharray:none; font-weight:normal; stroke-width:1; font-family:'Open Sans'; font-style:normal; stroke-linejoin:miter; font-size:12; stroke-dashoffset:0; image-rendering:auto;" height="235" class="cas-substance-image"><ns0:svg class="cas-substance-single-component"><ns0:rect y="0" x="0" width="292" stroke="none" ry="7" rx="7" height="235" fill="white" class="cas-substance-group" /><ns0:svg y="0" x="0" width="292" viewBox="0 0 292 235" style="fill:black;" height="235" class="cas-substance-single-component-image"><ns0:svg><ns0:g><ns0:g transform="translate(146,115)" style="text-rendering:geometricPrecision; color-rendering:optimizeQuality; color-interpolation:linearRGB; stroke-linecap:butt; image-rendering:optimizeQuality;"><ns0:line y2="-67.5" y1="-43.9766" x2="-90.933" x1="-90.933" style="fill:none;" /><ns0:path style="stroke:none;" d="M-83.2668 -36.4387 L-86.1781 -31.3901 L-86.1781 -31.3901 L-85.259 -30.9816 L-82.4533 -35.8469 L-83.2668 -36.4387 ZM-80.8265 -34.6633 L-83.4207 -30.1645 L-82.5016 -29.756 L-80.013 -34.0715 L-80.013 -34.0715 L-80.8265 -34.6633 ZM-78.3861 -32.8879 L-80.6634 -28.9389 L-80.6634 -28.9389 L-79.7443 -28.5304 L-77.5727 -32.2961 L-77.5727 -32.2961 L-78.3861 -32.8879 ZM-75.9458 -31.1125 L-77.906 -27.7133 L-76.9869 -27.3048 L-75.1324 -30.5207 L-75.9458 -31.1125 ZM-73.5055 -29.3371 L-75.1487 -26.4877 L-75.1487 -26.4877 L-74.2295 -26.0792 L-72.6921 -28.7453 L-73.5055 -29.3371 ZM-71.0652 -27.5617 L-72.3913 -25.2621 L-71.4722 -24.8536 L-70.2518 -26.9699 L-71.0652 -27.5617 ZM-68.6249 -25.7863 L-69.634 -24.0365 L-68.7148 -23.628 L-67.8115 -25.1945 L-68.6249 -25.7863 ZM-66.1846 -24.0109 L-66.8766 -22.8109 L-65.9575 -22.4023 L-65.3711 -23.4191 L-66.1846 -24.0109 Z" /><ns0:line y2="-82.5" y1="-67.5" x2="-116.913" x1="-90.933" style="fill:none;" /><ns0:line y2="-77.7956" y1="-65.4793" x2="-69.601" x1="-90.933" style="fill:none;" /><ns0:line y2="-80.8267" y1="-68.5104" x2="-71.3511" x1="-92.683" style="fill:none;" /><ns0:line y2="-82.5" y1="-70.726" x2="-12.99" x1="-33.3825" style="fill:none;" /><ns0:path style="stroke:none;" d="M-41.8829 -60.3242 L-41.7772 -59.3242 L-36.1628 -59.3242 L-36.0571 -60.3242 ZM-41.5657 -57.3242 L-41.46 -56.3242 L-36.48 -56.3242 L-36.3743 -57.3242 ZM-41.2486 -54.3242 L-41.1429 -53.3242 L-36.7971 -53.3242 L-36.6914 -54.3242 ZM-40.9314 -51.3242 L-40.8257 -50.3242 L-37.1143 -50.3242 L-37.0086 -51.3242 ZM-40.6143 -48.3242 L-40.5086 -47.3242 L-37.4314 -47.3242 L-37.3257 -48.3242 ZM-40.2971 -45.3242 L-40.1914 -44.3242 L-37.7486 -44.3242 L-37.6429 -45.3242 ZM-39.98 -42.3242 L-39.8743 -41.3242 L-38.0657 -41.3242 L-37.96 -42.3242 ZM-39.6628 -39.3242 L-39.5571 -38.3242 L-38.3829 -38.3242 L-38.2772 -39.3242 Z" /><ns0:line y2="-112.5" y1="-82.5" x2="-12.99" x1="-12.99" style="fill:none;" /><ns0:line y2="-69.2259" y1="-81.4896" x2="6.5009" x1="-14.74" style="fill:none;" /><ns0:line y2="-72.257" y1="-84.5207" x2="8.2509" x1="-12.99" style="fill:none;" /><ns0:line y2="7.5" y1="19.2586" x2="-116.913" x1="-96.5471" style="fill:none;" /><ns0:path style="stroke:none;" d="M-65.203 7.067 L-64.703 7.933 L-83.8455 21.872 L-86.8455 16.6759 Z" /><ns0:line y2="22.5" y1="7.5" x2="-142.893" x1="-116.913" style="fill:none;" /><ns0:line y2="-16.1484" y1="8.5104" x2="-115.163" x1="-115.163" style="fill:none;" /><ns0:line y2="-16.1484" y1="8.5104" x2="-118.663" x1="-118.663" style="fill:none;" /><ns0:path style="stroke:none;" d="M-12.74 -22.067 L-13.24 -22.933 L5.9669 -36.9092 L8.967 -31.7131 Z" /><ns0:line y2="-22.5" y1="-34.3214" x2="38.97" x1="18.4954" style="fill:none;" /><ns0:line y2="64.2586" y1="52.5" x2="-18.6041" x1="-38.97" style="fill:none;" /><ns0:path style="stroke:none;" d="M-39.5584 23.5 L-39.6469 24.5 L-38.3124 24.5 L-38.3912 23.5 ZM-39.8238 26.5 L-39.9122 27.5 L-38.0761 27.5 L-38.1549 26.5 ZM-40.0891 29.5 L-40.1775 30.5 L-37.8397 30.5 L-37.9185 29.5 ZM-40.3544 32.5 L-40.4428 33.5 L-37.6034 33.5 L-37.6822 32.5 ZM-40.6197 35.5 L-40.7082 36.5 L-37.367 36.5 L-37.4458 35.5 ZM-40.885 38.5 L-40.9735 39.5 L-37.1307 39.5 L-37.2094 38.5 ZM-41.1504 41.5 L-41.2388 42.5 L-36.8943 42.5 L-36.9731 41.5 ZM-41.4157 44.5 L-41.5041 45.5 L-36.658 45.5 L-36.7367 44.5 ZM-41.681 47.5 L-41.7694 48.5 L-36.4216 48.5 L-36.5004 47.5 ZM-41.9463 50.5 L-41.97 50.7679 L-40.702 51.5 L-36.1852 51.5 L-36.264 50.5 Z" /><ns0:line y2="97.5" y1="73.8516" x2="-12.99" x1="-12.99" style="fill:none;" /><ns0:line y2="112.5" y1="97.5" x2="-38.97" x1="-12.99" style="fill:none;" /><ns0:line y2="110.7741" y1="98.5104" x2="6.5009" x1="-14.74" style="fill:none;" /><ns0:line y2="107.743" y1="95.4793" x2="8.2509" x1="-12.99" style="fill:none;" /><ns0:line y2="7.5" y1="19.274" x2="142.893" x1="122.5005" style="fill:none;" /><ns0:line y2="7.5" y1="19.2586" x2="90.933" x1="111.2989" style="fill:none;" /><ns0:line y2="-37.5" y1="-22.5" x2="-38.97" x1="-64.953" style="fill:none;" /><ns0:line y2="7.5" y1="-22.5" x2="-64.953" x1="-64.953" style="fill:none;" /><ns0:line y2="-22.5" y1="-37.5" x2="-12.99" x1="-38.97" style="fill:none;" /><ns0:line y2="22.5" y1="7.5" x2="-38.97" x1="-64.953" style="fill:none;" /><ns0:line y2="1.0234" y1="-22.5" x2="-12.99" x1="-12.99" style="fill:none;" /><ns0:line y2="10.6888" y1="22.5" x2="-18.513" x1="-38.97" style="fill:none;" /><ns0:line y2="7.5" y1="-22.5" x2="38.97" x1="38.97" style="fill:none;" /><ns0:line y2="5.4793" y1="-20.4793" x2="42.47" x1="42.47" style="fill:none;" /><ns0:line y2="-37.5" y1="-22.5" x2="64.953" x1="38.97" style="fill:none;" /><ns0:line y2="22.5" y1="7.5" x2="64.953" x1="38.97" style="fill:none;" /><ns0:line y2="-22.5" y1="-37.5" x2="90.933" x1="64.953" style="fill:none;" /><ns0:line y2="-20.4793" y1="-33.4585" x2="87.433" x1="64.9529" style="fill:none;" /><ns0:line y2="7.5" y1="22.5" x2="90.933" x1="64.953" style="fill:none;" /><ns0:line y2="5.4793" y1="18.4585" x2="87.433" x1="64.9529" style="fill:none;" /><ns0:line y2="7.5" y1="-22.5" x2="90.933" x1="90.933" style="fill:none;" /></ns0:g><ns0:g transform="translate(146,115)" style="fill:rgb(230,0,0); text-rendering:geometricPrecision; color-rendering:optimizeQuality; image-rendering:optimizeQuality; font-family:'Open Sans'; stroke:rgb(230,0,0); color-interpolation:linearRGB;"><ns0:path style="stroke:none;" d="M-86.9955 -37.5703 Q-86.9955 -35.5078 -88.0346 -34.3281 Q-89.0736 -33.1484 -90.9174 -33.1484 Q-92.808 -33.1484 -93.8392 -34.3125 Q-94.8705 -35.4766 -94.8705 -37.5859 Q-94.8705 -39.6797 -93.8392 -40.8281 Q-92.808 -41.9766 -90.9174 -41.9766 Q-89.058 -41.9766 -88.0267 -40.8047 Q-86.9955 -39.6328 -86.9955 -37.5703 ZM-93.8236 -37.5703 Q-93.8236 -35.8359 -93.0814 -34.9297 Q-92.3392 -34.0234 -90.9174 -34.0234 Q-89.4955 -34.0234 -88.7689 -34.9219 Q-88.0424 -35.8203 -88.0424 -37.5703 Q-88.0424 -39.3047 -88.7689 -40.1953 Q-89.4955 -41.0859 -90.9174 -41.0859 Q-92.3392 -41.0859 -93.0814 -40.1875 Q-93.8236 -39.2891 -93.8236 -37.5703 Z" /></ns0:g><ns0:g transform="translate(146,115)" style="stroke-linecap:butt; text-rendering:geometricPrecision; color-rendering:optimizeQuality; image-rendering:optimizeQuality; font-family:'Open Sans'; color-interpolation:linearRGB; stroke-miterlimit:5;"><ns0:path style="fill:none;" d="M-90.933 -67 L-90.933 -67.5 L-91.366 -67.75" /><ns0:path style="fill:rgb(230,0,0); stroke:none;" d="M-61.0155 -82.5703 Q-61.0155 -80.5078 -62.0546 -79.3281 Q-63.0936 -78.1484 -64.9374 -78.1484 Q-66.828 -78.1484 -67.8593 -79.3125 Q-68.8905 -80.4766 -68.8905 -82.5859 Q-68.8905 -84.6797 -67.8593 -85.8281 Q-66.828 -86.9766 -64.9374 -86.9766 Q-63.078 -86.9766 -62.0468 -85.8047 Q-61.0155 -84.6328 -61.0155 -82.5703 ZM-67.8436 -82.5703 Q-67.8436 -80.8359 -67.1014 -79.9297 Q-66.3593 -79.0234 -64.9374 -79.0234 Q-63.5155 -79.0234 -62.7889 -79.9219 Q-62.0624 -80.8203 -62.0624 -82.5703 Q-62.0624 -84.3047 -62.7889 -85.1953 Q-63.5155 -86.0859 -64.9374 -86.0859 Q-66.3593 -86.0859 -67.1014 -85.1875 Q-67.8436 -84.2891 -67.8436 -82.5703 Z" /><ns0:path style="fill:rgb(230,0,0); stroke:none;" d="M-35.0325 -67.5703 Q-35.0325 -65.5078 -36.0716 -64.3281 Q-37.1106 -63.1484 -38.9544 -63.1484 Q-40.845 -63.1484 -41.8763 -64.3125 Q-42.9075 -65.4766 -42.9075 -67.5859 Q-42.9075 -69.6797 -41.8763 -70.8281 Q-40.845 -71.9766 -38.9544 -71.9766 Q-37.095 -71.9766 -36.0638 -70.8047 Q-35.0325 -69.6328 -35.0325 -67.5703 ZM-41.8606 -67.5703 Q-41.8606 -65.8359 -41.1184 -64.9297 Q-40.3763 -64.0234 -38.9544 -64.0234 Q-37.5325 -64.0234 -36.8059 -64.9219 Q-36.0794 -65.8203 -36.0794 -67.5703 Q-36.0794 -69.3047 -36.8059 -70.1953 Q-37.5325 -71.0859 -38.9544 -71.0859 Q-40.3763 -71.0859 -41.1184 -70.1875 Q-41.8606 -69.2891 -41.8606 -67.5703 Z" /><ns0:path style="fill:none;" d="M-13.423 -82.25 L-12.99 -82.5 L-12.99 -83" /><ns0:path style="fill:rgb(230,0,0); stroke:none;" d="M16.9275 -67.5703 Q16.9275 -65.5078 15.8884 -64.3281 Q14.8494 -63.1484 13.0056 -63.1484 Q11.115 -63.1484 10.0837 -64.3125 Q9.0525 -65.4766 9.0525 -67.5859 Q9.0525 -69.6797 10.0837 -70.8281 Q11.115 -71.9766 13.0056 -71.9766 Q14.865 -71.9766 15.8962 -70.8047 Q16.9275 -69.6328 16.9275 -67.5703 ZM10.0994 -67.5703 Q10.0994 -65.8359 10.8416 -64.9297 Q11.5837 -64.0234 13.0056 -64.0234 Q14.4275 -64.0234 15.1541 -64.9219 Q15.8806 -65.8203 15.8806 -67.5703 Q15.8806 -69.3047 15.1541 -70.1953 Q14.4275 -71.0859 13.0056 -71.0859 Q11.5837 -71.0859 10.8416 -70.1875 Q10.0994 -69.2891 10.0994 -67.5703 Z" /><ns0:path style="fill:rgb(230,0,0); stroke:none;" d="M-86.9955 22.4297 Q-86.9955 24.4922 -88.0346 25.6719 Q-89.0736 26.8516 -90.9174 26.8516 Q-92.808 26.8516 -93.8392 25.6875 Q-94.8705 24.5234 -94.8705 22.4141 Q-94.8705 20.3203 -93.8392 19.1719 Q-92.808 18.0234 -90.9174 18.0234 Q-89.058 18.0234 -88.0267 19.1953 Q-86.9955 20.3672 -86.9955 22.4297 ZM-93.8236 22.4297 Q-93.8236 24.1641 -93.0814 25.0703 Q-92.3392 25.9766 -90.9174 25.9766 Q-89.4955 25.9766 -88.7689 25.0781 Q-88.0424 24.1797 -88.0424 22.4297 Q-88.0424 20.6953 -88.7689 19.8047 Q-89.4955 18.9141 -90.9174 18.9141 Q-92.3392 18.9141 -93.0814 19.8125 Q-93.8236 20.7109 -93.8236 22.4297 Z" /><ns0:path style="fill:none;" d="M-116.48 7.75 L-116.913 7.5 L-117.346 7.75" /><ns0:path style="fill:rgb(230,0,0); stroke:none;" d="M-112.9755 -22.5703 Q-112.9755 -20.5078 -114.0146 -19.3281 Q-115.0536 -18.1484 -116.8974 -18.1484 Q-118.788 -18.1484 -119.8193 -19.3125 Q-120.8505 -20.4766 -120.8505 -22.5859 Q-120.8505 -24.6797 -119.8193 -25.8281 Q-118.788 -26.9766 -116.8974 -26.9766 Q-115.038 -26.9766 -114.0068 -25.8047 Q-112.9755 -24.6328 -112.9755 -22.5703 ZM-119.8036 -22.5703 Q-119.8036 -20.8359 -119.0614 -19.9297 Q-118.3193 -19.0234 -116.8974 -19.0234 Q-115.4755 -19.0234 -114.7489 -19.9219 Q-114.0224 -20.8203 -114.0224 -22.5703 Q-114.0224 -24.3047 -114.7489 -25.1953 Q-115.4755 -26.0859 -116.8974 -26.0859 Q-118.3193 -26.0859 -119.0614 -25.1875 Q-119.8036 -24.2891 -119.8036 -22.5703 Z" /><ns0:path style="fill:rgb(230,0,0); stroke:none;" d="M16.9275 -37.5703 Q16.9275 -35.5078 15.8884 -34.3281 Q14.8494 -33.1484 13.0056 -33.1484 Q11.115 -33.1484 10.0837 -34.3125 Q9.0525 -35.4766 9.0525 -37.5859 Q9.0525 -39.6797 10.0837 -40.8281 Q11.115 -41.9766 13.0056 -41.9766 Q14.865 -41.9766 15.8962 -40.8047 Q16.9275 -39.6328 16.9275 -37.5703 ZM10.0994 -37.5703 Q10.0994 -35.8359 10.8416 -34.9297 Q11.5837 -34.0234 13.0056 -34.0234 Q14.4275 -34.0234 15.1541 -34.9219 Q15.8806 -35.8203 15.8806 -37.5703 Q15.8806 -39.3047 15.1541 -40.1953 Q14.4275 -41.0859 13.0056 -41.0859 Q11.5837 -41.0859 10.8416 -40.1875 Q10.0994 -39.2891 10.0994 -37.5703 Z" /><ns0:path style="fill:rgb(230,0,0); stroke:none;" d="M-9.0525 67.4297 Q-9.0525 69.4922 -10.0916 70.6719 Q-11.1306 71.8516 -12.9744 71.8516 Q-14.865 71.8516 -15.8962 70.6875 Q-16.9275 69.5234 -16.9275 67.4141 Q-16.9275 65.3203 -15.8962 64.1719 Q-14.865 63.0234 -12.9744 63.0234 Q-11.115 63.0234 -10.0837 64.1953 Q-9.0525 65.3672 -9.0525 67.4297 ZM-15.8806 67.4297 Q-15.8806 69.1641 -15.1384 70.0703 Q-14.3962 70.9766 -12.9744 70.9766 Q-11.5525 70.9766 -10.8259 70.0781 Q-10.0994 69.1797 -10.0994 67.4297 Q-10.0994 65.6953 -10.8259 64.8047 Q-11.5525 63.9141 -12.9744 63.9141 Q-14.3962 63.9141 -15.1384 64.8125 Q-15.8806 65.7109 -15.8806 67.4297 Z" /><ns0:path style="fill:none;" d="M-12.99 97 L-12.99 97.5 L-13.423 97.75" /><ns0:path style="fill:rgb(230,0,0); stroke:none;" d="M16.9275 112.4297 Q16.9275 114.4922 15.8884 115.6719 Q14.8494 116.8516 13.0056 116.8516 Q11.115 116.8516 10.0837 115.6875 Q9.0525 114.5234 9.0525 112.4141 Q9.0525 110.3203 10.0837 109.1719 Q11.115 108.0234 13.0056 108.0234 Q14.865 108.0234 15.8962 109.1953 Q16.9275 110.3672 16.9275 112.4297 ZM10.0994 112.4297 Q10.0994 114.1641 10.8416 115.0703 Q11.5837 115.9766 13.0056 115.9766 Q14.4275 115.9766 15.1541 115.0781 Q15.8806 114.1797 15.8806 112.4297 Q15.8806 110.6953 15.1541 109.8047 Q14.4275 108.9141 13.0056 108.9141 Q11.5837 108.9141 10.8416 109.8125 Q10.0994 110.7109 10.0994 112.4297 Z" /><ns0:path style="fill:rgb(230,0,0); stroke:none;" d="M120.8505 22.4297 Q120.8505 24.4922 119.8114 25.6719 Q118.7724 26.8516 116.9286 26.8516 Q115.038 26.8516 114.0068 25.6875 Q112.9755 24.5234 112.9755 22.4141 Q112.9755 20.3203 114.0068 19.1719 Q115.038 18.0234 116.9286 18.0234 Q118.788 18.0234 119.8193 19.1953 Q120.8505 20.3672 120.8505 22.4297 ZM114.0224 22.4297 Q114.0224 24.1641 114.7646 25.0703 Q115.5068 25.9766 116.9286 25.9766 Q118.3505 25.9766 119.0771 25.0781 Q119.8036 24.1797 119.8036 22.4297 Q119.8036 20.6953 119.0771 19.8047 Q118.3505 18.9141 116.9286 18.9141 Q115.5068 18.9141 114.7646 19.8125 Q114.0224 20.7109 114.0224 22.4297 Z" /><ns0:path style="fill:none;" d="M-64.52 -22.75 L-64.953 -22.5 L-64.953 -22" /></ns0:g><ns0:g transform="translate(146,115)" style="stroke-linecap:butt; font-size:8.4px; fill:gray; text-rendering:geometricPrecision; image-rendering:optimizeQuality; color-rendering:optimizeQuality; font-family:'Open Sans'; font-style:italic; stroke:gray; color-interpolation:linearRGB; stroke-miterlimit:5;"><ns0:path style="stroke:none;" d="M-69.0613 -31.2969 Q-69.0613 -32.625 -68.5925 -33.75 Q-68.1238 -34.875 -67.0925 -35.9531 L-66.4831 -35.9531 Q-67.4519 -34.8906 -67.9363 -33.7188 Q-68.4206 -32.5469 -68.4206 -31.3125 Q-68.4206 -29.9844 -67.9831 -28.9688 L-68.4988 -28.9688 Q-69.0613 -30 -69.0613 -31.2969 ZM-63.4387 -31.8906 Q-63.4387 -31.0625 -63.9856 -30.6094 Q-64.5325 -30.1562 -65.5325 -30.1562 Q-65.9387 -30.1562 -66.2512 -30.2109 Q-66.5637 -30.2656 -66.845 -30.4062 L-66.845 -31.0625 Q-66.22 -30.7344 -65.5168 -30.7344 Q-64.8918 -30.7344 -64.5168 -31.0312 Q-64.1418 -31.3281 -64.1418 -31.8438 Q-64.1418 -32.1562 -64.345 -32.3828 Q-64.5481 -32.6094 -65.1106 -32.9375 Q-65.7043 -33.2656 -65.9309 -33.5938 Q-66.1575 -33.9219 -66.1575 -34.375 Q-66.1575 -35.1094 -65.6418 -35.5703 Q-65.1262 -36.0312 -64.2825 -36.0312 Q-63.9075 -36.0312 -63.5715 -35.9531 Q-63.2356 -35.875 -62.8606 -35.7031 L-63.1262 -35.1094 Q-63.3762 -35.2656 -63.6965 -35.3516 Q-64.0168 -35.4375 -64.2825 -35.4375 Q-64.8137 -35.4375 -65.134 -35.1641 Q-65.4543 -34.8906 -65.4543 -34.4219 Q-65.4543 -34.2188 -65.384 -34.0703 Q-65.3137 -33.9219 -65.1731 -33.7891 Q-65.0325 -33.6562 -64.6106 -33.4062 Q-64.0481 -33.0625 -63.845 -32.8672 Q-63.6418 -32.6719 -63.5403 -32.4375 Q-63.4387 -32.2031 -63.4387 -31.8906 ZM-60.8442 -33.6094 Q-60.8442 -32.2812 -61.3208 -31.1484 Q-61.7974 -30.0156 -62.813 -28.9688 L-63.4224 -28.9688 Q-61.4849 -31.125 -61.4849 -33.6094 Q-61.4849 -34.9375 -61.9224 -35.9531 L-61.4067 -35.9531 Q-60.8442 -34.8906 -60.8442 -33.6094 Z" /><ns0:path style="fill:none; stroke:black;" d="M-39.403 -37.25 L-38.97 -37.5 L-38.537 -37.25" /><ns0:path style="stroke:none;" d="M-51.7388 -41.2968 Q-51.7388 -42.6249 -51.2701 -43.7499 Q-50.8013 -44.8749 -49.7701 -45.953 L-49.1607 -45.953 Q-50.1295 -44.8905 -50.6138 -43.7186 Q-51.0982 -42.5468 -51.0982 -41.3124 Q-51.0982 -39.9843 -50.6607 -38.9686 L-51.1763 -38.9686 Q-51.7388 -39.9999 -51.7388 -41.2968 ZM-46.1163 -41.8905 Q-46.1163 -41.0624 -46.6632 -40.6093 Q-47.21 -40.1561 -48.21 -40.1561 Q-48.6163 -40.1561 -48.9288 -40.2108 Q-49.2413 -40.2655 -49.5225 -40.4061 L-49.5225 -41.0624 Q-48.8975 -40.7343 -48.1944 -40.7343 Q-47.5694 -40.7343 -47.1944 -41.0311 Q-46.8194 -41.328 -46.8194 -41.8436 Q-46.8194 -42.1561 -47.0225 -42.3827 Q-47.2257 -42.6093 -47.7882 -42.9374 Q-48.3819 -43.2655 -48.6085 -43.5936 Q-48.835 -43.9218 -48.835 -44.3749 Q-48.835 -45.1093 -48.3194 -45.5702 Q-47.8038 -46.0311 -46.96 -46.0311 Q-46.585 -46.0311 -46.2491 -45.953 Q-45.9132 -45.8749 -45.5382 -45.703 L-45.8038 -45.1093 Q-46.0538 -45.2655 -46.3741 -45.3515 Q-46.6944 -45.4374 -46.96 -45.4374 Q-47.4913 -45.4374 -47.8116 -45.164 Q-48.1319 -44.8905 -48.1319 -44.4218 Q-48.1319 -44.2186 -48.0616 -44.0702 Q-47.9913 -43.9218 -47.8507 -43.789 Q-47.71 -43.6561 -47.2882 -43.4061 Q-46.7257 -43.0624 -46.5225 -42.8671 Q-46.3194 -42.6718 -46.2178 -42.4374 Q-46.1163 -42.203 -46.1163 -41.8905 ZM-43.5218 -43.6093 Q-43.5218 -42.2811 -43.9984 -41.1483 Q-44.4749 -40.0155 -45.4905 -38.9686 L-46.0999 -38.9686 Q-44.1624 -41.1249 -44.1624 -43.6093 Q-44.1624 -44.9374 -44.5999 -45.953 L-44.0843 -45.953 Q-43.5218 -44.8905 -43.5218 -43.6093 Z" /><ns0:path style="stroke:none;" d="M-78.002 3.6642 Q-78.002 2.336 -77.5332 1.211 Q-77.0645 0.086 -76.0332 -0.9921 L-75.4238 -0.9921 Q-76.3926 0.0704 -76.877 1.2423 Q-77.3613 2.4142 -77.3613 3.6485 Q-77.3613 4.9767 -76.9238 5.9923 L-77.4395 5.9923 Q-78.002 4.961 -78.002 3.6642 ZM-74.4419 2.3517 L-74.9419 4.7267 L-75.5982 4.7267 L-74.395 -0.9921 L-73.145 -0.9921 Q-71.4107 -0.9921 -71.4107 0.4454 Q-71.4107 1.8048 -72.8482 2.1954 L-71.9107 4.7267 L-72.6294 4.7267 L-73.4575 2.3517 L-74.4419 2.3517 ZM-73.8638 -0.3983 Q-74.2544 1.5235 -74.3169 1.7735 L-73.6607 1.7735 Q-72.9107 1.7735 -72.5044 1.4454 Q-72.0982 1.1173 -72.0982 0.4923 Q-72.0982 0.0235 -72.356 -0.1874 Q-72.6138 -0.3983 -73.2075 -0.3983 L-73.8638 -0.3983 ZM-69.2247 1.3517 Q-69.2247 2.6798 -69.7012 3.8126 Q-70.1778 4.9454 -71.1934 5.9923 L-71.8028 5.9923 Q-69.8653 3.836 -69.8653 1.3517 Q-69.8653 0.0235 -70.3028 -0.9921 L-69.7872 -0.9921 Q-69.2247 0.0704 -69.2247 1.3517 Z" /><ns0:path style="stroke:none;" d="M-17.3786 -31.3359 Q-17.3786 -32.6641 -16.9099 -33.7891 Q-16.4411 -34.9141 -15.4099 -35.9922 L-14.8005 -35.9922 Q-15.7693 -34.9297 -16.2536 -33.7578 Q-16.738 -32.5859 -16.738 -31.3516 Q-16.738 -30.0234 -16.3005 -29.0078 L-16.8161 -29.0078 Q-17.3786 -30.0391 -17.3786 -31.3359 ZM-13.8186 -32.6484 L-14.3186 -30.2734 L-14.9748 -30.2734 L-13.7717 -35.9922 L-12.5217 -35.9922 Q-10.7873 -35.9922 -10.7873 -34.5547 Q-10.7873 -33.1953 -12.2248 -32.8047 L-11.2873 -30.2734 L-12.0061 -30.2734 L-12.8342 -32.6484 L-13.8186 -32.6484 ZM-13.2405 -35.3984 Q-13.6311 -33.4766 -13.6936 -33.2266 L-13.0373 -33.2266 Q-12.2873 -33.2266 -11.8811 -33.5547 Q-11.4748 -33.8828 -11.4748 -34.5078 Q-11.4748 -34.9766 -11.7326 -35.1875 Q-11.9905 -35.3984 -12.5842 -35.3984 L-13.2405 -35.3984 ZM-8.6014 -33.6484 Q-8.6014 -32.3203 -9.0779 -31.1875 Q-9.5545 -30.0547 -10.5701 -29.0078 L-11.1795 -29.0078 Q-9.242 -31.1641 -9.242 -33.6484 Q-9.242 -34.9766 -9.6795 -35.9922 L-9.1639 -35.9922 Q-8.6014 -34.9297 -8.6014 -33.6484 Z" /><ns0:path style="fill:none; stroke:black;" d="M-39.403 22.25 L-38.97 22.5 L-38.537 22.25" /><ns0:path style="stroke:none;" d="M-43.3589 13.6641 Q-43.3589 12.3359 -42.8901 11.2109 Q-42.4214 10.0859 -41.3901 9.0078 L-40.7808 9.0078 Q-41.7495 10.0703 -42.2339 11.2422 Q-42.7183 12.4141 -42.7183 13.6484 Q-42.7183 14.9766 -42.2808 15.9922 L-42.7964 15.9922 Q-43.3589 14.9609 -43.3589 13.6641 ZM-39.7988 12.3516 L-40.2988 14.7266 L-40.9551 14.7266 L-39.752 9.0078 L-38.502 9.0078 Q-36.7676 9.0078 -36.7676 10.4453 Q-36.7676 11.8047 -38.2051 12.1953 L-37.2676 14.7266 L-37.9863 14.7266 L-38.8145 12.3516 L-39.7988 12.3516 ZM-39.2207 9.6016 Q-39.6113 11.5234 -39.6738 11.7734 L-39.0176 11.7734 Q-38.2676 11.7734 -37.8613 11.4453 Q-37.4551 11.1172 -37.4551 10.4922 Q-37.4551 10.0234 -37.7129 9.8125 Q-37.9707 9.6016 -38.5645 9.6016 L-39.2207 9.6016 ZM-34.5816 11.3516 Q-34.5816 12.6797 -35.0582 13.8125 Q-35.5347 14.9453 -36.5504 15.9922 L-37.1597 15.9922 Q-35.2222 13.8359 -35.2222 11.3516 Q-35.2222 10.0234 -35.6597 9.0078 L-35.1441 9.0078 Q-34.5816 10.0703 -34.5816 11.3516 Z" /></ns0:g><ns0:g transform="translate(146,115)" style="stroke-linecap:butt; fill:rgb(230,0,0); text-rendering:geometricPrecision; color-rendering:optimizeQuality; image-rendering:optimizeQuality; font-family:'Open Sans'; stroke:rgb(230,0,0); color-interpolation:linearRGB; stroke-miterlimit:5;"><ns0:path style="stroke:none;" d="M-9.0525 7.4297 Q-9.0525 9.4922 -10.0916 10.6719 Q-11.1306 11.8516 -12.9744 11.8516 Q-14.865 11.8516 -15.8962 10.6875 Q-16.9275 9.5234 -16.9275 7.4141 Q-16.9275 5.3203 -15.8962 4.1719 Q-14.865 3.0234 -12.9744 3.0234 Q-11.115 3.0234 -10.0837 4.1953 Q-9.0525 5.3672 -9.0525 7.4297 ZM-15.8806 7.4297 Q-15.8806 9.1641 -15.1384 10.0703 Q-14.3962 10.9766 -12.9744 10.9766 Q-11.5525 10.9766 -10.8259 10.0781 Q-10.0994 9.1797 -10.0994 7.4297 Q-10.0994 5.6953 -10.8259 4.8047 Q-11.5525 3.9141 -12.9744 3.9141 Q-14.3962 3.9141 -15.1384 4.8125 Q-15.8806 5.7109 -15.8806 7.4297 Z" /><ns0:path style="fill:none; stroke:black;" d="M38.97 -22 L38.97 -22.5 L38.537 -22.75" /><ns0:path style="fill:none; stroke:black;" d="M38.97 7 L38.97 7.5 L39.403 7.75" /><ns0:path style="fill:none; stroke:black;" d="M64.52 -37.25 L64.953 -37.5 L65.386 -37.25" /><ns0:path style="fill:none; stroke:black;" d="M64.52 22.25 L64.953 22.5 L65.386 22.25" /><ns0:path style="fill:none; stroke:black;" d="M90.5 -22.75 L90.933 -22.5 L90.933 -22" /><ns0:path style="fill:none; stroke:black;" d="M90.5 7.75 L90.933 7.5 L90.933 7" /></ns0:g></ns0:g></ns0:svg></ns0:svg></ns0:svg></ns0:svg></g></svg>