<svg width="181" viewBox="0 0 181 136" style="fill-opacity:1; color-rendering:auto; color-interpolation:auto; text-rendering:auto; stroke:black; stroke-linecap:square; stroke-miterlimit:10; shape-rendering:auto; stroke-opacity:1; fill:black; stroke-dasharray:none; font-weight:normal; stroke-width:1; font-family:'Open Sans'; font-style:normal; stroke-linejoin:miter; font-size:12; stroke-dashoffset:0; image-rendering:auto;" height="136" class="cas-substance-image" xmlns:xlink="http://www.w3.org/1999/xlink" xmlns="http://www.w3.org/2000/svg"><svg class="cas-substance-single-component"><rect y="0" x="0" width="181" stroke="none" ry="7" rx="7" height="136" fill="white" class="cas-substance-group"/><svg y="0" x="0" width="181" viewBox="0 0 181 136" style="fill:black;" height="136" class="cas-substance-single-component-image"><svg><g><g transform="translate(97,67)" style="text-rendering:geometricPrecision; color-rendering:optimizeQuality; color-interpolation:linearRGB; stroke-linecap:butt; image-rendering:optimizeQuality;"><line y2="-17.5108" y1="-26.8216" x2="47.6139" x1="31.4856" style="fill:none;"/><line y2="-15" y1="-26.8112" x2="0" x1="20.457" style="fill:none;"/><line y2="-1.7259" y1="-10.9283" x2="71.4538" x1="55.5153" style="fill:none;"/><line y2="-4.7569" y1="-13.9593" x2="73.2039" x1="57.2654" style="fill:none;"/><line y2="4.3833" y1="-10.3312" x2="38.751" x1="47.2467" style="fill:none;"/><line y2="6.1333" y1="-8.5812" x2="41.782" x1="50.2777" style="fill:none;"/><line y2="-35.332" y1="-20.1767" x2="63.702" x1="54.9518" style="fill:none;"/><line y2="-30" y1="-53.8438" x2="-25.98" x1="-25.98" style="fill:none;"/><line y2="-15" y1="-27.0649" x2="-51.963" x1="-72.8594" style="fill:none;"/><line y2="30" y1="53.5938" x2="-25.98" x1="-25.98" style="fill:none;"/><line y2="-30" y1="-15" x2="-25.98" x1="0" style="fill:none;"/><line y2="8.5938" y1="-15" x2="0" x1="0" style="fill:none;"/><line y2="8.5938" y1="-12.9793" x2="-3.5" x1="-3.5" style="fill:none;"/><line y2="-15" y1="-30" x2="-51.963" x1="-25.98" style="fill:none;"/><line y2="-12.9791" y1="-25.9585" x2="-48.4631" x1="-25.9802" style="fill:none;"/><line y2="30" y1="17.9351" x2="-25.98" x1="-5.0836" style="fill:none;"/><line y2="8.5938" y1="-15" x2="-51.963" x1="-51.963" style="fill:none;"/><line y2="17.9348" y1="30" x2="-46.8794" x1="-25.98" style="fill:none;"/><line y2="14.9036" y1="25.9585" x2="-45.1295" x1="-25.9802" style="fill:none;"/></g><g transform="translate(97,67)" style="fill:rgb(230,0,0); text-rendering:geometricPrecision; color-rendering:optimizeQuality; image-rendering:optimizeQuality; font-family:'Open Sans'; stroke:rgb(230,0,0); color-interpolation:linearRGB;"><path style="stroke:none;" d="M29.9175 -30.0703 Q29.9175 -28.0078 28.8784 -26.8281 Q27.8394 -25.6484 25.9956 -25.6484 Q24.105 -25.6484 23.0737 -26.8125 Q22.0425 -27.9766 22.0425 -30.0859 Q22.0425 -32.1797 23.0737 -33.3281 Q24.105 -34.4766 25.9956 -34.4766 Q27.855 -34.4766 28.8862 -33.3047 Q29.9175 -32.1328 29.9175 -30.0703 ZM23.0894 -30.0703 Q23.0894 -28.3359 23.8316 -27.4297 Q24.5737 -26.5234 25.9956 -26.5234 Q27.4175 -26.5234 28.1441 -27.4219 Q28.8706 -28.3203 28.8706 -30.0703 Q28.8706 -31.8047 28.1441 -32.6953 Q27.4175 -33.5859 25.9956 -33.5859 Q24.5737 -33.5859 23.8316 -32.6875 Q23.0894 -31.7891 23.0894 -30.0703 Z"/><path style="fill:rgb(148,108,0); stroke:none;" d="M54.6583 -13.0625 Q54.6583 -11.9375 53.838 -11.2969 Q53.0177 -10.6562 51.6114 -10.6562 Q50.0802 -10.6562 49.2677 -11.0625 L49.2677 -12.0156 Q49.7989 -11.7969 50.4161 -11.6641 Q51.0333 -11.5312 51.6427 -11.5312 Q52.6427 -11.5312 53.1427 -11.9141 Q53.6427 -12.2969 53.6427 -12.9688 Q53.6427 -13.4062 53.463 -13.6953 Q53.2833 -13.9844 52.8693 -14.2266 Q52.4552 -14.4688 51.5958 -14.7656 Q50.4083 -15.1875 49.8927 -15.7734 Q49.3771 -16.3594 49.3771 -17.3125 Q49.3771 -18.2969 50.1193 -18.8828 Q50.8614 -19.4688 52.0958 -19.4688 Q53.3614 -19.4688 54.4396 -19 L54.1271 -18.1406 Q53.0646 -18.5781 52.0646 -18.5781 Q51.2677 -18.5781 50.8224 -18.2422 Q50.3771 -17.9062 50.3771 -17.2969 Q50.3771 -16.8594 50.5411 -16.5703 Q50.7052 -16.2812 51.0958 -16.0469 Q51.4864 -15.8125 52.2989 -15.5156 Q53.6427 -15.0469 54.1505 -14.4922 Q54.6583 -13.9375 54.6583 -13.0625 Z"/><path style="stroke:none;" d="M81.8805 -0.0703 Q81.8805 1.9922 80.8414 3.1719 Q79.8024 4.3516 77.9586 4.3516 Q76.068 4.3516 75.0368 3.1875 Q74.0055 2.0234 74.0055 -0.0859 Q74.0055 -2.1797 75.0368 -3.3281 Q76.068 -4.4766 77.9586 -4.4766 Q79.818 -4.4766 80.8493 -3.3047 Q81.8805 -2.1328 81.8805 -0.0703 ZM75.0524 -0.0703 Q75.0524 1.6641 75.7946 2.5703 Q76.5368 3.4766 77.9586 3.4766 Q79.3805 3.4766 80.1071 2.5781 Q80.8336 1.6797 80.8336 -0.0703 Q80.8336 -1.8047 80.1071 -2.6953 Q79.3805 -3.5859 77.9586 -3.5859 Q76.5368 -3.5859 75.7946 -2.6875 Q75.0524 -1.7891 75.0524 -0.0703 Z"/><path style="stroke:none;" d="M40.9005 10.9097 Q40.9005 12.9722 39.8614 14.1519 Q38.8224 15.3316 36.9786 15.3316 Q35.088 15.3316 34.0568 14.1675 Q33.0255 13.0034 33.0255 10.8941 Q33.0255 8.8003 34.0568 7.6519 Q35.088 6.5034 36.9786 6.5034 Q38.838 6.5034 39.8693 7.6753 Q40.9005 8.8472 40.9005 10.9097 ZM34.0724 10.9097 Q34.0724 12.6441 34.8146 13.5503 Q35.5568 14.4566 36.9786 14.4566 Q38.4005 14.4566 39.1271 13.5581 Q39.8536 12.6597 39.8536 10.9097 Q39.8536 9.1753 39.1271 8.2847 Q38.4005 7.3941 36.9786 7.3941 Q35.5568 7.3941 34.8146 8.2925 Q34.0724 9.1909 34.0724 10.9097 Z"/><path style="stroke:none;" d="M70.9005 -41.0503 Q70.9005 -38.9878 69.8614 -37.8081 Q68.8224 -36.6284 66.9786 -36.6284 Q65.088 -36.6284 64.0567 -37.7925 Q63.0255 -38.9566 63.0255 -41.0659 Q63.0255 -43.1597 64.0567 -44.3081 Q65.088 -45.4566 66.9786 -45.4566 Q68.838 -45.4566 69.8692 -44.2847 Q70.9005 -43.1128 70.9005 -41.0503 ZM64.0724 -41.0503 Q64.0724 -39.3159 64.8146 -38.4097 Q65.5567 -37.5034 66.9786 -37.5034 Q68.4005 -37.5034 69.1271 -38.4019 Q69.8536 -39.3003 69.8536 -41.0503 Q69.8536 -42.7847 69.1271 -43.6753 Q68.4005 -44.5659 66.9786 -44.5659 Q65.5567 -44.5659 64.8146 -43.6675 Q64.0724 -42.7691 64.0724 -41.0503 Z"/><path style="stroke:none;" d="M78.4161 -36.7534 L77.4161 -36.7534 L77.4161 -40.7847 L72.9005 -40.7847 L72.9005 -36.7534 L71.9005 -36.7534 L71.9005 -45.3159 L72.9005 -45.3159 L72.9005 -41.6753 L77.4161 -41.6753 L77.4161 -45.3159 L78.4161 -45.3159 L78.4161 -36.7534 Z"/><path style="fill:rgb(0,5,255); stroke:none;" d="M-22.6284 -55.8438 L-23.7691 -55.8438 L-28.4566 -63.0312 L-28.5034 -63.0312 Q-28.4097 -61.7656 -28.4097 -60.7188 L-28.4097 -55.8438 L-29.3316 -55.8438 L-29.3316 -64.4062 L-28.2066 -64.4062 L-23.5347 -57.25 L-23.4878 -57.25 Q-23.4878 -57.4062 -23.5347 -58.2656 Q-23.5816 -59.125 -23.5659 -59.5 L-23.5659 -64.4062 L-22.6284 -64.4062 L-22.6284 -55.8438 Z"/><path style="fill:rgb(0,5,255); stroke:none;" d="M-15.1128 -55.8438 L-16.1128 -55.8438 L-16.1128 -59.875 L-20.6284 -59.875 L-20.6284 -55.8438 L-21.6284 -55.8438 L-21.6284 -64.4062 L-20.6284 -64.4062 L-20.6284 -60.7656 L-16.1128 -60.7656 L-16.1128 -64.4062 L-15.1128 -64.4062 L-15.1128 -55.8438 Z"/><path style="fill:rgb(0,5,255); stroke:none;" d="M-10.3628 -54.0344 L-14.1128 -54.0344 L-14.1128 -54.5969 L-12.6128 -56.1125 Q-11.9253 -56.8 -11.7066 -57.0969 Q-11.4878 -57.3937 -11.3784 -57.675 Q-11.2691 -57.9562 -11.2691 -58.2844 Q-11.2691 -58.7375 -11.5425 -59.0031 Q-11.8159 -59.2687 -12.3159 -59.2687 Q-12.6597 -59.2687 -12.98 -59.1516 Q-13.3003 -59.0344 -13.6909 -58.7375 L-14.0347 -59.175 Q-13.2534 -59.8312 -12.3159 -59.8312 Q-11.5191 -59.8312 -11.0581 -59.4172 Q-10.5972 -59.0031 -10.5972 -58.3156 Q-10.5972 -57.7687 -10.9019 -57.2375 Q-11.2066 -56.7062 -12.0503 -55.8937 L-13.3003 -54.675 L-13.3003 -54.6437 L-10.3628 -54.6437 L-10.3628 -54.0344 Z"/><path style="fill:rgb(0,5,255); stroke:none;" d="M-74.5914 -25.8438 L-75.7321 -25.8438 L-80.4196 -33.0312 L-80.4664 -33.0312 Q-80.3727 -31.7656 -80.3727 -30.7188 L-80.3727 -25.8438 L-81.2946 -25.8438 L-81.2946 -34.4062 L-80.1696 -34.4062 L-75.4977 -27.25 L-75.4508 -27.25 Q-75.4508 -27.4062 -75.4977 -28.2656 Q-75.5446 -29.125 -75.5289 -29.5 L-75.5289 -34.4062 L-74.5914 -34.4062 L-74.5914 -25.8438 Z"/><path style="fill:rgb(0,5,255); stroke:none;" d="M-87.0446 -25.8438 L-88.0446 -25.8438 L-88.0446 -29.875 L-92.5602 -29.875 L-92.5602 -25.8438 L-93.5602 -25.8438 L-93.5602 -34.4062 L-92.5602 -34.4062 L-92.5602 -30.7656 L-88.0446 -30.7656 L-88.0446 -34.4062 L-87.0446 -34.4062 L-87.0446 -25.8438 Z"/><path style="fill:rgb(0,5,255); stroke:none;" d="M-82.2946 -24.0344 L-86.0446 -24.0344 L-86.0446 -24.5969 L-84.5446 -26.1125 Q-83.8571 -26.8 -83.6383 -27.0969 Q-83.4196 -27.3937 -83.3102 -27.675 Q-83.2008 -27.9562 -83.2008 -28.2844 Q-83.2008 -28.7375 -83.4743 -29.0031 Q-83.7477 -29.2687 -84.2477 -29.2687 Q-84.5914 -29.2687 -84.9118 -29.1516 Q-85.2321 -29.0344 -85.6227 -28.7375 L-85.9664 -29.175 Q-85.1852 -29.8312 -84.2477 -29.8312 Q-83.4508 -29.8312 -82.9899 -29.4172 Q-82.5289 -29.0031 -82.5289 -28.3156 Q-82.5289 -27.7687 -82.8336 -27.2375 Q-83.1383 -26.7062 -83.9821 -25.8937 L-85.2321 -24.675 L-85.2321 -24.6437 L-82.2946 -24.6437 L-82.2946 -24.0344 Z"/><path style="fill:rgb(0,5,255); stroke:none;" d="M-22.6284 64.1562 L-23.7691 64.1562 L-28.4566 56.9688 L-28.5034 56.9688 Q-28.4097 58.2344 -28.4097 59.2812 L-28.4097 64.1562 L-29.3316 64.1562 L-29.3316 55.5938 L-28.2066 55.5938 L-23.5347 62.75 L-23.4878 62.75 Q-23.4878 62.5938 -23.5347 61.7344 Q-23.5816 60.875 -23.5659 60.5 L-23.5659 55.5938 L-22.6284 55.5938 L-22.6284 64.1562 Z"/><path style="fill:rgb(0,5,255); stroke:none;" d="M-15.1128 64.1562 L-16.1128 64.1562 L-16.1128 60.125 L-20.6284 60.125 L-20.6284 64.1562 L-21.6284 64.1562 L-21.6284 55.5938 L-20.6284 55.5938 L-20.6284 59.2344 L-16.1128 59.2344 L-16.1128 55.5938 L-15.1128 55.5938 L-15.1128 64.1562 Z"/><path style="fill:rgb(0,5,255); stroke:none;" d="M-10.3628 65.9656 L-14.1128 65.9656 L-14.1128 65.4031 L-12.6128 63.8875 Q-11.9253 63.2 -11.7066 62.9031 Q-11.4878 62.6062 -11.3784 62.325 Q-11.2691 62.0437 -11.2691 61.7156 Q-11.2691 61.2625 -11.5425 60.9969 Q-11.8159 60.7312 -12.3159 60.7312 Q-12.6597 60.7312 -12.98 60.8484 Q-13.3003 60.9656 -13.6909 61.2625 L-14.0347 60.825 Q-13.2534 60.1687 -12.3159 60.1687 Q-11.5191 60.1687 -11.0581 60.5828 Q-10.5972 60.9969 -10.5972 61.6844 Q-10.5972 62.2312 -10.9019 62.7625 Q-11.2066 63.2937 -12.0503 64.1062 L-13.3003 65.325 L-13.3003 65.3562 L-10.3628 65.3562 L-10.3628 65.9656 Z"/></g><g transform="translate(97,67)" style="stroke-linecap:butt; font-size:8.4px; text-rendering:geometricPrecision; color-rendering:optimizeQuality; image-rendering:optimizeQuality; font-family:'Open Sans'; color-interpolation:linearRGB; stroke-miterlimit:5;"><path style="fill:none;" d="M-0 -14.5 L0 -15 L0.433 -15.25"/><path style="fill:none;" d="M-26.413 -29.75 L-25.98 -30 L-25.98 -30.5"/><path style="fill:rgb(0,5,255); stroke:none;" d="M3.3516 19.1562 L2.2109 19.1562 L-2.4766 11.9688 L-2.5234 11.9688 Q-2.4297 13.2344 -2.4297 14.2812 L-2.4297 19.1562 L-3.3516 19.1562 L-3.3516 10.5938 L-2.2266 10.5938 L2.4453 17.75 L2.4922 17.75 Q2.4922 17.5938 2.4453 16.7344 Q2.3984 15.875 2.4141 15.5 L2.4141 10.5938 L3.3516 10.5938 L3.3516 19.1562 Z"/><path style="fill:none;" d="M-51.53 -15.25 L-51.963 -15 L-51.963 -14.5"/><path style="fill:none;" d="M-26.413 29.75 L-25.98 30 L-25.547 29.75"/><path style="fill:rgb(0,5,255); stroke:none;" d="M-48.6114 19.1562 L-49.7521 19.1562 L-54.4396 11.9688 L-54.4864 11.9688 Q-54.3927 13.2344 -54.3927 14.2812 L-54.3927 19.1562 L-55.3146 19.1562 L-55.3146 10.5938 L-54.1896 10.5938 L-49.5177 17.75 L-49.4708 17.75 Q-49.4708 17.5938 -49.5177 16.7344 Q-49.5646 15.875 -49.5489 15.5 L-49.5489 10.5938 L-48.6114 10.5938 L-48.6114 19.1562 Z"/></g></g></svg></svg></svg></svg>