<svg width="185" viewBox="0 0 185 149" style="fill-opacity:1; color-rendering:auto; color-interpolation:auto; text-rendering:auto; stroke:black; stroke-linecap:square; stroke-miterlimit:10; shape-rendering:auto; stroke-opacity:1; fill:black; stroke-dasharray:none; font-weight:normal; stroke-width:1; font-family:'Open Sans'; font-style:normal; stroke-linejoin:miter; font-size:12; stroke-dashoffset:0; image-rendering:auto;" height="149" class="cas-substance-image" xmlns:xlink="http://www.w3.org/1999/xlink" xmlns="http://www.w3.org/2000/svg"><svg class="cas-substance-single-component"><rect y="0" x="0" width="185" stroke="none" ry="7" rx="7" height="149" fill="white" class="cas-substance-group"/><svg y="0" x="0" width="185" viewBox="0 0 185 149" style="fill:black;" height="149" class="cas-substance-single-component-image"><svg><g><g transform="translate(93,82)" style="text-rendering:geometricPrecision; color-rendering:optimizeQuality; color-interpolation:linearRGB; stroke-linecap:butt; image-rendering:optimizeQuality;"><line y2="8.739" y1="8.739" x2="14.184" x1="-10.4644" style="fill:none;"/><path style="stroke:none;" d="M-31.249 -16.991 L-30.383 -17.491 L-16.762 1.1007 L-21.9581 4.1007 Z"/><line y2="28.9942" y1="8.739" x2="25.8773" x1="14.184" style="fill:none;"/><line y2="-10.718" y1="10.4891" x2="27.4386" x1="15.1943" style="fill:none;"/><line y2="-12.4681" y1="8.739" x2="24.4075" x1="12.1633" style="fill:none;"/><line y2="34.722" y1="34.722" x2="59.184" x1="35.1215" style="fill:none;"/><line y2="64.722" y1="34.722" x2="59.184" x1="59.184" style="fill:none;"/><line y2="34.722" y1="34.722" x2="89.184" x1="59.184" style="fill:none;"/><line y2="4.722" y1="34.722" x2="59.184" x1="59.184" style="fill:none;"/><line y2="-17.241" y1="-20.376" x2="-30.816" x1="-60.651" style="fill:none;"/><line y2="8.967" y1="-20.376" x2="-66.888" x1="-60.651" style="fill:none;"/><line y2="-11.106" y1="-20.376" x2="-89.184" x1="-60.651" style="fill:none;"/><line y2="-49.722" y1="-20.376" x2="-66.888" x1="-60.651" style="fill:none;"/><line y2="-44.646" y1="-17.241" x2="-18.615" x1="-30.816" style="fill:none;"/><line y2="-11.106" y1="8.967" x2="-89.184" x1="-66.888" style="fill:none;"/><line y2="-61.7869" y1="-49.722" x2="-45.9916" x1="-66.888" style="fill:none;"/><line y2="-60.3654" y1="-44.646" x2="-36.0703" x1="-18.615" style="fill:none;"/></g><g transform="translate(93,82)" style="fill:rgb(0,5,255); text-rendering:geometricPrecision; color-rendering:optimizeQuality; image-rendering:optimizeQuality; font-family:'Open Sans'; stroke:rgb(0,5,255); color-interpolation:linearRGB;"><path style="stroke:none;" d="M-12.4644 12.8953 L-13.6051 12.8953 L-18.2926 5.7078 L-18.3394 5.7078 Q-18.2457 6.9734 -18.2457 8.0203 L-18.2457 12.8953 L-19.1676 12.8953 L-19.1676 4.3328 L-18.0426 4.3328 L-13.3707 11.489 L-13.3238 11.489 Q-13.3238 11.3328 -13.3707 10.4734 Q-13.4176 9.614 -13.4019 9.239 L-13.4019 4.3328 L-12.4644 4.3328 L-12.4644 12.8953 Z"/><path style="stroke:none;" d="M-12.5582 22.4578 L-13.5582 22.4578 L-13.5582 18.4265 L-18.0738 18.4265 L-18.0738 22.4578 L-19.0738 22.4578 L-19.0738 13.8953 L-18.0738 13.8953 L-18.0738 17.5359 L-13.5582 17.5359 L-13.5582 13.8953 L-12.5582 13.8953 L-12.5582 22.4578 Z"/></g><g transform="translate(93,82)" style="stroke-linecap:butt; text-rendering:geometricPrecision; color-rendering:optimizeQuality; image-rendering:optimizeQuality; font-family:'Open Sans'; color-interpolation:linearRGB; stroke-miterlimit:5;"><path style="fill:none;" d="M13.684 8.739 L14.184 8.739 L14.434 9.172"/><path style="fill:rgb(230,0,0); stroke:none;" d="M33.1215 34.6517 Q33.1215 36.7142 32.0824 37.8939 Q31.0434 39.0736 29.1996 39.0736 Q27.309 39.0736 26.2778 37.9095 Q25.2465 36.7454 25.2465 34.6361 Q25.2465 32.5423 26.2778 31.3939 Q27.309 30.2454 29.1996 30.2454 Q31.059 30.2454 32.0902 31.4173 Q33.1215 32.5892 33.1215 34.6517 ZM26.2934 34.6517 Q26.2934 36.3861 27.0356 37.2923 Q27.7778 38.1986 29.1996 38.1986 Q30.6215 38.1986 31.3481 37.3001 Q32.0746 36.4017 32.0746 34.6517 Q32.0746 32.9173 31.3481 32.0267 Q30.6215 31.1361 29.1996 31.1361 Q27.7778 31.1361 27.0356 32.0345 Q26.2934 32.9329 26.2934 34.6517 Z"/><path style="fill:rgb(230,0,0); stroke:none;" d="M33.1215 -17.3113 Q33.1215 -15.2488 32.0824 -14.0691 Q31.0434 -12.8894 29.1996 -12.8894 Q27.309 -12.8894 26.2778 -14.0535 Q25.2465 -15.2176 25.2465 -17.3269 Q25.2465 -19.4207 26.2778 -20.5691 Q27.309 -21.7176 29.1996 -21.7176 Q31.059 -21.7176 32.0902 -20.5457 Q33.1215 -19.3738 33.1215 -17.3113 ZM26.2934 -17.3113 Q26.2934 -15.5769 27.0356 -14.6707 Q27.7778 -13.7644 29.1996 -13.7644 Q30.6215 -13.7644 31.3481 -14.6629 Q32.0746 -15.5613 32.0746 -17.3113 Q32.0746 -19.0457 31.3481 -19.9363 Q30.6215 -20.8269 29.1996 -20.8269 Q27.7778 -20.8269 27.0356 -19.9285 Q26.2934 -19.0301 26.2934 -17.3113 Z"/></g><g transform="translate(93,82)" style="stroke-linecap:butt; font-size:8.4px; fill:gray; text-rendering:geometricPrecision; image-rendering:optimizeQuality; color-rendering:optimizeQuality; font-family:'Open Sans'; font-style:italic; stroke:gray; color-interpolation:linearRGB; stroke-miterlimit:5;"><path style="stroke:none;" d="M-24.9382 -16.5614 Q-24.9382 -17.8895 -24.4695 -19.0145 Q-24.0007 -20.1395 -22.9695 -21.2176 L-22.3601 -21.2176 Q-23.3289 -20.1551 -23.8132 -18.9832 Q-24.2976 -17.8114 -24.2976 -16.577 Q-24.2976 -15.2489 -23.8601 -14.2332 L-24.3757 -14.2332 Q-24.9382 -15.2645 -24.9382 -16.5614 ZM-19.3157 -17.1551 Q-19.3157 -16.327 -19.8625 -15.8739 Q-20.4094 -15.4207 -21.4094 -15.4207 Q-21.8157 -15.4207 -22.1282 -15.4754 Q-22.4407 -15.5301 -22.7219 -15.6707 L-22.7219 -16.327 Q-22.0969 -15.9989 -21.3938 -15.9989 Q-20.7688 -15.9989 -20.3938 -16.2957 Q-20.0188 -16.5926 -20.0188 -17.1082 Q-20.0188 -17.4207 -20.2219 -17.6473 Q-20.425 -17.8739 -20.9875 -18.202 Q-21.5813 -18.5301 -21.8079 -18.8582 Q-22.0344 -19.1864 -22.0344 -19.6395 Q-22.0344 -20.3739 -21.5188 -20.8348 Q-21.0032 -21.2957 -20.1594 -21.2957 Q-19.7844 -21.2957 -19.4485 -21.2176 Q-19.1125 -21.1395 -18.7375 -20.9676 L-19.0032 -20.3739 Q-19.2532 -20.5301 -19.5735 -20.6161 Q-19.8938 -20.702 -20.1594 -20.702 Q-20.6907 -20.702 -21.011 -20.4286 Q-21.3313 -20.1551 -21.3313 -19.6864 Q-21.3313 -19.4832 -21.261 -19.3348 Q-21.1907 -19.1864 -21.05 -19.0536 Q-20.9094 -18.9207 -20.4875 -18.6707 Q-19.925 -18.327 -19.7219 -18.1317 Q-19.5188 -17.9364 -19.4172 -17.702 Q-19.3157 -17.4676 -19.3157 -17.1551 ZM-16.7212 -18.8739 Q-16.7212 -17.5457 -17.1978 -16.4129 Q-17.6743 -15.2801 -18.6899 -14.2332 L-19.2993 -14.2332 Q-17.3618 -16.3895 -17.3618 -18.8739 Q-17.3618 -20.202 -17.7993 -21.2176 L-17.2837 -21.2176 Q-16.7212 -20.1551 -16.7212 -18.8739 Z"/><path style="fill:none; stroke:black;" d="M-66.784 8.4779 L-66.888 8.967 L-67.2596 8.6325"/><path style="fill:none; stroke:black;" d="M-88.7085 -11.2605 L-89.184 -11.106 L-88.8124 -10.7715"/><path style="fill:none; stroke:black;" d="M-66.7841 -49.2329 L-66.888 -49.722 L-66.455 -49.972"/><path style="fill:none; stroke:black;" d="M-18.8184 -44.1892 L-18.615 -44.646 L-18.9865 -44.9806"/></g><g transform="translate(93,82)" style="stroke-linecap:butt; fill:rgb(0,5,255); text-rendering:geometricPrecision; color-rendering:optimizeQuality; image-rendering:optimizeQuality; font-family:'Open Sans'; stroke:rgb(0,5,255); color-interpolation:linearRGB; stroke-miterlimit:5;"><path style="stroke:none;" d="M-37.5564 -60.5658 L-38.6971 -60.5658 L-43.3846 -67.7533 L-43.4314 -67.7533 Q-43.3377 -66.4876 -43.3377 -65.4408 L-43.3377 -60.5658 L-44.2596 -60.5658 L-44.2596 -69.1283 L-43.1346 -69.1283 L-38.4627 -61.972 L-38.4158 -61.972 Q-38.4158 -62.1283 -38.4627 -62.9876 Q-38.5096 -63.847 -38.4939 -64.222 L-38.4939 -69.1283 L-37.5564 -69.1283 L-37.5564 -60.5658 Z"/><path style="stroke:none;" d="M-37.6502 -70.1283 L-38.6502 -70.1283 L-38.6502 -74.1595 L-43.1658 -74.1595 L-43.1658 -70.1283 L-44.1658 -70.1283 L-44.1658 -78.6908 L-43.1658 -78.6908 L-43.1658 -75.0501 L-38.6502 -75.0501 L-38.6502 -78.6908 L-37.6502 -78.6908 L-37.6502 -70.1283 Z"/></g></g></svg></svg></svg></svg>