<svg xmlns:ns0="http://www.w3.org/2000/svg" xmlns="http://www.w3.org/2000/svg"><g transform="translate(0, 0)"><ns0:svg width="126" viewBox="0 0 126 130" style="fill-opacity:1; color-rendering:auto; color-interpolation:auto; text-rendering:auto; stroke:black; stroke-linecap:square; stroke-miterlimit:10; shape-rendering:auto; stroke-opacity:1; fill:black; stroke-dasharray:none; font-weight:normal; stroke-width:1; font-family:'Open Sans'; font-style:normal; stroke-linejoin:miter; font-size:12; stroke-dashoffset:0; image-rendering:auto;" height="130" class="cas-substance-image"><ns0:svg class="cas-substance-single-component"><ns0:rect y="0" x="0" width="126" stroke="none" ry="7" rx="7" height="130" fill="white" class="cas-substance-group" /><ns0:svg y="0" x="0" width="126" viewBox="0 0 126 115" style="fill:black;" height="115" class="cas-substance-single-component-image"><ns0:svg><ns0:g><ns0:g transform="translate(60,63)" style="text-rendering:geometricPrecision; color-rendering:optimizeQuality; color-interpolation:linearRGB; stroke-linecap:butt; image-rendering:optimizeQuality;"><ns0:line y2="42.3406" y1="30.582" x2="20.3659" x1="0" style="fill:none;" /><ns0:line y2="40.8404" y1="28.5613" x2="-21.2675" x1="0" style="fill:none;" /><ns0:line y2="43.8715" y1="31.5924" x2="-19.5175" x1="1.75" style="fill:none;" /><ns0:line y2="0.582" y1="30.582" x2="0" x1="0" style="fill:none;" /><ns0:line y2="-15.7806" y1="-8.0125" x2="-22.5201" x1="-46.4225" style="fill:none;" /><ns0:line y2="-19.1093" y1="-11.3411" x2="-23.6015" x1="-47.5043" style="fill:none;" /><ns0:line y2="-17.052" y1="-9.2514" x2="24.27" x1="48.2725" style="fill:none;" /><ns0:line y2="-17.052" y1="0.582" x2="-24.27" x1="0" style="fill:none;" /><ns0:line y2="-17.052" y1="0.582" x2="24.27" x1="0" style="fill:none;" /><ns0:line y2="-18.6957" y1="-3.4373" x2="20.5779" x1="-0.4225" style="fill:none;" /><ns0:line y2="-39.5236" y1="-17.052" x2="-16.9685" x1="-24.27" style="fill:none;" /><ns0:line y2="-39.5583" y1="-17.052" x2="16.9572" x1="24.27" style="fill:none;" /><ns0:line y2="-45.582" y1="-45.582" x2="10.3567" x1="-9.6484" style="fill:none;" /><ns0:path style="fill:none; stroke-miterlimit:5;" d="M0.433 30.832 L0 30.582 L0 30.082" /></ns0:g><ns0:g transform="translate(60,63)" style="stroke-linecap:butt; fill:rgb(230,0,0); text-rendering:geometricPrecision; color-rendering:optimizeQuality; image-rendering:optimizeQuality; font-family:'Open Sans'; stroke:rgb(230,0,0); color-interpolation:linearRGB; stroke-miterlimit:5;"><ns0:path style="stroke:none;" d="M29.9175 45.5117 Q29.9175 47.5742 28.8784 48.7539 Q27.8394 49.9336 25.9956 49.9336 Q24.105 49.9336 23.0737 48.7695 Q22.0425 47.6054 22.0425 45.4961 Q22.0425 43.4023 23.0737 42.2539 Q24.105 41.1054 25.9956 41.1054 Q27.855 41.1054 28.8862 42.2773 Q29.9175 43.4492 29.9175 45.5117 ZM23.0894 45.5117 Q23.0894 47.2461 23.8316 48.1523 Q24.5737 49.0586 25.9956 49.0586 Q27.4175 49.0586 28.1441 48.1601 Q28.8706 47.2617 28.8706 45.5117 Q28.8706 43.7773 28.1441 42.8867 Q27.4175 41.9961 25.9956 41.9961 Q24.5737 41.9961 23.8316 42.8945 Q23.0894 43.7929 23.0894 45.5117 Z" /><ns0:path style="stroke:none;" d="M37.4331 49.8086 L36.4331 49.8086 L36.4331 45.7773 L31.9175 45.7773 L31.9175 49.8086 L30.9175 49.8086 L30.9175 41.2461 L31.9175 41.2461 L31.9175 44.8867 L36.4331 44.8867 L36.4331 41.2461 L37.4331 41.2461 L37.4331 49.8086 Z" /><ns0:path style="stroke:none;" d="M-22.0425 45.5117 Q-22.0425 47.5742 -23.0816 48.7539 Q-24.1206 49.9336 -25.9644 49.9336 Q-27.855 49.9336 -28.8862 48.7695 Q-29.9175 47.6054 -29.9175 45.4961 Q-29.9175 43.4023 -28.8862 42.2539 Q-27.855 41.1054 -25.9644 41.1054 Q-24.105 41.1054 -23.0737 42.2773 Q-22.0425 43.4492 -22.0425 45.5117 ZM-28.8706 45.5117 Q-28.8706 47.2461 -28.1284 48.1523 Q-27.3862 49.0586 -25.9644 49.0586 Q-24.5425 49.0586 -23.8159 48.1601 Q-23.0894 47.2617 -23.0894 45.5117 Q-23.0894 43.7773 -23.8159 42.8867 Q-24.5425 41.9961 -25.9644 41.9961 Q-27.3862 41.9961 -28.1284 42.8945 Q-28.8706 43.7929 -28.8706 45.5117 Z" /><ns0:path style="stroke:none;" d="M-48.8655 -7.8493 Q-48.8655 -5.7868 -49.9046 -4.6071 Q-50.9436 -3.4274 -52.7874 -3.4274 Q-54.678 -3.4274 -55.7093 -4.5915 Q-56.7405 -5.7556 -56.7405 -7.8649 Q-56.7405 -9.9587 -55.7093 -11.1071 Q-54.678 -12.2556 -52.7874 -12.2556 Q-50.928 -12.2556 -49.8968 -11.0837 Q-48.8655 -9.9118 -48.8655 -7.8493 ZM-55.6936 -7.8493 Q-55.6936 -6.1149 -54.9514 -5.2087 Q-54.2093 -4.3024 -52.7874 -4.3024 Q-51.3655 -4.3024 -50.6389 -5.2009 Q-49.9124 -6.0993 -49.9124 -7.8493 Q-49.9124 -9.5837 -50.6389 -10.4743 Q-51.3655 -11.3649 -52.7874 -11.3649 Q-54.2093 -11.3649 -54.9514 -10.4665 Q-55.6936 -9.5681 -55.6936 -7.8493 Z" /><ns0:path style="fill:rgb(148,108,0); stroke:none;" d="M55.4983 -5.8415 Q55.4983 -4.7165 54.678 -4.0759 Q53.8577 -3.4352 52.4514 -3.4352 Q50.9202 -3.4352 50.1077 -3.8415 L50.1077 -4.7946 Q50.6389 -4.5759 51.2561 -4.4431 Q51.8733 -4.3102 52.4827 -4.3102 Q53.4827 -4.3102 53.9827 -4.6931 Q54.4827 -5.0759 54.4827 -5.7477 Q54.4827 -6.1852 54.303 -6.4743 Q54.1233 -6.7634 53.7093 -7.0056 Q53.2952 -7.2477 52.4358 -7.5446 Q51.2483 -7.9665 50.7327 -8.5524 Q50.2171 -9.1384 50.2171 -10.0915 Q50.2171 -11.0759 50.9593 -11.6618 Q51.7014 -12.2477 52.9358 -12.2477 Q54.2014 -12.2477 55.2796 -11.779 L54.9671 -10.9196 Q53.9046 -11.3571 52.9046 -11.3571 Q52.1077 -11.3571 51.6624 -11.0212 Q51.2171 -10.6852 51.2171 -10.0759 Q51.2171 -9.6384 51.3811 -9.3493 Q51.5452 -9.0602 51.9358 -8.8259 Q52.3264 -8.5915 53.1389 -8.2946 Q54.4827 -7.8259 54.9905 -7.2712 Q55.4983 -6.7165 55.4983 -5.8415 Z" /><ns0:path style="fill:rgb(148,108,0); stroke:none;" d="M63.0139 -3.5602 L62.0139 -3.5602 L62.0139 -7.5915 L57.4983 -7.5915 L57.4983 -3.5602 L56.4983 -3.5602 L56.4983 -12.1227 L57.4983 -12.1227 L57.4983 -8.4821 L62.0139 -8.4821 L62.0139 -12.1227 L63.0139 -12.1227 L63.0139 -3.5602 Z" /><ns0:path style="fill:none; stroke:black;" d="M0.4045 0.2881 L0 0.582 L-0 1.082" /><ns0:path style="fill:none; stroke:black;" d="M-23.8655 -16.7581 L-24.27 -17.052 L-24.1155 -17.5275" /><ns0:path style="fill:none; stroke:black;" d="M23.8655 -16.7581 L24.27 -17.052 L24.7455 -16.8975" /><ns0:path style="fill:rgb(0,5,255); stroke:none;" d="M-11.6484 -41.4258 L-12.7891 -41.4258 L-17.4766 -48.6133 L-17.5234 -48.6133 Q-17.4297 -47.3476 -17.4297 -46.3008 L-17.4297 -41.4258 L-18.3516 -41.4258 L-18.3516 -49.9883 L-17.2266 -49.9883 L-12.5547 -42.832 L-12.5078 -42.832 Q-12.5078 -42.9883 -12.5547 -43.8476 Q-12.6016 -44.707 -12.5859 -45.082 L-12.5859 -49.9883 L-11.6484 -49.9883 L-11.6484 -41.4258 Z" /><ns0:path style="fill:rgb(0,5,255); stroke:none;" d="M-11.7422 -50.9883 L-12.7422 -50.9883 L-12.7422 -55.0195 L-17.2578 -55.0195 L-17.2578 -50.9883 L-18.2578 -50.9883 L-18.2578 -59.5508 L-17.2578 -59.5508 L-17.2578 -55.9101 L-12.7422 -55.9101 L-12.7422 -59.5508 L-11.7422 -59.5508 L-11.7422 -50.9883 Z" /><ns0:path style="fill:rgb(148,108,0); stroke:none;" d="M17.6953 -43.6445 Q17.6953 -42.5195 16.875 -41.8789 Q16.0547 -41.2383 14.6484 -41.2383 Q13.1172 -41.2383 12.3047 -41.6445 L12.3047 -42.5976 Q12.8359 -42.3789 13.4531 -42.2461 Q14.0703 -42.1133 14.6797 -42.1133 Q15.6797 -42.1133 16.1797 -42.4961 Q16.6797 -42.8789 16.6797 -43.5508 Q16.6797 -43.9883 16.5 -44.2773 Q16.3203 -44.5664 15.9062 -44.8086 Q15.4922 -45.0508 14.6328 -45.3476 Q13.4453 -45.7695 12.9297 -46.3554 Q12.4141 -46.9414 12.4141 -47.8945 Q12.4141 -48.8789 13.1562 -49.4648 Q13.8984 -50.0508 15.1328 -50.0508 Q16.3984 -50.0508 17.4766 -49.582 L17.1641 -48.7226 Q16.1016 -49.1601 15.1016 -49.1601 Q14.3047 -49.1601 13.8594 -48.8242 Q13.4141 -48.4883 13.4141 -47.8789 Q13.4141 -47.4414 13.5781 -47.1523 Q13.7422 -46.8633 14.1328 -46.6289 Q14.5234 -46.3945 15.3359 -46.0976 Q16.6797 -45.6289 17.1875 -45.0742 Q17.6953 -44.5195 17.6953 -43.6445 Z" /></ns0:g></ns0:g></ns0:svg></ns0:svg><ns0:svg y="115" x="55" class="cas-substance-saf"><ns0:svg y="5" x="0" width="4" style="fill:black;" height="4" class="cas-substance-saf-dot"><ns0:circle stroke="none" r="2" fill="black" cy="2" cx="2" /></ns0:svg><ns0:svg y="0" x="8" width="20" style="fill:black;" height="15" class="cas-substance-saf-image"><ns0:svg><ns0:g><ns0:g transform="translate(10,7)" style="text-rendering:geometricPrecision; font-family:'Open Sans'; color-interpolation:linearRGB; color-rendering:optimizeQuality; image-rendering:optimizeQuality;"><ns0:path style="stroke:none;" d="M-0.0859 4.1562 L-1.2266 4.1562 L-5.9141 -3.0312 L-5.9609 -3.0312 Q-5.8672 -1.7656 -5.8672 -0.7188 L-5.8672 4.1562 L-6.7891 4.1562 L-6.7891 -4.4062 L-5.6641 -4.4062 L-0.9922 2.75 L-0.9453 2.75 Q-0.9453 2.5938 -0.9922 1.7344 Q-1.0391 0.875 -1.0234 0.5 L-1.0234 -4.4062 L-0.0859 -4.4062 L-0.0859 4.1562 ZM6.0703 4.1562 L5.8672 3.2344 L5.8203 3.2344 Q5.3516 3.8438 4.875 4.0625 Q4.3984 4.2812 3.6797 4.2812 Q2.7266 4.2812 2.1797 3.7812 Q1.6328 3.2812 1.6328 2.375 Q1.6328 0.4375 4.7422 0.3438 L5.8359 0.3125 L5.8359 -0.0938 Q5.8359 -0.8438 5.5156 -1.2031 Q5.1953 -1.5625 4.4766 -1.5625 Q3.6641 -1.5625 2.6641 -1.0781 L2.3516 -1.8281 Q2.8359 -2.0781 3.3984 -2.2266 Q3.9609 -2.375 4.5391 -2.375 Q5.6797 -2.375 6.2344 -1.8672 Q6.7891 -1.3594 6.7891 -0.2344 L6.7891 4.1562 L6.0703 4.1562 ZM3.8672 3.4688 Q4.7734 3.4688 5.2969 2.9688 Q5.8203 2.4688 5.8203 1.5781 L5.8203 1 L4.8359 1.0312 Q3.6797 1.0781 3.1719 1.3984 Q2.6641 1.7188 2.6641 2.3906 Q2.6641 2.9219 2.9766 3.1953 Q3.2891 3.4688 3.8672 3.4688 Z" /></ns0:g></ns0:g></ns0:svg></ns0:svg></ns0:svg></ns0:svg></ns0:svg></g></svg>