<svg xmlns:ns0="http://www.w3.org/2000/svg" xmlns="http://www.w3.org/2000/svg"><g transform="translate(0, 0)"><ns0:svg width="177" viewBox="0 0 177 112" style="fill-opacity:1; color-rendering:auto; color-interpolation:auto; text-rendering:auto; stroke:black; stroke-linecap:square; stroke-miterlimit:10; shape-rendering:auto; stroke-opacity:1; fill:black; stroke-dasharray:none; font-weight:normal; stroke-width:1; font-family:'Open Sans'; font-style:normal; stroke-linejoin:miter; font-size:12; stroke-dashoffset:0; image-rendering:auto;" height="112" class="cas-substance-image"><ns0:svg class="cas-substance-single-component"><ns0:rect y="0" x="0" width="177" stroke="none" ry="7" rx="7" height="112" fill="white" class="cas-substance-group" /><ns0:svg y="0" x="0" width="177" viewBox="0 0 177 112" style="fill:black;" height="112" class="cas-substance-single-component-image"><ns0:svg><ns0:g><ns0:g transform="translate(87,56)" style="text-rendering:geometricPrecision; color-rendering:optimizeQuality; color-interpolation:linearRGB; stroke-linecap:butt; image-rendering:optimizeQuality;"><ns0:line y2="-24.27" y1="-52.803" x2="-54.552" x1="-45.279" style="fill:none;" /><ns0:line y2="24.27" y1="52.803" x2="-54.552" x1="-45.279" style="fill:none;" /><ns0:line y2="0" y1="0" x2="53.082" x1="76.664" style="fill:none;" /><ns0:line y2="-24.27" y1="-6.0243" x2="-54.552" x1="-41.2951" style="fill:none;" /><ns0:line y2="24.27" y1="5.7743" x2="-54.552" x1="-41.1134" style="fill:none;" /><ns0:line y2="0" y1="0" x2="-6.918" x1="-31.5664" style="fill:none;" /><ns0:line y2="-15" y1="-24.27" x2="-83.082" x1="-54.552" style="fill:none;" /><ns0:line y2="-12.2957" y1="-20.3169" x2="-80.0786" x1="-55.3923" style="fill:none;" /><ns0:line y2="15" y1="24.27" x2="-83.082" x1="-54.552" style="fill:none;" /><ns0:line y2="12.2957" y1="20.3169" x2="-80.0786" x1="-55.3923" style="fill:none;" /><ns0:line y2="15" y1="-15" x2="-83.082" x1="-83.082" style="fill:none;" /><ns0:line y2="25.98" y1="0" x2="8.082" x1="-6.918" style="fill:none;" /><ns0:line y2="22.48" y1="-0.0001" x2="10.1027" x1="-2.8765" style="fill:none;" /><ns0:line y2="-25.98" y1="0" x2="8.082" x1="-6.918" style="fill:none;" /><ns0:line y2="25.98" y1="25.98" x2="38.082" x1="8.082" style="fill:none;" /><ns0:line y2="-25.98" y1="-25.98" x2="38.082" x1="8.082" style="fill:none;" /><ns0:line y2="-22.48" y1="-22.48" x2="36.0613" x1="10.1027" style="fill:none;" /><ns0:line y2="0" y1="25.98" x2="53.082" x1="38.082" style="fill:none;" /><ns0:line y2="-0.0001" y1="22.48" x2="49.0406" x1="36.0613" style="fill:none;" /><ns0:line y2="0" y1="-25.98" x2="53.082" x1="38.082" style="fill:none;" /></ns0:g><ns0:g transform="translate(87,56)" style="fill:rgb(0,138,0); text-rendering:geometricPrecision; color-rendering:optimizeQuality; image-rendering:optimizeQuality; font-family:'Open Sans'; stroke:rgb(0,138,0); color-interpolation:linearRGB;"><ns0:path style="stroke:none;" d="M82.7734 -3.3594 Q81.3671 -3.3594 80.5468 -2.4219 Q79.7265 -1.4844 79.7265 0.1562 Q79.7265 1.8281 80.5156 2.75 Q81.3046 3.6719 82.7578 3.6719 Q83.664 3.6719 84.8046 3.3438 L84.8046 4.2188 Q83.914 4.5625 82.6171 4.5625 Q80.7265 4.5625 79.6953 3.4062 Q78.664 2.25 78.664 0.1406 Q78.664 -1.1875 79.1562 -2.1797 Q79.6484 -3.1719 80.5859 -3.7109 Q81.5234 -4.25 82.789 -4.25 Q84.1328 -4.25 85.1484 -3.7656 L84.7265 -2.9062 Q83.7421 -3.3594 82.7734 -3.3594 ZM87.5 4.4375 L86.5312 4.4375 L86.5312 -4.6875 L87.5 -4.6875 L87.5 4.4375 Z" /><ns0:path style="fill:rgb(0,5,255); stroke:none;" d="M-33.5664 4.1562 L-34.7071 4.1562 L-39.3946 -3.0312 L-39.4414 -3.0312 Q-39.3477 -1.7656 -39.3477 -0.7188 L-39.3477 4.1562 L-40.2696 4.1562 L-40.2696 -4.4062 L-39.1446 -4.4062 L-34.4727 2.75 L-34.4258 2.75 Q-34.4258 2.5938 -34.4727 1.7344 Q-34.5196 0.875 -34.5039 0.5 L-34.5039 -4.4062 L-33.5664 -4.4062 L-33.5664 4.1562 Z" /></ns0:g><ns0:g transform="translate(87,56)" style="stroke-linecap:butt; text-rendering:geometricPrecision; color-rendering:optimizeQuality; image-rendering:optimizeQuality; font-family:'Open Sans'; color-interpolation:linearRGB; stroke-miterlimit:5;"><ns0:path style="fill:none;" d="M-55.0275 -24.1155 L-54.552 -24.27 L-54.2581 -23.8655" /><ns0:path style="fill:none;" d="M-55.0275 24.1155 L-54.552 24.27 L-54.2581 23.8655" /><ns0:path style="fill:none;" d="M-82.6065 -15.1545 L-83.082 -15 L-83.082 -14.5" /><ns0:path style="fill:none;" d="M-82.6065 15.1545 L-83.082 15 L-83.082 14.5" /><ns0:path style="fill:none;" d="M-6.668 0.433 L-6.918 0 L-7.418 -0" /><ns0:path style="fill:none;" d="M7.832 25.547 L8.082 25.98 L8.582 25.98" /><ns0:path style="fill:none;" d="M7.832 -25.547 L8.082 -25.98 L8.582 -25.98" /><ns0:path style="fill:none;" d="M37.582 25.98 L38.082 25.98 L38.332 25.547" /><ns0:path style="fill:none;" d="M37.582 -25.98 L38.082 -25.98 L38.332 -25.547" /><ns0:path style="fill:none;" d="M52.832 0.433 L53.082 0 L53.582 0" /></ns0:g></ns0:g></ns0:svg></ns0:svg></ns0:svg></ns0:svg></g></svg>