<svg width="761" viewBox="0 0 761 60" style="fill-opacity:1; color-rendering:auto; color-interpolation:auto; text-rendering:auto; stroke:black; stroke-linecap:square; stroke-miterlimit:10; shape-rendering:auto; stroke-opacity:1; fill:black; stroke-dasharray:none; font-weight:normal; stroke-width:1; font-family:'Open Sans'; font-style:normal; stroke-linejoin:miter; font-size:12; stroke-dashoffset:0; image-rendering:auto;" height="60" class="cas-substance-image" xmlns:xlink="http://www.w3.org/1999/xlink" xmlns="http://www.w3.org/2000/svg"><svg class="cas-substance-single-component"><rect y="0" x="0" width="761" stroke="none" ry="7" rx="7" height="60" fill="white" class="cas-substance-group"/><svg y="0" x="0" width="761" viewBox="0 0 761 60" style="fill:black;" height="60" class="cas-substance-single-component-image"><svg><g><g transform="translate(378,30)" style="text-rendering:geometricPrecision; color-rendering:optimizeQuality; color-interpolation:linearRGB; stroke-linecap:butt; image-rendering:optimizeQuality;"><line y2="-7.5" y1="-19.3214" x2="-77.943" x1="-98.4176" style="fill:none;"/><line y2="-7.5" y1="-19.3112" x2="-129.903" x1="-109.446" style="fill:none;"/><line y2="-22.5" y1="-7.5" x2="-51.963" x1="-77.943" style="fill:none;"/><line y2="-22.5" y1="-7.5" x2="-155.886" x1="-129.903" style="fill:none;"/><line y2="-10.7412" y1="-22.5" x2="-31.5943" x1="-51.963" style="fill:none;"/><line y2="-10.726" y1="-22.5" x2="-176.2785" x1="-155.886" style="fill:none;"/><line y2="-22.5" y1="-10.726" x2="0" x1="-20.3925" style="fill:none;"/><line y2="-22.5" y1="-10.7414" x2="-207.846" x1="-187.4801" style="fill:none;"/><line y2="-7.5" y1="-22.5" x2="25.98" x1="0" style="fill:none;"/><line y2="-7.5" y1="-22.5" x2="-233.826" x1="-207.846" style="fill:none;"/><line y2="-19.3112" y1="-7.5" x2="46.437" x1="25.98" style="fill:none;"/><line y2="-19.3216" y1="-7.5" x2="-254.3035" x1="-233.826" style="fill:none;"/><line y2="-7.5" y1="-19.3216" x2="77.943" x1="57.4655" style="fill:none;"/><line y2="-7.5" y1="-19.3112" x2="-285.789" x1="-265.3321" style="fill:none;"/><line y2="-22.5" y1="-7.5" x2="103.923" x1="77.943" style="fill:none;"/><line y2="-22.5" y1="-7.5" x2="-311.769" x1="-285.789" style="fill:none;"/><line y2="-10.7414" y1="-22.5" x2="124.2889" x1="103.923" style="fill:none;"/><line y2="-7.5" y1="-22.5" x2="-337.749" x1="-311.769" style="fill:none;"/><line y2="-22.5" y1="-10.726" x2="155.883" x1="135.4905" style="fill:none;"/><line y2="-19.3216" y1="-7.5" x2="-358.2264" x1="-337.749" style="fill:none;"/><line y2="16.0234" y1="-8.5103" x2="-339.499" x1="-339.499" style="fill:none;"/><line y2="16.0234" y1="-8.5104" x2="-335.999" x1="-335.999" style="fill:none;"/><line y2="-7.5" y1="-22.5" x2="181.866" x1="155.883" style="fill:none;"/><line y2="-19.3112" y1="-7.5" x2="202.323" x1="181.866" style="fill:none;"/><line y2="-7.5" y1="-19.3214" x2="233.826" x1="213.3513" style="fill:none;"/><line y2="-22.5" y1="-7.5" x2="259.809" x1="233.826" style="fill:none;"/><line y2="-10.7414" y1="-22.5" x2="280.1749" x1="259.809" style="fill:none;"/><line y2="-22.5" y1="-10.726" x2="311.769" x1="291.3765" style="fill:none;"/><line y2="-7.5" y1="-22.5" x2="337.749" x1="311.769" style="fill:none;"/><line y2="-19.5652" y1="-7.5" x2="358.6483" x1="337.749" style="fill:none;"/></g><g transform="translate(378,30)" style="fill:rgb(230,0,0); text-rendering:geometricPrecision; color-rendering:optimizeQuality; image-rendering:optimizeQuality; font-family:'Open Sans'; stroke:rgb(230,0,0); color-interpolation:linearRGB;"><path style="stroke:none;" d="M-99.9855 -22.5703 Q-99.9855 -20.5078 -101.0246 -19.3281 Q-102.0636 -18.1484 -103.9074 -18.1484 Q-105.798 -18.1484 -106.8292 -19.3125 Q-107.8605 -20.4766 -107.8605 -22.5859 Q-107.8605 -24.6797 -106.8292 -25.8281 Q-105.798 -26.9766 -103.9074 -26.9766 Q-102.048 -26.9766 -101.0167 -25.8047 Q-99.9855 -24.6328 -99.9855 -22.5703 ZM-106.8136 -22.5703 Q-106.8136 -20.8359 -106.0714 -19.9297 Q-105.3292 -19.0234 -103.9074 -19.0234 Q-102.4855 -19.0234 -101.7589 -19.9219 Q-101.0324 -20.8203 -101.0324 -22.5703 Q-101.0324 -24.3047 -101.7589 -25.1953 Q-102.4855 -26.0859 -103.9074 -26.0859 Q-105.3292 -26.0859 -106.0714 -25.1875 Q-106.8136 -24.2891 -106.8136 -22.5703 Z"/></g><g transform="translate(378,30)" style="stroke-linecap:butt; text-rendering:geometricPrecision; color-rendering:optimizeQuality; image-rendering:optimizeQuality; font-family:'Open Sans'; color-interpolation:linearRGB; stroke-miterlimit:5;"><path style="fill:none;" d="M-78.376 -7.75 L-77.943 -7.5 L-77.51 -7.75"/><path style="fill:none;" d="M-129.47 -7.75 L-129.903 -7.5 L-130.336 -7.75"/><path style="fill:none;" d="M-52.396 -22.25 L-51.963 -22.5 L-51.53 -22.25"/><path style="fill:none;" d="M-155.453 -22.25 L-155.886 -22.5 L-156.319 -22.25"/><path style="fill:rgb(230,0,0); stroke:none;" d="M-22.0425 -7.5703 Q-22.0425 -5.5078 -23.0816 -4.3281 Q-24.1206 -3.1484 -25.9644 -3.1484 Q-27.855 -3.1484 -28.8862 -4.3125 Q-29.9175 -5.4766 -29.9175 -7.5859 Q-29.9175 -9.6797 -28.8862 -10.8281 Q-27.855 -11.9766 -25.9644 -11.9766 Q-24.105 -11.9766 -23.0737 -10.8047 Q-22.0425 -9.6328 -22.0425 -7.5703 ZM-28.8706 -7.5703 Q-28.8706 -5.8359 -28.1284 -4.9297 Q-27.3862 -4.0234 -25.9644 -4.0234 Q-24.5425 -4.0234 -23.8159 -4.9219 Q-23.0894 -5.8203 -23.0894 -7.5703 Q-23.0894 -9.3047 -23.8159 -10.1953 Q-24.5425 -11.0859 -25.9644 -11.0859 Q-27.3862 -11.0859 -28.1284 -10.1875 Q-28.8706 -9.2891 -28.8706 -7.5703 Z"/><path style="fill:rgb(230,0,0); stroke:none;" d="M-177.9285 -7.5703 Q-177.9285 -5.5078 -178.9676 -4.3281 Q-180.0066 -3.1484 -181.8504 -3.1484 Q-183.741 -3.1484 -184.7722 -4.3125 Q-185.8035 -5.4766 -185.8035 -7.5859 Q-185.8035 -9.6797 -184.7722 -10.8281 Q-183.741 -11.9766 -181.8504 -11.9766 Q-179.991 -11.9766 -178.9597 -10.8047 Q-177.9285 -9.6328 -177.9285 -7.5703 ZM-184.7566 -7.5703 Q-184.7566 -5.8359 -184.0144 -4.9297 Q-183.2722 -4.0234 -181.8504 -4.0234 Q-180.4285 -4.0234 -179.7019 -4.9219 Q-178.9754 -5.8203 -178.9754 -7.5703 Q-178.9754 -9.3047 -179.7019 -10.1953 Q-180.4285 -11.0859 -181.8504 -11.0859 Q-183.2722 -11.0859 -184.0144 -10.1875 Q-184.7566 -9.2891 -184.7566 -7.5703 Z"/><path style="fill:none;" d="M-0.433 -22.25 L0 -22.5 L0.433 -22.25"/><path style="fill:none;" d="M-207.413 -22.25 L-207.846 -22.5 L-208.279 -22.25"/><path style="fill:none;" d="M25.547 -7.75 L25.98 -7.5 L26.413 -7.75"/><path style="fill:none;" d="M-233.393 -7.75 L-233.826 -7.5 L-234.259 -7.75"/><path style="fill:rgb(230,0,0); stroke:none;" d="M55.8975 -22.5703 Q55.8975 -20.5078 54.8584 -19.3281 Q53.8194 -18.1484 51.9756 -18.1484 Q50.085 -18.1484 49.0537 -19.3125 Q48.0225 -20.4766 48.0225 -22.5859 Q48.0225 -24.6797 49.0537 -25.8281 Q50.085 -26.9766 51.9756 -26.9766 Q53.835 -26.9766 54.8662 -25.8047 Q55.8975 -24.6328 55.8975 -22.5703 ZM49.0694 -22.5703 Q49.0694 -20.8359 49.8116 -19.9297 Q50.5537 -19.0234 51.9756 -19.0234 Q53.3975 -19.0234 54.1241 -19.9219 Q54.8506 -20.8203 54.8506 -22.5703 Q54.8506 -24.3047 54.1241 -25.1953 Q53.3975 -26.0859 51.9756 -26.0859 Q50.5537 -26.0859 49.8116 -25.1875 Q49.0694 -24.2891 49.0694 -22.5703 Z"/><path style="fill:rgb(230,0,0); stroke:none;" d="M-255.8715 -22.5703 Q-255.8715 -20.5078 -256.9106 -19.3281 Q-257.9496 -18.1484 -259.7934 -18.1484 Q-261.684 -18.1484 -262.7153 -19.3125 Q-263.7465 -20.4766 -263.7465 -22.5859 Q-263.7465 -24.6797 -262.7153 -25.8281 Q-261.684 -26.9766 -259.7934 -26.9766 Q-257.934 -26.9766 -256.9028 -25.8047 Q-255.8715 -24.6328 -255.8715 -22.5703 ZM-262.6996 -22.5703 Q-262.6996 -20.8359 -261.9575 -19.9297 Q-261.2153 -19.0234 -259.7934 -19.0234 Q-258.3715 -19.0234 -257.645 -19.9219 Q-256.9184 -20.8203 -256.9184 -22.5703 Q-256.9184 -24.3047 -257.645 -25.1953 Q-258.3715 -26.0859 -259.7934 -26.0859 Q-261.2153 -26.0859 -261.9575 -25.1875 Q-262.6996 -24.2891 -262.6996 -22.5703 Z"/><path style="fill:none;" d="M77.51 -7.75 L77.943 -7.5 L78.376 -7.75"/><path style="fill:none;" d="M-285.356 -7.75 L-285.789 -7.5 L-286.222 -7.75"/><path style="fill:none;" d="M103.49 -22.25 L103.923 -22.5 L104.356 -22.25"/><path style="fill:none;" d="M-311.336 -22.25 L-311.769 -22.5 L-312.202 -22.25"/><path style="fill:rgb(230,0,0); stroke:none;" d="M133.8405 -7.5703 Q133.8405 -5.5078 132.8014 -4.3281 Q131.7624 -3.1484 129.9186 -3.1484 Q128.028 -3.1484 126.9967 -4.3125 Q125.9655 -5.4766 125.9655 -7.5859 Q125.9655 -9.6797 126.9967 -10.8281 Q128.028 -11.9766 129.9186 -11.9766 Q131.778 -11.9766 132.8092 -10.8047 Q133.8405 -9.6328 133.8405 -7.5703 ZM127.0124 -7.5703 Q127.0124 -5.8359 127.7546 -4.9297 Q128.4967 -4.0234 129.9186 -4.0234 Q131.3405 -4.0234 132.0671 -4.9219 Q132.7936 -5.8203 132.7936 -7.5703 Q132.7936 -9.3047 132.0671 -10.1953 Q131.3405 -11.0859 129.9186 -11.0859 Q128.4967 -11.0859 127.7546 -10.1875 Q127.0124 -9.2891 127.0124 -7.5703 Z"/><path style="fill:none;" d="M-337.316 -7.75 L-337.749 -7.5 L-338.182 -7.75"/><path style="fill:none;" d="M155.45 -22.25 L155.883 -22.5 L156.316 -22.25"/><path style="fill:rgb(230,0,0); stroke:none;" d="M-359.7945 -22.5703 Q-359.7945 -20.5078 -360.8336 -19.3281 Q-361.8726 -18.1484 -363.7164 -18.1484 Q-365.607 -18.1484 -366.6382 -19.3125 Q-367.6695 -20.4766 -367.6695 -22.5859 Q-367.6695 -24.6797 -366.6382 -25.8281 Q-365.607 -26.9766 -363.7164 -26.9766 Q-361.857 -26.9766 -360.8257 -25.8047 Q-359.7945 -24.6328 -359.7945 -22.5703 ZM-366.6226 -22.5703 Q-366.6226 -20.8359 -365.8804 -19.9297 Q-365.1382 -19.0234 -363.7164 -19.0234 Q-362.2945 -19.0234 -361.5679 -19.9219 Q-360.8414 -20.8203 -360.8414 -22.5703 Q-360.8414 -24.3047 -361.5679 -25.1953 Q-362.2945 -26.0859 -363.7164 -26.0859 Q-365.1382 -26.0859 -365.8804 -25.1875 Q-366.6226 -24.2891 -366.6226 -22.5703 Z"/><path style="fill:rgb(230,0,0); stroke:none;" d="M-368.6695 -18.2734 L-369.6695 -18.2734 L-369.6695 -22.3047 L-374.1851 -22.3047 L-374.1851 -18.2734 L-375.1851 -18.2734 L-375.1851 -26.8359 L-374.1851 -26.8359 L-374.1851 -23.1953 L-369.6695 -23.1953 L-369.6695 -26.8359 L-368.6695 -26.8359 L-368.6695 -18.2734 Z"/><path style="fill:rgb(230,0,0); stroke:none;" d="M-333.8115 22.4297 Q-333.8115 24.4922 -334.8506 25.6719 Q-335.8896 26.8516 -337.7334 26.8516 Q-339.624 26.8516 -340.6552 25.6875 Q-341.6865 24.5234 -341.6865 22.4141 Q-341.6865 20.3203 -340.6552 19.1719 Q-339.624 18.0234 -337.7334 18.0234 Q-335.874 18.0234 -334.8427 19.1953 Q-333.8115 20.3672 -333.8115 22.4297 ZM-340.6396 22.4297 Q-340.6396 24.1641 -339.8974 25.0703 Q-339.1552 25.9766 -337.7334 25.9766 Q-336.3115 25.9766 -335.5849 25.0781 Q-334.8584 24.1797 -334.8584 22.4297 Q-334.8584 20.6953 -335.5849 19.8047 Q-336.3115 18.9141 -337.7334 18.9141 Q-339.1552 18.9141 -339.8974 19.8125 Q-340.6396 20.7109 -340.6396 22.4297 Z"/><path style="fill:none;" d="M181.433 -7.75 L181.866 -7.5 L182.299 -7.75"/><path style="fill:rgb(230,0,0); stroke:none;" d="M211.7835 -22.5703 Q211.7835 -20.5078 210.7444 -19.3281 Q209.7054 -18.1484 207.8616 -18.1484 Q205.971 -18.1484 204.9397 -19.3125 Q203.9085 -20.4766 203.9085 -22.5859 Q203.9085 -24.6797 204.9397 -25.8281 Q205.971 -26.9766 207.8616 -26.9766 Q209.721 -26.9766 210.7522 -25.8047 Q211.7835 -24.6328 211.7835 -22.5703 ZM204.9554 -22.5703 Q204.9554 -20.8359 205.6976 -19.9297 Q206.4397 -19.0234 207.8616 -19.0234 Q209.2835 -19.0234 210.0101 -19.9219 Q210.7366 -20.8203 210.7366 -22.5703 Q210.7366 -24.3047 210.0101 -25.1953 Q209.2835 -26.0859 207.8616 -26.0859 Q206.4397 -26.0859 205.6976 -25.1875 Q204.9554 -24.2891 204.9554 -22.5703 Z"/><path style="fill:none;" d="M233.393 -7.75 L233.826 -7.5 L234.259 -7.75"/><path style="fill:none;" d="M259.376 -22.25 L259.809 -22.5 L260.242 -22.25"/><path style="fill:rgb(230,0,0); stroke:none;" d="M289.7265 -7.5703 Q289.7265 -5.5078 288.6874 -4.3281 Q287.6484 -3.1484 285.8046 -3.1484 Q283.914 -3.1484 282.8828 -4.3125 Q281.8515 -5.4766 281.8515 -7.5859 Q281.8515 -9.6797 282.8828 -10.8281 Q283.914 -11.9766 285.8046 -11.9766 Q287.664 -11.9766 288.6953 -10.8047 Q289.7265 -9.6328 289.7265 -7.5703 ZM282.8984 -7.5703 Q282.8984 -5.8359 283.6406 -4.9297 Q284.3828 -4.0234 285.8046 -4.0234 Q287.2265 -4.0234 287.9531 -4.9219 Q288.6796 -5.8203 288.6796 -7.5703 Q288.6796 -9.3047 287.9531 -10.1953 Q287.2265 -11.0859 285.8046 -11.0859 Q284.3828 -11.0859 283.6406 -10.1875 Q282.8984 -9.2891 282.8984 -7.5703 Z"/><path style="fill:none;" d="M311.336 -22.25 L311.769 -22.5 L312.202 -22.25"/><path style="fill:none;" d="M337.316 -7.75 L337.749 -7.5 L338.182 -7.75"/><path style="fill:rgb(0,5,255); stroke:none;" d="M367.0836 -18.3438 L365.9429 -18.3438 L361.2554 -25.5312 L361.2086 -25.5312 Q361.3023 -24.2656 361.3023 -23.2188 L361.3023 -18.3438 L360.3804 -18.3438 L360.3804 -26.9062 L361.5054 -26.9062 L366.1773 -19.75 L366.2242 -19.75 Q366.2242 -19.9062 366.1773 -20.7656 Q366.1304 -21.625 366.1461 -22 L366.1461 -26.9062 L367.0836 -26.9062 L367.0836 -18.3438 Z"/><path style="fill:rgb(0,5,255); stroke:none;" d="M374.5992 -18.3438 L373.5992 -18.3438 L373.5992 -22.375 L369.0836 -22.375 L369.0836 -18.3438 L368.0836 -18.3438 L368.0836 -26.9062 L369.0836 -26.9062 L369.0836 -23.2656 L373.5992 -23.2656 L373.5992 -26.9062 L374.5992 -26.9062 L374.5992 -18.3438 Z"/><path style="fill:rgb(0,5,255); stroke:none;" d="M379.3492 -16.5344 L375.5992 -16.5344 L375.5992 -17.0969 L377.0992 -18.6125 Q377.7867 -19.3 378.0054 -19.5969 Q378.2242 -19.8937 378.3336 -20.175 Q378.4429 -20.4562 378.4429 -20.7844 Q378.4429 -21.2375 378.1695 -21.5031 Q377.8961 -21.7687 377.3961 -21.7687 Q377.0523 -21.7687 376.732 -21.6516 Q376.4117 -21.5344 376.0211 -21.2375 L375.6773 -21.675 Q376.4586 -22.3312 377.3961 -22.3312 Q378.1929 -22.3312 378.6539 -21.9172 Q379.1148 -21.5031 379.1148 -20.8156 Q379.1148 -20.2687 378.8101 -19.7375 Q378.5054 -19.2062 377.6617 -18.3937 L376.4117 -17.175 L376.4117 -17.1437 L379.3492 -17.1437 L379.3492 -16.5344 Z"/></g></g></svg></svg></svg></svg>