<svg xmlns:ns0="http://www.w3.org/2000/svg" xmlns="http://www.w3.org/2000/svg"><g transform="translate(0, 0)"><ns0:svg width="261" viewBox="0 0 261 143" style="fill-opacity:1; color-rendering:auto; color-interpolation:auto; text-rendering:auto; stroke:black; stroke-linecap:square; stroke-miterlimit:10; shape-rendering:auto; stroke-opacity:1; fill:black; stroke-dasharray:none; font-weight:normal; stroke-width:1; font-family:'Open Sans'; font-style:normal; stroke-linejoin:miter; font-size:12; stroke-dashoffset:0; image-rendering:auto;" height="143" class="cas-substance-image"><ns0:svg class="cas-substance-single-component"><ns0:rect y="0" x="0" width="261" stroke="none" ry="7" rx="7" height="143" fill="white" class="cas-substance-group" /><ns0:svg y="0" x="0" width="261" viewBox="0 0 261 143" style="fill:black;" height="143" class="cas-substance-single-component-image"><ns0:svg><ns0:g><ns0:g transform="translate(130,71)" style="text-rendering:geometricPrecision; color-rendering:optimizeQuality; color-interpolation:linearRGB; stroke-linecap:butt; image-rendering:optimizeQuality;"><ns0:path style="stroke:none;" d="M40.3583 -26.0477 L39.3637 -26.1523 L40.0124 -56.2485 L45.9796 -55.6215 Z" /><ns0:path style="stroke:none;" d="M68.8665 -35.2155 L67.9155 -35.5245 L72.7759 -58.5734 L78.4822 -56.7193 Z" /><ns0:path style="stroke:none;" d="M86.025 -10.6 L86.025 -11.6 L110.0875 -14.1 L110.0875 -8.1 Z" /><ns0:line y2="48.9" y1="60.674" x2="-90.045" x1="-110.4375" style="fill:none;" /><ns0:line y2="18.9" y1="3.9" x2="13.878" x1="39.861" style="fill:none;" /><ns0:line y2="-26.1" y1="3.9" x2="39.861" x1="39.861" style="fill:none;" /><ns0:line y2="13.173" y1="3.9" x2="68.391" x1="39.861" style="fill:none;" /><ns0:line y2="3.9" y1="18.9" x2="-12.102" x1="13.878" style="fill:none;" /><ns0:line y2="48.9" y1="18.9" x2="13.878" x1="13.878" style="fill:none;" /><ns0:line y2="-35.37" y1="-26.1" x2="68.391" x1="39.861" style="fill:none;" /><ns0:line y2="-41.1" y1="-26.1" x2="13.878" x1="39.861" style="fill:none;" /><ns0:line y2="-11.1" y1="13.173" x2="86.025" x1="68.391" style="fill:none;" /><ns0:line y2="18.9" y1="3.9" x2="-38.082" x1="-12.102" style="fill:none;" /><ns0:line y2="-26.1" y1="3.9" x2="-12.102" x1="-12.102" style="fill:none;" /><ns0:line y2="63.9" y1="48.9" x2="-12.102" x1="13.878" style="fill:none;" /><ns0:line y2="-11.1" y1="-35.37" x2="86.025" x1="68.391" style="fill:none;" /><ns0:line y2="-26.1" y1="-41.1" x2="-12.102" x1="13.878" style="fill:none;" /><ns0:line y2="48.9" y1="18.9" x2="-38.082" x1="-38.082" style="fill:none;" /><ns0:line y2="3.9" y1="18.9" x2="-64.062" x1="-38.082" style="fill:none;" /><ns0:line y2="7.9415" y1="20.9207" x2="-64.0621" x1="-41.582" style="fill:none;" /><ns0:line y2="48.9" y1="63.9" x2="-38.082" x1="-12.102" style="fill:none;" /><ns0:line y2="63.9" y1="48.9" x2="-64.062" x1="-38.082" style="fill:none;" /><ns0:line y2="59.8586" y1="46.8793" x2="-64.0621" x1="-41.582" style="fill:none;" /><ns0:line y2="18.9" y1="3.9" x2="-90.045" x1="-64.062" style="fill:none;" /><ns0:line y2="48.9" y1="63.9" x2="-90.045" x1="-64.062" style="fill:none;" /><ns0:line y2="48.9" y1="18.9" x2="-90.045" x1="-90.045" style="fill:none;" /><ns0:line y2="46.8793" y1="20.9207" x2="-86.545" x1="-86.545" style="fill:none;" /><ns0:path style="stroke:none;" d="M41.4639 5.1874 L40.2453 5.9203 L40.6665 6.8336 L40.6665 6.8336 L42.0724 5.988 L41.4639 5.1874 ZM43.2895 7.5892 L41.5088 8.6602 L41.5088 8.6602 L41.9299 9.5735 L43.898 8.3898 L43.2895 7.5892 ZM45.115 9.991 L42.7722 11.4001 L43.1934 12.3134 L45.7236 10.7916 L45.115 9.991 ZM46.9406 12.3927 L44.0357 14.14 L44.4568 15.0533 L44.4568 15.0533 L47.5491 13.1933 L46.9406 12.3927 ZM48.7662 14.7945 L45.2991 16.8799 L45.7203 17.7931 L49.3747 15.5951 L48.7662 14.7945 ZM50.5918 17.1963 L46.5626 19.6197 L46.9837 20.533 L51.2003 17.9969 L50.5918 17.1963 ZM52.4174 19.5981 L47.826 22.3596 L48.2472 23.2729 L48.2472 23.2729 L53.0259 20.3987 L53.0259 20.3987 L52.4174 19.5981 Z" /><ns0:path style="stroke:none;" d="M13.5244 19.2536 L14.2316 18.5464 L32.5403 33.3197 L28.2977 37.5623 Z" /><ns0:path style="stroke:none;" d="M-30.6879 -10.1628 L-33.5706 -5.1638 L-32.6528 -4.753 L-29.8731 -9.5732 L-30.6879 -10.1628 ZM-28.2437 -8.3941 L-30.8172 -3.9314 L-30.8172 -3.9314 L-29.8994 -3.5206 L-27.4289 -7.8046 L-28.2437 -8.3941 ZM-25.7995 -6.6255 L-28.0637 -2.699 L-27.1459 -2.2883 L-24.9847 -6.0359 L-25.7995 -6.6255 ZM-23.3553 -4.8568 L-25.3103 -1.4667 L-24.3924 -1.0559 L-24.3924 -1.0559 L-22.5405 -4.2673 L-23.3553 -4.8568 ZM-20.9111 -3.0882 L-22.5568 -0.2343 L-22.5568 -0.2343 L-21.639 0.1765 L-21.639 0.1765 L-20.0963 -2.4987 L-20.9111 -3.0882 ZM-18.4668 -1.3196 L-19.8033 0.998 L-18.8855 1.4088 L-18.8855 1.4088 L-17.6521 -0.73 L-17.6521 -0.73 L-18.4668 -1.3196 ZM-16.0226 0.4491 L-17.0499 2.2304 L-16.132 2.6412 L-15.2079 1.0386 L-15.2079 1.0386 L-16.0226 0.4491 ZM-13.5784 2.2177 L-14.2964 3.4628 L-13.3786 3.8735 L-13.3786 3.8735 L-12.7637 2.8073 L-12.7637 2.8073 L-13.5784 2.2177 Z" /></ns0:g><ns0:g transform="translate(130,71)" style="fill:rgb(230,0,0); text-rendering:geometricPrecision; color-rendering:optimizeQuality; image-rendering:optimizeQuality; font-family:'Open Sans'; stroke:rgb(230,0,0); color-interpolation:linearRGB;"><ns0:path style="stroke:none;" d="M81.5985 -63.9703 Q81.5985 -61.9078 80.5594 -60.7281 Q79.5204 -59.5484 77.6766 -59.5484 Q75.786 -59.5484 74.7548 -60.7125 Q73.7235 -61.8766 73.7235 -63.9859 Q73.7235 -66.0797 74.7548 -67.2281 Q75.786 -68.3766 77.6766 -68.3766 Q79.536 -68.3766 80.5673 -67.2047 Q81.5985 -66.0328 81.5985 -63.9703 ZM74.7704 -63.9703 Q74.7704 -62.2359 75.5126 -61.3297 Q76.2548 -60.4234 77.6766 -60.4234 Q79.0985 -60.4234 79.8251 -61.3219 Q80.5516 -62.2203 80.5516 -63.9703 Q80.5516 -65.7047 79.8251 -66.5953 Q79.0985 -67.4859 77.6766 -67.4859 Q76.2548 -67.4859 75.5126 -66.5875 Q74.7704 -65.6891 74.7704 -63.9703 Z" /><ns0:path style="stroke:none;" d="M89.1141 -59.6734 L88.1141 -59.6734 L88.1141 -63.7047 L83.5985 -63.7047 L83.5985 -59.6734 L82.5985 -59.6734 L82.5985 -68.2359 L83.5985 -68.2359 L83.5985 -64.5953 L88.1141 -64.5953 L88.1141 -68.2359 L89.1141 -68.2359 L89.1141 -59.6734 Z" /><ns0:path style="stroke:none;" d="M119.9625 -11.1703 Q119.9625 -9.1078 118.9234 -7.9281 Q117.8844 -6.7484 116.0406 -6.7484 Q114.15 -6.7484 113.1188 -7.9125 Q112.0875 -9.0766 112.0875 -11.1859 Q112.0875 -13.2797 113.1188 -14.4281 Q114.15 -15.5766 116.0406 -15.5766 Q117.9 -15.5766 118.9313 -14.4047 Q119.9625 -13.2328 119.9625 -11.1703 ZM113.1344 -11.1703 Q113.1344 -9.4359 113.8766 -8.5297 Q114.6188 -7.6234 116.0406 -7.6234 Q117.4625 -7.6234 118.1891 -8.5219 Q118.9156 -9.4203 118.9156 -11.1703 Q118.9156 -12.9047 118.1891 -13.7953 Q117.4625 -14.6859 116.0406 -14.6859 Q114.6188 -14.6859 113.8766 -13.7875 Q113.1344 -12.8891 113.1344 -11.1703 Z" /><ns0:path style="stroke:none;" d="M127.4781 -6.8734 L126.4781 -6.8734 L126.4781 -10.9047 L121.9625 -10.9047 L121.9625 -6.8734 L120.9625 -6.8734 L120.9625 -15.4359 L121.9625 -15.4359 L121.9625 -11.7953 L126.4781 -11.7953 L126.4781 -15.4359 L127.4781 -15.4359 L127.4781 -6.8734 Z" /><ns0:path style="stroke:none;" d="M-112.0875 63.8297 Q-112.0875 65.8922 -113.1266 67.0719 Q-114.1656 68.2516 -116.0094 68.2516 Q-117.9 68.2516 -118.9313 67.0875 Q-119.9625 65.9234 -119.9625 63.8141 Q-119.9625 61.7203 -118.9313 60.5719 Q-117.9 59.4234 -116.0094 59.4234 Q-114.15 59.4234 -113.1188 60.5953 Q-112.0875 61.7672 -112.0875 63.8297 ZM-118.9156 63.8297 Q-118.9156 65.5641 -118.1734 66.4703 Q-117.4313 67.3766 -116.0094 67.3766 Q-114.5875 67.3766 -113.8609 66.4781 Q-113.1344 65.5797 -113.1344 63.8297 Q-113.1344 62.0953 -113.8609 61.2047 Q-114.5875 60.3141 -116.0094 60.3141 Q-117.4313 60.3141 -118.1734 61.2125 Q-118.9156 62.1109 -118.9156 63.8297 Z" /><ns0:path style="stroke:none;" d="M-120.9625 68.1266 L-121.9625 68.1266 L-121.9625 64.0953 L-126.4781 64.0953 L-126.4781 68.1266 L-127.4781 68.1266 L-127.4781 59.5641 L-126.4781 59.5641 L-126.4781 63.2047 L-121.9625 63.2047 L-121.9625 59.5641 L-120.9625 59.5641 L-120.9625 68.1266 Z" /></ns0:g><ns0:g transform="translate(130,71)" style="font-size:8.4px; fill:gray; text-rendering:geometricPrecision; image-rendering:optimizeQuality; color-rendering:optimizeQuality; font-family:'Open Sans'; font-style:italic; stroke:gray; color-interpolation:linearRGB;"><ns0:path style="stroke:none;" d="M27.0923 0.103 Q27.0923 -1.2252 27.5611 -2.3502 Q28.0298 -3.4752 29.0611 -4.5533 L29.6704 -4.5533 Q28.7017 -3.4908 28.2173 -2.3189 Q27.7329 -1.147 27.7329 0.0873 Q27.7329 1.4155 28.1704 2.4311 L27.6548 2.4311 Q27.0923 1.3998 27.0923 0.103 ZM32.7149 -0.4908 Q32.7149 0.3373 32.168 0.7905 Q31.6211 1.2436 30.6211 1.2436 Q30.2149 1.2436 29.9024 1.1889 Q29.5899 1.1342 29.3086 0.9936 L29.3086 0.3373 Q29.9336 0.6655 30.6368 0.6655 Q31.2618 0.6655 31.6368 0.3686 Q32.0118 0.0717 32.0118 -0.4439 Q32.0118 -0.7564 31.8086 -0.983 Q31.6055 -1.2095 31.043 -1.5377 Q30.4493 -1.8658 30.2227 -2.1939 Q29.9961 -2.522 29.9961 -2.9752 Q29.9961 -3.7095 30.5118 -4.1705 Q31.0274 -4.6314 31.8711 -4.6314 Q32.2461 -4.6314 32.5821 -4.5533 Q32.918 -4.4752 33.293 -4.3033 L33.0274 -3.7095 Q32.7774 -3.8658 32.4571 -3.9517 Q32.1368 -4.0377 31.8711 -4.0377 Q31.3399 -4.0377 31.0196 -3.7642 Q30.6993 -3.4908 30.6993 -3.022 Q30.6993 -2.8189 30.7696 -2.6705 Q30.8399 -2.522 30.9805 -2.3892 Q31.1211 -2.2564 31.543 -2.0064 Q32.1055 -1.6627 32.3086 -1.4673 Q32.5118 -1.272 32.6133 -1.0377 Q32.7149 -0.8033 32.7149 -0.4908 ZM35.3094 -2.2095 Q35.3094 -0.8814 34.8328 0.2514 Q34.3562 1.3842 33.3406 2.4311 L32.7312 2.4311 Q34.6687 0.2748 34.6687 -2.2095 Q34.6687 -3.5377 34.2312 -4.5533 L34.7469 -4.5533 Q35.3094 -3.4908 35.3094 -2.2095 Z" /><ns0:path style="stroke:none;" d="M9.4896 10.0641 Q9.4896 8.7359 9.9584 7.6109 Q10.4271 6.4859 11.4584 5.4078 L12.0677 5.4078 Q11.099 6.4703 10.6146 7.6422 Q10.1302 8.8141 10.1302 10.0484 Q10.1302 11.3766 10.5677 12.3922 L10.0521 12.3922 Q9.4896 11.3609 9.4896 10.0641 ZM13.0497 8.7516 L12.5497 11.1266 L11.8934 11.1266 L13.0965 5.4078 L14.3465 5.4078 Q16.0809 5.4078 16.0809 6.8453 Q16.0809 8.2047 14.6434 8.5953 L15.5809 11.1266 L14.8622 11.1266 L14.034 8.7516 L13.0497 8.7516 ZM13.6278 6.0016 Q13.2372 7.9234 13.1747 8.1734 L13.8309 8.1734 Q14.5809 8.1734 14.9872 7.8453 Q15.3934 7.5172 15.3934 6.8922 Q15.3934 6.4234 15.1356 6.2125 Q14.8778 6.0016 14.284 6.0016 L13.6278 6.0016 ZM18.2669 7.7516 Q18.2669 9.0797 17.7903 10.2125 Q17.3138 11.3453 16.2981 12.3922 L15.6888 12.3922 Q17.6263 10.2359 17.6263 7.7516 Q17.6263 6.4234 17.1888 5.4078 L17.7044 5.4078 Q18.2669 6.4703 18.2669 7.7516 Z" /><ns0:path style="stroke:none;" d="M27.0923 -19.8967 Q27.0923 -21.2248 27.5611 -22.3498 Q28.0298 -23.4748 29.0611 -24.553 L29.6704 -24.553 Q28.7017 -23.4905 28.2173 -22.3186 Q27.7329 -21.1467 27.7329 -19.9123 Q27.7329 -18.5842 28.1704 -17.5686 L27.6548 -17.5686 Q27.0923 -18.5998 27.0923 -19.8967 ZM32.7149 -20.4905 Q32.7149 -19.6623 32.168 -19.2092 Q31.6211 -18.7561 30.6211 -18.7561 Q30.2149 -18.7561 29.9024 -18.8108 Q29.5899 -18.8655 29.3086 -19.0061 L29.3086 -19.6623 Q29.9336 -19.3342 30.6368 -19.3342 Q31.2618 -19.3342 31.6368 -19.6311 Q32.0118 -19.928 32.0118 -20.4436 Q32.0118 -20.7561 31.8086 -20.9827 Q31.6055 -21.2092 31.043 -21.5373 Q30.4493 -21.8655 30.2227 -22.1936 Q29.9961 -22.5217 29.9961 -22.9748 Q29.9961 -23.7092 30.5118 -24.1702 Q31.0274 -24.6311 31.8711 -24.6311 Q32.2461 -24.6311 32.5821 -24.553 Q32.918 -24.4748 33.293 -24.303 L33.0274 -23.7092 Q32.7774 -23.8655 32.4571 -23.9514 Q32.1368 -24.0373 31.8711 -24.0373 Q31.3399 -24.0373 31.0196 -23.7639 Q30.6993 -23.4905 30.6993 -23.0217 Q30.6993 -22.8186 30.7696 -22.6702 Q30.8399 -22.5217 30.9805 -22.3889 Q31.1211 -22.2561 31.543 -22.0061 Q32.1055 -21.6623 32.3086 -21.467 Q32.5118 -21.2717 32.6133 -21.0373 Q32.7149 -20.803 32.7149 -20.4905 ZM35.3094 -22.2092 Q35.3094 -20.8811 34.8328 -19.7483 Q34.3562 -18.6155 33.3406 -17.5686 L32.7312 -17.5686 Q34.6687 -19.7248 34.6687 -22.2092 Q34.6687 -23.5373 34.2312 -24.553 L34.7469 -24.553 Q35.3094 -23.4905 35.3094 -22.2092 Z" /></ns0:g><ns0:g transform="translate(130,71)" style="stroke-linecap:butt; font-size:8.4px; text-rendering:geometricPrecision; image-rendering:optimizeQuality; color-rendering:optimizeQuality; font-family:'Open Sans'; font-style:italic; color-interpolation:linearRGB; stroke-miterlimit:5;"><ns0:path style="fill:none;" d="M67.9155 13.0184 L68.391 13.173 L68.6849 12.7685" /><ns0:path style="fill:gray; stroke:none;" d="M-16.2105 15.1031 Q-16.2105 13.775 -15.7418 12.65 Q-15.273 11.525 -14.2418 10.4469 L-13.6324 10.4469 Q-14.6011 11.5094 -15.0855 12.6812 Q-15.5699 13.8531 -15.5699 15.0875 Q-15.5699 16.4156 -15.1324 17.4312 L-15.648 17.4312 Q-16.2105 16.4 -16.2105 15.1031 ZM-10.588 14.5094 Q-10.588 15.3375 -11.1348 15.7906 Q-11.6817 16.2437 -12.6817 16.2437 Q-13.088 16.2437 -13.4005 16.1891 Q-13.713 16.1344 -13.9942 15.9937 L-13.9942 15.3375 Q-13.3692 15.6656 -12.6661 15.6656 Q-12.0411 15.6656 -11.6661 15.3687 Q-11.2911 15.0719 -11.2911 14.5562 Q-11.2911 14.2437 -11.4942 14.0172 Q-11.6973 13.7906 -12.2598 13.4625 Q-12.8536 13.1344 -13.0802 12.8062 Q-13.3067 12.4781 -13.3067 12.025 Q-13.3067 11.2906 -12.7911 10.8297 Q-12.2755 10.3687 -11.4317 10.3687 Q-11.0567 10.3687 -10.7208 10.4469 Q-10.3848 10.525 -10.0098 10.6969 L-10.2755 11.2906 Q-10.5255 11.1344 -10.8458 11.0484 Q-11.1661 10.9625 -11.4317 10.9625 Q-11.963 10.9625 -12.2833 11.2359 Q-12.6036 11.5094 -12.6036 11.9781 Q-12.6036 12.1812 -12.5333 12.3297 Q-12.463 12.4781 -12.3223 12.6109 Q-12.1817 12.7437 -11.7598 12.9937 Q-11.1973 13.3375 -10.9942 13.5328 Q-10.7911 13.7281 -10.6895 13.9625 Q-10.588 14.1969 -10.588 14.5094 ZM-7.9935 12.7906 Q-7.9935 14.1187 -8.47 15.2516 Q-8.9466 16.3844 -9.9622 17.4312 L-10.5716 17.4312 Q-8.6341 15.275 -8.6341 12.7906 Q-8.6341 11.4625 -9.0716 10.4469 L-8.556 10.4469 Q-7.9935 11.5094 -7.9935 12.7906 Z" /><ns0:path style="fill:none;" d="M13.878 48.4 L13.878 48.9 L13.445 49.15" /><ns0:path style="fill:gray; stroke:none;" d="M73.8792 -35.7704 Q73.8792 -37.0985 74.348 -38.2235 Q74.8167 -39.3485 75.848 -40.4266 L76.4574 -40.4266 Q75.4886 -39.3641 75.0042 -38.1923 Q74.5199 -37.0204 74.5199 -35.786 Q74.5199 -34.4579 74.9574 -33.4423 L74.4417 -33.4423 Q73.8792 -34.4735 73.8792 -35.7704 ZM77.4393 -37.0829 L76.9393 -34.7079 L76.283 -34.7079 L77.4862 -40.4266 L78.7362 -40.4266 Q80.4705 -40.4266 80.4705 -38.9891 Q80.4705 -37.6298 79.033 -37.2391 L79.9705 -34.7079 L79.2518 -34.7079 L78.4237 -37.0829 L77.4393 -37.0829 ZM78.0174 -39.8329 Q77.6268 -37.911 77.5643 -37.661 L78.2205 -37.661 Q78.9705 -37.661 79.3768 -37.9891 Q79.783 -38.3173 79.783 -38.9423 Q79.783 -39.411 79.5252 -39.6219 Q79.2674 -39.8329 78.6737 -39.8329 L78.0174 -39.8329 ZM82.6565 -38.0829 Q82.6565 -36.7548 82.1799 -35.6219 Q81.7034 -34.4891 80.6878 -33.4423 L80.0784 -33.4423 Q82.0159 -35.5985 82.0159 -38.0829 Q82.0159 -39.411 81.5784 -40.4266 L82.094 -40.4266 Q82.6565 -39.3641 82.6565 -38.0829 Z" /><ns0:path style="fill:none;" d="M14.311 -40.85 L13.878 -41.1 L13.445 -40.85" /><ns0:path style="fill:gray; stroke:none;" d="M86.4563 -18.807 Q86.4563 -20.1351 86.925 -21.2601 Q87.3938 -22.3851 88.425 -23.4632 L89.0344 -23.4632 Q88.0657 -22.4007 87.5813 -21.2289 Q87.0969 -20.057 87.0969 -18.8226 Q87.0969 -17.4945 87.5344 -16.4789 L87.0188 -16.4789 Q86.4563 -17.5101 86.4563 -18.807 ZM92.0788 -19.4007 Q92.0788 -18.5726 91.532 -18.1195 Q90.9851 -17.6664 89.9851 -17.6664 Q89.5788 -17.6664 89.2663 -17.7211 Q88.9538 -17.7757 88.6726 -17.9164 L88.6726 -18.5726 Q89.2976 -18.2445 90.0007 -18.2445 Q90.6257 -18.2445 91.0007 -18.5414 Q91.3757 -18.8382 91.3757 -19.3539 Q91.3757 -19.6664 91.1726 -19.8929 Q90.9695 -20.1195 90.407 -20.4476 Q89.8132 -20.7757 89.5867 -21.1039 Q89.3601 -21.432 89.3601 -21.8851 Q89.3601 -22.6195 89.8757 -23.0804 Q90.3913 -23.5414 91.2351 -23.5414 Q91.6101 -23.5414 91.946 -23.4632 Q92.282 -23.3851 92.657 -23.2132 L92.3913 -22.6195 Q92.1413 -22.7757 91.821 -22.8617 Q91.5007 -22.9476 91.2351 -22.9476 Q90.7038 -22.9476 90.3835 -22.6742 Q90.0632 -22.4007 90.0632 -21.932 Q90.0632 -21.7289 90.1335 -21.5804 Q90.2038 -21.432 90.3445 -21.2992 Q90.4851 -21.1664 90.907 -20.9164 Q91.4695 -20.5726 91.6726 -20.3773 Q91.8757 -20.182 91.9773 -19.9476 Q92.0788 -19.7132 92.0788 -19.4007 ZM94.6733 -21.1195 Q94.6733 -19.7914 94.1968 -18.6586 Q93.7202 -17.5257 92.7046 -16.4789 L92.0952 -16.4789 Q94.0327 -18.6351 94.0327 -21.1195 Q94.0327 -22.4476 93.5952 -23.4632 L94.1108 -23.4632 Q94.6733 -22.4007 94.6733 -21.1195 Z" /><ns0:path style="fill:none;" d="M-38.515 18.65 L-38.082 18.9 L-37.649 18.65" /><ns0:path style="fill:none;" d="M-12.102 -25.6 L-12.102 -26.1 L-11.669 -26.35" /><ns0:path style="fill:none;" d="M-11.669 63.65 L-12.102 63.9 L-12.535 63.65" /><ns0:path style="fill:none;" d="M-38.515 49.15 L-38.082 48.9 L-38.082 48.4" /><ns0:path style="fill:none;" d="M-63.629 4.15 L-64.062 3.9 L-64.495 4.15" /><ns0:path style="fill:none;" d="M-63.629 63.65 L-64.062 63.9 L-64.495 63.65" /><ns0:path style="fill:none;" d="M-89.612 18.65 L-90.045 18.9 L-90.045 19.4" /><ns0:path style="fill:none;" d="M-90.045 48.4 L-90.045 48.9 L-90.478 49.15" /><ns0:path style="stroke:none;" d="M58.5688 33.7723 L57.5688 33.7723 L57.5688 29.741 L53.0532 29.741 L53.0532 33.7723 L52.0532 33.7723 L52.0532 25.2098 L53.0532 25.2098 L53.0532 28.8504 L57.5688 28.8504 L57.5688 25.2098 L58.5688 25.2098 L58.5688 33.7723 Z" /><ns0:path style="stroke:none;" d="M38.3488 44.2692 L37.3488 44.2692 L37.3488 40.238 L32.8332 40.238 L32.8332 44.2692 L31.8332 44.2692 L31.8332 35.7067 L32.8332 35.7067 L32.8332 39.3474 L37.3488 39.3474 L37.3488 35.7067 L38.3488 35.7067 L38.3488 44.2692 Z" /><ns0:path style="stroke:none;" d="M-34.8242 -6.9438 L-35.8242 -6.9438 L-35.8242 -10.975 L-40.3398 -10.975 L-40.3398 -6.9438 L-41.3398 -6.9438 L-41.3398 -15.5063 L-40.3398 -15.5063 L-40.3398 -11.8656 L-35.8242 -11.8656 L-35.8242 -15.5063 L-34.8242 -15.5063 L-34.8242 -6.9438 Z" /></ns0:g></ns0:g></ns0:svg></ns0:svg></ns0:svg></ns0:svg></g></svg>