<svg width="210" viewBox="0 0 210 88" style="fill-opacity:1; color-rendering:auto; color-interpolation:auto; text-rendering:auto; stroke:black; stroke-linecap:square; stroke-miterlimit:10; shape-rendering:auto; stroke-opacity:1; fill:black; stroke-dasharray:none; font-weight:normal; stroke-width:1; font-family:'Open Sans'; font-style:normal; stroke-linejoin:miter; font-size:12; stroke-dashoffset:0; image-rendering:auto;" height="88" class="cas-substance-image" xmlns:xlink="http://www.w3.org/1999/xlink" xmlns="http://www.w3.org/2000/svg"><svg class="cas-substance-single-component"><rect y="0" x="0" width="210" stroke="none" ry="7" rx="7" height="88" fill="white" class="cas-substance-group"/><svg y="0" x="0" width="210" viewBox="0 0 210 88" style="fill:black;" height="88" class="cas-substance-single-component-image"><svg><g><g transform="translate(105,44)" style="text-rendering:geometricPrecision; color-rendering:optimizeQuality; color-interpolation:linearRGB; stroke-linecap:butt; image-rendering:optimizeQuality;"><line y2="-13.431" y1="-28.431" x2="-75.738" x1="-101.718" style="fill:none;"/><line y2="-13.431" y1="-40.839" x2="-75.738" x1="-63.534" style="fill:none;"/><line y2="-6.672" y1="-15.9824" x2="52.3689" x1="36.2434" style="fill:none;"/><line y2="-4.161" y1="-15.9724" x2="4.755" x1="25.2148" style="fill:none;"/><line y2="-30.141" y1="-9.3377" x2="71.718" x1="59.7068" style="fill:none;"/><line y2="9.1131" y1="-0.0893" x2="76.2088" x1="60.2703" style="fill:none;"/><line y2="6.0821" y1="-3.1203" x2="77.9589" x1="62.0204" style="fill:none;"/><line y2="15.2223" y1="0.5078" x2="43.506" x1="52.0017" style="fill:none;"/><line y2="16.9723" y1="2.2578" x2="46.537" x1="55.0327" style="fill:none;"/><line y2="-30.141" y1="-30.141" x2="101.718" x1="71.718" style="fill:none;"/><line y2="25.839" y1="-4.161" x2="-47.205" x1="-47.205" style="fill:none;"/><line y2="-13.431" y1="-4.161" x2="-75.738" x1="-47.205" style="fill:none;"/><line y2="-19.161" y1="-4.161" x2="-21.225" x1="-47.205" style="fill:none;"/><line y2="-15.1195" y1="-2.1403" x2="-21.2249" x1="-43.705" style="fill:none;"/><line y2="33.2118" y1="25.839" x2="-69.8984" x1="-47.205" style="fill:none;"/><line y2="40.839" y1="25.839" x2="-21.225" x1="-47.205" style="fill:none;"/><line y2="36.7976" y1="23.8183" x2="-21.2249" x1="-43.705" style="fill:none;"/><line y2="10.839" y1="-13.431" x2="-93.372" x1="-75.738" style="fill:none;"/><line y2="-4.161" y1="-19.161" x2="4.755" x1="-21.225" style="fill:none;"/><line y2="10.839" y1="29.8624" x2="-93.372" x1="-79.55" style="fill:none;"/><line y2="25.839" y1="40.839" x2="4.755" x1="-21.225" style="fill:none;"/><line y2="25.839" y1="-4.161" x2="4.755" x1="4.755" style="fill:none;"/><line y2="23.8183" y1="-2.1403" x2="1.255" x1="1.255" style="fill:none;"/></g><g transform="translate(105,44)" style="fill:rgb(230,0,0); text-rendering:geometricPrecision; color-rendering:optimizeQuality; image-rendering:optimizeQuality; font-family:'Open Sans'; stroke:rgb(230,0,0); color-interpolation:linearRGB;"><path style="stroke:none;" d="M34.6755 -19.2313 Q34.6755 -17.1688 33.6364 -15.9891 Q32.5974 -14.8094 30.7536 -14.8094 Q28.863 -14.8094 27.8318 -15.9735 Q26.8005 -17.1376 26.8005 -19.2469 Q26.8005 -21.3407 27.8318 -22.4891 Q28.863 -23.6376 30.7536 -23.6376 Q32.613 -23.6376 33.6442 -22.4657 Q34.6755 -21.2938 34.6755 -19.2313 ZM27.8474 -19.2313 Q27.8474 -17.4969 28.5896 -16.5907 Q29.3318 -15.6844 30.7536 -15.6844 Q32.1755 -15.6844 32.9021 -16.5829 Q33.6286 -17.4813 33.6286 -19.2313 Q33.6286 -20.9657 32.9021 -21.8563 Q32.1755 -22.7469 30.7536 -22.7469 Q29.3318 -22.7469 28.5896 -21.8485 Q27.8474 -20.9501 27.8474 -19.2313 Z"/><path style="fill:rgb(148,108,0); stroke:none;" d="M59.4133 -2.2235 Q59.4133 -1.0985 58.593 -0.4579 Q57.7727 0.1828 56.3664 0.1828 Q54.8352 0.1828 54.0227 -0.2235 L54.0227 -1.1766 Q54.5539 -0.9579 55.1711 -0.8251 Q55.7883 -0.6922 56.3977 -0.6922 Q57.3977 -0.6922 57.8977 -1.0751 Q58.3977 -1.4579 58.3977 -2.1297 Q58.3977 -2.5672 58.218 -2.8563 Q58.0383 -3.1454 57.6242 -3.3876 Q57.2102 -3.6297 56.3508 -3.9266 Q55.1633 -4.3485 54.6477 -4.9344 Q54.1321 -5.5204 54.1321 -6.4735 Q54.1321 -7.4579 54.8742 -8.0438 Q55.6164 -8.6297 56.8508 -8.6297 Q58.1164 -8.6297 59.1946 -8.161 L58.8821 -7.3016 Q57.8196 -7.7391 56.8196 -7.7391 Q56.0227 -7.7391 55.5774 -7.4032 Q55.1321 -7.0672 55.1321 -6.4579 Q55.1321 -6.0204 55.2961 -5.7313 Q55.4602 -5.4422 55.8508 -5.2079 Q56.2414 -4.9735 57.0539 -4.6766 Q58.3977 -4.2079 58.9055 -3.6532 Q59.4133 -3.0985 59.4133 -2.2235 Z"/></g><g transform="translate(105,44)" style="stroke-linecap:butt; text-rendering:geometricPrecision; color-rendering:optimizeQuality; image-rendering:optimizeQuality; font-family:'Open Sans'; color-interpolation:linearRGB; stroke-miterlimit:5;"><path style="fill:none;" d="M71.468 -29.708 L71.718 -30.141 L72.218 -30.141"/><path style="fill:rgb(230,0,0); stroke:none;" d="M86.6355 10.7687 Q86.6355 12.8312 85.5964 14.0109 Q84.5574 15.1906 82.7136 15.1906 Q80.823 15.1906 79.7917 14.0265 Q78.7605 12.8624 78.7605 10.7531 Q78.7605 8.6593 79.7917 7.5109 Q80.823 6.3624 82.7136 6.3624 Q84.573 6.3624 85.6042 7.5343 Q86.6355 8.7062 86.6355 10.7687 ZM79.8074 10.7687 Q79.8074 12.5031 80.5496 13.4093 Q81.2917 14.3156 82.7136 14.3156 Q84.1355 14.3156 84.8621 13.4171 Q85.5886 12.5187 85.5886 10.7687 Q85.5886 9.0343 84.8621 8.1437 Q84.1355 7.2531 82.7136 7.2531 Q81.2917 7.2531 80.5496 8.1515 Q79.8074 9.0499 79.8074 10.7687 Z"/><path style="fill:rgb(230,0,0); stroke:none;" d="M45.6555 21.7487 Q45.6555 23.8112 44.6164 24.9909 Q43.5774 26.1706 41.7336 26.1706 Q39.843 26.1706 38.8117 25.0065 Q37.7805 23.8424 37.7805 21.7331 Q37.7805 19.6393 38.8117 18.4909 Q39.843 17.3424 41.7336 17.3424 Q43.593 17.3424 44.6242 18.5143 Q45.6555 19.6862 45.6555 21.7487 ZM38.8274 21.7487 Q38.8274 23.4831 39.5696 24.3893 Q40.3117 25.2956 41.7336 25.2956 Q43.1555 25.2956 43.8821 24.3971 Q44.6086 23.4987 44.6086 21.7487 Q44.6086 20.0143 43.8821 19.1237 Q43.1555 18.2331 41.7336 18.2331 Q40.3117 18.2331 39.5696 19.1315 Q38.8274 20.0299 38.8274 21.7487 Z"/><path style="fill:none;" d="M-46.772 -4.411 L-47.205 -4.161 L-47.6805 -4.3155"/><path style="fill:none;" d="M-46.772 26.089 L-47.205 25.839 L-47.205 25.339"/><path style="fill:none;" d="M-21.658 -18.911 L-21.225 -19.161 L-20.792 -18.911"/><path style="fill:rgb(230,0,0); stroke:none;" d="M-71.8005 35.0387 Q-71.8005 37.1012 -72.8396 38.2809 Q-73.8786 39.4606 -75.7224 39.4606 Q-77.613 39.4606 -78.6442 38.2965 Q-79.6755 37.1324 -79.6755 35.0231 Q-79.6755 32.9293 -78.6442 31.7809 Q-77.613 30.6324 -75.7224 30.6324 Q-73.863 30.6324 -72.8317 31.8043 Q-71.8005 32.9762 -71.8005 35.0387 ZM-78.6286 35.0387 Q-78.6286 36.7731 -77.8864 37.6793 Q-77.1442 38.5856 -75.7224 38.5856 Q-74.3005 38.5856 -73.5739 37.6871 Q-72.8474 36.7887 -72.8474 35.0387 Q-72.8474 33.3043 -73.5739 32.4137 Q-74.3005 31.5231 -75.7224 31.5231 Q-77.1442 31.5231 -77.8864 32.4215 Q-78.6286 33.3199 -78.6286 35.0387 Z"/><path style="fill:none;" d="M-21.658 40.589 L-21.225 40.839 L-20.792 40.589"/><path style="fill:none;" d="M-93.0781 10.4345 L-93.372 10.839 L-93.0781 11.2435"/><path style="fill:none;" d="M4.755 -3.661 L4.755 -4.161 L5.188 -4.411"/><path style="fill:none;" d="M4.322 26.089 L4.755 25.839 L4.755 25.339"/></g></g></svg></svg></svg></svg>