<svg width="191" viewBox="0 0 191 71" style="fill-opacity:1; color-rendering:auto; color-interpolation:auto; text-rendering:auto; stroke:black; stroke-linecap:square; stroke-miterlimit:10; shape-rendering:auto; stroke-opacity:1; fill:black; stroke-dasharray:none; font-weight:normal; stroke-width:1; font-family:'Open Sans'; font-style:normal; stroke-linejoin:miter; font-size:12; stroke-dashoffset:0; image-rendering:auto;" height="71" class="cas-substance-image" xmlns:xlink="http://www.w3.org/1999/xlink" xmlns="http://www.w3.org/2000/svg"><svg class="cas-substance-single-component"><rect y="0" x="0" width="191" stroke="none" ry="7" rx="7" height="71" fill="white" class="cas-substance-group"/><svg y="0" x="0" width="191" viewBox="0 0 191 71" style="fill:black;" height="71" class="cas-substance-single-component-image"><svg><g><g transform="translate(96,37)" style="text-rendering:geometricPrecision; color-rendering:optimizeQuality; color-interpolation:linearRGB; stroke-linecap:butt; image-rendering:optimizeQuality;"><line y2="0" y1="0" x2="47.055" x1="71.7034" style="fill:none;"/><line y2="-15" y1="-27.0652" x2="-51.072" x1="-71.9714" style="fill:none;"/><line y2="-15" y1="15" x2="0.888" x1="0.888" style="fill:none;"/><line y2="22.5631" y1="15" x2="24.1673" x1="0.888" style="fill:none;"/><line y2="30" y1="15" x2="-25.092" x1="0.888" style="fill:none;"/><line y2="25.9585" y1="12.9793" x2="-25.0921" x1="-2.612" style="fill:none;"/><line y2="-22.7883" y1="-15" x2="24.8605" x1="0.888" style="fill:none;"/><line y2="-30" y1="-15" x2="-25.092" x1="0.888" style="fill:none;"/><line y2="-25.9585" y1="-12.9793" x2="-25.0921" x1="-2.612" style="fill:none;"/><line y2="0" y1="18.2457" x2="47.055" x1="33.7981" style="fill:none;"/><line y2="-0.4225" y1="16.1884" x2="43.0357" x1="30.9666" style="fill:none;"/><line y2="15" y1="30" x2="-51.072" x1="-25.092" style="fill:none;"/><line y2="0" y1="-19.3552" x2="47.055" x1="32.992" style="fill:none;"/><line y2="-15" y1="-30" x2="-51.072" x1="-25.092" style="fill:none;"/><line y2="-15" y1="15" x2="-51.072" x1="-51.072" style="fill:none;"/><line y2="-12.9793" y1="12.9793" x2="-47.572" x1="-47.572" style="fill:none;"/></g><g transform="translate(96,37)" style="fill:rgb(0,5,255); text-rendering:geometricPrecision; color-rendering:optimizeQuality; image-rendering:optimizeQuality; font-family:'Open Sans'; stroke:rgb(0,5,255); color-interpolation:linearRGB;"><path style="stroke:none;" d="M80.4066 4.1562 L79.2659 4.1562 L74.5784 -3.0312 L74.5316 -3.0312 Q74.6253 -1.7656 74.6253 -0.7188 L74.6253 4.1562 L73.7034 4.1562 L73.7034 -4.4062 L74.8284 -4.4062 L79.5003 2.75 L79.5472 2.75 Q79.5472 2.5938 79.5003 1.7344 Q79.4534 0.875 79.4691 0.5 L79.4691 -4.4062 L80.4066 -4.4062 L80.4066 4.1562 Z"/><path style="stroke:none;" d="M87.9222 4.1562 L86.9222 4.1562 L86.9222 0.125 L82.4066 0.125 L82.4066 4.1562 L81.4066 4.1562 L81.4066 -4.4062 L82.4066 -4.4062 L82.4066 -0.7656 L86.9222 -0.7656 L86.9222 -4.4062 L87.9222 -4.4062 L87.9222 4.1562 Z"/><path style="stroke:none;" d="M92.6722 5.9656 L88.9222 5.9656 L88.9222 5.4031 L90.4222 3.8875 Q91.1097 3.2 91.3284 2.9031 Q91.5472 2.6062 91.6566 2.325 Q91.7659 2.0437 91.7659 1.7156 Q91.7659 1.2625 91.4925 0.9969 Q91.2191 0.7312 90.7191 0.7312 Q90.3753 0.7312 90.055 0.8484 Q89.7347 0.9656 89.3441 1.2625 L89.0003 0.825 Q89.7816 0.1687 90.7191 0.1687 Q91.5159 0.1687 91.9769 0.5828 Q92.4378 0.9969 92.4378 1.6844 Q92.4378 2.2312 92.1331 2.7625 Q91.8284 3.2937 90.9847 4.1062 L89.7347 5.325 L89.7347 5.3562 L92.6722 5.3562 L92.6722 5.9656 Z"/><path style="stroke:none;" d="M-73.7034 -25.8438 L-74.8441 -25.8438 L-79.5316 -33.0312 L-79.5784 -33.0312 Q-79.4847 -31.7656 -79.4847 -30.7188 L-79.4847 -25.8438 L-80.4066 -25.8438 L-80.4066 -34.4062 L-79.2816 -34.4062 L-74.6097 -27.25 L-74.5628 -27.25 Q-74.5628 -27.4062 -74.6097 -28.2656 Q-74.6566 -29.125 -74.6409 -29.5 L-74.6409 -34.4062 L-73.7034 -34.4062 L-73.7034 -25.8438 Z"/><path style="stroke:none;" d="M-86.1566 -25.8438 L-87.1566 -25.8438 L-87.1566 -29.875 L-91.6722 -29.875 L-91.6722 -25.8438 L-92.6722 -25.8438 L-92.6722 -34.4062 L-91.6722 -34.4062 L-91.6722 -30.7656 L-87.1566 -30.7656 L-87.1566 -34.4062 L-86.1566 -34.4062 L-86.1566 -25.8438 Z"/><path style="stroke:none;" d="M-81.4066 -24.0344 L-85.1566 -24.0344 L-85.1566 -24.5969 L-83.6566 -26.1125 Q-82.9691 -26.8 -82.7503 -27.0969 Q-82.5316 -27.3937 -82.4222 -27.675 Q-82.3128 -27.9562 -82.3128 -28.2844 Q-82.3128 -28.7375 -82.5863 -29.0031 Q-82.8597 -29.2687 -83.3597 -29.2687 Q-83.7034 -29.2687 -84.0238 -29.1516 Q-84.3441 -29.0344 -84.7347 -28.7375 L-85.0784 -29.175 Q-84.2972 -29.8312 -83.3597 -29.8312 Q-82.5628 -29.8312 -82.1019 -29.4172 Q-81.6409 -29.0031 -81.6409 -28.3156 Q-81.6409 -27.7687 -81.9456 -27.2375 Q-82.2503 -26.7062 -83.0941 -25.8937 L-84.3441 -24.675 L-84.3441 -24.6437 L-81.4066 -24.6437 L-81.4066 -24.0344 Z"/></g><g transform="translate(96,37)" style="stroke-linecap:butt; font-size:8.4px; text-rendering:geometricPrecision; color-rendering:optimizeQuality; image-rendering:optimizeQuality; font-family:'Open Sans'; color-interpolation:linearRGB; stroke-miterlimit:5;"><path style="fill:none;" d="M0.455 15.25 L0.888 15 L1.3635 15.1545"/><path style="fill:none;" d="M0.455 -15.25 L0.888 -15 L0.888 -14.5"/><path style="fill:rgb(0,5,255); stroke:none;" d="M32.7726 28.4263 L31.6319 28.4263 L26.9444 21.2388 L26.8976 21.2388 Q26.9913 22.5044 26.9913 23.5513 L26.9913 28.4263 L26.0694 28.4263 L26.0694 19.8638 L27.1944 19.8638 L31.8663 27.02 L31.9132 27.02 Q31.9132 26.8638 31.8663 26.0044 Q31.8194 25.145 31.8351 24.77 L31.8351 19.8638 L32.7726 19.8638 L32.7726 28.4263 Z"/><path style="fill:none;" d="M-24.659 29.75 L-25.092 30 L-25.525 29.75"/><path style="fill:rgb(148,108,0); stroke:none;" d="M32.1163 -22.3325 Q32.1163 -21.2075 31.296 -20.5669 Q30.4757 -19.9263 29.0694 -19.9263 Q27.5382 -19.9263 26.7257 -20.3325 L26.7257 -21.2856 Q27.2569 -21.0669 27.8741 -20.9341 Q28.4913 -20.8013 29.1007 -20.8013 Q30.1007 -20.8013 30.6007 -21.1841 Q31.1007 -21.5669 31.1007 -22.2388 Q31.1007 -22.6763 30.921 -22.9653 Q30.7413 -23.2544 30.3273 -23.4966 Q29.9132 -23.7388 29.0538 -24.0356 Q27.8663 -24.4575 27.3507 -25.0434 Q26.8351 -25.6294 26.8351 -26.5825 Q26.8351 -27.5669 27.5773 -28.1528 Q28.3194 -28.7388 29.5538 -28.7388 Q30.8194 -28.7388 31.8976 -28.27 L31.5851 -27.4106 Q30.5226 -27.8481 29.5226 -27.8481 Q28.7257 -27.8481 28.2804 -27.5122 Q27.8351 -27.1763 27.8351 -26.5669 Q27.8351 -26.1294 27.9991 -25.8403 Q28.1632 -25.5513 28.5538 -25.3169 Q28.9444 -25.0825 29.7569 -24.7856 Q31.1007 -24.3169 31.6085 -23.7622 Q32.1163 -23.2075 32.1163 -22.3325 Z"/><path style="fill:none;" d="M-24.659 -29.75 L-25.092 -30 L-25.525 -29.75"/><path style="fill:none;" d="M46.7611 0.4045 L47.055 0 L47.555 0"/><path style="fill:none;" d="M-50.639 15.25 L-51.072 15 L-51.072 14.5"/><path style="fill:none;" d="M-51.072 -14.5 L-51.072 -15 L-51.505 -15.25"/></g></g></svg></svg></svg></svg>