<svg xmlns:ns0="http://www.w3.org/2000/svg" xmlns="http://www.w3.org/2000/svg"><g transform="translate(0, 0)"><ns0:svg width="200" viewBox="0 0 200 100" style="fill-opacity:1; color-rendering:auto; color-interpolation:auto; text-rendering:auto; stroke:black; stroke-linecap:square; stroke-miterlimit:10; shape-rendering:auto; stroke-opacity:1; fill:black; stroke-dasharray:none; font-weight:normal; stroke-width:1; font-family:'Open Sans'; font-style:normal; stroke-linejoin:miter; font-size:12; stroke-dashoffset:0; image-rendering:auto;" height="100" class="cas-substance-image"><ns0:svg class="cas-substance-single-component"><ns0:rect y="0" x="0" width="200" stroke="none" ry="7" rx="7" height="100" fill="white" class="cas-substance-group" /><ns0:svg y="0" x="0" width="200" viewBox="0 0 200 100" style="fill:black;" height="100" class="cas-substance-single-component-image"><ns0:svg><ns0:g><ns0:g transform="translate(105,48)" style="text-rendering:geometricPrecision; color-rendering:optimizeQuality; color-interpolation:linearRGB; stroke-linecap:butt; image-rendering:optimizeQuality;"><ns0:line y2="0" y1="-15" x2="-12.99" x1="-38.97" style="fill:none;" /><ns0:line y2="0" y1="-15" x2="-64.953" x1="-38.97" style="fill:none;" /><ns0:line y2="2.0209" y1="-10.9585" x2="-61.4531" x1="-38.9702" style="fill:none;" /></ns0:g><ns0:g transform="translate(105,48)" style="stroke-linecap:butt; font-size:8.4px; fill:gray; text-rendering:geometricPrecision; image-rendering:optimizeQuality; color-rendering:optimizeQuality; font-family:'Open Sans'; font-style:italic; stroke:gray; color-interpolation:linearRGB;"><ns0:path style="stroke:none;" d="M-61.1903 -14.9964 Q-61.1903 -16.3245 -60.7216 -17.4495 Q-60.2528 -18.5745 -59.2216 -19.6526 L-58.6122 -19.6526 Q-59.581 -18.5901 -60.0653 -17.4183 Q-60.5497 -16.2464 -60.5497 -15.012 Q-60.5497 -13.6839 -60.1122 -12.6683 L-60.6278 -12.6683 Q-61.1903 -13.6995 -61.1903 -14.9964 ZM-55.6772 -13.9339 L-59.1928 -13.9339 L-59.0834 -14.4651 L-55.474 -19.0433 L-58.0365 -19.0433 L-57.9115 -19.6526 L-54.5522 -19.6526 L-54.6615 -19.1058 L-58.2709 -14.5433 L-55.5365 -14.5433 L-55.6772 -13.9339 ZM-52.732 -17.3089 Q-52.732 -15.9808 -53.2086 -14.8479 Q-53.6851 -13.7151 -54.7008 -12.6683 L-55.3101 -12.6683 Q-53.3726 -14.8245 -53.3726 -17.3089 Q-53.3726 -18.637 -53.8101 -19.6526 L-53.2945 -19.6526 Q-52.732 -18.5901 -52.732 -17.3089 Z" /><ns0:line y2="-45" y1="-15" x2="-38.97" x1="-38.97" style="fill:none; stroke:black;" /><ns0:line y2="-15" y1="0" x2="12.99" x1="-12.99" style="fill:none; stroke:black;" /><ns0:line y2="30" y1="0" x2="-64.953" x1="-64.953" style="fill:none; stroke:black;" /><ns0:line y2="0" y1="-15" x2="38.97" x1="12.99" style="fill:none; stroke:black;" /><ns0:line y2="41.774" y1="30" x2="-85.3455" x1="-64.953" style="fill:none; stroke:black;" /><ns0:line y2="-15" y1="0" x2="64.953" x1="38.97" style="fill:none; stroke:black;" /><ns0:line y2="-17.0209" y1="-4.0415" x2="61.4531" x1="38.9702" style="fill:none; stroke:black;" /><ns0:line y2="0" y1="-15" x2="90.933" x1="64.953" style="fill:none; stroke:black;" /><ns0:line y2="-45" y1="-15" x2="64.953" x1="64.953" style="fill:none; stroke:black;" /><ns0:path style="fill:none; stroke-miterlimit:5; stroke:black;" d="M-39.403 -14.75 L-38.97 -15 L-38.97 -15.5" /><ns0:path style="fill:none; stroke-miterlimit:5; stroke:black;" d="M-13.423 -0.25 L-12.99 0 L-12.557 -0.25" /><ns0:path style="fill:none; stroke-miterlimit:5; stroke:black;" d="M-64.52 -0.25 L-64.953 0 L-64.953 0.5" /><ns0:path style="fill:none; stroke-miterlimit:5; stroke:black;" d="M12.557 -14.75 L12.99 -15 L13.423 -14.75" /><ns0:path style="fill:none; stroke-miterlimit:5; stroke:black;" d="M-64.953 29.5 L-64.953 30 L-65.386 30.25" /><ns0:path style="fill:none; stroke-miterlimit:5; stroke:black;" d="M38.537 -0.25 L38.97 0 L39.403 -0.25" /></ns0:g><ns0:g transform="translate(105,48)" style="stroke-linecap:butt; fill:rgb(230,0,0); text-rendering:geometricPrecision; color-rendering:optimizeQuality; image-rendering:optimizeQuality; font-family:'Open Sans'; stroke:rgb(230,0,0); color-interpolation:linearRGB; stroke-miterlimit:5;"><ns0:path style="stroke:none;" d="M-86.9955 44.9297 Q-86.9955 46.9922 -88.0346 48.1719 Q-89.0736 49.3516 -90.9174 49.3516 Q-92.808 49.3516 -93.8392 48.1875 Q-94.8705 47.0234 -94.8705 44.9141 Q-94.8705 42.8203 -93.8392 41.6719 Q-92.808 40.5234 -90.9174 40.5234 Q-89.058 40.5234 -88.0267 41.6953 Q-86.9955 42.8672 -86.9955 44.9297 ZM-93.8236 44.9297 Q-93.8236 46.6641 -93.0814 47.5703 Q-92.3392 48.4766 -90.9174 48.4766 Q-89.4955 48.4766 -88.7689 47.5781 Q-88.0424 46.6797 -88.0424 44.9297 Q-88.0424 43.1953 -88.7689 42.3047 Q-89.4955 41.4141 -90.9174 41.4141 Q-92.3392 41.4141 -93.0814 42.3125 Q-93.8236 43.2109 -93.8236 44.9297 Z" /><ns0:path style="stroke:none;" d="M-95.8705 49.2266 L-96.8705 49.2266 L-96.8705 45.1953 L-101.3861 45.1953 L-101.3861 49.2266 L-102.3861 49.2266 L-102.3861 40.6641 L-101.3861 40.6641 L-101.3861 44.3047 L-96.8705 44.3047 L-96.8705 40.6641 L-95.8705 40.6641 L-95.8705 49.2266 Z" /><ns0:path style="fill:none; stroke:black;" d="M64.52 -14.75 L64.953 -15 L64.953 -15.5" /></ns0:g></ns0:g></ns0:svg></ns0:svg></ns0:svg></ns0:svg></g></svg>