<svg xmlns:ns0="http://www.w3.org/2000/svg" xmlns="http://www.w3.org/2000/svg"><g transform="translate(0, 0)"><ns0:svg width="100" viewBox="0 0 100 75" style="fill-opacity:1; color-rendering:auto; color-interpolation:auto; text-rendering:auto; stroke:black; stroke-linecap:square; stroke-miterlimit:10; shape-rendering:auto; stroke-opacity:1; fill:black; stroke-dasharray:none; font-weight:normal; stroke-width:1; font-family:'Open Sans'; font-style:normal; stroke-linejoin:miter; font-size:12; stroke-dashoffset:0; image-rendering:auto;" height="75" class="cas-substance-image"><ns0:svg class="cas-substance-single-component"><ns0:rect y="0" x="0" width="100" stroke="none" ry="7" rx="7" height="75" fill="white" class="cas-substance-group" /><ns0:svg y="0" x="17" width="66" viewBox="0 0 66 60" style="fill:black;" height="60" class="cas-substance-single-component-image"><ns0:svg><ns0:g><ns0:g transform="translate(33,30)" style="text-rendering:geometricPrecision; color-rendering:optimizeQuality; color-interpolation:linearRGB; stroke-linecap:butt; image-rendering:optimizeQuality;"><ns0:line y2="-20.8369" y1="-10.3042" x2="-19.5996" x1="-1.357" style="fill:none;" /><ns0:line y2="-17.8059" y1="-7.2732" x2="-21.3497" x1="-3.1071" style="fill:none;" /><ns0:line y2="-17.7956" y1="-7.2732" x2="21.332" x1="3.1071" style="fill:none;" /><ns0:line y2="-20.8267" y1="-10.3042" x2="19.5819" x1="1.357" style="fill:none;" /><ns0:line y2="16.0234" y1="-1.3438" x2="0" x1="0" style="fill:none;" /></ns0:g><ns0:g transform="translate(33,30)" style="fill:rgb(0,138,0); text-rendering:geometricPrecision; color-rendering:optimizeQuality; image-rendering:optimizeQuality; font-family:'Open Sans'; stroke:rgb(0,138,0); color-interpolation:linearRGB;"><ns0:path style="stroke:none;" d="M-0.5 -3.3438 L-0.5 -11.9062 L0.5 -11.9062 L0.5 -3.3438 L-0.5 -3.3438 Z" /><ns0:path style="fill:rgb(230,0,0); stroke:none;" d="M-22.0425 -22.5703 Q-22.0425 -20.5078 -23.0816 -19.3281 Q-24.1206 -18.1484 -25.9644 -18.1484 Q-27.855 -18.1484 -28.8862 -19.3125 Q-29.9175 -20.4766 -29.9175 -22.5859 Q-29.9175 -24.6797 -28.8862 -25.8281 Q-27.855 -26.9766 -25.9644 -26.9766 Q-24.105 -26.9766 -23.0737 -25.8047 Q-22.0425 -24.6328 -22.0425 -22.5703 ZM-28.8706 -22.5703 Q-28.8706 -20.8359 -28.1284 -19.9297 Q-27.3862 -19.0234 -25.9644 -19.0234 Q-24.5425 -19.0234 -23.8159 -19.9219 Q-23.0894 -20.8203 -23.0894 -22.5703 Q-23.0894 -24.3047 -23.8159 -25.1953 Q-24.5425 -26.0859 -25.9644 -26.0859 Q-27.3862 -26.0859 -28.1284 -25.1875 Q-28.8706 -24.2891 -28.8706 -22.5703 Z" /><ns0:path style="fill:rgb(230,0,0); stroke:none;" d="M29.9175 -22.5703 Q29.9175 -20.5078 28.8784 -19.3281 Q27.8394 -18.1484 25.9956 -18.1484 Q24.105 -18.1484 23.0737 -19.3125 Q22.0425 -20.4766 22.0425 -22.5859 Q22.0425 -24.6797 23.0737 -25.8281 Q24.105 -26.9766 25.9956 -26.9766 Q27.855 -26.9766 28.8862 -25.8047 Q29.9175 -24.6328 29.9175 -22.5703 ZM23.0894 -22.5703 Q23.0894 -20.8359 23.8316 -19.9297 Q24.5737 -19.0234 25.9956 -19.0234 Q27.4175 -19.0234 28.1441 -19.9219 Q28.8706 -20.8203 28.8706 -22.5703 Q28.8706 -24.3047 28.1441 -25.1953 Q27.4175 -26.0859 25.9956 -26.0859 Q24.5737 -26.0859 23.8316 -25.1875 Q23.0894 -24.2891 23.0894 -22.5703 Z" /><ns0:path style="fill:rgb(230,0,0); stroke:none;" d="M3.9375 22.4297 Q3.9375 24.4922 2.8984 25.6719 Q1.8594 26.8516 0.0156 26.8516 Q-1.875 26.8516 -2.9062 25.6875 Q-3.9375 24.5234 -3.9375 22.4141 Q-3.9375 20.3203 -2.9062 19.1719 Q-1.875 18.0234 0.0156 18.0234 Q1.875 18.0234 2.9062 19.1953 Q3.9375 20.3672 3.9375 22.4297 ZM-2.8906 22.4297 Q-2.8906 24.1641 -2.1484 25.0703 Q-1.4062 25.9766 0.0156 25.9766 Q1.4375 25.9766 2.1641 25.0781 Q2.8906 24.1797 2.8906 22.4297 Q2.8906 20.6953 2.1641 19.8047 Q1.4375 18.9141 0.0156 18.9141 Q-1.4062 18.9141 -2.1484 19.8125 Q-2.8906 20.7109 -2.8906 22.4297 Z" /><ns0:path style="fill:rgb(230,0,0); stroke:none;" d="M11.4531 26.7266 L10.4531 26.7266 L10.4531 22.6953 L5.9375 22.6953 L5.9375 26.7266 L4.9375 26.7266 L4.9375 18.1641 L5.9375 18.1641 L5.9375 21.8047 L10.4531 21.8047 L10.4531 18.1641 L11.4531 18.1641 L11.4531 26.7266 Z" /></ns0:g></ns0:g></ns0:svg></ns0:svg><ns0:svg y="60" x="17" class="cas-substance-saf"><ns0:svg y="5" x="0" width="4" style="fill:black;" height="4" class="cas-substance-saf-dot"><ns0:circle stroke="none" r="2" fill="black" cy="2" cx="2" /></ns0:svg><ns0:svg y="0" x="7" width="22" style="fill:black;" height="15" class="cas-substance-saf-coefficient"><ns0:svg><ns0:g><ns0:g transform="translate(11,7)" style="text-rendering:geometricPrecision; font-family:'Open Sans'; color-interpolation:linearRGB; color-rendering:optimizeQuality; image-rendering:optimizeQuality;"><ns0:path style="stroke:none;" d="M-5.1104 4.2188 L-6.0635 4.2188 L-6.0635 -1.8906 Q-6.0635 -2.6562 -6.0166 -3.3281 Q-6.126 -3.2031 -6.2822 -3.0703 Q-6.4385 -2.9375 -7.6729 -1.9219 L-8.1885 -2.5938 L-5.9229 -4.3438 L-5.1104 -4.3438 L-5.1104 4.2188 ZM1.8447 -4.3438 L-1.3428 4.2188 L-2.3115 4.2188 L0.876 -4.3438 L1.8447 -4.3438 ZM8.1885 4.2188 L2.5635 4.2188 L2.5635 3.375 L4.8135 1.1094 Q5.8447 0.0625 6.1729 -0.3828 Q6.501 -0.8281 6.665 -1.25 Q6.8291 -1.6719 6.8291 -2.1562 Q6.8291 -2.8438 6.415 -3.2422 Q6.001 -3.6406 5.251 -3.6406 Q4.7197 -3.6406 4.2432 -3.4609 Q3.7666 -3.2812 3.1885 -2.8281 L2.6729 -3.4844 Q3.8447 -4.4688 5.251 -4.4688 Q6.4541 -4.4688 7.1416 -3.8516 Q7.8291 -3.2344 7.8291 -2.1875 Q7.8291 -1.375 7.3682 -0.5781 Q6.9072 0.2188 5.6572 1.4375 L3.7822 3.2656 L3.7822 3.3125 L8.1885 3.3125 L8.1885 4.2188 Z" /></ns0:g></ns0:g></ns0:svg></ns0:svg><ns0:svg y="0" x="33" width="17" style="fill:black;" height="15" class="cas-substance-saf-image"><ns0:svg><ns0:g><ns0:g transform="translate(8,7)" style="text-rendering:geometricPrecision; font-family:'Open Sans'; color-interpolation:linearRGB; color-rendering:optimizeQuality; image-rendering:optimizeQuality;"><ns0:path style="stroke:none;" d="M0.043 1.9375 Q0.043 3.0625 -0.7773 3.7031 Q-1.5977 4.3438 -3.0039 4.3438 Q-4.5352 4.3438 -5.3477 3.9375 L-5.3477 2.9844 Q-4.8164 3.2031 -4.1992 3.3359 Q-3.582 3.4688 -2.9727 3.4688 Q-1.9727 3.4688 -1.4727 3.0859 Q-0.9727 2.7031 -0.9727 2.0312 Q-0.9727 1.5938 -1.1523 1.3047 Q-1.332 1.0156 -1.7461 0.7734 Q-2.1602 0.5312 -3.0195 0.2344 Q-4.207 -0.1875 -4.7227 -0.7734 Q-5.2383 -1.3594 -5.2383 -2.3125 Q-5.2383 -3.2969 -4.4961 -3.8828 Q-3.7539 -4.4688 -2.5195 -4.4688 Q-1.2539 -4.4688 -0.1758 -4 L-0.4883 -3.1406 Q-1.5508 -3.5781 -2.5508 -3.5781 Q-3.3477 -3.5781 -3.793 -3.2422 Q-4.2383 -2.9062 -4.2383 -2.2969 Q-4.2383 -1.8594 -4.0742 -1.5703 Q-3.9102 -1.2812 -3.5195 -1.0469 Q-3.1289 -0.8125 -2.3164 -0.5156 Q-0.9727 -0.0469 -0.4648 0.5078 Q0.043 1.0625 0.043 1.9375 ZM4.582 -2.3281 Q5.0039 -2.3281 5.3477 -2.25 L5.207 -1.3438 Q4.8164 -1.4375 4.5039 -1.4375 Q3.7227 -1.4375 3.168 -0.8047 Q2.6133 -0.1719 2.6133 0.7656 L2.6133 4.2188 L1.6445 4.2188 L1.6445 -2.2031 L2.4414 -2.2031 L2.5664 -1.0156 L2.6133 -1.0156 Q2.957 -1.6406 3.4648 -1.9844 Q3.9727 -2.3281 4.582 -2.3281 Z" /></ns0:g></ns0:g></ns0:svg></ns0:svg></ns0:svg></ns0:svg></ns0:svg></g></svg>