<svg width="228" viewBox="0 0 228 192" style="fill-opacity:1; color-rendering:auto; color-interpolation:auto; text-rendering:auto; stroke:black; stroke-linecap:square; stroke-miterlimit:10; shape-rendering:auto; stroke-opacity:1; fill:black; stroke-dasharray:none; font-weight:normal; stroke-width:1; font-family:'Open Sans'; font-style:normal; stroke-linejoin:miter; font-size:12; stroke-dashoffset:0; image-rendering:auto;" height="192" class="cas-substance-image" xmlns:xlink="http://www.w3.org/1999/xlink" xmlns="http://www.w3.org/2000/svg"><svg class="cas-substance-single-component"><rect y="0" x="0" width="228" stroke="none" ry="7" rx="7" height="192" fill="white" class="cas-substance-group"/><svg y="0" x="0" width="228" viewBox="0 0 228 192" style="fill:black;" height="192" class="cas-substance-single-component-image"><svg><g><g transform="translate(114,94)" style="text-rendering:geometricPrecision; color-rendering:optimizeQuality; color-interpolation:linearRGB; stroke-linecap:butt; image-rendering:optimizeQuality;"><line y2="-38.97" y1="-18.7117" x2="39.51" x1="27.8135" style="fill:none;"/><line y2="-12.99" y1="-12.99" x2="-5.49" x1="18.5725" style="fill:none;"/><line y2="-38.97" y1="-38.97" x2="69.51" x1="39.51" style="fill:none;"/><line y2="-64.953" y1="-38.97" x2="84.51" x1="69.51" style="fill:none;"/><path style="stroke:none;" d="M70.3539 -38.6566 L69.3592 -38.0831 L69.7668 -37.1634 L69.7668 -37.1634 L70.9467 -37.8438 L70.3539 -38.6566 ZM72.1323 -36.2181 L70.5818 -35.324 L70.5818 -35.324 L70.9893 -34.4043 L72.7251 -35.4052 L72.7251 -35.4052 L72.1323 -36.2181 ZM73.9107 -33.7795 L71.8044 -32.5649 L72.2119 -31.6452 L74.5035 -32.9666 L73.9107 -33.7795 ZM75.6891 -31.3409 L73.027 -29.8058 L73.4345 -28.8861 L76.2819 -30.5281 L75.6891 -31.3409 ZM77.4675 -28.9023 L74.2496 -27.0467 L74.2496 -27.0467 L74.6571 -26.127 L78.0603 -28.0895 L77.4675 -28.9023 ZM79.2459 -26.4638 L75.4722 -24.2876 L75.8797 -23.3679 L79.8387 -25.6509 L79.8387 -25.6509 L79.2459 -26.4638 ZM81.0243 -24.0252 L76.6948 -21.5285 L76.6948 -21.5285 L77.1023 -20.6088 L81.6171 -23.2123 L81.0243 -24.0252 ZM82.8027 -21.5866 L77.9174 -18.7694 L78.3249 -17.8497 L78.3249 -17.8497 L83.3955 -20.7738 L82.8027 -21.5866 Z"/><line y2="-49.953" y1="-64.953" x2="110.49" x1="84.51" style="fill:none;"/><line y2="-90.933" y1="-64.953" x2="99.51" x1="84.51" style="fill:none;"/><line y2="-76.7744" y1="-64.953" x2="64.0354" x1="84.51" style="fill:none;"/><line y2="-38.97" y1="-18.7176" x2="-110.49" x1="-98.7969" style="fill:none;"/><line y2="-12.99" y1="-12.99" x2="-65.49" x1="-89.5525" style="fill:none;"/><line y2="63.2029" y1="84.3304" x2="-19.4797" x1="-7.2814" style="fill:none;"/><line y2="64.953" y1="86.0804" x2="-22.5107" x1="-10.3125" style="fill:none;"/><line y2="-12.99" y1="12.99" x2="-5.49" x1="-20.49" style="fill:none;"/><line y2="12.99" y1="12.99" x2="-50.49" x1="-20.49" style="fill:none;"/><line y2="16.49" y1="16.49" x2="-48.4693" x1="-22.5107" style="fill:none;"/><line y2="33.2424" y1="12.99" x2="-8.7969" x1="-20.49" style="fill:none;"/><line y2="-38.97" y1="-12.99" x2="-20.49" x1="-5.49" style="fill:none;"/><line y2="-35.47" y1="-12.9899" x2="-22.5107" x1="-9.5315" style="fill:none;"/><line y2="-12.99" y1="12.99" x2="-65.49" x1="-50.49" style="fill:none;"/><line y2="38.97" y1="12.99" x2="-65.49" x1="-50.49" style="fill:none;"/><line y2="64.953" y1="44.6182" x2="-20.49" x1="-8.7507" style="fill:none;"/><line y2="-38.97" y1="-38.97" x2="-50.49" x1="-20.49" style="fill:none;"/><line y2="-61.2493" y1="-38.97" x2="-13.2517" x1="-20.49" style="fill:none;"/><line y2="-38.97" y1="-12.99" x2="-50.49" x1="-65.49" style="fill:none;"/><line y2="-35.47" y1="-12.9899" x2="-48.4693" x1="-61.4486" style="fill:none;"/><line y2="64.953" y1="38.97" x2="-50.49" x1="-65.49" style="fill:none;"/><line y2="61.4531" y1="38.9701" x2="-48.4691" x1="-61.4486" style="fill:none;"/><line y2="64.953" y1="64.953" x2="-50.49" x1="-20.49" style="fill:none;"/><line y2="-67.503" y1="-38.97" x2="-59.76" x1="-50.49" style="fill:none;"/><line y2="-85.137" y1="-71.2705" x2="-35.49" x1="-16.4053" style="fill:none;"/><line y2="-85.137" y1="-67.503" x2="-35.49" x1="-59.76" style="fill:none;"/><line y2="-81.1177" y1="-65.8593" x2="-35.0675" x1="-56.0679" style="fill:none;"/></g><g transform="translate(114,94)" style="fill:rgb(230,0,0); text-rendering:geometricPrecision; color-rendering:optimizeQuality; image-rendering:optimizeQuality; font-family:'Open Sans'; stroke:rgb(230,0,0); color-interpolation:linearRGB;"><path style="stroke:none;" d="M28.4475 -13.0603 Q28.4475 -10.9978 27.4084 -9.8181 Q26.3694 -8.6384 24.5256 -8.6384 Q22.635 -8.6384 21.6037 -9.8025 Q20.5725 -10.9666 20.5725 -13.0759 Q20.5725 -15.1697 21.6037 -16.3181 Q22.635 -17.4666 24.5256 -17.4666 Q26.385 -17.4666 27.4162 -16.2947 Q28.4475 -15.1228 28.4475 -13.0603 ZM21.6194 -13.0603 Q21.6194 -11.3259 22.3616 -10.4197 Q23.1037 -9.5134 24.5256 -9.5134 Q25.9475 -9.5134 26.6741 -10.4119 Q27.4006 -11.3103 27.4006 -13.0603 Q27.4006 -14.7947 26.6741 -15.6853 Q25.9475 -16.5759 24.5256 -16.5759 Q23.1037 -16.5759 22.3616 -15.6775 Q21.6194 -14.7791 21.6194 -13.0603 Z"/></g><g transform="translate(114,94)" style="stroke-linecap:butt; text-rendering:geometricPrecision; color-rendering:optimizeQuality; image-rendering:optimizeQuality; font-family:'Open Sans'; color-interpolation:linearRGB; stroke-miterlimit:5;"><path style="fill:none;" d="M39.26 -38.537 L39.51 -38.97 L40.01 -38.97"/><path style="fill:none;" d="M69.01 -38.97 L69.51 -38.97 L69.76 -39.403"/></g><g transform="translate(114,94)" style="stroke-linecap:butt; font-size:8.4px; fill:gray; text-rendering:geometricPrecision; image-rendering:optimizeQuality; color-rendering:optimizeQuality; font-family:'Open Sans'; font-style:italic; stroke:gray; color-interpolation:linearRGB; stroke-miterlimit:5;"><path style="stroke:none;" d="M60.1209 -46.4659 Q60.1209 -47.7941 60.5897 -48.9191 Q61.0584 -50.0441 62.0897 -51.1222 L62.6991 -51.1222 Q61.7303 -50.0597 61.2459 -48.8878 Q60.7616 -47.7159 60.7616 -46.4816 Q60.7616 -45.1534 61.1991 -44.1378 L60.6834 -44.1378 Q60.1209 -45.1691 60.1209 -46.4659 ZM63.681 -47.7784 L63.181 -45.4034 L62.5247 -45.4034 L63.7279 -51.1222 L64.9779 -51.1222 Q66.7122 -51.1222 66.7122 -49.6847 Q66.7122 -48.3253 65.2747 -47.9347 L66.2122 -45.4034 L65.4935 -45.4034 L64.6654 -47.7784 L63.681 -47.7784 ZM64.2591 -50.5284 Q63.8685 -48.6066 63.806 -48.3566 L64.4622 -48.3566 Q65.2122 -48.3566 65.6185 -48.6847 Q66.0247 -49.0128 66.0247 -49.6378 Q66.0247 -50.1066 65.7669 -50.3175 Q65.5091 -50.5284 64.9154 -50.5284 L64.2591 -50.5284 ZM68.8982 -48.7784 Q68.8982 -47.4503 68.4216 -46.3175 Q67.9451 -45.1847 66.9295 -44.1378 L66.3201 -44.1378 Q68.2576 -46.2941 68.2576 -48.7784 Q68.2576 -50.1066 67.8201 -51.1222 L68.3357 -51.1222 Q68.8982 -50.0597 68.8982 -48.7784 Z"/></g><g transform="translate(114,94)" style="stroke-linecap:butt; fill:rgb(230,0,0); text-rendering:geometricPrecision; color-rendering:optimizeQuality; image-rendering:optimizeQuality; font-family:'Open Sans'; stroke:rgb(230,0,0); color-interpolation:linearRGB; stroke-miterlimit:5;"><path style="stroke:none;" d="M88.4475 -13.0603 Q88.4475 -10.9978 87.4084 -9.8181 Q86.3694 -8.6384 84.5256 -8.6384 Q82.635 -8.6384 81.6037 -9.8025 Q80.5725 -10.9666 80.5725 -13.0759 Q80.5725 -15.1697 81.6037 -16.3181 Q82.635 -17.4666 84.5256 -17.4666 Q86.385 -17.4666 87.4162 -16.2947 Q88.4475 -15.1228 88.4475 -13.0603 ZM81.6194 -13.0603 Q81.6194 -11.3259 82.3616 -10.4197 Q83.1037 -9.5134 84.5256 -9.5134 Q85.9475 -9.5134 86.6741 -10.4119 Q87.4006 -11.3103 87.4006 -13.0603 Q87.4006 -14.7947 86.6741 -15.6853 Q85.9475 -16.5759 84.5256 -16.5759 Q83.1037 -16.5759 82.3616 -15.6775 Q81.6194 -14.7791 81.6194 -13.0603 Z"/><path style="stroke:none;" d="M95.9631 -8.7634 L94.9631 -8.7634 L94.9631 -12.7947 L90.4475 -12.7947 L90.4475 -8.7634 L89.4475 -8.7634 L89.4475 -17.3259 L90.4475 -17.3259 L90.4475 -13.6853 L94.9631 -13.6853 L94.9631 -17.3259 L95.9631 -17.3259 L95.9631 -8.7634 Z"/><path style="stroke:none;" d="M62.4675 -80.0233 Q62.4675 -77.9608 61.4284 -76.7811 Q60.3894 -75.6014 58.5456 -75.6014 Q56.655 -75.6014 55.6237 -76.7655 Q54.5925 -77.9296 54.5925 -80.0389 Q54.5925 -82.1327 55.6237 -83.2811 Q56.655 -84.4296 58.5456 -84.4296 Q60.405 -84.4296 61.4362 -83.2577 Q62.4675 -82.0858 62.4675 -80.0233 ZM55.6394 -80.0233 Q55.6394 -78.2889 56.3816 -77.3827 Q57.1237 -76.4764 58.5456 -76.4764 Q59.9675 -76.4764 60.6941 -77.3749 Q61.4206 -78.2733 61.4206 -80.0233 Q61.4206 -81.7577 60.6941 -82.6483 Q59.9675 -83.5389 58.5456 -83.5389 Q57.1237 -83.5389 56.3816 -82.6405 Q55.6394 -81.7421 55.6394 -80.0233 Z"/><path style="stroke:none;" d="M53.5925 -75.7264 L52.5925 -75.7264 L52.5925 -79.7577 L48.0769 -79.7577 L48.0769 -75.7264 L47.0769 -75.7264 L47.0769 -84.2889 L48.0769 -84.2889 L48.0769 -80.6483 L52.5925 -80.6483 L52.5925 -84.2889 L53.5925 -84.2889 L53.5925 -75.7264 Z"/><path style="stroke:none;" d="M-91.5525 -13.0603 Q-91.5525 -10.9978 -92.5916 -9.8181 Q-93.6306 -8.6384 -95.4744 -8.6384 Q-97.365 -8.6384 -98.3963 -9.8025 Q-99.4275 -10.9666 -99.4275 -13.0759 Q-99.4275 -15.1697 -98.3963 -16.3181 Q-97.365 -17.4666 -95.4744 -17.4666 Q-93.615 -17.4666 -92.5838 -16.2947 Q-91.5525 -15.1228 -91.5525 -13.0603 ZM-98.3806 -13.0603 Q-98.3806 -11.3259 -97.6384 -10.4197 Q-96.8963 -9.5134 -95.4744 -9.5134 Q-94.0525 -9.5134 -93.3259 -10.4119 Q-92.5994 -11.3103 -92.5994 -13.0603 Q-92.5994 -14.7947 -93.3259 -15.6853 Q-94.0525 -16.5759 -95.4744 -16.5759 Q-96.8963 -16.5759 -97.6384 -15.6775 Q-98.3806 -14.7791 -98.3806 -13.0603 Z"/><path style="stroke:none;" d="M-1.5525 90.8627 Q-1.5525 92.9252 -2.5916 94.1049 Q-3.6306 95.2846 -5.4744 95.2846 Q-7.365 95.2846 -8.3962 94.1205 Q-9.4275 92.9564 -9.4275 90.8471 Q-9.4275 88.7533 -8.3962 87.6049 Q-7.365 86.4564 -5.4744 86.4564 Q-3.615 86.4564 -2.5837 87.6283 Q-1.5525 88.8002 -1.5525 90.8627 ZM-8.3806 90.8627 Q-8.3806 92.5971 -7.6384 93.5033 Q-6.8962 94.4096 -5.4744 94.4096 Q-4.0525 94.4096 -3.3259 93.5111 Q-2.5994 92.6127 -2.5994 90.8627 Q-2.5994 89.1283 -3.3259 88.2377 Q-4.0525 87.3471 -5.4744 87.3471 Q-6.8962 87.3471 -7.6384 88.2455 Q-8.3806 89.1439 -8.3806 90.8627 Z"/><path style="fill:none; stroke:black;" d="M-20.99 12.99 L-20.49 12.99 L-20.24 12.557"/><path style="fill:none; stroke:black;" d="M-5.74 -13.423 L-5.49 -12.99 L-4.99 -12.99"/><path style="fill:none; stroke:black;" d="M-49.99 12.99 L-50.49 12.99 L-50.74 12.557"/><path style="stroke:none;" d="M-1.5525 38.8997 Q-1.5525 40.9622 -2.5916 42.1419 Q-3.6306 43.3216 -5.4744 43.3216 Q-7.365 43.3216 -8.3962 42.1575 Q-9.4275 40.9934 -9.4275 38.8841 Q-9.4275 36.7903 -8.3962 35.6419 Q-7.365 34.4934 -5.4744 34.4934 Q-3.615 34.4934 -2.5837 35.6653 Q-1.5525 36.8372 -1.5525 38.8997 ZM-8.3806 38.8997 Q-8.3806 40.6341 -7.6384 41.5403 Q-6.8962 42.4466 -5.4744 42.4466 Q-4.0525 42.4466 -3.3259 41.5481 Q-2.5994 40.6497 -2.5994 38.8997 Q-2.5994 37.1653 -3.3259 36.2747 Q-4.0525 35.3841 -5.4744 35.3841 Q-6.8962 35.3841 -7.6384 36.2825 Q-8.3806 37.1809 -8.3806 38.8997 Z"/><path style="fill:none; stroke:black;" d="M-20.24 -38.537 L-20.49 -38.97 L-20.3355 -39.4455"/><path style="fill:none; stroke:black;" d="M-65.24 -13.423 L-65.49 -12.99 L-65.99 -12.99"/><path style="fill:none; stroke:black;" d="M-65.24 38.537 L-65.49 38.97 L-65.24 39.403"/><path style="fill:none; stroke:black;" d="M-20.24 64.52 L-20.49 64.953 L-20.99 64.953"/><path style="fill:none; stroke:black;" d="M-50.74 -38.537 L-50.49 -38.97 L-49.99 -38.97"/><path style="stroke:none;" d="M-7.2825 -67.5733 Q-7.2825 -65.5108 -8.3216 -64.3311 Q-9.3606 -63.1514 -11.2044 -63.1514 Q-13.095 -63.1514 -14.1263 -64.3155 Q-15.1575 -65.4796 -15.1575 -67.5889 Q-15.1575 -69.6827 -14.1263 -70.8311 Q-13.095 -71.9796 -11.2044 -71.9796 Q-9.345 -71.9796 -8.3138 -70.8077 Q-7.2825 -69.6358 -7.2825 -67.5733 ZM-14.1106 -67.5733 Q-14.1106 -65.8389 -13.3684 -64.9327 Q-12.6263 -64.0264 -11.2044 -64.0264 Q-9.7825 -64.0264 -9.0559 -64.9249 Q-8.3294 -65.8233 -8.3294 -67.5733 Q-8.3294 -69.3077 -9.0559 -70.1983 Q-9.7825 -71.0889 -11.2044 -71.0889 Q-12.6263 -71.0889 -13.3684 -70.1905 Q-14.1106 -69.2921 -14.1106 -67.5733 Z"/><path style="fill:none; stroke:black;" d="M-50.74 64.52 L-50.49 64.953 L-49.99 64.953"/><path style="fill:none; stroke:black;" d="M-59.6055 -67.0275 L-59.76 -67.503 L-59.3555 -67.7969"/><path style="fill:none; stroke:black;" d="M-35.0855 -84.8431 L-35.49 -85.137 L-35.8945 -84.8431"/></g></g></svg></svg></svg></svg>