<svg width="223" viewBox="0 0 223 112" style="fill-opacity:1; color-rendering:auto; color-interpolation:auto; text-rendering:auto; stroke:black; stroke-linecap:square; stroke-miterlimit:10; shape-rendering:auto; stroke-opacity:1; fill:black; stroke-dasharray:none; font-weight:normal; stroke-width:1; font-family:'Open Sans'; font-style:normal; stroke-linejoin:miter; font-size:12; stroke-dashoffset:0; image-rendering:auto;" height="112" class="cas-substance-image" xmlns:xlink="http://www.w3.org/1999/xlink" xmlns="http://www.w3.org/2000/svg"><svg class="cas-substance-single-component"><rect y="0" x="0" width="223" stroke="none" ry="7" rx="7" height="112" fill="white" class="cas-substance-group"/><svg y="0" x="0" width="223" viewBox="0 0 223 112" style="fill:black;" height="112" class="cas-substance-single-component-image"><svg><g><g transform="translate(113,56)" style="text-rendering:geometricPrecision; color-rendering:optimizeQuality; color-interpolation:linearRGB; stroke-linecap:butt; image-rendering:optimizeQuality;"><line y2="7.5" y1="-4.2834" x2="-77.943" x1="-98.3519" style="fill:none;"/><line y2="-40.7414" y1="-52.5" x2="98.3089" x1="77.943" style="fill:none;"/><line y2="-37.7103" y1="-48.4585" x2="96.5588" x1="77.9429" style="fill:none;"/><line y2="-37.5" y1="-52.5" x2="51.963" x1="77.943" style="fill:none;"/><line y2="-7.5" y1="7.5" x2="-51.963" x1="-25.98" style="fill:none;"/><line y2="-3.4585" y1="9.5209" x2="-51.9628" x1="-29.4799" style="fill:none;"/><line y2="37.5" y1="7.5" x2="-25.98" x1="-25.98" style="fill:none;"/><line y2="-7.5" y1="7.5" x2="0" x1="-25.98" style="fill:none;"/><line y2="7.5" y1="-7.5" x2="-77.943" x1="-51.963" style="fill:none;"/><line y2="52.5" y1="37.5" x2="-51.963" x1="-25.98" style="fill:none;"/><line y2="48.4585" y1="35.4791" x2="-51.9628" x1="-29.4799" style="fill:none;"/><line y2="37.5" y1="7.5" x2="-77.943" x1="-77.943" style="fill:none;"/><line y2="35.4793" y1="9.5207" x2="-74.443" x1="-74.443" style="fill:none;"/><line y2="37.5" y1="52.5" x2="-77.943" x1="-51.963" style="fill:none;"/><line y2="7.5" y1="-7.5" x2="25.98" x1="0" style="fill:none;"/><line y2="3.4585" y1="-9.5207" x2="25.9801" x1="3.5" style="fill:none;"/><line y2="-37.5" y1="-7.5" x2="0" x1="0" style="fill:none;"/><line y2="-7.5" y1="7.5" x2="51.963" x1="25.98" style="fill:none;"/><line y2="-52.5" y1="-37.5" x2="25.98" x1="0" style="fill:none;"/><line y2="-48.4585" y1="-35.4793" x2="25.9801" x1="3.5" style="fill:none;"/><line y2="-37.5" y1="-7.5" x2="51.963" x1="51.963" style="fill:none;"/><line y2="-35.4793" y1="-9.5207" x2="48.463" x1="48.463" style="fill:none;"/><line y2="-37.5" y1="-52.5" x2="51.963" x1="25.98" style="fill:none;"/></g><g transform="translate(113,56)" style="fill:rgb(0,138,0); text-rendering:geometricPrecision; color-rendering:optimizeQuality; image-rendering:optimizeQuality; font-family:'Open Sans'; stroke:rgb(0,138,0); color-interpolation:linearRGB;"><path style="stroke:none;" d="M-109.5919 -11.9062 L-107.1701 -11.9062 Q-105.4669 -11.9062 -104.7013 -11.3984 Q-103.9357 -10.8906 -103.9357 -9.7969 Q-103.9357 -9.0312 -104.3576 -8.5312 Q-104.7794 -8.0312 -105.6076 -7.8906 L-105.6076 -7.8281 Q-103.6544 -7.5 -103.6544 -5.7812 Q-103.6544 -4.6406 -104.4279 -3.9922 Q-105.2013 -3.3438 -106.5919 -3.3438 L-109.5919 -3.3438 L-109.5919 -11.9062 ZM-108.5919 -8.25 L-106.9513 -8.25 Q-105.8888 -8.25 -105.4279 -8.5781 Q-104.9669 -8.9062 -104.9669 -9.6875 Q-104.9669 -10.4062 -105.4826 -10.7266 Q-105.9982 -11.0469 -107.1232 -11.0469 L-108.5919 -11.0469 L-108.5919 -8.25 ZM-108.5919 -7.4062 L-108.5919 -4.1875 L-106.7951 -4.1875 Q-105.7638 -4.1875 -105.2404 -4.5938 Q-104.7169 -5 -104.7169 -5.8594 Q-104.7169 -6.6562 -105.256 -7.0312 Q-105.7951 -7.4062 -106.8888 -7.4062 L-108.5919 -7.4062 ZM-99.0197 -9.8906 Q-98.5978 -9.8906 -98.2541 -9.8125 L-98.3947 -8.9062 Q-98.7853 -9 -99.0978 -9 Q-99.8791 -9 -100.4337 -8.3672 Q-100.9884 -7.7344 -100.9884 -6.7969 L-100.9884 -3.3438 L-101.9572 -3.3438 L-101.9572 -9.7656 L-101.1603 -9.7656 L-101.0353 -8.5781 L-100.9884 -8.5781 Q-100.6447 -9.2031 -100.1369 -9.5469 Q-99.6291 -9.8906 -99.0197 -9.8906 Z"/></g><g transform="translate(113,56)" style="stroke-linecap:butt; text-rendering:geometricPrecision; color-rendering:optimizeQuality; image-rendering:optimizeQuality; font-family:'Open Sans'; color-interpolation:linearRGB; stroke-miterlimit:5;"><path style="fill:none;" d="M78.376 -52.25 L77.943 -52.5 L77.51 -52.25"/><path transform="translate(-0.875,1.5155)" style="fill:rgb(230,0,0); stroke:none;" d="M107.8605 -37.5703 Q107.8605 -35.5078 106.8214 -34.3281 Q105.7824 -33.1484 103.9386 -33.1484 Q102.048 -33.1484 101.0167 -34.3125 Q99.9855 -35.4766 99.9855 -37.5859 Q99.9855 -39.6797 101.0167 -40.8281 Q102.048 -41.9766 103.9386 -41.9766 Q105.798 -41.9766 106.8292 -40.8047 Q107.8605 -39.6328 107.8605 -37.5703 ZM101.0324 -37.5703 Q101.0324 -35.8359 101.7746 -34.9297 Q102.5167 -34.0234 103.9386 -34.0234 Q105.3605 -34.0234 106.0871 -34.9219 Q106.8136 -35.8203 106.8136 -37.5703 Q106.8136 -39.3047 106.0871 -40.1953 Q105.3605 -41.0859 103.9386 -41.0859 Q102.5167 -41.0859 101.7746 -40.1875 Q101.0324 -39.2891 101.0324 -37.5703 Z"/></g><g transform="matrix(1,0,0,1,113,56)" style="stroke-linecap:butt; text-rendering:geometricPrecision; color-rendering:optimizeQuality; image-rendering:optimizeQuality; font-family:'Open Sans'; color-interpolation:linearRGB; stroke-miterlimit:5;"><path style="fill:none;" d="M-26.413 7.25 L-25.98 7.5 L-25.547 7.25"/><path style="fill:none;" d="M-51.53 -7.25 L-51.963 -7.5 L-52.396 -7.25"/><path style="fill:none;" d="M-25.98 37 L-25.98 37.5 L-26.413 37.75"/><path style="fill:none;" d="M-77.943 8 L-77.943 7.5 L-78.376 7.25"/><path style="fill:none;" d="M-51.53 52.25 L-51.963 52.5 L-52.396 52.25"/><path style="fill:none;" d="M-77.943 37 L-77.943 37.5 L-77.51 37.75"/><path style="fill:none;" d="M0.433 -7.25 L0 -7.5 L-0.433 -7.25"/><path style="fill:none;" d="M25.547 7.25 L25.98 7.5 L26.413 7.25"/><path style="fill:none;" d="M-0 -37 L0 -37.5 L0.433 -37.75"/><path style="fill:none;" d="M51.53 -7.25 L51.963 -7.5 L51.963 -8"/><path style="fill:none;" d="M25.547 -52.25 L25.98 -52.5 L26.413 -52.25"/><path style="fill:none;" d="M51.963 -37 L51.963 -37.5 L52.396 -37.75"/></g></g></svg></svg></svg></svg>