<svg width="133" viewBox="0 0 133 82" style="fill-opacity:1; color-rendering:auto; color-interpolation:auto; text-rendering:auto; stroke:black; stroke-linecap:square; stroke-miterlimit:10; shape-rendering:auto; stroke-opacity:1; fill:black; stroke-dasharray:none; font-weight:normal; stroke-width:1; font-family:'Open Sans'; font-style:normal; stroke-linejoin:miter; font-size:12; stroke-dashoffset:0; image-rendering:auto;" height="82" class="cas-substance-image" xmlns:xlink="http://www.w3.org/1999/xlink" xmlns="http://www.w3.org/2000/svg"><svg class="cas-substance-single-component"><rect y="0" x="0" width="133" stroke="none" ry="7" rx="7" height="82" fill="white" class="cas-substance-group"/><svg y="0" x="0" width="133" viewBox="0 0 133 82" style="fill:black;" height="82" class="cas-substance-single-component-image"><svg><g><g transform="translate(68,43)" style="text-rendering:geometricPrecision; color-rendering:optimizeQuality; color-interpolation:linearRGB; stroke-linecap:butt; image-rendering:optimizeQuality;"><line y2="-5.49" y1="9.51" x2="9.51" x1="-16.47" style="fill:none;"/><line y2="-16.47" y1="9.51" x2="-31.47" x1="-16.47" style="fill:none;"/><line y2="24.51" y1="9.51" x2="-42.453" x1="-16.47" style="fill:none;"/><line y2="35.49" y1="9.51" x2="-1.47" x1="-16.47" style="fill:none;"/><line y2="9.51" y1="-5.49" x2="35.49" x1="9.51" style="fill:none;"/><line y2="-29.1384" y1="-4.4796" x2="11.26" x1="11.26" style="fill:none;"/><line y2="-29.1384" y1="-4.4796" x2="7.76" x1="7.76" style="fill:none;"/><line y2="-16.47" y1="-16.47" x2="-55.5325" x1="-31.47" style="fill:none;"/><line y2="-12.97" y1="-12.97" x2="-55.5325" x1="-33.4907" style="fill:none;"/><line y2="-5.49" y1="9.51" x2="61.47" x1="35.49" style="fill:none;"/><path style="fill:none; stroke-miterlimit:5;" d="M9.077 -5.24 L9.51 -5.49 L9.943 -5.24"/><path style="fill:none; stroke-miterlimit:5;" d="M-31.22 -16.037 L-31.47 -16.47 L-31.97 -16.47"/><path style="fill:none; stroke-miterlimit:5;" d="M35.057 9.26 L35.49 9.51 L35.923 9.26"/></g><g transform="translate(68,43)" style="stroke-linecap:butt; fill:rgb(230,0,0); text-rendering:geometricPrecision; color-rendering:optimizeQuality; image-rendering:optimizeQuality; font-family:'Open Sans'; stroke:rgb(230,0,0); color-interpolation:linearRGB; stroke-miterlimit:5;"><path style="stroke:none;" d="M13.4475 -35.5603 Q13.4475 -33.4978 12.4084 -32.3181 Q11.3694 -31.1384 9.5256 -31.1384 Q7.635 -31.1384 6.6038 -32.3025 Q5.5725 -33.4666 5.5725 -35.5759 Q5.5725 -37.6697 6.6038 -38.8181 Q7.635 -39.9666 9.5256 -39.9666 Q11.385 -39.9666 12.4163 -38.7947 Q13.4475 -37.6228 13.4475 -35.5603 ZM6.6194 -35.5603 Q6.6194 -33.8259 7.3616 -32.9197 Q8.1038 -32.0134 9.5256 -32.0134 Q10.9475 -32.0134 11.6741 -32.9119 Q12.4006 -33.8103 12.4006 -35.5603 Q12.4006 -37.2947 11.6741 -38.1853 Q10.9475 -39.0759 9.5256 -39.0759 Q8.1038 -39.0759 7.3616 -38.1775 Q6.6194 -37.2791 6.6194 -35.5603 Z"/><path transform="translate(-0,1.75)" style="stroke:none;" d="M-57.5325 -16.5403 Q-57.5325 -14.4778 -58.5716 -13.2981 Q-59.6106 -12.1184 -61.4544 -12.1184 Q-63.345 -12.1184 -64.3763 -13.2825 Q-65.4075 -14.4466 -65.4075 -16.5559 Q-65.4075 -18.6497 -64.3763 -19.7981 Q-63.345 -20.9466 -61.4544 -20.9466 Q-59.595 -20.9466 -58.5638 -19.7747 Q-57.5325 -18.6028 -57.5325 -16.5403 ZM-64.3606 -16.5403 Q-64.3606 -14.8059 -63.6184 -13.8997 Q-62.8763 -12.9934 -61.4544 -12.9934 Q-60.0325 -12.9934 -59.3059 -13.8919 Q-58.5794 -14.7903 -58.5794 -16.5403 Q-58.5794 -18.2747 -59.3059 -19.1653 Q-60.0325 -20.0559 -61.4544 -20.0559 Q-62.8763 -20.0559 -63.6184 -19.1575 Q-64.3606 -18.2591 -64.3606 -16.5403 Z"/></g></g></svg></svg></svg></svg>