<svg xmlns:ns0="http://www.w3.org/2000/svg" xmlns="http://www.w3.org/2000/svg"><g transform="translate(0, 0)"><ns0:svg width="345" viewBox="0 0 345 247" style="fill-opacity:1; color-rendering:auto; color-interpolation:auto; text-rendering:auto; stroke:black; stroke-linecap:square; stroke-miterlimit:10; shape-rendering:auto; stroke-opacity:1; fill:black; stroke-dasharray:none; font-weight:normal; stroke-width:1; font-family:'Open Sans'; font-style:normal; stroke-linejoin:miter; font-size:12; stroke-dashoffset:0; image-rendering:auto;" height="247" class="cas-substance-image"><ns0:svg class="cas-substance-single-component"><ns0:rect y="0" x="0" width="345" stroke="none" ry="7" rx="7" height="247" fill="white" class="cas-substance-group" /><ns0:svg y="0" x="0" width="345" viewBox="0 0 345 247" style="fill:black;" height="247" class="cas-substance-single-component-image"><ns0:svg><ns0:g><ns0:g transform="translate(172,124)" style="text-rendering:geometricPrecision; color-rendering:optimizeQuality; color-interpolation:linearRGB; stroke-linecap:butt; image-rendering:optimizeQuality;"><ns0:line y2="-60" y1="-36.4062" x2="64.953" x1="64.953" style="fill:none;" /><ns0:line y2="-15" y1="-27.0649" x2="90.933" x1="70.0366" style="fill:none;" /><ns0:line y2="-15" y1="-27.0652" x2="38.97" x1="59.8694" style="fill:none;" /><ns0:line y2="-75" y1="-60" x2="38.97" x1="64.953" style="fill:none;" /><ns0:line y2="-30" y1="-15" x2="116.913" x1="90.933" style="fill:none;" /><ns0:line y2="30" y1="60" x2="12.99" x1="12.99" style="fill:none;" /><ns0:line y2="17.9348" y1="30" x2="-59.8694" x1="-38.97" style="fill:none;" /><ns0:line y2="20.9659" y1="32.0209" x2="-61.6192" x1="-42.4699" style="fill:none;" /><ns0:line y2="15" y1="30" x2="-12.99" x1="-38.97" style="fill:none;" /><ns0:line y2="27.0649" y1="17.9351" x2="-85.8494" x1="-70.0366" style="fill:none;" /><ns0:line y2="60" y1="36.1562" x2="-90.933" x1="-90.933" style="fill:none;" /><ns0:line y2="15" y1="27.0649" x2="-116.913" x1="-96.0166" style="fill:none;" /><ns0:line y2="15" y1="-15" x2="38.97" x1="38.97" style="fill:none;" /><ns0:line y2="12.9793" y1="-12.9793" x2="35.47" x1="35.47" style="fill:none;" /><ns0:line y2="-30" y1="-15" x2="12.99" x1="38.97" style="fill:none;" /><ns0:line y2="30" y1="15" x2="12.99" x1="38.97" style="fill:none;" /><ns0:line y2="-15" y1="-30" x2="-12.99" x1="12.99" style="fill:none;" /><ns0:line y2="-12.9793" y1="-25.9585" x2="-9.49" x1="12.9901" style="fill:none;" /><ns0:line y2="15" y1="30" x2="-12.99" x1="12.99" style="fill:none;" /><ns0:line y2="12.9793" y1="25.9585" x2="-9.49" x1="12.9901" style="fill:none;" /><ns0:line y2="15" y1="-15" x2="-12.99" x1="-12.99" style="fill:none;" /><ns0:line y2="-60" y1="-75" x2="12.99" x1="38.97" style="fill:none;" /><ns0:line y2="-64.0415" y1="-77.0207" x2="12.9899" x1="35.47" style="fill:none;" /><ns0:line y2="-105" y1="-75" x2="38.97" x1="38.97" style="fill:none;" /><ns0:line y2="-75" y1="-60" x2="-12.99" x1="12.99" style="fill:none;" /><ns0:line y2="-120" y1="-105" x2="12.99" x1="38.97" style="fill:none;" /><ns0:line y2="-115.9585" y1="-102.9793" x2="12.9899" x1="35.47" style="fill:none;" /><ns0:line y2="-105" y1="-75" x2="-12.99" x1="-12.99" style="fill:none;" /><ns0:line y2="-102.9793" y1="-77.0207" x2="-9.49" x1="-9.49" style="fill:none;" /><ns0:line y2="-105" y1="-120" x2="-12.99" x1="12.99" style="fill:none;" /><ns0:line y2="-60" y1="-30" x2="116.913" x1="116.913" style="fill:none;" /><ns0:line y2="-57.9793" y1="-32.0207" x2="120.413" x1="120.413" style="fill:none;" /><ns0:line y2="-15" y1="-30" x2="142.893" x1="116.913" style="fill:none;" /><ns0:line y2="-75" y1="-60" x2="142.893" x1="116.913" style="fill:none;" /><ns0:line y2="-30" y1="-15" x2="168.876" x1="142.893" style="fill:none;" /><ns0:line y2="-32.0209" y1="-19.0415" x2="165.3761" x1="142.8931" style="fill:none;" /><ns0:line y2="-60" y1="-75" x2="168.876" x1="142.893" style="fill:none;" /><ns0:line y2="-57.9791" y1="-70.9585" x2="165.3761" x1="142.8931" style="fill:none;" /><ns0:line y2="-60" y1="-30" x2="168.876" x1="168.876" style="fill:none;" /><ns0:line y2="75" y1="60" x2="-116.913" x1="-90.933" style="fill:none;" /><ns0:line y2="77.0207" y1="64.0415" x2="-113.413" x1="-90.9329" style="fill:none;" /><ns0:line y2="75" y1="60" x2="-64.953" x1="-90.933" style="fill:none;" /><ns0:line y2="105" y1="75" x2="-116.913" x1="-116.913" style="fill:none;" /><ns0:line y2="105" y1="75" x2="-64.953" x1="-64.953" style="fill:none;" /><ns0:line y2="102.9793" y1="77.0207" x2="-68.453" x1="-68.453" style="fill:none;" /><ns0:line y2="120" y1="105" x2="-90.933" x1="-116.913" style="fill:none;" /><ns0:line y2="115.9585" y1="102.9793" x2="-90.9329" x1="-113.413" style="fill:none;" /><ns0:line y2="120" y1="105" x2="-90.933" x1="-64.953" style="fill:none;" /><ns0:line y2="30" y1="15" x2="-142.893" x1="-116.913" style="fill:none;" /><ns0:line y2="25.9585" y1="12.9793" x2="-142.8931" x1="-120.413" style="fill:none;" /><ns0:line y2="-15" y1="15" x2="-116.913" x1="-116.913" style="fill:none;" /><ns0:line y2="15" y1="30" x2="-168.876" x1="-142.893" style="fill:none;" /><ns0:line y2="-30" y1="-15" x2="-142.893" x1="-116.913" style="fill:none;" /><ns0:line y2="-25.9585" y1="-12.9793" x2="-142.8931" x1="-120.413" style="fill:none;" /><ns0:line y2="-15" y1="15" x2="-168.876" x1="-168.876" style="fill:none;" /><ns0:line y2="-12.9793" y1="12.9793" x2="-165.376" x1="-165.376" style="fill:none;" /><ns0:line y2="-15" y1="-30" x2="-168.876" x1="-142.893" style="fill:none;" /></ns0:g><ns0:g transform="translate(172,124)" style="fill:rgb(0,5,255); text-rendering:geometricPrecision; color-rendering:optimizeQuality; image-rendering:optimizeQuality; font-family:'Open Sans'; stroke:rgb(0,5,255); color-interpolation:linearRGB;"><ns0:path style="stroke:none;" d="M68.3046 -25.8438 L67.1639 -25.8438 L62.4764 -33.0312 L62.4296 -33.0312 Q62.5233 -31.7656 62.5233 -30.7188 L62.5233 -25.8438 L61.6014 -25.8438 L61.6014 -34.4062 L62.7264 -34.4062 L67.3983 -27.25 L67.4452 -27.25 Q67.4452 -27.4062 67.3983 -28.2656 Q67.3514 -29.125 67.3671 -29.5 L67.3671 -34.4062 L68.3046 -34.4062 L68.3046 -25.8438 Z" /></ns0:g><ns0:g transform="translate(172,124)" style="stroke-linecap:butt; text-rendering:geometricPrecision; color-rendering:optimizeQuality; image-rendering:optimizeQuality; font-family:'Open Sans'; color-interpolation:linearRGB; stroke-miterlimit:5;"><ns0:path style="fill:none;" d="M64.953 -59.5 L64.953 -60 L64.52 -60.25" /><ns0:path style="fill:none;" d="M90.5 -15.25 L90.933 -15 L91.366 -15.25" /><ns0:path style="fill:none;" d="M-39.403 29.75 L-38.97 30 L-38.537 29.75" /><ns0:path style="fill:rgb(0,5,255); stroke:none;" d="M-61.6014 19.1562 L-62.7421 19.1562 L-67.4296 11.9688 L-67.4764 11.9688 Q-67.3827 13.2344 -67.3827 14.2812 L-67.3827 19.1562 L-68.3046 19.1562 L-68.3046 10.5938 L-67.1796 10.5938 L-62.5077 17.75 L-62.4608 17.75 Q-62.4608 17.5938 -62.5077 16.7344 Q-62.5546 15.875 -62.5389 15.5 L-62.5389 10.5938 L-61.6014 10.5938 L-61.6014 19.1562 Z" /><ns0:path style="fill:rgb(0,5,255); stroke:none;" d="M-87.5814 34.1562 L-88.7221 34.1562 L-93.4096 26.9688 L-93.4564 26.9688 Q-93.3627 28.2344 -93.3627 29.2812 L-93.3627 34.1562 L-94.2846 34.1562 L-94.2846 25.5938 L-93.1596 25.5938 L-88.4877 32.75 L-88.4408 32.75 Q-88.4408 32.5938 -88.4877 31.7344 Q-88.5346 30.875 -88.5189 30.5 L-88.5189 25.5938 L-87.5814 25.5938 L-87.5814 34.1562 Z" /><ns0:path style="fill:none;" d="M38.97 -14.5 L38.97 -15 L39.403 -15.25" /><ns0:path style="fill:none;" d="M38.97 14.5 L38.97 15 L38.537 15.25" /><ns0:path style="fill:none;" d="M13.423 -29.75 L12.99 -30 L12.557 -29.75" /><ns0:path style="fill:none;" d="M12.557 29.75 L12.99 30 L13.423 29.75" /><ns0:path style="fill:none;" d="M-12.557 -15.25 L-12.99 -15 L-12.99 -14.5" /><ns0:path style="fill:none;" d="M-12.557 15.25 L-12.99 15 L-13.423 15.25" /><ns0:path style="fill:none;" d="M38.537 -74.75 L38.97 -75 L38.97 -75.5" /><ns0:path style="fill:none;" d="M13.423 -60.25 L12.99 -60 L12.557 -60.25" /><ns0:path style="fill:none;" d="M38.97 -104.5 L38.97 -105 L38.537 -105.25" /><ns0:path style="fill:none;" d="M-12.557 -74.75 L-12.99 -75 L-12.99 -75.5" /><ns0:path style="fill:none;" d="M13.423 -119.75 L12.99 -120 L12.557 -119.75" /><ns0:path style="fill:none;" d="M-12.99 -104.5 L-12.99 -105 L-12.557 -105.25" /><ns0:path style="fill:none;" d="M116.913 -30.5 L116.913 -30 L116.48 -29.75" /><ns0:path style="fill:none;" d="M116.913 -59.5 L116.913 -60 L117.346 -60.25" /><ns0:path style="fill:none;" d="M142.46 -15.25 L142.893 -15 L143.326 -15.25" /><ns0:path style="fill:none;" d="M142.46 -74.75 L142.893 -75 L143.326 -74.75" /><ns0:path style="fill:none;" d="M168.443 -29.75 L168.876 -30 L168.876 -30.5" /><ns0:path style="fill:none;" d="M168.443 -60.25 L168.876 -60 L168.876 -59.5" /><ns0:path style="fill:none;" d="M-91.366 60.25 L-90.933 60 L-90.933 59.5" /><ns0:path style="fill:none;" d="M-116.48 74.75 L-116.913 75 L-116.913 75.5" /><ns0:path style="fill:none;" d="M-65.386 74.75 L-64.953 75 L-64.953 75.5" /><ns0:path style="fill:none;" d="M-116.913 104.5 L-116.913 105 L-116.48 105.25" /><ns0:path style="fill:none;" d="M-64.953 104.5 L-64.953 105 L-65.386 105.25" /><ns0:path style="fill:none;" d="M-91.366 119.75 L-90.933 120 L-90.5 119.75" /><ns0:path style="fill:none;" d="M-117.346 15.25 L-116.913 15 L-116.913 14.5" /><ns0:path style="fill:none;" d="M-142.46 29.75 L-142.893 30 L-143.326 29.75" /><ns0:path style="fill:none;" d="M-116.913 -14.5 L-116.913 -15 L-117.346 -15.25" /><ns0:path style="fill:none;" d="M-168.443 15.25 L-168.876 15 L-168.876 14.5" /><ns0:path style="fill:none;" d="M-142.46 -29.75 L-142.893 -30 L-143.326 -29.75" /><ns0:path style="fill:none;" d="M-168.876 -14.5 L-168.876 -15 L-168.443 -15.25" /></ns0:g></ns0:g></ns0:svg></ns0:svg></ns0:svg></ns0:svg></g></svg>