<svg width="167" viewBox="0 0 167 92" style="fill-opacity:1; color-rendering:auto; color-interpolation:auto; text-rendering:auto; stroke:black; stroke-linecap:square; stroke-miterlimit:10; shape-rendering:auto; stroke-opacity:1; fill:black; stroke-dasharray:none; font-weight:normal; stroke-width:1; font-family:'Open Sans'; font-style:normal; stroke-linejoin:miter; font-size:12; stroke-dashoffset:0; image-rendering:auto;" height="92" class="cas-substance-image" xmlns:xlink="http://www.w3.org/1999/xlink" xmlns="http://www.w3.org/2000/svg"><svg class="cas-substance-single-component"><rect y="0" x="0" width="167" stroke="none" ry="7" rx="7" height="92" fill="white" class="cas-substance-group"/><svg y="0" x="0" width="167" viewBox="0 0 167 92" style="fill:black;" height="92" class="cas-substance-single-component-image"><svg><g><g transform="translate(84,46)" style="text-rendering:geometricPrecision; color-rendering:optimizeQuality; color-interpolation:linearRGB; stroke-linecap:butt; image-rendering:optimizeQuality;"><line y2="14.187" y1="42.717" x2="27.417" x1="18.144" style="fill:none;"/><line y2="-25.083" y1="-42.717" x2="55.947" x1="80.217" style="fill:none;"/><line y2="-28.5817" y1="-16.1073" x2="23.222" x1="14.1596" style="fill:none;"/><line y2="14.187" y1="-4.3087" x2="27.417" x1="13.9784" style="fill:none;"/><line y2="-10.083" y1="-10.083" x2="-20.217" x1="4.4314" style="fill:none;"/><line y2="-25.083" y1="-32.6484" x2="55.947" x1="32.6706" style="fill:none;"/><line y2="-22.379" y1="-29.3198" x2="52.9434" x1="31.5887" style="fill:none;"/><line y2="4.917" y1="14.187" x2="55.947" x1="27.417" style="fill:none;"/><line y2="2.2127" y1="10.2339" x2="52.9436" x1="28.2573" style="fill:none;"/><line y2="4.917" y1="-25.083" x2="55.947" x1="55.947" style="fill:none;"/><line y2="-36.066" y1="-10.083" x2="-35.217" x1="-20.217" style="fill:none;"/><line y2="-32.5661" y1="-10.0832" x2="-37.2379" x1="-24.2585" style="fill:none;"/><line y2="15.897" y1="-10.083" x2="-35.217" x1="-20.217" style="fill:none;"/><line y2="-36.066" y1="-36.066" x2="-65.217" x1="-35.217" style="fill:none;"/><line y2="15.897" y1="15.897" x2="-65.217" x1="-35.217" style="fill:none;"/><line y2="12.397" y1="12.397" x2="-63.1963" x1="-37.2377" style="fill:none;"/><line y2="-10.083" y1="-36.066" x2="-80.217" x1="-65.217" style="fill:none;"/><line y2="-10.0832" y1="-32.5661" x2="-76.1755" x1="-63.1961" style="fill:none;"/><line y2="-10.083" y1="15.897" x2="-80.217" x1="-65.217" style="fill:none;"/></g><g transform="translate(84,46)" style="fill:rgb(0,5,255); text-rendering:geometricPrecision; color-rendering:optimizeQuality; image-rendering:optimizeQuality; font-family:'Open Sans'; stroke:rgb(0,5,255); color-interpolation:linearRGB;"><path style="stroke:none;" d="M13.1346 -5.9268 L11.9939 -5.9268 L7.3064 -13.1143 L7.2596 -13.1143 Q7.3533 -11.8486 7.3533 -10.8018 L7.3533 -5.9268 L6.4314 -5.9268 L6.4314 -14.4893 L7.5564 -14.4893 L12.2283 -7.333 L12.2752 -7.333 Q12.2752 -7.4893 12.2283 -8.3486 Q12.1814 -9.208 12.1971 -9.583 L12.1971 -14.4893 L13.1346 -14.4893 L13.1346 -5.9268 Z"/><path style="stroke:none;" d="M30.7686 -30.1997 L29.6279 -30.1997 L24.9404 -37.3872 L24.8936 -37.3872 Q24.9873 -36.1216 24.9873 -35.0747 L24.9873 -30.1997 L24.0654 -30.1997 L24.0654 -38.7622 L25.1904 -38.7622 L29.8623 -31.606 L29.9092 -31.606 Q29.9092 -31.7622 29.8623 -32.6216 Q29.8154 -33.481 29.8311 -33.856 L29.8311 -38.7622 L30.7686 -38.7622 L30.7686 -30.1997 Z"/></g><g transform="translate(84,46)" style="stroke-linecap:butt; text-rendering:geometricPrecision; color-rendering:optimizeQuality; image-rendering:optimizeQuality; font-family:'Open Sans'; color-interpolation:linearRGB; stroke-miterlimit:5;"><path style="fill:none;" d="M27.8925 14.0325 L27.417 14.187 L27.1231 13.7825"/><path style="fill:none;" d="M55.4715 -25.2376 L55.947 -25.083 L55.947 -24.583"/><path style="fill:none;" d="M55.4715 5.0715 L55.947 4.917 L55.947 4.417"/><path style="fill:none;" d="M-20.467 -10.516 L-20.217 -10.083 L-19.717 -10.083"/><path style="fill:none;" d="M-34.967 -35.633 L-35.217 -36.066 L-35.717 -36.066"/><path style="fill:none;" d="M-34.967 15.464 L-35.217 15.897 L-35.717 15.897"/><path style="fill:none;" d="M-64.717 -36.066 L-65.217 -36.066 L-65.467 -35.633"/><path style="fill:none;" d="M-64.717 15.897 L-65.217 15.897 L-65.467 15.464"/><path style="fill:none;" d="M-79.967 -10.516 L-80.217 -10.083 L-79.967 -9.65"/></g></g></svg></svg></svg></svg>