<svg width="500" viewBox="0 0 500 224" style="fill-opacity:1; color-rendering:auto; color-interpolation:auto; text-rendering:auto; stroke:black; stroke-linecap:square; stroke-miterlimit:10; shape-rendering:auto; stroke-opacity:1; fill:black; stroke-dasharray:none; font-weight:normal; stroke-width:1; font-family:'Open Sans'; font-style:normal; stroke-linejoin:miter; font-size:12; stroke-dashoffset:0; image-rendering:auto;" height="224" class="cas-substance-image" xmlns:xlink="http://www.w3.org/1999/xlink" xmlns="http://www.w3.org/2000/svg"><svg class="cas-substance-single-component"><rect y="0" x="0" width="500" stroke="none" ry="7" rx="7" height="224" fill="white" class="cas-substance-group"/><svg y="0" x="0" width="500" viewBox="0 0 500 224" style="fill:black;" height="224" class="cas-substance-single-component-image"><svg><g><g transform="translate(254,112)" style="text-rendering:geometricPrecision; color-rendering:optimizeQuality; color-interpolation:linearRGB; stroke-linecap:butt; image-rendering:optimizeQuality;"><line y2="-5.0079" y1="-25.269" x2="34.0413" x1="45.738" style="fill:none;"/><line y2="-6.7578" y1="-25.2688" x2="31.0101" x1="41.6965" style="fill:none;"/><line y2="-51.249" y1="-25.269" x2="30.738" x1="45.738" style="fill:none;"/><line y2="-77.229" y1="-97.5733" x2="15.738" x1="3.9919" style="fill:none;"/><line y2="-77.229" y1="-98.517" x2="105.738" x1="96.2614" style="fill:none;"/><line y2="-51.249" y1="-51.249" x2="-29.262" x1="-53.3245" style="fill:none;"/><line y2="-25.269" y1="-45.601" x2="-74.262" x1="-62.523" style="fill:none;"/><line y2="-51.249" y1="-26.979" x2="120.738" x1="138.372" style="fill:none;"/><line y2="-25.269" y1="-45.6133" x2="-104.262" x1="-116.0081" style="fill:none;"/><line y2="0.714" y1="0.714" x2="-119.262" x1="-143.3245" style="fill:none;"/><line y2="26.694" y1="52.674" x2="-74.262" x1="-59.262" style="fill:none;"/><line y2="26.694" y1="46.9523" x2="-104.262" x1="-115.9585" style="fill:none;"/><line y2="52.674" y1="52.674" x2="-149.262" x1="-125.1995" style="fill:none;"/><line y2="0.7595" y1="17.2356" x2="217.3861" x1="235.6869" style="fill:none;"/><line y2="3.3605" y1="19.8368" x2="215.0441" x1="233.3451" style="fill:none;"/><line y2="78.654" y1="98.9092" x2="-164.262" x1="-152.5687" style="fill:none;"/><line y2="0.714" y1="0.714" x2="-233.3245" x1="-209.262" style="fill:none;"/><line y2="26.694" y1="0.714" x2="-194.262" x1="-209.262" style="fill:none;"/><line y2="78.654" y1="98.9151" x2="-194.262" x1="-205.9587" style="fill:none;"/><line y2="52.674" y1="52.674" x2="-209.262" x1="-233.3245" style="fill:none;"/><line y2="-51.249" y1="-51.249" x2="60.738" x1="30.738" style="fill:none;"/><line y2="-77.229" y1="-51.249" x2="15.738" x1="30.738" style="fill:none;"/><line y2="-25.269" y1="-51.249" x2="15.738" x1="30.738" style="fill:none;"/><line y2="-77.229" y1="-51.249" x2="75.738" x1="60.738" style="fill:none;"/><line y2="-25.269" y1="-51.249" x2="75.738" x1="60.738" style="fill:none;"/><line y2="-77.229" y1="-77.229" x2="-14.262" x1="15.738" style="fill:none;"/><line y2="-103.209" y1="-77.229" x2="30.738" x1="15.738" style="fill:none;"/><line y2="-25.269" y1="-25.269" x2="-14.262" x1="15.738" style="fill:none;"/><line y2="-77.229" y1="-77.229" x2="105.738" x1="75.738" style="fill:none;"/><line y2="-103.209" y1="-77.229" x2="60.738" x1="75.738" style="fill:none;"/><line y2="-25.269" y1="-25.269" x2="105.738" x1="75.738" style="fill:none;"/><line y2="-51.249" y1="-77.229" x2="-29.262" x1="-14.262" style="fill:none;"/><line y2="-103.209" y1="-103.209" x2="60.738" x1="30.738" style="fill:none;"/><line y2="-51.249" y1="-25.269" x2="-29.262" x1="-14.262" style="fill:none;"/><line y2="-51.249" y1="-77.229" x2="120.738" x1="105.738" style="fill:none;"/><line y2="-99.525" y1="-77.229" x2="125.814" x1="105.738" style="fill:none;"/><line y2="-51.249" y1="-25.269" x2="120.738" x1="105.738" style="fill:none;"/><line y2="-57.486" y1="-51.249" x2="150.084" x1="120.738" style="fill:none;"/><line y2="-87.321" y1="-99.525" x2="153.219" x1="125.814" style="fill:none;"/><line y2="-87.321" y1="-57.486" x2="153.219" x1="150.084" style="fill:none;"/><line y2="-37.413" y1="-57.486" x2="172.377" x1="150.084" style="fill:none;"/><line y2="-25.269" y1="-25.269" x2="-104.262" x1="-74.262" style="fill:none;"/><line y2="-5.0138" y1="-25.269" x2="-62.5687" x1="-74.262" style="fill:none;"/><line y2="0.714" y1="-25.269" x2="-119.262" x1="-104.262" style="fill:none;"/><line y2="26.694" y1="6.362" x2="-74.262" x1="-62.523" style="fill:none;"/><line y2="26.694" y1="0.714" x2="-104.262" x1="-119.262" style="fill:none;"/><line y2="26.694" y1="26.694" x2="-104.262" x1="-74.262" style="fill:none;"/><line y2="-8.067" y1="-37.413" x2="166.14" x1="172.377" style="fill:none;"/><line y2="-46.683" y1="-37.413" x2="200.91" x1="172.377" style="fill:none;"/><line y2="-42.7299" y1="-34.7086" x2="200.0696" x1="175.3803" style="fill:none;"/><line y2="12.006" y1="-8.067" x2="188.436" x1="166.14" style="fill:none;"/><line y2="8.0528" y1="-9.3161" x2="189.276" x1="169.9836" style="fill:none;"/><line y2="-30.8831" y1="-46.683" x2="218.4573" x1="200.91" style="fill:none;"/><line y2="2.736" y1="12.006" x2="216.966" x1="188.436" style="fill:none;"/><line y2="2.736" y1="-20.3021" x2="216.966" x1="221.8624" style="fill:none;"/><line y2="32.3297" y1="52.674" x2="-161.0081" x1="-149.262" style="fill:none;"/><line y2="78.654" y1="52.674" x2="-164.262" x1="-149.262" style="fill:none;"/><line y2="26.694" y1="26.694" x2="-194.262" x1="-170.1995" style="fill:none;"/><line y2="78.654" y1="78.654" x2="-194.262" x1="-164.262" style="fill:none;"/><line y2="52.674" y1="26.694" x2="-209.262" x1="-194.262" style="fill:none;"/><line y2="52.674" y1="78.654" x2="-209.262" x1="-194.262" style="fill:none;"/><path style="fill:none; stroke-miterlimit:5;" d="M45.488 -24.836 L45.738 -25.269 L45.488 -25.702"/></g><g transform="translate(252.4844,111.1251)" style="stroke-linecap:butt; fill:rgb(230,0,0); text-rendering:geometricPrecision; color-rendering:optimizeQuality; image-rendering:optimizeQuality; font-family:'Open Sans'; stroke:rgb(230,0,0); color-interpolation:linearRGB; stroke-miterlimit:5;"><path style="stroke:none;" d="M34.6755 0.6437 Q34.6755 2.7062 33.6364 3.8859 Q32.5974 5.0656 30.7536 5.0656 Q28.863 5.0656 27.8318 3.9015 Q26.8005 2.7374 26.8005 0.6281 Q26.8005 -1.4657 27.8318 -2.6141 Q28.863 -3.7626 30.7536 -3.7626 Q32.613 -3.7626 33.6442 -2.5907 Q34.6755 -1.4188 34.6755 0.6437 ZM27.8474 0.6437 Q27.8474 2.3781 28.5896 3.2843 Q29.3318 4.1906 30.7536 4.1906 Q32.1755 4.1906 32.9021 3.2921 Q33.6286 2.3937 33.6286 0.6437 Q33.6286 -1.0907 32.9021 -1.9813 Q32.1755 -2.8719 30.7536 -2.8719 Q29.3318 -2.8719 28.5896 -1.9735 Q27.8474 -1.0751 27.8474 0.6437 Z"/></g><g transform="matrix(1,0,0,1,254,112)" style="stroke-linecap:butt; fill:rgb(230,0,0); text-rendering:geometricPrecision; color-rendering:optimizeQuality; image-rendering:optimizeQuality; font-family:'Open Sans'; stroke:rgb(230,0,0); color-interpolation:linearRGB; stroke-miterlimit:5;"><path style="stroke:none;" d="M4.6755 -103.2793 Q4.6755 -101.2168 3.6364 -100.0371 Q2.5974 -98.8574 0.7536 -98.8574 Q-1.137 -98.8574 -2.1683 -100.0215 Q-3.1995 -101.1856 -3.1995 -103.2949 Q-3.1995 -105.3887 -2.1683 -106.5371 Q-1.137 -107.6856 0.7536 -107.6856 Q2.613 -107.6856 3.6442 -106.5137 Q4.6755 -105.3418 4.6755 -103.2793 ZM-2.1526 -103.2793 Q-2.1526 -101.5449 -1.4104 -100.6387 Q-0.6683 -99.7324 0.7536 -99.7324 Q2.1755 -99.7324 2.9021 -100.6309 Q3.6286 -101.5293 3.6286 -103.2793 Q3.6286 -105.0137 2.9021 -105.9043 Q2.1755 -106.7949 0.7536 -106.7949 Q-0.6683 -106.7949 -1.4104 -105.8965 Q-2.1526 -104.9981 -2.1526 -103.2793 Z"/><path style="stroke:none;" d="M-4.1995 -98.9824 L-5.1995 -98.9824 L-5.1995 -103.0137 L-9.7151 -103.0137 L-9.7151 -98.9824 L-10.7151 -98.9824 L-10.7151 -107.5449 L-9.7151 -107.5449 L-9.7151 -103.9043 L-5.1995 -103.9043 L-5.1995 -107.5449 L-4.1995 -107.5449 L-4.1995 -98.9824 Z"/><path style="stroke:none;" d="M97.4745 -104.7073 Q97.4745 -102.6448 96.4354 -101.4651 Q95.3964 -100.2854 93.5526 -100.2854 Q91.662 -100.2854 90.6307 -101.4495 Q89.5995 -102.6136 89.5995 -104.7229 Q89.5995 -106.8167 90.6307 -107.9651 Q91.662 -109.1136 93.5526 -109.1136 Q95.412 -109.1136 96.4432 -107.9417 Q97.4745 -106.7698 97.4745 -104.7073 ZM90.6464 -104.7073 Q90.6464 -102.9729 91.3886 -102.0667 Q92.1307 -101.1604 93.5526 -101.1604 Q94.9745 -101.1604 95.7011 -102.0589 Q96.4276 -102.9573 96.4276 -104.7073 Q96.4276 -106.4417 95.7011 -107.3323 Q94.9745 -108.2229 93.5526 -108.2229 Q92.1307 -108.2229 91.3886 -107.3245 Q90.6464 -106.4261 90.6464 -104.7073 Z"/><path style="stroke:none;" d="M88.5995 -100.4104 L87.5995 -100.4104 L87.5995 -104.4417 L83.0839 -104.4417 L83.0839 -100.4104 L82.0839 -100.4104 L82.0839 -108.9729 L83.0839 -108.9729 L83.0839 -105.3323 L87.5995 -105.3323 L87.5995 -108.9729 L88.5995 -108.9729 L88.5995 -100.4104 Z"/><path style="stroke:none;" d="M-55.3245 -51.3193 Q-55.3245 -49.2568 -56.3636 -48.0771 Q-57.4026 -46.8974 -59.2464 -46.8974 Q-61.137 -46.8974 -62.1683 -48.0615 Q-63.1995 -49.2256 -63.1995 -51.3349 Q-63.1995 -53.4287 -62.1683 -54.5771 Q-61.137 -55.7256 -59.2464 -55.7256 Q-57.387 -55.7256 -56.3558 -54.5537 Q-55.3245 -53.3818 -55.3245 -51.3193 ZM-62.1526 -51.3193 Q-62.1526 -49.5849 -61.4104 -48.6787 Q-60.6683 -47.7724 -59.2464 -47.7724 Q-57.8245 -47.7724 -57.0979 -48.6709 Q-56.3714 -49.5693 -56.3714 -51.3193 Q-56.3714 -53.0537 -57.0979 -53.9443 Q-57.8245 -54.8349 -59.2464 -54.8349 Q-60.6683 -54.8349 -61.4104 -53.9365 Q-62.1526 -53.0381 -62.1526 -51.3193 Z"/><path style="stroke:none;" d="M-115.3245 -51.3193 Q-115.3245 -49.2568 -116.3636 -48.0771 Q-117.4026 -46.8974 -119.2464 -46.8974 Q-121.137 -46.8974 -122.1683 -48.0615 Q-123.1995 -49.2256 -123.1995 -51.3349 Q-123.1995 -53.4287 -122.1683 -54.5771 Q-121.137 -55.7256 -119.2464 -55.7256 Q-117.387 -55.7256 -116.3558 -54.5537 Q-115.3245 -53.3818 -115.3245 -51.3193 ZM-122.1526 -51.3193 Q-122.1526 -49.5849 -121.4104 -48.6787 Q-120.6683 -47.7724 -119.2464 -47.7724 Q-117.8245 -47.7724 -117.0979 -48.6709 Q-116.3714 -49.5693 -116.3714 -51.3193 Q-116.3714 -53.0537 -117.0979 -53.9443 Q-117.8245 -54.8349 -119.2464 -54.8349 Q-120.6683 -54.8349 -121.4104 -53.9365 Q-122.1526 -53.0381 -122.1526 -51.3193 Z"/><path style="stroke:none;" d="M-124.1995 -47.0224 L-125.1995 -47.0224 L-125.1995 -51.0537 L-129.7151 -51.0537 L-129.7151 -47.0224 L-130.7151 -47.0224 L-130.7151 -55.5849 L-129.7151 -55.5849 L-129.7151 -51.9443 L-125.1995 -51.9443 L-125.1995 -55.5849 L-124.1995 -55.5849 L-124.1995 -47.0224 Z"/><path style="stroke:none;" d="M-145.3245 0.6437 Q-145.3245 2.7062 -146.3636 3.8859 Q-147.4026 5.0656 -149.2464 5.0656 Q-151.137 5.0656 -152.1682 3.9015 Q-153.1995 2.7374 -153.1995 0.6281 Q-153.1995 -1.4657 -152.1682 -2.6141 Q-151.137 -3.7626 -149.2464 -3.7626 Q-147.387 -3.7626 -146.3557 -2.5907 Q-145.3245 -1.4188 -145.3245 0.6437 ZM-152.1526 0.6437 Q-152.1526 2.3781 -151.4104 3.2843 Q-150.6682 4.1906 -149.2464 4.1906 Q-147.8245 4.1906 -147.0979 3.2921 Q-146.3714 2.3937 -146.3714 0.6437 Q-146.3714 -1.0907 -147.0979 -1.9813 Q-147.8245 -2.8719 -149.2464 -2.8719 Q-150.6682 -2.8719 -151.4104 -1.9735 Q-152.1526 -1.0751 -152.1526 0.6437 Z"/><path style="stroke:none;" d="M-154.1995 4.9406 L-155.1995 4.9406 L-155.1995 0.9093 L-159.7151 0.9093 L-159.7151 4.9406 L-160.7151 4.9406 L-160.7151 -3.6219 L-159.7151 -3.6219 L-159.7151 0.0187 L-155.1995 0.0187 L-155.1995 -3.6219 L-154.1995 -3.6219 L-154.1995 4.9406 Z"/><path style="stroke:none;" d="M-115.3245 52.6037 Q-115.3245 54.6662 -116.3636 55.8459 Q-117.4026 57.0256 -119.2464 57.0256 Q-121.137 57.0256 -122.1683 55.8615 Q-123.1995 54.6974 -123.1995 52.5881 Q-123.1995 50.4943 -122.1683 49.3459 Q-121.137 48.1974 -119.2464 48.1974 Q-117.387 48.1974 -116.3558 49.3693 Q-115.3245 50.5412 -115.3245 52.6037 ZM-122.1526 52.6037 Q-122.1526 54.3381 -121.4104 55.2443 Q-120.6683 56.1506 -119.2464 56.1506 Q-117.8245 56.1506 -117.0979 55.2521 Q-116.3714 54.3537 -116.3714 52.6037 Q-116.3714 50.8693 -117.0979 49.9787 Q-117.8245 49.0881 -119.2464 49.0881 Q-120.6683 49.0881 -121.4104 49.9865 Q-122.1526 50.8849 -122.1526 52.6037 Z"/><path style="stroke:none;" d="M243.1995 22.7387 Q243.1995 24.8012 242.1604 25.9809 Q241.1214 27.1606 239.2776 27.1606 Q237.387 27.1606 236.3557 25.9965 Q235.3245 24.8324 235.3245 22.7231 Q235.3245 20.6293 236.3557 19.4809 Q237.387 18.3324 239.2776 18.3324 Q241.137 18.3324 242.1682 19.5043 Q243.1995 20.6762 243.1995 22.7387 ZM236.3714 22.7387 Q236.3714 24.4731 237.1136 25.3793 Q237.8557 26.2856 239.2776 26.2856 Q240.6995 26.2856 241.4261 25.3871 Q242.1526 24.4887 242.1526 22.7387 Q242.1526 21.0043 241.4261 20.1137 Q240.6995 19.2231 239.2776 19.2231 Q237.8557 19.2231 237.1136 20.1215 Q236.3714 21.0199 236.3714 22.7387 Z"/><path style="stroke:none;" d="M-145.3245 104.5667 Q-145.3245 106.6292 -146.3636 107.8089 Q-147.4026 108.9886 -149.2464 108.9886 Q-151.137 108.9886 -152.1682 107.8245 Q-153.1995 106.6604 -153.1995 104.5511 Q-153.1995 102.4573 -152.1682 101.3089 Q-151.137 100.1604 -149.2464 100.1604 Q-147.387 100.1604 -146.3557 101.3323 Q-145.3245 102.5042 -145.3245 104.5667 ZM-152.1526 104.5667 Q-152.1526 106.3011 -151.4104 107.2073 Q-150.6682 108.1136 -149.2464 108.1136 Q-147.8245 108.1136 -147.0979 107.2151 Q-146.3714 106.3167 -146.3714 104.5667 Q-146.3714 102.8323 -147.0979 101.9417 Q-147.8245 101.0511 -149.2464 101.0511 Q-150.6682 101.0511 -151.4104 101.9495 Q-152.1526 102.8479 -152.1526 104.5667 Z"/><path style="stroke:none;" d="M-137.8089 108.8636 L-138.8089 108.8636 L-138.8089 104.8323 L-143.3245 104.8323 L-143.3245 108.8636 L-144.3245 108.8636 L-144.3245 100.3011 L-143.3245 100.3011 L-143.3245 103.9417 L-138.8089 103.9417 L-138.8089 100.3011 L-137.8089 100.3011 L-137.8089 108.8636 Z"/><path style="fill:none; stroke:black;" d="M-209.762 0.714 L-209.262 0.714 L-209.012 1.147"/><path style="stroke:none;" d="M-235.3245 0.6437 Q-235.3245 2.7062 -236.3636 3.8859 Q-237.4026 5.0656 -239.2464 5.0656 Q-241.137 5.0656 -242.1682 3.9015 Q-243.1995 2.7374 -243.1995 0.6281 Q-243.1995 -1.4657 -242.1682 -2.6141 Q-241.137 -3.7626 -239.2464 -3.7626 Q-237.387 -3.7626 -236.3557 -2.5907 Q-235.3245 -1.4188 -235.3245 0.6437 ZM-242.1526 0.6437 Q-242.1526 2.3781 -241.4104 3.2843 Q-240.6682 4.1906 -239.2464 4.1906 Q-237.8245 4.1906 -237.0979 3.2921 Q-236.3714 2.3937 -236.3714 0.6437 Q-236.3714 -1.0907 -237.0979 -1.9813 Q-237.8245 -2.8719 -239.2464 -2.8719 Q-240.6682 -2.8719 -241.4104 -1.9735 Q-242.1526 -1.0751 -242.1526 0.6437 Z"/><path style="stroke:none;" d="M-244.1995 4.9406 L-245.1995 4.9406 L-245.1995 0.9093 L-249.7151 0.9093 L-249.7151 4.9406 L-250.7151 4.9406 L-250.7151 -3.6219 L-249.7151 -3.6219 L-249.7151 0.0187 L-245.1995 0.0187 L-245.1995 -3.6219 L-244.1995 -3.6219 L-244.1995 4.9406 Z"/><path style="stroke:none;" d="M-205.3245 104.5667 Q-205.3245 106.6292 -206.3636 107.8089 Q-207.4026 108.9886 -209.2464 108.9886 Q-211.137 108.9886 -212.1682 107.8245 Q-213.1995 106.6604 -213.1995 104.5511 Q-213.1995 102.4573 -212.1682 101.3089 Q-211.137 100.1604 -209.2464 100.1604 Q-207.387 100.1604 -206.3557 101.3323 Q-205.3245 102.5042 -205.3245 104.5667 ZM-212.1526 104.5667 Q-212.1526 106.3011 -211.4104 107.2073 Q-210.6682 108.1136 -209.2464 108.1136 Q-207.8245 108.1136 -207.0979 107.2151 Q-206.3714 106.3167 -206.3714 104.5667 Q-206.3714 102.8323 -207.0979 101.9417 Q-207.8245 101.0511 -209.2464 101.0511 Q-210.6682 101.0511 -211.4104 101.9495 Q-212.1526 102.8479 -212.1526 104.5667 Z"/><path style="stroke:none;" d="M-214.1995 108.8636 L-215.1995 108.8636 L-215.1995 104.8323 L-219.7151 104.8323 L-219.7151 108.8636 L-220.7151 108.8636 L-220.7151 100.3011 L-219.7151 100.3011 L-219.7151 103.9417 L-215.1995 103.9417 L-215.1995 100.3011 L-214.1995 100.3011 L-214.1995 108.8636 Z"/><path style="stroke:none;" d="M-235.3245 52.6037 Q-235.3245 54.6662 -236.3636 55.8459 Q-237.4026 57.0256 -239.2464 57.0256 Q-241.137 57.0256 -242.1682 55.8615 Q-243.1995 54.6974 -243.1995 52.5881 Q-243.1995 50.4943 -242.1682 49.3459 Q-241.137 48.1974 -239.2464 48.1974 Q-237.387 48.1974 -236.3557 49.3693 Q-235.3245 50.5412 -235.3245 52.6037 ZM-242.1526 52.6037 Q-242.1526 54.3381 -241.4104 55.2443 Q-240.6682 56.1506 -239.2464 56.1506 Q-237.8245 56.1506 -237.0979 55.2521 Q-236.3714 54.3537 -236.3714 52.6037 Q-236.3714 50.8693 -237.0979 49.9787 Q-237.8245 49.0881 -239.2464 49.0881 Q-240.6682 49.0881 -241.4104 49.9865 Q-242.1526 50.8849 -242.1526 52.6037 Z"/><path style="stroke:none;" d="M-244.1995 56.9006 L-245.1995 56.9006 L-245.1995 52.8693 L-249.7151 52.8693 L-249.7151 56.9006 L-250.7151 56.9006 L-250.7151 48.3381 L-249.7151 48.3381 L-249.7151 51.9787 L-245.1995 51.9787 L-245.1995 48.3381 L-244.1995 48.3381 L-244.1995 56.9006 Z"/><path style="fill:none; stroke:black;" d="M15.988 -25.702 L15.738 -25.269 L15.238 -25.269"/><path style="fill:none; stroke:black;" d="M75.488 -25.702 L75.738 -25.269 L76.238 -25.269"/><path style="fill:none; stroke:black;" d="M-13.762 -77.229 L-14.262 -77.229 L-14.512 -76.796"/><path style="fill:none; stroke:black;" d="M30.488 -102.776 L30.738 -103.209 L31.238 -103.209"/><path style="fill:none; stroke:black;" d="M-13.762 -25.269 L-14.262 -25.269 L-14.512 -25.702"/><path style="fill:none; stroke:black;" d="M60.988 -102.776 L60.738 -103.209 L60.238 -103.209"/><path style="fill:none; stroke:black;" d="M105.238 -25.269 L105.738 -25.269 L105.988 -25.702"/><path style="fill:none; stroke:black;" d="M125.4794 -99.1534 L125.814 -99.525 L126.2708 -99.3216"/><path style="fill:none; stroke:black;" d="M152.7622 -87.5244 L153.219 -87.321 L153.1667 -86.8237"/><path style="stroke:none;" d="M-55.3245 0.6437 Q-55.3245 2.7062 -56.3636 3.8859 Q-57.4026 5.0656 -59.2464 5.0656 Q-61.137 5.0656 -62.1683 3.9015 Q-63.1995 2.7374 -63.1995 0.6281 Q-63.1995 -1.4657 -62.1683 -2.6141 Q-61.137 -3.7626 -59.2464 -3.7626 Q-57.387 -3.7626 -56.3558 -2.5907 Q-55.3245 -1.4188 -55.3245 0.6437 ZM-62.1526 0.6437 Q-62.1526 2.3781 -61.4104 3.2843 Q-60.6683 4.1906 -59.2464 4.1906 Q-57.8245 4.1906 -57.0979 3.2921 Q-56.3714 2.3937 -56.3714 0.6437 Q-56.3714 -1.0907 -57.0979 -1.9813 Q-57.8245 -2.8719 -59.2464 -2.8719 Q-60.6683 -2.8719 -61.4104 -1.9735 Q-62.1526 -1.0751 -62.1526 0.6437 Z"/><path style="fill:none; stroke:black;" d="M172.8525 -37.5675 L172.377 -37.413 L172.0054 -37.7476"/><path style="fill:none; stroke:black;" d="M166.2439 -8.5561 L166.14 -8.067 L166.5116 -7.7325"/><path style="fill:none; stroke:black;" d="M200.4345 -46.5285 L200.91 -46.683 L201.2816 -46.3484"/><path style="fill:none; stroke:black;" d="M188.0644 11.6715 L188.436 12.006 L188.9115 11.8515"/><path style="stroke:none;" d="M227.1405 -26.6803 Q227.1405 -24.6178 226.1014 -23.4381 Q225.0624 -22.2584 223.2186 -22.2584 Q221.328 -22.2584 220.2968 -23.4225 Q219.2655 -24.5866 219.2655 -26.6959 Q219.2655 -28.7897 220.2968 -29.9381 Q221.328 -31.0866 223.2186 -31.0866 Q225.078 -31.0866 226.1093 -29.9147 Q227.1405 -28.7428 227.1405 -26.6803 ZM220.3124 -26.6803 Q220.3124 -24.9459 221.0546 -24.0397 Q221.7968 -23.1334 223.2186 -23.1334 Q224.6405 -23.1334 225.3671 -24.0319 Q226.0936 -24.9303 226.0936 -26.6803 Q226.0936 -28.4147 225.3671 -29.3053 Q224.6405 -30.1959 223.2186 -30.1959 Q221.7968 -30.1959 221.0546 -29.2975 Q220.3124 -28.3991 220.3124 -26.6803 Z"/><path style="fill:none; stroke:black;" d="M216.4905 2.8905 L216.966 2.736 L217.0699 2.2469"/><path style="stroke:none;" d="M-160.3245 26.6237 Q-160.3245 28.6862 -161.3636 29.8659 Q-162.4026 31.0456 -164.2464 31.0456 Q-166.137 31.0456 -167.1682 29.8815 Q-168.1995 28.7174 -168.1995 26.6081 Q-168.1995 24.5143 -167.1682 23.3659 Q-166.137 22.2174 -164.2464 22.2174 Q-162.387 22.2174 -161.3557 23.3893 Q-160.3245 24.5612 -160.3245 26.6237 ZM-167.1526 26.6237 Q-167.1526 28.3581 -166.4104 29.2643 Q-165.6682 30.1706 -164.2464 30.1706 Q-162.8245 30.1706 -162.0979 29.2721 Q-161.3714 28.3737 -161.3714 26.6237 Q-161.3714 24.8893 -162.0979 23.9987 Q-162.8245 23.1081 -164.2464 23.1081 Q-165.6682 23.1081 -166.4104 24.0065 Q-167.1526 24.9049 -167.1526 26.6237 Z"/></g></g></svg></svg></svg></svg>