<svg width="132" viewBox="0 0 132 93" style="fill-opacity:1; color-rendering:auto; color-interpolation:auto; text-rendering:auto; stroke:black; stroke-linecap:square; stroke-miterlimit:10; shape-rendering:auto; stroke-opacity:1; fill:black; stroke-dasharray:none; font-weight:normal; stroke-width:1; font-family:'Open Sans'; font-style:normal; stroke-linejoin:miter; font-size:12; stroke-dashoffset:0; image-rendering:auto;" height="93" class="cas-substance-image" xmlns:xlink="http://www.w3.org/1999/xlink" xmlns="http://www.w3.org/2000/svg"><svg class="cas-substance-single-component"><rect y="0" x="0" width="132" stroke="none" ry="7" rx="7" height="93" fill="white" class="cas-substance-group"/><svg y="0" x="0" width="132" viewBox="0 0 132 93" style="fill:black;" height="93" class="cas-substance-single-component-image"><svg><g><g transform="translate(63,46)" style="text-rendering:geometricPrecision; color-rendering:optimizeQuality; color-interpolation:linearRGB; stroke-linecap:butt; image-rendering:optimizeQuality;"><line y2="12.99" y1="33.8575" x2="-15" x1="-27.0482" style="fill:none;"/><line y2="-12.99" y1="-12.99" x2="-30" x1="-57.5" style="fill:none;"/><line y2="-12.99" y1="-12.99" x2="30" x1="52.3311" style="fill:none;"/><line y2="-12.99" y1="12.99" x2="-30" x1="-15" style="fill:none;"/><line y2="-12.9901" y1="9.49" x2="-25.9585" x1="-12.9793" style="fill:none;"/><line y2="12.99" y1="12.99" x2="15" x1="-15" style="fill:none;"/><line y2="-33.0817" y1="-12.99" x2="-18.3997" x1="-30" style="fill:none;"/><line y2="-12.99" y1="12.99" x2="30" x1="15" style="fill:none;"/><line y2="-12.9901" y1="9.49" x2="25.9585" x1="12.9793" style="fill:none;"/><line y2="-38.97" y1="-38.97" x2="15" x1="-9.6484" style="fill:none;"/><line y2="-35.47" y1="-35.47" x2="12.9793" x1="-9.6484" style="fill:none;"/><line y2="-38.97" y1="-12.99" x2="15" x1="30" style="fill:none;"/></g><g transform="translate(63,46)" style="fill:rgb(0,138,0); text-rendering:geometricPrecision; color-rendering:optimizeQuality; image-rendering:optimizeQuality; font-family:'Open Sans'; stroke:rgb(0,138,0); color-interpolation:linearRGB;"><path style="stroke:none;" d="M-35.6689 34.5638 L-33.2471 34.5638 Q-31.5439 34.5638 -30.7783 35.0716 Q-30.0127 35.5794 -30.0127 36.6731 Q-30.0127 37.4388 -30.4346 37.9388 Q-30.8564 38.4388 -31.6846 38.5794 L-31.6846 38.6419 Q-29.7314 38.97 -29.7314 40.6888 Q-29.7314 41.8294 -30.5049 42.4778 Q-31.2783 43.1263 -32.6689 43.1263 L-35.6689 43.1263 L-35.6689 34.5638 ZM-34.6689 38.22 L-33.0283 38.22 Q-31.9658 38.22 -31.5049 37.8919 Q-31.0439 37.5638 -31.0439 36.7825 Q-31.0439 36.0638 -31.5596 35.7434 Q-32.0752 35.4231 -33.2002 35.4231 L-34.6689 35.4231 L-34.6689 38.22 ZM-34.6689 39.0638 L-34.6689 42.2825 L-32.8721 42.2825 Q-31.8408 42.2825 -31.3174 41.8763 Q-30.7939 41.47 -30.7939 40.6106 Q-30.7939 39.8138 -31.333 39.4388 Q-31.8721 39.0638 -32.9658 39.0638 L-34.6689 39.0638 ZM-25.0967 36.5794 Q-24.6748 36.5794 -24.3311 36.6575 L-24.4717 37.5638 Q-24.8623 37.47 -25.1748 37.47 Q-25.9561 37.47 -26.5107 38.1028 Q-27.0654 38.7356 -27.0654 39.6731 L-27.0654 43.1263 L-28.0342 43.1263 L-28.0342 36.7044 L-27.2373 36.7044 L-27.1123 37.8919 L-27.0654 37.8919 Q-26.7217 37.2669 -26.2139 36.9231 Q-25.7061 36.5794 -25.0967 36.5794 Z"/><path style="stroke:none;" d="M-60.5 -8.8337 L-60.5 -17.3962 L-59.5 -17.3962 L-59.5 -8.8337 L-60.5 -8.8337 Z"/><path style="stroke:none;" d="M54.3311 -17.3962 L56.7529 -17.3962 Q58.4561 -17.3962 59.2217 -16.8884 Q59.9873 -16.3806 59.9873 -15.2869 Q59.9873 -14.5212 59.5654 -14.0212 Q59.1436 -13.5212 58.3154 -13.3806 L58.3154 -13.3181 Q60.2686 -12.99 60.2686 -11.2712 Q60.2686 -10.1306 59.4951 -9.4822 Q58.7217 -8.8337 57.3311 -8.8337 L54.3311 -8.8337 L54.3311 -17.3962 ZM55.3311 -13.74 L56.9717 -13.74 Q58.0342 -13.74 58.4951 -14.0681 Q58.9561 -14.3962 58.9561 -15.1775 Q58.9561 -15.8962 58.4404 -16.2166 Q57.9248 -16.5369 56.7998 -16.5369 L55.3311 -16.5369 L55.3311 -13.74 ZM55.3311 -12.8962 L55.3311 -9.6775 L57.1279 -9.6775 Q58.1592 -9.6775 58.6826 -10.0837 Q59.2061 -10.49 59.2061 -11.3494 Q59.2061 -12.1462 58.667 -12.5212 Q58.1279 -12.8962 57.0342 -12.8962 L55.3311 -12.8962 ZM64.9033 -15.3806 Q65.3252 -15.3806 65.6689 -15.3025 L65.5283 -14.3962 Q65.1377 -14.49 64.8252 -14.49 Q64.0439 -14.49 63.4893 -13.8572 Q62.9346 -13.2244 62.9346 -12.2869 L62.9346 -8.8337 L61.9658 -8.8337 L61.9658 -15.2556 L62.7627 -15.2556 L62.8877 -14.0681 L62.9346 -14.0681 Q63.2783 -14.6931 63.7861 -15.0369 Q64.2939 -15.3806 64.9033 -15.3806 Z"/></g><g transform="translate(63,46)" style="stroke-linecap:butt; text-rendering:geometricPrecision; color-rendering:optimizeQuality; image-rendering:optimizeQuality; font-family:'Open Sans'; color-interpolation:linearRGB; stroke-miterlimit:5;"><path style="fill:none;" d="M-15.25 12.557 L-15 12.99 L-15.25 13.423"/><path style="fill:none;" d="M-29.75 -12.557 L-30 -12.99 L-30.5 -12.99"/><path style="fill:none;" d="M14.5 12.99 L15 12.99 L15.25 12.557"/><path style="fill:rgb(0,5,255); stroke:none;" d="M-11.6484 -34.8138 L-12.7891 -34.8138 L-17.4766 -42.0013 L-17.5234 -42.0013 Q-17.4297 -40.7356 -17.4297 -39.6888 L-17.4297 -34.8138 L-18.3516 -34.8138 L-18.3516 -43.3763 L-17.2266 -43.3763 L-12.5547 -36.22 L-12.5078 -36.22 Q-12.5078 -36.3763 -12.5547 -37.2356 Q-12.6016 -38.095 -12.5859 -38.47 L-12.5859 -43.3763 L-11.6484 -43.3763 L-11.6484 -34.8138 Z"/><path style="fill:none;" d="M29.75 -12.557 L30 -12.99 L30.5 -12.99"/><path style="fill:none;" d="M14.5 -38.97 L15 -38.97 L15.25 -38.537"/></g></g></svg></svg></svg></svg>