<svg xmlns:ns0="http://www.w3.org/2000/svg" xmlns="http://www.w3.org/2000/svg"><g transform="translate(0, 0)"><ns0:svg width="141" viewBox="0 0 141 40" style="fill-opacity:1; color-rendering:auto; color-interpolation:auto; text-rendering:auto; stroke:black; stroke-linecap:square; stroke-miterlimit:10; shape-rendering:auto; stroke-opacity:1; fill:black; stroke-dasharray:none; font-weight:normal; stroke-width:1; font-family:'Open Sans'; font-style:normal; stroke-linejoin:miter; font-size:12; stroke-dashoffset:0; image-rendering:auto;" height="40" class="cas-substance-image"><ns0:svg class="cas-substance-single-component"><ns0:rect y="0" x="0" width="141" stroke="none" ry="7" rx="7" height="40" fill="white" class="cas-substance-group" /><ns0:svg y="0" x="0" width="141" viewBox="0 0 141 40" style="fill:black;" height="40" class="cas-substance-single-component-image"><ns0:svg><ns0:g><ns0:g transform="translate(70,20)" style="text-rendering:geometricPrecision; color-rendering:optimizeQuality; color-interpolation:linearRGB; stroke-linecap:butt; image-rendering:optimizeQuality;"><ns0:line y2="12.99" y1="-12.99" x2="7.5" x1="-7.5" style="fill:none;" /><ns0:line y2="-12.99" y1="-12.99" x2="-37.5" x1="-7.5" style="fill:none;" /><ns0:line y2="12.99" y1="12.99" x2="37.5" x1="7.5" style="fill:none;" /><ns0:line y2="-12.99" y1="-12.99" x2="-67.5" x1="-37.5" style="fill:none;" /><ns0:line y2="-9.49" y1="-9.49" x2="-67.5" x1="-37.5" style="fill:none;" /><ns0:line y2="-16.49" y1="-16.49" x2="-67.5" x1="-37.5" style="fill:none;" /><ns0:line y2="12.99" y1="12.99" x2="67.5" x1="37.5" style="fill:none;" /><ns0:line y2="9.49" y1="9.49" x2="67.5" x1="37.5" style="fill:none;" /><ns0:line y2="16.49" y1="16.49" x2="67.5" x1="37.5" style="fill:none;" /><ns0:path style="fill:none; stroke-miterlimit:5;" d="M-7.25 -12.557 L-7.5 -12.99 L-8 -12.99" /><ns0:path style="fill:none; stroke-miterlimit:5;" d="M7.25 12.557 L7.5 12.99 L8 12.99" /></ns0:g></ns0:g></ns0:svg></ns0:svg></ns0:svg></ns0:svg></g></svg>