<svg xmlns:ns0="http://www.w3.org/2000/svg" xmlns="http://www.w3.org/2000/svg"><g transform="translate(0, 0)"><ns0:svg width="380" viewBox="0 0 380 216" style="fill-opacity:1; color-rendering:auto; color-interpolation:auto; text-rendering:auto; stroke:black; stroke-linecap:square; stroke-miterlimit:10; shape-rendering:auto; stroke-opacity:1; fill:black; stroke-dasharray:none; font-weight:normal; stroke-width:1; font-family:'Open Sans'; font-style:normal; stroke-linejoin:miter; font-size:12; stroke-dashoffset:0; image-rendering:auto;" height="216" class="cas-substance-image"><ns0:svg class="cas-substance-single-component"><ns0:rect y="0" x="0" width="380" stroke="none" ry="7" rx="7" height="216" fill="white" class="cas-substance-group" /><ns0:svg y="0" x="0" width="380" viewBox="0 0 380 201" style="fill:black;" height="201" class="cas-substance-single-component-image"><ns0:svg><ns0:g><ns0:g transform="translate(190,103)" style="text-rendering:geometricPrecision; color-rendering:optimizeQuality; color-interpolation:linearRGB; stroke-linecap:butt; image-rendering:optimizeQuality;"><ns0:line y2="-8.727" y1="-8.727" x2="-75.3925" x1="-51.33" style="fill:none;" /><ns0:line y2="12.4004" y1="-8.727" x2="-41.1525" x1="-53.3507" style="fill:none;" /><ns0:line y2="10.6504" y1="-9.602" x2="-38.1214" x1="-49.8145" style="fill:none;" /><ns0:path style="stroke:none;" d="M-36.763 -34.957 L-35.897 -34.457 L-47.8659 -8.227 L-54.7941 -8.227 Z" /><ns0:line y2="17.253" y1="-3.079" x2="-96.33" x1="-84.591" style="fill:none;" /><ns0:line y2="17.253" y1="17.253" x2="-126.33" x1="-96.33" style="fill:none;" /><ns0:line y2="37.0947" y1="17.253" x2="-137.7859" x1="-126.33" style="fill:none;" /><ns0:line y2="69.216" y1="49.1213" x2="-126.33" x1="-137.9307" style="fill:none;" /><ns0:line y2="43.233" y1="43.233" x2="-171.33" x1="-146.6816" style="fill:none;" /><ns0:line y2="95.196" y1="69.216" x2="-141.33" x1="-126.33" style="fill:none;" /><ns0:line y2="17.253" y1="43.233" x2="-186.33" x1="-171.33" style="fill:none;" /><ns0:line y2="-34.0289" y1="-12.8872" x2="23.3656" x1="37.0937" style="fill:none;" /><ns0:line y2="-32.1225" y1="-10.9811" x2="20.4304" x1="34.1583" style="fill:none;" /><ns0:line y2="-63.669" y1="-74.6732" x2="80.979" x1="59.3826" style="fill:none;" /><ns0:path style="stroke:none;" d="M46.812 -75.9139 L46.0297 -75.2816 L49.0681 -70.5955 L49.0681 -70.5955 L49.9638 -71.0529 L49.9638 -71.0529 L46.812 -75.9139 ZM44.4649 -74.0171 L43.6825 -73.3848 L43.6825 -73.3848 L46.3809 -69.2233 L46.3809 -69.2233 L47.2766 -69.6807 L47.2766 -69.6807 L44.4649 -74.0171 ZM42.1178 -72.1203 L41.3354 -71.4881 L41.3354 -71.4881 L43.6936 -67.851 L43.6936 -67.851 L44.5894 -68.3084 L44.5894 -68.3084 L42.1178 -72.1203 ZM39.7707 -70.2235 L38.9883 -69.5913 L38.9883 -69.5913 L41.0064 -66.4788 L41.0064 -66.4788 L41.9022 -66.9362 L41.9022 -66.9362 L39.7707 -70.2235 ZM37.4236 -68.3267 L36.6412 -67.6945 L36.6412 -67.6945 L38.3192 -65.1065 L38.3192 -65.1065 L39.2149 -65.564 L37.4236 -68.3267 ZM35.0765 -66.4299 L34.2941 -65.7977 L34.2941 -65.7977 L35.632 -63.7343 L35.632 -63.7343 L36.5277 -64.1917 L36.5277 -64.1917 L35.0765 -66.4299 ZM32.7294 -64.5331 L31.947 -63.9009 L32.9447 -62.3621 L32.9447 -62.3621 L33.8405 -62.8195 L33.8405 -62.8195 L32.7294 -64.5331 ZM30.3822 -62.6363 L29.5999 -62.0041 L29.5999 -62.0041 L30.2575 -60.9898 L30.2575 -60.9898 L31.1533 -61.4472 L31.1533 -61.4472 L30.3822 -62.6363 Z" /><ns0:line y2="-80.01" y1="-63.669" x2="106.14" x1="80.979" style="fill:none;" /><ns0:line y2="-40.0933" y1="-64.5864" x2="80.4613" x1="79.1786" style="fill:none;" /><ns0:line y2="-40.2764" y1="-64.7697" x2="83.9566" x1="82.6738" style="fill:none;" /><ns0:line y2="-66.39" y1="-80.01" x2="132.87" x1="106.14" style="fill:none;" /><ns0:line y2="-62.115" y1="-47.115" x2="-48.531" x1="-74.511" style="fill:none;" /><ns0:line y2="-62.115" y1="-86.385" x2="-48.531" x1="-66.165" style="fill:none;" /><ns0:line y2="-67.188" y1="-44.2075" x2="-0.255" x1="-5.142" style="fill:none;" /><ns0:line y2="-34.707" y1="-37.2833" x2="-36.33" x1="-11.8356" style="fill:none;" /><ns0:line y2="-31.608" y1="-36.7169" x2="22.851" x1="-1.1871" style="fill:none;" /><ns0:line y2="-60.951" y1="-67.188" x2="29.088" x1="-0.255" style="fill:none;" /><ns0:line y2="-79.6321" y1="-67.188" x2="-21.8106" x1="-0.255" style="fill:none;" /><ns0:line y2="-62.115" y1="-34.707" x2="-48.531" x1="-36.33" style="fill:none;" /><ns0:line y2="-60.951" y1="-31.608" x2="29.088" x1="22.851" style="fill:none;" /><ns0:line y2="-62.115" y1="-78.4317" x2="-48.531" x1="-30.4097" style="fill:none;" /><ns0:line y2="-36.432" y1="-66.39" x2="134.439" x1="132.87" style="fill:none;" /><ns0:line y2="-38.633" y1="-64.5551" x2="137.8285" x1="136.4709" style="fill:none;" /><ns0:line y2="-82.728" y1="-66.39" x2="158.028" x1="132.87" style="fill:none;" /><ns0:line y2="-22.812" y1="-36.432" x2="161.169" x1="134.439" style="fill:none;" /><ns0:line y2="-69.108" y1="-82.728" x2="184.758" x1="158.028" style="fill:none;" /><ns0:line y2="-66.9069" y1="-78.6921" x2="181.3685" x1="158.2395" style="fill:none;" /><ns0:line y2="-39.15" y1="-22.812" x2="186.33" x1="161.169" style="fill:none;" /><ns0:line y2="-40.985" y1="-26.8479" x2="182.7291" x1="160.9577" style="fill:none;" /><ns0:line y2="-39.15" y1="-69.108" x2="186.33" x1="184.758" style="fill:none;" /><ns0:path style="stroke:none;" d="M0.2118 -67.0088 L-0.7218 -67.3671 L5.3815 -90.2474 L10.9831 -88.0976 Z" /></ns0:g><ns0:g transform="translate(190,103)" style="fill:rgb(230,0,0); text-rendering:geometricPrecision; color-rendering:optimizeQuality; image-rendering:optimizeQuality; font-family:'Open Sans'; stroke:rgb(230,0,0); color-interpolation:linearRGB;"><ns0:path style="stroke:none;" d="M-77.3925 -8.7973 Q-77.3925 -6.7348 -78.4316 -5.5551 Q-79.4706 -4.3754 -81.3144 -4.3754 Q-83.205 -4.3754 -84.2363 -5.5395 Q-85.2675 -6.7036 -85.2675 -8.8129 Q-85.2675 -10.9067 -84.2363 -12.0551 Q-83.205 -13.2036 -81.3144 -13.2036 Q-79.455 -13.2036 -78.4238 -12.0317 Q-77.3925 -10.8598 -77.3925 -8.7973 ZM-84.2206 -8.7973 Q-84.2206 -7.0629 -83.4784 -6.1567 Q-82.7363 -5.2504 -81.3144 -5.2504 Q-79.8925 -5.2504 -79.1659 -6.1489 Q-78.4394 -7.0473 -78.4394 -8.7973 Q-78.4394 -10.5317 -79.1659 -11.4223 Q-79.8925 -12.3129 -81.3144 -12.3129 Q-82.7363 -12.3129 -83.4784 -11.4145 Q-84.2206 -10.5161 -84.2206 -8.7973 Z" /><ns0:path style="stroke:none;" d="M-32.3925 17.1827 Q-32.3925 19.2452 -33.4316 20.4249 Q-34.4706 21.6046 -36.3144 21.6046 Q-38.205 21.6046 -39.2362 20.4405 Q-40.2675 19.2764 -40.2675 17.1671 Q-40.2675 15.0733 -39.2362 13.9249 Q-38.205 12.7764 -36.3144 12.7764 Q-34.455 12.7764 -33.4237 13.9483 Q-32.3925 15.1202 -32.3925 17.1827 ZM-39.2206 17.1827 Q-39.2206 18.9171 -38.4784 19.8233 Q-37.7362 20.7296 -36.3144 20.7296 Q-34.8925 20.7296 -34.1659 19.8311 Q-33.4394 18.9327 -33.4394 17.1827 Q-33.4394 15.4483 -34.1659 14.5577 Q-34.8925 13.6671 -36.3144 13.6671 Q-37.7362 13.6671 -38.4784 14.5655 Q-39.2206 15.4639 -39.2206 17.1827 Z" /></ns0:g><ns0:g transform="translate(190,103)" style="stroke-linecap:butt; text-rendering:geometricPrecision; color-rendering:optimizeQuality; image-rendering:optimizeQuality; font-family:'Open Sans'; color-interpolation:linearRGB; stroke-miterlimit:5;"><ns0:path style="fill:none;" d="M-96.08 16.82 L-96.33 17.253 L-96.83 17.253" /><ns0:path style="fill:none;" d="M-125.83 17.253 L-126.33 17.253 L-126.58 17.686" /><ns0:path style="fill:rgb(0,5,255); stroke:none;" d="M-137.9784 47.3893 L-139.1191 47.3893 L-143.8066 40.2018 L-143.8534 40.2018 Q-143.7597 41.4674 -143.7597 42.5143 L-143.7597 47.3893 L-144.6816 47.3893 L-144.6816 38.8268 L-143.5566 38.8268 L-138.8847 45.983 L-138.8378 45.983 Q-138.8378 45.8268 -138.8847 44.9674 Q-138.9316 44.108 -138.9159 43.733 L-138.9159 38.8268 L-137.9784 38.8268 L-137.9784 47.3893 Z" /><ns0:path style="fill:none;" d="M-126.58 68.783 L-126.33 69.216 L-126.58 69.649" /><ns0:path style="fill:none;" d="M-170.83 43.233 L-171.33 43.233 L-171.58 42.8" /><ns0:path style="fill:rgb(230,0,0); stroke:none;" d="M43.1265 -6.5173 Q43.1265 -4.4548 42.0874 -3.2751 Q41.0484 -2.0954 39.2046 -2.0954 Q37.314 -2.0954 36.2828 -3.2595 Q35.2515 -4.4236 35.2515 -6.5329 Q35.2515 -8.6267 36.2828 -9.7751 Q37.314 -10.9236 39.2046 -10.9236 Q41.064 -10.9236 42.0953 -9.7517 Q43.1265 -8.5798 43.1265 -6.5173 ZM36.2984 -6.5173 Q36.2984 -4.7829 37.0406 -3.8767 Q37.7828 -2.9704 39.2046 -2.9704 Q40.6265 -2.9704 41.3531 -3.8689 Q42.0796 -4.7673 42.0796 -6.5173 Q42.0796 -8.2517 41.3531 -9.1423 Q40.6265 -10.0329 39.2046 -10.0329 Q37.7828 -10.0329 37.0406 -9.1345 Q36.2984 -8.2361 36.2984 -6.5173 Z" /><ns0:path style="fill:rgb(0,5,255); stroke:none;" d="M57.6006 -73.1327 L56.4599 -73.1327 L51.7724 -80.3202 L51.7256 -80.3202 Q51.8193 -79.0546 51.8193 -78.0077 L51.8193 -73.1327 L50.8974 -73.1327 L50.8974 -81.6952 L52.0224 -81.6952 L56.6943 -74.539 L56.7412 -74.539 Q56.7412 -74.6952 56.6943 -75.5546 Q56.6474 -76.414 56.6631 -76.789 L56.6631 -81.6952 L57.6006 -81.6952 L57.6006 -73.1327 Z" /><ns0:path style="fill:rgb(0,5,255); stroke:none;" d="M57.5068 -82.6952 L56.5068 -82.6952 L56.5068 -86.7265 L51.9912 -86.7265 L51.9912 -82.6952 L50.9912 -82.6952 L50.9912 -91.2577 L51.9912 -91.2577 L51.9912 -87.6171 L56.5068 -87.6171 L56.5068 -91.2577 L57.5068 -91.2577 L57.5068 -82.6952 Z" /><ns0:path style="fill:none;" d="M80.5335 -63.896 L80.979 -63.669 L81.3983 -63.9413" /><ns0:path style="fill:none;" d="M105.7207 -79.7377 L106.14 -80.01 L106.5855 -79.783" /><ns0:path style="fill:rgb(230,0,0); stroke:none;" d="M86.4855 -33.7813 Q86.4855 -31.7188 85.4464 -30.5391 Q84.4074 -29.3594 82.5636 -29.3594 Q80.673 -29.3594 79.6418 -30.5235 Q78.6105 -31.6876 78.6105 -33.7969 Q78.6105 -35.8907 79.6418 -37.0391 Q80.673 -38.1876 82.5636 -38.1876 Q84.423 -38.1876 85.4543 -37.0157 Q86.4855 -35.8438 86.4855 -33.7813 ZM79.6574 -33.7813 Q79.6574 -32.0469 80.3996 -31.1407 Q81.1418 -30.2344 82.5636 -30.2344 Q83.9855 -30.2344 84.7121 -31.1329 Q85.4386 -32.0313 85.4386 -33.7813 Q85.4386 -35.5157 84.7121 -36.4063 Q83.9855 -37.2969 82.5636 -37.2969 Q81.1418 -37.2969 80.3996 -36.3985 Q79.6574 -35.5001 79.6574 -33.7813 Z" /><ns0:path style="fill:rgb(0,5,255); stroke:none;" d="M-3.1434 -33.6888 L-4.2841 -33.6888 L-8.9716 -40.8763 L-9.0184 -40.8763 Q-8.9247 -39.6106 -8.9247 -38.5638 L-8.9247 -33.6888 L-9.8466 -33.6888 L-9.8466 -42.2513 L-8.7216 -42.2513 L-4.0497 -35.095 L-4.0028 -35.095 Q-4.0028 -35.2513 -4.0497 -36.1106 Q-4.0966 -36.97 -4.0809 -37.345 L-4.0809 -42.2513 L-3.1434 -42.2513 L-3.1434 -33.6888 Z" /></ns0:g><ns0:g transform="translate(190,103)" style="stroke-linecap:butt; font-size:8.4px; fill:gray; text-rendering:geometricPrecision; image-rendering:optimizeQuality; color-rendering:optimizeQuality; font-family:'Open Sans'; font-style:italic; stroke:gray; color-interpolation:linearRGB; stroke-miterlimit:5;"><ns0:path style="stroke:none;" d="M-13.7792 -61.9568 Q-13.7792 -63.285 -13.3105 -64.41 Q-12.8417 -65.535 -11.8105 -66.6131 L-11.2011 -66.6131 Q-12.1698 -65.5506 -12.6542 -64.3787 Q-13.1386 -63.2068 -13.1386 -61.9725 Q-13.1386 -60.6443 -12.7011 -59.6287 L-13.2167 -59.6287 Q-13.7792 -60.66 -13.7792 -61.9568 ZM-10.2192 -63.2693 L-10.7192 -60.8943 L-11.3754 -60.8943 L-10.1723 -66.6131 L-8.9223 -66.6131 Q-7.1879 -66.6131 -7.1879 -65.1756 Q-7.1879 -63.8162 -8.6254 -63.4256 L-7.6879 -60.8943 L-8.4067 -60.8943 L-9.2348 -63.2693 L-10.2192 -63.2693 ZM-9.641 -66.0193 Q-10.0317 -64.0975 -10.0942 -63.8475 L-9.4379 -63.8475 Q-8.6879 -63.8475 -8.2817 -64.1756 Q-7.8754 -64.5037 -7.8754 -65.1287 Q-7.8754 -65.5975 -8.1332 -65.8084 Q-8.391 -66.0193 -8.9848 -66.0193 L-9.641 -66.0193 ZM-5.0019 -64.2693 Q-5.0019 -62.9412 -5.4785 -61.8084 Q-5.9551 -60.6756 -6.9707 -59.6287 L-7.5801 -59.6287 Q-5.6426 -61.785 -5.6426 -64.2693 Q-5.6426 -65.5975 -6.0801 -66.6131 L-5.5644 -66.6131 Q-5.0019 -65.5506 -5.0019 -64.2693 Z" /><ns0:path style="stroke:none;" d="M-50.4248 -34.0276 Q-50.4248 -35.3557 -49.956 -36.4807 Q-49.4873 -37.6057 -48.456 -38.6838 L-47.8467 -38.6838 Q-48.8154 -37.6213 -49.2998 -36.4495 Q-49.7842 -35.2776 -49.7842 -34.0432 Q-49.7842 -32.7151 -49.3467 -31.6995 L-49.8623 -31.6995 Q-50.4248 -32.7307 -50.4248 -34.0276 ZM-44.8022 -34.6213 Q-44.8022 -33.7932 -45.3491 -33.3401 Q-45.896 -32.887 -46.896 -32.887 Q-47.3022 -32.887 -47.6147 -32.9416 Q-47.9272 -32.9963 -48.2085 -33.137 L-48.2085 -33.7932 Q-47.5835 -33.4651 -46.8804 -33.4651 Q-46.2554 -33.4651 -45.8804 -33.762 Q-45.5054 -34.0588 -45.5054 -34.5745 Q-45.5054 -34.887 -45.7085 -35.1135 Q-45.9116 -35.3401 -46.4741 -35.6682 Q-47.0679 -35.9963 -47.2944 -36.3245 Q-47.521 -36.6526 -47.521 -37.1057 Q-47.521 -37.8401 -47.0054 -38.301 Q-46.4897 -38.762 -45.646 -38.762 Q-45.271 -38.762 -44.9351 -38.6838 Q-44.5991 -38.6057 -44.2241 -38.4338 L-44.4897 -37.8401 Q-44.7397 -37.9963 -45.0601 -38.0823 Q-45.3804 -38.1682 -45.646 -38.1682 Q-46.1772 -38.1682 -46.4976 -37.8948 Q-46.8179 -37.6213 -46.8179 -37.1526 Q-46.8179 -36.9495 -46.7476 -36.801 Q-46.6772 -36.6526 -46.5366 -36.5198 Q-46.396 -36.387 -45.9741 -36.137 Q-45.4116 -35.7932 -45.2085 -35.5979 Q-45.0054 -35.4026 -44.9038 -35.1682 Q-44.8022 -34.9338 -44.8022 -34.6213 ZM-42.2078 -36.3401 Q-42.2078 -35.012 -42.6843 -33.8791 Q-43.1609 -32.7463 -44.1765 -31.6995 L-44.7859 -31.6995 Q-42.8484 -33.8557 -42.8484 -36.3401 Q-42.8484 -37.6682 -43.2859 -38.6838 L-42.7703 -38.6838 Q-42.2078 -37.6213 -42.2078 -36.3401 Z" /><ns0:path style="fill:none; stroke:black;" d="M22.3619 -31.7119 L22.851 -31.608 L22.955 -32.0971" /><ns0:path style="fill:none; stroke:black;" d="M28.5989 -61.055 L29.088 -60.951 L28.984 -60.4619" /><ns0:path style="stroke:none;" d="M22.8772 -69.6195 Q22.8772 -70.9476 23.346 -72.0726 Q23.8147 -73.1976 24.846 -74.2758 L25.4554 -74.2758 Q24.4866 -73.2133 24.0022 -72.0414 Q23.5179 -70.8695 23.5179 -69.6351 Q23.5179 -68.307 23.9554 -67.2914 L23.4397 -67.2914 Q22.8772 -68.3226 22.8772 -69.6195 ZM26.4373 -70.932 L25.9373 -68.557 L25.281 -68.557 L26.4842 -74.2758 L27.7342 -74.2758 Q29.4685 -74.2758 29.4685 -72.8383 Q29.4685 -71.4789 28.031 -71.0883 L28.9685 -68.557 L28.2498 -68.557 L27.4217 -70.932 L26.4373 -70.932 ZM27.0154 -73.682 Q26.6248 -71.7601 26.5623 -71.5101 L27.2185 -71.5101 Q27.9685 -71.5101 28.3748 -71.8383 Q28.781 -72.1664 28.781 -72.7914 Q28.781 -73.2601 28.5232 -73.4711 Q28.2654 -73.682 27.6717 -73.682 L27.0154 -73.682 ZM31.6545 -71.932 Q31.6545 -70.6039 31.178 -69.4711 Q30.7014 -68.3383 29.6858 -67.2914 L29.0764 -67.2914 Q31.0139 -69.4476 31.0139 -71.932 Q31.0139 -73.2601 30.5764 -74.2758 L31.092 -74.2758 Q31.6545 -73.2133 31.6545 -71.932 Z" /></ns0:g><ns0:g transform="translate(190,103)" style="stroke-linecap:butt; fill:rgb(148,108,0); text-rendering:geometricPrecision; color-rendering:optimizeQuality; image-rendering:optimizeQuality; font-family:'Open Sans'; stroke:rgb(148,108,0); color-interpolation:linearRGB; stroke-miterlimit:5;"><ns0:path style="stroke:none;" d="M-23.5427 -80.2505 Q-23.5427 -79.1255 -24.363 -78.4849 Q-25.1833 -77.8442 -26.5896 -77.8442 Q-28.1208 -77.8442 -28.9333 -78.2505 L-28.9333 -79.2036 Q-28.4021 -78.9849 -27.7849 -78.8521 Q-27.1677 -78.7192 -26.5583 -78.7192 Q-25.5583 -78.7192 -25.0583 -79.1021 Q-24.5583 -79.4849 -24.5583 -80.1567 Q-24.5583 -80.5942 -24.738 -80.8833 Q-24.9177 -81.1724 -25.3317 -81.4146 Q-25.7458 -81.6567 -26.6052 -81.9536 Q-27.7927 -82.3755 -28.3083 -82.9614 Q-28.8239 -83.5474 -28.8239 -84.5005 Q-28.8239 -85.4849 -28.0817 -86.0708 Q-27.3396 -86.6567 -26.1052 -86.6567 Q-24.8396 -86.6567 -23.7614 -86.188 L-24.0739 -85.3286 Q-25.1364 -85.7661 -26.1364 -85.7661 Q-26.9333 -85.7661 -27.3786 -85.4302 Q-27.8239 -85.0942 -27.8239 -84.4849 Q-27.8239 -84.0474 -27.6599 -83.7583 Q-27.4958 -83.4692 -27.1052 -83.2349 Q-26.7146 -83.0005 -25.9021 -82.7036 Q-24.5583 -82.2349 -24.0505 -81.6802 Q-23.5427 -81.1255 -23.5427 -80.2505 Z" /><ns0:path style="fill:none; stroke:black;" d="M132.8961 -65.8907 L132.87 -66.39 L132.4245 -66.617" /><ns0:path style="fill:none; stroke:black;" d="M134.4128 -36.9313 L134.439 -36.432 L134.8845 -36.205" /><ns0:path style="fill:none; stroke:black;" d="M157.6087 -82.4557 L158.028 -82.728 L158.4735 -82.501" /><ns0:path style="fill:none; stroke:black;" d="M160.7235 -23.039 L161.169 -22.812 L161.5883 -23.0843" /><ns0:path style="fill:none; stroke:black;" d="M184.3125 -69.335 L184.758 -69.108 L184.7842 -68.6087" /><ns0:path style="fill:none; stroke:black;" d="M185.9107 -38.8777 L186.33 -39.15 L186.3038 -39.6493" /><ns0:path style="fill:black; stroke:none;" d="M13.7518 -91.0397 L12.7518 -91.0397 L12.7518 -95.071 L8.2362 -95.071 L8.2362 -91.0397 L7.2362 -91.0397 L7.2362 -99.6022 L8.2362 -99.6022 L8.2362 -95.9616 L12.7518 -95.9616 L12.7518 -99.6022 L13.7518 -99.6022 L13.7518 -91.0397 Z" /></ns0:g></ns0:g></ns0:svg></ns0:svg><ns0:svg y="201" x="182" class="cas-substance-saf"><ns0:svg y="5" x="0" width="4" style="fill:black;" height="4" class="cas-substance-saf-dot"><ns0:circle stroke="none" r="2" fill="black" cy="2" cx="2" /></ns0:svg><ns0:svg y="0" x="8" width="15" style="fill:black;" height="15" class="cas-substance-saf-image"><ns0:svg><ns0:g><ns0:g transform="translate(6,7)" style="fill:rgb(0,138,0); text-rendering:geometricPrecision; color-rendering:optimizeQuality; image-rendering:optimizeQuality; font-family:'Open Sans'; stroke:rgb(0,138,0); color-interpolation:linearRGB;"><ns0:path style="stroke:none;" d="M3.2578 4.1562 L2.2578 4.1562 L2.2578 0.125 L-2.2578 0.125 L-2.2578 4.1562 L-3.2578 4.1562 L-3.2578 -4.4062 L-2.2578 -4.4062 L-2.2578 -0.7656 L2.2578 -0.7656 L2.2578 -4.4062 L3.2578 -4.4062 L3.2578 4.1562 Z" /><ns0:path style="stroke:none;" d="M4.2578 4.1562 L4.2578 -4.4062 L5.2578 -4.4062 L5.2578 4.1562 L4.2578 4.1562 Z" /></ns0:g></ns0:g></ns0:svg></ns0:svg></ns0:svg></ns0:svg></ns0:svg></g></svg>