<svg width="100" viewBox="0 0 100 65" style="fill-opacity:1; color-rendering:auto; color-interpolation:auto; text-rendering:auto; stroke:black; stroke-linecap:square; stroke-miterlimit:10; shape-rendering:auto; stroke-opacity:1; fill:black; stroke-dasharray:none; font-weight:normal; stroke-width:1; font-family:'Open Sans'; font-style:normal; stroke-linejoin:miter; font-size:12; stroke-dashoffset:0; image-rendering:auto;" height="65" class="cas-substance-image" xmlns:xlink="http://www.w3.org/1999/xlink" xmlns="http://www.w3.org/2000/svg"><svg class="cas-substance-single-component"><rect y="0" x="0" width="100" stroke="none" ry="7" rx="7" height="65" fill="white" class="cas-substance-group"/><svg y="0" x="12" width="76" viewBox="0 0 76 65" style="fill:black;" height="65" class="cas-substance-single-component-image"><svg><g><g transform="translate(595,508)" style="text-rendering:geometricPrecision; color-rendering:optimizeQuality; color-interpolation:linearRGB; stroke-linecap:butt; image-rendering:optimizeQuality;"><line y2="-475.3236" y1="-475.3236" x2="-529.9572" x1="-548.363" style="fill:none;"/><line y2="-478.8236" y1="-478.8236" x2="-529.9572" x1="-552.286" style="fill:none;"/><line y2="-471.8236" y1="-471.8236" x2="-529.9572" x1="-546.2303" style="fill:none;"/><line y2="-456.3011" y1="-468.9798" x2="-556.8356" x1="-556.8356" style="fill:none;"/><line y2="-456.3011" y1="-469.668" x2="-553.3356" x1="-553.3356" style="fill:none;"/><line y2="-456.3011" y1="-469.6723" x2="-560.3356" x1="-560.3356" style="fill:none;"/><line y2="-494.596" y1="-481.4383" x2="-556.8356" x1="-556.8356" style="fill:none;"/><line y2="-494.596" y1="-478.9562" x2="-560.3356" x1="-560.3356" style="fill:none;"/><line y2="-494.596" y1="-478.9562" x2="-553.3356" x1="-553.3356" style="fill:none;"/><line y2="-475.3236" y1="-475.3236" x2="-583.7142" x1="-565.3083" style="fill:none;"/><line y2="-471.8236" y1="-471.8236" x2="-583.7142" x1="-567.4539" style="fill:none;"/><line y2="-478.8236" y1="-478.8236" x2="-583.7142" x1="-561.3853" style="fill:none;"/><line y2="-461.6606" y1="-470.7251" x2="-533.1962" x1="-548.8793" style="fill:none;"/><line y2="-464.6909" y1="-472.9836" x2="-531.4448" x1="-545.7928" style="fill:none;"/><line y2="-458.6304" y1="-468.9411" x2="-534.9476" x1="-552.7871" style="fill:none;"/><line y2="-461.6122" y1="-471.1694" x2="-580.6098" x1="-564.0386" style="fill:none;"/><line y2="-458.5803" y1="-468.9483" x2="-578.8612" x1="-560.8842" style="fill:none;"/><line y2="-464.6441" y1="-472.9886" x2="-582.3584" x1="-567.8898" style="fill:none;"/><path style="stroke-linecap:square; stroke:none;" d="M-559.1989 -478.9017 Q-560.6052 -478.9017 -561.4255 -477.9642 Q-562.2458 -477.0267 -562.2458 -475.3861 Q-562.2458 -473.7142 -561.4567 -472.7923 Q-560.6677 -471.8705 -559.2145 -471.8705 Q-558.3083 -471.8705 -557.1677 -472.1986 L-557.1677 -471.3236 Q-558.0583 -470.9798 -559.3552 -470.9798 Q-561.2458 -470.9798 -562.277 -472.1361 Q-563.3083 -473.2923 -563.3083 -475.4017 Q-563.3083 -476.7298 -562.8161 -477.722 Q-562.3239 -478.7142 -561.3864 -479.2533 Q-560.4489 -479.7923 -559.1833 -479.7923 Q-557.8395 -479.7923 -556.8239 -479.308 L-557.2458 -478.4486 Q-558.2302 -478.9017 -559.1989 -478.9017 ZM-552.7224 -470.9798 Q-554.1442 -470.9798 -554.9724 -471.8548 Q-555.8005 -472.7298 -555.8005 -474.2611 Q-555.8005 -475.8236 -555.0349 -476.7376 Q-554.2692 -477.6517 -552.9724 -477.6517 Q-551.7692 -477.6517 -551.0661 -476.8548 Q-550.363 -476.058 -550.363 -474.7611 L-550.363 -474.1361 L-554.7849 -474.1361 Q-554.7536 -473.0111 -554.2145 -472.4251 Q-553.6755 -471.8392 -552.6911 -471.8392 Q-551.6599 -471.8392 -550.6442 -472.2767 L-550.6442 -471.4017 Q-551.1599 -471.183 -551.6208 -471.0814 Q-552.0817 -470.9798 -552.7224 -470.9798 ZM-552.988 -476.8236 Q-553.7692 -476.8236 -554.2302 -476.3236 Q-554.6911 -475.8236 -554.7692 -474.933 L-551.4099 -474.933 Q-551.4099 -475.8548 -551.8161 -476.3392 Q-552.2224 -476.8236 -552.988 -476.8236 Z"/><path style="stroke-linecap:square; stroke:none;" d="M-527.9572 -479.7298 L-525.5353 -479.7298 Q-523.8322 -479.7298 -523.0665 -479.222 Q-522.3009 -478.7142 -522.3009 -477.6205 Q-522.3009 -476.8548 -522.7228 -476.3548 Q-523.1447 -475.8548 -523.9728 -475.7142 L-523.9728 -475.6517 Q-522.0197 -475.3236 -522.0197 -473.6048 Q-522.0197 -472.4642 -522.7931 -471.8158 Q-523.5665 -471.1673 -524.9572 -471.1673 L-527.9572 -471.1673 L-527.9572 -479.7298 ZM-526.9572 -476.0736 L-525.3165 -476.0736 Q-524.254 -476.0736 -523.7931 -476.4017 Q-523.3322 -476.7298 -523.3322 -477.5111 Q-523.3322 -478.2298 -523.8478 -478.5501 Q-524.3634 -478.8705 -525.4884 -478.8705 L-526.9572 -478.8705 L-526.9572 -476.0736 ZM-526.9572 -475.2298 L-526.9572 -472.0111 L-525.1603 -472.0111 Q-524.129 -472.0111 -523.6056 -472.4173 Q-523.0822 -472.8236 -523.0822 -473.683 Q-523.0822 -474.4798 -523.6212 -474.8548 Q-524.1603 -475.2298 -525.254 -475.2298 L-526.9572 -475.2298 Z"/><path style="stroke-linecap:square; stroke:none;" d="M-559.8044 -454.3011 L-557.3825 -454.3011 Q-555.6794 -454.3011 -554.9138 -453.7933 Q-554.1481 -453.2855 -554.1481 -452.1917 Q-554.1481 -451.4261 -554.57 -450.9261 Q-554.9919 -450.4261 -555.82 -450.2855 L-555.82 -450.223 Q-553.8669 -449.8949 -553.8669 -448.1761 Q-553.8669 -447.0355 -554.6403 -446.3871 Q-555.4138 -445.7386 -556.8044 -445.7386 L-559.8044 -445.7386 L-559.8044 -454.3011 ZM-558.8044 -450.6449 L-557.1638 -450.6449 Q-556.1013 -450.6449 -555.6403 -450.973 Q-555.1794 -451.3011 -555.1794 -452.0824 Q-555.1794 -452.8011 -555.695 -453.1214 Q-556.2106 -453.4417 -557.3356 -453.4417 L-558.8044 -453.4417 L-558.8044 -450.6449 ZM-558.8044 -449.8011 L-558.8044 -446.5824 L-557.0075 -446.5824 Q-555.9763 -446.5824 -555.4528 -446.9886 Q-554.9294 -447.3949 -554.9294 -448.2542 Q-554.9294 -449.0511 -555.4684 -449.4261 Q-556.0075 -449.8011 -557.1013 -449.8011 L-558.8044 -449.8011 Z"/><path style="stroke-linecap:square; stroke:none;" d="M-559.8044 -505.1585 L-557.3825 -505.1585 Q-555.6794 -505.1585 -554.9138 -504.6507 Q-554.1481 -504.1429 -554.1481 -503.0491 Q-554.1481 -502.2835 -554.57 -501.7835 Q-554.9919 -501.2835 -555.82 -501.1429 L-555.82 -501.0804 Q-553.8669 -500.7523 -553.8669 -499.0335 Q-553.8669 -497.8929 -554.6403 -497.2444 Q-555.4138 -496.596 -556.8044 -496.596 L-559.8044 -496.596 L-559.8044 -505.1585 ZM-558.8044 -501.5023 L-557.1638 -501.5023 Q-556.1013 -501.5023 -555.6403 -501.8304 Q-555.1794 -502.1585 -555.1794 -502.9398 Q-555.1794 -503.6585 -555.695 -503.9788 Q-556.2106 -504.2991 -557.3356 -504.2991 L-558.8044 -504.2991 L-558.8044 -501.5023 ZM-558.8044 -500.6585 L-558.8044 -497.4398 L-557.0075 -497.4398 Q-555.9763 -497.4398 -555.4528 -497.846 Q-554.9294 -498.2523 -554.9294 -499.1116 Q-554.9294 -499.9085 -555.4684 -500.2835 Q-556.0075 -500.6585 -557.1013 -500.6585 L-558.8044 -500.6585 Z"/><path style="stroke-linecap:square; stroke:none;" d="M-591.6517 -479.7298 L-589.2298 -479.7298 Q-587.5267 -479.7298 -586.761 -479.222 Q-585.9954 -478.7142 -585.9954 -477.6205 Q-585.9954 -476.8548 -586.4173 -476.3548 Q-586.8392 -475.8548 -587.6673 -475.7142 L-587.6673 -475.6517 Q-585.7142 -475.3236 -585.7142 -473.6048 Q-585.7142 -472.4642 -586.4876 -471.8158 Q-587.261 -471.1673 -588.6517 -471.1673 L-591.6517 -471.1673 L-591.6517 -479.7298 ZM-590.6517 -476.0736 L-589.011 -476.0736 Q-587.9485 -476.0736 -587.4876 -476.4017 Q-587.0267 -476.7298 -587.0267 -477.5111 Q-587.0267 -478.2298 -587.5423 -478.5501 Q-588.0579 -478.8705 -589.1829 -478.8705 L-590.6517 -478.8705 L-590.6517 -476.0736 ZM-590.6517 -475.2298 L-590.6517 -472.0111 L-588.8548 -472.0111 Q-587.8235 -472.0111 -587.3001 -472.4173 Q-586.7767 -472.8236 -586.7767 -473.683 Q-586.7767 -474.4798 -587.3157 -474.8548 Q-587.8548 -475.2298 -588.9485 -475.2298 L-590.6517 -475.2298 Z"/><path style="stroke-linecap:square; stroke:none;" d="M-531.4646 -463.3503 L-529.0427 -463.3503 Q-527.3396 -463.3503 -526.574 -462.8424 Q-525.8083 -462.3346 -525.8083 -461.2409 Q-525.8083 -460.4753 -526.2302 -459.9753 Q-526.6521 -459.4753 -527.4802 -459.3346 L-527.4802 -459.2721 Q-525.5271 -458.944 -525.5271 -457.2253 Q-525.5271 -456.0846 -526.3005 -455.4362 Q-527.074 -454.7878 -528.4646 -454.7878 L-531.4646 -454.7878 L-531.4646 -463.3503 ZM-530.4646 -459.694 L-528.824 -459.694 Q-527.7615 -459.694 -527.3005 -460.0221 Q-526.8396 -460.3503 -526.8396 -461.1315 Q-526.8396 -461.8503 -527.3552 -462.1706 Q-527.8708 -462.4909 -528.9958 -462.4909 L-530.4646 -462.4909 L-530.4646 -459.694 ZM-530.4646 -458.8503 L-530.4646 -455.6315 L-528.6677 -455.6315 Q-527.6365 -455.6315 -527.113 -456.0378 Q-526.5896 -456.444 -526.5896 -457.3034 Q-526.5896 -458.1003 -527.1287 -458.4753 Q-527.6677 -458.8503 -528.7615 -458.8503 L-530.4646 -458.8503 Z"/><path style="stroke-linecap:square; stroke:none;" d="M-588.1443 -463.3853 L-585.7224 -463.3853 Q-584.0193 -463.3853 -583.2537 -462.8775 Q-582.488 -462.3697 -582.488 -461.2759 Q-582.488 -460.5103 -582.9099 -460.0103 Q-583.3318 -459.5103 -584.1599 -459.3697 L-584.1599 -459.3072 Q-582.2068 -458.979 -582.2068 -457.2603 Q-582.2068 -456.1197 -582.9802 -455.4712 Q-583.7537 -454.8228 -585.1443 -454.8228 L-588.1443 -454.8228 L-588.1443 -463.3853 ZM-587.1443 -459.729 L-585.5037 -459.729 Q-584.4412 -459.729 -583.9802 -460.0572 Q-583.5193 -460.3853 -583.5193 -461.1665 Q-583.5193 -461.8853 -584.0349 -462.2056 Q-584.5505 -462.5259 -585.6755 -462.5259 L-587.1443 -462.5259 L-587.1443 -459.729 ZM-587.1443 -458.8853 L-587.1443 -455.6665 L-585.3474 -455.6665 Q-584.3162 -455.6665 -583.7927 -456.0728 Q-583.2693 -456.479 -583.2693 -457.3384 Q-583.2693 -458.1353 -583.8083 -458.5103 Q-584.3474 -458.8853 -585.4412 -458.8853 L-587.1443 -458.8853 Z"/></g></g></svg></svg></svg></svg>