<svg width="194" viewBox="0 0 194 115" style="fill-opacity:1; color-rendering:auto; color-interpolation:auto; text-rendering:auto; stroke:black; stroke-linecap:square; stroke-miterlimit:10; shape-rendering:auto; stroke-opacity:1; fill:black; stroke-dasharray:none; font-weight:normal; stroke-width:1; font-family:'Open Sans'; font-style:normal; stroke-linejoin:miter; font-size:12; stroke-dashoffset:0; image-rendering:auto;" height="115" class="cas-substance-image" xmlns:xlink="http://www.w3.org/1999/xlink" xmlns="http://www.w3.org/2000/svg"><svg class="cas-substance-single-component"><rect y="0" x="0" width="194" stroke="none" ry="7" rx="7" height="115" fill="white" class="cas-substance-group"/><svg y="0" x="0" width="194" viewBox="0 0 194 115" style="fill:black;" height="115" class="cas-substance-single-component-image"><svg><g><g transform="translate(97,59)" style="text-rendering:geometricPrecision; color-rendering:optimizeQuality; color-interpolation:linearRGB; stroke-linecap:butt; image-rendering:optimizeQuality;"><line y2="51.963" y1="31.616" x2="-37.5" x1="-49.2464" style="fill:none;"/><line y2="0" y1="20.2583" x2="-37.5" x1="-49.1965" style="fill:none;"/><line y2="-25.98" y1="-25.98" x2="-52.5" x1="-76.5625" style="fill:none;"/><line y2="-51.963" y1="-25.98" x2="52.5" x1="37.5" style="fill:none;"/><line y2="-25.98" y1="-25.98" x2="7.5" x1="37.5" style="fill:none;"/><line y2="-51.963" y1="-51.963" x2="76.5625" x1="52.5" style="fill:none;"/><line y2="0" y1="0" x2="-7.5" x1="-37.5" style="fill:none;"/><line y2="-3.5" y1="-3.5" x2="-9.5207" x1="-35.4793" style="fill:none;"/><line y2="-25.98" y1="0" x2="-52.5" x1="-37.5" style="fill:none;"/><line y2="-25.98" y1="0" x2="7.5" x1="-7.5" style="fill:none;"/><line y2="-51.963" y1="-25.98" x2="-37.5" x1="-52.5" style="fill:none;"/><line y2="-48.4631" y1="-25.9802" x2="-35.4791" x1="-48.4585" style="fill:none;"/><line y2="-51.963" y1="-25.98" x2="-7.5" x1="7.5" style="fill:none;"/><line y2="-48.4631" y1="-25.9802" x2="-9.5209" x1="3.4585" style="fill:none;"/><line y2="-51.963" y1="-51.963" x2="-7.5" x1="-37.5" style="fill:none;"/></g><g transform="translate(97,59)" style="fill:rgb(230,0,0); text-rendering:geometricPrecision; color-rendering:optimizeQuality; image-rendering:optimizeQuality; font-family:'Open Sans'; stroke:rgb(230,0,0); color-interpolation:linearRGB;"><path style="stroke:none;" d="M-48.5625 25.9097 Q-48.5625 27.9722 -49.6016 29.1519 Q-50.6406 30.3316 -52.4844 30.3316 Q-54.375 30.3316 -55.4062 29.1675 Q-56.4375 28.0034 -56.4375 25.8941 Q-56.4375 23.8003 -55.4062 22.6519 Q-54.375 21.5034 -52.4844 21.5034 Q-50.625 21.5034 -49.5938 22.6753 Q-48.5625 23.8472 -48.5625 25.9097 ZM-55.3906 25.9097 Q-55.3906 27.6441 -54.6484 28.5503 Q-53.9062 29.4566 -52.4844 29.4566 Q-51.0625 29.4566 -50.3359 28.5581 Q-49.6094 27.6597 -49.6094 25.9097 Q-49.6094 24.1753 -50.3359 23.2847 Q-51.0625 22.3941 -52.4844 22.3941 Q-53.9062 22.3941 -54.6484 23.2925 Q-55.3906 24.1909 -55.3906 25.9097 Z"/><path style="stroke:none;" d="M-78.5625 -26.0503 Q-78.5625 -23.9878 -79.6016 -22.8081 Q-80.6406 -21.6284 -82.4844 -21.6284 Q-84.375 -21.6284 -85.4062 -22.7925 Q-86.4375 -23.9566 -86.4375 -26.0659 Q-86.4375 -28.1597 -85.4062 -29.3081 Q-84.375 -30.4566 -82.4844 -30.4566 Q-80.625 -30.4566 -79.5938 -29.2847 Q-78.5625 -28.1128 -78.5625 -26.0503 ZM-85.3906 -26.0503 Q-85.3906 -24.3159 -84.6484 -23.4097 Q-83.9062 -22.5034 -82.4844 -22.5034 Q-81.0625 -22.5034 -80.3359 -23.4019 Q-79.6094 -24.3003 -79.6094 -26.0503 Q-79.6094 -27.7847 -80.3359 -28.6753 Q-81.0625 -29.5659 -82.4844 -29.5659 Q-83.9062 -29.5659 -84.6484 -28.6675 Q-85.3906 -27.7691 -85.3906 -26.0503 Z"/><path style="stroke:none;" d="M-87.4375 -21.7534 L-88.4375 -21.7534 L-88.4375 -25.7847 L-92.9531 -25.7847 L-92.9531 -21.7534 L-93.9531 -21.7534 L-93.9531 -30.3159 L-92.9531 -30.3159 L-92.9531 -26.6753 L-88.4375 -26.6753 L-88.4375 -30.3159 L-87.4375 -30.3159 L-87.4375 -21.7534 Z"/></g><g transform="translate(97,59)" style="stroke-linecap:butt; text-rendering:geometricPrecision; color-rendering:optimizeQuality; image-rendering:optimizeQuality; font-family:'Open Sans'; color-interpolation:linearRGB; stroke-miterlimit:5;"><path style="fill:none;" d="M37.75 -26.413 L37.5 -25.98 L37 -25.98"/><path style="fill:none;" d="M52.25 -51.53 L52.5 -51.963 L53 -51.963"/><path style="fill:rgb(230,0,0); stroke:none;" d="M86.4375 -52.0333 Q86.4375 -49.9708 85.3984 -48.7911 Q84.3594 -47.6114 82.5156 -47.6114 Q80.625 -47.6114 79.5938 -48.7755 Q78.5625 -49.9396 78.5625 -52.0489 Q78.5625 -54.1427 79.5938 -55.2911 Q80.625 -56.4396 82.5156 -56.4396 Q84.375 -56.4396 85.4062 -55.2677 Q86.4375 -54.0958 86.4375 -52.0333 ZM79.6094 -52.0333 Q79.6094 -50.2989 80.3516 -49.3927 Q81.0938 -48.4864 82.5156 -48.4864 Q83.9375 -48.4864 84.6641 -49.3849 Q85.3906 -50.2833 85.3906 -52.0333 Q85.3906 -53.7677 84.6641 -54.6583 Q83.9375 -55.5489 82.5156 -55.5489 Q81.0938 -55.5489 80.3516 -54.6505 Q79.6094 -53.7521 79.6094 -52.0333 Z"/><path style="fill:rgb(230,0,0); stroke:none;" d="M93.9531 -47.7364 L92.9531 -47.7364 L92.9531 -51.7677 L88.4375 -51.7677 L88.4375 -47.7364 L87.4375 -47.7364 L87.4375 -56.2989 L88.4375 -56.2989 L88.4375 -52.6583 L92.9531 -52.6583 L92.9531 -56.2989 L93.9531 -56.2989 L93.9531 -47.7364 Z"/><path style="fill:none;" d="M-37 0 L-37.5 0 L-37.75 0.433"/><path style="fill:none;" d="M-8 -0 L-7.5 0 L-7.25 -0.433"/><path style="fill:none;" d="M-52.25 -26.413 L-52.5 -25.98 L-53 -25.98"/><path style="fill:none;" d="M7.25 -26.413 L7.5 -25.98 L8 -25.98"/><path style="fill:none;" d="M-37.75 -51.53 L-37.5 -51.963 L-37 -51.963"/><path style="fill:none;" d="M-7.25 -51.53 L-7.5 -51.963 L-8 -51.963"/></g></g></svg></svg></svg></svg>