<svg width="225" viewBox="0 0 225 86" style="fill-opacity:1; color-rendering:auto; color-interpolation:auto; text-rendering:auto; stroke:black; stroke-linecap:square; stroke-miterlimit:10; shape-rendering:auto; stroke-opacity:1; fill:black; stroke-dasharray:none; font-weight:normal; stroke-width:1; font-family:'Open Sans'; font-style:normal; stroke-linejoin:miter; font-size:12; stroke-dashoffset:0; image-rendering:auto;" height="86" class="cas-substance-image" xmlns:xlink="http://www.w3.org/1999/xlink" xmlns="http://www.w3.org/2000/svg"><svg class="cas-substance-single-component"><rect y="0" x="0" width="225" stroke="none" ry="7" rx="7" height="86" fill="white" class="cas-substance-group"/><svg y="0" x="0" width="225" viewBox="0 0 225 71" style="fill:black;" height="71" class="cas-substance-single-component-image"><svg><g><g transform="translate(118,39)" style="text-rendering:geometricPrecision; color-rendering:optimizeQuality; color-interpolation:linearRGB; stroke-linecap:butt; image-rendering:optimizeQuality;"><line y2="-7.5" y1="-19.5649" x2="-25.98" x1="-5.0836" style="fill:none;"/><line y2="-7.5" y1="-19.5649" x2="25.98" x1="5.0836" style="fill:none;"/><line y2="-19.5652" y1="-7.5" x2="-46.8794" x1="-25.98" style="fill:none;"/><line y2="16.0938" y1="-8.5103" x2="-27.73" x1="-27.73" style="fill:none;"/><line y2="16.0938" y1="-8.5104" x2="-24.23" x1="-24.23" style="fill:none;"/><line y2="-22.5" y1="-7.5" x2="51.963" x1="25.98" style="fill:none;"/><line y2="-7.5" y1="-19.5649" x2="-77.943" x1="-57.0466" style="fill:none;"/><line y2="-7.5" y1="-22.5" x2="77.943" x1="51.963" style="fill:none;"/><line y2="-21.0804" y1="-8.5104" x2="-97.9644" x1="-76.193" style="fill:none;"/><line y2="-18.0494" y1="-5.4793" x2="-99.7144" x1="-77.943" style="fill:none;"/><line y2="16.0938" y1="-7.5" x2="-77.943" x1="-77.943" style="fill:none;"/><line y2="-22.5" y1="-7.5" x2="103.923" x1="77.943" style="fill:none;"/></g><g transform="translate(118,39)" style="fill:rgb(0,5,255); text-rendering:geometricPrecision; color-rendering:optimizeQuality; image-rendering:optimizeQuality; font-family:'Open Sans'; stroke:rgb(0,5,255); color-interpolation:linearRGB;"><path style="stroke:none;" d="M3.3516 -18.3438 L2.2109 -18.3438 L-2.4766 -25.5312 L-2.5234 -25.5312 Q-2.4297 -24.2656 -2.4297 -23.2188 L-2.4297 -18.3438 L-3.3516 -18.3438 L-3.3516 -26.9062 L-2.2266 -26.9062 L2.4453 -19.75 L2.4922 -19.75 Q2.4922 -19.9062 2.4453 -20.7656 Q2.3984 -21.625 2.4141 -22 L2.4141 -26.9062 L3.3516 -26.9062 L3.3516 -18.3438 Z"/><path style="stroke:none;" d="M3.2578 -27.9062 L2.2578 -27.9062 L2.2578 -31.9375 L-2.2578 -31.9375 L-2.2578 -27.9062 L-3.2578 -27.9062 L-3.2578 -36.4688 L-2.2578 -36.4688 L-2.2578 -32.8281 L2.2578 -32.8281 L2.2578 -36.4688 L3.2578 -36.4688 L3.2578 -27.9062 Z"/></g><g transform="translate(118,39)" style="stroke-linecap:butt; text-rendering:geometricPrecision; color-rendering:optimizeQuality; image-rendering:optimizeQuality; font-family:'Open Sans'; color-interpolation:linearRGB; stroke-miterlimit:5;"><path style="fill:none;" d="M-25.547 -7.75 L-25.98 -7.5 L-26.413 -7.75"/><path style="fill:none;" d="M25.547 -7.75 L25.98 -7.5 L26.413 -7.75"/><path style="fill:rgb(0,5,255); stroke:none;" d="M-48.6114 -18.3438 L-49.7521 -18.3438 L-54.4396 -25.5312 L-54.4864 -25.5312 Q-54.3927 -24.2656 -54.3927 -23.2188 L-54.3927 -18.3438 L-55.3146 -18.3438 L-55.3146 -26.9062 L-54.1896 -26.9062 L-49.5177 -19.75 L-49.4708 -19.75 Q-49.4708 -19.9062 -49.5177 -20.7656 Q-49.5646 -21.625 -49.5489 -22 L-49.5489 -26.9062 L-48.6114 -26.9062 L-48.6114 -18.3438 Z"/><path style="fill:rgb(0,5,255); stroke:none;" d="M-48.7052 -27.9062 L-49.7052 -27.9062 L-49.7052 -31.9375 L-54.2208 -31.9375 L-54.2208 -27.9062 L-55.2208 -27.9062 L-55.2208 -36.4688 L-54.2208 -36.4688 L-54.2208 -32.8281 L-49.7052 -32.8281 L-49.7052 -36.4688 L-48.7052 -36.4688 L-48.7052 -27.9062 Z"/><path style="fill:rgb(0,5,255); stroke:none;" d="M-22.6284 26.6562 L-23.7691 26.6562 L-28.4566 19.4688 L-28.5034 19.4688 Q-28.4097 20.7344 -28.4097 21.7812 L-28.4097 26.6562 L-29.3316 26.6562 L-29.3316 18.0938 L-28.2066 18.0938 L-23.5347 25.25 L-23.4878 25.25 Q-23.4878 25.0938 -23.5347 24.2344 Q-23.5816 23.375 -23.5659 23 L-23.5659 18.0938 L-22.6284 18.0938 L-22.6284 26.6562 Z"/><path style="fill:rgb(0,5,255); stroke:none;" d="M-15.1128 26.6562 L-16.1128 26.6562 L-16.1128 22.625 L-20.6284 22.625 L-20.6284 26.6562 L-21.6284 26.6562 L-21.6284 18.0938 L-20.6284 18.0938 L-20.6284 21.7344 L-16.1128 21.7344 L-16.1128 18.0938 L-15.1128 18.0938 L-15.1128 26.6562 Z"/><path style="fill:none;" d="M51.53 -22.25 L51.963 -22.5 L52.396 -22.25"/><path style="fill:none;" d="M-77.51 -7.75 L-77.943 -7.5 L-77.943 -7"/><path style="fill:none;" d="M77.51 -7.75 L77.943 -7.5 L78.376 -7.75"/><path style="fill:rgb(0,5,255); stroke:none;" d="M-100.5714 -18.3438 L-101.7121 -18.3438 L-106.3996 -25.5312 L-106.4464 -25.5312 Q-106.3527 -24.2656 -106.3527 -23.2188 L-106.3527 -18.3438 L-107.2746 -18.3438 L-107.2746 -26.9062 L-106.1496 -26.9062 L-101.4777 -19.75 L-101.4308 -19.75 Q-101.4308 -19.9062 -101.4777 -20.7656 Q-101.5246 -21.625 -101.5089 -22 L-101.5089 -26.9062 L-100.5714 -26.9062 L-100.5714 -18.3438 Z"/><path style="fill:rgb(0,5,255); stroke:none;" d="M-108.2746 -18.3438 L-109.2746 -18.3438 L-109.2746 -22.375 L-113.7902 -22.375 L-113.7902 -18.3438 L-114.7902 -18.3438 L-114.7902 -26.9062 L-113.7902 -26.9062 L-113.7902 -23.2656 L-109.2746 -23.2656 L-109.2746 -26.9062 L-108.2746 -26.9062 L-108.2746 -18.3438 Z"/><path style="fill:rgb(0,5,255); stroke:none;" d="M-74.5914 26.6562 L-75.7321 26.6562 L-80.4196 19.4688 L-80.4664 19.4688 Q-80.3727 20.7344 -80.3727 21.7812 L-80.3727 26.6562 L-81.2946 26.6562 L-81.2946 18.0938 L-80.1696 18.0938 L-75.4977 25.25 L-75.4508 25.25 Q-75.4508 25.0938 -75.4977 24.2344 Q-75.5446 23.375 -75.5289 23 L-75.5289 18.0938 L-74.5914 18.0938 L-74.5914 26.6562 Z"/><path style="fill:rgb(0,5,255); stroke:none;" d="M-67.0758 26.6562 L-68.0758 26.6562 L-68.0758 22.625 L-72.5914 22.625 L-72.5914 26.6562 L-73.5914 26.6562 L-73.5914 18.0938 L-72.5914 18.0938 L-72.5914 21.7344 L-68.0758 21.7344 L-68.0758 18.0938 L-67.0758 18.0938 L-67.0758 26.6562 Z"/><path style="fill:rgb(0,5,255); stroke:none;" d="M-62.3258 28.4656 L-66.0758 28.4656 L-66.0758 27.9031 L-64.5758 26.3875 Q-63.8883 25.7 -63.6696 25.4031 Q-63.4508 25.1063 -63.3414 24.825 Q-63.2321 24.5438 -63.2321 24.2156 Q-63.2321 23.7625 -63.5055 23.4969 Q-63.7789 23.2313 -64.2789 23.2313 Q-64.6227 23.2313 -64.943 23.3484 Q-65.2633 23.4656 -65.6539 23.7625 L-65.9977 23.325 Q-65.2164 22.6688 -64.2789 22.6688 Q-63.4821 22.6688 -63.0211 23.0828 Q-62.5602 23.4969 -62.5602 24.1844 Q-62.5602 24.7313 -62.8649 25.2625 Q-63.1696 25.7938 -64.0133 26.6063 L-65.2633 27.825 L-65.2633 27.8563 L-62.3258 27.8563 L-62.3258 28.4656 Z"/></g></g></svg></svg><svg y="71" x="104" class="cas-substance-saf"><svg y="5" x="0" width="4" style="fill:black;" height="4" class="cas-substance-saf-dot"><circle stroke="none" r="2" fill="black" cy="2" cx="2"/></svg><svg y="0" x="8" width="22" style="fill:black;" height="15" class="cas-substance-saf-image"><svg><g><g transform="translate(6,8)" style="fill:rgb(0,138,0); text-rendering:geometricPrecision; color-rendering:optimizeQuality; image-rendering:optimizeQuality; font-family:'Open Sans'; stroke:rgb(0,138,0); color-interpolation:linearRGB;"><path style="stroke:none;" d="M3.2578 4.1562 L2.2578 4.1562 L2.2578 0.125 L-2.2578 0.125 L-2.2578 4.1562 L-3.2578 4.1562 L-3.2578 -4.4062 L-2.2578 -4.4062 L-2.2578 -0.7656 L2.2578 -0.7656 L2.2578 -4.4062 L3.2578 -4.4062 L3.2578 4.1562 Z"/><path style="stroke:none;" d="M8.3672 -3.6406 Q6.9609 -3.6406 6.1406 -2.7031 Q5.3203 -1.7656 5.3203 -0.125 Q5.3203 1.5469 6.1094 2.4688 Q6.8984 3.3906 8.3516 3.3906 Q9.2578 3.3906 10.3984 3.0625 L10.3984 3.9375 Q9.5078 4.2812 8.2109 4.2812 Q6.3203 4.2812 5.2891 3.125 Q4.2578 1.9688 4.2578 -0.1406 Q4.2578 -1.4688 4.75 -2.4609 Q5.2422 -3.4531 6.1797 -3.9922 Q7.1172 -4.5312 8.3828 -4.5312 Q9.7266 -4.5312 10.7422 -4.0469 L10.3203 -3.1875 Q9.3359 -3.6406 8.3672 -3.6406 ZM13.0938 4.1562 L12.125 4.1562 L12.125 -4.9688 L13.0938 -4.9688 L13.0938 4.1562 Z"/></g></g></svg></svg></svg></svg></svg>