<svg width="443" viewBox="0 0 443 194" style="fill-opacity:1; color-rendering:auto; color-interpolation:auto; text-rendering:auto; stroke:black; stroke-linecap:square; stroke-miterlimit:10; shape-rendering:auto; stroke-opacity:1; fill:black; stroke-dasharray:none; font-weight:normal; stroke-width:1; font-family:'Open Sans'; font-style:normal; stroke-linejoin:miter; font-size:12; stroke-dashoffset:0; image-rendering:auto;" height="194" class="cas-substance-image" xmlns:xlink="http://www.w3.org/1999/xlink" xmlns="http://www.w3.org/2000/svg"><svg class="cas-substance-single-component"><rect y="0" x="0" width="443" stroke="none" ry="7" rx="7" height="194" fill="white" class="cas-substance-group"/><svg y="0" x="0" width="443" viewBox="0 0 443 194" style="fill:black;" height="194" class="cas-substance-single-component-image"><svg><g><g transform="translate(221,97)" style="text-rendering:geometricPrecision; color-rendering:optimizeQuality; color-interpolation:linearRGB; stroke-linecap:butt; image-rendering:optimizeQuality;"><line y2="17.1557" y1="37.5" x2="75.1669" x1="86.913" style="fill:none;"/><line y2="56.8833" y1="35.75" x2="73.701" x1="85.9026" style="fill:none;"/><line y2="58.6333" y1="37.5" x2="76.732" x1="88.9337" style="fill:none;"/><line y2="37.5" y1="37.5" x2="116.913" x1="86.913" style="fill:none;"/><line y2="11.52" y1="11.52" x2="41.913" x1="65.9755" style="fill:none;"/><line y2="-14.463" y1="11.52" x2="26.913" x1="41.913" style="fill:none;"/><line y2="0.537" y1="-14.463" x2="0.933" x1="26.913" style="fill:none;"/><path style="stroke:none;" d="M27.163 -14.03 L26.663 -14.896 L53.393 -32.9271 L53.393 -25.9989 Z"/><path style="stroke:none;" d="M18.067 -35.6266 L13.0055 -32.7078 L13.0055 -32.7078 L13.5979 -31.8947 L13.5979 -31.8947 L18.4749 -34.7071 L18.4749 -34.7071 L18.067 -35.6266 ZM19.2908 -32.8682 L14.7827 -30.2685 L15.3751 -29.4554 L15.3751 -29.4554 L19.6988 -31.9488 L19.6988 -31.9488 L19.2908 -32.8682 ZM20.5147 -30.1099 L16.5598 -27.8292 L16.5598 -27.8292 L17.1522 -27.0161 L17.1522 -27.0161 L20.9226 -29.1904 L20.9226 -29.1904 L20.5147 -30.1099 ZM21.7385 -27.3515 L18.337 -25.3899 L18.337 -25.3899 L18.9294 -24.5768 L18.9294 -24.5768 L22.1465 -26.432 L22.1465 -26.432 L21.7385 -27.3515 ZM22.9623 -24.5931 L20.1141 -22.9507 L20.1141 -22.9507 L20.7065 -22.1376 L23.3703 -23.6737 L23.3703 -23.6737 L22.9623 -24.5931 ZM24.1862 -21.8347 L21.8913 -20.5114 L22.4837 -19.6983 L22.4837 -19.6983 L24.5941 -20.9153 L24.1862 -21.8347 ZM25.41 -19.0764 L23.6685 -18.0721 L24.2608 -17.259 L25.818 -18.1569 L25.41 -19.0764 ZM26.6339 -16.318 L25.4456 -15.6328 L25.4456 -15.6328 L26.038 -14.8197 L26.038 -14.8197 L27.0418 -15.3985 L27.0418 -15.3985 L26.6339 -16.318 Z"/><line y2="-14.463" y1="0.537" x2="-25.047" x1="0.933" style="fill:none;"/><path style="stroke:none;" d="M0.352 1.2987 L0.2458 2.2987 L1.6202 2.2987 L1.514 1.2987 ZM0.0332 4.2987 L-0.0731 5.2987 L1.9391 5.2987 L1.8328 4.2987 ZM-0.2856 7.2987 L-0.3919 8.2987 L2.2579 8.2987 L2.1516 7.2987 ZM-0.6044 10.2987 L-0.7107 11.2987 L2.5767 11.2987 L2.4704 10.2987 ZM-0.9233 13.2987 L-1.0296 14.2987 L2.8956 14.2987 L2.7893 13.2987 ZM-1.2421 16.2987 L-1.3484 17.2987 L3.2144 17.2987 L3.1081 16.2987 ZM-1.5609 19.2987 L-1.6672 20.2987 L3.5332 20.2987 L3.4269 19.2987 ZM-1.8798 22.2987 L-1.986 23.2987 L3.852 23.2987 L3.7458 22.2987 Z"/><line y2="-53.1114" y1="-29.463" x2="52.893" x1="52.893" style="fill:none;"/><line y2="-53.1114" y1="-31.4837" x2="49.393" x1="49.393" style="fill:none;"/><line y2="0.537" y1="-14.463" x2="-51.03" x1="-25.047" style="fill:none;"/><path style="stroke:none;" d="M-24.547 -14.463 L-25.547 -14.463 L-28.047 -38.1114 L-22.047 -38.1114 Z"/><line y2="-11.2844" y1="0.537" x2="-71.5046" x1="-51.03" style="fill:none;"/><line y2="0.537" y1="-11.2742" x2="-102.99" x1="-82.533" style="fill:none;"/><line y2="24.0604" y1="-0.4734" x2="-104.74" x1="-104.74" style="fill:none;"/><line y2="24.0604" y1="-0.4734" x2="-101.24" x1="-101.24" style="fill:none;"/><line y2="-14.463" y1="0.537" x2="-128.97" x1="-102.99" style="fill:none;"/><line y2="63.48" y1="83.7352" x2="161.913" x1="173.6063" style="fill:none;"/><line y2="11.52" y1="-8.812" x2="161.913" x1="173.652" style="fill:none;"/><line y2="37.5" y1="37.5" x2="176.913" x1="200.9755" style="fill:none;"/><line y2="-59.463" y1="-83.1114" x2="-154.953" x1="-154.953" style="fill:none;"/><line y2="-14.463" y1="-2.689" x2="-180.933" x1="-201.3255" style="fill:none;"/><line y2="-44.463" y1="-56.2844" x2="-180.933" x1="-201.4076" style="fill:none;"/><line y2="63.48" y1="37.5" x2="131.913" x1="116.913" style="fill:none;"/><line y2="59.98" y1="37.5" x2="133.9337" x1="120.9545" style="fill:none;"/><line y2="11.52" y1="37.5" x2="131.913" x1="116.913" style="fill:none;"/><line y2="63.48" y1="63.48" x2="161.913" x1="131.913" style="fill:none;"/><line y2="11.52" y1="11.52" x2="161.913" x1="131.913" style="fill:none;"/><line y2="15.02" y1="15.02" x2="159.8923" x1="133.9337" style="fill:none;"/><line y2="37.5" y1="63.48" x2="176.913" x1="161.913" style="fill:none;"/><line y2="37.5" y1="59.98" x2="172.8715" x1="159.8923" style="fill:none;"/><line y2="37.5" y1="11.52" x2="176.913" x1="161.913" style="fill:none;"/><line y2="-44.463" y1="-14.463" x2="-128.97" x1="-128.97" style="fill:none;"/><line y2="-42.4423" y1="-16.4837" x2="-132.47" x1="-132.47" style="fill:none;"/><line y2="0.537" y1="-14.463" x2="-154.953" x1="-128.97" style="fill:none;"/><line y2="-59.463" y1="-44.463" x2="-154.953" x1="-128.97" style="fill:none;"/><line y2="-14.463" y1="0.537" x2="-180.933" x1="-154.953" style="fill:none;"/><line y2="-16.4837" y1="-3.5045" x2="-177.433" x1="-154.9529" style="fill:none;"/><line y2="-44.463" y1="-59.463" x2="-180.933" x1="-154.953" style="fill:none;"/><line y2="-42.4423" y1="-55.4216" x2="-177.433" x1="-154.9529" style="fill:none;"/><line y2="-44.463" y1="-14.463" x2="-180.933" x1="-180.933" style="fill:none;"/><path style="fill:none; stroke-miterlimit:5;" d="M86.663 37.067 L86.913 37.5 L87.413 37.5"/></g><g transform="translate(221,97)" style="stroke-linecap:butt; fill:rgb(230,0,0); text-rendering:geometricPrecision; color-rendering:optimizeQuality; image-rendering:optimizeQuality; font-family:'Open Sans'; stroke:rgb(230,0,0); color-interpolation:linearRGB; stroke-miterlimit:5;"><path style="stroke:none;" d="M75.8505 11.4497 Q75.8505 13.5122 74.8114 14.6919 Q73.7724 15.8716 71.9286 15.8716 Q70.038 15.8716 69.0068 14.7075 Q67.9755 13.5434 67.9755 11.4341 Q67.9755 9.3403 69.0068 8.1919 Q70.038 7.0434 71.9286 7.0434 Q73.788 7.0434 74.8193 8.2153 Q75.8505 9.3872 75.8505 11.4497 ZM69.0224 11.4497 Q69.0224 13.1841 69.7646 14.0903 Q70.5068 14.9966 71.9286 14.9966 Q73.3505 14.9966 74.0771 14.0981 Q74.8036 13.1997 74.8036 11.4497 Q74.8036 9.7153 74.0771 8.8247 Q73.3505 7.9341 71.9286 7.9341 Q70.5068 7.9341 69.7646 8.8325 Q69.0224 9.7309 69.0224 11.4497 Z"/><path style="stroke:none;" d="M75.8505 63.4097 Q75.8505 65.4722 74.8114 66.6519 Q73.7724 67.8316 71.9286 67.8316 Q70.038 67.8316 69.0068 66.6675 Q67.9755 65.5034 67.9755 63.3941 Q67.9755 61.3003 69.0068 60.1519 Q70.038 59.0034 71.9286 59.0034 Q73.788 59.0034 74.8193 60.1753 Q75.8505 61.3472 75.8505 63.4097 ZM69.0224 63.4097 Q69.0224 65.1441 69.7646 66.0503 Q70.5068 66.9566 71.9286 66.9566 Q73.3505 66.9566 74.0771 66.0581 Q74.8036 65.1597 74.8036 63.4097 Q74.8036 61.6753 74.0771 60.7847 Q73.3505 59.8941 71.9286 59.8941 Q70.5068 59.8941 69.7646 60.7925 Q69.0224 61.6909 69.0224 63.4097 Z"/><path style="fill:none; stroke:black;" d="M42.413 11.52 L41.913 11.52 L41.663 11.087"/><path style="fill:none; stroke:black;" d="M26.663 -14.896 L26.913 -14.463 L26.48 -14.213"/></g><g transform="translate(221,97)" style="stroke-linecap:butt; font-size:8.4px; fill:gray; text-rendering:geometricPrecision; image-rendering:optimizeQuality; color-rendering:optimizeQuality; font-family:'Open Sans'; font-style:italic; stroke:gray; color-interpolation:linearRGB; stroke-miterlimit:5;"><path style="stroke:none;" d="M25.1122 -22.9583 Q25.1122 -24.2864 25.5809 -25.4114 Q26.0497 -26.5364 27.0809 -27.6145 L27.6903 -27.6145 Q26.7216 -26.552 26.2372 -25.3802 Q25.7528 -24.2083 25.7528 -22.9739 Q25.7528 -21.6458 26.1903 -20.6302 L25.6747 -20.6302 Q25.1122 -21.6614 25.1122 -22.9583 ZM28.6722 -24.2708 L28.1722 -21.8958 L27.516 -21.8958 L28.7191 -27.6145 L29.9691 -27.6145 Q31.7035 -27.6145 31.7035 -26.177 Q31.7035 -24.8177 30.266 -24.427 L31.2035 -21.8958 L30.4847 -21.8958 L29.6566 -24.2708 L28.6722 -24.2708 ZM29.2504 -27.0208 Q28.8597 -25.0989 28.7972 -24.8489 L29.4535 -24.8489 Q30.2035 -24.8489 30.6097 -25.177 Q31.016 -25.5052 31.016 -26.1302 Q31.016 -26.5989 30.7582 -26.8099 Q30.5004 -27.0208 29.9066 -27.0208 L29.2504 -27.0208 ZM33.8895 -25.2708 Q33.8895 -23.9427 33.4129 -22.8099 Q32.9363 -21.677 31.9207 -20.6302 L31.3113 -20.6302 Q33.2488 -22.7864 33.2488 -25.2708 Q33.2488 -26.5989 32.8113 -27.6145 L33.327 -27.6145 Q33.8895 -26.552 33.8895 -25.2708 Z"/><path style="fill:none; stroke:black;" d="M1.366 0.287 L0.933 0.537 L0.5 0.287"/><path style="stroke:none;" d="M-3.4556 -8.2989 Q-3.4556 -9.6271 -2.9869 -10.7521 Q-2.5181 -11.8771 -1.4869 -12.9552 L-0.8775 -12.9552 Q-1.8463 -11.8927 -2.3306 -10.7208 Q-2.815 -9.5489 -2.815 -8.3146 Q-2.815 -6.9864 -2.3775 -5.9708 L-2.8931 -5.9708 Q-3.4556 -7.0021 -3.4556 -8.2989 ZM0.1044 -9.6114 L-0.3956 -7.2364 L-1.0518 -7.2364 L0.1513 -12.9552 L1.4013 -12.9552 Q3.1357 -12.9552 3.1357 -11.5177 Q3.1357 -10.1583 1.6982 -9.7677 L2.6357 -7.2364 L1.9169 -7.2364 L1.0888 -9.6114 L0.1044 -9.6114 ZM0.6825 -12.3614 Q0.2919 -10.4396 0.2294 -10.1896 L0.8857 -10.1896 Q1.6357 -10.1896 2.0419 -10.5177 Q2.4482 -10.8458 2.4482 -11.4708 Q2.4482 -11.9396 2.1904 -12.1505 Q1.9325 -12.3614 1.3388 -12.3614 L0.6825 -12.3614 ZM5.3216 -10.6114 Q5.3216 -9.2833 4.8451 -8.1505 Q4.3685 -7.0177 3.3529 -5.9708 L2.7435 -5.9708 Q4.681 -8.1271 4.681 -10.6114 Q4.681 -11.9396 4.2435 -12.9552 L4.7591 -12.9552 Q5.3216 -11.8927 5.3216 -10.6114 Z"/></g><g transform="translate(221,97)" style="stroke-linecap:butt; fill:rgb(230,0,0); text-rendering:geometricPrecision; color-rendering:optimizeQuality; image-rendering:optimizeQuality; font-family:'Open Sans'; stroke:rgb(230,0,0); color-interpolation:linearRGB; stroke-miterlimit:5;"><path style="stroke:none;" d="M15.8505 -40.5133 Q15.8505 -38.4508 14.8114 -37.2711 Q13.7724 -36.0914 11.9286 -36.0914 Q10.038 -36.0914 9.0068 -37.2555 Q7.9755 -38.4196 7.9755 -40.5289 Q7.9755 -42.6227 9.0068 -43.7711 Q10.038 -44.9196 11.9286 -44.9196 Q13.788 -44.9196 14.8193 -43.7477 Q15.8505 -42.5758 15.8505 -40.5133 ZM9.0224 -40.5133 Q9.0224 -38.7789 9.7646 -37.8727 Q10.5068 -36.9664 11.9286 -36.9664 Q13.3505 -36.9664 14.0771 -37.8649 Q14.8036 -38.7633 14.8036 -40.5133 Q14.8036 -42.2477 14.0771 -43.1383 Q13.3505 -44.0289 11.9286 -44.0289 Q10.5068 -44.0289 9.7646 -43.1305 Q9.0224 -42.2321 9.0224 -40.5133 Z"/><path style="stroke:none;" d="M6.9755 -36.2164 L5.9755 -36.2164 L5.9755 -40.2477 L1.4599 -40.2477 L1.4599 -36.2164 L0.4599 -36.2164 L0.4599 -44.7789 L1.4599 -44.7789 L1.4599 -41.1383 L5.9755 -41.1383 L5.9755 -44.7789 L6.9755 -44.7789 L6.9755 -36.2164 Z"/></g><g transform="translate(221,97)" style="stroke-linecap:butt; font-size:8.4px; fill:gray; text-rendering:geometricPrecision; image-rendering:optimizeQuality; color-rendering:optimizeQuality; font-family:'Open Sans'; font-style:italic; stroke:gray; color-interpolation:linearRGB; stroke-miterlimit:5;"><path style="stroke:none;" d="M-38.096 -18.2988 Q-38.096 -19.627 -37.6272 -20.752 Q-37.1585 -21.877 -36.1272 -22.9551 L-35.5178 -22.9551 Q-36.4866 -21.8926 -36.971 -20.7207 Q-37.4553 -19.5488 -37.4553 -18.3145 Q-37.4553 -16.9863 -37.0178 -15.9707 L-37.5335 -15.9707 Q-38.096 -17.002 -38.096 -18.2988 ZM-34.5359 -19.6113 L-35.0359 -17.2363 L-35.6922 -17.2363 L-34.489 -22.9551 L-33.239 -22.9551 Q-31.5047 -22.9551 -31.5047 -21.5176 Q-31.5047 -20.1582 -32.9422 -19.7676 L-32.0047 -17.2363 L-32.7234 -17.2363 L-33.5515 -19.6113 L-34.5359 -19.6113 ZM-33.9578 -22.3613 Q-34.3484 -20.4395 -34.4109 -20.1895 L-33.7547 -20.1895 Q-33.0047 -20.1895 -32.5984 -20.5176 Q-32.1922 -20.8457 -32.1922 -21.4707 Q-32.1922 -21.9395 -32.45 -22.1504 Q-32.7078 -22.3613 -33.3015 -22.3613 L-33.9578 -22.3613 ZM-29.3187 -20.6113 Q-29.3187 -19.2832 -29.7952 -18.1504 Q-30.2718 -17.0176 -31.2874 -15.9707 L-31.8968 -15.9707 Q-29.9593 -18.127 -29.9593 -20.6113 Q-29.9593 -21.9395 -30.3968 -22.9551 L-29.8812 -22.9551 Q-29.3187 -21.8926 -29.3187 -20.6113 Z"/></g><g transform="translate(221,97)" style="stroke-linecap:butt; fill:rgb(230,0,0); text-rendering:geometricPrecision; color-rendering:optimizeQuality; image-rendering:optimizeQuality; font-family:'Open Sans'; stroke:rgb(230,0,0); color-interpolation:linearRGB; stroke-miterlimit:5;"><path style="stroke:none;" d="M4.8705 30.4667 Q4.8705 32.5292 3.8314 33.7089 Q2.7924 34.8886 0.9486 34.8886 Q-0.942 34.8886 -1.9732 33.7245 Q-3.0045 32.5604 -3.0045 30.4511 Q-3.0045 28.3573 -1.9732 27.2089 Q-0.942 26.0604 0.9486 26.0604 Q2.808 26.0604 3.8393 27.2323 Q4.8705 28.4042 4.8705 30.4667 ZM-1.9576 30.4667 Q-1.9576 32.2011 -1.2154 33.1073 Q-0.4732 34.0136 0.9486 34.0136 Q2.3705 34.0136 3.0971 33.1151 Q3.8236 32.2167 3.8236 30.4667 Q3.8236 28.7323 3.0971 27.8417 Q2.3705 26.9511 0.9486 26.9511 Q-0.4732 26.9511 -1.2154 27.8495 Q-1.9576 28.7479 -1.9576 30.4667 Z"/><path style="stroke:none;" d="M12.3861 34.7636 L11.3861 34.7636 L11.3861 30.7323 L6.8705 30.7323 L6.8705 34.7636 L5.8705 34.7636 L5.8705 26.2011 L6.8705 26.2011 L6.8705 29.8417 L11.3861 29.8417 L11.3861 26.2011 L12.3861 26.2011 L12.3861 34.7636 Z"/><path transform="translate(-1.75,-0)" style="stroke:none;" d="M56.8305 -59.5333 Q56.8305 -57.4708 55.7914 -56.2911 Q54.7524 -55.1114 52.9086 -55.1114 Q51.018 -55.1114 49.9868 -56.2755 Q48.9555 -57.4396 48.9555 -59.5489 Q48.9555 -61.6427 49.9868 -62.7911 Q51.018 -63.9396 52.9086 -63.9396 Q54.768 -63.9396 55.7993 -62.7677 Q56.8305 -61.5958 56.8305 -59.5333 ZM50.0024 -59.5333 Q50.0024 -57.7989 50.7446 -56.8927 Q51.4868 -55.9864 52.9086 -55.9864 Q54.3305 -55.9864 55.0571 -56.8849 Q55.7836 -57.7833 55.7836 -59.5333 Q55.7836 -61.2677 55.0571 -62.1583 Q54.3305 -63.0489 52.9086 -63.0489 Q51.4868 -63.0489 50.7446 -62.1505 Q50.0024 -61.2521 50.0024 -59.5333 Z"/></g><g transform="matrix(1,0,0,1,221,97)" style="stroke-linecap:butt; text-rendering:geometricPrecision; color-rendering:optimizeQuality; image-rendering:optimizeQuality; font-family:'Open Sans'; color-interpolation:linearRGB; stroke-miterlimit:5;"><path style="fill:none;" d="M-50.597 0.287 L-51.03 0.537 L-51.463 0.287"/><path style="fill:rgb(230,0,0); stroke:none;" d="M-21.1095 -44.5333 Q-21.1095 -42.4708 -22.1486 -41.2911 Q-23.1876 -40.1114 -25.0314 -40.1114 Q-26.922 -40.1114 -27.9533 -41.2755 Q-28.9845 -42.4396 -28.9845 -44.5489 Q-28.9845 -46.6427 -27.9533 -47.7911 Q-26.922 -48.9396 -25.0314 -48.9396 Q-23.172 -48.9396 -22.1408 -47.7677 Q-21.1095 -46.5958 -21.1095 -44.5333 ZM-27.9376 -44.5333 Q-27.9376 -42.7989 -27.1954 -41.8927 Q-26.4533 -40.9864 -25.0314 -40.9864 Q-23.6095 -40.9864 -22.8829 -41.8849 Q-22.1564 -42.7833 -22.1564 -44.5333 Q-22.1564 -46.2677 -22.8829 -47.1583 Q-23.6095 -48.0489 -25.0314 -48.0489 Q-26.4533 -48.0489 -27.1954 -47.1505 Q-27.9376 -46.2521 -27.9376 -44.5333 Z"/><path style="fill:rgb(230,0,0); stroke:none;" d="M-13.5939 -40.2364 L-14.5939 -40.2364 L-14.5939 -44.2677 L-19.1095 -44.2677 L-19.1095 -40.2364 L-20.1095 -40.2364 L-20.1095 -48.7989 L-19.1095 -48.7989 L-19.1095 -45.1583 L-14.5939 -45.1583 L-14.5939 -48.7989 L-13.5939 -48.7989 L-13.5939 -40.2364 Z"/><path style="fill:rgb(230,0,0); stroke:none;" d="M-73.0725 -14.5333 Q-73.0725 -12.4708 -74.1116 -11.2911 Q-75.1506 -10.1114 -76.9944 -10.1114 Q-78.885 -10.1114 -79.9162 -11.2755 Q-80.9475 -12.4396 -80.9475 -14.5489 Q-80.9475 -16.6427 -79.9162 -17.7911 Q-78.885 -18.9396 -76.9944 -18.9396 Q-75.135 -18.9396 -74.1037 -17.7677 Q-73.0725 -16.5958 -73.0725 -14.5333 ZM-79.9006 -14.5333 Q-79.9006 -12.7989 -79.1584 -11.8927 Q-78.4162 -10.9864 -76.9944 -10.9864 Q-75.5725 -10.9864 -74.8459 -11.8849 Q-74.1194 -12.7833 -74.1194 -14.5333 Q-74.1194 -16.2677 -74.8459 -17.1583 Q-75.5725 -18.0489 -76.9944 -18.0489 Q-78.4162 -18.0489 -79.1584 -17.1505 Q-79.9006 -16.2521 -79.9006 -14.5333 Z"/><path style="fill:none;" d="M-102.557 0.287 L-102.99 0.537 L-103.423 0.287"/><path style="fill:rgb(230,0,0); stroke:none;" d="M-99.0525 30.4667 Q-99.0525 32.5292 -100.0916 33.7089 Q-101.1306 34.8886 -102.9744 34.8886 Q-104.865 34.8886 -105.8963 33.7245 Q-106.9275 32.5604 -106.9275 30.4511 Q-106.9275 28.3573 -105.8963 27.2089 Q-104.865 26.0604 -102.9744 26.0604 Q-101.115 26.0604 -100.0838 27.2323 Q-99.0525 28.4042 -99.0525 30.4667 ZM-105.8806 30.4667 Q-105.8806 32.2011 -105.1384 33.1073 Q-104.3963 34.0136 -102.9744 34.0136 Q-101.5525 34.0136 -100.8259 33.1151 Q-100.0994 32.2167 -100.0994 30.4667 Q-100.0994 28.7323 -100.8259 27.8417 Q-101.5525 26.9511 -102.9744 26.9511 Q-104.3963 26.9511 -105.1384 27.8495 Q-105.8806 28.7479 -105.8806 30.4667 Z"/><path style="fill:rgb(230,0,0); stroke:none;" d="M180.8505 89.3927 Q180.8505 91.4552 179.8114 92.6349 Q178.7724 93.8146 176.9286 93.8146 Q175.038 93.8146 174.0067 92.6505 Q172.9755 91.4864 172.9755 89.3771 Q172.9755 87.2833 174.0067 86.1349 Q175.038 84.9864 176.9286 84.9864 Q178.788 84.9864 179.8192 86.1583 Q180.8505 87.3302 180.8505 89.3927 ZM174.0224 89.3927 Q174.0224 91.1271 174.7646 92.0333 Q175.5067 92.9396 176.9286 92.9396 Q178.3505 92.9396 179.0771 92.0411 Q179.8036 91.1427 179.8036 89.3927 Q179.8036 87.6583 179.0771 86.7677 Q178.3505 85.8771 176.9286 85.8771 Q175.5067 85.8771 174.7646 86.7755 Q174.0224 87.6739 174.0224 89.3927 Z"/><path style="fill:rgb(230,0,0); stroke:none;" d="M188.3661 93.6896 L187.3661 93.6896 L187.3661 89.6583 L182.8505 89.6583 L182.8505 93.6896 L181.8505 93.6896 L181.8505 85.1271 L182.8505 85.1271 L182.8505 88.7677 L187.3661 88.7677 L187.3661 85.1271 L188.3661 85.1271 L188.3661 93.6896 Z"/><path style="fill:rgb(230,0,0); stroke:none;" d="M180.8505 -14.5303 Q180.8505 -12.4678 179.8114 -11.2881 Q178.7724 -10.1084 176.9286 -10.1084 Q175.038 -10.1084 174.0067 -11.2725 Q172.9755 -12.4366 172.9755 -14.5459 Q172.9755 -16.6397 174.0067 -17.7881 Q175.038 -18.9366 176.9286 -18.9366 Q178.788 -18.9366 179.8192 -17.7647 Q180.8505 -16.5928 180.8505 -14.5303 ZM174.0224 -14.5303 Q174.0224 -12.7959 174.7646 -11.8897 Q175.5067 -10.9834 176.9286 -10.9834 Q178.3505 -10.9834 179.0771 -11.8819 Q179.8036 -12.7803 179.8036 -14.5303 Q179.8036 -16.2647 179.0771 -17.1553 Q178.3505 -18.0459 176.9286 -18.0459 Q175.5067 -18.0459 174.7646 -17.1475 Q174.0224 -16.2491 174.0224 -14.5303 Z"/><path style="fill:rgb(230,0,0); stroke:none;" d="M188.3661 -10.2334 L187.3661 -10.2334 L187.3661 -14.2647 L182.8505 -14.2647 L182.8505 -10.2334 L181.8505 -10.2334 L181.8505 -18.7959 L182.8505 -18.7959 L182.8505 -15.1553 L187.3661 -15.1553 L187.3661 -18.7959 L188.3661 -18.7959 L188.3661 -10.2334 Z"/><path style="fill:rgb(230,0,0); stroke:none;" d="M210.8505 37.4297 Q210.8505 39.4922 209.8114 40.6719 Q208.7724 41.8516 206.9286 41.8516 Q205.038 41.8516 204.0067 40.6875 Q202.9755 39.5234 202.9755 37.4141 Q202.9755 35.3203 204.0067 34.1719 Q205.038 33.0234 206.9286 33.0234 Q208.788 33.0234 209.8192 34.1953 Q210.8505 35.3672 210.8505 37.4297 ZM204.0224 37.4297 Q204.0224 39.1641 204.7646 40.0703 Q205.5067 40.9766 206.9286 40.9766 Q208.3505 40.9766 209.0771 40.0781 Q209.8036 39.1797 209.8036 37.4297 Q209.8036 35.6953 209.0771 34.8047 Q208.3505 33.9141 206.9286 33.9141 Q205.5067 33.9141 204.7646 34.8125 Q204.0224 35.7109 204.0224 37.4297 Z"/><path style="fill:rgb(230,0,0); stroke:none;" d="M218.3661 41.7266 L217.3661 41.7266 L217.3661 37.6953 L212.8505 37.6953 L212.8505 41.7266 L211.8505 41.7266 L211.8505 33.1641 L212.8505 33.1641 L212.8505 36.8047 L217.3661 36.8047 L217.3661 33.1641 L218.3661 33.1641 L218.3661 41.7266 Z"/><path style="fill:rgb(230,0,0); stroke:none;" d="M-151.0155 -89.5333 Q-151.0155 -87.4708 -152.0546 -86.2911 Q-153.0936 -85.1114 -154.9374 -85.1114 Q-156.828 -85.1114 -157.8593 -86.2755 Q-158.8905 -87.4396 -158.8905 -89.5489 Q-158.8905 -91.6427 -157.8593 -92.7911 Q-156.828 -93.9396 -154.9374 -93.9396 Q-153.078 -93.9396 -152.0468 -92.7677 Q-151.0155 -91.5958 -151.0155 -89.5333 ZM-157.8436 -89.5333 Q-157.8436 -87.7989 -157.1014 -86.8927 Q-156.3593 -85.9864 -154.9374 -85.9864 Q-153.5155 -85.9864 -152.7889 -86.8849 Q-152.0624 -87.7833 -152.0624 -89.5333 Q-152.0624 -91.2677 -152.7889 -92.1583 Q-153.5155 -93.0489 -154.9374 -93.0489 Q-156.3593 -93.0489 -157.1014 -92.1505 Q-157.8436 -91.2521 -157.8436 -89.5333 Z"/><path style="fill:rgb(230,0,0); stroke:none;" d="M-143.4999 -85.2364 L-144.4999 -85.2364 L-144.4999 -89.2677 L-149.0155 -89.2677 L-149.0155 -85.2364 L-150.0155 -85.2364 L-150.0155 -93.7989 L-149.0155 -93.7989 L-149.0155 -90.1583 L-144.4999 -90.1583 L-144.4999 -93.7989 L-143.4999 -93.7989 L-143.4999 -85.2364 Z"/><path style="fill:rgb(230,0,0); stroke:none;" d="M-202.9755 0.4667 Q-202.9755 2.5292 -204.0146 3.7089 Q-205.0536 4.8886 -206.8974 4.8886 Q-208.788 4.8886 -209.8192 3.7245 Q-210.8505 2.5604 -210.8505 0.4511 Q-210.8505 -1.6427 -209.8192 -2.7911 Q-208.788 -3.9396 -206.8974 -3.9396 Q-205.038 -3.9396 -204.0067 -2.7677 Q-202.9755 -1.5958 -202.9755 0.4667 ZM-209.8036 0.4667 Q-209.8036 2.2011 -209.0614 3.1073 Q-208.3192 4.0136 -206.8974 4.0136 Q-205.4755 4.0136 -204.7489 3.1151 Q-204.0224 2.2167 -204.0224 0.4667 Q-204.0224 -1.2677 -204.7489 -2.1583 Q-205.4755 -3.0489 -206.8974 -3.0489 Q-208.3192 -3.0489 -209.0614 -2.1505 Q-209.8036 -1.2521 -209.8036 0.4667 Z"/><path style="fill:rgb(230,0,0); stroke:none;" d="M-211.8505 4.7636 L-212.8505 4.7636 L-212.8505 0.7323 L-217.3661 0.7323 L-217.3661 4.7636 L-218.3661 4.7636 L-218.3661 -3.7989 L-217.3661 -3.7989 L-217.3661 -0.1583 L-212.8505 -0.1583 L-212.8505 -3.7989 L-211.8505 -3.7989 L-211.8505 4.7636 Z"/><path style="fill:rgb(230,0,0); stroke:none;" d="M-202.9755 -59.5333 Q-202.9755 -57.4708 -204.0146 -56.2911 Q-205.0536 -55.1114 -206.8974 -55.1114 Q-208.788 -55.1114 -209.8192 -56.2755 Q-210.8505 -57.4396 -210.8505 -59.5489 Q-210.8505 -61.6427 -209.8192 -62.7911 Q-208.788 -63.9396 -206.8974 -63.9396 Q-205.038 -63.9396 -204.0067 -62.7677 Q-202.9755 -61.5958 -202.9755 -59.5333 ZM-209.8036 -59.5333 Q-209.8036 -57.7989 -209.0614 -56.8927 Q-208.3192 -55.9864 -206.8974 -55.9864 Q-205.4755 -55.9864 -204.7489 -56.8849 Q-204.0224 -57.7833 -204.0224 -59.5333 Q-204.0224 -61.2677 -204.7489 -62.1583 Q-205.4755 -63.0489 -206.8974 -63.0489 Q-208.3192 -63.0489 -209.0614 -62.1505 Q-209.8036 -61.2521 -209.8036 -59.5333 Z"/><path style="fill:rgb(230,0,0); stroke:none;" d="M-211.8505 -55.2364 L-212.8505 -55.2364 L-212.8505 -59.2677 L-217.3661 -59.2677 L-217.3661 -55.2364 L-218.3661 -55.2364 L-218.3661 -63.7989 L-217.3661 -63.7989 L-217.3661 -60.1583 L-212.8505 -60.1583 L-212.8505 -63.7989 L-211.8505 -63.7989 L-211.8505 -55.2364 Z"/><path style="fill:none;" d="M117.163 37.933 L116.913 37.5 L116.413 37.5"/><path style="fill:none;" d="M131.663 63.047 L131.913 63.48 L132.413 63.48"/><path style="fill:none;" d="M131.663 11.953 L131.913 11.52 L132.413 11.52"/><path style="fill:none;" d="M162.163 63.047 L161.913 63.48 L162.163 63.913"/><path style="fill:none;" d="M161.413 11.52 L161.913 11.52 L162.163 11.087"/><path style="fill:none;" d="M176.663 37.933 L176.913 37.5 L177.413 37.5"/><path style="fill:none;" d="M-128.97 -14.963 L-128.97 -14.463 L-128.537 -14.213"/><path style="fill:none;" d="M-128.97 -43.963 L-128.97 -44.463 L-129.403 -44.713"/><path style="fill:none;" d="M-154.52 0.287 L-154.953 0.537 L-155.386 0.287"/><path style="fill:none;" d="M-155.386 -59.213 L-154.953 -59.463 L-154.953 -59.963"/><path style="fill:none;" d="M-180.5 -14.213 L-180.933 -14.463 L-181.366 -14.213"/><path style="fill:none;" d="M-180.5 -44.713 L-180.933 -44.463 L-180.933 -43.963"/></g></g></svg></svg></svg></svg>