<svg xmlns:ns0="http://www.w3.org/2000/svg" xmlns="http://www.w3.org/2000/svg"><g transform="translate(0, 0)"><ns0:svg width="145" viewBox="0 0 145 71" style="fill-opacity:1; color-rendering:auto; color-interpolation:auto; text-rendering:auto; stroke:black; stroke-linecap:square; stroke-miterlimit:10; shape-rendering:auto; stroke-opacity:1; fill:black; stroke-dasharray:none; font-weight:normal; stroke-width:1; font-family:'Open Sans'; font-style:normal; stroke-linejoin:miter; font-size:12; stroke-dashoffset:0; image-rendering:auto;" height="71" class="cas-substance-image"><ns0:svg class="cas-substance-single-component"><ns0:rect y="0" x="0" width="145" stroke="none" ry="7" rx="7" height="71" fill="white" class="cas-substance-group" /><ns0:svg y="0" x="0" width="145" viewBox="0 0 145 56" style="fill:black;" height="56" class="cas-substance-single-component-image"><ns0:svg><ns0:g><ns0:g transform="translate(65,28)" style="text-rendering:geometricPrecision; color-rendering:optimizeQuality; color-interpolation:linearRGB; stroke-linecap:butt; image-rendering:optimizeQuality;"><ns0:line y2="0" y1="0" x2="36.5156" x1="55.8124" style="fill:none;" /><ns0:line y2="15" y1="-15" x2="-15" x1="-15" style="fill:none;" /><ns0:line y2="-24.27" y1="-15" x2="13.533" x1="-15" style="fill:none;" /><ns0:line y2="-24.27" y1="-15" x2="-43.533" x1="-15" style="fill:none;" /><ns0:line y2="24.27" y1="15" x2="13.533" x1="-15" style="fill:none;" /><ns0:line y2="24.27" y1="15" x2="-43.533" x1="-15" style="fill:none;" /><ns0:line y2="-6.0244" y1="-24.27" x2="26.7876" x1="13.533" style="fill:none;" /><ns0:line y2="0" y1="-24.27" x2="-61.164" x1="-43.533" style="fill:none;" /><ns0:line y2="5.7744" y1="24.27" x2="26.9692" x1="13.533" style="fill:none;" /><ns0:line y2="0" y1="24.27" x2="-61.164" x1="-43.533" style="fill:none;" /></ns0:g><ns0:g transform="translate(65,28)" style="fill:rgb(0,5,255); text-rendering:geometricPrecision; color-rendering:optimizeQuality; image-rendering:optimizeQuality; font-family:'Open Sans'; stroke:rgb(0,5,255); color-interpolation:linearRGB;"><ns0:path style="stroke:none;" d="M64.5156 4.1562 L63.3749 4.1562 L58.6874 -3.0312 L58.6406 -3.0312 Q58.7343 -1.7656 58.7343 -0.7188 L58.7343 4.1562 L57.8124 4.1562 L57.8124 -4.4062 L58.9374 -4.4062 L63.6093 2.75 L63.6562 2.75 Q63.6562 2.5938 63.6093 1.7344 Q63.5624 0.875 63.5781 0.5 L63.5781 -4.4062 L64.5156 -4.4062 L64.5156 4.1562 Z" /><ns0:path style="stroke:none;" d="M72.0312 4.1562 L71.0312 4.1562 L71.0312 0.125 L66.5156 0.125 L66.5156 4.1562 L65.5156 4.1562 L65.5156 -4.4062 L66.5156 -4.4062 L66.5156 -0.7656 L71.0312 -0.7656 L71.0312 -4.4062 L72.0312 -4.4062 L72.0312 4.1562 Z" /><ns0:path style="stroke:none;" d="M76.7812 5.9656 L73.0312 5.9656 L73.0312 5.4031 L74.5312 3.8875 Q75.2187 3.2 75.4374 2.9031 Q75.6562 2.6062 75.7656 2.325 Q75.8749 2.0437 75.8749 1.7156 Q75.8749 1.2625 75.6015 0.9969 Q75.3281 0.7312 74.8281 0.7312 Q74.4843 0.7312 74.164 0.8484 Q73.8437 0.9656 73.4531 1.2625 L73.1093 0.825 Q73.8906 0.1687 74.8281 0.1687 Q75.6249 0.1687 76.0859 0.5828 Q76.5468 0.9969 76.5468 1.6844 Q76.5468 2.2312 76.2421 2.7625 Q75.9374 3.2937 75.0937 4.1062 L73.8437 5.325 L73.8437 5.3562 L76.7812 5.3562 L76.7812 5.9656 Z" /></ns0:g><ns0:g transform="translate(65,28)" style="stroke-linecap:butt; font-size:8.4px; text-rendering:geometricPrecision; color-rendering:optimizeQuality; image-rendering:optimizeQuality; font-family:'Open Sans'; color-interpolation:linearRGB; stroke-miterlimit:5;"><ns0:path style="fill:none;" d="M13.0575 -24.1155 L13.533 -24.27 L13.8269 -23.8655" /><ns0:path style="fill:none;" d="M-43.0575 -24.1155 L-43.533 -24.27 L-43.8269 -23.8655" /><ns0:path style="fill:none;" d="M13.0575 24.1155 L13.533 24.27 L13.8269 23.8655" /><ns0:path style="fill:none;" d="M-43.0575 24.1155 L-43.533 24.27 L-43.8269 23.8655" /><ns0:path style="fill:rgb(0,5,255); stroke:none;" d="M34.5156 4.1562 L33.3749 4.1562 L28.6874 -3.0312 L28.6406 -3.0312 Q28.7343 -1.7656 28.7343 -0.7188 L28.7343 4.1562 L27.8124 4.1562 L27.8124 -4.4062 L28.9374 -4.4062 L33.6093 2.75 L33.6562 2.75 Q33.6562 2.5938 33.6093 1.7344 Q33.5624 0.875 33.5781 0.5 L33.5781 -4.4062 L34.5156 -4.4062 L34.5156 4.1562 Z" /><ns0:path style="fill:none;" d="M-60.8701 -0.4045 L-61.164 0 L-60.8701 0.4045" /></ns0:g></ns0:g></ns0:svg></ns0:svg><ns0:svg y="56" x="64" class="cas-substance-saf"><ns0:svg y="5" x="0" width="4" style="fill:black;" height="4" class="cas-substance-saf-dot"><ns0:circle stroke="none" r="2" fill="black" cy="2" cx="2" /></ns0:svg><ns0:svg y="0" x="8" width="22" style="fill:black;" height="15" class="cas-substance-saf-image"><ns0:svg><ns0:g><ns0:g transform="translate(6,8)" style="fill:rgb(0,138,0); text-rendering:geometricPrecision; color-rendering:optimizeQuality; image-rendering:optimizeQuality; font-family:'Open Sans'; stroke:rgb(0,138,0); color-interpolation:linearRGB;"><ns0:path style="stroke:none;" d="M3.2578 4.1562 L2.2578 4.1562 L2.2578 0.125 L-2.2578 0.125 L-2.2578 4.1562 L-3.2578 4.1562 L-3.2578 -4.4062 L-2.2578 -4.4062 L-2.2578 -0.7656 L2.2578 -0.7656 L2.2578 -4.4062 L3.2578 -4.4062 L3.2578 4.1562 Z" /><ns0:path style="stroke:none;" d="M8.3672 -3.6406 Q6.9609 -3.6406 6.1406 -2.7031 Q5.3203 -1.7656 5.3203 -0.125 Q5.3203 1.5469 6.1094 2.4688 Q6.8984 3.3906 8.3516 3.3906 Q9.2578 3.3906 10.3984 3.0625 L10.3984 3.9375 Q9.5078 4.2812 8.2109 4.2812 Q6.3203 4.2812 5.2891 3.125 Q4.2578 1.9688 4.2578 -0.1406 Q4.2578 -1.4688 4.75 -2.4609 Q5.2422 -3.4531 6.1797 -3.9922 Q7.1172 -4.5312 8.3828 -4.5312 Q9.7266 -4.5312 10.7422 -4.0469 L10.3203 -3.1875 Q9.3359 -3.6406 8.3672 -3.6406 ZM13.0938 4.1562 L12.125 4.1562 L12.125 -4.9688 L13.0938 -4.9688 L13.0938 4.1562 Z" /></ns0:g></ns0:g></ns0:svg></ns0:svg></ns0:svg></ns0:svg></ns0:svg></g></svg>