<svg xmlns:ns0="http://www.w3.org/2000/svg" xmlns="http://www.w3.org/2000/svg"><g transform="translate(0, 0)"><ns0:svg width="517" viewBox="0 0 517 119" style="fill-opacity:1; color-rendering:auto; color-interpolation:auto; text-rendering:auto; stroke:black; stroke-linecap:square; stroke-miterlimit:10; shape-rendering:auto; stroke-opacity:1; fill:black; stroke-dasharray:none; font-weight:normal; stroke-width:1; font-family:'Open Sans'; font-style:normal; stroke-linejoin:miter; font-size:12; stroke-dashoffset:0; image-rendering:auto;" height="119" class="cas-substance-image"><ns0:svg class="cas-substance-single-component"><ns0:rect y="0" x="0" width="517" stroke="none" ry="7" rx="7" height="119" fill="white" class="cas-substance-group" /><ns0:svg y="0" x="0" width="517" viewBox="0 0 517 119" style="fill:black;" height="119" class="cas-substance-single-component-image"><ns0:svg><ns0:g><ns0:g transform="translate(258,59)" style="text-rendering:geometricPrecision; color-rendering:optimizeQuality; color-interpolation:linearRGB; stroke-linecap:butt; image-rendering:optimizeQuality;"><ns0:line y2="-24.23" y1="-45.4521" x2="-106.0104" x1="-118.2619" style="fill:none;" /><ns0:line y2="-25.98" y1="-47.202" x2="-102.9793" x1="-115.2308" style="fill:none;" /><ns0:line y2="25.98" y1="47.116" x2="-102.9793" x1="-115.1812" style="fill:none;" /><ns0:line y2="24.23" y1="45.3661" x2="-106.0104" x1="-118.2123" style="fill:none;" /><ns0:line y2="-25.98" y1="-47.1897" x2="102.9793" x1="115.2237" style="fill:none;" /><ns0:line y2="-24.23" y1="-45.4399" x2="106.0104" x1="118.2549" style="fill:none;" /><ns0:line y2="24.23" y1="45.3602" x2="106.0104" x1="118.2089" style="fill:none;" /><ns0:line y2="25.98" y1="47.1101" x2="102.9793" x1="115.1777" style="fill:none;" /><ns0:line y2="-25.98" y1="-5.7276" x2="-255" x1="-243.3069" style="fill:none;" /><ns0:line y2="0" y1="0" x2="-210" x1="-234.0625" style="fill:none;" /><ns0:line y2="25.98" y1="5.6357" x2="255" x1="243.2539" style="fill:none;" /><ns0:line y2="0" y1="0" x2="210" x1="234.0625" style="fill:none;" /><ns0:line y2="0" y1="0" x2="-60" x1="-30" style="fill:none;" /><ns0:line y2="3.5" y1="3.5" x2="-57.9793" x1="-32.0207" style="fill:none;" /><ns0:line y2="25.98" y1="0" x2="-15" x1="-30" style="fill:none;" /><ns0:line y2="-25.98" y1="0" x2="-15" x1="-30" style="fill:none;" /><ns0:line y2="-25.98" y1="0" x2="-75" x1="-60" style="fill:none;" /><ns0:line y2="25.98" y1="0" x2="-75" x1="-60" style="fill:none;" /><ns0:line y2="25.98" y1="25.98" x2="15" x1="-15" style="fill:none;" /><ns0:line y2="51.963" y1="25.98" x2="-30" x1="-15" style="fill:none;" /><ns0:line y2="48.4631" y1="25.9802" x2="-32.0209" x1="-19.0415" style="fill:none;" /><ns0:line y2="-25.98" y1="-25.98" x2="15" x1="-15" style="fill:none;" /><ns0:line y2="-51.963" y1="-25.98" x2="-30" x1="-15" style="fill:none;" /><ns0:line y2="-48.4631" y1="-25.9802" x2="-32.0209" x1="-19.0415" style="fill:none;" /><ns0:line y2="-25.98" y1="-25.98" x2="-105" x1="-75" style="fill:none;" /><ns0:line y2="-51.963" y1="-25.98" x2="-60" x1="-75" style="fill:none;" /><ns0:line y2="-48.4631" y1="-25.9802" x2="-57.9791" x1="-70.9585" style="fill:none;" /><ns0:line y2="25.98" y1="25.98" x2="-105" x1="-75" style="fill:none;" /><ns0:line y2="51.963" y1="25.98" x2="-60" x1="-75" style="fill:none;" /><ns0:line y2="48.4631" y1="25.9802" x2="-57.9791" x1="-70.9585" style="fill:none;" /><ns0:line y2="0" y1="25.98" x2="30" x1="15" style="fill:none;" /><ns0:line y2="51.963" y1="25.98" x2="30" x1="15" style="fill:none;" /><ns0:line y2="48.4631" y1="25.9802" x2="32.0209" x1="19.0415" style="fill:none;" /><ns0:line y2="51.963" y1="51.963" x2="-60" x1="-30" style="fill:none;" /><ns0:line y2="0" y1="-25.98" x2="30" x1="15" style="fill:none;" /><ns0:line y2="-51.963" y1="-25.98" x2="30" x1="15" style="fill:none;" /><ns0:line y2="-48.4631" y1="-25.9802" x2="32.0209" x1="19.0415" style="fill:none;" /><ns0:line y2="-51.963" y1="-51.963" x2="-60" x1="-30" style="fill:none;" /><ns0:line y2="-6.1383" y1="-25.98" x2="-116.456" x1="-105" style="fill:none;" /><ns0:line y2="5.8883" y1="25.98" x2="-116.6003" x1="-105" style="fill:none;" /><ns0:line y2="0" y1="0" x2="60" x1="30" style="fill:none;" /><ns0:line y2="-3.5" y1="-3.5" x2="57.9793" x1="32.0207" style="fill:none;" /><ns0:line y2="51.963" y1="51.963" x2="60" x1="30" style="fill:none;" /><ns0:line y2="-51.96" y1="-51.963" x2="60" x1="30" style="fill:none;" /><ns0:line y2="0" y1="0" x2="-150" x1="-125.3516" style="fill:none;" /><ns0:line y2="-25.98" y1="0" x2="75" x1="60" style="fill:none;" /><ns0:line y2="25.98" y1="0" x2="75" x1="60" style="fill:none;" /><ns0:line y2="25.98" y1="51.963" x2="75" x1="60" style="fill:none;" /><ns0:line y2="25.9802" y1="48.4631" x2="70.9585" x1="57.9791" style="fill:none;" /><ns0:line y2="-25.98" y1="-51.96" x2="75" x1="60" style="fill:none;" /><ns0:line y2="-25.9799" y1="-48.46" x2="70.9585" x1="57.9793" style="fill:none;" /><ns0:line y2="-25.98" y1="-25.98" x2="105" x1="75" style="fill:none;" /><ns0:line y2="25.98" y1="25.98" x2="105" x1="75" style="fill:none;" /><ns0:line y2="-6.1383" y1="-25.98" x2="116.456" x1="105" style="fill:none;" /><ns0:line y2="5.8883" y1="25.98" x2="116.6003" x1="105" style="fill:none;" /><ns0:line y2="0" y1="0" x2="150" x1="125.3516" style="fill:none;" /><ns0:line y2="25.98" y1="0" x2="-165" x1="-150" style="fill:none;" /><ns0:line y2="22.48" y1="-0.0001" x2="-167.0207" x1="-154.0415" style="fill:none;" /><ns0:line y2="-25.98" y1="0" x2="-165" x1="-150" style="fill:none;" /><ns0:line y2="25.98" y1="25.98" x2="-195" x1="-165" style="fill:none;" /><ns0:line y2="-25.98" y1="-25.98" x2="-195" x1="-165" style="fill:none;" /><ns0:line y2="-22.48" y1="-22.48" x2="-192.9793" x1="-167.0207" style="fill:none;" /><ns0:line y2="0" y1="25.98" x2="-210" x1="-195" style="fill:none;" /><ns0:line y2="-0.0001" y1="22.48" x2="-205.9585" x1="-192.9793" style="fill:none;" /><ns0:line y2="0" y1="-25.98" x2="-210" x1="-195" style="fill:none;" /><ns0:line y2="25.98" y1="0" x2="165" x1="150" style="fill:none;" /><ns0:line y2="22.48" y1="-0.0001" x2="167.0207" x1="154.0415" style="fill:none;" /><ns0:line y2="-25.98" y1="0" x2="165" x1="150" style="fill:none;" /><ns0:line y2="25.98" y1="25.98" x2="195" x1="165" style="fill:none;" /><ns0:line y2="-25.98" y1="-25.98" x2="195" x1="165" style="fill:none;" /><ns0:line y2="-22.48" y1="-22.48" x2="192.9793" x1="167.0207" style="fill:none;" /><ns0:line y2="0" y1="25.98" x2="210" x1="195" style="fill:none;" /><ns0:line y2="-0.0001" y1="22.48" x2="205.9585" x1="192.9793" style="fill:none;" /><ns0:line y2="0" y1="-25.98" x2="210" x1="195" style="fill:none;" /></ns0:g><ns0:g transform="translate(258,59)" style="fill:rgb(230,0,0); text-rendering:geometricPrecision; color-rendering:optimizeQuality; image-rendering:optimizeQuality; font-family:'Open Sans'; stroke:rgb(230,0,0); color-interpolation:linearRGB;"><ns0:path style="stroke:none;" d="M-116.0625 -52.0333 Q-116.0625 -49.9708 -117.1016 -48.7911 Q-118.1406 -47.6114 -119.9844 -47.6114 Q-121.875 -47.6114 -122.9062 -48.7755 Q-123.9375 -49.9396 -123.9375 -52.0489 Q-123.9375 -54.1427 -122.9062 -55.2911 Q-121.875 -56.4396 -119.9844 -56.4396 Q-118.125 -56.4396 -117.0938 -55.2677 Q-116.0625 -54.0958 -116.0625 -52.0333 ZM-122.8906 -52.0333 Q-122.8906 -50.2989 -122.1484 -49.3927 Q-121.4062 -48.4864 -119.9844 -48.4864 Q-118.5625 -48.4864 -117.8359 -49.3849 Q-117.1094 -50.2833 -117.1094 -52.0333 Q-117.1094 -53.7677 -117.8359 -54.6583 Q-118.5625 -55.5489 -119.9844 -55.5489 Q-121.4062 -55.5489 -122.1484 -54.6505 Q-122.8906 -53.7521 -122.8906 -52.0333 Z" /><ns0:path style="stroke:none;" d="M-116.0625 51.8927 Q-116.0625 53.9552 -117.1016 55.1349 Q-118.1406 56.3146 -119.9844 56.3146 Q-121.875 56.3146 -122.9062 55.1505 Q-123.9375 53.9864 -123.9375 51.8771 Q-123.9375 49.7833 -122.9062 48.6349 Q-121.875 47.4864 -119.9844 47.4864 Q-118.125 47.4864 -117.0938 48.6583 Q-116.0625 49.8302 -116.0625 51.8927 ZM-122.8906 51.8927 Q-122.8906 53.6271 -122.1484 54.5333 Q-121.4062 55.4396 -119.9844 55.4396 Q-118.5625 55.4396 -117.8359 54.5411 Q-117.1094 53.6427 -117.1094 51.8927 Q-117.1094 50.1583 -117.8359 49.2677 Q-118.5625 48.3771 -119.9844 48.3771 Q-121.4062 48.3771 -122.1484 49.2755 Q-122.8906 50.1739 -122.8906 51.8927 Z" /><ns0:path style="stroke:none;" d="M123.9375 -52.0333 Q123.9375 -49.9708 122.8984 -48.7911 Q121.8594 -47.6114 120.0156 -47.6114 Q118.125 -47.6114 117.0938 -48.7755 Q116.0625 -49.9396 116.0625 -52.0489 Q116.0625 -54.1427 117.0938 -55.2911 Q118.125 -56.4396 120.0156 -56.4396 Q121.875 -56.4396 122.9062 -55.2677 Q123.9375 -54.0958 123.9375 -52.0333 ZM117.1094 -52.0333 Q117.1094 -50.2989 117.8516 -49.3927 Q118.5938 -48.4864 120.0156 -48.4864 Q121.4375 -48.4864 122.1641 -49.3849 Q122.8906 -50.2833 122.8906 -52.0333 Q122.8906 -53.7677 122.1641 -54.6583 Q121.4375 -55.5489 120.0156 -55.5489 Q118.5938 -55.5489 117.8516 -54.6505 Q117.1094 -53.7521 117.1094 -52.0333 Z" /><ns0:path style="stroke:none;" d="M123.9375 51.8927 Q123.9375 53.9552 122.8984 55.1349 Q121.8594 56.3146 120.0156 56.3146 Q118.125 56.3146 117.0938 55.1505 Q116.0625 53.9864 116.0625 51.8771 Q116.0625 49.7833 117.0938 48.6349 Q118.125 47.4864 120.0156 47.4864 Q121.875 47.4864 122.9062 48.6583 Q123.9375 49.8302 123.9375 51.8927 ZM117.1094 51.8927 Q117.1094 53.6271 117.8516 54.5333 Q118.5938 55.4396 120.0156 55.4396 Q121.4375 55.4396 122.1641 54.5411 Q122.8906 53.6427 122.8906 51.8927 Q122.8906 50.1583 122.1641 49.2677 Q121.4375 48.3771 120.0156 48.3771 Q118.5938 48.3771 117.8516 49.2755 Q117.1094 50.1739 117.1094 51.8927 Z" /><ns0:path style="stroke:none;" d="M-236.0625 -0.0703 Q-236.0625 1.9922 -237.1016 3.1719 Q-238.1406 4.3516 -239.9844 4.3516 Q-241.875 4.3516 -242.9062 3.1875 Q-243.9375 2.0234 -243.9375 -0.0859 Q-243.9375 -2.1797 -242.9062 -3.3281 Q-241.875 -4.4766 -239.9844 -4.4766 Q-238.125 -4.4766 -237.0938 -3.3047 Q-236.0625 -2.1328 -236.0625 -0.0703 ZM-242.8906 -0.0703 Q-242.8906 1.6641 -242.1484 2.5703 Q-241.4062 3.4766 -239.9844 3.4766 Q-238.5625 3.4766 -237.8359 2.5781 Q-237.1094 1.6797 -237.1094 -0.0703 Q-237.1094 -1.8047 -237.8359 -2.6953 Q-238.5625 -3.5859 -239.9844 -3.5859 Q-241.4062 -3.5859 -242.1484 -2.6875 Q-242.8906 -1.7891 -242.8906 -0.0703 Z" /><ns0:path style="stroke:none;" d="M243.9375 -0.0703 Q243.9375 1.9922 242.8984 3.1719 Q241.8594 4.3516 240.0156 4.3516 Q238.125 4.3516 237.0938 3.1875 Q236.0625 2.0234 236.0625 -0.0859 Q236.0625 -2.1797 237.0938 -3.3281 Q238.125 -4.4766 240.0156 -4.4766 Q241.875 -4.4766 242.9062 -3.3047 Q243.9375 -2.1328 243.9375 -0.0703 ZM237.1094 -0.0703 Q237.1094 1.6641 237.8516 2.5703 Q238.5938 3.4766 240.0156 3.4766 Q241.4375 3.4766 242.1641 2.5781 Q242.8906 1.6797 242.8906 -0.0703 Q242.8906 -1.8047 242.1641 -2.6953 Q241.4375 -3.5859 240.0156 -3.5859 Q238.5938 -3.5859 237.8516 -2.6875 Q237.1094 -1.7891 237.1094 -0.0703 Z" /></ns0:g><ns0:g transform="translate(258,59)" style="stroke-linecap:butt; text-rendering:geometricPrecision; color-rendering:optimizeQuality; image-rendering:optimizeQuality; font-family:'Open Sans'; color-interpolation:linearRGB; stroke-miterlimit:5;"><ns0:path style="fill:none;" d="M-30.5 -0 L-30 0 L-29.75 0.433" /><ns0:path style="fill:none;" d="M-59.5 0 L-60 0 L-60.25 -0.433" /><ns0:path style="fill:none;" d="M-15.25 26.413 L-15 25.98 L-15.25 25.547" /><ns0:path style="fill:none;" d="M-15.25 -26.413 L-15 -25.98 L-15.25 -25.547" /><ns0:path style="fill:none;" d="M-74.75 -26.413 L-75 -25.98 L-74.75 -25.547" /><ns0:path style="fill:none;" d="M-74.75 26.413 L-75 25.98 L-74.75 25.547" /><ns0:path style="fill:none;" d="M15.25 26.413 L15 25.98 L14.5 25.98" /><ns0:path style="fill:none;" d="M-29.75 51.53 L-30 51.963 L-30.5 51.963" /><ns0:path style="fill:none;" d="M15.25 -26.413 L15 -25.98 L14.5 -25.98" /><ns0:path style="fill:none;" d="M-29.75 -51.53 L-30 -51.963 L-30.5 -51.963" /><ns0:path style="fill:none;" d="M-104.5 -25.98 L-105 -25.98 L-105.25 -25.547" /><ns0:path style="fill:none;" d="M-60.25 -51.53 L-60 -51.963 L-59.5 -51.963" /><ns0:path style="fill:none;" d="M-104.5 25.98 L-105 25.98 L-105.25 25.547" /><ns0:path style="fill:none;" d="M-60.25 51.53 L-60 51.963 L-59.5 51.963" /><ns0:path style="fill:none;" d="M30.5 0 L30 0 L29.75 0.433" /><ns0:path style="fill:none;" d="M29.75 51.53 L30 51.963 L30.5 51.963" /><ns0:path style="fill:none;" d="M29.75 -51.53 L30 -51.963 L30.5 -51.963" /><ns0:path style="fill:rgb(0,5,255); stroke:none;" d="M-116.6484 4.1562 L-117.7891 4.1562 L-122.4766 -3.0312 L-122.5234 -3.0312 Q-122.4297 -1.7656 -122.4297 -0.7188 L-122.4297 4.1562 L-123.3516 4.1562 L-123.3516 -4.4062 L-122.2266 -4.4062 L-117.5547 2.75 L-117.5078 2.75 Q-117.5078 2.5938 -117.5547 1.7344 Q-117.6016 0.875 -117.5859 0.5 L-117.5859 -4.4062 L-116.6484 -4.4062 L-116.6484 4.1562 Z" /><ns0:path style="fill:none;" d="M59.5 -0 L60 0 L60.25 -0.433" /><ns0:path style="fill:none;" d="M59.5 51.963 L60 51.963 L60.25 51.53" /><ns0:path style="fill:none;" d="M59.5 -51.96 L60 -51.96 L60.25 -51.527" /><ns0:path style="fill:none;" d="M74.75 -26.413 L75 -25.98 L74.75 -25.547" /><ns0:path style="fill:none;" d="M74.75 26.413 L75 25.98 L74.75 25.547" /><ns0:path style="fill:none;" d="M104.5 -25.98 L105 -25.98 L105.25 -25.547" /><ns0:path style="fill:none;" d="M104.5 25.98 L105 25.98 L105.25 25.547" /><ns0:path style="fill:rgb(0,5,255); stroke:none;" d="M123.3516 4.1562 L122.2109 4.1562 L117.5234 -3.0312 L117.4766 -3.0312 Q117.5703 -1.7656 117.5703 -0.7188 L117.5703 4.1562 L116.6484 4.1562 L116.6484 -4.4062 L117.7734 -4.4062 L122.4453 2.75 L122.4922 2.75 Q122.4922 2.5938 122.4453 1.7344 Q122.3984 0.875 122.4141 0.5 L122.4141 -4.4062 L123.3516 -4.4062 L123.3516 4.1562 Z" /><ns0:path style="fill:none;" d="M-150.25 0.433 L-150 0 L-149.5 0" /><ns0:path style="fill:none;" d="M-164.75 25.547 L-165 25.98 L-165.5 25.98" /><ns0:path style="fill:none;" d="M-164.75 -25.547 L-165 -25.98 L-165.5 -25.98" /><ns0:path style="fill:none;" d="M-194.5 25.98 L-195 25.98 L-195.25 25.547" /><ns0:path style="fill:none;" d="M-194.5 -25.98 L-195 -25.98 L-195.25 -25.547" /><ns0:path style="fill:none;" d="M-209.75 0.433 L-210 0 L-210.5 -0" /><ns0:path style="fill:none;" d="M150.25 0.433 L150 0 L149.5 -0" /><ns0:path style="fill:none;" d="M164.75 25.547 L165 25.98 L165.5 25.98" /><ns0:path style="fill:none;" d="M164.75 -25.547 L165 -25.98 L165.5 -25.98" /><ns0:path style="fill:none;" d="M194.5 25.98 L195 25.98 L195.25 25.547" /><ns0:path style="fill:none;" d="M194.5 -25.98 L195 -25.98 L195.25 -25.547" /><ns0:path style="fill:none;" d="M209.75 0.433 L210 0 L210.5 0" /></ns0:g></ns0:g></ns0:svg></ns0:svg></ns0:svg></ns0:svg></g></svg>