<svg width="245" viewBox="0 0 245 193" style="fill-opacity:1; color-rendering:auto; color-interpolation:auto; text-rendering:auto; stroke:black; stroke-linecap:square; stroke-miterlimit:10; shape-rendering:auto; stroke-opacity:1; fill:black; stroke-dasharray:none; font-weight:normal; stroke-width:1; font-family:'Open Sans'; font-style:normal; stroke-linejoin:miter; font-size:12; stroke-dashoffset:0; image-rendering:auto;" height="193" class="cas-substance-image" xmlns:xlink="http://www.w3.org/1999/xlink" xmlns="http://www.w3.org/2000/svg"><svg class="cas-substance-single-component"><rect y="0" x="0" width="245" stroke="none" ry="7" rx="7" height="193" fill="white" class="cas-substance-group"/><svg y="0" x="0" width="245" viewBox="0 0 245 178" style="fill:black;" height="178" class="cas-substance-single-component-image"><svg><g><g transform="translate(123,89)" style="text-rendering:geometricPrecision; color-rendering:optimizeQuality; color-interpolation:linearRGB; stroke-linecap:butt; image-rendering:optimizeQuality;"><line y2="-4.248" y1="-4.248" x2="0.906" x1="-29.094" style="fill:none;"/><line y2="-27.8964" y1="-4.248" x2="-29.094" x1="-29.094" style="fill:none;"/><line y2="-4.248" y1="-4.248" x2="-59.094" x1="-29.094" style="fill:none;"/><line y2="25.752" y1="-4.248" x2="-29.094" x1="-29.094" style="fill:none;"/><line y2="-24.58" y1="-4.248" x2="12.645" x1="0.906" style="fill:none;"/><line y2="16.8821" y1="-4.248" x2="11.0837" x1="-1.1147" style="fill:none;"/><line y2="15.1322" y1="-5.998" x2="14.1149" x1="1.9164" style="fill:none;"/><line y2="-30.228" y1="-30.228" x2="45.906" x1="21.8435" style="fill:none;"/><line y2="-59.8409" y1="-66.468" x2="100.8869" x1="119.094" style="fill:none;"/><line y2="-62.5838" y1="-85.752" x2="89.7814" x1="85.695" style="fill:none;"/><line y2="-30.228" y1="-4.248" x2="-74.094" x1="-59.094" style="fill:none;"/><line y2="-26.728" y1="-4.2479" x2="-76.1147" x1="-63.1355" style="fill:none;"/><line y2="21.735" y1="-4.248" x2="-74.094" x1="-59.094" style="fill:none;"/><line y2="-30.228" y1="-30.228" x2="-104.094" x1="-74.094" style="fill:none;"/><line y2="21.735" y1="21.735" x2="-104.094" x1="-74.094" style="fill:none;"/><line y2="18.235" y1="18.235" x2="-102.0733" x1="-76.1147" style="fill:none;"/><line y2="-4.248" y1="-30.228" x2="-119.094" x1="-104.094" style="fill:none;"/><line y2="-4.2479" y1="-26.728" x2="-115.0526" x1="-102.0733" style="fill:none;"/><line y2="-4.248" y1="21.735" x2="-119.094" x1="-104.094" style="fill:none;"/><line y2="40.752" y1="25.752" x2="-55.077" x1="-29.094" style="fill:none;"/><line y2="42.7729" y1="29.7935" x2="-51.5771" x1="-29.0942" style="fill:none;"/><line y2="40.752" y1="25.752" x2="-3.114" x1="-29.094" style="fill:none;"/><line y2="70.752" y1="40.752" x2="-55.077" x1="-55.077" style="fill:none;"/><line y2="70.752" y1="40.752" x2="-3.114" x1="-3.114" style="fill:none;"/><line y2="68.7313" y1="42.7727" x2="-6.614" x1="-6.614" style="fill:none;"/><line y2="85.752" y1="70.752" x2="-29.094" x1="-55.077" style="fill:none;"/><line y2="81.7106" y1="68.7312" x2="-29.0942" x1="-51.5771" style="fill:none;"/><line y2="85.752" y1="70.752" x2="-29.094" x1="-3.114" style="fill:none;"/><line y2="-56.208" y1="-30.228" x2="60.906" x1="45.906" style="fill:none;"/><line y2="-4.248" y1="-30.228" x2="60.906" x1="45.906" style="fill:none;"/><line y2="-56.208" y1="-56.208" x2="85.5544" x1="60.906" style="fill:none;"/><line y2="-4.248" y1="-4.248" x2="90.906" x1="60.906" style="fill:none;"/><line y2="-30.228" y1="-50.3197" x2="105.906" x1="94.3057" style="fill:none;"/><line y2="-30.228" y1="-4.248" x2="105.906" x1="90.906" style="fill:none;"/><path style="fill:none; stroke-miterlimit:5;" d="M0.406 -4.248 L0.906 -4.248 L1.156 -4.681"/></g><g transform="translate(123,89)" style="stroke-linecap:butt; fill:rgb(230,0,0); text-rendering:geometricPrecision; color-rendering:optimizeQuality; image-rendering:optimizeQuality; font-family:'Open Sans'; stroke:rgb(230,0,0); color-interpolation:linearRGB; stroke-miterlimit:5;"><path style="stroke:none;" d="M-25.1565 -34.3183 Q-25.1565 -32.2558 -26.1956 -31.0761 Q-27.2346 -29.8964 -29.0784 -29.8964 Q-30.969 -29.8964 -32.0003 -31.0605 Q-33.0315 -32.2246 -33.0315 -34.3339 Q-33.0315 -36.4277 -32.0003 -37.5761 Q-30.969 -38.7246 -29.0784 -38.7246 Q-27.219 -38.7246 -26.1878 -37.5527 Q-25.1565 -36.3808 -25.1565 -34.3183 ZM-31.9846 -34.3183 Q-31.9846 -32.5839 -31.2424 -31.6777 Q-30.5003 -30.7714 -29.0784 -30.7714 Q-27.6565 -30.7714 -26.9299 -31.6699 Q-26.2034 -32.5683 -26.2034 -34.3183 Q-26.2034 -36.0527 -26.9299 -36.9433 Q-27.6565 -37.8339 -29.0784 -37.8339 Q-30.5003 -37.8339 -31.2424 -36.9355 Q-31.9846 -36.0371 -31.9846 -34.3183 Z"/><path style="stroke:none;" d="M-17.6409 -30.0214 L-18.6409 -30.0214 L-18.6409 -34.0527 L-23.1565 -34.0527 L-23.1565 -30.0214 L-24.1565 -30.0214 L-24.1565 -38.5839 L-23.1565 -38.5839 L-23.1565 -34.9433 L-18.6409 -34.9433 L-18.6409 -38.5839 L-17.6409 -38.5839 L-17.6409 -30.0214 Z"/><path style="stroke:none;" d="M19.8435 -30.2983 Q19.8435 -28.2358 18.8044 -27.0561 Q17.7654 -25.8764 15.9216 -25.8764 Q14.031 -25.8764 12.9998 -27.0405 Q11.9685 -28.2046 11.9685 -30.3139 Q11.9685 -32.4077 12.9998 -33.5561 Q14.031 -34.7046 15.9216 -34.7046 Q17.781 -34.7046 18.8123 -33.5327 Q19.8435 -32.3608 19.8435 -30.2983 ZM13.0154 -30.2983 Q13.0154 -28.5639 13.7576 -27.6577 Q14.4998 -26.7514 15.9216 -26.7514 Q17.3435 -26.7514 18.0701 -27.6499 Q18.7966 -28.5483 18.7966 -30.2983 Q18.7966 -32.0327 18.0701 -32.9233 Q17.3435 -33.8139 15.9216 -33.8139 Q14.4998 -33.8139 13.7576 -32.9155 Q13.0154 -32.0171 13.0154 -30.2983 Z"/><path style="stroke:none;" d="M19.8435 21.6647 Q19.8435 23.7272 18.8044 24.9069 Q17.7654 26.0866 15.9216 26.0866 Q14.031 26.0866 12.9998 24.9225 Q11.9685 23.7584 11.9685 21.6491 Q11.9685 19.5553 12.9998 18.4069 Q14.031 17.2584 15.9216 17.2584 Q17.781 17.2584 18.8123 18.4303 Q19.8435 19.6022 19.8435 21.6647 ZM13.0154 21.6647 Q13.0154 23.3991 13.7576 24.3053 Q14.4998 25.2116 15.9216 25.2116 Q17.3435 25.2116 18.0701 24.3131 Q18.7966 23.4147 18.7966 21.6647 Q18.7966 19.9303 18.0701 19.0397 Q17.3435 18.1491 15.9216 18.1491 Q14.4998 18.1491 13.7576 19.0475 Q13.0154 19.9459 13.0154 21.6647 Z"/><path style="fill:none; stroke:black;" d="M-59.344 -4.681 L-59.094 -4.248 L-58.594 -4.248"/><path style="fill:none; stroke:black;" d="M-73.844 -29.795 L-74.094 -30.228 L-74.594 -30.228"/><path style="fill:none; stroke:black;" d="M-73.844 21.302 L-74.094 21.735 L-74.594 21.735"/><path style="fill:none; stroke:black;" d="M-103.594 -30.228 L-104.094 -30.228 L-104.344 -29.795"/><path style="fill:none; stroke:black;" d="M-103.594 21.735 L-104.094 21.735 L-104.344 21.302"/><path style="fill:none; stroke:black;" d="M-118.844 -4.681 L-119.094 -4.248 L-118.844 -3.815"/><path style="fill:none; stroke:black;" d="M-29.527 26.002 L-29.094 25.752 L-29.094 25.252"/><path style="fill:none; stroke:black;" d="M-54.644 40.502 L-55.077 40.752 L-55.077 41.252"/><path style="fill:none; stroke:black;" d="M-3.547 40.502 L-3.114 40.752 L-3.114 41.252"/><path style="fill:none; stroke:black;" d="M-55.077 70.252 L-55.077 70.752 L-54.644 71.002"/><path style="fill:none; stroke:black;" d="M-3.114 70.252 L-3.114 70.752 L-3.547 71.002"/><path style="fill:none; stroke:black;" d="M-29.527 85.502 L-29.094 85.752 L-28.661 85.502"/><path style="fill:none; stroke:black;" d="M60.656 -55.775 L60.906 -56.208 L61.406 -56.208"/><path style="fill:none; stroke:black;" d="M60.656 -4.681 L60.906 -4.248 L61.406 -4.248"/><path style="fill:rgb(0,5,255); stroke:none;" d="M94.2576 -52.0518 L93.1169 -52.0518 L88.4294 -59.2393 L88.3826 -59.2393 Q88.4763 -57.9736 88.4763 -56.9268 L88.4763 -52.0518 L87.5544 -52.0518 L87.5544 -60.6143 L88.6794 -60.6143 L93.3513 -53.458 L93.3982 -53.458 Q93.3982 -53.6143 93.3513 -54.4736 Q93.3044 -55.333 93.3201 -55.708 L93.3201 -60.6143 L94.2576 -60.6143 L94.2576 -52.0518 Z"/><path style="fill:black; stroke:none;" d="M97.3982 -59.0424 L99.0076 -59.0424 L99.0076 -58.4955 L97.3982 -58.4955 L97.3982 -56.8392 L96.8669 -56.8392 L96.8669 -58.4955 L95.2576 -58.4955 L95.2576 -59.0424 L96.8669 -59.0424 L96.8669 -60.7142 L97.3982 -60.7142 L97.3982 -59.0424 Z"/><path style="fill:none; stroke:black;" d="M90.406 -4.248 L90.906 -4.248 L91.156 -4.681"/><path style="fill:none; stroke:black;" d="M105.656 -30.661 L105.906 -30.228 L105.656 -29.795"/></g></g></svg></svg><svg y="178" x="114" class="cas-substance-saf"><svg y="5" x="0" width="4" style="fill:black;" height="4" class="cas-substance-saf-dot"><circle stroke="none" r="2" fill="black" cy="2" cx="2"/></svg><svg y="0" x="8" width="22" style="fill:black;" height="15" class="cas-substance-saf-image"><svg><g><g transform="translate(9,7)" style="fill:rgb(0,138,0); text-rendering:geometricPrecision; color-rendering:optimizeQuality; image-rendering:optimizeQuality; font-family:'Open Sans'; stroke:rgb(0,138,0); color-interpolation:linearRGB;"><path style="stroke:none;" d="M-5.6689 -4.4062 L-3.2471 -4.4062 Q-1.5439 -4.4062 -0.7783 -3.8984 Q-0.0127 -3.3906 -0.0127 -2.2969 Q-0.0127 -1.5312 -0.4346 -1.0312 Q-0.8564 -0.5312 -1.6846 -0.3906 L-1.6846 -0.3281 Q0.2686 0 0.2686 1.7188 Q0.2686 2.8594 -0.5049 3.5078 Q-1.2783 4.1562 -2.6689 4.1562 L-5.6689 4.1562 L-5.6689 -4.4062 ZM-4.6689 -0.75 L-3.0283 -0.75 Q-1.9658 -0.75 -1.5049 -1.0781 Q-1.0439 -1.4062 -1.0439 -2.1875 Q-1.0439 -2.9062 -1.5596 -3.2266 Q-2.0752 -3.5469 -3.2002 -3.5469 L-4.6689 -3.5469 L-4.6689 -0.75 ZM-4.6689 0.0938 L-4.6689 3.3125 L-2.8721 3.3125 Q-1.8408 3.3125 -1.3174 2.9062 Q-0.7939 2.5 -0.7939 1.6406 Q-0.7939 0.8438 -1.333 0.4688 Q-1.8721 0.0938 -2.9658 0.0938 L-4.6689 0.0938 ZM4.9033 -2.3906 Q5.3252 -2.3906 5.6689 -2.3125 L5.5283 -1.4062 Q5.1377 -1.5 4.8252 -1.5 Q4.0439 -1.5 3.4893 -0.8672 Q2.9346 -0.2344 2.9346 0.7031 L2.9346 4.1562 L1.9658 4.1562 L1.9658 -2.2656 L2.7627 -2.2656 L2.8877 -1.0781 L2.9346 -1.0781 Q3.2783 -1.7031 3.7861 -2.0469 Q4.2939 -2.3906 4.9033 -2.3906 Z"/><path style="fill:black; stroke:none;" d="M6.5986 -2.2719 L6.5986 -2.8656 L9.958 -2.8656 L9.958 -2.2719 L6.5986 -2.2719 Z"/></g></g></svg></svg></svg></svg></svg>