<svg xmlns:ns0="http://www.w3.org/2000/svg" xmlns="http://www.w3.org/2000/svg"><g transform="translate(0, 0)"><ns0:svg width="174" viewBox="0 0 174 67" style="fill-opacity:1; color-rendering:auto; color-interpolation:auto; text-rendering:auto; stroke:black; stroke-linecap:square; stroke-miterlimit:10; shape-rendering:auto; stroke-opacity:1; fill:black; stroke-dasharray:none; font-weight:normal; stroke-width:1; font-family:'Open Sans'; font-style:normal; stroke-linejoin:miter; font-size:12; stroke-dashoffset:0; image-rendering:auto;" height="67" class="cas-substance-image"><ns0:svg class="cas-substance-single-component"><ns0:rect y="0" x="0" width="174" stroke="none" ry="7" rx="7" height="67" fill="white" class="cas-substance-group" /><ns0:svg y="0" x="0" width="174" viewBox="0 0 174 67" style="fill:black;" height="67" class="cas-substance-single-component-image"><ns0:svg><ns0:g><ns0:g transform="translate(89,32)" style="text-rendering:geometricPrecision; color-rendering:optimizeQuality; color-interpolation:linearRGB; stroke-linecap:butt; image-rendering:optimizeQuality;"><ns0:line y2="-7.86" y1="-18.12" x2="59.094" x1="30.906" style="fill:none;" /><ns0:line y2="1.164" y1="-18.12" x2="7.923" x1="30.906" style="fill:none;" /><ns0:line y2="-27.144" y1="-7.86" x2="82.077" x1="59.094" style="fill:none;" /><ns0:line y2="1.164" y1="20.448" x2="7.923" x1="30.906" style="fill:none;" /><ns0:line y2="2.914" y1="2.914" x2="-51.0666" x1="-76.1395" style="fill:none;" /><ns0:line y2="-0.586" y1="-0.586" x2="-51.0667" x1="-76.1395" style="fill:none;" /><ns0:line y2="-24.819" y1="1.164" x2="-7.077" x1="7.923" style="fill:none;" /><ns0:line y2="27.144" y1="1.164" x2="-7.077" x1="7.923" style="fill:none;" /><ns0:line y2="-24.819" y1="-24.819" x2="-31.1395" x1="-7.077" style="fill:none;" /><ns0:line y2="27.144" y1="27.144" x2="-31.1395" x1="-7.077" style="fill:none;" /><ns0:line y2="1.164" y1="-19.1708" x2="-52.077" x1="-40.3377" style="fill:none;" /><ns0:line y2="1.164" y1="21.4164" x2="-52.077" x1="-40.3839" style="fill:none;" /><ns0:path style="fill:none; stroke-miterlimit:5;" d="M31.3758 -17.949 L30.906 -18.12 L30.523 -17.7986" /><ns0:path style="fill:none; stroke-miterlimit:5;" d="M58.6242 -8.031 L59.094 -7.86 L59.477 -8.1814" /></ns0:g><ns0:g transform="translate(89,32)" style="stroke-linecap:butt; fill:rgb(230,0,0); text-rendering:geometricPrecision; color-rendering:optimizeQuality; image-rendering:optimizeQuality; font-family:'Open Sans'; stroke:rgb(230,0,0); color-interpolation:linearRGB; stroke-miterlimit:5;"><ns0:path style="stroke:none;" d="M-78.1395 1.0937 Q-78.1395 3.1562 -79.1786 4.3359 Q-80.2176 5.5156 -82.0614 5.5156 Q-83.952 5.5156 -84.9832 4.3515 Q-86.0145 3.1874 -86.0145 1.0781 Q-86.0145 -1.0157 -84.9832 -2.1641 Q-83.952 -3.3126 -82.0614 -3.3126 Q-80.202 -3.3126 -79.1707 -2.1407 Q-78.1395 -0.9688 -78.1395 1.0937 ZM-84.9676 1.0937 Q-84.9676 2.8281 -84.2254 3.7343 Q-83.4832 4.6406 -82.0614 4.6406 Q-80.6395 4.6406 -79.9129 3.7421 Q-79.1864 2.8437 -79.1864 1.0937 Q-79.1864 -0.6407 -79.9129 -1.5313 Q-80.6395 -2.4219 -82.0614 -2.4219 Q-83.4832 -2.4219 -84.2254 -1.5235 Q-84.9676 -0.6251 -84.9676 1.0937 Z" /><ns0:path style="fill:none; stroke:black;" d="M-6.827 -24.386 L-7.077 -24.819 L-7.577 -24.819" /><ns0:path style="fill:none; stroke:black;" d="M-6.827 26.711 L-7.077 27.144 L-7.577 27.144" /><ns0:path style="stroke:none;" d="M-33.1395 -24.8893 Q-33.1395 -22.8268 -34.1786 -21.6471 Q-35.2176 -20.4674 -37.0614 -20.4674 Q-38.952 -20.4674 -39.9832 -21.6315 Q-41.0145 -22.7956 -41.0145 -24.9049 Q-41.0145 -26.9987 -39.9832 -28.1471 Q-38.952 -29.2956 -37.0614 -29.2956 Q-35.202 -29.2956 -34.1707 -28.1237 Q-33.1395 -26.9518 -33.1395 -24.8893 ZM-39.9676 -24.8893 Q-39.9676 -23.1549 -39.2254 -22.2487 Q-38.4832 -21.3424 -37.0614 -21.3424 Q-35.6395 -21.3424 -34.9129 -22.2409 Q-34.1864 -23.1393 -34.1864 -24.8893 Q-34.1864 -26.6237 -34.9129 -27.5143 Q-35.6395 -28.4049 -37.0614 -28.4049 Q-38.4832 -28.4049 -39.2254 -27.5065 Q-39.9676 -26.6081 -39.9676 -24.8893 Z" /><ns0:path style="stroke:none;" d="M-33.1395 27.0737 Q-33.1395 29.1362 -34.1786 30.3159 Q-35.2176 31.4956 -37.0614 31.4956 Q-38.952 31.4956 -39.9832 30.3315 Q-41.0145 29.1674 -41.0145 27.0581 Q-41.0145 24.9643 -39.9832 23.8159 Q-38.952 22.6674 -37.0614 22.6674 Q-35.202 22.6674 -34.1707 23.8393 Q-33.1395 25.0112 -33.1395 27.0737 ZM-39.9676 27.0737 Q-39.9676 28.8081 -39.2254 29.7143 Q-38.4832 30.6206 -37.0614 30.6206 Q-35.6395 30.6206 -34.9129 29.7221 Q-34.1864 28.8237 -34.1864 27.0737 Q-34.1864 25.3393 -34.9129 24.4487 Q-35.6395 23.5581 -37.0614 23.5581 Q-38.4832 23.5581 -39.2254 24.4565 Q-39.9676 25.3549 -39.9676 27.0737 Z" /><ns0:path style="fill:none; stroke:black;" d="M-51.827 0.731 L-52.077 1.164 L-51.827 1.597" /></ns0:g></ns0:g></ns0:svg></ns0:svg></ns0:svg></ns0:svg></g></svg>