<svg width="217" viewBox="0 0 217 101" style="fill-opacity:1; color-rendering:auto; color-interpolation:auto; text-rendering:auto; stroke:black; stroke-linecap:square; stroke-miterlimit:10; shape-rendering:auto; stroke-opacity:1; fill:black; stroke-dasharray:none; font-weight:normal; stroke-width:1; font-family:'Open Sans'; font-style:normal; stroke-linejoin:miter; font-size:12; stroke-dashoffset:0; image-rendering:auto;" height="101" class="cas-substance-image" xmlns:xlink="http://www.w3.org/1999/xlink" xmlns="http://www.w3.org/2000/svg"><svg class="cas-substance-single-component"><rect y="0" x="0" width="217" stroke="none" ry="7" rx="7" height="101" fill="white" class="cas-substance-group"/><svg y="0" x="0" width="217" viewBox="0 0 217 101" style="fill:black;" height="101" class="cas-substance-single-component-image"><svg><g><g transform="translate(107,52)" style="text-rendering:geometricPrecision; color-rendering:optimizeQuality; color-interpolation:linearRGB; stroke-linecap:butt; image-rendering:optimizeQuality;"><line y2="-3.2258" y1="-15" x2="-46.3753" x1="-25.98" style="fill:none;"/><line y2="-38.6484" y1="-13.9896" x2="-24.23" x1="-24.23" style="fill:none;"/><line y2="-38.6484" y1="-13.9897" x2="-27.73" x1="-27.73" style="fill:none;"/><line y2="-2.9351" y1="-15" x2="-5.0836" x1="-25.98" style="fill:none;"/><line y2="-15" y1="-3.2414" x2="-77.943" x1="-57.5771" style="fill:none;"/><line y2="10.98" y1="-15" x2="-92.943" x1="-77.943" style="fill:none;"/><line y2="-30" y1="-15" x2="-103.923" x1="-77.943" style="fill:none;"/><line y2="-40.98" y1="-15" x2="-62.943" x1="-77.943" style="fill:none;"/><line y2="-3.2414" y1="-15" x2="98.3089" x1="77.943" style="fill:none;"/><line y2="-0.2103" y1="-10.9585" x2="96.5588" x1="77.9429" style="fill:none;"/><line y2="0" y1="-15" x2="51.963" x1="77.943" style="fill:none;"/><line y2="-15" y1="-2.9351" x2="25.98" x1="5.0836" style="fill:none;"/><line y2="30" y1="6.1562" x2="0" x1="0" style="fill:none;"/><line y2="0" y1="-15" x2="51.963" x1="25.98" style="fill:none;"/><line y2="45" y1="30" x2="25.98" x1="0" style="fill:none;"/><line y2="23.5234" y1="0" x2="51.963" x1="51.963" style="fill:none;"/><line y2="33.1886" y1="45" x2="46.4398" x1="25.98" style="fill:none;"/><path style="fill:none; stroke-miterlimit:5;" d="M-26.413 -14.75 L-25.98 -15 L-25.547 -14.75"/></g><g transform="translate(107,52)" style="stroke-linecap:butt; fill:rgb(230,0,0); text-rendering:geometricPrecision; color-rendering:optimizeQuality; image-rendering:optimizeQuality; font-family:'Open Sans'; stroke:rgb(230,0,0); color-interpolation:linearRGB; stroke-miterlimit:5;"><path style="stroke:none;" d="M-48.0255 -0.0703 Q-48.0255 1.9922 -49.0646 3.1719 Q-50.1036 4.3516 -51.9474 4.3516 Q-53.838 4.3516 -54.8693 3.1875 Q-55.9005 2.0234 -55.9005 -0.0859 Q-55.9005 -2.1797 -54.8693 -3.3281 Q-53.838 -4.4766 -51.9474 -4.4766 Q-50.088 -4.4766 -49.0568 -3.3047 Q-48.0255 -2.1328 -48.0255 -0.0703 ZM-54.8536 -0.0703 Q-54.8536 1.6641 -54.1114 2.5703 Q-53.3693 3.4766 -51.9474 3.4766 Q-50.5255 3.4766 -49.7989 2.5781 Q-49.0724 1.6797 -49.0724 -0.0703 Q-49.0724 -1.8047 -49.7989 -2.6953 Q-50.5255 -3.5859 -51.9474 -3.5859 Q-53.3693 -3.5859 -54.1114 -2.6875 Q-54.8536 -1.7891 -54.8536 -0.0703 Z"/><path style="stroke:none;" d="M-22.0425 -45.0703 Q-22.0425 -43.0078 -23.0816 -41.8281 Q-24.1206 -40.6484 -25.9644 -40.6484 Q-27.855 -40.6484 -28.8862 -41.8125 Q-29.9175 -42.9766 -29.9175 -45.0859 Q-29.9175 -47.1797 -28.8862 -48.3281 Q-27.855 -49.4766 -25.9644 -49.4766 Q-24.105 -49.4766 -23.0737 -48.3047 Q-22.0425 -47.1328 -22.0425 -45.0703 ZM-28.8706 -45.0703 Q-28.8706 -43.3359 -28.1284 -42.4297 Q-27.3862 -41.5234 -25.9644 -41.5234 Q-24.5425 -41.5234 -23.8159 -42.4219 Q-23.0894 -43.3203 -23.0894 -45.0703 Q-23.0894 -46.8047 -23.8159 -47.6953 Q-24.5425 -48.5859 -25.9644 -48.5859 Q-27.3862 -48.5859 -28.1284 -47.6875 Q-28.8706 -46.7891 -28.8706 -45.0703 Z"/><path style="fill:none; stroke:black;" d="M78.376 -14.75 L77.943 -15 L77.51 -14.75"/><path transform="translate(-0.875,1.5155)" style="stroke:none;" d="M107.8605 -0.0703 Q107.8605 1.9922 106.8214 3.1719 Q105.7824 4.3516 103.9386 4.3516 Q102.048 4.3516 101.0167 3.1875 Q99.9855 2.0234 99.9855 -0.0859 Q99.9855 -2.1797 101.0167 -3.3281 Q102.048 -4.4766 103.9386 -4.4766 Q105.798 -4.4766 106.8292 -3.3047 Q107.8605 -2.1328 107.8605 -0.0703 ZM101.0324 -0.0703 Q101.0324 1.6641 101.7746 2.5703 Q102.5167 3.4766 103.9386 3.4766 Q105.3605 3.4766 106.0871 2.5781 Q106.8136 1.6797 106.8136 -0.0703 Q106.8136 -1.8047 106.0871 -2.6953 Q105.3605 -3.5859 103.9386 -3.5859 Q102.5167 -3.5859 101.7746 -2.6875 Q101.0324 -1.7891 101.0324 -0.0703 Z"/></g><g transform="matrix(1,0,0,1,107,52)" style="stroke-linecap:butt; fill:rgb(0,5,255); text-rendering:geometricPrecision; color-rendering:optimizeQuality; image-rendering:optimizeQuality; font-family:'Open Sans'; stroke:rgb(0,5,255); color-interpolation:linearRGB; stroke-miterlimit:5;"><path style="stroke:none;" d="M3.3516 4.1562 L2.2109 4.1562 L-2.4766 -3.0312 L-2.5234 -3.0312 Q-2.4297 -1.7656 -2.4297 -0.7188 L-2.4297 4.1562 L-3.3516 4.1562 L-3.3516 -4.4062 L-2.2266 -4.4062 L2.4453 2.75 L2.4922 2.75 Q2.4922 2.5938 2.4453 1.7344 Q2.3984 0.875 2.4141 0.5 L2.4141 -4.4062 L3.3516 -4.4062 L3.3516 4.1562 Z"/><path style="fill:none; stroke:black;" d="M25.547 -14.75 L25.98 -15 L26.413 -14.75"/><path style="fill:none; stroke:black;" d="M0 29.5 L0 30 L0.433 30.25"/><path style="fill:none; stroke:black;" d="M25.547 44.75 L25.98 45 L26.413 44.75"/><path style="fill:rgb(230,0,0); stroke:none;" d="M55.9005 29.9297 Q55.9005 31.9922 54.8614 33.1719 Q53.8224 34.3516 51.9786 34.3516 Q50.088 34.3516 49.0568 33.1875 Q48.0255 32.0234 48.0255 29.9141 Q48.0255 27.8203 49.0568 26.6719 Q50.088 25.5234 51.9786 25.5234 Q53.838 25.5234 54.8693 26.6953 Q55.9005 27.8672 55.9005 29.9297 ZM49.0724 29.9297 Q49.0724 31.6641 49.8146 32.5703 Q50.5568 33.4766 51.9786 33.4766 Q53.4005 33.4766 54.1271 32.5781 Q54.8536 31.6797 54.8536 29.9297 Q54.8536 28.1953 54.1271 27.3047 Q53.4005 26.4141 51.9786 26.4141 Q50.5568 26.4141 49.8146 27.3125 Q49.0724 28.2109 49.0724 29.9297 Z"/></g></g></svg></svg></svg></svg>