<svg width="448" viewBox="0 0 448 130" style="fill-opacity:1; color-rendering:auto; color-interpolation:auto; text-rendering:auto; stroke:black; stroke-linecap:square; stroke-miterlimit:10; shape-rendering:auto; stroke-opacity:1; fill:black; stroke-dasharray:none; font-weight:normal; stroke-width:1; font-family:'Open Sans'; font-style:normal; stroke-linejoin:miter; font-size:12; stroke-dashoffset:0; image-rendering:auto;" height="130" class="cas-substance-image" xmlns:xlink="http://www.w3.org/1999/xlink" xmlns="http://www.w3.org/2000/svg"><svg class="cas-substance-single-component"><rect y="0" x="0" width="448" stroke="none" ry="7" rx="7" height="130" fill="white" class="cas-substance-group"/><svg y="0" x="0" width="448" viewBox="0 0 448 130" style="fill:black;" height="130" class="cas-substance-single-component-image"><svg><g><g transform="translate(224,63)" style="text-rendering:geometricPrecision; color-rendering:optimizeQuality; color-interpolation:linearRGB; stroke-linecap:butt; image-rendering:optimizeQuality;"><line y2="-36.4062" y1="-60" x2="-142.893" x1="-142.893" style="fill:none;"/><line y2="28.9896" y1="53.5234" x2="-141.143" x1="-141.143" style="fill:none;"/><line y2="28.9897" y1="53.5234" x2="-144.643" x1="-144.643" style="fill:none;"/><line y2="-15" y1="-30" x2="-64.953" x1="-90.933" style="fill:none;"/><line y2="-15" y1="-30" x2="-116.913" x1="-90.933" style="fill:none;"/><line y2="-30" y1="-15" x2="-38.97" x1="-64.953" style="fill:none;"/><line y2="-15" y1="-30" x2="-12.99" x1="-38.97" style="fill:none;"/><line y2="-30" y1="-15" x2="12.99" x1="-12.99" style="fill:none;"/><line y2="-15" y1="-30" x2="38.97" x1="12.99" style="fill:none;"/><line y2="-30" y1="-15" x2="64.953" x1="38.97" style="fill:none;"/><line y2="-15" y1="-30" x2="90.933" x1="64.953" style="fill:none;"/><line y2="-30" y1="-15" x2="116.913" x1="90.933" style="fill:none;"/><line y2="-15" y1="-30" x2="142.893" x1="116.913" style="fill:none;"/><line y2="-30" y1="-15" x2="168.876" x1="142.893" style="fill:none;"/><line y2="-15" y1="-30" x2="194.856" x1="168.876" style="fill:none;"/><line y2="-30" y1="-15" x2="220.836" x1="194.856" style="fill:none;"/><line y2="15" y1="-15" x2="-168.876" x1="-168.876" style="fill:none;"/><line y2="-27.0652" y1="-15" x2="-147.9767" x1="-168.876" style="fill:none;"/><line y2="-30" y1="-15" x2="-194.856" x1="-168.876" style="fill:none;"/><line y2="-25.9585" y1="-12.9793" x2="-194.8561" x1="-172.376" style="fill:none;"/><line y2="30" y1="15" x2="-142.893" x1="-168.876" style="fill:none;"/><line y2="30" y1="15" x2="-194.856" x1="-168.876" style="fill:none;"/><line y2="25.9585" y1="12.9793" x2="-194.8561" x1="-172.376" style="fill:none;"/><line y2="-15" y1="-27.0649" x2="-116.913" x1="-137.8094" style="fill:none;"/><line y2="-15" y1="-30" x2="-220.836" x1="-194.856" style="fill:none;"/><line y2="15" y1="30" x2="-116.913" x1="-142.893" style="fill:none;"/><line y2="15" y1="30" x2="-220.836" x1="-194.856" style="fill:none;"/><line y2="15" y1="-15" x2="-116.913" x1="-116.913" style="fill:none;"/><line y2="12.9793" y1="-12.9793" x2="-120.413" x1="-120.413" style="fill:none;"/><line y2="15" y1="-15" x2="-220.836" x1="-220.836" style="fill:none;"/><line y2="12.9793" y1="-12.9793" x2="-217.336" x1="-217.336" style="fill:none;"/></g><g transform="translate(224,63)" style="fill:rgb(230,0,0); text-rendering:geometricPrecision; color-rendering:optimizeQuality; image-rendering:optimizeQuality; font-family:'Open Sans'; stroke:rgb(230,0,0); color-interpolation:linearRGB;"><path style="stroke:none;" d="M-138.9555 59.9297 Q-138.9555 61.9922 -139.9946 63.1719 Q-141.0336 64.3516 -142.8774 64.3516 Q-144.768 64.3516 -145.7993 63.1875 Q-146.8305 62.0234 -146.8305 59.9141 Q-146.8305 57.8203 -145.7993 56.6719 Q-144.768 55.5234 -142.8774 55.5234 Q-141.018 55.5234 -139.9868 56.6953 Q-138.9555 57.8672 -138.9555 59.9297 ZM-145.7836 59.9297 Q-145.7836 61.6641 -145.0414 62.5703 Q-144.2993 63.4766 -142.8774 63.4766 Q-141.4555 63.4766 -140.7289 62.5781 Q-140.0024 61.6797 -140.0024 59.9297 Q-140.0024 58.1953 -140.7289 57.3047 Q-141.4555 56.4141 -142.8774 56.4141 Q-144.2993 56.4141 -145.0414 57.3125 Q-145.7836 58.2109 -145.7836 59.9297 Z"/></g><g transform="translate(224,63)" style="stroke-linecap:butt; text-rendering:geometricPrecision; color-rendering:optimizeQuality; image-rendering:optimizeQuality; font-family:'Open Sans'; color-interpolation:linearRGB; stroke-miterlimit:5;"><path style="fill:none;" d="M-90.5 -29.75 L-90.933 -30 L-91.366 -29.75"/><path style="fill:none;" d="M-65.386 -15.25 L-64.953 -15 L-64.52 -15.25"/><path style="fill:none;" d="M-39.403 -29.75 L-38.97 -30 L-38.537 -29.75"/><path style="fill:none;" d="M-13.423 -15.25 L-12.99 -15 L-12.557 -15.25"/><path style="fill:none;" d="M12.557 -29.75 L12.99 -30 L13.423 -29.75"/><path style="fill:none;" d="M38.537 -15.25 L38.97 -15 L39.403 -15.25"/><path style="fill:none;" d="M64.52 -29.75 L64.953 -30 L65.386 -29.75"/><path style="fill:none;" d="M90.5 -15.25 L90.933 -15 L91.366 -15.25"/><path style="fill:none;" d="M116.48 -29.75 L116.913 -30 L117.346 -29.75"/><path style="fill:none;" d="M142.46 -15.25 L142.893 -15 L143.326 -15.25"/><path style="fill:none;" d="M168.443 -29.75 L168.876 -30 L169.309 -29.75"/><path style="fill:none;" d="M194.423 -15.25 L194.856 -15 L195.289 -15.25"/><path style="fill:none;" d="M-169.309 -15.25 L-168.876 -15 L-168.443 -15.25"/><path style="fill:none;" d="M-169.309 15.25 L-168.876 15 L-168.876 14.5"/><path style="fill:rgb(0,5,255); stroke:none;" d="M-139.5414 -25.8438 L-140.6821 -25.8438 L-145.3696 -33.0312 L-145.4164 -33.0312 Q-145.3227 -31.7656 -145.3227 -30.7188 L-145.3227 -25.8438 L-146.2446 -25.8438 L-146.2446 -34.4062 L-145.1196 -34.4062 L-140.4477 -27.25 L-140.4008 -27.25 Q-140.4008 -27.4062 -140.4477 -28.2656 Q-140.4946 -29.125 -140.4789 -29.5 L-140.4789 -34.4062 L-139.5414 -34.4062 L-139.5414 -25.8438 Z"/><path style="fill:none;" d="M-194.423 -29.75 L-194.856 -30 L-195.289 -29.75"/><path style="fill:none;" d="M-143.326 29.75 L-142.893 30 L-142.46 29.75"/><path style="fill:none;" d="M-194.423 29.75 L-194.856 30 L-195.289 29.75"/><path style="fill:none;" d="M-116.913 -14.5 L-116.913 -15 L-116.48 -15.25"/><path style="fill:none;" d="M-220.403 -15.25 L-220.836 -15 L-220.836 -14.5"/><path style="fill:none;" d="M-117.346 15.25 L-116.913 15 L-116.913 14.5"/><path style="fill:none;" d="M-220.403 15.25 L-220.836 15 L-220.836 14.5"/></g></g></svg></svg></svg></svg>