<svg width="290" viewBox="0 0 290 166" style="fill-opacity:1; color-rendering:auto; color-interpolation:auto; text-rendering:auto; stroke:black; stroke-linecap:square; stroke-miterlimit:10; shape-rendering:auto; stroke-opacity:1; fill:black; stroke-dasharray:none; font-weight:normal; stroke-width:1; font-family:'Open Sans'; font-style:normal; stroke-linejoin:miter; font-size:12; stroke-dashoffset:0; image-rendering:auto;" height="166" class="cas-substance-image" xmlns:xlink="http://www.w3.org/1999/xlink" xmlns="http://www.w3.org/2000/svg"><svg class="cas-substance-single-component"><rect y="0" x="0" width="290" stroke="none" ry="7" rx="7" height="166" fill="white" class="cas-substance-group"/><svg y="0" x="0" width="290" viewBox="0 0 290 166" style="fill:black;" height="166" class="cas-substance-single-component-image"><svg><g><g transform="translate(144,81)" style="text-rendering:geometricPrecision; color-rendering:optimizeQuality; color-interpolation:linearRGB; stroke-linecap:butt; image-rendering:optimizeQuality;"><line y2="-51.2573" y1="-25.98" x2="110.49" x1="110.49" style="fill:none;"/><line y2="-25.98" y1="-25.98" x2="136.0994" x1="110.49" style="fill:none;"/><line y2="-2.3862" y1="-25.98" x2="110.49" x1="110.49" style="fill:none;"/><line y2="-25.98" y1="-25.98" x2="80.49" x1="110.49" style="fill:none;"/><line y2="0" y1="-25.98" x2="-24.51" x1="-9.51" style="fill:none;"/><line y2="-25.98" y1="-25.98" x2="20.49" x1="-9.51" style="fill:none;"/><line y2="0" y1="0" x2="-49.1584" x1="-24.51" style="fill:none;"/><path style="stroke:none;" d="M-23.5002 0.572 L-24.5114 1.1551 L-24.0795 2.0608 L-22.9234 1.3941 L-23.5002 0.572 ZM-21.7698 3.0383 L-23.2157 3.8721 L-22.7838 4.7777 L-21.193 3.8604 L-21.7698 3.0383 ZM-20.0394 5.5045 L-21.92 6.589 L-21.92 6.589 L-21.4881 7.4947 L-19.4626 6.3266 L-20.0394 5.5045 ZM-18.309 7.9708 L-20.6243 9.306 L-20.1924 10.2116 L-17.7322 8.7929 L-18.309 7.9708 ZM-16.5786 10.437 L-19.3286 12.0229 L-19.3286 12.0229 L-18.8968 12.9286 L-16.0018 11.2591 L-16.5786 10.437 ZM-14.8482 12.9033 L-18.033 14.7399 L-17.6011 15.6455 L-14.2714 13.7254 L-14.2714 13.7254 L-14.8482 12.9033 ZM-13.1177 15.3695 L-16.7373 17.4568 L-16.7373 17.4568 L-16.3054 18.3625 L-16.3054 18.3625 L-12.5409 16.1916 L-12.5409 16.1916 L-13.1177 15.3695 ZM-11.3873 17.8358 L-15.4416 20.1738 L-15.4416 20.1738 L-15.0097 21.0794 L-15.0097 21.0794 L-10.8105 18.6579 L-10.8105 18.6579 L-11.3873 17.8358 ZM-9.6569 20.302 L-14.1459 22.8907 L-14.1459 22.8907 L-13.714 23.7964 L-13.714 23.7964 L-9.0801 21.1241 L-9.0801 21.1241 L-9.6569 20.302 ZM-7.9265 22.7683 L-12.8502 25.6077 L-12.8502 25.6077 L-12.4184 26.5133 L-12.4184 26.5133 L-8.5201 24.2653 L-8.5201 24.2653 L-7.778 22.9799 L-7.778 22.9799 L-7.778 22.9799 L-7.778 22.9799 L-7.9265 22.7683 Z"/><line y2="-25.98" y1="-6.1383" x2="-69.51" x1="-58.054" style="fill:none;"/><line y2="51.963" y1="25.98" x2="-24.51" x1="-9.51" style="fill:none;"/><line y2="-25.98" y1="-25.98" x2="-93.5725" x1="-69.51" style="fill:none;"/><line y2="-45.4399" y1="-24.23" x2="-56.2551" x1="-68.4996" style="fill:none;"/><line y2="-47.1897" y1="-25.98" x2="-59.2863" x1="-71.5307" style="fill:none;"/><line y2="51.963" y1="51.963" x2="-48.5725" x1="-24.51" style="fill:none;"/><line y2="73.0904" y1="51.963" x2="-14.3325" x1="-26.5307" style="fill:none;"/><line y2="71.3404" y1="50.2129" x2="-11.3014" x1="-23.4997" style="fill:none;"/><line y2="-51.963" y1="-31.7078" x2="-114.51" x1="-102.8167" style="fill:none;"/><line y2="-66.963" y1="-51.963" x2="-88.53" x1="-114.51" style="fill:none;"/><line y2="-77.943" y1="-51.963" x2="-129.51" x1="-114.51" style="fill:none;"/><line y2="-36.96" y1="-51.963" x2="-140.49" x1="-114.51" style="fill:none;"/><line y2="0" y1="-25.98" x2="65.49" x1="80.49" style="fill:none;"/><line y2="-3.5" y1="-25.9801" x2="63.4693" x1="76.4486" style="fill:none;"/><line y2="-51.963" y1="-25.98" x2="65.49" x1="80.49" style="fill:none;"/><line y2="0" y1="0" x2="35.49" x1="65.49" style="fill:none;"/><line y2="-51.963" y1="-51.963" x2="35.49" x1="65.49" style="fill:none;"/><line y2="-48.463" y1="-48.463" x2="37.5107" x1="63.4693" style="fill:none;"/><line y2="-25.98" y1="0" x2="20.49" x1="35.49" style="fill:none;"/><line y2="-25.9801" y1="-3.5" x2="24.5315" x1="37.5107" style="fill:none;"/><line y2="-25.98" y1="-51.963" x2="20.49" x1="35.49" style="fill:none;"/></g><g transform="translate(144,81)" style="fill:rgb(0,138,0); text-rendering:geometricPrecision; color-rendering:optimizeQuality; image-rendering:optimizeQuality; font-family:'Open Sans'; stroke:rgb(0,138,0); color-interpolation:linearRGB;"><path style="stroke:none;" d="M109.0994 -51.8238 L108.0994 -51.8238 L108.0994 -60.3863 L112.8806 -60.3863 L112.8806 -59.5113 L109.0994 -59.5113 L109.0994 -56.3706 L112.6463 -56.3706 L112.6463 -55.48 L109.0994 -55.48 L109.0994 -51.8238 Z"/><path style="stroke:none;" d="M139.0994 -21.8237 L138.0994 -21.8237 L138.0994 -30.3862 L142.8806 -30.3862 L142.8806 -29.5112 L139.0994 -29.5112 L139.0994 -26.3706 L142.6463 -26.3706 L142.6463 -25.48 L139.0994 -25.48 L139.0994 -21.8237 Z"/><path style="stroke:none;" d="M109.0994 8.1763 L108.0994 8.1763 L108.0994 -0.3862 L112.8806 -0.3862 L112.8806 0.4888 L109.0994 0.4888 L109.0994 3.6294 L112.6463 3.6294 L112.6463 4.52 L109.0994 4.52 L109.0994 8.1763 Z"/></g><g transform="translate(144,81)" style="stroke-linecap:butt; text-rendering:geometricPrecision; color-rendering:optimizeQuality; image-rendering:optimizeQuality; font-family:'Open Sans'; color-interpolation:linearRGB; stroke-miterlimit:5;"><path style="fill:none;" d="M-9.76 -25.547 L-9.51 -25.98 L-9.01 -25.98"/><path style="fill:none;" d="M-24.26 -0.433 L-24.51 0 L-25.01 -0"/></g><g transform="translate(144,81)" style="stroke-linecap:butt; font-size:8.4px; fill:gray; text-rendering:geometricPrecision; image-rendering:optimizeQuality; color-rendering:optimizeQuality; font-family:'Open Sans'; font-style:italic; stroke:gray; color-interpolation:linearRGB; stroke-miterlimit:5;"><path style="stroke:none;" d="M-33.8984 -7.4963 Q-33.8984 -8.8244 -33.4297 -9.9494 Q-32.9609 -11.0744 -31.9297 -12.1526 L-31.3203 -12.1526 Q-32.289 -11.0901 -32.7734 -9.9182 Q-33.2578 -8.7463 -33.2578 -7.5119 Q-33.2578 -6.1838 -32.8203 -5.1682 L-33.3359 -5.1682 Q-33.8984 -6.1994 -33.8984 -7.4963 ZM-30.3384 -8.8088 L-30.8384 -6.4338 L-31.4946 -6.4338 L-30.2915 -12.1526 L-29.0415 -12.1526 Q-27.3071 -12.1526 -27.3071 -10.7151 Q-27.3071 -9.3557 -28.7446 -8.9651 L-27.8071 -6.4338 L-28.5259 -6.4338 L-29.354 -8.8088 L-30.3384 -8.8088 ZM-29.7602 -11.5588 Q-30.1509 -9.6369 -30.2134 -9.3869 L-29.5571 -9.3869 Q-28.8071 -9.3869 -28.4009 -9.7151 Q-27.9946 -10.0432 -27.9946 -10.6682 Q-27.9946 -11.1369 -28.2524 -11.3479 Q-28.5102 -11.5588 -29.104 -11.5588 L-29.7602 -11.5588 ZM-25.1211 -9.8088 Q-25.1211 -8.4807 -25.5977 -7.3479 Q-26.0743 -6.2151 -27.0899 -5.1682 L-27.6993 -5.1682 Q-25.7618 -7.3244 -25.7618 -9.8088 Q-25.7618 -11.1369 -26.1993 -12.1526 L-25.6836 -12.1526 Q-25.1211 -11.0901 -25.1211 -9.8088 Z"/></g><g transform="translate(144,81)" style="stroke-linecap:butt; fill:rgb(0,5,255); text-rendering:geometricPrecision; color-rendering:optimizeQuality; image-rendering:optimizeQuality; font-family:'Open Sans'; stroke:rgb(0,5,255); color-interpolation:linearRGB; stroke-miterlimit:5;"><path style="stroke:none;" d="M-51.1584 4.1562 L-52.2991 4.1562 L-56.9866 -3.0312 L-57.0334 -3.0312 Q-56.9397 -1.7656 -56.9397 -0.7188 L-56.9397 4.1562 L-57.8616 4.1562 L-57.8616 -4.4062 L-56.7366 -4.4062 L-52.0647 2.75 L-52.0178 2.75 Q-52.0178 2.5938 -52.0647 1.7344 Q-52.1116 0.875 -52.0959 0.5 L-52.0959 -4.4062 L-51.1584 -4.4062 L-51.1584 4.1562 Z"/><path style="stroke:none;" d="M-51.2522 13.7188 L-52.2522 13.7188 L-52.2522 9.6875 L-56.7678 9.6875 L-56.7678 13.7188 L-57.7678 13.7188 L-57.7678 5.1562 L-56.7678 5.1562 L-56.7678 8.7969 L-52.2522 8.7969 L-52.2522 5.1562 L-51.2522 5.1562 L-51.2522 13.7188 Z"/><path style="fill:none; stroke:black;" d="M-69.26 -25.547 L-69.51 -25.98 L-70.01 -25.98"/><path style="fill:none; stroke:black;" d="M-24.26 51.53 L-24.51 51.963 L-25.01 51.963"/><path style="fill:rgb(230,0,0); stroke:none;" d="M-95.5725 -26.0503 Q-95.5725 -23.9878 -96.6116 -22.8081 Q-97.6506 -21.6284 -99.4944 -21.6284 Q-101.385 -21.6284 -102.4162 -22.7925 Q-103.4475 -23.9566 -103.4475 -26.0659 Q-103.4475 -28.1597 -102.4162 -29.3081 Q-101.385 -30.4566 -99.4944 -30.4566 Q-97.635 -30.4566 -96.6037 -29.2847 Q-95.5725 -28.1128 -95.5725 -26.0503 ZM-102.4006 -26.0503 Q-102.4006 -24.3159 -101.6584 -23.4097 Q-100.9162 -22.5034 -99.4944 -22.5034 Q-98.0725 -22.5034 -97.3459 -23.4019 Q-96.6194 -24.3003 -96.6194 -26.0503 Q-96.6194 -27.7847 -97.3459 -28.6753 Q-98.0725 -29.5659 -99.4944 -29.5659 Q-100.9162 -29.5659 -101.6584 -28.6675 Q-102.4006 -27.7691 -102.4006 -26.0503 Z"/><path style="fill:rgb(230,0,0); stroke:none;" d="M-50.5725 -52.0333 Q-50.5725 -49.9708 -51.6116 -48.7911 Q-52.6506 -47.6114 -54.4944 -47.6114 Q-56.385 -47.6114 -57.4163 -48.7755 Q-58.4475 -49.9396 -58.4475 -52.0489 Q-58.4475 -54.1427 -57.4163 -55.2911 Q-56.385 -56.4396 -54.4944 -56.4396 Q-52.635 -56.4396 -51.6038 -55.2677 Q-50.5725 -54.0958 -50.5725 -52.0333 ZM-57.4006 -52.0333 Q-57.4006 -50.2989 -56.6584 -49.3927 Q-55.9163 -48.4864 -54.4944 -48.4864 Q-53.0725 -48.4864 -52.3459 -49.3849 Q-51.6194 -50.2833 -51.6194 -52.0333 Q-51.6194 -53.7677 -52.3459 -54.6583 Q-53.0725 -55.5489 -54.4944 -55.5489 Q-55.9163 -55.5489 -56.6584 -54.6505 Q-57.4006 -53.7521 -57.4006 -52.0333 Z"/><path style="fill:rgb(230,0,0); stroke:none;" d="M-50.5725 51.8927 Q-50.5725 53.9552 -51.6116 55.1349 Q-52.6506 56.3146 -54.4944 56.3146 Q-56.385 56.3146 -57.4163 55.1505 Q-58.4475 53.9864 -58.4475 51.8771 Q-58.4475 49.7833 -57.4163 48.6349 Q-56.385 47.4864 -54.4944 47.4864 Q-52.635 47.4864 -51.6038 48.6583 Q-50.5725 49.8302 -50.5725 51.8927 ZM-57.4006 51.8927 Q-57.4006 53.6271 -56.6584 54.5333 Q-55.9163 55.4396 -54.4944 55.4396 Q-53.0725 55.4396 -52.3459 54.5411 Q-51.6194 53.6427 -51.6194 51.8927 Q-51.6194 50.1583 -52.3459 49.2677 Q-53.0725 48.3771 -54.4944 48.3771 Q-55.9163 48.3771 -56.6584 49.2755 Q-57.4006 50.1739 -57.4006 51.8927 Z"/><path style="fill:rgb(230,0,0); stroke:none;" d="M-59.4475 56.1896 L-60.4475 56.1896 L-60.4475 52.1583 L-64.9631 52.1583 L-64.9631 56.1896 L-65.9631 56.1896 L-65.9631 47.6271 L-64.9631 47.6271 L-64.9631 51.2677 L-60.4475 51.2677 L-60.4475 47.6271 L-59.4475 47.6271 L-59.4475 56.1896 Z"/><path style="fill:rgb(230,0,0); stroke:none;" d="M-5.5725 77.8727 Q-5.5725 79.9352 -6.6116 81.1149 Q-7.6506 82.2946 -9.4944 82.2946 Q-11.385 82.2946 -12.4163 81.1305 Q-13.4475 79.9664 -13.4475 77.8571 Q-13.4475 75.7633 -12.4163 74.6149 Q-11.385 73.4664 -9.4944 73.4664 Q-7.635 73.4664 -6.6038 74.6383 Q-5.5725 75.8102 -5.5725 77.8727 ZM-12.4006 77.8727 Q-12.4006 79.6071 -11.6584 80.5133 Q-10.9163 81.4196 -9.4944 81.4196 Q-8.0725 81.4196 -7.3459 80.5211 Q-6.6194 79.6227 -6.6194 77.8727 Q-6.6194 76.1383 -7.3459 75.2477 Q-8.0725 74.3571 -9.4944 74.3571 Q-10.9163 74.3571 -11.6584 75.2555 Q-12.4006 76.1539 -12.4006 77.8727 Z"/><path style="fill:none; stroke:black;" d="M80.24 -25.547 L80.49 -25.98 L80.24 -26.413"/><path style="fill:none; stroke:black;" d="M65.74 -0.433 L65.49 0 L64.99 -0"/><path style="fill:none; stroke:black;" d="M65.74 -51.53 L65.49 -51.963 L64.99 -51.963"/><path style="fill:none; stroke:black;" d="M35.99 0 L35.49 0 L35.24 -0.433"/><path style="fill:none; stroke:black;" d="M35.99 -51.963 L35.49 -51.963 L35.24 -51.53"/><path style="fill:none; stroke:black;" d="M20.74 -25.547 L20.49 -25.98 L19.99 -25.98"/></g></g></svg></svg></svg></svg>