<svg width="100" viewBox="0 0 100 41" style="fill-opacity:1; color-rendering:auto; color-interpolation:auto; text-rendering:auto; stroke:black; stroke-linecap:square; stroke-miterlimit:10; shape-rendering:auto; stroke-opacity:1; fill:black; stroke-dasharray:none; font-weight:normal; stroke-width:1; font-family:'Open Sans'; font-style:normal; stroke-linejoin:miter; font-size:12; stroke-dashoffset:0; image-rendering:auto;" height="41" class="cas-substance-image" xmlns:xlink="http://www.w3.org/1999/xlink" xmlns="http://www.w3.org/2000/svg"><svg class="cas-substance-single-component"><rect y="0" x="0" width="100" stroke="none" ry="7" rx="7" height="41" fill="white" class="cas-substance-group"/><svg y="0" x="26" width="48" viewBox="0 0 48 41" style="fill:black;" height="41" class="cas-substance-single-component-image"><svg><g><g transform="translate(26,20)" style="text-rendering:geometricPrecision; color-rendering:optimizeQuality; color-interpolation:linearRGB; stroke-linecap:butt; image-rendering:optimizeQuality;"><line y2="-12.99" y1="-12.99" x2="9.0625" x1="-5.0454" style="fill:none;"/><line y2="7.2624" y1="-4.2111" x2="-3.3069" x1="-9.9313" style="fill:none;"/><line y2="7.2683" y1="-7.342" x2="3.3035" x1="11.739" style="fill:none;"/><path style="stroke-linecap:square; stroke:none;" d="M-19.1748 -8.8337 L-22.0811 -16.4275 L-22.1279 -16.4275 Q-22.0498 -15.5212 -22.0498 -14.2869 L-22.0498 -8.8337 L-22.9717 -8.8337 L-22.9717 -17.3962 L-21.4717 -17.3962 L-18.7529 -10.3337 L-18.7061 -10.3337 L-15.9717 -17.3962 L-14.4873 -17.3962 L-14.4873 -8.8337 L-15.4717 -8.8337 L-15.4717 -14.3494 Q-15.4717 -15.3025 -15.3936 -16.4119 L-15.4404 -16.4119 L-18.3779 -8.8337 L-19.1748 -8.8337 ZM-7.0283 -15.2556 L-7.0283 -14.6462 L-8.2158 -14.5056 Q-8.0439 -14.3025 -7.9189 -13.9666 Q-7.7939 -13.6306 -7.7939 -13.2244 Q-7.7939 -12.2712 -8.4346 -11.7087 Q-9.0752 -11.1462 -10.2002 -11.1462 Q-10.4971 -11.1462 -10.7471 -11.1931 Q-11.3564 -10.865 -11.3564 -10.365 Q-11.3564 -10.0994 -11.1455 -9.9744 Q-10.9346 -9.8494 -10.4033 -9.8494 L-9.2627 -9.8494 Q-8.2158 -9.8494 -7.6611 -9.4119 Q-7.1064 -8.9744 -7.1064 -8.1306 Q-7.1064 -7.0681 -7.958 -6.5056 Q-8.8096 -5.9431 -10.4502 -5.9431 Q-11.7158 -5.9431 -12.3955 -6.4119 Q-13.0752 -6.8806 -13.0752 -7.74 Q-13.0752 -8.3337 -12.7002 -8.7634 Q-12.3252 -9.1931 -11.6533 -9.3337 Q-11.9033 -9.4431 -12.0674 -9.6775 Q-12.2314 -9.9119 -12.2314 -10.2244 Q-12.2314 -10.5837 -12.0439 -10.8494 Q-11.8564 -11.115 -11.4502 -11.3494 Q-11.9502 -11.5525 -12.2627 -12.0447 Q-12.5752 -12.5369 -12.5752 -13.1775 Q-12.5752 -14.2244 -11.9424 -14.8025 Q-11.3096 -15.3806 -10.1533 -15.3806 Q-9.6533 -15.3806 -9.2471 -15.2556 L-7.0283 -15.2556 ZM-12.1377 -7.7556 Q-12.1377 -7.24 -11.7002 -6.9666 Q-11.2627 -6.6931 -10.4502 -6.6931 Q-9.2158 -6.6931 -8.6299 -7.0603 Q-8.0439 -7.4275 -8.0439 -8.0525 Q-8.0439 -8.5681 -8.3643 -8.7712 Q-8.6846 -8.9744 -9.5752 -8.9744 L-10.7471 -8.9744 Q-11.4033 -8.9744 -11.7705 -8.6619 Q-12.1377 -8.3494 -12.1377 -7.7556 ZM-11.6221 -13.1931 Q-11.6221 -12.5212 -11.2393 -12.1775 Q-10.8564 -11.8337 -10.1689 -11.8337 Q-8.7471 -11.8337 -8.7471 -13.2244 Q-8.7471 -14.6619 -10.1846 -14.6619 Q-10.8721 -14.6619 -11.2471 -14.2947 Q-11.6221 -13.9275 -11.6221 -13.1931 Z"/></g><g transform="translate(26,20)" style="fill:rgb(230,0,0); text-rendering:geometricPrecision; color-rendering:optimizeQuality; image-rendering:optimizeQuality; font-family:'Open Sans'; stroke:rgb(230,0,0); color-interpolation:linearRGB;"><path style="stroke:none;" d="M18.9375 -13.0603 Q18.9375 -10.9978 17.8984 -9.8181 Q16.8594 -8.6384 15.0156 -8.6384 Q13.125 -8.6384 12.0938 -9.8025 Q11.0625 -10.9666 11.0625 -13.0759 Q11.0625 -15.1697 12.0938 -16.3181 Q13.125 -17.4666 15.0156 -17.4666 Q16.875 -17.4666 17.9062 -16.2947 Q18.9375 -15.1228 18.9375 -13.0603 ZM12.1094 -13.0603 Q12.1094 -11.3259 12.8516 -10.4197 Q13.5938 -9.5134 15.0156 -9.5134 Q16.4375 -9.5134 17.1641 -10.4119 Q17.8906 -11.3103 17.8906 -13.0603 Q17.8906 -14.7947 17.1641 -15.6853 Q16.4375 -16.5759 15.0156 -16.5759 Q13.5938 -16.5759 12.8516 -15.6775 Q12.1094 -14.7791 12.1094 -13.0603 Z"/><path style="stroke:none;" d="M3.9375 12.9197 Q3.9375 14.9822 2.8984 16.1619 Q1.8594 17.3416 0.0156 17.3416 Q-1.875 17.3416 -2.9062 16.1775 Q-3.9375 15.0134 -3.9375 12.9041 Q-3.9375 10.8103 -2.9062 9.6619 Q-1.875 8.5134 0.0156 8.5134 Q1.875 8.5134 2.9062 9.6853 Q3.9375 10.8572 3.9375 12.9197 ZM-2.8906 12.9197 Q-2.8906 14.6541 -2.1484 15.5603 Q-1.4062 16.4666 0.0156 16.4666 Q1.4375 16.4666 2.1641 15.5681 Q2.8906 14.6697 2.8906 12.9197 Q2.8906 11.1853 2.1641 10.2947 Q1.4375 9.4041 0.0156 9.4041 Q-1.4062 9.4041 -2.1484 10.3025 Q-2.8906 11.2009 -2.8906 12.9197 Z"/></g></g></svg></svg></svg></svg>