<svg width="151" viewBox="0 0 151 89" style="fill-opacity:1; color-rendering:auto; color-interpolation:auto; text-rendering:auto; stroke:black; stroke-linecap:square; stroke-miterlimit:10; shape-rendering:auto; stroke-opacity:1; fill:black; stroke-dasharray:none; font-weight:normal; stroke-width:1; font-family:'Open Sans'; font-style:normal; stroke-linejoin:miter; font-size:12; stroke-dashoffset:0; image-rendering:auto;" height="89" class="cas-substance-image" xmlns:xlink="http://www.w3.org/1999/xlink" xmlns="http://www.w3.org/2000/svg"><svg class="cas-substance-single-component"><rect y="0" x="0" width="151" stroke="none" ry="7" rx="7" height="89" fill="white" class="cas-substance-group"/><svg y="0" x="0" width="151" viewBox="0 0 151 89" style="fill:black;" height="89" class="cas-substance-single-component-image"><svg><g><g transform="translate(77,46)" style="text-rendering:geometricPrecision; color-rendering:optimizeQuality; color-interpolation:linearRGB; stroke-linecap:butt; image-rendering:optimizeQuality;"><line y2="-12.99" y1="12.99" x2="-4.02" x1="-19.02" style="fill:none;"/><line y2="-2.01" y1="12.99" x2="-45" x1="-19.02" style="fill:none;"/><line y2="38.97" y1="12.99" x2="-34.02" x1="-19.02" style="fill:none;"/><line y2="27.99" y1="12.99" x2="6.963" x1="-19.02" style="fill:none;"/><line y2="-12.99" y1="-12.99" x2="20.0425" x1="-4.02" style="fill:none;"/><line y2="-34.2093" y1="-12.99" x2="-14.2506" x1="-1.9993" style="fill:none;"/><line y2="-32.4593" y1="-11.24" x2="-17.2817" x1="-5.0304" style="fill:none;"/><line y2="-14.0749" y1="-2.01" x2="-65.8964" x1="-45" style="fill:none;"/><line y2="-11.0438" y1="1.0211" x2="-67.6464" x1="-46.75" style="fill:none;"/><line y2="-17.106" y1="-5.0411" x2="-64.1464" x1="-43.25" style="fill:none;"/><line y2="-38.97" y1="-18.7117" x2="40.98" x1="29.2835" style="fill:none;"/><line y2="-38.97" y1="-38.97" x2="70.98" x1="40.98" style="fill:none;"/><path style="fill:none; stroke-miterlimit:5;" d="M-4.27 -12.557 L-4.02 -12.99 L-3.52 -12.99"/></g><g transform="translate(77,46)" style="stroke-linecap:butt; fill:rgb(230,0,0); text-rendering:geometricPrecision; color-rendering:optimizeQuality; image-rendering:optimizeQuality; font-family:'Open Sans'; stroke:rgb(230,0,0); color-interpolation:linearRGB; stroke-miterlimit:5;"><path style="stroke:none;" d="M29.9175 -13.0603 Q29.9175 -10.9978 28.8784 -9.8181 Q27.8394 -8.6384 25.9956 -8.6384 Q24.105 -8.6384 23.0737 -9.8025 Q22.0425 -10.9666 22.0425 -13.0759 Q22.0425 -15.1697 23.0737 -16.3181 Q24.105 -17.4666 25.9956 -17.4666 Q27.855 -17.4666 28.8862 -16.2947 Q29.9175 -15.1228 29.9175 -13.0603 ZM23.0894 -13.0603 Q23.0894 -11.3259 23.8316 -10.4197 Q24.5737 -9.5134 25.9956 -9.5134 Q27.4175 -9.5134 28.1441 -10.4119 Q28.8706 -11.3103 28.8706 -13.0603 Q28.8706 -14.7947 28.1441 -15.6853 Q27.4175 -16.5759 25.9956 -16.5759 Q24.5737 -16.5759 23.8316 -15.6775 Q23.0894 -14.7791 23.0894 -13.0603 Z"/><path style="stroke:none;" d="M-15.0825 -39.0403 Q-15.0825 -36.9778 -16.1216 -35.7981 Q-17.1606 -34.6184 -19.0044 -34.6184 Q-20.895 -34.6184 -21.9263 -35.7825 Q-22.9575 -36.9466 -22.9575 -39.0559 Q-22.9575 -41.1497 -21.9263 -42.2981 Q-20.895 -43.4466 -19.0044 -43.4466 Q-17.145 -43.4466 -16.1138 -42.2747 Q-15.0825 -41.1028 -15.0825 -39.0403 ZM-21.9106 -39.0403 Q-21.9106 -37.3059 -21.1684 -36.3997 Q-20.4263 -35.4934 -19.0044 -35.4934 Q-17.5825 -35.4934 -16.8559 -36.3919 Q-16.1294 -37.2903 -16.1294 -39.0403 Q-16.1294 -40.7747 -16.8559 -41.6653 Q-17.5825 -42.5559 -19.0044 -42.5559 Q-20.4263 -42.5559 -21.1684 -41.6575 Q-21.9106 -40.7591 -21.9106 -39.0403 Z"/><path style="fill:rgb(0,5,255); stroke:none;" d="M-67.6284 -12.8537 L-68.7691 -12.8537 L-73.4566 -20.0412 L-73.5034 -20.0412 Q-73.4097 -18.7756 -73.4097 -17.7287 L-73.4097 -12.8537 L-74.3316 -12.8537 L-74.3316 -21.4162 L-73.2066 -21.4162 L-68.5347 -14.26 L-68.4878 -14.26 Q-68.4878 -14.4162 -68.5347 -15.2756 Q-68.5816 -16.135 -68.5659 -16.51 L-68.5659 -21.4162 L-67.6284 -21.4162 L-67.6284 -12.8537 Z"/><path style="fill:none; stroke:black;" d="M40.73 -38.537 L40.98 -38.97 L41.48 -38.97"/></g></g></svg></svg></svg></svg>