<svg xmlns:ns0="http://www.w3.org/2000/svg" xmlns="http://www.w3.org/2000/svg"><g transform="translate(0, 0)"><ns0:svg width="174" viewBox="0 0 174 135" style="fill-opacity:1; color-rendering:auto; color-interpolation:auto; text-rendering:auto; stroke:black; stroke-linecap:square; stroke-miterlimit:10; shape-rendering:auto; stroke-opacity:1; fill:black; stroke-dasharray:none; font-weight:normal; stroke-width:1; font-family:'Open Sans'; font-style:normal; stroke-linejoin:miter; font-size:12; stroke-dashoffset:0; image-rendering:auto;" height="135" class="cas-substance-image"><ns0:svg class="cas-substance-single-component"><ns0:rect y="0" x="0" width="174" stroke="none" ry="7" rx="7" height="135" fill="white" class="cas-substance-group" /><ns0:svg y="0" x="0" width="174" viewBox="0 0 174 135" style="fill:black;" height="135" class="cas-substance-single-component-image"><ns0:svg><ns0:g><ns0:g transform="translate(92,67)" style="text-rendering:geometricPrecision; color-rendering:optimizeQuality; color-interpolation:linearRGB; stroke-linecap:butt; image-rendering:optimizeQuality;"><ns0:line y2="-18.226" y1="-30" x2="-72.3555" x1="-51.963" style="fill:none;" /><ns0:line y2="-53.6484" y1="-28.9897" x2="-50.213" x1="-50.213" style="fill:none;" /><ns0:line y2="-53.6484" y1="-28.9896" x2="-53.713" x1="-53.713" style="fill:none;" /><ns0:line y2="-15" y1="-30" x2="-25.98" x1="-51.963" style="fill:none;" /><ns0:line y2="30" y1="53.5234" x2="0" x1="0" style="fill:none;" /><ns0:line y2="15" y1="26.774" x2="77.943" x1="57.5505" style="fill:none;" /><ns0:line y2="15" y1="26.7588" x2="25.98" x1="46.3487" style="fill:none;" /><ns0:line y2="15" y1="-15" x2="-25.98" x1="-25.98" style="fill:none;" /><ns0:line y2="12.9793" y1="-12.9793" x2="-22.48" x1="-22.48" style="fill:none;" /><ns0:line y2="-30" y1="-15" x2="0" x1="-25.98" style="fill:none;" /><ns0:line y2="30" y1="15" x2="0" x1="-25.98" style="fill:none;" /><ns0:line y2="-15" y1="-30" x2="25.98" x1="0" style="fill:none;" /><ns0:line y2="-12.9793" y1="-25.9585" x2="22.48" x1="-0.0001" style="fill:none;" /><ns0:line y2="15" y1="30" x2="25.98" x1="0" style="fill:none;" /><ns0:line y2="12.9793" y1="25.9585" x2="22.48" x1="-0.0001" style="fill:none;" /><ns0:line y2="15" y1="-15" x2="25.98" x1="25.98" style="fill:none;" /><ns0:path style="fill:none; stroke-miterlimit:5;" d="M-52.396 -29.75 L-51.963 -30 L-51.53 -29.75" /></ns0:g><ns0:g transform="translate(92,67)" style="stroke-linecap:butt; fill:rgb(230,0,0); text-rendering:geometricPrecision; color-rendering:optimizeQuality; image-rendering:optimizeQuality; font-family:'Open Sans'; stroke:rgb(230,0,0); color-interpolation:linearRGB; stroke-miterlimit:5;"><ns0:path style="stroke:none;" d="M-74.0055 -15.0703 Q-74.0055 -13.0078 -75.0446 -11.8281 Q-76.0836 -10.6484 -77.9274 -10.6484 Q-79.818 -10.6484 -80.8493 -11.8125 Q-81.8805 -12.9766 -81.8805 -15.0859 Q-81.8805 -17.1797 -80.8493 -18.3281 Q-79.818 -19.4766 -77.9274 -19.4766 Q-76.068 -19.4766 -75.0368 -18.3047 Q-74.0055 -17.1328 -74.0055 -15.0703 ZM-80.8336 -15.0703 Q-80.8336 -13.3359 -80.0914 -12.4297 Q-79.3493 -11.5234 -77.9274 -11.5234 Q-76.5055 -11.5234 -75.7789 -12.4219 Q-75.0524 -13.3203 -75.0524 -15.0703 Q-75.0524 -16.8047 -75.7789 -17.6953 Q-76.5055 -18.5859 -77.9274 -18.5859 Q-79.3493 -18.5859 -80.0914 -17.6875 Q-80.8336 -16.7891 -80.8336 -15.0703 Z" /><ns0:path style="stroke:none;" d="M-82.8805 -10.7734 L-83.8805 -10.7734 L-83.8805 -14.8047 L-88.3961 -14.8047 L-88.3961 -10.7734 L-89.3961 -10.7734 L-89.3961 -19.3359 L-88.3961 -19.3359 L-88.3961 -15.6953 L-83.8805 -15.6953 L-83.8805 -19.3359 L-82.8805 -19.3359 L-82.8805 -10.7734 Z" /><ns0:path style="stroke:none;" d="M-48.0255 -60.0703 Q-48.0255 -58.0078 -49.0646 -56.8281 Q-50.1036 -55.6484 -51.9474 -55.6484 Q-53.838 -55.6484 -54.8693 -56.8125 Q-55.9005 -57.9766 -55.9005 -60.0859 Q-55.9005 -62.1797 -54.8693 -63.3281 Q-53.838 -64.4766 -51.9474 -64.4766 Q-50.088 -64.4766 -49.0568 -63.3047 Q-48.0255 -62.1328 -48.0255 -60.0703 ZM-54.8536 -60.0703 Q-54.8536 -58.3359 -54.1114 -57.4297 Q-53.3693 -56.5234 -51.9474 -56.5234 Q-50.5255 -56.5234 -49.7989 -57.4219 Q-49.0724 -58.3203 -49.0724 -60.0703 Q-49.0724 -61.8047 -49.7989 -62.6953 Q-50.5255 -63.5859 -51.9474 -63.5859 Q-53.3693 -63.5859 -54.1114 -62.6875 Q-54.8536 -61.7891 -54.8536 -60.0703 Z" /><ns0:path style="stroke:none;" d="M3.9375 59.9297 Q3.9375 61.9922 2.8984 63.1719 Q1.8594 64.3516 0.0156 64.3516 Q-1.875 64.3516 -2.9062 63.1875 Q-3.9375 62.0234 -3.9375 59.9141 Q-3.9375 57.8203 -2.9062 56.6719 Q-1.875 55.5234 0.0156 55.5234 Q1.875 55.5234 2.9062 56.6953 Q3.9375 57.8672 3.9375 59.9297 ZM-2.8906 59.9297 Q-2.8906 61.6641 -2.1484 62.5703 Q-1.4062 63.4766 0.0156 63.4766 Q1.4375 63.4766 2.1641 62.5781 Q2.8906 61.6797 2.8906 59.9297 Q2.8906 58.1953 2.1641 57.3047 Q1.4375 56.4141 0.0156 56.4141 Q-1.4062 56.4141 -2.1484 57.3125 Q-2.8906 58.2109 -2.8906 59.9297 Z" /><ns0:path style="stroke:none;" d="M11.4531 64.2266 L10.4531 64.2266 L10.4531 60.1953 L5.9375 60.1953 L5.9375 64.2266 L4.9375 64.2266 L4.9375 55.6641 L5.9375 55.6641 L5.9375 59.3047 L10.4531 59.3047 L10.4531 55.6641 L11.4531 55.6641 L11.4531 64.2266 Z" /><ns0:path style="stroke:none;" d="M55.9005 29.9297 Q55.9005 31.9922 54.8614 33.1719 Q53.8224 34.3516 51.9786 34.3516 Q50.088 34.3516 49.0568 33.1875 Q48.0255 32.0234 48.0255 29.9141 Q48.0255 27.8203 49.0568 26.6719 Q50.088 25.5234 51.9786 25.5234 Q53.838 25.5234 54.8693 26.6953 Q55.9005 27.8672 55.9005 29.9297 ZM49.0724 29.9297 Q49.0724 31.6641 49.8146 32.5703 Q50.5568 33.4766 51.9786 33.4766 Q53.4005 33.4766 54.1271 32.5781 Q54.8536 31.6797 54.8536 29.9297 Q54.8536 28.1953 54.1271 27.3047 Q53.4005 26.4141 51.9786 26.4141 Q50.5568 26.4141 49.8146 27.3125 Q49.0724 28.2109 49.0724 29.9297 Z" /><ns0:path style="fill:none; stroke:black;" d="M-25.98 -14.5 L-25.98 -15 L-26.413 -15.25" /><ns0:path style="fill:none; stroke:black;" d="M-25.98 14.5 L-25.98 15 L-25.547 15.25" /><ns0:path style="fill:none; stroke:black;" d="M-0.433 -29.75 L0 -30 L0.433 -29.75" /><ns0:path style="fill:none; stroke:black;" d="M0.433 29.75 L0 30 L-0 30.5" /><ns0:path style="fill:none; stroke:black;" d="M25.547 -15.25 L25.98 -15 L25.98 -14.5" /><ns0:path style="fill:none; stroke:black;" d="M25.547 15.25 L25.98 15 L25.98 14.5" /></ns0:g></ns0:g></ns0:svg></ns0:svg></ns0:svg></ns0:svg></g></svg>