<svg xmlns:ns0="http://www.w3.org/2000/svg" xmlns="http://www.w3.org/2000/svg"><g transform="translate(0, 0)"><ns0:svg width="157" viewBox="0 0 157 118" style="fill-opacity:1; color-rendering:auto; color-interpolation:auto; text-rendering:auto; stroke:black; stroke-linecap:square; stroke-miterlimit:10; shape-rendering:auto; stroke-opacity:1; fill:black; stroke-dasharray:none; font-weight:normal; stroke-width:1; font-family:'Open Sans'; font-style:normal; stroke-linejoin:miter; font-size:12; stroke-dashoffset:0; image-rendering:auto;" height="118" class="cas-substance-image"><ns0:svg class="cas-substance-single-component"><ns0:rect y="0" x="0" width="157" stroke="none" ry="7" rx="7" height="118" fill="white" class="cas-substance-group" /><ns0:svg y="0" x="0" width="157" viewBox="0 0 157 118" style="fill:black;" height="118" class="cas-substance-single-component-image"><ns0:svg><ns0:g><ns0:g transform="translate(81,61)" style="text-rendering:geometricPrecision; color-rendering:optimizeQuality; color-interpolation:linearRGB; stroke-linecap:butt; image-rendering:optimizeQuality;"><ns0:line y2="-41.563" y1="-21.231" x2="39.456" x1="27.717" style="fill:none;" /><ns0:line y2="-0.1036" y1="-21.231" x2="37.8945" x1="25.6963" style="fill:none;" /><ns0:line y2="-1.8536" y1="-22.981" x2="40.9256" x1="28.7274" style="fill:none;" /><ns0:line y2="-21.231" y1="-21.231" x2="-2.283" x1="27.717" style="fill:none;" /><ns0:line y2="-47.211" y1="-47.211" x2="72.717" x1="48.6545" style="fill:none;" /><ns0:line y2="53.865" y1="31.572" x2="-30.72" x1="-10.644" style="fill:none;" /><ns0:line y2="3.039" y1="31.572" x2="-19.917" x1="-10.644" style="fill:none;" /><ns0:line y2="-36.231" y1="-50.045" x2="-48.447" x1="-67.4594" style="fill:none;" /><ns0:line y2="3.039" y1="-21.231" x2="-19.917" x1="-2.283" style="fill:none;" /><ns0:line y2="-0.6531" y1="-21.6535" x2="-21.5607" x1="-6.3023" style="fill:none;" /><ns0:line y2="-39.7267" y1="-21.231" x2="-15.7216" x1="-2.283" style="fill:none;" /><ns0:line y2="-4.7452" y1="3.039" x2="-43.8742" x1="-19.917" style="fill:none;" /><ns0:line y2="-36.231" y1="-43.794" x2="-48.447" x1="-25.1707" style="fill:none;" /><ns0:line y2="-33.5267" y1="-40.4653" x2="-45.4436" x1="-24.0891" style="fill:none;" /><ns0:line y2="-36.231" y1="-12.6997" x2="-48.447" x1="-48.447" style="fill:none;" /><ns0:path style="fill:none; stroke-miterlimit:5;" d="M27.967 -21.664 L27.717 -21.231 L27.217 -21.231" /></ns0:g><ns0:g transform="translate(81,61)" style="stroke-linecap:butt; fill:rgb(230,0,0); text-rendering:geometricPrecision; color-rendering:optimizeQuality; image-rendering:optimizeQuality; font-family:'Open Sans'; stroke:rgb(230,0,0); color-interpolation:linearRGB; stroke-miterlimit:5;"><ns0:path style="stroke:none;" d="M46.6545 -47.2813 Q46.6545 -45.2188 45.6154 -44.0391 Q44.5764 -42.8594 42.7326 -42.8594 Q40.842 -42.8594 39.8107 -44.0235 Q38.7795 -45.1876 38.7795 -47.2969 Q38.7795 -49.3907 39.8107 -50.5391 Q40.842 -51.6876 42.7326 -51.6876 Q44.592 -51.6876 45.6232 -50.5157 Q46.6545 -49.3438 46.6545 -47.2813 ZM39.8264 -47.2813 Q39.8264 -45.5469 40.5686 -44.6407 Q41.3107 -43.7344 42.7326 -43.7344 Q44.1545 -43.7344 44.8811 -44.6329 Q45.6076 -45.5313 45.6076 -47.2813 Q45.6076 -49.0157 44.8811 -49.9063 Q44.1545 -50.7969 42.7326 -50.7969 Q41.3107 -50.7969 40.5686 -49.8985 Q39.8264 -49.0001 39.8264 -47.2813 Z" /><ns0:path style="stroke:none;" d="M46.6545 4.6787 Q46.6545 6.7412 45.6154 7.9209 Q44.5764 9.1006 42.7326 9.1006 Q40.842 9.1006 39.8107 7.9365 Q38.7795 6.7724 38.7795 4.6631 Q38.7795 2.5693 39.8107 1.4209 Q40.842 0.2724 42.7326 0.2724 Q44.592 0.2724 45.6232 1.4443 Q46.6545 2.6162 46.6545 4.6787 ZM39.8264 4.6787 Q39.8264 6.4131 40.5686 7.3193 Q41.3107 8.2256 42.7326 8.2256 Q44.1545 8.2256 44.8811 7.3271 Q45.6076 6.4287 45.6076 4.6787 Q45.6076 2.9443 44.8811 2.0537 Q44.1545 1.1631 42.7326 1.1631 Q41.3107 1.1631 40.5686 2.0615 Q39.8264 2.9599 39.8264 4.6787 Z" /><ns0:path style="fill:none; stroke:black;" d="M-10.9786 31.9435 L-10.644 31.572 L-10.7985 31.0965" /><ns0:path style="fill:rgb(0,138,0); stroke:none;" d="M-78.3859 -58.2713 L-75.9641 -58.2713 Q-74.2609 -58.2713 -73.4953 -57.7634 Q-72.7297 -57.2556 -72.7297 -56.1619 Q-72.7297 -55.3963 -73.1516 -54.8963 Q-73.5734 -54.3963 -74.4016 -54.2556 L-74.4016 -54.1931 Q-72.4484 -53.865 -72.4484 -52.1463 Q-72.4484 -51.0056 -73.2219 -50.3572 Q-73.9953 -49.7088 -75.3859 -49.7088 L-78.3859 -49.7088 L-78.3859 -58.2713 ZM-77.3859 -54.615 L-75.7453 -54.615 Q-74.6828 -54.615 -74.2219 -54.9431 Q-73.7609 -55.2713 -73.7609 -56.0525 Q-73.7609 -56.7713 -74.2766 -57.0916 Q-74.7922 -57.4119 -75.9172 -57.4119 L-77.3859 -57.4119 L-77.3859 -54.615 ZM-77.3859 -53.7713 L-77.3859 -50.5525 L-75.5891 -50.5525 Q-74.5578 -50.5525 -74.0344 -50.9588 Q-73.5109 -51.365 -73.5109 -52.2244 Q-73.5109 -53.0213 -74.05 -53.3963 Q-74.5891 -53.7713 -75.6828 -53.7713 L-77.3859 -53.7713 ZM-67.8137 -56.2556 Q-67.3918 -56.2556 -67.048 -56.1775 L-67.1887 -55.2713 Q-67.5793 -55.365 -67.8918 -55.365 Q-68.673 -55.365 -69.2277 -54.7322 Q-69.7824 -54.0994 -69.7824 -53.1619 L-69.7824 -49.7088 L-70.7512 -49.7088 L-70.7512 -56.1306 L-69.9543 -56.1306 L-69.8293 -54.9431 L-69.7824 -54.9431 Q-69.4387 -55.5681 -68.9309 -55.9119 Q-68.423 -56.2556 -67.8137 -56.2556 Z" /><ns0:path style="fill:none; stroke:black;" d="M-2.5769 -20.8265 L-2.283 -21.231 L-2.5769 -21.6355" /><ns0:path style="fill:none; stroke:black;" d="M-19.6231 2.6345 L-19.917 3.039 L-19.7625 3.5145" /><ns0:path style="fill:rgb(0,5,255); stroke:none;" d="M-16.5654 -41.3447 L-17.7061 -41.3447 L-22.3936 -48.5322 L-22.4404 -48.5322 Q-22.3467 -47.2666 -22.3467 -46.2197 L-22.3467 -41.3447 L-23.2686 -41.3447 L-23.2686 -49.9072 L-22.1436 -49.9072 L-17.4717 -42.751 L-17.4248 -42.751 Q-17.4248 -42.9072 -17.4717 -43.7666 Q-17.5186 -44.626 -17.5029 -45.001 L-17.5029 -49.9072 L-16.5654 -49.9072 L-16.5654 -41.3447 Z" /><ns0:path style="fill:rgb(148,108,0); stroke:none;" d="M-45.7517 -4.2935 Q-45.7517 -3.1685 -46.572 -2.5279 Q-47.3923 -1.8872 -48.7986 -1.8872 Q-50.3298 -1.8872 -51.1423 -2.2935 L-51.1423 -3.2466 Q-50.6111 -3.0279 -49.9939 -2.8951 Q-49.3767 -2.7622 -48.7673 -2.7622 Q-47.7673 -2.7622 -47.2673 -3.1451 Q-46.7673 -3.5279 -46.7673 -4.1997 Q-46.7673 -4.6372 -46.947 -4.9263 Q-47.1267 -5.2154 -47.5407 -5.4576 Q-47.9548 -5.6997 -48.8142 -5.9966 Q-50.0017 -6.4185 -50.5173 -7.0044 Q-51.0329 -7.5904 -51.0329 -8.5435 Q-51.0329 -9.5279 -50.2907 -10.1138 Q-49.5486 -10.6997 -48.3142 -10.6997 Q-47.0486 -10.6997 -45.9704 -10.231 L-46.2829 -9.3716 Q-47.3454 -9.8091 -48.3454 -9.8091 Q-49.1423 -9.8091 -49.5876 -9.4732 Q-50.0329 -9.1372 -50.0329 -8.5279 Q-50.0329 -8.0904 -49.8689 -7.8013 Q-49.7048 -7.5122 -49.3142 -7.2779 Q-48.9236 -7.0435 -48.1111 -6.7466 Q-46.7673 -6.2779 -46.2595 -5.7232 Q-45.7517 -5.1685 -45.7517 -4.2935 Z" /><ns0:path style="fill:none; stroke:black;" d="M-47.9715 -36.3855 L-48.447 -36.231 L-48.8515 -36.5249" /></ns0:g></ns0:g></ns0:svg></ns0:svg></ns0:svg></ns0:svg></g></svg>