<svg xmlns:ns0="http://www.w3.org/2000/svg" xmlns="http://www.w3.org/2000/svg"><g transform="translate(0, 0)"><ns0:svg width="163" viewBox="0 0 163 30" style="fill-opacity:1; color-rendering:auto; color-interpolation:auto; text-rendering:auto; stroke:black; stroke-linecap:square; stroke-miterlimit:10; shape-rendering:auto; stroke-opacity:1; fill:black; stroke-dasharray:none; font-weight:normal; stroke-width:1; font-family:'Open Sans'; font-style:normal; stroke-linejoin:miter; font-size:12; stroke-dashoffset:0; image-rendering:auto;" height="30" class="cas-substance-image"><ns0:svg class="cas-substance-single-component"><ns0:rect y="0" x="0" width="163" stroke="none" ry="7" rx="7" height="30" fill="white" class="cas-substance-group" /><ns0:svg y="0" x="0" width="163" viewBox="0 0 163 30" style="fill:black;" height="30" class="cas-substance-single-component-image"><ns0:svg><ns0:g><ns0:g transform="translate(84,15)" style="text-rendering:geometricPrecision; color-rendering:optimizeQuality; color-interpolation:linearRGB; stroke-linecap:butt; image-rendering:optimizeQuality;"><ns0:line y2="7.5" y1="-7.5" x2="12.99" x1="-12.99" style="fill:none;" /><ns0:line y2="7.5" y1="-7.5" x2="-38.97" x1="-12.99" style="fill:none;" /><ns0:line y2="-7.5" y1="7.5" x2="38.97" x1="12.99" style="fill:none;" /><ns0:line y2="-4.5652" y1="7.5" x2="-59.8694" x1="-38.97" style="fill:none;" /><ns0:line y2="4.2588" y1="-7.5" x2="59.3387" x1="38.97" style="fill:none;" /><ns0:path style="fill:none; stroke-miterlimit:5;" d="M-12.557 -7.25 L-12.99 -7.5 L-13.423 -7.25" /><ns0:path style="fill:none; stroke-miterlimit:5;" d="M12.557 7.25 L12.99 7.5 L13.423 7.25" /><ns0:path style="fill:none; stroke-miterlimit:5;" d="M-38.537 7.25 L-38.97 7.5 L-39.403 7.25" /><ns0:path style="fill:none; stroke-miterlimit:5;" d="M38.537 -7.25 L38.97 -7.5 L39.403 -7.25" /></ns0:g><ns0:g transform="translate(84,15)" style="stroke-linecap:butt; fill:rgb(0,5,255); text-rendering:geometricPrecision; color-rendering:optimizeQuality; image-rendering:optimizeQuality; font-family:'Open Sans'; stroke:rgb(0,5,255); color-interpolation:linearRGB; stroke-miterlimit:5;"><ns0:path style="stroke:none;" d="M-61.6014 -3.3438 L-62.7421 -3.3438 L-67.4296 -10.5312 L-67.4764 -10.5312 Q-67.3827 -9.2656 -67.3827 -8.2188 L-67.3827 -3.3438 L-68.3046 -3.3438 L-68.3046 -11.9062 L-67.1796 -11.9062 L-62.5077 -4.75 L-62.4608 -4.75 Q-62.4608 -4.9062 -62.5077 -5.7656 Q-62.5546 -6.625 -62.5389 -7 L-62.5389 -11.9062 L-61.6014 -11.9062 L-61.6014 -3.3438 Z" /><ns0:path style="stroke:none;" d="M-74.0546 -3.3438 L-75.0546 -3.3438 L-75.0546 -7.375 L-79.5702 -7.375 L-79.5702 -3.3438 L-80.5702 -3.3438 L-80.5702 -11.9062 L-79.5702 -11.9062 L-79.5702 -8.2656 L-75.0546 -8.2656 L-75.0546 -11.9062 L-74.0546 -11.9062 L-74.0546 -3.3438 Z" /><ns0:path style="stroke:none;" d="M-69.3046 -1.5344 L-73.0546 -1.5344 L-73.0546 -2.0969 L-71.5546 -3.6125 Q-70.8671 -4.3 -70.6483 -4.5969 Q-70.4296 -4.8938 -70.3202 -5.175 Q-70.2108 -5.4563 -70.2108 -5.7844 Q-70.2108 -6.2375 -70.4843 -6.5031 Q-70.7577 -6.7688 -71.2577 -6.7688 Q-71.6014 -6.7688 -71.9218 -6.6516 Q-72.2421 -6.5344 -72.6327 -6.2375 L-72.9764 -6.675 Q-72.1952 -7.3313 -71.2577 -7.3313 Q-70.4608 -7.3313 -69.9999 -6.9172 Q-69.5389 -6.5031 -69.5389 -5.8156 Q-69.5389 -5.2688 -69.8436 -4.7375 Q-70.1483 -4.2063 -70.9921 -3.3937 L-72.2421 -2.175 L-72.2421 -2.1437 L-69.3046 -2.1437 L-69.3046 -1.5344 Z" /><ns0:path style="fill:rgb(230,0,0); stroke:none;" d="M68.8905 7.4297 Q68.8905 9.4922 67.8514 10.6719 Q66.8124 11.8516 64.9686 11.8516 Q63.078 11.8516 62.0468 10.6875 Q61.0155 9.5234 61.0155 7.4141 Q61.0155 5.3203 62.0468 4.1719 Q63.078 3.0234 64.9686 3.0234 Q66.828 3.0234 67.8593 4.1953 Q68.8905 5.3672 68.8905 7.4297 ZM62.0624 7.4297 Q62.0624 9.1641 62.8046 10.0703 Q63.5468 10.9766 64.9686 10.9766 Q66.3905 10.9766 67.1171 10.0781 Q67.8436 9.1797 67.8436 7.4297 Q67.8436 5.6953 67.1171 4.8047 Q66.3905 3.9141 64.9686 3.9141 Q63.5468 3.9141 62.8046 4.8125 Q62.0624 5.7109 62.0624 7.4297 Z" /><ns0:path style="fill:rgb(230,0,0); stroke:none;" d="M76.4061 11.7266 L75.4061 11.7266 L75.4061 7.6953 L70.8905 7.6953 L70.8905 11.7266 L69.8905 11.7266 L69.8905 3.1641 L70.8905 3.1641 L70.8905 6.8047 L75.4061 6.8047 L75.4061 3.1641 L76.4061 3.1641 L76.4061 11.7266 Z" /></ns0:g></ns0:g></ns0:svg></ns0:svg></ns0:svg></ns0:svg></g></svg>