<svg width="163" viewBox="0 0 163 127" style="fill-opacity:1; color-rendering:auto; color-interpolation:auto; text-rendering:auto; stroke:black; stroke-linecap:square; stroke-miterlimit:10; shape-rendering:auto; stroke-opacity:1; fill:black; stroke-dasharray:none; font-weight:normal; stroke-width:1; font-family:'Open Sans'; font-style:normal; stroke-linejoin:miter; font-size:12; stroke-dashoffset:0; image-rendering:auto;" height="127" class="cas-substance-image" xmlns:xlink="http://www.w3.org/1999/xlink" xmlns="http://www.w3.org/2000/svg"><svg class="cas-substance-single-component"><rect y="0" x="0" width="163" stroke="none" ry="7" rx="7" height="127" fill="white" class="cas-substance-group"/><svg y="0" x="0" width="163" viewBox="0 0 163 112" style="fill:black;" height="112" class="cas-substance-single-component-image"><svg><g><g transform="translate(81,56)" style="text-rendering:geometricPrecision; color-rendering:optimizeQuality; color-interpolation:linearRGB; stroke-linecap:butt; image-rendering:optimizeQuality;"><line y2="7.5" y1="-4.5652" x2="51.963" x1="31.0637" style="fill:none;"/><line y2="7.5" y1="-4.5649" x2="0" x1="20.8964" style="fill:none;"/><line y2="-7.5" y1="7.5" x2="77.943" x1="51.963" style="fill:none;"/><line y2="7.5" y1="-7.5" x2="-51.963" x1="-25.98" style="fill:none;"/><line y2="9.5209" y1="-3.4585" x2="-48.4631" x1="-25.9802" style="fill:none;"/><line y2="7.5" y1="-7.5" x2="0" x1="-25.98" style="fill:none;"/><line y2="-37.5" y1="-7.5" x2="-25.98" x1="-25.98" style="fill:none;"/><line y2="37.5" y1="7.5" x2="-51.963" x1="-51.963" style="fill:none;"/><line y2="-7.5" y1="7.5" x2="-77.943" x1="-51.963" style="fill:none;"/><line y2="37.5" y1="7.5" x2="0" x1="0" style="fill:none;"/><line y2="35.4793" y1="9.5207" x2="-3.5" x1="-3.5" style="fill:none;"/><line y2="-52.5" y1="-37.5" x2="-51.963" x1="-25.98" style="fill:none;"/><line y2="-48.4585" y1="-35.4791" x2="-51.9628" x1="-29.4799" style="fill:none;"/><line y2="52.5" y1="37.5" x2="-25.98" x1="-51.963" style="fill:none;"/><line y2="48.4585" y1="35.4791" x2="-25.9802" x1="-48.4631" style="fill:none;"/><line y2="-37.5" y1="-7.5" x2="-77.943" x1="-77.943" style="fill:none;"/><line y2="-35.4793" y1="-9.5207" x2="-74.443" x1="-74.443" style="fill:none;"/><line y2="52.5" y1="37.5" x2="-25.98" x1="0" style="fill:none;"/><line y2="-37.5" y1="-52.5" x2="-77.943" x1="-51.963" style="fill:none;"/></g><g transform="translate(81,56)" style="fill:rgb(0,5,255); text-rendering:geometricPrecision; color-rendering:optimizeQuality; image-rendering:optimizeQuality; font-family:'Open Sans'; stroke:rgb(0,5,255); color-interpolation:linearRGB;"><path style="stroke:none;" d="M29.3316 -3.3438 L28.1909 -3.3438 L23.5034 -10.5312 L23.4566 -10.5312 Q23.5503 -9.2656 23.5503 -8.2188 L23.5503 -3.3438 L22.6284 -3.3438 L22.6284 -11.9062 L23.7534 -11.9062 L28.4253 -4.75 L28.4722 -4.75 Q28.4722 -4.9062 28.4253 -5.7656 Q28.3784 -6.625 28.3941 -7 L28.3941 -11.9062 L29.3316 -11.9062 L29.3316 -3.3438 Z"/><path style="stroke:none;" d="M29.2378 -12.9062 L28.2378 -12.9062 L28.2378 -16.9375 L23.7222 -16.9375 L23.7222 -12.9062 L22.7222 -12.9062 L22.7222 -21.4688 L23.7222 -21.4688 L23.7222 -17.8281 L28.2378 -17.8281 L28.2378 -21.4688 L29.2378 -21.4688 L29.2378 -12.9062 Z"/></g><g transform="translate(81,56)" style="stroke-linecap:butt; text-rendering:geometricPrecision; color-rendering:optimizeQuality; image-rendering:optimizeQuality; font-family:'Open Sans'; color-interpolation:linearRGB; stroke-miterlimit:5;"><path style="fill:none;" d="M51.53 7.25 L51.963 7.5 L52.396 7.25"/><path style="fill:none;" d="M-26.413 -7.25 L-25.98 -7.5 L-25.98 -8"/><path style="fill:none;" d="M-51.53 7.25 L-51.963 7.5 L-51.963 8"/><path style="fill:none;" d="M-0 8 L0 7.5 L0.433 7.25"/><path style="fill:none;" d="M-25.98 -37 L-25.98 -37.5 L-26.413 -37.75"/><path style="fill:none;" d="M-51.963 37 L-51.963 37.5 L-51.53 37.75"/><path style="fill:none;" d="M-77.51 -7.25 L-77.943 -7.5 L-77.943 -8"/><path style="fill:none;" d="M0 37 L0 37.5 L-0.433 37.75"/><path style="fill:none;" d="M-51.53 -52.25 L-51.963 -52.5 L-52.396 -52.25"/><path style="fill:none;" d="M-26.413 52.25 L-25.98 52.5 L-25.547 52.25"/><path style="fill:none;" d="M-77.943 -37 L-77.943 -37.5 L-77.51 -37.75"/></g></g></svg></svg><svg y="112" x="73" class="cas-substance-saf"><svg y="5" x="0" width="4" style="fill:black;" height="4" class="cas-substance-saf-dot"><circle stroke="none" r="2" fill="black" cy="2" cx="2"/></svg><svg y="0" x="8" width="25" style="fill:black;" height="15" class="cas-substance-saf-image"><svg><g><g transform="translate(6,7)" style="fill:rgb(0,138,0); text-rendering:geometricPrecision; color-rendering:optimizeQuality; image-rendering:optimizeQuality; font-family:'Open Sans'; stroke:rgb(0,138,0); color-interpolation:linearRGB;"><path style="stroke:none;" d="M3.2578 4.1562 L2.2578 4.1562 L2.2578 0.125 L-2.2578 0.125 L-2.2578 4.1562 L-3.2578 4.1562 L-3.2578 -4.4062 L-2.2578 -4.4062 L-2.2578 -0.7656 L2.2578 -0.7656 L2.2578 -4.4062 L3.2578 -4.4062 L3.2578 4.1562 Z"/><path style="stroke:none;" d="M4.2578 -4.4062 L6.6797 -4.4062 Q8.3828 -4.4062 9.1484 -3.8984 Q9.9141 -3.3906 9.9141 -2.2969 Q9.9141 -1.5312 9.4922 -1.0312 Q9.0703 -0.5312 8.2422 -0.3906 L8.2422 -0.3281 Q10.1953 0 10.1953 1.7188 Q10.1953 2.8594 9.4219 3.5078 Q8.6484 4.1562 7.2578 4.1562 L4.2578 4.1562 L4.2578 -4.4062 ZM5.2578 -0.75 L6.8984 -0.75 Q7.9609 -0.75 8.4219 -1.0781 Q8.8828 -1.4062 8.8828 -2.1875 Q8.8828 -2.9062 8.3672 -3.2266 Q7.8516 -3.5469 6.7266 -3.5469 L5.2578 -3.5469 L5.2578 -0.75 ZM5.2578 0.0938 L5.2578 3.3125 L7.0547 3.3125 Q8.0859 3.3125 8.6094 2.9062 Q9.1328 2.5 9.1328 1.6406 Q9.1328 0.8438 8.5938 0.4688 Q8.0547 0.0938 6.9609 0.0938 L5.2578 0.0938 ZM14.8301 -2.3906 Q15.252 -2.3906 15.5957 -2.3125 L15.4551 -1.4062 Q15.0645 -1.5 14.752 -1.5 Q13.9707 -1.5 13.416 -0.8672 Q12.8613 -0.2344 12.8613 0.7031 L12.8613 4.1562 L11.8926 4.1562 L11.8926 -2.2656 L12.6895 -2.2656 L12.8145 -1.0781 L12.8613 -1.0781 Q13.2051 -1.7031 13.7129 -2.0469 Q14.2207 -2.3906 14.8301 -2.3906 Z"/></g></g></svg></svg></svg></svg></svg>