<svg width="129" viewBox="0 0 129 210" style="fill-opacity:1; color-rendering:auto; color-interpolation:auto; text-rendering:auto; stroke:black; stroke-linecap:square; stroke-miterlimit:10; shape-rendering:auto; stroke-opacity:1; fill:black; stroke-dasharray:none; font-weight:normal; stroke-width:1; font-family:'Open Sans'; font-style:normal; stroke-linejoin:miter; font-size:12; stroke-dashoffset:0; image-rendering:auto;" height="210" class="cas-substance-image" xmlns:xlink="http://www.w3.org/1999/xlink" xmlns="http://www.w3.org/2000/svg"><svg class="cas-substance-single-component"><rect y="0" x="0" width="129" stroke="none" ry="7" rx="7" height="210" fill="white" class="cas-substance-group"/><svg y="0" x="0" width="129" viewBox="0 0 129 210" style="fill:black;" height="210" class="cas-substance-single-component-image"><svg><g><g transform="translate(66,105)" style="text-rendering:geometricPrecision; color-rendering:optimizeQuality; color-interpolation:linearRGB; stroke-linecap:butt; image-rendering:optimizeQuality;"><line y2="-22.5" y1="-7.5" x2="0" x1="25.98" style="fill:none;"/><line y2="22.5" y1="-7.5" x2="25.98" x1="25.98" style="fill:none;"/><line y2="-52.5" y1="-22.5" x2="0" x1="0" style="fill:none;"/><line y2="37.5" y1="22.5" x2="51.963" x1="25.98" style="fill:none;"/><line y2="32.7584" y1="20.4793" x2="4.7125" x1="25.98" style="fill:none;"/><line y2="35.7895" y1="23.5103" x2="6.4625" x1="27.7301" style="fill:none;"/><line y2="-67.5" y1="-52.5" x2="-25.98" x1="0" style="fill:none;"/><path style="stroke:none;" d="M0.25 -52.067 L-0.25 -52.933 L19.3964 -67.163 L22.3964 -61.9668 Z"/><line y2="61.0938" y1="36.4897" x2="50.213" x1="50.213" style="fill:none;"/><line y2="61.0938" y1="37.5" x2="53.713" x1="53.713" style="fill:none;"/><line y2="-55.7258" y1="-67.5" x2="-46.3753" x1="-25.98" style="fill:none;"/><line y2="-91.1484" y1="-66.4896" x2="-24.23" x1="-24.23" style="fill:none;"/><line y2="-91.1484" y1="-66.4897" x2="-27.73" x1="-27.73" style="fill:none;"/><line y2="91.0938" y1="73.6562" x2="50.213" x1="50.213" style="fill:none;"/><line y2="91.0938" y1="73.6562" x2="53.713" x1="53.713" style="fill:none;"/><path style="fill:none; stroke-miterlimit:5;" d="M25.547 -7.75 L25.98 -7.5 L25.98 -7"/><path style="fill:none; stroke-miterlimit:5;" d="M0.433 -22.25 L0 -22.5 L0 -23"/><path style="fill:none; stroke-miterlimit:5;" d="M25.98 22 L25.98 22.5 L26.413 22.75"/></g><g transform="translate(66,105)" style="stroke-linecap:butt; font-size:8.4px; fill:gray; text-rendering:geometricPrecision; image-rendering:optimizeQuality; color-rendering:optimizeQuality; font-family:'Open Sans'; font-style:italic; stroke:gray; color-interpolation:linearRGB; stroke-miterlimit:5;"><path style="stroke:none;" d="M-4.1085 -61.2969 Q-4.1085 -62.625 -3.6398 -63.75 Q-3.171 -64.875 -2.1398 -65.9531 L-1.5304 -65.9531 Q-2.4991 -64.8906 -2.9835 -63.7188 Q-3.4679 -62.5469 -3.4679 -61.3125 Q-3.4679 -59.9844 -3.0304 -58.9688 L-3.546 -58.9688 Q-4.1085 -60 -4.1085 -61.2969 ZM1.514 -61.8906 Q1.514 -61.0625 0.9672 -60.6094 Q0.4203 -60.1562 -0.5797 -60.1562 Q-0.986 -60.1562 -1.2985 -60.2109 Q-1.611 -60.2656 -1.8922 -60.4062 L-1.8922 -61.0625 Q-1.2672 -60.7344 -0.5641 -60.7344 Q0.0609 -60.7344 0.4359 -61.0312 Q0.8109 -61.3281 0.8109 -61.8438 Q0.8109 -62.1562 0.6078 -62.3828 Q0.4047 -62.6094 -0.1578 -62.9375 Q-0.7516 -63.2656 -0.9781 -63.5938 Q-1.2047 -63.9219 -1.2047 -64.375 Q-1.2047 -65.1094 -0.6891 -65.5703 Q-0.1735 -66.0312 0.6703 -66.0312 Q1.0453 -66.0312 1.3812 -65.9531 Q1.7172 -65.875 2.0922 -65.7031 L1.8265 -65.1094 Q1.5765 -65.2656 1.2562 -65.3516 Q0.9359 -65.4375 0.6703 -65.4375 Q0.139 -65.4375 -0.1813 -65.1641 Q-0.5016 -64.8906 -0.5016 -64.4219 Q-0.5016 -64.2188 -0.4313 -64.0703 Q-0.361 -63.9219 -0.2203 -63.7891 Q-0.0797 -63.6562 0.3422 -63.4062 Q0.9047 -63.0625 1.1078 -62.8672 Q1.3109 -62.6719 1.4125 -62.4375 Q1.514 -62.2031 1.514 -61.8906 ZM4.1085 -63.6094 Q4.1085 -62.2812 3.632 -61.1484 Q3.1554 -60.0156 2.1398 -58.9688 L1.5304 -58.9688 Q3.4679 -61.125 3.4679 -63.6094 Q3.4679 -64.9375 3.0304 -65.9531 L3.546 -65.9531 Q4.1085 -64.8906 4.1085 -63.6094 Z"/></g><g transform="translate(66,105)" style="stroke-linecap:butt; fill:rgb(230,0,0); text-rendering:geometricPrecision; color-rendering:optimizeQuality; image-rendering:optimizeQuality; font-family:'Open Sans'; stroke:rgb(230,0,0); color-interpolation:linearRGB; stroke-miterlimit:5;"><path style="stroke:none;" d="M3.9375 37.4297 Q3.9375 39.4922 2.8984 40.6719 Q1.8594 41.8516 0.0156 41.8516 Q-1.875 41.8516 -2.9062 40.6875 Q-3.9375 39.5234 -3.9375 37.4141 Q-3.9375 35.3203 -2.9062 34.1719 Q-1.875 33.0234 0.0156 33.0234 Q1.875 33.0234 2.9062 34.1953 Q3.9375 35.3672 3.9375 37.4297 ZM-2.8906 37.4297 Q-2.8906 39.1641 -2.1484 40.0703 Q-1.4062 40.9766 0.0156 40.9766 Q1.4375 40.9766 2.1641 40.0781 Q2.8906 39.1797 2.8906 37.4297 Q2.8906 35.6953 2.1641 34.8047 Q1.4375 33.9141 0.0156 33.9141 Q-1.4062 33.9141 -2.1484 34.8125 Q-2.8906 35.7109 -2.8906 37.4297 Z"/><path style="fill:none; stroke:black;" d="M-25.547 -67.25 L-25.98 -67.5 L-26.413 -67.25"/><path style="fill:rgb(0,5,255); stroke:none;" d="M29.3316 -63.3438 L28.1909 -63.3438 L23.5034 -70.5312 L23.4566 -70.5312 Q23.5503 -69.2656 23.5503 -68.2188 L23.5503 -63.3438 L22.6284 -63.3438 L22.6284 -71.9062 L23.7534 -71.9062 L28.4253 -64.75 L28.4722 -64.75 Q28.4722 -64.9062 28.4253 -65.7656 Q28.3784 -66.625 28.3941 -67 L28.3941 -71.9062 L29.3316 -71.9062 L29.3316 -63.3438 Z"/><path style="fill:rgb(0,5,255); stroke:none;" d="M36.8472 -63.3438 L35.8472 -63.3438 L35.8472 -67.375 L31.3316 -67.375 L31.3316 -63.3438 L30.3316 -63.3438 L30.3316 -71.9062 L31.3316 -71.9062 L31.3316 -68.2656 L35.8472 -68.2656 L35.8472 -71.9062 L36.8472 -71.9062 L36.8472 -63.3438 Z"/><path style="fill:rgb(0,5,255); stroke:none;" d="M41.5972 -61.5344 L37.8472 -61.5344 L37.8472 -62.0969 L39.3472 -63.6125 Q40.0347 -64.3 40.2534 -64.5969 Q40.4722 -64.8938 40.5816 -65.175 Q40.6909 -65.4563 40.6909 -65.7844 Q40.6909 -66.2375 40.4175 -66.5031 Q40.1441 -66.7688 39.6441 -66.7688 Q39.3003 -66.7688 38.98 -66.6516 Q38.6597 -66.5344 38.2691 -66.2375 L37.9253 -66.675 Q38.7066 -67.3313 39.6441 -67.3313 Q40.4409 -67.3313 40.9019 -66.9172 Q41.3628 -66.5031 41.3628 -65.8156 Q41.3628 -65.2688 41.0581 -64.7375 Q40.7534 -64.2063 39.9097 -63.3937 L38.6597 -62.175 L38.6597 -62.1437 L41.5972 -62.1437 L41.5972 -61.5344 Z"/><path style="fill:rgb(0,5,255); stroke:none;" d="M55.3146 71.6562 L54.1739 71.6562 L49.4864 64.4688 L49.4396 64.4688 Q49.5333 65.7344 49.5333 66.7812 L49.5333 71.6562 L48.6114 71.6562 L48.6114 63.0938 L49.7364 63.0938 L54.4083 70.25 L54.4552 70.25 Q54.4552 70.0938 54.4083 69.2344 Q54.3614 68.375 54.3771 68 L54.3771 63.0938 L55.3146 63.0938 L55.3146 71.6562 Z"/><path style="fill:black; stroke:none;" d="M58.4552 64.6656 L60.0646 64.6656 L60.0646 65.2125 L58.4552 65.2125 L58.4552 66.8688 L57.9239 66.8688 L57.9239 65.2125 L56.3146 65.2125 L56.3146 64.6656 L57.9239 64.6656 L57.9239 62.9938 L58.4552 62.9938 L58.4552 64.6656 Z"/><path style="stroke:none;" d="M-48.0255 -52.5703 Q-48.0255 -50.5078 -49.0646 -49.3281 Q-50.1036 -48.1484 -51.9474 -48.1484 Q-53.838 -48.1484 -54.8693 -49.3125 Q-55.9005 -50.4766 -55.9005 -52.5859 Q-55.9005 -54.6797 -54.8693 -55.8281 Q-53.838 -56.9766 -51.9474 -56.9766 Q-50.088 -56.9766 -49.0568 -55.8047 Q-48.0255 -54.6328 -48.0255 -52.5703 ZM-54.8536 -52.5703 Q-54.8536 -50.8359 -54.1114 -49.9297 Q-53.3693 -49.0234 -51.9474 -49.0234 Q-50.5255 -49.0234 -49.7989 -49.9219 Q-49.0724 -50.8203 -49.0724 -52.5703 Q-49.0724 -54.3047 -49.7989 -55.1953 Q-50.5255 -56.0859 -51.9474 -56.0859 Q-53.3693 -56.0859 -54.1114 -55.1875 Q-54.8536 -54.2891 -54.8536 -52.5703 Z"/><path style="stroke:none;" d="M-56.9005 -48.2734 L-57.9005 -48.2734 L-57.9005 -52.3047 L-62.4161 -52.3047 L-62.4161 -48.2734 L-63.4161 -48.2734 L-63.4161 -56.8359 L-62.4161 -56.8359 L-62.4161 -53.1953 L-57.9005 -53.1953 L-57.9005 -56.8359 L-56.9005 -56.8359 L-56.9005 -48.2734 Z"/><path style="stroke:none;" d="M-22.0425 -97.5703 Q-22.0425 -95.5078 -23.0816 -94.3281 Q-24.1206 -93.1484 -25.9644 -93.1484 Q-27.855 -93.1484 -28.8862 -94.3125 Q-29.9175 -95.4766 -29.9175 -97.5859 Q-29.9175 -99.6797 -28.8862 -100.8281 Q-27.855 -101.9766 -25.9644 -101.9766 Q-24.105 -101.9766 -23.0737 -100.8047 Q-22.0425 -99.6328 -22.0425 -97.5703 ZM-28.8706 -97.5703 Q-28.8706 -95.8359 -28.1284 -94.9297 Q-27.3862 -94.0234 -25.9644 -94.0234 Q-24.5425 -94.0234 -23.8159 -94.9219 Q-23.0894 -95.8203 -23.0894 -97.5703 Q-23.0894 -99.3047 -23.8159 -100.1953 Q-24.5425 -101.0859 -25.9644 -101.0859 Q-27.3862 -101.0859 -28.1284 -100.1875 Q-28.8706 -99.2891 -28.8706 -97.5703 Z"/><path style="fill:rgb(0,5,255); stroke:none;" d="M55.3146 101.6562 L54.1739 101.6562 L49.4864 94.4688 L49.4396 94.4688 Q49.5333 95.7344 49.5333 96.7812 L49.5333 101.6562 L48.6114 101.6562 L48.6114 93.0938 L49.7364 93.0938 L54.4083 100.25 L54.4552 100.25 Q54.4552 100.0938 54.4083 99.2344 Q54.3614 98.375 54.3771 98 L54.3771 93.0938 L55.3146 93.0938 L55.3146 101.6562 Z"/><path style="fill:black; stroke:none;" d="M56.3146 95.2281 L56.3146 94.6344 L59.6739 94.6344 L59.6739 95.2281 L56.3146 95.2281 Z"/></g></g></svg></svg></svg></svg>