<svg xmlns:ns0="http://www.w3.org/2000/svg" xmlns="http://www.w3.org/2000/svg"><g transform="translate(0, 0)"><ns0:svg width="100" viewBox="0 0 100 90" style="fill-opacity:1; color-rendering:auto; color-interpolation:auto; text-rendering:auto; stroke:black; stroke-linecap:square; stroke-miterlimit:10; shape-rendering:auto; stroke-opacity:1; fill:black; stroke-dasharray:none; font-weight:normal; stroke-width:1; font-family:'Open Sans'; font-style:normal; stroke-linejoin:miter; font-size:12; stroke-dashoffset:0; image-rendering:auto;" height="90" class="cas-substance-image"><ns0:svg class="cas-substance-single-component"><ns0:rect y="0" x="0" width="100" stroke="none" ry="7" rx="7" height="90" fill="white" class="cas-substance-group" /><ns0:svg y="0" x="5" width="89" viewBox="0 0 89 75" style="fill:black;" height="75" class="cas-substance-single-component-image"><ns0:svg><ns0:g><ns0:g transform="translate(44,37)" style="text-rendering:geometricPrecision; color-rendering:optimizeQuality; color-interpolation:linearRGB; stroke-linecap:butt; image-rendering:optimizeQuality;"><ns0:line y2="0" y1="0" x2="-24.0625" x1="-7.7852" style="fill:none;" /><ns0:line y2="0" y1="0" x2="24.0625" x1="7.018" style="fill:none;" /><ns0:line y2="23.5234" y1="6.3251" x2="-1.75" x1="-1.75" style="fill:none;" /><ns0:line y2="23.5234" y1="6.3251" x2="1.75" x1="1.75" style="fill:none;" /><ns0:line y2="-23.6484" y1="-6.3511" x2="1.75" x1="1.75" style="fill:none;" /><ns0:line y2="-23.6484" y1="-6.3511" x2="-1.75" x1="-1.75" style="fill:none;" /><ns0:path style="stroke-linecap:square; stroke:none;" d="M-1.6758 -3.5781 Q-3.082 -3.5781 -3.9023 -2.6406 Q-4.7227 -1.7031 -4.7227 -0.0625 Q-4.7227 1.6094 -3.9336 2.5312 Q-3.1445 3.4531 -1.6914 3.4531 Q-0.7852 3.4531 0.3555 3.125 L0.3555 4 Q-0.5352 4.3438 -1.832 4.3438 Q-3.7227 4.3438 -4.7539 3.1875 Q-5.7852 2.0312 -5.7852 -0.0781 Q-5.7852 -1.4062 -5.293 -2.3984 Q-4.8008 -3.3906 -3.8633 -3.9297 Q-2.9258 -4.4688 -1.6602 -4.4688 Q-0.3164 -4.4688 0.6992 -3.9844 L0.2773 -3.125 Q-0.707 -3.5781 -1.6758 -3.5781 ZM5.0195 -2.3281 Q5.4414 -2.3281 5.7852 -2.25 L5.6445 -1.3438 Q5.2539 -1.4375 4.9414 -1.4375 Q4.1602 -1.4375 3.6055 -0.8047 Q3.0508 -0.1719 3.0508 0.7656 L3.0508 4.2188 L2.082 4.2188 L2.082 -2.2031 L2.8789 -2.2031 L3.0039 -1.0156 L3.0508 -1.0156 Q3.3945 -1.6406 3.9023 -1.9844 Q4.4102 -2.3281 5.0195 -2.3281 Z" /></ns0:g><ns0:g transform="translate(44,37)" style="fill:rgb(230,0,0); text-rendering:geometricPrecision; color-rendering:optimizeQuality; image-rendering:optimizeQuality; font-family:'Open Sans'; stroke:rgb(230,0,0); color-interpolation:linearRGB;"><ns0:path style="stroke:none;" d="M-26.0625 -0.0703 Q-26.0625 1.9922 -27.1016 3.1719 Q-28.1406 4.3516 -29.9844 4.3516 Q-31.875 4.3516 -32.9062 3.1875 Q-33.9375 2.0234 -33.9375 -0.0859 Q-33.9375 -2.1797 -32.9062 -3.3281 Q-31.875 -4.4766 -29.9844 -4.4766 Q-28.125 -4.4766 -27.0938 -3.3047 Q-26.0625 -2.1328 -26.0625 -0.0703 ZM-32.8906 -0.0703 Q-32.8906 1.6641 -32.1484 2.5703 Q-31.4062 3.4766 -29.9844 3.4766 Q-28.5625 3.4766 -27.8359 2.5781 Q-27.1094 1.6797 -27.1094 -0.0703 Q-27.1094 -1.8047 -27.8359 -2.6953 Q-28.5625 -3.5859 -29.9844 -3.5859 Q-31.4062 -3.5859 -32.1484 -2.6875 Q-32.8906 -1.7891 -32.8906 -0.0703 Z" /><ns0:path style="stroke:none;" d="M-34.9375 4.2266 L-35.9375 4.2266 L-35.9375 0.1953 L-40.4531 0.1953 L-40.4531 4.2266 L-41.4531 4.2266 L-41.4531 -4.3359 L-40.4531 -4.3359 L-40.4531 -0.6953 L-35.9375 -0.6953 L-35.9375 -4.3359 L-34.9375 -4.3359 L-34.9375 4.2266 Z" /><ns0:path style="stroke:none;" d="M33.9375 -0.0703 Q33.9375 1.9922 32.8984 3.1719 Q31.8594 4.3516 30.0156 4.3516 Q28.125 4.3516 27.0938 3.1875 Q26.0625 2.0234 26.0625 -0.0859 Q26.0625 -2.1797 27.0938 -3.3281 Q28.125 -4.4766 30.0156 -4.4766 Q31.875 -4.4766 32.9062 -3.3047 Q33.9375 -2.1328 33.9375 -0.0703 ZM27.1094 -0.0703 Q27.1094 1.6641 27.8516 2.5703 Q28.5938 3.4766 30.0156 3.4766 Q31.4375 3.4766 32.1641 2.5781 Q32.8906 1.6797 32.8906 -0.0703 Q32.8906 -1.8047 32.1641 -2.6953 Q31.4375 -3.5859 30.0156 -3.5859 Q28.5938 -3.5859 27.8516 -2.6875 Q27.1094 -1.7891 27.1094 -0.0703 Z" /><ns0:path style="stroke:none;" d="M41.4531 4.2266 L40.4531 4.2266 L40.4531 0.1953 L35.9375 0.1953 L35.9375 4.2266 L34.9375 4.2266 L34.9375 -4.3359 L35.9375 -4.3359 L35.9375 -0.6953 L40.4531 -0.6953 L40.4531 -4.3359 L41.4531 -4.3359 L41.4531 4.2266 Z" /><ns0:path style="stroke:none;" d="M3.9375 29.9297 Q3.9375 31.9922 2.8984 33.1719 Q1.8594 34.3516 0.0156 34.3516 Q-1.875 34.3516 -2.9062 33.1875 Q-3.9375 32.0234 -3.9375 29.9141 Q-3.9375 27.8203 -2.9062 26.6719 Q-1.875 25.5234 0.0156 25.5234 Q1.875 25.5234 2.9062 26.6953 Q3.9375 27.8672 3.9375 29.9297 ZM-2.8906 29.9297 Q-2.8906 31.6641 -2.1484 32.5703 Q-1.4062 33.4766 0.0156 33.4766 Q1.4375 33.4766 2.1641 32.5781 Q2.8906 31.6797 2.8906 29.9297 Q2.8906 28.1953 2.1641 27.3047 Q1.4375 26.4141 0.0156 26.4141 Q-1.4062 26.4141 -2.1484 27.3125 Q-2.8906 28.2109 -2.8906 29.9297 Z" /><ns0:path style="stroke:none;" d="M3.9375 -30.0703 Q3.9375 -28.0078 2.8984 -26.8281 Q1.8594 -25.6484 0.0156 -25.6484 Q-1.875 -25.6484 -2.9062 -26.8125 Q-3.9375 -27.9766 -3.9375 -30.0859 Q-3.9375 -32.1797 -2.9062 -33.3281 Q-1.875 -34.4766 0.0156 -34.4766 Q1.875 -34.4766 2.9062 -33.3047 Q3.9375 -32.1328 3.9375 -30.0703 ZM-2.8906 -30.0703 Q-2.8906 -28.3359 -2.1484 -27.4297 Q-1.4062 -26.5234 0.0156 -26.5234 Q1.4375 -26.5234 2.1641 -27.4219 Q2.8906 -28.3203 2.8906 -30.0703 Q2.8906 -31.8047 2.1641 -32.6953 Q1.4375 -33.5859 0.0156 -33.5859 Q-1.4062 -33.5859 -2.1484 -32.6875 Q-2.8906 -31.7891 -2.8906 -30.0703 Z" /></ns0:g></ns0:g></ns0:svg></ns0:svg><ns0:svg y="75" x="42" class="cas-substance-saf"><ns0:svg y="5" x="0" width="4" style="fill:black;" height="4" class="cas-substance-saf-dot"><ns0:circle stroke="none" r="2" fill="black" cy="2" cx="2" /></ns0:svg><ns0:svg y="0" x="8" width="17" style="fill:black;" height="15" class="cas-substance-saf-image"><ns0:svg><ns0:g><ns0:g transform="translate(8,7)" style="text-rendering:geometricPrecision; font-family:'Open Sans'; color-interpolation:linearRGB; color-rendering:optimizeQuality; image-rendering:optimizeQuality;"><ns0:path style="stroke:none;" d="M0.043 1.9375 Q0.043 3.0625 -0.7773 3.7031 Q-1.5977 4.3438 -3.0039 4.3438 Q-4.5352 4.3438 -5.3477 3.9375 L-5.3477 2.9844 Q-4.8164 3.2031 -4.1992 3.3359 Q-3.582 3.4688 -2.9727 3.4688 Q-1.9727 3.4688 -1.4727 3.0859 Q-0.9727 2.7031 -0.9727 2.0312 Q-0.9727 1.5938 -1.1523 1.3047 Q-1.332 1.0156 -1.7461 0.7734 Q-2.1602 0.5312 -3.0195 0.2344 Q-4.207 -0.1875 -4.7227 -0.7734 Q-5.2383 -1.3594 -5.2383 -2.3125 Q-5.2383 -3.2969 -4.4961 -3.8828 Q-3.7539 -4.4688 -2.5195 -4.4688 Q-1.2539 -4.4688 -0.1758 -4 L-0.4883 -3.1406 Q-1.5508 -3.5781 -2.5508 -3.5781 Q-3.3477 -3.5781 -3.793 -3.2422 Q-4.2383 -2.9062 -4.2383 -2.2969 Q-4.2383 -1.8594 -4.0742 -1.5703 Q-3.9102 -1.2812 -3.5195 -1.0469 Q-3.1289 -0.8125 -2.3164 -0.5156 Q-0.9727 -0.0469 -0.4648 0.5078 Q0.043 1.0625 0.043 1.9375 ZM4.582 -2.3281 Q5.0039 -2.3281 5.3477 -2.25 L5.207 -1.3438 Q4.8164 -1.4375 4.5039 -1.4375 Q3.7227 -1.4375 3.168 -0.8047 Q2.6133 -0.1719 2.6133 0.7656 L2.6133 4.2188 L1.6445 4.2188 L1.6445 -2.2031 L2.4414 -2.2031 L2.5664 -1.0156 L2.6133 -1.0156 Q2.957 -1.6406 3.4648 -1.9844 Q3.9727 -2.3281 4.582 -2.3281 Z" /></ns0:g></ns0:g></ns0:svg></ns0:svg></ns0:svg></ns0:svg></ns0:svg></g></svg>