<svg width="170" viewBox="0 0 170 71" style="fill-opacity:1; color-rendering:auto; color-interpolation:auto; text-rendering:auto; stroke:black; stroke-linecap:square; stroke-miterlimit:10; shape-rendering:auto; stroke-opacity:1; fill:black; stroke-dasharray:none; font-weight:normal; stroke-width:1; font-family:'Open Sans'; font-style:normal; stroke-linejoin:miter; font-size:12; stroke-dashoffset:0; image-rendering:auto;" height="71" class="cas-substance-image" xmlns:xlink="http://www.w3.org/1999/xlink" xmlns="http://www.w3.org/2000/svg"><svg class="cas-substance-single-component"><rect y="0" x="0" width="170" stroke="none" ry="7" rx="7" height="71" fill="white" class="cas-substance-group"/><svg y="0" x="0" width="170" viewBox="0 0 170 71" style="fill:black;" height="71" class="cas-substance-single-component-image"><svg><g><g transform="translate(85,38)" style="text-rendering:geometricPrecision; color-rendering:optimizeQuality; color-interpolation:linearRGB; stroke-linecap:butt; image-rendering:optimizeQuality;"><line y2="-15" y1="-26.8216" x2="51.963" x1="31.4856" style="fill:none;"/><line y2="-15" y1="-26.8112" x2="0" x1="20.457" style="fill:none;"/><line y2="15" y1="-15" x2="51.963" x1="51.963" style="fill:none;"/><line y2="-25.2956" y1="-12.9793" x2="73.295" x1="51.963" style="fill:none;"/><line y2="-28.3267" y1="-16.0103" x2="71.5449" x1="50.2129" style="fill:none;"/><line y2="-15" y1="-26.4492" x2="-51.963" x1="-71.793" style="fill:none;"/><line y2="-30" y1="-15" x2="-25.98" x1="0" style="fill:none;"/><line y2="-25.9585" y1="-12.9793" x2="-25.9801" x1="-3.5" style="fill:none;"/><line y2="15" y1="-15" x2="0" x1="0" style="fill:none;"/><line y2="-15" y1="-30" x2="-51.963" x1="-25.98" style="fill:none;"/><line y2="30" y1="15" x2="-25.98" x1="0" style="fill:none;"/><line y2="25.9585" y1="12.9793" x2="-25.9801" x1="-3.5" style="fill:none;"/><line y2="15" y1="-15" x2="-51.963" x1="-51.963" style="fill:none;"/><line y2="12.9793" y1="-12.9793" x2="-48.463" x1="-48.463" style="fill:none;"/><line y2="15" y1="30" x2="-51.963" x1="-25.98" style="fill:none;"/></g><g transform="translate(85,38)" style="fill:rgb(230,0,0); text-rendering:geometricPrecision; color-rendering:optimizeQuality; image-rendering:optimizeQuality; font-family:'Open Sans'; stroke:rgb(230,0,0); color-interpolation:linearRGB;"><path style="stroke:none;" d="M29.9175 -30.0703 Q29.9175 -28.0078 28.8784 -26.8281 Q27.8394 -25.6484 25.9956 -25.6484 Q24.105 -25.6484 23.0737 -26.8125 Q22.0425 -27.9766 22.0425 -30.0859 Q22.0425 -32.1797 23.0737 -33.3281 Q24.105 -34.4766 25.9956 -34.4766 Q27.855 -34.4766 28.8862 -33.3047 Q29.9175 -32.1328 29.9175 -30.0703 ZM23.0894 -30.0703 Q23.0894 -28.3359 23.8316 -27.4297 Q24.5737 -26.5234 25.9956 -26.5234 Q27.4175 -26.5234 28.1441 -27.4219 Q28.8706 -28.3203 28.8706 -30.0703 Q28.8706 -31.8047 28.1441 -32.6953 Q27.4175 -33.5859 25.9956 -33.5859 Q24.5737 -33.5859 23.8316 -32.6875 Q23.0894 -31.7891 23.0894 -30.0703 Z"/></g><g transform="translate(85,38)" style="stroke-linecap:butt; text-rendering:geometricPrecision; color-rendering:optimizeQuality; image-rendering:optimizeQuality; font-family:'Open Sans'; color-interpolation:linearRGB; stroke-miterlimit:5;"><path style="fill:none;" d="M51.53 -15.25 L51.963 -15 L51.963 -14.5"/><path style="fill:rgb(230,0,0); stroke:none;" d="M81.8805 -30.0703 Q81.8805 -28.0078 80.8414 -26.8281 Q79.8024 -25.6484 77.9586 -25.6484 Q76.068 -25.6484 75.0368 -26.8125 Q74.0055 -27.9766 74.0055 -30.0859 Q74.0055 -32.1797 75.0368 -33.3281 Q76.068 -34.4766 77.9586 -34.4766 Q79.818 -34.4766 80.8493 -33.3047 Q81.8805 -32.1328 81.8805 -30.0703 ZM75.0524 -30.0703 Q75.0524 -28.3359 75.7946 -27.4297 Q76.5368 -26.5234 77.9586 -26.5234 Q79.3805 -26.5234 80.1071 -27.4219 Q80.8336 -28.3203 80.8336 -30.0703 Q80.8336 -31.8047 80.1071 -32.6953 Q79.3805 -33.5859 77.9586 -33.5859 Q76.5368 -33.5859 75.7946 -32.6875 Q75.0524 -31.7891 75.0524 -30.0703 Z"/><path style="fill:rgb(0,138,0); stroke:none;" d="M-78.2516 -33.3594 Q-79.6578 -33.3594 -80.4782 -32.4219 Q-81.2985 -31.4844 -81.2985 -29.8438 Q-81.2985 -28.1719 -80.5094 -27.25 Q-79.7203 -26.3281 -78.2672 -26.3281 Q-77.361 -26.3281 -76.2203 -26.6562 L-76.2203 -25.7812 Q-77.111 -25.4375 -78.4078 -25.4375 Q-80.2985 -25.4375 -81.3297 -26.5938 Q-82.361 -27.75 -82.361 -29.8594 Q-82.361 -31.1875 -81.8688 -32.1797 Q-81.3766 -33.1719 -80.4391 -33.7109 Q-79.5016 -34.25 -78.236 -34.25 Q-76.8922 -34.25 -75.8766 -33.7656 L-76.2985 -32.9062 Q-77.2828 -33.3594 -78.2516 -33.3594 ZM-73.525 -25.5625 L-74.4938 -25.5625 L-74.4938 -34.6875 L-73.525 -34.6875 L-73.525 -25.5625 Z"/><path style="fill:none;" d="M-0.433 -15.25 L0 -15 L0.433 -15.25"/><path style="fill:none;" d="M-25.547 -29.75 L-25.98 -30 L-26.413 -29.75"/><path style="fill:none;" d="M0 14.5 L0 15 L-0.433 15.25"/><path style="fill:none;" d="M-51.963 -14.5 L-51.963 -15 L-52.396 -15.25"/><path style="fill:none;" d="M-25.547 29.75 L-25.98 30 L-26.413 29.75"/><path style="fill:none;" d="M-51.963 14.5 L-51.963 15 L-51.53 15.25"/></g></g></svg></svg></svg></svg>