<svg xmlns:ns0="http://www.w3.org/2000/svg" xmlns="http://www.w3.org/2000/svg"><g transform="translate(0, 0)"><ns0:svg width="179" viewBox="0 0 179 141" style="fill-opacity:1; color-rendering:auto; color-interpolation:auto; text-rendering:auto; stroke:black; stroke-linecap:square; stroke-miterlimit:10; shape-rendering:auto; stroke-opacity:1; fill:black; stroke-dasharray:none; font-weight:normal; stroke-width:1; font-family:'Open Sans'; font-style:normal; stroke-linejoin:miter; font-size:12; stroke-dashoffset:0; image-rendering:auto;" height="141" class="cas-substance-image"><ns0:svg class="cas-substance-single-component"><ns0:rect y="0" x="0" width="179" stroke="none" ry="7" rx="7" height="141" fill="white" class="cas-substance-group" /><ns0:svg y="0" x="0" width="179" viewBox="0 0 179 141" style="fill:black;" height="141" class="cas-substance-single-component-image"><ns0:svg><ns0:g><ns0:g transform="translate(89,68)" style="text-rendering:geometricPrecision; color-rendering:optimizeQuality; color-interpolation:linearRGB; stroke-linecap:butt; image-rendering:optimizeQuality;"><ns0:line y2="34.1174" y1="19.7533" x2="-42.3225" x1="-50.6158" style="fill:none;" /><ns0:line y2="32.3674" y1="18.0033" x2="-39.2914" x1="-47.5848" style="fill:none;" /><ns0:line y2="11.24" y1="11.24" x2="-76.5625" x1="-57.8516" style="fill:none;" /><ns0:line y2="14.74" y1="14.74" x2="-76.5625" x1="-57.8516" style="fill:none;" /><ns0:line y2="-12.99" y1="6.8517" x2="-37.5" x1="-48.956" style="fill:none;" /><ns0:line y2="12.99" y1="12.99" x2="37.5" x1="7.5" style="fill:none;" /><ns0:line y2="-12.99" y1="12.99" x2="-7.5" x1="7.5" style="fill:none;" /><ns0:line y2="38.97" y1="12.99" x2="52.5" x1="37.5" style="fill:none;" /><ns0:line y2="-6.467" y1="14.74" x2="50.7546" x1="38.5104" style="fill:none;" /><ns0:line y2="-8.2171" y1="12.99" x2="47.7235" x1="35.4793" style="fill:none;" /><ns0:line y2="59.2311" y1="38.97" x2="40.8033" x1="52.5" style="fill:none;" /><ns0:line y2="40.72" y1="40.72" x2="76.5625" x1="51.4897" style="fill:none;" /><ns0:line y2="37.22" y1="37.22" x2="76.5625" x1="51.4896" style="fill:none;" /><ns0:line y2="-12.99" y1="-12.99" x2="-7.5" x1="-37.5" style="fill:none;" /><ns0:line y2="-16.49" y1="-16.49" x2="-9.5207" x1="-35.4793" style="fill:none;" /><ns0:line y2="-38.97" y1="-12.99" x2="-52.5" x1="-37.5" style="fill:none;" /><ns0:line y2="-38.97" y1="-12.99" x2="7.5" x1="-7.5" style="fill:none;" /><ns0:line y2="-64.953" y1="-38.97" x2="-37.5" x1="-52.5" style="fill:none;" /><ns0:line y2="-61.4531" y1="-38.9702" x2="-35.4791" x1="-48.4585" style="fill:none;" /><ns0:line y2="-64.953" y1="-38.97" x2="-7.5" x1="7.5" style="fill:none;" /><ns0:line y2="-61.4531" y1="-38.9702" x2="-9.5209" x1="3.4585" style="fill:none;" /><ns0:line y2="-64.953" y1="-64.953" x2="-7.5" x1="-37.5" style="fill:none;" /></ns0:g><ns0:g transform="translate(89,68)" style="fill:rgb(0,5,255); text-rendering:geometricPrecision; color-rendering:optimizeQuality; image-rendering:optimizeQuality; font-family:'Open Sans'; stroke:rgb(0,5,255); color-interpolation:linearRGB;"><ns0:path style="stroke:none;" d="M-49.1484 17.1462 L-50.2891 17.1462 L-54.9766 9.9587 L-55.0234 9.9587 Q-54.9297 11.2244 -54.9297 12.2712 L-54.9297 17.1462 L-55.8516 17.1462 L-55.8516 8.5837 L-54.7266 8.5837 L-50.0547 15.74 L-50.0078 15.74 Q-50.0078 15.5837 -50.0547 14.7244 Q-50.1016 13.865 -50.0859 13.49 L-50.0859 8.5837 L-49.1484 8.5837 L-49.1484 17.1462 Z" /><ns0:path style="fill:rgb(230,0,0); stroke:none;" d="M-33.5625 38.8997 Q-33.5625 40.9622 -34.6016 42.1419 Q-35.6406 43.3216 -37.4844 43.3216 Q-39.375 43.3216 -40.4062 42.1575 Q-41.4375 40.9934 -41.4375 38.8841 Q-41.4375 36.7903 -40.4062 35.6419 Q-39.375 34.4934 -37.4844 34.4934 Q-35.625 34.4934 -34.5938 35.6653 Q-33.5625 36.8372 -33.5625 38.8997 ZM-40.3906 38.8997 Q-40.3906 40.6341 -39.6484 41.5403 Q-38.9062 42.4466 -37.4844 42.4466 Q-36.0625 42.4466 -35.3359 41.5481 Q-34.6094 40.6497 -34.6094 38.8997 Q-34.6094 37.1653 -35.3359 36.2747 Q-36.0625 35.3841 -37.4844 35.3841 Q-38.9062 35.3841 -39.6484 36.2825 Q-40.3906 37.1809 -40.3906 38.8997 Z" /><ns0:path style="fill:rgb(230,0,0); stroke:none;" d="M-78.5625 12.9197 Q-78.5625 14.9822 -79.6016 16.1619 Q-80.6406 17.3416 -82.4844 17.3416 Q-84.375 17.3416 -85.4062 16.1775 Q-86.4375 15.0134 -86.4375 12.9041 Q-86.4375 10.8103 -85.4062 9.6619 Q-84.375 8.5134 -82.4844 8.5134 Q-80.625 8.5134 -79.5938 9.6853 Q-78.5625 10.8572 -78.5625 12.9197 ZM-85.3906 12.9197 Q-85.3906 14.6541 -84.6484 15.5603 Q-83.9062 16.4666 -82.4844 16.4666 Q-81.0625 16.4666 -80.3359 15.5681 Q-79.6094 14.6697 -79.6094 12.9197 Q-79.6094 11.1853 -80.3359 10.2947 Q-81.0625 9.4041 -82.4844 9.4041 Q-83.9062 9.4041 -84.6484 10.3025 Q-85.3906 11.2009 -85.3906 12.9197 Z" /></ns0:g><ns0:g transform="translate(89,68)" style="stroke-linecap:butt; text-rendering:geometricPrecision; color-rendering:optimizeQuality; image-rendering:optimizeQuality; font-family:'Open Sans'; color-interpolation:linearRGB; stroke-miterlimit:5;"><ns0:path style="fill:none;" d="M8 12.99 L7.5 12.99 L7.25 12.557" /><ns0:path style="fill:none;" d="M37 12.99 L37.5 12.99 L37.75 13.423" /><ns0:path style="fill:none;" d="M52.25 38.537 L52.5 38.97 L52.25 39.403" /><ns0:path style="fill:rgb(230,0,0); stroke:none;" d="M56.4375 -13.0603 Q56.4375 -10.9978 55.3984 -9.8181 Q54.3594 -8.6384 52.5156 -8.6384 Q50.625 -8.6384 49.5938 -9.8025 Q48.5625 -10.9666 48.5625 -13.0759 Q48.5625 -15.1697 49.5938 -16.3181 Q50.625 -17.4666 52.5156 -17.4666 Q54.375 -17.4666 55.4062 -16.2947 Q56.4375 -15.1228 56.4375 -13.0603 ZM49.6094 -13.0603 Q49.6094 -11.3259 50.3516 -10.4197 Q51.0938 -9.5134 52.5156 -9.5134 Q53.9375 -9.5134 54.6641 -10.4119 Q55.3906 -11.3103 55.3906 -13.0603 Q55.3906 -14.7947 54.6641 -15.6853 Q53.9375 -16.5759 52.5156 -16.5759 Q51.0938 -16.5759 50.3516 -15.6775 Q49.6094 -14.7791 49.6094 -13.0603 Z" /><ns0:path style="fill:rgb(230,0,0); stroke:none;" d="M41.4375 64.8827 Q41.4375 66.9452 40.3984 68.1249 Q39.3594 69.3046 37.5156 69.3046 Q35.625 69.3046 34.5938 68.1405 Q33.5625 66.9764 33.5625 64.8671 Q33.5625 62.7733 34.5938 61.6249 Q35.625 60.4764 37.5156 60.4764 Q39.375 60.4764 40.4062 61.6483 Q41.4375 62.8202 41.4375 64.8827 ZM34.6094 64.8827 Q34.6094 66.6171 35.3516 67.5233 Q36.0938 68.4296 37.5156 68.4296 Q38.9375 68.4296 39.6641 67.5311 Q40.3906 66.6327 40.3906 64.8827 Q40.3906 63.1483 39.6641 62.2577 Q38.9375 61.3671 37.5156 61.3671 Q36.0938 61.3671 35.3516 62.2655 Q34.6094 63.1639 34.6094 64.8827 Z" /><ns0:path style="fill:rgb(230,0,0); stroke:none;" d="M32.5625 69.1796 L31.5625 69.1796 L31.5625 65.1483 L27.0469 65.1483 L27.0469 69.1796 L26.0469 69.1796 L26.0469 60.6171 L27.0469 60.6171 L27.0469 64.2577 L31.5625 64.2577 L31.5625 60.6171 L32.5625 60.6171 L32.5625 69.1796 Z" /><ns0:path style="fill:rgb(230,0,0); stroke:none;" d="M86.4375 38.8997 Q86.4375 40.9622 85.3984 42.1419 Q84.3594 43.3216 82.5156 43.3216 Q80.625 43.3216 79.5938 42.1575 Q78.5625 40.9934 78.5625 38.8841 Q78.5625 36.7903 79.5938 35.6419 Q80.625 34.4934 82.5156 34.4934 Q84.375 34.4934 85.4062 35.6653 Q86.4375 36.8372 86.4375 38.8997 ZM79.6094 38.8997 Q79.6094 40.6341 80.3516 41.5403 Q81.0938 42.4466 82.5156 42.4466 Q83.9375 42.4466 84.6641 41.5481 Q85.3906 40.6497 85.3906 38.8997 Q85.3906 37.1653 84.6641 36.2747 Q83.9375 35.3841 82.5156 35.3841 Q81.0938 35.3841 80.3516 36.2825 Q79.6094 37.1809 79.6094 38.8997 Z" /><ns0:path style="fill:none;" d="M-37 -12.99 L-37.5 -12.99 L-37.75 -13.423" /><ns0:path style="fill:none;" d="M-8 -12.99 L-7.5 -12.99 L-7.25 -12.557" /><ns0:path style="fill:none;" d="M-52.25 -38.537 L-52.5 -38.97 L-52.25 -39.403" /><ns0:path style="fill:none;" d="M7.25 -38.537 L7.5 -38.97 L7.25 -39.403" /><ns0:path style="fill:none;" d="M-37.75 -64.52 L-37.5 -64.953 L-37 -64.953" /><ns0:path style="fill:none;" d="M-7.25 -64.52 L-7.5 -64.953 L-8 -64.953" /></ns0:g></ns0:g></ns0:svg></ns0:svg></ns0:svg></ns0:svg></g></svg>