<svg xmlns:ns0="http://www.w3.org/2000/svg" xmlns="http://www.w3.org/2000/svg"><g transform="translate(0, 0)"><ns0:svg width="501" viewBox="0 0 501 422" style="fill-opacity:1; color-rendering:auto; color-interpolation:auto; text-rendering:auto; stroke:black; stroke-linecap:square; stroke-miterlimit:10; shape-rendering:auto; stroke-opacity:1; fill:black; stroke-dasharray:none; font-weight:normal; stroke-width:1; font-family:'Open Sans'; font-style:normal; stroke-linejoin:miter; font-size:12; stroke-dashoffset:0; image-rendering:auto;" height="422" class="cas-substance-image"><ns0:svg class="cas-substance-single-component"><ns0:rect y="0" x="0" width="501" stroke="none" ry="7" rx="7" height="422" fill="white" class="cas-substance-group" /><ns0:svg y="0" x="0" width="501" viewBox="0 0 501 422" style="fill:black;" height="422" class="cas-substance-single-component-image"><ns0:svg><ns0:g><ns0:g transform="translate(251,211)" style="text-rendering:geometricPrecision; color-rendering:optimizeQuality; color-interpolation:linearRGB; stroke-linecap:butt; image-rendering:optimizeQuality;"><ns0:line y2="-31.7019" y1="-51.963" x2="-19.1967" x1="-7.5" style="fill:none;" /><ns0:line y2="-51.963" y1="-51.963" x2="22.5" x1="-7.5" style="fill:none;" /><ns0:line y2="-77.943" y1="-51.963" x2="-22.5" x1="-7.5" style="fill:none;" /><ns0:line y2="0" y1="-20.3443" x2="-7.5" x1="-19.2461" style="fill:none;" /><ns0:line y2="-72.295" y1="-51.963" x2="34.239" x1="22.5" style="fill:none;" /><ns0:line y2="-77.943" y1="-77.943" x2="-46.5625" x1="-22.5" style="fill:none;" /><ns0:line y2="25.98" y1="0" x2="-22.5" x1="-7.5" style="fill:none;" /><ns0:line y2="1.75" y1="1.75" x2="16.5625" x1="-8.5104" style="fill:none;" /><ns0:line y2="-1.75" y1="-1.75" x2="16.5625" x1="-8.5104" style="fill:none;" /><ns0:line y2="-77.943" y1="-77.943" x2="67.5" x1="43.4375" style="fill:none;" /><ns0:line y2="-103.923" y1="-83.6706" x2="-67.5" x1="-55.8069" style="fill:none;" /><ns0:line y2="51.963" y1="25.98" x2="-7.5" x1="-22.5" style="fill:none;" /><ns0:line y2="-103.923" y1="-77.943" x2="82.5" x1="67.5" style="fill:none;" /><ns0:line y2="-56.8156" y1="-77.943" x2="77.6775" x1="65.4793" style="fill:none;" /><ns0:line y2="-58.5656" y1="-79.693" x2="80.7086" x1="68.5104" style="fill:none;" /><ns0:line y2="-103.923" y1="-103.923" x2="-97.5" x1="-67.5" style="fill:none;" /><ns0:line y2="-123.38" y1="-102.173" x2="-54.2454" x1="-66.4896" style="fill:none;" /><ns0:line y2="-125.1301" y1="-103.923" x2="-57.2765" x1="-69.5207" style="fill:none;" /><ns0:line y2="77.943" y1="51.963" x2="-22.5" x1="-7.5" style="fill:none;" /><ns0:line y2="-103.923" y1="-103.923" x2="112.5" x1="82.5" style="fill:none;" /><ns0:line y2="-129.903" y1="-103.923" x2="-112.5" x1="-97.5" style="fill:none;" /><ns0:line y2="103.923" y1="77.943" x2="-7.5" x1="-22.5" style="fill:none;" /><ns0:line y2="-129.903" y1="-103.923" x2="127.5" x1="112.5" style="fill:none;" /><ns0:line y2="-129.903" y1="-129.903" x2="-142.5" x1="-112.5" style="fill:none;" /><ns0:line y2="129.903" y1="103.923" x2="-22.5" x1="-7.5" style="fill:none;" /><ns0:line y2="-129.903" y1="-129.903" x2="157.5" x1="127.5" style="fill:none;" /><ns0:line y2="-155.886" y1="-129.903" x2="-157.5" x1="-142.5" style="fill:none;" /><ns0:line y2="155.886" y1="129.903" x2="-7.5" x1="-22.5" style="fill:none;" /><ns0:line y2="-155.886" y1="-129.903" x2="172.5" x1="157.5" style="fill:none;" /><ns0:line y2="-155.886" y1="-155.886" x2="-187.5" x1="-157.5" style="fill:none;" /><ns0:line y2="181.866" y1="155.886" x2="-22.5" x1="-7.5" style="fill:none;" /><ns0:line y2="-155.886" y1="-155.886" x2="202.5" x1="172.5" style="fill:none;" /><ns0:line y2="-181.866" y1="-155.886" x2="-202.5" x1="-187.5" style="fill:none;" /><ns0:line y2="207.846" y1="181.866" x2="-7.5" x1="-22.5" style="fill:none;" /><ns0:line y2="-181.866" y1="-155.886" x2="217.5" x1="202.5" style="fill:none;" /><ns0:line y2="-181.866" y1="-181.866" x2="-232.5" x1="-202.5" style="fill:none;" /><ns0:line y2="-181.866" y1="-181.866" x2="247.5" x1="217.5" style="fill:none;" /><ns0:line y2="-207.846" y1="-181.866" x2="-247.5" x1="-232.5" style="fill:none;" /></ns0:g><ns0:g transform="translate(251,211)" style="fill:rgb(230,0,0); text-rendering:geometricPrecision; color-rendering:optimizeQuality; image-rendering:optimizeQuality; font-family:'Open Sans'; stroke:rgb(230,0,0); color-interpolation:linearRGB;"><ns0:path style="stroke:none;" d="M-18.5625 -26.0503 Q-18.5625 -23.9878 -19.6016 -22.8081 Q-20.6406 -21.6284 -22.4844 -21.6284 Q-24.375 -21.6284 -25.4062 -22.7925 Q-26.4375 -23.9566 -26.4375 -26.0659 Q-26.4375 -28.1597 -25.4062 -29.3081 Q-24.375 -30.4566 -22.4844 -30.4566 Q-20.625 -30.4566 -19.5938 -29.2847 Q-18.5625 -28.1128 -18.5625 -26.0503 ZM-25.3906 -26.0503 Q-25.3906 -24.3159 -24.6484 -23.4097 Q-23.9062 -22.5034 -22.4844 -22.5034 Q-21.0625 -22.5034 -20.3359 -23.4019 Q-19.6094 -24.3003 -19.6094 -26.0503 Q-19.6094 -27.7847 -20.3359 -28.6753 Q-21.0625 -29.5659 -22.4844 -29.5659 Q-23.9062 -29.5659 -24.6484 -28.6675 Q-25.3906 -27.7691 -25.3906 -26.0503 Z" /></ns0:g><ns0:g transform="translate(251,211)" style="stroke-linecap:butt; text-rendering:geometricPrecision; color-rendering:optimizeQuality; image-rendering:optimizeQuality; font-family:'Open Sans'; color-interpolation:linearRGB; stroke-miterlimit:5;"><ns0:path style="fill:none;" d="M22 -51.963 L22.5 -51.963 L22.75 -52.396" /><ns0:path style="fill:none;" d="M-22.25 -77.51 L-22.5 -77.943 L-23 -77.943" /><ns0:path style="fill:none;" d="M-7.75 -0.433 L-7.5 0 L-7.75 0.433" /><ns0:path style="fill:rgb(230,0,0); stroke:none;" d="M41.4375 -78.0133 Q41.4375 -75.9508 40.3984 -74.7711 Q39.3594 -73.5914 37.5156 -73.5914 Q35.625 -73.5914 34.5938 -74.7555 Q33.5625 -75.9196 33.5625 -78.0289 Q33.5625 -80.1227 34.5938 -81.2711 Q35.625 -82.4196 37.5156 -82.4196 Q39.375 -82.4196 40.4062 -81.2477 Q41.4375 -80.0758 41.4375 -78.0133 ZM34.6094 -78.0133 Q34.6094 -76.2789 35.3516 -75.3727 Q36.0938 -74.4664 37.5156 -74.4664 Q38.9375 -74.4664 39.6641 -75.3649 Q40.3906 -76.2633 40.3906 -78.0133 Q40.3906 -79.7477 39.6641 -80.6383 Q38.9375 -81.5289 37.5156 -81.5289 Q36.0938 -81.5289 35.3516 -80.6305 Q34.6094 -79.7321 34.6094 -78.0133 Z" /><ns0:path style="fill:rgb(230,0,0); stroke:none;" d="M-48.5625 -78.0133 Q-48.5625 -75.9508 -49.6016 -74.7711 Q-50.6406 -73.5914 -52.4844 -73.5914 Q-54.375 -73.5914 -55.4062 -74.7555 Q-56.4375 -75.9196 -56.4375 -78.0289 Q-56.4375 -80.1227 -55.4062 -81.2711 Q-54.375 -82.4196 -52.4844 -82.4196 Q-50.625 -82.4196 -49.5938 -81.2477 Q-48.5625 -80.0758 -48.5625 -78.0133 ZM-55.3906 -78.0133 Q-55.3906 -76.2789 -54.6484 -75.3727 Q-53.9062 -74.4664 -52.4844 -74.4664 Q-51.0625 -74.4664 -50.3359 -75.3649 Q-49.6094 -76.2633 -49.6094 -78.0133 Q-49.6094 -79.7477 -50.3359 -80.6383 Q-51.0625 -81.5289 -52.4844 -81.5289 Q-53.9062 -81.5289 -54.6484 -80.6305 Q-55.3906 -79.7321 -55.3906 -78.0133 Z" /><ns0:path style="fill:none;" d="M-22.25 25.547 L-22.5 25.98 L-22.25 26.413" /><ns0:path style="fill:rgb(230,0,0); stroke:none;" d="M26.4375 -0.0703 Q26.4375 1.9922 25.3984 3.1719 Q24.3594 4.3516 22.5156 4.3516 Q20.625 4.3516 19.5938 3.1875 Q18.5625 2.0234 18.5625 -0.0859 Q18.5625 -2.1797 19.5938 -3.3281 Q20.625 -4.4766 22.5156 -4.4766 Q24.375 -4.4766 25.4062 -3.3047 Q26.4375 -2.1328 26.4375 -0.0703 ZM19.6094 -0.0703 Q19.6094 1.6641 20.3516 2.5703 Q21.0938 3.4766 22.5156 3.4766 Q23.9375 3.4766 24.6641 2.5781 Q25.3906 1.6797 25.3906 -0.0703 Q25.3906 -1.8047 24.6641 -2.6953 Q23.9375 -3.5859 22.5156 -3.5859 Q21.0938 -3.5859 20.3516 -2.6875 Q19.6094 -1.7891 19.6094 -0.0703 Z" /><ns0:path style="fill:none;" d="M67 -77.943 L67.5 -77.943 L67.75 -78.376" /><ns0:path style="fill:none;" d="M-67.25 -103.49 L-67.5 -103.923 L-68 -103.923" /><ns0:path style="fill:none;" d="M-7.75 51.53 L-7.5 51.963 L-7.75 52.396" /><ns0:path style="fill:none;" d="M82.25 -103.49 L82.5 -103.923 L83 -103.923" /><ns0:path style="fill:rgb(230,0,0); stroke:none;" d="M86.4375 -52.0333 Q86.4375 -49.9708 85.3984 -48.7911 Q84.3594 -47.6114 82.5156 -47.6114 Q80.625 -47.6114 79.5938 -48.7755 Q78.5625 -49.9396 78.5625 -52.0489 Q78.5625 -54.1427 79.5938 -55.2911 Q80.625 -56.4396 82.5156 -56.4396 Q84.375 -56.4396 85.4062 -55.2677 Q86.4375 -54.0958 86.4375 -52.0333 ZM79.6094 -52.0333 Q79.6094 -50.2989 80.3516 -49.3927 Q81.0938 -48.4864 82.5156 -48.4864 Q83.9375 -48.4864 84.6641 -49.3849 Q85.3906 -50.2833 85.3906 -52.0333 Q85.3906 -53.7677 84.6641 -54.6583 Q83.9375 -55.5489 82.5156 -55.5489 Q81.0938 -55.5489 80.3516 -54.6505 Q79.6094 -53.7521 79.6094 -52.0333 Z" /><ns0:path style="fill:none;" d="M-97 -103.923 L-97.5 -103.923 L-97.75 -104.356" /><ns0:path style="fill:rgb(230,0,0); stroke:none;" d="M-48.5625 -129.9733 Q-48.5625 -127.9108 -49.6016 -126.7311 Q-50.6406 -125.5514 -52.4844 -125.5514 Q-54.375 -125.5514 -55.4062 -126.7155 Q-56.4375 -127.8796 -56.4375 -129.9889 Q-56.4375 -132.0827 -55.4062 -133.2311 Q-54.375 -134.3796 -52.4844 -134.3796 Q-50.625 -134.3796 -49.5938 -133.2077 Q-48.5625 -132.0358 -48.5625 -129.9733 ZM-55.3906 -129.9733 Q-55.3906 -128.2389 -54.6484 -127.3327 Q-53.9062 -126.4264 -52.4844 -126.4264 Q-51.0625 -126.4264 -50.3359 -127.3249 Q-49.6094 -128.2233 -49.6094 -129.9733 Q-49.6094 -131.7077 -50.3359 -132.5983 Q-51.0625 -133.4889 -52.4844 -133.4889 Q-53.9062 -133.4889 -54.6484 -132.5905 Q-55.3906 -131.6921 -55.3906 -129.9733 Z" /><ns0:path style="fill:none;" d="M-22.25 77.51 L-22.5 77.943 L-22.25 78.376" /><ns0:path style="fill:none;" d="M112 -103.923 L112.5 -103.923 L112.75 -104.356" /><ns0:path style="fill:none;" d="M-112.25 -129.47 L-112.5 -129.903 L-113 -129.903" /><ns0:path style="fill:none;" d="M-7.75 103.49 L-7.5 103.923 L-7.75 104.356" /><ns0:path style="fill:none;" d="M127.25 -129.47 L127.5 -129.903 L128 -129.903" /><ns0:path style="fill:none;" d="M-142 -129.903 L-142.5 -129.903 L-142.75 -130.336" /><ns0:path style="fill:none;" d="M-22.25 129.47 L-22.5 129.903 L-22.25 130.336" /><ns0:path style="fill:none;" d="M157 -129.903 L157.5 -129.903 L157.75 -130.336" /><ns0:path style="fill:none;" d="M-157.25 -155.453 L-157.5 -155.886 L-158 -155.886" /><ns0:path style="fill:none;" d="M-7.75 155.453 L-7.5 155.886 L-7.75 156.319" /><ns0:path style="fill:none;" d="M172.25 -155.453 L172.5 -155.886 L173 -155.886" /><ns0:path style="fill:none;" d="M-187 -155.886 L-187.5 -155.886 L-187.75 -156.319" /><ns0:path style="fill:none;" d="M-22.25 181.433 L-22.5 181.866 L-22.25 182.299" /><ns0:path style="fill:none;" d="M202 -155.886 L202.5 -155.886 L202.75 -156.319" /><ns0:path style="fill:none;" d="M-202.25 -181.433 L-202.5 -181.866 L-203 -181.866" /><ns0:path style="fill:none;" d="M217.25 -181.433 L217.5 -181.866 L218 -181.866" /><ns0:path style="fill:none;" d="M-232 -181.866 L-232.5 -181.866 L-232.75 -182.299" /></ns0:g></ns0:g></ns0:svg></ns0:svg></ns0:svg></ns0:svg></g></svg>