<svg width="275" viewBox="0 0 275 179" style="fill-opacity:1; color-rendering:auto; color-interpolation:auto; text-rendering:auto; stroke:black; stroke-linecap:square; stroke-miterlimit:10; shape-rendering:auto; stroke-opacity:1; fill:black; stroke-dasharray:none; font-weight:normal; stroke-width:1; font-family:'Open Sans'; font-style:normal; stroke-linejoin:miter; font-size:12; stroke-dashoffset:0; image-rendering:auto;" height="179" class="cas-substance-image" xmlns:xlink="http://www.w3.org/1999/xlink" xmlns="http://www.w3.org/2000/svg"><svg class="cas-substance-single-component"><rect y="0" x="0" width="275" stroke="none" ry="7" rx="7" height="179" fill="white" class="cas-substance-group"/><svg y="0" x="0" width="275" viewBox="0 0 275 179" style="fill:black;" height="179" class="cas-substance-single-component-image"><svg><g><g transform="translate(139,90)" style="text-rendering:geometricPrecision; color-rendering:optimizeQuality; color-interpolation:linearRGB; stroke-linecap:butt; image-rendering:optimizeQuality;"><line y2="69.6256" y1="62.253" x2="-86.1974" x1="-63.507" style="fill:none;"/><line y2="79.3538" y1="62.8775" x2="-47.1279" x1="-65.4289" style="fill:none;"/><line y2="76.7526" y1="60.2765" x2="-44.7861" x1="-63.0869" style="fill:none;"/><line y2="32.91" y1="62.253" x2="-57.27" x1="-63.507" style="fill:none;"/><line y2="-3.1485" y1="3.4959" x2="-101.1797" x1="-125.9808" style="fill:none;"/><line y2="-6.0764" y1="0.1152" x2="-103.7759" x1="-126.8865" style="fill:none;"/><line y2="-56.346" y1="-56.346" x2="-43.323" x1="-73.323" style="fill:none;"/><path style="stroke:none;" d="M-82.169 -77.5096 L-87.2305 -74.5908 L-86.6381 -73.7777 L-81.7611 -76.5901 L-81.7611 -76.5901 L-82.169 -77.5096 ZM-80.9452 -74.7512 L-85.4533 -72.1515 L-84.8609 -71.3384 L-84.8609 -71.3384 L-80.5372 -73.8318 L-80.5372 -73.8318 L-80.9452 -74.7512 ZM-79.7213 -71.9929 L-83.6762 -69.7122 L-83.0838 -68.8991 L-83.0838 -68.8991 L-79.3134 -71.0734 L-79.7213 -71.9929 ZM-78.4975 -69.2345 L-81.899 -67.2729 L-81.899 -67.2729 L-81.3066 -66.4599 L-81.3066 -66.4599 L-78.0895 -68.315 L-78.4975 -69.2345 ZM-77.2737 -66.4761 L-80.1218 -64.8336 L-79.5295 -64.0206 L-79.5295 -64.0206 L-76.8657 -65.5567 L-76.8657 -65.5567 L-77.2737 -66.4761 ZM-76.0498 -63.7177 L-78.3447 -62.3944 L-78.3447 -62.3944 L-77.7523 -61.5813 L-77.7523 -61.5813 L-75.6419 -62.7983 L-76.0498 -63.7177 ZM-74.826 -60.9594 L-76.5675 -59.9551 L-76.5675 -59.9551 L-75.9752 -59.142 L-75.9752 -59.142 L-74.418 -60.0399 L-74.418 -60.0399 L-74.826 -60.9594 ZM-73.6021 -58.201 L-74.7904 -57.5158 L-74.198 -56.7027 L-73.1942 -57.2815 L-73.6021 -58.201 Z"/><line y2="-30.366" y1="-56.346" x2="-88.323" x1="-73.323" style="fill:none;"/><path style="stroke:none;" d="M-32.6655 -8.7574 L-33.3345 -9.5006 L-12.7113 -31.4316 L-8.6967 -26.9724 Z"/><line y2="20.706" y1="33.195" x2="-29.862" x1="-8.2311" style="fill:none;"/><line y2="20.706" y1="33.3279" x2="22.098" x1="0.2369" style="fill:none;"/><line y2="-15.366" y1="4.4757" x2="-62.343" x1="-73.799" style="fill:none;"/><line y2="32.91" y1="15.8231" x2="-57.27" x1="-72.6533" style="fill:none;"/><line y2="-4.386" y1="7.6789" x2="-103.323" x1="-82.4266" style="fill:none;"/><line y2="-30.366" y1="-15.366" x2="-88.323" x1="-62.343" style="fill:none;"/><line y2="-9.129" y1="-15.366" x2="-33" x1="-62.343" style="fill:none;"/><line y2="20.706" y1="32.91" x2="-29.862" x1="-57.27" style="fill:none;"/><line y2="18.3306" y1="28.8907" x2="-33.1317" x1="-56.8477" style="fill:none;"/><path style="stroke:none;" d="M-89.3283 -29.7914 L-89.9007 -28.9668 L-88.7456 -28.3007 L-88.3177 -29.2086 L-89.3283 -29.7914 ZM-91.0455 -27.3175 L-91.6179 -26.4929 L-90.0295 -25.5769 L-89.6015 -26.4848 L-91.0455 -27.3175 ZM-92.7626 -24.8436 L-93.335 -24.019 L-91.3133 -22.8532 L-90.8854 -23.7611 L-92.7626 -24.8436 ZM-94.4798 -22.3697 L-95.0521 -21.5451 L-95.0521 -21.5451 L-92.5972 -20.1294 L-92.1693 -21.0373 L-94.4798 -22.3697 ZM-96.1969 -19.8958 L-96.7693 -19.0712 L-93.8811 -17.4056 L-93.4531 -18.3135 L-93.4531 -18.3135 L-96.1969 -19.8958 ZM-97.914 -17.4219 L-98.4864 -16.5972 L-98.4864 -16.5972 L-95.1649 -14.6818 L-94.737 -15.5898 L-97.914 -17.4219 ZM-99.6312 -14.948 L-100.2036 -14.1233 L-100.2036 -14.1233 L-96.4488 -11.9581 L-96.4488 -11.9581 L-96.0208 -12.866 L-99.6312 -14.948 ZM-101.3483 -12.4741 L-101.9207 -11.6494 L-97.7326 -9.2343 L-97.3047 -10.1422 L-101.3483 -12.4741 ZM-103.0654 -10.0002 L-103.6378 -9.1755 L-99.0165 -6.5105 L-98.5885 -7.4185 L-103.0654 -10.0002 ZM-104.7826 -7.5263 L-105.355 -6.7016 L-100.3003 -3.7868 L-99.8724 -4.6947 L-99.8724 -4.6947 L-104.7826 -7.5263 Z"/><line y2="20.706" y1="-9.129" x2="-29.862" x1="-33" style="fill:none;"/><line y2="-8.271" y1="20.706" x2="29.862" x1="22.098" style="fill:none;"/><line y2="28.473" y1="20.706" x2="51.075" x1="22.098" style="fill:none;"/><line y2="-1.9225" y1="-8.271" x2="53.5586" x1="29.862" style="fill:none;"/><line y2="5.5811" y1="28.473" x2="57.2103" x1="51.075" style="fill:none;"/><line y2="-15.507" y1="-3.4421" x2="84.822" x1="63.9256" style="fill:none;"/><line y2="-39.1967" y1="-15.507" x2="87.3113" x1="84.822" style="fill:none;"/><line y2="-38.8309" y1="-17.1509" x2="90.7921" x1="88.514" style="fill:none;"/><line y2="-5.2847" y1="-15.507" x2="107.777" x1="84.822" style="fill:none;"/><line y2="-51.579" y1="-46.4701" x2="117.303" x1="93.2649" style="fill:none;"/><line y2="-25.599" y1="-7.2834" x2="132.303" x1="115.8111" style="fill:none;"/><line y2="-25.599" y1="-51.579" x2="132.303" x1="117.303" style="fill:none;"/><path style="stroke:none;" d="M-56.905 -37.6729 L-57.1642 -36.7013 L-57.1642 -36.7013 L-51.9148 -34.6856 L-51.9148 -34.6856 L-51.4573 -35.5811 L-51.4573 -35.5811 L-56.905 -37.6729 ZM-57.6828 -34.7581 L-57.9421 -33.7865 L-57.9421 -33.7865 L-53.2873 -31.9991 L-53.2873 -31.9991 L-52.8298 -32.8946 L-52.8298 -32.8946 L-57.6828 -34.7581 ZM-58.4606 -31.8433 L-58.7199 -30.8717 L-58.7199 -30.8717 L-54.6597 -29.3126 L-54.6597 -29.3126 L-54.2022 -30.2081 L-54.2022 -30.2081 L-58.4606 -31.8433 ZM-59.2384 -28.9285 L-59.4977 -27.9569 L-56.0322 -26.6262 L-55.5747 -27.5217 L-55.5747 -27.5217 L-59.2384 -28.9285 ZM-60.0162 -26.0137 L-60.2755 -25.0421 L-60.2755 -25.0421 L-57.4046 -23.9397 L-56.9471 -24.8352 L-60.0162 -26.0137 ZM-60.7941 -23.0989 L-61.0533 -22.1273 L-61.0533 -22.1273 L-58.777 -21.2532 L-58.777 -21.2532 L-58.3196 -22.1487 L-60.7941 -23.0989 ZM-61.5719 -20.1841 L-61.8312 -19.2125 L-61.8312 -19.2125 L-60.1495 -18.5668 L-60.1495 -18.5668 L-59.692 -19.4622 L-61.5719 -20.1841 ZM-62.3497 -17.2693 L-62.609 -16.2977 L-61.5219 -15.8803 L-61.0645 -16.7758 L-61.0645 -16.7758 L-62.3497 -17.2693 Z"/><path style="stroke:none;" d="M-88.073 -30.799 L-88.573 -29.933 L-110.816 -39.8872 L-107.8162 -45.0835 Z"/><path style="fill:none; stroke-miterlimit:5;" d="M-63.9825 62.4075 L-63.507 62.253 L-63.403 61.7639"/></g><g transform="translate(139,90)" style="stroke-linecap:butt; fill:rgb(230,0,0); text-rendering:geometricPrecision; color-rendering:optimizeQuality; image-rendering:optimizeQuality; font-family:'Open Sans'; stroke:rgb(230,0,0); color-interpolation:linearRGB; stroke-miterlimit:5;"><path style="stroke:none;" d="M-88.0995 71.4527 Q-88.0995 73.5152 -89.1386 74.6949 Q-90.1776 75.8746 -92.0214 75.8746 Q-93.912 75.8746 -94.9432 74.7105 Q-95.9745 73.5464 -95.9745 71.4371 Q-95.9745 69.3433 -94.9432 68.1949 Q-93.912 67.0464 -92.0214 67.0464 Q-90.162 67.0464 -89.1307 68.2183 Q-88.0995 69.3902 -88.0995 71.4527 ZM-94.9276 71.4527 Q-94.9276 73.1871 -94.1854 74.0933 Q-93.4432 74.9996 -92.0214 74.9996 Q-90.5995 74.9996 -89.8729 74.1011 Q-89.1464 73.2027 -89.1464 71.4527 Q-89.1464 69.7183 -89.8729 68.8277 Q-90.5995 67.9371 -92.0214 67.9371 Q-93.4432 67.9371 -94.1854 68.8355 Q-94.9276 69.7339 -94.9276 71.4527 Z"/><path style="stroke:none;" d="M-96.9745 75.7496 L-97.9745 75.7496 L-97.9745 71.7183 L-102.4901 71.7183 L-102.4901 75.7496 L-103.4901 75.7496 L-103.4901 67.1871 L-102.4901 67.1871 L-102.4901 70.8277 L-97.9745 70.8277 L-97.9745 67.1871 L-96.9745 67.1871 L-96.9745 75.7496 Z"/><path style="stroke:none;" d="M-37.2735 82.2557 Q-37.2735 84.3182 -38.3126 85.4979 Q-39.3516 86.6776 -41.1954 86.6776 Q-43.086 86.6776 -44.1173 85.5135 Q-45.1485 84.3494 -45.1485 82.2401 Q-45.1485 80.1463 -44.1173 78.9979 Q-43.086 77.8494 -41.1954 77.8494 Q-39.336 77.8494 -38.3048 79.0213 Q-37.2735 80.1932 -37.2735 82.2557 ZM-44.1016 82.2557 Q-44.1016 83.9901 -43.3594 84.8963 Q-42.6173 85.8026 -41.1954 85.8026 Q-39.7735 85.8026 -39.0469 84.9041 Q-38.3204 84.0057 -38.3204 82.2557 Q-38.3204 80.5213 -39.0469 79.6307 Q-39.7735 78.7401 -41.1954 78.7401 Q-42.6173 78.7401 -43.3594 79.6385 Q-44.1016 80.5369 -44.1016 82.2557 Z"/><path style="stroke:none;" d="M-128.3655 3.3077 Q-128.3655 5.3702 -129.4046 6.5499 Q-130.4436 7.7296 -132.2874 7.7296 Q-134.178 7.7296 -135.2092 6.5655 Q-136.2405 5.4014 -136.2405 3.2921 Q-136.2405 1.1983 -135.2092 0.0499 Q-134.178 -1.0986 -132.2874 -1.0986 Q-130.428 -1.0986 -129.3967 0.0733 Q-128.3655 1.2452 -128.3655 3.3077 ZM-135.1936 3.3077 Q-135.1936 5.0421 -134.4514 5.9483 Q-133.7092 6.8546 -132.2874 6.8546 Q-130.8655 6.8546 -130.1389 5.9561 Q-129.4124 5.0577 -129.4124 3.3077 Q-129.4124 1.5733 -130.1389 0.6827 Q-130.8655 -0.2079 -132.2874 -0.2079 Q-133.7092 -0.2079 -134.4514 0.6905 Q-135.1936 1.5889 -135.1936 3.3077 Z"/><path style="fill:none; stroke:black;" d="M-72.823 -56.346 L-73.323 -56.346 L-73.573 -55.913"/></g><g transform="translate(139,90)" style="stroke-linecap:butt; font-size:8.4px; fill:gray; text-rendering:geometricPrecision; image-rendering:optimizeQuality; color-rendering:optimizeQuality; font-family:'Open Sans'; font-style:italic; stroke:gray; color-interpolation:linearRGB; stroke-miterlimit:5;"><path style="stroke:none;" d="M-72.7115 -63.8421 Q-72.7115 -65.1703 -72.2428 -66.2953 Q-71.774 -67.4203 -70.7428 -68.4984 L-70.1334 -68.4984 Q-71.1022 -67.4359 -71.5865 -66.264 Q-72.0709 -65.0921 -72.0709 -63.8578 Q-72.0709 -62.5296 -71.6334 -61.514 L-72.149 -61.514 Q-72.7115 -62.5453 -72.7115 -63.8421 ZM-69.1515 -65.1546 L-69.6515 -62.7796 L-70.3077 -62.7796 L-69.1046 -68.4984 L-67.8546 -68.4984 Q-66.1202 -68.4984 -66.1202 -67.0609 Q-66.1202 -65.7015 -67.5577 -65.3109 L-66.6202 -62.7796 L-67.339 -62.7796 L-68.1671 -65.1546 L-69.1515 -65.1546 ZM-68.5733 -67.9046 Q-68.964 -65.9828 -69.0265 -65.7328 L-68.3702 -65.7328 Q-67.6202 -65.7328 -67.214 -66.0609 Q-66.8077 -66.389 -66.8077 -67.014 Q-66.8077 -67.4828 -67.0655 -67.6937 Q-67.3233 -67.9046 -67.9171 -67.9046 L-68.5733 -67.9046 ZM-63.9342 -66.1546 Q-63.9342 -64.8265 -64.4108 -63.6937 Q-64.8874 -62.5609 -65.903 -61.514 L-66.5124 -61.514 Q-64.5749 -63.6703 -64.5749 -66.1546 Q-64.5749 -67.4828 -65.0124 -68.4984 L-64.4967 -68.4984 Q-63.9342 -67.4359 -63.9342 -66.1546 Z"/></g><g transform="translate(139,90)" style="stroke-linecap:butt; fill:rgb(230,0,0); text-rendering:geometricPrecision; color-rendering:optimizeQuality; image-rendering:optimizeQuality; font-family:'Open Sans'; stroke:rgb(230,0,0); color-interpolation:linearRGB; stroke-miterlimit:5;"><path style="stroke:none;" d="M-84.3855 -82.3963 Q-84.3855 -80.3338 -85.4246 -79.1541 Q-86.4636 -77.9744 -88.3074 -77.9744 Q-90.198 -77.9744 -91.2292 -79.1385 Q-92.2605 -80.3026 -92.2605 -82.4119 Q-92.2605 -84.5057 -91.2292 -85.6541 Q-90.198 -86.8026 -88.3074 -86.8026 Q-86.448 -86.8026 -85.4167 -85.6307 Q-84.3855 -84.4588 -84.3855 -82.3963 ZM-91.2136 -82.3963 Q-91.2136 -80.6619 -90.4714 -79.7557 Q-89.7292 -78.8494 -88.3074 -78.8494 Q-86.8855 -78.8494 -86.1589 -79.7479 Q-85.4324 -80.6463 -85.4324 -82.3963 Q-85.4324 -84.1307 -86.1589 -85.0213 Q-86.8855 -85.9119 -88.3074 -85.9119 Q-89.7292 -85.9119 -90.4714 -85.0135 Q-91.2136 -84.1151 -91.2136 -82.3963 Z"/><path style="stroke:none;" d="M-93.2605 -78.0994 L-94.2605 -78.0994 L-94.2605 -82.1307 L-98.7761 -82.1307 L-98.7761 -78.0994 L-99.7761 -78.0994 L-99.7761 -86.6619 L-98.7761 -86.6619 L-98.7761 -83.0213 L-94.2605 -83.0213 L-94.2605 -86.6619 L-93.2605 -86.6619 L-93.2605 -78.0994 Z"/><path style="fill:rgb(148,108,0); stroke:none;" d="M-1.1867 37.6435 Q-1.1867 38.7685 -2.007 39.4091 Q-2.8273 40.0497 -4.2336 40.0497 Q-5.7648 40.0497 -6.5773 39.6435 L-6.5773 38.6904 Q-6.0461 38.9091 -5.4289 39.0419 Q-4.8117 39.1747 -4.2023 39.1747 Q-3.2023 39.1747 -2.7023 38.7919 Q-2.2023 38.4091 -2.2023 37.7372 Q-2.2023 37.2997 -2.382 37.0107 Q-2.5617 36.7216 -2.9757 36.4794 Q-3.3898 36.2372 -4.2492 35.9404 Q-5.4367 35.5185 -5.9523 34.9326 Q-6.4679 34.3466 -6.4679 33.3935 Q-6.4679 32.4091 -5.7257 31.8232 Q-4.9836 31.2372 -3.7492 31.2372 Q-2.4836 31.2372 -1.4054 31.706 L-1.7179 32.5654 Q-2.7804 32.1279 -3.7804 32.1279 Q-4.5773 32.1279 -5.0226 32.4638 Q-5.4679 32.7997 -5.4679 33.4091 Q-5.4679 33.8466 -5.3039 34.1357 Q-5.1398 34.4247 -4.7492 34.6591 Q-4.3586 34.8935 -3.5461 35.1904 Q-2.2023 35.6591 -1.6945 36.2138 Q-1.1867 36.7685 -1.1867 37.6435 Z"/><path style="fill:rgb(0,5,255); stroke:none;" d="M-73.9914 14.7703 L-75.1321 14.7703 L-79.8196 7.5828 L-79.8664 7.5828 Q-79.7727 8.8484 -79.7727 9.8953 L-79.7727 14.7703 L-80.6946 14.7703 L-80.6946 6.2078 L-79.5696 6.2078 L-74.8977 13.364 L-74.8508 13.364 Q-74.8508 13.2078 -74.8977 12.3484 Q-74.9446 11.489 -74.9289 11.114 L-74.9289 6.2078 L-73.9914 6.2078 L-73.9914 14.7703 Z"/></g><g transform="translate(139,90)" style="stroke-linecap:butt; font-size:8.4px; fill:gray; text-rendering:geometricPrecision; image-rendering:optimizeQuality; color-rendering:optimizeQuality; font-family:'Open Sans'; font-style:italic; stroke:gray; color-interpolation:linearRGB; stroke-miterlimit:5;"><path style="stroke:none;" d="M-62.3842 -5.0274 Q-62.3842 -6.3555 -61.9155 -7.4805 Q-61.4467 -8.6055 -60.4155 -9.6836 L-59.8061 -9.6836 Q-60.7748 -8.6211 -61.2592 -7.4493 Q-61.7436 -6.2774 -61.7436 -5.043 Q-61.7436 -3.7149 -61.3061 -2.6993 L-61.8217 -2.6993 Q-62.3842 -3.7305 -62.3842 -5.0274 ZM-56.7616 -5.6211 Q-56.7616 -4.793 -57.3085 -4.3399 Q-57.8554 -3.8868 -58.8554 -3.8868 Q-59.2616 -3.8868 -59.5741 -3.9415 Q-59.8866 -3.9961 -60.1679 -4.1368 L-60.1679 -4.793 Q-59.5429 -4.4649 -58.8398 -4.4649 Q-58.2148 -4.4649 -57.8398 -4.7618 Q-57.4648 -5.0586 -57.4648 -5.5743 Q-57.4648 -5.8868 -57.6679 -6.1133 Q-57.871 -6.3399 -58.4335 -6.668 Q-59.0273 -6.9961 -59.2538 -7.3243 Q-59.4804 -7.6524 -59.4804 -8.1055 Q-59.4804 -8.8399 -58.9648 -9.3008 Q-58.4491 -9.7618 -57.6054 -9.7618 Q-57.2304 -9.7618 -56.8945 -9.6836 Q-56.5585 -9.6055 -56.1835 -9.4336 L-56.4491 -8.8399 Q-56.6991 -8.9961 -57.0195 -9.0821 Q-57.3398 -9.168 -57.6054 -9.168 Q-58.1366 -9.168 -58.457 -8.8946 Q-58.7773 -8.6211 -58.7773 -8.1524 Q-58.7773 -7.9493 -58.707 -7.8008 Q-58.6366 -7.6524 -58.496 -7.5196 Q-58.3554 -7.3868 -57.9335 -7.1368 Q-57.371 -6.793 -57.1679 -6.5977 Q-56.9648 -6.4024 -56.8632 -6.168 Q-56.7616 -5.9336 -56.7616 -5.6211 ZM-54.1672 -7.3399 Q-54.1672 -6.0118 -54.6437 -4.879 Q-55.1203 -3.7461 -56.1359 -2.6993 L-56.7453 -2.6993 Q-54.8078 -4.8555 -54.8078 -7.3399 Q-54.8078 -8.668 -55.2453 -9.6836 L-54.7297 -9.6836 Q-54.1672 -8.6211 -54.1672 -7.3399 Z"/><path style="fill:none; stroke:black;" d="M-56.8132 32.7066 L-57.27 32.91 L-57.374 33.3991"/><path style="stroke:none;" d="M-95.0196 -38.8222 Q-95.0196 -40.1503 -94.5508 -41.2753 Q-94.0821 -42.4003 -93.0508 -43.4784 L-92.4415 -43.4784 Q-93.4102 -42.4159 -93.8946 -41.244 Q-94.379 -40.0722 -94.379 -38.8378 Q-94.379 -37.5097 -93.9415 -36.494 L-94.4571 -36.494 Q-95.0196 -37.5253 -95.0196 -38.8222 ZM-89.397 -39.4159 Q-89.397 -38.5878 -89.9439 -38.1347 Q-90.4908 -37.6815 -91.4908 -37.6815 Q-91.897 -37.6815 -92.2095 -37.7362 Q-92.522 -37.7909 -92.8033 -37.9315 L-92.8033 -38.5878 Q-92.1783 -38.2597 -91.4752 -38.2597 Q-90.8502 -38.2597 -90.4752 -38.5565 Q-90.1002 -38.8534 -90.1002 -39.369 Q-90.1002 -39.6815 -90.3033 -39.9081 Q-90.5064 -40.1347 -91.0689 -40.4628 Q-91.6627 -40.7909 -91.8892 -41.119 Q-92.1158 -41.4472 -92.1158 -41.9003 Q-92.1158 -42.6347 -91.6002 -43.0956 Q-91.0845 -43.5565 -90.2408 -43.5565 Q-89.8658 -43.5565 -89.5298 -43.4784 Q-89.1939 -43.4003 -88.8189 -43.2284 L-89.0845 -42.6347 Q-89.3345 -42.7909 -89.6548 -42.8769 Q-89.9752 -42.9628 -90.2408 -42.9628 Q-90.772 -42.9628 -91.0923 -42.6894 Q-91.4127 -42.4159 -91.4127 -41.9472 Q-91.4127 -41.744 -91.3423 -41.5956 Q-91.272 -41.4472 -91.1314 -41.3144 Q-90.9908 -41.1815 -90.5689 -40.9315 Q-90.0064 -40.5878 -89.8033 -40.3925 Q-89.6002 -40.1972 -89.4986 -39.9628 Q-89.397 -39.7284 -89.397 -39.4159 ZM-86.8025 -41.1347 Q-86.8025 -39.8065 -87.2791 -38.6737 Q-87.7557 -37.5409 -88.7713 -36.494 L-89.3807 -36.494 Q-87.4432 -38.6503 -87.4432 -41.1347 Q-87.4432 -42.4628 -87.8807 -43.4784 L-87.365 -43.4784 Q-86.8025 -42.4159 -86.8025 -41.1347 Z"/><path style="stroke:none;" d="M-39.9766 -17.6243 Q-39.9766 -18.9524 -39.5078 -20.0774 Q-39.0391 -21.2024 -38.0078 -22.2805 L-37.3984 -22.2805 Q-38.3672 -21.218 -38.8516 -20.0461 Q-39.3359 -18.8743 -39.3359 -17.6399 Q-39.3359 -16.3118 -38.8984 -15.2961 L-39.4141 -15.2961 Q-39.9766 -16.3274 -39.9766 -17.6243 ZM-36.4165 -18.9368 L-36.9165 -16.5618 L-37.5727 -16.5618 L-36.3696 -22.2805 L-35.1196 -22.2805 Q-33.3852 -22.2805 -33.3852 -20.843 Q-33.3852 -19.4836 -34.8227 -19.093 L-33.8852 -16.5618 L-34.604 -16.5618 L-35.4321 -18.9368 L-36.4165 -18.9368 ZM-35.8384 -21.6868 Q-36.229 -19.7649 -36.2915 -19.5149 L-35.6352 -19.5149 Q-34.8852 -19.5149 -34.479 -19.843 Q-34.0727 -20.1711 -34.0727 -20.7961 Q-34.0727 -21.2649 -34.3306 -21.4758 Q-34.5884 -21.6868 -35.1821 -21.6868 L-35.8384 -21.6868 ZM-31.1993 -19.9368 Q-31.1993 -18.6086 -31.6758 -17.4758 Q-32.1524 -16.343 -33.168 -15.2961 L-33.7774 -15.2961 Q-31.8399 -17.4524 -31.8399 -19.9368 Q-31.8399 -21.2649 -32.2774 -22.2805 L-31.7618 -22.2805 Q-31.1993 -21.218 -31.1993 -19.9368 Z"/><path style="fill:none; stroke:black;" d="M-30.3188 20.9094 L-29.862 20.706 L-29.429 20.956"/><path style="fill:none; stroke:black;" d="M29.7326 -7.788 L29.862 -8.271 L30.345 -8.1416"/><path style="fill:none; stroke:black;" d="M50.592 28.3435 L51.075 28.473 L51.2044 27.99"/></g><g transform="translate(139,90)" style="stroke-linecap:butt; fill:rgb(0,5,255); text-rendering:geometricPrecision; color-rendering:optimizeQuality; image-rendering:optimizeQuality; font-family:'Open Sans'; stroke:rgb(0,5,255); color-interpolation:linearRGB; stroke-miterlimit:5;"><path style="stroke:none;" d="M62.1936 3.6493 L61.0529 3.6493 L56.3654 -3.5382 L56.3186 -3.5382 Q56.4123 -2.2726 56.4123 -1.2257 L56.4123 3.6493 L55.4904 3.6493 L55.4904 -4.9132 L56.6154 -4.9132 L61.2873 2.243 L61.3342 2.243 Q61.3342 2.0868 61.2873 1.2274 Q61.2404 0.368 61.2561 -0.007 L61.2561 -4.9132 L62.1936 -4.9132 L62.1936 3.6493 Z"/><path style="fill:none; stroke:black;" d="M84.8743 -16.0043 L84.822 -15.507 L84.389 -15.257"/><path style="stroke:none;" d="M91.3086 -41.1857 L90.1679 -41.1857 L85.4804 -48.3732 L85.4336 -48.3732 Q85.5273 -47.1076 85.5273 -46.0607 L85.5273 -41.1857 L84.6054 -41.1857 L84.6054 -49.7482 L85.7304 -49.7482 L90.4023 -42.592 L90.4492 -42.592 Q90.4492 -42.7482 90.4023 -43.6076 Q90.3554 -44.467 90.3711 -44.842 L90.3711 -49.7482 L91.3086 -49.7482 L91.3086 -41.1857 Z"/><path style="fill:rgb(148,108,0); stroke:none;" d="M114.9223 -1.3655 Q114.9223 -0.2405 114.102 0.4001 Q113.2817 1.0408 111.8754 1.0408 Q110.3442 1.0408 109.5317 0.6345 L109.5317 -0.3186 Q110.0629 -0.0999 110.6801 0.0329 Q111.2973 0.1658 111.9067 0.1658 Q112.9067 0.1658 113.4067 -0.2171 Q113.9067 -0.5999 113.9067 -1.2717 Q113.9067 -1.7092 113.727 -1.9983 Q113.5473 -2.2874 113.1333 -2.5296 Q112.7192 -2.7717 111.8598 -3.0686 Q110.6723 -3.4905 110.1567 -4.0764 Q109.6411 -4.6624 109.6411 -5.6155 Q109.6411 -6.5999 110.3833 -7.1858 Q111.1254 -7.7717 112.3598 -7.7717 Q113.6254 -7.7717 114.7036 -7.303 L114.3911 -6.4436 Q113.3286 -6.8811 112.3286 -6.8811 Q111.5317 -6.8811 111.0864 -6.5452 Q110.6411 -6.2092 110.6411 -5.5999 Q110.6411 -5.1624 110.8051 -4.8733 Q110.9692 -4.5842 111.3598 -4.3499 Q111.7504 -4.1155 112.5629 -3.8186 Q113.9067 -3.3499 114.4145 -2.7952 Q114.9223 -2.2405 114.9223 -1.3655 Z"/><path style="fill:none; stroke:black;" d="M116.8139 -51.4751 L117.303 -51.579 L117.553 -51.146"/><path style="fill:none; stroke:black;" d="M131.9684 -25.2274 L132.303 -25.599 L132.053 -26.032"/><path style="fill:black; stroke:none;" d="M-48.3332 -39.2177 L-49.3332 -39.2177 L-49.3332 -43.249 L-53.8488 -43.249 L-53.8488 -39.2177 L-54.8488 -39.2177 L-54.8488 -47.7802 L-53.8488 -47.7802 L-53.8488 -44.1396 L-49.3332 -44.1396 L-49.3332 -47.7802 L-48.3332 -47.7802 L-48.3332 -39.2177 Z"/><path style="fill:black; stroke:none;" d="M-111.0482 -41.2098 L-112.0482 -41.2098 L-112.0482 -45.241 L-116.5638 -45.241 L-116.5638 -41.2098 L-117.5638 -41.2098 L-117.5638 -49.7723 L-116.5638 -49.7723 L-116.5638 -46.1316 L-112.0482 -46.1316 L-112.0482 -49.7723 L-111.0482 -49.7723 L-111.0482 -41.2098 Z"/></g></g></svg></svg></svg></svg>