<svg width="171" viewBox="0 0 171 118" style="fill-opacity:1; color-rendering:auto; color-interpolation:auto; text-rendering:auto; stroke:black; stroke-linecap:square; stroke-miterlimit:10; shape-rendering:auto; stroke-opacity:1; fill:black; stroke-dasharray:none; font-weight:normal; stroke-width:1; font-family:'Open Sans'; font-style:normal; stroke-linejoin:miter; font-size:12; stroke-dashoffset:0; image-rendering:auto;" height="118" class="cas-substance-image" xmlns:xlink="http://www.w3.org/1999/xlink" xmlns="http://www.w3.org/2000/svg"><svg class="cas-substance-single-component"><rect y="0" x="0" width="171" stroke="none" ry="7" rx="7" height="118" fill="white" class="cas-substance-group"/><svg y="0" x="0" width="171" viewBox="0 0 171 118" style="fill:black;" height="118" class="cas-substance-single-component-image"><svg><g><g transform="translate(89,59)" style="text-rendering:geometricPrecision; color-rendering:optimizeQuality; color-interpolation:linearRGB; stroke-linecap:butt; image-rendering:optimizeQuality;"><line y2="0" y1="0" x2="69.6484" x1="45" style="fill:none;"/><line y2="-3.5" y1="-3.5" x2="69.6484" x1="45" style="fill:none;"/><line y2="3.5" y1="3.5" x2="69.6484" x1="45" style="fill:none;"/><line y2="0" y1="0" x2="15" x1="45" style="fill:none;"/><line y2="25.98" y1="46.8504" x2="-30" x1="-42.0485" style="fill:none;"/><line y2="-25.98" y1="-46.0747" x2="-30" x1="-41.6007" style="fill:none;"/><line y2="0" y1="0" x2="-45" x1="-69.0625" style="fill:none;"/><line y2="25.98" y1="0" x2="0" x1="15" style="fill:none;"/><line y2="22.48" y1="-0.0001" x2="-2.0207" x1="10.9585" style="fill:none;"/><line y2="-25.98" y1="0" x2="0" x1="15" style="fill:none;"/><line y2="25.98" y1="25.98" x2="-30" x1="0" style="fill:none;"/><line y2="-25.98" y1="-25.98" x2="-30" x1="0" style="fill:none;"/><line y2="-22.48" y1="-22.48" x2="-27.9793" x1="-2.0207" style="fill:none;"/><line y2="0" y1="25.98" x2="-45" x1="-30" style="fill:none;"/><line y2="-0.0001" y1="22.48" x2="-40.9585" x1="-27.9793" style="fill:none;"/><line y2="0" y1="-25.98" x2="-45" x1="-30" style="fill:none;"/></g><g transform="translate(89,59)" style="fill:rgb(0,5,255); text-rendering:geometricPrecision; color-rendering:optimizeQuality; image-rendering:optimizeQuality; font-family:'Open Sans'; stroke:rgb(0,5,255); color-interpolation:linearRGB;"><path style="stroke:none;" d="M78.3516 4.1562 L77.2109 4.1562 L72.5234 -3.0312 L72.4766 -3.0312 Q72.5703 -1.7656 72.5703 -0.7188 L72.5703 4.1562 L71.6484 4.1562 L71.6484 -4.4062 L72.7734 -4.4062 L77.4453 2.75 L77.4922 2.75 Q77.4922 2.5938 77.4453 1.7344 Q77.3984 0.875 77.4141 0.5 L77.4141 -4.4062 L78.3516 -4.4062 L78.3516 4.1562 Z"/><path style="fill:rgb(0,138,0); stroke:none;" d="M-50.6689 47.5568 L-48.2471 47.5568 Q-46.5439 47.5568 -45.7783 48.0646 Q-45.0127 48.5724 -45.0127 49.6661 Q-45.0127 50.4318 -45.4346 50.9318 Q-45.8564 51.4318 -46.6846 51.5724 L-46.6846 51.6349 Q-44.7314 51.963 -44.7314 53.6818 Q-44.7314 54.8224 -45.5049 55.4708 Q-46.2783 56.1193 -47.6689 56.1193 L-50.6689 56.1193 L-50.6689 47.5568 ZM-49.6689 51.213 L-48.0283 51.213 Q-46.9658 51.213 -46.5049 50.8849 Q-46.0439 50.5568 -46.0439 49.7755 Q-46.0439 49.0568 -46.5596 48.7364 Q-47.0752 48.4161 -48.2002 48.4161 L-49.6689 48.4161 L-49.6689 51.213 ZM-49.6689 52.0568 L-49.6689 55.2755 L-47.8721 55.2755 Q-46.8408 55.2755 -46.3174 54.8693 Q-45.7939 54.463 -45.7939 53.6036 Q-45.7939 52.8068 -46.333 52.4318 Q-46.8721 52.0568 -47.9658 52.0568 L-49.6689 52.0568 ZM-40.0967 49.5724 Q-39.6748 49.5724 -39.3311 49.6505 L-39.4717 50.5568 Q-39.8623 50.463 -40.1748 50.463 Q-40.9561 50.463 -41.5107 51.0958 Q-42.0654 51.7286 -42.0654 52.6661 L-42.0654 56.1193 L-43.0342 56.1193 L-43.0342 49.6974 L-42.2373 49.6974 L-42.1123 50.8849 L-42.0654 50.8849 Q-41.7217 50.2599 -41.2139 49.9161 Q-40.7061 49.5724 -40.0967 49.5724 Z"/><path style="fill:rgb(0,138,0); stroke:none;" d="M-50.6689 -56.3693 L-48.2471 -56.3693 Q-46.5439 -56.3693 -45.7783 -55.8614 Q-45.0127 -55.3536 -45.0127 -54.2599 Q-45.0127 -53.4943 -45.4346 -52.9943 Q-45.8564 -52.4943 -46.6846 -52.3536 L-46.6846 -52.2911 Q-44.7314 -51.963 -44.7314 -50.2443 Q-44.7314 -49.1036 -45.5049 -48.4552 Q-46.2783 -47.8068 -47.6689 -47.8068 L-50.6689 -47.8068 L-50.6689 -56.3693 ZM-49.6689 -52.713 L-48.0283 -52.713 Q-46.9658 -52.713 -46.5049 -53.0411 Q-46.0439 -53.3693 -46.0439 -54.1505 Q-46.0439 -54.8693 -46.5596 -55.1896 Q-47.0752 -55.5099 -48.2002 -55.5099 L-49.6689 -55.5099 L-49.6689 -52.713 ZM-49.6689 -51.8693 L-49.6689 -48.6505 L-47.8721 -48.6505 Q-46.8408 -48.6505 -46.3174 -49.0568 Q-45.7939 -49.463 -45.7939 -50.3224 Q-45.7939 -51.1193 -46.333 -51.4943 Q-46.8721 -51.8693 -47.9658 -51.8693 L-49.6689 -51.8693 ZM-40.0967 -54.3536 Q-39.6748 -54.3536 -39.3311 -54.2755 L-39.4717 -53.3693 Q-39.8623 -53.463 -40.1748 -53.463 Q-40.9561 -53.463 -41.5107 -52.8302 Q-42.0654 -52.1974 -42.0654 -51.2599 L-42.0654 -47.8068 L-43.0342 -47.8068 L-43.0342 -54.2286 L-42.2373 -54.2286 L-42.1123 -53.0411 L-42.0654 -53.0411 Q-41.7217 -53.6661 -41.2139 -54.0099 Q-40.7061 -54.3536 -40.0967 -54.3536 Z"/><path style="fill:rgb(230,0,0); stroke:none;" d="M-71.0625 -0.0703 Q-71.0625 1.9922 -72.1016 3.1719 Q-73.1406 4.3516 -74.9844 4.3516 Q-76.875 4.3516 -77.9062 3.1875 Q-78.9375 2.0234 -78.9375 -0.0859 Q-78.9375 -2.1797 -77.9062 -3.3281 Q-76.875 -4.4766 -74.9844 -4.4766 Q-73.125 -4.4766 -72.0938 -3.3047 Q-71.0625 -2.1328 -71.0625 -0.0703 ZM-77.8906 -0.0703 Q-77.8906 1.6641 -77.1484 2.5703 Q-76.4062 3.4766 -74.9844 3.4766 Q-73.5625 3.4766 -72.8359 2.5781 Q-72.1094 1.6797 -72.1094 -0.0703 Q-72.1094 -1.8047 -72.8359 -2.6953 Q-73.5625 -3.5859 -74.9844 -3.5859 Q-76.4062 -3.5859 -77.1484 -2.6875 Q-77.8906 -1.7891 -77.8906 -0.0703 Z"/><path style="fill:rgb(230,0,0); stroke:none;" d="M-79.9375 4.2266 L-80.9375 4.2266 L-80.9375 0.1953 L-85.4531 0.1953 L-85.4531 4.2266 L-86.4531 4.2266 L-86.4531 -4.3359 L-85.4531 -4.3359 L-85.4531 -0.6953 L-80.9375 -0.6953 L-80.9375 -4.3359 L-79.9375 -4.3359 L-79.9375 4.2266 Z"/></g><g transform="translate(89,59)" style="stroke-linecap:butt; text-rendering:geometricPrecision; color-rendering:optimizeQuality; image-rendering:optimizeQuality; font-family:'Open Sans'; color-interpolation:linearRGB; stroke-miterlimit:5;"><path style="fill:none;" d="M14.75 0.433 L15 0 L15.5 0"/><path style="fill:none;" d="M0.25 25.547 L0 25.98 L-0.5 25.98"/><path style="fill:none;" d="M0.25 -25.547 L0 -25.98 L-0.5 -25.98"/><path style="fill:none;" d="M-30.25 25.547 L-30 25.98 L-30.25 26.413"/><path style="fill:none;" d="M-29.5 -25.98 L-30 -25.98 L-30.25 -26.413"/><path style="fill:none;" d="M-44.75 0.433 L-45 0 L-45.5 -0"/></g></g></svg></svg></svg></svg>