<svg xmlns:ns0="http://www.w3.org/2000/svg" xmlns="http://www.w3.org/2000/svg"><g transform="translate(0, 0)"><ns0:svg width="174" viewBox="0 0 174 191" style="fill-opacity:1; color-rendering:auto; color-interpolation:auto; text-rendering:auto; stroke:black; stroke-linecap:square; stroke-miterlimit:10; shape-rendering:auto; stroke-opacity:1; fill:black; stroke-dasharray:none; font-weight:normal; stroke-width:1; font-family:'Open Sans'; font-style:normal; stroke-linejoin:miter; font-size:12; stroke-dashoffset:0; image-rendering:auto;" height="191" class="cas-substance-image"><ns0:svg class="cas-substance-single-component"><ns0:rect y="0" x="0" width="174" stroke="none" ry="7" rx="7" height="191" fill="white" class="cas-substance-group" /><ns0:svg y="0" x="0" width="174" viewBox="0 0 174 191" style="fill:black;" height="191" class="cas-substance-single-component-image"><ns0:svg><ns0:g><ns0:g transform="translate(92,97)" style="text-rendering:geometricPrecision; color-rendering:optimizeQuality; color-interpolation:linearRGB; stroke-linecap:butt; image-rendering:optimizeQuality;"><ns0:line y2="6.3438" y1="30" x2="0" x1="0" style="fill:none;" /><ns0:line y2="45" y1="30" x2="-25.98" x1="0" style="fill:none;" /><ns0:line y2="45" y1="30" x2="25.98" x1="0" style="fill:none;" /><ns0:line y2="-15" y1="-2.511" x2="-25.98" x1="-4.3491" style="fill:none;" /><ns0:line y2="-45" y1="-15" x2="-25.98" x1="-25.98" style="fill:none;" /><ns0:line y2="-60" y1="-45" x2="-51.96" x1="-25.98" style="fill:none;" /><ns0:path style="stroke:none;" d="M-25.73 -44.567 L-26.23 -45.433 L-6.5836 -59.663 L-3.5836 -54.4668 Z" /><ns0:line y2="-48.2258" y1="-60" x2="-72.3553" x1="-51.96" style="fill:none;" /><ns0:line y2="-83.6484" y1="-58.9896" x2="-50.21" x1="-50.21" style="fill:none;" /><ns0:line y2="-83.6484" y1="-58.9897" x2="-53.71" x1="-53.71" style="fill:none;" /><ns0:line y2="30" y1="45" x2="-51.963" x1="-25.98" style="fill:none;" /><ns0:line y2="34.0415" y1="47.0209" x2="-51.9628" x1="-29.4799" style="fill:none;" /><ns0:line y2="75" y1="45" x2="-25.98" x1="-25.98" style="fill:none;" /><ns0:line y2="45" y1="30" x2="-77.943" x1="-51.963" style="fill:none;" /><ns0:line y2="90" y1="75" x2="-51.963" x1="-25.98" style="fill:none;" /><ns0:line y2="85.9585" y1="72.9791" x2="-51.9628" x1="-29.4799" style="fill:none;" /><ns0:line y2="75" y1="45" x2="-77.943" x1="-77.943" style="fill:none;" /><ns0:line y2="72.9793" y1="47.0207" x2="-74.443" x1="-74.443" style="fill:none;" /><ns0:line y2="75" y1="90" x2="-77.943" x1="-51.963" style="fill:none;" /><ns0:line y2="30" y1="45" x2="51.963" x1="25.98" style="fill:none;" /><ns0:line y2="34.0415" y1="47.0209" x2="51.9628" x1="29.4799" style="fill:none;" /><ns0:line y2="75" y1="45" x2="25.98" x1="25.98" style="fill:none;" /><ns0:line y2="45" y1="30" x2="77.943" x1="51.963" style="fill:none;" /><ns0:line y2="90" y1="75" x2="51.963" x1="25.98" style="fill:none;" /><ns0:line y2="85.9585" y1="72.9791" x2="51.9628" x1="29.4799" style="fill:none;" /><ns0:line y2="75" y1="45" x2="77.943" x1="77.943" style="fill:none;" /><ns0:line y2="72.9793" y1="47.0207" x2="74.443" x1="74.443" style="fill:none;" /><ns0:line y2="75" y1="90" x2="77.943" x1="51.963" style="fill:none;" /></ns0:g><ns0:g transform="translate(92,97)" style="fill:rgb(148,108,0); text-rendering:geometricPrecision; color-rendering:optimizeQuality; image-rendering:optimizeQuality; font-family:'Open Sans'; stroke:rgb(148,108,0); color-interpolation:linearRGB;"><ns0:path style="stroke:none;" d="M2.6953 1.9375 Q2.6953 3.0625 1.875 3.7031 Q1.0547 4.3438 -0.3516 4.3438 Q-1.8828 4.3438 -2.6953 3.9375 L-2.6953 2.9844 Q-2.1641 3.2031 -1.5469 3.3359 Q-0.9297 3.4688 -0.3203 3.4688 Q0.6797 3.4688 1.1797 3.0859 Q1.6797 2.7031 1.6797 2.0312 Q1.6797 1.5938 1.5 1.3047 Q1.3203 1.0156 0.9062 0.7734 Q0.4922 0.5312 -0.3672 0.2344 Q-1.5547 -0.1875 -2.0703 -0.7734 Q-2.5859 -1.3594 -2.5859 -2.3125 Q-2.5859 -3.2969 -1.8438 -3.8828 Q-1.1016 -4.4688 0.1328 -4.4688 Q1.3984 -4.4688 2.4766 -4 L2.1641 -3.1406 Q1.1016 -3.5781 0.1016 -3.5781 Q-0.6953 -3.5781 -1.1406 -3.2422 Q-1.5859 -2.9062 -1.5859 -2.2969 Q-1.5859 -1.8594 -1.4219 -1.5703 Q-1.2578 -1.2812 -0.8672 -1.0469 Q-0.4766 -0.8125 0.3359 -0.5156 Q1.6797 -0.0469 2.1875 0.5078 Q2.6953 1.0625 2.6953 1.9375 Z" /></ns0:g><ns0:g transform="translate(92,97)" style="stroke-linecap:butt; text-rendering:geometricPrecision; color-rendering:optimizeQuality; image-rendering:optimizeQuality; font-family:'Open Sans'; color-interpolation:linearRGB; stroke-miterlimit:5;"><ns0:path style="fill:none;" d="M-25.547 -14.75 L-25.98 -15 L-25.98 -15.5" /></ns0:g><ns0:g transform="translate(92,97)" style="stroke-linecap:butt; font-size:8.4px; fill:gray; text-rendering:geometricPrecision; image-rendering:optimizeQuality; color-rendering:optimizeQuality; font-family:'Open Sans'; font-style:italic; stroke:gray; color-interpolation:linearRGB; stroke-miterlimit:5;"><ns0:path style="stroke:none;" d="M-30.3686 -53.8359 Q-30.3686 -55.1641 -29.8999 -56.2891 Q-29.4311 -57.4141 -28.3999 -58.4922 L-27.7905 -58.4922 Q-28.7593 -57.4297 -29.2436 -56.2578 Q-29.728 -55.0859 -29.728 -53.8516 Q-29.728 -52.5234 -29.2905 -51.5078 L-29.8061 -51.5078 Q-30.3686 -52.5391 -30.3686 -53.8359 ZM-26.8086 -55.1484 L-27.3086 -52.7734 L-27.9648 -52.7734 L-26.7617 -58.4922 L-25.5117 -58.4922 Q-23.7773 -58.4922 -23.7773 -57.0547 Q-23.7773 -55.6953 -25.2148 -55.3047 L-24.2773 -52.7734 L-24.9961 -52.7734 L-25.8242 -55.1484 L-26.8086 -55.1484 ZM-26.2305 -57.8984 Q-26.6211 -55.9766 -26.6836 -55.7266 L-26.0273 -55.7266 Q-25.2773 -55.7266 -24.8711 -56.0547 Q-24.4648 -56.3828 -24.4648 -57.0078 Q-24.4648 -57.4766 -24.7226 -57.6875 Q-24.9805 -57.8984 -25.5742 -57.8984 L-26.2305 -57.8984 ZM-21.5914 -56.1484 Q-21.5914 -54.8203 -22.0679 -53.6875 Q-22.5445 -52.5547 -23.5601 -51.5078 L-24.1695 -51.5078 Q-22.232 -53.6641 -22.232 -56.1484 Q-22.232 -57.4766 -22.6695 -58.4922 L-22.1539 -58.4922 Q-21.5914 -57.4297 -21.5914 -56.1484 Z" /><ns0:path style="fill:none; stroke:black;" d="M-51.527 -59.75 L-51.96 -60 L-52.393 -59.75" /></ns0:g><ns0:g transform="translate(92,97)" style="stroke-linecap:butt; fill:rgb(0,5,255); text-rendering:geometricPrecision; color-rendering:optimizeQuality; image-rendering:optimizeQuality; font-family:'Open Sans'; stroke:rgb(0,5,255); color-interpolation:linearRGB; stroke-miterlimit:5;"><ns0:path style="stroke:none;" d="M3.3516 -55.8438 L2.2109 -55.8438 L-2.4766 -63.0312 L-2.5234 -63.0312 Q-2.4297 -61.7656 -2.4297 -60.7188 L-2.4297 -55.8438 L-3.3516 -55.8438 L-3.3516 -64.4062 L-2.2266 -64.4062 L2.4453 -57.25 L2.4922 -57.25 Q2.4922 -57.4062 2.4453 -58.2656 Q2.3984 -59.125 2.4141 -59.5 L2.4141 -64.4062 L3.3516 -64.4062 L3.3516 -55.8438 Z" /><ns0:path style="stroke:none;" d="M10.8672 -55.8438 L9.8672 -55.8438 L9.8672 -59.875 L5.3516 -59.875 L5.3516 -55.8438 L4.3516 -55.8438 L4.3516 -64.4062 L5.3516 -64.4062 L5.3516 -60.7656 L9.8672 -60.7656 L9.8672 -64.4062 L10.8672 -64.4062 L10.8672 -55.8438 Z" /><ns0:path style="stroke:none;" d="M15.6172 -54.0344 L11.8672 -54.0344 L11.8672 -54.5969 L13.3672 -56.1125 Q14.0547 -56.8 14.2734 -57.0969 Q14.4922 -57.3937 14.6016 -57.675 Q14.7109 -57.9562 14.7109 -58.2844 Q14.7109 -58.7375 14.4375 -59.0031 Q14.1641 -59.2687 13.6641 -59.2687 Q13.3203 -59.2687 13 -59.1516 Q12.6797 -59.0344 12.2891 -58.7375 L11.9453 -59.175 Q12.7266 -59.8312 13.6641 -59.8312 Q14.4609 -59.8312 14.9219 -59.4172 Q15.3828 -59.0031 15.3828 -58.3156 Q15.3828 -57.7687 15.0781 -57.2375 Q14.7734 -56.7062 13.9297 -55.8937 L12.6797 -54.675 L12.6797 -54.6437 L15.6172 -54.6437 L15.6172 -54.0344 Z" /><ns0:path style="fill:rgb(230,0,0); stroke:none;" d="M-74.0055 -45.0703 Q-74.0055 -43.0078 -75.0446 -41.8281 Q-76.0836 -40.6484 -77.9274 -40.6484 Q-79.818 -40.6484 -80.8493 -41.8125 Q-81.8805 -42.9766 -81.8805 -45.0859 Q-81.8805 -47.1797 -80.8493 -48.3281 Q-79.818 -49.4766 -77.9274 -49.4766 Q-76.068 -49.4766 -75.0368 -48.3047 Q-74.0055 -47.1328 -74.0055 -45.0703 ZM-80.8336 -45.0703 Q-80.8336 -43.3359 -80.0914 -42.4297 Q-79.3493 -41.5234 -77.9274 -41.5234 Q-76.5055 -41.5234 -75.7789 -42.4219 Q-75.0524 -43.3203 -75.0524 -45.0703 Q-75.0524 -46.8047 -75.7789 -47.6953 Q-76.5055 -48.5859 -77.9274 -48.5859 Q-79.3493 -48.5859 -80.0914 -47.6875 Q-80.8336 -46.7891 -80.8336 -45.0703 Z" /><ns0:path style="fill:rgb(230,0,0); stroke:none;" d="M-82.8805 -40.7734 L-83.8805 -40.7734 L-83.8805 -44.8047 L-88.3961 -44.8047 L-88.3961 -40.7734 L-89.3961 -40.7734 L-89.3961 -49.3359 L-88.3961 -49.3359 L-88.3961 -45.6953 L-83.8805 -45.6953 L-83.8805 -49.3359 L-82.8805 -49.3359 L-82.8805 -40.7734 Z" /><ns0:path style="fill:rgb(230,0,0); stroke:none;" d="M-48.0225 -90.0703 Q-48.0225 -88.0078 -49.0616 -86.8281 Q-50.1006 -85.6484 -51.9444 -85.6484 Q-53.835 -85.6484 -54.8662 -86.8125 Q-55.8975 -87.9766 -55.8975 -90.0859 Q-55.8975 -92.1797 -54.8662 -93.3281 Q-53.835 -94.4766 -51.9444 -94.4766 Q-50.085 -94.4766 -49.0537 -93.3047 Q-48.0225 -92.1328 -48.0225 -90.0703 ZM-54.8506 -90.0703 Q-54.8506 -88.3359 -54.1084 -87.4297 Q-53.3662 -86.5234 -51.9444 -86.5234 Q-50.5225 -86.5234 -49.7959 -87.4219 Q-49.0694 -88.3203 -49.0694 -90.0703 Q-49.0694 -91.8047 -49.7959 -92.6953 Q-50.5225 -93.5859 -51.9444 -93.5859 Q-53.3662 -93.5859 -54.1084 -92.6875 Q-54.8506 -91.7891 -54.8506 -90.0703 Z" /><ns0:path style="fill:none; stroke:black;" d="M-26.413 44.75 L-25.98 45 L-25.547 44.75" /><ns0:path style="fill:none; stroke:black;" d="M-51.53 30.25 L-51.963 30 L-52.396 30.25" /><ns0:path style="fill:none; stroke:black;" d="M-25.98 74.5 L-25.98 75 L-26.413 75.25" /><ns0:path style="fill:none; stroke:black;" d="M-77.51 44.75 L-77.943 45 L-77.943 45.5" /><ns0:path style="fill:none; stroke:black;" d="M-51.53 89.75 L-51.963 90 L-52.396 89.75" /><ns0:path style="fill:none; stroke:black;" d="M-77.943 74.5 L-77.943 75 L-77.51 75.25" /><ns0:path style="fill:none; stroke:black;" d="M26.413 44.75 L25.98 45 L25.98 45.5" /><ns0:path style="fill:none; stroke:black;" d="M51.53 30.25 L51.963 30 L52.396 30.25" /><ns0:path style="fill:none; stroke:black;" d="M25.98 74.5 L25.98 75 L26.413 75.25" /><ns0:path style="fill:none; stroke:black;" d="M77.51 44.75 L77.943 45 L77.943 45.5" /><ns0:path style="fill:none; stroke:black;" d="M51.53 89.75 L51.963 90 L52.396 89.75" /><ns0:path style="fill:none; stroke:black;" d="M77.943 74.5 L77.943 75 L77.51 75.25" /></ns0:g></ns0:g></ns0:svg></ns0:svg></ns0:svg></ns0:svg></g></svg>