<svg xmlns:ns0="http://www.w3.org/2000/svg" xmlns="http://www.w3.org/2000/svg"><g transform="translate(0, 0)"><ns0:svg width="433" viewBox="0 0 433 251" style="fill-opacity:1; color-rendering:auto; color-interpolation:auto; text-rendering:auto; stroke:black; stroke-linecap:square; stroke-miterlimit:10; shape-rendering:auto; stroke-opacity:1; fill:black; stroke-dasharray:none; font-weight:normal; stroke-width:1; font-family:'Open Sans'; font-style:normal; stroke-linejoin:miter; font-size:12; stroke-dashoffset:0; image-rendering:auto;" height="251" class="cas-substance-image"><ns0:svg class="cas-substance-single-component"><ns0:rect y="0" x="0" width="433" stroke="none" ry="7" rx="7" height="251" fill="white" class="cas-substance-group" /><ns0:svg y="0" x="0" width="433" viewBox="0 0 433 251" style="fill:black;" height="251" class="cas-substance-single-component-image"><ns0:svg><ns0:g><ns0:clipPath id="clipPath_780297be238d43a595dce31d7cf2ab3d1" clipPathUnits="userSpaceOnUse"><ns0:path d="M21.8638 23.2098 L-17.4086 42.8587 L0.4892 78.6311 L39.7616 58.9823 L27.863 35.2006 L20.3222 64.7681 L14.5083 63.2853 L22.5898 31.5979 L26.5682 32.6126 L26.5682 32.6126 L21.8638 23.2098 Z" /></ns0:clipPath><ns0:clipPath id="clipPath_780297be238d43a595dce31d7cf2ab3d2" clipPathUnits="userSpaceOnUse"><ns0:path d="M43.5761 -35.0377 L5.2962 -23.4338 L19.6669 23.9737 L26.4415 21.9201 L26.4415 21.9201 L38.8668 -12.5876 L44.512 -10.5549 L33.6 19.7501 L57.9468 12.3698 L43.5761 -35.0377 Z" /></ns0:clipPath><ns0:clipPath id="clipPath_780297be238d43a595dce31d7cf2ab3d3" clipPathUnits="userSpaceOnUse"><ns0:path d="M-5.3636 19.8863 L-39.6251 40.5297 L-34.8696 48.4222 L-3.9051 32.9259 L-1.2199 38.2915 L-31.7636 53.5772 L-31.7636 53.5772 L-20.3014 72.6007 L13.9601 51.9573 L-5.3636 19.8863 Z" /></ns0:clipPath><ns0:clipPath id="clipPath_780297be238d43a595dce31d7cf2ab3d4" clipPathUnits="userSpaceOnUse"><ns0:path d="M-16.5912 42.2696 L-50.4892 76.1462 L-46.3516 80.2864 L-46.3516 80.2864 L-14.7333 86.2156 L-15.8392 92.1128 L-38.8439 87.7989 L-38.8439 87.7989 L-22.2138 104.4394 L11.6842 70.5628 L-16.5912 42.2696 Z" /></ns0:clipPath><ns0:clipPath id="clipPath_780297be238d43a595dce31d7cf2ab3d5" clipPathUnits="userSpaceOnUse"><ns0:path d="M41.5509 -74.6277 L1.6864 -71.3388 L5.9001 -20.2652 L25.2243 -21.8595 L25.2243 -21.8595 L14.0589 -35.4911 L18.7006 -39.293 L32.4891 -22.4589 L32.4891 -22.4589 L45.7646 -23.5541 L41.5509 -74.6277 Z" /></ns0:clipPath><ns0:clipPath id="clipPath_780297be238d43a595dce31d7cf2ab3d6" clipPathUnits="userSpaceOnUse"><ns0:path d="M-6.8855 -10.953 L-2.6178 40.7776 L-8.5975 41.271 L-12.8652 -10.4597 L-6.8855 -10.953 ZM-22.2422 -20.9015 L-40.6459 30.1673 L-3.0148 43.7285 L15.3889 -7.3403 L-22.2422 -20.9015 Z" /></ns0:clipPath><ns0:clipPath id="clipPath_780297be238d43a595dce31d7cf2ab3d7" clipPathUnits="userSpaceOnUse"><ns0:path d="M-78.6978 60.461 L-84.2411 96.382 L-84.2411 96.382 L-50.1976 77.8408 L-47.3279 83.11 L-79.7558 100.7713 L-79.7558 100.7713 L-33.0432 107.9799 L-26.9426 68.4479 L-78.6978 60.461 Z" /></ns0:clipPath><ns0:clipPath id="clipPath_780297be238d43a595dce31d7cf2ab3d8" clipPathUnits="userSpaceOnUse"><ns0:path d="M-31.8196 -56.09 L-55.9009 -24.1512 L-13.7444 7.6341 L4.1947 -16.1584 L4.1947 -16.1584 L-10.1657 -2.2041 L-14.3471 -6.5072 L6.751 -27.0086 L6.751 -27.0086 L-31.8196 -56.09 Z" /></ns0:clipPath><ns0:clipPath id="clipPath_780297be238d43a595dce31d7cf2ab3d9" clipPathUnits="userSpaceOnUse"><ns0:path d="M15.3385 -97.5242 L20.6647 -94.7616 L8.0915 -70.5209 L2.7653 -73.2834 L15.3385 -97.5242 ZM-2.6123 -112.6432 L-26.6082 -80.6401 L12.9293 -50.9948 L36.9252 -82.9979 L-2.6123 -112.6432 Z" /></ns0:clipPath><ns0:clipPath id="clipPath_780297be238d43a595dce31d7cf2ab3d10" clipPathUnits="userSpaceOnUse"><ns0:path d="M-60.6354 -19.9725 L-99.1052 -9.0146 L-84.2976 42.9705 L-45.8278 32.0126 L-58.0498 -10.8951 L-82.3832 12.9149 L-86.5795 8.6264 L-59.9197 -17.4599 L-59.9197 -17.4599 L-60.6354 -19.9725 Z" /></ns0:clipPath><ns0:clipPath id="clipPath_780297be238d43a595dce31d7cf2ab3d11" clipPathUnits="userSpaceOnUse"><ns0:path d="M-74.9572 15.5701 L-77.9935 17.813 L-74.8518 55.8946 L-80.8315 56.388 L-83.668 22.0049 L-108.8207 40.5854 L-85.0538 72.7589 L-51.1903 47.7436 L-74.9572 15.5701 Z" /></ns0:clipPath><ns0:clipPath id="clipPath_780297be238d43a595dce31d7cf2ab3d12" clipPathUnits="userSpaceOnUse"><ns0:path d="M-78.7254 40.9105 L-109.6813 59.5616 L-109.6813 59.5616 L-75.5185 48.3868 L-73.6531 54.0895 L-110.2681 66.0664 L-110.2681 66.0664 L-93.2376 94.3325 L-58.9758 73.6896 L-78.7254 40.9105 Z" /></ns0:clipPath><ns0:clipPath id="clipPath_780297be238d43a595dce31d7cf2ab3d13" clipPathUnits="userSpaceOnUse"><ns0:path d="M-87.468 62.7653 L-121.2517 89.3649 L-120.6959 90.0708 L-86.6774 102.0033 L-88.6634 107.6651 L-113.7795 98.8552 L-113.7795 98.8552 L-96.507 120.7927 L-62.7233 94.1931 L-87.468 62.7653 Z" /></ns0:clipPath><ns0:clipPath id="clipPath_780297be238d43a595dce31d7cf2ab3d14" clipPathUnits="userSpaceOnUse"><ns0:path d="M-49.3907 -56.3398 L-57.437 -50.6243 L-57.437 -50.6243 L-48.1825 -18.1343 L-53.9529 -16.4906 L-62.6259 -46.9385 L-62.6259 -46.9385 L-93.4822 -25.0205 L-70.3183 7.5898 L-26.2268 -23.7295 L-49.3907 -56.3398 Z" /></ns0:clipPath><ns0:clipPath id="clipPath_780297be238d43a595dce31d7cf2ab3d15" clipPathUnits="userSpaceOnUse"><ns0:path d="M-17.185 -113.9619 L-56.4728 -94.356 L-38.612 -58.5651 L-3.1288 -76.2723 L-3.1288 -76.2723 L-38.5042 -91.0368 L-36.1932 -96.5739 L-1.2246 -81.9792 L-1.2246 -81.9792 L-17.185 -113.9619 Z" /></ns0:clipPath><ns0:clipPath id="clipPath_780297be238d43a595dce31d7cf2ab3d16" clipPathUnits="userSpaceOnUse"><ns0:path d="M-20.1902 -136.4368 L-36.1849 -123.3387 L-36.1849 -123.3387 L-16.095 -123.0547 L-16.1798 -117.0553 L-43.3881 -117.4399 L-43.3881 -117.4399 L-51.1376 -111.0939 L-24.7078 -78.8192 L6.2396 -104.1621 L-20.1902 -136.4368 Z" /></ns0:clipPath><ns0:clipPath id="clipPath_780297be238d43a595dce31d7cf2ab3d17" clipPathUnits="userSpaceOnUse"><ns0:path d="M-139.6163 28.6944 L-140.9438 39.5266 L-116.4426 67.3049 L-120.9423 71.2738 L-141.9198 47.4906 L-144.482 68.3973 L-92.6317 74.7516 L-87.766 35.0487 L-139.6163 28.6944 Z" /></ns0:clipPath><ns0:clipPath id="clipPath_780297be238d43a595dce31d7cf2ab3d18" clipPathUnits="userSpaceOnUse"><ns0:path d="M-81.648 -115.2172 L-96.8976 -78.2381 L-65.6756 -65.3627 L-34.6362 -95.8303 L-34.6362 -95.8303 L-81.648 -115.2172 ZM-37.4324 -84.6782 L-59.6442 -62.8754 L-48.345 -58.2158 L-37.4324 -84.6782 Z" /></ns0:clipPath><ns0:clipPath id="clipPath_780297be238d43a595dce31d7cf2ab3d19" clipPathUnits="userSpaceOnUse"><ns0:path d="M-163.5599 62.667 L-146.3471 91.2348 L-151.4863 94.3313 L-165.6655 70.7984 L-172.3089 101.7001 L-127.9414 111.2384 L-119.5341 72.132 L-163.5599 62.667 Z" /></ns0:clipPath><ns0:clipPath id="clipPath_780297be238d43a595dce31d7cf2ab3d20" clipPathUnits="userSpaceOnUse"><ns0:path d="M-117.716 -69.8808 L-140.0786 -68.0361 L-138.5126 -49.0515 L-117.716 -69.8808 ZM-100.214 -71.3245 L-108.4764 -70.6429 L-108.4764 -70.6429 L-137.8656 -41.2076 L-136.048 -19.1735 L-96.1834 -22.4619 L-100.214 -71.3245 Z" /></ns0:clipPath><ns0:clipPath id="clipPath_780297be238d43a595dce31d7cf2ab3d21" clipPathUnits="userSpaceOnUse"><ns0:path d="M-126.3188 -42.3357 L-133.1695 -36.6451 L-123.0744 -1.2053 L-128.8449 0.4384 L-138.2145 -32.4545 L-138.2145 -32.4545 L-166.741 -8.7585 L-141.1822 22.0107 L-100.7599 -11.5665 L-126.3188 -42.3357 Z" /></ns0:clipPath><ns0:clipPath id="clipPath_780297be238d43a595dce31d7cf2ab3d22" clipPathUnits="userSpaceOnUse"><ns0:path d="M-129.884 5.6269 L-147.688 31.8804 L-130.99 50.8117 L-130.99 50.8117 L-118.0647 47.1309 L-129.884 5.6269 ZM-132.8688 -4.8543 L-171.3393 6.1011 L-156.5352 58.0863 L-137.3844 52.6326 L-151.4854 36.6456 L-156.0637 33.5408 L-155.264 32.3616 L-156.2065 31.2931 L-152.0578 27.6339 L-132.028 -1.9017 L-132.8688 -4.8543 Z" /></ns0:clipPath><ns0:clipPath id="clipPath_780297be238d43a595dce31d7cf2ab3d23" clipPathUnits="userSpaceOnUse"><ns0:path d="M-97.4125 -130.7131 L-106.1123 -96.6078 L-67.3535 -86.7209 L-59.9342 -115.8062 L-59.9342 -115.8062 L-97.1242 -108.879 L-98.2229 -114.7776 L-61.6484 -121.5901 L-61.6484 -121.5901 L-97.4125 -130.7131 Z" /></ns0:clipPath><ns0:clipPath id="clipPath_780297be238d43a595dce31d7cf2ab3d24" clipPathUnits="userSpaceOnUse"><ns0:path d="M-96.0296 -112.8918 L-114.5015 -96.9584 L-114.5015 -96.9584 L-101.62 -75.5803 L-106.7592 -72.4837 L-119.1109 -92.9826 L-119.1109 -92.9826 L-135.7407 -78.6381 L-109.6144 -48.3492 L-69.9033 -82.6029 L-96.0296 -112.8918 Z" /></ns0:clipPath><ns0:clipPath id="clipPath_780297be238d43a595dce31d7cf2ab3d25" clipPathUnits="userSpaceOnUse"><ns0:path d="M-187.7971 20.4499 L-181.9832 21.9328 L-190.5809 55.6391 L-196.3948 54.1562 L-187.7971 20.4499 ZM-184.0705 13.529 L-214.0753 39.9811 L-178.8275 79.963 L-148.8227 53.5109 L-184.0705 13.529 Z" /></ns0:clipPath><ns0:clipPath id="clipPath_780297be238d43a595dce31d7cf2ab3d26" clipPathUnits="userSpaceOnUse"><ns0:path d="M-169.6504 -115.5941 L-178.3465 -81.4887 L-139.5866 -71.6059 L-132.6877 -98.6628 L-132.6877 -98.6628 L-168.0981 -85.4844 L-170.1909 -91.1076 L-130.9261 -105.7204 L-130.9261 -105.7204 L-169.6504 -115.5941 Z" /></ns0:clipPath><ns0:clipPath id="clipPath_780297be238d43a595dce31d7cf2ab3d27" clipPathUnits="userSpaceOnUse"><ns0:path d="M-169.7019 -96.8562 L-206.8406 -58.9489 L-178.2681 -30.9558 L-141.1294 -68.8631 L-162.4756 -89.7765 L-173.706 -48.2499 L-179.4979 -49.8162 L-167.547 -94.0071 L-166.5067 -93.7258 L-169.7019 -96.8562 Z" /></ns0:clipPath><ns0:clipPath id="clipPath_780297be238d43a595dce31d7cf2ab3d28" clipPathUnits="userSpaceOnUse"><ns0:path d="M-204.9372 -16.2016 L-216.8786 27.9684 L-178.2648 38.4076 L-166.3235 -5.7624 L-193.5005 -13.1097 L-181.9047 27.61 L-187.6752 29.2533 L-200.2593 -14.937 L-204.9372 -16.2016 Z" /></ns0:clipPath><ns0:clipPath id="clipPath_780297be238d43a595dce31d7cf2ab3d29" clipPathUnits="userSpaceOnUse"><ns0:path d="M-170.3059 -53.0121 L-171.8328 -52.8862 L-171.8328 -52.8862 L-198.0122 -14.4956 L-202.9693 -17.876 L-179.5279 -52.2516 L-179.5279 -52.2516 L-210.1705 -49.7245 L-206.2331 -1.9809 L-166.3685 -5.2685 L-170.3059 -53.0121 Z" /></ns0:clipPath><ns0:g transform="translate(216,126)" style="text-rendering:geometricPrecision; color-rendering:optimizeQuality; color-interpolation:linearRGB; stroke-linecap:butt; image-rendering:optimizeQuality;"><ns0:line y2="37.563" y1="22.563" x2="108.963" x1="82.983" style="fill:none;" /><ns0:line y2="37.563" y1="22.563" x2="57.003" x1="82.983" style="fill:none;" /><ns0:line y2="22.563" y1="37.563" x2="134.946" x1="108.963" style="fill:none;" /><ns0:line y2="37.563" y1="22.563" x2="160.926" x1="134.946" style="fill:none;" /><ns0:line y2="25.7518" y1="37.563" x2="181.3829" x1="160.926" style="fill:none;" /><ns0:line y2="61.0864" y1="36.5526" x2="159.176" x1="159.176" style="fill:none;" /><ns0:line y2="61.0864" y1="36.5526" x2="162.676" x1="162.676" style="fill:none;" /><ns0:line y2="37.563" y1="25.7416" x2="212.886" x1="192.4113" style="fill:none;" /><ns0:line y2="14.583" y1="42.774" x2="37.719" x1="27.459" style="fill:none;" /><ns0:line y2="37.563" y1="42.774" x2="57.003" x1="27.459" style="fill:none;" /><ns0:line y2="60.393" y1="42.774" x2="18.342" x1="27.459" style="fill:none;" /><ns0:line y2="59.067" y1="42.774" x2="-5.106" x1="27.459" style="fill:none; clip-path:url(#clipPath_780297be238d43a595dce31d7cf2ab3d1);" /><ns0:line y2="37.563" y1="14.583" x2="57.003" x1="37.719" style="fill:none;" /><ns0:line y2="-25.647" y1="14.583" x2="25.524" x1="37.719" style="fill:none; clip-path:url(#clipPath_780297be238d43a595dce31d7cf2ab3d2);" /><ns0:line y2="-24.321" y1="14.583" x2="48.999" x1="37.719" style="fill:none;" /><ns0:line y2="65.754" y1="37.563" x2="67.263" x1="57.003" style="fill:none;" /><ns0:line y2="35.973" y1="60.393" x2="24.57" x1="18.342" style="fill:none;" /><ns0:line y2="88.473" y1="60.393" x2="-18.972" x1="18.342" style="fill:none;" /><ns0:line y2="84.4613" y1="58.8115" x2="-19.4619" x1="14.6229" style="fill:none;" /><ns0:line y2="33.42" y1="59.067" x2="-20.559" x1="-5.106" style="fill:none; clip-path:url(#clipPath_780297be238d43a595dce31d7cf2ab3d3);" /><ns0:line y2="87.642" y1="59.067" x2="-33.699" x1="-5.106" style="fill:none; clip-path:url(#clipPath_780297be238d43a595dce31d7cf2ab3d4);" /><ns0:line y2="83.7379" y1="58.0198" x2="-34.7438" x1="-9.0094" style="fill:none; clip-path:url(#clipPath_780297be238d43a595dce31d7cf2ab3d4);" /><ns0:line y2="-10.593" y1="-25.647" x2="-4.698" x1="25.524" style="fill:none;" /><ns0:line y2="-69.246" y1="-25.647" x2="21.927" x1="25.524" style="fill:none; clip-path:url(#clipPath_780297be238d43a595dce31d7cf2ab3d5);" /><ns0:line y2="-66.9443" y1="-27.3731" x2="18.605" x1="21.8697" style="fill:none; clip-path:url(#clipPath_780297be238d43a595dce31d7cf2ab3d5);" /><ns0:line y2="-8.043" y1="-24.321" x2="40.419" x1="48.999" style="fill:none;" /><ns0:line y2="-68.427" y1="-24.321" x2="36.435" x1="48.999" style="fill:none;" /><ns0:line y2="-65.5247" y1="-25.3056" x2="33.6225" x1="45.0793" style="fill:none;" /><ns0:line y2="-8.043" y1="35.973" x2="40.419" x1="24.57" style="fill:none;" /><ns0:line y2="37.287" y1="35.973" x2="-5.916" x1="24.57" style="fill:none;" /><ns0:line y2="40.6967" y1="39.7029" x2="-3.7464" x1="19.3115" style="fill:none;" /><ns0:line y2="87.642" y1="88.473" x2="-33.699" x1="-18.972" style="fill:none;" /><ns0:line y2="82.269" y1="88.473" x2="-52.056" x1="-18.972" style="fill:none;" /><ns0:line y2="-10.593" y1="33.42" x2="-4.698" x1="-20.559" style="fill:none; clip-path:url(#clipPath_780297be238d43a595dce31d7cf2ab3d6);" /><ns0:line y2="33.885" y1="33.42" x2="-66.09" x1="-20.559" style="fill:none;" /><ns0:line y2="37.3642" y1="36.9405" x2="-64.0336" x1="-22.5439" style="fill:none;" /><ns0:line y2="80.799" y1="87.642" x2="-78.042" x1="-33.699" style="fill:none; clip-path:url(#clipPath_780297be238d43a595dce31d7cf2ab3d7);" /><ns0:line y2="-37.863" y1="-10.593" x2="-40.866" x1="-4.698" style="fill:none; clip-path:url(#clipPath_780297be238d43a595dce31d7cf2ab3d8);" /><ns0:line y2="-39.4411" y1="-14.6042" x2="-37.1454" x1="-4.2044" style="fill:none; clip-path:url(#clipPath_780297be238d43a595dce31d7cf2ab3d8);" /><ns0:line y2="-68.427" y1="-69.246" x2="36.435" x1="21.927" style="fill:none;" /><ns0:line y2="-94.392" y1="-69.246" x2="-11.61" x1="21.927" style="fill:none; clip-path:url(#clipPath_780297be238d43a595dce31d7cf2ab3d9);" /><ns0:line y2="-34.491" y1="-8.043" x2="18.756" x1="40.419" style="fill:none;" /><ns0:line y2="-35.1455" y1="-15.1821" x2="22.7441" x1="39.0957" style="fill:none;" /><ns0:line y2="-92.814" y1="-68.427" x2="16.275" x1="36.435" style="fill:none;" /><ns0:line y2="-6.969" y1="37.287" x2="-9.567" x1="-5.916" style="fill:none;" /><ns0:line y2="57.174" y1="37.287" x2="-45.654" x1="-5.916" style="fill:none;" /><ns0:line y2="57.174" y1="82.269" x2="-45.654" x1="-52.056" style="fill:none;" /><ns0:line y2="103.593" y1="82.269" x2="-91.209" x1="-52.056" style="fill:none;" /><ns0:line y2="99.5528" y1="80.1618" x2="-91.1084" x1="-55.5046" style="fill:none;" /><ns0:line y2="-10.887" y1="33.885" x2="-78.843" x1="-66.09" style="fill:none; clip-path:url(#clipPath_780297be238d43a595dce31d7cf2ab3d10);" /><ns0:line y2="54.444" y1="33.885" x2="-93.921" x1="-66.09" style="fill:none; clip-path:url(#clipPath_780297be238d43a595dce31d7cf2ab3d11);" /><ns0:line y2="54.444" y1="80.799" x2="-93.921" x1="-78.042" style="fill:none; clip-path:url(#clipPath_780297be238d43a595dce31d7cf2ab3d12);" /><ns0:line y2="102.759" y1="80.799" x2="-105.933" x1="-78.042" style="fill:none; clip-path:url(#clipPath_780297be238d43a595dce31d7cf2ab3d13);" /><ns0:line y2="99.9208" y1="84.799" x2="-96.6705" x1="-77.4645" style="fill:none; clip-path:url(#clipPath_780297be238d43a595dce31d7cf2ab3d13);" /><ns0:line y2="-10.887" y1="-37.863" x2="-78.843" x1="-40.866" style="fill:none; clip-path:url(#clipPath_780297be238d43a595dce31d7cf2ab3d14);" /><ns0:line y2="-78.135" y1="-37.863" x2="-44.187" x1="-40.866" style="fill:none;" /><ns0:line y2="-78.135" y1="-94.392" x2="-44.187" x1="-11.61" style="fill:none; clip-path:url(#clipPath_780297be238d43a595dce31d7cf2ab3d15);" /><ns0:line y2="-120.864" y1="-94.392" x2="-33.288" x1="-11.61" style="fill:none; clip-path:url(#clipPath_780297be238d43a595dce31d7cf2ab3d16);" /><ns0:line y2="-116.8147" y1="-98.1729" x2="-25.4482" x1="-10.1824" style="fill:none; clip-path:url(#clipPath_780297be238d43a595dce31d7cf2ab3d16);" /><ns0:line y2="-6.969" y1="-34.491" x2="-9.567" x1="18.756" style="fill:none;" /><ns0:line y2="-75.231" y1="-34.491" x2="7.155" x1="18.756" style="fill:none;" /><ns0:line y2="-75.231" y1="-92.814" x2="7.155" x1="16.275" style="fill:none;" /><ns0:line y2="-120.108" y1="-92.814" x2="-19.887" x1="16.275" style="fill:none;" /><ns0:line y2="-116.0971" y1="-91.2378" x2="-20.3826" x1="12.5536" style="fill:none;" /><ns0:line y2="-20.919" y1="-6.969" x2="-52.095" x1="-9.567" style="fill:none;" /><ns0:line y2="-16.9635" y1="-4.2732" x2="-51.2658" x1="-12.5779" style="fill:none;" /><ns0:line y2="52.404" y1="57.174" x2="-78.15" x1="-45.654" style="fill:none;" /><ns0:line y2="56.1604" y1="59.9024" x2="-76.659" x1="-51.1662" style="fill:none;" /><ns0:line y2="102.759" y1="103.593" x2="-105.933" x1="-91.209" style="fill:none;" /><ns0:line y2="90.897" y1="103.593" x2="-127.404" x1="-91.209" style="fill:none;" /><ns0:line y2="-24.555" y1="-10.887" x2="-116.424" x1="-78.843" style="fill:none;" /><ns0:line y2="-20.5751" y1="-8.2885" x2="-115.7212" x1="-81.9383" style="fill:none;" /><ns0:line y2="49.002" y1="54.444" x2="-138.327" x1="-93.921" style="fill:none; clip-path:url(#clipPath_780297be238d43a595dce31d7cf2ab3d17);" /><ns0:line y2="52.7218" y1="57.6722" x2="-136.747" x1="-96.3525" style="fill:none; clip-path:url(#clipPath_780297be238d43a595dce31d7cf2ab3d17);" /><ns0:line y2="89.571" y1="102.759" x2="-150.852" x1="-105.933" style="fill:none;" /><ns0:line y2="-95.298" y1="-78.135" x2="-85.806" x1="-44.187" style="fill:none; clip-path:url(#clipPath_780297be238d43a595dce31d7cf2ab3d18);" /><ns0:line y2="-91.292" y1="-75.6697" x2="-85.2722" x1="-47.3895" style="fill:none; clip-path:url(#clipPath_780297be238d43a595dce31d7cf2ab3d18);" /><ns0:line y2="-120.108" y1="-120.864" x2="-19.887" x1="-33.288" style="fill:none;" /><ns0:line y2="-122.136" y1="-120.864" x2="-78.96" x1="-33.288" style="fill:none;" /><ns0:line y2="-92.361" y1="-75.231" x2="-33.888" x1="7.155" style="fill:none;" /><ns0:line y2="-88.3527" y1="-72.7794" x2="-33.3713" x1="3.9421" style="fill:none;" /><ns0:line y2="-120.546" y1="-120.108" x2="-50.871" x1="-19.887" style="fill:none;" /><ns0:line y2="-62.784" y1="-20.919" x2="-64.02" x1="-52.095" style="fill:none;" /><ns0:line y2="8.148" y1="-20.919" x2="-81.801" x1="-52.095" style="fill:none;" /><ns0:line y2="8.148" y1="52.404" x2="-81.801" x1="-78.15" style="fill:none;" /><ns0:line y2="66.477" y1="52.404" x2="-121.173" x1="-78.15" style="fill:none;" /><ns0:line y2="66.477" y1="90.897" x2="-121.173" x1="-127.404" style="fill:none;" /><ns0:line y2="82.935" y1="90.897" x2="-164.439" x1="-127.404" style="fill:none; clip-path:url(#clipPath_780297be238d43a595dce31d7cf2ab3d19);" /><ns0:line y2="79.9379" y1="87.0505" x2="-161.7278" x1="-128.644" style="fill:none; clip-path:url(#clipPath_780297be238d43a595dce31d7cf2ab3d19);" /><ns0:line y2="-65.943" y1="-24.555" x2="-119.838" x1="-116.424" style="fill:none; clip-path:url(#clipPath_780297be238d43a595dce31d7cf2ab3d20);" /><ns0:line y2="4.23" y1="-24.555" x2="-151.077" x1="-116.424" style="fill:none; clip-path:url(#clipPath_780297be238d43a595dce31d7cf2ab3d21);" /><ns0:line y2="4.23" y1="49.002" x2="-151.077" x1="-138.327" style="fill:none; clip-path:url(#clipPath_780297be238d43a595dce31d7cf2ab3d22);" /><ns0:line y2="63.924" y1="49.002" x2="-166.305" x1="-138.327" style="fill:none;" /><ns0:line y2="82.935" y1="89.571" x2="-164.439" x1="-150.852" style="fill:none;" /><ns0:line y2="63.924" y1="89.571" x2="-166.305" x1="-150.852" style="fill:none;" /><ns0:line y2="67.4611" y1="83.0792" x2="-168.26" x1="-158.8497" style="fill:none;" /><ns0:line y2="-122.136" y1="-95.298" x2="-78.96" x1="-85.806" style="fill:none; clip-path:url(#clipPath_780297be238d43a595dce31d7cf2ab3d23);" /><ns0:line y2="-65.943" y1="-95.298" x2="-119.838" x1="-85.806" style="fill:none; clip-path:url(#clipPath_780297be238d43a595dce31d7cf2ab3d24);" /><ns0:line y2="-113.295" y1="-122.136" x2="-107.757" x1="-78.96" style="fill:none;" /><ns0:line y2="-113.9877" y1="-116.9007" x2="-93.5753" x1="-84.0871" style="fill:none;" /><ns0:line y2="-120.546" y1="-92.361" x2="-50.871" x1="-33.888" style="fill:none;" /><ns0:line y2="-62.784" y1="-92.361" x2="-64.02" x1="-33.888" style="fill:none;" /><ns0:line y2="-112.515" y1="-120.546" x2="-93.987" x1="-50.871" style="fill:none;" /><ns0:line y2="-109.4442" y1="-116.7352" x2="-91.3595" x1="-52.2167" style="fill:none;" /><ns0:line y2="-77.244" y1="-62.784" x2="-106.125" x1="-64.02" style="fill:none;" /><ns0:line y2="-73.2774" y1="-60.1301" x2="-105.3507" x1="-67.068" style="fill:none;" /><ns0:line y2="-3.99" y1="8.148" x2="-126.987" x1="-81.801" style="fill:none;" /><ns0:line y2="-6.8459" y1="4.2436" x2="-124.1275" x1="-82.8446" style="fill:none;" /><ns0:line y2="32.121" y1="66.477" x2="-151.476" x1="-121.173" style="fill:none;" /><ns0:line y2="35.9517" y1="67.2767" x2="-152.7642" x1="-125.1345" style="fill:none;" /><ns0:line y2="51.264" y1="82.935" x2="-192.561" x1="-164.439" style="fill:none;" /><ns0:line y2="-80.181" y1="-65.943" x2="-158.04" x1="-119.838" style="fill:none;" /><ns0:line y2="-76.1957" y1="-63.3691" x2="-157.3688" x1="-122.9538" style="fill:none;" /><ns0:line y2="-7.362" y1="4.23" x2="-186.609" x1="-151.077" style="fill:none;" /><ns0:line y2="-10.0627" y1="0.2759" x2="-183.6024" x1="-151.9125" style="fill:none;" /><ns0:line y2="29.568" y1="63.924" x2="-196.593" x1="-166.305" style="fill:none; clip-path:url(#clipPath_780297be238d43a595dce31d7cf2ab3d25);" /><ns0:line y2="-112.515" y1="-113.295" x2="-93.987" x1="-107.757" style="fill:none;" /><ns0:line y2="-107.019" y1="-113.295" x2="-151.197" x1="-107.757" style="fill:none;" /><ns0:line y2="-105.429" y1="-112.515" x2="-123.108" x1="-93.987" style="fill:none;" /><ns0:line y2="-105.429" y1="-77.244" x2="-123.108" x1="-106.125" style="fill:none;" /><ns0:line y2="-44.727" y1="-77.244" x2="-138.591" x1="-106.125" style="fill:none;" /><ns0:line y2="32.121" y1="-3.99" x2="-151.476" x1="-126.987" style="fill:none;" /><ns0:line y2="-44.727" y1="-3.99" x2="-138.591" x1="-126.987" style="fill:none;" /><ns0:line y2="24.825" y1="32.121" x2="-185.817" x1="-151.476" style="fill:none;" /><ns0:line y2="24.825" y1="51.264" x2="-185.817" x1="-192.561" style="fill:none;" /><ns0:line y2="27.6481" y1="50.171" x2="-182.925" x1="-188.6702" style="fill:none;" /><ns0:line y2="23.496" y1="51.264" x2="-209.292" x1="-192.561" style="fill:none;" /><ns0:line y2="-107.019" y1="-80.181" x2="-151.197" x1="-158.04" style="fill:none; clip-path:url(#clipPath_780297be238d43a595dce31d7cf2ab3d26);" /><ns0:line y2="-47.631" y1="-80.181" x2="-189.93" x1="-158.04" style="fill:none; clip-path:url(#clipPath_780297be238d43a595dce31d7cf2ab3d27);" /><ns0:line y2="29.568" y1="-7.362" x2="-196.593" x1="-186.609" style="fill:none; clip-path:url(#clipPath_780297be238d43a595dce31d7cf2ab3d28);" /><ns0:line y2="-47.631" y1="-7.362" x2="-189.93" x1="-186.609" style="fill:none; clip-path:url(#clipPath_780297be238d43a595dce31d7cf2ab3d29);" /><ns0:line y2="23.496" y1="29.568" x2="-209.292" x1="-196.593" style="fill:none;" /><ns0:line y2="29.8129" y1="31.8539" x2="-204.1944" x1="-199.9259" style="fill:none;" /><ns0:line y2="-90.363" y1="-107.019" x2="-179.031" x1="-151.197" style="fill:none;" /><ns0:line y2="-92.3898" y1="-99.8264" x2="-168.828" x1="-156.4005" style="fill:none;" /><ns0:line y2="-89.604" y1="-105.429" x2="-165.63" x1="-123.108" style="fill:none;" /><ns0:line y2="-93.589" y1="-108.0044" x2="-164.9569" x1="-126.2226" style="fill:none;" /><ns0:line y2="-52.653" y1="-44.727" x2="-175.623" x1="-138.591" style="fill:none;" /><ns0:line y2="-48.8076" y1="-41.7274" x2="-174.3795" x1="-141.2995" style="fill:none;" /><ns0:line y2="-19.284" y1="24.825" x2="-198.378" x1="-185.817" style="fill:none;" /><ns0:line y2="-20.103" y1="23.496" x2="-212.886" x1="-209.292" style="fill:none;" /><ns0:line y2="-54.231" y1="-47.631" x2="-203.505" x1="-189.93" style="fill:none;" /><ns0:line y2="-49.8552" y1="-45.3669" x2="-202.5094" x1="-193.2777" style="fill:none;" /><ns0:line y2="-89.604" y1="-90.363" x2="-165.63" x1="-179.031" style="fill:none;" /><ns0:line y2="-54.231" y1="-90.363" x2="-203.505" x1="-179.031" style="fill:none;" /><ns0:line y2="-52.653" y1="-89.604" x2="-175.623" x1="-165.63" style="fill:none;" /><ns0:line y2="-19.284" y1="-52.653" x2="-198.378" x1="-175.623" style="fill:none;" /><ns0:line y2="-20.103" y1="-19.284" x2="-212.886" x1="-198.378" style="fill:none;" /><ns0:line y2="-16.464" y1="-15.9035" x2="-210.5231" x1="-200.5928" style="fill:none;" /><ns0:line y2="-54.231" y1="-20.103" x2="-203.505" x1="-212.886" style="fill:none;" /><ns0:line y2="88.737" y1="65.754" x2="47.979" x1="67.263" style="fill:none;" /><ns0:line y2="89.4387" y1="69.5517" x2="51.9591" x1="68.6454" style="fill:none;" /><ns0:line y2="70.965" y1="65.754" x2="96.807" x1="67.263" style="fill:none;" /><ns0:line y2="116.928" y1="88.737" x2="58.239" x1="47.979" style="fill:none;" /><ns0:line y2="99.156" y1="70.965" x2="107.067" x1="96.807" style="fill:none;" /><ns0:line y2="98.4541" y1="74.0609" x2="103.087" x1="94.2091" style="fill:none;" /><ns0:line y2="122.136" y1="116.928" x2="87.786" x1="58.239" style="fill:none;" /><ns0:line y2="118.3384" y1="113.8319" x2="86.4035" x1="60.8366" style="fill:none;" /><ns0:line y2="122.136" y1="99.156" x2="87.786" x1="107.067" style="fill:none;" /><ns0:path style="fill:none; stroke-miterlimit:5;" d="M83.416 22.813 L82.983 22.563 L82.55 22.813" /><ns0:path style="fill:none; stroke-miterlimit:5;" d="M108.53 37.313 L108.963 37.563 L109.396 37.313" /><ns0:path style="fill:none; stroke-miterlimit:5;" d="M134.513 22.813 L134.946 22.563 L135.379 22.813" /><ns0:path style="fill:none; stroke-miterlimit:5;" d="M160.493 37.313 L160.926 37.563 L161.359 37.313" /></ns0:g><ns0:g transform="translate(216,126)" style="stroke-linecap:butt; fill:rgb(230,0,0); text-rendering:geometricPrecision; color-rendering:optimizeQuality; image-rendering:optimizeQuality; font-family:'Open Sans'; stroke:rgb(230,0,0); color-interpolation:linearRGB; stroke-miterlimit:5;"><ns0:path style="stroke:none;" d="M190.8435 22.4927 Q190.8435 24.5552 189.8044 25.7349 Q188.7654 26.9146 186.9216 26.9146 Q185.031 26.9146 183.9997 25.7505 Q182.9685 24.5864 182.9685 22.4771 Q182.9685 20.3833 183.9997 19.2349 Q185.031 18.0864 186.9216 18.0864 Q188.781 18.0864 189.8122 19.2583 Q190.8435 20.4302 190.8435 22.4927 ZM184.0154 22.4927 Q184.0154 24.2271 184.7576 25.1333 Q185.4997 26.0396 186.9216 26.0396 Q188.3435 26.0396 189.0701 25.1411 Q189.7966 24.2427 189.7966 22.4927 Q189.7966 20.7583 189.0701 19.8677 Q188.3435 18.9771 186.9216 18.9771 Q185.4997 18.9771 184.7576 19.8755 Q184.0154 20.7739 184.0154 22.4927 Z" /><ns0:path style="stroke:none;" d="M164.8635 67.4927 Q164.8635 69.5552 163.8244 70.7349 Q162.7854 71.9146 160.9416 71.9146 Q159.051 71.9146 158.0198 70.7505 Q156.9885 69.5864 156.9885 67.4771 Q156.9885 65.3833 158.0198 64.2349 Q159.051 63.0864 160.9416 63.0864 Q162.801 63.0864 163.8323 64.2583 Q164.8635 65.4302 164.8635 67.4927 ZM158.0354 67.4927 Q158.0354 69.2271 158.7776 70.1333 Q159.5198 71.0396 160.9416 71.0396 Q162.3635 71.0396 163.0901 70.1411 Q163.8166 69.2427 163.8166 67.4927 Q163.8166 65.7583 163.0901 64.8677 Q162.3635 63.9771 160.9416 63.9771 Q159.5198 63.9771 158.7776 64.8755 Q158.0354 65.7739 158.0354 67.4927 Z" /><ns0:path style="fill:none; stroke:black;" d="M17.9425 60.6936 L18.342 60.393 L18.4656 59.9085" /><ns0:path style="fill:none; stroke:black;" d="M-5.4597 59.4204 L-5.106 59.067 L-4.6588 58.8433" /><ns0:path style="fill:none; stroke:black;" d="M25.4829 -26.1453 L25.524 -25.647 L25.0765 -25.4241" /><ns0:path style="fill:none; stroke:black;" d="M48.862 -24.8019 L48.999 -24.321 L48.8598 -23.8408" /><ns0:path style="fill:none; stroke:black;" d="M24.0705 35.9945 L24.57 35.973 L24.7394 35.5026" /><ns0:path style="fill:none; stroke:black;" d="M-18.5725 88.1724 L-18.972 88.473 L-19.4634 88.3808" /><ns0:path style="fill:none; stroke:black;" d="M-21.059 33.4251 L-20.559 33.42 L-20.301 33.8483" /><ns0:path style="fill:none; stroke:black;" d="M-33.1998 87.6702 L-33.699 87.642 L-34.1931 87.5657" /><ns0:path style="fill:none; stroke:black;" d="M-5.0972 -10.894 L-4.698 -10.593 L-4.2504 -10.8159" /><ns0:path style="fill:none; stroke:black;" d="M21.9681 -68.7477 L21.927 -69.246 L22.4262 -69.2178" /><ns0:path style="fill:none; stroke:black;" d="M40.1022 -8.4298 L40.419 -8.043 L40.6521 -8.4853" /><ns0:path style="fill:none; stroke:black;" d="M36.572 -67.9461 L36.435 -68.427 L36.1164 -68.8124" /><ns0:path style="fill:none; stroke:black;" d="M-5.4165 37.2655 L-5.916 37.287 L-6.3631 37.5108" /><ns0:path style="fill:none; stroke:black;" d="M-52.4951 82.5081 L-52.056 82.269 L-51.9324 81.7845" /><ns0:path style="fill:none; stroke:black;" d="M-65.59 33.8799 L-66.09 33.885 L-66.227 33.4041" /><ns0:path style="fill:none; stroke:black;" d="M-78.4348 81.1083 L-78.042 80.799 L-78.3 80.3707" /><ns0:path style="fill:none; stroke:black;" d="M-40.4668 -37.562 L-40.866 -37.863 L-41.2736 -37.5734" /><ns0:path style="fill:none; stroke:black;" d="M-11.9268 -94.7788 L-11.61 -94.392 L-12.0574 -94.1687" /><ns0:path style="fill:none; stroke:black;" d="M19.0728 -34.1042 L18.756 -34.491 L18.3974 -34.1426" /><ns0:path style="fill:none; stroke:black;" d="M15.8759 -93.1152 L16.275 -92.814 L16.5936 -92.4286" /><ns0:path style="fill:none; stroke:black;" d="M-10.0421 -7.1248 L-9.567 -6.969 L-9.5259 -6.4707" /><ns0:path style="fill:none; stroke:black;" d="M-46.1487 57.1014 L-45.654 57.174 L-45.7776 57.6585" /><ns0:path style="fill:none; stroke:black;" d="M-90.7699 103.3539 L-91.209 103.593 L-91.7082 103.5647" /><ns0:path style="fill:none; stroke:black;" d="M-79.3129 -11.0579 L-78.843 -10.887 L-78.706 -10.4061" /><ns0:path style="fill:none; stroke:black;" d="M-94.4173 54.3832 L-93.921 54.444 L-93.5188 54.1469" /><ns0:path style="fill:none; stroke:black;" d="M-106.4128 102.6181 L-105.933 102.759 L-105.4338 102.7873" /><ns0:path style="fill:none; stroke:black;" d="M-44.6492 -78.3256 L-44.187 -78.135 L-44.1459 -77.6367" /><ns0:path style="fill:none; stroke:black;" d="M-32.7888 -120.8358 L-33.288 -120.864 L-33.7878 -120.8779" /><ns0:path style="fill:none; stroke:black;" d="M6.6936 -75.4236 L7.155 -75.231 L7.3852 -75.6749" /><ns0:path style="fill:none; stroke:black;" d="M-19.4879 -119.8068 L-19.887 -120.108 L-20.3869 -120.1151" /><ns0:path style="fill:none; stroke:black;" d="M-51.6199 -20.7632 L-52.095 -20.919 L-52.4524 -20.5693" /><ns0:path style="fill:none; stroke:black;" d="M-77.6553 52.4766 L-78.15 52.404 L-78.1911 51.9057" /><ns0:path style="fill:none; stroke:black;" d="M-127.8928 90.7919 L-127.404 90.897 L-126.9322 91.0625" /><ns0:path style="fill:none; stroke:black;" d="M-115.9541 -24.3841 L-116.424 -24.555 L-116.4651 -25.0533" /><ns0:path style="fill:none; stroke:black;" d="M-137.8307 49.0628 L-138.327 49.002 L-138.7682 49.2373" /><ns0:path style="fill:none; stroke:black;" d="M-150.3723 89.7119 L-150.852 89.571 L-151.3013 89.3516" /><ns0:path style="fill:none; stroke:black;" d="M-85.3438 -95.1074 L-85.806 -95.298 L-86.1846 -94.9714" /><ns0:path style="fill:none; stroke:black;" d="M-79.438 -121.9893 L-78.96 -122.136 L-78.4602 -122.1221" /><ns0:path style="fill:none; stroke:black;" d="M-33.4266 -92.1684 L-33.888 -92.361 L-34.1461 -92.7893" /><ns0:path style="fill:none; stroke:black;" d="M-51.3625 -120.4544 L-50.871 -120.546 L-50.3711 -120.5389" /><ns0:path style="fill:none; stroke:black;" d="M-64.4929 -62.9464 L-64.02 -62.784 L-63.883 -62.3031" /><ns0:path style="fill:none; stroke:black;" d="M-82.2839 8.0183 L-81.801 8.148 L-81.4436 7.7983" /><ns0:path style="fill:none; stroke:black;" d="M-121.5037 66.102 L-121.173 66.477 L-120.6978 66.3215" /><ns0:path style="fill:none; stroke:black;" d="M-164.771 82.5611 L-164.439 82.935 L-163.9897 83.1544" /><ns0:path style="fill:none; stroke:black;" d="M-120.3065 -66.1176 L-119.838 -65.943 L-119.7969 -65.4447" /><ns0:path style="fill:none; stroke:black;" d="M-151.5523 4.0749 L-151.077 4.23 L-150.6924 3.9105" /><ns0:path style="fill:none; stroke:black;" d="M-166.047 64.3523 L-166.305 63.924 L-165.8638 63.6887" /><ns0:path style="fill:none; stroke:black;" d="M-107.279 -113.4417 L-107.757 -113.295 L-107.2578 -113.2667" /><ns0:path style="fill:none; stroke:black;" d="M-93.4955 -112.6066 L-93.987 -112.515 L-94.4862 -112.5433" /><ns0:path style="fill:none; stroke:black;" d="M-105.6521 -77.0816 L-106.125 -77.244 L-106.383 -77.6723" /><ns0:path style="fill:none; stroke:black;" d="M-126.5041 -3.8603 L-126.987 -3.99 L-127.124 -4.4709" /><ns0:path style="fill:none; stroke:black;" d="M-151.1452 32.496 L-151.476 32.121 L-151.9651 32.0171" /><ns0:path style="fill:none; stroke:black;" d="M-192.819 50.8357 L-192.561 51.264 L-192.229 51.6379" /><ns0:path style="fill:none; stroke:black;" d="M-157.5715 -80.0064 L-158.04 -80.181 L-158.3899 -79.8238" /><ns0:path style="fill:none; stroke:black;" d="M-186.1337 -7.2069 L-186.609 -7.362 L-186.7395 -6.8793" /><ns0:path style="fill:none; stroke:black;" d="M-197.0441 29.3523 L-196.593 29.568 L-196.2623 29.9431" /><ns0:path style="fill:none; stroke:black;" d="M-151.626 -106.7623 L-151.197 -107.019 L-150.7021 -107.0905" /><ns0:path style="fill:none; stroke:black;" d="M-123.5766 -105.2546 L-123.108 -105.429 L-122.6222 -105.5472" /><ns0:path style="fill:none; stroke:black;" d="M-139.0799 -44.8316 L-138.591 -44.727 L-138.2377 -45.0808" /><ns0:path style="fill:none; stroke:black;" d="M-185.9406 25.3095 L-185.817 24.825 L-185.3279 24.9289" /><ns0:path style="fill:none; stroke:black;" d="M-209.3331 22.9977 L-209.292 23.496 L-209.034 23.9243" /><ns0:path style="fill:none; stroke:black;" d="M-190.3797 -47.8496 L-189.93 -47.631 L-189.5801 -47.9882" /><ns0:path style="fill:none; stroke:black;" d="M-178.602 -90.6197 L-179.031 -90.363 L-179.3114 -89.949" /><ns0:path style="fill:none; stroke:black;" d="M-165.1614 -89.7784 L-165.63 -89.604 L-166.1292 -89.6323" /><ns0:path style="fill:none; stroke:black;" d="M-175.1341 -52.5484 L-175.623 -52.653 L-175.4925 -53.1357" /><ns0:path style="fill:none; stroke:black;" d="M-198.8772 -19.3122 L-198.378 -19.284 L-198.241 -18.8031" /><ns0:path style="fill:none; stroke:black;" d="M-212.7535 -20.5851 L-212.886 -20.103 L-212.8449 -19.6047" /><ns0:path style="fill:none; stroke:black;" d="M-203.6375 -53.7489 L-203.505 -54.231 L-203.2246 -54.645" /><ns0:path style="fill:none; stroke:black;" d="M66.9416 66.137 L67.263 65.754 L67.092 65.2842" /><ns0:path style="fill:none; stroke:black;" d="M48.3004 88.354 L47.979 88.737 L48.15 89.2068" /><ns0:path style="fill:none; stroke:black;" d="M96.3146 70.8781 L96.807 70.965 L96.978 71.4348" /><ns0:path style="fill:none; stroke:black;" d="M58.068 116.4582 L58.239 116.928 L58.7314 117.0148" /><ns0:path style="fill:none; stroke:black;" d="M106.896 98.6862 L107.067 99.156 L106.7456 99.539" /><ns0:path style="fill:none; stroke:black;" d="M87.2936 122.0492 L87.786 122.136 L88.1074 121.753" /></ns0:g></ns0:g></ns0:svg></ns0:svg></ns0:svg></ns0:svg></g></svg>