<svg xmlns:ns0="http://www.w3.org/2000/svg" xmlns="http://www.w3.org/2000/svg"><g transform="translate(0, 0)"><ns0:svg width="484" viewBox="0 0 484 131" style="fill-opacity:1; color-rendering:auto; color-interpolation:auto; text-rendering:auto; stroke:black; stroke-linecap:square; stroke-miterlimit:10; shape-rendering:auto; stroke-opacity:1; fill:black; stroke-dasharray:none; font-weight:normal; stroke-width:1; font-family:'Open Sans'; font-style:normal; stroke-linejoin:miter; font-size:12; stroke-dashoffset:0; image-rendering:auto;" height="131" class="cas-substance-image"><ns0:svg class="cas-substance-single-component"><ns0:rect y="0" x="0" width="484" stroke="none" ry="7" rx="7" height="131" fill="white" class="cas-substance-group" /><ns0:svg y="0" x="0" width="484" viewBox="0 0 484 131" style="fill:black;" height="131" class="cas-substance-single-component-image"><ns0:svg><ns0:g><ns0:g transform="translate(248,65)" style="text-rendering:geometricPrecision; color-rendering:optimizeQuality; color-interpolation:linearRGB; stroke-linecap:butt; image-rendering:optimizeQuality;"><ns0:line y2="29.094" y1="52.077" x2="-154.722" x1="-135.438" style="fill:none;" /><ns0:line y2="-32.496" y1="-17.496" x2="-52.695" x1="-78.675" style="fill:none;" /><ns0:path style="stroke:none;" d="M-104.905 -32.063 L-104.405 -32.929 L-75.4251 -18.7951 L-81.4249 -15.3309 Z" /><ns0:line y2="-17.496" y1="-32.496" x2="-26.715" x1="-52.695" style="fill:none;" /><ns0:line y2="-32.496" y1="-17.496" x2="-0.732" x1="-26.715" style="fill:none;" /><ns0:line y2="-34.5169" y1="-21.5375" x2="-4.2319" x1="-26.7148" style="fill:none;" /></ns0:g><ns0:g transform="translate(248,65)" style="stroke-linecap:butt; font-size:8.4px; fill:gray; text-rendering:geometricPrecision; image-rendering:optimizeQuality; color-rendering:optimizeQuality; font-family:'Open Sans'; font-style:italic; stroke:gray; color-interpolation:linearRGB;"><ns0:path style="stroke:none;" d="M-12.8712 -15.1715 Q-12.8712 -16.4996 -12.4024 -17.6246 Q-11.9337 -18.7496 -10.9024 -19.8277 L-10.2931 -19.8277 Q-11.2618 -18.7652 -11.7462 -17.5934 Q-12.2306 -16.4215 -12.2306 -15.1871 Q-12.2306 -13.859 -11.7931 -12.8434 L-12.3087 -12.8434 Q-12.8712 -13.8746 -12.8712 -15.1715 ZM-7.608 -14.109 L-10.4674 -14.109 L-9.2643 -19.8277 L-6.3893 -19.8277 L-6.5143 -19.2184 L-8.733 -19.2184 L-9.108 -17.3902 L-7.0611 -17.3902 L-7.1705 -16.7965 L-9.233 -16.7965 L-9.6861 -14.7027 L-7.4674 -14.7027 L-7.608 -14.109 ZM-4.5765 -17.484 Q-4.5765 -16.1559 -5.053 -15.0231 Q-5.5296 -13.8902 -6.5452 -12.8434 L-7.1546 -12.8434 Q-5.2171 -14.9996 -5.2171 -17.484 Q-5.2171 -18.8121 -5.6546 -19.8277 L-5.139 -19.8277 Q-4.5765 -18.7652 -4.5765 -17.484 Z" /><ns0:line y2="-17.496" y1="-32.496" x2="25.248" x1="-0.732" style="fill:none; stroke:black;" /><ns0:line y2="-62.496" y1="-32.496" x2="-0.732" x1="-0.732" style="fill:none; stroke:black;" /><ns0:line y2="-32.496" y1="-17.496" x2="51.228" x1="25.248" style="fill:none; stroke:black;" /><ns0:line y2="-17.496" y1="-32.496" x2="77.208" x1="51.228" style="fill:none; stroke:black;" /><ns0:line y2="-32.496" y1="-17.496" x2="103.191" x1="77.208" style="fill:none; stroke:black;" /><ns0:line y2="-34.5169" y1="-21.5375" x2="99.6911" x1="77.2082" style="fill:none; stroke:black;" /><ns0:path style="stroke:none;" d="M91.0518 -15.1715 Q91.0518 -16.4996 91.5206 -17.6246 Q91.9893 -18.7496 93.0206 -19.8277 L93.6299 -19.8277 Q92.6612 -18.7652 92.1768 -17.5934 Q91.6924 -16.4215 91.6924 -15.1871 Q91.6924 -13.859 92.1299 -12.8434 L91.6143 -12.8434 Q91.0518 -13.8746 91.0518 -15.1715 ZM96.315 -14.109 L93.4556 -14.109 L94.6587 -19.8277 L97.5337 -19.8277 L97.4087 -19.2184 L95.19 -19.2184 L94.815 -17.3902 L96.8619 -17.3902 L96.7525 -16.7965 L94.69 -16.7965 L94.2369 -14.7027 L96.4556 -14.7027 L96.315 -14.109 ZM99.3465 -17.484 Q99.3465 -16.1559 98.87 -15.0231 Q98.3934 -13.8902 97.3778 -12.8434 L96.7684 -12.8434 Q98.7059 -14.9996 98.7059 -17.484 Q98.7059 -18.8121 98.2684 -19.8277 L98.784 -19.8277 Q99.3465 -18.7652 99.3465 -17.484 Z" /><ns0:line y2="-17.496" y1="-32.496" x2="129.171" x1="103.191" style="fill:none; stroke:black;" /><ns0:line y2="-62.496" y1="-32.496" x2="103.191" x1="103.191" style="fill:none; stroke:black;" /><ns0:line y2="-32.496" y1="-17.496" x2="155.151" x1="129.171" style="fill:none; stroke:black;" /><ns0:line y2="-17.496" y1="-32.496" x2="181.131" x1="155.151" style="fill:none; stroke:black;" /><ns0:line y2="-32.496" y1="-17.496" x2="207.114" x1="181.131" style="fill:none; stroke:black;" /><ns0:line y2="-34.5169" y1="-21.5374" x2="203.6141" x1="181.1311" style="fill:none; stroke:black;" /><ns0:line y2="-17.496" y1="-32.496" x2="233.094" x1="207.114" style="fill:none; stroke:black;" /><ns0:line y2="-62.496" y1="-32.496" x2="207.114" x1="207.114" style="fill:none; stroke:black;" /><ns0:path style="fill:black; stroke:none;" d="M-88.2487 -56.5881 L-88.8277 -55.7683 L-88.8277 -55.7683 L-84.4856 -52.1262 L-84.4856 -52.1262 L-83.7789 -52.8388 L-88.2487 -56.5881 ZM-89.9856 -54.1289 L-90.5646 -53.3092 L-90.5646 -53.3092 L-86.6057 -49.9884 L-85.899 -50.701 L-89.9856 -54.1289 ZM-91.7225 -51.6698 L-92.3015 -50.85 L-92.3015 -50.85 L-88.7257 -47.8506 L-88.7257 -47.8506 L-88.019 -48.5632 L-91.7225 -51.6698 ZM-93.4594 -49.2106 L-94.0384 -48.3909 L-94.0384 -48.3909 L-90.8458 -45.7129 L-90.1391 -46.4255 L-90.1391 -46.4255 L-93.4594 -49.2106 ZM-95.1964 -46.7514 L-95.7753 -45.9317 L-95.7753 -45.9317 L-92.9659 -43.5751 L-92.2592 -44.2877 L-95.1964 -46.7514 ZM-96.9333 -44.2923 L-97.5122 -43.4726 L-95.0859 -41.4373 L-94.3792 -42.1499 L-96.9333 -44.2923 ZM-98.6702 -41.8331 L-99.2492 -41.0134 L-97.206 -39.2996 L-96.4993 -40.0122 L-98.6702 -41.8331 ZM-100.4071 -39.374 L-100.9861 -38.5542 L-100.9861 -38.5542 L-99.3261 -37.1618 L-98.6194 -37.8744 L-100.4071 -39.374 ZM-102.144 -36.9148 L-102.723 -36.0951 L-101.4461 -35.0241 L-100.7394 -35.7366 L-100.7394 -35.7366 L-102.144 -36.9148 ZM-103.8809 -34.4557 L-104.4599 -33.6359 L-104.4599 -33.6359 L-103.5662 -32.8863 L-103.5662 -32.8863 L-102.8595 -33.5989 L-103.8809 -34.4557 Z" /><ns0:line y2="34.305" y1="62.496" x2="-184.266" x1="-194.526" style="fill:none; stroke:black;" /><ns0:line y2="11.325" y1="15.4917" x2="-203.55" x1="-227.1869" style="fill:none; stroke:black;" /><ns0:line y2="-22.077" y1="0.906" x2="-163.746" x1="-144.462" style="fill:none; stroke:black;" /><ns0:line y2="-3.2631" y1="0.906" x2="-120.8251" x1="-144.462" style="fill:none; stroke:black;" /><ns0:line y2="29.094" y1="0.906" x2="-154.722" x1="-144.462" style="fill:none; stroke:black;" /><ns0:line y2="25.998" y1="1.6077" x2="-157.3198" x1="-148.4421" style="fill:none; stroke:black;" /><ns0:line y2="-50.268" y1="-22.077" x2="-153.483" x1="-163.746" style="fill:none; stroke:black;" /><ns0:line y2="-16.866" y1="-22.077" x2="-193.29" x1="-163.746" style="fill:none; stroke:black;" /><ns0:line y2="-13.7702" y1="-18.2792" x2="-190.692" x1="-165.1281" style="fill:none; stroke:black;" /><ns0:line y2="-32.496" y1="-10.6609" x2="-104.655" x1="-112.6041" style="fill:none; stroke:black;" /><ns0:line y2="34.305" y1="29.094" x2="-184.266" x1="-154.722" style="fill:none; stroke:black;" /><ns0:line y2="-55.476" y1="-50.268" x2="-123.939" x1="-153.483" style="fill:none; stroke:black;" /><ns0:line y2="11.325" y1="-16.866" x2="-203.55" x1="-193.29" style="fill:none; stroke:black;" /><ns0:line y2="-55.476" y1="-32.496" x2="-123.939" x1="-104.655" style="fill:none; stroke:black;" /><ns0:line y2="11.325" y1="34.305" x2="-203.55" x1="-184.266" style="fill:none; stroke:black;" /><ns0:line y2="10.6231" y1="30.5072" x2="-199.57" x1="-182.8839" style="fill:none; stroke:black;" /><ns0:path style="fill:none; stroke-miterlimit:5; stroke:black;" d="M-53.128 -32.246 L-52.695 -32.496 L-52.262 -32.246" /><ns0:path style="fill:none; stroke-miterlimit:5; stroke:black;" d="M-27.148 -17.746 L-26.715 -17.496 L-26.282 -17.746" /><ns0:path style="fill:none; stroke-miterlimit:5; stroke:black;" d="M-1.165 -32.246 L-0.732 -32.496 L-0.732 -32.996" /><ns0:path style="fill:none; stroke-miterlimit:5; stroke:black;" d="M24.815 -17.746 L25.248 -17.496 L25.681 -17.746" /><ns0:path style="fill:none; stroke-miterlimit:5; stroke:black;" d="M50.795 -32.246 L51.228 -32.496 L51.661 -32.246" /><ns0:path style="fill:none; stroke-miterlimit:5; stroke:black;" d="M76.775 -17.746 L77.208 -17.496 L77.641 -17.746" /><ns0:path style="fill:none; stroke-miterlimit:5; stroke:black;" d="M102.758 -32.246 L103.191 -32.496 L103.191 -32.996" /><ns0:path style="fill:none; stroke-miterlimit:5; stroke:black;" d="M128.738 -17.746 L129.171 -17.496 L129.604 -17.746" /><ns0:path style="fill:none; stroke-miterlimit:5; stroke:black;" d="M154.718 -32.246 L155.151 -32.496 L155.584 -32.246" /><ns0:path style="fill:none; stroke-miterlimit:5; stroke:black;" d="M180.698 -17.746 L181.131 -17.496 L181.564 -17.746" /><ns0:path style="fill:none; stroke-miterlimit:5; stroke:black;" d="M206.681 -32.246 L207.114 -32.496 L207.547 -32.246" /></ns0:g><ns0:g transform="translate(248,65)" style="stroke-linecap:butt; fill:rgb(230,0,0); text-rendering:geometricPrecision; color-rendering:optimizeQuality; image-rendering:optimizeQuality; font-family:'Open Sans'; stroke:rgb(230,0,0); color-interpolation:linearRGB; stroke-miterlimit:5;"><ns0:path style="stroke:none;" d="M-229.1565 16.4627 Q-229.1565 18.5252 -230.1956 19.7049 Q-231.2346 20.8846 -233.0784 20.8846 Q-234.969 20.8846 -236.0003 19.7205 Q-237.0315 18.5564 -237.0315 16.4471 Q-237.0315 14.3533 -236.0003 13.2049 Q-234.969 12.0564 -233.0784 12.0564 Q-231.219 12.0564 -230.1878 13.2283 Q-229.1565 14.4002 -229.1565 16.4627 ZM-235.9846 16.4627 Q-235.9846 18.1971 -235.2424 19.1033 Q-234.5003 20.0096 -233.0784 20.0096 Q-231.6565 20.0096 -230.9299 19.1111 Q-230.2034 18.2127 -230.2034 16.4627 Q-230.2034 14.7283 -230.9299 13.8377 Q-231.6565 12.9471 -233.0784 12.9471 Q-234.5003 12.9471 -235.2424 13.8455 Q-235.9846 14.7439 -235.9846 16.4627 Z" /><ns0:path style="stroke:none;" d="M-238.0315 20.7596 L-239.0315 20.7596 L-239.0315 16.7283 L-243.5471 16.7283 L-243.5471 20.7596 L-244.5471 20.7596 L-244.5471 12.1971 L-243.5471 12.1971 L-243.5471 15.8377 L-239.0315 15.8377 L-239.0315 12.1971 L-238.0315 12.1971 L-238.0315 20.7596 Z" /><ns0:path style="fill:none; stroke:black;" d="M-144.633 1.3758 L-144.462 0.906 L-144.7834 0.523" /><ns0:path style="fill:none; stroke:black;" d="M-164.2384 -21.9902 L-163.746 -22.077 L-163.4246 -21.694" /><ns0:path style="stroke:none;" d="M-110.9805 -4.3753 Q-110.9805 -2.3128 -112.0196 -1.1331 Q-113.0586 0.0466 -114.9024 0.0466 Q-116.793 0.0466 -117.8242 -1.1175 Q-118.8555 -2.2816 -118.8555 -4.3909 Q-118.8555 -6.4847 -117.8242 -7.6331 Q-116.793 -8.7816 -114.9024 -8.7816 Q-113.043 -8.7816 -112.0117 -7.6097 Q-110.9805 -6.4378 -110.9805 -4.3753 ZM-117.8086 -4.3753 Q-117.8086 -2.6409 -117.0664 -1.7347 Q-116.3242 -0.8284 -114.9024 -0.8284 Q-113.4805 -0.8284 -112.7539 -1.7269 Q-112.0274 -2.6253 -112.0274 -4.3753 Q-112.0274 -6.1097 -112.7539 -7.0003 Q-113.4805 -7.8909 -114.9024 -7.8909 Q-116.3242 -7.8909 -117.0664 -6.9925 Q-117.8086 -6.0941 -117.8086 -4.3753 Z" /><ns0:path style="fill:none; stroke:black;" d="M-154.551 28.6242 L-154.722 29.094 L-154.4006 29.477" /><ns0:path style="fill:none; stroke:black;" d="M-153.6541 -49.7982 L-153.483 -50.268 L-152.9906 -50.3548" /><ns0:path style="fill:none; stroke:black;" d="M-192.7976 -16.9529 L-193.29 -16.866 L-193.461 -16.3962" /></ns0:g><ns0:g transform="translate(248,65)" style="stroke-linecap:butt; font-size:8.4px; fill:gray; text-rendering:geometricPrecision; image-rendering:optimizeQuality; color-rendering:optimizeQuality; font-family:'Open Sans'; font-style:italic; stroke:gray; color-interpolation:linearRGB; stroke-miterlimit:5;"><ns0:path style="stroke:none;" d="M-118.8918 -29.5956 Q-118.8918 -30.9237 -118.423 -32.0488 Q-117.9543 -33.1738 -116.923 -34.2519 L-116.3136 -34.2519 Q-117.2824 -33.1894 -117.7668 -32.0175 Q-118.2511 -30.8456 -118.2511 -29.6112 Q-118.2511 -28.2831 -117.8136 -27.2675 L-118.3293 -27.2675 Q-118.8918 -28.2987 -118.8918 -29.5956 ZM-115.3317 -30.9081 L-115.8317 -28.5331 L-116.4879 -28.5331 L-115.2848 -34.2519 L-114.0348 -34.2519 Q-112.3004 -34.2519 -112.3004 -32.8144 Q-112.3004 -31.455 -113.7379 -31.0644 L-112.8004 -28.5331 L-113.5192 -28.5331 L-114.3473 -30.9081 L-115.3317 -30.9081 ZM-114.7536 -33.6581 Q-115.1442 -31.7362 -115.2067 -31.4862 L-114.5504 -31.4862 Q-113.8004 -31.4862 -113.3942 -31.8144 Q-112.9879 -32.1425 -112.9879 -32.7675 Q-112.9879 -33.2363 -113.2458 -33.4472 Q-113.5036 -33.6581 -114.0973 -33.6581 L-114.7536 -33.6581 ZM-110.1145 -31.9081 Q-110.1145 -30.58 -110.591 -29.4472 Q-111.0676 -28.3144 -112.0832 -27.2675 L-112.6926 -27.2675 Q-110.7551 -29.4237 -110.7551 -31.9081 Q-110.7551 -33.2363 -111.1926 -34.2519 L-110.677 -34.2519 Q-110.1145 -33.1894 -110.1145 -31.9081 Z" /><ns0:path style="fill:none; stroke:black;" d="M-184.5874 33.922 L-184.266 34.305 L-184.437 34.7748" /><ns0:path style="fill:none; stroke:black;" d="M-124.4314 -55.3892 L-123.939 -55.476 L-123.6176 -55.093" /><ns0:path style="fill:none; stroke:black;" d="M-203.2286 11.708 L-203.55 11.325 L-203.379 10.8552" /></ns0:g></ns0:g></ns0:svg></ns0:svg></ns0:svg></ns0:svg></g></svg>