<svg xmlns:ns0="http://www.w3.org/2000/svg" xmlns="http://www.w3.org/2000/svg"><g transform="translate(0, 0)"><ns0:svg width="154" viewBox="0 0 154 104" style="fill-opacity:1; color-rendering:auto; color-interpolation:auto; text-rendering:auto; stroke:black; stroke-linecap:square; stroke-miterlimit:10; shape-rendering:auto; stroke-opacity:1; fill:black; stroke-dasharray:none; font-weight:normal; stroke-width:1; font-family:'Open Sans'; font-style:normal; stroke-linejoin:miter; font-size:12; stroke-dashoffset:0; image-rendering:auto;" height="104" class="cas-substance-image"><ns0:svg class="cas-substance-single-component"><ns0:rect y="0" x="0" width="154" stroke="none" ry="7" rx="7" height="104" fill="white" class="cas-substance-group" /><ns0:svg y="0" x="0" width="154" viewBox="0 0 154 89" style="fill:black;" height="89" class="cas-substance-single-component-image"><ns0:svg><ns0:g><ns0:g transform="translate(82,42)" style="text-rendering:geometricPrecision; color-rendering:optimizeQuality; color-interpolation:linearRGB; stroke-linecap:butt; image-rendering:optimizeQuality;"><ns0:line y2="12.99" y1="32.6188" x2="23.082" x1="11.749" style="fill:none;" /><ns0:line y2="-37.26" y1="-12.99" x2="-39.552" x1="-21.918" style="fill:none;" /><ns0:line y2="11.28" y1="-12.99" x2="-39.552" x1="-21.918" style="fill:none;" /><ns0:line y2="-12.99" y1="-12.99" x2="8.082" x1="-21.918" style="fill:none;" /><ns0:line y2="-27.99" y1="-37.26" x2="-68.082" x1="-39.552" style="fill:none;" /><ns0:line y2="3.717" y1="11.28" x2="-62.8283" x1="-39.552" style="fill:none;" /><ns0:line y2="-4.3963" y1="-27.99" x2="-68.082" x1="-68.082" style="fill:none;" /><ns0:line y2="12.99" y1="-12.99" x2="23.082" x1="8.082" style="fill:none;" /><ns0:line y2="9.49" y1="-12.9901" x2="25.1027" x1="12.1235" style="fill:none;" /><ns0:line y2="-38.97" y1="-12.99" x2="23.082" x1="8.082" style="fill:none;" /><ns0:line y2="12.99" y1="12.99" x2="53.082" x1="23.082" style="fill:none;" /><ns0:line y2="-38.97" y1="-38.97" x2="53.082" x1="23.082" style="fill:none;" /><ns0:line y2="-35.47" y1="-35.47" x2="51.0613" x1="25.1027" style="fill:none;" /><ns0:line y2="-12.99" y1="12.99" x2="68.082" x1="53.082" style="fill:none;" /><ns0:line y2="-12.9901" y1="9.49" x2="64.0405" x1="51.0613" style="fill:none;" /><ns0:line y2="-12.99" y1="-38.97" x2="68.082" x1="53.082" style="fill:none;" /></ns0:g><ns0:g transform="translate(82,42)" style="fill:rgb(0,138,0); text-rendering:geometricPrecision; color-rendering:optimizeQuality; image-rendering:optimizeQuality; font-family:'Open Sans'; stroke:rgb(0,138,0); color-interpolation:linearRGB;"><ns0:path style="stroke:none;" d="M7.7734 35.6106 Q6.3672 35.6106 5.5468 36.5481 Q4.7265 37.4856 4.7265 39.1263 Q4.7265 40.7981 5.5156 41.72 Q6.3047 42.6419 7.7578 42.6419 Q8.664 42.6419 9.8047 42.3138 L9.8047 43.1888 Q8.914 43.5325 7.6172 43.5325 Q5.7265 43.5325 4.6953 42.3763 Q3.664 41.22 3.664 39.1106 Q3.664 37.7825 4.1562 36.7903 Q4.6484 35.7981 5.5859 35.2591 Q6.5234 34.72 7.789 34.72 Q9.1328 34.72 10.1484 35.2044 L9.7265 36.0638 Q8.7422 35.6106 7.7734 35.6106 ZM12.5 43.4075 L11.5312 43.4075 L11.5312 34.2825 L12.5 34.2825 L12.5 43.4075 Z" /></ns0:g><ns0:g transform="translate(82,42)" style="stroke-linecap:butt; text-rendering:geometricPrecision; color-rendering:optimizeQuality; image-rendering:optimizeQuality; font-family:'Open Sans'; color-interpolation:linearRGB; stroke-miterlimit:5;"><ns0:path style="fill:none;" d="M-39.2581 -36.8555 L-39.552 -37.26 L-40.0275 -37.1055" /><ns0:path style="fill:none;" d="M-39.2581 10.8755 L-39.552 11.28 L-40.0275 11.1255" /><ns0:path style="fill:none;" d="M-67.6065 -28.1445 L-68.082 -27.99 L-68.082 -27.49" /><ns0:path style="fill:rgb(0,5,255); stroke:none;" d="M-64.7304 6.1663 L-65.8711 6.1663 L-70.5586 -1.0212 L-70.6054 -1.0212 Q-70.5117 0.2444 -70.5117 1.2913 L-70.5117 6.1663 L-71.4336 6.1663 L-71.4336 -2.3962 L-70.3086 -2.3962 L-65.6367 4.76 L-65.5898 4.76 Q-65.5898 4.6038 -65.6367 3.7444 Q-65.6836 2.885 -65.6679 2.51 L-65.6679 -2.3962 L-64.7304 -2.3962 L-64.7304 6.1663 Z" /><ns0:path style="fill:rgb(0,5,255); stroke:none;" d="M-72.4336 6.1663 L-73.4336 6.1663 L-73.4336 2.135 L-77.9492 2.135 L-77.9492 6.1663 L-78.9492 6.1663 L-78.9492 -2.3962 L-77.9492 -2.3962 L-77.9492 1.2444 L-73.4336 1.2444 L-73.4336 -2.3962 L-72.4336 -2.3962 L-72.4336 6.1663 Z" /><ns0:path style="fill:none;" d="M8.332 -12.557 L8.082 -12.99 L7.582 -12.99" /><ns0:path style="fill:none;" d="M22.832 12.557 L23.082 12.99 L22.832 13.423" /><ns0:path style="fill:none;" d="M22.832 -38.537 L23.082 -38.97 L23.582 -38.97" /><ns0:path style="fill:none;" d="M52.582 12.99 L53.082 12.99 L53.332 12.557" /><ns0:path style="fill:none;" d="M52.582 -38.97 L53.082 -38.97 L53.332 -38.537" /><ns0:path style="fill:none;" d="M67.832 -12.557 L68.082 -12.99 L67.832 -13.423" /></ns0:g></ns0:g></ns0:svg></ns0:svg><ns0:svg y="89" x="69" class="cas-substance-saf"><ns0:svg y="5" x="0" width="4" style="fill:black;" height="4" class="cas-substance-saf-dot"><ns0:circle stroke="none" r="2" fill="black" cy="2" cx="2" /></ns0:svg><ns0:svg y="0" x="8" width="22" style="fill:black;" height="15" class="cas-substance-saf-image"><ns0:svg><ns0:g><ns0:g transform="translate(6,8)" style="fill:rgb(0,138,0); text-rendering:geometricPrecision; color-rendering:optimizeQuality; image-rendering:optimizeQuality; font-family:'Open Sans'; stroke:rgb(0,138,0); color-interpolation:linearRGB;"><ns0:path style="stroke:none;" d="M3.2578 4.1562 L2.2578 4.1562 L2.2578 0.125 L-2.2578 0.125 L-2.2578 4.1562 L-3.2578 4.1562 L-3.2578 -4.4062 L-2.2578 -4.4062 L-2.2578 -0.7656 L2.2578 -0.7656 L2.2578 -4.4062 L3.2578 -4.4062 L3.2578 4.1562 Z" /><ns0:path style="stroke:none;" d="M8.3672 -3.6406 Q6.9609 -3.6406 6.1406 -2.7031 Q5.3203 -1.7656 5.3203 -0.125 Q5.3203 1.5469 6.1094 2.4688 Q6.8984 3.3906 8.3516 3.3906 Q9.2578 3.3906 10.3984 3.0625 L10.3984 3.9375 Q9.5078 4.2812 8.2109 4.2812 Q6.3203 4.2812 5.2891 3.125 Q4.2578 1.9688 4.2578 -0.1406 Q4.2578 -1.4688 4.75 -2.4609 Q5.2422 -3.4531 6.1797 -3.9922 Q7.1172 -4.5312 8.3828 -4.5312 Q9.7266 -4.5312 10.7422 -4.0469 L10.3203 -3.1875 Q9.3359 -3.6406 8.3672 -3.6406 ZM13.0938 4.1562 L12.125 4.1562 L12.125 -4.9688 L13.0938 -4.9688 L13.0938 4.1562 Z" /></ns0:g></ns0:g></ns0:svg></ns0:svg></ns0:svg></ns0:svg></ns0:svg></g></svg>