<svg width="208" viewBox="0 0 208 181" style="fill-opacity:1; color-rendering:auto; color-interpolation:auto; text-rendering:auto; stroke:black; stroke-linecap:square; stroke-miterlimit:10; shape-rendering:auto; stroke-opacity:1; fill:black; stroke-dasharray:none; font-weight:normal; stroke-width:1; font-family:'Open Sans'; font-style:normal; stroke-linejoin:miter; font-size:12; stroke-dashoffset:0; image-rendering:auto;" height="181" class="cas-substance-image" xmlns:xlink="http://www.w3.org/1999/xlink" xmlns="http://www.w3.org/2000/svg"><svg class="cas-substance-single-component"><rect y="0" x="0" width="208" stroke="none" ry="7" rx="7" height="181" fill="white" class="cas-substance-group"/><svg y="0" x="0" width="208" viewBox="0 0 208 181" style="fill:black;" height="181" class="cas-substance-single-component-image"><svg><g><g transform="translate(104,91)" style="text-rendering:geometricPrecision; color-rendering:optimizeQuality; color-interpolation:linearRGB; stroke-linecap:butt; image-rendering:optimizeQuality;"><line y2="-52.3051" y1="-76.9749" x2="21.0163" x1="21.6209" style="fill:none;"/><line y2="-52.219" y1="-76.8892" x2="24.5152" x1="25.1198" style="fill:none;"/><line y2="-35.499" y1="-51.381" x2="100.449" x1="75" style="fill:none;"/><line y2="-37.281" y1="-51.381" x2="48.519" x1="75" style="fill:none;"/><line y2="-35.1414" y1="-47.3419" x2="51.9476" x1="74.8613" style="fill:none;"/></g><g transform="translate(104,91)" style="stroke-linecap:butt; font-size:8.4px; fill:gray; text-rendering:geometricPrecision; image-rendering:optimizeQuality; color-rendering:optimizeQuality; font-family:'Open Sans'; font-style:italic; stroke:gray; color-interpolation:linearRGB;"><path style="stroke:none;" d="M52.9123 -51.9937 Q52.9123 -53.3218 53.381 -54.4468 Q53.8498 -55.5718 54.881 -56.6499 L55.4904 -56.6499 Q54.5216 -55.5874 54.0373 -54.4156 Q53.5529 -53.2437 53.5529 -52.0093 Q53.5529 -50.6812 53.9904 -49.6656 L53.4748 -49.6656 Q52.9123 -50.6968 52.9123 -51.9937 ZM58.1755 -50.9312 L55.3161 -50.9312 L56.5192 -56.6499 L59.3942 -56.6499 L59.2692 -56.0406 L57.0505 -56.0406 L56.6755 -54.2124 L58.7223 -54.2124 L58.613 -53.6187 L56.5505 -53.6187 L56.0973 -51.5249 L58.3161 -51.5249 L58.1755 -50.9312 ZM61.207 -54.3062 Q61.207 -52.9781 60.7304 -51.8452 Q60.2539 -50.7124 59.2383 -49.6656 L58.6289 -49.6656 Q60.5664 -51.8218 60.5664 -54.3062 Q60.5664 -55.6343 60.1289 -56.6499 L60.6445 -56.6499 Q61.207 -55.5874 61.207 -54.3062 Z"/><line y2="52.2281" y1="76.7476" x2="-2.0628" x1="-1.2213" style="fill:none; stroke:black;"/><line y2="52.3484" y1="76.8676" x2="-5.5607" x1="-4.7192" style="fill:none; stroke:black;"/><line y2="68.9984" y1="65.403" x2="56.206" x1="32.46" style="fill:none; stroke:black;"/><path style="fill:black; stroke:none;" d="M22.4201 38.1907 L21.3329 38.6158 L21.3329 38.6158 L21.6154 39.5794 L22.8583 39.0933 L22.8583 39.0933 L22.4201 38.1907 ZM23.7349 40.8986 L22.1804 41.5064 L22.463 42.47 L22.463 42.47 L24.1732 41.8012 L24.1732 41.8012 L23.7349 40.8986 ZM25.0498 43.6065 L23.028 44.3971 L23.028 44.3971 L23.3105 45.3606 L23.3105 45.3606 L25.488 44.5091 L25.488 44.5091 L25.0498 43.6065 ZM26.3646 46.3143 L23.8755 47.2877 L23.8755 47.2877 L24.158 48.2512 L24.158 48.2512 L26.8029 47.217 L26.8029 47.217 L26.3646 46.3143 ZM27.6795 49.0222 L24.723 50.1783 L24.723 50.1783 L25.0055 51.1418 L25.0055 51.1418 L28.1177 49.9248 L28.1177 49.9248 L27.6795 49.0222 ZM28.9943 51.7301 L25.5705 53.0689 L25.5705 53.0689 L25.853 54.0325 L25.853 54.0325 L29.4326 52.6327 L29.4326 52.6327 L28.9943 51.7301 ZM30.3092 54.438 L26.418 55.9596 L26.418 55.9596 L26.7006 56.9231 L26.7006 56.9231 L30.7475 55.3406 L30.7475 55.3406 L30.3092 54.438 ZM31.624 57.1459 L27.2656 58.8502 L27.2656 58.8502 L27.5481 59.8137 L32.0623 58.0485 L31.624 57.1459 ZM32.9389 59.8537 L28.1131 61.7408 L28.3956 62.7043 L28.3956 62.7043 L33.3772 60.7564 L32.9389 59.8537 ZM34.2537 62.5616 L28.9606 64.6314 L28.9606 64.6314 L29.0348 64.8844 L29.0348 64.8844 L29.0348 64.8844 L30.4949 65.1055 L30.4949 65.1055 L34.692 63.4642 L34.692 63.4642 L34.2537 62.5616 Z"/><path style="fill:black; stroke:none;" d="M21.6092 37.9612 L21.4228 36.9788 L44.5294 30.0504 L45.6477 35.9452 Z"/><path style="fill:black; stroke:none;" d="M-2.1994 -9.544 L-5.1142 -4.4893 L-5.1142 -4.4893 L-4.2063 -4.0614 L-1.3747 -8.9716 L-1.3747 -8.9716 L-2.1994 -9.544 ZM0.2745 -7.8268 L-2.3905 -3.2055 L-2.3905 -3.2055 L-1.4825 -2.7775 L1.0992 -7.2544 L0.2745 -7.8268 ZM2.7484 -6.1097 L0.3333 -1.9216 L1.2412 -1.4937 L1.2412 -1.4937 L3.5731 -5.5373 L3.5731 -5.5373 L2.7484 -6.1097 ZM5.2223 -4.3925 L3.0571 -0.6378 L3.965 -0.2098 L3.965 -0.2098 L6.047 -3.8202 L6.047 -3.8202 L5.2223 -4.3925 ZM7.6963 -2.6754 L5.7808 0.6461 L5.7808 0.6461 L6.6888 1.074 L8.5209 -2.103 L7.6963 -2.6754 ZM10.1702 -0.9583 L8.5046 1.9299 L9.4125 2.3579 L9.4125 2.3579 L10.9948 -0.3859 L10.9948 -0.3859 L10.1702 -0.9583 ZM12.6441 0.7589 L11.2284 3.2138 L11.2284 3.2138 L12.1363 3.6417 L13.4687 1.3312 L12.6441 0.7589 ZM15.118 2.476 L13.9522 4.4976 L13.9522 4.4976 L14.8601 4.9256 L14.8601 4.9256 L15.9426 3.0484 L15.118 2.476 ZM17.5919 4.1931 L16.6759 5.7815 L17.5838 6.2095 L18.4165 4.7655 L17.5919 4.1931 ZM20.0658 5.9103 L19.3997 7.0654 L19.3997 7.0654 L20.3076 7.4933 L20.3076 7.4933 L20.8904 6.4827 L20.8904 6.4827 L20.0658 5.9103 Z"/><line y2="-52.911" y1="-35.826" x2="-29.913" x1="-53.553" style="fill:none; stroke:black;"/><line y2="-6.81" y1="-35.826" x2="-56.529" x1="-53.553" style="fill:none; stroke:black;"/><line y2="-47.5013" y1="-35.826" x2="-73.7773" x1="-53.553" style="fill:none; stroke:black;"/><line y2="-41.9276" y1="-52.911" x2="-8.672" x1="-29.913" style="fill:none; stroke:black;"/><line y2="-81.501" y1="-52.911" x2="-40.833" x1="-29.913" style="fill:none; stroke:black;"/><line y2="9.564" y1="-6.81" x2="-30.981" x1="-56.529" style="fill:none; stroke:black;"/><line y2="-1.971" y1="-6.81" x2="-86.751" x1="-56.529" style="fill:none; stroke:black;"/><line y2="-5.7465" y1="-9.9465" x2="-85.309" x1="-59.0777" style="fill:none; stroke:black;"/><line y2="-28.752" y1="-45.6522" x2="-100.449" x1="-83.6236" style="fill:none; stroke:black;"/><line y2="-79.974" y1="-56.773" x2="-70.878" x1="-77.1484" style="fill:none; stroke:black;"/><line y2="-53.292" y1="-42.116" x2="22.791" x1="2.6938" style="fill:none; stroke:black;"/><line y2="-79.974" y1="-81.501" x2="-70.878" x1="-40.833" style="fill:none; stroke:black;"/><line y2="32.5477" y1="9.564" x2="-30.6135" x1="-30.981" style="fill:none; stroke:black;"/><line y2="-28.752" y1="-1.971" x2="-100.449" x1="-86.751" style="fill:none; stroke:black;"/><line y2="-37.281" y1="-53.292" x2="48.519" x1="22.791" style="fill:none; stroke:black;"/><line y2="53.301" y1="42.0336" x2="-3.777" x1="-24.8746" style="fill:none; stroke:black;"/><line y2="-7.461" y1="-37.281" x2="47.457" x1="48.519" style="fill:none; stroke:black;"/><line y2="37.47" y1="53.301" x2="21.516" x1="-3.777" style="fill:none; stroke:black;"/><line y2="7.488" y1="-7.461" x2="21.465" x1="47.457" style="fill:none; stroke:black;"/><line y2="7.488" y1="37.47" x2="21.465" x1="21.516" style="fill:none; stroke:black;"/><path style="fill:black; stroke:none;" d="M-52.2764 -35.7995 L-52.8913 -34.7333 L-52.8913 -34.7333 L-52.0766 -34.1437 L-52.0766 -34.1437 L-51.3586 -35.3888 L-52.2764 -35.7995 ZM-49.523 -34.5672 L-50.4471 -32.9646 L-50.4471 -32.9646 L-49.6324 -32.3751 L-49.6324 -32.3751 L-48.6051 -34.1564 L-48.6051 -34.1564 L-49.523 -34.5672 ZM-46.7695 -33.3348 L-48.0029 -31.196 L-47.1882 -30.6064 L-45.8517 -32.924 L-46.7695 -33.3348 ZM-44.016 -32.1025 L-45.5587 -29.4274 L-45.5587 -29.4274 L-44.7439 -28.8378 L-44.7439 -28.8378 L-43.0982 -31.6917 L-43.0982 -31.6917 L-44.016 -32.1025 ZM-41.2626 -30.8701 L-43.1145 -27.6587 L-42.2997 -27.0692 L-42.2997 -27.0692 L-40.3447 -30.4593 L-40.3447 -30.4593 L-41.2626 -30.8701 ZM-38.5091 -29.6377 L-40.6703 -25.8901 L-39.8555 -25.3005 L-37.5913 -29.227 L-37.5913 -29.227 L-38.5091 -29.6377 ZM-35.7556 -28.4054 L-38.2261 -24.1214 L-37.4113 -23.5319 L-37.4113 -23.5319 L-34.8378 -27.9946 L-34.8378 -27.9946 L-35.7556 -28.4054 ZM-33.0022 -27.173 L-35.7819 -22.3528 L-35.7819 -22.3528 L-34.9671 -21.7632 L-34.9671 -21.7632 L-32.0844 -26.7622 L-32.0844 -26.7622 L-33.0022 -27.173 Z"/><path style="fill:black; stroke:none;" d="M-14.8317 -70.2958 L-15.5073 -69.5502 L-15.5073 -69.5502 L-11.7663 -65.3586 L-11.7663 -65.3586 L-10.9498 -65.9462 L-10.9498 -65.9462 L-14.8317 -70.2958 ZM-16.8585 -68.059 L-17.5341 -67.3134 L-17.5341 -67.3134 L-14.216 -63.5955 L-14.216 -63.5955 L-13.3995 -64.1832 L-13.3995 -64.1832 L-16.8585 -68.059 ZM-18.8853 -65.8221 L-19.5609 -65.0765 L-19.5609 -65.0765 L-16.6657 -61.8325 L-16.6657 -61.8325 L-15.8491 -62.4202 L-15.8491 -62.4202 L-18.8853 -65.8221 ZM-20.9121 -63.5853 L-21.5877 -62.8397 L-21.5877 -62.8397 L-19.1153 -60.0695 L-19.1153 -60.0695 L-18.2988 -60.6572 L-18.2988 -60.6572 L-20.9121 -63.5853 ZM-22.9389 -61.3484 L-23.6144 -60.6028 L-23.6144 -60.6028 L-21.565 -58.3065 L-20.7484 -58.8941 L-20.7484 -58.8941 L-22.9389 -61.3484 ZM-24.9656 -59.1116 L-25.6412 -58.366 L-25.6412 -58.366 L-24.0147 -56.5434 L-24.0147 -56.5434 L-23.1981 -57.1311 L-23.1981 -57.1311 L-24.9656 -59.1116 ZM-26.9924 -56.8748 L-27.668 -56.1291 L-27.668 -56.1291 L-26.4643 -54.7804 L-25.6478 -55.3681 L-25.6478 -55.3681 L-26.9924 -56.8748 ZM-29.0192 -54.6379 L-29.6948 -53.8923 L-28.914 -53.0174 L-28.914 -53.0174 L-28.0974 -53.6051 L-28.0974 -53.6051 L-29.0192 -54.6379 Z"/></g><g transform="translate(104,91)" style="fill:rgb(230,0,0); text-rendering:geometricPrecision; color-rendering:optimizeQuality; image-rendering:optimizeQuality; font-family:'Open Sans'; stroke:rgb(230,0,0); color-interpolation:linearRGB;"><path style="stroke:none;" d="M27.4635 -83.3533 Q27.4635 -81.2908 26.4244 -80.1111 Q25.3854 -78.9314 23.5416 -78.9314 Q21.651 -78.9314 20.6198 -80.0955 Q19.5885 -81.2596 19.5885 -83.3689 Q19.5885 -85.4627 20.6198 -86.6111 Q21.651 -87.7596 23.5416 -87.7596 Q25.401 -87.7596 26.4323 -86.5877 Q27.4635 -85.4158 27.4635 -83.3533 ZM20.6354 -83.3533 Q20.6354 -81.6189 21.3776 -80.7127 Q22.1198 -79.8064 23.5416 -79.8064 Q24.9635 -79.8064 25.6901 -80.7049 Q26.4166 -81.6033 26.4166 -83.3533 Q26.4166 -85.0877 25.6901 -85.9783 Q24.9635 -86.8689 23.5416 -86.8689 Q22.1198 -86.8689 21.3776 -85.9705 Q20.6354 -85.0721 20.6354 -83.3533 Z"/></g><g transform="translate(104,91)" style="stroke-linecap:butt; text-rendering:geometricPrecision; color-rendering:optimizeQuality; image-rendering:optimizeQuality; font-family:'Open Sans'; color-interpolation:linearRGB; stroke-miterlimit:5;"><path style="fill:none;" d="M75.4242 -51.1163 L75 -51.381 L74.5587 -51.146"/><path style="fill:rgb(230,0,0); stroke:none;" d="M1.1895 83.2127 Q1.1895 85.2752 0.1504 86.4549 Q-0.8886 87.6346 -2.7324 87.6346 Q-4.623 87.6346 -5.6543 86.4705 Q-6.6855 85.3064 -6.6855 83.1971 Q-6.6855 81.1033 -5.6543 79.9549 Q-4.623 78.8064 -2.7324 78.8064 Q-0.873 78.8064 0.1582 79.9783 Q1.1895 81.1502 1.1895 83.2127 ZM-5.6386 83.2127 Q-5.6386 84.9471 -4.8964 85.8533 Q-4.1543 86.7596 -2.7324 86.7596 Q-1.3105 86.7596 -0.5839 85.8611 Q0.1426 84.9627 0.1426 83.2127 Q0.1426 81.4783 -0.5839 80.5877 Q-1.3105 79.6971 -2.7324 79.6971 Q-4.1543 79.6971 -4.8964 80.5955 Q-5.6386 81.4939 -5.6386 83.2127 Z"/><path style="fill:rgb(230,0,0); stroke:none;" d="M66.0585 69.8237 Q66.0585 71.8862 65.0194 73.0659 Q63.9804 74.2456 62.1366 74.2456 Q60.246 74.2456 59.2147 73.0815 Q58.1835 71.9174 58.1835 69.8081 Q58.1835 67.7143 59.2147 66.5659 Q60.246 65.4174 62.1366 65.4174 Q63.996 65.4174 65.0273 66.5893 Q66.0585 67.7612 66.0585 69.8237 ZM59.2304 69.8237 Q59.2304 71.5581 59.9726 72.4643 Q60.7147 73.3706 62.1366 73.3706 Q63.5585 73.3706 64.2851 72.4721 Q65.0116 71.5737 65.0116 69.8237 Q65.0116 68.0893 64.2851 67.1987 Q63.5585 66.3081 62.1366 66.3081 Q60.7147 66.3081 59.9726 67.2065 Q59.2304 68.1049 59.2304 69.8237 Z"/><path style="fill:rgb(230,0,0); stroke:none;" d="M73.5741 74.1206 L72.5741 74.1206 L72.5741 70.0893 L68.0585 70.0893 L68.0585 74.1206 L67.0585 74.1206 L67.0585 65.5581 L68.0585 65.5581 L68.0585 69.1987 L72.5741 69.1987 L72.5741 65.5581 L73.5741 65.5581 L73.5741 74.1206 Z"/><path style="fill:rgb(230,0,0); stroke:none;" d="M54.9285 31.8077 Q54.9285 33.8702 53.8894 35.0499 Q52.8504 36.2296 51.0066 36.2296 Q49.116 36.2296 48.0848 35.0655 Q47.0535 33.9014 47.0535 31.7921 Q47.0535 29.6983 48.0848 28.5499 Q49.116 27.4014 51.0066 27.4014 Q52.866 27.4014 53.8973 28.5733 Q54.9285 29.7452 54.9285 31.8077 ZM48.1004 31.8077 Q48.1004 33.5421 48.8426 34.4483 Q49.5848 35.3546 51.0066 35.3546 Q52.4285 35.3546 53.1551 34.4561 Q53.8816 33.5577 53.8816 31.8077 Q53.8816 30.0733 53.1551 29.1827 Q52.4285 28.2921 51.0066 28.2921 Q49.5848 28.2921 48.8426 29.1905 Q48.1004 30.0889 48.1004 31.8077 Z"/><path style="fill:rgb(230,0,0); stroke:none;" d="M62.4441 36.1046 L61.4441 36.1046 L61.4441 32.0733 L56.9285 32.0733 L56.9285 36.1046 L55.9285 36.1046 L55.9285 27.5421 L56.9285 27.5421 L56.9285 31.1827 L61.4441 31.1827 L61.4441 27.5421 L62.4441 27.5421 L62.4441 36.1046 Z"/></g><g transform="translate(104,91)" style="stroke-linecap:butt; font-size:8.4px; fill:gray; text-rendering:geometricPrecision; image-rendering:optimizeQuality; color-rendering:optimizeQuality; font-family:'Open Sans'; font-style:italic; stroke:gray; color-interpolation:linearRGB; stroke-miterlimit:5;"><path style="stroke:none;" d="M-58.4527 -44.6489 Q-58.4527 -45.977 -57.984 -47.102 Q-57.5152 -48.227 -56.484 -49.3051 L-55.8746 -49.3051 Q-56.8433 -48.2426 -57.3277 -47.0707 Q-57.8121 -45.8989 -57.8121 -44.6645 Q-57.8121 -43.3364 -57.3746 -42.3207 L-57.8902 -42.3207 Q-58.4527 -43.352 -58.4527 -44.6489 ZM-54.8926 -45.9614 L-55.3926 -43.5864 L-56.0489 -43.5864 L-54.8458 -49.3051 L-53.5958 -49.3051 Q-51.8614 -49.3051 -51.8614 -47.8676 Q-51.8614 -46.5082 -53.2989 -46.1176 L-52.3614 -43.5864 L-53.0801 -43.5864 L-53.9083 -45.9614 L-54.8926 -45.9614 ZM-54.3145 -48.7114 Q-54.7051 -46.7895 -54.7676 -46.5395 L-54.1114 -46.5395 Q-53.3614 -46.5395 -52.9551 -46.8676 Q-52.5489 -47.1957 -52.5489 -47.8207 Q-52.5489 -48.2895 -52.8067 -48.5004 Q-53.0645 -48.7114 -53.6583 -48.7114 L-54.3145 -48.7114 ZM-49.6754 -46.9614 Q-49.6754 -45.6332 -50.152 -44.5004 Q-50.6285 -43.3676 -51.6442 -42.3207 L-52.2535 -42.3207 Q-50.316 -44.477 -50.316 -46.9614 Q-50.316 -48.2895 -50.7535 -49.3051 L-50.2379 -49.3051 Q-49.6754 -48.2426 -49.6754 -46.9614 Z"/><path style="stroke:none;" d="M-33.5594 -41.7745 Q-33.5594 -43.1026 -33.0906 -44.2276 Q-32.6219 -45.3526 -31.5906 -46.4308 L-30.9813 -46.4308 Q-31.95 -45.3683 -32.4344 -44.1964 Q-32.9188 -43.0245 -32.9188 -41.7901 Q-32.9188 -40.462 -32.4813 -39.4464 L-32.9969 -39.4464 Q-33.5594 -40.4776 -33.5594 -41.7745 ZM-29.9993 -43.087 L-30.4993 -40.712 L-31.1556 -40.712 L-29.9525 -46.4308 L-28.7025 -46.4308 Q-26.9681 -46.4308 -26.9681 -44.9933 Q-26.9681 -43.6339 -28.4056 -43.2433 L-27.4681 -40.712 L-28.1868 -40.712 L-29.015 -43.087 L-29.9993 -43.087 ZM-29.4212 -45.837 Q-29.8118 -43.9151 -29.8743 -43.6651 L-29.2181 -43.6651 Q-28.4681 -43.6651 -28.0618 -43.9933 Q-27.6556 -44.3214 -27.6556 -44.9464 Q-27.6556 -45.4151 -27.9134 -45.6261 Q-28.1712 -45.837 -28.765 -45.837 L-29.4212 -45.837 ZM-24.7821 -44.087 Q-24.7821 -42.7589 -25.2587 -41.6261 Q-25.7352 -40.4933 -26.7509 -39.4464 L-27.3602 -39.4464 Q-25.4227 -41.6026 -25.4227 -44.087 Q-25.4227 -45.4151 -25.8602 -46.4308 L-25.3446 -46.4308 Q-24.7821 -45.3683 -24.7821 -44.087 Z"/><path style="fill:none; stroke:black;" d="M-57.0227 -6.7309 L-56.529 -6.81 L-56.478 -7.3074"/></g><g transform="translate(104,91)" style="stroke-linecap:butt; fill:rgb(0,5,255); text-rendering:geometricPrecision; color-rendering:optimizeQuality; image-rendering:optimizeQuality; font-family:'Open Sans'; stroke:rgb(0,5,255); color-interpolation:linearRGB; stroke-miterlimit:5;"><path style="stroke:none;" d="M-75.5094 -46.2798 L-76.6501 -46.2798 L-81.3376 -53.4673 L-81.3844 -53.4673 Q-81.2907 -52.2016 -81.2907 -51.1548 L-81.2907 -46.2798 L-82.2126 -46.2798 L-82.2126 -54.8423 L-81.0876 -54.8423 L-76.4157 -47.686 L-76.3688 -47.686 Q-76.3688 -47.8423 -76.4157 -48.7016 Q-76.4626 -49.561 -76.4469 -49.936 L-76.4469 -54.8423 L-75.5094 -54.8423 L-75.5094 -46.2798 Z"/><path style="fill:rgb(230,0,0); stroke:none;" d="M0.9795 -39.0433 Q0.9795 -36.9808 -0.0596 -35.8011 Q-1.0986 -34.6214 -2.9424 -34.6214 Q-4.833 -34.6214 -5.8643 -35.7855 Q-6.8955 -36.9496 -6.8955 -39.0589 Q-6.8955 -41.1527 -5.8643 -42.3011 Q-4.833 -43.4496 -2.9424 -43.4496 Q-1.083 -43.4496 -0.0518 -42.2777 Q0.9795 -41.1058 0.9795 -39.0433 ZM-5.8486 -39.0433 Q-5.8486 -37.3089 -5.1064 -36.4027 Q-4.3643 -35.4964 -2.9424 -35.4964 Q-1.5205 -35.4964 -0.7939 -36.3949 Q-0.0674 -37.2933 -0.0674 -39.0433 Q-0.0674 -40.7777 -0.7939 -41.6683 Q-1.5205 -42.5589 -2.9424 -42.5589 Q-4.3643 -42.5589 -5.1064 -41.6605 Q-5.8486 -40.7621 -5.8486 -39.0433 Z"/><path style="fill:none; stroke:black;" d="M-40.6546 -81.0339 L-40.833 -81.501 L-41.3324 -81.4756"/><path style="fill:none; stroke:black;" d="M-31.402 9.2942 L-30.981 9.564 L-30.973 10.0639"/><path style="fill:none; stroke:black;" d="M-86.2573 -2.0501 L-86.751 -1.971 L-86.9787 -2.4162"/><path style="fill:none; stroke:black;" d="M-100.0962 -29.1063 L-100.449 -28.752 L-100.2213 -28.3069"/><path style="fill:none; stroke:black;" d="M-71.0085 -79.4913 L-70.878 -79.974 L-70.3786 -79.9994"/><path style="fill:none; stroke:black;" d="M22.354 -53.049 L22.791 -53.292 L23.2155 -53.0278"/><path style="fill:rgb(230,0,0); stroke:none;" d="M-26.5725 38.9537 Q-26.5725 41.0162 -27.6116 42.1959 Q-28.6506 43.3756 -30.4944 43.3756 Q-32.385 43.3756 -33.4162 42.2115 Q-34.4475 41.0474 -34.4475 38.9381 Q-34.4475 36.8443 -33.4162 35.6959 Q-32.385 34.5474 -30.4944 34.5474 Q-28.635 34.5474 -27.6037 35.7193 Q-26.5725 36.8912 -26.5725 38.9537 ZM-33.4006 38.9537 Q-33.4006 40.6881 -32.6584 41.5943 Q-31.9162 42.5006 -30.4944 42.5006 Q-29.0725 42.5006 -28.3459 41.6021 Q-27.6194 40.7037 -27.6194 38.9537 Q-27.6194 37.2193 -28.3459 36.3287 Q-29.0725 35.4381 -30.4944 35.4381 Q-31.9162 35.4381 -32.6584 36.3365 Q-33.4006 37.2349 -33.4006 38.9537 Z"/><path style="fill:none; stroke:black;" d="M48.9603 -37.516 L48.519 -37.281 L48.0945 -37.5452"/><path style="fill:none; stroke:black;" d="M-4.218 53.0655 L-3.777 53.301 L-3.3532 53.0357"/><path style="fill:none; stroke:black;" d="M47.4748 -7.9607 L47.457 -7.461 L47.0236 -7.2117"/></g><g transform="translate(104,91)" style="stroke-linecap:butt; font-size:8.4px; fill:gray; text-rendering:geometricPrecision; image-rendering:optimizeQuality; color-rendering:optimizeQuality; font-family:'Open Sans'; font-style:italic; stroke:gray; color-interpolation:linearRGB; stroke-miterlimit:5;"><path style="stroke:none;" d="M8.6554 33.8357 Q8.6554 32.5076 9.1241 31.3826 Q9.5929 30.2576 10.6241 29.1795 L11.2335 29.1795 Q10.2647 30.242 9.7804 31.4138 Q9.296 32.5857 9.296 33.8201 Q9.296 35.1482 9.7335 36.1638 L9.2179 36.1638 Q8.6554 35.1326 8.6554 33.8357 ZM14.2779 33.242 Q14.2779 34.0701 13.731 34.5232 Q13.1842 34.9763 12.1842 34.9763 Q11.7779 34.9763 11.4654 34.9217 Q11.1529 34.867 10.8717 34.7263 L10.8717 34.0701 Q11.4967 34.3982 12.1998 34.3982 Q12.8248 34.3982 13.1998 34.1013 Q13.5748 33.8045 13.5748 33.2888 Q13.5748 32.9763 13.3717 32.7498 Q13.1685 32.5232 12.606 32.1951 Q12.0123 31.867 11.7857 31.5388 Q11.5592 31.2107 11.5592 30.7576 Q11.5592 30.0232 12.0748 29.5623 Q12.5904 29.1013 13.4342 29.1013 Q13.8092 29.1013 14.1451 29.1795 Q14.481 29.2576 14.856 29.4295 L14.5904 30.0232 Q14.3404 29.867 14.0201 29.781 Q13.6998 29.6951 13.4342 29.6951 Q12.9029 29.6951 12.5826 29.9685 Q12.2623 30.242 12.2623 30.7107 Q12.2623 30.9138 12.3326 31.0623 Q12.4029 31.2107 12.5435 31.3435 Q12.6842 31.4763 13.106 31.7263 Q13.6685 32.0701 13.8717 32.2654 Q14.0748 32.4607 14.1764 32.6951 Q14.2779 32.9295 14.2779 33.242 ZM16.8724 31.5232 Q16.8724 32.8513 16.3958 33.9842 Q15.9193 35.117 14.9037 36.1638 L14.2943 36.1638 Q16.2318 34.0076 16.2318 31.5232 Q16.2318 30.1951 15.7943 29.1795 L16.3099 29.1795 Q16.8724 30.242 16.8724 31.5232 Z"/><path style="fill:none; stroke:black;" d="M21.8984 7.2387 L21.465 7.488 L21.4659 7.988"/><path style="stroke:none;" d="M17.0847 -1.3479 Q17.0847 -2.6761 17.5535 -3.8011 Q18.0222 -4.9261 19.0535 -6.0042 L19.6628 -6.0042 Q18.6941 -4.9417 18.2097 -3.7698 Q17.7253 -2.5979 17.7253 -1.3636 Q17.7253 -0.0354 18.1628 0.9802 L17.6472 0.9802 Q17.0847 -0.0511 17.0847 -1.3479 ZM20.6448 -2.6604 L20.1448 -0.2854 L19.4885 -0.2854 L20.6917 -6.0042 L21.9417 -6.0042 Q23.676 -6.0042 23.676 -4.5667 Q23.676 -3.2073 22.2385 -2.8167 L23.176 -0.2854 L22.4573 -0.2854 L21.6292 -2.6604 L20.6448 -2.6604 ZM21.2229 -5.4104 Q20.8323 -3.4886 20.7698 -3.2386 L21.426 -3.2386 Q22.176 -3.2386 22.5823 -3.5667 Q22.9885 -3.8948 22.9885 -4.5198 Q22.9885 -4.9886 22.7307 -5.1995 Q22.4729 -5.4104 21.8792 -5.4104 L21.2229 -5.4104 ZM25.862 -3.6604 Q25.862 -2.3323 25.3854 -1.1995 Q24.9089 -0.0667 23.8933 0.9802 L23.2839 0.9802 Q25.2214 -1.1761 25.2214 -3.6604 Q25.2214 -4.9886 24.7839 -6.0042 L25.2995 -6.0042 Q25.862 -4.9417 25.862 -3.6604 Z"/></g><g transform="translate(104,91)" style="stroke-linecap:butt; text-rendering:geometricPrecision; color-rendering:optimizeQuality; image-rendering:optimizeQuality; font-family:'Open Sans'; color-interpolation:linearRGB; stroke-miterlimit:5;"><path style="stroke:none;" d="M-24.3152 -16.6698 L-25.3152 -16.6698 L-25.3152 -20.701 L-29.8308 -20.701 L-29.8308 -16.6698 L-30.8308 -16.6698 L-30.8308 -25.2323 L-29.8308 -25.2323 L-29.8308 -21.5916 L-25.3152 -21.5916 L-25.3152 -25.2323 L-24.3152 -25.2323 L-24.3152 -16.6698 Z"/><path style="stroke:none;" d="M-4.2842 -68.7438 L-5.2842 -68.7438 L-5.2842 -72.775 L-9.7998 -72.775 L-9.7998 -68.7438 L-10.7998 -68.7438 L-10.7998 -77.3063 L-9.7998 -77.3063 L-9.7998 -73.6656 L-5.2842 -73.6656 L-5.2842 -77.3063 L-4.2842 -77.3063 L-4.2842 -68.7438 Z"/></g></g></svg></svg></svg></svg>