<svg xmlns:ns0="http://www.w3.org/2000/svg" xmlns="http://www.w3.org/2000/svg"><g transform="translate(0, 0)"><ns0:svg width="383" viewBox="0 0 383 290" style="fill-opacity:1; color-rendering:auto; color-interpolation:auto; text-rendering:auto; stroke:black; stroke-linecap:square; stroke-miterlimit:10; shape-rendering:auto; stroke-opacity:1; fill:black; stroke-dasharray:none; font-weight:normal; stroke-width:1; font-family:'Open Sans'; font-style:normal; stroke-linejoin:miter; font-size:12; stroke-dashoffset:0; image-rendering:auto;" height="290" class="cas-substance-image"><ns0:svg class="cas-substance-single-component"><ns0:rect y="0" x="0" width="383" stroke="none" ry="7" rx="7" height="290" fill="white" class="cas-substance-group" /><ns0:svg y="0" x="0" width="383" viewBox="0 0 383 290" style="fill:black;" height="290" class="cas-substance-single-component-image"><ns0:svg><ns0:g><ns0:g transform="translate(193,147)" style="text-rendering:geometricPrecision; color-rendering:optimizeQuality; color-interpolation:linearRGB; stroke-linecap:butt; image-rendering:optimizeQuality;"><ns0:line y2="-21.213" y1="-41.286" x2="-50.448" x1="-28.152" style="fill:none;" /><ns0:line y2="-32.016" y1="-41.286" x2="0.378" x1="-28.152" style="fill:none;" /><ns0:line y2="-29.3117" y1="-37.3329" x2="-2.6254" x1="-27.3117" style="fill:none;" /></ns0:g><ns0:g transform="translate(193,147)" style="stroke-linecap:butt; font-size:8.4px; fill:gray; text-rendering:geometricPrecision; image-rendering:optimizeQuality; color-rendering:optimizeQuality; font-family:'Open Sans'; font-style:italic; stroke:gray; color-interpolation:linearRGB;"><ns0:path style="stroke:none;" d="M-21.2063 -25.9764 Q-21.2063 -27.3045 -20.7376 -28.4295 Q-20.2688 -29.5545 -19.2376 -30.6326 L-18.6282 -30.6326 Q-19.597 -29.5701 -20.0813 -28.3983 Q-20.5657 -27.2264 -20.5657 -25.992 Q-20.5657 -24.6639 -20.1282 -23.6483 L-20.6438 -23.6483 Q-21.2063 -24.6795 -21.2063 -25.9764 ZM-15.6932 -24.9139 L-19.2088 -24.9139 L-19.0994 -25.4451 L-15.49 -30.0233 L-18.0525 -30.0233 L-17.9275 -30.6326 L-14.5682 -30.6326 L-14.6775 -30.0858 L-18.2869 -25.5233 L-15.5525 -25.5233 L-15.6932 -24.9139 ZM-12.748 -28.2889 Q-12.748 -26.9608 -13.2246 -25.8279 Q-13.7012 -24.6951 -14.7168 -23.6483 L-15.3262 -23.6483 Q-13.3887 -25.8045 -13.3887 -28.2889 Q-13.3887 -29.617 -13.8262 -30.6326 L-13.3105 -30.6326 Q-12.748 -29.5701 -12.748 -28.2889 Z" /><ns0:line y2="-57.993" y1="-54.855" x2="-121.83" x1="-91.995" style="fill:none; stroke:black;" /><ns0:line y2="-27.45" y1="-54.855" x2="-79.791" x1="-91.995" style="fill:none; stroke:black;" /><ns0:line y2="-85.398" y1="-57.993" x2="-134.031" x1="-121.83" style="fill:none; stroke:black;" /><ns0:line y2="-87.9103" y1="-85.398" x2="-157.9424" x1="-134.031" style="fill:none; stroke:black;" /><ns0:line y2="-103.4678" y1="-83.552" x2="-118.7388" x1="-133.2091" style="fill:none; stroke:black;" /><ns0:line y2="-105.5251" y1="-85.6092" x2="-121.5703" x1="-136.0407" style="fill:none; stroke:black;" /><ns0:line y2="-1.47" y1="1.668" x2="-94.791" x1="-124.629" style="fill:none; stroke:black;" /><ns0:line y2="20.826" y1="50.169" x2="-74.718" x1="-80.955" style="fill:none; stroke:black;" /><ns0:line y2="59.442" y1="50.169" x2="-109.488" x1="-80.955" style="fill:none; stroke:black;" /><ns0:line y2="55.4888" y1="47.4649" x2="-108.648" x1="-83.9586" style="fill:none; stroke:black;" /><ns0:path style="stroke:none;" d="M-102.5414 46.4592 Q-102.5414 45.1311 -102.0727 44.0061 Q-101.6039 42.8811 -100.5727 41.8029 L-99.9633 41.8029 Q-100.9321 42.8654 -101.4164 44.0373 Q-101.9008 45.2092 -101.9008 46.4436 Q-101.9008 47.7717 -101.4633 48.7873 L-101.9789 48.7873 Q-102.5414 47.7561 -102.5414 46.4592 ZM-97.0283 47.5217 L-100.5439 47.5217 L-100.4345 46.9904 L-96.8251 42.4123 L-99.3876 42.4123 L-99.2626 41.8029 L-95.9033 41.8029 L-96.0126 42.3498 L-99.622 46.9123 L-96.8876 46.9123 L-97.0283 47.5217 ZM-94.0831 44.1467 Q-94.0831 45.4748 -94.5597 46.6076 Q-95.0363 47.7404 -96.0519 48.7873 L-96.6613 48.7873 Q-94.7238 46.6311 -94.7238 44.1467 Q-94.7238 42.8186 -95.1613 41.8029 L-94.6456 41.8029 Q-94.0831 42.8654 -94.0831 44.1467 Z" /><ns0:line y2="-94.65" y1="-79.65" x2="50.631" x1="24.648" style="fill:none; stroke:black;" /><ns0:line y2="-49.65" y1="-79.65" x2="24.648" x1="24.648" style="fill:none; stroke:black;" /><ns0:line y2="-124.65" y1="-94.65" x2="50.631" x1="50.631" style="fill:none; stroke:black;" /><ns0:line y2="-136.4716" y1="-124.65" x2="30.1536" x1="50.631" style="fill:none; stroke:black;" /><ns0:line y2="-134.9456" y1="-122.6293" x2="71.963" x1="50.631" style="fill:none; stroke:black;" /><ns0:line y2="-137.9767" y1="-125.6603" x2="70.2129" x1="48.8809" style="fill:none; stroke:black;" /><ns0:line y2="-32.016" y1="-41.286" x2="48.918" x1="77.451" style="fill:none; stroke:black;" /><ns0:line y2="-3.483" y1="20.787" x2="39.648" x1="57.282" style="fill:none; stroke:black;" /><ns0:line y2="17.652" y1="20.787" x2="87.117" x1="57.282" style="fill:none; stroke:black;" /><ns0:line y2="14.3823" y1="17.095" x2="84.7416" x1="58.9259" style="fill:none; stroke:black;" /><ns0:path style="stroke:none;" d="M69.0154 30.3288 Q69.0154 29.0007 69.4841 27.8757 Q69.9529 26.7507 70.9841 25.6726 L71.5935 25.6726 Q70.6247 26.7351 70.1404 27.9069 Q69.656 29.0788 69.656 30.3132 Q69.656 31.6413 70.0935 32.6569 L69.5779 32.6569 Q69.0154 31.6257 69.0154 30.3288 ZM74.5285 31.3913 L71.0129 31.3913 L71.1223 30.8601 L74.7317 26.2819 L72.1692 26.2819 L72.2942 25.6726 L75.6535 25.6726 L75.5442 26.2194 L71.9348 30.7819 L74.6692 30.7819 L74.5285 31.3913 ZM77.4737 28.0163 Q77.4737 29.3444 76.9971 30.4772 Q76.5206 31.6101 75.5049 32.6569 L74.8956 32.6569 Q76.8331 30.5007 76.8331 28.0163 Q76.8331 26.6882 76.3956 25.6726 L76.9112 25.6726 Q77.4737 26.7351 77.4737 28.0163 Z" /><ns0:line y2="139.65" y1="112.242" x2="-113.325" x1="-101.124" style="fill:none; stroke:black;" /><ns0:line y2="87.972" y1="112.242" x2="-118.758" x1="-101.124" style="fill:none; stroke:black;" /><ns0:line y2="91.6641" y1="112.6645" x2="-120.4017" x1="-105.1433" style="fill:none; stroke:black;" /><ns0:path style="stroke:none;" d="M-105.9983 95.393 Q-105.9983 94.0649 -105.5296 92.9399 Q-105.0608 91.8149 -104.0296 90.7368 L-103.4202 90.7368 Q-104.389 91.7993 -104.8733 92.9712 Q-105.3577 94.143 -105.3577 95.3774 Q-105.3577 96.7055 -104.9202 97.7212 L-105.4358 97.7212 Q-105.9983 96.6899 -105.9983 95.393 ZM-100.7351 96.4555 L-103.5945 96.4555 L-102.3914 90.7368 L-99.5164 90.7368 L-99.6414 91.3462 L-101.8601 91.3462 L-102.2351 93.1743 L-100.1883 93.1743 L-100.2976 93.768 L-102.3601 93.768 L-102.8133 95.8618 L-100.5945 95.8618 L-100.7351 96.4555 ZM-97.7036 93.0805 Q-97.7036 94.4087 -98.1802 95.5415 Q-98.6567 96.6743 -99.6723 97.7212 L-100.2817 97.7212 Q-98.3442 95.5649 -98.3442 93.0805 Q-98.3442 91.7524 -98.7817 90.7368 L-98.2661 90.7368 Q-97.7036 91.7993 -97.7036 93.0805 Z" /><ns0:path style="fill:black; stroke:none;" d="M-149.1625 87.6781 L-148.3535 88.2659 L-163.965 114.0054 L-168.819 110.4786 Z" /><ns0:line y2="61.4994" y1="53.7311" x2="-157.3595" x1="-181.2623" style="fill:none; stroke:black;" /><ns0:line y2="58.1706" y1="50.4025" x2="-156.2781" x1="-180.1805" style="fill:none; stroke:black;" /><ns0:line y2="39.945" y1="69.291" x2="107.193" x1="100.956" style="fill:none; stroke:black;" /><ns0:line y2="27.744" y1="42.744" x2="186.561" x1="160.578" style="fill:none; stroke:black;" /><ns0:line y2="27.744" y1="42.744" x2="134.598" x1="160.578" style="fill:none; stroke:black;" /><ns0:line y2="-2.5437" y1="-19.2592" x2="129.3471" x1="147.9113" style="fill:none; stroke:black;" /><ns0:line y2="0.0573" y1="-16.6582" x2="131.689" x1="150.2532" style="fill:none; stroke:black;" /><ns0:line y2="-27.45" y1="-21.213" x2="-79.791" x1="-50.448" style="fill:none; stroke:black;" /><ns0:line y2="-23.6064" y1="-18.2096" x2="-78.5421" x1="-53.1523" style="fill:none; stroke:black;" /><ns0:line y2="2.2297" y1="-21.213" x2="-47.9849" x1="-50.448" style="fill:none; stroke:black;" /><ns0:line y2="-1.47" y1="-27.45" x2="-94.791" x1="-79.791" style="fill:none; stroke:black;" /><ns0:line y2="20.826" y1="10.9306" x2="-74.718" x1="-52.4917" style="fill:none; stroke:black;" /><ns0:line y2="20.826" y1="-1.47" x2="-74.718" x1="-94.791" style="fill:none; stroke:black;" /><ns0:line y2="16.9824" y1="-2.31" x2="-73.4689" x1="-90.8378" style="fill:none; stroke:black;" /><ns0:line y2="-49.65" y1="-32.016" x2="24.648" x1="0.378" style="fill:none; stroke:black;" /><ns0:line y2="-9.7914" y1="-32.016" x2="7.5985" x1="0.378" style="fill:none; stroke:black;" /><ns0:line y2="-32.016" y1="-49.65" x2="48.918" x1="24.648" style="fill:none; stroke:black;" /><ns0:line y2="-30.3723" y1="-45.6307" x2="45.2259" x1="24.2255" style="fill:none; stroke:black;" /><ns0:line y2="-3.483" y1="-3.483" x2="39.648" x1="14.9996" style="fill:none; stroke:black;" /><ns0:line y2="-6.983" y1="-6.983" x2="37.6273" x1="14.9996" style="fill:none; stroke:black;" /><ns0:line y2="-3.483" y1="-32.016" x2="39.648" x1="48.918" style="fill:none; stroke:black;" /><ns0:line y2="87.972" y1="59.442" x2="-118.758" x1="-109.488" style="fill:none; stroke:black;" /><ns0:line y2="45.4188" y1="59.442" x2="-128.7884" x1="-109.488" style="fill:none; stroke:black;" /><ns0:line y2="87.972" y1="87.972" x2="-148.758" x1="-118.758" style="fill:none; stroke:black;" /><ns0:line y2="59.442" y1="45.4188" x2="-158.028" x1="-138.7276" style="fill:none; stroke:black;" /><ns0:line y2="59.442" y1="87.972" x2="-158.028" x1="-148.758" style="fill:none; stroke:black;" /><ns0:line y2="39.945" y1="17.652" x2="107.193" x1="87.117" style="fill:none; stroke:black;" /><ns0:line y2="-2.4427" y1="17.652" x2="98.7177" x1="87.117" style="fill:none; stroke:black;" /><ns0:line y2="27.744" y1="39.945" x2="134.598" x1="107.193" style="fill:none; stroke:black;" /><ns0:line y2="25.3684" y1="35.9257" x2="131.3284" x1="107.6155" style="fill:none; stroke:black;" /><ns0:line y2="-2.094" y1="-7.2029" x2="131.463" x1="107.4249" style="fill:none; stroke:black;" /><ns0:line y2="-2.094" y1="27.744" x2="131.463" x1="134.598" style="fill:none; stroke:black;" /><ns0:path style="fill:none; stroke-miterlimit:5; stroke:black;" d="M-28.5236 -40.9515 L-28.152 -41.286 L-27.6765 -41.1315" /><ns0:path style="fill:none; stroke-miterlimit:5; stroke:black;" d="M-92.4922 -54.9073 L-91.995 -54.855 L-91.7916 -54.3982" /><ns0:path style="fill:none; stroke-miterlimit:5; stroke:black;" d="M-121.3327 -57.9407 L-121.83 -57.993 L-122.0334 -58.4498" /><ns0:path style="fill:none; stroke-miterlimit:5; stroke:black;" d="M-133.8276 -84.9412 L-134.031 -85.398 L-134.5283 -85.4502" /></ns0:g><ns0:g transform="translate(193,147)" style="stroke-linecap:butt; fill:rgb(230,0,0); text-rendering:geometricPrecision; color-rendering:optimizeQuality; image-rendering:optimizeQuality; font-family:'Open Sans'; stroke:rgb(230,0,0); color-interpolation:linearRGB; stroke-miterlimit:5;"><ns0:path style="stroke:none;" d="M-159.9315 -88.6033 Q-159.9315 -86.5408 -160.9706 -85.3611 Q-162.0096 -84.1814 -163.8534 -84.1814 Q-165.744 -84.1814 -166.7752 -85.3455 Q-167.8065 -86.5096 -167.8065 -88.6189 Q-167.8065 -90.7127 -166.7752 -91.8611 Q-165.744 -93.0096 -163.8534 -93.0096 Q-161.994 -93.0096 -160.9627 -91.8377 Q-159.9315 -90.6658 -159.9315 -88.6033 ZM-166.7596 -88.6033 Q-166.7596 -86.8689 -166.0174 -85.9627 Q-165.2752 -85.0564 -163.8534 -85.0564 Q-162.4315 -85.0564 -161.7049 -85.9549 Q-160.9784 -86.8533 -160.9784 -88.6033 Q-160.9784 -90.3377 -161.7049 -91.2283 Q-162.4315 -92.1189 -163.8534 -92.1189 Q-165.2752 -92.1189 -166.0174 -91.2205 Q-166.7596 -90.3221 -166.7596 -88.6033 Z" /><ns0:path style="stroke:none;" d="M-168.8065 -84.3064 L-169.8065 -84.3064 L-169.8065 -88.3377 L-174.3221 -88.3377 L-174.3221 -84.3064 L-175.3221 -84.3064 L-175.3221 -92.8689 L-174.3221 -92.8689 L-174.3221 -89.2283 L-169.8065 -89.2283 L-169.8065 -92.8689 L-168.8065 -92.8689 L-168.8065 -84.3064 Z" /><ns0:path style="stroke:none;" d="M-112.4595 -109.7383 Q-112.4595 -107.6758 -113.4986 -106.4961 Q-114.5376 -105.3164 -116.3814 -105.3164 Q-118.272 -105.3164 -119.3033 -106.4805 Q-120.3345 -107.6446 -120.3345 -109.7539 Q-120.3345 -111.8477 -119.3033 -112.9961 Q-118.272 -114.1446 -116.3814 -114.1446 Q-114.522 -114.1446 -113.4908 -112.9727 Q-112.4595 -111.8008 -112.4595 -109.7383 ZM-119.2876 -109.7383 Q-119.2876 -108.0039 -118.5454 -107.0977 Q-117.8033 -106.1914 -116.3814 -106.1914 Q-114.9595 -106.1914 -114.2329 -107.0899 Q-113.5064 -107.9883 -113.5064 -109.7383 Q-113.5064 -111.4727 -114.2329 -112.3633 Q-114.9595 -113.2539 -116.3814 -113.2539 Q-117.8033 -113.2539 -118.5454 -112.3555 Q-119.2876 -111.4571 -119.2876 -109.7383 Z" /><ns0:path style="fill:none; stroke:black;" d="M-80.851 49.6799 L-80.955 50.169 L-81.4305 50.3235" /><ns0:path style="fill:none; stroke:black;" d="M25.081 -79.9 L24.648 -79.65 L24.648 -79.15" /><ns0:path style="fill:none; stroke:black;" d="M50.198 -94.4 L50.631 -94.65 L50.631 -95.15" /><ns0:path style="fill:none; stroke:black;" d="M50.631 -124.15 L50.631 -124.65 L50.198 -124.9" /><ns0:path style="stroke:none;" d="M28.5855 -139.7203 Q28.5855 -137.6578 27.5464 -136.4781 Q26.5074 -135.2984 24.6636 -135.2984 Q22.773 -135.2984 21.7418 -136.4625 Q20.7105 -137.6266 20.7105 -139.7359 Q20.7105 -141.8297 21.7418 -142.9781 Q22.773 -144.1266 24.6636 -144.1266 Q26.523 -144.1266 27.5543 -142.9547 Q28.5855 -141.7828 28.5855 -139.7203 ZM21.7574 -139.7203 Q21.7574 -137.9859 22.4996 -137.0797 Q23.2418 -136.1734 24.6636 -136.1734 Q26.0855 -136.1734 26.8121 -137.0719 Q27.5386 -137.9703 27.5386 -139.7203 Q27.5386 -141.4547 26.8121 -142.3453 Q26.0855 -143.2359 24.6636 -143.2359 Q23.2418 -143.2359 22.4996 -142.3375 Q21.7574 -141.4391 21.7574 -139.7203 Z" /><ns0:path style="stroke:none;" d="M19.7105 -135.4234 L18.7105 -135.4234 L18.7105 -139.4547 L14.1949 -139.4547 L14.1949 -135.4234 L13.1949 -135.4234 L13.1949 -143.9859 L14.1949 -143.9859 L14.1949 -140.3453 L18.7105 -140.3453 L18.7105 -143.9859 L19.7105 -143.9859 L19.7105 -135.4234 Z" /><ns0:path style="stroke:none;" d="M80.5485 -139.7203 Q80.5485 -137.6578 79.5094 -136.4781 Q78.4704 -135.2984 76.6266 -135.2984 Q74.736 -135.2984 73.7048 -136.4625 Q72.6735 -137.6266 72.6735 -139.7359 Q72.6735 -141.8297 73.7048 -142.9781 Q74.736 -144.1266 76.6266 -144.1266 Q78.486 -144.1266 79.5173 -142.9547 Q80.5485 -141.7828 80.5485 -139.7203 ZM73.7204 -139.7203 Q73.7204 -137.9859 74.4626 -137.0797 Q75.2048 -136.1734 76.6266 -136.1734 Q78.0485 -136.1734 78.7751 -137.0719 Q79.5016 -137.9703 79.5016 -139.7203 Q79.5016 -141.4547 78.7751 -142.3453 Q78.0485 -143.2359 76.6266 -143.2359 Q75.2048 -143.2359 74.4626 -142.3375 Q73.7204 -141.4391 73.7204 -139.7203 Z" /><ns0:path style="fill:none; stroke:black;" d="M56.9881 20.3825 L57.282 20.787 L57.7793 20.7347" /><ns0:path style="fill:none; stroke:black;" d="M-101.3273 112.6988 L-101.124 112.242 L-101.4179 111.8375" /><ns0:path style="stroke:none;" d="M-182.6235 50.0987 Q-182.6235 52.1612 -183.6626 53.3409 Q-184.7016 54.5206 -186.5454 54.5206 Q-188.436 54.5206 -189.4673 53.3565 Q-190.4985 52.1924 -190.4985 50.0831 Q-190.4985 47.9893 -189.4673 46.8409 Q-188.436 45.6924 -186.5454 45.6924 Q-184.686 45.6924 -183.6548 46.8643 Q-182.6235 48.0362 -182.6235 50.0987 ZM-189.4516 50.0987 Q-189.4516 51.8331 -188.7094 52.7393 Q-187.9673 53.6456 -186.5454 53.6456 Q-185.1235 53.6456 -184.3969 52.7471 Q-183.6704 51.8487 -183.6704 50.0987 Q-183.6704 48.3643 -184.3969 47.4737 Q-185.1235 46.5831 -186.5454 46.5831 Q-187.9673 46.5831 -188.7094 47.4815 Q-189.4516 48.3799 -189.4516 50.0987 Z" /><ns0:path style="fill:none; stroke:black;" d="M161.011 42.494 L160.578 42.744 L160.145 42.494" /><ns0:path style="stroke:none;" d="M157.6935 -22.2373 Q157.6935 -20.1748 156.6544 -18.9951 Q155.6154 -17.8154 153.7716 -17.8154 Q151.881 -17.8154 150.8497 -18.9795 Q149.8185 -20.1436 149.8185 -22.2529 Q149.8185 -24.3467 150.8497 -25.4951 Q151.881 -26.6436 153.7716 -26.6436 Q155.631 -26.6436 156.6622 -25.4717 Q157.6935 -24.2998 157.6935 -22.2373 ZM150.8654 -22.2373 Q150.8654 -20.5029 151.6076 -19.5967 Q152.3497 -18.6904 153.7716 -18.6904 Q155.1935 -18.6904 155.9201 -19.5889 Q156.6466 -20.4873 156.6466 -22.2373 Q156.6466 -23.9717 155.9201 -24.8623 Q155.1935 -25.7529 153.7716 -25.7529 Q152.3497 -25.7529 151.6076 -24.8545 Q150.8654 -23.9561 150.8654 -22.2373 Z" /><ns0:path style="fill:none; stroke:black;" d="M-50.9371 -21.317 L-50.448 -21.213 L-50.0764 -21.5475" /><ns0:path style="fill:none; stroke:black;" d="M-79.3019 -27.346 L-79.791 -27.45 L-80.041 -27.017" /><ns0:path style="fill:rgb(0,5,255); stroke:none;" d="M-43.9614 12.7812 L-45.1021 12.7812 L-49.7896 5.5938 L-49.8364 5.5938 Q-49.7427 6.8594 -49.7427 7.9062 L-49.7427 12.7812 L-50.6646 12.7812 L-50.6646 4.2188 L-49.5396 4.2188 L-44.8677 11.375 L-44.8208 11.375 Q-44.8208 11.2188 -44.8677 10.3594 Q-44.9146 9.5 -44.8989 9.125 L-44.8989 4.2188 L-43.9614 4.2188 L-43.9614 12.7812 Z" /><ns0:path style="fill:rgb(0,5,255); stroke:none;" d="M-36.4458 12.7812 L-37.4458 12.7812 L-37.4458 8.75 L-41.9614 8.75 L-41.9614 12.7812 L-42.9614 12.7812 L-42.9614 4.2188 L-41.9614 4.2188 L-41.9614 7.8594 L-37.4458 7.8594 L-37.4458 4.2188 L-36.4458 4.2188 L-36.4458 12.7812 Z" /><ns0:path style="fill:none; stroke:black;" d="M-94.4565 -1.0984 L-94.791 -1.47 L-94.541 -1.903" /><ns0:path style="fill:none; stroke:black;" d="M-75.0525 20.4544 L-74.718 20.826 L-74.822 21.3151" /><ns0:path style="fill:none; stroke:black;" d="M-0.0975 -32.1705 L0.378 -32.016 L0.7825 -32.3099" /><ns0:path style="fill:none; stroke:black;" d="M25.0525 -49.3561 L24.648 -49.65 L24.2435 -49.3561" /><ns0:path style="fill:rgb(0,5,255); stroke:none;" d="M12.9996 0.6732 L11.8589 0.6732 L7.1714 -6.5142 L7.1246 -6.5142 Q7.2183 -5.2486 7.2183 -4.2017 L7.2183 0.6732 L6.2964 0.6732 L6.2964 -7.8892 L7.4214 -7.8892 L12.0933 -0.733 L12.1402 -0.733 Q12.1402 -0.8893 12.0933 -1.7486 Q12.0464 -2.608 12.0621 -2.983 L12.0621 -7.8892 L12.9996 -7.8892 L12.9996 0.6732 Z" /><ns0:path style="fill:none; stroke:black;" d="M48.5135 -32.3099 L48.918 -32.016 L49.3935 -32.1705" /><ns0:path style="fill:none; stroke:black;" d="M39.148 -3.483 L39.648 -3.483 L39.8025 -3.9585" /><ns0:path style="fill:none; stroke:black;" d="M-109.0125 59.2875 L-109.488 59.442 L-109.6425 59.9175" /><ns0:path style="fill:none; stroke:black;" d="M-118.4641 88.3765 L-118.758 87.972 L-118.6035 87.4965" /><ns0:path style="fill:rgb(0,5,255); stroke:none;" d="M-130.4064 45.9642 L-131.5471 45.9642 L-136.2346 38.7767 L-136.2814 38.7767 Q-136.1877 40.0424 -136.1877 41.0892 L-136.1877 45.9642 L-137.1096 45.9642 L-137.1096 37.4017 L-135.9846 37.4017 L-131.3127 44.558 L-131.2658 44.558 Q-131.2658 44.4017 -131.3127 43.5424 Q-131.3596 42.683 -131.3439 42.308 L-131.3439 37.4017 L-130.4064 37.4017 L-130.4064 45.9642 Z" /><ns0:path style="fill:rgb(0,5,255); stroke:none;" d="M-130.5002 36.4017 L-131.5002 36.4017 L-131.5002 32.3705 L-136.0158 32.3705 L-136.0158 36.4017 L-137.0158 36.4017 L-137.0158 27.8392 L-136.0158 27.8392 L-136.0158 31.4799 L-131.5002 31.4799 L-131.5002 27.8392 L-130.5002 27.8392 L-130.5002 36.4017 Z" /></ns0:g><ns0:g transform="translate(193,147)" style="stroke-linecap:butt; font-size:8.4px; fill:gray; text-rendering:geometricPrecision; image-rendering:optimizeQuality; color-rendering:optimizeQuality; font-family:'Open Sans'; font-style:italic; stroke:gray; color-interpolation:linearRGB; stroke-miterlimit:5;"><ns0:path style="stroke:none;" d="M-163.0235 87.5716 Q-163.0235 86.2435 -162.5547 85.1185 Q-162.086 83.9935 -161.0547 82.9154 L-160.4454 82.9154 Q-161.4141 83.9779 -161.8985 85.1497 Q-162.3829 86.3216 -162.3829 87.556 Q-162.3829 88.8841 -161.9454 89.8997 L-162.461 89.8997 Q-163.0235 88.8685 -163.0235 87.5716 ZM-159.4634 86.2591 L-159.9634 88.6341 L-160.6197 88.6341 L-159.4166 82.9154 L-158.1666 82.9154 Q-156.4322 82.9154 -156.4322 84.3529 Q-156.4322 85.7122 -157.8697 86.1029 L-156.9322 88.6341 L-157.6509 88.6341 L-158.4791 86.2591 L-159.4634 86.2591 ZM-158.8853 83.5091 Q-159.2759 85.431 -159.3384 85.681 L-158.6822 85.681 Q-157.9322 85.681 -157.5259 85.3529 Q-157.1197 85.0247 -157.1197 84.3997 Q-157.1197 83.931 -157.3775 83.7201 Q-157.6353 83.5091 -158.2291 83.5091 L-158.8853 83.5091 ZM-154.2462 85.2591 Q-154.2462 86.5872 -154.7228 87.7201 Q-155.1993 88.8529 -156.215 89.8997 L-156.8243 89.8997 Q-154.8868 87.7435 -154.8868 85.2591 Q-154.8868 83.931 -155.3243 82.9154 L-154.8087 82.9154 Q-154.2462 83.9779 -154.2462 85.2591 Z" /><ns0:path style="fill:none; stroke:black;" d="M-157.6235 59.1481 L-158.028 59.442 L-157.8735 59.9175" /><ns0:path style="fill:none; stroke:black;" d="M86.6197 17.7043 L87.117 17.652 L87.367 17.219" /><ns0:path style="fill:none; stroke:black;" d="M107.6498 39.7416 L107.193 39.945 L107.0891 40.4341" /></ns0:g><ns0:g transform="translate(193,147)" style="stroke-linecap:butt; fill:rgb(0,5,255); text-rendering:geometricPrecision; color-rendering:optimizeQuality; image-rendering:optimizeQuality; font-family:'Open Sans'; stroke:rgb(0,5,255); color-interpolation:linearRGB; stroke-miterlimit:5;"><ns0:path style="stroke:none;" d="M105.4686 -4.1748 L104.3279 -4.1748 L99.6404 -11.3623 L99.5936 -11.3623 Q99.6873 -10.0966 99.6873 -9.0498 L99.6873 -4.1748 L98.7654 -4.1748 L98.7654 -12.7373 L99.8904 -12.7373 L104.5623 -5.581 L104.6092 -5.581 Q104.6092 -5.7373 104.5623 -6.5966 Q104.5154 -7.456 104.5311 -7.831 L104.5311 -12.7373 L105.4686 -12.7373 L105.4686 -4.1748 Z" /><ns0:path style="stroke:none;" d="M105.3748 -13.7373 L104.3748 -13.7373 L104.3748 -17.7685 L99.8592 -17.7685 L99.8592 -13.7373 L98.8592 -13.7373 L98.8592 -22.2998 L99.8592 -22.2998 L99.8592 -18.6591 L104.3748 -18.6591 L104.3748 -22.2998 L105.3748 -22.2998 L105.3748 -13.7373 Z" /><ns0:path style="fill:none; stroke:black;" d="M134.1412 27.9474 L134.598 27.744 L135.031 27.994" /><ns0:path style="fill:none; stroke:black;" d="M130.9739 -2.1979 L131.463 -2.094 L131.5152 -1.5967" /></ns0:g></ns0:g></ns0:svg></ns0:svg></ns0:svg></ns0:svg></g></svg>