<svg width="149" viewBox="0 0 149 103" style="fill-opacity:1; color-rendering:auto; color-interpolation:auto; text-rendering:auto; stroke:black; stroke-linecap:square; stroke-miterlimit:10; shape-rendering:auto; stroke-opacity:1; fill:black; stroke-dasharray:none; font-weight:normal; stroke-width:1; font-family:'Open Sans'; font-style:normal; stroke-linejoin:miter; font-size:12; stroke-dashoffset:0; image-rendering:auto;" height="103" class="cas-substance-image" xmlns:xlink="http://www.w3.org/1999/xlink" xmlns="http://www.w3.org/2000/svg"><svg class="cas-substance-single-component"><rect y="0" x="0" width="149" stroke="none" ry="7" rx="7" height="103" fill="white" class="cas-substance-group"/><svg y="0" x="0" width="149" viewBox="0 0 149 103" style="fill:black;" height="103" class="cas-substance-single-component-image"><svg><g><g transform="translate(75,51)" style="text-rendering:geometricPrecision; color-rendering:optimizeQuality; color-interpolation:linearRGB; stroke-linecap:butt; image-rendering:optimizeQuality;"><line y2="7.2624" y1="-12.99" x2="4.1931" x1="-7.5" style="fill:none;"/><line y2="-12.99" y1="-12.99" x2="-37.5" x1="-7.5" style="fill:none;"/><line y2="12.99" y1="12.99" x2="32.8567" x1="13.4375" style="fill:none;"/><line y2="10.6238" y1="-12.99" x2="-37.5" x1="-37.5" style="fill:none;"/><line y2="-12.99" y1="-12.99" x2="-61.082" x1="-37.5" style="fill:none;"/><line y2="-36.4275" y1="-12.99" x2="-37.5" x1="-37.5" style="fill:none;"/><line y2="36.5837" y1="19.3337" x2="37.5" x1="37.5" style="fill:none;"/><line y2="14.74" y1="14.74" x2="61.5625" x1="42.061" style="fill:none;"/><line y2="11.24" y1="11.24" x2="61.5625" x1="42.061" style="fill:none;"/><line y2="-10.6584" y1="6.5212" x2="39.25" x1="39.25" style="fill:none;"/><line y2="-10.6584" y1="6.5212" x2="35.75" x1="35.75" style="fill:none;"/><path style="fill:none; stroke-miterlimit:5;" d="M-7.25 -12.557 L-7.5 -12.99 L-8 -12.99"/></g><g transform="translate(75,51)" style="stroke-linecap:butt; fill:rgb(230,0,0); text-rendering:geometricPrecision; color-rendering:optimizeQuality; image-rendering:optimizeQuality; font-family:'Open Sans'; stroke:rgb(230,0,0); color-interpolation:linearRGB; stroke-miterlimit:5;"><path style="stroke:none;" d="M11.4375 12.9197 Q11.4375 14.9822 10.3984 16.1619 Q9.3594 17.3416 7.5156 17.3416 Q5.625 17.3416 4.5938 16.1775 Q3.5625 15.0134 3.5625 12.9041 Q3.5625 10.8103 4.5938 9.6619 Q5.625 8.5134 7.5156 8.5134 Q9.375 8.5134 10.4062 9.6853 Q11.4375 10.8572 11.4375 12.9197 ZM4.6094 12.9197 Q4.6094 14.6541 5.3516 15.5603 Q6.0938 16.4666 7.5156 16.4666 Q8.9375 16.4666 9.6641 15.5681 Q10.3906 14.6697 10.3906 12.9197 Q10.3906 11.1853 9.6641 10.2947 Q8.9375 9.4041 7.5156 9.4041 Q6.0938 9.4041 5.3516 10.3025 Q4.6094 11.2009 4.6094 12.9197 Z"/><path style="fill:rgb(148,108,0); stroke:none;" d="M40.1953 14.9275 Q40.1953 16.0525 39.375 16.6931 Q38.5547 17.3337 37.1484 17.3337 Q35.6172 17.3337 34.8047 16.9275 L34.8047 15.9744 Q35.3359 16.1931 35.9531 16.3259 Q36.5703 16.4587 37.1797 16.4587 Q38.1797 16.4587 38.6797 16.0759 Q39.1797 15.6931 39.1797 15.0212 Q39.1797 14.5837 39 14.2947 Q38.8203 14.0056 38.4062 13.7634 Q37.9922 13.5212 37.1328 13.2244 Q35.9453 12.8025 35.4297 12.2166 Q34.9141 11.6306 34.9141 10.6775 Q34.9141 9.6931 35.6562 9.1072 Q36.3984 8.5212 37.6328 8.5212 Q38.8984 8.5212 39.9766 8.99 L39.6641 9.8494 Q38.6016 9.4119 37.6016 9.4119 Q36.8047 9.4119 36.3594 9.7478 Q35.9141 10.0837 35.9141 10.6931 Q35.9141 11.1306 36.0781 11.4197 Q36.2422 11.7087 36.6328 11.9431 Q37.0234 12.1775 37.8359 12.4744 Q39.1797 12.9431 39.6875 13.4978 Q40.1953 14.0525 40.1953 14.9275 Z"/><path style="fill:rgb(0,138,0); stroke:none;" d="M-37.8086 13.6506 Q-39.2148 13.6506 -40.0352 14.5881 Q-40.8555 15.5256 -40.8555 17.1662 Q-40.8555 18.8381 -40.0664 19.76 Q-39.2773 20.6819 -37.8242 20.6819 Q-36.918 20.6819 -35.7773 20.3537 L-35.7773 21.2287 Q-36.668 21.5725 -37.9648 21.5725 Q-39.8555 21.5725 -40.8867 20.4162 Q-41.918 19.26 -41.918 17.1506 Q-41.918 15.8225 -41.4258 14.8303 Q-40.9336 13.8381 -39.9961 13.2991 Q-39.0586 12.76 -37.793 12.76 Q-36.4492 12.76 -35.4336 13.2444 L-35.8555 14.1037 Q-36.8398 13.6506 -37.8086 13.6506 ZM-33.082 21.4475 L-34.0508 21.4475 L-34.0508 12.3225 L-33.082 12.3225 L-33.082 21.4475 Z"/><path style="fill:rgb(0,138,0); stroke:none;" d="M-67.8086 -16.3494 Q-69.2148 -16.3494 -70.0352 -15.4119 Q-70.8555 -14.4744 -70.8555 -12.8337 Q-70.8555 -11.1619 -70.0664 -10.24 Q-69.2773 -9.3181 -67.8242 -9.3181 Q-66.918 -9.3181 -65.7773 -9.6462 L-65.7773 -8.7712 Q-66.668 -8.4275 -67.9648 -8.4275 Q-69.8555 -8.4275 -70.8867 -9.5837 Q-71.918 -10.74 -71.918 -12.8494 Q-71.918 -14.1775 -71.4258 -15.1697 Q-70.9336 -16.1619 -69.9961 -16.7009 Q-69.0586 -17.24 -67.793 -17.24 Q-66.4492 -17.24 -65.4336 -16.7556 L-65.8555 -15.8962 Q-66.8398 -16.3494 -67.8086 -16.3494 ZM-63.082 -8.5525 L-64.0508 -8.5525 L-64.0508 -17.6775 L-63.082 -17.6775 L-63.082 -8.5525 Z"/><path style="fill:rgb(0,138,0); stroke:none;" d="M-37.8086 -46.3494 Q-39.2148 -46.3494 -40.0352 -45.4119 Q-40.8555 -44.4744 -40.8555 -42.8337 Q-40.8555 -41.1619 -40.0664 -40.24 Q-39.2773 -39.3181 -37.8242 -39.3181 Q-36.918 -39.3181 -35.7773 -39.6462 L-35.7773 -38.7712 Q-36.668 -38.4275 -37.9648 -38.4275 Q-39.8555 -38.4275 -40.8867 -39.5837 Q-41.918 -40.74 -41.918 -42.8494 Q-41.918 -44.1775 -41.4258 -45.1697 Q-40.9336 -46.1619 -39.9961 -46.7009 Q-39.0586 -47.24 -37.793 -47.24 Q-36.4492 -47.24 -35.4336 -46.7556 L-35.8555 -45.8962 Q-36.8398 -46.3494 -37.8086 -46.3494 ZM-33.082 -38.5525 L-34.0508 -38.5525 L-34.0508 -47.6775 L-33.082 -47.6775 L-33.082 -38.5525 Z"/><path style="fill:rgb(0,5,255); stroke:none;" d="M40.8516 47.1462 L39.7109 47.1462 L35.0234 39.9587 L34.9766 39.9587 Q35.0703 41.2244 35.0703 42.2712 L35.0703 47.1462 L34.1484 47.1462 L34.1484 38.5837 L35.2734 38.5837 L39.9453 45.74 L39.9922 45.74 Q39.9922 45.5837 39.9453 44.7244 Q39.8984 43.865 39.9141 43.49 L39.9141 38.5837 L40.8516 38.5837 L40.8516 47.1462 Z"/><path style="fill:rgb(0,5,255); stroke:none;" d="M48.3672 47.1462 L47.3672 47.1462 L47.3672 43.115 L42.8516 43.115 L42.8516 47.1462 L41.8516 47.1462 L41.8516 38.5837 L42.8516 38.5837 L42.8516 42.2244 L47.3672 42.2244 L47.3672 38.5837 L48.3672 38.5837 L48.3672 47.1462 Z"/><path style="fill:rgb(0,5,255); stroke:none;" d="M53.1172 48.9556 L49.3672 48.9556 L49.3672 48.3931 L50.8672 46.8775 Q51.5547 46.19 51.7734 45.8931 Q51.9922 45.5962 52.1016 45.315 Q52.2109 45.0337 52.2109 44.7056 Q52.2109 44.2525 51.9375 43.9869 Q51.6641 43.7212 51.1641 43.7212 Q50.8203 43.7212 50.5 43.8384 Q50.1797 43.9556 49.7891 44.2525 L49.4453 43.815 Q50.2266 43.1587 51.1641 43.1587 Q51.9609 43.1587 52.4219 43.5728 Q52.8828 43.9869 52.8828 44.6744 Q52.8828 45.2212 52.5781 45.7525 Q52.2734 46.2837 51.4297 47.0962 L50.1797 48.315 L50.1797 48.3462 L53.1172 48.3462 L53.1172 48.9556 Z"/><path style="stroke:none;" d="M71.4375 12.9197 Q71.4375 14.9822 70.3984 16.1619 Q69.3594 17.3416 67.5156 17.3416 Q65.625 17.3416 64.5938 16.1775 Q63.5625 15.0134 63.5625 12.9041 Q63.5625 10.8103 64.5938 9.6619 Q65.625 8.5134 67.5156 8.5134 Q69.375 8.5134 70.4062 9.6853 Q71.4375 10.8572 71.4375 12.9197 ZM64.6094 12.9197 Q64.6094 14.6541 65.3516 15.5603 Q66.0938 16.4666 67.5156 16.4666 Q68.9375 16.4666 69.6641 15.5681 Q70.3906 14.6697 70.3906 12.9197 Q70.3906 11.1853 69.6641 10.2947 Q68.9375 9.4041 67.5156 9.4041 Q66.0938 9.4041 65.3516 10.3025 Q64.6094 11.2009 64.6094 12.9197 Z"/><path style="stroke:none;" d="M41.4375 -17.0803 Q41.4375 -15.0178 40.3984 -13.8381 Q39.3594 -12.6584 37.5156 -12.6584 Q35.625 -12.6584 34.5938 -13.8225 Q33.5625 -14.9866 33.5625 -17.0959 Q33.5625 -19.1897 34.5938 -20.3381 Q35.625 -21.4866 37.5156 -21.4866 Q39.375 -21.4866 40.4062 -20.3147 Q41.4375 -19.1428 41.4375 -17.0803 ZM34.6094 -17.0803 Q34.6094 -15.3459 35.3516 -14.4397 Q36.0938 -13.5334 37.5156 -13.5334 Q38.9375 -13.5334 39.6641 -14.4319 Q40.3906 -15.3303 40.3906 -17.0803 Q40.3906 -18.8147 39.6641 -19.7053 Q38.9375 -20.5959 37.5156 -20.5959 Q36.0938 -20.5959 35.3516 -19.6975 Q34.6094 -18.7991 34.6094 -17.0803 Z"/></g></g></svg></svg></svg></svg>