<svg xmlns:ns0="http://www.w3.org/2000/svg" xmlns="http://www.w3.org/2000/svg"><g transform="translate(0, 0)"><ns0:svg width="226" viewBox="0 0 226 101" style="fill-opacity:1; color-rendering:auto; color-interpolation:auto; text-rendering:auto; stroke:black; stroke-linecap:square; stroke-miterlimit:10; shape-rendering:auto; stroke-opacity:1; fill:black; stroke-dasharray:none; font-weight:normal; stroke-width:1; font-family:'Open Sans'; font-style:normal; stroke-linejoin:miter; font-size:12; stroke-dashoffset:0; image-rendering:auto;" height="101" class="cas-substance-image"><ns0:svg class="cas-substance-single-component"><ns0:rect y="0" x="0" width="226" stroke="none" ry="7" rx="7" height="101" fill="white" class="cas-substance-group" /><ns0:svg y="0" x="0" width="226" viewBox="0 0 226 101" style="fill:black;" height="101" class="cas-substance-single-component-image"><ns0:svg><ns0:g><ns0:g transform="translate(118,52)" style="text-rendering:geometricPrecision; color-rendering:optimizeQuality; color-interpolation:linearRGB; stroke-linecap:butt; image-rendering:optimizeQuality;"><ns0:line y2="-3.2412" y1="-15" x2="46.3487" x1="25.98" style="fill:none;" /><ns0:line y2="-38.6484" y1="-13.9897" x2="27.73" x1="27.73" style="fill:none;" /><ns0:line y2="-38.6484" y1="-13.9896" x2="24.23" x1="24.23" style="fill:none;" /><ns0:line y2="0" y1="-15" x2="0" x1="25.98" style="fill:none;" /><ns0:line y2="-15" y1="-3.226" x2="77.943" x1="57.5505" style="fill:none;" /><ns0:line y2="0" y1="-15" x2="103.923" x1="77.943" style="fill:none;" /><ns0:line y2="-3.226" y1="-15" x2="-98.3355" x1="-77.943" style="fill:none;" /><ns0:line y2="-38.6484" y1="-13.9896" x2="-76.193" x1="-76.193" style="fill:none;" /><ns0:line y2="-38.6484" y1="-13.9896" x2="-79.693" x1="-79.693" style="fill:none;" /><ns0:line y2="0" y1="-15" x2="-51.963" x1="-77.943" style="fill:none;" /><ns0:line y2="-12.0649" y1="0" x2="-20.8964" x1="0" style="fill:none;" /><ns0:line y2="30" y1="0" x2="0" x1="0" style="fill:none;" /><ns0:line y2="27.9793" y1="2.0207" x2="-3.5" x1="-3.5" style="fill:none;" /><ns0:line y2="0" y1="-12.0652" x2="-51.963" x1="-31.0637" style="fill:none;" /><ns0:line y2="2.0209" y1="-9.0341" x2="-48.4631" x1="-29.3138" style="fill:none;" /><ns0:line y2="45" y1="30" x2="-25.98" x1="0" style="fill:none;" /><ns0:line y2="30" y1="0" x2="-51.963" x1="-51.963" style="fill:none;" /><ns0:line y2="30" y1="45" x2="-51.963" x1="-25.98" style="fill:none;" /><ns0:line y2="27.9791" y1="40.9585" x2="-48.4631" x1="-25.9802" style="fill:none;" /><ns0:path style="fill:none; stroke-miterlimit:5;" d="M26.413 -14.75 L25.98 -15 L25.547 -14.75" /></ns0:g><ns0:g transform="translate(118,52)" style="stroke-linecap:butt; fill:rgb(230,0,0); text-rendering:geometricPrecision; color-rendering:optimizeQuality; image-rendering:optimizeQuality; font-family:'Open Sans'; stroke:rgb(230,0,0); color-interpolation:linearRGB; stroke-miterlimit:5;"><ns0:path style="stroke:none;" d="M55.9005 -0.0703 Q55.9005 1.9922 54.8614 3.1719 Q53.8224 4.3516 51.9786 4.3516 Q50.088 4.3516 49.0568 3.1875 Q48.0255 2.0234 48.0255 -0.0859 Q48.0255 -2.1797 49.0568 -3.3281 Q50.088 -4.4766 51.9786 -4.4766 Q53.838 -4.4766 54.8693 -3.3047 Q55.9005 -2.1328 55.9005 -0.0703 ZM49.0724 -0.0703 Q49.0724 1.6641 49.8146 2.5703 Q50.5568 3.4766 51.9786 3.4766 Q53.4005 3.4766 54.1271 2.5781 Q54.8536 1.6797 54.8536 -0.0703 Q54.8536 -1.8047 54.1271 -2.6953 Q53.4005 -3.5859 51.9786 -3.5859 Q50.5568 -3.5859 49.8146 -2.6875 Q49.0724 -1.7891 49.0724 -0.0703 Z" /><ns0:path style="stroke:none;" d="M29.9175 -45.0703 Q29.9175 -43.0078 28.8784 -41.8281 Q27.8394 -40.6484 25.9956 -40.6484 Q24.105 -40.6484 23.0737 -41.8125 Q22.0425 -42.9766 22.0425 -45.0859 Q22.0425 -47.1797 23.0737 -48.3281 Q24.105 -49.4766 25.9956 -49.4766 Q27.855 -49.4766 28.8862 -48.3047 Q29.9175 -47.1328 29.9175 -45.0703 ZM23.0894 -45.0703 Q23.0894 -43.3359 23.8316 -42.4297 Q24.5737 -41.5234 25.9956 -41.5234 Q27.4175 -41.5234 28.1441 -42.4219 Q28.8706 -43.3203 28.8706 -45.0703 Q28.8706 -46.8047 28.1441 -47.6953 Q27.4175 -48.5859 25.9956 -48.5859 Q24.5737 -48.5859 23.8316 -47.6875 Q23.0894 -46.7891 23.0894 -45.0703 Z" /><ns0:path style="fill:none; stroke:black;" d="M77.51 -14.75 L77.943 -15 L78.376 -14.75" /><ns0:path style="fill:none; stroke:black;" d="M-78.376 -14.75 L-77.943 -15 L-77.51 -14.75" /><ns0:path style="stroke:none;" d="M-99.9855 -0.0703 Q-99.9855 1.9922 -101.0246 3.1719 Q-102.0636 4.3516 -103.9074 4.3516 Q-105.798 4.3516 -106.8292 3.1875 Q-107.8605 2.0234 -107.8605 -0.0859 Q-107.8605 -2.1797 -106.8292 -3.3281 Q-105.798 -4.4766 -103.9074 -4.4766 Q-102.048 -4.4766 -101.0167 -3.3047 Q-99.9855 -2.1328 -99.9855 -0.0703 ZM-106.8136 -0.0703 Q-106.8136 1.6641 -106.0714 2.5703 Q-105.3292 3.4766 -103.9074 3.4766 Q-102.4855 3.4766 -101.7589 2.5781 Q-101.0324 1.6797 -101.0324 -0.0703 Q-101.0324 -1.8047 -101.7589 -2.6953 Q-102.4855 -3.5859 -103.9074 -3.5859 Q-105.3292 -3.5859 -106.0714 -2.6875 Q-106.8136 -1.7891 -106.8136 -0.0703 Z" /><ns0:path style="stroke:none;" d="M-108.8605 4.2266 L-109.8605 4.2266 L-109.8605 0.1953 L-114.3761 0.1953 L-114.3761 4.2266 L-115.3761 4.2266 L-115.3761 -4.3359 L-114.3761 -4.3359 L-114.3761 -0.6953 L-109.8605 -0.6953 L-109.8605 -4.3359 L-108.8605 -4.3359 L-108.8605 4.2266 Z" /><ns0:path style="stroke:none;" d="M-74.0055 -45.0703 Q-74.0055 -43.0078 -75.0446 -41.8281 Q-76.0836 -40.6484 -77.9274 -40.6484 Q-79.818 -40.6484 -80.8493 -41.8125 Q-81.8805 -42.9766 -81.8805 -45.0859 Q-81.8805 -47.1797 -80.8493 -48.3281 Q-79.818 -49.4766 -77.9274 -49.4766 Q-76.068 -49.4766 -75.0368 -48.3047 Q-74.0055 -47.1328 -74.0055 -45.0703 ZM-80.8336 -45.0703 Q-80.8336 -43.3359 -80.0914 -42.4297 Q-79.3493 -41.5234 -77.9274 -41.5234 Q-76.5055 -41.5234 -75.7789 -42.4219 Q-75.0524 -43.3203 -75.0524 -45.0703 Q-75.0524 -46.8047 -75.7789 -47.6953 Q-76.5055 -48.5859 -77.9274 -48.5859 Q-79.3493 -48.5859 -80.0914 -47.6875 Q-80.8336 -46.7891 -80.8336 -45.0703 Z" /><ns0:path style="fill:none; stroke:black;" d="M-0 0.5 L0 0 L0.433 -0.25" /><ns0:path style="fill:rgb(0,5,255); stroke:none;" d="M-22.6284 -10.8438 L-23.7691 -10.8438 L-28.4566 -18.0312 L-28.5034 -18.0312 Q-28.4097 -16.7656 -28.4097 -15.7188 L-28.4097 -10.8438 L-29.3316 -10.8438 L-29.3316 -19.4062 L-28.2066 -19.4062 L-23.5347 -12.25 L-23.4878 -12.25 Q-23.4878 -12.4062 -23.5347 -13.2656 Q-23.5816 -14.125 -23.5659 -14.5 L-23.5659 -19.4062 L-22.6284 -19.4062 L-22.6284 -10.8438 Z" /><ns0:path style="fill:none; stroke:black;" d="M0 29.5 L0 30 L-0.433 30.25" /><ns0:path style="fill:none; stroke:black;" d="M-51.53 -0.25 L-51.963 0 L-51.963 0.5" /><ns0:path style="fill:none; stroke:black;" d="M-25.547 44.75 L-25.98 45 L-26.413 44.75" /><ns0:path style="fill:none; stroke:black;" d="M-51.963 29.5 L-51.963 30 L-51.53 30.25" /></ns0:g></ns0:g></ns0:svg></ns0:svg></ns0:svg></ns0:svg></g></svg>