<svg width="148" viewBox="0 0 148 150" style="fill-opacity:1; color-rendering:auto; color-interpolation:auto; text-rendering:auto; stroke:black; stroke-linecap:square; stroke-miterlimit:10; shape-rendering:auto; stroke-opacity:1; fill:black; stroke-dasharray:none; font-weight:normal; stroke-width:1; font-family:'Open Sans'; font-style:normal; stroke-linejoin:miter; font-size:12; stroke-dashoffset:0; image-rendering:auto;" height="150" class="cas-substance-image" xmlns:xlink="http://www.w3.org/1999/xlink" xmlns="http://www.w3.org/2000/svg"><svg class="cas-substance-single-component"><rect y="0" x="0" width="148" stroke="none" ry="7" rx="7" height="150" fill="white" class="cas-substance-group"/><svg y="0" x="0" width="148" viewBox="0 0 148 150" style="fill:black;" height="150" class="cas-substance-single-component-image"><svg><g><g transform="translate(79,75)" style="text-rendering:geometricPrecision; color-rendering:optimizeQuality; color-interpolation:linearRGB; stroke-linecap:butt; image-rendering:optimizeQuality;"><line y2="-22.5" y1="7.5" x2="-12.99" x1="-12.99" style="fill:none;"/><line y2="22.5" y1="7.5" x2="12.99" x1="-12.99" style="fill:none;"/><line y2="-37.5" y1="-22.5" x2="-38.97" x1="-12.99" style="fill:none;"/><path style="stroke:none;" d="M-12.74 -22.067 L-13.24 -22.933 L6.4064 -37.163 L9.4064 -31.9668 Z"/><line y2="-25.7258" y1="-37.5" x2="-59.3653" x1="-38.97" style="fill:none;"/><line y2="-61.1484" y1="-36.4896" x2="-37.22" x1="-37.22" style="fill:none;"/><line y2="-61.1484" y1="-36.4897" x2="-40.72" x1="-40.72" style="fill:none;"/><line y2="52.5" y1="63.9492" x2="12.99" x1="-6.84" style="fill:none;"/><line y2="7.5" y1="-15.9375" x2="38.97" x1="38.97" style="fill:none;"/><line y2="52.5" y1="22.5" x2="12.99" x1="12.99" style="fill:none;"/><line y2="50.4793" y1="24.5207" x2="16.49" x1="16.49" style="fill:none;"/><line y2="7.5" y1="22.5" x2="38.97" x1="12.99" style="fill:none;"/><line y2="67.5" y1="52.5" x2="38.97" x1="12.99" style="fill:none;"/><line y2="22.5" y1="7.5" x2="64.953" x1="38.97" style="fill:none;"/><line y2="24.5209" y1="11.5415" x2="61.4531" x1="38.9702" style="fill:none;"/><line y2="52.5" y1="67.5" x2="64.953" x1="38.97" style="fill:none;"/><line y2="50.4791" y1="63.4585" x2="61.4531" x1="38.9702" style="fill:none;"/><line y2="52.5" y1="22.5" x2="64.953" x1="64.953" style="fill:none;"/><path style="fill:none; stroke-miterlimit:5;" d="M-12.99 7 L-12.99 7.5 L-12.557 7.75"/></g><g transform="translate(79,75)" style="stroke-linecap:butt; font-size:8.4px; fill:gray; text-rendering:geometricPrecision; image-rendering:optimizeQuality; color-rendering:optimizeQuality; font-family:'Open Sans'; font-style:italic; stroke:gray; color-interpolation:linearRGB; stroke-miterlimit:5;"><path style="stroke:none;" d="M-17.0985 -31.2969 Q-17.0985 -32.625 -16.6298 -33.75 Q-16.161 -34.875 -15.1298 -35.9531 L-14.5204 -35.9531 Q-15.4891 -34.8906 -15.9735 -33.7188 Q-16.4579 -32.5469 -16.4579 -31.3125 Q-16.4579 -29.9844 -16.0204 -28.9688 L-16.536 -28.9688 Q-17.0985 -30 -17.0985 -31.2969 ZM-11.476 -31.8906 Q-11.476 -31.0625 -12.0228 -30.6094 Q-12.5697 -30.1562 -13.5697 -30.1562 Q-13.976 -30.1562 -14.2885 -30.2109 Q-14.601 -30.2656 -14.8822 -30.4062 L-14.8822 -31.0625 Q-14.2572 -30.7344 -13.5541 -30.7344 Q-12.9291 -30.7344 -12.5541 -31.0312 Q-12.1791 -31.3281 -12.1791 -31.8438 Q-12.1791 -32.1562 -12.3822 -32.3828 Q-12.5853 -32.6094 -13.1478 -32.9375 Q-13.7416 -33.2656 -13.9681 -33.5938 Q-14.1947 -33.9219 -14.1947 -34.375 Q-14.1947 -35.1094 -13.6791 -35.5703 Q-13.1635 -36.0312 -12.3197 -36.0312 Q-11.9447 -36.0312 -11.6088 -35.9531 Q-11.2728 -35.875 -10.8978 -35.7031 L-11.1635 -35.1094 Q-11.4135 -35.2656 -11.7338 -35.3516 Q-12.0541 -35.4375 -12.3197 -35.4375 Q-12.851 -35.4375 -13.1713 -35.1641 Q-13.4916 -34.8906 -13.4916 -34.4219 Q-13.4916 -34.2188 -13.4213 -34.0703 Q-13.351 -33.9219 -13.2103 -33.7891 Q-13.0697 -33.6562 -12.6478 -33.4062 Q-12.0853 -33.0625 -11.8822 -32.8672 Q-11.6791 -32.6719 -11.5775 -32.4375 Q-11.476 -32.2031 -11.476 -31.8906 ZM-8.8815 -33.6094 Q-8.8815 -32.2812 -9.358 -31.1484 Q-9.8346 -30.0156 -10.8502 -28.9688 L-11.4596 -28.9688 Q-9.5221 -31.125 -9.5221 -33.6094 Q-9.5221 -34.9375 -9.9596 -35.9531 L-9.444 -35.9531 Q-8.8815 -34.8906 -8.8815 -33.6094 Z"/><path style="fill:none; stroke:black;" d="M-38.537 -37.25 L-38.97 -37.5 L-39.403 -37.25"/></g><g transform="translate(79,75)" style="stroke-linecap:butt; fill:rgb(0,5,255); text-rendering:geometricPrecision; color-rendering:optimizeQuality; image-rendering:optimizeQuality; font-family:'Open Sans'; stroke:rgb(0,5,255); color-interpolation:linearRGB; stroke-miterlimit:5;"><path style="stroke:none;" d="M16.3416 -33.3438 L15.2009 -33.3438 L10.5134 -40.5312 L10.4666 -40.5312 Q10.5603 -39.2656 10.5603 -38.2188 L10.5603 -33.3438 L9.6384 -33.3438 L9.6384 -41.9062 L10.7634 -41.9062 L15.4353 -34.75 L15.4822 -34.75 Q15.4822 -34.9062 15.4353 -35.7656 Q15.3884 -36.625 15.4041 -37 L15.4041 -41.9062 L16.3416 -41.9062 L16.3416 -33.3438 Z"/><path style="stroke:none;" d="M23.8572 -33.3438 L22.8572 -33.3438 L22.8572 -37.375 L18.3416 -37.375 L18.3416 -33.3438 L17.3416 -33.3438 L17.3416 -41.9062 L18.3416 -41.9062 L18.3416 -38.2656 L22.8572 -38.2656 L22.8572 -41.9062 L23.8572 -41.9062 L23.8572 -33.3438 Z"/><path style="stroke:none;" d="M28.6072 -31.5344 L24.8572 -31.5344 L24.8572 -32.0969 L26.3572 -33.6125 Q27.0447 -34.3 27.2634 -34.5969 Q27.4822 -34.8937 27.5916 -35.175 Q27.7009 -35.4562 27.7009 -35.7844 Q27.7009 -36.2375 27.4275 -36.5031 Q27.1541 -36.7687 26.6541 -36.7687 Q26.3103 -36.7687 25.99 -36.6516 Q25.6697 -36.5344 25.2791 -36.2375 L24.9353 -36.675 Q25.7166 -37.3312 26.6541 -37.3312 Q27.4509 -37.3312 27.9119 -36.9172 Q28.3728 -36.5031 28.3728 -35.8156 Q28.3728 -35.2687 28.0681 -34.7375 Q27.7634 -34.2062 26.9197 -33.3937 L25.6697 -32.175 L25.6697 -32.1437 L28.6072 -32.1437 L28.6072 -31.5344 Z"/><path style="fill:rgb(230,0,0); stroke:none;" d="M-61.0155 -22.5703 Q-61.0155 -20.5078 -62.0546 -19.3281 Q-63.0936 -18.1484 -64.9374 -18.1484 Q-66.828 -18.1484 -67.8593 -19.3125 Q-68.8905 -20.4766 -68.8905 -22.5859 Q-68.8905 -24.6797 -67.8593 -25.8281 Q-66.828 -26.9766 -64.9374 -26.9766 Q-63.078 -26.9766 -62.0468 -25.8047 Q-61.0155 -24.6328 -61.0155 -22.5703 ZM-67.8436 -22.5703 Q-67.8436 -20.8359 -67.1014 -19.9297 Q-66.3593 -19.0234 -64.9374 -19.0234 Q-63.5155 -19.0234 -62.7889 -19.9219 Q-62.0624 -20.8203 -62.0624 -22.5703 Q-62.0624 -24.3047 -62.7889 -25.1953 Q-63.5155 -26.0859 -64.9374 -26.0859 Q-66.3593 -26.0859 -67.1014 -25.1875 Q-67.8436 -24.2891 -67.8436 -22.5703 Z"/><path style="fill:rgb(230,0,0); stroke:none;" d="M-69.8905 -18.2734 L-70.8905 -18.2734 L-70.8905 -22.3047 L-75.4061 -22.3047 L-75.4061 -18.2734 L-76.4061 -18.2734 L-76.4061 -26.8359 L-75.4061 -26.8359 L-75.4061 -23.1953 L-70.8905 -23.1953 L-70.8905 -26.8359 L-69.8905 -26.8359 L-69.8905 -18.2734 Z"/><path style="fill:rgb(230,0,0); stroke:none;" d="M-35.0325 -67.5703 Q-35.0325 -65.5078 -36.0716 -64.3281 Q-37.1106 -63.1484 -38.9544 -63.1484 Q-40.845 -63.1484 -41.8763 -64.3125 Q-42.9075 -65.4766 -42.9075 -67.5859 Q-42.9075 -69.6797 -41.8763 -70.8281 Q-40.845 -71.9766 -38.9544 -71.9766 Q-37.095 -71.9766 -36.0638 -70.8047 Q-35.0325 -69.6328 -35.0325 -67.5703 ZM-41.8606 -67.5703 Q-41.8606 -65.8359 -41.1184 -64.9297 Q-40.3763 -64.0234 -38.9544 -64.0234 Q-37.5325 -64.0234 -36.8059 -64.9219 Q-36.0794 -65.8203 -36.0794 -67.5703 Q-36.0794 -69.3047 -36.8059 -70.1953 Q-37.5325 -71.0859 -38.9544 -71.0859 Q-40.3763 -71.0859 -41.1184 -70.1875 Q-41.8606 -69.2891 -41.8606 -67.5703 Z"/><path style="fill:rgb(0,138,0); stroke:none;" d="M-13.2986 64.1406 Q-14.7048 64.1406 -15.5252 65.0781 Q-16.3455 66.0156 -16.3455 67.6562 Q-16.3455 69.3281 -15.5564 70.25 Q-14.7673 71.1719 -13.3142 71.1719 Q-12.408 71.1719 -11.2673 70.8438 L-11.2673 71.7188 Q-12.158 72.0625 -13.4548 72.0625 Q-15.3455 72.0625 -16.3767 70.9062 Q-17.408 69.75 -17.408 67.6406 Q-17.408 66.3125 -16.9158 65.3203 Q-16.4236 64.3281 -15.4861 63.7891 Q-14.5486 63.25 -13.283 63.25 Q-11.9392 63.25 -10.9236 63.7344 L-11.3455 64.5938 Q-12.3298 64.1406 -13.2986 64.1406 ZM-8.572 71.9375 L-9.5408 71.9375 L-9.5408 62.8125 L-8.572 62.8125 L-8.572 71.9375 Z"/><path style="fill:rgb(0,138,0); stroke:none;" d="M38.6614 -25.8594 Q37.2552 -25.8594 36.4348 -24.9219 Q35.6145 -23.9844 35.6145 -22.3438 Q35.6145 -20.6719 36.4036 -19.75 Q37.1927 -18.8281 38.6458 -18.8281 Q39.552 -18.8281 40.6927 -19.1562 L40.6927 -18.2812 Q39.802 -17.9375 38.5052 -17.9375 Q36.6145 -17.9375 35.5833 -19.0938 Q34.552 -20.25 34.552 -22.3594 Q34.552 -23.6875 35.0442 -24.6797 Q35.5364 -25.6719 36.4739 -26.2109 Q37.4114 -26.75 38.677 -26.75 Q40.0208 -26.75 41.0364 -26.2656 L40.6145 -25.4062 Q39.6302 -25.8594 38.6614 -25.8594 ZM43.388 -18.0625 L42.4192 -18.0625 L42.4192 -27.1875 L43.388 -27.1875 L43.388 -18.0625 Z"/><path style="fill:none; stroke:black;" d="M12.99 23 L12.99 22.5 L12.557 22.25"/><path style="fill:none; stroke:black;" d="M12.99 52 L12.99 52.5 L12.557 52.75"/><path style="fill:none; stroke:black;" d="M39.403 7.75 L38.97 7.5 L38.537 7.75"/><path style="fill:none; stroke:black;" d="M38.537 67.25 L38.97 67.5 L39.403 67.25"/><path style="fill:none; stroke:black;" d="M64.52 22.25 L64.953 22.5 L64.953 23"/><path style="fill:none; stroke:black;" d="M64.52 52.75 L64.953 52.5 L64.953 52"/></g></g></svg></svg></svg></svg>