<svg xmlns:ns0="http://www.w3.org/2000/svg" xmlns="http://www.w3.org/2000/svg"><g transform="translate(0, 0)"><ns0:svg width="269" viewBox="0 0 269 123" style="fill-opacity:1; color-rendering:auto; color-interpolation:auto; text-rendering:auto; stroke:black; stroke-linecap:square; stroke-miterlimit:10; shape-rendering:auto; stroke-opacity:1; fill:black; stroke-dasharray:none; font-weight:normal; stroke-width:1; font-family:'Open Sans'; font-style:normal; stroke-linejoin:miter; font-size:12; stroke-dashoffset:0; image-rendering:auto;" height="123" class="cas-substance-image"><ns0:svg class="cas-substance-single-component"><ns0:rect y="0" x="0" width="269" stroke="none" ry="7" rx="7" height="123" fill="white" class="cas-substance-group" /><ns0:svg y="0" x="0" width="269" viewBox="0 0 269 123" style="fill:black;" height="123" class="cas-substance-single-component-image"><ns0:svg><ns0:g><ns0:g transform="translate(132,61)" style="text-rendering:geometricPrecision; color-rendering:optimizeQuality; color-interpolation:linearRGB; stroke-linecap:butt; image-rendering:optimizeQuality;"><ns0:line y2="-23.97" y1="-23.97" x2="-32.01" x1="-6.6533" style="fill:none;" /><ns0:line y2="-47.6184" y1="-30.4388" x2="-0.26" x1="-0.26" style="fill:none;" /><ns0:line y2="-47.6184" y1="-30.4388" x2="-3.76" x1="-3.76" style="fill:none;" /><ns0:line y2="-0.4466" y1="-17.6263" x2="-3.76" x1="-3.76" style="fill:none;" /><ns0:line y2="-0.4466" y1="-17.6263" x2="-0.26" x1="-0.26" style="fill:none;" /><ns0:line y2="-23.97" y1="-23.97" x2="27.99" x1="2.551" style="fill:none;" /><ns0:line y2="2.01" y1="-23.97" x2="-47.01" x1="-32.01" style="fill:none;" /><ns0:line y2="2.01" y1="2.01" x2="-71.0725" x1="-47.01" style="fill:none;" /><ns0:line y2="22.8133" y1="7.658" x2="-89.0212" x1="-80.271" style="fill:none;" /><ns0:line y2="47.3733" y1="32.6588" x2="-105.222" x1="-96.7263" style="fill:none;" /><ns0:line y2="49.1233" y1="34.4088" x2="-102.1909" x1="-93.6953" style="fill:none;" /><ns0:line y2="41.2641" y1="32.0617" x2="-72.5192" x1="-88.4577" style="fill:none;" /><ns0:line y2="38.233" y1="29.0307" x2="-70.7691" x1="-86.7076" style="fill:none;" /><ns0:line y2="16.1686" y1="25.479" x2="-112.4846" x1="-96.3591" style="fill:none;" /><ns0:line y2="-23.97" y1="-23.97" x2="87.99" x1="112.6384" style="fill:none;" /><ns0:line y2="2.01" y1="-23.97" x2="42.99" x1="27.99" style="fill:none;" /><ns0:line y2="-1.49" y1="-23.9701" x2="45.0107" x1="32.0315" style="fill:none;" /><ns0:line y2="-49.953" y1="-23.97" x2="42.99" x1="27.99" style="fill:none;" /><ns0:line y2="2.01" y1="2.01" x2="72.99" x1="42.99" style="fill:none;" /><ns0:line y2="-49.953" y1="-49.953" x2="72.99" x1="42.99" style="fill:none;" /><ns0:line y2="-46.453" y1="-46.453" x2="70.9693" x1="45.0107" style="fill:none;" /><ns0:line y2="-23.97" y1="2.01" x2="87.99" x1="72.99" style="fill:none;" /><ns0:line y2="-23.9701" y1="-1.49" x2="83.9486" x1="70.9693" style="fill:none;" /><ns0:line y2="-23.97" y1="-49.953" x2="87.99" x1="72.99" style="fill:none;" /></ns0:g><ns0:g transform="translate(132,61)" style="fill:rgb(148,108,0); text-rendering:geometricPrecision; color-rendering:optimizeQuality; image-rendering:optimizeQuality; font-family:'Open Sans'; stroke:rgb(148,108,0); color-interpolation:linearRGB;"><ns0:path style="stroke:none;" d="M0.6853 -22.0325 Q0.6853 -20.9075 -0.135 -20.2669 Q-0.9553 -19.6263 -2.3616 -19.6263 Q-3.8928 -19.6263 -4.7053 -20.0325 L-4.7053 -20.9856 Q-4.1741 -20.7669 -3.5569 -20.6341 Q-2.9397 -20.5013 -2.3303 -20.5013 Q-1.3303 -20.5013 -0.8303 -20.8841 Q-0.3303 -21.2669 -0.3303 -21.9388 Q-0.3303 -22.3763 -0.51 -22.6653 Q-0.6897 -22.9544 -1.1038 -23.1966 Q-1.5178 -23.4388 -2.3772 -23.7356 Q-3.5647 -24.1575 -4.0803 -24.7434 Q-4.5959 -25.3294 -4.5959 -26.2825 Q-4.5959 -27.2669 -3.8538 -27.8528 Q-3.1116 -28.4388 -1.8772 -28.4388 Q-0.6116 -28.4388 0.4666 -27.97 L0.1541 -27.1106 Q-0.9084 -27.5481 -1.9084 -27.5481 Q-2.7053 -27.5481 -3.1506 -27.2122 Q-3.5959 -26.8763 -3.5959 -26.2669 Q-3.5959 -25.8294 -3.4319 -25.5403 Q-3.2678 -25.2513 -2.8772 -25.0169 Q-2.4866 -24.7825 -1.6741 -24.4856 Q-0.3303 -24.0169 0.1775 -23.4622 Q0.6853 -22.9075 0.6853 -22.0325 Z" /></ns0:g><ns0:g transform="translate(132,61)" style="stroke-linecap:butt; text-rendering:geometricPrecision; color-rendering:optimizeQuality; image-rendering:optimizeQuality; font-family:'Open Sans'; color-interpolation:linearRGB; stroke-miterlimit:5;"><ns0:path style="fill:none;" d="M-31.51 -23.97 L-32.01 -23.97 L-32.26 -23.537" /><ns0:path style="fill:rgb(230,0,0); stroke:none;" d="M1.9275 -54.0403 Q1.9275 -51.9778 0.8884 -50.7981 Q-0.1506 -49.6184 -1.9944 -49.6184 Q-3.885 -49.6184 -4.9163 -50.7825 Q-5.9475 -51.9466 -5.9475 -54.0559 Q-5.9475 -56.1497 -4.9163 -57.2981 Q-3.885 -58.4466 -1.9944 -58.4466 Q-0.135 -58.4466 0.8962 -57.2747 Q1.9275 -56.1028 1.9275 -54.0403 ZM-4.9006 -54.0403 Q-4.9006 -52.3059 -4.1584 -51.3997 Q-3.4163 -50.4934 -1.9944 -50.4934 Q-0.5725 -50.4934 0.1541 -51.3919 Q0.8806 -52.2903 0.8806 -54.0403 Q0.8806 -55.7747 0.1541 -56.6653 Q-0.5725 -57.5559 -1.9944 -57.5559 Q-3.4163 -57.5559 -4.1584 -56.6575 Q-4.9006 -55.7591 -4.9006 -54.0403 Z" /><ns0:path style="fill:rgb(230,0,0); stroke:none;" d="M1.9275 5.9597 Q1.9275 8.0222 0.8884 9.2019 Q-0.1506 10.3816 -1.9944 10.3816 Q-3.885 10.3816 -4.9163 9.2175 Q-5.9475 8.0534 -5.9475 5.9441 Q-5.9475 3.8503 -4.9163 2.7019 Q-3.885 1.5534 -1.9944 1.5534 Q-0.135 1.5534 0.8962 2.7253 Q1.9275 3.8972 1.9275 5.9597 ZM-4.9006 5.9597 Q-4.9006 7.6941 -4.1584 8.6003 Q-3.4163 9.5066 -1.9944 9.5066 Q-0.5725 9.5066 0.1541 8.6081 Q0.8806 7.7097 0.8806 5.9597 Q0.8806 4.2253 0.1541 3.3347 Q-0.5725 2.4441 -1.9944 2.4441 Q-3.4163 2.4441 -4.1584 3.3425 Q-4.9006 4.2409 -4.9006 5.9597 Z" /><ns0:path style="fill:none;" d="M-46.76 1.577 L-47.01 2.01 L-47.51 2.01" /><ns0:path style="fill:rgb(230,0,0); stroke:none;" d="M-73.0725 1.9397 Q-73.0725 4.0022 -74.1116 5.1819 Q-75.1506 6.3616 -76.9944 6.3616 Q-78.885 6.3616 -79.9162 5.1975 Q-80.9475 4.0334 -80.9475 1.9241 Q-80.9475 -0.1697 -79.9162 -1.3181 Q-78.885 -2.4666 -76.9944 -2.4666 Q-75.135 -2.4666 -74.1037 -1.2947 Q-73.0725 -0.1228 -73.0725 1.9397 ZM-79.9006 1.9397 Q-79.9006 3.6741 -79.1584 4.5803 Q-78.4162 5.4866 -76.9944 5.4866 Q-75.5725 5.4866 -74.8459 4.5881 Q-74.1194 3.6897 -74.1194 1.9397 Q-74.1194 0.2053 -74.8459 -0.6853 Q-75.5725 -1.5759 -76.9944 -1.5759 Q-78.4162 -1.5759 -79.1584 -0.6775 Q-79.9006 0.2209 -79.9006 1.9397 Z" /><ns0:path style="fill:rgb(148,108,0); stroke:none;" d="M-89.3147 29.9275 Q-89.3147 31.0525 -90.135 31.6931 Q-90.9553 32.3338 -92.3616 32.3338 Q-93.8928 32.3338 -94.7053 31.9275 L-94.7053 30.9744 Q-94.1741 31.1931 -93.5569 31.3259 Q-92.9397 31.4588 -92.3303 31.4588 Q-91.3303 31.4588 -90.8303 31.0759 Q-90.3303 30.6931 -90.3303 30.0213 Q-90.3303 29.5838 -90.51 29.2947 Q-90.6897 29.0056 -91.1037 28.7634 Q-91.5178 28.5213 -92.3772 28.2244 Q-93.5647 27.8025 -94.0803 27.2166 Q-94.5959 26.6306 -94.5959 25.6775 Q-94.5959 24.6931 -93.8537 24.1072 Q-93.1116 23.5213 -91.8772 23.5213 Q-90.6116 23.5213 -89.5334 23.99 L-89.8459 24.8494 Q-90.9084 24.4119 -91.9084 24.4119 Q-92.7053 24.4119 -93.1506 24.7478 Q-93.5959 25.0838 -93.5959 25.6931 Q-93.5959 26.1306 -93.4319 26.4197 Q-93.2678 26.7088 -92.8772 26.9431 Q-92.4866 27.1775 -91.6741 27.4744 Q-90.3303 27.9431 -89.8225 28.4978 Q-89.3147 29.0525 -89.3147 29.9275 Z" /><ns0:path style="fill:rgb(230,0,0); stroke:none;" d="M-103.0725 53.8997 Q-103.0725 55.9622 -104.1116 57.1419 Q-105.1506 58.3216 -106.9944 58.3216 Q-108.885 58.3216 -109.9162 57.1575 Q-110.9475 55.9934 -110.9475 53.8841 Q-110.9475 51.7903 -109.9162 50.6419 Q-108.885 49.4934 -106.9944 49.4934 Q-105.135 49.4934 -104.1037 50.6653 Q-103.0725 51.8372 -103.0725 53.8997 ZM-109.9006 53.8997 Q-109.9006 55.6341 -109.1584 56.5403 Q-108.4162 57.4466 -106.9944 57.4466 Q-105.5725 57.4466 -104.8459 56.5481 Q-104.1194 55.6497 -104.1194 53.8997 Q-104.1194 52.1653 -104.8459 51.2747 Q-105.5725 50.3841 -106.9944 50.3841 Q-108.4162 50.3841 -109.1584 51.2825 Q-109.9006 52.1809 -109.9006 53.8997 Z" /><ns0:path style="fill:rgb(230,0,0); stroke:none;" d="M-62.0925 42.9197 Q-62.0925 44.9822 -63.1316 46.1619 Q-64.1706 47.3416 -66.0144 47.3416 Q-67.905 47.3416 -68.9362 46.1775 Q-69.9675 45.0134 -69.9675 42.9041 Q-69.9675 40.8103 -68.9362 39.6619 Q-67.905 38.5134 -66.0144 38.5134 Q-64.155 38.5134 -63.1237 39.6853 Q-62.0925 40.8572 -62.0925 42.9197 ZM-68.9206 42.9197 Q-68.9206 44.6541 -68.1784 45.5603 Q-67.4362 46.4666 -66.0144 46.4666 Q-64.5925 46.4666 -63.8659 45.5681 Q-63.1394 44.6697 -63.1394 42.9197 Q-63.1394 41.1853 -63.8659 40.2947 Q-64.5925 39.4041 -66.0144 39.4041 Q-67.4362 39.4041 -68.1784 40.3025 Q-68.9206 41.2009 -68.9206 42.9197 Z" /><ns0:path style="fill:rgb(230,0,0); stroke:none;" d="M-114.0525 12.9197 Q-114.0525 14.9822 -115.0916 16.1619 Q-116.1306 17.3416 -117.9744 17.3416 Q-119.865 17.3416 -120.8963 16.1775 Q-121.9275 15.0134 -121.9275 12.9041 Q-121.9275 10.8103 -120.8963 9.6619 Q-119.865 8.5134 -117.9744 8.5134 Q-116.115 8.5134 -115.0838 9.6853 Q-114.0525 10.8572 -114.0525 12.9197 ZM-120.8806 12.9197 Q-120.8806 14.6541 -120.1384 15.5603 Q-119.3963 16.4666 -117.9744 16.4666 Q-116.5525 16.4666 -115.8259 15.5681 Q-115.0994 14.6697 -115.0994 12.9197 Q-115.0994 11.1853 -115.8259 10.2947 Q-116.5525 9.4041 -117.9744 9.4041 Q-119.3963 9.4041 -120.1384 10.3025 Q-120.8806 11.2009 -120.8806 12.9197 Z" /><ns0:path style="fill:rgb(230,0,0); stroke:none;" d="M-122.9275 17.2166 L-123.9275 17.2166 L-123.9275 13.1853 L-128.4431 13.1853 L-128.4431 17.2166 L-129.4431 17.2166 L-129.4431 8.6541 L-128.4431 8.6541 L-128.4431 12.2947 L-123.9275 12.2947 L-123.9275 8.6541 L-122.9275 8.6541 L-122.9275 17.2166 Z" /><ns0:path style="fill:rgb(0,5,255); stroke:none;" d="M121.3416 -19.8138 L120.2009 -19.8138 L115.5134 -27.0013 L115.4666 -27.0013 Q115.5603 -25.7356 115.5603 -24.6888 L115.5603 -19.8138 L114.6384 -19.8138 L114.6384 -28.3763 L115.7634 -28.3763 L120.4353 -21.22 L120.4822 -21.22 Q120.4822 -21.3763 120.4353 -22.2356 Q120.3884 -23.095 120.4041 -23.47 L120.4041 -28.3763 L121.3416 -28.3763 L121.3416 -19.8138 Z" /><ns0:path style="fill:rgb(0,5,255); stroke:none;" d="M128.8572 -19.8138 L127.8572 -19.8138 L127.8572 -23.845 L123.3416 -23.845 L123.3416 -19.8138 L122.3416 -19.8138 L122.3416 -28.3763 L123.3416 -28.3763 L123.3416 -24.7356 L127.8572 -24.7356 L127.8572 -28.3763 L128.8572 -28.3763 L128.8572 -19.8138 Z" /><ns0:path style="fill:rgb(0,5,255); stroke:none;" d="M133.6072 -18.0044 L129.8572 -18.0044 L129.8572 -18.5669 L131.3572 -20.0825 Q132.0447 -20.77 132.2634 -21.0669 Q132.4822 -21.3638 132.5916 -21.645 Q132.7009 -21.9263 132.7009 -22.2544 Q132.7009 -22.7075 132.4275 -22.9731 Q132.1541 -23.2388 131.6541 -23.2388 Q131.3103 -23.2388 130.99 -23.1216 Q130.6697 -23.0044 130.2791 -22.7075 L129.9353 -23.145 Q130.7166 -23.8013 131.6541 -23.8013 Q132.4509 -23.8013 132.9119 -23.3872 Q133.3728 -22.9731 133.3728 -22.2856 Q133.3728 -21.7388 133.0681 -21.2075 Q132.7634 -20.6763 131.9197 -19.8638 L130.6697 -18.645 L130.6697 -18.6138 L133.6072 -18.6138 L133.6072 -18.0044 Z" /><ns0:path style="fill:none;" d="M28.24 -23.537 L27.99 -23.97 L27.49 -23.97" /><ns0:path style="fill:none;" d="M42.74 1.577 L42.99 2.01 L43.49 2.01" /><ns0:path style="fill:none;" d="M42.74 -49.52 L42.99 -49.953 L43.49 -49.953" /><ns0:path style="fill:none;" d="M72.49 2.01 L72.99 2.01 L73.24 1.577" /><ns0:path style="fill:none;" d="M72.49 -49.953 L72.99 -49.953 L73.24 -49.52" /><ns0:path style="fill:none;" d="M87.74 -23.537 L87.99 -23.97 L87.74 -24.403" /></ns0:g></ns0:g></ns0:svg></ns0:svg></ns0:svg></ns0:svg></g></svg>