<svg width="138" viewBox="0 0 138 131" style="fill-opacity:1; color-rendering:auto; color-interpolation:auto; text-rendering:auto; stroke:black; stroke-linecap:square; stroke-miterlimit:10; shape-rendering:auto; stroke-opacity:1; fill:black; stroke-dasharray:none; font-weight:normal; stroke-width:1; font-family:'Open Sans'; font-style:normal; stroke-linejoin:miter; font-size:12; stroke-dashoffset:0; image-rendering:auto;" height="131" class="cas-substance-image" xmlns:xlink="http://www.w3.org/1999/xlink" xmlns="http://www.w3.org/2000/svg"><svg class="cas-substance-single-component"><rect y="0" x="0" width="138" stroke="none" ry="7" rx="7" height="131" fill="white" class="cas-substance-group"/><svg y="0" x="0" width="138" viewBox="0 0 138 131" style="fill:black;" height="131" class="cas-substance-single-component-image"><svg><g><g transform="translate(69,64)" style="text-rendering:geometricPrecision; color-rendering:optimizeQuality; color-interpolation:linearRGB; stroke-linecap:butt; image-rendering:optimizeQuality;"><line y2="53.6138" y1="36.3438" x2="-10.092" x1="-10.092" style="fill:none;"/><line y2="31.75" y1="31.75" x2="13.9705" x1="-5.531" style="fill:none;"/><line y2="28.25" y1="28.25" x2="13.9705" x1="-5.531" style="fill:none;"/><line y2="28.25" y1="28.25" x2="-34.1545" x1="-14.7353" style="fill:none;"/><line y2="31.75" y1="31.75" x2="-34.1545" x1="-14.7353" style="fill:none;"/><line y2="0" y1="23.5312" x2="-10.092" x1="-10.092" style="fill:none;"/><line y2="-15" y1="-3.5504" x2="-36.072" x1="-55.9049" style="fill:none;"/><line y2="0" y1="-15" x2="-10.092" x1="15.888" style="fill:none;"/><line y2="-45" y1="-15" x2="15.888" x1="15.888" style="fill:none;"/><line y2="-7.4369" y1="-15" x2="39.1673" x1="15.888" style="fill:none;"/><line y2="-10.7656" y1="-17.7043" x2="40.2488" x1="18.8913" style="fill:none;"/><line y2="-15" y1="0" x2="-36.072" x1="-10.092" style="fill:none;"/><line y2="-17.0207" y1="-4.0415" x2="-32.572" x1="-10.0919" style="fill:none;"/><line y2="-60" y1="-45" x2="-10.092" x1="15.888" style="fill:none;"/><line y2="-52.5631" y1="-45" x2="39.1673" x1="15.888" style="fill:none;"/><line y2="-49.2344" y1="-42.2957" x2="40.2488" x1="18.8913" style="fill:none;"/><line y2="-24.8284" y1="-11.7543" x2="58.2975" x1="48.7981" style="fill:none;"/><line y2="-45" y1="-15" x2="-36.072" x1="-36.072" style="fill:none;"/><line y2="-45" y1="-60" x2="-36.072" x1="-10.092" style="fill:none;"/><line y2="-42.9793" y1="-55.9585" x2="-32.572" x1="-10.0919" style="fill:none;"/><line y2="-35.2466" y1="-48.4957" x2="58.243" x1="48.6164" style="fill:none;"/></g><g transform="translate(69,64)" style="fill:rgb(148,108,0); text-rendering:geometricPrecision; color-rendering:optimizeQuality; image-rendering:optimizeQuality; font-family:'Open Sans'; stroke:rgb(148,108,0); color-interpolation:linearRGB;"><path style="stroke:none;" d="M-7.3967 31.9375 Q-7.3967 33.0625 -8.217 33.7031 Q-9.0373 34.3438 -10.4436 34.3438 Q-11.9748 34.3438 -12.7873 33.9375 L-12.7873 32.9844 Q-12.2561 33.2031 -11.6389 33.3359 Q-11.0217 33.4688 -10.4123 33.4688 Q-9.4123 33.4688 -8.9123 33.0859 Q-8.4123 32.7031 -8.4123 32.0312 Q-8.4123 31.5938 -8.592 31.3047 Q-8.7717 31.0156 -9.1858 30.7734 Q-9.5998 30.5312 -10.4592 30.2344 Q-11.6467 29.8125 -12.1623 29.2266 Q-12.6779 28.6406 -12.6779 27.6875 Q-12.6779 26.7031 -11.9358 26.1172 Q-11.1936 25.5312 -9.9592 25.5312 Q-8.6936 25.5312 -7.6154 26 L-7.9279 26.8594 Q-8.9904 26.4219 -9.9904 26.4219 Q-10.7873 26.4219 -11.2326 26.7578 Q-11.6779 27.0938 -11.6779 27.7031 Q-11.6779 28.1406 -11.5139 28.4297 Q-11.3498 28.7188 -10.9592 28.9531 Q-10.5686 29.1875 -9.7561 29.4844 Q-8.4123 29.9531 -7.9045 30.5078 Q-7.3967 31.0625 -7.3967 31.9375 Z"/><path style="fill:rgb(0,138,0); stroke:none;" d="M-10.4006 56.6406 Q-11.8068 56.6406 -12.6272 57.5781 Q-13.4475 58.5156 -13.4475 60.1562 Q-13.4475 61.8281 -12.6584 62.75 Q-11.8693 63.6719 -10.4162 63.6719 Q-9.51 63.6719 -8.3693 63.3438 L-8.3693 64.2188 Q-9.26 64.5625 -10.5568 64.5625 Q-12.4475 64.5625 -13.4787 63.4062 Q-14.51 62.25 -14.51 60.1406 Q-14.51 58.8125 -14.0178 57.8203 Q-13.5256 56.8281 -12.5881 56.2891 Q-11.6506 55.75 -10.385 55.75 Q-9.0412 55.75 -8.0256 56.2344 L-8.4475 57.0938 Q-9.4318 56.6406 -10.4006 56.6406 ZM-5.674 64.4375 L-6.6428 64.4375 L-6.6428 55.3125 L-5.674 55.3125 L-5.674 64.4375 Z"/><path style="fill:rgb(230,0,0); stroke:none;" d="M23.8455 29.9297 Q23.8455 31.9922 22.8064 33.1719 Q21.7674 34.3516 19.9236 34.3516 Q18.033 34.3516 17.0018 33.1875 Q15.9705 32.0234 15.9705 29.9141 Q15.9705 27.8203 17.0018 26.6719 Q18.033 25.5234 19.9236 25.5234 Q21.783 25.5234 22.8143 26.6953 Q23.8455 27.8672 23.8455 29.9297 ZM17.0174 29.9297 Q17.0174 31.6641 17.7596 32.5703 Q18.5018 33.4766 19.9236 33.4766 Q21.3455 33.4766 22.0721 32.5781 Q22.7986 31.6797 22.7986 29.9297 Q22.7986 28.1953 22.0721 27.3047 Q21.3455 26.4141 19.9236 26.4141 Q18.5018 26.4141 17.7596 27.3125 Q17.0174 28.2109 17.0174 29.9297 Z"/><path style="fill:rgb(230,0,0); stroke:none;" d="M-36.1545 29.9297 Q-36.1545 31.9922 -37.1936 33.1719 Q-38.2326 34.3516 -40.0764 34.3516 Q-41.967 34.3516 -42.9983 33.1875 Q-44.0295 32.0234 -44.0295 29.9141 Q-44.0295 27.8203 -42.9983 26.6719 Q-41.967 25.5234 -40.0764 25.5234 Q-38.217 25.5234 -37.1858 26.6953 Q-36.1545 27.8672 -36.1545 29.9297 ZM-42.9826 29.9297 Q-42.9826 31.6641 -42.2404 32.5703 Q-41.4983 33.4766 -40.0764 33.4766 Q-38.6545 33.4766 -37.9279 32.5781 Q-37.2014 31.6797 -37.2014 29.9297 Q-37.2014 28.1953 -37.9279 27.3047 Q-38.6545 26.4141 -40.0764 26.4141 Q-41.4983 26.4141 -42.2404 27.3125 Q-42.9826 28.2109 -42.9826 29.9297 Z"/><path style="fill:rgb(0,138,0); stroke:none;" d="M-62.3636 -3.3594 Q-63.7698 -3.3594 -64.5902 -2.4219 Q-65.4105 -1.4844 -65.4105 0.1562 Q-65.4105 1.8281 -64.6214 2.75 Q-63.8323 3.6719 -62.3792 3.6719 Q-61.473 3.6719 -60.3323 3.3438 L-60.3323 4.2188 Q-61.223 4.5625 -62.5198 4.5625 Q-64.4105 4.5625 -65.4417 3.4062 Q-66.473 2.25 -66.473 0.1406 Q-66.473 -1.1875 -65.9808 -2.1797 Q-65.4886 -3.1719 -64.5511 -3.7109 Q-63.6136 -4.25 -62.348 -4.25 Q-61.0042 -4.25 -59.9886 -3.7656 L-60.4105 -2.9062 Q-61.3948 -3.3594 -62.3636 -3.3594 ZM-57.637 4.4375 L-58.6058 4.4375 L-58.6058 -4.6875 L-57.637 -4.6875 L-57.637 4.4375 Z"/></g><g transform="translate(69,64)" style="stroke-linecap:butt; text-rendering:geometricPrecision; color-rendering:optimizeQuality; image-rendering:optimizeQuality; font-family:'Open Sans'; color-interpolation:linearRGB; stroke-miterlimit:5;"><path style="fill:none;" d="M16.3635 -14.8455 L15.888 -15 L15.455 -14.75"/><path style="fill:none;" d="M-10.525 -0.25 L-10.092 0 L-9.659 -0.25"/><path style="fill:none;" d="M16.3635 -45.1545 L15.888 -45 L15.888 -44.5"/><path style="fill:rgb(0,5,255); stroke:none;" d="M47.7726 -1.5738 L46.6319 -1.5738 L41.9444 -8.7612 L41.8976 -8.7612 Q41.9913 -7.4956 41.9913 -6.4488 L41.9913 -1.5738 L41.0694 -1.5738 L41.0694 -10.1362 L42.1944 -10.1362 L46.8663 -2.98 L46.9132 -2.98 Q46.9132 -3.1363 46.8663 -3.9956 Q46.8194 -4.855 46.8351 -5.23 L46.8351 -10.1362 L47.7726 -10.1362 L47.7726 -1.5738 Z"/><path style="fill:none;" d="M-35.639 -14.75 L-36.072 -15 L-36.505 -14.75"/><path style="fill:none;" d="M-9.659 -59.75 L-10.092 -60 L-10.525 -59.75"/><path style="fill:rgb(0,5,255); stroke:none;" d="M47.7726 -50.1138 L46.6319 -50.1138 L41.9444 -57.3013 L41.8976 -57.3013 Q41.9913 -56.0356 41.9913 -54.9888 L41.9913 -50.1138 L41.0694 -50.1138 L41.0694 -58.6763 L42.1944 -58.6763 L46.8663 -51.52 L46.9132 -51.52 Q46.9132 -51.6763 46.8663 -52.5356 Q46.8194 -53.395 46.8351 -53.77 L46.8351 -58.6763 L47.7726 -58.6763 L47.7726 -50.1138 Z"/><path style="fill:rgb(230,0,0); stroke:none;" d="M65.9925 -30.0703 Q65.9925 -28.0078 64.9534 -26.8281 Q63.9144 -25.6484 62.0706 -25.6484 Q60.18 -25.6484 59.1488 -26.8125 Q58.1175 -27.9766 58.1175 -30.0859 Q58.1175 -32.1797 59.1488 -33.3281 Q60.18 -34.4766 62.0706 -34.4766 Q63.93 -34.4766 64.9613 -33.3047 Q65.9925 -32.1328 65.9925 -30.0703 ZM59.1644 -30.0703 Q59.1644 -28.3359 59.9066 -27.4297 Q60.6488 -26.5234 62.0706 -26.5234 Q63.4925 -26.5234 64.2191 -27.4219 Q64.9456 -28.3203 64.9456 -30.0703 Q64.9456 -31.8047 64.2191 -32.6953 Q63.4925 -33.5859 62.0706 -33.5859 Q60.6488 -33.5859 59.9066 -32.6875 Q59.1644 -31.7891 59.1644 -30.0703 Z"/><path style="fill:none;" d="M-36.072 -44.5 L-36.072 -45 L-35.639 -45.25"/></g></g></svg></svg></svg></svg>