<svg width="163" viewBox="0 0 163 97" style="fill-opacity:1; color-rendering:auto; color-interpolation:auto; text-rendering:auto; stroke:black; stroke-linecap:square; stroke-miterlimit:10; shape-rendering:auto; stroke-opacity:1; fill:black; stroke-dasharray:none; font-weight:normal; stroke-width:1; font-family:'Open Sans'; font-style:normal; stroke-linejoin:miter; font-size:12; stroke-dashoffset:0; image-rendering:auto;" height="97" class="cas-substance-image" xmlns:xlink="http://www.w3.org/1999/xlink" xmlns="http://www.w3.org/2000/svg"><svg class="cas-substance-single-component"><rect y="0" x="0" width="163" stroke="none" ry="7" rx="7" height="97" fill="white" class="cas-substance-group"/><svg y="0" x="0" width="163" viewBox="0 0 163 97" style="fill:black;" height="97" class="cas-substance-single-component-image"><svg><g><g transform="translate(81,49)" style="text-rendering:geometricPrecision; color-rendering:optimizeQuality; color-interpolation:linearRGB; stroke-linecap:butt; image-rendering:optimizeQuality;"><line y2="45" y1="19.3104" x2="0" x1="0" style="fill:none;"/><line y2="0" y1="12.4303" x2="25.98" x1="4.4508" style="fill:none;"/><line y2="0" y1="12.4303" x2="-25.98" x1="-4.4508" style="fill:none;"/><line y2="-30" y1="0" x2="25.98" x1="25.98" style="fill:none;"/><line y2="-27.9793" y1="-2.0207" x2="29.48" x1="29.48" style="fill:none;"/><line y2="15" y1="0" x2="51.963" x1="25.98" style="fill:none;"/><line y2="-45" y1="-30" x2="51.963" x1="25.98" style="fill:none;"/><line y2="0" y1="15" x2="77.943" x1="51.963" style="fill:none;"/><line y2="-2.0207" y1="10.9585" x2="74.443" x1="51.963" style="fill:none;"/><line y2="-30" y1="-45" x2="77.943" x1="51.963" style="fill:none;"/><line y2="-27.9793" y1="-40.9585" x2="74.443" x1="51.963" style="fill:none;"/><line y2="-30" y1="0" x2="77.943" x1="77.943" style="fill:none;"/><line y2="-30" y1="0" x2="-25.98" x1="-25.98" style="fill:none;"/><line y2="-27.9793" y1="-2.0207" x2="-29.48" x1="-29.48" style="fill:none;"/><line y2="15" y1="0" x2="-51.963" x1="-25.98" style="fill:none;"/><line y2="-45" y1="-30" x2="-51.963" x1="-25.98" style="fill:none;"/><line y2="0" y1="15" x2="-77.943" x1="-51.963" style="fill:none;"/><line y2="-2.0207" y1="10.9585" x2="-74.443" x1="-51.963" style="fill:none;"/><line y2="-30" y1="-45" x2="-77.943" x1="-51.963" style="fill:none;"/><line y2="-27.9793" y1="-40.9585" x2="-74.443" x1="-51.963" style="fill:none;"/><line y2="-30" y1="0" x2="-77.943" x1="-77.943" style="fill:none;"/></g><g transform="translate(81,49)" style="fill:rgb(111,5,255); text-rendering:geometricPrecision; color-rendering:optimizeQuality; image-rendering:optimizeQuality; font-family:'Open Sans'; stroke:rgb(111,5,255); color-interpolation:linearRGB;"><path style="stroke:none;" d="M2.7188 13.0781 Q2.7188 14.3906 1.8281 15.0859 Q0.9375 15.7812 -0.7031 15.7812 L-1.7188 15.7812 L-1.7188 19.1562 L-2.7188 19.1562 L-2.7188 10.5938 L-0.4844 10.5938 Q2.7188 10.5938 2.7188 13.0781 ZM-1.7188 14.9375 L-0.8125 14.9375 Q0.5 14.9375 1.0938 14.5078 Q1.6875 14.0781 1.6875 13.125 Q1.6875 12.2812 1.1328 11.8672 Q0.5781 11.4531 -0.6094 11.4531 L-1.7188 11.4531 L-1.7188 14.9375 Z"/></g><g transform="translate(81,49)" style="stroke-linecap:butt; text-rendering:geometricPrecision; color-rendering:optimizeQuality; image-rendering:optimizeQuality; font-family:'Open Sans'; color-interpolation:linearRGB; stroke-miterlimit:5;"><path style="fill:none;" d="M25.98 -0.5 L25.98 0 L25.547 0.25"/><path style="fill:none;" d="M25.98 -29.5 L25.98 -30 L26.413 -30.25"/><path style="fill:none;" d="M51.53 14.75 L51.963 15 L52.396 14.75"/><path style="fill:none;" d="M51.53 -44.75 L51.963 -45 L52.396 -44.75"/><path style="fill:none;" d="M77.51 0.25 L77.943 0 L77.943 -0.5"/><path style="fill:none;" d="M77.51 -30.25 L77.943 -30 L77.943 -29.5"/><path style="fill:none;" d="M-25.98 -0.5 L-25.98 0 L-25.547 0.25"/><path style="fill:none;" d="M-25.98 -29.5 L-25.98 -30 L-26.413 -30.25"/><path style="fill:none;" d="M-51.53 14.75 L-51.963 15 L-52.396 14.75"/><path style="fill:none;" d="M-51.53 -44.75 L-51.963 -45 L-52.396 -44.75"/><path style="fill:none;" d="M-77.51 0.25 L-77.943 0 L-77.943 -0.5"/><path style="fill:none;" d="M-77.51 -30.25 L-77.943 -30 L-77.943 -29.5"/></g></g></svg></svg></svg></svg>