<svg width="194" viewBox="0 0 194 127" style="fill-opacity:1; color-rendering:auto; color-interpolation:auto; text-rendering:auto; stroke:black; stroke-linecap:square; stroke-miterlimit:10; shape-rendering:auto; stroke-opacity:1; fill:black; stroke-dasharray:none; font-weight:normal; stroke-width:1; font-family:'Open Sans'; font-style:normal; stroke-linejoin:miter; font-size:12; stroke-dashoffset:0; image-rendering:auto;" height="127" class="cas-substance-image" xmlns:xlink="http://www.w3.org/1999/xlink" xmlns="http://www.w3.org/2000/svg"><svg class="cas-substance-single-component"><rect y="0" x="0" width="194" stroke="none" ry="7" rx="7" height="127" fill="white" class="cas-substance-group"/><svg y="0" x="0" width="194" viewBox="0 0 194 127" style="fill:black;" height="127" class="cas-substance-single-component-image"><svg><g><g transform="translate(95,63)" style="text-rendering:geometricPrecision; color-rendering:optimizeQuality; color-interpolation:linearRGB; stroke-linecap:butt; image-rendering:optimizeQuality;"><path style="stroke:none;" d="M-9.9664 -14.5654 L-10.6736 -15.2726 L8.7717 -38.2533 L13.0143 -34.0107 Z"/><path style="stroke:none;" d="M15.1627 30.1332 L16.1573 30.0288 L21.7786 59.6055 L15.8114 60.2325 Z"/><line y2="13.331" y1="13.331" x2="60.5555" x1="85.8895" style="fill:none;"/><line y2="16.831" y1="16.831" x2="60.5556" x1="85.8895" style="fill:none;"/><line y2="-14.919" y1="-20.127" x2="-62.283" x1="-91.827" style="fill:none;"/><line y2="-14.919" y1="13.272" x2="-62.283" x1="-72.543" style="fill:none;"/><line y2="-14.919" y1="0.081" x2="-10.32" x1="15.66" style="fill:none;"/><line y2="30.081" y1="0.081" x2="15.66" x1="15.66" style="fill:none;"/><line y2="-9.189" y1="0.081" x2="44.193" x1="15.66" style="fill:none;"/><line y2="0.081" y1="-14.919" x2="-36.3" x1="-10.32" style="fill:none;"/><line y2="-44.919" y1="-14.919" x2="-10.32" x1="-10.32" style="fill:none;"/><line y2="45.081" y1="30.081" x2="-10.32" x1="15.66" style="fill:none;"/><line y2="37.4562" y1="30.081" x2="38.3534" x1="15.66" style="fill:none;"/><line y2="15.081" y1="-9.189" x2="61.827" x1="44.193" style="fill:none;"/><line y2="-14.919" y1="0.081" x2="-62.283" x1="-36.3" style="fill:none;"/><line y2="30.081" y1="0.081" x2="-36.3" x1="-36.3" style="fill:none;"/><line y2="-59.919" y1="-44.919" x2="-36.3" x1="-10.32" style="fill:none;"/><line y2="30.081" y1="45.081" x2="-36.3" x1="-10.32" style="fill:none;"/><line y2="15.081" y1="34.1166" x2="61.827" x1="47.9979" style="fill:none;"/><line y2="-44.919" y1="-14.919" x2="-62.283" x1="-62.283" style="fill:none;"/><line y2="-44.919" y1="-59.919" x2="-62.283" x1="-36.3" style="fill:none;"/><path style="stroke:none;" d="M24.769 -20.7785 L24.3465 -19.8659 L24.3465 -19.8659 L29.1958 -16.9492 L29.8033 -17.7505 L29.8033 -17.7505 L24.769 -20.7785 ZM23.5016 -18.0407 L23.0791 -17.1281 L23.0791 -17.1281 L27.3732 -14.5454 L27.9807 -15.3467 L23.5016 -18.0407 ZM22.2341 -15.303 L21.8116 -14.3904 L25.5506 -12.1415 L26.1582 -12.9428 L22.2341 -15.303 ZM20.9667 -12.5652 L20.5442 -11.6526 L23.7281 -9.7376 L23.7281 -9.7376 L24.3356 -10.5389 L20.9667 -12.5652 ZM19.6993 -9.8274 L19.2768 -8.9148 L21.9055 -7.3337 L22.513 -8.135 L19.6993 -9.8274 ZM18.4318 -7.0897 L18.0093 -6.1771 L20.083 -4.9299 L20.083 -4.9299 L20.6905 -5.7312 L18.4318 -7.0897 ZM17.1644 -4.3519 L16.7419 -3.4393 L16.7419 -3.4393 L18.2604 -2.526 L18.8679 -3.3273 L18.8679 -3.3273 L17.1644 -4.3519 ZM15.8969 -1.6141 L15.4745 -0.7015 L16.4378 -0.1221 L16.4378 -0.1221 L17.0453 -0.9234 L17.0453 -0.9234 L15.8969 -1.6141 Z"/><path style="stroke:none;" d="M-37.5778 0.108 L-38.4956 0.5187 L-37.7776 1.7639 L-36.9628 1.1744 L-37.5778 0.108 ZM-40.3313 1.3402 L-41.2491 1.7509 L-40.2218 3.5323 L-39.407 2.9429 L-40.3313 1.3402 ZM-43.0847 2.5724 L-44.0025 2.9831 L-44.0025 2.9831 L-42.666 5.3008 L-41.8513 4.7113 L-43.0847 2.5724 ZM-45.8382 3.8046 L-46.756 4.2154 L-45.1102 7.0692 L-44.2955 6.4797 L-45.8382 3.8046 ZM-48.5916 5.0368 L-49.5094 5.4476 L-47.5545 8.8376 L-47.5545 8.8376 L-46.7397 8.2482 L-48.5916 5.0368 ZM-51.345 6.2691 L-52.2628 6.6798 L-49.9987 10.6061 L-49.184 10.0166 L-51.345 6.2691 ZM-54.0985 7.5013 L-55.0163 7.912 L-55.0163 7.912 L-52.4429 12.3745 L-52.4429 12.3745 L-51.6282 11.785 L-51.6282 11.785 L-54.0985 7.5013 ZM-56.8519 8.7335 L-57.7697 9.1443 L-54.8872 14.1429 L-54.0724 13.5535 L-56.8519 8.7335 Z"/></g><g transform="translate(95,63)" style="fill:rgb(230,0,0); text-rendering:geometricPrecision; color-rendering:optimizeQuality; image-rendering:optimizeQuality; font-family:'Open Sans'; stroke:rgb(230,0,0); color-interpolation:linearRGB;"><path style="stroke:none;" d="M95.7645 15.0107 Q95.7645 17.0732 94.7254 18.2529 Q93.6864 19.4326 91.8426 19.4326 Q89.952 19.4326 88.9207 18.2685 Q87.8895 17.1044 87.8895 14.9951 Q87.8895 12.9013 88.9207 11.7529 Q89.952 10.6044 91.8426 10.6044 Q93.702 10.6044 94.7332 11.7763 Q95.7645 12.9482 95.7645 15.0107 ZM88.9364 15.0107 Q88.9364 16.7451 89.6786 17.6513 Q90.4207 18.5576 91.8426 18.5576 Q93.2645 18.5576 93.9911 17.6591 Q94.7176 16.7607 94.7176 15.0107 Q94.7176 13.2763 93.9911 12.3857 Q93.2645 11.4951 91.8426 11.4951 Q90.4207 11.4951 89.6786 12.3935 Q88.9364 13.2919 88.9364 15.0107 Z"/></g><g transform="translate(95,63)" style="font-size:8.4px; fill:gray; text-rendering:geometricPrecision; image-rendering:optimizeQuality; color-rendering:optimizeQuality; font-family:'Open Sans'; font-style:italic; stroke:gray; color-interpolation:linearRGB;"><path style="stroke:none;" d="M2.6111 6.245 Q2.6111 4.9169 3.0798 3.7919 Q3.5486 2.6669 4.5798 1.5888 L5.1892 1.5888 Q4.2204 2.6513 3.7361 3.8231 Q3.2517 4.995 3.2517 6.2294 Q3.2517 7.5575 3.6892 8.5731 L3.1736 8.5731 Q2.6111 7.5419 2.6111 6.245 ZM6.1711 4.9325 L5.6711 7.3075 L5.0149 7.3075 L6.218 1.5888 L7.468 1.5888 Q9.2024 1.5888 9.2024 3.0263 Q9.2024 4.3856 7.7649 4.7763 L8.7024 7.3075 L7.9836 7.3075 L7.1555 4.9325 L6.1711 4.9325 ZM6.7493 2.1825 Q6.3586 4.1044 6.2961 4.3544 L6.9524 4.3544 Q7.7024 4.3544 8.1086 4.0263 Q8.5149 3.6981 8.5149 3.0731 Q8.5149 2.6044 8.2571 2.3934 Q7.9993 2.1825 7.4055 2.1825 L6.7493 2.1825 ZM11.3884 3.9325 Q11.3884 5.2606 10.9118 6.3934 Q10.4352 7.5263 9.4196 8.5731 L8.8102 8.5731 Q10.7477 6.4169 10.7477 3.9325 Q10.7477 2.6044 10.3102 1.5888 L10.8259 1.5888 Q11.3884 2.6513 11.3884 3.9325 Z"/><path style="stroke:none;" d="M-14.4285 -3.7159 Q-14.4285 -5.044 -13.9598 -6.169 Q-13.491 -7.294 -12.4598 -8.3721 L-11.8504 -8.3721 Q-12.8191 -7.3096 -13.3035 -6.1377 Q-13.7879 -4.9659 -13.7879 -3.7315 Q-13.7879 -2.4034 -13.3504 -1.3877 L-13.866 -1.3877 Q-14.4285 -2.419 -14.4285 -3.7159 ZM-8.806 -4.3096 Q-8.806 -3.4815 -9.3528 -3.0284 Q-9.8997 -2.5752 -10.8997 -2.5752 Q-11.306 -2.5752 -11.6185 -2.6299 Q-11.931 -2.6846 -12.2122 -2.8252 L-12.2122 -3.4815 Q-11.5872 -3.1534 -10.8841 -3.1534 Q-10.2591 -3.1534 -9.8841 -3.4502 Q-9.5091 -3.7471 -9.5091 -4.2627 Q-9.5091 -4.5752 -9.7122 -4.8018 Q-9.9153 -5.0284 -10.4778 -5.3565 Q-11.0716 -5.6846 -11.2982 -6.0127 Q-11.5247 -6.3409 -11.5247 -6.794 Q-11.5247 -7.5284 -11.0091 -7.9893 Q-10.4935 -8.4502 -9.6497 -8.4502 Q-9.2747 -8.4502 -8.9388 -8.3721 Q-8.6028 -8.294 -8.2278 -8.1221 L-8.4935 -7.5284 Q-8.7435 -7.6846 -9.0638 -7.7706 Q-9.3841 -7.8565 -9.6497 -7.8565 Q-10.181 -7.8565 -10.5013 -7.5831 Q-10.8216 -7.3096 -10.8216 -6.8409 Q-10.8216 -6.6377 -10.7513 -6.4893 Q-10.681 -6.3409 -10.5403 -6.2081 Q-10.3997 -6.0752 -9.9778 -5.8252 Q-9.4153 -5.4815 -9.2122 -5.2862 Q-9.0091 -5.0909 -8.9075 -4.8565 Q-8.806 -4.6221 -8.806 -4.3096 ZM-6.2115 -6.0284 Q-6.2115 -4.7002 -6.688 -3.5674 Q-7.1646 -2.4346 -8.1802 -1.3877 L-8.7896 -1.3877 Q-6.8521 -3.544 -6.8521 -6.0284 Q-6.8521 -7.3565 -7.2896 -8.3721 L-6.774 -8.3721 Q-6.2115 -7.3096 -6.2115 -6.0284 Z"/><path style="stroke:none;" d="M2.6111 26.2451 Q2.6111 24.917 3.0798 23.792 Q3.5486 22.667 4.5798 21.5889 L5.1892 21.5889 Q4.2204 22.6514 3.7361 23.8232 Q3.2517 24.9951 3.2517 26.2295 Q3.2517 27.5576 3.6892 28.5732 L3.1736 28.5732 Q2.6111 27.542 2.6111 26.2451 ZM6.1711 24.9326 L5.6711 27.3076 L5.0149 27.3076 L6.218 21.5889 L7.468 21.5889 Q9.2024 21.5889 9.2024 23.0264 Q9.2024 24.3857 7.7649 24.7764 L8.7024 27.3076 L7.9836 27.3076 L7.1555 24.9326 L6.1711 24.9326 ZM6.7493 22.1826 Q6.3586 24.1045 6.2961 24.3545 L6.9524 24.3545 Q7.7024 24.3545 8.1086 24.0264 Q8.5149 23.6982 8.5149 23.0732 Q8.5149 22.6045 8.2571 22.3936 Q7.9993 22.1826 7.4055 22.1826 L6.7493 22.1826 ZM11.3884 23.9326 Q11.3884 25.2607 10.9118 26.3936 Q10.4352 27.5264 9.4196 28.5732 L8.8102 28.5732 Q10.7477 26.417 10.7477 23.9326 Q10.7477 22.6045 10.3102 21.5889 L10.8259 21.5889 Q11.3884 22.6514 11.3884 23.9326 Z"/></g><g transform="translate(95,63)" style="stroke-linecap:butt; font-size:8.4px; text-rendering:geometricPrecision; image-rendering:optimizeQuality; color-rendering:optimizeQuality; font-family:'Open Sans'; font-style:italic; color-interpolation:linearRGB; stroke-miterlimit:5;"><path style="fill:none;" d="M43.7175 -9.0345 L44.193 -9.189 L44.4869 -8.7845"/><path style="fill:gray; stroke:none;" d="M-40.4088 -8.7159 Q-40.4088 -10.044 -39.94 -11.169 Q-39.4713 -12.294 -38.44 -13.3721 L-37.8307 -13.3721 Q-38.7994 -12.3096 -39.2838 -11.1377 Q-39.7682 -9.9659 -39.7682 -8.7315 Q-39.7682 -7.4034 -39.3307 -6.3877 L-39.8463 -6.3877 Q-40.4088 -7.419 -40.4088 -8.7159 ZM-34.7862 -9.3096 Q-34.7862 -8.4815 -35.3331 -8.0284 Q-35.88 -7.5752 -36.88 -7.5752 Q-37.2862 -7.5752 -37.5987 -7.6299 Q-37.9112 -7.6846 -38.1925 -7.8252 L-38.1925 -8.4815 Q-37.5675 -8.1534 -36.8643 -8.1534 Q-36.2393 -8.1534 -35.8643 -8.4502 Q-35.4893 -8.7471 -35.4893 -9.2627 Q-35.4893 -9.5752 -35.6925 -9.8018 Q-35.8956 -10.0284 -36.4581 -10.3565 Q-37.0518 -10.6846 -37.2784 -11.0127 Q-37.505 -11.3409 -37.505 -11.794 Q-37.505 -12.5284 -36.9893 -12.9893 Q-36.4737 -13.4502 -35.63 -13.4502 Q-35.255 -13.4502 -34.919 -13.3721 Q-34.5831 -13.294 -34.2081 -13.1221 L-34.4737 -12.5284 Q-34.7237 -12.6846 -35.044 -12.7706 Q-35.3643 -12.8565 -35.63 -12.8565 Q-36.1612 -12.8565 -36.4815 -12.5831 Q-36.8018 -12.3096 -36.8018 -11.8409 Q-36.8018 -11.6377 -36.7315 -11.4893 Q-36.6612 -11.3409 -36.5206 -11.2081 Q-36.38 -11.0752 -35.9581 -10.8252 Q-35.3956 -10.4815 -35.1925 -10.2862 Q-34.9893 -10.0909 -34.8878 -9.8565 Q-34.7862 -9.6221 -34.7862 -9.3096 ZM-32.1917 -11.0284 Q-32.1917 -9.7002 -32.6683 -8.5674 Q-33.1449 -7.4346 -34.1605 -6.3877 L-34.7699 -6.3877 Q-32.8324 -8.544 -32.8324 -11.0284 Q-32.8324 -12.3565 -33.2699 -13.3721 L-32.7542 -13.3721 Q-32.1917 -12.3096 -32.1917 -11.0284 Z"/><path style="fill:none;" d="M-10.32 -44.419 L-10.32 -44.919 L-10.753 -45.169"/><path style="fill:none;" d="M-9.887 44.831 L-10.32 45.081 L-10.753 44.831"/></g><g transform="translate(95,63)" style="stroke-linecap:butt; fill:rgb(230,0,0); text-rendering:geometricPrecision; color-rendering:optimizeQuality; image-rendering:optimizeQuality; font-family:'Open Sans'; stroke:rgb(230,0,0); color-interpolation:linearRGB; stroke-miterlimit:5;"><path style="stroke:none;" d="M48.1305 39.2837 Q48.1305 41.3462 47.0914 42.5259 Q46.0524 43.7056 44.2086 43.7056 Q42.318 43.7056 41.2867 42.5415 Q40.2555 41.3774 40.2555 39.2681 Q40.2555 37.1743 41.2867 36.0259 Q42.318 34.8774 44.2086 34.8774 Q46.068 34.8774 47.0992 36.0493 Q48.1305 37.2212 48.1305 39.2837 ZM41.3024 39.2837 Q41.3024 41.0181 42.0446 41.9243 Q42.7867 42.8306 44.2086 42.8306 Q45.6305 42.8306 46.3571 41.9321 Q47.0836 41.0337 47.0836 39.2837 Q47.0836 37.5493 46.3571 36.6587 Q45.6305 35.7681 44.2086 35.7681 Q42.7867 35.7681 42.0446 36.6665 Q41.3024 37.5649 41.3024 39.2837 Z"/><path style="fill:none; stroke:black;" d="M61.5331 14.6765 L61.827 15.081 L61.5331 15.4855"/><path style="fill:none; stroke:black;" d="M-36.3 29.581 L-36.3 30.081 L-35.867 30.331"/><path style="fill:none; stroke:black;" d="M-35.867 -59.669 L-36.3 -59.919 L-36.733 -59.669"/><path style="fill:none; stroke:black;" d="M-62.283 -44.419 L-62.283 -44.919 L-61.85 -45.169"/><path style="fill:black; stroke:none;" d="M34.3708 -21.4757 L33.3708 -21.4757 L33.3708 -25.507 L28.8552 -25.507 L28.8552 -21.4757 L27.8552 -21.4757 L27.8552 -30.0382 L28.8552 -30.0382 L28.8552 -26.3976 L33.3708 -26.3976 L33.3708 -30.0382 L34.3708 -30.0382 L34.3708 -21.4757 Z"/><path style="fill:black; stroke:none;" d="M-59.0252 19.2372 L-60.0252 19.2372 L-60.0252 15.206 L-64.5408 15.206 L-64.5408 19.2372 L-65.5408 19.2372 L-65.5408 10.6747 L-64.5408 10.6747 L-64.5408 14.3154 L-60.0252 14.3154 L-60.0252 10.6747 L-59.0252 10.6747 L-59.0252 19.2372 Z"/></g></g></svg></svg></svg></svg>