<svg width="526" viewBox="0 0 526 486" style="fill-opacity:1; color-rendering:auto; color-interpolation:auto; text-rendering:auto; stroke:black; stroke-linecap:square; stroke-miterlimit:10; shape-rendering:auto; stroke-opacity:1; fill:black; stroke-dasharray:none; font-weight:normal; stroke-width:1; font-family:'Open Sans'; font-style:normal; stroke-linejoin:miter; font-size:12; stroke-dashoffset:0; image-rendering:auto;" height="486" class="cas-substance-image" xmlns:xlink="http://www.w3.org/1999/xlink" xmlns="http://www.w3.org/2000/svg"><svg class="cas-substance-single-component"><rect y="0" x="0" width="526" stroke="none" ry="7" rx="7" height="486" fill="white" class="cas-substance-group"/><svg y="0" x="0" width="526" viewBox="0 0 526 486" style="fill:black;" height="486" class="cas-substance-single-component-image"><svg><g><g transform="translate(263,243)" style="text-rendering:geometricPrecision; color-rendering:optimizeQuality; color-interpolation:linearRGB; stroke-linecap:butt; image-rendering:optimizeQuality;"><line y2="15" y1="24.4938" x2="-25.98" x1="-42.4252" style="fill:none;"/><line y2="12.9791" y1="21.4627" x2="-29.4799" x1="-44.1751" style="fill:none;"/><line y2="60" y1="36.1562" x2="-51.96" x1="-51.9624" style="fill:none;"/><line y2="15" y1="27.0649" x2="-77.943" x1="-57.0466" style="fill:none;"/><line y2="-15" y1="-27.0649" x2="25.98" x1="46.8764" style="fill:none;"/><line y2="-12.9793" y1="-24.0338" x2="29.48" x1="48.6264" style="fill:none;"/><line y2="-15" y1="-27.0652" x2="77.943" x1="57.0436" style="fill:none;"/><line y2="-60" y1="-36.4062" x2="51.96" x1="51.96" style="fill:none;"/><line y2="165" y1="152.9351" x2="-25.98" x1="-46.8764" style="fill:none;"/><line y2="165" y1="152.9348" x2="-77.943" x1="-57.0437" style="fill:none;"/><line y2="120" y1="143.5938" x2="-51.96" x1="-51.96" style="fill:none;"/><line y2="195" y1="165" x2="-25.98" x1="-25.98" style="fill:none;"/><line y2="195" y1="165" x2="-77.943" x1="-77.943" style="fill:none;"/><line y2="210" y1="195" x2="0" x1="-25.98" style="fill:none;"/><line y2="210" y1="195" x2="-103.923" x1="-77.943" style="fill:none;"/><line y2="240" y1="210" x2="0" x1="0" style="fill:none;"/><line y2="240" y1="210" x2="-103.923" x1="-103.923" style="fill:none;"/><line y2="-15" y1="-27.0649" x2="-181.866" x1="-160.9696" style="fill:none;"/><line y2="-60" y1="-36.4062" x2="-155.886" x1="-155.886" style="fill:none;"/><line y2="-15" y1="-27.0652" x2="-129.903" x1="-150.8024" style="fill:none;"/><line y2="-30" y1="-15" x2="-207.846" x1="-181.866" style="fill:none;"/><line y2="-75" y1="-60" x2="-181.866" x1="-155.886" style="fill:none;"/><line y2="-14.997" y1="-30" x2="-233.826" x1="-207.846" style="fill:none;"/><line y2="-105" y1="-75" x2="-181.866" x1="-181.866" style="fill:none;"/><line y2="-29.997" y1="-14.997" x2="-259.809" x1="-233.826" style="fill:none;"/><line y2="-120" y1="-105" x2="-207.846" x1="-181.866" style="fill:none;"/><line y2="15" y1="27.0649" x2="181.866" x1="160.9696" style="fill:none;"/><line y2="60" y1="36.1562" x2="155.886" x1="155.886" style="fill:none;"/><line y2="15" y1="27.0652" x2="129.903" x1="150.8024" style="fill:none;"/><line y2="29.997" y1="15" x2="207.846" x1="181.866" style="fill:none;"/><line y2="75" y1="60" x2="181.866" x1="155.886" style="fill:none;"/><line y2="14.997" y1="29.997" x2="233.826" x1="207.846" style="fill:none;"/><line y2="105" y1="75" x2="181.866" x1="181.866" style="fill:none;"/><line y2="29.997" y1="14.997" x2="259.809" x1="233.826" style="fill:none;"/><line y2="119.997" y1="105" x2="207.846" x1="181.866" style="fill:none;"/><line y2="-165" y1="-152.9351" x2="25.98" x1="46.8764" style="fill:none;"/><line y2="-165" y1="-152.9348" x2="77.943" x1="57.0437" style="fill:none;"/><line y2="-120" y1="-143.8438" x2="51.96" x1="51.96" style="fill:none;"/><line y2="-195" y1="-165" x2="25.98" x1="25.98" style="fill:none;"/><line y2="-195" y1="-165" x2="77.943" x1="77.943" style="fill:none;"/><line y2="-210" y1="-195" x2="0" x1="25.98" style="fill:none;"/><line y2="-210" y1="-195" x2="103.923" x1="77.943" style="fill:none;"/><line y2="-240" y1="-210" x2="0" x1="0" style="fill:none;"/><line y2="-240" y1="-210" x2="103.923" x1="103.923" style="fill:none;"/><line y2="30" y1="15" x2="0" x1="-25.98" style="fill:none;"/><line y2="-15" y1="15" x2="-25.98" x1="-25.98" style="fill:none;"/><line y2="15" y1="30" x2="25.98" x1="0" style="fill:none;"/><line y2="12.9793" y1="25.9585" x2="22.48" x1="-0.0001" style="fill:none;"/><line y2="-30" y1="-15" x2="0" x1="-25.98" style="fill:none;"/><line y2="-25.9585" y1="-12.9793" x2="0.0001" x1="-22.48" style="fill:none;"/><line y2="-15" y1="15" x2="25.98" x1="25.98" style="fill:none;"/><line y2="-15" y1="-30" x2="25.98" x1="0" style="fill:none;"/><line y2="75" y1="60" x2="-77.943" x1="-51.96" style="fill:none;"/><line y2="77.0209" y1="64.0415" x2="-74.4431" x1="-51.9602" style="fill:none;"/><line y2="75" y1="60" x2="-25.98" x1="-51.96" style="fill:none;"/><line y2="105" y1="75" x2="-77.943" x1="-77.943" style="fill:none;"/><line y2="105" y1="75" x2="-25.98" x1="-25.98" style="fill:none;"/><line y2="102.9793" y1="77.0207" x2="-29.48" x1="-29.48" style="fill:none;"/><line y2="120" y1="105" x2="-51.96" x1="-77.943" style="fill:none;"/><line y2="115.9585" y1="102.9791" x2="-51.9602" x1="-74.4431" style="fill:none;"/><line y2="120" y1="105" x2="-51.96" x1="-25.98" style="fill:none;"/><line y2="30" y1="15" x2="-103.923" x1="-77.943" style="fill:none;"/><line y2="25.9585" y1="12.9793" x2="-103.923" x1="-81.443" style="fill:none;"/><line y2="-15" y1="15" x2="-77.943" x1="-77.943" style="fill:none;"/><line y2="15" y1="30" x2="-129.903" x1="-103.923" style="fill:none;"/><line y2="-30" y1="-15" x2="-103.923" x1="-77.943" style="fill:none;"/><line y2="-25.9585" y1="-12.9793" x2="-103.923" x1="-81.443" style="fill:none;"/><line y2="-15" y1="15" x2="-129.903" x1="-129.903" style="fill:none;"/><line y2="-12.9793" y1="12.9793" x2="-126.403" x1="-126.403" style="fill:none;"/><line y2="-15" y1="-30" x2="-129.903" x1="-103.923" style="fill:none;"/><line y2="-30" y1="-15" x2="103.923" x1="77.943" style="fill:none;"/><line y2="-25.9585" y1="-12.9793" x2="103.923" x1="81.443" style="fill:none;"/><line y2="15" y1="-15" x2="77.943" x1="77.943" style="fill:none;"/><line y2="-15" y1="-30" x2="129.903" x1="103.923" style="fill:none;"/><line y2="30" y1="15" x2="103.923" x1="77.943" style="fill:none;"/><line y2="25.9585" y1="12.9793" x2="103.923" x1="81.443" style="fill:none;"/><line y2="15" y1="-15" x2="129.903" x1="129.903" style="fill:none;"/><line y2="12.9793" y1="-12.9793" x2="126.403" x1="126.403" style="fill:none;"/><line y2="15" y1="30" x2="129.903" x1="103.923" style="fill:none;"/><line y2="-75" y1="-60" x2="25.98" x1="51.96" style="fill:none;"/><line y2="-77.0207" y1="-64.0415" x2="29.48" x1="51.96" style="fill:none;"/><line y2="-75" y1="-60" x2="77.943" x1="51.96" style="fill:none;"/><line y2="-105" y1="-75" x2="25.98" x1="25.98" style="fill:none;"/><line y2="-105" y1="-75" x2="77.943" x1="77.943" style="fill:none;"/><line y2="-102.9793" y1="-77.0207" x2="74.443" x1="74.443" style="fill:none;"/><line y2="-120" y1="-105" x2="51.96" x1="25.98" style="fill:none;"/><line y2="-115.9585" y1="-102.9793" x2="51.96" x1="29.48" style="fill:none;"/><line y2="-120" y1="-105" x2="51.96" x1="77.943" style="fill:none;"/></g><g transform="translate(263,243)" style="fill:rgb(0,5,255); text-rendering:geometricPrecision; color-rendering:optimizeQuality; image-rendering:optimizeQuality; font-family:'Open Sans'; stroke:rgb(0,5,255); color-interpolation:linearRGB;"><path style="stroke:none;" d="M-48.6114 34.1562 L-49.7521 34.1562 L-54.4396 26.9688 L-54.4864 26.9688 Q-54.3927 28.2344 -54.3927 29.2812 L-54.3927 34.1562 L-55.3146 34.1562 L-55.3146 25.5938 L-54.1896 25.5938 L-49.5177 32.75 L-49.4708 32.75 Q-49.4708 32.5938 -49.5177 31.7344 Q-49.5646 30.875 -49.5489 30.5 L-49.5489 25.5938 L-48.6114 25.5938 L-48.6114 34.1562 Z"/><path style="fill:black; stroke:none;" d="M-45.4708 27.1656 L-43.8614 27.1656 L-43.8614 27.7125 L-45.4708 27.7125 L-45.4708 29.3687 L-46.0021 29.3687 L-46.0021 27.7125 L-47.6114 27.7125 L-47.6114 27.1656 L-46.0021 27.1656 L-46.0021 25.4937 L-45.4708 25.4937 L-45.4708 27.1656 Z"/><path style="stroke:none;" d="M55.3116 -25.8438 L54.1709 -25.8438 L49.4834 -33.0312 L49.4366 -33.0312 Q49.5303 -31.7656 49.5303 -30.7188 L49.5303 -25.8438 L48.6084 -25.8438 L48.6084 -34.4062 L49.7334 -34.4062 L54.4053 -27.25 L54.4522 -27.25 Q54.4522 -27.4062 54.4053 -28.2656 Q54.3584 -29.125 54.3741 -29.5 L54.3741 -34.4062 L55.3116 -34.4062 L55.3116 -25.8438 Z"/><path style="fill:black; stroke:none;" d="M58.4522 -32.8344 L60.0616 -32.8344 L60.0616 -32.2875 L58.4522 -32.2875 L58.4522 -30.6312 L57.9209 -30.6312 L57.9209 -32.2875 L56.3116 -32.2875 L56.3116 -32.8344 L57.9209 -32.8344 L57.9209 -34.5062 L58.4522 -34.5062 L58.4522 -32.8344 Z"/><path style="stroke:none;" d="M-48.6084 154.1562 L-49.7491 154.1562 L-54.4366 146.9688 L-54.4834 146.9688 Q-54.3897 148.2344 -54.3897 149.2812 L-54.3897 154.1562 L-55.3116 154.1562 L-55.3116 145.5938 L-54.1866 145.5938 L-49.5147 152.75 L-49.4678 152.75 Q-49.4678 152.5938 -49.5147 151.7344 Q-49.5616 150.875 -49.5459 150.5 L-49.5459 145.5938 L-48.6084 145.5938 L-48.6084 154.1562 Z"/></g><g transform="translate(263,243)" style="stroke-linecap:butt; text-rendering:geometricPrecision; color-rendering:optimizeQuality; image-rendering:optimizeQuality; font-family:'Open Sans'; color-interpolation:linearRGB; stroke-miterlimit:5;"><path style="fill:none;" d="M-26.413 164.75 L-25.98 165 L-25.98 165.5"/><path style="fill:none;" d="M-77.51 164.75 L-77.943 165 L-77.943 165.5"/><path style="fill:none;" d="M-25.98 194.5 L-25.98 195 L-25.547 195.25"/><path style="fill:none;" d="M-77.943 194.5 L-77.943 195 L-78.376 195.25"/><path style="fill:none;" d="M-0.433 209.75 L0 210 L-0 210.5"/><path style="fill:none;" d="M-103.49 209.75 L-103.923 210 L-103.923 210.5"/><path style="fill:rgb(0,5,255); stroke:none;" d="M-152.5344 -25.8438 L-153.6751 -25.8438 L-158.3626 -33.0312 L-158.4094 -33.0312 Q-158.3157 -31.7656 -158.3157 -30.7188 L-158.3157 -25.8438 L-159.2376 -25.8438 L-159.2376 -34.4062 L-158.1126 -34.4062 L-153.4407 -27.25 L-153.3938 -27.25 Q-153.3938 -27.4062 -153.4407 -28.2656 Q-153.4876 -29.125 -153.4719 -29.5 L-153.4719 -34.4062 L-152.5344 -34.4062 L-152.5344 -25.8438 Z"/><path style="fill:none;" d="M-181.433 -15.25 L-181.866 -15 L-182.299 -15.25"/><path style="fill:none;" d="M-155.886 -59.5 L-155.886 -60 L-156.319 -60.25"/><path style="fill:none;" d="M-207.413 -29.75 L-207.846 -30 L-208.279 -29.75"/><path style="fill:none;" d="M-181.433 -74.75 L-181.866 -75 L-181.866 -75.5"/><path style="fill:none;" d="M-233.393 -15.247 L-233.826 -14.997 L-234.259 -15.247"/><path style="fill:none;" d="M-181.866 -104.5 L-181.866 -105 L-182.299 -105.25"/><path style="fill:rgb(0,5,255); stroke:none;" d="M159.2376 34.1562 L158.0969 34.1562 L153.4094 26.9688 L153.3626 26.9688 Q153.4563 28.2344 153.4563 29.2812 L153.4563 34.1562 L152.5344 34.1562 L152.5344 25.5938 L153.6594 25.5938 L158.3313 32.75 L158.3782 32.75 Q158.3782 32.5938 158.3313 31.7344 Q158.2844 30.875 158.3001 30.5 L158.3001 25.5938 L159.2376 25.5938 L159.2376 34.1562 Z"/><path style="fill:none;" d="M181.433 15.25 L181.866 15 L182.299 15.25"/><path style="fill:none;" d="M155.886 59.5 L155.886 60 L156.319 60.25"/><path style="fill:none;" d="M207.413 29.747 L207.846 29.997 L208.279 29.747"/><path style="fill:none;" d="M181.433 74.75 L181.866 75 L181.866 75.5"/><path style="fill:none;" d="M233.393 15.247 L233.826 14.997 L234.259 15.247"/><path style="fill:none;" d="M181.866 104.5 L181.866 105 L182.299 105.25"/><path style="fill:rgb(0,5,255); stroke:none;" d="M55.3116 -145.8438 L54.1709 -145.8438 L49.4834 -153.0312 L49.4366 -153.0312 Q49.5303 -151.7656 49.5303 -150.7188 L49.5303 -145.8438 L48.6084 -145.8438 L48.6084 -154.4062 L49.7334 -154.4062 L54.4053 -147.25 L54.4522 -147.25 Q54.4522 -147.4062 54.4053 -148.2656 Q54.3584 -149.125 54.3741 -149.5 L54.3741 -154.4062 L55.3116 -154.4062 L55.3116 -145.8438 Z"/><path style="fill:none;" d="M26.413 -164.75 L25.98 -165 L25.98 -165.5"/><path style="fill:none;" d="M77.51 -164.75 L77.943 -165 L77.943 -165.5"/><path style="fill:none;" d="M25.98 -194.5 L25.98 -195 L25.547 -195.25"/><path style="fill:none;" d="M77.943 -194.5 L77.943 -195 L78.376 -195.25"/><path style="fill:none;" d="M0.433 -209.75 L0 -210 L0 -210.5"/><path style="fill:none;" d="M103.49 -209.75 L103.923 -210 L103.923 -210.5"/><path style="fill:none;" d="M-26.413 15.25 L-25.98 15 L-25.98 14.5"/><path style="fill:none;" d="M-0.433 29.75 L0 30 L0.433 29.75"/><path style="fill:none;" d="M-25.98 -14.5 L-25.98 -15 L-25.547 -15.25"/><path style="fill:none;" d="M25.547 15.25 L25.98 15 L25.98 14.5"/><path style="fill:none;" d="M-0.433 -29.75 L0 -30 L0.433 -29.75"/><path style="fill:none;" d="M26.413 -15.25 L25.98 -15 L25.98 -14.5"/><path style="fill:none;" d="M-52.393 60.25 L-51.96 60 L-51.96 59.5"/><path style="fill:none;" d="M-77.51 74.75 L-77.943 75 L-77.943 75.5"/><path style="fill:none;" d="M-26.413 74.75 L-25.98 75 L-25.98 75.5"/><path style="fill:none;" d="M-77.943 104.5 L-77.943 105 L-77.51 105.25"/><path style="fill:none;" d="M-25.98 104.5 L-25.98 105 L-26.413 105.25"/><path style="fill:none;" d="M-52.393 119.75 L-51.96 120 L-51.527 119.75"/><path style="fill:none;" d="M-78.376 15.25 L-77.943 15 L-77.943 14.5"/><path style="fill:none;" d="M-103.49 29.75 L-103.923 30 L-104.356 29.75"/><path style="fill:none;" d="M-77.943 -14.5 L-77.943 -15 L-78.376 -15.25"/><path style="fill:none;" d="M-129.47 15.25 L-129.903 15 L-129.903 14.5"/><path style="fill:none;" d="M-103.49 -29.75 L-103.923 -30 L-104.356 -29.75"/><path style="fill:none;" d="M-129.903 -14.5 L-129.903 -15 L-130.336 -15.25"/><path style="fill:none;" d="M78.376 -15.25 L77.943 -15 L77.943 -14.5"/><path style="fill:none;" d="M103.49 -29.75 L103.923 -30 L104.356 -29.75"/><path style="fill:none;" d="M77.943 14.5 L77.943 15 L78.376 15.25"/><path style="fill:none;" d="M129.47 -15.25 L129.903 -15 L129.903 -14.5"/><path style="fill:none;" d="M103.49 29.75 L103.923 30 L104.356 29.75"/><path style="fill:none;" d="M129.903 14.5 L129.903 15 L130.336 15.25"/><path style="fill:none;" d="M51.527 -60.25 L51.96 -60 L52.393 -60.25"/><path style="fill:none;" d="M26.413 -74.75 L25.98 -75 L25.98 -75.5"/><path style="fill:none;" d="M77.51 -74.75 L77.943 -75 L77.943 -75.5"/><path style="fill:none;" d="M25.98 -104.5 L25.98 -105 L26.413 -105.25"/><path style="fill:none;" d="M77.943 -104.5 L77.943 -105 L77.51 -105.25"/><path style="fill:none;" d="M51.527 -119.75 L51.96 -120 L51.96 -120.5"/></g></g></svg></svg></svg></svg>