<svg xmlns:ns0="http://www.w3.org/2000/svg" xmlns="http://www.w3.org/2000/svg"><g transform="translate(0, 0)"><ns0:svg width="191" viewBox="0 0 191 78" style="fill-opacity:1; color-rendering:auto; color-interpolation:auto; text-rendering:auto; stroke:black; stroke-linecap:square; stroke-miterlimit:10; shape-rendering:auto; stroke-opacity:1; fill:black; stroke-dasharray:none; font-weight:normal; stroke-width:1; font-family:'Open Sans'; font-style:normal; stroke-linejoin:miter; font-size:12; stroke-dashoffset:0; image-rendering:auto;" height="78" class="cas-substance-image"><ns0:svg class="cas-substance-single-component"><ns0:rect y="0" x="0" width="191" stroke="none" ry="7" rx="7" height="78" fill="white" class="cas-substance-group" /><ns0:svg y="0" x="0" width="191" viewBox="0 0 191 63" style="fill:black;" height="63" class="cas-substance-single-component-image"><ns0:svg><ns0:g><ns0:g transform="translate(90,33)" style="text-rendering:geometricPrecision; color-rendering:optimizeQuality; color-interpolation:linearRGB; stroke-linecap:butt; image-rendering:optimizeQuality;"><ns0:line y2="-20.332" y1="0" x2="49.239" x1="37.5" style="fill:none;" /><ns0:line y2="0" y1="0" x2="7.5" x1="37.5" style="fill:none;" /><ns0:line y2="-25.98" y1="-25.98" x2="77.1484" x1="58.4375" style="fill:none;" /><ns0:line y2="0" y1="0" x2="-52.5" x1="-76.082" style="fill:none;" /><ns0:line y2="25.98" y1="0" x2="-7.5" x1="7.5" style="fill:none;" /><ns0:line y2="22.48" y1="-0.0001" x2="-9.5207" x1="3.4585" style="fill:none;" /><ns0:line y2="-25.98" y1="0" x2="-7.5" x1="7.5" style="fill:none;" /><ns0:line y2="25.98" y1="25.98" x2="-37.5" x1="-7.5" style="fill:none;" /><ns0:line y2="-25.98" y1="-25.98" x2="-37.5" x1="-7.5" style="fill:none;" /><ns0:line y2="-22.48" y1="-22.48" x2="-35.4793" x1="-9.5207" style="fill:none;" /><ns0:line y2="0" y1="25.98" x2="-52.5" x1="-37.5" style="fill:none;" /><ns0:line y2="-0.0001" y1="22.48" x2="-48.4585" x1="-35.4793" style="fill:none;" /><ns0:line y2="0" y1="-25.98" x2="-52.5" x1="-37.5" style="fill:none;" /><ns0:path style="fill:none; stroke-miterlimit:5;" d="M37.75 -0.433 L37.5 0 L37 -0" /></ns0:g><ns0:g transform="translate(90,33)" style="stroke-linecap:butt; fill:rgb(230,0,0); text-rendering:geometricPrecision; color-rendering:optimizeQuality; image-rendering:optimizeQuality; font-family:'Open Sans'; stroke:rgb(230,0,0); color-interpolation:linearRGB; stroke-miterlimit:5;"><ns0:path style="stroke:none;" d="M56.4375 -26.0503 Q56.4375 -23.9878 55.3984 -22.8081 Q54.3594 -21.6284 52.5156 -21.6284 Q50.625 -21.6284 49.5938 -22.7925 Q48.5625 -23.9566 48.5625 -26.0659 Q48.5625 -28.1597 49.5938 -29.3081 Q50.625 -30.4566 52.5156 -30.4566 Q54.375 -30.4566 55.4062 -29.2847 Q56.4375 -28.1128 56.4375 -26.0503 ZM49.6094 -26.0503 Q49.6094 -24.3159 50.3516 -23.4097 Q51.0938 -22.5034 52.5156 -22.5034 Q53.9375 -22.5034 54.6641 -23.4019 Q55.3906 -24.3003 55.3906 -26.0503 Q55.3906 -27.7847 54.6641 -28.6753 Q53.9375 -29.5659 52.5156 -29.5659 Q51.0938 -29.5659 50.3516 -28.6675 Q49.6094 -27.7691 49.6094 -26.0503 Z" /><ns0:path style="fill:rgb(0,5,255); stroke:none;" d="M85.8516 -21.8237 L84.7109 -21.8237 L80.0234 -29.0112 L79.9766 -29.0112 Q80.0703 -27.7456 80.0703 -26.6987 L80.0703 -21.8237 L79.1484 -21.8237 L79.1484 -30.3862 L80.2734 -30.3862 L84.9453 -23.23 L84.9922 -23.23 Q84.9922 -23.3862 84.9453 -24.2456 Q84.8984 -25.105 84.9141 -25.48 L84.9141 -30.3862 L85.8516 -30.3862 L85.8516 -21.8237 Z" /><ns0:path style="fill:rgb(0,5,255); stroke:none;" d="M93.3672 -21.8237 L92.3672 -21.8237 L92.3672 -25.855 L87.8516 -25.855 L87.8516 -21.8237 L86.8516 -21.8237 L86.8516 -30.3862 L87.8516 -30.3862 L87.8516 -26.7456 L92.3672 -26.7456 L92.3672 -30.3862 L93.3672 -30.3862 L93.3672 -21.8237 Z" /><ns0:path style="fill:rgb(0,5,255); stroke:none;" d="M98.1172 -20.0144 L94.3672 -20.0144 L94.3672 -20.5769 L95.8672 -22.0925 Q96.5547 -22.78 96.7734 -23.0769 Q96.9922 -23.3737 97.1016 -23.655 Q97.2109 -23.9362 97.2109 -24.2644 Q97.2109 -24.7175 96.9375 -24.9831 Q96.6641 -25.2487 96.1641 -25.2487 Q95.8203 -25.2487 95.5 -25.1316 Q95.1797 -25.0144 94.7891 -24.7175 L94.4453 -25.155 Q95.2266 -25.8112 96.1641 -25.8112 Q96.9609 -25.8112 97.4219 -25.3972 Q97.8828 -24.9831 97.8828 -24.2956 Q97.8828 -23.7487 97.5781 -23.2175 Q97.2734 -22.6862 96.4297 -21.8737 L95.1797 -20.655 L95.1797 -20.6237 L98.1172 -20.6237 L98.1172 -20.0144 Z" /><ns0:path style="fill:rgb(0,138,0); stroke:none;" d="M-82.8086 -3.3594 Q-84.2148 -3.3594 -85.0352 -2.4219 Q-85.8555 -1.4844 -85.8555 0.1562 Q-85.8555 1.8281 -85.0664 2.75 Q-84.2773 3.6719 -82.8242 3.6719 Q-81.918 3.6719 -80.7773 3.3438 L-80.7773 4.2188 Q-81.668 4.5625 -82.9648 4.5625 Q-84.8555 4.5625 -85.8867 3.4062 Q-86.918 2.25 -86.918 0.1406 Q-86.918 -1.1875 -86.4258 -2.1797 Q-85.9336 -3.1719 -84.9961 -3.7109 Q-84.0586 -4.25 -82.793 -4.25 Q-81.4492 -4.25 -80.4336 -3.7656 L-80.8555 -2.9062 Q-81.8398 -3.3594 -82.8086 -3.3594 ZM-78.082 4.4375 L-79.0508 4.4375 L-79.0508 -4.6875 L-78.082 -4.6875 L-78.082 4.4375 Z" /><ns0:path style="fill:none; stroke:black;" d="M7.25 0.433 L7.5 0 L8 0" /><ns0:path style="fill:none; stroke:black;" d="M-7.25 25.547 L-7.5 25.98 L-8 25.98" /><ns0:path style="fill:none; stroke:black;" d="M-7.25 -25.547 L-7.5 -25.98 L-8 -25.98" /><ns0:path style="fill:none; stroke:black;" d="M-37 25.98 L-37.5 25.98 L-37.75 25.547" /><ns0:path style="fill:none; stroke:black;" d="M-37 -25.98 L-37.5 -25.98 L-37.75 -25.547" /><ns0:path style="fill:none; stroke:black;" d="M-52.25 0.433 L-52.5 0 L-53 -0" /></ns0:g></ns0:g></ns0:svg></ns0:svg><ns0:svg y="63" x="87" class="cas-substance-saf"><ns0:svg y="5" x="0" width="4" style="fill:black;" height="4" class="cas-substance-saf-dot"><ns0:circle stroke="none" r="2" fill="black" cy="2" cx="2" /></ns0:svg><ns0:svg y="0" x="8" width="22" style="fill:black;" height="15" class="cas-substance-saf-image"><ns0:svg><ns0:g><ns0:g transform="translate(6,8)" style="fill:rgb(0,138,0); text-rendering:geometricPrecision; color-rendering:optimizeQuality; image-rendering:optimizeQuality; font-family:'Open Sans'; stroke:rgb(0,138,0); color-interpolation:linearRGB;"><ns0:path style="stroke:none;" d="M3.2578 4.1562 L2.2578 4.1562 L2.2578 0.125 L-2.2578 0.125 L-2.2578 4.1562 L-3.2578 4.1562 L-3.2578 -4.4062 L-2.2578 -4.4062 L-2.2578 -0.7656 L2.2578 -0.7656 L2.2578 -4.4062 L3.2578 -4.4062 L3.2578 4.1562 Z" /><ns0:path style="stroke:none;" d="M8.3672 -3.6406 Q6.9609 -3.6406 6.1406 -2.7031 Q5.3203 -1.7656 5.3203 -0.125 Q5.3203 1.5469 6.1094 2.4688 Q6.8984 3.3906 8.3516 3.3906 Q9.2578 3.3906 10.3984 3.0625 L10.3984 3.9375 Q9.5078 4.2812 8.2109 4.2812 Q6.3203 4.2812 5.2891 3.125 Q4.2578 1.9688 4.2578 -0.1406 Q4.2578 -1.4688 4.75 -2.4609 Q5.2422 -3.4531 6.1797 -3.9922 Q7.1172 -4.5312 8.3828 -4.5312 Q9.7266 -4.5312 10.7422 -4.0469 L10.3203 -3.1875 Q9.3359 -3.6406 8.3672 -3.6406 ZM13.0938 4.1562 L12.125 4.1562 L12.125 -4.9688 L13.0938 -4.9688 L13.0938 4.1562 Z" /></ns0:g></ns0:g></ns0:svg></ns0:svg></ns0:svg></ns0:svg></ns0:svg></g></svg>