<svg width="100" viewBox="0 0 100 56" style="fill-opacity:1; color-rendering:auto; color-interpolation:auto; text-rendering:auto; stroke:black; stroke-linecap:square; stroke-miterlimit:10; shape-rendering:auto; stroke-opacity:1; fill:black; stroke-dasharray:none; font-weight:normal; stroke-width:1; font-family:'Open Sans'; font-style:normal; stroke-linejoin:miter; font-size:12; stroke-dashoffset:0; image-rendering:auto;" height="56" class="cas-substance-image" xmlns:xlink="http://www.w3.org/1999/xlink" xmlns="http://www.w3.org/2000/svg"><svg class="cas-substance-single-component"><rect y="0" x="0" width="100" stroke="none" ry="7" rx="7" height="56" fill="white" class="cas-substance-group"/><svg y="0" x="6" width="87" viewBox="0 0 87 56" style="fill:black;" height="56" class="cas-substance-single-component-image"><svg><g><g transform="translate(42,28)" style="text-rendering:geometricPrecision; color-rendering:optimizeQuality; color-interpolation:linearRGB; stroke-linecap:butt; image-rendering:optimizeQuality;"><line y2="-1.75" y1="-1.75" x2="6.8105" x1="32.1445" style="fill:none;"/><line y2="1.75" y1="1.75" x2="6.8105" x1="32.1445" style="fill:none;"/><line y2="-24.27" y1="0" x2="-9.552" x1="8.082" style="fill:none;"/><line y2="24.27" y1="0" x2="-9.552" x1="8.082" style="fill:none;"/><line y2="-15" y1="-24.27" x2="-38.082" x1="-9.552" style="fill:none;"/><line y2="15" y1="24.27" x2="-38.082" x1="-9.552" style="fill:none;"/><line y2="15" y1="-15" x2="-38.082" x1="-38.082" style="fill:none;"/><line y2="12.9793" y1="-12.9793" x2="-34.582" x1="-34.582" style="fill:none;"/></g><g transform="translate(42,28)" style="fill:rgb(230,0,0); text-rendering:geometricPrecision; color-rendering:optimizeQuality; image-rendering:optimizeQuality; font-family:'Open Sans'; stroke:rgb(230,0,0); color-interpolation:linearRGB;"><path style="stroke:none;" d="M42.0195 -0.0703 Q42.0195 1.9922 40.9804 3.1719 Q39.9414 4.3516 38.0976 4.3516 Q36.207 4.3516 35.1758 3.1875 Q34.1445 2.0234 34.1445 -0.0859 Q34.1445 -2.1797 35.1758 -3.3281 Q36.207 -4.4766 38.0976 -4.4766 Q39.957 -4.4766 40.9883 -3.3047 Q42.0195 -2.1328 42.0195 -0.0703 ZM35.1914 -0.0703 Q35.1914 1.6641 35.9336 2.5703 Q36.6758 3.4766 38.0976 3.4766 Q39.5195 3.4766 40.2461 2.5781 Q40.9726 1.6797 40.9726 -0.0703 Q40.9726 -1.8047 40.2461 -2.6953 Q39.5195 -3.5859 38.0976 -3.5859 Q36.6758 -3.5859 35.9336 -2.6875 Q35.1914 -1.7891 35.1914 -0.0703 Z"/></g><g transform="translate(42,28)" style="stroke-linecap:butt; text-rendering:geometricPrecision; color-rendering:optimizeQuality; image-rendering:optimizeQuality; font-family:'Open Sans'; color-interpolation:linearRGB; stroke-miterlimit:5;"><path style="fill:none;" d="M7.7881 -0.4045 L8.082 0 L7.7881 0.4045"/><path style="fill:none;" d="M-9.2581 -23.8655 L-9.552 -24.27 L-10.0275 -24.1155"/><path style="fill:none;" d="M-9.2581 23.8655 L-9.552 24.27 L-10.0275 24.1155"/><path style="fill:none;" d="M-37.6065 -15.1545 L-38.082 -15 L-38.082 -14.5"/><path style="fill:none;" d="M-37.6065 15.1545 L-38.082 15 L-38.082 14.5"/></g></g></svg></svg></svg></svg>