<svg xmlns:ns0="http://www.w3.org/2000/svg" xmlns="http://www.w3.org/2000/svg"><g transform="translate(0, 0)"><ns0:svg width="162" viewBox="0 0 162 60" style="fill-opacity:1; color-rendering:auto; color-interpolation:auto; text-rendering:auto; stroke:black; stroke-linecap:square; stroke-miterlimit:10; shape-rendering:auto; stroke-opacity:1; fill:black; stroke-dasharray:none; font-weight:normal; stroke-width:1; font-family:'Open Sans'; font-style:normal; stroke-linejoin:miter; font-size:12; stroke-dashoffset:0; image-rendering:auto;" height="60" class="cas-substance-image"><ns0:svg class="cas-substance-single-component"><ns0:rect y="0" x="0" width="162" stroke="none" ry="7" rx="7" height="60" fill="white" class="cas-substance-group" /><ns0:svg y="0" x="0" width="162" viewBox="0 0 162 60" style="fill:black;" height="60" class="cas-substance-single-component-image"><ns0:svg><ns0:g><ns0:g transform="translate(81,30)" style="text-rendering:geometricPrecision; color-rendering:optimizeQuality; color-interpolation:linearRGB; stroke-linecap:butt; image-rendering:optimizeQuality;"><ns0:line y2="-7.5" y1="-19.3214" x2="0" x1="-20.4746" style="fill:none;" /><ns0:line y2="-7.5" y1="-19.3114" x2="-51.963" x1="-31.5032" style="fill:none;" /><ns0:line y2="-19.3112" y1="-7.5" x2="20.457" x1="0" style="fill:none;" /><ns0:line y2="16.0234" y1="-8.5104" x2="-1.75" x1="-1.75" style="fill:none;" /><ns0:line y2="16.0234" y1="-8.5104" x2="1.75" x1="1.75" style="fill:none;" /><ns0:line y2="-22.5" y1="-7.5" x2="-77.943" x1="-51.963" style="fill:none;" /><ns0:line y2="16.1138" y1="-7.5" x2="-51.963" x1="-51.963" style="fill:none;" /><ns0:line y2="-7.5" y1="-19.3216" x2="51.963" x1="31.4856" style="fill:none;" /><ns0:line y2="-22.5" y1="-7.5" x2="77.943" x1="51.963" style="fill:none;" /></ns0:g><ns0:g transform="translate(81,30)" style="fill:rgb(230,0,0); text-rendering:geometricPrecision; color-rendering:optimizeQuality; image-rendering:optimizeQuality; font-family:'Open Sans'; stroke:rgb(230,0,0); color-interpolation:linearRGB;"><ns0:path style="stroke:none;" d="M-22.0425 -22.5703 Q-22.0425 -20.5078 -23.0816 -19.3281 Q-24.1206 -18.1484 -25.9644 -18.1484 Q-27.855 -18.1484 -28.8862 -19.3125 Q-29.9175 -20.4766 -29.9175 -22.5859 Q-29.9175 -24.6797 -28.8862 -25.8281 Q-27.855 -26.9766 -25.9644 -26.9766 Q-24.105 -26.9766 -23.0737 -25.8047 Q-22.0425 -24.6328 -22.0425 -22.5703 ZM-28.8706 -22.5703 Q-28.8706 -20.8359 -28.1284 -19.9297 Q-27.3862 -19.0234 -25.9644 -19.0234 Q-24.5425 -19.0234 -23.8159 -19.9219 Q-23.0894 -20.8203 -23.0894 -22.5703 Q-23.0894 -24.3047 -23.8159 -25.1953 Q-24.5425 -26.0859 -25.9644 -26.0859 Q-27.3862 -26.0859 -28.1284 -25.1875 Q-28.8706 -24.2891 -28.8706 -22.5703 Z" /></ns0:g><ns0:g transform="translate(81,30)" style="stroke-linecap:butt; text-rendering:geometricPrecision; color-rendering:optimizeQuality; image-rendering:optimizeQuality; font-family:'Open Sans'; color-interpolation:linearRGB; stroke-miterlimit:5;"><ns0:path style="fill:none;" d="M-0.433 -7.75 L0 -7.5 L0.433 -7.75" /><ns0:path style="fill:rgb(230,0,0); stroke:none;" d="M29.9175 -22.5703 Q29.9175 -20.5078 28.8784 -19.3281 Q27.8394 -18.1484 25.9956 -18.1484 Q24.105 -18.1484 23.0737 -19.3125 Q22.0425 -20.4766 22.0425 -22.5859 Q22.0425 -24.6797 23.0737 -25.8281 Q24.105 -26.9766 25.9956 -26.9766 Q27.855 -26.9766 28.8862 -25.8047 Q29.9175 -24.6328 29.9175 -22.5703 ZM23.0894 -22.5703 Q23.0894 -20.8359 23.8316 -19.9297 Q24.5737 -19.0234 25.9956 -19.0234 Q27.4175 -19.0234 28.1441 -19.9219 Q28.8706 -20.8203 28.8706 -22.5703 Q28.8706 -24.3047 28.1441 -25.1953 Q27.4175 -26.0859 25.9956 -26.0859 Q24.5737 -26.0859 23.8316 -25.1875 Q23.0894 -24.2891 23.0894 -22.5703 Z" /><ns0:path style="fill:rgb(230,0,0); stroke:none;" d="M3.9375 22.4297 Q3.9375 24.4922 2.8984 25.6719 Q1.8594 26.8516 0.0156 26.8516 Q-1.875 26.8516 -2.9062 25.6875 Q-3.9375 24.5234 -3.9375 22.4141 Q-3.9375 20.3203 -2.9062 19.1719 Q-1.875 18.0234 0.0156 18.0234 Q1.875 18.0234 2.9062 19.1953 Q3.9375 20.3672 3.9375 22.4297 ZM-2.8906 22.4297 Q-2.8906 24.1641 -2.1484 25.0703 Q-1.4062 25.9766 0.0156 25.9766 Q1.4375 25.9766 2.1641 25.0781 Q2.8906 24.1797 2.8906 22.4297 Q2.8906 20.6953 2.1641 19.8047 Q1.4375 18.9141 0.0156 18.9141 Q-1.4062 18.9141 -2.1484 19.8125 Q-2.8906 20.7109 -2.8906 22.4297 Z" /><ns0:path style="fill:rgb(0,138,0); stroke:none;" d="M-52.2716 19.1406 Q-53.6778 19.1406 -54.4982 20.0781 Q-55.3185 21.0156 -55.3185 22.6562 Q-55.3185 24.3281 -54.5294 25.25 Q-53.7403 26.1719 -52.2872 26.1719 Q-51.381 26.1719 -50.2403 25.8438 L-50.2403 26.7188 Q-51.131 27.0625 -52.4278 27.0625 Q-54.3185 27.0625 -55.3497 25.9062 Q-56.381 24.75 -56.381 22.6406 Q-56.381 21.3125 -55.8888 20.3203 Q-55.3966 19.3281 -54.4591 18.7891 Q-53.5216 18.25 -52.256 18.25 Q-50.9122 18.25 -49.8966 18.7344 L-50.3185 19.5938 Q-51.3028 19.1406 -52.2716 19.1406 ZM-47.545 26.9375 L-48.5138 26.9375 L-48.5138 17.8125 L-47.545 17.8125 L-47.545 26.9375 Z" /><ns0:path style="fill:none;" d="M51.53 -7.75 L51.963 -7.5 L52.396 -7.75" /></ns0:g></ns0:g></ns0:svg></ns0:svg></ns0:svg></ns0:svg></g></svg>