<svg width="100" viewBox="0 0 100 60" style="fill-opacity:1; color-rendering:auto; color-interpolation:auto; text-rendering:auto; stroke:black; stroke-linecap:square; stroke-miterlimit:10; shape-rendering:auto; stroke-opacity:1; fill:black; stroke-dasharray:none; font-weight:normal; stroke-width:1; font-family:'Open Sans'; font-style:normal; stroke-linejoin:miter; font-size:12; stroke-dashoffset:0; image-rendering:auto;" height="60" class="cas-substance-image" xmlns:xlink="http://www.w3.org/1999/xlink" xmlns="http://www.w3.org/2000/svg"><svg class="cas-substance-single-component"><rect y="0" x="0" width="100" stroke="none" ry="7" rx="7" height="60" fill="white" class="cas-substance-group"/><svg y="0" x="16" width="67" viewBox="0 0 67 60" style="fill:black;" height="60" class="cas-substance-single-component-image"><svg><g><g transform="translate(33,30)" style="text-rendering:geometricPrecision; color-rendering:optimizeQuality; color-interpolation:linearRGB; stroke-linecap:butt; image-rendering:optimizeQuality;"><line y2="-18.9492" y1="-10.011" x2="-19.83" x1="-4.3491" style="fill:none;"/><line y2="-19.0514" y1="-9.8781" x2="20.0071" x1="4.1189" style="fill:none;"/><line y2="16.0234" y1="-1.1562" x2="-1.75" x1="-1.75" style="fill:none;"/><line y2="16.0234" y1="-1.1562" x2="1.75" x1="1.75" style="fill:none;"/></g><g transform="translate(33,30)" style="fill:rgb(148,108,0); text-rendering:geometricPrecision; color-rendering:optimizeQuality; image-rendering:optimizeQuality; font-family:'Open Sans'; stroke:rgb(148,108,0); color-interpolation:linearRGB;"><path style="stroke:none;" d="M2.6953 -5.5625 Q2.6953 -4.4375 1.875 -3.7969 Q1.0547 -3.1562 -0.3516 -3.1562 Q-1.8828 -3.1562 -2.6953 -3.5625 L-2.6953 -4.5156 Q-2.1641 -4.2969 -1.5469 -4.1641 Q-0.9297 -4.0312 -0.3203 -4.0312 Q0.6797 -4.0312 1.1797 -4.4141 Q1.6797 -4.7969 1.6797 -5.4688 Q1.6797 -5.9062 1.5 -6.1953 Q1.3203 -6.4844 0.9062 -6.7266 Q0.4922 -6.9688 -0.3672 -7.2656 Q-1.5547 -7.6875 -2.0703 -8.2734 Q-2.5859 -8.8594 -2.5859 -9.8125 Q-2.5859 -10.7969 -1.8438 -11.3828 Q-1.1016 -11.9688 0.1328 -11.9688 Q1.3984 -11.9688 2.4766 -11.5 L2.1641 -10.6406 Q1.1016 -11.0781 0.1016 -11.0781 Q-0.6953 -11.0781 -1.1406 -10.7422 Q-1.5859 -10.4062 -1.5859 -9.7969 Q-1.5859 -9.3594 -1.4219 -9.0703 Q-1.2578 -8.7812 -0.8672 -8.5469 Q-0.4766 -8.3125 0.3359 -8.0156 Q1.6797 -7.5469 2.1875 -6.9922 Q2.6953 -6.4375 2.6953 -5.5625 Z"/><path style="fill:rgb(0,138,0); stroke:none;" d="M-26.2886 -25.8594 Q-27.6948 -25.8594 -28.5152 -24.9219 Q-29.3355 -23.9844 -29.3355 -22.3438 Q-29.3355 -20.6719 -28.5464 -19.75 Q-27.7573 -18.8281 -26.3042 -18.8281 Q-25.398 -18.8281 -24.2573 -19.1562 L-24.2573 -18.2812 Q-25.148 -17.9375 -26.4448 -17.9375 Q-28.3355 -17.9375 -29.3667 -19.0938 Q-30.398 -20.25 -30.398 -22.3594 Q-30.398 -23.6875 -29.9058 -24.6797 Q-29.4136 -25.6719 -28.4761 -26.2109 Q-27.5386 -26.75 -26.273 -26.75 Q-24.9292 -26.75 -23.9136 -26.2656 L-24.3355 -25.4062 Q-25.3198 -25.8594 -26.2886 -25.8594 ZM-21.562 -18.0625 L-22.5308 -18.0625 L-22.5308 -27.1875 L-21.562 -27.1875 L-21.562 -18.0625 Z"/><path style="fill:rgb(0,138,0); stroke:none;" d="M25.6714 -25.8594 Q24.2652 -25.8594 23.4448 -24.9219 Q22.6245 -23.9844 22.6245 -22.3438 Q22.6245 -20.6719 23.4136 -19.75 Q24.2027 -18.8281 25.6558 -18.8281 Q26.562 -18.8281 27.7027 -19.1562 L27.7027 -18.2812 Q26.812 -17.9375 25.5152 -17.9375 Q23.6245 -17.9375 22.5933 -19.0938 Q21.562 -20.25 21.562 -22.3594 Q21.562 -23.6875 22.0542 -24.6797 Q22.5464 -25.6719 23.4839 -26.2109 Q24.4214 -26.75 25.687 -26.75 Q27.0308 -26.75 28.0464 -26.2656 L27.6245 -25.4062 Q26.6402 -25.8594 25.6714 -25.8594 ZM30.398 -18.0625 L29.4292 -18.0625 L29.4292 -27.1875 L30.398 -27.1875 L30.398 -18.0625 Z"/><path style="fill:rgb(230,0,0); stroke:none;" d="M3.9375 22.4297 Q3.9375 24.4922 2.8984 25.6719 Q1.8594 26.8516 0.0156 26.8516 Q-1.875 26.8516 -2.9062 25.6875 Q-3.9375 24.5234 -3.9375 22.4141 Q-3.9375 20.3203 -2.9062 19.1719 Q-1.875 18.0234 0.0156 18.0234 Q1.875 18.0234 2.9062 19.1953 Q3.9375 20.3672 3.9375 22.4297 ZM-2.8906 22.4297 Q-2.8906 24.1641 -2.1484 25.0703 Q-1.4062 25.9766 0.0156 25.9766 Q1.4375 25.9766 2.1641 25.0781 Q2.8906 24.1797 2.8906 22.4297 Q2.8906 20.6953 2.1641 19.8047 Q1.4375 18.9141 0.0156 18.9141 Q-1.4062 18.9141 -2.1484 19.8125 Q-2.8906 20.7109 -2.8906 22.4297 Z"/></g></g></svg></svg></svg></svg>