<svg xmlns:ns0="http://www.w3.org/2000/svg" xmlns="http://www.w3.org/2000/svg"><g transform="translate(0, 0)"><ns0:svg width="210" viewBox="0 0 210 116" style="fill-opacity:1; color-rendering:auto; color-interpolation:auto; text-rendering:auto; stroke:black; stroke-linecap:square; stroke-miterlimit:10; shape-rendering:auto; stroke-opacity:1; fill:black; stroke-dasharray:none; font-weight:normal; stroke-width:1; font-family:'Open Sans'; font-style:normal; stroke-linejoin:miter; font-size:12; stroke-dashoffset:0; image-rendering:auto;" height="116" class="cas-substance-image"><ns0:svg class="cas-substance-single-component"><ns0:rect y="0" x="0" width="210" stroke="none" ry="7" rx="7" height="116" fill="white" class="cas-substance-group" /><ns0:svg y="0" x="0" width="210" viewBox="0 0 210 101" style="fill:black;" height="101" class="cas-substance-single-component-image"><ns0:svg><ns0:g><ns0:g transform="translate(105,49)" style="text-rendering:geometricPrecision; color-rendering:optimizeQuality; color-interpolation:linearRGB; stroke-linecap:butt; image-rendering:optimizeQuality;"><ns0:line y2="3.1786" y1="15" x2="7.7464" x1="28.221" style="fill:none;" /><ns0:line y2="38.5234" y1="13.9896" x2="26.471" x1="26.471" style="fill:none;" /><ns0:line y2="38.5234" y1="15" x2="29.971" x1="29.971" style="fill:none;" /><ns0:path style="stroke:none;" d="M53.0459 -0.0014 L52.1402 0.4305 L52.8069 1.5866 L53.629 1.0098 L53.0459 -0.0014 ZM50.3289 1.2943 L49.4233 1.7262 L50.3406 3.317 L51.1627 2.7402 L50.3289 1.2943 ZM47.612 2.59 L46.7063 3.0219 L47.8744 5.0474 L48.6965 4.4706 L47.612 2.59 ZM44.895 3.8857 L43.9894 4.3176 L45.4081 6.7778 L46.2302 6.201 L46.2302 6.201 L44.895 3.8857 ZM42.1781 5.1813 L41.2724 5.6132 L42.9419 8.5082 L42.9419 8.5082 L43.764 7.9314 L42.1781 5.1813 ZM39.4611 6.477 L38.5555 6.9089 L40.4756 10.2386 L41.2977 9.6618 L39.4611 6.477 ZM36.7442 7.7727 L35.8385 8.2046 L35.8385 8.2046 L38.0094 11.969 L38.8315 11.3922 L36.7442 7.7727 ZM34.0272 9.0684 L33.1216 9.5003 L35.5431 13.6995 L36.3652 13.1227 L34.0272 9.0684 ZM31.3103 10.3641 L30.4046 10.796 L30.4046 10.796 L33.0769 15.4299 L33.899 14.8531 L31.3103 10.3641 ZM28.5933 11.6597 L27.6877 12.0916 L27.6877 12.0916 L29.9358 15.9901 L31.2209 16.7321 L31.4327 16.5835 L31.4327 16.5835 L28.5933 11.6597 Z" /><ns0:line y2="15" y1="3.1888" x2="-23.739" x1="-3.282" style="fill:none;" /><ns0:line y2="0" y1="15" x2="-49.722" x1="-23.739" style="fill:none;" /><ns0:line y2="-29.835" y1="0" x2="57.339" x1="54.201" style="fill:none;" /><ns0:line y2="9.8956" y1="0" x2="76.4303" x1="54.201" style="fill:none;" /><ns0:line y2="-36.072" y1="-29.835" x2="86.682" x1="57.339" style="fill:none;" /><ns0:line y2="-10.092" y1="6.9925" x2="101.682" x1="86.2988" style="fill:none;" /><ns0:line y2="-10.092" y1="-36.072" x2="101.682" x1="86.682" style="fill:none;" /><ns0:line y2="-30" y1="0" x2="-49.722" x1="-49.722" style="fill:none;" /><ns0:line y2="-27.9793" y1="-2.0207" x2="-53.222" x1="-53.222" style="fill:none;" /><ns0:line y2="15" y1="0" x2="-75.702" x1="-49.722" style="fill:none;" /><ns0:line y2="-45" y1="-30" x2="-75.702" x1="-49.722" style="fill:none;" /><ns0:line y2="0" y1="15" x2="-101.682" x1="-75.702" style="fill:none;" /><ns0:line y2="-2.0207" y1="10.9585" x2="-98.182" x1="-75.702" style="fill:none;" /><ns0:line y2="-30" y1="-45" x2="-101.682" x1="-75.702" style="fill:none;" /><ns0:line y2="-27.9793" y1="-40.9585" x2="-98.182" x1="-75.702" style="fill:none;" /><ns0:line y2="-30" y1="0" x2="-101.682" x1="-101.682" style="fill:none;" /></ns0:g><ns0:g transform="translate(105,49)" style="fill:rgb(230,0,0); text-rendering:geometricPrecision; color-rendering:optimizeQuality; image-rendering:optimizeQuality; font-family:'Open Sans'; stroke:rgb(230,0,0); color-interpolation:linearRGB;"><ns0:path style="stroke:none;" d="M6.1785 -0.0703 Q6.1785 1.9922 5.1394 3.1719 Q4.1004 4.3516 2.2566 4.3516 Q0.366 4.3516 -0.6653 3.1875 Q-1.6965 2.0234 -1.6965 -0.0859 Q-1.6965 -2.1797 -0.6653 -3.3281 Q0.366 -4.4766 2.2566 -4.4766 Q4.116 -4.4766 5.1473 -3.3047 Q6.1785 -2.1328 6.1785 -0.0703 ZM-0.6496 -0.0703 Q-0.6496 1.6641 0.0926 2.5703 Q0.8347 3.4766 2.2566 3.4766 Q3.6785 3.4766 4.4051 2.5781 Q5.1316 1.6797 5.1316 -0.0703 Q5.1316 -1.8047 4.4051 -2.6953 Q3.6785 -3.5859 2.2566 -3.5859 Q0.8347 -3.5859 0.0926 -2.6875 Q-0.6496 -1.7891 -0.6496 -0.0703 Z" /><ns0:path style="stroke:none;" d="M32.1585 44.9297 Q32.1585 46.9922 31.1194 48.1719 Q30.0804 49.3516 28.2366 49.3516 Q26.346 49.3516 25.3148 48.1875 Q24.2835 47.0234 24.2835 44.9141 Q24.2835 42.8203 25.3148 41.6719 Q26.346 40.5234 28.2366 40.5234 Q30.096 40.5234 31.1273 41.6953 Q32.1585 42.8672 32.1585 44.9297 ZM25.3304 44.9297 Q25.3304 46.6641 26.0726 47.5703 Q26.8148 48.4766 28.2366 48.4766 Q29.6585 48.4766 30.3851 47.5781 Q31.1116 46.6797 31.1116 44.9297 Q31.1116 43.1953 30.3851 42.3047 Q29.6585 41.4141 28.2366 41.4141 Q26.8148 41.4141 26.0726 42.3125 Q25.3304 43.2109 25.3304 44.9297 Z" /></ns0:g><ns0:g transform="translate(105,49)" style="stroke-linecap:butt; text-rendering:geometricPrecision; color-rendering:optimizeQuality; image-rendering:optimizeQuality; font-family:'Open Sans'; color-interpolation:linearRGB; stroke-miterlimit:5;"><ns0:path style="fill:none;" d="M-23.306 14.75 L-23.739 15 L-24.172 14.75" /><ns0:path style="fill:none;" d="M54.2533 -0.4973 L54.201 0 L54.6578 0.2033" /></ns0:g><ns0:g transform="translate(105,49)" style="stroke-linecap:butt; font-size:8.4px; fill:gray; text-rendering:geometricPrecision; image-rendering:optimizeQuality; color-rendering:optimizeQuality; font-family:'Open Sans'; font-style:italic; stroke:gray; color-interpolation:linearRGB; stroke-miterlimit:5;"><ns0:path style="stroke:none;" d="M50.6162 11.1894 Q50.6162 9.8613 51.0849 8.7363 Q51.5537 7.6113 52.5849 6.5332 L53.1943 6.5332 Q52.2256 7.5957 51.7412 8.7675 Q51.2568 9.9394 51.2568 11.1738 Q51.2568 12.5019 51.6943 13.5175 L51.1787 13.5175 Q50.6162 12.4863 50.6162 11.1894 ZM56.2387 10.5957 Q56.2387 11.4238 55.6919 11.8769 Q55.145 12.33 54.145 12.33 Q53.7387 12.33 53.4262 12.2753 Q53.1137 12.2207 52.8325 12.08 L52.8325 11.4238 Q53.4575 11.7519 54.1606 11.7519 Q54.7856 11.7519 55.1606 11.455 Q55.5356 11.1582 55.5356 10.6425 Q55.5356 10.33 55.3325 10.1035 Q55.1294 9.8769 54.5669 9.5488 Q53.9731 9.2207 53.7466 8.8925 Q53.52 8.5644 53.52 8.1113 Q53.52 7.3769 54.0356 6.916 Q54.5512 6.455 55.395 6.455 Q55.77 6.455 56.1059 6.5332 Q56.4419 6.6113 56.8169 6.7832 L56.5512 7.3769 Q56.3012 7.2207 55.9809 7.1347 Q55.6606 7.0488 55.395 7.0488 Q54.8637 7.0488 54.5434 7.3222 Q54.2231 7.5957 54.2231 8.0644 Q54.2231 8.2675 54.2934 8.416 Q54.3637 8.5644 54.5044 8.6972 Q54.645 8.83 55.0669 9.08 Q55.6294 9.4238 55.8325 9.6191 Q56.0356 9.8144 56.1372 10.0488 Q56.2387 10.2832 56.2387 10.5957 ZM58.8332 8.8769 Q58.8332 10.205 58.3567 11.3378 Q57.8801 12.4707 56.8645 13.5175 L56.2551 13.5175 Q58.1926 11.3613 58.1926 8.8769 Q58.1926 7.5488 57.7551 6.5332 L58.2707 6.5332 Q58.8332 7.5957 58.8332 8.8769 Z" /><ns0:path style="fill:none; stroke:black;" d="M57.2867 -29.3377 L57.339 -29.835 L57.8281 -29.939" /></ns0:g><ns0:g transform="translate(105,49)" style="stroke-linecap:butt; fill:rgb(0,5,255); text-rendering:geometricPrecision; color-rendering:optimizeQuality; image-rendering:optimizeQuality; font-family:'Open Sans'; stroke:rgb(0,5,255); color-interpolation:linearRGB; stroke-miterlimit:5;"><ns0:path style="stroke:none;" d="M84.9606 16.3573 L83.8199 16.3573 L79.1324 9.1698 L79.0856 9.1698 Q79.1793 10.4354 79.1793 11.4823 L79.1793 16.3573 L78.2574 16.3573 L78.2574 7.7948 L79.3824 7.7948 L84.0543 14.951 L84.1012 14.951 Q84.1012 14.7948 84.0543 13.9354 Q84.0074 13.076 84.0231 12.701 L84.0231 7.7948 L84.9606 7.7948 L84.9606 16.3573 Z" /><ns0:path style="stroke:none;" d="M84.8668 25.9198 L83.8668 25.9198 L83.8668 21.8885 L79.3512 21.8885 L79.3512 25.9198 L78.3512 25.9198 L78.3512 17.3573 L79.3512 17.3573 L79.3512 20.9979 L83.8668 20.9979 L83.8668 17.3573 L84.8668 17.3573 L84.8668 25.9198 Z" /><ns0:path style="fill:none; stroke:black;" d="M86.1929 -35.968 L86.682 -36.072 L86.932 -35.639" /><ns0:path style="fill:none; stroke:black;" d="M101.3474 -9.7204 L101.682 -10.092 L101.432 -10.525" /><ns0:path style="fill:none; stroke:black;" d="M-49.722 -0.5 L-49.722 0 L-50.155 0.25" /><ns0:path style="fill:none; stroke:black;" d="M-49.722 -29.5 L-49.722 -30 L-50.155 -30.25" /><ns0:path style="fill:none; stroke:black;" d="M-75.269 14.75 L-75.702 15 L-76.135 14.75" /><ns0:path style="fill:none; stroke:black;" d="M-75.269 -44.75 L-75.702 -45 L-76.135 -44.75" /><ns0:path style="fill:none; stroke:black;" d="M-101.249 0.25 L-101.682 0 L-101.682 -0.5" /><ns0:path style="fill:none; stroke:black;" d="M-101.249 -30.25 L-101.682 -30 L-101.682 -29.5" /></ns0:g></ns0:g></ns0:svg></ns0:svg><ns0:svg y="101" x="97" class="cas-substance-saf"><ns0:svg y="5" x="0" width="4" style="fill:black;" height="4" class="cas-substance-saf-dot"><ns0:circle stroke="none" r="2" fill="black" cy="2" cx="2" /></ns0:svg><ns0:svg y="0" x="8" width="22" style="fill:black;" height="15" class="cas-substance-saf-image"><ns0:svg><ns0:g><ns0:g transform="translate(6,8)" style="fill:rgb(0,138,0); text-rendering:geometricPrecision; color-rendering:optimizeQuality; image-rendering:optimizeQuality; font-family:'Open Sans'; stroke:rgb(0,138,0); color-interpolation:linearRGB;"><ns0:path style="stroke:none;" d="M3.2578 4.1562 L2.2578 4.1562 L2.2578 0.125 L-2.2578 0.125 L-2.2578 4.1562 L-3.2578 4.1562 L-3.2578 -4.4062 L-2.2578 -4.4062 L-2.2578 -0.7656 L2.2578 -0.7656 L2.2578 -4.4062 L3.2578 -4.4062 L3.2578 4.1562 Z" /><ns0:path style="stroke:none;" d="M8.3672 -3.6406 Q6.9609 -3.6406 6.1406 -2.7031 Q5.3203 -1.7656 5.3203 -0.125 Q5.3203 1.5469 6.1094 2.4688 Q6.8984 3.3906 8.3516 3.3906 Q9.2578 3.3906 10.3984 3.0625 L10.3984 3.9375 Q9.5078 4.2812 8.2109 4.2812 Q6.3203 4.2812 5.2891 3.125 Q4.2578 1.9688 4.2578 -0.1406 Q4.2578 -1.4688 4.75 -2.4609 Q5.2422 -3.4531 6.1797 -3.9922 Q7.1172 -4.5312 8.3828 -4.5312 Q9.7266 -4.5312 10.7422 -4.0469 L10.3203 -3.1875 Q9.3359 -3.6406 8.3672 -3.6406 ZM13.0938 4.1562 L12.125 4.1562 L12.125 -4.9688 L13.0938 -4.9688 L13.0938 4.1562 Z" /></ns0:g></ns0:g></ns0:svg></ns0:svg></ns0:svg></ns0:svg></ns0:svg></g></svg>