<svg width="142" viewBox="0 0 142 89" style="fill-opacity:1; color-rendering:auto; color-interpolation:auto; text-rendering:auto; stroke:black; stroke-linecap:square; stroke-miterlimit:10; shape-rendering:auto; stroke-opacity:1; fill:black; stroke-dasharray:none; font-weight:normal; stroke-width:1; font-family:'Open Sans'; font-style:normal; stroke-linejoin:miter; font-size:12; stroke-dashoffset:0; image-rendering:auto;" height="89" class="cas-substance-image" xmlns:xlink="http://www.w3.org/1999/xlink" xmlns="http://www.w3.org/2000/svg"><svg class="cas-substance-single-component"><rect y="0" x="0" width="142" stroke="none" ry="7" rx="7" height="89" fill="white" class="cas-substance-group"/><svg y="0" x="0" width="142" viewBox="0 0 142 89" style="fill:black;" height="89" class="cas-substance-single-component-image"><svg><g><g transform="translate(71,46)" style="text-rendering:geometricPrecision; color-rendering:optimizeQuality; color-interpolation:linearRGB; stroke-linecap:butt; image-rendering:optimizeQuality;"><line y2="-12.99" y1="-12.99" x2="37.5" x1="67.5" style="fill:none;"/><line y2="-12.99" y1="12.99" x2="-22.5" x1="-7.5" style="fill:none;"/><line y2="12.99" y1="12.99" x2="17.1484" x1="-7.5" style="fill:none;"/><line y2="38.97" y1="12.99" x2="-22.5" x1="-7.5" style="fill:none;"/><line y2="35.47" y1="12.9899" x2="-24.5207" x1="-11.5415" style="fill:none;"/><line y2="-33.322" y1="-12.99" x2="-10.761" x1="-22.5" style="fill:none;"/><line y2="-12.99" y1="-12.99" x2="-52.5" x1="-22.5" style="fill:none;"/><line y2="-9.49" y1="-9.49" x2="-50.4793" x1="-24.5207" style="fill:none;"/><line y2="-12.99" y1="6.8517" x2="37.5" x1="26.044" style="fill:none;"/><line y2="38.97" y1="38.97" x2="-52.5" x1="-22.5" style="fill:none;"/><line y2="-38.97" y1="-38.97" x2="22.5" x1="-1.5625" style="fill:none;"/><line y2="12.99" y1="-12.99" x2="-67.5" x1="-52.5" style="fill:none;"/><line y2="-38.97" y1="-12.99" x2="22.5" x1="37.5" style="fill:none;"/><line y2="12.99" y1="38.97" x2="-67.5" x1="-52.5" style="fill:none;"/><line y2="12.9899" y1="35.47" x2="-63.4585" x1="-50.4793" style="fill:none;"/><path style="fill:none; stroke-miterlimit:5;" d="M-7.75 13.423 L-7.5 12.99 L-7.75 12.557"/><path style="fill:none; stroke-miterlimit:5;" d="M-23 -12.99 L-22.5 -12.99 L-22.25 -12.557"/></g><g transform="translate(71,46)" style="stroke-linecap:butt; fill:rgb(0,5,255); text-rendering:geometricPrecision; color-rendering:optimizeQuality; image-rendering:optimizeQuality; font-family:'Open Sans'; stroke:rgb(0,5,255); color-interpolation:linearRGB; stroke-miterlimit:5;"><path style="stroke:none;" d="M25.8516 17.1462 L24.7109 17.1462 L20.0234 9.9587 L19.9766 9.9587 Q20.0703 11.2244 20.0703 12.2712 L20.0703 17.1462 L19.1484 17.1462 L19.1484 8.5837 L20.2734 8.5837 L24.9453 15.74 L24.9922 15.74 Q24.9922 15.5837 24.9453 14.7244 Q24.8984 13.865 24.9141 13.49 L24.9141 8.5837 L25.8516 8.5837 L25.8516 17.1462 Z"/><path style="stroke:none;" d="M25.7578 26.7087 L24.7578 26.7087 L24.7578 22.6775 L20.2422 22.6775 L20.2422 26.7087 L19.2422 26.7087 L19.2422 18.1462 L20.2422 18.1462 L20.2422 21.7869 L24.7578 21.7869 L24.7578 18.1462 L25.7578 18.1462 L25.7578 26.7087 Z"/><path style="fill:none; stroke:black;" d="M-22.25 38.537 L-22.5 38.97 L-23 38.97"/><path style="fill:rgb(230,0,0); stroke:none;" d="M-3.5625 -39.0403 Q-3.5625 -36.9778 -4.6016 -35.7981 Q-5.6406 -34.6184 -7.4844 -34.6184 Q-9.375 -34.6184 -10.4062 -35.7825 Q-11.4375 -36.9466 -11.4375 -39.0559 Q-11.4375 -41.1497 -10.4062 -42.2981 Q-9.375 -43.4466 -7.4844 -43.4466 Q-5.625 -43.4466 -4.5938 -42.2747 Q-3.5625 -41.1028 -3.5625 -39.0403 ZM-10.3906 -39.0403 Q-10.3906 -37.3059 -9.6484 -36.3997 Q-8.9062 -35.4934 -7.4844 -35.4934 Q-6.0625 -35.4934 -5.3359 -36.3919 Q-4.6094 -37.2903 -4.6094 -39.0403 Q-4.6094 -40.7747 -5.3359 -41.6653 Q-6.0625 -42.5559 -7.4844 -42.5559 Q-8.9062 -42.5559 -9.6484 -41.6575 Q-10.3906 -40.7591 -10.3906 -39.0403 Z"/><path style="fill:none; stroke:black;" d="M-52 -12.99 L-52.5 -12.99 L-52.75 -12.557"/><path style="fill:none; stroke:black;" d="M-52 38.97 L-52.5 38.97 L-52.75 38.537"/><path style="fill:none; stroke:black;" d="M22 -38.97 L22.5 -38.97 L22.75 -38.537"/><path style="fill:none; stroke:black;" d="M-67.25 12.557 L-67.5 12.99 L-67.25 13.423"/></g></g></svg></svg></svg></svg>