<svg xmlns:ns0="http://www.w3.org/2000/svg" xmlns="http://www.w3.org/2000/svg"><g transform="translate(0, 0)"><ns0:svg width="141" viewBox="0 0 141 135" style="fill-opacity:1; color-rendering:auto; color-interpolation:auto; text-rendering:auto; stroke:black; stroke-linecap:square; stroke-miterlimit:10; shape-rendering:auto; stroke-opacity:1; fill:black; stroke-dasharray:none; font-weight:normal; stroke-width:1; font-family:'Open Sans'; font-style:normal; stroke-linejoin:miter; font-size:12; stroke-dashoffset:0; image-rendering:auto;" height="135" class="cas-substance-image"><ns0:svg class="cas-substance-single-component"><ns0:rect y="0" x="0" width="141" stroke="none" ry="7" rx="7" height="135" fill="white" class="cas-substance-group" /><ns0:svg y="0" x="0" width="141" viewBox="0 0 141 135" style="fill:black;" height="135" class="cas-substance-single-component-image"><ns0:svg><ns0:g><ns0:g transform="translate(70,67)" style="text-rendering:geometricPrecision; color-rendering:optimizeQuality; color-interpolation:linearRGB; stroke-linecap:butt; image-rendering:optimizeQuality;"><ns0:line y2="-9.8926" y1="-30" x2="-50.5794" x1="-38.97" style="fill:none;" /><ns0:line y2="-43.0226" y1="-30" x2="-61.5278" x1="-38.97" style="fill:none;" /><ns0:line y2="-50.1074" y1="-30" x2="-27.3606" x1="-38.97" style="fill:none;" /><ns0:line y2="-15" y1="-30" x2="-12.99" x1="-38.97" style="fill:none;" /><ns0:line y2="-30" y1="-53.8438" x2="12.99" x1="12.99" style="fill:none;" /><ns0:line y2="-15" y1="-27.62" x2="38.97" x1="60.8303" style="fill:none;" /><ns0:line y2="30" y1="54.0468" x2="12.99" x1="12.99" style="fill:none;" /><ns0:line y2="-30" y1="-15" x2="12.99" x1="-12.99" style="fill:none;" /><ns0:line y2="-25.9585" y1="-12.9793" x2="12.9901" x1="-9.49" style="fill:none;" /><ns0:line y2="15" y1="-15" x2="-12.99" x1="-12.99" style="fill:none;" /><ns0:line y2="-15" y1="-30" x2="38.97" x1="12.99" style="fill:none;" /><ns0:line y2="30" y1="15" x2="12.99" x1="-12.99" style="fill:none;" /><ns0:line y2="25.9585" y1="12.9793" x2="12.9901" x1="-9.49" style="fill:none;" /><ns0:line y2="15" y1="-15" x2="38.97" x1="38.97" style="fill:none;" /><ns0:line y2="12.9793" y1="-12.9793" x2="35.47" x1="35.47" style="fill:none;" /><ns0:line y2="15" y1="30" x2="38.97" x1="12.99" style="fill:none;" /></ns0:g><ns0:g transform="translate(70,67)" style="fill:rgb(0,138,0); text-rendering:geometricPrecision; color-rendering:optimizeQuality; image-rendering:optimizeQuality; font-family:'Open Sans'; stroke:rgb(0,138,0); color-interpolation:linearRGB;"><ns0:path style="stroke:none;" d="M-55.3606 0.1363 L-56.3606 0.1363 L-56.3606 -8.4263 L-51.5794 -8.4263 L-51.5794 -7.5512 L-55.3606 -7.5512 L-55.3606 -4.4106 L-51.8138 -4.4106 L-51.8138 -3.52 L-55.3606 -3.52 L-55.3606 0.1363 Z" /><ns0:path style="stroke:none;" d="M-66.3436 -40.8438 L-67.3436 -40.8438 L-67.3436 -49.4062 L-62.5624 -49.4062 L-62.5624 -48.5312 L-66.3436 -48.5312 L-66.3436 -45.3906 L-62.7968 -45.3906 L-62.7968 -44.5 L-66.3436 -44.5 L-66.3436 -40.8438 Z" /><ns0:path style="stroke:none;" d="M-25.3606 -51.8238 L-26.3606 -51.8238 L-26.3606 -60.3863 L-21.5794 -60.3863 L-21.5794 -59.5113 L-25.3606 -59.5113 L-25.3606 -56.3706 L-21.8138 -56.3706 L-21.8138 -55.48 L-25.3606 -55.48 L-25.3606 -51.8238 Z" /><ns0:path style="fill:rgb(0,5,255); stroke:none;" d="M16.3416 -55.8438 L15.2009 -55.8438 L10.5134 -63.0312 L10.4666 -63.0312 Q10.5603 -61.7656 10.5603 -60.7188 L10.5603 -55.8438 L9.6384 -55.8438 L9.6384 -64.4062 L10.7634 -64.4062 L15.4353 -57.25 L15.4822 -57.25 Q15.4822 -57.4062 15.4353 -58.2656 Q15.3884 -59.125 15.4041 -59.5 L15.4041 -64.4062 L16.3416 -64.4062 L16.3416 -55.8438 Z" /><ns0:path style="fill:rgb(0,5,255); stroke:none;" d="M23.8572 -55.8438 L22.8572 -55.8438 L22.8572 -59.875 L18.3416 -59.875 L18.3416 -55.8438 L17.3416 -55.8438 L17.3416 -64.4062 L18.3416 -64.4062 L18.3416 -60.7656 L22.8572 -60.7656 L22.8572 -64.4062 L23.8572 -64.4062 L23.8572 -55.8438 Z" /><ns0:path style="fill:rgb(0,5,255); stroke:none;" d="M28.6072 -54.0344 L24.8572 -54.0344 L24.8572 -54.5969 L26.3572 -56.1125 Q27.0447 -56.8 27.2634 -57.0969 Q27.4822 -57.3937 27.5916 -57.675 Q27.7009 -57.9562 27.7009 -58.2844 Q27.7009 -58.7375 27.4275 -59.0031 Q27.1541 -59.2687 26.6541 -59.2687 Q26.3103 -59.2687 25.99 -59.1516 Q25.6697 -59.0344 25.2791 -58.7375 L24.9353 -59.175 Q25.7166 -59.8312 26.6541 -59.8312 Q27.4509 -59.8312 27.9119 -59.4172 Q28.3728 -59.0031 28.3728 -58.3156 Q28.3728 -57.7687 28.0681 -57.2375 Q27.7634 -56.7062 26.9197 -55.8937 L25.6697 -54.675 L25.6697 -54.6437 L28.6072 -54.6437 L28.6072 -54.0344 Z" /><ns0:path style="stroke:none;" d="M63.5624 -25.8438 L62.5624 -25.8438 L62.5624 -34.4062 L67.3436 -34.4062 L67.3436 -33.5312 L63.5624 -33.5312 L63.5624 -30.3906 L67.1093 -30.3906 L67.1093 -29.5 L63.5624 -29.5 L63.5624 -25.8438 Z" /><ns0:path style="stroke:none;" d="M7.3211 55.5938 L9.7429 55.5938 Q11.4461 55.5938 12.2117 56.1016 Q12.9773 56.6094 12.9773 57.7031 Q12.9773 58.4688 12.5554 58.9688 Q12.1336 59.4688 11.3054 59.6094 L11.3054 59.6719 Q13.2586 60 13.2586 61.7188 Q13.2586 62.8594 12.4851 63.5078 Q11.7117 64.1562 10.3211 64.1562 L7.3211 64.1562 L7.3211 55.5938 ZM8.3211 59.25 L9.9617 59.25 Q11.0242 59.25 11.4851 58.9219 Q11.9461 58.5938 11.9461 57.8125 Q11.9461 57.0938 11.4304 56.7734 Q10.9148 56.4531 9.7898 56.4531 L8.3211 56.4531 L8.3211 59.25 ZM8.3211 60.0938 L8.3211 63.3125 L10.1179 63.3125 Q11.1492 63.3125 11.6726 62.9062 Q12.1961 62.5 12.1961 61.6406 Q12.1961 60.8438 11.657 60.4688 Q11.1179 60.0938 10.0242 60.0938 L8.3211 60.0938 ZM17.8933 57.6094 Q18.3152 57.6094 18.6589 57.6875 L18.5183 58.5938 Q18.1277 58.5 17.8152 58.5 Q17.0339 58.5 16.4793 59.1328 Q15.9246 59.7656 15.9246 60.7031 L15.9246 64.1562 L14.9558 64.1562 L14.9558 57.7344 L15.7527 57.7344 L15.8777 58.9219 L15.9246 58.9219 Q16.2683 58.2969 16.7761 57.9531 Q17.2839 57.6094 17.8933 57.6094 Z" /></ns0:g><ns0:g transform="translate(70,67)" style="stroke-linecap:butt; text-rendering:geometricPrecision; color-rendering:optimizeQuality; image-rendering:optimizeQuality; font-family:'Open Sans'; color-interpolation:linearRGB; stroke-miterlimit:5;"><ns0:path style="fill:none;" d="M-12.557 -15.25 L-12.99 -15 L-12.99 -14.5" /><ns0:path style="fill:none;" d="M12.557 -29.75 L12.99 -30 L12.99 -30.5" /><ns0:path style="fill:none;" d="M-12.99 14.5 L-12.99 15 L-12.557 15.25" /><ns0:path style="fill:none;" d="M38.97 -14.5 L38.97 -15 L39.403 -15.25" /><ns0:path style="fill:none;" d="M12.557 29.75 L12.99 30 L13.423 29.75" /><ns0:path style="fill:none;" d="M38.97 14.5 L38.97 15 L38.537 15.25" /></ns0:g></ns0:g></ns0:svg></ns0:svg></ns0:svg></ns0:svg></g></svg>