<svg xmlns:ns0="http://www.w3.org/2000/svg" xmlns="http://www.w3.org/2000/svg"><g transform="translate(0, 0)"><ns0:svg width="318" viewBox="0 0 318 138" style="fill-opacity:1; color-rendering:auto; color-interpolation:auto; text-rendering:auto; stroke:black; stroke-linecap:square; stroke-miterlimit:10; shape-rendering:auto; stroke-opacity:1; fill:black; stroke-dasharray:none; font-weight:normal; stroke-width:1; font-family:'Open Sans'; font-style:normal; stroke-linejoin:miter; font-size:12; stroke-dashoffset:0; image-rendering:auto;" height="138" class="cas-substance-image"><ns0:svg class="cas-substance-single-component"><ns0:rect y="0" x="0" width="318" stroke="none" ry="7" rx="7" height="138" fill="white" class="cas-substance-group" /><ns0:svg y="0" x="0" width="318" viewBox="0 0 318 138" style="fill:black;" height="138" class="cas-substance-single-component-image"><ns0:svg><ns0:g><ns0:g transform="translate(157,67)" style="text-rendering:geometricPrecision; color-rendering:optimizeQuality; color-interpolation:linearRGB; stroke-linecap:butt; image-rendering:optimizeQuality;"><ns0:path style="stroke:none;" d="M-63.8095 18.7025 L-64.6345 19.5275 L-63.9863 20.2935 L-63.9863 20.2935 L-63.0435 19.3507 L-63.0435 19.3507 L-63.8095 18.7025 ZM-61.5114 20.6471 L-62.6899 21.8256 L-62.0417 22.5916 L-62.0417 22.5916 L-60.7454 21.2953 L-61.5114 20.6471 ZM-59.2133 22.5916 L-60.7454 24.1237 L-60.0972 24.8897 L-60.0972 24.8897 L-58.4473 23.2398 L-58.4473 23.2398 L-59.2133 22.5916 ZM-56.9152 24.5362 L-58.8008 26.4218 L-58.1527 27.1878 L-56.1492 25.1843 L-56.9152 24.5362 ZM-54.6171 26.4807 L-56.8563 28.7199 L-56.2081 29.4859 L-53.8511 27.1289 L-54.6171 26.4807 ZM-52.319 28.4252 L-54.9118 31.018 L-54.9118 31.018 L-54.2636 31.784 L-51.553 29.0734 L-51.553 29.0734 L-52.319 28.4252 ZM-50.0209 30.3698 L-52.9672 33.3161 L-52.319 34.0821 L-49.2549 31.018 L-50.0209 30.3698 ZM-47.7228 32.3143 L-51.0227 35.6142 L-50.3745 36.3802 L-50.3745 36.3802 L-46.9568 32.9625 L-46.9568 32.9625 L-47.7228 32.3143 ZM-45.4247 34.2589 L-49.0781 37.9123 L-48.43 38.6783 L-48.43 38.6783 L-44.6587 34.9071 L-44.6587 34.9071 L-45.4247 34.2589 ZM-43.1266 36.2034 L-47.1336 40.2104 L-47.1336 40.2104 L-46.4854 40.9764 L-46.4854 40.9764 L-42.3606 36.8516 L-42.3606 36.8516 L-43.1266 36.2034 Z" /><ns0:path style="stroke:none;" d="M-38.2068 -55.7291 L-44.0235 -55.291 L-44.0235 -55.291 L-43.8657 -54.3001 L-43.8657 -54.3001 L-38.2152 -54.7256 L-38.2152 -54.7256 L-38.2068 -55.7291 ZM-38.232 -52.7188 L-43.5501 -52.3183 L-43.5501 -52.3183 L-43.3923 -51.3273 L-43.3923 -51.3273 L-38.2404 -51.7153 L-38.2404 -51.7153 L-38.232 -52.7188 ZM-38.2572 -49.7085 L-43.0768 -49.3455 L-43.0768 -49.3455 L-42.919 -48.3546 L-42.919 -48.3546 L-38.2656 -48.705 L-38.2656 -48.705 L-38.2572 -49.7085 ZM-38.2824 -46.6981 L-42.6034 -46.3727 L-42.6034 -46.3727 L-42.4456 -45.3818 L-42.4456 -45.3818 L-38.2908 -45.6947 L-38.2908 -45.6947 L-38.2824 -46.6981 ZM-38.3076 -43.6878 L-42.13 -43.4 L-42.13 -43.4 L-41.9722 -42.4091 L-41.9722 -42.4091 L-38.316 -42.6844 L-38.316 -42.6844 L-38.3076 -43.6878 ZM-38.3328 -40.6775 L-41.6566 -40.4272 L-41.6566 -40.4272 L-41.4989 -39.4363 L-38.3412 -39.6741 L-38.3412 -39.6741 L-38.3328 -40.6775 ZM-38.358 -37.6672 L-41.1833 -37.4545 L-41.1833 -37.4545 L-41.0255 -36.4636 L-41.0255 -36.4636 L-38.3664 -36.6638 L-38.3664 -36.6638 L-38.358 -37.6672 ZM-38.3832 -34.6569 L-40.7099 -34.4817 L-40.7099 -34.4817 L-40.5521 -33.4908 L-40.5521 -33.4908 L-38.3916 -33.6535 L-38.3916 -33.6535 L-38.3832 -34.6569 ZM-38.4084 -31.6466 L-40.2365 -31.509 L-40.2365 -31.509 L-40.0787 -30.518 L-40.0787 -30.518 L-38.4168 -30.6432 L-38.4168 -30.6432 L-38.4084 -31.6466 ZM-38.4336 -28.6363 L-39.7631 -28.5362 L-39.7631 -28.5362 L-39.6054 -27.5453 L-39.6054 -27.5453 L-38.442 -27.6329 L-38.442 -27.6329 L-38.4336 -28.6363 Z" /><ns0:line y2="18.408" y1="-9.783" x2="-116.892" x1="-127.152" style="fill:none;" /><ns0:line y2="18.408" y1="23.619" x2="-116.892" x1="-146.436" style="fill:none;" /><ns0:path style="stroke:none;" d="M-117.8531 48.2907 L-118.7724 48.6988 L-118.7724 48.6988 L-118.0846 49.8915 L-118.0846 49.8915 L-117.2714 49.2993 L-117.2714 49.2993 L-117.8531 48.2907 ZM-120.611 49.5152 L-121.5304 49.9234 L-121.5304 49.9234 L-120.5243 51.668 L-119.7111 51.0758 L-120.611 49.5152 ZM-123.369 50.7397 L-124.2884 51.1479 L-124.2884 51.1479 L-122.964 53.4445 L-122.964 53.4445 L-122.1507 52.8523 L-122.1507 52.8523 L-123.369 50.7397 ZM-126.127 51.9642 L-127.0464 52.3724 L-125.4036 55.221 L-125.4036 55.221 L-124.5904 54.6288 L-126.127 51.9642 ZM-128.885 53.1887 L-129.8044 53.5969 L-129.8044 53.5969 L-127.8433 56.9975 L-127.0301 56.4053 L-128.885 53.1887 ZM-131.643 54.4132 L-132.5623 54.8214 L-132.5623 54.8214 L-130.283 58.774 L-129.4698 58.1818 L-131.643 54.4132 ZM-134.401 55.6377 L-135.3203 56.0459 L-132.7227 60.5505 L-132.7227 60.5505 L-131.9094 59.9583 L-134.401 55.6377 ZM-137.159 56.8622 L-138.0783 57.2704 L-135.1623 62.327 L-135.1623 62.327 L-134.3491 61.7348 L-137.159 56.8622 Z" /><ns0:path style="stroke:none;" d="M56.1946 -9.4317 L57.1814 -9.2703 L54.8067 20.7402 L48.8853 19.7718 Z" /><ns0:line y2="-31.896" y1="-40.02" x2="103.503" x1="132.381" style="fill:none;" /><ns0:line y2="-31.896" y1="-61.746" x2="103.503" x1="100.515" style="fill:none;" /><ns0:path style="stroke:none;" d="M116.4827 -4.3674 L116.5574 -5.3646 L140.7282 -6.061 L140.28 -0.0777 Z" /><ns0:line y2="18.408" y1="3.408" x2="-64.929" x1="-38.949" style="fill:none;" /><ns0:line y2="-26.592" y1="3.408" x2="-38.949" x1="-38.949" style="fill:none;" /><ns0:line y2="22.113" y1="3.408" x2="-15.495" x1="-38.949" style="fill:none;" /><ns0:line y2="3.408" y1="18.408" x2="-90.909" x1="-64.929" style="fill:none;" /><ns0:line y2="48.408" y1="18.408" x2="-64.929" x1="-64.929" style="fill:none;" /><ns0:line y2="-45.297" y1="-26.592" x2="-15.495" x1="-38.949" style="fill:none;" /><ns0:line y2="-41.592" y1="-26.592" x2="-64.929" x1="-38.949" style="fill:none;" /><ns0:line y2="15.438" y1="22.113" x2="13.755" x1="-15.495" style="fill:none;" /><ns0:line y2="-26.592" y1="3.408" x2="-90.909" x1="-90.909" style="fill:none;" /><ns0:line y2="18.408" y1="3.408" x2="-116.892" x1="-90.909" style="fill:none;" /><ns0:line y2="63.408" y1="48.408" x2="-90.909" x1="-64.929" style="fill:none;" /><ns0:line y2="-38.622" y1="-45.297" x2="13.755" x1="-15.495" style="fill:none;" /><ns0:line y2="-26.592" y1="-41.592" x2="-90.909" x1="-64.929" style="fill:none;" /><ns0:line y2="-11.592" y1="15.438" x2="26.772" x1="13.755" style="fill:none;" /><ns0:line y2="48.408" y1="18.408" x2="-116.892" x1="-116.892" style="fill:none;" /><ns0:line y2="48.408" y1="63.408" x2="-116.892" x1="-90.909" style="fill:none;" /><ns0:line y2="-11.592" y1="-38.622" x2="26.772" x1="13.755" style="fill:none;" /><ns0:line y2="-63.408" y1="-38.622" x2="30.654" x1="13.755" style="fill:none;" /><ns0:line y2="-59.7668" y1="-38.32" x2="32.4075" x1="17.7851" style="fill:none;" /><ns0:line y2="-9.351" y1="-11.592" x2="56.688" x1="26.772" style="fill:none;" /><ns0:line y2="-61.167" y1="-63.408" x2="60.57" x1="30.654" style="fill:none;" /><ns0:line y2="-34.137" y1="-9.351" x2="73.587" x1="56.688" style="fill:none;" /><ns0:line y2="17.679" y1="-9.351" x2="69.702" x1="56.688" style="fill:none;" /><ns0:line y2="-34.137" y1="-61.167" x2="73.587" x1="60.57" style="fill:none;" /><ns0:line y2="-31.896" y1="-34.137" x2="103.503" x1="73.587" style="fill:none;" /><ns0:line y2="19.92" y1="17.679" x2="99.618" x1="69.702" style="fill:none;" /><ns0:line y2="-4.866" y1="-31.896" x2="116.52" x1="103.503" style="fill:none;" /><ns0:line y2="-4.866" y1="19.92" x2="116.52" x1="99.618" style="fill:none;" /><ns0:path style="stroke:none;" d="M-39.4167 3.5848 L-38.4813 3.2312 L-27.9054 24.132 L-33.5176 26.2541 Z" /><ns0:path style="stroke:none;" d="M-90.659 2.975 L-91.159 3.841 L-113.402 -6.1132 L-110.4022 -11.3095 Z" /><ns0:path style="stroke:none;" d="M27.5153 -11.0463 L26.4009 -10.7489 L26.4009 -10.7489 L26.5567 -9.7552 L27.8773 -10.1076 L27.8773 -10.1076 L27.5153 -11.0463 ZM28.6012 -8.2303 L26.8683 -7.7678 L26.8683 -7.7678 L27.0241 -6.7741 L28.9632 -7.2916 L28.6012 -8.2303 ZM29.6872 -5.4142 L27.3357 -4.7867 L27.4915 -3.793 L30.0491 -4.4755 L29.6872 -5.4142 ZM30.7731 -2.5982 L27.8031 -1.8056 L27.8031 -1.8056 L27.9589 -0.8119 L31.1351 -1.6595 L30.7731 -2.5982 ZM31.859 0.2178 L28.2705 1.1754 L28.4263 2.1691 L32.221 1.1565 L31.859 0.2178 ZM32.945 3.0339 L28.7379 4.1565 L28.7379 4.1565 L28.8937 5.1502 L33.3069 3.9726 L32.945 3.0339 ZM34.0309 5.8499 L29.2053 7.1376 L29.2053 7.1376 L29.3611 8.1313 L34.3929 6.7886 L34.0309 5.8499 ZM35.1168 8.6659 L29.6727 10.1187 L29.6727 10.1187 L29.8285 11.1124 L29.8285 11.1124 L35.4788 9.6046 L35.1168 8.6659 Z" /><ns0:path style="stroke:none;" d="M83.1085 -53.0447 L82.635 -52.1571 L82.635 -52.1571 L87.0565 -49.1435 L87.7099 -49.9085 L87.7099 -49.9085 L83.1085 -53.0447 ZM81.6882 -50.3819 L81.2147 -49.4942 L81.2147 -49.4942 L85.0965 -46.8485 L85.7499 -47.6135 L85.7499 -47.6135 L81.6882 -50.3819 ZM80.2679 -47.719 L79.7944 -46.8313 L79.7944 -46.8313 L83.1365 -44.5535 L83.1365 -44.5535 L83.7898 -45.3185 L80.2679 -47.719 ZM78.8476 -45.0561 L78.3741 -44.1685 L81.1765 -42.2584 L81.8298 -43.0234 L78.8476 -45.0561 ZM77.4273 -42.3932 L76.9538 -41.5056 L76.9538 -41.5056 L79.2165 -39.9634 L79.8698 -40.7284 L77.4273 -42.3932 ZM76.007 -39.7303 L75.5335 -38.8427 L75.5335 -38.8427 L77.2565 -37.6684 L77.2565 -37.6684 L77.9098 -38.4334 L76.007 -39.7303 ZM74.5867 -37.0674 L74.1132 -36.1798 L75.2965 -35.3733 L75.9498 -36.1383 L74.5867 -37.0674 Z" /></ns0:g><ns0:g transform="translate(157,67)" style="fill:rgb(230,0,0); text-rendering:geometricPrecision; color-rendering:optimizeQuality; image-rendering:optimizeQuality; font-family:'Open Sans'; stroke:rgb(230,0,0); color-interpolation:linearRGB;"><ns0:path style="stroke:none;" d="M-138.9345 63.3377 Q-138.9345 65.4002 -139.9736 66.5799 Q-141.0126 67.7596 -142.8564 67.7596 Q-144.747 67.7596 -145.7783 66.5955 Q-146.8095 65.4314 -146.8095 63.3221 Q-146.8095 61.2283 -145.7783 60.0799 Q-144.747 58.9314 -142.8564 58.9314 Q-140.997 58.9314 -139.9658 60.1033 Q-138.9345 61.2752 -138.9345 63.3377 ZM-145.7626 63.3377 Q-145.7626 65.0721 -145.0204 65.9783 Q-144.2783 66.8846 -142.8564 66.8846 Q-141.4345 66.8846 -140.7079 65.9861 Q-139.9814 65.0877 -139.9814 63.3377 Q-139.9814 61.6033 -140.7079 60.7127 Q-141.4345 59.8221 -142.8564 59.8221 Q-144.2783 59.8221 -145.0204 60.7205 Q-145.7626 61.6189 -145.7626 63.3377 Z" /><ns0:path style="stroke:none;" d="M-147.8095 67.6346 L-148.8095 67.6346 L-148.8095 63.6033 L-153.3251 63.6033 L-153.3251 67.6346 L-154.3251 67.6346 L-154.3251 59.0721 L-153.3251 59.0721 L-153.3251 62.7127 L-148.8095 62.7127 L-148.8095 59.0721 L-147.8095 59.0721 L-147.8095 67.6346 Z" /><ns0:path style="stroke:none;" d="M150.3735 -2.6953 Q150.3735 -0.6328 149.3344 0.5469 Q148.2954 1.7266 146.4516 1.7266 Q144.561 1.7266 143.5297 0.5625 Q142.4985 -0.6016 142.4985 -2.7109 Q142.4985 -4.8047 143.5297 -5.9531 Q144.561 -7.1016 146.4516 -7.1016 Q148.311 -7.1016 149.3422 -5.9297 Q150.3735 -4.7578 150.3735 -2.6953 ZM143.5454 -2.6953 Q143.5454 -0.9609 144.2876 -0.0547 Q145.0297 0.8516 146.4516 0.8516 Q147.8735 0.8516 148.6001 -0.0469 Q149.3266 -0.9453 149.3266 -2.6953 Q149.3266 -4.4297 148.6001 -5.3203 Q147.8735 -6.2109 146.4516 -6.2109 Q145.0297 -6.2109 144.2876 -5.3125 Q143.5454 -4.4141 143.5454 -2.6953 Z" /><ns0:path style="stroke:none;" d="M157.8891 1.6016 L156.8891 1.6016 L156.8891 -2.4297 L152.3735 -2.4297 L152.3735 1.6016 L151.3735 1.6016 L151.3735 -6.9609 L152.3735 -6.9609 L152.3735 -3.3203 L156.8891 -3.3203 L156.8891 -6.9609 L157.8891 -6.9609 L157.8891 1.6016 Z" /></ns0:g><ns0:g transform="translate(157,67)" style="font-size:8.4px; fill:gray; text-rendering:geometricPrecision; image-rendering:optimizeQuality; color-rendering:optimizeQuality; font-family:'Open Sans'; font-style:italic; stroke:gray; color-interpolation:linearRGB;"><ns0:path style="stroke:none;" d="M-34.0478 0.2724 Q-34.0478 -1.0557 -33.579 -2.1807 Q-33.1103 -3.3057 -32.079 -4.3838 L-31.4697 -4.3838 Q-32.4384 -3.3213 -32.9228 -2.1495 Q-33.4072 -0.9776 -33.4072 0.2568 Q-33.4072 1.5849 -32.9697 2.6005 L-33.4853 2.6005 Q-34.0478 1.5693 -34.0478 0.2724 ZM-28.4252 -0.3213 Q-28.4252 0.5068 -28.9721 0.9599 Q-29.519 1.413 -30.519 1.413 Q-30.9252 1.413 -31.2377 1.3583 Q-31.5502 1.3037 -31.8315 1.163 L-31.8315 0.5068 Q-31.2065 0.8349 -30.5033 0.8349 Q-29.8783 0.8349 -29.5033 0.538 Q-29.1283 0.2412 -29.1283 -0.2745 Q-29.1283 -0.587 -29.3315 -0.8135 Q-29.5346 -1.0401 -30.0971 -1.3682 Q-30.6908 -1.6963 -30.9174 -2.0245 Q-31.144 -2.3526 -31.144 -2.8057 Q-31.144 -3.5401 -30.6283 -4.001 Q-30.1127 -4.462 -29.269 -4.462 Q-28.894 -4.462 -28.558 -4.3838 Q-28.2221 -4.3057 -27.8471 -4.1338 L-28.1127 -3.5401 Q-28.3627 -3.6963 -28.683 -3.7823 Q-29.0033 -3.8682 -29.269 -3.8682 Q-29.8002 -3.8682 -30.1205 -3.5948 Q-30.4408 -3.3213 -30.4408 -2.8526 Q-30.4408 -2.6495 -30.3705 -2.501 Q-30.3002 -2.3526 -30.1596 -2.2198 Q-30.019 -2.087 -29.5971 -1.837 Q-29.0346 -1.4932 -28.8315 -1.2979 Q-28.6283 -1.1026 -28.5268 -0.8682 Q-28.4252 -0.6338 -28.4252 -0.3213 ZM-25.8307 -2.0401 Q-25.8307 -0.712 -26.3073 0.4208 Q-26.7839 1.5537 -27.7995 2.6005 L-28.4089 2.6005 Q-26.4714 0.4443 -26.4714 -2.0401 Q-26.4714 -3.3682 -26.9089 -4.3838 L-26.3932 -4.3838 Q-25.8307 -3.3213 -25.8307 -2.0401 Z" /><ns0:path style="stroke:none;" d="M-69.3176 9.5721 Q-69.3176 8.2439 -68.8489 7.1189 Q-68.3801 5.9939 -67.3489 4.9158 L-66.7395 4.9158 Q-67.7083 5.9783 -68.1926 7.1502 Q-68.677 8.3221 -68.677 9.5564 Q-68.677 10.8846 -68.2395 11.9002 L-68.7551 11.9002 Q-69.3176 10.8689 -69.3176 9.5721 ZM-65.7576 8.2596 L-66.2576 10.6346 L-66.9138 10.6346 L-65.7107 4.9158 L-64.4607 4.9158 Q-62.7263 4.9158 -62.7263 6.3533 Q-62.7263 7.7127 -64.1638 8.1033 L-63.2263 10.6346 L-63.9451 10.6346 L-64.7732 8.2596 L-65.7576 8.2596 ZM-65.1795 5.5096 Q-65.5701 7.4314 -65.6326 7.6814 L-64.9763 7.6814 Q-64.2263 7.6814 -63.8201 7.3533 Q-63.4138 7.0252 -63.4138 6.4002 Q-63.4138 5.9314 -63.6716 5.7205 Q-63.9295 5.5096 -64.5232 5.5096 L-65.1795 5.5096 ZM-60.5404 7.2596 Q-60.5404 8.5877 -61.0169 9.7205 Q-61.4935 10.8533 -62.5091 11.9002 L-63.1185 11.9002 Q-61.181 9.7439 -61.181 7.2596 Q-61.181 5.9314 -61.6185 4.9158 L-61.1029 4.9158 Q-60.5404 5.9783 -60.5404 7.2596 Z" /><ns0:path style="stroke:none;" d="M-34.0478 -21.0502 Q-34.0478 -22.3783 -33.579 -23.5033 Q-33.1103 -24.6283 -32.079 -25.7064 L-31.4697 -25.7064 Q-32.4384 -24.6439 -32.9228 -23.472 Q-33.4072 -22.3002 -33.4072 -21.0658 Q-33.4072 -19.7377 -32.9697 -18.722 L-33.4853 -18.722 Q-34.0478 -19.7533 -34.0478 -21.0502 ZM-28.4252 -21.6439 Q-28.4252 -20.8158 -28.9721 -20.3627 Q-29.519 -19.9095 -30.519 -19.9095 Q-30.9252 -19.9095 -31.2377 -19.9642 Q-31.5502 -20.0189 -31.8315 -20.1595 L-31.8315 -20.8158 Q-31.2065 -20.4877 -30.5033 -20.4877 Q-29.8783 -20.4877 -29.5033 -20.7845 Q-29.1283 -21.0814 -29.1283 -21.597 Q-29.1283 -21.9095 -29.3315 -22.1361 Q-29.5346 -22.3627 -30.0971 -22.6908 Q-30.6908 -23.0189 -30.9174 -23.347 Q-31.144 -23.6752 -31.144 -24.1283 Q-31.144 -24.8627 -30.6283 -25.3236 Q-30.1127 -25.7845 -29.269 -25.7845 Q-28.894 -25.7845 -28.558 -25.7064 Q-28.2221 -25.6283 -27.8471 -25.4564 L-28.1127 -24.8627 Q-28.3627 -25.0189 -28.683 -25.1048 Q-29.0033 -25.1908 -29.269 -25.1908 Q-29.8002 -25.1908 -30.1205 -24.9173 Q-30.4408 -24.6439 -30.4408 -24.1752 Q-30.4408 -23.972 -30.3705 -23.8236 Q-30.3002 -23.6752 -30.1596 -23.5423 Q-30.019 -23.4095 -29.5971 -23.1595 Q-29.0346 -22.8158 -28.8315 -22.6205 Q-28.6283 -22.4252 -28.5268 -22.1908 Q-28.4252 -21.9564 -28.4252 -21.6439 ZM-25.8307 -23.3627 Q-25.8307 -22.0345 -26.3073 -20.9017 Q-26.7839 -19.7689 -27.7995 -18.722 L-28.4089 -18.722 Q-26.4714 -20.8783 -26.4714 -23.3627 Q-26.4714 -24.6908 -26.9089 -25.7064 L-26.3932 -25.7064 Q-25.8307 -24.6439 -25.8307 -23.3627 Z" /></ns0:g><ns0:g transform="translate(157,67)" style="stroke-linecap:butt; font-size:8.4px; text-rendering:geometricPrecision; image-rendering:optimizeQuality; color-rendering:optimizeQuality; font-family:'Open Sans'; font-style:italic; color-interpolation:linearRGB; stroke-miterlimit:5;"><ns0:path style="fill:none;" d="M-15.8859 21.8012 L-15.495 22.113 L-15.0075 22.0018" /><ns0:path style="fill:gray; stroke:none;" d="M-95.2979 14.5721 Q-95.2979 13.2439 -94.8291 12.1189 Q-94.3604 10.9939 -93.3291 9.9158 L-92.7198 9.9158 Q-93.6885 10.9783 -94.1729 12.1502 Q-94.6573 13.3221 -94.6573 14.5564 Q-94.6573 15.8846 -94.2198 16.9002 L-94.7354 16.9002 Q-95.2979 15.8689 -95.2979 14.5721 ZM-91.7378 13.2596 L-92.2378 15.6346 L-92.8941 15.6346 L-91.691 9.9158 L-90.441 9.9158 Q-88.7066 9.9158 -88.7066 11.3533 Q-88.7066 12.7127 -90.1441 13.1033 L-89.2066 15.6346 L-89.9253 15.6346 L-90.7535 13.2596 L-91.7378 13.2596 ZM-91.1597 10.5096 Q-91.5503 12.4314 -91.6128 12.6814 L-90.9566 12.6814 Q-90.2066 12.6814 -89.8003 12.3533 Q-89.3941 12.0252 -89.3941 11.4002 Q-89.3941 10.9314 -89.6519 10.7205 Q-89.9097 10.5096 -90.5035 10.5096 L-91.1597 10.5096 ZM-86.5206 12.2596 Q-86.5206 13.5877 -86.9972 14.7205 Q-87.4737 15.8533 -88.4894 16.9002 L-89.0987 16.9002 Q-87.1612 14.7439 -87.1612 12.2596 Q-87.1612 10.9314 -87.5987 9.9158 L-87.0831 9.9158 Q-86.5206 10.9783 -86.5206 12.2596 Z" /><ns0:path style="fill:none;" d="M-64.929 47.908 L-64.929 48.408 L-65.362 48.658" /><ns0:path style="fill:none;" d="M-15.8859 -44.9852 L-15.495 -45.297 L-15.0075 -45.1858" /><ns0:path style="fill:none;" d="M-64.496 -41.342 L-64.929 -41.592 L-65.362 -41.342" /><ns0:path style="fill:none;" d="M13.2675 15.5492 L13.755 15.438 L13.9719 14.9875" /><ns0:path style="fill:none;" d="M-90.909 -26.092 L-90.909 -26.592 L-90.476 -26.842" /><ns0:path style="fill:none;" d="M-90.476 63.158 L-90.909 63.408 L-91.342 63.158" /><ns0:path style="fill:none;" d="M14.0367 -39.0351 L13.755 -38.622 L13.9719 -38.1715" /><ns0:path style="fill:gray; stroke:none;" d="M12.6635 -10.3889 Q12.6635 -11.717 13.1322 -12.842 Q13.601 -13.967 14.6322 -15.0451 L15.2416 -15.0451 Q14.2729 -13.9826 13.7885 -12.8108 Q13.3041 -11.6389 13.3041 -10.4045 Q13.3041 -9.0764 13.7416 -8.0608 L13.226 -8.0608 Q12.6635 -9.092 12.6635 -10.3889 ZM18.286 -10.9826 Q18.286 -10.1545 17.7392 -9.7014 Q17.1923 -9.2483 16.1923 -9.2483 Q15.786 -9.2483 15.4735 -9.3029 Q15.161 -9.3576 14.8798 -9.4983 L14.8798 -10.1545 Q15.5048 -9.8264 16.2079 -9.8264 Q16.8329 -9.8264 17.2079 -10.1233 Q17.5829 -10.4201 17.5829 -10.9358 Q17.5829 -11.2483 17.3798 -11.4748 Q17.1767 -11.7014 16.6142 -12.0295 Q16.0204 -12.3576 15.7939 -12.6858 Q15.5673 -13.0139 15.5673 -13.467 Q15.5673 -14.2014 16.0829 -14.6623 Q16.5985 -15.1233 17.4423 -15.1233 Q17.8173 -15.1233 18.1532 -15.0451 Q18.4892 -14.967 18.8642 -14.7951 L18.5985 -14.2014 Q18.3485 -14.3576 18.0282 -14.4436 Q17.7079 -14.5295 17.4423 -14.5295 Q16.911 -14.5295 16.5907 -14.2561 Q16.2704 -13.9826 16.2704 -13.5139 Q16.2704 -13.3108 16.3407 -13.1623 Q16.411 -13.0139 16.5517 -12.8811 Q16.6923 -12.7483 17.1142 -12.4983 Q17.6767 -12.1545 17.8798 -11.9592 Q18.0829 -11.7639 18.1845 -11.5295 Q18.286 -11.2951 18.286 -10.9826 ZM20.8805 -12.7014 Q20.8805 -11.3733 20.404 -10.2404 Q19.9274 -9.1076 18.9118 -8.0608 L18.3024 -8.0608 Q20.2399 -10.217 20.2399 -12.7014 Q20.2399 -14.0295 19.8024 -15.0451 L20.318 -15.0451 Q20.8805 -13.9826 20.8805 -12.7014 Z" /><ns0:path style="fill:none;" d="M-116.892 47.908 L-116.892 48.408 L-116.459 48.658" /><ns0:path style="fill:gray; stroke:none;" d="M-129.6608 44.6112 Q-129.6608 43.2831 -129.1921 42.1581 Q-128.7233 41.0331 -127.6921 39.955 L-127.0827 39.955 Q-128.0515 41.0175 -128.5358 42.1894 Q-129.0202 43.3612 -129.0202 44.5956 Q-129.0202 45.9237 -128.5827 46.9394 L-129.0983 46.9394 Q-129.6608 45.9081 -129.6608 44.6112 ZM-124.0383 44.0175 Q-124.0383 44.8456 -124.5851 45.2987 Q-125.132 45.7519 -126.132 45.7519 Q-126.5383 45.7519 -126.8508 45.6972 Q-127.1633 45.6425 -127.4445 45.5019 L-127.4445 44.8456 Q-126.8195 45.1737 -126.1164 45.1737 Q-125.4914 45.1737 -125.1164 44.8769 Q-124.7414 44.58 -124.7414 44.0644 Q-124.7414 43.7519 -124.9445 43.5253 Q-125.1476 43.2987 -125.7101 42.9706 Q-126.3039 42.6425 -126.5305 42.3144 Q-126.757 41.9862 -126.757 41.5331 Q-126.757 40.7987 -126.2414 40.3378 Q-125.7258 39.8769 -124.882 39.8769 Q-124.507 39.8769 -124.1711 39.955 Q-123.8351 40.0331 -123.4601 40.205 L-123.7258 40.7987 Q-123.9758 40.6425 -124.2961 40.5565 Q-124.6164 40.4706 -124.882 40.4706 Q-125.4133 40.4706 -125.7336 40.744 Q-126.0539 41.0175 -126.0539 41.4862 Q-126.0539 41.6894 -125.9836 41.8378 Q-125.9133 41.9862 -125.7726 42.119 Q-125.632 42.2519 -125.2101 42.5019 Q-124.6476 42.8456 -124.4445 43.0409 Q-124.2414 43.2362 -124.1398 43.4706 Q-124.0383 43.705 -124.0383 44.0175 ZM-121.4438 42.2987 Q-121.4438 43.6269 -121.9203 44.7597 Q-122.3969 45.8925 -123.4125 46.9394 L-124.0219 46.9394 Q-122.0844 44.7831 -122.0844 42.2987 Q-122.0844 40.9706 -122.5219 39.955 L-122.0063 39.955 Q-121.4438 41.0175 -121.4438 42.2987 Z" /><ns0:path style="fill:none;" d="M30.3723 -62.9949 L30.654 -63.408 L31.1526 -63.3707" /><ns0:path style="fill:gray; stroke:none;" d="M62.2714 -7.4392 Q62.2714 -8.7673 62.7401 -9.8923 Q63.2089 -11.0173 64.2401 -12.0954 L64.8495 -12.0954 Q63.8807 -11.0329 63.3964 -9.861 Q62.912 -8.6892 62.912 -7.4548 Q62.912 -6.1267 63.3495 -5.111 L62.8339 -5.111 Q62.2714 -6.1423 62.2714 -7.4392 ZM65.8314 -8.7517 L65.3314 -6.3767 L64.6752 -6.3767 L65.8783 -12.0954 L67.1283 -12.0954 Q68.8627 -12.0954 68.8627 -10.6579 Q68.8627 -9.2985 67.4252 -8.9079 L68.3627 -6.3767 L67.6439 -6.3767 L66.8158 -8.7517 L65.8314 -8.7517 ZM66.4095 -11.5017 Q66.0189 -9.5798 65.9564 -9.3298 L66.6127 -9.3298 Q67.3627 -9.3298 67.7689 -9.6579 Q68.1752 -9.986 68.1752 -10.611 Q68.1752 -11.0798 67.9174 -11.2907 Q67.6595 -11.5017 67.0658 -11.5017 L66.4095 -11.5017 ZM71.0486 -9.7517 Q71.0486 -8.4235 70.5721 -7.2907 Q70.0955 -6.1579 69.0799 -5.111 L68.4705 -5.111 Q70.408 -7.2673 70.408 -9.7517 Q70.408 -11.0798 69.9705 -12.0954 L70.4861 -12.0954 Q71.0486 -11.0329 71.0486 -9.7517 Z" /><ns0:path style="fill:none;" d="M60.0714 -61.2043 L60.57 -61.167 L60.7869 -60.7165" /><ns0:path style="fill:gray; stroke:none;" d="M59.2263 -33.7203 Q59.2263 -35.0484 59.6951 -36.1734 Q60.1638 -37.2984 61.1951 -38.3765 L61.8044 -38.3765 Q60.8357 -37.314 60.3513 -36.1421 Q59.8669 -34.9703 59.8669 -33.7359 Q59.8669 -32.4078 60.3044 -31.3921 L59.7888 -31.3921 Q59.2263 -32.4234 59.2263 -33.7203 ZM62.7864 -35.0328 L62.2864 -32.6578 L61.6301 -32.6578 L62.8333 -38.3765 L64.0833 -38.3765 Q65.8176 -38.3765 65.8176 -36.939 Q65.8176 -35.5796 64.3801 -35.189 L65.3176 -32.6578 L64.5989 -32.6578 L63.7708 -35.0328 L62.7864 -35.0328 ZM63.3645 -37.7828 Q62.9739 -35.8609 62.9114 -35.6109 L63.5676 -35.6109 Q64.3176 -35.6109 64.7239 -35.939 Q65.1301 -36.2671 65.1301 -36.8921 Q65.1301 -37.3609 64.8723 -37.5718 Q64.6145 -37.7828 64.0208 -37.7828 L63.3645 -37.7828 ZM68.0036 -36.0328 Q68.0036 -34.7046 67.527 -33.5718 Q67.0505 -32.439 66.0349 -31.3921 L65.4255 -31.3921 Q67.363 -33.5484 67.363 -36.0328 Q67.363 -37.3609 66.9255 -38.3765 L67.4411 -38.3765 Q68.0036 -37.314 68.0036 -36.0328 Z" /><ns0:path style="fill:none;" d="M69.4851 17.2285 L69.702 17.679 L70.2006 17.7163" /><ns0:path style="fill:none;" d="M99.1194 19.8827 L99.618 19.92 L99.8997 19.5069" /><ns0:path style="fill:gray; stroke:none;" d="M102.4395 -4.4106 Q102.4395 -5.7387 102.9082 -6.8637 Q103.377 -7.9887 104.4082 -9.0669 L105.0176 -9.0669 Q104.0489 -8.0044 103.5645 -6.8325 Q103.0801 -5.6606 103.0801 -4.4262 Q103.0801 -3.0981 103.5176 -2.0825 L103.002 -2.0825 Q102.4395 -3.1137 102.4395 -4.4106 ZM108.062 -5.0044 Q108.062 -4.1762 107.5152 -3.7231 Q106.9683 -3.27 105.9683 -3.27 Q105.562 -3.27 105.2495 -3.3247 Q104.937 -3.3794 104.6558 -3.52 L104.6558 -4.1762 Q105.2808 -3.8481 105.9839 -3.8481 Q106.6089 -3.8481 106.9839 -4.145 Q107.3589 -4.4419 107.3589 -4.9575 Q107.3589 -5.27 107.1558 -5.4965 Q106.9527 -5.7231 106.3902 -6.0512 Q105.7964 -6.3794 105.5698 -6.7075 Q105.3433 -7.0356 105.3433 -7.4887 Q105.3433 -8.2231 105.8589 -8.684 Q106.3745 -9.145 107.2183 -9.145 Q107.5933 -9.145 107.9292 -9.0669 Q108.2652 -8.9887 108.6402 -8.8169 L108.3745 -8.2231 Q108.1245 -8.3794 107.8042 -8.4653 Q107.4839 -8.5512 107.2183 -8.5512 Q106.687 -8.5512 106.3667 -8.2778 Q106.0464 -8.0044 106.0464 -7.5356 Q106.0464 -7.3325 106.1167 -7.184 Q106.187 -7.0356 106.3277 -6.9028 Q106.4683 -6.77 106.8902 -6.52 Q107.4527 -6.1762 107.6558 -5.9809 Q107.8589 -5.7856 107.9605 -5.5512 Q108.062 -5.3169 108.062 -5.0044 ZM110.6565 -6.7231 Q110.6565 -5.395 110.18 -4.2622 Q109.7034 -3.1294 108.6878 -2.0825 L108.0784 -2.0825 Q110.0159 -4.2387 110.0159 -6.7231 Q110.0159 -8.0512 109.5784 -9.0669 L110.094 -9.0669 Q110.6565 -8.0044 110.6565 -6.7231 Z" /><ns0:path style="stroke:none;" d="M-25.0802 35.6263 L-26.0802 35.6263 L-26.0802 31.595 L-30.5958 31.595 L-30.5958 35.6263 L-31.5958 35.6263 L-31.5958 27.0638 L-30.5958 27.0638 L-30.5958 30.7044 L-26.0802 30.7044 L-26.0802 27.0638 L-25.0802 27.0638 L-25.0802 35.6263 Z" /><ns0:path style="stroke:none;" d="M-113.6342 -7.4358 L-114.6342 -7.4358 L-114.6342 -11.467 L-119.1498 -11.467 L-119.1498 -7.4358 L-120.1498 -7.4358 L-120.1498 -15.9983 L-119.1498 -15.9983 L-119.1498 -12.3576 L-114.6342 -12.3576 L-114.6342 -15.9983 L-113.6342 -15.9983 L-113.6342 -7.4358 Z" /><ns0:path style="stroke:none;" d="M37.7938 21.5413 L36.7938 21.5413 L36.7938 17.51 L32.2782 17.51 L32.2782 21.5413 L31.2782 21.5413 L31.2782 12.9788 L32.2782 12.9788 L32.2782 16.6194 L36.7938 16.6194 L36.7938 12.9788 L37.7938 12.9788 L37.7938 21.5413 Z" /><ns0:path style="stroke:none;" d="M93.7438 -54.7668 L92.7438 -54.7668 L92.7438 -58.798 L88.2282 -58.798 L88.2282 -54.7668 L87.2282 -54.7668 L87.2282 -63.3293 L88.2282 -63.3293 L88.2282 -59.6886 L92.7438 -59.6886 L92.7438 -63.3293 L93.7438 -63.3293 L93.7438 -54.7668 Z" /></ns0:g></ns0:g></ns0:svg></ns0:svg></ns0:svg></ns0:svg></g></svg>