<svg width="175" viewBox="0 0 175 107" style="fill-opacity:1; color-rendering:auto; color-interpolation:auto; text-rendering:auto; stroke:black; stroke-linecap:square; stroke-miterlimit:10; shape-rendering:auto; stroke-opacity:1; fill:black; stroke-dasharray:none; font-weight:normal; stroke-width:1; font-family:'Open Sans'; font-style:normal; stroke-linejoin:miter; font-size:12; stroke-dashoffset:0; image-rendering:auto;" height="107" class="cas-substance-image" xmlns:xlink="http://www.w3.org/1999/xlink" xmlns="http://www.w3.org/2000/svg"><svg class="cas-substance-single-component"><rect y="0" x="0" width="175" stroke="none" ry="7" rx="7" height="107" fill="white" class="cas-substance-group"/><svg y="0" x="0" width="175" viewBox="0 0 175 107" style="fill:black;" height="107" class="cas-substance-single-component-image"><svg><g><g transform="translate(82,54)" style="text-rendering:geometricPrecision; color-rendering:optimizeQuality; color-interpolation:linearRGB; stroke-linecap:butt; image-rendering:optimizeQuality;"><path style="stroke:none;" d="M56.3596 8.4535 L55.6904 7.7105 L71.637 -10.0146 L75.6521 -5.5561 Z"/><line y2="21.6867" y1="1.842" x2="15.2257" x1="26.682" style="fill:none;"/><line y2="-18.2497" y1="1.842" x2="15.0817" x1="26.682" style="fill:none;"/><line y2="-16.4997" y1="1.8421" x2="12.0506" x1="22.6405" style="fill:none;"/><line y2="8.082" y1="1.842" x2="56.025" x1="26.682" style="fill:none;"/><line y2="27.825" y1="27.825" x2="-18.318" x1="6.3304" style="fill:none;"/><line y2="50.118" y1="33.0335" x2="31.755" x1="16.3718" style="fill:none;"/><line y2="-24.138" y1="-24.138" x2="-18.318" x1="6.3304" style="fill:none;"/><line y2="37.917" y1="8.082" x2="59.16" x1="56.025" style="fill:none;"/><line y2="1.842" y1="27.825" x2="-33.318" x1="-18.318" style="fill:none;"/><line y2="37.917" y1="50.118" x2="59.16" x1="31.755" style="fill:none;"/><line y2="1.842" y1="-24.138" x2="-33.318" x1="-18.318" style="fill:none;"/><line y2="-50.118" y1="-24.138" x2="-33.318" x1="-18.318" style="fill:none;"/><line y2="-46.618" y1="-24.1379" x2="-35.3387" x1="-22.3595" style="fill:none;"/><line y2="1.842" y1="1.842" x2="-63.318" x1="-33.318" style="fill:none;"/><line y2="-1.658" y1="-1.658" x2="-61.2973" x1="-35.3387" style="fill:none;"/><line y2="-50.118" y1="-50.118" x2="-63.318" x1="-33.318" style="fill:none;"/><line y2="-24.138" y1="1.842" x2="-78.318" x1="-63.318" style="fill:none;"/><line y2="-24.138" y1="-50.118" x2="-78.318" x1="-63.318" style="fill:none;"/><line y2="-24.1379" y1="-46.618" x2="-74.2766" x1="-61.2973" style="fill:none;"/></g><g transform="translate(82,54)" style="fill:rgb(230,0,0); text-rendering:geometricPrecision; color-rendering:optimizeQuality; image-rendering:optimizeQuality; font-family:'Open Sans'; stroke:rgb(230,0,0); color-interpolation:linearRGB;"><path style="stroke:none;" d="M82.2555 -12.0643 Q82.2555 -10.0018 81.2164 -8.8221 Q80.1774 -7.6424 78.3336 -7.6424 Q76.443 -7.6424 75.4118 -8.8065 Q74.3805 -9.9706 74.3805 -12.0799 Q74.3805 -14.1737 75.4118 -15.3221 Q76.443 -16.4706 78.3336 -16.4706 Q80.193 -16.4706 81.2243 -15.2987 Q82.2555 -14.1268 82.2555 -12.0643 ZM75.4274 -12.0643 Q75.4274 -10.3299 76.1696 -9.4237 Q76.9118 -8.5174 78.3336 -8.5174 Q79.7555 -8.5174 80.4821 -9.4159 Q81.2086 -10.3143 81.2086 -12.0643 Q81.2086 -13.7987 80.4821 -14.6893 Q79.7555 -15.5799 78.3336 -15.5799 Q76.9118 -15.5799 76.1696 -14.6815 Q75.4274 -13.7831 75.4274 -12.0643 Z"/><path style="stroke:none;" d="M89.7711 -7.7674 L88.7711 -7.7674 L88.7711 -11.7987 L84.2555 -11.7987 L84.2555 -7.7674 L83.2555 -7.7674 L83.2555 -16.3299 L84.2555 -16.3299 L84.2555 -12.6893 L88.7711 -12.6893 L88.7711 -16.3299 L89.7711 -16.3299 L89.7711 -7.7674 Z"/></g><g transform="translate(82,54)" style="stroke-linecap:butt; text-rendering:geometricPrecision; color-rendering:optimizeQuality; image-rendering:optimizeQuality; font-family:'Open Sans'; color-interpolation:linearRGB; stroke-miterlimit:5;"><path style="fill:none;" d="M26.432 1.409 L26.682 1.842 L26.432 2.275"/><path style="fill:rgb(0,5,255); stroke:none;" d="M15.0336 31.9813 L13.8929 31.9813 L9.2054 24.7938 L9.1586 24.7938 Q9.2523 26.0594 9.2523 27.1063 L9.2523 31.9813 L8.3304 31.9813 L8.3304 23.4188 L9.4554 23.4188 L14.1273 30.575 L14.1742 30.575 Q14.1742 30.4188 14.1273 29.5594 Q14.0804 28.7 14.0961 28.325 L14.0961 23.4188 L15.0336 23.4188 L15.0336 31.9813 Z"/><path style="fill:rgb(0,5,255); stroke:none;" d="M15.0336 -19.9818 L13.8929 -19.9818 L9.2054 -27.1693 L9.1586 -27.1693 Q9.2523 -25.9036 9.2523 -24.8568 L9.2523 -19.9818 L8.3304 -19.9818 L8.3304 -28.5443 L9.4554 -28.5443 L14.1273 -21.388 L14.1742 -21.388 Q14.1742 -21.5443 14.1273 -22.4036 Q14.0804 -23.263 14.0961 -23.638 L14.0961 -28.5443 L15.0336 -28.5443 L15.0336 -19.9818 Z"/></g><g transform="translate(82,54)" style="stroke-linecap:butt; font-size:8.4px; fill:gray; text-rendering:geometricPrecision; image-rendering:optimizeQuality; color-rendering:optimizeQuality; font-family:'Open Sans'; font-style:italic; stroke:gray; color-interpolation:linearRGB; stroke-miterlimit:5;"><path style="stroke:none;" d="M49.3284 -0.3742 Q49.3284 -1.7023 49.7971 -2.8273 Q50.2659 -3.9523 51.2971 -5.0304 L51.9065 -5.0304 Q50.9377 -3.9679 50.4534 -2.796 Q49.969 -1.6242 49.969 -0.3898 Q49.969 0.9383 50.4065 1.954 L49.8909 1.954 Q49.3284 0.9227 49.3284 -0.3742 ZM54.9509 -0.9679 Q54.9509 -0.1398 54.404 0.3133 Q53.8572 0.7665 52.8572 0.7665 Q52.4509 0.7665 52.1384 0.7118 Q51.8259 0.6571 51.5447 0.5165 L51.5447 -0.1398 Q52.1697 0.1883 52.8728 0.1883 Q53.4978 0.1883 53.8728 -0.1085 Q54.2478 -0.4054 54.2478 -0.921 Q54.2478 -1.2335 54.0447 -1.4601 Q53.8415 -1.6867 53.279 -2.0148 Q52.6853 -2.3429 52.4587 -2.671 Q52.2322 -2.9992 52.2322 -3.4523 Q52.2322 -4.1867 52.7478 -4.6476 Q53.2634 -5.1085 54.1072 -5.1085 Q54.4822 -5.1085 54.8181 -5.0304 Q55.154 -4.9523 55.529 -4.7804 L55.2634 -4.1867 Q55.0134 -4.3429 54.6931 -4.4288 Q54.3728 -4.5148 54.1072 -4.5148 Q53.5759 -4.5148 53.2556 -4.2413 Q52.9353 -3.9679 52.9353 -3.4992 Q52.9353 -3.296 53.0056 -3.1476 Q53.0759 -2.9992 53.2165 -2.8663 Q53.3572 -2.7335 53.779 -2.4835 Q54.3415 -2.1398 54.5447 -1.9445 Q54.7478 -1.7492 54.8494 -1.5148 Q54.9509 -1.2804 54.9509 -0.9679 ZM57.5454 -2.6867 Q57.5454 -1.3585 57.0688 -0.2257 Q56.5923 0.9071 55.5766 1.954 L54.9673 1.954 Q56.9048 -0.2023 56.9048 -2.6867 Q56.9048 -4.0148 56.4673 -5.0304 L56.9829 -5.0304 Q57.5454 -3.9679 57.5454 -2.6867 Z"/><path style="fill:none; stroke:black;" d="M-17.818 27.825 L-18.318 27.825 L-18.568 27.392"/><path style="fill:none; stroke:black;" d="M31.4204 49.7464 L31.755 50.118 L32.2118 49.9146"/><path style="fill:none; stroke:black;" d="M-18.568 -24.571 L-18.318 -24.138 L-17.818 -24.138"/><path style="fill:none; stroke:black;" d="M59.1077 37.4197 L59.16 37.917 L58.7032 38.1204"/><path style="fill:none; stroke:black;" d="M-33.818 1.842 L-33.318 1.842 L-33.068 2.275"/><path style="fill:none; stroke:black;" d="M-33.068 -49.685 L-33.318 -50.118 L-33.818 -50.118"/><path style="fill:none; stroke:black;" d="M-62.818 1.842 L-63.318 1.842 L-63.568 1.409"/><path style="fill:none; stroke:black;" d="M-62.818 -50.118 L-63.318 -50.118 L-63.568 -49.685"/><path style="fill:none; stroke:black;" d="M-78.068 -23.705 L-78.318 -24.138 L-78.068 -24.571"/></g></g></svg></svg></svg></svg>