<svg width="186" viewBox="0 0 186 75" style="fill-opacity:1; color-rendering:auto; color-interpolation:auto; text-rendering:auto; stroke:black; stroke-linecap:square; stroke-miterlimit:10; shape-rendering:auto; stroke-opacity:1; fill:black; stroke-dasharray:none; font-weight:normal; stroke-width:1; font-family:'Open Sans'; font-style:normal; stroke-linejoin:miter; font-size:12; stroke-dashoffset:0; image-rendering:auto;" height="75" class="cas-substance-image" xmlns:xlink="http://www.w3.org/1999/xlink" xmlns="http://www.w3.org/2000/svg"><svg class="cas-substance-single-component"><rect y="0" x="0" width="186" stroke="none" ry="7" rx="7" height="75" fill="white" class="cas-substance-group"/><svg y="0" x="0" width="186" viewBox="0 0 186 75" style="fill:black;" height="75" class="cas-substance-single-component-image"><svg><g><g transform="translate(93,37)" style="text-rendering:geometricPrecision; color-rendering:optimizeQuality; color-interpolation:linearRGB; stroke-linecap:butt; image-rendering:optimizeQuality;"><line y2="0" y1="0" x2="-90" x1="-65.9743" style="fill:none;"/><line y2="30" y1="6.398" x2="-60" x1="-60" style="fill:none;"/><line y2="-23.6484" y1="-6.4601" x2="-60" x1="-60" style="fill:none;"/><line y2="0" y1="0" x2="-30" x1="-54.0151" style="fill:none;"/><line y2="0" y1="0" x2="90" x1="65.9849" style="fill:none;"/><line y2="-30" y1="-6.4601" x2="60" x1="60" style="fill:none;"/><line y2="23.5234" y1="6.398" x2="60" x1="60" style="fill:none;"/><line y2="0" y1="0" x2="30" x1="54.0257" style="fill:none;"/><line y2="25.98" y1="0" x2="-15" x1="-30" style="fill:none;"/><line y2="22.48" y1="-0.0001" x2="-12.9793" x1="-25.9585" style="fill:none;"/><line y2="-25.98" y1="0" x2="-15" x1="-30" style="fill:none;"/><line y2="25.98" y1="25.98" x2="15" x1="-15" style="fill:none;"/><line y2="-25.98" y1="-25.98" x2="15" x1="-15" style="fill:none;"/><line y2="-22.48" y1="-22.48" x2="12.9793" x1="-12.9793" style="fill:none;"/><line y2="0" y1="25.98" x2="30" x1="15" style="fill:none;"/><line y2="-0.0001" y1="22.48" x2="25.9585" x1="12.9793" style="fill:none;"/><line y2="0" y1="-25.98" x2="30" x1="15" style="fill:none;"/><path style="stroke-linecap:square; stroke:none;" d="M-58.6367 2 Q-58.6367 3.125 -59.457 3.7656 Q-60.2773 4.4062 -61.6836 4.4062 Q-63.2148 4.4062 -64.0273 4 L-64.0273 3.0469 Q-63.4961 3.2656 -62.8789 3.3984 Q-62.2617 3.5312 -61.6523 3.5312 Q-60.6523 3.5312 -60.1523 3.1484 Q-59.6523 2.7656 -59.6523 2.0938 Q-59.6523 1.6562 -59.832 1.3672 Q-60.0117 1.0781 -60.4258 0.8359 Q-60.8398 0.5938 -61.6992 0.2969 Q-62.8867 -0.125 -63.4023 -0.7109 Q-63.918 -1.2969 -63.918 -2.25 Q-63.918 -3.2344 -63.1758 -3.8203 Q-62.4336 -4.4062 -61.1992 -4.4062 Q-59.9336 -4.4062 -58.8555 -3.9375 L-59.168 -3.0781 Q-60.2305 -3.5156 -61.2305 -3.5156 Q-62.0273 -3.5156 -62.4727 -3.1797 Q-62.918 -2.8438 -62.918 -2.2344 Q-62.918 -1.7969 -62.7539 -1.5078 Q-62.5898 -1.2188 -62.1992 -0.9844 Q-61.8086 -0.75 -60.9961 -0.4531 Q-59.6523 0.0156 -59.1445 0.5703 Q-58.6367 1.125 -58.6367 2 ZM-56.0664 4.2812 L-57.0352 4.2812 L-57.0352 -2.1406 L-56.0664 -2.1406 L-56.0664 4.2812 ZM-57.1133 -3.875 Q-57.1133 -4.2188 -56.9492 -4.375 Q-56.7852 -4.5312 -56.5352 -4.5312 Q-56.3008 -4.5312 -56.1367 -4.3672 Q-55.9727 -4.2031 -55.9727 -3.875 Q-55.9727 -3.5469 -56.1367 -3.3906 Q-56.3008 -3.2344 -56.5352 -3.2344 Q-56.7852 -3.2344 -56.9492 -3.3906 Q-57.1133 -3.5469 -57.1133 -3.875 Z"/></g><g transform="translate(93,37)" style="fill:rgb(230,0,0); text-rendering:geometricPrecision; color-rendering:optimizeQuality; image-rendering:optimizeQuality; font-family:'Open Sans'; stroke:rgb(230,0,0); color-interpolation:linearRGB;"><path style="stroke:none;" d="M-56.0625 -30.0703 Q-56.0625 -28.0078 -57.1016 -26.8281 Q-58.1406 -25.6484 -59.9844 -25.6484 Q-61.875 -25.6484 -62.9062 -26.8125 Q-63.9375 -27.9766 -63.9375 -30.0859 Q-63.9375 -32.1797 -62.9062 -33.3281 Q-61.875 -34.4766 -59.9844 -34.4766 Q-58.125 -34.4766 -57.0938 -33.3047 Q-56.0625 -32.1328 -56.0625 -30.0703 ZM-62.8906 -30.0703 Q-62.8906 -28.3359 -62.1484 -27.4297 Q-61.4062 -26.5234 -59.9844 -26.5234 Q-58.5625 -26.5234 -57.8359 -27.4219 Q-57.1094 -28.3203 -57.1094 -30.0703 Q-57.1094 -31.8047 -57.8359 -32.6953 Q-58.5625 -33.5859 -59.9844 -33.5859 Q-61.4062 -33.5859 -62.1484 -32.6875 Q-62.8906 -31.7891 -62.8906 -30.0703 Z"/><path style="stroke:none;" d="M-48.5469 -25.7734 L-49.5469 -25.7734 L-49.5469 -29.8047 L-54.0625 -29.8047 L-54.0625 -25.7734 L-55.0625 -25.7734 L-55.0625 -34.3359 L-54.0625 -34.3359 L-54.0625 -30.6953 L-49.5469 -30.6953 L-49.5469 -34.3359 L-48.5469 -34.3359 L-48.5469 -25.7734 Z"/><path style="fill:black; stroke:none;" d="M61.3633 2 Q61.3633 3.125 60.543 3.7656 Q59.7227 4.4062 58.3164 4.4062 Q56.7852 4.4062 55.9727 4 L55.9727 3.0469 Q56.5039 3.2656 57.1211 3.3984 Q57.7383 3.5312 58.3477 3.5312 Q59.3477 3.5312 59.8477 3.1484 Q60.3477 2.7656 60.3477 2.0938 Q60.3477 1.6562 60.168 1.3672 Q59.9883 1.0781 59.5742 0.8359 Q59.1602 0.5938 58.3008 0.2969 Q57.1133 -0.125 56.5977 -0.7109 Q56.082 -1.2969 56.082 -2.25 Q56.082 -3.2344 56.8242 -3.8203 Q57.5664 -4.4062 58.8008 -4.4062 Q60.0664 -4.4062 61.1445 -3.9375 L60.832 -3.0781 Q59.7695 -3.5156 58.7695 -3.5156 Q57.9727 -3.5156 57.5273 -3.1797 Q57.082 -2.8438 57.082 -2.2344 Q57.082 -1.7969 57.2461 -1.5078 Q57.4102 -1.2188 57.8008 -0.9844 Q58.1914 -0.75 59.0039 -0.4531 Q60.3477 0.0156 60.8555 0.5703 Q61.3633 1.125 61.3633 2 ZM63.9336 4.2812 L62.9648 4.2812 L62.9648 -2.1406 L63.9336 -2.1406 L63.9336 4.2812 ZM62.8867 -3.875 Q62.8867 -4.2188 63.0508 -4.375 Q63.2148 -4.5312 63.4648 -4.5312 Q63.6992 -4.5312 63.8633 -4.3672 Q64.0273 -4.2031 64.0273 -3.875 Q64.0273 -3.5469 63.8633 -3.3906 Q63.6992 -3.2344 63.4648 -3.2344 Q63.2148 -3.2344 63.0508 -3.3906 Q62.8867 -3.5469 62.8867 -3.875 Z"/><path style="stroke:none;" d="M63.9375 29.9297 Q63.9375 31.9922 62.8984 33.1719 Q61.8594 34.3516 60.0156 34.3516 Q58.125 34.3516 57.0938 33.1875 Q56.0625 32.0234 56.0625 29.9141 Q56.0625 27.8203 57.0938 26.6719 Q58.125 25.5234 60.0156 25.5234 Q61.875 25.5234 62.9062 26.6953 Q63.9375 27.8672 63.9375 29.9297 ZM57.1094 29.9297 Q57.1094 31.6641 57.8516 32.5703 Q58.5938 33.4766 60.0156 33.4766 Q61.4375 33.4766 62.1641 32.5781 Q62.8906 31.6797 62.8906 29.9297 Q62.8906 28.1953 62.1641 27.3047 Q61.4375 26.4141 60.0156 26.4141 Q58.5938 26.4141 57.8516 27.3125 Q57.1094 28.2109 57.1094 29.9297 Z"/><path style="stroke:none;" d="M71.4531 34.2266 L70.4531 34.2266 L70.4531 30.1953 L65.9375 30.1953 L65.9375 34.2266 L64.9375 34.2266 L64.9375 25.6641 L65.9375 25.6641 L65.9375 29.3047 L70.4531 29.3047 L70.4531 25.6641 L71.4531 25.6641 L71.4531 34.2266 Z"/></g><g transform="translate(93,37)" style="stroke-linecap:butt; text-rendering:geometricPrecision; color-rendering:optimizeQuality; image-rendering:optimizeQuality; font-family:'Open Sans'; color-interpolation:linearRGB; stroke-miterlimit:5;"><path style="fill:none;" d="M-29.75 0.433 L-30 0 L-30.5 -0"/><path style="fill:none;" d="M-15.25 25.547 L-15 25.98 L-14.5 25.98"/><path style="fill:none;" d="M-15.25 -25.547 L-15 -25.98 L-14.5 -25.98"/><path style="fill:none;" d="M14.5 25.98 L15 25.98 L15.25 25.547"/><path style="fill:none;" d="M14.5 -25.98 L15 -25.98 L15.25 -25.547"/><path style="fill:none;" d="M29.75 0.433 L30 0 L30.5 0"/></g></g></svg></svg></svg></svg>