<svg xmlns:ns0="http://www.w3.org/2000/svg" xmlns="http://www.w3.org/2000/svg"><g transform="translate(0, 0)"><ns0:svg width="200" viewBox="0 0 200 71" style="fill-opacity:1; color-rendering:auto; color-interpolation:auto; text-rendering:auto; stroke:black; stroke-linecap:square; stroke-miterlimit:10; shape-rendering:auto; stroke-opacity:1; fill:black; stroke-dasharray:none; font-weight:normal; stroke-width:1; font-family:'Open Sans'; font-style:normal; stroke-linejoin:miter; font-size:12; stroke-dashoffset:0; image-rendering:auto;" height="71" class="cas-substance-image"><ns0:svg class="cas-substance-single-component"><ns0:rect y="0" x="0" width="200" stroke="none" ry="7" rx="7" height="71" fill="white" class="cas-substance-group" /><ns0:svg y="0" x="0" width="200" viewBox="0 0 200 71" style="fill:black;" height="71" class="cas-substance-single-component-image"><ns0:svg><ns0:g><ns0:g transform="translate(94,38)" style="text-rendering:geometricPrecision; color-rendering:optimizeQuality; color-interpolation:linearRGB; stroke-linecap:butt; image-rendering:optimizeQuality;"><ns0:line y2="-30" y1="-15" x2="-38.97" x1="-12.99" style="fill:none;" /><ns0:line y2="-30" y1="-15" x2="12.99" x1="-12.99" style="fill:none;" /><ns0:line y2="-15" y1="-30" x2="-64.953" x1="-38.97" style="fill:none;" /><ns0:line y2="-12.9791" y1="-25.9585" x2="-61.4531" x1="-38.9702" style="fill:none;" /></ns0:g><ns0:g transform="translate(94,38)" style="stroke-linecap:butt; font-size:8.4px; fill:gray; text-rendering:geometricPrecision; image-rendering:optimizeQuality; color-rendering:optimizeQuality; font-family:'Open Sans'; font-style:italic; stroke:gray; color-interpolation:linearRGB;"><ns0:path style="stroke:none;" d="M-61.1903 -29.9964 Q-61.1903 -31.3245 -60.7216 -32.4495 Q-60.2528 -33.5745 -59.2216 -34.6526 L-58.6122 -34.6526 Q-59.581 -33.5901 -60.0653 -32.4183 Q-60.5497 -31.2464 -60.5497 -30.012 Q-60.5497 -28.6839 -60.1122 -27.6683 L-60.6278 -27.6683 Q-61.1903 -28.6995 -61.1903 -29.9964 ZM-55.6772 -28.9339 L-59.1928 -28.9339 L-59.0834 -29.4651 L-55.474 -34.0433 L-58.0365 -34.0433 L-57.9115 -34.6526 L-54.5522 -34.6526 L-54.6615 -34.1058 L-58.2709 -29.5433 L-55.5365 -29.5433 L-55.6772 -28.9339 ZM-52.732 -32.3089 Q-52.732 -30.9808 -53.2086 -29.8479 Q-53.6851 -28.7151 -54.7008 -27.6683 L-55.3101 -27.6683 Q-53.3726 -29.8245 -53.3726 -32.3089 Q-53.3726 -33.637 -53.8101 -34.6526 L-53.2945 -34.6526 Q-52.732 -33.5901 -52.732 -32.3089 Z" /><ns0:line y2="-15" y1="-30" x2="38.97" x1="12.99" style="fill:none; stroke:black;" /><ns0:line y2="15" y1="-15" x2="-64.953" x1="-64.953" style="fill:none; stroke:black;" /><ns0:line y2="-30" y1="-15" x2="64.953" x1="38.97" style="fill:none; stroke:black;" /><ns0:line y2="30" y1="15" x2="-90.933" x1="-64.953" style="fill:none; stroke:black;" /><ns0:line y2="-18.2414" y1="-30" x2="85.3189" x1="64.953" style="fill:none; stroke:black;" /><ns0:path style="fill:none; stroke-miterlimit:5; stroke:black;" d="M-13.423 -15.25 L-12.99 -15 L-12.557 -15.25" /><ns0:path style="fill:none; stroke-miterlimit:5; stroke:black;" d="M-38.537 -29.75 L-38.97 -30 L-39.403 -29.75" /><ns0:path style="fill:none; stroke-miterlimit:5; stroke:black;" d="M12.557 -29.75 L12.99 -30 L13.423 -29.75" /><ns0:path style="fill:none; stroke-miterlimit:5; stroke:black;" d="M-64.52 -15.25 L-64.953 -15 L-64.953 -14.5" /><ns0:path style="fill:none; stroke-miterlimit:5; stroke:black;" d="M38.537 -15.25 L38.97 -15 L39.403 -15.25" /><ns0:path style="fill:none; stroke-miterlimit:5; stroke:black;" d="M-64.953 14.5 L-64.953 15 L-65.386 15.25" /><ns0:path style="fill:none; stroke-miterlimit:5; stroke:black;" d="M64.52 -29.75 L64.953 -30 L65.386 -29.75" /></ns0:g><ns0:g transform="translate(94,38)" style="stroke-linecap:butt; fill:rgb(230,0,0); text-rendering:geometricPrecision; color-rendering:optimizeQuality; image-rendering:optimizeQuality; font-family:'Open Sans'; stroke:rgb(230,0,0); color-interpolation:linearRGB; stroke-miterlimit:5;"><ns0:path style="stroke:none;" d="M94.8705 -15.0703 Q94.8705 -13.0078 93.8314 -11.8281 Q92.7924 -10.6484 90.9486 -10.6484 Q89.058 -10.6484 88.0267 -11.8125 Q86.9955 -12.9766 86.9955 -15.0859 Q86.9955 -17.1797 88.0267 -18.3281 Q89.058 -19.4766 90.9486 -19.4766 Q92.808 -19.4766 93.8392 -18.3047 Q94.8705 -17.1328 94.8705 -15.0703 ZM88.0424 -15.0703 Q88.0424 -13.3359 88.7846 -12.4297 Q89.5267 -11.5234 90.9486 -11.5234 Q92.3705 -11.5234 93.0971 -12.4219 Q93.8236 -13.3203 93.8236 -15.0703 Q93.8236 -16.8047 93.0971 -17.6953 Q92.3705 -18.5859 90.9486 -18.5859 Q89.5267 -18.5859 88.7846 -17.6875 Q88.0424 -16.7891 88.0424 -15.0703 Z" /><ns0:path style="stroke:none;" d="M102.3861 -10.7734 L101.3861 -10.7734 L101.3861 -14.8047 L96.8705 -14.8047 L96.8705 -10.7734 L95.8705 -10.7734 L95.8705 -19.3359 L96.8705 -19.3359 L96.8705 -15.6953 L101.3861 -15.6953 L101.3861 -19.3359 L102.3861 -19.3359 L102.3861 -10.7734 Z" /></ns0:g></ns0:g></ns0:svg></ns0:svg></ns0:svg></ns0:svg></g></svg>