<svg xmlns:ns0="http://www.w3.org/2000/svg" xmlns="http://www.w3.org/2000/svg"><g transform="translate(0, 0)"><ns0:svg width="214" viewBox="0 0 214 166" style="fill-opacity:1; color-rendering:auto; color-interpolation:auto; text-rendering:auto; stroke:black; stroke-linecap:square; stroke-miterlimit:10; shape-rendering:auto; stroke-opacity:1; fill:black; stroke-dasharray:none; font-weight:normal; stroke-width:1; font-family:'Open Sans'; font-style:normal; stroke-linejoin:miter; font-size:12; stroke-dashoffset:0; image-rendering:auto;" height="166" class="cas-substance-image"><ns0:svg class="cas-substance-single-component"><ns0:rect y="0" x="0" width="214" stroke="none" ry="7" rx="7" height="166" fill="white" class="cas-substance-group" /><ns0:svg y="0" x="0" width="214" viewBox="0 0 214 166" style="fill:black;" height="166" class="cas-substance-single-component-image"><ns0:svg><ns0:g><ns0:g transform="translate(107,81)" style="text-rendering:geometricPrecision; color-rendering:optimizeQuality; color-interpolation:linearRGB; stroke-linecap:butt; image-rendering:optimizeQuality;"><ns0:line y2="-25.668" y1="-25.668" x2="-56.8825" x1="-32.82" style="fill:none;" /><ns0:line y2="-45.125" y1="-24.793" x2="-19.5654" x1="-31.3045" style="fill:none;" /><ns0:line y2="-46.8751" y1="-25.668" x2="-22.5965" x1="-34.8407" style="fill:none;" /><ns0:path style="stroke:none;" d="M-17.387 0.062 L-18.253 0.562 L-36.2841 -26.168 L-29.3559 -26.168 Z" /><ns0:line y2="-51.648" y1="-31.3956" x2="-77.82" x1="-66.1269" style="fill:none;" /><ns0:line y2="-36.648" y1="-51.648" x2="-103.803" x1="-77.82" style="fill:none;" /><ns0:line y2="-77.628" y1="-51.648" x2="-92.82" x1="-77.82" style="fill:none;" /><ns0:line y2="-66.648" y1="-51.648" x2="-51.84" x1="-77.82" style="fill:none;" /><ns0:line y2="-13.8616" y1="-18.846" x2="55.5402" x1="32.088" style="fill:none;" /><ns0:line y2="-41.6631" y1="-18.4259" x2="26.5143" x1="34.0646" style="fill:none;" /><ns0:line y2="-40.5815" y1="-17.3442" x2="23.1856" x1="30.7359" style="fill:none;" /><ns0:line y2="-1.7591" y1="-18.846" x2="16.7047" x1="32.088" style="fill:none;" /><ns0:line y2="-34.902" y1="-17.361" x2="81.507" x1="65.7128" style="fill:none;" /><ns0:line y2="-54.975" y1="-34.902" x2="59.214" x1="81.507" style="fill:none;" /><ns0:line y2="-57.198" y1="-34.902" x2="101.58" x1="81.507" style="fill:none;" /><ns0:line y2="-14.829" y1="-34.902" x2="103.803" x1="81.507" style="fill:none;" /><ns0:path style="stroke:none;" d="M-8.3826 48.4766 L-8.5929 49.4598 L-8.5929 49.4598 L-7.2285 49.6047 L-7.2285 49.6047 L-7.2298 48.5991 L-7.2298 48.5991 L-8.3826 48.4766 ZM-9.0134 51.4261 L-9.2237 52.4093 L-9.2237 52.4093 L-7.2245 52.6217 L-7.2245 52.6217 L-7.2258 51.616 L-7.2258 51.616 L-9.0134 51.4261 ZM-9.6442 54.3756 L-9.8545 55.3588 L-9.8545 55.3588 L-7.2206 55.6386 L-7.2206 55.6386 L-7.2219 54.6329 L-7.2219 54.6329 L-9.6442 54.3756 ZM-10.275 57.3251 L-10.4852 58.3083 L-10.4852 58.3083 L-7.2167 58.6555 L-7.2167 58.6555 L-7.218 57.6499 L-7.218 57.6499 L-10.275 57.3251 ZM-10.9058 60.2746 L-11.116 61.2578 L-11.116 61.2578 L-7.2128 61.6724 L-7.2128 61.6724 L-7.2141 60.6668 L-7.2141 60.6668 L-10.9058 60.2746 ZM-11.5365 63.2241 L-11.7468 64.2073 L-11.7468 64.2073 L-7.2089 64.6894 L-7.2089 64.6894 L-7.2102 63.6837 L-7.2102 63.6837 L-11.5365 63.2241 ZM-12.1673 66.1736 L-12.3776 67.1568 L-12.3776 67.1568 L-7.2049 67.7063 L-7.2049 67.7063 L-7.2062 66.7007 L-7.2062 66.7007 L-12.1673 66.1736 ZM-12.7981 69.1231 L-13.0084 70.1063 L-13.0084 70.1063 L-7.201 70.7232 L-7.201 70.7232 L-7.2023 69.7176 L-7.2023 69.7176 L-12.7981 69.1231 Z" /><ns0:line y2="2.8883" y1="0.312" x2="6.6744" x1="-17.82" style="fill:none;" /><ns0:line y2="27.72" y1="0.312" x2="-30.024" x1="-17.82" style="fill:none;" /><ns0:line y2="32.793" y1="9.5625" x2="18.252" x1="13.3143" style="fill:none;" /><ns0:line y2="47.793" y1="27.72" x2="-7.728" x1="-30.024" style="fill:none;" /><ns0:line y2="47.793" y1="32.793" x2="-7.728" x1="18.252" style="fill:none;" /></ns0:g><ns0:g transform="translate(107,81)" style="fill:rgb(230,0,0); text-rendering:geometricPrecision; color-rendering:optimizeQuality; image-rendering:optimizeQuality; font-family:'Open Sans'; stroke:rgb(230,0,0); color-interpolation:linearRGB;"><ns0:path style="stroke:none;" d="M-58.8825 -25.7383 Q-58.8825 -23.6758 -59.9216 -22.4961 Q-60.9606 -21.3164 -62.8044 -21.3164 Q-64.695 -21.3164 -65.7263 -22.4805 Q-66.7575 -23.6446 -66.7575 -25.7539 Q-66.7575 -27.8477 -65.7263 -28.9961 Q-64.695 -30.1446 -62.8044 -30.1446 Q-60.945 -30.1446 -59.9138 -28.9727 Q-58.8825 -27.8008 -58.8825 -25.7383 ZM-65.7106 -25.7383 Q-65.7106 -24.0039 -64.9684 -23.0977 Q-64.2263 -22.1914 -62.8044 -22.1914 Q-61.3825 -22.1914 -60.6559 -23.0899 Q-59.9294 -23.9883 -59.9294 -25.7383 Q-59.9294 -27.4727 -60.6559 -28.3633 Q-61.3825 -29.2539 -62.8044 -29.2539 Q-64.2263 -29.2539 -64.9684 -28.3555 Q-65.7106 -27.4571 -65.7106 -25.7383 Z" /><ns0:path style="stroke:none;" d="M-13.8825 -51.7183 Q-13.8825 -49.6558 -14.9216 -48.4761 Q-15.9606 -47.2964 -17.8044 -47.2964 Q-19.695 -47.2964 -20.7262 -48.4605 Q-21.7575 -49.6246 -21.7575 -51.7339 Q-21.7575 -53.8277 -20.7262 -54.9761 Q-19.695 -56.1246 -17.8044 -56.1246 Q-15.945 -56.1246 -14.9137 -54.9527 Q-13.8825 -53.7808 -13.8825 -51.7183 ZM-20.7106 -51.7183 Q-20.7106 -49.9839 -19.9684 -49.0777 Q-19.2262 -48.1714 -17.8044 -48.1714 Q-16.3825 -48.1714 -15.6559 -49.0699 Q-14.9294 -49.9683 -14.9294 -51.7183 Q-14.9294 -53.4527 -15.6559 -54.3433 Q-16.3825 -55.2339 -17.8044 -55.2339 Q-19.2262 -55.2339 -19.9684 -54.3355 Q-20.7106 -53.4371 -20.7106 -51.7183 Z" /></ns0:g><ns0:g transform="translate(107,81)" style="stroke-linecap:butt; text-rendering:geometricPrecision; color-rendering:optimizeQuality; image-rendering:optimizeQuality; font-family:'Open Sans'; color-interpolation:linearRGB; stroke-miterlimit:5;"><ns0:path style="fill:none;" d="M32.5771 -18.7421 L32.088 -18.846 L31.7535 -18.4744" /><ns0:path style="fill:rgb(230,0,0); stroke:none;" d="M65.3715 -12.6793 Q65.3715 -10.6168 64.3324 -9.4371 Q63.2934 -8.2574 61.4496 -8.2574 Q59.559 -8.2574 58.5278 -9.4215 Q57.4965 -10.5856 57.4965 -12.6949 Q57.4965 -14.7887 58.5278 -15.9371 Q59.559 -17.0856 61.4496 -17.0856 Q63.309 -17.0856 64.3403 -15.9137 Q65.3715 -14.7418 65.3715 -12.6793 ZM58.5434 -12.6793 Q58.5434 -10.9449 59.2856 -10.0387 Q60.0278 -9.1324 61.4496 -9.1324 Q62.8715 -9.1324 63.5981 -10.0309 Q64.3246 -10.9293 64.3246 -12.6793 Q64.3246 -14.4137 63.5981 -15.3043 Q62.8715 -16.1949 61.4496 -16.1949 Q60.0278 -16.1949 59.2856 -15.2965 Q58.5434 -14.3981 58.5434 -12.6793 Z" /><ns0:path style="fill:rgb(230,0,0); stroke:none;" d="M26.7555 -47.4463 Q26.7555 -45.3838 25.7164 -44.2041 Q24.6774 -43.0244 22.8336 -43.0244 Q20.943 -43.0244 19.9117 -44.1885 Q18.8805 -45.3526 18.8805 -47.4619 Q18.8805 -49.5557 19.9117 -50.7041 Q20.943 -51.8526 22.8336 -51.8526 Q24.693 -51.8526 25.7242 -50.6807 Q26.7555 -49.5088 26.7555 -47.4463 ZM19.9274 -47.4463 Q19.9274 -45.7119 20.6696 -44.8057 Q21.4117 -43.8994 22.8336 -43.8994 Q24.2555 -43.8994 24.9821 -44.7979 Q25.7086 -45.6963 25.7086 -47.4463 Q25.7086 -49.1807 24.9821 -50.0713 Q24.2555 -50.9619 22.8336 -50.9619 Q21.4117 -50.9619 20.6696 -50.0635 Q19.9274 -49.1651 19.9274 -47.4463 Z" /><ns0:path style="fill:rgb(230,0,0); stroke:none;" d="M-6.9255 77.5577 Q-6.9255 79.6202 -7.9646 80.7999 Q-9.0036 81.9796 -10.8474 81.9796 Q-12.738 81.9796 -13.7692 80.8155 Q-14.8005 79.6514 -14.8005 77.5421 Q-14.8005 75.4483 -13.7692 74.2999 Q-12.738 73.1514 -10.8474 73.1514 Q-8.988 73.1514 -7.9567 74.3233 Q-6.9255 75.4952 -6.9255 77.5577 ZM-13.7536 77.5577 Q-13.7536 79.2921 -13.0114 80.1983 Q-12.2692 81.1046 -10.8474 81.1046 Q-9.4255 81.1046 -8.6989 80.2061 Q-7.9724 79.3077 -7.9724 77.5577 Q-7.9724 75.8233 -8.6989 74.9327 Q-9.4255 74.0421 -10.8474 74.0421 Q-12.2692 74.0421 -13.0114 74.9405 Q-13.7536 75.8389 -13.7536 77.5577 Z" /><ns0:path style="fill:rgb(230,0,0); stroke:none;" d="M-15.8005 81.8546 L-16.8005 81.8546 L-16.8005 77.8233 L-21.3161 77.8233 L-21.3161 81.8546 L-22.3161 81.8546 L-22.3161 73.2921 L-21.3161 73.2921 L-21.3161 76.9327 L-16.8005 76.9327 L-16.8005 73.2921 L-15.8005 73.2921 L-15.8005 81.8546 Z" /></ns0:g><ns0:g transform="translate(107,81)" style="stroke-linecap:butt; font-size:8.4px; fill:gray; text-rendering:geometricPrecision; image-rendering:optimizeQuality; color-rendering:optimizeQuality; font-family:'Open Sans'; font-style:italic; stroke:gray; color-interpolation:linearRGB; stroke-miterlimit:5;"><ns0:path style="stroke:none;" d="M-31.9148 2.0384 Q-31.9148 0.7102 -31.4461 -0.4148 Q-30.9773 -1.5398 -29.9461 -2.6179 L-29.3367 -2.6179 Q-30.3054 -1.5554 -30.7898 -0.3835 Q-31.2742 0.7884 -31.2742 2.0227 Q-31.2742 3.3509 -30.8367 4.3665 L-31.3523 4.3665 Q-31.9148 3.3352 -31.9148 2.0384 ZM-26.2923 1.4446 Q-26.2923 2.2727 -26.8391 2.7259 Q-27.386 3.179 -28.386 3.179 Q-28.7923 3.179 -29.1048 3.1243 Q-29.4173 3.0696 -29.6985 2.929 L-29.6985 2.2727 Q-29.0735 2.6009 -28.3704 2.6009 Q-27.7454 2.6009 -27.3704 2.304 Q-26.9954 2.0071 -26.9954 1.4915 Q-26.9954 1.179 -27.1985 0.9524 Q-27.4016 0.7259 -27.9641 0.3977 Q-28.5579 0.0696 -28.7845 -0.2585 Q-29.011 -0.5866 -29.011 -1.0398 Q-29.011 -1.7741 -28.4954 -2.2351 Q-27.9798 -2.696 -27.136 -2.696 Q-26.761 -2.696 -26.4251 -2.6179 Q-26.0891 -2.5398 -25.7141 -2.3679 L-25.9798 -1.7741 Q-26.2298 -1.9304 -26.5501 -2.0163 Q-26.8704 -2.1023 -27.136 -2.1023 Q-27.6673 -2.1023 -27.9876 -1.8288 Q-28.3079 -1.5554 -28.3079 -1.0866 Q-28.3079 -0.8835 -28.2376 -0.7351 Q-28.1673 -0.5866 -28.0266 -0.4538 Q-27.886 -0.321 -27.4641 -0.071 Q-26.9016 0.2727 -26.6985 0.4681 Q-26.4954 0.6634 -26.3938 0.8977 Q-26.2923 1.1321 -26.2923 1.4446 ZM-23.6978 -0.2741 Q-23.6978 1.054 -24.1743 2.1868 Q-24.6509 3.3196 -25.6665 4.3665 L-26.2759 4.3665 Q-24.3384 2.2102 -24.3384 -0.2741 Q-24.3384 -1.6023 -24.7759 -2.6179 L-24.2603 -2.6179 Q-23.6978 -1.5554 -23.6978 -0.2741 Z" /></ns0:g><ns0:g transform="translate(107,81)" style="stroke-linecap:butt; fill:rgb(0,5,255); text-rendering:geometricPrecision; color-rendering:optimizeQuality; image-rendering:optimizeQuality; font-family:'Open Sans'; stroke:rgb(0,5,255); color-interpolation:linearRGB; stroke-miterlimit:5;"><ns0:path style="stroke:none;" d="M15.3666 7.6062 L14.2259 7.6062 L9.5384 0.4187 L9.4916 0.4187 Q9.5853 1.6844 9.5853 2.7312 L9.5853 7.6062 L8.6634 7.6062 L8.6634 -0.9563 L9.7884 -0.9563 L14.4603 6.2 L14.5072 6.2 Q14.5072 6.0437 14.4603 5.1844 Q14.4134 4.325 14.4291 3.95 L14.4291 -0.9563 L15.3666 -0.9563 L15.3666 7.6062 Z" /><ns0:path style="fill:none; stroke:black;" d="M-29.8206 27.2632 L-30.024 27.72 L-29.6524 28.0545" /><ns0:path style="fill:none; stroke:black;" d="M18.148 32.3039 L18.252 32.793 L17.819 33.043" /><ns0:path style="fill:none; stroke:black;" d="M-8.0996 47.4585 L-7.728 47.793 L-7.295 47.543" /></ns0:g><ns0:g transform="translate(107,81)" style="stroke-linecap:butt; font-size:8.4px; fill:gray; text-rendering:geometricPrecision; image-rendering:optimizeQuality; color-rendering:optimizeQuality; font-family:'Open Sans'; font-style:italic; stroke:gray; color-interpolation:linearRGB; stroke-miterlimit:5;"><ns0:path style="stroke:none;" d="M-21.4523 52.5411 Q-21.4523 51.213 -20.9835 50.088 Q-20.5148 48.963 -19.4835 47.8849 L-18.8742 47.8849 Q-19.8429 48.9474 -20.3273 50.1193 Q-20.8117 51.2911 -20.8117 52.5255 Q-20.8117 53.8536 -20.3742 54.8693 L-20.8898 54.8693 Q-21.4523 53.838 -21.4523 52.5411 ZM-17.8922 51.2286 L-18.3922 53.6036 L-19.0485 53.6036 L-17.8454 47.8849 L-16.5954 47.8849 Q-14.861 47.8849 -14.861 49.3224 Q-14.861 50.6818 -16.2985 51.0724 L-15.361 53.6036 L-16.0797 53.6036 L-16.9079 51.2286 L-17.8922 51.2286 ZM-17.3141 48.4786 Q-17.7047 50.4005 -17.7672 50.6505 L-17.111 50.6505 Q-16.361 50.6505 -15.9547 50.3224 Q-15.5485 49.9943 -15.5485 49.3693 Q-15.5485 48.9005 -15.8063 48.6896 Q-16.0641 48.4786 -16.6579 48.4786 L-17.3141 48.4786 ZM-12.675 50.2286 Q-12.675 51.5568 -13.1516 52.6896 Q-13.6281 53.8224 -14.6438 54.8693 L-15.2531 54.8693 Q-13.3156 52.713 -13.3156 50.2286 Q-13.3156 48.9005 -13.7531 47.8849 L-13.2375 47.8849 Q-12.675 48.9474 -12.675 50.2286 Z" /></ns0:g></ns0:g></ns0:svg></ns0:svg></ns0:svg></ns0:svg></g></svg>