<svg width="168" viewBox="0 0 168 130" style="fill-opacity:1; color-rendering:auto; color-interpolation:auto; text-rendering:auto; stroke:black; stroke-linecap:square; stroke-miterlimit:10; shape-rendering:auto; stroke-opacity:1; fill:black; stroke-dasharray:none; font-weight:normal; stroke-width:1; font-family:'Open Sans'; font-style:normal; stroke-linejoin:miter; font-size:12; stroke-dashoffset:0; image-rendering:auto;" height="130" class="cas-substance-image" xmlns:xlink="http://www.w3.org/1999/xlink" xmlns="http://www.w3.org/2000/svg"><svg class="cas-substance-single-component"><rect y="0" x="0" width="168" stroke="none" ry="7" rx="7" height="130" fill="white" class="cas-substance-group"/><svg y="0" x="0" width="168" viewBox="0 0 168 130" style="fill:black;" height="130" class="cas-substance-single-component-image"><svg><g><g transform="translate(84,67)" style="text-rendering:geometricPrecision; color-rendering:optimizeQuality; color-interpolation:linearRGB; stroke-linecap:butt; image-rendering:optimizeQuality;"><line y2="-42.0649" y1="-30" x2="-72.8594" x1="-51.963" style="fill:none;"/><line y2="-39.0338" y1="-26.9689" x2="-74.6094" x1="-53.713" style="fill:none;"/><line y2="-45.096" y1="-33.0311" x2="-71.1094" x1="-50.213" style="fill:none;"/><line y2="-15" y1="-30" x2="-25.98" x1="-51.963" style="fill:none;"/><line y2="15" y1="27.0649" x2="-77.943" x1="-57.0466" style="fill:none;"/><line y2="60" y1="36.1562" x2="-51.963" x1="-51.963" style="fill:none;"/><line y2="15" y1="27.0652" x2="-25.98" x1="-46.8794" style="fill:none;"/><line y2="-30" y1="-55.2773" x2="0" x1="0" style="fill:none;"/><line y2="-18.2414" y1="-30" x2="72.3289" x1="51.963" style="fill:none;"/><line y2="-15.2104" y1="-25.9585" x2="70.5788" x1="51.963" style="fill:none;"/><line y2="-15" y1="-30" x2="25.98" x1="51.963" style="fill:none;"/><line y2="15" y1="-15" x2="-25.98" x1="-25.98" style="fill:none;"/><line y2="12.9793" y1="-12.9793" x2="-22.48" x1="-22.48" style="fill:none;"/><line y2="-30" y1="-15" x2="0" x1="-25.98" style="fill:none;"/><line y2="30" y1="15" x2="0" x1="-25.98" style="fill:none;"/><line y2="-15" y1="-30" x2="25.98" x1="0" style="fill:none;"/><line y2="-12.9793" y1="-25.9585" x2="22.48" x1="-0.0001" style="fill:none;"/><line y2="15" y1="30" x2="25.98" x1="0" style="fill:none;"/><line y2="12.9793" y1="25.9585" x2="22.48" x1="-0.0001" style="fill:none;"/><line y2="15" y1="-15" x2="25.98" x1="25.98" style="fill:none;"/></g><g transform="translate(84,67)" style="fill:rgb(0,5,255); text-rendering:geometricPrecision; color-rendering:optimizeQuality; image-rendering:optimizeQuality; font-family:'Open Sans'; stroke:rgb(0,5,255); color-interpolation:linearRGB;"><path style="stroke:none;" d="M-74.5914 -40.8438 L-75.7321 -40.8438 L-80.4196 -48.0312 L-80.4664 -48.0312 Q-80.3727 -46.7656 -80.3727 -45.7188 L-80.3727 -40.8438 L-81.2946 -40.8438 L-81.2946 -49.4062 L-80.1696 -49.4062 L-75.4977 -42.25 L-75.4508 -42.25 Q-75.4508 -42.4062 -75.4977 -43.2656 Q-75.5446 -44.125 -75.5289 -44.5 L-75.5289 -49.4062 L-74.5914 -49.4062 L-74.5914 -40.8438 Z"/><path style="stroke:none;" d="M-48.6114 34.1562 L-49.7521 34.1562 L-54.4396 26.9688 L-54.4864 26.9688 Q-54.3927 28.2344 -54.3927 29.2812 L-54.3927 34.1562 L-55.3146 34.1562 L-55.3146 25.5938 L-54.1896 25.5938 L-49.5177 32.75 L-49.4708 32.75 Q-49.4708 32.5938 -49.5177 31.7344 Q-49.5646 30.875 -49.5489 30.5 L-49.5489 25.5938 L-48.6114 25.5938 L-48.6114 34.1562 Z"/><path style="fill:rgb(0,138,0); stroke:none;" d="M-1.3906 -55.8438 L-2.3906 -55.8438 L-2.3906 -64.4062 L2.3906 -64.4062 L2.3906 -63.5312 L-1.3906 -63.5312 L-1.3906 -60.3906 L2.1562 -60.3906 L2.1562 -59.5 L-1.3906 -59.5 L-1.3906 -55.8438 Z"/></g><g transform="translate(84,67)" style="stroke-linecap:butt; text-rendering:geometricPrecision; color-rendering:optimizeQuality; image-rendering:optimizeQuality; font-family:'Open Sans'; color-interpolation:linearRGB; stroke-miterlimit:5;"><path style="fill:none;" d="M52.396 -29.75 L51.963 -30 L51.53 -29.75"/><path transform="translate(-0.875,1.5155)" style="fill:rgb(230,0,0); stroke:none;" d="M81.8805 -15.0703 Q81.8805 -13.0078 80.8414 -11.8281 Q79.8024 -10.6484 77.9586 -10.6484 Q76.068 -10.6484 75.0368 -11.8125 Q74.0055 -12.9766 74.0055 -15.0859 Q74.0055 -17.1797 75.0368 -18.3281 Q76.068 -19.4766 77.9586 -19.4766 Q79.818 -19.4766 80.8493 -18.3047 Q81.8805 -17.1328 81.8805 -15.0703 ZM75.0524 -15.0703 Q75.0524 -13.3359 75.7946 -12.4297 Q76.5368 -11.5234 77.9586 -11.5234 Q79.3805 -11.5234 80.1071 -12.4219 Q80.8336 -13.3203 80.8336 -15.0703 Q80.8336 -16.8047 80.1071 -17.6953 Q79.3805 -18.5859 77.9586 -18.5859 Q76.5368 -18.5859 75.7946 -17.6875 Q75.0524 -16.7891 75.0524 -15.0703 Z"/></g><g transform="matrix(1,0,0,1,84,67)" style="stroke-linecap:butt; text-rendering:geometricPrecision; color-rendering:optimizeQuality; image-rendering:optimizeQuality; font-family:'Open Sans'; color-interpolation:linearRGB; stroke-miterlimit:5;"><path style="fill:none;" d="M-25.98 -14.5 L-25.98 -15 L-26.413 -15.25"/><path style="fill:none;" d="M-25.98 14.5 L-25.98 15 L-26.413 15.25"/><path style="fill:none;" d="M0.433 -29.75 L0 -30 L-0.433 -29.75"/><path style="fill:none;" d="M-0.433 29.75 L0 30 L0.433 29.75"/><path style="fill:none;" d="M25.547 -15.25 L25.98 -15 L26.413 -15.25"/><path style="fill:none;" d="M25.547 15.25 L25.98 15 L25.98 14.5"/></g></g></svg></svg></svg></svg>