<svg xmlns:ns0="http://www.w3.org/2000/svg" xmlns="http://www.w3.org/2000/svg"><g transform="translate(0, 0)"><ns0:svg width="352" viewBox="0 0 352 206" style="fill-opacity:1; color-rendering:auto; color-interpolation:auto; text-rendering:auto; stroke:black; stroke-linecap:square; stroke-miterlimit:10; shape-rendering:auto; stroke-opacity:1; fill:black; stroke-dasharray:none; font-weight:normal; stroke-width:1; font-family:'Open Sans'; font-style:normal; stroke-linejoin:miter; font-size:12; stroke-dashoffset:0; image-rendering:auto;" height="206" class="cas-substance-image"><ns0:svg class="cas-substance-single-component"><ns0:rect y="0" x="0" width="352" stroke="none" ry="7" rx="7" height="206" fill="white" class="cas-substance-group" /><ns0:svg y="0" x="0" width="352" viewBox="0 0 352 191" style="fill:black;" height="191" class="cas-substance-single-component-image"><ns0:svg><ns0:g><ns0:g transform="translate(176,97)" style="text-rendering:geometricPrecision; color-rendering:optimizeQuality; color-interpolation:linearRGB; stroke-linecap:butt; image-rendering:optimizeQuality;"><ns0:line y2="-12.0652" y1="0" x2="-44.0536" x1="-64.953" style="fill:none;" /><ns0:line y2="-15" y1="0" x2="-90.933" x1="-64.953" style="fill:none;" /><ns0:line y2="30" y1="0" x2="-64.953" x1="-64.953" style="fill:none;" /><ns0:line y2="-45" y1="-60" x2="64.953" x1="38.97" style="fill:none;" /><ns0:line y2="-47.9351" y1="-60" x2="18.0736" x1="38.97" style="fill:none;" /><ns0:line y2="-56.8112" y1="-45" x2="85.41" x1="64.953" style="fill:none;" /><ns0:line y2="-45" y1="-56.8214" x2="116.913" x1="96.4384" style="fill:none;" /><ns0:line y2="-60" y1="-45" x2="142.893" x1="116.913" style="fill:none;" /><ns0:line y2="-83.6484" y1="-60" x2="142.893" x1="142.893" style="fill:none;" /><ns0:line y2="-46.7256" y1="-58.9896" x2="162.3867" x1="141.143" style="fill:none;" /><ns0:line y2="-49.7567" y1="-62.0207" x2="164.1366" x1="142.893" style="fill:none;" /><ns0:line y2="-45" y1="-56.4496" x2="-142.893" x1="-162.726" style="fill:none;" /><ns0:line y2="-45" y1="-21.4062" x2="-38.97" x1="-38.97" style="fill:none;" /><ns0:line y2="0" y1="-12.0649" x2="-12.99" x1="-33.8864" style="fill:none;" /><ns0:line y2="-60" y1="-45" x2="-12.99" x1="-38.97" style="fill:none;" /><ns0:line y2="-15" y1="0" x2="12.99" x1="-12.99" style="fill:none;" /><ns0:line y2="-47.9351" y1="-60" x2="7.9064" x1="-12.99" style="fill:none;" /><ns0:line y2="-38.8438" y1="-15" x2="12.99" x1="12.99" style="fill:none;" /><ns0:line y2="-45" y1="-15" x2="-90.933" x1="-90.933" style="fill:none;" /><ns0:line y2="-42.9793" y1="-17.0207" x2="-94.433" x1="-94.433" style="fill:none;" /><ns0:line y2="0" y1="-15" x2="-116.913" x1="-90.933" style="fill:none;" /><ns0:line y2="-60" y1="-45" x2="-116.913" x1="-90.933" style="fill:none;" /><ns0:line y2="-15" y1="0" x2="-142.893" x1="-116.913" style="fill:none;" /><ns0:line y2="-17.0207" y1="-4.0415" x2="-139.393" x1="-116.9129" style="fill:none;" /><ns0:line y2="-45" y1="-60" x2="-142.893" x1="-116.913" style="fill:none;" /><ns0:line y2="-42.9793" y1="-55.9585" x2="-139.393" x1="-116.9129" style="fill:none;" /><ns0:line y2="-45" y1="-15" x2="-142.893" x1="-142.893" style="fill:none;" /><ns0:line y2="45" y1="30" x2="-38.97" x1="-64.953" style="fill:none;" /><ns0:line y2="47.0209" y1="34.0415" x2="-42.4699" x1="-64.9529" style="fill:none;" /><ns0:line y2="45" y1="30" x2="-90.933" x1="-64.953" style="fill:none;" /><ns0:line y2="75" y1="45" x2="-38.97" x1="-38.97" style="fill:none;" /><ns0:line y2="75" y1="45" x2="-90.933" x1="-90.933" style="fill:none;" /><ns0:line y2="72.9793" y1="47.0207" x2="-87.433" x1="-87.433" style="fill:none;" /><ns0:line y2="90" y1="75" x2="-64.953" x1="-38.97" style="fill:none;" /><ns0:line y2="85.9585" y1="72.9791" x2="-64.9529" x1="-42.4699" style="fill:none;" /><ns0:line y2="90" y1="75" x2="-64.953" x1="-90.933" style="fill:none;" /><ns0:path style="fill:none; stroke-miterlimit:5;" d="M39.403 -59.75 L38.97 -60 L38.537 -59.75" /><ns0:path style="fill:none; stroke-miterlimit:5;" d="M64.52 -45.25 L64.953 -45 L65.386 -45.25" /></ns0:g><ns0:g transform="translate(176,97)" style="stroke-linecap:butt; fill:rgb(230,0,0); text-rendering:geometricPrecision; color-rendering:optimizeQuality; image-rendering:optimizeQuality; font-family:'Open Sans'; stroke:rgb(230,0,0); color-interpolation:linearRGB; stroke-miterlimit:5;"><ns0:path style="stroke:none;" d="M94.8705 -60.0703 Q94.8705 -58.0078 93.8314 -56.8281 Q92.7924 -55.6484 90.9486 -55.6484 Q89.058 -55.6484 88.0267 -56.8125 Q86.9955 -57.9766 86.9955 -60.0859 Q86.9955 -62.1797 88.0267 -63.3281 Q89.058 -64.4766 90.9486 -64.4766 Q92.808 -64.4766 93.8392 -63.3047 Q94.8705 -62.1328 94.8705 -60.0703 ZM88.0424 -60.0703 Q88.0424 -58.3359 88.7846 -57.4297 Q89.5267 -56.5234 90.9486 -56.5234 Q92.3705 -56.5234 93.0971 -57.4219 Q93.8236 -58.3203 93.8236 -60.0703 Q93.8236 -61.8047 93.0971 -62.6953 Q92.3705 -63.5859 90.9486 -63.5859 Q89.5267 -63.5859 88.7846 -62.6875 Q88.0424 -61.7891 88.0424 -60.0703 Z" /><ns0:path style="fill:none; stroke:black;" d="M116.48 -45.25 L116.913 -45 L117.346 -45.25" /><ns0:path style="fill:none; stroke:black;" d="M142.46 -59.75 L142.893 -60 L142.893 -60.5" /><ns0:path style="stroke:none;" d="M146.8305 -90.0703 Q146.8305 -88.0078 145.7914 -86.8281 Q144.7524 -85.6484 142.9086 -85.6484 Q141.018 -85.6484 139.9868 -86.8125 Q138.9555 -87.9766 138.9555 -90.0859 Q138.9555 -92.1797 139.9868 -93.3281 Q141.018 -94.4766 142.9086 -94.4766 Q144.768 -94.4766 145.7993 -93.3047 Q146.8305 -92.1328 146.8305 -90.0703 ZM140.0024 -90.0703 Q140.0024 -88.3359 140.7446 -87.4297 Q141.4868 -86.5234 142.9086 -86.5234 Q144.3305 -86.5234 145.0571 -87.4219 Q145.7836 -88.3203 145.7836 -90.0703 Q145.7836 -91.8047 145.0571 -92.6953 Q144.3305 -93.5859 142.9086 -93.5859 Q141.4868 -93.5859 140.7446 -92.6875 Q140.0024 -91.7891 140.0024 -90.0703 Z" /><ns0:path style="stroke:none;" d="M154.3461 -85.7734 L153.3461 -85.7734 L153.3461 -89.8047 L148.8305 -89.8047 L148.8305 -85.7734 L147.8305 -85.7734 L147.8305 -94.3359 L148.8305 -94.3359 L148.8305 -90.6953 L153.3461 -90.6953 L153.3461 -94.3359 L154.3461 -94.3359 L154.3461 -85.7734 Z" /><ns0:path style="stroke:none;" d="M172.8135 -45.0703 Q172.8135 -43.0078 171.7744 -41.8281 Q170.7354 -40.6484 168.8916 -40.6484 Q167.001 -40.6484 165.9698 -41.8125 Q164.9385 -42.9766 164.9385 -45.0859 Q164.9385 -47.1797 165.9698 -48.3281 Q167.001 -49.4766 168.8916 -49.4766 Q170.751 -49.4766 171.7823 -48.3047 Q172.8135 -47.1328 172.8135 -45.0703 ZM165.9854 -45.0703 Q165.9854 -43.3359 166.7276 -42.4297 Q167.4698 -41.5234 168.8916 -41.5234 Q170.3135 -41.5234 171.0401 -42.4219 Q171.7666 -43.3203 171.7666 -45.0703 Q171.7666 -46.8047 171.0401 -47.6953 Q170.3135 -48.5859 168.8916 -48.5859 Q167.4698 -48.5859 166.7276 -47.6875 Q165.9854 -46.7891 165.9854 -45.0703 Z" /><ns0:path style="fill:rgb(0,138,0); stroke:none;" d="M-169.1846 -63.3594 Q-170.5909 -63.3594 -171.4112 -62.4219 Q-172.2315 -61.4844 -172.2315 -59.8438 Q-172.2315 -58.1719 -171.4424 -57.25 Q-170.6534 -56.3281 -169.2002 -56.3281 Q-168.294 -56.3281 -167.1534 -56.6562 L-167.1534 -55.7812 Q-168.044 -55.4375 -169.3409 -55.4375 Q-171.2315 -55.4375 -172.2627 -56.5938 Q-173.294 -57.75 -173.294 -59.8594 Q-173.294 -61.1875 -172.8018 -62.1797 Q-172.3096 -63.1719 -171.3721 -63.7109 Q-170.4346 -64.25 -169.169 -64.25 Q-167.8252 -64.25 -166.8096 -63.7656 L-167.2315 -62.9062 Q-168.2159 -63.3594 -169.1846 -63.3594 ZM-164.458 -55.5625 L-165.4268 -55.5625 L-165.4268 -64.6875 L-164.458 -64.6875 L-164.458 -55.5625 Z" /><ns0:path style="fill:rgb(0,5,255); stroke:none;" d="M-35.6184 -10.8438 L-36.7591 -10.8438 L-41.4466 -18.0312 L-41.4934 -18.0312 Q-41.3997 -16.7656 -41.3997 -15.7188 L-41.3997 -10.8438 L-42.3216 -10.8438 L-42.3216 -19.4062 L-41.1966 -19.4062 L-36.5247 -12.25 L-36.4778 -12.25 Q-36.4778 -12.4062 -36.5247 -13.2656 Q-36.5716 -14.125 -36.5559 -14.5 L-36.5559 -19.4062 L-35.6184 -19.4062 L-35.6184 -10.8438 Z" /><ns0:path style="fill:none; stroke:black;" d="M-38.97 -44.5 L-38.97 -45 L-38.537 -45.25" /><ns0:path style="fill:none; stroke:black;" d="M-13.423 -0.25 L-12.99 0 L-12.557 -0.25" /><ns0:path style="fill:none; stroke:black;" d="M-13.423 -59.75 L-12.99 -60 L-12.557 -59.75" /><ns0:path style="fill:none; stroke:black;" d="M12.557 -14.75 L12.99 -15 L12.99 -15.5" /><ns0:path style="fill:rgb(0,5,255); stroke:none;" d="M16.3416 -40.8438 L15.2009 -40.8438 L10.5134 -48.0312 L10.4666 -48.0312 Q10.5603 -46.7656 10.5603 -45.7188 L10.5603 -40.8438 L9.6384 -40.8438 L9.6384 -49.4062 L10.7634 -49.4062 L15.4353 -42.25 L15.4822 -42.25 Q15.4822 -42.4062 15.4353 -43.2656 Q15.3884 -44.125 15.4041 -44.5 L15.4041 -49.4062 L16.3416 -49.4062 L16.3416 -40.8438 Z" /><ns0:path style="fill:none; stroke:black;" d="M-90.933 -15.5 L-90.933 -15 L-90.5 -14.75" /><ns0:path style="fill:none; stroke:black;" d="M-90.933 -44.5 L-90.933 -45 L-91.366 -45.25" /><ns0:path style="fill:none; stroke:black;" d="M-116.48 -0.25 L-116.913 0 L-117.346 -0.25" /><ns0:path style="fill:none; stroke:black;" d="M-116.48 -59.75 L-116.913 -60 L-117.346 -59.75" /><ns0:path style="fill:none; stroke:black;" d="M-142.46 -14.75 L-142.893 -15 L-142.893 -15.5" /><ns0:path style="fill:none; stroke:black;" d="M-142.46 -45.25 L-142.893 -45 L-142.893 -44.5" /><ns0:path style="fill:none; stroke:black;" d="M-64.52 30.25 L-64.953 30 L-65.386 30.25" /><ns0:path style="fill:none; stroke:black;" d="M-39.403 44.75 L-38.97 45 L-38.97 45.5" /><ns0:path style="fill:none; stroke:black;" d="M-90.5 44.75 L-90.933 45 L-90.933 45.5" /><ns0:path style="fill:none; stroke:black;" d="M-38.97 74.5 L-38.97 75 L-39.403 75.25" /><ns0:path style="fill:none; stroke:black;" d="M-90.933 74.5 L-90.933 75 L-90.5 75.25" /><ns0:path style="fill:none; stroke:black;" d="M-64.52 89.75 L-64.953 90 L-65.386 89.75" /></ns0:g></ns0:g></ns0:svg></ns0:svg><ns0:svg y="191" x="153" class="cas-substance-saf"><ns0:svg y="5" x="0" width="4" style="fill:black;" height="4" class="cas-substance-saf-dot"><ns0:circle stroke="none" r="2" fill="black" cy="2" cx="2" /></ns0:svg><ns0:svg y="0" x="7" width="12" style="fill:black;" height="15" class="cas-substance-saf-coefficient"><ns0:svg><ns0:g><ns0:g transform="translate(6,7)" style="text-rendering:geometricPrecision; font-family:'Open Sans'; color-interpolation:linearRGB; color-rendering:optimizeQuality; image-rendering:optimizeQuality;"><ns0:path style="stroke:none;" d="M2.8125 4.2188 L-2.8125 4.2188 L-2.8125 3.375 L-0.5625 1.1094 Q0.4688 0.0625 0.7969 -0.3828 Q1.125 -0.8281 1.2891 -1.25 Q1.4531 -1.6719 1.4531 -2.1562 Q1.4531 -2.8438 1.0391 -3.2422 Q0.625 -3.6406 -0.125 -3.6406 Q-0.6562 -3.6406 -1.1328 -3.4609 Q-1.6094 -3.2812 -2.1875 -2.8281 L-2.7031 -3.4844 Q-1.5312 -4.4688 -0.125 -4.4688 Q1.0781 -4.4688 1.7656 -3.8516 Q2.4531 -3.2344 2.4531 -2.1875 Q2.4531 -1.375 1.9922 -0.5781 Q1.5312 0.2188 0.2812 1.4375 L-1.5938 3.2656 L-1.5938 3.3125 L2.8125 3.3125 L2.8125 4.2188 Z" /></ns0:g></ns0:g></ns0:svg></ns0:svg><ns0:svg y="0" x="23" width="22" style="fill:black;" height="15" class="cas-substance-saf-image"><ns0:svg><ns0:g><ns0:g transform="translate(6,8)" style="fill:rgb(0,138,0); text-rendering:geometricPrecision; color-rendering:optimizeQuality; image-rendering:optimizeQuality; font-family:'Open Sans'; stroke:rgb(0,138,0); color-interpolation:linearRGB;"><ns0:path style="stroke:none;" d="M3.2578 4.1562 L2.2578 4.1562 L2.2578 0.125 L-2.2578 0.125 L-2.2578 4.1562 L-3.2578 4.1562 L-3.2578 -4.4062 L-2.2578 -4.4062 L-2.2578 -0.7656 L2.2578 -0.7656 L2.2578 -4.4062 L3.2578 -4.4062 L3.2578 4.1562 Z" /><ns0:path style="stroke:none;" d="M8.3672 -3.6406 Q6.9609 -3.6406 6.1406 -2.7031 Q5.3203 -1.7656 5.3203 -0.125 Q5.3203 1.5469 6.1094 2.4688 Q6.8984 3.3906 8.3516 3.3906 Q9.2578 3.3906 10.3984 3.0625 L10.3984 3.9375 Q9.5078 4.2812 8.2109 4.2812 Q6.3203 4.2812 5.2891 3.125 Q4.2578 1.9688 4.2578 -0.1406 Q4.2578 -1.4688 4.75 -2.4609 Q5.2422 -3.4531 6.1797 -3.9922 Q7.1172 -4.5312 8.3828 -4.5312 Q9.7266 -4.5312 10.7422 -4.0469 L10.3203 -3.1875 Q9.3359 -3.6406 8.3672 -3.6406 ZM13.0938 4.1562 L12.125 4.1562 L12.125 -4.9688 L13.0938 -4.9688 L13.0938 4.1562 Z" /></ns0:g></ns0:g></ns0:svg></ns0:svg></ns0:svg></ns0:svg></ns0:svg></g></svg>