<svg width="321" viewBox="0 0 321 319" style="fill-opacity:1; color-rendering:auto; color-interpolation:auto; text-rendering:auto; stroke:black; stroke-linecap:square; stroke-miterlimit:10; shape-rendering:auto; stroke-opacity:1; fill:black; stroke-dasharray:none; font-weight:normal; stroke-width:1; font-family:'Open Sans'; font-style:normal; stroke-linejoin:miter; font-size:12; stroke-dashoffset:0; image-rendering:auto;" height="319" class="cas-substance-image" xmlns:xlink="http://www.w3.org/1999/xlink" xmlns="http://www.w3.org/2000/svg"><svg class="cas-substance-single-component"><rect y="0" x="0" width="321" stroke="none" ry="7" rx="7" height="319" fill="white" class="cas-substance-group"/><svg y="0" x="0" width="321" viewBox="0 0 321 319" style="fill:black;" height="319" class="cas-substance-single-component-image"><svg><g><g transform="translate(160,159)" style="text-rendering:geometricPrecision; color-rendering:optimizeQuality; color-interpolation:linearRGB; stroke-linecap:butt; image-rendering:optimizeQuality;"><line y2="-20.0917" y1="0" x2="40.8997" x1="52.5" style="fill:none;"/><line y2="25.98" y1="0" x2="37.5" x1="52.5" style="fill:none;"/><line y2="-25.98" y1="-25.98" x2="7.5" x1="32.1484" style="fill:none;"/><line y2="-46.0747" y1="-32.1183" x2="49.1007" x1="41.0437" style="fill:none;"/><line y2="-51.963" y1="-25.98" x2="-7.5" x1="7.5" style="fill:none;"/><line y2="-51.963" y1="-51.963" x2="82.5" x1="57.8516" style="fill:none;"/><line y2="-51.963" y1="-51.963" x2="-37.5" x1="-7.5" style="fill:none;"/><path style="stroke:none;" d="M-7.067 -51.713 L-7.933 -52.213 L1.641 -73.7951 L6.8371 -70.795 Z"/><line y2="-72.295" y1="-51.963" x2="94.239" x1="82.5" style="fill:none;"/><line y2="-30.8329" y1="-51.963" x2="92.6777" x1="80.4793" style="fill:none;"/><line y2="-32.5828" y1="-53.713" x2="95.7089" x1="83.5104" style="fill:none;"/><path style="stroke:none;" d="M-37.067 -52.213 L-37.933 -51.713 L-54.6651 -75.1931 L-51.2009 -81.1929 Z"/><line y2="-32.1183" y1="-51.963" x2="-48.9563" x1="-37.5" style="fill:none;"/><line y2="-77.943" y1="-77.943" x2="127.5" x1="103.4375" style="fill:none;"/><line y2="-103.923" y1="-77.943" x2="-37.5" x1="-52.5" style="fill:none;"/><line y2="-25.98" y1="-25.98" x2="-82.5" x1="-57.8516" style="fill:none;"/><line y2="-47.943" y1="-77.943" x2="127.5" x1="127.5" style="fill:none;"/><line y2="-77.943" y1="-77.943" x2="157.5" x1="127.5" style="fill:none;"/><line y2="-107.943" y1="-77.943" x2="127.5" x1="127.5" style="fill:none;"/><line y2="-5.7217" y1="-25.98" x2="-94.1965" x1="-82.5" style="fill:none;"/><line y2="-47.202" y1="-25.98" x2="-92.7308" x1="-80.4793" style="fill:none;"/><line y2="-45.4521" y1="-24.23" x2="-95.7619" x1="-83.5104" style="fill:none;"/><line y2="0" y1="0" x2="-127.5" x1="-103.4375" style="fill:none;"/><line y2="30" y1="0" x2="-127.5" x1="-127.5" style="fill:none;"/><line y2="0" y1="0" x2="-157.5" x1="-127.5" style="fill:none;"/><line y2="-30" y1="0" x2="-127.5" x1="-127.5" style="fill:none;"/><line y2="77.943" y1="77.943" x2="37.5" x1="7.5" style="fill:none;"/><line y2="74.443" y1="74.443" x2="35.4793" x1="9.5207" style="fill:none;"/><line y2="51.963" y1="77.943" x2="-7.5" x1="7.5" style="fill:none;"/><line y2="103.923" y1="77.943" x2="-7.5" x1="7.5" style="fill:none;"/><line y2="51.963" y1="77.943" x2="52.5" x1="37.5" style="fill:none;"/><line y2="25.98" y1="51.963" x2="7.5" x1="-7.5" style="fill:none;"/><line y2="29.4799" y1="51.9628" x2="9.5209" x1="-3.4585" style="fill:none;"/><line y2="25.98" y1="51.963" x2="37.5" x1="52.5" style="fill:none;"/><line y2="29.4799" y1="51.9628" x2="35.4791" x1="48.4585" style="fill:none;"/><line y2="25.98" y1="25.98" x2="37.5" x1="7.5" style="fill:none;"/><line y2="103.923" y1="103.923" x2="-37.5" x1="-7.5" style="fill:none;"/><line y2="107.423" y1="107.423" x2="-35.4793" x1="-9.5207" style="fill:none;"/><line y2="123.7647" y1="103.923" x2="3.956" x1="-7.5" style="fill:none;"/><line y2="129.903" y1="103.923" x2="-52.5" x1="-37.5" style="fill:none;"/><line y2="155.886" y1="135.7913" x2="-7.5" x1="4.1007" style="fill:none;"/><line y2="152.3861" y1="134.0414" x2="-9.5209" x1="1.0695" style="fill:none;"/><line y2="155.886" y1="129.903" x2="-37.5" x1="-52.5" style="fill:none;"/><line y2="152.3861" y1="129.9031" x2="-35.4791" x1="-48.4585" style="fill:none;"/><line y2="155.886" y1="155.886" x2="-37.5" x1="-7.5" style="fill:none;"/><line y2="-103.923" y1="-103.923" x2="-7.5" x1="-37.5" style="fill:none;"/><line y2="-107.423" y1="-107.423" x2="-9.5207" x1="-35.4793" style="fill:none;"/><line y2="-129.903" y1="-103.923" x2="-52.5" x1="-37.5" style="fill:none;"/><line y2="-129.903" y1="-103.923" x2="7.5" x1="-7.5" style="fill:none;"/><line y2="-155.886" y1="-129.903" x2="-37.5" x1="-52.5" style="fill:none;"/><line y2="-152.3861" y1="-129.9031" x2="-35.4791" x1="-48.4585" style="fill:none;"/><line y2="-155.886" y1="-129.903" x2="-7.5" x1="7.5" style="fill:none;"/><line y2="-152.3861" y1="-129.9031" x2="-9.5209" x1="3.4585" style="fill:none;"/><line y2="-155.886" y1="-155.886" x2="-7.5" x1="-37.5" style="fill:none;"/><path style="fill:none; stroke-miterlimit:5;" d="M52.25 -0.433 L52.5 0 L52.25 0.433"/></g><g transform="translate(160,159)" style="stroke-linecap:butt; fill:rgb(0,5,255); text-rendering:geometricPrecision; color-rendering:optimizeQuality; image-rendering:optimizeQuality; font-family:'Open Sans'; stroke:rgb(0,5,255); color-interpolation:linearRGB; stroke-miterlimit:5;"><path style="stroke:none;" d="M40.8516 -21.8237 L39.7109 -21.8237 L35.0234 -29.0112 L34.9766 -29.0112 Q35.0703 -27.7456 35.0703 -26.6987 L35.0703 -21.8237 L34.1484 -21.8237 L34.1484 -30.3862 L35.2734 -30.3862 L39.9453 -23.23 L39.9922 -23.23 Q39.9922 -23.3862 39.9453 -24.2456 Q39.8984 -25.105 39.9141 -25.48 L39.9141 -30.3862 L40.8516 -30.3862 L40.8516 -21.8237 Z"/><path style="fill:none; stroke:black;" d="M8 -25.98 L7.5 -25.98 L7.25 -26.413"/><path style="stroke:none;" d="M55.8516 -47.8068 L54.7109 -47.8068 L50.0234 -54.9943 L49.9766 -54.9943 Q50.0703 -53.7286 50.0703 -52.6818 L50.0703 -47.8068 L49.1484 -47.8068 L49.1484 -56.3693 L50.2734 -56.3693 L54.9453 -49.213 L54.9922 -49.213 Q54.9922 -49.3693 54.9453 -50.2286 Q54.8984 -51.088 54.9141 -51.463 L54.9141 -56.3693 L55.8516 -56.3693 L55.8516 -47.8068 Z"/><path style="stroke:none;" d="M55.7578 -57.3693 L54.7578 -57.3693 L54.7578 -61.4005 L50.2422 -61.4005 L50.2422 -57.3693 L49.2422 -57.3693 L49.2422 -65.9317 L50.2422 -65.9317 L50.2422 -62.2911 L54.7578 -62.2911 L54.7578 -65.9317 L55.7578 -65.9317 L55.7578 -57.3693 Z"/></g><g transform="translate(160,159)" style="stroke-linecap:butt; font-size:8.4px; fill:gray; text-rendering:geometricPrecision; image-rendering:optimizeQuality; color-rendering:optimizeQuality; font-family:'Open Sans'; font-style:italic; stroke:gray; color-interpolation:linearRGB; stroke-miterlimit:5;"><path style="stroke:none;" d="M-16.6085 -59.4201 Q-16.6085 -60.7483 -16.1398 -61.8733 Q-15.671 -62.9983 -14.6398 -64.0764 L-14.0304 -64.0764 Q-14.9991 -63.0139 -15.4835 -61.842 Q-15.9679 -60.6701 -15.9679 -59.4358 Q-15.9679 -58.1076 -15.5304 -57.092 L-16.046 -57.092 Q-16.6085 -58.1233 -16.6085 -59.4201 ZM-10.986 -60.0139 Q-10.986 -59.1858 -11.5328 -58.7326 Q-12.0797 -58.2795 -13.0797 -58.2795 Q-13.486 -58.2795 -13.7985 -58.3342 Q-14.111 -58.3889 -14.3922 -58.5295 L-14.3922 -59.1858 Q-13.7672 -58.8576 -13.0641 -58.8576 Q-12.4391 -58.8576 -12.0641 -59.1545 Q-11.6891 -59.4514 -11.6891 -59.967 Q-11.6891 -60.2795 -11.8922 -60.5061 Q-12.0953 -60.7326 -12.6578 -61.0608 Q-13.2516 -61.3889 -13.4781 -61.717 Q-13.7047 -62.0451 -13.7047 -62.4983 Q-13.7047 -63.2326 -13.1891 -63.6936 Q-12.6735 -64.1545 -11.8297 -64.1545 Q-11.4547 -64.1545 -11.1188 -64.0764 Q-10.7828 -63.9983 -10.4078 -63.8264 L-10.6735 -63.2326 Q-10.9235 -63.3889 -11.2438 -63.4748 Q-11.5641 -63.5608 -11.8297 -63.5608 Q-12.361 -63.5608 -12.6813 -63.2873 Q-13.0016 -63.0139 -13.0016 -62.5451 Q-13.0016 -62.342 -12.9313 -62.1936 Q-12.861 -62.0451 -12.7203 -61.9123 Q-12.5797 -61.7795 -12.1578 -61.5295 Q-11.5953 -61.1858 -11.3922 -60.9904 Q-11.1891 -60.7951 -11.0875 -60.5608 Q-10.986 -60.3264 -10.986 -60.0139 ZM-8.3915 -61.7326 Q-8.3915 -60.4045 -8.868 -59.2717 Q-9.3446 -58.1389 -10.3602 -57.092 L-10.9696 -57.092 Q-9.0321 -59.2483 -9.0321 -61.7326 Q-9.0321 -63.0608 -9.4696 -64.0764 L-8.954 -64.0764 Q-8.3915 -63.0139 -8.3915 -61.7326 Z"/><path style="fill:none; stroke:black;" d="M82 -51.963 L82.5 -51.963 L82.75 -52.396"/><path style="stroke:none;" d="M-36.6086 -59.4202 Q-36.6086 -60.7483 -36.1399 -61.8733 Q-35.6711 -62.9983 -34.6399 -64.0764 L-34.0305 -64.0764 Q-34.9993 -63.0139 -35.4836 -61.8421 Q-35.968 -60.6702 -35.968 -59.4358 Q-35.968 -58.1077 -35.5305 -57.0921 L-36.0461 -57.0921 Q-36.6086 -58.1233 -36.6086 -59.4202 ZM-30.9861 -60.0139 Q-30.9861 -59.1858 -31.5329 -58.7327 Q-32.0798 -58.2796 -33.0798 -58.2796 Q-33.4861 -58.2796 -33.7986 -58.3343 Q-34.1111 -58.3889 -34.3923 -58.5296 L-34.3923 -59.1858 Q-33.7673 -58.8577 -33.0642 -58.8577 Q-32.4392 -58.8577 -32.0642 -59.1546 Q-31.6892 -59.4514 -31.6892 -59.9671 Q-31.6892 -60.2796 -31.8923 -60.5061 Q-32.0954 -60.7327 -32.6579 -61.0608 Q-33.2517 -61.3889 -33.4783 -61.7171 Q-33.7048 -62.0452 -33.7048 -62.4983 Q-33.7048 -63.2327 -33.1892 -63.6936 Q-32.6736 -64.1546 -31.8298 -64.1546 Q-31.4548 -64.1546 -31.1189 -64.0764 Q-30.7829 -63.9983 -30.4079 -63.8264 L-30.6736 -63.2327 Q-30.9236 -63.3889 -31.2439 -63.4749 Q-31.5642 -63.5608 -31.8298 -63.5608 Q-32.3611 -63.5608 -32.6814 -63.2874 Q-33.0017 -63.0139 -33.0017 -62.5452 Q-33.0017 -62.3421 -32.9314 -62.1936 Q-32.8611 -62.0452 -32.7204 -61.9124 Q-32.5798 -61.7796 -32.1579 -61.5296 Q-31.5954 -61.1858 -31.3923 -60.9905 Q-31.1892 -60.7952 -31.0876 -60.5608 Q-30.9861 -60.3264 -30.9861 -60.0139 ZM-28.3916 -61.7327 Q-28.3916 -60.4046 -28.8681 -59.2718 Q-29.3447 -58.1389 -30.3603 -57.0921 L-30.9697 -57.0921 Q-29.0322 -59.2483 -29.0322 -61.7327 Q-29.0322 -63.0608 -29.4697 -64.0764 L-28.9541 -64.0764 Q-28.3916 -63.0139 -28.3916 -61.7327 Z"/></g><g transform="translate(160,159)" style="stroke-linecap:butt; fill:rgb(230,0,0); text-rendering:geometricPrecision; color-rendering:optimizeQuality; image-rendering:optimizeQuality; font-family:'Open Sans'; stroke:rgb(230,0,0); color-interpolation:linearRGB; stroke-miterlimit:5;"><path style="stroke:none;" d="M11.4375 -78.0133 Q11.4375 -75.9508 10.3984 -74.7711 Q9.3594 -73.5914 7.5156 -73.5914 Q5.625 -73.5914 4.5938 -74.7555 Q3.5625 -75.9196 3.5625 -78.0289 Q3.5625 -80.1227 4.5938 -81.2711 Q5.625 -82.4196 7.5156 -82.4196 Q9.375 -82.4196 10.4062 -81.2477 Q11.4375 -80.0758 11.4375 -78.0133 ZM4.6094 -78.0133 Q4.6094 -76.2789 5.3516 -75.3727 Q6.0938 -74.4664 7.5156 -74.4664 Q8.9375 -74.4664 9.6641 -75.3649 Q10.3906 -76.2633 10.3906 -78.0133 Q10.3906 -79.7477 9.6641 -80.6383 Q8.9375 -81.5289 7.5156 -81.5289 Q6.0938 -81.5289 5.3516 -80.6305 Q4.6094 -79.7321 4.6094 -78.0133 Z"/><path style="stroke:none;" d="M18.9531 -73.7164 L17.9531 -73.7164 L17.9531 -77.7477 L13.4375 -77.7477 L13.4375 -73.7164 L12.4375 -73.7164 L12.4375 -82.2789 L13.4375 -82.2789 L13.4375 -78.6383 L17.9531 -78.6383 L17.9531 -82.2789 L18.9531 -82.2789 L18.9531 -73.7164 Z"/><path style="stroke:none;" d="M101.4375 -78.0133 Q101.4375 -75.9508 100.3984 -74.7711 Q99.3594 -73.5914 97.5156 -73.5914 Q95.625 -73.5914 94.5938 -74.7555 Q93.5625 -75.9196 93.5625 -78.0289 Q93.5625 -80.1227 94.5938 -81.2711 Q95.625 -82.4196 97.5156 -82.4196 Q99.375 -82.4196 100.4062 -81.2477 Q101.4375 -80.0758 101.4375 -78.0133 ZM94.6094 -78.0133 Q94.6094 -76.2789 95.3516 -75.3727 Q96.0938 -74.4664 97.5156 -74.4664 Q98.9375 -74.4664 99.6641 -75.3649 Q100.3906 -76.2633 100.3906 -78.0133 Q100.3906 -79.7477 99.6641 -80.6383 Q98.9375 -81.5289 97.5156 -81.5289 Q96.0938 -81.5289 95.3516 -80.6305 Q94.6094 -79.7321 94.6094 -78.0133 Z"/><path style="stroke:none;" d="M101.4375 -26.0503 Q101.4375 -23.9878 100.3984 -22.8081 Q99.3594 -21.6284 97.5156 -21.6284 Q95.625 -21.6284 94.5938 -22.7925 Q93.5625 -23.9566 93.5625 -26.0659 Q93.5625 -28.1597 94.5938 -29.3081 Q95.625 -30.4566 97.5156 -30.4566 Q99.375 -30.4566 100.4062 -29.2847 Q101.4375 -28.1128 101.4375 -26.0503 ZM94.6094 -26.0503 Q94.6094 -24.3159 95.3516 -23.4097 Q96.0938 -22.5034 97.5156 -22.5034 Q98.9375 -22.5034 99.6641 -23.4019 Q100.3906 -24.3003 100.3906 -26.0503 Q100.3906 -27.7847 99.6641 -28.6753 Q98.9375 -29.5659 97.5156 -29.5659 Q96.0938 -29.5659 95.3516 -28.6675 Q94.6094 -27.7691 94.6094 -26.0503 Z"/><path style="fill:rgb(0,5,255); stroke:none;" d="M-49.1484 -21.8237 L-50.2891 -21.8237 L-54.9766 -29.0112 L-55.0234 -29.0112 Q-54.9297 -27.7456 -54.9297 -26.6987 L-54.9297 -21.8237 L-55.8516 -21.8237 L-55.8516 -30.3862 L-54.7266 -30.3862 L-50.0547 -23.23 L-50.0078 -23.23 Q-50.0078 -23.3862 -50.0547 -24.2456 Q-50.1016 -25.105 -50.0859 -25.48 L-50.0859 -30.3862 L-49.1484 -30.3862 L-49.1484 -21.8237 Z"/><path style="fill:rgb(0,5,255); stroke:none;" d="M-49.2422 -12.2612 L-50.2422 -12.2612 L-50.2422 -16.2925 L-54.7578 -16.2925 L-54.7578 -12.2612 L-55.7578 -12.2612 L-55.7578 -20.8237 L-54.7578 -20.8237 L-54.7578 -17.1831 L-50.2422 -17.1831 L-50.2422 -20.8237 L-49.2422 -20.8237 L-49.2422 -12.2612 Z"/><path style="fill:none; stroke:black;" d="M-82 -25.98 L-82.5 -25.98 L-82.75 -25.547"/><path style="stroke:none;" d="M-93.5625 -0.0703 Q-93.5625 1.9922 -94.6016 3.1719 Q-95.6406 4.3516 -97.4844 4.3516 Q-99.375 4.3516 -100.4062 3.1875 Q-101.4375 2.0234 -101.4375 -0.0859 Q-101.4375 -2.1797 -100.4062 -3.3281 Q-99.375 -4.4766 -97.4844 -4.4766 Q-95.625 -4.4766 -94.5938 -3.3047 Q-93.5625 -2.1328 -93.5625 -0.0703 ZM-100.3906 -0.0703 Q-100.3906 1.6641 -99.6484 2.5703 Q-98.9062 3.4766 -97.4844 3.4766 Q-96.0625 3.4766 -95.3359 2.5781 Q-94.6094 1.6797 -94.6094 -0.0703 Q-94.6094 -1.8047 -95.3359 -2.6953 Q-96.0625 -3.5859 -97.4844 -3.5859 Q-98.9062 -3.5859 -99.6484 -2.6875 Q-100.3906 -1.7891 -100.3906 -0.0703 Z"/><path style="stroke:none;" d="M-93.5625 -52.0333 Q-93.5625 -49.9708 -94.6016 -48.7911 Q-95.6406 -47.6114 -97.4844 -47.6114 Q-99.375 -47.6114 -100.4062 -48.7755 Q-101.4375 -49.9396 -101.4375 -52.0489 Q-101.4375 -54.1427 -100.4062 -55.2911 Q-99.375 -56.4396 -97.4844 -56.4396 Q-95.625 -56.4396 -94.5938 -55.2677 Q-93.5625 -54.0958 -93.5625 -52.0333 ZM-100.3906 -52.0333 Q-100.3906 -50.2989 -99.6484 -49.3927 Q-98.9062 -48.4864 -97.4844 -48.4864 Q-96.0625 -48.4864 -95.3359 -49.3849 Q-94.6094 -50.2833 -94.6094 -52.0333 Q-94.6094 -53.7677 -95.3359 -54.6583 Q-96.0625 -55.5489 -97.4844 -55.5489 Q-98.9062 -55.5489 -99.6484 -54.6505 Q-100.3906 -53.7521 -100.3906 -52.0333 Z"/><path style="fill:none; stroke:black;" d="M8 77.943 L7.5 77.943 L7.25 77.51"/><path style="fill:none; stroke:black;" d="M37 77.943 L37.5 77.943 L37.75 77.51"/><path style="fill:none; stroke:black;" d="M-7.25 52.396 L-7.5 51.963 L-7.25 51.53"/><path style="fill:none; stroke:black;" d="M52.25 52.396 L52.5 51.963 L52.25 51.53"/><path style="fill:none; stroke:black;" d="M7.25 26.413 L7.5 25.98 L8 25.98"/><path style="fill:none; stroke:black;" d="M37.75 26.413 L37.5 25.98 L37.75 25.547"/><path style="fill:none; stroke:black;" d="M-8 103.923 L-7.5 103.923 L-7.25 103.49"/><path style="fill:none; stroke:black;" d="M-37 103.923 L-37.5 103.923 L-37.75 104.356"/><path style="fill:rgb(0,5,255); stroke:none;" d="M10.8516 134.0592 L9.7109 134.0592 L5.0234 126.8717 L4.9766 126.8717 Q5.0703 128.1374 5.0703 129.1842 L5.0703 134.0592 L4.1484 134.0592 L4.1484 125.4967 L5.2734 125.4967 L9.9453 132.653 L9.9922 132.653 Q9.9922 132.4967 9.9453 131.6374 Q9.8984 130.778 9.9141 130.403 L9.9141 125.4967 L10.8516 125.4967 L10.8516 134.0592 Z"/><path style="fill:none; stroke:black;" d="M-52.25 129.47 L-52.5 129.903 L-52.25 130.336"/><path style="fill:none; stroke:black;" d="M-7.25 155.453 L-7.5 155.886 L-8 155.886"/><path style="fill:none; stroke:black;" d="M-37.75 155.453 L-37.5 155.886 L-37 155.886"/><path style="fill:none; stroke:black;" d="M-37 -103.923 L-37.5 -103.923 L-37.75 -103.49"/><path style="fill:none; stroke:black;" d="M-8 -103.923 L-7.5 -103.923 L-7.25 -104.356"/><path style="fill:none; stroke:black;" d="M-52.25 -129.47 L-52.5 -129.903 L-52.25 -130.336"/><path style="fill:none; stroke:black;" d="M7.25 -129.47 L7.5 -129.903 L7.25 -130.336"/><path style="fill:none; stroke:black;" d="M-37.75 -155.453 L-37.5 -155.886 L-37 -155.886"/><path style="fill:none; stroke:black;" d="M-7.25 -155.453 L-7.5 -155.886 L-8 -155.886"/></g></g></svg></svg></svg></svg>