<svg width="111" viewBox="0 0 111 45" style="fill-opacity:1; color-rendering:auto; color-interpolation:auto; text-rendering:auto; stroke:black; stroke-linecap:square; stroke-miterlimit:10; shape-rendering:auto; stroke-opacity:1; fill:black; stroke-dasharray:none; font-weight:normal; stroke-width:1; font-family:'Open Sans'; font-style:normal; stroke-linejoin:miter; font-size:12; stroke-dashoffset:0; image-rendering:auto;" height="45" class="cas-substance-image" xmlns:xlink="http://www.w3.org/1999/xlink" xmlns="http://www.w3.org/2000/svg"><svg class="cas-substance-single-component"><rect y="0" x="0" width="111" stroke="none" ry="7" rx="7" height="45" fill="white" class="cas-substance-group"/><svg y="0" x="0" width="111" viewBox="0 0 111 30" style="fill:black;" height="30" class="cas-substance-single-component-image"><svg><g><g transform="translate(58,15)" style="text-rendering:geometricPrecision; color-rendering:optimizeQuality; color-interpolation:linearRGB; stroke-linecap:butt; image-rendering:optimizeQuality;"><line y2="-7.5" y1="7.5" x2="12.99" x1="-12.99" style="fill:none;"/><line y2="-4.5649" y1="7.5" x2="-33.8864" x1="-12.99" style="fill:none;"/><line y2="4.2586" y1="-7.5" x2="33.3559" x1="12.99" style="fill:none;"/><path style="fill:none; stroke-miterlimit:5;" d="M-12.557 7.25 L-12.99 7.5 L-13.423 7.25"/><path style="fill:none; stroke-miterlimit:5;" d="M12.557 -7.25 L12.99 -7.5 L13.423 -7.25"/></g><g transform="translate(58,15)" style="stroke-linecap:butt; fill:rgb(0,5,255); text-rendering:geometricPrecision; color-rendering:optimizeQuality; image-rendering:optimizeQuality; font-family:'Open Sans'; stroke:rgb(0,5,255); color-interpolation:linearRGB; stroke-miterlimit:5;"><path style="stroke:none;" d="M-35.6184 -3.3438 L-36.7591 -3.3438 L-41.4466 -10.5312 L-41.4934 -10.5312 Q-41.3997 -9.2656 -41.3997 -8.2188 L-41.3997 -3.3438 L-42.3216 -3.3438 L-42.3216 -11.9062 L-41.1966 -11.9062 L-36.5247 -4.75 L-36.4778 -4.75 Q-36.4778 -4.9062 -36.5247 -5.7656 Q-36.5716 -6.625 -36.5559 -7 L-36.5559 -11.9062 L-35.6184 -11.9062 L-35.6184 -3.3438 Z"/><path style="stroke:none;" d="M-48.0716 -3.3438 L-49.0716 -3.3438 L-49.0716 -7.375 L-53.5872 -7.375 L-53.5872 -3.3438 L-54.5872 -3.3438 L-54.5872 -11.9062 L-53.5872 -11.9062 L-53.5872 -8.2656 L-49.0716 -8.2656 L-49.0716 -11.9062 L-48.0716 -11.9062 L-48.0716 -3.3438 Z"/><path style="stroke:none;" d="M-43.3216 -1.5344 L-47.0716 -1.5344 L-47.0716 -2.0969 L-45.5716 -3.6125 Q-44.8841 -4.3 -44.6653 -4.5969 Q-44.4466 -4.8938 -44.3372 -5.175 Q-44.2278 -5.4563 -44.2278 -5.7844 Q-44.2278 -6.2375 -44.5013 -6.5031 Q-44.7747 -6.7688 -45.2747 -6.7688 Q-45.6184 -6.7688 -45.9388 -6.6516 Q-46.2591 -6.5344 -46.6497 -6.2375 L-46.9934 -6.675 Q-46.2122 -7.3313 -45.2747 -7.3313 Q-44.4778 -7.3313 -44.0169 -6.9172 Q-43.5559 -6.5031 -43.5559 -5.8156 Q-43.5559 -5.2688 -43.8606 -4.7375 Q-44.1653 -4.2063 -45.0091 -3.3937 L-46.2591 -2.175 L-46.2591 -2.1437 L-43.3216 -2.1437 L-43.3216 -1.5344 Z"/><path style="fill:rgb(230,0,0); stroke:none;" d="M42.9075 7.4297 Q42.9075 9.4922 41.8684 10.6719 Q40.8294 11.8516 38.9856 11.8516 Q37.095 11.8516 36.0638 10.6875 Q35.0325 9.5234 35.0325 7.4141 Q35.0325 5.3203 36.0638 4.1719 Q37.095 3.0234 38.9856 3.0234 Q40.845 3.0234 41.8763 4.1953 Q42.9075 5.3672 42.9075 7.4297 ZM36.0794 7.4297 Q36.0794 9.1641 36.8216 10.0703 Q37.5638 10.9766 38.9856 10.9766 Q40.4075 10.9766 41.1341 10.0781 Q41.8606 9.1797 41.8606 7.4297 Q41.8606 5.6953 41.1341 4.8047 Q40.4075 3.9141 38.9856 3.9141 Q37.5638 3.9141 36.8216 4.8125 Q36.0794 5.7109 36.0794 7.4297 Z"/><path style="fill:rgb(230,0,0); stroke:none;" d="M50.4231 11.7266 L49.4231 11.7266 L49.4231 7.6953 L44.9075 7.6953 L44.9075 11.7266 L43.9075 11.7266 L43.9075 3.1641 L44.9075 3.1641 L44.9075 6.8047 L49.4231 6.8047 L49.4231 3.1641 L50.4231 3.1641 L50.4231 11.7266 Z"/></g></g></svg></svg><svg y="30" x="47" class="cas-substance-saf"><svg y="5" x="0" width="4" style="fill:black;" height="4" class="cas-substance-saf-dot"><circle stroke="none" r="2" fill="black" cy="2" cx="2"/></svg><svg y="0" x="8" width="22" style="fill:black;" height="15" class="cas-substance-saf-image"><svg><g><g transform="translate(6,8)" style="fill:rgb(0,138,0); text-rendering:geometricPrecision; color-rendering:optimizeQuality; image-rendering:optimizeQuality; font-family:'Open Sans'; stroke:rgb(0,138,0); color-interpolation:linearRGB;"><path style="stroke:none;" d="M3.2578 4.1562 L2.2578 4.1562 L2.2578 0.125 L-2.2578 0.125 L-2.2578 4.1562 L-3.2578 4.1562 L-3.2578 -4.4062 L-2.2578 -4.4062 L-2.2578 -0.7656 L2.2578 -0.7656 L2.2578 -4.4062 L3.2578 -4.4062 L3.2578 4.1562 Z"/><path style="stroke:none;" d="M8.3672 -3.6406 Q6.9609 -3.6406 6.1406 -2.7031 Q5.3203 -1.7656 5.3203 -0.125 Q5.3203 1.5469 6.1094 2.4688 Q6.8984 3.3906 8.3516 3.3906 Q9.2578 3.3906 10.3984 3.0625 L10.3984 3.9375 Q9.5078 4.2812 8.2109 4.2812 Q6.3203 4.2812 5.2891 3.125 Q4.2578 1.9688 4.2578 -0.1406 Q4.2578 -1.4688 4.75 -2.4609 Q5.2422 -3.4531 6.1797 -3.9922 Q7.1172 -4.5312 8.3828 -4.5312 Q9.7266 -4.5312 10.7422 -4.0469 L10.3203 -3.1875 Q9.3359 -3.6406 8.3672 -3.6406 ZM13.0938 4.1562 L12.125 4.1562 L12.125 -4.9688 L13.0938 -4.9688 L13.0938 4.1562 Z"/></g></g></svg></svg></svg></svg></svg>