<svg width="254" viewBox="0 0 254 101" style="fill-opacity:1; color-rendering:auto; color-interpolation:auto; text-rendering:auto; stroke:black; stroke-linecap:square; stroke-miterlimit:10; shape-rendering:auto; stroke-opacity:1; fill:black; stroke-dasharray:none; font-weight:normal; stroke-width:1; font-family:'Open Sans'; font-style:normal; stroke-linejoin:miter; font-size:12; stroke-dashoffset:0; image-rendering:auto;" height="101" class="cas-substance-image" xmlns:xlink="http://www.w3.org/1999/xlink" xmlns="http://www.w3.org/2000/svg"><svg class="cas-substance-single-component"><rect y="0" x="0" width="254" stroke="none" ry="7" rx="7" height="101" fill="white" class="cas-substance-group"/><svg y="0" x="0" width="254" viewBox="0 0 254 101" style="fill:black;" height="101" class="cas-substance-single-component-image"><svg><g><g transform="translate(122,52)" style="text-rendering:geometricPrecision; color-rendering:optimizeQuality; color-interpolation:linearRGB; stroke-linecap:butt; image-rendering:optimizeQuality;"><line y2="-2.9351" y1="-15" x2="33.8864" x1="12.99" style="fill:none;"/><line y2="-38.6484" y1="-13.9896" x2="14.74" x1="14.74" style="fill:none;"/><line y2="-38.6484" y1="-13.9896" x2="11.24" x1="11.24" style="fill:none;"/><line y2="0" y1="-15" x2="-12.99" x1="12.99" style="fill:none;"/><line y2="-15" y1="-2.9348" x2="64.953" x1="44.0536" style="fill:none;"/><line y2="0" y1="-15" x2="90.933" x1="64.953" style="fill:none;"/><line y2="-11.8112" y1="0" x2="111.39" x1="90.933" style="fill:none;"/><line y2="23.5234" y1="-1.0104" x2="89.183" x1="89.183" style="fill:none;"/><line y2="23.5234" y1="-1.0104" x2="92.683" x1="92.683" style="fill:none;"/><line y2="-35.1074" y1="-15" x2="-79.3236" x1="-90.933" style="fill:none;"/><line y2="-28.0225" y1="-15" x2="-113.4879" x1="-90.933" style="fill:none;"/><line y2="5.1074" y1="-15" x2="-102.5424" x1="-90.933" style="fill:none;"/><line y2="0" y1="-15" x2="-64.953" x1="-90.933" style="fill:none;"/><line y2="-15" y1="0" x2="-38.97" x1="-12.99" style="fill:none;"/><line y2="-10.9585" y1="2.0207" x2="-38.9701" x1="-16.49" style="fill:none;"/><line y2="30" y1="0" x2="-12.99" x1="-12.99" style="fill:none;"/><line y2="0" y1="-15" x2="-64.953" x1="-38.97" style="fill:none;"/><line y2="45" y1="30" x2="-38.97" x1="-12.99" style="fill:none;"/><line y2="40.9585" y1="27.9793" x2="-38.9701" x1="-16.49" style="fill:none;"/><line y2="30" y1="0" x2="-64.953" x1="-64.953" style="fill:none;"/><line y2="27.9793" y1="2.0207" x2="-61.453" x1="-61.453" style="fill:none;"/><line y2="30" y1="45" x2="-64.953" x1="-38.97" style="fill:none;"/><path style="fill:none; stroke-miterlimit:5;" d="M13.423 -14.75 L12.99 -15 L12.557 -14.75"/></g><g transform="translate(122,52)" style="stroke-linecap:butt; fill:rgb(0,5,255); text-rendering:geometricPrecision; color-rendering:optimizeQuality; image-rendering:optimizeQuality; font-family:'Open Sans'; stroke:rgb(0,5,255); color-interpolation:linearRGB; stroke-miterlimit:5;"><path style="stroke:none;" d="M42.3216 4.1562 L41.1809 4.1562 L36.4934 -3.0312 L36.4466 -3.0312 Q36.5403 -1.7656 36.5403 -0.7188 L36.5403 4.1562 L35.6184 4.1562 L35.6184 -4.4062 L36.7434 -4.4062 L41.4153 2.75 L41.4622 2.75 Q41.4622 2.5938 41.4153 1.7344 Q41.3684 0.875 41.3841 0.5 L41.3841 -4.4062 L42.3216 -4.4062 L42.3216 4.1562 Z"/><path style="stroke:none;" d="M42.2278 13.7188 L41.2278 13.7188 L41.2278 9.6875 L36.7122 9.6875 L36.7122 13.7188 L35.7122 13.7188 L35.7122 5.1562 L36.7122 5.1562 L36.7122 8.7969 L41.2278 8.7969 L41.2278 5.1562 L42.2278 5.1562 L42.2278 13.7188 Z"/><path style="fill:rgb(230,0,0); stroke:none;" d="M16.9275 -45.0703 Q16.9275 -43.0078 15.8884 -41.8281 Q14.8494 -40.6484 13.0056 -40.6484 Q11.115 -40.6484 10.0837 -41.8125 Q9.0525 -42.9766 9.0525 -45.0859 Q9.0525 -47.1797 10.0837 -48.3281 Q11.115 -49.4766 13.0056 -49.4766 Q14.865 -49.4766 15.8962 -48.3047 Q16.9275 -47.1328 16.9275 -45.0703 ZM10.0994 -45.0703 Q10.0994 -43.3359 10.8416 -42.4297 Q11.5837 -41.5234 13.0056 -41.5234 Q14.4275 -41.5234 15.1541 -42.4219 Q15.8806 -43.3203 15.8806 -45.0703 Q15.8806 -46.8047 15.1541 -47.6953 Q14.4275 -48.5859 13.0056 -48.5859 Q11.5837 -48.5859 10.8416 -47.6875 Q10.0994 -46.7891 10.0994 -45.0703 Z"/><path style="fill:none; stroke:black;" d="M64.52 -14.75 L64.953 -15 L65.386 -14.75"/><path style="fill:none; stroke:black;" d="M90.5 -0.25 L90.933 0 L91.366 -0.25"/><path style="fill:rgb(230,0,0); stroke:none;" d="M120.8505 -15.0703 Q120.8505 -13.0078 119.8114 -11.8281 Q118.7724 -10.6484 116.9286 -10.6484 Q115.038 -10.6484 114.0068 -11.8125 Q112.9755 -12.9766 112.9755 -15.0859 Q112.9755 -17.1797 114.0068 -18.3281 Q115.038 -19.4766 116.9286 -19.4766 Q118.788 -19.4766 119.8193 -18.3047 Q120.8505 -17.1328 120.8505 -15.0703 ZM114.0224 -15.0703 Q114.0224 -13.3359 114.7646 -12.4297 Q115.5068 -11.5234 116.9286 -11.5234 Q118.3505 -11.5234 119.0771 -12.4219 Q119.8036 -13.3203 119.8036 -15.0703 Q119.8036 -16.8047 119.0771 -17.6953 Q118.3505 -18.5859 116.9286 -18.5859 Q115.5068 -18.5859 114.7646 -17.6875 Q114.0224 -16.7891 114.0224 -15.0703 Z"/><path style="fill:rgb(230,0,0); stroke:none;" d="M128.3661 -10.7734 L127.3661 -10.7734 L127.3661 -14.8047 L122.8505 -14.8047 L122.8505 -10.7734 L121.8505 -10.7734 L121.8505 -19.3359 L122.8505 -19.3359 L122.8505 -15.6953 L127.3661 -15.6953 L127.3661 -19.3359 L128.3661 -19.3359 L128.3661 -10.7734 Z"/><path style="fill:rgb(230,0,0); stroke:none;" d="M94.8705 29.9297 Q94.8705 31.9922 93.8314 33.1719 Q92.7924 34.3516 90.9486 34.3516 Q89.058 34.3516 88.0267 33.1875 Q86.9955 32.0234 86.9955 29.9141 Q86.9955 27.8203 88.0267 26.6719 Q89.058 25.5234 90.9486 25.5234 Q92.808 25.5234 93.8392 26.6953 Q94.8705 27.8672 94.8705 29.9297 ZM88.0424 29.9297 Q88.0424 31.6641 88.7846 32.5703 Q89.5267 33.4766 90.9486 33.4766 Q92.3705 33.4766 93.0971 32.5781 Q93.8236 31.6797 93.8236 29.9297 Q93.8236 28.1953 93.0971 27.3047 Q92.3705 26.4141 90.9486 26.4141 Q89.5267 26.4141 88.7846 27.3125 Q88.0424 28.2109 88.0424 29.9297 Z"/><path style="fill:rgb(0,138,0); stroke:none;" d="M-77.3236 -36.8238 L-78.3236 -36.8238 L-78.3236 -45.3863 L-73.5424 -45.3863 L-73.5424 -44.5113 L-77.3236 -44.5113 L-77.3236 -41.3706 L-73.7767 -41.3706 L-73.7767 -40.48 L-77.3236 -40.48 L-77.3236 -36.8238 Z"/><path style="fill:rgb(0,138,0); stroke:none;" d="M-118.3036 -25.8438 L-119.3036 -25.8438 L-119.3036 -34.4062 L-114.5224 -34.4062 L-114.5224 -33.5312 L-118.3036 -33.5312 L-118.3036 -30.3906 L-114.7568 -30.3906 L-114.7568 -29.5 L-118.3036 -29.5 L-118.3036 -25.8438 Z"/><path style="fill:rgb(0,138,0); stroke:none;" d="M-107.3236 15.1362 L-108.3236 15.1362 L-108.3236 6.5737 L-103.5424 6.5737 L-103.5424 7.4487 L-107.3236 7.4487 L-107.3236 10.5894 L-103.7767 10.5894 L-103.7767 11.48 L-107.3236 11.48 L-107.3236 15.1362 Z"/><path style="fill:none; stroke:black;" d="M-13.423 -0.25 L-12.99 0 L-12.557 -0.25"/><path style="fill:none; stroke:black;" d="M-38.537 -14.75 L-38.97 -15 L-39.403 -14.75"/><path style="fill:none; stroke:black;" d="M-12.99 29.5 L-12.99 30 L-13.423 30.25"/><path style="fill:none; stroke:black;" d="M-64.953 0.5 L-64.953 0 L-65.386 -0.25"/><path style="fill:none; stroke:black;" d="M-38.537 44.75 L-38.97 45 L-39.403 44.75"/><path style="fill:none; stroke:black;" d="M-64.953 29.5 L-64.953 30 L-64.52 30.25"/></g></g></svg></svg></svg></svg>