<svg width="486" viewBox="0 0 486 219" style="fill-opacity:1; color-rendering:auto; color-interpolation:auto; text-rendering:auto; stroke:black; stroke-linecap:square; stroke-miterlimit:10; shape-rendering:auto; stroke-opacity:1; fill:black; stroke-dasharray:none; font-weight:normal; stroke-width:1; font-family:'Open Sans'; font-style:normal; stroke-linejoin:miter; font-size:12; stroke-dashoffset:0; image-rendering:auto;" height="219" class="cas-substance-image" xmlns:xlink="http://www.w3.org/1999/xlink" xmlns="http://www.w3.org/2000/svg"><svg class="cas-substance-single-component"><rect y="0" x="0" width="486" stroke="none" ry="7" rx="7" height="219" fill="white" class="cas-substance-group"/><svg y="0" x="0" width="486" viewBox="0 0 486 219" style="fill:black;" height="219" class="cas-substance-single-component-image"><svg><g><g transform="translate(243,107)" style="text-rendering:geometricPrecision; color-rendering:optimizeQuality; color-interpolation:linearRGB; stroke-linecap:butt; image-rendering:optimizeQuality;"><line y2="0" y1="0" x2="-54.0625" x1="-30" style="fill:none;"/><line y2="-19.457" y1="1.75" x2="-16.7454" x1="-28.9896" style="fill:none;"/><line y2="-21.2071" y1="-0" x2="-19.7765" x1="-32.0207" style="fill:none;"/><line y2="25.98" y1="0" x2="-15" x1="-30" style="fill:none;"/><line y2="-25.98" y1="-5.7276" x2="-75" x1="-63.3069" style="fill:none;"/><line y2="-25.98" y1="-25.98" x2="-105" x1="-75" style="fill:none;"/><line y2="-51.963" y1="-25.98" x2="-120" x1="-105" style="fill:none;"/><line y2="-51.963" y1="-51.963" x2="-150" x1="-120" style="fill:none;"/><line y2="-77.943" y1="-51.963" x2="-165" x1="-150" style="fill:none;"/><line y2="-77.943" y1="-77.943" x2="-195" x1="-165" style="fill:none;"/><line y2="-103.923" y1="-77.943" x2="-210" x1="-195" style="fill:none;"/><line y2="-103.923" y1="-103.923" x2="-240" x1="-210" style="fill:none;"/><line y2="0" y1="0" x2="54.0625" x1="30" style="fill:none;"/><line y2="-21.2193" y1="-0" x2="19.7694" x1="32.0207" style="fill:none;"/><line y2="-19.4693" y1="1.75" x2="16.7383" x1="28.9896" style="fill:none;"/><line y2="25.98" y1="0" x2="15" x1="30" style="fill:none;"/><line y2="-25.98" y1="-5.7217" x2="75" x1="63.3035" style="fill:none;"/><line y2="-25.98" y1="-25.98" x2="105" x1="75" style="fill:none;"/><line y2="-51.963" y1="-25.98" x2="120" x1="105" style="fill:none;"/><line y2="-51.963" y1="-51.963" x2="150" x1="120" style="fill:none;"/><line y2="-77.943" y1="-51.963" x2="165" x1="150" style="fill:none;"/><line y2="-77.943" y1="-77.943" x2="195" x1="165" style="fill:none;"/><line y2="-103.923" y1="-77.943" x2="210" x1="195" style="fill:none;"/><line y2="-103.923" y1="-103.923" x2="240" x1="210" style="fill:none;"/><line y2="25.98" y1="25.98" x2="15" x1="-15" style="fill:none;"/><line y2="29.48" y1="29.48" x2="12.9793" x1="-12.9793" style="fill:none;"/><line y2="51.963" y1="25.98" x2="-30" x1="-15" style="fill:none;"/><line y2="51.963" y1="25.98" x2="30" x1="15" style="fill:none;"/><line y2="77.943" y1="51.963" x2="-15" x1="-30" style="fill:none;"/><line y2="74.443" y1="51.963" x2="-12.9793" x1="-25.9585" style="fill:none;"/><line y2="77.943" y1="51.963" x2="15" x1="30" style="fill:none;"/><line y2="74.443" y1="51.963" x2="12.9793" x1="25.9585" style="fill:none;"/><line y2="77.943" y1="77.943" x2="15" x1="-15" style="fill:none;"/><line y2="51.963" y1="51.963" x2="-54.5781" x1="-30" style="fill:none;"/><line y2="51.963" y1="51.963" x2="54.5781" x1="30" style="fill:none;"/><line y2="98.631" y1="77.943" x2="-26.9446" x1="-15" style="fill:none;"/><line y2="97.7847" y1="77.943" x2="26.456" x1="15" style="fill:none;"/><path style="fill:none; stroke-miterlimit:5;" d="M-30.5 -0 L-30 0 L-29.75 0.433"/></g><g transform="translate(243,107)" style="stroke-linecap:butt; fill:rgb(230,0,0); text-rendering:geometricPrecision; color-rendering:optimizeQuality; image-rendering:optimizeQuality; font-family:'Open Sans'; stroke:rgb(230,0,0); color-interpolation:linearRGB; stroke-miterlimit:5;"><path style="stroke:none;" d="M-56.0625 -0.0703 Q-56.0625 1.9922 -57.1016 3.1719 Q-58.1406 4.3516 -59.9844 4.3516 Q-61.875 4.3516 -62.9062 3.1875 Q-63.9375 2.0234 -63.9375 -0.0859 Q-63.9375 -2.1797 -62.9062 -3.3281 Q-61.875 -4.4766 -59.9844 -4.4766 Q-58.125 -4.4766 -57.0938 -3.3047 Q-56.0625 -2.1328 -56.0625 -0.0703 ZM-62.8906 -0.0703 Q-62.8906 1.6641 -62.1484 2.5703 Q-61.4062 3.4766 -59.9844 3.4766 Q-58.5625 3.4766 -57.8359 2.5781 Q-57.1094 1.6797 -57.1094 -0.0703 Q-57.1094 -1.8047 -57.8359 -2.6953 Q-58.5625 -3.5859 -59.9844 -3.5859 Q-61.4062 -3.5859 -62.1484 -2.6875 Q-62.8906 -1.7891 -62.8906 -0.0703 Z"/><path style="stroke:none;" d="M-11.0625 -26.0503 Q-11.0625 -23.9878 -12.1016 -22.8081 Q-13.1406 -21.6284 -14.9844 -21.6284 Q-16.875 -21.6284 -17.9062 -22.7925 Q-18.9375 -23.9566 -18.9375 -26.0659 Q-18.9375 -28.1597 -17.9062 -29.3081 Q-16.875 -30.4566 -14.9844 -30.4566 Q-13.125 -30.4566 -12.0938 -29.2847 Q-11.0625 -28.1128 -11.0625 -26.0503 ZM-17.8906 -26.0503 Q-17.8906 -24.3159 -17.1484 -23.4097 Q-16.4062 -22.5034 -14.9844 -22.5034 Q-13.5625 -22.5034 -12.8359 -23.4019 Q-12.1094 -24.3003 -12.1094 -26.0503 Q-12.1094 -27.7847 -12.8359 -28.6753 Q-13.5625 -29.5659 -14.9844 -29.5659 Q-16.4062 -29.5659 -17.1484 -28.6675 Q-17.8906 -27.7691 -17.8906 -26.0503 Z"/><path style="fill:none; stroke:black;" d="M-74.75 -25.547 L-75 -25.98 L-75.5 -25.98"/><path style="fill:none; stroke:black;" d="M-104.5 -25.98 L-105 -25.98 L-105.25 -26.413"/><path style="fill:none; stroke:black;" d="M-119.75 -51.53 L-120 -51.963 L-120.5 -51.963"/><path style="fill:none; stroke:black;" d="M-149.5 -51.963 L-150 -51.963 L-150.25 -52.396"/><path style="fill:none; stroke:black;" d="M-164.75 -77.51 L-165 -77.943 L-165.5 -77.943"/><path style="fill:none; stroke:black;" d="M-194.5 -77.943 L-195 -77.943 L-195.25 -78.376"/><path style="fill:none; stroke:black;" d="M-209.75 -103.49 L-210 -103.923 L-210.5 -103.923"/><path style="fill:none; stroke:black;" d="M30.5 0 L30 0 L29.75 0.433"/><path style="stroke:none;" d="M63.9375 -0.0703 Q63.9375 1.9922 62.8984 3.1719 Q61.8594 4.3516 60.0156 4.3516 Q58.125 4.3516 57.0938 3.1875 Q56.0625 2.0234 56.0625 -0.0859 Q56.0625 -2.1797 57.0938 -3.3281 Q58.125 -4.4766 60.0156 -4.4766 Q61.875 -4.4766 62.9062 -3.3047 Q63.9375 -2.1328 63.9375 -0.0703 ZM57.1094 -0.0703 Q57.1094 1.6641 57.8516 2.5703 Q58.5938 3.4766 60.0156 3.4766 Q61.4375 3.4766 62.1641 2.5781 Q62.8906 1.6797 62.8906 -0.0703 Q62.8906 -1.8047 62.1641 -2.6953 Q61.4375 -3.5859 60.0156 -3.5859 Q58.5938 -3.5859 57.8516 -2.6875 Q57.1094 -1.7891 57.1094 -0.0703 Z"/><path style="stroke:none;" d="M18.9375 -26.0503 Q18.9375 -23.9878 17.8984 -22.8081 Q16.8594 -21.6284 15.0156 -21.6284 Q13.125 -21.6284 12.0938 -22.7925 Q11.0625 -23.9566 11.0625 -26.0659 Q11.0625 -28.1597 12.0938 -29.3081 Q13.125 -30.4566 15.0156 -30.4566 Q16.875 -30.4566 17.9062 -29.2847 Q18.9375 -28.1128 18.9375 -26.0503 ZM12.1094 -26.0503 Q12.1094 -24.3159 12.8516 -23.4097 Q13.5938 -22.5034 15.0156 -22.5034 Q16.4375 -22.5034 17.1641 -23.4019 Q17.8906 -24.3003 17.8906 -26.0503 Q17.8906 -27.7847 17.1641 -28.6753 Q16.4375 -29.5659 15.0156 -29.5659 Q13.5938 -29.5659 12.8516 -28.6675 Q12.1094 -27.7691 12.1094 -26.0503 Z"/><path style="fill:none; stroke:black;" d="M74.75 -25.547 L75 -25.98 L75.5 -25.98"/><path style="fill:none; stroke:black;" d="M104.5 -25.98 L105 -25.98 L105.25 -26.413"/><path style="fill:none; stroke:black;" d="M119.75 -51.53 L120 -51.963 L120.5 -51.963"/><path style="fill:none; stroke:black;" d="M149.5 -51.963 L150 -51.963 L150.25 -52.396"/><path style="fill:none; stroke:black;" d="M164.75 -77.51 L165 -77.943 L165.5 -77.943"/><path style="fill:none; stroke:black;" d="M194.5 -77.943 L195 -77.943 L195.25 -78.376"/><path style="fill:none; stroke:black;" d="M209.75 -103.49 L210 -103.923 L210.5 -103.923"/><path style="fill:none; stroke:black;" d="M-14.5 25.98 L-15 25.98 L-15.25 25.547"/><path style="fill:none; stroke:black;" d="M14.5 25.98 L15 25.98 L15.25 25.547"/><path style="fill:none; stroke:black;" d="M-29.75 52.396 L-30 51.963 L-29.75 51.53"/><path style="fill:none; stroke:black;" d="M29.75 52.396 L30 51.963 L29.75 51.53"/><path style="fill:none; stroke:black;" d="M-15.25 77.51 L-15 77.943 L-14.5 77.943"/><path style="fill:none; stroke:black;" d="M15.25 77.51 L15 77.943 L14.5 77.943"/><path style="fill:black; stroke:none;" d="M-56.5781 51.7599 Q-56.5781 53.8693 -57.7266 54.9943 Q-58.875 56.1193 -61.0469 56.1193 L-63.4219 56.1193 L-63.4219 47.5568 L-60.7969 47.5568 Q-58.7969 47.5568 -57.6875 48.6583 Q-56.5781 49.7599 -56.5781 51.7599 ZM-57.625 51.7911 Q-57.625 50.1193 -58.4688 49.2677 Q-59.3125 48.4161 -60.9688 48.4161 L-62.4219 48.4161 L-62.4219 55.2599 L-61.2031 55.2599 Q-59.4219 55.2599 -58.5234 54.3849 Q-57.625 53.5099 -57.625 51.7911 Z"/><path style="fill:black; stroke:none;" d="M63.4219 51.7599 Q63.4219 53.8693 62.2734 54.9943 Q61.125 56.1193 58.9531 56.1193 L56.5781 56.1193 L56.5781 47.5568 L59.2031 47.5568 Q61.2031 47.5568 62.3125 48.6583 Q63.4219 49.7599 63.4219 51.7599 ZM62.375 51.7911 Q62.375 50.1193 61.5312 49.2677 Q60.6875 48.4161 59.0312 48.4161 L57.5781 48.4161 L57.5781 55.2599 L58.7969 55.2599 Q60.5781 55.2599 61.4766 54.3849 Q62.375 53.5099 62.375 51.7911 Z"/><path style="fill:black; stroke:none;" d="M-26.5781 103.7199 Q-26.5781 105.8292 -27.7266 106.9542 Q-28.875 108.0792 -31.0469 108.0792 L-33.4219 108.0792 L-33.4219 99.5167 L-30.7969 99.5167 Q-28.7969 99.5167 -27.6875 100.6183 Q-26.5781 101.7199 -26.5781 103.7199 ZM-27.625 103.7511 Q-27.625 102.0792 -28.4688 101.2277 Q-29.3125 100.3761 -30.9688 100.3761 L-32.4219 100.3761 L-32.4219 107.2199 L-31.2031 107.2199 Q-29.4219 107.2199 -28.5234 106.3449 Q-27.625 105.4699 -27.625 103.7511 Z"/><path style="fill:black; stroke:none;" d="M33.4219 103.7199 Q33.4219 105.8292 32.2734 106.9542 Q31.125 108.0792 28.9531 108.0792 L26.5781 108.0792 L26.5781 99.5167 L29.2031 99.5167 Q31.2031 99.5167 32.3125 100.6183 Q33.4219 101.7199 33.4219 103.7199 ZM32.375 103.7511 Q32.375 102.0792 31.5312 101.2277 Q30.6875 100.3761 29.0312 100.3761 L27.5781 100.3761 L27.5781 107.2199 L28.7969 107.2199 Q30.5781 107.2199 31.4766 106.3449 Q32.375 105.4699 32.375 103.7511 Z"/></g></g></svg></svg></svg></svg>