<svg width="100" viewBox="0 0 100 60" style="fill-opacity:1; color-rendering:auto; color-interpolation:auto; text-rendering:auto; stroke:black; stroke-linecap:square; stroke-miterlimit:10; shape-rendering:auto; stroke-opacity:1; fill:black; stroke-dasharray:none; font-weight:normal; stroke-width:1; font-family:'Open Sans'; font-style:normal; stroke-linejoin:miter; font-size:12; stroke-dashoffset:0; image-rendering:auto;" height="60" class="cas-substance-image" xmlns:xlink="http://www.w3.org/1999/xlink" xmlns="http://www.w3.org/2000/svg"><svg class="cas-substance-single-component"><rect y="0" x="0" width="100" stroke="none" ry="7" rx="7" height="60" fill="white" class="cas-substance-group"/><svg y="0" x="16" width="67" viewBox="0 0 67 60" style="fill:black;" height="60" class="cas-substance-single-component-image"><svg><g><g transform="translate(33,30)" style="text-rendering:geometricPrecision; color-rendering:optimizeQuality; color-interpolation:linearRGB; stroke-linecap:butt; image-rendering:optimizeQuality;"><line y2="-18.9492" y1="-11.8647" x2="-19.83" x1="-7.5596" style="fill:none;"/><line y2="-19.0514" y1="-11.1765" x2="20.0071" x1="6.3678" style="fill:none;"/><line y2="16.1138" y1="-1.1484" x2="0" x1="0" style="fill:none;"/><path style="stroke-linecap:square; stroke:none;" d="M0.9834 -7.5703 Q0.9834 -5.5078 -0.0557 -4.3281 Q-1.0947 -3.1484 -2.9385 -3.1484 Q-4.8291 -3.1484 -5.8604 -4.3125 Q-6.8916 -5.4766 -6.8916 -7.5859 Q-6.8916 -9.6797 -5.8604 -10.8281 Q-4.8291 -11.9766 -2.9385 -11.9766 Q-1.0791 -11.9766 -0.0479 -10.8047 Q0.9834 -9.6328 0.9834 -7.5703 ZM-5.8447 -7.5703 Q-5.8447 -5.8359 -5.1025 -4.9297 Q-4.3604 -4.0234 -2.9385 -4.0234 Q-1.5166 -4.0234 -0.79 -4.9219 Q-0.0635 -5.8203 -0.0635 -7.5703 Q-0.0635 -9.3047 -0.79 -10.1953 Q-1.5166 -11.0859 -2.9385 -11.0859 Q-4.3604 -11.0859 -5.1025 -10.1875 Q-5.8447 -9.2891 -5.8447 -7.5703 ZM6.8916 -5.0234 Q6.8916 -4.1328 6.2275 -3.6406 Q5.5635 -3.1484 4.3447 -3.1484 Q3.0791 -3.1484 2.3604 -3.5547 L2.3604 -4.4609 Q2.8291 -4.2266 3.3525 -4.0938 Q3.876 -3.9609 4.376 -3.9609 Q5.1416 -3.9609 5.5479 -4.2031 Q5.9541 -4.4453 5.9541 -4.9453 Q5.9541 -5.3203 5.6338 -5.5859 Q5.3135 -5.8516 4.3604 -6.2109 Q3.4697 -6.5547 3.0869 -6.8047 Q2.7041 -7.0547 2.5244 -7.3672 Q2.3447 -7.6797 2.3447 -8.1172 Q2.3447 -8.8984 2.9854 -9.3594 Q3.626 -9.8203 4.7354 -9.8203 Q5.7666 -9.8203 6.7666 -9.3984 L6.4072 -8.6016 Q5.4541 -8.9922 4.6572 -8.9922 Q3.9697 -8.9922 3.6182 -8.7812 Q3.2666 -8.5703 3.2666 -8.1797 Q3.2666 -7.9297 3.3994 -7.75 Q3.5322 -7.5703 3.8213 -7.4062 Q4.1104 -7.2422 4.9541 -6.9297 Q6.0947 -6.5078 6.4932 -6.0859 Q6.8916 -5.6641 6.8916 -5.0234 Z"/></g><g transform="translate(33,30)" style="fill:rgb(0,138,0); text-rendering:geometricPrecision; color-rendering:optimizeQuality; image-rendering:optimizeQuality; font-family:'Open Sans'; stroke:rgb(0,138,0); color-interpolation:linearRGB;"><path style="stroke:none;" d="M-26.2886 -25.8594 Q-27.6948 -25.8594 -28.5152 -24.9219 Q-29.3355 -23.9844 -29.3355 -22.3438 Q-29.3355 -20.6719 -28.5464 -19.75 Q-27.7573 -18.8281 -26.3042 -18.8281 Q-25.398 -18.8281 -24.2573 -19.1562 L-24.2573 -18.2812 Q-25.148 -17.9375 -26.4448 -17.9375 Q-28.3355 -17.9375 -29.3667 -19.0938 Q-30.398 -20.25 -30.398 -22.3594 Q-30.398 -23.6875 -29.9058 -24.6797 Q-29.4136 -25.6719 -28.4761 -26.2109 Q-27.5386 -26.75 -26.273 -26.75 Q-24.9292 -26.75 -23.9136 -26.2656 L-24.3355 -25.4062 Q-25.3198 -25.8594 -26.2886 -25.8594 ZM-21.562 -18.0625 L-22.5308 -18.0625 L-22.5308 -27.1875 L-21.562 -27.1875 L-21.562 -18.0625 Z"/><path style="stroke:none;" d="M25.6714 -25.8594 Q24.2652 -25.8594 23.4448 -24.9219 Q22.6245 -23.9844 22.6245 -22.3438 Q22.6245 -20.6719 23.4136 -19.75 Q24.2027 -18.8281 25.6558 -18.8281 Q26.562 -18.8281 27.7027 -19.1562 L27.7027 -18.2812 Q26.812 -17.9375 25.5152 -17.9375 Q23.6245 -17.9375 22.5933 -19.0938 Q21.562 -20.25 21.562 -22.3594 Q21.562 -23.6875 22.0542 -24.6797 Q22.5464 -25.6719 23.4839 -26.2109 Q24.4214 -26.75 25.687 -26.75 Q27.0308 -26.75 28.0464 -26.2656 L27.6245 -25.4062 Q26.6402 -25.8594 25.6714 -25.8594 ZM30.398 -18.0625 L29.4292 -18.0625 L29.4292 -27.1875 L30.398 -27.1875 L30.398 -18.0625 Z"/><path style="stroke:none;" d="M-0.3086 19.1406 Q-1.7148 19.1406 -2.5352 20.0781 Q-3.3555 21.0156 -3.3555 22.6562 Q-3.3555 24.3281 -2.5664 25.25 Q-1.7773 26.1719 -0.3242 26.1719 Q0.582 26.1719 1.7227 25.8438 L1.7227 26.7188 Q0.832 27.0625 -0.4648 27.0625 Q-2.3555 27.0625 -3.3867 25.9062 Q-4.418 24.75 -4.418 22.6406 Q-4.418 21.3125 -3.9258 20.3203 Q-3.4336 19.3281 -2.4961 18.7891 Q-1.5586 18.25 -0.293 18.25 Q1.0508 18.25 2.0664 18.7344 L1.6445 19.5938 Q0.6602 19.1406 -0.3086 19.1406 ZM4.418 26.9375 L3.4492 26.9375 L3.4492 17.8125 L4.418 17.8125 L4.418 26.9375 Z"/></g></g></svg></svg></svg></svg>