<svg xmlns:ns0="http://www.w3.org/2000/svg" xmlns="http://www.w3.org/2000/svg"><g transform="translate(0, 0)"><ns0:svg width="219" viewBox="0 0 219 172" style="fill-opacity:1; color-rendering:auto; color-interpolation:auto; text-rendering:auto; stroke:black; stroke-linecap:square; stroke-miterlimit:10; shape-rendering:auto; stroke-opacity:1; fill:black; stroke-dasharray:none; font-weight:normal; stroke-width:1; font-family:'Open Sans'; font-style:normal; stroke-linejoin:miter; font-size:12; stroke-dashoffset:0; image-rendering:auto;" height="172" class="cas-substance-image"><ns0:svg class="cas-substance-single-component"><ns0:rect y="0" x="0" width="219" stroke="none" ry="7" rx="7" height="172" fill="white" class="cas-substance-group" /><ns0:svg y="0" x="0" width="219" viewBox="0 0 219 172" style="fill:black;" height="172" class="cas-substance-single-component-image"><ns0:svg><ns0:g><ns0:g transform="translate(104,86)" style="text-rendering:geometricPrecision; color-rendering:optimizeQuality; color-interpolation:linearRGB; stroke-linecap:butt; image-rendering:optimizeQuality;"><ns0:line y2="-9.7" y1="0.9184" x2="-68.0454" x1="-90.0922" style="fill:none;" /><ns0:line y2="-12.8534" y1="-2.2349" x2="-69.564" x1="-91.611" style="fill:none;" /><ns0:line y2="49.464" y1="72.5242" x2="-21.21" x1="-15.947" style="fill:none;" /><ns0:line y2="-48.4312" y1="-71.9164" x2="42.5196" x1="34.8863" style="fill:none;" /><ns0:line y2="-49.5125" y1="-72.9983" x2="45.8484" x1="38.2149" style="fill:none;" /><ns0:line y2="-10.911" y1="3.1122" x2="72.321" x1="91.6214" style="fill:none;" /><ns0:line y2="-25.911" y1="1.119" x2="-3.843" x1="-16.86" style="fill:none;" /><ns0:line y2="7.794" y1="1.119" x2="-46.107" x1="-16.86" style="fill:none;" /><ns0:line y2="10.7566" y1="4.9809" x2="-43.3582" x1="-18.0513" style="fill:none;" /><ns0:line y2="26.871" y1="1.119" x2="-1.473" x1="-16.86" style="fill:none;" /><ns0:line y2="-52.938" y1="-25.911" x2="-16.86" x1="-3.843" style="fill:none;" /><ns0:line y2="-25.911" y1="-25.911" x2="26.157" x1="-3.843" style="fill:none;" /><ns0:line y2="-29.411" y1="-29.411" x2="24.1363" x1="-1.8223" style="fill:none;" /></ns0:g><ns0:g transform="translate(104,86)" style="stroke-linecap:butt; font-size:8.4px; fill:gray; text-rendering:geometricPrecision; image-rendering:optimizeQuality; color-rendering:optimizeQuality; font-family:'Open Sans'; font-style:italic; stroke:gray; color-interpolation:linearRGB;"><ns0:path style="stroke:none;" d="M6.9278 -14.7469 Q6.9278 -16.0751 7.3966 -17.2001 Q7.8653 -18.3251 8.8966 -19.4032 L9.506 -19.4032 Q8.5372 -18.3407 8.0528 -17.1688 Q7.5685 -15.9969 7.5685 -14.7626 Q7.5685 -13.4344 8.006 -12.4188 L7.4903 -12.4188 Q6.9278 -13.4501 6.9278 -14.7469 ZM12.441 -13.6844 L8.9254 -13.6844 L9.0348 -14.2157 L12.6442 -18.7938 L10.0817 -18.7938 L10.2067 -19.4032 L13.566 -19.4032 L13.4567 -18.8563 L9.8473 -14.2938 L12.5817 -14.2938 L12.441 -13.6844 ZM15.3862 -17.0594 Q15.3862 -15.7313 14.9096 -14.5985 Q14.433 -13.4657 13.4174 -12.4188 L12.808 -12.4188 Q14.7455 -14.5751 14.7455 -17.0594 Q14.7455 -18.3876 14.308 -19.4032 L14.8237 -19.4032 Q15.3862 -18.3407 15.3862 -17.0594 Z" /><ns0:line y2="31.2758" y1="7.794" x2="-48.2218" x1="-46.107" style="fill:none; stroke:black;" /><ns0:line y2="-10.911" y1="7.794" x2="-69.564" x1="-46.107" style="fill:none; stroke:black;" /><ns0:line y2="49.464" y1="26.871" x2="-21.21" x1="-1.473" style="fill:none; stroke:black;" /><ns0:line y2="45.6395" y1="26.0902" x2="-22.5164" x1="-5.4383" style="fill:none; stroke:black;" /><ns0:line y2="-59.616" y1="-52.938" x2="-46.107" x1="-16.86" style="fill:none; stroke:black;" /><ns0:line y2="49.464" y1="39.8923" x2="-21.21" x1="-43.6073" style="fill:none; stroke:black;" /><ns0:line y2="-34.7547" y1="-10.911" x2="-69.564" x1="-69.564" style="fill:none; stroke:black;" /><ns0:line y2="-44.8305" y1="-59.616" x2="-64.6487" x1="-46.107" style="fill:none; stroke:black;" /><ns0:line y2="-50.181" y1="-25.911" x2="43.791" x1="26.157" style="fill:none; stroke:black;" /><ns0:line y2="-7.6653" y1="-25.911" x2="39.4139" x1="26.157" style="fill:none; stroke:black;" /><ns0:line y2="-42.618" y1="-50.181" x2="67.0673" x1="43.791" style="fill:none; stroke:black;" /><ns0:line y2="-10.911" y1="-3.348" x2="72.321" x1="49.0447" style="fill:none; stroke:black;" /><ns0:line y2="-10.911" y1="-34.7547" x2="72.321" x1="72.321" style="fill:none; stroke:black;" /><ns0:line y2="-12.9317" y1="-34.7547" x2="68.821" x1="68.821" style="fill:none; stroke:black;" /></ns0:g><ns0:g transform="translate(104,86)" style="fill:rgb(230,0,0); text-rendering:geometricPrecision; color-rendering:optimizeQuality; image-rendering:optimizeQuality; font-family:'Open Sans'; stroke:rgb(230,0,0); color-interpolation:linearRGB;"><ns0:path style="stroke:none;" d="M-92.6535 2.0357 Q-92.6535 4.0982 -93.6926 5.2779 Q-94.7316 6.4576 -96.5754 6.4576 Q-98.466 6.4576 -99.4973 5.2935 Q-100.5285 4.1294 -100.5285 2.0201 Q-100.5285 -0.0737 -99.4973 -1.2221 Q-98.466 -2.3706 -96.5754 -2.3706 Q-94.716 -2.3706 -93.6848 -1.1987 Q-92.6535 -0.0268 -92.6535 2.0357 ZM-99.4816 2.0357 Q-99.4816 3.7701 -98.7394 4.6763 Q-97.9973 5.5826 -96.5754 5.5826 Q-95.1535 5.5826 -94.4269 4.6841 Q-93.7004 3.7857 -93.7004 2.0357 Q-93.7004 0.3013 -94.4269 -0.5893 Q-95.1535 -1.4799 -96.5754 -1.4799 Q-97.9973 -1.4799 -98.7394 -0.5815 Q-99.4816 0.3169 -99.4816 2.0357 Z" /><ns0:path style="fill:rgb(0,138,0); stroke:none;" d="M-20.2039 74.3047 L-17.7821 74.3047 Q-16.0789 74.3047 -15.3133 74.8126 Q-14.5477 75.3204 -14.5477 76.4141 Q-14.5477 77.1797 -14.9696 77.6797 Q-15.3914 78.1797 -16.2196 78.3204 L-16.2196 78.3829 Q-14.2664 78.711 -14.2664 80.4297 Q-14.2664 81.5704 -15.0399 82.2188 Q-15.8133 82.8672 -17.2039 82.8672 L-20.2039 82.8672 L-20.2039 74.3047 ZM-19.2039 77.961 L-17.5633 77.961 Q-16.5008 77.961 -16.0399 77.6329 Q-15.5789 77.3047 -15.5789 76.5235 Q-15.5789 75.8047 -16.0946 75.4844 Q-16.6102 75.1641 -17.7352 75.1641 L-19.2039 75.1641 L-19.2039 77.961 ZM-19.2039 78.8047 L-19.2039 82.0235 L-17.4071 82.0235 Q-16.3758 82.0235 -15.8524 81.6172 Q-15.3289 81.211 -15.3289 80.3516 Q-15.3289 79.5547 -15.868 79.1797 Q-16.4071 78.8047 -17.5008 78.8047 L-19.2039 78.8047 ZM-9.6317 76.3204 Q-9.2098 76.3204 -8.8661 76.3985 L-9.0067 77.3047 Q-9.3973 77.211 -9.7098 77.211 Q-10.4911 77.211 -11.0457 77.8438 Q-11.6004 78.4766 -11.6004 79.4141 L-11.6004 82.8672 L-12.5692 82.8672 L-12.5692 76.4454 L-11.7723 76.4454 L-11.6473 77.6329 L-11.6004 77.6329 Q-11.2567 77.0079 -10.7489 76.6641 Q-10.2411 76.3204 -9.6317 76.3204 Z" /><ns0:path style="stroke:none;" d="M38.4555 -78.7813 Q38.4555 -76.7188 37.4164 -75.5391 Q36.3774 -74.3594 34.5336 -74.3594 Q32.643 -74.3594 31.6117 -75.5235 Q30.5805 -76.6876 30.5805 -78.7969 Q30.5805 -80.8907 31.6117 -82.0391 Q32.643 -83.1876 34.5336 -83.1876 Q36.393 -83.1876 37.4242 -82.0157 Q38.4555 -80.8438 38.4555 -78.7813 ZM31.6274 -78.7813 Q31.6274 -77.0469 32.3696 -76.1407 Q33.1117 -75.2344 34.5336 -75.2344 Q35.9555 -75.2344 36.6821 -76.1329 Q37.4086 -77.0313 37.4086 -78.7813 Q37.4086 -80.5157 36.6821 -81.4063 Q35.9555 -82.2969 34.5336 -82.2969 Q33.1117 -82.2969 32.3696 -81.3985 Q31.6274 -80.5001 31.6274 -78.7813 Z" /><ns0:path style="fill:rgb(0,5,255); stroke:none;" d="M99.9426 10.8792 L98.8019 10.8792 L94.1144 3.6917 L94.0676 3.6917 Q94.1613 4.9574 94.1613 6.0042 L94.1613 10.8792 L93.2394 10.8792 L93.2394 2.3167 L94.3644 2.3167 L99.0363 9.473 L99.0832 9.473 Q99.0832 9.3167 99.0363 8.4574 Q98.9894 7.598 99.0051 7.223 L99.0051 2.3167 L99.9426 2.3167 L99.9426 10.8792 Z" /><ns0:path style="fill:rgb(0,5,255); stroke:none;" d="M107.4582 10.8792 L106.4582 10.8792 L106.4582 6.848 L101.9426 6.848 L101.9426 10.8792 L100.9426 10.8792 L100.9426 2.3167 L101.9426 2.3167 L101.9426 5.9574 L106.4582 5.9574 L106.4582 2.3167 L107.4582 2.3167 L107.4582 10.8792 Z" /><ns0:path style="fill:rgb(0,5,255); stroke:none;" d="M112.2082 12.6886 L108.4582 12.6886 L108.4582 12.1261 L109.9582 10.6105 Q110.6457 9.923 110.8644 9.6261 Q111.0832 9.3292 111.1926 9.048 Q111.3019 8.7667 111.3019 8.4386 Q111.3019 7.9855 111.0285 7.7199 Q110.7551 7.4542 110.2551 7.4542 Q109.9113 7.4542 109.591 7.5714 Q109.2707 7.6886 108.8801 7.9855 L108.5363 7.548 Q109.3176 6.8917 110.2551 6.8917 Q111.0519 6.8917 111.5129 7.3058 Q111.9738 7.7199 111.9738 8.4074 Q111.9738 8.9542 111.6691 9.4855 Q111.3644 10.0167 110.5207 10.8292 L109.2707 12.048 L109.2707 12.0792 L112.2082 12.0792 L112.2082 12.6886 Z" /></ns0:g><ns0:g transform="translate(104,86)" style="stroke-linecap:butt; font-size:8.4px; text-rendering:geometricPrecision; color-rendering:optimizeQuality; image-rendering:optimizeQuality; font-family:'Open Sans'; color-interpolation:linearRGB; stroke-miterlimit:5;"><ns0:path style="fill:none;" d="M-17.3475 1.2303 L-16.86 1.119 L-16.6431 0.6685" /><ns0:path style="fill:none;" d="M-3.343 -25.911 L-3.843 -25.911 L-4.0599 -25.4605" /><ns0:path style="fill:none;" d="M-45.6195 7.6827 L-46.107 7.794 L-46.1519 8.292" /><ns0:path style="fill:none;" d="M-1.7295 26.4418 L-1.473 26.871 L-1.802 27.2475" /><ns0:path style="fill:none;" d="M-16.643 -52.4875 L-16.86 -52.938 L-17.3475 -53.0493" /><ns0:path style="fill:rgb(0,5,255); stroke:none;" d="M-45.4464 41.8302 L-46.5871 41.8302 L-51.2746 34.6427 L-51.3214 34.6427 Q-51.2277 35.9084 -51.2277 36.9552 L-51.2277 41.8302 L-52.1496 41.8302 L-52.1496 33.2677 L-51.0246 33.2677 L-46.3527 40.424 L-46.3058 40.424 Q-46.3058 40.2677 -46.3527 39.4084 Q-46.3996 38.549 -46.3839 38.174 L-46.3839 33.2677 L-45.4464 33.2677 L-45.4464 41.8302 Z" /><ns0:path style="fill:rgb(0,5,255); stroke:none;" d="M-53.1496 41.8302 L-54.1496 41.8302 L-54.1496 37.799 L-58.6652 37.799 L-58.6652 41.8302 L-59.6652 41.8302 L-59.6652 33.2677 L-58.6652 33.2677 L-58.6652 36.9084 L-54.1496 36.9084 L-54.1496 33.2677 L-53.1496 33.2677 L-53.1496 41.8302 Z" /><ns0:path style="fill:none;" d="M-69.1731 -10.5993 L-69.564 -10.911 L-69.564 -11.411" /><ns0:path style="fill:none;" d="M-20.8811 49.0874 L-21.21 49.464 L-21.6698 49.2675" /><ns0:path style="fill:none;" d="M-45.6195 -59.5047 L-46.107 -59.616 L-46.4979 -59.3043" /><ns0:path style="fill:rgb(0,5,255); stroke:none;" d="M-66.2124 -36.7547 L-67.3531 -36.7547 L-72.0406 -43.9422 L-72.0874 -43.9422 Q-71.9937 -42.6766 -71.9937 -41.6297 L-71.9937 -36.7547 L-72.9156 -36.7547 L-72.9156 -45.3172 L-71.7906 -45.3172 L-67.1187 -38.161 L-67.0718 -38.161 Q-67.0718 -38.3172 -67.1187 -39.1766 Q-67.1656 -40.036 -67.1499 -40.411 L-67.1499 -45.3172 L-66.2124 -45.3172 L-66.2124 -36.7547 Z" /><ns0:path style="fill:rgb(0,5,255); stroke:none;" d="M-73.9156 -36.7547 L-74.9156 -36.7547 L-74.9156 -40.786 L-79.4312 -40.786 L-79.4312 -36.7547 L-80.4312 -36.7547 L-80.4312 -45.3172 L-79.4312 -45.3172 L-79.4312 -41.6766 L-74.9156 -41.6766 L-74.9156 -45.3172 L-73.9156 -45.3172 L-73.9156 -36.7547 Z" /><ns0:path style="fill:none;" d="M25.657 -25.911 L26.157 -25.911 L26.4509 -26.3155" /><ns0:path style="fill:none;" d="M43.4971 -49.7765 L43.791 -50.181 L44.2665 -50.0265" /><ns0:path style="fill:rgb(0,5,255); stroke:none;" d="M47.1426 2.5153 L46.0019 2.5153 L41.3144 -4.6722 L41.2676 -4.6722 Q41.3613 -3.4066 41.3613 -2.3597 L41.3613 2.5153 L40.4394 2.5153 L40.4394 -6.0472 L41.5644 -6.0472 L46.2363 1.109 L46.2832 1.109 Q46.2832 0.9528 46.2363 0.0934 Q46.1894 -0.766 46.2051 -1.141 L46.2051 -6.0472 L47.1426 -6.0472 L47.1426 2.5153 Z" /><ns0:path style="fill:rgb(0,5,255); stroke:none;" d="M47.0488 12.0778 L46.0488 12.0778 L46.0488 8.0465 L41.5332 8.0465 L41.5332 12.0778 L40.5332 12.0778 L40.5332 3.5153 L41.5332 3.5153 L41.5332 7.1559 L46.0488 7.1559 L46.0488 3.5153 L47.0488 3.5153 L47.0488 12.0778 Z" /><ns0:path style="fill:rgb(0,5,255); stroke:none;" d="M75.6726 -36.7547 L74.5319 -36.7547 L69.8444 -43.9422 L69.7976 -43.9422 Q69.8913 -42.6766 69.8913 -41.6297 L69.8913 -36.7547 L68.9694 -36.7547 L68.9694 -45.3172 L70.0944 -45.3172 L74.7663 -38.161 L74.8132 -38.161 Q74.8132 -38.3172 74.7663 -39.1766 Q74.7194 -40.036 74.7351 -40.411 L74.7351 -45.3172 L75.6726 -45.3172 L75.6726 -36.7547 Z" /><ns0:path style="fill:none;" d="M72.321 -11.411 L72.321 -10.911 L71.8455 -10.7565" /></ns0:g></ns0:g></ns0:svg></ns0:svg></ns0:svg></ns0:svg></g></svg>