<svg xmlns:ns0="http://www.w3.org/2000/svg" xmlns="http://www.w3.org/2000/svg"><g transform="translate(0, 0)"><ns0:svg width="321" viewBox="0 0 321 167" style="fill-opacity:1; color-rendering:auto; color-interpolation:auto; text-rendering:auto; stroke:black; stroke-linecap:square; stroke-miterlimit:10; shape-rendering:auto; stroke-opacity:1; fill:black; stroke-dasharray:none; font-weight:normal; stroke-width:1; font-family:'Open Sans'; font-style:normal; stroke-linejoin:miter; font-size:12; stroke-dashoffset:0; image-rendering:auto;" height="167" class="cas-substance-image"><ns0:svg class="cas-substance-single-component"><ns0:rect y="0" x="0" width="321" stroke="none" ry="7" rx="7" height="167" fill="white" class="cas-substance-group" /><ns0:svg y="0" x="0" width="321" viewBox="0 0 321 167" style="fill:black;" height="167" class="cas-substance-single-component-image"><ns0:svg><ns0:g><ns0:g transform="translate(160,85)" style="text-rendering:geometricPrecision; color-rendering:optimizeQuality; color-interpolation:linearRGB; stroke-linecap:butt; image-rendering:optimizeQuality;"><ns0:line y2="25.98" y1="25.98" x2="-112.5" x1="-82.5" style="fill:none;" /><ns0:line y2="0" y1="25.98" x2="-67.5" x1="-82.5" style="fill:none;" /><ns0:line y2="51.963" y1="25.98" x2="-127.5" x1="-112.5" style="fill:none;" /><ns0:line y2="51.9628" y1="29.4799" x2="-123.4585" x1="-110.4791" style="fill:none;" /><ns0:line y2="77.943" y1="51.963" x2="-112.5" x1="-127.5" style="fill:none;" /><ns0:line y2="51.963" y1="51.963" x2="-157.5" x1="-127.5" style="fill:none;" /><ns0:line y2="-25.98" y1="-47.1898" x2="5.4793" x1="17.7237" style="fill:none;" /><ns0:line y2="-24.23" y1="-45.4399" x2="8.5104" x1="20.7549" style="fill:none;" /><ns0:line y2="-51.963" y1="-72.295" x2="-37.5" x1="-25.761" style="fill:none;" /><ns0:line y2="-25.98" y1="-25.98" x2="-82.5" x1="-106.5625" style="fill:none;" /><ns0:line y2="25.98" y1="5.6357" x2="157.5" x1="145.7539" style="fill:none;" /><ns0:line y2="0" y1="0" x2="112.5" x1="136.5625" style="fill:none;" /><ns0:line y2="-25.98" y1="0" x2="-22.5" x1="-37.5" style="fill:none;" /><ns0:line y2="0" y1="0" x2="-67.5" x1="-37.5" style="fill:none;" /><ns0:line y2="-3.5" y1="-3.5" x2="-65.4793" x1="-39.5207" style="fill:none;" /><ns0:line y2="20.2524" y1="0" x2="-25.8069" x1="-37.5" style="fill:none;" /><ns0:line y2="-25.98" y1="-25.98" x2="7.5" x1="-22.5" style="fill:none;" /><ns0:line y2="-51.963" y1="-25.98" x2="-37.5" x1="-22.5" style="fill:none;" /><ns0:line y2="-48.4631" y1="-25.9802" x2="-39.5209" x1="-26.5415" style="fill:none;" /><ns0:line y2="-25.98" y1="0" x2="-82.5" x1="-67.5" style="fill:none;" /><ns0:line y2="25.98" y1="25.98" x2="7.5" x1="-16.5625" style="fill:none;" /><ns0:line y2="0" y1="-25.98" x2="22.5" x1="7.5" style="fill:none;" /><ns0:line y2="-51.963" y1="-51.963" x2="-67.5" x1="-37.5" style="fill:none;" /><ns0:line y2="-51.963" y1="-25.98" x2="-67.5" x1="-82.5" style="fill:none;" /><ns0:line y2="-48.4631" y1="-25.9802" x2="-65.4791" x1="-78.4585" style="fill:none;" /><ns0:line y2="0" y1="25.98" x2="22.5" x1="7.5" style="fill:none;" /><ns0:line y2="-0.0001" y1="22.48" x2="18.4585" x1="5.4793" style="fill:none;" /><ns0:line y2="0" y1="0" x2="52.5" x1="22.5" style="fill:none;" /><ns0:line y2="25.98" y1="0" x2="67.5" x1="52.5" style="fill:none;" /><ns0:line y2="22.48" y1="-0.0001" x2="69.5207" x1="56.5415" style="fill:none;" /><ns0:line y2="-25.98" y1="0" x2="67.5" x1="52.5" style="fill:none;" /><ns0:line y2="25.98" y1="25.98" x2="97.5" x1="67.5" style="fill:none;" /><ns0:line y2="-25.98" y1="-25.98" x2="97.5" x1="67.5" style="fill:none;" /><ns0:line y2="-22.48" y1="-22.48" x2="95.4793" x1="69.5207" style="fill:none;" /><ns0:line y2="0" y1="25.98" x2="112.5" x1="97.5" style="fill:none;" /><ns0:line y2="-0.0001" y1="22.48" x2="108.4585" x1="95.4793" style="fill:none;" /><ns0:line y2="0" y1="-25.98" x2="112.5" x1="97.5" style="fill:none;" /><ns0:path style="fill:none; stroke-miterlimit:5;" d="M-83 25.98 L-82.5 25.98 L-82.25 25.547" /><ns0:path style="fill:none; stroke-miterlimit:5;" d="M-112 25.98 L-112.5 25.98 L-112.75 26.413" /><ns0:path style="fill:none; stroke-miterlimit:5;" d="M-127.25 51.53 L-127.5 51.963 L-127.25 52.396" /></ns0:g><ns0:g transform="translate(160,85)" style="stroke-linecap:butt; fill:rgb(230,0,0); text-rendering:geometricPrecision; color-rendering:optimizeQuality; image-rendering:optimizeQuality; font-family:'Open Sans'; stroke:rgb(230,0,0); color-interpolation:linearRGB; stroke-miterlimit:5;"><ns0:path style="stroke:none;" d="M26.4375 -52.0333 Q26.4375 -49.9708 25.3984 -48.7911 Q24.3594 -47.6114 22.5156 -47.6114 Q20.625 -47.6114 19.5938 -48.7755 Q18.5625 -49.9396 18.5625 -52.0489 Q18.5625 -54.1427 19.5938 -55.2911 Q20.625 -56.4396 22.5156 -56.4396 Q24.375 -56.4396 25.4062 -55.2677 Q26.4375 -54.0958 26.4375 -52.0333 ZM19.6094 -52.0333 Q19.6094 -50.2989 20.3516 -49.3927 Q21.0938 -48.4864 22.5156 -48.4864 Q23.9375 -48.4864 24.6641 -49.3849 Q25.3906 -50.2833 25.3906 -52.0333 Q25.3906 -53.7677 24.6641 -54.6583 Q23.9375 -55.5489 22.5156 -55.5489 Q21.0938 -55.5489 20.3516 -54.6505 Q19.6094 -53.7521 19.6094 -52.0333 Z" /><ns0:path style="stroke:none;" d="M-18.5625 -78.0133 Q-18.5625 -75.9508 -19.6016 -74.7711 Q-20.6406 -73.5914 -22.4844 -73.5914 Q-24.375 -73.5914 -25.4062 -74.7555 Q-26.4375 -75.9196 -26.4375 -78.0289 Q-26.4375 -80.1227 -25.4062 -81.2711 Q-24.375 -82.4196 -22.4844 -82.4196 Q-20.625 -82.4196 -19.5938 -81.2477 Q-18.5625 -80.0758 -18.5625 -78.0133 ZM-25.3906 -78.0133 Q-25.3906 -76.2789 -24.6484 -75.3727 Q-23.9062 -74.4664 -22.4844 -74.4664 Q-21.0625 -74.4664 -20.3359 -75.3649 Q-19.6094 -76.2633 -19.6094 -78.0133 Q-19.6094 -79.7477 -20.3359 -80.6383 Q-21.0625 -81.5289 -22.4844 -81.5289 Q-23.9062 -81.5289 -24.6484 -80.6305 Q-25.3906 -79.7321 -25.3906 -78.0133 Z" /><ns0:path style="stroke:none;" d="M-11.0469 -73.7164 L-12.0469 -73.7164 L-12.0469 -77.7477 L-16.5625 -77.7477 L-16.5625 -73.7164 L-17.5625 -73.7164 L-17.5625 -82.2789 L-16.5625 -82.2789 L-16.5625 -78.6383 L-12.0469 -78.6383 L-12.0469 -82.2789 L-11.0469 -82.2789 L-11.0469 -73.7164 Z" /><ns0:path style="stroke:none;" d="M-108.5625 -26.0503 Q-108.5625 -23.9878 -109.6016 -22.8081 Q-110.6406 -21.6284 -112.4844 -21.6284 Q-114.375 -21.6284 -115.4062 -22.7925 Q-116.4375 -23.9566 -116.4375 -26.0659 Q-116.4375 -28.1597 -115.4062 -29.3081 Q-114.375 -30.4566 -112.4844 -30.4566 Q-110.625 -30.4566 -109.5938 -29.2847 Q-108.5625 -28.1128 -108.5625 -26.0503 ZM-115.3906 -26.0503 Q-115.3906 -24.3159 -114.6484 -23.4097 Q-113.9062 -22.5034 -112.4844 -22.5034 Q-111.0625 -22.5034 -110.3359 -23.4019 Q-109.6094 -24.3003 -109.6094 -26.0503 Q-109.6094 -27.7847 -110.3359 -28.6753 Q-111.0625 -29.5659 -112.4844 -29.5659 Q-113.9062 -29.5659 -114.6484 -28.6675 Q-115.3906 -27.7691 -115.3906 -26.0503 Z" /><ns0:path style="stroke:none;" d="M-117.4375 -21.7534 L-118.4375 -21.7534 L-118.4375 -25.7847 L-122.9531 -25.7847 L-122.9531 -21.7534 L-123.9531 -21.7534 L-123.9531 -30.3159 L-122.9531 -30.3159 L-122.9531 -26.6753 L-118.4375 -26.6753 L-118.4375 -30.3159 L-117.4375 -30.3159 L-117.4375 -21.7534 Z" /><ns0:path style="stroke:none;" d="M146.4375 -0.0703 Q146.4375 1.9922 145.3984 3.1719 Q144.3594 4.3516 142.5156 4.3516 Q140.625 4.3516 139.5938 3.1875 Q138.5625 2.0234 138.5625 -0.0859 Q138.5625 -2.1797 139.5938 -3.3281 Q140.625 -4.4766 142.5156 -4.4766 Q144.375 -4.4766 145.4062 -3.3047 Q146.4375 -2.1328 146.4375 -0.0703 ZM139.6094 -0.0703 Q139.6094 1.6641 140.3516 2.5703 Q141.0938 3.4766 142.5156 3.4766 Q143.9375 3.4766 144.6641 2.5781 Q145.3906 1.6797 145.3906 -0.0703 Q145.3906 -1.8047 144.6641 -2.6953 Q143.9375 -3.5859 142.5156 -3.5859 Q141.0938 -3.5859 140.3516 -2.6875 Q139.6094 -1.7891 139.6094 -0.0703 Z" /><ns0:path style="fill:none; stroke:black;" d="M-38 -0 L-37.5 0 L-37.25 -0.433" /><ns0:path style="fill:none; stroke:black;" d="M-22.75 -26.413 L-22.5 -25.98 L-22.75 -25.547" /><ns0:path style="fill:none; stroke:black;" d="M-67 0 L-67.5 0 L-67.75 0.433" /><ns0:path style="stroke:none;" d="M-18.5625 25.9097 Q-18.5625 27.9722 -19.6016 29.1519 Q-20.6406 30.3316 -22.4844 30.3316 Q-24.375 30.3316 -25.4062 29.1675 Q-26.4375 28.0034 -26.4375 25.8941 Q-26.4375 23.8003 -25.4062 22.6519 Q-24.375 21.5034 -22.4844 21.5034 Q-20.625 21.5034 -19.5938 22.6753 Q-18.5625 23.8472 -18.5625 25.9097 ZM-25.3906 25.9097 Q-25.3906 27.6441 -24.6484 28.5503 Q-23.9062 29.4566 -22.4844 29.4566 Q-21.0625 29.4566 -20.3359 28.5581 Q-19.6094 27.6597 -19.6094 25.9097 Q-19.6094 24.1753 -20.3359 23.2847 Q-21.0625 22.3941 -22.4844 22.3941 Q-23.9062 22.3941 -24.6484 23.2925 Q-25.3906 24.1909 -25.3906 25.9097 Z" /><ns0:path style="fill:none; stroke:black;" d="M7 -25.98 L7.5 -25.98 L7.75 -25.547" /><ns0:path style="fill:none; stroke:black;" d="M-37.25 -51.53 L-37.5 -51.963 L-37.25 -52.396" /><ns0:path style="fill:none; stroke:black;" d="M-82.25 -26.413 L-82.5 -25.98 L-83 -25.98" /><ns0:path style="fill:none; stroke:black;" d="M7 25.98 L7.5 25.98 L7.75 25.547" /><ns0:path style="fill:none; stroke:black;" d="M22.25 0.433 L22.5 0 L22.25 -0.433" /><ns0:path style="fill:none; stroke:black;" d="M-67 -51.963 L-67.5 -51.963 L-67.75 -51.53" /><ns0:path style="fill:none; stroke:black;" d="M52.75 0.433 L52.5 0 L52 -0" /><ns0:path style="fill:none; stroke:black;" d="M67.25 25.547 L67.5 25.98 L68 25.98" /><ns0:path style="fill:none; stroke:black;" d="M67.25 -25.547 L67.5 -25.98 L68 -25.98" /><ns0:path style="fill:none; stroke:black;" d="M97 25.98 L97.5 25.98 L97.75 25.547" /><ns0:path style="fill:none; stroke:black;" d="M97 -25.98 L97.5 -25.98 L97.75 -25.547" /><ns0:path style="fill:none; stroke:black;" d="M112.25 0.433 L112.5 0 L113 0" /></ns0:g></ns0:g></ns0:svg></ns0:svg></ns0:svg></ns0:svg></g></svg>