<svg xmlns:ns0="http://www.w3.org/2000/svg" xmlns="http://www.w3.org/2000/svg"><g transform="translate(0, 0)"><ns0:svg width="189" viewBox="0 0 189 157" style="fill-opacity:1; color-rendering:auto; color-interpolation:auto; text-rendering:auto; stroke:black; stroke-linecap:square; stroke-miterlimit:10; shape-rendering:auto; stroke-opacity:1; fill:black; stroke-dasharray:none; font-weight:normal; stroke-width:1; font-family:'Open Sans'; font-style:normal; stroke-linejoin:miter; font-size:12; stroke-dashoffset:0; image-rendering:auto;" height="157" class="cas-substance-image"><ns0:svg class="cas-substance-single-component"><ns0:rect y="0" x="0" width="189" stroke="none" ry="7" rx="7" height="157" fill="white" class="cas-substance-group" /><ns0:svg y="0" x="0" width="189" viewBox="0 0 189 157" style="fill:black;" height="157" class="cas-substance-single-component-image"><ns0:svg><ns0:g><ns0:g transform="translate(94,79)" style="text-rendering:geometricPrecision; color-rendering:optimizeQuality; color-interpolation:linearRGB; stroke-linecap:butt; image-rendering:optimizeQuality;"><ns0:line y2="-30" y1="-15" x2="12.99" x1="-12.99" style="fill:none;" /><ns0:line y2="15" y1="-15" x2="-12.99" x1="-12.99" style="fill:none;" /><ns0:line y2="-30" y1="-15" x2="-38.97" x1="-12.99" style="fill:none;" /><ns0:line y2="-15" y1="-30" x2="38.97" x1="12.99" style="fill:none;" /><ns0:line y2="-27.0652" y1="-15" x2="59.8694" x1="38.97" style="fill:none;" /><ns0:line y2="-15" y1="-27.0649" x2="90.933" x1="70.0366" style="fill:none;" /><ns0:line y2="-60" y1="-36.4062" x2="64.953" x1="64.953" style="fill:none;" /><ns0:line y2="30" y1="15" x2="12.99" x1="-12.99" style="fill:none;" /><ns0:line y2="32.0207" y1="19.0415" x2="9.49" x1="-12.9901" style="fill:none;" /><ns0:line y2="30" y1="15" x2="-38.97" x1="-12.99" style="fill:none;" /><ns0:line y2="60" y1="30" x2="12.99" x1="12.99" style="fill:none;" /><ns0:line y2="60" y1="30" x2="-38.97" x1="-38.97" style="fill:none;" /><ns0:line y2="57.9793" y1="32.0207" x2="-35.47" x1="-35.47" style="fill:none;" /><ns0:line y2="75" y1="60" x2="-12.99" x1="12.99" style="fill:none;" /><ns0:line y2="70.9585" y1="57.9793" x2="-12.9901" x1="9.49" style="fill:none;" /><ns0:line y2="75" y1="60" x2="-12.99" x1="-38.97" style="fill:none;" /><ns0:line y2="-60" y1="-30" x2="-38.97" x1="-38.97" style="fill:none;" /><ns0:line y2="-57.9793" y1="-32.0207" x2="-42.47" x1="-42.47" style="fill:none;" /><ns0:line y2="-17.9348" y1="-30" x2="-59.8694" x1="-38.97" style="fill:none;" /><ns0:line y2="-75" y1="-60" x2="-64.953" x1="-38.97" style="fill:none;" /><ns0:line y2="-30" y1="-17.9351" x2="-90.933" x1="-70.0366" style="fill:none;" /><ns0:line y2="-32.0207" y1="-20.9662" x2="-87.433" x1="-68.2866" style="fill:none;" /><ns0:line y2="-60" y1="-75" x2="-90.933" x1="-64.953" style="fill:none;" /><ns0:line y2="-57.9793" y1="-70.9585" x2="-87.433" x1="-64.9529" style="fill:none;" /><ns0:line y2="-60" y1="-30" x2="-90.933" x1="-90.933" style="fill:none;" /><ns0:path style="fill:none; stroke-miterlimit:5;" d="M12.557 -29.75 L12.99 -30 L13.423 -29.75" /><ns0:path style="fill:none; stroke-miterlimit:5;" d="M38.537 -15.25 L38.97 -15 L39.403 -15.25" /></ns0:g><ns0:g transform="translate(94,79)" style="stroke-linecap:butt; fill:rgb(0,5,255); text-rendering:geometricPrecision; color-rendering:optimizeQuality; image-rendering:optimizeQuality; font-family:'Open Sans'; stroke:rgb(0,5,255); color-interpolation:linearRGB; stroke-miterlimit:5;"><ns0:path style="stroke:none;" d="M68.3046 -25.8438 L67.1639 -25.8438 L62.4764 -33.0312 L62.4296 -33.0312 Q62.5233 -31.7656 62.5233 -30.7188 L62.5233 -25.8438 L61.6014 -25.8438 L61.6014 -34.4062 L62.7264 -34.4062 L67.3983 -27.25 L67.4452 -27.25 Q67.4452 -27.4062 67.3983 -28.2656 Q67.3514 -29.125 67.3671 -29.5 L67.3671 -34.4062 L68.3046 -34.4062 L68.3046 -25.8438 Z" /><ns0:path style="fill:none; stroke:black;" d="M-12.557 15.25 L-12.99 15 L-13.423 15.25" /><ns0:path style="fill:none; stroke:black;" d="M12.557 29.75 L12.99 30 L12.99 30.5" /><ns0:path style="fill:none; stroke:black;" d="M-38.537 29.75 L-38.97 30 L-38.97 30.5" /><ns0:path style="fill:none; stroke:black;" d="M12.99 59.5 L12.99 60 L12.557 60.25" /><ns0:path style="fill:none; stroke:black;" d="M-38.97 59.5 L-38.97 60 L-38.537 60.25" /><ns0:path style="fill:none; stroke:black;" d="M-12.557 74.75 L-12.99 75 L-13.423 74.75" /><ns0:path style="fill:none; stroke:black;" d="M-38.97 -30.5 L-38.97 -30 L-38.537 -29.75" /><ns0:path style="fill:none; stroke:black;" d="M-38.97 -59.5 L-38.97 -60 L-39.403 -60.25" /><ns0:path style="stroke:none;" d="M-61.6014 -10.8438 L-62.7421 -10.8438 L-67.4296 -18.0312 L-67.4764 -18.0312 Q-67.3827 -16.7656 -67.3827 -15.7188 L-67.3827 -10.8438 L-68.3046 -10.8438 L-68.3046 -19.4062 L-67.1796 -19.4062 L-62.5077 -12.25 L-62.4608 -12.25 Q-62.4608 -12.4062 -62.5077 -13.2656 Q-62.5546 -14.125 -62.5389 -14.5 L-62.5389 -19.4062 L-61.6014 -19.4062 L-61.6014 -10.8438 Z" /><ns0:path style="fill:none; stroke:black;" d="M-64.52 -74.75 L-64.953 -75 L-65.386 -74.75" /><ns0:path style="fill:none; stroke:black;" d="M-90.5 -29.75 L-90.933 -30 L-90.933 -30.5" /><ns0:path style="fill:none; stroke:black;" d="M-90.5 -60.25 L-90.933 -60 L-90.933 -59.5" /></ns0:g></ns0:g></ns0:svg></ns0:svg></ns0:svg></ns0:svg></g><g transform="translate(189, 0)"><ns0:svg width="141" viewBox="0 0 141 76" style="fill-opacity:1; color-rendering:auto; color-interpolation:auto; text-rendering:auto; stroke:black; stroke-linecap:square; stroke-miterlimit:10; shape-rendering:auto; stroke-opacity:1; fill:black; stroke-dasharray:none; font-weight:normal; stroke-width:1; font-family:'Open Sans'; font-style:normal; stroke-linejoin:miter; font-size:12; stroke-dashoffset:0; image-rendering:auto;" height="76" class="cas-substance-image"><ns0:svg class="cas-substance-single-component"><ns0:rect y="0" x="0" width="141" stroke="none" ry="7" rx="7" height="76" fill="white" class="cas-substance-group" /><ns0:svg y="0" x="0" width="141" viewBox="0 0 141 76" style="fill:black;" height="76" class="cas-substance-single-component-image"><ns0:svg><ns0:g><ns0:g transform="translate(67,33)" style="text-rendering:geometricPrecision; color-rendering:optimizeQuality; color-interpolation:linearRGB; stroke-linecap:butt; image-rendering:optimizeQuality;"><ns0:line y2="25.98" y1="25.98" x2="15" x1="-15" style="fill:none;" /><ns0:line y2="22.48" y1="22.48" x2="12.9793" x1="-12.9793" style="fill:none;" /></ns0:g><ns0:g transform="translate(67,33)" style="stroke-linecap:butt; font-size:8.4px; fill:gray; text-rendering:geometricPrecision; image-rendering:optimizeQuality; color-rendering:optimizeQuality; font-family:'Open Sans'; font-style:italic; stroke:gray; color-interpolation:linearRGB;"><ns0:path style="stroke:none;" d="M-4.2292 37.1441 Q-4.2292 35.8159 -3.7604 34.6909 Q-3.2917 33.5659 -2.2604 32.4878 L-1.651 32.4878 Q-2.6198 33.5503 -3.1042 34.7222 Q-3.5885 35.8941 -3.5885 37.1284 Q-3.5885 38.4566 -3.151 39.4722 L-3.6667 39.4722 Q-4.2292 38.4409 -4.2292 37.1441 ZM1.284 38.2066 L-2.2316 38.2066 L-2.1222 37.6753 L1.4872 33.0972 L-1.0753 33.0972 L-0.9503 32.4878 L2.409 32.4878 L2.2997 33.0347 L-1.3097 37.5972 L1.4247 37.5972 L1.284 38.2066 ZM4.2292 34.8316 Q4.2292 36.1597 3.7526 37.2925 Q3.276 38.4253 2.2604 39.4722 L1.651 39.4722 Q3.5885 37.3159 3.5885 34.8316 Q3.5885 33.5034 3.151 32.4878 L3.6667 32.4878 Q4.2292 33.5503 4.2292 34.8316 Z" /><ns0:line y2="0" y1="25.98" x2="-30" x1="-15" style="fill:none; stroke:black;" /><ns0:line y2="0" y1="25.98" x2="30" x1="15" style="fill:none; stroke:black;" /><ns0:line y2="-20.332" y1="0" x2="-18.261" x1="-30" style="fill:none; stroke:black;" /><ns0:line y2="-1.75" y1="-1.75" x2="-54.0625" x1="-28.9896" style="fill:none; stroke:black;" /><ns0:line y2="1.75" y1="1.75" x2="-54.0625" x1="-28.9896" style="fill:none; stroke:black;" /><ns0:line y2="0" y1="0" x2="54.0625" x1="30" style="fill:none; stroke:black;" /><ns0:line y2="-21.2193" y1="-0" x2="19.7694" x1="32.0207" style="fill:none; stroke:black;" /><ns0:line y2="-19.4693" y1="1.75" x2="16.7383" x1="28.9896" style="fill:none; stroke:black;" /><ns0:path style="fill:none; stroke-miterlimit:5; stroke:black;" d="M-14.5 25.98 L-15 25.98 L-15.25 25.547" /><ns0:path style="fill:none; stroke-miterlimit:5; stroke:black;" d="M14.5 25.98 L15 25.98 L15.25 25.547" /><ns0:path style="fill:none; stroke-miterlimit:5; stroke:black;" d="M-29.75 0.433 L-30 0 L-29.75 -0.433" /><ns0:path style="fill:none; stroke-miterlimit:5; stroke:black;" d="M29.75 0.433 L30 0 L30.5 0" /></ns0:g><ns0:g transform="translate(67,33)" style="stroke-linecap:butt; fill:rgb(230,0,0); text-rendering:geometricPrecision; color-rendering:optimizeQuality; image-rendering:optimizeQuality; font-family:'Open Sans'; stroke:rgb(230,0,0); color-interpolation:linearRGB; stroke-miterlimit:5;"><ns0:path style="stroke:none;" d="M-11.0625 -26.0503 Q-11.0625 -23.9878 -12.1016 -22.8081 Q-13.1406 -21.6284 -14.9844 -21.6284 Q-16.875 -21.6284 -17.9062 -22.7925 Q-18.9375 -23.9566 -18.9375 -26.0659 Q-18.9375 -28.1597 -17.9062 -29.3081 Q-16.875 -30.4566 -14.9844 -30.4566 Q-13.125 -30.4566 -12.0938 -29.2847 Q-11.0625 -28.1128 -11.0625 -26.0503 ZM-17.8906 -26.0503 Q-17.8906 -24.3159 -17.1484 -23.4097 Q-16.4062 -22.5034 -14.9844 -22.5034 Q-13.5625 -22.5034 -12.8359 -23.4019 Q-12.1094 -24.3003 -12.1094 -26.0503 Q-12.1094 -27.7847 -12.8359 -28.6753 Q-13.5625 -29.5659 -14.9844 -29.5659 Q-16.4062 -29.5659 -17.1484 -28.6675 Q-17.8906 -27.7691 -17.8906 -26.0503 Z" /><ns0:path style="stroke:none;" d="M-3.5469 -21.7534 L-4.5469 -21.7534 L-4.5469 -25.7847 L-9.0625 -25.7847 L-9.0625 -21.7534 L-10.0625 -21.7534 L-10.0625 -30.3159 L-9.0625 -30.3159 L-9.0625 -26.6753 L-4.5469 -26.6753 L-4.5469 -30.3159 L-3.5469 -30.3159 L-3.5469 -21.7534 Z" /><ns0:path style="stroke:none;" d="M-56.0625 -0.0703 Q-56.0625 1.9922 -57.1016 3.1719 Q-58.1406 4.3516 -59.9844 4.3516 Q-61.875 4.3516 -62.9062 3.1875 Q-63.9375 2.0234 -63.9375 -0.0859 Q-63.9375 -2.1797 -62.9062 -3.3281 Q-61.875 -4.4766 -59.9844 -4.4766 Q-58.125 -4.4766 -57.0938 -3.3047 Q-56.0625 -2.1328 -56.0625 -0.0703 ZM-62.8906 -0.0703 Q-62.8906 1.6641 -62.1484 2.5703 Q-61.4062 3.4766 -59.9844 3.4766 Q-58.5625 3.4766 -57.8359 2.5781 Q-57.1094 1.6797 -57.1094 -0.0703 Q-57.1094 -1.8047 -57.8359 -2.6953 Q-58.5625 -3.5859 -59.9844 -3.5859 Q-61.4062 -3.5859 -62.1484 -2.6875 Q-62.8906 -1.7891 -62.8906 -0.0703 Z" /><ns0:path style="stroke:none;" d="M63.9375 -0.0703 Q63.9375 1.9922 62.8984 3.1719 Q61.8594 4.3516 60.0156 4.3516 Q58.125 4.3516 57.0938 3.1875 Q56.0625 2.0234 56.0625 -0.0859 Q56.0625 -2.1797 57.0938 -3.3281 Q58.125 -4.4766 60.0156 -4.4766 Q61.875 -4.4766 62.9062 -3.3047 Q63.9375 -2.1328 63.9375 -0.0703 ZM57.1094 -0.0703 Q57.1094 1.6641 57.8516 2.5703 Q58.5938 3.4766 60.0156 3.4766 Q61.4375 3.4766 62.1641 2.5781 Q62.8906 1.6797 62.8906 -0.0703 Q62.8906 -1.8047 62.1641 -2.6953 Q61.4375 -3.5859 60.0156 -3.5859 Q58.5938 -3.5859 57.8516 -2.6875 Q57.1094 -1.7891 57.1094 -0.0703 Z" /><ns0:path style="stroke:none;" d="M71.4531 4.2266 L70.4531 4.2266 L70.4531 0.1953 L65.9375 0.1953 L65.9375 4.2266 L64.9375 4.2266 L64.9375 -4.3359 L65.9375 -4.3359 L65.9375 -0.6953 L70.4531 -0.6953 L70.4531 -4.3359 L71.4531 -4.3359 L71.4531 4.2266 Z" /><ns0:path style="stroke:none;" d="M18.9375 -26.0503 Q18.9375 -23.9878 17.8984 -22.8081 Q16.8594 -21.6284 15.0156 -21.6284 Q13.125 -21.6284 12.0938 -22.7925 Q11.0625 -23.9566 11.0625 -26.0659 Q11.0625 -28.1597 12.0938 -29.3081 Q13.125 -30.4566 15.0156 -30.4566 Q16.875 -30.4566 17.9062 -29.2847 Q18.9375 -28.1128 18.9375 -26.0503 ZM12.1094 -26.0503 Q12.1094 -24.3159 12.8516 -23.4097 Q13.5938 -22.5034 15.0156 -22.5034 Q16.4375 -22.5034 17.1641 -23.4019 Q17.8906 -24.3003 17.8906 -26.0503 Q17.8906 -27.7847 17.1641 -28.6753 Q16.4375 -29.5659 15.0156 -29.5659 Q13.5938 -29.5659 12.8516 -28.6675 Q12.1094 -27.7691 12.1094 -26.0503 Z" /></ns0:g></ns0:g></ns0:svg></ns0:svg></ns0:svg></ns0:svg></g></svg>