<svg width="236" viewBox="0 0 236 145" style="fill-opacity:1; color-rendering:auto; color-interpolation:auto; text-rendering:auto; stroke:black; stroke-linecap:square; stroke-miterlimit:10; shape-rendering:auto; stroke-opacity:1; fill:black; stroke-dasharray:none; font-weight:normal; stroke-width:1; font-family:'Open Sans'; font-style:normal; stroke-linejoin:miter; font-size:12; stroke-dashoffset:0; image-rendering:auto;" height="145" class="cas-substance-image" xmlns:xlink="http://www.w3.org/1999/xlink" xmlns="http://www.w3.org/2000/svg"><svg class="cas-substance-single-component"><rect y="0" x="0" width="236" stroke="none" ry="7" rx="7" height="145" fill="white" class="cas-substance-group"/><svg y="0" x="0" width="236" viewBox="0 0 236 145" style="fill:black;" height="145" class="cas-substance-single-component-image"><svg><g><g transform="translate(119,72)" style="text-rendering:geometricPrecision; color-rendering:optimizeQuality; color-interpolation:linearRGB; stroke-linecap:butt; image-rendering:optimizeQuality;"><line y2="-7.1017" y1="12.99" x2="19.1003" x1="7.5" style="fill:none;"/><line y2="34.1174" y1="12.99" x2="17.6775" x1="5.4793" style="fill:none;"/><line y2="32.3674" y1="11.24" x2="20.7086" x1="8.5104" style="fill:none;"/><line y2="12.99" y1="12.99" x2="-22.5" x1="7.5" style="fill:none;"/><line y2="-12.99" y1="-12.99" x2="52.5" x1="27.8516" style="fill:none;"/><line y2="38.97" y1="59.3573" x2="-37.5" x1="-25.7304" style="fill:none;"/><line y2="-40.72" y1="-40.72" x2="-106.5625" x1="-87.8516" style="fill:none;"/><line y2="-37.22" y1="-37.22" x2="-106.5625" x1="-87.8516" style="fill:none;"/><line y2="-58.4299" y1="-44.2334" x2="-69.2451" x1="-77.4408" style="fill:none;"/><line y2="-60.1797" y1="-45.9833" x2="-72.2763" x1="-80.4719" style="fill:none;"/><line y2="-12.99" y1="-33.0817" x2="-67.5" x1="-79.1003" style="fill:none;"/><line y2="-12.99" y1="12.99" x2="-37.5" x1="-22.5" style="fill:none;"/><line y2="-9.49" y1="12.9901" x2="-39.5207" x1="-26.5415" style="fill:none;"/><line y2="38.97" y1="12.99" x2="-37.5" x1="-22.5" style="fill:none;"/><line y2="-12.99" y1="-12.99" x2="-67.5" x1="-37.5" style="fill:none;"/><line y2="38.97" y1="38.97" x2="-67.5" x1="-37.5" style="fill:none;"/><line y2="35.47" y1="35.47" x2="-65.4793" x1="-39.5207" style="fill:none;"/><line y2="12.99" y1="-12.99" x2="-82.5" x1="-67.5" style="fill:none;"/><line y2="12.9901" y1="-9.49" x2="-78.4585" x1="-65.4793" style="fill:none;"/><line y2="12.99" y1="38.97" x2="-82.5" x1="-67.5" style="fill:none;"/><line y2="12.99" y1="-12.99" x2="67.5" x1="52.5" style="fill:none;"/><line y2="9.49" y1="-12.9901" x2="69.5207" x1="56.5415" style="fill:none;"/><line y2="-38.97" y1="-12.99" x2="67.5" x1="52.5" style="fill:none;"/><line y2="12.99" y1="12.99" x2="97.5" x1="67.5" style="fill:none;"/><line y2="-38.97" y1="-38.97" x2="97.5" x1="67.5" style="fill:none;"/><line y2="-35.47" y1="-35.47" x2="95.4793" x1="69.5207" style="fill:none;"/><line y2="-12.99" y1="12.99" x2="112.5" x1="97.5" style="fill:none;"/><line y2="-12.9901" y1="9.49" x2="108.4585" x1="95.4793" style="fill:none;"/><line y2="-12.99" y1="-38.97" x2="112.5" x1="97.5" style="fill:none;"/><path style="fill:none; stroke-miterlimit:5;" d="M7.75 12.557 L7.5 12.99 L7 12.99"/></g><g transform="translate(119,72)" style="stroke-linecap:butt; fill:rgb(0,5,255); text-rendering:geometricPrecision; color-rendering:optimizeQuality; image-rendering:optimizeQuality; font-family:'Open Sans'; stroke:rgb(0,5,255); color-interpolation:linearRGB; stroke-miterlimit:5;"><path style="stroke:none;" d="M25.8516 -8.8337 L24.7109 -8.8337 L20.0234 -16.0212 L19.9766 -16.0212 Q20.0703 -14.7556 20.0703 -13.7087 L20.0703 -8.8337 L19.1484 -8.8337 L19.1484 -17.3962 L20.2734 -17.3962 L24.9453 -10.24 L24.9922 -10.24 Q24.9922 -10.3962 24.9453 -11.2556 Q24.8984 -12.115 24.9141 -12.49 L24.9141 -17.3962 L25.8516 -17.3962 L25.8516 -8.8337 Z"/><path style="stroke:none;" d="M25.7578 -18.3962 L24.7578 -18.3962 L24.7578 -22.4275 L20.2422 -22.4275 L20.2422 -18.3962 L19.2422 -18.3962 L19.2422 -26.9587 L20.2422 -26.9587 L20.2422 -23.3181 L24.7578 -23.3181 L24.7578 -26.9587 L25.7578 -26.9587 L25.7578 -18.3962 Z"/><path style="fill:rgb(230,0,0); stroke:none;" d="M26.4375 38.8997 Q26.4375 40.9622 25.3984 42.1419 Q24.3594 43.3216 22.5156 43.3216 Q20.625 43.3216 19.5938 42.1575 Q18.5625 40.9934 18.5625 38.8841 Q18.5625 36.7903 19.5938 35.6419 Q20.625 34.4934 22.5156 34.4934 Q24.375 34.4934 25.4062 35.6653 Q26.4375 36.8372 26.4375 38.8997 ZM19.6094 38.8997 Q19.6094 40.6341 20.3516 41.5403 Q21.0938 42.4466 22.5156 42.4466 Q23.9375 42.4466 24.6641 41.5481 Q25.3906 40.6497 25.3906 38.8997 Q25.3906 37.1653 24.6641 36.2747 Q23.9375 35.3841 22.5156 35.3841 Q21.0938 35.3841 20.3516 36.2825 Q19.6094 37.1809 19.6094 38.8997 Z"/><path style="fill:rgb(0,138,0); stroke:none;" d="M-22.8086 61.5936 Q-24.2148 61.5936 -25.0352 62.5311 Q-25.8555 63.4686 -25.8555 65.1093 Q-25.8555 66.7811 -25.0664 67.703 Q-24.2773 68.6249 -22.8242 68.6249 Q-21.918 68.6249 -20.7773 68.2968 L-20.7773 69.1718 Q-21.668 69.5155 -22.9648 69.5155 Q-24.8555 69.5155 -25.8867 68.3593 Q-26.918 67.203 -26.918 65.0936 Q-26.918 63.7655 -26.4258 62.7733 Q-25.9336 61.7811 -24.9961 61.2421 Q-24.0586 60.703 -22.793 60.703 Q-21.4492 60.703 -20.4336 61.1874 L-20.8555 62.0468 Q-21.8398 61.5936 -22.8086 61.5936 ZM-18.082 69.3905 L-19.0508 69.3905 L-19.0508 60.2655 L-18.082 60.2655 L-18.082 69.3905 Z"/><path style="stroke:none;" d="M-79.1484 -34.8138 L-80.2891 -34.8138 L-84.9766 -42.0013 L-85.0234 -42.0013 Q-84.9297 -40.7356 -84.9297 -39.6888 L-84.9297 -34.8138 L-85.8516 -34.8138 L-85.8516 -43.3763 L-84.7266 -43.3763 L-80.0547 -36.22 L-80.0078 -36.22 Q-80.0078 -36.3763 -80.0547 -37.2356 Q-80.1016 -38.095 -80.0859 -38.47 L-80.0859 -43.3763 L-79.1484 -43.3763 L-79.1484 -34.8138 Z"/><path style="fill:rgb(230,0,0); stroke:none;" d="M-108.5625 -39.0403 Q-108.5625 -36.9778 -109.6016 -35.7981 Q-110.6406 -34.6184 -112.4844 -34.6184 Q-114.375 -34.6184 -115.4062 -35.7825 Q-116.4375 -36.9466 -116.4375 -39.0559 Q-116.4375 -41.1497 -115.4062 -42.2981 Q-114.375 -43.4466 -112.4844 -43.4466 Q-110.625 -43.4466 -109.5938 -42.2747 Q-108.5625 -41.1028 -108.5625 -39.0403 ZM-115.3906 -39.0403 Q-115.3906 -37.3059 -114.6484 -36.3997 Q-113.9062 -35.4934 -112.4844 -35.4934 Q-111.0625 -35.4934 -110.3359 -36.3919 Q-109.6094 -37.2903 -109.6094 -39.0403 Q-109.6094 -40.7747 -110.3359 -41.6653 Q-111.0625 -42.5559 -112.4844 -42.5559 Q-113.9062 -42.5559 -114.6484 -41.6575 Q-115.3906 -40.7591 -115.3906 -39.0403 Z"/><path style="fill:rgb(230,0,0); stroke:none;" d="M-63.5625 -65.0233 Q-63.5625 -62.9608 -64.6016 -61.7811 Q-65.6406 -60.6014 -67.4844 -60.6014 Q-69.375 -60.6014 -70.4062 -61.7655 Q-71.4375 -62.9296 -71.4375 -65.0389 Q-71.4375 -67.1327 -70.4062 -68.2811 Q-69.375 -69.4296 -67.4844 -69.4296 Q-65.625 -69.4296 -64.5938 -68.2577 Q-63.5625 -67.0858 -63.5625 -65.0233 ZM-70.3906 -65.0233 Q-70.3906 -63.2889 -69.6484 -62.3827 Q-68.9062 -61.4764 -67.4844 -61.4764 Q-66.0625 -61.4764 -65.3359 -62.3749 Q-64.6094 -63.2733 -64.6094 -65.0233 Q-64.6094 -66.7577 -65.3359 -67.6483 Q-66.0625 -68.5389 -67.4844 -68.5389 Q-68.9062 -68.5389 -69.6484 -67.6405 Q-70.3906 -66.7421 -70.3906 -65.0233 Z"/><path style="fill:none; stroke:black;" d="M-22.75 12.557 L-22.5 12.99 L-22.75 13.423"/><path style="fill:none; stroke:black;" d="M-37.25 -12.557 L-37.5 -12.99 L-38 -12.99"/><path style="fill:none; stroke:black;" d="M-38 38.97 L-37.5 38.97 L-37.25 38.537"/><path style="fill:none; stroke:black;" d="M-67.75 -12.557 L-67.5 -12.99 L-67 -12.99"/><path style="fill:none; stroke:black;" d="M-67 38.97 L-67.5 38.97 L-67.75 38.537"/><path style="fill:none; stroke:black;" d="M-82.25 12.557 L-82.5 12.99 L-82.25 13.423"/><path style="fill:none; stroke:black;" d="M52.75 -12.557 L52.5 -12.99 L52 -12.99"/><path style="fill:none; stroke:black;" d="M67.25 12.557 L67.5 12.99 L68 12.99"/><path style="fill:none; stroke:black;" d="M67.25 -38.537 L67.5 -38.97 L68 -38.97"/><path style="fill:none; stroke:black;" d="M97 12.99 L97.5 12.99 L97.75 12.557"/><path style="fill:none; stroke:black;" d="M97 -38.97 L97.5 -38.97 L97.75 -38.537"/><path style="fill:none; stroke:black;" d="M112.25 -12.557 L112.5 -12.99 L112.25 -13.423"/></g></g></svg></svg></svg></svg>