<svg xmlns:ns0="http://www.w3.org/2000/svg" xmlns="http://www.w3.org/2000/svg"><g transform="translate(0, 0)"><ns0:svg width="211" viewBox="0 0 211 105" style="fill-opacity:1; color-rendering:auto; color-interpolation:auto; text-rendering:auto; stroke:black; stroke-linecap:square; stroke-miterlimit:10; shape-rendering:auto; stroke-opacity:1; fill:black; stroke-dasharray:none; font-weight:normal; stroke-width:1; font-family:'Open Sans'; font-style:normal; stroke-linejoin:miter; font-size:12; stroke-dashoffset:0; image-rendering:auto;" height="105" class="cas-substance-image"><ns0:svg class="cas-substance-single-component"><ns0:rect y="0" x="0" width="211" stroke="none" ry="7" rx="7" height="105" fill="white" class="cas-substance-group" /><ns0:svg y="0" x="0" width="211" viewBox="0 0 211 105" style="fill:black;" height="105" class="cas-substance-single-component-image"><ns0:svg><ns0:g><ns0:g transform="translate(105,52)" style="text-rendering:geometricPrecision; color-rendering:optimizeQuality; color-interpolation:linearRGB; stroke-linecap:butt; image-rendering:optimizeQuality;"><ns0:line y2="-12.0649" y1="0" x2="-18.0736" x1="-38.97" style="fill:none;" /><ns0:line y2="-15" y1="0" x2="-64.953" x1="-38.97" style="fill:none;" /><ns0:path style="stroke:none;" d="M-39.47 -0 L-38.47 0 L-35.72 28.7011 L-41.72 32.1649 Z" /><ns0:line y2="0" y1="-12.0649" x2="12.99" x1="-7.9064" style="fill:none;" /><ns0:line y2="-3.226" y1="-15" x2="-85.3455" x1="-64.953" style="fill:none;" /><ns0:line y2="-38.6484" y1="-13.9897" x2="-63.203" x1="-63.203" style="fill:none;" /><ns0:line y2="-38.6484" y1="-13.9896" x2="-66.703" x1="-66.703" style="fill:none;" /><ns0:line y2="41.7742" y1="30" x2="-59.3653" x1="-38.97" style="fill:none;" /><ns0:line y2="-15" y1="0" x2="38.97" x1="12.99" style="fill:none;" /><ns0:line y2="23.5234" y1="-1.0104" x2="11.24" x1="11.24" style="fill:none;" /><ns0:line y2="23.5234" y1="-1.0104" x2="14.74" x1="14.74" style="fill:none;" /><ns0:line y2="0" y1="-15" x2="64.953" x1="38.97" style="fill:none;" /><ns0:path style="stroke:none;" d="M39.47 -15 L38.47 -15 L35.97 -38.8438 L41.97 -38.8438 Z" /><ns0:line y2="-11.8112" y1="0" x2="85.41" x1="64.953" style="fill:none;" /></ns0:g><ns0:g transform="translate(105,52)" style="font-size:8.4px; fill:gray; text-rendering:geometricPrecision; image-rendering:optimizeQuality; color-rendering:optimizeQuality; font-family:'Open Sans'; font-style:italic; stroke:gray; color-interpolation:linearRGB;"><ns0:path style="stroke:none;" d="M-43.0788 -8.7969 Q-43.0788 -10.125 -42.61 -11.25 Q-42.1413 -12.375 -41.11 -13.4531 L-40.5006 -13.4531 Q-41.4694 -12.3906 -41.9538 -11.2188 Q-42.4381 -10.0469 -42.4381 -8.8125 Q-42.4381 -7.4844 -42.0006 -6.4688 L-42.5163 -6.4688 Q-43.0788 -7.5 -43.0788 -8.7969 ZM-37.4562 -9.3906 Q-37.4562 -8.5625 -38.0031 -8.1094 Q-38.55 -7.6562 -39.55 -7.6562 Q-39.9562 -7.6562 -40.2687 -7.7109 Q-40.5812 -7.7656 -40.8625 -7.9062 L-40.8625 -8.5625 Q-40.2375 -8.2344 -39.5343 -8.2344 Q-38.9093 -8.2344 -38.5343 -8.5312 Q-38.1593 -8.8281 -38.1593 -9.3438 Q-38.1593 -9.6562 -38.3625 -9.8828 Q-38.5656 -10.1094 -39.1281 -10.4375 Q-39.7218 -10.7656 -39.9484 -11.0938 Q-40.175 -11.4219 -40.175 -11.875 Q-40.175 -12.6094 -39.6593 -13.0703 Q-39.1437 -13.5312 -38.3 -13.5312 Q-37.925 -13.5312 -37.589 -13.4531 Q-37.2531 -13.375 -36.8781 -13.2031 L-37.1437 -12.6094 Q-37.3937 -12.7656 -37.714 -12.8516 Q-38.0343 -12.9375 -38.3 -12.9375 Q-38.8312 -12.9375 -39.1515 -12.6641 Q-39.4718 -12.3906 -39.4718 -11.9219 Q-39.4718 -11.7188 -39.4015 -11.5703 Q-39.3312 -11.4219 -39.1906 -11.2891 Q-39.05 -11.1562 -38.6281 -10.9062 Q-38.0656 -10.5625 -37.8625 -10.3672 Q-37.6593 -10.1719 -37.5578 -9.9375 Q-37.4562 -9.7031 -37.4562 -9.3906 ZM-34.8617 -11.1094 Q-34.8617 -9.7812 -35.3383 -8.6484 Q-35.8149 -7.5156 -36.8305 -6.4688 L-37.4399 -6.4688 Q-35.5024 -8.625 -35.5024 -11.1094 Q-35.5024 -12.4375 -35.9399 -13.4531 L-35.4242 -13.4531 Q-34.8617 -12.3906 -34.8617 -11.1094 Z" /></ns0:g><ns0:g transform="translate(105,52)" style="fill:rgb(0,5,255); text-rendering:geometricPrecision; color-rendering:optimizeQuality; image-rendering:optimizeQuality; font-family:'Open Sans'; stroke:rgb(0,5,255); color-interpolation:linearRGB;"><ns0:path style="stroke:none;" d="M-9.6384 -10.8438 L-10.7791 -10.8438 L-15.4666 -18.0312 L-15.5134 -18.0312 Q-15.4197 -16.7656 -15.4197 -15.7188 L-15.4197 -10.8438 L-16.3416 -10.8438 L-16.3416 -19.4062 L-15.2166 -19.4062 L-10.5447 -12.25 L-10.4978 -12.25 Q-10.4978 -12.4062 -10.5447 -13.2656 Q-10.5916 -14.125 -10.5759 -14.5 L-10.5759 -19.4062 L-9.6384 -19.4062 L-9.6384 -10.8438 Z" /><ns0:path style="stroke:none;" d="M-9.7322 -20.4062 L-10.7322 -20.4062 L-10.7322 -24.4375 L-15.2478 -24.4375 L-15.2478 -20.4062 L-16.2478 -20.4062 L-16.2478 -28.9688 L-15.2478 -28.9688 L-15.2478 -25.3281 L-10.7322 -25.3281 L-10.7322 -28.9688 L-9.7322 -28.9688 L-9.7322 -20.4062 Z" /></ns0:g><ns0:g transform="translate(105,52)" style="stroke-linecap:butt; text-rendering:geometricPrecision; color-rendering:optimizeQuality; image-rendering:optimizeQuality; font-family:'Open Sans'; color-interpolation:linearRGB; stroke-miterlimit:5;"><ns0:path style="fill:none;" d="M-64.52 -14.75 L-64.953 -15 L-65.386 -14.75" /><ns0:path style="fill:none;" d="M12.557 -0.25 L12.99 0 L13.423 -0.25" /><ns0:path style="fill:rgb(230,0,0); stroke:none;" d="M-86.9955 -0.0703 Q-86.9955 1.9922 -88.0346 3.1719 Q-89.0736 4.3516 -90.9174 4.3516 Q-92.808 4.3516 -93.8392 3.1875 Q-94.8705 2.0234 -94.8705 -0.0859 Q-94.8705 -2.1797 -93.8392 -3.3281 Q-92.808 -4.4766 -90.9174 -4.4766 Q-89.058 -4.4766 -88.0267 -3.3047 Q-86.9955 -2.1328 -86.9955 -0.0703 ZM-93.8236 -0.0703 Q-93.8236 1.6641 -93.0814 2.5703 Q-92.3392 3.4766 -90.9174 3.4766 Q-89.4955 3.4766 -88.7689 2.5781 Q-88.0424 1.6797 -88.0424 -0.0703 Q-88.0424 -1.8047 -88.7689 -2.6953 Q-89.4955 -3.5859 -90.9174 -3.5859 Q-92.3392 -3.5859 -93.0814 -2.6875 Q-93.8236 -1.7891 -93.8236 -0.0703 Z" /><ns0:path style="fill:rgb(230,0,0); stroke:none;" d="M-95.8705 4.2266 L-96.8705 4.2266 L-96.8705 0.1953 L-101.3861 0.1953 L-101.3861 4.2266 L-102.3861 4.2266 L-102.3861 -4.3359 L-101.3861 -4.3359 L-101.3861 -0.6953 L-96.8705 -0.6953 L-96.8705 -4.3359 L-95.8705 -4.3359 L-95.8705 4.2266 Z" /><ns0:path style="fill:rgb(230,0,0); stroke:none;" d="M-61.0155 -45.0703 Q-61.0155 -43.0078 -62.0546 -41.8281 Q-63.0936 -40.6484 -64.9374 -40.6484 Q-66.828 -40.6484 -67.8593 -41.8125 Q-68.8905 -42.9766 -68.8905 -45.0859 Q-68.8905 -47.1797 -67.8593 -48.3281 Q-66.828 -49.4766 -64.9374 -49.4766 Q-63.078 -49.4766 -62.0468 -48.3047 Q-61.0155 -47.1328 -61.0155 -45.0703 ZM-67.8436 -45.0703 Q-67.8436 -43.3359 -67.1014 -42.4297 Q-66.3593 -41.5234 -64.9374 -41.5234 Q-63.5155 -41.5234 -62.7889 -42.4219 Q-62.0624 -43.3203 -62.0624 -45.0703 Q-62.0624 -46.8047 -62.7889 -47.6953 Q-63.5155 -48.5859 -64.9374 -48.5859 Q-66.3593 -48.5859 -67.1014 -47.6875 Q-67.8436 -46.7891 -67.8436 -45.0703 Z" /><ns0:path style="fill:rgb(230,0,0); stroke:none;" d="M-61.0155 44.9297 Q-61.0155 46.9922 -62.0546 48.1719 Q-63.0936 49.3516 -64.9374 49.3516 Q-66.828 49.3516 -67.8593 48.1875 Q-68.8905 47.0234 -68.8905 44.9141 Q-68.8905 42.8203 -67.8593 41.6719 Q-66.828 40.5234 -64.9374 40.5234 Q-63.078 40.5234 -62.0468 41.6953 Q-61.0155 42.8672 -61.0155 44.9297 ZM-67.8436 44.9297 Q-67.8436 46.6641 -67.1014 47.5703 Q-66.3593 48.4766 -64.9374 48.4766 Q-63.5155 48.4766 -62.7889 47.5781 Q-62.0624 46.6797 -62.0624 44.9297 Q-62.0624 43.1953 -62.7889 42.3047 Q-63.5155 41.4141 -64.9374 41.4141 Q-66.3593 41.4141 -67.1014 42.3125 Q-67.8436 43.2109 -67.8436 44.9297 Z" /><ns0:path style="fill:rgb(230,0,0); stroke:none;" d="M-69.8905 49.2266 L-70.8905 49.2266 L-70.8905 45.1953 L-75.4061 45.1953 L-75.4061 49.2266 L-76.4061 49.2266 L-76.4061 40.6641 L-75.4061 40.6641 L-75.4061 44.3047 L-70.8905 44.3047 L-70.8905 40.6641 L-69.8905 40.6641 L-69.8905 49.2266 Z" /></ns0:g><ns0:g transform="translate(105,52)" style="stroke-linecap:butt; font-size:8.4px; fill:gray; text-rendering:geometricPrecision; image-rendering:optimizeQuality; color-rendering:optimizeQuality; font-family:'Open Sans'; font-style:italic; stroke:gray; color-interpolation:linearRGB; stroke-miterlimit:5;"><ns0:path style="stroke:none;" d="M26.2012 -18.7968 Q26.2012 -20.1249 26.6699 -21.2499 Q27.1387 -22.3749 28.1699 -23.453 L28.7793 -23.453 Q27.8105 -22.3905 27.3262 -21.2186 Q26.8418 -20.0468 26.8418 -18.8124 Q26.8418 -17.4843 27.2793 -16.4686 L26.7637 -16.4686 Q26.2012 -17.4999 26.2012 -18.7968 ZM31.8237 -19.3905 Q31.8237 -18.5624 31.2768 -18.1093 Q30.73 -17.6561 29.73 -17.6561 Q29.3237 -17.6561 29.0112 -17.7108 Q28.6987 -17.7655 28.4175 -17.9061 L28.4175 -18.5624 Q29.0425 -18.2343 29.7456 -18.2343 Q30.3706 -18.2343 30.7456 -18.5311 Q31.1206 -18.828 31.1206 -19.3436 Q31.1206 -19.6561 30.9175 -19.8827 Q30.7143 -20.1093 30.1518 -20.4374 Q29.5581 -20.7655 29.3315 -21.0936 Q29.105 -21.4218 29.105 -21.8749 Q29.105 -22.6093 29.6206 -23.0702 Q30.1362 -23.5311 30.98 -23.5311 Q31.355 -23.5311 31.6909 -23.453 Q32.0268 -23.3749 32.4018 -23.203 L32.1362 -22.6093 Q31.8862 -22.7655 31.5659 -22.8515 Q31.2456 -22.9374 30.98 -22.9374 Q30.4487 -22.9374 30.1284 -22.664 Q29.8081 -22.3905 29.8081 -21.9218 Q29.8081 -21.7186 29.8784 -21.5702 Q29.9487 -21.4218 30.0893 -21.289 Q30.23 -21.1561 30.6518 -20.9061 Q31.2143 -20.5624 31.4175 -20.3671 Q31.6206 -20.1718 31.7222 -19.9374 Q31.8237 -19.703 31.8237 -19.3905 ZM34.4182 -21.1093 Q34.4182 -19.7811 33.9416 -18.6483 Q33.4651 -17.5155 32.4495 -16.4686 L31.8401 -16.4686 Q33.7776 -18.6249 33.7776 -21.1093 Q33.7776 -22.4374 33.3401 -23.453 L33.8557 -23.453 Q34.4182 -22.3905 34.4182 -21.1093 Z" /></ns0:g><ns0:g transform="translate(105,52)" style="stroke-linecap:butt; fill:rgb(230,0,0); text-rendering:geometricPrecision; color-rendering:optimizeQuality; image-rendering:optimizeQuality; font-family:'Open Sans'; stroke:rgb(230,0,0); color-interpolation:linearRGB; stroke-miterlimit:5;"><ns0:path style="stroke:none;" d="M16.9275 29.9297 Q16.9275 31.9922 15.8884 33.1719 Q14.8494 34.3516 13.0056 34.3516 Q11.115 34.3516 10.0837 33.1875 Q9.0525 32.0234 9.0525 29.9141 Q9.0525 27.8203 10.0837 26.6719 Q11.115 25.5234 13.0056 25.5234 Q14.865 25.5234 15.8962 26.6953 Q16.9275 27.8672 16.9275 29.9297 ZM10.0994 29.9297 Q10.0994 31.6641 10.8416 32.5703 Q11.5837 33.4766 13.0056 33.4766 Q14.4275 33.4766 15.1541 32.5781 Q15.8806 31.6797 15.8806 29.9297 Q15.8806 28.1953 15.1541 27.3047 Q14.4275 26.4141 13.0056 26.4141 Q11.5837 26.4141 10.8416 27.3125 Q10.0994 28.2109 10.0994 29.9297 Z" /><ns0:path style="fill:none; stroke:black;" d="M64.52 -0.25 L64.953 0 L65.386 -0.25" /><ns0:path style="fill:rgb(0,5,255); stroke:none;" d="M42.3216 -40.8438 L41.1809 -40.8438 L36.4934 -48.0312 L36.4466 -48.0312 Q36.5403 -46.7656 36.5403 -45.7188 L36.5403 -40.8438 L35.6184 -40.8438 L35.6184 -49.4062 L36.7434 -49.4062 L41.4153 -42.25 L41.4622 -42.25 Q41.4622 -42.4062 41.4153 -43.2656 Q41.3684 -44.125 41.3841 -44.5 L41.3841 -49.4062 L42.3216 -49.4062 L42.3216 -40.8438 Z" /><ns0:path style="fill:rgb(0,5,255); stroke:none;" d="M49.8372 -40.8438 L48.8372 -40.8438 L48.8372 -44.875 L44.3216 -44.875 L44.3216 -40.8438 L43.3216 -40.8438 L43.3216 -49.4062 L44.3216 -49.4062 L44.3216 -45.7656 L48.8372 -45.7656 L48.8372 -49.4062 L49.8372 -49.4062 L49.8372 -40.8438 Z" /><ns0:path style="fill:rgb(0,5,255); stroke:none;" d="M54.5872 -39.0344 L50.8372 -39.0344 L50.8372 -39.5969 L52.3372 -41.1125 Q53.0247 -41.8 53.2434 -42.0969 Q53.4622 -42.3937 53.5716 -42.675 Q53.6809 -42.9562 53.6809 -43.2844 Q53.6809 -43.7375 53.4075 -44.0031 Q53.1341 -44.2687 52.6341 -44.2687 Q52.2903 -44.2687 51.97 -44.1516 Q51.6497 -44.0344 51.2591 -43.7375 L50.9153 -44.175 Q51.6966 -44.8312 52.6341 -44.8312 Q53.4309 -44.8312 53.8919 -44.4172 Q54.3528 -44.0031 54.3528 -43.3156 Q54.3528 -42.7687 54.0481 -42.2375 Q53.7434 -41.7062 52.8997 -40.8937 L51.6497 -39.675 L51.6497 -39.6437 L54.5872 -39.6437 L54.5872 -39.0344 Z" /><ns0:path style="stroke:none;" d="M94.8705 -15.0703 Q94.8705 -13.0078 93.8314 -11.8281 Q92.7924 -10.6484 90.9486 -10.6484 Q89.058 -10.6484 88.0267 -11.8125 Q86.9955 -12.9766 86.9955 -15.0859 Q86.9955 -17.1797 88.0267 -18.3281 Q89.058 -19.4766 90.9486 -19.4766 Q92.808 -19.4766 93.8392 -18.3047 Q94.8705 -17.1328 94.8705 -15.0703 ZM88.0424 -15.0703 Q88.0424 -13.3359 88.7846 -12.4297 Q89.5267 -11.5234 90.9486 -11.5234 Q92.3705 -11.5234 93.0971 -12.4219 Q93.8236 -13.3203 93.8236 -15.0703 Q93.8236 -16.8047 93.0971 -17.6953 Q92.3705 -18.5859 90.9486 -18.5859 Q89.5267 -18.5859 88.7846 -17.6875 Q88.0424 -16.7891 88.0424 -15.0703 Z" /><ns0:path style="stroke:none;" d="M102.3861 -10.7734 L101.3861 -10.7734 L101.3861 -14.8047 L96.8705 -14.8047 L96.8705 -10.7734 L95.8705 -10.7734 L95.8705 -19.3359 L96.8705 -19.3359 L96.8705 -15.6953 L101.3861 -15.6953 L101.3861 -19.3359 L102.3861 -19.3359 L102.3861 -10.7734 Z" /></ns0:g></ns0:g></ns0:svg></ns0:svg></ns0:svg></ns0:svg></g></svg>