<svg xmlns:ns0="http://www.w3.org/2000/svg" xmlns="http://www.w3.org/2000/svg"><g transform="translate(0, 0)"><ns0:svg width="134" viewBox="0 0 134 94" style="fill-opacity:1; color-rendering:auto; color-interpolation:auto; text-rendering:auto; stroke:black; stroke-linecap:square; stroke-miterlimit:10; shape-rendering:auto; stroke-opacity:1; fill:black; stroke-dasharray:none; font-weight:normal; stroke-width:1; font-family:'Open Sans'; font-style:normal; stroke-linejoin:miter; font-size:12; stroke-dashoffset:0; image-rendering:auto;" height="94" class="cas-substance-image"><ns0:svg class="cas-substance-single-component"><ns0:rect y="0" x="0" width="134" stroke="none" ry="7" rx="7" height="94" fill="white" class="cas-substance-group" /><ns0:svg y="0" x="0" width="134" viewBox="0 0 134 94" style="fill:black;" height="94" class="cas-substance-single-component-image"><ns0:svg><ns0:g><ns0:g transform="translate(65,46)" style="text-rendering:geometricPrecision; color-rendering:optimizeQuality; color-interpolation:linearRGB; stroke-linecap:butt; image-rendering:optimizeQuality;"><ns0:line y2="12.99" y1="32.8317" x2="-15" x1="-26.456" style="fill:none;" /><ns0:line y2="-12.99" y1="-12.99" x2="-30" x1="-55.8147" style="fill:none;" /><ns0:line y2="-12.99" y1="-12.99" x2="30" x1="52.3311" style="fill:none;" /><ns0:line y2="-12.99" y1="12.99" x2="-30" x1="-15" style="fill:none;" /><ns0:line y2="-12.9901" y1="9.49" x2="-25.9585" x1="-12.9793" style="fill:none;" /><ns0:line y2="12.99" y1="12.99" x2="15" x1="-15" style="fill:none;" /><ns0:line y2="-33.0817" y1="-12.99" x2="-18.3997" x1="-30" style="fill:none;" /><ns0:line y2="-12.99" y1="12.99" x2="30" x1="15" style="fill:none;" /><ns0:line y2="-12.9901" y1="9.49" x2="25.9585" x1="12.9793" style="fill:none;" /><ns0:line y2="-38.97" y1="-38.97" x2="15" x1="-9.6484" style="fill:none;" /><ns0:line y2="-35.47" y1="-35.47" x2="12.9793" x1="-9.6484" style="fill:none;" /><ns0:line y2="-38.97" y1="-12.99" x2="15" x1="30" style="fill:none;" /></ns0:g><ns0:g transform="translate(65,46)" style="fill:rgb(0,5,255); text-rendering:geometricPrecision; color-rendering:optimizeQuality; image-rendering:optimizeQuality; font-family:'Open Sans'; stroke:rgb(0,5,255); color-interpolation:linearRGB;"><ns0:path style="stroke:none;" d="M-26.6484 43.1263 L-27.7891 43.1263 L-32.4766 35.9388 L-32.5234 35.9388 Q-32.4297 37.2044 -32.4297 38.2513 L-32.4297 43.1263 L-33.3516 43.1263 L-33.3516 34.5638 L-32.2266 34.5638 L-27.5547 41.72 L-27.5078 41.72 Q-27.5078 41.5638 -27.5547 40.7044 Q-27.6016 39.845 -27.5859 39.47 L-27.5859 34.5638 L-26.6484 34.5638 L-26.6484 43.1263 Z" /><ns0:path style="stroke:none;" d="M-39.1016 43.1263 L-40.1016 43.1263 L-40.1016 39.095 L-44.6172 39.095 L-44.6172 43.1263 L-45.6172 43.1263 L-45.6172 34.5638 L-44.6172 34.5638 L-44.6172 38.2044 L-40.1016 38.2044 L-40.1016 34.5638 L-39.1016 34.5638 L-39.1016 43.1263 Z" /><ns0:path style="stroke:none;" d="M-34.3516 44.9356 L-38.1016 44.9356 L-38.1016 44.3731 L-36.6016 42.8575 Q-35.9141 42.17 -35.6953 41.8731 Q-35.4766 41.5763 -35.3672 41.295 Q-35.2578 41.0138 -35.2578 40.6856 Q-35.2578 40.2325 -35.5312 39.9669 Q-35.8047 39.7013 -36.3047 39.7013 Q-36.6484 39.7013 -36.9688 39.8184 Q-37.2891 39.9356 -37.6797 40.2325 L-38.0234 39.795 Q-37.2422 39.1388 -36.3047 39.1388 Q-35.5078 39.1388 -35.0469 39.5528 Q-34.5859 39.9669 -34.5859 40.6544 Q-34.5859 41.2013 -34.8906 41.7325 Q-35.1953 42.2638 -36.0391 43.0763 L-37.2891 44.295 L-37.2891 44.3263 L-34.3516 44.3263 L-34.3516 44.9356 Z" /><ns0:path style="fill:rgb(0,138,0); stroke:none;" d="M-61.3906 -8.8337 L-62.3906 -8.8337 L-62.3906 -17.3962 L-57.6094 -17.3962 L-57.6094 -16.5212 L-61.3906 -16.5212 L-61.3906 -13.3806 L-57.8438 -13.3806 L-57.8438 -12.49 L-61.3906 -12.49 L-61.3906 -8.8337 Z" /><ns0:path style="fill:rgb(0,138,0); stroke:none;" d="M54.3311 -17.3962 L56.7529 -17.3962 Q58.4561 -17.3962 59.2217 -16.8884 Q59.9873 -16.3806 59.9873 -15.2869 Q59.9873 -14.5212 59.5654 -14.0212 Q59.1436 -13.5212 58.3154 -13.3806 L58.3154 -13.3181 Q60.2686 -12.99 60.2686 -11.2712 Q60.2686 -10.1306 59.4951 -9.4822 Q58.7217 -8.8337 57.3311 -8.8337 L54.3311 -8.8337 L54.3311 -17.3962 ZM55.3311 -13.74 L56.9717 -13.74 Q58.0342 -13.74 58.4951 -14.0681 Q58.9561 -14.3962 58.9561 -15.1775 Q58.9561 -15.8962 58.4404 -16.2166 Q57.9248 -16.5369 56.7998 -16.5369 L55.3311 -16.5369 L55.3311 -13.74 ZM55.3311 -12.8962 L55.3311 -9.6775 L57.1279 -9.6775 Q58.1592 -9.6775 58.6826 -10.0837 Q59.2061 -10.49 59.2061 -11.3494 Q59.2061 -12.1462 58.667 -12.5212 Q58.1279 -12.8962 57.0342 -12.8962 L55.3311 -12.8962 ZM64.9033 -15.3806 Q65.3252 -15.3806 65.6689 -15.3025 L65.5283 -14.3962 Q65.1377 -14.49 64.8252 -14.49 Q64.0439 -14.49 63.4893 -13.8572 Q62.9346 -13.2244 62.9346 -12.2869 L62.9346 -8.8337 L61.9658 -8.8337 L61.9658 -15.2556 L62.7627 -15.2556 L62.8877 -14.0681 L62.9346 -14.0681 Q63.2783 -14.6931 63.7861 -15.0369 Q64.2939 -15.3806 64.9033 -15.3806 Z" /></ns0:g><ns0:g transform="translate(65,46)" style="stroke-linecap:butt; text-rendering:geometricPrecision; color-rendering:optimizeQuality; image-rendering:optimizeQuality; font-family:'Open Sans'; color-interpolation:linearRGB; stroke-miterlimit:5;"><ns0:path style="fill:none;" d="M-15.25 12.557 L-15 12.99 L-15.25 13.423" /><ns0:path style="fill:none;" d="M-29.75 -12.557 L-30 -12.99 L-30.5 -12.99" /><ns0:path style="fill:none;" d="M14.5 12.99 L15 12.99 L15.25 12.557" /><ns0:path style="fill:rgb(0,5,255); stroke:none;" d="M-11.6484 -34.8138 L-12.7891 -34.8138 L-17.4766 -42.0013 L-17.5234 -42.0013 Q-17.4297 -40.7356 -17.4297 -39.6888 L-17.4297 -34.8138 L-18.3516 -34.8138 L-18.3516 -43.3763 L-17.2266 -43.3763 L-12.5547 -36.22 L-12.5078 -36.22 Q-12.5078 -36.3763 -12.5547 -37.2356 Q-12.6016 -38.095 -12.5859 -38.47 L-12.5859 -43.3763 L-11.6484 -43.3763 L-11.6484 -34.8138 Z" /><ns0:path style="fill:none;" d="M29.75 -12.557 L30 -12.99 L30.5 -12.99" /><ns0:path style="fill:none;" d="M14.5 -38.97 L15 -38.97 L15.25 -38.537" /></ns0:g></ns0:g></ns0:svg></ns0:svg></ns0:svg></ns0:svg></g></svg>