<svg width="376" viewBox="0 0 376 71" style="fill-opacity:1; color-rendering:auto; color-interpolation:auto; text-rendering:auto; stroke:black; stroke-linecap:square; stroke-miterlimit:10; shape-rendering:auto; stroke-opacity:1; fill:black; stroke-dasharray:none; font-weight:normal; stroke-width:1; font-family:'Open Sans'; font-style:normal; stroke-linejoin:miter; font-size:12; stroke-dashoffset:0; image-rendering:auto;" height="71" class="cas-substance-image" xmlns:xlink="http://www.w3.org/1999/xlink" xmlns="http://www.w3.org/2000/svg"><svg class="cas-substance-single-component"><rect y="0" x="0" width="376" stroke="none" ry="7" rx="7" height="71" fill="white" class="cas-substance-group"/><svg y="0" x="0" width="376" viewBox="0 0 376 71" style="fill:black;" height="71" class="cas-substance-single-component-image"><svg><g><g transform="translate(185,37)" style="text-rendering:geometricPrecision; color-rendering:optimizeQuality; color-interpolation:linearRGB; stroke-linecap:butt; image-rendering:optimizeQuality;"><line y2="-15" y1="-30" x2="-77.943" x1="-103.923" style="fill:none;"/><line y2="-15" y1="-30" x2="-129.903" x1="-103.923" style="fill:none;"/><line y2="-30" y1="-15" x2="-51.963" x1="-77.943" style="fill:none;"/><line y2="-15" y1="-30" x2="-25.98" x1="-51.963" style="fill:none;"/><line y2="-26.8112" y1="-15" x2="-5.523" x1="-25.98" style="fill:none;"/><line y2="-15" y1="-26.8214" x2="25.98" x1="5.5054" style="fill:none;"/><line y2="-30" y1="-15" x2="51.963" x1="25.98" style="fill:none;"/><line y2="-15" y1="-30" x2="77.943" x1="51.963" style="fill:none;"/><line y2="-30" y1="-15" x2="103.923" x1="77.943" style="fill:none;"/><line y2="-15" y1="-30" x2="129.903" x1="103.923" style="fill:none;"/><line y2="-30" y1="-15" x2="155.886" x1="129.903" style="fill:none;"/><line y2="-19.2731" y1="-30" x2="174.465" x1="155.886" style="fill:none;"/><line y2="-30" y1="-15" x2="-155.886" x1="-129.903" style="fill:none;"/><line y2="-25.9585" y1="-12.9791" x2="-155.8859" x1="-133.4029" style="fill:none;"/><line y2="15" y1="-15" x2="-129.903" x1="-129.903" style="fill:none;"/><line y2="-15" y1="-30" x2="-181.866" x1="-155.886" style="fill:none;"/><line y2="30" y1="15" x2="-155.886" x1="-129.903" style="fill:none;"/><line y2="25.9585" y1="12.9791" x2="-155.8859" x1="-133.4029" style="fill:none;"/><line y2="15" y1="-15" x2="-181.866" x1="-181.866" style="fill:none;"/><line y2="12.9793" y1="-12.9793" x2="-178.366" x1="-178.366" style="fill:none;"/><line y2="15" y1="30" x2="-181.866" x1="-155.886" style="fill:none;"/><path style="fill:none; stroke-miterlimit:5;" d="M-103.49 -29.75 L-103.923 -30 L-104.356 -29.75"/><path style="fill:none; stroke-miterlimit:5;" d="M-78.376 -15.25 L-77.943 -15 L-77.51 -15.25"/><path style="fill:none; stroke-miterlimit:5;" d="M-52.396 -29.75 L-51.963 -30 L-51.53 -29.75"/><path style="fill:none; stroke-miterlimit:5;" d="M-26.413 -15.25 L-25.98 -15 L-25.547 -15.25"/></g><g transform="translate(185,37)" style="stroke-linecap:butt; fill:rgb(230,0,0); text-rendering:geometricPrecision; color-rendering:optimizeQuality; image-rendering:optimizeQuality; font-family:'Open Sans'; stroke:rgb(230,0,0); color-interpolation:linearRGB; stroke-miterlimit:5;"><path style="stroke:none;" d="M3.9375 -30.0703 Q3.9375 -28.0078 2.8984 -26.8281 Q1.8594 -25.6484 0.0156 -25.6484 Q-1.875 -25.6484 -2.9062 -26.8125 Q-3.9375 -27.9766 -3.9375 -30.0859 Q-3.9375 -32.1797 -2.9062 -33.3281 Q-1.875 -34.4766 0.0156 -34.4766 Q1.875 -34.4766 2.9062 -33.3047 Q3.9375 -32.1328 3.9375 -30.0703 ZM-2.8906 -30.0703 Q-2.8906 -28.3359 -2.1484 -27.4297 Q-1.4062 -26.5234 0.0156 -26.5234 Q1.4375 -26.5234 2.1641 -27.4219 Q2.8906 -28.3203 2.8906 -30.0703 Q2.8906 -31.8047 2.1641 -32.6953 Q1.4375 -33.5859 0.0156 -33.5859 Q-1.4062 -33.5859 -2.1484 -32.6875 Q-2.8906 -31.7891 -2.8906 -30.0703 Z"/><path style="fill:none; stroke:black;" d="M25.547 -15.25 L25.98 -15 L26.413 -15.25"/><path style="fill:none; stroke:black;" d="M51.53 -29.75 L51.963 -30 L52.396 -29.75"/><path style="fill:none; stroke:black;" d="M77.51 -15.25 L77.943 -15 L78.376 -15.25"/><path style="fill:none; stroke:black;" d="M103.49 -29.75 L103.923 -30 L104.356 -29.75"/><path style="fill:none; stroke:black;" d="M129.47 -15.25 L129.903 -15 L130.336 -15.25"/><path style="fill:none; stroke:black;" d="M155.453 -29.75 L155.886 -30 L156.319 -29.75"/><path style="fill:rgb(0,138,0); stroke:none;" d="M176.1971 -19.4062 L178.6189 -19.4062 Q180.3221 -19.4062 181.0877 -18.8984 Q181.8533 -18.3906 181.8533 -17.2969 Q181.8533 -16.5312 181.4314 -16.0312 Q181.0096 -15.5312 180.1814 -15.3906 L180.1814 -15.3281 Q182.1346 -15 182.1346 -13.2812 Q182.1346 -12.1406 181.3611 -11.4922 Q180.5877 -10.8438 179.1971 -10.8438 L176.1971 -10.8438 L176.1971 -19.4062 ZM177.1971 -15.75 L178.8377 -15.75 Q179.9002 -15.75 180.3611 -16.0781 Q180.8221 -16.4062 180.8221 -17.1875 Q180.8221 -17.9062 180.3064 -18.2266 Q179.7908 -18.5469 178.6658 -18.5469 L177.1971 -18.5469 L177.1971 -15.75 ZM177.1971 -14.9062 L177.1971 -11.6875 L178.9939 -11.6875 Q180.0252 -11.6875 180.5486 -12.0938 Q181.0721 -12.5 181.0721 -13.3594 Q181.0721 -14.1562 180.533 -14.5312 Q179.9939 -14.9062 178.9002 -14.9062 L177.1971 -14.9062 ZM186.7693 -17.3906 Q187.1912 -17.3906 187.5349 -17.3125 L187.3943 -16.4062 Q187.0037 -16.5 186.6912 -16.5 Q185.9099 -16.5 185.3553 -15.8672 Q184.8006 -15.2344 184.8006 -14.2969 L184.8006 -10.8438 L183.8318 -10.8438 L183.8318 -17.2656 L184.6287 -17.2656 L184.7537 -16.0781 L184.8006 -16.0781 Q185.1443 -16.7031 185.6521 -17.0469 Q186.1599 -17.3906 186.7693 -17.3906 Z"/><path style="fill:none; stroke:black;" d="M-130.336 -15.25 L-129.903 -15 L-129.47 -15.25"/><path style="fill:none; stroke:black;" d="M-155.453 -29.75 L-155.886 -30 L-156.319 -29.75"/><path style="fill:none; stroke:black;" d="M-129.903 14.5 L-129.903 15 L-130.336 15.25"/><path style="fill:none; stroke:black;" d="M-181.433 -15.25 L-181.866 -15 L-181.866 -14.5"/><path style="fill:none; stroke:black;" d="M-155.453 29.75 L-155.886 30 L-156.319 29.75"/><path style="fill:none; stroke:black;" d="M-181.866 14.5 L-181.866 15 L-181.433 15.25"/></g></g></svg></svg></svg></svg>