<svg width="382" viewBox="0 0 382 230" style="fill-opacity:1; color-rendering:auto; color-interpolation:auto; text-rendering:auto; stroke:black; stroke-linecap:square; stroke-miterlimit:10; shape-rendering:auto; stroke-opacity:1; fill:black; stroke-dasharray:none; font-weight:normal; stroke-width:1; font-family:'Open Sans'; font-style:normal; stroke-linejoin:miter; font-size:12; stroke-dashoffset:0; image-rendering:auto;" height="230" class="cas-substance-image" xmlns:xlink="http://www.w3.org/1999/xlink" xmlns="http://www.w3.org/2000/svg"><svg class="cas-substance-single-component"><rect y="0" x="0" width="382" stroke="none" ry="7" rx="7" height="230" fill="white" class="cas-substance-group"/><svg y="0" x="0" width="382" viewBox="0 0 382 215" style="fill:black;" height="215" class="cas-substance-single-component-image"><svg><g><g transform="translate(191,107)" style="text-rendering:geometricPrecision; color-rendering:optimizeQuality; color-interpolation:linearRGB; stroke-linecap:butt; image-rendering:optimizeQuality;"><line y2="-25.98" y1="-46.0747" x2="82.5" x1="94.1007" style="fill:none;"/><line y2="103.923" y1="83.591" x2="127.5" x1="139.239" style="fill:none;"/><line y2="51.963" y1="72.2154" x2="127.5" x1="139.1931" style="fill:none;"/><line y2="0" y1="20.2583" x2="187.5" x1="175.8035" style="fill:none;"/><line y2="25.98" y1="25.98" x2="142.5" x1="166.5625" style="fill:none;"/><line y2="19.3833" y1="-1.75" x2="-95.712" x1="-83.5104" style="fill:none;"/><line y2="21.1333" y1="0" x2="-92.681" x1="-80.4793" style="fill:none;"/><line y2="0" y1="0" x2="-57.8516" x1="-82.5" style="fill:none;"/><line y2="-25.98" y1="0" x2="-97.5" x1="-82.5" style="fill:none;"/><line y2="0" y1="25.98" x2="97.5" x1="82.5" style="fill:none;"/><line y2="-0.0001" y1="22.48" x2="93.4585" x1="80.4793" style="fill:none;"/><line y2="25.98" y1="25.98" x2="57.8516" x1="82.5" style="fill:none;"/><line y2="51.963" y1="25.98" x2="97.5" x1="82.5" style="fill:none;"/><line y2="0" y1="0" x2="127.5" x1="97.5" style="fill:none;"/><line y2="-25.98" y1="0" x2="82.5" x1="97.5" style="fill:none;"/><line y2="0" y1="19.8417" x2="37.5" x1="48.956" style="fill:none;"/><line y2="-0.0001" y1="18.0917" x2="41.5415" x1="51.987" style="fill:none;"/><line y2="51.963" y1="51.963" x2="127.5" x1="97.5" style="fill:none;"/><line y2="48.463" y1="48.463" x2="125.4793" x1="99.5207" style="fill:none;"/><line y2="25.98" y1="0" x2="142.5" x1="127.5" style="fill:none;"/><line y2="25.9801" y1="3.5" x2="138.4585" x1="125.4793" style="fill:none;"/><line y2="-25.98" y1="-25.98" x2="57.8516" x1="82.5" style="fill:none;"/><line y2="-22.48" y1="-22.48" x2="57.8516" x1="80.4793" style="fill:none;"/><line y2="-20.0917" y1="0" x2="49.1003" x1="37.5" style="fill:none;"/><line y2="0" y1="0" x2="12.8516" x1="37.5" style="fill:none;"/><line y2="25.98" y1="51.963" x2="142.5" x1="127.5" style="fill:none;"/><line y2="25.98" y1="5.8883" x2="-7.5" x1="4.1003" style="fill:none;"/><line y2="-25.98" y1="-6.1383" x2="-7.5" x1="3.956" style="fill:none;"/><line y2="25.98" y1="25.98" x2="-37.5" x1="-7.5" style="fill:none;"/><line y2="-25.98" y1="-25.98" x2="-37.5" x1="-7.5" style="fill:none;"/><line y2="5.8883" y1="25.98" x2="-49.1003" x1="-37.5" style="fill:none;"/><line y2="-6.1383" y1="-25.98" x2="-48.956" x1="-37.5" style="fill:none;"/><line y2="-25.98" y1="-25.98" x2="-121.5625" x1="-97.5" style="fill:none;"/><line y2="-51.963" y1="-25.98" x2="-82.5" x1="-97.5" style="fill:none;"/><line y2="-51.963" y1="-31.7078" x2="-142.5" x1="-130.8067" style="fill:none;"/><line y2="-72.3073" y1="-51.963" x2="-94.2461" x1="-82.5" style="fill:none;"/><line y2="-77.943" y1="-51.963" x2="-127.5" x1="-142.5" style="fill:none;"/><line y2="-51.963" y1="-51.963" x2="-172.5" x1="-142.5" style="fill:none;"/><line y2="-55.463" y1="-55.463" x2="-170.4793" x1="-144.5207" style="fill:none;"/><line y2="-77.943" y1="-77.943" x2="-127.5" x1="-103.4375" style="fill:none;"/><line y2="-103.923" y1="-77.943" x2="-142.5" x1="-127.5" style="fill:none;"/><line y2="-100.423" y1="-77.9429" x2="-144.5207" x1="-131.5415" style="fill:none;"/><line y2="-77.943" y1="-51.963" x2="-187.5" x1="-172.5" style="fill:none;"/><line y2="-103.923" y1="-103.923" x2="-172.5" x1="-142.5" style="fill:none;"/><line y2="-103.923" y1="-77.943" x2="-172.5" x1="-187.5" style="fill:none;"/><line y2="-100.423" y1="-77.9429" x2="-170.4793" x1="-183.4585" style="fill:none;"/></g><g transform="translate(191,107)" style="fill:rgb(0,5,255); text-rendering:geometricPrecision; color-rendering:optimizeQuality; image-rendering:optimizeQuality; font-family:'Open Sans'; stroke:rgb(0,5,255); color-interpolation:linearRGB;"><path style="stroke:none;" d="M100.8516 -47.8068 L99.7109 -47.8068 L95.0234 -54.9943 L94.9766 -54.9943 Q95.0703 -53.7286 95.0703 -52.6818 L95.0703 -47.8068 L94.1484 -47.8068 L94.1484 -56.3693 L95.2734 -56.3693 L99.9453 -49.213 L99.9922 -49.213 Q99.9922 -49.3693 99.9453 -50.2286 Q99.8984 -51.088 99.9141 -51.463 L99.9141 -56.3693 L100.8516 -56.3693 L100.8516 -47.8068 Z"/><path style="stroke:none;" d="M108.3672 -47.8068 L107.3672 -47.8068 L107.3672 -51.838 L102.8516 -51.838 L102.8516 -47.8068 L101.8516 -47.8068 L101.8516 -56.3693 L102.8516 -56.3693 L102.8516 -52.7286 L107.3672 -52.7286 L107.3672 -56.3693 L108.3672 -56.3693 L108.3672 -47.8068 Z"/><path style="stroke:none;" d="M113.1172 -45.9974 L109.3672 -45.9974 L109.3672 -46.5599 L110.8672 -48.0755 Q111.5547 -48.763 111.7734 -49.0599 Q111.9922 -49.3568 112.1016 -49.638 Q112.2109 -49.9193 112.2109 -50.2474 Q112.2109 -50.7005 111.9375 -50.9661 Q111.6641 -51.2318 111.1641 -51.2318 Q110.8203 -51.2318 110.5 -51.1146 Q110.1797 -50.9974 109.7891 -50.7005 L109.4453 -51.138 Q110.2266 -51.7943 111.1641 -51.7943 Q111.9609 -51.7943 112.4219 -51.3802 Q112.8828 -50.9661 112.8828 -50.2786 Q112.8828 -49.7318 112.5781 -49.2005 Q112.2734 -48.6693 111.4297 -47.8568 L110.1797 -46.638 L110.1797 -46.6068 L113.1172 -46.6068 L113.1172 -45.9974 Z"/><path style="fill:rgb(230,0,0); stroke:none;" d="M146.4375 77.8727 Q146.4375 79.9352 145.3984 81.1149 Q144.3594 82.2946 142.5156 82.2946 Q140.625 82.2946 139.5938 81.1305 Q138.5625 79.9664 138.5625 77.8571 Q138.5625 75.7633 139.5938 74.6149 Q140.625 73.4664 142.5156 73.4664 Q144.375 73.4664 145.4062 74.6383 Q146.4375 75.8102 146.4375 77.8727 ZM139.6094 77.8727 Q139.6094 79.6071 140.3516 80.5133 Q141.0938 81.4196 142.5156 81.4196 Q143.9375 81.4196 144.6641 80.5211 Q145.3906 79.6227 145.3906 77.8727 Q145.3906 76.1383 144.6641 75.2477 Q143.9375 74.3571 142.5156 74.3571 Q141.0938 74.3571 140.3516 75.2555 Q139.6094 76.1539 139.6094 77.8727 Z"/><path style="fill:rgb(230,0,0); stroke:none;" d="M176.4375 25.9097 Q176.4375 27.9722 175.3984 29.1519 Q174.3594 30.3316 172.5156 30.3316 Q170.625 30.3316 169.5938 29.1675 Q168.5625 28.0034 168.5625 25.8941 Q168.5625 23.8003 169.5938 22.6519 Q170.625 21.5034 172.5156 21.5034 Q174.375 21.5034 175.4062 22.6753 Q176.4375 23.8472 176.4375 25.9097 ZM169.6094 25.9097 Q169.6094 27.6441 170.3516 28.5503 Q171.0938 29.4566 172.5156 29.4566 Q173.9375 29.4566 174.6641 28.5581 Q175.3906 27.6597 175.3906 25.9097 Q175.3906 24.1753 174.6641 23.2847 Q173.9375 22.3941 172.5156 22.3941 Q171.0938 22.3941 170.3516 23.2925 Q169.6094 24.1909 169.6094 25.9097 Z"/></g><g transform="translate(191,107)" style="stroke-linecap:butt; text-rendering:geometricPrecision; color-rendering:optimizeQuality; image-rendering:optimizeQuality; font-family:'Open Sans'; color-interpolation:linearRGB; stroke-miterlimit:5;"><path style="fill:none;" d="M-82 0 L-82.5 0 L-82.75 -0.433"/><path style="fill:rgb(230,0,0); stroke:none;" d="M-93.5625 25.9097 Q-93.5625 27.9722 -94.6016 29.1519 Q-95.6406 30.3316 -97.4844 30.3316 Q-99.375 30.3316 -100.4062 29.1675 Q-101.4375 28.0034 -101.4375 25.8941 Q-101.4375 23.8003 -100.4062 22.6519 Q-99.375 21.5034 -97.4844 21.5034 Q-95.625 21.5034 -94.5938 22.6753 Q-93.5625 23.8472 -93.5625 25.9097 ZM-100.3906 25.9097 Q-100.3906 27.6441 -99.6484 28.5503 Q-98.9062 29.4566 -97.4844 29.4566 Q-96.0625 29.4566 -95.3359 28.5581 Q-94.6094 27.6597 -94.6094 25.9097 Q-94.6094 24.1753 -95.3359 23.2847 Q-96.0625 22.3941 -97.4844 22.3941 Q-98.9062 22.3941 -99.6484 23.2925 Q-100.3906 24.1909 -100.3906 25.9097 Z"/><path style="fill:none;" d="M82.75 25.547 L82.5 25.98 L82 25.98"/><path style="fill:none;" d="M97.25 0.433 L97.5 0 L98 0"/><path style="fill:rgb(0,5,255); stroke:none;" d="M55.8516 30.1362 L54.7109 30.1362 L50.0234 22.9487 L49.9766 22.9487 Q50.0703 24.2144 50.0703 25.2612 L50.0703 30.1362 L49.1484 30.1362 L49.1484 21.5737 L50.2734 21.5737 L54.9453 28.73 L54.9922 28.73 Q54.9922 28.5737 54.9453 27.7144 Q54.8984 26.855 54.9141 26.48 L54.9141 21.5737 L55.8516 21.5737 L55.8516 30.1362 Z"/><path style="fill:none;" d="M97.25 51.53 L97.5 51.963 L98 51.963"/><path style="fill:none;" d="M127 -0 L127.5 0 L127.75 0.433"/><path style="fill:none;" d="M82 -25.98 L82.5 -25.98 L82.75 -26.413"/><path style="fill:none;" d="M37.75 0.433 L37.5 0 L37.75 -0.433"/><path style="fill:none;" d="M127 51.963 L127.5 51.963 L127.75 52.396"/><path style="fill:none;" d="M142.25 25.547 L142.5 25.98 L143 25.98"/><path style="fill:rgb(0,5,255); stroke:none;" d="M55.8516 -21.8237 L54.7109 -21.8237 L50.0234 -29.0112 L49.9766 -29.0112 Q50.0703 -27.7456 50.0703 -26.6987 L50.0703 -21.8237 L49.1484 -21.8237 L49.1484 -30.3862 L50.2734 -30.3862 L54.9453 -23.23 L54.9922 -23.23 Q54.9922 -23.3862 54.9453 -24.2456 Q54.8984 -25.105 54.9141 -25.48 L54.9141 -30.3862 L55.8516 -30.3862 L55.8516 -21.8237 Z"/><path style="fill:rgb(0,5,255); stroke:none;" d="M10.8516 4.1562 L9.7109 4.1562 L5.0234 -3.0312 L4.9766 -3.0312 Q5.0703 -1.7656 5.0703 -0.7188 L5.0703 4.1562 L4.1484 4.1562 L4.1484 -4.4062 L5.2734 -4.4062 L9.9453 2.75 L9.9922 2.75 Q9.9922 2.5938 9.9453 1.7344 Q9.8984 0.875 9.9141 0.5 L9.9141 -4.4062 L10.8516 -4.4062 L10.8516 4.1562 Z"/><path style="fill:none;" d="M-7.25 25.547 L-7.5 25.98 L-8 25.98"/><path style="fill:none;" d="M-7.25 -25.547 L-7.5 -25.98 L-8 -25.98"/><path style="fill:none;" d="M-37 25.98 L-37.5 25.98 L-37.75 25.547"/><path style="fill:none;" d="M-37 -25.98 L-37.5 -25.98 L-37.75 -25.547"/><path style="fill:rgb(0,5,255); stroke:none;" d="M-49.1484 4.1562 L-50.2891 4.1562 L-54.9766 -3.0312 L-55.0234 -3.0312 Q-54.9297 -1.7656 -54.9297 -0.7188 L-54.9297 4.1562 L-55.8516 4.1562 L-55.8516 -4.4062 L-54.7266 -4.4062 L-50.0547 2.75 L-50.0078 2.75 Q-50.0078 2.5938 -50.0547 1.7344 Q-50.1016 0.875 -50.0859 0.5 L-50.0859 -4.4062 L-49.1484 -4.4062 L-49.1484 4.1562 Z"/><path style="fill:rgb(230,0,0); stroke:none;" d="M-123.5625 -26.0503 Q-123.5625 -23.9878 -124.6016 -22.8081 Q-125.6406 -21.6284 -127.4844 -21.6284 Q-129.375 -21.6284 -130.4062 -22.7925 Q-131.4375 -23.9566 -131.4375 -26.0659 Q-131.4375 -28.1597 -130.4062 -29.3081 Q-129.375 -30.4566 -127.4844 -30.4566 Q-125.625 -30.4566 -124.5938 -29.2847 Q-123.5625 -28.1128 -123.5625 -26.0503 ZM-130.3906 -26.0503 Q-130.3906 -24.3159 -129.6484 -23.4097 Q-128.9062 -22.5034 -127.4844 -22.5034 Q-126.0625 -22.5034 -125.3359 -23.4019 Q-124.6094 -24.3003 -124.6094 -26.0503 Q-124.6094 -27.7847 -125.3359 -28.6753 Q-126.0625 -29.5659 -127.4844 -29.5659 Q-128.9062 -29.5659 -129.6484 -28.6675 Q-130.3906 -27.7691 -130.3906 -26.0503 Z"/><path style="fill:none;" d="M-82.75 -51.53 L-82.5 -51.963 L-82.75 -52.396"/><path style="fill:none;" d="M-143 -51.963 L-142.5 -51.963 L-142.25 -51.53"/><path style="fill:rgb(230,0,0); stroke:none;" d="M-93.5625 -78.0133 Q-93.5625 -75.9508 -94.6016 -74.7711 Q-95.6406 -73.5914 -97.4844 -73.5914 Q-99.375 -73.5914 -100.4062 -74.7555 Q-101.4375 -75.9196 -101.4375 -78.0289 Q-101.4375 -80.1227 -100.4062 -81.2711 Q-99.375 -82.4196 -97.4844 -82.4196 Q-95.625 -82.4196 -94.5938 -81.2477 Q-93.5625 -80.0758 -93.5625 -78.0133 ZM-100.3906 -78.0133 Q-100.3906 -76.2789 -99.6484 -75.3727 Q-98.9062 -74.4664 -97.4844 -74.4664 Q-96.0625 -74.4664 -95.3359 -75.3649 Q-94.6094 -76.2633 -94.6094 -78.0133 Q-94.6094 -79.7477 -95.3359 -80.6383 Q-96.0625 -81.5289 -97.4844 -81.5289 Q-98.9062 -81.5289 -99.6484 -80.6305 Q-100.3906 -79.7321 -100.3906 -78.0133 Z"/><path style="fill:none;" d="M-127.75 -78.376 L-127.5 -77.943 L-127.75 -77.51"/><path style="fill:none;" d="M-172 -51.963 L-172.5 -51.963 L-172.75 -52.396"/><path style="fill:none;" d="M-142.25 -103.49 L-142.5 -103.923 L-143 -103.923"/><path style="fill:none;" d="M-187.25 -77.51 L-187.5 -77.943 L-187.25 -78.376"/><path style="fill:none;" d="M-172 -103.923 L-172.5 -103.923 L-172.75 -103.49"/></g></g></svg></svg><svg y="215" x="183" class="cas-substance-saf"><svg y="5" x="0" width="4" style="fill:black;" height="4" class="cas-substance-saf-dot"><circle stroke="none" r="2" fill="black" cy="2" cx="2"/></svg><svg y="0" x="8" width="22" style="fill:black;" height="15" class="cas-substance-saf-image"><svg><g><g transform="translate(6,8)" style="fill:rgb(0,138,0); text-rendering:geometricPrecision; color-rendering:optimizeQuality; image-rendering:optimizeQuality; font-family:'Open Sans'; stroke:rgb(0,138,0); color-interpolation:linearRGB;"><path style="stroke:none;" d="M3.2578 4.1562 L2.2578 4.1562 L2.2578 0.125 L-2.2578 0.125 L-2.2578 4.1562 L-3.2578 4.1562 L-3.2578 -4.4062 L-2.2578 -4.4062 L-2.2578 -0.7656 L2.2578 -0.7656 L2.2578 -4.4062 L3.2578 -4.4062 L3.2578 4.1562 Z"/><path style="stroke:none;" d="M8.3672 -3.6406 Q6.9609 -3.6406 6.1406 -2.7031 Q5.3203 -1.7656 5.3203 -0.125 Q5.3203 1.5469 6.1094 2.4688 Q6.8984 3.3906 8.3516 3.3906 Q9.2578 3.3906 10.3984 3.0625 L10.3984 3.9375 Q9.5078 4.2812 8.2109 4.2812 Q6.3203 4.2812 5.2891 3.125 Q4.2578 1.9688 4.2578 -0.1406 Q4.2578 -1.4688 4.75 -2.4609 Q5.2422 -3.4531 6.1797 -3.9922 Q7.1172 -4.5312 8.3828 -4.5312 Q9.7266 -4.5312 10.7422 -4.0469 L10.3203 -3.1875 Q9.3359 -3.6406 8.3672 -3.6406 ZM13.0938 4.1562 L12.125 4.1562 L12.125 -4.9688 L13.0938 -4.9688 L13.0938 4.1562 Z"/></g></g></svg></svg></svg></svg></svg>