<svg xmlns:ns0="http://www.w3.org/2000/svg" xmlns="http://www.w3.org/2000/svg"><g transform="translate(0, 0)"><ns0:svg width="169" viewBox="0 0 169 109" style="fill-opacity:1; color-rendering:auto; color-interpolation:auto; text-rendering:auto; stroke:black; stroke-linecap:square; stroke-miterlimit:10; shape-rendering:auto; stroke-opacity:1; fill:black; stroke-dasharray:none; font-weight:normal; stroke-width:1; font-family:'Open Sans'; font-style:normal; stroke-linejoin:miter; font-size:12; stroke-dashoffset:0; image-rendering:auto;" height="109" class="cas-substance-image"><ns0:svg class="cas-substance-single-component"><ns0:rect y="0" x="0" width="169" stroke="none" ry="7" rx="7" height="109" fill="white" class="cas-substance-group" /><ns0:svg y="0" x="0" width="169" viewBox="0 0 169 109" style="fill:black;" height="109" class="cas-substance-single-component-image"><ns0:svg><ns0:g><ns0:g transform="translate(83,55)" style="text-rendering:geometricPrecision; color-rendering:optimizeQuality; color-interpolation:linearRGB; stroke-linecap:butt; image-rendering:optimizeQuality;"><ns0:line y2="-23.406" y1="-35.2274" x2="53.742" x1="33.2674" style="fill:none;" /><ns0:path style="stroke:none;" d="M20.0864 -37.3404 L19.273 -36.7485 L22.0796 -31.8817 L22.0796 -31.8817 L22.9987 -32.2902 L22.9987 -32.2902 L20.0864 -37.3404 ZM17.6462 -35.5648 L16.8329 -34.9729 L16.8329 -34.9729 L19.3221 -30.6563 L19.3221 -30.6563 L20.2413 -31.0648 L20.2413 -31.0648 L17.6462 -35.5648 ZM15.2061 -33.7892 L14.3927 -33.1973 L14.3927 -33.1973 L16.5646 -29.431 L16.5646 -29.431 L17.4838 -29.8394 L17.4838 -29.8394 L15.2061 -33.7892 ZM12.7659 -32.0135 L11.9525 -31.4217 L11.9525 -31.4217 L13.8071 -28.2056 L13.8071 -28.2056 L14.7263 -28.6141 L14.7263 -28.6141 L12.7659 -32.0135 ZM10.3257 -30.2379 L9.5123 -29.646 L9.5123 -29.646 L11.0496 -26.9802 L11.0496 -26.9802 L11.9688 -27.3887 L10.3257 -30.2379 ZM7.8855 -28.4623 L7.0722 -27.8704 L8.2921 -25.7549 L8.2921 -25.7549 L9.2113 -26.1633 L9.2113 -26.1633 L7.8855 -28.4623 ZM5.4454 -26.6866 L4.632 -26.0948 L4.632 -26.0948 L5.5346 -24.5295 L6.4538 -24.9379 L6.4538 -24.9379 L5.4454 -26.6866 ZM3.0052 -24.911 L2.1918 -24.3191 L2.1918 -24.3191 L2.7771 -23.3041 L2.7771 -23.3041 L3.6963 -23.7126 L3.6963 -23.7126 L3.0052 -24.911 Z" /><ns0:line y2="6.594" y1="-23.406" x2="53.742" x1="53.742" style="fill:none;" /><ns0:line y2="-33.7019" y1="-21.3853" x2="75.0767" x1="53.742" style="fill:none;" /><ns0:line y2="-36.733" y1="-24.4164" x2="73.3268" x1="51.992" style="fill:none;" /><ns0:line y2="-23.406" y1="-18.195" x2="-50.181" x1="-79.725" style="fill:none;" /><ns0:line y2="-23.406" y1="-51.594" x2="-50.181" x1="-60.441" style="fill:none;" /><ns0:path style="stroke:none;" d="M-24.7813 22.594 L-24.8647 23.594 L-23.5313 23.594 L-23.6147 22.594 ZM-25.0313 25.594 L-25.1147 26.594 L-23.2813 26.594 L-23.3647 25.594 ZM-25.2813 28.594 L-25.3647 29.594 L-23.0313 29.594 L-23.1147 28.594 ZM-25.5313 31.594 L-25.6147 32.594 L-22.7813 32.594 L-22.8647 31.594 ZM-25.7813 34.594 L-25.8647 35.594 L-22.5313 35.594 L-22.6147 34.594 ZM-26.0313 37.594 L-26.1147 38.594 L-22.2813 38.594 L-22.3647 37.594 ZM-26.2813 40.594 L-26.3647 41.594 L-22.0313 41.594 L-22.1147 40.594 ZM-26.5313 43.594 L-26.6147 44.594 L-21.7813 44.594 L-21.8647 43.594 ZM-26.7813 46.594 L-26.8647 47.594 L-21.5313 47.594 L-21.6147 46.594 ZM-27.0313 49.594 L-27.1147 50.594 L-21.2813 50.594 L-21.3647 49.594 Z" /><ns0:line y2="-38.406" y1="-23.406" x2="-24.198" x1="1.782" style="fill:none;" /><ns0:line y2="6.594" y1="-23.406" x2="1.782" x1="1.782" style="fill:none;" /><ns0:line y2="-23.406" y1="-38.406" x2="-50.181" x1="-24.198" style="fill:none;" /><ns0:line y2="21.594" y1="6.594" x2="-24.198" x1="1.782" style="fill:none;" /><ns0:line y2="6.594" y1="-23.406" x2="-50.181" x1="-50.181" style="fill:none;" /><ns0:line y2="6.594" y1="21.594" x2="-50.181" x1="-24.198" style="fill:none;" /></ns0:g><ns0:g transform="translate(83,55)" style="fill:rgb(230,0,0); text-rendering:geometricPrecision; color-rendering:optimizeQuality; image-rendering:optimizeQuality; font-family:'Open Sans'; stroke:rgb(230,0,0); color-interpolation:linearRGB;"><ns0:path style="stroke:none;" d="M31.6995 -38.4763 Q31.6995 -36.4138 30.6604 -35.2341 Q29.6214 -34.0544 27.7776 -34.0544 Q25.887 -34.0544 24.8558 -35.2185 Q23.8245 -36.3826 23.8245 -38.4919 Q23.8245 -40.5857 24.8558 -41.7341 Q25.887 -42.8826 27.7776 -42.8826 Q29.637 -42.8826 30.6683 -41.7107 Q31.6995 -40.5388 31.6995 -38.4763 ZM24.8714 -38.4763 Q24.8714 -36.7419 25.6136 -35.8357 Q26.3558 -34.9294 27.7776 -34.9294 Q29.1995 -34.9294 29.9261 -35.8279 Q30.6526 -36.7263 30.6526 -38.4763 Q30.6526 -40.2107 29.9261 -41.1013 Q29.1995 -41.9919 27.7776 -41.9919 Q26.3558 -41.9919 25.6136 -41.0935 Q24.8714 -40.1951 24.8714 -38.4763 Z" /></ns0:g><ns0:g transform="translate(83,55)" style="stroke-linecap:butt; text-rendering:geometricPrecision; color-rendering:optimizeQuality; image-rendering:optimizeQuality; font-family:'Open Sans'; color-interpolation:linearRGB; stroke-miterlimit:5;"><ns0:path style="fill:none;" d="M53.309 -23.656 L53.742 -23.406 L53.742 -22.906" /><ns0:path style="fill:rgb(230,0,0); stroke:none;" d="M83.6625 -38.4763 Q83.6625 -36.4138 82.6234 -35.2341 Q81.5844 -34.0544 79.7406 -34.0544 Q77.85 -34.0544 76.8187 -35.2185 Q75.7875 -36.3826 75.7875 -38.4919 Q75.7875 -40.5857 76.8187 -41.7341 Q77.85 -42.8826 79.7406 -42.8826 Q81.6 -42.8826 82.6312 -41.7107 Q83.6625 -40.5388 83.6625 -38.4763 ZM76.8344 -38.4763 Q76.8344 -36.7419 77.5766 -35.8357 Q78.3187 -34.9294 79.7406 -34.9294 Q81.1625 -34.9294 81.8891 -35.8279 Q82.6156 -36.7263 82.6156 -38.4763 Q82.6156 -40.2107 81.8891 -41.1013 Q81.1625 -41.9919 79.7406 -41.9919 Q78.3187 -41.9919 77.5766 -41.0935 Q76.8344 -40.1951 76.8344 -38.4763 Z" /><ns0:path style="fill:none;" d="M1.349 -23.656 L1.782 -23.406 L1.782 -22.906" /></ns0:g><ns0:g transform="translate(83,55)" style="stroke-linecap:butt; font-size:8.4px; fill:gray; text-rendering:geometricPrecision; image-rendering:optimizeQuality; color-rendering:optimizeQuality; font-family:'Open Sans'; font-style:italic; stroke:gray; color-interpolation:linearRGB; stroke-miterlimit:5;"><ns0:path style="stroke:none;" d="M-2.6066 -32.2419 Q-2.6066 -33.5701 -2.1379 -34.6951 Q-1.6691 -35.8201 -0.6379 -36.8982 L-0.0285 -36.8982 Q-0.9973 -35.8357 -1.4816 -34.6638 Q-1.966 -33.4919 -1.966 -32.2576 Q-1.966 -30.9294 -1.5285 -29.9138 L-2.0441 -29.9138 Q-2.6066 -30.9451 -2.6066 -32.2419 ZM0.9534 -33.5544 L0.4534 -31.1794 L-0.2028 -31.1794 L1.0003 -36.8982 L2.2503 -36.8982 Q3.9847 -36.8982 3.9847 -35.4607 Q3.9847 -34.1013 2.5472 -33.7107 L3.4847 -31.1794 L2.7659 -31.1794 L1.9378 -33.5544 L0.9534 -33.5544 ZM1.5315 -36.3044 Q1.1409 -34.3826 1.0784 -34.1326 L1.7347 -34.1326 Q2.4847 -34.1326 2.8909 -34.4607 Q3.2972 -34.7888 3.2972 -35.4138 Q3.2972 -35.8826 3.0394 -36.0935 Q2.7815 -36.3044 2.1878 -36.3044 L1.5315 -36.3044 ZM6.1706 -34.5544 Q6.1706 -33.2263 5.6941 -32.0935 Q5.2175 -30.9607 4.2019 -29.9138 L3.5925 -29.9138 Q5.53 -32.0701 5.53 -34.5544 Q5.53 -35.8826 5.0925 -36.8982 L5.6081 -36.8982 Q6.1706 -35.8357 6.1706 -34.5544 Z" /><ns0:path style="fill:none; stroke:black;" d="M-23.765 -38.156 L-24.198 -38.406 L-24.631 -38.156" /><ns0:path style="fill:none; stroke:black;" d="M1.782 6.094 L1.782 6.594 L1.349 6.844" /><ns0:path style="fill:none; stroke:black;" d="M-23.765 21.344 L-24.198 21.594 L-24.631 21.344" /><ns0:path style="stroke:none;" d="M-28.5869 12.7581 Q-28.5869 11.4299 -28.1181 10.3049 Q-27.6494 9.1799 -26.6181 8.1018 L-26.0088 8.1018 Q-26.9775 9.1643 -27.4619 10.3362 Q-27.9463 11.5081 -27.9463 12.7424 Q-27.9463 14.0706 -27.5088 15.0862 L-28.0244 15.0862 Q-28.5869 14.0549 -28.5869 12.7581 ZM-25.0268 11.4456 L-25.5268 13.8206 L-26.1831 13.8206 L-24.98 8.1018 L-23.73 8.1018 Q-21.9956 8.1018 -21.9956 9.5393 Q-21.9956 10.8987 -23.4331 11.2893 L-22.4956 13.8206 L-23.2143 13.8206 L-24.0425 11.4456 L-25.0268 11.4456 ZM-24.4487 8.6956 Q-24.8393 10.6174 -24.9018 10.8674 L-24.2456 10.8674 Q-23.4956 10.8674 -23.0893 10.5393 Q-22.6831 10.2112 -22.6831 9.5862 Q-22.6831 9.1174 -22.9409 8.9065 Q-23.1987 8.6956 -23.7925 8.6956 L-24.4487 8.6956 ZM-19.8096 10.4456 Q-19.8096 11.7737 -20.2862 12.9065 Q-20.7627 14.0393 -21.7784 15.0862 L-22.3877 15.0862 Q-20.4502 12.9299 -20.4502 10.4456 Q-20.4502 9.1174 -20.8877 8.1018 L-20.3721 8.1018 Q-19.8096 9.1643 -19.8096 10.4456 Z" /><ns0:path style="fill:none; stroke:black;" d="M-50.181 6.094 L-50.181 6.594 L-49.748 6.844" /></ns0:g></ns0:g></ns0:svg></ns0:svg></ns0:svg></ns0:svg></g></svg>