<svg width="100" viewBox="0 0 100 59" style="fill-opacity:1; color-rendering:auto; color-interpolation:auto; text-rendering:auto; stroke:black; stroke-linecap:square; stroke-miterlimit:10; shape-rendering:auto; stroke-opacity:1; fill:black; stroke-dasharray:none; font-weight:normal; stroke-width:1; font-family:'Open Sans'; font-style:normal; stroke-linejoin:miter; font-size:12; stroke-dashoffset:0; image-rendering:auto;" height="59" class="cas-substance-image" xmlns:xlink="http://www.w3.org/1999/xlink" xmlns="http://www.w3.org/2000/svg"><svg class="cas-substance-single-component"><rect y="0" x="0" width="100" stroke="none" ry="7" rx="7" height="59" fill="white" class="cas-substance-group"/><svg y="0" x="5" width="90" viewBox="0 0 90 59" style="fill:black;" height="59" class="cas-substance-single-component-image"><svg><g><g transform="translate(45,29)" style="text-rendering:geometricPrecision; color-rendering:optimizeQuality; color-interpolation:linearRGB; stroke-linecap:butt; image-rendering:optimizeQuality;"><line y2="4.0981" y1="19.284" x2="-23.3936" x1="-41.49" style="fill:none;"/><line y2="-4.0981" y1="-19.284" x2="-23.3936" x1="-41.49" style="fill:none;"/><line y2="5.8883" y1="25.98" x2="-15.1103" x1="-3.51" style="fill:none;"/><line y2="25.98" y1="25.98" x2="26.49" x1="-3.51" style="fill:none;"/><line y2="-25.98" y1="-6.1383" x2="-3.51" x1="-14.966" style="fill:none;"/><line y2="0" y1="25.98" x2="41.49" x1="26.49" style="fill:none;"/><line y2="-25.98" y1="-25.98" x2="26.49" x1="-3.51" style="fill:none;"/><line y2="-25.98" y1="0" x2="26.49" x1="41.49" style="fill:none;"/><path style="fill:none; stroke-miterlimit:5;" d="M-3.76 25.547 L-3.51 25.98 L-3.01 25.98"/></g><g transform="translate(45,29)" style="stroke-linecap:butt; fill:rgb(0,5,255); text-rendering:geometricPrecision; color-rendering:optimizeQuality; image-rendering:optimizeQuality; font-family:'Open Sans'; stroke:rgb(0,5,255); color-interpolation:linearRGB; stroke-miterlimit:5;"><path style="stroke:none;" d="M-15.1584 4.1562 L-16.2991 4.1562 L-20.9866 -3.0312 L-21.0334 -3.0312 Q-20.9397 -1.7656 -20.9397 -0.7188 L-20.9397 4.1562 L-21.8616 4.1562 L-21.8616 -4.4062 L-20.7366 -4.4062 L-16.0647 2.75 L-16.0178 2.75 Q-16.0178 2.5938 -16.0647 1.7344 Q-16.1116 0.875 -16.0959 0.5 L-16.0959 -4.4062 L-15.1584 -4.4062 L-15.1584 4.1562 Z"/><path style="fill:black; stroke:none;" d="M-12.0178 -2.8344 L-10.4084 -2.8344 L-10.4084 -2.2875 L-12.0178 -2.2875 L-12.0178 -0.6313 L-12.5491 -0.6313 L-12.5491 -2.2875 L-14.1584 -2.2875 L-14.1584 -2.8344 L-12.5491 -2.8344 L-12.5491 -4.5063 L-12.0178 -4.5063 L-12.0178 -2.8344 Z"/><path style="fill:none; stroke:black;" d="M25.99 25.98 L26.49 25.98 L26.74 25.547"/><path style="fill:none; stroke:black;" d="M-3.76 -25.547 L-3.51 -25.98 L-3.01 -25.98"/><path style="fill:none; stroke:black;" d="M41.24 0.433 L41.49 0 L41.24 -0.433"/><path style="fill:none; stroke:black;" d="M25.99 -25.98 L26.49 -25.98 L26.74 -25.547"/></g></g></svg></svg></svg></svg>