<svg xmlns:ns0="http://www.w3.org/2000/svg" xmlns="http://www.w3.org/2000/svg"><g transform="translate(0, 0)"><ns0:svg width="278" viewBox="0 0 278 28" style="fill-opacity:1; color-rendering:auto; color-interpolation:auto; text-rendering:auto; stroke:black; stroke-linecap:square; stroke-miterlimit:10; shape-rendering:auto; stroke-opacity:1; fill:black; stroke-dasharray:none; font-weight:normal; stroke-width:1; font-family:'Open Sans'; font-style:normal; stroke-linejoin:miter; font-size:12; stroke-dashoffset:0; image-rendering:auto;" height="28" class="cas-substance-image"><ns0:svg class="cas-substance-single-component"><ns0:rect y="0" x="0" width="278" stroke="none" ry="7" rx="7" height="28" fill="white" class="cas-substance-group" /><ns0:svg y="0" x="0" width="278" viewBox="0 0 278 28" style="fill:black;" height="28" class="cas-substance-single-component-image"><ns0:svg><ns0:g><ns0:g transform="translate(133,15)" style="text-rendering:geometricPrecision; color-rendering:optimizeQuality; color-interpolation:linearRGB; stroke-linecap:butt; image-rendering:optimizeQuality;"><ns0:line y2="-7.5" y1="7.5" x2="-25.98" x1="0" style="fill:none;" /><ns0:line y2="-3.4585" y1="9.5207" x2="-25.9801" x1="-3.5" style="fill:none;" /></ns0:g><ns0:g transform="translate(133,15)" style="stroke-linecap:butt; font-size:8.4px; fill:gray; text-rendering:geometricPrecision; image-rendering:optimizeQuality; color-rendering:optimizeQuality; font-family:'Open Sans'; font-style:italic; stroke:gray; color-interpolation:linearRGB;"><ns0:path style="stroke:none;" d="M-12.1373 -7.4961 Q-12.1373 -8.8243 -11.6685 -9.9493 Q-11.1998 -11.0743 -10.1685 -12.1524 L-9.5591 -12.1524 Q-10.5279 -11.0899 -11.0123 -9.918 Q-11.4966 -8.7461 -11.4966 -7.5118 Q-11.4966 -6.1836 -11.0591 -5.168 L-11.5748 -5.168 Q-12.1373 -6.1993 -12.1373 -7.4961 ZM-6.8741 -6.4336 L-9.7335 -6.4336 L-8.5303 -12.1524 L-5.6553 -12.1524 L-5.7803 -11.543 L-7.9991 -11.543 L-8.3741 -9.7149 L-6.3272 -9.7149 L-6.4366 -9.1211 L-8.4991 -9.1211 L-8.9522 -7.0274 L-6.7335 -7.0274 L-6.8741 -6.4336 ZM-3.8425 -9.8086 Q-3.8425 -8.4805 -4.3191 -7.3477 Q-4.7956 -6.2149 -5.8113 -5.168 L-6.4206 -5.168 Q-4.4831 -7.3243 -4.4831 -9.8086 Q-4.4831 -11.1368 -4.9206 -12.1524 L-4.405 -12.1524 Q-3.8425 -11.0899 -3.8425 -9.8086 Z" /><ns0:line y2="-7.5" y1="7.5" x2="25.98" x1="0" style="fill:none; stroke:black;" /><ns0:line y2="7.5" y1="-7.5" x2="-51.963" x1="-25.98" style="fill:none; stroke:black;" /><ns0:line y2="7.5" y1="-7.5" x2="51.963" x1="25.98" style="fill:none; stroke:black;" /><ns0:line y2="-7.5" y1="7.5" x2="-77.943" x1="-51.963" style="fill:none; stroke:black;" /><ns0:line y2="-7.5" y1="7.5" x2="77.943" x1="51.963" style="fill:none; stroke:black;" /><ns0:line y2="7.5" y1="-7.5" x2="-103.923" x1="-77.943" style="fill:none; stroke:black;" /><ns0:line y2="7.5" y1="-7.5" x2="103.923" x1="77.943" style="fill:none; stroke:black;" /><ns0:line y2="-7.5" y1="7.5" x2="-129.903" x1="-103.923" style="fill:none; stroke:black;" /><ns0:line y2="-4.3112" y1="7.5" x2="124.38" x1="103.923" style="fill:none; stroke:black;" /><ns0:path style="fill:none; stroke-miterlimit:5; stroke:black;" d="M-0.433 7.25 L0 7.5 L0.433 7.25" /><ns0:path style="fill:none; stroke-miterlimit:5; stroke:black;" d="M-25.547 -7.25 L-25.98 -7.5 L-26.413 -7.25" /><ns0:path style="fill:none; stroke-miterlimit:5; stroke:black;" d="M25.547 -7.25 L25.98 -7.5 L26.413 -7.25" /><ns0:path style="fill:none; stroke-miterlimit:5; stroke:black;" d="M-51.53 7.25 L-51.963 7.5 L-52.396 7.25" /><ns0:path style="fill:none; stroke-miterlimit:5; stroke:black;" d="M51.53 7.25 L51.963 7.5 L52.396 7.25" /><ns0:path style="fill:none; stroke-miterlimit:5; stroke:black;" d="M-77.51 -7.25 L-77.943 -7.5 L-78.376 -7.25" /><ns0:path style="fill:none; stroke-miterlimit:5; stroke:black;" d="M77.51 -7.25 L77.943 -7.5 L78.376 -7.25" /><ns0:path style="fill:none; stroke-miterlimit:5; stroke:black;" d="M-103.49 7.25 L-103.923 7.5 L-104.356 7.25" /><ns0:path style="fill:none; stroke-miterlimit:5; stroke:black;" d="M103.49 7.25 L103.923 7.5 L104.356 7.25" /></ns0:g><ns0:g transform="translate(133,15)" style="stroke-linecap:butt; fill:rgb(230,0,0); text-rendering:geometricPrecision; color-rendering:optimizeQuality; image-rendering:optimizeQuality; font-family:'Open Sans'; stroke:rgb(230,0,0); color-interpolation:linearRGB; stroke-miterlimit:5;"><ns0:path style="stroke:none;" d="M133.8405 -7.5703 Q133.8405 -5.5078 132.8014 -4.3281 Q131.7624 -3.1484 129.9186 -3.1484 Q128.028 -3.1484 126.9967 -4.3125 Q125.9655 -5.4766 125.9655 -7.5859 Q125.9655 -9.6797 126.9967 -10.8281 Q128.028 -11.9766 129.9186 -11.9766 Q131.778 -11.9766 132.8092 -10.8047 Q133.8405 -9.6328 133.8405 -7.5703 ZM127.0124 -7.5703 Q127.0124 -5.8359 127.7546 -4.9297 Q128.4967 -4.0234 129.9186 -4.0234 Q131.3405 -4.0234 132.0671 -4.9219 Q132.7936 -5.8203 132.7936 -7.5703 Q132.7936 -9.3047 132.0671 -10.1953 Q131.3405 -11.0859 129.9186 -11.0859 Q128.4967 -11.0859 127.7546 -10.1875 Q127.0124 -9.2891 127.0124 -7.5703 Z" /><ns0:path style="stroke:none;" d="M141.3561 -3.2734 L140.3561 -3.2734 L140.3561 -7.3047 L135.8405 -7.3047 L135.8405 -3.2734 L134.8405 -3.2734 L134.8405 -11.8359 L135.8405 -11.8359 L135.8405 -8.1953 L140.3561 -8.1953 L140.3561 -11.8359 L141.3561 -11.8359 L141.3561 -3.2734 Z" /></ns0:g></ns0:g></ns0:svg></ns0:svg></ns0:svg></ns0:svg></g></svg>