<svg width="178" viewBox="0 0 178 145" style="fill-opacity:1; color-rendering:auto; color-interpolation:auto; text-rendering:auto; stroke:black; stroke-linecap:square; stroke-miterlimit:10; shape-rendering:auto; stroke-opacity:1; fill:black; stroke-dasharray:none; font-weight:normal; stroke-width:1; font-family:'Open Sans'; font-style:normal; stroke-linejoin:miter; font-size:12; stroke-dashoffset:0; image-rendering:auto;" height="145" class="cas-substance-image" xmlns:xlink="http://www.w3.org/1999/xlink" xmlns="http://www.w3.org/2000/svg"><svg class="cas-substance-single-component"><rect y="0" x="0" width="178" stroke="none" ry="7" rx="7" height="145" fill="white" class="cas-substance-group"/><svg y="0" x="0" width="178" viewBox="0 0 178 145" style="fill:black;" height="145" class="cas-substance-single-component-image"><svg><g><g transform="translate(85,72)" style="text-rendering:geometricPrecision; color-rendering:optimizeQuality; color-interpolation:linearRGB; stroke-linecap:butt; image-rendering:optimizeQuality;"><line y2="13.152" y1="33.5364" x2="18.318" x1="30.0873" style="fill:none;"/><line y2="33.8375" y1="57.9943" x2="-30.3076" x1="-25.1734" style="fill:none;"/><line y2="34.5652" y1="58.7219" x2="-33.7311" x1="-28.597" style="fill:none;"/><line y2="-38.811" y1="-58.558" x2="-11.682" x1="-23.0833" style="fill:none;"/><line y2="-4.4396" y1="-21.1696" x2="-56.2511" x1="-74.8286" style="fill:none;"/><line y2="-7.0407" y1="-23.7704" x2="-53.9093" x1="-72.4864" style="fill:none;"/><line y2="-33.1628" y1="-12.828" x2="75.0573" x1="63.318" style="fill:none;"/><line y2="8.2994" y1="-12.828" x2="73.4955" x1="61.2973" style="fill:none;"/><line y2="6.5494" y1="-14.5781" x2="76.5266" x1="64.3283" style="fill:none;"/><line y2="-12.828" y1="-12.828" x2="33.318" x1="63.318" style="fill:none;"/><line y2="-12.828" y1="13.152" x2="-26.682" x1="-11.682" style="fill:none;"/><line y2="13.152" y1="13.152" x2="18.318" x1="-11.682" style="fill:none;"/><line y2="9.652" y1="9.652" x2="16.2973" x1="-9.6613" style="fill:none;"/><line y2="35.445" y1="13.152" x2="-31.755" x1="-11.682" style="fill:none;"/><line y2="-38.811" y1="-12.828" x2="-11.682" x1="-26.682" style="fill:none;"/><line y2="-35.3111" y1="-12.8282" x2="-9.6611" x1="-22.6405" style="fill:none;"/><line y2="-6.591" y1="-12.828" x2="-56.025" x1="-26.682" style="fill:none;"/><line y2="-12.828" y1="13.152" x2="33.318" x1="18.318" style="fill:none;"/><line y2="25.8105" y1="35.445" x2="-53.3954" x1="-31.755" style="fill:none;"/><line y2="-38.811" y1="-38.811" x2="18.318" x1="-11.682" style="fill:none;"/><line y2="16.7784" y1="-6.591" x2="-58.4806" x1="-56.025" style="fill:none;"/><line y2="-38.811" y1="-12.828" x2="18.318" x1="33.318" style="fill:none;"/><line y2="-35.3111" y1="-12.8282" x2="16.2971" x1="29.2766" style="fill:none;"/></g><g transform="translate(85,72)" style="fill:rgb(0,138,0); text-rendering:geometricPrecision; color-rendering:optimizeQuality; image-rendering:optimizeQuality; font-family:'Open Sans'; stroke:rgb(0,138,0); color-interpolation:linearRGB;"><path style="stroke:none;" d="M33.0094 35.7726 Q31.6032 35.7726 30.7828 36.7101 Q29.9625 37.6476 29.9625 39.2882 Q29.9625 40.9601 30.7516 41.882 Q31.5407 42.8039 32.9938 42.8039 Q33.9 42.8039 35.0407 42.4757 L35.0407 43.3507 Q34.15 43.6945 32.8532 43.6945 Q30.9625 43.6945 29.9313 42.5382 Q28.9 41.382 28.9 39.2726 Q28.9 37.9445 29.3922 36.9523 Q29.8844 35.9601 30.8219 35.4211 Q31.7594 34.882 33.025 34.882 Q34.3688 34.882 35.3844 35.3664 L34.9625 36.2257 Q33.9782 35.7726 33.0094 35.7726 ZM37.736 43.5695 L36.7672 43.5695 L36.7672 34.4445 L37.736 34.4445 L37.736 43.5695 Z"/><path style="fill:rgb(230,0,0); stroke:none;" d="M-21.5805 64.7207 Q-21.5805 66.7832 -22.6196 67.9629 Q-23.6586 69.1426 -25.5024 69.1426 Q-27.393 69.1426 -28.4242 67.9785 Q-29.4555 66.8144 -29.4555 64.7051 Q-29.4555 62.6113 -28.4242 61.4629 Q-27.393 60.3144 -25.5024 60.3144 Q-23.643 60.3144 -22.6117 61.4863 Q-21.5805 62.6582 -21.5805 64.7207 ZM-28.4086 64.7207 Q-28.4086 66.4551 -27.6664 67.3613 Q-26.9242 68.2676 -25.5024 68.2676 Q-24.0805 68.2676 -23.3539 67.3691 Q-22.6274 66.4707 -22.6274 64.7207 Q-22.6274 62.9863 -23.3539 62.0957 Q-24.0805 61.2051 -25.5024 61.2051 Q-26.9242 61.2051 -27.6664 62.1035 Q-28.4086 63.0019 -28.4086 64.7207 Z"/><path style="stroke:none;" d="M-26.9906 -68.1504 Q-28.3968 -68.1504 -29.2172 -67.2129 Q-30.0375 -66.2754 -30.0375 -64.6348 Q-30.0375 -62.9629 -29.2484 -62.041 Q-28.4593 -61.1191 -27.0062 -61.1191 Q-26.1 -61.1191 -24.9593 -61.4473 L-24.9593 -60.5723 Q-25.85 -60.2285 -27.1468 -60.2285 Q-29.0375 -60.2285 -30.0687 -61.3848 Q-31.1 -62.541 -31.1 -64.6504 Q-31.1 -65.9785 -30.6078 -66.9707 Q-30.1156 -67.9629 -29.1781 -68.5019 Q-28.2406 -69.041 -26.975 -69.041 Q-25.6312 -69.041 -24.6156 -68.5566 L-25.0375 -67.6973 Q-26.0218 -68.1504 -26.9906 -68.1504 ZM-22.264 -60.3535 L-23.2328 -60.3535 L-23.2328 -69.4785 L-22.264 -69.4785 L-22.264 -60.3535 Z"/><path style="fill:rgb(230,0,0); stroke:none;" d="M-74.3805 -26.7373 Q-74.3805 -24.6748 -75.4196 -23.4951 Q-76.4586 -22.3154 -78.3024 -22.3154 Q-80.193 -22.3154 -81.2243 -23.4795 Q-82.2555 -24.6436 -82.2555 -26.7529 Q-82.2555 -28.8467 -81.2243 -29.9951 Q-80.193 -31.1436 -78.3024 -31.1436 Q-76.443 -31.1436 -75.4118 -29.9717 Q-74.3805 -28.7998 -74.3805 -26.7373 ZM-81.2086 -26.7373 Q-81.2086 -25.0029 -80.4664 -24.0967 Q-79.7243 -23.1904 -78.3024 -23.1904 Q-76.8805 -23.1904 -76.1539 -24.0889 Q-75.4274 -24.9873 -75.4274 -26.7373 Q-75.4274 -28.4717 -76.1539 -29.3623 Q-76.8805 -30.2529 -78.3024 -30.2529 Q-79.7243 -30.2529 -80.4664 -29.3545 Q-81.2086 -28.4561 -81.2086 -26.7373 Z"/></g><g transform="translate(85,72)" style="stroke-linecap:butt; text-rendering:geometricPrecision; color-rendering:optimizeQuality; image-rendering:optimizeQuality; font-family:'Open Sans'; color-interpolation:linearRGB; stroke-miterlimit:5;"><path style="fill:none;" d="M63.568 -13.261 L63.318 -12.828 L62.818 -12.828"/><path style="fill:rgb(230,0,0); stroke:none;" d="M82.2555 -38.8813 Q82.2555 -36.8188 81.2164 -35.6391 Q80.1774 -34.4594 78.3336 -34.4594 Q76.443 -34.4594 75.4118 -35.6235 Q74.3805 -36.7876 74.3805 -38.8969 Q74.3805 -40.9907 75.4118 -42.1391 Q76.443 -43.2876 78.3336 -43.2876 Q80.193 -43.2876 81.2243 -42.1157 Q82.2555 -40.9438 82.2555 -38.8813 ZM75.4274 -38.8813 Q75.4274 -37.1469 76.1696 -36.2407 Q76.9118 -35.3344 78.3336 -35.3344 Q79.7555 -35.3344 80.4821 -36.2329 Q81.2086 -37.1313 81.2086 -38.8813 Q81.2086 -40.6157 80.4821 -41.5063 Q79.7555 -42.3969 78.3336 -42.3969 Q76.9118 -42.3969 76.1696 -41.4985 Q75.4274 -40.6001 75.4274 -38.8813 Z"/><path style="fill:rgb(230,0,0); stroke:none;" d="M89.7711 -34.5844 L88.7711 -34.5844 L88.7711 -38.6157 L84.2555 -38.6157 L84.2555 -34.5844 L83.2555 -34.5844 L83.2555 -43.1469 L84.2555 -43.1469 L84.2555 -39.5063 L88.7711 -39.5063 L88.7711 -43.1469 L89.7711 -43.1469 L89.7711 -34.5844 Z"/><path style="fill:rgb(230,0,0); stroke:none;" d="M82.2555 13.0817 Q82.2555 15.1442 81.2164 16.3239 Q80.1774 17.5036 78.3336 17.5036 Q76.443 17.5036 75.4118 16.3395 Q74.3805 15.1754 74.3805 13.0661 Q74.3805 10.9723 75.4118 9.8239 Q76.443 8.6754 78.3336 8.6754 Q80.193 8.6754 81.2243 9.8473 Q82.2555 11.0192 82.2555 13.0817 ZM75.4274 13.0817 Q75.4274 14.8161 76.1696 15.7223 Q76.9118 16.6286 78.3336 16.6286 Q79.7555 16.6286 80.4821 15.7301 Q81.2086 14.8317 81.2086 13.0817 Q81.2086 11.3473 80.4821 10.4567 Q79.7555 9.5661 78.3336 9.5661 Q76.9118 9.5661 76.1696 10.4645 Q75.4274 11.3629 75.4274 13.0817 Z"/><path style="fill:none;" d="M-11.182 13.152 L-11.682 13.152 L-11.932 12.719"/><path style="fill:none;" d="M-26.432 -13.261 L-26.682 -12.828 L-26.432 -12.395"/><path style="fill:none;" d="M17.818 13.152 L18.318 13.152 L18.568 13.585"/><path style="fill:none;" d="M-31.4204 35.0734 L-31.755 35.445 L-32.2118 35.2416"/><path style="fill:none;" d="M-11.932 -38.378 L-11.682 -38.811 L-11.182 -38.811"/><path style="fill:none;" d="M-55.5359 -6.695 L-56.025 -6.591 L-56.0772 -6.0937"/><path style="fill:none;" d="M33.068 -13.261 L33.318 -12.828 L33.818 -12.828"/><path style="fill:rgb(230,0,0); stroke:none;" d="M-55.2225 23.1737 Q-55.2225 25.2362 -56.2616 26.4159 Q-57.3006 27.5956 -59.1444 27.5956 Q-61.035 27.5956 -62.0662 26.4315 Q-63.0975 25.2674 -63.0975 23.1581 Q-63.0975 21.0643 -62.0662 19.9159 Q-61.035 18.7674 -59.1444 18.7674 Q-57.285 18.7674 -56.2537 19.9393 Q-55.2225 21.1112 -55.2225 23.1737 ZM-62.0506 23.1737 Q-62.0506 24.9081 -61.3084 25.8143 Q-60.5662 26.7206 -59.1444 26.7206 Q-57.7225 26.7206 -56.9959 25.8221 Q-56.2694 24.9237 -56.2694 23.1737 Q-56.2694 21.4393 -56.9959 20.5487 Q-57.7225 19.6581 -59.1444 19.6581 Q-60.5662 19.6581 -61.3084 20.5565 Q-62.0506 21.4549 -62.0506 23.1737 Z"/><path style="fill:none;" d="M17.818 -38.811 L18.318 -38.811 L18.568 -38.378"/></g></g></svg></svg></svg></svg>