<svg width="140" viewBox="0 0 140 134" style="fill-opacity:1; color-rendering:auto; color-interpolation:auto; text-rendering:auto; stroke:black; stroke-linecap:square; stroke-miterlimit:10; shape-rendering:auto; stroke-opacity:1; fill:black; stroke-dasharray:none; font-weight:normal; stroke-width:1; font-family:'Open Sans'; font-style:normal; stroke-linejoin:miter; font-size:12; stroke-dashoffset:0; image-rendering:auto;" height="134" class="cas-substance-image" xmlns:xlink="http://www.w3.org/1999/xlink" xmlns="http://www.w3.org/2000/svg"><svg class="cas-substance-single-component"><rect y="0" x="0" width="140" stroke="none" ry="7" rx="7" height="134" fill="white" class="cas-substance-group"/><svg y="0" x="0" width="140" viewBox="0 0 140 134" style="fill:black;" height="134" class="cas-substance-single-component-image"><svg><g><g transform="translate(72,65)" style="text-rendering:geometricPrecision; color-rendering:optimizeQuality; color-interpolation:linearRGB; stroke-linecap:butt; image-rendering:optimizeQuality;"><line y2="-13.761" y1="-25.2102" x2="-38.811" x1="-58.641" style="fill:none;"/><line y2="-32.7059" y1="-27.597" x2="40.7529" x1="64.791" style="fill:none;"/><line y2="31.239" y1="54.8528" x2="-12.828" x1="-12.828" style="fill:none;"/><line y2="-13.761" y1="-28.761" x2="13.152" x1="-12.828" style="fill:none;"/><line y2="-13.761" y1="-28.761" x2="-38.811" x1="-12.828" style="fill:none;"/><line y2="-11.7401" y1="-24.7195" x2="-35.3111" x1="-12.8282" style="fill:none;"/><line y2="-58.104" y1="-28.761" x2="-6.591" x1="-12.828" style="fill:none;"/><line y2="9.8328" y1="-13.761" x2="13.152" x1="13.152" style="fill:none;"/><line y2="9.8328" y1="-11.7403" x2="9.652" x1="9.652" style="fill:none;"/><line y2="-29.4779" y1="-13.761" x2="30.6072" x1="13.152" style="fill:none;"/><line y2="9.8328" y1="-13.761" x2="-38.811" x1="-38.811" style="fill:none;"/><line y2="-61.239" y1="-58.104" x2="23.244" x1="-6.591" style="fill:none;"/><line y2="-57.547" y1="-54.8343" x2="21.6001" x1="-4.2156" style="fill:none;"/><line y2="31.239" y1="19.1741" x2="-12.828" x1="8.0684" style="fill:none;"/><line y2="-61.239" y1="-40.0674" x2="23.244" x1="32.6698" style="fill:none;"/><line y2="31.239" y1="19.1738" x2="-12.828" x1="-33.7274" style="fill:none;"/><line y2="27.1975" y1="16.1426" x2="-12.8281" x1="-31.9775" style="fill:none;"/></g><g transform="translate(72,65)" style="fill:rgb(0,138,0); text-rendering:geometricPrecision; color-rendering:optimizeQuality; image-rendering:optimizeQuality; font-family:'Open Sans'; stroke:rgb(0,138,0); color-interpolation:linearRGB;"><path style="stroke:none;" d="M-65.0996 -32.1204 Q-66.5058 -32.1204 -67.3262 -31.1829 Q-68.1465 -30.2454 -68.1465 -28.6047 Q-68.1465 -26.9329 -67.3574 -26.011 Q-66.5683 -25.0891 -65.1152 -25.0891 Q-64.209 -25.0891 -63.0683 -25.4172 L-63.0683 -24.5422 Q-63.959 -24.1985 -65.2558 -24.1985 Q-67.1465 -24.1985 -68.1777 -25.3547 Q-69.209 -26.511 -69.209 -28.6204 Q-69.209 -29.9485 -68.7168 -30.9407 Q-68.2246 -31.9329 -67.2871 -32.4719 Q-66.3496 -33.011 -65.084 -33.011 Q-63.7402 -33.011 -62.7246 -32.5266 L-63.1465 -31.6672 Q-64.1308 -32.1204 -65.0996 -32.1204 ZM-60.373 -24.3235 L-61.3418 -24.3235 L-61.3418 -33.4485 L-60.373 -33.4485 L-60.373 -24.3235 Z"/><path style="stroke:none;" d="M-13.1366 57.8796 Q-14.5428 57.8796 -15.3632 58.8171 Q-16.1835 59.7546 -16.1835 61.3952 Q-16.1835 63.0671 -15.3944 63.989 Q-14.6053 64.9109 -13.1522 64.9109 Q-12.246 64.9109 -11.1053 64.5827 L-11.1053 65.4577 Q-11.996 65.8015 -13.2928 65.8015 Q-15.1835 65.8015 -16.2147 64.6452 Q-17.246 63.489 -17.246 61.3796 Q-17.246 60.0515 -16.7538 59.0593 Q-16.2616 58.0671 -15.3241 57.5281 Q-14.3866 56.989 -13.121 56.989 Q-11.7772 56.989 -10.7616 57.4734 L-11.1835 58.3327 Q-12.1678 57.8796 -13.1366 57.8796 ZM-8.41 65.6765 L-9.3788 65.6765 L-9.3788 56.5515 L-8.41 56.5515 L-8.41 65.6765 Z"/></g><g transform="translate(72,65)" style="stroke-linecap:butt; text-rendering:geometricPrecision; color-rendering:optimizeQuality; image-rendering:optimizeQuality; font-family:'Open Sans'; color-interpolation:linearRGB; stroke-miterlimit:5;"><path style="fill:none;" d="M-13.261 -28.511 L-12.828 -28.761 L-12.724 -29.2501"/><path style="fill:none;" d="M13.152 -13.261 L13.152 -13.761 L13.5236 -14.0956"/><path style="fill:none;" d="M-38.378 -14.011 L-38.811 -13.761 L-38.811 -13.261"/><path style="fill:none;" d="M-6.695 -57.6149 L-6.591 -58.104 L-6.0937 -58.1562"/><path style="fill:rgb(0,5,255); stroke:none;" d="M16.5036 20.3953 L15.3629 20.3953 L10.6754 13.2078 L10.6286 13.2078 Q10.7223 14.4734 10.7223 15.5203 L10.7223 20.3953 L9.8004 20.3953 L9.8004 11.8328 L10.9254 11.8328 L15.5973 18.989 L15.6442 18.989 Q15.6442 18.8328 15.5973 17.9734 Q15.5504 17.114 15.5661 16.739 L15.5661 11.8328 L16.5036 11.8328 L16.5036 20.3953 Z"/><path style="fill:rgb(0,5,255); stroke:none;" d="M38.7966 -29.6777 L37.6559 -29.6777 L32.9684 -36.8652 L32.9216 -36.8652 Q33.0153 -35.5996 33.0153 -34.5527 L33.0153 -29.6777 L32.0934 -29.6777 L32.0934 -38.2402 L33.2184 -38.2402 L37.8903 -31.084 L37.9372 -31.084 Q37.9372 -31.2402 37.8903 -32.0996 Q37.8434 -32.959 37.8591 -33.334 L37.8591 -38.2402 L38.7966 -38.2402 L38.7966 -29.6777 Z"/><path style="fill:rgb(0,5,255); stroke:none;" d="M-35.4594 20.3953 L-36.6001 20.3953 L-41.2876 13.2078 L-41.3344 13.2078 Q-41.2407 14.4734 -41.2407 15.5203 L-41.2407 20.3953 L-42.1626 20.3953 L-42.1626 11.8328 L-41.0376 11.8328 L-36.3657 18.989 L-36.3188 18.989 Q-36.3188 18.8328 -36.3657 17.9734 Q-36.4126 17.114 -36.3969 16.739 L-36.3969 11.8328 L-35.4594 11.8328 L-35.4594 20.3953 Z"/><path style="fill:none;" d="M22.7467 -61.1868 L23.244 -61.239 L23.4474 -60.7822"/><path style="fill:none;" d="M-13.261 30.989 L-12.828 31.239 L-12.395 30.989"/></g></g></svg></svg></svg></svg>