<svg xmlns:ns0="http://www.w3.org/2000/svg" xmlns="http://www.w3.org/2000/svg"><g transform="translate(0, 0)"><ns0:svg width="162" viewBox="0 0 162 30" style="fill-opacity:1; color-rendering:auto; color-interpolation:auto; text-rendering:auto; stroke:black; stroke-linecap:square; stroke-miterlimit:10; shape-rendering:auto; stroke-opacity:1; fill:black; stroke-dasharray:none; font-weight:normal; stroke-width:1; font-family:'Open Sans'; font-style:normal; stroke-linejoin:miter; font-size:12; stroke-dashoffset:0; image-rendering:auto;" height="30" class="cas-substance-image"><ns0:svg class="cas-substance-single-component"><ns0:rect y="0" x="0" width="162" stroke="none" ry="7" rx="7" height="30" fill="white" class="cas-substance-group" /><ns0:svg y="0" x="0" width="162" viewBox="0 0 162 30" style="fill:black;" height="30" class="cas-substance-single-component-image"><ns0:svg><ns0:g><ns0:g transform="translate(81,15)" style="text-rendering:geometricPrecision; color-rendering:optimizeQuality; color-interpolation:linearRGB; stroke-linecap:butt; image-rendering:optimizeQuality;"><ns0:line y2="-7.5" y1="7.5" x2="25.98" x1="0" style="fill:none;" /><ns0:line y2="-4.3214" y1="7.5" x2="-20.4746" x1="0" style="fill:none;" /><ns0:line y2="4.2588" y1="-7.5" x2="46.3487" x1="25.98" style="fill:none;" /><ns0:line y2="7.5" y1="-4.3114" x2="-51.963" x1="-31.5032" style="fill:none;" /><ns0:line y2="-7.5" y1="4.274" x2="77.943" x1="57.5505" style="fill:none;" /><ns0:line y2="-7.5" y1="7.5" x2="-77.943" x1="-51.963" style="fill:none;" /><ns0:line y2="-10.5311" y1="3.4585" x2="-76.193" x1="-51.963" style="fill:none;" /><ns0:path style="fill:none; stroke-miterlimit:5;" d="M0.433 7.25 L0 7.5 L-0.433 7.25" /><ns0:path style="fill:none; stroke-miterlimit:5;" d="M25.547 -7.25 L25.98 -7.5 L26.413 -7.25" /></ns0:g><ns0:g transform="translate(81,15)" style="stroke-linecap:butt; fill:rgb(230,0,0); text-rendering:geometricPrecision; color-rendering:optimizeQuality; image-rendering:optimizeQuality; font-family:'Open Sans'; stroke:rgb(230,0,0); color-interpolation:linearRGB; stroke-miterlimit:5;"><ns0:path style="stroke:none;" d="M-22.0425 -7.5703 Q-22.0425 -5.5078 -23.0816 -4.3281 Q-24.1206 -3.1484 -25.9644 -3.1484 Q-27.855 -3.1484 -28.8862 -4.3125 Q-29.9175 -5.4766 -29.9175 -7.5859 Q-29.9175 -9.6797 -28.8862 -10.8281 Q-27.855 -11.9766 -25.9644 -11.9766 Q-24.105 -11.9766 -23.0737 -10.8047 Q-22.0425 -9.6328 -22.0425 -7.5703 ZM-28.8706 -7.5703 Q-28.8706 -5.8359 -28.1284 -4.9297 Q-27.3862 -4.0234 -25.9644 -4.0234 Q-24.5425 -4.0234 -23.8159 -4.9219 Q-23.0894 -5.8203 -23.0894 -7.5703 Q-23.0894 -9.3047 -23.8159 -10.1953 Q-24.5425 -11.0859 -25.9644 -11.0859 Q-27.3862 -11.0859 -28.1284 -10.1875 Q-28.8706 -9.2891 -28.8706 -7.5703 Z" /><ns0:path style="stroke:none;" d="M55.9005 7.4297 Q55.9005 9.4922 54.8614 10.6719 Q53.8224 11.8516 51.9786 11.8516 Q50.088 11.8516 49.0568 10.6875 Q48.0255 9.5234 48.0255 7.4141 Q48.0255 5.3203 49.0568 4.1719 Q50.088 3.0234 51.9786 3.0234 Q53.838 3.0234 54.8693 4.1953 Q55.9005 5.3672 55.9005 7.4297 ZM49.0724 7.4297 Q49.0724 9.1641 49.8146 10.0703 Q50.5568 10.9766 51.9786 10.9766 Q53.4005 10.9766 54.1271 10.0781 Q54.8536 9.1797 54.8536 7.4297 Q54.8536 5.6953 54.1271 4.8047 Q53.4005 3.9141 51.9786 3.9141 Q50.5568 3.9141 49.8146 4.8125 Q49.0724 5.7109 49.0724 7.4297 Z" /><ns0:path style="fill:none; stroke:black;" d="M-51.53 7.25 L-51.963 7.5 L-52.396 7.25" /></ns0:g></ns0:g></ns0:svg></ns0:svg></ns0:svg></ns0:svg></g></svg>