<svg width="195" viewBox="0 0 195 67" style="fill-opacity:1; color-rendering:auto; color-interpolation:auto; text-rendering:auto; stroke:black; stroke-linecap:square; stroke-miterlimit:10; shape-rendering:auto; stroke-opacity:1; fill:black; stroke-dasharray:none; font-weight:normal; stroke-width:1; font-family:'Open Sans'; font-style:normal; stroke-linejoin:miter; font-size:12; stroke-dashoffset:0; image-rendering:auto;" height="67" class="cas-substance-image" xmlns:xlink="http://www.w3.org/1999/xlink" xmlns="http://www.w3.org/2000/svg"><svg class="cas-substance-single-component"><rect y="0" x="0" width="195" stroke="none" ry="7" rx="7" height="67" fill="white" class="cas-substance-group"/><svg y="0" x="0" width="195" viewBox="0 0 195 67" style="fill:black;" height="67" class="cas-substance-single-component-image"><svg><g><g transform="translate(98,34)" style="text-rendering:geometricPrecision; color-rendering:optimizeQuality; color-interpolation:linearRGB; stroke-linecap:butt; image-rendering:optimizeQuality;"><line y2="24.27" y1="0" x2="-13.569" x1="4.062" style="fill:none;"/><line y2="20.578" y1="-0.4222" x2="-15.213" x1="0.0427" style="fill:none;"/><line y2="-19.3549" y1="0" x2="-9.9984" x1="4.062" style="fill:none;"/><line y2="0" y1="0" x2="34.062" x1="4.062" style="fill:none;"/><line y2="15" y1="24.27" x2="-42.102" x1="-13.569" style="fill:none;"/><line y2="-15" y1="-22.7883" x2="-42.102" x1="-18.1295" style="fill:none;"/><line y2="-15" y1="15" x2="-42.102" x1="-42.102" style="fill:none;"/><line y2="30" y1="15" x2="-68.082" x1="-42.102" style="fill:none;"/><line y2="25.9585" y1="12.9793" x2="-68.082" x1="-45.602" style="fill:none;"/><line y2="-30" y1="-15" x2="-68.082" x1="-42.102" style="fill:none;"/><line y2="-25.9585" y1="-12.9793" x2="-68.082" x1="-45.602" style="fill:none;"/><line y2="15" y1="30" x2="-94.062" x1="-68.082" style="fill:none;"/><line y2="-15" y1="-30" x2="-94.062" x1="-68.082" style="fill:none;"/><line y2="-15" y1="15" x2="-94.062" x1="-94.062" style="fill:none;"/><line y2="-12.9793" y1="12.9793" x2="-90.562" x1="-90.562" style="fill:none;"/><line y2="25.98" y1="0" x2="49.062" x1="34.062" style="fill:none;"/><line y2="22.48" y1="-0.0001" x2="51.0827" x1="38.1035" style="fill:none;"/><line y2="-20.0917" y1="0" x2="45.6623" x1="34.062" style="fill:none;"/><line y2="25.98" y1="25.98" x2="79.062" x1="49.062" style="fill:none;"/><line y2="-25.98" y1="-25.98" x2="79.062" x1="54.4136" style="fill:none;"/><line y2="-22.48" y1="-22.48" x2="77.0413" x1="54.4136" style="fill:none;"/><line y2="0" y1="25.98" x2="94.062" x1="79.062" style="fill:none;"/><line y2="-0.0001" y1="22.48" x2="90.0206" x1="77.0413" style="fill:none;"/><line y2="0" y1="-25.98" x2="94.062" x1="79.062" style="fill:none;"/><path style="fill:none; stroke-miterlimit:5;" d="M3.7681 0.4045 L4.062 0 L3.7681 -0.4045"/><path style="fill:none; stroke-miterlimit:5;" d="M-13.2751 23.8655 L-13.569 24.27 L-14.0445 24.1155"/></g><g transform="translate(98,34)" style="stroke-linecap:butt; fill:rgb(148,108,0); text-rendering:geometricPrecision; color-rendering:optimizeQuality; image-rendering:optimizeQuality; font-family:'Open Sans'; stroke:rgb(148,108,0); color-interpolation:linearRGB; stroke-miterlimit:5;"><path style="stroke:none;" d="M-10.8737 -22.3325 Q-10.8737 -21.2075 -11.694 -20.5669 Q-12.5143 -19.9263 -13.9206 -19.9263 Q-15.4518 -19.9263 -16.2643 -20.3325 L-16.2643 -21.2856 Q-15.7331 -21.0669 -15.1159 -20.9341 Q-14.4987 -20.8013 -13.8893 -20.8013 Q-12.8893 -20.8013 -12.3893 -21.1841 Q-11.8893 -21.5669 -11.8893 -22.2388 Q-11.8893 -22.6763 -12.069 -22.9653 Q-12.2487 -23.2544 -12.6628 -23.4966 Q-13.0768 -23.7388 -13.9362 -24.0356 Q-15.1237 -24.4575 -15.6393 -25.0434 Q-16.1549 -25.6294 -16.1549 -26.5825 Q-16.1549 -27.5669 -15.4128 -28.1528 Q-14.6706 -28.7388 -13.4362 -28.7388 Q-12.1706 -28.7388 -11.0924 -28.27 L-11.4049 -27.4106 Q-12.4674 -27.8481 -13.4674 -27.8481 Q-14.2643 -27.8481 -14.7096 -27.5122 Q-15.1549 -27.1763 -15.1549 -26.5669 Q-15.1549 -26.1294 -14.9909 -25.8403 Q-14.8268 -25.5513 -14.4362 -25.3169 Q-14.0456 -25.0825 -13.2331 -24.7856 Q-11.8893 -24.3169 -11.3815 -23.7622 Q-10.8737 -23.2075 -10.8737 -22.3325 Z"/><path style="fill:none; stroke:black;" d="M-42.535 15.25 L-42.102 15 L-41.6265 15.1545"/><path style="fill:none; stroke:black;" d="M-42.535 -15.25 L-42.102 -15 L-42.102 -14.5"/><path style="fill:none; stroke:black;" d="M-67.649 29.75 L-68.082 30 L-68.515 29.75"/><path style="fill:none; stroke:black;" d="M-67.649 -29.75 L-68.082 -30 L-68.515 -29.75"/><path style="fill:none; stroke:black;" d="M-93.629 15.25 L-94.062 15 L-94.062 14.5"/><path style="fill:none; stroke:black;" d="M-93.629 -15.25 L-94.062 -15 L-94.062 -14.5"/><path style="fill:none; stroke:black;" d="M34.312 0.433 L34.062 0 L33.562 -0"/><path style="fill:none; stroke:black;" d="M48.812 25.547 L49.062 25.98 L49.562 25.98"/><path style="fill:rgb(0,5,255); stroke:none;" d="M52.4136 -21.8237 L51.2729 -21.8237 L46.5854 -29.0112 L46.5386 -29.0112 Q46.6323 -27.7456 46.6323 -26.6987 L46.6323 -21.8237 L45.7104 -21.8237 L45.7104 -30.3862 L46.8354 -30.3862 L51.5073 -23.23 L51.5542 -23.23 Q51.5542 -23.3862 51.5073 -24.2456 Q51.4604 -25.105 51.4761 -25.48 L51.4761 -30.3862 L52.4136 -30.3862 L52.4136 -21.8237 Z"/><path style="fill:none; stroke:black;" d="M78.562 25.98 L79.062 25.98 L79.312 25.547"/><path style="fill:none; stroke:black;" d="M78.562 -25.98 L79.062 -25.98 L79.312 -25.547"/><path style="fill:none; stroke:black;" d="M93.812 0.433 L94.062 0 L93.812 -0.433"/></g></g></svg></svg></svg></svg>