<svg xmlns:ns0="http://www.w3.org/2000/svg" xmlns="http://www.w3.org/2000/svg"><g transform="translate(0, 0)"><ns0:svg width="251" viewBox="0 0 251 118" style="fill-opacity:1; color-rendering:auto; color-interpolation:auto; text-rendering:auto; stroke:black; stroke-linecap:square; stroke-miterlimit:10; shape-rendering:auto; stroke-opacity:1; fill:black; stroke-dasharray:none; font-weight:normal; stroke-width:1; font-family:'Open Sans'; font-style:normal; stroke-linejoin:miter; font-size:12; stroke-dashoffset:0; image-rendering:auto;" height="118" class="cas-substance-image"><ns0:svg class="cas-substance-single-component"><ns0:rect y="0" x="0" width="251" stroke="none" ry="7" rx="7" height="118" fill="white" class="cas-substance-group" /><ns0:svg y="0" x="0" width="251" viewBox="0 0 251 118" style="fill:black;" height="118" class="cas-substance-single-component-image"><ns0:svg><ns0:g><ns0:g transform="translate(125,59)" style="text-rendering:geometricPrecision; color-rendering:optimizeQuality; color-interpolation:linearRGB; stroke-linecap:butt; image-rendering:optimizeQuality;"><ns0:line y2="0" y1="0" x2="-30" x1="-4.6433" style="fill:none;" /><ns0:line y2="0" y1="0" x2="30" x1="4.561" style="fill:none;" /><ns0:line y2="25.98" y1="46.0899" x2="-45" x1="-33.3906" style="fill:none;" /><ns0:line y2="-25.98" y1="-46.0899" x2="-45" x1="-33.3906" style="fill:none;" /><ns0:line y2="25.98" y1="46.0899" x2="-75" x1="-86.6094" style="fill:none;" /><ns0:line y2="-25.98" y1="-48.524" x2="-75" x1="-88.0146" style="fill:none;" /><ns0:line y2="0" y1="0" x2="-90" x1="-115.8147" style="fill:none;" /><ns0:line y2="25.98" y1="46.0899" x2="45" x1="33.3906" style="fill:none;" /><ns0:line y2="-25.98" y1="-48.524" x2="45" x1="31.9854" style="fill:none;" /><ns0:line y2="25.98" y1="46.0899" x2="75" x1="86.6094" style="fill:none;" /><ns0:line y2="-25.98" y1="-46.0899" x2="75" x1="86.6094" style="fill:none;" /><ns0:line y2="0" y1="0" x2="90" x1="115.6094" style="fill:none;" /><ns0:line y2="25.98" y1="0" x2="-45" x1="-30" style="fill:none;" /><ns0:line y2="22.48" y1="-0.0001" x2="-47.0207" x1="-34.0415" style="fill:none;" /><ns0:line y2="-25.98" y1="0" x2="-45" x1="-30" style="fill:none;" /><ns0:line y2="25.98" y1="25.98" x2="-75" x1="-45" style="fill:none;" /><ns0:line y2="-25.98" y1="-25.98" x2="-75" x1="-45" style="fill:none;" /><ns0:line y2="-22.48" y1="-22.48" x2="-72.9793" x1="-47.0207" style="fill:none;" /><ns0:line y2="0" y1="25.98" x2="-90" x1="-75" style="fill:none;" /><ns0:line y2="-0.0001" y1="22.48" x2="-85.9585" x1="-72.9793" style="fill:none;" /><ns0:line y2="0" y1="-25.98" x2="-90" x1="-75" style="fill:none;" /><ns0:line y2="25.98" y1="0" x2="45" x1="30" style="fill:none;" /><ns0:line y2="22.48" y1="-0.0001" x2="47.0207" x1="34.0415" style="fill:none;" /><ns0:line y2="-25.98" y1="0" x2="45" x1="30" style="fill:none;" /><ns0:line y2="25.98" y1="25.98" x2="75" x1="45" style="fill:none;" /><ns0:line y2="-25.98" y1="-25.98" x2="75" x1="45" style="fill:none;" /><ns0:line y2="-22.48" y1="-22.48" x2="72.9793" x1="47.0207" style="fill:none;" /><ns0:line y2="0" y1="25.98" x2="90" x1="75" style="fill:none;" /><ns0:line y2="-0.0001" y1="22.48" x2="85.9585" x1="72.9793" style="fill:none;" /><ns0:line y2="0" y1="-25.98" x2="90" x1="75" style="fill:none;" /></ns0:g><ns0:g transform="translate(125,59)" style="fill:rgb(148,108,0); text-rendering:geometricPrecision; color-rendering:optimizeQuality; image-rendering:optimizeQuality; font-family:'Open Sans'; stroke:rgb(148,108,0); color-interpolation:linearRGB;"><ns0:path style="stroke:none;" d="M2.6953 1.9375 Q2.6953 3.0625 1.875 3.7031 Q1.0547 4.3438 -0.3516 4.3438 Q-1.8828 4.3438 -2.6953 3.9375 L-2.6953 2.9844 Q-2.1641 3.2031 -1.5469 3.3359 Q-0.9297 3.4688 -0.3203 3.4688 Q0.6797 3.4688 1.1797 3.0859 Q1.6797 2.7031 1.6797 2.0312 Q1.6797 1.5938 1.5 1.3047 Q1.3203 1.0156 0.9062 0.7734 Q0.4922 0.5312 -0.3672 0.2344 Q-1.5547 -0.1875 -2.0703 -0.7734 Q-2.5859 -1.3594 -2.5859 -2.3125 Q-2.5859 -3.2969 -1.8438 -3.8828 Q-1.1016 -4.4688 0.1328 -4.4688 Q1.3984 -4.4688 2.4766 -4 L2.1641 -3.1406 Q1.1016 -3.5781 0.1016 -3.5781 Q-0.6953 -3.5781 -1.1406 -3.2422 Q-1.5859 -2.9062 -1.5859 -2.2969 Q-1.5859 -1.8594 -1.4219 -1.5703 Q-1.2578 -1.2812 -0.8672 -1.0469 Q-0.4766 -0.8125 0.3359 -0.5156 Q1.6797 -0.0469 2.1875 0.5078 Q2.6953 1.0625 2.6953 1.9375 Z" /><ns0:path style="fill:rgb(0,138,0); stroke:none;" d="M-31.3906 56.1193 L-32.3906 56.1193 L-32.3906 47.5568 L-27.6094 47.5568 L-27.6094 48.4318 L-31.3906 48.4318 L-31.3906 51.5724 L-27.8438 51.5724 L-27.8438 52.463 L-31.3906 52.463 L-31.3906 56.1193 Z" /><ns0:path style="fill:rgb(0,138,0); stroke:none;" d="M-31.3906 -47.8068 L-32.3906 -47.8068 L-32.3906 -56.3693 L-27.6094 -56.3693 L-27.6094 -55.4943 L-31.3906 -55.4943 L-31.3906 -52.3536 L-27.8438 -52.3536 L-27.8438 -51.463 L-31.3906 -51.463 L-31.3906 -47.8068 Z" /><ns0:path style="fill:rgb(0,138,0); stroke:none;" d="M-91.3906 56.1193 L-92.3906 56.1193 L-92.3906 47.5568 L-87.6094 47.5568 L-87.6094 48.4318 L-91.3906 48.4318 L-91.3906 51.5724 L-87.8438 51.5724 L-87.8438 52.463 L-91.3906 52.463 L-91.3906 56.1193 Z" /><ns0:path style="fill:rgb(0,138,0); stroke:none;" d="M-91.3906 -47.8068 L-92.3906 -47.8068 L-92.3906 -56.3693 L-87.6094 -56.3693 L-87.6094 -55.4943 L-91.3906 -55.4943 L-91.3906 -52.3536 L-87.8438 -52.3536 L-87.8438 -51.463 L-91.3906 -51.463 L-91.3906 -47.8068 Z" /><ns0:path style="fill:rgb(0,138,0); stroke:none;" d="M-121.3906 4.1562 L-122.3906 4.1562 L-122.3906 -4.4062 L-117.6094 -4.4062 L-117.6094 -3.5312 L-121.3906 -3.5312 L-121.3906 -0.3906 L-117.8438 -0.3906 L-117.8438 0.5 L-121.3906 0.5 L-121.3906 4.1562 Z" /><ns0:path style="fill:rgb(0,138,0); stroke:none;" d="M28.6094 56.1193 L27.6094 56.1193 L27.6094 47.5568 L32.3906 47.5568 L32.3906 48.4318 L28.6094 48.4318 L28.6094 51.5724 L32.1562 51.5724 L32.1562 52.463 L28.6094 52.463 L28.6094 56.1193 Z" /><ns0:path style="fill:rgb(0,138,0); stroke:none;" d="M28.6094 -47.8068 L27.6094 -47.8068 L27.6094 -56.3693 L32.3906 -56.3693 L32.3906 -55.4943 L28.6094 -55.4943 L28.6094 -52.3536 L32.1562 -52.3536 L32.1562 -51.463 L28.6094 -51.463 L28.6094 -47.8068 Z" /><ns0:path style="fill:rgb(0,138,0); stroke:none;" d="M88.6094 56.1193 L87.6094 56.1193 L87.6094 47.5568 L92.3906 47.5568 L92.3906 48.4318 L88.6094 48.4318 L88.6094 51.5724 L92.1562 51.5724 L92.1562 52.463 L88.6094 52.463 L88.6094 56.1193 Z" /><ns0:path style="fill:rgb(0,138,0); stroke:none;" d="M88.6094 -47.8068 L87.6094 -47.8068 L87.6094 -56.3693 L92.3906 -56.3693 L92.3906 -55.4943 L88.6094 -55.4943 L88.6094 -52.3536 L92.1562 -52.3536 L92.1562 -51.463 L88.6094 -51.463 L88.6094 -47.8068 Z" /><ns0:path style="fill:rgb(0,138,0); stroke:none;" d="M118.6094 4.1562 L117.6094 4.1562 L117.6094 -4.4062 L122.3906 -4.4062 L122.3906 -3.5312 L118.6094 -3.5312 L118.6094 -0.3906 L122.1562 -0.3906 L122.1562 0.5 L118.6094 0.5 L118.6094 4.1562 Z" /></ns0:g><ns0:g transform="translate(125,59)" style="stroke-linecap:butt; text-rendering:geometricPrecision; color-rendering:optimizeQuality; image-rendering:optimizeQuality; font-family:'Open Sans'; color-interpolation:linearRGB; stroke-miterlimit:5;"><ns0:path style="fill:none;" d="M-30.25 0.433 L-30 0 L-29.5 0" /><ns0:path style="fill:none;" d="M-44.75 25.547 L-45 25.98 L-44.75 26.413" /><ns0:path style="fill:none;" d="M-45.5 -25.98 L-45 -25.98 L-44.75 -26.413" /><ns0:path style="fill:none;" d="M-75.25 25.547 L-75 25.98 L-75.25 26.413" /><ns0:path style="fill:none;" d="M-74.5 -25.98 L-75 -25.98 L-75.25 -26.413" /><ns0:path style="fill:none;" d="M-89.75 0.433 L-90 0 L-90.5 -0" /><ns0:path style="fill:none;" d="M30.25 0.433 L30 0 L29.5 -0" /><ns0:path style="fill:none;" d="M44.75 25.547 L45 25.98 L44.75 26.413" /><ns0:path style="fill:none;" d="M45.5 -25.98 L45 -25.98 L44.75 -26.413" /><ns0:path style="fill:none;" d="M75.25 25.547 L75 25.98 L75.25 26.413" /><ns0:path style="fill:none;" d="M74.5 -25.98 L75 -25.98 L75.25 -26.413" /><ns0:path style="fill:none;" d="M89.75 0.433 L90 0 L90.5 0" /></ns0:g></ns0:g></ns0:svg></ns0:svg></ns0:svg></ns0:svg></g></svg>