<svg xmlns:ns0="http://www.w3.org/2000/svg" xmlns="http://www.w3.org/2000/svg"><g transform="translate(0, 0)"><ns0:svg width="465" viewBox="0 0 465 290" style="fill-opacity:1; color-rendering:auto; color-interpolation:auto; text-rendering:auto; stroke:black; stroke-linecap:square; stroke-miterlimit:10; shape-rendering:auto; stroke-opacity:1; fill:black; stroke-dasharray:none; font-weight:normal; stroke-width:1; font-family:'Open Sans'; font-style:normal; stroke-linejoin:miter; font-size:12; stroke-dashoffset:0; image-rendering:auto;" height="290" class="cas-substance-image"><ns0:svg class="cas-substance-single-component"><ns0:rect y="0" x="0" width="465" stroke="none" ry="7" rx="7" height="290" fill="white" class="cas-substance-group" /><ns0:svg y="0" x="0" width="465" viewBox="0 0 465 290" style="fill:black;" height="290" class="cas-substance-single-component-image"><ns0:svg><ns0:g><ns0:g transform="translate(233,145)" style="text-rendering:geometricPrecision; color-rendering:optimizeQuality; color-interpolation:linearRGB; stroke-linecap:butt; image-rendering:optimizeQuality;"><ns0:line y2="-90.0234" y1="-72.8438" x2="-129.02" x1="-129.02" style="fill:none;" /><ns0:line y2="-90.0234" y1="-72.8438" x2="-132.52" x1="-132.52" style="fill:none;" /><ns0:line y2="-42.8516" y1="-60.0312" x2="-132.52" x1="-132.52" style="fill:none;" /><ns0:line y2="-42.8516" y1="-60.0312" x2="-129.02" x1="-129.02" style="fill:none;" /><ns0:line y2="-66.375" y1="-66.375" x2="-160.77" x1="-135.4133" style="fill:none;" /><ns0:line y2="-66.375" y1="-66.375" x2="-100.77" x1="-126.209" style="fill:none;" /><ns0:line y2="-141.471" y1="-119.178" x2="-189.207" x1="-169.134" style="fill:none;" /><ns0:line y2="-125.415" y1="-119.178" x2="-139.788" x1="-169.134" style="fill:none;" /><ns0:line y2="-90.645" y1="-119.178" x2="-178.404" x1="-169.134" style="fill:none;" /><ns0:line y2="-40.395" y1="-60.7393" x2="4.23" x1="-7.5161" style="fill:none;" /><ns0:line y2="-66.375" y1="-66.375" x2="-40.77" x1="-16.7075" style="fill:none;" /><ns0:line y2="-40.395" y1="-40.395" x2="34.23" x1="4.23" style="fill:none;" /><ns0:line y2="-14.412" y1="-40.395" x2="49.23" x1="34.23" style="fill:none;" /><ns0:line y2="-14.412" y1="-14.412" x2="73.8784" x1="49.23" style="fill:none;" /><ns0:line y2="11.568" y1="-8.5237" x2="94.23" x1="82.6297" style="fill:none;" /><ns0:line y2="-40.395" y1="-20.5503" x2="94.23" x1="82.7737" style="fill:none;" /><ns0:line y2="11.568" y1="11.568" x2="124.23" x1="94.23" style="fill:none;" /><ns0:line y2="37.548" y1="11.568" x2="139.23" x1="124.23" style="fill:none;" /><ns0:line y2="37.548" y1="57.8063" x2="229.23" x1="217.5335" style="fill:none;" /><ns0:line y2="63.528" y1="63.528" x2="184.23" x1="208.2925" style="fill:none;" /><ns0:line y2="141.471" y1="121.139" x2="169.23" x1="180.969" style="fill:none;" /><ns0:line y2="89.511" y1="109.7634" x2="169.23" x1="180.9231" style="fill:none;" /><ns0:line y2="-42.105" y1="-66.375" x2="-178.404" x1="-160.77" style="fill:none;" /><ns0:line y2="-45.7971" y1="-66.7975" x2="-180.0477" x1="-164.7893" style="fill:none;" /><ns0:line y2="-90.645" y1="-66.375" x2="-178.404" x1="-160.77" style="fill:none;" /><ns0:line y2="-49.668" y1="-42.105" x2="-201.6803" x1="-178.404" style="fill:none;" /><ns0:line y2="-12.759" y1="-42.105" x2="-172.167" x1="-178.404" style="fill:none;" /><ns0:line y2="-81.375" y1="-90.645" x2="-206.934" x1="-178.404" style="fill:none;" /><ns0:line y2="-78.6707" y1="-86.6919" x2="-203.9306" x1="-179.2443" style="fill:none;" /><ns0:line y2="-81.375" y1="-57.7812" x2="-206.934" x1="-206.934" style="fill:none;" /><ns0:line y2="-31.302" y1="-47.0194" x2="-229.23" x1="-211.7719" style="fill:none;" /><ns0:line y2="7.314" y1="-12.759" x2="-194.46" x1="-172.167" style="fill:none;" /><ns0:line y2="3.3609" y1="-14.0078" x2="-195.3003" x1="-176.0107" style="fill:none;" /><ns0:line y2="-1.956" y1="-31.302" x2="-222.993" x1="-229.23" style="fill:none;" /><ns0:line y2="-4.6602" y1="-30.053" x2="-219.9896" x1="-225.3864" style="fill:none;" /><ns0:line y2="-1.956" y1="7.314" x2="-222.993" x1="-194.46" style="fill:none;" /><ns0:line y2="-40.395" y1="-66.375" x2="-85.77" x1="-100.77" style="fill:none;" /><ns0:line y2="-43.895" y1="-66.3751" x2="-83.7493" x1="-96.7285" style="fill:none;" /><ns0:line y2="-92.355" y1="-66.375" x2="-85.77" x1="-100.77" style="fill:none;" /><ns0:line y2="-40.395" y1="-40.395" x2="-55.77" x1="-85.77" style="fill:none;" /><ns0:line y2="-92.355" y1="-92.355" x2="-55.77" x1="-85.77" style="fill:none;" /><ns0:line y2="-88.855" y1="-88.855" x2="-57.7907" x1="-83.7493" style="fill:none;" /><ns0:line y2="-66.375" y1="-40.395" x2="-40.77" x1="-55.77" style="fill:none;" /><ns0:line y2="-66.3751" y1="-43.895" x2="-44.8115" x1="-57.7907" style="fill:none;" /><ns0:line y2="-66.375" y1="-92.355" x2="-40.77" x1="-55.77" style="fill:none;" /><ns0:line y2="37.548" y1="37.548" x2="169.23" x1="139.23" style="fill:none;" /><ns0:line y2="41.048" y1="41.048" x2="167.2093" x1="141.2507" style="fill:none;" /><ns0:line y2="63.528" y1="37.548" x2="124.23" x1="139.23" style="fill:none;" /><ns0:line y2="63.528" y1="37.548" x2="184.23" x1="169.23" style="fill:none;" /><ns0:line y2="89.511" y1="63.528" x2="139.23" x1="124.23" style="fill:none;" /><ns0:line y2="86.0111" y1="63.5282" x2="141.2509" x1="128.2715" style="fill:none;" /><ns0:line y2="89.511" y1="63.528" x2="169.23" x1="184.23" style="fill:none;" /><ns0:line y2="86.0111" y1="63.5282" x2="167.2091" x1="180.1885" style="fill:none;" /><ns0:line y2="89.511" y1="89.511" x2="169.23" x1="139.23" style="fill:none;" /></ns0:g><ns0:g transform="translate(233,145)" style="fill:rgb(148,108,0); text-rendering:geometricPrecision; color-rendering:optimizeQuality; image-rendering:optimizeQuality; font-family:'Open Sans'; stroke:rgb(148,108,0); color-interpolation:linearRGB;"><ns0:path style="stroke:none;" d="M-128.0747 -64.4375 Q-128.0747 -63.3125 -128.895 -62.6719 Q-129.7153 -62.0312 -131.1216 -62.0312 Q-132.6528 -62.0312 -133.4653 -62.4375 L-133.4653 -63.3906 Q-132.9341 -63.1719 -132.3169 -63.0391 Q-131.6997 -62.9062 -131.0903 -62.9062 Q-130.0903 -62.9062 -129.5903 -63.2891 Q-129.0903 -63.6719 -129.0903 -64.3438 Q-129.0903 -64.7812 -129.27 -65.0703 Q-129.4497 -65.3594 -129.8638 -65.6016 Q-130.2778 -65.8438 -131.1372 -66.1406 Q-132.3247 -66.5625 -132.8403 -67.1484 Q-133.3559 -67.7344 -133.3559 -68.6875 Q-133.3559 -69.6719 -132.6138 -70.2578 Q-131.8716 -70.8438 -130.6372 -70.8438 Q-129.3716 -70.8438 -128.2934 -70.375 L-128.6059 -69.5156 Q-129.6684 -69.9531 -130.6684 -69.9531 Q-131.4653 -69.9531 -131.9106 -69.6172 Q-132.3559 -69.2812 -132.3559 -68.6719 Q-132.3559 -68.2344 -132.1919 -67.9453 Q-132.0278 -67.6562 -131.6372 -67.4219 Q-131.2466 -67.1875 -130.4341 -66.8906 Q-129.0903 -66.4219 -128.5825 -65.8672 Q-128.0747 -65.3125 -128.0747 -64.4375 Z" /><ns0:path style="fill:rgb(230,0,0); stroke:none;" d="M-126.8325 -96.4453 Q-126.8325 -94.3828 -127.8716 -93.2031 Q-128.9106 -92.0234 -130.7544 -92.0234 Q-132.645 -92.0234 -133.6763 -93.1875 Q-134.7075 -94.3516 -134.7075 -96.4609 Q-134.7075 -98.5547 -133.6763 -99.7031 Q-132.645 -100.8516 -130.7544 -100.8516 Q-128.895 -100.8516 -127.8638 -99.6797 Q-126.8325 -98.5078 -126.8325 -96.4453 ZM-133.6606 -96.4453 Q-133.6606 -94.7109 -132.9184 -93.8047 Q-132.1763 -92.8984 -130.7544 -92.8984 Q-129.3325 -92.8984 -128.6059 -93.7969 Q-127.8794 -94.6953 -127.8794 -96.4453 Q-127.8794 -98.1797 -128.6059 -99.0703 Q-129.3325 -99.9609 -130.7544 -99.9609 Q-132.1763 -99.9609 -132.9184 -99.0625 Q-133.6606 -98.1641 -133.6606 -96.4453 Z" /><ns0:path style="fill:rgb(230,0,0); stroke:none;" d="M-126.8325 -36.4453 Q-126.8325 -34.3828 -127.8716 -33.2031 Q-128.9106 -32.0234 -130.7544 -32.0234 Q-132.645 -32.0234 -133.6763 -33.1875 Q-134.7075 -34.3516 -134.7075 -36.4609 Q-134.7075 -38.5547 -133.6763 -39.7031 Q-132.645 -40.8516 -130.7544 -40.8516 Q-128.895 -40.8516 -127.8638 -39.6797 Q-126.8325 -38.5078 -126.8325 -36.4453 ZM-133.6606 -36.4453 Q-133.6606 -34.7109 -132.9184 -33.8047 Q-132.1763 -32.8984 -130.7544 -32.8984 Q-129.3325 -32.8984 -128.6059 -33.7969 Q-127.8794 -34.6953 -127.8794 -36.4453 Q-127.8794 -38.1797 -128.6059 -39.0703 Q-129.3325 -39.9609 -130.7544 -39.9609 Q-132.1763 -39.9609 -132.9184 -39.0625 Q-133.6606 -38.1641 -133.6606 -36.4453 Z" /><ns0:path style="fill:rgb(230,0,0); stroke:none;" d="M-6.8325 -66.4453 Q-6.8325 -64.3828 -7.8716 -63.2031 Q-8.9106 -62.0234 -10.7544 -62.0234 Q-12.645 -62.0234 -13.6762 -63.1875 Q-14.7075 -64.3516 -14.7075 -66.4609 Q-14.7075 -68.5547 -13.6762 -69.7031 Q-12.645 -70.8516 -10.7544 -70.8516 Q-8.895 -70.8516 -7.8637 -69.6797 Q-6.8325 -68.5078 -6.8325 -66.4453 ZM-13.6606 -66.4453 Q-13.6606 -64.7109 -12.9184 -63.8047 Q-12.1762 -62.8984 -10.7544 -62.8984 Q-9.3325 -62.8984 -8.6059 -63.7969 Q-7.8794 -64.6953 -7.8794 -66.4453 Q-7.8794 -68.1797 -8.6059 -69.0703 Q-9.3325 -69.9609 -10.7544 -69.9609 Q-12.1762 -69.9609 -12.9184 -69.0625 Q-13.6606 -68.1641 -13.6606 -66.4453 Z" /></ns0:g><ns0:g transform="translate(233,145)" style="stroke-linecap:butt; text-rendering:geometricPrecision; color-rendering:optimizeQuality; image-rendering:optimizeQuality; font-family:'Open Sans'; color-interpolation:linearRGB; stroke-miterlimit:5;"><ns0:path style="fill:none;" d="M3.98 -40.828 L4.23 -40.395 L4.73 -40.395" /><ns0:path style="fill:none;" d="M33.73 -40.395 L34.23 -40.395 L34.48 -39.962" /><ns0:path style="fill:none;" d="M48.98 -14.845 L49.23 -14.412 L49.73 -14.412" /><ns0:path style="fill:rgb(0,5,255); stroke:none;" d="M82.5816 -10.2557 L81.4409 -10.2557 L76.7534 -17.4432 L76.7066 -17.4432 Q76.8003 -16.1776 76.8003 -15.1307 L76.8003 -10.2557 L75.8784 -10.2557 L75.8784 -18.8182 L77.0034 -18.8182 L81.6753 -11.662 L81.7222 -11.662 Q81.7222 -11.8182 81.6753 -12.6776 Q81.6284 -13.537 81.6441 -13.912 L81.6441 -18.8182 L82.5816 -18.8182 L82.5816 -10.2557 Z" /><ns0:path style="fill:none;" d="M93.98 11.135 L94.23 11.568 L94.73 11.568" /><ns0:path style="fill:none;" d="M123.73 11.568 L124.23 11.568 L124.48 12.001" /><ns0:path style="fill:rgb(230,0,0); stroke:none;" d="M218.1675 63.4577 Q218.1675 65.5202 217.1284 66.6999 Q216.0894 67.8796 214.2456 67.8796 Q212.355 67.8796 211.3237 66.7155 Q210.2925 65.5514 210.2925 63.4421 Q210.2925 61.3483 211.3237 60.1999 Q212.355 59.0514 214.2456 59.0514 Q216.105 59.0514 217.1362 60.2233 Q218.1675 61.3952 218.1675 63.4577 ZM211.3394 63.4577 Q211.3394 65.1921 212.0816 66.0983 Q212.8237 67.0046 214.2456 67.0046 Q215.6675 67.0046 216.3941 66.1061 Q217.1206 65.2077 217.1206 63.4577 Q217.1206 61.7233 216.3941 60.8327 Q215.6675 59.9421 214.2456 59.9421 Q212.8237 59.9421 212.0816 60.8405 Q211.3394 61.7389 211.3394 63.4577 Z" /><ns0:path style="fill:rgb(230,0,0); stroke:none;" d="M188.1675 115.4207 Q188.1675 117.4832 187.1284 118.6629 Q186.0894 119.8426 184.2456 119.8426 Q182.355 119.8426 181.3237 118.6785 Q180.2925 117.5144 180.2925 115.4051 Q180.2925 113.3113 181.3237 112.1629 Q182.355 111.0144 184.2456 111.0144 Q186.105 111.0144 187.1362 112.1863 Q188.1675 113.3582 188.1675 115.4207 ZM181.3394 115.4207 Q181.3394 117.1551 182.0816 118.0613 Q182.8237 118.9676 184.2456 118.9676 Q185.6675 118.9676 186.3941 118.0691 Q187.1206 117.1707 187.1206 115.4207 Q187.1206 113.6863 186.3941 112.7957 Q185.6675 111.9051 184.2456 111.9051 Q182.8237 111.9051 182.0816 112.8035 Q181.3394 113.7019 181.3394 115.4207 Z" /><ns0:path style="fill:none;" d="M-161.0639 -65.9705 L-160.77 -66.375 L-161.0639 -66.7795" /><ns0:path style="fill:none;" d="M-178.1101 -42.5095 L-178.404 -42.105 L-178.3001 -41.6159" /><ns0:path style="fill:none;" d="M-178.8795 -90.4905 L-178.404 -90.645 L-178.2495 -91.1205" /><ns0:path style="fill:rgb(0,5,255); stroke:none;" d="M-203.5824 -47.2188 L-204.7231 -47.2188 L-209.4106 -54.4062 L-209.4574 -54.4062 Q-209.3637 -53.1406 -209.3637 -52.0938 L-209.3637 -47.2188 L-210.2856 -47.2188 L-210.2856 -55.7812 L-209.1606 -55.7812 L-204.4887 -48.625 L-204.4418 -48.625 Q-204.4418 -48.7812 -204.4887 -49.6406 Q-204.5356 -50.5 -204.5199 -50.875 L-204.5199 -55.7812 L-203.5824 -55.7812 L-203.5824 -47.2188 Z" /><ns0:path style="fill:none;" d="M-172.271 -13.2481 L-172.167 -12.759 L-172.5386 -12.4244" /><ns0:path style="fill:none;" d="M-206.4585 -81.5295 L-206.934 -81.375 L-206.934 -80.875" /><ns0:path style="fill:none;" d="M-228.8584 -31.6365 L-229.23 -31.302 L-229.1261 -30.8129" /><ns0:path style="fill:none;" d="M-194.0884 6.9794 L-194.46 7.314 L-194.9355 7.1595" /><ns0:path style="fill:none;" d="M-223.097 -2.4451 L-222.993 -1.956 L-222.5175 -1.8015" /><ns0:path style="fill:none;" d="M-100.52 -65.942 L-100.77 -66.375 L-101.27 -66.375" /><ns0:path style="fill:none;" d="M-86.02 -40.828 L-85.77 -40.395 L-85.27 -40.395" /><ns0:path style="fill:none;" d="M-86.02 -91.922 L-85.77 -92.355 L-85.27 -92.355" /><ns0:path style="fill:none;" d="M-56.27 -40.395 L-55.77 -40.395 L-55.52 -40.828" /><ns0:path style="fill:none;" d="M-56.27 -92.355 L-55.77 -92.355 L-55.52 -91.922" /><ns0:path style="fill:none;" d="M-41.02 -65.942 L-40.77 -66.375 L-40.27 -66.375" /><ns0:path style="fill:none;" d="M139.73 37.548 L139.23 37.548 L138.98 37.115" /><ns0:path style="fill:none;" d="M168.73 37.548 L169.23 37.548 L169.48 37.981" /><ns0:path style="fill:none;" d="M124.48 63.095 L124.23 63.528 L124.48 63.961" /><ns0:path style="fill:none;" d="M183.98 63.961 L184.23 63.528 L184.73 63.528" /><ns0:path style="fill:none;" d="M138.98 89.078 L139.23 89.511 L139.73 89.511" /><ns0:path style="fill:none;" d="M169.48 89.078 L169.23 89.511 L169.48 89.944" /></ns0:g></ns0:g></ns0:svg></ns0:svg></ns0:svg></ns0:svg></g></svg>