<svg width="184" viewBox="0 0 184 81" style="fill-opacity:1; color-rendering:auto; color-interpolation:auto; text-rendering:auto; stroke:black; stroke-linecap:square; stroke-miterlimit:10; shape-rendering:auto; stroke-opacity:1; fill:black; stroke-dasharray:none; font-weight:normal; stroke-width:1; font-family:'Open Sans'; font-style:normal; stroke-linejoin:miter; font-size:12; stroke-dashoffset:0; image-rendering:auto;" height="81" class="cas-substance-image" xmlns:xlink="http://www.w3.org/1999/xlink" xmlns="http://www.w3.org/2000/svg"><svg class="cas-substance-single-component"><rect y="0" x="0" width="184" stroke="none" ry="7" rx="7" height="81" fill="white" class="cas-substance-group"/><svg y="0" x="0" width="184" viewBox="0 0 184 81" style="fill:black;" height="81" class="cas-substance-single-component-image"><svg><g><g transform="translate(90,43)" style="text-rendering:geometricPrecision; color-rendering:optimizeQuality; color-interpolation:linearRGB; stroke-linecap:butt; image-rendering:optimizeQuality;"><line y2="-24.51" y1="-12.8264" x2="-16.47" x1="-36.7083" style="fill:none;"/><line y2="2.264" y1="-6.192" x2="-62.8455" x1="-48.1997" style="fill:none;"/><line y2="-29.8543" y1="-15.5884" x2="-54.1991" x1="-45.9625" style="fill:none;"/><line y2="16.47" y1="-3.4541" x2="-27.453" x1="-38.9565" style="fill:none;"/><line y2="-9.51" y1="-24.51" x2="9.51" x1="-16.47" style="fill:none;"/><line y2="35.49" y1="11.8416" x2="-68.433" x1="-68.433" style="fill:none;"/><line y2="-35.49" y1="-35.49" x2="-87.453" x1="-63.3905" style="fill:none;"/><line y2="-24.51" y1="-9.51" x2="35.49" x1="9.51" style="fill:none;"/><line y2="-9.51" y1="-24.51" x2="61.47" x1="35.49" style="fill:none;"/><line y2="2.5552" y1="-9.51" x2="82.3694" x1="61.47" style="fill:none;"/><line y2="-0.4759" y1="-12.5412" x2="84.1192" x1="63.2199" style="fill:none;"/><line y2="5.5864" y1="-6.4788" x2="80.6195" x1="59.7201" style="fill:none;"/><path style="stroke-linecap:square; stroke:none;" d="M-41.0897 -7.51 Q-41.0897 -6.385 -41.91 -5.7444 Q-42.7303 -5.1038 -44.1366 -5.1038 Q-45.6678 -5.1038 -46.4803 -5.51 L-46.4803 -6.4631 Q-45.9491 -6.2444 -45.3319 -6.1116 Q-44.7147 -5.9788 -44.1053 -5.9788 Q-43.1053 -5.9788 -42.6053 -6.3616 Q-42.1053 -6.7444 -42.1053 -7.4163 Q-42.1053 -7.8538 -42.285 -8.1428 Q-42.4647 -8.4319 -42.8788 -8.6741 Q-43.2928 -8.9163 -44.1522 -9.2131 Q-45.3397 -9.635 -45.8553 -10.2209 Q-46.371 -10.8069 -46.371 -11.76 Q-46.371 -12.7444 -45.6288 -13.3303 Q-44.8866 -13.9163 -43.6522 -13.9163 Q-42.3866 -13.9163 -41.3085 -13.4475 L-41.621 -12.5881 Q-42.6835 -13.0256 -43.6835 -13.0256 Q-44.4803 -13.0256 -44.9257 -12.6897 Q-45.371 -12.3538 -45.371 -11.7444 Q-45.371 -11.3069 -45.2069 -11.0178 Q-45.0428 -10.7288 -44.6522 -10.4944 Q-44.2616 -10.26 -43.4491 -9.9631 Q-42.1053 -9.4944 -41.5975 -8.9397 Q-41.0897 -8.385 -41.0897 -7.51 ZM-38.5194 -5.2288 L-39.4882 -5.2288 L-39.4882 -11.6506 L-38.5194 -11.6506 L-38.5194 -5.2288 ZM-39.5663 -13.385 Q-39.5663 -13.7288 -39.4022 -13.885 Q-39.2382 -14.0413 -38.9882 -14.0413 Q-38.7538 -14.0413 -38.5897 -13.8772 Q-38.4257 -13.7131 -38.4257 -13.385 Q-38.4257 -13.0569 -38.5897 -12.9006 Q-38.7538 -12.7444 -38.9882 -12.7444 Q-39.2382 -12.7444 -39.4022 -12.9006 Q-39.5663 -13.0569 -39.5663 -13.385 Z"/><path style="fill:none; stroke-miterlimit:5;" d="M-16.903 -24.26 L-16.47 -24.51 L-16.037 -24.26"/></g><g transform="translate(90,43)" style="stroke-linecap:butt; fill:rgb(230,0,0); text-rendering:geometricPrecision; color-rendering:optimizeQuality; image-rendering:optimizeQuality; font-family:'Open Sans'; stroke:rgb(230,0,0); color-interpolation:linearRGB; stroke-miterlimit:5;"><path style="stroke:none;" d="M-64.4955 5.4197 Q-64.4955 7.4822 -65.5346 8.6619 Q-66.5736 9.8416 -68.4174 9.8416 Q-70.308 9.8416 -71.3392 8.6775 Q-72.3705 7.5134 -72.3705 5.4041 Q-72.3705 3.3103 -71.3392 2.1619 Q-70.308 1.0134 -68.4174 1.0134 Q-66.558 1.0134 -65.5267 2.1853 Q-64.4955 3.3572 -64.4955 5.4197 ZM-71.3236 5.4197 Q-71.3236 7.1541 -70.5814 8.0603 Q-69.8392 8.9666 -68.4174 8.9666 Q-66.9955 8.9666 -66.2689 8.0681 Q-65.5424 7.1697 -65.5424 5.4197 Q-65.5424 3.6853 -66.2689 2.7947 Q-66.9955 1.9041 -68.4174 1.9041 Q-69.8392 1.9041 -70.5814 2.8025 Q-71.3236 3.7009 -71.3236 5.4197 Z"/><path style="stroke:none;" d="M-53.5155 -35.5603 Q-53.5155 -33.4978 -54.5546 -32.3181 Q-55.5936 -31.1384 -57.4374 -31.1384 Q-59.328 -31.1384 -60.3592 -32.3025 Q-61.3905 -33.4666 -61.3905 -35.5759 Q-61.3905 -37.6697 -60.3592 -38.8181 Q-59.328 -39.9666 -57.4374 -39.9666 Q-55.578 -39.9666 -54.5467 -38.7947 Q-53.5155 -37.6228 -53.5155 -35.5603 ZM-60.3436 -35.5603 Q-60.3436 -33.8259 -59.6014 -32.9197 Q-58.8592 -32.0134 -57.4374 -32.0134 Q-56.0155 -32.0134 -55.2889 -32.9119 Q-54.5624 -33.8103 -54.5624 -35.5603 Q-54.5624 -37.2947 -55.2889 -38.1853 Q-56.0155 -39.0759 -57.4374 -39.0759 Q-58.8592 -39.0759 -59.6014 -38.1775 Q-60.3436 -37.2791 -60.3436 -35.5603 Z"/><path style="fill:none; stroke:black;" d="M9.077 -9.76 L9.51 -9.51 L9.943 -9.76"/><path style="fill:none; stroke:black;" d="M35.057 -24.26 L35.49 -24.51 L35.923 -24.26"/><path style="fill:rgb(0,5,255); stroke:none;" d="M90.8046 9.6462 L89.6639 9.6462 L84.9764 2.4587 L84.9296 2.4587 Q85.0233 3.7244 85.0233 4.7712 L85.0233 9.6462 L84.1014 9.6462 L84.1014 1.0837 L85.2264 1.0837 L89.8983 8.24 L89.9452 8.24 Q89.9452 8.0837 89.8983 7.2244 Q89.8514 6.365 89.8671 5.99 L89.8671 1.0837 L90.8046 1.0837 L90.8046 9.6462 Z"/></g></g></svg></svg></svg></svg>