<svg width="136" viewBox="0 0 136 71" style="fill-opacity:1; color-rendering:auto; color-interpolation:auto; text-rendering:auto; stroke:black; stroke-linecap:square; stroke-miterlimit:10; shape-rendering:auto; stroke-opacity:1; fill:black; stroke-dasharray:none; font-weight:normal; stroke-width:1; font-family:'Open Sans'; font-style:normal; stroke-linejoin:miter; font-size:12; stroke-dashoffset:0; image-rendering:auto;" height="71" class="cas-substance-image" xmlns:xlink="http://www.w3.org/1999/xlink" xmlns="http://www.w3.org/2000/svg"><svg class="cas-substance-single-component"><rect y="0" x="0" width="136" stroke="none" ry="7" rx="7" height="71" fill="white" class="cas-substance-group"/><svg y="0" x="0" width="136" viewBox="0 0 136 71" style="fill:black;" height="71" class="cas-substance-single-component-image"><svg><g><g transform="translate(68,37)" style="text-rendering:geometricPrecision; color-rendering:optimizeQuality; color-interpolation:linearRGB; stroke-linecap:butt; image-rendering:optimizeQuality;"><line y2="-15" y1="-27.4441" x2="64.953" x1="43.3974" style="fill:none;"/><line y2="-15" y1="-27.4583" x2="12.99" x1="34.5678" style="fill:none;"/><line y2="-15" y1="-30" x2="-38.97" x1="-64.953" style="fill:none;"/><line y2="-27.0649" y1="-15" x2="-7.9064" x1="12.99" style="fill:none;"/><line y2="8.5938" y1="-15" x2="12.99" x1="12.99" style="fill:none;"/><line y2="8.5938" y1="-12.9793" x2="9.49" x1="9.49" style="fill:none;"/><line y2="-15" y1="-27.0649" x2="-38.97" x1="-18.0736" style="fill:none;"/><line y2="-12.9793" y1="-24.0338" x2="-35.47" x1="-16.3236" style="fill:none;"/><line y2="30" y1="17.9351" x2="-12.99" x1="7.9064" style="fill:none;"/><line y2="15" y1="-15" x2="-38.97" x1="-38.97" style="fill:none;"/><line y2="15" y1="30" x2="-38.97" x1="-12.99" style="fill:none;"/><line y2="12.9793" y1="25.9585" x2="-35.47" x1="-12.9899" style="fill:none;"/></g><g transform="translate(68,37)" style="fill:rgb(148,108,0); text-rendering:geometricPrecision; color-rendering:optimizeQuality; image-rendering:optimizeQuality; font-family:'Open Sans'; stroke:rgb(148,108,0); color-interpolation:linearRGB;"><path style="stroke:none;" d="M41.6653 -28.0625 Q41.6653 -26.9375 40.845 -26.2969 Q40.0247 -25.6562 38.6184 -25.6562 Q37.0872 -25.6562 36.2747 -26.0625 L36.2747 -27.0156 Q36.8059 -26.7969 37.4231 -26.6641 Q38.0403 -26.5312 38.6497 -26.5312 Q39.6497 -26.5312 40.1497 -26.9141 Q40.6497 -27.2969 40.6497 -27.9688 Q40.6497 -28.4062 40.47 -28.6953 Q40.2903 -28.9844 39.8763 -29.2266 Q39.4622 -29.4688 38.6028 -29.7656 Q37.4153 -30.1875 36.8997 -30.7734 Q36.3841 -31.3594 36.3841 -32.3125 Q36.3841 -33.2969 37.1263 -33.8828 Q37.8684 -34.4688 39.1028 -34.4688 Q40.3684 -34.4688 41.4466 -34 L41.1341 -33.1406 Q40.0716 -33.5781 39.0716 -33.5781 Q38.2747 -33.5781 37.8294 -33.2422 Q37.3841 -32.9062 37.3841 -32.2969 Q37.3841 -31.8594 37.5481 -31.5703 Q37.7122 -31.2812 38.1028 -31.0469 Q38.4934 -30.8125 39.3059 -30.5156 Q40.6497 -30.0469 41.1575 -29.4922 Q41.6653 -28.9375 41.6653 -28.0625 Z"/></g><g transform="translate(68,37)" style="stroke-linecap:butt; text-rendering:geometricPrecision; color-rendering:optimizeQuality; image-rendering:optimizeQuality; font-family:'Open Sans'; color-interpolation:linearRGB; stroke-miterlimit:5;"><path style="fill:none;" d="M12.99 -14.5 L12.99 -15 L13.423 -15.25"/><path style="fill:rgb(0,5,255); stroke:none;" d="M-9.6384 -25.8438 L-10.7791 -25.8438 L-15.4666 -33.0312 L-15.5134 -33.0312 Q-15.4197 -31.7656 -15.4197 -30.7188 L-15.4197 -25.8438 L-16.3416 -25.8438 L-16.3416 -34.4062 L-15.2166 -34.4062 L-10.5447 -27.25 L-10.4978 -27.25 Q-10.4978 -27.4062 -10.5447 -28.2656 Q-10.5916 -29.125 -10.5759 -29.5 L-10.5759 -34.4062 L-9.6384 -34.4062 L-9.6384 -25.8438 Z"/><path style="fill:rgb(0,5,255); stroke:none;" d="M16.3416 19.1562 L15.2009 19.1562 L10.5134 11.9688 L10.4666 11.9688 Q10.5603 13.2344 10.5603 14.2812 L10.5603 19.1562 L9.6384 19.1562 L9.6384 10.5938 L10.7634 10.5938 L15.4353 17.75 L15.4822 17.75 Q15.4822 17.5938 15.4353 16.7344 Q15.3884 15.875 15.4041 15.5 L15.4041 10.5938 L16.3416 10.5938 L16.3416 19.1562 Z"/><path style="fill:none;" d="M-38.537 -15.25 L-38.97 -15 L-38.97 -14.5"/><path style="fill:none;" d="M-12.557 29.75 L-12.99 30 L-13.423 29.75"/><path style="fill:none;" d="M-38.97 14.5 L-38.97 15 L-38.537 15.25"/></g></g></svg></svg></svg></svg>