<svg width="201" viewBox="0 0 201 67" style="fill-opacity:1; color-rendering:auto; color-interpolation:auto; text-rendering:auto; stroke:black; stroke-linecap:square; stroke-miterlimit:10; shape-rendering:auto; stroke-opacity:1; fill:black; stroke-dasharray:none; font-weight:normal; stroke-width:1; font-family:'Open Sans'; font-style:normal; stroke-linejoin:miter; font-size:12; stroke-dashoffset:0; image-rendering:auto;" height="67" class="cas-substance-image" xmlns:xlink="http://www.w3.org/1999/xlink" xmlns="http://www.w3.org/2000/svg"><svg class="cas-substance-single-component"><rect y="0" x="0" width="201" stroke="none" ry="7" rx="7" height="67" fill="white" class="cas-substance-group"/><svg y="0" x="0" width="201" viewBox="0 0 201 67" style="fill:black;" height="67" class="cas-substance-single-component-image"><svg><g><g transform="translate(100,33)" style="text-rendering:geometricPrecision; color-rendering:optimizeQuality; color-interpolation:linearRGB; stroke-linecap:butt; image-rendering:optimizeQuality;"><line y2="-30" y1="0" x2="-67.5" x1="-67.5" style="fill:none;"/><line y2="0" y1="0" x2="-97.5" x1="-67.5" style="fill:none;"/><line y2="30" y1="0" x2="-67.5" x1="-67.5" style="fill:none;"/><line y2="0" y1="0" x2="-37.5" x1="-67.5" style="fill:none;"/><line y2="-20.332" y1="0" x2="64.239" x1="52.5" style="fill:none;"/><line y2="21.1274" y1="0" x2="62.6775" x1="50.4793" style="fill:none;"/><line y2="19.3774" y1="-1.75" x2="65.7086" x1="53.5104" style="fill:none;"/><line y2="0" y1="0" x2="22.5" x1="52.5" style="fill:none;"/><line y2="-25.98" y1="-25.98" x2="97.5" x1="73.4375" style="fill:none;"/><line y2="-25.98" y1="0" x2="-22.5" x1="-37.5" style="fill:none;"/><line y2="-22.48" y1="0.0001" x2="-20.4793" x1="-33.4585" style="fill:none;"/><line y2="25.98" y1="0" x2="-22.5" x1="-37.5" style="fill:none;"/><line y2="-25.98" y1="-25.98" x2="7.5" x1="-22.5" style="fill:none;"/><line y2="25.98" y1="25.98" x2="7.5" x1="-22.5" style="fill:none;"/><line y2="22.48" y1="22.48" x2="5.4793" x1="-20.4793" style="fill:none;"/><line y2="0" y1="-25.98" x2="22.5" x1="7.5" style="fill:none;"/><line y2="0.0001" y1="-22.48" x2="18.4585" x1="5.4793" style="fill:none;"/><line y2="0" y1="25.98" x2="22.5" x1="7.5" style="fill:none;"/><path style="fill:none; stroke-miterlimit:5;" d="M52.75 -0.433 L52.5 0 L52 -0"/></g><g transform="translate(100,33)" style="stroke-linecap:butt; fill:rgb(230,0,0); text-rendering:geometricPrecision; color-rendering:optimizeQuality; image-rendering:optimizeQuality; font-family:'Open Sans'; stroke:rgb(230,0,0); color-interpolation:linearRGB; stroke-miterlimit:5;"><path style="stroke:none;" d="M71.4375 -26.0503 Q71.4375 -23.9878 70.3984 -22.8081 Q69.3594 -21.6284 67.5156 -21.6284 Q65.625 -21.6284 64.5938 -22.7925 Q63.5625 -23.9566 63.5625 -26.0659 Q63.5625 -28.1597 64.5938 -29.3081 Q65.625 -30.4566 67.5156 -30.4566 Q69.375 -30.4566 70.4062 -29.2847 Q71.4375 -28.1128 71.4375 -26.0503 ZM64.6094 -26.0503 Q64.6094 -24.3159 65.3516 -23.4097 Q66.0938 -22.5034 67.5156 -22.5034 Q68.9375 -22.5034 69.6641 -23.4019 Q70.3906 -24.3003 70.3906 -26.0503 Q70.3906 -27.7847 69.6641 -28.6753 Q68.9375 -29.5659 67.5156 -29.5659 Q66.0938 -29.5659 65.3516 -28.6675 Q64.6094 -27.7691 64.6094 -26.0503 Z"/><path style="stroke:none;" d="M71.4375 25.9097 Q71.4375 27.9722 70.3984 29.1519 Q69.3594 30.3316 67.5156 30.3316 Q65.625 30.3316 64.5938 29.1675 Q63.5625 28.0034 63.5625 25.8941 Q63.5625 23.8003 64.5938 22.6519 Q65.625 21.5034 67.5156 21.5034 Q69.375 21.5034 70.4062 22.6753 Q71.4375 23.8472 71.4375 25.9097 ZM64.6094 25.9097 Q64.6094 27.6441 65.3516 28.5503 Q66.0938 29.4566 67.5156 29.4566 Q68.9375 29.4566 69.6641 28.5581 Q70.3906 27.6597 70.3906 25.9097 Q70.3906 24.1753 69.6641 23.2847 Q68.9375 22.3941 67.5156 22.3941 Q66.0938 22.3941 65.3516 23.2925 Q64.6094 24.1909 64.6094 25.9097 Z"/><path style="fill:none; stroke:black;" d="M-37.25 -0.433 L-37.5 0 L-38 -0"/><path style="fill:none; stroke:black;" d="M-22.75 -25.547 L-22.5 -25.98 L-22 -25.98"/><path style="fill:none; stroke:black;" d="M-22.75 25.547 L-22.5 25.98 L-22 25.98"/><path style="fill:none; stroke:black;" d="M7 -25.98 L7.5 -25.98 L7.75 -25.547"/><path style="fill:none; stroke:black;" d="M7 25.98 L7.5 25.98 L7.75 25.547"/><path style="fill:none; stroke:black;" d="M22.25 -0.433 L22.5 0 L23 0"/></g></g></svg></svg></svg></svg>