<svg xmlns:ns0="http://www.w3.org/2000/svg" xmlns="http://www.w3.org/2000/svg"><g transform="translate(0, 0)"><ns0:svg width="162" viewBox="0 0 162 114" style="fill-opacity:1; color-rendering:auto; color-interpolation:auto; text-rendering:auto; stroke:black; stroke-linecap:square; stroke-miterlimit:10; shape-rendering:auto; stroke-opacity:1; fill:black; stroke-dasharray:none; font-weight:normal; stroke-width:1; font-family:'Open Sans'; font-style:normal; stroke-linejoin:miter; font-size:12; stroke-dashoffset:0; image-rendering:auto;" height="114" class="cas-substance-image"><ns0:svg class="cas-substance-single-component"><ns0:rect y="0" x="0" width="162" stroke="none" ry="7" rx="7" height="114" fill="white" class="cas-substance-group" /><ns0:svg y="0" x="0" width="162" viewBox="0 0 162 114" style="fill:black;" height="114" class="cas-substance-single-component-image"><ns0:svg><ns0:g><ns0:g transform="translate(81,59)" style="text-rendering:geometricPrecision; color-rendering:optimizeQuality; color-interpolation:linearRGB; stroke-linecap:butt; image-rendering:optimizeQuality;"><ns0:line y2="-21.594" y1="-6.594" x2="-40.359" x1="-14.376" style="fill:none;" /><ns0:path style="stroke:none;" d="M-14.126 -6.161 L-14.626 -7.027 L5.0204 -21.257 L8.0204 -16.0608 Z" /><ns0:line y2="23.406" y1="-6.594" x2="-14.376" x1="-14.376" style="fill:none;" /><ns0:line y2="-9.82" y1="-21.594" x2="-60.7515" x1="-40.359" style="fill:none;" /><ns0:line y2="-45.2424" y1="-20.5837" x2="-38.609" x1="-38.609" style="fill:none;" /><ns0:line y2="-45.2424" y1="-20.5836" x2="-42.109" x1="-42.109" style="fill:none;" /><ns0:line y2="33.5314" y1="18.354" x2="61.4453" x1="43.359" style="fill:none;" /><ns0:line y2="-4.565" y1="19.653" x2="49.1761" x1="44.907" style="fill:none;" /><ns0:line y2="-5.1726" y1="18.0502" x2="45.7293" x1="41.6356" style="fill:none;" /><ns0:path style="stroke:none;" d="M15.339 29.0839 L14.997 28.1441 L41.0269 15.7442 L46.334 20.1978 Z" /><ns0:line y2="28.614" y1="23.406" x2="15.168" x1="-14.376" style="fill:none;" /><ns0:path style="stroke:none;" d="M-13.4819 24.1426 L-14.5782 24.5424 L-14.5782 24.5424 L-14.3103 25.5089 L-14.3103 25.5089 L-13.0569 25.0517 L-13.0569 25.0517 L-13.4819 24.1426 ZM-12.2068 26.87 L-13.7744 27.4418 L-13.7744 27.4418 L-13.5064 28.4082 L-13.5064 28.4082 L-11.7818 27.7792 L-11.7818 27.7792 L-12.2068 26.87 ZM-10.9318 29.5975 L-12.9705 30.3412 L-12.9705 30.3412 L-12.7026 31.3076 L-12.7026 31.3076 L-10.5068 30.5067 L-10.5068 30.5067 L-10.9318 29.5975 ZM-9.6567 32.325 L-12.1667 33.2405 L-12.1667 33.2405 L-11.8988 34.207 L-11.8988 34.207 L-9.2317 33.2342 L-9.2317 33.2342 L-9.6567 32.325 ZM-8.3817 35.0525 L-11.3629 36.1399 L-11.3629 36.1399 L-11.095 37.1063 L-11.095 37.1063 L-7.9567 35.9617 L-7.9567 35.9617 L-8.3817 35.0525 ZM-7.1066 37.78 L-10.5591 39.0392 L-10.5591 39.0392 L-10.2911 40.0057 L-6.6816 38.6891 L-6.6816 38.6891 L-7.1066 37.78 ZM-5.8316 40.5075 L-9.7553 41.9386 L-9.7553 41.9386 L-9.4873 42.905 L-9.4873 42.905 L-5.4066 41.4166 L-5.4066 41.4166 L-5.8316 40.5075 ZM-4.5565 43.2349 L-8.9514 44.8379 L-8.9514 44.8379 L-8.6835 45.8044 L-8.6835 45.8044 L-4.1315 44.1441 L-4.1315 44.1441 L-4.5565 43.2349 ZM-3.2815 45.9624 L-8.1476 47.7373 L-8.1476 47.7373 L-7.8797 48.7038 L-7.8797 48.7038 L-2.8565 46.8716 L-2.8565 46.8716 L-3.2815 45.9624 ZM-2.0064 48.6899 L-7.3438 50.6367 L-7.3438 50.6367 L-7.0758 51.6031 L-7.0758 51.6031 L-2.8215 50.0514 L-2.8215 50.0514 L-1.8893 48.9405 L-1.8893 48.9405 L-1.8893 48.9405 L-1.8893 48.9405 L-2.0064 48.6899 Z" /><ns0:line y2="51.594" y1="28.614" x2="-4.116" x1="15.168" style="fill:none;" /><ns0:line y2="27.6926" y1="23.406" x2="-38.6955" x1="-14.376" style="fill:none;" /></ns0:g><ns0:g transform="translate(81,59)" style="font-size:8.4px; fill:gray; text-rendering:geometricPrecision; image-rendering:optimizeQuality; color-rendering:optimizeQuality; font-family:'Open Sans'; font-style:italic; stroke:gray; color-interpolation:linearRGB;"><ns0:path style="stroke:none;" d="M-18.4848 -15.3909 Q-18.4848 -16.719 -18.016 -17.844 Q-17.5473 -18.969 -16.516 -20.0471 L-15.9066 -20.0471 Q-16.8754 -18.9846 -17.3598 -17.8127 Q-17.8441 -16.6409 -17.8441 -15.4065 Q-17.8441 -14.0784 -17.4066 -13.0627 L-17.9223 -13.0627 Q-18.4848 -14.094 -18.4848 -15.3909 ZM-12.8622 -15.9846 Q-12.8622 -15.1565 -13.4091 -14.7034 Q-13.956 -14.2502 -14.956 -14.2502 Q-15.3622 -14.2502 -15.6747 -14.3049 Q-15.9872 -14.3596 -16.2685 -14.5002 L-16.2685 -15.1565 Q-15.6435 -14.8284 -14.9403 -14.8284 Q-14.3153 -14.8284 -13.9403 -15.1252 Q-13.5653 -15.4221 -13.5653 -15.9377 Q-13.5653 -16.2502 -13.7685 -16.4768 Q-13.9716 -16.7034 -14.5341 -17.0315 Q-15.1278 -17.3596 -15.3544 -17.6877 Q-15.581 -18.0159 -15.581 -18.469 Q-15.581 -19.2034 -15.0653 -19.6643 Q-14.5497 -20.1252 -13.706 -20.1252 Q-13.331 -20.1252 -12.995 -20.0471 Q-12.6591 -19.969 -12.2841 -19.7971 L-12.5497 -19.2034 Q-12.7997 -19.3596 -13.12 -19.4456 Q-13.4403 -19.5315 -13.706 -19.5315 Q-14.2372 -19.5315 -14.5575 -19.2581 Q-14.8778 -18.9846 -14.8778 -18.5159 Q-14.8778 -18.3127 -14.8075 -18.1643 Q-14.7372 -18.0159 -14.5966 -17.8831 Q-14.456 -17.7502 -14.0341 -17.5002 Q-13.4716 -17.1565 -13.2685 -16.9612 Q-13.0653 -16.7659 -12.9638 -16.5315 Q-12.8622 -16.2971 -12.8622 -15.9846 ZM-10.2677 -17.7034 Q-10.2677 -16.3752 -10.7443 -15.2424 Q-11.2209 -14.1096 -12.2365 -13.0627 L-12.8459 -13.0627 Q-10.9084 -15.219 -10.9084 -17.7034 Q-10.9084 -19.0315 -11.3459 -20.0471 L-10.8302 -20.0471 Q-10.2677 -18.9846 -10.2677 -17.7034 Z" /></ns0:g><ns0:g transform="translate(81,59)" style="stroke-linecap:butt; font-size:8.4px; text-rendering:geometricPrecision; image-rendering:optimizeQuality; color-rendering:optimizeQuality; font-family:'Open Sans'; font-style:italic; color-interpolation:linearRGB; stroke-miterlimit:5;"><ns0:path style="fill:none;" d="M-39.926 -21.344 L-40.359 -21.594 L-40.792 -21.344" /></ns0:g><ns0:g transform="translate(81,59)" style="stroke-linecap:butt; fill:rgb(0,5,255); text-rendering:geometricPrecision; color-rendering:optimizeQuality; image-rendering:optimizeQuality; font-family:'Open Sans'; stroke:rgb(0,5,255); color-interpolation:linearRGB; stroke-miterlimit:5;"><ns0:path style="stroke:none;" d="M14.9556 -17.4377 L13.8149 -17.4377 L9.1274 -24.6252 L9.0806 -24.6252 Q9.1743 -23.3596 9.1743 -22.3127 L9.1743 -17.4377 L8.2524 -17.4377 L8.2524 -26.0002 L9.3774 -26.0002 L14.0493 -18.844 L14.0962 -18.844 Q14.0962 -19.0002 14.0493 -19.8596 Q14.0024 -20.719 14.0181 -21.094 L14.0181 -26.0002 L14.9556 -26.0002 L14.9556 -17.4377 Z" /><ns0:path style="stroke:none;" d="M22.4712 -17.4377 L21.4712 -17.4377 L21.4712 -21.469 L16.9556 -21.469 L16.9556 -17.4377 L15.9556 -17.4377 L15.9556 -26.0002 L16.9556 -26.0002 L16.9556 -22.3596 L21.4712 -22.3596 L21.4712 -26.0002 L22.4712 -26.0002 L22.4712 -17.4377 Z" /><ns0:path style="stroke:none;" d="M27.2212 -15.6284 L23.4712 -15.6284 L23.4712 -16.1909 L24.9712 -17.7065 Q25.6587 -18.394 25.8774 -18.6909 Q26.0962 -18.9878 26.2056 -19.269 Q26.3149 -19.5503 26.3149 -19.8784 Q26.3149 -20.3315 26.0415 -20.5971 Q25.7681 -20.8628 25.2681 -20.8628 Q24.9243 -20.8628 24.604 -20.7456 Q24.2837 -20.6284 23.8931 -20.3315 L23.5493 -20.769 Q24.3306 -21.4253 25.2681 -21.4253 Q26.0649 -21.4253 26.5259 -21.0112 Q26.9868 -20.5971 26.9868 -19.9096 Q26.9868 -19.3628 26.6821 -18.8315 Q26.3774 -18.3003 25.5337 -17.4878 L24.2837 -16.269 L24.2837 -16.2378 L27.2212 -16.2378 L27.2212 -15.6284 Z" /><ns0:path style="fill:rgb(230,0,0); stroke:none;" d="M-62.4015 -6.6643 Q-62.4015 -4.6018 -63.4406 -3.4221 Q-64.4796 -2.2424 -66.3234 -2.2424 Q-68.214 -2.2424 -69.2452 -3.4065 Q-70.2765 -4.5706 -70.2765 -6.6799 Q-70.2765 -8.7737 -69.2452 -9.9221 Q-68.214 -11.0706 -66.3234 -11.0706 Q-64.464 -11.0706 -63.4327 -9.8987 Q-62.4015 -8.7268 -62.4015 -6.6643 ZM-69.2296 -6.6643 Q-69.2296 -4.9299 -68.4874 -4.0237 Q-67.7452 -3.1174 -66.3234 -3.1174 Q-64.9015 -3.1174 -64.1749 -4.0159 Q-63.4484 -4.9143 -63.4484 -6.6643 Q-63.4484 -8.3987 -64.1749 -9.2893 Q-64.9015 -10.1799 -66.3234 -10.1799 Q-67.7452 -10.1799 -68.4874 -9.2815 Q-69.2296 -8.3831 -69.2296 -6.6643 Z" /><ns0:path style="fill:rgb(230,0,0); stroke:none;" d="M-71.2765 -2.3674 L-72.2765 -2.3674 L-72.2765 -6.3987 L-76.7921 -6.3987 L-76.7921 -2.3674 L-77.7921 -2.3674 L-77.7921 -10.9299 L-76.7921 -10.9299 L-76.7921 -7.2893 L-72.2765 -7.2893 L-72.2765 -10.9299 L-71.2765 -10.9299 L-71.2765 -2.3674 Z" /><ns0:path style="fill:rgb(230,0,0); stroke:none;" d="M-36.4215 -51.6643 Q-36.4215 -49.6018 -37.4606 -48.4221 Q-38.4996 -47.2424 -40.3434 -47.2424 Q-42.234 -47.2424 -43.2652 -48.4065 Q-44.2965 -49.5706 -44.2965 -51.6799 Q-44.2965 -53.7737 -43.2652 -54.9221 Q-42.234 -56.0706 -40.3434 -56.0706 Q-38.484 -56.0706 -37.4527 -54.8987 Q-36.4215 -53.7268 -36.4215 -51.6643 ZM-43.2496 -51.6643 Q-43.2496 -49.9299 -42.5074 -49.0237 Q-41.7652 -48.1174 -40.3434 -48.1174 Q-38.9215 -48.1174 -38.1949 -49.0159 Q-37.4684 -49.9143 -37.4684 -51.6643 Q-37.4684 -53.3987 -38.1949 -54.2893 Q-38.9215 -55.1799 -40.3434 -55.1799 Q-41.7652 -55.1799 -42.5074 -54.2815 Q-43.2496 -53.3831 -43.2496 -51.6643 Z" /><ns0:path style="fill:rgb(230,0,0); stroke:none;" d="M70.2765 37.5677 Q70.2765 39.6302 69.2374 40.8099 Q68.1984 41.9896 66.3546 41.9896 Q64.464 41.9896 63.4327 40.8255 Q62.4015 39.6614 62.4015 37.5521 Q62.4015 35.4583 63.4327 34.3099 Q64.464 33.1614 66.3546 33.1614 Q68.214 33.1614 69.2452 34.3333 Q70.2765 35.5052 70.2765 37.5677 ZM63.4484 37.5677 Q63.4484 39.3021 64.1906 40.2083 Q64.9327 41.1146 66.3546 41.1146 Q67.7765 41.1146 68.5031 40.2161 Q69.2296 39.3177 69.2296 37.5677 Q69.2296 35.8333 68.5031 34.9427 Q67.7765 34.0521 66.3546 34.0521 Q64.9327 34.0521 64.1906 34.9505 Q63.4484 35.8489 63.4484 37.5677 Z" /><ns0:path style="fill:rgb(230,0,0); stroke:none;" d="M77.7921 41.8646 L76.7921 41.8646 L76.7921 37.8333 L72.2765 37.8333 L72.2765 41.8646 L71.2765 41.8646 L71.2765 33.3021 L72.2765 33.3021 L72.2765 36.9427 L76.7921 36.9427 L76.7921 33.3021 L77.7921 33.3021 L77.7921 41.8646 Z" /><ns0:path style="fill:rgb(230,0,0); stroke:none;" d="M52.5045 -11.2603 Q52.5045 -9.1978 51.4654 -8.0181 Q50.4264 -6.8384 48.5826 -6.8384 Q46.692 -6.8384 45.6607 -8.0025 Q44.6295 -9.1666 44.6295 -11.2759 Q44.6295 -13.3697 45.6607 -14.5181 Q46.692 -15.6666 48.5826 -15.6666 Q50.442 -15.6666 51.4732 -14.4947 Q52.5045 -13.3228 52.5045 -11.2603 ZM45.6764 -11.2603 Q45.6764 -9.5259 46.4186 -8.6197 Q47.1607 -7.7134 48.5826 -7.7134 Q50.0045 -7.7134 50.7311 -8.6119 Q51.4576 -9.5103 51.4576 -11.2603 Q51.4576 -12.9947 50.7311 -13.8853 Q50.0045 -14.7759 48.5826 -14.7759 Q47.1607 -14.7759 46.4186 -13.8775 Q45.6764 -12.9791 45.6764 -11.2603 Z" /></ns0:g><ns0:g transform="translate(81,59)" style="stroke-linecap:butt; font-size:8.4px; fill:gray; text-rendering:geometricPrecision; image-rendering:optimizeQuality; color-rendering:optimizeQuality; font-family:'Open Sans'; font-style:italic; stroke:gray; color-interpolation:linearRGB; stroke-miterlimit:5;"><ns0:path style="stroke:none;" d="M-23.4847 33.2693 Q-23.4847 31.9411 -23.016 30.8161 Q-22.5472 29.6911 -21.516 28.613 L-20.9066 28.613 Q-21.8754 29.6755 -22.3597 30.8474 Q-22.8441 32.0193 -22.8441 33.2536 Q-22.8441 34.5818 -22.4066 35.5974 L-22.9222 35.5974 Q-23.4847 34.5661 -23.4847 33.2693 ZM-17.8622 32.6755 Q-17.8622 33.5036 -18.4091 33.9568 Q-18.9559 34.4099 -19.9559 34.4099 Q-20.3622 34.4099 -20.6747 34.3552 Q-20.9872 34.3005 -21.2684 34.1599 L-21.2684 33.5036 Q-20.6434 33.8318 -19.9403 33.8318 Q-19.3153 33.8318 -18.9403 33.5349 Q-18.5653 33.238 -18.5653 32.7224 Q-18.5653 32.4099 -18.7684 32.1833 Q-18.9716 31.9568 -19.5341 31.6286 Q-20.1278 31.3005 -20.3544 30.9724 Q-20.5809 30.6443 -20.5809 30.1911 Q-20.5809 29.4568 -20.0653 28.9958 Q-19.5497 28.5349 -18.7059 28.5349 Q-18.3309 28.5349 -17.995 28.613 Q-17.6591 28.6911 -17.2841 28.863 L-17.5497 29.4568 Q-17.7997 29.3005 -18.12 29.2146 Q-18.4403 29.1286 -18.7059 29.1286 Q-19.2372 29.1286 -19.5575 29.4021 Q-19.8778 29.6755 -19.8778 30.1443 Q-19.8778 30.3474 -19.8075 30.4958 Q-19.7372 30.6443 -19.5966 30.7771 Q-19.4559 30.9099 -19.0341 31.1599 Q-18.4716 31.5036 -18.2684 31.6989 Q-18.0653 31.8943 -17.9637 32.1286 Q-17.8622 32.363 -17.8622 32.6755 ZM-15.2677 30.9568 Q-15.2677 32.2849 -15.7443 33.4177 Q-16.2208 34.5505 -17.2365 35.5974 L-17.8458 35.5974 Q-15.9083 33.4411 -15.9083 30.9568 Q-15.9083 29.6286 -16.3458 28.613 L-15.8302 28.613 Q-15.2677 29.6755 -15.2677 30.9568 Z" /><ns0:path style="stroke:none;" d="M10.1878 19.8552 Q10.1878 18.5271 10.6565 17.4021 Q11.1253 16.2771 12.1565 15.1989 L12.7659 15.1989 Q11.7972 16.2614 11.3128 17.4333 Q10.8284 18.6052 10.8284 19.8396 Q10.8284 21.1677 11.2659 22.1833 L10.7503 22.1833 Q10.1878 21.1521 10.1878 19.8552 ZM15.8104 19.2614 Q15.8104 20.0896 15.2635 20.5427 Q14.7166 20.9958 13.7166 20.9958 Q13.3104 20.9958 12.9979 20.9411 Q12.6854 20.8864 12.4041 20.7458 L12.4041 20.0896 Q13.0291 20.4177 13.7322 20.4177 Q14.3572 20.4177 14.7322 20.1208 Q15.1072 19.8239 15.1072 19.3083 Q15.1072 18.9958 14.9041 18.7693 Q14.701 18.5427 14.1385 18.2146 Q13.5447 17.8864 13.3182 17.5583 Q13.0916 17.2302 13.0916 16.7771 Q13.0916 16.0427 13.6072 15.5818 Q14.1229 15.1208 14.9666 15.1208 Q15.3416 15.1208 15.6775 15.1989 Q16.0135 15.2771 16.3885 15.4489 L16.1229 16.0427 Q15.8729 15.8864 15.5525 15.8005 Q15.2322 15.7146 14.9666 15.7146 Q14.4354 15.7146 14.115 15.988 Q13.7947 16.2614 13.7947 16.7302 Q13.7947 16.9333 13.865 17.0818 Q13.9354 17.2302 14.076 17.363 Q14.2166 17.4958 14.6385 17.7458 Q15.201 18.0896 15.4041 18.2849 Q15.6072 18.4802 15.7088 18.7146 Q15.8104 18.9489 15.8104 19.2614 ZM18.4048 17.5427 Q18.4048 18.8708 17.9283 20.0036 Q17.4517 21.1364 16.4361 22.1833 L15.8267 22.1833 Q17.7642 20.0271 17.7642 17.5427 Q17.7642 16.2146 17.3267 15.1989 L17.8423 15.1989 Q18.4048 16.2614 18.4048 17.5427 Z" /></ns0:g><ns0:g transform="translate(81,59)" style="stroke-linecap:butt; text-rendering:geometricPrecision; color-rendering:optimizeQuality; image-rendering:optimizeQuality; font-family:'Open Sans'; color-interpolation:linearRGB; stroke-miterlimit:5;"><ns0:path style="stroke:none;" d="M-40.6652 32.7702 L-41.6652 32.7702 L-41.6652 28.739 L-46.1808 28.739 L-46.1808 32.7702 L-47.1808 32.7702 L-47.1808 24.2077 L-46.1808 24.2077 L-46.1808 27.8484 L-41.6652 27.8484 L-41.6652 24.2077 L-40.6652 24.2077 L-40.6652 32.7702 Z" /></ns0:g></ns0:g></ns0:svg></ns0:svg></ns0:svg></ns0:svg></g></svg>