<svg width="153" viewBox="0 0 153 98" style="fill-opacity:1; color-rendering:auto; color-interpolation:auto; text-rendering:auto; stroke:black; stroke-linecap:square; stroke-miterlimit:10; shape-rendering:auto; stroke-opacity:1; fill:black; stroke-dasharray:none; font-weight:normal; stroke-width:1; font-family:'Open Sans'; font-style:normal; stroke-linejoin:miter; font-size:12; stroke-dashoffset:0; image-rendering:auto;" height="98" class="cas-substance-image" xmlns:xlink="http://www.w3.org/1999/xlink" xmlns="http://www.w3.org/2000/svg"><svg class="cas-substance-single-component"><rect y="0" x="0" width="153" stroke="none" ry="7" rx="7" height="98" fill="white" class="cas-substance-group"/><svg y="0" x="0" width="153" viewBox="0 0 153 98" style="fill:black;" height="98" class="cas-substance-single-component-image"><svg><g><g transform="translate(71,42)" style="text-rendering:geometricPrecision; color-rendering:optimizeQuality; color-interpolation:linearRGB; stroke-linecap:butt; image-rendering:optimizeQuality;"><line y2="-12.99" y1="-12.99" x2="37.5" x1="61.5625" style="fill:none;"/><line y2="-12.99" y1="12.99" x2="-22.5" x1="-7.5" style="fill:none;"/><line y2="12.99" y1="12.99" x2="22.5" x1="-7.5" style="fill:none;"/><line y2="9.49" y1="9.49" x2="20.4793" x1="-5.4793" style="fill:none;"/><line y2="32.8317" y1="12.99" x2="-18.956" x1="-7.5" style="fill:none;"/><line y2="-38.97" y1="-12.99" x2="-7.5" x1="-22.5" style="fill:none;"/><line y2="-35.47" y1="-12.9899" x2="-5.4793" x1="-18.4585" style="fill:none;"/><line y2="-12.99" y1="-12.99" x2="-52.5" x1="-22.5" style="fill:none;"/><line y2="-12.99" y1="12.99" x2="37.5" x1="22.5" style="fill:none;"/><line y2="38.97" y1="38.97" x2="-52.5" x1="-27.8516" style="fill:none;"/><line y2="-38.97" y1="-38.97" x2="22.5" x1="-7.5" style="fill:none;"/><line y2="12.99" y1="-12.99" x2="-67.5" x1="-52.5" style="fill:none;"/><line y2="-38.97" y1="-12.99" x2="22.5" x1="37.5" style="fill:none;"/><line y2="-35.47" y1="-12.9899" x2="20.4793" x1="33.4585" style="fill:none;"/><line y2="12.99" y1="38.97" x2="-67.5" x1="-52.5" style="fill:none;"/></g><g transform="translate(71,42)" style="fill:rgb(230,0,0); text-rendering:geometricPrecision; color-rendering:optimizeQuality; image-rendering:optimizeQuality; font-family:'Open Sans'; stroke:rgb(230,0,0); color-interpolation:linearRGB;"><path style="stroke:none;" d="M71.4375 -13.0603 Q71.4375 -10.9978 70.3984 -9.8181 Q69.3594 -8.6384 67.5156 -8.6384 Q65.625 -8.6384 64.5938 -9.8025 Q63.5625 -10.9666 63.5625 -13.0759 Q63.5625 -15.1697 64.5938 -16.3181 Q65.625 -17.4666 67.5156 -17.4666 Q69.375 -17.4666 70.4062 -16.2947 Q71.4375 -15.1228 71.4375 -13.0603 ZM64.6094 -13.0603 Q64.6094 -11.3259 65.3516 -10.4197 Q66.0938 -9.5134 67.5156 -9.5134 Q68.9375 -9.5134 69.6641 -10.4119 Q70.3906 -11.3103 70.3906 -13.0603 Q70.3906 -14.7947 69.6641 -15.6853 Q68.9375 -16.5759 67.5156 -16.5759 Q66.0938 -16.5759 65.3516 -15.6775 Q64.6094 -14.7791 64.6094 -13.0603 Z"/><path style="stroke:none;" d="M78.9531 -8.7634 L77.9531 -8.7634 L77.9531 -12.7947 L73.4375 -12.7947 L73.4375 -8.7634 L72.4375 -8.7634 L72.4375 -17.3259 L73.4375 -17.3259 L73.4375 -13.6853 L77.9531 -13.6853 L77.9531 -17.3259 L78.9531 -17.3259 L78.9531 -8.7634 Z"/></g><g transform="translate(71,42)" style="stroke-linecap:butt; text-rendering:geometricPrecision; color-rendering:optimizeQuality; image-rendering:optimizeQuality; font-family:'Open Sans'; color-interpolation:linearRGB; stroke-miterlimit:5;"><path style="fill:none;" d="M-7 12.99 L-7.5 12.99 L-7.75 12.557"/><path style="fill:none;" d="M-22.25 -13.423 L-22.5 -12.99 L-22.25 -12.557"/><path style="fill:none;" d="M22 12.99 L22.5 12.99 L22.75 12.557"/><path style="fill:rgb(0,5,255); stroke:none;" d="M-19.1484 43.1263 L-20.2891 43.1263 L-24.9766 35.9388 L-25.0234 35.9388 Q-24.9297 37.2044 -24.9297 38.2513 L-24.9297 43.1263 L-25.8516 43.1263 L-25.8516 34.5638 L-24.7266 34.5638 L-20.0547 41.72 L-20.0078 41.72 Q-20.0078 41.5638 -20.0547 40.7044 Q-20.1016 39.845 -20.0859 39.47 L-20.0859 34.5638 L-19.1484 34.5638 L-19.1484 43.1263 Z"/><path style="fill:rgb(0,5,255); stroke:none;" d="M-19.2422 52.6888 L-20.2422 52.6888 L-20.2422 48.6575 L-24.7578 48.6575 L-24.7578 52.6888 L-25.7578 52.6888 L-25.7578 44.1263 L-24.7578 44.1263 L-24.7578 47.7669 L-20.2422 47.7669 L-20.2422 44.1263 L-19.2422 44.1263 L-19.2422 52.6888 Z"/><path style="fill:none;" d="M-7.75 -38.537 L-7.5 -38.97 L-7 -38.97"/><path style="fill:none;" d="M-52 -12.99 L-52.5 -12.99 L-52.75 -12.557"/><path style="fill:none;" d="M37.25 -13.423 L37.5 -12.99 L38 -12.99"/><path style="fill:none;" d="M-52 38.97 L-52.5 38.97 L-52.75 38.537"/><path style="fill:none;" d="M22 -38.97 L22.5 -38.97 L22.75 -38.537"/><path style="fill:none;" d="M-67.25 12.557 L-67.5 12.99 L-67.25 13.423"/></g></g></svg></svg></svg></svg>