<svg xmlns:ns0="http://www.w3.org/2000/svg" xmlns="http://www.w3.org/2000/svg"><g transform="translate(0, 0)"><ns0:svg width="127" viewBox="0 0 127 86" style="fill-opacity:1; color-rendering:auto; color-interpolation:auto; text-rendering:auto; stroke:black; stroke-linecap:square; stroke-miterlimit:10; shape-rendering:auto; stroke-opacity:1; fill:black; stroke-dasharray:none; font-weight:normal; stroke-width:1; font-family:'Open Sans'; font-style:normal; stroke-linejoin:miter; font-size:12; stroke-dashoffset:0; image-rendering:auto;" height="86" class="cas-substance-image"><ns0:svg class="cas-substance-single-component"><ns0:rect y="0" x="0" width="127" stroke="none" ry="7" rx="7" height="86" fill="white" class="cas-substance-group" /><ns0:svg y="0" x="0" width="127" viewBox="0 0 127 86" style="fill:black;" height="86" class="cas-substance-single-component-image"><ns0:svg><ns0:g><ns0:g transform="translate(71,43)" style="text-rendering:geometricPrecision; color-rendering:optimizeQuality; color-interpolation:linearRGB; stroke-linecap:butt; image-rendering:optimizeQuality;"><ns0:line y2="-20.0917" y1="0" x2="-49.1003" x1="-37.5" style="fill:none;" /><ns0:line y2="19.3833" y1="-1.75" x2="-50.712" x1="-38.5104" style="fill:none;" /><ns0:line y2="21.1333" y1="0" x2="-47.681" x1="-35.4793" style="fill:none;" /><ns0:line y2="0" y1="0" x2="-7.5" x1="-37.5" style="fill:none;" /><ns0:line y2="25.98" y1="0" x2="7.5" x1="-7.5" style="fill:none;" /><ns0:line y2="-20.0917" y1="0" x2="4.1003" x1="-7.5" style="fill:none;" /><ns0:line y2="25.98" y1="25.98" x2="32.1484" x1="7.5" style="fill:none;" /><ns0:line y2="-25.98" y1="-25.98" x2="37.5" x1="12.8516" style="fill:none;" /><ns0:line y2="0" y1="19.8417" x2="52.5" x1="41.044" style="fill:none;" /><ns0:line y2="0" y1="-25.98" x2="52.5" x1="37.5" style="fill:none;" /><ns0:path style="fill:none; stroke-miterlimit:5;" d="M-37.75 -0.433 L-37.5 0 L-37 0" /></ns0:g><ns0:g transform="translate(71,43)" style="stroke-linecap:butt; fill:rgb(0,5,255); text-rendering:geometricPrecision; color-rendering:optimizeQuality; image-rendering:optimizeQuality; font-family:'Open Sans'; stroke:rgb(0,5,255); color-interpolation:linearRGB; stroke-miterlimit:5;"><ns0:path style="stroke:none;" d="M-49.1484 -21.8237 L-50.2891 -21.8237 L-54.9766 -29.0112 L-55.0234 -29.0112 Q-54.9297 -27.7456 -54.9297 -26.6987 L-54.9297 -21.8237 L-55.8516 -21.8237 L-55.8516 -30.3862 L-54.7266 -30.3862 L-50.0547 -23.23 L-50.0078 -23.23 Q-50.0078 -23.3862 -50.0547 -24.2456 Q-50.1016 -25.105 -50.0859 -25.48 L-50.0859 -30.3862 L-49.1484 -30.3862 L-49.1484 -21.8237 Z" /><ns0:path style="stroke:none;" d="M-61.6016 -21.8237 L-62.6016 -21.8237 L-62.6016 -25.855 L-67.1172 -25.855 L-67.1172 -21.8237 L-68.1172 -21.8237 L-68.1172 -30.3862 L-67.1172 -30.3862 L-67.1172 -26.7456 L-62.6016 -26.7456 L-62.6016 -30.3862 L-61.6016 -30.3862 L-61.6016 -21.8237 Z" /><ns0:path style="stroke:none;" d="M-56.8516 -20.0144 L-60.6016 -20.0144 L-60.6016 -20.5769 L-59.1016 -22.0925 Q-58.4141 -22.78 -58.1953 -23.0769 Q-57.9766 -23.3737 -57.8672 -23.655 Q-57.7578 -23.9362 -57.7578 -24.2644 Q-57.7578 -24.7175 -58.0312 -24.9831 Q-58.3047 -25.2487 -58.8047 -25.2487 Q-59.1484 -25.2487 -59.4688 -25.1316 Q-59.7891 -25.0144 -60.1797 -24.7175 L-60.5234 -25.155 Q-59.7422 -25.8112 -58.8047 -25.8112 Q-58.0078 -25.8112 -57.5469 -25.3972 Q-57.0859 -24.9831 -57.0859 -24.2956 Q-57.0859 -23.7487 -57.3906 -23.2175 Q-57.6953 -22.6862 -58.5391 -21.8737 L-59.7891 -20.655 L-59.7891 -20.6237 L-56.8516 -20.6237 L-56.8516 -20.0144 Z" /><ns0:path style="fill:rgb(230,0,0); stroke:none;" d="M-48.5625 25.9097 Q-48.5625 27.9722 -49.6016 29.1519 Q-50.6406 30.3316 -52.4844 30.3316 Q-54.375 30.3316 -55.4062 29.1675 Q-56.4375 28.0034 -56.4375 25.8941 Q-56.4375 23.8003 -55.4062 22.6519 Q-54.375 21.5034 -52.4844 21.5034 Q-50.625 21.5034 -49.5938 22.6753 Q-48.5625 23.8472 -48.5625 25.9097 ZM-55.3906 25.9097 Q-55.3906 27.6441 -54.6484 28.5503 Q-53.9062 29.4566 -52.4844 29.4566 Q-51.0625 29.4566 -50.3359 28.5581 Q-49.6094 27.6597 -49.6094 25.9097 Q-49.6094 24.1753 -50.3359 23.2847 Q-51.0625 22.3941 -52.4844 22.3941 Q-53.9062 22.3941 -54.6484 23.2925 Q-55.3906 24.1909 -55.3906 25.9097 Z" /><ns0:path style="fill:none; stroke:black;" d="M7.25 25.547 L7.5 25.98 L8 25.98" /><ns0:path style="stroke:none;" d="M10.8516 -21.8237 L9.7109 -21.8237 L5.0234 -29.0112 L4.9766 -29.0112 Q5.0703 -27.7456 5.0703 -26.6987 L5.0703 -21.8237 L4.1484 -21.8237 L4.1484 -30.3862 L5.2734 -30.3862 L9.9453 -23.23 L9.9922 -23.23 Q9.9922 -23.3862 9.9453 -24.2456 Q9.8984 -25.105 9.9141 -25.48 L9.9141 -30.3862 L10.8516 -30.3862 L10.8516 -21.8237 Z" /><ns0:path style="stroke:none;" d="M10.7578 -31.3862 L9.7578 -31.3862 L9.7578 -35.4175 L5.2422 -35.4175 L5.2422 -31.3862 L4.2422 -31.3862 L4.2422 -39.9487 L5.2422 -39.9487 L5.2422 -36.3081 L9.7578 -36.3081 L9.7578 -39.9487 L10.7578 -39.9487 L10.7578 -31.3862 Z" /><ns0:path style="stroke:none;" d="M40.8516 30.1362 L39.7109 30.1362 L35.0234 22.9487 L34.9766 22.9487 Q35.0703 24.2144 35.0703 25.2612 L35.0703 30.1362 L34.1484 30.1362 L34.1484 21.5737 L35.2734 21.5737 L39.9453 28.73 L39.9922 28.73 Q39.9922 28.5737 39.9453 27.7144 Q39.8984 26.855 39.9141 26.48 L39.9141 21.5737 L40.8516 21.5737 L40.8516 30.1362 Z" /><ns0:path style="stroke:none;" d="M40.7578 39.6987 L39.7578 39.6987 L39.7578 35.6675 L35.2422 35.6675 L35.2422 39.6987 L34.2422 39.6987 L34.2422 31.1362 L35.2422 31.1362 L35.2422 34.7769 L39.7578 34.7769 L39.7578 31.1362 L40.7578 31.1362 L40.7578 39.6987 Z" /><ns0:path style="fill:none; stroke:black;" d="M37 -25.98 L37.5 -25.98 L37.75 -25.547" /><ns0:path style="fill:none; stroke:black;" d="M52.25 0.433 L52.5 0 L52.25 -0.433" /></ns0:g></ns0:g></ns0:svg></ns0:svg></ns0:svg></ns0:svg></g></svg>