<svg width="223" viewBox="0 0 223 60" style="fill-opacity:1; color-rendering:auto; color-interpolation:auto; text-rendering:auto; stroke:black; stroke-linecap:square; stroke-miterlimit:10; shape-rendering:auto; stroke-opacity:1; fill:black; stroke-dasharray:none; font-weight:normal; stroke-width:1; font-family:'Open Sans'; font-style:normal; stroke-linejoin:miter; font-size:12; stroke-dashoffset:0; image-rendering:auto;" height="60" class="cas-substance-image" xmlns:xlink="http://www.w3.org/1999/xlink" xmlns="http://www.w3.org/2000/svg"><svg class="cas-substance-single-component"><rect y="0" x="0" width="223" stroke="none" ry="7" rx="7" height="60" fill="white" class="cas-substance-group"/><svg y="0" x="0" width="223" viewBox="0 0 223 60" style="fill:black;" height="60" class="cas-substance-single-component-image"><svg><g><g transform="translate(111,30)" style="text-rendering:geometricPrecision; color-rendering:optimizeQuality; color-interpolation:linearRGB; stroke-linecap:butt; image-rendering:optimizeQuality;"><line y2="-19.3214" y1="-7.5" x2="-20.4746" x1="0" style="fill:none;"/><line y2="-19.3112" y1="-7.5" x2="20.457" x1="0" style="fill:none;"/><line y2="16.0234" y1="-8.5104" x2="-1.75" x1="-1.75" style="fill:none;"/><line y2="16.0234" y1="-8.5104" x2="1.75" x1="1.75" style="fill:none;"/><line y2="-7.5" y1="-19.3114" x2="-51.963" x1="-31.5032" style="fill:none;"/><line y2="-7.5" y1="-19.3216" x2="51.963" x1="31.4856" style="fill:none;"/><line y2="-22.5" y1="-7.5" x2="-77.943" x1="-51.963" style="fill:none;"/><line y2="-22.5" y1="-7.5" x2="77.943" x1="51.963" style="fill:none;"/><line y2="-11.0508" y1="-22.5" x2="-97.773" x1="-77.943" style="fill:none;"/><line y2="-10.7473" y1="-22.5" x2="98.2987" x1="77.943" style="fill:none;"/><path style="fill:none; stroke-miterlimit:5;" d="M-0.433 -7.75 L0 -7.5 L0.433 -7.75"/></g><g transform="translate(111,30)" style="stroke-linecap:butt; fill:rgb(230,0,0); text-rendering:geometricPrecision; color-rendering:optimizeQuality; image-rendering:optimizeQuality; font-family:'Open Sans'; stroke:rgb(230,0,0); color-interpolation:linearRGB; stroke-miterlimit:5;"><path style="stroke:none;" d="M-22.0425 -22.5703 Q-22.0425 -20.5078 -23.0816 -19.3281 Q-24.1206 -18.1484 -25.9644 -18.1484 Q-27.855 -18.1484 -28.8862 -19.3125 Q-29.9175 -20.4766 -29.9175 -22.5859 Q-29.9175 -24.6797 -28.8862 -25.8281 Q-27.855 -26.9766 -25.9644 -26.9766 Q-24.105 -26.9766 -23.0737 -25.8047 Q-22.0425 -24.6328 -22.0425 -22.5703 ZM-28.8706 -22.5703 Q-28.8706 -20.8359 -28.1284 -19.9297 Q-27.3862 -19.0234 -25.9644 -19.0234 Q-24.5425 -19.0234 -23.8159 -19.9219 Q-23.0894 -20.8203 -23.0894 -22.5703 Q-23.0894 -24.3047 -23.8159 -25.1953 Q-24.5425 -26.0859 -25.9644 -26.0859 Q-27.3862 -26.0859 -28.1284 -25.1875 Q-28.8706 -24.2891 -28.8706 -22.5703 Z"/><path style="stroke:none;" d="M29.9175 -22.5703 Q29.9175 -20.5078 28.8784 -19.3281 Q27.8394 -18.1484 25.9956 -18.1484 Q24.105 -18.1484 23.0737 -19.3125 Q22.0425 -20.4766 22.0425 -22.5859 Q22.0425 -24.6797 23.0737 -25.8281 Q24.105 -26.9766 25.9956 -26.9766 Q27.855 -26.9766 28.8862 -25.8047 Q29.9175 -24.6328 29.9175 -22.5703 ZM23.0894 -22.5703 Q23.0894 -20.8359 23.8316 -19.9297 Q24.5737 -19.0234 25.9956 -19.0234 Q27.4175 -19.0234 28.1441 -19.9219 Q28.8706 -20.8203 28.8706 -22.5703 Q28.8706 -24.3047 28.1441 -25.1953 Q27.4175 -26.0859 25.9956 -26.0859 Q24.5737 -26.0859 23.8316 -25.1875 Q23.0894 -24.2891 23.0894 -22.5703 Z"/><path style="stroke:none;" d="M3.9375 22.4297 Q3.9375 24.4922 2.8984 25.6719 Q1.8594 26.8516 0.0156 26.8516 Q-1.875 26.8516 -2.9062 25.6875 Q-3.9375 24.5234 -3.9375 22.4141 Q-3.9375 20.3203 -2.9062 19.1719 Q-1.875 18.0234 0.0156 18.0234 Q1.875 18.0234 2.9062 19.1953 Q3.9375 20.3672 3.9375 22.4297 ZM-2.8906 22.4297 Q-2.8906 24.1641 -2.1484 25.0703 Q-1.4062 25.9766 0.0156 25.9766 Q1.4375 25.9766 2.1641 25.0781 Q2.8906 24.1797 2.8906 22.4297 Q2.8906 20.6953 2.1641 19.8047 Q1.4375 18.9141 0.0156 18.9141 Q-1.4062 18.9141 -2.1484 19.8125 Q-2.8906 20.7109 -2.8906 22.4297 Z"/><path style="fill:none; stroke:black;" d="M-51.53 -7.75 L-51.963 -7.5 L-52.396 -7.75"/><path style="fill:none; stroke:black;" d="M51.53 -7.75 L51.963 -7.5 L52.396 -7.75"/><path style="fill:none; stroke:black;" d="M-77.51 -22.25 L-77.943 -22.5 L-78.376 -22.25"/><path style="fill:none; stroke:black;" d="M77.51 -22.25 L77.943 -22.5 L78.376 -22.25"/><path style="fill:rgb(0,138,0); stroke:none;" d="M-104.2316 -10.8594 Q-105.6378 -10.8594 -106.4582 -9.9219 Q-107.2785 -8.9844 -107.2785 -7.3438 Q-107.2785 -5.6719 -106.4894 -4.75 Q-105.7003 -3.8281 -104.2472 -3.8281 Q-103.341 -3.8281 -102.2003 -4.1562 L-102.2003 -3.2812 Q-103.091 -2.9375 -104.3878 -2.9375 Q-106.2785 -2.9375 -107.3097 -4.0938 Q-108.341 -5.25 -108.341 -7.3594 Q-108.341 -8.6875 -107.8488 -9.6797 Q-107.3566 -10.6719 -106.4191 -11.2109 Q-105.4816 -11.75 -104.216 -11.75 Q-102.8722 -11.75 -101.8566 -11.2656 L-102.2785 -10.4062 Q-103.2628 -10.8594 -104.2316 -10.8594 ZM-99.505 -3.0625 L-100.4738 -3.0625 L-100.4738 -12.1875 L-99.505 -12.1875 L-99.505 -3.0625 Z"/><path style="fill:rgb(0,138,0); stroke:none;" d="M103.6144 -10.8594 Q102.2082 -10.8594 101.3878 -9.9219 Q100.5675 -8.9844 100.5675 -7.3438 Q100.5675 -5.6719 101.3566 -4.75 Q102.1457 -3.8281 103.5988 -3.8281 Q104.505 -3.8281 105.6457 -4.1562 L105.6457 -3.2812 Q104.755 -2.9375 103.4582 -2.9375 Q101.5675 -2.9375 100.5363 -4.0938 Q99.505 -5.25 99.505 -7.3594 Q99.505 -8.6875 99.9972 -9.6797 Q100.4894 -10.6719 101.4269 -11.2109 Q102.3644 -11.75 103.63 -11.75 Q104.9738 -11.75 105.9894 -11.2656 L105.5675 -10.4062 Q104.5832 -10.8594 103.6144 -10.8594 ZM108.341 -3.0625 L107.3722 -3.0625 L107.3722 -12.1875 L108.341 -12.1875 L108.341 -3.0625 Z"/></g></g></svg></svg></svg></svg>