<svg width="157" viewBox="0 0 157 75" style="fill-opacity:1; color-rendering:auto; color-interpolation:auto; text-rendering:auto; stroke:black; stroke-linecap:square; stroke-miterlimit:10; shape-rendering:auto; stroke-opacity:1; fill:black; stroke-dasharray:none; font-weight:normal; stroke-width:1; font-family:'Open Sans'; font-style:normal; stroke-linejoin:miter; font-size:12; stroke-dashoffset:0; image-rendering:auto;" height="75" class="cas-substance-image" xmlns:xlink="http://www.w3.org/1999/xlink" xmlns="http://www.w3.org/2000/svg"><svg class="cas-substance-single-component"><rect y="0" x="0" width="157" stroke="none" ry="7" rx="7" height="75" fill="white" class="cas-substance-group"/><svg y="0" x="0" width="157" viewBox="0 0 157 75" style="fill:black;" height="75" class="cas-substance-single-component-image"><svg><g><g transform="translate(71,37)" style="text-rendering:geometricPrecision; color-rendering:optimizeQuality; color-interpolation:linearRGB; stroke-linecap:butt; image-rendering:optimizeQuality;"><line y2="0" y1="0" x2="47.1484" x1="27.061" style="fill:none;"/><line y2="-23.6484" y1="-6.4688" x2="24.25" x1="24.25" style="fill:none;"/><line y2="-23.6484" y1="-6.4688" x2="20.75" x1="20.75" style="fill:none;"/><line y2="23.5234" y1="6.3438" x2="20.75" x1="20.75" style="fill:none;"/><line y2="23.5234" y1="6.3438" x2="24.25" x1="24.25" style="fill:none;"/><line y2="0" y1="0" x2="-7.5" x1="17.8567" style="fill:none;"/><line y2="-20.0917" y1="-6.1383" x2="64.1003" x1="56.044" style="fill:none;"/><line y2="25.98" y1="0" x2="-22.5" x1="-7.5" style="fill:none;"/><line y2="22.48" y1="-0.0001" x2="-24.5207" x1="-11.5415" style="fill:none;"/><line y2="-25.98" y1="0" x2="-22.5" x1="-7.5" style="fill:none;"/><line y2="25.98" y1="25.98" x2="-52.5" x1="-22.5" style="fill:none;"/><line y2="-25.98" y1="-25.98" x2="-52.5" x1="-22.5" style="fill:none;"/><line y2="-22.48" y1="-22.48" x2="-50.4793" x1="-24.5207" style="fill:none;"/><line y2="0" y1="25.98" x2="-67.5" x1="-52.5" style="fill:none;"/><line y2="-0.0001" y1="22.48" x2="-63.4585" x1="-50.4793" style="fill:none;"/><line y2="0" y1="-25.98" x2="-67.5" x1="-52.5" style="fill:none;"/></g><g transform="translate(71,37)" style="fill:rgb(148,108,0); text-rendering:geometricPrecision; color-rendering:optimizeQuality; image-rendering:optimizeQuality; font-family:'Open Sans'; stroke:rgb(148,108,0); color-interpolation:linearRGB;"><path style="stroke:none;" d="M25.1953 1.9375 Q25.1953 3.0625 24.375 3.7031 Q23.5547 4.3438 22.1484 4.3438 Q20.6172 4.3438 19.8047 3.9375 L19.8047 2.9844 Q20.3359 3.2031 20.9531 3.3359 Q21.5703 3.4688 22.1797 3.4688 Q23.1797 3.4688 23.6797 3.0859 Q24.1797 2.7031 24.1797 2.0312 Q24.1797 1.5938 24 1.3047 Q23.8203 1.0156 23.4062 0.7734 Q22.9922 0.5312 22.1328 0.2344 Q20.9453 -0.1875 20.4297 -0.7734 Q19.9141 -1.3594 19.9141 -2.3125 Q19.9141 -3.2969 20.6562 -3.8828 Q21.3984 -4.4688 22.6328 -4.4688 Q23.8984 -4.4688 24.9766 -4 L24.6641 -3.1406 Q23.6016 -3.5781 22.6016 -3.5781 Q21.8047 -3.5781 21.3594 -3.2422 Q20.9141 -2.9062 20.9141 -2.2969 Q20.9141 -1.8594 21.0781 -1.5703 Q21.2422 -1.2812 21.6328 -1.0469 Q22.0234 -0.8125 22.8359 -0.5156 Q24.1797 -0.0469 24.6875 0.5078 Q25.1953 1.0625 25.1953 1.9375 Z"/><path style="fill:rgb(0,5,255); stroke:none;" d="M55.8516 4.1562 L54.7109 4.1562 L50.0234 -3.0312 L49.9766 -3.0312 Q50.0703 -1.7656 50.0703 -0.7188 L50.0703 4.1562 L49.1484 4.1562 L49.1484 -4.4062 L50.2734 -4.4062 L54.9453 2.75 L54.9922 2.75 Q54.9922 2.5938 54.9453 1.7344 Q54.8984 0.875 54.9141 0.5 L54.9141 -4.4062 L55.8516 -4.4062 L55.8516 4.1562 Z"/><path style="fill:rgb(0,5,255); stroke:none;" d="M55.7578 13.7188 L54.7578 13.7188 L54.7578 9.6875 L50.2422 9.6875 L50.2422 13.7188 L49.2422 13.7188 L49.2422 5.1562 L50.2422 5.1562 L50.2422 8.7969 L54.7578 8.7969 L54.7578 5.1562 L55.7578 5.1562 L55.7578 13.7188 Z"/><path style="fill:rgb(230,0,0); stroke:none;" d="M26.4375 -30.0703 Q26.4375 -28.0078 25.3984 -26.8281 Q24.3594 -25.6484 22.5156 -25.6484 Q20.625 -25.6484 19.5938 -26.8125 Q18.5625 -27.9766 18.5625 -30.0859 Q18.5625 -32.1797 19.5938 -33.3281 Q20.625 -34.4766 22.5156 -34.4766 Q24.375 -34.4766 25.4062 -33.3047 Q26.4375 -32.1328 26.4375 -30.0703 ZM19.6094 -30.0703 Q19.6094 -28.3359 20.3516 -27.4297 Q21.0938 -26.5234 22.5156 -26.5234 Q23.9375 -26.5234 24.6641 -27.4219 Q25.3906 -28.3203 25.3906 -30.0703 Q25.3906 -31.8047 24.6641 -32.6953 Q23.9375 -33.5859 22.5156 -33.5859 Q21.0938 -33.5859 20.3516 -32.6875 Q19.6094 -31.7891 19.6094 -30.0703 Z"/><path style="fill:rgb(230,0,0); stroke:none;" d="M26.4375 29.9297 Q26.4375 31.9922 25.3984 33.1719 Q24.3594 34.3516 22.5156 34.3516 Q20.625 34.3516 19.5938 33.1875 Q18.5625 32.0234 18.5625 29.9141 Q18.5625 27.8203 19.5938 26.6719 Q20.625 25.5234 22.5156 25.5234 Q24.375 25.5234 25.4062 26.6953 Q26.4375 27.8672 26.4375 29.9297 ZM19.6094 29.9297 Q19.6094 31.6641 20.3516 32.5703 Q21.0938 33.4766 22.5156 33.4766 Q23.9375 33.4766 24.6641 32.5781 Q25.3906 31.6797 25.3906 29.9297 Q25.3906 28.1953 24.6641 27.3047 Q23.9375 26.4141 22.5156 26.4141 Q21.0938 26.4141 20.3516 27.3125 Q19.6094 28.2109 19.6094 29.9297 Z"/><path style="fill:rgb(0,5,255); stroke:none;" d="M70.8516 -21.8237 L69.7109 -21.8237 L65.0234 -29.0112 L64.9766 -29.0112 Q65.0703 -27.7456 65.0703 -26.6987 L65.0703 -21.8237 L64.1484 -21.8237 L64.1484 -30.3862 L65.2734 -30.3862 L69.9453 -23.23 L69.9922 -23.23 Q69.9922 -23.3862 69.9453 -24.2456 Q69.8984 -25.105 69.9141 -25.48 L69.9141 -30.3862 L70.8516 -30.3862 L70.8516 -21.8237 Z"/><path style="fill:rgb(0,5,255); stroke:none;" d="M78.3672 -21.8237 L77.3672 -21.8237 L77.3672 -25.855 L72.8516 -25.855 L72.8516 -21.8237 L71.8516 -21.8237 L71.8516 -30.3862 L72.8516 -30.3862 L72.8516 -26.7456 L77.3672 -26.7456 L77.3672 -30.3862 L78.3672 -30.3862 L78.3672 -21.8237 Z"/><path style="fill:rgb(0,5,255); stroke:none;" d="M83.1172 -20.0144 L79.3672 -20.0144 L79.3672 -20.5769 L80.8672 -22.0925 Q81.5547 -22.78 81.7734 -23.0769 Q81.9922 -23.3737 82.1016 -23.655 Q82.2109 -23.9362 82.2109 -24.2644 Q82.2109 -24.7175 81.9375 -24.9831 Q81.6641 -25.2487 81.1641 -25.2487 Q80.8203 -25.2487 80.5 -25.1316 Q80.1797 -25.0144 79.7891 -24.7175 L79.4453 -25.155 Q80.2266 -25.8112 81.1641 -25.8112 Q81.9609 -25.8112 82.4219 -25.3972 Q82.8828 -24.9831 82.8828 -24.2956 Q82.8828 -23.7487 82.5781 -23.2175 Q82.2734 -22.6862 81.4297 -21.8737 L80.1797 -20.655 L80.1797 -20.6237 L83.1172 -20.6237 L83.1172 -20.0144 Z"/></g><g transform="translate(71,37)" style="stroke-linecap:butt; font-size:8.4px; text-rendering:geometricPrecision; color-rendering:optimizeQuality; image-rendering:optimizeQuality; font-family:'Open Sans'; color-interpolation:linearRGB; stroke-miterlimit:5;"><path style="fill:none;" d="M-7.75 0.433 L-7.5 0 L-7 0"/><path style="fill:none;" d="M-22.25 25.547 L-22.5 25.98 L-23 25.98"/><path style="fill:none;" d="M-22.25 -25.547 L-22.5 -25.98 L-23 -25.98"/><path style="fill:none;" d="M-52 25.98 L-52.5 25.98 L-52.75 25.547"/><path style="fill:none;" d="M-52 -25.98 L-52.5 -25.98 L-52.75 -25.547"/><path style="fill:none;" d="M-67.25 0.433 L-67.5 0 L-67.25 -0.433"/></g></g></svg></svg></svg></svg>