<svg xmlns:ns0="http://www.w3.org/2000/svg" xmlns="http://www.w3.org/2000/svg"><g transform="translate(0, 0)"><ns0:svg width="273" viewBox="0 0 273 162" style="fill-opacity:1; color-rendering:auto; color-interpolation:auto; text-rendering:auto; stroke:black; stroke-linecap:square; stroke-miterlimit:10; shape-rendering:auto; stroke-opacity:1; fill:black; stroke-dasharray:none; font-weight:normal; stroke-width:1; font-family:'Open Sans'; font-style:normal; stroke-linejoin:miter; font-size:12; stroke-dashoffset:0; image-rendering:auto;" height="162" class="cas-substance-image"><ns0:svg class="cas-substance-single-component"><ns0:rect y="0" x="0" width="273" stroke="none" ry="7" rx="7" height="162" fill="white" class="cas-substance-group" /><ns0:svg y="0" x="0" width="273" viewBox="0 0 273 162" style="fill:black;" height="162" class="cas-substance-single-component-image"><ns0:svg><ns0:g><ns0:g transform="translate(138,79)" style="text-rendering:geometricPrecision; color-rendering:optimizeQuality; color-interpolation:linearRGB; stroke-linecap:butt; image-rendering:optimizeQuality;"><ns0:line y2="-23.796" y1="-35.6174" x2="105.198" x1="84.7234" style="fill:none;" /><ns0:path style="stroke:none;" d="M53.488 -23.363 L52.988 -24.229 L72.1949 -38.2052 L75.195 -33.0091 Z" /><ns0:line y2="-38.796" y1="-23.796" x2="131.178" x1="105.198" style="fill:none;" /><ns0:line y2="-0.2726" y1="-24.8064" x2="103.448" x1="103.448" style="fill:none;" /><ns0:line y2="-0.2726" y1="-24.8064" x2="106.948" x1="106.948" style="fill:none;" /><ns0:line y2="-75.474" y1="-51.204" x2="58.668" x1="41.034" style="fill:none;" /><ns0:line y2="-55.4567" y1="-52.8388" x2="17.3084" x1="42.2218" style="fill:none;" /><ns0:line y2="-51.9758" y1="-49.4636" x2="16.9427" x1="40.8511" style="fill:none;" /><ns0:path style="stroke:none;" d="M43.9847 -51.4235 L39.8593 -49.5873 L39.8593 -49.5873 L38.9979 -48.4016 L38.9979 -48.4016 L39.1281 -48.1672 L39.1281 -48.1672 L44.3195 -50.4779 L43.9847 -51.4235 ZM44.9891 -48.5866 L40.1033 -46.4119 L40.5909 -45.5343 L40.5909 -45.5343 L45.3239 -47.641 L45.3239 -47.641 L44.9891 -48.5866 ZM45.9936 -45.7497 L41.5661 -43.779 L42.0537 -42.9014 L42.0537 -42.9014 L46.3284 -44.8041 L45.9936 -45.7497 ZM46.998 -42.9129 L43.0288 -41.1462 L43.0288 -41.1462 L43.5164 -40.2685 L43.5164 -40.2685 L47.3329 -41.9672 L47.3329 -41.9672 L46.998 -42.9129 ZM48.0025 -40.076 L44.4916 -38.5133 L44.4916 -38.5133 L44.9792 -37.6357 L48.3373 -39.1304 L48.3373 -39.1304 L48.0025 -40.076 ZM49.007 -37.2391 L45.9544 -35.8804 L45.9544 -35.8804 L46.442 -35.0028 L46.442 -35.0028 L49.3418 -36.2935 L49.007 -37.2391 ZM50.0114 -34.4023 L47.4172 -33.2475 L47.4172 -33.2475 L47.9047 -32.3699 L47.9047 -32.3699 L50.3462 -33.4566 L50.3462 -33.4566 L50.0114 -34.4023 ZM51.0159 -31.5654 L48.8799 -30.6147 L49.3675 -29.737 L49.3675 -29.737 L51.3507 -30.6198 L51.0159 -31.5654 ZM52.0203 -28.7285 L50.3427 -27.9818 L50.3427 -27.9818 L50.8303 -27.1042 L52.3551 -27.7829 L52.3551 -27.7829 L52.0203 -28.7285 ZM53.0248 -25.8916 L51.8055 -25.3489 L51.8055 -25.3489 L52.2931 -24.4713 L52.2931 -24.4713 L53.3596 -24.946 L53.0248 -25.8916 Z" /><ns0:path style="stroke:none;" d="M25.2023 -14.4737 L24.2077 -14.5783 L24.8564 -44.6745 L30.8236 -44.0475 Z" /><ns0:path style="stroke:none;" d="M-52.755 30.3446 L-53.721 30.6034 L-63.8998 2.2734 L-58.1042 0.7206 Z" /><ns0:line y2="61.4844" y1="73.7635" x2="-103.448" x1="-124.7155" style="fill:none;" /><ns0:line y2="58.4533" y1="70.7324" x2="-105.198" x1="-126.4655" style="fill:none;" /><ns0:line y2="-14.526" y1="-23.796" x2="24.705" x1="53.238" style="fill:none;" /><ns0:line y2="0.474" y1="-23.796" x2="70.872" x1="53.238" style="fill:none;" /><ns0:line y2="15.474" y1="-14.526" x2="24.705" x1="24.705" style="fill:none;" /><ns0:line y2="-29.526" y1="-14.526" x2="-1.275" x1="24.705" style="fill:none;" /><ns0:line y2="24.744" y1="0.474" x2="53.238" x1="70.872" style="fill:none;" /><ns0:line y2="24.744" y1="15.474" x2="53.238" x1="24.705" style="fill:none;" /><ns0:line y2="30.474" y1="15.474" x2="-1.275" x1="24.705" style="fill:none;" /><ns0:line y2="-14.526" y1="-29.526" x2="-27.255" x1="-1.275" style="fill:none;" /><ns0:line y2="15.474" y1="30.474" x2="-27.255" x1="-1.275" style="fill:none;" /><ns0:line y2="60.474" y1="30.474" x2="-1.275" x1="-1.275" style="fill:none;" /><ns0:line y2="15.474" y1="-14.526" x2="-27.255" x1="-27.255" style="fill:none;" /><ns0:line y2="30.474" y1="15.474" x2="-53.238" x1="-27.255" style="fill:none;" /><ns0:line y2="75.474" y1="60.474" x2="-27.255" x1="-1.275" style="fill:none;" /><ns0:line y2="60.474" y1="30.474" x2="-53.238" x1="-53.238" style="fill:none;" /><ns0:line y2="15.474" y1="30.474" x2="-79.218" x1="-53.238" style="fill:none;" /><ns0:line y2="60.474" y1="75.474" x2="-53.238" x1="-27.255" style="fill:none;" /><ns0:line y2="75.474" y1="60.474" x2="-79.218" x1="-53.238" style="fill:none;" /><ns0:line y2="71.4325" y1="58.4533" x2="-79.2181" x1="-56.738" style="fill:none;" /><ns0:line y2="30.474" y1="15.474" x2="-105.198" x1="-79.218" style="fill:none;" /><ns0:line y2="60.474" y1="75.474" x2="-105.198" x1="-79.218" style="fill:none;" /><ns0:line y2="60.474" y1="30.474" x2="-105.198" x1="-105.198" style="fill:none;" /><ns0:path style="stroke:none;" d="M25.4655 15.8681 L24.4036 16.2759 L24.4036 16.2759 L24.6617 17.2479 L24.6617 17.2479 L25.9242 16.7632 L25.4655 15.8681 ZM26.8414 18.5533 L25.178 19.192 L25.178 19.192 L25.4361 20.164 L25.4361 20.164 L27.3 19.4483 L27.3 19.4483 L26.8414 18.5533 ZM28.2173 21.2384 L25.9524 22.1081 L26.2105 23.0801 L28.6759 22.1335 L28.2173 21.2384 ZM29.5931 23.9236 L26.7268 25.0242 L26.7268 25.0242 L26.9849 25.9962 L26.9849 25.9962 L30.0518 24.8186 L30.0518 24.8186 L29.5931 23.9236 ZM30.969 26.6087 L27.5012 27.9403 L27.7593 28.9123 L27.7593 28.9123 L31.4276 27.5038 L30.969 26.6087 ZM32.3449 29.2939 L28.2756 30.8564 L28.2756 30.8564 L28.5337 31.8284 L28.5337 31.8284 L32.8035 30.1889 L32.8035 30.1889 L32.3449 29.2939 ZM33.7207 31.979 L29.05 33.7725 L29.05 33.7725 L29.3081 34.7446 L29.3081 34.7446 L34.1793 32.8741 L33.7207 31.979 ZM35.0966 34.6642 L29.8244 36.6886 L29.8244 36.6886 L30.0825 37.6607 L30.0825 37.6607 L35.5552 35.5592 L35.5552 35.5592 L35.0966 34.6642 Z" /><ns0:path style="stroke:none;" d="M-1.6286 30.8276 L-0.9214 30.1204 L17.3873 44.8937 L13.1447 49.1363 Z" /><ns0:path style="stroke:none;" d="M-36.9991 -3.3001 L-41.5652 -0.1052 L-40.9021 0.6516 L-36.5148 -2.4182 L-36.9991 -3.3001 ZM-35.5461 -0.6545 L-39.576 2.1652 L-39.576 2.1652 L-38.9129 2.9221 L-38.9129 2.9221 L-35.0617 0.2274 L-35.5461 -0.6545 ZM-34.093 1.9911 L-37.5868 4.4357 L-36.9237 5.1925 L-33.6087 2.873 L-34.093 1.9911 ZM-32.64 4.6368 L-35.5975 6.7062 L-34.9345 7.463 L-34.9345 7.463 L-32.1557 5.5186 L-32.64 4.6368 ZM-31.187 7.2824 L-33.6083 8.9766 L-32.9453 9.7334 L-30.7026 8.1642 L-31.187 7.2824 ZM-29.7339 9.928 L-31.6191 11.2471 L-31.6191 11.2471 L-30.9561 12.0039 L-30.9561 12.0039 L-29.2496 10.8099 L-29.2496 10.8099 L-29.7339 9.928 ZM-28.2809 12.5736 L-29.6299 13.5175 L-29.6299 13.5175 L-28.9669 14.2744 L-28.9669 14.2744 L-27.7965 13.4555 L-27.7965 13.4555 L-28.2809 12.5736 Z" /></ns0:g><ns0:g transform="translate(138,79)" style="fill:rgb(230,0,0); text-rendering:geometricPrecision; color-rendering:optimizeQuality; image-rendering:optimizeQuality; font-family:'Open Sans'; stroke:rgb(230,0,0); color-interpolation:linearRGB;"><ns0:path style="stroke:none;" d="M83.1555 -38.8663 Q83.1555 -36.8038 82.1164 -35.6241 Q81.0774 -34.4444 79.2336 -34.4444 Q77.343 -34.4444 76.3118 -35.6085 Q75.2805 -36.7726 75.2805 -38.8819 Q75.2805 -40.9757 76.3118 -42.1241 Q77.343 -43.2726 79.2336 -43.2726 Q81.093 -43.2726 82.1243 -42.1007 Q83.1555 -40.9288 83.1555 -38.8663 ZM76.3274 -38.8663 Q76.3274 -37.1319 77.0696 -36.2257 Q77.8118 -35.3194 79.2336 -35.3194 Q80.6555 -35.3194 81.3821 -36.2179 Q82.1086 -37.1163 82.1086 -38.8663 Q82.1086 -40.6007 81.3821 -41.4913 Q80.6555 -42.3819 79.2336 -42.3819 Q77.8118 -42.3819 77.0696 -41.4835 Q76.3274 -40.5851 76.3274 -38.8663 Z" /></ns0:g><ns0:g transform="translate(138,79)" style="stroke-linecap:butt; text-rendering:geometricPrecision; color-rendering:optimizeQuality; image-rendering:optimizeQuality; font-family:'Open Sans'; color-interpolation:linearRGB; stroke-miterlimit:5;"><ns0:path style="fill:none;" d="M104.765 -24.046 L105.198 -23.796 L105.631 -24.046" /><ns0:path style="fill:rgb(230,0,0); stroke:none;" d="M109.1355 6.1337 Q109.1355 8.1962 108.0964 9.3759 Q107.0574 10.5556 105.2136 10.5556 Q103.323 10.5556 102.2917 9.3915 Q101.2605 8.2274 101.2605 6.1181 Q101.2605 4.0243 102.2917 2.8759 Q103.323 1.7274 105.2136 1.7274 Q107.073 1.7274 108.1042 2.8993 Q109.1355 4.0712 109.1355 6.1337 ZM102.3074 6.1337 Q102.3074 7.8681 103.0496 8.7743 Q103.7917 9.6806 105.2136 9.6806 Q106.6355 9.6806 107.3621 8.7821 Q108.0886 7.8837 108.0886 6.1337 Q108.0886 4.3993 107.3621 3.5087 Q106.6355 2.6181 105.2136 2.6181 Q103.7917 2.6181 103.0496 3.5165 Q102.3074 4.4149 102.3074 6.1337 Z" /><ns0:path style="fill:rgb(230,0,0); stroke:none;" d="M15.1365 -54.4093 Q15.1365 -52.3468 14.0974 -51.1671 Q13.0584 -49.9874 11.2146 -49.9874 Q9.324 -49.9874 8.2927 -51.1515 Q7.2615 -52.3156 7.2615 -54.4249 Q7.2615 -56.5187 8.2927 -57.6671 Q9.324 -58.8156 11.2146 -58.8156 Q13.074 -58.8156 14.1052 -57.6437 Q15.1365 -56.4718 15.1365 -54.4093 ZM8.3084 -54.4093 Q8.3084 -52.6749 9.0506 -51.7687 Q9.7927 -50.8624 11.2146 -50.8624 Q12.6365 -50.8624 13.3631 -51.7609 Q14.0896 -52.6593 14.0896 -54.4093 Q14.0896 -56.1437 13.3631 -57.0343 Q12.6365 -57.9249 11.2146 -57.9249 Q9.7927 -57.9249 9.0506 -57.0265 Q8.3084 -56.1281 8.3084 -54.4093 Z" /><ns0:path style="fill:rgb(230,0,0); stroke:none;" d="M-127.2405 75.4037 Q-127.2405 77.4662 -128.2796 78.6459 Q-129.3186 79.8256 -131.1624 79.8256 Q-133.053 79.8256 -134.0843 78.6615 Q-135.1155 77.4974 -135.1155 75.3881 Q-135.1155 73.2943 -134.0843 72.1459 Q-133.053 70.9974 -131.1624 70.9974 Q-129.303 70.9974 -128.2718 72.1693 Q-127.2405 73.3412 -127.2405 75.4037 ZM-134.0686 75.4037 Q-134.0686 77.1381 -133.3264 78.0443 Q-132.5843 78.9506 -131.1624 78.9506 Q-129.7405 78.9506 -129.0139 78.0521 Q-128.2874 77.1537 -128.2874 75.4037 Q-128.2874 73.6693 -129.0139 72.7787 Q-129.7405 71.8881 -131.1624 71.8881 Q-132.5843 71.8881 -133.3264 72.7865 Q-134.0686 73.6849 -134.0686 75.4037 Z" /></ns0:g><ns0:g transform="translate(138,79)" style="stroke-linecap:butt; font-size:8.4px; fill:gray; text-rendering:geometricPrecision; image-rendering:optimizeQuality; color-rendering:optimizeQuality; font-family:'Open Sans'; font-style:italic; stroke:gray; color-interpolation:linearRGB; stroke-miterlimit:5;"><ns0:path style="stroke:none;" d="M46.0393 -13.0823 Q46.0393 -14.4104 46.508 -15.5354 Q46.9768 -16.6604 48.008 -17.7386 L48.6174 -17.7386 Q47.6486 -16.6761 47.1643 -15.5042 Q46.6799 -14.3323 46.6799 -13.0979 Q46.6799 -11.7698 47.1174 -10.7542 L46.6018 -10.7542 Q46.0393 -11.7854 46.0393 -13.0823 ZM51.6618 -13.6761 Q51.6618 -12.8479 51.115 -12.3948 Q50.5681 -11.9417 49.5681 -11.9417 Q49.1618 -11.9417 48.8493 -11.9964 Q48.5368 -12.0511 48.2556 -12.1917 L48.2556 -12.8479 Q48.8806 -12.5198 49.5837 -12.5198 Q50.2087 -12.5198 50.5837 -12.8167 Q50.9587 -13.1136 50.9587 -13.6292 Q50.9587 -13.9417 50.7556 -14.1683 Q50.5525 -14.3948 49.99 -14.7229 Q49.3962 -15.0511 49.1696 -15.3792 Q48.9431 -15.7073 48.9431 -16.1604 Q48.9431 -16.8948 49.4587 -17.3558 Q49.9743 -17.8167 50.8181 -17.8167 Q51.1931 -17.8167 51.529 -17.7386 Q51.865 -17.6604 52.24 -17.4886 L51.9743 -16.8948 Q51.7243 -17.0511 51.404 -17.137 Q51.0837 -17.2229 50.8181 -17.2229 Q50.2868 -17.2229 49.9665 -16.9495 Q49.6462 -16.6761 49.6462 -16.2073 Q49.6462 -16.0042 49.7165 -15.8558 Q49.7868 -15.7073 49.9275 -15.5745 Q50.0681 -15.4417 50.49 -15.1917 Q51.0525 -14.8479 51.2556 -14.6526 Q51.4587 -14.4573 51.5603 -14.2229 Q51.6618 -13.9886 51.6618 -13.6761 ZM54.2563 -15.3948 Q54.2563 -14.0667 53.7798 -12.9339 Q53.3032 -11.8011 52.2876 -10.7542 L51.6782 -10.7542 Q53.6157 -12.9104 53.6157 -15.3948 Q53.6157 -16.7229 53.1782 -17.7386 L53.6938 -17.7386 Q54.2563 -16.6761 54.2563 -15.3948 Z" /><ns0:path style="stroke:none;" d="M11.9362 -8.3229 Q11.9362 -9.6511 12.4049 -10.7761 Q12.8737 -11.9011 13.9049 -12.9792 L14.5143 -12.9792 Q13.5456 -11.9167 13.0612 -10.7448 Q12.5768 -9.5729 12.5768 -8.3386 Q12.5768 -7.0104 13.0143 -5.9948 L12.4987 -5.9948 Q11.9362 -7.0261 11.9362 -8.3229 ZM17.5588 -8.9167 Q17.5588 -8.0886 17.0119 -7.6354 Q16.465 -7.1823 15.465 -7.1823 Q15.0588 -7.1823 14.7463 -7.237 Q14.4338 -7.2917 14.1525 -7.4323 L14.1525 -8.0886 Q14.7775 -7.7604 15.4806 -7.7604 Q16.1056 -7.7604 16.4806 -8.0573 Q16.8556 -8.3542 16.8556 -8.8698 Q16.8556 -9.1823 16.6525 -9.4089 Q16.4494 -9.6354 15.8869 -9.9636 Q15.2931 -10.2917 15.0666 -10.6198 Q14.84 -10.9479 14.84 -11.4011 Q14.84 -12.1354 15.3556 -12.5964 Q15.8713 -13.0573 16.715 -13.0573 Q17.09 -13.0573 17.4259 -12.9792 Q17.7619 -12.9011 18.1369 -12.7292 L17.8713 -12.1354 Q17.6213 -12.2917 17.3009 -12.3776 Q16.9806 -12.4636 16.715 -12.4636 Q16.1838 -12.4636 15.8634 -12.1901 Q15.5431 -11.9167 15.5431 -11.4479 Q15.5431 -11.2448 15.6134 -11.0964 Q15.6838 -10.9479 15.8244 -10.8151 Q15.965 -10.6823 16.3869 -10.4323 Q16.9494 -10.0886 17.1525 -9.8932 Q17.3556 -9.6979 17.4572 -9.4636 Q17.5588 -9.2292 17.5588 -8.9167 ZM20.1532 -10.6354 Q20.1532 -9.3073 19.6767 -8.1745 Q19.2001 -7.0417 18.1845 -5.9948 L17.5751 -5.9948 Q19.5126 -8.1511 19.5126 -10.6354 Q19.5126 -11.9636 19.0751 -12.9792 L19.5907 -12.9792 Q20.1532 -11.9167 20.1532 -10.6354 Z" /><ns0:path style="fill:none; stroke:black;" d="M70.5781 0.0695 L70.872 0.474 L70.5781 0.8785" /><ns0:path style="stroke:none;" d="M11.9362 11.6772 Q11.9362 10.3491 12.4049 9.2241 Q12.8737 8.0991 13.9049 7.0209 L14.5143 7.0209 Q13.5456 8.0834 13.0612 9.2553 Q12.5768 10.4272 12.5768 11.6616 Q12.5768 12.9897 13.0143 14.0053 L12.4987 14.0053 Q11.9362 12.9741 11.9362 11.6772 ZM17.5588 11.0834 Q17.5588 11.9116 17.0119 12.3647 Q16.465 12.8178 15.465 12.8178 Q15.0588 12.8178 14.7463 12.7631 Q14.4338 12.7084 14.1525 12.5678 L14.1525 11.9116 Q14.7775 12.2397 15.4806 12.2397 Q16.1056 12.2397 16.4806 11.9428 Q16.8556 11.6459 16.8556 11.1303 Q16.8556 10.8178 16.6525 10.5912 Q16.4494 10.3647 15.8869 10.0366 Q15.2931 9.7084 15.0666 9.3803 Q14.84 9.0522 14.84 8.5991 Q14.84 7.8647 15.3556 7.4037 Q15.8713 6.9428 16.715 6.9428 Q17.09 6.9428 17.4259 7.0209 Q17.7619 7.0991 18.1369 7.2709 L17.8713 7.8647 Q17.6213 7.7084 17.3009 7.6225 Q16.9806 7.5366 16.715 7.5366 Q16.1838 7.5366 15.8634 7.81 Q15.5431 8.0834 15.5431 8.5522 Q15.5431 8.7553 15.6134 8.9037 Q15.6838 9.0522 15.8244 9.185 Q15.965 9.3178 16.3869 9.5678 Q16.9494 9.9116 17.1525 10.1069 Q17.3556 10.3022 17.4572 10.5366 Q17.5588 10.7709 17.5588 11.0834 ZM20.1532 9.3647 Q20.1532 10.6928 19.6767 11.8256 Q19.2001 12.9584 18.1845 14.0053 L17.5751 14.0053 Q19.5126 11.8491 19.5126 9.3647 Q19.5126 8.0366 19.0751 7.0209 L19.5907 7.0209 Q20.1532 8.0834 20.1532 9.3647 Z" /><ns0:path style="fill:none; stroke:black;" d="M-0.842 -29.276 L-1.275 -29.526 L-1.708 -29.276" /><ns0:path style="fill:none; stroke:black;" d="M53.5319 24.3395 L53.238 24.744 L52.7625 24.5895" /><ns0:path style="stroke:none;" d="M-5.6636 21.6381 Q-5.6636 20.3099 -5.1949 19.1849 Q-4.7261 18.0599 -3.6949 16.9818 L-3.0855 16.9818 Q-4.0543 18.0443 -4.5386 19.2162 Q-5.023 20.3881 -5.023 21.6224 Q-5.023 22.9506 -4.5855 23.9662 L-5.1011 23.9662 Q-5.6636 22.9349 -5.6636 21.6381 ZM-2.1036 20.3256 L-2.6036 22.7006 L-3.2598 22.7006 L-2.0567 16.9818 L-0.8067 16.9818 Q0.9277 16.9818 0.9277 18.4193 Q0.9277 19.7787 -0.5098 20.1693 L0.4277 22.7006 L-0.2911 22.7006 L-1.1192 20.3256 L-2.1036 20.3256 ZM-1.5255 17.5756 Q-1.9161 19.4974 -1.9786 19.7474 L-1.3223 19.7474 Q-0.5723 19.7474 -0.1661 19.4193 Q0.2402 19.0912 0.2402 18.4662 Q0.2402 17.9974 -0.0176 17.7865 Q-0.2755 17.5756 -0.8692 17.5756 L-1.5255 17.5756 ZM3.1136 19.3256 Q3.1136 20.6537 2.6371 21.7865 Q2.1605 22.9193 1.1449 23.9662 L0.5355 23.9662 Q2.473 21.8099 2.473 19.3256 Q2.473 17.9974 2.0355 16.9818 L2.5511 16.9818 Q3.1136 18.0443 3.1136 19.3256 Z" /><ns0:path style="fill:none; stroke:black;" d="M-26.822 -14.776 L-27.255 -14.526 L-27.255 -14.026" /><ns0:path style="stroke:none;" d="M-31.3638 26.6771 Q-31.3638 25.349 -30.895 24.224 Q-30.4263 23.099 -29.395 22.0209 L-28.7856 22.0209 Q-29.7544 23.0834 -30.2388 24.2552 Q-30.7231 25.4271 -30.7231 26.6615 Q-30.7231 27.9896 -30.2856 29.0052 L-30.8013 29.0052 Q-31.3638 27.974 -31.3638 26.6771 ZM-25.7412 26.0834 Q-25.7412 26.9115 -26.2881 27.3646 Q-26.835 27.8177 -27.835 27.8177 Q-28.2412 27.8177 -28.5537 27.7631 Q-28.8662 27.7084 -29.1475 27.5677 L-29.1475 26.9115 Q-28.5225 27.2396 -27.8193 27.2396 Q-27.1943 27.2396 -26.8193 26.9427 Q-26.4443 26.6459 -26.4443 26.1302 Q-26.4443 25.8177 -26.6475 25.5912 Q-26.8506 25.3646 -27.4131 25.0365 Q-28.0068 24.7084 -28.2334 24.3802 Q-28.46 24.0521 -28.46 23.599 Q-28.46 22.8646 -27.9443 22.4037 Q-27.4287 21.9427 -26.585 21.9427 Q-26.21 21.9427 -25.874 22.0209 Q-25.5381 22.099 -25.1631 22.2709 L-25.4287 22.8646 Q-25.6787 22.7084 -25.999 22.6224 Q-26.3193 22.5365 -26.585 22.5365 Q-27.1162 22.5365 -27.4365 22.8099 Q-27.7568 23.0834 -27.7568 23.5521 Q-27.7568 23.7552 -27.6865 23.9037 Q-27.6162 24.0521 -27.4756 24.1849 Q-27.335 24.3177 -26.9131 24.5677 Q-26.3506 24.9115 -26.1475 25.1068 Q-25.9443 25.3021 -25.8428 25.5365 Q-25.7412 25.7709 -25.7412 26.0834 ZM-23.1467 24.3646 Q-23.1467 25.6927 -23.6233 26.8256 Q-24.0999 27.9584 -25.1155 29.0052 L-25.7249 29.0052 Q-23.7874 26.849 -23.7874 24.3646 Q-23.7874 23.0365 -24.2249 22.0209 L-23.7092 22.0209 Q-23.1467 23.0834 -23.1467 24.3646 Z" /><ns0:path style="fill:none; stroke:black;" d="M-1.275 59.974 L-1.275 60.474 L-1.708 60.724" /><ns0:path style="stroke:none;" d="M-48.9665 36.6382 Q-48.9665 35.3101 -48.4977 34.1851 Q-48.029 33.0601 -46.9977 31.982 L-46.3884 31.982 Q-47.3571 33.0445 -47.8415 34.2163 Q-48.3259 35.3882 -48.3259 36.6226 Q-48.3259 37.9507 -47.8884 38.9663 L-48.404 38.9663 Q-48.9665 37.9351 -48.9665 36.6382 ZM-45.4064 35.3257 L-45.9064 37.7007 L-46.5627 37.7007 L-45.3595 31.982 L-44.1095 31.982 Q-42.3752 31.982 -42.3752 33.4195 Q-42.3752 34.7788 -43.8127 35.1695 L-42.8752 37.7007 L-43.5939 37.7007 L-44.422 35.3257 L-45.4064 35.3257 ZM-44.8283 32.5757 Q-45.2189 34.4976 -45.2814 34.7476 L-44.6252 34.7476 Q-43.8752 34.7476 -43.4689 34.4195 Q-43.0627 34.0913 -43.0627 33.4663 Q-43.0627 32.9976 -43.3205 32.7867 Q-43.5783 32.5757 -44.172 32.5757 L-44.8283 32.5757 ZM-40.1892 34.3257 Q-40.1892 35.6538 -40.6658 36.7867 Q-41.1423 37.9195 -42.1579 38.9663 L-42.7673 38.9663 Q-40.8298 36.8101 -40.8298 34.3257 Q-40.8298 32.9976 -41.2673 31.982 L-40.7517 31.982 Q-40.1892 33.0445 -40.1892 34.3257 Z" /><ns0:path style="fill:none; stroke:black;" d="M-26.822 75.224 L-27.255 75.474 L-27.688 75.224" /><ns0:path style="fill:none; stroke:black;" d="M-53.671 60.724 L-53.238 60.474 L-53.238 59.974" /><ns0:path style="fill:none; stroke:black;" d="M-78.785 15.724 L-79.218 15.474 L-79.651 15.724" /><ns0:path style="fill:none; stroke:black;" d="M-78.785 75.224 L-79.218 75.474 L-79.651 75.224" /><ns0:path style="fill:none; stroke:black;" d="M-104.765 30.224 L-105.198 30.474 L-105.198 30.974" /><ns0:path style="fill:none; stroke:black;" d="M-104.765 60.724 L-105.198 60.474 L-105.198 59.974" /></ns0:g><ns0:g transform="translate(138,79)" style="stroke-linecap:butt; text-rendering:geometricPrecision; color-rendering:optimizeQuality; image-rendering:optimizeQuality; font-family:'Open Sans'; color-interpolation:linearRGB; stroke-miterlimit:5;"><ns0:path style="stroke:none;" d="M38.7148 47.6382 L37.7148 47.6382 L37.7148 43.607 L33.1992 43.607 L33.1992 47.6382 L32.1992 47.6382 L32.1992 39.0757 L33.1992 39.0757 L33.1992 42.7164 L37.7148 42.7164 L37.7148 39.0757 L38.7148 39.0757 L38.7148 47.6382 Z" /><ns0:path style="stroke:none;" d="M23.1958 55.8433 L22.1958 55.8433 L22.1958 51.812 L17.6802 51.812 L17.6802 55.8433 L16.6802 55.8433 L16.6802 47.2808 L17.6802 47.2808 L17.6802 50.9214 L22.1958 50.9214 L22.1958 47.2808 L23.1958 47.2808 L23.1958 55.8433 Z" /><ns0:path style="stroke:none;" d="M-41.2052 -4.9458 L-42.2052 -4.9458 L-42.2052 -8.977 L-46.7208 -8.977 L-46.7208 -4.9458 L-47.7208 -4.9458 L-47.7208 -13.5083 L-46.7208 -13.5083 L-46.7208 -9.8676 L-42.2052 -9.8676 L-42.2052 -13.5083 L-41.2052 -13.5083 L-41.2052 -4.9458 Z" /></ns0:g></ns0:g></ns0:svg></ns0:svg></ns0:svg></ns0:svg></g></svg>