<svg xmlns:ns0="http://www.w3.org/2000/svg" xmlns="http://www.w3.org/2000/svg"><g transform="translate(0, 0)"><ns0:svg width="240" viewBox="0 0 240 101" style="fill-opacity:1; color-rendering:auto; color-interpolation:auto; text-rendering:auto; stroke:black; stroke-linecap:square; stroke-miterlimit:10; shape-rendering:auto; stroke-opacity:1; fill:black; stroke-dasharray:none; font-weight:normal; stroke-width:1; font-family:'Open Sans'; font-style:normal; stroke-linejoin:miter; font-size:12; stroke-dashoffset:0; image-rendering:auto;" height="101" class="cas-substance-image"><ns0:svg class="cas-substance-single-component"><ns0:rect y="0" x="0" width="240" stroke="none" ry="7" rx="7" height="101" fill="white" class="cas-substance-group" /><ns0:svg y="0" x="0" width="240" viewBox="0 0 240 101" style="fill:black;" height="101" class="cas-substance-single-component-image"><ns0:svg><ns0:g><ns0:g transform="translate(120,49)" style="text-rendering:geometricPrecision; color-rendering:optimizeQuality; color-interpolation:linearRGB; stroke-linecap:butt; image-rendering:optimizeQuality;"><ns0:line y2="-3.0771" y1="19.464" x2="-101.3945" x1="-88.38" style="fill:none;" /><ns0:line y2="32.1584" y1="19.464" x2="-110.3667" x1="-88.38" style="fill:none;" /><ns0:line y2="39.5714" y1="19.464" x2="-76.7707" x1="-88.38" style="fill:none;" /><ns0:line y2="4.464" y1="19.464" x2="-62.397" x1="-88.38" style="fill:none;" /><ns0:line y2="-29.7266" y1="-45.444" x2="-64.0999" x1="-81.558" style="fill:none;" /><ns0:line y2="-15.8264" y1="-27.585" x2="108.7459" x1="88.38" style="fill:none;" /><ns0:line y2="-12.7953" y1="-23.5435" x2="106.9958" x1="88.38" style="fill:none;" /><ns0:line y2="-12.585" y1="-27.585" x2="62.397" x1="88.38" style="fill:none;" /><ns0:line y2="16.665" y1="-5.628" x2="-34.992" x1="-14.919" style="fill:none;" /><ns0:line y2="-25.7197" y1="-5.628" x2="-26.5193" x1="-14.919" style="fill:none;" /><ns0:line y2="-23.9697" y1="-5.6279" x2="-29.5504" x1="-18.9605" style="fill:none;" /><ns0:line y2="-2.493" y1="-5.628" x2="14.919" x1="-14.919" style="fill:none;" /><ns0:line y2="4.464" y1="16.665" x2="-62.397" x1="-34.992" style="fill:none;" /><ns0:line y2="2.0884" y1="12.6457" x2="-59.1274" x1="-35.4145" style="fill:none;" /><ns0:line y2="-26.4992" y1="-30.4798" x2="-53.9541" x1="-35.2269" style="fill:none;" /><ns0:line y2="-19.2257" y1="4.464" x2="-59.9077" x1="-62.397" style="fill:none;" /><ns0:line y2="-20.3099" y1="-2.493" x2="30.9617" x1="14.919" style="fill:none;" /><ns0:line y2="23.49" y1="-2.493" x2="29.919" x1="14.919" style="fill:none;" /><ns0:line y2="19.9901" y1="-2.4928" x2="31.9399" x1="18.9605" style="fill:none;" /><ns0:line y2="-12.585" y1="-22.7726" x2="62.397" x1="39.5144" style="fill:none;" /><ns0:line y2="17.25" y1="23.49" x2="59.262" x1="29.919" style="fill:none;" /><ns0:line y2="17.25" y1="-12.585" x2="59.262" x1="62.397" style="fill:none;" /><ns0:line y2="14.8746" y1="-10.9411" x2="55.9923" x1="58.705" style="fill:none;" /></ns0:g><ns0:g transform="translate(120,49)" style="fill:rgb(0,138,0); text-rendering:geometricPrecision; color-rendering:optimizeQuality; image-rendering:optimizeQuality; font-family:'Open Sans'; stroke:rgb(0,138,0); color-interpolation:linearRGB;"><ns0:path style="stroke:none;" d="M-104.7706 -2.3597 L-105.7706 -2.3597 L-105.7706 -10.9222 L-100.9894 -10.9222 L-100.9894 -10.0472 L-104.7706 -10.0472 L-104.7706 -6.9066 L-101.2238 -6.9066 L-101.2238 -6.016 L-104.7706 -6.016 L-104.7706 -2.3597 Z" /><ns0:path style="stroke:none;" d="M-115.7506 38.6203 L-116.7506 38.6203 L-116.7506 30.0578 L-111.9694 30.0578 L-111.9694 30.9328 L-115.7506 30.9328 L-115.7506 34.0734 L-112.2038 34.0734 L-112.2038 34.964 L-115.7506 34.964 L-115.7506 38.6203 Z" /><ns0:path style="stroke:none;" d="M-74.7706 49.6003 L-75.7706 49.6003 L-75.7706 41.0378 L-70.9894 41.0378 L-70.9894 41.9128 L-74.7706 41.9128 L-74.7706 45.0534 L-71.2238 45.0534 L-71.2238 45.944 L-74.7706 45.944 L-74.7706 49.6003 Z" /></ns0:g><ns0:g transform="translate(120,49)" style="stroke-linecap:butt; text-rendering:geometricPrecision; color-rendering:optimizeQuality; image-rendering:optimizeQuality; font-family:'Open Sans'; color-interpolation:linearRGB; stroke-miterlimit:5;"><ns0:path style="fill:none;" d="M88.813 -27.335 L88.38 -27.585 L87.947 -27.335" /><ns0:path transform="translate(-0.875,1.5155)" style="fill:rgb(230,0,0); stroke:none;" d="M118.2975 -12.6553 Q118.2975 -10.5928 117.2584 -9.4131 Q116.2194 -8.2334 114.3756 -8.2334 Q112.485 -8.2334 111.4538 -9.3975 Q110.4225 -10.5616 110.4225 -12.6709 Q110.4225 -14.7647 111.4538 -15.9131 Q112.485 -17.0616 114.3756 -17.0616 Q116.235 -17.0616 117.2663 -15.8897 Q118.2975 -14.7178 118.2975 -12.6553 ZM111.4694 -12.6553 Q111.4694 -10.9209 112.2116 -10.0147 Q112.9538 -9.1084 114.3756 -9.1084 Q115.7975 -9.1084 116.5241 -10.0069 Q117.2506 -10.9053 117.2506 -12.6553 Q117.2506 -14.3897 116.5241 -15.2803 Q115.7975 -16.1709 114.3756 -16.1709 Q112.9538 -16.1709 112.2116 -15.2725 Q111.4694 -14.3741 111.4694 -12.6553 Z" /></ns0:g><ns0:g transform="matrix(1,0,0,1,120,49)" style="stroke-linecap:butt; text-rendering:geometricPrecision; color-rendering:optimizeQuality; image-rendering:optimizeQuality; font-family:'Open Sans'; color-interpolation:linearRGB; stroke-miterlimit:5;"><ns0:path style="fill:none;" d="M-15.169 -6.061 L-14.919 -5.628 L-14.4217 -5.5758" /><ns0:path style="fill:none;" d="M-34.6574 16.2934 L-34.992 16.665 L-35.4488 16.4616" /><ns0:path style="fill:rgb(0,5,255); stroke:none;" d="M-26.5674 -27.4517 L-27.7081 -27.4517 L-32.3956 -34.6392 L-32.4424 -34.6392 Q-32.3487 -33.3736 -32.3487 -32.3267 L-32.3487 -27.4517 L-33.2706 -27.4517 L-33.2706 -36.0142 L-32.1456 -36.0142 L-27.4737 -28.858 L-27.4268 -28.858 Q-27.4268 -29.0142 -27.4737 -29.8736 Q-27.5206 -30.733 -27.5049 -31.108 L-27.5049 -36.0142 L-26.5674 -36.0142 L-26.5674 -27.4517 Z" /><ns0:path style="fill:none;" d="M-61.9402 4.6674 L-62.397 4.464 L-62.83 4.714" /><ns0:path style="fill:rgb(0,5,255); stroke:none;" d="M-55.9104 -21.2148 L-57.0511 -21.2148 L-61.7386 -28.4023 L-61.7854 -28.4023 Q-61.6917 -27.1366 -61.6917 -26.0898 L-61.6917 -21.2148 L-62.6136 -21.2148 L-62.6136 -29.7773 L-61.4886 -29.7773 L-56.8167 -22.621 L-56.7698 -22.621 Q-56.7698 -22.7773 -56.8167 -23.6366 Q-56.8636 -24.496 -56.8479 -24.871 L-56.8479 -29.7773 L-55.9104 -29.7773 L-55.9104 -21.2148 Z" /><ns0:path style="fill:none;" d="M15.169 -2.06 L14.919 -2.493 L14.4217 -2.5452" /><ns0:path style="fill:rgb(148,108,0); stroke:none;" d="M37.6873 -22.8485 Q37.6873 -21.7235 36.867 -21.0829 Q36.0467 -20.4422 34.6404 -20.4422 Q33.1092 -20.4422 32.2967 -20.8485 L32.2967 -21.8016 Q32.8279 -21.5829 33.4451 -21.4501 Q34.0623 -21.3172 34.6717 -21.3172 Q35.6717 -21.3172 36.1717 -21.7001 Q36.6717 -22.0829 36.6717 -22.7547 Q36.6717 -23.1922 36.492 -23.4813 Q36.3123 -23.7704 35.8982 -24.0126 Q35.4842 -24.2547 34.6248 -24.5516 Q33.4373 -24.9735 32.9217 -25.5594 Q32.4061 -26.1454 32.4061 -27.0985 Q32.4061 -28.0829 33.1482 -28.6688 Q33.8904 -29.2547 35.1248 -29.2547 Q36.3904 -29.2547 37.4686 -28.786 L37.1561 -27.9266 Q36.0936 -28.3641 35.0936 -28.3641 Q34.2967 -28.3641 33.8514 -28.0282 Q33.4061 -27.6922 33.4061 -27.0829 Q33.4061 -26.6454 33.5701 -26.3563 Q33.7342 -26.0672 34.1248 -25.8329 Q34.5154 -25.5985 35.3279 -25.3016 Q36.6717 -24.8329 37.1795 -24.2782 Q37.6873 -23.7235 37.6873 -22.8485 Z" /><ns0:path style="fill:none;" d="M29.669 23.057 L29.919 23.49 L30.4081 23.386" /><ns0:path style="fill:none;" d="M62.3447 -12.0877 L62.397 -12.585 L62.83 -12.835" /><ns0:path style="fill:none;" d="M58.7729 17.354 L59.262 17.25 L59.3143 16.7527" /></ns0:g></ns0:g></ns0:svg></ns0:svg></ns0:svg></ns0:svg></g></svg>