<svg width="206" viewBox="0 0 206 59" style="fill-opacity:1; color-rendering:auto; color-interpolation:auto; text-rendering:auto; stroke:black; stroke-linecap:square; stroke-miterlimit:10; shape-rendering:auto; stroke-opacity:1; fill:black; stroke-dasharray:none; font-weight:normal; stroke-width:1; font-family:'Open Sans'; font-style:normal; stroke-linejoin:miter; font-size:12; stroke-dashoffset:0; image-rendering:auto;" height="59" class="cas-substance-image" xmlns:xlink="http://www.w3.org/1999/xlink" xmlns="http://www.w3.org/2000/svg"><svg class="cas-substance-single-component"><rect y="0" x="0" width="206" stroke="none" ry="7" rx="7" height="59" fill="white" class="cas-substance-group"/><svg y="0" x="0" width="206" viewBox="0 0 206 59" style="fill:black;" height="59" class="cas-substance-single-component-image"><svg><g><g transform="translate(103,30)" style="text-rendering:geometricPrecision; color-rendering:optimizeQuality; color-interpolation:linearRGB; stroke-linecap:butt; image-rendering:optimizeQuality;"><line y2="-13.7774" y1="-25.536" x2="-5.6141" x1="-25.98" style="fill:none;"/><line y2="-10.536" y1="-25.536" x2="-51.963" x1="-25.98" style="fill:none;"/><line y2="-25.536" y1="-13.762" x2="25.98" x1="5.5875" style="fill:none;"/><line y2="-10.536" y1="-25.536" x2="51.963" x1="25.98" style="fill:none;"/><line y2="19.299" y1="-10.536" x2="-55.098" x1="-51.963" style="fill:none;"/><line y2="16.9236" y1="-8.8921" x2="-58.3677" x1="-55.655" style="fill:none;"/><line y2="-20.1729" y1="-10.536" x2="-73.6035" x1="-51.963" style="fill:none;"/><line y2="25.536" y1="19.299" x2="-84.441" x1="-55.098" style="fill:none;"/><line y2="-0.444" y1="-18.0457" x2="-99.441" x1="-83.5943" style="fill:none;"/><line y2="-0.444" y1="25.536" x2="-99.441" x1="-84.441" style="fill:none;"/><line y2="-0.4441" y1="22.036" x2="-95.3995" x1="-82.4203" style="fill:none;"/><line y2="19.299" y1="-10.536" x2="55.098" x1="51.963" style="fill:none;"/><line y2="16.9236" y1="-8.8921" x2="58.3677" x1="55.655" style="fill:none;"/><line y2="-20.1729" y1="-10.536" x2="73.6035" x1="51.963" style="fill:none;"/><line y2="25.536" y1="19.299" x2="84.441" x1="55.098" style="fill:none;"/><line y2="-0.444" y1="-18.0577" x2="99.441" x1="83.5834" style="fill:none;"/><line y2="-0.444" y1="25.536" x2="99.441" x1="84.441" style="fill:none;"/><line y2="-0.4441" y1="22.036" x2="95.3995" x1="82.4203" style="fill:none;"/><path style="fill:none; stroke-miterlimit:5;" d="M-25.547 -25.286 L-25.98 -25.536 L-26.413 -25.286"/></g><g transform="translate(103,30)" style="stroke-linecap:butt; fill:rgb(230,0,0); text-rendering:geometricPrecision; color-rendering:optimizeQuality; image-rendering:optimizeQuality; font-family:'Open Sans'; stroke:rgb(230,0,0); color-interpolation:linearRGB; stroke-miterlimit:5;"><path style="stroke:none;" d="M3.9375 -10.6063 Q3.9375 -8.5438 2.8984 -7.3641 Q1.8594 -6.1844 0.0156 -6.1844 Q-1.875 -6.1844 -2.9062 -7.3485 Q-3.9375 -8.5126 -3.9375 -10.6219 Q-3.9375 -12.7157 -2.9062 -13.8641 Q-1.875 -15.0126 0.0156 -15.0126 Q1.875 -15.0126 2.9062 -13.8407 Q3.9375 -12.6688 3.9375 -10.6063 ZM-2.8906 -10.6063 Q-2.8906 -8.8719 -2.1484 -7.9657 Q-1.4062 -7.0594 0.0156 -7.0594 Q1.4375 -7.0594 2.1641 -7.9579 Q2.8906 -8.8563 2.8906 -10.6063 Q2.8906 -12.3407 2.1641 -13.2313 Q1.4375 -14.1219 0.0156 -14.1219 Q-1.4062 -14.1219 -2.1484 -13.2235 Q-2.8906 -12.3251 -2.8906 -10.6063 Z"/><path style="fill:none; stroke:black;" d="M25.547 -25.286 L25.98 -25.536 L26.413 -25.286"/><path style="fill:none; stroke:black;" d="M-52.0153 -10.0387 L-51.963 -10.536 L-52.4198 -10.7394"/><path style="fill:none; stroke:black;" d="M-55.0457 18.8017 L-55.098 19.299 L-55.5871 19.403"/><path style="stroke:none;" d="M-75.4305 -22.8103 Q-75.4305 -20.7478 -76.4696 -19.5681 Q-77.5086 -18.3884 -79.3524 -18.3884 Q-81.243 -18.3884 -82.2743 -19.5525 Q-83.3055 -20.7166 -83.3055 -22.8259 Q-83.3055 -24.9197 -82.2743 -26.0681 Q-81.243 -27.2166 -79.3524 -27.2166 Q-77.493 -27.2166 -76.4618 -26.0447 Q-75.4305 -24.8728 -75.4305 -22.8103 ZM-82.2586 -22.8103 Q-82.2586 -21.0759 -81.5164 -20.1697 Q-80.7743 -19.2634 -79.3524 -19.2634 Q-77.9305 -19.2634 -77.2039 -20.1619 Q-76.4774 -21.0603 -76.4774 -22.8103 Q-76.4774 -24.5447 -77.2039 -25.4353 Q-77.9305 -26.3259 -79.3524 -26.3259 Q-80.7743 -26.3259 -81.5164 -25.4275 Q-82.2586 -24.5291 -82.2586 -22.8103 Z"/><path style="fill:none; stroke:black;" d="M-83.9519 25.432 L-84.441 25.536 L-84.691 25.103"/><path style="fill:none; stroke:black;" d="M-99.1065 -0.8156 L-99.441 -0.444 L-99.191 -0.011"/><path style="fill:none; stroke:black;" d="M52.0153 -10.0387 L51.963 -10.536 L52.4198 -10.7394"/><path style="fill:none; stroke:black;" d="M55.0457 18.8017 L55.098 19.299 L55.5871 19.403"/><path style="stroke:none;" d="M83.3055 -22.8103 Q83.3055 -20.7478 82.2664 -19.5681 Q81.2274 -18.3884 79.3836 -18.3884 Q77.493 -18.3884 76.4618 -19.5525 Q75.4305 -20.7166 75.4305 -22.8259 Q75.4305 -24.9197 76.4618 -26.0681 Q77.493 -27.2166 79.3836 -27.2166 Q81.243 -27.2166 82.2743 -26.0447 Q83.3055 -24.8728 83.3055 -22.8103 ZM76.4774 -22.8103 Q76.4774 -21.0759 77.2196 -20.1697 Q77.9618 -19.2634 79.3836 -19.2634 Q80.8055 -19.2634 81.5321 -20.1619 Q82.2586 -21.0603 82.2586 -22.8103 Q82.2586 -24.5447 81.5321 -25.4353 Q80.8055 -26.3259 79.3836 -26.3259 Q77.9618 -26.3259 77.2196 -25.4275 Q76.4774 -24.5291 76.4774 -22.8103 Z"/><path style="fill:none; stroke:black;" d="M83.9519 25.432 L84.441 25.536 L84.691 25.103"/><path style="fill:none; stroke:black;" d="M99.1065 -0.8156 L99.441 -0.444 L99.191 -0.011"/></g></g></svg></svg></svg></svg>