<svg xmlns:ns0="http://www.w3.org/2000/svg" xmlns="http://www.w3.org/2000/svg"><g transform="translate(0, 0)"><ns0:svg width="136" viewBox="0 0 136 73" style="fill-opacity:1; color-rendering:auto; color-interpolation:auto; text-rendering:auto; stroke:black; stroke-linecap:square; stroke-miterlimit:10; shape-rendering:auto; stroke-opacity:1; fill:black; stroke-dasharray:none; font-weight:normal; stroke-width:1; font-family:'Open Sans'; font-style:normal; stroke-linejoin:miter; font-size:12; stroke-dashoffset:0; image-rendering:auto;" height="73" class="cas-substance-image"><ns0:svg class="cas-substance-single-component"><ns0:rect y="0" x="0" width="136" stroke="none" ry="7" rx="7" height="73" fill="white" class="cas-substance-group" /><ns0:svg y="0" x="0" width="136" viewBox="0 0 136 58" style="fill:black;" height="58" class="cas-substance-single-component-image"><ns0:svg><ns0:g><ns0:g transform="translate(68,29)" style="text-rendering:geometricPrecision; color-rendering:optimizeQuality; color-interpolation:linearRGB; stroke-linecap:butt; image-rendering:optimizeQuality;"><ns0:line y2="-10.536" y1="-25.536" x2="64.638" x1="38.658" style="fill:none;" /><ns0:line y2="-16.0423" y1="-25.536" x2="22.2149" x1="38.658" style="fill:none;" /><ns0:line y2="-1.0052" y1="-3.579" x2="-40.1436" x1="-64.638" style="fill:none;" /><ns0:line y2="-22.74" y1="-12.8419" x2="-14.73" x1="7.4994" style="fill:none;" /><ns0:line y2="-18.7207" y1="-9.6445" x2="-14.3077" x1="6.0757" style="fill:none;" /><ns0:line y2="19.299" y1="-4.3907" x2="9.54" x1="12.0316" style="fill:none;" /><ns0:line y2="-5.6531" y1="-22.74" x2="-30.1133" x1="-14.73" style="fill:none;" /><ns0:line y2="25.536" y1="19.299" x2="-19.803" x1="9.54" style="fill:none;" /><ns0:line y2="21.6924" y1="16.2956" x2="-18.5541" x1="6.8357" style="fill:none;" /><ns0:line y2="25.536" y1="5.4443" x2="-19.803" x1="-31.4033" style="fill:none;" /><ns0:path style="fill:none; stroke-miterlimit:5;" d="M39.091 -25.286 L38.658 -25.536 L38.225 -25.286" /></ns0:g><ns0:g transform="translate(68,29)" style="stroke-linecap:butt; fill:rgb(0,5,255); text-rendering:geometricPrecision; color-rendering:optimizeQuality; image-rendering:optimizeQuality; font-family:'Open Sans'; stroke:rgb(0,5,255); color-interpolation:linearRGB; stroke-miterlimit:5;"><ns0:path style="stroke:none;" d="M16.0296 -6.3798 L14.8889 -6.3798 L10.2014 -13.5673 L10.1546 -13.5673 Q10.2483 -12.3016 10.2483 -11.2548 L10.2483 -6.3798 L9.3264 -6.3798 L9.3264 -14.9423 L10.4514 -14.9423 L15.1233 -7.786 L15.1702 -7.786 Q15.1702 -7.9423 15.1233 -8.8016 Q15.0764 -9.661 15.0921 -10.036 L15.0921 -14.9423 L16.0296 -14.9423 L16.0296 -6.3798 Z" /><ns0:path style="fill:black; stroke:none;" d="M19.1702 -13.3704 L20.7796 -13.3704 L20.7796 -12.8235 L19.1702 -12.8235 L19.1702 -11.1673 L18.6389 -11.1673 L18.6389 -12.8235 L17.0296 -12.8235 L17.0296 -13.3704 L18.6389 -13.3704 L18.6389 -15.0423 L19.1702 -15.0423 L19.1702 -13.3704 Z" /><ns0:path style="fill:none; stroke:black;" d="M-14.2732 -22.5366 L-14.73 -22.74 L-15.0645 -22.3684" /><ns0:path style="fill:none; stroke:black;" d="M9.5923 18.8017 L9.54 19.299 L9.0509 19.403" /><ns0:path style="stroke:none;" d="M-31.4514 3.7122 L-32.5921 3.7122 L-37.2796 -3.4753 L-37.3264 -3.4753 Q-37.2327 -2.2096 -37.2327 -1.1628 L-37.2327 3.7122 L-38.1546 3.7122 L-38.1546 -4.8503 L-37.0296 -4.8503 L-32.3577 2.306 L-32.3108 2.306 Q-32.3108 2.1497 -32.3577 1.2904 Q-32.4046 0.431 -32.3889 0.056 L-32.3889 -4.8503 L-31.4514 -4.8503 L-31.4514 3.7122 Z" /><ns0:path style="fill:none; stroke:black;" d="M-19.3139 25.432 L-19.803 25.536 L-20.053 25.103" /></ns0:g></ns0:g></ns0:svg></ns0:svg><ns0:svg y="58" x="60" class="cas-substance-saf"><ns0:svg y="5" x="0" width="4" style="fill:black;" height="4" class="cas-substance-saf-dot"><ns0:circle stroke="none" r="2" fill="black" cy="2" cx="2" /></ns0:svg><ns0:svg y="0" x="8" width="22" style="fill:black;" height="15" class="cas-substance-saf-image"><ns0:svg><ns0:g><ns0:g transform="translate(9,7)" style="fill:rgb(0,138,0); text-rendering:geometricPrecision; color-rendering:optimizeQuality; image-rendering:optimizeQuality; font-family:'Open Sans'; stroke:rgb(0,138,0); color-interpolation:linearRGB;"><ns0:path style="stroke:none;" d="M-5.6689 -4.4062 L-3.2471 -4.4062 Q-1.5439 -4.4062 -0.7783 -3.8984 Q-0.0127 -3.3906 -0.0127 -2.2969 Q-0.0127 -1.5312 -0.4346 -1.0312 Q-0.8564 -0.5312 -1.6846 -0.3906 L-1.6846 -0.3281 Q0.2686 0 0.2686 1.7188 Q0.2686 2.8594 -0.5049 3.5078 Q-1.2783 4.1562 -2.6689 4.1562 L-5.6689 4.1562 L-5.6689 -4.4062 ZM-4.6689 -0.75 L-3.0283 -0.75 Q-1.9658 -0.75 -1.5049 -1.0781 Q-1.0439 -1.4062 -1.0439 -2.1875 Q-1.0439 -2.9062 -1.5596 -3.2266 Q-2.0752 -3.5469 -3.2002 -3.5469 L-4.6689 -3.5469 L-4.6689 -0.75 ZM-4.6689 0.0938 L-4.6689 3.3125 L-2.8721 3.3125 Q-1.8408 3.3125 -1.3174 2.9062 Q-0.7939 2.5 -0.7939 1.6406 Q-0.7939 0.8438 -1.333 0.4688 Q-1.8721 0.0938 -2.9658 0.0938 L-4.6689 0.0938 ZM4.9033 -2.3906 Q5.3252 -2.3906 5.6689 -2.3125 L5.5283 -1.4062 Q5.1377 -1.5 4.8252 -1.5 Q4.0439 -1.5 3.4893 -0.8672 Q2.9346 -0.2344 2.9346 0.7031 L2.9346 4.1562 L1.9658 4.1562 L1.9658 -2.2656 L2.7627 -2.2656 L2.8877 -1.0781 L2.9346 -1.0781 Q3.2783 -1.7031 3.7861 -2.0469 Q4.2939 -2.3906 4.9033 -2.3906 Z" /><ns0:path style="fill:black; stroke:none;" d="M6.5986 -2.2719 L6.5986 -2.8656 L9.958 -2.8656 L9.958 -2.2719 L6.5986 -2.2719 Z" /></ns0:g></ns0:g></ns0:svg></ns0:svg></ns0:svg></ns0:svg></ns0:svg></g></svg>