<svg xmlns:ns0="http://www.w3.org/2000/svg" xmlns="http://www.w3.org/2000/svg"><g transform="translate(0, 0)"><ns0:svg width="166" viewBox="0 0 166 100" style="fill-opacity:1; color-rendering:auto; color-interpolation:auto; text-rendering:auto; stroke:black; stroke-linecap:square; stroke-miterlimit:10; shape-rendering:auto; stroke-opacity:1; fill:black; stroke-dasharray:none; font-weight:normal; stroke-width:1; font-family:'Open Sans'; font-style:normal; stroke-linejoin:miter; font-size:12; stroke-dashoffset:0; image-rendering:auto;" height="100" class="cas-substance-image"><ns0:svg class="cas-substance-single-component"><ns0:rect y="0" x="0" width="166" stroke="none" ry="7" rx="7" height="100" fill="white" class="cas-substance-group" /><ns0:svg y="0" x="0" width="166" viewBox="0 0 166 100" style="fill:black;" height="100" class="cas-substance-single-component-image"><ns0:svg><ns0:g><ns0:g transform="translate(85,52)" style="text-rendering:geometricPrecision; color-rendering:optimizeQuality; color-interpolation:linearRGB; stroke-linecap:butt; image-rendering:optimizeQuality;"><ns0:line y2="45" y1="15" x2="-51.963" x1="-51.963" style="fill:none;" /><ns0:line y2="1.6631" y1="13.9897" x2="-71.5626" x1="-50.2129" style="fill:none;" /><ns0:line y2="4.6941" y1="17.0207" x2="-73.3127" x1="-51.963" style="fill:none;" /><ns0:line y2="0" y1="15" x2="-25.98" x1="-51.963" style="fill:none;" /><ns0:line y2="-30" y1="-41.7837" x2="-25.98" x1="-46.3918" style="fill:none;" /><ns0:line y2="0" y1="11.774" x2="77.943" x1="57.5505" style="fill:none;" /><ns0:line y2="0" y1="11.7588" x2="25.98" x1="46.3487" style="fill:none;" /><ns0:line y2="15" y1="0" x2="0" x1="-25.98" style="fill:none;" /><ns0:line y2="10.9585" y1="-2.0207" x2="0.0001" x1="-22.48" style="fill:none;" /><ns0:line y2="-30" y1="0" x2="-25.98" x1="-25.98" style="fill:none;" /><ns0:line y2="0" y1="15" x2="25.98" x1="0" style="fill:none;" /><ns0:line y2="-45" y1="-30" x2="0" x1="-25.98" style="fill:none;" /><ns0:line y2="-40.9585" y1="-27.9793" x2="0.0001" x1="-22.48" style="fill:none;" /><ns0:line y2="-30" y1="0" x2="25.98" x1="25.98" style="fill:none;" /><ns0:line y2="-27.9793" y1="-2.0207" x2="22.48" x1="22.48" style="fill:none;" /><ns0:line y2="-30" y1="-45" x2="25.98" x1="0" style="fill:none;" /><ns0:path style="fill:none; stroke-miterlimit:5;" d="M-51.963 15.5 L-51.963 15 L-51.53 14.75" /></ns0:g><ns0:g transform="translate(85,52)" style="stroke-linecap:butt; fill:rgb(230,0,0); text-rendering:geometricPrecision; color-rendering:optimizeQuality; image-rendering:optimizeQuality; font-family:'Open Sans'; stroke:rgb(230,0,0); color-interpolation:linearRGB; stroke-miterlimit:5;"><ns0:path style="stroke:none;" d="M-74.0055 -0.0703 Q-74.0055 1.9922 -75.0446 3.1719 Q-76.0836 4.3516 -77.9274 4.3516 Q-79.818 4.3516 -80.8493 3.1875 Q-81.8805 2.0234 -81.8805 -0.0859 Q-81.8805 -2.1797 -80.8493 -3.3281 Q-79.818 -4.4766 -77.9274 -4.4766 Q-76.068 -4.4766 -75.0368 -3.3047 Q-74.0055 -2.1328 -74.0055 -0.0703 ZM-80.8336 -0.0703 Q-80.8336 1.6641 -80.0914 2.5703 Q-79.3493 3.4766 -77.9274 3.4766 Q-76.5055 3.4766 -75.7789 2.5781 Q-75.0524 1.6797 -75.0524 -0.0703 Q-75.0524 -1.8047 -75.7789 -2.6953 Q-76.5055 -3.5859 -77.9274 -3.5859 Q-79.3493 -3.5859 -80.0914 -2.6875 Q-80.8336 -1.7891 -80.8336 -0.0703 Z" /><ns0:path style="fill:rgb(0,138,0); stroke:none;" d="M-57.6319 -49.4062 L-55.2101 -49.4062 Q-53.5069 -49.4062 -52.7413 -48.8984 Q-51.9757 -48.3906 -51.9757 -47.2969 Q-51.9757 -46.5312 -52.3976 -46.0312 Q-52.8194 -45.5312 -53.6476 -45.3906 L-53.6476 -45.3281 Q-51.6944 -45 -51.6944 -43.2812 Q-51.6944 -42.1406 -52.4679 -41.4922 Q-53.2413 -40.8438 -54.6319 -40.8438 L-57.6319 -40.8438 L-57.6319 -49.4062 ZM-56.6319 -45.75 L-54.9913 -45.75 Q-53.9288 -45.75 -53.4679 -46.0781 Q-53.0069 -46.4062 -53.0069 -47.1875 Q-53.0069 -47.9062 -53.5226 -48.2266 Q-54.0382 -48.5469 -55.1632 -48.5469 L-56.6319 -48.5469 L-56.6319 -45.75 ZM-56.6319 -44.9062 L-56.6319 -41.6875 L-54.8351 -41.6875 Q-53.8038 -41.6875 -53.2804 -42.0938 Q-52.7569 -42.5 -52.7569 -43.3594 Q-52.7569 -44.1562 -53.296 -44.5312 Q-53.8351 -44.9062 -54.9288 -44.9062 L-56.6319 -44.9062 ZM-47.0597 -47.3906 Q-46.6378 -47.3906 -46.2941 -47.3125 L-46.4347 -46.4062 Q-46.8253 -46.5 -47.1378 -46.5 Q-47.9191 -46.5 -48.4737 -45.8672 Q-49.0284 -45.2344 -49.0284 -44.2969 L-49.0284 -40.8438 L-49.9972 -40.8438 L-49.9972 -47.2656 L-49.2003 -47.2656 L-49.0753 -46.0781 L-49.0284 -46.0781 Q-48.6847 -46.7031 -48.1769 -47.0469 Q-47.6691 -47.3906 -47.0597 -47.3906 Z" /><ns0:path style="stroke:none;" d="M55.9005 14.9297 Q55.9005 16.9922 54.8614 18.1719 Q53.8224 19.3516 51.9786 19.3516 Q50.088 19.3516 49.0568 18.1875 Q48.0255 17.0234 48.0255 14.9141 Q48.0255 12.8203 49.0568 11.6719 Q50.088 10.5234 51.9786 10.5234 Q53.838 10.5234 54.8693 11.6953 Q55.9005 12.8672 55.9005 14.9297 ZM49.0724 14.9297 Q49.0724 16.6641 49.8146 17.5703 Q50.5568 18.4766 51.9786 18.4766 Q53.4005 18.4766 54.1271 17.5781 Q54.8536 16.6797 54.8536 14.9297 Q54.8536 13.1953 54.1271 12.3047 Q53.4005 11.4141 51.9786 11.4141 Q50.5568 11.4141 49.8146 12.3125 Q49.0724 13.2109 49.0724 14.9297 Z" /><ns0:path style="fill:none; stroke:black;" d="M-25.547 0.25 L-25.98 0 L-26.413 0.25" /><ns0:path style="fill:none; stroke:black;" d="M-0.433 14.75 L0 15 L0.433 14.75" /><ns0:path style="fill:none; stroke:black;" d="M-25.547 -30.25 L-25.98 -30 L-25.98 -29.5" /><ns0:path style="fill:none; stroke:black;" d="M25.98 -0.5 L25.98 0 L26.413 0.25" /><ns0:path style="fill:none; stroke:black;" d="M-0.433 -44.75 L0 -45 L0.433 -44.75" /><ns0:path style="fill:none; stroke:black;" d="M25.98 -29.5 L25.98 -30 L25.547 -30.25" /></ns0:g></ns0:g></ns0:svg></ns0:svg></ns0:svg></ns0:svg></g></svg>