<svg xmlns:ns0="http://www.w3.org/2000/svg" xmlns="http://www.w3.org/2000/svg"><g transform="translate(0, 0)"><ns0:svg width="169" viewBox="0 0 169 60" style="fill-opacity:1; color-rendering:auto; color-interpolation:auto; text-rendering:auto; stroke:black; stroke-linecap:square; stroke-miterlimit:10; shape-rendering:auto; stroke-opacity:1; fill:black; stroke-dasharray:none; font-weight:normal; stroke-width:1; font-family:'Open Sans'; font-style:normal; stroke-linejoin:miter; font-size:12; stroke-dashoffset:0; image-rendering:auto;" height="60" class="cas-substance-image"><ns0:svg class="cas-substance-single-component"><ns0:rect y="0" x="0" width="169" stroke="none" ry="7" rx="7" height="60" fill="white" class="cas-substance-group" /><ns0:svg y="0" x="0" width="169" viewBox="0 0 169 60" style="fill:black;" height="60" class="cas-substance-single-component-image"><ns0:svg><ns0:g><ns0:g transform="translate(84,30)" style="text-rendering:geometricPrecision; color-rendering:optimizeQuality; color-interpolation:linearRGB; stroke-linecap:butt; image-rendering:optimizeQuality;"><ns0:line y2="12.4972" y1="19.2586" x2="-17.3248" x1="-5.6141" style="fill:none;" /><ns0:line y2="12.5309" y1="19.274" x2="17.2665" x1="5.5875" style="fill:none;" /><ns0:line y2="-7.5" y1="2.4697" x2="-51.963" x1="-34.6935" style="fill:none;" /><ns0:line y2="-7.5" y1="3.6478" x2="51.963" x1="32.6527" style="fill:none;" /><ns0:line y2="-19.5649" y1="-7.5" x2="-72.8594" x1="-51.963" style="fill:none;" /><ns0:line y2="-16.5338" y1="-4.4689" x2="-74.6094" x1="-53.713" style="fill:none;" /><ns0:line y2="-22.596" y1="-10.5311" x2="-71.1094" x1="-50.213" style="fill:none;" /><ns0:line y2="-19.5649" y1="-7.5" x2="72.8594" x1="51.963" style="fill:none;" /><ns0:line y2="-22.596" y1="-10.5311" x2="71.1094" x1="50.213" style="fill:none;" /><ns0:line y2="-16.5338" y1="-4.4689" x2="74.6094" x1="53.713" style="fill:none;" /></ns0:g><ns0:g transform="translate(84,30)" style="fill:rgb(230,0,0); text-rendering:geometricPrecision; color-rendering:optimizeQuality; image-rendering:optimizeQuality; font-family:'Open Sans'; stroke:rgb(230,0,0); color-interpolation:linearRGB;"><ns0:path style="stroke:none;" d="M3.9375 22.4297 Q3.9375 24.4922 2.8984 25.6719 Q1.8594 26.8516 0.0156 26.8516 Q-1.875 26.8516 -2.9062 25.6875 Q-3.9375 24.5234 -3.9375 22.4141 Q-3.9375 20.3203 -2.9062 19.1719 Q-1.875 18.0234 0.0156 18.0234 Q1.875 18.0234 2.9062 19.1953 Q3.9375 20.3672 3.9375 22.4297 ZM-2.8906 22.4297 Q-2.8906 24.1641 -2.1484 25.0703 Q-1.4062 25.9766 0.0156 25.9766 Q1.4375 25.9766 2.1641 25.0781 Q2.8906 24.1797 2.8906 22.4297 Q2.8906 20.6953 2.1641 19.8047 Q1.4375 18.9141 0.0156 18.9141 Q-1.4062 18.9141 -2.1484 19.8125 Q-2.8906 20.7109 -2.8906 22.4297 Z" /><ns0:path style="fill:black; stroke:none;" d="M-26.4458 11.6562 L-27.4458 11.6562 L-27.4458 7.625 L-31.9614 7.625 L-31.9614 11.6562 L-32.9614 11.6562 L-32.9614 3.0938 L-31.9614 3.0938 L-31.9614 6.7344 L-27.4458 6.7344 L-27.4458 3.0938 L-26.4458 3.0938 L-26.4458 11.6562 ZM-18.9986 5.2344 L-18.9986 5.8438 L-20.1861 5.9844 Q-20.0142 6.1875 -19.8892 6.5234 Q-19.7642 6.8594 -19.7642 7.2656 Q-19.7642 8.2188 -20.4048 8.7812 Q-21.0454 9.3438 -22.1704 9.3438 Q-22.4673 9.3438 -22.7173 9.2969 Q-23.3267 9.625 -23.3267 10.125 Q-23.3267 10.3906 -23.1157 10.5156 Q-22.9048 10.6406 -22.3736 10.6406 L-21.2329 10.6406 Q-20.1861 10.6406 -19.6314 11.0781 Q-19.0767 11.5156 -19.0767 12.3594 Q-19.0767 13.4219 -19.9282 13.9844 Q-20.7798 14.5469 -22.4204 14.5469 Q-23.6861 14.5469 -24.3657 14.0781 Q-25.0454 13.6094 -25.0454 12.75 Q-25.0454 12.1562 -24.6704 11.7266 Q-24.2954 11.2969 -23.6236 11.1562 Q-23.8736 11.0469 -24.0376 10.8125 Q-24.2017 10.5781 -24.2017 10.2656 Q-24.2017 9.9062 -24.0142 9.6406 Q-23.8267 9.375 -23.4204 9.1406 Q-23.9204 8.9375 -24.2329 8.4453 Q-24.5454 7.9531 -24.5454 7.3125 Q-24.5454 6.2656 -23.9126 5.6875 Q-23.2798 5.1094 -22.1236 5.1094 Q-21.6236 5.1094 -21.2173 5.2344 L-18.9986 5.2344 ZM-24.1079 12.7344 Q-24.1079 13.25 -23.6704 13.5234 Q-23.2329 13.7969 -22.4204 13.7969 Q-21.1861 13.7969 -20.6001 13.4297 Q-20.0142 13.0625 -20.0142 12.4375 Q-20.0142 11.9219 -20.3345 11.7188 Q-20.6548 11.5156 -21.5454 11.5156 L-22.7173 11.5156 Q-23.3736 11.5156 -23.7407 11.8281 Q-24.1079 12.1406 -24.1079 12.7344 ZM-23.5923 7.2969 Q-23.5923 7.9688 -23.2095 8.3125 Q-22.8267 8.6562 -22.1392 8.6562 Q-20.7173 8.6562 -20.7173 7.2656 Q-20.7173 5.8281 -22.1548 5.8281 Q-22.8423 5.8281 -23.2173 6.1953 Q-23.5923 6.5625 -23.5923 7.2969 Z" /><ns0:path style="fill:black; stroke:none;" d="M25.5142 11.6562 L24.5142 11.6562 L24.5142 7.625 L19.9986 7.625 L19.9986 11.6562 L18.9986 11.6562 L18.9986 3.0938 L19.9986 3.0938 L19.9986 6.7344 L24.5142 6.7344 L24.5142 3.0938 L25.5142 3.0938 L25.5142 11.6562 ZM32.9614 5.2344 L32.9614 5.8438 L31.7739 5.9844 Q31.9458 6.1875 32.0708 6.5234 Q32.1958 6.8594 32.1958 7.2656 Q32.1958 8.2188 31.5552 8.7812 Q30.9146 9.3438 29.7896 9.3438 Q29.4927 9.3438 29.2427 9.2969 Q28.6333 9.625 28.6333 10.125 Q28.6333 10.3906 28.8443 10.5156 Q29.0552 10.6406 29.5864 10.6406 L30.7271 10.6406 Q31.7739 10.6406 32.3286 11.0781 Q32.8833 11.5156 32.8833 12.3594 Q32.8833 13.4219 32.0318 13.9844 Q31.1802 14.5469 29.5396 14.5469 Q28.2739 14.5469 27.5943 14.0781 Q26.9146 13.6094 26.9146 12.75 Q26.9146 12.1562 27.2896 11.7266 Q27.6646 11.2969 28.3364 11.1562 Q28.0864 11.0469 27.9224 10.8125 Q27.7583 10.5781 27.7583 10.2656 Q27.7583 9.9062 27.9458 9.6406 Q28.1333 9.375 28.5396 9.1406 Q28.0396 8.9375 27.7271 8.4453 Q27.4146 7.9531 27.4146 7.3125 Q27.4146 6.2656 28.0474 5.6875 Q28.6802 5.1094 29.8364 5.1094 Q30.3364 5.1094 30.7427 5.2344 L32.9614 5.2344 ZM27.8521 12.7344 Q27.8521 13.25 28.2896 13.5234 Q28.7271 13.7969 29.5396 13.7969 Q30.7739 13.7969 31.3599 13.4297 Q31.9458 13.0625 31.9458 12.4375 Q31.9458 11.9219 31.6255 11.7188 Q31.3052 11.5156 30.4146 11.5156 L29.2427 11.5156 Q28.5864 11.5156 28.2193 11.8281 Q27.8521 12.1406 27.8521 12.7344 ZM28.3677 7.2969 Q28.3677 7.9688 28.7505 8.3125 Q29.1333 8.6562 29.8208 8.6562 Q31.2427 8.6562 31.2427 7.2656 Q31.2427 5.8281 29.8052 5.8281 Q29.1177 5.8281 28.7427 6.1953 Q28.3677 6.5625 28.3677 7.2969 Z" /></ns0:g><ns0:g transform="translate(84,30)" style="stroke-linecap:butt; text-rendering:geometricPrecision; color-rendering:optimizeQuality; image-rendering:optimizeQuality; font-family:'Open Sans'; color-interpolation:linearRGB; stroke-miterlimit:5;"><ns0:path style="fill:none;" d="M51.53 -7.25 L51.963 -7.5 L52.396 -7.75" /><ns0:path style="fill:rgb(0,5,255); stroke:none;" d="M-74.5914 -18.3438 L-75.7321 -18.3438 L-80.4196 -25.5312 L-80.4664 -25.5312 Q-80.3727 -24.2656 -80.3727 -23.2188 L-80.3727 -18.3438 L-81.2946 -18.3438 L-81.2946 -26.9062 L-80.1696 -26.9062 L-75.4977 -19.75 L-75.4508 -19.75 Q-75.4508 -19.9062 -75.4977 -20.7656 Q-75.5446 -21.625 -75.5289 -22 L-75.5289 -26.9062 L-74.5914 -26.9062 L-74.5914 -18.3438 Z" /><ns0:path style="fill:rgb(0,5,255); stroke:none;" d="M81.2946 -18.3438 L80.1539 -18.3438 L75.4664 -25.5312 L75.4196 -25.5312 Q75.5133 -24.2656 75.5133 -23.2188 L75.5133 -18.3438 L74.5914 -18.3438 L74.5914 -26.9062 L75.7164 -26.9062 L80.3883 -19.75 L80.4352 -19.75 Q80.4352 -19.9062 80.3883 -20.7656 Q80.3414 -21.625 80.3571 -22 L80.3571 -26.9062 L81.2946 -26.9062 L81.2946 -18.3438 Z" /></ns0:g></ns0:g></ns0:svg></ns0:svg></ns0:svg></ns0:svg></g></svg>