<svg xmlns:ns0="http://www.w3.org/2000/svg" xmlns="http://www.w3.org/2000/svg"><g transform="translate(0, 0)"><ns0:svg width="100" viewBox="0 0 100 15" style="fill-opacity:1; color-rendering:auto; color-interpolation:auto; text-rendering:auto; stroke:black; stroke-linecap:square; stroke-miterlimit:10; shape-rendering:auto; stroke-opacity:1; fill:black; stroke-dasharray:none; font-weight:normal; stroke-width:1; font-family:'Open Sans'; font-style:normal; stroke-linejoin:miter; font-size:12; stroke-dashoffset:0; image-rendering:auto;" height="15" class="cas-substance-image"><ns0:svg class="cas-substance-single-component"><ns0:rect y="0" x="0" width="100" stroke="none" ry="7" rx="7" height="15" fill="white" class="cas-substance-group" /><ns0:svg y="0" x="14" width="71" viewBox="0 0 71 15" style="fill:black;" height="15" class="cas-substance-single-component-image"><ns0:svg><ns0:g><ns0:g transform="translate(35,7)" style="text-rendering:geometricPrecision; color-rendering:optimizeQuality; color-interpolation:linearRGB; stroke-linecap:butt; image-rendering:optimizeQuality;"><ns0:line y2="0" y1="0" x2="-25.8147" x1="-8.3247" style="fill:none;" /><ns0:line y2="0" y1="0" x2="25.6094" x1="8.3857" style="fill:none;" /><ns0:path style="stroke-linecap:square; stroke:none;" d="M-0.4951 4.1562 L-6.3857 4.1562 L-6.3857 3.375 L-1.8389 -3.5156 L-6.2451 -3.5156 L-6.2451 -4.4062 L-0.6357 -4.4062 L-0.6357 -3.625 L-5.1826 3.25 L-0.4951 3.25 L-0.4951 4.1562 ZM5.4014 4.1562 L5.4014 0 Q5.4014 -0.7812 5.0498 -1.1719 Q4.6982 -1.5625 3.9326 -1.5625 Q2.917 -1.5625 2.4482 -1.0156 Q1.9795 -0.4688 1.9795 0.7812 L1.9795 4.1562 L1.0107 4.1562 L1.0107 -2.2656 L1.8076 -2.2656 L1.9639 -1.3906 L2.0107 -1.3906 Q2.3076 -1.8594 2.8467 -2.125 Q3.3857 -2.3906 4.042 -2.3906 Q5.2139 -2.3906 5.7998 -1.8281 Q6.3857 -1.2656 6.3857 -0.0312 L6.3857 4.1562 L5.4014 4.1562 Z" /></ns0:g><ns0:g transform="translate(35,7)" style="fill:rgb(0,138,0); text-rendering:geometricPrecision; color-rendering:optimizeQuality; image-rendering:optimizeQuality; font-family:'Open Sans'; stroke:rgb(0,138,0); color-interpolation:linearRGB;"><ns0:path style="stroke:none;" d="M-31.3906 4.1562 L-32.3906 4.1562 L-32.3906 -4.4062 L-27.6094 -4.4062 L-27.6094 -3.5312 L-31.3906 -3.5312 L-31.3906 -0.3906 L-27.8438 -0.3906 L-27.8438 0.5 L-31.3906 0.5 L-31.3906 4.1562 Z" /><ns0:path style="stroke:none;" d="M28.6094 4.1562 L27.6094 4.1562 L27.6094 -4.4062 L32.3906 -4.4062 L32.3906 -3.5312 L28.6094 -3.5312 L28.6094 -0.3906 L32.1562 -0.3906 L32.1562 0.5 L28.6094 0.5 L28.6094 4.1562 Z" /></ns0:g></ns0:g></ns0:svg></ns0:svg></ns0:svg></ns0:svg></g></svg>