<svg xmlns:ns0="http://www.w3.org/2000/svg" xmlns="http://www.w3.org/2000/svg"><g transform="translate(0, 0)"><ns0:svg width="352" viewBox="0 0 352 191" style="fill-opacity:1; color-rendering:auto; color-interpolation:auto; text-rendering:auto; stroke:black; stroke-linecap:square; stroke-miterlimit:10; shape-rendering:auto; stroke-opacity:1; fill:black; stroke-dasharray:none; font-weight:normal; stroke-width:1; font-family:'Open Sans'; font-style:normal; stroke-linejoin:miter; font-size:12; stroke-dashoffset:0; image-rendering:auto;" height="191" class="cas-substance-image"><ns0:svg class="cas-substance-single-component"><ns0:rect y="0" x="0" width="352" stroke="none" ry="7" rx="7" height="191" fill="white" class="cas-substance-group" /><ns0:svg y="0" x="0" width="352" viewBox="0 0 352 191" style="fill:black;" height="191" class="cas-substance-single-component-image"><ns0:svg><ns0:g><ns0:g transform="translate(176,97)" style="text-rendering:geometricPrecision; color-rendering:optimizeQuality; color-interpolation:linearRGB; stroke-linecap:butt; image-rendering:optimizeQuality;"><ns0:path style="stroke:none;" d="M-46.4153 -14.0393 L-47.2298 -13.4494 L-44.4457 -8.6214 L-43.5276 -9.0318 L-46.4153 -14.0393 ZM-48.8588 -12.2696 L-49.6733 -11.6798 L-47.1998 -7.3904 L-46.2818 -7.8008 L-48.8588 -12.2696 ZM-51.3023 -10.5 L-52.1169 -9.9101 L-52.1169 -9.9101 L-49.9539 -6.1594 L-49.9539 -6.1594 L-49.0359 -6.5697 L-51.3023 -10.5 ZM-53.7459 -8.7304 L-54.5604 -8.1405 L-54.5604 -8.1405 L-52.7081 -4.9284 L-51.79 -5.3387 L-53.7459 -8.7304 ZM-56.1894 -6.9607 L-57.0039 -6.3709 L-55.4622 -3.6974 L-54.5442 -4.1077 L-54.5442 -4.1077 L-56.1894 -6.9607 ZM-58.633 -5.1911 L-59.4475 -4.6012 L-58.2163 -2.4663 L-57.2983 -2.8767 L-58.633 -5.1911 ZM-61.0765 -3.4215 L-61.891 -2.8316 L-60.9705 -1.2353 L-60.0524 -1.6457 L-61.0765 -3.4215 ZM-63.52 -1.6518 L-64.3345 -1.062 L-63.7246 -0.0043 L-62.8066 -0.4146 L-62.8066 -0.4146 L-63.52 -1.6518 Z" /><ns0:line y2="-15" y1="0" x2="-90.933" x1="-64.953" style="fill:none;" /><ns0:line y2="30" y1="0" x2="-64.953" x1="-64.953" style="fill:none;" /><ns0:line y2="-45" y1="-60" x2="64.953" x1="38.97" style="fill:none;" /><ns0:line y2="-47.9351" y1="-60" x2="18.0736" x1="38.97" style="fill:none;" /><ns0:line y2="-56.8112" y1="-45" x2="85.41" x1="64.953" style="fill:none;" /><ns0:line y2="-45" y1="-56.8214" x2="116.913" x1="96.4384" style="fill:none;" /><ns0:line y2="-60" y1="-45" x2="142.893" x1="116.913" style="fill:none;" /><ns0:line y2="-83.6484" y1="-60" x2="142.893" x1="142.893" style="fill:none;" /><ns0:line y2="-46.7256" y1="-58.9896" x2="162.3867" x1="141.143" style="fill:none;" /><ns0:line y2="-49.7567" y1="-62.0207" x2="164.1366" x1="142.893" style="fill:none;" /><ns0:line y2="-45" y1="-56.4496" x2="-142.893" x1="-162.726" style="fill:none;" /><ns0:line y2="-45" y1="-21.4062" x2="-38.97" x1="-38.97" style="fill:none;" /><ns0:line y2="0" y1="-12.0649" x2="-12.99" x1="-33.8864" style="fill:none;" /><ns0:line y2="-60" y1="-45" x2="-12.99" x1="-38.97" style="fill:none;" /><ns0:line y2="-15" y1="0" x2="12.99" x1="-12.99" style="fill:none;" /><ns0:line y2="-47.9351" y1="-60" x2="7.9064" x1="-12.99" style="fill:none;" /><ns0:line y2="-38.8438" y1="-15" x2="12.99" x1="12.99" style="fill:none;" /><ns0:line y2="-45" y1="-15" x2="-90.933" x1="-90.933" style="fill:none;" /><ns0:line y2="-42.9793" y1="-17.0207" x2="-94.433" x1="-94.433" style="fill:none;" /><ns0:line y2="0" y1="-15" x2="-116.913" x1="-90.933" style="fill:none;" /><ns0:line y2="-60" y1="-45" x2="-116.913" x1="-90.933" style="fill:none;" /><ns0:line y2="-15" y1="0" x2="-142.893" x1="-116.913" style="fill:none;" /><ns0:line y2="-17.0207" y1="-4.0415" x2="-139.393" x1="-116.9129" style="fill:none;" /><ns0:line y2="-45" y1="-60" x2="-142.893" x1="-116.913" style="fill:none;" /><ns0:line y2="-42.9793" y1="-55.9585" x2="-139.393" x1="-116.9129" style="fill:none;" /><ns0:line y2="-45" y1="-15" x2="-142.893" x1="-142.893" style="fill:none;" /><ns0:line y2="45" y1="30" x2="-38.97" x1="-64.953" style="fill:none;" /><ns0:line y2="47.0209" y1="34.0415" x2="-42.4699" x1="-64.9529" style="fill:none;" /><ns0:line y2="45" y1="30" x2="-90.933" x1="-64.953" style="fill:none;" /><ns0:line y2="75" y1="45" x2="-38.97" x1="-38.97" style="fill:none;" /><ns0:line y2="75" y1="45" x2="-90.933" x1="-90.933" style="fill:none;" /><ns0:line y2="72.9793" y1="47.0207" x2="-87.433" x1="-87.433" style="fill:none;" /><ns0:line y2="90" y1="75" x2="-64.953" x1="-38.97" style="fill:none;" /><ns0:line y2="85.9585" y1="72.9791" x2="-64.9529" x1="-42.4699" style="fill:none;" /><ns0:line y2="90" y1="75" x2="-64.953" x1="-90.933" style="fill:none;" /><ns0:path style="fill:none; stroke-miterlimit:5;" d="M-65.386 -0.25 L-64.953 0 L-64.953 0.5" /></ns0:g><ns0:g transform="translate(176,97)" style="stroke-linecap:butt; font-size:8.4px; fill:gray; text-rendering:geometricPrecision; image-rendering:optimizeQuality; color-rendering:optimizeQuality; font-family:'Open Sans'; font-style:italic; stroke:gray; color-interpolation:linearRGB; stroke-miterlimit:5;"><ns0:path style="stroke:none;" d="M-69.3414 -8.8359 Q-69.3414 -10.1641 -68.8726 -11.2891 Q-68.4039 -12.4141 -67.3726 -13.4922 L-66.7633 -13.4922 Q-67.732 -12.4297 -68.2164 -11.2578 Q-68.7008 -10.0859 -68.7008 -8.8516 Q-68.7008 -7.5234 -68.2633 -6.5078 L-68.7789 -6.5078 Q-69.3414 -7.5391 -69.3414 -8.8359 ZM-65.7813 -10.1484 L-66.2813 -7.7734 L-66.9376 -7.7734 L-65.7345 -13.4922 L-64.4845 -13.4922 Q-62.7501 -13.4922 -62.7501 -12.0547 Q-62.7501 -10.6953 -64.1876 -10.3047 L-63.2501 -7.7734 L-63.9688 -7.7734 L-64.797 -10.1484 L-65.7813 -10.1484 ZM-65.2032 -12.8984 Q-65.5938 -10.9766 -65.6563 -10.7266 L-65.0001 -10.7266 Q-64.2501 -10.7266 -63.8438 -11.0547 Q-63.4376 -11.3828 -63.4376 -12.0078 Q-63.4376 -12.4766 -63.6954 -12.6875 Q-63.9532 -12.8984 -64.547 -12.8984 L-65.2032 -12.8984 ZM-60.5641 -11.1484 Q-60.5641 -9.8203 -61.0407 -8.6875 Q-61.5172 -7.5547 -62.5329 -6.5078 L-63.1422 -6.5078 Q-61.2047 -8.6641 -61.2047 -11.1484 Q-61.2047 -12.4766 -61.6422 -13.4922 L-61.1266 -13.4922 Q-60.5641 -12.4297 -60.5641 -11.1484 Z" /><ns0:path style="fill:none; stroke:black;" d="M39.403 -59.75 L38.97 -60 L38.537 -59.75" /><ns0:path style="fill:none; stroke:black;" d="M64.52 -45.25 L64.953 -45 L65.386 -45.25" /></ns0:g><ns0:g transform="translate(176,97)" style="stroke-linecap:butt; fill:rgb(230,0,0); text-rendering:geometricPrecision; color-rendering:optimizeQuality; image-rendering:optimizeQuality; font-family:'Open Sans'; stroke:rgb(230,0,0); color-interpolation:linearRGB; stroke-miterlimit:5;"><ns0:path style="stroke:none;" d="M94.8705 -60.0703 Q94.8705 -58.0078 93.8314 -56.8281 Q92.7924 -55.6484 90.9486 -55.6484 Q89.058 -55.6484 88.0267 -56.8125 Q86.9955 -57.9766 86.9955 -60.0859 Q86.9955 -62.1797 88.0267 -63.3281 Q89.058 -64.4766 90.9486 -64.4766 Q92.808 -64.4766 93.8392 -63.3047 Q94.8705 -62.1328 94.8705 -60.0703 ZM88.0424 -60.0703 Q88.0424 -58.3359 88.7846 -57.4297 Q89.5267 -56.5234 90.9486 -56.5234 Q92.3705 -56.5234 93.0971 -57.4219 Q93.8236 -58.3203 93.8236 -60.0703 Q93.8236 -61.8047 93.0971 -62.6953 Q92.3705 -63.5859 90.9486 -63.5859 Q89.5267 -63.5859 88.7846 -62.6875 Q88.0424 -61.7891 88.0424 -60.0703 Z" /><ns0:path style="fill:none; stroke:black;" d="M116.48 -45.25 L116.913 -45 L117.346 -45.25" /><ns0:path style="fill:none; stroke:black;" d="M142.46 -59.75 L142.893 -60 L142.893 -60.5" /><ns0:path style="stroke:none;" d="M146.8305 -90.0703 Q146.8305 -88.0078 145.7914 -86.8281 Q144.7524 -85.6484 142.9086 -85.6484 Q141.018 -85.6484 139.9868 -86.8125 Q138.9555 -87.9766 138.9555 -90.0859 Q138.9555 -92.1797 139.9868 -93.3281 Q141.018 -94.4766 142.9086 -94.4766 Q144.768 -94.4766 145.7993 -93.3047 Q146.8305 -92.1328 146.8305 -90.0703 ZM140.0024 -90.0703 Q140.0024 -88.3359 140.7446 -87.4297 Q141.4868 -86.5234 142.9086 -86.5234 Q144.3305 -86.5234 145.0571 -87.4219 Q145.7836 -88.3203 145.7836 -90.0703 Q145.7836 -91.8047 145.0571 -92.6953 Q144.3305 -93.5859 142.9086 -93.5859 Q141.4868 -93.5859 140.7446 -92.6875 Q140.0024 -91.7891 140.0024 -90.0703 Z" /><ns0:path style="stroke:none;" d="M154.3461 -85.7734 L153.3461 -85.7734 L153.3461 -89.8047 L148.8305 -89.8047 L148.8305 -85.7734 L147.8305 -85.7734 L147.8305 -94.3359 L148.8305 -94.3359 L148.8305 -90.6953 L153.3461 -90.6953 L153.3461 -94.3359 L154.3461 -94.3359 L154.3461 -85.7734 Z" /><ns0:path style="stroke:none;" d="M172.8135 -45.0703 Q172.8135 -43.0078 171.7744 -41.8281 Q170.7354 -40.6484 168.8916 -40.6484 Q167.001 -40.6484 165.9698 -41.8125 Q164.9385 -42.9766 164.9385 -45.0859 Q164.9385 -47.1797 165.9698 -48.3281 Q167.001 -49.4766 168.8916 -49.4766 Q170.751 -49.4766 171.7823 -48.3047 Q172.8135 -47.1328 172.8135 -45.0703 ZM165.9854 -45.0703 Q165.9854 -43.3359 166.7276 -42.4297 Q167.4698 -41.5234 168.8916 -41.5234 Q170.3135 -41.5234 171.0401 -42.4219 Q171.7666 -43.3203 171.7666 -45.0703 Q171.7666 -46.8047 171.0401 -47.6953 Q170.3135 -48.5859 168.8916 -48.5859 Q167.4698 -48.5859 166.7276 -47.6875 Q165.9854 -46.7891 165.9854 -45.0703 Z" /><ns0:path style="fill:rgb(0,138,0); stroke:none;" d="M-169.1846 -63.3594 Q-170.5909 -63.3594 -171.4112 -62.4219 Q-172.2315 -61.4844 -172.2315 -59.8438 Q-172.2315 -58.1719 -171.4424 -57.25 Q-170.6534 -56.3281 -169.2002 -56.3281 Q-168.294 -56.3281 -167.1534 -56.6562 L-167.1534 -55.7812 Q-168.044 -55.4375 -169.3409 -55.4375 Q-171.2315 -55.4375 -172.2627 -56.5938 Q-173.294 -57.75 -173.294 -59.8594 Q-173.294 -61.1875 -172.8018 -62.1797 Q-172.3096 -63.1719 -171.3721 -63.7109 Q-170.4346 -64.25 -169.169 -64.25 Q-167.8252 -64.25 -166.8096 -63.7656 L-167.2315 -62.9062 Q-168.2159 -63.3594 -169.1846 -63.3594 ZM-164.458 -55.5625 L-165.4268 -55.5625 L-165.4268 -64.6875 L-164.458 -64.6875 L-164.458 -55.5625 Z" /><ns0:path style="fill:rgb(0,5,255); stroke:none;" d="M-35.6184 -10.8438 L-36.7591 -10.8438 L-41.4466 -18.0312 L-41.4934 -18.0312 Q-41.3997 -16.7656 -41.3997 -15.7188 L-41.3997 -10.8438 L-42.3216 -10.8438 L-42.3216 -19.4062 L-41.1966 -19.4062 L-36.5247 -12.25 L-36.4778 -12.25 Q-36.4778 -12.4062 -36.5247 -13.2656 Q-36.5716 -14.125 -36.5559 -14.5 L-36.5559 -19.4062 L-35.6184 -19.4062 L-35.6184 -10.8438 Z" /><ns0:path style="fill:none; stroke:black;" d="M-38.97 -44.5 L-38.97 -45 L-38.537 -45.25" /><ns0:path style="fill:none; stroke:black;" d="M-13.423 -0.25 L-12.99 0 L-12.557 -0.25" /><ns0:path style="fill:none; stroke:black;" d="M-13.423 -59.75 L-12.99 -60 L-12.557 -59.75" /><ns0:path style="fill:none; stroke:black;" d="M12.557 -14.75 L12.99 -15 L12.99 -15.5" /><ns0:path style="fill:rgb(0,5,255); stroke:none;" d="M16.3416 -40.8438 L15.2009 -40.8438 L10.5134 -48.0312 L10.4666 -48.0312 Q10.5603 -46.7656 10.5603 -45.7188 L10.5603 -40.8438 L9.6384 -40.8438 L9.6384 -49.4062 L10.7634 -49.4062 L15.4353 -42.25 L15.4822 -42.25 Q15.4822 -42.4062 15.4353 -43.2656 Q15.3884 -44.125 15.4041 -44.5 L15.4041 -49.4062 L16.3416 -49.4062 L16.3416 -40.8438 Z" /><ns0:path style="fill:none; stroke:black;" d="M-90.933 -15.5 L-90.933 -15 L-90.5 -14.75" /><ns0:path style="fill:none; stroke:black;" d="M-90.933 -44.5 L-90.933 -45 L-91.366 -45.25" /><ns0:path style="fill:none; stroke:black;" d="M-116.48 -0.25 L-116.913 0 L-117.346 -0.25" /><ns0:path style="fill:none; stroke:black;" d="M-116.48 -59.75 L-116.913 -60 L-117.346 -59.75" /><ns0:path style="fill:none; stroke:black;" d="M-142.46 -14.75 L-142.893 -15 L-142.893 -15.5" /><ns0:path style="fill:none; stroke:black;" d="M-142.46 -45.25 L-142.893 -45 L-142.893 -44.5" /><ns0:path style="fill:none; stroke:black;" d="M-64.52 30.25 L-64.953 30 L-65.386 30.25" /><ns0:path style="fill:none; stroke:black;" d="M-39.403 44.75 L-38.97 45 L-38.97 45.5" /><ns0:path style="fill:none; stroke:black;" d="M-90.5 44.75 L-90.933 45 L-90.933 45.5" /><ns0:path style="fill:none; stroke:black;" d="M-38.97 74.5 L-38.97 75 L-39.403 75.25" /><ns0:path style="fill:none; stroke:black;" d="M-90.933 74.5 L-90.933 75 L-90.5 75.25" /><ns0:path style="fill:none; stroke:black;" d="M-64.52 89.75 L-64.953 90 L-65.386 89.75" /></ns0:g></ns0:g></ns0:svg></ns0:svg></ns0:svg></ns0:svg></g></svg>