<svg xmlns:ns0="http://www.w3.org/2000/svg" xmlns="http://www.w3.org/2000/svg"><g transform="translate(0, 0)"><ns0:svg width="252" viewBox="0 0 252 225" style="fill-opacity:1; color-rendering:auto; color-interpolation:auto; text-rendering:auto; stroke:black; stroke-linecap:square; stroke-miterlimit:10; shape-rendering:auto; stroke-opacity:1; fill:black; stroke-dasharray:none; font-weight:normal; stroke-width:1; font-family:'Open Sans'; font-style:normal; stroke-linejoin:miter; font-size:12; stroke-dashoffset:0; image-rendering:auto;" height="225" class="cas-substance-image"><ns0:svg class="cas-substance-single-component"><ns0:rect y="0" x="0" width="252" stroke="none" ry="7" rx="7" height="225" fill="white" class="cas-substance-group" /><ns0:svg y="0" x="0" width="252" viewBox="0 0 252 225" style="fill:black;" height="225" class="cas-substance-single-component-image"><ns0:svg><ns0:g><ns0:g transform="translate(131,112)" style="text-rendering:geometricPrecision; color-rendering:optimizeQuality; color-interpolation:linearRGB; stroke-linecap:butt; image-rendering:optimizeQuality;"><ns0:line y2="-75" y1="-98.6484" x2="-64.953" x1="-64.953" style="fill:none;" /><ns0:line y2="60" y1="71.7586" x2="12.99" x1="33.3559" style="fill:none;" /><ns0:line y2="-60" y1="-71.8214" x2="-90.933" x1="-111.4076" style="fill:none;" /><ns0:line y2="73.9896" y1="98.5234" x2="-11.24" x1="-11.24" style="fill:none;" /><ns0:line y2="73.9896" y1="98.5234" x2="-14.74" x1="-14.74" style="fill:none;" /><ns0:line y2="-60" y1="-72.0649" x2="116.913" x1="96.0166" style="fill:none;" /><ns0:line y2="-105" y1="-81.4062" x2="90.933" x1="90.933" style="fill:none;" /><ns0:line y2="-60" y1="-72.0649" x2="64.953" x1="85.8494" style="fill:none;" /><ns0:line y2="-30" y1="-15" x2="-38.97" x1="-12.99" style="fill:none;" /><ns0:line y2="15" y1="-15" x2="-12.99" x1="-12.99" style="fill:none;" /><ns0:line y2="12.9793" y1="-12.9793" x2="-16.49" x1="-16.49" style="fill:none;" /><ns0:line y2="-30" y1="-15" x2="12.99" x1="-12.99" style="fill:none;" /><ns0:line y2="-15" y1="-30" x2="-64.953" x1="-38.97" style="fill:none;" /><ns0:line y2="-60" y1="-30" x2="-38.97" x1="-38.97" style="fill:none;" /><ns0:line y2="-57.9793" y1="-32.0207" x2="-42.47" x1="-42.47" style="fill:none;" /><ns0:line y2="30" y1="15" x2="-38.97" x1="-12.99" style="fill:none;" /><ns0:line y2="30" y1="15" x2="12.99" x1="-12.99" style="fill:none;" /><ns0:line y2="8.5234" y1="-15" x2="-64.953" x1="-64.953" style="fill:none;" /><ns0:line y2="-30" y1="-15" x2="-90.933" x1="-64.953" style="fill:none;" /><ns0:line y2="-32.0207" y1="-19.0415" x2="-87.433" x1="-64.9529" style="fill:none;" /><ns0:line y2="-75" y1="-60" x2="-64.953" x1="-38.97" style="fill:none;" /><ns0:line y2="18.1784" y1="30" x2="-59.4475" x1="-38.97" style="fill:none;" /><ns0:line y2="60" y1="30" x2="-38.97" x1="-38.97" style="fill:none;" /><ns0:line y2="57.9793" y1="32.0207" x2="-35.47" x1="-35.47" style="fill:none;" /><ns0:line y2="60" y1="30" x2="12.99" x1="12.99" style="fill:none;" /><ns0:line y2="57.9793" y1="32.0207" x2="9.49" x1="9.49" style="fill:none;" /><ns0:line y2="-60" y1="-30" x2="-90.933" x1="-90.933" style="fill:none;" /><ns0:line y2="-60" y1="-75" x2="-90.933" x1="-64.953" style="fill:none;" /><ns0:line y2="-57.9793" y1="-70.9585" x2="-87.433" x1="-64.9529" style="fill:none;" /><ns0:line y2="75" y1="60" x2="-12.99" x1="-38.97" style="fill:none;" /><ns0:line y2="75" y1="60" x2="-12.99" x1="12.99" style="fill:none;" /><ns0:line y2="-15" y1="-30" x2="38.97" x1="12.99" style="fill:none;" /><ns0:line y2="-19.0415" y1="-32.0207" x2="38.9701" x1="16.49" style="fill:none;" /><ns0:line y2="-60" y1="-30" x2="12.99" x1="12.99" style="fill:none;" /><ns0:line y2="-30" y1="-15" x2="64.953" x1="38.97" style="fill:none;" /><ns0:line y2="-75" y1="-60" x2="38.97" x1="12.99" style="fill:none;" /><ns0:line y2="-70.9585" y1="-57.9793" x2="38.9701" x1="16.49" style="fill:none;" /><ns0:line y2="-60" y1="-30" x2="64.953" x1="64.953" style="fill:none;" /><ns0:line y2="-57.9793" y1="-32.0207" x2="61.453" x1="61.453" style="fill:none;" /><ns0:line y2="-60" y1="-75" x2="64.953" x1="38.97" style="fill:none;" /></ns0:g><ns0:g transform="translate(131,112)" style="fill:rgb(230,0,0); text-rendering:geometricPrecision; color-rendering:optimizeQuality; image-rendering:optimizeQuality; font-family:'Open Sans'; stroke:rgb(230,0,0); color-interpolation:linearRGB;"><ns0:path style="stroke:none;" d="M-61.0155 -105.0703 Q-61.0155 -103.0078 -62.0546 -101.8281 Q-63.0936 -100.6484 -64.9374 -100.6484 Q-66.828 -100.6484 -67.8593 -101.8125 Q-68.8905 -102.9766 -68.8905 -105.0859 Q-68.8905 -107.1797 -67.8593 -108.3281 Q-66.828 -109.4766 -64.9374 -109.4766 Q-63.078 -109.4766 -62.0468 -108.3047 Q-61.0155 -107.1328 -61.0155 -105.0703 ZM-67.8436 -105.0703 Q-67.8436 -103.3359 -67.1014 -102.4297 Q-66.3593 -101.5234 -64.9374 -101.5234 Q-63.5155 -101.5234 -62.7889 -102.4219 Q-62.0624 -103.3203 -62.0624 -105.0703 Q-62.0624 -106.8047 -62.7889 -107.6953 Q-63.5155 -108.5859 -64.9374 -108.5859 Q-66.3593 -108.5859 -67.1014 -107.6875 Q-67.8436 -106.7891 -67.8436 -105.0703 Z" /><ns0:path style="stroke:none;" d="M-53.4999 -100.7734 L-54.4999 -100.7734 L-54.4999 -104.8047 L-59.0155 -104.8047 L-59.0155 -100.7734 L-60.0155 -100.7734 L-60.0155 -109.3359 L-59.0155 -109.3359 L-59.0155 -105.6953 L-54.4999 -105.6953 L-54.4999 -109.3359 L-53.4999 -109.3359 L-53.4999 -100.7734 Z" /><ns0:path style="stroke:none;" d="M42.9075 74.9297 Q42.9075 76.9922 41.8684 78.1719 Q40.8294 79.3516 38.9856 79.3516 Q37.095 79.3516 36.0638 78.1875 Q35.0325 77.0234 35.0325 74.9141 Q35.0325 72.8203 36.0638 71.6719 Q37.095 70.5234 38.9856 70.5234 Q40.845 70.5234 41.8763 71.6953 Q42.9075 72.8672 42.9075 74.9297 ZM36.0794 74.9297 Q36.0794 76.6641 36.8216 77.5703 Q37.5638 78.4766 38.9856 78.4766 Q40.4075 78.4766 41.1341 77.5781 Q41.8606 76.6797 41.8606 74.9297 Q41.8606 73.1953 41.1341 72.3047 Q40.4075 71.4141 38.9856 71.4141 Q37.5638 71.4141 36.8216 72.3125 Q36.0794 73.2109 36.0794 74.9297 Z" /><ns0:path style="stroke:none;" d="M50.4231 79.2266 L49.4231 79.2266 L49.4231 75.1953 L44.9075 75.1953 L44.9075 79.2266 L43.9075 79.2266 L43.9075 70.6641 L44.9075 70.6641 L44.9075 74.3047 L49.4231 74.3047 L49.4231 70.6641 L50.4231 70.6641 L50.4231 79.2266 Z" /><ns0:path style="stroke:none;" d="M-112.9755 -75.0703 Q-112.9755 -73.0078 -114.0146 -71.8281 Q-115.0536 -70.6484 -116.8974 -70.6484 Q-118.788 -70.6484 -119.8193 -71.8125 Q-120.8505 -72.9766 -120.8505 -75.0859 Q-120.8505 -77.1797 -119.8193 -78.3281 Q-118.788 -79.4766 -116.8974 -79.4766 Q-115.038 -79.4766 -114.0068 -78.3047 Q-112.9755 -77.1328 -112.9755 -75.0703 ZM-119.8036 -75.0703 Q-119.8036 -73.3359 -119.0614 -72.4297 Q-118.3193 -71.5234 -116.8974 -71.5234 Q-115.4755 -71.5234 -114.7489 -72.4219 Q-114.0224 -73.3203 -114.0224 -75.0703 Q-114.0224 -76.8047 -114.7489 -77.6953 Q-115.4755 -78.5859 -116.8974 -78.5859 Q-118.3193 -78.5859 -119.0614 -77.6875 Q-119.8036 -76.7891 -119.8036 -75.0703 Z" /><ns0:path style="stroke:none;" d="M-121.8505 -70.7734 L-122.8505 -70.7734 L-122.8505 -74.8047 L-127.3661 -74.8047 L-127.3661 -70.7734 L-128.3661 -70.7734 L-128.3661 -79.3359 L-127.3661 -79.3359 L-127.3661 -75.6953 L-122.8505 -75.6953 L-122.8505 -79.3359 L-121.8505 -79.3359 L-121.8505 -70.7734 Z" /><ns0:path style="stroke:none;" d="M-9.0525 104.9297 Q-9.0525 106.9922 -10.0916 108.1719 Q-11.1306 109.3516 -12.9744 109.3516 Q-14.865 109.3516 -15.8962 108.1875 Q-16.9275 107.0234 -16.9275 104.9141 Q-16.9275 102.8203 -15.8962 101.6719 Q-14.865 100.5234 -12.9744 100.5234 Q-11.115 100.5234 -10.0837 101.6953 Q-9.0525 102.8672 -9.0525 104.9297 ZM-15.8806 104.9297 Q-15.8806 106.6641 -15.1384 107.5703 Q-14.3962 108.4766 -12.9744 108.4766 Q-11.5525 108.4766 -10.8259 107.5781 Q-10.0994 106.6797 -10.0994 104.9297 Q-10.0994 103.1953 -10.8259 102.3047 Q-11.5525 101.4141 -12.9744 101.4141 Q-14.3962 101.4141 -15.1384 102.3125 Q-15.8806 103.2109 -15.8806 104.9297 Z" /><ns0:path style="fill:rgb(0,5,255); stroke:none;" d="M94.2846 -70.8438 L93.1439 -70.8438 L88.4564 -78.0312 L88.4096 -78.0312 Q88.5033 -76.7656 88.5033 -75.7188 L88.5033 -70.8438 L87.5814 -70.8438 L87.5814 -79.4062 L88.7064 -79.4062 L93.3783 -72.25 L93.4252 -72.25 Q93.4252 -72.4062 93.3783 -73.2656 Q93.3314 -74.125 93.3471 -74.5 L93.3471 -79.4062 L94.2846 -79.4062 L94.2846 -70.8438 Z" /></ns0:g><ns0:g transform="translate(131,112)" style="stroke-linecap:butt; text-rendering:geometricPrecision; color-rendering:optimizeQuality; image-rendering:optimizeQuality; font-family:'Open Sans'; color-interpolation:linearRGB; stroke-miterlimit:5;"><ns0:path style="fill:none;" d="M-12.99 -14.5 L-12.99 -15 L-13.423 -15.25" /><ns0:path style="fill:none;" d="M-38.97 -30.5 L-38.97 -30 L-38.537 -29.75" /><ns0:path style="fill:none;" d="M-12.99 14.5 L-12.99 15 L-13.423 15.25" /><ns0:path style="fill:none;" d="M-65.386 -15.25 L-64.953 -15 L-64.52 -15.25" /><ns0:path style="fill:none;" d="M-38.97 -59.5 L-38.97 -60 L-39.403 -60.25" /><ns0:path style="fill:none;" d="M-38.97 30.5 L-38.97 30 L-38.537 29.75" /><ns0:path style="fill:none;" d="M12.557 29.75 L12.99 30 L12.99 30.5" /><ns0:path style="fill:rgb(230,0,0); stroke:none;" d="M-61.0155 14.9297 Q-61.0155 16.9922 -62.0546 18.1719 Q-63.0936 19.3516 -64.9374 19.3516 Q-66.828 19.3516 -67.8593 18.1875 Q-68.8905 17.0234 -68.8905 14.9141 Q-68.8905 12.8203 -67.8593 11.6719 Q-66.828 10.5234 -64.9374 10.5234 Q-63.078 10.5234 -62.0468 11.6953 Q-61.0155 12.8672 -61.0155 14.9297 ZM-67.8436 14.9297 Q-67.8436 16.6641 -67.1014 17.5703 Q-66.3593 18.4766 -64.9374 18.4766 Q-63.5155 18.4766 -62.7889 17.5781 Q-62.0624 16.6797 -62.0624 14.9297 Q-62.0624 13.1953 -62.7889 12.3047 Q-63.5155 11.4141 -64.9374 11.4141 Q-66.3593 11.4141 -67.1014 12.3125 Q-67.8436 13.2109 -67.8436 14.9297 Z" /><ns0:path style="fill:none;" d="M-90.5 -29.75 L-90.933 -30 L-90.933 -30.5" /><ns0:path style="fill:none;" d="M-65.386 -74.75 L-64.953 -75 L-64.953 -75.5" /><ns0:path style="fill:none;" d="M-38.97 59.5 L-38.97 60 L-38.537 60.25" /><ns0:path style="fill:none;" d="M12.99 59.5 L12.99 60 L13.423 60.25" /><ns0:path style="fill:none;" d="M-90.5 -60.25 L-90.933 -60 L-90.933 -59.5" /><ns0:path style="fill:none;" d="M-13.423 74.75 L-12.99 75 L-12.557 74.75" /><ns0:path style="fill:none;" d="M13.423 -29.75 L12.99 -30 L12.557 -29.75" /><ns0:path style="fill:none;" d="M38.537 -15.25 L38.97 -15 L39.403 -15.25" /><ns0:path style="fill:none;" d="M12.99 -59.5 L12.99 -60 L13.423 -60.25" /><ns0:path style="fill:none;" d="M64.52 -29.75 L64.953 -30 L64.953 -30.5" /><ns0:path style="fill:none;" d="M38.537 -74.75 L38.97 -75 L39.403 -74.75" /><ns0:path style="fill:none;" d="M64.953 -59.5 L64.953 -60 L65.386 -60.25" /></ns0:g></ns0:g></ns0:svg></ns0:svg></ns0:svg></ns0:svg></g><g transform="translate(252, 0)"><ns0:svg width="100" viewBox="0 0 100 75" style="fill-opacity:1; color-rendering:auto; color-interpolation:auto; text-rendering:auto; stroke:black; stroke-linecap:square; stroke-miterlimit:10; shape-rendering:auto; stroke-opacity:1; fill:black; stroke-dasharray:none; font-weight:normal; stroke-width:1; font-family:'Open Sans'; font-style:normal; stroke-linejoin:miter; font-size:12; stroke-dashoffset:0; image-rendering:auto;" height="75" class="cas-substance-image"><ns0:svg class="cas-substance-single-component"><ns0:rect y="0" x="0" width="100" stroke="none" ry="7" rx="7" height="75" fill="white" class="cas-substance-group" /><ns0:svg y="0" x="13" width="74" viewBox="0 0 74 75" style="fill:black;" height="75" class="cas-substance-single-component-image"><ns0:svg><ns0:g><ns0:g transform="translate(37,37)" style="text-rendering:geometricPrecision; color-rendering:optimizeQuality; color-interpolation:linearRGB; stroke-linecap:butt; image-rendering:optimizeQuality;"><ns0:line y2="-1.75" y1="-1.75" x2="-24.0625" x1="-4.6433" style="fill:none;" /><ns0:line y2="1.75" y1="1.75" x2="-24.0625" x1="-4.6433" style="fill:none;" /><ns0:line y2="1.75" y1="1.75" x2="24.0625" x1="4.561" style="fill:none;" /><ns0:line y2="-1.75" y1="-1.75" x2="24.0625" x1="4.561" style="fill:none;" /><ns0:line y2="23.5234" y1="6.3438" x2="0" x1="0" style="fill:none;" /><ns0:line y2="-23.6484" y1="-6.4688" x2="0" x1="0" style="fill:none;" /></ns0:g><ns0:g transform="translate(37,37)" style="fill:rgb(148,108,0); text-rendering:geometricPrecision; color-rendering:optimizeQuality; image-rendering:optimizeQuality; font-family:'Open Sans'; stroke:rgb(148,108,0); color-interpolation:linearRGB;"><ns0:path style="stroke:none;" d="M2.6953 1.9375 Q2.6953 3.0625 1.875 3.7031 Q1.0547 4.3438 -0.3516 4.3438 Q-1.8828 4.3438 -2.6953 3.9375 L-2.6953 2.9844 Q-2.1641 3.2031 -1.5469 3.3359 Q-0.9297 3.4688 -0.3203 3.4688 Q0.6797 3.4688 1.1797 3.0859 Q1.6797 2.7031 1.6797 2.0312 Q1.6797 1.5938 1.5 1.3047 Q1.3203 1.0156 0.9062 0.7734 Q0.4922 0.5312 -0.3672 0.2344 Q-1.5547 -0.1875 -2.0703 -0.7734 Q-2.5859 -1.3594 -2.5859 -2.3125 Q-2.5859 -3.2969 -1.8438 -3.8828 Q-1.1016 -4.4688 0.1328 -4.4688 Q1.3984 -4.4688 2.4766 -4 L2.1641 -3.1406 Q1.1016 -3.5781 0.1016 -3.5781 Q-0.6953 -3.5781 -1.1406 -3.2422 Q-1.5859 -2.9062 -1.5859 -2.2969 Q-1.5859 -1.8594 -1.4219 -1.5703 Q-1.2578 -1.2812 -0.8672 -1.0469 Q-0.4766 -0.8125 0.3359 -0.5156 Q1.6797 -0.0469 2.1875 0.5078 Q2.6953 1.0625 2.6953 1.9375 Z" /><ns0:path style="fill:rgb(230,0,0); stroke:none;" d="M-26.0625 -0.0703 Q-26.0625 1.9922 -27.1016 3.1719 Q-28.1406 4.3516 -29.9844 4.3516 Q-31.875 4.3516 -32.9062 3.1875 Q-33.9375 2.0234 -33.9375 -0.0859 Q-33.9375 -2.1797 -32.9062 -3.3281 Q-31.875 -4.4766 -29.9844 -4.4766 Q-28.125 -4.4766 -27.0938 -3.3047 Q-26.0625 -2.1328 -26.0625 -0.0703 ZM-32.8906 -0.0703 Q-32.8906 1.6641 -32.1484 2.5703 Q-31.4062 3.4766 -29.9844 3.4766 Q-28.5625 3.4766 -27.8359 2.5781 Q-27.1094 1.6797 -27.1094 -0.0703 Q-27.1094 -1.8047 -27.8359 -2.6953 Q-28.5625 -3.5859 -29.9844 -3.5859 Q-31.4062 -3.5859 -32.1484 -2.6875 Q-32.8906 -1.7891 -32.8906 -0.0703 Z" /><ns0:path style="fill:rgb(230,0,0); stroke:none;" d="M33.9375 -0.0703 Q33.9375 1.9922 32.8984 3.1719 Q31.8594 4.3516 30.0156 4.3516 Q28.125 4.3516 27.0938 3.1875 Q26.0625 2.0234 26.0625 -0.0859 Q26.0625 -2.1797 27.0938 -3.3281 Q28.125 -4.4766 30.0156 -4.4766 Q31.875 -4.4766 32.9062 -3.3047 Q33.9375 -2.1328 33.9375 -0.0703 ZM27.1094 -0.0703 Q27.1094 1.6641 27.8516 2.5703 Q28.5938 3.4766 30.0156 3.4766 Q31.4375 3.4766 32.1641 2.5781 Q32.8906 1.6797 32.8906 -0.0703 Q32.8906 -1.8047 32.1641 -2.6953 Q31.4375 -3.5859 30.0156 -3.5859 Q28.5938 -3.5859 27.8516 -2.6875 Q27.1094 -1.7891 27.1094 -0.0703 Z" /><ns0:path style="fill:rgb(230,0,0); stroke:none;" d="M3.9375 29.9297 Q3.9375 31.9922 2.8984 33.1719 Q1.8594 34.3516 0.0156 34.3516 Q-1.875 34.3516 -2.9062 33.1875 Q-3.9375 32.0234 -3.9375 29.9141 Q-3.9375 27.8203 -2.9062 26.6719 Q-1.875 25.5234 0.0156 25.5234 Q1.875 25.5234 2.9062 26.6953 Q3.9375 27.8672 3.9375 29.9297 ZM-2.8906 29.9297 Q-2.8906 31.6641 -2.1484 32.5703 Q-1.4062 33.4766 0.0156 33.4766 Q1.4375 33.4766 2.1641 32.5781 Q2.8906 31.6797 2.8906 29.9297 Q2.8906 28.1953 2.1641 27.3047 Q1.4375 26.4141 0.0156 26.4141 Q-1.4062 26.4141 -2.1484 27.3125 Q-2.8906 28.2109 -2.8906 29.9297 Z" /><ns0:path style="fill:rgb(230,0,0); stroke:none;" d="M11.4531 34.2266 L10.4531 34.2266 L10.4531 30.1953 L5.9375 30.1953 L5.9375 34.2266 L4.9375 34.2266 L4.9375 25.6641 L5.9375 25.6641 L5.9375 29.3047 L10.4531 29.3047 L10.4531 25.6641 L11.4531 25.6641 L11.4531 34.2266 Z" /><ns0:path style="fill:rgb(230,0,0); stroke:none;" d="M3.9375 -30.0703 Q3.9375 -28.0078 2.8984 -26.8281 Q1.8594 -25.6484 0.0156 -25.6484 Q-1.875 -25.6484 -2.9062 -26.8125 Q-3.9375 -27.9766 -3.9375 -30.0859 Q-3.9375 -32.1797 -2.9062 -33.3281 Q-1.875 -34.4766 0.0156 -34.4766 Q1.875 -34.4766 2.9062 -33.3047 Q3.9375 -32.1328 3.9375 -30.0703 ZM-2.8906 -30.0703 Q-2.8906 -28.3359 -2.1484 -27.4297 Q-1.4062 -26.5234 0.0156 -26.5234 Q1.4375 -26.5234 2.1641 -27.4219 Q2.8906 -28.3203 2.8906 -30.0703 Q2.8906 -31.8047 2.1641 -32.6953 Q1.4375 -33.5859 0.0156 -33.5859 Q-1.4062 -33.5859 -2.1484 -32.6875 Q-2.8906 -31.7891 -2.8906 -30.0703 Z" /><ns0:path style="fill:rgb(230,0,0); stroke:none;" d="M11.4531 -25.7734 L10.4531 -25.7734 L10.4531 -29.8047 L5.9375 -29.8047 L5.9375 -25.7734 L4.9375 -25.7734 L4.9375 -34.3359 L5.9375 -34.3359 L5.9375 -30.6953 L10.4531 -30.6953 L10.4531 -34.3359 L11.4531 -34.3359 L11.4531 -25.7734 Z" /></ns0:g></ns0:g></ns0:svg></ns0:svg></ns0:svg></ns0:svg></g></svg>