<svg width="235" viewBox="0 0 235 133" style="fill-opacity:1; color-rendering:auto; color-interpolation:auto; text-rendering:auto; stroke:black; stroke-linecap:square; stroke-miterlimit:10; shape-rendering:auto; stroke-opacity:1; fill:black; stroke-dasharray:none; font-weight:normal; stroke-width:1; font-family:'Open Sans'; font-style:normal; stroke-linejoin:miter; font-size:12; stroke-dashoffset:0; image-rendering:auto;" height="133" class="cas-substance-image" xmlns:xlink="http://www.w3.org/1999/xlink" xmlns="http://www.w3.org/2000/svg"><svg class="cas-substance-single-component"><rect y="0" x="0" width="235" stroke="none" ry="7" rx="7" height="133" fill="white" class="cas-substance-group"/><svg y="0" x="0" width="235" viewBox="0 0 235 133" style="fill:black;" height="133" class="cas-substance-single-component-image"><svg><g><g transform="translate(118,64)" style="text-rendering:geometricPrecision; color-rendering:optimizeQuality; color-interpolation:linearRGB; stroke-linecap:butt; image-rendering:optimizeQuality;"><line y2="35.163" y1="35.163" x2="-14.7445" x1="9.318" style="fill:none;"/><line y2="56.2904" y1="35.163" x2="19.4955" x1="7.2973" style="fill:none;"/><line y2="54.5404" y1="33.413" x2="22.5266" x1="10.3284" style="fill:none;"/><line y2="9.183" y1="35.163" x2="24.318" x1="9.318" style="fill:none;"/><line y2="-52.935" y1="-28.662" x2="-114.318" x1="-96.684" style="fill:none;"/><line y2="-1.257" y1="-28.662" x2="-108.885" x1="-96.684" style="fill:none;"/><line y2="-31.8" y1="-28.662" x2="-66.849" x1="-96.684" style="fill:none;"/><line y2="-31.8" y1="-61.143" x2="-66.849" x1="-73.086" style="fill:none;"/><line y2="-1.1315" y1="13.4972" x2="-64.7919" x1="-84.9257" style="fill:none;"/><line y2="-3.9632" y1="10.6657" x2="-66.849" x1="-86.983" style="fill:none;"/><line y2="-42.78" y1="-16.8" x2="114.318" x1="99.318" style="fill:none;"/><line y2="-16.8" y1="-16.8" x2="69.318" x1="99.318" style="fill:none;"/><line y2="9.183" y1="-16.8" x2="24.318" x1="9.318" style="fill:none;"/><line y2="5.6831" y1="-16.7998" x2="26.3389" x1="13.3595" style="fill:none;"/><line y2="-36.8917" y1="-16.8" x2="20.9183" x1="9.318" style="fill:none;"/><line y2="-16.8" y1="-16.8" x2="-20.682" x1="9.318" style="fill:none;"/><line y2="9.183" y1="9.183" x2="54.318" x1="24.318" style="fill:none;"/><line y2="-42.78" y1="-42.78" x2="54.318" x1="29.6696" style="fill:none;"/><line y2="-39.28" y1="-39.28" x2="52.2973" x1="29.6696" style="fill:none;"/><line y2="-16.8" y1="9.183" x2="69.318" x1="54.318" style="fill:none;"/><line y2="-16.7998" y1="5.6831" x2="65.2766" x1="52.2971" style="fill:none;"/><line y2="-16.8" y1="-42.78" x2="69.318" x1="54.318" style="fill:none;"/><line y2="-35.2957" y1="-16.8" x2="-34.1206" x1="-20.682" style="fill:none;"/><line y2="1.4487" y1="-16.8" x2="-33.9394" x1="-20.682" style="fill:none;"/><line y2="-0.6085" y1="-17.2223" x2="-36.771" x1="-24.7013" style="fill:none;"/><line y2="-31.8" y1="-39.3631" x2="-66.849" x1="-43.5697" style="fill:none;"/><line y2="-1.8" y1="5.7656" x2="-66.849" x1="-43.5696" style="fill:none;"/><line y2="-1.8" y1="-31.8" x2="-66.849" x1="-66.849" style="fill:none;"/><path style="fill:none; stroke-miterlimit:5;" d="M8.818 35.163 L9.318 35.163 L9.568 34.73"/></g><g transform="translate(118,64)" style="stroke-linecap:butt; fill:rgb(230,0,0); text-rendering:geometricPrecision; color-rendering:optimizeQuality; image-rendering:optimizeQuality; font-family:'Open Sans'; stroke:rgb(230,0,0); color-interpolation:linearRGB; stroke-miterlimit:5;"><path style="stroke:none;" d="M-16.7445 35.0927 Q-16.7445 37.1552 -17.7836 38.3349 Q-18.8226 39.5146 -20.6664 39.5146 Q-22.557 39.5146 -23.5883 38.3505 Q-24.6195 37.1864 -24.6195 35.0771 Q-24.6195 32.9833 -23.5883 31.8349 Q-22.557 30.6864 -20.6664 30.6864 Q-18.807 30.6864 -17.7758 31.8583 Q-16.7445 33.0302 -16.7445 35.0927 ZM-23.5726 35.0927 Q-23.5726 36.8271 -22.8304 37.7333 Q-22.0883 38.6396 -20.6664 38.6396 Q-19.2445 38.6396 -18.5179 37.7411 Q-17.7914 36.8427 -17.7914 35.0927 Q-17.7914 33.3583 -18.5179 32.4677 Q-19.2445 31.5771 -20.6664 31.5771 Q-22.0883 31.5771 -22.8304 32.4755 Q-23.5726 33.3739 -23.5726 35.0927 Z"/><path style="stroke:none;" d="M-25.6195 39.3896 L-26.6195 39.3896 L-26.6195 35.3583 L-31.1351 35.3583 L-31.1351 39.3896 L-32.1351 39.3896 L-32.1351 30.8271 L-31.1351 30.8271 L-31.1351 34.4677 L-26.6195 34.4677 L-26.6195 30.8271 L-25.6195 30.8271 L-25.6195 39.3896 Z"/><path style="stroke:none;" d="M28.2555 61.0727 Q28.2555 63.1352 27.2164 64.3149 Q26.1774 65.4946 24.3336 65.4946 Q22.443 65.4946 21.4117 64.3305 Q20.3805 63.1664 20.3805 61.0571 Q20.3805 58.9633 21.4117 57.8149 Q22.443 56.6664 24.3336 56.6664 Q26.193 56.6664 27.2242 57.8383 Q28.2555 59.0102 28.2555 61.0727 ZM21.4274 61.0727 Q21.4274 62.8071 22.1696 63.7133 Q22.9117 64.6196 24.3336 64.6196 Q25.7555 64.6196 26.4821 63.7211 Q27.2086 62.8227 27.2086 61.0727 Q27.2086 59.3383 26.4821 58.4477 Q25.7555 57.5571 24.3336 57.5571 Q22.9117 57.5571 22.1696 58.4555 Q21.4274 59.3539 21.4274 61.0727 Z"/><path style="stroke:none;" d="M-87.1815 15.7637 Q-87.1815 17.8262 -88.2206 19.0059 Q-89.2596 20.1856 -91.1034 20.1856 Q-92.994 20.1856 -94.0253 19.0215 Q-95.0565 17.8574 -95.0565 15.7481 Q-95.0565 13.6543 -94.0253 12.5059 Q-92.994 11.3574 -91.1034 11.3574 Q-89.244 11.3574 -88.2128 12.5293 Q-87.1815 13.7012 -87.1815 15.7637 ZM-94.0096 15.7637 Q-94.0096 17.4981 -93.2674 18.4043 Q-92.5253 19.3106 -91.1034 19.3106 Q-89.6815 19.3106 -88.9549 18.4121 Q-88.2284 17.5137 -88.2284 15.7637 Q-88.2284 14.0293 -88.9549 13.1387 Q-89.6815 12.2481 -91.1034 12.2481 Q-92.5253 12.2481 -93.2674 13.1465 Q-94.0096 14.0449 -94.0096 15.7637 Z"/><path style="fill:none; stroke:black;" d="M99.568 -17.233 L99.318 -16.8 L98.818 -16.8"/><path style="fill:none; stroke:black;" d="M9.568 -16.367 L9.318 -16.8 L9.568 -17.233"/><path style="fill:none; stroke:black;" d="M24.068 8.75 L24.318 9.183 L24.068 9.616"/><path style="fill:rgb(0,5,255); stroke:none;" d="M27.6696 -38.6237 L26.5289 -38.6237 L21.8414 -45.8112 L21.7946 -45.8112 Q21.8883 -44.5456 21.8883 -43.4987 L21.8883 -38.6237 L20.9664 -38.6237 L20.9664 -47.1862 L22.0914 -47.1862 L26.7633 -40.03 L26.8102 -40.03 Q26.8102 -40.1862 26.7633 -41.0456 Q26.7164 -41.905 26.7321 -42.28 L26.7321 -47.1862 L27.6696 -47.1862 L27.6696 -38.6237 Z"/><path style="fill:none; stroke:black;" d="M53.818 9.183 L54.318 9.183 L54.568 8.75"/><path style="fill:none; stroke:black;" d="M53.818 -42.78 L54.318 -42.78 L54.568 -42.347"/><path style="fill:none; stroke:black;" d="M69.068 -16.367 L69.318 -16.8 L69.818 -16.8"/><path style="fill:none; stroke:black;" d="M-20.9759 -16.3955 L-20.682 -16.8 L-20.182 -16.8"/><path style="fill:rgb(0,5,255); stroke:none;" d="M-34.9644 -36.9137 L-36.1051 -36.9137 L-40.7926 -44.1012 L-40.8394 -44.1012 Q-40.7457 -42.8356 -40.7457 -41.7887 L-40.7457 -36.9137 L-41.6676 -36.9137 L-41.6676 -45.4762 L-40.5426 -45.4762 L-35.8707 -38.32 L-35.8238 -38.32 Q-35.8238 -38.4762 -35.8707 -39.3356 Q-35.9176 -40.195 -35.9019 -40.57 L-35.9019 -45.4762 L-34.9644 -45.4762 L-34.9644 -36.9137 Z"/><path style="fill:rgb(0,5,255); stroke:none;" d="M-35.0582 -46.4762 L-36.0582 -46.4762 L-36.0582 -50.5075 L-40.5738 -50.5075 L-40.5738 -46.4762 L-41.5738 -46.4762 L-41.5738 -55.0387 L-40.5738 -55.0387 L-40.5738 -51.3981 L-36.0582 -51.3981 L-36.0582 -55.0387 L-35.0582 -55.0387 L-35.0582 -46.4762 Z"/><path style="fill:rgb(0,5,255); stroke:none;" d="M-34.9644 11.6292 L-36.1051 11.6292 L-40.7926 4.4417 L-40.8394 4.4417 Q-40.7457 5.7074 -40.7457 6.7542 L-40.7457 11.6292 L-41.6676 11.6292 L-41.6676 3.0667 L-40.5426 3.0667 L-35.8707 10.223 L-35.8238 10.223 Q-35.8238 10.0667 -35.8707 9.2074 Q-35.9176 8.348 -35.9019 7.973 L-35.9019 3.0667 L-34.9644 3.0667 L-34.9644 11.6292 Z"/><path style="fill:none; stroke:black;" d="M-66.3735 -1.6455 L-66.849 -1.8 L-66.849 -2.3"/></g></g></svg></svg></svg></svg>