<svg xmlns:ns0="http://www.w3.org/2000/svg" xmlns="http://www.w3.org/2000/svg"><g transform="translate(0, 0)"><ns0:svg width="171" viewBox="0 0 171 141" style="fill-opacity:1; color-rendering:auto; color-interpolation:auto; text-rendering:auto; stroke:black; stroke-linecap:square; stroke-miterlimit:10; shape-rendering:auto; stroke-opacity:1; fill:black; stroke-dasharray:none; font-weight:normal; stroke-width:1; font-family:'Open Sans'; font-style:normal; stroke-linejoin:miter; font-size:12; stroke-dashoffset:0; image-rendering:auto;" height="141" class="cas-substance-image"><ns0:svg class="cas-substance-single-component"><ns0:rect y="0" x="0" width="171" stroke="none" ry="7" rx="7" height="141" fill="white" class="cas-substance-group" /><ns0:svg y="0" x="0" width="171" viewBox="0 0 171 141" style="fill:black;" height="141" class="cas-substance-single-component-image"><ns0:svg><ns0:g><ns0:g transform="translate(85,72)" style="text-rendering:geometricPrecision; color-rendering:optimizeQuality; color-interpolation:linearRGB; stroke-linecap:butt; image-rendering:optimizeQuality;"><ns0:line y2="-38.97" y1="-12.99" x2="7.5" x1="-7.5" style="fill:none;" /><ns0:line y2="7.2624" y1="-12.99" x2="4.1931" x1="-7.5" style="fill:none;" /><ns0:line y2="-12.99" y1="-12.99" x2="-31.5625" x1="-7.5" style="fill:none;" /><ns0:line y2="-38.97" y1="-38.97" x2="31.5625" x1="7.5" style="fill:none;" /><ns0:line y2="-60.192" y1="-38.97" x2="-2.7308" x1="9.5207" style="fill:none;" /><ns0:line y2="-58.4421" y1="-37.22" x2="-5.7619" x1="6.4896" style="fill:none;" /><ns0:line y2="38.97" y1="18.638" x2="-7.5" x1="4.239" style="fill:none;" /><ns0:line y2="-38.97" y1="-18.7176" x2="-52.5" x1="-40.8069" style="fill:none;" /><ns0:line y2="-64.953" y1="-44.6919" x2="52.5" x1="40.8033" style="fill:none;" /><ns0:line y2="64.953" y1="38.97" x2="7.5" x1="-7.5" style="fill:none;" /><ns0:line y2="-38.97" y1="-38.97" x2="-82.5" x1="-52.5" style="fill:none;" /><ns0:line y2="-64.953" y1="-64.953" x2="82.5" x1="52.5" style="fill:none;" /><ns0:path style="fill:none; stroke-miterlimit:5;" d="M7.25 -38.537 L7.5 -38.97 L8 -38.97" /></ns0:g><ns0:g transform="translate(85,72)" style="stroke-linecap:butt; fill:rgb(230,0,0); text-rendering:geometricPrecision; color-rendering:optimizeQuality; image-rendering:optimizeQuality; font-family:'Open Sans'; stroke:rgb(230,0,0); color-interpolation:linearRGB; stroke-miterlimit:5;"><ns0:path style="stroke:none;" d="M11.4375 12.9197 Q11.4375 14.9822 10.3984 16.1619 Q9.3594 17.3416 7.5156 17.3416 Q5.625 17.3416 4.5938 16.1775 Q3.5625 15.0134 3.5625 12.9041 Q3.5625 10.8103 4.5938 9.6619 Q5.625 8.5134 7.5156 8.5134 Q9.375 8.5134 10.4062 9.6853 Q11.4375 10.8572 11.4375 12.9197 ZM4.6094 12.9197 Q4.6094 14.6541 5.3516 15.5603 Q6.0938 16.4666 7.5156 16.4666 Q8.9375 16.4666 9.6641 15.5681 Q10.3906 14.6697 10.3906 12.9197 Q10.3906 11.1853 9.6641 10.2947 Q8.9375 9.4041 7.5156 9.4041 Q6.0938 9.4041 5.3516 10.3025 Q4.6094 11.2009 4.6094 12.9197 Z" /><ns0:path style="stroke:none;" d="M-33.5625 -13.0603 Q-33.5625 -10.9978 -34.6016 -9.8181 Q-35.6406 -8.6384 -37.4844 -8.6384 Q-39.375 -8.6384 -40.4062 -9.8025 Q-41.4375 -10.9666 -41.4375 -13.0759 Q-41.4375 -15.1697 -40.4062 -16.3181 Q-39.375 -17.4666 -37.4844 -17.4666 Q-35.625 -17.4666 -34.5938 -16.2947 Q-33.5625 -15.1228 -33.5625 -13.0603 ZM-40.3906 -13.0603 Q-40.3906 -11.3259 -39.6484 -10.4197 Q-38.9062 -9.5134 -37.4844 -9.5134 Q-36.0625 -9.5134 -35.3359 -10.4119 Q-34.6094 -11.3103 -34.6094 -13.0603 Q-34.6094 -14.7947 -35.3359 -15.6853 Q-36.0625 -16.5759 -37.4844 -16.5759 Q-38.9062 -16.5759 -39.6484 -15.6775 Q-40.3906 -14.7791 -40.3906 -13.0603 Z" /><ns0:path style="stroke:none;" d="M41.4375 -39.0403 Q41.4375 -36.9778 40.3984 -35.7981 Q39.3594 -34.6184 37.5156 -34.6184 Q35.625 -34.6184 34.5938 -35.7825 Q33.5625 -36.9466 33.5625 -39.0559 Q33.5625 -41.1497 34.5938 -42.2981 Q35.625 -43.4466 37.5156 -43.4466 Q39.375 -43.4466 40.4062 -42.2747 Q41.4375 -41.1028 41.4375 -39.0403 ZM34.6094 -39.0403 Q34.6094 -37.3059 35.3516 -36.3997 Q36.0938 -35.4934 37.5156 -35.4934 Q38.9375 -35.4934 39.6641 -36.3919 Q40.3906 -37.2903 40.3906 -39.0403 Q40.3906 -40.7747 39.6641 -41.6653 Q38.9375 -42.5559 37.5156 -42.5559 Q36.0938 -42.5559 35.3516 -41.6575 Q34.6094 -40.7591 34.6094 -39.0403 Z" /><ns0:path style="stroke:none;" d="M-3.5625 -65.0233 Q-3.5625 -62.9608 -4.6016 -61.7811 Q-5.6406 -60.6014 -7.4844 -60.6014 Q-9.375 -60.6014 -10.4062 -61.7655 Q-11.4375 -62.9296 -11.4375 -65.0389 Q-11.4375 -67.1327 -10.4062 -68.2811 Q-9.375 -69.4296 -7.4844 -69.4296 Q-5.625 -69.4296 -4.5938 -68.2577 Q-3.5625 -67.0858 -3.5625 -65.0233 ZM-10.3906 -65.0233 Q-10.3906 -63.2889 -9.6484 -62.3827 Q-8.9062 -61.4764 -7.4844 -61.4764 Q-6.0625 -61.4764 -5.3359 -62.3749 Q-4.6094 -63.2733 -4.6094 -65.0233 Q-4.6094 -66.7577 -5.3359 -67.6483 Q-6.0625 -68.5389 -7.4844 -68.5389 Q-8.9062 -68.5389 -9.6484 -67.6405 Q-10.3906 -66.7421 -10.3906 -65.0233 Z" /><ns0:path style="fill:none; stroke:black;" d="M-7.25 38.537 L-7.5 38.97 L-7.25 39.403" /><ns0:path style="fill:none; stroke:black;" d="M-52.25 -38.537 L-52.5 -38.97 L-53 -38.97" /><ns0:path style="fill:none; stroke:black;" d="M52.25 -64.52 L52.5 -64.953 L53 -64.953" /></ns0:g></ns0:g></ns0:svg></ns0:svg></ns0:svg></ns0:svg></g></svg>