<svg xmlns:ns0="http://www.w3.org/2000/svg" xmlns="http://www.w3.org/2000/svg"><g transform="translate(0, 0)"><ns0:svg width="211" viewBox="0 0 211 120" style="fill-opacity:1; color-rendering:auto; color-interpolation:auto; text-rendering:auto; stroke:black; stroke-linecap:square; stroke-miterlimit:10; shape-rendering:auto; stroke-opacity:1; fill:black; stroke-dasharray:none; font-weight:normal; stroke-width:1; font-family:'Open Sans'; font-style:normal; stroke-linejoin:miter; font-size:12; stroke-dashoffset:0; image-rendering:auto;" height="120" class="cas-substance-image"><ns0:svg class="cas-substance-single-component"><ns0:rect y="0" x="0" width="211" stroke="none" ry="7" rx="7" height="120" fill="white" class="cas-substance-group" /><ns0:svg y="0" x="0" width="211" viewBox="0 0 211 120" style="fill:black;" height="120" class="cas-substance-single-component-image"><ns0:svg><ns0:g><ns0:g transform="translate(105,60)" style="text-rendering:geometricPrecision; color-rendering:optimizeQuality; color-interpolation:linearRGB; stroke-linecap:butt; image-rendering:optimizeQuality;"><ns0:line y2="52.5" y1="37.5" x2="-12.99" x1="-38.97" style="fill:none;" /><ns0:line y2="48.4585" y1="35.4793" x2="-12.9899" x1="-35.47" style="fill:none;" /></ns0:g><ns0:g transform="translate(105,60)" style="stroke-linecap:butt; font-size:8.4px; fill:gray; text-rendering:geometricPrecision; image-rendering:optimizeQuality; color-rendering:optimizeQuality; font-family:'Open Sans'; font-style:italic; stroke:gray; color-interpolation:linearRGB;"><ns0:path style="stroke:none;" d="M-35.2093 54.8243 Q-35.2093 53.4961 -34.7405 52.3711 Q-34.2718 51.2461 -33.2405 50.168 L-32.6311 50.168 Q-33.5999 51.2305 -34.0843 52.4024 Q-34.5686 53.5743 -34.5686 54.8086 Q-34.5686 56.1368 -34.1311 57.1524 L-34.6468 57.1524 Q-35.2093 56.1211 -35.2093 54.8243 ZM-29.6961 55.8868 L-33.2117 55.8868 L-33.1023 55.3555 L-29.493 50.7774 L-32.0555 50.7774 L-31.9305 50.168 L-28.5711 50.168 L-28.6805 50.7149 L-32.2898 55.2774 L-29.5555 55.2774 L-29.6961 55.8868 ZM-26.751 52.5118 Q-26.751 53.8399 -27.2275 54.9727 Q-27.7041 56.1055 -28.7197 57.1524 L-29.3291 57.1524 Q-27.3916 54.9961 -27.3916 52.5118 Q-27.3916 51.1836 -27.8291 50.168 L-27.3135 50.168 Q-26.751 51.2305 -26.751 52.5118 Z" /><ns0:line y2="7.5" y1="37.5" x2="-38.97" x1="-38.97" style="fill:none; stroke:black;" /><ns0:line y2="37.5" y1="52.5" x2="12.99" x1="-12.99" style="fill:none; stroke:black;" /><ns0:line y2="-37.5" y1="-49.3112" x2="-12.99" x1="7.467" style="fill:none; stroke:black;" /><ns0:line y2="-37.5" y1="-49.3214" x2="-64.953" x1="-85.4276" style="fill:none; stroke:black;" /><ns0:line y2="7.5" y1="-4.3112" x2="64.953" x1="85.41" style="fill:none; stroke:black;" /><ns0:line y2="-7.5" y1="7.5" x2="-12.99" x1="-38.97" style="fill:none; stroke:black;" /><ns0:line y2="-9.5207" y1="3.4585" x2="-16.49" x1="-38.9701" style="fill:none; stroke:black;" /><ns0:line y2="-7.5" y1="7.5" x2="-64.953" x1="-38.97" style="fill:none; stroke:black;" /><ns0:line y2="-37.5" y1="-7.5" x2="-12.99" x1="-12.99" style="fill:none; stroke:black;" /><ns0:line y2="-37.5" y1="-7.5" x2="-64.953" x1="-64.953" style="fill:none; stroke:black;" /><ns0:line y2="-35.4793" y1="-9.5207" x2="-61.453" x1="-61.453" style="fill:none; stroke:black;" /><ns0:line y2="-52.5" y1="-37.5" x2="-38.97" x1="-12.99" style="fill:none; stroke:black;" /><ns0:line y2="-48.4585" y1="-35.4793" x2="-38.9701" x1="-16.49" style="fill:none; stroke:black;" /><ns0:line y2="-52.5" y1="-37.5" x2="-38.97" x1="-64.953" style="fill:none; stroke:black;" /><ns0:line y2="7.5" y1="37.5" x2="12.99" x1="12.99" style="fill:none; stroke:black;" /><ns0:line y2="9.5207" y1="35.4793" x2="16.49" x1="16.49" style="fill:none; stroke:black;" /><ns0:line y2="52.5" y1="37.5" x2="38.97" x1="12.99" style="fill:none; stroke:black;" /><ns0:line y2="-7.5" y1="7.5" x2="38.97" x1="12.99" style="fill:none; stroke:black;" /><ns0:line y2="37.5" y1="52.5" x2="64.953" x1="38.97" style="fill:none; stroke:black;" /><ns0:line y2="35.4791" y1="48.4585" x2="61.4531" x1="38.9702" style="fill:none; stroke:black;" /><ns0:line y2="7.5" y1="-7.5" x2="64.953" x1="38.97" style="fill:none; stroke:black;" /><ns0:line y2="9.5209" y1="-3.4585" x2="61.4531" x1="38.9702" style="fill:none; stroke:black;" /><ns0:line y2="7.5" y1="37.5" x2="64.953" x1="64.953" style="fill:none; stroke:black;" /><ns0:path style="fill:none; stroke-miterlimit:5; stroke:black;" d="M-38.537 37.75 L-38.97 37.5 L-38.97 37" /><ns0:path style="fill:none; stroke-miterlimit:5; stroke:black;" d="M-13.423 52.25 L-12.99 52.5 L-12.557 52.25" /></ns0:g><ns0:g transform="translate(105,60)" style="stroke-linecap:butt; fill:rgb(230,0,0); text-rendering:geometricPrecision; color-rendering:optimizeQuality; image-rendering:optimizeQuality; font-family:'Open Sans'; stroke:rgb(230,0,0); color-interpolation:linearRGB; stroke-miterlimit:5;"><ns0:path style="stroke:none;" d="M16.9275 -52.5703 Q16.9275 -50.5078 15.8884 -49.3281 Q14.8494 -48.1484 13.0056 -48.1484 Q11.115 -48.1484 10.0837 -49.3125 Q9.0525 -50.4766 9.0525 -52.5859 Q9.0525 -54.6797 10.0837 -55.8281 Q11.115 -56.9766 13.0056 -56.9766 Q14.865 -56.9766 15.8962 -55.8047 Q16.9275 -54.6328 16.9275 -52.5703 ZM10.0994 -52.5703 Q10.0994 -50.8359 10.8416 -49.9297 Q11.5837 -49.0234 13.0056 -49.0234 Q14.4275 -49.0234 15.1541 -49.9219 Q15.8806 -50.8203 15.8806 -52.5703 Q15.8806 -54.3047 15.1541 -55.1953 Q14.4275 -56.0859 13.0056 -56.0859 Q11.5837 -56.0859 10.8416 -55.1875 Q10.0994 -54.2891 10.0994 -52.5703 Z" /><ns0:path style="stroke:none;" d="M24.4431 -48.2734 L23.4431 -48.2734 L23.4431 -52.3047 L18.9275 -52.3047 L18.9275 -48.2734 L17.9275 -48.2734 L17.9275 -56.8359 L18.9275 -56.8359 L18.9275 -53.1953 L23.4431 -53.1953 L23.4431 -56.8359 L24.4431 -56.8359 L24.4431 -48.2734 Z" /><ns0:path style="stroke:none;" d="M-86.9955 -52.5703 Q-86.9955 -50.5078 -88.0346 -49.3281 Q-89.0736 -48.1484 -90.9174 -48.1484 Q-92.808 -48.1484 -93.8392 -49.3125 Q-94.8705 -50.4766 -94.8705 -52.5859 Q-94.8705 -54.6797 -93.8392 -55.8281 Q-92.808 -56.9766 -90.9174 -56.9766 Q-89.058 -56.9766 -88.0267 -55.8047 Q-86.9955 -54.6328 -86.9955 -52.5703 ZM-93.8236 -52.5703 Q-93.8236 -50.8359 -93.0814 -49.9297 Q-92.3392 -49.0234 -90.9174 -49.0234 Q-89.4955 -49.0234 -88.7689 -49.9219 Q-88.0424 -50.8203 -88.0424 -52.5703 Q-88.0424 -54.3047 -88.7689 -55.1953 Q-89.4955 -56.0859 -90.9174 -56.0859 Q-92.3392 -56.0859 -93.0814 -55.1875 Q-93.8236 -54.2891 -93.8236 -52.5703 Z" /><ns0:path style="stroke:none;" d="M-95.8705 -48.2734 L-96.8705 -48.2734 L-96.8705 -52.3047 L-101.3861 -52.3047 L-101.3861 -48.2734 L-102.3861 -48.2734 L-102.3861 -56.8359 L-101.3861 -56.8359 L-101.3861 -53.1953 L-96.8705 -53.1953 L-96.8705 -56.8359 L-95.8705 -56.8359 L-95.8705 -48.2734 Z" /><ns0:path style="stroke:none;" d="M94.8705 -7.5703 Q94.8705 -5.5078 93.8314 -4.3281 Q92.7924 -3.1484 90.9486 -3.1484 Q89.058 -3.1484 88.0267 -4.3125 Q86.9955 -5.4766 86.9955 -7.5859 Q86.9955 -9.6797 88.0267 -10.8281 Q89.058 -11.9766 90.9486 -11.9766 Q92.808 -11.9766 93.8392 -10.8047 Q94.8705 -9.6328 94.8705 -7.5703 ZM88.0424 -7.5703 Q88.0424 -5.8359 88.7846 -4.9297 Q89.5267 -4.0234 90.9486 -4.0234 Q92.3705 -4.0234 93.0971 -4.9219 Q93.8236 -5.8203 93.8236 -7.5703 Q93.8236 -9.3047 93.0971 -10.1953 Q92.3705 -11.0859 90.9486 -11.0859 Q89.5267 -11.0859 88.7846 -10.1875 Q88.0424 -9.2891 88.0424 -7.5703 Z" /><ns0:path style="stroke:none;" d="M102.3861 -3.2734 L101.3861 -3.2734 L101.3861 -7.3047 L96.8705 -7.3047 L96.8705 -3.2734 L95.8705 -3.2734 L95.8705 -11.8359 L96.8705 -11.8359 L96.8705 -8.1953 L101.3861 -8.1953 L101.3861 -11.8359 L102.3861 -11.8359 L102.3861 -3.2734 Z" /><ns0:path style="fill:none; stroke:black;" d="M-38.537 7.25 L-38.97 7.5 L-38.97 8" /><ns0:path style="fill:none; stroke:black;" d="M-13.423 -7.25 L-12.99 -7.5 L-12.99 -8" /><ns0:path style="fill:none; stroke:black;" d="M-64.52 -7.25 L-64.953 -7.5 L-64.953 -8" /><ns0:path style="fill:none; stroke:black;" d="M-13.423 -37.75 L-12.99 -37.5 L-12.557 -37.75" /><ns0:path style="fill:none; stroke:black;" d="M-64.953 -37 L-64.953 -37.5 L-65.386 -37.75" /><ns0:path style="fill:none; stroke:black;" d="M-38.537 -52.25 L-38.97 -52.5 L-39.403 -52.25" /><ns0:path style="fill:none; stroke:black;" d="M12.99 37 L12.99 37.5 L12.557 37.75" /><ns0:path style="fill:none; stroke:black;" d="M12.99 8 L12.99 7.5 L13.423 7.25" /><ns0:path style="fill:none; stroke:black;" d="M38.537 52.25 L38.97 52.5 L39.403 52.25" /><ns0:path style="fill:none; stroke:black;" d="M38.537 -7.25 L38.97 -7.5 L39.403 -7.25" /><ns0:path style="fill:none; stroke:black;" d="M64.52 37.75 L64.953 37.5 L64.953 37" /><ns0:path style="fill:none; stroke:black;" d="M64.52 7.25 L64.953 7.5 L65.386 7.25" /></ns0:g></ns0:g></ns0:svg></ns0:svg></ns0:svg></ns0:svg></g></svg>