<svg width="342" viewBox="0 0 342 126" style="fill-opacity:1; color-rendering:auto; color-interpolation:auto; text-rendering:auto; stroke:black; stroke-linecap:square; stroke-miterlimit:10; shape-rendering:auto; stroke-opacity:1; fill:black; stroke-dasharray:none; font-weight:normal; stroke-width:1; font-family:'Open Sans'; font-style:normal; stroke-linejoin:miter; font-size:12; stroke-dashoffset:0; image-rendering:auto;" height="126" class="cas-substance-image" xmlns:xlink="http://www.w3.org/1999/xlink" xmlns="http://www.w3.org/2000/svg"><svg class="cas-substance-single-component"><rect y="0" x="0" width="342" stroke="none" ry="7" rx="7" height="126" fill="white" class="cas-substance-group"/><svg y="0" x="0" width="342" viewBox="0 0 342 126" style="fill:black;" height="126" class="cas-substance-single-component-image"><svg><g><g transform="translate(171,63)" style="text-rendering:geometricPrecision; color-rendering:optimizeQuality; color-interpolation:linearRGB; stroke-linecap:butt; image-rendering:optimizeQuality;"><line y2="-32.3781" y1="-42.0649" x2="-56.0281" x1="-39.2506" style="fill:none;"/><line y2="-30" y1="-42.0652" x2="-8.184" x1="-29.0833" style="fill:none;"/><line y2="-8.8726" y1="-23.8314" x2="-49.9695" x1="-58.6062" style="fill:none;"/><line y2="-10.6226" y1="-25.5815" x2="-46.9384" x1="-55.5751" style="fill:none;"/><line y2="-51.2193" y1="-36.274" x2="-70.3776" x1="-61.7487" style="fill:none;"/><line y2="-49.4693" y1="-34.524" x2="-73.4087" x1="-64.7797" style="fill:none;"/><line y2="-15" y1="-27.4583" x2="-86.127" x1="-64.5492" style="fill:none;"/><line y2="21.5902" y1="23.5412" x2="158.3263" x1="139.7585" style="fill:none;"/><line y2="18.1093" y1="20.0604" x2="157.9606" x1="139.3927" style="fill:none;"/><line y2="42.8409" y1="27.6334" x2="123.1996" x1="129.9719" style="fill:none;"/><line y2="44.2647" y1="29.0572" x2="126.3969" x1="133.1692" style="fill:none;"/><line y2="-1.908" y1="16.3377" x2="116.601" x1="129.8579" style="fill:none;"/><line y2="-60" y1="-36.4766" x2="-164.07" x1="-164.07" style="fill:none;"/><line y2="-15" y1="-26.8214" x2="-138.09" x1="-158.5646" style="fill:none;"/><line y2="60" y1="36.3516" x2="-164.07" x1="-164.07" style="fill:none;"/><line y2="15" y1="26.774" x2="-138.09" x1="-158.4825" style="fill:none;"/><line y2="-36.9925" y1="-19.908" x2="23.9108" x1="39.294" style="fill:none;"/><line y2="6.072" y1="-19.908" x2="24.294" x1="39.294" style="fill:none;"/><line y2="2.572" y1="-19.9081" x2="22.2733" x1="35.2526" style="fill:none;"/><line y2="-23.043" y1="-19.908" x2="69.132" x1="39.294" style="fill:none;"/><line y2="-30" y1="-39.8954" x2="-8.184" x1="14.0423" style="fill:none;"/><line y2="-27.6244" y1="-36.698" x2="-4.9144" x1="15.4659" style="fill:none;"/><line y2="0.8102" y1="6.072" x2="-0.461" x1="24.294" style="fill:none;"/><line y2="-6.6228" y1="-30" x2="-5.7276" x1="-8.184" style="fill:none;"/><line y2="1.227" y1="-23.043" x2="86.766" x1="69.132" style="fill:none;"/><line y2="-2.4651" y1="-23.4655" x2="88.4097" x1="73.1513" style="fill:none;"/><line y2="-50.451" y1="-23.043" x2="81.333" x1="69.132" style="fill:none;"/><line y2="-1.908" y1="1.227" x2="116.601" x1="86.766" style="fill:none;"/><line y2="-53.586" y1="-50.451" x2="111.168" x1="81.333" style="fill:none;"/><line y2="-49.894" y1="-47.1813" x2="109.5241" x1="83.7084" style="fill:none;"/><line y2="-29.316" y1="-1.908" x2="128.802" x1="116.601" style="fill:none;"/><line y2="-28.8933" y1="-5.1775" x2="124.7827" x1="114.2253" style="fill:none;"/><line y2="-29.316" y1="-53.586" x2="128.802" x1="111.168" style="fill:none;"/><line y2="-30" y1="-15" x2="-112.107" x1="-86.127" style="fill:none;"/><line y2="-25.9585" y1="-12.9793" x2="-112.1071" x1="-89.627" style="fill:none;"/><line y2="15" y1="-15" x2="-86.127" x1="-86.127" style="fill:none;"/><line y2="-15" y1="-30" x2="-138.09" x1="-112.107" style="fill:none;"/><line y2="30" y1="15" x2="-112.107" x1="-86.127" style="fill:none;"/><line y2="25.9585" y1="12.9793" x2="-112.1071" x1="-89.627" style="fill:none;"/><line y2="15" y1="-15" x2="-138.09" x1="-138.09" style="fill:none;"/><line y2="12.9793" y1="-12.9793" x2="-134.59" x1="-134.59" style="fill:none;"/><line y2="15" y1="30" x2="-138.09" x1="-112.107" style="fill:none;"/></g><g transform="translate(171,63)" style="fill:rgb(0,5,255); text-rendering:geometricPrecision; color-rendering:optimizeQuality; image-rendering:optimizeQuality; font-family:'Open Sans'; stroke:rgb(0,5,255); color-interpolation:linearRGB;"><path style="stroke:none;" d="M-30.8154 -40.8438 L-31.9561 -40.8438 L-36.6436 -48.0312 L-36.6904 -48.0312 Q-36.5967 -46.7656 -36.5967 -45.7188 L-36.5967 -40.8438 L-37.5186 -40.8438 L-37.5186 -49.4062 L-36.3936 -49.4062 L-31.7217 -42.25 L-31.6748 -42.25 Q-31.6748 -42.4062 -31.7217 -43.2656 Q-31.7686 -44.125 -31.7529 -44.5 L-31.7529 -49.4062 L-30.8154 -49.4062 L-30.8154 -40.8438 Z"/><path style="stroke:none;" d="M-30.9092 -50.4062 L-31.9092 -50.4062 L-31.9092 -54.4375 L-36.4248 -54.4375 L-36.4248 -50.4062 L-37.4248 -50.4062 L-37.4248 -58.9688 L-36.4248 -58.9688 L-36.4248 -55.3281 L-31.9092 -55.3281 L-31.9092 -58.9688 L-30.9092 -58.9688 L-30.9092 -50.4062 Z"/><path style="fill:rgb(148,108,0); stroke:none;" d="M-57.4517 -28.0625 Q-57.4517 -26.9375 -58.272 -26.2969 Q-59.0923 -25.6562 -60.4986 -25.6562 Q-62.0298 -25.6562 -62.8423 -26.0625 L-62.8423 -27.0156 Q-62.3111 -26.7969 -61.6939 -26.6641 Q-61.0767 -26.5312 -60.4673 -26.5312 Q-59.4673 -26.5312 -58.9673 -26.9141 Q-58.4673 -27.2969 -58.4673 -27.9688 Q-58.4673 -28.4062 -58.647 -28.6953 Q-58.8267 -28.9844 -59.2407 -29.2266 Q-59.6548 -29.4688 -60.5142 -29.7656 Q-61.7017 -30.1875 -62.2173 -30.7734 Q-62.7329 -31.3594 -62.7329 -32.3125 Q-62.7329 -33.2969 -61.9907 -33.8828 Q-61.2486 -34.4688 -60.0142 -34.4688 Q-58.7486 -34.4688 -57.6704 -34 L-57.9829 -33.1406 Q-59.0454 -33.5781 -60.0454 -33.5781 Q-60.8423 -33.5781 -61.2876 -33.2422 Q-61.7329 -32.9062 -61.7329 -32.2969 Q-61.7329 -31.8594 -61.5689 -31.5703 Q-61.4048 -31.2812 -61.0142 -31.0469 Q-60.6236 -30.8125 -59.8111 -30.5156 Q-58.4673 -30.0469 -57.9595 -29.4922 Q-57.4517 -28.9375 -57.4517 -28.0625 Z"/><path style="fill:rgb(230,0,0); stroke:none;" d="M-41.2095 -4.0903 Q-41.2095 -2.0278 -42.2486 -0.8481 Q-43.2876 0.3316 -45.1314 0.3316 Q-47.022 0.3316 -48.0532 -0.8325 Q-49.0845 -1.9966 -49.0845 -4.1059 Q-49.0845 -6.1997 -48.0532 -7.3481 Q-47.022 -8.4966 -45.1314 -8.4966 Q-43.272 -8.4966 -42.2407 -7.3247 Q-41.2095 -6.1528 -41.2095 -4.0903 ZM-48.0376 -4.0903 Q-48.0376 -2.3559 -47.2954 -1.4497 Q-46.5532 -0.5434 -45.1314 -0.5434 Q-43.7095 -0.5434 -42.9829 -1.4419 Q-42.2564 -2.3403 -42.2564 -4.0903 Q-42.2564 -5.8247 -42.9829 -6.7153 Q-43.7095 -7.6059 -45.1314 -7.6059 Q-46.5532 -7.6059 -47.2954 -6.7075 Q-48.0376 -5.8091 -48.0376 -4.0903 Z"/><path style="fill:rgb(230,0,0); stroke:none;" d="M-71.2095 -56.0503 Q-71.2095 -53.9878 -72.2486 -52.8081 Q-73.2876 -51.6284 -75.1314 -51.6284 Q-77.022 -51.6284 -78.0533 -52.7925 Q-79.0845 -53.9566 -79.0845 -56.0659 Q-79.0845 -58.1597 -78.0533 -59.3081 Q-77.022 -60.4566 -75.1314 -60.4566 Q-73.272 -60.4566 -72.2408 -59.2847 Q-71.2095 -58.1128 -71.2095 -56.0503 ZM-78.0376 -56.0503 Q-78.0376 -54.3159 -77.2954 -53.4097 Q-76.5533 -52.5034 -75.1314 -52.5034 Q-73.7095 -52.5034 -72.9829 -53.4019 Q-72.2564 -54.3003 -72.2564 -56.0503 Q-72.2564 -57.7847 -72.9829 -58.6753 Q-73.7095 -59.5659 -75.1314 -59.5659 Q-76.5533 -59.5659 -77.2954 -58.6675 Q-78.0376 -57.7691 -78.0376 -56.0503 Z"/><path style="stroke:none;" d="M137.5866 26.5182 L136.4459 26.5182 L131.7584 19.3307 L131.7116 19.3307 Q131.8053 20.5964 131.8053 21.6432 L131.8053 26.5182 L130.8834 26.5182 L130.8834 17.9557 L132.0084 17.9557 L136.6803 25.112 L136.7272 25.112 Q136.7272 24.9557 136.6803 24.0964 Q136.6334 23.237 136.6491 22.862 L136.6491 17.9557 L137.5866 17.9557 L137.5866 26.5182 Z"/><path style="fill:rgb(230,0,0); stroke:none;" d="M168.0075 19.1567 Q168.0075 21.2192 166.9684 22.3989 Q165.9294 23.5786 164.0856 23.5786 Q162.195 23.5786 161.1637 22.4145 Q160.1325 21.2504 160.1325 19.1411 Q160.1325 17.0473 161.1637 15.8989 Q162.195 14.7504 164.0856 14.7504 Q165.945 14.7504 166.9762 15.9223 Q168.0075 17.0942 168.0075 19.1567 ZM161.1794 19.1567 Q161.1794 20.8911 161.9216 21.7973 Q162.6637 22.7036 164.0856 22.7036 Q165.5075 22.7036 166.2341 21.8051 Q166.9606 20.9067 166.9606 19.1567 Q166.9606 17.4223 166.2341 16.5317 Q165.5075 15.6411 164.0856 15.6411 Q162.6637 15.6411 161.9216 16.5395 Q161.1794 17.4379 161.1794 19.1567 Z"/><path style="fill:rgb(230,0,0); stroke:none;" d="M125.9685 49.6967 Q125.9685 51.7592 124.9294 52.9389 Q123.8904 54.1186 122.0466 54.1186 Q120.156 54.1186 119.1247 52.9545 Q118.0935 51.7904 118.0935 49.6811 Q118.0935 47.5873 119.1247 46.4389 Q120.156 45.2904 122.0466 45.2904 Q123.906 45.2904 124.9372 46.4623 Q125.9685 47.6342 125.9685 49.6967 ZM119.1404 49.6967 Q119.1404 51.4311 119.8826 52.3373 Q120.6247 53.2436 122.0466 53.2436 Q123.4685 53.2436 124.1951 52.3451 Q124.9216 51.4467 124.9216 49.6967 Q124.9216 47.9623 124.1951 47.0717 Q123.4685 46.1811 122.0466 46.1811 Q120.6247 46.1811 119.8826 47.0795 Q119.1404 47.9779 119.1404 49.6967 Z"/><path style="fill:rgb(230,0,0); stroke:none;" d="M-160.1325 -30.0703 Q-160.1325 -28.0078 -161.1716 -26.8281 Q-162.2106 -25.6484 -164.0544 -25.6484 Q-165.945 -25.6484 -166.9762 -26.8125 Q-168.0075 -27.9766 -168.0075 -30.0859 Q-168.0075 -32.1797 -166.9762 -33.3281 Q-165.945 -34.4766 -164.0544 -34.4766 Q-162.195 -34.4766 -161.1637 -33.3047 Q-160.1325 -32.1328 -160.1325 -30.0703 ZM-166.9606 -30.0703 Q-166.9606 -28.3359 -166.2184 -27.4297 Q-165.4762 -26.5234 -164.0544 -26.5234 Q-162.6325 -26.5234 -161.9059 -27.4219 Q-161.1794 -28.3203 -161.1794 -30.0703 Q-161.1794 -31.8047 -161.9059 -32.6953 Q-162.6325 -33.5859 -164.0544 -33.5859 Q-165.4762 -33.5859 -166.2184 -32.6875 Q-166.9606 -31.7891 -166.9606 -30.0703 Z"/><path style="fill:rgb(230,0,0); stroke:none;" d="M-160.1325 29.9297 Q-160.1325 31.9922 -161.1716 33.1719 Q-162.2106 34.3516 -164.0544 34.3516 Q-165.945 34.3516 -166.9762 33.1875 Q-168.0075 32.0234 -168.0075 29.9141 Q-168.0075 27.8203 -166.9762 26.6719 Q-165.945 25.5234 -164.0544 25.5234 Q-162.195 25.5234 -161.1637 26.6953 Q-160.1325 27.8672 -160.1325 29.9297 ZM-166.9606 29.9297 Q-166.9606 31.6641 -166.2184 32.5703 Q-165.4762 33.4766 -164.0544 33.4766 Q-162.6325 33.4766 -161.9059 32.5781 Q-161.1794 31.6797 -161.1794 29.9297 Q-161.1794 28.1953 -161.9059 27.3047 Q-162.6325 26.4141 -164.0544 26.4141 Q-165.4762 26.4141 -166.2184 27.3125 Q-166.9606 28.2109 -166.9606 29.9297 Z"/></g><g transform="translate(171,63)" style="stroke-linecap:butt; text-rendering:geometricPrecision; color-rendering:optimizeQuality; image-rendering:optimizeQuality; font-family:'Open Sans'; color-interpolation:linearRGB; stroke-miterlimit:5;"><path style="fill:none;" d="M39.044 -19.475 L39.294 -19.908 L38.9594 -20.2796"/><path style="fill:rgb(0,5,255); stroke:none;" d="M22.5726 -38.0448 L21.4319 -38.0448 L16.7444 -45.2323 L16.6976 -45.2323 Q16.7913 -43.9666 16.7913 -42.9198 L16.7913 -38.0448 L15.8694 -38.0448 L15.8694 -46.6073 L16.9944 -46.6073 L21.6663 -39.451 L21.7132 -39.451 Q21.7132 -39.6073 21.6663 -40.4666 Q21.6194 -41.326 21.6351 -41.701 L21.6351 -46.6073 L22.5726 -46.6073 L22.5726 -38.0448 Z"/><path style="fill:none;" d="M24.544 5.639 L24.294 6.072 L23.8049 5.968"/><path style="fill:none;" d="M-7.7272 -30.2034 L-8.184 -30 L-8.617 -30.25"/><path style="fill:rgb(148,108,0); stroke:none;" d="M-2.3537 1.7725 Q-2.3537 2.8975 -3.174 3.5381 Q-3.9943 4.1788 -5.4006 4.1788 Q-6.9318 4.1788 -7.7443 3.7725 L-7.7443 2.8194 Q-7.2131 3.0381 -6.5959 3.1709 Q-5.9787 3.3038 -5.3693 3.3038 Q-4.3693 3.3038 -3.8693 2.9209 Q-3.3693 2.5381 -3.3693 1.8663 Q-3.3693 1.4288 -3.549 1.1397 Q-3.7287 0.8506 -4.1427 0.6084 Q-4.5568 0.3663 -5.4162 0.0694 Q-6.6037 -0.3525 -7.1193 -0.9384 Q-7.6349 -1.5244 -7.6349 -2.4775 Q-7.6349 -3.4619 -6.8927 -4.0478 Q-6.1506 -4.6337 -4.9162 -4.6337 Q-3.6506 -4.6337 -2.5724 -4.165 L-2.8849 -3.3056 Q-3.9474 -3.7431 -4.9474 -3.7431 Q-5.7443 -3.7431 -6.1896 -3.4072 Q-6.6349 -3.0712 -6.6349 -2.4619 Q-6.6349 -2.0244 -6.4709 -1.7353 Q-6.3068 -1.4462 -5.9162 -1.2119 Q-5.5256 -0.9775 -4.7131 -0.6806 Q-3.3693 -0.2119 -2.8615 0.3428 Q-2.3537 0.8975 -2.3537 1.7725 Z"/><path style="fill:none;" d="M69.4259 -22.6385 L69.132 -23.043 L68.6347 -22.9908"/><path style="fill:none;" d="M86.4721 0.8225 L86.766 1.227 L87.2633 1.1747"/><path style="fill:none;" d="M81.1297 -49.9942 L81.333 -50.451 L81.8303 -50.5033"/><path style="fill:none;" d="M116.8043 -2.3648 L116.601 -1.908 L116.8949 -1.5035"/><path style="fill:none;" d="M110.6707 -53.5338 L111.168 -53.586 L111.4619 -53.1815"/><path style="fill:none;" d="M128.5987 -28.8592 L128.802 -29.316 L128.5081 -29.7205"/><path style="fill:none;" d="M-86.56 -15.25 L-86.127 -15 L-85.694 -15.25"/><path style="fill:none;" d="M-111.674 -29.75 L-112.107 -30 L-112.54 -29.75"/><path style="fill:none;" d="M-86.127 14.5 L-86.127 15 L-86.56 15.25"/><path style="fill:none;" d="M-138.09 -14.5 L-138.09 -15 L-138.523 -15.25"/><path style="fill:none;" d="M-111.674 29.75 L-112.107 30 L-112.54 29.75"/><path style="fill:none;" d="M-138.09 14.5 L-138.09 15 L-137.657 15.25"/></g></g></svg></svg></svg></svg>