<svg xmlns:ns0="http://www.w3.org/2000/svg" xmlns="http://www.w3.org/2000/svg"><g transform="translate(0, 0)"><ns0:svg width="210" viewBox="0 0 210 116" style="fill-opacity:1; color-rendering:auto; color-interpolation:auto; text-rendering:auto; stroke:black; stroke-linecap:square; stroke-miterlimit:10; shape-rendering:auto; stroke-opacity:1; fill:black; stroke-dasharray:none; font-weight:normal; stroke-width:1; font-family:'Open Sans'; font-style:normal; stroke-linejoin:miter; font-size:12; stroke-dashoffset:0; image-rendering:auto;" height="116" class="cas-substance-image"><ns0:svg class="cas-substance-single-component"><ns0:rect y="0" x="0" width="210" stroke="none" ry="7" rx="7" height="116" fill="white" class="cas-substance-group" /><ns0:svg y="0" x="0" width="210" viewBox="0 0 210 116" style="fill:black;" height="116" class="cas-substance-single-component-image"><ns0:svg><ns0:g><ns0:g transform="translate(105,56)" style="text-rendering:geometricPrecision; color-rendering:optimizeQuality; color-interpolation:linearRGB; stroke-linecap:butt; image-rendering:optimizeQuality;"><ns0:line y2="6.0804" y1="-3.0494" x2="22.2624" x1="6.4496" style="fill:none;" /><ns0:line y2="3.0494" y1="-6.0804" x2="24.0124" x1="8.1996" style="fill:none;" /><ns0:line y2="7.5" y1="-4.5649" x2="-23.739" x1="-2.8426" style="fill:none;" /><ns0:line y2="-7.5" y1="4.5649" x2="54.201" x1="33.3046" style="fill:none;" /><ns0:line y2="37.5" y1="49.2586" x2="-23.739" x1="-3.3731" style="fill:none;" /><ns0:line y2="7.5" y1="-7.5" x2="-23.739" x1="-49.722" style="fill:none;" /><ns0:line y2="7.5" y1="-7.5" x2="-75.702" x1="-49.722" style="fill:none;" /><ns0:line y2="9.5207" y1="-3.4585" x2="-72.202" x1="-49.722" style="fill:none;" /><ns0:line y2="-37.5" y1="-7.5" x2="-49.722" x1="-49.722" style="fill:none;" /><ns0:line y2="37.5" y1="7.5" x2="-23.739" x1="-23.739" style="fill:none;" /><ns0:line y2="35.4793" y1="9.5207" x2="-27.239" x1="-27.239" style="fill:none;" /><ns0:line y2="37.5" y1="7.5" x2="-75.702" x1="-75.702" style="fill:none;" /><ns0:line y2="-7.5" y1="7.5" x2="-101.682" x1="-75.702" style="fill:none;" /><ns0:line y2="-52.5" y1="-37.5" x2="-75.702" x1="-49.722" style="fill:none;" /><ns0:line y2="-48.4585" y1="-35.4793" x2="-75.7021" x1="-53.222" style="fill:none;" /><ns0:line y2="52.5" y1="37.5" x2="-49.722" x1="-23.739" style="fill:none;" /><ns0:line y2="52.5" y1="37.5" x2="-49.722" x1="-75.702" style="fill:none;" /><ns0:line y2="48.4585" y1="35.4793" x2="-49.722" x1="-72.202" style="fill:none;" /><ns0:line y2="-37.5" y1="-7.5" x2="-101.682" x1="-101.682" style="fill:none;" /><ns0:line y2="-35.4793" y1="-9.5207" x2="-98.182" x1="-98.182" style="fill:none;" /><ns0:line y2="-37.5" y1="-52.5" x2="-101.682" x1="-75.702" style="fill:none;" /><ns0:line y2="2.3956" y1="-7.5" x2="76.4303" x1="54.201" style="fill:none;" /><ns0:line y2="-0.8018" y1="-9.8757" x2="77.8537" x1="57.4705" style="fill:none;" /><ns0:line y2="-31.0022" y1="-7.5" x2="56.6729" x1="54.201" style="fill:none;" /><ns0:line y2="-17.592" y1="-0.5075" x2="101.682" x1="86.2988" style="fill:none;" /><ns0:line y2="-43.572" y1="-38.2809" x2="86.682" x1="61.7893" style="fill:none;" /><ns0:line y2="-43.572" y1="-17.592" x2="86.682" x1="101.682" style="fill:none;" /><ns0:line y2="-40.072" y1="-17.5919" x2="84.6613" x1="97.6405" style="fill:none;" /></ns0:g><ns0:g transform="translate(105,56)" style="fill:rgb(0,5,255); text-rendering:geometricPrecision; color-rendering:optimizeQuality; image-rendering:optimizeQuality; font-family:'Open Sans'; stroke:rgb(0,5,255); color-interpolation:linearRGB;"><ns0:path style="stroke:none;" d="M5.5926 -3.3438 L4.4519 -3.3438 L-0.2356 -10.5312 L-0.2824 -10.5312 Q-0.1887 -9.2656 -0.1887 -8.2188 L-0.1887 -3.3438 L-1.1106 -3.3438 L-1.1106 -11.9062 L0.0144 -11.9062 L4.6863 -4.75 L4.7332 -4.75 Q4.7332 -4.9062 4.6863 -5.7656 Q4.6394 -6.625 4.6551 -7 L4.6551 -11.9062 L5.5926 -11.9062 L5.5926 -3.3438 Z" /><ns0:path style="stroke:none;" d="M31.5726 11.6562 L30.4319 11.6562 L25.7444 4.4688 L25.6976 4.4688 Q25.7913 5.7344 25.7913 6.7812 L25.7913 11.6562 L24.8694 11.6562 L24.8694 3.0938 L25.9944 3.0938 L30.6663 10.25 L30.7132 10.25 Q30.7132 10.0938 30.6663 9.2344 Q30.6194 8.375 30.6351 8 L30.6351 3.0938 L31.5726 3.0938 L31.5726 11.6562 Z" /><ns0:path style="fill:rgb(230,0,0); stroke:none;" d="M6.1785 52.4297 Q6.1785 54.4922 5.1394 55.6719 Q4.1004 56.8516 2.2566 56.8516 Q0.366 56.8516 -0.6653 55.6875 Q-1.6965 54.5234 -1.6965 52.4141 Q-1.6965 50.3203 -0.6653 49.1719 Q0.366 48.0234 2.2566 48.0234 Q4.116 48.0234 5.1473 49.1953 Q6.1785 50.3672 6.1785 52.4297 ZM-0.6496 52.4297 Q-0.6496 54.1641 0.0926 55.0703 Q0.8347 55.9766 2.2566 55.9766 Q3.6785 55.9766 4.4051 55.0781 Q5.1316 54.1797 5.1316 52.4297 Q5.1316 50.6953 4.4051 49.8047 Q3.6785 48.9141 2.2566 48.9141 Q0.8347 48.9141 0.0926 49.8125 Q-0.6496 50.7109 -0.6496 52.4297 Z" /><ns0:path style="fill:rgb(230,0,0); stroke:none;" d="M13.6941 56.7266 L12.6941 56.7266 L12.6941 52.6953 L8.1785 52.6953 L8.1785 56.7266 L7.1785 56.7266 L7.1785 48.1641 L8.1785 48.1641 L8.1785 51.8047 L12.6941 51.8047 L12.6941 48.1641 L13.6941 48.1641 L13.6941 56.7266 Z" /></ns0:g><ns0:g transform="translate(105,56)" style="stroke-linecap:butt; text-rendering:geometricPrecision; color-rendering:optimizeQuality; image-rendering:optimizeQuality; font-family:'Open Sans'; color-interpolation:linearRGB; stroke-miterlimit:5;"><ns0:path style="fill:none;" d="M-50.155 -7.25 L-49.722 -7.5 L-49.289 -7.25" /><ns0:path style="fill:none;" d="M-23.739 8 L-23.739 7.5 L-23.306 7.25" /><ns0:path style="fill:none;" d="M-75.269 7.25 L-75.702 7.5 L-75.702 8" /><ns0:path style="fill:none;" d="M-49.722 -37 L-49.722 -37.5 L-50.155 -37.75" /><ns0:path style="fill:none;" d="M-23.739 37 L-23.739 37.5 L-23.306 37.75" /><ns0:path style="fill:none;" d="M-75.702 37 L-75.702 37.5 L-75.269 37.75" /><ns0:path style="fill:none;" d="M-101.249 -7.25 L-101.682 -7.5 L-101.682 -8" /><ns0:path style="fill:none;" d="M-75.269 -52.25 L-75.702 -52.5 L-76.135 -52.25" /><ns0:path style="fill:none;" d="M-49.289 52.25 L-49.722 52.5 L-50.155 52.25" /><ns0:path style="fill:none;" d="M-101.682 -37 L-101.682 -37.5 L-101.249 -37.75" /><ns0:path style="fill:none;" d="M54.6578 -7.2967 L54.201 -7.5 L54.2533 -7.9973" /><ns0:path style="fill:rgb(0,5,255); stroke:none;" d="M84.9606 8.8573 L83.8199 8.8573 L79.1324 1.6698 L79.0856 1.6698 Q79.1793 2.9354 79.1793 3.9823 L79.1793 8.8573 L78.2574 8.8573 L78.2574 0.2948 L79.3824 0.2948 L84.0543 7.451 L84.1012 7.451 Q84.1012 7.2948 84.0543 6.4354 Q84.0074 5.576 84.0231 5.201 L84.0231 0.2948 L84.9606 0.2948 L84.9606 8.8573 Z" /><ns0:path style="fill:rgb(148,108,0); stroke:none;" d="M60.0343 -35.3975 Q60.0343 -34.2725 59.214 -33.6319 Q58.3937 -32.9913 56.9874 -32.9913 Q55.4562 -32.9913 54.6437 -33.3975 L54.6437 -34.3506 Q55.1749 -34.1319 55.7921 -33.9991 Q56.4093 -33.8663 57.0187 -33.8663 Q58.0187 -33.8663 58.5187 -34.2491 Q59.0187 -34.6319 59.0187 -35.3038 Q59.0187 -35.7413 58.839 -36.0303 Q58.6593 -36.3194 58.2452 -36.5616 Q57.8312 -36.8038 56.9718 -37.1006 Q55.7843 -37.5225 55.2687 -38.1084 Q54.7531 -38.6944 54.7531 -39.6475 Q54.7531 -40.6319 55.4952 -41.2178 Q56.2374 -41.8038 57.4718 -41.8038 Q58.7374 -41.8038 59.8156 -41.335 L59.5031 -40.4756 Q58.4406 -40.9131 57.4406 -40.9131 Q56.6437 -40.9131 56.1984 -40.5772 Q55.7531 -40.2413 55.7531 -39.6319 Q55.7531 -39.1944 55.9171 -38.9053 Q56.0812 -38.6163 56.4718 -38.3819 Q56.8624 -38.1475 57.6749 -37.8506 Q59.0187 -37.3819 59.5265 -36.8272 Q60.0343 -36.2725 60.0343 -35.3975 Z" /><ns0:path style="fill:none;" d="M101.3474 -17.2204 L101.682 -17.592 L101.432 -18.025" /><ns0:path style="fill:none;" d="M86.1929 -43.468 L86.682 -43.572 L86.932 -43.139" /></ns0:g></ns0:g></ns0:svg></ns0:svg></ns0:svg></ns0:svg></g></svg>