<svg width="347" viewBox="0 0 347 127" style="fill-opacity:1; color-rendering:auto; color-interpolation:auto; text-rendering:auto; stroke:black; stroke-linecap:square; stroke-miterlimit:10; shape-rendering:auto; stroke-opacity:1; fill:black; stroke-dasharray:none; font-weight:normal; stroke-width:1; font-family:'Open Sans'; font-style:normal; stroke-linejoin:miter; font-size:12; stroke-dashoffset:0; image-rendering:auto;" height="127" class="cas-substance-image" xmlns:xlink="http://www.w3.org/1999/xlink" xmlns="http://www.w3.org/2000/svg"><svg class="cas-substance-single-component"><rect y="0" x="0" width="347" stroke="none" ry="7" rx="7" height="127" fill="white" class="cas-substance-group"/><svg y="0" x="0" width="347" viewBox="0 0 347 112" style="fill:black;" height="112" class="cas-substance-single-component-image"><svg><g><g transform="translate(172,56)" style="text-rendering:geometricPrecision; color-rendering:optimizeQuality; color-interpolation:linearRGB; stroke-linecap:butt; image-rendering:optimizeQuality;"><line y2="-4.5652" y1="7.5" x2="-44.0536" x1="-64.953" style="fill:none;"/><path style="stroke:none;" d="M-65.5363 8.5 L-65.6197 9.5 L-64.2863 9.5 L-64.3697 8.5 ZM-65.7863 11.5 L-65.8697 12.5 L-64.0363 12.5 L-64.1197 11.5 ZM-66.0363 14.5 L-66.1197 15.5 L-63.7863 15.5 L-63.8697 14.5 ZM-66.2863 17.5 L-66.3697 18.5 L-63.5363 18.5 L-63.6197 17.5 ZM-66.5363 20.5 L-66.6197 21.5 L-63.2863 21.5 L-63.3697 20.5 ZM-66.7863 23.5 L-66.8697 24.5 L-63.0363 24.5 L-63.1197 23.5 ZM-67.0363 26.5 L-67.1197 27.5 L-62.7863 27.5 L-62.8697 26.5 ZM-67.2863 29.5 L-67.3697 30.5 L-62.5363 30.5 L-62.6197 29.5 ZM-67.5363 32.5 L-67.6197 33.5 L-62.2863 33.5 L-62.3697 32.5 ZM-67.7863 35.5 L-67.8697 36.5 L-62.0363 36.5 L-62.1197 35.5 Z"/><line y2="-7.5" y1="7.5" x2="-90.933" x1="-64.953" style="fill:none;"/><line y2="7.5" y1="-4.5649" x2="-12.99" x1="-33.8864" style="fill:none;"/><line y2="-7.5" y1="7.5" x2="12.99" x1="-12.99" style="fill:none;"/><line y2="7.5" y1="-7.5" x2="38.97" x1="12.99" style="fill:none;"/><line y2="-7.5" y1="7.5" x2="64.953" x1="38.97" style="fill:none;"/><line y2="-12.6074" y1="7.5" x2="154.5024" x1="142.893" style="fill:none;"/><line y2="20.12" y1="7.5" x2="164.7533" x1="142.893" style="fill:none;"/><line y2="27.6074" y1="7.5" x2="131.2836" x1="142.893" style="fill:none;"/><line y2="-7.5" y1="7.5" x2="116.913" x1="142.893" style="fill:none;"/><line y2="-7.5" y1="7.5" x2="-90.933" x1="-116.913" style="fill:none;"/><line y2="-7.5" y1="7.5" x2="-142.893" x1="-116.913" style="fill:none;"/><line y2="-3.4585" y1="9.5207" x2="-142.8931" x1="-120.413" style="fill:none;"/><line y2="37.5" y1="7.5" x2="-116.913" x1="-116.913" style="fill:none;"/><line y2="-37.5" y1="-7.5" x2="-90.933" x1="-90.933" style="fill:none;"/><line y2="-35.4793" y1="-9.5207" x2="-94.433" x1="-94.433" style="fill:none;"/><line y2="-37.5" y1="-7.5" x2="-142.893" x1="-142.893" style="fill:none;"/><line y2="7.5" y1="-7.5" x2="-168.876" x1="-142.893" style="fill:none;"/><line y2="52.5" y1="37.5" x2="-142.893" x1="-116.913" style="fill:none;"/><line y2="48.4585" y1="35.4793" x2="-142.8931" x1="-120.413" style="fill:none;"/><line y2="-52.5" y1="-37.5" x2="-116.913" x1="-90.933" style="fill:none;"/><line y2="-52.5" y1="-37.5" x2="-116.913" x1="-142.893" style="fill:none;"/><line y2="-48.4585" y1="-35.4793" x2="-116.9129" x1="-139.393" style="fill:none;"/><line y2="37.5" y1="7.5" x2="-168.876" x1="-168.876" style="fill:none;"/><line y2="35.4793" y1="9.5207" x2="-165.376" x1="-165.376" style="fill:none;"/><line y2="37.5" y1="52.5" x2="-168.876" x1="-142.893" style="fill:none;"/><line y2="7.5" y1="-7.5" x2="90.933" x1="64.953" style="fill:none;"/><line y2="3.4585" y1="-9.5207" x2="90.9331" x1="68.453" style="fill:none;"/><line y2="-37.5" y1="-7.5" x2="64.953" x1="64.953" style="fill:none;"/><line y2="-7.5" y1="7.5" x2="116.913" x1="90.933" style="fill:none;"/><line y2="-52.5" y1="-37.5" x2="90.933" x1="64.953" style="fill:none;"/><line y2="-48.4585" y1="-35.4793" x2="90.9331" x1="68.453" style="fill:none;"/><line y2="-37.5" y1="-7.5" x2="116.913" x1="116.913" style="fill:none;"/><line y2="-35.4793" y1="-9.5207" x2="113.413" x1="113.413" style="fill:none;"/><line y2="-37.5" y1="-52.5" x2="116.913" x1="90.933" style="fill:none;"/><path style="fill:none; stroke-miterlimit:5;" d="M-64.52 7.25 L-64.953 7.5 L-65.386 7.25"/></g><g transform="translate(172,56)" style="stroke-linecap:butt; font-size:8px; fill:gray; text-rendering:geometricPrecision; image-rendering:optimizeQuality; color-rendering:optimizeQuality; font-family:'Open Sans'; font-style:italic; stroke:gray; color-interpolation:linearRGB; stroke-miterlimit:5;"><path style="stroke:none;" d="M-69.1813 -1.3359 Q-69.1813 -2.6641 -68.7125 -3.7891 Q-68.2438 -4.9141 -67.2125 -5.9922 L-66.6031 -5.9922 Q-67.5719 -4.9297 -68.0563 -3.7578 Q-68.5406 -2.5859 -68.5406 -1.3516 Q-68.5406 -0.0234 -68.1031 0.9922 L-68.6188 0.9922 Q-69.1813 -0.0391 -69.1813 -1.3359 ZM-65.7281 -2.6484 L-66.2281 -0.2734 L-66.8844 -0.2734 L-65.6813 -5.9922 L-64.4313 -5.9922 Q-62.6969 -5.9922 -62.6969 -4.5547 Q-62.6969 -3.1953 -64.1344 -2.8047 L-63.1969 -0.2734 L-63.9156 -0.2734 L-64.7438 -2.6484 L-65.7281 -2.6484 ZM-65.15 -5.3984 Q-65.5406 -3.4766 -65.6031 -3.2266 L-64.9469 -3.2266 Q-64.1969 -3.2266 -63.7906 -3.5547 Q-63.3844 -3.8828 -63.3844 -4.5078 Q-63.3844 -4.9766 -63.6422 -5.1875 Q-63.9 -5.3984 -64.4938 -5.3984 L-65.15 -5.3984 ZM-60.7242 -3.6484 Q-60.7242 -2.3203 -61.2008 -1.1875 Q-61.6774 -0.0547 -62.693 0.9922 L-63.3024 0.9922 Q-61.3649 -1.1641 -61.3649 -3.6484 Q-61.3649 -4.9766 -61.8024 -5.9922 L-61.2867 -5.9922 Q-60.7242 -4.9297 -60.7242 -3.6484 Z"/></g><g transform="translate(172,56)" style="stroke-linecap:butt; fill:rgb(0,5,255); text-rendering:geometricPrecision; color-rendering:optimizeQuality; image-rendering:optimizeQuality; font-family:'Open Sans'; stroke:rgb(0,5,255); color-interpolation:linearRGB; stroke-miterlimit:5;"><path style="stroke:none;" d="M-35.6184 -3.3438 L-36.7591 -3.3438 L-41.4466 -10.5312 L-41.4934 -10.5312 Q-41.3997 -9.2656 -41.3997 -8.2188 L-41.3997 -3.3438 L-42.3216 -3.3438 L-42.3216 -11.9062 L-41.1966 -11.9062 L-36.5247 -4.75 L-36.4778 -4.75 Q-36.4778 -4.9062 -36.5247 -5.7656 Q-36.5716 -6.625 -36.5559 -7 L-36.5559 -11.9062 L-35.6184 -11.9062 L-35.6184 -3.3438 Z"/><path style="stroke:none;" d="M-35.7122 -12.9062 L-36.7122 -12.9062 L-36.7122 -16.9375 L-41.2278 -16.9375 L-41.2278 -12.9062 L-42.2278 -12.9062 L-42.2278 -21.4688 L-41.2278 -21.4688 L-41.2278 -17.8281 L-36.7122 -17.8281 L-36.7122 -21.4688 L-35.7122 -21.4688 L-35.7122 -12.9062 Z"/><path style="fill:none; stroke:black;" d="M-13.423 7.25 L-12.99 7.5 L-12.557 7.25"/><path style="fill:none; stroke:black;" d="M12.557 -7.25 L12.99 -7.5 L13.423 -7.25"/><path style="fill:none; stroke:black;" d="M38.537 7.25 L38.97 7.5 L39.403 7.25"/><path style="fill:rgb(0,138,0); stroke:none;" d="M156.5024 -14.3237 L155.5024 -14.3237 L155.5024 -22.8862 L160.2836 -22.8862 L160.2836 -22.0112 L156.5024 -22.0112 L156.5024 -18.8706 L160.0493 -18.8706 L160.0493 -17.98 L156.5024 -17.98 L156.5024 -14.3237 Z"/><path style="fill:rgb(0,138,0); stroke:none;" d="M167.4854 26.6562 L166.4854 26.6562 L166.4854 18.0938 L171.2666 18.0938 L171.2666 18.9688 L167.4854 18.9688 L167.4854 22.1094 L171.0323 22.1094 L171.0323 23 L167.4854 23 L167.4854 26.6562 Z"/><path style="fill:rgb(0,138,0); stroke:none;" d="M126.5024 37.6363 L125.5024 37.6363 L125.5024 29.0738 L130.2836 29.0738 L130.2836 29.9488 L126.5024 29.9488 L126.5024 33.0894 L130.0493 33.0894 L130.0493 33.98 L126.5024 33.98 L126.5024 37.6363 Z"/><path style="fill:none; stroke:black;" d="M-117.346 7.25 L-116.913 7.5 L-116.48 7.25"/><path style="fill:none; stroke:black;" d="M-90.933 -8 L-90.933 -7.5 L-90.5 -7.25"/><path style="fill:none; stroke:black;" d="M-142.46 -7.25 L-142.893 -7.5 L-143.326 -7.25"/><path style="fill:none; stroke:black;" d="M-116.913 37 L-116.913 37.5 L-117.346 37.75"/><path style="fill:none; stroke:black;" d="M-90.933 -37 L-90.933 -37.5 L-91.366 -37.75"/><path style="fill:none; stroke:black;" d="M-142.893 -37 L-142.893 -37.5 L-142.46 -37.75"/><path style="fill:none; stroke:black;" d="M-168.443 7.25 L-168.876 7.5 L-168.876 8"/><path style="fill:none; stroke:black;" d="M-142.46 52.25 L-142.893 52.5 L-143.326 52.25"/><path style="fill:none; stroke:black;" d="M-116.48 -52.25 L-116.913 -52.5 L-117.346 -52.25"/><path style="fill:none; stroke:black;" d="M-168.876 37 L-168.876 37.5 L-168.443 37.75"/><path style="fill:none; stroke:black;" d="M65.386 -7.25 L64.953 -7.5 L64.52 -7.25"/><path style="fill:none; stroke:black;" d="M90.5 7.25 L90.933 7.5 L91.366 7.25"/><path style="fill:none; stroke:black;" d="M64.953 -37 L64.953 -37.5 L65.386 -37.75"/><path style="fill:none; stroke:black;" d="M116.913 -8 L116.913 -7.5 L117.346 -7.25"/><path style="fill:none; stroke:black;" d="M90.5 -52.25 L90.933 -52.5 L91.366 -52.25"/><path style="fill:none; stroke:black;" d="M116.913 -37 L116.913 -37.5 L116.48 -37.75"/></g></g></svg></svg><svg y="112" x="165" class="cas-substance-saf"><svg y="5" x="0" width="4" style="fill:black;" height="4" class="cas-substance-saf-dot"><circle stroke="none" r="2" fill="black" cy="2" cx="2"/></svg><svg y="0" x="8" width="22" style="fill:black;" height="15" class="cas-substance-saf-image"><svg><g><g transform="translate(6,8)" style="fill:rgb(0,138,0); text-rendering:geometricPrecision; color-rendering:optimizeQuality; image-rendering:optimizeQuality; font-family:'Open Sans'; stroke:rgb(0,138,0); color-interpolation:linearRGB;"><path style="stroke:none;" d="M3.2578 4.1562 L2.2578 4.1562 L2.2578 0.125 L-2.2578 0.125 L-2.2578 4.1562 L-3.2578 4.1562 L-3.2578 -4.4062 L-2.2578 -4.4062 L-2.2578 -0.7656 L2.2578 -0.7656 L2.2578 -4.4062 L3.2578 -4.4062 L3.2578 4.1562 Z"/><path style="stroke:none;" d="M8.3672 -3.6406 Q6.9609 -3.6406 6.1406 -2.7031 Q5.3203 -1.7656 5.3203 -0.125 Q5.3203 1.5469 6.1094 2.4688 Q6.8984 3.3906 8.3516 3.3906 Q9.2578 3.3906 10.3984 3.0625 L10.3984 3.9375 Q9.5078 4.2812 8.2109 4.2812 Q6.3203 4.2812 5.2891 3.125 Q4.2578 1.9688 4.2578 -0.1406 Q4.2578 -1.4688 4.75 -2.4609 Q5.2422 -3.4531 6.1797 -3.9922 Q7.1172 -4.5312 8.3828 -4.5312 Q9.7266 -4.5312 10.7422 -4.0469 L10.3203 -3.1875 Q9.3359 -3.6406 8.3672 -3.6406 ZM13.0938 4.1562 L12.125 4.1562 L12.125 -4.9688 L13.0938 -4.9688 L13.0938 4.1562 Z"/></g></g></svg></svg></svg></svg></svg>