<svg width="162" viewBox="0 0 162 146" style="fill-opacity:1; color-rendering:auto; color-interpolation:auto; text-rendering:auto; stroke:black; stroke-linecap:square; stroke-miterlimit:10; shape-rendering:auto; stroke-opacity:1; fill:black; stroke-dasharray:none; font-weight:normal; stroke-width:1; font-family:'Open Sans'; font-style:normal; stroke-linejoin:miter; font-size:12; stroke-dashoffset:0; image-rendering:auto;" height="146" class="cas-substance-image" xmlns:xlink="http://www.w3.org/1999/xlink" xmlns="http://www.w3.org/2000/svg"><svg class="cas-substance-single-component"><rect y="0" x="0" width="162" stroke="none" ry="7" rx="7" height="146" fill="white" class="cas-substance-group"/><svg y="0" x="0" width="162" viewBox="0 0 162 146" style="fill:black;" height="146" class="cas-substance-single-component-image"><svg><g><g transform="translate(81,75)" style="text-rendering:geometricPrecision; color-rendering:optimizeQuality; color-interpolation:linearRGB; stroke-linecap:butt; image-rendering:optimizeQuality;"><line y2="67.5" y1="55.6888" x2="-25.98" x1="-5.523" style="fill:none;"/><line y2="22.5" y1="46.0234" x2="0" x1="0" style="fill:none;"/><line y2="7.5" y1="19.274" x2="77.943" x1="57.5505" style="fill:none;"/><line y2="7.5" y1="19.2588" x2="25.98" x1="46.3487" style="fill:none;"/><line y2="-22.5" y1="-37.5" x2="-77.943" x1="-51.963" style="fill:none;"/><line y2="-61.3438" y1="-37.5" x2="-51.963" x1="-51.963" style="fill:none;"/><line y2="-22.5" y1="-37.5" x2="-25.98" x1="-51.963" style="fill:none;"/><line y2="7.5" y1="22.5" x2="25.98" x1="0" style="fill:none;"/><line y2="5.4793" y1="18.4585" x2="22.48" x1="-0.0001" style="fill:none;"/><line y2="7.5" y1="22.5" x2="-25.98" x1="0" style="fill:none;"/><line y2="-22.5" y1="7.5" x2="25.98" x1="25.98" style="fill:none;"/><line y2="-22.5" y1="7.5" x2="-25.98" x1="-25.98" style="fill:none;"/><line y2="-20.4793" y1="5.4793" x2="-22.48" x1="-22.48" style="fill:none;"/><line y2="-37.5" y1="-22.5" x2="0" x1="25.98" style="fill:none;"/><line y2="-33.4585" y1="-20.4793" x2="-0.0001" x1="22.48" style="fill:none;"/><line y2="-37.5" y1="-22.5" x2="0" x1="-25.98" style="fill:none;"/></g><g transform="translate(81,75)" style="fill:rgb(230,0,0); text-rendering:geometricPrecision; color-rendering:optimizeQuality; image-rendering:optimizeQuality; font-family:'Open Sans'; stroke:rgb(230,0,0); color-interpolation:linearRGB;"><path style="stroke:none;" d="M3.9375 52.4297 Q3.9375 54.4922 2.8984 55.6719 Q1.8594 56.8516 0.0156 56.8516 Q-1.875 56.8516 -2.9062 55.6875 Q-3.9375 54.5234 -3.9375 52.4141 Q-3.9375 50.3203 -2.9062 49.1719 Q-1.875 48.0234 0.0156 48.0234 Q1.875 48.0234 2.9062 49.1953 Q3.9375 50.3672 3.9375 52.4297 ZM-2.8906 52.4297 Q-2.8906 54.1641 -2.1484 55.0703 Q-1.4062 55.9766 0.0156 55.9766 Q1.4375 55.9766 2.1641 55.0781 Q2.8906 54.1797 2.8906 52.4297 Q2.8906 50.6953 2.1641 49.8047 Q1.4375 48.9141 0.0156 48.9141 Q-1.4062 48.9141 -2.1484 49.8125 Q-2.8906 50.7109 -2.8906 52.4297 Z"/><path style="stroke:none;" d="M55.9005 22.4297 Q55.9005 24.4922 54.8614 25.6719 Q53.8224 26.8516 51.9786 26.8516 Q50.088 26.8516 49.0568 25.6875 Q48.0255 24.5234 48.0255 22.4141 Q48.0255 20.3203 49.0568 19.1719 Q50.088 18.0234 51.9786 18.0234 Q53.838 18.0234 54.8693 19.1953 Q55.9005 20.3672 55.9005 22.4297 ZM49.0724 22.4297 Q49.0724 24.1641 49.8146 25.0703 Q50.5568 25.9766 51.9786 25.9766 Q53.4005 25.9766 54.1271 25.0781 Q54.8536 24.1797 54.8536 22.4297 Q54.8536 20.6953 54.1271 19.8047 Q53.4005 18.9141 51.9786 18.9141 Q50.5568 18.9141 49.8146 19.8125 Q49.0724 20.7109 49.0724 22.4297 Z"/><path style="fill:rgb(0,5,255); stroke:none;" d="M-48.6114 -63.3438 L-49.7521 -63.3438 L-54.4396 -70.5312 L-54.4864 -70.5312 Q-54.3927 -69.2656 -54.3927 -68.2188 L-54.3927 -63.3438 L-55.3146 -63.3438 L-55.3146 -71.9062 L-54.1896 -71.9062 L-49.5177 -64.75 L-49.4708 -64.75 Q-49.4708 -64.9062 -49.5177 -65.7656 Q-49.5646 -66.625 -49.5489 -67 L-49.5489 -71.9062 L-48.6114 -71.9062 L-48.6114 -63.3438 Z"/><path style="fill:rgb(0,5,255); stroke:none;" d="M-41.0958 -63.3438 L-42.0958 -63.3438 L-42.0958 -67.375 L-46.6114 -67.375 L-46.6114 -63.3438 L-47.6114 -63.3438 L-47.6114 -71.9062 L-46.6114 -71.9062 L-46.6114 -68.2656 L-42.0958 -68.2656 L-42.0958 -71.9062 L-41.0958 -71.9062 L-41.0958 -63.3438 Z"/><path style="fill:rgb(0,5,255); stroke:none;" d="M-36.3458 -61.5344 L-40.0958 -61.5344 L-40.0958 -62.0969 L-38.5958 -63.6125 Q-37.9083 -64.3 -37.6896 -64.5969 Q-37.4708 -64.8938 -37.3614 -65.175 Q-37.2521 -65.4563 -37.2521 -65.7844 Q-37.2521 -66.2375 -37.5255 -66.5031 Q-37.7989 -66.7688 -38.2989 -66.7688 Q-38.6427 -66.7688 -38.963 -66.6516 Q-39.2833 -66.5344 -39.6739 -66.2375 L-40.0177 -66.675 Q-39.2364 -67.3313 -38.2989 -67.3313 Q-37.5021 -67.3313 -37.0411 -66.9172 Q-36.5802 -66.5031 -36.5802 -65.8156 Q-36.5802 -65.2688 -36.8849 -64.7375 Q-37.1896 -64.2063 -38.0333 -63.3937 L-39.2833 -62.175 L-39.2833 -62.1437 L-36.3458 -62.1437 L-36.3458 -61.5344 Z"/></g><g transform="translate(81,75)" style="stroke-linecap:butt; font-size:8.4px; text-rendering:geometricPrecision; color-rendering:optimizeQuality; image-rendering:optimizeQuality; font-family:'Open Sans'; color-interpolation:linearRGB; stroke-miterlimit:5;"><path style="fill:none;" d="M0.433 22.25 L0 22.5 L-0 23"/><path style="fill:none;" d="M25.547 7.75 L25.98 7.5 L25.98 7"/><path style="fill:none;" d="M-25.547 7.75 L-25.98 7.5 L-25.98 7"/><path style="fill:none;" d="M25.98 -22 L25.98 -22.5 L25.547 -22.75"/><path style="fill:none;" d="M-25.98 -22 L-25.98 -22.5 L-26.413 -22.75"/><path style="fill:none;" d="M0.433 -37.25 L0 -37.5 L-0.433 -37.25"/></g></g></svg></svg></svg></svg>