<svg xmlns:ns0="http://www.w3.org/2000/svg" xmlns="http://www.w3.org/2000/svg"><g transform="translate(0, 0)"><ns0:svg width="110" viewBox="0 0 110 97" style="fill-opacity:1; color-rendering:auto; color-interpolation:auto; text-rendering:auto; stroke:black; stroke-linecap:square; stroke-miterlimit:10; shape-rendering:auto; stroke-opacity:1; fill:black; stroke-dasharray:none; font-weight:normal; stroke-width:1; font-family:'Open Sans'; font-style:normal; stroke-linejoin:miter; font-size:12; stroke-dashoffset:0; image-rendering:auto;" height="97" class="cas-substance-image"><ns0:svg class="cas-substance-single-component"><ns0:rect y="0" x="0" width="110" stroke="none" ry="7" rx="7" height="97" fill="white" class="cas-substance-group" /><ns0:svg y="0" x="0" width="110" viewBox="0 0 110 97" style="fill:black;" height="97" class="cas-substance-single-component-image"><ns0:svg><ns0:g><ns0:g transform="translate(55,48)" style="text-rendering:geometricPrecision; color-rendering:optimizeQuality; color-interpolation:linearRGB; stroke-linecap:butt; image-rendering:optimizeQuality;"><ns0:line y2="-11.8112" y1="0" x2="20.46" x1="0.003" style="fill:none;" /><ns0:line y2="-11.8214" y1="0" x2="-20.4716" x1="0.003" style="fill:none;" /><ns0:line y2="23.5234" y1="0" x2="0.003" x1="0.003" style="fill:none;" /><ns0:line y2="-23.6484" y1="0" x2="0.003" x1="0.003" style="fill:none;" /><ns0:line y2="0" y1="-11.8214" x2="51.963" x1="31.4884" style="fill:none;" /><ns0:line y2="0" y1="-11.8117" x2="-51.963" x1="-31.5004" style="fill:none;" /><ns0:line y2="45" y1="33.1888" x2="-25.977" x1="-5.52" style="fill:none;" /><ns0:line y2="-45" y1="-33.226" x2="25.983" x1="5.5905" style="fill:none;" /></ns0:g><ns0:g transform="translate(55,48)" style="fill:rgb(230,0,0); text-rendering:geometricPrecision; color-rendering:optimizeQuality; image-rendering:optimizeQuality; font-family:'Open Sans'; stroke:rgb(230,0,0); color-interpolation:linearRGB;"><ns0:path style="stroke:none;" d="M29.9205 -15.0703 Q29.9205 -13.0078 28.8814 -11.8281 Q27.8424 -10.6484 25.9986 -10.6484 Q24.108 -10.6484 23.0767 -11.8125 Q22.0455 -12.9766 22.0455 -15.0859 Q22.0455 -17.1797 23.0767 -18.3281 Q24.108 -19.4766 25.9986 -19.4766 Q27.858 -19.4766 28.8892 -18.3047 Q29.9205 -17.1328 29.9205 -15.0703 ZM23.0924 -15.0703 Q23.0924 -13.3359 23.8346 -12.4297 Q24.5767 -11.5234 25.9986 -11.5234 Q27.4205 -11.5234 28.1471 -12.4219 Q28.8736 -13.3203 28.8736 -15.0703 Q28.8736 -16.8047 28.1471 -17.6953 Q27.4205 -18.5859 25.9986 -18.5859 Q24.5767 -18.5859 23.8346 -17.6875 Q23.0924 -16.7891 23.0924 -15.0703 Z" /><ns0:path style="stroke:none;" d="M-22.0395 -15.0703 Q-22.0395 -13.0078 -23.0786 -11.8281 Q-24.1176 -10.6484 -25.9614 -10.6484 Q-27.852 -10.6484 -28.8832 -11.8125 Q-29.9145 -12.9766 -29.9145 -15.0859 Q-29.9145 -17.1797 -28.8832 -18.3281 Q-27.852 -19.4766 -25.9614 -19.4766 Q-24.102 -19.4766 -23.0707 -18.3047 Q-22.0395 -17.1328 -22.0395 -15.0703 ZM-28.8676 -15.0703 Q-28.8676 -13.3359 -28.1254 -12.4297 Q-27.3832 -11.5234 -25.9614 -11.5234 Q-24.5395 -11.5234 -23.8129 -12.4219 Q-23.0864 -13.3203 -23.0864 -15.0703 Q-23.0864 -16.8047 -23.8129 -17.6953 Q-24.5395 -18.5859 -25.9614 -18.5859 Q-27.3832 -18.5859 -28.1254 -17.6875 Q-28.8676 -16.7891 -28.8676 -15.0703 Z" /><ns0:path style="stroke:none;" d="M3.9405 29.9297 Q3.9405 31.9922 2.9014 33.1719 Q1.8624 34.3516 0.0186 34.3516 Q-1.872 34.3516 -2.9032 33.1875 Q-3.9345 32.0234 -3.9345 29.9141 Q-3.9345 27.8203 -2.9032 26.6719 Q-1.872 25.5234 0.0186 25.5234 Q1.878 25.5234 2.9093 26.6953 Q3.9405 27.8672 3.9405 29.9297 ZM-2.8876 29.9297 Q-2.8876 31.6641 -2.1454 32.5703 Q-1.4032 33.4766 0.0186 33.4766 Q1.4405 33.4766 2.1671 32.5781 Q2.8936 31.6797 2.8936 29.9297 Q2.8936 28.1953 2.1671 27.3047 Q1.4405 26.4141 0.0186 26.4141 Q-1.4032 26.4141 -2.1454 27.3125 Q-2.8876 28.2109 -2.8876 29.9297 Z" /><ns0:path style="stroke:none;" d="M3.9405 -30.0703 Q3.9405 -28.0078 2.9014 -26.8281 Q1.8624 -25.6484 0.0186 -25.6484 Q-1.872 -25.6484 -2.9032 -26.8125 Q-3.9345 -27.9766 -3.9345 -30.0859 Q-3.9345 -32.1797 -2.9032 -33.3281 Q-1.872 -34.4766 0.0186 -34.4766 Q1.878 -34.4766 2.9093 -33.3047 Q3.9405 -32.1328 3.9405 -30.0703 ZM-2.8876 -30.0703 Q-2.8876 -28.3359 -2.1454 -27.4297 Q-1.4032 -26.5234 0.0186 -26.5234 Q1.4405 -26.5234 2.1671 -27.4219 Q2.8936 -28.3203 2.8936 -30.0703 Q2.8936 -31.8047 2.1671 -32.6953 Q1.4405 -33.5859 0.0186 -33.5859 Q-1.4032 -33.5859 -2.1454 -32.6875 Q-2.8876 -31.7891 -2.8876 -30.0703 Z" /></ns0:g></ns0:g></ns0:svg></ns0:svg></ns0:svg></ns0:svg></g></svg>