<svg width="123" viewBox="0 0 123 93" style="fill-opacity:1; color-rendering:auto; color-interpolation:auto; text-rendering:auto; stroke:black; stroke-linecap:square; stroke-miterlimit:10; shape-rendering:auto; stroke-opacity:1; fill:black; stroke-dasharray:none; font-weight:normal; stroke-width:1; font-family:'Open Sans'; font-style:normal; stroke-linejoin:miter; font-size:12; stroke-dashoffset:0; image-rendering:auto;" height="93" class="cas-substance-image" xmlns:xlink="http://www.w3.org/1999/xlink" xmlns="http://www.w3.org/2000/svg"><svg class="cas-substance-single-component"><rect y="0" x="0" width="123" stroke="none" ry="7" rx="7" height="93" fill="white" class="cas-substance-group"/><svg y="0" x="0" width="123" viewBox="0 0 123 93" style="fill:black;" height="93" class="cas-substance-single-component-image"><svg><g><g transform="translate(67,46)" style="text-rendering:geometricPrecision; color-rendering:optimizeQuality; color-interpolation:linearRGB; stroke-linecap:butt; image-rendering:optimizeQuality;"><line y2="-33.3343" y1="-19.1283" x2="-49.2461" x1="-41.044" style="fill:none;"/><line y2="7.2683" y1="-7.1017" x2="-49.1965" x1="-40.8997" style="fill:none;"/><line y2="-12.99" y1="-12.99" x2="-7.5" x1="-32.5312" style="fill:none;"/><line y2="12.99" y1="33.7933" x2="7.5" x1="-4.5112" style="fill:none;"/><line y2="12.99" y1="-12.99" x2="7.5" x1="-7.5" style="fill:none;"/><line y2="9.49" y1="-12.9901" x2="9.5207" x1="-3.4585" style="fill:none;"/><line y2="-38.97" y1="-12.99" x2="7.5" x1="-7.5" style="fill:none;"/><line y2="12.99" y1="12.99" x2="37.5" x1="7.5" style="fill:none;"/><line y2="-38.97" y1="-38.97" x2="37.5" x1="7.5" style="fill:none;"/><line y2="-35.47" y1="-35.47" x2="35.4793" x1="9.5207" style="fill:none;"/><line y2="-12.99" y1="12.99" x2="52.5" x1="37.5" style="fill:none;"/><line y2="-12.9901" y1="9.49" x2="48.4585" x1="35.4793" style="fill:none;"/><line y2="-12.99" y1="-38.97" x2="52.5" x1="37.5" style="fill:none;"/><path style="stroke-linecap:square; stroke:none;" d="M-40.4688 -17.3962 L-38.0469 -17.3962 Q-36.3438 -17.3962 -35.5781 -16.8884 Q-34.8125 -16.3806 -34.8125 -15.2869 Q-34.8125 -14.5212 -35.2344 -14.0212 Q-35.6562 -13.5212 -36.4844 -13.3806 L-36.4844 -13.3181 Q-34.5312 -12.99 -34.5312 -11.2712 Q-34.5312 -10.1306 -35.3047 -9.4822 Q-36.0781 -8.8337 -37.4688 -8.8337 L-40.4688 -8.8337 L-40.4688 -17.3962 ZM-39.4688 -13.74 L-37.8281 -13.74 Q-36.7656 -13.74 -36.3047 -14.0681 Q-35.8438 -14.3962 -35.8438 -15.1775 Q-35.8438 -15.8962 -36.3594 -16.2166 Q-36.875 -16.5369 -38 -16.5369 L-39.4688 -16.5369 L-39.4688 -13.74 ZM-39.4688 -12.8962 L-39.4688 -9.6775 L-37.6719 -9.6775 Q-36.6406 -9.6775 -36.1172 -10.0837 Q-35.5938 -10.49 -35.5938 -11.3494 Q-35.5938 -12.1462 -36.1328 -12.5212 Q-36.6719 -12.8962 -37.7656 -12.8962 L-39.4688 -12.8962 Z"/></g><g transform="translate(67,46)" style="fill:rgb(230,0,0); text-rendering:geometricPrecision; color-rendering:optimizeQuality; image-rendering:optimizeQuality; font-family:'Open Sans'; stroke:rgb(230,0,0); color-interpolation:linearRGB;"><path style="stroke:none;" d="M-48.5625 -39.0403 Q-48.5625 -36.9778 -49.6016 -35.7981 Q-50.6406 -34.6184 -52.4844 -34.6184 Q-54.375 -34.6184 -55.4062 -35.7825 Q-56.4375 -36.9466 -56.4375 -39.0559 Q-56.4375 -41.1497 -55.4062 -42.2981 Q-54.375 -43.4466 -52.4844 -43.4466 Q-50.625 -43.4466 -49.5938 -42.2747 Q-48.5625 -41.1028 -48.5625 -39.0403 ZM-55.3906 -39.0403 Q-55.3906 -37.3059 -54.6484 -36.3997 Q-53.9062 -35.4934 -52.4844 -35.4934 Q-51.0625 -35.4934 -50.3359 -36.3919 Q-49.6094 -37.2903 -49.6094 -39.0403 Q-49.6094 -40.7747 -50.3359 -41.6653 Q-51.0625 -42.5559 -52.4844 -42.5559 Q-53.9062 -42.5559 -54.6484 -41.6575 Q-55.3906 -40.7591 -55.3906 -39.0403 Z"/><path style="stroke:none;" d="M-57.4375 -34.7434 L-58.4375 -34.7434 L-58.4375 -38.7747 L-62.9531 -38.7747 L-62.9531 -34.7434 L-63.9531 -34.7434 L-63.9531 -43.3059 L-62.9531 -43.3059 L-62.9531 -39.6653 L-58.4375 -39.6653 L-58.4375 -43.3059 L-57.4375 -43.3059 L-57.4375 -34.7434 Z"/><path style="stroke:none;" d="M-48.5625 12.9197 Q-48.5625 14.9822 -49.6016 16.1619 Q-50.6406 17.3416 -52.4844 17.3416 Q-54.375 17.3416 -55.4062 16.1775 Q-56.4375 15.0134 -56.4375 12.9041 Q-56.4375 10.8103 -55.4062 9.6619 Q-54.375 8.5134 -52.4844 8.5134 Q-50.625 8.5134 -49.5938 9.6853 Q-48.5625 10.8572 -48.5625 12.9197 ZM-55.3906 12.9197 Q-55.3906 14.6541 -54.6484 15.5603 Q-53.9062 16.4666 -52.4844 16.4666 Q-51.0625 16.4666 -50.3359 15.5681 Q-49.6094 14.6697 -49.6094 12.9197 Q-49.6094 11.1853 -50.3359 10.2947 Q-51.0625 9.4041 -52.4844 9.4041 Q-53.9062 9.4041 -54.6484 10.3025 Q-55.3906 11.2009 -55.3906 12.9197 Z"/><path style="stroke:none;" d="M-57.4375 17.2166 L-58.4375 17.2166 L-58.4375 13.1853 L-62.9531 13.1853 L-62.9531 17.2166 L-63.9531 17.2166 L-63.9531 8.6541 L-62.9531 8.6541 L-62.9531 12.2947 L-58.4375 12.2947 L-58.4375 8.6541 L-57.4375 8.6541 L-57.4375 17.2166 Z"/><path style="fill:rgb(148,108,0); stroke:none;" d="M-4.8047 40.9075 Q-4.8047 42.0325 -5.625 42.6731 Q-6.4453 43.3138 -7.8516 43.3138 Q-9.3828 43.3138 -10.1953 42.9075 L-10.1953 41.9544 Q-9.6641 42.1731 -9.0469 42.3059 Q-8.4297 42.4388 -7.8203 42.4388 Q-6.8203 42.4388 -6.3203 42.0559 Q-5.8203 41.6731 -5.8203 41.0013 Q-5.8203 40.5638 -6 40.2747 Q-6.1797 39.9856 -6.5938 39.7434 Q-7.0078 39.5013 -7.8672 39.2044 Q-9.0547 38.7825 -9.5703 38.1966 Q-10.0859 37.6106 -10.0859 36.6575 Q-10.0859 35.6731 -9.3438 35.0872 Q-8.6016 34.5013 -7.3672 34.5013 Q-6.1016 34.5013 -5.0234 34.97 L-5.3359 35.8294 Q-6.3984 35.3919 -7.3984 35.3919 Q-8.1953 35.3919 -8.6406 35.7278 Q-9.0859 36.0638 -9.0859 36.6731 Q-9.0859 37.1106 -8.9219 37.3997 Q-8.7578 37.6888 -8.3672 37.9231 Q-7.9766 38.1575 -7.1641 38.4544 Q-5.8203 38.9231 -5.3125 39.4778 Q-4.8047 40.0325 -4.8047 40.9075 Z"/><path style="fill:rgb(148,108,0); stroke:none;" d="M-11.1953 43.1888 L-12.1953 43.1888 L-12.1953 39.1575 L-16.7109 39.1575 L-16.7109 43.1888 L-17.7109 43.1888 L-17.7109 34.6263 L-16.7109 34.6263 L-16.7109 38.2669 L-12.1953 38.2669 L-12.1953 34.6263 L-11.1953 34.6263 L-11.1953 43.1888 Z"/></g><g transform="translate(67,46)" style="stroke-linecap:butt; text-rendering:geometricPrecision; color-rendering:optimizeQuality; image-rendering:optimizeQuality; font-family:'Open Sans'; color-interpolation:linearRGB; stroke-miterlimit:5;"><path style="fill:none;" d="M-7.25 -12.557 L-7.5 -12.99 L-8 -12.99"/><path style="fill:none;" d="M7.25 12.557 L7.5 12.99 L7.25 13.423"/><path style="fill:none;" d="M7.25 -38.537 L7.5 -38.97 L8 -38.97"/><path style="fill:none;" d="M37 12.99 L37.5 12.99 L37.75 12.557"/><path style="fill:none;" d="M37 -38.97 L37.5 -38.97 L37.75 -38.537"/><path style="fill:none;" d="M52.25 -12.557 L52.5 -12.99 L52.25 -13.423"/></g></g></svg></svg></svg></svg>