<svg xmlns:ns0="http://www.w3.org/2000/svg" xmlns="http://www.w3.org/2000/svg"><g transform="translate(0, 0)"><ns0:svg width="196" viewBox="0 0 196 180" style="fill-opacity:1; color-rendering:auto; color-interpolation:auto; text-rendering:auto; stroke:black; stroke-linecap:square; stroke-miterlimit:10; shape-rendering:auto; stroke-opacity:1; fill:black; stroke-dasharray:none; font-weight:normal; stroke-width:1; font-family:'Open Sans'; font-style:normal; stroke-linejoin:miter; font-size:12; stroke-dashoffset:0; image-rendering:auto;" height="180" class="cas-substance-image"><ns0:svg class="cas-substance-single-component"><ns0:rect y="0" x="0" width="196" stroke="none" ry="7" rx="7" height="180" fill="white" class="cas-substance-group" /><ns0:svg y="0" x="0" width="196" viewBox="0 0 196 180" style="fill:black;" height="180" class="cas-substance-single-component-image"><ns0:svg><ns0:g><ns0:g transform="translate(98,90)" style="text-rendering:geometricPrecision; color-rendering:optimizeQuality; color-interpolation:linearRGB; stroke-linecap:butt; image-rendering:optimizeQuality;"><ns0:line y2="-7.5" y1="7.5" x2="12.99" x1="-12.99" style="fill:none;" /><ns0:line y2="-7.5" y1="7.5" x2="-38.97" x1="-12.99" style="fill:none;" /><ns0:line y2="31.0234" y1="7.5" x2="-12.99" x1="-12.99" style="fill:none;" /><ns0:line y2="4.2586" y1="-7.5" x2="33.3559" x1="12.99" style="fill:none;" /><ns0:line y2="-31.1484" y1="-7.5" x2="-38.97" x1="-38.97" style="fill:none;" /><ns0:line y2="49.5649" y1="40.6888" x2="-33.8864" x1="-18.513" style="fill:none;" /><ns0:line y2="-4.5652" y1="4.2742" x2="59.8694" x1="44.5577" style="fill:none;" /><ns0:line y2="-49.5652" y1="-40.7412" x2="-59.8694" x1="-44.5843" style="fill:none;" /><ns0:line y2="39.1628" y1="48.0496" x2="-58.5725" x1="-43.1787" style="fill:none;" /><ns0:line y2="42.1939" y1="51.0808" x2="-60.3224" x1="-44.9286" style="fill:none;" /><ns0:line y2="76.0234" y1="58.6562" x2="-40.72" x1="-40.72" style="fill:none;" /><ns0:line y2="76.0234" y1="58.6562" x2="-37.22" x1="-37.22" style="fill:none;" /><ns0:line y2="5.7741" y1="-3.0494" x2="84.4438" x1="69.1616" style="fill:none;" /><ns0:line y2="2.7431" y1="-6.0804" x2="86.1939" x1="70.9116" style="fill:none;" /><ns0:line y2="-31.1484" y1="-13.9062" x2="66.703" x1="66.703" style="fill:none;" /><ns0:line y2="-31.1484" y1="-13.9062" x2="63.203" x1="63.203" style="fill:none;" /><ns0:line y2="-76.1484" y1="-58.9062" x2="-63.203" x1="-63.203" style="fill:none;" /><ns0:line y2="-76.1484" y1="-58.9062" x2="-66.703" x1="-66.703" style="fill:none;" /><ns0:line y2="-42.2416" y1="-51.0804" x2="-86.2205" x1="-70.9116" style="fill:none;" /><ns0:line y2="-39.2105" y1="-48.0494" x2="-84.4705" x1="-69.1616" style="fill:none;" /><ns0:path style="fill:none; stroke-miterlimit:5;" d="M12.557 -7.25 L12.99 -7.5 L13.423 -7.25" /><ns0:path style="fill:none; stroke-miterlimit:5;" d="M-38.537 -7.25 L-38.97 -7.5 L-38.97 -8" /></ns0:g><ns0:g transform="translate(98,90)" style="stroke-linecap:butt; fill:rgb(230,0,0); text-rendering:geometricPrecision; color-rendering:optimizeQuality; image-rendering:optimizeQuality; font-family:'Open Sans'; stroke:rgb(230,0,0); color-interpolation:linearRGB; stroke-miterlimit:5;"><ns0:path style="stroke:none;" d="M-9.0525 37.4297 Q-9.0525 39.4922 -10.0916 40.6719 Q-11.1306 41.8516 -12.9744 41.8516 Q-14.865 41.8516 -15.8962 40.6875 Q-16.9275 39.5234 -16.9275 37.4141 Q-16.9275 35.3203 -15.8962 34.1719 Q-14.865 33.0234 -12.9744 33.0234 Q-11.115 33.0234 -10.0837 34.1953 Q-9.0525 35.3672 -9.0525 37.4297 ZM-15.8806 37.4297 Q-15.8806 39.1641 -15.1384 40.0703 Q-14.3962 40.9766 -12.9744 40.9766 Q-11.5525 40.9766 -10.8259 40.0781 Q-10.0994 39.1797 -10.0994 37.4297 Q-10.0994 35.6953 -10.8259 34.8047 Q-11.5525 33.9141 -12.9744 33.9141 Q-14.3962 33.9141 -15.1384 34.8125 Q-15.8806 35.7109 -15.8806 37.4297 Z" /><ns0:path style="stroke:none;" d="M42.9075 7.4297 Q42.9075 9.4922 41.8684 10.6719 Q40.8294 11.8516 38.9856 11.8516 Q37.095 11.8516 36.0638 10.6875 Q35.0325 9.5234 35.0325 7.4141 Q35.0325 5.3203 36.0638 4.1719 Q37.095 3.0234 38.9856 3.0234 Q40.845 3.0234 41.8763 4.1953 Q42.9075 5.3672 42.9075 7.4297 ZM36.0794 7.4297 Q36.0794 9.1641 36.8216 10.0703 Q37.5638 10.9766 38.9856 10.9766 Q40.4075 10.9766 41.1341 10.0781 Q41.8606 9.1797 41.8606 7.4297 Q41.8606 5.6953 41.1341 4.8047 Q40.4075 3.9141 38.9856 3.9141 Q37.5638 3.9141 36.8216 4.8125 Q36.0794 5.7109 36.0794 7.4297 Z" /><ns0:path style="stroke:none;" d="M-35.0325 -37.5703 Q-35.0325 -35.5078 -36.0716 -34.3281 Q-37.1106 -33.1484 -38.9544 -33.1484 Q-40.845 -33.1484 -41.8763 -34.3125 Q-42.9075 -35.4766 -42.9075 -37.5859 Q-42.9075 -39.6797 -41.8763 -40.8281 Q-40.845 -41.9766 -38.9544 -41.9766 Q-37.095 -41.9766 -36.0638 -40.8047 Q-35.0325 -39.6328 -35.0325 -37.5703 ZM-41.8606 -37.5703 Q-41.8606 -35.8359 -41.1184 -34.9297 Q-40.3763 -34.0234 -38.9544 -34.0234 Q-37.5325 -34.0234 -36.8059 -34.9219 Q-36.0794 -35.8203 -36.0794 -37.5703 Q-36.0794 -39.3047 -36.8059 -40.1953 Q-37.5325 -41.0859 -38.9544 -41.0859 Q-40.3763 -41.0859 -41.1184 -40.1875 Q-41.8606 -39.2891 -41.8606 -37.5703 Z" /><ns0:path style="fill:rgb(0,5,255); stroke:none;" d="M-35.6184 56.6562 L-36.7591 56.6562 L-41.4466 49.4688 L-41.4934 49.4688 Q-41.3997 50.7344 -41.3997 51.7812 L-41.3997 56.6562 L-42.3216 56.6562 L-42.3216 48.0938 L-41.1966 48.0938 L-36.5247 55.25 L-36.4778 55.25 Q-36.4778 55.0938 -36.5247 54.2344 Q-36.5716 53.375 -36.5559 53 L-36.5559 48.0938 L-35.6184 48.0938 L-35.6184 56.6562 Z" /><ns0:path style="fill:rgb(0,5,255); stroke:none;" d="M68.3046 -3.3438 L67.1639 -3.3438 L62.4764 -10.5312 L62.4296 -10.5312 Q62.5233 -9.2656 62.5233 -8.2188 L62.5233 -3.3438 L61.6014 -3.3438 L61.6014 -11.9062 L62.7264 -11.9062 L67.3983 -4.75 L67.4452 -4.75 Q67.4452 -4.9062 67.3983 -5.7656 Q67.3514 -6.625 67.3671 -7 L67.3671 -11.9062 L68.3046 -11.9062 L68.3046 -3.3438 Z" /><ns0:path style="fill:rgb(0,5,255); stroke:none;" d="M-61.6014 -48.3438 L-62.7421 -48.3438 L-67.4296 -55.5312 L-67.4764 -55.5312 Q-67.3827 -54.2656 -67.3827 -53.2188 L-67.3827 -48.3438 L-68.3046 -48.3438 L-68.3046 -56.9062 L-67.1796 -56.9062 L-62.5077 -49.75 L-62.4608 -49.75 Q-62.4608 -49.9062 -62.5077 -50.7656 Q-62.5546 -51.625 -62.5389 -52 L-62.5389 -56.9062 L-61.6014 -56.9062 L-61.6014 -48.3438 Z" /><ns0:path style="stroke:none;" d="M-61.0155 37.4297 Q-61.0155 39.4922 -62.0546 40.6719 Q-63.0936 41.8516 -64.9374 41.8516 Q-66.828 41.8516 -67.8593 40.6875 Q-68.8905 39.5234 -68.8905 37.4141 Q-68.8905 35.3203 -67.8593 34.1719 Q-66.828 33.0234 -64.9374 33.0234 Q-63.078 33.0234 -62.0468 34.1953 Q-61.0155 35.3672 -61.0155 37.4297 ZM-67.8436 37.4297 Q-67.8436 39.1641 -67.1014 40.0703 Q-66.3593 40.9766 -64.9374 40.9766 Q-63.5155 40.9766 -62.7889 40.0781 Q-62.0624 39.1797 -62.0624 37.4297 Q-62.0624 35.6953 -62.7889 34.8047 Q-63.5155 33.9141 -64.9374 33.9141 Q-66.3593 33.9141 -67.1014 34.8125 Q-67.8436 35.7109 -67.8436 37.4297 Z" /><ns0:path style="stroke:none;" d="M-35.0325 82.4297 Q-35.0325 84.4922 -36.0716 85.6719 Q-37.1106 86.8516 -38.9544 86.8516 Q-40.845 86.8516 -41.8763 85.6875 Q-42.9075 84.5234 -42.9075 82.4141 Q-42.9075 80.3203 -41.8763 79.1719 Q-40.845 78.0234 -38.9544 78.0234 Q-37.095 78.0234 -36.0638 79.1953 Q-35.0325 80.3672 -35.0325 82.4297 ZM-41.8606 82.4297 Q-41.8606 84.1641 -41.1184 85.0703 Q-40.3763 85.9766 -38.9544 85.9766 Q-37.5325 85.9766 -36.8059 85.0781 Q-36.0794 84.1797 -36.0794 82.4297 Q-36.0794 80.6953 -36.8059 79.8047 Q-37.5325 78.9141 -38.9544 78.9141 Q-40.3763 78.9141 -41.1184 79.8125 Q-41.8606 80.7109 -41.8606 82.4297 Z" /><ns0:path style="stroke:none;" d="M94.8705 7.4297 Q94.8705 9.4922 93.8314 10.6719 Q92.7924 11.8516 90.9486 11.8516 Q89.058 11.8516 88.0267 10.6875 Q86.9955 9.5234 86.9955 7.4141 Q86.9955 5.3203 88.0267 4.1719 Q89.058 3.0234 90.9486 3.0234 Q92.808 3.0234 93.8392 4.1953 Q94.8705 5.3672 94.8705 7.4297 ZM88.0424 7.4297 Q88.0424 9.1641 88.7846 10.0703 Q89.5267 10.9766 90.9486 10.9766 Q92.3705 10.9766 93.0971 10.0781 Q93.8236 9.1797 93.8236 7.4297 Q93.8236 5.6953 93.0971 4.8047 Q92.3705 3.9141 90.9486 3.9141 Q89.5267 3.9141 88.7846 4.8125 Q88.0424 5.7109 88.0424 7.4297 Z" /><ns0:path style="stroke:none;" d="M68.8905 -37.5703 Q68.8905 -35.5078 67.8514 -34.3281 Q66.8124 -33.1484 64.9686 -33.1484 Q63.078 -33.1484 62.0468 -34.3125 Q61.0155 -35.4766 61.0155 -37.5859 Q61.0155 -39.6797 62.0468 -40.8281 Q63.078 -41.9766 64.9686 -41.9766 Q66.828 -41.9766 67.8593 -40.8047 Q68.8905 -39.6328 68.8905 -37.5703 ZM62.0624 -37.5703 Q62.0624 -35.8359 62.8046 -34.9297 Q63.5468 -34.0234 64.9686 -34.0234 Q66.3905 -34.0234 67.1171 -34.9219 Q67.8436 -35.8203 67.8436 -37.5703 Q67.8436 -39.3047 67.1171 -40.1953 Q66.3905 -41.0859 64.9686 -41.0859 Q63.5468 -41.0859 62.8046 -40.1875 Q62.0624 -39.2891 62.0624 -37.5703 Z" /><ns0:path style="stroke:none;" d="M-61.0155 -82.5703 Q-61.0155 -80.5078 -62.0546 -79.3281 Q-63.0936 -78.1484 -64.9374 -78.1484 Q-66.828 -78.1484 -67.8593 -79.3125 Q-68.8905 -80.4766 -68.8905 -82.5859 Q-68.8905 -84.6797 -67.8593 -85.8281 Q-66.828 -86.9766 -64.9374 -86.9766 Q-63.078 -86.9766 -62.0468 -85.8047 Q-61.0155 -84.6328 -61.0155 -82.5703 ZM-67.8436 -82.5703 Q-67.8436 -80.8359 -67.1014 -79.9297 Q-66.3593 -79.0234 -64.9374 -79.0234 Q-63.5155 -79.0234 -62.7889 -79.9219 Q-62.0624 -80.8203 -62.0624 -82.5703 Q-62.0624 -84.3047 -62.7889 -85.1953 Q-63.5155 -86.0859 -64.9374 -86.0859 Q-66.3593 -86.0859 -67.1014 -85.1875 Q-67.8436 -84.2891 -67.8436 -82.5703 Z" /><ns0:path style="stroke:none;" d="M-86.9955 -37.5703 Q-86.9955 -35.5078 -88.0346 -34.3281 Q-89.0736 -33.1484 -90.9174 -33.1484 Q-92.808 -33.1484 -93.8392 -34.3125 Q-94.8705 -35.4766 -94.8705 -37.5859 Q-94.8705 -39.6797 -93.8392 -40.8281 Q-92.808 -41.9766 -90.9174 -41.9766 Q-89.058 -41.9766 -88.0267 -40.8047 Q-86.9955 -39.6328 -86.9955 -37.5703 ZM-93.8236 -37.5703 Q-93.8236 -35.8359 -93.0814 -34.9297 Q-92.3392 -34.0234 -90.9174 -34.0234 Q-89.4955 -34.0234 -88.7689 -34.9219 Q-88.0424 -35.8203 -88.0424 -37.5703 Q-88.0424 -39.3047 -88.7689 -40.1953 Q-89.4955 -41.0859 -90.9174 -41.0859 Q-92.3392 -41.0859 -93.0814 -40.1875 Q-93.8236 -39.2891 -93.8236 -37.5703 Z" /></ns0:g></ns0:g></ns0:svg></ns0:svg></ns0:svg></ns0:svg></g></svg>