<svg width="325" viewBox="0 0 325 270" style="fill-opacity:1; color-rendering:auto; color-interpolation:auto; text-rendering:auto; stroke:black; stroke-linecap:square; stroke-miterlimit:10; shape-rendering:auto; stroke-opacity:1; fill:black; stroke-dasharray:none; font-weight:normal; stroke-width:1; font-family:'Open Sans'; font-style:normal; stroke-linejoin:miter; font-size:12; stroke-dashoffset:0; image-rendering:auto;" height="270" class="cas-substance-image" xmlns:xlink="http://www.w3.org/1999/xlink" xmlns="http://www.w3.org/2000/svg"><svg class="cas-substance-single-component"><rect y="0" x="0" width="325" stroke="none" ry="7" rx="7" height="270" fill="white" class="cas-substance-group"/><svg y="0" x="0" width="325" viewBox="0 0 325 270" style="fill:black;" height="270" class="cas-substance-single-component-image"><svg><g><g transform="translate(164,133)" style="text-rendering:geometricPrecision; color-rendering:optimizeQuality; color-interpolation:linearRGB; stroke-linecap:butt; image-rendering:optimizeQuality;"><line y2="-50.931" y1="-26.661" x2="32.688" x1="15.054" style="fill:none;"/><line y2="-30.9137" y1="-28.2958" x2="-8.6716" x1="16.2418" style="fill:none;"/><line y2="-27.4328" y1="-24.9206" x2="-9.0373" x1="14.8711" style="fill:none;"/><path style="stroke:none;" d="M27.7118 0.5406 L26.7982 0.9474 L12.6133 -24.1524 L16.6857 -29.7574 Z"/><line y2="-72.219" y1="-50.931" x2="23.2114" x1="32.688" style="fill:none;"/><line y2="-102.609" y1="-83.5765" x2="38.118" x1="24.2918" style="fill:none;"/><line y2="-130.014" y1="-102.609" x2="25.917" x1="38.118" style="fill:none;"/><line y2="-98.3563" y1="-100.9742" x2="61.8466" x1="36.9304" style="fill:none;"/><line y2="-101.8371" y1="-104.455" x2="62.2123" x1="37.2962" style="fill:none;"/><line y2="0.744" y1="-11.0774" x2="79.218" x1="58.7434" style="fill:none;"/><path style="stroke:none;" d="M45.5606 -13.1896 L44.7472 -12.5978 L44.7472 -12.5978 L47.5536 -7.7312 L48.4728 -8.1396 L48.4728 -8.1396 L45.5606 -13.1896 ZM43.1204 -11.4141 L42.307 -10.8223 L42.307 -10.8223 L44.7961 -6.506 L45.7153 -6.9144 L43.1204 -11.4141 ZM40.6802 -9.6387 L39.8668 -9.0469 L42.0387 -5.2808 L42.9578 -5.6892 L40.6802 -9.6387 ZM38.24 -7.8633 L37.4266 -7.2715 L39.2812 -4.0555 L40.2003 -4.4639 L38.24 -7.8633 ZM35.7998 -6.0879 L34.9864 -5.4961 L36.5237 -2.8303 L37.4429 -3.2387 L35.7998 -6.0879 ZM33.3596 -4.3125 L32.5462 -3.7207 L33.7662 -1.6051 L34.6854 -2.0135 L33.3596 -4.3125 ZM30.9194 -2.5371 L30.106 -1.9452 L31.0088 -0.3798 L31.0088 -0.3798 L31.9279 -0.7882 L30.9194 -2.5371 ZM28.4792 -0.7616 L27.6658 -0.1698 L28.2513 0.8454 L28.2513 0.8454 L29.1705 0.437 L29.1705 0.437 L28.4792 -0.7616 Z"/><line y2="-14.256" y1="0.744" x2="105.198" x1="79.218" style="fill:none;"/><line y2="24.2674" y1="-0.2664" x2="77.468" x1="77.468" style="fill:none;"/><line y2="24.2674" y1="-0.2664" x2="80.968" x1="80.968" style="fill:none;"/><line y2="0.744" y1="-14.256" x2="131.178" x1="105.198" style="fill:none;"/><line y2="-14.256" y1="0.744" x2="157.161" x1="131.178" style="fill:none;"/><path style="stroke:none;" d="M-0.7777 10.0663 L-1.7723 9.9617 L-1.1236 -20.1345 L4.8436 -19.5075 Z"/><path style="stroke:none;" d="M-52.988 9.581 L-53.488 10.447 L-75.2127 0.7907 L-72.2126 -4.4054 Z"/><path style="stroke:none;" d="M-65.4694 17.4024 L-70.3025 20.7841 L-69.6502 21.5485 L-69.6502 21.5485 L-64.9743 18.2767 L-65.4694 17.4024 ZM-63.9842 20.0254 L-68.3457 23.0772 L-67.6934 23.8415 L-63.4891 20.8998 L-63.4891 20.8998 L-63.9842 20.0254 ZM-62.4989 22.6484 L-66.3889 25.3702 L-66.3889 25.3702 L-65.7366 26.1346 L-62.0038 23.5228 L-62.4989 22.6484 ZM-61.0137 25.2715 L-64.432 27.6633 L-63.7798 28.4276 L-63.7798 28.4276 L-60.5186 26.1458 L-61.0137 25.2715 ZM-59.5285 27.8945 L-62.4752 29.9563 L-62.4752 29.9563 L-61.8229 30.7207 L-61.8229 30.7207 L-59.0334 28.7688 L-59.5285 27.8945 ZM-58.0432 30.5175 L-60.5184 32.2494 L-60.5184 32.2494 L-59.8661 33.0137 L-59.8661 33.0137 L-57.5481 31.3919 L-58.0432 30.5175 ZM-56.558 33.1405 L-58.5616 34.5424 L-58.5616 34.5424 L-57.9093 35.3068 L-57.9093 35.3068 L-56.0629 34.0149 L-56.558 33.1405 ZM-55.0728 35.7636 L-56.6047 36.8355 L-56.6047 36.8355 L-55.9525 37.5998 L-54.5777 36.6379 L-54.5777 36.6379 L-55.0728 35.7636 ZM-53.5875 38.3866 L-54.6479 39.1285 L-54.6479 39.1285 L-53.9957 39.8929 L-53.0924 39.2609 L-53.0924 39.2609 L-53.5875 38.3866 Z"/><path style="stroke:none;" d="M-78.7648 54.8027 L-79.6712 55.2253 L-94.6149 29.0928 L-89.1771 26.5572 Z"/><path style="stroke:none;" d="M-53.8224 100.8109 L-53.9284 101.8109 L-52.5476 101.8109 L-52.6536 100.8109 ZM-54.1403 103.8109 L-54.2463 104.8109 L-52.2297 104.8109 L-52.3357 103.8109 ZM-54.4582 106.8109 L-54.5642 107.8109 L-51.9118 107.8109 L-52.0178 106.8109 ZM-54.7761 109.8109 L-54.882 110.8109 L-51.594 110.8109 L-51.6999 109.8109 ZM-55.094 112.8109 L-55.1999 113.8109 L-51.2761 113.8109 L-51.382 112.8109 ZM-55.4118 115.8109 L-55.5178 116.8109 L-50.9582 116.8109 L-51.0642 115.8109 ZM-55.7297 118.8109 L-55.8357 119.8109 L-50.6403 119.8109 L-50.7463 118.8109 ZM-56.0476 121.8109 L-56.1536 122.8109 L-50.3224 122.8109 L-50.4284 121.8109 Z"/><line y2="86.0244" y1="98.3038" x2="-129.428" x1="-150.6983" style="fill:none;"/><line y2="82.9933" y1="95.2726" x2="-131.178" x1="-152.4482" style="fill:none;"/><line y2="10.014" y1="0.744" x2="-1.275" x1="27.255" style="fill:none;"/><line y2="25.014" y1="0.744" x2="44.889" x1="27.255" style="fill:none;"/><line y2="40.014" y1="10.014" x2="-1.275" x1="-1.275" style="fill:none;"/><line y2="-4.986" y1="10.014" x2="-27.255" x1="-1.275" style="fill:none;"/><line y2="49.287" y1="25.014" x2="27.255" x1="44.889" style="fill:none;"/><line y2="49.287" y1="40.014" x2="27.255" x1="-1.275" style="fill:none;"/><line y2="55.014" y1="40.014" x2="-27.255" x1="-1.275" style="fill:none;"/><line y2="10.014" y1="-4.986" x2="-53.238" x1="-27.255" style="fill:none;"/><line y2="40.014" y1="55.014" x2="-53.238" x1="-27.255" style="fill:none;"/><line y2="85.014" y1="55.014" x2="-27.255" x1="-27.255" style="fill:none;"/><line y2="40.014" y1="10.014" x2="-53.238" x1="-53.238" style="fill:none;"/><line y2="55.014" y1="40.014" x2="-79.218" x1="-53.238" style="fill:none;"/><line y2="100.014" y1="85.014" x2="-53.238" x1="-27.255" style="fill:none;"/><line y2="85.014" y1="55.014" x2="-79.218" x1="-79.218" style="fill:none;"/><line y2="40.014" y1="55.014" x2="-105.198" x1="-79.218" style="fill:none;"/><line y2="85.014" y1="100.014" x2="-79.218" x1="-53.238" style="fill:none;"/><line y2="100.014" y1="85.014" x2="-105.198" x1="-79.218" style="fill:none;"/><line y2="95.9725" y1="82.9933" x2="-105.1981" x1="-82.718" style="fill:none;"/><line y2="55.014" y1="40.014" x2="-131.178" x1="-105.198" style="fill:none;"/><line y2="57.0347" y1="44.0555" x2="-127.678" x1="-105.1979" style="fill:none;"/><line y2="85.014" y1="100.014" x2="-131.178" x1="-105.198" style="fill:none;"/><line y2="85.014" y1="55.014" x2="-131.178" x1="-131.178" style="fill:none;"/><path style="stroke:none;" d="M0.3279 41.3014 L-0.8907 42.0343 L-0.8907 42.0343 L-0.4695 42.9476 L-0.4695 42.9476 L0.9364 42.102 L0.9364 42.102 L0.3279 41.3014 ZM2.1535 43.7032 L0.3728 44.7742 L0.3728 44.7742 L0.7939 45.6875 L0.7939 45.6875 L2.762 44.5038 L2.762 44.5038 L2.1535 43.7032 ZM3.979 46.105 L1.6362 47.5141 L1.6362 47.5141 L2.0574 48.4274 L2.0574 48.4274 L4.5876 46.9056 L4.5876 46.9056 L3.979 46.105 ZM5.8046 48.5067 L2.8997 50.254 L2.8997 50.254 L3.3208 51.1673 L3.3208 51.1673 L6.4131 49.3073 L6.4131 49.3073 L5.8046 48.5067 ZM7.6302 50.9085 L4.1631 52.9938 L4.1631 52.9938 L4.5843 53.9071 L4.5843 53.9071 L8.2387 51.7091 L8.2387 51.7091 L7.6302 50.9085 ZM9.4558 53.3103 L5.4266 55.7337 L5.4266 55.7337 L5.8477 56.647 L5.8477 56.647 L10.0643 54.1109 L10.0643 54.1109 L9.4558 53.3103 ZM11.2814 55.7121 L6.69 58.4736 L6.69 58.4736 L7.1112 59.3869 L7.1112 59.3869 L11.8899 56.5127 L11.8899 56.5127 L11.2814 55.7121 Z"/><path style="stroke:none;" d="M-27.6646 55.3008 L-26.8454 54.7272 L-11.8241 71.8248 L-16.7393 75.2659 Z"/><path style="fill:none; stroke-miterlimit:5;" d="M32.3941 -50.5265 L32.688 -50.931 L32.4847 -51.3878"/></g><g transform="translate(164,133)" style="stroke-linecap:butt; fill:rgb(230,0,0); text-rendering:geometricPrecision; color-rendering:optimizeQuality; image-rendering:optimizeQuality; font-family:'Open Sans'; stroke:rgb(230,0,0); color-interpolation:linearRGB; stroke-miterlimit:5;"><path style="stroke:none;" d="M-10.8435 -29.8663 Q-10.8435 -27.8038 -11.8826 -26.6241 Q-12.9216 -25.4444 -14.7654 -25.4444 Q-16.656 -25.4444 -17.6873 -26.6085 Q-18.7185 -27.7726 -18.7185 -29.8819 Q-18.7185 -31.9757 -17.6873 -33.1241 Q-16.656 -34.2726 -14.7654 -34.2726 Q-12.906 -34.2726 -11.8748 -33.1007 Q-10.8435 -31.9288 -10.8435 -29.8663 ZM-17.6716 -29.8663 Q-17.6716 -28.1319 -16.9294 -27.2257 Q-16.1873 -26.3194 -14.7654 -26.3194 Q-13.3435 -26.3194 -12.6169 -27.2179 Q-11.8904 -28.1163 -11.8904 -29.8663 Q-11.8904 -31.6007 -12.6169 -32.4913 Q-13.3435 -33.3819 -14.7654 -33.3819 Q-16.1873 -33.3819 -16.9294 -32.4835 Q-17.6716 -31.5851 -17.6716 -29.8663 Z"/><path style="stroke:none;" d="M24.4245 -78.4093 Q24.4245 -76.3468 23.3854 -75.1671 Q22.3464 -73.9874 20.5026 -73.9874 Q18.612 -73.9874 17.5807 -75.1515 Q16.5495 -76.3156 16.5495 -78.4249 Q16.5495 -80.5187 17.5807 -81.6671 Q18.612 -82.8156 20.5026 -82.8156 Q22.362 -82.8156 23.3932 -81.6437 Q24.4245 -80.4718 24.4245 -78.4093 ZM17.5964 -78.4093 Q17.5964 -76.6749 18.3386 -75.7687 Q19.0807 -74.8624 20.5026 -74.8624 Q21.9245 -74.8624 22.6511 -75.7609 Q23.3776 -76.6593 23.3776 -78.4093 Q23.3776 -80.1437 22.6511 -81.0343 Q21.9245 -81.9249 20.5026 -81.9249 Q19.0807 -81.9249 18.3386 -81.0265 Q17.5964 -80.1281 17.5964 -78.4093 Z"/><path style="fill:none; stroke:black;" d="M37.8241 -102.2045 L38.118 -102.609 L37.9146 -103.0658"/><path style="stroke:none;" d="M71.8935 -99.5443 Q71.8935 -97.4818 70.8544 -96.3021 Q69.8154 -95.1224 67.9716 -95.1224 Q66.081 -95.1224 65.0497 -96.2865 Q64.0185 -97.4506 64.0185 -99.5599 Q64.0185 -101.6537 65.0497 -102.8021 Q66.081 -103.9506 67.9716 -103.9506 Q69.831 -103.9506 70.8622 -102.7787 Q71.8935 -101.6068 71.8935 -99.5443 ZM65.0654 -99.5443 Q65.0654 -97.8099 65.8076 -96.9037 Q66.5497 -95.9974 67.9716 -95.9974 Q69.3935 -95.9974 70.1201 -96.8959 Q70.8466 -97.7943 70.8466 -99.5443 Q70.8466 -101.2787 70.1201 -102.1693 Q69.3935 -103.0599 67.9716 -103.0599 Q66.5497 -103.0599 65.8076 -102.1615 Q65.0654 -101.2631 65.0654 -99.5443 Z"/><path style="stroke:none;" d="M57.1755 -14.3263 Q57.1755 -12.2638 56.1364 -11.0841 Q55.0974 -9.9044 53.2536 -9.9044 Q51.363 -9.9044 50.3317 -11.0685 Q49.3005 -12.2326 49.3005 -14.3419 Q49.3005 -16.4357 50.3317 -17.5841 Q51.363 -18.7326 53.2536 -18.7326 Q55.113 -18.7326 56.1442 -17.5607 Q57.1755 -16.3888 57.1755 -14.3263 ZM50.3474 -14.3263 Q50.3474 -12.5919 51.0896 -11.6857 Q51.8317 -10.7794 53.2536 -10.7794 Q54.6755 -10.7794 55.4021 -11.6779 Q56.1286 -12.5763 56.1286 -14.3263 Q56.1286 -16.0607 55.4021 -16.9513 Q54.6755 -17.8419 53.2536 -17.8419 Q51.8317 -17.8419 51.0896 -16.9435 Q50.3474 -16.0451 50.3474 -14.3263 Z"/><path style="fill:none; stroke:black;" d="M78.785 0.494 L79.218 0.744 L79.651 0.494"/><path style="fill:none; stroke:black;" d="M104.765 -14.006 L105.198 -14.256 L105.631 -14.006"/><path style="stroke:none;" d="M83.1555 30.6737 Q83.1555 32.7362 82.1164 33.9159 Q81.0774 35.0956 79.2336 35.0956 Q77.343 35.0956 76.3118 33.9315 Q75.2805 32.7674 75.2805 30.6581 Q75.2805 28.5643 76.3118 27.4159 Q77.343 26.2674 79.2336 26.2674 Q81.093 26.2674 82.1243 27.4393 Q83.1555 28.6112 83.1555 30.6737 ZM76.3274 30.6737 Q76.3274 32.4081 77.0696 33.3143 Q77.8118 34.2206 79.2336 34.2206 Q80.6555 34.2206 81.3821 33.3221 Q82.1086 32.4237 82.1086 30.6737 Q82.1086 28.9393 81.3821 28.0487 Q80.6555 27.1581 79.2336 27.1581 Q77.8118 27.1581 77.0696 28.0565 Q76.3274 28.9549 76.3274 30.6737 Z"/><path style="fill:none; stroke:black;" d="M130.745 0.494 L131.178 0.744 L131.611 0.494"/><path style="stroke:none;" d="M-75.2805 -5.0563 Q-75.2805 -2.9938 -76.3196 -1.8141 Q-77.3586 -0.6344 -79.2024 -0.6344 Q-81.093 -0.6344 -82.1243 -1.7985 Q-83.1555 -2.9626 -83.1555 -5.0719 Q-83.1555 -7.1657 -82.1243 -8.3141 Q-81.093 -9.4626 -79.2024 -9.4626 Q-77.343 -9.4626 -76.3118 -8.2907 Q-75.2805 -7.1188 -75.2805 -5.0563 ZM-82.1086 -5.0563 Q-82.1086 -3.3219 -81.3664 -2.4157 Q-80.6243 -1.5094 -79.2024 -1.5094 Q-77.7805 -1.5094 -77.0539 -2.4079 Q-76.3274 -3.3063 -76.3274 -5.0563 Q-76.3274 -6.7907 -77.0539 -7.6813 Q-77.7805 -8.5719 -79.2024 -8.5719 Q-80.6243 -8.5719 -81.3664 -7.6735 Q-82.1086 -6.7751 -82.1086 -5.0563 Z"/><path style="stroke:none;" d="M-84.1555 -0.7594 L-85.1555 -0.7594 L-85.1555 -4.7907 L-89.6711 -4.7907 L-89.6711 -0.7594 L-90.6711 -0.7594 L-90.6711 -9.3219 L-89.6711 -9.3219 L-89.6711 -5.6813 L-85.1555 -5.6813 L-85.1555 -9.3219 L-84.1555 -9.3219 L-84.1555 -0.7594 Z"/><path style="fill:rgb(0,138,0); stroke:none;" d="M-71.8336 19.5972 L-72.8336 19.5972 L-72.8336 11.0347 L-68.0524 11.0347 L-68.0524 11.9097 L-71.8336 11.9097 L-71.8336 15.0504 L-68.2868 15.0504 L-68.2868 15.941 L-71.8336 15.941 L-71.8336 19.5972 Z"/><path style="fill:rgb(0,138,0); stroke:none;" d="M-54.6286 134.1702 L-55.6286 134.1702 L-55.6286 125.6077 L-50.8474 125.6077 L-50.8474 126.4827 L-54.6286 126.4827 L-54.6286 129.6234 L-51.0817 129.6234 L-51.0817 130.514 L-54.6286 130.514 L-54.6286 134.1702 Z"/><path style="stroke:none;" d="M-153.2235 99.9437 Q-153.2235 102.0062 -154.2626 103.1859 Q-155.3016 104.3656 -157.1454 104.3656 Q-159.036 104.3656 -160.0672 103.2015 Q-161.0985 102.0374 -161.0985 99.9281 Q-161.0985 97.8343 -160.0672 96.6859 Q-159.036 95.5374 -157.1454 95.5374 Q-155.286 95.5374 -154.2547 96.7093 Q-153.2235 97.8812 -153.2235 99.9437 ZM-160.0516 99.9437 Q-160.0516 101.6781 -159.3094 102.5843 Q-158.5672 103.4906 -157.1454 103.4906 Q-155.7235 103.4906 -154.9969 102.5921 Q-154.2704 101.6937 -154.2704 99.9437 Q-154.2704 98.2093 -154.9969 97.3187 Q-155.7235 96.4281 -157.1454 96.4281 Q-158.5672 96.4281 -159.3094 97.3265 Q-160.0516 98.2249 -160.0516 99.9437 Z"/></g><g transform="translate(164,133)" style="stroke-linecap:butt; font-size:8.4px; fill:gray; text-rendering:geometricPrecision; image-rendering:optimizeQuality; color-rendering:optimizeQuality; font-family:'Open Sans'; font-style:italic; stroke:gray; color-interpolation:linearRGB; stroke-miterlimit:5;"><path style="stroke:none;" d="M19.7763 11.4187 Q19.7763 10.0905 20.2451 8.9655 Q20.7138 7.8405 21.7451 6.7624 L22.3544 6.7624 Q21.3857 7.8249 20.9013 8.9968 Q20.4169 10.1687 20.4169 11.403 Q20.4169 12.7312 20.8544 13.7468 L20.3388 13.7468 Q19.7763 12.7155 19.7763 11.4187 ZM23.3364 10.1062 L22.8364 12.4812 L22.1801 12.4812 L23.3832 6.7624 L24.6332 6.7624 Q26.3676 6.7624 26.3676 8.1999 Q26.3676 9.5593 24.9301 9.9499 L25.8676 12.4812 L25.1489 12.4812 L24.3207 10.1062 L23.3364 10.1062 ZM23.9145 7.3562 Q23.5239 9.278 23.4614 9.528 L24.1176 9.528 Q24.8676 9.528 25.2739 9.1999 Q25.6801 8.8718 25.6801 8.2468 Q25.6801 7.778 25.4223 7.5671 Q25.1645 7.3562 24.5707 7.3562 L23.9145 7.3562 ZM28.5536 9.1062 Q28.5536 10.4343 28.077 11.5671 Q27.6005 12.6999 26.5848 13.7468 L25.9755 13.7468 Q27.913 11.5905 27.913 9.1062 Q27.913 7.778 27.4755 6.7624 L27.9911 6.7624 Q28.5536 7.8249 28.5536 9.1062 Z"/><path style="stroke:none;" d="M-14.0438 16.2171 Q-14.0438 14.8889 -13.5751 13.7639 Q-13.1063 12.6389 -12.0751 11.5608 L-11.4657 11.5608 Q-12.4344 12.6233 -12.9188 13.7952 Q-13.4032 14.9671 -13.4032 16.2014 Q-13.4032 17.5296 -12.9657 18.5452 L-13.4813 18.5452 Q-14.0438 17.5139 -14.0438 16.2171 ZM-8.4212 15.6233 Q-8.4212 16.4514 -8.9681 16.9046 Q-9.515 17.3577 -10.515 17.3577 Q-10.9212 17.3577 -11.2337 17.303 Q-11.5462 17.2483 -11.8275 17.1077 L-11.8275 16.4514 Q-11.2025 16.7796 -10.4994 16.7796 Q-9.8744 16.7796 -9.4994 16.4827 Q-9.1244 16.1858 -9.1244 15.6702 Q-9.1244 15.3577 -9.3275 15.1311 Q-9.5306 14.9046 -10.0931 14.5764 Q-10.6869 14.2483 -10.9134 13.9202 Q-11.14 13.5921 -11.14 13.1389 Q-11.14 12.4046 -10.6244 11.9436 Q-10.1087 11.4827 -9.265 11.4827 Q-8.89 11.4827 -8.5541 11.5608 Q-8.2181 11.6389 -7.8431 11.8108 L-8.1087 12.4046 Q-8.3587 12.2483 -8.6791 12.1624 Q-8.9994 12.0764 -9.265 12.0764 Q-9.7962 12.0764 -10.1166 12.3499 Q-10.4369 12.6233 -10.4369 13.0921 Q-10.4369 13.2952 -10.3666 13.4436 Q-10.2962 13.5921 -10.1556 13.7249 Q-10.015 13.8577 -9.5931 14.1077 Q-9.0306 14.4514 -8.8275 14.6468 Q-8.6244 14.8421 -8.5228 15.0764 Q-8.4212 15.3108 -8.4212 15.6233 ZM-5.8268 13.9046 Q-5.8268 15.2327 -6.3033 16.3655 Q-6.7799 17.4983 -7.7955 18.5452 L-8.4049 18.5452 Q-6.4674 16.3889 -6.4674 13.9046 Q-6.4674 12.5764 -6.9049 11.5608 L-6.3893 11.5608 Q-5.8268 12.6233 -5.8268 13.9046 Z"/><path style="fill:none; stroke:black;" d="M44.5951 24.6095 L44.889 25.014 L44.5951 25.4185"/><path style="stroke:none;" d="M-14.0438 36.2172 Q-14.0438 34.8891 -13.5751 33.7641 Q-13.1063 32.6391 -12.0751 31.5609 L-11.4657 31.5609 Q-12.4344 32.6234 -12.9188 33.7953 Q-13.4032 34.9672 -13.4032 36.2016 Q-13.4032 37.5297 -12.9657 38.5453 L-13.4813 38.5453 Q-14.0438 37.5141 -14.0438 36.2172 ZM-8.4212 35.6234 Q-8.4212 36.4516 -8.9681 36.9047 Q-9.515 37.3578 -10.515 37.3578 Q-10.9212 37.3578 -11.2337 37.3031 Q-11.5462 37.2484 -11.8275 37.1078 L-11.8275 36.4516 Q-11.2025 36.7797 -10.4994 36.7797 Q-9.8744 36.7797 -9.4994 36.4828 Q-9.1244 36.1859 -9.1244 35.6703 Q-9.1244 35.3578 -9.3275 35.1312 Q-9.5306 34.9047 -10.0931 34.5766 Q-10.6869 34.2484 -10.9134 33.9203 Q-11.14 33.5922 -11.14 33.1391 Q-11.14 32.4047 -10.6244 31.9437 Q-10.1087 31.4828 -9.265 31.4828 Q-8.89 31.4828 -8.5541 31.5609 Q-8.2181 31.6391 -7.8431 31.8109 L-8.1087 32.4047 Q-8.3587 32.2484 -8.6791 32.1625 Q-8.9994 32.0766 -9.265 32.0766 Q-9.7962 32.0766 -10.1166 32.35 Q-10.4369 32.6234 -10.4369 33.0922 Q-10.4369 33.2953 -10.3666 33.4437 Q-10.2962 33.5922 -10.1556 33.725 Q-10.015 33.8578 -9.5931 34.1078 Q-9.0306 34.4516 -8.8275 34.6469 Q-8.6244 34.8422 -8.5228 35.0766 Q-8.4212 35.3109 -8.4212 35.6234 ZM-5.8268 33.9047 Q-5.8268 35.2328 -6.3033 36.3656 Q-6.7799 37.4984 -7.7955 38.5453 L-8.4049 38.5453 Q-6.4674 36.3891 -6.4674 33.9047 Q-6.4674 32.5766 -6.9049 31.5609 L-6.3893 31.5609 Q-5.8268 32.6234 -5.8268 33.9047 Z"/><path style="fill:none; stroke:black;" d="M-26.822 -4.736 L-27.255 -4.986 L-27.688 -4.736"/><path style="fill:none; stroke:black;" d="M27.5489 48.8825 L27.255 49.287 L26.7795 49.1324"/><path style="stroke:none;" d="M-31.3638 46.2171 Q-31.3638 44.889 -30.895 43.764 Q-30.4263 42.639 -29.395 41.5609 L-28.7856 41.5609 Q-29.7544 42.6234 -30.2388 43.7952 Q-30.7231 44.9671 -30.7231 46.2015 Q-30.7231 47.5296 -30.2856 48.5452 L-30.8013 48.5452 Q-31.3638 47.514 -31.3638 46.2171 ZM-25.7412 45.6234 Q-25.7412 46.4515 -26.2881 46.9046 Q-26.835 47.3577 -27.835 47.3577 Q-28.2412 47.3577 -28.5537 47.3031 Q-28.8662 47.2484 -29.1475 47.1077 L-29.1475 46.4515 Q-28.5225 46.7796 -27.8193 46.7796 Q-27.1943 46.7796 -26.8193 46.4827 Q-26.4443 46.1859 -26.4443 45.6702 Q-26.4443 45.3577 -26.6475 45.1312 Q-26.8506 44.9046 -27.4131 44.5765 Q-28.0068 44.2484 -28.2334 43.9202 Q-28.46 43.5921 -28.46 43.139 Q-28.46 42.4046 -27.9443 41.9437 Q-27.4287 41.4827 -26.585 41.4827 Q-26.21 41.4827 -25.874 41.5609 Q-25.5381 41.639 -25.1631 41.8109 L-25.4287 42.4046 Q-25.6787 42.2484 -25.999 42.1624 Q-26.3193 42.0765 -26.585 42.0765 Q-27.1162 42.0765 -27.4365 42.3499 Q-27.7568 42.6234 -27.7568 43.0921 Q-27.7568 43.2952 -27.6865 43.4437 Q-27.6162 43.5921 -27.4756 43.7249 Q-27.335 43.8577 -26.9131 44.1077 Q-26.3506 44.4515 -26.1475 44.6468 Q-25.9443 44.8421 -25.8428 45.0765 Q-25.7412 45.3109 -25.7412 45.6234 ZM-23.1467 43.9046 Q-23.1467 45.2327 -23.6233 46.3656 Q-24.0999 47.4984 -25.1155 48.5452 L-25.7249 48.5452 Q-23.7874 46.389 -23.7874 43.9046 Q-23.7874 42.5765 -24.2249 41.5609 L-23.7092 41.5609 Q-23.1467 42.6234 -23.1467 43.9046 Z"/><path style="stroke:none;" d="M-57.3463 1.2171 Q-57.3463 -0.111 -56.8775 -1.236 Q-56.4088 -2.361 -55.3775 -3.4391 L-54.7681 -3.4391 Q-55.7369 -2.3766 -56.2213 -1.2048 Q-56.7056 -0.0329 -56.7056 1.2015 Q-56.7056 2.5296 -56.2681 3.5452 L-56.7838 3.5452 Q-57.3463 2.514 -57.3463 1.2171 ZM-51.7237 0.6234 Q-51.7237 1.4515 -52.2706 1.9046 Q-52.8175 2.3577 -53.8175 2.3577 Q-54.2237 2.3577 -54.5362 2.3031 Q-54.8487 2.2484 -55.13 2.1077 L-55.13 1.4515 Q-54.505 1.7796 -53.8018 1.7796 Q-53.1768 1.7796 -52.8018 1.4827 Q-52.4268 1.1859 -52.4268 0.6702 Q-52.4268 0.3577 -52.63 0.1312 Q-52.8331 -0.0954 -53.3956 -0.4235 Q-53.9893 -0.7516 -54.2159 -1.0798 Q-54.4425 -1.4079 -54.4425 -1.861 Q-54.4425 -2.5954 -53.9268 -3.0563 Q-53.4112 -3.5173 -52.5675 -3.5173 Q-52.1925 -3.5173 -51.8565 -3.4391 Q-51.5206 -3.361 -51.1456 -3.1891 L-51.4112 -2.5954 Q-51.6612 -2.7516 -51.9815 -2.8376 Q-52.3018 -2.9235 -52.5675 -2.9235 Q-53.0987 -2.9235 -53.419 -2.6501 Q-53.7393 -2.3766 -53.7393 -1.9079 Q-53.7393 -1.7048 -53.669 -1.5563 Q-53.5987 -1.4079 -53.4581 -1.2751 Q-53.3175 -1.1423 -52.8956 -0.8923 Q-52.3331 -0.5485 -52.13 -0.3532 Q-51.9268 -0.1579 -51.8253 0.0765 Q-51.7237 0.3109 -51.7237 0.6234 ZM-49.1292 -1.0954 Q-49.1292 0.2327 -49.6058 1.3656 Q-50.0824 2.4984 -51.098 3.5452 L-51.7074 3.5452 Q-49.7699 1.389 -49.7699 -1.0954 Q-49.7699 -2.4235 -50.2074 -3.4391 L-49.6917 -3.4391 Q-49.1292 -2.3766 -49.1292 -1.0954 Z"/><path style="stroke:none;" d="M-57.6264 51.1781 Q-57.6264 49.8499 -57.1576 48.7249 Q-56.6889 47.5999 -55.6576 46.5218 L-55.0483 46.5218 Q-56.017 47.5843 -56.5014 48.7562 Q-56.9858 49.9281 -56.9858 51.1624 Q-56.9858 52.4906 -56.5483 53.5062 L-57.0639 53.5062 Q-57.6264 52.4749 -57.6264 51.1781 ZM-54.0663 49.8656 L-54.5663 52.2406 L-55.2226 52.2406 L-54.0195 46.5218 L-52.7695 46.5218 Q-51.0351 46.5218 -51.0351 47.9593 Q-51.0351 49.3187 -52.4726 49.7093 L-51.5351 52.2406 L-52.2538 52.2406 L-53.082 49.8656 L-54.0663 49.8656 ZM-53.4882 47.1156 Q-53.8788 49.0374 -53.9413 49.2874 L-53.2851 49.2874 Q-52.5351 49.2874 -52.1288 48.9593 Q-51.7226 48.6312 -51.7226 48.0062 Q-51.7226 47.5374 -51.9804 47.3265 Q-52.2382 47.1156 -52.832 47.1156 L-53.4882 47.1156 ZM-48.8491 48.8656 Q-48.8491 50.1937 -49.3257 51.3265 Q-49.8022 52.4593 -50.8179 53.5062 L-51.4272 53.5062 Q-49.4897 51.3499 -49.4897 48.8656 Q-49.4897 47.5374 -49.9272 46.5218 L-49.4116 46.5218 Q-48.8491 47.5843 -48.8491 48.8656 Z"/><path style="fill:none; stroke:black;" d="M-27.255 84.514 L-27.255 85.014 L-27.688 85.264"/><path style="stroke:none;" d="M-74.6662 61.2171 Q-74.6662 59.8889 -74.1975 58.7639 Q-73.7287 57.6389 -72.6975 56.5608 L-72.0881 56.5608 Q-73.0569 57.6233 -73.5412 58.7952 Q-74.0256 59.9671 -74.0256 61.2014 Q-74.0256 62.5296 -73.5881 63.5452 L-74.1037 63.5452 Q-74.6662 62.5139 -74.6662 61.2171 ZM-69.0437 60.6233 Q-69.0437 61.4514 -69.5906 61.9046 Q-70.1374 62.3577 -71.1374 62.3577 Q-71.5437 62.3577 -71.8562 62.303 Q-72.1687 62.2483 -72.4499 62.1077 L-72.4499 61.4514 Q-71.8249 61.7796 -71.1218 61.7796 Q-70.4968 61.7796 -70.1218 61.4827 Q-69.7468 61.1858 -69.7468 60.6702 Q-69.7468 60.3577 -69.9499 60.1311 Q-70.1531 59.9046 -70.7156 59.5764 Q-71.3093 59.2483 -71.5359 58.9202 Q-71.7624 58.5921 -71.7624 58.1389 Q-71.7624 57.4046 -71.2468 56.9436 Q-70.7312 56.4827 -69.8874 56.4827 Q-69.5124 56.4827 -69.1765 56.5608 Q-68.8406 56.6389 -68.4656 56.8108 L-68.7312 57.4046 Q-68.9812 57.2483 -69.3015 57.1624 Q-69.6218 57.0764 -69.8874 57.0764 Q-70.4187 57.0764 -70.739 57.3499 Q-71.0593 57.6233 -71.0593 58.0921 Q-71.0593 58.2952 -70.989 58.4436 Q-70.9187 58.5921 -70.7781 58.7249 Q-70.6374 58.8577 -70.2156 59.1077 Q-69.6531 59.4514 -69.4499 59.6468 Q-69.2468 59.8421 -69.1452 60.0764 Q-69.0437 60.3108 -69.0437 60.6233 ZM-66.4492 58.9046 Q-66.4492 60.2327 -66.9258 61.3655 Q-67.4023 62.4983 -68.4179 63.5452 L-69.0273 63.5452 Q-67.0898 61.3889 -67.0898 58.9046 Q-67.0898 57.5764 -67.5273 56.5608 L-67.0117 56.5608 Q-66.4492 57.6233 -66.4492 58.9046 Z"/><path style="fill:none; stroke:black;" d="M-52.805 99.764 L-53.238 100.014 L-53.671 99.764"/><path style="stroke:none;" d="M-57.3463 91.2171 Q-57.3463 89.889 -56.8775 88.764 Q-56.4088 87.639 -55.3775 86.5609 L-54.7681 86.5609 Q-55.7369 87.6234 -56.2213 88.7952 Q-56.7056 89.9671 -56.7056 91.2015 Q-56.7056 92.5296 -56.2681 93.5452 L-56.7838 93.5452 Q-57.3463 92.514 -57.3463 91.2171 ZM-51.7237 90.6234 Q-51.7237 91.4515 -52.2706 91.9046 Q-52.8175 92.3577 -53.8175 92.3577 Q-54.2237 92.3577 -54.5362 92.3031 Q-54.8487 92.2484 -55.13 92.1077 L-55.13 91.4515 Q-54.505 91.7796 -53.8018 91.7796 Q-53.1768 91.7796 -52.8018 91.4827 Q-52.4268 91.1859 -52.4268 90.6702 Q-52.4268 90.3577 -52.63 90.1312 Q-52.8331 89.9046 -53.3956 89.5765 Q-53.9893 89.2484 -54.2159 88.9202 Q-54.4425 88.5921 -54.4425 88.139 Q-54.4425 87.4046 -53.9268 86.9437 Q-53.4112 86.4827 -52.5675 86.4827 Q-52.1925 86.4827 -51.8565 86.5609 Q-51.5206 86.639 -51.1456 86.8109 L-51.4112 87.4046 Q-51.6612 87.2484 -51.9815 87.1624 Q-52.3018 87.0765 -52.5675 87.0765 Q-53.0987 87.0765 -53.419 87.3499 Q-53.7393 87.6234 -53.7393 88.0921 Q-53.7393 88.2952 -53.669 88.4437 Q-53.5987 88.5921 -53.4581 88.7249 Q-53.3175 88.8577 -52.8956 89.1077 Q-52.3331 89.4515 -52.13 89.6468 Q-51.9268 89.8421 -51.8253 90.0765 Q-51.7237 90.3109 -51.7237 90.6234 ZM-49.1292 88.9046 Q-49.1292 90.2327 -49.6058 91.3656 Q-50.0824 92.4984 -51.098 93.5452 L-51.7074 93.5452 Q-49.7699 91.389 -49.7699 88.9046 Q-49.7699 87.5765 -50.2074 86.5609 L-49.6917 86.5609 Q-49.1292 87.6234 -49.1292 88.9046 Z"/><path style="fill:none; stroke:black;" d="M-79.651 85.264 L-79.218 85.014 L-79.218 84.514"/><path style="fill:none; stroke:black;" d="M-104.765 40.264 L-105.198 40.014 L-105.631 40.264"/><path style="fill:none; stroke:black;" d="M-104.765 99.764 L-105.198 100.014 L-105.631 99.764"/><path style="fill:none; stroke:black;" d="M-130.745 54.764 L-131.178 55.014 L-131.178 55.514"/><path style="fill:none; stroke:black;" d="M-130.745 85.264 L-131.178 85.014 L-131.178 84.514"/></g><g transform="translate(164,133)" style="stroke-linecap:butt; text-rendering:geometricPrecision; color-rendering:optimizeQuality; image-rendering:optimizeQuality; font-family:'Open Sans'; color-interpolation:linearRGB; stroke-miterlimit:5;"><path style="stroke:none;" d="M17.4328 69.8862 L16.4328 69.8862 L16.4328 65.855 L11.9172 65.855 L11.9172 69.8862 L10.9172 69.8862 L10.9172 61.3237 L11.9172 61.3237 L11.9172 64.9644 L16.4328 64.9644 L16.4328 61.3237 L17.4328 61.3237 L17.4328 69.8862 Z"/><path style="stroke:none;" d="M-6.7922 83.7463 L-7.7922 83.7463 L-7.7922 79.715 L-12.3078 79.715 L-12.3078 83.7463 L-13.3078 83.7463 L-13.3078 75.1838 L-12.3078 75.1838 L-12.3078 78.8244 L-7.7922 78.8244 L-7.7922 75.1838 L-6.7922 75.1838 L-6.7922 83.7463 Z"/></g></g></svg></svg></svg></svg>