<svg xmlns:ns0="http://www.w3.org/2000/svg" xmlns="http://www.w3.org/2000/svg"><g transform="translate(0, 0)"><ns0:svg width="274" viewBox="0 0 274 105" style="fill-opacity:1; color-rendering:auto; color-interpolation:auto; text-rendering:auto; stroke:black; stroke-linecap:square; stroke-miterlimit:10; shape-rendering:auto; stroke-opacity:1; fill:black; stroke-dasharray:none; font-weight:normal; stroke-width:1; font-family:'Open Sans'; font-style:normal; stroke-linejoin:miter; font-size:12; stroke-dashoffset:0; image-rendering:auto;" height="105" class="cas-substance-image"><ns0:svg class="cas-substance-single-component"><ns0:rect y="0" x="0" width="274" stroke="none" ry="7" rx="7" height="105" fill="white" class="cas-substance-group" /><ns0:svg y="0" x="0" width="274" viewBox="0 0 274 105" style="fill:black;" height="105" class="cas-substance-single-component-image"><ns0:svg><ns0:g><ns0:g transform="translate(137,52)" style="text-rendering:geometricPrecision; color-rendering:optimizeQuality; color-interpolation:linearRGB; stroke-linecap:butt; image-rendering:optimizeQuality;"><ns0:line y2="-30" y1="-41.8214" x2="25.98" x1="5.5054" style="fill:none;" /><ns0:line y2="-30" y1="-41.8112" x2="-25.98" x1="-5.523" style="fill:none;" /><ns0:line y2="38.6138" y1="15" x2="103.923" x1="103.923" style="fill:none;" /><ns0:line y2="4.7044" y1="17.0207" x2="125.255" x1="103.923" style="fill:none;" /><ns0:line y2="1.6733" y1="13.9896" x2="123.5049" x1="102.173" style="fill:none;" /><ns0:line y2="0" y1="15" x2="77.943" x1="103.923" style="fill:none;" /><ns0:line y2="38.6138" y1="15" x2="-103.923" x1="-103.923" style="fill:none;" /><ns0:line y2="1.6631" y1="13.9896" x2="-123.5226" x1="-102.173" style="fill:none;" /><ns0:line y2="4.6941" y1="17.0207" x2="-125.2727" x1="-103.923" style="fill:none;" /><ns0:line y2="0" y1="15" x2="-77.943" x1="-103.923" style="fill:none;" /><ns0:line y2="-45" y1="-30" x2="51.963" x1="25.98" style="fill:none;" /><ns0:line y2="-40.9585" y1="-27.9791" x2="51.9628" x1="29.4799" style="fill:none;" /><ns0:line y2="0" y1="-30" x2="25.98" x1="25.98" style="fill:none;" /><ns0:line y2="-30" y1="-45" x2="77.943" x1="51.963" style="fill:none;" /><ns0:line y2="15" y1="0" x2="51.963" x1="25.98" style="fill:none;" /><ns0:line y2="10.9585" y1="-2.0209" x2="51.9628" x1="29.4799" style="fill:none;" /><ns0:line y2="0" y1="-30" x2="77.943" x1="77.943" style="fill:none;" /><ns0:line y2="-2.0207" y1="-27.9793" x2="74.443" x1="74.443" style="fill:none;" /><ns0:line y2="0" y1="15" x2="77.943" x1="51.963" style="fill:none;" /><ns0:line y2="-45" y1="-30" x2="-51.963" x1="-25.98" style="fill:none;" /><ns0:line y2="-40.9585" y1="-27.9791" x2="-51.9628" x1="-29.4799" style="fill:none;" /><ns0:line y2="0" y1="-30" x2="-25.98" x1="-25.98" style="fill:none;" /><ns0:line y2="-30" y1="-45" x2="-77.943" x1="-51.963" style="fill:none;" /><ns0:line y2="15" y1="0" x2="-51.963" x1="-25.98" style="fill:none;" /><ns0:line y2="10.9585" y1="-2.0209" x2="-51.9628" x1="-29.4799" style="fill:none;" /><ns0:line y2="0" y1="-30" x2="-77.943" x1="-77.943" style="fill:none;" /><ns0:line y2="-2.0207" y1="-27.9793" x2="-74.443" x1="-74.443" style="fill:none;" /><ns0:line y2="0" y1="15" x2="-77.943" x1="-51.963" style="fill:none;" /></ns0:g><ns0:g transform="translate(137,52)" style="fill:rgb(230,0,0); text-rendering:geometricPrecision; color-rendering:optimizeQuality; image-rendering:optimizeQuality; font-family:'Open Sans'; stroke:rgb(230,0,0); color-interpolation:linearRGB;"><ns0:path style="stroke:none;" d="M3.9375 -45.0703 Q3.9375 -43.0078 2.8984 -41.8281 Q1.8594 -40.6484 0.0156 -40.6484 Q-1.875 -40.6484 -2.9062 -41.8125 Q-3.9375 -42.9766 -3.9375 -45.0859 Q-3.9375 -47.1797 -2.9062 -48.3281 Q-1.875 -49.4766 0.0156 -49.4766 Q1.875 -49.4766 2.9062 -48.3047 Q3.9375 -47.1328 3.9375 -45.0703 ZM-2.8906 -45.0703 Q-2.8906 -43.3359 -2.1484 -42.4297 Q-1.4062 -41.5234 0.0156 -41.5234 Q1.4375 -41.5234 2.1641 -42.4219 Q2.8906 -43.3203 2.8906 -45.0703 Q2.8906 -46.8047 2.1641 -47.6953 Q1.4375 -48.5859 0.0156 -48.5859 Q-1.4062 -48.5859 -2.1484 -47.6875 Q-2.8906 -46.7891 -2.8906 -45.0703 Z" /></ns0:g><ns0:g transform="translate(137,52)" style="stroke-linecap:butt; text-rendering:geometricPrecision; color-rendering:optimizeQuality; image-rendering:optimizeQuality; font-family:'Open Sans'; color-interpolation:linearRGB; stroke-miterlimit:5;"><ns0:path style="fill:none;" d="M103.923 15.5 L103.923 15 L103.49 14.75" /><ns0:path style="fill:rgb(0,138,0); stroke:none;" d="M103.6144 41.6406 Q102.2082 41.6406 101.3878 42.5781 Q100.5675 43.5156 100.5675 45.1562 Q100.5675 46.8281 101.3566 47.75 Q102.1457 48.6719 103.5988 48.6719 Q104.505 48.6719 105.6457 48.3438 L105.6457 49.2188 Q104.755 49.5625 103.4582 49.5625 Q101.5675 49.5625 100.5363 48.4062 Q99.505 47.25 99.505 45.1406 Q99.505 43.8125 99.9972 42.8203 Q100.4894 41.8281 101.4269 41.2891 Q102.3644 40.75 103.63 40.75 Q104.9738 40.75 105.9894 41.2344 L105.5675 42.0938 Q104.5832 41.6406 103.6144 41.6406 ZM108.341 49.4375 L107.3722 49.4375 L107.3722 40.3125 L108.341 40.3125 L108.341 49.4375 Z" /><ns0:path style="fill:rgb(230,0,0); stroke:none;" d="M133.8405 -0.0703 Q133.8405 1.9922 132.8014 3.1719 Q131.7624 4.3516 129.9186 4.3516 Q128.028 4.3516 126.9967 3.1875 Q125.9655 2.0234 125.9655 -0.0859 Q125.9655 -2.1797 126.9967 -3.3281 Q128.028 -4.4766 129.9186 -4.4766 Q131.778 -4.4766 132.8092 -3.3047 Q133.8405 -2.1328 133.8405 -0.0703 ZM127.0124 -0.0703 Q127.0124 1.6641 127.7546 2.5703 Q128.4967 3.4766 129.9186 3.4766 Q131.3405 3.4766 132.0671 2.5781 Q132.7936 1.6797 132.7936 -0.0703 Q132.7936 -1.8047 132.0671 -2.6953 Q131.3405 -3.5859 129.9186 -3.5859 Q128.4967 -3.5859 127.7546 -2.6875 Q127.0124 -1.7891 127.0124 -0.0703 Z" /><ns0:path style="fill:none;" d="M-103.923 15.5 L-103.923 15 L-103.49 14.75" /><ns0:path style="fill:rgb(0,138,0); stroke:none;" d="M-104.2316 41.6406 Q-105.6378 41.6406 -106.4582 42.5781 Q-107.2785 43.5156 -107.2785 45.1562 Q-107.2785 46.8281 -106.4894 47.75 Q-105.7003 48.6719 -104.2472 48.6719 Q-103.341 48.6719 -102.2003 48.3438 L-102.2003 49.2188 Q-103.091 49.5625 -104.3878 49.5625 Q-106.2785 49.5625 -107.3097 48.4062 Q-108.341 47.25 -108.341 45.1406 Q-108.341 43.8125 -107.8488 42.8203 Q-107.3566 41.8281 -106.4191 41.2891 Q-105.4816 40.75 -104.216 40.75 Q-102.8722 40.75 -101.8566 41.2344 L-102.2785 42.0938 Q-103.2628 41.6406 -104.2316 41.6406 ZM-99.505 49.4375 L-100.4738 49.4375 L-100.4738 40.3125 L-99.505 40.3125 L-99.505 49.4375 Z" /><ns0:path style="fill:rgb(230,0,0); stroke:none;" d="M-125.9655 -0.0703 Q-125.9655 1.9922 -127.0046 3.1719 Q-128.0436 4.3516 -129.8874 4.3516 Q-131.778 4.3516 -132.8092 3.1875 Q-133.8405 2.0234 -133.8405 -0.0859 Q-133.8405 -2.1797 -132.8092 -3.3281 Q-131.778 -4.4766 -129.8874 -4.4766 Q-128.028 -4.4766 -126.9967 -3.3047 Q-125.9655 -2.1328 -125.9655 -0.0703 ZM-132.7936 -0.0703 Q-132.7936 1.6641 -132.0514 2.5703 Q-131.3092 3.4766 -129.8874 3.4766 Q-128.4655 3.4766 -127.7389 2.5781 Q-127.0124 1.6797 -127.0124 -0.0703 Q-127.0124 -1.8047 -127.7389 -2.6953 Q-128.4655 -3.5859 -129.8874 -3.5859 Q-131.3092 -3.5859 -132.0514 -2.6875 Q-132.7936 -1.7891 -132.7936 -0.0703 Z" /><ns0:path style="fill:none;" d="M26.413 -30.25 L25.98 -30 L25.98 -29.5" /><ns0:path style="fill:none;" d="M51.53 -44.75 L51.963 -45 L52.396 -44.75" /><ns0:path style="fill:none;" d="M25.98 -0.5 L25.98 0 L26.413 0.25" /><ns0:path style="fill:none;" d="M77.51 -30.25 L77.943 -30 L77.943 -29.5" /><ns0:path style="fill:none;" d="M51.53 14.75 L51.963 15 L52.396 14.75" /><ns0:path style="fill:none;" d="M77.943 -0.5 L77.943 0 L78.376 0.25" /><ns0:path style="fill:none;" d="M-26.413 -30.25 L-25.98 -30 L-25.547 -30.25" /><ns0:path style="fill:none;" d="M-51.53 -44.75 L-51.963 -45 L-52.396 -44.75" /><ns0:path style="fill:none;" d="M-25.98 -0.5 L-25.98 0 L-26.413 0.25" /><ns0:path style="fill:none;" d="M-77.51 -30.25 L-77.943 -30 L-77.943 -29.5" /><ns0:path style="fill:none;" d="M-51.53 14.75 L-51.963 15 L-52.396 14.75" /><ns0:path style="fill:none;" d="M-77.943 -0.5 L-77.943 0 L-78.376 0.25" /></ns0:g></ns0:g></ns0:svg></ns0:svg></ns0:svg></ns0:svg></g></svg>