<svg xmlns:ns0="http://www.w3.org/2000/svg" xmlns="http://www.w3.org/2000/svg"><g transform="translate(0, 0)"><ns0:svg width="188" viewBox="0 0 188 113" style="fill-opacity:1; color-rendering:auto; color-interpolation:auto; text-rendering:auto; stroke:black; stroke-linecap:square; stroke-miterlimit:10; shape-rendering:auto; stroke-opacity:1; fill:black; stroke-dasharray:none; font-weight:normal; stroke-width:1; font-family:'Open Sans'; font-style:normal; stroke-linejoin:miter; font-size:12; stroke-dashoffset:0; image-rendering:auto;" height="113" class="cas-substance-image"><ns0:svg class="cas-substance-single-component"><ns0:rect y="0" x="0" width="188" stroke="none" ry="7" rx="7" height="113" fill="white" class="cas-substance-group" /><ns0:svg y="0" x="0" width="188" viewBox="0 0 188 113" style="fill:black;" height="113" class="cas-substance-single-component-image"><ns0:svg><ns0:g><ns0:g transform="translate(94,59)" style="text-rendering:geometricPrecision; color-rendering:optimizeQuality; color-interpolation:linearRGB; stroke-linecap:butt; image-rendering:optimizeQuality;"><ns0:line y2="-26.835" y1="-0.855" x2="14.418" x1="-0.582" style="fill:none;" /><ns0:line y2="-26.8351" y1="-4.355" x2="10.3765" x1="-2.6027" style="fill:none;" /></ns0:g><ns0:g transform="translate(94,59)" style="stroke-linecap:butt; font-size:8.4px; fill:gray; text-rendering:geometricPrecision; image-rendering:optimizeQuality; color-rendering:optimizeQuality; font-family:'Open Sans'; font-style:italic; stroke:gray; color-interpolation:linearRGB;"><ns0:path style="stroke:none;" d="M11.4308 -7.6808 Q11.4308 -9.009 11.8996 -10.134 Q12.3683 -11.259 13.3996 -12.3371 L14.0089 -12.3371 Q13.0402 -11.2746 12.5558 -10.1027 Q12.0714 -8.9308 12.0714 -7.6965 Q12.0714 -6.3683 12.5089 -5.3527 L11.9933 -5.3527 Q11.4308 -6.384 11.4308 -7.6808 ZM16.694 -6.6183 L13.8346 -6.6183 L15.0378 -12.3371 L17.9128 -12.3371 L17.7878 -11.7277 L15.569 -11.7277 L15.194 -9.8996 L17.2409 -9.8996 L17.1315 -9.3058 L15.069 -9.3058 L14.6159 -7.2121 L16.8346 -7.2121 L16.694 -6.6183 ZM19.7256 -9.9933 Q19.7256 -8.6652 19.249 -7.5324 Q18.7724 -6.3996 17.7568 -5.3527 L17.1474 -5.3527 Q19.0849 -7.509 19.0849 -9.9933 Q19.0849 -11.3215 18.6474 -12.3371 L19.1631 -12.3371 Q19.7256 -11.2746 19.7256 -9.9933 Z" /><ns0:line y2="-0.855" y1="-0.855" x2="-30.582" x1="-0.582" style="fill:none; stroke:black;" /><ns0:line y2="-26.835" y1="-26.835" x2="44.418" x1="14.418" style="fill:none; stroke:black;" /><ns0:line y2="31.0133" y1="51.105" x2="-42.1823" x1="-30.582" style="fill:none; stroke:black;" /><ns0:line y2="18.9867" y1="-0.855" x2="-42.038" x1="-30.582" style="fill:none; stroke:black;" /><ns0:line y2="-20.9467" y1="-0.855" x2="-42.1823" x1="-30.582" style="fill:none; stroke:black;" /><ns0:line y2="-19.1967" y1="-0.8549" x2="-45.2134" x1="-34.6235" style="fill:none; stroke:black;" /><ns0:line y2="25.125" y1="25.125" x2="-75.582" x1="-50.9336" style="fill:none; stroke:black;" /><ns0:line y2="-26.835" y1="-26.835" x2="-75.582" x1="-50.9336" style="fill:none; stroke:black;" /><ns0:line y2="-0.855" y1="25.125" x2="-90.582" x1="-75.582" style="fill:none; stroke:black;" /><ns0:line y2="-0.855" y1="-26.835" x2="-90.582" x1="-75.582" style="fill:none; stroke:black;" /><ns0:line y2="-2.565" y1="-26.835" x2="62.052" x1="44.418" style="fill:none; stroke:black;" /><ns0:line y2="-6.2571" y1="-27.2575" x2="63.6957" x1="48.4373" style="fill:none; stroke:black;" /><ns0:line y2="-46.1047" y1="-26.835" x2="58.4189" x1="44.418" style="fill:none; stroke:black;" /><ns0:line y2="-11.835" y1="-2.565" x2="90.582" x1="62.052" style="fill:none; stroke:black;" /><ns0:line y2="-41.835" y1="-49.6192" x2="90.582" x1="66.6248" style="fill:none; stroke:black;" /><ns0:line y2="-41.835" y1="-11.835" x2="90.582" x1="90.582" style="fill:none; stroke:black;" /><ns0:line y2="-39.8143" y1="-13.8557" x2="87.082" x1="87.082" style="fill:none; stroke:black;" /><ns0:path style="fill:none; stroke-miterlimit:5; stroke:black;" d="M-0.332 -1.288 L-0.582 -0.855 L-1.082 -0.855" /><ns0:path style="fill:none; stroke-miterlimit:5; stroke:black;" d="M14.168 -26.402 L14.418 -26.835 L14.918 -26.835" /><ns0:path style="fill:none; stroke-miterlimit:5; stroke:black;" d="M-30.832 -1.288 L-30.582 -0.855 L-30.082 -0.855" /></ns0:g><ns0:g transform="translate(94,59)" style="stroke-linecap:butt; fill:rgb(0,5,255); text-rendering:geometricPrecision; color-rendering:optimizeQuality; image-rendering:optimizeQuality; font-family:'Open Sans'; stroke:rgb(0,5,255); color-interpolation:linearRGB; stroke-miterlimit:5;"><ns0:path style="stroke:none;" d="M-42.2304 29.2812 L-43.3711 29.2812 L-48.0586 22.0938 L-48.1054 22.0938 Q-48.0117 23.3594 -48.0117 24.4062 L-48.0117 29.2812 L-48.9336 29.2812 L-48.9336 20.7188 L-47.8086 20.7188 L-43.1367 27.875 L-43.0898 27.875 Q-43.0898 27.7188 -43.1367 26.8594 Q-43.1836 26 -43.1679 25.625 L-43.1679 20.7188 L-42.2304 20.7188 L-42.2304 29.2812 Z" /><ns0:path style="stroke:none;" d="M-42.2304 -22.6788 L-43.3711 -22.6788 L-48.0586 -29.8663 L-48.1054 -29.8663 Q-48.0117 -28.6006 -48.0117 -27.5538 L-48.0117 -22.6788 L-48.9336 -22.6788 L-48.9336 -31.2413 L-47.8086 -31.2413 L-43.1367 -24.085 L-43.0898 -24.085 Q-43.0898 -24.2413 -43.1367 -25.1006 Q-43.1836 -25.96 -43.1679 -26.335 L-43.1679 -31.2413 L-42.2304 -31.2413 L-42.2304 -22.6788 Z" /><ns0:path style="fill:none; stroke:black;" d="M-75.082 25.125 L-75.582 25.125 L-75.832 24.692" /><ns0:path style="fill:none; stroke:black;" d="M-75.082 -26.835 L-75.582 -26.835 L-75.832 -26.402" /><ns0:path style="fill:none; stroke:black;" d="M-90.332 -0.422 L-90.582 -0.855 L-90.332 -1.288" /><ns0:path style="fill:none; stroke:black;" d="M44.7119 -26.4305 L44.418 -26.835 L43.918 -26.835" /><ns0:path style="fill:none; stroke:black;" d="M61.7581 -2.9695 L62.052 -2.565 L62.5275 -2.7195" /><ns0:path style="fill:rgb(148,108,0); stroke:none;" d="M64.7473 -49.1675 Q64.7473 -48.0425 63.927 -47.4019 Q63.1067 -46.7612 61.7004 -46.7612 Q60.1692 -46.7612 59.3567 -47.1675 L59.3567 -48.1206 Q59.8879 -47.9019 60.5051 -47.7691 Q61.1223 -47.6362 61.7317 -47.6362 Q62.7317 -47.6362 63.2317 -48.0191 Q63.7317 -48.4019 63.7317 -49.0737 Q63.7317 -49.5112 63.552 -49.8003 Q63.3723 -50.0894 62.9582 -50.3316 Q62.5442 -50.5737 61.6848 -50.8706 Q60.4973 -51.2925 59.9817 -51.8784 Q59.4661 -52.4644 59.4661 -53.4175 Q59.4661 -54.4019 60.2082 -54.9878 Q60.9504 -55.5737 62.1848 -55.5737 Q63.4504 -55.5737 64.5286 -55.105 L64.2161 -54.2456 Q63.1536 -54.6831 62.1536 -54.6831 Q61.3567 -54.6831 60.9114 -54.3472 Q60.4661 -54.0112 60.4661 -53.4019 Q60.4661 -52.9644 60.6301 -52.6753 Q60.7942 -52.3862 61.1848 -52.1519 Q61.5754 -51.9175 62.3879 -51.6206 Q63.7317 -51.1519 64.2395 -50.5972 Q64.7473 -50.0425 64.7473 -49.1675 Z" /><ns0:path style="fill:none; stroke:black;" d="M90.1065 -11.6805 L90.582 -11.835 L90.582 -12.335" /><ns0:path style="fill:none; stroke:black;" d="M90.1065 -41.9895 L90.582 -41.835 L90.582 -41.335" /></ns0:g></ns0:g></ns0:svg></ns0:svg></ns0:svg></ns0:svg></g></svg>