<svg xmlns:ns0="http://www.w3.org/2000/svg" xmlns="http://www.w3.org/2000/svg"><g transform="translate(0, 0)"><ns0:svg width="100" viewBox="0 0 100 75" style="fill-opacity:1; color-rendering:auto; color-interpolation:auto; text-rendering:auto; stroke:black; stroke-linecap:square; stroke-miterlimit:10; shape-rendering:auto; stroke-opacity:1; fill:black; stroke-dasharray:none; font-weight:normal; stroke-width:1; font-family:'Open Sans'; font-style:normal; stroke-linejoin:miter; font-size:12; stroke-dashoffset:0; image-rendering:auto;" height="75" class="cas-substance-image"><ns0:svg class="cas-substance-single-component"><ns0:rect y="0" x="0" width="100" stroke="none" ry="7" rx="7" height="75" fill="white" class="cas-substance-group" /><ns0:svg y="0" x="11" width="77" viewBox="0 0 77 75" style="fill:black;" height="75" class="cas-substance-single-component-image"><ns0:svg><ns0:g><ns0:g transform="translate(33,37)" style="text-rendering:geometricPrecision; color-rendering:optimizeQuality; color-interpolation:linearRGB; stroke-linecap:butt; image-rendering:optimizeQuality;"><ns0:line y2="0" y1="0" x2="-30" x1="-4.6433" style="fill:none;" /><ns0:line y2="-23.6484" y1="-6.4688" x2="1.75" x1="1.75" style="fill:none;" /><ns0:line y2="-23.6484" y1="-6.4688" x2="-1.75" x1="-1.75" style="fill:none;" /><ns0:line y2="23.5234" y1="6.3438" x2="-1.75" x1="-1.75" style="fill:none;" /><ns0:line y2="23.5234" y1="6.3438" x2="1.75" x1="1.75" style="fill:none;" /><ns0:line y2="0" y1="0" x2="24.0625" x1="4.561" style="fill:none;" /></ns0:g><ns0:g transform="translate(33,37)" style="fill:rgb(148,108,0); text-rendering:geometricPrecision; color-rendering:optimizeQuality; image-rendering:optimizeQuality; font-family:'Open Sans'; stroke:rgb(148,108,0); color-interpolation:linearRGB;"><ns0:path style="stroke:none;" d="M2.6953 1.9375 Q2.6953 3.0625 1.875 3.7031 Q1.0547 4.3438 -0.3516 4.3438 Q-1.8828 4.3438 -2.6953 3.9375 L-2.6953 2.9844 Q-2.1641 3.2031 -1.5469 3.3359 Q-0.9297 3.4688 -0.3203 3.4688 Q0.6797 3.4688 1.1797 3.0859 Q1.6797 2.7031 1.6797 2.0312 Q1.6797 1.5938 1.5 1.3047 Q1.3203 1.0156 0.9062 0.7734 Q0.4922 0.5312 -0.3672 0.2344 Q-1.5547 -0.1875 -2.0703 -0.7734 Q-2.5859 -1.3594 -2.5859 -2.3125 Q-2.5859 -3.2969 -1.8438 -3.8828 Q-1.1016 -4.4688 0.1328 -4.4688 Q1.3984 -4.4688 2.4766 -4 L2.1641 -3.1406 Q1.1016 -3.5781 0.1016 -3.5781 Q-0.6953 -3.5781 -1.1406 -3.2422 Q-1.5859 -2.9062 -1.5859 -2.2969 Q-1.5859 -1.8594 -1.4219 -1.5703 Q-1.2578 -1.2812 -0.8672 -1.0469 Q-0.4766 -0.8125 0.3359 -0.5156 Q1.6797 -0.0469 2.1875 0.5078 Q2.6953 1.0625 2.6953 1.9375 Z" /><ns0:path style="fill:rgb(230,0,0); stroke:none;" d="M3.9375 -30.0703 Q3.9375 -28.0078 2.8984 -26.8281 Q1.8594 -25.6484 0.0156 -25.6484 Q-1.875 -25.6484 -2.9062 -26.8125 Q-3.9375 -27.9766 -3.9375 -30.0859 Q-3.9375 -32.1797 -2.9062 -33.3281 Q-1.875 -34.4766 0.0156 -34.4766 Q1.875 -34.4766 2.9062 -33.3047 Q3.9375 -32.1328 3.9375 -30.0703 ZM-2.8906 -30.0703 Q-2.8906 -28.3359 -2.1484 -27.4297 Q-1.4062 -26.5234 0.0156 -26.5234 Q1.4375 -26.5234 2.1641 -27.4219 Q2.8906 -28.3203 2.8906 -30.0703 Q2.8906 -31.8047 2.1641 -32.6953 Q1.4375 -33.5859 0.0156 -33.5859 Q-1.4062 -33.5859 -2.1484 -32.6875 Q-2.8906 -31.7891 -2.8906 -30.0703 Z" /><ns0:path style="fill:rgb(230,0,0); stroke:none;" d="M3.9375 29.9297 Q3.9375 31.9922 2.8984 33.1719 Q1.8594 34.3516 0.0156 34.3516 Q-1.875 34.3516 -2.9062 33.1875 Q-3.9375 32.0234 -3.9375 29.9141 Q-3.9375 27.8203 -2.9062 26.6719 Q-1.875 25.5234 0.0156 25.5234 Q1.875 25.5234 2.9062 26.6953 Q3.9375 27.8672 3.9375 29.9297 ZM-2.8906 29.9297 Q-2.8906 31.6641 -2.1484 32.5703 Q-1.4062 33.4766 0.0156 33.4766 Q1.4375 33.4766 2.1641 32.5781 Q2.8906 31.6797 2.8906 29.9297 Q2.8906 28.1953 2.1641 27.3047 Q1.4375 26.4141 0.0156 26.4141 Q-1.4062 26.4141 -2.1484 27.3125 Q-2.8906 28.2109 -2.8906 29.9297 Z" /><ns0:path style="fill:rgb(230,0,0); stroke:none;" d="M33.9375 -0.0703 Q33.9375 1.9922 32.8984 3.1719 Q31.8594 4.3516 30.0156 4.3516 Q28.125 4.3516 27.0938 3.1875 Q26.0625 2.0234 26.0625 -0.0859 Q26.0625 -2.1797 27.0938 -3.3281 Q28.125 -4.4766 30.0156 -4.4766 Q31.875 -4.4766 32.9062 -3.3047 Q33.9375 -2.1328 33.9375 -0.0703 ZM27.1094 -0.0703 Q27.1094 1.6641 27.8516 2.5703 Q28.5938 3.4766 30.0156 3.4766 Q31.4375 3.4766 32.1641 2.5781 Q32.8906 1.6797 32.8906 -0.0703 Q32.8906 -1.8047 32.1641 -2.6953 Q31.4375 -3.5859 30.0156 -3.5859 Q28.5938 -3.5859 27.8516 -2.6875 Q27.1094 -1.7891 27.1094 -0.0703 Z" /><ns0:path style="fill:rgb(230,0,0); stroke:none;" d="M41.4531 4.2266 L40.4531 4.2266 L40.4531 0.1953 L35.9375 0.1953 L35.9375 4.2266 L34.9375 4.2266 L34.9375 -4.3359 L35.9375 -4.3359 L35.9375 -0.6953 L40.4531 -0.6953 L40.4531 -4.3359 L41.4531 -4.3359 L41.4531 4.2266 Z" /></ns0:g></ns0:g></ns0:svg></ns0:svg></ns0:svg></ns0:svg></g><g transform="translate(100, 0)"><ns0:svg width="385" viewBox="0 0 385 150" style="fill-opacity:1; color-rendering:auto; color-interpolation:auto; text-rendering:auto; stroke:black; stroke-linecap:square; stroke-miterlimit:10; shape-rendering:auto; stroke-opacity:1; fill:black; stroke-dasharray:none; font-weight:normal; stroke-width:1; font-family:'Open Sans'; font-style:normal; stroke-linejoin:miter; font-size:12; stroke-dashoffset:0; image-rendering:auto;" height="150" class="cas-substance-image"><ns0:svg class="cas-substance-single-component"><ns0:rect y="0" x="0" width="385" stroke="none" ry="7" rx="7" height="150" fill="white" class="cas-substance-group" /><ns0:svg y="0" x="0" width="385" viewBox="0 0 385 150" style="fill:black;" height="150" class="cas-substance-single-component-image"><ns0:svg><ns0:g><ns0:g transform="translate(189,75)" style="text-rendering:geometricPrecision; color-rendering:optimizeQuality; color-interpolation:linearRGB; stroke-linecap:butt; image-rendering:optimizeQuality;"><ns0:line y2="-10.7412" y1="-22.5" x2="-31.5943" x1="-51.963" style="fill:none;" /><ns0:line y2="-7.5" y1="-22.5" x2="-77.943" x1="-51.963" style="fill:none;" /><ns0:line y2="-22.5" y1="-10.726" x2="0" x1="-20.3925" style="fill:none;" /><ns0:line y2="24.1631" y1="33.0494" x2="-175.4856" x1="-160.0946" style="fill:none;" /><ns0:line y2="27.1941" y1="36.0804" x2="-177.2357" x1="-161.8446" style="fill:none;" /><ns0:line y2="61.0234" y1="43.6562" x2="-157.636" x1="-157.636" style="fill:none;" /><ns0:line y2="61.0234" y1="43.6562" x2="-154.136" x1="-154.136" style="fill:none;" /><ns0:line y2="22.5" y1="34.5652" x2="-129.903" x1="-150.8024" style="fill:none;" /><ns0:line y2="-52.5" y1="-67.5" x2="103.923" x1="77.943" style="fill:none;" /><ns0:line y2="-52.5" y1="-67.5" x2="51.963" x1="77.943" style="fill:none;" /><ns0:line y2="-64.9583" y1="-52.5" x2="125.5008" x1="103.923" style="fill:none;" /><ns0:line y2="-52.5" y1="-64.9441" x2="155.886" x1="134.3304" style="fill:none;" /><ns0:line y2="-63.0494" y1="-50.4793" x2="177.6574" x1="155.886" style="fill:none;" /><ns0:line y2="-66.0804" y1="-53.5103" x2="175.9074" x1="154.1359" style="fill:none;" /><ns0:line y2="-28.9062" y1="-52.5" x2="155.886" x1="155.886" style="fill:none;" /><ns0:line y2="22.5" y1="-7.5" x2="-77.943" x1="-77.943" style="fill:none;" /><ns0:line y2="20.4793" y1="-5.4793" x2="-81.443" x1="-81.443" style="fill:none;" /><ns0:line y2="-22.5" y1="-7.5" x2="-103.923" x1="-77.943" style="fill:none;" /><ns0:line y2="37.5" y1="22.5" x2="-103.923" x1="-77.943" style="fill:none;" /><ns0:line y2="-7.5" y1="-22.5" x2="-129.903" x1="-103.923" style="fill:none;" /><ns0:line y2="-5.4793" y1="-18.4585" x2="-126.403" x1="-103.9229" style="fill:none;" /><ns0:line y2="22.5" y1="37.5" x2="-129.903" x1="-103.923" style="fill:none;" /><ns0:line y2="20.4793" y1="33.4585" x2="-126.403" x1="-103.9229" style="fill:none;" /><ns0:line y2="22.5" y1="-7.5" x2="-129.903" x1="-129.903" style="fill:none;" /><ns0:line y2="-7.5" y1="-22.5" x2="25.98" x1="0" style="fill:none;" /><ns0:line y2="-11.5415" y1="-24.5207" x2="25.9801" x1="3.5" style="fill:none;" /><ns0:line y2="-52.5" y1="-22.5" x2="0" x1="0" style="fill:none;" /><ns0:line y2="-22.5" y1="-7.5" x2="51.963" x1="25.98" style="fill:none;" /><ns0:line y2="-67.5" y1="-52.5" x2="25.98" x1="0" style="fill:none;" /><ns0:line y2="-63.4585" y1="-50.4793" x2="25.9801" x1="3.5" style="fill:none;" /><ns0:line y2="-52.5" y1="-22.5" x2="51.963" x1="51.963" style="fill:none;" /><ns0:line y2="-50.4793" y1="-24.5207" x2="48.463" x1="48.463" style="fill:none;" /><ns0:line y2="-52.5" y1="-67.5" x2="51.963" x1="25.98" style="fill:none;" /><ns0:path style="fill:none; stroke-miterlimit:5;" d="M-51.53 -22.25 L-51.963 -22.5 L-52.396 -22.25" /></ns0:g><ns0:g transform="translate(189,75)" style="stroke-linecap:butt; fill:rgb(230,0,0); text-rendering:geometricPrecision; color-rendering:optimizeQuality; image-rendering:optimizeQuality; font-family:'Open Sans'; stroke:rgb(230,0,0); color-interpolation:linearRGB; stroke-miterlimit:5;"><ns0:path style="stroke:none;" d="M-22.0425 -7.5703 Q-22.0425 -5.5078 -23.0816 -4.3281 Q-24.1206 -3.1484 -25.9644 -3.1484 Q-27.855 -3.1484 -28.8862 -4.3125 Q-29.9175 -5.4766 -29.9175 -7.5859 Q-29.9175 -9.6797 -28.8862 -10.8281 Q-27.855 -11.9766 -25.9644 -11.9766 Q-24.105 -11.9766 -23.0737 -10.8047 Q-22.0425 -9.6328 -22.0425 -7.5703 ZM-28.8706 -7.5703 Q-28.8706 -5.8359 -28.1284 -4.9297 Q-27.3862 -4.0234 -25.9644 -4.0234 Q-24.5425 -4.0234 -23.8159 -4.9219 Q-23.0894 -5.8203 -23.0894 -7.5703 Q-23.0894 -9.3047 -23.8159 -10.1953 Q-24.5425 -11.0859 -25.9644 -11.0859 Q-27.3862 -11.0859 -28.1284 -10.1875 Q-28.8706 -9.2891 -28.8706 -7.5703 Z" /><ns0:path style="fill:rgb(0,5,255); stroke:none;" d="M-152.5344 41.6562 L-153.6751 41.6562 L-158.3626 34.4688 L-158.4094 34.4688 Q-158.3157 35.7344 -158.3157 36.7812 L-158.3157 41.6562 L-159.2376 41.6562 L-159.2376 33.0938 L-158.1126 33.0938 L-153.4407 40.25 L-153.3938 40.25 Q-153.3938 40.0938 -153.4407 39.2344 Q-153.4876 38.375 -153.4719 38 L-153.4719 33.0938 L-152.5344 33.0938 L-152.5344 41.6562 Z" /><ns0:path style="stroke:none;" d="M-177.9285 22.4297 Q-177.9285 24.4922 -178.9676 25.6719 Q-180.0066 26.8516 -181.8504 26.8516 Q-183.741 26.8516 -184.7722 25.6875 Q-185.8035 24.5234 -185.8035 22.4141 Q-185.8035 20.3203 -184.7722 19.1719 Q-183.741 18.0234 -181.8504 18.0234 Q-179.991 18.0234 -178.9597 19.1953 Q-177.9285 20.3672 -177.9285 22.4297 ZM-184.7566 22.4297 Q-184.7566 24.1641 -184.0144 25.0703 Q-183.2722 25.9766 -181.8504 25.9766 Q-180.4285 25.9766 -179.7019 25.0781 Q-178.9754 24.1797 -178.9754 22.4297 Q-178.9754 20.6953 -179.7019 19.8047 Q-180.4285 18.9141 -181.8504 18.9141 Q-183.2722 18.9141 -184.0144 19.8125 Q-184.7566 20.7109 -184.7566 22.4297 Z" /><ns0:path style="stroke:none;" d="M-151.9485 67.4297 Q-151.9485 69.4922 -152.9876 70.6719 Q-154.0266 71.8516 -155.8704 71.8516 Q-157.761 71.8516 -158.7923 70.6875 Q-159.8235 69.5234 -159.8235 67.4141 Q-159.8235 65.3203 -158.7923 64.1719 Q-157.761 63.0234 -155.8704 63.0234 Q-154.011 63.0234 -152.9798 64.1953 Q-151.9485 65.3672 -151.9485 67.4297 ZM-158.7766 67.4297 Q-158.7766 69.1641 -158.0344 70.0703 Q-157.2923 70.9766 -155.8704 70.9766 Q-154.4485 70.9766 -153.7219 70.0781 Q-152.9954 69.1797 -152.9954 67.4297 Q-152.9954 65.6953 -153.7219 64.8047 Q-154.4485 63.9141 -155.8704 63.9141 Q-157.2923 63.9141 -158.0344 64.8125 Q-158.7766 65.7109 -158.7766 67.4297 Z" /><ns0:path style="fill:none; stroke:black;" d="M78.376 -67.25 L77.943 -67.5 L77.51 -67.25" /><ns0:path style="fill:none; stroke:black;" d="M103.49 -52.75 L103.923 -52.5 L104.356 -52.75" /><ns0:path style="fill:rgb(148,108,0); stroke:none;" d="M132.5983 -65.5625 Q132.5983 -64.4375 131.778 -63.7969 Q130.9577 -63.1562 129.5514 -63.1562 Q128.0202 -63.1562 127.2077 -63.5625 L127.2077 -64.5156 Q127.7389 -64.2969 128.3561 -64.1641 Q128.9733 -64.0312 129.5827 -64.0312 Q130.5827 -64.0312 131.0827 -64.4141 Q131.5827 -64.7969 131.5827 -65.4688 Q131.5827 -65.9062 131.403 -66.1953 Q131.2233 -66.4844 130.8092 -66.7266 Q130.3952 -66.9688 129.5358 -67.2656 Q128.3483 -67.6875 127.8327 -68.2734 Q127.3171 -68.8594 127.3171 -69.8125 Q127.3171 -70.7969 128.0592 -71.3828 Q128.8014 -71.9688 130.0358 -71.9688 Q131.3014 -71.9688 132.3796 -71.5 L132.0671 -70.6406 Q131.0046 -71.0781 130.0046 -71.0781 Q129.2077 -71.0781 128.7624 -70.7422 Q128.3171 -70.4062 128.3171 -69.7969 Q128.3171 -69.3594 128.4811 -69.0703 Q128.6452 -68.7812 129.0358 -68.5469 Q129.4264 -68.3125 130.2389 -68.0156 Q131.5827 -67.5469 132.0905 -66.9922 Q132.5983 -66.4375 132.5983 -65.5625 Z" /><ns0:path style="fill:none; stroke:black;" d="M155.453 -52.75 L155.886 -52.5 L155.886 -52" /><ns0:path style="fill:rgb(0,5,255); stroke:none;" d="M185.2176 -63.3438 L184.0769 -63.3438 L179.3894 -70.5312 L179.3426 -70.5312 Q179.4363 -69.2656 179.4363 -68.2188 L179.4363 -63.3438 L178.5144 -63.3438 L178.5144 -71.9062 L179.6394 -71.9062 L184.3113 -64.75 L184.3582 -64.75 Q184.3582 -64.9062 184.3113 -65.7656 Q184.2644 -66.625 184.2801 -67 L184.2801 -71.9062 L185.2176 -71.9062 L185.2176 -63.3438 Z" /><ns0:path style="fill:rgb(0,5,255); stroke:none;" d="M192.7332 -63.3438 L191.7332 -63.3438 L191.7332 -67.375 L187.2176 -67.375 L187.2176 -63.3438 L186.2176 -63.3438 L186.2176 -71.9062 L187.2176 -71.9062 L187.2176 -68.2656 L191.7332 -68.2656 L191.7332 -71.9062 L192.7332 -71.9062 L192.7332 -63.3438 Z" /><ns0:path style="fill:rgb(0,5,255); stroke:none;" d="M159.2376 -18.3438 L158.0969 -18.3438 L153.4094 -25.5312 L153.3626 -25.5312 Q153.4563 -24.2656 153.4563 -23.2188 L153.4563 -18.3438 L152.5344 -18.3438 L152.5344 -26.9062 L153.6594 -26.9062 L158.3313 -19.75 L158.3782 -19.75 Q158.3782 -19.9062 158.3313 -20.7656 Q158.2844 -21.625 158.3001 -22 L158.3001 -26.9062 L159.2376 -26.9062 L159.2376 -18.3438 Z" /><ns0:path style="fill:rgb(0,5,255); stroke:none;" d="M166.7532 -18.3438 L165.7532 -18.3438 L165.7532 -22.375 L161.2376 -22.375 L161.2376 -18.3438 L160.2376 -18.3438 L160.2376 -26.9062 L161.2376 -26.9062 L161.2376 -23.2656 L165.7532 -23.2656 L165.7532 -26.9062 L166.7532 -26.9062 L166.7532 -18.3438 Z" /><ns0:path style="fill:rgb(0,5,255); stroke:none;" d="M171.5032 -16.5344 L167.7532 -16.5344 L167.7532 -17.0969 L169.2532 -18.6125 Q169.9407 -19.3 170.1594 -19.5969 Q170.3782 -19.8937 170.4876 -20.175 Q170.5969 -20.4562 170.5969 -20.7844 Q170.5969 -21.2375 170.3235 -21.5031 Q170.0501 -21.7687 169.5501 -21.7687 Q169.2063 -21.7687 168.886 -21.6516 Q168.5657 -21.5344 168.1751 -21.2375 L167.8313 -21.675 Q168.6126 -22.3312 169.5501 -22.3312 Q170.3469 -22.3312 170.8079 -21.9172 Q171.2688 -21.5031 171.2688 -20.8156 Q171.2688 -20.2687 170.9641 -19.7375 Q170.6594 -19.2062 169.8157 -18.3937 L168.5657 -17.175 L168.5657 -17.1437 L171.5032 -17.1437 L171.5032 -16.5344 Z" /><ns0:path style="fill:none; stroke:black;" d="M-77.943 -7 L-77.943 -7.5 L-77.51 -7.75" /><ns0:path style="fill:none; stroke:black;" d="M-77.943 22 L-77.943 22.5 L-78.376 22.75" /><ns0:path style="fill:none; stroke:black;" d="M-103.49 -22.25 L-103.923 -22.5 L-104.356 -22.25" /><ns0:path style="fill:none; stroke:black;" d="M-103.49 37.25 L-103.923 37.5 L-104.356 37.25" /><ns0:path style="fill:none; stroke:black;" d="M-129.47 -7.75 L-129.903 -7.5 L-129.903 -7" /><ns0:path style="fill:none; stroke:black;" d="M-129.47 22.75 L-129.903 22.5 L-130.336 22.75" /><ns0:path style="fill:none; stroke:black;" d="M0.433 -22.25 L0 -22.5 L-0.433 -22.25" /><ns0:path style="fill:none; stroke:black;" d="M25.547 -7.75 L25.98 -7.5 L26.413 -7.75" /><ns0:path style="fill:none; stroke:black;" d="M-0 -52 L0 -52.5 L0.433 -52.75" /><ns0:path style="fill:none; stroke:black;" d="M51.53 -22.25 L51.963 -22.5 L51.963 -23" /><ns0:path style="fill:none; stroke:black;" d="M25.547 -67.25 L25.98 -67.5 L26.413 -67.25" /><ns0:path style="fill:none; stroke:black;" d="M51.963 -52 L51.963 -52.5 L52.396 -52.75" /></ns0:g></ns0:g></ns0:svg></ns0:svg></ns0:svg></ns0:svg></g></svg>