<svg width="319" viewBox="0 0 319 116" style="fill-opacity:1; color-rendering:auto; color-interpolation:auto; text-rendering:auto; stroke:black; stroke-linecap:square; stroke-miterlimit:10; shape-rendering:auto; stroke-opacity:1; fill:black; stroke-dasharray:none; font-weight:normal; stroke-width:1; font-family:'Open Sans'; font-style:normal; stroke-linejoin:miter; font-size:12; stroke-dashoffset:0; image-rendering:auto;" height="116" class="cas-substance-image" xmlns:xlink="http://www.w3.org/1999/xlink" xmlns="http://www.w3.org/2000/svg"><svg class="cas-substance-single-component"><rect y="0" x="0" width="319" stroke="none" ry="7" rx="7" height="116" fill="white" class="cas-substance-group"/><svg y="0" x="0" width="319" viewBox="0 0 319 101" style="fill:black;" height="101" class="cas-substance-single-component-image"><svg><g><g transform="translate(159,49)" style="text-rendering:geometricPrecision; color-rendering:optimizeQuality; color-interpolation:linearRGB; stroke-linecap:butt; image-rendering:optimizeQuality;"><line y2="0" y1="15" x2="0" x1="-25.98" style="fill:none;"/><line y2="0" y1="15" x2="-51.963" x1="-25.98" style="fill:none;"/><line y2="15" y1="0" x2="25.98" x1="0" style="fill:none;"/><path style="stroke:none;" d="M-2.9033 -22.9219 L-2.7985 -21.9219 L2.7985 -21.9219 L2.9033 -22.9219 ZM-2.5888 -19.9219 L-2.4839 -18.9219 L2.4839 -18.9219 L2.5888 -19.9219 ZM-2.2742 -16.9219 L-2.1694 -15.9219 L2.1694 -15.9219 L2.2742 -16.9219 ZM-1.9597 -13.9219 L-1.8548 -12.9219 L1.8548 -12.9219 L1.9597 -13.9219 ZM-1.6452 -10.9219 L-1.5403 -9.9219 L1.5403 -9.9219 L1.6452 -10.9219 ZM-1.3306 -7.9219 L-1.2258 -6.9219 L1.2258 -6.9219 L1.3306 -7.9219 ZM-1.0161 -4.9219 L-0.9112 -3.9219 L0.9112 -3.9219 L1.0161 -4.9219 ZM-0.7015 -1.9219 L-0.5967 -0.9219 L0.5967 -0.9219 L0.7015 -1.9219 Z"/><line y2="3.1886" y1="15" x2="46.4398" x1="25.98" style="fill:none;"/><line y2="38.5234" y1="13.9896" x2="24.23" x1="24.23" style="fill:none;"/><line y2="38.5234" y1="13.9897" x2="27.73" x1="27.73" style="fill:none;"/><line y2="15" y1="3.1786" x2="77.943" x1="57.4684" style="fill:none;"/><line y2="0" y1="15" x2="103.923" x1="77.943" style="fill:none;"/><line y2="30" y1="17.5414" x2="-155.886" x1="-134.3053" style="fill:none;"/><line y2="-6.2193" y1="8.726" x2="-140.1336" x1="-131.5047" style="fill:none;"/><line y2="-4.4693" y1="10.476" x2="-143.1647" x1="-134.5357" style="fill:none;"/><line y2="36.1274" y1="21.1686" x2="-119.7255" x1="-128.3622" style="fill:none;"/><line y2="34.3774" y1="19.4186" x2="-116.6944" x1="-125.3311" style="fill:none;"/><line y2="0" y1="12.6219" x2="-103.923" x1="-125.7841" style="fill:none;"/><line y2="15" y1="0" x2="-77.943" x1="-51.963" style="fill:none;"/><line y2="10.9585" y1="-2.0207" x2="-77.9431" x1="-55.463" style="fill:none;"/><line y2="-30" y1="0" x2="-51.963" x1="-51.963" style="fill:none;"/><line y2="0" y1="15" x2="-103.923" x1="-77.943" style="fill:none;"/><line y2="-45" y1="-30" x2="-77.943" x1="-51.963" style="fill:none;"/><line y2="-40.9585" y1="-27.9793" x2="-77.9431" x1="-55.463" style="fill:none;"/><line y2="-30" y1="0" x2="-103.923" x1="-103.923" style="fill:none;"/><line y2="-27.9793" y1="-2.0207" x2="-100.423" x1="-100.423" style="fill:none;"/><line y2="-30" y1="-45" x2="-103.923" x1="-77.943" style="fill:none;"/><line y2="-30" y1="0" x2="103.923" x1="103.923" style="fill:none;"/><line y2="-27.9793" y1="-2.0207" x2="107.423" x1="107.423" style="fill:none;"/><line y2="15" y1="0" x2="129.903" x1="103.923" style="fill:none;"/><line y2="-45" y1="-30" x2="129.903" x1="103.923" style="fill:none;"/><line y2="0" y1="15" x2="155.886" x1="129.903" style="fill:none;"/><line y2="-2.0209" y1="10.9585" x2="152.3861" x1="129.9031" style="fill:none;"/><line y2="-30" y1="-45" x2="155.886" x1="129.903" style="fill:none;"/><line y2="-27.9791" y1="-40.9585" x2="152.3861" x1="129.9031" style="fill:none;"/><line y2="-30" y1="0" x2="155.886" x1="155.886" style="fill:none;"/><path style="fill:none; stroke-miterlimit:5;" d="M-25.547 14.75 L-25.98 15 L-26.413 14.75"/><path style="fill:none; stroke-miterlimit:5;" d="M-0.433 0.25 L0 0 L0.433 0.25"/></g><g transform="translate(159,49)" style="stroke-linecap:butt; font-size:8.4px; fill:gray; text-rendering:geometricPrecision; image-rendering:optimizeQuality; color-rendering:optimizeQuality; font-family:'Open Sans'; font-style:italic; stroke:gray; color-interpolation:linearRGB; stroke-miterlimit:5;"><path style="stroke:none;" d="M-12.7687 -3.797 Q-12.7687 -5.1251 -12.3 -6.2501 Q-11.8312 -7.3751 -10.8 -8.4532 L-10.1906 -8.4532 Q-11.1593 -7.3907 -11.6437 -6.2189 Q-12.1281 -5.047 -12.1281 -3.8126 Q-12.1281 -2.4845 -11.6906 -1.4689 L-12.2062 -1.4689 Q-12.7687 -2.5001 -12.7687 -3.797 ZM-7.1462 -4.3907 Q-7.1462 -3.5626 -7.693 -3.1095 Q-8.2399 -2.6564 -9.2399 -2.6564 Q-9.6462 -2.6564 -9.9587 -2.711 Q-10.2712 -2.7657 -10.5524 -2.9064 L-10.5524 -3.5626 Q-9.9274 -3.2345 -9.2243 -3.2345 Q-8.5993 -3.2345 -8.2243 -3.5314 Q-7.8493 -3.8282 -7.8493 -4.3439 Q-7.8493 -4.6564 -8.0524 -4.8829 Q-8.2555 -5.1095 -8.818 -5.4376 Q-9.4118 -5.7657 -9.6383 -6.0939 Q-9.8649 -6.422 -9.8649 -6.8751 Q-9.8649 -7.6095 -9.3493 -8.0704 Q-8.8337 -8.5314 -7.9899 -8.5314 Q-7.6149 -8.5314 -7.279 -8.4532 Q-6.943 -8.3751 -6.568 -8.2032 L-6.8337 -7.6095 Q-7.0837 -7.7657 -7.404 -7.8517 Q-7.7243 -7.9376 -7.9899 -7.9376 Q-8.5212 -7.9376 -8.8415 -7.6642 Q-9.1618 -7.3907 -9.1618 -6.922 Q-9.1618 -6.7189 -9.0915 -6.5704 Q-9.0212 -6.422 -8.8805 -6.2892 Q-8.7399 -6.1564 -8.318 -5.9064 Q-7.7555 -5.5626 -7.5524 -5.3673 Q-7.3493 -5.172 -7.2477 -4.9376 Q-7.1462 -4.7032 -7.1462 -4.3907 ZM-4.5517 -6.1095 Q-4.5517 -4.7814 -5.0282 -3.6485 Q-5.5048 -2.5157 -6.5204 -1.4689 L-7.1298 -1.4689 Q-5.1923 -3.6251 -5.1923 -6.1095 Q-5.1923 -7.4376 -5.6298 -8.4532 L-5.1142 -8.4532 Q-4.5517 -7.3907 -4.5517 -6.1095 Z"/><path style="fill:none; stroke:black;" d="M25.547 14.75 L25.98 15 L26.413 14.75"/></g><g transform="translate(159,49)" style="stroke-linecap:butt; fill:rgb(0,5,255); text-rendering:geometricPrecision; color-rendering:optimizeQuality; image-rendering:optimizeQuality; font-family:'Open Sans'; stroke:rgb(0,5,255); color-interpolation:linearRGB; stroke-miterlimit:5;"><path style="stroke:none;" d="M3.3516 -25.8438 L2.2109 -25.8438 L-2.4766 -33.0312 L-2.5234 -33.0312 Q-2.4297 -31.7656 -2.4297 -30.7188 L-2.4297 -25.8438 L-3.3516 -25.8438 L-3.3516 -34.4062 L-2.2266 -34.4062 L2.4453 -27.25 L2.4922 -27.25 Q2.4922 -27.4062 2.4453 -28.2656 Q2.3984 -29.125 2.4141 -29.5 L2.4141 -34.4062 L3.3516 -34.4062 L3.3516 -25.8438 Z"/><path style="stroke:none;" d="M10.8672 -25.8438 L9.8672 -25.8438 L9.8672 -29.875 L5.3516 -29.875 L5.3516 -25.8438 L4.3516 -25.8438 L4.3516 -34.4062 L5.3516 -34.4062 L5.3516 -30.7656 L9.8672 -30.7656 L9.8672 -34.4062 L10.8672 -34.4062 L10.8672 -25.8438 Z"/><path style="stroke:none;" d="M15.6172 -24.0344 L11.8672 -24.0344 L11.8672 -24.5969 L13.3672 -26.1125 Q14.0547 -26.8 14.2734 -27.0969 Q14.4922 -27.3937 14.6016 -27.675 Q14.7109 -27.9562 14.7109 -28.2844 Q14.7109 -28.7375 14.4375 -29.0031 Q14.1641 -29.2687 13.6641 -29.2687 Q13.3203 -29.2687 13 -29.1516 Q12.6797 -29.0344 12.2891 -28.7375 L11.9453 -29.175 Q12.7266 -29.8312 13.6641 -29.8312 Q14.4609 -29.8312 14.9219 -29.4172 Q15.3828 -29.0031 15.3828 -28.3156 Q15.3828 -27.7687 15.0781 -27.2375 Q14.7734 -26.7062 13.9297 -25.8937 L12.6797 -24.675 L12.6797 -24.6437 L15.6172 -24.6437 L15.6172 -24.0344 Z"/><path style="fill:rgb(230,0,0); stroke:none;" d="M55.9005 -0.0703 Q55.9005 1.9922 54.8614 3.1719 Q53.8224 4.3516 51.9786 4.3516 Q50.088 4.3516 49.0568 3.1875 Q48.0255 2.0234 48.0255 -0.0859 Q48.0255 -2.1797 49.0568 -3.3281 Q50.088 -4.4766 51.9786 -4.4766 Q53.838 -4.4766 54.8693 -3.3047 Q55.9005 -2.1328 55.9005 -0.0703 ZM49.0724 -0.0703 Q49.0724 1.6641 49.8146 2.5703 Q50.5568 3.4766 51.9786 3.4766 Q53.4005 3.4766 54.1271 2.5781 Q54.8536 1.6797 54.8536 -0.0703 Q54.8536 -1.8047 54.1271 -2.6953 Q53.4005 -3.5859 51.9786 -3.5859 Q50.5568 -3.5859 49.8146 -2.6875 Q49.0724 -1.7891 49.0724 -0.0703 Z"/><path style="fill:rgb(230,0,0); stroke:none;" d="M29.9175 44.9297 Q29.9175 46.9922 28.8784 48.1719 Q27.8394 49.3516 25.9956 49.3516 Q24.105 49.3516 23.0737 48.1875 Q22.0425 47.0234 22.0425 44.9141 Q22.0425 42.8203 23.0737 41.6719 Q24.105 40.5234 25.9956 40.5234 Q27.855 40.5234 28.8862 41.6953 Q29.9175 42.8672 29.9175 44.9297 ZM23.0894 44.9297 Q23.0894 46.6641 23.8316 47.5703 Q24.5737 48.4766 25.9956 48.4766 Q27.4175 48.4766 28.1441 47.5781 Q28.8706 46.6797 28.8706 44.9297 Q28.8706 43.1953 28.1441 42.3047 Q27.4175 41.4141 25.9956 41.4141 Q24.5737 41.4141 23.8316 42.3125 Q23.0894 43.2109 23.0894 44.9297 Z"/><path style="fill:none; stroke:black;" d="M77.51 14.75 L77.943 15 L78.376 14.75"/><path style="fill:rgb(148,108,0); stroke:none;" d="M-127.2077 16.9375 Q-127.2077 18.0625 -128.028 18.7031 Q-128.8483 19.3438 -130.2546 19.3438 Q-131.7858 19.3438 -132.5983 18.9375 L-132.5983 17.9844 Q-132.0671 18.2031 -131.4499 18.3359 Q-130.8327 18.4688 -130.2233 18.4688 Q-129.2233 18.4688 -128.7233 18.0859 Q-128.2233 17.7031 -128.2233 17.0312 Q-128.2233 16.5938 -128.403 16.3047 Q-128.5827 16.0156 -128.9967 15.7734 Q-129.4108 15.5312 -130.2702 15.2344 Q-131.4577 14.8125 -131.9733 14.2266 Q-132.4889 13.6406 -132.4889 12.6875 Q-132.4889 11.7031 -131.7467 11.1172 Q-131.0046 10.5312 -129.7702 10.5312 Q-128.5046 10.5312 -127.4264 11 L-127.7389 11.8594 Q-128.8014 11.4219 -129.8014 11.4219 Q-130.5983 11.4219 -131.0436 11.7578 Q-131.4889 12.0938 -131.4889 12.7031 Q-131.4889 13.1406 -131.3249 13.4297 Q-131.1608 13.7188 -130.7702 13.9531 Q-130.3796 14.1875 -129.5671 14.4844 Q-128.2233 14.9531 -127.7155 15.5078 Q-127.2077 16.0625 -127.2077 16.9375 Z"/><path style="fill:rgb(230,0,0); stroke:none;" d="M-140.9655 -11.0503 Q-140.9655 -8.9878 -142.0046 -7.8081 Q-143.0436 -6.6284 -144.8874 -6.6284 Q-146.778 -6.6284 -147.8092 -7.7925 Q-148.8405 -8.9566 -148.8405 -11.0659 Q-148.8405 -13.1597 -147.8092 -14.3081 Q-146.778 -15.4566 -144.8874 -15.4566 Q-143.028 -15.4566 -141.9967 -14.2847 Q-140.9655 -13.1128 -140.9655 -11.0503 ZM-147.7936 -11.0503 Q-147.7936 -9.3159 -147.0514 -8.4097 Q-146.3092 -7.5034 -144.8874 -7.5034 Q-143.4655 -7.5034 -142.7389 -8.4019 Q-142.0124 -9.3003 -142.0124 -11.0503 Q-142.0124 -12.7847 -142.7389 -13.6753 Q-143.4655 -14.5659 -144.8874 -14.5659 Q-146.3092 -14.5659 -147.0514 -13.6675 Q-147.7936 -12.7691 -147.7936 -11.0503 Z"/><path style="fill:rgb(230,0,0); stroke:none;" d="M-110.9655 40.9097 Q-110.9655 42.9722 -112.0046 44.1519 Q-113.0436 45.3316 -114.8874 45.3316 Q-116.778 45.3316 -117.8092 44.1675 Q-118.8405 43.0034 -118.8405 40.8941 Q-118.8405 38.8003 -117.8092 37.6519 Q-116.778 36.5034 -114.8874 36.5034 Q-113.028 36.5034 -111.9967 37.6753 Q-110.9655 38.8472 -110.9655 40.9097 ZM-117.7936 40.9097 Q-117.7936 42.6441 -117.0514 43.5503 Q-116.3092 44.4566 -114.8874 44.4566 Q-113.4655 44.4566 -112.7389 43.5581 Q-112.0124 42.6597 -112.0124 40.9097 Q-112.0124 39.1753 -112.7389 38.2847 Q-113.4655 37.3941 -114.8874 37.3941 Q-116.3092 37.3941 -117.0514 38.2925 Q-117.7936 39.1909 -117.7936 40.9097 Z"/><path style="fill:none; stroke:black;" d="M-52.396 0.25 L-51.963 0 L-51.963 -0.5"/><path style="fill:none; stroke:black;" d="M-77.51 14.75 L-77.943 15 L-78.376 14.75"/><path style="fill:none; stroke:black;" d="M-51.963 -29.5 L-51.963 -30 L-52.396 -30.25"/><path style="fill:none; stroke:black;" d="M-103.923 -0.5 L-103.923 0 L-104.356 0.25"/><path style="fill:none; stroke:black;" d="M-77.51 -44.75 L-77.943 -45 L-78.376 -44.75"/><path style="fill:none; stroke:black;" d="M-103.923 -29.5 L-103.923 -30 L-103.49 -30.25"/><path style="fill:none; stroke:black;" d="M103.923 -0.5 L103.923 0 L103.49 0.25"/><path style="fill:none; stroke:black;" d="M103.923 -29.5 L103.923 -30 L104.356 -30.25"/><path style="fill:none; stroke:black;" d="M129.47 14.75 L129.903 15 L130.336 14.75"/><path style="fill:none; stroke:black;" d="M129.47 -44.75 L129.903 -45 L130.336 -44.75"/><path style="fill:none; stroke:black;" d="M155.453 0.25 L155.886 0 L155.886 -0.5"/><path style="fill:none; stroke:black;" d="M155.453 -30.25 L155.886 -30 L155.886 -29.5"/></g></g></svg></svg><svg y="101" x="151" class="cas-substance-saf"><svg y="5" x="0" width="4" style="fill:black;" height="4" class="cas-substance-saf-dot"><circle stroke="none" r="2" fill="black" cy="2" cx="2"/></svg><svg y="0" x="8" width="22" style="fill:black;" height="15" class="cas-substance-saf-image"><svg><g><g transform="translate(6,8)" style="fill:rgb(0,138,0); text-rendering:geometricPrecision; color-rendering:optimizeQuality; image-rendering:optimizeQuality; font-family:'Open Sans'; stroke:rgb(0,138,0); color-interpolation:linearRGB;"><path style="stroke:none;" d="M3.2578 4.1562 L2.2578 4.1562 L2.2578 0.125 L-2.2578 0.125 L-2.2578 4.1562 L-3.2578 4.1562 L-3.2578 -4.4062 L-2.2578 -4.4062 L-2.2578 -0.7656 L2.2578 -0.7656 L2.2578 -4.4062 L3.2578 -4.4062 L3.2578 4.1562 Z"/><path style="stroke:none;" d="M8.3672 -3.6406 Q6.9609 -3.6406 6.1406 -2.7031 Q5.3203 -1.7656 5.3203 -0.125 Q5.3203 1.5469 6.1094 2.4688 Q6.8984 3.3906 8.3516 3.3906 Q9.2578 3.3906 10.3984 3.0625 L10.3984 3.9375 Q9.5078 4.2812 8.2109 4.2812 Q6.3203 4.2812 5.2891 3.125 Q4.2578 1.9688 4.2578 -0.1406 Q4.2578 -1.4688 4.75 -2.4609 Q5.2422 -3.4531 6.1797 -3.9922 Q7.1172 -4.5312 8.3828 -4.5312 Q9.7266 -4.5312 10.7422 -4.0469 L10.3203 -3.1875 Q9.3359 -3.6406 8.3672 -3.6406 ZM13.0938 4.1562 L12.125 4.1562 L12.125 -4.9688 L13.0938 -4.9688 L13.0938 4.1562 Z"/></g></g></svg></svg></svg></svg></svg>