<svg xmlns:ns0="http://www.w3.org/2000/svg" xmlns="http://www.w3.org/2000/svg"><g transform="translate(0, 0)"><ns0:svg width="256" viewBox="0 0 256 119" style="fill-opacity:1; color-rendering:auto; color-interpolation:auto; text-rendering:auto; stroke:black; stroke-linecap:square; stroke-miterlimit:10; shape-rendering:auto; stroke-opacity:1; fill:black; stroke-dasharray:none; font-weight:normal; stroke-width:1; font-family:'Open Sans'; font-style:normal; stroke-linejoin:miter; font-size:12; stroke-dashoffset:0; image-rendering:auto;" height="119" class="cas-substance-image"><ns0:svg class="cas-substance-single-component"><ns0:rect y="0" x="0" width="256" stroke="none" ry="7" rx="7" height="119" fill="white" class="cas-substance-group" /><ns0:svg y="0" x="0" width="256" viewBox="0 0 256 119" style="fill:black;" height="119" class="cas-substance-single-component-image"><ns0:svg><ns0:g><ns0:g transform="translate(126,59)" style="text-rendering:geometricPrecision; color-rendering:optimizeQuality; color-interpolation:linearRGB; stroke-linecap:butt; image-rendering:optimizeQuality;"><ns0:line y2="-19.02" y1="-7.3368" x2="-36.963" x1="-57.1983" style="fill:none;" /><ns0:line y2="7.754" y1="-0.7021" x2="-83.3355" x1="-68.6897" style="fill:none;" /><ns0:line y2="-24.3643" y1="-10.0984" x2="-74.6891" x1="-66.4525" style="fill:none;" /><ns0:line y2="21.963" y1="2.036" x2="-47.943" x1="-59.4469" style="fill:none;" /><ns0:line y2="-4.02" y1="-19.02" x2="-10.98" x1="-36.963" style="fill:none;" /><ns0:line y2="40.98" y1="17.3316" x2="-88.923" x1="-88.923" style="fill:none;" /><ns0:line y2="-30" y1="-30" x2="-107.943" x1="-83.8805" style="fill:none;" /><ns0:line y2="-19.02" y1="-4.02" x2="15" x1="-10.98" style="fill:none;" /><ns0:line y2="55.98" y1="40.98" x2="-114.903" x1="-88.923" style="fill:none;" /><ns0:line y2="-55.98" y1="-30" x2="-122.943" x1="-107.943" style="fill:none;" /><ns0:line y2="-7.2614" y1="-19.02" x2="35.3659" x1="15" style="fill:none;" /><ns0:line y2="-19.02" y1="-7.2458" x2="66.963" x1="46.5677" style="fill:none;" /><ns0:line y2="-4.02" y1="-19.02" x2="92.943" x1="66.963" style="fill:none;" /><ns0:line y2="21.963" y1="-4.02" x2="107.943" x1="92.943" style="fill:none;" /><ns0:line y2="-4.02" y1="-4.02" x2="117.0055" x1="92.943" style="fill:none;" /><ns0:line y2="1.6282" y1="21.963" x2="119.6823" x1="107.943" style="fill:none;" /><ns0:path style="stroke-linecap:square; stroke:none;" d="M-61.5797 -2.02 Q-61.5797 -0.895 -62.4 -0.2544 Q-63.2203 0.3863 -64.6266 0.3863 Q-66.1578 0.3863 -66.9703 -0.02 L-66.9703 -0.9731 Q-66.4391 -0.7544 -65.8219 -0.6216 Q-65.2047 -0.4887 -64.5953 -0.4887 Q-63.5953 -0.4887 -63.0953 -0.8716 Q-62.5953 -1.2544 -62.5953 -1.9262 Q-62.5953 -2.3637 -62.775 -2.6528 Q-62.9547 -2.9419 -63.3688 -3.1841 Q-63.7828 -3.4262 -64.6422 -3.7231 Q-65.8297 -4.145 -66.3453 -4.7309 Q-66.861 -5.3169 -66.861 -6.27 Q-66.861 -7.2544 -66.1188 -7.8403 Q-65.3766 -8.4263 -64.1422 -8.4263 Q-62.8766 -8.4263 -61.7985 -7.9575 L-62.111 -7.0981 Q-63.1735 -7.5356 -64.1735 -7.5356 Q-64.9703 -7.5356 -65.4156 -7.1997 Q-65.861 -6.8637 -65.861 -6.2544 Q-65.861 -5.8169 -65.6969 -5.5278 Q-65.5328 -5.2387 -65.1422 -5.0044 Q-64.7516 -4.77 -63.9391 -4.4731 Q-62.5953 -4.0044 -62.0875 -3.4497 Q-61.5797 -2.895 -61.5797 -2.02 ZM-59.0094 0.2613 L-59.9781 0.2613 L-59.9781 -6.1606 L-59.0094 -6.1606 L-59.0094 0.2613 ZM-60.0563 -7.895 Q-60.0563 -8.2388 -59.8922 -8.395 Q-59.7281 -8.5513 -59.4781 -8.5513 Q-59.2438 -8.5513 -59.0797 -8.3872 Q-58.9156 -8.2231 -58.9156 -7.895 Q-58.9156 -7.5669 -59.0797 -7.4106 Q-59.2438 -7.2544 -59.4781 -7.2544 Q-59.7281 -7.2544 -59.8922 -7.4106 Q-60.0563 -7.5669 -60.0563 -7.895 Z" /><ns0:path style="fill:none; stroke-miterlimit:5;" d="M-37.396 -18.77 L-36.963 -19.02 L-36.53 -18.77" /></ns0:g><ns0:g transform="translate(126,59)" style="stroke-linecap:butt; fill:rgb(230,0,0); text-rendering:geometricPrecision; color-rendering:optimizeQuality; image-rendering:optimizeQuality; font-family:'Open Sans'; stroke:rgb(230,0,0); color-interpolation:linearRGB; stroke-miterlimit:5;"><ns0:path style="stroke:none;" d="M-84.9855 10.9097 Q-84.9855 12.9722 -86.0246 14.1519 Q-87.0636 15.3316 -88.9074 15.3316 Q-90.798 15.3316 -91.8292 14.1675 Q-92.8605 13.0034 -92.8605 10.8941 Q-92.8605 8.8003 -91.8292 7.6519 Q-90.798 6.5034 -88.9074 6.5034 Q-87.048 6.5034 -86.0167 7.6753 Q-84.9855 8.8472 -84.9855 10.9097 ZM-91.8136 10.9097 Q-91.8136 12.6441 -91.0714 13.5503 Q-90.3292 14.4566 -88.9074 14.4566 Q-87.4855 14.4566 -86.7589 13.5581 Q-86.0324 12.6597 -86.0324 10.9097 Q-86.0324 9.1753 -86.7589 8.2847 Q-87.4855 7.3941 -88.9074 7.3941 Q-90.3292 7.3941 -91.0714 8.2925 Q-91.8136 9.1909 -91.8136 10.9097 Z" /><ns0:path style="stroke:none;" d="M-74.0055 -30.0703 Q-74.0055 -28.0078 -75.0446 -26.8281 Q-76.0836 -25.6484 -77.9274 -25.6484 Q-79.818 -25.6484 -80.8493 -26.8125 Q-81.8805 -27.9766 -81.8805 -30.0859 Q-81.8805 -32.1797 -80.8493 -33.3281 Q-79.818 -34.4766 -77.9274 -34.4766 Q-76.068 -34.4766 -75.0368 -33.3047 Q-74.0055 -32.1328 -74.0055 -30.0703 ZM-80.8336 -30.0703 Q-80.8336 -28.3359 -80.0914 -27.4297 Q-79.3493 -26.5234 -77.9274 -26.5234 Q-76.5055 -26.5234 -75.7789 -27.4219 Q-75.0524 -28.3203 -75.0524 -30.0703 Q-75.0524 -31.8047 -75.7789 -32.6953 Q-76.5055 -33.5859 -77.9274 -33.5859 Q-79.3493 -33.5859 -80.0914 -32.6875 Q-80.8336 -31.7891 -80.8336 -30.0703 Z" /><ns0:path style="fill:none; stroke:black;" d="M-11.413 -4.27 L-10.98 -4.02 L-10.547 -4.27" /><ns0:path style="fill:none; stroke:black;" d="M-88.923 40.48 L-88.923 40.98 L-89.356 41.23" /><ns0:path style="fill:none; stroke:black;" d="M-107.443 -30 L-107.943 -30 L-108.193 -30.433" /><ns0:path style="fill:none; stroke:black;" d="M14.567 -18.77 L15 -19.02 L15.433 -18.77" /><ns0:path style="stroke:none;" d="M44.9175 -4.0903 Q44.9175 -2.0278 43.8784 -0.8481 Q42.8394 0.3316 40.9956 0.3316 Q39.105 0.3316 38.0738 -0.8325 Q37.0425 -1.9966 37.0425 -4.1059 Q37.0425 -6.1997 38.0738 -7.3481 Q39.105 -8.4966 40.9956 -8.4966 Q42.855 -8.4966 43.8863 -7.3247 Q44.9175 -6.1528 44.9175 -4.0903 ZM38.0894 -4.0903 Q38.0894 -2.3559 38.8316 -1.4497 Q39.5738 -0.5434 40.9956 -0.5434 Q42.4175 -0.5434 43.1441 -1.4419 Q43.8706 -2.3403 43.8706 -4.0903 Q43.8706 -5.8247 43.1441 -6.7153 Q42.4175 -7.6059 40.9956 -7.6059 Q39.5738 -7.6059 38.8316 -6.7075 Q38.0894 -5.8091 38.0894 -4.0903 Z" /><ns0:path style="fill:none; stroke:black;" d="M66.53 -18.77 L66.963 -19.02 L67.396 -18.77" /><ns0:path style="fill:none; stroke:black;" d="M107.693 21.53 L107.943 21.963 L108.193 21.53" /><ns0:path style="stroke:none;" d="M126.8805 -4.0903 Q126.8805 -2.0278 125.8414 -0.8481 Q124.8024 0.3316 122.9586 0.3316 Q121.068 0.3316 120.0368 -0.8325 Q119.0055 -1.9966 119.0055 -4.1059 Q119.0055 -6.1997 120.0368 -7.3481 Q121.068 -8.4966 122.9586 -8.4966 Q124.818 -8.4966 125.8493 -7.3247 Q126.8805 -6.1528 126.8805 -4.0903 ZM120.0524 -4.0903 Q120.0524 -2.3559 120.7946 -1.4497 Q121.5368 -0.5434 122.9586 -0.5434 Q124.3805 -0.5434 125.1071 -1.4419 Q125.8336 -2.3403 125.8336 -4.0903 Q125.8336 -5.8247 125.1071 -6.7153 Q124.3805 -7.6059 122.9586 -7.6059 Q121.5368 -7.6059 120.7946 -6.7075 Q120.0524 -5.8091 120.0524 -4.0903 Z" /></ns0:g></ns0:g></ns0:svg></ns0:svg></ns0:svg></ns0:svg></g></svg>