<svg width="231" viewBox="0 0 231 214" style="fill-opacity:1; color-rendering:auto; color-interpolation:auto; text-rendering:auto; stroke:black; stroke-linecap:square; stroke-miterlimit:10; shape-rendering:auto; stroke-opacity:1; fill:black; stroke-dasharray:none; font-weight:normal; stroke-width:1; font-family:'Open Sans'; font-style:normal; stroke-linejoin:miter; font-size:12; stroke-dashoffset:0; image-rendering:auto;" height="214" class="cas-substance-image" xmlns:xlink="http://www.w3.org/1999/xlink" xmlns="http://www.w3.org/2000/svg"><svg class="cas-substance-single-component"><rect y="0" x="0" width="231" stroke="none" ry="7" rx="7" height="214" fill="white" class="cas-substance-group"/><svg y="0" x="0" width="231" viewBox="0 0 231 214" style="fill:black;" height="214" class="cas-substance-single-component-image"><svg><g><g transform="translate(116,107)" style="text-rendering:geometricPrecision; color-rendering:optimizeQuality; color-interpolation:linearRGB; stroke-linecap:butt; image-rendering:optimizeQuality;"><line y2="-46.327" y1="-25.98" x2="-19.2464" x1="-7.5" style="fill:none;"/><line y2="-25.98" y1="-25.98" x2="16.5625" x1="-7.5" style="fill:none;"/><line y2="-5.7217" y1="-25.98" x2="-19.1965" x1="-7.5" style="fill:none;"/><line y2="-51.963" y1="-51.963" x2="-52.5" x1="-28.4375" style="fill:none;"/><line y2="-51.963" y1="-31.7019" x2="37.5" x1="25.8033" style="fill:none;"/><line y2="25.98" y1="5.6357" x2="-7.5" x1="-19.2461" style="fill:none;"/><line y2="-77.943" y1="-51.963" x2="-67.5" x1="-52.5" style="fill:none;"/><line y2="-51.963" y1="-51.963" x2="67.5" x1="37.5" style="fill:none;"/><line y2="51.963" y1="25.98" x2="-22.5" x1="-7.5" style="fill:none;"/><line y2="-77.943" y1="-77.943" x2="-97.5" x1="-67.5" style="fill:none;"/><line y2="-77.943" y1="-51.963" x2="82.5" x1="67.5" style="fill:none;"/><line y2="77.943" y1="51.963" x2="-7.5" x1="-22.5" style="fill:none;"/><line y2="-103.923" y1="-77.943" x2="-112.5" x1="-97.5" style="fill:none;"/><line y2="-77.943" y1="-77.943" x2="112.5" x1="82.5" style="fill:none;"/><line y2="103.923" y1="77.943" x2="-22.5" x1="-7.5" style="fill:none;"/></g><g transform="translate(116,107)" style="fill:rgb(230,0,0); text-rendering:geometricPrecision; color-rendering:optimizeQuality; image-rendering:optimizeQuality; font-family:'Open Sans'; stroke:rgb(230,0,0); color-interpolation:linearRGB;"><path style="stroke:none;" d="M-18.5625 -52.0333 Q-18.5625 -49.9708 -19.6016 -48.7911 Q-20.6406 -47.6114 -22.4844 -47.6114 Q-24.375 -47.6114 -25.4062 -48.7755 Q-26.4375 -49.9396 -26.4375 -52.0489 Q-26.4375 -54.1427 -25.4062 -55.2911 Q-24.375 -56.4396 -22.4844 -56.4396 Q-20.625 -56.4396 -19.5938 -55.2677 Q-18.5625 -54.0958 -18.5625 -52.0333 ZM-25.3906 -52.0333 Q-25.3906 -50.2989 -24.6484 -49.3927 Q-23.9062 -48.4864 -22.4844 -48.4864 Q-21.0625 -48.4864 -20.3359 -49.3849 Q-19.6094 -50.2833 -19.6094 -52.0333 Q-19.6094 -53.7677 -20.3359 -54.6583 Q-21.0625 -55.5489 -22.4844 -55.5489 Q-23.9062 -55.5489 -24.6484 -54.6505 Q-25.3906 -53.7521 -25.3906 -52.0333 Z"/><path style="stroke:none;" d="M26.4375 -26.0503 Q26.4375 -23.9878 25.3984 -22.8081 Q24.3594 -21.6284 22.5156 -21.6284 Q20.625 -21.6284 19.5938 -22.7925 Q18.5625 -23.9566 18.5625 -26.0659 Q18.5625 -28.1597 19.5938 -29.3081 Q20.625 -30.4566 22.5156 -30.4566 Q24.375 -30.4566 25.4062 -29.2847 Q26.4375 -28.1128 26.4375 -26.0503 ZM19.6094 -26.0503 Q19.6094 -24.3159 20.3516 -23.4097 Q21.0938 -22.5034 22.5156 -22.5034 Q23.9375 -22.5034 24.6641 -23.4019 Q25.3906 -24.3003 25.3906 -26.0503 Q25.3906 -27.7847 24.6641 -28.6753 Q23.9375 -29.5659 22.5156 -29.5659 Q21.0938 -29.5659 20.3516 -28.6675 Q19.6094 -27.7691 19.6094 -26.0503 Z"/><path style="stroke:none;" d="M-18.5625 -0.0703 Q-18.5625 1.9922 -19.6016 3.1719 Q-20.6406 4.3516 -22.4844 4.3516 Q-24.375 4.3516 -25.4062 3.1875 Q-26.4375 2.0234 -26.4375 -0.0859 Q-26.4375 -2.1797 -25.4062 -3.3281 Q-24.375 -4.4766 -22.4844 -4.4766 Q-20.625 -4.4766 -19.5938 -3.3047 Q-18.5625 -2.1328 -18.5625 -0.0703 ZM-25.3906 -0.0703 Q-25.3906 1.6641 -24.6484 2.5703 Q-23.9062 3.4766 -22.4844 3.4766 Q-21.0625 3.4766 -20.3359 2.5781 Q-19.6094 1.6797 -19.6094 -0.0703 Q-19.6094 -1.8047 -20.3359 -2.6953 Q-21.0625 -3.5859 -22.4844 -3.5859 Q-23.9062 -3.5859 -24.6484 -2.6875 Q-25.3906 -1.7891 -25.3906 -0.0703 Z"/></g><g transform="translate(116,107)" style="stroke-linecap:butt; text-rendering:geometricPrecision; color-rendering:optimizeQuality; image-rendering:optimizeQuality; font-family:'Open Sans'; color-interpolation:linearRGB; stroke-miterlimit:5;"><path style="fill:none;" d="M-52 -51.963 L-52.5 -51.963 L-52.75 -52.396"/><path style="fill:none;" d="M37.25 -51.53 L37.5 -51.963 L38 -51.963"/><path style="fill:none;" d="M-7.75 25.547 L-7.5 25.98 L-7.75 26.413"/><path style="fill:none;" d="M-67.25 -77.51 L-67.5 -77.943 L-68 -77.943"/><path style="fill:none;" d="M67 -51.963 L67.5 -51.963 L67.75 -52.396"/><path style="fill:none;" d="M-22.25 51.53 L-22.5 51.963 L-22.25 52.396"/><path style="fill:none;" d="M-97 -77.943 L-97.5 -77.943 L-97.75 -78.376"/><path style="fill:none;" d="M82.25 -77.51 L82.5 -77.943 L83 -77.943"/><path style="fill:none;" d="M-7.75 77.51 L-7.5 77.943 L-7.75 78.376"/></g></g></svg></svg></svg></svg>