<svg xmlns:ns0="http://www.w3.org/2000/svg" xmlns="http://www.w3.org/2000/svg"><g transform="translate(0, 0)"><ns0:svg width="127" viewBox="0 0 127 66" style="fill-opacity:1; color-rendering:auto; color-interpolation:auto; text-rendering:auto; stroke:black; stroke-linecap:square; stroke-miterlimit:10; shape-rendering:auto; stroke-opacity:1; fill:black; stroke-dasharray:none; font-weight:normal; stroke-width:1; font-family:'Open Sans'; font-style:normal; stroke-linejoin:miter; font-size:12; stroke-dashoffset:0; image-rendering:auto;" height="66" class="cas-substance-image"><ns0:svg class="cas-substance-single-component"><ns0:rect y="0" x="0" width="127" stroke="none" ry="7" rx="7" height="66" fill="white" class="cas-substance-group" /><ns0:svg y="0" x="0" width="127" viewBox="0 0 127 66" style="fill:black;" height="66" class="cas-substance-single-component-image"><ns0:svg><ns0:g><ns0:g transform="translate(64,33)" style="text-rendering:geometricPrecision; color-rendering:optimizeQuality; color-interpolation:linearRGB; stroke-linecap:butt; image-rendering:optimizeQuality;"><ns0:line y2="30" y1="0" x2="30" x1="30" style="fill:none;" /><ns0:line y2="0" y1="0" x2="60" x1="30" style="fill:none;" /><ns0:line y2="-30" y1="0" x2="30" x1="30" style="fill:none;" /><ns0:line y2="0" y1="0" x2="0" x1="30" style="fill:none;" /><ns0:line y2="-25.98" y1="0" x2="-15" x1="0" style="fill:none;" /><ns0:line y2="25.98" y1="0" x2="-15" x1="0" style="fill:none;" /><ns0:line y2="-25.98" y1="-25.98" x2="-45" x1="-15" style="fill:none;" /><ns0:line y2="25.98" y1="25.98" x2="-45" x1="-15" style="fill:none;" /><ns0:line y2="0" y1="-25.98" x2="-60" x1="-45" style="fill:none;" /><ns0:line y2="0" y1="25.98" x2="-60" x1="-45" style="fill:none;" /><ns0:path style="fill:none; stroke-miterlimit:5;" d="M-14.75 -25.547 L-15 -25.98 L-15.5 -25.98" /><ns0:path style="fill:none; stroke-miterlimit:5;" d="M-14.75 25.547 L-15 25.98 L-15.5 25.98" /><ns0:path style="fill:none; stroke-miterlimit:5;" d="M-44.5 -25.98 L-45 -25.98 L-45.25 -25.547" /><ns0:path style="fill:none; stroke-miterlimit:5;" d="M-44.5 25.98 L-45 25.98 L-45.25 25.547" /><ns0:path style="fill:none; stroke-miterlimit:5;" d="M-59.75 -0.433 L-60 0 L-59.75 0.433" /></ns0:g></ns0:g></ns0:svg></ns0:svg></ns0:svg></ns0:svg></g></svg>