<svg xmlns:ns0="http://www.w3.org/2000/svg" xmlns="http://www.w3.org/2000/svg"><g transform="translate(0, 0)"><ns0:svg width="288" viewBox="0 0 288 207" style="fill-opacity:1; color-rendering:auto; color-interpolation:auto; text-rendering:auto; stroke:black; stroke-linecap:square; stroke-miterlimit:10; shape-rendering:auto; stroke-opacity:1; fill:black; stroke-dasharray:none; font-weight:normal; stroke-width:1; font-family:'Open Sans'; font-style:normal; stroke-linejoin:miter; font-size:12; stroke-dashoffset:0; image-rendering:auto;" height="207" class="cas-substance-image"><ns0:svg class="cas-substance-single-component"><ns0:rect y="0" x="0" width="288" stroke="none" ry="7" rx="7" height="207" fill="white" class="cas-substance-group" /><ns0:svg y="0" x="0" width="288" viewBox="0 0 288 192" style="fill:black;" height="192" class="cas-substance-single-component-image"><ns0:svg><ns0:g><ns0:clipPath id="clipPath_615dfbb8a59f4f0ab78074186a80d1181" clipPathUnits="userSpaceOnUse"><ns0:path d="M-67.0555 -80.6398 L-88.1741 -51.2706 L-55.6984 -27.9182 L-51.8977 -33.2039 L-70.0422 -64.7073 L-64.843 -67.7018 L-48.0531 -38.5505 L-34.5799 -57.2874 L-67.0555 -80.6398 Z" /></ns0:clipPath><ns0:g transform="translate(144,96)" style="text-rendering:geometricPrecision; color-rendering:optimizeQuality; color-interpolation:linearRGB; stroke-linecap:butt; image-rendering:optimizeQuality;"><ns0:line y2="2.67" y1="-17.6743" x2="20.505" x1="8.7589" style="fill:none;" /><ns0:path style="stroke:none;" d="M-22.4638 -24.021 L-23.4638 -23.9171 L-23.4638 -23.9171 L-23.4638 -22.7029 L-23.4638 -22.7029 L-22.4638 -22.599 L-22.4638 -22.599 L-22.4638 -24.021 ZM-19.4638 -24.3327 L-20.4638 -24.2288 L-20.4638 -24.2288 L-20.4638 -22.3912 L-20.4638 -22.3912 L-19.4638 -22.2873 L-19.4638 -22.2873 L-19.4638 -24.3327 ZM-16.4638 -24.6444 L-17.4638 -24.5405 L-17.4638 -24.5405 L-17.4638 -22.0795 L-17.4638 -22.0795 L-16.4638 -21.9756 L-16.4638 -21.9756 L-16.4638 -24.6444 ZM-13.4637 -24.9561 L-14.4637 -24.8522 L-14.4637 -24.8522 L-14.4637 -21.7678 L-14.4637 -21.7678 L-13.4637 -21.6639 L-13.4637 -21.6639 L-13.4637 -24.9561 ZM-10.4638 -25.2678 L-11.4638 -25.1639 L-11.4638 -25.1639 L-11.4638 -21.4561 L-11.4638 -21.4561 L-10.4638 -21.3522 L-10.4638 -21.3522 L-10.4638 -25.2678 ZM-7.4638 -25.5795 L-8.4638 -25.4756 L-8.4638 -25.4756 L-8.4638 -21.1444 L-8.4638 -21.1444 L-7.4638 -21.0405 L-7.4638 -21.0405 L-7.4638 -25.5795 ZM-4.4638 -25.8912 L-5.4638 -25.7873 L-5.4638 -25.7873 L-5.4638 -20.8327 L-5.4638 -20.8327 L-4.4638 -20.7288 L-4.4638 -20.7288 L-4.4638 -25.8912 ZM-1.4638 -26.2029 L-2.4638 -26.099 L-2.4638 -26.099 L-2.4638 -20.521 L-2.4638 -20.521 L-1.4638 -20.4171 L-1.4638 -20.4171 L-1.4638 -26.2029 Z" /><ns0:line y2="2.67" y1="2.67" x2="50.505" x1="20.505" style="fill:none;" /><ns0:line y2="22.0561" y1="0.92" x2="7.2927" x1="19.4946" style="fill:none;" /><ns0:line y2="23.806" y1="2.67" x2="10.3238" x1="22.5257" style="fill:none;" /><ns0:line y2="-20.9784" y1="2.67" x2="50.505" x1="50.505" style="fill:none;" /><ns0:line y2="2.67" y1="2.67" x2="80.505" x1="50.505" style="fill:none;" /><ns0:line y2="32.67" y1="2.67" x2="50.505" x1="50.505" style="fill:none;" /><ns0:line y2="-42.639" y1="-50.3577" x2="-69.747" x1="-88.9093" style="fill:none;" /><ns0:line y2="-62.955" y1="-56.1255" x2="-65.571" x1="-84.1374" style="fill:none;" /><ns0:line y2="-28.458" y1="-46.6989" x2="-112.119" x1="-98.4343" style="fill:none;" /><ns0:line y2="-76.992" y1="-58.497" x2="-111.378" x1="-98.3666" style="fill:none;" /><ns0:line y2="-12.684" y1="-42.639" x2="-53.151" x1="-69.747" style="fill:none;" /><ns0:line y2="-65.919" y1="-42.639" x2="-53.007" x1="-69.747" style="fill:none; clip-path:url(#clipPath_615dfbb8a59f4f0ab78074186a80d1181);" /><ns0:line y2="-31.911" y1="-62.955" x2="-47.691" x1="-65.571" style="fill:none;" /><ns0:line y2="-92.67" y1="-62.955" x2="-52.38" x1="-65.571" style="fill:none;" /><ns0:line y2="-38.163" y1="-28.458" x2="-140.505" x1="-112.119" style="fill:none;" /><ns0:line y2="-68.16" y1="-76.992" x2="-140.049" x1="-111.378" style="fill:none;" /><ns0:line y2="-23.31" y1="-12.684" x2="-24.495" x1="-53.151" style="fill:none;" /><ns0:line y2="-92.67" y1="-65.919" x2="-52.38" x1="-53.007" style="fill:none;" /><ns0:line y2="-23.31" y1="-31.911" x2="-24.495" x1="-47.691" style="fill:none;" /><ns0:line y2="-68.16" y1="-38.163" x2="-140.049" x1="-140.505" style="fill:none;" /><ns0:line y2="28.653" y1="2.67" x2="95.505" x1="80.505" style="fill:none;" /><ns0:line y2="25.1531" y1="2.6702" x2="97.5259" x1="84.5465" style="fill:none;" /><ns0:line y2="-23.31" y1="2.67" x2="95.505" x1="80.505" style="fill:none;" /><ns0:line y2="28.653" y1="28.653" x2="125.505" x1="95.505" style="fill:none;" /><ns0:line y2="-23.31" y1="-23.31" x2="125.505" x1="95.505" style="fill:none;" /><ns0:line y2="-19.81" y1="-19.81" x2="123.4843" x1="97.5257" style="fill:none;" /><ns0:line y2="2.67" y1="28.653" x2="140.505" x1="125.505" style="fill:none;" /><ns0:line y2="2.6702" y1="25.1531" x2="136.4635" x1="123.4841" style="fill:none;" /><ns0:line y2="2.67" y1="-23.31" x2="140.505" x1="125.505" style="fill:none;" /><ns0:line y2="47.67" y1="32.67" x2="76.485" x1="50.505" style="fill:none;" /><ns0:line y2="49.6907" y1="36.7114" x2="72.985" x1="50.505" style="fill:none;" /><ns0:line y2="47.67" y1="32.67" x2="24.525" x1="50.505" style="fill:none;" /><ns0:line y2="77.67" y1="47.67" x2="76.485" x1="76.485" style="fill:none;" /><ns0:line y2="77.67" y1="47.67" x2="24.525" x1="24.525" style="fill:none;" /><ns0:line y2="75.6493" y1="49.6907" x2="28.025" x1="28.025" style="fill:none;" /><ns0:line y2="92.67" y1="77.67" x2="50.505" x1="76.485" style="fill:none;" /><ns0:line y2="88.6285" y1="75.6493" x2="50.505" x1="72.985" style="fill:none;" /><ns0:line y2="92.67" y1="77.67" x2="50.505" x1="24.525" style="fill:none;" /><ns0:path style="stroke:none;" d="M-70.5231 -42.6043 L-71.2665 -41.9269 L-70.2674 -41.0435 L-69.6863 -41.8644 L-70.5231 -42.6043 ZM-72.7532 -40.5721 L-73.4966 -39.8947 L-73.4966 -39.8947 L-72.0107 -38.5808 L-71.4296 -39.4017 L-72.7532 -40.5721 ZM-74.9834 -38.5399 L-75.7268 -37.8625 L-75.7268 -37.8625 L-73.7541 -36.1182 L-73.7541 -36.1182 L-73.173 -36.9391 L-74.9834 -38.5399 ZM-77.2135 -36.5077 L-77.9569 -35.8304 L-77.9569 -35.8304 L-75.4974 -33.6556 L-74.9163 -34.4764 L-77.2135 -36.5077 ZM-79.4436 -34.4756 L-80.187 -33.7982 L-77.2407 -31.1929 L-76.6596 -32.0138 L-79.4436 -34.4756 ZM-81.6738 -32.4434 L-82.4172 -31.766 L-82.4172 -31.766 L-78.984 -28.7303 L-78.984 -28.7303 L-78.4029 -29.5512 L-81.6738 -32.4434 ZM-83.9039 -30.4112 L-84.6473 -29.7338 L-84.6473 -29.7338 L-80.7274 -26.2676 L-80.1463 -27.0885 L-83.9039 -30.4112 ZM-86.134 -28.379 L-86.8774 -27.7016 L-82.4707 -23.805 L-81.8896 -24.6259 L-86.134 -28.379 Z" /><ns0:path style="stroke:none;" d="M-65.2061 -63.2968 L-65.9359 -62.6132 L-83.6434 -77.8605 L-79.2644 -81.9622 Z" /></ns0:g><ns0:g transform="translate(144,96)" style="fill:rgb(230,0,0); text-rendering:geometricPrecision; color-rendering:optimizeQuality; image-rendering:optimizeQuality; font-family:'Open Sans'; stroke:rgb(230,0,0); color-interpolation:linearRGB;"><ns0:path style="stroke:none;" d="M9.4425 -23.3803 Q9.4425 -21.3178 8.4034 -20.1381 Q7.3644 -18.9584 5.5206 -18.9584 Q3.63 -18.9584 2.5988 -20.1225 Q1.5675 -21.2866 1.5675 -23.3959 Q1.5675 -25.4897 2.5988 -26.6381 Q3.63 -27.7866 5.5206 -27.7866 Q7.38 -27.7866 8.4113 -26.6147 Q9.4425 -25.4428 9.4425 -23.3803 ZM2.6144 -23.3803 Q2.6144 -21.6459 3.3566 -20.7397 Q4.0988 -19.8334 5.5206 -19.8334 Q6.9425 -19.8334 7.6691 -20.7319 Q8.3956 -21.6303 8.3956 -23.3803 Q8.3956 -25.1147 7.6691 -26.0053 Q6.9425 -26.8959 5.5206 -26.8959 Q4.0988 -26.8959 3.3566 -25.9975 Q2.6144 -25.0991 2.6144 -23.3803 Z" /></ns0:g><ns0:g transform="translate(144,96)" style="stroke-linecap:butt; text-rendering:geometricPrecision; color-rendering:optimizeQuality; image-rendering:optimizeQuality; font-family:'Open Sans'; color-interpolation:linearRGB; stroke-miterlimit:5;"><ns0:path style="fill:none;" d="M20.255 2.237 L20.505 2.67 L21.005 2.67" /><ns0:path style="fill:rgb(230,0,0); stroke:none;" d="M9.4425 28.5827 Q9.4425 30.6452 8.4034 31.8249 Q7.3644 33.0046 5.5206 33.0046 Q3.63 33.0046 2.5988 31.8405 Q1.5675 30.6764 1.5675 28.5671 Q1.5675 26.4733 2.5988 25.3249 Q3.63 24.1764 5.5206 24.1764 Q7.38 24.1764 8.4113 25.3483 Q9.4425 26.5202 9.4425 28.5827 ZM2.6144 28.5827 Q2.6144 30.3171 3.3566 31.2233 Q4.0988 32.1296 5.5206 32.1296 Q6.9425 32.1296 7.6691 31.2311 Q8.3956 30.3327 8.3956 28.5827 Q8.3956 26.8483 7.6691 25.9577 Q6.9425 25.0671 5.5206 25.0671 Q4.0988 25.0671 3.3566 25.9655 Q2.6144 26.8639 2.6144 28.5827 Z" /><ns0:path style="fill:rgb(230,0,0); stroke:none;" d="M54.4425 -27.4003 Q54.4425 -25.3378 53.4034 -24.1581 Q52.3644 -22.9784 50.5206 -22.9784 Q48.63 -22.9784 47.5988 -24.1425 Q46.5675 -25.3066 46.5675 -27.4159 Q46.5675 -29.5097 47.5988 -30.6581 Q48.63 -31.8066 50.5206 -31.8066 Q52.38 -31.8066 53.4113 -30.6347 Q54.4425 -29.4628 54.4425 -27.4003 ZM47.6144 -27.4003 Q47.6144 -25.6659 48.3566 -24.7597 Q49.0988 -23.8534 50.5206 -23.8534 Q51.9425 -23.8534 52.6691 -24.7519 Q53.3956 -25.6503 53.3956 -27.4003 Q53.3956 -29.1347 52.6691 -30.0253 Q51.9425 -30.9159 50.5206 -30.9159 Q49.0988 -30.9159 48.3566 -30.0175 Q47.6144 -29.1191 47.6144 -27.4003 Z" /><ns0:path style="fill:rgb(230,0,0); stroke:none;" d="M61.9581 -23.1034 L60.9581 -23.1034 L60.9581 -27.1347 L56.4425 -27.1347 L56.4425 -23.1034 L55.4425 -23.1034 L55.4425 -31.6659 L56.4425 -31.6659 L56.4425 -28.0253 L60.9581 -28.0253 L60.9581 -31.6659 L61.9581 -31.6659 L61.9581 -23.1034 Z" /><ns0:path style="fill:rgb(0,5,255); stroke:none;" d="M-90.7644 -48.2987 L-91.9051 -48.2987 L-96.5926 -55.4862 L-96.6394 -55.4862 Q-96.5457 -54.2206 -96.5457 -53.1737 L-96.5457 -48.2987 L-97.4676 -48.2987 L-97.4676 -56.8612 L-96.3426 -56.8612 L-91.6707 -49.705 L-91.6238 -49.705 Q-91.6238 -49.8612 -91.6707 -50.7206 Q-91.7176 -51.58 -91.7019 -51.955 L-91.7019 -56.8612 L-90.7644 -56.8612 L-90.7644 -48.2987 Z" /><ns0:path style="stroke:none;" d="M-87.6238 -55.2894 L-86.0144 -55.2894 L-86.0144 -54.7425 L-87.6238 -54.7425 L-87.6238 -53.0862 L-88.1551 -53.0862 L-88.1551 -54.7425 L-89.7644 -54.7425 L-89.7644 -55.2894 L-88.1551 -55.2894 L-88.1551 -56.9612 L-87.6238 -56.9612 L-87.6238 -55.2894 Z" /></ns0:g><ns0:g transform="translate(144,96)" style="stroke-linecap:butt; font-size:8.4px; fill:gray; text-rendering:geometricPrecision; image-rendering:optimizeQuality; color-rendering:optimizeQuality; font-family:'Open Sans'; font-style:italic; stroke:gray; color-interpolation:linearRGB; stroke-miterlimit:5;"><ns0:path style="stroke:none;" d="M-63.8728 -40.8488 Q-63.8728 -42.1769 -63.404 -43.3019 Q-62.9353 -44.4269 -61.904 -45.5051 L-61.2946 -45.5051 Q-62.2634 -44.4426 -62.7478 -43.2707 Q-63.2321 -42.0988 -63.2321 -40.8644 Q-63.2321 -39.5363 -62.7946 -38.5207 L-63.3103 -38.5207 Q-63.8728 -39.5519 -63.8728 -40.8488 ZM-58.2502 -41.4426 Q-58.2502 -40.6144 -58.7971 -40.1613 Q-59.3439 -39.7082 -60.3439 -39.7082 Q-60.7502 -39.7082 -61.0627 -39.7629 Q-61.3752 -39.8176 -61.6564 -39.9582 L-61.6564 -40.6144 Q-61.0314 -40.2863 -60.3283 -40.2863 Q-59.7033 -40.2863 -59.3283 -40.5832 Q-58.9533 -40.8801 -58.9533 -41.3957 Q-58.9533 -41.7082 -59.1564 -41.9348 Q-59.3596 -42.1613 -59.9221 -42.4894 Q-60.5158 -42.8176 -60.7424 -43.1457 Q-60.9689 -43.4738 -60.9689 -43.9269 Q-60.9689 -44.6613 -60.4533 -45.1223 Q-59.9377 -45.5832 -59.0939 -45.5832 Q-58.7189 -45.5832 -58.383 -45.5051 Q-58.0471 -45.4269 -57.6721 -45.2551 L-57.9377 -44.6613 Q-58.1877 -44.8176 -58.508 -44.9035 Q-58.8283 -44.9894 -59.0939 -44.9894 Q-59.6252 -44.9894 -59.9455 -44.716 Q-60.2658 -44.4426 -60.2658 -43.9738 Q-60.2658 -43.7707 -60.1955 -43.6223 Q-60.1252 -43.4738 -59.9846 -43.341 Q-59.8439 -43.2082 -59.4221 -42.9582 Q-58.8596 -42.6144 -58.6564 -42.4191 Q-58.4533 -42.2238 -58.3518 -41.9894 Q-58.2502 -41.7551 -58.2502 -41.4426 ZM-55.6557 -43.1613 Q-55.6557 -41.8332 -56.1323 -40.7004 Q-56.6088 -39.5676 -57.6245 -38.5207 L-58.2338 -38.5207 Q-56.2963 -40.6769 -56.2963 -43.1613 Q-56.2963 -44.4894 -56.7338 -45.5051 L-56.2182 -45.5051 Q-55.6557 -44.4426 -55.6557 -43.1613 Z" /><ns0:path style="stroke:none;" d="M-59.9734 -62.3145 Q-59.9734 -63.6427 -59.5046 -64.7677 Q-59.0359 -65.8927 -58.0046 -66.9708 L-57.3952 -66.9708 Q-58.364 -65.9083 -58.8484 -64.7364 Q-59.3327 -63.5645 -59.3327 -62.3302 Q-59.3327 -61.002 -58.8952 -59.9864 L-59.4109 -59.9864 Q-59.9734 -61.0177 -59.9734 -62.3145 ZM-56.4133 -63.627 L-56.9133 -61.252 L-57.5695 -61.252 L-56.3664 -66.9708 L-55.1164 -66.9708 Q-53.382 -66.9708 -53.382 -65.5333 Q-53.382 -64.1739 -54.8195 -63.7833 L-53.882 -61.252 L-54.6008 -61.252 L-55.4289 -63.627 L-56.4133 -63.627 ZM-55.8352 -66.377 Q-56.2258 -64.4552 -56.2883 -64.2052 L-55.632 -64.2052 Q-54.882 -64.2052 -54.4758 -64.5333 Q-54.0695 -64.8614 -54.0695 -65.4864 Q-54.0695 -65.9552 -54.3274 -66.1661 Q-54.5852 -66.377 -55.1789 -66.377 L-55.8352 -66.377 ZM-51.1961 -64.627 Q-51.1961 -63.2989 -51.6726 -62.1661 Q-52.1492 -61.0333 -53.1648 -59.9864 L-53.7742 -59.9864 Q-51.8367 -62.1427 -51.8367 -64.627 Q-51.8367 -65.9552 -52.2742 -66.9708 L-51.7586 -66.9708 Q-51.1961 -65.9083 -51.1961 -64.627 Z" /><ns0:path style="fill:none; stroke:black;" d="M-111.8189 -28.858 L-112.119 -28.458 L-112.5921 -28.6198" /><ns0:path style="fill:none; stroke:black;" d="M-111.0903 -76.5831 L-111.378 -76.992 L-111.8558 -76.8448" /><ns0:path style="fill:none; stroke:black;" d="M-53.3933 -13.1214 L-53.151 -12.684 L-52.6822 -12.8578" /><ns0:path style="fill:none; stroke:black;" d="M-53.2989 -65.5131 L-53.007 -65.919 L-52.9953 -66.4189" /><ns0:path style="fill:none; stroke:black;" d="M-47.9405 -32.3443 L-47.691 -31.911 L-47.2222 -31.7372" /><ns0:path style="fill:none; stroke:black;" d="M-52.5829 -92.213 L-52.38 -92.67 L-52.3917 -92.1701" /><ns0:path style="fill:none; stroke:black;" d="M-140.0319 -38.0012 L-140.505 -38.163 L-140.4974 -38.6629" /><ns0:path style="fill:none; stroke:black;" d="M-139.5712 -68.3072 L-140.049 -68.16 L-140.0566 -67.6601" /><ns0:path style="fill:none; stroke:black;" d="M-24.9638 -23.1362 L-24.495 -23.31 L-24.9638 -23.4838" /><ns0:path style="fill:none; stroke:black;" d="M80.755 3.103 L80.505 2.67 L80.005 2.67" /><ns0:path style="fill:none; stroke:black;" d="M95.255 28.22 L95.505 28.653 L96.005 28.653" /><ns0:path style="fill:none; stroke:black;" d="M95.255 -22.877 L95.505 -23.31 L96.005 -23.31" /><ns0:path style="fill:none; stroke:black;" d="M125.005 28.653 L125.505 28.653 L125.755 28.22" /><ns0:path style="fill:none; stroke:black;" d="M125.005 -23.31 L125.505 -23.31 L125.755 -22.877" /><ns0:path style="fill:none; stroke:black;" d="M140.255 3.103 L140.505 2.67 L140.255 2.237" /><ns0:path style="fill:none; stroke:black;" d="M50.938 32.92 L50.505 32.67 L50.072 32.92" /><ns0:path style="fill:none; stroke:black;" d="M76.052 47.42 L76.485 47.67 L76.485 48.17" /><ns0:path style="fill:none; stroke:black;" d="M24.958 47.42 L24.525 47.67 L24.525 48.17" /><ns0:path style="fill:none; stroke:black;" d="M76.485 77.17 L76.485 77.67 L76.052 77.92" /><ns0:path style="fill:none; stroke:black;" d="M24.525 77.17 L24.525 77.67 L24.958 77.92" /><ns0:path style="fill:none; stroke:black;" d="M50.938 92.42 L50.505 92.67 L50.072 92.42" /></ns0:g><ns0:g transform="translate(144,96)" style="stroke-linecap:butt; text-rendering:geometricPrecision; color-rendering:optimizeQuality; image-rendering:optimizeQuality; font-family:'Open Sans'; color-interpolation:linearRGB; stroke-miterlimit:5;"><ns0:path style="stroke:none;" d="M-86.3582 -16.0068 L-87.3582 -16.0068 L-87.3582 -20.038 L-91.8738 -20.038 L-91.8738 -16.0068 L-92.8738 -16.0068 L-92.8738 -24.5693 L-91.8738 -24.5693 L-91.8738 -20.9286 L-87.3582 -20.9286 L-87.3582 -24.5693 L-86.3582 -24.5693 L-86.3582 -16.0068 Z" /><ns0:path style="stroke:none;" d="M-82.8212 -80.6927 L-83.8212 -80.6927 L-83.8212 -84.724 L-88.3368 -84.724 L-88.3368 -80.6927 L-89.3368 -80.6927 L-89.3368 -89.2552 L-88.3368 -89.2552 L-88.3368 -85.6146 L-83.8212 -85.6146 L-83.8212 -89.2552 L-82.8212 -89.2552 L-82.8212 -80.6927 Z" /></ns0:g></ns0:g></ns0:svg></ns0:svg><ns0:svg y="192" x="136" class="cas-substance-saf"><ns0:svg y="5" x="0" width="4" style="fill:black;" height="4" class="cas-substance-saf-dot"><ns0:circle stroke="none" r="2" fill="black" cy="2" cx="2" /></ns0:svg><ns0:svg y="0" x="8" width="19" style="fill:black;" height="15" class="cas-substance-saf-image"><ns0:svg><ns0:g><ns0:g transform="translate(7,8)" style="fill:rgb(0,138,0); text-rendering:geometricPrecision; color-rendering:optimizeQuality; image-rendering:optimizeQuality; font-family:'Open Sans'; stroke:rgb(0,138,0); color-interpolation:linearRGB;"><ns0:path style="stroke:none;" d="M-0.3086 -3.3594 Q-1.7148 -3.3594 -2.5352 -2.4219 Q-3.3555 -1.4844 -3.3555 0.1562 Q-3.3555 1.8281 -2.5664 2.75 Q-1.7773 3.6719 -0.3242 3.6719 Q0.582 3.6719 1.7227 3.3438 L1.7227 4.2188 Q0.832 4.5625 -0.4648 4.5625 Q-2.3555 4.5625 -3.3867 3.4062 Q-4.418 2.25 -4.418 0.1406 Q-4.418 -1.1875 -3.9258 -2.1797 Q-3.4336 -3.1719 -2.4961 -3.7109 Q-1.5586 -4.25 -0.293 -4.25 Q1.0508 -4.25 2.0664 -3.7656 L1.6445 -2.9062 Q0.6602 -3.3594 -0.3086 -3.3594 ZM4.418 4.4375 L3.4492 4.4375 L3.4492 -4.6875 L4.418 -4.6875 L4.418 4.4375 Z" /><ns0:path style="fill:black; stroke:none;" d="M5.418 -2.4781 L5.418 -3.0719 L8.7773 -3.0719 L8.7773 -2.4781 L5.418 -2.4781 Z" /></ns0:g></ns0:g></ns0:svg></ns0:svg></ns0:svg></ns0:svg></ns0:svg></g></svg>