<svg xmlns:ns0="http://www.w3.org/2000/svg" xmlns="http://www.w3.org/2000/svg"><g transform="translate(0, 0)"><ns0:svg width="164" viewBox="0 0 164 145" style="fill-opacity:1; color-rendering:auto; color-interpolation:auto; text-rendering:auto; stroke:black; stroke-linecap:square; stroke-miterlimit:10; shape-rendering:auto; stroke-opacity:1; fill:black; stroke-dasharray:none; font-weight:normal; stroke-width:1; font-family:'Open Sans'; font-style:normal; stroke-linejoin:miter; font-size:12; stroke-dashoffset:0; image-rendering:auto;" height="145" class="cas-substance-image"><ns0:svg class="cas-substance-single-component"><ns0:rect y="0" x="0" width="164" stroke="none" ry="7" rx="7" height="145" fill="white" class="cas-substance-group" /><ns0:svg y="0" x="0" width="164" viewBox="0 0 164 145" style="fill:black;" height="145" class="cas-substance-single-component-image"><ns0:svg><ns0:g><ns0:g transform="translate(82,72)" style="text-rendering:geometricPrecision; color-rendering:optimizeQuality; color-interpolation:linearRGB; stroke-linecap:butt; image-rendering:optimizeQuality;"><ns0:line y2="-38.97" y1="-19.1283" x2="-22.5" x1="-11.044" style="fill:none;" /><ns0:line y2="-12.99" y1="-12.99" x2="22.5" x1="-2.1484" style="fill:none;" /><ns0:line y2="12.99" y1="-7.1017" x2="-22.5" x1="-10.8997" style="fill:none;" /><ns0:line y2="-38.97" y1="-38.97" x2="-52.5" x1="-22.5" style="fill:none;" /><ns0:line y2="-38.97" y1="-12.99" x2="37.5" x1="22.5" style="fill:none;" /><ns0:line y2="38.97" y1="12.99" x2="-7.5" x1="-22.5" style="fill:none;" /><ns0:line y2="-59.3171" y1="-38.97" x2="-64.2464" x1="-52.5" style="fill:none;" /><ns0:line y2="-38.97" y1="-38.97" x2="61.5625" x1="37.5" style="fill:none;" /><ns0:line y2="59.2311" y1="38.97" x2="-19.1967" x1="-7.5" style="fill:none;" /></ns0:g><ns0:g transform="translate(82,72)" style="fill:rgb(0,5,255); text-rendering:geometricPrecision; color-rendering:optimizeQuality; image-rendering:optimizeQuality; font-family:'Open Sans'; stroke:rgb(0,5,255); color-interpolation:linearRGB;"><ns0:path style="stroke:none;" d="M-4.1484 -8.8337 L-5.2891 -8.8337 L-9.9766 -16.0212 L-10.0234 -16.0212 Q-9.9297 -14.7556 -9.9297 -13.7087 L-9.9297 -8.8337 L-10.8516 -8.8337 L-10.8516 -17.3962 L-9.7266 -17.3962 L-5.0547 -10.24 L-5.0078 -10.24 Q-5.0078 -10.3962 -5.0547 -11.2556 Q-5.1016 -12.115 -5.0859 -12.49 L-5.0859 -17.3962 L-4.1484 -17.3962 L-4.1484 -8.8337 Z" /></ns0:g><ns0:g transform="translate(82,72)" style="stroke-linecap:butt; text-rendering:geometricPrecision; color-rendering:optimizeQuality; image-rendering:optimizeQuality; font-family:'Open Sans'; color-interpolation:linearRGB; stroke-miterlimit:5;"><ns0:path style="fill:none;" d="M-22.25 -38.537 L-22.5 -38.97 L-23 -38.97" /><ns0:path style="fill:none;" d="M22 -12.99 L22.5 -12.99 L22.75 -13.423" /><ns0:path style="fill:none;" d="M-22.25 12.557 L-22.5 12.99 L-22.25 13.423" /><ns0:path style="fill:none;" d="M-52 -38.97 L-52.5 -38.97 L-52.75 -39.403" /><ns0:path style="fill:none;" d="M37.25 -38.537 L37.5 -38.97 L38 -38.97" /><ns0:path style="fill:none;" d="M-7.75 38.537 L-7.5 38.97 L-7.75 39.403" /><ns0:path style="fill:rgb(230,0,0); stroke:none;" d="M-63.5625 -65.0233 Q-63.5625 -62.9608 -64.6016 -61.7811 Q-65.6406 -60.6014 -67.4844 -60.6014 Q-69.375 -60.6014 -70.4062 -61.7655 Q-71.4375 -62.9296 -71.4375 -65.0389 Q-71.4375 -67.1327 -70.4062 -68.2811 Q-69.375 -69.4296 -67.4844 -69.4296 Q-65.625 -69.4296 -64.5938 -68.2577 Q-63.5625 -67.0858 -63.5625 -65.0233 ZM-70.3906 -65.0233 Q-70.3906 -63.2889 -69.6484 -62.3827 Q-68.9062 -61.4764 -67.4844 -61.4764 Q-66.0625 -61.4764 -65.3359 -62.3749 Q-64.6094 -63.2733 -64.6094 -65.0233 Q-64.6094 -66.7577 -65.3359 -67.6483 Q-66.0625 -68.5389 -67.4844 -68.5389 Q-68.9062 -68.5389 -69.6484 -67.6405 Q-70.3906 -66.7421 -70.3906 -65.0233 Z" /><ns0:path style="fill:rgb(230,0,0); stroke:none;" d="M-72.4375 -60.7264 L-73.4375 -60.7264 L-73.4375 -64.7577 L-77.9531 -64.7577 L-77.9531 -60.7264 L-78.9531 -60.7264 L-78.9531 -69.2889 L-77.9531 -69.2889 L-77.9531 -65.6483 L-73.4375 -65.6483 L-73.4375 -69.2889 L-72.4375 -69.2889 L-72.4375 -60.7264 Z" /><ns0:path style="fill:rgb(230,0,0); stroke:none;" d="M71.4375 -39.0403 Q71.4375 -36.9778 70.3984 -35.7981 Q69.3594 -34.6184 67.5156 -34.6184 Q65.625 -34.6184 64.5938 -35.7825 Q63.5625 -36.9466 63.5625 -39.0559 Q63.5625 -41.1497 64.5938 -42.2981 Q65.625 -43.4466 67.5156 -43.4466 Q69.375 -43.4466 70.4062 -42.2747 Q71.4375 -41.1028 71.4375 -39.0403 ZM64.6094 -39.0403 Q64.6094 -37.3059 65.3516 -36.3997 Q66.0938 -35.4934 67.5156 -35.4934 Q68.9375 -35.4934 69.6641 -36.3919 Q70.3906 -37.2903 70.3906 -39.0403 Q70.3906 -40.7747 69.6641 -41.6653 Q68.9375 -42.5559 67.5156 -42.5559 Q66.0938 -42.5559 65.3516 -41.6575 Q64.6094 -40.7591 64.6094 -39.0403 Z" /><ns0:path style="fill:rgb(230,0,0); stroke:none;" d="M78.9531 -34.7434 L77.9531 -34.7434 L77.9531 -38.7747 L73.4375 -38.7747 L73.4375 -34.7434 L72.4375 -34.7434 L72.4375 -43.3059 L73.4375 -43.3059 L73.4375 -39.6653 L77.9531 -39.6653 L77.9531 -43.3059 L78.9531 -43.3059 L78.9531 -34.7434 Z" /><ns0:path style="fill:rgb(230,0,0); stroke:none;" d="M-18.5625 64.8827 Q-18.5625 66.9452 -19.6016 68.1249 Q-20.6406 69.3046 -22.4844 69.3046 Q-24.375 69.3046 -25.4062 68.1405 Q-26.4375 66.9764 -26.4375 64.8671 Q-26.4375 62.7733 -25.4062 61.6249 Q-24.375 60.4764 -22.4844 60.4764 Q-20.625 60.4764 -19.5938 61.6483 Q-18.5625 62.8202 -18.5625 64.8827 ZM-25.3906 64.8827 Q-25.3906 66.6171 -24.6484 67.5233 Q-23.9062 68.4296 -22.4844 68.4296 Q-21.0625 68.4296 -20.3359 67.5311 Q-19.6094 66.6327 -19.6094 64.8827 Q-19.6094 63.1483 -20.3359 62.2577 Q-21.0625 61.3671 -22.4844 61.3671 Q-23.9062 61.3671 -24.6484 62.2655 Q-25.3906 63.1639 -25.3906 64.8827 Z" /><ns0:path style="fill:rgb(230,0,0); stroke:none;" d="M-27.4375 69.1796 L-28.4375 69.1796 L-28.4375 65.1483 L-32.9531 65.1483 L-32.9531 69.1796 L-33.9531 69.1796 L-33.9531 60.6171 L-32.9531 60.6171 L-32.9531 64.2577 L-28.4375 64.2577 L-28.4375 60.6171 L-27.4375 60.6171 L-27.4375 69.1796 Z" /></ns0:g></ns0:g></ns0:svg></ns0:svg></ns0:svg></ns0:svg></g><g transform="translate(164, 0)"><ns0:svg width="374" viewBox="0 0 374 67" style="fill-opacity:1; color-rendering:auto; color-interpolation:auto; text-rendering:auto; stroke:black; stroke-linecap:square; stroke-miterlimit:10; shape-rendering:auto; stroke-opacity:1; fill:black; stroke-dasharray:none; font-weight:normal; stroke-width:1; font-family:'Open Sans'; font-style:normal; stroke-linejoin:miter; font-size:12; stroke-dashoffset:0; image-rendering:auto;" height="67" class="cas-substance-image"><ns0:svg class="cas-substance-single-component"><ns0:rect y="0" x="0" width="374" stroke="none" ry="7" rx="7" height="67" fill="white" class="cas-substance-group" /><ns0:svg y="0" x="0" width="374" viewBox="0 0 374 67" style="fill:black;" height="67" class="cas-substance-single-component-image"><ns0:svg><ns0:g><ns0:g transform="translate(189,33)" style="text-rendering:geometricPrecision; color-rendering:optimizeQuality; color-interpolation:linearRGB; stroke-linecap:butt; image-rendering:optimizeQuality;"><ns0:line y2="0" y1="-15" x2="-51.963" x1="-77.943" style="fill:none;" /><ns0:line y2="0" y1="-15" x2="-103.923" x1="-77.943" style="fill:none;" /><ns0:line y2="-15" y1="0" x2="-25.98" x1="-51.963" style="fill:none;" /><ns0:line y2="-11.8214" y1="0" x2="-124.3976" x1="-103.923" style="fill:none;" /><ns0:line y2="0" y1="-15" x2="0" x1="-25.98" style="fill:none;" /><ns0:line y2="-2.3779" y1="-11.8114" x2="-151.7671" x1="-135.4262" style="fill:none;" /><ns0:line y2="-15" y1="0" x2="25.98" x1="0" style="fill:none;" /><ns0:line y2="10.2584" y1="1.0262" x2="-177.1535" x1="-161.1633" style="fill:none;" /><ns0:line y2="13.2895" y1="4.0572" x2="-175.4035" x1="-159.4132" style="fill:none;" /><ns0:line y2="-21.2193" y1="-6.274" x2="-166.1166" x1="-157.4877" style="fill:none;" /><ns0:line y2="-19.4693" y1="-4.524" x2="-169.1477" x1="-160.5187" style="fill:none;" /><ns0:line y2="20.2524" y1="5.2936" x2="-144.1929" x1="-152.8297" style="fill:none;" /><ns0:line y2="0" y1="-15" x2="51.963" x1="25.98" style="fill:none;" /><ns0:line y2="-15" y1="0" x2="77.943" x1="51.963" style="fill:none;" /><ns0:line y2="0" y1="-15" x2="103.923" x1="77.943" style="fill:none;" /><ns0:line y2="-15" y1="0" x2="129.903" x1="103.923" style="fill:none;" /><ns0:line y2="0" y1="-15" x2="155.886" x1="129.903" style="fill:none;" /><ns0:line y2="-15" y1="0" x2="181.866" x1="155.886" style="fill:none;" /><ns0:path style="fill:none; stroke-miterlimit:5;" d="M-77.51 -14.75 L-77.943 -15 L-78.376 -14.75" /><ns0:path style="fill:none; stroke-miterlimit:5;" d="M-52.396 -0.25 L-51.963 0 L-51.53 -0.25" /><ns0:path style="fill:none; stroke-miterlimit:5;" d="M-103.49 -0.25 L-103.923 0 L-104.356 -0.25" /><ns0:path style="fill:none; stroke-miterlimit:5;" d="M-26.413 -14.75 L-25.98 -15 L-25.547 -14.75" /></ns0:g><ns0:g transform="translate(189,33)" style="stroke-linecap:butt; fill:rgb(230,0,0); text-rendering:geometricPrecision; color-rendering:optimizeQuality; image-rendering:optimizeQuality; font-family:'Open Sans'; stroke:rgb(230,0,0); color-interpolation:linearRGB; stroke-miterlimit:5;"><ns0:path style="stroke:none;" d="M-125.9655 -15.0703 Q-125.9655 -13.0078 -127.0046 -11.8281 Q-128.0436 -10.6484 -129.8874 -10.6484 Q-131.778 -10.6484 -132.8092 -11.8125 Q-133.8405 -12.9766 -133.8405 -15.0859 Q-133.8405 -17.1797 -132.8092 -18.3281 Q-131.778 -19.4766 -129.8874 -19.4766 Q-128.028 -19.4766 -126.9967 -18.3047 Q-125.9655 -17.1328 -125.9655 -15.0703 ZM-132.7936 -15.0703 Q-132.7936 -13.3359 -132.0514 -12.4297 Q-131.3092 -11.5234 -129.8874 -11.5234 Q-128.4655 -11.5234 -127.7389 -12.4219 Q-127.0124 -13.3203 -127.0124 -15.0703 Q-127.0124 -16.8047 -127.7389 -17.6953 Q-128.4655 -18.5859 -129.8874 -18.5859 Q-131.3092 -18.5859 -132.0514 -17.6875 Q-132.7936 -16.7891 -132.7936 -15.0703 Z" /><ns0:path style="fill:none; stroke:black;" d="M-0.433 -0.25 L0 0 L0.433 -0.25" /><ns0:path style="fill:rgb(148,108,0); stroke:none;" d="M-153.1907 1.9375 Q-153.1907 3.0625 -154.011 3.7031 Q-154.8313 4.3438 -156.2376 4.3438 Q-157.7688 4.3438 -158.5813 3.9375 L-158.5813 2.9844 Q-158.0501 3.2031 -157.4329 3.3359 Q-156.8157 3.4688 -156.2063 3.4688 Q-155.2063 3.4688 -154.7063 3.0859 Q-154.2063 2.7031 -154.2063 2.0312 Q-154.2063 1.5938 -154.386 1.3047 Q-154.5657 1.0156 -154.9798 0.7734 Q-155.3938 0.5312 -156.2532 0.2344 Q-157.4407 -0.1875 -157.9563 -0.7734 Q-158.4719 -1.3594 -158.4719 -2.3125 Q-158.4719 -3.2969 -157.7298 -3.8828 Q-156.9876 -4.4688 -155.7532 -4.4688 Q-154.4876 -4.4688 -153.4094 -4 L-153.7219 -3.1406 Q-154.7844 -3.5781 -155.7844 -3.5781 Q-156.5813 -3.5781 -157.0266 -3.2422 Q-157.4719 -2.9062 -157.4719 -2.2969 Q-157.4719 -1.8594 -157.3079 -1.5703 Q-157.1438 -1.2812 -156.7532 -1.0469 Q-156.3626 -0.8125 -155.5501 -0.5156 Q-154.2063 -0.0469 -153.6985 0.5078 Q-153.1907 1.0625 -153.1907 1.9375 Z" /><ns0:path style="fill:none; stroke:black;" d="M25.547 -14.75 L25.98 -15 L26.413 -14.75" /><ns0:path style="stroke:none;" d="M-177.9285 14.9297 Q-177.9285 16.9922 -178.9676 18.1719 Q-180.0066 19.3516 -181.8504 19.3516 Q-183.741 19.3516 -184.7722 18.1875 Q-185.8035 17.0234 -185.8035 14.9141 Q-185.8035 12.8203 -184.7722 11.6719 Q-183.741 10.5234 -181.8504 10.5234 Q-179.991 10.5234 -178.9597 11.6953 Q-177.9285 12.8672 -177.9285 14.9297 ZM-184.7566 14.9297 Q-184.7566 16.6641 -184.0144 17.5703 Q-183.2722 18.4766 -181.8504 18.4766 Q-180.4285 18.4766 -179.7019 17.5781 Q-178.9754 16.6797 -178.9754 14.9297 Q-178.9754 13.1953 -179.7019 12.3047 Q-180.4285 11.4141 -181.8504 11.4141 Q-183.2722 11.4141 -184.0144 12.3125 Q-184.7566 13.2109 -184.7566 14.9297 Z" /><ns0:path style="stroke:none;" d="M-166.9485 -26.0503 Q-166.9485 -23.9878 -167.9876 -22.8081 Q-169.0266 -21.6284 -170.8704 -21.6284 Q-172.761 -21.6284 -173.7923 -22.7925 Q-174.8235 -23.9566 -174.8235 -26.0659 Q-174.8235 -28.1597 -173.7923 -29.3081 Q-172.761 -30.4566 -170.8704 -30.4566 Q-169.011 -30.4566 -167.9798 -29.2847 Q-166.9485 -28.1128 -166.9485 -26.0503 ZM-173.7766 -26.0503 Q-173.7766 -24.3159 -173.0344 -23.4097 Q-172.2923 -22.5034 -170.8704 -22.5034 Q-169.4485 -22.5034 -168.7219 -23.4019 Q-167.9954 -24.3003 -167.9954 -26.0503 Q-167.9954 -27.7847 -168.7219 -28.6753 Q-169.4485 -29.5659 -170.8704 -29.5659 Q-172.2923 -29.5659 -173.0344 -28.6675 Q-173.7766 -27.7691 -173.7766 -26.0503 Z" /><ns0:path style="stroke:none;" d="M-136.9485 25.9097 Q-136.9485 27.9722 -137.9876 29.1519 Q-139.0266 30.3316 -140.8704 30.3316 Q-142.761 30.3316 -143.7923 29.1675 Q-144.8235 28.0034 -144.8235 25.8941 Q-144.8235 23.8003 -143.7923 22.6519 Q-142.761 21.5034 -140.8704 21.5034 Q-139.011 21.5034 -137.9798 22.6753 Q-136.9485 23.8472 -136.9485 25.9097 ZM-143.7766 25.9097 Q-143.7766 27.6441 -143.0344 28.5503 Q-142.2923 29.4566 -140.8704 29.4566 Q-139.4485 29.4566 -138.7219 28.5581 Q-137.9954 27.6597 -137.9954 25.9097 Q-137.9954 24.1753 -138.7219 23.2847 Q-139.4485 22.3941 -140.8704 22.3941 Q-142.2923 22.3941 -143.0344 23.2925 Q-143.7766 24.1909 -143.7766 25.9097 Z" /><ns0:path style="stroke:none;" d="M-129.4329 30.2066 L-130.4329 30.2066 L-130.4329 26.1753 L-134.9485 26.1753 L-134.9485 30.2066 L-135.9485 30.2066 L-135.9485 21.6441 L-134.9485 21.6441 L-134.9485 25.2847 L-130.4329 25.2847 L-130.4329 21.6441 L-129.4329 21.6441 L-129.4329 30.2066 Z" /><ns0:path style="fill:none; stroke:black;" d="M51.53 -0.25 L51.963 0 L52.396 -0.25" /><ns0:path style="fill:none; stroke:black;" d="M77.51 -14.75 L77.943 -15 L78.376 -14.75" /><ns0:path style="fill:none; stroke:black;" d="M103.49 -0.25 L103.923 0 L104.356 -0.25" /><ns0:path style="fill:none; stroke:black;" d="M129.47 -14.75 L129.903 -15 L130.336 -14.75" /><ns0:path style="fill:none; stroke:black;" d="M155.453 -0.25 L155.886 0 L156.319 -0.25" /></ns0:g></ns0:g></ns0:svg></ns0:svg></ns0:svg></ns0:svg></g></svg>