<svg width="202" viewBox="0 0 202 155" style="fill-opacity:1; color-rendering:auto; color-interpolation:auto; text-rendering:auto; stroke:black; stroke-linecap:square; stroke-miterlimit:10; shape-rendering:auto; stroke-opacity:1; fill:black; stroke-dasharray:none; font-weight:normal; stroke-width:1; font-family:'Open Sans'; font-style:normal; stroke-linejoin:miter; font-size:12; stroke-dashoffset:0; image-rendering:auto;" height="155" class="cas-substance-image" xmlns:xlink="http://www.w3.org/1999/xlink" xmlns="http://www.w3.org/2000/svg"><svg class="cas-substance-single-component"><rect y="0" x="0" width="202" stroke="none" ry="7" rx="7" height="155" fill="white" class="cas-substance-group"/><svg y="0" x="0" width="202" viewBox="0 0 202 140" style="fill:black;" height="140" class="cas-substance-single-component-image"><svg><g><g transform="translate(97,70)" style="text-rendering:geometricPrecision; color-rendering:optimizeQuality; color-interpolation:linearRGB; stroke-linecap:butt; image-rendering:optimizeQuality;"><line y2="50.1496" y1="42.777" x2="-44.0864" x1="-21.396" style="fill:none;"/><line y2="59.8778" y1="43.4015" x2="-5.0169" x1="-23.3179" style="fill:none;"/><line y2="57.2766" y1="41.4764" x2="-2.6751" x1="-20.2251" style="fill:none;"/><path style="stroke:none;" d="M-15.9331 14.289 L-16.218 15.2505 L-16.218 15.2505 L-14.9128 15.5289 L-14.9128 15.5289 L-14.7914 14.5325 L-14.7914 14.5325 L-15.9331 14.289 ZM-16.7877 17.1737 L-17.0726 18.1352 L-17.0726 18.1352 L-15.2769 18.5183 L-15.1556 17.5218 L-15.1556 17.5218 L-16.7877 17.1737 ZM-17.6424 20.0584 L-17.9273 21.0199 L-17.9273 21.0199 L-15.6411 21.5076 L-15.6411 21.5076 L-15.5197 20.5112 L-15.5197 20.5112 L-17.6424 20.0584 ZM-18.4971 22.9431 L-18.782 23.9046 L-18.782 23.9046 L-16.0052 24.4969 L-15.8838 23.5005 L-15.8838 23.5005 L-18.4971 22.9431 ZM-19.3517 25.8278 L-19.6366 26.7893 L-19.6366 26.7893 L-16.3693 27.4863 L-16.3693 27.4863 L-16.2479 26.4898 L-16.2479 26.4898 L-19.3517 25.8278 ZM-20.2064 28.7125 L-20.4913 29.674 L-20.4913 29.674 L-16.7335 30.4756 L-16.7335 30.4756 L-16.6121 29.4792 L-16.6121 29.4792 L-20.2064 28.7125 ZM-21.0611 31.5972 L-21.3459 32.5588 L-21.3459 32.5588 L-17.0976 33.4649 L-17.0976 33.4649 L-16.9762 32.4685 L-16.9762 32.4685 L-21.0611 31.5972 ZM-21.9157 34.4819 L-22.2006 35.4435 L-22.2006 35.4435 L-17.4617 36.4543 L-17.4617 36.4543 L-17.3403 35.4578 L-17.3403 35.4578 L-21.9157 34.4819 ZM-22.7704 37.3666 L-23.0553 38.3282 L-23.0553 38.3282 L-17.8258 39.4436 L-17.8258 39.4436 L-17.7045 38.4472 L-17.7045 38.4472 L-22.7704 37.3666 ZM-23.6251 40.2513 L-23.9099 41.2129 L-23.9099 41.2129 L-19.4862 42.1565 L-19.4862 42.1565 L-18.1015 41.7065 L-18.0686 41.4365 L-18.0686 41.4365 L-23.6251 40.2513 Z"/><line y2="-22.6245" y1="-15.9801" x2="-59.0687" x1="-83.8698" style="fill:none;"/><line y2="-26.0052" y1="-19.3608" x2="-59.9746" x1="-84.7755" style="fill:none;"/><line y2="1.23" y1="16.23" x2="64.209" x1="38.229" style="fill:none;"/><line y2="1.23" y1="16.23" x2="12.249" x1="38.229" style="fill:none;"/><line y2="-0.7907" y1="12.1885" x2="15.749" x1="38.229" style="fill:none;"/></g><g transform="translate(97,70)" style="stroke-linecap:butt; font-size:8.4px; fill:gray; text-rendering:geometricPrecision; image-rendering:optimizeQuality; color-rendering:optimizeQuality; font-family:'Open Sans'; font-style:italic; stroke:gray; color-interpolation:linearRGB;"><path style="stroke:none;" d="M26.01 1.2339 Q26.01 -0.0943 26.4787 -1.2193 Q26.9475 -2.3443 27.9787 -3.4224 L28.5881 -3.4224 Q27.6193 -2.3599 27.135 -1.188 Q26.6506 -0.0161 26.6506 1.2182 Q26.6506 2.5464 27.0881 3.562 L26.5725 3.562 Q26.01 2.5307 26.01 1.2339 ZM31.5231 2.2964 L28.0075 2.2964 L28.1169 1.7651 L31.7263 -2.813 L29.1638 -2.813 L29.2888 -3.4224 L32.6481 -3.4224 L32.5388 -2.8755 L28.9294 1.687 L31.6638 1.687 L31.5231 2.2964 ZM34.4683 -1.0786 Q34.4683 0.2495 33.9917 1.3823 Q33.5151 2.5151 32.4995 3.562 L31.8901 3.562 Q33.8276 1.4057 33.8276 -1.0786 Q33.8276 -2.4068 33.3901 -3.4224 L33.9058 -3.4224 Q34.4683 -2.3599 34.4683 -1.0786 Z"/><line y2="12.9888" y1="1.23" x2="84.5777" x1="64.209" style="fill:none; stroke:black;"/><line y2="13.431" y1="-3.6535" x2="-15.159" x1="-30.5422" style="fill:none; stroke:black;"/><line y2="-34.842" y1="-15.0003" x2="-20.232" x1="-31.688" style="fill:none; stroke:black;"/><line y2="-23.862" y1="-11.7971" x2="-61.212" x1="-40.3156" style="fill:none; stroke:black;"/><line y2="1.23" y1="13.431" x2="12.249" x1="-15.159" style="fill:none; stroke:black;"/><line y2="-29.8578" y1="-34.842" x2="3.2172" x1="-20.232" style="fill:none; stroke:black;"/><line y2="-49.842" y1="-34.842" x2="-46.212" x1="-20.232" style="fill:none; stroke:black;"/><line y2="-49.842" y1="-23.862" x2="-46.212" x1="-61.212" style="fill:none; stroke:black;"/><line y2="-22.2644" y1="1.23" x2="9.7779" x1="12.249" style="fill:none; stroke:black;"/><path style="fill:black; stroke:none;" d="M-14.794 -57.1488 L-15.0532 -56.1773 L-15.0532 -56.1773 L-9.8038 -54.1616 L-9.8038 -54.1616 L-9.3463 -55.0571 L-14.794 -57.1488 ZM-15.5718 -54.2341 L-15.8311 -53.2625 L-15.8311 -53.2625 L-11.1763 -51.4751 L-11.1763 -51.4751 L-10.7188 -52.3706 L-10.7188 -52.3706 L-15.5718 -54.2341 ZM-16.3496 -51.3193 L-16.6089 -50.3477 L-12.5487 -48.7886 L-12.5487 -48.7886 L-12.0912 -49.6841 L-16.3496 -51.3193 ZM-17.1274 -48.4045 L-17.3867 -47.4329 L-17.3867 -47.4329 L-13.9212 -46.1022 L-13.9212 -46.1022 L-13.4637 -46.9977 L-13.4637 -46.9977 L-17.1274 -48.4045 ZM-17.9052 -45.4897 L-18.1645 -44.5181 L-18.1645 -44.5181 L-15.2936 -43.4157 L-15.2936 -43.4157 L-14.8361 -44.3112 L-14.8361 -44.3112 L-17.9052 -45.4897 ZM-18.6831 -42.5749 L-18.9423 -41.6033 L-18.9423 -41.6033 L-16.666 -40.7292 L-16.666 -40.7292 L-16.2086 -41.6247 L-16.2086 -41.6247 L-18.6831 -42.5749 ZM-19.4609 -39.6601 L-19.7202 -38.6885 L-19.7202 -38.6885 L-18.0385 -38.0428 L-18.0385 -38.0428 L-17.581 -38.9382 L-17.581 -38.9382 L-19.4609 -39.6601 ZM-20.2387 -36.7453 L-20.498 -35.7737 L-20.498 -35.7737 L-19.4109 -35.3563 L-18.9535 -36.2518 L-20.2387 -36.7453 Z"/></g><g transform="translate(97,70)" style="fill:rgb(230,0,0); text-rendering:geometricPrecision; color-rendering:optimizeQuality; image-rendering:optimizeQuality; font-family:'Open Sans'; stroke:rgb(230,0,0); color-interpolation:linearRGB;"><path style="stroke:none;" d="M-45.9885 51.9767 Q-45.9885 54.0392 -47.0276 55.2189 Q-48.0666 56.3986 -49.9104 56.3986 Q-51.801 56.3986 -52.8322 55.2345 Q-53.8635 54.0704 -53.8635 51.9611 Q-53.8635 49.8673 -52.8322 48.7189 Q-51.801 47.5704 -49.9104 47.5704 Q-48.051 47.5704 -47.0197 48.7423 Q-45.9885 49.9142 -45.9885 51.9767 ZM-52.8166 51.9767 Q-52.8166 53.7111 -52.0744 54.6173 Q-51.3322 55.5236 -49.9104 55.5236 Q-48.4885 55.5236 -47.7619 54.6251 Q-47.0354 53.7267 -47.0354 51.9767 Q-47.0354 50.2423 -47.7619 49.3517 Q-48.4885 48.4611 -49.9104 48.4611 Q-51.3322 48.4611 -52.0744 49.3595 Q-52.8166 50.2579 -52.8166 51.9767 Z"/><path style="stroke:none;" d="M-54.8635 56.2736 L-55.8635 56.2736 L-55.8635 52.2423 L-60.3791 52.2423 L-60.3791 56.2736 L-61.3791 56.2736 L-61.3791 47.7111 L-60.3791 47.7111 L-60.3791 51.3517 L-55.8635 51.3517 L-55.8635 47.7111 L-54.8635 47.7111 L-54.8635 56.2736 Z"/><path style="stroke:none;" d="M4.8375 62.7797 Q4.8375 64.8422 3.7984 66.0219 Q2.7594 67.2016 0.9156 67.2016 Q-0.975 67.2016 -2.0062 66.0375 Q-3.0375 64.8734 -3.0375 62.7641 Q-3.0375 60.6703 -2.0062 59.5219 Q-0.975 58.3734 0.9156 58.3734 Q2.775 58.3734 3.8063 59.5453 Q4.8375 60.7172 4.8375 62.7797 ZM-1.9906 62.7797 Q-1.9906 64.5141 -1.2484 65.4203 Q-0.5062 66.3266 0.9156 66.3266 Q2.3375 66.3266 3.0641 65.4281 Q3.7906 64.5297 3.7906 62.7797 Q3.7906 61.0453 3.0641 60.1547 Q2.3375 59.2641 0.9156 59.2641 Q-0.5062 59.2641 -1.2484 60.1625 Q-1.9906 61.0609 -1.9906 62.7797 Z"/><path style="stroke:none;" d="M-86.2545 -16.1683 Q-86.2545 -14.1058 -87.2936 -12.9261 Q-88.3326 -11.7464 -90.1764 -11.7464 Q-92.067 -11.7464 -93.0983 -12.9105 Q-94.1295 -14.0746 -94.1295 -16.1839 Q-94.1295 -18.2777 -93.0983 -19.4261 Q-92.067 -20.5746 -90.1764 -20.5746 Q-88.317 -20.5746 -87.2858 -19.4027 Q-86.2545 -18.2308 -86.2545 -16.1683 ZM-93.0826 -16.1683 Q-93.0826 -14.4339 -92.3404 -13.5277 Q-91.5983 -12.6214 -90.1764 -12.6214 Q-88.7545 -12.6214 -88.0279 -13.5199 Q-87.3014 -14.4183 -87.3014 -16.1683 Q-87.3014 -17.9027 -88.0279 -18.7933 Q-88.7545 -19.6839 -90.1764 -19.6839 Q-91.5983 -19.6839 -92.3404 -18.7855 Q-93.0826 -17.8871 -93.0826 -16.1683 Z"/></g><g transform="translate(97,70)" style="stroke-linecap:butt; text-rendering:geometricPrecision; color-rendering:optimizeQuality; image-rendering:optimizeQuality; font-family:'Open Sans'; color-interpolation:linearRGB; stroke-miterlimit:5;"><path style="fill:none;" d="M38.662 15.98 L38.229 16.23 L37.796 15.98"/><path style="fill:none;" d="M63.776 1.48 L64.209 1.23 L64.642 1.48"/><path style="fill:rgb(230,0,0); stroke:none;" d="M94.1295 16.1597 Q94.1295 18.2222 93.0904 19.4019 Q92.0514 20.5816 90.2076 20.5816 Q88.317 20.5816 87.2858 19.4175 Q86.2545 18.2534 86.2545 16.1441 Q86.2545 14.0503 87.2858 12.9019 Q88.317 11.7534 90.2076 11.7534 Q92.067 11.7534 93.0983 12.9253 Q94.1295 14.0972 94.1295 16.1597 ZM87.3014 16.1597 Q87.3014 17.8941 88.0436 18.8003 Q88.7858 19.7066 90.2076 19.7066 Q91.6295 19.7066 92.3561 18.8081 Q93.0826 17.9097 93.0826 16.1597 Q93.0826 14.4253 92.3561 13.5347 Q91.6295 12.6441 90.2076 12.6441 Q88.7858 12.6441 88.0436 13.5425 Q87.3014 14.4409 87.3014 16.1597 Z"/><path style="fill:rgb(230,0,0); stroke:none;" d="M101.6451 20.4566 L100.6451 20.4566 L100.6451 16.4253 L96.1295 16.4253 L96.1295 20.4566 L95.1295 20.4566 L95.1295 11.8941 L96.1295 11.8941 L96.1295 15.5347 L100.6451 15.5347 L100.6451 11.8941 L101.6451 11.8941 L101.6451 20.4566 Z"/><path style="fill:rgb(0,5,255); stroke:none;" d="M-31.8804 -4.7057 L-33.0211 -4.7057 L-37.7086 -11.8932 L-37.7554 -11.8932 Q-37.6617 -10.6276 -37.6617 -9.5807 L-37.6617 -4.7057 L-38.5836 -4.7057 L-38.5836 -13.2682 L-37.4586 -13.2682 L-32.7867 -6.112 L-32.7398 -6.112 Q-32.7398 -6.2682 -32.7867 -7.1276 Q-32.8336 -7.987 -32.8179 -8.362 L-32.8179 -13.2682 L-31.8804 -13.2682 L-31.8804 -4.7057 Z"/><path style="fill:none;" d="M-15.4936 13.0594 L-15.159 13.431 L-14.7022 13.2277"/></g><g transform="translate(97,70)" style="stroke-linecap:butt; font-size:8.4px; fill:gray; text-rendering:geometricPrecision; image-rendering:optimizeQuality; color-rendering:optimizeQuality; font-family:'Open Sans'; font-style:italic; stroke:gray; color-interpolation:linearRGB; stroke-miterlimit:5;"><path style="stroke:none;" d="M-29.2069 17.1834 Q-29.2069 15.8553 -28.7381 14.7303 Q-28.2694 13.6053 -27.2381 12.5271 L-26.6287 12.5271 Q-27.5975 13.5896 -28.0819 14.7615 Q-28.5662 15.9334 -28.5662 17.1678 Q-28.5662 18.4959 -28.1287 19.5115 L-28.6444 19.5115 Q-29.2069 18.4803 -29.2069 17.1834 ZM-25.6468 15.8709 L-26.1468 18.2459 L-26.8031 18.2459 L-25.5999 12.5271 L-24.3499 12.5271 Q-22.6156 12.5271 -22.6156 13.9646 Q-22.6156 15.324 -24.0531 15.7146 L-23.1156 18.2459 L-23.8343 18.2459 L-24.6624 15.8709 L-25.6468 15.8709 ZM-25.0687 13.1209 Q-25.4593 15.0428 -25.5218 15.2928 L-24.8656 15.2928 Q-24.1156 15.2928 -23.7093 14.9646 Q-23.3031 14.6365 -23.3031 14.0115 Q-23.3031 13.5428 -23.5609 13.3318 Q-23.8187 13.1209 -24.4124 13.1209 L-25.0687 13.1209 ZM-20.4296 14.8709 Q-20.4296 16.199 -20.9061 17.3318 Q-21.3827 18.4646 -22.3983 19.5115 L-23.0077 19.5115 Q-21.0702 17.3553 -21.0702 14.8709 Q-21.0702 13.5428 -21.5077 12.5271 L-20.9921 12.5271 Q-20.4296 13.5896 -20.4296 14.8709 Z"/><path style="stroke:none;" d="M-20.5533 -24.5425 Q-20.5533 -25.8706 -20.0846 -26.9956 Q-19.6158 -28.1206 -18.5846 -29.1987 L-17.9752 -29.1987 Q-18.9439 -28.1362 -19.4283 -26.9643 Q-19.9127 -25.7925 -19.9127 -24.5581 Q-19.9127 -23.23 -19.4752 -22.2143 L-19.9908 -22.2143 Q-20.5533 -23.2456 -20.5533 -24.5425 ZM-16.9933 -25.855 L-17.4933 -23.48 L-18.1495 -23.48 L-16.9464 -29.1987 L-15.6964 -29.1987 Q-13.962 -29.1987 -13.962 -27.7612 Q-13.962 -26.4018 -15.3995 -26.0112 L-14.462 -23.48 L-15.1808 -23.48 L-16.0089 -25.855 L-16.9933 -25.855 ZM-16.4151 -28.605 Q-16.8058 -26.6831 -16.8683 -26.4331 L-16.212 -26.4331 Q-15.462 -26.4331 -15.0558 -26.7612 Q-14.6495 -27.0893 -14.6495 -27.7143 Q-14.6495 -28.1831 -14.9073 -28.394 Q-15.1651 -28.605 -15.7589 -28.605 L-16.4151 -28.605 ZM-11.776 -26.855 Q-11.776 -25.5268 -12.2526 -24.394 Q-12.7292 -23.2612 -13.7448 -22.2143 L-14.3542 -22.2143 Q-12.4167 -24.3706 -12.4167 -26.855 Q-12.4167 -28.1831 -12.8542 -29.1987 L-12.3385 -29.1987 Q-11.776 -28.1362 -11.776 -26.855 Z"/><path style="fill:none; stroke:black;" d="M-60.779 -23.612 L-61.212 -23.862 L-60.962 -24.295"/><path style="fill:none; stroke:black;" d="M12.682 1.48 L12.249 1.23 L12.1967 0.7327"/></g><g transform="translate(97,70)" style="stroke-linecap:butt; fill:rgb(230,0,0); text-rendering:geometricPrecision; color-rendering:optimizeQuality; image-rendering:optimizeQuality; font-family:'Open Sans'; stroke:rgb(230,0,0); color-interpolation:linearRGB; stroke-miterlimit:5;"><path style="stroke:none;" d="M13.0485 -28.6753 Q13.0485 -26.6128 12.0094 -25.4331 Q10.9704 -24.2534 9.1266 -24.2534 Q7.236 -24.2534 6.2048 -25.4175 Q5.1735 -26.5816 5.1735 -28.6909 Q5.1735 -30.7847 6.2048 -31.9331 Q7.236 -33.0816 9.1266 -33.0816 Q10.986 -33.0816 12.0173 -31.9097 Q13.0485 -30.7378 13.0485 -28.6753 ZM6.2204 -28.6753 Q6.2204 -26.9409 6.9626 -26.0347 Q7.7048 -25.1284 9.1266 -25.1284 Q10.5485 -25.1284 11.2751 -26.0269 Q12.0016 -26.9253 12.0016 -28.6753 Q12.0016 -30.4097 11.2751 -31.3003 Q10.5485 -32.1909 9.1266 -32.1909 Q7.7048 -32.1909 6.9626 -31.2925 Q6.2204 -30.3941 6.2204 -28.6753 Z"/><path style="fill:none; stroke:black;" d="M-45.779 -49.592 L-46.212 -49.842 L-46.462 -49.409"/><path style="fill:black; stroke:none;" d="M-6.2222 -58.6938 L-7.2222 -58.6938 L-7.2222 -62.725 L-11.7378 -62.725 L-11.7378 -58.6938 L-12.7378 -58.6938 L-12.7378 -67.2563 L-11.7378 -67.2563 L-11.7378 -63.6156 L-7.2222 -63.6156 L-7.2222 -67.2563 L-6.2222 -67.2563 L-6.2222 -58.6938 Z"/></g></g></svg></svg><svg y="140" x="93" class="cas-substance-saf"><svg y="5" x="0" width="4" style="fill:black;" height="4" class="cas-substance-saf-dot"><circle stroke="none" r="2" fill="black" cy="2" cx="2"/></svg><svg y="0" x="8" width="12" style="fill:black;" height="15" class="cas-substance-saf-image"><svg><g><g transform="translate(6,7)" style="text-rendering:geometricPrecision; font-family:'Open Sans'; color-interpolation:linearRGB; color-rendering:optimizeQuality; image-rendering:optimizeQuality;"><path style="stroke:none;" d="M3.0938 4.1562 L1.9219 4.1562 L-1.1875 0 L-2.0938 0.7969 L-2.0938 4.1562 L-3.0938 4.1562 L-3.0938 -4.4062 L-2.0938 -4.4062 L-2.0938 -0.1562 L1.7969 -4.4062 L2.9688 -4.4062 L-0.4688 -0.6875 L3.0938 4.1562 Z"/></g></g></svg></svg></svg></svg></svg>