<svg xmlns:ns0="http://www.w3.org/2000/svg" xmlns="http://www.w3.org/2000/svg"><g transform="translate(0, 0)"><ns0:svg width="420" viewBox="0 0 420 244" style="fill-opacity:1; color-rendering:auto; color-interpolation:auto; text-rendering:auto; stroke:black; stroke-linecap:square; stroke-miterlimit:10; shape-rendering:auto; stroke-opacity:1; fill:black; stroke-dasharray:none; font-weight:normal; stroke-width:1; font-family:'Open Sans'; font-style:normal; stroke-linejoin:miter; font-size:12; stroke-dashoffset:0; image-rendering:auto;" height="244" class="cas-substance-image"><ns0:svg class="cas-substance-single-component"><ns0:rect y="0" x="0" width="420" stroke="none" ry="7" rx="7" height="244" fill="white" class="cas-substance-group" /><ns0:svg y="0" x="0" width="420" viewBox="0 0 420 244" style="fill:black;" height="244" class="cas-substance-single-component-image"><ns0:svg><ns0:g><ns0:g transform="translate(210,122)" style="text-rendering:geometricPrecision; color-rendering:optimizeQuality; color-interpolation:linearRGB; stroke-linecap:butt; image-rendering:optimizeQuality;"><ns0:path style="stroke:none;" d="M-63.9207 -14.7406 L-64.9239 -14.719 L-64.783 -13.3932 L-64.783 -13.3932 L-63.7974 -13.5806 L-63.7974 -13.5806 L-63.9207 -14.7406 ZM-66.9303 -14.6758 L-67.9335 -14.6541 L-67.9335 -14.6541 L-67.7398 -12.8312 L-66.7542 -13.0186 L-66.9303 -14.6758 ZM-69.9399 -14.6109 L-70.9431 -14.5893 L-70.9431 -14.5893 L-70.6966 -12.2692 L-69.711 -12.4565 L-69.711 -12.4565 L-69.9399 -14.6109 ZM-72.9495 -14.546 L-73.9527 -14.5244 L-73.9527 -14.5244 L-73.6534 -11.7072 L-73.6534 -11.7072 L-72.6678 -11.8945 L-72.9495 -14.546 ZM-75.9592 -14.4812 L-76.9624 -14.4595 L-76.9624 -14.4595 L-76.6102 -11.1451 L-76.6102 -11.1451 L-75.6246 -11.3325 L-75.6246 -11.3325 L-75.9592 -14.4812 ZM-78.9688 -14.4163 L-79.972 -14.3947 L-79.972 -14.3947 L-79.567 -10.5831 L-78.5814 -10.7705 L-78.9688 -14.4163 ZM-81.9784 -14.3514 L-82.9816 -14.3298 L-82.9816 -14.3298 L-82.5238 -10.0211 L-81.5382 -10.2084 L-81.9784 -14.3514 ZM-84.988 -14.2866 L-85.9912 -14.2649 L-85.9912 -14.2649 L-85.4806 -9.4591 L-84.495 -9.6464 L-84.988 -14.2866 ZM-87.9976 -14.2217 L-89.0008 -14.2001 L-89.0008 -14.2001 L-88.4375 -8.8971 L-87.4518 -9.0844 L-87.4518 -9.0844 L-87.9976 -14.2217 ZM-91.0073 -14.1568 L-92.0105 -14.1352 L-92.0105 -14.1352 L-91.3942 -8.335 L-90.4087 -8.5224 L-91.0073 -14.1568 Z" /><ns0:line y2="40.248" y1="40.248" x2="-117.135" x1="-87.135" style="fill:none;" /><ns0:path style="stroke:none;" d="M-86.1297 40.8226 L-87.1403 41.4054 L-86.7124 42.3133 L-85.5573 41.6472 L-85.5573 41.6472 L-86.1297 40.8226 ZM-84.4125 43.2965 L-85.8565 44.1292 L-85.4285 45.0371 L-85.4285 45.0371 L-83.8401 44.1211 L-84.4125 43.2965 ZM-82.6954 45.7704 L-84.5726 46.8529 L-84.1446 47.7608 L-84.1446 47.7608 L-82.123 46.595 L-82.123 46.595 L-82.6954 45.7704 ZM-80.9782 48.2443 L-83.2887 49.5767 L-83.2887 49.5767 L-82.8608 50.4846 L-80.4059 49.0689 L-80.4059 49.0689 L-80.9782 48.2443 ZM-79.2611 50.7182 L-82.0049 52.3005 L-82.0049 52.3005 L-81.5769 53.2084 L-81.5769 53.2084 L-78.6887 51.5428 L-79.2611 50.7182 ZM-77.544 53.1921 L-80.721 55.0242 L-80.721 55.0242 L-80.2931 55.9321 L-76.9716 54.0168 L-77.544 53.1921 ZM-75.8268 55.666 L-79.4372 57.748 L-79.0092 58.6559 L-79.0092 58.6559 L-75.2545 56.4907 L-75.2545 56.4907 L-75.8268 55.666 ZM-74.1097 58.1399 L-78.1533 60.4718 L-77.7254 61.3797 L-77.7254 61.3797 L-73.5373 58.9646 L-74.1097 58.1399 ZM-72.3926 60.6138 L-76.8695 63.1955 L-76.4415 64.1035 L-76.4415 64.1035 L-71.8202 61.4385 L-71.8202 61.4385 L-72.3926 60.6138 ZM-70.6754 63.0877 L-75.5856 65.9193 L-75.5856 65.9193 L-75.1577 66.8272 L-75.1577 66.8272 L-70.103 63.9124 L-70.103 63.9124 L-70.6754 63.0877 Z" /><ns0:line y2="14.265" y1="40.248" x2="-72.135" x1="-87.135" style="fill:none;" /><ns0:line y2="66.228" y1="40.248" x2="-132.135" x1="-117.135" style="fill:none;" /><ns0:line y2="66.2281" y1="43.748" x2="-128.0935" x1="-115.1143" style="fill:none;" /></ns0:g><ns0:g transform="translate(210,122)" style="stroke-linecap:butt; font-size:8.4px; fill:gray; text-rendering:geometricPrecision; image-rendering:optimizeQuality; color-rendering:optimizeQuality; font-family:'Open Sans'; font-style:italic; stroke:gray; color-interpolation:linearRGB;"><ns0:path style="stroke:none;" d="M-137.4426 49.402 Q-137.4426 48.0738 -136.9738 46.9488 Q-136.5051 45.8238 -135.4738 44.7457 L-134.8644 44.7457 Q-135.8332 45.8082 -136.3176 46.9801 Q-136.8019 48.152 -136.8019 49.3863 Q-136.8019 50.7145 -136.3644 51.7301 L-136.8801 51.7301 Q-137.4426 50.6988 -137.4426 49.402 ZM-132.1794 50.4645 L-135.0387 50.4645 L-133.8356 44.7457 L-130.9606 44.7457 L-131.0856 45.3551 L-133.3044 45.3551 L-133.6794 47.1832 L-131.6325 47.1832 L-131.7419 47.777 L-133.8044 47.777 L-134.2575 49.8707 L-132.0387 49.8707 L-132.1794 50.4645 ZM-129.1478 47.0895 Q-129.1478 48.4176 -129.6244 49.5504 Q-130.1009 50.6832 -131.1166 51.7301 L-131.7259 51.7301 Q-129.7884 49.5738 -129.7884 47.0895 Q-129.7884 45.7613 -130.2259 44.7457 L-129.7103 44.7457 Q-129.1478 45.8082 -129.1478 47.0895 Z" /><ns0:line y2="66.228" y1="66.228" x2="-162.135" x1="-132.135" style="fill:none; stroke:black;" /><ns0:line y2="92.208" y1="66.228" x2="-177.135" x1="-162.135" style="fill:none; stroke:black;" /><ns0:path style="fill:black; stroke:none;" d="M-161.702 65.978 L-162.568 66.478 L-179.733 41.748 L-174.5369 38.748 Z" /><ns0:line y2="92.208" y1="92.208" x2="-207.135" x1="-177.135" style="fill:none; stroke:black;" /><ns0:line y2="118.188" y1="92.208" x2="-162.135" x1="-177.135" style="fill:none; stroke:black;" /><ns0:line y2="-66.228" y1="-40.248" x2="27.135" x1="12.135" style="fill:none; stroke:black;" /><ns0:line y2="-40.248" y1="-40.248" x2="-17.865" x1="12.135" style="fill:none; stroke:black;" /><ns0:line y2="-43.748" y1="-43.748" x2="-15.8443" x1="10.1143" style="fill:none; stroke:black;" /><ns0:path style="stroke:none;" d="M-7.0124 -49.0839 Q-7.0124 -50.4121 -6.5436 -51.5371 Q-6.0749 -52.6621 -5.0436 -53.7402 L-4.4342 -53.7402 Q-5.403 -52.6777 -5.8874 -51.5058 Q-6.3717 -50.3339 -6.3717 -49.0996 Q-6.3717 -47.7714 -5.9342 -46.7558 L-6.4499 -46.7558 Q-7.0124 -47.7871 -7.0124 -49.0839 ZM-1.7492 -48.0214 L-4.6086 -48.0214 L-3.4054 -53.7402 L-0.5304 -53.7402 L-0.6554 -53.1308 L-2.8742 -53.1308 L-3.2492 -51.3027 L-1.2023 -51.3027 L-1.3117 -50.7089 L-3.3742 -50.7089 L-3.8273 -48.6152 L-1.6086 -48.6152 L-1.7492 -48.0214 ZM1.2824 -51.3964 Q1.2824 -50.0683 0.8058 -48.9355 Q0.3292 -47.8027 -0.6864 -46.7558 L-1.2958 -46.7558 Q0.6417 -48.9121 0.6417 -51.3964 Q0.6417 -52.7246 0.2042 -53.7402 L0.7199 -53.7402 Q1.2824 -52.6777 1.2824 -51.3964 Z" /><ns0:line y2="-66.228" y1="-66.228" x2="57.135" x1="27.135" style="fill:none; stroke:black;" /><ns0:line y2="-62.728" y1="-62.728" x2="55.1143" x1="29.1557" style="fill:none; stroke:black;" /><ns0:path style="stroke:none;" d="M37.9876 -55.0639 Q37.9876 -56.3921 38.4564 -57.5171 Q38.9251 -58.6421 39.9564 -59.7202 L40.5658 -59.7202 Q39.597 -58.6577 39.1126 -57.4858 Q38.6283 -56.3139 38.6283 -55.0796 Q38.6283 -53.7514 39.0658 -52.7358 L38.5501 -52.7358 Q37.9876 -53.7671 37.9876 -55.0639 ZM43.2508 -54.0014 L40.3914 -54.0014 L41.5946 -59.7202 L44.4696 -59.7202 L44.3446 -59.1108 L42.1258 -59.1108 L41.7508 -57.2827 L43.7977 -57.2827 L43.6883 -56.6889 L41.6258 -56.6889 L41.1727 -54.5952 L43.3914 -54.5952 L43.2508 -54.0014 ZM46.2824 -57.3764 Q46.2824 -56.0483 45.8058 -54.9155 Q45.3292 -53.7827 44.3136 -52.7358 L43.7042 -52.7358 Q45.6417 -54.8921 45.6417 -57.3764 Q45.6417 -58.7046 45.2042 -59.7202 L45.7199 -59.7202 Q46.2824 -58.6577 46.2824 -57.3764 Z" /><ns0:line y2="-90.458" y1="-117.313" x2="71.1246" x1="55.6195" style="fill:none; stroke:black;" /><ns0:line y2="-92.208" y1="-119.063" x2="74.1557" x1="58.6505" style="fill:none; stroke:black;" /><ns0:line y2="-14.265" y1="-14.265" x2="141.1607" x1="123.0725" style="fill:none; stroke:black;" /><ns0:path style="fill:black; stroke:none;" d="M102.9796 -39.9336 L101.9847 -39.3599 L102.3922 -38.4402 L103.5723 -39.1207 L102.9796 -39.9336 ZM104.7578 -37.495 L103.2072 -36.6008 L103.6146 -35.6811 L103.6146 -35.6811 L105.3505 -36.6821 L104.7578 -37.495 ZM106.536 -35.0564 L104.4296 -33.8418 L104.4296 -33.8418 L104.8371 -32.9221 L107.1287 -34.2435 L106.536 -35.0564 ZM108.3142 -32.6178 L105.6521 -31.0827 L106.0596 -30.163 L108.9069 -31.8049 L108.3142 -32.6178 ZM110.0924 -30.1792 L106.8745 -28.3236 L106.8745 -28.3236 L107.282 -27.4039 L110.6851 -29.3664 L110.6851 -29.3664 L110.0924 -30.1792 ZM111.8706 -27.7406 L108.097 -25.5645 L108.5045 -24.6448 L112.4633 -26.9278 L111.8706 -27.7406 ZM113.6488 -25.302 L109.3195 -22.8055 L109.7269 -21.8858 L114.2415 -24.4892 L113.6488 -25.302 ZM115.427 -22.8634 L110.5419 -20.0464 L110.5419 -20.0464 L110.9494 -19.1267 L116.0197 -22.0506 L115.427 -22.8634 Z" /><ns0:line y2="-14.265" y1="-14.265" x2="177.135" x1="153.1199" style="fill:none; stroke:black;" /><ns0:line y2="15.735" y1="-7.867" x2="147.135" x1="147.135" style="fill:none; stroke:black;" /><ns0:line y2="-44.265" y1="-20.7251" x2="147.135" x1="147.135" style="fill:none; stroke:black;" /><ns0:line y2="15.735" y1="-14.265" x2="177.135" x1="177.135" style="fill:none; stroke:black;" /><ns0:line y2="-14.265" y1="-14.265" x2="207.135" x1="177.135" style="fill:none; stroke:black;" /><ns0:line y2="-44.265" y1="-14.265" x2="177.135" x1="177.135" style="fill:none; stroke:black;" /><ns0:line y2="-14.265" y1="-14.265" x2="-32.865" x1="-62.865" style="fill:none; stroke:black;" /><ns0:line y2="14.265" y1="-14.265" x2="-72.135" x1="-62.865" style="fill:none; stroke:black;" /><ns0:line y2="-40.248" y1="-14.265" x2="-77.865" x1="-62.865" style="fill:none; stroke:black;" /><ns0:line y2="-40.248" y1="-14.265" x2="-17.865" x1="-32.865" style="fill:none; stroke:black;" /><ns0:line y2="14.265" y1="-14.265" x2="-23.595" x1="-32.865" style="fill:none; stroke:black;" /><ns0:line y2="31.899" y1="14.265" x2="-47.865" x1="-72.135" style="fill:none; stroke:black;" /><ns0:line y2="-66.228" y1="-40.248" x2="-62.865" x1="-77.865" style="fill:none; stroke:black;" /><ns0:line y2="-66.228" y1="-40.248" x2="-32.865" x1="-17.865" style="fill:none; stroke:black;" /><ns0:line y2="31.899" y1="14.265" x2="-47.865" x1="-23.595" style="fill:none; stroke:black;" /><ns0:line y2="-66.228" y1="-66.228" x2="-32.865" x1="-62.865" style="fill:none; stroke:black;" /><ns0:line y2="-40.248" y1="-66.228" x2="72.135" x1="57.135" style="fill:none; stroke:black;" /><ns0:line y2="-92.208" y1="-66.228" x2="72.135" x1="57.135" style="fill:none; stroke:black;" /><ns0:line y2="-40.248" y1="-40.248" x2="102.135" x1="72.135" style="fill:none; stroke:black;" /><ns0:line y2="-92.208" y1="-92.208" x2="102.135" x1="72.135" style="fill:none; stroke:black;" /><ns0:line y2="-66.228" y1="-40.248" x2="117.135" x1="102.135" style="fill:none; stroke:black;" /><ns0:line y2="-66.228" y1="-92.208" x2="117.135" x1="102.135" style="fill:none; stroke:black;" /><ns0:path style="fill:black; stroke:none;" d="M-32.9172 -13.7677 L-32.8127 -14.7623 L-7.9634 -14.6649 L-8.5904 -8.6978 Z" /><ns0:path style="fill:black; stroke:none;" d="M-71.9317 13.8082 L-72.3383 14.7218 L-95.6781 7.0683 L-93.238 1.5869 Z" /><ns0:path style="fill:none; stroke-miterlimit:5; stroke:black;" d="M-87.635 40.248 L-87.135 40.248 L-86.885 39.815" /><ns0:path style="stroke-miterlimit:5; stroke:none;" d="M-96.5241 32.7521 Q-96.5241 31.4239 -96.0553 30.2989 Q-95.5866 29.1739 -94.5553 28.0958 L-93.9459 28.0958 Q-94.9147 29.1583 -95.3991 30.3302 Q-95.8834 31.5021 -95.8834 32.7364 Q-95.8834 34.0646 -95.4459 35.0802 L-95.9616 35.0802 Q-96.5241 34.0489 -96.5241 32.7521 ZM-92.964 31.4396 L-93.464 33.8146 L-94.1203 33.8146 L-92.9171 28.0958 L-91.6671 28.0958 Q-89.9328 28.0958 -89.9328 29.5333 Q-89.9328 30.8927 -91.3703 31.2833 L-90.4328 33.8146 L-91.1515 33.8146 L-91.9796 31.4396 L-92.964 31.4396 ZM-92.3859 28.6896 Q-92.7765 30.6114 -92.839 30.8614 L-92.1828 30.8614 Q-91.4328 30.8614 -91.0265 30.5333 Q-90.6203 30.2052 -90.6203 29.5802 Q-90.6203 29.1114 -90.8781 28.9005 Q-91.1359 28.6896 -91.7296 28.6896 L-92.3859 28.6896 ZM-87.7468 30.4396 Q-87.7468 31.7677 -88.2234 32.9005 Q-88.6999 34.0333 -89.7155 35.0802 L-90.3249 35.0802 Q-88.3874 32.9239 -88.3874 30.4396 Q-88.3874 29.1114 -88.8249 28.0958 L-88.3093 28.0958 Q-87.7468 29.1583 -87.7468 30.4396 Z" /><ns0:path style="fill:none; stroke-miterlimit:5; stroke:black;" d="M-116.635 40.248 L-117.135 40.248 L-117.385 40.681" /><ns0:path style="fill:none; stroke-miterlimit:5; stroke:black;" d="M-131.885 65.795 L-132.135 66.228 L-132.635 66.228" /><ns0:path style="stroke-miterlimit:5; stroke:none;" d="M-161.5235 58.7319 Q-161.5235 57.4038 -161.0548 56.2788 Q-160.586 55.1538 -159.5548 54.0756 L-158.9454 54.0756 Q-159.9142 55.1381 -160.3985 56.31 Q-160.8829 57.4819 -160.8829 58.7163 Q-160.8829 60.0444 -160.4454 61.06 L-160.961 61.06 Q-161.5235 60.0288 -161.5235 58.7319 ZM-157.9635 57.4194 L-158.4635 59.7944 L-159.1197 59.7944 L-157.9166 54.0756 L-156.6666 54.0756 Q-154.9322 54.0756 -154.9322 55.5131 Q-154.9322 56.8725 -156.3697 57.2631 L-155.4322 59.7944 L-156.151 59.7944 L-156.9791 57.4194 L-157.9635 57.4194 ZM-157.3853 54.6694 Q-157.776 56.5913 -157.8385 56.8413 L-157.1822 56.8413 Q-156.4322 56.8413 -156.026 56.5131 Q-155.6197 56.185 -155.6197 55.56 Q-155.6197 55.0913 -155.8775 54.8803 Q-156.1353 54.6694 -156.7291 54.6694 L-157.3853 54.6694 ZM-152.7462 56.4194 Q-152.7462 57.7475 -153.2228 58.8803 Q-153.6994 60.0131 -154.715 61.06 L-155.3244 61.06 Q-153.3869 58.9038 -153.3869 56.4194 Q-153.3869 55.0913 -153.8244 54.0756 L-153.3087 54.0756 Q-152.7462 55.1381 -152.7462 56.4194 Z" /><ns0:path style="fill:none; stroke-miterlimit:5; stroke:black;" d="M12.385 -40.681 L12.135 -40.248 L11.635 -40.248" /><ns0:path style="fill:none; stroke-miterlimit:5; stroke:black;" d="M26.885 -65.795 L27.135 -66.228 L27.635 -66.228" /></ns0:g><ns0:g transform="translate(210,122)" style="stroke-linecap:butt; fill:rgb(230,0,0); text-rendering:geometricPrecision; color-rendering:optimizeQuality; image-rendering:optimizeQuality; font-family:'Open Sans'; stroke:rgb(230,0,0); color-interpolation:linearRGB; stroke-miterlimit:5;"><ns0:path style="stroke:none;" d="M121.0725 -14.3353 Q121.0725 -12.2728 120.0334 -11.0931 Q118.9944 -9.9134 117.1506 -9.9134 Q115.26 -9.9134 114.2288 -11.0775 Q113.1975 -12.2416 113.1975 -14.3509 Q113.1975 -16.4447 114.2288 -17.5931 Q115.26 -18.7416 117.1506 -18.7416 Q119.01 -18.7416 120.0413 -17.5697 Q121.0725 -16.3978 121.0725 -14.3353 ZM114.2444 -14.3353 Q114.2444 -12.6009 114.9866 -11.6947 Q115.7288 -10.7884 117.1506 -10.7884 Q118.5725 -10.7884 119.2991 -11.6869 Q120.0256 -12.5853 120.0256 -14.3353 Q120.0256 -16.0697 119.2991 -16.9603 Q118.5725 -17.8509 117.1506 -17.8509 Q115.7288 -17.8509 114.9866 -16.9525 Q114.2444 -16.0541 114.2444 -14.3353 Z" /><ns0:path style="fill:black; stroke:none;" d="M148.4983 -12.265 Q148.4983 -11.14 147.678 -10.4994 Q146.8577 -9.8587 145.4514 -9.8587 Q143.9202 -9.8587 143.1077 -10.265 L143.1077 -11.2181 Q143.6389 -10.9994 144.2561 -10.8666 Q144.8733 -10.7337 145.4827 -10.7337 Q146.4827 -10.7337 146.9827 -11.1166 Q147.4827 -11.4994 147.4827 -12.1712 Q147.4827 -12.6087 147.303 -12.8978 Q147.1233 -13.1869 146.7092 -13.4291 Q146.2952 -13.6712 145.4358 -13.9681 Q144.2483 -14.39 143.7327 -14.9759 Q143.217 -15.5619 143.217 -16.515 Q143.217 -17.4994 143.9592 -18.0853 Q144.7014 -18.6712 145.9358 -18.6712 Q147.2014 -18.6712 148.2795 -18.2025 L147.967 -17.3431 Q146.9045 -17.7806 145.9045 -17.7806 Q145.1077 -17.7806 144.6623 -17.4447 Q144.217 -17.1087 144.217 -16.4994 Q144.217 -16.0619 144.3811 -15.7728 Q144.5452 -15.4837 144.9358 -15.2494 Q145.3264 -15.015 146.1389 -14.7181 Q147.4827 -14.2494 147.9905 -13.6947 Q148.4983 -13.14 148.4983 -12.265 ZM151.0686 -9.9837 L150.0998 -9.9837 L150.0998 -16.4056 L151.0686 -16.4056 L151.0686 -9.9837 ZM150.0217 -18.14 Q150.0217 -18.4837 150.1858 -18.64 Q150.3498 -18.7962 150.5998 -18.7962 Q150.8342 -18.7962 150.9983 -18.6322 Q151.1623 -18.4681 151.1623 -18.14 Q151.1623 -17.8119 150.9983 -17.6556 Q150.8342 -17.4994 150.5998 -17.4994 Q150.3498 -17.4994 150.1858 -17.6556 Q150.0217 -17.8119 150.0217 -18.14 Z" /></ns0:g><ns0:g transform="translate(210,122)" style="stroke-linecap:butt; font-size:8.4px; fill:gray; text-rendering:geometricPrecision; image-rendering:optimizeQuality; color-rendering:optimizeQuality; font-family:'Open Sans'; font-style:italic; stroke:gray; color-interpolation:linearRGB; stroke-miterlimit:5;"><ns0:path style="stroke:none;" d="M-62.2535 -21.7611 Q-62.2535 -23.0892 -61.7847 -24.2142 Q-61.316 -25.3392 -60.2847 -26.4173 L-59.6754 -26.4173 Q-60.6441 -25.3548 -61.1285 -24.183 Q-61.6129 -23.0111 -61.6129 -21.7767 Q-61.6129 -20.4486 -61.1754 -19.433 L-61.691 -19.433 Q-62.2535 -20.4642 -62.2535 -21.7611 ZM-58.6934 -23.0736 L-59.1934 -20.6986 L-59.8497 -20.6986 L-58.6465 -26.4173 L-57.3965 -26.4173 Q-55.6622 -26.4173 -55.6622 -24.9798 Q-55.6622 -23.6205 -57.0997 -23.2298 L-56.1622 -20.6986 L-56.8809 -20.6986 L-57.709 -23.0736 L-58.6934 -23.0736 ZM-58.1153 -25.8236 Q-58.5059 -23.9017 -58.5684 -23.6517 L-57.9122 -23.6517 Q-57.1622 -23.6517 -56.7559 -23.9798 Q-56.3497 -24.308 -56.3497 -24.933 Q-56.3497 -25.4017 -56.6075 -25.6127 Q-56.8653 -25.8236 -57.459 -25.8236 L-58.1153 -25.8236 ZM-53.4762 -24.0736 Q-53.4762 -22.7455 -53.9528 -21.6127 Q-54.4293 -20.4798 -55.4449 -19.433 L-56.0543 -19.433 Q-54.1168 -21.5892 -54.1168 -24.0736 Q-54.1168 -25.4017 -54.5543 -26.4173 L-54.0387 -26.4173 Q-53.4762 -25.3548 -53.4762 -24.0736 Z" /><ns0:path style="stroke:none;" d="M-41.9737 -21.722 Q-41.9737 -23.0502 -41.5049 -24.1752 Q-41.0362 -25.3002 -40.0049 -26.3783 L-39.3956 -26.3783 Q-40.3643 -25.3158 -40.8487 -24.1439 Q-41.3331 -22.972 -41.3331 -21.7377 Q-41.3331 -20.4095 -40.8956 -19.3939 L-41.4112 -19.3939 Q-41.9737 -20.4252 -41.9737 -21.722 ZM-36.3511 -22.3158 Q-36.3511 -21.4877 -36.898 -21.0345 Q-37.4449 -20.5814 -38.4449 -20.5814 Q-38.8511 -20.5814 -39.1636 -20.6361 Q-39.4761 -20.6908 -39.7574 -20.8314 L-39.7574 -21.4877 Q-39.1324 -21.1595 -38.4292 -21.1595 Q-37.8042 -21.1595 -37.4292 -21.4564 Q-37.0542 -21.7533 -37.0542 -22.2689 Q-37.0542 -22.5814 -37.2574 -22.808 Q-37.4605 -23.0345 -38.023 -23.3627 Q-38.6167 -23.6908 -38.8433 -24.0189 Q-39.0699 -24.347 -39.0699 -24.8002 Q-39.0699 -25.5345 -38.5542 -25.9955 Q-38.0386 -26.4564 -37.1949 -26.4564 Q-36.8199 -26.4564 -36.4839 -26.3783 Q-36.148 -26.3002 -35.773 -26.1283 L-36.0386 -25.5345 Q-36.2886 -25.6908 -36.6089 -25.7767 Q-36.9292 -25.8627 -37.1949 -25.8627 Q-37.7261 -25.8627 -38.0464 -25.5892 Q-38.3667 -25.3158 -38.3667 -24.847 Q-38.3667 -24.6439 -38.2964 -24.4955 Q-38.2261 -24.347 -38.0855 -24.2142 Q-37.9449 -24.0814 -37.523 -23.8314 Q-36.9605 -23.4877 -36.7574 -23.2923 Q-36.5542 -23.097 -36.4527 -22.8627 Q-36.3511 -22.6283 -36.3511 -22.3158 ZM-33.7566 -24.0345 Q-33.7566 -22.7064 -34.2332 -21.5736 Q-34.7098 -20.4408 -35.7254 -19.3939 L-36.3348 -19.3939 Q-34.3973 -21.5502 -34.3973 -24.0345 Q-34.3973 -25.3627 -34.8348 -26.3783 L-34.3191 -26.3783 Q-33.7566 -25.3158 -33.7566 -24.0345 Z" /><ns0:path style="stroke:none;" d="M-67.013 12.339 Q-67.013 11.0109 -66.5443 9.8859 Q-66.0755 8.7609 -65.0443 7.6828 L-64.4349 7.6828 Q-65.4037 8.7453 -65.888 9.9171 Q-66.3724 11.089 -66.3724 12.3234 Q-66.3724 13.6515 -65.9349 14.6671 L-66.4505 14.6671 Q-67.013 13.6359 -67.013 12.339 ZM-63.453 11.0265 L-63.953 13.4015 L-64.6092 13.4015 L-63.4061 7.6828 L-62.1561 7.6828 Q-60.4217 7.6828 -60.4217 9.1203 Q-60.4217 10.4796 -61.8592 10.8703 L-60.9217 13.4015 L-61.6405 13.4015 L-62.4686 11.0265 L-63.453 11.0265 ZM-62.8749 8.2765 Q-63.2655 10.1984 -63.328 10.4484 L-62.6717 10.4484 Q-61.9217 10.4484 -61.5155 10.1203 Q-61.1092 9.7921 -61.1092 9.1671 Q-61.1092 8.6984 -61.3671 8.4874 Q-61.6249 8.2765 -62.2186 8.2765 L-62.8749 8.2765 ZM-58.2358 10.0265 Q-58.2358 11.3546 -58.7123 12.4874 Q-59.1889 13.6203 -60.2045 14.6671 L-60.8139 14.6671 Q-58.8764 12.5109 -58.8764 10.0265 Q-58.8764 8.6984 -59.3139 7.6828 L-58.7983 7.6828 Q-58.2358 8.7453 -58.2358 10.0265 Z" /><ns0:path style="fill:none; stroke:black;" d="M-77.615 -39.815 L-77.865 -40.248 L-77.615 -40.681" /><ns0:path style="fill:none; stroke:black;" d="M-17.365 -40.248 L-17.865 -40.248 L-18.115 -39.815" /><ns0:path style="fill:none; stroke:black;" d="M-23.7495 13.7895 L-23.595 14.265 L-23.9995 14.5589" /><ns0:path style="fill:none; stroke:black;" d="M-48.2695 31.6051 L-47.865 31.899 L-47.4605 31.6051" /><ns0:path style="fill:none; stroke:black;" d="M-63.115 -65.795 L-62.865 -66.228 L-62.365 -66.228" /><ns0:path style="fill:none; stroke:black;" d="M-32.615 -65.795 L-32.865 -66.228 L-33.365 -66.228" /><ns0:path style="fill:none; stroke:black;" d="M56.635 -66.228 L57.135 -66.228 L57.385 -65.795" /><ns0:path style="fill:none; stroke:black;" d="M71.885 -40.681 L72.135 -40.248 L72.635 -40.248" /><ns0:path style="fill:none; stroke:black;" d="M71.885 -91.775 L72.135 -92.208 L72.635 -92.208" /><ns0:path style="fill:none; stroke:black;" d="M101.635 -40.248 L102.135 -40.248 L102.385 -40.681" /><ns0:path style="stroke:none;" d="M93.0265 -47.7051 Q93.0265 -49.0333 93.4952 -50.1583 Q93.964 -51.2833 94.9952 -52.3614 L95.6046 -52.3614 Q94.6359 -51.2989 94.1515 -50.127 Q93.6671 -48.9551 93.6671 -47.7208 Q93.6671 -46.3926 94.1046 -45.377 L93.589 -45.377 Q93.0265 -46.4083 93.0265 -47.7051 ZM98.649 -48.2989 Q98.649 -47.4708 98.1022 -47.0176 Q97.5553 -46.5645 96.5553 -46.5645 Q96.149 -46.5645 95.8365 -46.6192 Q95.524 -46.6739 95.2428 -46.8145 L95.2428 -47.4708 Q95.8678 -47.1426 96.5709 -47.1426 Q97.1959 -47.1426 97.5709 -47.4395 Q97.9459 -47.7364 97.9459 -48.252 Q97.9459 -48.5645 97.7428 -48.7911 Q97.5397 -49.0176 96.9772 -49.3458 Q96.3834 -49.6739 96.1569 -50.002 Q95.9303 -50.3301 95.9303 -50.7833 Q95.9303 -51.5176 96.4459 -51.9786 Q96.9615 -52.4395 97.8053 -52.4395 Q98.1803 -52.4395 98.5162 -52.3614 Q98.8522 -52.2833 99.2272 -52.1114 L98.9615 -51.5176 Q98.7115 -51.6739 98.3912 -51.7598 Q98.0709 -51.8458 97.8053 -51.8458 Q97.274 -51.8458 96.9537 -51.5723 Q96.6334 -51.2989 96.6334 -50.8301 Q96.6334 -50.627 96.7037 -50.4786 Q96.774 -50.3301 96.9147 -50.1973 Q97.0553 -50.0645 97.4772 -49.8145 Q98.0397 -49.4708 98.2428 -49.2754 Q98.4459 -49.0801 98.5475 -48.8458 Q98.649 -48.6114 98.649 -48.2989 ZM101.2435 -50.0176 Q101.2435 -48.6895 100.767 -47.5567 Q100.2904 -46.4239 99.2748 -45.377 L98.6654 -45.377 Q100.6029 -47.5333 100.6029 -50.0176 Q100.6029 -51.3458 100.1654 -52.3614 L100.681 -52.3614 Q101.2435 -51.2989 101.2435 -50.0176 Z" /><ns0:path style="fill:none; stroke:black;" d="M101.635 -92.208 L102.135 -92.208 L102.385 -91.775" /><ns0:path style="fill:none; stroke:black;" d="M116.885 -65.795 L117.135 -66.228 L116.885 -66.661" /></ns0:g><ns0:g transform="translate(210,122)" style="stroke-linecap:butt; text-rendering:geometricPrecision; color-rendering:optimizeQuality; image-rendering:optimizeQuality; font-family:'Open Sans'; color-interpolation:linearRGB; stroke-miterlimit:5;"><ns0:path style="stroke:none;" d="M0.2278 -6.9738 L-0.7722 -6.9738 L-0.7722 -11.005 L-5.2878 -11.005 L-5.2878 -6.9738 L-6.2878 -6.9738 L-6.2878 -15.5363 L-5.2878 -15.5363 L-5.2878 -11.8956 L-0.7722 -11.8956 L-0.7722 -15.5363 L0.2278 -15.5363 L0.2278 -6.9738 Z" /><ns0:path style="stroke:none;" d="M-96.2852 6.2203 L-97.2852 6.2203 L-97.2852 2.189 L-101.8008 2.189 L-101.8008 6.2203 L-102.8008 6.2203 L-102.8008 -2.3422 L-101.8008 -2.3422 L-101.8008 1.2984 L-97.2852 1.2984 L-97.2852 -2.3422 L-96.2852 -2.3422 L-96.2852 6.2203 Z" /></ns0:g></ns0:g></ns0:svg></ns0:svg></ns0:svg></ns0:svg></g></svg>