<svg xmlns:ns0="http://www.w3.org/2000/svg" xmlns="http://www.w3.org/2000/svg"><g transform="translate(0, 0)"><ns0:svg width="416" viewBox="0 0 416 243" style="fill-opacity:1; color-rendering:auto; color-interpolation:auto; text-rendering:auto; stroke:black; stroke-linecap:square; stroke-miterlimit:10; shape-rendering:auto; stroke-opacity:1; fill:black; stroke-dasharray:none; font-weight:normal; stroke-width:1; font-family:'Open Sans'; font-style:normal; stroke-linejoin:miter; font-size:12; stroke-dashoffset:0; image-rendering:auto;" height="243" class="cas-substance-image"><ns0:svg class="cas-substance-single-component"><ns0:rect y="0" x="0" width="416" stroke="none" ry="7" rx="7" height="243" fill="white" class="cas-substance-group" /><ns0:svg y="0" x="0" width="416" viewBox="0 0 416 243" style="fill:black;" height="243" class="cas-substance-single-component-image"><ns0:svg><ns0:g><ns0:g transform="translate(203,124)" style="text-rendering:geometricPrecision; color-rendering:optimizeQuality; color-interpolation:linearRGB; stroke-linecap:butt; image-rendering:optimizeQuality;"><ns0:line y2="36.84" y1="14.547" x2="-129.375" x1="-109.299" style="fill:none;" /><ns0:line y2="-7.9276" y1="14.547" x2="-116.6007" x1="-109.299" style="fill:none;" /><ns0:line y2="58.9944" y1="36.84" x2="-122.175" x1="-129.375" style="fill:none;" /><ns0:line y2="87.666" y1="70.0667" x2="-140.178" x1="-124.3289" style="fill:none;" /><ns0:line y2="116.199" y1="87.666" x2="-130.905" x1="-140.178" style="fill:none;" /><ns0:line y2="-64.236" y1="-38.256" x2="34.062" x1="19.062" style="fill:none;" /><ns0:line y2="-38.256" y1="-38.256" x2="-5.5864" x1="19.062" style="fill:none;" /><ns0:line y2="-64.236" y1="-64.236" x2="64.062" x1="34.062" style="fill:none;" /><ns0:line y2="-90.219" y1="-64.236" x2="169.062" x1="154.062" style="fill:none;" /><ns0:line y2="-64.236" y1="-64.236" x2="184.062" x1="154.062" style="fill:none;" /><ns0:line y2="-38.256" y1="-64.236" x2="169.062" x1="154.062" style="fill:none;" /><ns0:line y2="-64.236" y1="-64.236" x2="124.062" x1="154.062" style="fill:none;" /><ns0:line y2="-90.219" y1="-90.219" x2="193.1245" x1="169.062" style="fill:none;" /><ns0:line y2="-111.4383" y1="-90.219" x2="158.8314" x1="171.0827" style="fill:none;" /><ns0:line y2="-109.6883" y1="-88.4689" x2="155.8003" x1="168.0517" style="fill:none;" /><ns0:line y2="-20.0104" y1="-38.256" x2="-114.1926" x1="-100.938" style="fill:none;" /><ns0:line y2="-56.7516" y1="-38.256" x2="-114.3742" x1="-100.938" style="fill:none;" /><ns0:line y2="-54.6946" y1="-37.8338" x2="-117.2059" x1="-104.9573" style="fill:none;" /><ns0:line y2="-38.256" y1="-38.256" x2="-70.938" x1="-100.938" style="fill:none;" /><ns0:line y2="-23.256" y1="-15.6929" x2="-147.102" x1="-123.8227" style="fill:none;" /><ns0:line y2="-53.256" y1="-60.8191" x2="-147.102" x1="-123.8227" style="fill:none;" /><ns0:line y2="-53.256" y1="-23.256" x2="-147.102" x1="-147.102" style="fill:none;" /><ns0:line y2="-8.256" y1="-23.256" x2="-173.082" x1="-147.102" style="fill:none;" /><ns0:line y2="-12.2975" y1="-25.2767" x2="-173.0821" x1="-150.602" style="fill:none;" /><ns0:line y2="-68.256" y1="-53.256" x2="-173.082" x1="-147.102" style="fill:none;" /><ns0:line y2="-64.2145" y1="-51.2353" x2="-173.0821" x1="-150.602" style="fill:none;" /><ns0:line y2="-23.256" y1="-8.256" x2="-199.062" x1="-173.082" style="fill:none;" /><ns0:line y2="-53.256" y1="-68.256" x2="-199.062" x1="-173.082" style="fill:none;" /><ns0:line y2="-53.256" y1="-23.256" x2="-199.062" x1="-199.062" style="fill:none;" /><ns0:line y2="-51.2353" y1="-25.2767" x2="-195.562" x1="-195.562" style="fill:none;" /><ns0:line y2="-64.236" y1="-38.256" x2="-55.938" x1="-70.938" style="fill:none;" /><ns0:line y2="-12.276" y1="-38.256" x2="-55.938" x1="-70.938" style="fill:none;" /><ns0:line y2="-64.236" y1="-64.236" x2="-25.938" x1="-55.938" style="fill:none;" /><ns0:line y2="-12.276" y1="-12.276" x2="-25.938" x1="-55.938" style="fill:none;" /><ns0:line y2="-44.3943" y1="-64.236" x2="-14.482" x1="-25.938" style="fill:none;" /><ns0:line y2="-32.3677" y1="-12.276" x2="-14.3377" x1="-25.938" style="fill:none;" /><ns0:line y2="-38.256" y1="-64.236" x2="79.062" x1="64.062" style="fill:none;" /><ns0:line y2="-41.756" y1="-64.2361" x2="81.0827" x1="68.1035" style="fill:none;" /><ns0:line y2="-90.219" y1="-64.236" x2="79.062" x1="64.062" style="fill:none;" /><ns0:line y2="-38.256" y1="-38.256" x2="109.062" x1="79.062" style="fill:none;" /><ns0:line y2="-90.219" y1="-90.219" x2="109.062" x1="79.062" style="fill:none;" /><ns0:line y2="-86.719" y1="-86.719" x2="107.0413" x1="81.0827" style="fill:none;" /><ns0:line y2="-64.236" y1="-38.256" x2="124.062" x1="109.062" style="fill:none;" /><ns0:line y2="-64.236" y1="-41.756" x2="120.0205" x1="107.0413" style="fill:none;" /><ns0:line y2="-64.236" y1="-90.219" x2="124.062" x1="109.062" style="fill:none;" /><ns0:path style="fill:none; stroke-miterlimit:5;" d="M-109.6336 14.9185 L-109.299 14.547 L-109.4535 14.0715" /><ns0:path style="fill:none; stroke-miterlimit:5;" d="M-129.0404 36.4685 L-129.375 36.84 L-129.2205 37.3155" /></ns0:g><ns0:g transform="translate(203,124)" style="stroke-linecap:butt; fill:rgb(230,0,0); text-rendering:geometricPrecision; color-rendering:optimizeQuality; image-rendering:optimizeQuality; font-family:'Open Sans'; stroke:rgb(230,0,0); color-interpolation:linearRGB; stroke-miterlimit:5;"><ns0:path style="stroke:none;" d="M-116.1645 65.3027 Q-116.1645 67.3652 -117.2036 68.5449 Q-118.2426 69.7246 -120.0864 69.7246 Q-121.977 69.7246 -123.0082 68.5605 Q-124.0395 67.3964 -124.0395 65.2871 Q-124.0395 63.1933 -123.0082 62.0449 Q-121.977 60.8964 -120.0864 60.8964 Q-118.227 60.8964 -117.1957 62.0683 Q-116.1645 63.2402 -116.1645 65.3027 ZM-122.9926 65.3027 Q-122.9926 67.0371 -122.2504 67.9433 Q-121.5082 68.8496 -120.0864 68.8496 Q-118.6645 68.8496 -117.9379 67.9511 Q-117.2114 67.0527 -117.2114 65.3027 Q-117.2114 63.5683 -117.9379 62.6777 Q-118.6645 61.7871 -120.0864 61.7871 Q-121.5082 61.7871 -122.2504 62.6855 Q-122.9926 63.5839 -122.9926 65.3027 Z" /><ns0:path style="fill:none; stroke:black;" d="M-139.8434 87.2945 L-140.178 87.666 L-140.0235 88.1415" /><ns0:path style="fill:none; stroke:black;" d="M19.312 -38.689 L19.062 -38.256 L18.562 -38.256" /><ns0:path style="fill:none; stroke:black;" d="M33.812 -63.803 L34.062 -64.236 L34.562 -64.236" /><ns0:path style="fill:none; stroke:black;" d="M168.812 -89.786 L169.062 -90.219 L169.562 -90.219" /><ns0:path style="stroke:none;" d="M202.9995 -90.2893 Q202.9995 -88.2268 201.9604 -87.0471 Q200.9214 -85.8674 199.0776 -85.8674 Q197.187 -85.8674 196.1557 -87.0315 Q195.1245 -88.1956 195.1245 -90.3049 Q195.1245 -92.3987 196.1557 -93.5471 Q197.187 -94.6956 199.0776 -94.6956 Q200.937 -94.6956 201.9682 -93.5237 Q202.9995 -92.3518 202.9995 -90.2893 ZM196.1714 -90.2893 Q196.1714 -88.5549 196.9136 -87.6487 Q197.6557 -86.7424 199.0776 -86.7424 Q200.4995 -86.7424 201.2261 -87.6409 Q201.9526 -88.5393 201.9526 -90.2893 Q201.9526 -92.0237 201.2261 -92.9143 Q200.4995 -93.8049 199.0776 -93.8049 Q197.6557 -93.8049 196.9136 -92.9065 Q196.1714 -92.0081 196.1714 -90.2893 Z" /><ns0:path style="stroke:none;" d="M210.5151 -85.9924 L209.5151 -85.9924 L209.5151 -90.0237 L204.9995 -90.0237 L204.9995 -85.9924 L203.9995 -85.9924 L203.9995 -94.5549 L204.9995 -94.5549 L204.9995 -90.9143 L209.5151 -90.9143 L209.5151 -94.5549 L210.5151 -94.5549 L210.5151 -85.9924 Z" /><ns0:path style="stroke:none;" d="M157.9995 -116.2693 Q157.9995 -114.2068 156.9604 -113.0271 Q155.9214 -111.8474 154.0776 -111.8474 Q152.187 -111.8474 151.1557 -113.0115 Q150.1245 -114.1756 150.1245 -116.2849 Q150.1245 -118.3787 151.1557 -119.5271 Q152.187 -120.6756 154.0776 -120.6756 Q155.937 -120.6756 156.9682 -119.5037 Q157.9995 -118.3318 157.9995 -116.2693 ZM151.1714 -116.2693 Q151.1714 -114.5349 151.9136 -113.6287 Q152.6557 -112.7224 154.0776 -112.7224 Q155.4995 -112.7224 156.2261 -113.6209 Q156.9526 -114.5193 156.9526 -116.2693 Q156.9526 -118.0037 156.2261 -118.8943 Q155.4995 -119.7849 154.0776 -119.7849 Q152.6557 -119.7849 151.9136 -118.8865 Q151.1714 -117.9881 151.1714 -116.2693 Z" /><ns0:path style="fill:none; stroke:black;" d="M-101.2319 -38.6605 L-100.938 -38.256 L-101.2319 -37.8515" /><ns0:path style="fill:rgb(0,5,255); stroke:none;" d="M-115.2174 -9.8298 L-116.3581 -9.8298 L-121.0456 -17.0173 L-121.0924 -17.0173 Q-120.9987 -15.7516 -120.9987 -14.7048 L-120.9987 -9.8298 L-121.9206 -9.8298 L-121.9206 -18.3923 L-120.7956 -18.3923 L-116.1237 -11.236 L-116.0768 -11.236 Q-116.0768 -11.3923 -116.1237 -12.2516 Q-116.1706 -13.111 -116.1549 -13.486 L-116.1549 -18.3923 L-115.2174 -18.3923 L-115.2174 -9.8298 Z" /><ns0:path style="fill:rgb(0,5,255); stroke:none;" d="M-115.2174 -58.3697 L-116.3581 -58.3697 L-121.0456 -65.5573 L-121.0924 -65.5573 Q-120.9987 -64.2916 -120.9987 -63.2447 L-120.9987 -58.3697 L-121.9206 -58.3697 L-121.9206 -66.9323 L-120.7956 -66.9323 L-116.1237 -59.776 L-116.0768 -59.776 Q-116.0768 -59.9322 -116.1237 -60.7916 Q-116.1706 -61.651 -116.1549 -62.026 L-116.1549 -66.9323 L-115.2174 -66.9323 L-115.2174 -58.3697 Z" /><ns0:path style="fill:none; stroke:black;" d="M-147.535 -23.006 L-147.102 -23.256 L-146.6265 -23.1015" /><ns0:path style="fill:none; stroke:black;" d="M-147.535 -53.506 L-147.102 -53.256 L-146.6265 -53.4105" /><ns0:path style="fill:none; stroke:black;" d="M-172.649 -8.506 L-173.082 -8.256 L-173.515 -8.506" /><ns0:path style="fill:none; stroke:black;" d="M-172.649 -68.006 L-173.082 -68.256 L-173.515 -68.006" /><ns0:path style="fill:none; stroke:black;" d="M-198.629 -23.006 L-199.062 -23.256 L-199.062 -23.756" /><ns0:path style="fill:none; stroke:black;" d="M-198.629 -53.506 L-199.062 -53.256 L-199.062 -52.756" /><ns0:path style="fill:none; stroke:black;" d="M-56.188 -63.803 L-55.938 -64.236 L-55.438 -64.236" /><ns0:path style="fill:none; stroke:black;" d="M-56.188 -12.709 L-55.938 -12.276 L-55.438 -12.276" /><ns0:path style="fill:none; stroke:black;" d="M-26.438 -64.236 L-25.938 -64.236 L-25.688 -63.803" /><ns0:path style="fill:none; stroke:black;" d="M-26.438 -12.276 L-25.938 -12.276 L-25.688 -12.709" /><ns0:path style="fill:rgb(0,5,255); stroke:none;" d="M-7.5864 -34.0998 L-8.7271 -34.0998 L-13.4146 -41.2873 L-13.4614 -41.2873 Q-13.3677 -40.0216 -13.3677 -38.9748 L-13.3677 -34.0998 L-14.2896 -34.0998 L-14.2896 -42.6623 L-13.1646 -42.6623 L-8.4927 -35.506 L-8.4458 -35.506 Q-8.4458 -35.6623 -8.4927 -36.5216 Q-8.5396 -37.381 -8.5239 -37.756 L-8.5239 -42.6623 L-7.5864 -42.6623 L-7.5864 -34.0998 Z" /><ns0:path style="fill:none; stroke:black;" d="M64.312 -63.803 L64.062 -64.236 L63.562 -64.236" /><ns0:path style="fill:none; stroke:black;" d="M78.812 -38.689 L79.062 -38.256 L79.562 -38.256" /><ns0:path style="fill:none; stroke:black;" d="M78.812 -89.786 L79.062 -90.219 L79.562 -90.219" /><ns0:path style="fill:none; stroke:black;" d="M108.562 -38.256 L109.062 -38.256 L109.312 -38.689" /><ns0:path style="fill:none; stroke:black;" d="M108.562 -90.219 L109.062 -90.219 L109.312 -89.786" /><ns0:path style="fill:none; stroke:black;" d="M123.812 -63.803 L124.062 -64.236 L124.562 -64.236" /></ns0:g></ns0:g></ns0:svg></ns0:svg></ns0:svg></ns0:svg></g></svg>