<svg width="259" viewBox="0 0 259 188" style="fill-opacity:1; color-rendering:auto; color-interpolation:auto; text-rendering:auto; stroke:black; stroke-linecap:square; stroke-miterlimit:10; shape-rendering:auto; stroke-opacity:1; fill:black; stroke-dasharray:none; font-weight:normal; stroke-width:1; font-family:'Open Sans'; font-style:normal; stroke-linejoin:miter; font-size:12; stroke-dashoffset:0; image-rendering:auto;" height="188" class="cas-substance-image" xmlns:xlink="http://www.w3.org/1999/xlink" xmlns="http://www.w3.org/2000/svg"><svg class="cas-substance-single-component"><rect y="0" x="0" width="259" stroke="none" ry="7" rx="7" height="188" fill="white" class="cas-substance-group"/><svg y="0" x="0" width="259" viewBox="0 0 259 188" style="fill:black;" height="188" class="cas-substance-single-component-image"><svg><g><g transform="translate(130,94)" style="text-rendering:geometricPrecision; color-rendering:optimizeQuality; color-interpolation:linearRGB; stroke-linecap:butt; image-rendering:optimizeQuality;"><line y2="8.586" y1="-0.684" x2="103.938" x1="75.405" style="fill:none;"/><line y2="19.389" y1="-0.684" x2="53.112" x1="75.405" style="fill:none;"/><line y2="-11.487" y1="8.586" x2="126.231" x1="103.938" style="fill:none;"/><line y2="39.132" y1="60.2653" x2="-19.2103" x1="-31.412" style="fill:none;"/><line y2="37.382" y1="58.5153" x2="-22.2414" x1="-34.443" style="fill:none;"/><line y2="61.428" y1="90.771" x2="28.842" x1="22.605" style="fill:none;"/><line y2="-12.828" y1="-12.828" x2="-111.231" x1="-87.1685" style="fill:none;"/><line y2="-38.811" y1="-18.5499" x2="-66.231" x1="-77.9277" style="fill:none;"/><line y2="13.152" y1="-12.828" x2="-126.231" x1="-111.231" style="fill:none;"/><line y2="39.132" y1="19.0403" x2="8.769" x1="20.3693" style="fill:none;"/><line y2="19.389" y1="14.2802" x2="53.112" x1="29.0769" style="fill:none;"/><line y2="-6.9397" y1="7.0137" x2="12.1687" x1="20.225" style="fill:none;"/><line y2="39.132" y1="39.132" x2="-21.231" x1="8.769" style="fill:none;"/><line y2="61.428" y1="39.132" x2="28.842" x1="8.769" style="fill:none;"/><line y2="57.5844" y1="38.292" x2="30.0911" x1="12.7222" style="fill:none;"/><line y2="42.8287" y1="19.389" x2="55.575" x1="53.112" style="fill:none;"/><line y2="43.1945" y1="21.7644" x2="52.0942" x1="49.8423" style="fill:none;"/><line y2="-12.828" y1="-12.828" x2="-21.231" x1="3.4174" style="fill:none;"/><line y2="19.0403" y1="39.132" x2="-32.8313" x1="-21.231" style="fill:none;"/><line y2="51.5301" y1="61.428" x2="51.0684" x1="28.842" style="fill:none;"/><line y2="7.0137" y1="-12.828" x2="-32.687" x1="-21.231" style="fill:none;"/><line y2="8.7638" y1="-9.328" x2="-29.6559" x1="-19.2103" style="fill:none;"/><line y2="-38.811" y1="-12.828" x2="-36.231" x1="-21.231" style="fill:none;"/><line y2="-38.811" y1="-38.811" x2="-66.231" x1="-36.231" style="fill:none;"/><line y2="-42.311" y1="-42.311" x2="-64.2103" x1="-38.2517" style="fill:none;"/><line y2="-64.791" y1="-38.811" x2="-21.231" x1="-36.231" style="fill:none;"/><line y2="-64.791" y1="-38.811" x2="-81.231" x1="-66.231" style="fill:none;"/><line y2="-90.771" y1="-64.791" x2="-36.231" x1="-21.231" style="fill:none;"/><line y2="-87.271" y1="-64.7909" x2="-38.2517" x1="-25.2725" style="fill:none;"/><line y2="-90.771" y1="-64.791" x2="-66.231" x1="-81.231" style="fill:none;"/><line y2="-87.271" y1="-64.7909" x2="-64.2103" x1="-77.1896" style="fill:none;"/><line y2="-90.771" y1="-90.771" x2="-66.231" x1="-36.231" style="fill:none;"/><path style="fill:none; stroke-miterlimit:5;" d="M75.8805 -0.5295 L75.405 -0.684 L75.0334 -0.3494"/><path style="fill:none; stroke-miterlimit:5;" d="M103.4625 8.4315 L103.938 8.586 L104.3096 8.2514"/></g><g transform="translate(130,94)" style="stroke-linecap:butt; fill:rgb(230,0,0); text-rendering:geometricPrecision; color-rendering:optimizeQuality; image-rendering:optimizeQuality; font-family:'Open Sans'; stroke:rgb(230,0,0); color-interpolation:linearRGB; stroke-miterlimit:5;"><path style="stroke:none;" d="M-32.2935 65.0417 Q-32.2935 67.1042 -33.3326 68.2839 Q-34.3716 69.4636 -36.2154 69.4636 Q-38.106 69.4636 -39.1372 68.2995 Q-40.1685 67.1354 -40.1685 65.0261 Q-40.1685 62.9323 -39.1372 61.7839 Q-38.106 60.6354 -36.2154 60.6354 Q-34.356 60.6354 -33.3247 61.8073 Q-32.2935 62.9792 -32.2935 65.0417 ZM-39.1216 65.0417 Q-39.1216 66.7761 -38.3794 67.6823 Q-37.6372 68.5886 -36.2154 68.5886 Q-34.7935 68.5886 -34.0669 67.6901 Q-33.3404 66.7917 -33.3404 65.0417 Q-33.3404 63.3073 -34.0669 62.4167 Q-34.7935 61.5261 -36.2154 61.5261 Q-37.6372 61.5261 -38.3794 62.4245 Q-39.1216 63.3229 -39.1216 65.0417 Z"/><path style="stroke:none;" d="M-77.2935 -12.8983 Q-77.2935 -10.8358 -78.3326 -9.6561 Q-79.3716 -8.4764 -81.2154 -8.4764 Q-83.106 -8.4764 -84.1373 -9.6405 Q-85.1685 -10.8046 -85.1685 -12.9139 Q-85.1685 -15.0077 -84.1373 -16.1561 Q-83.106 -17.3046 -81.2154 -17.3046 Q-79.356 -17.3046 -78.3248 -16.1327 Q-77.2935 -14.9608 -77.2935 -12.8983 ZM-84.1216 -12.8983 Q-84.1216 -11.1639 -83.3794 -10.2577 Q-82.6373 -9.3514 -81.2154 -9.3514 Q-79.7935 -9.3514 -79.0669 -10.2499 Q-78.3404 -11.1483 -78.3404 -12.8983 Q-78.3404 -14.6327 -79.0669 -15.5233 Q-79.7935 -16.4139 -81.2154 -16.4139 Q-82.6373 -16.4139 -83.3794 -15.5155 Q-84.1216 -14.6171 -84.1216 -12.8983 Z"/><path style="fill:none; stroke:black;" d="M-110.731 -12.828 L-111.231 -12.828 L-111.481 -12.395"/><path style="fill:rgb(0,5,255); stroke:none;" d="M27.1206 17.3083 L25.9799 17.3083 L21.2924 10.1208 L21.2456 10.1208 Q21.3393 11.3864 21.3393 12.4333 L21.3393 17.3083 L20.4174 17.3083 L20.4174 8.7458 L21.5424 8.7458 L26.2143 15.902 L26.2612 15.902 Q26.2612 15.7458 26.2143 14.8864 Q26.1674 14.027 26.1831 13.652 L26.1831 8.7458 L27.1206 8.7458 L27.1206 17.3083 Z"/><path style="fill:none; stroke:black;" d="M9.1035 39.5036 L8.769 39.132 L9.019 38.699"/><path style="fill:none; stroke:black;" d="M53.1642 19.8863 L53.112 19.389 L52.6229 19.285"/><path style="fill:rgb(0,5,255); stroke:none;" d="M12.1206 -8.6718 L10.9799 -8.6718 L6.2924 -15.8593 L6.2456 -15.8593 Q6.3393 -14.5936 6.3393 -13.5468 L6.3393 -8.6718 L5.4174 -8.6718 L5.4174 -17.2342 L6.5424 -17.2342 L11.2143 -10.078 L11.2612 -10.078 Q11.2612 -10.2343 11.2143 -11.0936 Q11.1674 -11.953 11.1831 -12.328 L11.1831 -17.2342 L12.1206 -17.2342 L12.1206 -8.6718 Z"/><path style="fill:rgb(0,5,255); stroke:none;" d="M12.0268 -18.2342 L11.0268 -18.2342 L11.0268 -22.2655 L6.5112 -22.2655 L6.5112 -18.2342 L5.5112 -18.2342 L5.5112 -26.7967 L6.5112 -26.7967 L6.5112 -23.1561 L11.0268 -23.1561 L11.0268 -26.7967 L12.0268 -26.7967 L12.0268 -18.2342 Z"/><path style="fill:none; stroke:black;" d="M-20.731 39.132 L-21.231 39.132 L-21.481 38.699"/><path style="fill:none; stroke:black;" d="M28.5075 61.0564 L28.842 61.428 L28.738 61.9171"/><path style="fill:rgb(0,5,255); stroke:none;" d="M59.5986 53.3802 L58.4579 53.3802 L53.7704 46.1927 L53.7236 46.1927 Q53.8173 47.4584 53.8173 48.5052 L53.8173 53.3802 L52.8954 53.3802 L52.8954 44.8177 L54.0204 44.8177 L58.6923 51.974 L58.7392 51.974 Q58.7392 51.8177 58.6923 50.9584 Q58.6454 50.099 58.6611 49.724 L58.6611 44.8177 L59.5986 44.8177 L59.5986 53.3802 Z"/><path style="fill:none; stroke:black;" d="M-21.481 -12.395 L-21.231 -12.828 L-20.731 -12.828"/><path style="fill:rgb(0,5,255); stroke:none;" d="M-32.8794 17.3083 L-34.0201 17.3083 L-38.7076 10.1208 L-38.7544 10.1208 Q-38.6607 11.3864 -38.6607 12.4333 L-38.6607 17.3083 L-39.5826 17.3083 L-39.5826 8.7458 L-38.4576 8.7458 L-33.7857 15.902 L-33.7388 15.902 Q-33.7388 15.7458 -33.7857 14.8864 Q-33.8326 14.027 -33.8169 13.652 L-33.8169 8.7458 L-32.8794 8.7458 L-32.8794 17.3083 Z"/><path style="fill:none; stroke:black;" d="M-36.731 -38.811 L-36.231 -38.811 L-35.981 -38.378"/><path style="fill:none; stroke:black;" d="M-65.731 -38.811 L-66.231 -38.811 L-66.481 -38.378"/><path style="fill:none; stroke:black;" d="M-21.481 -64.358 L-21.231 -64.791 L-21.481 -65.224"/><path style="fill:none; stroke:black;" d="M-80.981 -64.358 L-81.231 -64.791 L-80.981 -65.224"/><path style="fill:none; stroke:black;" d="M-35.981 -90.338 L-36.231 -90.771 L-36.731 -90.771"/><path style="fill:none; stroke:black;" d="M-66.481 -90.338 L-66.231 -90.771 L-65.731 -90.771"/></g></g></svg></svg></svg></svg>