<svg width="299" viewBox="0 0 299 162" style="fill-opacity:1; color-rendering:auto; color-interpolation:auto; text-rendering:auto; stroke:black; stroke-linecap:square; stroke-miterlimit:10; shape-rendering:auto; stroke-opacity:1; fill:black; stroke-dasharray:none; font-weight:normal; stroke-width:1; font-family:'Open Sans'; font-style:normal; stroke-linejoin:miter; font-size:12; stroke-dashoffset:0; image-rendering:auto;" height="162" class="cas-substance-image" xmlns:xlink="http://www.w3.org/1999/xlink" xmlns="http://www.w3.org/2000/svg"><svg class="cas-substance-single-component"><rect y="0" x="0" width="299" stroke="none" ry="7" rx="7" height="162" fill="white" class="cas-substance-group"/><svg y="0" x="0" width="299" viewBox="0 0 299 162" style="fill:black;" height="162" class="cas-substance-single-component-image"><svg><g><g transform="translate(149,81)" style="text-rendering:geometricPrecision; color-rendering:optimizeQuality; color-interpolation:linearRGB; stroke-linecap:butt; image-rendering:optimizeQuality;"><line y2="25.98" y1="55.524" x2="-45" x1="-39.792" style="fill:none;"/><line y2="25.98" y1="36.24" x2="-45" x1="-73.191" style="fill:none;"/><line y2="-25.98" y1="-55.524" x2="45" x1="39.792" style="fill:none;"/><line y2="-25.98" y1="-36.24" x2="45" x1="73.191" style="fill:none;"/><line y2="51.963" y1="77.943" x2="90" x1="105" style="fill:none;"/><line y2="-51.963" y1="-77.943" x2="-90" x1="-105" style="fill:none;"/><line y2="25.98" y1="25.98" x2="105" x1="129.0625" style="fill:none;"/><line y2="-25.98" y1="-25.98" x2="-105" x1="-129.0625" style="fill:none;"/><line y2="20.2524" y1="0" x2="11.6931" x1="0" style="fill:none;"/><line y2="-20.3443" y1="0" x2="-11.7461" x1="0" style="fill:none;"/><line y2="25.98" y1="0" x2="-15" x1="0" style="fill:none;"/><line y2="-25.98" y1="0" x2="15" x1="0" style="fill:none;"/><line y2="25.98" y1="25.98" x2="45" x1="20.9375" style="fill:none;"/><line y2="-25.98" y1="-25.98" x2="-45" x1="-20.9375" style="fill:none;"/><line y2="25.98" y1="25.98" x2="-45" x1="-15" style="fill:none;"/><line y2="-25.98" y1="-25.98" x2="45" x1="15" style="fill:none;"/><line y2="0" y1="25.98" x2="60" x1="45" style="fill:none;"/><line y2="51.963" y1="25.98" x2="60" x1="45" style="fill:none;"/><line y2="48.4631" y1="25.9802" x2="62.0209" x1="49.0415" style="fill:none;"/><line y2="0" y1="-25.98" x2="-60" x1="-45" style="fill:none;"/><line y2="-51.963" y1="-25.98" x2="-60" x1="-45" style="fill:none;"/><line y2="-48.4631" y1="-25.9802" x2="-62.0209" x1="-49.0415" style="fill:none;"/><line y2="0" y1="25.98" x2="-60" x1="-45" style="fill:none;"/><line y2="0" y1="-25.98" x2="60" x1="45" style="fill:none;"/><line y2="0" y1="0" x2="90" x1="60" style="fill:none;"/><line y2="3.5" y1="3.5" x2="87.9793" x1="62.0207" style="fill:none;"/><line y2="51.963" y1="51.963" x2="90" x1="60" style="fill:none;"/><line y2="0" y1="0" x2="-90" x1="-60" style="fill:none;"/><line y2="-3.5" y1="-3.5" x2="-87.9793" x1="-62.0207" style="fill:none;"/><line y2="-51.963" y1="-51.963" x2="-90" x1="-60" style="fill:none;"/><line y2="25.98" y1="0" x2="105" x1="90" style="fill:none;"/><line y2="25.98" y1="51.963" x2="105" x1="90" style="fill:none;"/><line y2="25.9802" y1="48.4631" x2="100.9585" x1="87.9791" style="fill:none;"/><line y2="-25.98" y1="0" x2="-105" x1="-90" style="fill:none;"/><line y2="-25.98" y1="-51.963" x2="-105" x1="-90" style="fill:none;"/><line y2="-25.9802" y1="-48.4631" x2="-100.9585" x1="-87.9791" style="fill:none;"/></g><g transform="translate(149,81)" style="fill:rgb(230,0,0); text-rendering:geometricPrecision; color-rendering:optimizeQuality; image-rendering:optimizeQuality; font-family:'Open Sans'; stroke:rgb(230,0,0); color-interpolation:linearRGB;"><path style="stroke:none;" d="M138.9375 25.9097 Q138.9375 27.9722 137.8984 29.1519 Q136.8594 30.3316 135.0156 30.3316 Q133.125 30.3316 132.0938 29.1675 Q131.0625 28.0034 131.0625 25.8941 Q131.0625 23.8003 132.0938 22.6519 Q133.125 21.5034 135.0156 21.5034 Q136.875 21.5034 137.9062 22.6753 Q138.9375 23.8472 138.9375 25.9097 ZM132.1094 25.9097 Q132.1094 27.6441 132.8516 28.5503 Q133.5938 29.4566 135.0156 29.4566 Q136.4375 29.4566 137.1641 28.5581 Q137.8906 27.6597 137.8906 25.9097 Q137.8906 24.1753 137.1641 23.2847 Q136.4375 22.3941 135.0156 22.3941 Q133.5938 22.3941 132.8516 23.2925 Q132.1094 24.1909 132.1094 25.9097 Z"/><path style="stroke:none;" d="M146.4531 30.2066 L145.4531 30.2066 L145.4531 26.1753 L140.9375 26.1753 L140.9375 30.2066 L139.9375 30.2066 L139.9375 21.6441 L140.9375 21.6441 L140.9375 25.2847 L145.4531 25.2847 L145.4531 21.6441 L146.4531 21.6441 L146.4531 30.2066 Z"/><path style="stroke:none;" d="M-131.0625 -26.0503 Q-131.0625 -23.9878 -132.1016 -22.8081 Q-133.1406 -21.6284 -134.9844 -21.6284 Q-136.875 -21.6284 -137.9062 -22.7925 Q-138.9375 -23.9566 -138.9375 -26.0659 Q-138.9375 -28.1597 -137.9062 -29.3081 Q-136.875 -30.4566 -134.9844 -30.4566 Q-133.125 -30.4566 -132.0938 -29.2847 Q-131.0625 -28.1128 -131.0625 -26.0503 ZM-137.8906 -26.0503 Q-137.8906 -24.3159 -137.1484 -23.4097 Q-136.4062 -22.5034 -134.9844 -22.5034 Q-133.5625 -22.5034 -132.8359 -23.4019 Q-132.1094 -24.3003 -132.1094 -26.0503 Q-132.1094 -27.7847 -132.8359 -28.6753 Q-133.5625 -29.5659 -134.9844 -29.5659 Q-136.4062 -29.5659 -137.1484 -28.6675 Q-137.8906 -27.7691 -137.8906 -26.0503 Z"/><path style="stroke:none;" d="M-139.9375 -21.7534 L-140.9375 -21.7534 L-140.9375 -25.7847 L-145.4531 -25.7847 L-145.4531 -21.7534 L-146.4531 -21.7534 L-146.4531 -30.3159 L-145.4531 -30.3159 L-145.4531 -26.6753 L-140.9375 -26.6753 L-140.9375 -30.3159 L-139.9375 -30.3159 L-139.9375 -21.7534 Z"/><path style="stroke:none;" d="M18.9375 25.9097 Q18.9375 27.9722 17.8984 29.1519 Q16.8594 30.3316 15.0156 30.3316 Q13.125 30.3316 12.0938 29.1675 Q11.0625 28.0034 11.0625 25.8941 Q11.0625 23.8003 12.0938 22.6519 Q13.125 21.5034 15.0156 21.5034 Q16.875 21.5034 17.9062 22.6753 Q18.9375 23.8472 18.9375 25.9097 ZM12.1094 25.9097 Q12.1094 27.6441 12.8516 28.5503 Q13.5938 29.4566 15.0156 29.4566 Q16.4375 29.4566 17.1641 28.5581 Q17.8906 27.6597 17.8906 25.9097 Q17.8906 24.1753 17.1641 23.2847 Q16.4375 22.3941 15.0156 22.3941 Q13.5938 22.3941 12.8516 23.2925 Q12.1094 24.1909 12.1094 25.9097 Z"/><path style="stroke:none;" d="M-11.0625 -26.0503 Q-11.0625 -23.9878 -12.1016 -22.8081 Q-13.1406 -21.6284 -14.9844 -21.6284 Q-16.875 -21.6284 -17.9062 -22.7925 Q-18.9375 -23.9566 -18.9375 -26.0659 Q-18.9375 -28.1597 -17.9062 -29.3081 Q-16.875 -30.4566 -14.9844 -30.4566 Q-13.125 -30.4566 -12.0938 -29.2847 Q-11.0625 -28.1128 -11.0625 -26.0503 ZM-17.8906 -26.0503 Q-17.8906 -24.3159 -17.1484 -23.4097 Q-16.4062 -22.5034 -14.9844 -22.5034 Q-13.5625 -22.5034 -12.8359 -23.4019 Q-12.1094 -24.3003 -12.1094 -26.0503 Q-12.1094 -27.7847 -12.8359 -28.6753 Q-13.5625 -29.5659 -14.9844 -29.5659 Q-16.4062 -29.5659 -17.1484 -28.6675 Q-17.8906 -27.7691 -17.8906 -26.0503 Z"/></g><g transform="translate(149,81)" style="stroke-linecap:butt; text-rendering:geometricPrecision; color-rendering:optimizeQuality; image-rendering:optimizeQuality; font-family:'Open Sans'; color-interpolation:linearRGB; stroke-miterlimit:5;"><path style="fill:none;" d="M-14.75 25.547 L-15 25.98 L-15.5 25.98"/><path style="fill:none;" d="M14.75 -25.547 L15 -25.98 L15.5 -25.98"/><path style="fill:none;" d="M45.25 26.413 L45 25.98 L44.5 25.98"/><path style="fill:none;" d="M-45.25 -26.413 L-45 -25.98 L-44.5 -25.98"/><path style="fill:none;" d="M60.5 0 L60 0 L59.75 0.433"/><path style="fill:none;" d="M59.75 51.53 L60 51.963 L60.5 51.963"/><path style="fill:none;" d="M-60.5 -0 L-60 0 L-59.75 -0.433"/><path style="fill:none;" d="M-59.75 -51.53 L-60 -51.963 L-60.5 -51.963"/><path style="fill:none;" d="M89.5 -0 L90 0 L90.25 0.433"/><path style="fill:none;" d="M90.25 51.53 L90 51.963 L90.25 52.396"/><path style="fill:none;" d="M-89.5 0 L-90 0 L-90.25 -0.433"/><path style="fill:none;" d="M-90.25 -51.53 L-90 -51.963 L-90.25 -52.396"/><path style="fill:none;" d="M104.75 26.413 L105 25.98 L105.5 25.98"/><path style="fill:none;" d="M-104.75 -26.413 L-105 -25.98 L-105.5 -25.98"/></g></g></svg></svg></svg></svg>