<svg width="157" viewBox="0 0 157 124" style="fill-opacity:1; color-rendering:auto; color-interpolation:auto; text-rendering:auto; stroke:black; stroke-linecap:square; stroke-miterlimit:10; shape-rendering:auto; stroke-opacity:1; fill:black; stroke-dasharray:none; font-weight:normal; stroke-width:1; font-family:'Open Sans'; font-style:normal; stroke-linejoin:miter; font-size:12; stroke-dashoffset:0; image-rendering:auto;" height="124" class="cas-substance-image" xmlns:xlink="http://www.w3.org/1999/xlink" xmlns="http://www.w3.org/2000/svg"><svg class="cas-substance-single-component"><rect y="0" x="0" width="157" stroke="none" ry="7" rx="7" height="124" fill="white" class="cas-substance-group"/><svg y="0" x="0" width="157" viewBox="0 0 157 124" style="fill:black;" height="124" class="cas-substance-single-component-image"><svg><g><g transform="translate(76,64)" style="text-rendering:geometricPrecision; color-rendering:optimizeQuality; color-interpolation:linearRGB; stroke-linecap:butt; image-rendering:optimizeQuality;"><line y2="36.492" y1="30.255" x2="-72.543" x1="-43.2" style="fill:none;"/><line y2="48.9549" y1="30.6751" x2="-28.7172" x1="-45.1766" style="fill:none;"/><line y2="46.6129" y1="28.3331" x2="-26.1162" x1="-42.5756" style="fill:none;"/><line y2="1.722" y1="30.255" x2="-33.93" x1="-43.2" style="fill:none;"/><line y2="-7.548" y1="3.1789" x2="46.563" x1="65.142" style="fill:none;"/><line y2="-37.548" y1="-7.548" x2="-5.397" x1="-5.397" style="fill:none;"/><line y2="1.722" y1="-7.548" x2="-33.93" x1="-5.397" style="fill:none;"/><line y2="7.452" y1="-7.548" x2="20.583" x1="-5.397" style="fill:none;"/><line y2="3.4105" y1="-9.5687" x2="20.5831" x1="-1.897" style="fill:none;"/><line y2="-45.1111" y1="-37.548" x2="-28.6763" x1="-5.397" style="fill:none;"/><line y2="-52.548" y1="-37.548" x2="20.583" x1="-5.397" style="fill:none;"/><line y2="-48.5065" y1="-35.5273" x2="20.5831" x1="-1.897" style="fill:none;"/><line y2="-16.7737" y1="1.722" x2="-47.3686" x1="-33.93" style="fill:none;"/><line y2="-18.8311" y1="-1.9701" x2="-44.537" x1="-32.2863" style="fill:none;"/><line y2="-7.548" y1="7.452" x2="46.563" x1="20.583" style="fill:none;"/><line y2="-28.5723" y1="-41.0437" x2="-47.1869" x1="-38.1254" style="fill:none;"/><line y2="-37.548" y1="-52.548" x2="46.563" x1="20.583" style="fill:none;"/><line y2="-37.548" y1="-7.548" x2="46.563" x1="46.563" style="fill:none;"/><line y2="-35.5273" y1="-9.5687" x2="43.063" x1="43.063" style="fill:none;"/><path style="fill:none; stroke-miterlimit:5;" d="M-43.6891 30.359 L-43.2 30.255 L-43.0455 29.7795"/></g><g transform="translate(76,64)" style="stroke-linecap:butt; fill:rgb(230,0,0); text-rendering:geometricPrecision; color-rendering:optimizeQuality; image-rendering:optimizeQuality; font-family:'Open Sans'; stroke:rgb(230,0,0); color-interpolation:linearRGB; stroke-miterlimit:5;"><path style="stroke:none;" d="M-19.1895 52.4777 Q-19.1895 54.5402 -20.2286 55.7199 Q-21.2676 56.8996 -23.1114 56.8996 Q-25.002 56.8996 -26.0333 55.7355 Q-27.0645 54.5714 -27.0645 52.4621 Q-27.0645 50.3683 -26.0333 49.2199 Q-25.002 48.0714 -23.1114 48.0714 Q-21.252 48.0714 -20.2208 49.2433 Q-19.1895 50.4152 -19.1895 52.4777 ZM-26.0176 52.4777 Q-26.0176 54.2121 -25.2754 55.1183 Q-24.5333 56.0246 -23.1114 56.0246 Q-21.6895 56.0246 -20.9629 55.1261 Q-20.2364 54.2277 -20.2364 52.4777 Q-20.2364 50.7433 -20.9629 49.8527 Q-21.6895 48.9621 -23.1114 48.9621 Q-24.5333 48.9621 -25.2754 49.8605 Q-26.0176 50.7589 -26.0176 52.4777 Z"/><path style="fill:rgb(0,138,0); stroke:none;" d="M66.8741 3.0457 L69.2959 3.0457 Q70.9991 3.0457 71.7647 3.5536 Q72.5303 4.0614 72.5303 5.1551 Q72.5303 5.9207 72.1084 6.4207 Q71.6866 6.9207 70.8584 7.0614 L70.8584 7.1239 Q72.8116 7.452 72.8116 9.1707 Q72.8116 10.3114 72.0381 10.9598 Q71.2647 11.6082 69.8741 11.6082 L66.8741 11.6082 L66.8741 3.0457 ZM67.8741 6.702 L69.5147 6.702 Q70.5772 6.702 71.0381 6.3739 Q71.4991 6.0457 71.4991 5.2645 Q71.4991 4.5457 70.9834 4.2254 Q70.4678 3.9051 69.3428 3.9051 L67.8741 3.9051 L67.8741 6.702 ZM67.8741 7.5457 L67.8741 10.7645 L69.6709 10.7645 Q70.7022 10.7645 71.2256 10.3582 Q71.7491 9.952 71.7491 9.0926 Q71.7491 8.2957 71.21 7.9207 Q70.6709 7.5457 69.5772 7.5457 L67.8741 7.5457 ZM77.4463 5.0614 Q77.8682 5.0614 78.212 5.1395 L78.0713 6.0457 Q77.6807 5.952 77.3682 5.952 Q76.587 5.952 76.0323 6.5848 Q75.4776 7.2176 75.4776 8.1551 L75.4776 11.6082 L74.5088 11.6082 L74.5088 5.1864 L75.3057 5.1864 L75.4307 6.3739 L75.4776 6.3739 Q75.8213 5.7489 76.3291 5.4051 Q76.837 5.0614 77.4463 5.0614 Z"/><path style="fill:none; stroke:black;" d="M-4.964 -7.298 L-5.397 -7.548 L-5.397 -8.048"/><path style="fill:none; stroke:black;" d="M-4.964 -37.798 L-5.397 -37.548 L-5.8725 -37.7025"/><path style="fill:none; stroke:black;" d="M-34.2239 1.3175 L-33.93 1.722 L-34.0845 2.1975"/><path style="fill:none; stroke:black;" d="M20.15 7.202 L20.583 7.452 L21.016 7.202"/><path style="fill:rgb(0,5,255); stroke:none;" d="M-30.5784 -42.6618 L-31.7191 -42.6618 L-36.4066 -49.8493 L-36.4534 -49.8493 Q-36.3597 -48.5836 -36.3597 -47.5368 L-36.3597 -42.6618 L-37.2816 -42.6618 L-37.2816 -51.2243 L-36.1566 -51.2243 L-31.4847 -44.068 L-31.4378 -44.068 Q-31.4378 -44.2243 -31.4847 -45.0836 Q-31.5316 -45.943 -31.5159 -46.318 L-31.5159 -51.2243 L-30.5784 -51.2243 L-30.5784 -42.6618 Z"/><path style="fill:rgb(0,5,255); stroke:none;" d="M-30.6722 -52.2243 L-31.6722 -52.2243 L-31.6722 -56.2555 L-36.1878 -56.2555 L-36.1878 -52.2243 L-37.1878 -52.2243 L-37.1878 -60.7868 L-36.1878 -60.7868 L-36.1878 -57.1461 L-31.6722 -57.1461 L-31.6722 -60.7868 L-30.6722 -60.7868 L-30.6722 -52.2243 Z"/><path style="fill:none; stroke:black;" d="M20.15 -52.298 L20.583 -52.548 L21.016 -52.298"/><path style="fill:rgb(0,5,255); stroke:none;" d="M-48.2124 -18.3918 L-49.3531 -18.3918 L-54.0406 -25.5793 L-54.0874 -25.5793 Q-53.9937 -24.3136 -53.9937 -23.2668 L-53.9937 -18.3918 L-54.9156 -18.3918 L-54.9156 -26.9543 L-53.7906 -26.9543 L-49.1187 -19.798 L-49.0718 -19.798 Q-49.0718 -19.9543 -49.1187 -20.8136 Q-49.1656 -21.673 -49.1499 -22.048 L-49.1499 -26.9543 L-48.2124 -26.9543 L-48.2124 -18.3918 Z"/><path style="fill:none; stroke:black;" d="M46.563 -8.048 L46.563 -7.548 L46.13 -7.298"/><path style="fill:none; stroke:black;" d="M46.13 -37.798 L46.563 -37.548 L46.563 -37.048"/></g></g></svg></svg></svg></svg>