<svg xmlns:ns0="http://www.w3.org/2000/svg" xmlns="http://www.w3.org/2000/svg"><g transform="translate(0, 0)"><ns0:svg width="344" viewBox="0 0 344 105" style="fill-opacity:1; color-rendering:auto; color-interpolation:auto; text-rendering:auto; stroke:black; stroke-linecap:square; stroke-miterlimit:10; shape-rendering:auto; stroke-opacity:1; fill:black; stroke-dasharray:none; font-weight:normal; stroke-width:1; font-family:'Open Sans'; font-style:normal; stroke-linejoin:miter; font-size:12; stroke-dashoffset:0; image-rendering:auto;" height="105" class="cas-substance-image"><ns0:svg class="cas-substance-single-component"><ns0:rect y="0" x="0" width="344" stroke="none" ry="7" rx="7" height="105" fill="white" class="cas-substance-group" /><ns0:svg y="0" x="0" width="344" viewBox="0 0 344 105" style="fill:black;" height="105" class="cas-substance-single-component-image"><ns0:svg><ns0:g><ns0:g transform="translate(174,53)" style="text-rendering:geometricPrecision; color-rendering:optimizeQuality; color-interpolation:linearRGB; stroke-linecap:butt; image-rendering:optimizeQuality;"><ns0:line y2="2.9351" y1="15" x2="-41.8156" x1="-62.712" style="fill:none;" /><ns0:line y2="0" y1="15" x2="-88.692" x1="-62.712" style="fill:none;" /><ns0:line y2="15" y1="2.9348" x2="-10.749" x1="-31.6484" style="fill:none;" /><ns0:line y2="2.5417" y1="15" x2="10.8288" x1="-10.749" style="fill:none;" /><ns0:line y2="38.5938" y1="13.9897" x2="-12.499" x1="-12.499" style="fill:none;" /><ns0:line y2="38.5938" y1="13.9896" x2="-8.999" x1="-8.999" style="fill:none;" /><ns0:line y2="15" y1="2.5562" x2="41.211" x1="19.6584" style="fill:none;" /><ns0:line y2="0" y1="15" x2="67.194" x1="41.211" style="fill:none;" /><ns0:line y2="15" y1="0" x2="93.174" x1="67.194" style="fill:none;" /><ns0:line y2="0" y1="15" x2="119.154" x1="93.174" style="fill:none;" /><ns0:line y2="-30" y1="-41.4492" x2="-140.655" x1="-160.485" style="fill:none;" /><ns0:line y2="-30" y1="0" x2="-88.692" x1="-88.692" style="fill:none;" /><ns0:line y2="-27.9793" y1="-2.0207" x2="-92.192" x1="-92.192" style="fill:none;" /><ns0:line y2="15" y1="0" x2="-114.672" x1="-88.692" style="fill:none;" /><ns0:line y2="-45" y1="-30" x2="-114.672" x1="-88.692" style="fill:none;" /><ns0:line y2="0" y1="15" x2="-140.655" x1="-114.672" style="fill:none;" /><ns0:line y2="-2.0209" y1="10.9585" x2="-137.1551" x1="-114.6722" style="fill:none;" /><ns0:line y2="-30" y1="-45" x2="-140.655" x1="-114.672" style="fill:none;" /><ns0:line y2="-27.9791" y1="-40.9585" x2="-137.1551" x1="-114.6722" style="fill:none;" /><ns0:line y2="-30" y1="0" x2="-140.655" x1="-140.655" style="fill:none;" /><ns0:line y2="-29.835" y1="0" x2="122.289" x1="119.154" style="fill:none;" /><ns0:line y2="-27.4596" y1="-1.6439" x2="125.5587" x1="122.846" style="fill:none;" /><ns0:line y2="9.8954" y1="0" x2="141.3803" x1="119.154" style="fill:none;" /><ns0:line y2="-34.9439" y1="-29.835" x2="146.3271" x1="122.289" style="fill:none;" /><ns0:line y2="-10.092" y1="6.9931" x2="166.635" x1="151.2489" style="fill:none;" /><ns0:line y2="-10.092" y1="-30.1837" x2="166.635" x1="155.0347" style="fill:none;" /><ns0:line y2="-10.0919" y1="-28.4337" x2="162.5936" x1="152.0036" style="fill:none;" /><ns0:path style="fill:none; stroke-miterlimit:5;" d="M-62.279 14.75 L-62.712 15 L-63.145 14.75" /></ns0:g><ns0:g transform="translate(174,53)" style="stroke-linecap:butt; fill:rgb(0,5,255); text-rendering:geometricPrecision; color-rendering:optimizeQuality; image-rendering:optimizeQuality; font-family:'Open Sans'; stroke:rgb(0,5,255); color-interpolation:linearRGB; stroke-miterlimit:5;"><ns0:path style="stroke:none;" d="M-33.3804 4.1562 L-34.5211 4.1562 L-39.2086 -3.0312 L-39.2554 -3.0312 Q-39.1617 -1.7656 -39.1617 -0.7188 L-39.1617 4.1562 L-40.0836 4.1562 L-40.0836 -4.4062 L-38.9586 -4.4062 L-34.2867 2.75 L-34.2398 2.75 Q-34.2398 2.5938 -34.2867 1.7344 Q-34.3336 0.875 -34.3179 0.5 L-34.3179 -4.4062 L-33.3804 -4.4062 L-33.3804 4.1562 Z" /><ns0:path style="stroke:none;" d="M-33.4742 -5.4062 L-34.4742 -5.4062 L-34.4742 -9.4375 L-38.9898 -9.4375 L-38.9898 -5.4062 L-39.9898 -5.4062 L-39.9898 -13.9688 L-38.9898 -13.9688 L-38.9898 -10.3281 L-34.4742 -10.3281 L-34.4742 -13.9688 L-33.4742 -13.9688 L-33.4742 -5.4062 Z" /><ns0:path style="fill:none; stroke:black;" d="M-11.182 14.75 L-10.749 15 L-10.316 14.75" /><ns0:path style="fill:rgb(148,108,0); stroke:none;" d="M17.9263 1.9375 Q17.9263 3.0625 17.106 3.7031 Q16.2857 4.3438 14.8794 4.3438 Q13.3482 4.3438 12.5357 3.9375 L12.5357 2.9844 Q13.0669 3.2031 13.6841 3.3359 Q14.3013 3.4688 14.9107 3.4688 Q15.9107 3.4688 16.4107 3.0859 Q16.9107 2.7031 16.9107 2.0312 Q16.9107 1.5938 16.731 1.3047 Q16.5513 1.0156 16.1373 0.7734 Q15.7232 0.5312 14.8638 0.2344 Q13.6763 -0.1875 13.1607 -0.7734 Q12.6451 -1.3594 12.6451 -2.3125 Q12.6451 -3.2969 13.3873 -3.8828 Q14.1294 -4.4688 15.3638 -4.4688 Q16.6294 -4.4688 17.7076 -4 L17.3951 -3.1406 Q16.3326 -3.5781 15.3326 -3.5781 Q14.5357 -3.5781 14.0904 -3.2422 Q13.6451 -2.9062 13.6451 -2.2969 Q13.6451 -1.8594 13.8091 -1.5703 Q13.9732 -1.2812 14.3638 -1.0469 Q14.7544 -0.8125 15.5669 -0.5156 Q16.9107 -0.0469 17.4185 0.5078 Q17.9263 1.0625 17.9263 1.9375 Z" /><ns0:path style="stroke:none;" d="M-7.3974 49.1562 L-8.5381 49.1562 L-13.2256 41.9688 L-13.2724 41.9688 Q-13.1787 43.2344 -13.1787 44.2812 L-13.1787 49.1562 L-14.1006 49.1562 L-14.1006 40.5938 L-12.9756 40.5938 L-8.3037 47.75 L-8.2568 47.75 Q-8.2568 47.5938 -8.3037 46.7344 Q-8.3506 45.875 -8.3349 45.5 L-8.3349 40.5938 L-7.3974 40.5938 L-7.3974 49.1562 Z" /><ns0:path style="stroke:none;" d="M0.1182 49.1562 L-0.8818 49.1562 L-0.8818 45.125 L-5.3974 45.125 L-5.3974 49.1562 L-6.3974 49.1562 L-6.3974 40.5938 L-5.3974 40.5938 L-5.3974 44.2344 L-0.8818 44.2344 L-0.8818 40.5938 L0.1182 40.5938 L0.1182 49.1562 Z" /><ns0:path style="fill:none; stroke:black;" d="M40.778 14.75 L41.211 15 L41.644 14.75" /><ns0:path style="fill:none; stroke:black;" d="M66.761 0.25 L67.194 0 L67.627 0.25" /><ns0:path style="fill:none; stroke:black;" d="M92.741 14.75 L93.174 15 L93.607 14.75" /><ns0:path style="fill:rgb(0,138,0); stroke:none;" d="M-166.9436 -48.3594 Q-168.3499 -48.3594 -169.1702 -47.4219 Q-169.9905 -46.4844 -169.9905 -44.8438 Q-169.9905 -43.1719 -169.2014 -42.25 Q-168.4124 -41.3281 -166.9592 -41.3281 Q-166.053 -41.3281 -164.9124 -41.6562 L-164.9124 -40.7812 Q-165.803 -40.4375 -167.0999 -40.4375 Q-168.9905 -40.4375 -170.0217 -41.5938 Q-171.053 -42.75 -171.053 -44.8594 Q-171.053 -46.1875 -170.5608 -47.1797 Q-170.0686 -48.1719 -169.1311 -48.7109 Q-168.1936 -49.25 -166.928 -49.25 Q-165.5842 -49.25 -164.5686 -48.7656 L-164.9905 -47.9062 Q-165.9749 -48.3594 -166.9436 -48.3594 ZM-162.217 -40.5625 L-163.1858 -40.5625 L-163.1858 -49.6875 L-162.217 -49.6875 L-162.217 -40.5625 Z" /><ns0:path style="fill:none; stroke:black;" d="M-88.692 -0.5 L-88.692 0 L-88.259 0.25" /><ns0:path style="fill:none; stroke:black;" d="M-88.692 -29.5 L-88.692 -30 L-89.125 -30.25" /><ns0:path style="fill:none; stroke:black;" d="M-114.239 14.75 L-114.672 15 L-115.105 14.75" /><ns0:path style="fill:none; stroke:black;" d="M-114.239 -44.75 L-114.672 -45 L-115.105 -44.75" /><ns0:path style="fill:none; stroke:black;" d="M-140.222 0.25 L-140.655 0 L-140.655 -0.5" /><ns0:path style="fill:none; stroke:black;" d="M-140.222 -30.25 L-140.655 -30 L-141.088 -30.25" /><ns0:path style="fill:none; stroke:black;" d="M119.2063 -0.4973 L119.154 0 L118.721 0.25" /><ns0:path style="fill:none; stroke:black;" d="M122.2367 -29.3377 L122.289 -29.835 L122.7781 -29.9389" /><ns0:path style="stroke:none;" d="M149.9106 16.3573 L148.7699 16.3573 L144.0824 9.1698 L144.0356 9.1698 Q144.1293 10.4354 144.1293 11.4823 L144.1293 16.3573 L143.2074 16.3573 L143.2074 7.7948 L144.3324 7.7948 L149.0043 14.951 L149.0512 14.951 Q149.0512 14.7948 149.0043 13.9354 Q148.9574 13.076 148.9731 12.701 L148.9731 7.7948 L149.9106 7.7948 L149.9106 16.3573 Z" /><ns0:path style="stroke:none;" d="M149.8168 25.9198 L148.8168 25.9198 L148.8168 21.8885 L144.3012 21.8885 L144.3012 25.9198 L143.3012 25.9198 L143.3012 17.3573 L144.3012 17.3573 L144.3012 20.9979 L148.8168 20.9979 L148.8168 17.3573 L149.8168 17.3573 L149.8168 25.9198 Z" /><ns0:path style="stroke:none;" d="M154.9866 -31.9157 L153.8459 -31.9157 L149.1584 -39.1032 L149.1116 -39.1032 Q149.2053 -37.8376 149.2053 -36.7907 L149.2053 -31.9157 L148.2834 -31.9157 L148.2834 -40.4782 L149.4084 -40.4782 L154.0803 -33.322 L154.1272 -33.322 Q154.1272 -33.4782 154.0803 -34.3376 Q154.0334 -35.197 154.0491 -35.572 L154.0491 -40.4782 L154.9866 -40.4782 L154.9866 -31.9157 Z" /><ns0:path style="fill:none; stroke:black;" d="M166.3004 -9.7205 L166.635 -10.092 L166.385 -10.525" /></ns0:g></ns0:g></ns0:svg></ns0:svg></ns0:svg></ns0:svg></g></svg>