<svg xmlns:ns0="http://www.w3.org/2000/svg" xmlns="http://www.w3.org/2000/svg"><g transform="translate(0, 0)"><ns0:svg width="247" viewBox="0 0 247 116" style="fill-opacity:1; color-rendering:auto; color-interpolation:auto; text-rendering:auto; stroke:black; stroke-linecap:square; stroke-miterlimit:10; shape-rendering:auto; stroke-opacity:1; fill:black; stroke-dasharray:none; font-weight:normal; stroke-width:1; font-family:'Open Sans'; font-style:normal; stroke-linejoin:miter; font-size:12; stroke-dashoffset:0; image-rendering:auto;" height="116" class="cas-substance-image"><ns0:svg class="cas-substance-single-component"><ns0:rect y="0" x="0" width="247" stroke="none" ry="7" rx="7" height="116" fill="white" class="cas-substance-group" /><ns0:svg y="0" x="0" width="247" viewBox="0 0 247 116" style="fill:black;" height="116" class="cas-substance-single-component-image"><ns0:svg><ns0:g><ns0:g transform="translate(124,55)" style="text-rendering:geometricPrecision; color-rendering:optimizeQuality; color-interpolation:linearRGB; stroke-linecap:butt; image-rendering:optimizeQuality;"><ns0:line y2="-20.0917" y1="0" x2="-26.6003" x1="-15" style="fill:none;" /><ns0:line y2="19.3833" y1="-1.75" x2="-28.212" x1="-16.0104" style="fill:none;" /><ns0:line y2="21.1333" y1="0" x2="-25.181" x1="-12.9793" style="fill:none;" /><ns0:line y2="0" y1="0" x2="15" x1="-15" style="fill:none;" /><ns0:line y2="-25.98" y1="-25.98" x2="-60" x1="-35.3516" style="fill:none;" /><ns0:line y2="25.98" y1="45.8247" x2="60" x1="71.4563" style="fill:none;" /><ns0:line y2="-25.98" y1="-5.7217" x2="120" x1="108.3035" style="fill:none;" /><ns0:line y2="0" y1="0" x2="75" x1="99.0625" style="fill:none;" /><ns0:line y2="25.98" y1="0" x2="30" x1="15" style="fill:none;" /><ns0:line y2="22.48" y1="-0.0001" x2="32.0207" x1="19.0415" style="fill:none;" /><ns0:line y2="-25.98" y1="0" x2="30" x1="15" style="fill:none;" /><ns0:line y2="25.98" y1="25.98" x2="60" x1="30" style="fill:none;" /><ns0:line y2="-25.98" y1="-25.98" x2="60" x1="30" style="fill:none;" /><ns0:line y2="-22.48" y1="-22.48" x2="57.9793" x1="32.0207" style="fill:none;" /><ns0:line y2="0" y1="25.98" x2="75" x1="60" style="fill:none;" /><ns0:line y2="-0.0001" y1="22.48" x2="70.9585" x1="57.9793" style="fill:none;" /><ns0:line y2="0" y1="-25.98" x2="75" x1="60" style="fill:none;" /><ns0:line y2="0" y1="-25.98" x2="-75" x1="-60" style="fill:none;" /><ns0:line y2="-3.5" y1="-25.9801" x2="-77.0207" x1="-64.0415" style="fill:none;" /><ns0:line y2="-51.963" y1="-25.98" x2="-75" x1="-60" style="fill:none;" /><ns0:line y2="0" y1="0" x2="-105" x1="-75" style="fill:none;" /><ns0:line y2="-51.963" y1="-51.963" x2="-105" x1="-75" style="fill:none;" /><ns0:line y2="-48.463" y1="-48.463" x2="-102.9793" x1="-77.0207" style="fill:none;" /><ns0:line y2="-25.98" y1="0" x2="-120" x1="-105" style="fill:none;" /><ns0:line y2="-25.9801" y1="-3.5" x2="-115.9585" x1="-102.9793" style="fill:none;" /><ns0:line y2="-25.98" y1="-51.963" x2="-120" x1="-105" style="fill:none;" /><ns0:path style="fill:none; stroke-miterlimit:5;" d="M-15.25 -0.433 L-15 0 L-14.5 0" /></ns0:g><ns0:g transform="translate(124,55)" style="stroke-linecap:butt; fill:rgb(0,5,255); text-rendering:geometricPrecision; color-rendering:optimizeQuality; image-rendering:optimizeQuality; font-family:'Open Sans'; stroke:rgb(0,5,255); color-interpolation:linearRGB; stroke-miterlimit:5;"><ns0:path style="stroke:none;" d="M-26.6484 -21.8237 L-27.7891 -21.8237 L-32.4766 -29.0112 L-32.5234 -29.0112 Q-32.4297 -27.7456 -32.4297 -26.6987 L-32.4297 -21.8237 L-33.3516 -21.8237 L-33.3516 -30.3862 L-32.2266 -30.3862 L-27.5547 -23.23 L-27.5078 -23.23 Q-27.5078 -23.3862 -27.5547 -24.2456 Q-27.6016 -25.105 -27.5859 -25.48 L-27.5859 -30.3862 L-26.6484 -30.3862 L-26.6484 -21.8237 Z" /><ns0:path style="stroke:none;" d="M-26.7422 -31.3862 L-27.7422 -31.3862 L-27.7422 -35.4175 L-32.2578 -35.4175 L-32.2578 -31.3862 L-33.2578 -31.3862 L-33.2578 -39.9487 L-32.2578 -39.9487 L-32.2578 -36.3081 L-27.7422 -36.3081 L-27.7422 -39.9487 L-26.7422 -39.9487 L-26.7422 -31.3862 Z" /><ns0:path style="fill:rgb(230,0,0); stroke:none;" d="M-26.0625 25.9097 Q-26.0625 27.9722 -27.1016 29.1519 Q-28.1406 30.3316 -29.9844 30.3316 Q-31.875 30.3316 -32.9062 29.1675 Q-33.9375 28.0034 -33.9375 25.8941 Q-33.9375 23.8003 -32.9062 22.6519 Q-31.875 21.5034 -29.9844 21.5034 Q-28.125 21.5034 -27.0938 22.6753 Q-26.0625 23.8472 -26.0625 25.9097 ZM-32.8906 25.9097 Q-32.8906 27.6441 -32.1484 28.5503 Q-31.4062 29.4566 -29.9844 29.4566 Q-28.5625 29.4566 -27.8359 28.5581 Q-27.1094 27.6597 -27.1094 25.9097 Q-27.1094 24.1753 -27.8359 23.2847 Q-28.5625 22.3941 -29.9844 22.3941 Q-31.4062 22.3941 -32.1484 23.2925 Q-32.8906 24.1909 -32.8906 25.9097 Z" /><ns0:path style="stroke:none;" d="M78.3516 56.1193 L77.2109 56.1193 L72.5234 48.9318 L72.4766 48.9318 Q72.5703 50.1974 72.5703 51.2443 L72.5703 56.1193 L71.6484 56.1193 L71.6484 47.5568 L72.7734 47.5568 L77.4453 54.713 L77.4922 54.713 Q77.4922 54.5568 77.4453 53.6974 Q77.3984 52.838 77.4141 52.463 L77.4141 47.5568 L78.3516 47.5568 L78.3516 56.1193 Z" /><ns0:path style="stroke:none;" d="M85.8672 56.1193 L84.8672 56.1193 L84.8672 52.088 L80.3516 52.088 L80.3516 56.1193 L79.3516 56.1193 L79.3516 47.5568 L80.3516 47.5568 L80.3516 51.1974 L84.8672 51.1974 L84.8672 47.5568 L85.8672 47.5568 L85.8672 56.1193 Z" /><ns0:path style="stroke:none;" d="M90.6172 57.9286 L86.8672 57.9286 L86.8672 57.3661 L88.3672 55.8505 Q89.0547 55.163 89.2734 54.8661 Q89.4922 54.5693 89.6016 54.288 Q89.7109 54.0068 89.7109 53.6786 Q89.7109 53.2255 89.4375 52.9599 Q89.1641 52.6943 88.6641 52.6943 Q88.3203 52.6943 88 52.8114 Q87.6797 52.9286 87.2891 53.2255 L86.9453 52.788 Q87.7266 52.1318 88.6641 52.1318 Q89.4609 52.1318 89.9219 52.5458 Q90.3828 52.9599 90.3828 53.6474 Q90.3828 54.1943 90.0781 54.7255 Q89.7734 55.2568 88.9297 56.0693 L87.6797 57.288 L87.6797 57.3193 L90.6172 57.3193 L90.6172 57.9286 Z" /><ns0:path style="fill:rgb(230,0,0); stroke:none;" d="M108.9375 -0.0703 Q108.9375 1.9922 107.8984 3.1719 Q106.8594 4.3516 105.0156 4.3516 Q103.125 4.3516 102.0938 3.1875 Q101.0625 2.0234 101.0625 -0.0859 Q101.0625 -2.1797 102.0938 -3.3281 Q103.125 -4.4766 105.0156 -4.4766 Q106.875 -4.4766 107.9062 -3.3047 Q108.9375 -2.1328 108.9375 -0.0703 ZM102.1094 -0.0703 Q102.1094 1.6641 102.8516 2.5703 Q103.5938 3.4766 105.0156 3.4766 Q106.4375 3.4766 107.1641 2.5781 Q107.8906 1.6797 107.8906 -0.0703 Q107.8906 -1.8047 107.1641 -2.6953 Q106.4375 -3.5859 105.0156 -3.5859 Q103.5938 -3.5859 102.8516 -2.6875 Q102.1094 -1.7891 102.1094 -0.0703 Z" /><ns0:path style="fill:none; stroke:black;" d="M15.25 0.433 L15 0 L14.5 -0" /><ns0:path style="fill:none; stroke:black;" d="M29.75 25.547 L30 25.98 L30.5 25.98" /><ns0:path style="fill:none; stroke:black;" d="M29.75 -25.547 L30 -25.98 L30.5 -25.98" /><ns0:path style="fill:none; stroke:black;" d="M60.25 25.547 L60 25.98 L60.25 26.413" /><ns0:path style="fill:none; stroke:black;" d="M59.5 -25.98 L60 -25.98 L60.25 -25.547" /><ns0:path style="fill:none; stroke:black;" d="M74.75 0.433 L75 0 L75.5 0" /><ns0:path style="fill:none; stroke:black;" d="M-60.25 -25.547 L-60 -25.98 L-60.25 -26.413" /><ns0:path style="fill:none; stroke:black;" d="M-74.75 -0.433 L-75 0 L-75.5 -0" /><ns0:path style="fill:none; stroke:black;" d="M-74.75 -51.53 L-75 -51.963 L-75.5 -51.963" /><ns0:path style="fill:none; stroke:black;" d="M-104.5 0 L-105 0 L-105.25 -0.433" /><ns0:path style="fill:none; stroke:black;" d="M-104.5 -51.963 L-105 -51.963 L-105.25 -51.53" /><ns0:path style="fill:none; stroke:black;" d="M-119.75 -25.547 L-120 -25.98 L-119.75 -26.413" /></ns0:g></ns0:g></ns0:svg></ns0:svg></ns0:svg></ns0:svg></g></svg>