<svg width="182" viewBox="0 0 182 115" style="fill-opacity:1; color-rendering:auto; color-interpolation:auto; text-rendering:auto; stroke:black; stroke-linecap:square; stroke-miterlimit:10; shape-rendering:auto; stroke-opacity:1; fill:black; stroke-dasharray:none; font-weight:normal; stroke-width:1; font-family:'Open Sans'; font-style:normal; stroke-linejoin:miter; font-size:12; stroke-dashoffset:0; image-rendering:auto;" height="115" class="cas-substance-image" xmlns:xlink="http://www.w3.org/1999/xlink" xmlns="http://www.w3.org/2000/svg"><svg class="cas-substance-single-component"><rect y="0" x="0" width="182" stroke="none" ry="7" rx="7" height="115" fill="white" class="cas-substance-group"/><svg y="0" x="0" width="182" viewBox="0 0 182 115" style="fill:black;" height="115" class="cas-substance-single-component-image"><svg><g><g transform="translate(97,59)" style="text-rendering:geometricPrecision; color-rendering:optimizeQuality; color-interpolation:linearRGB; stroke-linecap:butt; image-rendering:optimizeQuality;"><line y2="20.2524" y1="0" x2="49.1931" x1="37.5" style="fill:none;"/><line y2="-19.457" y1="1.75" x2="50.7546" x1="38.5104" style="fill:none;"/><line y2="-21.2071" y1="-0" x2="47.7235" x1="35.4793" style="fill:none;"/><line y2="0" y1="0" x2="7.5" x1="37.5" style="fill:none;"/><line y2="25.98" y1="25.98" x2="82.5" x1="58.4375" style="fill:none;"/><line y2="-25.98" y1="-46.3148" x2="-7.5" x1="4.2393" style="fill:none;"/><line y2="25.98" y1="51.963" x2="-7.5" x1="7.5" style="fill:none;"/><line y2="-25.98" y1="-51.963" x2="-37.5" x1="-52.5" style="fill:none;"/><line y2="0" y1="0" x2="-52.5" x1="-76.5625" style="fill:none;"/><line y2="-25.98" y1="0" x2="-7.5" x1="7.5" style="fill:none;"/><line y2="-22.48" y1="0.0001" x2="-9.5207" x1="3.4585" style="fill:none;"/><line y2="25.98" y1="0" x2="-7.5" x1="7.5" style="fill:none;"/><line y2="-25.98" y1="-25.98" x2="-37.5" x1="-7.5" style="fill:none;"/><line y2="25.98" y1="25.98" x2="-37.5" x1="-7.5" style="fill:none;"/><line y2="22.48" y1="22.48" x2="-35.4793" x1="-9.5207" style="fill:none;"/><line y2="0" y1="-25.98" x2="-52.5" x1="-37.5" style="fill:none;"/><line y2="0.0001" y1="-22.48" x2="-48.4585" x1="-35.4793" style="fill:none;"/><line y2="0" y1="25.98" x2="-52.5" x1="-37.5" style="fill:none;"/><path style="fill:none; stroke-miterlimit:5;" d="M37.75 0.433 L37.5 0 L37 -0"/></g><g transform="translate(97,59)" style="stroke-linecap:butt; fill:rgb(230,0,0); text-rendering:geometricPrecision; color-rendering:optimizeQuality; image-rendering:optimizeQuality; font-family:'Open Sans'; stroke:rgb(230,0,0); color-interpolation:linearRGB; stroke-miterlimit:5;"><path style="stroke:none;" d="M56.4375 25.9097 Q56.4375 27.9722 55.3984 29.1519 Q54.3594 30.3316 52.5156 30.3316 Q50.625 30.3316 49.5938 29.1675 Q48.5625 28.0034 48.5625 25.8941 Q48.5625 23.8003 49.5938 22.6519 Q50.625 21.5034 52.5156 21.5034 Q54.375 21.5034 55.4062 22.6753 Q56.4375 23.8472 56.4375 25.9097 ZM49.6094 25.9097 Q49.6094 27.6441 50.3516 28.5503 Q51.0938 29.4566 52.5156 29.4566 Q53.9375 29.4566 54.6641 28.5581 Q55.3906 27.6597 55.3906 25.9097 Q55.3906 24.1753 54.6641 23.2847 Q53.9375 22.3941 52.5156 22.3941 Q51.0938 22.3941 50.3516 23.2925 Q49.6094 24.1909 49.6094 25.9097 Z"/><path style="stroke:none;" d="M56.4375 -26.0503 Q56.4375 -23.9878 55.3984 -22.8081 Q54.3594 -21.6284 52.5156 -21.6284 Q50.625 -21.6284 49.5938 -22.7925 Q48.5625 -23.9566 48.5625 -26.0659 Q48.5625 -28.1597 49.5938 -29.3081 Q50.625 -30.4566 52.5156 -30.4566 Q54.375 -30.4566 55.4062 -29.2847 Q56.4375 -28.1128 56.4375 -26.0503 ZM49.6094 -26.0503 Q49.6094 -24.3159 50.3516 -23.4097 Q51.0938 -22.5034 52.5156 -22.5034 Q53.9375 -22.5034 54.6641 -23.4019 Q55.3906 -24.3003 55.3906 -26.0503 Q55.3906 -27.7847 54.6641 -28.6753 Q53.9375 -29.5659 52.5156 -29.5659 Q51.0938 -29.5659 50.3516 -28.6675 Q49.6094 -27.7691 49.6094 -26.0503 Z"/><path style="stroke:none;" d="M11.4375 -52.0333 Q11.4375 -49.9708 10.3984 -48.7911 Q9.3594 -47.6114 7.5156 -47.6114 Q5.625 -47.6114 4.5938 -48.7755 Q3.5625 -49.9396 3.5625 -52.0489 Q3.5625 -54.1427 4.5938 -55.2911 Q5.625 -56.4396 7.5156 -56.4396 Q9.375 -56.4396 10.4062 -55.2677 Q11.4375 -54.0958 11.4375 -52.0333 ZM4.6094 -52.0333 Q4.6094 -50.2989 5.3516 -49.3927 Q6.0938 -48.4864 7.5156 -48.4864 Q8.9375 -48.4864 9.6641 -49.3849 Q10.3906 -50.2833 10.3906 -52.0333 Q10.3906 -53.7677 9.6641 -54.6583 Q8.9375 -55.5489 7.5156 -55.5489 Q6.0938 -55.5489 5.3516 -54.6505 Q4.6094 -53.7521 4.6094 -52.0333 Z"/><path style="stroke:none;" d="M18.9531 -47.7364 L17.9531 -47.7364 L17.9531 -51.7677 L13.4375 -51.7677 L13.4375 -47.7364 L12.4375 -47.7364 L12.4375 -56.2989 L13.4375 -56.2989 L13.4375 -52.6583 L17.9531 -52.6583 L17.9531 -56.2989 L18.9531 -56.2989 L18.9531 -47.7364 Z"/><path style="stroke:none;" d="M-78.5625 -0.0703 Q-78.5625 1.9922 -79.6016 3.1719 Q-80.6406 4.3516 -82.4844 4.3516 Q-84.375 4.3516 -85.4062 3.1875 Q-86.4375 2.0234 -86.4375 -0.0859 Q-86.4375 -2.1797 -85.4062 -3.3281 Q-84.375 -4.4766 -82.4844 -4.4766 Q-80.625 -4.4766 -79.5938 -3.3047 Q-78.5625 -2.1328 -78.5625 -0.0703 ZM-85.3906 -0.0703 Q-85.3906 1.6641 -84.6484 2.5703 Q-83.9062 3.4766 -82.4844 3.4766 Q-81.0625 3.4766 -80.3359 2.5781 Q-79.6094 1.6797 -79.6094 -0.0703 Q-79.6094 -1.8047 -80.3359 -2.6953 Q-81.0625 -3.5859 -82.4844 -3.5859 Q-83.9062 -3.5859 -84.6484 -2.6875 Q-85.3906 -1.7891 -85.3906 -0.0703 Z"/><path style="stroke:none;" d="M-87.4375 4.2266 L-88.4375 4.2266 L-88.4375 0.1953 L-92.9531 0.1953 L-92.9531 4.2266 L-93.9531 4.2266 L-93.9531 -4.3359 L-92.9531 -4.3359 L-92.9531 -0.6953 L-88.4375 -0.6953 L-88.4375 -4.3359 L-87.4375 -4.3359 L-87.4375 4.2266 Z"/><path style="fill:none; stroke:black;" d="M7.25 -0.433 L7.5 0 L8 0"/><path style="fill:none; stroke:black;" d="M-7.25 -25.547 L-7.5 -25.98 L-7.25 -26.413"/><path style="fill:none; stroke:black;" d="M-8 25.98 L-7.5 25.98 L-7.25 26.413"/><path style="fill:none; stroke:black;" d="M-37.75 -25.547 L-37.5 -25.98 L-37.75 -26.413"/><path style="fill:none; stroke:black;" d="M-37 25.98 L-37.5 25.98 L-37.75 25.547"/><path style="fill:none; stroke:black;" d="M-52.25 -0.433 L-52.5 0 L-53 -0"/></g></g></svg></svg></svg></svg>