<svg width="656" viewBox="0 0 656 127" style="fill-opacity:1; color-rendering:auto; color-interpolation:auto; text-rendering:auto; stroke:black; stroke-linecap:square; stroke-miterlimit:10; shape-rendering:auto; stroke-opacity:1; fill:black; stroke-dasharray:none; font-weight:normal; stroke-width:1; font-family:'Open Sans'; font-style:normal; stroke-linejoin:miter; font-size:12; stroke-dashoffset:0; image-rendering:auto;" height="127" class="cas-substance-image" xmlns:xlink="http://www.w3.org/1999/xlink" xmlns="http://www.w3.org/2000/svg"><svg class="cas-substance-single-component"><rect y="0" x="0" width="656" stroke="none" ry="7" rx="7" height="127" fill="white" class="cas-substance-group"/><svg y="0" x="0" width="656" viewBox="0 0 656 112" style="fill:black;" height="112" class="cas-substance-single-component-image"><svg><g><g transform="translate(328,56)" style="text-rendering:geometricPrecision; color-rendering:optimizeQuality; color-interpolation:linearRGB; stroke-linecap:butt; image-rendering:optimizeQuality;"><line y2="7.5" y1="-4.3214" x2="-168.876" x1="-189.3506" style="fill:none;"/><line y2="7.5" y1="-4.3112" x2="-220.836" x1="-200.379" style="fill:none;"/><line y2="-4.5652" y1="7.5" x2="-147.9767" x1="-168.876" style="fill:none;"/><line y2="31.0234" y1="6.4896" x2="-170.626" x1="-170.626" style="fill:none;"/><line y2="31.0234" y1="6.4897" x2="-167.126" x1="-167.126" style="fill:none;"/><line y2="7.5" y1="-4.5649" x2="-116.913" x1="-137.8094" style="fill:none;"/><line y2="-37.5" y1="-13.9062" x2="-142.893" x1="-142.893" style="fill:none;"/><line y2="-7.5" y1="7.5" x2="-90.933" x1="-116.913" style="fill:none;"/><line y2="7.5" y1="-7.5" x2="-64.953" x1="-90.933" style="fill:none;"/><line y2="-7.5" y1="7.5" x2="-38.97" x1="-64.953" style="fill:none;"/><line y2="7.5" y1="-7.5" x2="-12.99" x1="-38.97" style="fill:none;"/><line y2="-7.5" y1="7.5" x2="12.99" x1="-12.99" style="fill:none;"/><line y2="7.5" y1="-7.5" x2="38.97" x1="12.99" style="fill:none;"/><line y2="-7.5" y1="7.5" x2="64.953" x1="38.97" style="fill:none;"/><line y2="7.5" y1="-7.5" x2="90.933" x1="64.953" style="fill:none;"/><line y2="-7.5" y1="7.5" x2="116.913" x1="90.933" style="fill:none;"/><line y2="4.5649" y1="-7.5" x2="137.8094" x1="116.913" style="fill:none;"/><line y2="-7.5" y1="4.5652" x2="168.876" x1="147.9767" style="fill:none;"/><line y2="37.5" y1="13.6562" x2="142.893" x1="142.893" style="fill:none;"/><line y2="4.2586" y1="-7.5" x2="189.2419" x1="168.876" style="fill:none;"/><line y2="-31.1484" y1="-6.4896" x2="170.626" x1="170.626" style="fill:none;"/><line y2="-31.1484" y1="-6.4897" x2="167.126" x1="167.126" style="fill:none;"/><line y2="-7.5" y1="4.274" x2="220.836" x1="200.4435" style="fill:none;"/><line y2="-22.5" y1="-10.4351" x2="-324.759" x1="-303.8626" style="fill:none;"/><line y2="18.48" y1="-1.6117" x2="-313.779" x1="-302.1787" style="fill:none;"/><line y2="-33.48" y1="-13.6383" x2="-283.779" x1="-295.235" style="fill:none;"/><line y2="7.5" y1="-4.5649" x2="-272.799" x1="-293.6954" style="fill:none;"/><line y2="22.5" y1="10.4351" x2="324.759" x1="303.8626" style="fill:none;"/><line y2="-18.48" y1="1.3617" x2="313.779" x1="302.323" style="fill:none;"/><line y2="33.48" y1="13.3883" x2="283.779" x1="295.3793" style="fill:none;"/><line y2="-7.5" y1="4.5649" x2="272.799" x1="293.6954" style="fill:none;"/><line y2="-7.5" y1="7.5" x2="-246.816" x1="-220.836" style="fill:none;"/><line y2="-3.4585" y1="9.5207" x2="-246.816" x1="-224.336" style="fill:none;"/><line y2="37.5" y1="7.5" x2="-220.836" x1="-220.836" style="fill:none;"/><line y2="7.5" y1="-7.5" x2="-272.799" x1="-246.816" style="fill:none;"/><line y2="52.5" y1="37.5" x2="-246.816" x1="-220.836" style="fill:none;"/><line y2="48.4585" y1="35.4793" x2="-246.816" x1="-224.336" style="fill:none;"/><line y2="37.5" y1="7.5" x2="-272.799" x1="-272.799" style="fill:none;"/><line y2="35.4793" y1="9.5207" x2="-269.299" x1="-269.299" style="fill:none;"/><line y2="37.5" y1="52.5" x2="-272.799" x1="-246.816" style="fill:none;"/><line y2="7.5" y1="-7.5" x2="246.816" x1="220.836" style="fill:none;"/><line y2="3.4585" y1="-9.5207" x2="246.816" x1="224.336" style="fill:none;"/><line y2="-37.5" y1="-7.5" x2="220.836" x1="220.836" style="fill:none;"/><line y2="-7.5" y1="7.5" x2="272.799" x1="246.816" style="fill:none;"/><line y2="-52.5" y1="-37.5" x2="246.816" x1="220.836" style="fill:none;"/><line y2="-48.4585" y1="-35.4793" x2="246.816" x1="224.336" style="fill:none;"/><line y2="-37.5" y1="-7.5" x2="272.799" x1="272.799" style="fill:none;"/><line y2="-35.4793" y1="-9.5207" x2="269.299" x1="269.299" style="fill:none;"/><line y2="-37.5" y1="-52.5" x2="272.799" x1="246.816" style="fill:none;"/></g><g transform="translate(328,56)" style="fill:rgb(230,0,0); text-rendering:geometricPrecision; color-rendering:optimizeQuality; image-rendering:optimizeQuality; font-family:'Open Sans'; stroke:rgb(230,0,0); color-interpolation:linearRGB;"><path style="stroke:none;" d="M-190.9185 -7.5703 Q-190.9185 -5.5078 -191.9576 -4.3281 Q-192.9966 -3.1484 -194.8404 -3.1484 Q-196.731 -3.1484 -197.7623 -4.3125 Q-198.7935 -5.4766 -198.7935 -7.5859 Q-198.7935 -9.6797 -197.7623 -10.8281 Q-196.731 -11.9766 -194.8404 -11.9766 Q-192.981 -11.9766 -191.9498 -10.8047 Q-190.9185 -9.6328 -190.9185 -7.5703 ZM-197.7466 -7.5703 Q-197.7466 -5.8359 -197.0044 -4.9297 Q-196.2623 -4.0234 -194.8404 -4.0234 Q-193.4185 -4.0234 -192.6919 -4.9219 Q-191.9654 -5.8203 -191.9654 -7.5703 Q-191.9654 -9.3047 -192.6919 -10.1953 Q-193.4185 -11.0859 -194.8404 -11.0859 Q-196.2623 -11.0859 -197.0044 -10.1875 Q-197.7466 -9.2891 -197.7466 -7.5703 Z"/></g><g transform="translate(328,56)" style="stroke-linecap:butt; text-rendering:geometricPrecision; color-rendering:optimizeQuality; image-rendering:optimizeQuality; font-family:'Open Sans'; color-interpolation:linearRGB; stroke-miterlimit:5;"><path style="fill:none;" d="M-169.309 7.25 L-168.876 7.5 L-168.443 7.25"/><path style="fill:rgb(0,5,255); stroke:none;" d="M-139.5414 -3.3438 L-140.6821 -3.3438 L-145.3696 -10.5312 L-145.4164 -10.5312 Q-145.3227 -9.2656 -145.3227 -8.2188 L-145.3227 -3.3438 L-146.2446 -3.3438 L-146.2446 -11.9062 L-145.1196 -11.9062 L-140.4477 -4.75 L-140.4008 -4.75 Q-140.4008 -4.9062 -140.4477 -5.7656 Q-140.4946 -6.625 -140.4789 -7 L-140.4789 -11.9062 L-139.5414 -11.9062 L-139.5414 -3.3438 Z"/><path style="fill:rgb(230,0,0); stroke:none;" d="M-164.9385 37.4297 Q-164.9385 39.4922 -165.9776 40.6719 Q-167.0166 41.8516 -168.8604 41.8516 Q-170.751 41.8516 -171.7823 40.6875 Q-172.8135 39.5234 -172.8135 37.4141 Q-172.8135 35.3203 -171.7823 34.1719 Q-170.751 33.0234 -168.8604 33.0234 Q-167.001 33.0234 -165.9698 34.1953 Q-164.9385 35.3672 -164.9385 37.4297 ZM-171.7666 37.4297 Q-171.7666 39.1641 -171.0244 40.0703 Q-170.2823 40.9766 -168.8604 40.9766 Q-167.4385 40.9766 -166.7119 40.0781 Q-165.9854 39.1797 -165.9854 37.4297 Q-165.9854 35.6953 -166.7119 34.8047 Q-167.4385 33.9141 -168.8604 33.9141 Q-170.2823 33.9141 -171.0244 34.8125 Q-171.7666 35.7109 -171.7666 37.4297 Z"/><path style="fill:none;" d="M-117.346 7.25 L-116.913 7.5 L-116.48 7.25"/><path style="fill:none;" d="M-91.366 -7.25 L-90.933 -7.5 L-90.5 -7.25"/><path style="fill:none;" d="M-65.386 7.25 L-64.953 7.5 L-64.52 7.25"/><path style="fill:none;" d="M-39.403 -7.25 L-38.97 -7.5 L-38.537 -7.25"/><path style="fill:none;" d="M-13.423 7.25 L-12.99 7.5 L-12.557 7.25"/><path style="fill:none;" d="M12.557 -7.25 L12.99 -7.5 L13.423 -7.25"/><path style="fill:none;" d="M38.537 7.25 L38.97 7.5 L39.403 7.25"/><path style="fill:none;" d="M64.52 -7.25 L64.953 -7.5 L65.386 -7.25"/><path style="fill:none;" d="M90.5 7.25 L90.933 7.5 L91.366 7.25"/><path style="fill:none;" d="M116.48 -7.25 L116.913 -7.5 L117.346 -7.25"/><path style="fill:rgb(0,5,255); stroke:none;" d="M146.2446 11.6562 L145.1039 11.6562 L140.4164 4.4688 L140.3696 4.4688 Q140.4633 5.7344 140.4633 6.7812 L140.4633 11.6562 L139.5414 11.6562 L139.5414 3.0938 L140.6664 3.0938 L145.3383 10.25 L145.3852 10.25 Q145.3852 10.0938 145.3383 9.2344 Q145.2914 8.375 145.3071 8 L145.3071 3.0938 L146.2446 3.0938 L146.2446 11.6562 Z"/><path style="fill:none;" d="M168.443 -7.25 L168.876 -7.5 L169.309 -7.25"/><path style="fill:rgb(230,0,0); stroke:none;" d="M198.7935 7.4297 Q198.7935 9.4922 197.7544 10.6719 Q196.7154 11.8516 194.8716 11.8516 Q192.981 11.8516 191.9498 10.6875 Q190.9185 9.5234 190.9185 7.4141 Q190.9185 5.3203 191.9498 4.1719 Q192.981 3.0234 194.8716 3.0234 Q196.731 3.0234 197.7623 4.1953 Q198.7935 5.3672 198.7935 7.4297 ZM191.9654 7.4297 Q191.9654 9.1641 192.7076 10.0703 Q193.4498 10.9766 194.8716 10.9766 Q196.2935 10.9766 197.0201 10.0781 Q197.7466 9.1797 197.7466 7.4297 Q197.7466 5.6953 197.0201 4.8047 Q196.2935 3.9141 194.8716 3.9141 Q193.4498 3.9141 192.7076 4.8125 Q191.9654 5.7109 191.9654 7.4297 Z"/><path style="fill:rgb(230,0,0); stroke:none;" d="M172.8135 -37.5703 Q172.8135 -35.5078 171.7744 -34.3281 Q170.7354 -33.1484 168.8916 -33.1484 Q167.001 -33.1484 165.9698 -34.3125 Q164.9385 -35.4766 164.9385 -37.5859 Q164.9385 -39.6797 165.9698 -40.8281 Q167.001 -41.9766 168.8916 -41.9766 Q170.751 -41.9766 171.7823 -40.8047 Q172.8135 -39.6328 172.8135 -37.5703 ZM165.9854 -37.5703 Q165.9854 -35.8359 166.7276 -34.9297 Q167.4698 -34.0234 168.8916 -34.0234 Q170.3135 -34.0234 171.0401 -34.9219 Q171.7666 -35.8203 171.7666 -37.5703 Q171.7666 -39.3047 171.0401 -40.1953 Q170.3135 -41.0859 168.8916 -41.0859 Q167.4698 -41.0859 166.7276 -40.1875 Q165.9854 -39.2891 165.9854 -37.5703 Z"/><path style="fill:rgb(0,5,255); stroke:none;" d="M-295.4274 -3.3438 L-296.5681 -3.3438 L-301.2556 -10.5312 L-301.3024 -10.5312 Q-301.2087 -9.2656 -301.2087 -8.2188 L-301.2087 -3.3438 L-302.1306 -3.3438 L-302.1306 -11.9062 L-301.0056 -11.9062 L-296.3337 -4.75 L-296.2868 -4.75 Q-296.2868 -4.9062 -296.3337 -5.7656 Q-296.3806 -6.625 -296.3649 -7 L-296.3649 -11.9062 L-295.4274 -11.9062 L-295.4274 -3.3438 Z"/><path style="stroke:none;" d="M-292.2868 -10.3344 L-290.6774 -10.3344 L-290.6774 -9.7875 L-292.2868 -9.7875 L-292.2868 -8.1313 L-292.8181 -8.1313 L-292.8181 -9.7875 L-294.4274 -9.7875 L-294.4274 -10.3344 L-292.8181 -10.3344 L-292.8181 -12.0063 L-292.2868 -12.0063 L-292.2868 -10.3344 Z"/><path style="fill:rgb(0,5,255); stroke:none;" d="M302.1306 11.6562 L300.9899 11.6562 L296.3024 4.4688 L296.2556 4.4688 Q296.3493 5.7344 296.3493 6.7812 L296.3493 11.6562 L295.4274 11.6562 L295.4274 3.0938 L296.5524 3.0938 L301.2243 10.25 L301.2712 10.25 Q301.2712 10.0938 301.2243 9.2344 Q301.1774 8.375 301.1931 8 L301.1931 3.0938 L302.1306 3.0938 L302.1306 11.6562 Z"/><path style="stroke:none;" d="M305.2712 4.6656 L306.8806 4.6656 L306.8806 5.2125 L305.2712 5.2125 L305.2712 6.8687 L304.7399 6.8687 L304.7399 5.2125 L303.1306 5.2125 L303.1306 4.6656 L304.7399 4.6656 L304.7399 2.9937 L305.2712 2.9937 L305.2712 4.6656 Z"/><path style="fill:none;" d="M-221.269 7.25 L-220.836 7.5 L-220.403 7.25"/><path style="fill:none;" d="M-246.383 -7.25 L-246.816 -7.5 L-247.249 -7.25"/><path style="fill:none;" d="M-220.836 37 L-220.836 37.5 L-221.269 37.75"/><path style="fill:none;" d="M-272.799 8 L-272.799 7.5 L-273.232 7.25"/><path style="fill:none;" d="M-246.383 52.25 L-246.816 52.5 L-247.249 52.25"/><path style="fill:none;" d="M-272.799 37 L-272.799 37.5 L-272.366 37.75"/><path style="fill:none;" d="M221.269 -7.25 L220.836 -7.5 L220.403 -7.25"/><path style="fill:none;" d="M246.383 7.25 L246.816 7.5 L247.249 7.25"/><path style="fill:none;" d="M220.836 -37 L220.836 -37.5 L221.269 -37.75"/><path style="fill:none;" d="M272.799 -8 L272.799 -7.5 L273.232 -7.25"/><path style="fill:none;" d="M246.383 -52.25 L246.816 -52.5 L247.249 -52.25"/><path style="fill:none;" d="M272.799 -37 L272.799 -37.5 L272.366 -37.75"/></g></g></svg></svg><svg y="112" x="305" class="cas-substance-saf"><svg y="5" x="0" width="4" style="fill:black;" height="4" class="cas-substance-saf-dot"><circle stroke="none" r="2" fill="black" cy="2" cx="2"/></svg><svg y="0" x="7" width="12" style="fill:black;" height="15" class="cas-substance-saf-coefficient"><svg><g><g transform="translate(6,7)" style="text-rendering:geometricPrecision; font-family:'Open Sans'; color-interpolation:linearRGB; color-rendering:optimizeQuality; image-rendering:optimizeQuality;"><path style="stroke:none;" d="M2.8125 4.2188 L-2.8125 4.2188 L-2.8125 3.375 L-0.5625 1.1094 Q0.4688 0.0625 0.7969 -0.3828 Q1.125 -0.8281 1.2891 -1.25 Q1.4531 -1.6719 1.4531 -2.1562 Q1.4531 -2.8438 1.0391 -3.2422 Q0.625 -3.6406 -0.125 -3.6406 Q-0.6562 -3.6406 -1.1328 -3.4609 Q-1.6094 -3.2812 -2.1875 -2.8281 L-2.7031 -3.4844 Q-1.5312 -4.4688 -0.125 -4.4688 Q1.0781 -4.4688 1.7656 -3.8516 Q2.4531 -3.2344 2.4531 -2.1875 Q2.4531 -1.375 1.9922 -0.5781 Q1.5312 0.2188 0.2812 1.4375 L-1.5938 3.2656 L-1.5938 3.3125 L2.8125 3.3125 L2.8125 4.2188 Z"/></g></g></svg></svg><svg y="0" x="23" width="22" style="fill:black;" height="15" class="cas-substance-saf-image"><svg><g><g transform="translate(9,7)" style="fill:rgb(0,138,0); text-rendering:geometricPrecision; color-rendering:optimizeQuality; image-rendering:optimizeQuality; font-family:'Open Sans'; stroke:rgb(0,138,0); color-interpolation:linearRGB;"><path style="stroke:none;" d="M-5.6689 -4.4062 L-3.2471 -4.4062 Q-1.5439 -4.4062 -0.7783 -3.8984 Q-0.0127 -3.3906 -0.0127 -2.2969 Q-0.0127 -1.5312 -0.4346 -1.0312 Q-0.8564 -0.5312 -1.6846 -0.3906 L-1.6846 -0.3281 Q0.2686 0 0.2686 1.7188 Q0.2686 2.8594 -0.5049 3.5078 Q-1.2783 4.1562 -2.6689 4.1562 L-5.6689 4.1562 L-5.6689 -4.4062 ZM-4.6689 -0.75 L-3.0283 -0.75 Q-1.9658 -0.75 -1.5049 -1.0781 Q-1.0439 -1.4062 -1.0439 -2.1875 Q-1.0439 -2.9062 -1.5596 -3.2266 Q-2.0752 -3.5469 -3.2002 -3.5469 L-4.6689 -3.5469 L-4.6689 -0.75 ZM-4.6689 0.0938 L-4.6689 3.3125 L-2.8721 3.3125 Q-1.8408 3.3125 -1.3174 2.9062 Q-0.7939 2.5 -0.7939 1.6406 Q-0.7939 0.8438 -1.333 0.4688 Q-1.8721 0.0938 -2.9658 0.0938 L-4.6689 0.0938 ZM4.9033 -2.3906 Q5.3252 -2.3906 5.6689 -2.3125 L5.5283 -1.4062 Q5.1377 -1.5 4.8252 -1.5 Q4.0439 -1.5 3.4893 -0.8672 Q2.9346 -0.2344 2.9346 0.7031 L2.9346 4.1562 L1.9658 4.1562 L1.9658 -2.2656 L2.7627 -2.2656 L2.8877 -1.0781 L2.9346 -1.0781 Q3.2783 -1.7031 3.7861 -2.0469 Q4.2939 -2.3906 4.9033 -2.3906 Z"/><path style="fill:black; stroke:none;" d="M6.5986 -2.2719 L6.5986 -2.8656 L9.958 -2.8656 L9.958 -2.2719 L6.5986 -2.2719 Z"/></g></g></svg></svg></svg></svg></svg>