<svg xmlns:ns0="http://www.w3.org/2000/svg" xmlns="http://www.w3.org/2000/svg"><g transform="translate(0, 0)"><ns0:svg width="242" viewBox="0 0 242 175" style="fill-opacity:1; color-rendering:auto; color-interpolation:auto; text-rendering:auto; stroke:black; stroke-linecap:square; stroke-miterlimit:10; shape-rendering:auto; stroke-opacity:1; fill:black; stroke-dasharray:none; font-weight:normal; stroke-width:1; font-family:'Open Sans'; font-style:normal; stroke-linejoin:miter; font-size:12; stroke-dashoffset:0; image-rendering:auto;" height="175" class="cas-substance-image"><ns0:svg class="cas-substance-single-component"><ns0:rect y="0" x="0" width="242" stroke="none" ry="7" rx="7" height="175" fill="white" class="cas-substance-group" /><ns0:svg y="0" x="0" width="242" viewBox="0 0 242 175" style="fill:black;" height="175" class="cas-substance-single-component-image"><ns0:svg><ns0:g><ns0:g transform="translate(118,90)" style="text-rendering:geometricPrecision; color-rendering:optimizeQuality; color-interpolation:linearRGB; stroke-linecap:butt; image-rendering:optimizeQuality;"><ns0:line y2="19.2375" y1="7.401" x2="-79.6005" x1="-59.241" style="fill:none;" /><ns0:line y2="20.6152" y1="8.4166" x2="-39.7128" x1="-60.9879" style="fill:none;" /><ns0:line y2="17.5789" y1="5.3802" x2="-37.9719" x1="-59.2473" style="fill:none;" /><ns0:line y2="-16.4428" y1="7.401" x2="-59.3149" x1="-59.241" style="fill:none;" /><ns0:line y2="52.479" y1="28.8306" x2="-85.086" x1="-85.1569" style="fill:none;" /><ns0:line y2="52.389" y1="52.479" x2="-55.086" x1="-85.086" style="fill:none;" /><ns0:line y2="82.479" y1="52.479" x2="-84.996" x1="-85.086" style="fill:none;" /><ns0:line y2="52.569" y1="52.479" x2="-115.086" x1="-85.086" style="fill:none;" /><ns0:line y2="13.434" y1="13.434" x2="85.086" x1="107.4171" style="fill:none;" /><ns0:line y2="-25.5433" y1="-37.638" x2="-54.2519" x1="-33.375" style="fill:none;" /><ns0:line y2="-67.482" y1="-37.638" x2="-33.33" x1="-33.375" style="fill:none;" /><ns0:path style="stroke:none;" d="M-33.625 -37.205 L-33.125 -38.071 L-4.0076 -24.1463 L-7.395 -22.638 L-7.0071 -18.9499 Z" /><ns0:line y2="-37.404" y1="-25.5062" x2="-85.245" x1="-64.4221" style="fill:none;" /><ns0:path style="stroke:none;" d="M-33.4428 -67.9691 L-33.2172 -66.9949 L-62.3645 -57.7517 L-65.5125 -63.1851 Z" /><ns0:line y2="-63.1851" y1="-57.7517" x2="-65.5125" x1="-62.3645" style="fill:none; stroke-linejoin:bevel; stroke-width:0.2;" /><ns0:line y2="-82.458" y1="-67.482" x2="-59.343" x1="-33.33" style="fill:none;" /><ns0:path style="stroke:none;" d="M-84.8785 -37.0639 L-85.6115 -37.7441 L-65.5125 -63.1851 L-62.3645 -57.7517 Z" /><ns0:line y2="-57.7517" y1="-63.1851" x2="-62.3645" x1="-65.5125" style="fill:none; stroke-linejoin:bevel; stroke-width:0.2;" /><ns0:line y2="-67.419" y1="-37.404" x2="-85.299" x1="-85.245" style="fill:none;" /><ns0:line y2="-67.419" y1="-82.458" x2="-85.299" x1="-59.343" style="fill:none;" /><ns0:line y2="0.8017" y1="-22.638" x2="-4.9296" x1="-7.395" style="fill:none;" /><ns0:line y2="-32.5361" y1="-22.638" x2="14.8344" x1="-7.395" style="fill:none;" /><ns0:line y2="-29.3387" y1="-20.2626" x2="16.2581" x1="-4.1253" style="fill:none;" /><ns0:line y2="13.434" y1="8.3252" x2="25.086" x1="1.0509" style="fill:none;" /><ns0:line y2="-12.546" y1="-29.6329" x2="40.086" x1="24.7027" style="fill:none;" /><ns0:line y2="-12.546" y1="13.434" x2="40.086" x1="25.086" style="fill:none;" /><ns0:line y2="39.414" y1="13.434" x2="40.086" x1="25.086" style="fill:none;" /><ns0:line y2="35.914" y1="13.4339" x2="42.1067" x1="29.1275" style="fill:none;" /><ns0:line y2="-12.546" y1="-12.546" x2="70.086" x1="40.086" style="fill:none;" /><ns0:line y2="-9.046" y1="-9.046" x2="68.0653" x1="42.1067" style="fill:none;" /><ns0:line y2="39.414" y1="39.414" x2="70.086" x1="40.086" style="fill:none;" /><ns0:line y2="13.434" y1="-12.546" x2="85.086" x1="70.086" style="fill:none;" /><ns0:line y2="13.434" y1="39.414" x2="85.086" x1="70.086" style="fill:none;" /><ns0:line y2="13.4339" y1="35.914" x2="81.0445" x1="68.0653" style="fill:none;" /><ns0:line y2="-79.5989" y1="-67.482" x2="-12.337" x1="-33.33" style="fill:none;" /><ns0:line y2="-25.2203" y1="-37.404" x2="-106.1933" x1="-85.245" style="fill:none;" /><ns0:path style="fill:none; stroke-miterlimit:5;" d="M-59.6733 7.6523 L-59.241 7.401 L-59.2425 6.901" /></ns0:g><ns0:g transform="translate(118,90)" style="stroke-linecap:butt; fill:rgb(230,0,0); text-rendering:geometricPrecision; color-rendering:optimizeQuality; image-rendering:optimizeQuality; font-family:'Open Sans'; stroke:rgb(230,0,0); color-interpolation:linearRGB; stroke-miterlimit:5;"><ns0:path style="stroke:none;" d="M-81.2385 22.4087 Q-81.2385 24.4712 -82.2776 25.6509 Q-83.3166 26.8306 -85.1604 26.8306 Q-87.051 26.8306 -88.0823 25.6665 Q-89.1135 24.5024 -89.1135 22.3931 Q-89.1135 20.2993 -88.0823 19.1509 Q-87.051 18.0024 -85.1604 18.0024 Q-83.301 18.0024 -82.2698 19.1743 Q-81.2385 20.3462 -81.2385 22.4087 ZM-88.0666 22.4087 Q-88.0666 24.1431 -87.3244 25.0493 Q-86.5823 25.9556 -85.1604 25.9556 Q-83.7385 25.9556 -83.0119 25.0571 Q-82.2854 24.1587 -82.2854 22.4087 Q-82.2854 20.6743 -83.0119 19.7837 Q-83.7385 18.8931 -85.1604 18.8931 Q-86.5823 18.8931 -87.3244 19.7915 Q-88.0666 20.6899 -88.0666 22.4087 Z" /><ns0:path style="stroke:none;" d="M-29.2785 22.2527 Q-29.2785 24.3152 -30.3176 25.4949 Q-31.3566 26.6746 -33.2004 26.6746 Q-35.091 26.6746 -36.1222 25.5105 Q-37.1535 24.3464 -37.1535 22.2371 Q-37.1535 20.1433 -36.1222 18.9949 Q-35.091 17.8464 -33.2004 17.8464 Q-31.341 17.8464 -30.3097 19.0183 Q-29.2785 20.1902 -29.2785 22.2527 ZM-36.1066 22.2527 Q-36.1066 23.9871 -35.3644 24.8933 Q-34.6222 25.7996 -33.2004 25.7996 Q-31.7785 25.7996 -31.0519 24.9011 Q-30.3254 24.0027 -30.3254 22.2527 Q-30.3254 20.5183 -31.0519 19.6277 Q-31.7785 18.7371 -33.2004 18.7371 Q-34.6222 18.7371 -35.3644 19.6355 Q-36.1066 20.5339 -36.1066 22.2527 Z" /><ns0:path style="fill:rgb(0,138,0); stroke:none;" d="M109.4171 9.0278 L111.8389 9.0278 Q113.5421 9.0278 114.3077 9.5356 Q115.0733 10.0434 115.0733 11.1371 Q115.0733 11.9028 114.6514 12.4028 Q114.2296 12.9028 113.4014 13.0434 L113.4014 13.1059 Q115.3546 13.434 115.3546 15.1528 Q115.3546 16.2934 114.5811 16.9418 Q113.8077 17.5903 112.4171 17.5903 L109.4171 17.5903 L109.4171 9.0278 ZM110.4171 12.684 L112.0577 12.684 Q113.1202 12.684 113.5811 12.3559 Q114.0421 12.0278 114.0421 11.2465 Q114.0421 10.5278 113.5264 10.2074 Q113.0108 9.8871 111.8858 9.8871 L110.4171 9.8871 L110.4171 12.684 ZM110.4171 13.5278 L110.4171 16.7465 L112.2139 16.7465 Q113.2452 16.7465 113.7686 16.3403 Q114.2921 15.934 114.2921 15.0746 Q114.2921 14.2778 113.753 13.9028 Q113.2139 13.5278 112.1202 13.5278 L110.4171 13.5278 ZM119.9893 11.0434 Q120.4112 11.0434 120.7549 11.1215 L120.6143 12.0278 Q120.2237 11.934 119.9112 11.934 Q119.1299 11.934 118.5753 12.5668 Q118.0206 13.1996 118.0206 14.1371 L118.0206 17.5903 L117.0518 17.5903 L117.0518 11.1684 L117.8487 11.1684 L117.9737 12.3559 L118.0206 12.3559 Q118.3643 11.7309 118.8721 11.3871 Q119.3799 11.0434 119.9893 11.0434 Z" /></ns0:g><ns0:g transform="translate(118,90)" style="stroke-linecap:butt; font-size:8.4px; fill:gray; text-rendering:geometricPrecision; image-rendering:optimizeQuality; color-rendering:optimizeQuality; font-family:'Open Sans'; font-style:italic; stroke:gray; color-interpolation:linearRGB; stroke-miterlimit:5;"><ns0:path style="stroke:none;" d="M-46.1325 -41.4544 Q-46.1325 -42.7825 -45.6637 -43.9075 Q-45.195 -45.0325 -44.1637 -46.1107 L-43.5543 -46.1107 Q-44.5231 -45.0482 -45.0075 -43.8763 Q-45.4918 -42.7044 -45.4918 -41.47 Q-45.4918 -40.1419 -45.0543 -39.1263 L-45.57 -39.1263 Q-46.1325 -40.1575 -46.1325 -41.4544 ZM-40.5099 -42.0482 Q-40.5099 -41.22 -41.0568 -40.7669 Q-41.6037 -40.3138 -42.6037 -40.3138 Q-43.0099 -40.3138 -43.3224 -40.3685 Q-43.6349 -40.4232 -43.9162 -40.5638 L-43.9162 -41.22 Q-43.2912 -40.8919 -42.588 -40.8919 Q-41.963 -40.8919 -41.588 -41.1888 Q-41.213 -41.4857 -41.213 -42.0013 Q-41.213 -42.3138 -41.4162 -42.5404 Q-41.6193 -42.7669 -42.1818 -43.095 Q-42.7755 -43.4232 -43.0021 -43.7513 Q-43.2287 -44.0794 -43.2287 -44.5325 Q-43.2287 -45.2669 -42.713 -45.7279 Q-42.1974 -46.1888 -41.3537 -46.1888 Q-40.9787 -46.1888 -40.6427 -46.1107 Q-40.3068 -46.0325 -39.9318 -45.8607 L-40.1974 -45.2669 Q-40.4474 -45.4232 -40.7677 -45.5091 Q-41.088 -45.595 -41.3537 -45.595 Q-41.8849 -45.595 -42.2052 -45.3216 Q-42.5255 -45.0482 -42.5255 -44.5794 Q-42.5255 -44.3763 -42.4552 -44.2279 Q-42.3849 -44.0794 -42.2443 -43.9466 Q-42.1037 -43.8138 -41.6818 -43.5638 Q-41.1193 -43.22 -40.9162 -43.0247 Q-40.713 -42.8294 -40.6115 -42.595 Q-40.5099 -42.3607 -40.5099 -42.0482 ZM-37.9154 -43.7669 Q-37.9154 -42.4388 -38.392 -41.306 Q-38.8685 -40.1732 -39.8842 -39.1263 L-40.4935 -39.1263 Q-38.556 -41.2825 -38.556 -43.7669 Q-38.556 -45.095 -38.9935 -46.1107 L-38.4779 -46.1107 Q-37.9154 -45.0482 -37.9154 -43.7669 Z" /></ns0:g><ns0:g transform="translate(118,90)" style="stroke-linecap:butt; fill:rgb(0,5,255); text-rendering:geometricPrecision; color-rendering:optimizeQuality; image-rendering:optimizeQuality; font-family:'Open Sans'; stroke:rgb(0,5,255); color-interpolation:linearRGB; stroke-miterlimit:5;"><ns0:path style="stroke:none;" d="M-55.9824 -18.4428 L-57.1231 -18.4428 L-61.8106 -25.6303 L-61.8574 -25.6303 Q-61.7637 -24.3646 -61.7637 -23.3178 L-61.7637 -18.4428 L-62.6856 -18.4428 L-62.6856 -27.0053 L-61.5606 -27.0053 L-56.8887 -19.849 L-56.8418 -19.849 Q-56.8418 -20.0053 -56.8887 -20.8646 Q-56.9356 -21.724 -56.9199 -22.099 L-56.9199 -27.0053 L-55.9824 -27.0053 L-55.9824 -18.4428 Z" /></ns0:g><ns0:g transform="translate(118,90)" style="stroke-linecap:butt; font-size:8.4px; fill:gray; text-rendering:geometricPrecision; image-rendering:optimizeQuality; color-rendering:optimizeQuality; font-family:'Open Sans'; font-style:italic; stroke:gray; color-interpolation:linearRGB; stroke-miterlimit:5;"><ns0:path style="stroke:none;" d="M-37.444 -76.2789 Q-37.444 -77.607 -36.9753 -78.732 Q-36.5065 -79.857 -35.4753 -80.9351 L-34.8659 -80.9351 Q-35.8347 -79.8726 -36.319 -78.7007 Q-36.8034 -77.5289 -36.8034 -76.2945 Q-36.8034 -74.9664 -36.3659 -73.9507 L-36.8815 -73.9507 Q-37.444 -74.982 -37.444 -76.2789 ZM-31.8215 -76.8726 Q-31.8215 -76.0445 -32.3684 -75.5914 Q-32.9152 -75.1382 -33.9152 -75.1382 Q-34.3215 -75.1382 -34.634 -75.1929 Q-34.9465 -75.2476 -35.2277 -75.3882 L-35.2277 -76.0445 Q-34.6027 -75.7164 -33.8996 -75.7164 Q-33.2746 -75.7164 -32.8996 -76.0132 Q-32.5246 -76.3101 -32.5246 -76.8257 Q-32.5246 -77.1382 -32.7277 -77.3648 Q-32.9309 -77.5914 -33.4934 -77.9195 Q-34.0871 -78.2476 -34.3137 -78.5757 Q-34.5402 -78.9039 -34.5402 -79.357 Q-34.5402 -80.0914 -34.0246 -80.5523 Q-33.509 -81.0132 -32.6652 -81.0132 Q-32.2902 -81.0132 -31.9543 -80.9351 Q-31.6184 -80.857 -31.2434 -80.6851 L-31.509 -80.0914 Q-31.759 -80.2476 -32.0793 -80.3336 Q-32.3996 -80.4195 -32.6652 -80.4195 Q-33.1965 -80.4195 -33.5168 -80.1461 Q-33.8371 -79.8726 -33.8371 -79.4039 Q-33.8371 -79.2007 -33.7668 -79.0523 Q-33.6965 -78.9039 -33.5559 -78.7711 Q-33.4152 -78.6382 -32.9934 -78.3882 Q-32.4309 -78.0445 -32.2277 -77.8492 Q-32.0246 -77.6539 -31.923 -77.4195 Q-31.8215 -77.1851 -31.8215 -76.8726 ZM-29.227 -78.5914 Q-29.227 -77.2632 -29.7036 -76.1304 Q-30.1801 -74.9976 -31.1958 -73.9507 L-31.8051 -73.9507 Q-29.8676 -76.107 -29.8676 -78.5914 Q-29.8676 -79.9195 -30.3051 -80.9351 L-29.7895 -80.9351 Q-29.227 -79.8726 -29.227 -78.5914 Z" /><ns0:path style="stroke:none;" d="M-89.5953 -26.24 Q-89.5953 -27.5681 -89.1265 -28.6931 Q-88.6578 -29.8181 -87.6265 -30.8963 L-87.0171 -30.8963 Q-87.9859 -29.8338 -88.4703 -28.6619 Q-88.9546 -27.49 -88.9546 -26.2556 Q-88.9546 -24.9275 -88.5171 -23.9119 L-89.0328 -23.9119 Q-89.5953 -24.9431 -89.5953 -26.24 ZM-86.0352 -27.5525 L-86.5352 -25.1775 L-87.1914 -25.1775 L-85.9883 -30.8963 L-84.7383 -30.8963 Q-83.0039 -30.8963 -83.0039 -29.4588 Q-83.0039 -28.0994 -84.4414 -27.7088 L-83.5039 -25.1775 L-84.2227 -25.1775 L-85.0508 -27.5525 L-86.0352 -27.5525 ZM-85.4571 -30.3025 Q-85.8477 -28.3806 -85.9102 -28.1306 L-85.2539 -28.1306 Q-84.5039 -28.1306 -84.0977 -28.4588 Q-83.6914 -28.7869 -83.6914 -29.4119 Q-83.6914 -29.8806 -83.9493 -30.0916 Q-84.2071 -30.3025 -84.8008 -30.3025 L-85.4571 -30.3025 ZM-80.818 -28.5525 Q-80.818 -27.2244 -81.2945 -26.0916 Q-81.7711 -24.9588 -82.7867 -23.9119 L-83.3961 -23.9119 Q-81.4586 -26.0681 -81.4586 -28.5525 Q-81.4586 -29.8806 -81.8961 -30.8963 L-81.3805 -30.8963 Q-80.818 -29.8338 -80.818 -28.5525 Z" /><ns0:path style="fill:none; stroke:black;" d="M-58.9097 -82.2085 L-59.343 -82.458 L-59.7756 -82.2073" /><ns0:path style="fill:none; stroke:black;" d="M-85.2981 -66.919 L-85.299 -67.419 L-84.8664 -67.6697" /></ns0:g><ns0:g transform="translate(118,90)" style="stroke-linecap:butt; fill:rgb(0,5,255); text-rendering:geometricPrecision; color-rendering:optimizeQuality; image-rendering:optimizeQuality; font-family:'Open Sans'; stroke:rgb(0,5,255); color-interpolation:linearRGB; stroke-miterlimit:5;"><ns0:path style="stroke:none;" d="M-0.9054 11.3532 L-2.0461 11.3532 L-6.7336 4.1657 L-6.7804 4.1657 Q-6.6867 5.4314 -6.6867 6.4782 L-6.6867 11.3532 L-7.6086 11.3532 L-7.6086 2.7907 L-6.4836 2.7907 L-1.8117 9.947 L-1.7648 9.947 Q-1.7648 9.7907 -1.8117 8.9314 Q-1.8586 8.072 -1.8429 7.697 L-1.8429 2.7907 L-0.9054 2.7907 L-0.9054 11.3532 Z" /><ns0:path style="stroke:none;" d="M-8.6086 11.3532 L-9.6086 11.3532 L-9.6086 7.322 L-14.1242 7.322 L-14.1242 11.3532 L-15.1242 11.3532 L-15.1242 2.7907 L-14.1242 2.7907 L-14.1242 6.4314 L-9.6086 6.4314 L-9.6086 2.7907 L-8.6086 2.7907 L-8.6086 11.3532 Z" /><ns0:path style="stroke:none;" d="M23.3646 -30.6857 L22.2239 -30.6857 L17.5364 -37.8732 L17.4896 -37.8732 Q17.5833 -36.6076 17.5833 -35.5607 L17.5833 -30.6857 L16.6614 -30.6857 L16.6614 -39.2482 L17.7864 -39.2482 L22.4583 -32.092 L22.5052 -32.092 Q22.5052 -32.2482 22.4583 -33.1076 Q22.4114 -33.967 22.4271 -34.342 L22.4271 -39.2482 L23.3646 -39.2482 L23.3646 -30.6857 Z" /><ns0:path style="fill:none; stroke:black;" d="M25.336 13.867 L25.086 13.434 L24.5969 13.33" /><ns0:path style="fill:none; stroke:black;" d="M40.586 -12.546 L40.086 -12.546 L39.7515 -12.9176" /><ns0:path style="fill:none; stroke:black;" d="M39.836 38.981 L40.086 39.414 L40.586 39.414" /><ns0:path style="fill:none; stroke:black;" d="M69.586 -12.546 L70.086 -12.546 L70.336 -12.113" /><ns0:path style="fill:none; stroke:black;" d="M69.586 39.414 L70.086 39.414 L70.336 38.981" /><ns0:path style="fill:none; stroke:black;" d="M84.836 13.867 L85.086 13.434 L85.586 13.434" /><ns0:path style="fill:black; stroke:none;" d="M-4.0892 -78.3228 L-5.0892 -78.3228 L-5.0892 -82.354 L-9.6048 -82.354 L-9.6048 -78.3228 L-10.6048 -78.3228 L-10.6048 -86.8853 L-9.6048 -86.8853 L-9.6048 -83.2446 L-5.0892 -83.2446 L-5.0892 -86.8853 L-4.0892 -86.8853 L-4.0892 -78.3228 Z" /><ns0:path style="fill:black; stroke:none;" d="M-107.9222 -18.1637 L-108.9222 -18.1637 L-108.9222 -22.195 L-113.4378 -22.195 L-113.4378 -18.1637 L-114.4378 -18.1637 L-114.4378 -26.7262 L-113.4378 -26.7262 L-113.4378 -23.0856 L-108.9222 -23.0856 L-108.9222 -26.7262 L-107.9222 -26.7262 L-107.9222 -18.1637 Z" /></ns0:g></ns0:g></ns0:svg></ns0:svg></ns0:svg></ns0:svg></g></svg>