<svg xmlns:ns0="http://www.w3.org/2000/svg" xmlns="http://www.w3.org/2000/svg"><g transform="translate(0, 0)"><ns0:svg width="144" viewBox="0 0 144 89" style="fill-opacity:1; color-rendering:auto; color-interpolation:auto; text-rendering:auto; stroke:black; stroke-linecap:square; stroke-miterlimit:10; shape-rendering:auto; stroke-opacity:1; fill:black; stroke-dasharray:none; font-weight:normal; stroke-width:1; font-family:'Open Sans'; font-style:normal; stroke-linejoin:miter; font-size:12; stroke-dashoffset:0; image-rendering:auto;" height="89" class="cas-substance-image"><ns0:svg class="cas-substance-single-component"><ns0:rect y="0" x="0" width="144" stroke="none" ry="7" rx="7" height="89" fill="white" class="cas-substance-group" /><ns0:svg y="0" x="0" width="144" viewBox="0 0 144 89" style="fill:black;" height="89" class="cas-substance-single-component-image"><ns0:svg><ns0:g><ns0:g transform="translate(79,46)" style="text-rendering:geometricPrecision; color-rendering:optimizeQuality; color-interpolation:linearRGB; stroke-linecap:butt; image-rendering:optimizeQuality;"><ns0:line y2="12.99" y1="38.97" x2="-15" x1="-30" style="fill:none;" /><ns0:line y2="-12.99" y1="-12.99" x2="-30" x1="-54.6484" style="fill:none;" /><ns0:line y2="-12.99" y1="-12.99" x2="30" x1="55.6094" style="fill:none;" /><ns0:line y2="-12.99" y1="12.99" x2="-30" x1="-15" style="fill:none;" /><ns0:line y2="-12.9901" y1="9.49" x2="-25.9585" x1="-12.9793" style="fill:none;" /><ns0:line y2="12.99" y1="12.99" x2="15" x1="-15" style="fill:none;" /><ns0:line y2="-33.0817" y1="-12.99" x2="-18.3997" x1="-30" style="fill:none;" /><ns0:line y2="-12.99" y1="12.99" x2="30" x1="15" style="fill:none;" /><ns0:line y2="-12.9901" y1="9.49" x2="25.9585" x1="12.9793" style="fill:none;" /><ns0:line y2="-38.97" y1="-38.97" x2="15" x1="-9.6484" style="fill:none;" /><ns0:line y2="-35.47" y1="-35.47" x2="12.9793" x1="-9.6484" style="fill:none;" /><ns0:line y2="-38.97" y1="-12.99" x2="15" x1="30" style="fill:none;" /></ns0:g><ns0:g transform="translate(79,46)" style="fill:rgb(0,5,255); text-rendering:geometricPrecision; color-rendering:optimizeQuality; image-rendering:optimizeQuality; font-family:'Open Sans'; stroke:rgb(0,5,255); color-interpolation:linearRGB;"><ns0:path style="stroke:none;" d="M-56.6484 -8.8337 L-57.7891 -8.8337 L-62.4766 -16.0212 L-62.5234 -16.0212 Q-62.4297 -14.7556 -62.4297 -13.7087 L-62.4297 -8.8337 L-63.3516 -8.8337 L-63.3516 -17.3962 L-62.2266 -17.3962 L-57.5547 -10.24 L-57.5078 -10.24 Q-57.5078 -10.3962 -57.5547 -11.2556 Q-57.6016 -12.115 -57.5859 -12.49 L-57.5859 -17.3962 L-56.6484 -17.3962 L-56.6484 -8.8337 Z" /><ns0:path style="stroke:none;" d="M-69.1016 -8.8337 L-70.1016 -8.8337 L-70.1016 -12.865 L-74.6172 -12.865 L-74.6172 -8.8337 L-75.6172 -8.8337 L-75.6172 -17.3962 L-74.6172 -17.3962 L-74.6172 -13.7556 L-70.1016 -13.7556 L-70.1016 -17.3962 L-69.1016 -17.3962 L-69.1016 -8.8337 Z" /><ns0:path style="stroke:none;" d="M-64.3516 -7.0244 L-68.1016 -7.0244 L-68.1016 -7.5869 L-66.6016 -9.1025 Q-65.9141 -9.79 -65.6953 -10.0869 Q-65.4766 -10.3837 -65.3672 -10.665 Q-65.2578 -10.9462 -65.2578 -11.2744 Q-65.2578 -11.7275 -65.5312 -11.9931 Q-65.8047 -12.2587 -66.3047 -12.2587 Q-66.6484 -12.2587 -66.9688 -12.1416 Q-67.2891 -12.0244 -67.6797 -11.7275 L-68.0234 -12.165 Q-67.2422 -12.8212 -66.3047 -12.8212 Q-65.5078 -12.8212 -65.0469 -12.4072 Q-64.5859 -11.9931 -64.5859 -11.3056 Q-64.5859 -10.7587 -64.8906 -10.2275 Q-65.1953 -9.6962 -66.0391 -8.8837 L-67.2891 -7.665 L-67.2891 -7.6337 L-64.3516 -7.6337 L-64.3516 -7.0244 Z" /><ns0:path style="fill:rgb(0,138,0); stroke:none;" d="M58.6094 -8.8337 L57.6094 -8.8337 L57.6094 -17.3962 L62.3906 -17.3962 L62.3906 -16.5212 L58.6094 -16.5212 L58.6094 -13.3806 L62.1562 -13.3806 L62.1562 -12.49 L58.6094 -12.49 L58.6094 -8.8337 Z" /></ns0:g><ns0:g transform="translate(79,46)" style="stroke-linecap:butt; text-rendering:geometricPrecision; color-rendering:optimizeQuality; image-rendering:optimizeQuality; font-family:'Open Sans'; color-interpolation:linearRGB; stroke-miterlimit:5;"><ns0:path style="fill:none;" d="M-15.25 12.557 L-15 12.99 L-15.25 13.423" /><ns0:path style="fill:none;" d="M-29.75 -12.557 L-30 -12.99 L-30.5 -12.99" /><ns0:path style="fill:none;" d="M14.5 12.99 L15 12.99 L15.25 12.557" /><ns0:path style="fill:rgb(0,5,255); stroke:none;" d="M-11.6484 -34.8138 L-12.7891 -34.8138 L-17.4766 -42.0013 L-17.5234 -42.0013 Q-17.4297 -40.7356 -17.4297 -39.6888 L-17.4297 -34.8138 L-18.3516 -34.8138 L-18.3516 -43.3763 L-17.2266 -43.3763 L-12.5547 -36.22 L-12.5078 -36.22 Q-12.5078 -36.3763 -12.5547 -37.2356 Q-12.6016 -38.095 -12.5859 -38.47 L-12.5859 -43.3763 L-11.6484 -43.3763 L-11.6484 -34.8138 Z" /><ns0:path style="fill:none;" d="M29.75 -12.557 L30 -12.99 L30.5 -12.99" /><ns0:path style="fill:none;" d="M14.5 -38.97 L15 -38.97 L15.25 -38.537" /></ns0:g></ns0:g></ns0:svg></ns0:svg></ns0:svg></ns0:svg></g></svg>