<svg width="100" viewBox="0 0 100 58" style="fill-opacity:1; color-rendering:auto; color-interpolation:auto; text-rendering:auto; stroke:black; stroke-linecap:square; stroke-miterlimit:10; shape-rendering:auto; stroke-opacity:1; fill:black; stroke-dasharray:none; font-weight:normal; stroke-width:1; font-family:'Open Sans'; font-style:normal; stroke-linejoin:miter; font-size:12; stroke-dashoffset:0; image-rendering:auto;" height="58" class="cas-substance-image" xmlns:xlink="http://www.w3.org/1999/xlink" xmlns="http://www.w3.org/2000/svg"><svg class="cas-substance-single-component"><rect y="0" x="0" width="100" stroke="none" ry="7" rx="7" height="58" fill="white" class="cas-substance-group"/><svg y="0" x="20" width="59" viewBox="0 0 59 58" style="fill:black;" height="58" class="cas-substance-single-component-image"><svg><g><g transform="translate(29,27)" style="text-rendering:geometricPrecision; color-rendering:optimizeQuality; color-interpolation:linearRGB; stroke-linecap:butt; image-rendering:optimizeQuality;"><line y2="-22.5" y1="-7.5" x2="-25.98" x1="0" style="fill:none;"/><line y2="-20.9845" y1="-5.4793" x2="26.855" x1="-0" style="fill:none;"/><line y2="-24.0155" y1="-8.5104" x2="25.105" x1="-1.75" style="fill:none;"/><line y2="16.1138" y1="-7.5" x2="0" x1="0" style="fill:none;"/><path style="fill:none; stroke-miterlimit:5;" d="M-0.433 -7.75 L0 -7.5 L-0 -7"/></g><g transform="translate(29,27)" style="stroke-linecap:butt; fill:rgb(0,138,0); text-rendering:geometricPrecision; color-rendering:optimizeQuality; image-rendering:optimizeQuality; font-family:'Open Sans'; stroke:rgb(0,138,0); color-interpolation:linearRGB; stroke-miterlimit:5;"><path style="stroke:none;" d="M-0.3086 19.1406 Q-1.7148 19.1406 -2.5352 20.0781 Q-3.3555 21.0156 -3.3555 22.6562 Q-3.3555 24.3281 -2.5664 25.25 Q-1.7773 26.1719 -0.3242 26.1719 Q0.582 26.1719 1.7227 25.8438 L1.7227 26.7188 Q0.832 27.0625 -0.4648 27.0625 Q-2.3555 27.0625 -3.3867 25.9062 Q-4.418 24.75 -4.418 22.6406 Q-4.418 21.3125 -3.9258 20.3203 Q-3.4336 19.3281 -2.4961 18.7891 Q-1.5586 18.25 -0.293 18.25 Q1.0508 18.25 2.0664 18.7344 L1.6445 19.5938 Q0.6602 19.1406 -0.3086 19.1406 ZM4.418 26.9375 L3.4492 26.9375 L3.4492 17.8125 L4.418 17.8125 L4.418 26.9375 Z"/></g></g></svg></svg></svg></svg>