<svg xmlns:ns0="http://www.w3.org/2000/svg" xmlns="http://www.w3.org/2000/svg"><g transform="translate(0, 0)"><ns0:svg width="100" viewBox="0 0 100 75" style="fill-opacity:1; color-rendering:auto; color-interpolation:auto; text-rendering:auto; stroke:black; stroke-linecap:square; stroke-miterlimit:10; shape-rendering:auto; stroke-opacity:1; fill:black; stroke-dasharray:none; font-weight:normal; stroke-width:1; font-family:'Open Sans'; font-style:normal; stroke-linejoin:miter; font-size:12; stroke-dashoffset:0; image-rendering:auto;" height="75" class="cas-substance-image"><ns0:svg class="cas-substance-single-component"><ns0:rect y="0" x="0" width="100" stroke="none" ry="7" rx="7" height="75" fill="white" class="cas-substance-group" /><ns0:svg y="0" x="12" width="75" viewBox="0 0 75 75" style="fill:black;" height="75" class="cas-substance-single-component-image"><ns0:svg><ns0:g><ns0:g transform="translate(35,37)" style="text-rendering:geometricPrecision; color-rendering:optimizeQuality; color-interpolation:linearRGB; stroke-linecap:butt; image-rendering:optimizeQuality;"><ns0:line y2="0" y1="0" x2="-25.8147" x1="-4.9688" style="fill:none;" /><ns0:line y2="0" y1="0" x2="25.6094" x1="14.4531" style="fill:none;" /><ns0:line y2="23.5938" y1="6.1562" x2="0" x1="0" style="fill:none;" /><ns0:line y2="-25.2773" y1="-6.4062" x2="0" x1="0" style="fill:none;" /><ns0:path style="stroke-linecap:square; stroke:none;" d="M-2.9688 -4.4062 L-0.5469 -4.4062 Q1.1562 -4.4062 1.9219 -3.8984 Q2.6875 -3.3906 2.6875 -2.2969 Q2.6875 -1.5312 2.2656 -1.0312 Q1.8438 -0.5312 1.0156 -0.3906 L1.0156 -0.3281 Q2.9688 0 2.9688 1.7188 Q2.9688 2.8594 2.1953 3.5078 Q1.4219 4.1562 0.0312 4.1562 L-2.9688 4.1562 L-2.9688 -4.4062 ZM-1.9688 -0.75 L-0.3281 -0.75 Q0.7344 -0.75 1.1953 -1.0781 Q1.6562 -1.4062 1.6562 -2.1875 Q1.6562 -2.9062 1.1406 -3.2266 Q0.625 -3.5469 -0.5 -3.5469 L-1.9688 -3.5469 L-1.9688 -0.75 ZM-1.9688 0.0938 L-1.9688 3.3125 L-0.1719 3.3125 Q0.8594 3.3125 1.3828 2.9062 Q1.9062 2.5 1.9062 1.6406 Q1.9062 0.8438 1.3672 0.4688 Q0.8281 0.0938 -0.2656 0.0938 L-1.9688 0.0938 Z" /><ns0:path style="stroke-linecap:square; stroke:none;" d="M7.5312 -4.0844 Q7.5312 -3.5375 7.2188 -3.1859 Q6.9062 -2.8344 6.3438 -2.725 L6.3438 -2.6938 Q7.0312 -2.6 7.3672 -2.2484 Q7.7031 -1.8969 7.7031 -1.3344 Q7.7031 -0.5063 7.1328 -0.0688 Q6.5625 0.3687 5.5312 0.3687 Q5.0781 0.3687 4.6953 0.2984 Q4.3125 0.2281 3.9688 0.0562 L3.9688 -0.5531 Q4.3281 -0.3813 4.75 -0.2797 Q5.1719 -0.1781 5.5469 -0.1781 Q7.0312 -0.1781 7.0312 -1.35 Q7.0312 -2.3813 5.3906 -2.3813 L4.8281 -2.3813 L4.8281 -2.9438 L5.4062 -2.9438 Q6.0781 -2.9438 6.4688 -3.2406 Q6.8594 -3.5375 6.8594 -4.0531 Q6.8594 -4.475 6.5703 -4.7094 Q6.2812 -4.9438 5.7812 -4.9438 Q5.4062 -4.9438 5.0781 -4.8422 Q4.75 -4.7406 4.3281 -4.475 L4 -4.9125 Q4.3438 -5.1938 4.8047 -5.35 Q5.2656 -5.5063 5.7656 -5.5063 Q6.6094 -5.5063 7.0703 -5.1234 Q7.5312 -4.7406 7.5312 -4.0844 Z" /><ns0:path style="stroke-linecap:square; stroke:none;" d="M10.8438 -2.8344 L12.4531 -2.8344 L12.4531 -2.2875 L10.8438 -2.2875 L10.8438 -0.6313 L10.3125 -0.6313 L10.3125 -2.2875 L8.7031 -2.2875 L8.7031 -2.8344 L10.3125 -2.8344 L10.3125 -4.5063 L10.8438 -4.5063 L10.8438 -2.8344 Z" /></ns0:g><ns0:g transform="translate(35,37)" style="fill:rgb(0,138,0); text-rendering:geometricPrecision; color-rendering:optimizeQuality; image-rendering:optimizeQuality; font-family:'Open Sans'; stroke:rgb(0,138,0); color-interpolation:linearRGB;"><ns0:path style="stroke:none;" d="M-31.3906 4.1562 L-32.3906 4.1562 L-32.3906 -4.4062 L-27.6094 -4.4062 L-27.6094 -3.5312 L-31.3906 -3.5312 L-31.3906 -0.3906 L-27.8438 -0.3906 L-27.8438 0.5 L-31.3906 0.5 L-31.3906 4.1562 Z" /><ns0:path style="fill:black; stroke:none;" d="M-26.6094 -2.2719 L-26.6094 -2.8656 L-23.25 -2.8656 L-23.25 -2.2719 L-26.6094 -2.2719 Z" /><ns0:path style="stroke:none;" d="M28.6094 4.1562 L27.6094 4.1562 L27.6094 -4.4062 L32.3906 -4.4062 L32.3906 -3.5312 L28.6094 -3.5312 L28.6094 -0.3906 L32.1562 -0.3906 L32.1562 0.5 L28.6094 0.5 L28.6094 4.1562 Z" /><ns0:path style="fill:black; stroke:none;" d="M33.3906 -2.2719 L33.3906 -2.8656 L36.75 -2.8656 L36.75 -2.2719 L33.3906 -2.2719 Z" /><ns0:path style="stroke:none;" d="M-1.3906 34.1562 L-2.3906 34.1562 L-2.3906 25.5938 L2.3906 25.5938 L2.3906 26.4688 L-1.3906 26.4688 L-1.3906 29.6094 L2.1562 29.6094 L2.1562 30.5 L-1.3906 30.5 L-1.3906 34.1562 Z" /><ns0:path style="fill:black; stroke:none;" d="M3.3906 27.7281 L3.3906 27.1344 L6.75 27.1344 L6.75 27.7281 L3.3906 27.7281 Z" /><ns0:path style="stroke:none;" d="M-1.3906 -25.8438 L-2.3906 -25.8438 L-2.3906 -34.4062 L2.3906 -34.4062 L2.3906 -33.5312 L-1.3906 -33.5312 L-1.3906 -30.3906 L2.1562 -30.3906 L2.1562 -29.5 L-1.3906 -29.5 L-1.3906 -25.8438 Z" /><ns0:path style="fill:black; stroke:none;" d="M3.3906 -32.2719 L3.3906 -32.8656 L6.75 -32.8656 L6.75 -32.2719 L3.3906 -32.2719 Z" /></ns0:g></ns0:g></ns0:svg></ns0:svg></ns0:svg></ns0:svg></g><g transform="translate(100, 0)"><ns0:svg width="179" viewBox="0 0 179 117" style="fill-opacity:1; color-rendering:auto; color-interpolation:auto; text-rendering:auto; stroke:black; stroke-linecap:square; stroke-miterlimit:10; shape-rendering:auto; stroke-opacity:1; fill:black; stroke-dasharray:none; font-weight:normal; stroke-width:1; font-family:'Open Sans'; font-style:normal; stroke-linejoin:miter; font-size:12; stroke-dashoffset:0; image-rendering:auto;" height="117" class="cas-substance-image"><ns0:svg class="cas-substance-single-component"><ns0:rect y="0" x="0" width="179" stroke="none" ry="7" rx="7" height="117" fill="white" class="cas-substance-group" /><ns0:svg y="0" x="0" width="179" viewBox="0 0 179 117" style="fill:black;" height="117" class="cas-substance-single-component-image"><ns0:svg><ns0:g><ns0:g transform="translate(89,59)" style="text-rendering:geometricPrecision; color-rendering:optimizeQuality; color-interpolation:linearRGB; stroke-linecap:butt; image-rendering:optimizeQuality;"><ns0:line y2="-25.98" y1="-6.1383" x2="52.5" x1="41.044" style="fill:none;" /><ns0:line y2="0" y1="0" x2="7.5" x1="32.1484" style="fill:none;" /><ns0:line y2="-51.963" y1="-25.98" x2="37.5" x1="52.5" style="fill:none;" /><ns0:line y2="-24.23" y1="-24.23" x2="76.5625" x1="51.4896" style="fill:none;" /><ns0:line y2="-27.73" y1="-27.73" x2="76.5625" x1="51.4897" style="fill:none;" /><ns0:line y2="-25.98" y1="-36.24" x2="-37.5" x1="-65.691" style="fill:none;" /><ns0:line y2="-25.98" y1="-55.524" x2="-37.5" x1="-32.292" style="fill:none;" /><ns0:line y2="25.98" y1="55.524" x2="-37.5" x1="-32.292" style="fill:none;" /><ns0:line y2="25.98" y1="36.24" x2="-37.5" x1="-65.691" style="fill:none;" /><ns0:line y2="1.75" y1="1.75" x2="-57.8516" x1="-76.5625" style="fill:none;" /><ns0:line y2="-1.75" y1="-1.75" x2="-57.8516" x1="-76.5625" style="fill:none;" /><ns0:line y2="-25.98" y1="0" x2="-7.5" x1="7.5" style="fill:none;" /><ns0:line y2="25.98" y1="0" x2="-7.5" x1="7.5" style="fill:none;" /><ns0:line y2="-25.98" y1="-25.98" x2="-37.5" x1="-7.5" style="fill:none;" /><ns0:line y2="25.98" y1="25.98" x2="-37.5" x1="-7.5" style="fill:none;" /><ns0:line y2="-6.1383" y1="-25.98" x2="-48.956" x1="-37.5" style="fill:none;" /><ns0:line y2="5.8883" y1="25.98" x2="-49.1003" x1="-37.5" style="fill:none;" /></ns0:g><ns0:g transform="translate(89,59)" style="fill:rgb(0,5,255); text-rendering:geometricPrecision; color-rendering:optimizeQuality; image-rendering:optimizeQuality; font-family:'Open Sans'; stroke:rgb(0,5,255); color-interpolation:linearRGB;"><ns0:path style="stroke:none;" d="M40.8516 4.1562 L39.7109 4.1562 L35.0234 -3.0312 L34.9766 -3.0312 Q35.0703 -1.7656 35.0703 -0.7188 L35.0703 4.1562 L34.1484 4.1562 L34.1484 -4.4062 L35.2734 -4.4062 L39.9453 2.75 L39.9922 2.75 Q39.9922 2.5938 39.9453 1.7344 Q39.8984 0.875 39.9141 0.5 L39.9141 -4.4062 L40.8516 -4.4062 L40.8516 4.1562 Z" /><ns0:path style="stroke:none;" d="M40.7578 13.7188 L39.7578 13.7188 L39.7578 9.6875 L35.2422 9.6875 L35.2422 13.7188 L34.2422 13.7188 L34.2422 5.1562 L35.2422 5.1562 L35.2422 8.7969 L39.7578 8.7969 L39.7578 5.1562 L40.7578 5.1562 L40.7578 13.7188 Z" /></ns0:g><ns0:g transform="translate(89,59)" style="stroke-linecap:butt; text-rendering:geometricPrecision; color-rendering:optimizeQuality; image-rendering:optimizeQuality; font-family:'Open Sans'; color-interpolation:linearRGB; stroke-miterlimit:5;"><ns0:path style="fill:none;" d="M52.25 -25.547 L52.5 -25.98 L52.25 -26.413" /><ns0:path style="fill:rgb(230,0,0); stroke:none;" d="M86.4375 -26.0503 Q86.4375 -23.9878 85.3984 -22.8081 Q84.3594 -21.6284 82.5156 -21.6284 Q80.625 -21.6284 79.5938 -22.7925 Q78.5625 -23.9566 78.5625 -26.0659 Q78.5625 -28.1597 79.5938 -29.3081 Q80.625 -30.4566 82.5156 -30.4566 Q84.375 -30.4566 85.4062 -29.2847 Q86.4375 -28.1128 86.4375 -26.0503 ZM79.6094 -26.0503 Q79.6094 -24.3159 80.3516 -23.4097 Q81.0938 -22.5034 82.5156 -22.5034 Q83.9375 -22.5034 84.6641 -23.4019 Q85.3906 -24.3003 85.3906 -26.0503 Q85.3906 -27.7847 84.6641 -28.6753 Q83.9375 -29.5659 82.5156 -29.5659 Q81.0938 -29.5659 80.3516 -28.6675 Q79.6094 -27.7691 79.6094 -26.0503 Z" /><ns0:path style="fill:rgb(230,0,0); stroke:none;" d="M-78.5625 -0.0703 Q-78.5625 1.9922 -79.6016 3.1719 Q-80.6406 4.3516 -82.4844 4.3516 Q-84.375 4.3516 -85.4062 3.1875 Q-86.4375 2.0234 -86.4375 -0.0859 Q-86.4375 -2.1797 -85.4062 -3.3281 Q-84.375 -4.4766 -82.4844 -4.4766 Q-80.625 -4.4766 -79.5938 -3.3047 Q-78.5625 -2.1328 -78.5625 -0.0703 ZM-85.3906 -0.0703 Q-85.3906 1.6641 -84.6484 2.5703 Q-83.9062 3.4766 -82.4844 3.4766 Q-81.0625 3.4766 -80.3359 2.5781 Q-79.6094 1.6797 -79.6094 -0.0703 Q-79.6094 -1.8047 -80.3359 -2.6953 Q-81.0625 -3.5859 -82.4844 -3.5859 Q-83.9062 -3.5859 -84.6484 -2.6875 Q-85.3906 -1.7891 -85.3906 -0.0703 Z" /><ns0:path style="fill:none;" d="M-7.25 -25.547 L-7.5 -25.98 L-8 -25.98" /><ns0:path style="fill:none;" d="M-7.25 25.547 L-7.5 25.98 L-8 25.98" /><ns0:path style="fill:rgb(0,5,255); stroke:none;" d="M-49.1484 4.1562 L-50.2891 4.1562 L-54.9766 -3.0312 L-55.0234 -3.0312 Q-54.9297 -1.7656 -54.9297 -0.7188 L-54.9297 4.1562 L-55.8516 4.1562 L-55.8516 -4.4062 L-54.7266 -4.4062 L-50.0547 2.75 L-50.0078 2.75 Q-50.0078 2.5938 -50.0547 1.7344 Q-50.1016 0.875 -50.0859 0.5 L-50.0859 -4.4062 L-49.1484 -4.4062 L-49.1484 4.1562 Z" /><ns0:path style="stroke:none;" d="M-46.0078 -2.8344 L-44.3984 -2.8344 L-44.3984 -2.2875 L-46.0078 -2.2875 L-46.0078 -0.6313 L-46.5391 -0.6313 L-46.5391 -2.2875 L-48.1484 -2.2875 L-48.1484 -2.8344 L-46.5391 -2.8344 L-46.5391 -4.5063 L-46.0078 -4.5063 L-46.0078 -2.8344 Z" /></ns0:g></ns0:g></ns0:svg></ns0:svg></ns0:svg></ns0:svg></g></svg>