<svg xmlns:ns0="http://www.w3.org/2000/svg" xmlns="http://www.w3.org/2000/svg"><g transform="translate(0, 0)"><ns0:svg width="167" viewBox="0 0 167 97" style="fill-opacity:1; color-rendering:auto; color-interpolation:auto; text-rendering:auto; stroke:black; stroke-linecap:square; stroke-miterlimit:10; shape-rendering:auto; stroke-opacity:1; fill:black; stroke-dasharray:none; font-weight:normal; stroke-width:1; font-family:'Open Sans'; font-style:normal; stroke-linejoin:miter; font-size:12; stroke-dashoffset:0; image-rendering:auto;" height="97" class="cas-substance-image"><ns0:svg class="cas-substance-single-component"><ns0:rect y="0" x="0" width="167" stroke="none" ry="7" rx="7" height="97" fill="white" class="cas-substance-group" /><ns0:svg y="0" x="0" width="167" viewBox="0 0 167 97" style="fill:black;" height="97" class="cas-substance-single-component-image"><ns0:svg><ns0:g><ns0:g transform="translate(81,49)" style="text-rendering:geometricPrecision; color-rendering:optimizeQuality; color-interpolation:linearRGB; stroke-linecap:butt; image-rendering:optimizeQuality;"><ns0:line y2="0" y1="15" x2="-77.943" x1="-51.963" style="fill:none;" /><ns0:line y2="45" y1="15" x2="-51.963" x1="-51.963" style="fill:none;" /><ns0:line y2="0" y1="15" x2="-25.98" x1="-51.963" style="fill:none;" /><ns0:line y2="-33.2473" y1="-45" x2="72.3187" x1="51.963" style="fill:none;" /><ns0:line y2="-30" y1="-45" x2="25.98" x1="51.963" style="fill:none;" /><ns0:line y2="15" y1="0" x2="0" x1="-25.98" style="fill:none;" /><ns0:line y2="10.9585" y1="-2.0207" x2="0.0001" x1="-22.48" style="fill:none;" /><ns0:line y2="-30" y1="0" x2="-25.98" x1="-25.98" style="fill:none;" /><ns0:line y2="0" y1="15" x2="25.98" x1="0" style="fill:none;" /><ns0:line y2="-45" y1="-30" x2="0" x1="-25.98" style="fill:none;" /><ns0:line y2="-40.9585" y1="-27.9793" x2="0.0001" x1="-22.48" style="fill:none;" /><ns0:line y2="-30" y1="0" x2="25.98" x1="25.98" style="fill:none;" /><ns0:line y2="-27.9793" y1="-2.0207" x2="22.48" x1="22.48" style="fill:none;" /><ns0:line y2="-30" y1="-45" x2="25.98" x1="0" style="fill:none;" /><ns0:path style="fill:none; stroke-miterlimit:5;" d="M52.396 -44.75 L51.963 -45 L51.53 -44.75" /></ns0:g><ns0:g transform="translate(81,49)" style="stroke-linecap:butt; fill:rgb(0,138,0); text-rendering:geometricPrecision; color-rendering:optimizeQuality; image-rendering:optimizeQuality; font-family:'Open Sans'; stroke:rgb(0,138,0); color-interpolation:linearRGB; stroke-miterlimit:5;"><ns0:path style="stroke:none;" d="M77.6344 -33.3594 Q76.2282 -33.3594 75.4078 -32.4219 Q74.5875 -31.4844 74.5875 -29.8438 Q74.5875 -28.1719 75.3766 -27.25 Q76.1657 -26.3281 77.6188 -26.3281 Q78.525 -26.3281 79.6657 -26.6562 L79.6657 -25.7812 Q78.775 -25.4375 77.4782 -25.4375 Q75.5875 -25.4375 74.5563 -26.5938 Q73.525 -27.75 73.525 -29.8594 Q73.525 -31.1875 74.0172 -32.1797 Q74.5094 -33.1719 75.4469 -33.7109 Q76.3844 -34.25 77.65 -34.25 Q78.9938 -34.25 80.0094 -33.7656 L79.5875 -32.9062 Q78.6032 -33.3594 77.6344 -33.3594 ZM82.361 -25.5625 L81.3922 -25.5625 L81.3922 -34.6875 L82.361 -34.6875 L82.361 -25.5625 Z" /><ns0:path style="fill:none; stroke:black;" d="M-25.547 0.25 L-25.98 0 L-26.413 0.25" /><ns0:path style="fill:none; stroke:black;" d="M-0.433 14.75 L0 15 L0.433 14.75" /><ns0:path style="fill:none; stroke:black;" d="M-25.98 -29.5 L-25.98 -30 L-25.547 -30.25" /><ns0:path style="fill:none; stroke:black;" d="M25.547 0.25 L25.98 0 L25.98 -0.5" /><ns0:path style="fill:none; stroke:black;" d="M-0.433 -44.75 L0 -45 L0.433 -44.75" /><ns0:path style="fill:none; stroke:black;" d="M25.98 -29.5 L25.98 -30 L26.413 -30.25" /></ns0:g></ns0:g></ns0:svg></ns0:svg></ns0:svg></ns0:svg></g></svg>