<svg width="194" viewBox="0 0 194 67" style="fill-opacity:1; color-rendering:auto; color-interpolation:auto; text-rendering:auto; stroke:black; stroke-linecap:square; stroke-miterlimit:10; shape-rendering:auto; stroke-opacity:1; fill:black; stroke-dasharray:none; font-weight:normal; stroke-width:1; font-family:'Open Sans'; font-style:normal; stroke-linejoin:miter; font-size:12; stroke-dashoffset:0; image-rendering:auto;" height="67" class="cas-substance-image" xmlns:xlink="http://www.w3.org/1999/xlink" xmlns="http://www.w3.org/2000/svg"><svg class="cas-substance-single-component"><rect y="0" x="0" width="194" stroke="none" ry="7" rx="7" height="67" fill="white" class="cas-substance-group"/><svg y="0" x="0" width="194" viewBox="0 0 194 67" style="fill:black;" height="67" class="cas-substance-single-component-image"><svg><g><g transform="translate(97,33)" style="text-rendering:geometricPrecision; color-rendering:optimizeQuality; color-interpolation:linearRGB; stroke-linecap:butt; image-rendering:optimizeQuality;"><line y2="1.75" y1="1.75" x2="-64.6433" x1="-84.0625" style="fill:none;"/><line y2="-1.75" y1="-1.75" x2="-64.6433" x1="-84.0625" style="fill:none;"/><line y2="-1.75" y1="-1.75" x2="64.561" x1="84.0625" style="fill:none;"/><line y2="1.75" y1="1.75" x2="64.561" x1="84.0625" style="fill:none;"/><line y2="-25.98" y1="0" x2="-15" x1="0" style="fill:none;"/><line y2="25.98" y1="0" x2="15" x1="0" style="fill:none;"/><line y2="-25.98" y1="0" x2="15" x1="0" style="fill:none;"/><line y2="25.98" y1="0" x2="-15" x1="0" style="fill:none;"/><line y2="-25.98" y1="-25.98" x2="-39.0625" x1="-15" style="fill:none;"/><line y2="25.98" y1="25.98" x2="39.0625" x1="15" style="fill:none;"/><line y2="-25.98" y1="-25.98" x2="39.0625" x1="15" style="fill:none;"/><line y2="25.98" y1="25.98" x2="-39.0625" x1="-15" style="fill:none;"/><line y2="-5.1767" y1="-20.332" x2="-57.0112" x1="-48.261" style="fill:none;"/><line y2="5.5438" y1="20.2583" x2="56.7992" x1="48.3035" style="fill:none;"/><line y2="-5.399" y1="-20.3443" x2="56.8828" x1="48.2539" style="fill:none;"/><line y2="5.2936" y1="20.2524" x2="-56.9437" x1="-48.3069" style="fill:none;"/></g><g transform="translate(97,33)" style="fill:rgb(230,0,0); text-rendering:geometricPrecision; color-rendering:optimizeQuality; image-rendering:optimizeQuality; font-family:'Open Sans'; stroke:rgb(230,0,0); color-interpolation:linearRGB;"><path style="stroke:none;" d="M-86.0625 -0.0703 Q-86.0625 1.9922 -87.1016 3.1719 Q-88.1406 4.3516 -89.9844 4.3516 Q-91.875 4.3516 -92.9062 3.1875 Q-93.9375 2.0234 -93.9375 -0.0859 Q-93.9375 -2.1797 -92.9062 -3.3281 Q-91.875 -4.4766 -89.9844 -4.4766 Q-88.125 -4.4766 -87.0938 -3.3047 Q-86.0625 -2.1328 -86.0625 -0.0703 ZM-92.8906 -0.0703 Q-92.8906 1.6641 -92.1484 2.5703 Q-91.4062 3.4766 -89.9844 3.4766 Q-88.5625 3.4766 -87.8359 2.5781 Q-87.1094 1.6797 -87.1094 -0.0703 Q-87.1094 -1.8047 -87.8359 -2.6953 Q-88.5625 -3.5859 -89.9844 -3.5859 Q-91.4062 -3.5859 -92.1484 -2.6875 Q-92.8906 -1.7891 -92.8906 -0.0703 Z"/><path style="stroke:none;" d="M93.9375 -0.0703 Q93.9375 1.9922 92.8984 3.1719 Q91.8594 4.3516 90.0156 4.3516 Q88.125 4.3516 87.0938 3.1875 Q86.0625 2.0234 86.0625 -0.0859 Q86.0625 -2.1797 87.0938 -3.3281 Q88.125 -4.4766 90.0156 -4.4766 Q91.875 -4.4766 92.9062 -3.3047 Q93.9375 -2.1328 93.9375 -0.0703 ZM87.1094 -0.0703 Q87.1094 1.6641 87.8516 2.5703 Q88.5938 3.4766 90.0156 3.4766 Q91.4375 3.4766 92.1641 2.5781 Q92.8906 1.6797 92.8906 -0.0703 Q92.8906 -1.8047 92.1641 -2.6953 Q91.4375 -3.5859 90.0156 -3.5859 Q88.5938 -3.5859 87.8516 -2.6875 Q87.1094 -1.7891 87.1094 -0.0703 Z"/></g><g transform="translate(97,33)" style="stroke-linecap:butt; text-rendering:geometricPrecision; color-rendering:optimizeQuality; image-rendering:optimizeQuality; font-family:'Open Sans'; color-interpolation:linearRGB; stroke-miterlimit:5;"><path style="fill:none;" d="M-14.75 -25.547 L-15 -25.98 L-15.5 -25.98"/><path style="fill:none;" d="M14.75 25.547 L15 25.98 L15.5 25.98"/><path style="fill:none;" d="M14.75 -25.547 L15 -25.98 L15.5 -25.98"/><path style="fill:none;" d="M-14.75 25.547 L-15 25.98 L-15.5 25.98"/><path style="fill:rgb(230,0,0); stroke:none;" d="M-41.0625 -26.0503 Q-41.0625 -23.9878 -42.1016 -22.8081 Q-43.1406 -21.6284 -44.9844 -21.6284 Q-46.875 -21.6284 -47.9062 -22.7925 Q-48.9375 -23.9566 -48.9375 -26.0659 Q-48.9375 -28.1597 -47.9062 -29.3081 Q-46.875 -30.4566 -44.9844 -30.4566 Q-43.125 -30.4566 -42.0938 -29.2847 Q-41.0625 -28.1128 -41.0625 -26.0503 ZM-47.8906 -26.0503 Q-47.8906 -24.3159 -47.1484 -23.4097 Q-46.4062 -22.5034 -44.9844 -22.5034 Q-43.5625 -22.5034 -42.8359 -23.4019 Q-42.1094 -24.3003 -42.1094 -26.0503 Q-42.1094 -27.7847 -42.8359 -28.6753 Q-43.5625 -29.5659 -44.9844 -29.5659 Q-46.4062 -29.5659 -47.1484 -28.6675 Q-47.8906 -27.7691 -47.8906 -26.0503 Z"/><path style="fill:rgb(230,0,0); stroke:none;" d="M48.9375 25.9097 Q48.9375 27.9722 47.8984 29.1519 Q46.8594 30.3316 45.0156 30.3316 Q43.125 30.3316 42.0938 29.1675 Q41.0625 28.0034 41.0625 25.8941 Q41.0625 23.8003 42.0938 22.6519 Q43.125 21.5034 45.0156 21.5034 Q46.875 21.5034 47.9062 22.6753 Q48.9375 23.8472 48.9375 25.9097 ZM42.1094 25.9097 Q42.1094 27.6441 42.8516 28.5503 Q43.5938 29.4566 45.0156 29.4566 Q46.4375 29.4566 47.1641 28.5581 Q47.8906 27.6597 47.8906 25.9097 Q47.8906 24.1753 47.1641 23.2847 Q46.4375 22.3941 45.0156 22.3941 Q43.5938 22.3941 42.8516 23.2925 Q42.1094 24.1909 42.1094 25.9097 Z"/><path style="fill:rgb(230,0,0); stroke:none;" d="M48.9375 -26.0503 Q48.9375 -23.9878 47.8984 -22.8081 Q46.8594 -21.6284 45.0156 -21.6284 Q43.125 -21.6284 42.0938 -22.7925 Q41.0625 -23.9566 41.0625 -26.0659 Q41.0625 -28.1597 42.0938 -29.3081 Q43.125 -30.4566 45.0156 -30.4566 Q46.875 -30.4566 47.9062 -29.2847 Q48.9375 -28.1128 48.9375 -26.0503 ZM42.1094 -26.0503 Q42.1094 -24.3159 42.8516 -23.4097 Q43.5938 -22.5034 45.0156 -22.5034 Q46.4375 -22.5034 47.1641 -23.4019 Q47.8906 -24.3003 47.8906 -26.0503 Q47.8906 -27.7847 47.1641 -28.6753 Q46.4375 -29.5659 45.0156 -29.5659 Q43.5938 -29.5659 42.8516 -28.6675 Q42.1094 -27.7691 42.1094 -26.0503 Z"/><path style="fill:rgb(230,0,0); stroke:none;" d="M-41.0625 25.9097 Q-41.0625 27.9722 -42.1016 29.1519 Q-43.1406 30.3316 -44.9844 30.3316 Q-46.875 30.3316 -47.9062 29.1675 Q-48.9375 28.0034 -48.9375 25.8941 Q-48.9375 23.8003 -47.9062 22.6519 Q-46.875 21.5034 -44.9844 21.5034 Q-43.125 21.5034 -42.0938 22.6753 Q-41.0625 23.8472 -41.0625 25.9097 ZM-47.8906 25.9097 Q-47.8906 27.6441 -47.1484 28.5503 Q-46.4062 29.4566 -44.9844 29.4566 Q-43.5625 29.4566 -42.8359 28.5581 Q-42.1094 27.6597 -42.1094 25.9097 Q-42.1094 24.1753 -42.8359 23.2847 Q-43.5625 22.3941 -44.9844 22.3941 Q-46.4062 22.3941 -47.1484 23.2925 Q-47.8906 24.1909 -47.8906 25.9097 Z"/><path style="fill:rgb(148,108,0); stroke:none;" d="M-57.3047 1.9375 Q-57.3047 3.0625 -58.125 3.7031 Q-58.9453 4.3438 -60.3516 4.3438 Q-61.8828 4.3438 -62.6953 3.9375 L-62.6953 2.9844 Q-62.1641 3.2031 -61.5469 3.3359 Q-60.9297 3.4688 -60.3203 3.4688 Q-59.3203 3.4688 -58.8203 3.0859 Q-58.3203 2.7031 -58.3203 2.0312 Q-58.3203 1.5938 -58.5 1.3047 Q-58.6797 1.0156 -59.0938 0.7734 Q-59.5078 0.5312 -60.3672 0.2344 Q-61.5547 -0.1875 -62.0703 -0.7734 Q-62.5859 -1.3594 -62.5859 -2.3125 Q-62.5859 -3.2969 -61.8438 -3.8828 Q-61.1016 -4.4688 -59.8672 -4.4688 Q-58.6016 -4.4688 -57.5234 -4 L-57.8359 -3.1406 Q-58.8984 -3.5781 -59.8984 -3.5781 Q-60.6953 -3.5781 -61.1406 -3.2422 Q-61.5859 -2.9062 -61.5859 -2.2969 Q-61.5859 -1.8594 -61.4219 -1.5703 Q-61.2578 -1.2812 -60.8672 -1.0469 Q-60.4766 -0.8125 -59.6641 -0.5156 Q-58.3203 -0.0469 -57.8125 0.5078 Q-57.3047 1.0625 -57.3047 1.9375 Z"/><path style="fill:rgb(148,108,0); stroke:none;" d="M62.6953 1.9375 Q62.6953 3.0625 61.875 3.7031 Q61.0547 4.3438 59.6484 4.3438 Q58.1172 4.3438 57.3047 3.9375 L57.3047 2.9844 Q57.8359 3.2031 58.4531 3.3359 Q59.0703 3.4688 59.6797 3.4688 Q60.6797 3.4688 61.1797 3.0859 Q61.6797 2.7031 61.6797 2.0312 Q61.6797 1.5938 61.5 1.3047 Q61.3203 1.0156 60.9062 0.7734 Q60.4922 0.5312 59.6328 0.2344 Q58.4453 -0.1875 57.9297 -0.7734 Q57.4141 -1.3594 57.4141 -2.3125 Q57.4141 -3.2969 58.1562 -3.8828 Q58.8984 -4.4688 60.1328 -4.4688 Q61.3984 -4.4688 62.4766 -4 L62.1641 -3.1406 Q61.1016 -3.5781 60.1016 -3.5781 Q59.3047 -3.5781 58.8594 -3.2422 Q58.4141 -2.9062 58.4141 -2.2969 Q58.4141 -1.8594 58.5781 -1.5703 Q58.7422 -1.2812 59.1328 -1.0469 Q59.5234 -0.8125 60.3359 -0.5156 Q61.6797 -0.0469 62.1875 0.5078 Q62.6953 1.0625 62.6953 1.9375 Z"/></g></g></svg></svg></svg></svg>