<svg xmlns:ns0="http://www.w3.org/2000/svg" xmlns="http://www.w3.org/2000/svg"><g transform="translate(0, 0)"><ns0:svg width="200" viewBox="0 0 200 75" style="fill-opacity:1; color-rendering:auto; color-interpolation:auto; text-rendering:auto; stroke:black; stroke-linecap:square; stroke-miterlimit:10; shape-rendering:auto; stroke-opacity:1; fill:black; stroke-dasharray:none; font-weight:normal; stroke-width:1; font-family:'Open Sans'; font-style:normal; stroke-linejoin:miter; font-size:12; stroke-dashoffset:0; image-rendering:auto;" height="75" class="cas-substance-image"><ns0:svg class="cas-substance-single-component"><ns0:rect y="0" x="0" width="200" stroke="none" ry="7" rx="7" height="75" fill="white" class="cas-substance-group" /><ns0:svg y="0" x="0" width="200" viewBox="0 0 200 75" style="fill:black;" height="75" class="cas-substance-single-component-image"><ns0:svg><ns0:g><ns0:g transform="translate(105,37)" style="text-rendering:geometricPrecision; color-rendering:optimizeQuality; color-interpolation:linearRGB; stroke-linecap:butt; image-rendering:optimizeQuality;"><ns0:line y2="-15" y1="-26.8214" x2="38.97" x1="18.4954" style="fill:none;" /><ns0:line y2="-15" y1="-26.8112" x2="-12.99" x1="7.467" style="fill:none;" /><ns0:line y2="-30" y1="-15" x2="64.953" x1="38.97" style="fill:none;" /><ns0:line y2="-15" y1="-30" x2="90.933" x1="64.953" style="fill:none;" /><ns0:line y2="15" y1="26.774" x2="-64.953" x1="-85.3455" style="fill:none;" /><ns0:line y2="15" y1="-15" x2="-12.99" x1="-12.99" style="fill:none;" /><ns0:line y2="12.9793" y1="-12.9793" x2="-16.49" x1="-16.49" style="fill:none;" /><ns0:line y2="-30" y1="-15" x2="-38.97" x1="-12.99" style="fill:none;" /><ns0:line y2="30" y1="15" x2="-38.97" x1="-12.99" style="fill:none;" /><ns0:line y2="-15" y1="-30" x2="-64.953" x1="-38.97" style="fill:none;" /><ns0:line y2="-12.9791" y1="-25.9585" x2="-61.4531" x1="-38.9702" style="fill:none;" /><ns0:line y2="15" y1="30" x2="-64.953" x1="-38.97" style="fill:none;" /><ns0:line y2="12.9791" y1="25.9585" x2="-61.4531" x1="-38.9702" style="fill:none;" /><ns0:line y2="15" y1="-15" x2="-64.953" x1="-64.953" style="fill:none;" /></ns0:g><ns0:g transform="translate(105,37)" style="fill:rgb(230,0,0); text-rendering:geometricPrecision; color-rendering:optimizeQuality; image-rendering:optimizeQuality; font-family:'Open Sans'; stroke:rgb(230,0,0); color-interpolation:linearRGB;"><ns0:path style="stroke:none;" d="M16.9275 -30.0703 Q16.9275 -28.0078 15.8884 -26.8281 Q14.8494 -25.6484 13.0056 -25.6484 Q11.115 -25.6484 10.0837 -26.8125 Q9.0525 -27.9766 9.0525 -30.0859 Q9.0525 -32.1797 10.0837 -33.3281 Q11.115 -34.4766 13.0056 -34.4766 Q14.865 -34.4766 15.8962 -33.3047 Q16.9275 -32.1328 16.9275 -30.0703 ZM10.0994 -30.0703 Q10.0994 -28.3359 10.8416 -27.4297 Q11.5837 -26.5234 13.0056 -26.5234 Q14.4275 -26.5234 15.1541 -27.4219 Q15.8806 -28.3203 15.8806 -30.0703 Q15.8806 -31.8047 15.1541 -32.6953 Q14.4275 -33.5859 13.0056 -33.5859 Q11.5837 -33.5859 10.8416 -32.6875 Q10.0994 -31.7891 10.0994 -30.0703 Z" /></ns0:g><ns0:g transform="translate(105,37)" style="stroke-linecap:butt; text-rendering:geometricPrecision; color-rendering:optimizeQuality; image-rendering:optimizeQuality; font-family:'Open Sans'; color-interpolation:linearRGB; stroke-miterlimit:5;"><ns0:path style="fill:none;" d="M38.537 -15.25 L38.97 -15 L39.403 -15.25" /><ns0:path style="fill:none;" d="M64.52 -29.75 L64.953 -30 L65.386 -29.75" /><ns0:path style="fill:rgb(230,0,0); stroke:none;" d="M-86.9955 29.9297 Q-86.9955 31.9922 -88.0346 33.1719 Q-89.0736 34.3516 -90.9174 34.3516 Q-92.808 34.3516 -93.8392 33.1875 Q-94.8705 32.0234 -94.8705 29.9141 Q-94.8705 27.8203 -93.8392 26.6719 Q-92.808 25.5234 -90.9174 25.5234 Q-89.058 25.5234 -88.0267 26.6953 Q-86.9955 27.8672 -86.9955 29.9297 ZM-93.8236 29.9297 Q-93.8236 31.6641 -93.0814 32.5703 Q-92.3392 33.4766 -90.9174 33.4766 Q-89.4955 33.4766 -88.7689 32.5781 Q-88.0424 31.6797 -88.0424 29.9297 Q-88.0424 28.1953 -88.7689 27.3047 Q-89.4955 26.4141 -90.9174 26.4141 Q-92.3392 26.4141 -93.0814 27.3125 Q-93.8236 28.2109 -93.8236 29.9297 Z" /><ns0:path style="fill:rgb(230,0,0); stroke:none;" d="M-95.8705 34.2266 L-96.8705 34.2266 L-96.8705 30.1953 L-101.3861 30.1953 L-101.3861 34.2266 L-102.3861 34.2266 L-102.3861 25.6641 L-101.3861 25.6641 L-101.3861 29.3047 L-96.8705 29.3047 L-96.8705 25.6641 L-95.8705 25.6641 L-95.8705 34.2266 Z" /><ns0:path style="fill:none;" d="M-12.99 -14.5 L-12.99 -15 L-12.557 -15.25" /><ns0:path style="fill:none;" d="M-12.99 14.5 L-12.99 15 L-13.423 15.25" /><ns0:path style="fill:none;" d="M-38.537 -29.75 L-38.97 -30 L-39.403 -29.75" /><ns0:path style="fill:none;" d="M-38.537 29.75 L-38.97 30 L-39.403 29.75" /><ns0:path style="fill:none;" d="M-64.52 -15.25 L-64.953 -15 L-64.953 -14.5" /><ns0:path style="fill:none;" d="M-64.52 15.25 L-64.953 15 L-65.386 15.25" /></ns0:g></ns0:g></ns0:svg></ns0:svg></ns0:svg></ns0:svg></g></svg>