<svg width="193" viewBox="0 0 193 97" style="fill-opacity:1; color-rendering:auto; color-interpolation:auto; text-rendering:auto; stroke:black; stroke-linecap:square; stroke-miterlimit:10; shape-rendering:auto; stroke-opacity:1; fill:black; stroke-dasharray:none; font-weight:normal; stroke-width:1; font-family:'Open Sans'; font-style:normal; stroke-linejoin:miter; font-size:12; stroke-dashoffset:0; image-rendering:auto;" height="97" class="cas-substance-image" xmlns:xlink="http://www.w3.org/1999/xlink" xmlns="http://www.w3.org/2000/svg"><svg class="cas-substance-single-component"><rect y="0" x="0" width="193" stroke="none" ry="7" rx="7" height="97" fill="white" class="cas-substance-group"/><svg y="0" x="0" width="193" viewBox="0 0 193 97" style="fill:black;" height="97" class="cas-substance-single-component-image"><svg><g><g transform="translate(94,47)" style="text-rendering:geometricPrecision; color-rendering:optimizeQuality; color-interpolation:linearRGB; stroke-linecap:butt; image-rendering:optimizeQuality;"><line y2="4.6628" y1="16.728" x2="8.2214" x1="-12.678" style="fill:none;"/><line y2="1.728" y1="16.728" x2="-38.658" x1="-12.678" style="fill:none;"/><line y2="12.3213" y1="36.4753" x2="42.1574" x1="47.2914" style="fill:none;"/><line y2="13.0492" y1="37.203" x2="38.7339" x1="43.8679" style="fill:none;"/><line y2="-8.367" y1="-6.0344" x2="60.783" x1="82.963" style="fill:none;"/><line y2="13.929" y1="4.0336" x2="40.71" x1="18.4837" style="fill:none;"/><line y2="-28.11" y1="-4.6673" x2="16.44" x1="13.9769" style="fill:none;"/><line y2="-8.367" y1="13.929" x2="60.783" x1="40.71" style="fill:none;"/><line y2="-34.347" y1="-28.11" x2="45.783" x1="16.44" style="fill:none;"/><line y2="-34.347" y1="-8.367" x2="45.783" x1="60.783" style="fill:none;"/><line y2="16.728" y1="1.728" x2="-64.638" x1="-38.658" style="fill:none;"/><line y2="12.6865" y1="-0.2927" x2="-64.6381" x1="-42.158" style="fill:none;"/><line y2="-28.272" y1="1.728" x2="-38.658" x1="-38.658" style="fill:none;"/><line y2="1.728" y1="16.728" x2="-90.621" x1="-64.638" style="fill:none;"/><line y2="-43.272" y1="-28.272" x2="-64.638" x1="-38.658" style="fill:none;"/><line y2="-39.2305" y1="-26.2513" x2="-64.6381" x1="-42.158" style="fill:none;"/><line y2="-28.272" y1="1.728" x2="-90.618" x1="-90.621" style="fill:none;"/><line y2="-26.2509" y1="-0.2924" x2="-87.1182" x1="-87.1208" style="fill:none;"/><line y2="-28.272" y1="-43.272" x2="-90.618" x1="-64.638" style="fill:none;"/><path style="fill:none; stroke-miterlimit:5;" d="M-12.245 16.478 L-12.678 16.728 L-13.111 16.478"/></g><g transform="translate(94,47)" style="stroke-linecap:butt; fill:rgb(230,0,0); text-rendering:geometricPrecision; color-rendering:optimizeQuality; image-rendering:optimizeQuality; font-family:'Open Sans'; stroke:rgb(230,0,0); color-interpolation:linearRGB; stroke-miterlimit:5;"><path style="stroke:none;" d="M50.8845 43.2017 Q50.8845 45.2642 49.8454 46.4439 Q48.8064 47.6236 46.9626 47.6236 Q45.072 47.6236 44.0408 46.4595 Q43.0095 45.2954 43.0095 43.1861 Q43.0095 41.0923 44.0408 39.9439 Q45.072 38.7954 46.9626 38.7954 Q48.822 38.7954 49.8533 39.9673 Q50.8845 41.1392 50.8845 43.2017 ZM44.0564 43.2017 Q44.0564 44.9361 44.7986 45.8423 Q45.5408 46.7486 46.9626 46.7486 Q48.3845 46.7486 49.1111 45.8501 Q49.8376 44.9517 49.8376 43.2017 Q49.8376 41.4673 49.1111 40.5767 Q48.3845 39.6861 46.9626 39.6861 Q45.5408 39.6861 44.7986 40.5845 Q44.0564 41.4829 44.0564 43.2017 Z"/><path style="fill:rgb(0,138,0); stroke:none;" d="M84.9521 -9.6353 L87.3739 -9.6353 Q89.0771 -9.6353 89.8427 -9.1274 Q90.6083 -8.6196 90.6083 -7.5259 Q90.6083 -6.7603 90.1864 -6.2603 Q89.7646 -5.7603 88.9364 -5.6196 L88.9364 -5.5571 Q90.8896 -5.229 90.8896 -3.5103 Q90.8896 -2.3696 90.1161 -1.7212 Q89.3427 -1.0728 87.9521 -1.0728 L84.9521 -1.0728 L84.9521 -9.6353 ZM85.9521 -5.979 L87.5927 -5.979 Q88.6552 -5.979 89.1161 -6.3071 Q89.5771 -6.6353 89.5771 -7.4165 Q89.5771 -8.1353 89.0614 -8.4556 Q88.5458 -8.7759 87.4208 -8.7759 L85.9521 -8.7759 L85.9521 -5.979 ZM85.9521 -5.1353 L85.9521 -1.9165 L87.7489 -1.9165 Q88.7802 -1.9165 89.3036 -2.3228 Q89.8271 -2.729 89.8271 -3.5884 Q89.8271 -4.3853 89.288 -4.7603 Q88.7489 -5.1353 87.6552 -5.1353 L85.9521 -5.1353 ZM95.5243 -7.6196 Q95.9462 -7.6196 96.2899 -7.5415 L96.1493 -6.6353 Q95.7587 -6.729 95.4462 -6.729 Q94.6649 -6.729 94.1103 -6.0962 Q93.5556 -5.4634 93.5556 -4.5259 L93.5556 -1.0728 L92.5868 -1.0728 L92.5868 -7.4946 L93.3837 -7.4946 L93.5087 -6.3071 L93.5556 -6.3071 Q93.8993 -6.9321 94.4071 -7.2759 Q94.9149 -7.6196 95.5243 -7.6196 Z"/><path style="fill:rgb(0,5,255); stroke:none;" d="M16.6566 5.8842 L15.5159 5.8842 L10.8284 -1.3033 L10.7816 -1.3033 Q10.8753 -0.0376 10.8753 1.0092 L10.8753 5.8842 L9.9534 5.8842 L9.9534 -2.6783 L11.0784 -2.6783 L15.7503 4.478 L15.7972 4.478 Q15.7972 4.3217 15.7503 3.4624 Q15.7034 2.603 15.7191 2.228 L15.7191 -2.6783 L16.6566 -2.6783 L16.6566 5.8842 Z"/><path style="fill:none; stroke:black;" d="M40.2532 13.7256 L40.71 13.929 L41.0445 13.5574"/><path style="fill:none; stroke:black;" d="M16.3878 -27.6127 L16.44 -28.11 L16.9291 -28.214"/><path style="fill:none; stroke:black;" d="M45.2939 -34.243 L45.783 -34.347 L46.033 -33.914"/><path style="fill:none; stroke:black;" d="M-39.091 1.978 L-38.658 1.728 L-38.658 1.228"/><path style="fill:none; stroke:black;" d="M-64.205 16.478 L-64.638 16.728 L-65.071 16.478"/><path style="fill:none; stroke:black;" d="M-38.658 -27.772 L-38.658 -28.272 L-39.091 -28.522"/><path style="fill:none; stroke:black;" d="M-90.188 1.978 L-90.621 1.728 L-90.6209 1.228"/><path style="fill:none; stroke:black;" d="M-64.205 -43.022 L-64.638 -43.272 L-65.071 -43.022"/><path style="fill:none; stroke:black;" d="M-90.6181 -27.772 L-90.618 -28.272 L-90.185 -28.522"/></g></g></svg></svg></svg></svg>