<svg width="219" viewBox="0 0 219 60" style="fill-opacity:1; color-rendering:auto; color-interpolation:auto; text-rendering:auto; stroke:black; stroke-linecap:square; stroke-miterlimit:10; shape-rendering:auto; stroke-opacity:1; fill:black; stroke-dasharray:none; font-weight:normal; stroke-width:1; font-family:'Open Sans'; font-style:normal; stroke-linejoin:miter; font-size:12; stroke-dashoffset:0; image-rendering:auto;" height="60" class="cas-substance-image" xmlns:xlink="http://www.w3.org/1999/xlink" xmlns="http://www.w3.org/2000/svg"><svg class="cas-substance-single-component"><rect y="0" x="0" width="219" stroke="none" ry="7" rx="7" height="60" fill="white" class="cas-substance-group"/><svg y="0" x="0" width="219" viewBox="0 0 219 60" style="fill:black;" height="60" class="cas-substance-single-component-image"><svg><g><g transform="translate(111,30)" style="text-rendering:geometricPrecision; color-rendering:optimizeQuality; color-interpolation:linearRGB; stroke-linecap:butt; image-rendering:optimizeQuality;"><line y2="-22.5" y1="-7.5" x2="0" x1="-25.98" style="fill:none;"/><line y2="-22.5" y1="-7.5" x2="-51.963" x1="-25.98" style="fill:none;"/><line y2="-7.5" y1="-22.5" x2="25.98" x1="0" style="fill:none;"/><line y2="-7.5" y1="-22.5" x2="-77.943" x1="-51.963" style="fill:none;"/><line y2="-22.5" y1="-7.5" x2="51.963" x1="25.98" style="fill:none;"/><line y2="-18.9492" y1="-7.5" x2="-97.773" x1="-77.943" style="fill:none;"/><line y2="16.0234" y1="-8.5104" x2="-79.693" x1="-79.693" style="fill:none;"/><line y2="16.0234" y1="-8.5104" x2="-76.193" x1="-76.193" style="fill:none;"/><line y2="-7.5" y1="-22.5" x2="77.943" x1="51.963" style="fill:none;"/><line y2="-22.5" y1="-7.5" x2="103.923" x1="77.943" style="fill:none;"/><path style="fill:none; stroke-miterlimit:5;" d="M-25.547 -7.75 L-25.98 -7.5 L-26.413 -7.75"/><path style="fill:none; stroke-miterlimit:5;" d="M-0.433 -22.25 L0 -22.5 L0.433 -22.25"/><path style="fill:none; stroke-miterlimit:5;" d="M-51.53 -22.25 L-51.963 -22.5 L-52.396 -22.25"/><path style="fill:none; stroke-miterlimit:5;" d="M25.547 -7.75 L25.98 -7.5 L26.413 -7.75"/><path style="fill:none; stroke-miterlimit:5;" d="M-77.51 -7.75 L-77.943 -7.5 L-78.376 -7.75"/><path style="fill:none; stroke-miterlimit:5;" d="M51.53 -22.25 L51.963 -22.5 L52.396 -22.25"/></g><g transform="translate(111,30)" style="stroke-linecap:butt; fill:rgb(0,138,0); text-rendering:geometricPrecision; color-rendering:optimizeQuality; image-rendering:optimizeQuality; font-family:'Open Sans'; stroke:rgb(0,138,0); color-interpolation:linearRGB; stroke-miterlimit:5;"><path style="stroke:none;" d="M-104.2316 -25.8594 Q-105.6378 -25.8594 -106.4582 -24.9219 Q-107.2785 -23.9844 -107.2785 -22.3438 Q-107.2785 -20.6719 -106.4894 -19.75 Q-105.7003 -18.8281 -104.2472 -18.8281 Q-103.341 -18.8281 -102.2003 -19.1562 L-102.2003 -18.2812 Q-103.091 -17.9375 -104.3878 -17.9375 Q-106.2785 -17.9375 -107.3097 -19.0938 Q-108.341 -20.25 -108.341 -22.3594 Q-108.341 -23.6875 -107.8488 -24.6797 Q-107.3566 -25.6719 -106.4191 -26.2109 Q-105.4816 -26.75 -104.216 -26.75 Q-102.8722 -26.75 -101.8566 -26.2656 L-102.2785 -25.4062 Q-103.2628 -25.8594 -104.2316 -25.8594 ZM-99.505 -18.0625 L-100.4738 -18.0625 L-100.4738 -27.1875 L-99.505 -27.1875 L-99.505 -18.0625 Z"/><path style="fill:rgb(230,0,0); stroke:none;" d="M-74.0055 22.4297 Q-74.0055 24.4922 -75.0446 25.6719 Q-76.0836 26.8516 -77.9274 26.8516 Q-79.818 26.8516 -80.8493 25.6875 Q-81.8805 24.5234 -81.8805 22.4141 Q-81.8805 20.3203 -80.8493 19.1719 Q-79.818 18.0234 -77.9274 18.0234 Q-76.068 18.0234 -75.0368 19.1953 Q-74.0055 20.3672 -74.0055 22.4297 ZM-80.8336 22.4297 Q-80.8336 24.1641 -80.0914 25.0703 Q-79.3493 25.9766 -77.9274 25.9766 Q-76.5055 25.9766 -75.7789 25.0781 Q-75.0524 24.1797 -75.0524 22.4297 Q-75.0524 20.6953 -75.7789 19.8047 Q-76.5055 18.9141 -77.9274 18.9141 Q-79.3493 18.9141 -80.0914 19.8125 Q-80.8336 20.7109 -80.8336 22.4297 Z"/><path style="fill:none; stroke:black;" d="M77.51 -7.75 L77.943 -7.5 L78.376 -7.75"/></g></g></svg></svg></svg></svg>