<svg width="366" viewBox="0 0 366 209" style="fill-opacity:1; color-rendering:auto; color-interpolation:auto; text-rendering:auto; stroke:black; stroke-linecap:square; stroke-miterlimit:10; shape-rendering:auto; stroke-opacity:1; fill:black; stroke-dasharray:none; font-weight:normal; stroke-width:1; font-family:'Open Sans'; font-style:normal; stroke-linejoin:miter; font-size:12; stroke-dashoffset:0; image-rendering:auto;" height="209" class="cas-substance-image" xmlns:xlink="http://www.w3.org/1999/xlink" xmlns="http://www.w3.org/2000/svg"><svg class="cas-substance-single-component"><rect y="0" x="0" width="366" stroke="none" ry="7" rx="7" height="209" fill="white" class="cas-substance-group"/><svg y="0" x="0" width="366" viewBox="0 0 366 209" style="fill:black;" height="209" class="cas-substance-single-component-image"><svg><g><g transform="translate(183,105)" style="text-rendering:geometricPrecision; color-rendering:optimizeQuality; color-interpolation:linearRGB; stroke-linecap:butt; image-rendering:optimizeQuality;"><line y2="6.696" y1="26.5407" x2="-120" x1="-108.5437" style="fill:none;"/><line y2="58.659" y1="38.5673" x2="-120" x1="-108.3997" style="fill:none;"/><line y2="-19.284" y1="6.696" x2="-105" x1="-120" style="fill:none;"/><line y2="4.946" y1="4.946" x2="-144.0625" x1="-118.9896" style="fill:none;"/><line y2="8.446" y1="8.446" x2="-144.0625" x1="-118.9897" style="fill:none;"/><line y2="-19.284" y1="-19.284" x2="-80.3516" x1="-105" style="fill:none;"/><path style="stroke:none;" d="M-118.0164 -45.264 L-121.9176 -43.0143 L-121.3492 -42.1874 L-121.3492 -42.1874 L-116.4255 -45.0267 L-116.4255 -45.0267 L-116.5359 -45.264 ZM-115.5785 -43.2058 L-120.2123 -40.5336 L-120.2123 -40.5336 L-119.6439 -39.7067 L-119.6439 -39.7067 L-115.1549 -42.2953 L-115.1549 -42.2953 L-115.5785 -43.2058 ZM-114.3079 -40.4744 L-118.507 -38.0528 L-118.507 -38.0528 L-117.9386 -37.2259 L-113.8843 -39.5639 L-114.3079 -40.4744 ZM-113.0373 -37.7429 L-116.8017 -35.5721 L-116.8017 -35.5721 L-116.2333 -34.7452 L-116.2333 -34.7452 L-112.6138 -36.8325 L-112.6138 -36.8325 L-113.0373 -37.7429 ZM-111.7667 -35.0115 L-115.0964 -33.0914 L-115.0964 -33.0914 L-114.528 -32.2645 L-111.3432 -34.1011 L-111.7667 -35.0115 ZM-110.4961 -32.2801 L-113.3911 -30.6107 L-112.8226 -29.7838 L-112.8226 -29.7838 L-110.0726 -31.3696 L-110.0726 -31.3696 L-110.4961 -32.2801 ZM-109.2255 -29.5487 L-111.6858 -28.1299 L-111.1173 -27.303 L-108.802 -28.6382 L-109.2255 -29.5487 ZM-107.955 -26.8173 L-109.9805 -25.6492 L-109.412 -24.8223 L-107.5314 -25.9068 L-107.955 -26.8173 ZM-106.6844 -24.0858 L-108.2752 -23.1685 L-107.7067 -22.3416 L-107.7067 -22.3416 L-106.2608 -23.1754 L-106.2608 -23.1754 L-106.6844 -24.0858 ZM-105.4138 -21.3544 L-106.5698 -20.6878 L-106.0014 -19.8608 L-104.9903 -20.4439 L-105.4138 -21.3544 Z"/><line y2="-45.264" y1="-25.4223" x2="-60" x1="-71.456" style="fill:none;"/><line y2="-45.264" y1="-45.264" x2="-150" x1="-120" style="fill:none;"/><path style="stroke:none;" d="M-71.9773 -71.8432 L-77.032 -68.9284 L-76.4596 -68.1037 L-71.5494 -70.9353 L-71.5494 -70.9353 L-71.9773 -71.8432 ZM-70.6935 -69.1194 L-75.3148 -66.4545 L-74.7424 -65.6298 L-70.2655 -68.2115 L-70.2655 -68.2115 L-70.6935 -69.1194 ZM-69.4096 -66.3957 L-73.5977 -63.9806 L-73.5977 -63.9806 L-73.0253 -63.1559 L-68.9817 -65.4878 L-68.9817 -65.4878 L-69.4096 -66.3957 ZM-68.1258 -63.6719 L-71.8806 -61.5067 L-71.8806 -61.5067 L-71.3082 -60.682 L-71.3082 -60.682 L-67.6978 -62.764 L-68.1258 -63.6719 ZM-66.8419 -60.9481 L-70.1634 -59.0327 L-69.591 -58.2081 L-66.414 -60.0402 L-66.8419 -60.9481 ZM-65.5581 -58.2244 L-68.4463 -56.5588 L-68.4463 -56.5588 L-67.8739 -55.7342 L-65.1301 -57.3165 L-65.5581 -58.2244 ZM-64.2742 -55.5006 L-66.7291 -54.0849 L-66.1568 -53.2603 L-63.8463 -54.5927 L-63.8463 -54.5927 L-64.2742 -55.5006 ZM-62.9903 -52.7768 L-65.012 -51.611 L-64.4396 -50.7864 L-64.4396 -50.7864 L-62.5624 -51.8689 L-62.5624 -51.8689 L-62.9903 -52.7768 ZM-61.7065 -50.0531 L-63.2949 -49.1371 L-62.7225 -48.3125 L-62.7225 -48.3125 L-61.2785 -49.1452 L-61.7065 -50.0531 ZM-60.4226 -47.3293 L-61.5777 -46.6632 L-61.0053 -45.8386 L-61.0053 -45.8386 L-59.9947 -46.4214 L-59.9947 -46.4214 L-60.4226 -47.3293 Z"/><line y2="-45.264" y1="-45.264" x2="-30" x1="-60" style="fill:none;"/><line y2="-75.264" y1="-45.264" x2="-150" x1="-150" style="fill:none;"/><line y2="-45.264" y1="-45.264" x2="-180" x1="-150" style="fill:none;"/><line y2="-21.6702" y1="-45.264" x2="-150" x1="-150" style="fill:none;"/><line y2="-93.788" y1="-71.244" x2="-88.0146" x1="-75" style="fill:none;"/><line y2="-83.8637" y1="-71.244" x2="-53.1427" x1="-75" style="fill:none;"/><line y2="-58.5496" y1="-71.244" x2="-96.9867" x1="-75" style="fill:none;"/><line y2="93.1293" y1="77.943" x2="-78.9207" x1="-97.02" style="fill:none;"/><line y2="90.4481" y1="75.2618" x2="-76.671" x1="-94.7703" style="fill:none;"/><line y2="95.8105" y1="80.6242" x2="-81.1704" x1="-99.2697" style="fill:none;"/><line y2="58.659" y1="77.943" x2="-120" x1="-97.02" style="fill:none;"/><line y2="-45.264" y1="-45.264" x2="180" x1="154.561" style="fill:none;"/><line y2="-21.7406" y1="-38.9202" x2="148.25" x1="148.25" style="fill:none;"/><line y2="-21.7406" y1="-38.9202" x2="151.75" x1="151.75" style="fill:none;"/><line y2="-68.9124" y1="-51.7327" x2="151.75" x1="151.75" style="fill:none;"/><line y2="-68.9124" y1="-51.7327" x2="148.25" x1="148.25" style="fill:none;"/><line y2="-45.264" y1="-45.264" x2="120" x1="145.3567" style="fill:none;"/><line y2="48.399" y1="58.659" x2="-148.191" x1="-120" style="fill:none;"/><line y2="77.943" y1="58.659" x2="-142.98" x1="-120" style="fill:none;"/><line y2="77.943" y1="48.399" x2="-142.98" x1="-148.191" style="fill:none;"/><line y2="-19.284" y1="-45.264" x2="-15" x1="-30" style="fill:none;"/><line y2="-22.784" y1="-45.264" x2="-12.9793" x1="-25.9585" style="fill:none;"/><line y2="-71.244" y1="-45.264" x2="-15" x1="-30" style="fill:none;"/><line y2="-19.284" y1="-19.284" x2="15" x1="-15" style="fill:none;"/><line y2="-71.244" y1="-71.244" x2="15" x1="-15" style="fill:none;"/><line y2="-67.744" y1="-67.744" x2="12.9793" x1="-12.9793" style="fill:none;"/><line y2="-45.264" y1="-19.284" x2="30" x1="15" style="fill:none;"/><line y2="-45.264" y1="-22.784" x2="25.9585" x1="12.9793" style="fill:none;"/><line y2="-45.264" y1="-71.244" x2="30" x1="15" style="fill:none;"/><line y2="-45.264" y1="-45.264" x2="60" x1="30" style="fill:none;"/><line y2="-71.244" y1="-45.264" x2="75" x1="60" style="fill:none;"/><line y2="-67.744" y1="-45.264" x2="77.0207" x1="64.0415" style="fill:none;"/><line y2="-19.284" y1="-45.264" x2="75" x1="60" style="fill:none;"/><line y2="-71.244" y1="-71.244" x2="105" x1="75" style="fill:none;"/><line y2="-19.284" y1="-19.284" x2="105" x1="75" style="fill:none;"/><line y2="-22.784" y1="-22.784" x2="102.9793" x1="77.0207" style="fill:none;"/><line y2="-45.264" y1="-71.244" x2="120" x1="105" style="fill:none;"/><line y2="-45.264" y1="-67.744" x2="115.9585" x1="102.9793" style="fill:none;"/><line y2="-45.264" y1="-19.284" x2="120" x1="105" style="fill:none;"/></g><g transform="translate(183,105)" style="fill:rgb(0,5,255); text-rendering:geometricPrecision; color-rendering:optimizeQuality; image-rendering:optimizeQuality; font-family:'Open Sans'; stroke:rgb(0,5,255); color-interpolation:linearRGB;"><path style="stroke:none;" d="M-101.6484 36.8353 L-102.7891 36.8353 L-107.4766 29.6478 L-107.5234 29.6478 Q-107.4297 30.9134 -107.4297 31.9603 L-107.4297 36.8353 L-108.3516 36.8353 L-108.3516 28.2728 L-107.2266 28.2728 L-102.5547 35.429 L-102.5078 35.429 Q-102.5078 35.2728 -102.5547 34.4134 Q-102.6016 33.554 -102.5859 33.179 L-102.5859 28.2728 L-101.6484 28.2728 L-101.6484 36.8353 Z"/><path style="stroke:none;" d="M-94.1328 36.8353 L-95.1328 36.8353 L-95.1328 32.804 L-99.6484 32.804 L-99.6484 36.8353 L-100.6484 36.8353 L-100.6484 28.2728 L-99.6484 28.2728 L-99.6484 31.9134 L-95.1328 31.9134 L-95.1328 28.2728 L-94.1328 28.2728 L-94.1328 36.8353 Z"/></g><g transform="translate(183,105)" style="stroke-linecap:butt; text-rendering:geometricPrecision; color-rendering:optimizeQuality; image-rendering:optimizeQuality; font-family:'Open Sans'; color-interpolation:linearRGB; stroke-miterlimit:5;"><path style="fill:none;" d="M-119.75 7.129 L-120 6.696 L-119.75 6.263"/><path style="fill:none;" d="M-105.25 -18.851 L-105 -19.284 L-104.5 -19.284"/></g><g transform="translate(183,105)" style="stroke-linecap:butt; font-size:8.4px; fill:gray; text-rendering:geometricPrecision; image-rendering:optimizeQuality; color-rendering:optimizeQuality; font-family:'Open Sans'; font-style:italic; stroke:gray; color-interpolation:linearRGB; stroke-miterlimit:5;"><path style="stroke:none;" d="M-104.1084 -26.7411 Q-104.1084 -28.0692 -103.6397 -29.1942 Q-103.1709 -30.3192 -102.1397 -31.3973 L-101.5303 -31.3973 Q-102.499 -30.3348 -102.9834 -29.1629 Q-103.4678 -27.9911 -103.4678 -26.7567 Q-103.4678 -25.4286 -103.0303 -24.4129 L-103.5459 -24.4129 Q-104.1084 -25.4442 -104.1084 -26.7411 ZM-98.4859 -27.3348 Q-98.4859 -26.5067 -99.0327 -26.0536 Q-99.5796 -25.6004 -100.5796 -25.6004 Q-100.9859 -25.6004 -101.2984 -25.6551 Q-101.6109 -25.7098 -101.8921 -25.8504 L-101.8921 -26.5067 Q-101.2671 -26.1786 -100.564 -26.1786 Q-99.939 -26.1786 -99.564 -26.4754 Q-99.189 -26.7723 -99.189 -27.2879 Q-99.189 -27.6004 -99.3921 -27.827 Q-99.5952 -28.0536 -100.1577 -28.3817 Q-100.7515 -28.7098 -100.978 -29.0379 Q-101.2046 -29.3661 -101.2046 -29.8192 Q-101.2046 -30.5536 -100.689 -31.0145 Q-100.1734 -31.4754 -99.3296 -31.4754 Q-98.9546 -31.4754 -98.6187 -31.3973 Q-98.2827 -31.3192 -97.9077 -31.1473 L-98.1734 -30.5536 Q-98.4234 -30.7098 -98.7437 -30.7958 Q-99.064 -30.8817 -99.3296 -30.8817 Q-99.8609 -30.8817 -100.1812 -30.6083 Q-100.5015 -30.3348 -100.5015 -29.8661 Q-100.5015 -29.6629 -100.4312 -29.5145 Q-100.3609 -29.3661 -100.2202 -29.2333 Q-100.0796 -29.1004 -99.6577 -28.8504 Q-99.0952 -28.5067 -98.8921 -28.3114 Q-98.689 -28.1161 -98.5874 -27.8817 Q-98.4859 -27.6473 -98.4859 -27.3348 ZM-95.8914 -29.0536 Q-95.8914 -27.7254 -96.3679 -26.5926 Q-96.8445 -25.4598 -97.8601 -24.4129 L-98.4695 -24.4129 Q-96.532 -26.5692 -96.532 -29.0536 Q-96.532 -30.3817 -96.9695 -31.3973 L-96.4539 -31.3973 Q-95.8914 -30.3348 -95.8914 -29.0536 Z"/></g><g transform="translate(183,105)" style="stroke-linecap:butt; fill:rgb(230,0,0); text-rendering:geometricPrecision; color-rendering:optimizeQuality; image-rendering:optimizeQuality; font-family:'Open Sans'; stroke:rgb(230,0,0); color-interpolation:linearRGB; stroke-miterlimit:5;"><path style="stroke:none;" d="M-146.0625 6.6257 Q-146.0625 8.6882 -147.1016 9.8679 Q-148.1406 11.0476 -149.9844 11.0476 Q-151.875 11.0476 -152.9062 9.8835 Q-153.9375 8.7194 -153.9375 6.6101 Q-153.9375 4.5163 -152.9062 3.3679 Q-151.875 2.2194 -149.9844 2.2194 Q-148.125 2.2194 -147.0938 3.3913 Q-146.0625 4.5632 -146.0625 6.6257 ZM-152.8906 6.6257 Q-152.8906 8.3601 -152.1484 9.2663 Q-151.4062 10.1726 -149.9844 10.1726 Q-148.5625 10.1726 -147.8359 9.2741 Q-147.1094 8.3757 -147.1094 6.6257 Q-147.1094 4.8913 -147.8359 4.0007 Q-148.5625 3.1101 -149.9844 3.1101 Q-151.4062 3.1101 -152.1484 4.0085 Q-152.8906 4.9069 -152.8906 6.6257 Z"/><path style="fill:rgb(0,5,255); stroke:none;" d="M-71.6484 -15.1277 L-72.7891 -15.1277 L-77.4766 -22.3152 L-77.5234 -22.3152 Q-77.4297 -21.0496 -77.4297 -20.0027 L-77.4297 -15.1277 L-78.3516 -15.1277 L-78.3516 -23.6902 L-77.2266 -23.6902 L-72.5547 -16.534 L-72.5078 -16.534 Q-72.5078 -16.6902 -72.5547 -17.5496 Q-72.6016 -18.409 -72.5859 -18.784 L-72.5859 -23.6902 L-71.6484 -23.6902 L-71.6484 -15.1277 Z"/><path style="fill:rgb(0,5,255); stroke:none;" d="M-71.7422 -5.5652 L-72.7422 -5.5652 L-72.7422 -9.5965 L-77.2578 -9.5965 L-77.2578 -5.5652 L-78.2578 -5.5652 L-78.2578 -14.1277 L-77.2578 -14.1277 L-77.2578 -10.4871 L-72.7422 -10.4871 L-72.7422 -14.1277 L-71.7422 -14.1277 L-71.7422 -5.5652 Z"/><path style="fill:none; stroke:black;" d="M-60.25 -44.831 L-60 -45.264 L-59.5 -45.264"/></g><g transform="translate(183,105)" style="stroke-linecap:butt; font-size:8.4px; fill:gray; text-rendering:geometricPrecision; image-rendering:optimizeQuality; color-rendering:optimizeQuality; font-family:'Open Sans'; font-style:italic; stroke:gray; color-interpolation:linearRGB; stroke-miterlimit:5;"><path style="stroke:none;" d="M-59.1084 -52.7211 Q-59.1084 -54.0492 -58.6397 -55.1742 Q-58.1709 -56.2992 -57.1397 -57.3773 L-56.5303 -57.3773 Q-57.499 -56.3148 -57.9834 -55.1429 Q-58.4678 -53.9711 -58.4678 -52.7367 Q-58.4678 -51.4086 -58.0303 -50.3929 L-58.5459 -50.3929 Q-59.1084 -51.4242 -59.1084 -52.7211 ZM-53.4859 -53.3148 Q-53.4859 -52.4867 -54.0327 -52.0336 Q-54.5796 -51.5804 -55.5796 -51.5804 Q-55.9859 -51.5804 -56.2984 -51.6351 Q-56.6109 -51.6898 -56.8921 -51.8304 L-56.8921 -52.4867 Q-56.2671 -52.1586 -55.564 -52.1586 Q-54.939 -52.1586 -54.564 -52.4554 Q-54.189 -52.7523 -54.189 -53.2679 Q-54.189 -53.5804 -54.3921 -53.807 Q-54.5952 -54.0336 -55.1577 -54.3617 Q-55.7515 -54.6898 -55.978 -55.0179 Q-56.2046 -55.3461 -56.2046 -55.7992 Q-56.2046 -56.5336 -55.689 -56.9945 Q-55.1734 -57.4554 -54.3296 -57.4554 Q-53.9546 -57.4554 -53.6187 -57.3773 Q-53.2827 -57.2992 -52.9077 -57.1273 L-53.1734 -56.5336 Q-53.4234 -56.6898 -53.7437 -56.7758 Q-54.064 -56.8617 -54.3296 -56.8617 Q-54.8609 -56.8617 -55.1812 -56.5883 Q-55.5015 -56.3148 -55.5015 -55.8461 Q-55.5015 -55.6429 -55.4312 -55.4945 Q-55.3609 -55.3461 -55.2202 -55.2133 Q-55.0796 -55.0804 -54.6577 -54.8304 Q-54.0952 -54.4867 -53.8921 -54.2914 Q-53.689 -54.0961 -53.5874 -53.8617 Q-53.4859 -53.6273 -53.4859 -53.3148 ZM-50.8914 -55.0336 Q-50.8914 -53.7054 -51.3679 -52.5726 Q-51.8445 -51.4398 -52.8601 -50.3929 L-53.4695 -50.3929 Q-51.532 -52.5492 -51.532 -55.0336 Q-51.532 -56.3617 -51.9695 -57.3773 L-51.4539 -57.3773 Q-50.8914 -56.3148 -50.8914 -55.0336 Z"/></g><g transform="translate(183,105)" style="stroke-linecap:butt; fill:rgb(0,138,0); text-rendering:geometricPrecision; color-rendering:optimizeQuality; image-rendering:optimizeQuality; font-family:'Open Sans'; stroke:rgb(0,138,0); color-interpolation:linearRGB; stroke-miterlimit:5;"><path style="stroke:none;" d="M-151.3906 -11.1078 L-152.3906 -11.1078 L-152.3906 -19.6702 L-147.6094 -19.6702 L-147.6094 -18.7952 L-151.3906 -18.7952 L-151.3906 -15.6546 L-147.8438 -15.6546 L-147.8438 -14.764 L-151.3906 -14.764 L-151.3906 -11.1078 Z"/><path style="stroke:none;" d="M-91.3906 -93.0708 L-92.3906 -93.0708 L-92.3906 -101.6333 L-87.6094 -101.6333 L-87.6094 -100.7583 L-91.3906 -100.7583 L-91.3906 -97.6176 L-87.8438 -97.6176 L-87.8438 -96.727 L-91.3906 -96.727 L-91.3906 -93.0708 Z"/><path style="stroke:none;" d="M-50.4106 -82.0877 L-51.4106 -82.0877 L-51.4106 -90.6502 L-46.6294 -90.6502 L-46.6294 -89.7752 L-50.4106 -89.7752 L-50.4106 -86.6346 L-46.8637 -86.6346 L-46.8637 -85.744 L-50.4106 -85.744 L-50.4106 -82.0877 Z"/><path style="stroke:none;" d="M-102.3706 -52.0877 L-103.3706 -52.0877 L-103.3706 -60.6502 L-98.5894 -60.6502 L-98.5894 -59.7752 L-102.3706 -59.7752 L-102.3706 -56.6346 L-98.8237 -56.6346 L-98.8237 -55.744 L-102.3706 -55.744 L-102.3706 -52.0877 Z"/><path style="fill:rgb(0,5,255); stroke:none;" d="M-70.6854 101.3833 L-71.8261 101.3833 L-76.5136 94.1958 L-76.5604 94.1958 Q-76.4667 95.4614 -76.4667 96.5083 L-76.4667 101.3833 L-77.3886 101.3833 L-77.3886 92.8208 L-76.2636 92.8208 L-71.5917 99.977 L-71.5448 99.977 Q-71.5448 99.8208 -71.5917 98.9614 Q-71.6386 98.102 -71.6229 97.727 L-71.6229 92.8208 L-70.6854 92.8208 L-70.6854 101.3833 Z"/><path style="fill:rgb(148,108,0); stroke:none;" d="M152.6953 -43.3265 Q152.6953 -42.2015 151.875 -41.5609 Q151.0547 -40.9202 149.6484 -40.9202 Q148.1172 -40.9202 147.3047 -41.3265 L147.3047 -42.2796 Q147.8359 -42.0609 148.4531 -41.9281 Q149.0703 -41.7952 149.6797 -41.7952 Q150.6797 -41.7952 151.1797 -42.1781 Q151.6797 -42.5609 151.6797 -43.2327 Q151.6797 -43.6702 151.5 -43.9593 Q151.3203 -44.2484 150.9062 -44.4906 Q150.4922 -44.7327 149.6328 -45.0296 Q148.4453 -45.4515 147.9297 -46.0374 Q147.4141 -46.6234 147.4141 -47.5765 Q147.4141 -48.5609 148.1562 -49.1468 Q148.8984 -49.7327 150.1328 -49.7327 Q151.3984 -49.7327 152.4766 -49.264 L152.1641 -48.4046 Q151.1016 -48.8421 150.1016 -48.8421 Q149.3047 -48.8421 148.8594 -48.5062 Q148.4141 -48.1702 148.4141 -47.5609 Q148.4141 -47.1234 148.5781 -46.8343 Q148.7422 -46.5452 149.1328 -46.3109 Q149.5234 -46.0765 150.3359 -45.7796 Q151.6797 -45.3109 152.1875 -44.7562 Q152.6953 -44.2015 152.6953 -43.3265 Z"/><path style="fill:rgb(230,0,0); stroke:none;" d="M153.9375 -15.3343 Q153.9375 -13.2718 152.8984 -12.0921 Q151.8594 -10.9124 150.0156 -10.9124 Q148.125 -10.9124 147.0938 -12.0765 Q146.0625 -13.2406 146.0625 -15.3499 Q146.0625 -17.4437 147.0938 -18.5921 Q148.125 -19.7406 150.0156 -19.7406 Q151.875 -19.7406 152.9062 -18.5687 Q153.9375 -17.3968 153.9375 -15.3343 ZM147.1094 -15.3343 Q147.1094 -13.5999 147.8516 -12.6937 Q148.5938 -11.7874 150.0156 -11.7874 Q151.4375 -11.7874 152.1641 -12.6859 Q152.8906 -13.5843 152.8906 -15.3343 Q152.8906 -17.0687 152.1641 -17.9593 Q151.4375 -18.8499 150.0156 -18.8499 Q148.5938 -18.8499 147.8516 -17.9515 Q147.1094 -17.0531 147.1094 -15.3343 Z"/><path style="fill:rgb(230,0,0); stroke:none;" d="M153.9375 -75.3343 Q153.9375 -73.2718 152.8984 -72.0921 Q151.8594 -70.9124 150.0156 -70.9124 Q148.125 -70.9124 147.0938 -72.0765 Q146.0625 -73.2406 146.0625 -75.3499 Q146.0625 -77.4437 147.0938 -78.5921 Q148.125 -79.7406 150.0156 -79.7406 Q151.875 -79.7406 152.9062 -78.5687 Q153.9375 -77.3968 153.9375 -75.3343 ZM147.1094 -75.3343 Q147.1094 -73.5999 147.8516 -72.6937 Q148.5938 -71.7874 150.0156 -71.7874 Q151.4375 -71.7874 152.1641 -72.6859 Q152.8906 -73.5843 152.8906 -75.3343 Q152.8906 -77.0687 152.1641 -77.9593 Q151.4375 -78.8499 150.0156 -78.8499 Q148.5938 -78.8499 147.8516 -77.9515 Q147.1094 -77.0531 147.1094 -75.3343 Z"/><path style="fill:none; stroke:black;" d="M-147.7212 48.57 L-148.191 48.399 L-148.1042 48.8914"/><path style="fill:none; stroke:black;" d="M-142.597 77.6216 L-142.98 77.943 L-143.0668 77.4506"/><path style="fill:none; stroke:black;" d="M-29.75 -44.831 L-30 -45.264 L-30.5 -45.264"/><path style="fill:none; stroke:black;" d="M-15.25 -19.717 L-15 -19.284 L-14.5 -19.284"/><path style="fill:none; stroke:black;" d="M-15.25 -70.811 L-15 -71.244 L-14.5 -71.244"/><path style="fill:none; stroke:black;" d="M14.5 -19.284 L15 -19.284 L15.25 -19.717"/><path style="fill:none; stroke:black;" d="M14.5 -71.244 L15 -71.244 L15.25 -70.811"/><path style="fill:none; stroke:black;" d="M29.75 -44.831 L30 -45.264 L29.75 -45.697"/><path style="fill:none; stroke:black;" d="M60.25 -45.697 L60 -45.264 L59.5 -45.264"/><path style="fill:none; stroke:black;" d="M74.75 -70.811 L75 -71.244 L75.5 -71.244"/><path style="fill:none; stroke:black;" d="M74.75 -19.717 L75 -19.284 L75.5 -19.284"/><path style="fill:none; stroke:black;" d="M104.5 -71.244 L105 -71.244 L105.25 -70.811"/><path style="fill:none; stroke:black;" d="M104.5 -19.284 L105 -19.284 L105.25 -19.717"/><path style="fill:none; stroke:black;" d="M119.75 -45.697 L120 -45.264 L119.75 -44.831"/></g></g></svg></svg></svg></svg>