<svg xmlns:ns0="http://www.w3.org/2000/svg" xmlns="http://www.w3.org/2000/svg"><g transform="translate(0, 0)"><ns0:svg width="215" viewBox="0 0 215 157" style="fill-opacity:1; color-rendering:auto; color-interpolation:auto; text-rendering:auto; stroke:black; stroke-linecap:square; stroke-miterlimit:10; shape-rendering:auto; stroke-opacity:1; fill:black; stroke-dasharray:none; font-weight:normal; stroke-width:1; font-family:'Open Sans'; font-style:normal; stroke-linejoin:miter; font-size:12; stroke-dashoffset:0; image-rendering:auto;" height="157" class="cas-substance-image"><ns0:svg class="cas-substance-single-component"><ns0:rect y="0" x="0" width="215" stroke="none" ry="7" rx="7" height="157" fill="white" class="cas-substance-group" /><ns0:svg y="0" x="0" width="215" viewBox="0 0 215 157" style="fill:black;" height="157" class="cas-substance-single-component-image"><ns0:svg><ns0:g><ns0:g transform="translate(107,79)" style="text-rendering:geometricPrecision; color-rendering:optimizeQuality; color-interpolation:linearRGB; stroke-linecap:butt; image-rendering:optimizeQuality;"><ns0:line y2="-28.9897" y1="-53.6484" x2="-27.73" x1="-27.73" style="fill:none;" /><ns0:line y2="-28.9896" y1="-53.6484" x2="-24.23" x1="-24.23" style="fill:none;" /><ns0:line y2="15" y1="-8.8438" x2="0" x1="0" style="fill:none;" /><ns0:line y2="-30" y1="-17.9351" x2="25.98" x1="5.0836" style="fill:none;" /><ns0:line y2="-30" y1="-17.9351" x2="-25.98" x1="-5.0836" style="fill:none;" /><ns0:line y2="30" y1="15" x2="-25.98" x1="0" style="fill:none;" /><ns0:line y2="27.0649" y1="15" x2="20.8964" x1="0" style="fill:none;" /><ns0:line y2="24.0338" y1="12.9793" x2="22.6464" x1="3.5" style="fill:none;" /><ns0:line y2="-15" y1="-30" x2="51.963" x1="25.98" style="fill:none;" /><ns0:line y2="-60" y1="-30" x2="25.98" x1="25.98" style="fill:none;" /><ns0:line y2="-57.9793" y1="-32.0207" x2="29.48" x1="29.48" style="fill:none;" /><ns0:line y2="-15" y1="-30" x2="-51.963" x1="-25.98" style="fill:none;" /><ns0:line y2="15" y1="30" x2="-51.963" x1="-25.98" style="fill:none;" /><ns0:line y2="60" y1="30" x2="-25.98" x1="-25.98" style="fill:none;" /><ns0:line y2="57.9793" y1="32.0207" x2="-29.48" x1="-29.48" style="fill:none;" /><ns0:line y2="15" y1="27.0652" x2="51.963" x1="31.0637" style="fill:none;" /><ns0:line y2="15" y1="-15" x2="51.963" x1="51.963" style="fill:none;" /><ns0:line y2="-30" y1="-15" x2="77.943" x1="51.963" style="fill:none;" /><ns0:line y2="-32.0207" y1="-19.0415" x2="74.443" x1="51.963" style="fill:none;" /><ns0:line y2="-75" y1="-60" x2="51.96" x1="25.98" style="fill:none;" /><ns0:line y2="15" y1="-15" x2="-51.963" x1="-51.963" style="fill:none;" /><ns0:line y2="-30" y1="-15" x2="-77.943" x1="-51.963" style="fill:none;" /><ns0:line y2="-25.9585" y1="-12.9793" x2="-77.9431" x1="-55.463" style="fill:none;" /><ns0:line y2="30" y1="15" x2="-77.943" x1="-51.963" style="fill:none;" /><ns0:line y2="32.0207" y1="19.0415" x2="-74.443" x1="-51.963" style="fill:none;" /><ns0:line y2="75" y1="60" x2="-51.963" x1="-25.98" style="fill:none;" /><ns0:line y2="30" y1="15" x2="77.943" x1="51.963" style="fill:none;" /><ns0:line y2="25.9585" y1="12.9793" x2="77.9431" x1="55.463" style="fill:none;" /><ns0:line y2="-60" y1="-30" x2="77.943" x1="77.943" style="fill:none;" /><ns0:line y2="-15" y1="-30" x2="103.923" x1="77.943" style="fill:none;" /><ns0:line y2="-60" y1="-75" x2="77.943" x1="51.96" style="fill:none;" /><ns0:line y2="-57.9791" y1="-70.9585" x2="74.4431" x1="51.9602" style="fill:none;" /><ns0:line y2="-15" y1="-30" x2="-103.923" x1="-77.943" style="fill:none;" /><ns0:line y2="60" y1="30" x2="-77.943" x1="-77.943" style="fill:none;" /><ns0:line y2="15" y1="30" x2="-103.923" x1="-77.943" style="fill:none;" /><ns0:line y2="60" y1="75" x2="-77.943" x1="-51.963" style="fill:none;" /><ns0:line y2="57.9793" y1="70.9585" x2="-74.443" x1="-51.963" style="fill:none;" /><ns0:line y2="15" y1="30" x2="103.923" x1="77.943" style="fill:none;" /><ns0:line y2="15" y1="-15" x2="103.923" x1="103.923" style="fill:none;" /><ns0:line y2="12.9793" y1="-12.9793" x2="100.423" x1="100.423" style="fill:none;" /><ns0:line y2="15" y1="-15" x2="-103.923" x1="-103.923" style="fill:none;" /><ns0:line y2="12.9793" y1="-12.9793" x2="-100.423" x1="-100.423" style="fill:none;" /></ns0:g><ns0:g transform="translate(107,79)" style="fill:rgb(230,0,0); text-rendering:geometricPrecision; color-rendering:optimizeQuality; image-rendering:optimizeQuality; font-family:'Open Sans'; stroke:rgb(230,0,0); color-interpolation:linearRGB;"><ns0:path style="stroke:none;" d="M-22.0425 -60.0703 Q-22.0425 -58.0078 -23.0816 -56.8281 Q-24.1206 -55.6484 -25.9644 -55.6484 Q-27.855 -55.6484 -28.8862 -56.8125 Q-29.9175 -57.9766 -29.9175 -60.0859 Q-29.9175 -62.1797 -28.8862 -63.3281 Q-27.855 -64.4766 -25.9644 -64.4766 Q-24.105 -64.4766 -23.0737 -63.3047 Q-22.0425 -62.1328 -22.0425 -60.0703 ZM-28.8706 -60.0703 Q-28.8706 -58.3359 -28.1284 -57.4297 Q-27.3862 -56.5234 -25.9644 -56.5234 Q-24.5425 -56.5234 -23.8159 -57.4219 Q-23.0894 -58.3203 -23.0894 -60.0703 Q-23.0894 -61.8047 -23.8159 -62.6953 Q-24.5425 -63.5859 -25.9644 -63.5859 Q-27.3862 -63.5859 -28.1284 -62.6875 Q-28.8706 -61.7891 -28.8706 -60.0703 Z" /><ns0:path style="fill:rgb(0,5,255); stroke:none;" d="M3.3516 -10.8438 L2.2109 -10.8438 L-2.4766 -18.0312 L-2.5234 -18.0312 Q-2.4297 -16.7656 -2.4297 -15.7188 L-2.4297 -10.8438 L-3.3516 -10.8438 L-3.3516 -19.4062 L-2.2266 -19.4062 L2.4453 -12.25 L2.4922 -12.25 Q2.4922 -12.4062 2.4453 -13.2656 Q2.3984 -14.125 2.4141 -14.5 L2.4141 -19.4062 L3.3516 -19.4062 L3.3516 -10.8438 Z" /></ns0:g><ns0:g transform="translate(107,79)" style="stroke-linecap:butt; text-rendering:geometricPrecision; color-rendering:optimizeQuality; image-rendering:optimizeQuality; font-family:'Open Sans'; color-interpolation:linearRGB; stroke-miterlimit:5;"><ns0:path style="fill:none;" d="M0.433 15.25 L0 15 L-0.433 15.25" /><ns0:path style="fill:none;" d="M25.98 -30.5 L25.98 -30 L25.547 -29.75" /><ns0:path style="fill:none;" d="M-25.547 -29.75 L-25.98 -30 L-26.413 -29.75" /><ns0:path style="fill:none;" d="M-25.98 30.5 L-25.98 30 L-25.547 29.75" /><ns0:path style="fill:rgb(0,5,255); stroke:none;" d="M29.3316 34.1562 L28.1909 34.1562 L23.5034 26.9688 L23.4566 26.9688 Q23.5503 28.2344 23.5503 29.2812 L23.5503 34.1562 L22.6284 34.1562 L22.6284 25.5938 L23.7534 25.5938 L28.4253 32.75 L28.4722 32.75 Q28.4722 32.5938 28.4253 31.7344 Q28.3784 30.875 28.3941 30.5 L28.3941 25.5938 L29.3316 25.5938 L29.3316 34.1562 Z" /><ns0:path style="fill:none;" d="M52.396 -15.25 L51.963 -15 L51.963 -14.5" /><ns0:path style="fill:none;" d="M25.98 -59.5 L25.98 -60 L26.413 -60.25" /><ns0:path style="fill:none;" d="M-52.396 -15.25 L-51.963 -15 L-51.53 -15.25" /><ns0:path style="fill:none;" d="M-52.396 15.25 L-51.963 15 L-51.963 14.5" /><ns0:path style="fill:none;" d="M-25.98 59.5 L-25.98 60 L-26.413 60.25" /><ns0:path style="fill:none;" d="M52.396 15.25 L51.963 15 L51.53 15.25" /><ns0:path style="fill:none;" d="M77.51 -29.75 L77.943 -30 L77.943 -30.5" /><ns0:path style="fill:none;" d="M51.527 -74.75 L51.96 -75 L52.393 -74.75" /><ns0:path style="fill:none;" d="M-77.51 -29.75 L-77.943 -30 L-78.376 -29.75" /><ns0:path style="fill:none;" d="M-77.51 29.75 L-77.943 30 L-77.943 30.5" /><ns0:path style="fill:none;" d="M-51.53 74.75 L-51.963 75 L-52.396 74.75" /><ns0:path style="fill:none;" d="M77.51 29.75 L77.943 30 L78.376 29.75" /><ns0:path style="fill:none;" d="M77.943 -59.5 L77.943 -60 L77.51 -60.25" /><ns0:path style="fill:none;" d="M103.49 -15.25 L103.923 -15 L103.923 -14.5" /><ns0:path style="fill:none;" d="M-103.49 -15.25 L-103.923 -15 L-103.923 -14.5" /><ns0:path style="fill:none;" d="M-77.943 59.5 L-77.943 60 L-77.51 60.25" /><ns0:path style="fill:none;" d="M-103.49 15.25 L-103.923 15 L-103.923 14.5" /><ns0:path style="fill:none;" d="M103.49 15.25 L103.923 15 L103.923 14.5" /></ns0:g></ns0:g></ns0:svg></ns0:svg></ns0:svg></ns0:svg></g></svg>