<svg width="471" viewBox="0 0 471 270" style="fill-opacity:1; color-rendering:auto; color-interpolation:auto; text-rendering:auto; stroke:black; stroke-linecap:square; stroke-miterlimit:10; shape-rendering:auto; stroke-opacity:1; fill:black; stroke-dasharray:none; font-weight:normal; stroke-width:1; font-family:'Open Sans'; font-style:normal; stroke-linejoin:miter; font-size:12; stroke-dashoffset:0; image-rendering:auto;" height="270" class="cas-substance-image" xmlns:xlink="http://www.w3.org/1999/xlink" xmlns="http://www.w3.org/2000/svg"><svg class="cas-substance-single-component"><rect y="0" x="0" width="471" stroke="none" ry="7" rx="7" height="270" fill="white" class="cas-substance-group"/><svg y="0" x="0" width="471" viewBox="0 0 471 270" style="fill:black;" height="270" class="cas-substance-single-component-image"><svg><g><g transform="translate(235,135)" style="text-rendering:geometricPrecision; color-rendering:optimizeQuality; color-interpolation:linearRGB; stroke-linecap:butt; image-rendering:optimizeQuality;"><line y2="-7.5" y1="-31.1484" x2="-90.933" x1="-90.933" style="fill:none;"/><path style="stroke:none;" d="M-65.203 -52.933 L-64.703 -52.067 L-83.8455 -38.128 L-86.8455 -43.3241 Z"/><line y2="6.4896" y1="-5.827" x2="-66.703" x1="-45.3682" style="fill:none;"/><line y2="9.5207" y1="-2.7959" x2="-64.953" x1="-43.6183" style="fill:none;"/><line y2="52.5" y1="40.6888" x2="-38.97" x1="-18.513" style="fill:none;"/><path style="stroke:none;" d="M-83.2668 -96.4387 L-86.1781 -91.3901 L-85.259 -90.9816 L-82.4533 -95.8469 L-83.2668 -96.4387 ZM-80.8265 -94.6633 L-83.4207 -90.1645 L-82.5016 -89.756 L-80.013 -94.0715 L-80.013 -94.0715 L-80.8265 -94.6633 ZM-78.3861 -92.8879 L-80.6634 -88.9389 L-80.6634 -88.9389 L-79.7443 -88.5304 L-79.7443 -88.5304 L-77.5727 -92.2961 L-78.3861 -92.8879 ZM-75.9458 -91.1125 L-77.906 -87.7133 L-77.906 -87.7133 L-76.9869 -87.3048 L-75.1324 -90.5207 L-75.1324 -90.5207 L-75.9458 -91.1125 ZM-73.5055 -89.3371 L-75.1487 -86.4877 L-75.1487 -86.4877 L-74.2295 -86.0792 L-72.6921 -88.7453 L-72.6921 -88.7453 L-73.5055 -89.3371 ZM-71.0652 -87.5617 L-72.3913 -85.2621 L-72.3913 -85.2621 L-71.4722 -84.8536 L-70.2518 -86.9699 L-70.2518 -86.9699 L-71.0652 -87.5617 ZM-68.6249 -85.7863 L-69.634 -84.0365 L-69.634 -84.0365 L-68.7148 -83.628 L-67.8115 -85.1945 L-67.8115 -85.1945 L-68.6249 -85.7863 ZM-66.1846 -84.0109 L-66.8766 -82.8109 L-66.8766 -82.8109 L-65.9575 -82.4023 L-65.3711 -83.4191 L-65.3711 -83.4191 L-66.1846 -84.0109 Z"/><line y2="-37.5" y1="-49.3214" x2="-194.856" x1="-215.3306" style="fill:none;"/><line y2="97.5" y1="121.0234" x2="-64.953" x1="-64.953" style="fill:none;"/><line y2="-49.3112" y1="-37.5" x2="33.447" x1="12.99" style="fill:none;"/><path style="stroke:none;" d="M-13.24 -52.067 L-12.74 -52.933 L16.2399 -38.7991 L10.2401 -35.3349 Z"/><line y2="-37.5" y1="-49.3216" x2="64.953" x1="44.4756" style="fill:none;"/><line y2="-52.5" y1="-37.5" x2="90.933" x1="64.953" style="fill:none;"/><line y2="-13.9766" y1="-38.5103" x2="63.203" x1="63.203" style="fill:none;"/><line y2="-13.9766" y1="-38.5104" x2="66.703" x1="66.703" style="fill:none;"/><line y2="-37.5" y1="-52.5" x2="116.913" x1="90.933" style="fill:none;"/><line y2="-41.5415" y1="-54.5207" x2="116.9131" x1="94.433" style="fill:none;"/></g><g transform="translate(235,135)" style="stroke-linecap:butt; font-size:8.4px; fill:gray; text-rendering:geometricPrecision; image-rendering:optimizeQuality; color-rendering:optimizeQuality; font-family:'Open Sans'; font-style:italic; stroke:gray; color-interpolation:linearRGB;"><path style="stroke:none;" d="M94.7755 -35.1757 Q94.7755 -36.5039 95.2443 -37.6289 Q95.713 -38.7539 96.7443 -39.832 L97.3537 -39.832 Q96.3849 -38.7695 95.9005 -37.5976 Q95.4162 -36.4257 95.4162 -35.1914 Q95.4162 -33.8632 95.8537 -32.8476 L95.338 -32.8476 Q94.7755 -33.8789 94.7755 -35.1757 ZM100.0387 -34.1132 L97.1793 -34.1132 L98.3825 -39.832 L101.2575 -39.832 L101.1325 -39.2226 L98.9137 -39.2226 L98.5387 -37.3945 L100.5856 -37.3945 L100.4762 -36.8007 L98.4137 -36.8007 L97.9606 -34.707 L100.1793 -34.707 L100.0387 -34.1132 ZM103.0703 -37.4882 Q103.0703 -36.1601 102.5937 -35.0273 Q102.1171 -33.8945 101.1015 -32.8476 L100.4921 -32.8476 Q102.4296 -35.0039 102.4296 -37.4882 Q102.4296 -38.8164 101.9921 -39.832 L102.5078 -39.832 Q103.0703 -38.7695 103.0703 -37.4882 Z"/><line y2="-52.5" y1="-37.5" x2="142.893" x1="116.913" style="fill:none; stroke:black;"/><path style="fill:black; stroke:none;" d="M-38.47 -97.5 L-39.47 -97.5 L-41.97 -121.1484 L-35.97 -121.1484 Z"/><path style="fill:black; stroke:none;" d="M5.3144 -96.4344 L4.501 -95.8425 L4.501 -95.8425 L7.3076 -90.9757 L7.3076 -90.9757 L8.2267 -91.3842 L8.2267 -91.3842 L5.3144 -96.4344 ZM2.8742 -94.6588 L2.0609 -94.0669 L2.0609 -94.0669 L4.5501 -89.7503 L4.5501 -89.7503 L5.4692 -90.1588 L5.4692 -90.1588 L2.8742 -94.6588 ZM0.4341 -92.8832 L-0.3793 -92.2913 L-0.3793 -92.2913 L1.7926 -88.525 L1.7926 -88.525 L2.7118 -88.9334 L2.7118 -88.9334 L0.4341 -92.8832 ZM-2.0061 -91.1075 L-2.8195 -90.5157 L-2.8195 -90.5157 L-0.9649 -87.2996 L-0.9649 -87.2996 L-0.0457 -87.708 L-0.0457 -87.708 L-2.0061 -91.1075 ZM-4.4463 -89.3319 L-5.2597 -88.74 L-5.2597 -88.74 L-3.7224 -86.0742 L-3.7224 -86.0742 L-2.8032 -86.4827 L-2.8032 -86.4827 L-4.4463 -89.3319 ZM-6.8865 -87.5563 L-7.6998 -86.9644 L-7.6998 -86.9644 L-6.4799 -84.8489 L-6.4799 -84.8489 L-5.5607 -85.2573 L-5.5607 -85.2573 L-6.8865 -87.5563 ZM-9.3266 -85.7806 L-10.14 -85.1888 L-10.14 -85.1888 L-9.2374 -83.6235 L-9.2374 -83.6235 L-8.3182 -84.0319 L-8.3182 -84.0319 L-9.3266 -85.7806 ZM-11.7668 -84.005 L-12.5802 -83.4131 L-12.5802 -83.4131 L-11.9949 -82.3981 L-11.9949 -82.3981 L-11.0757 -82.8066 L-11.0757 -82.8066 L-11.7668 -84.005 Z"/><line y2="-82.5" y1="-94.3112" x2="194.856" x1="215.313" style="fill:none; stroke:black;"/><line y2="-7.5" y1="7.5" x2="-90.933" x1="-116.913" style="fill:none; stroke:black;"/><line y2="-3.4585" y1="9.5207" x2="-90.9329" x1="-113.413" style="fill:none; stroke:black;"/><line y2="31.0234" y1="7.5" x2="-116.913" x1="-116.913" style="fill:none; stroke:black;"/><line y2="-7.5" y1="7.5" x2="-142.893" x1="-116.913" style="fill:none; stroke:black;"/><line y2="7.5" y1="-7.5" x2="-64.953" x1="-90.933" style="fill:none; stroke:black;"/><line y2="52.5" y1="40.6786" x2="-90.933" x1="-111.4076" style="fill:none; stroke:black;"/><line y2="37.5" y1="7.5" x2="-64.953" x1="-64.953" style="fill:none; stroke:black;"/><line y2="37.5" y1="52.5" x2="-64.953" x1="-90.933" style="fill:none; stroke:black;"/><line y2="82.5" y1="52.5" x2="-90.933" x1="-90.933" style="fill:none; stroke:black;"/><line y2="80.4793" y1="54.5207" x2="-87.433" x1="-87.433" style="fill:none; stroke:black;"/><line y2="52.5" y1="37.5" x2="-38.97" x1="-64.953" style="fill:none; stroke:black;"/><line y2="54.5209" y1="41.5415" x2="-42.4699" x1="-64.9529" style="fill:none; stroke:black;"/><line y2="97.5" y1="82.5" x2="-64.953" x1="-90.933" style="fill:none; stroke:black;"/><line y2="82.5" y1="52.5" x2="-38.97" x1="-38.97" style="fill:none; stroke:black;"/><line y2="82.5" y1="97.5" x2="-38.97" x1="-64.953" style="fill:none; stroke:black;"/><line y2="80.4791" y1="93.4585" x2="-42.4699" x1="-64.9529" style="fill:none; stroke:black;"/><line y2="-37.5" y1="-7.5" x2="-142.893" x1="-142.893" style="fill:none; stroke:black;"/><line y2="-35.4793" y1="-9.5207" x2="-146.393" x1="-146.393" style="fill:none; stroke:black;"/><line y2="7.5" y1="-7.5" x2="-168.876" x1="-142.893" style="fill:none; stroke:black;"/><line y2="-52.5" y1="-37.5" x2="-168.876" x1="-142.893" style="fill:none; stroke:black;"/><line y2="-7.5" y1="7.5" x2="-194.856" x1="-168.876" style="fill:none; stroke:black;"/><line y2="-9.5207" y1="3.4585" x2="-191.356" x1="-168.8759" style="fill:none; stroke:black;"/><line y2="-37.5" y1="-52.5" x2="-194.856" x1="-168.876" style="fill:none; stroke:black;"/><line y2="-35.4793" y1="-48.4585" x2="-191.356" x1="-168.8759" style="fill:none; stroke:black;"/><line y2="-37.5" y1="-7.5" x2="-194.856" x1="-194.856" style="fill:none; stroke:black;"/><line y2="-40.7412" y1="-52.5" x2="-44.5843" x1="-64.953" style="fill:none; stroke:black;"/><line y2="-82.5" y1="-52.5" x2="-64.953" x1="-64.953" style="fill:none; stroke:black;"/><line y2="-52.5" y1="-40.726" x2="-12.99" x1="-33.3825" style="fill:none; stroke:black;"/><line y2="-97.5" y1="-82.5" x2="-38.97" x1="-64.953" style="fill:none; stroke:black;"/><line y2="-82.5" y1="-52.5" x2="-12.99" x1="-12.99" style="fill:none; stroke:black;"/><line y2="-82.5" y1="-97.5" x2="-12.99" x1="-38.97" style="fill:none; stroke:black;"/><line y2="-82.5" y1="-52.5" x2="142.893" x1="142.893" style="fill:none; stroke:black;"/><line y2="-80.4793" y1="-54.5207" x2="146.393" x1="146.393" style="fill:none; stroke:black;"/><line y2="-37.5" y1="-52.5" x2="168.876" x1="142.893" style="fill:none; stroke:black;"/><line y2="-97.5" y1="-82.5" x2="168.876" x1="142.893" style="fill:none; stroke:black;"/><line y2="-52.5" y1="-37.5" x2="194.856" x1="168.876" style="fill:none; stroke:black;"/><line y2="-54.5207" y1="-41.5415" x2="191.356" x1="168.8759" style="fill:none; stroke:black;"/><line y2="-82.5" y1="-97.5" x2="194.856" x1="168.876" style="fill:none; stroke:black;"/><line y2="-80.4793" y1="-93.4585" x2="191.356" x1="168.8759" style="fill:none; stroke:black;"/><line y2="-82.5" y1="-52.5" x2="194.856" x1="194.856" style="fill:none; stroke:black;"/></g><g transform="translate(235,135)" style="fill:rgb(230,0,0); text-rendering:geometricPrecision; color-rendering:optimizeQuality; image-rendering:optimizeQuality; font-family:'Open Sans'; stroke:rgb(230,0,0); color-interpolation:linearRGB;"><path style="stroke:none;" d="M-86.9955 -37.5703 Q-86.9955 -35.5078 -88.0346 -34.3281 Q-89.0736 -33.1484 -90.9174 -33.1484 Q-92.808 -33.1484 -93.8392 -34.3125 Q-94.8705 -35.4766 -94.8705 -37.5859 Q-94.8705 -39.6797 -93.8392 -40.8281 Q-92.808 -41.9766 -90.9174 -41.9766 Q-89.058 -41.9766 -88.0267 -40.8047 Q-86.9955 -39.6328 -86.9955 -37.5703 ZM-93.8236 -37.5703 Q-93.8236 -35.8359 -93.0814 -34.9297 Q-92.3392 -34.0234 -90.9174 -34.0234 Q-89.4955 -34.0234 -88.7689 -34.9219 Q-88.0424 -35.8203 -88.0424 -37.5703 Q-88.0424 -39.3047 -88.7689 -40.1953 Q-89.4955 -41.0859 -90.9174 -41.0859 Q-92.3392 -41.0859 -93.0814 -40.1875 Q-93.8236 -39.2891 -93.8236 -37.5703 Z"/><path style="stroke:none;" d="M-35.0325 -7.5703 Q-35.0325 -5.5078 -36.0716 -4.3281 Q-37.1106 -3.1484 -38.9544 -3.1484 Q-40.845 -3.1484 -41.8763 -4.3125 Q-42.9075 -5.4766 -42.9075 -7.5859 Q-42.9075 -9.6797 -41.8763 -10.8281 Q-40.845 -11.9766 -38.9544 -11.9766 Q-37.095 -11.9766 -36.0638 -10.8047 Q-35.0325 -9.6328 -35.0325 -7.5703 ZM-41.8606 -7.5703 Q-41.8606 -5.8359 -41.1184 -4.9297 Q-40.3763 -4.0234 -38.9544 -4.0234 Q-37.5325 -4.0234 -36.8059 -4.9219 Q-36.0794 -5.8203 -36.0794 -7.5703 Q-36.0794 -9.3047 -36.8059 -10.1953 Q-37.5325 -11.0859 -38.9544 -11.0859 Q-40.3763 -11.0859 -41.1184 -10.1875 Q-41.8606 -9.2891 -41.8606 -7.5703 Z"/><path style="stroke:none;" d="M-9.0525 37.4297 Q-9.0525 39.4922 -10.0916 40.6719 Q-11.1306 41.8516 -12.9744 41.8516 Q-14.865 41.8516 -15.8962 40.6875 Q-16.9275 39.5234 -16.9275 37.4141 Q-16.9275 35.3203 -15.8962 34.1719 Q-14.865 33.0234 -12.9744 33.0234 Q-11.115 33.0234 -10.0837 34.1953 Q-9.0525 35.3672 -9.0525 37.4297 ZM-15.8806 37.4297 Q-15.8806 39.1641 -15.1384 40.0703 Q-14.3962 40.9766 -12.9744 40.9766 Q-11.5525 40.9766 -10.8259 40.0781 Q-10.0994 39.1797 -10.0994 37.4297 Q-10.0994 35.6953 -10.8259 34.8047 Q-11.5525 33.9141 -12.9744 33.9141 Q-14.3962 33.9141 -15.1384 34.8125 Q-15.8806 35.7109 -15.8806 37.4297 Z"/><path style="stroke:none;" d="M-1.5369 41.7266 L-2.5369 41.7266 L-2.5369 37.6953 L-7.0525 37.6953 L-7.0525 41.7266 L-8.0525 41.7266 L-8.0525 33.1641 L-7.0525 33.1641 L-7.0525 36.8047 L-2.5369 36.8047 L-2.5369 33.1641 L-1.5369 33.1641 L-1.5369 41.7266 Z"/><path style="stroke:none;" d="M-86.9955 -97.5703 Q-86.9955 -95.5078 -88.0346 -94.3281 Q-89.0736 -93.1484 -90.9174 -93.1484 Q-92.808 -93.1484 -93.8392 -94.3125 Q-94.8705 -95.4766 -94.8705 -97.5859 Q-94.8705 -99.6797 -93.8392 -100.8281 Q-92.808 -101.9766 -90.9174 -101.9766 Q-89.058 -101.9766 -88.0267 -100.8047 Q-86.9955 -99.6328 -86.9955 -97.5703 ZM-93.8236 -97.5703 Q-93.8236 -95.8359 -93.0814 -94.9297 Q-92.3392 -94.0234 -90.9174 -94.0234 Q-89.4955 -94.0234 -88.7689 -94.9219 Q-88.0424 -95.8203 -88.0424 -97.5703 Q-88.0424 -99.3047 -88.7689 -100.1953 Q-89.4955 -101.0859 -90.9174 -101.0859 Q-92.3392 -101.0859 -93.0814 -100.1875 Q-93.8236 -99.2891 -93.8236 -97.5703 Z"/><path style="stroke:none;" d="M-95.8705 -93.2734 L-96.8705 -93.2734 L-96.8705 -97.3047 L-101.3861 -97.3047 L-101.3861 -93.2734 L-102.3861 -93.2734 L-102.3861 -101.8359 L-101.3861 -101.8359 L-101.3861 -98.1953 L-96.8705 -98.1953 L-96.8705 -101.8359 L-95.8705 -101.8359 L-95.8705 -93.2734 Z"/><path style="stroke:none;" d="M-216.8985 -52.5703 Q-216.8985 -50.5078 -217.9376 -49.3281 Q-218.9766 -48.1484 -220.8204 -48.1484 Q-222.711 -48.1484 -223.7422 -49.3125 Q-224.7735 -50.4766 -224.7735 -52.5859 Q-224.7735 -54.6797 -223.7422 -55.8281 Q-222.711 -56.9766 -220.8204 -56.9766 Q-218.961 -56.9766 -217.9297 -55.8047 Q-216.8985 -54.6328 -216.8985 -52.5703 ZM-223.7266 -52.5703 Q-223.7266 -50.8359 -222.9844 -49.9297 Q-222.2422 -49.0234 -220.8204 -49.0234 Q-219.3985 -49.0234 -218.6719 -49.9219 Q-217.9454 -50.8203 -217.9454 -52.5703 Q-217.9454 -54.3047 -218.6719 -55.1953 Q-219.3985 -56.0859 -220.8204 -56.0859 Q-222.2422 -56.0859 -222.9844 -55.1875 Q-223.7266 -54.2891 -223.7266 -52.5703 Z"/><path style="stroke:none;" d="M-225.7735 -48.2734 L-226.7735 -48.2734 L-226.7735 -52.3047 L-231.2891 -52.3047 L-231.2891 -48.2734 L-232.2891 -48.2734 L-232.2891 -56.8359 L-231.2891 -56.8359 L-231.2891 -53.1953 L-226.7735 -53.1953 L-226.7735 -56.8359 L-225.7735 -56.8359 L-225.7735 -48.2734 Z"/><path style="stroke:none;" d="M-61.0155 127.4297 Q-61.0155 129.4922 -62.0546 130.6719 Q-63.0936 131.8516 -64.9374 131.8516 Q-66.828 131.8516 -67.8593 130.6875 Q-68.8905 129.5234 -68.8905 127.4141 Q-68.8905 125.3203 -67.8593 124.1719 Q-66.828 123.0234 -64.9374 123.0234 Q-63.078 123.0234 -62.0468 124.1953 Q-61.0155 125.3672 -61.0155 127.4297 ZM-67.8436 127.4297 Q-67.8436 129.1641 -67.1014 130.0703 Q-66.3593 130.9766 -64.9374 130.9766 Q-63.5155 130.9766 -62.7889 130.0781 Q-62.0624 129.1797 -62.0624 127.4297 Q-62.0624 125.6953 -62.7889 124.8047 Q-63.5155 123.9141 -64.9374 123.9141 Q-66.3593 123.9141 -67.1014 124.8125 Q-67.8436 125.7109 -67.8436 127.4297 Z"/><path style="stroke:none;" d="M-53.4999 131.7266 L-54.4999 131.7266 L-54.4999 127.6953 L-59.0155 127.6953 L-59.0155 131.7266 L-60.0155 131.7266 L-60.0155 123.1641 L-59.0155 123.1641 L-59.0155 126.8047 L-54.4999 126.8047 L-54.4999 123.1641 L-53.4999 123.1641 L-53.4999 131.7266 Z"/><path style="stroke:none;" d="M42.9075 -52.5703 Q42.9075 -50.5078 41.8684 -49.3281 Q40.8294 -48.1484 38.9856 -48.1484 Q37.095 -48.1484 36.0638 -49.3125 Q35.0325 -50.4766 35.0325 -52.5859 Q35.0325 -54.6797 36.0638 -55.8281 Q37.095 -56.9766 38.9856 -56.9766 Q40.845 -56.9766 41.8763 -55.8047 Q42.9075 -54.6328 42.9075 -52.5703 ZM36.0794 -52.5703 Q36.0794 -50.8359 36.8216 -49.9297 Q37.5638 -49.0234 38.9856 -49.0234 Q40.4075 -49.0234 41.1341 -49.9219 Q41.8606 -50.8203 41.8606 -52.5703 Q41.8606 -54.3047 41.1341 -55.1953 Q40.4075 -56.0859 38.9856 -56.0859 Q37.5638 -56.0859 36.8216 -55.1875 Q36.0794 -54.2891 36.0794 -52.5703 Z"/></g><g transform="translate(235,135)" style="stroke-linecap:butt; text-rendering:geometricPrecision; color-rendering:optimizeQuality; image-rendering:optimizeQuality; font-family:'Open Sans'; color-interpolation:linearRGB; stroke-miterlimit:5;"><path style="fill:none;" d="M64.52 -37.75 L64.953 -37.5 L65.386 -37.75"/><path style="fill:none;" d="M90.5 -52.25 L90.933 -52.5 L91.366 -52.25"/><path style="fill:rgb(230,0,0); stroke:none;" d="M68.8905 -7.5703 Q68.8905 -5.5078 67.8514 -4.3281 Q66.8124 -3.1484 64.9686 -3.1484 Q63.078 -3.1484 62.0468 -4.3125 Q61.0155 -5.4766 61.0155 -7.5859 Q61.0155 -9.6797 62.0468 -10.8281 Q63.078 -11.9766 64.9686 -11.9766 Q66.828 -11.9766 67.8593 -10.8047 Q68.8905 -9.6328 68.8905 -7.5703 ZM62.0624 -7.5703 Q62.0624 -5.8359 62.8046 -4.9297 Q63.5468 -4.0234 64.9686 -4.0234 Q66.3905 -4.0234 67.1171 -4.9219 Q67.8436 -5.8203 67.8436 -7.5703 Q67.8436 -9.3047 67.1171 -10.1953 Q66.3905 -11.0859 64.9686 -11.0859 Q63.5468 -11.0859 62.8046 -10.1875 Q62.0624 -9.2891 62.0624 -7.5703 Z"/><path style="fill:none;" d="M116.48 -37.75 L116.913 -37.5 L117.346 -37.75"/><path style="fill:rgb(230,0,0); stroke:none;" d="M-35.0325 -127.5703 Q-35.0325 -125.5078 -36.0716 -124.3281 Q-37.1106 -123.1484 -38.9544 -123.1484 Q-40.845 -123.1484 -41.8763 -124.3125 Q-42.9075 -125.4766 -42.9075 -127.5859 Q-42.9075 -129.6797 -41.8763 -130.8281 Q-40.845 -131.9766 -38.9544 -131.9766 Q-37.095 -131.9766 -36.0638 -130.8047 Q-35.0325 -129.6328 -35.0325 -127.5703 ZM-41.8606 -127.5703 Q-41.8606 -125.8359 -41.1184 -124.9297 Q-40.3763 -124.0234 -38.9544 -124.0234 Q-37.5325 -124.0234 -36.8059 -124.9219 Q-36.0794 -125.8203 -36.0794 -127.5703 Q-36.0794 -129.3047 -36.8059 -130.1953 Q-37.5325 -131.0859 -38.9544 -131.0859 Q-40.3763 -131.0859 -41.1184 -130.1875 Q-41.8606 -129.2891 -41.8606 -127.5703 Z"/><path style="fill:rgb(230,0,0); stroke:none;" d="M-27.5169 -123.2734 L-28.5169 -123.2734 L-28.5169 -127.3047 L-33.0325 -127.3047 L-33.0325 -123.2734 L-34.0325 -123.2734 L-34.0325 -131.8359 L-33.0325 -131.8359 L-33.0325 -128.1953 L-28.5169 -128.1953 L-28.5169 -131.8359 L-27.5169 -131.8359 L-27.5169 -123.2734 Z"/><path style="fill:rgb(230,0,0); stroke:none;" d="M16.9275 -97.5703 Q16.9275 -95.5078 15.8884 -94.3281 Q14.8494 -93.1484 13.0056 -93.1484 Q11.115 -93.1484 10.0837 -94.3125 Q9.0525 -95.4766 9.0525 -97.5859 Q9.0525 -99.6797 10.0837 -100.8281 Q11.115 -101.9766 13.0056 -101.9766 Q14.865 -101.9766 15.8962 -100.8047 Q16.9275 -99.6328 16.9275 -97.5703 ZM10.0994 -97.5703 Q10.0994 -95.8359 10.8416 -94.9297 Q11.5837 -94.0234 13.0056 -94.0234 Q14.4275 -94.0234 15.1541 -94.9219 Q15.8806 -95.8203 15.8806 -97.5703 Q15.8806 -99.3047 15.1541 -100.1953 Q14.4275 -101.0859 13.0056 -101.0859 Q11.5837 -101.0859 10.8416 -100.1875 Q10.0994 -99.2891 10.0994 -97.5703 Z"/><path style="fill:rgb(230,0,0); stroke:none;" d="M24.4431 -93.2734 L23.4431 -93.2734 L23.4431 -97.3047 L18.9275 -97.3047 L18.9275 -93.2734 L17.9275 -93.2734 L17.9275 -101.8359 L18.9275 -101.8359 L18.9275 -98.1953 L23.4431 -98.1953 L23.4431 -101.8359 L24.4431 -101.8359 L24.4431 -93.2734 Z"/><path style="fill:rgb(230,0,0); stroke:none;" d="M224.7735 -97.5703 Q224.7735 -95.5078 223.7344 -94.3281 Q222.6954 -93.1484 220.8516 -93.1484 Q218.961 -93.1484 217.9297 -94.3125 Q216.8985 -95.4766 216.8985 -97.5859 Q216.8985 -99.6797 217.9297 -100.8281 Q218.961 -101.9766 220.8516 -101.9766 Q222.711 -101.9766 223.7422 -100.8047 Q224.7735 -99.6328 224.7735 -97.5703 ZM217.9454 -97.5703 Q217.9454 -95.8359 218.6876 -94.9297 Q219.4297 -94.0234 220.8516 -94.0234 Q222.2735 -94.0234 223.0001 -94.9219 Q223.7266 -95.8203 223.7266 -97.5703 Q223.7266 -99.3047 223.0001 -100.1953 Q222.2735 -101.0859 220.8516 -101.0859 Q219.4297 -101.0859 218.6876 -100.1875 Q217.9454 -99.2891 217.9454 -97.5703 Z"/><path style="fill:rgb(230,0,0); stroke:none;" d="M232.2891 -93.2734 L231.2891 -93.2734 L231.2891 -97.3047 L226.7735 -97.3047 L226.7735 -93.2734 L225.7735 -93.2734 L225.7735 -101.8359 L226.7735 -101.8359 L226.7735 -98.1953 L231.2891 -98.1953 L231.2891 -101.8359 L232.2891 -101.8359 L232.2891 -93.2734 Z"/><path style="fill:none;" d="M-116.48 7.25 L-116.913 7.5 L-116.913 8"/><path style="fill:none;" d="M-91.366 -7.25 L-90.933 -7.5 L-90.933 -8"/><path style="fill:rgb(230,0,0); stroke:none;" d="M-112.9755 37.4297 Q-112.9755 39.4922 -114.0146 40.6719 Q-115.0536 41.8516 -116.8974 41.8516 Q-118.788 41.8516 -119.8193 40.6875 Q-120.8505 39.5234 -120.8505 37.4141 Q-120.8505 35.3203 -119.8193 34.1719 Q-118.788 33.0234 -116.8974 33.0234 Q-115.038 33.0234 -114.0068 34.1953 Q-112.9755 35.3672 -112.9755 37.4297 ZM-119.8036 37.4297 Q-119.8036 39.1641 -119.0614 40.0703 Q-118.3193 40.9766 -116.8974 40.9766 Q-115.4755 40.9766 -114.7489 40.0781 Q-114.0224 39.1797 -114.0224 37.4297 Q-114.0224 35.6953 -114.7489 34.8047 Q-115.4755 33.9141 -116.8974 33.9141 Q-118.3193 33.9141 -119.0614 34.8125 Q-119.8036 35.7109 -119.8036 37.4297 Z"/><path style="fill:none;" d="M-65.386 7.25 L-64.953 7.5 L-64.953 8"/><path style="fill:none;" d="M-90.933 53 L-90.933 52.5 L-91.366 52.25"/><path style="fill:none;" d="M-64.52 37.75 L-64.953 37.5 L-65.386 37.75"/><path style="fill:none;" d="M-90.933 82 L-90.933 82.5 L-90.5 82.75"/><path style="fill:none;" d="M-39.403 52.25 L-38.97 52.5 L-38.537 52.25"/><path style="fill:none;" d="M-64.52 97.25 L-64.953 97.5 L-64.953 98"/><path style="fill:none;" d="M-38.97 82 L-38.97 82.5 L-39.403 82.75"/><path style="fill:none;" d="M-142.893 -8 L-142.893 -7.5 L-142.46 -7.25"/><path style="fill:none;" d="M-142.893 -37 L-142.893 -37.5 L-143.326 -37.75"/><path style="fill:none;" d="M-168.443 7.25 L-168.876 7.5 L-169.309 7.25"/><path style="fill:none;" d="M-168.443 -52.25 L-168.876 -52.5 L-169.309 -52.25"/><path style="fill:none;" d="M-194.423 -7.25 L-194.856 -7.5 L-194.856 -8"/><path style="fill:none;" d="M-194.423 -37.75 L-194.856 -37.5 L-194.856 -37"/></g><g transform="translate(235,135)" style="stroke-linecap:butt; font-size:8.4px; fill:gray; text-rendering:geometricPrecision; image-rendering:optimizeQuality; color-rendering:optimizeQuality; font-family:'Open Sans'; font-style:italic; stroke:gray; color-interpolation:linearRGB; stroke-miterlimit:5;"><path style="stroke:none;" d="M-77.7218 -56.2968 Q-77.7218 -57.6249 -77.2531 -58.7499 Q-76.7843 -59.8749 -75.7531 -60.953 L-75.1437 -60.953 Q-76.1125 -59.8905 -76.5968 -58.7186 Q-77.0812 -57.5468 -77.0812 -56.3124 Q-77.0812 -54.9843 -76.6437 -53.9686 L-77.1593 -53.9686 Q-77.7218 -54.9999 -77.7218 -56.2968 ZM-72.0993 -56.8905 Q-72.0993 -56.0624 -72.6462 -55.6093 Q-73.193 -55.1561 -74.193 -55.1561 Q-74.5993 -55.1561 -74.9118 -55.2108 Q-75.2243 -55.2655 -75.5055 -55.4061 L-75.5055 -56.0624 Q-74.8805 -55.7343 -74.1774 -55.7343 Q-73.5524 -55.7343 -73.1774 -56.0311 Q-72.8024 -56.328 -72.8024 -56.8436 Q-72.8024 -57.1561 -73.0055 -57.3827 Q-73.2087 -57.6093 -73.7712 -57.9374 Q-74.3649 -58.2655 -74.5915 -58.5936 Q-74.818 -58.9218 -74.818 -59.3749 Q-74.818 -60.1093 -74.3024 -60.5702 Q-73.7868 -61.0311 -72.943 -61.0311 Q-72.568 -61.0311 -72.2321 -60.953 Q-71.8962 -60.8749 -71.5212 -60.703 L-71.7868 -60.1093 Q-72.0368 -60.2655 -72.3571 -60.3515 Q-72.6774 -60.4374 -72.943 -60.4374 Q-73.4743 -60.4374 -73.7946 -60.164 Q-74.1149 -59.8905 -74.1149 -59.4218 Q-74.1149 -59.2186 -74.0446 -59.0702 Q-73.9743 -58.9218 -73.8337 -58.789 Q-73.693 -58.6561 -73.2712 -58.4061 Q-72.7087 -58.0624 -72.5055 -57.8671 Q-72.3024 -57.6718 -72.2008 -57.4374 Q-72.0993 -57.203 -72.0993 -56.8905 ZM-69.5048 -58.6093 Q-69.5048 -57.2811 -69.9814 -56.1483 Q-70.4579 -55.0155 -71.4735 -53.9686 L-72.0829 -53.9686 Q-70.1454 -56.1249 -70.1454 -58.6093 Q-70.1454 -59.9374 -70.5829 -60.953 L-70.0673 -60.953 Q-69.5048 -59.8905 -69.5048 -58.6093 Z"/></g><g transform="translate(235,135)" style="stroke-linecap:butt; fill:rgb(230,0,0); text-rendering:geometricPrecision; color-rendering:optimizeQuality; image-rendering:optimizeQuality; font-family:'Open Sans'; stroke:rgb(230,0,0); color-interpolation:linearRGB; stroke-miterlimit:5;"><path style="stroke:none;" d="M-35.0325 -37.5703 Q-35.0325 -35.5078 -36.0716 -34.3281 Q-37.1106 -33.1484 -38.9544 -33.1484 Q-40.845 -33.1484 -41.8763 -34.3125 Q-42.9075 -35.4766 -42.9075 -37.5859 Q-42.9075 -39.6797 -41.8763 -40.8281 Q-40.845 -41.9766 -38.9544 -41.9766 Q-37.095 -41.9766 -36.0638 -40.8047 Q-35.0325 -39.6328 -35.0325 -37.5703 ZM-41.8606 -37.5703 Q-41.8606 -35.8359 -41.1184 -34.9297 Q-40.3763 -34.0234 -38.9544 -34.0234 Q-37.5325 -34.0234 -36.8059 -34.9219 Q-36.0794 -35.8203 -36.0794 -37.5703 Q-36.0794 -39.3047 -36.8059 -40.1953 Q-37.5325 -41.0859 -38.9544 -41.0859 Q-40.3763 -41.0859 -41.1184 -40.1875 Q-41.8606 -39.2891 -41.8606 -37.5703 Z"/><path style="fill:none; stroke:black;" d="M-64.953 -82 L-64.953 -82.5 L-64.52 -82.75"/></g><g transform="translate(235,135)" style="stroke-linecap:butt; font-size:8.4px; fill:gray; text-rendering:geometricPrecision; image-rendering:optimizeQuality; color-rendering:optimizeQuality; font-family:'Open Sans'; font-style:italic; stroke:gray; color-interpolation:linearRGB; stroke-miterlimit:5;"><path style="stroke:none;" d="M-69.3414 -91.3359 Q-69.3414 -92.6641 -68.8726 -93.7891 Q-68.4039 -94.9141 -67.3726 -95.9922 L-66.7633 -95.9922 Q-67.732 -94.9297 -68.2164 -93.7578 Q-68.7008 -92.5859 -68.7008 -91.3516 Q-68.7008 -90.0234 -68.2633 -89.0078 L-68.7789 -89.0078 Q-69.3414 -90.0391 -69.3414 -91.3359 ZM-65.7813 -92.6484 L-66.2813 -90.2734 L-66.9376 -90.2734 L-65.7345 -95.9922 L-64.4845 -95.9922 Q-62.7501 -95.9922 -62.7501 -94.5547 Q-62.7501 -93.1953 -64.1876 -92.8047 L-63.2501 -90.2734 L-63.9688 -90.2734 L-64.797 -92.6484 L-65.7813 -92.6484 ZM-65.2032 -95.3984 Q-65.5938 -93.4766 -65.6563 -93.2266 L-65.0001 -93.2266 Q-64.2501 -93.2266 -63.8438 -93.5547 Q-63.4376 -93.8828 -63.4376 -94.5078 Q-63.4376 -94.9766 -63.6954 -95.1875 Q-63.9532 -95.3984 -64.547 -95.3984 L-65.2032 -95.3984 ZM-60.5641 -93.6484 Q-60.5641 -92.3203 -61.0407 -91.1875 Q-61.5172 -90.0547 -62.5329 -89.0078 L-63.1422 -89.0078 Q-61.2047 -91.1641 -61.2047 -93.6484 Q-61.2047 -94.9766 -61.6422 -95.9922 L-61.1266 -95.9922 Q-60.5641 -94.9297 -60.5641 -93.6484 Z"/><path style="stroke:none;" d="M-26.0388 -56.336 Q-26.0388 -57.6642 -25.5701 -58.7892 Q-25.1013 -59.9142 -24.0701 -60.9923 L-23.4607 -60.9923 Q-24.4295 -59.9298 -24.9138 -58.7579 Q-25.3982 -57.586 -25.3982 -56.3517 Q-25.3982 -55.0235 -24.9607 -54.0079 L-25.4763 -54.0079 Q-26.0388 -55.0392 -26.0388 -56.336 ZM-22.4788 -57.6485 L-22.9788 -55.2735 L-23.635 -55.2735 L-22.4319 -60.9923 L-21.1819 -60.9923 Q-19.4475 -60.9923 -19.4475 -59.5548 Q-19.4475 -58.1954 -20.885 -57.8048 L-19.9475 -55.2735 L-20.6663 -55.2735 L-21.4944 -57.6485 L-22.4788 -57.6485 ZM-21.9006 -60.3985 Q-22.2913 -58.4767 -22.3538 -58.2267 L-21.6975 -58.2267 Q-20.9475 -58.2267 -20.5413 -58.5548 Q-20.135 -58.8829 -20.135 -59.5079 Q-20.135 -59.9767 -20.3928 -60.1876 Q-20.6506 -60.3985 -21.2444 -60.3985 L-21.9006 -60.3985 ZM-17.2615 -58.6485 Q-17.2615 -57.3204 -17.7381 -56.1876 Q-18.2147 -55.0548 -19.2303 -54.0079 L-19.8397 -54.0079 Q-17.9022 -56.1642 -17.9022 -58.6485 Q-17.9022 -59.9767 -18.3397 -60.9923 L-17.824 -60.9923 Q-17.2615 -59.9298 -17.2615 -58.6485 Z"/><path style="stroke:none;" d="M-51.7388 -101.2968 Q-51.7388 -102.6249 -51.2701 -103.7499 Q-50.8013 -104.8749 -49.7701 -105.953 L-49.1607 -105.953 Q-50.1295 -104.8905 -50.6138 -103.7186 Q-51.0982 -102.5468 -51.0982 -101.3124 Q-51.0982 -99.9843 -50.6607 -98.9686 L-51.1763 -98.9686 Q-51.7388 -99.9999 -51.7388 -101.2968 ZM-46.1163 -101.8905 Q-46.1163 -101.0624 -46.6632 -100.6093 Q-47.21 -100.1561 -48.21 -100.1561 Q-48.6163 -100.1561 -48.9288 -100.2108 Q-49.2413 -100.2655 -49.5225 -100.4061 L-49.5225 -101.0624 Q-48.8975 -100.7343 -48.1944 -100.7343 Q-47.5694 -100.7343 -47.1944 -101.0311 Q-46.8194 -101.328 -46.8194 -101.8436 Q-46.8194 -102.1561 -47.0225 -102.3827 Q-47.2257 -102.6093 -47.7882 -102.9374 Q-48.3819 -103.2655 -48.6085 -103.5936 Q-48.835 -103.9218 -48.835 -104.3749 Q-48.835 -105.1093 -48.3194 -105.5702 Q-47.8038 -106.0311 -46.96 -106.0311 Q-46.585 -106.0311 -46.2491 -105.953 Q-45.9132 -105.8749 -45.5382 -105.703 L-45.8038 -105.1093 Q-46.0538 -105.2655 -46.3741 -105.3515 Q-46.6944 -105.4374 -46.96 -105.4374 Q-47.4913 -105.4374 -47.8116 -105.164 Q-48.1319 -104.8905 -48.1319 -104.4218 Q-48.1319 -104.2186 -48.0616 -104.0702 Q-47.9913 -103.9218 -47.8507 -103.789 Q-47.71 -103.6561 -47.2882 -103.4061 Q-46.7257 -103.0624 -46.5225 -102.8671 Q-46.3194 -102.6718 -46.2178 -102.4374 Q-46.1163 -102.203 -46.1163 -101.8905 ZM-43.5218 -103.6093 Q-43.5218 -102.2811 -43.9984 -101.1483 Q-44.4749 -100.0155 -45.4905 -98.9686 L-46.0999 -98.9686 Q-44.1624 -101.1249 -44.1624 -103.6093 Q-44.1624 -104.9374 -44.5999 -105.953 L-44.0843 -105.953 Q-43.5218 -104.8905 -43.5218 -103.6093 Z"/><path style="fill:none; stroke:black;" d="M-12.99 -82 L-12.99 -82.5 L-13.423 -82.75"/><path style="stroke:none;" d="M-17.0985 -91.2969 Q-17.0985 -92.625 -16.6298 -93.75 Q-16.161 -94.875 -15.1298 -95.9531 L-14.5204 -95.9531 Q-15.4891 -94.8906 -15.9735 -93.7188 Q-16.4579 -92.5469 -16.4579 -91.3125 Q-16.4579 -89.9844 -16.0204 -88.9688 L-16.536 -88.9688 Q-17.0985 -90 -17.0985 -91.2969 ZM-11.476 -91.8906 Q-11.476 -91.0625 -12.0228 -90.6094 Q-12.5697 -90.1562 -13.5697 -90.1562 Q-13.976 -90.1562 -14.2885 -90.2109 Q-14.601 -90.2656 -14.8822 -90.4062 L-14.8822 -91.0625 Q-14.2572 -90.7344 -13.5541 -90.7344 Q-12.9291 -90.7344 -12.5541 -91.0312 Q-12.1791 -91.3281 -12.1791 -91.8438 Q-12.1791 -92.1562 -12.3822 -92.3828 Q-12.5853 -92.6094 -13.1478 -92.9375 Q-13.7416 -93.2656 -13.9681 -93.5938 Q-14.1947 -93.9219 -14.1947 -94.375 Q-14.1947 -95.1094 -13.6791 -95.5703 Q-13.1635 -96.0312 -12.3197 -96.0312 Q-11.9447 -96.0312 -11.6088 -95.9531 Q-11.2728 -95.875 -10.8978 -95.7031 L-11.1635 -95.1094 Q-11.4135 -95.2656 -11.7338 -95.3516 Q-12.0541 -95.4375 -12.3197 -95.4375 Q-12.851 -95.4375 -13.1713 -95.1641 Q-13.4916 -94.8906 -13.4916 -94.4219 Q-13.4916 -94.2188 -13.4213 -94.0703 Q-13.351 -93.9219 -13.2103 -93.7891 Q-13.0697 -93.6562 -12.6478 -93.4062 Q-12.0853 -93.0625 -11.8822 -92.8672 Q-11.6791 -92.6719 -11.5775 -92.4375 Q-11.476 -92.2031 -11.476 -91.8906 ZM-8.8815 -93.6094 Q-8.8815 -92.2812 -9.358 -91.1484 Q-9.8346 -90.0156 -10.8502 -88.9688 L-11.4596 -88.9688 Q-9.5221 -91.125 -9.5221 -93.6094 Q-9.5221 -94.9375 -9.9596 -95.9531 L-9.444 -95.9531 Q-8.8815 -94.8906 -8.8815 -93.6094 Z"/><path style="fill:none; stroke:black;" d="M142.893 -53 L142.893 -52.5 L142.46 -52.25"/><path style="fill:none; stroke:black;" d="M142.893 -82 L142.893 -82.5 L143.326 -82.75"/><path style="fill:none; stroke:black;" d="M168.443 -37.75 L168.876 -37.5 L169.309 -37.75"/><path style="fill:none; stroke:black;" d="M168.443 -97.25 L168.876 -97.5 L169.309 -97.25"/><path style="fill:none; stroke:black;" d="M194.423 -52.25 L194.856 -52.5 L194.856 -53"/><path style="fill:none; stroke:black;" d="M194.423 -82.75 L194.856 -82.5 L195.289 -82.75"/></g></g></svg></svg></svg></svg>