<svg xmlns:ns0="http://www.w3.org/2000/svg" xmlns="http://www.w3.org/2000/svg"><g transform="translate(0, 0)"><ns0:svg width="167" viewBox="0 0 167 75" style="fill-opacity:1; color-rendering:auto; color-interpolation:auto; text-rendering:auto; stroke:black; stroke-linecap:square; stroke-miterlimit:10; shape-rendering:auto; stroke-opacity:1; fill:black; stroke-dasharray:none; font-weight:normal; stroke-width:1; font-family:'Open Sans'; font-style:normal; stroke-linejoin:miter; font-size:12; stroke-dashoffset:0; image-rendering:auto;" height="75" class="cas-substance-image"><ns0:svg class="cas-substance-single-component"><ns0:rect y="0" x="0" width="167" stroke="none" ry="7" rx="7" height="75" fill="white" class="cas-substance-group" /><ns0:svg y="0" x="0" width="167" viewBox="0 0 167 75" style="fill:black;" height="75" class="cas-substance-single-component-image"><ns0:svg><ns0:g><ns0:g transform="translate(89,37)" style="text-rendering:geometricPrecision; color-rendering:optimizeQuality; color-interpolation:linearRGB; stroke-linecap:butt; image-rendering:optimizeQuality;"><ns0:line y2="-23.6484" y1="-6.4688" x2="-43.25" x1="-43.25" style="fill:none;" /><ns0:line y2="-23.6484" y1="-6.4688" x2="-46.75" x1="-46.75" style="fill:none;" /><ns0:line y2="23.5234" y1="6.3438" x2="-46.75" x1="-46.75" style="fill:none;" /><ns0:line y2="23.5234" y1="6.3438" x2="-43.25" x1="-43.25" style="fill:none;" /><ns0:line y2="0" y1="0" x2="-69.0625" x1="-49.6433" style="fill:none;" /><ns0:line y2="0" y1="0" x2="-15" x1="-40.439" style="fill:none;" /><ns0:line y2="0" y1="0" x2="45" x1="75" style="fill:none;" /><ns0:line y2="25.98" y1="0" x2="0" x1="-15" style="fill:none;" /><ns0:line y2="22.48" y1="-0.0001" x2="2.0207" x1="-10.9585" style="fill:none;" /><ns0:line y2="-25.98" y1="0" x2="0" x1="-15" style="fill:none;" /><ns0:line y2="25.98" y1="25.98" x2="30" x1="0" style="fill:none;" /><ns0:line y2="-25.98" y1="-25.98" x2="30" x1="0" style="fill:none;" /><ns0:line y2="-22.48" y1="-22.48" x2="27.9793" x1="2.0207" style="fill:none;" /><ns0:line y2="0" y1="25.98" x2="45" x1="30" style="fill:none;" /><ns0:line y2="-0.0001" y1="22.48" x2="40.9585" x1="27.9793" style="fill:none;" /><ns0:line y2="0" y1="-25.98" x2="45" x1="30" style="fill:none;" /></ns0:g><ns0:g transform="translate(89,37)" style="fill:rgb(148,108,0); text-rendering:geometricPrecision; color-rendering:optimizeQuality; image-rendering:optimizeQuality; font-family:'Open Sans'; stroke:rgb(148,108,0); color-interpolation:linearRGB;"><ns0:path style="stroke:none;" d="M-42.3047 1.9375 Q-42.3047 3.0625 -43.125 3.7031 Q-43.9453 4.3438 -45.3516 4.3438 Q-46.8828 4.3438 -47.6953 3.9375 L-47.6953 2.9844 Q-47.1641 3.2031 -46.5469 3.3359 Q-45.9297 3.4688 -45.3203 3.4688 Q-44.3203 3.4688 -43.8203 3.0859 Q-43.3203 2.7031 -43.3203 2.0312 Q-43.3203 1.5938 -43.5 1.3047 Q-43.6797 1.0156 -44.0938 0.7734 Q-44.5078 0.5312 -45.3672 0.2344 Q-46.5547 -0.1875 -47.0703 -0.7734 Q-47.5859 -1.3594 -47.5859 -2.3125 Q-47.5859 -3.2969 -46.8438 -3.8828 Q-46.1016 -4.4688 -44.8672 -4.4688 Q-43.6016 -4.4688 -42.5234 -4 L-42.8359 -3.1406 Q-43.8984 -3.5781 -44.8984 -3.5781 Q-45.6953 -3.5781 -46.1406 -3.2422 Q-46.5859 -2.9062 -46.5859 -2.2969 Q-46.5859 -1.8594 -46.4219 -1.5703 Q-46.2578 -1.2812 -45.8672 -1.0469 Q-45.4766 -0.8125 -44.6641 -0.5156 Q-43.3203 -0.0469 -42.8125 0.5078 Q-42.3047 1.0625 -42.3047 1.9375 Z" /><ns0:path style="fill:rgb(230,0,0); stroke:none;" d="M-41.0625 -30.0703 Q-41.0625 -28.0078 -42.1016 -26.8281 Q-43.1406 -25.6484 -44.9844 -25.6484 Q-46.875 -25.6484 -47.9062 -26.8125 Q-48.9375 -27.9766 -48.9375 -30.0859 Q-48.9375 -32.1797 -47.9062 -33.3281 Q-46.875 -34.4766 -44.9844 -34.4766 Q-43.125 -34.4766 -42.0938 -33.3047 Q-41.0625 -32.1328 -41.0625 -30.0703 ZM-47.8906 -30.0703 Q-47.8906 -28.3359 -47.1484 -27.4297 Q-46.4062 -26.5234 -44.9844 -26.5234 Q-43.5625 -26.5234 -42.8359 -27.4219 Q-42.1094 -28.3203 -42.1094 -30.0703 Q-42.1094 -31.8047 -42.8359 -32.6953 Q-43.5625 -33.5859 -44.9844 -33.5859 Q-46.4062 -33.5859 -47.1484 -32.6875 Q-47.8906 -31.7891 -47.8906 -30.0703 Z" /><ns0:path style="fill:rgb(230,0,0); stroke:none;" d="M-41.0625 29.9297 Q-41.0625 31.9922 -42.1016 33.1719 Q-43.1406 34.3516 -44.9844 34.3516 Q-46.875 34.3516 -47.9062 33.1875 Q-48.9375 32.0234 -48.9375 29.9141 Q-48.9375 27.8203 -47.9062 26.6719 Q-46.875 25.5234 -44.9844 25.5234 Q-43.125 25.5234 -42.0938 26.6953 Q-41.0625 27.8672 -41.0625 29.9297 ZM-47.8906 29.9297 Q-47.8906 31.6641 -47.1484 32.5703 Q-46.4062 33.4766 -44.9844 33.4766 Q-43.5625 33.4766 -42.8359 32.5781 Q-42.1094 31.6797 -42.1094 29.9297 Q-42.1094 28.1953 -42.8359 27.3047 Q-43.5625 26.4141 -44.9844 26.4141 Q-46.4062 26.4141 -47.1484 27.3125 Q-47.8906 28.2109 -47.8906 29.9297 Z" /><ns0:path style="fill:rgb(230,0,0); stroke:none;" d="M-71.0625 -0.0703 Q-71.0625 1.9922 -72.1016 3.1719 Q-73.1406 4.3516 -74.9844 4.3516 Q-76.875 4.3516 -77.9062 3.1875 Q-78.9375 2.0234 -78.9375 -0.0859 Q-78.9375 -2.1797 -77.9062 -3.3281 Q-76.875 -4.4766 -74.9844 -4.4766 Q-73.125 -4.4766 -72.0938 -3.3047 Q-71.0625 -2.1328 -71.0625 -0.0703 ZM-77.8906 -0.0703 Q-77.8906 1.6641 -77.1484 2.5703 Q-76.4062 3.4766 -74.9844 3.4766 Q-73.5625 3.4766 -72.8359 2.5781 Q-72.1094 1.6797 -72.1094 -0.0703 Q-72.1094 -1.8047 -72.8359 -2.6953 Q-73.5625 -3.5859 -74.9844 -3.5859 Q-76.4062 -3.5859 -77.1484 -2.6875 Q-77.8906 -1.7891 -77.8906 -0.0703 Z" /><ns0:path style="fill:rgb(230,0,0); stroke:none;" d="M-79.9375 4.2266 L-80.9375 4.2266 L-80.9375 0.1953 L-85.4531 0.1953 L-85.4531 4.2266 L-86.4531 4.2266 L-86.4531 -4.3359 L-85.4531 -4.3359 L-85.4531 -0.6953 L-80.9375 -0.6953 L-80.9375 -4.3359 L-79.9375 -4.3359 L-79.9375 4.2266 Z" /></ns0:g><ns0:g transform="translate(89,37)" style="stroke-linecap:butt; text-rendering:geometricPrecision; color-rendering:optimizeQuality; image-rendering:optimizeQuality; font-family:'Open Sans'; color-interpolation:linearRGB; stroke-miterlimit:5;"><ns0:path style="fill:none;" d="M-14.75 0.433 L-15 0 L-15.5 -0" /><ns0:path style="fill:none;" d="M-0.25 25.547 L0 25.98 L0.5 25.98" /><ns0:path style="fill:none;" d="M-0.25 -25.547 L0 -25.98 L0.5 -25.98" /><ns0:path style="fill:none;" d="M29.5 25.98 L30 25.98 L30.25 25.547" /><ns0:path style="fill:none;" d="M29.5 -25.98 L30 -25.98 L30.25 -25.547" /><ns0:path style="fill:none;" d="M44.75 0.433 L45 0 L45.5 0" /></ns0:g></ns0:g></ns0:svg></ns0:svg></ns0:svg></ns0:svg></g><g transform="translate(167, 0)"><ns0:svg width="215" viewBox="0 0 215 101" style="fill-opacity:1; color-rendering:auto; color-interpolation:auto; text-rendering:auto; stroke:black; stroke-linecap:square; stroke-miterlimit:10; shape-rendering:auto; stroke-opacity:1; fill:black; stroke-dasharray:none; font-weight:normal; stroke-width:1; font-family:'Open Sans'; font-style:normal; stroke-linejoin:miter; font-size:12; stroke-dashoffset:0; image-rendering:auto;" height="101" class="cas-substance-image"><ns0:svg class="cas-substance-single-component"><ns0:rect y="0" x="0" width="215" stroke="none" ry="7" rx="7" height="101" fill="white" class="cas-substance-group" /><ns0:svg y="0" x="0" width="215" viewBox="0 0 215 101" style="fill:black;" height="101" class="cas-substance-single-component-image"><ns0:svg><ns0:g><ns0:g transform="translate(107,52)" style="text-rendering:geometricPrecision; color-rendering:optimizeQuality; color-interpolation:linearRGB; stroke-linecap:butt; image-rendering:optimizeQuality;"><ns0:line y2="-3.2414" y1="-15" x2="-5.6141" x1="-25.98" style="fill:none;" /><ns0:line y2="0" y1="-15" x2="-51.963" x1="-25.98" style="fill:none;" /><ns0:line y2="-15" y1="-3.226" x2="25.98" x1="5.5875" style="fill:none;" /><ns0:line y2="0" y1="-15" x2="51.963" x1="25.98" style="fill:none;" /><ns0:line y2="-38.6484" y1="-13.9897" x2="27.73" x1="27.73" style="fill:none;" /><ns0:line y2="-38.6484" y1="-13.9896" x2="24.23" x1="24.23" style="fill:none;" /><ns0:line y2="-15" y1="0" x2="77.943" x1="51.963" style="fill:none;" /><ns0:path style="stroke:none;" d="M51.3786 0.7969 L51.2726 1.7969 L52.6534 1.7969 L52.5474 0.7969 ZM51.0607 3.7969 L50.9547 4.7969 L52.9713 4.7969 L52.8653 3.7969 ZM50.7428 6.7969 L50.6368 7.7969 L53.2892 7.7969 L53.1832 6.7969 ZM50.4249 9.7969 L50.319 10.7969 L53.607 10.7969 L53.5011 9.7969 ZM50.107 12.7969 L50.0011 13.7969 L53.9249 13.7969 L53.819 12.7969 ZM49.7892 15.7969 L49.6832 16.7969 L54.2428 16.7969 L54.1368 15.7969 ZM49.4713 18.7969 L49.3653 19.7969 L54.5607 19.7969 L54.4547 18.7969 ZM49.1534 21.7969 L49.0474 22.7969 L54.8786 22.7969 L54.7726 21.7969 Z" /><ns0:line y2="-45" y1="-15" x2="77.943" x1="77.943" style="fill:none;" /><ns0:line y2="0" y1="-15" x2="103.923" x1="77.943" style="fill:none;" /><ns0:line y2="30" y1="0" x2="-51.963" x1="-51.963" style="fill:none;" /><ns0:line y2="27.9793" y1="2.0207" x2="-55.463" x1="-55.463" style="fill:none;" /><ns0:line y2="-15" y1="0" x2="-77.943" x1="-51.963" style="fill:none;" /><ns0:line y2="45" y1="30" x2="-77.943" x1="-51.963" style="fill:none;" /><ns0:line y2="0" y1="-15" x2="-103.923" x1="-77.943" style="fill:none;" /><ns0:line y2="2.0207" y1="-10.9585" x2="-100.423" x1="-77.9429" style="fill:none;" /><ns0:line y2="30" y1="45" x2="-103.923" x1="-77.943" style="fill:none;" /><ns0:line y2="27.9793" y1="40.9585" x2="-100.423" x1="-77.9429" style="fill:none;" /><ns0:line y2="30" y1="0" x2="-103.923" x1="-103.923" style="fill:none;" /><ns0:path style="fill:none; stroke-miterlimit:5;" d="M-25.547 -14.75 L-25.98 -15 L-26.413 -14.75" /></ns0:g><ns0:g transform="translate(107,52)" style="stroke-linecap:butt; fill:rgb(230,0,0); text-rendering:geometricPrecision; color-rendering:optimizeQuality; image-rendering:optimizeQuality; font-family:'Open Sans'; stroke:rgb(230,0,0); color-interpolation:linearRGB; stroke-miterlimit:5;"><ns0:path style="stroke:none;" d="M3.9375 -0.0703 Q3.9375 1.9922 2.8984 3.1719 Q1.8594 4.3516 0.0156 4.3516 Q-1.875 4.3516 -2.9062 3.1875 Q-3.9375 2.0234 -3.9375 -0.0859 Q-3.9375 -2.1797 -2.9062 -3.3281 Q-1.875 -4.4766 0.0156 -4.4766 Q1.875 -4.4766 2.9062 -3.3047 Q3.9375 -2.1328 3.9375 -0.0703 ZM-2.8906 -0.0703 Q-2.8906 1.6641 -2.1484 2.5703 Q-1.4062 3.4766 0.0156 3.4766 Q1.4375 3.4766 2.1641 2.5781 Q2.8906 1.6797 2.8906 -0.0703 Q2.8906 -1.8047 2.1641 -2.6953 Q1.4375 -3.5859 0.0156 -3.5859 Q-1.4062 -3.5859 -2.1484 -2.6875 Q-2.8906 -1.7891 -2.8906 -0.0703 Z" /><ns0:path style="fill:none; stroke:black;" d="M25.547 -14.75 L25.98 -15 L26.413 -14.75" /><ns0:path style="fill:none; stroke:black;" d="M51.53 -0.25 L51.963 0 L52.396 -0.25" /></ns0:g><ns0:g transform="translate(107,52)" style="stroke-linecap:butt; font-size:8.4px; fill:gray; text-rendering:geometricPrecision; image-rendering:optimizeQuality; color-rendering:optimizeQuality; font-family:'Open Sans'; font-style:italic; stroke:gray; color-interpolation:linearRGB; stroke-miterlimit:5;"><ns0:path style="stroke:none;" d="M47.8542 -8.7969 Q47.8542 -10.125 48.323 -11.25 Q48.7917 -12.375 49.823 -13.4531 L50.4324 -13.4531 Q49.4636 -12.3906 48.9792 -11.2188 Q48.4949 -10.0469 48.4949 -8.8125 Q48.4949 -7.4844 48.9324 -6.4688 L48.4167 -6.4688 Q47.8542 -7.5 47.8542 -8.7969 ZM53.4768 -9.3906 Q53.4768 -8.5625 52.9299 -8.1094 Q52.383 -7.6562 51.383 -7.6562 Q50.9768 -7.6562 50.6643 -7.7109 Q50.3518 -7.7656 50.0705 -7.9062 L50.0705 -8.5625 Q50.6955 -8.2344 51.3987 -8.2344 Q52.0237 -8.2344 52.3987 -8.5312 Q52.7737 -8.8281 52.7737 -9.3438 Q52.7737 -9.6562 52.5705 -9.8828 Q52.3674 -10.1094 51.8049 -10.4375 Q51.2112 -10.7656 50.9846 -11.0938 Q50.758 -11.4219 50.758 -11.875 Q50.758 -12.6094 51.2737 -13.0703 Q51.7893 -13.5312 52.633 -13.5312 Q53.008 -13.5312 53.344 -13.4531 Q53.6799 -13.375 54.0549 -13.2031 L53.7893 -12.6094 Q53.5393 -12.7656 53.219 -12.8516 Q52.8987 -12.9375 52.633 -12.9375 Q52.1018 -12.9375 51.7815 -12.6641 Q51.4612 -12.3906 51.4612 -11.9219 Q51.4612 -11.7188 51.5315 -11.5703 Q51.6018 -11.4219 51.7424 -11.2891 Q51.883 -11.1562 52.3049 -10.9062 Q52.8674 -10.5625 53.0705 -10.3672 Q53.2737 -10.1719 53.3752 -9.9375 Q53.4768 -9.7031 53.4768 -9.3906 ZM56.0713 -11.1094 Q56.0713 -9.7812 55.5947 -8.6484 Q55.1181 -7.5156 54.1025 -6.4688 L53.4931 -6.4688 Q55.4306 -8.625 55.4306 -11.1094 Q55.4306 -12.4375 54.9931 -13.4531 L55.5088 -13.4531 Q56.0713 -12.3906 56.0713 -11.1094 Z" /></ns0:g><ns0:g transform="translate(107,52)" style="stroke-linecap:butt; fill:rgb(230,0,0); text-rendering:geometricPrecision; color-rendering:optimizeQuality; image-rendering:optimizeQuality; font-family:'Open Sans'; stroke:rgb(230,0,0); color-interpolation:linearRGB; stroke-miterlimit:5;"><ns0:path style="stroke:none;" d="M29.9175 -45.0703 Q29.9175 -43.0078 28.8784 -41.8281 Q27.8394 -40.6484 25.9956 -40.6484 Q24.105 -40.6484 23.0737 -41.8125 Q22.0425 -42.9766 22.0425 -45.0859 Q22.0425 -47.1797 23.0737 -48.3281 Q24.105 -49.4766 25.9956 -49.4766 Q27.855 -49.4766 28.8862 -48.3047 Q29.9175 -47.1328 29.9175 -45.0703 ZM23.0894 -45.0703 Q23.0894 -43.3359 23.8316 -42.4297 Q24.5737 -41.5234 25.9956 -41.5234 Q27.4175 -41.5234 28.1441 -42.4219 Q28.8706 -43.3203 28.8706 -45.0703 Q28.8706 -46.8047 28.1441 -47.6953 Q27.4175 -48.5859 25.9956 -48.5859 Q24.5737 -48.5859 23.8316 -47.6875 Q23.0894 -46.7891 23.0894 -45.0703 Z" /><ns0:path style="fill:rgb(0,5,255); stroke:none;" d="M55.3146 34.1562 L54.1739 34.1562 L49.4864 26.9688 L49.4396 26.9688 Q49.5333 28.2344 49.5333 29.2812 L49.5333 34.1562 L48.6114 34.1562 L48.6114 25.5938 L49.7364 25.5938 L54.4083 32.75 L54.4552 32.75 Q54.4552 32.5938 54.4083 31.7344 Q54.3614 30.875 54.3771 30.5 L54.3771 25.5938 L55.3146 25.5938 L55.3146 34.1562 Z" /><ns0:path style="fill:rgb(0,5,255); stroke:none;" d="M62.8302 34.1562 L61.8302 34.1562 L61.8302 30.125 L57.3146 30.125 L57.3146 34.1562 L56.3146 34.1562 L56.3146 25.5938 L57.3146 25.5938 L57.3146 29.2344 L61.8302 29.2344 L61.8302 25.5938 L62.8302 25.5938 L62.8302 34.1562 Z" /><ns0:path style="fill:rgb(0,5,255); stroke:none;" d="M67.5802 35.9656 L63.8302 35.9656 L63.8302 35.4031 L65.3302 33.8875 Q66.0177 33.2 66.2364 32.9031 Q66.4552 32.6063 66.5646 32.325 Q66.6739 32.0438 66.6739 31.7156 Q66.6739 31.2625 66.4005 30.9969 Q66.1271 30.7313 65.6271 30.7313 Q65.2833 30.7313 64.963 30.8484 Q64.6427 30.9656 64.2521 31.2625 L63.9083 30.825 Q64.6896 30.1688 65.6271 30.1688 Q66.4239 30.1688 66.8849 30.5828 Q67.3458 30.9969 67.3458 31.6844 Q67.3458 32.2313 67.0411 32.7625 Q66.7364 33.2938 65.8927 34.1063 L64.6427 35.325 L64.6427 35.3563 L67.5802 35.3563 L67.5802 35.9656 Z" /><ns0:path style="fill:none; stroke:black;" d="M-51.963 0.5 L-51.963 0 L-51.53 -0.25" /><ns0:path style="fill:none; stroke:black;" d="M-51.963 29.5 L-51.963 30 L-52.396 30.25" /><ns0:path style="fill:none; stroke:black;" d="M-77.51 -14.75 L-77.943 -15 L-78.376 -14.75" /><ns0:path style="fill:none; stroke:black;" d="M-77.51 44.75 L-77.943 45 L-78.376 44.75" /><ns0:path style="fill:none; stroke:black;" d="M-103.49 -0.25 L-103.923 0 L-103.923 0.5" /><ns0:path style="fill:none; stroke:black;" d="M-103.49 30.25 L-103.923 30 L-103.923 29.5" /></ns0:g></ns0:g></ns0:svg></ns0:svg></ns0:svg></ns0:svg></g></svg>