<svg width="329" viewBox="0 0 329 214" style="fill-opacity:1; color-rendering:auto; color-interpolation:auto; text-rendering:auto; stroke:black; stroke-linecap:square; stroke-miterlimit:10; shape-rendering:auto; stroke-opacity:1; fill:black; stroke-dasharray:none; font-weight:normal; stroke-width:1; font-family:'Open Sans'; font-style:normal; stroke-linejoin:miter; font-size:12; stroke-dashoffset:0; image-rendering:auto;" height="214" class="cas-substance-image" xmlns:xlink="http://www.w3.org/1999/xlink" xmlns="http://www.w3.org/2000/svg"><svg class="cas-substance-single-component"><rect y="0" x="0" width="329" stroke="none" ry="7" rx="7" height="214" fill="white" class="cas-substance-group"/><svg y="0" x="0" width="329" viewBox="0 0 329 214" style="fill:black;" height="214" class="cas-substance-single-component-image"><svg><g><g transform="translate(164,107)" style="text-rendering:geometricPrecision; color-rendering:optimizeQuality; color-interpolation:linearRGB; stroke-linecap:butt; image-rendering:optimizeQuality;"><line y2="58.458" y1="16.0277" x2="-57.306" x1="16.1862" style="fill:none;"/><line y2="-11.9678" y1="10.8883" x2="64.6745" x1="25.0878" style="fill:none;"/><line y2="39.438" y1="16.6162" x2="35.637" x1="22.4604" style="fill:none;"/><line y2="-51.495" y1="7.3197" x2="-16.863" x1="17.0931" style="fill:none;"/><line y2="-10.1044" y1="5.5156" x2="74.9402" x1="80.6256" style="fill:none;"/><line y2="-1.542" y1="10.2166" x2="-161.229" x1="-140.8631" style="fill:none;"/><line y2="-1.542" y1="10.232" x2="-109.269" x1="-129.6615" style="fill:none;"/><line y2="-1.542" y1="10.232" x2="-5.346" x1="-25.7385" style="fill:none;"/><line y2="-1.542" y1="10.2166" x2="-57.306" x1="-36.9401" style="fill:none;"/><line y2="43.458" y1="58.458" x2="-83.286" x1="-57.306" style="fill:none;"/><line y2="47.4995" y1="60.4787" x2="-83.2861" x1="-60.806" style="fill:none;"/><line y2="88.458" y1="58.458" x2="-57.306" x1="-57.306" style="fill:none;"/><line y2="58.458" y1="43.458" x2="-109.269" x1="-83.286" style="fill:none;"/><line y2="13.458" y1="43.458" x2="-83.286" x1="-83.286" style="fill:none;"/><line y2="103.458" y1="88.458" x2="-83.286" x1="-57.306" style="fill:none;"/><line y2="99.4165" y1="86.4373" x2="-83.2861" x1="-60.806" style="fill:none;"/><line y2="88.458" y1="58.458" x2="-109.269" x1="-109.269" style="fill:none;"/><line y2="86.4373" y1="60.4787" x2="-105.769" x1="-105.769" style="fill:none;"/><line y2="88.458" y1="103.458" x2="-109.269" x1="-83.286" style="fill:none;"/><line y2="-20.8337" y1="-19.6569" x2="96.9292" x1="90.257" style="fill:none;"/><line y2="-33.9984" y1="-22.3285" x2="57.9501" x1="67.7418" style="fill:none;"/><line y2="-49.944" y1="-28.1011" x2="112.401" x1="104.4514" style="fill:none;"/><line y2="1.23" y1="-16.7737" x2="121.425" x1="106.3189" style="fill:none;"/><line y2="-2.5677" y1="-19.0234" x2="122.8074" x1="109.0001" style="fill:none;"/><line y2="-67.716" y1="-45.8106" x2="63.573" x1="55.6006" style="fill:none;"/><line y2="-72.924" y1="-49.944" x2="93.117" x1="112.401" style="fill:none;"/><line y2="-55.152" y1="-49.944" x2="141.945" x1="112.401" style="fill:none;"/><line y2="-51.3543" y1="-46.8479" x2="140.5626" x1="114.9987" style="fill:none;"/><line y2="-3.981" y1="1.23" x2="150.969" x1="121.425" style="fill:none;"/><line y2="-72.924" y1="-67.716" x2="93.117" x1="63.573" style="fill:none;"/><line y2="-32.172" y1="-55.152" x2="161.229" x1="141.945" style="fill:none;"/><line y2="-32.172" y1="-3.981" x2="161.229" x1="150.969" style="fill:none;"/><line y2="-31.4701" y1="-7.0769" x2="157.249" x1="148.3711" style="fill:none;"/><line y2="65.418" y1="39.438" x2="20.637" x1="35.637" style="fill:none;"/><line y2="39.438" y1="39.438" x2="65.637" x1="35.637" style="fill:none;"/><line y2="91.398" y1="65.418" x2="35.637" x1="20.637" style="fill:none;"/><line y2="65.418" y1="39.438" x2="80.637" x1="65.637" style="fill:none;"/><line y2="91.398" y1="91.398" x2="65.637" x1="35.637" style="fill:none;"/><line y2="91.398" y1="65.418" x2="65.637" x1="80.637" style="fill:none;"/><line y2="-77.475" y1="-51.495" x2="-1.863" x1="-16.863" style="fill:none;"/><line y2="-51.495" y1="-51.495" x2="-46.863" x1="-16.863" style="fill:none;"/><line y2="-103.458" y1="-77.475" x2="-16.863" x1="-1.863" style="fill:none;"/><line y2="-77.475" y1="-51.495" x2="-61.863" x1="-46.863" style="fill:none;"/><line y2="-103.458" y1="-103.458" x2="-46.863" x1="-16.863" style="fill:none;"/><line y2="-103.458" y1="-77.475" x2="-46.863" x1="-61.863" style="fill:none;"/><line y2="-1.542" y1="13.458" x2="-109.269" x1="-83.286" style="fill:none;"/><line y2="-3.5629" y1="9.4165" x2="-105.7691" x1="-83.2862" style="fill:none;"/><line y2="-1.542" y1="13.458" x2="-57.306" x1="-83.286" style="fill:none;"/><line y2="-31.542" y1="-1.542" x2="-109.269" x1="-109.269" style="fill:none;"/><line y2="-31.542" y1="-1.542" x2="-57.306" x1="-57.306" style="fill:none;"/><line y2="-29.5213" y1="-3.5627" x2="-60.806" x1="-60.806" style="fill:none;"/><line y2="-46.542" y1="-31.542" x2="-83.286" x1="-109.269" style="fill:none;"/><line y2="-42.5005" y1="-29.5211" x2="-83.2862" x1="-105.7691" style="fill:none;"/><line y2="-46.542" y1="-31.542" x2="-83.286" x1="-57.306" style="fill:none;"/></g><g transform="translate(164,107)" style="fill:rgb(111,5,255); text-rendering:geometricPrecision; color-rendering:optimizeQuality; image-rendering:optimizeQuality; font-family:'Open Sans'; stroke:rgb(111,5,255); color-interpolation:linearRGB;"><path style="stroke:none;" d="M23.3558 11.5361 Q23.3558 12.8486 22.4651 13.5439 Q21.5745 14.2393 19.9339 14.2393 L18.9183 14.2393 L18.9183 17.6143 L17.9183 17.6143 L17.9183 9.0518 L20.1526 9.0518 Q23.3558 9.0518 23.3558 11.5361 ZM18.9183 13.3955 L19.8245 13.3955 Q21.137 13.3955 21.7308 12.9658 Q22.3245 12.5361 22.3245 11.583 Q22.3245 10.7393 21.7698 10.3252 Q21.2151 9.9111 20.0276 9.9111 L18.9183 9.9111 L18.9183 13.3955 Z"/><path style="fill:rgb(0,138,0); stroke:none;" d="M82.5484 8.2866 Q81.1422 8.2866 80.3218 9.2241 Q79.5015 10.1616 79.5015 11.8022 Q79.5015 13.4741 80.2906 14.396 Q81.0797 15.3179 82.5328 15.3179 Q83.439 15.3179 84.5797 14.9897 L84.5797 15.8647 Q83.689 16.2085 82.3922 16.2085 Q80.5015 16.2085 79.4703 15.0522 Q78.439 13.896 78.439 11.7866 Q78.439 10.4585 78.9312 9.4663 Q79.4234 8.4741 80.3609 7.9351 Q81.2984 7.396 82.564 7.396 Q83.9078 7.396 84.9234 7.8804 L84.5015 8.7397 Q83.5172 8.2866 82.5484 8.2866 ZM87.275 16.0835 L86.3062 16.0835 L86.3062 6.9585 L87.275 6.9585 L87.275 16.0835 Z"/><path style="fill:black; stroke:none;" d="M88.275 9.1679 L88.275 8.5741 L91.6343 8.5741 L91.6343 9.1679 L88.275 9.1679 Z"/><path style="fill:rgb(230,0,0); stroke:none;" d="M-131.3115 13.3877 Q-131.3115 15.4502 -132.3506 16.6299 Q-133.3896 17.8096 -135.2334 17.8096 Q-137.124 17.8096 -138.1552 16.6455 Q-139.1865 15.4814 -139.1865 13.3721 Q-139.1865 11.2783 -138.1552 10.1299 Q-137.124 8.9814 -135.2334 8.9814 Q-133.374 8.9814 -132.3427 10.1533 Q-131.3115 11.3252 -131.3115 13.3877 ZM-138.1396 13.3877 Q-138.1396 15.1221 -137.3974 16.0283 Q-136.6552 16.9346 -135.2334 16.9346 Q-133.8115 16.9346 -133.0849 16.0361 Q-132.3584 15.1377 -132.3584 13.3877 Q-132.3584 11.6533 -133.0849 10.7627 Q-133.8115 9.8721 -135.2334 9.8721 Q-136.6552 9.8721 -137.3974 10.7705 Q-138.1396 11.6689 -138.1396 13.3877 Z"/><path style="fill:rgb(230,0,0); stroke:none;" d="M-27.3885 13.3877 Q-27.3885 15.4502 -28.4276 16.6299 Q-29.4666 17.8096 -31.3104 17.8096 Q-33.201 17.8096 -34.2322 16.6455 Q-35.2635 15.4814 -35.2635 13.3721 Q-35.2635 11.2783 -34.2322 10.1299 Q-33.201 8.9814 -31.3104 8.9814 Q-29.451 8.9814 -28.4197 10.1533 Q-27.3885 11.3252 -27.3885 13.3877 ZM-34.2166 13.3877 Q-34.2166 15.1221 -33.4744 16.0283 Q-32.7322 16.9346 -31.3104 16.9346 Q-29.8885 16.9346 -29.1619 16.0361 Q-28.4354 15.1377 -28.4354 13.3877 Q-28.4354 11.6533 -29.1619 10.7627 Q-29.8885 9.8721 -31.3104 9.8721 Q-32.7322 9.8721 -33.4744 10.7705 Q-34.2166 11.6689 -34.2166 13.3877 Z"/></g><g transform="translate(164,107)" style="stroke-linecap:butt; text-rendering:geometricPrecision; color-rendering:optimizeQuality; image-rendering:optimizeQuality; font-family:'Open Sans'; color-interpolation:linearRGB; stroke-miterlimit:5;"><path style="fill:none;" d="M-57.739 58.208 L-57.306 58.458 L-56.873 58.208"/><path style="fill:none;" d="M-82.853 43.708 L-83.286 43.458 L-83.286 42.958"/><path style="fill:none;" d="M-57.306 87.958 L-57.306 88.458 L-57.739 88.708"/><path style="fill:none;" d="M-108.836 58.208 L-109.269 58.458 L-109.269 58.958"/><path style="fill:none;" d="M-82.853 103.208 L-83.286 103.458 L-83.719 103.208"/><path style="fill:none;" d="M-109.269 87.958 L-109.269 88.458 L-108.836 88.708"/><path style="stroke:none;" d="M71.8441 -18.1826 Q71.8441 -16.8701 70.9534 -16.1748 Q70.0628 -15.4795 68.4222 -15.4795 L67.4066 -15.4795 L67.4066 -12.1045 L66.4066 -12.1045 L66.4066 -20.667 L68.6409 -20.667 Q71.8441 -20.667 71.8441 -18.1826 ZM67.4066 -16.3232 L68.3128 -16.3232 Q69.6253 -16.3232 70.2191 -16.7529 Q70.8128 -17.1826 70.8128 -18.1357 Q70.8128 -18.9795 70.2581 -19.3936 Q69.7034 -19.8076 68.5159 -19.8076 L67.4066 -19.8076 L67.4066 -16.3232 ZM77.8656 -12.9639 L77.8031 -12.9639 Q77.1312 -11.9795 75.7874 -11.9795 Q74.5374 -11.9795 73.8343 -12.8467 Q73.1312 -13.7139 73.1312 -15.292 Q73.1312 -16.8857 73.8343 -17.7686 Q74.5374 -18.6514 75.7874 -18.6514 Q77.0999 -18.6514 77.8031 -17.6982 L77.8812 -17.6982 L77.8343 -18.1514 L77.8031 -18.6045 L77.8031 -21.2295 L78.7874 -21.2295 L78.7874 -12.1045 L77.9906 -12.1045 L77.8656 -12.9639 ZM75.9124 -12.8076 Q76.9124 -12.8076 77.3577 -13.3467 Q77.8031 -13.8857 77.8031 -15.0889 L77.8031 -15.292 Q77.8031 -16.667 77.3499 -17.2451 Q76.8968 -17.8232 75.9124 -17.8232 Q75.0531 -17.8232 74.5999 -17.1592 Q74.1468 -16.4951 74.1468 -15.292 Q74.1468 -14.0576 74.5921 -13.4326 Q75.0374 -12.8076 75.9124 -12.8076 Z"/><path style="stroke:none;" d="M83.5374 -16.4186 L79.7874 -16.4186 L79.7874 -16.9811 L81.2874 -18.4967 Q81.9749 -19.1842 82.1937 -19.4811 Q82.4124 -19.7779 82.5218 -20.0592 Q82.6312 -20.3404 82.6312 -20.6686 Q82.6312 -21.1217 82.3577 -21.3873 Q82.0843 -21.6529 81.5843 -21.6529 Q81.2406 -21.6529 80.9202 -21.5357 Q80.5999 -21.4186 80.2093 -21.1217 L79.8656 -21.5592 Q80.6468 -22.2154 81.5843 -22.2154 Q82.3812 -22.2154 82.8421 -21.8014 Q83.3031 -21.3873 83.3031 -20.6998 Q83.3031 -20.1529 82.9984 -19.6217 Q82.6937 -19.0904 81.8499 -18.2779 L80.5999 -17.0592 L80.5999 -17.0279 L83.5374 -17.0279 L83.5374 -16.4186 Z"/><path style="stroke:none;" d="M86.6781 -19.5826 L88.2874 -19.5826 L88.2874 -19.0357 L86.6781 -19.0357 L86.6781 -17.3795 L86.1468 -17.3795 L86.1468 -19.0357 L84.5374 -19.0357 L84.5374 -19.5826 L86.1468 -19.5826 L86.1468 -21.2545 L86.6781 -21.2545 L86.6781 -19.5826 Z"/><path style="stroke:none;" d="M103.0082 -25.3311 Q101.6019 -25.3311 100.7816 -24.3936 Q99.9613 -23.4561 99.9613 -21.8155 Q99.9613 -20.1436 100.7504 -19.2218 Q101.5394 -18.2999 102.9926 -18.2999 Q103.8988 -18.2999 105.0394 -18.628 L105.0394 -17.753 Q104.1488 -17.4093 102.8519 -17.4093 Q100.9613 -17.4093 99.9301 -18.5655 Q98.8988 -19.7218 98.8988 -21.8311 Q98.8988 -23.1593 99.391 -24.1514 Q99.8832 -25.1436 100.8207 -25.6827 Q101.7582 -26.2218 103.0238 -26.2218 Q104.3676 -26.2218 105.3832 -25.7374 L104.9613 -24.878 Q103.9769 -25.3311 103.0082 -25.3311 Z"/><path style="stroke:none;" d="M106.2113 -24.0999 L106.2113 -24.6936 L109.5707 -24.6936 L109.5707 -24.0999 L106.2113 -24.0999 Z"/><path style="fill:rgb(0,5,255); stroke:none;" d="M56.6646 -35.3688 L55.5239 -35.3688 L50.8364 -42.5563 L50.7896 -42.5563 Q50.8833 -41.2906 50.8833 -40.2438 L50.8833 -35.3688 L49.9614 -35.3688 L49.9614 -43.9313 L51.0864 -43.9313 L55.7583 -36.775 L55.8052 -36.775 Q55.8052 -36.9313 55.7583 -37.7906 Q55.7114 -38.65 55.7271 -39.025 L55.7271 -43.9313 L56.6646 -43.9313 L56.6646 -35.3688 Z"/><path style="fill:rgb(0,5,255); stroke:none;" d="M44.2114 -35.3688 L43.2114 -35.3688 L43.2114 -39.4 L38.6958 -39.4 L38.6958 -35.3688 L37.6958 -35.3688 L37.6958 -43.9313 L38.6958 -43.9313 L38.6958 -40.2906 L43.2114 -40.2906 L43.2114 -43.9313 L44.2114 -43.9313 L44.2114 -35.3688 Z"/><path style="fill:rgb(0,5,255); stroke:none;" d="M48.9614 -33.5594 L45.2114 -33.5594 L45.2114 -34.1219 L46.7114 -35.6375 Q47.3989 -36.325 47.6177 -36.6219 Q47.8364 -36.9188 47.9458 -37.2 Q48.0552 -37.4813 48.0552 -37.8094 Q48.0552 -38.2625 47.7817 -38.5281 Q47.5083 -38.7938 47.0083 -38.7938 Q46.6646 -38.7938 46.3442 -38.6766 Q46.0239 -38.5594 45.6333 -38.2625 L45.2896 -38.7 Q46.0708 -39.3563 47.0083 -39.3563 Q47.8052 -39.3563 48.2661 -38.9422 Q48.7271 -38.5281 48.7271 -37.8406 Q48.7271 -37.2938 48.4224 -36.7625 Q48.1177 -36.2313 47.2739 -35.4188 L46.0239 -34.2 L46.0239 -34.1688 L48.9614 -34.1688 L48.9614 -33.5594 Z"/><path style="fill:none;" d="M112.8934 -50.0308 L112.401 -49.944 L112.23 -49.4742"/><path style="fill:none;" d="M121.1036 0.847 L121.425 1.23 L121.9174 1.1432"/><path style="fill:none;" d="M63.402 -67.2462 L63.573 -67.716 L64.0654 -67.8028"/><path style="fill:none;" d="M93.4384 -72.541 L93.117 -72.924 L92.6246 -72.8372"/><path style="fill:none;" d="M141.4526 -55.0652 L141.945 -55.152 L142.2664 -54.769"/><path style="fill:none;" d="M150.4766 -3.8942 L150.969 -3.981 L151.14 -4.4509"/><path style="fill:none;" d="M160.9076 -32.555 L161.229 -32.172 L161.058 -31.7022"/><path style="fill:none;" d="M20.887 64.985 L20.637 65.418 L20.887 65.851"/><path style="fill:none;" d="M65.137 39.438 L65.637 39.438 L65.887 39.871"/><path style="fill:none;" d="M35.387 90.965 L35.637 91.398 L36.137 91.398"/><path style="fill:none;" d="M80.387 64.985 L80.637 65.418 L80.387 65.851"/><path style="fill:none;" d="M65.137 91.398 L65.637 91.398 L65.887 90.965"/><path style="fill:none;" d="M-2.113 -77.042 L-1.863 -77.475 L-2.113 -77.908"/><path style="fill:none;" d="M-46.363 -51.495 L-46.863 -51.495 L-47.113 -51.928"/><path style="fill:none;" d="M-16.613 -103.025 L-16.863 -103.458 L-17.363 -103.458"/><path style="fill:none;" d="M-61.613 -77.042 L-61.863 -77.475 L-61.613 -77.908"/><path style="fill:none;" d="M-46.363 -103.458 L-46.863 -103.458 L-47.113 -103.025"/><path style="fill:none;" d="M-83.719 13.208 L-83.286 13.458 L-82.853 13.208"/><path style="fill:none;" d="M-108.836 -1.292 L-109.269 -1.542 L-109.702 -1.292"/><path style="fill:none;" d="M-57.306 -2.042 L-57.306 -1.542 L-56.873 -1.292"/><path style="fill:none;" d="M-109.269 -31.042 L-109.269 -31.542 L-108.836 -31.792"/><path style="fill:none;" d="M-57.306 -31.042 L-57.306 -31.542 L-57.739 -31.792"/><path style="fill:none;" d="M-83.719 -46.292 L-83.286 -46.542 L-82.853 -46.292"/></g></g></svg></svg></svg></svg>