<svg width="188" viewBox="0 0 188 75" style="fill-opacity:1; color-rendering:auto; color-interpolation:auto; text-rendering:auto; stroke:black; stroke-linecap:square; stroke-miterlimit:10; shape-rendering:auto; stroke-opacity:1; fill:black; stroke-dasharray:none; font-weight:normal; stroke-width:1; font-family:'Open Sans'; font-style:normal; stroke-linejoin:miter; font-size:12; stroke-dashoffset:0; image-rendering:auto;" height="75" class="cas-substance-image" xmlns:xlink="http://www.w3.org/1999/xlink" xmlns="http://www.w3.org/2000/svg"><svg class="cas-substance-single-component"><rect y="0" x="0" width="188" stroke="none" ry="7" rx="7" height="75" fill="white" class="cas-substance-group"/><svg y="0" x="0" width="188" viewBox="0 0 188 75" style="fill:black;" height="75" class="cas-substance-single-component-image"><svg><g><g transform="translate(94,37)" style="text-rendering:geometricPrecision; color-rendering:optimizeQuality; color-interpolation:linearRGB; stroke-linecap:butt; image-rendering:optimizeQuality;"><line y2="-15" y1="-26.8214" x2="90.933" x1="70.4584" style="fill:none;"/><line y2="-15" y1="-26.8114" x2="38.97" x1="59.4298" style="fill:none;"/><line y2="15" y1="30" x2="-64.953" x1="-90.933" style="fill:none;"/><line y2="15" y1="-15" x2="-12.99" x1="-12.99" style="fill:none;"/><line y2="12.9793" y1="-12.9793" x2="-9.49" x1="-9.49" style="fill:none;"/><line y2="-30" y1="-15" x2="12.99" x1="-12.99" style="fill:none;"/><line y2="-30" y1="-15" x2="-38.97" x1="-12.99" style="fill:none;"/><line y2="27.0649" y1="15" x2="-33.8864" x1="-12.99" style="fill:none;"/><line y2="30" y1="15" x2="12.99" x1="-12.99" style="fill:none;"/><line y2="-15" y1="-30" x2="38.97" x1="12.99" style="fill:none;"/><line y2="-12.9793" y1="-25.9585" x2="35.47" x1="12.9899" style="fill:none;"/><line y2="-15" y1="-30" x2="-64.953" x1="-38.97" style="fill:none;"/><line y2="-12.9791" y1="-25.9585" x2="-61.4531" x1="-38.9702" style="fill:none;"/><line y2="15" y1="27.0652" x2="-64.953" x1="-44.0536" style="fill:none;"/><line y2="12.9791" y1="24.0341" x2="-61.4531" x1="-42.3038" style="fill:none;"/><line y2="15" y1="30" x2="38.97" x1="12.99" style="fill:none;"/><line y2="12.9793" y1="25.9585" x2="35.47" x1="12.9899" style="fill:none;"/><line y2="15" y1="-15" x2="38.97" x1="38.97" style="fill:none;"/><line y2="15" y1="-15" x2="-64.953" x1="-64.953" style="fill:none;"/></g><g transform="translate(94,37)" style="fill:rgb(230,0,0); text-rendering:geometricPrecision; color-rendering:optimizeQuality; image-rendering:optimizeQuality; font-family:'Open Sans'; stroke:rgb(230,0,0); color-interpolation:linearRGB;"><path style="stroke:none;" d="M68.8905 -30.0703 Q68.8905 -28.0078 67.8514 -26.8281 Q66.8124 -25.6484 64.9686 -25.6484 Q63.078 -25.6484 62.0468 -26.8125 Q61.0155 -27.9766 61.0155 -30.0859 Q61.0155 -32.1797 62.0468 -33.3281 Q63.078 -34.4766 64.9686 -34.4766 Q66.828 -34.4766 67.8593 -33.3047 Q68.8905 -32.1328 68.8905 -30.0703 ZM62.0624 -30.0703 Q62.0624 -28.3359 62.8046 -27.4297 Q63.5468 -26.5234 64.9686 -26.5234 Q66.3905 -26.5234 67.1171 -27.4219 Q67.8436 -28.3203 67.8436 -30.0703 Q67.8436 -31.8047 67.1171 -32.6953 Q66.3905 -33.5859 64.9686 -33.5859 Q63.5468 -33.5859 62.8046 -32.6875 Q62.0624 -31.7891 62.0624 -30.0703 Z"/></g><g transform="translate(94,37)" style="stroke-linecap:butt; text-rendering:geometricPrecision; color-rendering:optimizeQuality; image-rendering:optimizeQuality; font-family:'Open Sans'; color-interpolation:linearRGB; stroke-miterlimit:5;"><path style="fill:none;" d="M-12.99 -14.5 L-12.99 -15 L-12.557 -15.25"/><path style="fill:none;" d="M-12.99 14.5 L-12.99 15 L-13.423 15.25"/><path style="fill:none;" d="M12.557 -29.75 L12.99 -30 L13.423 -29.75"/><path style="fill:none;" d="M-38.537 -29.75 L-38.97 -30 L-39.403 -29.75"/><path style="fill:rgb(0,5,255); stroke:none;" d="M-35.6184 34.1562 L-36.7591 34.1562 L-41.4466 26.9688 L-41.4934 26.9688 Q-41.3997 28.2344 -41.3997 29.2812 L-41.3997 34.1562 L-42.3216 34.1562 L-42.3216 25.5938 L-41.1966 25.5938 L-36.5247 32.75 L-36.4778 32.75 Q-36.4778 32.5938 -36.5247 31.7344 Q-36.5716 30.875 -36.5559 30.5 L-36.5559 25.5938 L-35.6184 25.5938 L-35.6184 34.1562 Z"/><path style="fill:none;" d="M12.557 29.75 L12.99 30 L13.423 29.75"/><path style="fill:none;" d="M38.537 -15.25 L38.97 -15 L39.403 -15.25"/><path style="fill:none;" d="M-64.52 -15.25 L-64.953 -15 L-64.953 -14.5"/><path style="fill:none;" d="M-64.52 15.25 L-64.953 15 L-65.386 15.25"/><path style="fill:none;" d="M38.537 15.25 L38.97 15 L38.97 14.5"/></g></g></svg></svg></svg></svg>