<svg xmlns:ns0="http://www.w3.org/2000/svg" xmlns="http://www.w3.org/2000/svg"><g transform="translate(0, 0)"><ns0:svg width="129" viewBox="0 0 129 63" style="fill-opacity:1; color-rendering:auto; color-interpolation:auto; text-rendering:auto; stroke:black; stroke-linecap:square; stroke-miterlimit:10; shape-rendering:auto; stroke-opacity:1; fill:black; stroke-dasharray:none; font-weight:normal; stroke-width:1; font-family:'Open Sans'; font-style:normal; stroke-linejoin:miter; font-size:12; stroke-dashoffset:0; image-rendering:auto;" height="63" class="cas-substance-image"><ns0:svg class="cas-substance-single-component"><ns0:rect y="0" x="0" width="129" stroke="none" ry="7" rx="7" height="63" fill="white" class="cas-substance-group" /><ns0:svg y="0" x="0" width="129" viewBox="0 0 129 63" style="fill:black;" height="63" class="cas-substance-single-component-image"><ns0:svg><ns0:g><ns0:g transform="translate(65,32)" style="text-rendering:geometricPrecision; color-rendering:optimizeQuality; color-interpolation:linearRGB; stroke-linecap:butt; image-rendering:optimizeQuality;"><ns0:line y2="-24.27" y1="0" x2="-32.634" x1="-15" style="fill:none;" /><ns0:line y2="-20.5779" y1="0.4225" x2="-34.2777" x1="-19.0193" style="fill:none;" /><ns0:line y2="19.0329" y1="0" x2="-28.8288" x1="-15" style="fill:none;" /><ns0:line y2="0" y1="0" x2="15" x1="-15" style="fill:none;" /><ns0:line y2="-15" y1="-24.27" x2="-61.164" x1="-32.634" style="fill:none;" /><ns0:line y2="15" y1="22.3726" x2="-61.164" x1="-38.4736" style="fill:none;" /><ns0:line y2="15" y1="-15" x2="-61.164" x1="-61.164" style="fill:none;" /><ns0:line y2="12.9793" y1="-12.9793" x2="-57.664" x1="-57.664" style="fill:none;" /><ns0:line y2="-19.0984" y1="0" x2="28.8765" x1="15" style="fill:none;" /><ns0:line y2="19.0234" y1="0" x2="28.822" x1="15" style="fill:none;" /><ns0:line y2="-15" y1="-22.3726" x2="61.164" x1="38.4736" style="fill:none;" /><ns0:line y2="15" y1="22.3726" x2="61.164" x1="38.4736" style="fill:none;" /><ns0:line y2="15" y1="-15" x2="61.164" x1="61.164" style="fill:none;" /><ns0:path style="fill:none; stroke-miterlimit:5;" d="M-15.2939 -0.4045 L-15 0 L-15.2939 0.4045" /><ns0:path style="fill:none; stroke-miterlimit:5;" d="M-32.3401 -23.8655 L-32.634 -24.27 L-33.1095 -24.1155" /></ns0:g><ns0:g transform="translate(65,32)" style="stroke-linecap:butt; fill:rgb(230,0,0); text-rendering:geometricPrecision; color-rendering:optimizeQuality; image-rendering:optimizeQuality; font-family:'Open Sans'; stroke:rgb(230,0,0); color-interpolation:linearRGB; stroke-miterlimit:5;"><ns0:path style="stroke:none;" d="M-28.6965 24.1997 Q-28.6965 26.2622 -29.7356 27.4419 Q-30.7746 28.6216 -32.6184 28.6216 Q-34.509 28.6216 -35.5403 27.4575 Q-36.5715 26.2934 -36.5715 24.1841 Q-36.5715 22.0903 -35.5403 20.9419 Q-34.509 19.7934 -32.6184 19.7934 Q-30.759 19.7934 -29.7278 20.9653 Q-28.6965 22.1372 -28.6965 24.1997 ZM-35.5246 24.1997 Q-35.5246 25.9341 -34.7824 26.8403 Q-34.0403 27.7466 -32.6184 27.7466 Q-31.1965 27.7466 -30.4699 26.8481 Q-29.7434 25.9497 -29.7434 24.1997 Q-29.7434 22.4653 -30.4699 21.5747 Q-31.1965 20.6841 -32.6184 20.6841 Q-34.0403 20.6841 -34.7824 21.5825 Q-35.5246 22.4809 -35.5246 24.1997 Z" /><ns0:path style="fill:none; stroke:black;" d="M-60.6885 -15.1545 L-61.164 -15 L-61.164 -14.5" /><ns0:path style="fill:none; stroke:black;" d="M-60.6885 15.1545 L-61.164 15 L-61.164 14.5" /><ns0:path style="stroke:none;" d="M36.5715 -24.3403 Q36.5715 -22.2778 35.5324 -21.0981 Q34.4934 -19.9184 32.6496 -19.9184 Q30.759 -19.9184 29.7278 -21.0825 Q28.6965 -22.2466 28.6965 -24.3559 Q28.6965 -26.4497 29.7278 -27.5981 Q30.759 -28.7466 32.6496 -28.7466 Q34.509 -28.7466 35.5403 -27.5747 Q36.5715 -26.4028 36.5715 -24.3403 ZM29.7434 -24.3403 Q29.7434 -22.6059 30.4856 -21.6997 Q31.2278 -20.7934 32.6496 -20.7934 Q34.0715 -20.7934 34.7981 -21.6919 Q35.5246 -22.5903 35.5246 -24.3403 Q35.5246 -26.0747 34.7981 -26.9653 Q34.0715 -27.8559 32.6496 -27.8559 Q31.2278 -27.8559 30.4856 -26.9575 Q29.7434 -26.0591 29.7434 -24.3403 Z" /><ns0:path style="stroke:none;" d="M36.5715 24.1997 Q36.5715 26.2622 35.5324 27.4419 Q34.4934 28.6216 32.6496 28.6216 Q30.759 28.6216 29.7278 27.4575 Q28.6965 26.2934 28.6965 24.1841 Q28.6965 22.0903 29.7278 20.9419 Q30.759 19.7934 32.6496 19.7934 Q34.509 19.7934 35.5403 20.9653 Q36.5715 22.1372 36.5715 24.1997 ZM29.7434 24.1997 Q29.7434 25.9341 30.4856 26.8403 Q31.2278 27.7466 32.6496 27.7466 Q34.0715 27.7466 34.7981 26.8481 Q35.5246 25.9497 35.5246 24.1997 Q35.5246 22.4653 34.7981 21.5747 Q34.0715 20.6841 32.6496 20.6841 Q31.2278 20.6841 30.4856 21.5825 Q29.7434 22.4809 29.7434 24.1997 Z" /><ns0:path style="fill:none; stroke:black;" d="M60.6885 -15.1545 L61.164 -15 L61.164 -14.5" /><ns0:path style="fill:none; stroke:black;" d="M60.6885 15.1545 L61.164 15 L61.164 14.5" /></ns0:g></ns0:g></ns0:svg></ns0:svg></ns0:svg></ns0:svg></g></svg>