<svg xmlns:ns0="http://www.w3.org/2000/svg" xmlns="http://www.w3.org/2000/svg"><g transform="translate(0, 0)"><ns0:svg width="232" viewBox="0 0 232 97" style="fill-opacity:1; color-rendering:auto; color-interpolation:auto; text-rendering:auto; stroke:black; stroke-linecap:square; stroke-miterlimit:10; shape-rendering:auto; stroke-opacity:1; fill:black; stroke-dasharray:none; font-weight:normal; stroke-width:1; font-family:'Open Sans'; font-style:normal; stroke-linejoin:miter; font-size:12; stroke-dashoffset:0; image-rendering:auto;" height="97" class="cas-substance-image"><ns0:svg class="cas-substance-single-component"><ns0:rect y="0" x="0" width="232" stroke="none" ry="7" rx="7" height="97" fill="white" class="cas-substance-group" /><ns0:svg y="0" x="0" width="232" viewBox="0 0 232 97" style="fill:black;" height="97" class="cas-substance-single-component-image"><ns0:svg><ns0:g><ns0:g transform="translate(119,48)" style="text-rendering:geometricPrecision; color-rendering:optimizeQuality; color-interpolation:linearRGB; stroke-linecap:butt; image-rendering:optimizeQuality;"><ns0:line y2="-10.98" y1="-10.98" x2="-45" x1="-19.6433" style="fill:none;" /><ns0:line y2="12.5434" y1="-4.6362" x2="-16.75" x1="-16.75" style="fill:none;" /><ns0:line y2="12.5434" y1="-4.6362" x2="-13.25" x1="-13.25" style="fill:none;" /><ns0:line y2="-34.6284" y1="-17.4487" x2="-13.25" x1="-13.25" style="fill:none;" /><ns0:line y2="-34.6284" y1="-17.4487" x2="-16.75" x1="-16.75" style="fill:none;" /><ns0:line y2="-10.98" y1="-10.98" x2="15" x1="-10.439" style="fill:none;" /><ns0:line y2="15" y1="-10.98" x2="-60" x1="-45" style="fill:none;" /><ns0:line y2="-36.963" y1="-10.98" x2="-60" x1="-45" style="fill:none;" /><ns0:line y2="15" y1="15" x2="-90" x1="-60" style="fill:none;" /><ns0:line y2="35.2583" y1="15" x2="-101.6965" x1="-90" style="fill:none;" /><ns0:line y2="-6.2193" y1="15" x2="-100.2306" x1="-87.9793" style="fill:none;" /><ns0:line y2="-4.4693" y1="16.75" x2="-103.2617" x1="-91.0104" style="fill:none;" /><ns0:line y2="-10.98" y1="-10.98" x2="75" x1="98.582" style="fill:none;" /><ns0:line y2="15" y1="-10.98" x2="30" x1="15" style="fill:none;" /><ns0:line y2="11.5" y1="-10.9801" x2="32.0207" x1="19.0415" style="fill:none;" /><ns0:line y2="-36.963" y1="-10.98" x2="30" x1="15" style="fill:none;" /><ns0:line y2="15" y1="15" x2="60" x1="30" style="fill:none;" /><ns0:line y2="-36.963" y1="-36.963" x2="60" x1="30" style="fill:none;" /><ns0:line y2="-33.463" y1="-33.463" x2="57.9793" x1="32.0207" style="fill:none;" /><ns0:line y2="-10.98" y1="15" x2="75" x1="60" style="fill:none;" /><ns0:line y2="-10.9801" y1="11.5" x2="70.9585" x1="57.9793" style="fill:none;" /><ns0:line y2="-10.98" y1="-36.963" x2="75" x1="60" style="fill:none;" /></ns0:g><ns0:g transform="translate(119,48)" style="fill:rgb(148,108,0); text-rendering:geometricPrecision; color-rendering:optimizeQuality; image-rendering:optimizeQuality; font-family:'Open Sans'; stroke:rgb(148,108,0); color-interpolation:linearRGB;"><ns0:path style="stroke:none;" d="M-12.3047 -9.0425 Q-12.3047 -7.9175 -13.125 -7.2769 Q-13.9453 -6.6362 -15.3516 -6.6362 Q-16.8828 -6.6362 -17.6953 -7.0425 L-17.6953 -7.9956 Q-17.1641 -7.7769 -16.5469 -7.6441 Q-15.9297 -7.5112 -15.3203 -7.5112 Q-14.3203 -7.5112 -13.8203 -7.8941 Q-13.3203 -8.2769 -13.3203 -8.9487 Q-13.3203 -9.3862 -13.5 -9.6753 Q-13.6797 -9.9644 -14.0938 -10.2066 Q-14.5078 -10.4487 -15.3672 -10.7456 Q-16.5547 -11.1675 -17.0703 -11.7534 Q-17.5859 -12.3394 -17.5859 -13.2925 Q-17.5859 -14.2769 -16.8438 -14.8628 Q-16.1016 -15.4487 -14.8672 -15.4487 Q-13.6016 -15.4487 -12.5234 -14.98 L-12.8359 -14.1206 Q-13.8984 -14.5581 -14.8984 -14.5581 Q-15.6953 -14.5581 -16.1406 -14.2222 Q-16.5859 -13.8862 -16.5859 -13.2769 Q-16.5859 -12.8394 -16.4219 -12.5503 Q-16.2578 -12.2612 -15.8672 -12.0269 Q-15.4766 -11.7925 -14.6641 -11.4956 Q-13.3203 -11.0269 -12.8125 -10.4722 Q-12.3047 -9.9175 -12.3047 -9.0425 Z" /><ns0:path style="fill:rgb(230,0,0); stroke:none;" d="M-11.0625 18.9497 Q-11.0625 21.0122 -12.1016 22.1919 Q-13.1406 23.3716 -14.9844 23.3716 Q-16.875 23.3716 -17.9062 22.2075 Q-18.9375 21.0434 -18.9375 18.9341 Q-18.9375 16.8403 -17.9062 15.6919 Q-16.875 14.5434 -14.9844 14.5434 Q-13.125 14.5434 -12.0938 15.7153 Q-11.0625 16.8872 -11.0625 18.9497 ZM-17.8906 18.9497 Q-17.8906 20.6841 -17.1484 21.5903 Q-16.4062 22.4966 -14.9844 22.4966 Q-13.5625 22.4966 -12.8359 21.5981 Q-12.1094 20.6997 -12.1094 18.9497 Q-12.1094 17.2153 -12.8359 16.3247 Q-13.5625 15.4341 -14.9844 15.4341 Q-16.4062 15.4341 -17.1484 16.3325 Q-17.8906 17.2309 -17.8906 18.9497 Z" /><ns0:path style="fill:rgb(230,0,0); stroke:none;" d="M-11.0625 -41.0503 Q-11.0625 -38.9878 -12.1016 -37.8081 Q-13.1406 -36.6284 -14.9844 -36.6284 Q-16.875 -36.6284 -17.9062 -37.7925 Q-18.9375 -38.9566 -18.9375 -41.0659 Q-18.9375 -43.1597 -17.9062 -44.3081 Q-16.875 -45.4566 -14.9844 -45.4566 Q-13.125 -45.4566 -12.0938 -44.2847 Q-11.0625 -43.1128 -11.0625 -41.0503 ZM-17.8906 -41.0503 Q-17.8906 -39.3159 -17.1484 -38.4097 Q-16.4062 -37.5034 -14.9844 -37.5034 Q-13.5625 -37.5034 -12.8359 -38.4019 Q-12.1094 -39.3003 -12.1094 -41.0503 Q-12.1094 -42.7847 -12.8359 -43.6753 Q-13.5625 -44.5659 -14.9844 -44.5659 Q-16.4062 -44.5659 -17.1484 -43.6675 Q-17.8906 -42.7691 -17.8906 -41.0503 Z" /></ns0:g><ns0:g transform="translate(119,48)" style="stroke-linecap:butt; text-rendering:geometricPrecision; color-rendering:optimizeQuality; image-rendering:optimizeQuality; font-family:'Open Sans'; color-interpolation:linearRGB; stroke-miterlimit:5;"><ns0:path style="fill:none;" d="M-59.75 14.567 L-60 15 L-60.5 15" /><ns0:path style="fill:none;" d="M-89.5 15 L-90 15 L-90.25 15.433" /><ns0:path style="fill:rgb(230,0,0); stroke:none;" d="M-101.0625 40.9097 Q-101.0625 42.9722 -102.1016 44.1519 Q-103.1406 45.3316 -104.9844 45.3316 Q-106.875 45.3316 -107.9062 44.1675 Q-108.9375 43.0034 -108.9375 40.8941 Q-108.9375 38.8003 -107.9062 37.6519 Q-106.875 36.5034 -104.9844 36.5034 Q-103.125 36.5034 -102.0938 37.6753 Q-101.0625 38.8472 -101.0625 40.9097 ZM-107.8906 40.9097 Q-107.8906 42.6441 -107.1484 43.5503 Q-106.4062 44.4566 -104.9844 44.4566 Q-103.5625 44.4566 -102.8359 43.5581 Q-102.1094 42.6597 -102.1094 40.9097 Q-102.1094 39.1753 -102.8359 38.2847 Q-103.5625 37.3941 -104.9844 37.3941 Q-106.4062 37.3941 -107.1484 38.2925 Q-107.8906 39.1909 -107.8906 40.9097 Z" /><ns0:path style="fill:rgb(230,0,0); stroke:none;" d="M-109.9375 45.2066 L-110.9375 45.2066 L-110.9375 41.1753 L-115.4531 41.1753 L-115.4531 45.2066 L-116.4531 45.2066 L-116.4531 36.6441 L-115.4531 36.6441 L-115.4531 40.2847 L-110.9375 40.2847 L-110.9375 36.6441 L-109.9375 36.6441 L-109.9375 45.2066 Z" /><ns0:path style="fill:rgb(230,0,0); stroke:none;" d="M-101.0625 -11.0503 Q-101.0625 -8.9878 -102.1016 -7.8081 Q-103.1406 -6.6284 -104.9844 -6.6284 Q-106.875 -6.6284 -107.9062 -7.7925 Q-108.9375 -8.9566 -108.9375 -11.0659 Q-108.9375 -13.1597 -107.9062 -14.3081 Q-106.875 -15.4566 -104.9844 -15.4566 Q-103.125 -15.4566 -102.0938 -14.2847 Q-101.0625 -13.1128 -101.0625 -11.0503 ZM-107.8906 -11.0503 Q-107.8906 -9.3159 -107.1484 -8.4097 Q-106.4062 -7.5034 -104.9844 -7.5034 Q-103.5625 -7.5034 -102.8359 -8.4019 Q-102.1094 -9.3003 -102.1094 -11.0503 Q-102.1094 -12.7847 -102.8359 -13.6753 Q-103.5625 -14.5659 -104.9844 -14.5659 Q-106.4062 -14.5659 -107.1484 -13.6675 Q-107.8906 -12.7691 -107.8906 -11.0503 Z" /><ns0:path style="fill:rgb(0,138,0); stroke:none;" d="M104.6914 -14.3394 Q103.2852 -14.3394 102.4648 -13.4019 Q101.6445 -12.4644 101.6445 -10.8237 Q101.6445 -9.1519 102.4336 -8.23 Q103.2227 -7.3081 104.6758 -7.3081 Q105.582 -7.3081 106.7227 -7.6362 L106.7227 -6.7612 Q105.832 -6.4175 104.5352 -6.4175 Q102.6445 -6.4175 101.6133 -7.5737 Q100.582 -8.73 100.582 -10.8394 Q100.582 -12.1675 101.0742 -13.1597 Q101.5664 -14.1519 102.5039 -14.6909 Q103.4414 -15.23 104.707 -15.23 Q106.0508 -15.23 107.0664 -14.7456 L106.6445 -13.8862 Q105.6602 -14.3394 104.6914 -14.3394 ZM109.418 -6.5425 L108.4492 -6.5425 L108.4492 -15.6675 L109.418 -15.6675 L109.418 -6.5425 Z" /><ns0:path style="fill:none;" d="M15.25 -10.547 L15 -10.98 L14.5 -10.98" /><ns0:path style="fill:none;" d="M29.75 14.567 L30 15 L30.5 15" /><ns0:path style="fill:none;" d="M29.75 -36.53 L30 -36.963 L30.5 -36.963" /><ns0:path style="fill:none;" d="M59.5 15 L60 15 L60.25 14.567" /><ns0:path style="fill:none;" d="M59.5 -36.963 L60 -36.963 L60.25 -36.53" /><ns0:path style="fill:none;" d="M74.75 -10.547 L75 -10.98 L75.5 -10.98" /></ns0:g></ns0:g></ns0:svg></ns0:svg></ns0:svg></ns0:svg></g></svg>