<svg xmlns:ns0="http://www.w3.org/2000/svg" xmlns="http://www.w3.org/2000/svg"><g transform="translate(0, 0)"><ns0:svg width="115" viewBox="0 0 115 92" style="fill-opacity:1; color-rendering:auto; color-interpolation:auto; text-rendering:auto; stroke:black; stroke-linecap:square; stroke-miterlimit:10; shape-rendering:auto; stroke-opacity:1; fill:black; stroke-dasharray:none; font-weight:normal; stroke-width:1; font-family:'Open Sans'; font-style:normal; stroke-linejoin:miter; font-size:12; stroke-dashoffset:0; image-rendering:auto;" height="92" class="cas-substance-image"><ns0:svg class="cas-substance-single-component"><ns0:rect y="0" x="0" width="115" stroke="none" ry="7" rx="7" height="92" fill="white" class="cas-substance-group" /><ns0:svg y="0" x="0" width="115" viewBox="0 0 115 92" style="fill:black;" height="92" class="cas-substance-single-component-image"><ns0:svg><ns0:g><ns0:g transform="translate(55,48)" style="text-rendering:geometricPrecision; color-rendering:optimizeQuality; color-interpolation:linearRGB; stroke-linecap:butt; image-rendering:optimizeQuality;"><ns0:line y2="10.98" y1="10.98" x2="-22.5" x1="7.5" style="fill:none;" /><ns0:line y2="-15" y1="10.98" x2="22.5" x1="7.5" style="fill:none;" /><ns0:line y2="40.98" y1="10.98" x2="-22.5" x1="-22.5" style="fill:none;" /><ns0:line y2="10.98" y1="10.98" x2="-52.5" x1="-22.5" style="fill:none;" /><ns0:line y2="-12.6684" y1="10.98" x2="-22.5" x1="-22.5" style="fill:none;" /><ns0:line y2="-35.3443" y1="-15" x2="10.7539" x1="22.5" style="fill:none;" /><ns0:line y2="-13.25" y1="-13.25" x2="46.5625" x1="21.4896" style="fill:none;" /><ns0:line y2="-16.75" y1="-16.75" x2="46.5625" x1="21.4896" style="fill:none;" /><ns0:path style="fill:none; stroke-miterlimit:5;" d="M7 10.98 L7.5 10.98 L7.75 10.547" /><ns0:path style="fill:none; stroke-miterlimit:5;" d="M22.25 -14.567 L22.5 -15 L22.25 -15.433" /></ns0:g><ns0:g transform="translate(55,48)" style="stroke-linecap:butt; fill:rgb(230,0,0); text-rendering:geometricPrecision; color-rendering:optimizeQuality; image-rendering:optimizeQuality; font-family:'Open Sans'; stroke:rgb(230,0,0); color-interpolation:linearRGB; stroke-miterlimit:5;"><ns0:path style="stroke:none;" d="M-18.5625 -19.0903 Q-18.5625 -17.0278 -19.6016 -15.8481 Q-20.6406 -14.6684 -22.4844 -14.6684 Q-24.375 -14.6684 -25.4062 -15.8325 Q-26.4375 -16.9966 -26.4375 -19.1059 Q-26.4375 -21.1997 -25.4062 -22.3481 Q-24.375 -23.4966 -22.4844 -23.4966 Q-20.625 -23.4966 -19.5938 -22.3247 Q-18.5625 -21.1528 -18.5625 -19.0903 ZM-25.3906 -19.0903 Q-25.3906 -17.3559 -24.6484 -16.4497 Q-23.9062 -15.5434 -22.4844 -15.5434 Q-21.0625 -15.5434 -20.3359 -16.4419 Q-19.6094 -17.3403 -19.6094 -19.0903 Q-19.6094 -20.8247 -20.3359 -21.7153 Q-21.0625 -22.6059 -22.4844 -22.6059 Q-23.9062 -22.6059 -24.6484 -21.7075 Q-25.3906 -20.8091 -25.3906 -19.0903 Z" /><ns0:path style="stroke:none;" d="M-11.0469 -14.7934 L-12.0469 -14.7934 L-12.0469 -18.8247 L-16.5625 -18.8247 L-16.5625 -14.7934 L-17.5625 -14.7934 L-17.5625 -23.3559 L-16.5625 -23.3559 L-16.5625 -19.7153 L-12.0469 -19.7153 L-12.0469 -23.3559 L-11.0469 -23.3559 L-11.0469 -14.7934 Z" /><ns0:path style="stroke:none;" d="M11.4375 -41.0503 Q11.4375 -38.9878 10.3984 -37.8081 Q9.3594 -36.6284 7.5156 -36.6284 Q5.625 -36.6284 4.5938 -37.7925 Q3.5625 -38.9566 3.5625 -41.0659 Q3.5625 -43.1597 4.5938 -44.3081 Q5.625 -45.4566 7.5156 -45.4566 Q9.375 -45.4566 10.4062 -44.2847 Q11.4375 -43.1128 11.4375 -41.0503 ZM4.6094 -41.0503 Q4.6094 -39.3159 5.3516 -38.4097 Q6.0938 -37.5034 7.5156 -37.5034 Q8.9375 -37.5034 9.6641 -38.4019 Q10.3906 -39.3003 10.3906 -41.0503 Q10.3906 -42.7847 9.6641 -43.6753 Q8.9375 -44.5659 7.5156 -44.5659 Q6.0938 -44.5659 5.3516 -43.6675 Q4.6094 -42.7691 4.6094 -41.0503 Z" /><ns0:path style="stroke:none;" d="M2.5625 -36.7534 L1.5625 -36.7534 L1.5625 -40.7847 L-2.9531 -40.7847 L-2.9531 -36.7534 L-3.9531 -36.7534 L-3.9531 -45.3159 L-2.9531 -45.3159 L-2.9531 -41.6753 L1.5625 -41.6753 L1.5625 -45.3159 L2.5625 -45.3159 L2.5625 -36.7534 Z" /><ns0:path style="stroke:none;" d="M56.4375 -15.0703 Q56.4375 -13.0078 55.3984 -11.8281 Q54.3594 -10.6484 52.5156 -10.6484 Q50.625 -10.6484 49.5938 -11.8125 Q48.5625 -12.9766 48.5625 -15.0859 Q48.5625 -17.1797 49.5938 -18.3281 Q50.625 -19.4766 52.5156 -19.4766 Q54.375 -19.4766 55.4062 -18.3047 Q56.4375 -17.1328 56.4375 -15.0703 ZM49.6094 -15.0703 Q49.6094 -13.3359 50.3516 -12.4297 Q51.0938 -11.5234 52.5156 -11.5234 Q53.9375 -11.5234 54.6641 -12.4219 Q55.3906 -13.3203 55.3906 -15.0703 Q55.3906 -16.8047 54.6641 -17.6953 Q53.9375 -18.5859 52.5156 -18.5859 Q51.0938 -18.5859 50.3516 -17.6875 Q49.6094 -16.7891 49.6094 -15.0703 Z" /></ns0:g></ns0:g></ns0:svg></ns0:svg></ns0:svg></ns0:svg></g></svg>