<svg width="329" viewBox="0 0 329 193" style="fill-opacity:1; color-rendering:auto; color-interpolation:auto; text-rendering:auto; stroke:black; stroke-linecap:square; stroke-miterlimit:10; shape-rendering:auto; stroke-opacity:1; fill:black; stroke-dasharray:none; font-weight:normal; stroke-width:1; font-family:'Open Sans'; font-style:normal; stroke-linejoin:miter; font-size:12; stroke-dashoffset:0; image-rendering:auto;" height="193" class="cas-substance-image" xmlns:xlink="http://www.w3.org/1999/xlink" xmlns="http://www.w3.org/2000/svg"><svg class="cas-substance-single-component"><rect y="0" x="0" width="329" stroke="none" ry="7" rx="7" height="193" fill="white" class="cas-substance-group"/><svg y="0" x="0" width="329" viewBox="0 0 329 193" style="fill:black;" height="193" class="cas-substance-single-component-image"><svg><g><g transform="translate(164,98)" style="text-rendering:geometricPrecision; color-rendering:optimizeQuality; color-interpolation:linearRGB; stroke-linecap:butt; image-rendering:optimizeQuality;"><line y2="-12.99" y1="-12.99" x2="-15" x1="15" style="fill:none;"/><path style="stroke:none;" d="M23.8419 -34.1478 L23.434 -33.2283 L23.434 -33.2283 L28.3121 -30.4153 L28.3121 -30.4153 L28.9046 -31.2284 L28.9046 -31.2284 L23.8419 -34.1478 ZM22.6182 -31.3894 L22.2103 -30.4699 L22.2103 -30.4699 L26.5348 -27.9761 L26.5348 -27.9761 L27.1272 -28.7892 L22.6182 -31.3894 ZM21.3945 -28.6309 L20.9866 -27.7114 L20.9866 -27.7114 L24.7575 -25.5369 L24.7575 -25.5369 L25.3499 -26.35 L25.3499 -26.35 L21.3945 -28.6309 ZM20.1709 -25.8724 L19.763 -24.9529 L19.763 -24.9529 L22.9801 -23.0977 L23.5726 -23.9108 L23.5726 -23.9108 L20.1709 -25.8724 ZM18.9472 -23.114 L18.5393 -22.1945 L21.2028 -20.6585 L21.2028 -20.6585 L21.7953 -21.4716 L18.9472 -23.114 ZM17.7235 -20.3555 L17.3156 -19.436 L19.4255 -18.2193 L19.4255 -18.2193 L20.0179 -19.0324 L20.0179 -19.0324 L17.7235 -20.3555 ZM16.4998 -17.597 L16.0919 -16.6775 L17.6482 -15.7801 L17.6482 -15.7801 L18.2406 -16.5932 L18.2406 -16.5932 L16.4998 -17.597 ZM15.2761 -14.8386 L14.8682 -13.9191 L15.8709 -13.3409 L15.8709 -13.3409 L16.4633 -14.154 L16.4633 -14.154 L15.2761 -14.8386 Z"/><line y2="12.99" y1="-12.99" x2="30" x1="15" style="fill:none;"/><path style="stroke:none;" d="M-15.8459 -12.6738 L-16.4387 -11.861 L-16.4387 -11.861 L-15.2582 -11.1802 L-15.2582 -11.1802 L-14.8506 -12.0999 L-14.8506 -12.0999 L-15.8459 -12.6738 ZM-17.6242 -10.2352 L-18.217 -9.4224 L-16.4809 -8.4212 L-16.0733 -9.3409 L-17.6242 -10.2352 ZM-19.4025 -7.7966 L-19.9953 -6.9837 L-17.7035 -5.6621 L-17.7035 -5.6621 L-17.296 -6.5818 L-19.4025 -7.7966 ZM-21.1809 -5.358 L-21.7736 -4.5451 L-18.9262 -2.9031 L-18.9262 -2.9031 L-18.5187 -3.8228 L-18.5187 -3.8228 L-21.1809 -5.358 ZM-22.9592 -2.9194 L-23.552 -2.1065 L-20.1489 -0.144 L-19.7413 -1.0637 L-22.9592 -2.9194 ZM-24.7375 -0.4807 L-25.3303 0.3321 L-21.3716 2.615 L-20.964 1.6953 L-20.964 1.6953 L-24.7375 -0.4807 ZM-26.5159 1.9579 L-27.1086 2.7707 L-22.5942 5.3741 L-22.1867 4.4544 L-26.5159 1.9579 ZM-28.2942 4.3965 L-28.887 5.2094 L-23.8169 8.1331 L-23.8169 8.1331 L-23.4094 7.2134 L-28.2942 4.3965 Z"/><line y2="-38.97" y1="-12.99" x2="-30" x1="-15" style="fill:none;"/><path style="stroke:none;" d="M60 -39.47 L60 -38.47 L35.9375 -35.97 L35.9375 -41.97 Z"/><path style="stroke:none;" d="M28.4037 14.3278 L27.809 15.1395 L27.809 15.1395 L29.2342 15.9614 L29.2342 15.9614 L29.6399 15.0406 L29.6399 15.0406 L28.4037 14.3278 ZM26.6196 16.763 L26.0249 17.5748 L28.0174 18.7238 L28.0174 18.7238 L28.423 17.803 L28.423 17.803 L26.6196 16.763 ZM24.8354 19.1983 L24.2407 20.01 L26.8006 21.4862 L26.8006 21.4862 L27.2062 20.5654 L24.8354 19.1983 ZM23.0512 21.6335 L22.4565 22.4453 L25.5837 24.2486 L25.5837 24.2486 L25.9893 23.3278 L25.9893 23.3278 L23.0512 21.6335 ZM21.2671 24.0688 L20.6724 24.8805 L24.3669 27.011 L24.3669 27.011 L24.7725 26.0902 L24.7725 26.0902 L21.2671 24.0688 ZM19.4829 26.504 L18.8882 27.3158 L18.8882 27.3158 L23.15 29.7734 L23.15 29.7734 L23.5556 28.8526 L23.5556 28.8526 L19.4829 26.504 ZM17.6988 28.9393 L17.104 29.751 L21.9332 32.5359 L21.9332 32.5359 L22.3388 31.6151 L22.3388 31.6151 L17.6988 28.9393 Z"/><line y2="12.99" y1="12.99" x2="60" x1="30" style="fill:none;"/><path style="stroke:none;" d="M-60 13.49 L-60 12.49 L-35.9375 9.99 L-35.9375 15.99 Z"/><line y2="-64.953" y1="-38.97" x2="-15" x1="-30" style="fill:none;"/><path style="stroke:none;" d="M-32.0312 -39.681 L-32.0312 -38.259 L-32.0312 -38.259 L-31.0312 -38.3629 L-31.0312 -38.3629 L-31.0312 -39.5771 L-31.0312 -39.5771 L-32.0312 -39.681 ZM-35.0312 -39.9927 L-35.0312 -37.9473 L-35.0312 -37.9473 L-34.0312 -38.0512 L-34.0312 -39.8888 L-35.0312 -39.9927 ZM-38.0312 -40.3044 L-38.0312 -37.6356 L-38.0312 -37.6356 L-37.0312 -37.7395 L-37.0312 -37.7395 L-37.0312 -40.2005 L-37.0312 -40.2005 L-38.0312 -40.3044 ZM-41.0312 -40.6161 L-41.0312 -37.3239 L-41.0312 -37.3239 L-40.0312 -37.4278 L-40.0312 -37.4278 L-40.0312 -40.5122 L-40.0312 -40.5122 L-41.0312 -40.6161 ZM-44.0312 -40.9278 L-44.0312 -37.0122 L-44.0312 -37.0122 L-43.0312 -37.1161 L-43.0312 -37.1161 L-43.0312 -40.8239 L-43.0312 -40.8239 L-44.0312 -40.9278 ZM-47.0312 -41.2395 L-47.0312 -36.7005 L-47.0312 -36.7005 L-46.0312 -36.8044 L-46.0312 -36.8044 L-46.0312 -41.1356 L-46.0312 -41.1356 L-47.0312 -41.2395 ZM-50.0312 -41.5512 L-50.0312 -36.3888 L-49.0312 -36.4927 L-49.0312 -36.4927 L-49.0312 -41.4473 L-49.0312 -41.4473 L-50.0312 -41.5512 ZM-53.0312 -41.8629 L-53.0312 -36.0771 L-53.0312 -36.0771 L-52.0312 -36.181 L-52.0312 -36.181 L-52.0312 -41.759 L-52.0312 -41.759 L-53.0312 -41.8629 Z"/><line y2="64.953" y1="44.8583" x2="30" x1="18.3993" style="fill:none;"/><line y2="33.2424" y1="12.99" x2="71.6931" x1="60" style="fill:none;"/><line y2="34.9924" y1="16.49" x2="68.662" x1="57.9793" style="fill:none;"/><line y2="-85.2973" y1="-64.953" x2="-26.7461" x1="-15" style="fill:none;"/><line y2="90.933" y1="64.953" x2="15" x1="30" style="fill:none;"/><line y2="66.703" y1="66.703" x2="54.0625" x1="28.9896" style="fill:none;"/><line y2="63.203" y1="63.203" x2="54.0625" x1="28.9897" style="fill:none;"/><path style="stroke:none;" d="M75.433 -65.203 L74.567 -64.703 L60.6558 -83.7972 L65.8519 -86.7973 Z"/><path style="stroke:none;" d="M-74.1554 39.2844 L-75.1503 39.8581 L-75.1503 39.8581 L-74.7428 40.7778 L-74.7428 40.7778 L-73.5627 40.0973 L-74.1554 39.2844 ZM-72.3772 41.723 L-73.9278 42.6172 L-73.5204 43.5369 L-71.7845 42.5359 L-71.7845 42.5359 L-72.3772 41.723 ZM-70.599 44.1616 L-72.7054 45.3762 L-72.7054 45.3762 L-72.2979 46.2959 L-72.2979 46.2959 L-70.0063 44.9745 L-70.0063 44.9745 L-70.599 44.1616 ZM-68.8208 46.6002 L-71.4829 48.1353 L-71.0754 49.055 L-71.0754 49.055 L-68.2281 47.413 L-68.2281 47.413 L-68.8208 46.6002 ZM-67.0426 49.0388 L-70.2605 50.8944 L-70.2605 50.8944 L-69.853 51.8141 L-69.853 51.8141 L-66.4499 49.8516 L-66.4499 49.8516 L-67.0426 49.0388 ZM-65.2644 51.4774 L-69.038 53.6535 L-68.6305 54.5732 L-68.6305 54.5732 L-64.6717 52.2902 L-64.6717 52.2902 L-65.2644 51.4774 ZM-63.4862 53.916 L-67.8156 56.4125 L-67.4081 57.3322 L-67.4081 57.3322 L-62.8935 54.7288 L-62.8935 54.7288 L-63.4862 53.916 ZM-61.708 56.3546 L-66.5931 59.1716 L-66.5931 59.1716 L-66.1856 60.0913 L-66.1856 60.0913 L-61.1153 57.1674 L-61.1153 57.1674 L-61.708 56.3546 Z"/><path style="stroke:none;" d="M113.8419 -86.1108 L113.434 -85.1913 L113.434 -85.1913 L118.3121 -82.3783 L118.3121 -82.3783 L118.9045 -83.1914 L118.9045 -83.1914 L113.8419 -86.1108 ZM112.6182 -83.3524 L112.2103 -82.4329 L112.2103 -82.4329 L116.5348 -79.9391 L117.1272 -80.7522 L117.1272 -80.7522 L112.6182 -83.3524 ZM111.3945 -80.5939 L110.9866 -79.6744 L110.9866 -79.6744 L114.7575 -77.4999 L115.3499 -78.313 L115.3499 -78.313 L111.3945 -80.5939 ZM110.1709 -77.8354 L109.763 -76.9159 L109.763 -76.9159 L112.9801 -75.0607 L112.9801 -75.0607 L113.5726 -75.8738 L110.1709 -77.8354 ZM108.9472 -75.077 L108.5393 -74.1575 L108.5393 -74.1575 L111.2028 -72.6215 L111.2028 -72.6215 L111.7953 -73.4346 L108.9472 -75.077 ZM107.7235 -72.3185 L107.3156 -71.399 L109.4255 -70.1823 L110.0179 -70.9954 L110.0179 -70.9954 L107.7235 -72.3185 ZM106.4998 -69.56 L106.0919 -68.6405 L106.0919 -68.6405 L107.6482 -67.7431 L108.2406 -68.5562 L108.2406 -68.5562 L106.4998 -69.56 ZM105.2761 -66.8016 L104.8682 -65.8821 L104.8682 -65.8821 L105.8708 -65.3039 L105.8708 -65.3039 L106.4633 -66.117 L105.2761 -66.8016 Z"/><path style="stroke:none;" d="M106.0053 -12.4154 L104.9947 -11.8326 L105.4226 -10.9247 L106.5777 -11.5908 L106.0053 -12.4154 ZM107.7225 -9.9415 L106.2785 -9.1088 L106.7065 -8.2009 L108.2949 -9.1169 L107.7225 -9.9415 ZM109.4396 -7.4676 L107.5624 -6.3851 L107.5624 -6.3851 L107.9903 -5.4772 L110.012 -6.643 L109.4396 -7.4676 ZM111.1568 -4.9937 L108.8463 -3.6613 L109.2742 -2.7534 L111.7291 -4.1691 L111.1568 -4.9937 ZM112.8739 -2.5198 L110.1301 -0.9375 L110.5581 -0.0296 L113.4463 -1.6952 L112.8739 -2.5198 ZM114.591 -0.0459 L111.414 1.7862 L111.8419 2.6942 L115.1634 0.7788 L114.591 -0.0459 ZM116.3082 2.428 L112.6978 4.51 L113.1258 5.4179 L116.8806 3.2527 L116.3082 2.428 ZM118.0253 4.9019 L113.9817 7.2338 L114.4096 8.1417 L118.5977 5.7266 L118.0253 4.9019 ZM119.7424 7.3758 L115.2655 9.9575 L115.6935 10.8655 L120.3148 8.2005 L119.7424 7.3758 ZM121.4596 9.8497 L116.5494 12.6813 L116.9773 13.5892 L122.032 10.6744 L121.4596 9.8497 Z"/><line y2="-38.97" y1="-38.97" x2="-144.0625" x1="-120" style="fill:none;"/><path style="stroke:none;" d="M-104.567 -13.24 L-105.433 -12.74 L-123.4641 -39.47 L-116.5359 -39.47 Z"/><path style="stroke:none;" d="M-105.433 38.72 L-104.567 39.22 L-114.0986 60.731 L-119.2949 57.7312 Z"/><path style="stroke:none;" d="M122.0312 -39.681 L121.0312 -39.5771 L121.0312 -39.5771 L121.0312 -38.3629 L121.0312 -38.3629 L122.0312 -38.259 L122.0312 -38.259 L122.0312 -39.681 ZM125.0312 -39.9927 L124.0312 -39.8888 L124.0312 -38.0512 L125.0312 -37.9473 L125.0312 -39.9927 ZM128.0312 -40.3044 L127.0312 -40.2005 L127.0312 -40.2005 L127.0312 -37.7395 L127.0312 -37.7395 L128.0312 -37.6356 L128.0312 -37.6356 L128.0312 -40.3044 ZM131.0312 -40.6161 L130.0312 -40.5122 L130.0312 -40.5122 L130.0312 -37.4278 L130.0312 -37.4278 L131.0312 -37.3239 L131.0312 -40.6161 ZM134.0312 -40.9278 L133.0312 -40.8239 L133.0312 -37.1161 L134.0312 -37.0122 L134.0312 -37.0122 L134.0312 -40.9278 ZM137.0312 -41.2395 L136.0312 -41.1356 L136.0312 -41.1356 L136.0312 -36.8044 L136.0312 -36.8044 L137.0312 -36.7005 L137.0312 -36.7005 L137.0312 -41.2395 ZM140.0312 -41.5512 L139.0312 -41.4473 L139.0312 -36.4927 L140.0312 -36.3888 L140.0312 -41.5512 ZM143.0312 -41.8629 L142.0312 -41.759 L142.0312 -41.759 L142.0312 -36.181 L142.0312 -36.181 L143.0312 -36.0771 L143.0312 -36.0771 L143.0312 -41.8629 Z"/><path style="stroke:none;" d="M-120 12.49 L-120 13.49 L-144.0625 15.99 L-144.0625 9.99 Z"/><line y2="-64.953" y1="-38.97" x2="75" x1="60" style="fill:none;"/><line y2="-18.7176" y1="-38.97" x2="71.6931" x1="60" style="fill:none;"/><line y2="-64.953" y1="-64.953" x2="105" x1="75" style="fill:none;"/><line y2="-12.99" y1="-12.99" x2="105" x1="80.9375" style="fill:none;"/><line y2="-38.97" y1="-64.953" x2="120" x1="105" style="fill:none;"/><line y2="-38.97" y1="-12.99" x2="120" x1="105" style="fill:none;"/><line y2="-7.3543" y1="12.99" x2="-71.7461" x1="-60" style="fill:none;"/><line y2="38.97" y1="12.99" x2="-75" x1="-60" style="fill:none;"/><line y2="-12.99" y1="-12.99" x2="-105" x1="-80.9375" style="fill:none;"/><line y2="38.97" y1="38.97" x2="-105" x1="-75" style="fill:none;"/><line y2="12.99" y1="-12.99" x2="-120" x1="-105" style="fill:none;"/><line y2="12.99" y1="38.97" x2="-120" x1="-105" style="fill:none;"/><path style="fill:none; stroke-miterlimit:5;" d="M14.5 -12.99 L15 -12.99 L15.25 -12.557"/></g><g transform="translate(164,98)" style="stroke-linecap:butt; font-size:8.4px; fill:gray; text-rendering:geometricPrecision; image-rendering:optimizeQuality; color-rendering:optimizeQuality; font-family:'Open Sans'; font-style:italic; stroke:gray; color-interpolation:linearRGB; stroke-miterlimit:5;"><path style="stroke:none;" d="M5.6116 -20.4863 Q5.6116 -21.8144 6.0803 -22.9394 Q6.5491 -24.0644 7.5803 -25.1426 L8.1897 -25.1426 Q7.221 -24.0801 6.7366 -22.9082 Q6.2522 -21.7363 6.2522 -20.5019 Q6.2522 -19.1738 6.6897 -18.1582 L6.1741 -18.1582 Q5.6116 -19.1894 5.6116 -20.4863 ZM9.1716 -21.7988 L8.6716 -19.4238 L8.0154 -19.4238 L9.2185 -25.1426 L10.4685 -25.1426 Q12.2029 -25.1426 12.2029 -23.7051 Q12.2029 -22.3457 10.7654 -21.9551 L11.7029 -19.4238 L10.9841 -19.4238 L10.156 -21.7988 L9.1716 -21.7988 ZM9.7498 -24.5488 Q9.3591 -22.6269 9.2966 -22.3769 L9.9529 -22.3769 Q10.7029 -22.3769 11.1091 -22.7051 Q11.5154 -23.0332 11.5154 -23.6582 Q11.5154 -24.1269 11.2576 -24.3379 Q10.9998 -24.5488 10.406 -24.5488 L9.7498 -24.5488 ZM14.3889 -22.7988 Q14.3889 -21.4707 13.9123 -20.3379 Q13.4357 -19.2051 12.4201 -18.1582 L11.8107 -18.1582 Q13.7482 -20.3144 13.7482 -22.7988 Q13.7482 -24.1269 13.3107 -25.1426 L13.8264 -25.1426 Q14.3889 -24.0801 14.3889 -22.7988 Z"/><path style="fill:none; stroke:black;" d="M-14.5 -12.99 L-15 -12.99 L-15.25 -13.423"/><path style="stroke:none;" d="M-14.3885 -20.4861 Q-14.3885 -21.8143 -13.9198 -22.9393 Q-13.451 -24.0643 -12.4198 -25.1424 L-11.8104 -25.1424 Q-12.7792 -24.0799 -13.2635 -22.908 Q-13.7479 -21.7361 -13.7479 -20.5018 Q-13.7479 -19.1736 -13.3104 -18.158 L-13.826 -18.158 Q-14.3885 -19.1893 -14.3885 -20.4861 ZM-10.8285 -21.7986 L-11.3285 -19.4236 L-11.9847 -19.4236 L-10.7816 -25.1424 L-9.5316 -25.1424 Q-7.7972 -25.1424 -7.7972 -23.7049 Q-7.7972 -22.3455 -9.2347 -21.9549 L-8.2972 -19.4236 L-9.016 -19.4236 L-9.8441 -21.7986 L-10.8285 -21.7986 ZM-10.2503 -24.5486 Q-10.641 -22.6268 -10.7035 -22.3768 L-10.0472 -22.3768 Q-9.2972 -22.3768 -8.891 -22.7049 Q-8.4847 -23.033 -8.4847 -23.658 Q-8.4847 -24.1268 -8.7425 -24.3377 Q-9.0003 -24.5486 -9.5941 -24.5486 L-10.2503 -24.5486 ZM-5.6112 -22.7986 Q-5.6112 -21.4705 -6.0878 -20.3377 Q-6.5644 -19.2049 -7.58 -18.158 L-8.1894 -18.158 Q-6.2519 -20.3143 -6.2519 -22.7986 Q-6.2519 -24.1268 -6.6894 -25.1424 L-6.1737 -25.1424 Q-5.6112 -24.0799 -5.6112 -22.7986 Z"/></g><g transform="translate(164,98)" style="stroke-linecap:butt; fill:rgb(230,0,0); text-rendering:geometricPrecision; color-rendering:optimizeQuality; image-rendering:optimizeQuality; font-family:'Open Sans'; stroke:rgb(230,0,0); color-interpolation:linearRGB; stroke-miterlimit:5;"><path style="stroke:none;" d="M33.9375 -39.0403 Q33.9375 -36.9778 32.8984 -35.7981 Q31.8594 -34.6184 30.0156 -34.6184 Q28.125 -34.6184 27.0938 -35.7825 Q26.0625 -36.9466 26.0625 -39.0559 Q26.0625 -41.1497 27.0938 -42.2981 Q28.125 -43.4466 30.0156 -43.4466 Q31.875 -43.4466 32.9062 -42.2747 Q33.9375 -41.1028 33.9375 -39.0403 ZM27.1094 -39.0403 Q27.1094 -37.3059 27.8516 -36.3997 Q28.5938 -35.4934 30.0156 -35.4934 Q31.4375 -35.4934 32.1641 -36.3919 Q32.8906 -37.2903 32.8906 -39.0403 Q32.8906 -40.7747 32.1641 -41.6653 Q31.4375 -42.5559 30.0156 -42.5559 Q28.5938 -42.5559 27.8516 -41.6575 Q27.1094 -40.7591 27.1094 -39.0403 Z"/><path style="fill:none; stroke:black;" d="M29.75 12.557 L30 12.99 L30.5 12.99"/></g><g transform="translate(164,98)" style="stroke-linecap:butt; font-size:8.4px; fill:gray; text-rendering:geometricPrecision; image-rendering:optimizeQuality; color-rendering:optimizeQuality; font-family:'Open Sans'; font-style:italic; stroke:gray; color-interpolation:linearRGB; stroke-miterlimit:5;"><path style="stroke:none;" d="M30.6115 5.4939 Q30.6115 4.1657 31.0802 3.0407 Q31.549 1.9157 32.5802 0.8376 L33.1896 0.8376 Q32.2208 1.9001 31.7365 3.072 Q31.2521 4.2439 31.2521 5.4782 Q31.2521 6.8064 31.6896 7.822 L31.174 7.822 Q30.6115 6.7907 30.6115 5.4939 ZM34.1715 4.1814 L33.6715 6.5564 L33.0153 6.5564 L34.2184 0.8376 L35.4684 0.8376 Q37.2028 0.8376 37.2028 2.2751 Q37.2028 3.6345 35.7653 4.0251 L36.7028 6.5564 L35.984 6.5564 L35.1559 4.1814 L34.1715 4.1814 ZM34.7497 1.4314 Q34.359 3.3532 34.2965 3.6032 L34.9528 3.6032 Q35.7028 3.6032 36.109 3.2751 Q36.5153 2.947 36.5153 2.322 Q36.5153 1.8532 36.2575 1.6423 Q35.9997 1.4314 35.4059 1.4314 L34.7497 1.4314 ZM39.3888 3.1814 Q39.3888 4.5095 38.9122 5.6423 Q38.4356 6.7751 37.42 7.822 L36.8106 7.822 Q38.7481 5.6657 38.7481 3.1814 Q38.7481 1.8532 38.3106 0.8376 L38.8263 0.8376 Q39.3888 1.9001 39.3888 3.1814 Z"/></g><g transform="translate(164,98)" style="stroke-linecap:butt; fill:rgb(230,0,0); text-rendering:geometricPrecision; color-rendering:optimizeQuality; image-rendering:optimizeQuality; font-family:'Open Sans'; stroke:rgb(230,0,0); color-interpolation:linearRGB; stroke-miterlimit:5;"><path style="stroke:none;" d="M-26.0625 12.9197 Q-26.0625 14.9822 -27.1016 16.1619 Q-28.1406 17.3416 -29.9844 17.3416 Q-31.875 17.3416 -32.9062 16.1775 Q-33.9375 15.0134 -33.9375 12.9041 Q-33.9375 10.8103 -32.9062 9.6619 Q-31.875 8.5134 -29.9844 8.5134 Q-28.125 8.5134 -27.0938 9.6853 Q-26.0625 10.8572 -26.0625 12.9197 ZM-32.8906 12.9197 Q-32.8906 14.6541 -32.1484 15.5603 Q-31.4062 16.4666 -29.9844 16.4666 Q-28.5625 16.4666 -27.8359 15.5681 Q-27.1094 14.6697 -27.1094 12.9197 Q-27.1094 11.1853 -27.8359 10.2947 Q-28.5625 9.4041 -29.9844 9.4041 Q-31.4062 9.4041 -32.1484 10.3025 Q-32.8906 11.2009 -32.8906 12.9197 Z"/><path style="fill:none; stroke:black;" d="M-29.75 -38.537 L-30 -38.97 L-29.75 -39.403"/></g><g transform="translate(164,98)" style="stroke-linecap:butt; font-size:8.4px; fill:gray; text-rendering:geometricPrecision; image-rendering:optimizeQuality; color-rendering:optimizeQuality; font-family:'Open Sans'; font-style:italic; stroke:gray; color-interpolation:linearRGB; stroke-miterlimit:5;"><path style="stroke:none;" d="M-39.3891 -46.4659 Q-39.3891 -47.7941 -38.9203 -48.9191 Q-38.4516 -50.0441 -37.4203 -51.1222 L-36.8109 -51.1222 Q-37.7797 -50.0597 -38.2641 -48.8878 Q-38.7484 -47.7159 -38.7484 -46.4816 Q-38.7484 -45.1534 -38.3109 -44.1378 L-38.8266 -44.1378 Q-39.3891 -45.1691 -39.3891 -46.4659 ZM-35.829 -47.7784 L-36.329 -45.4034 L-36.9853 -45.4034 L-35.7821 -51.1222 L-34.5321 -51.1222 Q-32.7978 -51.1222 -32.7978 -49.6847 Q-32.7978 -48.3253 -34.2353 -47.9347 L-33.2978 -45.4034 L-34.0165 -45.4034 L-34.8446 -47.7784 L-35.829 -47.7784 ZM-35.2509 -50.5284 Q-35.6415 -48.6066 -35.704 -48.3566 L-35.0478 -48.3566 Q-34.2978 -48.3566 -33.8915 -48.6847 Q-33.4853 -49.0128 -33.4853 -49.6378 Q-33.4853 -50.1066 -33.7431 -50.3175 Q-34.0009 -50.5284 -34.5946 -50.5284 L-35.2509 -50.5284 ZM-30.6118 -48.7784 Q-30.6118 -47.4503 -31.0884 -46.3175 Q-31.5649 -45.1847 -32.5805 -44.1378 L-33.1899 -44.1378 Q-31.2524 -46.2941 -31.2524 -48.7784 Q-31.2524 -50.1066 -31.6899 -51.1222 L-31.1743 -51.1222 Q-30.6118 -50.0597 -30.6118 -48.7784 Z"/></g><g transform="translate(164,98)" style="stroke-linecap:butt; fill:rgb(0,5,255); text-rendering:geometricPrecision; color-rendering:optimizeQuality; image-rendering:optimizeQuality; font-family:'Open Sans'; stroke:rgb(0,5,255); color-interpolation:linearRGB; stroke-miterlimit:5;"><path style="stroke:none;" d="M18.3516 43.1263 L17.2109 43.1263 L12.5234 35.9388 L12.4766 35.9388 Q12.5703 37.2044 12.5703 38.2513 L12.5703 43.1263 L11.6484 43.1263 L11.6484 34.5638 L12.7734 34.5638 L17.4453 41.72 L17.4922 41.72 Q17.4922 41.5638 17.4453 40.7044 Q17.3984 39.845 17.4141 39.47 L17.4141 34.5638 L18.3516 34.5638 L18.3516 43.1263 Z"/><path style="stroke:none;" d="M10.6484 43.1263 L9.6484 43.1263 L9.6484 39.095 L5.1328 39.095 L5.1328 43.1263 L4.1328 43.1263 L4.1328 34.5638 L5.1328 34.5638 L5.1328 38.2044 L9.6484 38.2044 L9.6484 34.5638 L10.6484 34.5638 L10.6484 43.1263 Z"/><path style="fill:none; stroke:black;" d="M59.5 12.99 L60 12.99 L60.25 13.423"/><path style="fill:none; stroke:black;" d="M-15.25 -64.52 L-15 -64.953 L-15.25 -65.386"/><path style="fill:rgb(230,0,0); stroke:none;" d="M-56.0625 -39.0403 Q-56.0625 -36.9778 -57.1016 -35.7981 Q-58.1406 -34.6184 -59.9844 -34.6184 Q-61.875 -34.6184 -62.9062 -35.7825 Q-63.9375 -36.9466 -63.9375 -39.0559 Q-63.9375 -41.1497 -62.9062 -42.2981 Q-61.875 -43.4466 -59.9844 -43.4466 Q-58.125 -43.4466 -57.0938 -42.2747 Q-56.0625 -41.1028 -56.0625 -39.0403 ZM-62.8906 -39.0403 Q-62.8906 -37.3059 -62.1484 -36.3997 Q-61.4062 -35.4934 -59.9844 -35.4934 Q-58.5625 -35.4934 -57.8359 -36.3919 Q-57.1094 -37.2903 -57.1094 -39.0403 Q-57.1094 -40.7747 -57.8359 -41.6653 Q-58.5625 -42.5559 -59.9844 -42.5559 Q-61.4062 -42.5559 -62.1484 -41.6575 Q-62.8906 -40.7591 -62.8906 -39.0403 Z"/><path style="fill:rgb(230,0,0); stroke:none;" d="M-64.9375 -34.7434 L-65.9375 -34.7434 L-65.9375 -38.7747 L-70.4531 -38.7747 L-70.4531 -34.7434 L-71.4531 -34.7434 L-71.4531 -43.3059 L-70.4531 -43.3059 L-70.4531 -39.6653 L-65.9375 -39.6653 L-65.9375 -43.3059 L-64.9375 -43.3059 L-64.9375 -34.7434 Z"/><path style="fill:none; stroke:black;" d="M29.75 64.52 L30 64.953 L29.75 65.386"/><path transform="translate(-1.5155,0.875)" style="fill:rgb(230,0,0); stroke:none;" d="M78.9375 38.8997 Q78.9375 40.9622 77.8984 42.1419 Q76.8594 43.3216 75.0156 43.3216 Q73.125 43.3216 72.0938 42.1575 Q71.0625 40.9934 71.0625 38.8841 Q71.0625 36.7903 72.0938 35.6419 Q73.125 34.4934 75.0156 34.4934 Q76.875 34.4934 77.9062 35.6653 Q78.9375 36.8372 78.9375 38.8997 ZM72.1094 38.8997 Q72.1094 40.6341 72.8516 41.5403 Q73.5938 42.4466 75.0156 42.4466 Q76.4375 42.4466 77.1641 41.5481 Q77.8906 40.6497 77.8906 38.8997 Q77.8906 37.1653 77.1641 36.2747 Q76.4375 35.3841 75.0156 35.3841 Q73.5938 35.3841 72.8516 36.2825 Q72.1094 37.1809 72.1094 38.8997 Z"/></g><g transform="matrix(1,0,0,1,164,98)" style="stroke-linecap:butt; fill:rgb(230,0,0); text-rendering:geometricPrecision; color-rendering:optimizeQuality; image-rendering:optimizeQuality; font-family:'Open Sans'; stroke:rgb(230,0,0); color-interpolation:linearRGB; stroke-miterlimit:5;"><path style="stroke:none;" d="M-26.0625 -91.0033 Q-26.0625 -88.9408 -27.1016 -87.7611 Q-28.1406 -86.5814 -29.9844 -86.5814 Q-31.875 -86.5814 -32.9062 -87.7455 Q-33.9375 -88.9096 -33.9375 -91.0189 Q-33.9375 -93.1127 -32.9062 -94.2611 Q-31.875 -95.4096 -29.9844 -95.4096 Q-28.125 -95.4096 -27.0938 -94.2377 Q-26.0625 -93.0658 -26.0625 -91.0033 ZM-32.8906 -91.0033 Q-32.8906 -89.2689 -32.1484 -88.3627 Q-31.4062 -87.4564 -29.9844 -87.4564 Q-28.5625 -87.4564 -27.8359 -88.3549 Q-27.1094 -89.2533 -27.1094 -91.0033 Q-27.1094 -92.7377 -27.8359 -93.6283 Q-28.5625 -94.5189 -29.9844 -94.5189 Q-31.4062 -94.5189 -32.1484 -93.6205 Q-32.8906 -92.7221 -32.8906 -91.0033 Z"/><path style="stroke:none;" d="M-34.9375 -86.7064 L-35.9375 -86.7064 L-35.9375 -90.7377 L-40.4531 -90.7377 L-40.4531 -86.7064 L-41.4531 -86.7064 L-41.4531 -95.2689 L-40.4531 -95.2689 L-40.4531 -91.6283 L-35.9375 -91.6283 L-35.9375 -95.2689 L-34.9375 -95.2689 L-34.9375 -86.7064 Z"/><path style="stroke:none;" d="M63.9375 64.8827 Q63.9375 66.9452 62.8984 68.1249 Q61.8594 69.3046 60.0156 69.3046 Q58.125 69.3046 57.0938 68.1405 Q56.0625 66.9764 56.0625 64.8671 Q56.0625 62.7733 57.0938 61.6249 Q58.125 60.4764 60.0156 60.4764 Q61.875 60.4764 62.9062 61.6483 Q63.9375 62.8202 63.9375 64.8827 ZM57.1094 64.8827 Q57.1094 66.6171 57.8516 67.5233 Q58.5938 68.4296 60.0156 68.4296 Q61.4375 68.4296 62.1641 67.5311 Q62.8906 66.6327 62.8906 64.8827 Q62.8906 63.1483 62.1641 62.2577 Q61.4375 61.3671 60.0156 61.3671 Q58.5938 61.3671 57.8516 62.2655 Q57.1094 63.1639 57.1094 64.8827 Z"/><path style="stroke:none;" d="M63.9375 -91.0033 Q63.9375 -88.9408 62.8984 -87.7611 Q61.8594 -86.5814 60.0156 -86.5814 Q58.125 -86.5814 57.0938 -87.7455 Q56.0625 -88.9096 56.0625 -91.0189 Q56.0625 -93.1127 57.0938 -94.2611 Q58.125 -95.4096 60.0156 -95.4096 Q61.875 -95.4096 62.9062 -94.2377 Q63.9375 -93.0658 63.9375 -91.0033 ZM57.1094 -91.0033 Q57.1094 -89.2689 57.8516 -88.3627 Q58.5938 -87.4564 60.0156 -87.4564 Q61.4375 -87.4564 62.1641 -88.3549 Q62.8906 -89.2533 62.8906 -91.0033 Q62.8906 -92.7377 62.1641 -93.6283 Q61.4375 -94.5189 60.0156 -94.5189 Q58.5938 -94.5189 57.8516 -93.6205 Q57.1094 -92.7221 57.1094 -91.0033 Z"/><path style="stroke:none;" d="M55.0625 -86.7064 L54.0625 -86.7064 L54.0625 -90.7377 L49.5469 -90.7377 L49.5469 -86.7064 L48.5469 -86.7064 L48.5469 -95.2689 L49.5469 -95.2689 L49.5469 -91.6283 L54.0625 -91.6283 L54.0625 -95.2689 L55.0625 -95.2689 L55.0625 -86.7064 Z"/><path style="stroke:none;" d="M-56.0625 64.8827 Q-56.0625 66.9452 -57.1016 68.1249 Q-58.1406 69.3046 -59.9844 69.3046 Q-61.875 69.3046 -62.9062 68.1405 Q-63.9375 66.9764 -63.9375 64.8671 Q-63.9375 62.7733 -62.9062 61.6249 Q-61.875 60.4764 -59.9844 60.4764 Q-58.125 60.4764 -57.0938 61.6483 Q-56.0625 62.8202 -56.0625 64.8827 ZM-62.8906 64.8827 Q-62.8906 66.6171 -62.1484 67.5233 Q-61.4062 68.4296 -59.9844 68.4296 Q-58.5625 68.4296 -57.8359 67.5311 Q-57.1094 66.6327 -57.1094 64.8827 Q-57.1094 63.1483 -57.8359 62.2577 Q-58.5625 61.3671 -59.9844 61.3671 Q-61.4062 61.3671 -62.1484 62.2655 Q-62.8906 63.1639 -62.8906 64.8827 Z"/><path style="stroke:none;" d="M-48.5469 69.1796 L-49.5469 69.1796 L-49.5469 65.1483 L-54.0625 65.1483 L-54.0625 69.1796 L-55.0625 69.1796 L-55.0625 60.6171 L-54.0625 60.6171 L-54.0625 64.2577 L-49.5469 64.2577 L-49.5469 60.6171 L-48.5469 60.6171 L-48.5469 69.1796 Z"/><path style="stroke:none;" d="M123.9375 -91.0033 Q123.9375 -88.9408 122.8984 -87.7611 Q121.8594 -86.5814 120.0156 -86.5814 Q118.125 -86.5814 117.0938 -87.7455 Q116.0625 -88.9096 116.0625 -91.0189 Q116.0625 -93.1127 117.0938 -94.2611 Q118.125 -95.4096 120.0156 -95.4096 Q121.875 -95.4096 122.9062 -94.2377 Q123.9375 -93.0658 123.9375 -91.0033 ZM117.1094 -91.0033 Q117.1094 -89.2689 117.8516 -88.3627 Q118.5938 -87.4564 120.0156 -87.4564 Q121.4375 -87.4564 122.1641 -88.3549 Q122.8906 -89.2533 122.8906 -91.0033 Q122.8906 -92.7377 122.1641 -93.6283 Q121.4375 -94.5189 120.0156 -94.5189 Q118.5938 -94.5189 117.8516 -93.6205 Q117.1094 -92.7221 117.1094 -91.0033 Z"/><path style="stroke:none;" d="M131.4531 -86.7064 L130.4531 -86.7064 L130.4531 -90.7377 L125.9375 -90.7377 L125.9375 -86.7064 L124.9375 -86.7064 L124.9375 -95.2689 L125.9375 -95.2689 L125.9375 -91.6283 L130.4531 -91.6283 L130.4531 -95.2689 L131.4531 -95.2689 L131.4531 -86.7064 Z"/><path style="stroke:none;" d="M-146.0625 -39.0403 Q-146.0625 -36.9778 -147.1016 -35.7981 Q-148.1406 -34.6184 -149.9844 -34.6184 Q-151.875 -34.6184 -152.9062 -35.7825 Q-153.9375 -36.9466 -153.9375 -39.0559 Q-153.9375 -41.1497 -152.9062 -42.2981 Q-151.875 -43.4466 -149.9844 -43.4466 Q-148.125 -43.4466 -147.0938 -42.2747 Q-146.0625 -41.1028 -146.0625 -39.0403 ZM-152.8906 -39.0403 Q-152.8906 -37.3059 -152.1484 -36.3997 Q-151.4062 -35.4934 -149.9844 -35.4934 Q-148.5625 -35.4934 -147.8359 -36.3919 Q-147.1094 -37.2903 -147.1094 -39.0403 Q-147.1094 -40.7747 -147.8359 -41.6653 Q-148.5625 -42.5559 -149.9844 -42.5559 Q-151.4062 -42.5559 -152.1484 -41.6575 Q-152.8906 -40.7591 -152.8906 -39.0403 Z"/><path style="stroke:none;" d="M-154.9375 -34.7434 L-155.9375 -34.7434 L-155.9375 -38.7747 L-160.4531 -38.7747 L-160.4531 -34.7434 L-161.4531 -34.7434 L-161.4531 -43.3059 L-160.4531 -43.3059 L-160.4531 -39.6653 L-155.9375 -39.6653 L-155.9375 -43.3059 L-154.9375 -43.3059 L-154.9375 -34.7434 Z"/><path style="stroke:none;" d="M-116.0625 64.8827 Q-116.0625 66.9452 -117.1016 68.1249 Q-118.1406 69.3046 -119.9844 69.3046 Q-121.875 69.3046 -122.9062 68.1405 Q-123.9375 66.9764 -123.9375 64.8671 Q-123.9375 62.7733 -122.9062 61.6249 Q-121.875 60.4764 -119.9844 60.4764 Q-118.125 60.4764 -117.0938 61.6483 Q-116.0625 62.8202 -116.0625 64.8827 ZM-122.8906 64.8827 Q-122.8906 66.6171 -122.1484 67.5233 Q-121.4062 68.4296 -119.9844 68.4296 Q-118.5625 68.4296 -117.8359 67.5311 Q-117.1094 66.6327 -117.1094 64.8827 Q-117.1094 63.1483 -117.8359 62.2577 Q-118.5625 61.3671 -119.9844 61.3671 Q-121.4062 61.3671 -122.1484 62.2655 Q-122.8906 63.1639 -122.8906 64.8827 Z"/><path style="stroke:none;" d="M-124.9375 69.1796 L-125.9375 69.1796 L-125.9375 65.1483 L-130.4531 65.1483 L-130.4531 69.1796 L-131.4531 69.1796 L-131.4531 60.6171 L-130.4531 60.6171 L-130.4531 64.2577 L-125.9375 64.2577 L-125.9375 60.6171 L-124.9375 60.6171 L-124.9375 69.1796 Z"/><path style="stroke:none;" d="M153.9375 -39.0403 Q153.9375 -36.9778 152.8984 -35.7981 Q151.8594 -34.6184 150.0156 -34.6184 Q148.125 -34.6184 147.0938 -35.7825 Q146.0625 -36.9466 146.0625 -39.0559 Q146.0625 -41.1497 147.0938 -42.2981 Q148.125 -43.4466 150.0156 -43.4466 Q151.875 -43.4466 152.9062 -42.2747 Q153.9375 -41.1028 153.9375 -39.0403 ZM147.1094 -39.0403 Q147.1094 -37.3059 147.8516 -36.3997 Q148.5938 -35.4934 150.0156 -35.4934 Q151.4375 -35.4934 152.1641 -36.3919 Q152.8906 -37.2903 152.8906 -39.0403 Q152.8906 -40.7747 152.1641 -41.6653 Q151.4375 -42.5559 150.0156 -42.5559 Q148.5938 -42.5559 147.8516 -41.6575 Q147.1094 -40.7591 147.1094 -39.0403 Z"/><path style="stroke:none;" d="M161.4531 -34.7434 L160.4531 -34.7434 L160.4531 -38.7747 L155.9375 -38.7747 L155.9375 -34.7434 L154.9375 -34.7434 L154.9375 -43.3059 L155.9375 -43.3059 L155.9375 -39.6653 L160.4531 -39.6653 L160.4531 -43.3059 L161.4531 -43.3059 L161.4531 -34.7434 Z"/><path style="stroke:none;" d="M-146.0625 12.9197 Q-146.0625 14.9822 -147.1016 16.1619 Q-148.1406 17.3416 -149.9844 17.3416 Q-151.875 17.3416 -152.9062 16.1775 Q-153.9375 15.0134 -153.9375 12.9041 Q-153.9375 10.8103 -152.9062 9.6619 Q-151.875 8.5134 -149.9844 8.5134 Q-148.125 8.5134 -147.0938 9.6853 Q-146.0625 10.8572 -146.0625 12.9197 ZM-152.8906 12.9197 Q-152.8906 14.6541 -152.1484 15.5603 Q-151.4062 16.4666 -149.9844 16.4666 Q-148.5625 16.4666 -147.8359 15.5681 Q-147.1094 14.6697 -147.1094 12.9197 Q-147.1094 11.1853 -147.8359 10.2947 Q-148.5625 9.4041 -149.9844 9.4041 Q-151.4062 9.4041 -152.1484 10.3025 Q-152.8906 11.2009 -152.8906 12.9197 Z"/><path style="stroke:none;" d="M-154.9375 17.2166 L-155.9375 17.2166 L-155.9375 13.1853 L-160.4531 13.1853 L-160.4531 17.2166 L-161.4531 17.2166 L-161.4531 8.6541 L-160.4531 8.6541 L-160.4531 12.2947 L-155.9375 12.2947 L-155.9375 8.6541 L-154.9375 8.6541 L-154.9375 17.2166 Z"/></g><g transform="matrix(1,0,0,1,164,98)" style="stroke-linecap:butt; font-size:8.4px; fill:gray; text-rendering:geometricPrecision; image-rendering:optimizeQuality; color-rendering:optimizeQuality; font-family:'Open Sans'; font-style:italic; stroke:gray; color-interpolation:linearRGB; stroke-miterlimit:5;"><path style="stroke:none;" d="M50.891 -46.4269 Q50.891 -47.755 51.3598 -48.88 Q51.8285 -50.005 52.8598 -51.0831 L53.4692 -51.0831 Q52.5004 -50.0206 52.016 -48.8488 Q51.5317 -47.6769 51.5317 -46.4425 Q51.5317 -45.1144 51.9692 -44.0988 L51.4535 -44.0988 Q50.891 -45.13 50.891 -46.4269 ZM56.5136 -47.0206 Q56.5136 -46.1925 55.9667 -45.7394 Q55.4199 -45.2863 54.4199 -45.2863 Q54.0136 -45.2863 53.7011 -45.3409 Q53.3886 -45.3956 53.1074 -45.5363 L53.1074 -46.1925 Q53.7324 -45.8644 54.4355 -45.8644 Q55.0605 -45.8644 55.4355 -46.1613 Q55.8105 -46.4581 55.8105 -46.9738 Q55.8105 -47.2863 55.6074 -47.5128 Q55.4042 -47.7394 54.8417 -48.0675 Q54.248 -48.3956 54.0214 -48.7238 Q53.7949 -49.0519 53.7949 -49.505 Q53.7949 -50.2394 54.3105 -50.7003 Q54.8261 -51.1613 55.6699 -51.1613 Q56.0449 -51.1613 56.3808 -51.0831 Q56.7167 -51.005 57.0917 -50.8331 L56.8261 -50.2394 Q56.5761 -50.3956 56.2558 -50.4816 Q55.9355 -50.5675 55.6699 -50.5675 Q55.1386 -50.5675 54.8183 -50.2941 Q54.498 -50.0206 54.498 -49.5519 Q54.498 -49.3488 54.5683 -49.2003 Q54.6386 -49.0519 54.7792 -48.9191 Q54.9199 -48.7863 55.3417 -48.5363 Q55.9042 -48.1925 56.1074 -47.9972 Q56.3105 -47.8019 56.412 -47.5675 Q56.5136 -47.3331 56.5136 -47.0206 ZM59.1081 -48.7394 Q59.1081 -47.4113 58.6315 -46.2784 Q58.155 -45.1456 57.1393 -44.0988 L56.53 -44.0988 Q58.4675 -46.255 58.4675 -48.7394 Q58.4675 -50.0675 58.03 -51.0831 L58.5456 -51.0831 Q59.1081 -50.0206 59.1081 -48.7394 Z"/><path style="stroke:none;" d="M75.8914 -72.4102 Q75.8914 -73.7383 76.3601 -74.8633 Q76.8289 -75.9883 77.8601 -77.0664 L78.4695 -77.0664 Q77.5007 -76.0039 77.0164 -74.8321 Q76.532 -73.6602 76.532 -72.4258 Q76.532 -71.0977 76.9695 -70.0821 L76.4539 -70.0821 Q75.8914 -71.1133 75.8914 -72.4102 ZM81.5139 -73.0039 Q81.5139 -72.1758 80.9671 -71.7227 Q80.4202 -71.2696 79.4202 -71.2696 Q79.0139 -71.2696 78.7014 -71.3243 Q78.3889 -71.3789 78.1077 -71.5196 L78.1077 -72.1758 Q78.7327 -71.8477 79.4358 -71.8477 Q80.0608 -71.8477 80.4358 -72.1446 Q80.8108 -72.4414 80.8108 -72.9571 Q80.8108 -73.2696 80.6077 -73.4961 Q80.4046 -73.7227 79.8421 -74.0508 Q79.2483 -74.3789 79.0217 -74.7071 Q78.7952 -75.0352 78.7952 -75.4883 Q78.7952 -76.2227 79.3108 -76.6836 Q79.8264 -77.1446 80.6702 -77.1446 Q81.0452 -77.1446 81.3811 -77.0664 Q81.7171 -76.9883 82.0921 -76.8164 L81.8264 -76.2227 Q81.5764 -76.3789 81.2561 -76.4649 Q80.9358 -76.5508 80.6702 -76.5508 Q80.1389 -76.5508 79.8186 -76.2774 Q79.4983 -76.0039 79.4983 -75.5352 Q79.4983 -75.3321 79.5686 -75.1836 Q79.6389 -75.0352 79.7796 -74.9024 Q79.9202 -74.7696 80.3421 -74.5196 Q80.9046 -74.1758 81.1077 -73.9805 Q81.3108 -73.7852 81.4124 -73.5508 Q81.5139 -73.3164 81.5139 -73.0039 ZM84.1084 -74.7227 Q84.1084 -73.3946 83.6319 -72.2618 Q83.1553 -71.1289 82.1397 -70.0821 L81.5303 -70.0821 Q83.4678 -72.2383 83.4678 -74.7227 Q83.4678 -76.0508 83.0303 -77.0664 L83.5459 -77.0664 Q84.1084 -76.0039 84.1084 -74.7227 Z"/></g><g transform="matrix(1,0,0,1,164,98)" style="stroke-linecap:butt; fill:rgb(230,0,0); text-rendering:geometricPrecision; color-rendering:optimizeQuality; image-rendering:optimizeQuality; font-family:'Open Sans'; stroke:rgb(230,0,0); color-interpolation:linearRGB; stroke-miterlimit:5;"><path style="stroke:none;" d="M78.9375 -13.0603 Q78.9375 -10.9978 77.8984 -9.8181 Q76.8594 -8.6384 75.0156 -8.6384 Q73.125 -8.6384 72.0938 -9.8025 Q71.0625 -10.9666 71.0625 -13.0759 Q71.0625 -15.1697 72.0938 -16.3181 Q73.125 -17.4666 75.0156 -17.4666 Q76.875 -17.4666 77.9062 -16.2947 Q78.9375 -15.1228 78.9375 -13.0603 ZM72.1094 -13.0603 Q72.1094 -11.3259 72.8516 -10.4197 Q73.5938 -9.5134 75.0156 -9.5134 Q76.4375 -9.5134 77.1641 -10.4119 Q77.8906 -11.3103 77.8906 -13.0603 Q77.8906 -14.7947 77.1641 -15.6853 Q76.4375 -16.5759 75.0156 -16.5759 Q73.5938 -16.5759 72.8516 -15.6775 Q72.1094 -14.7791 72.1094 -13.0603 Z"/><path style="fill:none; stroke:black;" d="M104.5 -64.953 L105 -64.953 L105.25 -64.52"/></g><g transform="matrix(1,0,0,1,164,98)" style="stroke-linecap:butt; font-size:8.4px; fill:gray; text-rendering:geometricPrecision; image-rendering:optimizeQuality; color-rendering:optimizeQuality; font-family:'Open Sans'; font-style:italic; stroke:gray; color-interpolation:linearRGB; stroke-miterlimit:5;"><path style="stroke:none;" d="M95.6114 -72.4492 Q95.6114 -73.7773 96.0801 -74.9023 Q96.5489 -76.0273 97.5801 -77.1054 L98.1895 -77.1054 Q97.2207 -76.0429 96.7364 -74.8711 Q96.252 -73.6992 96.252 -72.4648 Q96.252 -71.1367 96.6895 -70.1211 L96.1739 -70.1211 Q95.6114 -71.1523 95.6114 -72.4492 ZM99.1714 -73.7617 L98.6714 -71.3867 L98.0152 -71.3867 L99.2183 -77.1054 L100.4683 -77.1054 Q102.2027 -77.1054 102.2027 -75.6679 Q102.2027 -74.3086 100.7652 -73.9179 L101.7027 -71.3867 L100.9839 -71.3867 L100.1558 -73.7617 L99.1714 -73.7617 ZM99.7495 -76.5117 Q99.3589 -74.5898 99.2964 -74.3398 L99.9527 -74.3398 Q100.7027 -74.3398 101.1089 -74.6679 Q101.5152 -74.9961 101.5152 -75.6211 Q101.5152 -76.0898 101.2574 -76.3008 Q100.9995 -76.5117 100.4058 -76.5117 L99.7495 -76.5117 ZM104.3886 -74.7617 Q104.3886 -73.4336 103.9121 -72.3008 Q103.4355 -71.1679 102.4199 -70.1211 L101.8105 -70.1211 Q103.748 -72.2773 103.748 -74.7617 Q103.748 -76.0898 103.3105 -77.1054 L103.8261 -77.1054 Q104.3886 -76.0429 104.3886 -74.7617 Z"/><path style="fill:none; stroke:black;" d="M104.5 -12.99 L105 -12.99 L105.25 -13.423"/><path style="stroke:none;" d="M95.8917 -20.4473 Q95.8917 -21.7754 96.3605 -22.9004 Q96.8292 -24.0254 97.8605 -25.1035 L98.4698 -25.1035 Q97.5011 -24.041 97.0167 -22.8691 Q96.5323 -21.6973 96.5323 -20.4629 Q96.5323 -19.1348 96.9698 -18.1191 L96.4542 -18.1191 Q95.8917 -19.1504 95.8917 -20.4473 ZM101.5143 -21.041 Q101.5143 -20.2129 100.9674 -19.7598 Q100.4205 -19.3066 99.4205 -19.3066 Q99.0143 -19.3066 98.7018 -19.3613 Q98.3893 -19.416 98.108 -19.5566 L98.108 -20.2129 Q98.733 -19.8848 99.4361 -19.8848 Q100.0611 -19.8848 100.4361 -20.1816 Q100.8111 -20.4785 100.8111 -20.9941 Q100.8111 -21.3066 100.608 -21.5332 Q100.4049 -21.7598 99.8424 -22.0879 Q99.2486 -22.416 99.0221 -22.7441 Q98.7955 -23.0723 98.7955 -23.5254 Q98.7955 -24.2598 99.3111 -24.7207 Q99.8268 -25.1816 100.6705 -25.1816 Q101.0455 -25.1816 101.3814 -25.1035 Q101.7174 -25.0254 102.0924 -24.8535 L101.8268 -24.2598 Q101.5768 -24.416 101.2564 -24.5019 Q100.9361 -24.5879 100.6705 -24.5879 Q100.1393 -24.5879 99.8189 -24.3144 Q99.4986 -24.041 99.4986 -23.5723 Q99.4986 -23.3691 99.5689 -23.2207 Q99.6393 -23.0723 99.7799 -22.9394 Q99.9205 -22.8066 100.3424 -22.5566 Q100.9049 -22.2129 101.108 -22.0176 Q101.3111 -21.8223 101.4127 -21.5879 Q101.5143 -21.3535 101.5143 -21.041 ZM104.1087 -22.7598 Q104.1087 -21.4316 103.6322 -20.2988 Q103.1556 -19.166 102.14 -18.1191 L101.5306 -18.1191 Q103.4681 -20.2754 103.4681 -22.7598 Q103.4681 -24.0879 103.0306 -25.1035 L103.5462 -25.1035 Q104.1087 -24.041 104.1087 -22.7598 Z"/><path style="fill:none; stroke:black;" d="M119.75 -39.403 L120 -38.97 L119.75 -38.537"/><path style="stroke:none;" d="M120.8914 -46.4272 Q120.8914 -47.7553 121.3601 -48.8803 Q121.8289 -50.0053 122.8601 -51.0834 L123.4695 -51.0834 Q122.5007 -50.0209 122.0164 -48.8491 Q121.532 -47.6772 121.532 -46.4428 Q121.532 -45.1147 121.9695 -44.0991 L121.4539 -44.0991 Q120.8914 -45.1303 120.8914 -46.4272 ZM126.5139 -47.0209 Q126.5139 -46.1928 125.9671 -45.7397 Q125.4202 -45.2866 124.4202 -45.2866 Q124.0139 -45.2866 123.7014 -45.3413 Q123.3889 -45.3959 123.1077 -45.5366 L123.1077 -46.1928 Q123.7327 -45.8647 124.4358 -45.8647 Q125.0608 -45.8647 125.4358 -46.1616 Q125.8108 -46.4584 125.8108 -46.9741 Q125.8108 -47.2866 125.6077 -47.5131 Q125.4046 -47.7397 124.8421 -48.0678 Q124.2483 -48.3959 124.0217 -48.7241 Q123.7952 -49.0522 123.7952 -49.5053 Q123.7952 -50.2397 124.3108 -50.7006 Q124.8264 -51.1616 125.6702 -51.1616 Q126.0452 -51.1616 126.3811 -51.0834 Q126.7171 -51.0053 127.0921 -50.8334 L126.8264 -50.2397 Q126.5764 -50.3959 126.2561 -50.4819 Q125.9358 -50.5678 125.6702 -50.5678 Q125.1389 -50.5678 124.8186 -50.2944 Q124.4983 -50.0209 124.4983 -49.5522 Q124.4983 -49.3491 124.5686 -49.2006 Q124.6389 -49.0522 124.7796 -48.9194 Q124.9202 -48.7866 125.3421 -48.5366 Q125.9046 -48.1928 126.1077 -47.9975 Q126.3108 -47.8022 126.4124 -47.5678 Q126.5139 -47.3334 126.5139 -47.0209 ZM129.1084 -48.7397 Q129.1084 -47.4116 128.6319 -46.2788 Q128.1553 -45.1459 127.1397 -44.0991 L126.5303 -44.0991 Q128.4678 -46.2553 128.4678 -48.7397 Q128.4678 -50.0678 128.0303 -51.0834 L128.5459 -51.0834 Q129.1084 -50.0209 129.1084 -48.7397 Z"/><path style="stroke:none;" d="M-59.1084 5.5329 Q-59.1084 4.2048 -58.6397 3.0798 Q-58.1709 1.9548 -57.1397 0.8767 L-56.5303 0.8767 Q-57.499 1.9392 -57.9834 3.1111 Q-58.4678 4.2829 -58.4678 5.5173 Q-58.4678 6.8454 -58.0303 7.8611 L-58.5459 7.8611 Q-59.1084 6.8298 -59.1084 5.5329 ZM-53.4859 4.9392 Q-53.4859 5.7673 -54.0327 6.2204 Q-54.5796 6.6736 -55.5796 6.6736 Q-55.9859 6.6736 -56.2984 6.6189 Q-56.6109 6.5642 -56.8921 6.4236 L-56.8921 5.7673 Q-56.2671 6.0954 -55.564 6.0954 Q-54.939 6.0954 -54.564 5.7986 Q-54.189 5.5017 -54.189 4.9861 Q-54.189 4.6736 -54.3921 4.447 Q-54.5952 4.2204 -55.1577 3.8923 Q-55.7515 3.5642 -55.978 3.2361 Q-56.2046 2.9079 -56.2046 2.4548 Q-56.2046 1.7204 -55.689 1.2595 Q-55.1734 0.7986 -54.3296 0.7986 Q-53.9546 0.7986 -53.6187 0.8767 Q-53.2827 0.9548 -52.9077 1.1267 L-53.1734 1.7204 Q-53.4234 1.5642 -53.7437 1.4782 Q-54.064 1.3923 -54.3296 1.3923 Q-54.8609 1.3923 -55.1812 1.6657 Q-55.5015 1.9392 -55.5015 2.4079 Q-55.5015 2.6111 -55.4312 2.7595 Q-55.3609 2.9079 -55.2202 3.0407 Q-55.0796 3.1736 -54.6577 3.4236 Q-54.0952 3.7673 -53.8921 3.9626 Q-53.689 4.1579 -53.5874 4.3923 Q-53.4859 4.6267 -53.4859 4.9392 ZM-50.8914 3.2204 Q-50.8914 4.5486 -51.3679 5.6814 Q-51.8445 6.8142 -52.8601 7.8611 L-53.4695 7.8611 Q-51.532 5.7048 -51.532 3.2204 Q-51.532 1.8923 -51.9695 0.8767 L-51.4539 0.8767 Q-50.8914 1.9392 -50.8914 3.2204 Z"/></g><g transform="matrix(1,0,0,1,164,98)" style="stroke-linecap:butt; fill:rgb(230,0,0); text-rendering:geometricPrecision; color-rendering:optimizeQuality; image-rendering:optimizeQuality; font-family:'Open Sans'; stroke:rgb(230,0,0); color-interpolation:linearRGB; stroke-miterlimit:5;"><path style="stroke:none;" d="M-71.0625 -13.0603 Q-71.0625 -10.9978 -72.1016 -9.8181 Q-73.1406 -8.6384 -74.9844 -8.6384 Q-76.875 -8.6384 -77.9062 -9.8025 Q-78.9375 -10.9666 -78.9375 -13.0759 Q-78.9375 -15.1697 -77.9062 -16.3181 Q-76.875 -17.4666 -74.9844 -17.4666 Q-73.125 -17.4666 -72.0938 -16.2947 Q-71.0625 -15.1228 -71.0625 -13.0603 ZM-77.8906 -13.0603 Q-77.8906 -11.3259 -77.1484 -10.4197 Q-76.4062 -9.5134 -74.9844 -9.5134 Q-73.5625 -9.5134 -72.8359 -10.4119 Q-72.1094 -11.3103 -72.1094 -13.0603 Q-72.1094 -14.7947 -72.8359 -15.6853 Q-73.5625 -16.5759 -74.9844 -16.5759 Q-76.4062 -16.5759 -77.1484 -15.6775 Q-77.8906 -14.7791 -77.8906 -13.0603 Z"/><path style="fill:none; stroke:black;" d="M-74.75 38.537 L-75 38.97 L-75.5 38.97"/></g><g transform="matrix(1,0,0,1,164,98)" style="stroke-linecap:butt; font-size:8.4px; fill:gray; text-rendering:geometricPrecision; image-rendering:optimizeQuality; color-rendering:optimizeQuality; font-family:'Open Sans'; font-style:italic; stroke:gray; color-interpolation:linearRGB; stroke-miterlimit:5;"><path style="stroke:none;" d="M-84.3886 31.4738 Q-84.3886 30.1457 -83.9199 29.0207 Q-83.4511 27.8957 -82.4199 26.8176 L-81.8105 26.8176 Q-82.7793 27.8801 -83.2636 29.0519 Q-83.748 30.2238 -83.748 31.4582 Q-83.748 32.7863 -83.3105 33.8019 L-83.8261 33.8019 Q-84.3886 32.7707 -84.3886 31.4738 ZM-80.8286 30.1613 L-81.3286 32.5363 L-81.9848 32.5363 L-80.7817 26.8176 L-79.5317 26.8176 Q-77.7973 26.8176 -77.7973 28.2551 Q-77.7973 29.6144 -79.2348 30.0051 L-78.2973 32.5363 L-79.0161 32.5363 L-79.8442 30.1613 L-80.8286 30.1613 ZM-80.2505 27.4113 Q-80.6411 29.3332 -80.7036 29.5832 L-80.0473 29.5832 Q-79.2973 29.5832 -78.8911 29.2551 Q-78.4848 28.9269 -78.4848 28.3019 Q-78.4848 27.8332 -78.7426 27.6222 Q-79.0005 27.4113 -79.5942 27.4113 L-80.2505 27.4113 ZM-75.6114 29.1613 Q-75.6114 30.4894 -76.0879 31.6222 Q-76.5645 32.7551 -77.5801 33.8019 L-78.1895 33.8019 Q-76.252 31.6457 -76.252 29.1613 Q-76.252 27.8332 -76.6895 26.8176 L-76.1739 26.8176 Q-75.6114 27.8801 -75.6114 29.1613 Z"/><path style="stroke:none;" d="M-104.3885 -20.4861 Q-104.3885 -21.8143 -103.9198 -22.9393 Q-103.451 -24.0643 -102.4198 -25.1424 L-101.8104 -25.1424 Q-102.7792 -24.0799 -103.2635 -22.908 Q-103.7479 -21.7361 -103.7479 -20.5018 Q-103.7479 -19.1736 -103.3104 -18.158 L-103.826 -18.158 Q-104.3885 -19.1893 -104.3885 -20.4861 ZM-100.8285 -21.7986 L-101.3285 -19.4236 L-101.9847 -19.4236 L-100.7816 -25.1424 L-99.5316 -25.1424 Q-97.7972 -25.1424 -97.7972 -23.7049 Q-97.7972 -22.3455 -99.2347 -21.9549 L-98.2972 -19.4236 L-99.016 -19.4236 L-99.8441 -21.7986 L-100.8285 -21.7986 ZM-100.2504 -24.5486 Q-100.641 -22.6268 -100.7035 -22.3768 L-100.0472 -22.3768 Q-99.2972 -22.3768 -98.891 -22.7049 Q-98.4847 -23.033 -98.4847 -23.658 Q-98.4847 -24.1268 -98.7425 -24.3377 Q-99.0004 -24.5486 -99.5941 -24.5486 L-100.2504 -24.5486 ZM-95.6113 -22.7986 Q-95.6113 -21.4705 -96.0878 -20.3377 Q-96.5644 -19.2049 -97.58 -18.158 L-98.1894 -18.158 Q-96.2519 -20.3143 -96.2519 -22.7986 Q-96.2519 -24.1268 -96.6894 -25.1424 L-96.1738 -25.1424 Q-95.6113 -24.0799 -95.6113 -22.7986 Z"/><path style="stroke:none;" d="M-104.1086 31.5128 Q-104.1086 30.1847 -103.6399 29.0597 Q-103.1711 27.9347 -102.1399 26.8566 L-101.5305 26.8566 Q-102.4993 27.9191 -102.9836 29.0909 Q-103.468 30.2628 -103.468 31.4972 Q-103.468 32.8253 -103.0305 33.8409 L-103.5461 33.8409 Q-104.1086 32.8097 -104.1086 31.5128 ZM-98.4861 30.9191 Q-98.4861 31.7472 -99.0329 32.2003 Q-99.5798 32.6534 -100.5798 32.6534 Q-100.9861 32.6534 -101.2986 32.5987 Q-101.6111 32.5441 -101.8923 32.4034 L-101.8923 31.7472 Q-101.2673 32.0753 -100.5642 32.0753 Q-99.9392 32.0753 -99.5642 31.7784 Q-99.1892 31.4816 -99.1892 30.9659 Q-99.1892 30.6534 -99.3923 30.4269 Q-99.5954 30.2003 -100.1579 29.8722 Q-100.7517 29.5441 -100.9783 29.2159 Q-101.2048 28.8878 -101.2048 28.4347 Q-101.2048 27.7003 -100.6892 27.2394 Q-100.1736 26.7784 -99.3298 26.7784 Q-98.9548 26.7784 -98.6189 26.8566 Q-98.2829 26.9347 -97.9079 27.1066 L-98.1736 27.7003 Q-98.4236 27.5441 -98.7439 27.4581 Q-99.0642 27.3722 -99.3298 27.3722 Q-99.8611 27.3722 -100.1814 27.6456 Q-100.5017 27.9191 -100.5017 28.3878 Q-100.5017 28.5909 -100.4314 28.7394 Q-100.3611 28.8878 -100.2204 29.0206 Q-100.0798 29.1534 -99.6579 29.4034 Q-99.0954 29.7472 -98.8923 29.9425 Q-98.6892 30.1378 -98.5876 30.3722 Q-98.4861 30.6066 -98.4861 30.9191 ZM-95.8916 29.2003 Q-95.8916 30.5284 -96.3681 31.6612 Q-96.8447 32.7941 -97.8603 33.8409 L-98.4697 33.8409 Q-96.5322 31.6847 -96.5322 29.2003 Q-96.5322 27.8722 -96.9697 26.8566 L-96.4541 26.8566 Q-95.8916 27.9191 -95.8916 29.2003 Z"/><path style="stroke:none;" d="M-129.3884 5.4937 Q-129.3884 4.1656 -128.9197 3.0406 Q-128.4509 1.9156 -127.4197 0.8374 L-126.8103 0.8374 Q-127.7791 1.8999 -128.2634 3.0718 Q-128.7478 4.2437 -128.7478 5.4781 Q-128.7478 6.8062 -128.3103 7.8218 L-128.8259 7.8218 Q-129.3884 6.7906 -129.3884 5.4937 ZM-125.8284 4.1812 L-126.3284 6.5562 L-126.9846 6.5562 L-125.7815 0.8374 L-124.5315 0.8374 Q-122.7971 0.8374 -122.7971 2.2749 Q-122.7971 3.6343 -124.2346 4.0249 L-123.2971 6.5562 L-124.0159 6.5562 L-124.844 4.1812 L-125.8284 4.1812 ZM-125.2502 1.4312 Q-125.6409 3.3531 -125.7034 3.6031 L-125.0471 3.6031 Q-124.2971 3.6031 -123.8909 3.2749 Q-123.4846 2.9468 -123.4846 2.3218 Q-123.4846 1.8531 -123.7424 1.6421 Q-124.0002 1.4312 -124.594 1.4312 L-125.2502 1.4312 ZM-120.6111 3.1812 Q-120.6111 4.5093 -121.0877 5.6421 Q-121.5643 6.7749 -122.5799 7.8218 L-123.1893 7.8218 Q-121.2518 5.6656 -121.2518 3.1812 Q-121.2518 1.8531 -121.6893 0.8374 L-121.1736 0.8374 Q-120.6111 1.8999 -120.6111 3.1812 Z"/></g></g></svg></svg></svg></svg>