<svg width="188" viewBox="0 0 188 127" style="fill-opacity:1; color-rendering:auto; color-interpolation:auto; text-rendering:auto; stroke:black; stroke-linecap:square; stroke-miterlimit:10; shape-rendering:auto; stroke-opacity:1; fill:black; stroke-dasharray:none; font-weight:normal; stroke-width:1; font-family:'Open Sans'; font-style:normal; stroke-linejoin:miter; font-size:12; stroke-dashoffset:0; image-rendering:auto;" height="127" class="cas-substance-image" xmlns:xlink="http://www.w3.org/1999/xlink" xmlns="http://www.w3.org/2000/svg"><svg class="cas-substance-single-component"><rect y="0" x="0" width="188" stroke="none" ry="7" rx="7" height="127" fill="white" class="cas-substance-group"/><svg y="0" x="0" width="188" viewBox="0 0 188 127" style="fill:black;" height="127" class="cas-substance-single-component-image"><svg><g><g transform="translate(94,63)" style="text-rendering:geometricPrecision; color-rendering:optimizeQuality; color-interpolation:linearRGB; stroke-linecap:butt; image-rendering:optimizeQuality;"><line y2="-10.215" y1="-40.215" x2="37.974" x1="37.974" style="fill:none;"/><line y2="35.949" y1="60.219" x2="22.974" x1="5.34" style="fill:none;"/><line y2="5.7116" y1="-1.854" x2="67.4976" x1="90.777" style="fill:none;"/><line y2="-1.854" y1="-14.055" x2="-63.369" x1="-90.777" style="fill:none;"/><line y2="-1.854" y1="24.129" x2="-63.369" x1="-78.369" style="fill:none;"/><line y2="-30.384" y1="-60.219" x2="-54.099" x1="-50.964" style="fill:none;"/><line y2="-30.384" y1="-36.621" x2="-54.099" x1="-83.442" style="fill:none;"/><line y2="-10.215" y1="7.419" x2="37.974" x1="13.704" style="fill:none;"/><line y2="-6.1957" y1="9.0627" x2="38.3965" x1="17.3961" style="fill:none;"/><line y2="35.949" y1="7.419" x2="22.974" x1="13.704" style="fill:none;"/><line y2="-0.271" y1="7.419" x2="-9.9582" x1="13.704" style="fill:none;"/><line y2="3.8082" y1="-10.215" x2="57.2744" x1="37.974" style="fill:none;"/><line y2="35.949" y1="35.949" x2="47.6224" x1="22.974" style="fill:none;"/><line y2="32.449" y1="32.449" x2="47.6224" x1="24.9947" style="fill:none;"/><line y2="29.6406" y1="13.4774" x2="55.0237" x1="60.2755" style="fill:none;"/><line y2="12.0275" y1="1.4786" x2="-33.9343" x1="-19.4158" style="fill:none;"/><line y2="-24.1303" y1="-8.1624" x2="-22.067" x1="-16.8787" style="fill:none;"/><line y2="-1.854" y1="12.0125" x2="-63.369" x1="-44.2843" style="fill:none;"/><line y2="-30.384" y1="-30.384" x2="-54.099" x1="-30.0365" style="fill:none;"/><line y2="-30.384" y1="-1.854" x2="-54.099" x1="-63.369" style="fill:none;"/><path style="fill:none; stroke-miterlimit:5;" d="M14.1085 7.1251 L13.704 7.419 L13.8585 7.8945"/><path style="fill:none; stroke-miterlimit:5;" d="M37.5695 -9.9211 L37.974 -10.215 L37.974 -10.715"/><path style="fill:none; stroke-miterlimit:5;" d="M23.474 35.949 L22.974 35.949 L22.6801 36.3535"/></g><g transform="translate(94,63)" style="stroke-linecap:butt; fill:rgb(0,5,255); text-rendering:geometricPrecision; color-rendering:optimizeQuality; image-rendering:optimizeQuality; font-family:'Open Sans'; stroke:rgb(0,5,255); color-interpolation:linearRGB; stroke-miterlimit:5;"><path style="stroke:none;" d="M65.5956 11.5753 L64.4549 11.5753 L59.7674 4.3878 L59.7206 4.3878 Q59.8143 5.6534 59.8143 6.7003 L59.8143 11.5753 L58.8924 11.5753 L58.8924 3.0128 L60.0174 3.0128 L64.6893 10.169 L64.7362 10.169 Q64.7362 10.0128 64.6893 9.1534 Q64.6424 8.294 64.6581 7.919 L64.6581 3.0128 L65.5956 3.0128 L65.5956 11.5753 Z"/><path style="stroke:none;" d="M56.3256 40.1053 L55.1849 40.1053 L50.4974 32.9178 L50.4506 32.9178 Q50.5443 34.1834 50.5443 35.2303 L50.5443 40.1053 L49.6224 40.1053 L49.6224 31.5428 L50.7474 31.5428 L55.4193 38.699 L55.4662 38.699 Q55.4662 38.5428 55.4193 37.6834 Q55.3724 36.824 55.3881 36.449 L55.3881 31.5428 L56.3256 31.5428 L56.3256 40.1053 Z"/><path style="fill:black; stroke:none;" d="M-17.7978 -6.2603 L-15.3759 -6.2603 Q-13.6728 -6.2603 -12.9071 -5.7524 Q-12.1415 -5.2446 -12.1415 -4.1509 Q-12.1415 -3.3853 -12.5634 -2.8853 Q-12.9853 -2.3853 -13.8134 -2.2446 L-13.8134 -2.1821 Q-11.8603 -1.854 -11.8603 -0.1353 Q-11.8603 1.0054 -12.6337 1.6538 Q-13.4071 2.3022 -14.7978 2.3022 L-17.7978 2.3022 L-17.7978 -6.2603 ZM-16.7978 -2.604 L-15.1571 -2.604 Q-14.0946 -2.604 -13.6337 -2.9321 Q-13.1728 -3.2603 -13.1728 -4.0415 Q-13.1728 -4.7603 -13.6884 -5.0806 Q-14.204 -5.4009 -15.329 -5.4009 L-16.7978 -5.4009 L-16.7978 -2.604 ZM-16.7978 -1.7603 L-16.7978 1.4585 L-15.0009 1.4585 Q-13.9696 1.4585 -13.4462 1.0522 Q-12.9228 0.646 -12.9228 -0.2134 Q-12.9228 -1.0103 -13.4618 -1.3853 Q-14.0009 -1.7603 -15.0946 -1.7603 L-16.7978 -1.7603 Z"/><path style="fill:rgb(230,0,0); stroke:none;" d="M-35.1615 15.7097 Q-35.1615 17.7722 -36.2006 18.9519 Q-37.2396 20.1316 -39.0834 20.1316 Q-40.974 20.1316 -42.0052 18.9675 Q-43.0365 17.8034 -43.0365 15.6941 Q-43.0365 13.6003 -42.0052 12.4519 Q-40.974 11.3034 -39.0834 11.3034 Q-37.224 11.3034 -36.1927 12.4753 Q-35.1615 13.6472 -35.1615 15.7097 ZM-41.9896 15.7097 Q-41.9896 17.4441 -41.2474 18.3503 Q-40.5052 19.2566 -39.0834 19.2566 Q-37.6615 19.2566 -36.9349 18.3581 Q-36.2084 17.4597 -36.2084 15.7097 Q-36.2084 13.9753 -36.9349 13.0847 Q-37.6615 12.1941 -39.0834 12.1941 Q-40.5052 12.1941 -41.2474 13.0925 Q-41.9896 13.9909 -41.9896 15.7097 Z"/><path style="fill:rgb(230,0,0); stroke:none;" d="M-20.1615 -30.4543 Q-20.1615 -28.3918 -21.2006 -27.2121 Q-22.2396 -26.0324 -24.0834 -26.0324 Q-25.974 -26.0324 -27.0053 -27.1965 Q-28.0365 -28.3606 -28.0365 -30.4699 Q-28.0365 -32.5637 -27.0053 -33.7121 Q-25.974 -34.8606 -24.0834 -34.8606 Q-22.224 -34.8606 -21.1928 -33.6887 Q-20.1615 -32.5168 -20.1615 -30.4543 ZM-26.9896 -30.4543 Q-26.9896 -28.7199 -26.2474 -27.8137 Q-25.5053 -26.9074 -24.0834 -26.9074 Q-22.6615 -26.9074 -21.9349 -27.8059 Q-21.2084 -28.7043 -21.2084 -30.4543 Q-21.2084 -32.1887 -21.9349 -33.0793 Q-22.6615 -33.9699 -24.0834 -33.9699 Q-25.5053 -33.9699 -26.2474 -33.0715 Q-26.9896 -32.1731 -26.9896 -30.4543 Z"/></g></g></svg></svg></svg></svg>