<svg xmlns:ns0="http://www.w3.org/2000/svg" xmlns="http://www.w3.org/2000/svg"><g transform="translate(0, 0)"><ns0:svg width="173" viewBox="0 0 173 74" style="fill-opacity:1; color-rendering:auto; color-interpolation:auto; text-rendering:auto; stroke:black; stroke-linecap:square; stroke-miterlimit:10; shape-rendering:auto; stroke-opacity:1; fill:black; stroke-dasharray:none; font-weight:normal; stroke-width:1; font-family:'Open Sans'; font-style:normal; stroke-linejoin:miter; font-size:12; stroke-dashoffset:0; image-rendering:auto;" height="74" class="cas-substance-image"><ns0:svg class="cas-substance-single-component"><ns0:rect y="0" x="0" width="173" stroke="none" ry="7" rx="7" height="74" fill="white" class="cas-substance-group" /><ns0:svg y="0" x="0" width="173" viewBox="0 0 173 74" style="fill:black;" height="74" class="cas-substance-single-component-image"><ns0:svg><ns0:g><ns0:g transform="translate(92,37)" style="text-rendering:geometricPrecision; color-rendering:optimizeQuality; color-interpolation:linearRGB; stroke-linecap:butt; image-rendering:optimizeQuality;"><ns0:line y2="-25.98" y1="0" x2="32.859" x1="17.859" style="fill:none;" /><ns0:line y2="-22.48" y1="0.0001" x2="34.8797" x1="21.9005" style="fill:none;" /><ns0:line y2="25.98" y1="0" x2="32.859" x1="17.859" style="fill:none;" /><ns0:line y2="0" y1="0" x2="-12.141" x1="17.859" style="fill:none;" /><ns0:line y2="-25.98" y1="-25.98" x2="62.859" x1="32.859" style="fill:none;" /><ns0:line y2="25.98" y1="25.98" x2="62.859" x1="32.859" style="fill:none;" /><ns0:line y2="22.48" y1="22.48" x2="60.8383" x1="34.8797" style="fill:none;" /><ns0:line y2="0" y1="-25.98" x2="77.859" x1="62.859" style="fill:none;" /><ns0:line y2="0.0001" y1="-22.48" x2="73.8176" x1="60.8383" style="fill:none;" /><ns0:line y2="0" y1="25.98" x2="77.859" x1="62.859" style="fill:none;" /><ns0:line y2="-27.03" y1="0" x2="-25.158" x1="-12.141" style="fill:none;" /><ns0:line y2="27.03" y1="0" x2="-25.158" x1="-12.141" style="fill:none;" /><ns0:line y2="-33.705" y1="-27.03" x2="-54.405" x1="-25.158" style="fill:none;" /><ns0:line y2="33.705" y1="27.03" x2="-54.405" x1="-25.158" style="fill:none;" /><ns0:line y2="-15" y1="-33.705" x2="-77.859" x1="-54.405" style="fill:none;" /><ns0:line y2="18.92" y1="33.705" x2="-72.9438" x1="-54.405" style="fill:none;" /><ns0:line y2="8.5938" y1="-15" x2="-77.859" x1="-77.859" style="fill:none;" /><ns0:path style="fill:none; stroke-miterlimit:5;" d="M18.109 -0.433 L17.859 0 L18.109 0.433" /><ns0:path style="fill:none; stroke-miterlimit:5;" d="M32.609 -25.547 L32.859 -25.98 L33.359 -25.98" /><ns0:path style="fill:none; stroke-miterlimit:5;" d="M32.609 25.547 L32.859 25.98 L33.359 25.98" /><ns0:path style="fill:none; stroke-miterlimit:5;" d="M62.359 -25.98 L62.859 -25.98 L63.109 -25.547" /><ns0:path style="fill:none; stroke-miterlimit:5;" d="M62.359 25.98 L62.859 25.98 L63.109 25.547" /><ns0:path style="fill:none; stroke-miterlimit:5;" d="M77.609 -0.433 L77.859 0 L77.609 0.433" /><ns0:path style="fill:none; stroke-miterlimit:5;" d="M-24.9411 -26.5795 L-25.158 -27.03 L-25.6455 -27.1413" /><ns0:path style="fill:none; stroke-miterlimit:5;" d="M-24.9411 26.5795 L-25.158 27.03 L-25.6455 27.1413" /><ns0:path style="fill:none; stroke-miterlimit:5;" d="M-53.9175 -33.5937 L-54.405 -33.705 L-54.7959 -33.3932" /><ns0:path style="fill:none; stroke-miterlimit:5;" d="M-53.9175 33.5937 L-54.405 33.705 L-54.7959 33.3932" /><ns0:path style="fill:none; stroke-miterlimit:5;" d="M-77.4681 -15.3118 L-77.859 -15 L-77.859 -14.5" /></ns0:g><ns0:g transform="translate(92,37)" style="stroke-linecap:butt; fill:rgb(0,5,255); text-rendering:geometricPrecision; color-rendering:optimizeQuality; image-rendering:optimizeQuality; font-family:'Open Sans'; stroke:rgb(0,5,255); color-interpolation:linearRGB; stroke-miterlimit:5;"><ns0:path style="stroke:none;" d="M-74.5074 19.1562 L-75.6481 19.1562 L-80.3356 11.9688 L-80.3824 11.9688 Q-80.2887 13.2344 -80.2887 14.2812 L-80.2887 19.1562 L-81.2106 19.1562 L-81.2106 10.5938 L-80.0856 10.5938 L-75.4137 17.75 L-75.3668 17.75 Q-75.3668 17.5938 -75.4137 16.7344 Q-75.4606 15.875 -75.4449 15.5 L-75.4449 10.5938 L-74.5074 10.5938 L-74.5074 19.1562 Z" /><ns0:path style="stroke:none;" d="M-82.2106 19.1562 L-83.2106 19.1562 L-83.2106 15.125 L-87.7262 15.125 L-87.7262 19.1562 L-88.7262 19.1562 L-88.7262 10.5938 L-87.7262 10.5938 L-87.7262 14.2344 L-83.2106 14.2344 L-83.2106 10.5938 L-82.2106 10.5938 L-82.2106 19.1562 Z" /></ns0:g></ns0:g></ns0:svg></ns0:svg></ns0:svg></ns0:svg></g></svg>