<svg xmlns:ns0="http://www.w3.org/2000/svg" xmlns="http://www.w3.org/2000/svg"><g transform="translate(0, 0)"><ns0:svg width="100" viewBox="0 0 100 87" style="fill-opacity:1; color-rendering:auto; color-interpolation:auto; text-rendering:auto; stroke:black; stroke-linecap:square; stroke-miterlimit:10; shape-rendering:auto; stroke-opacity:1; fill:black; stroke-dasharray:none; font-weight:normal; stroke-width:1; font-family:'Open Sans'; font-style:normal; stroke-linejoin:miter; font-size:12; stroke-dashoffset:0; image-rendering:auto;" height="87" class="cas-substance-image"><ns0:svg class="cas-substance-single-component"><ns0:rect y="0" x="0" width="100" stroke="none" ry="7" rx="7" height="87" fill="white" class="cas-substance-group" /><ns0:svg y="0" x="3" width="94" viewBox="0 0 94 87" style="fill:black;" height="87" class="cas-substance-single-component-image"><ns0:svg><ns0:g><ns0:g transform="translate(52,45)" style="text-rendering:geometricPrecision; color-rendering:optimizeQuality; color-interpolation:linearRGB; stroke-linecap:butt; image-rendering:optimizeQuality;"><ns0:line y2="8.082" y1="38.082" x2="-14.265" x1="-14.265" style="fill:none;" /><ns0:line y2="-9.552" y1="-0.279" x2="10.005" x1="38.535" style="fill:none;" /><ns0:line y2="-9.552" y1="8.082" x2="10.005" x1="-14.265" style="fill:none;" /><ns0:line y2="-11.1957" y1="4.0627" x2="6.3129" x1="-14.6875" style="fill:none;" /><ns0:line y2="-5.9412" y1="8.082" x2="-33.5654" x1="-14.265" style="fill:none;" /><ns0:line y2="-32.0236" y1="-9.552" x2="2.7035" x1="10.005" style="fill:none;" /><ns0:line y2="-38.082" y1="-15.8604" x2="-29.265" x1="-36.4853" style="fill:none;" /><ns0:line y2="-38.082" y1="-38.082" x2="-29.265" x1="-4.6166" style="fill:none;" /><ns0:line y2="-34.582" y1="-34.582" x2="-27.2443" x1="-4.6166" style="fill:none;" /><ns0:path style="fill:none; stroke-miterlimit:5;" d="M-13.8605 7.7881 L-14.265 8.082 L-14.6695 7.7881" /><ns0:path style="fill:none; stroke-miterlimit:5;" d="M9.6005 -9.2581 L10.005 -9.552 L10.4805 -9.3974" /></ns0:g><ns0:g transform="translate(52,45)" style="stroke-linecap:butt; fill:rgb(0,5,255); text-rendering:geometricPrecision; color-rendering:optimizeQuality; image-rendering:optimizeQuality; font-family:'Open Sans'; stroke:rgb(0,5,255); color-interpolation:linearRGB; stroke-miterlimit:5;"><ns0:path style="stroke:none;" d="M-35.1834 -5.3958 L-36.3241 -5.3958 L-41.0116 -12.5833 L-41.0584 -12.5833 Q-40.9647 -11.3176 -40.9647 -10.2708 L-40.9647 -5.3958 L-41.8866 -5.3958 L-41.8866 -13.9583 L-40.7616 -13.9583 L-36.0897 -6.802 L-36.0428 -6.802 Q-36.0428 -6.9583 -36.0897 -7.8176 Q-36.1366 -8.677 -36.1209 -9.052 L-36.1209 -13.9583 L-35.1834 -13.9583 L-35.1834 -5.3958 Z" /><ns0:path style="stroke:none;" d="M-42.8866 -5.3958 L-43.8866 -5.3958 L-43.8866 -9.427 L-48.4022 -9.427 L-48.4022 -5.3958 L-49.4022 -5.3958 L-49.4022 -13.9583 L-48.4022 -13.9583 L-48.4022 -10.3176 L-43.8866 -10.3176 L-43.8866 -13.9583 L-42.8866 -13.9583 L-42.8866 -5.3958 Z" /><ns0:path style="stroke:none;" d="M4.0866 -33.9258 L2.9459 -33.9258 L-1.7416 -41.1133 L-1.7884 -41.1133 Q-1.6947 -39.8476 -1.6947 -38.8008 L-1.6947 -33.9258 L-2.6166 -33.9258 L-2.6166 -42.4883 L-1.4916 -42.4883 L3.1803 -35.332 L3.2272 -35.332 Q3.2272 -35.4883 3.1803 -36.3476 Q3.1334 -37.207 3.1491 -37.582 L3.1491 -42.4883 L4.0866 -42.4883 L4.0866 -33.9258 Z" /><ns0:path style="fill:none; stroke:black;" d="M-29.4195 -37.6065 L-29.265 -38.082 L-28.765 -38.082" /></ns0:g></ns0:g></ns0:svg></ns0:svg></ns0:svg></ns0:svg></g></svg>