<svg xmlns:ns0="http://www.w3.org/2000/svg" xmlns="http://www.w3.org/2000/svg"><g transform="translate(0, 0)"><ns0:svg width="136" viewBox="0 0 136 116" style="fill-opacity:1; color-rendering:auto; color-interpolation:auto; text-rendering:auto; stroke:black; stroke-linecap:square; stroke-miterlimit:10; shape-rendering:auto; stroke-opacity:1; fill:black; stroke-dasharray:none; font-weight:normal; stroke-width:1; font-family:'Open Sans'; font-style:normal; stroke-linejoin:miter; font-size:12; stroke-dashoffset:0; image-rendering:auto;" height="116" class="cas-substance-image"><ns0:svg class="cas-substance-single-component"><ns0:rect y="0" x="0" width="136" stroke="none" ry="7" rx="7" height="116" fill="white" class="cas-substance-group" /><ns0:svg y="0" x="0" width="136" viewBox="0 0 136 116" style="fill:black;" height="116" class="cas-substance-single-component-image"><ns0:svg><ns0:g><ns0:g transform="translate(68,62)" style="text-rendering:geometricPrecision; color-rendering:optimizeQuality; color-interpolation:linearRGB; stroke-linecap:butt; image-rendering:optimizeQuality;"><ns0:line y2="15" y1="38.5938" x2="10.092" x1="10.092" style="fill:none;" /><ns0:line y2="-31.0104" y1="-43.9741" x2="34.322" x1="56.7778" style="fill:none;" /><ns0:line y2="-27.9793" y1="-40.943" x2="36.072" x1="58.5277" style="fill:none;" /><ns0:line y2="0" y1="-30" x2="-15.888" x1="-15.888" style="fill:none;" /><ns0:line y2="-2.0207" y1="-27.9793" x2="-19.388" x1="-19.388" style="fill:none;" /><ns0:line y2="-42.0649" y1="-30" x2="5.0084" x1="-15.888" style="fill:none;" /><ns0:line y2="-37.5631" y1="-30" x2="-39.1673" x1="-15.888" style="fill:none;" /><ns0:line y2="15" y1="0" x2="10.092" x1="-15.888" style="fill:none;" /><ns0:line y2="9.27" y1="0" x2="-44.421" x1="-15.888" style="fill:none;" /><ns0:line y2="-30" y1="-42.0649" x2="36.072" x1="15.1756" style="fill:none;" /><ns0:line y2="-21.0243" y1="-33.4957" x2="-57.6779" x1="-48.6164" style="fill:none;" /><ns0:line y2="2.9351" y1="15" x2="30.9884" x1="10.092" style="fill:none;" /><ns0:line y2="-0.096" y1="10.9585" x2="29.2384" x1="10.0919" style="fill:none;" /><ns0:line y2="-9.2257" y1="9.27" x2="-57.8596" x1="-44.421" style="fill:none;" /><ns0:line y2="-11.2831" y1="5.5779" x2="-55.028" x1="-42.7773" style="fill:none;" /><ns0:line y2="-6.4062" y1="-30" x2="36.072" x1="36.072" style="fill:none;" /></ns0:g><ns0:g transform="translate(68,62)" style="fill:rgb(0,5,255); text-rendering:geometricPrecision; color-rendering:optimizeQuality; image-rendering:optimizeQuality; font-family:'Open Sans'; stroke:rgb(0,5,255); color-interpolation:linearRGB;"><ns0:path style="stroke:none;" d="M13.4436 49.1562 L12.3029 49.1562 L7.6154 41.9688 L7.5686 41.9688 Q7.6623 43.2344 7.6623 44.2812 L7.6623 49.1562 L6.7404 49.1562 L6.7404 40.5938 L7.8654 40.5938 L12.5373 47.75 L12.5842 47.75 Q12.5842 47.5938 12.5373 46.7344 Q12.4904 45.875 12.5061 45.5 L12.5061 40.5938 L13.4436 40.5938 L13.4436 49.1562 Z" /><ns0:path style="stroke:none;" d="M20.9592 49.1562 L19.9592 49.1562 L19.9592 45.125 L15.4436 45.125 L15.4436 49.1562 L14.4436 49.1562 L14.4436 40.5938 L15.4436 40.5938 L15.4436 44.2344 L19.9592 44.2344 L19.9592 40.5938 L20.9592 40.5938 L20.9592 49.1562 Z" /><ns0:path style="stroke:none;" d="M25.7092 50.9656 L21.9592 50.9656 L21.9592 50.4031 L23.4592 48.8875 Q24.1467 48.2 24.3654 47.9031 Q24.5842 47.6063 24.6936 47.325 Q24.8029 47.0438 24.8029 46.7156 Q24.8029 46.2625 24.5295 45.9969 Q24.2561 45.7313 23.7561 45.7313 Q23.4123 45.7313 23.092 45.8484 Q22.7717 45.9656 22.3811 46.2625 L22.0373 45.825 Q22.8186 45.1688 23.7561 45.1688 Q24.5529 45.1688 25.0139 45.5828 Q25.4748 45.9969 25.4748 46.6844 Q25.4748 47.2313 25.1701 47.7625 Q24.8654 48.2938 24.0217 49.1063 L22.7717 50.325 L22.7717 50.3563 L25.7092 50.3563 L25.7092 50.9656 Z" /><ns0:path style="fill:rgb(148,108,0); stroke:none;" d="M64.7503 -43.0625 Q64.7503 -41.9375 63.93 -41.2969 Q63.1097 -40.6562 61.7034 -40.6562 Q60.1722 -40.6562 59.3597 -41.0625 L59.3597 -42.0156 Q59.8909 -41.7969 60.5081 -41.6641 Q61.1253 -41.5312 61.7347 -41.5312 Q62.7347 -41.5312 63.2347 -41.9141 Q63.7347 -42.2969 63.7347 -42.9688 Q63.7347 -43.4062 63.555 -43.6953 Q63.3753 -43.9844 62.9613 -44.2266 Q62.5472 -44.4688 61.6878 -44.7656 Q60.5003 -45.1875 59.9847 -45.7734 Q59.4691 -46.3594 59.4691 -47.3125 Q59.4691 -48.2969 60.2113 -48.8828 Q60.9534 -49.4688 62.1878 -49.4688 Q63.4534 -49.4688 64.5316 -49 L64.2191 -48.1406 Q63.1566 -48.5781 62.1566 -48.5781 Q61.3597 -48.5781 60.9144 -48.2422 Q60.4691 -47.9062 60.4691 -47.2969 Q60.4691 -46.8594 60.6331 -46.5703 Q60.7972 -46.2812 61.1878 -46.0469 Q61.5784 -45.8125 62.3909 -45.5156 Q63.7347 -45.0469 64.2425 -44.4922 Q64.7503 -43.9375 64.7503 -43.0625 Z" /></ns0:g><ns0:g transform="translate(68,62)" style="stroke-linecap:butt; text-rendering:geometricPrecision; color-rendering:optimizeQuality; image-rendering:optimizeQuality; font-family:'Open Sans'; color-interpolation:linearRGB; stroke-miterlimit:5;"><ns0:path style="fill:none;" d="M-15.888 -29.5 L-15.888 -30 L-16.3635 -30.1545" /><ns0:path style="fill:none;" d="M-15.888 -0.5 L-15.888 0 L-15.455 0.25" /><ns0:path style="fill:rgb(0,5,255); stroke:none;" d="M13.4436 -40.8438 L12.3029 -40.8438 L7.6154 -48.0312 L7.5686 -48.0312 Q7.6623 -46.7656 7.6623 -45.7188 L7.6623 -40.8438 L6.7404 -40.8438 L6.7404 -49.4062 L7.8654 -49.4062 L12.5373 -42.25 L12.5842 -42.25 Q12.5842 -42.4062 12.5373 -43.2656 Q12.4904 -44.125 12.5061 -44.5 L12.5061 -49.4062 L13.4436 -49.4062 L13.4436 -40.8438 Z" /><ns0:path style="fill:rgb(0,5,255); stroke:none;" d="M13.3498 -50.4062 L12.3498 -50.4062 L12.3498 -54.4375 L7.8342 -54.4375 L7.8342 -50.4062 L6.8342 -50.4062 L6.8342 -58.9688 L7.8342 -58.9688 L7.8342 -55.3281 L12.3498 -55.3281 L12.3498 -58.9688 L13.3498 -58.9688 L13.3498 -50.4062 Z" /><ns0:path style="fill:rgb(0,5,255); stroke:none;" d="M-41.0694 -35.1138 L-42.2101 -35.1138 L-46.8976 -42.3013 L-46.9444 -42.3013 Q-46.8507 -41.0356 -46.8507 -39.9888 L-46.8507 -35.1138 L-47.7726 -35.1138 L-47.7726 -43.6763 L-46.6476 -43.6763 L-41.9757 -36.52 L-41.9288 -36.52 Q-41.9288 -36.6763 -41.9757 -37.5356 Q-42.0226 -38.395 -42.0069 -38.77 L-42.0069 -43.6763 L-41.0694 -43.6763 L-41.0694 -35.1138 Z" /><ns0:path style="fill:rgb(0,5,255); stroke:none;" d="M-41.1632 -44.6763 L-42.1632 -44.6763 L-42.1632 -48.7075 L-46.6788 -48.7075 L-46.6788 -44.6763 L-47.6788 -44.6763 L-47.6788 -53.2388 L-46.6788 -53.2388 L-46.6788 -49.5981 L-42.1632 -49.5981 L-42.1632 -53.2388 L-41.1632 -53.2388 L-41.1632 -44.6763 Z" /><ns0:path style="fill:none;" d="M10.525 14.75 L10.092 15 L10.092 15.5" /><ns0:path style="fill:none;" d="M-43.9455 9.1155 L-44.421 9.27 L-44.7149 8.8655" /><ns0:path style="fill:none;" d="M35.639 -30.25 L36.072 -30 L36.072 -29.5" /><ns0:path style="fill:rgb(0,5,255); stroke:none;" d="M-58.7034 -10.8438 L-59.8441 -10.8438 L-64.5316 -18.0312 L-64.5784 -18.0312 Q-64.4847 -16.7656 -64.4847 -15.7188 L-64.4847 -10.8438 L-65.4066 -10.8438 L-65.4066 -19.4062 L-64.2816 -19.4062 L-59.6097 -12.25 L-59.5628 -12.25 Q-59.5628 -12.4062 -59.6097 -13.2656 Q-59.6566 -14.125 -59.6409 -14.5 L-59.6409 -19.4062 L-58.7034 -19.4062 L-58.7034 -10.8438 Z" /><ns0:path style="fill:rgb(0,5,255); stroke:none;" d="M39.4236 4.1562 L38.2829 4.1562 L33.5954 -3.0312 L33.5486 -3.0312 Q33.6423 -1.7656 33.6423 -0.7188 L33.6423 4.1562 L32.7204 4.1562 L32.7204 -4.4062 L33.8454 -4.4062 L38.5173 2.75 L38.5642 2.75 Q38.5642 2.5938 38.5173 1.7344 Q38.4704 0.875 38.4861 0.5 L38.4861 -4.4062 L39.4236 -4.4062 L39.4236 4.1562 Z" /></ns0:g></ns0:g></ns0:svg></ns0:svg></ns0:svg></ns0:svg></g></svg>