<svg width="468" viewBox="0 0 468 143" style="fill-opacity:1; color-rendering:auto; color-interpolation:auto; text-rendering:auto; stroke:black; stroke-linecap:square; stroke-miterlimit:10; shape-rendering:auto; stroke-opacity:1; fill:black; stroke-dasharray:none; font-weight:normal; stroke-width:1; font-family:'Open Sans'; font-style:normal; stroke-linejoin:miter; font-size:12; stroke-dashoffset:0; image-rendering:auto;" height="143" class="cas-substance-image" xmlns:xlink="http://www.w3.org/1999/xlink" xmlns="http://www.w3.org/2000/svg"><svg class="cas-substance-single-component"><rect y="0" x="0" width="468" stroke="none" ry="7" rx="7" height="143" fill="white" class="cas-substance-group"/><svg y="0" x="0" width="468" viewBox="0 0 468 143" style="fill:black;" height="143" class="cas-substance-single-component-image"><svg><g><g transform="translate(228,72)" style="text-rendering:geometricPrecision; color-rendering:optimizeQuality; color-interpolation:linearRGB; stroke-linecap:butt; image-rendering:optimizeQuality;"><path style="fill:none;" d="M57.099 -15.3048 L53.6349 -17.3048 L63.6351 -34.6252 L67.0992 -32.6251 M122.9178 -32.6251 L126.3819 -34.6252 L136.3821 -17.3048 L132.918 -15.3048"/><path style="stroke:none;" d="M145.804 -11.3048 L145.804 -15.4611 Q145.804 -16.2423 145.4524 -16.6329 Q145.1009 -17.0236 144.3352 -17.0236 Q143.3196 -17.0236 142.8509 -16.4767 Q142.3821 -15.9298 142.3821 -14.6798 L142.3821 -11.3048 L141.4134 -11.3048 L141.4134 -17.7267 L142.2102 -17.7267 L142.3665 -16.8517 L142.4134 -16.8517 Q142.7102 -17.3204 143.2493 -17.5861 Q143.7884 -17.8517 144.4446 -17.8517 Q145.6165 -17.8517 146.2024 -17.2892 Q146.7884 -16.7267 146.7884 -15.4923 L146.7884 -11.3048 L145.804 -11.3048 Z"/><line y2="-23.2064" y1="-34.965" x2="-92.4701" x1="-112.836" style="fill:none;"/><line y2="-19.965" y1="-34.965" x2="-138.819" x1="-112.836" style="fill:none;"/><line y2="-34.965" y1="-23.191" x2="-60.876" x1="-81.2685" style="fill:none;"/><line y2="-22.9001" y1="-34.965" x2="-39.9796" x1="-60.876" style="fill:none;"/><line y2="-58.6134" y1="-33.9546" x2="-59.126" x1="-59.126" style="fill:none;"/><line y2="-58.6134" y1="-33.9546" x2="-62.626" x1="-62.626" style="fill:none;"/><line y2="-34.965" y1="-22.8998" x2="-8.913" x1="-29.8123" style="fill:none;"/><line y2="-19.965" y1="-34.965" x2="17.067" x1="-8.913" style="fill:none;"/><line y2="-31.7762" y1="-19.965" x2="37.524" x1="17.067" style="fill:none;"/><line y2="-19.965" y1="-31.7864" x2="69.027" x1="48.5524" style="fill:none;"/><line y2="-34.965" y1="-19.965" x2="95.01" x1="69.027" style="fill:none;"/><line y2="-23.2064" y1="-34.965" x2="115.3759" x1="95.01" style="fill:none;"/><line y2="-34.965" y1="-23.191" x2="146.97" x1="126.5775" style="fill:none;"/><line y2="-19.965" y1="-34.965" x2="172.95" x1="146.97" style="fill:none;"/><line y2="-34.965" y1="-19.965" x2="198.933" x1="172.95" style="fill:none;"/><line y2="-23.2064" y1="-34.965" x2="219.2989" x1="198.933" style="fill:none;"/><line y2="-58.6134" y1="-33.9546" x2="200.683" x1="200.683" style="fill:none;"/><line y2="-58.6134" y1="-33.9547" x2="197.183" x1="197.183" style="fill:none;"/><line y2="-32.166" y1="-19.965" x2="-166.224" x1="-138.819" style="fill:none;"/><line y2="9.873" y1="-19.965" x2="-141.954" x1="-138.819" style="fill:none;"/><line y2="-9.873" y1="-32.166" x2="-186.297" x1="-166.224" style="fill:none;"/><line y2="-60.699" y1="-32.166" x2="-175.494" x1="-166.224" style="fill:none;"/><line y2="-57.6957" y1="-33.0064" x2="-178.1984" x1="-170.1771" style="fill:none;"/><line y2="16.11" y1="9.873" x2="-171.297" x1="-141.954" style="fill:none;"/><line y2="32.166" y1="9.873" x2="-121.881" x1="-141.954" style="fill:none;"/><line y2="33.0063" y1="13.7167" x2="-125.8341" x1="-143.2029" style="fill:none;"/><line y2="16.11" y1="-9.873" x2="-171.297" x1="-186.297" style="fill:none;"/><line y2="-16.11" y1="-9.873" x2="-215.643" x1="-186.297" style="fill:none;"/><line y2="-19.1134" y1="-13.7166" x2="-212.9388" x1="-187.546" style="fill:none;"/><line y2="-66.936" y1="-60.699" x2="-204.84" x1="-175.494" style="fill:none;"/><line y2="44.64" y1="16.11" x2="-180.567" x1="-171.297" style="fill:none;"/><line y2="43.7997" y1="19.1134" x2="-176.6139" x1="-168.5927" style="fill:none;"/><line y2="60.699" y1="32.166" x2="-131.151" x1="-121.881" style="fill:none;"/><line y2="-44.64" y1="-16.11" x2="-224.913" x1="-215.643" style="fill:none;"/><line y2="-44.64" y1="-66.936" x2="-224.913" x1="-204.84" style="fill:none;"/><line y2="-43.8" y1="-63.0924" x2="-220.9598" x1="-203.5909" style="fill:none;"/><line y2="66.936" y1="44.64" x2="-160.494" x1="-180.567" style="fill:none;"/><line y2="66.936" y1="60.699" x2="-160.494" x1="-131.151" style="fill:none;"/><line y2="63.0924" y1="57.6956" x2="-159.2451" x1="-133.8553" style="fill:none;"/><path style="fill:none; stroke-miterlimit:5;" d="M-112.403 -34.715 L-112.836 -34.965 L-113.269 -34.715"/></g><g transform="translate(228,72)" style="stroke-linecap:butt; fill:rgb(230,0,0); text-rendering:geometricPrecision; color-rendering:optimizeQuality; image-rendering:optimizeQuality; font-family:'Open Sans'; stroke:rgb(230,0,0); color-interpolation:linearRGB; stroke-miterlimit:5;"><path style="stroke:none;" d="M-82.9185 -20.0353 Q-82.9185 -17.9728 -83.9576 -16.7931 Q-84.9966 -15.6134 -86.8404 -15.6134 Q-88.731 -15.6134 -89.7623 -16.7775 Q-90.7935 -17.9416 -90.7935 -20.0509 Q-90.7935 -22.1447 -89.7623 -23.2931 Q-88.731 -24.4416 -86.8404 -24.4416 Q-84.981 -24.4416 -83.9498 -23.2697 Q-82.9185 -22.0978 -82.9185 -20.0353 ZM-89.7466 -20.0353 Q-89.7466 -18.3009 -89.0044 -17.3947 Q-88.2623 -16.4884 -86.8404 -16.4884 Q-85.4185 -16.4884 -84.6919 -17.3869 Q-83.9654 -18.2853 -83.9654 -20.0353 Q-83.9654 -21.7697 -84.6919 -22.6603 Q-85.4185 -23.5509 -86.8404 -23.5509 Q-88.2623 -23.5509 -89.0044 -22.6525 Q-89.7466 -21.7541 -89.7466 -20.0353 Z"/><path style="fill:none; stroke:black;" d="M-61.309 -34.715 L-60.876 -34.965 L-60.443 -34.715"/><path style="fill:rgb(0,5,255); stroke:none;" d="M-31.5444 -15.8088 L-32.6851 -15.8088 L-37.3726 -22.9963 L-37.4194 -22.9963 Q-37.3257 -21.7306 -37.3257 -20.6838 L-37.3257 -15.8088 L-38.2476 -15.8088 L-38.2476 -24.3713 L-37.1226 -24.3713 L-32.4507 -17.215 L-32.4038 -17.215 Q-32.4038 -17.3713 -32.4507 -18.2306 Q-32.4976 -19.09 -32.4819 -19.465 L-32.4819 -24.3713 L-31.5444 -24.3713 L-31.5444 -15.8088 Z"/><path style="fill:rgb(0,5,255); stroke:none;" d="M-31.6382 -6.2463 L-32.6382 -6.2463 L-32.6382 -10.2775 L-37.1538 -10.2775 L-37.1538 -6.2463 L-38.1538 -6.2463 L-38.1538 -14.8088 L-37.1538 -14.8088 L-37.1538 -11.1681 L-32.6382 -11.1681 L-32.6382 -14.8088 L-31.6382 -14.8088 L-31.6382 -6.2463 Z"/><path style="stroke:none;" d="M-56.9385 -65.0353 Q-56.9385 -62.9728 -57.9776 -61.7931 Q-59.0166 -60.6134 -60.8604 -60.6134 Q-62.751 -60.6134 -63.7823 -61.7775 Q-64.8135 -62.9416 -64.8135 -65.0509 Q-64.8135 -67.1447 -63.7823 -68.2931 Q-62.751 -69.4416 -60.8604 -69.4416 Q-59.001 -69.4416 -57.9698 -68.2697 Q-56.9385 -67.0978 -56.9385 -65.0353 ZM-63.7666 -65.0353 Q-63.7666 -63.3009 -63.0244 -62.3947 Q-62.2823 -61.4884 -60.8604 -61.4884 Q-59.4385 -61.4884 -58.7119 -62.3869 Q-57.9854 -63.2853 -57.9854 -65.0353 Q-57.9854 -66.7697 -58.7119 -67.6603 Q-59.4385 -68.5509 -60.8604 -68.5509 Q-62.2823 -68.5509 -63.0244 -67.6525 Q-63.7666 -66.7541 -63.7666 -65.0353 Z"/><path style="fill:none; stroke:black;" d="M-9.346 -34.715 L-8.913 -34.965 L-8.48 -34.715"/><path style="fill:none; stroke:black;" d="M16.634 -20.215 L17.067 -19.965 L17.5 -20.215"/><path style="stroke:none;" d="M46.9845 -35.0353 Q46.9845 -32.9728 45.9454 -31.7931 Q44.9064 -30.6134 43.0626 -30.6134 Q41.172 -30.6134 40.1408 -31.7775 Q39.1095 -32.9416 39.1095 -35.0509 Q39.1095 -37.1447 40.1408 -38.2931 Q41.172 -39.4416 43.0626 -39.4416 Q44.922 -39.4416 45.9533 -38.2697 Q46.9845 -37.0978 46.9845 -35.0353 ZM40.1564 -35.0353 Q40.1564 -33.3009 40.8986 -32.3947 Q41.6408 -31.4884 43.0626 -31.4884 Q44.4845 -31.4884 45.2111 -32.3869 Q45.9376 -33.2853 45.9376 -35.0353 Q45.9376 -36.7697 45.2111 -37.6603 Q44.4845 -38.5509 43.0626 -38.5509 Q41.6408 -38.5509 40.8986 -37.6525 Q40.1564 -36.7541 40.1564 -35.0353 Z"/><path style="fill:none; stroke:black;" d="M68.594 -20.215 L69.027 -19.965 L69.46 -20.215"/><path style="fill:none; stroke:black;" d="M94.577 -34.715 L95.01 -34.965 L95.443 -34.715"/><path style="stroke:none;" d="M124.9275 -20.0353 Q124.9275 -17.9728 123.8884 -16.7931 Q122.8494 -15.6134 121.0056 -15.6134 Q119.115 -15.6134 118.0837 -16.7775 Q117.0525 -17.9416 117.0525 -20.0509 Q117.0525 -22.1447 118.0837 -23.2931 Q119.115 -24.4416 121.0056 -24.4416 Q122.865 -24.4416 123.8962 -23.2697 Q124.9275 -22.0978 124.9275 -20.0353 ZM118.0994 -20.0353 Q118.0994 -18.3009 118.8416 -17.3947 Q119.5837 -16.4884 121.0056 -16.4884 Q122.4275 -16.4884 123.1541 -17.3869 Q123.8806 -18.2853 123.8806 -20.0353 Q123.8806 -21.7697 123.1541 -22.6603 Q122.4275 -23.5509 121.0056 -23.5509 Q119.5837 -23.5509 118.8416 -22.6525 Q118.0994 -21.7541 118.0994 -20.0353 Z"/><path style="fill:none; stroke:black;" d="M146.537 -34.715 L146.97 -34.965 L147.403 -34.715"/><path style="fill:none; stroke:black;" d="M172.517 -20.215 L172.95 -19.965 L173.383 -20.215"/><path style="fill:none; stroke:black;" d="M198.5 -34.715 L198.933 -34.965 L199.366 -34.715"/><path style="stroke:none;" d="M228.8505 -20.0353 Q228.8505 -17.9728 227.8114 -16.7931 Q226.7724 -15.6134 224.9286 -15.6134 Q223.038 -15.6134 222.0067 -16.7775 Q220.9755 -17.9416 220.9755 -20.0509 Q220.9755 -22.1447 222.0067 -23.2931 Q223.038 -24.4416 224.9286 -24.4416 Q226.788 -24.4416 227.8192 -23.2697 Q228.8505 -22.0978 228.8505 -20.0353 ZM222.0224 -20.0353 Q222.0224 -18.3009 222.7646 -17.3947 Q223.5067 -16.4884 224.9286 -16.4884 Q226.3505 -16.4884 227.0771 -17.3869 Q227.8036 -18.2853 227.8036 -20.0353 Q227.8036 -21.7697 227.0771 -22.6603 Q226.3505 -23.5509 224.9286 -23.5509 Q223.5067 -23.5509 222.7646 -22.6525 Q222.0224 -21.7541 222.0224 -20.0353 Z"/><path style="stroke:none;" d="M236.3661 -15.7384 L235.3661 -15.7384 L235.3661 -19.7697 L230.8505 -19.7697 L230.8505 -15.7384 L229.8505 -15.7384 L229.8505 -24.3009 L230.8505 -24.3009 L230.8505 -20.6603 L235.3661 -20.6603 L235.3661 -24.3009 L236.3661 -24.3009 L236.3661 -15.7384 Z"/><path style="stroke:none;" d="M202.8705 -65.0353 Q202.8705 -62.9728 201.8314 -61.7931 Q200.7924 -60.6134 198.9486 -60.6134 Q197.058 -60.6134 196.0267 -61.7775 Q194.9955 -62.9416 194.9955 -65.0509 Q194.9955 -67.1447 196.0267 -68.2931 Q197.058 -69.4416 198.9486 -69.4416 Q200.808 -69.4416 201.8392 -68.2697 Q202.8705 -67.0978 202.8705 -65.0353 ZM196.0424 -65.0353 Q196.0424 -63.3009 196.7846 -62.3947 Q197.5267 -61.4884 198.9486 -61.4884 Q200.3705 -61.4884 201.0971 -62.3869 Q201.8236 -63.2853 201.8236 -65.0353 Q201.8236 -66.7697 201.0971 -67.6603 Q200.3705 -68.5509 198.9486 -68.5509 Q197.5267 -68.5509 196.7846 -67.6525 Q196.0424 -66.7541 196.0424 -65.0353 Z"/><path style="fill:none; stroke:black;" d="M-166.3785 -32.6415 L-166.224 -32.166 L-165.7672 -31.9626"/><path style="fill:none; stroke:black;" d="M-141.6194 10.2446 L-141.954 9.873 L-141.9018 9.3757"/><path style="fill:none; stroke:black;" d="M-186.7861 -9.9769 L-186.297 -9.873 L-185.9624 -10.2446"/><path style="fill:none; stroke:black;" d="M-175.3395 -60.2235 L-175.494 -60.699 L-175.9831 -60.8029"/><path style="fill:none; stroke:black;" d="M-171.4515 16.5855 L-171.297 16.11 L-170.8079 16.006"/><path style="fill:none; stroke:black;" d="M-122.2156 31.7944 L-121.881 32.166 L-122.0355 32.6415"/><path style="fill:none; stroke:black;" d="M-215.1539 -16.0061 L-215.643 -16.11 L-215.7975 -16.5855"/><path style="fill:none; stroke:black;" d="M-204.3509 -66.8321 L-204.84 -66.936 L-205.1745 -66.5644"/><path style="fill:none; stroke:black;" d="M-180.4125 44.1645 L-180.567 44.64 L-180.2325 45.0116"/><path style="fill:none; stroke:black;" d="M-130.9965 60.2235 L-131.151 60.699 L-131.6401 60.803"/><path style="fill:none; stroke:black;" d="M-224.7585 -44.1645 L-224.913 -44.64 L-224.5784 -45.0116"/><path style="fill:none; stroke:black;" d="M-160.8286 66.5644 L-160.494 66.936 L-160.0049 66.832"/></g></g></svg></svg></svg></svg>