<svg xmlns:ns0="http://www.w3.org/2000/svg" xmlns="http://www.w3.org/2000/svg"><g transform="translate(0, 0)"><ns0:svg width="111" viewBox="0 0 111 86" style="fill-opacity:1; color-rendering:auto; color-interpolation:auto; text-rendering:auto; stroke:black; stroke-linecap:square; stroke-miterlimit:10; shape-rendering:auto; stroke-opacity:1; fill:black; stroke-dasharray:none; font-weight:normal; stroke-width:1; font-family:'Open Sans'; font-style:normal; stroke-linejoin:miter; font-size:12; stroke-dashoffset:0; image-rendering:auto;" height="86" class="cas-substance-image"><ns0:svg class="cas-substance-single-component"><ns0:rect y="0" x="0" width="111" stroke="none" ry="7" rx="7" height="86" fill="white" class="cas-substance-group" /><ns0:svg y="0" x="0" width="111" viewBox="0 0 111 71" style="fill:black;" height="71" class="cas-substance-single-component-image"><ns0:svg><ns0:g><ns0:g transform="translate(55,37)" style="text-rendering:geometricPrecision; color-rendering:optimizeQuality; color-interpolation:linearRGB; stroke-linecap:butt; image-rendering:optimizeQuality;"><ns0:line y2="0" y1="0" x2="-22.5" x1="7.5" style="fill:none;" /><ns0:line y2="-20.332" y1="0" x2="19.239" x1="7.5" style="fill:none;" /><ns0:line y2="21.1274" y1="0" x2="17.6775" x1="5.4793" style="fill:none;" /><ns0:line y2="19.3774" y1="-1.75" x2="20.7086" x1="8.5104" style="fill:none;" /><ns0:line y2="30" y1="0" x2="-22.5" x1="-22.5" style="fill:none;" /><ns0:line y2="0" y1="0" x2="-52.5" x1="-22.5" style="fill:none;" /><ns0:line y2="-23.8438" y1="0" x2="-22.5" x1="-22.5" style="fill:none;" /><ns0:line y2="-25.98" y1="-25.98" x2="52.5" x1="28.4375" style="fill:none;" /><ns0:path style="fill:none; stroke-miterlimit:5;" d="M7 -0 L7.5 0 L7.75 -0.433" /></ns0:g><ns0:g transform="translate(55,37)" style="stroke-linecap:butt; fill:rgb(230,0,0); text-rendering:geometricPrecision; color-rendering:optimizeQuality; image-rendering:optimizeQuality; font-family:'Open Sans'; stroke:rgb(230,0,0); color-interpolation:linearRGB; stroke-miterlimit:5;"><ns0:path style="stroke:none;" d="M26.4375 -26.0503 Q26.4375 -23.9878 25.3984 -22.8081 Q24.3594 -21.6284 22.5156 -21.6284 Q20.625 -21.6284 19.5938 -22.7925 Q18.5625 -23.9566 18.5625 -26.0659 Q18.5625 -28.1597 19.5938 -29.3081 Q20.625 -30.4566 22.5156 -30.4566 Q24.375 -30.4566 25.4062 -29.2847 Q26.4375 -28.1128 26.4375 -26.0503 ZM19.6094 -26.0503 Q19.6094 -24.3159 20.3516 -23.4097 Q21.0938 -22.5034 22.5156 -22.5034 Q23.9375 -22.5034 24.6641 -23.4019 Q25.3906 -24.3003 25.3906 -26.0503 Q25.3906 -27.7847 24.6641 -28.6753 Q23.9375 -29.5659 22.5156 -29.5659 Q21.0938 -29.5659 20.3516 -28.6675 Q19.6094 -27.7691 19.6094 -26.0503 Z" /><ns0:path style="stroke:none;" d="M26.4375 25.9097 Q26.4375 27.9722 25.3984 29.1519 Q24.3594 30.3316 22.5156 30.3316 Q20.625 30.3316 19.5938 29.1675 Q18.5625 28.0034 18.5625 25.8941 Q18.5625 23.8003 19.5938 22.6519 Q20.625 21.5034 22.5156 21.5034 Q24.375 21.5034 25.4062 22.6753 Q26.4375 23.8472 26.4375 25.9097 ZM19.6094 25.9097 Q19.6094 27.6441 20.3516 28.5503 Q21.0938 29.4566 22.5156 29.4566 Q23.9375 29.4566 24.6641 28.5581 Q25.3906 27.6597 25.3906 25.9097 Q25.3906 24.1753 24.6641 23.2847 Q23.9375 22.3941 22.5156 22.3941 Q21.0938 22.3941 20.3516 23.2925 Q19.6094 24.1909 19.6094 25.9097 Z" /><ns0:path style="fill:rgb(0,5,255); stroke:none;" d="M-19.1484 -25.8438 L-20.2891 -25.8438 L-24.9766 -33.0312 L-25.0234 -33.0312 Q-24.9297 -31.7656 -24.9297 -30.7188 L-24.9297 -25.8438 L-25.8516 -25.8438 L-25.8516 -34.4062 L-24.7266 -34.4062 L-20.0547 -27.25 L-20.0078 -27.25 Q-20.0078 -27.4062 -20.0547 -28.2656 Q-20.1016 -29.125 -20.0859 -29.5 L-20.0859 -34.4062 L-19.1484 -34.4062 L-19.1484 -25.8438 Z" /><ns0:path style="fill:rgb(0,5,255); stroke:none;" d="M-11.6328 -25.8438 L-12.6328 -25.8438 L-12.6328 -29.875 L-17.1484 -29.875 L-17.1484 -25.8438 L-18.1484 -25.8438 L-18.1484 -34.4062 L-17.1484 -34.4062 L-17.1484 -30.7656 L-12.6328 -30.7656 L-12.6328 -34.4062 L-11.6328 -34.4062 L-11.6328 -25.8438 Z" /><ns0:path style="fill:rgb(0,5,255); stroke:none;" d="M-6.8828 -24.0344 L-10.6328 -24.0344 L-10.6328 -24.5969 L-9.1328 -26.1125 Q-8.4453 -26.8 -8.2266 -27.0969 Q-8.0078 -27.3937 -7.8984 -27.675 Q-7.7891 -27.9562 -7.7891 -28.2844 Q-7.7891 -28.7375 -8.0625 -29.0031 Q-8.3359 -29.2687 -8.8359 -29.2687 Q-9.1797 -29.2687 -9.5 -29.1516 Q-9.8203 -29.0344 -10.2109 -28.7375 L-10.5547 -29.175 Q-9.7734 -29.8312 -8.8359 -29.8312 Q-8.0391 -29.8312 -7.5781 -29.4172 Q-7.1172 -29.0031 -7.1172 -28.3156 Q-7.1172 -27.7687 -7.4219 -27.2375 Q-7.7266 -26.7062 -8.5703 -25.8937 L-9.8203 -24.675 L-9.8203 -24.6437 L-6.8828 -24.6437 L-6.8828 -24.0344 Z" /></ns0:g></ns0:g></ns0:svg></ns0:svg><ns0:svg y="71" x="47" class="cas-substance-saf"><ns0:svg y="5" x="0" width="4" style="fill:black;" height="4" class="cas-substance-saf-dot"><ns0:circle stroke="none" r="2" fill="black" cy="2" cx="2" /></ns0:svg><ns0:svg y="0" x="8" width="22" style="fill:black;" height="15" class="cas-substance-saf-image"><ns0:svg><ns0:g><ns0:g transform="translate(6,8)" style="fill:rgb(0,138,0); text-rendering:geometricPrecision; color-rendering:optimizeQuality; image-rendering:optimizeQuality; font-family:'Open Sans'; stroke:rgb(0,138,0); color-interpolation:linearRGB;"><ns0:path style="stroke:none;" d="M3.2578 4.1562 L2.2578 4.1562 L2.2578 0.125 L-2.2578 0.125 L-2.2578 4.1562 L-3.2578 4.1562 L-3.2578 -4.4062 L-2.2578 -4.4062 L-2.2578 -0.7656 L2.2578 -0.7656 L2.2578 -4.4062 L3.2578 -4.4062 L3.2578 4.1562 Z" /><ns0:path style="stroke:none;" d="M8.3672 -3.6406 Q6.9609 -3.6406 6.1406 -2.7031 Q5.3203 -1.7656 5.3203 -0.125 Q5.3203 1.5469 6.1094 2.4688 Q6.8984 3.3906 8.3516 3.3906 Q9.2578 3.3906 10.3984 3.0625 L10.3984 3.9375 Q9.5078 4.2812 8.2109 4.2812 Q6.3203 4.2812 5.2891 3.125 Q4.2578 1.9688 4.2578 -0.1406 Q4.2578 -1.4688 4.75 -2.4609 Q5.2422 -3.4531 6.1797 -3.9922 Q7.1172 -4.5312 8.3828 -4.5312 Q9.7266 -4.5312 10.7422 -4.0469 L10.3203 -3.1875 Q9.3359 -3.6406 8.3672 -3.6406 ZM13.0938 4.1562 L12.125 4.1562 L12.125 -4.9688 L13.0938 -4.9688 L13.0938 4.1562 Z" /></ns0:g></ns0:g></ns0:svg></ns0:svg></ns0:svg></ns0:svg></ns0:svg></g></svg>