<svg xmlns:ns0="http://www.w3.org/2000/svg" xmlns="http://www.w3.org/2000/svg"><g transform="translate(0, 0)"><ns0:svg width="163" viewBox="0 0 163 135" style="fill-opacity:1; color-rendering:auto; color-interpolation:auto; text-rendering:auto; stroke:black; stroke-linecap:square; stroke-miterlimit:10; shape-rendering:auto; stroke-opacity:1; fill:black; stroke-dasharray:none; font-weight:normal; stroke-width:1; font-family:'Open Sans'; font-style:normal; stroke-linejoin:miter; font-size:12; stroke-dashoffset:0; image-rendering:auto;" height="135" class="cas-substance-image"><ns0:svg class="cas-substance-single-component"><ns0:rect y="0" x="0" width="163" stroke="none" ry="7" rx="7" height="135" fill="white" class="cas-substance-group" /><ns0:svg y="0" x="0" width="163" viewBox="0 0 163 135" style="fill:black;" height="135" class="cas-substance-single-component-image"><ns0:svg><ns0:g><ns0:g transform="translate(81,67)" style="text-rendering:geometricPrecision; color-rendering:optimizeQuality; color-interpolation:linearRGB; stroke-linecap:butt; image-rendering:optimizeQuality;"><ns0:line y2="30" y1="54.0468" x2="0" x1="0" style="fill:none;" /><ns0:line y2="-30" y1="-53.8438" x2="0" x1="0" style="fill:none;" /><ns0:line y2="-15" y1="15" x2="-25.98" x1="-25.98" style="fill:none;" /><ns0:line y2="-12.9793" y1="12.9793" x2="-29.48" x1="-29.48" style="fill:none;" /><ns0:line y2="30" y1="15" x2="0" x1="-25.98" style="fill:none;" /><ns0:line y2="30" y1="15" x2="-51.963" x1="-25.98" style="fill:none;" /><ns0:line y2="-30" y1="-15" x2="0" x1="-25.98" style="fill:none;" /><ns0:line y2="-30" y1="-15" x2="-51.963" x1="-25.98" style="fill:none;" /><ns0:line y2="15" y1="30" x2="25.98" x1="0" style="fill:none;" /><ns0:line y2="12.9793" y1="25.9585" x2="22.48" x1="-0.0001" style="fill:none;" /><ns0:line y2="15" y1="30" x2="-77.943" x1="-51.963" style="fill:none;" /><ns0:line y2="12.9793" y1="25.9585" x2="-74.443" x1="-51.963" style="fill:none;" /><ns0:line y2="-15" y1="-30" x2="25.98" x1="0" style="fill:none;" /><ns0:line y2="-12.9793" y1="-25.9585" x2="22.48" x1="-0.0001" style="fill:none;" /><ns0:line y2="-15" y1="-30" x2="-77.943" x1="-51.963" style="fill:none;" /><ns0:line y2="-12.9793" y1="-25.9585" x2="-74.443" x1="-51.963" style="fill:none;" /><ns0:line y2="-15" y1="15" x2="25.98" x1="25.98" style="fill:none;" /><ns0:line y2="30" y1="15" x2="51.963" x1="25.98" style="fill:none;" /><ns0:line y2="-15" y1="15" x2="-77.943" x1="-77.943" style="fill:none;" /><ns0:line y2="-30" y1="-15" x2="51.963" x1="25.98" style="fill:none;" /><ns0:line y2="15" y1="30" x2="77.943" x1="51.963" style="fill:none;" /><ns0:line y2="12.9793" y1="25.9585" x2="74.443" x1="51.963" style="fill:none;" /><ns0:line y2="-15" y1="-30" x2="77.943" x1="51.963" style="fill:none;" /><ns0:line y2="-12.9793" y1="-25.9585" x2="74.443" x1="51.963" style="fill:none;" /><ns0:line y2="-15" y1="15" x2="77.943" x1="77.943" style="fill:none;" /></ns0:g><ns0:g transform="translate(81,67)" style="fill:rgb(0,138,0); text-rendering:geometricPrecision; color-rendering:optimizeQuality; image-rendering:optimizeQuality; font-family:'Open Sans'; stroke:rgb(0,138,0); color-interpolation:linearRGB;"><ns0:path style="stroke:none;" d="M-5.6689 55.5938 L-3.2471 55.5938 Q-1.5439 55.5938 -0.7783 56.1016 Q-0.0127 56.6094 -0.0127 57.7031 Q-0.0127 58.4688 -0.4346 58.9688 Q-0.8564 59.4688 -1.6846 59.6094 L-1.6846 59.6719 Q0.2686 60 0.2686 61.7188 Q0.2686 62.8594 -0.5049 63.5078 Q-1.2783 64.1562 -2.6689 64.1562 L-5.6689 64.1562 L-5.6689 55.5938 ZM-4.6689 59.25 L-3.0283 59.25 Q-1.9658 59.25 -1.5049 58.9219 Q-1.0439 58.5938 -1.0439 57.8125 Q-1.0439 57.0938 -1.5596 56.7734 Q-2.0752 56.4531 -3.2002 56.4531 L-4.6689 56.4531 L-4.6689 59.25 ZM-4.6689 60.0938 L-4.6689 63.3125 L-2.8721 63.3125 Q-1.8408 63.3125 -1.3174 62.9062 Q-0.7939 62.5 -0.7939 61.6406 Q-0.7939 60.8438 -1.333 60.4688 Q-1.8721 60.0938 -2.9658 60.0938 L-4.6689 60.0938 ZM4.9033 57.6094 Q5.3252 57.6094 5.6689 57.6875 L5.5283 58.5938 Q5.1377 58.5 4.8252 58.5 Q4.0439 58.5 3.4893 59.1328 Q2.9346 59.7656 2.9346 60.7031 L2.9346 64.1562 L1.9658 64.1562 L1.9658 57.7344 L2.7627 57.7344 L2.8877 58.9219 L2.9346 58.9219 Q3.2783 58.2969 3.7861 57.9531 Q4.2939 57.6094 4.9033 57.6094 Z" /><ns0:path style="stroke:none;" d="M-5.6689 -64.4062 L-3.2471 -64.4062 Q-1.5439 -64.4062 -0.7783 -63.8984 Q-0.0127 -63.3906 -0.0127 -62.2969 Q-0.0127 -61.5312 -0.4346 -61.0312 Q-0.8564 -60.5312 -1.6846 -60.3906 L-1.6846 -60.3281 Q0.2686 -60 0.2686 -58.2812 Q0.2686 -57.1406 -0.5049 -56.4922 Q-1.2783 -55.8438 -2.6689 -55.8438 L-5.6689 -55.8438 L-5.6689 -64.4062 ZM-4.6689 -60.75 L-3.0283 -60.75 Q-1.9658 -60.75 -1.5049 -61.0781 Q-1.0439 -61.4062 -1.0439 -62.1875 Q-1.0439 -62.9062 -1.5596 -63.2266 Q-2.0752 -63.5469 -3.2002 -63.5469 L-4.6689 -63.5469 L-4.6689 -60.75 ZM-4.6689 -59.9062 L-4.6689 -56.6875 L-2.8721 -56.6875 Q-1.8408 -56.6875 -1.3174 -57.0938 Q-0.7939 -57.5 -0.7939 -58.3594 Q-0.7939 -59.1562 -1.333 -59.5312 Q-1.8721 -59.9062 -2.9658 -59.9062 L-4.6689 -59.9062 ZM4.9033 -62.3906 Q5.3252 -62.3906 5.6689 -62.3125 L5.5283 -61.4062 Q5.1377 -61.5 4.8252 -61.5 Q4.0439 -61.5 3.4893 -60.8672 Q2.9346 -60.2344 2.9346 -59.2969 L2.9346 -55.8438 L1.9658 -55.8438 L1.9658 -62.2656 L2.7627 -62.2656 L2.8877 -61.0781 L2.9346 -61.0781 Q3.2783 -61.7031 3.7861 -62.0469 Q4.2939 -62.3906 4.9033 -62.3906 Z" /></ns0:g><ns0:g transform="translate(81,67)" style="stroke-linecap:butt; text-rendering:geometricPrecision; color-rendering:optimizeQuality; image-rendering:optimizeQuality; font-family:'Open Sans'; color-interpolation:linearRGB; stroke-miterlimit:5;"><ns0:path style="fill:none;" d="M-25.98 14.5 L-25.98 15 L-25.547 15.25" /><ns0:path style="fill:none;" d="M-25.98 -14.5 L-25.98 -15 L-25.547 -15.25" /><ns0:path style="fill:none;" d="M0.433 29.75 L0 30 L-0 30.5" /><ns0:path style="fill:none;" d="M-51.53 29.75 L-51.963 30 L-52.396 29.75" /><ns0:path style="fill:none;" d="M0.433 -29.75 L0 -30 L-0.433 -29.75" /><ns0:path style="fill:none;" d="M-51.53 -29.75 L-51.963 -30 L-52.396 -29.75" /><ns0:path style="fill:none;" d="M25.547 15.25 L25.98 15 L25.98 14.5" /><ns0:path style="fill:none;" d="M-77.51 15.25 L-77.943 15 L-77.943 14.5" /><ns0:path style="fill:none;" d="M25.547 -15.25 L25.98 -15 L26.413 -15.25" /><ns0:path style="fill:none;" d="M-77.51 -15.25 L-77.943 -15 L-77.943 -14.5" /><ns0:path style="fill:none;" d="M51.53 29.75 L51.963 30 L52.396 29.75" /><ns0:path style="fill:none;" d="M51.53 -29.75 L51.963 -30 L52.396 -29.75" /><ns0:path style="fill:none;" d="M77.51 15.25 L77.943 15 L77.943 14.5" /><ns0:path style="fill:none;" d="M77.51 -15.25 L77.943 -15 L77.943 -14.5" /></ns0:g></ns0:g></ns0:svg></ns0:svg></ns0:svg></ns0:svg></g></svg>