<svg width="319" viewBox="0 0 319 130" style="fill-opacity:1; color-rendering:auto; color-interpolation:auto; text-rendering:auto; stroke:black; stroke-linecap:square; stroke-miterlimit:10; shape-rendering:auto; stroke-opacity:1; fill:black; stroke-dasharray:none; font-weight:normal; stroke-width:1; font-family:'Open Sans'; font-style:normal; stroke-linejoin:miter; font-size:12; stroke-dashoffset:0; image-rendering:auto;" height="130" class="cas-substance-image" xmlns:xlink="http://www.w3.org/1999/xlink" xmlns="http://www.w3.org/2000/svg"><svg class="cas-substance-single-component"><rect y="0" x="0" width="319" stroke="none" ry="7" rx="7" height="130" fill="white" class="cas-substance-group"/><svg y="0" x="0" width="319" viewBox="0 0 319 130" style="fill:black;" height="130" class="cas-substance-single-component-image"><svg><g><g transform="translate(159,67)" style="text-rendering:geometricPrecision; color-rendering:optimizeQuality; color-interpolation:linearRGB; stroke-linecap:butt; image-rendering:optimizeQuality;"><line y2="-18.2414" y1="-30" x2="98.3089" x1="77.943" style="fill:none;"/><line y2="-53.6484" y1="-28.9896" x2="79.693" x1="79.693" style="fill:none;"/><line y2="-53.6484" y1="-28.9896" x2="76.193" x1="76.193" style="fill:none;"/><line y2="-15" y1="-30" x2="51.963" x1="77.943" style="fill:none;"/><line y2="-30" y1="-18.226" x2="129.903" x1="109.5105" style="fill:none;"/><line y2="-15" y1="-30" x2="155.886" x1="129.903" style="fill:none;"/><line y2="15" y1="27.0649" x2="-51.96" x1="-31.0636" style="fill:none;"/><line y2="19.0415" y1="30.096" x2="-51.96" x1="-32.8136" style="fill:none;"/><line y2="15" y1="27.0649" x2="0" x1="-20.8964" style="fill:none;"/><line y2="27.0652" y1="15" x2="-72.8594" x1="-51.96" style="fill:none;"/><line y2="60" y1="36.1562" x2="-77.943" x1="-77.943" style="fill:none;"/><line y2="15" y1="27.0649" x2="-103.923" x1="-83.0266" style="fill:none;"/><line y2="-30" y1="-15" x2="25.98" x1="51.963" style="fill:none;"/><line y2="-25.9585" y1="-12.9791" x2="25.9802" x1="48.4631" style="fill:none;"/><line y2="15" y1="-15" x2="51.963" x1="51.963" style="fill:none;"/><line y2="-15" y1="-30" x2="0" x1="25.98" style="fill:none;"/><line y2="30" y1="15" x2="25.98" x1="51.963" style="fill:none;"/><line y2="25.9585" y1="12.9791" x2="25.9802" x1="48.4631" style="fill:none;"/><line y2="15" y1="-15" x2="0" x1="0" style="fill:none;"/><line y2="12.9793" y1="-12.9793" x2="3.5" x1="3.5" style="fill:none;"/><line y2="15" y1="30" x2="0" x1="25.98" style="fill:none;"/><line y2="-15" y1="15" x2="-103.923" x1="-103.923" style="fill:none;"/><line y2="-12.9793" y1="12.9793" x2="-107.423" x1="-107.423" style="fill:none;"/><line y2="30" y1="15" x2="-129.903" x1="-103.923" style="fill:none;"/><line y2="-30" y1="-15" x2="-129.903" x1="-103.923" style="fill:none;"/><line y2="15" y1="30" x2="-155.886" x1="-129.903" style="fill:none;"/><line y2="12.9791" y1="25.9585" x2="-152.3861" x1="-129.9031" style="fill:none;"/><line y2="-15" y1="-30" x2="-155.886" x1="-129.903" style="fill:none;"/><line y2="-12.9791" y1="-25.9585" x2="-152.3861" x1="-129.9031" style="fill:none;"/><line y2="-15" y1="15" x2="-155.886" x1="-155.886" style="fill:none;"/><path style="fill:none; stroke-miterlimit:5;" d="M78.376 -29.75 L77.943 -30 L77.51 -29.75"/></g><g transform="translate(159,67)" style="stroke-linecap:butt; fill:rgb(230,0,0); text-rendering:geometricPrecision; color-rendering:optimizeQuality; image-rendering:optimizeQuality; font-family:'Open Sans'; stroke:rgb(230,0,0); color-interpolation:linearRGB; stroke-miterlimit:5;"><path style="stroke:none;" d="M107.8605 -15.0703 Q107.8605 -13.0078 106.8214 -11.8281 Q105.7824 -10.6484 103.9386 -10.6484 Q102.048 -10.6484 101.0167 -11.8125 Q99.9855 -12.9766 99.9855 -15.0859 Q99.9855 -17.1797 101.0167 -18.3281 Q102.048 -19.4766 103.9386 -19.4766 Q105.798 -19.4766 106.8292 -18.3047 Q107.8605 -17.1328 107.8605 -15.0703 ZM101.0324 -15.0703 Q101.0324 -13.3359 101.7746 -12.4297 Q102.5167 -11.5234 103.9386 -11.5234 Q105.3605 -11.5234 106.0871 -12.4219 Q106.8136 -13.3203 106.8136 -15.0703 Q106.8136 -16.8047 106.0871 -17.6953 Q105.3605 -18.5859 103.9386 -18.5859 Q102.5167 -18.5859 101.7746 -17.6875 Q101.0324 -16.7891 101.0324 -15.0703 Z"/><path style="stroke:none;" d="M81.8805 -60.0703 Q81.8805 -58.0078 80.8414 -56.8281 Q79.8024 -55.6484 77.9586 -55.6484 Q76.068 -55.6484 75.0368 -56.8125 Q74.0055 -57.9766 74.0055 -60.0859 Q74.0055 -62.1797 75.0368 -63.3281 Q76.068 -64.4766 77.9586 -64.4766 Q79.818 -64.4766 80.8493 -63.3047 Q81.8805 -62.1328 81.8805 -60.0703 ZM75.0524 -60.0703 Q75.0524 -58.3359 75.7946 -57.4297 Q76.5368 -56.5234 77.9586 -56.5234 Q79.3805 -56.5234 80.1071 -57.4219 Q80.8336 -58.3203 80.8336 -60.0703 Q80.8336 -61.8047 80.1071 -62.6953 Q79.3805 -63.5859 77.9586 -63.5859 Q76.5368 -63.5859 75.7946 -62.6875 Q75.0524 -61.7891 75.0524 -60.0703 Z"/><path style="fill:none; stroke:black;" d="M129.47 -29.75 L129.903 -30 L130.336 -29.75"/><path style="fill:rgb(0,5,255); stroke:none;" d="M-22.6284 34.1562 L-23.7691 34.1562 L-28.4566 26.9688 L-28.5034 26.9688 Q-28.4097 28.2344 -28.4097 29.2812 L-28.4097 34.1562 L-29.3316 34.1562 L-29.3316 25.5938 L-28.2066 25.5938 L-23.5347 32.75 L-23.4878 32.75 Q-23.4878 32.5938 -23.5347 31.7344 Q-23.5816 30.875 -23.5659 30.5 L-23.5659 25.5938 L-22.6284 25.5938 L-22.6284 34.1562 Z"/><path style="fill:none; stroke:black;" d="M-51.527 15.25 L-51.96 15 L-52.393 15.25"/><path style="fill:rgb(0,5,255); stroke:none;" d="M-74.5914 34.1562 L-75.7321 34.1562 L-80.4196 26.9688 L-80.4664 26.9688 Q-80.3727 28.2344 -80.3727 29.2812 L-80.3727 34.1562 L-81.2946 34.1562 L-81.2946 25.5938 L-80.1696 25.5938 L-75.4977 32.75 L-75.4508 32.75 Q-75.4508 32.5938 -75.4977 31.7344 Q-75.5446 30.875 -75.5289 30.5 L-75.5289 25.5938 L-74.5914 25.5938 L-74.5914 34.1562 Z"/><path style="fill:none; stroke:black;" d="M51.53 -15.25 L51.963 -15 L52.396 -15.25"/><path style="fill:none; stroke:black;" d="M26.413 -29.75 L25.98 -30 L25.547 -29.75"/><path style="fill:none; stroke:black;" d="M51.963 14.5 L51.963 15 L51.53 15.25"/><path style="fill:none; stroke:black;" d="M0.433 -15.25 L0 -15 L-0 -14.5"/><path style="fill:none; stroke:black;" d="M26.413 29.75 L25.98 30 L25.547 29.75"/><path style="fill:none; stroke:black;" d="M0 14.5 L0 15 L-0.433 15.25"/><path style="fill:none; stroke:black;" d="M-103.923 14.5 L-103.923 15 L-103.49 15.25"/><path style="fill:none; stroke:black;" d="M-103.923 -14.5 L-103.923 -15 L-104.356 -15.25"/><path style="fill:none; stroke:black;" d="M-129.47 29.75 L-129.903 30 L-130.336 29.75"/><path style="fill:none; stroke:black;" d="M-129.47 -29.75 L-129.903 -30 L-130.336 -29.75"/><path style="fill:none; stroke:black;" d="M-155.453 15.25 L-155.886 15 L-155.886 14.5"/><path style="fill:none; stroke:black;" d="M-155.453 -15.25 L-155.886 -15 L-155.886 -14.5"/></g></g></svg></svg></svg></svg>