<svg xmlns:ns0="http://www.w3.org/2000/svg" xmlns="http://www.w3.org/2000/svg"><g transform="translate(0, 0)"><ns0:svg width="157" viewBox="0 0 157 120" style="fill-opacity:1; color-rendering:auto; color-interpolation:auto; text-rendering:auto; stroke:black; stroke-linecap:square; stroke-miterlimit:10; shape-rendering:auto; stroke-opacity:1; fill:black; stroke-dasharray:none; font-weight:normal; stroke-width:1; font-family:'Open Sans'; font-style:normal; stroke-linejoin:miter; font-size:12; stroke-dashoffset:0; image-rendering:auto;" height="120" class="cas-substance-image"><ns0:svg class="cas-substance-single-component"><ns0:rect y="0" x="0" width="157" stroke="none" ry="7" rx="7" height="120" fill="white" class="cas-substance-group" /><ns0:svg y="0" x="0" width="157" viewBox="0 0 157 120" style="fill:black;" height="120" class="cas-substance-single-component-image"><ns0:svg><ns0:g><ns0:clipPath id="clipPath_29ca7ea22b434de3bc7092f1780e63fe1" clipPathUnits="userSpaceOnUse"><ns0:path d="M-9.5572 -39.7062 L-40.8184 -7.469 L-12.1028 20.3772 L2.3345 5.4892 L-26.6605 -9.6412 L-23.8847 -14.9605 L6.6922 0.9954 L19.1584 -11.86 L-9.5572 -39.7062 Z" /></ns0:clipPath><ns0:g transform="translate(80,58)" style="text-rendering:geometricPrecision; color-rendering:optimizeQuality; color-interpolation:linearRGB; stroke-linecap:butt; image-rendering:optimizeQuality;"><ns0:line y2="16.218" y1="-9.762" x2="73.446" x1="58.446" style="fill:none;" /><ns0:line y2="17.968" y1="-6.262" x2="70.4149" x1="56.4253" style="fill:none;" /><ns0:path style="stroke:none;" d="M28.446 -9.262 L28.446 -10.262 L57.1469 -13.012 L60.6111 -7.012 Z" /><ns0:line y2="48.0762" y1="24.564" x2="-73.2685" x1="-72.624" style="fill:none;" /><ns0:path style="stroke:none;" d="M-47.4016 10.2397 L-48.3234 10.6381 L-47.6889 11.8122 L-46.8466 11.2666 L-47.4016 10.2397 ZM-50.167 11.435 L-51.0888 11.8335 L-50.2157 13.4491 L-49.3734 12.9035 L-49.3734 12.9035 L-50.167 11.435 ZM-52.9324 12.6304 L-53.8543 13.0289 L-52.7425 15.086 L-51.9002 14.5403 L-52.9324 12.6304 ZM-55.6979 13.8258 L-56.6197 14.2242 L-56.6197 14.2242 L-55.2693 16.7229 L-55.2693 16.7229 L-54.427 16.1772 L-54.427 16.1772 L-55.6979 13.8258 ZM-58.4633 15.0211 L-59.3851 15.4196 L-59.3851 15.4196 L-57.7961 18.3597 L-56.9538 17.8141 L-58.4633 15.0211 ZM-61.2287 16.2165 L-62.1505 16.615 L-60.3229 19.9966 L-60.3229 19.9966 L-59.4806 19.451 L-59.4806 19.451 L-61.2287 16.2165 ZM-63.9941 17.4119 L-64.9159 17.8103 L-62.8497 21.6335 L-62.0074 21.0879 L-63.9941 17.4119 ZM-66.7595 18.6072 L-67.6813 19.0057 L-65.3765 23.2704 L-64.5342 22.7247 L-66.7595 18.6072 ZM-69.5249 19.8026 L-70.4467 20.2011 L-67.9033 24.9073 L-67.9033 24.9073 L-67.0611 24.3616 L-69.5249 19.8026 ZM-72.2904 20.998 L-72.5291 21.1012 L-72.5698 22.5851 L-72.5698 22.5851 L-70.4301 26.5441 L-69.5879 25.9985 L-72.2904 20.998 Z" /><ns0:line y2="-9.762" y1="-23.091" x2="28.446" x1="2.19" style="fill:none;" /><ns0:line y2="3.762" y1="-23.091" x2="-23.85" x1="2.19" style="fill:none; clip-path:url(#clipPath_29ca7ea22b434de3bc7092f1780e63fe1);" /><ns0:line y2="-54.552" y1="-23.091" x2="-6.279" x1="2.19" style="fill:none;" /><ns0:line y2="2.808" y1="-9.762" x2="3.681" x1="28.446" style="fill:none;" /><ns0:line y2="10.281" y1="3.762" x2="-46.242" x1="-23.85" style="fill:none;" /><ns0:line y2="-40.875" y1="-54.552" x2="-29.832" x1="-6.279" style="fill:none;" /><ns0:path style="stroke:none;" d="M-17.0546 -7.4485 L-16.592 -8.3351 L7.1946 1.5853 L0.6201 4.9224 Z" /><ns0:line y2="-6.3875" y1="10.281" x2="-26.8173" x1="-46.242" style="fill:none;" /><ns0:line y2="-16.9078" y1="-40.875" x2="-23.5976" x1="-29.832" style="fill:none;" /><ns0:path style="stroke:none;" d="M2.5052 -22.7029 L1.8748 -23.4791 L18.7775 -40.4255 L22.5598 -35.7679 Z" /></ns0:g><ns0:g transform="translate(80,58)" style="fill:rgb(230,0,0); text-rendering:geometricPrecision; color-rendering:optimizeQuality; image-rendering:optimizeQuality; font-family:'Open Sans'; stroke:rgb(230,0,0); color-interpolation:linearRGB;"><ns0:path style="stroke:none;" d="M-69.5085 54.4817 Q-69.5085 56.5442 -70.5476 57.7239 Q-71.5866 58.9036 -73.4304 58.9036 Q-75.321 58.9036 -76.3522 57.7395 Q-77.3835 56.5754 -77.3835 54.4661 Q-77.3835 52.3723 -76.3522 51.2239 Q-75.321 50.0754 -73.4304 50.0754 Q-71.571 50.0754 -70.5397 51.2473 Q-69.5085 52.4192 -69.5085 54.4817 ZM-76.3366 54.4817 Q-76.3366 56.2161 -75.5944 57.1223 Q-74.8522 58.0286 -73.4304 58.0286 Q-72.0085 58.0286 -71.2819 57.1301 Q-70.5554 56.2317 -70.5554 54.4817 Q-70.5554 52.7473 -71.2819 51.8567 Q-72.0085 50.9661 -73.4304 50.9661 Q-74.8522 50.9661 -75.5944 51.8645 Q-76.3366 52.7629 -76.3366 54.4817 Z" /><ns0:path style="stroke:none;" d="M-61.9929 58.7786 L-62.9929 58.7786 L-62.9929 54.7473 L-67.5085 54.7473 L-67.5085 58.7786 L-68.5085 58.7786 L-68.5085 50.2161 L-67.5085 50.2161 L-67.5085 53.8567 L-62.9929 53.8567 L-62.9929 50.2161 L-61.9929 50.2161 L-61.9929 58.7786 Z" /></ns0:g><ns0:g transform="translate(80,58)" style="font-size:8.4px; fill:gray; text-rendering:geometricPrecision; image-rendering:optimizeQuality; color-rendering:optimizeQuality; font-family:'Open Sans'; font-style:italic; stroke:gray; color-interpolation:linearRGB;"><ns0:path style="stroke:none;" d="M-11.5988 -24.3962 Q-11.5988 -25.7243 -11.1301 -26.8493 Q-10.6613 -27.9743 -9.6301 -29.0524 L-9.0207 -29.0524 Q-9.9895 -27.9899 -10.4738 -26.818 Q-10.9582 -25.6462 -10.9582 -24.4118 Q-10.9582 -23.0837 -10.5207 -22.068 L-11.0363 -22.068 Q-11.5988 -23.0993 -11.5988 -24.3962 ZM-5.9763 -24.9899 Q-5.9763 -24.1618 -6.5232 -23.7087 Q-7.07 -23.2555 -8.07 -23.2555 Q-8.4763 -23.2555 -8.7888 -23.3102 Q-9.1013 -23.3649 -9.3825 -23.5055 L-9.3825 -24.1618 Q-8.7575 -23.8337 -8.0544 -23.8337 Q-7.4294 -23.8337 -7.0544 -24.1305 Q-6.6794 -24.4274 -6.6794 -24.943 Q-6.6794 -25.2555 -6.8825 -25.4821 Q-7.0857 -25.7087 -7.6482 -26.0368 Q-8.2419 -26.3649 -8.4685 -26.693 Q-8.695 -27.0212 -8.695 -27.4743 Q-8.695 -28.2087 -8.1794 -28.6696 Q-7.6638 -29.1305 -6.82 -29.1305 Q-6.445 -29.1305 -6.1091 -29.0524 Q-5.7732 -28.9743 -5.3982 -28.8024 L-5.6638 -28.2087 Q-5.9138 -28.3649 -6.2341 -28.4508 Q-6.5544 -28.5368 -6.82 -28.5368 Q-7.3513 -28.5368 -7.6716 -28.2633 Q-7.9919 -27.9899 -7.9919 -27.5212 Q-7.9919 -27.318 -7.9216 -27.1696 Q-7.8513 -27.0212 -7.7107 -26.8883 Q-7.57 -26.7555 -7.1482 -26.5055 Q-6.5857 -26.1618 -6.3825 -25.9665 Q-6.1794 -25.7712 -6.0778 -25.5368 Q-5.9763 -25.3024 -5.9763 -24.9899 ZM-3.3818 -26.7087 Q-3.3818 -25.3805 -3.8584 -24.2477 Q-4.3349 -23.1149 -5.3505 -22.068 L-5.9599 -22.068 Q-4.0224 -24.2243 -4.0224 -26.7087 Q-4.0224 -28.0368 -4.4599 -29.0524 L-3.9443 -29.0524 Q-3.3818 -27.9899 -3.3818 -26.7087 Z" /><ns0:path style="stroke:none;" d="M26.3846 -18.3234 Q26.3846 -19.6515 26.8533 -20.7765 Q27.3221 -21.9015 28.3533 -22.9796 L28.9627 -22.9796 Q27.994 -21.9171 27.5096 -20.7452 Q27.0252 -19.5734 27.0252 -18.339 Q27.0252 -17.0109 27.4627 -15.9952 L26.9471 -15.9952 Q26.3846 -17.0265 26.3846 -18.3234 ZM29.9446 -19.6359 L29.4446 -17.2609 L28.7884 -17.2609 L29.9915 -22.9796 L31.2415 -22.9796 Q32.9759 -22.9796 32.9759 -21.5421 Q32.9759 -20.1827 31.5384 -19.7921 L32.4759 -17.2609 L31.7571 -17.2609 L30.929 -19.6359 L29.9446 -19.6359 ZM30.5228 -22.3859 Q30.1321 -20.464 30.0696 -20.214 L30.7259 -20.214 Q31.4759 -20.214 31.8821 -20.5421 Q32.2884 -20.8702 32.2884 -21.4952 Q32.2884 -21.964 32.0306 -22.1749 Q31.7728 -22.3859 31.179 -22.3859 L30.5228 -22.3859 ZM35.1619 -20.6359 Q35.1619 -19.3077 34.6853 -18.1749 Q34.2087 -17.0421 33.1931 -15.9952 L32.5837 -15.9952 Q34.5212 -18.1515 34.5212 -20.6359 Q34.5212 -21.964 34.0837 -22.9796 L34.5994 -22.9796 Q35.1619 -21.9171 35.1619 -20.6359 Z" /></ns0:g><ns0:g transform="translate(80,58)" style="stroke-linecap:butt; font-size:8.4px; text-rendering:geometricPrecision; image-rendering:optimizeQuality; color-rendering:optimizeQuality; font-family:'Open Sans'; font-style:italic; color-interpolation:linearRGB; stroke-miterlimit:5;"><ns0:path style="fill:none;" d="M-23.5019 3.4031 L-23.85 3.762 L-24.3301 3.9018" /><ns0:path style="fill:none;" d="M-6.149 -54.0692 L-6.279 -54.552 L-6.7114 -54.3009" /><ns0:path style="fill:none;" d="M-45.7619 10.1412 L-46.242 10.281 L-45.8625 9.9554" /><ns0:path style="fill:gray; stroke:none;" d="M-46.831 20.6951 Q-46.831 19.367 -46.3623 18.242 Q-45.8935 17.117 -44.8623 16.0388 L-44.2529 16.0388 Q-45.2216 17.1013 -45.706 18.2732 Q-46.1904 19.4451 -46.1904 20.6795 Q-46.1904 22.0076 -45.7529 23.0232 L-46.2685 23.0232 Q-46.831 21.992 -46.831 20.6951 ZM-43.271 19.3826 L-43.771 21.7576 L-44.4272 21.7576 L-43.2241 16.0388 L-41.9741 16.0388 Q-40.2397 16.0388 -40.2397 17.4763 Q-40.2397 18.8357 -41.6772 19.2263 L-40.7397 21.7576 L-41.4585 21.7576 L-42.2866 19.3826 L-43.271 19.3826 ZM-42.6928 16.6326 Q-43.0835 18.5545 -43.146 18.8045 L-42.4897 18.8045 Q-41.7397 18.8045 -41.3335 18.4763 Q-40.9272 18.1482 -40.9272 17.5232 Q-40.9272 17.0545 -41.185 16.8435 Q-41.4428 16.6326 -42.0366 16.6326 L-42.6928 16.6326 ZM-38.0537 18.3826 Q-38.0537 19.7107 -38.5303 20.8435 Q-39.0069 21.9763 -40.0225 23.0232 L-40.6319 23.0232 Q-38.6944 20.867 -38.6944 18.3826 Q-38.6944 17.0545 -39.1319 16.0388 L-38.6162 16.0388 Q-38.0537 17.1013 -38.0537 18.3826 Z" /><ns0:path style="fill:none;" d="M-29.3996 -41.1261 L-29.832 -40.875 L-29.7061 -40.3911" /></ns0:g><ns0:g transform="translate(80,58)" style="stroke-linecap:butt; fill:rgb(0,5,255); text-rendering:geometricPrecision; color-rendering:optimizeQuality; image-rendering:optimizeQuality; font-family:'Open Sans'; stroke:rgb(0,5,255); color-interpolation:linearRGB; stroke-miterlimit:5;"><ns0:path style="stroke:none;" d="M-18.5964 -6.4097 L-19.7371 -6.4097 L-24.4246 -13.5972 L-24.4714 -13.5972 Q-24.3777 -12.3316 -24.3777 -11.2847 L-24.3777 -6.4097 L-25.2996 -6.4097 L-25.2996 -14.9722 L-24.1746 -14.9722 L-19.5027 -7.816 L-19.4558 -7.816 Q-19.4558 -7.9722 -19.5027 -8.8316 Q-19.5496 -9.691 -19.5339 -10.066 L-19.5339 -14.9722 L-18.5964 -14.9722 L-18.5964 -6.4097 Z" /></ns0:g><ns0:g transform="translate(80,58)" style="stroke-linecap:butt; font-size:8.4px; fill:gray; text-rendering:geometricPrecision; image-rendering:optimizeQuality; color-rendering:optimizeQuality; font-family:'Open Sans'; font-style:italic; stroke:gray; color-interpolation:linearRGB; stroke-miterlimit:5;"><ns0:path style="stroke:none;" d="M-17.9267 -15.8323 Q-17.9267 -17.1605 -17.458 -18.2855 Q-16.9892 -19.4105 -15.958 -20.4886 L-15.3486 -20.4886 Q-16.3174 -19.4261 -16.8017 -18.2542 Q-17.2861 -17.0823 -17.2861 -15.848 Q-17.2861 -14.5198 -16.8486 -13.5042 L-17.3642 -13.5042 Q-17.9267 -14.5355 -17.9267 -15.8323 ZM-12.3042 -16.4261 Q-12.3042 -15.598 -12.8511 -15.1448 Q-13.3979 -14.6917 -14.3979 -14.6917 Q-14.8042 -14.6917 -15.1167 -14.7464 Q-15.4292 -14.8011 -15.7104 -14.9417 L-15.7104 -15.598 Q-15.0854 -15.2698 -14.3823 -15.2698 Q-13.7573 -15.2698 -13.3823 -15.5667 Q-13.0073 -15.8636 -13.0073 -16.3792 Q-13.0073 -16.6917 -13.2104 -16.9183 Q-13.4136 -17.1448 -13.9761 -17.473 Q-14.5698 -17.8011 -14.7964 -18.1292 Q-15.0229 -18.4573 -15.0229 -18.9105 Q-15.0229 -19.6448 -14.5073 -20.1058 Q-13.9917 -20.5667 -13.1479 -20.5667 Q-12.7729 -20.5667 -12.437 -20.4886 Q-12.1011 -20.4105 -11.7261 -20.2386 L-11.9917 -19.6448 Q-12.2417 -19.8011 -12.562 -19.887 Q-12.8823 -19.973 -13.1479 -19.973 Q-13.6792 -19.973 -13.9995 -19.6995 Q-14.3198 -19.4261 -14.3198 -18.9573 Q-14.3198 -18.7542 -14.2495 -18.6058 Q-14.1792 -18.4573 -14.0386 -18.3245 Q-13.8979 -18.1917 -13.4761 -17.9417 Q-12.9136 -17.598 -12.7104 -17.4027 Q-12.5073 -17.2073 -12.4057 -16.973 Q-12.3042 -16.7386 -12.3042 -16.4261 ZM-9.7097 -18.1448 Q-9.7097 -16.8167 -10.1863 -15.6839 Q-10.6628 -14.5511 -11.6785 -13.5042 L-12.2878 -13.5042 Q-10.3503 -15.6605 -10.3503 -18.1448 Q-10.3503 -19.473 -10.7878 -20.4886 L-10.2722 -20.4886 Q-9.7097 -19.4261 -9.7097 -18.1448 Z" /></ns0:g><ns0:g transform="translate(80,58)" style="stroke-linecap:butt; text-rendering:geometricPrecision; color-rendering:optimizeQuality; image-rendering:optimizeQuality; font-family:'Open Sans'; color-interpolation:linearRGB; stroke-miterlimit:5;"><ns0:path style="stroke:none;" d="M28.7368 -37.8467 L27.7368 -37.8467 L27.7368 -41.878 L23.2212 -41.878 L23.2212 -37.8467 L22.2212 -37.8467 L22.2212 -46.4092 L23.2212 -46.4092 L23.2212 -42.7686 L27.7368 -42.7686 L27.7368 -46.4092 L28.7368 -46.4092 L28.7368 -37.8467 Z" /></ns0:g></ns0:g></ns0:svg></ns0:svg></ns0:svg></ns0:svg></g></svg>