<svg width="100" viewBox="0 0 100 59" style="fill-opacity:1; color-rendering:auto; color-interpolation:auto; text-rendering:auto; stroke:black; stroke-linecap:square; stroke-miterlimit:10; shape-rendering:auto; stroke-opacity:1; fill:black; stroke-dasharray:none; font-weight:normal; stroke-width:1; font-family:'Open Sans'; font-style:normal; stroke-linejoin:miter; font-size:12; stroke-dashoffset:0; image-rendering:auto;" height="59" class="cas-substance-image" xmlns:xlink="http://www.w3.org/1999/xlink" xmlns="http://www.w3.org/2000/svg"><svg class="cas-substance-single-component"><rect y="0" x="0" width="100" stroke="none" ry="7" rx="7" height="59" fill="white" class="cas-substance-group"/><svg y="0" x="8" width="83" viewBox="0 0 83 59" style="fill:black;" height="59" class="cas-substance-single-component-image"><svg><g><g transform="translate(42,28)" style="text-rendering:geometricPrecision; color-rendering:optimizeQuality; color-interpolation:linearRGB; stroke-linecap:butt; image-rendering:optimizeQuality;"><line y2="0" y1="0" x2="8.082" x1="38.082" style="fill:none;"/><line y2="-24.27" y1="0" x2="-9.552" x1="8.082" style="fill:none;"/><line y2="18.2457" y1="0" x2="-5.1749" x1="8.082" style="fill:none;"/><line y2="16.1884" y1="-0.4225" x2="-8.0064" x1="4.0627" style="fill:none;"/><line y2="-15" y1="-24.27" x2="-38.082" x1="-9.552" style="fill:none;"/><line y2="15" y1="22.563" x2="-38.082" x1="-14.8057" style="fill:none;"/><line y2="15" y1="-15" x2="-38.082" x1="-38.082" style="fill:none;"/><path style="fill:none; stroke-miterlimit:5;" d="M7.7881 0.4045 L8.082 0 L8.582 0"/><path style="fill:none; stroke-miterlimit:5;" d="M-9.2581 -23.8655 L-9.552 -24.27 L-10.0275 -24.1155"/></g><g transform="translate(42,28)" style="stroke-linecap:butt; fill:rgb(0,5,255); text-rendering:geometricPrecision; color-rendering:optimizeQuality; image-rendering:optimizeQuality; font-family:'Open Sans'; stroke:rgb(0,5,255); color-interpolation:linearRGB; stroke-miterlimit:5;"><path style="stroke:none;" d="M-6.2004 28.4263 L-7.3411 28.4263 L-12.0286 21.2388 L-12.0754 21.2388 Q-11.9817 22.5044 -11.9817 23.5513 L-11.9817 28.4263 L-12.9036 28.4263 L-12.9036 19.8638 L-11.7786 19.8638 L-7.1067 27.02 L-7.0598 27.02 Q-7.0598 26.8638 -7.1067 26.0044 Q-7.1536 25.145 -7.1379 24.77 L-7.1379 19.8638 L-6.2004 19.8638 L-6.2004 28.4263 Z"/><path style="fill:none; stroke:black;" d="M-37.6065 -15.1545 L-38.082 -15 L-38.082 -14.5"/><path style="fill:none; stroke:black;" d="M-37.6065 15.1545 L-38.082 15 L-38.082 14.5"/></g></g></svg></svg></svg></svg>