<svg width="379" viewBox="0 0 379 218" style="fill-opacity:1; color-rendering:auto; color-interpolation:auto; text-rendering:auto; stroke:black; stroke-linecap:square; stroke-miterlimit:10; shape-rendering:auto; stroke-opacity:1; fill:black; stroke-dasharray:none; font-weight:normal; stroke-width:1; font-family:'Open Sans'; font-style:normal; stroke-linejoin:miter; font-size:12; stroke-dashoffset:0; image-rendering:auto;" height="218" class="cas-substance-image" xmlns:xlink="http://www.w3.org/1999/xlink" xmlns="http://www.w3.org/2000/svg"><svg class="cas-substance-single-component"><rect y="0" x="0" width="379" stroke="none" ry="7" rx="7" height="218" fill="white" class="cas-substance-group"/><svg y="0" x="0" width="379" viewBox="0 0 379 218" style="fill:black;" height="218" class="cas-substance-single-component-image"><svg><g><g transform="translate(189,109)" style="text-rendering:geometricPrecision; color-rendering:optimizeQuality; color-interpolation:linearRGB; stroke-linecap:butt; image-rendering:optimizeQuality;"><path style="stroke:none;" d="M-44.437 18.6 L-45.437 18.6 L-47.937 -5.0484 L-41.937 -5.0484 Z"/><path style="stroke:none;" d="M-69.97 -26.5237 L-70.5502 -25.5177 L-69.737 -24.9254 L-69.737 -24.9254 L-69.0506 -26.1156 L-69.97 -26.5237 ZM-67.2118 -25.2995 L-68.1107 -23.7408 L-67.2975 -23.1485 L-66.2924 -24.8915 L-67.2118 -25.2995 ZM-64.4536 -24.0754 L-65.6712 -21.964 L-64.8581 -21.3717 L-63.5342 -23.6674 L-63.5342 -23.6674 L-64.4536 -24.0754 ZM-61.6954 -22.8513 L-63.2318 -20.1871 L-63.2318 -20.1871 L-62.4186 -19.5948 L-62.4186 -19.5948 L-60.776 -22.4432 L-60.776 -22.4432 L-61.6954 -22.8513 ZM-58.9372 -21.6271 L-60.7923 -18.4102 L-60.7923 -18.4102 L-59.9791 -17.8179 L-59.9791 -17.8179 L-58.0178 -21.2191 L-58.9372 -21.6271 ZM-56.179 -20.403 L-58.3528 -16.6334 L-58.3528 -16.6334 L-57.5397 -16.0411 L-55.2596 -19.9949 L-55.2596 -19.9949 L-56.179 -20.403 ZM-53.4208 -19.1788 L-55.9134 -14.8565 L-55.1002 -14.2642 L-55.1002 -14.2642 L-52.5014 -18.7708 L-53.4208 -19.1788 ZM-50.6626 -17.9547 L-53.4739 -13.0796 L-53.4739 -13.0796 L-52.6607 -12.4874 L-52.6607 -12.4874 L-49.7432 -17.5466 L-49.7432 -17.5466 L-50.6626 -17.9547 Z"/><line y2="-9.1874" y1="-4.203" x2="42.2982" x1="18.846" style="fill:none;"/><line y2="24.327" y1="-4.203" x2="9.576" x1="18.846" style="fill:none;"/><line y2="-38.973" y1="-16.8187" x2="57.462" x1="50.2644" style="fill:none;"/><line y2="-57.755" y1="-39.3931" x2="42.9052" x1="59.4386" style="fill:none;"/><line y2="-55.413" y1="-37.0511" x2="40.3042" x1="56.8376" style="fill:none;"/><line y2="-45.21" y1="-38.973" x2="86.805" x1="57.462" style="fill:none;"/><path style="stroke:none;" d="M9.1005 73.0245 L10.0515 72.7155 L19.6266 94.0943 L13.9203 95.9484 Z"/><path style="stroke:none;" d="M-70.667 -55.967 L-71.167 -56.833 L-51.9601 -70.8092 L-48.96 -65.6131 Z"/><line y2="-23.2214" y1="-11.4" x2="-169.3346" x1="-148.86" style="fill:none;"/><path style="stroke:none;" d="M-124.0333 -26.4009 L-124.9389 -25.969 L-124.9389 -25.969 L-124.2722 -24.8128 L-123.4501 -25.3895 L-124.0333 -26.4009 ZM-126.7502 -25.1053 L-127.6559 -24.6735 L-126.7385 -23.0826 L-125.9164 -23.6593 L-126.7502 -25.1053 ZM-129.4672 -23.8098 L-130.3728 -23.378 L-129.2047 -21.3524 L-128.3826 -21.9291 L-129.4672 -23.8098 ZM-132.1841 -22.5143 L-133.0898 -22.0824 L-131.671 -19.6222 L-130.8489 -20.1989 L-132.1841 -22.5143 ZM-134.901 -21.2187 L-135.8067 -20.7869 L-134.1373 -17.892 L-133.3152 -18.4687 L-134.901 -21.2187 ZM-137.618 -19.9232 L-138.5236 -19.4914 L-136.6035 -16.1618 L-135.7814 -16.7385 L-137.618 -19.9232 ZM-140.3349 -18.6277 L-141.2406 -18.1958 L-139.0698 -14.4315 L-138.2477 -15.0083 L-140.3349 -18.6277 ZM-143.0518 -17.3322 L-143.9575 -16.9003 L-141.5361 -12.7013 L-140.714 -13.2781 L-143.0518 -17.3322 ZM-145.7688 -16.0366 L-146.6744 -15.6048 L-144.0023 -10.9711 L-143.1802 -11.5479 L-145.7688 -16.0366 ZM-148.4857 -14.7411 L-149.3914 -14.3093 L-147.1415 -10.4078 L-145.86 -9.6679 L-145.86 -9.6679 L-145.6465 -9.8176 L-148.4857 -14.7411 Z"/><path style="stroke:none;" d="M-99.8099 -94.2242 L-99.7041 -93.2242 L-94.0898 -93.2242 L-93.9841 -94.2242 ZM-99.4927 -91.2242 L-99.387 -90.2242 L-94.407 -90.2242 L-94.3013 -91.2242 ZM-99.1756 -88.2242 L-99.0699 -87.2242 L-94.7241 -87.2242 L-94.6184 -88.2242 ZM-98.8584 -85.2242 L-98.7527 -84.2242 L-95.0413 -84.2242 L-94.9356 -85.2242 ZM-98.5413 -82.2242 L-98.4356 -81.2242 L-95.3584 -81.2242 L-95.2527 -82.2242 ZM-98.2241 -79.2242 L-98.1184 -78.2242 L-95.6756 -78.2242 L-95.5699 -79.2242 ZM-97.907 -76.2242 L-97.8013 -75.2242 L-95.9927 -75.2242 L-95.887 -76.2242 ZM-97.5898 -73.2242 L-97.4841 -72.2242 L-96.3099 -72.2242 L-96.2041 -73.2242 Z"/><path style="stroke:none;" d="M-122.627 -56.833 L-123.127 -55.967 L-144.8544 -65.6235 L-141.8545 -70.8198 Z"/><line y2="-57.684" y1="-62.6684" x2="145.494" x1="168.9462" style="fill:none;"/><line y2="18.6" y1="33.6" x2="-44.937" x1="-18.954" style="fill:none;"/><line y2="63.6" y1="33.6" x2="-18.954" x1="-18.954" style="fill:none;"/><line y2="24.327" y1="33.6" x2="9.576" x1="-18.954" style="fill:none;"/><line y2="30.374" y1="18.6" x2="-65.3295" x1="-44.937" style="fill:none;"/><line y2="72.87" y1="63.6" x2="9.576" x1="-18.954" style="fill:none;"/><line y2="78.6" y1="63.6" x2="-44.937" x1="-18.954" style="fill:none;"/><line y2="48.6" y1="24.327" x2="27.21" x1="9.576" style="fill:none;"/><line y2="49.0223" y1="28.019" x2="23.1907" x1="7.9321" style="fill:none;"/><line y2="63.6" y1="39.9516" x2="-70.917" x1="-70.917" style="fill:none;"/><line y2="48.6" y1="72.87" x2="27.21" x1="9.576" style="fill:none;"/><line y2="63.6" y1="78.6" x2="-70.917" x1="-44.937" style="fill:none;"/><line y2="61.5793" y1="74.5585" x2="-67.417" x1="-44.937" style="fill:none;"/><line y2="-14.626" y1="-26.4" x2="-91.3095" x1="-70.917" style="fill:none;"/><line y2="-56.4" y1="-26.4" x2="-70.917" x1="-70.917" style="fill:none;"/><line y2="-26.4" y1="-14.6414" x2="-122.877" x1="-102.5111" style="fill:none;"/><line y2="-71.4" y1="-56.4" x2="-96.897" x1="-70.917" style="fill:none;"/><line y2="-56.4" y1="-26.4" x2="-122.877" x1="-122.877" style="fill:none;"/><line y2="-56.4" y1="-71.4" x2="-122.877" x1="-96.897" style="fill:none;"/><line y2="-22.914" y1="-45.21" x2="106.881" x1="86.805" style="fill:none;"/><line y2="-26.7577" y1="-46.0503" x2="108.1298" x1="90.7581" style="fill:none;"/><line y2="-73.74" y1="-45.21" x2="96.078" x1="86.805" style="fill:none;"/><line y2="-29.154" y1="-22.914" x2="136.224" x1="106.881" style="fill:none;"/><line y2="-79.98" y1="-73.74" x2="125.421" x1="96.078" style="fill:none;"/><line y2="-76.1362" y1="-70.7369" x2="124.1725" x1="98.7825" style="fill:none;"/><line y2="-57.684" y1="-29.154" x2="145.494" x1="136.224" style="fill:none;"/><line y2="-56.8437" y1="-32.1574" x2="141.5409" x1="133.5197" style="fill:none;"/><line y2="-57.684" y1="-79.98" x2="145.494" x1="125.421" style="fill:none;"/><path style="stroke:none;" d="M-18.4567 33.6522 L-19.4513 33.5478 L-19.4482 9.5938 L-13.4811 10.2208 Z"/><path style="stroke:none;" d="M-19.4513 63.6522 L-18.4567 63.5477 L-13.5074 86.7262 L-19.4746 87.3532 Z"/></g><g transform="translate(189,109)" style="fill:rgb(230,0,0); text-rendering:geometricPrecision; color-rendering:optimizeQuality; image-rendering:optimizeQuality; font-family:'Open Sans'; stroke:rgb(230,0,0); color-interpolation:linearRGB;"><path style="stroke:none;" d="M-40.9995 -11.4703 Q-40.9995 -9.4078 -42.0386 -8.2281 Q-43.0776 -7.0484 -44.9214 -7.0484 Q-46.812 -7.0484 -47.8433 -8.2125 Q-48.8745 -9.3766 -48.8745 -11.4859 Q-48.8745 -13.5797 -47.8433 -14.7281 Q-46.812 -15.8766 -44.9214 -15.8766 Q-43.062 -15.8766 -42.0308 -14.7047 Q-40.9995 -13.5328 -40.9995 -11.4703 ZM-47.8276 -11.4703 Q-47.8276 -9.7359 -47.0854 -8.8297 Q-46.3433 -7.9234 -44.9214 -7.9234 Q-43.4995 -7.9234 -42.7729 -8.8219 Q-42.0464 -9.7203 -42.0464 -11.4703 Q-42.0464 -13.2047 -42.7729 -14.0953 Q-43.4995 -14.9859 -44.9214 -14.9859 Q-46.3433 -14.9859 -47.0854 -14.0875 Q-47.8276 -13.1891 -47.8276 -11.4703 Z"/></g><g transform="translate(189,109)" style="stroke-linecap:butt; text-rendering:geometricPrecision; color-rendering:optimizeQuality; image-rendering:optimizeQuality; font-family:'Open Sans'; color-interpolation:linearRGB; stroke-miterlimit:5;"><path style="fill:none;" d="M19.3351 -4.3069 L18.846 -4.203 L18.6915 -3.7275"/><path style="fill:rgb(230,0,0); stroke:none;" d="M52.1295 -10.5103 Q52.1295 -8.4478 51.0904 -7.2681 Q50.0514 -6.0884 48.2076 -6.0884 Q46.317 -6.0884 45.2858 -7.2525 Q44.2545 -8.4166 44.2545 -10.5259 Q44.2545 -12.6197 45.2858 -13.7681 Q46.317 -14.9166 48.2076 -14.9166 Q50.067 -14.9166 51.0983 -13.7447 Q52.1295 -12.5728 52.1295 -10.5103 ZM45.3014 -10.5103 Q45.3014 -8.7759 46.0436 -7.8697 Q46.7858 -6.9634 48.2076 -6.9634 Q49.6295 -6.9634 50.3561 -7.8619 Q51.0826 -8.7603 51.0826 -10.5103 Q51.0826 -12.2447 50.3561 -13.1353 Q49.6295 -14.0259 48.2076 -14.0259 Q46.7858 -14.0259 46.0436 -13.1275 Q45.3014 -12.2291 45.3014 -10.5103 Z"/><path style="fill:none;" d="M57.3075 -38.4975 L57.462 -38.973 L57.9511 -39.077"/><path style="fill:rgb(230,0,0); stroke:none;" d="M41.3265 -61.3363 Q41.3265 -59.2738 40.2874 -58.0941 Q39.2484 -56.9144 37.4046 -56.9144 Q35.514 -56.9144 34.4827 -58.0785 Q33.4515 -59.2426 33.4515 -61.3519 Q33.4515 -63.4457 34.4827 -64.5941 Q35.514 -65.7426 37.4046 -65.7426 Q39.264 -65.7426 40.2952 -64.5707 Q41.3265 -63.3988 41.3265 -61.3363 ZM34.4984 -61.3363 Q34.4984 -59.6019 35.2406 -58.6957 Q35.9827 -57.7894 37.4046 -57.7894 Q38.8265 -57.7894 39.5531 -58.6879 Q40.2796 -59.5863 40.2796 -61.3363 Q40.2796 -63.0707 39.5531 -63.9613 Q38.8265 -64.8519 37.4046 -64.8519 Q35.9827 -64.8519 35.2406 -63.9535 Q34.4984 -63.0551 34.4984 -61.3363 Z"/><path style="fill:rgb(230,0,0); stroke:none;" d="M22.7835 101.3297 Q22.7835 103.3922 21.7444 104.5719 Q20.7054 105.7516 18.8616 105.7516 Q16.971 105.7516 15.9398 104.5875 Q14.9085 103.4234 14.9085 101.3141 Q14.9085 99.2203 15.9398 98.0719 Q16.971 96.9234 18.8616 96.9234 Q20.721 96.9234 21.7523 98.0953 Q22.7835 99.2672 22.7835 101.3297 ZM15.9554 101.3297 Q15.9554 103.0641 16.6976 103.9703 Q17.4398 104.8766 18.8616 104.8766 Q20.2835 104.8766 21.0101 103.9781 Q21.7366 103.0797 21.7366 101.3297 Q21.7366 99.5953 21.0101 98.7047 Q20.2835 97.8141 18.8616 97.8141 Q17.4398 97.8141 16.6976 98.7125 Q15.9554 99.6109 15.9554 101.3297 Z"/><path style="fill:rgb(230,0,0); stroke:none;" d="M30.2991 105.6266 L29.2991 105.6266 L29.2991 101.5953 L24.7835 101.5953 L24.7835 105.6266 L23.7835 105.6266 L23.7835 97.0641 L24.7835 97.0641 L24.7835 100.7047 L29.2991 100.7047 L29.2991 97.0641 L30.2991 97.0641 L30.2991 105.6266 Z"/><path style="fill:rgb(230,0,0); stroke:none;" d="M-40.9995 -71.4703 Q-40.9995 -69.4078 -42.0386 -68.2281 Q-43.0776 -67.0484 -44.9214 -67.0484 Q-46.812 -67.0484 -47.8433 -68.2125 Q-48.8745 -69.3766 -48.8745 -71.4859 Q-48.8745 -73.5797 -47.8433 -74.7281 Q-46.812 -75.8766 -44.9214 -75.8766 Q-43.062 -75.8766 -42.0308 -74.7047 Q-40.9995 -73.5328 -40.9995 -71.4703 ZM-47.8276 -71.4703 Q-47.8276 -69.7359 -47.0854 -68.8297 Q-46.3433 -67.9234 -44.9214 -67.9234 Q-43.4995 -67.9234 -42.7729 -68.8219 Q-42.0464 -69.7203 -42.0464 -71.4703 Q-42.0464 -73.2047 -42.7729 -74.0953 Q-43.4995 -74.9859 -44.9214 -74.9859 Q-46.3433 -74.9859 -47.0854 -74.0875 Q-47.8276 -73.1891 -47.8276 -71.4703 Z"/><path style="fill:rgb(230,0,0); stroke:none;" d="M-33.4839 -67.1734 L-34.4839 -67.1734 L-34.4839 -71.2047 L-38.9995 -71.2047 L-38.9995 -67.1734 L-39.9995 -67.1734 L-39.9995 -75.7359 L-38.9995 -75.7359 L-38.9995 -72.0953 L-34.4839 -72.0953 L-34.4839 -75.7359 L-33.4839 -75.7359 L-33.4839 -67.1734 Z"/><path style="fill:rgb(230,0,0); stroke:none;" d="M-170.9025 -26.4703 Q-170.9025 -24.4078 -171.9416 -23.2281 Q-172.9806 -22.0484 -174.8244 -22.0484 Q-176.715 -22.0484 -177.7462 -23.2125 Q-178.7775 -24.3766 -178.7775 -26.4859 Q-178.7775 -28.5797 -177.7462 -29.7281 Q-176.715 -30.8766 -174.8244 -30.8766 Q-172.965 -30.8766 -171.9337 -29.7047 Q-170.9025 -28.5328 -170.9025 -26.4703 ZM-177.7306 -26.4703 Q-177.7306 -24.7359 -176.9884 -23.8297 Q-176.2462 -22.9234 -174.8244 -22.9234 Q-173.4025 -22.9234 -172.6759 -23.8219 Q-171.9494 -24.7203 -171.9494 -26.4703 Q-171.9494 -28.2047 -172.6759 -29.0953 Q-173.4025 -29.9859 -174.8244 -29.9859 Q-176.2462 -29.9859 -176.9884 -29.0875 Q-177.7306 -28.1891 -177.7306 -26.4703 Z"/><path style="fill:rgb(230,0,0); stroke:none;" d="M-179.7775 -22.1734 L-180.7775 -22.1734 L-180.7775 -26.2047 L-185.2931 -26.2047 L-185.2931 -22.1734 L-186.2931 -22.1734 L-186.2931 -30.7359 L-185.2931 -30.7359 L-185.2931 -27.0953 L-180.7775 -27.0953 L-180.7775 -30.7359 L-179.7775 -30.7359 L-179.7775 -22.1734 Z"/><path style="fill:rgb(230,0,0); stroke:none;" d="M-92.9595 -101.4703 Q-92.9595 -99.4078 -93.9986 -98.2281 Q-95.0376 -97.0484 -96.8814 -97.0484 Q-98.772 -97.0484 -99.8032 -98.2125 Q-100.8345 -99.3766 -100.8345 -101.4859 Q-100.8345 -103.5797 -99.8032 -104.7281 Q-98.772 -105.8766 -96.8814 -105.8766 Q-95.022 -105.8766 -93.9907 -104.7047 Q-92.9595 -103.5328 -92.9595 -101.4703 ZM-99.7876 -101.4703 Q-99.7876 -99.7359 -99.0454 -98.8297 Q-98.3032 -97.9234 -96.8814 -97.9234 Q-95.4595 -97.9234 -94.7329 -98.8219 Q-94.0064 -99.7203 -94.0064 -101.4703 Q-94.0064 -103.2047 -94.7329 -104.0953 Q-95.4595 -104.9859 -96.8814 -104.9859 Q-98.3032 -104.9859 -99.0454 -104.0875 Q-99.7876 -103.1891 -99.7876 -101.4703 Z"/><path style="fill:rgb(230,0,0); stroke:none;" d="M-85.4439 -97.1734 L-86.4439 -97.1734 L-86.4439 -101.2047 L-90.9595 -101.2047 L-90.9595 -97.1734 L-91.9595 -97.1734 L-91.9595 -105.7359 L-90.9595 -105.7359 L-90.9595 -102.0953 L-86.4439 -102.0953 L-86.4439 -105.7359 L-85.4439 -105.7359 L-85.4439 -97.1734 Z"/><path style="fill:rgb(230,0,0); stroke:none;" d="M-144.9225 -71.4703 Q-144.9225 -69.4078 -145.9616 -68.2281 Q-147.0006 -67.0484 -148.8444 -67.0484 Q-150.735 -67.0484 -151.7663 -68.2125 Q-152.7975 -69.3766 -152.7975 -71.4859 Q-152.7975 -73.5797 -151.7663 -74.7281 Q-150.735 -75.8766 -148.8444 -75.8766 Q-146.985 -75.8766 -145.9538 -74.7047 Q-144.9225 -73.5328 -144.9225 -71.4703 ZM-151.7506 -71.4703 Q-151.7506 -69.7359 -151.0084 -68.8297 Q-150.2663 -67.9234 -148.8444 -67.9234 Q-147.4225 -67.9234 -146.6959 -68.8219 Q-145.9694 -69.7203 -145.9694 -71.4703 Q-145.9694 -73.2047 -146.6959 -74.0953 Q-147.4225 -74.9859 -148.8444 -74.9859 Q-150.2663 -74.9859 -151.0084 -74.0875 Q-151.7506 -73.1891 -151.7506 -71.4703 Z"/><path style="fill:rgb(230,0,0); stroke:none;" d="M-153.7975 -67.1734 L-154.7975 -67.1734 L-154.7975 -71.2047 L-159.3131 -71.2047 L-159.3131 -67.1734 L-160.3131 -67.1734 L-160.3131 -75.7359 L-159.3131 -75.7359 L-159.3131 -72.0953 L-154.7975 -72.0953 L-154.7975 -75.7359 L-153.7975 -75.7359 L-153.7975 -67.1734 Z"/><path style="fill:rgb(230,0,0); stroke:none;" d="M178.7775 -63.9913 Q178.7775 -61.9288 177.7384 -60.7491 Q176.6994 -59.5694 174.8556 -59.5694 Q172.965 -59.5694 171.9337 -60.7335 Q170.9025 -61.8976 170.9025 -64.0069 Q170.9025 -66.1007 171.9337 -67.2491 Q172.965 -68.3976 174.8556 -68.3976 Q176.715 -68.3976 177.7462 -67.2257 Q178.7775 -66.0538 178.7775 -63.9913 ZM171.9494 -63.9913 Q171.9494 -62.2569 172.6916 -61.3507 Q173.4337 -60.4444 174.8556 -60.4444 Q176.2775 -60.4444 177.0041 -61.3429 Q177.7306 -62.2413 177.7306 -63.9913 Q177.7306 -65.7257 177.0041 -66.6163 Q176.2775 -67.5069 174.8556 -67.5069 Q173.4337 -67.5069 172.6916 -66.6085 Q171.9494 -65.7101 171.9494 -63.9913 Z"/><path style="fill:rgb(230,0,0); stroke:none;" d="M186.2931 -59.6944 L185.2931 -59.6944 L185.2931 -63.7257 L180.7775 -63.7257 L180.7775 -59.6944 L179.7775 -59.6944 L179.7775 -68.2569 L180.7775 -68.2569 L180.7775 -64.6163 L185.2931 -64.6163 L185.2931 -68.2569 L186.2931 -68.2569 L186.2931 -59.6944 Z"/></g><g transform="translate(189,109)" style="stroke-linecap:butt; font-size:8.4px; fill:gray; text-rendering:geometricPrecision; image-rendering:optimizeQuality; color-rendering:optimizeQuality; font-family:'Open Sans'; font-style:italic; stroke:gray; color-interpolation:linearRGB; stroke-miterlimit:5;"><path style="stroke:none;" d="M-31.7227 39.8033 Q-31.7227 38.4752 -31.2539 37.3502 Q-30.7852 36.2252 -29.7539 35.147 L-29.1446 35.147 Q-30.1133 36.2095 -30.5977 37.3814 Q-31.0821 38.5533 -31.0821 39.7877 Q-31.0821 41.1158 -30.6446 42.1314 L-31.1602 42.1314 Q-31.7227 41.1002 -31.7227 39.8033 ZM-26.1001 39.2095 Q-26.1001 40.0377 -26.647 40.4908 Q-27.1939 40.9439 -28.1939 40.9439 Q-28.6001 40.9439 -28.9126 40.8892 Q-29.2251 40.8345 -29.5064 40.6939 L-29.5064 40.0377 Q-28.8814 40.3658 -28.1782 40.3658 Q-27.5532 40.3658 -27.1782 40.0689 Q-26.8032 39.772 -26.8032 39.2564 Q-26.8032 38.9439 -27.0064 38.7173 Q-27.2095 38.4908 -27.772 38.1627 Q-28.3657 37.8345 -28.5923 37.5064 Q-28.8189 37.1783 -28.8189 36.7252 Q-28.8189 35.9908 -28.3032 35.5298 Q-27.7876 35.0689 -26.9439 35.0689 Q-26.5689 35.0689 -26.2329 35.147 Q-25.897 35.2252 -25.522 35.397 L-25.7876 35.9908 Q-26.0376 35.8345 -26.3579 35.7486 Q-26.6782 35.6627 -26.9439 35.6627 Q-27.4751 35.6627 -27.7954 35.9361 Q-28.1157 36.2095 -28.1157 36.6783 Q-28.1157 36.8814 -28.0454 37.0298 Q-27.9751 37.1783 -27.8345 37.3111 Q-27.6939 37.4439 -27.272 37.6939 Q-26.7095 38.0377 -26.5064 38.233 Q-26.3032 38.4283 -26.2017 38.6627 Q-26.1001 38.897 -26.1001 39.2095 ZM-23.5056 37.4908 Q-23.5056 38.8189 -23.9822 39.9517 Q-24.4588 41.0845 -25.4744 42.1314 L-26.0838 42.1314 Q-24.1463 39.9752 -24.1463 37.4908 Q-24.1463 36.1627 -24.5838 35.147 L-24.0681 35.147 Q-23.5056 36.2095 -23.5056 37.4908 Z"/><path style="stroke:none;" d="M-57.7058 14.8032 Q-57.7058 13.4751 -57.2371 12.3501 Q-56.7683 11.2251 -55.7371 10.147 L-55.1277 10.147 Q-56.0965 11.2095 -56.5808 12.3814 Q-57.0652 13.5532 -57.0652 14.7876 Q-57.0652 16.1157 -56.6277 17.1314 L-57.1433 17.1314 Q-57.7058 16.1001 -57.7058 14.8032 ZM-52.0833 14.2095 Q-52.0833 15.0376 -52.6302 15.4907 Q-53.177 15.9439 -54.177 15.9439 Q-54.5833 15.9439 -54.8958 15.8892 Q-55.2083 15.8345 -55.4895 15.6939 L-55.4895 15.0376 Q-54.8645 15.3657 -54.1614 15.3657 Q-53.5364 15.3657 -53.1614 15.0689 Q-52.7864 14.772 -52.7864 14.2564 Q-52.7864 13.9439 -52.9895 13.7173 Q-53.1927 13.4907 -53.7552 13.1626 Q-54.3489 12.8345 -54.5755 12.5064 Q-54.802 12.1782 -54.802 11.7251 Q-54.802 10.9907 -54.2864 10.5298 Q-53.7708 10.0689 -52.927 10.0689 Q-52.552 10.0689 -52.2161 10.147 Q-51.8802 10.2251 -51.5052 10.397 L-51.7708 10.9907 Q-52.0208 10.8345 -52.3411 10.7485 Q-52.6614 10.6626 -52.927 10.6626 Q-53.4583 10.6626 -53.7786 10.936 Q-54.0989 11.2095 -54.0989 11.6782 Q-54.0989 11.8814 -54.0286 12.0298 Q-53.9583 12.1782 -53.8177 12.311 Q-53.677 12.4439 -53.2552 12.6939 Q-52.6927 13.0376 -52.4895 13.2329 Q-52.2864 13.4282 -52.1848 13.6626 Q-52.0833 13.897 -52.0833 14.2095 ZM-49.4888 12.4907 Q-49.4888 13.8189 -49.9654 14.9517 Q-50.4419 16.0845 -51.4575 17.1314 L-52.0669 17.1314 Q-50.1294 14.9751 -50.1294 12.4907 Q-50.1294 11.1626 -50.5669 10.147 L-50.0513 10.147 Q-49.4888 11.2095 -49.4888 12.4907 Z"/><path style="stroke:none;" d="M-32.0028 59.7639 Q-32.0028 58.4358 -31.5341 57.3108 Q-31.0653 56.1858 -30.0341 55.1077 L-29.4247 55.1077 Q-30.3934 56.1702 -30.8778 57.342 Q-31.3622 58.5139 -31.3622 59.7483 Q-31.3622 61.0764 -30.9247 62.092 L-31.4403 62.092 Q-32.0028 61.0608 -32.0028 59.7639 ZM-28.4427 58.4514 L-28.9427 60.8264 L-29.599 60.8264 L-28.3959 55.1077 L-27.1459 55.1077 Q-25.4115 55.1077 -25.4115 56.5452 Q-25.4115 57.9045 -26.849 58.2952 L-25.9115 60.8264 L-26.6302 60.8264 L-27.4584 58.4514 L-28.4427 58.4514 ZM-27.8646 55.7014 Q-28.2552 57.6233 -28.3177 57.8733 L-27.6615 57.8733 Q-26.9115 57.8733 -26.5052 57.5452 Q-26.099 57.217 -26.099 56.592 Q-26.099 56.1233 -26.3568 55.9123 Q-26.6146 55.7014 -27.2084 55.7014 L-27.8646 55.7014 ZM-23.2255 57.4514 Q-23.2255 58.7795 -23.7021 59.9123 Q-24.1786 61.0452 -25.1943 62.092 L-25.8036 62.092 Q-23.8661 59.9358 -23.8661 57.4514 Q-23.8661 56.1233 -24.3036 55.1077 L-23.788 55.1077 Q-23.2255 56.1702 -23.2255 57.4514 Z"/><path style="fill:none; stroke:black;" d="M9.8699 24.7315 L9.576 24.327 L9.7305 23.8515"/></g><g transform="translate(189,109)" style="stroke-linecap:butt; fill:rgb(230,0,0); text-rendering:geometricPrecision; color-rendering:optimizeQuality; image-rendering:optimizeQuality; font-family:'Open Sans'; stroke:rgb(230,0,0); color-interpolation:linearRGB; stroke-miterlimit:5;"><path style="stroke:none;" d="M-66.9795 33.5297 Q-66.9795 35.5922 -68.0186 36.7719 Q-69.0576 37.9516 -70.9014 37.9516 Q-72.792 37.9516 -73.8232 36.7875 Q-74.8545 35.6234 -74.8545 33.5141 Q-74.8545 31.4203 -73.8232 30.2719 Q-72.792 29.1234 -70.9014 29.1234 Q-69.042 29.1234 -68.0107 30.2953 Q-66.9795 31.4672 -66.9795 33.5297 ZM-73.8076 33.5297 Q-73.8076 35.2641 -73.0654 36.1703 Q-72.3232 37.0766 -70.9014 37.0766 Q-69.4795 37.0766 -68.7529 36.1781 Q-68.0264 35.2797 -68.0264 33.5297 Q-68.0264 31.7953 -68.7529 30.9047 Q-69.4795 30.0141 -70.9014 30.0141 Q-72.3232 30.0141 -73.0654 30.9125 Q-73.8076 31.8109 -73.8076 33.5297 Z"/></g><g transform="translate(189,109)" style="stroke-linecap:butt; font-size:8.4px; fill:gray; text-rendering:geometricPrecision; image-rendering:optimizeQuality; color-rendering:optimizeQuality; font-family:'Open Sans'; font-style:italic; stroke:gray; color-interpolation:linearRGB; stroke-miterlimit:5;"><path style="stroke:none;" d="M15.3443 75.6376 Q15.3443 74.3094 15.8131 73.1844 Q16.2818 72.0594 17.3131 70.9813 L17.9225 70.9813 Q16.9537 72.0438 16.4693 73.2157 Q15.985 74.3876 15.985 75.6219 Q15.985 76.9501 16.4225 77.9657 L15.9068 77.9657 Q15.3443 76.9344 15.3443 75.6376 ZM20.9669 75.0438 Q20.9669 75.8719 20.42 76.3251 Q19.8732 76.7782 18.8732 76.7782 Q18.4669 76.7782 18.1544 76.7235 Q17.8419 76.6688 17.5607 76.5282 L17.5607 75.8719 Q18.1857 76.2001 18.8888 76.2001 Q19.5138 76.2001 19.8888 75.9032 Q20.2638 75.6063 20.2638 75.0907 Q20.2638 74.7782 20.0607 74.5516 Q19.8575 74.3251 19.295 73.9969 Q18.7013 73.6688 18.4747 73.3407 Q18.2482 73.0126 18.2482 72.5594 Q18.2482 71.8251 18.7638 71.3641 Q19.2794 70.9032 20.1232 70.9032 Q20.4982 70.9032 20.8341 70.9813 Q21.17 71.0594 21.545 71.2313 L21.2794 71.8251 Q21.0294 71.6688 20.7091 71.5829 Q20.3888 71.4969 20.1232 71.4969 Q19.5919 71.4969 19.2716 71.7704 Q18.9513 72.0438 18.9513 72.5126 Q18.9513 72.7157 19.0216 72.8641 Q19.0919 73.0126 19.2325 73.1454 Q19.3732 73.2782 19.795 73.5282 Q20.3575 73.8719 20.5607 74.0673 Q20.7638 74.2626 20.8653 74.4969 Q20.9669 74.7313 20.9669 75.0438 ZM23.5614 73.3251 Q23.5614 74.6532 23.0848 75.786 Q22.6083 76.9188 21.5926 77.9657 L20.9833 77.9657 Q22.9208 75.8094 22.9208 73.3251 Q22.9208 71.9969 22.4833 70.9813 L22.9989 70.9813 Q23.5614 72.0438 23.5614 73.3251 Z"/><path style="fill:none; stroke:black;" d="M-44.504 78.35 L-44.937 78.6 L-45.37 78.35"/><path style="fill:none; stroke:black;" d="M26.9161 48.1955 L27.21 48.6 L26.9161 49.0045"/><path style="fill:none; stroke:black;" d="M-70.917 63.1 L-70.917 63.6 L-70.484 63.85"/><path style="fill:none; stroke:black;" d="M-71.35 -26.15 L-70.917 -26.4 L-70.917 -26.9"/><path style="stroke:none;" d="M-83.6857 -30.197 Q-83.6857 -31.5251 -83.217 -32.6501 Q-82.7482 -33.7751 -81.717 -34.8532 L-81.1076 -34.8532 Q-82.0763 -33.7907 -82.5607 -32.6189 Q-83.0451 -31.447 -83.0451 -30.2126 Q-83.0451 -28.8845 -82.6076 -27.8689 L-83.1232 -27.8689 Q-83.6857 -28.9001 -83.6857 -30.197 ZM-78.0632 -30.7907 Q-78.0632 -29.9626 -78.61 -29.5095 Q-79.1569 -29.0564 -80.1569 -29.0564 Q-80.5632 -29.0564 -80.8757 -29.111 Q-81.1882 -29.1657 -81.4694 -29.3064 L-81.4694 -29.9626 Q-80.8444 -29.6345 -80.1413 -29.6345 Q-79.5163 -29.6345 -79.1413 -29.9314 Q-78.7663 -30.2282 -78.7663 -30.7439 Q-78.7663 -31.0564 -78.9694 -31.2829 Q-79.1725 -31.5095 -79.735 -31.8376 Q-80.3288 -32.1657 -80.5553 -32.4939 Q-80.7819 -32.822 -80.7819 -33.2751 Q-80.7819 -34.0095 -80.2663 -34.4704 Q-79.7507 -34.9314 -78.9069 -34.9314 Q-78.5319 -34.9314 -78.196 -34.8532 Q-77.86 -34.7751 -77.485 -34.6032 L-77.7507 -34.0095 Q-78.0007 -34.1657 -78.321 -34.2517 Q-78.6413 -34.3376 -78.9069 -34.3376 Q-79.4382 -34.3376 -79.7585 -34.0642 Q-80.0788 -33.7907 -80.0788 -33.322 Q-80.0788 -33.1189 -80.0085 -32.9704 Q-79.9382 -32.822 -79.7975 -32.6892 Q-79.6569 -32.5564 -79.235 -32.3064 Q-78.6725 -31.9626 -78.4694 -31.7673 Q-78.2663 -31.572 -78.1647 -31.3376 Q-78.0632 -31.1032 -78.0632 -30.7907 ZM-75.4687 -32.5095 Q-75.4687 -31.1814 -75.9452 -30.0485 Q-76.4218 -28.9157 -77.4374 -27.8689 L-78.0468 -27.8689 Q-76.1093 -30.0251 -76.1093 -32.5095 Q-76.1093 -33.8376 -76.5468 -34.8532 L-76.0312 -34.8532 Q-75.4687 -33.7907 -75.4687 -32.5095 Z"/></g><g transform="translate(189,109)" style="stroke-linecap:butt; fill:rgb(230,0,0); text-rendering:geometricPrecision; color-rendering:optimizeQuality; image-rendering:optimizeQuality; font-family:'Open Sans'; stroke:rgb(230,0,0); color-interpolation:linearRGB; stroke-miterlimit:5;"><path style="stroke:none;" d="M-92.9595 -11.4703 Q-92.9595 -9.4078 -93.9986 -8.2281 Q-95.0376 -7.0484 -96.8814 -7.0484 Q-98.772 -7.0484 -99.8032 -8.2125 Q-100.8345 -9.3766 -100.8345 -11.4859 Q-100.8345 -13.5797 -99.8032 -14.7281 Q-98.772 -15.8766 -96.8814 -15.8766 Q-95.022 -15.8766 -93.9907 -14.7047 Q-92.9595 -13.5328 -92.9595 -11.4703 ZM-99.7876 -11.4703 Q-99.7876 -9.7359 -99.0454 -8.8297 Q-98.3032 -7.9234 -96.8814 -7.9234 Q-95.4595 -7.9234 -94.7329 -8.8219 Q-94.0064 -9.7203 -94.0064 -11.4703 Q-94.0064 -13.2047 -94.7329 -14.0953 Q-95.4595 -14.9859 -96.8814 -14.9859 Q-98.3032 -14.9859 -99.0454 -14.0875 Q-99.7876 -13.1891 -99.7876 -11.4703 Z"/></g><g transform="translate(189,109)" style="stroke-linecap:butt; font-size:8.4px; fill:gray; text-rendering:geometricPrecision; image-rendering:optimizeQuality; color-rendering:optimizeQuality; font-family:'Open Sans'; font-style:italic; stroke:gray; color-interpolation:linearRGB; stroke-miterlimit:5;"><path style="stroke:none;" d="M-75.3056 -65.2359 Q-75.3056 -66.5641 -74.8369 -67.6891 Q-74.3681 -68.8141 -73.3369 -69.8922 L-72.7275 -69.8922 Q-73.6963 -68.8297 -74.1806 -67.6578 Q-74.665 -66.4859 -74.665 -65.2516 Q-74.665 -63.9234 -74.2275 -62.9078 L-74.7431 -62.9078 Q-75.3056 -63.9391 -75.3056 -65.2359 ZM-71.7456 -66.5484 L-72.2456 -64.1734 L-72.9018 -64.1734 L-71.6987 -69.8922 L-70.4487 -69.8922 Q-68.7143 -69.8922 -68.7143 -68.4547 Q-68.7143 -67.0953 -70.1518 -66.7047 L-69.2143 -64.1734 L-69.9331 -64.1734 L-70.7612 -66.5484 L-71.7456 -66.5484 ZM-71.1675 -69.2984 Q-71.5581 -67.3766 -71.6206 -67.1266 L-70.9643 -67.1266 Q-70.2143 -67.1266 -69.8081 -67.4547 Q-69.4018 -67.7828 -69.4018 -68.4078 Q-69.4018 -68.8766 -69.6596 -69.0875 Q-69.9175 -69.2984 -70.5112 -69.2984 L-71.1675 -69.2984 ZM-66.5284 -67.5484 Q-66.5284 -66.2203 -67.0049 -65.0875 Q-67.4815 -63.9547 -68.4971 -62.9078 L-69.1065 -62.9078 Q-67.169 -65.0641 -67.169 -67.5484 Q-67.169 -68.8766 -67.6065 -69.8922 L-67.0909 -69.8922 Q-66.5284 -68.8297 -66.5284 -67.5484 Z"/><path style="fill:none; stroke:black;" d="M-122.444 -26.15 L-122.877 -26.4 L-122.877 -26.9"/><path style="stroke:none;" d="M-135.9259 -30.2358 Q-135.9259 -31.564 -135.4572 -32.689 Q-134.9884 -33.814 -133.9572 -34.8921 L-133.3478 -34.8921 Q-134.3166 -33.8296 -134.8009 -32.6577 Q-135.2853 -31.4858 -135.2853 -30.2515 Q-135.2853 -28.9233 -134.8478 -27.9077 L-135.3634 -27.9077 Q-135.9259 -28.939 -135.9259 -30.2358 ZM-132.3659 -31.5483 L-132.8659 -29.1733 L-133.5221 -29.1733 L-132.319 -34.8921 L-131.069 -34.8921 Q-129.3346 -34.8921 -129.3346 -33.4546 Q-129.3346 -32.0952 -130.7721 -31.7046 L-129.8346 -29.1733 L-130.5534 -29.1733 L-131.3815 -31.5483 L-132.3659 -31.5483 ZM-131.7878 -34.2983 Q-132.1784 -32.3765 -132.2409 -32.1265 L-131.5846 -32.1265 Q-130.8346 -32.1265 -130.4284 -32.4546 Q-130.0221 -32.7827 -130.0221 -33.4077 Q-130.0221 -33.8765 -130.28 -34.0874 Q-130.5378 -34.2983 -131.1315 -34.2983 L-131.7878 -34.2983 ZM-127.1487 -32.5483 Q-127.1487 -31.2202 -127.6252 -30.0874 Q-128.1018 -28.9546 -129.1174 -27.9077 L-129.7268 -27.9077 Q-127.7893 -30.064 -127.7893 -32.5483 Q-127.7893 -33.8765 -128.2268 -34.8921 L-127.7112 -34.8921 Q-127.1487 -33.8296 -127.1487 -32.5483 Z"/><path style="fill:none; stroke:black;" d="M-96.464 -71.15 L-96.897 -71.4 L-97.33 -71.15"/><path style="stroke:none;" d="M-109.6657 -75.197 Q-109.6657 -76.5251 -109.197 -77.6501 Q-108.7282 -78.7751 -107.697 -79.8532 L-107.0876 -79.8532 Q-108.0563 -78.7907 -108.5407 -77.6189 Q-109.0251 -76.447 -109.0251 -75.2126 Q-109.0251 -73.8845 -108.5876 -72.8689 L-109.1032 -72.8689 Q-109.6657 -73.9001 -109.6657 -75.197 ZM-104.0432 -75.7907 Q-104.0432 -74.9626 -104.59 -74.5095 Q-105.1369 -74.0564 -106.1369 -74.0564 Q-106.5432 -74.0564 -106.8557 -74.111 Q-107.1682 -74.1657 -107.4494 -74.3064 L-107.4494 -74.9626 Q-106.8244 -74.6345 -106.1213 -74.6345 Q-105.4963 -74.6345 -105.1213 -74.9314 Q-104.7463 -75.2282 -104.7463 -75.7439 Q-104.7463 -76.0564 -104.9494 -76.2829 Q-105.1525 -76.5095 -105.715 -76.8376 Q-106.3088 -77.1657 -106.5353 -77.4939 Q-106.7619 -77.822 -106.7619 -78.2751 Q-106.7619 -79.0095 -106.2463 -79.4704 Q-105.7307 -79.9314 -104.8869 -79.9314 Q-104.5119 -79.9314 -104.176 -79.8532 Q-103.84 -79.7751 -103.465 -79.6032 L-103.7307 -79.0095 Q-103.9807 -79.1657 -104.301 -79.2517 Q-104.6213 -79.3376 -104.8869 -79.3376 Q-105.4182 -79.3376 -105.7385 -79.0642 Q-106.0588 -78.7907 -106.0588 -78.322 Q-106.0588 -78.1189 -105.9885 -77.9704 Q-105.9182 -77.822 -105.7775 -77.6892 Q-105.6369 -77.5564 -105.215 -77.3064 Q-104.6525 -76.9626 -104.4494 -76.7673 Q-104.2463 -76.572 -104.1447 -76.3376 Q-104.0432 -76.1032 -104.0432 -75.7907 ZM-101.4487 -77.5095 Q-101.4487 -76.1814 -101.9252 -75.0485 Q-102.4018 -73.9157 -103.4174 -72.8689 L-104.0268 -72.8689 Q-102.0893 -75.0251 -102.0893 -77.5095 Q-102.0893 -78.8376 -102.5268 -79.8532 L-102.0112 -79.8532 Q-101.4487 -78.7907 -101.4487 -77.5095 Z"/><path style="stroke:none;" d="M-126.9858 -65.1969 Q-126.9858 -66.525 -126.517 -67.65 Q-126.0483 -68.775 -125.017 -69.8531 L-124.4076 -69.8531 Q-125.3764 -68.7906 -125.8608 -67.6188 Q-126.3451 -66.4469 -126.3451 -65.2125 Q-126.3451 -63.8844 -125.9076 -62.8688 L-126.4233 -62.8688 Q-126.9858 -63.9 -126.9858 -65.1969 ZM-121.3632 -65.7906 Q-121.3632 -64.9625 -121.9101 -64.5094 Q-122.457 -64.0563 -123.457 -64.0563 Q-123.8632 -64.0563 -124.1757 -64.1109 Q-124.4882 -64.1656 -124.7695 -64.3063 L-124.7695 -64.9625 Q-124.1445 -64.6344 -123.4413 -64.6344 Q-122.8163 -64.6344 -122.4413 -64.9313 Q-122.0663 -65.2281 -122.0663 -65.7438 Q-122.0663 -66.0563 -122.2695 -66.2828 Q-122.4726 -66.5094 -123.0351 -66.8375 Q-123.6288 -67.1656 -123.8554 -67.4938 Q-124.082 -67.8219 -124.082 -68.275 Q-124.082 -69.0094 -123.5663 -69.4703 Q-123.0507 -69.9313 -122.207 -69.9313 Q-121.832 -69.9313 -121.496 -69.8531 Q-121.1601 -69.775 -120.7851 -69.6031 L-121.0507 -69.0094 Q-121.3007 -69.1656 -121.621 -69.2516 Q-121.9413 -69.3375 -122.207 -69.3375 Q-122.7382 -69.3375 -123.0585 -69.0641 Q-123.3788 -68.7906 -123.3788 -68.3219 Q-123.3788 -68.1188 -123.3085 -67.9703 Q-123.2382 -67.8219 -123.0976 -67.6891 Q-122.957 -67.5563 -122.5351 -67.3063 Q-121.9726 -66.9625 -121.7695 -66.7672 Q-121.5663 -66.5719 -121.4648 -66.3375 Q-121.3632 -66.1031 -121.3632 -65.7906 ZM-118.7687 -67.5094 Q-118.7687 -66.1813 -119.2453 -65.0484 Q-119.7219 -63.9156 -120.7375 -62.8688 L-121.3469 -62.8688 Q-119.4094 -65.025 -119.4094 -67.5094 Q-119.4094 -68.8375 -119.8469 -69.8531 L-119.3312 -69.8531 Q-118.7687 -68.7906 -118.7687 -67.5094 Z"/><path style="fill:none; stroke:black;" d="M87.1396 -44.8384 L86.805 -45.21 L86.3159 -45.106"/><path style="fill:none; stroke:black;" d="M106.5464 -23.2856 L106.881 -22.914 L107.3701 -23.018"/><path style="fill:none; stroke:black;" d="M95.9234 -73.2645 L96.078 -73.74 L96.5671 -73.844"/><path style="fill:none; stroke:black;" d="M135.7349 -29.05 L136.224 -29.154 L136.3785 -29.6295"/><path style="fill:none; stroke:black;" d="M124.9319 -79.876 L125.421 -79.98 L125.7555 -79.6084"/><path style="fill:none; stroke:black;" d="M145.3395 -57.2085 L145.494 -57.684 L145.9831 -57.7879"/></g><g transform="translate(189,109)" style="stroke-linecap:butt; text-rendering:geometricPrecision; color-rendering:optimizeQuality; image-rendering:optimizeQuality; font-family:'Open Sans'; color-interpolation:linearRGB; stroke-miterlimit:5;"><path style="stroke:none;" d="M-12.5612 7.9183 L-13.5612 7.9183 L-13.5612 3.887 L-18.0768 3.887 L-18.0768 7.9183 L-19.0768 7.9183 L-19.0768 -0.6442 L-18.0768 -0.6442 L-18.0768 2.9964 L-13.5612 2.9964 L-13.5612 -0.6442 L-12.5612 -0.6442 L-12.5612 7.9183 Z"/><path style="stroke:none;" d="M-12.5612 97.5912 L-13.5612 97.5912 L-13.5612 93.56 L-18.0768 93.56 L-18.0768 97.5912 L-19.0768 97.5912 L-19.0768 89.0287 L-18.0768 89.0287 L-18.0768 92.6694 L-13.5612 92.6694 L-13.5612 89.0287 L-12.5612 89.0287 L-12.5612 97.5912 Z"/></g></g></svg></svg></svg></svg>