<svg xmlns:ns0="http://www.w3.org/2000/svg" xmlns="http://www.w3.org/2000/svg"><g transform="translate(0, 0)"><ns0:svg width="233" viewBox="0 0 233 145" style="fill-opacity:1; color-rendering:auto; color-interpolation:auto; text-rendering:auto; stroke:black; stroke-linecap:square; stroke-miterlimit:10; shape-rendering:auto; stroke-opacity:1; fill:black; stroke-dasharray:none; font-weight:normal; stroke-width:1; font-family:'Open Sans'; font-style:normal; stroke-linejoin:miter; font-size:12; stroke-dashoffset:0; image-rendering:auto;" height="145" class="cas-substance-image"><ns0:svg class="cas-substance-single-component"><ns0:rect y="0" x="0" width="233" stroke="none" ry="7" rx="7" height="145" fill="white" class="cas-substance-group" /><ns0:svg y="0" x="0" width="233" viewBox="0 0 233 145" style="fill:black;" height="145" class="cas-substance-single-component-image"><ns0:svg><ns0:g><ns0:g transform="translate(109,72)" style="text-rendering:geometricPrecision; color-rendering:optimizeQuality; color-interpolation:linearRGB; stroke-linecap:butt; image-rendering:optimizeQuality;"><ns0:line y2="6.8517" y1="-12.99" x2="-17.962" x1="-29.418" style="fill:none;" /><ns0:line y2="-32.447" y1="-11.24" x2="-16.1634" x1="-28.4076" style="fill:none;" /><ns0:line y2="-34.1971" y1="-13.865" x2="-19.1945" x1="-30.9335" style="fill:none;" /><ns0:path style="stroke:none;" d="M-57.418 -13.6567 L-58.418 -13.5733 L-58.418 -13.5733 L-58.418 -12.4067 L-58.418 -12.4067 L-57.418 -12.3233 L-57.418 -12.3233 L-57.418 -13.6567 ZM-54.418 -13.9067 L-55.418 -13.8233 L-55.418 -13.8233 L-55.418 -12.1567 L-55.418 -12.1567 L-54.418 -12.0733 L-54.418 -12.0733 L-54.418 -13.9067 ZM-51.418 -14.1567 L-52.418 -14.0733 L-52.418 -14.0733 L-52.418 -11.9067 L-52.418 -11.9067 L-51.418 -11.8233 L-51.418 -11.8233 L-51.418 -14.1567 ZM-48.418 -14.4067 L-49.418 -14.3233 L-49.418 -14.3233 L-49.418 -11.6567 L-49.418 -11.6567 L-48.418 -11.5733 L-48.418 -11.5733 L-48.418 -14.4067 ZM-45.418 -14.6567 L-46.418 -14.5733 L-46.418 -14.5733 L-46.418 -11.4067 L-46.418 -11.4067 L-45.418 -11.3233 L-45.418 -11.3233 L-45.418 -14.6567 ZM-42.418 -14.9067 L-43.418 -14.8233 L-43.418 -14.8233 L-43.418 -11.1567 L-43.418 -11.1567 L-42.418 -11.0733 L-42.418 -11.0733 L-42.418 -14.9067 ZM-39.418 -15.1567 L-40.418 -15.0733 L-40.418 -15.0733 L-40.418 -10.9067 L-40.418 -10.9067 L-39.418 -10.8233 L-39.418 -10.8233 L-39.418 -15.1567 ZM-36.418 -15.4067 L-37.418 -15.3233 L-37.418 -15.3233 L-37.418 -10.6567 L-37.418 -10.6567 L-36.418 -10.5733 L-36.418 -15.4067 ZM-33.418 -15.6567 L-34.418 -15.5733 L-34.418 -15.5733 L-34.418 -10.4067 L-34.418 -10.4067 L-33.418 -10.3233 L-33.418 -15.6567 ZM-30.418 -15.9067 L-31.418 -15.8233 L-31.418 -15.8233 L-31.418 -10.1567 L-31.418 -10.1567 L-30.418 -10.0733 L-30.418 -15.9067 Z" /><ns0:line y2="12.99" y1="12.99" x2="15.582" x1="-9.0664" style="fill:none;" /><ns0:path style="stroke:none;" d="M16.015 13.24 L15.149 12.74 L27.1179 -13.49 L34.0461 -13.49 Z" /><ns0:line y2="38.97" y1="12.99" x2="30.582" x1="15.582" style="fill:none;" /><ns0:line y2="-12.99" y1="-12.99" x2="60.582" x1="30.582" style="fill:none;" /><ns0:line y2="59.2311" y1="38.97" x2="18.8853" x1="30.582" style="fill:none;" /><ns0:line y2="40.72" y1="40.72" x2="54.6445" x1="29.5717" style="fill:none;" /><ns0:line y2="37.22" y1="37.22" x2="54.6445" x1="29.5716" style="fill:none;" /><ns0:line y2="-38.97" y1="-12.99" x2="75.582" x1="60.582" style="fill:none;" /><ns0:line y2="-38.97" y1="-38.97" x2="100.2304" x1="75.582" style="fill:none;" /><ns0:line y2="-60.192" y1="-38.97" x2="65.3512" x1="77.6027" style="fill:none;" /><ns0:line y2="-58.4421" y1="-37.22" x2="62.3201" x1="74.5716" style="fill:none;" /><ns0:line y2="11.28" y1="-12.99" x2="-77.052" x1="-59.418" style="fill:none;" /><ns0:line y2="-31.4857" y1="-12.99" x2="-72.8566" x1="-59.418" style="fill:none;" /><ns0:line y2="2.01" y1="11.28" x2="-105.582" x1="-77.052" style="fill:none;" /><ns0:line y2="-27.99" y1="-35.553" x2="-105.582" x1="-82.3057" style="fill:none;" /><ns0:line y2="-27.99" y1="2.01" x2="-105.582" x1="-105.582" style="fill:none;" /></ns0:g><ns0:g transform="translate(109,72)" style="fill:rgb(0,5,255); text-rendering:geometricPrecision; color-rendering:optimizeQuality; image-rendering:optimizeQuality; font-family:'Open Sans'; stroke:rgb(0,5,255); color-interpolation:linearRGB;"><ns0:path style="stroke:none;" d="M-11.0664 17.1462 L-12.2071 17.1462 L-16.8946 9.9587 L-16.9414 9.9587 Q-16.8477 11.2244 -16.8477 12.2712 L-16.8477 17.1462 L-17.7696 17.1462 L-17.7696 8.5837 L-16.6446 8.5837 L-11.9727 15.74 L-11.9258 15.74 Q-11.9258 15.5837 -11.9727 14.7244 Q-12.0196 13.865 -12.0039 13.49 L-12.0039 8.5837 L-11.0664 8.5837 L-11.0664 17.1462 Z" /><ns0:path style="stroke:none;" d="M-11.1602 26.7087 L-12.1602 26.7087 L-12.1602 22.6775 L-16.6758 22.6775 L-16.6758 26.7087 L-17.6758 26.7087 L-17.6758 18.1462 L-16.6758 18.1462 L-16.6758 21.7869 L-12.1602 21.7869 L-12.1602 18.1462 L-11.1602 18.1462 L-11.1602 26.7087 Z" /><ns0:path style="fill:rgb(230,0,0); stroke:none;" d="M-10.4805 -39.0403 Q-10.4805 -36.9778 -11.5196 -35.7981 Q-12.5586 -34.6184 -14.4024 -34.6184 Q-16.293 -34.6184 -17.3242 -35.7825 Q-18.3555 -36.9466 -18.3555 -39.0559 Q-18.3555 -41.1497 -17.3242 -42.2981 Q-16.293 -43.4466 -14.4024 -43.4466 Q-12.543 -43.4466 -11.5117 -42.2747 Q-10.4805 -41.1028 -10.4805 -39.0403 ZM-17.3086 -39.0403 Q-17.3086 -37.3059 -16.5664 -36.3997 Q-15.8242 -35.4934 -14.4024 -35.4934 Q-12.9805 -35.4934 -12.2539 -36.3919 Q-11.5274 -37.2903 -11.5274 -39.0403 Q-11.5274 -40.7747 -12.2539 -41.6653 Q-12.9805 -42.5559 -14.4024 -42.5559 Q-15.8242 -42.5559 -16.5664 -41.6575 Q-17.3086 -40.7591 -17.3086 -39.0403 Z" /></ns0:g><ns0:g transform="translate(109,72)" style="font-size:8.4px; fill:gray; text-rendering:geometricPrecision; image-rendering:optimizeQuality; color-rendering:optimizeQuality; font-family:'Open Sans'; font-style:italic; stroke:gray; color-interpolation:linearRGB;"><ns0:path style="stroke:none;" d="M6.4737 5.5327 Q6.4737 4.2046 6.9424 3.0796 Q7.4112 1.9546 8.4424 0.8765 L9.0518 0.8765 Q8.0831 1.939 7.5987 3.1109 Q7.1143 4.2827 7.1143 5.5171 Q7.1143 6.8452 7.5518 7.8609 L7.0362 7.8609 Q6.4737 6.8296 6.4737 5.5327 ZM12.0963 4.939 Q12.0963 5.7671 11.5494 6.2202 Q11.0025 6.6734 10.0025 6.6734 Q9.5963 6.6734 9.2838 6.6187 Q8.9713 6.564 8.69 6.4234 L8.69 5.7671 Q9.315 6.0952 10.0181 6.0952 Q10.6431 6.0952 11.0181 5.7984 Q11.3931 5.5015 11.3931 4.9859 Q11.3931 4.6734 11.19 4.4468 Q10.9869 4.2202 10.4244 3.8921 Q9.8306 3.564 9.6041 3.2359 Q9.3775 2.9077 9.3775 2.4546 Q9.3775 1.7202 9.8931 1.2593 Q10.4088 0.7984 11.2525 0.7984 Q11.6275 0.7984 11.9634 0.8765 Q12.2994 0.9546 12.6744 1.1265 L12.4088 1.7202 Q12.1588 1.564 11.8384 1.4781 Q11.5181 1.3921 11.2525 1.3921 Q10.7213 1.3921 10.4009 1.6656 Q10.0806 1.939 10.0806 2.4077 Q10.0806 2.6109 10.1509 2.7593 Q10.2213 2.9077 10.3619 3.0406 Q10.5025 3.1734 10.9244 3.4234 Q11.4869 3.7671 11.69 3.9624 Q11.8931 4.1577 11.9947 4.3921 Q12.0963 4.6265 12.0963 4.939 ZM14.6907 3.2202 Q14.6907 4.5484 14.2142 5.6812 Q13.7376 6.814 12.722 7.8609 L12.1126 7.8609 Q14.0501 5.7046 14.0501 3.2202 Q14.0501 1.8921 13.6126 0.8765 L14.1282 0.8765 Q14.6907 1.939 14.6907 3.2202 Z" /></ns0:g><ns0:g transform="translate(109,72)" style="stroke-linecap:butt; font-size:8.4px; text-rendering:geometricPrecision; image-rendering:optimizeQuality; color-rendering:optimizeQuality; font-family:'Open Sans'; font-style:italic; color-interpolation:linearRGB; stroke-miterlimit:5;"><ns0:path style="fill:none;" d="M30.332 38.537 L30.582 38.97 L30.332 39.403" /><ns0:path style="fill:none;" d="M60.082 -12.99 L60.582 -12.99 L60.832 -13.423" /></ns0:g><ns0:g transform="translate(109,72)" style="stroke-linecap:butt; fill:rgb(230,0,0); text-rendering:geometricPrecision; color-rendering:optimizeQuality; image-rendering:optimizeQuality; font-family:'Open Sans'; stroke:rgb(230,0,0); color-interpolation:linearRGB; stroke-miterlimit:5;"><ns0:path style="stroke:none;" d="M19.5195 64.8827 Q19.5195 66.9452 18.4804 68.1249 Q17.4414 69.3046 15.5976 69.3046 Q13.707 69.3046 12.6757 68.1405 Q11.6445 66.9764 11.6445 64.8671 Q11.6445 62.7733 12.6757 61.6249 Q13.707 60.4764 15.5976 60.4764 Q17.457 60.4764 18.4883 61.6483 Q19.5195 62.8202 19.5195 64.8827 ZM12.6914 64.8827 Q12.6914 66.6171 13.4336 67.5233 Q14.1757 68.4296 15.5976 68.4296 Q17.0195 68.4296 17.7461 67.5311 Q18.4726 66.6327 18.4726 64.8827 Q18.4726 63.1483 17.7461 62.2577 Q17.0195 61.3671 15.5976 61.3671 Q14.1757 61.3671 13.4336 62.2655 Q12.6914 63.1639 12.6914 64.8827 Z" /><ns0:path style="stroke:none;" d="M10.6445 69.1796 L9.6445 69.1796 L9.6445 65.1483 L5.1289 65.1483 L5.1289 69.1796 L4.1289 69.1796 L4.1289 60.6171 L5.1289 60.6171 L5.1289 64.2577 L9.6445 64.2577 L9.6445 60.6171 L10.6445 60.6171 L10.6445 69.1796 Z" /><ns0:path style="stroke:none;" d="M64.5195 38.8997 Q64.5195 40.9622 63.4804 42.1419 Q62.4414 43.3216 60.5976 43.3216 Q58.707 43.3216 57.6757 42.1575 Q56.6445 40.9934 56.6445 38.8841 Q56.6445 36.7903 57.6757 35.6419 Q58.707 34.4934 60.5976 34.4934 Q62.457 34.4934 63.4882 35.6653 Q64.5195 36.8372 64.5195 38.8997 ZM57.6914 38.8997 Q57.6914 40.6341 58.4336 41.5403 Q59.1757 42.4466 60.5976 42.4466 Q62.0195 42.4466 62.7461 41.5481 Q63.4726 40.6497 63.4726 38.8997 Q63.4726 37.1653 62.7461 36.2747 Q62.0195 35.3841 60.5976 35.3841 Q59.1757 35.3841 58.4336 36.2825 Q57.6914 37.1809 57.6914 38.8997 Z" /><ns0:path style="fill:none; stroke:black;" d="M75.332 -38.537 L75.582 -38.97 L76.082 -38.97" /><ns0:path style="fill:rgb(0,5,255); stroke:none;" d="M108.9336 -34.8138 L107.7929 -34.8138 L103.1054 -42.0013 L103.0586 -42.0013 Q103.1523 -40.7356 103.1523 -39.6888 L103.1523 -34.8138 L102.2304 -34.8138 L102.2304 -43.3763 L103.3554 -43.3763 L108.0273 -36.22 L108.0742 -36.22 Q108.0742 -36.3763 108.0273 -37.2356 Q107.9804 -38.095 107.9961 -38.47 L107.9961 -43.3763 L108.9336 -43.3763 L108.9336 -34.8138 Z" /><ns0:path style="fill:rgb(0,5,255); stroke:none;" d="M116.4492 -34.8138 L115.4492 -34.8138 L115.4492 -38.845 L110.9336 -38.845 L110.9336 -34.8138 L109.9336 -34.8138 L109.9336 -43.3763 L110.9336 -43.3763 L110.9336 -39.7356 L115.4492 -39.7356 L115.4492 -43.3763 L116.4492 -43.3763 L116.4492 -34.8138 Z" /><ns0:path style="fill:rgb(0,5,255); stroke:none;" d="M121.1992 -33.0044 L117.4492 -33.0044 L117.4492 -33.5669 L118.9492 -35.0825 Q119.6367 -35.77 119.8554 -36.0669 Q120.0742 -36.3638 120.1836 -36.645 Q120.2929 -36.9263 120.2929 -37.2544 Q120.2929 -37.7075 120.0195 -37.9731 Q119.7461 -38.2388 119.2461 -38.2388 Q118.9023 -38.2388 118.582 -38.1216 Q118.2617 -38.0044 117.8711 -37.7075 L117.5273 -38.145 Q118.3086 -38.8013 119.2461 -38.8013 Q120.0429 -38.8013 120.5039 -38.3872 Q120.9648 -37.9731 120.9648 -37.2856 Q120.9648 -36.7388 120.6601 -36.2075 Q120.3554 -35.6763 119.5117 -34.8638 L118.2617 -33.645 L118.2617 -33.6138 L121.1992 -33.6138 L121.1992 -33.0044 Z" /><ns0:path style="stroke:none;" d="M64.5195 -65.0233 Q64.5195 -62.9608 63.4804 -61.7811 Q62.4414 -60.6014 60.5976 -60.6014 Q58.707 -60.6014 57.6757 -61.7655 Q56.6445 -62.9296 56.6445 -65.0389 Q56.6445 -67.1327 57.6757 -68.2811 Q58.707 -69.4296 60.5976 -69.4296 Q62.457 -69.4296 63.4882 -68.2577 Q64.5195 -67.0858 64.5195 -65.0233 ZM57.6914 -65.0233 Q57.6914 -63.2889 58.4336 -62.3827 Q59.1757 -61.4764 60.5976 -61.4764 Q62.0195 -61.4764 62.7461 -62.3749 Q63.4726 -63.2733 63.4726 -65.0233 Q63.4726 -66.7577 62.7461 -67.6483 Q62.0195 -68.5389 60.5976 -68.5389 Q59.1757 -68.5389 58.4336 -67.6405 Q57.6914 -66.7421 57.6914 -65.0233 Z" /><ns0:path style="fill:none; stroke:black;" d="M-59.7119 -12.5855 L-59.418 -12.99 L-59.7119 -13.3945" /></ns0:g><ns0:g transform="translate(109,72)" style="stroke-linecap:butt; font-size:8.4px; fill:gray; text-rendering:geometricPrecision; image-rendering:optimizeQuality; color-rendering:optimizeQuality; font-family:'Open Sans'; font-style:italic; stroke:gray; color-interpolation:linearRGB; stroke-miterlimit:5;"><ns0:path style="stroke:none;" d="M-58.9867 -20.697 Q-58.9867 -22.0251 -58.518 -23.1501 Q-58.0492 -24.2751 -57.018 -25.3532 L-56.4086 -25.3532 Q-57.3773 -24.2907 -57.8617 -23.1189 Q-58.3461 -21.947 -58.3461 -20.7126 Q-58.3461 -19.3845 -57.9086 -18.3689 L-58.4242 -18.3689 Q-58.9867 -19.4001 -58.9867 -20.697 ZM-53.3642 -21.2907 Q-53.3642 -20.4626 -53.911 -20.0095 Q-54.4579 -19.5564 -55.4579 -19.5564 Q-55.8642 -19.5564 -56.1767 -19.6111 Q-56.4892 -19.6657 -56.7704 -19.8064 L-56.7704 -20.4626 Q-56.1454 -20.1345 -55.4423 -20.1345 Q-54.8173 -20.1345 -54.4423 -20.4314 Q-54.0673 -20.7282 -54.0673 -21.2439 Q-54.0673 -21.5564 -54.2704 -21.7829 Q-54.4735 -22.0095 -55.036 -22.3376 Q-55.6298 -22.6657 -55.8563 -22.9939 Q-56.0829 -23.322 -56.0829 -23.7751 Q-56.0829 -24.5095 -55.5673 -24.9704 Q-55.0517 -25.4314 -54.2079 -25.4314 Q-53.8329 -25.4314 -53.497 -25.3532 Q-53.161 -25.2751 -52.786 -25.1032 L-53.0517 -24.5095 Q-53.3017 -24.6657 -53.622 -24.7517 Q-53.9423 -24.8376 -54.2079 -24.8376 Q-54.7392 -24.8376 -55.0595 -24.5642 Q-55.3798 -24.2907 -55.3798 -23.822 Q-55.3798 -23.6189 -55.3095 -23.4704 Q-55.2392 -23.322 -55.0985 -23.1892 Q-54.9579 -23.0564 -54.536 -22.8064 Q-53.9735 -22.4626 -53.7704 -22.2673 Q-53.5673 -22.072 -53.4657 -21.8376 Q-53.3642 -21.6032 -53.3642 -21.2907 ZM-50.7697 -23.0095 Q-50.7697 -21.6814 -51.2462 -20.5486 Q-51.7228 -19.4157 -52.7384 -18.3689 L-53.3478 -18.3689 Q-51.4103 -20.5251 -51.4103 -23.0095 Q-51.4103 -24.3376 -51.8478 -25.3532 L-51.3322 -25.3532 Q-50.7697 -24.2907 -50.7697 -23.0095 Z" /><ns0:path style="fill:none; stroke:black;" d="M-76.7581 10.8755 L-77.052 11.28 L-77.5275 11.1255" /></ns0:g><ns0:g transform="translate(109,72)" style="stroke-linecap:butt; fill:rgb(0,5,255); text-rendering:geometricPrecision; color-rendering:optimizeQuality; image-rendering:optimizeQuality; font-family:'Open Sans'; stroke:rgb(0,5,255); color-interpolation:linearRGB; stroke-miterlimit:5;"><ns0:path style="stroke:none;" d="M-73.7004 -33.1037 L-74.8411 -33.1037 L-79.5286 -40.2912 L-79.5754 -40.2912 Q-79.4817 -39.0256 -79.4817 -37.9787 L-79.4817 -33.1037 L-80.4036 -33.1037 L-80.4036 -41.6662 L-79.2786 -41.6662 L-74.6067 -34.51 L-74.5598 -34.51 Q-74.5598 -34.6662 -74.6067 -35.5256 Q-74.6536 -36.385 -74.6379 -36.76 L-74.6379 -41.6662 L-73.7004 -41.6662 L-73.7004 -33.1037 Z" /><ns0:path style="stroke:none;" d="M-73.7942 -42.6662 L-74.7942 -42.6662 L-74.7942 -46.6975 L-79.3098 -46.6975 L-79.3098 -42.6662 L-80.3098 -42.6662 L-80.3098 -51.2287 L-79.3098 -51.2287 L-79.3098 -47.5881 L-74.7942 -47.5881 L-74.7942 -51.2287 L-73.7942 -51.2287 L-73.7942 -42.6662 Z" /><ns0:path style="fill:none; stroke:black;" d="M-105.1065 2.1645 L-105.582 2.01 L-105.582 1.51" /><ns0:path style="fill:none; stroke:black;" d="M-105.1065 -28.1445 L-105.582 -27.99 L-105.582 -27.49" /></ns0:g></ns0:g></ns0:svg></ns0:svg></ns0:svg></ns0:svg></g></svg>