<svg width="115" viewBox="0 0 115 102" style="fill-opacity:1; color-rendering:auto; color-interpolation:auto; text-rendering:auto; stroke:black; stroke-linecap:square; stroke-miterlimit:10; shape-rendering:auto; stroke-opacity:1; fill:black; stroke-dasharray:none; font-weight:normal; stroke-width:1; font-family:'Open Sans'; font-style:normal; stroke-linejoin:miter; font-size:12; stroke-dashoffset:0; image-rendering:auto;" height="102" class="cas-substance-image" xmlns:xlink="http://www.w3.org/1999/xlink" xmlns="http://www.w3.org/2000/svg"><svg class="cas-substance-single-component"><rect y="0" x="0" width="115" stroke="none" ry="7" rx="7" height="102" fill="white" class="cas-substance-group"/><svg y="0" x="0" width="115" viewBox="0 0 115 102" style="fill:black;" height="102" class="cas-substance-single-component-image"><svg><g><g transform="translate(59,46)" style="text-rendering:geometricPrecision; color-rendering:optimizeQuality; color-interpolation:linearRGB; stroke-linecap:butt; image-rendering:optimizeQuality;"><line y2="-12.99" y1="12.99" x2="7.5" x1="-7.5" style="fill:none;"/><line y2="12.99" y1="12.99" x2="-37.5" x1="-7.5" style="fill:none;"/><line y2="9.49" y1="9.49" x2="-35.4793" x1="-9.5207" style="fill:none;"/><line y2="38.97" y1="12.99" x2="7.5" x1="-7.5" style="fill:none;"/><line y2="-12.99" y1="-12.99" x2="37.5" x1="7.5" style="fill:none;"/><line y2="-33.0817" y1="-12.99" x2="-4.1003" x1="7.5" style="fill:none;"/><line y2="-31.3317" y1="-12.9899" x2="-7.1314" x1="3.4585" style="fill:none;"/><line y2="-7.1017" y1="12.99" x2="-49.1003" x1="-37.5" style="fill:none;"/><line y2="38.97" y1="38.97" x2="32.1484" x1="7.5" style="fill:none;"/><line y2="12.99" y1="-12.99" x2="52.5" x1="37.5" style="fill:none;"/><line y2="-38.97" y1="-38.97" x2="-37.5" x1="-12.8516" style="fill:none;"/><line y2="-38.97" y1="-19.1283" x2="-37.5" x1="-48.956" style="fill:none;"/><line y2="-35.47" y1="-17.3783" x2="-35.4793" x1="-45.9249" style="fill:none;"/><line y2="12.99" y1="32.8317" x2="52.5" x1="41.044" style="fill:none;"/><path style="fill:none; stroke-miterlimit:5;" d="M-8 12.99 L-7.5 12.99 L-7.25 13.423"/><path style="fill:none; stroke-miterlimit:5;" d="M7.25 -13.423 L7.5 -12.99 L7.25 -12.557"/><path style="fill:none; stroke-miterlimit:5;" d="M-37 12.99 L-37.5 12.99 L-37.75 12.557"/><path style="fill:none; stroke-miterlimit:5;" d="M7.25 38.537 L7.5 38.97 L8 38.97"/><path style="fill:none; stroke-miterlimit:5;" d="M37 -12.99 L37.5 -12.99 L37.75 -12.557"/></g><g transform="translate(59,46)" style="stroke-linecap:butt; fill:rgb(0,5,255); text-rendering:geometricPrecision; color-rendering:optimizeQuality; image-rendering:optimizeQuality; font-family:'Open Sans'; stroke:rgb(0,5,255); color-interpolation:linearRGB; stroke-miterlimit:5;"><path style="stroke:none;" d="M-4.1484 -34.8138 L-5.2891 -34.8138 L-9.9766 -42.0013 L-10.0234 -42.0013 Q-9.9297 -40.7356 -9.9297 -39.6888 L-9.9297 -34.8138 L-10.8516 -34.8138 L-10.8516 -43.3763 L-9.7266 -43.3763 L-5.0547 -36.22 L-5.0078 -36.22 Q-5.0078 -36.3763 -5.0547 -37.2356 Q-5.1016 -38.095 -5.0859 -38.47 L-5.0859 -43.3763 L-4.1484 -43.3763 L-4.1484 -34.8138 Z"/><path style="stroke:none;" d="M-49.1484 -8.8337 L-50.2891 -8.8337 L-54.9766 -16.0212 L-55.0234 -16.0212 Q-54.9297 -14.7556 -54.9297 -13.7087 L-54.9297 -8.8337 L-55.8516 -8.8337 L-55.8516 -17.3962 L-54.7266 -17.3962 L-50.0547 -10.24 L-50.0078 -10.24 Q-50.0078 -10.3962 -50.0547 -11.2556 Q-50.1016 -12.115 -50.0859 -12.49 L-50.0859 -17.3962 L-49.1484 -17.3962 L-49.1484 -8.8337 Z"/><path style="stroke:none;" d="M40.8516 43.1263 L39.7109 43.1263 L35.0234 35.9388 L34.9766 35.9388 Q35.0703 37.2044 35.0703 38.2513 L35.0703 43.1263 L34.1484 43.1263 L34.1484 34.5638 L35.2734 34.5638 L39.9453 41.72 L39.9922 41.72 Q39.9922 41.5638 39.9453 40.7044 Q39.8984 39.845 39.9141 39.47 L39.9141 34.5638 L40.8516 34.5638 L40.8516 43.1263 Z"/><path style="stroke:none;" d="M40.7578 52.6888 L39.7578 52.6888 L39.7578 48.6575 L35.2422 48.6575 L35.2422 52.6888 L34.2422 52.6888 L34.2422 44.1263 L35.2422 44.1263 L35.2422 47.7669 L39.7578 47.7669 L39.7578 44.1263 L40.7578 44.1263 L40.7578 52.6888 Z"/><path style="fill:none; stroke:black;" d="M52.25 12.557 L52.5 12.99 L52.25 13.423"/><path style="fill:none; stroke:black;" d="M-37 -38.97 L-37.5 -38.97 L-37.75 -38.537"/></g></g></svg></svg></svg></svg>