<svg width="284" viewBox="0 0 284 161" style="fill-opacity:1; color-rendering:auto; color-interpolation:auto; text-rendering:auto; stroke:black; stroke-linecap:square; stroke-miterlimit:10; shape-rendering:auto; stroke-opacity:1; fill:black; stroke-dasharray:none; font-weight:normal; stroke-width:1; font-family:'Open Sans'; font-style:normal; stroke-linejoin:miter; font-size:12; stroke-dashoffset:0; image-rendering:auto;" height="161" class="cas-substance-image" xmlns:xlink="http://www.w3.org/1999/xlink" xmlns="http://www.w3.org/2000/svg"><svg class="cas-substance-single-component"><rect y="0" x="0" width="284" stroke="none" ry="7" rx="7" height="161" fill="white" class="cas-substance-group"/><svg y="0" x="0" width="284" viewBox="0 0 284 146" style="fill:black;" height="146" class="cas-substance-single-component-image"><svg><g><g transform="translate(147,73)" style="text-rendering:geometricPrecision; color-rendering:optimizeQuality; color-interpolation:linearRGB; stroke-linecap:butt; image-rendering:optimizeQuality;"><line y2="-17.922" y1="-5.8571" x2="32.607" x1="11.7106" style="fill:none;"/><path style="stroke:none;" d="M-19.606 -17.489 L-19.106 -18.355 L3.0433 -8.4549 L0.0434 -3.2587 Z"/><line y2="-2.922" y1="-17.922" x2="58.587" x1="32.607" style="fill:none;"/><line y2="-41.5704" y1="-16.9116" x2="34.357" x1="34.357" style="fill:none;"/><line y2="-41.5704" y1="-16.9116" x2="30.857" x1="30.857" style="fill:none;"/><line y2="27.078" y1="-2.922" x2="58.587" x1="58.587" style="fill:none;"/><line y2="-17.922" y1="-2.922" x2="84.567" x1="58.587" style="fill:none;"/><line y2="38.8366" y1="27.078" x2="78.9529" x1="58.587" style="fill:none;"/><line y2="37.3364" y1="25.0573" x2="37.3195" x1="58.587" style="fill:none;"/><line y2="40.3675" y1="28.0884" x2="39.0695" x1="60.337" style="fill:none;"/><line y2="-69.882" y1="-49.6296" x2="-19.356" x1="-7.6629" style="fill:none;"/><path style="stroke:none;" d="M-10.5141 -39.0798 L-10.922 -38.1603 L-10.922 -38.1603 L-6.0439 -35.3473 L-6.0439 -35.3473 L-5.4514 -36.1604 L-5.4514 -36.1604 L-10.5141 -39.0798 ZM-11.7378 -36.3214 L-12.1457 -35.4019 L-12.1457 -35.4019 L-7.8212 -32.9081 L-7.8212 -32.9081 L-7.2288 -33.7212 L-7.2288 -33.7212 L-11.7378 -36.3214 ZM-12.9615 -33.5629 L-13.3694 -32.6434 L-9.5985 -30.4689 L-9.5985 -30.4689 L-9.0061 -31.282 L-9.0061 -31.282 L-12.9615 -33.5629 ZM-14.1851 -30.8044 L-14.593 -29.8849 L-14.593 -29.8849 L-11.3759 -28.0297 L-11.3759 -28.0297 L-10.7834 -28.8428 L-10.7834 -28.8428 L-14.1851 -30.8044 ZM-15.4088 -28.046 L-15.8167 -27.1265 L-15.8167 -27.1265 L-13.1532 -25.5905 L-13.1532 -25.5905 L-12.5607 -26.4036 L-12.5607 -26.4036 L-15.4088 -28.046 ZM-16.6325 -25.2875 L-17.0404 -24.368 L-14.9305 -23.1513 L-14.9305 -23.1513 L-14.3381 -23.9644 L-16.6325 -25.2875 ZM-17.8562 -22.529 L-18.2641 -21.6095 L-18.2641 -21.6095 L-16.7078 -20.7121 L-16.7078 -20.7121 L-16.1154 -21.5252 L-16.1154 -21.5252 L-17.8562 -22.529 ZM-19.0799 -19.7706 L-19.4878 -18.8511 L-19.4878 -18.8511 L-18.4851 -18.2729 L-17.8927 -19.086 L-17.8927 -19.086 L-19.0799 -19.7706 Z"/><line y2="-30.7787" y1="-55.1627" x2="-46.5735" x1="-53.1068" style="fill:none;"/><line y2="-31.6845" y1="-56.0685" x2="-43.1927" x1="-49.7261" style="fill:none;"/><line y2="24.4377" y1="6.894" x2="-127.7695" x1="-111.975" style="fill:none;"/><line y2="-15.9231" y1="6.3532" x2="-117.5487" x1="-110.3107" style="fill:none;"/><line y2="-14.8415" y1="8.3958" x2="-120.8774" x1="-113.3271" style="fill:none;"/><path style="stroke:none;" d="M-109.6574 4.3197 L-110.6283 5.3982 L-111.5729 9.8263 L-110.5784 9.9572 L-109.3932 4.4008 L-109.6574 4.3197 ZM-107.4741 4.9896 L-108.5896 10.2191 L-107.5951 10.35 L-106.5146 5.2841 L-107.4741 4.9896 ZM-104.5955 5.8729 L-105.6063 10.6118 L-104.6119 10.7427 L-103.6359 6.1673 L-104.5955 5.8729 ZM-101.7168 6.7562 L-102.623 11.0046 L-101.6286 11.1355 L-100.7572 7.0506 L-100.7572 7.0506 L-101.7168 6.7562 ZM-98.8381 7.6395 L-99.6397 11.3973 L-99.6397 11.3973 L-98.6453 11.5282 L-97.8786 7.9339 L-98.8381 7.6395 ZM-95.9595 8.5228 L-96.6564 11.7901 L-95.662 11.921 L-95.662 11.921 L-94.9999 8.8172 L-95.9595 8.5228 ZM-93.0808 9.406 L-93.6731 12.1828 L-93.6731 12.1828 L-92.6787 12.3137 L-92.6787 12.3137 L-92.1212 9.7005 L-92.1212 9.7005 L-93.0808 9.406 ZM-90.2021 10.2893 L-90.6898 12.5756 L-90.6898 12.5756 L-89.6954 12.7065 L-89.2426 10.5837 L-90.2021 10.2893 ZM-87.3235 11.1726 L-87.7065 12.9683 L-87.7065 12.9683 L-86.7121 13.0992 L-86.7121 13.0992 L-86.3639 11.467 L-87.3235 11.1726 ZM-84.4448 12.0559 L-84.7232 13.3611 L-84.7232 13.3611 L-83.7288 13.492 L-83.4853 12.3503 L-84.4448 12.0559 Z"/><line y2="40.539" y1="69.882" x2="-70.428" x1="-64.191" style="fill:none;"/><line y2="40.539" y1="49.809" x2="-70.428" x1="-98.961" style="fill:none;"/><line y2="8.058" y1="-17.922" x2="-34.356" x1="-19.356" style="fill:none;"/><line y2="-32.922" y1="-17.922" x2="-45.336" x1="-19.356" style="fill:none;"/><line y2="-4.0069" y1="8.058" x2="-55.2524" x1="-34.356" style="fill:none;"/><line y2="30.9789" y1="8.058" x2="-39.2275" x1="-34.356" style="fill:none;"/><line y2="-13.0803" y1="-32.922" x2="-56.792" x1="-45.336" style="fill:none;"/><line y2="13.134" y1="-2.5854" x2="-82.629" x1="-65.1737" style="fill:none;"/><line y2="40.539" y1="37.8913" x2="-70.428" x1="-45.2302" style="fill:none;"/><line y2="40.539" y1="13.134" x2="-70.428" x1="-82.629" style="fill:none;"/><line y2="-47.757" y1="-17.922" x2="87.705" x1="84.567" style="fill:none;"/><line y2="-5.721" y1="-17.922" x2="111.975" x1="84.567" style="fill:none;"/><line y2="-9.7403" y1="-20.2977" x2="111.5523" x1="87.8365" style="fill:none;"/><line y2="-53.994" y1="-47.757" x2="117.048" x1="87.705" style="fill:none;"/><line y2="-50.1504" y1="-44.7536" x2="115.7991" x1="90.4093" style="fill:none;"/><line y2="-23.5379" y1="-5.721" x2="128.0177" x1="111.975" style="fill:none;"/><line y2="-33.413" y1="-53.994" x2="128.9308" x1="117.048" style="fill:none;"/><path style="stroke:none;" d="M-32.9587 7.9217 L-33.4089 9.0943 L-32.512 9.5479 L-31.9886 8.1848 L-31.9886 8.1848 L-32.9587 7.9217 ZM-30.0484 8.7112 L-30.718 10.4551 L-29.821 10.9087 L-29.0783 8.9743 L-30.0484 8.7112 ZM-27.138 9.5007 L-28.027 11.8159 L-28.027 11.8159 L-27.1301 12.2694 L-27.1301 12.2694 L-26.1679 9.7638 L-26.1679 9.7638 L-27.138 9.5007 ZM-24.2277 10.2901 L-25.3361 13.1766 L-25.3361 13.1766 L-24.4391 13.6302 L-24.4391 13.6302 L-23.2576 10.5533 L-23.2576 10.5533 L-24.2277 10.2901 ZM-21.3174 11.0796 L-22.6451 14.5374 L-22.6451 14.5374 L-21.7481 14.991 L-21.7481 14.991 L-20.3473 11.3428 L-20.3473 11.3428 L-21.3174 11.0796 ZM-18.4071 11.8691 L-19.9542 15.8982 L-19.9542 15.8982 L-19.0572 16.3518 L-19.0572 16.3518 L-17.437 12.1323 L-17.437 12.1323 L-18.4071 11.8691 ZM-15.4968 12.6586 L-17.2632 17.2589 L-16.3662 17.7125 L-14.5267 12.9218 L-14.5267 12.9218 L-15.4968 12.6586 ZM-12.5865 13.4481 L-14.5723 18.6197 L-14.5723 18.6197 L-13.6753 19.0733 L-13.6753 19.0733 L-11.6164 13.7113 L-11.6164 13.7113 L-12.5865 13.4481 Z"/></g><g transform="translate(147,73)" style="fill:rgb(0,5,255); text-rendering:geometricPrecision; color-rendering:optimizeQuality; image-rendering:optimizeQuality; font-family:'Open Sans'; stroke:rgb(0,5,255); color-interpolation:linearRGB;"><path style="stroke:none;" d="M9.9786 1.2342 L8.8379 1.2342 L4.1504 -5.9532 L4.1036 -5.9532 Q4.1973 -4.6876 4.1973 -3.6408 L4.1973 1.2342 L3.2754 1.2342 L3.2754 -7.3282 L4.4004 -7.3282 L9.0723 -0.172 L9.1192 -0.172 Q9.1192 -0.3283 9.0723 -1.1876 Q9.0254 -2.047 9.0411 -2.422 L9.0411 -7.3282 L9.9786 -7.3282 L9.9786 1.2342 Z"/><path style="stroke:none;" d="M9.8848 10.7968 L8.8848 10.7968 L8.8848 6.7655 L4.3692 6.7655 L4.3692 10.7968 L3.3692 10.7968 L3.3692 2.2343 L4.3692 2.2343 L4.3692 5.8749 L8.8848 5.8749 L8.8848 2.2343 L9.8848 2.2343 L9.8848 10.7968 Z"/></g><g transform="translate(147,73)" style="stroke-linecap:butt; text-rendering:geometricPrecision; color-rendering:optimizeQuality; image-rendering:optimizeQuality; font-family:'Open Sans'; color-interpolation:linearRGB; stroke-miterlimit:5;"><path style="fill:none;" d="M32.174 -17.672 L32.607 -17.922 L33.04 -17.672"/><path style="fill:rgb(230,0,0); stroke:none;" d="M36.5445 -47.9923 Q36.5445 -45.9298 35.5054 -44.7501 Q34.4664 -43.5704 32.6226 -43.5704 Q30.732 -43.5704 29.7007 -44.7345 Q28.6695 -45.8986 28.6695 -48.0079 Q28.6695 -50.1017 29.7007 -51.2501 Q30.732 -52.3986 32.6226 -52.3986 Q34.482 -52.3986 35.5132 -51.2267 Q36.5445 -50.0548 36.5445 -47.9923 ZM29.7164 -47.9923 Q29.7164 -46.2579 30.4586 -45.3517 Q31.2007 -44.4454 32.6226 -44.4454 Q34.0445 -44.4454 34.7711 -45.3439 Q35.4976 -46.2423 35.4976 -47.9923 Q35.4976 -49.7267 34.7711 -50.6173 Q34.0445 -51.5079 32.6226 -51.5079 Q31.2007 -51.5079 30.4586 -50.6095 Q29.7164 -49.7111 29.7164 -47.9923 Z"/><path style="fill:none;" d="M58.587 26.578 L58.587 27.078 L59.02 27.328"/><path style="fill:rgb(230,0,0); stroke:none;" d="M88.5045 42.0077 Q88.5045 44.0702 87.4654 45.2499 Q86.4264 46.4296 84.5826 46.4296 Q82.692 46.4296 81.6608 45.2655 Q80.6295 44.1014 80.6295 41.9921 Q80.6295 39.8983 81.6608 38.7499 Q82.692 37.6014 84.5826 37.6014 Q86.442 37.6014 87.4733 38.7733 Q88.5045 39.9452 88.5045 42.0077 ZM81.6764 42.0077 Q81.6764 43.7421 82.4186 44.6483 Q83.1608 45.5546 84.5826 45.5546 Q86.0045 45.5546 86.7311 44.6561 Q87.4576 43.7577 87.4576 42.0077 Q87.4576 40.2733 86.7311 39.3827 Q86.0045 38.4921 84.5826 38.4921 Q83.1608 38.4921 82.4186 39.3905 Q81.6764 40.2889 81.6764 42.0077 Z"/><path style="fill:rgb(230,0,0); stroke:none;" d="M96.0201 46.3046 L95.0201 46.3046 L95.0201 42.2733 L90.5045 42.2733 L90.5045 46.3046 L89.5045 46.3046 L89.5045 37.7421 L90.5045 37.7421 L90.5045 41.3827 L95.0201 41.3827 L95.0201 37.7421 L96.0201 37.7421 L96.0201 46.3046 Z"/><path style="fill:rgb(230,0,0); stroke:none;" d="M36.5445 42.0077 Q36.5445 44.0702 35.5054 45.2499 Q34.4664 46.4296 32.6226 46.4296 Q30.732 46.4296 29.7007 45.2655 Q28.6695 44.1014 28.6695 41.9921 Q28.6695 39.8983 29.7007 38.7499 Q30.732 37.6014 32.6226 37.6014 Q34.482 37.6014 35.5132 38.7733 Q36.5445 39.9452 36.5445 42.0077 ZM29.7164 42.0077 Q29.7164 43.7421 30.4586 44.6483 Q31.2007 45.5546 32.6226 45.5546 Q34.0445 45.5546 34.7711 44.6561 Q35.4976 43.7577 35.4976 42.0077 Q35.4976 40.2733 34.7711 39.3827 Q34.0445 38.4921 32.6226 38.4921 Q31.2007 38.4921 30.4586 39.3905 Q29.7164 40.2889 29.7164 42.0077 Z"/><path style="fill:rgb(230,0,0); stroke:none;" d="M-0.4185 -43.9723 Q-0.4185 -41.9098 -1.4576 -40.7301 Q-2.4966 -39.5504 -4.3404 -39.5504 Q-6.231 -39.5504 -7.2622 -40.7145 Q-8.2935 -41.8786 -8.2935 -43.9879 Q-8.2935 -46.0817 -7.2622 -47.2301 Q-6.231 -48.3786 -4.3404 -48.3786 Q-2.481 -48.3786 -1.4497 -47.2067 Q-0.4185 -46.0348 -0.4185 -43.9723 ZM-7.2466 -43.9723 Q-7.2466 -42.2379 -6.5044 -41.3317 Q-5.7622 -40.4254 -4.3404 -40.4254 Q-2.9185 -40.4254 -2.1919 -41.3239 Q-1.4654 -42.2223 -1.4654 -43.9723 Q-1.4654 -45.7067 -2.1919 -46.5973 Q-2.9185 -47.4879 -4.3404 -47.4879 Q-5.7622 -47.4879 -6.5044 -46.5895 Q-7.2466 -45.6911 -7.2466 -43.9723 Z"/><path style="fill:rgb(230,0,0); stroke:none;" d="M-49.1625 -61.9693 Q-49.1625 -59.9068 -50.2016 -58.7271 Q-51.2406 -57.5474 -53.0844 -57.5474 Q-54.975 -57.5474 -56.0062 -58.7115 Q-57.0375 -59.8756 -57.0375 -61.9849 Q-57.0375 -64.0787 -56.0062 -65.2271 Q-54.975 -66.3756 -53.0844 -66.3756 Q-51.225 -66.3756 -50.1937 -65.2037 Q-49.1625 -64.0318 -49.1625 -61.9693 ZM-55.9906 -61.9693 Q-55.9906 -60.2349 -55.2484 -59.3287 Q-54.5062 -58.4224 -53.0844 -58.4224 Q-51.6625 -58.4224 -50.9359 -59.3209 Q-50.2094 -60.2193 -50.2094 -61.9693 Q-50.2094 -63.7037 -50.9359 -64.5943 Q-51.6625 -65.4849 -53.0844 -65.4849 Q-54.5062 -65.4849 -55.2484 -64.5865 Q-55.9906 -63.6881 -55.9906 -61.9693 Z"/><path style="fill:rgb(230,0,0); stroke:none;" d="M-128.1105 29.1197 Q-128.1105 31.1822 -129.1496 32.3619 Q-130.1886 33.5416 -132.0324 33.5416 Q-133.923 33.5416 -134.9543 32.3775 Q-135.9855 31.2134 -135.9855 29.1041 Q-135.9855 27.0103 -134.9543 25.8619 Q-133.923 24.7134 -132.0324 24.7134 Q-130.173 24.7134 -129.1418 25.8853 Q-128.1105 27.0572 -128.1105 29.1197 ZM-134.9386 29.1197 Q-134.9386 30.8541 -134.1964 31.7603 Q-133.4543 32.6666 -132.0324 32.6666 Q-130.6105 32.6666 -129.8839 31.7681 Q-129.1574 30.8697 -129.1574 29.1197 Q-129.1574 27.3853 -129.8839 26.4947 Q-130.6105 25.6041 -132.0324 25.6041 Q-133.4543 25.6041 -134.1964 26.5025 Q-134.9386 27.4009 -134.9386 29.1197 Z"/><path style="fill:rgb(230,0,0); stroke:none;" d="M-136.9855 33.4166 L-137.9855 33.4166 L-137.9855 29.3853 L-142.5011 29.3853 L-142.5011 33.4166 L-143.5011 33.4166 L-143.5011 24.8541 L-142.5011 24.8541 L-142.5011 28.4947 L-137.9855 28.4947 L-137.9855 24.8541 L-136.9855 24.8541 L-136.9855 33.4166 Z"/><path style="fill:rgb(230,0,0); stroke:none;" d="M-117.3075 -21.7063 Q-117.3075 -19.6438 -118.3466 -18.4641 Q-119.3856 -17.2844 -121.2294 -17.2844 Q-123.12 -17.2844 -124.1513 -18.4485 Q-125.1825 -19.6126 -125.1825 -21.7219 Q-125.1825 -23.8157 -124.1513 -24.9641 Q-123.12 -26.1126 -121.2294 -26.1126 Q-119.37 -26.1126 -118.3388 -24.9407 Q-117.3075 -23.7688 -117.3075 -21.7063 ZM-124.1356 -21.7063 Q-124.1356 -19.9719 -123.3934 -19.0657 Q-122.6513 -18.1594 -121.2294 -18.1594 Q-119.8075 -18.1594 -119.0809 -19.0579 Q-118.3544 -19.9563 -118.3544 -21.7063 Q-118.3544 -23.4407 -119.0809 -24.3313 Q-119.8075 -25.2219 -121.2294 -25.2219 Q-122.6513 -25.2219 -123.3934 -24.3235 Q-124.1356 -23.4251 -124.1356 -21.7063 Z"/></g><g transform="translate(147,73)" style="stroke-linecap:butt; font-size:8.4px; fill:gray; text-rendering:geometricPrecision; image-rendering:optimizeQuality; color-rendering:optimizeQuality; font-family:'Open Sans'; font-style:italic; stroke:gray; color-interpolation:linearRGB; stroke-miterlimit:5;"><path style="stroke:none;" d="M-26.0523 -26.3782 Q-26.0523 -27.7064 -25.5836 -28.8314 Q-25.1148 -29.9564 -24.0836 -31.0345 L-23.4742 -31.0345 Q-24.443 -29.972 -24.9273 -28.8001 Q-25.4117 -27.6282 -25.4117 -26.3939 Q-25.4117 -25.0657 -24.9742 -24.0501 L-25.4898 -24.0501 Q-26.0523 -25.0814 -26.0523 -26.3782 ZM-20.4298 -26.972 Q-20.4298 -26.1439 -20.9767 -25.6907 Q-21.5235 -25.2376 -22.5235 -25.2376 Q-22.9298 -25.2376 -23.2423 -25.2923 Q-23.5548 -25.347 -23.836 -25.4876 L-23.836 -26.1439 Q-23.211 -25.8157 -22.5079 -25.8157 Q-21.8829 -25.8157 -21.5079 -26.1126 Q-21.1329 -26.4095 -21.1329 -26.9251 Q-21.1329 -27.2376 -21.336 -27.4642 Q-21.5392 -27.6907 -22.1017 -28.0189 Q-22.6954 -28.347 -22.922 -28.6751 Q-23.1485 -29.0032 -23.1485 -29.4564 Q-23.1485 -30.1907 -22.6329 -30.6517 Q-22.1173 -31.1126 -21.2735 -31.1126 Q-20.8985 -31.1126 -20.5626 -31.0345 Q-20.2267 -30.9564 -19.8517 -30.7845 L-20.1173 -30.1907 Q-20.3673 -30.347 -20.6876 -30.4329 Q-21.0079 -30.5189 -21.2735 -30.5189 Q-21.8048 -30.5189 -22.1251 -30.2454 Q-22.4454 -29.972 -22.4454 -29.5032 Q-22.4454 -29.3001 -22.3751 -29.1517 Q-22.3048 -29.0032 -22.1642 -28.8704 Q-22.0235 -28.7376 -21.6017 -28.4876 Q-21.0392 -28.1439 -20.836 -27.9485 Q-20.6329 -27.7532 -20.5314 -27.5189 Q-20.4298 -27.2845 -20.4298 -26.972 ZM-17.8353 -28.6907 Q-17.8353 -27.3626 -18.3119 -26.2298 Q-18.7884 -25.097 -19.8041 -24.0501 L-20.4134 -24.0501 Q-18.4759 -26.2064 -18.4759 -28.6907 Q-18.4759 -30.0189 -18.9134 -31.0345 L-18.3978 -31.0345 Q-17.8353 -29.972 -17.8353 -28.6907 Z"/><path style="stroke:none;" d="M-47.8801 13.2895 Q-47.8801 11.9613 -47.4113 10.8363 Q-46.9426 9.7113 -45.9113 8.6332 L-45.3019 8.6332 Q-46.2707 9.6957 -46.7551 10.8676 Q-47.2394 12.0395 -47.2394 13.2738 Q-47.2394 14.602 -46.8019 15.6176 L-47.3176 15.6176 Q-47.8801 14.5863 -47.8801 13.2895 ZM-44.32 11.977 L-44.82 14.352 L-45.4763 14.352 L-44.2731 8.6332 L-43.0231 8.6332 Q-41.2888 8.6332 -41.2888 10.0707 Q-41.2888 11.4301 -42.7263 11.8207 L-41.7888 14.352 L-42.5075 14.352 L-43.3356 11.977 L-44.32 11.977 ZM-43.7419 9.227 Q-44.1325 11.1488 -44.195 11.3988 L-43.5388 11.3988 Q-42.7888 11.3988 -42.3825 11.0707 Q-41.9763 10.7426 -41.9763 10.1176 Q-41.9763 9.6488 -42.2341 9.4379 Q-42.4919 9.227 -43.0856 9.227 L-43.7419 9.227 ZM-39.1028 10.977 Q-39.1028 12.3051 -39.5794 13.4379 Q-40.0559 14.5707 -41.0715 15.6176 L-41.6809 15.6176 Q-39.7434 13.4613 -39.7434 10.977 Q-39.7434 9.6488 -40.1809 8.6332 L-39.6653 8.6332 Q-39.1028 9.6957 -39.1028 10.977 Z"/><path style="fill:none; stroke:black;" d="M-44.903 -32.672 L-45.336 -32.922 L-45.586 -32.489"/></g><g transform="translate(147,73)" style="stroke-linecap:butt; fill:rgb(0,5,255); text-rendering:geometricPrecision; color-rendering:optimizeQuality; image-rendering:optimizeQuality; font-family:'Open Sans'; stroke:rgb(0,5,255); color-interpolation:linearRGB; stroke-miterlimit:5;"><path style="stroke:none;" d="M-56.9844 -2.7857 L-58.1251 -2.7857 L-62.8126 -9.9732 L-62.8594 -9.9732 Q-62.7657 -8.7076 -62.7657 -7.6607 L-62.7657 -2.7857 L-63.6876 -2.7857 L-63.6876 -11.3482 L-62.5626 -11.3482 L-57.8907 -4.192 L-57.8438 -4.192 Q-57.8438 -4.3482 -57.8907 -5.2076 Q-57.9376 -6.067 -57.9219 -6.442 L-57.9219 -11.3482 L-56.9844 -11.3482 L-56.9844 -2.7857 Z"/><path style="fill:rgb(148,108,0); stroke:none;" d="M-37.8977 39.3415 Q-37.8977 40.4665 -38.718 41.1071 Q-39.5383 41.7477 -40.9446 41.7477 Q-42.4758 41.7477 -43.2883 41.3415 L-43.2883 40.3884 Q-42.7571 40.6071 -42.1399 40.7399 Q-41.5227 40.8727 -40.9133 40.8727 Q-39.9133 40.8727 -39.4133 40.4899 Q-38.9133 40.1071 -38.9133 39.4352 Q-38.9133 38.9977 -39.093 38.7087 Q-39.2727 38.4196 -39.6867 38.1774 Q-40.1008 37.9352 -40.9602 37.6384 Q-42.1477 37.2165 -42.6633 36.6306 Q-43.1789 36.0446 -43.1789 35.0915 Q-43.1789 34.1071 -42.4367 33.5212 Q-41.6946 32.9352 -40.4602 32.9352 Q-39.1946 32.9352 -38.1164 33.404 L-38.4289 34.2634 Q-39.4914 33.8259 -40.4914 33.8259 Q-41.2883 33.8259 -41.7336 34.1618 Q-42.1789 34.4977 -42.1789 35.1071 Q-42.1789 35.5446 -42.0149 35.8337 Q-41.8508 36.1227 -41.4602 36.3571 Q-41.0696 36.5915 -40.2571 36.8884 Q-38.9133 37.3571 -38.4055 37.9118 Q-37.8977 38.4665 -37.8977 39.3415 Z"/><path style="fill:none; stroke:black;" d="M-82.2575 12.7994 L-82.629 13.134 L-82.4256 13.5908"/></g><g transform="translate(147,73)" style="stroke-linecap:butt; font-size:8.4px; fill:gray; text-rendering:geometricPrecision; image-rendering:optimizeQuality; color-rendering:optimizeQuality; font-family:'Open Sans'; font-style:italic; stroke:gray; color-interpolation:linearRGB; stroke-miterlimit:5;"><path style="stroke:none;" d="M-89.3257 4.6779 Q-89.3257 3.3497 -88.857 2.2247 Q-88.3882 1.0997 -87.357 0.0216 L-86.7476 0.0216 Q-87.7164 1.0841 -88.2007 2.256 Q-88.6851 3.4279 -88.6851 4.6622 Q-88.6851 5.9904 -88.2476 7.006 L-88.7632 7.006 Q-89.3257 5.9747 -89.3257 4.6779 ZM-83.7032 4.0841 Q-83.7032 4.9122 -84.2501 5.3654 Q-84.7969 5.8185 -85.7969 5.8185 Q-86.2032 5.8185 -86.5157 5.7638 Q-86.8282 5.7091 -87.1094 5.5685 L-87.1094 4.9122 Q-86.4844 5.2404 -85.7813 5.2404 Q-85.1563 5.2404 -84.7813 4.9435 Q-84.4063 4.6466 -84.4063 4.131 Q-84.4063 3.8185 -84.6094 3.5919 Q-84.8126 3.3654 -85.3751 3.0372 Q-85.9688 2.7091 -86.1954 2.381 Q-86.4219 2.0529 -86.4219 1.5997 Q-86.4219 0.8654 -85.9063 0.4044 Q-85.3907 -0.0565 -84.5469 -0.0565 Q-84.1719 -0.0565 -83.836 0.0216 Q-83.5001 0.0997 -83.1251 0.2716 L-83.3907 0.8654 Q-83.6407 0.7091 -83.961 0.6232 Q-84.2813 0.5372 -84.5469 0.5372 Q-85.0782 0.5372 -85.3985 0.8107 Q-85.7188 1.0841 -85.7188 1.5529 Q-85.7188 1.756 -85.6485 1.9044 Q-85.5782 2.0529 -85.4376 2.1857 Q-85.2969 2.3185 -84.8751 2.5685 Q-84.3126 2.9122 -84.1094 3.1076 Q-83.9063 3.3029 -83.8047 3.5372 Q-83.7032 3.7716 -83.7032 4.0841 ZM-81.1087 2.3654 Q-81.1087 3.6935 -81.5853 4.8263 Q-82.0618 5.9591 -83.0775 7.006 L-83.6868 7.006 Q-81.7493 4.8497 -81.7493 2.3654 Q-81.7493 1.0372 -82.1868 0.0216 L-81.6712 0.0216 Q-81.1087 1.0841 -81.1087 2.3654 Z"/><path style="fill:none; stroke:black;" d="M85.0238 -17.7187 L84.567 -17.922 L84.6193 -18.4193"/><path style="fill:none; stroke:black;" d="M87.6527 -47.2597 L87.705 -47.757 L88.1941 -47.861"/><path style="fill:none; stroke:black;" d="M111.5182 -5.9243 L111.975 -5.721 L112.3096 -6.0926"/><path style="fill:none; stroke:black;" d="M116.5589 -53.89 L117.048 -53.994 L117.298 -53.561"/></g><g transform="translate(147,73)" style="stroke-linecap:butt; fill:rgb(148,108,0); text-rendering:geometricPrecision; color-rendering:optimizeQuality; image-rendering:optimizeQuality; font-family:'Open Sans'; stroke:rgb(148,108,0); color-interpolation:linearRGB; stroke-miterlimit:5;"><path style="stroke:none;" d="M134.7433 -26.0765 Q134.7433 -24.9515 133.923 -24.3109 Q133.1027 -23.6702 131.6964 -23.6702 Q130.1652 -23.6702 129.3527 -24.0765 L129.3527 -25.0296 Q129.8839 -24.8109 130.5011 -24.6781 Q131.1183 -24.5452 131.7277 -24.5452 Q132.7277 -24.5452 133.2277 -24.9281 Q133.7277 -25.3109 133.7277 -25.9827 Q133.7277 -26.4202 133.548 -26.7093 Q133.3683 -26.9984 132.9543 -27.2406 Q132.5402 -27.4827 131.6808 -27.7796 Q130.4933 -28.2015 129.9777 -28.7874 Q129.4621 -29.3734 129.4621 -30.3265 Q129.4621 -31.3109 130.2043 -31.8968 Q130.9464 -32.4827 132.1808 -32.4827 Q133.4464 -32.4827 134.5246 -32.014 L134.2121 -31.1546 Q133.1496 -31.5921 132.1496 -31.5921 Q131.3527 -31.5921 130.9074 -31.2562 Q130.4621 -30.9202 130.4621 -30.3109 Q130.4621 -29.8734 130.6261 -29.5843 Q130.7902 -29.2952 131.1808 -29.0609 Q131.5714 -28.8265 132.3839 -28.5296 Q133.7277 -28.0609 134.2355 -27.5062 Q134.7433 -26.9515 134.7433 -26.0765 Z"/><path style="fill:black; stroke:none;" d="M-3.0902 22.9662 L-4.0902 22.9662 L-4.0902 18.935 L-8.6058 18.935 L-8.6058 22.9662 L-9.6058 22.9662 L-9.6058 14.4037 L-8.6058 14.4037 L-8.6058 18.0444 L-4.0902 18.0444 L-4.0902 14.4037 L-3.0902 14.4037 L-3.0902 22.9662 Z"/></g></g></svg></svg><svg y="146" x="119" class="cas-substance-saf"><svg y="5" x="0" width="4" style="fill:black;" height="4" class="cas-substance-saf-dot"><circle stroke="none" r="2" fill="black" cy="2" cx="2"/></svg><svg y="0" x="7" width="12" style="fill:black;" height="15" class="cas-substance-saf-coefficient"><svg><g><g transform="translate(6,7)" style="text-rendering:geometricPrecision; font-family:'Open Sans'; color-interpolation:linearRGB; color-rendering:optimizeQuality; image-rendering:optimizeQuality;"><path style="stroke:none;" d="M2.8125 4.2188 L-2.8125 4.2188 L-2.8125 3.375 L-0.5625 1.1094 Q0.4688 0.0625 0.7969 -0.3828 Q1.125 -0.8281 1.2891 -1.25 Q1.4531 -1.6719 1.4531 -2.1562 Q1.4531 -2.8438 1.0391 -3.2422 Q0.625 -3.6406 -0.125 -3.6406 Q-0.6562 -3.6406 -1.1328 -3.4609 Q-1.6094 -3.2812 -2.1875 -2.8281 L-2.7031 -3.4844 Q-1.5312 -4.4688 -0.125 -4.4688 Q1.0781 -4.4688 1.7656 -3.8516 Q2.4531 -3.2344 2.4531 -2.1875 Q2.4531 -1.375 1.9922 -0.5781 Q1.5312 0.2188 0.2812 1.4375 L-1.5938 3.2656 L-1.5938 3.3125 L2.8125 3.3125 L2.8125 4.2188 Z"/></g></g></svg></svg><svg y="0" x="23" width="20" style="fill:black;" height="15" class="cas-substance-saf-image"><svg><g><g transform="translate(10,7)" style="text-rendering:geometricPrecision; font-family:'Open Sans'; color-interpolation:linearRGB; color-rendering:optimizeQuality; image-rendering:optimizeQuality;"><path style="stroke:none;" d="M-0.0859 4.1562 L-1.2266 4.1562 L-5.9141 -3.0312 L-5.9609 -3.0312 Q-5.8672 -1.7656 -5.8672 -0.7188 L-5.8672 4.1562 L-6.7891 4.1562 L-6.7891 -4.4062 L-5.6641 -4.4062 L-0.9922 2.75 L-0.9453 2.75 Q-0.9453 2.5938 -0.9922 1.7344 Q-1.0391 0.875 -1.0234 0.5 L-1.0234 -4.4062 L-0.0859 -4.4062 L-0.0859 4.1562 ZM6.0703 4.1562 L5.8672 3.2344 L5.8203 3.2344 Q5.3516 3.8438 4.875 4.0625 Q4.3984 4.2812 3.6797 4.2812 Q2.7266 4.2812 2.1797 3.7812 Q1.6328 3.2812 1.6328 2.375 Q1.6328 0.4375 4.7422 0.3438 L5.8359 0.3125 L5.8359 -0.0938 Q5.8359 -0.8438 5.5156 -1.2031 Q5.1953 -1.5625 4.4766 -1.5625 Q3.6641 -1.5625 2.6641 -1.0781 L2.3516 -1.8281 Q2.8359 -2.0781 3.3984 -2.2266 Q3.9609 -2.375 4.5391 -2.375 Q5.6797 -2.375 6.2344 -1.8672 Q6.7891 -1.3594 6.7891 -0.2344 L6.7891 4.1562 L6.0703 4.1562 ZM3.8672 3.4688 Q4.7734 3.4688 5.2969 2.9688 Q5.8203 2.4688 5.8203 1.5781 L5.8203 1 L4.8359 1.0312 Q3.6797 1.0781 3.1719 1.3984 Q2.6641 1.7188 2.6641 2.3906 Q2.6641 2.9219 2.9766 3.1953 Q3.2891 3.4688 3.8672 3.4688 Z"/></g></g></svg></svg></svg></svg></svg>