<svg width="218" viewBox="0 0 218 90" style="fill-opacity:1; color-rendering:auto; color-interpolation:auto; text-rendering:auto; stroke:black; stroke-linecap:square; stroke-miterlimit:10; shape-rendering:auto; stroke-opacity:1; fill:black; stroke-dasharray:none; font-weight:normal; stroke-width:1; font-family:'Open Sans'; font-style:normal; stroke-linejoin:miter; font-size:12; stroke-dashoffset:0; image-rendering:auto;" height="90" class="cas-substance-image" xmlns:xlink="http://www.w3.org/1999/xlink" xmlns="http://www.w3.org/2000/svg"><svg class="cas-substance-single-component"><rect y="0" x="0" width="218" stroke="none" ry="7" rx="7" height="90" fill="white" class="cas-substance-group"/><svg y="0" x="0" width="218" viewBox="0 0 218 75" style="fill:black;" height="75" class="cas-substance-single-component-image"><svg><g><g transform="translate(112,37)" style="text-rendering:geometricPrecision; color-rendering:optimizeQuality; color-interpolation:linearRGB; stroke-linecap:butt; image-rendering:optimizeQuality;"><line y2="-23.6484" y1="-6.4688" x2="-65.75" x1="-65.75" style="fill:none;"/><line y2="-23.6484" y1="-6.4688" x2="-69.25" x1="-69.25" style="fill:none;"/><line y2="23.5234" y1="6.3438" x2="-69.25" x1="-69.25" style="fill:none;"/><line y2="23.5234" y1="6.3438" x2="-65.75" x1="-65.75" style="fill:none;"/><line y2="0" y1="0" x2="-91.5625" x1="-72.1433" style="fill:none;"/><line y2="0" y1="0" x2="-37.5" x1="-62.939" style="fill:none;"/><line y2="-25.98" y1="0" x2="67.5" x1="52.5" style="fill:none;"/><line y2="0" y1="0" x2="22.5" x1="52.5" style="fill:none;"/><line y2="-25.98" y1="-25.98" x2="89.8311" x1="67.5" style="fill:none;"/><line y2="25.98" y1="0" x2="-22.5" x1="-37.5" style="fill:none;"/><line y2="22.48" y1="-0.0001" x2="-20.4793" x1="-33.4585" style="fill:none;"/><line y2="-25.98" y1="0" x2="-22.5" x1="-37.5" style="fill:none;"/><line y2="25.98" y1="25.98" x2="7.5" x1="-22.5" style="fill:none;"/><line y2="-25.98" y1="-25.98" x2="7.5" x1="-22.5" style="fill:none;"/><line y2="-22.48" y1="-22.48" x2="5.4793" x1="-20.4793" style="fill:none;"/><line y2="0" y1="25.98" x2="22.5" x1="7.5" style="fill:none;"/><line y2="-0.0001" y1="22.48" x2="18.4585" x1="5.4793" style="fill:none;"/><line y2="0" y1="-25.98" x2="22.5" x1="7.5" style="fill:none;"/></g><g transform="translate(112,37)" style="fill:rgb(148,108,0); text-rendering:geometricPrecision; color-rendering:optimizeQuality; image-rendering:optimizeQuality; font-family:'Open Sans'; stroke:rgb(148,108,0); color-interpolation:linearRGB;"><path style="stroke:none;" d="M-64.8047 1.9375 Q-64.8047 3.0625 -65.625 3.7031 Q-66.4453 4.3438 -67.8516 4.3438 Q-69.3828 4.3438 -70.1953 3.9375 L-70.1953 2.9844 Q-69.6641 3.2031 -69.0469 3.3359 Q-68.4297 3.4688 -67.8203 3.4688 Q-66.8203 3.4688 -66.3203 3.0859 Q-65.8203 2.7031 -65.8203 2.0312 Q-65.8203 1.5938 -66 1.3047 Q-66.1797 1.0156 -66.5938 0.7734 Q-67.0078 0.5312 -67.8672 0.2344 Q-69.0547 -0.1875 -69.5703 -0.7734 Q-70.0859 -1.3594 -70.0859 -2.3125 Q-70.0859 -3.2969 -69.3438 -3.8828 Q-68.6016 -4.4688 -67.3672 -4.4688 Q-66.1016 -4.4688 -65.0234 -4 L-65.3359 -3.1406 Q-66.3984 -3.5781 -67.3984 -3.5781 Q-68.1953 -3.5781 -68.6406 -3.2422 Q-69.0859 -2.9062 -69.0859 -2.2969 Q-69.0859 -1.8594 -68.9219 -1.5703 Q-68.7578 -1.2812 -68.3672 -1.0469 Q-67.9766 -0.8125 -67.1641 -0.5156 Q-65.8203 -0.0469 -65.3125 0.5078 Q-64.8047 1.0625 -64.8047 1.9375 Z"/><path style="fill:rgb(230,0,0); stroke:none;" d="M-63.5625 -30.0703 Q-63.5625 -28.0078 -64.6016 -26.8281 Q-65.6406 -25.6484 -67.4844 -25.6484 Q-69.375 -25.6484 -70.4062 -26.8125 Q-71.4375 -27.9766 -71.4375 -30.0859 Q-71.4375 -32.1797 -70.4062 -33.3281 Q-69.375 -34.4766 -67.4844 -34.4766 Q-65.625 -34.4766 -64.5938 -33.3047 Q-63.5625 -32.1328 -63.5625 -30.0703 ZM-70.3906 -30.0703 Q-70.3906 -28.3359 -69.6484 -27.4297 Q-68.9062 -26.5234 -67.4844 -26.5234 Q-66.0625 -26.5234 -65.3359 -27.4219 Q-64.6094 -28.3203 -64.6094 -30.0703 Q-64.6094 -31.8047 -65.3359 -32.6953 Q-66.0625 -33.5859 -67.4844 -33.5859 Q-68.9062 -33.5859 -69.6484 -32.6875 Q-70.3906 -31.7891 -70.3906 -30.0703 Z"/><path style="fill:rgb(230,0,0); stroke:none;" d="M-63.5625 29.9297 Q-63.5625 31.9922 -64.6016 33.1719 Q-65.6406 34.3516 -67.4844 34.3516 Q-69.375 34.3516 -70.4062 33.1875 Q-71.4375 32.0234 -71.4375 29.9141 Q-71.4375 27.8203 -70.4062 26.6719 Q-69.375 25.5234 -67.4844 25.5234 Q-65.625 25.5234 -64.5938 26.6953 Q-63.5625 27.8672 -63.5625 29.9297 ZM-70.3906 29.9297 Q-70.3906 31.6641 -69.6484 32.5703 Q-68.9062 33.4766 -67.4844 33.4766 Q-66.0625 33.4766 -65.3359 32.5781 Q-64.6094 31.6797 -64.6094 29.9297 Q-64.6094 28.1953 -65.3359 27.3047 Q-66.0625 26.4141 -67.4844 26.4141 Q-68.9062 26.4141 -69.6484 27.3125 Q-70.3906 28.2109 -70.3906 29.9297 Z"/><path style="fill:rgb(230,0,0); stroke:none;" d="M-93.5625 -0.0703 Q-93.5625 1.9922 -94.6016 3.1719 Q-95.6406 4.3516 -97.4844 4.3516 Q-99.375 4.3516 -100.4062 3.1875 Q-101.4375 2.0234 -101.4375 -0.0859 Q-101.4375 -2.1797 -100.4062 -3.3281 Q-99.375 -4.4766 -97.4844 -4.4766 Q-95.625 -4.4766 -94.5938 -3.3047 Q-93.5625 -2.1328 -93.5625 -0.0703 ZM-100.3906 -0.0703 Q-100.3906 1.6641 -99.6484 2.5703 Q-98.9062 3.4766 -97.4844 3.4766 Q-96.0625 3.4766 -95.3359 2.5781 Q-94.6094 1.6797 -94.6094 -0.0703 Q-94.6094 -1.8047 -95.3359 -2.6953 Q-96.0625 -3.5859 -97.4844 -3.5859 Q-98.9062 -3.5859 -99.6484 -2.6875 Q-100.3906 -1.7891 -100.3906 -0.0703 Z"/><path style="fill:rgb(230,0,0); stroke:none;" d="M-102.4375 4.2266 L-103.4375 4.2266 L-103.4375 0.1953 L-107.9531 0.1953 L-107.9531 4.2266 L-108.9531 4.2266 L-108.9531 -4.3359 L-107.9531 -4.3359 L-107.9531 -0.6953 L-103.4375 -0.6953 L-103.4375 -4.3359 L-102.4375 -4.3359 L-102.4375 4.2266 Z"/></g><g transform="translate(112,37)" style="stroke-linecap:butt; text-rendering:geometricPrecision; color-rendering:optimizeQuality; image-rendering:optimizeQuality; font-family:'Open Sans'; color-interpolation:linearRGB; stroke-miterlimit:5;"><path style="fill:none;" d="M52.75 -0.433 L52.5 0 L52 -0"/><path style="fill:none;" d="M67.25 -25.547 L67.5 -25.98 L68 -25.98"/><path style="fill:rgb(0,138,0); stroke:none;" d="M91.8311 -30.3862 L94.2529 -30.3862 Q95.9561 -30.3862 96.7217 -29.8784 Q97.4873 -29.3706 97.4873 -28.2769 Q97.4873 -27.5112 97.0654 -27.0112 Q96.6436 -26.5112 95.8154 -26.3706 L95.8154 -26.3081 Q97.7686 -25.98 97.7686 -24.2612 Q97.7686 -23.1206 96.9951 -22.4722 Q96.2217 -21.8237 94.8311 -21.8237 L91.8311 -21.8237 L91.8311 -30.3862 ZM92.8311 -26.73 L94.4717 -26.73 Q95.5342 -26.73 95.9951 -27.0581 Q96.4561 -27.3862 96.4561 -28.1675 Q96.4561 -28.8862 95.9404 -29.2066 Q95.4248 -29.5269 94.2998 -29.5269 L92.8311 -29.5269 L92.8311 -26.73 ZM92.8311 -25.8862 L92.8311 -22.6675 L94.6279 -22.6675 Q95.6592 -22.6675 96.1826 -23.0737 Q96.7061 -23.48 96.7061 -24.3394 Q96.7061 -25.1362 96.167 -25.5112 Q95.6279 -25.8862 94.5342 -25.8862 L92.8311 -25.8862 ZM102.4033 -28.3706 Q102.8252 -28.3706 103.1689 -28.2925 L103.0283 -27.3862 Q102.6377 -27.48 102.3252 -27.48 Q101.5439 -27.48 100.9893 -26.8472 Q100.4346 -26.2144 100.4346 -25.2769 L100.4346 -21.8237 L99.4658 -21.8237 L99.4658 -28.2456 L100.2627 -28.2456 L100.3877 -27.0581 L100.4346 -27.0581 Q100.7783 -27.6831 101.2861 -28.0269 Q101.7939 -28.3706 102.4033 -28.3706 Z"/><path style="fill:none;" d="M-37.25 0.433 L-37.5 0 L-38 -0"/><path style="fill:none;" d="M-22.75 25.547 L-22.5 25.98 L-22 25.98"/><path style="fill:none;" d="M-22.75 -25.547 L-22.5 -25.98 L-22 -25.98"/><path style="fill:none;" d="M7 25.98 L7.5 25.98 L7.75 25.547"/><path style="fill:none;" d="M7 -25.98 L7.5 -25.98 L7.75 -25.547"/><path style="fill:none;" d="M22.25 0.433 L22.5 0 L23 0"/></g></g></svg></svg><svg y="75" x="101" class="cas-substance-saf"><svg y="5" x="0" width="4" style="fill:black;" height="4" class="cas-substance-saf-dot"><circle stroke="none" r="2" fill="black" cy="2" cx="2"/></svg><svg y="0" x="8" width="20" style="fill:black;" height="15" class="cas-substance-saf-image"><svg><g><g transform="translate(10,7)" style="text-rendering:geometricPrecision; font-family:'Open Sans'; color-interpolation:linearRGB; color-rendering:optimizeQuality; image-rendering:optimizeQuality;"><path style="stroke:none;" d="M-0.0859 4.1562 L-1.2266 4.1562 L-5.9141 -3.0312 L-5.9609 -3.0312 Q-5.8672 -1.7656 -5.8672 -0.7188 L-5.8672 4.1562 L-6.7891 4.1562 L-6.7891 -4.4062 L-5.6641 -4.4062 L-0.9922 2.75 L-0.9453 2.75 Q-0.9453 2.5938 -0.9922 1.7344 Q-1.0391 0.875 -1.0234 0.5 L-1.0234 -4.4062 L-0.0859 -4.4062 L-0.0859 4.1562 ZM6.0703 4.1562 L5.8672 3.2344 L5.8203 3.2344 Q5.3516 3.8438 4.875 4.0625 Q4.3984 4.2812 3.6797 4.2812 Q2.7266 4.2812 2.1797 3.7812 Q1.6328 3.2812 1.6328 2.375 Q1.6328 0.4375 4.7422 0.3438 L5.8359 0.3125 L5.8359 -0.0938 Q5.8359 -0.8438 5.5156 -1.2031 Q5.1953 -1.5625 4.4766 -1.5625 Q3.6641 -1.5625 2.6641 -1.0781 L2.3516 -1.8281 Q2.8359 -2.0781 3.3984 -2.2266 Q3.9609 -2.375 4.5391 -2.375 Q5.6797 -2.375 6.2344 -1.8672 Q6.7891 -1.3594 6.7891 -0.2344 L6.7891 4.1562 L6.0703 4.1562 ZM3.8672 3.4688 Q4.7734 3.4688 5.2969 2.9688 Q5.8203 2.4688 5.8203 1.5781 L5.8203 1 L4.8359 1.0312 Q3.6797 1.0781 3.1719 1.3984 Q2.6641 1.7188 2.6641 2.3906 Q2.6641 2.9219 2.9766 3.1953 Q3.2891 3.4688 3.8672 3.4688 Z"/></g></g></svg></svg></svg></svg></svg>