<svg width="252" viewBox="0 0 252 135" style="fill-opacity:1; color-rendering:auto; color-interpolation:auto; text-rendering:auto; stroke:black; stroke-linecap:square; stroke-miterlimit:10; shape-rendering:auto; stroke-opacity:1; fill:black; stroke-dasharray:none; font-weight:normal; stroke-width:1; font-family:'Open Sans'; font-style:normal; stroke-linejoin:miter; font-size:12; stroke-dashoffset:0; image-rendering:auto;" height="135" class="cas-substance-image" xmlns:xlink="http://www.w3.org/1999/xlink" xmlns="http://www.w3.org/2000/svg"><svg class="cas-substance-single-component"><rect y="0" x="0" width="252" stroke="none" ry="7" rx="7" height="135" fill="white" class="cas-substance-group"/><svg y="0" x="0" width="252" viewBox="0 0 252 135" style="fill:black;" height="135" class="cas-substance-single-component-image"><svg><g><g transform="translate(120,67)" style="text-rendering:geometricPrecision; color-rendering:optimizeQuality; color-interpolation:linearRGB; stroke-linecap:butt; image-rendering:optimizeQuality;"><line y2="-36.4062" y1="-53.6484" x2="-40.72" x1="-40.72" style="fill:none;"/><line y2="-36.4062" y1="-53.6484" x2="-37.22" x1="-37.22" style="fill:none;"/><line y2="36.1562" y1="53.5234" x2="-37.22" x1="-37.22" style="fill:none;"/><line y2="36.1562" y1="53.5234" x2="-40.72" x1="-40.72" style="fill:none;"/><line y2="-17.9351" y1="-30" x2="33.8864" x1="12.99" style="fill:none;"/><line y2="-53.6484" y1="-28.9896" x2="14.74" x1="14.74" style="fill:none;"/><line y2="-53.6484" y1="-28.9896" x2="11.24" x1="11.24" style="fill:none;"/><line y2="-15" y1="-30" x2="-12.99" x1="12.99" style="fill:none;"/><line y2="-30" y1="-17.9348" x2="64.953" x1="44.0536" style="fill:none;"/><line y2="-15" y1="-30" x2="90.933" x1="64.953" style="fill:none;"/><line y2="-26.8112" y1="-15" x2="111.39" x1="90.933" style="fill:none;"/><line y2="15" y1="30" x2="-12.99" x1="12.99" style="fill:none;"/><line y2="15" y1="-15" x2="-64.953" x1="-64.953" style="fill:none;"/><line y2="12.9793" y1="-12.9793" x2="-61.453" x1="-61.453" style="fill:none;"/><line y2="-27.0652" y1="-15" x2="-44.0536" x1="-64.953" style="fill:none;"/><line y2="-30" y1="-15" x2="-90.933" x1="-64.953" style="fill:none;"/><line y2="27.0652" y1="15" x2="-44.0536" x1="-64.953" style="fill:none;"/><line y2="30" y1="15" x2="-90.933" x1="-64.953" style="fill:none;"/><line y2="-15" y1="-27.0649" x2="-12.99" x1="-33.8864" style="fill:none;"/><line y2="-12.9793" y1="-24.0338" x2="-16.49" x1="-35.6364" style="fill:none;"/><line y2="-15" y1="-30" x2="-116.913" x1="-90.933" style="fill:none;"/><line y2="-12.9793" y1="-25.9585" x2="-113.413" x1="-90.9329" style="fill:none;"/><line y2="15" y1="27.0649" x2="-12.99" x1="-33.8864" style="fill:none;"/><line y2="12.9793" y1="24.0338" x2="-16.49" x1="-35.6364" style="fill:none;"/><line y2="15" y1="30" x2="-116.913" x1="-90.933" style="fill:none;"/><line y2="12.9793" y1="25.9585" x2="-113.413" x1="-90.9329" style="fill:none;"/><line y2="15" y1="-15" x2="-12.99" x1="-12.99" style="fill:none;"/><line y2="15" y1="-15" x2="-116.913" x1="-116.913" style="fill:none;"/></g><g transform="translate(120,67)" style="fill:rgb(230,0,0); text-rendering:geometricPrecision; color-rendering:optimizeQuality; image-rendering:optimizeQuality; font-family:'Open Sans'; stroke:rgb(230,0,0); color-interpolation:linearRGB;"><path style="stroke:none;" d="M-35.0325 -60.0703 Q-35.0325 -58.0078 -36.0716 -56.8281 Q-37.1106 -55.6484 -38.9544 -55.6484 Q-40.845 -55.6484 -41.8763 -56.8125 Q-42.9075 -57.9766 -42.9075 -60.0859 Q-42.9075 -62.1797 -41.8763 -63.3281 Q-40.845 -64.4766 -38.9544 -64.4766 Q-37.095 -64.4766 -36.0638 -63.3047 Q-35.0325 -62.1328 -35.0325 -60.0703 ZM-41.8606 -60.0703 Q-41.8606 -58.3359 -41.1184 -57.4297 Q-40.3763 -56.5234 -38.9544 -56.5234 Q-37.5325 -56.5234 -36.8059 -57.4219 Q-36.0794 -58.3203 -36.0794 -60.0703 Q-36.0794 -61.8047 -36.8059 -62.6953 Q-37.5325 -63.5859 -38.9544 -63.5859 Q-40.3763 -63.5859 -41.1184 -62.6875 Q-41.8606 -61.7891 -41.8606 -60.0703 Z"/><path style="stroke:none;" d="M-35.0325 59.9297 Q-35.0325 61.9922 -36.0716 63.1719 Q-37.1106 64.3516 -38.9544 64.3516 Q-40.845 64.3516 -41.8763 63.1875 Q-42.9075 62.0234 -42.9075 59.9141 Q-42.9075 57.8203 -41.8763 56.6719 Q-40.845 55.5234 -38.9544 55.5234 Q-37.095 55.5234 -36.0638 56.6953 Q-35.0325 57.8672 -35.0325 59.9297 ZM-41.8606 59.9297 Q-41.8606 61.6641 -41.1184 62.5703 Q-40.3763 63.4766 -38.9544 63.4766 Q-37.5325 63.4766 -36.8059 62.5781 Q-36.0794 61.6797 -36.0794 59.9297 Q-36.0794 58.1953 -36.8059 57.3047 Q-37.5325 56.4141 -38.9544 56.4141 Q-40.3763 56.4141 -41.1184 57.3125 Q-41.8606 58.2109 -41.8606 59.9297 Z"/></g><g transform="translate(120,67)" style="stroke-linecap:butt; text-rendering:geometricPrecision; color-rendering:optimizeQuality; image-rendering:optimizeQuality; font-family:'Open Sans'; color-interpolation:linearRGB; stroke-miterlimit:5;"><path style="fill:none;" d="M13.423 -29.75 L12.99 -30 L12.557 -29.75"/><path style="fill:rgb(0,5,255); stroke:none;" d="M42.3216 -10.8438 L41.1809 -10.8438 L36.4934 -18.0312 L36.4466 -18.0312 Q36.5403 -16.7656 36.5403 -15.7188 L36.5403 -10.8438 L35.6184 -10.8438 L35.6184 -19.4062 L36.7434 -19.4062 L41.4153 -12.25 L41.4622 -12.25 Q41.4622 -12.4062 41.4153 -13.2656 Q41.3684 -14.125 41.3841 -14.5 L41.3841 -19.4062 L42.3216 -19.4062 L42.3216 -10.8438 Z"/><path style="fill:rgb(0,5,255); stroke:none;" d="M42.2278 -1.2812 L41.2278 -1.2812 L41.2278 -5.3125 L36.7122 -5.3125 L36.7122 -1.2812 L35.7122 -1.2812 L35.7122 -9.8438 L36.7122 -9.8438 L36.7122 -6.2031 L41.2278 -6.2031 L41.2278 -9.8438 L42.2278 -9.8438 L42.2278 -1.2812 Z"/><path style="fill:rgb(230,0,0); stroke:none;" d="M16.9275 -60.0703 Q16.9275 -58.0078 15.8884 -56.8281 Q14.8494 -55.6484 13.0056 -55.6484 Q11.115 -55.6484 10.0837 -56.8125 Q9.0525 -57.9766 9.0525 -60.0859 Q9.0525 -62.1797 10.0837 -63.3281 Q11.115 -64.4766 13.0056 -64.4766 Q14.865 -64.4766 15.8962 -63.3047 Q16.9275 -62.1328 16.9275 -60.0703 ZM10.0994 -60.0703 Q10.0994 -58.3359 10.8416 -57.4297 Q11.5837 -56.5234 13.0056 -56.5234 Q14.4275 -56.5234 15.1541 -57.4219 Q15.8806 -58.3203 15.8806 -60.0703 Q15.8806 -61.8047 15.1541 -62.6953 Q14.4275 -63.5859 13.0056 -63.5859 Q11.5837 -63.5859 10.8416 -62.6875 Q10.0994 -61.7891 10.0994 -60.0703 Z"/><path style="fill:none;" d="M64.52 -29.75 L64.953 -30 L65.386 -29.75"/><path style="fill:none;" d="M90.5 -15.25 L90.933 -15 L91.366 -15.25"/><path style="fill:rgb(230,0,0); stroke:none;" d="M120.8505 -30.0703 Q120.8505 -28.0078 119.8114 -26.8281 Q118.7724 -25.6484 116.9286 -25.6484 Q115.038 -25.6484 114.0068 -26.8125 Q112.9755 -27.9766 112.9755 -30.0859 Q112.9755 -32.1797 114.0068 -33.3281 Q115.038 -34.4766 116.9286 -34.4766 Q118.788 -34.4766 119.8193 -33.3047 Q120.8505 -32.1328 120.8505 -30.0703 ZM114.0224 -30.0703 Q114.0224 -28.3359 114.7646 -27.4297 Q115.5068 -26.5234 116.9286 -26.5234 Q118.3505 -26.5234 119.0771 -27.4219 Q119.8036 -28.3203 119.8036 -30.0703 Q119.8036 -31.8047 119.0771 -32.6953 Q118.3505 -33.5859 116.9286 -33.5859 Q115.5068 -33.5859 114.7646 -32.6875 Q114.0224 -31.7891 114.0224 -30.0703 Z"/><path style="fill:rgb(230,0,0); stroke:none;" d="M128.3661 -25.7734 L127.3661 -25.7734 L127.3661 -29.8047 L122.8505 -29.8047 L122.8505 -25.7734 L121.8505 -25.7734 L121.8505 -34.3359 L122.8505 -34.3359 L122.8505 -30.6953 L127.3661 -30.6953 L127.3661 -34.3359 L128.3661 -34.3359 L128.3661 -25.7734 Z"/><path style="fill:none;" d="M-64.953 -14.5 L-64.953 -15 L-64.52 -15.25"/><path style="fill:none;" d="M-64.953 14.5 L-64.953 15 L-64.52 15.25"/><path style="fill:rgb(0,5,255); stroke:none;" d="M-35.6184 -25.8438 L-36.7591 -25.8438 L-41.4466 -33.0312 L-41.4934 -33.0312 Q-41.3997 -31.7656 -41.3997 -30.7188 L-41.3997 -25.8438 L-42.3216 -25.8438 L-42.3216 -34.4062 L-41.1966 -34.4062 L-36.5247 -27.25 L-36.4778 -27.25 Q-36.4778 -27.4062 -36.5247 -28.2656 Q-36.5716 -29.125 -36.5559 -29.5 L-36.5559 -34.4062 L-35.6184 -34.4062 L-35.6184 -25.8438 Z"/><path style="fill:none;" d="M-90.5 -29.75 L-90.933 -30 L-91.366 -29.75"/><path style="fill:rgb(0,5,255); stroke:none;" d="M-35.6184 34.1562 L-36.7591 34.1562 L-41.4466 26.9688 L-41.4934 26.9688 Q-41.3997 28.2344 -41.3997 29.2812 L-41.3997 34.1562 L-42.3216 34.1562 L-42.3216 25.5938 L-41.1966 25.5938 L-36.5247 32.75 L-36.4778 32.75 Q-36.4778 32.5938 -36.5247 31.7344 Q-36.5716 30.875 -36.5559 30.5 L-36.5559 25.5938 L-35.6184 25.5938 L-35.6184 34.1562 Z"/><path style="fill:none;" d="M-90.5 29.75 L-90.933 30 L-91.366 29.75"/><path style="fill:none;" d="M-13.423 -15.25 L-12.99 -15 L-12.557 -15.25"/><path style="fill:none;" d="M-116.48 -15.25 L-116.913 -15 L-116.913 -14.5"/><path style="fill:none;" d="M-13.423 15.25 L-12.99 15 L-12.99 14.5"/><path style="fill:none;" d="M-116.48 15.25 L-116.913 15 L-116.913 14.5"/></g></g></svg></svg></svg></svg>