<svg xmlns:ns0="http://www.w3.org/2000/svg" xmlns="http://www.w3.org/2000/svg"><g transform="translate(0, 0)"><ns0:svg width="166" viewBox="0 0 166 146" style="fill-opacity:1; color-rendering:auto; color-interpolation:auto; text-rendering:auto; stroke:black; stroke-linecap:square; stroke-miterlimit:10; shape-rendering:auto; stroke-opacity:1; fill:black; stroke-dasharray:none; font-weight:normal; stroke-width:1; font-family:'Open Sans'; font-style:normal; stroke-linejoin:miter; font-size:12; stroke-dashoffset:0; image-rendering:auto;" height="146" class="cas-substance-image"><ns0:svg class="cas-substance-single-component"><ns0:rect y="0" x="0" width="166" stroke="none" ry="7" rx="7" height="146" fill="white" class="cas-substance-group" /><ns0:svg y="0" x="0" width="166" viewBox="0 0 166 146" style="fill:black;" height="146" class="cas-substance-single-component-image"><ns0:svg><ns0:g><ns0:g transform="translate(81,75)" style="text-rendering:geometricPrecision; color-rendering:optimizeQuality; color-interpolation:linearRGB; stroke-linecap:butt; image-rendering:optimizeQuality;"><ns0:line y2="-22.5" y1="-37.5" x2="-77.943" x1="-51.963" style="fill:none;" /><ns0:line y2="-67.5" y1="-37.5" x2="-51.963" x1="-51.963" style="fill:none;" /><ns0:line y2="-22.5" y1="-37.5" x2="-25.98" x1="-51.963" style="fill:none;" /><ns0:line y2="7.5" y1="19.2742" x2="-25.98" x1="-46.3753" style="fill:none;" /><ns0:line y2="67.5" y1="52.5" x2="25.98" x1="0" style="fill:none;" /><ns0:line y2="67.5" y1="52.5" x2="-25.98" x1="0" style="fill:none;" /><ns0:line y2="22.5" y1="52.5" x2="0" x1="0" style="fill:none;" /><ns0:line y2="-61.1484" y1="-37.5" x2="51.963" x1="51.963" style="fill:none;" /><ns0:line y2="-24.2259" y1="-36.4897" x2="71.4538" x1="50.2129" style="fill:none;" /><ns0:line y2="-27.257" y1="-39.5207" x2="73.2039" x1="51.963" style="fill:none;" /><ns0:line y2="-22.5" y1="-37.5" x2="25.98" x1="51.963" style="fill:none;" /><ns0:line y2="7.5" y1="-22.5" x2="-25.98" x1="-25.98" style="fill:none;" /><ns0:line y2="5.4793" y1="-20.4793" x2="-22.48" x1="-22.48" style="fill:none;" /><ns0:line y2="-37.5" y1="-22.5" x2="0" x1="-25.98" style="fill:none;" /><ns0:line y2="22.5" y1="7.5" x2="0" x1="-25.98" style="fill:none;" /><ns0:line y2="-22.5" y1="-37.5" x2="25.98" x1="0" style="fill:none;" /><ns0:line y2="-20.4793" y1="-33.4585" x2="22.48" x1="-0.0001" style="fill:none;" /><ns0:line y2="7.5" y1="22.5" x2="25.98" x1="0" style="fill:none;" /><ns0:line y2="5.4793" y1="18.4585" x2="22.48" x1="-0.0001" style="fill:none;" /><ns0:line y2="7.5" y1="-22.5" x2="25.98" x1="25.98" style="fill:none;" /></ns0:g><ns0:g transform="translate(81,75)" style="fill:rgb(230,0,0); text-rendering:geometricPrecision; color-rendering:optimizeQuality; image-rendering:optimizeQuality; font-family:'Open Sans'; stroke:rgb(230,0,0); color-interpolation:linearRGB;"><ns0:path style="stroke:none;" d="M-48.0255 22.4297 Q-48.0255 24.4922 -49.0646 25.6719 Q-50.1036 26.8516 -51.9474 26.8516 Q-53.838 26.8516 -54.8693 25.6875 Q-55.9005 24.5234 -55.9005 22.4141 Q-55.9005 20.3203 -54.8693 19.1719 Q-53.838 18.0234 -51.9474 18.0234 Q-50.088 18.0234 -49.0568 19.1953 Q-48.0255 20.3672 -48.0255 22.4297 ZM-54.8536 22.4297 Q-54.8536 24.1641 -54.1114 25.0703 Q-53.3693 25.9766 -51.9474 25.9766 Q-50.5255 25.9766 -49.7989 25.0781 Q-49.0724 24.1797 -49.0724 22.4297 Q-49.0724 20.6953 -49.7989 19.8047 Q-50.5255 18.9141 -51.9474 18.9141 Q-53.3693 18.9141 -54.1114 19.8125 Q-54.8536 20.7109 -54.8536 22.4297 Z" /><ns0:path style="stroke:none;" d="M-56.9005 26.7266 L-57.9005 26.7266 L-57.9005 22.6953 L-62.4161 22.6953 L-62.4161 26.7266 L-63.4161 26.7266 L-63.4161 18.1641 L-62.4161 18.1641 L-62.4161 21.8047 L-57.9005 21.8047 L-57.9005 18.1641 L-56.9005 18.1641 L-56.9005 26.7266 Z" /></ns0:g><ns0:g transform="translate(81,75)" style="stroke-linecap:butt; text-rendering:geometricPrecision; color-rendering:optimizeQuality; image-rendering:optimizeQuality; font-family:'Open Sans'; color-interpolation:linearRGB; stroke-miterlimit:5;"><ns0:path style="fill:none;" d="M51.963 -38 L51.963 -37.5 L51.53 -37.25" /><ns0:path style="fill:rgb(230,0,0); stroke:none;" d="M55.9005 -67.5703 Q55.9005 -65.5078 54.8614 -64.3281 Q53.8224 -63.1484 51.9786 -63.1484 Q50.088 -63.1484 49.0568 -64.3125 Q48.0255 -65.4766 48.0255 -67.5859 Q48.0255 -69.6797 49.0568 -70.8281 Q50.088 -71.9766 51.9786 -71.9766 Q53.838 -71.9766 54.8693 -70.8047 Q55.9005 -69.6328 55.9005 -67.5703 ZM49.0724 -67.5703 Q49.0724 -65.8359 49.8146 -64.9297 Q50.5568 -64.0234 51.9786 -64.0234 Q53.4005 -64.0234 54.1271 -64.9219 Q54.8536 -65.8203 54.8536 -67.5703 Q54.8536 -69.3047 54.1271 -70.1953 Q53.4005 -71.0859 51.9786 -71.0859 Q50.5568 -71.0859 49.8146 -70.1875 Q49.0724 -69.2891 49.0724 -67.5703 Z" /><ns0:path style="fill:rgb(230,0,0); stroke:none;" d="M63.4161 -63.2734 L62.4161 -63.2734 L62.4161 -67.3047 L57.9005 -67.3047 L57.9005 -63.2734 L56.9005 -63.2734 L56.9005 -71.8359 L57.9005 -71.8359 L57.9005 -68.1953 L62.4161 -68.1953 L62.4161 -71.8359 L63.4161 -71.8359 L63.4161 -63.2734 Z" /><ns0:path style="fill:rgb(230,0,0); stroke:none;" d="M81.8805 -22.5703 Q81.8805 -20.5078 80.8414 -19.3281 Q79.8024 -18.1484 77.9586 -18.1484 Q76.068 -18.1484 75.0368 -19.3125 Q74.0055 -20.4766 74.0055 -22.5859 Q74.0055 -24.6797 75.0368 -25.8281 Q76.068 -26.9766 77.9586 -26.9766 Q79.818 -26.9766 80.8493 -25.8047 Q81.8805 -24.6328 81.8805 -22.5703 ZM75.0524 -22.5703 Q75.0524 -20.8359 75.7946 -19.9297 Q76.5368 -19.0234 77.9586 -19.0234 Q79.3805 -19.0234 80.1071 -19.9219 Q80.8336 -20.8203 80.8336 -22.5703 Q80.8336 -24.3047 80.1071 -25.1953 Q79.3805 -26.0859 77.9586 -26.0859 Q76.5368 -26.0859 75.7946 -25.1875 Q75.0524 -24.2891 75.0524 -22.5703 Z" /><ns0:path style="fill:none;" d="M-25.98 -22 L-25.98 -22.5 L-26.413 -22.75" /><ns0:path style="fill:none;" d="M-25.98 7 L-25.98 7.5 L-26.413 7.75" /><ns0:path style="fill:none;" d="M-0.433 -37.25 L0 -37.5 L0.433 -37.25" /><ns0:path style="fill:none;" d="M0.433 22.25 L0 22.5 L-0 23" /><ns0:path style="fill:none;" d="M25.547 -22.75 L25.98 -22.5 L26.413 -22.75" /><ns0:path style="fill:none;" d="M25.547 7.75 L25.98 7.5 L25.98 7" /></ns0:g></ns0:g></ns0:svg></ns0:svg></ns0:svg></ns0:svg></g></svg>