<svg xmlns:ns0="http://www.w3.org/2000/svg" xmlns="http://www.w3.org/2000/svg"><g transform="translate(0, 0)"><ns0:svg width="374" viewBox="0 0 374 191" style="fill-opacity:1; color-rendering:auto; color-interpolation:auto; text-rendering:auto; stroke:black; stroke-linecap:square; stroke-miterlimit:10; shape-rendering:auto; stroke-opacity:1; fill:black; stroke-dasharray:none; font-weight:normal; stroke-width:1; font-family:'Open Sans'; font-style:normal; stroke-linejoin:miter; font-size:12; stroke-dashoffset:0; image-rendering:auto;" height="191" class="cas-substance-image"><ns0:svg class="cas-substance-single-component"><ns0:rect y="0" x="0" width="374" stroke="none" ry="7" rx="7" height="191" fill="white" class="cas-substance-group" /><ns0:svg y="0" x="0" width="374" viewBox="0 0 374 191" style="fill:black;" height="191" class="cas-substance-single-component-image"><ns0:svg><ns0:g><ns0:g transform="translate(185,97)" style="text-rendering:geometricPrecision; color-rendering:optimizeQuality; color-interpolation:linearRGB; stroke-linecap:butt; image-rendering:optimizeQuality;"><ns0:line y2="-1.4192" y1="-10.5496" x2="46.0044" x1="30.1887" style="fill:none;" /><ns0:line y2="-4.4504" y1="-13.5808" x2="47.7543" x1="31.9386" style="fill:none;" /><ns0:line y2="0" y1="-12.0649" x2="0" x1="20.8964" style="fill:none;" /><ns0:line y2="-15" y1="-2.9351" x2="77.943" x1="57.0466" style="fill:none;" /><ns0:line y2="-15" y1="-38.6484" x2="-25.98" x1="-25.98" style="fill:none;" /><ns0:line y2="-2.9351" y1="-15" x2="-98.8394" x1="-77.943" style="fill:none;" /><ns0:line y2="-38.6484" y1="-13.9896" x2="-76.193" x1="-76.193" style="fill:none;" /><ns0:line y2="-38.6484" y1="-13.9896" x2="-79.693" x1="-79.693" style="fill:none;" /><ns0:line y2="0" y1="-15" x2="-51.963" x1="-77.943" style="fill:none;" /><ns0:line y2="-15" y1="-2.9351" x2="-129.903" x1="-109.0066" style="fill:none;" /><ns0:line y2="45" y1="33.1888" x2="-181.866" x1="-161.409" style="fill:none;" /><ns0:line y2="0" y1="23.5234" x2="-155.886" x1="-155.886" style="fill:none;" /><ns0:line y2="-83.8438" y1="-60" x2="155.886" x1="155.886" style="fill:none;" /><ns0:line y2="-46.7259" y1="-58.9897" x2="175.3768" x1="154.1359" style="fill:none;" /><ns0:line y2="-49.757" y1="-62.0207" x2="177.1269" x1="155.886" style="fill:none;" /><ns0:line y2="-45" y1="-60" x2="129.903" x1="155.886" style="fill:none;" /><ns0:line y2="0" y1="30" x2="0" x1="0" style="fill:none;" /><ns0:line y2="45" y1="30" x2="-25.98" x1="0" style="fill:none;" /><ns0:line y2="47.0207" y1="34.0415" x2="-22.48" x1="0.0001" style="fill:none;" /><ns0:line y2="45" y1="30" x2="25.98" x1="0" style="fill:none;" /><ns0:line y2="-15" y1="0" x2="-25.98" x1="0" style="fill:none;" /><ns0:line y2="-10.9585" y1="2.0207" x2="-25.9801" x1="-3.5" style="fill:none;" /><ns0:line y2="30" y1="45" x2="-51.963" x1="-25.98" style="fill:none;" /><ns0:line y2="75" y1="45" x2="-25.98" x1="-25.98" style="fill:none;" /><ns0:line y2="75" y1="45" x2="25.98" x1="25.98" style="fill:none;" /><ns0:line y2="72.9793" y1="47.0207" x2="22.48" x1="22.48" style="fill:none;" /><ns0:line y2="0" y1="-15" x2="-51.963" x1="-25.98" style="fill:none;" /><ns0:line y2="0" y1="30" x2="-51.963" x1="-51.963" style="fill:none;" /><ns0:line y2="2.0207" y1="27.9793" x2="-48.463" x1="-48.463" style="fill:none;" /><ns0:line y2="90" y1="75" x2="0" x1="-25.98" style="fill:none;" /><ns0:line y2="85.9585" y1="72.9793" x2="0.0001" x1="-22.48" style="fill:none;" /><ns0:line y2="90" y1="75" x2="0" x1="25.98" style="fill:none;" /><ns0:line y2="-45" y1="-15" x2="77.943" x1="77.943" style="fill:none;" /><ns0:line y2="-42.9793" y1="-17.0207" x2="81.443" x1="81.443" style="fill:none;" /><ns0:line y2="0" y1="-15" x2="103.923" x1="77.943" style="fill:none;" /><ns0:line y2="-60" y1="-45" x2="103.923" x1="77.943" style="fill:none;" /><ns0:line y2="-15" y1="0" x2="129.903" x1="103.923" style="fill:none;" /><ns0:line y2="-17.0207" y1="-4.0415" x2="126.403" x1="103.9229" style="fill:none;" /><ns0:line y2="-45" y1="-60" x2="129.903" x1="103.923" style="fill:none;" /><ns0:line y2="-42.9793" y1="-55.9585" x2="126.403" x1="103.9229" style="fill:none;" /><ns0:line y2="-45" y1="-15" x2="129.903" x1="129.903" style="fill:none;" /><ns0:line y2="0" y1="-15" x2="-155.886" x1="-129.903" style="fill:none;" /><ns0:line y2="-4.0415" y1="-17.0209" x2="-155.8859" x1="-133.4029" style="fill:none;" /><ns0:line y2="-45" y1="-15" x2="-129.903" x1="-129.903" style="fill:none;" /><ns0:line y2="-15" y1="0" x2="-181.866" x1="-155.886" style="fill:none;" /><ns0:line y2="-60" y1="-45" x2="-155.886" x1="-129.903" style="fill:none;" /><ns0:line y2="-55.9585" y1="-42.9791" x2="-155.8859" x1="-133.4029" style="fill:none;" /><ns0:line y2="-45" y1="-15" x2="-181.866" x1="-181.866" style="fill:none;" /><ns0:line y2="-42.9793" y1="-17.0207" x2="-178.366" x1="-178.366" style="fill:none;" /><ns0:line y2="-45" y1="-60" x2="-181.866" x1="-155.886" style="fill:none;" /></ns0:g><ns0:g transform="translate(185,97)" style="fill:rgb(0,5,255); text-rendering:geometricPrecision; color-rendering:optimizeQuality; image-rendering:optimizeQuality; font-family:'Open Sans'; stroke:rgb(0,5,255); color-interpolation:linearRGB;"><ns0:path style="stroke:none;" d="M29.3316 -10.8438 L28.1909 -10.8438 L23.5034 -18.0312 L23.4566 -18.0312 Q23.5503 -16.7656 23.5503 -15.7188 L23.5503 -10.8438 L22.6284 -10.8438 L22.6284 -19.4062 L23.7534 -19.4062 L28.4253 -12.25 L28.4722 -12.25 Q28.4722 -12.4062 28.4253 -13.2656 Q28.3784 -14.125 28.3941 -14.5 L28.3941 -19.4062 L29.3316 -19.4062 L29.3316 -10.8438 Z" /><ns0:path style="stroke:none;" d="M55.3146 4.1562 L54.1739 4.1562 L49.4864 -3.0312 L49.4396 -3.0312 Q49.5333 -1.7656 49.5333 -0.7188 L49.5333 4.1562 L48.6114 4.1562 L48.6114 -4.4062 L49.7364 -4.4062 L54.4083 2.75 L54.4552 2.75 Q54.4552 2.5938 54.4083 1.7344 Q54.3614 0.875 54.3771 0.5 L54.3771 -4.4062 L55.3146 -4.4062 L55.3146 4.1562 Z" /><ns0:path style="fill:rgb(230,0,0); stroke:none;" d="M-22.0425 -45.0703 Q-22.0425 -43.0078 -23.0816 -41.8281 Q-24.1206 -40.6484 -25.9644 -40.6484 Q-27.855 -40.6484 -28.8862 -41.8125 Q-29.9175 -42.9766 -29.9175 -45.0859 Q-29.9175 -47.1797 -28.8862 -48.3281 Q-27.855 -49.4766 -25.9644 -49.4766 Q-24.105 -49.4766 -23.0737 -48.3047 Q-22.0425 -47.1328 -22.0425 -45.0703 ZM-28.8706 -45.0703 Q-28.8706 -43.3359 -28.1284 -42.4297 Q-27.3862 -41.5234 -25.9644 -41.5234 Q-24.5425 -41.5234 -23.8159 -42.4219 Q-23.0894 -43.3203 -23.0894 -45.0703 Q-23.0894 -46.8047 -23.8159 -47.6953 Q-24.5425 -48.5859 -25.9644 -48.5859 Q-27.3862 -48.5859 -28.1284 -47.6875 Q-28.8706 -46.7891 -28.8706 -45.0703 Z" /><ns0:path style="fill:rgb(230,0,0); stroke:none;" d="M-14.5269 -40.7734 L-15.5269 -40.7734 L-15.5269 -44.8047 L-20.0425 -44.8047 L-20.0425 -40.7734 L-21.0425 -40.7734 L-21.0425 -49.3359 L-20.0425 -49.3359 L-20.0425 -45.6953 L-15.5269 -45.6953 L-15.5269 -49.3359 L-14.5269 -49.3359 L-14.5269 -40.7734 Z" /></ns0:g><ns0:g transform="translate(185,97)" style="stroke-linecap:butt; text-rendering:geometricPrecision; color-rendering:optimizeQuality; image-rendering:optimizeQuality; font-family:'Open Sans'; color-interpolation:linearRGB; stroke-miterlimit:5;"><ns0:path style="fill:none;" d="M-78.376 -14.75 L-77.943 -15 L-77.51 -14.75" /><ns0:path style="fill:rgb(0,5,255); stroke:none;" d="M-100.5714 4.1562 L-101.7121 4.1562 L-106.3996 -3.0312 L-106.4464 -3.0312 Q-106.3527 -1.7656 -106.3527 -0.7188 L-106.3527 4.1562 L-107.2746 4.1562 L-107.2746 -4.4062 L-106.1496 -4.4062 L-101.4777 2.75 L-101.4308 2.75 Q-101.4308 2.5938 -101.4777 1.7344 Q-101.5246 0.875 -101.5089 0.5 L-101.5089 -4.4062 L-100.5714 -4.4062 L-100.5714 4.1562 Z" /><ns0:path style="fill:rgb(0,5,255); stroke:none;" d="M-100.6652 13.7188 L-101.6652 13.7188 L-101.6652 9.6875 L-106.1808 9.6875 L-106.1808 13.7188 L-107.1808 13.7188 L-107.1808 5.1562 L-106.1808 5.1562 L-106.1808 8.7969 L-101.6652 8.7969 L-101.6652 5.1562 L-100.6652 5.1562 L-100.6652 13.7188 Z" /><ns0:path style="fill:rgb(230,0,0); stroke:none;" d="M-74.0055 -45.0703 Q-74.0055 -43.0078 -75.0446 -41.8281 Q-76.0836 -40.6484 -77.9274 -40.6484 Q-79.818 -40.6484 -80.8493 -41.8125 Q-81.8805 -42.9766 -81.8805 -45.0859 Q-81.8805 -47.1797 -80.8493 -48.3281 Q-79.818 -49.4766 -77.9274 -49.4766 Q-76.068 -49.4766 -75.0368 -48.3047 Q-74.0055 -47.1328 -74.0055 -45.0703 ZM-80.8336 -45.0703 Q-80.8336 -43.3359 -80.0914 -42.4297 Q-79.3493 -41.5234 -77.9274 -41.5234 Q-76.5055 -41.5234 -75.7789 -42.4219 Q-75.0524 -43.3203 -75.0524 -45.0703 Q-75.0524 -46.8047 -75.7789 -47.6953 Q-76.5055 -48.5859 -77.9274 -48.5859 Q-79.3493 -48.5859 -80.0914 -47.6875 Q-80.8336 -46.7891 -80.8336 -45.0703 Z" /><ns0:path style="fill:rgb(230,0,0); stroke:none;" d="M-151.9485 29.9297 Q-151.9485 31.9922 -152.9876 33.1719 Q-154.0266 34.3516 -155.8704 34.3516 Q-157.761 34.3516 -158.7923 33.1875 Q-159.8235 32.0234 -159.8235 29.9141 Q-159.8235 27.8203 -158.7923 26.6719 Q-157.761 25.5234 -155.8704 25.5234 Q-154.011 25.5234 -152.9798 26.6953 Q-151.9485 27.8672 -151.9485 29.9297 ZM-158.7766 29.9297 Q-158.7766 31.6641 -158.0344 32.5703 Q-157.2923 33.4766 -155.8704 33.4766 Q-154.4485 33.4766 -153.7219 32.5781 Q-152.9954 31.6797 -152.9954 29.9297 Q-152.9954 28.1953 -153.7219 27.3047 Q-154.4485 26.4141 -155.8704 26.4141 Q-157.2923 26.4141 -158.0344 27.3125 Q-158.7766 28.2109 -158.7766 29.9297 Z" /><ns0:path style="fill:none;" d="M155.886 -60.5 L155.886 -60 L155.453 -59.75" /><ns0:path style="fill:rgb(0,5,255); stroke:none;" d="M159.2376 -85.8438 L158.0969 -85.8438 L153.4094 -93.0312 L153.3626 -93.0312 Q153.4563 -91.7656 153.4563 -90.7188 L153.4563 -85.8438 L152.5344 -85.8438 L152.5344 -94.4062 L153.6594 -94.4062 L158.3313 -87.25 L158.3782 -87.25 Q158.3782 -87.4062 158.3313 -88.2656 Q158.2844 -89.125 158.3001 -89.5 L158.3001 -94.4062 L159.2376 -94.4062 L159.2376 -85.8438 Z" /><ns0:path style="fill:rgb(0,5,255); stroke:none;" d="M166.7532 -85.8438 L165.7532 -85.8438 L165.7532 -89.875 L161.2376 -89.875 L161.2376 -85.8438 L160.2376 -85.8438 L160.2376 -94.4062 L161.2376 -94.4062 L161.2376 -90.7656 L165.7532 -90.7656 L165.7532 -94.4062 L166.7532 -94.4062 L166.7532 -85.8438 Z" /><ns0:path style="fill:rgb(0,5,255); stroke:none;" d="M171.5032 -84.0344 L167.7532 -84.0344 L167.7532 -84.5969 L169.2532 -86.1125 Q169.9407 -86.8 170.1594 -87.0969 Q170.3782 -87.3938 170.4876 -87.675 Q170.5969 -87.9563 170.5969 -88.2844 Q170.5969 -88.7375 170.3235 -89.0031 Q170.0501 -89.2688 169.5501 -89.2688 Q169.2063 -89.2688 168.886 -89.1516 Q168.5657 -89.0344 168.1751 -88.7375 L167.8313 -89.175 Q168.6126 -89.8313 169.5501 -89.8313 Q170.3469 -89.8313 170.8079 -89.4172 Q171.2688 -89.0031 171.2688 -88.3156 Q171.2688 -87.7688 170.9641 -87.2375 Q170.6594 -86.7063 169.8157 -85.8938 L168.5657 -84.675 L168.5657 -84.6438 L171.5032 -84.6438 L171.5032 -84.0344 Z" /><ns0:path style="fill:rgb(230,0,0); stroke:none;" d="M185.8035 -45.0703 Q185.8035 -43.0078 184.7644 -41.8281 Q183.7254 -40.6484 181.8816 -40.6484 Q179.991 -40.6484 178.9597 -41.8125 Q177.9285 -42.9766 177.9285 -45.0859 Q177.9285 -47.1797 178.9597 -48.3281 Q179.991 -49.4766 181.8816 -49.4766 Q183.741 -49.4766 184.7722 -48.3047 Q185.8035 -47.1328 185.8035 -45.0703 ZM178.9754 -45.0703 Q178.9754 -43.3359 179.7176 -42.4297 Q180.4597 -41.5234 181.8816 -41.5234 Q183.3035 -41.5234 184.0301 -42.4219 Q184.7566 -43.3203 184.7566 -45.0703 Q184.7566 -46.8047 184.0301 -47.6953 Q183.3035 -48.5859 181.8816 -48.5859 Q180.4597 -48.5859 179.7176 -47.6875 Q178.9754 -46.7891 178.9754 -45.0703 Z" /><ns0:path style="fill:none;" d="M-0.433 30.25 L0 30 L0 29.5" /><ns0:path style="fill:none;" d="M-0.433 -0.25 L0 0 L0.433 -0.25" /><ns0:path style="fill:none;" d="M-25.547 44.75 L-25.98 45 L-25.98 45.5" /><ns0:path style="fill:none;" d="M25.547 44.75 L25.98 45 L25.98 45.5" /><ns0:path style="fill:none;" d="M-25.547 -14.75 L-25.98 -15 L-26.413 -14.75" /><ns0:path style="fill:none;" d="M-51.53 30.25 L-51.963 30 L-51.963 29.5" /><ns0:path style="fill:none;" d="M-25.98 74.5 L-25.98 75 L-25.547 75.25" /><ns0:path style="fill:none;" d="M25.98 74.5 L25.98 75 L25.547 75.25" /><ns0:path style="fill:none;" d="M-51.963 0.5 L-51.963 0 L-52.396 -0.25" /><ns0:path style="fill:none;" d="M-0.433 89.75 L0 90 L0.433 89.75" /><ns0:path style="fill:none;" d="M77.943 -15.5 L77.943 -15 L77.51 -14.75" /><ns0:path style="fill:none;" d="M77.943 -44.5 L77.943 -45 L78.376 -45.25" /><ns0:path style="fill:none;" d="M103.49 -0.25 L103.923 0 L104.356 -0.25" /><ns0:path style="fill:none;" d="M103.49 -59.75 L103.923 -60 L104.356 -59.75" /><ns0:path style="fill:none;" d="M129.47 -14.75 L129.903 -15 L129.903 -15.5" /><ns0:path style="fill:none;" d="M129.47 -45.25 L129.903 -45 L130.336 -45.25" /><ns0:path style="fill:none;" d="M-130.336 -14.75 L-129.903 -15 L-129.903 -15.5" /><ns0:path style="fill:none;" d="M-155.453 -0.25 L-155.886 0 L-155.886 0.5" /><ns0:path style="fill:none;" d="M-129.903 -44.5 L-129.903 -45 L-130.336 -45.25" /><ns0:path style="fill:none;" d="M-181.433 -14.75 L-181.866 -15 L-181.866 -15.5" /><ns0:path style="fill:none;" d="M-155.453 -59.75 L-155.886 -60 L-156.319 -59.75" /><ns0:path style="fill:none;" d="M-181.866 -44.5 L-181.866 -45 L-181.433 -45.25" /></ns0:g></ns0:g></ns0:svg></ns0:svg></ns0:svg></ns0:svg></g></svg>